<svg xmlns="http://www.w3.org/2000/svg" xmlns:xlink="http://www.w3.org/1999/xlink" width="16" height="16" viewBox="0 0 16 16"><rect id="frame" width="16" height="16" fill="none"/><defs><path id="a" d="M.733 3.899C1.898 1.584 4.333 0 7.163 0c1.823 0 3.451.668 4.72 1.75L9.8 3.787a4.2 4.2 0 0 0-2.637-.923c-1.879 0-3.465 1.185-4.02 2.835L.732 3.9z"/><path id="b" d="M.733 10.102A6.876 6.876 0 0 1 0 7C0 5.885.264 4.832.733 3.9l2.41 1.8A4.068 4.068 0 0 0 2.93 7c0 .455.075.893.212 1.302l-2.409 1.8z"/><path id="c" d="M.732 10.1l2.409-1.804c.554 1.653 2.141 2.841 4.022 2.841 1.986 0 3.484-.986 3.842-2.705H7.163V6.705h6.674c.098.414.163-.118.163.295 0 4.455-3.256 7-6.837 7-2.832 0-5.266-1.584-6.43-3.9z"/><path id="d" d="M11.831 12.257l-2.287-1.73a3.155 3.155 0 0 0 1.46-2.095H7.164V6h6.674c.098.414.163.587.163 1 0 2.282-.854 4.063-2.169 5.257z"/></defs><g fill="none" fill-rule="evenodd" transform="translate(1 1)"><use fill="#EA4335" xlink:href="#a"/><use fill="#FBBC05" xlink:href="#b"/><use fill="#34A853" xlink:href="#c"/><use fill="#4285F4" xlink:href="#d"/></g></svg>