<svg xmlns="http://www.w3.org/2000/svg" width="16" height="16" viewBox="0 0 16 16"><rect id="frame" width="16" height="16" fill="none"/><defs><linearGradient id="a" x1="0%" x2="74.521%" y1="0%" y2="64.11%"><stop offset="0%" stop-color="#5A9FD4"/><stop offset="100%" stop-color="#306998"/></linearGradient><linearGradient id="b" x1="50%" x2="23.443%" y1="82.276%" y2="44.914%"><stop offset="0%" stop-color="#FFD43B"/><stop offset="100%" stop-color="#FFE873"/></linearGradient></defs><g fill="none" fill-rule="evenodd"><path fill="#AFB1B3" d="M9 4a2 2 0 0 0-2 2v1H6a2 2 0 0 0-2 2H3V7H0V6h3V5H0V4h3V3H0V2h3V0h6v2h3v1H9v1z"/><g fill-rule="nonzero"><path fill="url(#a)" d="M5.411.039c-.447.002-.873.04-1.249.106C3.056.341 2.855.75 2.855 1.504V2.5H5.47v.332H1.875c-.76 0-1.425.457-1.633 1.325-.24.996-.251 1.617 0 2.657.185.773.63 1.325 1.389 1.325h.898V6.945c0-.863.747-1.624 1.633-1.624h2.61c.727 0 1.308-.598 1.308-1.328V1.504c0-.708-.598-1.24-1.307-1.359A8.152 8.152 0 0 0 5.41.04zm-1.413.8c.27 0 .49.225.49.5s-.22.497-.49.497a.493.493 0 0 1-.49-.496c0-.276.219-.5.49-.5z" transform="translate(5 5)"/><path fill="url(#b)" d="M8.406 2.832v1.16c0 .9-.763 1.658-1.633 1.658h-2.61c-.716 0-1.308.612-1.308 1.328v2.489c0 .708.616 1.125 1.307 1.328.827.243 1.62.287 2.61 0 .659-.19 1.308-.574 1.308-1.328V8.47H5.469v-.332h3.917c.76 0 1.043-.53 1.307-1.325.273-.82.261-1.606 0-2.657-.188-.756-.546-1.325-1.307-1.325h-.98zM6.937 9.135c.271 0 .49.222.49.496 0 .276-.219.5-.49.5a.496.496 0 0 1-.49-.5c0-.274.22-.496.49-.496z" transform="translate(5 5)"/></g></g></svg>