<svg width="16" height="16" viewBox="0 0 16 16" fill="none" xmlns="http://www.w3.org/2000/svg"><rect id="frame" width="16" height="16" fill="none"/><path d="M11.469 10.181l-2.628-.008L7.534 7.98l1.32-2.187 2.629.008 1.307 2.195-1.321 2.186z" fill="#C12766"/><path d="M7.096 12.595l-2.627-.007-1.307-2.195 1.32-2.186 2.629.008 1.306 2.194-1.32 2.186z" fill="#3E489F"/><path d="M11.441 15.022l-2.627-.008-1.307-2.195 1.32-2.186 2.629.008 1.306 2.194-1.32 2.187z" fill="#714099"/><path d="M7.12 7.785l-2.628-.008-1.307-2.194 1.32-2.187 2.629.008L8.44 5.598 7.12 7.785z" fill="#78932C"/><path d="M11.494 5.408l-2.62-.026-1.32-2.212L8.857.986l2.62.026 1.319 2.211-1.301 2.185z" fill="#CF242A"/><path d="M10.135 13.382a.566.566 0 0 0 .576-.555.566.566 0 0 0-.576-.554.566.566 0 0 0-.576.554c0 .307.258.555.576.555z" fill="#fff"/><path d="M10.562 2.918l-5.14 2.834" stroke="#fff" stroke-width=".524"/><path d="M5.795 5.167l.017 5.7" stroke="#fff" stroke-width=".524"/><path d="M5.439 10.2l5.091 2.91" stroke="#fff" stroke-width=".524"/><path d="M10.145 2.718l.017 5.7" stroke="#fff" stroke-width=".524"/><path d="M10.169 7.557l.017 5.7" stroke="#fff" stroke-width=".524"/><path d="M10.568 7.77l-5.139 2.834" stroke="#fff" stroke-width=".524"/><path d="M5.453 5.39l5.091 2.911" stroke="#fff" stroke-width=".524"/><path d="M5.73 10.937a.566.566 0 0 0 .577-.554.566.566 0 0 0-.577-.555.566.566 0 0 0-.576.555c0 .306.258.554.576.554z" fill="#fff"/><path d="M10.257 8.595a.566.566 0 0 0 .576-.555.566.566 0 0 0-.576-.554.566.566 0 0 0-.577.554c0 .307.258.555.577.555z" fill="#fff"/><path d="M5.813 6.145a.566.566 0 0 0 .576-.555.566.566 0 0 0-.576-.554.566.566 0 0 0-.577.554c0 .307.258.555.577.555z" fill="#fff"/><path d="M10.16 3.728a.566.566 0 0 0 .576-.555.566.566 0 0 0-.576-.555.566.566 0 0 0-.577.555c0 .306.258.555.577.555z" fill="#fff"/></svg>