<svg width="16" height="16" viewBox="0 0 16 16" fill="none" xmlns="http://www.w3.org/2000/svg"><rect id="frame" width="16" height="16" fill="none"/><path fill-rule="evenodd" clip-rule="evenodd" d="M8.4 2.9A1.9 1.9 0 0 1 7 4.734v.807a2.447 2.447 0 0 1 1.388.79l.763-.49a1.9 1.9 0 1 1 .482.879l-.75.48a2.449 2.449 0 0 1-.028 1.582l.778.498a1.9 1.9 0 1 1-.482.879l-.82-.526c-.35.369-.811.63-1.331.726v.908a1.9 1.9 0 1 1-1 0v-.929a2.45 2.45 0 0 1 0-4.776v-.828A1.9 1.9 0 1 1 8.4 2.9zm-1.9.9a.9.9 0 1 0 0-1.8.9.9 0 0 0 0 1.8zm.05 5.6a1.45 1.45 0 1 0 0-2.9 1.45 1.45 0 0 0 0 2.9zm.85 3.7a.9.9 0 1 1-1.8 0 .9.9 0 0 1 1.8 0zM11 6.3a.9.9 0 1 0 0-1.8.9.9 0 0 0 0 1.8zm.9 4.3a.9.9 0 1 1-1.8 0 .9.9 0 0 1 1.8 0z" fill="#AFB1B3"/></svg>