<svg width="16" height="16" viewBox="0 0 16 16" fill="none" xmlns="http://www.w3.org/2000/svg">
<path fill-rule="evenodd" clip-rule="evenodd" d="M6.36495 14.808C6.32222 14.545 6.3 14.2751 6.3 14C6.3 11.2386 8.53858 9 11.3 9C12.5766 9 13.7415 9.47847 14.6251 10.2659C14.8681 9.55519 15 8.79299 15 8C15 4.13401 11.866 1 8 1C4.13401 1 1 4.13401 1 8C1 11.303 3.28765 14.0716 6.36495 14.808Z" fill="#62B543" fill-opacity="0.6"/>
<path fill-rule="evenodd" clip-rule="evenodd" d="M8.31186 9.99079C8.24378 9.99519 8.17324 9.99826 8.10004 10C7.06104 10.022 6.00004 9.2794 6.00004 8.0004C6.00004 6.7124 6.97104 6 8.10004 6C9.37254 6 9.90004 6.55426 9.90004 6.55426L10.5162 5.83673C9.82944 5.27017 9.28831 5.0004 8.09824 5.0004C6.34024 5.0004 5.00024 6.3584 5.00024 8.0004C5.00024 9.45414 6.01916 10.636 7.35325 10.93C7.62922 10.5757 7.95183 10.2596 8.31186 9.99079Z" fill="#231F20" fill-opacity="0.7"/>
<path fill-rule="evenodd" clip-rule="evenodd" d="M11.5 10.3C10.3 10.3 9.55 10.9042 9.25 12.1126C9.7 11.5084 10.225 11.2818 10.825 11.4329C11.1673 11.519 11.412 11.7692 11.6828 12.046C12.124 12.4969 12.6347 13.0189 13.75 13.0189C14.95 13.0189 15.7 12.4147 16 11.2063C15.55 11.8105 15.025 12.0371 14.425 11.886C14.0827 11.7999 13.838 11.5497 13.5672 11.2729C13.126 10.822 12.6153 10.3 11.5 10.3ZM9.25 13.0189C8.05 13.0189 7.3 13.6231 7 14.8315C7.45 14.2273 7.975 14.0007 8.575 14.1518C8.91733 14.238 9.162 14.4881 9.43283 14.7648C9.874 15.2158 10.3847 15.7378 11.5 15.7378C12.7 15.7378 13.45 15.1336 13.75 13.9252C13.3 14.5294 12.775 14.7559 12.175 14.6049C11.8327 14.5188 11.588 14.2686 11.3172 13.9918C10.876 13.5408 10.3653 13.0189 9.25 13.0189Z" fill="#14B4C6"/>
</svg>
