<svg width="16" height="16" viewBox="0 0 16 16" fill="none" xmlns="http://www.w3.org/2000/svg">
<path fill-rule="evenodd" clip-rule="evenodd" d="M14.6251 10.2659C14.8681 9.55519 15 8.79299 15 8C15 4.134 11.866 1 8 1C4.134 1 1 4.134 1 8C1 11.303 3.28765 14.0717 6.36495 14.808C6.32222 14.545 6.3 14.2751 6.3 14C6.3 11.2386 8.53858 9 11.3 9C12.5766 9 13.7415 9.47847 14.6251 10.2659Z" fill="#62B543" fill-opacity="0.6"/>
<path fill-rule="evenodd" clip-rule="evenodd" d="M7.2462 7.1241C7.3452 6.9741 7.4732 6.8511 7.6282 6.7611C7.7862 6.6681 7.9782 6.6221 8.2022 6.6221C8.3042 6.6221 8.4022 6.6271 8.5002 6.6371C8.5982 6.6481 8.6852 6.6621 8.8002 6.6891L8.8422 6.6991L8.7732 7.8931C8.7642 8.1011 8.7392 8.2941 8.7012 8.4641C8.6632 8.6401 8.6062 8.7931 8.5332 8.9201C8.4572 9.0531 8.3572 9.1581 8.2372 9.2311C8.1152 9.3071 7.9702 9.3451 7.8052 9.3451C7.5542 9.3451 7.3492 9.2481 7.1972 9.0581C7.0492 8.8721 6.9762 8.5861 6.9762 8.1841C6.9762 7.9961 6.9972 7.8091 7.0392 7.6261C7.0812 7.4411 7.1512 7.2721 7.2462 7.1241ZM8.3162 4.0011C7.66752 4.0011 4.0022 4.0011 4.0022 8.0006C4.0022 10.8259 5.57593 11.6554 6.76167 11.8989C6.87744 11.6493 7.01319 11.4108 7.16688 11.1855C4.94364 10.7862 4.94364 8.5318 4.94364 8.0006C4.94364 4.85089 7.7712 4.7451 8.3162 4.7451C8.7082 4.7451 11.0602 4.90741 11.0602 7.5471C11.0602 7.72838 10.9988 8.63308 10.6427 9.04284C10.8578 9.01458 11.0772 9 11.3001 9C11.4473 9 11.593 9.00636 11.737 9.01882C11.8961 8.67016 12.0002 8.19759 12.0002 7.5571C12.0002 4.08643 8.65115 4.0011 8.3162 4.0011ZM9.14766 9.48573C9.11101 9.4403 9.0932 9.4111 9.0932 9.4111C9.0932 9.4111 8.47745 10 7.8892 10C7.07975 10 6.0002 9.9211 6.0002 8.0001C6.0002 6.32043 7.45603 6.0001 8.0002 6.0001C8.1532 6.0001 9.7452 6.0551 9.8242 6.0791L9.7442 8.1881C9.7442 8.1881 9.69165 8.91601 10.0219 9.16488C9.71819 9.24494 9.42582 9.35286 9.14766 9.48573Z" fill="#231F20" fill-opacity="0.7"/>
<path fill-rule="evenodd" clip-rule="evenodd" d="M11.5 10.3C10.3 10.3 9.55 10.9042 9.25 12.1126C9.7 11.5084 10.225 11.2818 10.825 11.4329C11.1673 11.519 11.412 11.7692 11.6828 12.046C12.124 12.4969 12.6347 13.0189 13.75 13.0189C14.95 13.0189 15.7 12.4147 16 11.2063C15.55 11.8105 15.025 12.0371 14.425 11.886C14.0827 11.7999 13.838 11.5497 13.5672 11.2729C13.126 10.822 12.6153 10.3 11.5 10.3ZM9.25 13.0189C8.05 13.0189 7.3 13.6231 7 14.8315C7.45 14.2273 7.975 14.0007 8.575 14.1518C8.91733 14.238 9.162 14.4881 9.43283 14.7648C9.874 15.2158 10.3847 15.7378 11.5 15.7378C12.7 15.7378 13.45 15.1336 13.75 13.9252C13.3 14.5294 12.775 14.7559 12.175 14.6049C11.8327 14.5188 11.588 14.2686 11.3172 13.9918C10.876 13.5408 10.3653 13.0189 9.25 13.0189Z" fill="#14B4C6"/>
</svg>
