<svg width="16" height="16" viewBox="0 0 16 16" fill="none" xmlns="http://www.w3.org/2000/svg"><rect id="frame" width="16" height="16" fill="none"/><path d="M16 0H0v16h16V0z" fill="#6B57FF"/><path d="M15 1H1v14h14V1z" fill="#000"/><path d="M9 12H3v1h6v-1z" fill="#fff"/><path d="M8.2 8.1l.8-.9c.5.4 1.1.7 1.8.7.5 0 .9-.2.9-.6 0-.3-.2-.5-1.2-.8-1.2-.3-2-.6-2-1.8 0-1.1.9-1.8 2.1-1.8.9 0 1.6.3 2.2.8l-.7 1c-.5-.4-1.1-.6-1.6-.6s-.8.2-.8.5c0 .4.3.5 1.3.8 1.3.3 2 .8 2 1.8 0 1.2-.9 1.9-2.2 1.9-.9 0-1.8-.3-2.6-1z" fill="#fff"/><path d="M3 3h2.4c1.4 0 2.2.8 2.2 2.1 0 1.4-1.1 2.1-2.4 2.1h-1V9H3V3zm2.3 3c.6 0 1-.4 1-.9 0-.6-.4-.9-1-.9h-1V6h1z" fill="#fff"/></svg>