<svg width="80" height="80" viewBox="0 0 80 80" fill="none" xmlns="http://www.w3.org/2000/svg"><rect id="frame" width="80" height="80" fill="none"/><g clip-path="url(#clip0)"><path d="M44.167 14.083L41.5 6 13.667 0 0 15.417l15 7.666 24.917 11.25 4.25-20.25z" fill="url(#paint0_linear)"/><path d="M30.833 23.417L0 15.417 7.583 61.25l22.667-.083.583-37.75z" fill="url(#paint1_linear)"/><path d="M21.667 29.333L38.917 14l10.5-9.25L69.583 8.5 80 34.333 65 49.25 21.667 29.333z" fill="url(#paint2_linear)"/><path d="M57.083 19.5l-40.833-.167L22 64.083l1.083 6.5L50.167 80 80 62.083 57.083 19.5z" fill="url(#paint3_linear)"/><path d="M65 15H15v50h50V15z" fill="url(#paint4_linear)"/><path d="M39.9 55.5H21.2v3.1h18.7v-3.1z" fill="#fff"/><path d="M37.164 37.296l2.355-2.842c1.624 1.38 3.41 2.192 5.44 2.192 1.624 0 2.68-.65 2.68-1.705v-.081c0-1.056-.65-1.543-3.654-2.355-3.735-.893-6.09-1.949-6.09-5.602v-.082c0-3.329 2.68-5.521 6.415-5.521 2.68 0 4.953.812 6.82 2.355l-2.11 3.004c-1.625-1.137-3.249-1.786-4.791-1.786-1.543 0-2.355.73-2.355 1.624v.08c0 1.219.812 1.625 3.978 2.437 3.736.974 5.847 2.273 5.847 5.521v.081c0 3.654-2.761 5.684-6.74 5.684-2.76-.081-5.602-1.056-7.795-3.004z" fill="#fff"/><path d="M21.25 21.625h7.47c4.385 0 6.983 2.598 6.983 6.333v.081c0 4.222-3.248 6.415-7.389 6.415H25.23v5.44H21.25v-18.27zm7.227 9.175c2.03 0 3.166-1.218 3.166-2.76v-.082c0-1.786-1.218-2.76-3.248-2.76H25.31V30.8h3.167z" fill="#fff"/></g><defs><linearGradient id="paint0_linear" x1="20.134" y1="24.609" x2="26.926" y2="11.034" gradientUnits="userSpaceOnUse"><stop offset="0" stop-color="#AF1DF5"/><stop offset=".21" stop-color="#BC20E4"/><stop offset=".63" stop-color="#DD29B8"/><stop offset="1" stop-color="#FF318C"/></linearGradient><linearGradient id="paint1_linear" x1="2.581" y1="54.889" x2="35.998" y2="10.745" gradientUnits="userSpaceOnUse"><stop offset=".02" stop-color="#6B57FF"/><stop offset=".42" stop-color="#B74AF7"/><stop offset=".75" stop-color="#FF318C"/></linearGradient><linearGradient id="paint2_linear" x1="60.618" y1="54.477" x2="40.751" y2="7.344" gradientUnits="userSpaceOnUse"><stop offset="0" stop-color="#293896"/><stop offset=".08" stop-color="#3B3AA2"/><stop offset=".29" stop-color="#6740C0"/><stop offset=".49" stop-color="#8A44D8"/><stop offset=".68" stop-color="#A347E9"/><stop offset=".86" stop-color="#B249F3"/><stop offset="1" stop-color="#B74AF7"/></linearGradient><linearGradient id="paint3_linear" x1="57.193" y1="70.038" x2="27.01" y2="25.814" gradientUnits="userSpaceOnUse"><stop offset=".02" stop-color="#6B57FF"/><stop offset=".78" stop-color="#B74AF7"/></linearGradient><linearGradient id="paint4_linear" x1="39.999" y1="2.846" x2="39.999" y2="47.685" gradientUnits="userSpaceOnUse"><stop offset=".084" stop-color="#878585"/><stop offset=".538"/></linearGradient><clipPath id="clip0"><path d="M0 0h80v80H0V0z" fill="#fff"/></clipPath></defs></svg>