<svg width="48" height="48" viewBox="0 0 48 48" fill="none" xmlns="http://www.w3.org/2000/svg"><rect id="frame" width="48" height="48" fill="none"/><g clip-path="url(#clip0)"><path d="M26.5 8.45L24.9 3.6 8.2 0 0 9.25l9 4.6 14.95 6.75L26.5 8.45z" fill="url(#paint0_linear)"/><path d="M18.5 14.05L0 9.25l4.55 27.5 13.6-.05.35-22.65z" fill="url(#paint1_linear)"/><path d="M13 17.6l10.35-9.2 6.3-5.55 12.1 2.25L48 20.6l-9 8.95L13 17.6z" fill="url(#paint2_linear)"/><path d="M34.25 11.7l-24.5-.1 3.45 26.85.65 3.9L30.1 48 48 37.25 34.25 11.7z" fill="url(#paint3_linear)"/><path d="M39 9H9v30h30V9z" fill="url(#paint4_linear)"/><path d="M23.25 34H12v1.929h11.25V34z" fill="#fff"/><path d="M12.75 12.007h4.796c2.816 0 4.484 1.668 4.484 4.067v.052c0 2.71-2.086 4.118-4.744 4.118h-1.982v3.493H12.75v-11.73zm4.64 5.891c1.303 0 2.033-.782 2.033-1.772v-.052c0-1.147-.782-1.773-2.085-1.773h-1.981v3.597h2.033z" fill="#fff"/><path d="M22.902 22.004l1.502-1.813c1.036.88 2.175 1.398 3.47 1.398 1.036 0 1.71-.414 1.71-1.087v-.052c0-.674-.415-.984-2.331-1.502-2.383-.57-3.885-1.243-3.885-3.574v-.052c0-2.124 1.71-3.522 4.092-3.522 1.709 0 3.16.518 4.35 1.502l-1.346 1.916c-1.036-.725-2.072-1.139-3.056-1.139s-1.502.466-1.502 1.036v.052c0 .777.518 1.036 2.538 1.554 2.382.621 3.73 1.45 3.73 3.522v.051c0 2.331-1.762 3.626-4.3 3.626-1.76-.052-3.574-.673-4.972-1.916z" fill="#fff"/></g><defs><linearGradient id="paint0_linear" x1="12.081" y1="14.766" x2="16.155" y2="6.621" gradientUnits="userSpaceOnUse"><stop offset="0" stop-color="#AF1DF5"/><stop offset=".21" stop-color="#BC20E4"/><stop offset=".63" stop-color="#DD29B8"/><stop offset="1" stop-color="#FF318C"/></linearGradient><linearGradient id="paint1_linear" x1="1.549" y1="32.934" x2="21.599" y2="6.447" gradientUnits="userSpaceOnUse"><stop offset=".02" stop-color="#6B57FF"/><stop offset=".42" stop-color="#B74AF7"/><stop offset=".75" stop-color="#FF318C"/></linearGradient><linearGradient id="paint2_linear" x1="36.371" y1="32.686" x2="24.451" y2="4.406" gradientUnits="userSpaceOnUse"><stop offset="0" stop-color="#293896"/><stop offset=".08" stop-color="#3B3AA2"/><stop offset=".29" stop-color="#6740C0"/><stop offset=".49" stop-color="#8A44D8"/><stop offset=".68" stop-color="#A347E9"/><stop offset=".86" stop-color="#B249F3"/><stop offset="1" stop-color="#B74AF7"/></linearGradient><linearGradient id="paint3_linear" x1="34.316" y1="42.023" x2="16.206" y2="15.489" gradientUnits="userSpaceOnUse"><stop offset=".02" stop-color="#6B57FF"/><stop offset=".78" stop-color="#B74AF7"/></linearGradient><linearGradient id="paint4_linear" x1="23.999" y1="1.707" x2="23.999" y2="28.611" gradientUnits="userSpaceOnUse"><stop offset=".084" stop-color="#878585"/><stop offset=".538"/></linearGradient><clipPath id="clip0"><path d="M0 0h48v48H0V0z" fill="#fff"/></clipPath></defs></svg>