<svg width="24" height="24" viewBox="0 0 24 24" fill="none" xmlns="http://www.w3.org/2000/svg"><rect id="frame" width="24" height="24" fill="none"/><path d="M13.25 4.225l-.8-2.425L4.1 0 0 4.625l4.5 2.3 7.475 3.375 1.275-6.075z" fill="url(#paint0_linear)"/><path d="M9.25 7.025L0 4.625l2.275 13.75 6.8-.025.175-11.325z" fill="url(#paint1_linear)"/><path d="M6.5 8.8l5.175-4.6 3.15-2.775 6.05 1.125L24 10.3l-4.5 4.475L6.5 8.8z" fill="url(#paint2_linear)"/><path d="M17.125 5.85L4.875 5.8 6.6 19.225l.325 1.95L15.05 24 24 18.625 17.125 5.85z" fill="url(#paint3_linear)"/><path d="M20 4H4v16h16V4z" fill="url(#paint4_linear)"/><path d="M12 17H6v1h6v-1z" fill="#fff"/><path d="M11.227 11.147l.773-.934c.533.454 1.12.72 1.787.72.533 0 .88-.213.88-.56v-.026c0-.347-.214-.507-1.2-.774-1.227-.293-2-.64-2-1.84v-.026c0-1.094.88-1.814 2.106-1.814.88 0 1.627.267 2.24.774l-.693.986c-.533-.373-1.067-.586-1.573-.586-.507 0-.774.24-.774.533v.027c0 .4.267.533 1.307.8 1.227.32 1.92.746 1.92 1.813v.027c0 1.2-.907 1.866-2.213 1.866-.907-.026-1.84-.346-2.56-.986z" fill="#fff"/><path d="M6 6h2.453c1.44 0 2.294.853 2.294 2.08v.027c0 1.386-1.067 2.106-2.427 2.106H7.307V12H6V6zm2.373 3.013c.667 0 1.04-.4 1.04-.906V8.08c0-.587-.4-.907-1.066-.907H7.333v1.84h1.04z" fill="#fff"/><defs><linearGradient id="paint0_linear" x1="6.04" y1="7.383" x2="8.078" y2="3.31" gradientUnits="userSpaceOnUse"><stop offset="0" stop-color="#AF1DF5"/><stop offset=".21" stop-color="#BC20E4"/><stop offset=".63" stop-color="#DD29B8"/><stop offset="1" stop-color="#FF318C"/></linearGradient><linearGradient id="paint1_linear" x1=".774" y1="16.467" x2="10.799" y2="3.223" gradientUnits="userSpaceOnUse"><stop offset=".02" stop-color="#6B57FF"/><stop offset=".42" stop-color="#B74AF7"/><stop offset=".75" stop-color="#FF318C"/></linearGradient><linearGradient id="paint2_linear" x1="18.185" y1="16.343" x2="12.225" y2="2.203" gradientUnits="userSpaceOnUse"><stop offset="0" stop-color="#293896"/><stop offset=".08" stop-color="#3B3AA2"/><stop offset=".29" stop-color="#6740C0"/><stop offset=".49" stop-color="#8A44D8"/><stop offset=".68" stop-color="#A347E9"/><stop offset=".86" stop-color="#B249F3"/><stop offset="1" stop-color="#B74AF7"/></linearGradient><linearGradient id="paint3_linear" x1="17.158" y1="21.011" x2="8.103" y2="7.744" gradientUnits="userSpaceOnUse"><stop offset=".02" stop-color="#6B57FF"/><stop offset=".78" stop-color="#B74AF7"/></linearGradient><linearGradient id="paint4_linear" x1="12" y1=".129" x2="12" y2="14.478" gradientUnits="userSpaceOnUse"><stop offset=".084" stop-color="#878585"/><stop offset=".538"/></linearGradient></defs></svg>