<svg width="70" height="70" viewBox="0 0 70 70" fill="none" xmlns="http://www.w3.org/2000/svg"><rect id="frame" width="70" height="70" fill="none"/><path d="M38.646 12.323L36.312 5.25 11.959 0 0 13.49l13.125 6.708 21.802 9.844 3.719-17.72z" fill="url(#paint0_linear)"/><path d="M26.98 20.49L0 13.49l6.635 40.104 19.834-.073.51-33.031z" fill="url(#paint1_linear)"/><path d="M18.958 25.667L34.052 12.25l9.188-8.094 17.645 3.281L70 30.042 56.875 43.094 18.958 25.667z" fill="url(#paint2_linear)"/><path d="M49.948 17.063l-35.73-.146 5.032 39.156.948 5.687L43.896 70 70 54.323l-20.052-37.26z" fill="url(#paint3_linear)"/><path d="M56 14H14v42h42V14z" fill="#010101"/><path d="M34.417 48.65h-15.75v2.683h15.75V48.65z" fill="#fff"/><path d="M32.97 32.76L35 30.31c1.4 1.19 2.94 1.89 4.69 1.89 1.4 0 2.31-.56 2.31-1.47v-.07c0-.91-.56-1.33-3.15-2.03-3.22-.77-5.25-1.68-5.25-4.83v-.07c0-2.87 2.31-4.76 5.53-4.76 2.31 0 4.27.7 5.88 2.03l-1.82 2.59c-1.4-.98-2.8-1.54-4.13-1.54s-2.03.63-2.03 1.4v.07c0 1.05.7 1.4 3.43 2.1 3.22.84 5.04 1.96 5.04 4.76v.07c0 3.15-2.38 4.9-5.81 4.9-2.38-.07-4.83-.91-6.72-2.59z" fill="#fff"/><path d="M19.25 19.25h6.44c3.78 0 6.02 2.24 6.02 5.46v.07c0 3.64-2.8 5.53-6.37 5.53h-2.66V35h-3.43V19.25zm6.23 7.91c1.75 0 2.73-1.05 2.73-2.38v-.07c0-1.54-1.05-2.38-2.8-2.38h-2.66v4.83h2.73z" fill="#fff"/><defs><linearGradient id="paint0_linear" x1="17.617" y1="21.533" x2="23.56" y2="9.655" gradientUnits="userSpaceOnUse"><stop offset="0" stop-color="#AF1DF5"/><stop offset=".21" stop-color="#BC20E4"/><stop offset=".63" stop-color="#DD29B8"/><stop offset="1" stop-color="#FF318C"/></linearGradient><linearGradient id="paint1_linear" x1="2.258" y1="48.028" x2="31.498" y2="9.401" gradientUnits="userSpaceOnUse"><stop offset=".02" stop-color="#6B57FF"/><stop offset=".42" stop-color="#B74AF7"/><stop offset=".75" stop-color="#FF318C"/></linearGradient><linearGradient id="paint2_linear" x1="53.041" y1="47.668" x2="35.657" y2="6.426" gradientUnits="userSpaceOnUse"><stop offset="0" stop-color="#293896"/><stop offset=".08" stop-color="#3B3AA2"/><stop offset=".29" stop-color="#6740C0"/><stop offset=".49" stop-color="#8A44D8"/><stop offset=".68" stop-color="#A347E9"/><stop offset=".86" stop-color="#B249F3"/><stop offset="1" stop-color="#B74AF7"/></linearGradient><linearGradient id="paint3_linear" x1="50.044" y1="61.283" x2="23.634" y2="22.588" gradientUnits="userSpaceOnUse"><stop offset=".02" stop-color="#6B57FF"/><stop offset=".78" stop-color="#B74AF7"/></linearGradient></defs></svg>