<svg width="64" height="64" viewBox="0 0 64 64" fill="none" xmlns="http://www.w3.org/2000/svg"><rect id="frame" width="64" height="64" fill="none"/><path d="M35.333 11.267L33.2 4.8 10.933 0 0 12.333l12 6.134 19.933 9 3.4-16.2z" fill="url(#paint0_linear)"/><path d="M24.667 18.733L0 12.333 6.067 49l18.133-.067.467-30.2z" fill="url(#paint1_linear)"/><path d="M17.333 23.467l13.8-12.267 8.4-7.4 16.134 3L64 27.467 52 39.4 17.333 23.467z" fill="url(#paint2_linear)"/><path d="M45.667 15.6L13 15.467l4.6 35.8.867 5.2L40.133 64 64 49.667 45.667 15.6z" fill="url(#paint3_linear)"/><path d="M51 13H13v38h38V13z" fill="url(#paint4_linear)"/><path d="M32.144 44H18v2.322h14.144V44z" fill="#fff"/><path d="M30.163 29.973L32 27.757c1.267 1.076 2.66 1.71 4.243 1.71 1.267 0 2.09-.507 2.09-1.33v-.064c0-.823-.506-1.203-2.85-1.836-2.913-.697-4.75-1.52-4.75-4.37v-.064c0-2.596 2.09-4.306 5.004-4.306 2.09 0 3.863.633 5.32 1.836l-1.647 2.344c-1.267-.887-2.533-1.394-3.737-1.394-1.203 0-1.836.57-1.836 1.267v.063c0 .95.633 1.267 3.103 1.9 2.913.76 4.56 1.774 4.56 4.307v.063c0 2.85-2.153 4.434-5.257 4.434-2.153-.064-4.37-.824-6.08-2.344z" fill="#fff"/><path d="M17.75 17.75h5.827c3.42 0 5.446 2.027 5.446 4.94v.063c0 3.294-2.533 5.004-5.763 5.004h-2.407V32H17.75V17.75zm5.637 7.157c1.583 0 2.47-.95 2.47-2.154v-.063c0-1.393-.95-2.153-2.534-2.153h-2.406v4.37h2.47z" fill="#fff"/><defs><linearGradient id="paint0_linear" x1="16.107" y1="19.688" x2="21.541" y2="8.828" gradientUnits="userSpaceOnUse"><stop offset="0" stop-color="#AF1DF5"/><stop offset=".21" stop-color="#BC20E4"/><stop offset=".63" stop-color="#DD29B8"/><stop offset="1" stop-color="#FF318C"/></linearGradient><linearGradient id="paint1_linear" x1="2.065" y1="43.911" x2="28.798" y2="8.596" gradientUnits="userSpaceOnUse"><stop offset=".02" stop-color="#6B57FF"/><stop offset=".42" stop-color="#B74AF7"/><stop offset=".75" stop-color="#FF318C"/></linearGradient><linearGradient id="paint2_linear" x1="48.494" y1="43.582" x2="32.601" y2="5.875" gradientUnits="userSpaceOnUse"><stop offset="0" stop-color="#293896"/><stop offset=".08" stop-color="#3B3AA2"/><stop offset=".29" stop-color="#6740C0"/><stop offset=".49" stop-color="#8A44D8"/><stop offset=".68" stop-color="#A347E9"/><stop offset=".86" stop-color="#B249F3"/><stop offset="1" stop-color="#B74AF7"/></linearGradient><linearGradient id="paint3_linear" x1="45.755" y1="56.031" x2="21.608" y2="20.651" gradientUnits="userSpaceOnUse"><stop offset=".02" stop-color="#6B57FF"/><stop offset=".78" stop-color="#B74AF7"/></linearGradient><linearGradient id="paint4_linear" x1="31.949" y1="3.764" x2="31.949" y2="37.843" gradientUnits="userSpaceOnUse"><stop offset=".084" stop-color="#878585"/><stop offset=".538"/></linearGradient></defs></svg>