<svg ti:v="1" width="16" height="16" viewBox="0 0 16 16" xmlns="http://www.w3.org/2000/svg" xmlns:ti="urn:schemas-jetbrains-com:tisvg"><rect id="frame" width="16" height="16" fill="none"/><linearGradient id="a" x1=".5" y1="0" x2=".5" y2="1"><stop offset="0" stop-color="#1D7774"/><stop offset="1" stop-color="#003F3C"/></linearGradient><path fill-rule="evenodd" d="M1 8.5a6.501 6.501 0 0 0 13 0C14 4.912 11.09 2 7.5 2A6.502 6.502 0 0 0 1 8.5z" fill="url(#a)"/><path fill-rule="evenodd" d="M16 .718a1.497 1.497 0 0 0-.293-.425A1.495 1.495 0 0 0 15.282 0h-1.271c-.156.073-.3.168-.425.293L5.939 7.94a1.501 1.501 0 0 0 2.122 2.12l7.646-7.646c.125-.125.22-.27.293-.425V.718z" fill="#313131"/><path fill-rule="evenodd" d="M7 9.5a.502.502 0 0 1-.354-.854L14.293 1a.5.5 0 0 1 .707.707L7.354 9.354A.503.503 0 0 1 7 9.5z" fill="#FFF"/><linearGradient id="b" x1=".5" y1="0" x2=".5" y2="1"><stop offset="0" stop-color="#3FFFF7"/><stop offset="1" stop-color="#00BDB6"/></linearGradient><path fill-rule="evenodd" d="M2 8.5a5.5 5.5 0 0 0 11 0 5.5 5.5 0 0 0-11 0z" fill="url(#b)"/><linearGradient id="c" x1=".5" y1="0" x2=".5" y2="1"><stop offset="0" stop-color="#00BDB6"/><stop offset="1" stop-color="#3FFFF7"/></linearGradient><path fill-rule="evenodd" d="M4 8.5a3.5 3.5 0 0 0 7 0 3.5 3.5 0 1 0-7 0z" fill="url(#c)"/></svg>