<svg ti:v="1" width="16" height="16" viewBox="0 0 16 16" xmlns="http://www.w3.org/2000/svg" xmlns:ti="urn:schemas-jetbrains-com:tisvg"><rect id="frame" width="16" height="16" fill="none"/><g fill-rule="evenodd"><path d="M14 8.5a6.501 6.501 0 0 1-13 0 6.501 6.501 0 0 1 13 0z" fill="#242424"/><path d="M16 .718a1.497 1.497 0 0 0-.293-.425A1.495 1.495 0 0 0 15.282 0h-1.271c-.156.073-.3.168-.425.293L5.939 7.94a1.501 1.501 0 0 0 2.122 2.12l7.646-7.646c.125-.125.22-.27.293-.425V.718z" fill="#242424"/><path d="M7 9.5a.502.502 0 0 1-.354-.854L14.293 1a.5.5 0 0 1 .707.707L7.354 9.354A.503.503 0 0 1 7 9.5z" fill="#C4C4C4"/><path d="M13 8.5a5.5 5.5 0 1 1-11 0 5.5 5.5 0 0 1 11 0z" fill="#C4C4C4"/><path d="M11 8.5a3.5 3.5 0 1 1-6.999.001A3.5 3.5 0 0 1 11 8.5z" fill="#282828"/></g></svg>