<svg xmlns="http://www.w3.org/2000/svg" width="16" height="16" viewBox="0 0 16 16"><rect id="frame" width="16" height="16" fill="none"/><path d="M5.46 13.09c-.558-.44-1.154-.861-1.562-1.455A11.804 11.804 0 0 1 1.93 8.104c-.273-.828-.366-1.716-.718-2.512-.368-.578.063-1.21.696-1.394.282-.054.778-.32.18-.13-.537.394-.589-.357-.039-.405.376-.05.514-.357.386-.634-.403-.262.977-.551.282-.943-.723-.78 1.012-.931.584-.045-.102.682 1.213-.125.908.663.31.378 1.161.086 1.14.616.452.03.607.411 1.031.44.44.199 1.236.355 1.386.85-.436.346-1.446-.713-1.494.243.131 1.412.098 2.866.614 4.21.245.815.837 1.456 1.372 2.09.512.62 1.205 1.058 1.911 1.426a7.88 7.88 0 0 0 1.964.608c.274-.21.758-.99 1.185-.66.02.369-.848.771-.04.73.473-.143.802.367 1.193-.093.36.426 1.495-.272 1.239.599-.346.223-.851.088-1.198.395-.571-.285-1.026.256-1.659.187-.703.126-1.418.177-2.13.178-1.169-.092-2.362-.131-3.474-.538-.627-.182-1.238-.539-1.788-.895zm.988.427c.611.265 1.21.544 1.88.628 1.063.148 2.161.375 3.229.168-.483-.219-.983.084-1.464-.156-.577.124-1.196-.032-1.783-.109-.667-.297-1.387-.501-2.012-.887-.781-.285.404.366.614.418.488.277-.536-.142-.68-.257-.41-.23-.462-.181-.041.052.084.05.168.101.257.143zm-1.164-.822c.593.22-.003-.417-.274-.38-.12-.209-.46-.34-.22-.453-.431.15-.452-.568-.654-.466-.456-.144-.177-.653-.72-.966-.05-.33-.54-.616-.695-1.113-.07-.255-.554-.986-.256-.306.253.655.699 1.217 1.07 1.777.287.534.627 1.091 1.152 1.424.177.17.347.43.597.483zm2.611 1.102c.243.153 1.417.336.682.063-.123.026-1.364-.351-.682-.063zM5.212 11.62c.285.218 1.149.028.436-.13-.324-.174-1.055-.292-.557.104l.121.026zm1.379.73c.696.197-.586-.44-.172-.072l.092.041.08.031zm1.206.715c.66.008-.595-.118 0 0zm-1.2-1.084c.506.065-.602-.344-.111-.036l.11.036zm1.758 1.081c.472-.282.317.662.802.08.478-.349-.413.432.176.062.426-.285 1.056.136 1.453.273.286-.014.564.247.858.088.564-.152-1.104-.226-.667-.495-.516.15-.898-.18-1.152-.51-.58-.134-1.249-.43-1.538-.943-.118-.192.17.027-.102-.287-.349-.31-.523-.663-.758-1.04-.28-.15-.312-.59-.34-.015.002-.363-.338-.607-.421-.505-.002-.35.364-.174.108-.432-.055-.362-.237-.739-.291-1.147-.085-.197-.012-.619-.29-.173-.1.47-.033-.579.124-.233.206-.353-.074-.311-.085-.262.134-.298.085-.721-.035-.56.071-.316.113-1.162-.107-1.012.133-.33.253-1.512-.326-1.061-.235.003-.642.085-.834.18.603.332-.06.12-.306.067-.031.308-.274.175-.578.178.485.06-.236.496-.514.326-.36.173.312.604.007.737.038.2-.553-.073-.506.391-.351-.147-.049.55.127.314.596.162.42.53.435.879-.098.204-.48-.479-.086-.447-.31-.506-.344-.183-.602.052-.06.017.66.334.208.49.397.062.408.41.49.63.238.249.19-.275.475.024-.181-.266-.958-.75-.332-.595-.004-.268-.114-.484.078-.479.19-.344-.199.848.23.41.118-.05.147-.343.36.028.309.305.112.525-.325.246.078.265.584.36.489.774.1.364.241.23.364.209.097.354.151.093.156-.075.44.094.338.355.476.537.304.138-.435-.93.086-.32.55.495.206.702-.286.623.311-.026.412.421.802.406.356.169.596.819-.017.548-.212-.192-.965-.428-.35-.064.568.263 1.018.42 1.566.75.392.28.56.6.71.664-.33.157-.993-.126-.5-.212-.308-.056-.653-.211-.359.171.25.209.886.187 1 .21-.096.214-.262.23.004.247-.297.158.096.183.123.273zm-.608-1.716c-.18-.19-.227-.544-.032-.235.1.04.321.578.032.235zm-1.159-1.91c-.216-.482.153-.263.048.08l-.048-.08zM4.604 8.113c-.097-.158-.256-.623-.205-.765.047.231.492.995.219.316-.302-.568.36.185.429.327.031.14-.187-.039-.039.292-.27-.377-.159.208-.404-.17zm-1.001-.84c-.229-.227-.394-.437.01-.141.156.006-.346-.476.038-.153.403.073.2.66-.048.293zm.136-.348c-.663-.591.834.308.109.11l-.109-.11zm1.902 1.105c-.287-.173-.076-1.213.022-.501.28-.09-.015.367.193.363-.033.288-.126.392-.215.138zm-1.771-1.3c-.427-.588 1.239.596.273.15-.101-.027-.223-.036-.273-.15zm1.362.719c-.053-.496.117.082 0 0zm-1.297-.943c.253-.054 1.05.445.319.143-.082-.09-.255-.05-.319-.143zM6.112 7.59c.035-.507.197-.303 0 .072V7.59zM4.124 6.329c.103-.152-.274-.685.054-.192.142.113.411.19.173.237.374.33-.09.09-.227-.045zm1.466.04c-.042-.195.142.246 0 0zm.185-.312c-.131-.232.167-1.023.2-.532-.139.382-.04.596.057.083.179-.403-.039.796-.257.45zm.547 5.655c.377.097.375-.059.034-.105-.183-.17-.762-.352-.244-.021.034.087.142.085.21.126zm-1.34-.89c.208.155.783.44.296.059.164-.19-.314-.292-.155-.42-.404-.247-.319-.225-.036-.217-.485-.217.07-.2.044-.312-.187-.036-.929-.33-.493.025-.443-.227-.105.084-.24.051-.453-.124.405.346-.071.229.26.206.7.528.11.218-.078.112.422.282.545.367zm4.714 2.764c.199-.192.008.308.33-.047.003-.253-.01-.403-.37-.095-.1.055-.143.289.04.142zm-3.259-2.092c.222.197 1.017.145.269.024-.11-.163-.703-.124-.269-.024zm3.827 2.284c.377-.4-.366.023 0 0zM2.79 9.045c-.321-.459-.2-.665-.51-1.04-.059-.286-.532-.936-.245-.247.263.402.342 1.026.755 1.287zm7.773 4.671c.337-.217-.077-.183-.06.02l.06-.02zm.54.147c.432-.311-.26-.06-.09.059l.09-.059zM3.87 9.252c.317.07 1.264.778.705.049-.286-.085-.115-.784-.406-.66.195.327.16.466-.25.26-.518-.253-.291.125-.19.229-.138.031.182.12.141.122zM2.43 8.115c.057-.235-.52-1.288-.272-.528.09.159.08.46.272.528zm6.518 3.935c-.066-.22-.262-.005 0 0zm3.371 1.523c.313-.063 1.026.16 1.141-.083-.38-.009-1.314-.268-1.358.062l.083.013.134.008zM2.574 6.77c.315-.124-.575-.256-.065-.024l.065.024zm-.986-1.102c-.057-.327-.049-.9.497-.707-.728.145.503.905.348.305.306.015.599-.181.438.116.603-.067 1.021-.59 1.604-.516.454-.06.95-.106 1.439-.289.402-.029.789-.462.569-.718-.549-.046-1.123.022-1.729.143-.671.14-1.281.404-1.959.518-.66.089.133.245-.056.28-.345.119.41.2-.045.326-.281-.054-.574-.15-.454-.447-.633.082-1.189.345-.689.988h.037zm1.525-.777c.148-.546.795.45.243.073-.066-.05-.174-.09-.243-.073zm.3-.26c.02-.252.623.133.1.09l-.1-.09zm.468-.214c.226-.271 1.28-.173.508-.026-.207-.156-.365.092-.508.026zm1.766-.214c.143-.374.554-.15.066-.075.01.04-.014.193-.066.075zM2.496 6.187c.426-.261-.453-.227 0 0zm12.332 7.391c.34.001 1.032-.106.29-.106-.116.019-.677.015-.29.106zM3.088 6.121c.276-.019.432-.304-.053-.288-.751-.077.663.258-.096.162-.102.067.144.145.15.126zm-.386-2.178c.493-.168 1.166-.356 1.398.082-.237-.284-.095-.564.128-.148.316.42.474-.192.268-.333.235.29.5.428.157.018.374-.449-.748.06-1.002.054-.123.055-1.266.292-.949.327zm.289-.552c.28-.212.97.126.528-.211-.044-.038-.97.255-.528.21zm1.023.042c.329.008-.142-.442.25-.238-.064-.21-.456-.25-.647-.333-.109.192.22.573.397.57zm-.425-.829c.529-.07-.135-.228-.107-.006l.107.006zm-.781-.611c-.373-.487.7.082.322-.428-.319-.254-.625.286-.322.428zM7.59 4.569c.171-.303-.706-.408-.115-.107.054.018.042.128.115.107z"/></svg>