<svg xmlns="http://www.w3.org/2000/svg" width="16" height="16" viewBox="0 0 16 16"><rect id="frame" width="16" height="16" fill="none"/><g fill="none" fill-rule="evenodd"><path fill="#9AA7B0" d="M9 8h5l2 4-2 4H9l-2-4 2-4zm2 1.55a2.5 2.5 0 1 0 1 0V9h-1v.55zm0 1.035V12h1v-1.415a1.5 1.5 0 1 1-1 0z"/><path fill="#62B543" fill-opacity=".7" d="M7.12 14.29c-.958-.025-1.877-.071-2.673-.035 0 0-.504.028-1.013.112 0 0 .193-.082.438-.167 1.214-.42 2.04-.635 2.773-.88l.475.97zM12.913 7c.057-.205.105-.411.14-.618a6.42 6.42 0 0 1-.248.618h-4.36L6 12l.158.323c-1.634.481-3.656.884-3.656.884l-.12-.064C.354 12.157.298 7.77 3.979 6.355c1.614-.62 3.158-.279 4.902-.695 1.86-.442 4.015-1.84 4.89-3.66.557 1.646 1.175 3.817 1.226 5.902L14.556 7h-1.643z"/></g></svg>