<svg xmlns="http://www.w3.org/2000/svg" width="16" height="16" viewBox="0 0 16 16">
  <g fill="none" fill-rule="evenodd">
    <path fill="#1796A9" d="M12.1934,11.9961 C11.1374,13.1021 9.6494,13.7921 8.0004,13.7921 C4.8004,13.7921 2.2084,11.1991 2.2084,8.0001 C2.2084,4.8011 4.8004,2.2081 8.0004,2.2081 C9.4294,2.2081 10.7394,2.7261 11.7494,3.5851 L12.5264,2.6611 C11.3054,1.6251 9.7264,1.0001 8.0004,1.0001 C4.1334,1.0001 1.0004,4.1341 1.0004,8.0001 C1.0004,11.8661 4.1334,15.0001 8.0004,15.0001 C9.9954,15.0001 11.7964,14.1651 13.0704,12.8261 L12.1934,11.9961 Z"/>
    <path fill="#1796A9" d="M10.957,10.8271 C10.213,11.6061 9.163,12.0921 8,12.0921 C5.74,12.0921 3.908,10.2601 3.908,8.0001 C3.908,5.7401 5.74,3.9081 8,3.9081 C9.014,3.9081 9.94,4.2771 10.655,4.8871 L11.264,4.1631 C10.385,3.4151 9.245,2.9631 8,2.9631 C5.218,2.9631 2.963,5.2181 2.963,8.0001 C2.963,10.7821 5.218,13.0371 8,13.0371 C9.434,13.0371 10.728,12.4381 11.644,11.4771 L10.957,10.8271 Z"/>
    <polygon fill="#1796A9" points="9.125 10.36 6.325 5.694 9.372 7.807 16 2.5"/>
  </g>
</svg>
