<svg ti:v="1" width="32" height="32" viewBox="0 0 32 32" xmlns="http://www.w3.org/2000/svg" xmlns:ti="urn:schemas-jetbrains-com:tisvg"><rect id="frame" width="32" height="32" fill="none"/><g fill-rule="evenodd"><path d="M32 7h-5.977c-3.566 0-5.046 2.457-5.709 4.36a9.673 9.673 0 0 0-.404-.999C18.572 7.583 16.502 7 15 7h-4.588C8.537 7 7.123 8.158 6.221 9.03c-1.963 1.9-4.603 6.811-5.847 12.523L0 23.271v.707h5.31c2.909 0 4.876-2.763 5.249-5.364.082-.566.25-1.185.477-1.805.207.933.411 1.767.603 2.34C12.205 20.845 13.26 24 16.506 24h5.103c2.541 0 4.03-2.381 5.117-4.119.887-1.42 4.391-8.365 4.931-10.359L32 8.257V7z" fill="#F4F4F4"/><path d="M7.611 10.468C8.637 9.476 9.526 9 10.412 9H15c1.421 0 2.394.747 3.107 2.229.971 2.018 1.711 7.083 2.012 7.972.451-.97 1.416-4.423 1.691-5.708C22.38 10.843 23.414 9 26.023 9h3.703c-.463 1.711-3.845 8.459-4.697 9.821C24.052 20.383 23 22 21.61 22h-5.103c-1.61 0-2.29-1.448-2.97-3.484-.507-1.517-1.257-5.784-1.578-6.868-1.642 1.458-3.06 4.458-3.379 6.682-.263 1.835-1.608 3.649-3.27 3.649H2.33c1.19-5.465 3.665-9.947 5.282-11.511z" fill="#2971B2"/><path d="M5.177 21.978c.707-4.878 2.462-8.327 4.32-11.417C7.448 13.398 4.648 16.797 4 22c.217 0 .95-.022 1.177-.022z" fill="#FFF"/><path d="M13.898 10.283c.336.541 1.481 3.486 1.967 5.19.484 1.703 1.525 4.601 2.908 5.364-.188.079-.472.142-.619.207-1.8-.759-2.492-3.439-2.909-5.19-.417-1.751-1.32-4.488-1.657-5.204.094-.144.31-.367.31-.367z" fill="#FFF"/><path d="M23.594 16.523c.447-.718 3.027-6.154 3.637-7.523-.324.002-.637-.001-.922 0-.514 1.434-2.376 6.798-2.715 7.523z" fill="#FFF"/></g></svg>