<svg xmlns="http://www.w3.org/2000/svg" width="16" height="16" viewBox="0 0 16 16"><rect id="frame" width="16" height="16" fill="none"/><g fill-rule="evenodd"><path fill="#AFB1B3" d="M8 1a6.993 6.993 0 0 0-6.333 4.033C1.777 5.021 1.886 5 2 5c.44 0 .854.101 1.231.271A5.5 5.5 0 0 1 8 2.5c3.033 0 5.5 2.468 5.5 5.5s-2.467 5.5-5.5 5.5a5.5 5.5 0 0 1-4.769-2.771C2.854 10.899 2.44 11 2 11c-.114 0-.223-.021-.333-.033A6.993 6.993 0 0 0 8 15 7 7 0 1 0 8 1"/><path fill="#3592C4" d="M4 8a2 2 0 1 1-4.001-.001A2 2 0 0 1 4 8"/></g></svg>