<svg ti:v="1" width="32" height="32" viewBox="0 0 32 32" xmlns="http://www.w3.org/2000/svg" xmlns:ti="urn:schemas-jetbrains-com:tisvg"><rect id="frame" width="32" height="32" fill="none"/><g fill-rule="evenodd"><path d="M16 30C8.282 30 2 23.72 2 16S8.282 2 16 2s14 6.28 14 14-6.282 14-14 14z" fill="#F4F4F4"/><path d="M16 7c-4.964 0-9 4.038-9 9s4.036 9 9 9 9-4.038 9-9-4.036-9-9-9zm0 21C9.383 28 4 22.617 4 16S9.383 4 16 4s12 5.383 12 12-5.383 12-12 12z" fill="#313131"/><path d="M7 21c-2.758 0-5-2.243-5-5s2.242-5 5-5 5 2.243 5 5-2.242 5-5 5z" fill="#F4F4F4"/><path d="M10 16a3 3 0 1 1-6 0 3 3 0 0 1 6 0z" fill="#1AA1E2"/></g></svg>