<svg ti:v="1" width="32" height="32" viewBox="0 0 32 32" xmlns="http://www.w3.org/2000/svg" xmlns:ti="urn:schemas-jetbrains-com:tisvg"><rect id="frame" width="32" height="32" fill="none"/><g fill-rule="evenodd"><path d="M32 27V1H0v26h6v4h20v-4h6z" fill="#F4F4F4"/><path d="M30 25V3H2v22h11v2H8v2h16v-2h-5v-2h11z" fill="#313131"/><path d="M27 22H5V6h22v16z" fill="#FFF"/><path d="M21 22H11V6h10v16z" fill="#F4F4F4"/><path d="M18 10h-4V9h4m0 3h-4v-1h4m0 8h-1v-1h1m-6 3h8V7h-8v14z" fill="#313131"/><path d="M18 18h-1v1h1m0-8h-4v1h4m0-2h-4V9h4v1z" fill="#EBEBEB"/></g></svg>