<svg ti:v="1" width="16" height="16" viewBox="0 0 16 16" xmlns="http://www.w3.org/2000/svg" xmlns:ti="urn:schemas-jetbrains-com:tisvg"><rect id="frame" width="16" height="16" fill="none"/><g fill-rule="evenodd"><path d="M16 8A8 8 0 1 1 0 8a8 8 0 0 1 16 0z" fill="#F4F4F4"/><path d="M15 8A7 7 0 1 1 1 8a7 7 0 0 1 14 0z" fill="#313131"/><path d="M14 8A6 6 0 1 1 2 8a6 6 0 0 1 12 0z" fill="#F4F4F4"/><path d="M6 7V4.6l-2 .481V7h2z" fill="#313131"/><path d="M4 8v2.515l2 .429V8H4z" fill="#313131"/><path d="M11 7V3.54l-4 .963V7h4z" fill="#313131"/><path d="M7 8v3.03l4 .858V8H7z" fill="#313131"/></g></svg>