<svg ti:v="1" width="16" height="16" viewBox="0 0 16 16" xmlns="http://www.w3.org/2000/svg" xmlns:ti="urn:schemas-jetbrains-com:tisvg"><rect id="frame" width="16" height="16" fill="none"/><path d="M0 0h16v16H0z" fill="#F0F" opacity=".337"/><path d="M0 0h16v16H0z" fill="#F4F4F4"/><path d="M1 1h14v14H1z" fill="#323232"/><path d="M9.692 5.631c1.625.505 2.327.839 2.308.312a8.98 8.98 0 0 0-.224-2.32c-.06-.296-5.044-1.684-5.914-1.41a6.81 6.81 0 0 0-1.288.646c.32.253.666.47 1.033.648.832.463.94.839.891.864-.305.163-3.84-1.678-3.95-1.58a5.2 5.2 0 0 0-.719 1.733c-.046.481.542.865 1.586 1.393.493.25 1.935 1.16 1.914 1.16a8.407 8.407 0 0 1-1.757-.443L2.07 6.027c-.405.02-.788.192-1.071.481v6.988a29.67 29.67 0 0 0 3.494-2.035c.035.008.306-.58 1.809.218a24.406 24.406 0 0 0 4.655 2.135c.109-.146.707-1.507.707-1.507a13.562 13.562 0 0 1-3.098-2.362 3.755 3.755 0 0 1-.61-1.346c.446.262.869.562 1.263.896.825.775 2.503 1.512 2.599 1.336a5.207 5.207 0 0 0-.403-3.531A30.808 30.808 0 0 1 8.4 5.746c-.414-.53.776-.275 1.292-.115zm0 0" fill="#EBEBEB"/></svg>