<svg xmlns="http://www.w3.org/2000/svg" width="16" height="16" viewBox="0 0 16 16"><rect id="frame" width="16" height="16" fill="none"/><path fill="#AFB1B3" fill-rule="evenodd" d="M2.5 1A1.5 1.5 0 0 0 1 2.5v4.008a1.61 1.61 0 0 1 1.071-.481l1.501.607a8.445 8.445 0 0 0 1.757.444c.021 0-1.421-.911-1.914-1.161-1.044-.527-1.632-.912-1.585-1.393a5.203 5.203 0 0 1 .718-1.733c.109-.098 3.644 1.743 3.95 1.58.048-.025-.059-.401-.892-.864a5.59 5.59 0 0 1-1.032-.648 6.884 6.884 0 0 1 1.287-.645c.871-.275 5.855 1.113 5.915 1.408.175.761.25 1.541.224 2.321.02.527-.683.193-2.308-.312-.516-.16-1.707-.415-1.292.115A30.995 30.995 0 0 0 11.416 7.3a5.206 5.206 0 0 1 .403 3.53c-.096.177-1.774-.56-2.598-1.335A9.005 9.005 0 0 0 7.956 8.6c.112.484.32.942.611 1.345a13.525 13.525 0 0 0 3.098 2.362s-.598 1.361-.707 1.507a24.336 24.336 0 0 1-4.655-2.134c-1.503-.798-1.774-.211-1.809-.219A29.842 29.842 0 0 1 1 13.496v.004A1.5 1.5 0 0 0 2.5 15h11a1.5 1.5 0 0 0 1.5-1.5v-11A1.5 1.5 0 0 0 13.5 1h-11z"/></svg>