<svg ti:v="1" width="32" height="32" viewBox="0 0 32 32" xmlns="http://www.w3.org/2000/svg" xmlns:ti="urn:schemas-jetbrains-com:tisvg"><rect id="frame" width="32" height="32" fill="none"/><path d="M0 0h32v32H0z" fill="#F0F" opacity=".129"/><path d="M0 0h32v32H0z" fill="#F4F4F4"/><path d="M2 2h28v28H2z" fill="#323232"/><path d="M20.174 11.047c3.399 1.056 4.867 1.754 4.825.652a18.777 18.777 0 0 0-.468-4.853c-.125-.616-10.546-3.519-12.366-2.944-1.098.444-2.153.99-3.15 1.63.79.538 1.617 1.02 2.475 1.44 1.74.967 2.006 1.44 1.905 1.495-.639.34-7.93-3.563-8.158-3.358a10.872 10.872 0 0 0-1.503 3.623c-.096 1.006 1.132 1.81 3.315 2.913 1.032.522 4.098 2.212 4.054 2.213a18.042 18.042 0 0 1-3.442-1.045L5.235 11.75C2.12 12.037 2.063 12.88 2 12.88v14.611c1.174-.139 7.176-4.281 7.305-4.253.074.016.64-1.212 3.783.456 5.533 2.937 9.581 4.666 9.732 4.463.229-.306 1.643-3.522 1.643-3.522a28.867 28.867 0 0 1-5.875-4.824 11.44 11.44 0 0 1-1.698-2.558 22.634 22.634 0 0 1 2.298 1.873c1.724 1.62 5.14 3.484 5.34 3.115.239-.438.875-5.474-.797-8.328 0 0-5.777-2.49-6.16-2.979-.867-1.108 1.525-.222 2.603.113zm0 0" fill="#EBEBEB"/></svg>