<svg ti:v="1" width="32" height="32" viewBox="0 0 32 32" xmlns="http://www.w3.org/2000/svg" xmlns:ti="urn:schemas-jetbrains-com:tisvg"><rect id="frame" width="32" height="32" fill="none"/><path d="M21.25 15.125a9.625 9.625 0 1 1-19.25 0 9.625 9.625 0 0 1 19.25 0z" fill="#F4F4F4"/><path d="M16 9H7.25V2H16z" fill="#F4F4F4"/><path d="M14.25 3.75V5.5h-.875v2.625h-3.5V5.5H9V3.75h5.25z" fill="#323232"/><path d="M19.5 15.125a7.875 7.875 0 1 1-15.75 0 7.875 7.875 0 0 1 15.75 0z" fill="#323232"/><path d="M6.272 12.204l-.341-.442a1.663 1.663 0 0 1 2.334-2.328l.439.339A6.057 6.057 0 0 1 11.625 9a6.127 6.127 0 0 1 6.125 6.125 6.127 6.127 0 0 1-6.125 6.125A6.127 6.127 0 0 1 5.5 15.125a6.058 6.058 0 0 1 .772-2.92zm0 0" fill="#EBEBEB"/><path d="M7.25 10.313c.097 0 .19.031.267.09l4.856 3.752a1.225 1.225 0 1 1-1.718 1.718l-3.751-4.856a.438.438 0 0 1 .346-.704zm0 0" fill="#323232"/><path d="M17.885 10.75L9 26.792 12.23 30h14.54L30 26.792 21.115 10.75h-3.23z" fill="#F4F4F4"/><path d="M12.951 28.25l-1.779-1.767L18.916 12.5h1.168l7.744 13.983-1.779 1.767H12.951z" fill="#C27D1A"/><path d="M20.813 26.5h-2.844v-1.75h2.843zm0-3.5h-2.844v-5.25h2.843zm0 0" fill="#EBEBEB"/></svg>