<svg ti:v="1" width="16" height="16" viewBox="0 0 16 16" xmlns="http://www.w3.org/2000/svg" xmlns:ti="urn:schemas-jetbrains-com:tisvg"><rect id="frame" width="16" height="16" fill="none"/><path d="M11 7.5a5.5 5.5 0 1 1-11 0 5.5 5.5 0 0 1 11 0z" fill="#F4F4F4"/><path d="M8 4H3V0h5z" fill="#F4F4F4"/><path d="M7 1v1h-.5v1.5h-2V2H4V1h3z" fill="#323232"/><path d="M10 7.5a4.5 4.5 0 1 1-9 0 4.5 4.5 0 0 1 9 0z" fill="#323232"/><path d="M2.441 5.831l-.195-.253a.95.95 0 0 1 1.334-1.33l.25.194A3.461 3.461 0 0 1 5.5 4a3.501 3.501 0 0 1 0 7A3.501 3.501 0 0 1 2 7.5a3.462 3.462 0 0 1 .441-1.669zm0 0" fill="#EBEBEB"/><path d="M3 4.75a.25.25 0 0 1 .153.052l2.774 2.144a.7.7 0 1 1-.981.981L2.802 5.153A.25.25 0 0 1 3 4.75zm0 0" fill="#323232"/><path d="M9.077 5L4 14.167 5.846 16h8.308L16 14.167 10.923 5H9.077z" fill="#F4F4F4"/><path d="M6.258 15l-1.017-1.01L9.666 6h.668l4.425 7.99L13.742 15H6.258z" fill="#C27D1A"/><path d="M11 14H9v-1h2zm0-2H9V9h2zm0 0" fill="#EBEBEB"/></svg>