<svg ti:v="1" width="16" height="16" viewBox="0 0 16 16" xmlns="http://www.w3.org/2000/svg" xmlns:ti="urn:schemas-jetbrains-com:tisvg"><rect id="frame" width="16" height="16" fill="none"/><g fill-rule="evenodd"><path d="M5.487 10.973c-.197 0-.404-.013-.631-.039l-.425-.048-.544-1.533-1.469.697-.334-.264a5.537 5.537 0 0 1-.896-.895l-.265-.335.697-1.468-1.533-.545-.048-.425A5.542 5.542 0 0 1 0 5.486c0-.197.013-.404.039-.631l.048-.425 1.533-.545-.697-1.468.265-.335c.264-.332.565-.633.896-.895l.334-.264 1.469.697.544-1.533.425-.048a5.306 5.306 0 0 1 1.264 0l.425.049.543 1.533L8.556.923l.335.265c.331.262.633.563.895.895l.265.335-.698 1.467 1.534.545.048.425c.026.227.039.434.039.631 0 .198-.013.404-.039.632l-.048.425-1.534.545.698 1.467-.265.335a5.497 5.497 0 0 1-.895.896l-.335.264-1.468-.697-.544 1.532-.424.049a5.531 5.531 0 0 1-.633.039z" fill="#F4F4F4"/><path d="M5.487 7.544a2.056 2.056 0 1 1 0-4.115 2.057 2.057 0 1 1 0 4.115zm4.767-1.504c.02-.182.034-.366.034-.553 0-.188-.014-.372-.034-.554L8.72 4.387a3.284 3.284 0 0 0-.169-.411l.697-1.467a4.754 4.754 0 0 0-.783-.783l-1.467.697a3.456 3.456 0 0 0-.412-.169L6.041.721A4.603 4.603 0 0 0 4.934.72l-.545 1.534c-.142.048-.28.103-.412.168l-1.468-.697c-.29.231-.553.493-.783.784l.697 1.467a3.284 3.284 0 0 0-.169.411L.72 4.933c-.02.182-.034.366-.034.554 0 .187.014.371.034.553l1.534.546c.048.142.103.279.169.412l-.697 1.467c.23.29.493.553.783.783l1.468-.697c.132.066.27.12.412.169l.545 1.533c.182.021.366.034.553.034.188 0 .372-.013.554-.034l.545-1.534c.142-.048.279-.103.412-.168l1.467.697a4.76 4.76 0 0 0 .783-.784l-.697-1.466c.066-.133.121-.27.169-.412l1.534-.546z" fill="#00A99D"/><path d="M7.544 5.487a2.057 2.057 0 1 1-4.114 0 2.057 2.057 0 0 1 4.114 0z" fill="#FFF"/><path d="M8.824 13.788a3.867 3.867 0 0 1-.156-.401l-.092-.277.794-.775-.851-.71.068-.283c.067-.279.168-.552.298-.81l.131-.26 1.108.012-.1-1.105.249-.151a3.67 3.67 0 0 1 .782-.361l.277-.091.775.793.71-.851.283.069c.281.068.553.168.81.298l.259.132-.012 1.108 1.105-.101.151.249c.081.134.148.258.204.38.057.123.108.255.157.403l.091.277-.794.774.852.71-.069.282c-.067.28-.168.553-.298.81l-.132.26-1.107-.013.1 1.105-.249.151a3.6 3.6 0 0 1-.782.361l-.277.092-.775-.793-.709.851-.283-.069a3.715 3.715 0 0 1-.81-.298l-.26-.131.013-1.109-1.104.101-.152-.248a3.804 3.804 0 0 1-.205-.381z" fill="#F4F4F4"/><path d="M10.946 12.808a1.403 1.403 0 1 1 2.546-1.177 1.403 1.403 0 0 1-2.546 1.177zm2.293 2.521a3.237 3.237 0 0 0 .685-.316l-.1-1.106c.074-.07.143-.143.207-.222l1.107.013c.114-.225.202-.463.261-.709l-.851-.709a2.37 2.37 0 0 0-.013-.303l.793-.776a3.244 3.244 0 0 0-.136-.353 3.766 3.766 0 0 0-.179-.332l-1.106.101a2.062 2.062 0 0 0-.222-.207l.012-1.108a3.243 3.243 0 0 0-.709-.261l-.708.85a2.38 2.38 0 0 0-.304.014l-.776-.794a3.456 3.456 0 0 0-.352.137 3.425 3.425 0 0 0-.333.18l.101 1.105c-.075.07-.144.143-.207.222l-1.108-.012a3.307 3.307 0 0 0-.261.708l.851.71c-.003.101.003.202.013.303l-.793.776a3.237 3.237 0 0 0 .316.685l1.105-.101c.071.074.144.144.223.207l-.013 1.108c.226.114.463.201.709.26l.709-.85c.101.002.201-.003.303-.013l.776.793z" fill="#00A99D"/><path d="M12.808 13.494a1.403 1.403 0 1 1-1.176-2.547 1.403 1.403 0 0 1 1.176 2.547z" fill="#FFF"/><path d="M9 15V8H0v7h2v1h5v-1h2z" fill="#F4F4F4"/><path d="M8 14V9H1v5h2v1h3v-1h2z" fill="#313131"/><path d="M7 13H2v-3h5v3z" fill="#FFF"/></g></svg>