<svg ti:v="1" width="32" height="32" viewBox="0 0 32 32" xmlns="http://www.w3.org/2000/svg" xmlns:ti="urn:schemas-jetbrains-com:tisvg"><rect id="frame" width="32" height="32" fill="none"/><path d="M32 16.373v-.746L26.332 0h-1.681L9.815 2.601 0 15.271v1.458l9.815 12.67L24.651 32h1.681L32 16.373z" fill="#F4F4F4"/><path d="M2.133 16l8.863 11.441 13.838 2.425L29.867 16 24.834 2.133 10.996 4.559 2.133 16z" fill="#323232"/><path d="M12.177 25.483L4.832 16l7.345-9.483L23.44 4.544 27.597 16 23.44 27.456l-11.263-1.973z" fill="#EBEBEB"/><path d="M18.56 16l4.104-9.957-6.105 8.795L6.397 16l10.161 1.162 6.106 8.795L18.56 16z" fill="#323232"/><path d="M11 30v-9H0v9h2v2h7v-2h2z" fill="#F4F4F4"/><path d="M10 29v-7H1v7h4v1H3v1h5v-1H6v-1h4z" fill="#323232"/><path d="M2 23h7v5H2z" fill="#FFF"/><path d="M15 26v-9H4v9h2v2h7v-2h2z" fill="#F4F4F4"/><path d="M14 25v-7H5v7h4v1H7v1h5v-1h-2v-1h4z" fill="#323232"/><path d="M6 19h7v5H6z" fill="#FFF"/></svg>