<svg ti:v="1" width="32" height="32" viewBox="0 0 32 32" xmlns="http://www.w3.org/2000/svg" xmlns:ti="urn:schemas-jetbrains-com:tisvg"><rect id="frame" width="32" height="32" fill="none"/><g fill-rule="evenodd"><path d="M32 29H0V3h32v26z" fill="#F4F4F4"/><path d="M30 27H2V5h28v22z" fill="#6BADF6"/><path d="M28 25H4V9h24v16z" fill="#FFF"/><path d="M28 8h-2V6h2v2z" fill="#FFF"/><path d="M25 8h-2V6h2v2z" fill="#FFF"/><path d="M22 8h-2V6h2v2z" fill="#FFF"/><path d="M11 30v-9H0v9h2v2h7v-2h2z" fill="#F4F4F4"/><path d="M10 29v-7H1v7h4v1H3v1h5v-1H6v-1h4z" fill="#313131"/><path d="M9 28H2v-5h7v5z" fill="#FFF"/><path d="M15 26v-9H4v9h2v2h7v-2h2z" fill="#F4F4F4"/><path d="M14 25v-7H5v7h4v1H7v1h5v-1h-2v-1h4z" fill="#313131"/><path d="M13 24H6v-5h7v5z" fill="#FFF"/></g></svg>