<svg ti:v="1" width="16" height="16" viewBox="0 0 16 16" xmlns="http://www.w3.org/2000/svg" xmlns:ti="urn:schemas-jetbrains-com:tisvg"><rect id="frame" width="16" height="16" fill="none"/><g fill-rule="evenodd"><path d="M16 14V0H0v14h3v2h10v-2h3z" fill="#F4F4F4"/><path d="M15 12V1H1v11h6v2H4v1h8v-1H9v-2h6z" fill="#313131"/><path d="M13 10H3V3h10v7z" fill="#FFF"/><path d="M10 9H6V4h4v5z" fill="#313131"/><path d="M7 6h2V5H7v1z" fill="#FFF"/><path d="M8 8h1V7H8v1z" fill="#FFF"/><path d="M9 15V8H0v7h2v1h5v-1h2z" fill="#F4F4F4"/><path d="M8 14V9H1v5h2v1h3v-1h2z" fill="#313131"/><path d="M7 13H2v-3h5v3z" fill="#FFF"/></g></svg>