<svg ti:v="1" width="16" height="16" viewBox="0 0 16 16" xmlns="http://www.w3.org/2000/svg" xmlns:ti="urn:schemas-jetbrains-com:tisvg"><rect id="frame" width="16" height="16" fill="none"/><path d="M16 8.187v-.374L13.166 0h-.841L4.907 1.301 0 7.636v.728l4.907 6.335L12.325 16h.841L16 8.187z" fill="#F4F4F4"/><path d="M1.067 8l4.431 5.721 6.919 1.212L14.933 8l-2.516-6.934L5.498 2.28 1.067 8z" fill="#323232"/><path d="M6.089 12.742L2.416 8l3.673-4.742 5.631-.986L13.798 8l-2.078 5.728-5.631-.986z" fill="#EBEBEB"/><path d="M9.28 8l2.052-4.978-3.053 4.397L3.198 8l5.081.581 3.053 4.397L9.28 8z" fill="#323232"/><path d="M9 15V8H0v7h2v1h5v-1h2z" fill="#F4F4F4"/><path d="M8 14V9H1v5h2v1h3v-1h2z" fill="#323232"/><path d="M2 10h5v3H2z" fill="#FFF"/></svg>