<svg ti:v="1" width="16" height="16" viewBox="0 0 16 16" xmlns="http://www.w3.org/2000/svg" xmlns:ti="urn:schemas-jetbrains-com:tisvg"><rect id="frame" width="16" height="16" fill="none"/><g fill-rule="evenodd"><path d="M8 16c-4.41 0-8-3.589-8-8s3.59-8 8-8 8 3.589 8 8-3.59 8-8 8z" fill="#F4F4F4"/><path d="M8 2.5A5.506 5.506 0 0 0 2.5 8c0 3.033 2.467 5.5 5.5 5.5s5.5-2.467 5.5-5.5S11.033 2.5 8 2.5zM8 15c-3.86 0-7-3.14-7-7s3.14-7 7-7 7 3.14 7 7-3.14 7-7 7z" fill="#313131"/><path d="M3 11c-1.654 0-3-1.346-3-3s1.346-3 3-3 3 1.346 3 3-1.346 3-3 3z" fill="#F4F4F4"/><path d="M5 8a2 2 0 1 1-4.001-.001A2 2 0 0 1 5 8z" fill="#1AA1E2"/><path d="M9 15V8H0v7h2v1h5v-1h2z" fill="#F4F4F4"/><path d="M8 14V9H1v5h2v1h3v-1h2z" fill="#313131"/><path d="M7 13H2v-3h5v3z" fill="#FFF"/></g></svg>