<svg ti:v="1" width="32" height="32" viewBox="0 0 32 32" xmlns="http://www.w3.org/2000/svg" xmlns:ti="urn:schemas-jetbrains-com:tisvg"><rect id="frame" width="32" height="32" fill="none"/><g fill-rule="evenodd"><path d="M0 16.611C0 6.986 6.992 0 16.627 0c5.48 0 9.462 3.367 11.348 5.375 1.493 1.59 2.209 3.614 1.962 5.552-.204 1.615-.798 2.711-1.548 3.473 2.716.223 3.177 1.152 3.388 1.579.361.728.28 1.585-.213 2.237-.75.999-1.994 1.286-3.197 1.563-.682.158-1.455.336-1.952.609-1.708.938-2.353 2.078-3.098 3.401-.86 1.523-1.929 3.361-4.667 4.185l-.281.026h-.064c-.01 1-.327 2.199-.948 2.873C16.375 31.94 15.05 32 14.174 32 8.466 32 0 25.538 0 16.611z" fill="#F4F4F4"/><path d="M21.166 11.896c-2.043.262-5.144-.323-7.6-.494-3.066-.212-7.117.291-9.068 2.12C5.924 8.819 9.426 4 16.481 4c6.044 0 8.993 4.019 9 5.4 0 .958-2.271 2.234-4.315 2.496zm-4.608 5.192c-3.642 3.858-6.011 7.39-6.56 9.619-.863-.424-4.412-2.632-5.437-7.428-.441-2.279 1.22-4.054 3.117-4.957 4-1.903 8.354.034 12.65-.984-1.539 1.397-2.933 2.861-3.77 3.75zm9.96-10.364C25.09 5.211 21.552 2 16.626 2 7.621 2 2 8.523 2 16.539c0 7.806 7.491 13.665 11.968 13.429 1.667-.088 2.516-1.581 2.193-3.903-.102-.743.356-4.141 2.407-7.489 1.575-2.568 4.147-3.872 5.529-4.254 1.776-.489 3.274-1.66 3.774-3.645.305-1.211-.216-2.746-1.353-3.953z" fill="#6BADF6"/><path d="M29.968 16.932c-.589.779-2.935.752-4.513 1.613-4.469 2.442-3.489 6.285-7.381 7.453-.271.082.161-3.808 1.617-6.084.655-1.023 2.494-2.55 3.655-3.023 2.545-1.036 7.058-.537 6.622.041z" fill="#6BADF6"/><path d="M12.273 20.439c-.107.757-.973 1.893-1.568 2.434-.432-1.353-.7-2.425-1.643-3.921-.605-.315-1.846-.456-2.885-.787.48-1.507 1.717-2.695 3.082-2.398 1.959 2.728 2.778 3.885 3.014 4.672z" fill="#6BADF6"/><path d="M11 30v-9H0v9h2v2h7v-2h2z" fill="#F4F4F4"/><path d="M10 29v-7H1v7h4v1H3v1h5v-1H6v-1h4z" fill="#313131"/><path d="M9 28H2v-5h7v5z" fill="#FFF"/><path d="M15 26v-9H4v9h2v2h7v-2h2z" fill="#F4F4F4"/><path d="M14 25v-7H5v7h4v1H7v1h5v-1h-2v-1h4z" fill="#313131"/><path d="M13 24H6v-5h7v5z" fill="#FFF"/></g></svg>