<svg ti:v="1" width="32" height="32" viewBox="0 0 32 32" xmlns="http://www.w3.org/2000/svg" xmlns:ti="urn:schemas-jetbrains-com:tisvg"><rect id="frame" width="32" height="32" fill="none"/><g fill-rule="evenodd"><path d="M32 16c0 8.837-7.163 16-16 16S0 24.837 0 16 7.163 0 16 0s16 7.163 16 16z" fill="#F4F4F4"/><path d="M24.593 24.641a14.66 14.66 0 0 0-3.197-1.744 17.801 17.801 0 0 0 1.359-6.446h5.416a12.164 12.164 0 0 1-3.578 8.19zm-20.764-8.19h5.415a17.823 17.823 0 0 0 1.358 6.447 14.657 14.657 0 0 0-3.196 1.744 12.163 12.163 0 0 1-3.577-8.191zm3.079-8.549c1.028.8 2.155 1.476 3.373 1.985a18.012 18.012 0 0 0-1.037 5.661H3.829a12.13 12.13 0 0 1 3.079-7.646zm9.543 7.646V11.01a14.83 14.83 0 0 0 4.422-.812c.594 1.652.929 3.46.979 5.351h-5.401m4.1 7.039a14.866 14.866 0 0 0-4.1-.695v-5.442h5.401c-.057 2.2-.52 4.275-1.301 6.137zm.483 1.134c1.027.397 1.988.92 2.88 1.536a12.148 12.148 0 0 1-5.912 2.757 15.662 15.662 0 0 0 3.032-4.293zm-4.583 4.449v-5.373c1.294.041 2.547.243 3.73.613-.922 1.885-2.181 3.508-3.73 4.76zm-2.454-.156a12.135 12.135 0 0 1-5.911-2.757 13.724 13.724 0 0 1 2.879-1.536 15.662 15.662 0 0 0 3.032 4.293zm1.551-11.564v5.442a14.86 14.86 0 0 0-4.1.695 16.97 16.97 0 0 1-1.3-6.137m.979-6.253a14.85 14.85 0 0 0 4.421.812v4.538h-5.4c.048-1.891.384-3.698.979-5.35zm-.505-1.143A13.79 13.79 0 0 1 7.527 7.25a12.158 12.158 0 0 1 6.47-3.264c-1.4 1.397-2.552 3.12-3.375 5.069zm4.926-5.226v6.276a13.989 13.989 0 0 1-4.081-.74c.941-2.216 2.331-4.115 4.081-5.536zm2.454.156a12.169 12.169 0 0 1 6.471 3.264 13.797 13.797 0 0 1-3.096 1.805c-.822-1.948-1.976-3.671-3.375-5.069zm-1.505-.153c1.704 1.418 3.094 3.317 4.034 5.533-1.288.44-2.656.695-4.081.74l.047-6.273zM15.5 28.168c-1.501-1.25-2.76-2.873-3.681-4.758a13.949 13.949 0 0 1 3.729-.613l-.048 5.371zm12.671-12.62h-5.416c-.05-2-.406-3.912-1.037-5.661a14.736 14.736 0 0 0 3.374-1.985 12.135 12.135 0 0 1 3.079 7.646zM16 2C8.267 2 2 8.267 2 16c0 7.732 6.267 14 14 14 7.732 0 14-6.268 14-14 0-7.733-6.268-14-14-14z" fill="#313131"/><path d="M11 30v-9H0v9h2v2h7v-2h2z" fill="#F4F4F4"/><path d="M10 29v-7H1v7h4v1H3v1h5v-1H6v-1h4z" fill="#313131"/><path d="M9 28H2v-5h7v5z" fill="#FFF"/><path d="M15 26v-9H4v9h2v2h7v-2h2z" fill="#F4F4F4"/><path d="M14 25v-7H5v7h4v1H7v1h5v-1h-2v-1h4z" fill="#313131"/><path d="M13 24H6v-5h7v5z" fill="#FFF"/></g></svg>