<svg ti:v="1" width="16" height="16" viewBox="0 0 16 16" xmlns="http://www.w3.org/2000/svg" xmlns:ti="urn:schemas-jetbrains-com:tisvg"><rect id="frame" width="16" height="16" fill="none"/><g fill-rule="evenodd"><path d="M15.928 8.036A7.965 7.965 0 1 1-.001 8.035a7.965 7.965 0 0 1 15.929.001z" fill="#F4F4F4"/><path d="M12.241 12.337a7.295 7.295 0 0 0-1.591-.868c.408-.975.648-2.06.676-3.209h2.696a6.055 6.055 0 0 1-1.781 4.077zM1.905 8.261h2.696a8.865 8.865 0 0 0 .676 3.208 7.295 7.295 0 0 0-1.591.868 6.055 6.055 0 0 1-1.781-4.076zm1.533-4.256a7.36 7.36 0 0 0 1.679.988 8.972 8.972 0 0 0-.516 2.818H1.905a6.038 6.038 0 0 1 1.533-3.806zm4.75 3.806V5.552a7.396 7.396 0 0 0 2.201-.404c.296.822.463 1.722.487 2.663H8.188zm2.041 3.504a7.402 7.402 0 0 0-2.041-.346V8.261h2.688a8.446 8.446 0 0 1-.647 3.054zm.241.565a6.86 6.86 0 0 1 1.433.764 6.043 6.043 0 0 1-2.943 1.372 7.788 7.788 0 0 0 1.51-2.136zm-2.282 2.214v-2.675a6.986 6.986 0 0 1 1.857.306 6.947 6.947 0 0 1-1.857 2.369zm-1.221-.078a6.043 6.043 0 0 1-2.943-1.372 6.818 6.818 0 0 1 1.434-.764 7.785 7.785 0 0 0 1.509 2.136zm.772-5.755v2.708a7.402 7.402 0 0 0-2.041.346 8.446 8.446 0 0 1-.647-3.054m.487-3.113c.693.24 1.432.38 2.201.404v2.259H5.051a8.505 8.505 0 0 1 .487-2.663zm-.251-.569a6.925 6.925 0 0 1-1.541-.898 6.047 6.047 0 0 1 3.221-1.625 7.881 7.881 0 0 0-1.68 2.523zm2.452-2.601v3.124a6.96 6.96 0 0 1-2.031-.369c.468-1.103 1.16-2.048 2.031-2.755zm1.221.077a6.058 6.058 0 0 1 3.221 1.625 6.865 6.865 0 0 1-1.541.898 7.903 7.903 0 0 0-1.68-2.523zm-.749-.076c.848.706 1.54 1.651 2.008 2.754a6.966 6.966 0 0 1-2.031.369l.023-3.123zm-.496 12.114a7.162 7.162 0 0 1-1.832-2.369 6.97 6.97 0 0 1 1.856-.305l-.024 2.674zm6.307-6.282h-2.696a8.972 8.972 0 0 0-.516-2.818 7.345 7.345 0 0 0 1.68-.988 6.043 6.043 0 0 1 1.532 3.806zM7.964 1.067a6.969 6.969 0 1 0 0 13.938 6.969 6.969 0 0 0 0-13.938z" fill="#313131"/><path d="M9 15V8H0v7h2v1h5v-1h2z" fill="#F4F4F4"/><path d="M8 14V9H1v5h2v1h3v-1h2z" fill="#313131"/><path d="M7 13H2v-3h5v3z" fill="#FFF"/></g></svg>