<svg ti:v="1" width="16" height="16" viewBox="0 0 16 16" xmlns="http://www.w3.org/2000/svg" xmlns:ti="urn:schemas-jetbrains-com:tisvg"><rect id="frame" width="16" height="16" fill="none"/><g fill-rule="evenodd"><path d="M16 14H0V1h16v13z" fill="#F4F4F4"/><path d="M15 13H1V2h14v11z" fill="#6BADF6"/><path d="M14 12H2V5h12v7z" fill="#FFF"/><path d="M13 4h1V3h-1v1z" fill="#FFF"/><path d="M11 4h1V3h-1v1z" fill="#FFF"/><path d="M9 4h1.001V3H9v1z" fill="#FFF"/><path d="M9 15V8H0v7h2v1h5v-1h2z" fill="#F4F4F4"/><path d="M8 14V9H1v5h2v1h3v-1h2z" fill="#313131"/><path d="M7 13H2v-3h5v3z" fill="#FFF"/></g></svg>