<svg ti:v="1" width="32" height="32" viewBox="0 0 32 32" xmlns="http://www.w3.org/2000/svg" xmlns:ti="urn:schemas-jetbrains-com:tisvg"><rect id="frame" width="32" height="32" fill="none"/><g fill-rule="evenodd"><path d="M32 16c0 8.837-7.163 16-16 16S0 24.837 0 16 7.163 0 16 0s16 7.163 16 16z" fill="#F4F4F4"/><path d="M30 16c0 7.732-6.268 14-14 14S2 23.732 2 16 8.268 2 16 2s14 6.268 14 14z" fill="#313131"/><path d="M28 16c0 6.627-5.373 12-12 12S4 22.627 4 16 9.373 4 16 4s12 5.373 12 12z" fill="#F4F4F4"/><path d="M13 16v-5.322l-4 .807V16h4z" fill="#313131"/><path d="M9 17v3.587l4 .719V17H9z" fill="#313131"/><path d="M22 16V8.903l-8 1.614V16h8z" fill="#313131"/><path d="M14 17v4.45l8 1.438V17h-8z" fill="#313131"/><path d="M11 30v-9H0v9h2v2h7v-2h2z" fill="#F4F4F4"/><path d="M10 29v-7H1v7h4v1H3v1h5v-1H6v-1h4z" fill="#313131"/><path d="M9 28H2v-5h7v5z" fill="#FFF"/><path d="M15 26v-9H4v9h2v2h7v-2h2z" fill="#F4F4F4"/><path d="M14 25v-7H5v7h4v1H7v1h5v-1h-2v-1h4z" fill="#313131"/><path d="M13 24H6v-5h7v5z" fill="#FFF"/></g></svg>