<svg ti:v="1" width="32" height="32" viewBox="0 0 32 32" xmlns="http://www.w3.org/2000/svg" xmlns:ti="urn:schemas-jetbrains-com:tisvg"><rect id="frame" width="32" height="32" fill="none"/><g fill-rule="evenodd"><path d="M11 22c-.395 0-.809-.026-1.264-.078l-.852-.097-1.092-3.073-2.945 1.398-.67-.531a10.958 10.958 0 0 1-1.795-1.794l-.532-.671 1.398-2.943-3.073-1.093-.098-.852C.026 11.81 0 11.396 0 11s.026-.81.077-1.266l.098-.851 3.073-1.094L1.85 4.846l.532-.671a11.037 11.037 0 0 1 1.795-1.794l.67-.531 2.945 1.398L8.884.175l.852-.097C10.191.026 10.605 0 11 0c.399 0 .814.026 1.269.078l.851.099 1.091 3.073 2.943-1.4.671.532a10.919 10.919 0 0 1 1.794 1.795l.531.67-1.398 2.942 3.073 1.094.097.851c.052.456.078.87.078 1.266s-.026.81-.078 1.266l-.097.852-3.073 1.093 1.398 2.942-.531.671a10.997 10.997 0 0 1-1.794 1.795l-.671.531-2.943-1.398-1.092 3.071-.85.099c-.455.052-.87.078-1.269.078z" fill="#F4F4F4"/><path d="M11 15.125A4.124 4.124 0 0 1 6.875 11 4.124 4.124 0 0 1 11 6.875 4.124 4.124 0 0 1 15.125 11 4.124 4.124 0 0 1 11 15.125zm9.557-3.014A9.95 9.95 0 0 0 20.625 11c0-.376-.027-.745-.068-1.109l-3.075-1.094a6.784 6.784 0 0 0-.339-.826l1.398-2.941a9.635 9.635 0 0 0-1.57-1.57l-2.942 1.398a6.714 6.714 0 0 0-.826-.338L12.11 1.445a9.464 9.464 0 0 0-1.11-.07 9.65 9.65 0 0 0-1.108.069L8.799 4.518a6.67 6.67 0 0 0-.827.339L5.03 3.459A9.647 9.647 0 0 0 3.459 5.03l1.398 2.941a6.784 6.784 0 0 0-.339.826L1.443 9.891A9.886 9.886 0 0 0 1.375 11c0 .376.027.745.068 1.111l3.075 1.092c.097.285.207.56.339.826l-1.398 2.942a9.641 9.641 0 0 0 1.571 1.57l2.942-1.398c.266.133.542.242.827.34l1.093 3.074c.364.041.733.068 1.108.068.376 0 .745-.027 1.11-.068l1.093-3.075c.285-.097.56-.207.826-.339l2.942 1.398a9.602 9.602 0 0 0 1.57-1.571l-1.398-2.941c.132-.266.242-.541.339-.826l3.075-1.092z" fill="#00A99D"/><path d="M15.125 11a4.125 4.125 0 1 1-8.25 0 4.125 4.125 0 0 1 8.25 0z" fill="#FFF"/><path d="M17.69 27.643a7.571 7.571 0 0 1-.313-.805l-.184-.555 1.591-1.554-1.706-1.424.136-.566c.135-.56.337-1.106.598-1.624l.264-.521 2.221.025-.201-2.216.499-.303a7.95 7.95 0 0 1 .762-.41 7.72 7.72 0 0 1 .806-.314l.554-.183 1.555 1.591 1.423-1.707.568.138a7.56 7.56 0 0 1 1.623.598l.52.264-.024 2.222 2.215-.202.303.5c.162.267.296.515.409.76.114.247.217.511.315.808l.181.555-1.59 1.553 1.707 1.422-.137.568a7.51 7.51 0 0 1-.599 1.624l-.263.52-2.221-.025.202 2.215-.5.303a7.413 7.413 0 0 1-.761.41 7.612 7.612 0 0 1-.807.313l-.554.184-1.555-1.591-1.422 1.707-.567-.137a7.554 7.554 0 0 1-1.624-.598l-.52-.264.024-2.222-2.213.202-.304-.498a7.436 7.436 0 0 1-.411-.763z" fill="#F4F4F4"/><path d="M21.946 25.679a2.811 2.811 0 1 1 5.107-2.357 2.812 2.812 0 1 1-5.107 2.357zm4.597 5.055c.238-.079.474-.168.707-.275.232-.108.453-.23.667-.359l-.201-2.217a4.7 4.7 0 0 0 .414-.445l2.22.025c.228-.451.405-.928.523-1.42l-1.706-1.422a4.596 4.596 0 0 0-.026-.608l1.591-1.555a6.379 6.379 0 0 0-.274-.708 6.526 6.526 0 0 0-.359-.666l-2.216.202a4.474 4.474 0 0 0-.446-.415l.025-2.221a6.588 6.588 0 0 0-1.421-.524l-1.421 1.706a4.765 4.765 0 0 0-.608.026l-1.556-1.591a6.862 6.862 0 0 0-.706.275 6.374 6.374 0 0 0-.668.36l.202 2.215a4.586 4.586 0 0 0-.415.446l-2.221-.025a6.548 6.548 0 0 0-.522 1.421l1.705 1.422a4.78 4.78 0 0 0 .026.609l-1.59 1.555c.078.237.167.474.274.705.108.233.23.454.36.668l2.216-.202c.141.149.288.288.445.415l-.025 2.221c.453.228.929.404 1.421.522l1.422-1.705c.202.005.404-.005.607-.027l1.556 1.592z" fill="#00A99D"/><path d="M25.679 27.054a2.813 2.813 0 1 1-2.357-5.108 2.813 2.813 0 0 1 2.357 5.108z" fill="#FFF"/><path d="M11 30v-9H0v9h2v2h7v-2h2z" fill="#F4F4F4"/><path d="M10 29v-7H1v7h4v1H3v1h5v-1H6v-1h4z" fill="#313131"/><path d="M9 28H2v-5h7v5z" fill="#FFF"/><path d="M15 26v-9H4v9h2v2h7v-2h2z" fill="#F4F4F4"/><path d="M14 25v-7H5v7h4v1H7v1h5v-1h-2v-1h4z" fill="#313131"/><path d="M13 24H6v-5h7v5z" fill="#FFF"/></g></svg>