<svg ti:v="1" width="16" height="16" viewBox="0 0 16 16" xmlns="http://www.w3.org/2000/svg" xmlns:ti="urn:schemas-jetbrains-com:tisvg"><rect id="frame" width="16" height="16" fill="none"/><g fill-rule="evenodd"><path d="M13 16H3V0h10v16z" fill="#F4F4F4"/><path d="M10 4H6V3h4m0 3H6V5h4m0 8H9v-1h1m-6 3h8V1H4v14z" fill="#313131"/><path d="M10 12H9v1h1m0-8H6v1h4m0-2H6V3h4v1z" fill="#EBEBEB"/><path d="M9 15V8H0v7h2v1h5v-1h2z" fill="#F4F4F4"/><path d="M8 14V9H1v5h2v1h3v-1h2z" fill="#313131"/><path d="M7 13H2v-3h5v3z" fill="#FFF"/></g></svg>