<svg ti:v="1" width="16" height="16" viewBox="0 0 16 16" xmlns="http://www.w3.org/2000/svg" xmlns:ti="urn:schemas-jetbrains-com:tisvg"><rect id="frame" width="16" height="16" fill="none"/><g fill-rule="evenodd"><path d="M15.922 3.541h-2.974c-1.774 0-2.511 1.223-2.84 2.17a4.916 4.916 0 0 0-.202-.497c-.665-1.383-1.695-1.673-2.443-1.673H5.18c-.933 0-1.636.576-2.085 1.01-.977.945-2.29 3.389-2.909 6.231l-.187.855v.352h2.642c1.448 0 2.427-1.375 2.612-2.669.041-.282.125-.59.238-.898.103.464.204.879.3 1.164.281.844.806 2.414 2.421 2.414h2.54c1.264 0 2.005-1.185 2.546-2.05.441-.706 2.185-4.162 2.453-5.154l.171-.63v-.625z" fill="#F4F4F4"/><path d="M3.787 5.267c.511-.494.953-.73 1.394-.73h2.282c.707 0 1.192.371 1.547 1.109.483 1.004.851 3.524 1.001 3.967.224-.483.704-2.202.841-2.841.283-1.318.798-2.235 2.096-2.235h1.843c-.23.851-1.913 4.209-2.337 4.886-.486.778-1.011 1.582-1.702 1.582H8.213c-.801 0-1.14-.72-1.478-1.734-.252-.754-.625-2.878-.785-3.417-.817.725-1.523 2.218-1.681 3.325-.131.913-.8 1.815-1.627 1.815H1.158c.593-2.719 1.824-4.949 2.629-5.727z" fill="#2971B2"/><path d="M2.576 10.994c.352-2.427 1.225-4.144 2.15-5.681-1.021 1.412-2.413 3.103-2.736 5.692.108 0 .473-.011.586-.011z" fill="#FFF"/><path d="M6.915 5.175c.167.269.737 1.735.979 2.583.241.847.759 2.289 1.447 2.668-.094.04-.235.071-.308.103-.896-.377-1.24-1.711-1.448-2.582-.207-.871-.656-2.233-.824-2.589.047-.072.154-.183.154-.183z" fill="#FFF"/><path d="M11.74 8.28c.223-.357 1.506-3.062 1.81-3.743h-.459c-.256.713-1.182 3.382-1.351 3.743z" fill="#FFF"/><path d="M9 15V8H0v7h2v1h5v-1h2z" fill="#F4F4F4"/><path d="M8 14V9H1v5h2v1h3v-1h2z" fill="#313131"/><path d="M7 13H2v-3h5v3z" fill="#FFF"/></g></svg>