<svg ti:v="1" width="32" height="32" viewBox="0 0 32 32" xmlns="http://www.w3.org/2000/svg" xmlns:ti="urn:schemas-jetbrains-com:tisvg"><rect id="frame" width="32" height="32" fill="none"/><g fill-rule="evenodd"><path d="M32 15.172L25.828 9H19v2.828l.475.475a4.023 4.023 0 0 0-.975.576A3.989 3.989 0 0 0 16 12c-.945 0-1.815.33-2.5.879a4.023 4.023 0 0 0-.975-.576l.475-.475V9H6.172L0 15.172v1.656L6.172 23H13v-2.828l-.475-.475a3.99 3.99 0 0 0 .975-.576A3.987 3.987 0 0 0 16 20c.945 0 1.814-.33 2.5-.879.293.235.621.43.975.576l-.475.475V23h6.828L32 16.828v-1.656z" fill="#F4F4F4"/><path d="M9 16c0 1.103.896 2 2 2s2-.897 2-2a2 2 0 0 0-4 0zm5 0c0 1.103.896 2 2 2s2-.897 2-2a2 2 0 0 0-4 0zm5 0c0 1.103.896 2 2 2s2-.897 2-2a2 2 0 0 0-4 0zm-8-5H7l-5 5 5 5h4l-5-5m15-5h4l5 5-5 5h-4l5-5-5-5z" fill="#00A99D"/><path d="M11 30v-9H0v9h2v2h7v-2h2z" fill="#F4F4F4"/><path d="M10 29v-7H1v7h4v1H3v1h5v-1H6v-1h4z" fill="#313131"/><path d="M9 28H2v-5h7v5z" fill="#FFF"/><path d="M15 26v-9H4v9h2v2h7v-2h2z" fill="#F4F4F4"/><path d="M14 25v-7H5v7h4v1H7v1h5v-1h-2v-1h4z" fill="#313131"/><path d="M13 24H6v-5h7v5z" fill="#FFF"/></g></svg>