<svg ti:v="1" width="16" height="16" viewBox="0 0 16 16" xmlns="http://www.w3.org/2000/svg" xmlns:ti="urn:schemas-jetbrains-com:tisvg"><rect id="frame" width="16" height="16" fill="none"/><g fill-rule="evenodd"><path d="M7.061 16C4.217 16 0 12.781 0 8.334 0 3.539 3.483.059 8.283.059c2.73 0 4.714 1.677 5.653 2.677.744.793 1.101 1.801.978 2.766-.102.805-.398 1.351-.772 1.73 1.354.111 1.583.575 1.688.787.18.363.14.79-.106 1.115-.373.497-.993.64-1.592.778-.34.079-.725.167-.973.304-.851.467-1.172 1.035-1.543 1.694-.429.759-.961 1.67-2.325 2.081l-.14.009h-.032c-.005 0-.163 1.099-.472 1.435-.489.532-1.15.565-1.586.565z" fill="#F4F4F4"/><path d="M10.544 5.985c-1.018.131-2.563-.161-3.786-.246-1.527-.106-3.545.145-4.517 1.056.71-2.343 2.454-4.744 5.969-4.744 3.011 0 4.48 2.003 4.483 2.691 0 .477-1.131 1.112-2.149 1.243zM8.248 8.571c-1.814 1.923-2.994 3.682-3.268 4.792-.43-.211-2.197-1.311-2.708-3.7-.22-1.135.608-2.02 1.553-2.469 1.992-.948 4.162.016 6.302-.491a34.62 34.62 0 0 0-1.879 1.868zm4.962-5.162c-.711-.754-2.474-2.354-4.928-2.354-4.486 0-7.286 3.25-7.286 7.243 0 3.889 3.732 6.807 5.962 6.69.831-.044 1.254-.788 1.093-1.945-.051-.369.177-2.062 1.199-3.73.784-1.28 2.066-1.929 2.754-2.119.885-.244 1.631-.827 1.88-1.816.152-.603-.107-1.368-.674-1.969z" fill="#6BADF6"/><path d="M14.929 8.493c-.293.388-1.462.375-2.248.804-2.226 1.216-1.738 3.131-3.677 3.713-.135.04.08-1.898.805-3.031.327-.51 1.243-1.271 1.821-1.506 1.268-.517 3.516-.268 3.299.02z" fill="#6BADF6"/><path d="M6.114 10.24c-.053.377-.485.943-.781 1.212-.215-.673-.349-1.208-.819-1.953-.301-.157-.919-.227-1.437-.392.239-.751.856-1.342 1.536-1.194.976 1.358 1.383 1.935 1.501 2.327z" fill="#6BADF6"/><path d="M9 15V8H0v7h2v1h5v-1h2z" fill="#F4F4F4"/><path d="M8 14V9H1v5h2v1h3v-1h2z" fill="#313131"/><path d="M7 13H2v-3h5v3z" fill="#FFF"/></g></svg>