<svg ti:v="1" width="16" height="16" viewBox="0 0 16 16" xmlns="http://www.w3.org/2000/svg" xmlns:ti="urn:schemas-jetbrains-com:tisvg"><rect id="frame" width="16" height="16" fill="none"/><g fill-rule="evenodd"><path d="M4.571 5.714a5.714 5.714 0 0 0 5.714 5.714V0a5.714 5.714 0 0 0-5.714 5.714z" fill="#F4F4F4"/><path d="M16 5.714A5.714 5.714 0 0 0 10.286 0v11.428A5.714 5.714 0 0 0 16 5.714z" fill="#F4F4F4"/><path d="M10.286 1.143v9.143a4.571 4.571 0 0 0 0-9.143z" fill="#313131"/><path d="M10.286 1.143v9.143a4.571 4.571 0 0 1 0-9.143z" fill="#313131"/><path d="M10.286 2.286v6.857a3.43 3.43 0 0 0 0-6.857z" fill="#FFF"/><path d="M10.286 2.286v6.857a3.43 3.43 0 0 1 0-6.857z" fill="#313131"/><path d="M0 10.286A5.714 5.714 0 0 0 5.714 16V4.572A5.714 5.714 0 0 0 0 10.286z" fill="#F4F4F4"/><path d="M11.429 10.286a5.714 5.714 0 0 0-5.714-5.714V16a5.714 5.714 0 0 0 5.714-5.714z" fill="#F4F4F4"/><path d="M5.714 5.714v9.143a4.571 4.571 0 0 0 0-9.143z" fill="#313131"/><path d="M5.714 5.714v9.143a4.571 4.571 0 0 1 0-9.143z" fill="#313131"/><path d="M5.714 6.857v6.857a3.43 3.43 0 0 0 0-6.857z" fill="#FFF"/><path d="M5.714 6.857v6.857a3.43 3.43 0 0 1 0-6.857z" fill="#313131"/></g></svg>