<svg ti:v="1" width="32" height="32" viewBox="0 0 32 32" xmlns="http://www.w3.org/2000/svg" xmlns:ti="urn:schemas-jetbrains-com:tisvg"><rect id="frame" width="32" height="32" fill="none"/><g fill-rule="evenodd"><path d="M9.143 11.429c0 6.312 5.116 11.429 11.429 11.429V0c-6.313 0-11.43 5.117-11.43 11.429z" fill="#F4F4F4"/><path d="M32 11.429C32 5.117 26.884 0 20.571 0v22.858C26.884 22.858 32 17.741 32 11.429z" fill="#F4F4F4"/><path d="M20.571 2.286v18.286a9.144 9.144 0 0 0 0-18.286z" fill="#313131"/><path d="M20.571 2.286v18.286a9.144 9.144 0 0 1 0-18.286z" fill="#313131"/><path d="M20.571 4.571v13.714a6.857 6.857 0 0 0 0-13.714z" fill="#FFF"/><path d="M20.571 4.571v13.714a6.857 6.857 0 0 1 0-13.714z" fill="#313131"/><path d="M0 20.571C0 26.883 5.116 32 11.429 32V9.142C5.116 9.142 0 14.259 0 20.571z" fill="#F4F4F4"/><path d="M22.857 20.571c0-6.312-5.116-11.429-11.429-11.429V32c6.313 0 11.43-5.117 11.43-11.429z" fill="#F4F4F4"/><path d="M11.429 11.429v18.286a9.144 9.144 0 0 0 0-18.286z" fill="#313131"/><path d="M11.429 11.429v18.286a9.144 9.144 0 0 1 0-18.286z" fill="#313131"/><path d="M11.429 13.714v13.714a6.857 6.857 0 0 0 0-13.714z" fill="#FFF"/><path d="M11.429 13.714v13.714a6.857 6.857 0 0 1 0-13.714z" fill="#313131"/></g></svg>