<svg ti:v="1" width="16" height="16" viewBox="0 0 16 16" xmlns="http://www.w3.org/2000/svg" xmlns:ti="urn:schemas-jetbrains-com:tisvg"><rect id="frame" width="16" height="16" fill="none"/><g fill-rule="evenodd"><path d="M15.967 8.08L12.887 5H9.48v1.412l.237.236c-.176.073-.34.171-.486.288a1.99 1.99 0 0 0-2.495 0 2.012 2.012 0 0 0-.486-.288l.237-.236V5H3.08L0 8.08v.826l3.08 3.08h3.407v-1.411l-.237-.237a2.04 2.04 0 0 0 .486-.287 1.995 1.995 0 0 0 2.495 0c.146.116.31.214.486.287l-.237.237v1.411h3.407l3.08-3.08V8.08z" fill="#F4F4F4"/><path d="M4.49 8.493a.998.998 0 1 0 1.996 0 .998.998 0 0 0-1.996 0zm2.495 0a.998.998 0 1 0 1.996 0 .998.998 0 0 0-1.996 0zm2.495 0a.998.998 0 1 0 1.995 0 .998.998 0 0 0-1.995 0zM5.488 5.998H3.492L.997 8.493l2.495 2.495h1.996L2.993 8.493m7.485-2.495h1.995l2.495 2.495-2.495 2.495h-1.995l2.494-2.495-2.494-2.495z" fill="#00A99D"/></g></svg>