<svg ti:v="1" width="32" height="32" viewBox="0 0 32 32" xmlns="http://www.w3.org/2000/svg" xmlns:ti="urn:schemas-jetbrains-com:tisvg"><rect id="frame" width="32" height="32" fill="none"/><g fill-rule="evenodd"><path d="M32 16.172L25.828 10H19v2.828l.475.475a4.023 4.023 0 0 0-.975.576A3.989 3.989 0 0 0 16 13c-.945 0-1.814.33-2.5.879a4.023 4.023 0 0 0-.975-.576l.475-.475V10H6.172L0 16.172v1.656L6.172 24H13v-2.828l-.475-.475a3.99 3.99 0 0 0 .975-.576A3.989 3.989 0 0 0 16 21c.945 0 1.814-.33 2.5-.879.293.235.621.43.975.576l-.475.475V24h6.828L32 17.828v-1.656z" fill="#F4F4F4"/><path d="M9 17a2 2 0 1 0 3.999-.001A2 2 0 0 0 9 17zm5 0a2 2 0 1 0 3.999-.001A2 2 0 0 0 14 17zm5 0a2 2 0 1 0 3.999-.001A2 2 0 0 0 19 17zm-8-5H7l-5 5 5 5h4l-5-5m15-5h4l5 5-5 5h-4l5-5-5-5z" fill="#00A99D"/></g></svg>