<svg width="48" height="48" viewBox="0 0 48 48" fill="none" xmlns="http://www.w3.org/2000/svg"><rect id="frame" width="48" height="48" fill="none"/><path d="M44.95 7.45L48 27.1l-5.65 3.3 2.6-22.95z" fill="url(#paint0_linear)"/><path d="M44.95 7.45L27.75 0l-4.8 4 22 3.45z" fill="url(#paint1_linear)"/><path d="M32.45 48L5.75 26.75.4 42.85 32.45 48z" fill="url(#paint2_linear)"/><path d="M36.15 34.6L0 22.15 32.45 48l3.7-13.4z" fill="url(#paint3_linear)"/><path d="M0 .35v21.8l41.65 14.3 3.3-29L0 .35z" fill="url(#paint4_linear)"/><path d="M39 9H9v30h30V9z" fill="url(#paint5_linear)"/><path d="M23.25 34H12v1.929h11.25V34z" fill="#fff"/><path d="M24 17.907c0-3.361 2.604-6.107 6.155-6.107 2.13 0 3.361.568 4.592 1.61l-1.61 1.988c-.9-.757-1.704-1.184-3.077-1.184-1.894 0-3.361 1.658-3.361 3.646v.047c0 2.13 1.467 3.693 3.55 3.693.947 0 1.752-.237 2.415-.71v-1.657H30.06v-2.225h5.066v5.066c-1.136 1.041-2.793 1.846-4.924 1.846-3.693 0-6.202-2.557-6.202-6.013z" fill="#fff"/><path d="M12 12.5h4.393c3.536 0 5.893 2.464 5.893 5.571 0 3.108-2.465 5.572-5.893 5.572L12 23.75V12.5zm2.464 2.25v6.75h1.929c2.036 0 3.321-1.393 3.321-3.321 0-1.929-1.393-3.322-3.321-3.322l-1.929-.107z" fill="#fff"/><defs><linearGradient id="paint0_linear" x1="43.943" y1="18.058" x2="45.347" y2="30.279" gradientUnits="userSpaceOnUse"><stop offset=".16" stop-color="#21D789"/><stop offset=".54" stop-color="#419FBC"/><stop offset="1" stop-color="#6B57FF"/></linearGradient><linearGradient id="paint1_linear" x1="31.177" y1="12.812" x2="34.727" y2="3.73" gradientUnits="userSpaceOnUse"><stop offset="0" stop-color="#6B57FF"/><stop offset=".952" stop-color="#21D789"/></linearGradient><linearGradient id="paint2_linear" x1="11.561" y1="24.233" x2="15.009" y2="39.256" gradientUnits="userSpaceOnUse"><stop offset="0" stop-color="#6B57FF"/><stop offset=".022" stop-color="#685CFB"/><stop offset=".281" stop-color="#4A91CA"/><stop offset=".506" stop-color="#34B7A7"/><stop offset=".685" stop-color="#26CE91"/><stop offset=".797" stop-color="#21D789"/></linearGradient><linearGradient id="paint3_linear" x1="2.99" y1="24.005" x2="45.051" y2="47.229" gradientUnits="userSpaceOnUse"><stop offset=".075" stop-color="#21D789"/><stop offset=".887" stop-color="#6B57FF"/></linearGradient><linearGradient id="paint4_linear" x1="3.247" y1="18.405" x2="45.518" y2="18.405" gradientUnits="userSpaceOnUse"><stop offset=".309" stop-color="#21D789"/><stop offset=".487" stop-color="#59A3B2"/><stop offset=".767" stop-color="#B74AF7"/><stop offset="1" stop-color="#FF45ED"/></linearGradient><linearGradient id="paint5_linear" x1="23.999" y1="1.707" x2="23.999" y2="28.611" gradientUnits="userSpaceOnUse"><stop offset=".084" stop-color="#878585"/><stop offset=".538"/></linearGradient></defs></svg>