<svg width="70" height="70" viewBox="0 0 70 70" fill="none" xmlns="http://www.w3.org/2000/svg"><rect id="frame" width="70" height="70" fill="none"/><path d="M65.552 10.865L70 39.52l-8.24 4.812 3.792-33.468z" fill="url(#paint0_linear)"/><path d="M65.552 10.865L40.47 0l-7 5.833 32.083 5.032z" fill="url(#paint1_linear)"/><path d="M47.323 70L8.385 39.01.583 62.49 47.323 70z" fill="url(#paint2_linear)"/><path d="M52.719 50.458L0 32.302 47.323 70l5.396-19.542z" fill="url(#paint3_linear)"/><path d="M0 .51v31.792l60.74 20.854 4.812-42.291L0 .51z" fill="url(#paint4_linear)"/><path d="M56 14H14v42h42V14z" fill="#010101"/><path d="M34.417 48.65h-15.75v2.683h15.75V48.65z" fill="#fff"/><path d="M35.8 27.224c0-4.543 3.52-8.254 8.318-8.254 2.88 0 4.543.768 6.206 2.175l-2.175 2.688c-1.216-1.024-2.303-1.6-4.159-1.6-2.56 0-4.543 2.24-4.543 4.927v.064c0 2.88 1.984 4.99 4.799 4.99 1.28 0 2.367-.32 3.263-.959v-2.24H43.99v-3.007h6.846v6.847c-1.535 1.407-3.775 2.495-6.654 2.495-4.99 0-8.382-3.455-8.382-8.126z" fill="#fff"/><path d="M18.5 19.133h6.183c5.017 0 8.4 3.355 8.4 7.75s-3.383 7.865-8.4 7.865l-6.183.115v-15.73zm3.5 3.123v9.485h2.683c2.8 0 4.784-1.851 4.784-4.627s-1.867-4.742-4.784-4.742L22 22.256z" fill="#fff"/><defs><linearGradient id="paint0_linear" x1="64.084" y1="26.335" x2="66.131" y2="44.156" gradientUnits="userSpaceOnUse"><stop offset=".16" stop-color="#21D789"/><stop offset=".54" stop-color="#419FBC"/><stop offset="1" stop-color="#6B57FF"/></linearGradient><linearGradient id="paint1_linear" x1="45.467" y1="18.684" x2="50.644" y2="5.439" gradientUnits="userSpaceOnUse"><stop offset="0" stop-color="#6B57FF"/><stop offset=".952" stop-color="#21D789"/></linearGradient><linearGradient id="paint2_linear" x1="16.86" y1="35.34" x2="21.888" y2="57.248" gradientUnits="userSpaceOnUse"><stop offset="0" stop-color="#6B57FF"/><stop offset=".022" stop-color="#685CFB"/><stop offset=".281" stop-color="#4A91CA"/><stop offset=".506" stop-color="#34B7A7"/><stop offset=".685" stop-color="#26CE91"/><stop offset=".797" stop-color="#21D789"/></linearGradient><linearGradient id="paint3_linear" x1="4.36" y1="35.008" x2="65.7" y2="68.875" gradientUnits="userSpaceOnUse"><stop offset=".075" stop-color="#21D789"/><stop offset=".887" stop-color="#6B57FF"/></linearGradient><linearGradient id="paint4_linear" x1="4.735" y1="26.84" x2="66.381" y2="26.84" gradientUnits="userSpaceOnUse"><stop offset=".309" stop-color="#21D789"/><stop offset=".487" stop-color="#59A3B2"/><stop offset=".767" stop-color="#B74AF7"/><stop offset="1" stop-color="#FF45ED"/></linearGradient></defs></svg>