<svg width="32" height="32" viewBox="0 0 32 32" fill="none" xmlns="http://www.w3.org/2000/svg"><rect id="frame" width="32" height="32" fill="none"/><path d="M29.967 4.967L32 18.067l-3.767 2.2 1.734-15.3z" fill="url(#paint0_linear)"/><path d="M29.967 4.967L18.5 0l-3.2 2.667 14.667 2.3z" fill="url(#paint1_linear)"/><path d="M21.633 32l-17.8-14.167L.267 28.567 21.633 32z" fill="url(#paint2_linear)"/><path d="M24.1 23.067L0 14.767 21.633 32l2.467-8.933z" fill="url(#paint3_linear)"/><path d="M0 .233v14.534L27.767 24.3l2.2-19.333L0 .233z" fill="url(#paint4_linear)"/><path d="M26 6H6v20h20V6z" fill="url(#paint5_linear)"/><path d="M16 23H8v1h8v-1z" fill="#fff"/><path d="M16 12.117C16 9.85 17.755 8 20.149 8c1.436 0 2.266.383 3.095 1.085l-1.085 1.34c-.606-.51-1.148-.797-2.074-.797-1.277 0-2.266 1.117-2.266 2.457v.032c0 1.436.99 2.49 2.394 2.49.638 0 1.18-.16 1.627-.48V13.01h-1.755v-1.5H23.5v3.415c-.766.702-1.883 1.245-3.32 1.245-2.489 0-4.18-1.723-4.18-4.053z" fill="#fff"/><path d="M8 8.12h2.97c2.4 0 4.114 1.714 4.114 3.885s-1.714 3.885-4.113 3.885H8V8.12zm1.714 1.714v4.57h1.371c1.371 0 2.285-.914 2.285-2.285 0-1.37-.914-2.285-2.285-2.285H9.714z" fill="#fff"/><defs><linearGradient id="paint0_linear" x1="29.296" y1="12.039" x2="30.231" y2="20.186" gradientUnits="userSpaceOnUse"><stop offset=".16" stop-color="#21D789"/><stop offset=".54" stop-color="#419FBC"/><stop offset="1" stop-color="#6B57FF"/></linearGradient><linearGradient id="paint1_linear" x1="20.785" y1="8.541" x2="23.152" y2="2.486" gradientUnits="userSpaceOnUse"><stop offset="0" stop-color="#6B57FF"/><stop offset=".952" stop-color="#21D789"/></linearGradient><linearGradient id="paint2_linear" x1="7.707" y1="16.155" x2="10.006" y2="26.17" gradientUnits="userSpaceOnUse"><stop offset="0" stop-color="#6B57FF"/><stop offset=".022" stop-color="#685CFB"/><stop offset=".281" stop-color="#4A91CA"/><stop offset=".506" stop-color="#34B7A7"/><stop offset=".685" stop-color="#26CE91"/><stop offset=".797" stop-color="#21D789"/></linearGradient><linearGradient id="paint3_linear" x1="1.993" y1="16.004" x2="30.034" y2="31.486" gradientUnits="userSpaceOnUse"><stop offset=".075" stop-color="#21D789"/><stop offset=".887" stop-color="#6B57FF"/></linearGradient><linearGradient id="paint4_linear" x1="2.164" y1="12.27" x2="30.346" y2="12.27" gradientUnits="userSpaceOnUse"><stop offset=".309" stop-color="#21D789"/><stop offset=".487" stop-color="#59A3B2"/><stop offset=".767" stop-color="#B74AF7"/><stop offset="1" stop-color="#FF45ED"/></linearGradient><linearGradient id="paint5_linear" x1="15.973" y1="1.139" x2="15.973" y2="19.075" gradientUnits="userSpaceOnUse"><stop offset=".084" stop-color="#878585"/><stop offset=".538"/></linearGradient></defs></svg>