<svg width="128" height="128" viewBox="0 0 128 128" fill="none" xmlns="http://www.w3.org/2000/svg"><rect id="frame" width="128" height="128" fill="none"/><path d="M119.867 19.867l8.133 52.4-15.067 8.8 6.934-61.2z" fill="url(#paint0_linear)"/><path d="M119.867 19.867L74 0 61.2 10.667l58.667 9.2z" fill="url(#paint1_linear)"/><path d="M86.533 128l-71.2-56.667-14.266 42.934L86.533 128z" fill="url(#paint2_linear)"/><path d="M96.4 92.267L0 59.067 86.533 128 96.4 92.267z" fill="url(#paint3_linear)"/><path d="M0 .933v58.134L111.067 97.2l8.8-77.333L0 .933z" fill="url(#paint4_linear)"/><path d="M103 25H25v78h78V25z" fill="url(#paint5_linear)"/><path d="M62.7 89.567H33.667v4.767H62.7v-4.767z" fill="#fff"/><path d="M64.5 49.559c0-8.437 6.535-15.329 15.448-15.329 5.347 0 8.437 1.426 11.526 4.04l-4.04 4.99c-2.258-1.9-4.278-2.97-7.724-2.97-4.753 0-8.437 4.16-8.437 9.15v.119c0 5.347 3.684 9.268 8.912 9.268 2.377 0 4.397-.594 6.06-1.782v-4.159H79.71v-5.585h12.715v12.715c-2.852 2.614-7.011 4.634-12.358 4.634-9.27 0-15.567-6.417-15.567-15.091z" fill="#fff"/><path d="M33.5 34.53h11.404c9.252 0 15.492 6.24 15.492 14.416 0 8.177-6.24 14.632-15.492 14.632l-11.404.215V34.53zm6.455 6.025v17.429h4.95c5.163 0 8.821-3.443 8.821-8.607s-3.443-8.822-8.822-8.822h-4.949z" fill="#fff"/><defs><linearGradient id="paint0_linear" x1="117.183" y1="48.156" x2="120.926" y2="80.743" gradientUnits="userSpaceOnUse"><stop offset=".16" stop-color="#21D789"/><stop offset=".54" stop-color="#419FBC"/><stop offset="1" stop-color="#6B57FF"/></linearGradient><linearGradient id="paint1_linear" x1="83.139" y1="34.166" x2="92.606" y2="9.946" gradientUnits="userSpaceOnUse"><stop offset="0" stop-color="#6B57FF"/><stop offset=".952" stop-color="#21D789"/></linearGradient><linearGradient id="paint2_linear" x1="30.829" y1="64.621" x2="40.023" y2="104.682" gradientUnits="userSpaceOnUse"><stop offset="0" stop-color="#6B57FF"/><stop offset=".022" stop-color="#685CFB"/><stop offset=".281" stop-color="#4A91CA"/><stop offset=".506" stop-color="#34B7A7"/><stop offset=".685" stop-color="#26CE91"/><stop offset=".797" stop-color="#21D789"/></linearGradient><linearGradient id="paint3_linear" x1="7.973" y1="64.014" x2="120.137" y2="125.943" gradientUnits="userSpaceOnUse"><stop offset=".075" stop-color="#21D789"/><stop offset=".887" stop-color="#6B57FF"/></linearGradient><linearGradient id="paint4_linear" x1="8.658" y1="49.08" x2="121.382" y2="49.08" gradientUnits="userSpaceOnUse"><stop offset=".309" stop-color="#21D789"/><stop offset=".487" stop-color="#59A3B2"/><stop offset=".767" stop-color="#B74AF7"/><stop offset="1" stop-color="#FF45ED"/></linearGradient><linearGradient id="paint5_linear" x1="63.896" y1="6.042" x2="63.896" y2="75.993" gradientUnits="userSpaceOnUse"><stop offset=".084" stop-color="#878585"/><stop offset=".538"/></linearGradient></defs></svg>