<svg xmlns="http://www.w3.org/2000/svg" width="16" height="16" viewBox="0 0 16 16">
  <path fill="#9AA7B0" fill-opacity=".8" fill-rule="evenodd" d="M3,14 L3,12 L4,12 L4,9.57142857 L6.4,8 L4,6.42857143 L4,4 L3,4 L3,2 L13,2 L13,4 L12,4 L12,6.42857143 L9.6,8 L12,9.57142857 L12,12 L13,12 L13,14 L3,14 Z M8,9 L6.45211617,10.0137542 C6.16998878,10.1985276 6,10.5130593 6,10.8503086 L6,12 L10,12 L10,10.8503086 C10,10.5130593 9.83001122,10.1985276 9.54788383,10.0137542 L8,9 Z M10,4 L6,4 L6,5.14969142 C6,5.48694071 6.16998878,5.80147241 6.45211617,5.98624584 L8,7 L9.54788383,5.98624584 C9.83001122,5.80147241 10,5.48694071 10,5.14969142 L10,4 Z"/>
</svg>
