<svg xmlns="http://www.w3.org/2000/svg" width="16" height="16" viewBox="0 0 16 16">
  <path fill="#40B6E0" fill-opacity=".7" fill-rule="evenodd" d="M13.0703,9.0137 L14.6623,10.1557 C14.3553,11.1037 13.8523,11.9617 13.2013,12.6847 L11.4163,11.8797 C10.9083,12.3267 10.3113,12.6767 9.6553,12.8987 L9.4613,14.8477 C8.9903,14.9477 8.5013,14.9997 8.0003,14.9997 C7.4993,14.9997 7.0093,14.9477 6.5393,14.8477 L6.3443,12.8987 C5.6883,12.6767 5.0913,12.3267 4.5843,11.8797 L2.7993,12.6847 C2.1473,11.9617 1.6443,11.1037 1.3383,10.1557 L2.9293,9.0137 C2.8653,8.6857 2.8313,8.3467 2.8313,7.9997 C2.8313,7.6537 2.8653,7.3147 2.9293,6.9867 L1.3383,5.8447 C1.6443,4.8967 2.1473,4.0377 2.7993,3.3157 L4.5843,4.1197 C5.0913,3.6727 5.6883,3.3237 6.3443,3.1017 L6.5393,1.1527 C7.0093,1.0527 7.4993,0.9997 8.0003,0.9997 C8.5013,0.9997 8.9903,1.0527 9.4613,1.1527 L9.6553,3.1017 C10.3113,3.3237 10.9083,3.6727 11.4163,4.1197 L13.2013,3.3157 C13.8523,4.0377 14.3553,4.8967 14.6623,5.8447 L13.0703,6.9867 C13.1343,7.3147 13.1693,7.6537 13.1693,7.9997 C13.1693,8.3467 13.1343,8.6857 13.0703,9.0137 M8.0003,10.4777 C9.3683,10.4777 10.4763,9.3677 10.4763,7.9997 C10.4763,6.6317 9.3683,5.5237 8.0003,5.5237 C6.6323,5.5237 5.5233,6.6317 5.5233,7.9997 C5.5233,9.3677 6.6323,10.4777 8.0003,10.4777"/>
</svg>
