<svg xmlns="http://www.w3.org/2000/svg" width="16" height="16" viewBox="0 0 16 16">
  <g fill="none" fill-rule="evenodd" transform="translate(1 1)">
    <path fill="#40B6E0" fill-opacity=".7" d="M12.6211,9.7236 L13.7591,10.5396 C13.5401,11.2166 13.1811,11.8296 12.7151,12.3466 L11.4401,11.7716 C11.0771,12.0906 10.6511,12.3406 10.1831,12.4986 L10.0441,13.8906 C9.7071,13.9616 9.3581,13.9996 9.0001,13.9996 C8.6421,13.9996 8.2931,13.9616 7.9561,13.8906 L7.8171,12.4986 C7.3491,12.3406 6.9231,12.0906 6.5591,11.7716 L5.2851,12.3466 C4.8191,11.8296 4.4601,11.2166 4.2411,10.5396 L5.3791,9.7236 C5.3321,9.4896 5.3081,9.2476 5.3081,8.9996 C5.3081,8.7516 5.3321,8.5106 5.3791,8.2766 L4.2411,7.4596 C4.4601,6.7836 4.8191,6.1696 5.2851,5.6536 L6.5591,6.2286 C6.9231,5.9096 7.3491,5.6596 7.8171,5.5006 L7.9561,4.1096 C8.2931,4.0376 8.6421,3.9996 9.0001,3.9996 C9.3581,3.9996 9.7071,4.0376 10.0441,4.1096 L10.1831,5.5006 C10.6511,5.6596 11.0771,5.9096 11.4401,6.2286 L12.7151,5.6536 C13.1811,6.1696 13.5401,6.7836 13.7591,7.4596 L12.6211,8.2766 C12.6681,8.5106 12.6921,8.7516 12.6921,8.9996 C12.6921,9.2476 12.6681,9.4896 12.6211,9.7236 M9.0001,10.7696 C9.9771,10.7696 10.7691,9.9776 10.7691,8.9996 C10.7691,8.0226 9.9771,7.2306 9.0001,7.2306 C8.0221,7.2306 7.2301,8.0226 7.2301,8.9996 C7.2301,9.9776 8.0221,10.7696 9.0001,10.7696"/>
    <path fill="#9AA7B0" fill-opacity=".8" d="M3.6992,6.1914 C3.4112,5.8774 3.2302,5.4614 3.2302,5.0004 C3.2302,4.0234 4.0232,3.2304 5.0002,3.2304 C5.4612,3.2304 5.8762,3.4114 6.1912,3.6994 C7.0292,3.2534 7.9842,3.0004 9.0002,3.0004 C9.1912,3.0004 9.3802,3.0114 9.5662,3.0294 C9.3482,2.5274 9.0762,2.0544 8.7152,1.6534 L7.4392,2.2284 C7.0772,1.9094 6.6502,1.6594 6.1822,1.5014 L6.0442,0.1094 C5.7072,0.0374 5.3572,0.0004 5.0002,0.0004 C4.6422,0.0004 4.2932,0.0374 3.9562,0.1094 L3.8172,1.5014 C3.3492,1.6594 2.9232,1.9094 2.5602,2.2284 L1.2852,1.6534 C0.8192,2.1704 0.4612,2.7834 0.2412,3.4614 L1.3792,4.2764 C1.3322,4.5094 1.3072,4.7524 1.3072,5.0004 C1.3072,5.2484 1.3322,5.4904 1.3792,5.7234 L0.2412,6.5394 C0.4612,7.2164 0.8192,7.8304 1.2852,8.3454 L2.5602,7.7714 C2.7172,7.9094 2.8902,8.0274 3.0682,8.1374 C3.1692,7.4434 3.3832,6.7874 3.6992,6.1914"/>
  </g>
</svg>
