<svg ti:v="1" width="16" height="16" viewBox="0 0 16 16" xmlns="http://www.w3.org/2000/svg" xmlns:ti="urn:schemas-jetbrains-com:tisvg"><rect id="frame" width="16" height="16" fill="none"/><g fill-rule="evenodd"><path d="M6 2h-.414L0 7.586v.828L5.586 14H6m4-12h.414L16 7.586v.828L10.414 14H10V2z" fill="#F4F4F4"/><path d="M11 4v2l2 2-2 2v2l4-4M5 12L1 8l4-4v2L3 8l2 2v2z" fill="#313131"/><path d="M4.76 15L7.795 1h3.445L8.205 15H4.76z" fill="#F4F4F4"/><path d="M7.398 14H6L8.601 2h1.4L7.397 14z" fill="#313131"/></g></svg>