<svg width="16" height="16" viewBox="0 0 16 16" fill="none" xmlns="http://www.w3.org/2000/svg"><rect id="frame" width="16" height="16" fill="none"/><path d="M12.123 2.677c-.34-.34-.753-.51-1.24-.51-.485 0-.899.17-1.239.51-.34.34-.51.754-.51 1.24 0 .316.078.609.236.88.158.27.37.48.638.633 0 .316-.025.594-.077.834a1.88 1.88 0 0 1-.255.633 2.867 2.867 0 0 1-.37.465 1.992 1.992 0 0 1-.537.36c-.231.112-.445.207-.643.283a13.21 13.21 0 0 1-.797.268c-.608.189-1.076.362-1.404.52v-4.53c.267-.152.48-.363.638-.633.158-.27.237-.564.237-.88 0-.486-.17-.9-.51-1.24C5.95 1.17 5.536 1 5.05 1s-.9.17-1.24.51c-.34.34-.51.754-.51 1.24 0 .316.079.61.237.88.158.27.37.481.638.633v7.474a1.7 1.7 0 0 0-.638.633c-.158.271-.237.564-.237.88 0 .486.17.9.51 1.24.34.34.754.51 1.24.51s.9-.17 1.24-.51c.34-.34.51-.754.51-1.24 0-.316-.079-.609-.237-.88a1.701 1.701 0 0 0-.638-.633V11.5c0-.42.126-.723.378-.911.252-.189.767-.404 1.545-.647.82-.262 1.438-.508 1.85-.739 1.362-.771 2.048-2.03 2.06-3.773a1.7 1.7 0 0 0 .639-.634c.157-.27.236-.563.236-.88 0-.485-.17-.899-.51-1.239z" fill="#AFB1B3"/></svg>