<svg width="24" height="24" viewBox="0 0 24 24" fill="none" xmlns="http://www.w3.org/2000/svg"><rect id="frame" width="24" height="24" fill="none"/><path d="M17.905 4.396a2.412 2.412 0 0 0-1.771-.73 2.41 2.41 0 0 0-1.771.73 2.41 2.41 0 0 0-.73 1.77c0 .452.113.871.339 1.257.226.387.53.688.912.905 0 .452-.037.849-.11 1.192a2.683 2.683 0 0 1-.365.905c-.17.26-.346.481-.528.664-.182.182-.438.353-.768.514-.33.16-.636.295-.918.404-.282.108-.662.236-1.14.384-.868.269-1.536.516-2.005.742V6.66a2.43 2.43 0 0 0 .911-.905c.226-.386.339-.805.339-1.256a2.41 2.41 0 0 0-.73-1.77A2.41 2.41 0 0 0 7.8 2a2.41 2.41 0 0 0-1.77.73A2.411 2.411 0 0 0 5.3 4.5c0 .451.113.87.338 1.256.226.387.53.688.912.905V17.34a2.43 2.43 0 0 0-.912.905A2.45 2.45 0 0 0 5.3 19.5c0 .695.243 1.285.73 1.77.485.487 1.076.73 1.77.73.695 0 1.285-.243 1.77-.73a2.41 2.41 0 0 0 .73-1.77c0-.451-.113-.87-.339-1.256a2.431 2.431 0 0 0-.911-.905V17c0-.599.18-1.033.54-1.302.36-.27 1.096-.577 2.207-.924 1.173-.374 2.054-.725 2.644-1.055 1.944-1.102 2.925-2.9 2.943-5.39.382-.218.685-.52.911-.906a2.45 2.45 0 0 0 .339-1.256 2.41 2.41 0 0 0-.73-1.771z" fill="#6E6E6E"/></svg>