<svg xmlns="http://www.w3.org/2000/svg" width="16" height="16" viewBox="0 0 16 16">
  <g fill="none" fill-rule="evenodd">
    <g fill-rule="nonzero" transform="translate(7 7)">
      <polygon fill="#114252" points="6.004 6.404 8.654 6.404 7.309 5.138 5.688 4.901"/>
      <path fill="#B2D8E4" stroke="#3784A3" stroke-width=".2" d="M8.36862056,6.15244383 L7.32490633,4.4625444 L6.06774794,4.56884351 L6.04776725,4.88396992 L6.38984557,5.27497837 L8.36862056,6.15244383 Z"/>
      <path fill="#86C2D7" stroke="#3784A3" stroke-width=".2" d="M7.11142032,4.97320746 L8.76837114,3.08204076 L7.37770711,2.61316433 L5.66768604,3.79568219 L7.11142032,4.97320746 Z"/>
      <path fill="#8FC7DB" stroke="#3784A3" stroke-width=".2" d="M7.52474323,1.73049771 L5.67969244,1.56514845 L4.55783992,2.12329039 L4.54907131,2.99029098 L4.90316853,3.26746377 L5.21708908,3.69499443 L7.52474323,1.73049771 Z"/>
      <path fill="#B2D8E4" stroke="#3784A3" stroke-width=".2" d="M7.66999974,3.78126048 L7.66999974,1.86650836 L5.32415502,3.86424407 L5.63500092,4.49003153 L6.43452143,4.50370693 L7.66999974,3.78126048 Z"/>
      <path fill="#7DBED4" stroke="#3784A3" stroke-width=".2" d="M5.13877678,0.253894978 L3.80768746,1.77773234 L4.86118155,3.3581054 L5.85823873,2.80797619 L5.13877678,0.253894978 Z"/>
      <polygon fill="#114252" points=".608 2.076 1.755 4.41 3.139 4.172 3.139 3.243"/>
      <path fill="#B2D8E4" stroke="#3784A3" stroke-width=".2" d="M3.00458736,2.19087234 L1.12296002,2.19087234 L3.16719465,3.13319353 L3.70650097,2.41941706 L3.00458736,2.19087234 Z"/>
      <polygon fill="#00121F" points="3.207 6.786 4.016 8.163 5.027 6.786 3.84 6.16"/>
      <path fill="#B2D8E4" stroke="#3784A3" stroke-width=".2" d="M1.81612197,6.63031638 L3.6596647,6.79576133 L4.78070056,6.23753286 L4.78945033,5.37057092 L4.43561524,5.09330688 L4.12198226,4.66586035 L1.81612197,6.63031638 Z"/>
      <path fill="#78BAD1" stroke="#3784A3" stroke-width=".2" d="M0.223871183,5.31532395 L2.06414086,5.82839946 L3.08938638,4.58340782 L2.76963068,3.92441384 L1.9935256,3.3108347 L0.223871183,5.31532395 Z"/>
      <path fill="#8FC7DB" stroke="#3784A3" stroke-width=".2" d="M1.68189362,4.58753323 L1.68189362,6.50232439 L4.02857195,4.50453213 L3.71767021,3.87865958 L2.91783114,3.86498938 L1.68189362,4.58753323 Z"/>
      <path fill="#81C0D6" stroke="#479BBB" stroke-width=".2" d="M4.20529747,8.47277524 L6.0370058,6.51228407 L6.23618544,5.67899226 L4.88231846,4.98537372 L3.48187812,5.86848311 L4.20529747,8.47277524 Z"/>
      <path fill="#81C0D6" stroke="#479BBB" stroke-width=".2" d="M7.02257525,6.89789972 L6.78804845,5.47318983 L6.64065992,3.94744719 L4.37768085,4.53391958 L4.37768085,6.31425675 L7.02257525,6.89789972 Z"/>
      <path fill="#B2D8E4" stroke="#3784A3" stroke-width=".2" d="M2.23221172,1.21234945 L3.27598091,4.25216209 L4.92678723,4.07268696 L4.92678723,1.79099675 L2.23221172,1.21234945 Z"/>
      <path fill="#48A2C3" stroke="#3787A6" stroke-width=".2" d="M6.79331521,3.37146627 L3.71241738,3.0471375 L3.59118085,4.07246164 L4.42004612,4.64681851 L6.78459726,4.11038994 L6.79331521,3.37146627 Z"/>
      <path fill="#0C3A49" stroke="#00121F" stroke-width=".2" d="M5.57332845,5.68827013 L6.71653912,4.24028244 L4.21179487,3.19981195 L4.49098613,4.72627728 L5.57332845,5.68827013 Z"/>
      <path fill="#B2D8E4" stroke="#3784A3" stroke-width=".2" d="M3.76432206,2.45691926 L2.96071238,3.87708436 L4.73149556,4.63722169 L4.13596464,3.81139525 L4.13024845,3.70329333 L4.43746431,3.16562285 L3.76432206,2.45691926 Z"/>
      <polygon fill="#2F7089" points="2.436 4.936 2.797 3.928 5.064 4.896"/>
    </g>
    <path fill="#9AA7B0" fill-opacity=".8" fill-rule="nonzero" d="M10.5,13 L1,13 L1,2.05128 C1,2.02295884 1.02295884,2 1.05128,2 L4.97888,2 C5.61570121,2.03457993 6.22161957,2.28559443 6.69633,2.71149 L7.98457,4 L15,4 L15,13 L10.5,13 L15,13 L15,6 L6,6 L6,13 L10.5,13 Z"/>
  </g>
</svg>
