<svg xmlns="http://www.w3.org/2000/svg" width="16" height="16" viewBox="0 0 16 16"><rect id="frame" width="16" height="16" fill="none"/><g fill="none" fill-rule="nonzero"><path fill="#114252" d="M13.004 13.404h2.65l-1.345-1.266-1.621-.237z"/><path fill="#B2D8E4" stroke="#3784A3" stroke-width=".2" d="M15.369 13.152l-1.044-1.69-1.257.107-.02.315.342.391 1.979.877z"/><path fill="#86C2D7" stroke="#3784A3" stroke-width=".2" d="M14.111 11.973l1.657-1.891-1.39-.469-1.71 1.183 1.443 1.177z"/><path fill="#8FC7DB" stroke="#3784A3" stroke-width=".2" d="M14.525 8.73l-1.845-.165-1.122.558-.009.867.354.277.314.428 2.308-1.965z"/><path fill="#B2D8E4" stroke="#3784A3" stroke-width=".2" d="M14.67 10.781V8.867l-2.346 1.997.311.626.8.014 1.235-.723z"/><path fill="#7DBED4" stroke="#3784A3" stroke-width=".2" d="M12.139 7.254l-1.331 1.524 1.053 1.58.997-.55-.72-2.554z"/><path fill="#114252" d="M7.608 9.076l1.147 2.334 1.384-.238v-.929z"/><path fill="#B2D8E4" stroke="#3784A3" stroke-width=".2" d="M10.005 9.19H8.123l2.044.943.54-.714-.702-.228z"/><path fill="#00121F" d="M10.207 13.786l.809 1.377 1.011-1.377-1.187-.626z"/><path fill="#B2D8E4" stroke="#3784A3" stroke-width=".2" d="M8.816 13.63l1.844.166 1.12-.558.01-.867-.354-.278-.314-.427-2.306 1.964z"/><path fill="#78BAD1" stroke="#3784A3" stroke-width=".2" d="M7.224 12.315l1.84.513 1.025-1.245-.32-.659-.775-.613-1.77 2.004z"/><path fill="#8FC7DB" stroke="#3784A3" stroke-width=".2" d="M8.682 11.588v1.914l2.347-1.997-.311-.626-.8-.014-1.236.723z"/><path fill="#81C0D6" stroke="#479BBB" stroke-width=".2" d="M11.205 15.473l1.832-1.96.2-.834-1.355-.694-1.4.883.723 2.605z"/><path fill="#81C0D6" stroke="#479BBB" stroke-width=".2" d="M14.023 13.898l-.235-1.425-.147-1.526-2.263.587v1.78l2.645.584z"/><path fill="#B2D8E4" stroke="#3784A3" stroke-width=".2" d="M9.232 8.212l1.044 3.04 1.65-.18V8.792l-2.694-.579z"/><path fill="#48A2C3" stroke="#3787A6" stroke-width=".2" d="M13.793 10.371l-3.08-.324-.122 1.025.829.575 2.365-.537.008-.739z"/><path fill="#0C3A49" stroke="#00121F" stroke-width=".2" d="M12.573 12.688l1.144-1.448-2.505-1.04.279 1.526 1.082.962z"/><path fill="#B2D8E4" stroke="#3784A3" stroke-width=".2" d="M10.764 9.457l-.803 1.42 1.77.76-.595-.826-.006-.108.307-.537-.673-.71z"/><path fill="#2F7089" d="M9.436 11.936l.361-1.008 2.267.968z"/><path fill="#9AA7B0" fill-opacity=".8" d="M10.5 13H1V2.051C1 2.023 1.023 2 1.051 2H4.98a2.8 2.8 0 0 1 1.717.711L7.985 4H15v9h-4.5H15V6H6v7h4.5z"/></g></svg>