<svg xmlns="http://www.w3.org/2000/svg" width="16" height="16" viewBox="0 0 16 16"><rect id="frame" width="16" height="16" fill="none"/><g fill="none"><path fill="#114252" d="M10.34 11.261h4.122L12.37 9.293l-2.522-.37z"/><path fill="#B2D8E4" stroke="#3784A3" stroke-width=".2" d="M14.414 11.216l-1.938-3.137-2.184.184v.739l.585.646z"/><path fill="#86C2D7" stroke="#3784A3" stroke-width=".2" d="M12.08 9.252l2.83-3.231-2.522-.784-2.83 1.957z"/><path fill="#8FC7DB" stroke="#3784A3" stroke-width=".2" d="M13.088 3.87l-3.322-.275-1.83.911.046 1.569.52.4.587.8z"/><path fill="#B2D8E4" stroke="#3784A3" stroke-width=".2" d="M13.118 7.3V3.895L9.119 7.3l.677 1.168h1.323z"/><path fill="#7DBED4" stroke="#3784A3" stroke-width=".2" d="M9.065 1.376l1.231 4.369-1.784.984-1.784-2.676z"/><path fill="#114252" d="M1.946 4.529l1.784 3.63 2.154-.369V6.344z"/><path fill="#B2D8E4" stroke="#3784A3" stroke-width=".2" d="M5.698 4.552h-3.66l3.937 1.816 1.046-1.385z"/><path fill="#00121F" d="M5.989 11.856l1.257 2.142 1.573-2.142-1.845-.974z"/><path fill="#B2D8E4" stroke="#3784A3" stroke-width=".2" d="M3.486 11.775l3.322.275 1.831-.911-.046-1.568-.521-.4-.587-.8z"/><path fill="#78BAD1" stroke="#3784A3" stroke-width=".2" d="M1.067 9.651l3.2.892 1.722-2.091-.584-1.169-1.323-1.046z"/><path fill="#8FC7DB" stroke="#3784A3" stroke-width=".2" d="M3.461 8.347v3.404L7.46 8.347l-.677-1.169H5.46z"/><path fill="#81C0D6" stroke="#479BBB" stroke-width=".2" d="M7.466 14.789l-1.231-4.43 2.277-1.436 2.368 1.128-.338 1.415z"/><path fill="#81C0D6" stroke="#479BBB" stroke-width=".2" d="M12.115 12.231l-4.461-.984V8.232l3.813-.988.247 2.555z"/><path fill="#B2D8E4" stroke="#3784A3" stroke-width=".2" d="M4.236 2.976l4.583.984v3.815l-2.83.308z"/><path fill="#48A2C3" stroke="#3787A6" stroke-width=".2" d="M11.725 6.405l-.017 1.413-3.798.862-1.489-.971.217-1.84z"/><path fill="#0C3A49" stroke="#00121F" stroke-width=".2" d="M9.69 10.374l2.007-2.543-4.35-1.807.536 2.744z"/><path fill="#B2D8E4" stroke="#3784A3" stroke-width=".2" d="M6.824 4.862L5.385 7.405l3.43 1.473-1.255-1.74.535-.937z"/><path fill="#2F7089" d="M4.789 8.978l.563-1.568 3.525 1.506z"/></g></svg>