<svg xmlns="http://www.w3.org/2000/svg" width="16" height="16" viewBox="0 0 16 16">
  <g fill="none" fill-rule="evenodd">
    <path fill="#AFB1B3" d="M9.99346958,4.16280037 L8.16280037,5.99346958 C8.10910443,5.99779524 8.05480969,6 8,6 C6.8954305,6 6,5.1045695 6,4 C6,2.8954305 6.8954305,2 8,2 C9.1045695,2 10,2.8954305 10,4 C10,4.05480969 9.99779524,4.10910443 9.99346958,4.16280037 Z M9.03613967,9.36277097 L11.862771,6.53613967 C12.2548118,6.9012694 12.5,7.42200132 12.5,8 C12.5,9.1045695 11.6045695,10 10.5,10 C9.92200132,10 9.4012694,9.75481185 9.03613967,9.36277097 Z M4.45231197,9.70395798 C3.88090733,9.35187767 3.5,8.72042167 3.5,8 C3.5,6.8954305 4.3954305,6 5.5,6 C6.22042167,6 6.85187767,6.38090733 7.20395798,6.95231197 L4.45231197,9.70395798 Z M6.03333475,12.3655759 L8.36557589,10.0333348 C9.29556796,10.2051129 10,11.020292 10,12 C10,13.1045695 9.1045695,14 8,14 C7.020292,14 6.20511292,13.295568 6.03333475,12.3655759 Z M1.22800778,12.9282622 C1.08238712,12.650853 1,12.3350478 1,12 C1,10.8954305 1.8954305,10 3,10 C3.33504779,10 3.65085304,10.0823871 3.92826218,10.2280078 L1.22800778,12.9282622 Z"/>
    <rect width="1.6" height="17" x="7.839" y=".256" fill="#AFB1B3" transform="rotate(45 8.639 8.756)"/>
    <circle cx="13" cy="12" r="2" fill="#AFB1B3"/>
  </g>
</svg>
