<svg xmlns="http://www.w3.org/2000/svg" width="16" height="16" viewBox="0 0 16 16"><rect id="frame" width="16" height="16" fill="none"/><g fill="#AFB1B3" fill-rule="evenodd"><path d="M9.993 4.163l-1.83 1.83a2 2 0 1 1 1.83-1.83zm-.957 5.2l2.827-2.827a2 2 0 1 1-2.827 2.827zm-4.584.341A1.999 1.999 0 0 1 5.5 6c.72 0 1.352.38 1.704.952L4.452 9.704zm1.581 2.662l2.333-2.333a2 2 0 1 1-2.333 2.333zm-4.805.562a2 2 0 0 1 2.7-2.7l-2.7 2.7z"/><path d="M14.084 2.18l1.131 1.131-12.02 12.021-1.132-1.131z"/><circle cx="13" cy="12" r="2"/></g></svg>