<svg xmlns="http://www.w3.org/2000/svg" width="16" height="16" viewBox="0 0 16 16">
  <g fill="none" fill-rule="evenodd">
    <g fill="#6E6E6E" transform="translate(.5 2)">
      <path d="M9.49346958,2.16280037 L7.66280037,3.99346958 C7.60910443,3.99779524 7.55480969,4 7.5,4 C6.3954305,4 5.5,3.1045695 5.5,2 C5.5,0.8954305 6.3954305,0 7.5,0 C8.6045695,0 9.5,0.8954305 9.5,2 C9.5,2.05480969 9.49779524,2.10910443 9.49346958,2.16280037 Z M8.53613967,7.36277097 L11.362771,4.53613967 C11.7548118,4.9012694 12,5.42200132 12,6 C12,7.1045695 11.1045695,8 10,8 C9.42200132,8 8.9012694,7.75481185 8.53613967,7.36277097 Z M3.95231197,7.70395798 C3.38090733,7.35187767 3,6.72042167 3,6 C3,4.8954305 3.8954305,4 5,4 C5.72042167,4 6.35187767,4.38090733 6.70395798,4.95231197 L3.95231197,7.70395798 Z M5.53333475,10.3655759 L7.86557589,8.03333475 C8.79556796,8.20511292 9.5,9.020292 9.5,10 C9.5,11.1045695 8.6045695,12 7.5,12 C6.520292,12 5.70511292,11.295568 5.53333475,10.3655759 Z M0.728007781,10.9282622 C0.582387117,10.650853 0.5,10.3350478 0.5,10 C0.5,8.8954305 1.3954305,8 2.5,8 C2.83504779,8 3.15085304,8.08238712 3.42826218,8.22800778 L0.728007781,10.9282622 Z"/>
      <rect width="1.6" height="17" x="7.339" y="-1.744" transform="rotate(45 8.139 6.756)"/>
    </g>
    <circle cx="13" cy="12" r="2" fill="#6E6E6E"/>
  </g>
</svg>
