<svg xmlns="http://www.w3.org/2000/svg" width="16" height="16" viewBox="0 0 16 16"><rect id="frame" width="16" height="16" fill="none"/><g fill="none" fill-rule="evenodd"><path fill="#DDB47E" d="M2.5 8h11c.322.306.5.644.5 1 0 .563-.446 1.082-1.2 1.5h-1.3L8 13.9l-3.5-3.4H3.2C2.446 10.082 2 9.563 2 9c0-.356.178-.694.5-1z"/><path fill="#231F20" fill-opacity=".7" d="M11.993 8c.005.055.007.11.007.166C12 9.179 11.194 10 10.2 10a1.81 1.81 0 0 1-1.77-1.5h-.86A1.81 1.81 0 0 1 5.8 10C4.806 10 4 9.179 4 8.166c0-.056.002-.111.007-.166h7.986z"/><path fill="#40B6E0" fill-opacity=".7" d="M6.575 1C7.308 1 7.61 2.543 8 2.5c.45-.05.7-1.5 1.5-1.5 1 0 1.833 1.667 2.5 5l3 2H1l3-2c.667-3.333 1.525-5 2.575-5z"/><path fill="#231F20" fill-opacity=".7" d="M4.152 5h7.697c.051.214.102.436.151.667V6H4v-.333c.05-.231.1-.453.152-.667z"/><path fill="#40B6E0" fill-opacity=".7" d="M3 10.5h1.5L8 13.9l3.5-3.4H13l-1 3 2 1.5H2l2-1.5z"/></g></svg>