<svg xmlns="http://www.w3.org/2000/svg" width="16" height="16" viewBox="0 0 16 16"><rect id="frame" width="16" height="16" fill="none"/><g fill="none" fill-rule="evenodd"><path fill="#DDB47E" d="M8 6.5v3.179l-1.5 1.457-2.75-2.672H2.728c-.592-.328-.942-.736-.942-1.178 0-.28.14-.545.392-.786H8z"/><path fill="#231F20" fill-opacity=".7" d="M8 8.053a1.429 1.429 0 0 1-1.162-1.16h-.676a1.422 1.422 0 0 1-1.39 1.178c-.782 0-1.415-.645-1.415-1.44 0-.045.002-.088.006-.131H8v1.553z"/><path fill="#40B6E0" fill-opacity=".7" d="M5.38 1c.576 0 .813 1.213 1.12 1.179.353-.04.55-1.18 1.179-1.18.785 0 1.44 1.31 1.964 3.93L12 6.5H1l2.357-1.571C3.881 2.309 4.555 1 5.381 1z"/><path fill="#231F20" fill-opacity=".7" d="M3.476 4.143h6.048c.04.235.08.48.119.733v.367H3.357v-.367c.039-.254.079-.498.12-.733z"/><path fill="#40B6E0" fill-opacity=".7" d="M8 9.679V12H1.786l1.571-1.179-.786-2.357H3.75l2.75 2.672L8 9.679z"/><path fill="#62B543" d="M9 7l7 4.5L9 16z"/></g></svg>