<svg xmlns="http://www.w3.org/2000/svg" width="16" height="16" viewBox="0 0 16 16">
  <g fill="none" fill-rule="evenodd">
    <g transform="translate(1 1)">
      <path fill="#DDB47E" d="M7,5.5 L7,8.67857143 L5.5,10.1357143 L2.75,7.46428571 L1.72822617,7.46428571 C1.13640512,7.13599051 0.785714286,6.72791661 0.785714286,6.28571429 C0.785714286,6.00635172 0.925679073,5.74061021 1.17798405,5.5 L7,5.5 Z"/>
      <path fill="#231F20" fill-opacity=".7" d="M7,7.05270261 C6.41178017,6.95529437 5.94530711,6.48812058 5.83772708,5.89285714 L5.16227292,5.89285714 C5.04108534,6.56341411 4.46447159,7.07142857 3.77142857,7.07142857 C2.99034014,7.07142857 2.35714286,6.42613683 2.35714286,5.63012913 C2.35714286,5.58626757 2.35906539,5.54286361 2.36282925,5.5 L7,5.5 L7,7.05270261 Z"/>
      <path fill="#40B6E0" fill-opacity=".7" d="M4.38059364,-6.78369036e-15 C4.95629725,-4.55912435e-15 5.19270971,1.21263027 5.5,1.17857143 C5.85336982,1.13940532 6.05,-0.000655777143 6.67857143,-0.000314285714 C7.46428571,-8.66247616e-05 8.11904762,1.30954195 8.64285714,3.92857143 L11,5.50000008 L0,5.50000008 L2.35714286,3.92857143 C2.88095238,1.30952381 3.55543598,-9.57529412e-15 4.38059364,-6.78369036e-15 Z"/>
      <path fill="#231F20" fill-opacity=".7" d="M2.47620401,3.14285714 L8.52412102,3.14285714 C8.56442038,3.37789434 8.60399909,3.62234693 8.64285714,3.87621491 L8.64285714,4.24285714 L2.35714286,4.24285714 L2.35714286,3.87621491 C2.39600073,3.62234591 2.43568778,3.37789332 2.47620401,3.14285714 Z"/>
      <path fill="#40B6E0" fill-opacity=".7" d="M7,8.67857143 L7,11 L0.785714286,11 L2.35714286,9.82142857 L1.57142857,7.46428571 L2.75,7.46428571 L5.5,10.1357143 L7,8.67857143 Z"/>
    </g>
    <polygon fill="#62B543" points="9 7 16 11.5 9 16"/>
  </g>
</svg>
