<svg xmlns="http://www.w3.org/2000/svg" width="16" height="16" viewBox="0 0 16 16"><rect id="frame" width="16" height="16" fill="none"/><g fill="none" fill-rule="evenodd"><path fill="#DDB47E" d="M13.96 8.708l-.77-.445a.698.698 0 0 0-.669 0l-3.187 1.839a.67.67 0 0 0-.334.58v2.247L8 13.9l-3.5-3.4H3.2C2.446 10.082 2 9.563 2 9c0-.356.178-.694.5-1h11c.233.221.39.459.46.708z"/><path fill="#231F20" fill-opacity=".7" d="M11.951 8.592L9.658 9.915A1.826 1.826 0 0 1 8.43 8.5h-.86A1.81 1.81 0 0 1 5.8 10C4.806 10 4 9.179 4 8.166c0-.056.002-.111.007-.166h7.986a1.893 1.893 0 0 1-.042.592z"/><path fill="#40B6E0" fill-opacity=".7" d="M6.575 1C7.308 1 7.61 2.543 8 2.5c.45-.05.7-1.5 1.5-1.5 1 0 1.833 1.667 2.5 5l3 2H1l3-2c.667-3.333 1.525-5 2.575-5z"/><path fill="#231F20" fill-opacity=".7" d="M4.152 5h7.697c.051.214.102.436.151.667V6H4v-.333c.05-.231.1-.453.152-.667z"/><path fill="#40B6E0" fill-opacity=".7" d="M9 12.929v1.427c0 .239.128.462.334.581l.108.063H2l2-1.5-1-3h1.5L8 13.9l1-.971z"/><path fill="#689F63" d="M12.74 15.77l-2.48-1.433a.524.524 0 0 1-.26-.452v-2.86c0-.186.099-.36.26-.452l2.48-1.43a.543.543 0 0 1 .522 0l2.478 1.431c.16.092.26.266.26.452v2.86c0 .185-.1.358-.26.451l-2.478 1.432a.52.52 0 0 1-.521.001z"/></g></svg>