<svg xmlns="http://www.w3.org/2000/svg" width="16" height="16">
  <circle cx="8" cy="8" r="8" fill="#dadada"/>
  <circle cx="8" cy="8" r="7" fill="#424242"/>
  <path d="M12.578,6H10.826A7.636,7.636,0,0,0,9.9,3.378,5.01,5.01,0,0,1,12.578,6ZM9.813,10H6.188C6.553,11.875,7.381,13,8,13S9.447,11.875,9.813,10Zm.139-1C9.98,8.681,10,8.35,10,8s-.02-.681-.048-1h-3.9C6.02,7.319,6,7.65,6,8s.02.681.048,1ZM6.188,6H9.813C9.447,4.125,8.619,3,8,3S6.553,4.125,6.188,6ZM3.422,6H5.175A7.649,7.649,0,0,1,6.1,3.378,5.009,5.009,0,0,0,3.422,6ZM3,8a4.988,4.988,0,0,0,.1,1H5.045C5.018,8.674,5,8.341,5,8s.018-.674.045-1H3.1A4.988,4.988,0,0,0,3,8Zm3.1,4.622A7.657,7.657,0,0,1,5.175,10H3.422A5.012,5.012,0,0,0,6.1,12.622ZM12.578,10H10.826A7.636,7.636,0,0,1,9.9,12.622,5.01,5.01,0,0,0,12.578,10ZM13,8a4.988,4.988,0,0,0-.1-1H10.955c.027.326.045.659.045,1s-.018.674-.045,1H12.9A4.988,4.988,0,0,0,13,8Z" fill="#cfcfcf"/>
</svg>
