<svg width="16" height="16" viewBox="0 0 16 16" fill="none" xmlns="http://www.w3.org/2000/svg">
<path d="M16 0H0V16H16V0Z" fill="#07C3F2"/>
<path d="M15 1H1V15H15V1Z" fill="black"/>
<path d="M9 12H3V13H9V12Z" fill="white"/>
<path d="M9.19995 8.10002L9.99995 7.20002C10.5 7.60002 11.1 7.90002 11.8 7.90002C12.3 7.90002 12.7 7.70002 12.7 7.30002C12.7 7.00002 12.5 6.80002 11.5 6.50002C10.3 6.20002 9.49995 5.90002 9.49995 4.70002C9.49995 3.60002 10.4 2.90002 11.6 2.90002C12.5 2.90002 13.2 3.20002 13.8 3.70002L13.1 4.70002C12.6 4.30002 12 4.10002 11.5 4.10002C11 4.10002 10.7 4.30002 10.7 4.60002C10.7 5.00002 11 5.10002 12 5.40002C13.3 5.70002 14 6.20002 14 7.20002C14 8.40002 13.1 9.10002 11.8 9.10002C10.9 9.10002 9.99995 8.80002 9.19995 8.10002Z" fill="white"/>
<path d="M4.79998 9L5.79998 5.5L6.69998 9H7.79998L9.49998 3H8.09998L7.29998 6.5L6.29998 3H5.29998L4.29998 6.5L3.39998 3H2.09998L3.69998 9H4.79998Z" fill="white"/>
<path fill-rule="evenodd" clip-rule="evenodd" d="M3 16H16V10H3V16Z" fill="#D99E2B"/>
<path fill-rule="evenodd" clip-rule="evenodd" d="M4 11H7V11.64H4.8V12.6H6.5V13.24H4.8V14.36H6.998V15H4V11Z" fill="black"/>
<path fill-rule="evenodd" clip-rule="evenodd" d="M14.2 12.3672C14.2 12.7632 14.0134 13.0672 13.5554 13.0672H12.8V11.6328H13.4364C13.9834 11.6328 14.16 11.8672 14.2 12.2328V12.3672ZM11.9974 11V15H12.8V13.7H13.3954C14.3114 13.7144 15.0004 13.116 15.0004 12.4336V12.268C15.0004 11.528 14.3694 11 13.5474 11H11.9974Z" fill="black"/>
<path fill-rule="evenodd" clip-rule="evenodd" d="M9.85453 11H9.14647L7.36169 15H8.12852L8.54223 14.0519H10.4212L10.835 15H11.6384L9.85453 11ZM8.86404 13.3705L9.50209 11.9083L10.1747 13.3705H8.86404Z" fill="black"/>
</svg>