<svg xmlns="http://www.w3.org/2000/svg" xmlns:xlink="http://www.w3.org/1999/xlink" width="64" height="64" viewBox="0 0 64 64">
  <defs>
    <linearGradient id="a" x1="18.309" y1="59.504" x2="57.047" y2="4.203" gradientUnits="userSpaceOnUse">
      <stop offset="0" stop-color="#c27d1b"/>
      <stop offset="1" stop-color="#59bd28"/>
    </linearGradient>
    <linearGradient id="b" x1="63.101" y1="40.24" x2="17.978" y2="56.517" gradientUnits="userSpaceOnUse">
      <stop offset="0" stop-color="#4d75f6"/>
      <stop offset="1" stop-color="#ff9e00"/>
    </linearGradient>
    <linearGradient id="c" x1="3.844" y1="8.796" x2="52.773" y2="42.529" gradientUnits="userSpaceOnUse">
      <stop offset="0" stop-color="#ff4267"/>
      <stop offset="1" stop-color="#3b67f6"/>
    </linearGradient>
  </defs>
  <g>
    <polygon points="55.313 3 8.813 43.375 18.631 59.86 41.525 56.047 61.688 12.938 55.313 3" fill="url(#a)"/>
    <polygon points="59.663 33.069 35.125 36.438 18.631 59.86 35.75 64 64 42.438 59.663 33.069" fill="url(#b)"/>
    <polygon points="59.688 33.063 32 8 9.813 0 0 15.028 7.375 31.438 46.625 44.125 59.688 33.063" fill="url(#c)"/>
  </g>
  <g>
    <rect x="6" y="11" width="52" height="42"/>
    <rect x="10" y="46" width="10" height="3" fill="#fff"/>
    <path d="M32,13v5.866h1.32a4.639,4.639,0,1,1,0,9.278H32v7.692H30.65a4.639,4.639,0,1,0,0,9.278H32V51H56V13Z" fill="#fff"/>
    <rect x="35" y="46" width="10" height="3"/>
  </g>
    <path fill-rule="evenodd" clip-rule="evenodd" d="M28 64H64V44H28V64Z" fill="#D99E2B"/>
    <path fill-rule="evenodd" clip-rule="evenodd" d="M32 60H39.5V58.101H33.8V54.9H38.8V53H33.8V49.9H39.4V48H32V60Z" fill="black"/>
    <path fill-rule="evenodd" clip-rule="evenodd" d="M44.7998 55.3L46.5998 50.5L48.4998 55.3H44.7998ZM41 60H42.9L44 57.101H49.1L50.199 60H52.199L47.5 48H45.699L41 60Z" fill="black"/>
    <path fill-rule="evenodd" clip-rule="evenodd" d="M54.814 54.2004V49.9004H56.599C57.969 49.9004 58.599 50.6004 58.7 51.7004V52.1004C58.7 53.2884 58.045 54.2004 56.9 54.2004H54.814ZM54.814 60V56.1H56.5C58.791 56.142 60.511 54.348 60.511 52.304V51.804C60.511 49.585 58.935 48 56.88 48H53V60H54.814Z" fill="black"/>
</svg>