<svg xmlns="http://www.w3.org/2000/svg" xmlns:xlink="http://www.w3.org/1999/xlink" width="16" height="16" viewBox="0 0 16 16">
  <defs>
    <linearGradient id="a" x1="-0.671" y1="2.022" x2="16.601" y2="13.93" gradientUnits="userSpaceOnUse">
      <stop offset="0.173" stop-color="#ff4267"/>
      <stop offset="0.5" stop-color="#f69c0d"/>
      <stop offset="0.855" stop-color="#3b67f6"/>
    </linearGradient>
  </defs>
  <rect y="1" width="16" height="14" fill="url(#a)"/>
  <g>
    <rect x="1" y="2" width="14" height="12"/>
    <rect x="2" y="11" width="3" height="1" fill="#fff"/>
    <path d="M8,3V4.253h.7a1.249,1.249,0,1,1,0,2.5H8V9.259H7.3a1.249,1.249,0,0,0,0,2.5H8V13h6V3Z" fill="#fff"/>
    <rect x="9" y="11" width="3" height="1"/>
  </g>
<path fill-rule="evenodd" clip-rule="evenodd" d="M3 16H16V10H3V16Z" fill="#D99E2B"/>
<path fill-rule="evenodd" clip-rule="evenodd" d="M4 11H7V11.64H4.8V12.6H6.5V13.24H4.8V14.36H6.998V15H4V11Z" fill="black"/>
<path fill-rule="evenodd" clip-rule="evenodd" d="M14.2 12.3672C14.2 12.7632 14.0134 13.0672 13.5554 13.0672H12.8V11.6328H13.4364C13.9834 11.6328 14.16 11.8672 14.2 12.2328V12.3672ZM11.9974 11V15H12.8V13.7H13.3954C14.3114 13.7144 15.0004 13.116 15.0004 12.4336V12.268C15.0004 11.528 14.3694 11 13.5474 11H11.9974Z" fill="black"/>
<path fill-rule="evenodd" clip-rule="evenodd" d="M9.85453 11H9.14647L7.36169 15H8.12852L8.54223 14.0519H10.4212L10.835 15H11.6384L9.85453 11ZM8.86404 13.3705L9.50209 11.9083L10.1747 13.3705H8.86404Z" fill="black"/>
</svg>