<svg ti:v="1" width="16" height="16" viewBox="0 0 16 16" xmlns="http://www.w3.org/2000/svg" xmlns:ti="urn:schemas-jetbrains-com:tisvg"><rect id="frame" width="16" height="16" fill="none"/><linearGradient id="a" x1=".5" y1=".019" x2=".5" y2="1.02"><stop offset="0" stop-color="#5572A1"/><stop offset="1" stop-color="#405980"/></linearGradient><path fill-rule="evenodd" d="M0 5.5A2.5 2.5 0 0 0 2.5 8a2.49 2.49 0 0 0 1.989-1H5V4h-.511A2.49 2.49 0 0 0 2.5 3 2.5 2.5 0 0 0 0 5.5z" fill="url(#a)"/><linearGradient id="b" x1=".5" y1=".019" x2=".5" y2="1.02"><stop offset="0" stop-color="#566980"/><stop offset="1" stop-color="#2C3641"/></linearGradient><path fill-rule="evenodd" d="M8 1C6.345 1 5 2.346 5 4v3c0 1.654 1.345 3 3 3h5c1.654 0 3-1.346 3-3V4c0-1.654-1.346-3-3-3H8z" fill="url(#b)"/><linearGradient id="c" x1=".5" y1=".01" x2=".5" y2="1.001"><stop offset="0" stop-color="#FFF"/><stop offset="1" stop-color="#A7BBDB"/></linearGradient><path fill-rule="evenodd" d="M8 2c-1.1 0-2 .9-2 2v3c0 1.1.9 2 2 2h5c1.1 0 2-.9 2-2V4c0-1.1-.9-2-2-2H8z" fill="url(#c)"/><linearGradient id="d" x1=".5" y1="0" x2=".5" y2="1.067"><stop offset="0" stop-color="#A7BBDB"/><stop offset="1" stop-color="#FFF"/></linearGradient><path fill-rule="evenodd" d="M8 3c-.551 0-1 .448-1 1v3c0 .552.449 1 1 1h5a1 1 0 0 0 1-1V4a1 1 0 0 0-1-1H8z" fill="url(#d)"/><path fill-rule="evenodd" d="M6 5H3.908A1.495 1.495 0 0 0 1 5.5a1.495 1.495 0 1 0 2.908.5H6V5z" fill="#7ED5FF"/><path fill-rule="evenodd" d="M3 5.5a.5.5 0 1 1-1 0 .5.5 0 0 1 1 0z" fill="#0FF"/><linearGradient id="e" x1=".5" y1=".003" x2=".5" y2="1.003"><stop offset="0" stop-color="#0077DB"/><stop offset="1" stop-color="#002BB0"/></linearGradient><path fill-rule="evenodd" d="M0 16h9V7H0v9z" fill="url(#e)"/><linearGradient id="f" x1=".5" y1=".009" x2=".5" y2="1.009"><stop offset="0" stop-color="#FFF"/><stop offset=".988" stop-color="#77EAFF"/><stop offset="1" stop-color="#77EAFF"/></linearGradient><path fill-rule="evenodd" d="M1 15h6.999V8H1v7z" fill="url(#f)"/><linearGradient id="g" x1=".5" y1=".006" x2=".5" y2="1.013"><stop offset="0" stop-color="#0077DB"/><stop offset="1" stop-color="#002BB0"/></linearGradient><path fill-rule="evenodd" d="M3 9l-1 1h2l.5.5L2 13v1h1l2.5-2.5.5.5v2l1-1V9H3z" fill="url(#g)"/></svg>