<svg ti:v="1" width="16" height="16" viewBox="0 0 16 16" xmlns="http://www.w3.org/2000/svg" xmlns:ti="urn:schemas-jetbrains-com:tisvg"><rect id="frame" width="16" height="16" fill="none"/><g fill-rule="evenodd"><path d="M4.489 4a2.488 2.488 0 0 0-1.99-1 2.5 2.5 0 1 0 0 5c.817 0 1.533-.396 1.99-1h.51V4h-.51z" fill="#242424"/><path d="M13 1H8C6.346 1 5 2.346 5 4v3c0 1.654 1.346 3 3 3h5c1.654 0 3-1.346 3-3V4c0-1.654-1.346-3-3-3z" fill="#242424"/><path d="M13 2H8c-1.1 0-2 .9-2 2v3c0 1.1.9 2 2 2h5c1.1 0 2-.9 2-2V4c0-1.1-.9-2-2-2z" fill="#C4C4C4"/><path d="M8 8c-.551 0-1-.448-1-1V4c0-.552.449-1 1-1h5c.551 0 1 .448 1 1v3c0 .552-.449 1-1 1H8z" fill="#282828"/><path d="M6 5H3.908A1.495 1.495 0 0 0 1 5.5a1.495 1.495 0 1 0 2.908.5H6V5z" fill="#C4C4C4"/><path d="M3 5.5a.5.5 0 1 1-1 0 .5.5 0 0 1 1 0z" fill="#282828"/><path d="M9 16H0V7h9v9z" fill="#242424"/><path d="M8 15H1V8h7v7z" fill="#C4C4C4"/><path d="M3 9l-1 1h2l.5.5L2 13v1h1l2.5-2.5.5.5v2l1-1V9H3z" fill="#282828"/></g></svg>