<svg ti:v="1" width="16" height="16" viewBox="0 0 16 16" xmlns="http://www.w3.org/2000/svg" xmlns:ti="urn:schemas-jetbrains-com:tisvg"><rect id="frame" width="16" height="16" fill="none"/><linearGradient id="a" x1=".5" y1=".019" x2=".5" y2="1.02"><stop offset="0" stop-color="#5572A1"/><stop offset="1" stop-color="#405980"/></linearGradient><path fill-rule="evenodd" d="M0 8.5A2.5 2.5 0 0 0 2.5 11c.815 0 1.532-.397 1.989-1H5V7h-.511A2.492 2.492 0 0 0 2.5 6 2.5 2.5 0 0 0 0 8.5z" fill="url(#a)"/><linearGradient id="b" x1=".5" y1=".019" x2=".5" y2="1.02"><stop offset="0" stop-color="#566980"/><stop offset="1" stop-color="#2C3641"/></linearGradient><path fill-rule="evenodd" d="M8 4C6.345 4 5 5.346 5 7v3c0 1.655 1.345 3 3 3h5c1.654 0 3-1.345 3-3V7c0-1.654-1.346-3-3-3H8z" fill="url(#b)"/><linearGradient id="c" x1=".5" y1=".01" x2=".5" y2="1.001"><stop offset="0" stop-color="#FFF"/><stop offset="1" stop-color="#A7BBDB"/></linearGradient><path fill-rule="evenodd" d="M8 5c-1.1 0-2 .9-2 2v3c0 1.099.9 2 2 2h5c1.1 0 2-.901 2-2V7c0-1.1-.9-2-2-2H8z" fill="url(#c)"/><linearGradient id="d" x1=".5" y1="0" x2=".5" y2="1.067"><stop offset="0" stop-color="#A7BBDB"/><stop offset="1" stop-color="#FFF"/></linearGradient><path fill-rule="evenodd" d="M8 6c-.551 0-1 .448-1 1v3c0 .552.449 1 1 1h5a1 1 0 0 0 1-1V7a1 1 0 0 0-1-1H8z" fill="url(#d)"/><path fill-rule="evenodd" d="M6 8H3.908A1.495 1.495 0 0 0 1 8.5a1.495 1.495 0 1 0 2.908.5H6V8z" fill="#7ED5FF"/><path fill-rule="evenodd" d="M3 8.5a.5.5 0 1 1-1 0 .5.5 0 0 1 1 0z" fill="#0FF"/></svg>