<svg ti:v="1" width="16" height="16" viewBox="0 0 16 16" xmlns="http://www.w3.org/2000/svg" xmlns:ti="urn:schemas-jetbrains-com:tisvg"><rect id="frame" width="16" height="16" fill="none"/><linearGradient id="a" x1=".5" y1=".002" x2=".5" y2=".996"><stop offset="0" stop-color="#576A80"/><stop offset="1" stop-color="#2D3742"/></linearGradient><path d="M7.516 16L8 14.198 8.484 16h.936l4.38-1.525-4.319-9.543L8 5.442l-1.481-.51L2.2 14.475 6.58 16h.936z" fill="url(#a)"/><linearGradient id="b" x1=".5" y1="0" x2=".5" y2=".996"><stop offset="0" stop-color="#BAEBFF"/><stop offset="1" stop-color="#66AEFF"/></linearGradient><path d="M12.437 13.891L8.945 6.174 8 6.5l-.945-.326-3.493 7.717L6.749 15 8 10.344 9.251 15l3.186-1.109z" fill="url(#b)"/><linearGradient id="c" x1=".5" y1="0" x2=".5" y2="1"><stop offset="0" stop-color="#755200"/><stop offset="1" stop-color="#522400"/></linearGradient><path d="M8 13a1.365 1.365 0 0 1-1.2-.715l-.425-.785-.8.383a1.366 1.366 0 0 1-1.943-1.411l.116-.883-.879-.159a1.366 1.366 0 0 1-.743-2.284L2.74 6.5l-.614-.646a1.367 1.367 0 0 1 .743-2.284l.875-.162-.116-.883a1.368 1.368 0 0 1 1.94-1.413l.807.385L6.8.714a1.367 1.367 0 0 1 2.4 0l.424.782.8-.383a1.366 1.366 0 0 1 1.943 1.411l-.116.883.875.162a1.366 1.366 0 0 1 .743 2.284l-.609.647.614.646a1.367 1.367 0 0 1-.743 2.284l-.875.162.116.883a1.368 1.368 0 0 1-1.94 1.413l-.807-.388-.424.783A1.366 1.366 0 0 1 8 13zm0 0" fill="url(#c)"/><linearGradient id="d" x1=".5" y1="0" x2=".5" y2="1"><stop offset="0" stop-color="#F6FFBD"/><stop offset="1" stop-color="#FF9500"/></linearGradient><path d="M6.8 2.791a.363.363 0 0 0 .209-.191l.679-1.4a.346.346 0 0 1 .624 0l.679 1.4a.361.361 0 0 0 .5.161l1.377-.739a.346.346 0 0 1 .5.367l-.278 1.538a.36.36 0 0 0 .307.422l1.549.211a.347.347 0 0 1 .193.594l-1.127 1.085a.36.36 0 0 0 0 .522l1.129 1.081a.347.347 0 0 1-.193.594l-1.548.211a.36.36 0 0 0-.307.422l.278 1.538a.346.346 0 0 1-.5.367l-1.377-.739a.361.361 0 0 0-.5.161L8.312 11.8a.346.346 0 0 1-.624 0l-.679-1.4a.361.361 0 0 0-.5-.161l-1.377.739a.346.346 0 0 1-.5-.367l.278-1.538a.36.36 0 0 0-.31-.426l-1.548-.211a.347.347 0 0 1-.193-.594l1.129-1.081a.36.36 0 0 0 0-.522L2.859 5.158a.347.347 0 0 1 .193-.594L4.6 4.353a.36.36 0 0 0 .307-.422L4.63 2.393a.346.346 0 0 1 .5-.367l1.377.739a.363.363 0 0 0 .293.026zm0 0" fill="url(#d)"/><linearGradient id="e" x1=".5" y1="0" x2=".5" y2="1"><stop offset="0" stop-color="#F08000"/><stop offset="1" stop-color="#FFFFAB"/></linearGradient><path d="M10 6.5a2 2 0 1 1-4 0 2 2 0 0 1 4 0z" fill="url(#e)"/></svg>