<svg xmlns="http://www.w3.org/2000/svg" width="16" height="14" viewBox="0 0 16 14"><rect id="frame" width="16" height="14" fill="none"/><path fill="#f4f4f4" d="M0 0h14v12H0z"/><path fill="#323232" d="M1 1h12v10H1z"/><path fill="#323232" d="M1 1h12v3H1z"/><path fill="#ebebeb" d="M2 4h11v7H2z"/><g fill-rule="evenodd"><path fill="#f4f4f4" d="M4 14v-2H2V8h2V6h4v2h2v4H8v2H4z"/><path fill="#f4f4f4" d="M10 12v-2H8V6h2V4h4v2h2v4h-2v2h-4z"/><g fill="#a04898"><path d="M9 9H7V7H5v2H3v2h2v2h2v-2h2V9z"/><path d="M15 7h-2V5h-2v2H9v2h2v2h2V9h2V7z"/></g></g></svg>