<svg ti:v="1" width="16" height="16" viewBox="0 0 16 16" xmlns="http://www.w3.org/2000/svg" xmlns:ti="urn:schemas-jetbrains-com:tisvg"><rect id="frame" width="16" height="16" fill="none"/><g fill-rule="evenodd"><path d="M16 14H2V1h14v13z" fill="#F4F4F4"/><path d="M3 13h12V5H3v8z" fill="#313131"/><path d="M14 12H4V5h10v7z" fill="#EBEBEB"/><path d="M15 5H3V2h12v3z" fill="#313131"/><path d="M2 15v-2H0V9h2V7h4v2h1v4H6v2H2z" fill="#F4F4F4"/><path d="M7 10H5V8H3v2H1v2h2v2h2v-2h2v-2z" fill="#A04897"/><path d="M8 16v-2H6v-4h2V8h4v2h2v4h-2v2H8z" fill="#F4F4F4"/><path d="M13 11h-2V9H9v2H7v2h2v2h2v-2h2v-2z" fill="#A04897"/></g></svg>