<svg ti:v="1" width="16" height="16" viewBox="0 0 16 16" xmlns="http://www.w3.org/2000/svg" xmlns:ti="urn:schemas-jetbrains-com:tisvg"><rect id="frame" width="16" height="16" fill="none"/><linearGradient id="a" x1=".5" y1=".012" x2=".5" y2="1"><stop offset="0" stop-color="#566980"/><stop offset="1" stop-color="#2D3641"/></linearGradient><path fill-rule="evenodd" d="M16 14H2V1h14v13z" fill="url(#a)"/><linearGradient id="b" x1=".012" y1=".5" x2="1" y2=".5"><stop offset="0" stop-color="#FFF"/><stop offset="1" stop-color="#A7BADB"/></linearGradient><path fill-rule="evenodd" d="M3 13h12V5H3v8z" fill="url(#b)"/><linearGradient id="c" x1=".5" y1=".01" x2=".5" y2="1"><stop offset="0" stop-color="#FFF"/><stop offset="1" stop-color="#A7BADB"/></linearGradient><path fill-rule="evenodd" d="M14 12H4V5h10v7z" fill="url(#c)"/><linearGradient id="d" x1="0" y1=".5" x2="1" y2=".5"><stop offset="0" stop-color="#6D97E6"/><stop offset="1" stop-color="#2F62C7"/></linearGradient><path fill-rule="evenodd" d="M15 5H3V2h12v3z" fill="url(#d)"/><linearGradient id="e" x1=".5" y1="-.005" x2=".5" y2="1.025"><stop offset="0" stop-color="#A01993"/><stop offset="1" stop-color="#6A0160"/></linearGradient><path fill-rule="evenodd" d="M2 15v-2H0V9h2V7h4v2h1v4H6v2H2z" fill="url(#e)"/><linearGradient id="f" x1=".5" y1=".013" x2=".5" y2="1.027"><stop offset="0" stop-color="#FFBCF7"/><stop offset="1" stop-color="#FF93F4"/></linearGradient><path fill-rule="evenodd" d="M7 10H5V8H3v2H1v2h2v2h2v-2h2v-2z" fill="url(#f)"/><linearGradient id="g" x1=".5" y1="-.005" x2=".5" y2="1.025"><stop offset="0" stop-color="#A01993"/><stop offset="1" stop-color="#6A0160"/></linearGradient><path fill-rule="evenodd" d="M8 16v-2H6v-4h2V8h4v2h2v4h-2v2H8z" fill="url(#g)"/><linearGradient id="h" x1=".5" y1=".013" x2=".5" y2="1.027"><stop offset="0" stop-color="#FFBCF7"/><stop offset="1" stop-color="#FF93F4"/></linearGradient><path fill-rule="evenodd" d="M13 11h-2V9H9v2H7v2h2v2h2v-2h2v-2z" fill="url(#h)"/></svg>