<svg ti:v="1" width="16" height="16" viewBox="0 0 16 16" xmlns="http://www.w3.org/2000/svg" xmlns:ti="urn:schemas-jetbrains-com:tisvg"><rect id="frame" width="16" height="16" fill="none"/><g fill-rule="evenodd"><path d="M16 14H2V1h14v13z" fill="#F4F4F4"/><path d="M3 13h12V5H3v8z" fill="#313131"/><path d="M14 12H4V5h10v7z" fill="#EBEBEB"/><path d="M15 5H3V2h12v3z" fill="#313131"/><path d="M2.5 16C1.098 16 0 14.683 0 13v-1c0-1.683 1.098-3 2.5-3H10v1h1v5h-1v1H2.5z" fill="#F4F4F4"/><path d="M8 13H7v-1h1m2 0v-1H9v-1H8v1H7v-1H6v1H5v1h1v1H5v1h1v1h1v-1h1v1h1v-1h1v-1H9v-1m-7 .5C2 14.016 3 14 3 14h1v1H2.5c-.829 0-1.5-.896-1.5-2v-1c0-1.104.671-2 1.5-2H4v1H3s-1-.016-1 1.5z" fill="#378A33"/></g></svg>