<svg ti:v="1" width="16" height="16" viewBox="0 0 16 16" xmlns="http://www.w3.org/2000/svg" xmlns:ti="urn:schemas-jetbrains-com:tisvg"><rect id="frame" width="16" height="16" fill="none"/><linearGradient id="a" x1=".5" y1=".002" x2=".5" y2=".996"><stop offset="0" stop-color="#576A80"/><stop offset="1" stop-color="#2D3742"/></linearGradient><path d="M0 1h14v12H0z" fill="url(#a)"/><linearGradient id="b" x1="0" y1=".5" x2="1" y2=".5"><stop offset="0" stop-color="#FFF"/><stop offset="1" stop-color="#A6BADA"/></linearGradient><path d="M1 2h12v10H1z" fill="url(#b)"/><linearGradient id="c" x1="0" y1=".5" x2="1" y2=".5"><stop offset="0" stop-color="#6E96E6"/><stop offset="1" stop-color="#2F62C7"/></linearGradient><path d="M1 2h12v3H1z" fill="url(#c)"/><linearGradient id="d" x1=".5" y1="0" x2=".5" y2="1.011"><stop offset="0" stop-color="#FFF"/><stop offset="1" stop-color="#A6BADA"/></linearGradient><path d="M2 5h11v7H2z" fill="url(#d)"/><linearGradient id="e" x1=".5" y1="-.015" x2=".5" y2="1.031"><stop offset="0" stop-color="#E8F8FF"/><stop offset="1" stop-color="#B3E8FF"/></linearGradient><path d="M16 4a4 4 0 1 1-8 0 4 4 0 0 1 8 0z" fill="url(#e)"/><linearGradient id="f" x1=".5" y1="0" x2=".5" y2="1.024"><stop offset="0" stop-color="#263347"/><stop offset="1" stop-color="#446573"/></linearGradient><path d="M15 4a3 3 0 1 1-6 0 3 3 0 0 1 6 0z" fill="url(#f)"/><path d="M14 4a2 2 0 1 1-4 0 2 2 0 0 1 4 0z" fill="#FFF"/><linearGradient id="g" x1=".5" y1="0" x2=".5" y2="1.024"><stop offset="0" stop-color="#00BFFF"/><stop offset="1" stop-color="#008FCF"/></linearGradient><path d="M13.5 4a1.5 1.5 0 1 1-3 0 1.5 1.5 0 0 1 3 0z" fill="url(#g)"/><linearGradient id="h" x1=".5" y1=".007" x2=".5" y2="1.007"><stop offset="0" stop-color="#204F1D"/><stop offset="1" stop-color="#358432"/></linearGradient><path d="M16 9h-.783l.172-2h-5.01l-.07.819-.265-.188A4.3 4.3 0 0 0 7.726 7C3.9 7 3.043 9.436 3 11.521 3.043 13.564 3.9 16 7.726 16a4.721 4.721 0 0 0 1.916-.4l-.035.4h5.01l.172-2h.872L16 10.048zm0 0" fill="url(#h)"/><linearGradient id="i" x1=".5" y1=".03" x2=".5" y2="1.02"><stop offset="0" stop-color="#D2FFD0"/><stop offset="1" stop-color="#8CE788"/></linearGradient><path d="M5.664 11.5c.02 2.2 1.744 2.222 2.024 2.222a3.036 3.036 0 0 0 1.781-.581v1.412A3.378 3.378 0 0 1 7.73 15c-1.06 0-3.65-.03-3.723-3.5C4.08 8.03 6.67 8 7.73 8c.61-.01 1.21.144 1.739.447v1.412a3.036 3.036 0 0 0-1.781-.581c-.28 0-2.004.022-2.024 2.222zm8.379-.5l-.086 1h.872l-.086 1h-.872l-.171 2h-1l.171-2h-1l-.171 2h-1l.171-2H10l.086-1h.871l.086-1h-.872l.086-1h.872l.171-2h1l-.171 2h1l.171-2h1l-.171 2H15l-.086 1zm-1 0h-1l-.086 1h1zm0 0" fill="url(#i)"/></svg>