<svg ti:v="1" width="16" height="16" viewBox="0 0 16 16" xmlns="http://www.w3.org/2000/svg" xmlns:ti="urn:schemas-jetbrains-com:tisvg"><rect id="frame" width="16" height="16" fill="none"/><path d="M0 1h14v12H0z" fill="#252525"/><path d="M1 2h12v10H1z" fill="#C4C4C4"/><path d="M1 2h12v3H1z" fill="#C4C4C4"/><path d="M2 5h11v7H2z" fill="#292929"/><path d="M16 9h-.783l.172-2h-5.01l-.07.819-.265-.188A4.3 4.3 0 0 0 7.726 7C3.9 7 3.043 9.436 3 11.521 3.043 13.564 3.9 16 7.726 16a4.721 4.721 0 0 0 1.916-.4l-.035.4h5.01l.172-2h.872L16 10.048zm0 0" fill="#252525"/><path d="M5.664 11.5c.02 2.2 1.744 2.222 2.024 2.222a3.036 3.036 0 0 0 1.781-.581v1.412A3.378 3.378 0 0 1 7.73 15c-1.06 0-3.65-.03-3.723-3.5C4.08 8.03 6.67 8 7.73 8c.61-.01 1.21.144 1.739.447v1.412a3.036 3.036 0 0 0-1.781-.581c-.28 0-2.004.022-2.024 2.222zm8.379-.5l-.086 1h.872l-.086 1h-.872l-.171 2h-1l.171-2h-1l-.171 2h-1l.171-2H10l.086-1h.871l.086-1h-.872l.086-1h.872l.171-2h1l-.171 2h1l.171-2h1l-.171 2H15l-.086 1zm-1 0h-1l-.086 1h1zm0 0" fill="#86D086"/><path d="M16 4a4 4 0 1 1-8 0 4 4 0 0 1 8 0z" fill="#252525"/><path d="M15 4a3 3 0 1 1-6 0 3 3 0 0 1 6 0z" fill="#C4C4C4"/><path d="M14 4a2 2 0 1 1-4 0 2 2 0 0 1 4 0z" fill="#292929"/><path d="M13.5 4a1.5 1.5 0 1 1-3 0 1.5 1.5 0 0 1 3 0z" fill="#2BAAE8"/></svg>