<svg ti:v="1" width="16" height="16" viewBox="0 0 16 16" xmlns="http://www.w3.org/2000/svg" xmlns:ti="urn:schemas-jetbrains-com:tisvg"><rect id="frame" width="16" height="16" fill="none"/><linearGradient id="a" x1=".5" y1=".013" x2=".5" y2="1"><stop offset="0" stop-color="#144085"/><stop offset="1" stop-color="#05224D"/></linearGradient><path d="M4 6h4v4H4z" fill="url(#a)"/><linearGradient id="b" x1=".5" y1="0" x2=".5" y2="1"><stop offset="0" stop-color="#FFE296"/><stop offset="1" stop-color="#F90"/></linearGradient><path d="M5 7h3v2H5z" fill="url(#b)"/><linearGradient id="c" x1=".5" y1=".013" x2=".5" y2="1"><stop offset="0" stop-color="#144085"/><stop offset="1" stop-color="#05224D"/></linearGradient><path d="M5 5v6H0V5z" fill="url(#c)"/><linearGradient id="d" x1=".5" y1=".041" x2=".5" y2="1.017"><stop offset="0" stop-color="#8CF4FF"/><stop offset="1" stop-color="#21A2FF"/></linearGradient><path d="M1 6h3v4H1z" fill="url(#d)"/><linearGradient id="e" x1=".5" y1=".041" x2=".5" y2="1.017"><stop offset="0" stop-color="#BDF9FF"/><stop offset="1" stop-color="#94D2FF"/></linearGradient><path d="M8 3v9h8V3zm7 8H9V6h6zm0 0" fill="url(#e)"/><linearGradient id="f" x1=".5" y1=".013" x2=".5" y2="1"><stop offset="0" stop-color="#144085"/><stop offset="1" stop-color="#05224D"/></linearGradient><path d="M9 4H8V3h1zm2-1h-1v1h1zm2 0h-1v1h1zm2 0h-1v1h1zm-5 1H9v1h1zm2 0h-1v1h1zm2 0h-1v1h1zm2 0h-1v1h1zM9 5H8v1h1zm2 0h-1v1h1zm2 0h-1v1h1zm2 0h-1v1h1zm1 1h-1v1h1zm0 2h-1v1h1zm0 2h-1v1h1zm-1 1h-1v1h1zM9 7H8v1h1zm0 2H8v1h1zm0 2H8v1h1zm2 0h-1v1h1zm2 0h-1v1h1zm0 0" fill="url(#f)"/></svg>