<svg ti:v="1" width="16" height="16" viewBox="0 0 16 16" xmlns="http://www.w3.org/2000/svg" xmlns:ti="urn:schemas-jetbrains-com:tisvg"><rect id="frame" width="16" height="16" fill="none"/><linearGradient id="a" x1=".5" y1=".013" x2=".5" y2="1"><stop offset="0" stop-color="#133F85"/><stop offset="1" stop-color="#04214D"/></linearGradient><path fill-rule="evenodd" d="M4 6h4v4H4V6z" fill="url(#a)"/><linearGradient id="b" x1=".5" y1="0" x2=".5" y2="1"><stop offset="0" stop-color="#FFE295"/><stop offset="1" stop-color="#F90"/></linearGradient><path fill-rule="evenodd" d="M7 9H5V7h2v2z" fill="url(#b)"/><linearGradient id="c" x1=".5" y1=".013" x2=".5" y2="1"><stop offset="0" stop-color="#133F85"/><stop offset="1" stop-color="#04214D"/></linearGradient><path fill-rule="evenodd" d="M0 5h5v6H0V5z" fill="url(#c)"/><linearGradient id="d" x1=".5" y1=".041" x2=".5" y2="1.017"><stop offset="0" stop-color="#8CF4FF"/><stop offset="1" stop-color="#21A1FF"/></linearGradient><path fill-rule="evenodd" d="M4 10H1V6h3v4z" fill="url(#d)"/><linearGradient id="e" x1=".5" y1=".012" x2=".5" y2="1"><stop offset="0" stop-color="#566980"/><stop offset="1" stop-color="#2D3641"/></linearGradient><path fill-rule="evenodd" d="M7 3h9v10H7V3z" fill="url(#e)"/><linearGradient id="f" x1=".012" y1=".5" x2="1" y2=".5"><stop offset="0" stop-color="#FFF"/><stop offset="1" stop-color="#A7BADB"/></linearGradient><path fill-rule="evenodd" d="M15 12H8V7h7v5z" fill="url(#f)"/><linearGradient id="g" x1=".5" y1=".01" x2=".5" y2="1"><stop offset="0" stop-color="#FFF"/><stop offset="1" stop-color="#A7BADB"/></linearGradient><path fill-rule="evenodd" d="M14 11H9V7h5v4z" fill="url(#g)"/><linearGradient id="h" x1="0" y1=".5" x2="1" y2=".5"><stop offset="0" stop-color="#6D97E6"/><stop offset="1" stop-color="#2F62C7"/></linearGradient><path fill-rule="evenodd" d="M15 7H8V4h7v3z" fill="url(#h)"/></svg>