<svg ti:v="1" width="16" height="16" viewBox="0 0 16 16" xmlns="http://www.w3.org/2000/svg" xmlns:ti="urn:schemas-jetbrains-com:tisvg"><rect id="frame" width="16" height="16" fill="none"/><path d="M8 3v9h8V3zm7 8H9V6h6zm0 0" fill="#292929"/><path d="M9 4H8V3h1zm2-1h-1v1h1zm2 0h-1v1h1zm2 0h-1v1h1zm-5 1H9v1h1zm2 0h-1v1h1zm2 0h-1v1h1zm2 0h-1v1h1zM9 5H8v1h1zm2 0h-1v1h1zm2 0h-1v1h1zm2 0h-1v1h1zm1 1h-1v1h1zm0 2h-1v1h1zm0 2h-1v1h1zm-1 1h-1v1h1zM9 7H8v1h1zm0 2H8v1h1zm0 2H8v1h1zm2 0h-1v1h1zm2 0h-1v1h1zm0 0" fill="#C4C4C4"/><path d="M4 6h4v4H4z" fill="#252525"/><path d="M5 7h2v2H5z" fill="#C4C4C4"/><path d="M5 5v6H0V5z" fill="#252525"/><path d="M1 6h3v4H1z" fill="#C4C4C4"/></svg>