<svg xmlns="http://www.w3.org/2000/svg" width="15" height="15" viewBox="0 0 15 15"><rect id="frame" width="15" height="15" fill="none"/><path fill="#f4f4f4" d="M0 0h14v12H0z"/><path fill="#323232" d="M1 1h12v10H1z"/><path fill="#323232" d="M1 1h12v3H1z"/><path fill="#ebebeb" d="M2 4h11v7H2z"/><g><circle cx="9.5" cy="9.5" r="5.5" fill="#f4f4f4"/><circle cx="9.5" cy="9.5" r="4.5" fill="#323232"/><circle cx="9.5" cy="9.5" r="2.5" fill="#1ba1e2"/><path d="M9.5 6.5a3 3 0 1 0 3 3 3 3 0 0 0-3-3zm0 5a2 2 0 1 1 2-2 2 2 0 0 1-2 2z" fill="#f4f4f4"/></g></svg>