<svg ti:v="1" width="16" height="16" viewBox="0 0 16 16" xmlns="http://www.w3.org/2000/svg" xmlns:ti="urn:schemas-jetbrains-com:tisvg"><rect id="frame" width="16" height="16" fill="none"/><g fill-rule="evenodd"><path d="M16 14H2V1h14v13z" fill="#F4F4F4"/><path d="M3 13h12V5H3v8z" fill="#313131"/><path d="M14 12H4V5h10v7z" fill="#EBEBEB"/><path d="M15 5H3V2h12v3z" fill="#313131"/><path d="M5.5 16A5.506 5.506 0 0 1 0 10.5C0 7.467 2.468 5 5.5 5S11 7.467 11 10.5 8.532 16 5.5 16z" fill="#F4F4F4"/><path d="M5.5 8A2.503 2.503 0 0 0 3 10.5C3 11.878 4.121 13 5.5 13S8 11.878 8 10.5 6.879 8 5.5 8zm0 7A4.505 4.505 0 0 1 1 10.5C1 8.019 3.019 6 5.5 6S10 8.019 10 10.5 7.981 15 5.5 15z" fill="#313131"/><path d="M2.5 13A2.503 2.503 0 0 1 0 10.5C0 9.122 1.121 8 2.5 8S5 9.122 5 10.5 3.879 13 2.5 13z" fill="#F4F4F4"/><path d="M4 10.5a1.5 1.5 0 1 1-3.001-.001A1.5 1.5 0 0 1 4 10.5z" fill="#1AA1E2"/></g></svg>