<svg ti:v="1" width="16" height="16" viewBox="0 0 16 16" xmlns="http://www.w3.org/2000/svg" xmlns:ti="urn:schemas-jetbrains-com:tisvg"><rect id="frame" width="16" height="16" fill="none"/><linearGradient id="a" x1=".5" y1=".003" x2=".5" y2="1.003"><stop offset="0" stop-color="#7C6D48"/><stop offset="1" stop-color="#60492F"/></linearGradient><path fill-rule="evenodd" d="M2 1v14h12V5.586L9.414 1H2z" fill="url(#a)"/><linearGradient id="b" x1=".5" y1=".004" x2=".5" y2="1"><stop offset="0" stop-color="#E2D7BC"/><stop offset="1" stop-color="#E2CCB3"/></linearGradient><path fill-rule="evenodd" d="M3 2v12h10V6L9 2H3z" fill="url(#b)"/><linearGradient id="c" x1=".5" y1=".012" x2=".5" y2="1.006"><stop offset="0" stop-color="#FFF2D3"/><stop offset="1" stop-color="#FFF"/></linearGradient><path fill-rule="evenodd" d="M5 4v8h6V6H9V4H5z" fill="url(#c)"/><linearGradient id="d" x1=".5" y1="0" x2=".5" y2="1"><stop offset="0" stop-color="#443D62"/><stop offset="1" stop-color="#16122E"/></linearGradient><path fill-rule="evenodd" d="M0 10.5C0 13.532 2.468 16 5.5 16s5.5-2.468 5.5-5.5C11 7.467 8.532 5 5.5 5A5.506 5.506 0 0 0 0 10.5z" fill="url(#d)"/><linearGradient id="e" x1=".5" y1="0" x2=".5" y2="1"><stop offset="0" stop-color="#FFF"/><stop offset="1" stop-color="#D6CEFF"/></linearGradient><path fill-rule="evenodd" d="M1 10.5C1 12.982 3.019 15 5.5 15c2.482 0 4.5-2.018 4.5-4.5C10 8.019 7.982 6 5.5 6A4.505 4.505 0 0 0 1 10.5zm2 0C3 9.122 4.122 8 5.5 8 6.879 8 8 9.122 8 10.5S6.879 13 5.5 13A2.503 2.503 0 0 1 3 10.5z" fill="url(#e)"/><linearGradient id="f" x1=".5" y1="0" x2=".5" y2="1"><stop offset="0" stop-color="#3164C6"/><stop offset="1" stop-color="#00246D"/></linearGradient><path fill-rule="evenodd" d="M0 10.5C0 11.878 1.121 13 2.5 13S5 11.878 5 10.5 3.879 8 2.5 8A2.503 2.503 0 0 0 0 10.5z" fill="url(#f)"/><linearGradient id="g" x1=".5" y1="0" x2=".5" y2="1"><stop offset="0" stop-color="#78DFFF"/><stop offset="1" stop-color="#3CDEFF"/></linearGradient><path fill-rule="evenodd" d="M1 10.5a1.5 1.5 0 1 0 3 0 1.5 1.5 0 1 0-3 0z" fill="url(#g)"/></svg>