<svg ti:v="1" width="16" height="16" viewBox="0 0 16 16" xmlns="http://www.w3.org/2000/svg" xmlns:ti="urn:schemas-jetbrains-com:tisvg"><rect id="frame" width="16" height="16" fill="none"/><path d="M1 15V3h6.586l2-2H16v14H1z" fill="#252525"/><path d="M15 14V2h-5L8 4H2v10h13z" fill="#E9A755"/><path d="M3 6h11v7H3z" fill="#292929"/><path d="M2.25 14.25a2.25 2.25 0 1 1 1.674-3.75H6v3H3.924a2.248 2.248 0 0 1-1.674.75zm0 0" fill="#252525"/><path d="M9 16H5a2 2 0 0 1-2-2v-4a2 2 0 0 1 2-2h4a2 2 0 0 1 2 2v4a2 2 0 0 1-2 2z" fill="#252525"/><path d="M9 15H5a1 1 0 0 1-1-1v-4a1 1 0 0 1 1-1h4a1 1 0 0 1 1 1v4a1 1 0 0 1-1 1z" fill="#43C2FF"/><path d="M4 11.5h-.607a1.25 1.25 0 1 0 0 1H4zm0 0" fill="#43C2FF"/><path d="M2.75 12a.5.5 0 1 1-1 0 .5.5 0 0 1 1 0z" fill="#292929"/><path d="M5 11h2v2H5z" fill="#292929"/><path d="M8 10h1v1H8z" fill="#292929"/><path d="M8 13h1v1H8z" fill="#292929"/></svg>