<svg ti:v="1" width="16" height="16" viewBox="0 0 16 16" xmlns="http://www.w3.org/2000/svg" xmlns:ti="urn:schemas-jetbrains-com:tisvg"><rect id="frame" width="16" height="16" fill="none"/><path d="M13 13a3.001 3.001 0 0 0 3-3V5a3.001 3.001 0 0 0-3-3H7a3.001 3.001 0 0 0-3 3v5a3.001 3.001 0 0 0 3 3h6z" fill="#252525"/><path d="M13 12a2.007 2.007 0 0 0 2-2V5a2.007 2.007 0 0 0-2-2H7a2.007 2.007 0 0 0-2 2v5a2.007 2.007 0 0 0 2 2h6z" fill="#C4C4C4"/><path d="M13 11H7a1 1 0 0 1-1-1V5a1 1 0 0 1 1-1h6a1 1 0 0 1 1 1v5a1 1 0 0 1-1 1z" fill="#292929"/><path d="M7 6h3v3H7z" fill="#C4C4C4"/><path d="M11 5h2v2h-2z" fill="#C4C4C4"/><path d="M11 8h2v2h-2z" fill="#C4C4C4"/><path d="M4.489 6a2.5 2.5 0 1 0 0 3H5V6zm0 0" fill="#252525"/><path d="M5 7H3.908a1.5 1.5 0 1 0 0 1H5zm0 0" fill="#C4C4C4"/><path d="M3 7.5a.5.5 0 1 1-1 0 .5.5 0 0 1 1 0z" fill="#292929"/></svg>