<svg ti:v="1" width="16" height="16" viewBox="0 0 16 16" xmlns="http://www.w3.org/2000/svg" xmlns:ti="urn:schemas-jetbrains-com:tisvg"><rect id="frame" width="16" height="16" fill="none"/><path d="M13 13a3.001 3.001 0 0 0 3-3V5a3.001 3.001 0 0 0-3-3H7a3.001 3.001 0 0 0-3 3v5a3.001 3.001 0 0 0 3 3h6z" fill="#F4F4F4"/><path d="M13 12a2.007 2.007 0 0 0 2-2V5a2.007 2.007 0 0 0-2-2H7a2.007 2.007 0 0 0-2 2v5a2.007 2.007 0 0 0 2 2h6z" fill="#323232"/><path d="M13 11H7a1 1 0 0 1-1-1V5a1 1 0 0 1 1-1h6a1 1 0 0 1 1 1v5a1 1 0 0 1-1 1z" fill="#EBEBEB"/><path d="M7 6h3v3H7z" fill="#323232"/><path d="M11 5h2v2h-2z" fill="#323232"/><path d="M11 8h2v2h-2z" fill="#323232"/><path d="M4.489 6a2.5 2.5 0 1 0 0 3H5V6zm0 0" fill="#F4F4F4"/><path d="M5 7H3.908a1.5 1.5 0 1 0 0 1H5zm0 0" fill="#323232"/><path d="M3 7.5a.5.5 0 1 1-1 0 .5.5 0 0 1 1 0z" fill="#EBEBEB"/><path d="M12.5 7h-2L7 14l1 2h7l1-2-3.5-7z" fill="#F4F4F4"/><path d="M11.891 8.016h-.782l-3.015 6 .515.984h5.766l.484-1-2.968-5.984z" fill="#FA0"/><path d="M12 12h-1v-2h1zm0 1h-1v1h1zm0 0" fill="#323232"/></svg>