<svg ti:v="1" width="16" height="16" viewBox="0 0 16 16" xmlns="http://www.w3.org/2000/svg" xmlns:ti="urn:schemas-jetbrains-com:tisvg"><rect id="frame" width="16" height="16" fill="none"/><linearGradient id="a" x1=".5" y1=".019" x2=".5" y2="1.02"><stop offset="0" stop-color="#576A80"/><stop offset="1" stop-color="#2D3742"/></linearGradient><path d="M13 13a3.001 3.001 0 0 0 3-3V5a3.001 3.001 0 0 0-3-3H7a3.001 3.001 0 0 0-3 3v5a3.001 3.001 0 0 0 3 3h6z" fill="url(#a)"/><linearGradient id="b" x1=".5" y1=".01" x2=".5" y2="1.001"><stop offset="0" stop-color="#FFF"/><stop offset="1" stop-color="#A6BADA"/></linearGradient><path d="M13 12a2.007 2.007 0 0 0 2-2V5a2.007 2.007 0 0 0-2-2H7a2.007 2.007 0 0 0-2 2v5a2.007 2.007 0 0 0 2 2h6z" fill="url(#b)"/><linearGradient id="c" x1=".5" y1="0" x2=".5" y2="1.067"><stop offset="0" stop-color="#A6BADA"/><stop offset="1" stop-color="#FFF"/></linearGradient><path d="M13 11H7a1 1 0 0 1-1-1V5a1 1 0 0 1 1-1h6a1 1 0 0 1 1 1v5a1 1 0 0 1-1 1z" fill="url(#c)"/><path d="M7 6h3v3H7z" fill="#3271BF"/><path d="M11 5h2v2h-2z" fill="#3271BF"/><path d="M11 8h2v2h-2z" fill="#3271BF"/><linearGradient id="d" x1=".501" y1=".019" x2=".501" y2="1.02"><stop offset="0" stop-color="#5673A0"/><stop offset="1" stop-color="#415A80"/></linearGradient><path d="M4.489 6a2.5 2.5 0 1 0 0 3H5V6zm0 0" fill="url(#d)"/><path d="M5 7H3.908a1.5 1.5 0 1 0 0 1H5zm0 0" fill="#7ED4FF"/><path d="M3 7.5a.5.5 0 1 1-1 0 .5.5 0 0 1 1 0z" fill="#0FF"/></svg>