<svg ti:v="1" width="16" height="16" viewBox="0 0 16 16" xmlns="http://www.w3.org/2000/svg" xmlns:ti="urn:schemas-jetbrains-com:tisvg"><rect id="frame" width="16" height="16" fill="none"/><linearGradient id="a" x1=".5" y1=".002" x2=".5" y2=".996"><stop offset="0" stop-color="#C28C21"/><stop offset="1" stop-color="#634933"/></linearGradient><path d="M1 15V3h6.586l2-2H16v14H1z" fill="url(#a)"/><linearGradient id="b" x1=".5" y1=".002" x2=".5" y2=".996"><stop offset="0" stop-color="#FFE9BD"/><stop offset="1" stop-color="#D4A24C"/></linearGradient><path d="M15 14V2h-5L8 4H2v10h13z" fill="url(#b)"/><linearGradient id="c" x1=".5" y1=".002" x2=".5" y2=".996"><stop offset="0" stop-color="#B88143"/><stop offset="1" stop-color="#8A4717"/></linearGradient><path d="M3 6h11v7H3z" fill="url(#c)"/><linearGradient id="d" x1=".5" y1=".018" x2=".5" y2="1.02"><stop offset="0" stop-color="#5673A0"/><stop offset="1" stop-color="#415A80"/></linearGradient><path d="M2.25 14.25a2.25 2.25 0 1 1 1.674-3.75H6v3H3.924a2.248 2.248 0 0 1-1.674.75zm0 0" fill="url(#d)"/><linearGradient id="e" x1=".5" y1=".018" x2=".5" y2="1.02"><stop offset="0" stop-color="#576A80"/><stop offset="1" stop-color="#2D3742"/></linearGradient><path d="M9 16H5a2 2 0 0 1-2-2v-4a2 2 0 0 1 2-2h4a2 2 0 0 1 2 2v4a2 2 0 0 1-2 2z" fill="url(#e)"/><linearGradient id="f" x1=".5" y1="0" x2=".5" y2="1.067"><stop offset="0" stop-color="#D9F3FF"/><stop offset="1" stop-color="#8AC4FF"/></linearGradient><path d="M9 15H5a1 1 0 0 1-1-1v-4a1 1 0 0 1 1-1h4a1 1 0 0 1 1 1v4a1 1 0 0 1-1 1z" fill="url(#f)"/><path d="M4 11.5h-.607a1.25 1.25 0 1 0 0 1H4zm0 0" fill="#7ED4FF"/><path d="M2.75 12a.5.5 0 1 1-1 0 .5.5 0 0 1 1 0z" fill="#0FF"/><path d="M5 11h2v2H5z" fill="#3271BF"/><path d="M8 10h1v1H8z" fill="#3271BF"/><path d="M8 13h1v1H8z" fill="#3271BF"/></svg>