<svg xmlns="http://www.w3.org/2000/svg" width="16" height="16" viewBox="0 0 16 16"><rect id="frame" width="16" height="16" fill="none"/><path fill="#252525" d="M0 1h14v12H0z"/><path fill="#c4c4c4" d="M1 2h12v10H1z"/><path fill="#c4c4c4" d="M1 2h12v3H1z"/><path fill="#292929" d="M2 5h11v7H2z"/><g><path fill="#252525" d="M16 8h-.782l.171-2H4v9h3.6v-3h1.396l-.086 1h.872l-.171 2h5.007l.172-2h.871L16 9.048V8z"/><path d="M6.6 8.3V10H9v1H6.6v3H5V7h4.5v1.3zm7.443 1.7l-.086 1h.872l-.086 1h-.872l-.171 2h-1l.171-2h-1l-.171 2h-1l.171-2H10l.086-1h.871l.086-1h-.872l.086-1h.872l.171-2h1l-.171 2h1l.171-2h1l-.171 2H15l-.086 1zm-1 0h-1l-.086 1h1z" fill="#00b9dd"/></g></svg>