<svg ti:v="1" width="16" height="16" viewBox="0 0 16 16" xmlns="http://www.w3.org/2000/svg" xmlns:ti="urn:schemas-jetbrains-com:tisvg"><rect id="frame" width="16" height="16" fill="none"/><linearGradient id="a" x1=".5" y1=".012" x2=".5" y2="1"><stop offset="0" stop-color="#566980"/><stop offset="1" stop-color="#2D3641"/></linearGradient><path fill-rule="evenodd" d="M16 14H2V1h14v13z" fill="url(#a)"/><linearGradient id="b" x1=".012" y1=".5" x2="1" y2=".5"><stop offset="0" stop-color="#FFF"/><stop offset="1" stop-color="#A7BADB"/></linearGradient><path fill-rule="evenodd" d="M3 13h12V5H3v8z" fill="url(#b)"/><linearGradient id="c" x1=".5" y1=".01" x2=".5" y2="1"><stop offset="0" stop-color="#FFF"/><stop offset="1" stop-color="#A7BADB"/></linearGradient><path fill-rule="evenodd" d="M14 12H4V5h10v7z" fill="url(#c)"/><linearGradient id="d" x1="0" y1=".5" x2="1" y2=".5"><stop offset="0" stop-color="#6D97E6"/><stop offset="1" stop-color="#2F62C7"/></linearGradient><path fill-rule="evenodd" d="M15 5H3V2h12v3z" fill="url(#d)"/><linearGradient id="e" x1=".5" y1="0" x2=".5" y2="1"><stop offset="0" stop-color="#004F5D"/><stop offset="1" stop-color="#007E93"/></linearGradient><path fill-rule="evenodd" d="M5 16v-1H4v-1H3v2H0V9h10v1h1v5h-1v1H5z" fill="url(#e)"/><linearGradient id="f" x1=".5" y1="0" x2=".5" y2="1"><stop offset="0" stop-color="#CEFFFB"/><stop offset="1" stop-color="#78E3FF"/></linearGradient><path fill-rule="evenodd" d="M2 11v1h2l-.5 1H2v2H1v-5h3.5v1M8 13H7v-1h1m2 0v-1H9v-1H8v1H7v-1H6v1H5v1h1v1H5v1h1v1h1v-1h1v1h1v-1h1v-1H9v-1h1z" fill="url(#f)"/></svg>