<svg ti:v="1" width="16" height="16" viewBox="0 0 16 16" xmlns="http://www.w3.org/2000/svg" xmlns:ti="urn:schemas-jetbrains-com:tisvg"><rect id="frame" width="16" height="16" fill="none"/><linearGradient id="a" x1=".5" y1=".002" x2=".5" y2=".996"><stop offset="0" stop-color="#576A80"/><stop offset="1" stop-color="#2D3742"/></linearGradient><path d="M0 1h14v12H0z" fill="url(#a)"/><linearGradient id="b" x1="0" y1=".5" x2="1" y2=".5"><stop offset="0" stop-color="#FFF"/><stop offset="1" stop-color="#A6BADA"/></linearGradient><path d="M1 2h12v10H1z" fill="url(#b)"/><linearGradient id="c" x1="0" y1=".5" x2="1" y2=".5"><stop offset="0" stop-color="#6E96E6"/><stop offset="1" stop-color="#2F62C7"/></linearGradient><path d="M1 2h12v3H1z" fill="url(#c)"/><linearGradient id="d" x1=".5" y1="0" x2=".5" y2="1.011"><stop offset="0" stop-color="#FFF"/><stop offset="1" stop-color="#A6BADA"/></linearGradient><path d="M2 5h11v7H2z" fill="url(#d)"/><linearGradient id="e" x1=".5" y1="-.015" x2=".5" y2="1.031"><stop offset="0" stop-color="#E8F8FF"/><stop offset="1" stop-color="#B3E8FF"/></linearGradient><path d="M16 4a4 4 0 1 1-8 0 4 4 0 0 1 8 0z" fill="url(#e)"/><linearGradient id="f" x1=".5" y1="0" x2=".5" y2="1.024"><stop offset="0" stop-color="#263347"/><stop offset="1" stop-color="#446573"/></linearGradient><path d="M15 4a3 3 0 1 1-6 0 3 3 0 0 1 6 0z" fill="url(#f)"/><path d="M14 4a2 2 0 1 1-4 0 2 2 0 0 1 4 0z" fill="#FFF"/><linearGradient id="g" x1=".5" y1="0" x2=".5" y2="1.024"><stop offset="0" stop-color="#00BFFF"/><stop offset="1" stop-color="#008FCF"/></linearGradient><path d="M13.5 4a1.5 1.5 0 1 1-3 0 1.5 1.5 0 0 1 3 0z" fill="url(#g)"/><linearGradient id="h" x1=".5" y1="0" x2=".5" y2="1"><stop offset="0" stop-color="#004F5E"/><stop offset="1" stop-color="#007E93"/></linearGradient><path d="M16 9h-.782l.171-2H4v9h3.6v-3h1.396l-.086 1h.872l-.171 2h5.007l.172-2h.871L16 10.048V9z" fill="url(#h)"/><linearGradient id="i" x1=".5" y1="0" x2=".5" y2="1"><stop offset="0" stop-color="#CEFFFB"/><stop offset="1" stop-color="#78E3FF"/></linearGradient><path d="M6.6 9.3V11H9v1H6.6v3H5V8h4.5v1.3zm7.443 1.7l-.086 1h.872l-.086 1h-.872l-.171 2h-1l.171-2h-1l-.171 2h-1l.171-2H10l.086-1h.871l.086-1h-.872l.086-1h.872l.171-2h1l-.171 2h1l.171-2h1l-.171 2H15l-.086 1zm-1 0h-1l-.086 1h1zm0 0" fill="url(#i)"/></svg>