<svg ti:v="1" width="16" height="16" viewBox="0 0 16 16" xmlns="http://www.w3.org/2000/svg" xmlns:ti="urn:schemas-jetbrains-com:tisvg"><rect id="frame" width="16" height="16" fill="none"/><path d="M0 1h14v12H0z" fill="#252525"/><path d="M1 2h12v10H1z" fill="#C4C4C4"/><path d="M1 2h12v3H1z" fill="#C4C4C4"/><path d="M2 5h11v7H2z" fill="#292929"/><path d="M16 9h-.782l.171-2H4v9h3.6v-3h1.396l-.086 1h.872l-.171 2h5.007l.172-2h.871L16 10.048V9z" fill="#252525"/><path d="M6.6 9.3V11H9v1H6.6v3H5V8h4.5v1.3zm7.443 1.7l-.086 1h.872l-.086 1h-.872l-.171 2h-1l.171-2h-1l-.171 2h-1l.171-2H10l.086-1h.871l.086-1h-.872l.086-1h.872l.171-2h1l-.171 2h1l.171-2h1l-.171 2H15l-.086 1zm-1 0h-1l-.086 1h1zm0 0" fill="#00B9DD"/><path d="M16 4a4 4 0 1 1-8 0 4 4 0 0 1 8 0z" fill="#252525"/><path d="M15 4a3 3 0 1 1-6 0 3 3 0 0 1 6 0z" fill="#C4C4C4"/><path d="M14 4a2 2 0 1 1-4 0 2 2 0 0 1 4 0z" fill="#292929"/><path d="M13.5 4a1.5 1.5 0 1 1-3 0 1.5 1.5 0 0 1 3 0z" fill="#2BAAE8"/></svg>