<svg xmlns="http://www.w3.org/2000/svg" width="16" height="16" viewBox="0 0 16 16"><rect id="frame" width="16" height="16" fill="none"/><path fill="#252525" d="M15.615 11.429L16 6.61V5.571h-.962L15.244 3H9.637l-.206 2.571H9.4V3H2v11h3.9v-3.957h2.128l-.111 1.386h1.045L8.756 14h5.607l.206-2.571h1.046z"/><path d="M14.906 7.75L15 6.571h-1.046L14.16 4h-1.2l-.206 2.571h-1.2L11.76 4h-1.2l-.206 2.571H9.309L9.214 7.75h1.046l-.12 1.5H9.094L9 10.429h1.046L9.84 13h1.2l.206-2.571h1.2L12.24 13h1.2l.206-2.571h1.046l.094-1.179H13.74l.12-1.5zm-2.366 1.5h-1.2l.12-1.5h1.2zM4.9 5.671v2.086h2.786v1.286H4.9V13H3V4h5.4v1.671z" fill="#00b9dd"/></svg>