<svg ti:v="1" width="16" height="16" viewBox="0 0 16 16" xmlns="http://www.w3.org/2000/svg" xmlns:ti="urn:schemas-jetbrains-com:tisvg"><rect id="frame" width="16" height="16" fill="none"/><g fill-rule="evenodd"><path d="M2 15V1h7.414L14 5.586V15H2z" fill="#F4F4F4"/><path d="M9 2H3v12h10V6L9 2z" fill="#313131"/><path d="M9 6V4H5v8h6V6H9z" fill="#EBEBEB"/><path d="M5 16v-1H4v-1H3v2H0V9h10v1h1v5h-1v1H5z" fill="#F4F4F4"/><path d="M2 11v1h2l-.5 1H2v2H1v-5h3.5v1M8 13H7v-1h1m2 0v-1H9v-1H8v1H7v-1H6v1H5v1h1v1H5v1h1v1h1v-1h1v1h1v-1h1v-1H9v-1h1z" fill="#0089A3"/></g></svg>