<svg ti:v="1" width="16" height="16" viewBox="0 0 16 16" xmlns="http://www.w3.org/2000/svg" xmlns:ti="urn:schemas-jetbrains-com:tisvg"><rect id="frame" width="16" height="16" fill="none"/><g fill-rule="evenodd"><path d="M16 14H2V1h14v13z" fill="#242424"/><path d="M3 13h12V5H3v8z" fill="#C3C3C3"/><path d="M14 12H4V5h10v7z" fill="#292929"/><path d="M15 5H3V2h12v3z" fill="#C3C3C3"/><path d="M5 16v-1H4v-1H3v2H0V9h10v1h1v5h-1v1H5z" fill="#242424"/><path d="M2 11v1h2l-.5 1H2v2H1v-5h3.5v1M8 13H7v-1h1m2 0v-1H9v-1H8v1H7v-1H6v1H5v1h1v1H5v1h1v1h1v-1h1v1h1v-1h1v-1H9v-1h1z" fill="#00BADE"/></g></svg>