<svg ti:v="1" width="16" height="16" viewBox="0 0 16 16" xmlns="http://www.w3.org/2000/svg" xmlns:ti="urn:schemas-jetbrains-com:tisvg"><rect id="frame" width="16" height="16" fill="none"/><g fill-rule="evenodd"><path d="M2 16v-6c0-1.654 1.346-3 3-3h6c1.654 0 3 1.346 3 3v6H2z" fill="#242424"/><path d="M13 10v5H3v-5a2 2 0 0 1 2-2h6a2 2 0 0 1 2 2z" fill="#C4C4C4"/><path d="M6 8l2 3 2-3H6z" fill="#282828"/><path d="M12 4a4 4 0 1 1-8 0 4 4 0 0 1 8 0z" fill="#242424"/><path d="M5 4a3 3 0 1 1 6 0 3 3 0 0 1-6 0z" fill="#C4C4C4"/></g></svg>