<svg ti:v="1" width="16" height="16" viewBox="0 0 16 16" xmlns="http://www.w3.org/2000/svg" xmlns:ti="urn:schemas-jetbrains-com:tisvg"><rect id="frame" width="16" height="16" fill="none"/><g fill-rule="evenodd"><path d="M0 11V7c0-1.103.897-2 2-2h3c1.103 0 2 .897 2 2v4H0z" fill="#242424"/><path d="M6 7v3H1V7a1 1 0 0 1 1-1h3a1 1 0 0 1 1 1z" fill="#C4C4C4"/><path d="M6 3.5a2.5 2.5 0 1 1-5 0 2.5 2.5 0 0 1 5 0z" fill="#242424"/><path d="M3.5 2a1.5 1.5 0 1 0 0 3 1.5 1.5 0 0 0 0-3z" fill="#C4C4C4"/><path d="M2 6l1.5 2L5 6H2z" fill="#282828"/><path d="M9 11V7c0-1.103.897-2 2-2h3c1.103 0 2 .897 2 2v4H9z" fill="#242424"/><path d="M15 7v3h-5V7a1 1 0 0 1 1-1h3a1 1 0 0 1 1 1z" fill="#C4C4C4"/><path d="M15 3.5a2.5 2.5 0 1 1-5 0 2.5 2.5 0 0 1 5 0z" fill="#242424"/><path d="M12.5 2a1.5 1.5 0 1 0 0 3 1.5 1.5 0 0 0 0-3z" fill="#C4C4C4"/><path d="M11 6l1.5 2L14 6h-3z" fill="#282828"/><path d="M4 15v-4.666C4 9.047 4.987 8 6.2 8h3.6c1.213 0 2.2 1.047 2.2 2.334V15H4z" fill="#242424"/><path d="M11 10.334V14H5v-3.666C5 9.597 5.537 9 6.2 9h3.6c.663 0 1.2.597 1.2 1.334z" fill="#C4C4C4"/><path d="M11 6a3 3 0 1 1-6 0 3 3 0 0 1 6 0z" fill="#242424"/><path d="M8 4a2 2 0 1 0 0 4 2 2 0 0 0 0-4z" fill="#C4C4C4"/><path d="M6.125 9L8 11.5 9.875 9h-3.75z" fill="#282828"/></g></svg>