<svg ti:v="1" width="16" height="16" viewBox="0 0 16 16" xmlns="http://www.w3.org/2000/svg" xmlns:ti="urn:schemas-jetbrains-com:tisvg"><rect id="frame" width="16" height="16" fill="none"/><linearGradient id="a" x1=".5" y1=".014" x2=".5" y2="1"><stop offset="0" stop-color="#435B80"/><stop offset="1" stop-color="#1C2737"/></linearGradient><path fill-rule="evenodd" d="M2 5C.897 5 0 5.898 0 7v4h7V7c0-1.102-.897-2-2-2H2z" fill="url(#a)"/><linearGradient id="b" x1=".5" y1=".048" x2=".5" y2="1"><stop offset="0" stop-color="#87BEDE"/><stop offset="1" stop-color="#0070C2"/></linearGradient><path fill-rule="evenodd" d="M2 6a1 1 0 0 0-1 1v3h5V7a1 1 0 0 0-1-1H2z" fill="url(#b)"/><path fill-rule="evenodd" d="M6 3.5a2.5 2.5 0 1 1-5 0 2.5 2.5 0 0 1 5 0z" fill="#6E4623"/><linearGradient id="c" x1=".5" y1=".024" x2=".5" y2="1.024"><stop offset="0" stop-color="#FFEABF"/><stop offset="1" stop-color="#FBC658"/></linearGradient><path fill-rule="evenodd" d="M2 3.5a1.5 1.5 0 1 0 3 0 1.5 1.5 0 0 0-3 0z" fill="url(#c)"/><path fill-rule="evenodd" d="M2 6l1.5 2L5 6H2z" fill="#FFF"/><linearGradient id="d" x1=".5" y1=".014" x2=".5" y2="1"><stop offset="0" stop-color="#435B80"/><stop offset="1" stop-color="#1C2737"/></linearGradient><path fill-rule="evenodd" d="M11 5c-1.103 0-2 .898-2 2v4h7V7c0-1.102-.897-2-2-2h-3z" fill="url(#d)"/><linearGradient id="e" x1=".5" y1=".048" x2=".5" y2="1"><stop offset="0" stop-color="#87BEDE"/><stop offset="1" stop-color="#0070C2"/></linearGradient><path fill-rule="evenodd" d="M11 6a1 1 0 0 0-1 1v3h5V7a1 1 0 0 0-1-1h-3z" fill="url(#e)"/><path fill-rule="evenodd" d="M15 3.5a2.5 2.5 0 1 1-5 0 2.5 2.5 0 0 1 5 0z" fill="#6E4623"/><linearGradient id="f" x1=".5" y1=".024" x2=".5" y2="1.024"><stop offset="0" stop-color="#FFEABF"/><stop offset="1" stop-color="#FBC658"/></linearGradient><path fill-rule="evenodd" d="M11 3.5a1.5 1.5 0 1 0 3 0 1.5 1.5 0 0 0-3 0z" fill="url(#f)"/><path fill-rule="evenodd" d="M11 6l1.5 2L14 6h-3z" fill="#FFF"/><linearGradient id="g" x1=".5" y1=".014" x2=".5" y2="1"><stop offset="0" stop-color="#435B80"/><stop offset="1" stop-color="#1C2737"/></linearGradient><path fill-rule="evenodd" d="M6.201 8C4.986 8 4 9.047 4 10.334V15h8v-4.666C12 9.047 11.013 8 9.8 8H6.201z" fill="url(#g)"/><linearGradient id="h" x1=".5" y1=".048" x2=".5" y2="1"><stop offset="0" stop-color="#87BEDE"/><stop offset="1" stop-color="#0070C2"/></linearGradient><path fill-rule="evenodd" d="M6.201 9C5.537 9 5 9.597 5 10.334V14h6v-3.666C11 9.597 10.463 9 9.8 9H6.201z" fill="url(#h)"/><path fill-rule="evenodd" d="M11 6a3 3 0 1 1-6 0 3 3 0 0 1 6 0z" fill="#6E4623"/><linearGradient id="i" x1=".5" y1=".024" x2=".5" y2="1.024"><stop offset="0" stop-color="#FFEABF"/><stop offset="1" stop-color="#FBC658"/></linearGradient><path fill-rule="evenodd" d="M6 6a2 2 0 0 0 4 0 2 2 0 1 0-4 0z" fill="url(#i)"/><path fill-rule="evenodd" d="M6.125 9L8 11.5 9.875 9h-3.75z" fill="#FFF"/></svg>