<svg ti:v="1" width="16" height="16" viewBox="0 0 16 16" xmlns="http://www.w3.org/2000/svg" xmlns:ti="urn:schemas-jetbrains-com:tisvg"><rect id="frame" width="16" height="16" fill="none"/><linearGradient id="a" x1=".5" y1=".009" x2=".5" y2="1.018"><stop offset="0" stop-color="#435B80"/><stop offset="1" stop-color="#1C2737"/></linearGradient><path fill-rule="evenodd" d="M5 7c-1.654 0-3 1.346-3 3v6h12v-6c0-1.654-1.346-3-3-3H5z" fill="url(#a)"/><linearGradient id="b" x1=".5" y1=".009" x2=".5" y2="1.018"><stop offset="0" stop-color="#87BEDE"/><stop offset="1" stop-color="#0070C2"/></linearGradient><path fill-rule="evenodd" d="M5 8a2 2 0 0 0-2 2v5h10v-5a2 2 0 0 0-2-2H5z" fill="url(#b)"/><path fill-rule="evenodd" d="M6 8l2 3 2-3H6z" fill="#FFF"/><path fill-rule="evenodd" d="M12 4a4 4 0 1 1-8 0 4 4 0 0 1 8 0z" fill="#6E4623"/><linearGradient id="c" x1=".5" y1=".01" x2=".5" y2="1.01"><stop offset="0" stop-color="#FFEABF"/><stop offset="1" stop-color="#FBC658"/></linearGradient><path fill-rule="evenodd" d="M5 4a3.001 3.001 0 0 0 6 0 3 3 0 0 0-6 0z" fill="url(#c)"/></svg>