<svg ti:v="1" width="16" height="16" viewBox="0 0 16 16" xmlns="http://www.w3.org/2000/svg" xmlns:ti="urn:schemas-jetbrains-com:tisvg"><rect id="frame" width="16" height="16" fill="none"/><path d="M2.5 15A2.5 2.5 0 0 1 0 12.5v-10A2.5 2.5 0 0 1 2.5 0H6v2h10v13zm0 0" fill="#252525"/><path d="M5 3V1H2.5A1.5 1.5 0 0 0 1 2.5v10A1.5 1.5 0 0 0 2.5 14H15V3zm0 0" fill="#C4C4C4"/><path d="M6 4h8v9H6z" fill="#292929"/><path d="M5 4v8H2.5a.5.5 0 0 0 0 1H6V4zm0 0" fill="#292929"/><path d="M12 9H7V8h5zm0-3H7v1h5zm-2 4H7v1h3zm0 0" fill="#C4C4C4"/><path d="M2.5 2a.5.5 0 0 0-.5.5v8.592c.16-.06.33-.09.5-.092zm0 0" fill="#292929"/><path d="M5 3h1v1H5z" fill="#292929"/></svg>