<svg ti:v="1" width="16" height="16" viewBox="0 0 16 16" xmlns="http://www.w3.org/2000/svg" xmlns:ti="urn:schemas-jetbrains-com:tisvg"><rect id="frame" width="16" height="16" fill="none"/><linearGradient id="a" x1=".003" y1=".5" x2=".996" y2=".5"><stop offset="0" stop-color="#003D63"/><stop offset="1" stop-color="#00144F"/></linearGradient><path d="M2.5 15A2.5 2.5 0 0 1 0 12.5v-10A2.5 2.5 0 0 1 2.5 0H6v2h10v13zm0 0" fill="url(#a)"/><linearGradient id="b" x1="0" y1=".5" x2=".993" y2=".5"><stop offset="0" stop-color="#6BE1FF"/><stop offset="1" stop-color="#57BEFF"/></linearGradient><path d="M5 3V1H2.5A1.5 1.5 0 0 0 1 2.5v10A1.5 1.5 0 0 0 2.5 14H15V3zm0 0" fill="url(#b)"/><path d="M6 4h8v9H6z" fill="#FFF"/><linearGradient id="c" x1="-.486" y1=".5" x2="3.483" y2=".5"><stop offset="0" stop-color="#003D63"/><stop offset="1" stop-color="#00144F"/></linearGradient><path d="M5 4v8H2.5a.5.5 0 0 0 0 1H6V4zm0 0" fill="url(#c)"/><linearGradient id="d" x1="0" y1=".5" x2="1" y2=".5"><stop offset="0" stop-color="#006393"/><stop offset="1" stop-color="#00224F"/></linearGradient><path d="M12 9H7V8h5zm0-3H7v1h5zm-2 4H7v1h3zm0 0" fill="url(#d)"/><linearGradient id="e" x1="0" y1=".5" x2="1" y2=".5"><stop offset="0" stop-color="#F1F9FF"/><stop offset="1" stop-color="#CBEAFF"/></linearGradient><path d="M2.5 2a.5.5 0 0 0-.5.5v8.592c.16-.06.33-.09.5-.092zm0 0" fill="url(#e)"/><linearGradient id="f" x1="-4.945" y1=".5" x2="10.933" y2=".5"><stop offset="0" stop-color="#003D63"/><stop offset="1" stop-color="#00144F"/></linearGradient><path d="M5 3h1v1H5z" fill="url(#f)"/></svg>