<svg xmlns="http://www.w3.org/2000/svg" width="16" height="16" viewBox="0 0 16 16"><rect id="frame" width="16" height="16" fill="none"/><path d="M9.221 2H6.779A30.678 30.678 0 0 0 1 12.024v.436l1.116 1.956A30.327 30.327 0 0 0 8 15a30.327 30.327 0 0 0 5.884-.584L15 12.46v-.436A30.678 30.678 0 0 0 9.221 2z" fill="#252525"/><path d="M14 12.2A29.57 29.57 0 0 0 8.754 3H7.246A29.57 29.57 0 0 0 2 12.2l.754 1.323a28.775 28.775 0 0 0 10.492 0L14 12.2z" fill="#ffca01"/><path d="M8.7 10.2H7.3L7.1 7V5.6h1.8V7zm.1 1H7.2v1.6h1.6z" fill="#292929"/></svg>