<svg ti:v="1" width="16" height="16" viewBox="0 0 16 16" xmlns="http://www.w3.org/2000/svg" xmlns:ti="urn:schemas-jetbrains-com:tisvg"><rect id="frame" width="16" height="16" fill="none"/><linearGradient id="a" x1=".5" y1=".008" x2=".5" y2="1.004"><stop offset="0" stop-color="#956C00"/><stop offset="1" stop-color="#7D4300"/></linearGradient><path d="M9.247 1H6.753A34.04 34.04 0 0 0 1 11.877v.4l1.09 2.083c1.942.423 3.923.637 5.91.64a27.971 27.971 0 0 0 5.91-.64L15 12.276v-.4A34.04 34.04 0 0 0 9.247 1zm0 0" fill="url(#a)"/><linearGradient id="b" x1=".5" y1=".01" x2=".5" y2="1.002"><stop offset="0" stop-color="#FFE000"/><stop offset="1" stop-color="#FFB01F"/></linearGradient><path d="M14 12.031A33.12 33.12 0 0 0 8.754 2H7.246A33.12 33.12 0 0 0 2 12.031l.754 1.443c3.462.701 7.03.701 10.492 0zm0 0" fill="url(#b)"/><path d="M8.7 9.2H7.3l-.2-2.8V5h1.8v1.4zm.1 1.3H7.2v1.6h1.6zm0 0"/></svg>