<svg ti:v="1" width="16" height="16" viewBox="0 0 16 16" xmlns="http://www.w3.org/2000/svg" xmlns:ti="urn:schemas-jetbrains-com:tisvg"><rect id="frame" width="16" height="16" fill="none"/><g fill-rule="evenodd"><path d="M7.108 15A4.113 4.113 0 0 1 3 10.892V7.108c0-.944.32-1.815.858-2.509A2.503 2.503 0 0 1 0 2.5C0 1.12 1.122 0 2.5 0a2.502 2.502 0 0 1 2.098 3.858A4.088 4.088 0 0 1 7.108 3h3.784A4.113 4.113 0 0 1 15 7.108v3.784A4.113 4.113 0 0 1 10.892 15H7.108z" fill="#F4F4F4"/><path d="M2.5 1a1.5 1.5 0 1 1-.001 3.001A1.5 1.5 0 0 1 2.5 1zM4 7.108A3.109 3.109 0 0 1 7.108 4h3.784A3.109 3.109 0 0 1 14 7.108v3.784A3.109 3.109 0 0 1 10.892 14H7.108A3.109 3.109 0 0 1 4 10.892V7.108z" fill="#1AA1E2"/><path d="M6.5 5a1.5 1.5 0 1 1-.001 3.001A1.5 1.5 0 0 1 6.5 5zm4 3a2.5 2.5 0 1 1 0 5 2.5 2.5 0 0 1 0-5z" fill="#FFF"/></g></svg>