<svg ti:v="1" width="16" height="16" viewBox="0 0 16 16" xmlns="http://www.w3.org/2000/svg" xmlns:ti="urn:schemas-jetbrains-com:tisvg"><rect id="frame" width="16" height="16" fill="none"/><linearGradient id="a" x1=".5" y1="0" x2=".5" y2="1"><stop offset="0" stop-color="#004D75"/><stop offset="1" stop-color="#00334F"/></linearGradient><path fill-rule="evenodd" d="M0 2.5C0 3.879 1.122 5 2.5 5a2.47 2.47 0 0 0 1.357-.402A4.093 4.093 0 0 0 3 7.108v3.784A4.113 4.113 0 0 0 7.108 15h3.784A4.113 4.113 0 0 0 15 10.892V7.108A4.113 4.113 0 0 0 10.892 3H7.108a4.08 4.08 0 0 0-2.51.859A2.503 2.503 0 0 0 2.5 0C1.122 0 0 1.12 0 2.5z" fill="url(#a)"/><linearGradient id="b" x1=".5" y1="0" x2=".5" y2="1"><stop offset="0" stop-color="#58C6FF"/><stop offset="1" stop-color="#0093DD"/></linearGradient><path fill-rule="evenodd" d="M1 2.5a1.5 1.5 0 0 0 3 0 1.5 1.5 0 1 0-3 0zM7.108 4A3.108 3.108 0 0 0 4 7.108v3.784A3.109 3.109 0 0 0 7.108 14h3.784A3.109 3.109 0 0 0 14 10.892V7.108A3.108 3.108 0 0 0 10.892 4H7.108z" fill="url(#b)"/><path fill-rule="evenodd" d="M6.5 5a1.5 1.5 0 1 1-.001 3.001A1.5 1.5 0 0 1 6.5 5zm4 3a2.5 2.5 0 1 1 0 5 2.5 2.5 0 0 1 0-5z" fill="#FFF"/></svg>