<svg ti:v="1" width="16" height="16" viewBox="0 0 16 16" xmlns="http://www.w3.org/2000/svg" xmlns:ti="urn:schemas-jetbrains-com:tisvg"><rect id="frame" width="16" height="16" fill="none"/><g fill-rule="evenodd"><path d="M2 15V1h7.414L14 5.586V15H2z" fill="#242424"/><path d="M9 2H3v12h10V6L9 2z" fill="#C3C3C3"/><path d="M9 6V4H5v8h6V6H9z" fill="#292929"/><path d="M4 16c-1.104 0-2-.902-2-2.01v-2.746a4.02 4.02 0 0 1-2-3.467A4.022 4.022 0 0 1 2.664 4h2.672A4.022 4.022 0 0 1 8 7.777a4.02 4.02 0 0 1-2 3.467v2.746C6 15.098 5.104 16 4 16z" fill="#242424"/><path d="M5 5v3H3V5a2.994 2.994 0 0 0-2 2.816c0 1.304.838 2.403 2 2.817V14a1 1 0 1 0 2 0v-3.367a2.994 2.994 0 0 0 2-2.817A2.994 2.994 0 0 0 5 5z" fill="#C3C3C3"/></g></svg>