<svg ti:v="1" width="16" height="16" viewBox="0 0 16 16" xmlns="http://www.w3.org/2000/svg" xmlns:ti="urn:schemas-jetbrains-com:tisvg"><rect id="frame" width="16" height="16" fill="none"/><linearGradient id="a" x1=".5" y1=".003" x2=".5" y2="1.003"><stop offset="0" stop-color="#7C6D48"/><stop offset="1" stop-color="#60492F"/></linearGradient><path fill-rule="evenodd" d="M2 1v14h12V5.586L9.414 1H2z" fill="url(#a)"/><linearGradient id="b" x1=".5" y1=".004" x2=".5" y2="1"><stop offset="0" stop-color="#E2D7BC"/><stop offset="1" stop-color="#E2CCB3"/></linearGradient><path fill-rule="evenodd" d="M3 2v12h10V6L9 2H3z" fill="url(#b)"/><linearGradient id="c" x1=".5" y1=".012" x2=".5" y2="1.006"><stop offset="0" stop-color="#FFF2D3"/><stop offset="1" stop-color="#FFF"/></linearGradient><path fill-rule="evenodd" d="M5 4v8h6V6H9V4H5z" fill="url(#c)"/><linearGradient id="d" x1=".5" y1=".011" x2=".5" y2="1.006"><stop offset="0" stop-color="#1C6D70"/><stop offset="1" stop-color="#043335"/></linearGradient><path fill-rule="evenodd" d="M4 5v1.275A4.53 4.53 0 0 0 1.273 9H0v3h1.273A4.531 4.531 0 0 0 4 14.726V16h3v-1.274A4.531 4.531 0 0 0 9.727 12H11V9H9.727A4.53 4.53 0 0 0 7 6.275V5H4z" fill="url(#d)"/><linearGradient id="e" x1=".5" y1=".013" x2=".5" y2="1"><stop offset="0" stop-color="#31F8FF"/><stop offset="1" stop-color="#00C1CC"/></linearGradient><path fill-rule="evenodd" d="M5 6v3h1V6m.363 2.183a2.466 2.466 0 0 1 1.455 1.453l1.002-.2a3.483 3.483 0 0 0-2.256-2.255M2.181 9.436l1.002.2c.253-.676.777-1.2 1.453-1.453l-.199-1.002a3.48 3.48 0 0 0-2.256 2.255zM8.95 10H7v1h3v-1m-5 1h1v-1H5m-1.949 0H1v1h3v-1m2.363 2.818l.201 1.002a3.487 3.487 0 0 0 2.256-2.256l-1.002-.201a2.466 2.466 0 0 1-1.455 1.455zm-4.182-1.254a3.484 3.484 0 0 0 2.256 2.256l.199-1.002a2.466 2.466 0 0 1-1.453-1.455M5 12v3h1v-3H5z" fill="url(#e)"/></svg>