<svg ti:v="1" width="16" height="16" viewBox="0 0 16 16" xmlns="http://www.w3.org/2000/svg" xmlns:ti="urn:schemas-jetbrains-com:tisvg"><rect id="frame" width="16" height="16" fill="none"/><g fill-rule="evenodd"><path d="M2 15V1h7.414L14 5.586V15H2z" fill="#F4F4F4"/><path d="M9 2H3v12h10V6L9 2z" fill="#313131"/><path d="M9 6V4H5v8h6V6H9z" fill="#EBEBEB"/><path d="M4 16v-1.274A4.531 4.531 0 0 1 1.273 12H0V9h1.273A4.531 4.531 0 0 1 4 6.274V5h3v1.274A4.531 4.531 0 0 1 9.727 9H11v3H9.727A4.531 4.531 0 0 1 7 14.726V16H4z" fill="#F4F4F4"/><path d="M6 10H5v1h1m-1 1v3h1v-3m2.95-2H7v1h3v-1M6 9V6H5v3m-1 1H1v1h3m.637 1.817a2.458 2.458 0 0 1-1.454-1.454l-1.002.201a3.482 3.482 0 0 0 2.255 2.255m1.927-5.636a2.458 2.458 0 0 1 1.454 1.454l1.002-.201a3.482 3.482 0 0 0-2.255-2.255M3.183 9.637a2.458 2.458 0 0 1 1.454-1.454l-.201-1.002a3.482 3.482 0 0 0-2.255 2.255m6.638 2.128a3.482 3.482 0 0 1-2.255 2.255l-.201-1.002a2.458 2.458 0 0 0 1.454-1.454l1.002.201z" fill="#313131"/></g></svg>