<svg ti:v="1" width="16" height="16" viewBox="0 0 16 16" xmlns="http://www.w3.org/2000/svg" xmlns:ti="urn:schemas-jetbrains-com:tisvg"><rect id="frame" width="16" height="16" fill="none"/><linearGradient id="a" x1=".5" y1=".003" x2=".5" y2="1.003"><stop offset="0" stop-color="#7C6D48"/><stop offset="1" stop-color="#60492F"/></linearGradient><path fill-rule="evenodd" d="M2 15V1h7.414L14 5.586V15H2z" fill="url(#a)"/><linearGradient id="b" x1=".5" y1=".004" x2=".5" y2="1"><stop offset="0" stop-color="#E2D7BC"/><stop offset="1" stop-color="#E2CCB3"/></linearGradient><path fill-rule="evenodd" d="M9 2H3v12h10V6L9 2z" fill="url(#b)"/><linearGradient id="c" x1=".5" y1=".012" x2=".5" y2="1.006"><stop offset="0" stop-color="#FFF2D3"/><stop offset="1" stop-color="#FFF"/></linearGradient><path fill-rule="evenodd" d="M9 6V4H5v8h6V6H9z" fill="url(#c)"/><linearGradient id="d" x1=".5" y1=".021" x2=".5" y2="1"><stop offset="0" stop-color="#465B5D"/><stop offset="1" stop-color="#1A7585"/></linearGradient><path fill-rule="evenodd" d="M2.664 4A4.023 4.023 0 0 0 0 7.778c0 1.44.781 2.757 2 3.466v2.746C2 15.097 2.897 16 4 16s2-.903 2-2.01v-2.746a4.022 4.022 0 0 0 2-3.466C8 6.088 6.93 4.571 5.336 4H2.664z" fill="url(#d)"/><linearGradient id="e" x1=".5" y1=".024" x2=".5" y2="1.003"><stop offset="0" stop-color="#BFFFE6"/><stop offset="1" stop-color="#A8D7DF"/></linearGradient><path fill-rule="evenodd" d="M5 8H3V5a2.994 2.994 0 0 0-2 2.816c0 1.304.838 2.402 2 2.816V14a1 1 0 1 0 2 0v-3.368a2.993 2.993 0 0 0 2-2.816A2.994 2.994 0 0 0 5 5v3z" fill="url(#e)"/></svg>