<svg ti:v="1" width="16" height="16" viewBox="0 0 16 16" xmlns="http://www.w3.org/2000/svg" xmlns:ti="urn:schemas-jetbrains-com:tisvg"><rect id="frame" width="16" height="16" fill="none"/><linearGradient id="a" x1=".5" y1=".012" x2=".5" y2="1"><stop offset="0" stop-color="#566980"/><stop offset="1" stop-color="#2D3641"/></linearGradient><path fill-rule="evenodd" d="M16 14H2V1h14v13z" fill="url(#a)"/><linearGradient id="b" x1=".012" y1=".5" x2="1" y2=".5"><stop offset="0" stop-color="#FFF"/><stop offset="1" stop-color="#A7BADB"/></linearGradient><path fill-rule="evenodd" d="M3 13h12V5H3v8z" fill="url(#b)"/><linearGradient id="c" x1=".5" y1=".01" x2=".5" y2="1"><stop offset="0" stop-color="#FFF"/><stop offset="1" stop-color="#A7BADB"/></linearGradient><path fill-rule="evenodd" d="M14 12H4V5h10v7z" fill="url(#c)"/><linearGradient id="d" x1="0" y1=".5" x2="1" y2=".5"><stop offset="0" stop-color="#6D97E6"/><stop offset="1" stop-color="#2F62C7"/></linearGradient><path fill-rule="evenodd" d="M15 5H3V2h12v3z" fill="url(#d)"/><linearGradient id="e" x1=".5" y1=".021" x2=".5" y2="1"><stop offset="0" stop-color="#465B5D"/><stop offset="1" stop-color="#1A7585"/></linearGradient><path fill-rule="evenodd" d="M2.664 4A4.023 4.023 0 0 0 0 7.777c0 1.441.781 2.758 2 3.467v2.746C2 15.098 2.897 16 4 16s2-.902 2-2.01v-2.746a4.023 4.023 0 0 0 2-3.467A4.023 4.023 0 0 0 5.336 4H2.664z" fill="url(#e)"/><linearGradient id="f" x1=".5" y1=".024" x2=".5" y2="1.003"><stop offset="0" stop-color="#BFFFE6"/><stop offset="1" stop-color="#A8D7DF"/></linearGradient><path fill-rule="evenodd" d="M5 8H3V5a2.994 2.994 0 0 0-2 2.816c0 1.304.838 2.403 2 2.817V14a1 1 0 1 0 2 0v-3.367a2.994 2.994 0 0 0 2-2.817A2.994 2.994 0 0 0 5 5v3z" fill="url(#f)"/></svg>