<svg ti:v="1" width="16" height="16" viewBox="0 0 16 16" xmlns="http://www.w3.org/2000/svg" xmlns:ti="urn:schemas-jetbrains-com:tisvg"><rect id="frame" width="16" height="16" fill="none"/><linearGradient id="a" x1=".5" y1=".012" x2=".5" y2="1"><stop offset="0" stop-color="#566980"/><stop offset="1" stop-color="#2D3641"/></linearGradient><path fill-rule="evenodd" d="M2 14h13.999V.999H2V14z" fill="url(#a)"/><linearGradient id="b" x1=".012" y1=".5" x2="1" y2=".5"><stop offset="0" stop-color="#FFF"/><stop offset="1" stop-color="#A7BADB"/></linearGradient><path fill-rule="evenodd" d="M3 13h12V5H3v8z" fill="url(#b)"/><linearGradient id="c" x1=".5" y1=".01" x2=".5" y2="1"><stop offset="0" stop-color="#FFF"/><stop offset="1" stop-color="#A7BADB"/></linearGradient><path fill-rule="evenodd" d="M4 12h10V5.001H4V12z" fill="url(#c)"/><linearGradient id="d" x1="0" y1=".5" x2="1" y2=".5"><stop offset="0" stop-color="#6D97E6"/><stop offset="1" stop-color="#2F62C7"/></linearGradient><path fill-rule="evenodd" d="M3 5h12V1.999H3V5z" fill="url(#d)"/><linearGradient id="e" x1=".5" y1=".011" x2=".5" y2="1.006"><stop offset="0" stop-color="#1C6D70"/><stop offset="1" stop-color="#043335"/></linearGradient><path fill-rule="evenodd" d="M4 5v1.275A4.527 4.527 0 0 0 1.273 9H0v3h1.273A4.531 4.531 0 0 0 4 14.726V16h3v-1.274A4.531 4.531 0 0 0 9.727 12H11V9H9.727A4.527 4.527 0 0 0 7 6.275V5H4z" fill="url(#e)"/><linearGradient id="f" x1=".5" y1=".013" x2=".5" y2="1"><stop offset="0" stop-color="#31F8FF"/><stop offset="1" stop-color="#00C1CC"/></linearGradient><path fill-rule="evenodd" d="M5 6v3h1V6m.363 2.183a2.466 2.466 0 0 1 1.455 1.453l1.002-.2a3.483 3.483 0 0 0-2.256-2.255M2.181 9.436l1.002.2c.253-.676.777-1.2 1.453-1.453l-.199-1.002a3.48 3.48 0 0 0-2.256 2.255zM8.95 10H7v1h3v-1m-5 1h1v-1H5m-1.949 0H1v1h3v-1m2.363 2.818l.201 1.001a3.483 3.483 0 0 0 2.256-2.255l-1.002-.201a2.466 2.466 0 0 1-1.455 1.455zm-4.182-1.254a3.48 3.48 0 0 0 2.256 2.255l.199-1.001a2.466 2.466 0 0 1-1.453-1.455M5 12v3h1v-3H5z" fill="url(#f)"/></svg>