<svg ti:v="1" width="16" height="16" viewBox="0 0 16 16" xmlns="http://www.w3.org/2000/svg" xmlns:ti="urn:schemas-jetbrains-com:tisvg"><rect id="frame" width="16" height="16" fill="none"/><path d="M2 5h13v8H2zm0 0" fill="#F4F4F4"/><path d="M3 5h11v7H3zm0 0" fill="#EBEBEB"/><path d="M2 2h13v3H2zm0 0" fill="#F4F4F4"/><path d="M11 4h1V3h-1zm2 0h1V3h-1zM9 4h1V3H9zM7 4h1V3H7zM5 4h1V3H5zM3 4h1V3H3zm0 0" fill="#323232"/><path d="M12 4h1v1h-1zm2 0h1v1h-1zm-4 1h1V4h-1zM8 5h1V4H8zM6 5h1V4H6zM4 5h1V4H4zM2 5h1V4H2zm0 0" fill="#323232"/><path d="M12 3h1V2h-1zm2 0h1V2h-1zm-4 0h1V2h-1zM8 3h1V2H8zM6 3h1V2H6zM4 3h1V2H4zM2 3h1V2H2zm0 0" fill="#323232"/><path d="M15 8v1h-1V8zm-1 2v1h1v-1zm0-4v1h1V6zM2 8v1h1V8zm0 2v1h1v-1zm0-4v1h1V6zm12 7h1v-1h-1zm-2 0h1v-1h-1zm-2 0h1v-1h-1zm-2 0h1v-1H8zm-2 0h1v-1H6zm-2 0h1v-1H4zm-2 0h1v-1H2zm0 0" fill="#323232"/><path d="M10 11a5 5 0 1 1-10 0 5 5 0 0 1 10 0z" fill="#F4F4F4"/><path d="M9 11a4 4 0 1 1-8 0 4 4 0 0 1 8 0z" fill="#1BA1E2"/><path d="M5 11V8H4v4h4v-1H5z" fill="#EBEBEB"/></svg>