<svg ti:v="1" width="16" height="16" viewBox="0 0 16 16" xmlns="http://www.w3.org/2000/svg" xmlns:ti="urn:schemas-jetbrains-com:tisvg"><rect id="frame" width="16" height="16" fill="none"/><linearGradient id="a" x1=".012" y1=".5" x2="1" y2=".5"><stop offset="0" stop-color="#E7F0FF"/><stop offset="1" stop-color="#D8E7FF"/></linearGradient><path d="M2 5h13v8H2zm0 0" fill="url(#a)"/><path d="M3 5h11v7H3zm0 0" fill="#FFF"/><linearGradient id="b" x1=".01" y1=".5" x2=".997" y2=".5"><stop offset="0" stop-color="#D0EDFF"/><stop offset="1" stop-color="#CBDCFF"/></linearGradient><path d="M2 2h13v3H2zm0 0" fill="url(#b)"/><linearGradient id="c" x1="-.091" y1=".5" x2="1.089" y2=".5"><stop offset="0" stop-color="#2260A7"/><stop offset="1" stop-color="#255486"/></linearGradient><path d="M11 4h1V3h-1zm2 0h1V3h-1zM9 4h1V3H9zM7 4h1V3H7zM5 4h1V3H5zM3 4h1V3H3zm0 0" fill="url(#c)"/><linearGradient id="d" x1="0" y1=".5" x2=".998" y2=".5"><stop offset="0" stop-color="#2260A7"/><stop offset="1" stop-color="#255486"/></linearGradient><path d="M12 4h1v1h-1zm2 0h1v1h-1zm-4 1h1V4h-1zM8 5h1V4H8zM6 5h1V4H6zM4 5h1V4H4zM2 5h1V4H2zm0 0" fill="url(#d)"/><linearGradient id="e" x1="0" y1=".5" x2=".998" y2=".5"><stop offset="0" stop-color="#2260A7"/><stop offset="1" stop-color="#255486"/></linearGradient><path d="M12 3h1V2h-1zm2 0h1V2h-1zm-4 0h1V2h-1zM8 3h1V2H8zM6 3h1V2H6zM4 3h1V2H4zM2 3h1V2H2zm0 0" fill="url(#e)"/><linearGradient id="f" x1=".5" y1=".012" x2=".5" y2="1"><stop offset="0" stop-color="#2260A7"/><stop offset="1" stop-color="#152A42"/></linearGradient><path d="M15 8v1h-1V8zm-1 2v1h1v-1zm0-4v1h1V6zM2 8v1h1V8zm0 2v1h1v-1zm0-4v1h1V6zm12 7h1v-1h-1zm-2 0h1v-1h-1zm-2 0h1v-1h-1zm-2 0h1v-1H8zm-2 0h1v-1H6zm-2 0h1v-1H4zm-2 0h1v-1H2zm0 0" fill="url(#f)"/><linearGradient id="g" x1=".5" y1=".015" x2=".5" y2="1.008"><stop offset="0" stop-color="#445C80"/><stop offset="1" stop-color="#1D2838"/></linearGradient><path d="M10 11a5 5 0 1 1-10 0 5 5 0 0 1 10 0z" fill="url(#g)"/><linearGradient id="h" x1=".5" y1=".021" x2=".5" y2="1"><stop offset="0" stop-color="#86BDDD"/><stop offset="1" stop-color="#0071C1"/></linearGradient><path d="M9 11a4 4 0 1 1-8 0 4 4 0 0 1 8 0z" fill="url(#h)"/><path d="M5 11V8H4v4h4v-1H5z" fill="#FFF"/></svg>