<svg ti:v="1" width="16" height="16" viewBox="0 0 16 16" xmlns="http://www.w3.org/2000/svg" xmlns:ti="urn:schemas-jetbrains-com:tisvg"><rect id="frame" width="16" height="16" fill="none"/><path d="M5 1h7v3H5z" fill="#F4F4F4"/><path d="M1 4h15v10H1z" fill="#F4F4F4"/><path d="M15 5v3H2V5zM2 9v4h13V9zm0 0" fill="#323232"/><path d="M5 10.5a.5.5 0 0 1-.5-.5V8a.5.5 0 0 1 .5-.5h1a.5.5 0 0 1 .5.5v2a.5.5 0 0 1-.5.5zm0 0" fill="#EBEBEB"/><path d="M5 8h1v1H5z" fill="#323232"/><path d="M11 10.5a.5.5 0 0 1-.5-.5V8a.5.5 0 0 1 .5-.5h1a.5.5 0 0 1 .5.5v2a.5.5 0 0 1-.5.5zm0 0" fill="#EBEBEB"/><path d="M11 8h1v1h-1z" fill="#323232"/><path d="M2 5h13v1H2z" fill="#323232"/><path d="M6 2v2h1V3h3v1h1V2H6z" fill="#323232"/></svg>