<svg ti:v="1" width="16" height="16" viewBox="0 0 16 16" xmlns="http://www.w3.org/2000/svg" xmlns:ti="urn:schemas-jetbrains-com:tisvg"><rect id="frame" width="16" height="16" fill="none"/><linearGradient id="a" x1=".5" y1=".014" x2=".5" y2="1.01"><stop offset="0" stop-color="#0079B5"/><stop offset="1" stop-color="#005078"/></linearGradient><path d="M5 1h7v3H5z" fill="url(#a)"/><linearGradient id="b" x1=".5" y1=".014" x2=".5" y2="1.01"><stop offset="0" stop-color="#784800"/><stop offset="1" stop-color="#571A00"/></linearGradient><path d="M1 4h15v10H1z" fill="url(#b)"/><linearGradient id="c" x1=".5" y1=".008" x2=".5" y2="1.018"><stop offset="0" stop-color="#FF8F40"/><stop offset="1" stop-color="#D65900"/></linearGradient><path d="M15 5v3H2V5zM2 9v4h13V9zm0 0" fill="url(#c)"/><path d="M5 10.5a.5.5 0 0 1-.5-.5V8a.5.5 0 0 1 .5-.5h1a.5.5 0 0 1 .5.5v2a.5.5 0 0 1-.5.5zm0 0" fill="#693400"/><linearGradient id="d" x1=".5" y1="0" x2=".5" y2="1.027"><stop offset="0" stop-color="#DEFEFF"/><stop offset="1" stop-color="#00D5FF"/></linearGradient><path d="M5 8h1v1H5z" fill="url(#d)"/><path d="M11 10.5a.5.5 0 0 1-.5-.5V8a.5.5 0 0 1 .5-.5h1a.5.5 0 0 1 .5.5v2a.5.5 0 0 1-.5.5zm0 0" fill="#693400"/><linearGradient id="e" x1=".5" y1="0" x2=".5" y2="1.027"><stop offset="0" stop-color="#DEFEFF"/><stop offset="1" stop-color="#00D5FF"/></linearGradient><path d="M11 8h1v1h-1z" fill="url(#e)"/><path d="M2 5h13v1H2z" fill="#FFC9A3"/><linearGradient id="f" x1=".5" y1=".032" x2=".5" y2="1.049"><stop offset="0" stop-color="#DEFEFF"/><stop offset="1" stop-color="#00D5FF"/></linearGradient><path d="M6 2v2h1V3h3v1h1V2H6z" fill="url(#f)"/></svg>