<svg ti:v="1" width="16" height="16" viewBox="0 0 16 16" xmlns="http://www.w3.org/2000/svg" xmlns:ti="urn:schemas-jetbrains-com:tisvg"><rect id="frame" width="16" height="16" fill="none"/><path d="M1 15V3h6.586l2-2H16v14H1z" fill="#252525"/><path d="M15 14V2h-5L8 4H2v10h13z" fill="#E9A755"/><path d="M3 6h11v7H3z" fill="#292929"/><path d="M3 6h5v2H3z" fill="#252525"/><path d="M0 8h11v8H0z" fill="#252525"/><path d="M4 7h3v1H4z" fill="#43C2FF"/><path d="M10 9v2H1V9zm-9 3v3h9v-3zm0 0" fill="#43C2FF"/><path d="M3 13.5a.5.5 0 0 1-.5-.5v-2a.5.5 0 0 1 .5-.5h1a.5.5 0 0 1 .5.5v2a.5.5 0 0 1-.5.5zm0 0" fill="#292929"/><path d="M3 11h1v1H3z" fill="#43C2FF"/><path d="M7 13.5a.5.5 0 0 1-.5-.5v-2a.5.5 0 0 1 .5-.5h1a.5.5 0 0 1 .5.5v2a.5.5 0 0 1-.5.5zm0 0" fill="#292929"/><path d="M7 11h1v1H7z" fill="#43C2FF"/><path d="M1 9h9v1H1z" fill="#43C2FF"/></svg>