<svg ti:v="1" width="16" height="16" viewBox="0 0 16 16" xmlns="http://www.w3.org/2000/svg" xmlns:ti="urn:schemas-jetbrains-com:tisvg"><rect id="frame" width="16" height="16" fill="none"/><linearGradient id="a" x1=".5" y1=".002" x2=".5" y2=".996"><stop offset="0" stop-color="#C28C21"/><stop offset="1" stop-color="#634933"/></linearGradient><path d="M1 15V3h6.586l2-2H16v14H1z" fill="url(#a)"/><linearGradient id="b" x1=".5" y1=".002" x2=".5" y2=".996"><stop offset="0" stop-color="#FFE9BD"/><stop offset="1" stop-color="#D4A24C"/></linearGradient><path d="M15 14V2h-5L8 4H2v10h13z" fill="url(#b)"/><linearGradient id="c" x1=".5" y1=".002" x2=".5" y2=".996"><stop offset="0" stop-color="#B88143"/><stop offset="1" stop-color="#8A4717"/></linearGradient><path d="M3 6h11v7H3z" fill="url(#c)"/><linearGradient id="d" x1=".5" y1=".015" x2=".5" y2="1.01"><stop offset="0" stop-color="#0079B5"/><stop offset="1" stop-color="#005078"/></linearGradient><path d="M3 6h5v2H3z" fill="url(#d)"/><linearGradient id="e" x1=".5" y1=".014" x2=".5" y2="1.01"><stop offset="0" stop-color="#784800"/><stop offset="1" stop-color="#571A00"/></linearGradient><path d="M0 8h11v8H0z" fill="url(#e)"/><linearGradient id="f" x1=".5" y1=".032" x2=".5" y2="1.049"><stop offset="0" stop-color="#DEFEFF"/><stop offset="1" stop-color="#00D5FF"/></linearGradient><path d="M4 7h3v1H4z" fill="url(#f)"/><linearGradient id="g" x1=".5" y1=".008" x2=".5" y2="1.018"><stop offset="0" stop-color="#FF8F40"/><stop offset="1" stop-color="#D65900"/></linearGradient><path d="M10 9v2H1V9zm-9 3v3h9v-3zm0 0" fill="url(#g)"/><path d="M3 13.5a.5.5 0 0 1-.5-.5v-2a.5.5 0 0 1 .5-.5h1a.5.5 0 0 1 .5.5v2a.5.5 0 0 1-.5.5zm0 0" fill="#693400"/><linearGradient id="h" x1=".5" y1="0" x2=".5" y2="1.027"><stop offset="0" stop-color="#DEFEFF"/><stop offset="1" stop-color="#00D5FF"/></linearGradient><path d="M3 11h1v1H3z" fill="url(#h)"/><path d="M7 13.5a.5.5 0 0 1-.5-.5v-2a.5.5 0 0 1 .5-.5h1a.5.5 0 0 1 .5.5v2a.5.5 0 0 1-.5.5zm0 0" fill="#693400"/><linearGradient id="i" x1=".5" y1="0" x2=".5" y2="1.027"><stop offset="0" stop-color="#DEFEFF"/><stop offset="1" stop-color="#00D5FF"/></linearGradient><path d="M7 11h1v1H7z" fill="url(#i)"/><path d="M1 9h9v1H1z" fill="#FFC9A3"/></svg>