<svg ti:v="1" width="16" height="16" viewBox="0 0 16 16" xmlns="http://www.w3.org/2000/svg" xmlns:ti="urn:schemas-jetbrains-com:tisvg"><rect id="frame" width="16" height="16" fill="none"/><linearGradient id="a" x1=".236" y1=".236" x2=".766" y2=".766"><stop offset="0" stop-color="#2D4866"/><stop offset="1" stop-color="#192737"/></linearGradient><path fill-rule="evenodd" d="M12 8.414v-.828L6.414 2h-.828L0 7.586v.828L5.586 14h.828L12 8.414z" fill="url(#a)"/><linearGradient id="b" x1=".208" y1=".792" x2=".792" y2=".208"><stop offset="0" stop-color="#FFF"/><stop offset="1" stop-color="#A7BADB"/></linearGradient><path fill-rule="evenodd" d="M11 8L7.414 4.414l-5 5L6 13l5-5z" fill="url(#b)"/><linearGradient id="c" x1=".287" y1=".287" x2=".722" y2=".722"><stop offset="0" stop-color="#FFF"/><stop offset="1" stop-color="#A7BADB"/></linearGradient><path fill-rule="evenodd" d="M3.121 8.707l3.586-3.586L9.586 8 6 11.586 3.121 8.707z" fill="url(#c)"/><linearGradient id="d" x1=".115" y1=".885" x2=".907" y2=".093"><stop offset="0" stop-color="#89D3FF"/><stop offset="1" stop-color="#6095FF"/></linearGradient><path fill-rule="evenodd" d="M6 3L1 8l1.414 1.414 5-5L6 3z" fill="url(#d)"/><linearGradient id="e" x1=".236" y1=".236" x2=".766" y2=".766"><stop offset="0" stop-color="#2D4866"/><stop offset="1" stop-color="#192737"/></linearGradient><path fill-rule="evenodd" d="M10.414 2h-.828L7.293 4.293l.121.121L4 7.828v.586L9.586 14h.828L16 8.414v-.828L10.414 2z" fill="url(#e)"/><linearGradient id="f" x1=".208" y1=".792" x2=".792" y2=".208"><stop offset="0" stop-color="#FFF"/><stop offset="1" stop-color="#A7BADB"/></linearGradient><path fill-rule="evenodd" d="M15 8l-3.586-3.586-5 5L10 13l5-5z" fill="url(#f)"/><linearGradient id="g" x1=".287" y1=".287" x2=".722" y2=".722"><stop offset="0" stop-color="#FFF"/><stop offset="1" stop-color="#A7BADB"/></linearGradient><path fill-rule="evenodd" d="M7.121 8.707l3.586-3.586L13.586 8 10 11.586 7.121 8.707z" fill="url(#g)"/><linearGradient id="h" x1=".115" y1=".885" x2=".907" y2=".093"><stop offset="0" stop-color="#89D3FF"/><stop offset="1" stop-color="#6095FF"/></linearGradient><path fill-rule="evenodd" d="M10 3L5 8l1.414 1.414 5-5L10 3z" fill="url(#h)"/></svg>