<svg ti:v="1" width="16" height="16" viewBox="0 0 16 16" xmlns="http://www.w3.org/2000/svg" xmlns:ti="urn:schemas-jetbrains-com:tisvg"><rect id="frame" width="16" height="16" fill="none"/><g fill-rule="evenodd"><path d="M12 8.414v-.828L6.414 2h-.828L0 7.586v.828L5.586 14h.828L12 8.414z" fill="#242424"/><path d="M11 8L7.414 4.414l-5 5L6 13l5-5z" fill="#C3C3C3"/><path d="M3.121 8.707l3.586-3.586L9.586 8 6 11.586 3.121 8.707z" fill="#282828"/><path d="M6 3L1 8l1.414 1.414 5-5L6 3z" fill="#C3C3C3"/><path d="M10.414 2h-.828L7.293 4.293l.121.121L4 7.828v.586L9.586 14h.828L16 8.414v-.828L10.414 2z" fill="#242424"/><path d="M15 8l-3.586-3.586-5 5L10 13l5-5z" fill="#C3C3C3"/><path d="M7.121 8.707l3.586-3.586L13.586 8 10 11.586 7.121 8.707z" fill="#282828"/><path d="M10 3L5 8l1.414 1.414 5-5L10 3z" fill="#C3C3C3"/></g></svg>