<svg ti:v="1" width="16" height="16" viewBox="0 0 16 16" xmlns="http://www.w3.org/2000/svg" xmlns:ti="urn:schemas-jetbrains-com:tisvg"><rect id="frame" width="16" height="16" fill="none"/><path d="M1 15V3h6.586l2-2H16v14H1z" fill="#F4F4F4"/><path d="M15 14V2h-5L8 4H2v10h13z" fill="#C7781A"/><path d="M3 6h11v7H3z" fill="#EBEBEB"/><path fill-rule="evenodd" d="M8.646 6l-3.95 2.863L2.06 7.338 0 8.68v4.64l2.06 1.342 2.636-1.525L8.646 16h.623L12 14.206V7.794L9.269 6h-.623z" fill="#F4F4F4"/><path fill-rule="evenodd" d="M8.97 7l-4.213 3.054-2.666-1.543L1 9.222v3.556l1.091.711 2.666-1.543L8.97 15 11 13.667V8.333L8.97 7z" fill="#642E8D"/><path fill-rule="evenodd" d="M2.091 11.987v-1.974L3.452 11zm6.879.505V9.508L6.392 11zm0 0" fill="#EBEBEB"/></svg>