<svg ti:v="1" width="16" height="16" viewBox="0 0 16 16" xmlns="http://www.w3.org/2000/svg" xmlns:ti="urn:schemas-jetbrains-com:tisvg"><rect id="frame" width="16" height="16" fill="none"/><linearGradient id="a" x1=".5" y1=".002" x2=".5" y2=".996"><stop offset="0" stop-color="#C28C21"/><stop offset="1" stop-color="#634933"/></linearGradient><path d="M1 15V3h6.586l2-2H16v14H1z" fill="url(#a)"/><linearGradient id="b" x1=".5" y1=".002" x2=".5" y2=".996"><stop offset="0" stop-color="#FFE9BD"/><stop offset="1" stop-color="#D4A24C"/></linearGradient><path d="M15 14V2h-5L8 4H2v10h13z" fill="url(#b)"/><linearGradient id="c" x1=".5" y1=".002" x2=".5" y2=".996"><stop offset="0" stop-color="#B88143"/><stop offset="1" stop-color="#8A4717"/></linearGradient><path d="M3 6h11v7H3z" fill="url(#c)"/><linearGradient id="d" x1=".5" y1="0" x2=".5" y2="1"><stop offset="0" stop-color="#663887"/><stop offset="1" stop-color="#260A3B"/></linearGradient><path fill-rule="evenodd" d="M8.646 6l-3.95 2.863L2.06 7.338 0 8.68v4.64l2.06 1.342 2.636-1.525L8.646 16h.623L12 14.206V7.794L9.269 6h-.623z" fill="url(#d)"/><linearGradient id="e" x1=".5" y1="0" x2=".5" y2="1"><stop offset="0" stop-color="#EBCFFF"/><stop offset="1" stop-color="#C982FF"/></linearGradient><path fill-rule="evenodd" d="M8.97 7l-4.213 3.054-2.666-1.543L1 9.222v3.556l1.091.711 2.666-1.543L8.97 15 11 13.667V8.333L8.97 7z" fill="url(#e)"/><linearGradient id="f" x1=".5" y1="0" x2=".5" y2="1"><stop offset="0" stop-color="#663887"/><stop offset="1" stop-color="#260A3B"/></linearGradient><path fill-rule="evenodd" d="M2.091 11.987v-1.974L3.452 11zm6.879.505V9.508L6.392 11zm0 0" fill="url(#f)"/></svg>