<svg ti:v="1" width="16" height="16" viewBox="0 0 16 16" xmlns="http://www.w3.org/2000/svg" xmlns:ti="urn:schemas-jetbrains-com:tisvg"><rect id="frame" width="16" height="16" fill="none"/><path d="M0 0h16v16H0z" fill="#252525"/><path d="M1 1h14v14H1z" fill="#C4C4C4"/><path d="M9.393 12.178a3.462 3.462 0 0 0-.414-.994l.959-1.231a5 5 0 0 0-.89-.89l-1.232.958a3.479 3.479 0 0 0-.994-.414L6.63 8.065A4.854 4.854 0 0 0 6 8c-.211.008-.422.03-.63.065l-.192 1.542c-.35.086-.686.225-.994.414l-1.232-.958a5 5 0 0 0-.89.89l.96 1.231c-.19.307-.33.643-.415.994L2 12.254v1.493l.607.075c.015.062.041.118.059.178h6.668c.018-.06.044-.116.059-.178l1.544-.191c.034-.209.055-.42.063-.631a5.037 5.037 0 0 0-.063-.629zm0 0" fill="#292929"/><path d="M6 11a1.988 1.988 0 0 0-1.723 3h3.446A1.988 1.988 0 0 0 6 11zm0 0" fill="#C4C4C4"/><path d="M7 13a1 1 0 1 1-2 0 1 1 0 0 1 2 0z" fill="#292929"/><path d="M6.607 3.822c.085.35.225.686.414.994l-.959 1.231a5 5 0 0 0 .89.89l1.232-.958c.308.189.643.328.994.414l.192 1.542c.208.035.419.057.63.065.211-.008.422-.03.63-.065l.192-1.542c.35-.086.686-.225.994-.414l1.232.958a5 5 0 0 0 .89-.89l-.96-1.231c.19-.307.33-.643.415-.994L14 3.746V2.253l-.607-.075c-.015-.062-.041-.118-.059-.178H6.666c-.018.06-.044.116-.059.178l-1.544.191c-.034.209-.055.42-.063.631.008.21.029.42.063.629zm0 0" fill="#292929"/><path d="M10 5a1.988 1.988 0 0 0 1.723-3H8.277A1.988 1.988 0 0 0 10 5zm0 0" fill="#C4C4C4"/><path d="M11 3a1 1 0 1 1-2 0 1 1 0 0 1 2 0z" fill="#292929"/></svg>