<svg ti:v="1" width="16" height="16" viewBox="0 0 16 16" xmlns="http://www.w3.org/2000/svg" xmlns:ti="urn:schemas-jetbrains-com:tisvg"><rect id="frame" width="16" height="16" fill="none"/><linearGradient id="a" x1=".5" y1=".002" x2=".5" y2="1.003"><stop offset="0" stop-color="#486C99"/><stop offset="1" stop-color="#273D5A"/></linearGradient><path d="M1 1h14v14H1z" fill="url(#a)"/><linearGradient id="b" x1=".5" y1=".002" x2=".5" y2="1.003"><stop offset="0" stop-color="#182638"/><stop offset="1" stop-color="#263C59"/></linearGradient><path d="M2 2h12v12H2z" fill="url(#b)"/><linearGradient id="c" x1=".5" y1="0" x2=".5" y2="1"><stop offset="0" stop-color="#FFE299"/><stop offset="1" stop-color="#FFDD8A"/></linearGradient><path d="M10.937 12.371c.034.208.055.418.063.629a5.032 5.032 0 0 1-.063.631l-1.544.191c-.015.062-.041.118-.059.178H2.666c-.018-.06-.044-.116-.059-.178L2 13.747v-1.493l.607-.076c.085-.351.225-.687.415-.994l-.96-1.231a5 5 0 0 1 .89-.89l1.232.958c.308-.189.643-.328.994-.414l.192-1.542c.208-.035.419-.057.63-.065.211.008.422.03.63.065l.192 1.542c.35.086.686.225.994.414l1.232-.958a5 5 0 0 1 .89.89l-.959 1.231c.189.308.329.643.414.994zm-4.33-8.549c.085.35.225.686.414.994l-.959 1.231a5 5 0 0 0 .89.89l1.232-.958c.308.189.643.328.994.414l.192 1.542c.208.035.419.057.63.065.211-.008.422-.03.63-.065l.192-1.542c.35-.086.686-.225.994-.414l1.232.958a5 5 0 0 0 .89-.89l-.96-1.231c.19-.307.33-.643.415-.994L14 3.746V2.253l-.607-.075c-.015-.062-.041-.118-.059-.178H6.666c-.018.06-.044.116-.059.178l-1.544.191c-.034.209-.055.42-.063.631.008.21.029.42.063.629zm0 0" fill="url(#c)"/><linearGradient id="d" x1=".5" y1="0" x2=".5" y2="1"><stop offset="0" stop-color="#5C4200"/><stop offset="1" stop-color="#806C00"/></linearGradient><path d="M6 11a1.988 1.988 0 0 0-1.723 3h3.446A1.988 1.988 0 0 0 6 11zm0 0" fill="url(#d)"/><path d="M7 13a1 1 0 1 1-2 0 1 1 0 0 1 2 0z" fill="#FFDF8F"/><linearGradient id="e" x1=".5" y1="0" x2=".5" y2="1"><stop offset="0" stop-color="#5C4200"/><stop offset="1" stop-color="#806C00"/></linearGradient><path d="M10 5a1.988 1.988 0 0 0 1.723-3H8.277A1.988 1.988 0 0 0 10 5zm0 0" fill="url(#e)"/><path d="M11 3a1 1 0 1 1-2 0 1 1 0 0 1 2 0z" fill="#FFDF8F"/></svg>