<svg ti:v="1" width="16" height="16" viewBox="0 0 16 16" xmlns="http://www.w3.org/2000/svg" xmlns:ti="urn:schemas-jetbrains-com:tisvg"><rect id="frame" width="16" height="16" fill="none"/><linearGradient id="a" x1=".5" y1=".007" x2=".5" y2="1.004"><stop offset="0" stop-color="#992784"/><stop offset="1" stop-color="#650947"/></linearGradient><path fill-rule="evenodd" d="M1 15h14V1H1v14z" fill="url(#a)"/><linearGradient id="b" x1=".5" y1=".008" x2=".5" y2="1.008"><stop offset="0" stop-color="#FFE6F7"/><stop offset="1" stop-color="#E3A3FF"/></linearGradient><path fill-rule="evenodd" d="M2 14h12V2H2v12z" fill="url(#b)"/><linearGradient id="c" x1=".5" y1=".005" x2=".5" y2=".995"><stop offset="0" stop-color="#992784"/><stop offset="1" stop-color="#650947"/></linearGradient><path fill-rule="evenodd" d="M5 5v1h1.375S6.579 4.641 8 4.641c.495 0 .937.327 1 .562V6c0 1-2 2-2 4h1.406C8.406 9.406 11 7.188 11 5.5 11 3.672 9.738 3 8 3s-3 .842-3 2zm2 8h2.001v-2H7v2z" fill="url(#c)"/></svg>