<svg ti:v="1" width="16" height="16" viewBox="0 0 16 16" xmlns="http://www.w3.org/2000/svg" xmlns:ti="urn:schemas-jetbrains-com:tisvg"><rect id="frame" width="16" height="16" fill="none"/><g fill-rule="evenodd"><path d="M2 5h13v8H2V5z" fill="#F4F4F4"/><path d="M3 5h11v7H3V5z" fill="#EBEBEB"/><path d="M2 2h13v3H2V2z" fill="#F4F4F4"/><path d="M13 4h1V3h-1m-2 1h1.001V3H11M9 4h1V3H9M7 4h1V3H7M5 4h1V3H5M3 4h1V3H3v1z" fill="#313131"/><path d="M14 5h1V4h-1m-2 1h1V4h-1m-2 1h1V4h-1M8 5h1V4H8M6 5h1V4H6M4 5h1V4H4M2 5h1.001V4H2v1z" fill="#313131"/><path d="M14 3h1V2h-1m-2 1h1V2h-1m-2 1h1V2h-1M8 3h1V2H8M6 3h1V2H6M4 3h1V2H4M2 3h1.001V2H2v1z" fill="#313131"/><path d="M2 13h1v-1H2m2 1h1v-1H4m2 1h1v-1H6m2 1h1v-1H8m2 1h1v-1h-1m2 1h1v-1h-1m2 1h1v-1h-1M2 7h1V6H2m0 5h1v-1H2m0-1h1V8H2m12-1h1V6h-1m0 5h1v-1h-1m1-1h-1V8h1v1z" fill="#313131"/></g></svg>