<svg ti:v="1" width="16" height="16" viewBox="0 0 16 16" xmlns="http://www.w3.org/2000/svg" xmlns:ti="urn:schemas-jetbrains-com:tisvg"><rect id="frame" width="16" height="16" fill="none"/><linearGradient id="a" x1=".012" y1=".5" x2="1" y2=".5"><stop offset="0" stop-color="#E8F0FF"/><stop offset="1" stop-color="#D8E8FF"/></linearGradient><path fill-rule="evenodd" d="M2 5h13v8H2V5z" fill="url(#a)"/><path fill-rule="evenodd" d="M3 5h11v7H3V5z" fill="#FFF"/><linearGradient id="b" x1=".01" y1=".5" x2=".997" y2=".5"><stop offset="0" stop-color="#D0EDFF"/><stop offset="1" stop-color="#CDF"/></linearGradient><path fill-rule="evenodd" d="M2 2h13v3H2V2z" fill="url(#b)"/><linearGradient id="c" x1="-.091" y1=".5" x2="1.089" y2=".5"><stop offset="0" stop-color="#215FA8"/><stop offset="1" stop-color="#245487"/></linearGradient><path fill-rule="evenodd" d="M13 4h1V3h-1m-2 1h1V3h-1M9 4h1V3H9M7 4h1V3H7M5 4h1V3H5M3 4h1V3H3v1z" fill="url(#c)"/><linearGradient id="d" x1="0" y1=".5" x2=".998" y2=".5"><stop offset="0" stop-color="#215FA8"/><stop offset="1" stop-color="#245487"/></linearGradient><path fill-rule="evenodd" d="M14 5h1V4h-1m-2 1h1V4h-1m-2 1h1V4h-1M8 5h1.001V4H8M6 5h1V4H6M4 5h1V4H4M2 5h1V4H2v1z" fill="url(#d)"/><linearGradient id="e" x1="0" y1=".5" x2=".998" y2=".5"><stop offset="0" stop-color="#215FA8"/><stop offset="1" stop-color="#245487"/></linearGradient><path fill-rule="evenodd" d="M14 3h1V2h-1m-2 1h1V2h-1m-2 1h1V2h-1M8 3h1.001V2H8M6 3h1V2H6M4 3h1V2H4M2 3h1V2H2v1z" fill="url(#e)"/><linearGradient id="f" x1=".5" y1=".012" x2=".5" y2="1"><stop offset="0" stop-color="#215FA8"/><stop offset="1" stop-color="#142941"/></linearGradient><path fill-rule="evenodd" d="M2 13h1v-1H2m2 1h1v-1H4m2 1h1v-1H6m2 1h1v-1H8m2 1h1v-1h-1m2 1h1v-1h-1m2 1h1v-1h-1M2 7h1V6H2m0 5h1v-1H2m0-1h1V8H2m12-1h1V6h-1m0 5h1v-1h-1m1-1h-1V8h1v1z" fill="url(#f)"/></svg>