<svg ti:v="1" width="16" height="16" viewBox="0 0 16 16" xmlns="http://www.w3.org/2000/svg" xmlns:ti="urn:schemas-jetbrains-com:tisvg"><rect id="frame" width="16" height="16" fill="none"/><path d="M0 1h14v12H0z" fill="#252525"/><path d="M1 2h12v10H1z" fill="#C4C4C4"/><path d="M1 2h12v3H1z" fill="#C4C4C4"/><path d="M2 5h11v7H2z" fill="#292929"/><path d="M15.735 9.64c0-1.276-.87-2.64-3.312-2.64H7.642l-.189.758c-.016.065-.189.758-.411 1.676C6.847 8.491 6.534 7 6.534 7H3v1.14L5.236 16h3L9 13.351V16h3.558C14.617 16 16 14.758 16 12.911a2.609 2.609 0 0 0-.717-1.82c.297-.425.455-.932.452-1.451zm0 0" fill="#252525"/><path d="M9.5 8l-2.016 7H5.991L4 8h1.722s.778 3.7 1.13 5.57h.266C7.5 11.706 8.423 8 8.423 8zm5.5 4.911C15 14.289 13.961 15 12.558 15H10V8h2.423c1.221 0 2.312.425 2.312 1.64a1.676 1.676 0 0 1-1.295 1.582v.019a1.663 1.663 0 0 1 1.56 1.67zM11.541 11h.685a1.031 1.031 0 0 0 1.159-1.07L12.113 9h-.572zm2.184 1.974c0-.671-.568-.974-1.3-.974h-.885v2h.874c.748 0 1.311-.335 1.311-1.026zm0 0" fill="#76BCFF"/><path d="M16 4a4 4 0 1 1-8 0 4 4 0 0 1 8 0z" fill="#252525"/><path d="M15 4a3 3 0 1 1-6 0 3 3 0 0 1 6 0z" fill="#C4C4C4"/><path d="M14 4a2 2 0 1 1-4 0 2 2 0 0 1 4 0z" fill="#292929"/><path d="M13.5 4a1.5 1.5 0 1 1-3 0 1.5 1.5 0 0 1 3 0z" fill="#2BAAE8"/></svg>