<svg xmlns="http://www.w3.org/2000/svg" width="16" height="16" viewBox="0 0 16 16"><rect id="frame" width="16" height="16" fill="none"/><path fill="#f4f4f4" d="M0 1h14v12H0z"/><path fill="#323232" d="M1 2h12v10H1z"/><path fill="#323232" d="M1 2h12v3H1z"/><path fill="#ebebeb" d="M2 5h11v7H2z"/><g><path d="M15.735 8.64c0-1.276-.87-2.64-3.312-2.64H7.642l-.189.758c-.016.065-.189.758-.411 1.676C6.847 7.491 6.534 6 6.534 6H3v1.14L5.236 15h3L9 12.351V15h3.558C14.617 15 16 13.758 16 11.911a2.608 2.608 0 0 0-.717-1.82 2.516 2.516 0 0 0 .452-1.451z" fill="#f4f4f4"/><path d="M9.5 7l-2.016 7H5.991L4 7h1.722s.778 3.7 1.13 5.57h.266C7.5 10.706 8.423 7 8.423 7zm5.5 4.911C15 13.289 13.961 14 12.558 14H10V7h2.423c1.221 0 2.312.425 2.312 1.64a1.676 1.676 0 0 1-1.295 1.582v.019a1.662 1.662 0 0 1 1.56 1.67zM11.541 10h.685a1.031 1.031 0 0 0 1.159-1.07q0-.932-1.272-.93h-.572zm2.184 1.974c0-.671-.568-.974-1.3-.974h-.885v2h.874c.748 0 1.311-.335 1.311-1.026z" fill="#00539c"/></g></svg>