<svg ti:v="1" width="16" height="16" viewBox="0 0 16 16" xmlns="http://www.w3.org/2000/svg" xmlns:ti="urn:schemas-jetbrains-com:tisvg"><rect id="frame" width="16" height="16" fill="none"/><linearGradient id="a" x1=".5" y1=".002" x2=".5" y2=".996"><stop offset="0" stop-color="#576A80"/><stop offset="1" stop-color="#2D3742"/></linearGradient><path d="M0 1h14v12H0z" fill="url(#a)"/><linearGradient id="b" x1="0" y1=".5" x2="1" y2=".5"><stop offset="0" stop-color="#FFF"/><stop offset="1" stop-color="#A6BADA"/></linearGradient><path d="M1 2h12v10H1z" fill="url(#b)"/><linearGradient id="c" x1="0" y1=".5" x2="1" y2=".5"><stop offset="0" stop-color="#6E96E6"/><stop offset="1" stop-color="#2F62C7"/></linearGradient><path d="M1 2h12v3H1z" fill="url(#c)"/><linearGradient id="d" x1=".5" y1="0" x2=".5" y2="1.011"><stop offset="0" stop-color="#FFF"/><stop offset="1" stop-color="#A6BADA"/></linearGradient><path d="M2 5h11v7H2z" fill="url(#d)"/><linearGradient id="e" x1=".5" y1="-.015" x2=".5" y2="1.031"><stop offset="0" stop-color="#E8F8FF"/><stop offset="1" stop-color="#B3E8FF"/></linearGradient><path d="M16 4a4 4 0 1 1-8 0 4 4 0 0 1 8 0z" fill="url(#e)"/><linearGradient id="f" x1=".5" y1="0" x2=".5" y2="1.024"><stop offset="0" stop-color="#263347"/><stop offset="1" stop-color="#446573"/></linearGradient><path d="M15 4a3 3 0 1 1-6 0 3 3 0 0 1 6 0z" fill="url(#f)"/><path d="M14 4a2 2 0 1 1-4 0 2 2 0 0 1 4 0z" fill="#FFF"/><linearGradient id="g" x1=".5" y1="0" x2=".5" y2="1.024"><stop offset="0" stop-color="#00BFFF"/><stop offset="1" stop-color="#008FCF"/></linearGradient><path d="M13.5 4a1.5 1.5 0 1 1-3 0 1.5 1.5 0 0 1 3 0z" fill="url(#g)"/><linearGradient id="h" x1=".5" y1=".006" x2=".5" y2=".994"><stop offset="0" stop-color="#002D54"/><stop offset="1" stop-color="#00539B"/></linearGradient><path d="M15.735 9.64c0-1.276-.87-2.64-3.312-2.64H7.642l-.189.758c-.016.065-.189.758-.411 1.676C6.847 8.491 6.534 7 6.534 7H3v1.14L5.236 16h3L9 13.351V16h3.558C14.617 16 16 14.758 16 12.911a2.609 2.609 0 0 0-.717-1.82c.297-.425.455-.932.452-1.451zm0 0" fill="url(#h)"/><linearGradient id="i" x1=".5" y1="0" x2=".5" y2="1.009"><stop offset="0" stop-color="#CBE7FF"/><stop offset="1" stop-color="#95CDFF"/></linearGradient><path d="M9.5 8l-2.016 7H5.991L4 8h1.722s.778 3.7 1.13 5.57h.266C7.5 11.706 8.423 8 8.423 8zm5.5 4.911C15 14.289 13.961 15 12.558 15H10V8h2.423c1.221 0 2.312.425 2.312 1.64a1.676 1.676 0 0 1-1.295 1.582v.019a1.663 1.663 0 0 1 1.56 1.67zM11.541 11h.685a1.031 1.031 0 0 0 1.159-1.07L12.113 9h-.572zm2.184 1.974c0-.671-.568-.974-1.3-.974h-.885v2h.874c.748 0 1.311-.335 1.311-1.026zm0 0" fill="url(#i)"/></svg>