<svg ti:v="1" width="16" height="16" viewBox="0 0 16 16" xmlns="http://www.w3.org/2000/svg" xmlns:ti="urn:schemas-jetbrains-com:tisvg"><rect id="frame" width="16" height="16" fill="none"/><g fill-rule="evenodd"><path d="M16 14H2V1h14v13z" fill="#F4F4F4"/><path d="M3 13h12V5H3v8z" fill="#313131"/><path d="M14 12H4V5h10v7z" fill="#EBEBEB"/><path d="M15 5H3V2h12v3z" fill="#313131"/><path d="M10.574 12.212a2.74 2.74 0 0 0 .145-.946c0-1.095-.79-2.199-2.547-2.263L6.28 9.001 0 9v1.123l1.024 4.092L1.417 16H8c2.708 0 3-1.748 3-2.5 0-.464-.15-.906-.426-1.288z" fill="#F4F4F4"/><path d="M5 10v1l-1 3-.204 1H2.22L2 14l-1-3v-1h1v1l1 3 1-3v-1m4.797 4H7v-1h1.797c.368 0 .541.224.541.5s-.173.5-.541.5zM7 11h1.516c.312 0 .471.224.471.5s-.159.5-.471.5H7m2.273.352c.2-.209.446-.352.446-1.086 0-.657-.485-1.266-1.719-1.265V10H6v5h2c1.576 0 2-.672 2-1.5 0-.464-.287-.873-.727-1.148z" fill="#00529C"/></g></svg>