<svg ti:v="1" width="16" height="16" viewBox="0 0 16 16" xmlns="http://www.w3.org/2000/svg" xmlns:ti="urn:schemas-jetbrains-com:tisvg"><rect id="frame" width="16" height="16" fill="none"/><linearGradient id="a" x1=".5" y1=".012" x2=".5" y2="1"><stop offset="0" stop-color="#566980"/><stop offset="1" stop-color="#2C3641"/></linearGradient><path fill-rule="evenodd" d="M2 14h13.999V.999H2V14z" fill="url(#a)"/><linearGradient id="b" x1=".012" y1=".5" x2="1" y2=".5"><stop offset="0" stop-color="#FFF"/><stop offset="1" stop-color="#A7BBDB"/></linearGradient><path fill-rule="evenodd" d="M3 13h12V5H3v8z" fill="url(#b)"/><linearGradient id="c" x1=".5" y1=".01" x2=".5" y2="1"><stop offset="0" stop-color="#FFF"/><stop offset="1" stop-color="#A7BBDB"/></linearGradient><path fill-rule="evenodd" d="M4 12h10V5H4v7z" fill="url(#c)"/><linearGradient id="d" x1="0" y1=".5" x2="1" y2=".5"><stop offset="0" stop-color="#6D97E7"/><stop offset="1" stop-color="#2E61C8"/></linearGradient><path fill-rule="evenodd" d="M3 5h12V1.999H3V5z" fill="url(#d)"/><linearGradient id="e" x1=".5" y1=".006" x2=".5" y2=".994"><stop offset="0" stop-color="#002C53"/><stop offset="1" stop-color="#00529C"/></linearGradient><path fill-rule="evenodd" d="M0 10.123l1.024 4.092L1.416 16H8c2.708 0 3-1.748 3-2.5 0-.464-.149-.906-.426-1.288a2.74 2.74 0 0 0 .145-.946c0-1.095-.789-2.199-2.547-2.263l-1.891-.002L0 9v1.123z" fill="url(#e)"/><linearGradient id="f" x1=".5" y1="0" x2=".5" y2="1.009"><stop offset="0" stop-color="#CCE8FF"/><stop offset="1" stop-color="#96CEFF"/></linearGradient><path fill-rule="evenodd" d="M8 10.001V10H6v5h2c1.576 0 2-.672 2-1.5 0-.464-.287-.873-.727-1.149.2-.208.446-.351.446-1.085 0-.657-.485-1.266-1.711-1.266L8 10.001zM7 11h1.515c.313 0 .472.224.472.5s-.159.5-.472.5H7m0 1h1.797c.368 0 .542.224.542.5s-.174.5-.542.5H7m-3-4v1l-1 3-1-3v-1H1v1l1 3 .22 1h1.577L4 14l1-3v-1H4z" fill="url(#f)"/></svg>