<svg xmlns="http://www.w3.org/2000/svg" xmlns:xlink="http://www.w3.org/1999/xlink" width="16" height="16" viewBox="0 0 16 16"><rect id="frame" width="16" height="16" fill="none"/><defs><linearGradient id="c" x1=".916" y1="16.916" x2="1.916" y2="16.916" gradientTransform="matrix(0 11.928 11.928 0 -194.778 -9.908)" gradientUnits="userSpaceOnUse"><stop offset="0" stop-color="#576a80"/><stop offset="1" stop-color="#2d3742"/></linearGradient><linearGradient id="a" x1=".917" y1="17.083" x2="1.917" y2="17.083" gradientTransform="matrix(12 0 0 -12 -10 212)" gradientUnits="userSpaceOnUse"><stop offset="0" stop-color="#fff"/><stop offset="1" stop-color="#a6bada"/></linearGradient><linearGradient id="d" x1=".917" y1="17.083" x2="1.917" y2="17.083" gradientTransform="matrix(12 0 0 -12 -10 208.5)" gradientUnits="userSpaceOnUse"><stop offset="0" stop-color="#6e96e6"/><stop offset="1" stop-color="#2f62c7"/></linearGradient><linearGradient id="e" x1=".859" y1="16.859" x2="1.859" y2="16.859" gradientTransform="matrix(0 7.074 7.074 0 -111.76 -1.074)" xlink:href="#a"/><linearGradient id="f" x1=".893" y1="16.893" x2="1.893" y2="16.893" gradientTransform="matrix(0 9.305 9.305 0 -148.193 -2.156)" gradientUnits="userSpaceOnUse"><stop offset="0" stop-color="#813612"/><stop offset="1" stop-color="#f06421"/></linearGradient><linearGradient id="b" x1=".862" y1="17.07" x2="1.862" y2="17.07" gradientTransform="matrix(0 7.238 7.238 0 -113.045 .879)" gradientUnits="userSpaceOnUse"><stop offset="0" stop-color="#ffe0d0"/><stop offset="1" stop-color="#ffbd81"/></linearGradient><linearGradient id="g" x1=".862" y1="16.448" x2="1.862" y2="16.448" xlink:href="#b"/><linearGradient id="h" x1=".862" y1="17.484" x2="1.862" y2="17.484" xlink:href="#b"/></defs><path fill="url(#c)" d="M0 .999h14V13H0z"/><path fill="url(#a)" d="M1 2h12v10H1z"/><path fill="url(#d)" d="M1 2h12v3H1z"/><path fill="url(#e)" d="M2 5h11v7H2z"/><path fill="url(#f)" d="M16 6h-2.308l-.192.456L13.308 6H7.546l-.052.281L7.432 6H4.568l-.062.281L4.453 6H2v4.236L2.947 15h2.88L6 14.206l.174.794h7.169l.157-.43.157.43H16v-2.847l-.679-1.786.679-1.63V6z"/><path fill="url(#b)" d="M9.908 7h1.184v7H9.908z"/><path d="M9.6 7H8.376l-.812 4.278L6.628 7H5.372l-.937 4.278L3.624 7H2.4a.6.6 0 0 0 0 .12L3.768 14h1.253L6 9.536 6.979 14h1.252L9.6 7.12a.6.6 0 0 0 0-.12z" fill="url(#g)"/><path d="M14.244 10.35l1.3-3.117A.585.585 0 0 0 15.591 7h-1.234L13.5 9.048 12.643 7h-1.234a.585.585 0 0 0 .047.233l1.3 3.117-1.3 3.417a.588.588 0 0 0-.047.233h1.234l.857-2.348.857 2.348h1.234a.588.588 0 0 0-.047-.233z" fill="url(#h)"/></svg>