<svg xmlns="http://www.w3.org/2000/svg" width="16" height="16" viewBox="0 0 16 16"><rect id="frame" width="16" height="16" fill="none"/><g fill-rule="evenodd"><path fill="#F26522" d="M7 15h1v-5H7v5zm-1.485-5l-.708 3.352L3.989 10h-.978l-.818 3.352L1.485 10H.537c0 .036-.006.071.003.107L1.675 15h.975l.85-3.374L4.35 15h.975l1.135-4.893c.009-.036.003-.071.003-.107h-.948zm5.902 0h1.074a.482.482 0 0 1-.062.257L11.083 12.4l1.346 2.343a.482.482 0 0 1 .062.257h-1.074l-.917-1.828L9.583 15H8.509a.482.482 0 0 1 .062-.257L9.917 12.4l-1.346-2.143A.482.482 0 0 1 8.509 10h1.074l.917 1.628.917-1.628z"/><path fill="#9AA7B0" d="M3 2.345v7h1v-4h10v7h-1v1h2v-11z"/></g></svg>