<svg xmlns="http://www.w3.org/2000/svg" width="16" height="16" viewBox="0 0 16 16"><rect id="frame" width="16" height="16" fill="none"/><g fill-rule="evenodd"><path fill="#242424" d="M0 13h14V.999H0z"/><path fill="#C3C3C3" d="M1 12h12V2H1z"/><path fill="#C3C3C3" d="M1 5h12V2H1z"/><path fill="#282828" d="M2 12h11V5H2z"/><path fill="#242424" d="M13.691 6l-.191.456L13.309 6H7.548l-.054.281L7.432 6H4.568l-.061.281L4.453 6H2v4.236L2.948 15h2.879l.174-.794.173.794h7.17l.156-.43.157.43H16v-2.847l-.679-1.786.679-1.63V6z"/><path fill="#F28366" d="M7.564 11.277L6.628 7H5.372l-.936 4.277L3.623 7H2.4c0 .04-.008.078 0 .12L3.769 14H5.02l.98-4.464L6.978 14h1.253L9.6 7.12c.007-.042 0-.08 0-.12H8.375l-.81 4.277zM9.91 14h1.183V7H9.909v7zm4.447-7h1.236a.59.59 0 0 1-.049.233l-1.3 3.117 1.3 3.417a.582.582 0 0 1 .049.233h-1.236l-.855-2.348L12.644 14h-1.236c0-.078.016-.157.049-.233l1.3-3.417-1.3-3.117A.59.59 0 0 1 11.408 7h1.236l.857 2.048L14.357 7z"/></g></svg>