<svg ti:v="1" width="16" height="16" viewBox="0 0 16 16" xmlns="http://www.w3.org/2000/svg" xmlns:ti="urn:schemas-jetbrains-com:tisvg"><rect id="frame" width="16" height="16" fill="none"/><g fill-rule="evenodd"><path d="M5 13.25V7.751L10 5l5 2.751v5.499L10 16l-5-2.75z" fill="#F4F4F4"/><path d="M6 8.801v3.858l4 2.2V11L6 8.801z" fill="#632D8D"/><path d="M14 8.801L10 11v3.859l4-2.2V8.801z" fill="#632D8D"/><path d="M13.379 8l-3.38 1.858L6.622 8 6 8.342v.459L10 11l4-2.199v-.459L13.379 8z" fill="#EBEBEB"/><path d="M10 9.858L13.379 8 10 6.141 6.621 8 10 9.858z" fill="#632D8D"/><path d="M9.459 0h-.266L8.39.308A9.611 9.611 0 0 1 5 .913 9.611 9.611 0 0 1 1.61.308L.807 0H.541L.285.991A9.008 9.008 0 0 0 0 3.242C0 7.031 2.196 10 5 10s5-2.969 5-6.758c0-.762-.096-1.519-.285-2.251L9.459 0z" fill="#F4F4F4"/><path d="M5 1.913c-1.354 0-2.629-.244-3.747-.672A8.016 8.016 0 0 0 1 3.242C1 6.422 2.791 9 5 9s4-2.578 4-5.758c0-.704-.092-1.377-.253-2.001A10.512 10.512 0 0 1 5 1.913z" fill="#313131"/><path d="M3 6c0 1 1.04 2 2 2s2-1 2-2c-.615.725-3.385.725-4 0z" fill="#EBEBEB"/><path d="M2.06 3a2.173 2.173 0 0 0-.06.5C2 4.329 2.448 5 3 5s1-.671 1-1.5c0-.176-.023-.343-.06-.5H2.06z" fill="#EBEBEB"/><path d="M6.06 3a2.173 2.173 0 0 0-.06.5C6 4.329 6.448 5 7 5s1-.671 1-1.5c0-.176-.023-.343-.06-.5H6.06z" fill="#EBEBEB"/></g></svg>