<svg ti:v="1" width="16" height="16" viewBox="0 0 16 16" xmlns="http://www.w3.org/2000/svg" xmlns:ti="urn:schemas-jetbrains-com:tisvg"><rect id="frame" width="16" height="16" fill="none"/><g fill-rule="evenodd"><path d="M2 15V1h7.414L14 5.586V15H2z" fill="#242424"/><path d="M9 2H3v12h10V6L9 2z" fill="#C4C4C4"/><path d="M9 6V4H5v8h6V6H9z" fill="#282828"/><path d="M10.574 12.212c.088-.244.145-.55.145-.946 0-1.095-.79-2.2-2.547-2.263L6.28 9 0 9v1.123l1.023 4.092L1.416 16H8c2.707 0 3-1.748 3-2.5 0-.464-.15-.906-.426-1.288z" fill="#242424"/><path d="M5 10v1l-1 3-.203 1H2.221L2 14l-1-3v-1h1v1l1 3 1-3v-1m4.797 4H7v-1h1.797c.368 0 .541.224.541.5s-.173.5-.541.5zM7 11h1.516c.312 0 .47.224.47.5s-.158.5-.47.5H7m2.273.352c.2-.209.446-.352.446-1.086 0-.657-.485-1.266-1.711-1.266H6v5h2c1.576 0 2-.672 2-1.5 0-.464-.287-.873-.727-1.148z" fill="#75BCFF"/></g></svg>