<svg ti:v="1" width="16" height="16" viewBox="0 0 16 16" xmlns="http://www.w3.org/2000/svg" xmlns:ti="urn:schemas-jetbrains-com:tisvg"><rect id="frame" width="16" height="16" fill="none"/><linearGradient id="a" x1=".5" y1=".003" x2=".5" y2="1.003"><stop offset="0" stop-color="#7C6D47"/><stop offset="1" stop-color="#60492F"/></linearGradient><path fill-rule="evenodd" d="M2 15V1h7.414L14 5.586V15H2z" fill="url(#a)"/><linearGradient id="b" x1=".5" y1=".004" x2=".5" y2="1"><stop offset="0" stop-color="#E3D8BC"/><stop offset="1" stop-color="#E3CDB3"/></linearGradient><path fill-rule="evenodd" d="M9 2H3v12h10V6L9 2z" fill="url(#b)"/><linearGradient id="c" x1=".5" y1=".012" x2=".5" y2="1.006"><stop offset="0" stop-color="#FFF3D4"/><stop offset="1" stop-color="#FFF"/></linearGradient><path fill-rule="evenodd" d="M9 6V4H5v8h6V6H9z" fill="url(#c)"/><linearGradient id="d" x1=".5" y1=".006" x2=".5" y2=".994"><stop offset="0" stop-color="#002C53"/><stop offset="1" stop-color="#00529C"/></linearGradient><path fill-rule="evenodd" d="M0 10.123l1.024 4.092L1.416 16H8c2.707 0 3-1.748 3-2.5 0-.464-.149-.906-.425-1.288.087-.244.144-.55.144-.946 0-1.095-.789-2.199-2.547-2.263l-1.891-.002L0 9v1.123z" fill="url(#d)"/><linearGradient id="e" x1=".5" y1="0" x2=".5" y2="1.009"><stop offset="0" stop-color="#CCE8FF"/><stop offset="1" stop-color="#96CEFF"/></linearGradient><path fill-rule="evenodd" d="M8 10H6v5h2c1.576 0 2-.672 2-1.5 0-.464-.287-.873-.727-1.149.2-.209.446-.351.446-1.085 0-.656-.485-1.266-1.711-1.266M7 11h1.515c.314 0 .471.224.471.5s-.157.5-.471.5H7m0 1h1.797c.368 0 .541.223.541.5s-.173.5-.541.5H7m-3-4v1l-1 3-1-3v-1H1v1l1 3 .221 1h1.576L4 14l1-3v-1H4z" fill="url(#e)"/></svg>