<svg xmlns="http://www.w3.org/2000/svg" width="16" height="16" viewBox="0 0 16 16"><rect id="frame" width="16" height="16" fill="none"/><path d="M15.716 6.209A3.172 3.172 0 0 0 12.239 3H6.95l-.2.739c-.032.118-.5 1.845-.97 3.723-.469-1.882-.94-3.608-.973-3.726L4.606 3H1v1.386L3.841 14h3.321L8.4 9.7V14h3.984A3.457 3.457 0 0 0 16 10.313a3.05 3.05 0 0 0-.8-2.139 3.692 3.692 0 0 0 .516-1.965z" fill="#f4f4f4"/><path d="M9 4l-2.591 9h-1.82l-2.66-9h1.914s1.3 4.755 1.753 7.161h.341C6.429 8.765 7.715 4 7.715 4zm4.5 4.367v-.025a2.114 2.114 0 0 0 1.222-2.133A2.184 2.184 0 0 0 12.239 4H9.4v9h2.984A2.457 2.457 0 0 0 15 10.314a1.813 1.813 0 0 0-1.5-1.947zm-2.316-3.2h1.287q1.151 0 1.151 1.219c0 .919-.428 1.405-1.048 1.405h-1.39zm1.427 6.623h-1.432V8.97h1.437c.666 0 1.184.426 1.184 1.371 0 .974-.513 1.446-1.194 1.446z" fill="#00539c"/></svg>