<svg ti:v="1" width="16" height="16" viewBox="0 0 16 16" xmlns="http://www.w3.org/2000/svg" xmlns:ti="urn:schemas-jetbrains-com:tisvg"><rect id="frame" width="16" height="16" fill="none"/><linearGradient id="a" x1=".5" y1="-2" x2=".5" y2="1"><stop offset="0" stop-color="#945800"/><stop offset="1" stop-color="#4E0000"/></linearGradient><path fill-rule="evenodd" d="M10 7H3V4h7v3z" fill="url(#a)"/><linearGradient id="b" x1=".5" y1="-.4" x2=".5" y2="1"><stop offset="0" stop-color="#590999"/><stop offset="1" stop-color="#290049"/></linearGradient><path fill-rule="evenodd" d="M12 15H1V7h11v8z" fill="url(#b)"/><linearGradient id="c" x1=".5" y1="0" x2=".5" y2=".993"><stop offset="0" stop-color="#EDC55E"/><stop offset="1" stop-color="#BD8760"/></linearGradient><path fill-rule="evenodd" d="M9 5v2H8V6H5v1H4V5h5z" fill="url(#c)"/><linearGradient id="d" x1=".5" y1="0" x2=".5" y2=".993"><stop offset="0" stop-color="#EEA6FF"/><stop offset="1" stop-color="#AF46FF"/></linearGradient><path fill-rule="evenodd" d="M9 11H4L2 9.5V14h9V9.5L9 11z" fill="url(#d)"/><linearGradient id="e" x1=".5" y1="0" x2=".5" y2=".993"><stop offset="0" stop-color="#DEB3FF"/><stop offset="1" stop-color="#DD74FF"/></linearGradient><path fill-rule="evenodd" d="M2 8l2.5 2h4L11 8H2z" fill="url(#e)"/><path fill-rule="evenodd" d="M6 12h1V9.999H6V12z" fill="#FFE100"/><linearGradient id="f" x1=".5" y1="0" x2=".5" y2="1"><stop offset="0" stop-color="#605B00"/><stop offset="1" stop-color="#3A3700"/></linearGradient><path fill-rule="evenodd" d="M8 0v3h1v3h1v2h1v2h3V8h1V6h1V3h-2c0-1.655-1.346-3-3-3H8z" fill="url(#f)"/><linearGradient id="g" x1=".5" y1="0" x2=".5" y2="1"><stop offset="0" stop-color="#FFF758"/><stop offset="1" stop-color="#E3D700"/></linearGradient><path fill-rule="evenodd" d="M9 1v1h2a1 1 0 0 1 1 1v1h-2v1h5V4h-2V3a2 2 0 0 0-2-2m0 6h3V6h-3m1 3h1V8h-1v1z" fill="url(#g)"/></svg>