<svg ti:v="1" width="16" height="16" viewBox="0 0 16 16" xmlns="http://www.w3.org/2000/svg" xmlns:ti="urn:schemas-jetbrains-com:tisvg"><rect id="frame" width="16" height="16" fill="none"/><linearGradient id="a" x1=".5" y1="-2" x2=".5" y2="1"><stop offset="0" stop-color="#945800"/><stop offset="1" stop-color="#4E0000"/></linearGradient><path fill-rule="evenodd" d="M10 7H3V4h7v3z" fill="url(#a)"/><linearGradient id="b" x1=".5" y1="-.4" x2=".5" y2="1"><stop offset="0" stop-color="#590999"/><stop offset="1" stop-color="#290049"/></linearGradient><path fill-rule="evenodd" d="M12 15H1V7h11v8z" fill="url(#b)"/><linearGradient id="c" x1=".5" y1="0" x2=".5" y2=".993"><stop offset="0" stop-color="#EDC55E"/><stop offset="1" stop-color="#BD8760"/></linearGradient><path fill-rule="evenodd" d="M9 5v2H8V6H5v1H4V5h5z" fill="url(#c)"/><linearGradient id="d" x1=".5" y1="0" x2=".5" y2=".993"><stop offset="0" stop-color="#EEA6FF"/><stop offset="1" stop-color="#AF46FF"/></linearGradient><path fill-rule="evenodd" d="M9 11H4L2 9.5V14h9V9.5L9 11z" fill="url(#d)"/><linearGradient id="e" x1=".5" y1="0" x2=".5" y2=".993"><stop offset="0" stop-color="#DEB3FF"/><stop offset="1" stop-color="#DD74FF"/></linearGradient><path fill-rule="evenodd" d="M2 8l2.5 2h4L11 8H2z" fill="url(#e)"/><path fill-rule="evenodd" d="M6 12h1V9.999H6V12z" fill="#FFE100"/><linearGradient id="f" x1=".5" y1=".012" x2=".5" y2=".998"><stop offset="0" stop-color="#006D08"/><stop offset="1" stop-color="#004C1D"/></linearGradient><path fill-rule="evenodd" d="M10 0v4.414l2.653 2.653a2.015 2.015 0 0 1-.987.758L11 8.061V11h.309l.942-.244C14.458 10.185 16 8.208 16 5.95A4.936 4.936 0 0 0 15.014 3H16V1.586L14.414 0H10z" fill="url(#f)"/><linearGradient id="g" x1=".5" y1=".012" x2=".5" y2=".998"><stop offset="0" stop-color="#C7FFB8"/><stop offset="1" stop-color="#00E82C"/></linearGradient><path fill-rule="evenodd" d="M11 1v3l1 1V4l.582-.582A2.981 2.981 0 0 1 14 5.95a2.995 2.995 0 0 1-2 2.818v1.02c1.72-.445 3-1.982 3-3.838 0-1.349-.68-2.524-1.706-3.244L14 2h1l-1-1h-3z" fill="url(#g)"/></svg>