<svg ti:v="1" width="16" height="16" viewBox="0 0 16 16" xmlns="http://www.w3.org/2000/svg" xmlns:ti="urn:schemas-jetbrains-com:tisvg"><rect id="frame" width="16" height="16" fill="none"/><g fill-rule="evenodd"><path d="M10 7H3V4h7v3z" fill="#242424"/><path d="M12 15H1V7h11v8z" fill="#242424"/><path d="M9 5v2H8V6H5v1H4V5h5z" fill="#B280D3"/><path d="M9 11H4L2 9.5V14h9V9.5L9 11z" fill="#B280D3"/><path d="M2 8l2.5 2h4L11 8H2z" fill="#B280D3"/><path d="M6 12h1V9.999H6V12z" fill="#282828"/><path d="M11 10V8h-1V6H9V3H8V0h3c1.654 0 3 1.346 3 3h2v3h-1v2h-1v2h-3z" fill="#242424"/><path d="M13 4V3a2 2 0 0 0-2-2H9v1h2a1 1 0 0 1 1 1v1h-2v1h5V4m-2 4h-1v1h1m1-2h-3V6h3v1z" fill="#C4C4C4"/></g></svg>