<svg ti:v="1" width="16" height="16" viewBox="0 0 16 16" xmlns="http://www.w3.org/2000/svg" xmlns:ti="urn:schemas-jetbrains-com:tisvg"><rect id="frame" width="16" height="16" fill="none"/><g fill-rule="evenodd"><path d="M0 8.25V2.751L5 0l5 2.751V8.25L5 11 0 8.25z" fill="#242424"/><path d="M1 3.801v3.858l4 2.2V6L1 3.801z" fill="#B280D3"/><path d="M9 3.801L5 6v3.859l4-2.2V3.801z" fill="#B280D3"/><path d="M8.379 3l-3.38 1.858L1.622 3 1 3.342v.459L5 6l4-2.199v-.459L8.379 3z" fill="#282828"/><path d="M5 4.858L8.379 3 5 1.141 1.621 3 5 4.858z" fill="#B280D3"/><path d="M6.586 16L3 12.414V8.382l2 1V5h4v4.382l2-1v4.032L7.414 16h-.828z" fill="#242424"/><path d="M8 11V8H6v3l-2-1v2l3 3 3-3v-2M8 7H6V6h2v1z" fill="#C4C4C4"/><path d="M11 10V8h-1V6H9V3H8V0h3c1.654 0 3 1.346 3 3h2v3h-1v2h-1v2h-3z" fill="#242424"/><path d="M13 4V3a2 2 0 0 0-2-2H9v1h2a1 1 0 0 1 1 1v1h-2v1h5V4m-2 4h-1v1h1m1-2h-3V6h3v1z" fill="#C4C4C4"/></g></svg>