<svg ti:v="1" width="16" height="16" viewBox="0 0 16 16" xmlns="http://www.w3.org/2000/svg" xmlns:ti="urn:schemas-jetbrains-com:tisvg"><rect id="frame" width="16" height="16" fill="none"/><linearGradient id="a" x1=".5" y1="0" x2=".5" y2="1"><stop offset="0" stop-color="purple"/><stop offset="1" stop-color="#5B005B"/></linearGradient><path fill-rule="evenodd" d="M0 2.751V8.25L5 11l5-2.75V2.751L5 0 0 2.751z" fill="url(#a)"/><linearGradient id="b" x1=".028" y1=".5" x2="1.015" y2=".5"><stop offset="0" stop-color="#FD58FF"/><stop offset="1" stop-color="#FF9CFF"/></linearGradient><path fill-rule="evenodd" d="M1 7.659l4 2.199V6L1 3.801v3.858z" fill="url(#b)"/><linearGradient id="c" x1=".028" y1=".5" x2="1.015" y2=".5"><stop offset="0" stop-color="#FD32FF"/><stop offset="1" stop-color="#FFA3FF"/></linearGradient><path fill-rule="evenodd" d="M5 6v3.858l4-2.199V3.801L5 6z" fill="url(#c)"/><path fill-rule="evenodd" d="M8.379 3l-3.38 1.858L1.622 3 1 3.342v.459L5 6l4-2.199v-.459L8.379 3z" fill="#FFE6FF"/><linearGradient id="d" x1=".5" y1=".028" x2=".5" y2="1.016"><stop offset="0" stop-color="#FD53FF"/><stop offset="1" stop-color="#FFBFFF"/></linearGradient><path fill-rule="evenodd" d="M1.621 3L5 4.858 8.379 3 5 1.142 1.621 3z" fill="url(#d)"/><linearGradient id="e" x1=".5" y1=".013" x2=".5" y2="1"><stop offset="0" stop-color="#5572A1"/><stop offset="1" stop-color="#405980"/></linearGradient><path fill-rule="evenodd" d="M5 5v4.382l-2-1v4.032L6.586 16h.828L11 12.414V8.382l-2 1V5H5z" fill="url(#e)"/><linearGradient id="f" x1=".5" y1=".041" x2=".5" y2="1.017"><stop offset="0" stop-color="#8CD5FF"/><stop offset=".994" stop-color="#A3FBFF"/><stop offset="1" stop-color="#A3FBFF"/></linearGradient><path fill-rule="evenodd" d="M6 7h2V6H6m0 2v3l-2-1v2l3 3 3-3v-2l-2 1V8H6z" fill="url(#f)"/><linearGradient id="g" x1=".5" y1=".012" x2=".5" y2=".998"><stop offset="0" stop-color="#006D08"/><stop offset="1" stop-color="#004C1D"/></linearGradient><path fill-rule="evenodd" d="M10 0v4.414l2.653 2.653a2.003 2.003 0 0 1-.987.758L11 8.06V11h.309l.942-.244C14.458 10.184 16 8.208 16 5.95A4.938 4.938 0 0 0 15.014 3H16V1.586L14.414 0H10z" fill="url(#g)"/><linearGradient id="h" x1=".5" y1=".012" x2=".5" y2=".998"><stop offset="0" stop-color="#C7FFB8"/><stop offset="1" stop-color="#00E82C"/></linearGradient><path fill-rule="evenodd" d="M11 1v3l1 1V4l.582-.582A2.98 2.98 0 0 1 14 5.95a2.995 2.995 0 0 1-2 2.819v1.02c1.72-.445 3-1.982 3-3.839 0-1.348-.68-2.523-1.706-3.243L14 2h1l-1-1h-3z" fill="url(#h)"/></svg>