<svg ti:v="1" width="16" height="16" viewBox="0 0 16 16" xmlns="http://www.w3.org/2000/svg" xmlns:ti="urn:schemas-jetbrains-com:tisvg"><rect id="frame" width="16" height="16" fill="none"/><g fill-rule="evenodd"><path d="M0 8.25V2.751L5 0l5 2.751V8.25L5 11 0 8.25z" fill="#242424"/><path d="M1 3.8V7.66l4 2.2v-3.86L1 3.802z" fill="#B280D3"/><path d="M9 3.8L5 6v3.859l4-2.2V3.8z" fill="#B280D3"/><path d="M8.379 3l-3.38 1.858L1.622 3 1 3.342v.459L5 6l4-2.199v-.459L8.379 3z" fill="#282828"/><path d="M5 4.858l3.379-1.857L5 1.14l-3.379 1.86L5 4.858z" fill="#B280D3"/><path d="M6.586 16L3 12.414V8.382l2 1V5h4v4.382l2-1v4.032L7.414 16h-.828z" fill="#242424"/><path d="M8 11V8H6v3l-2-1v2l3 3 3-3v-2M8 7H6V6h2v1z" fill="#C4C4C4"/><path d="M11.666 7.825L11 8.06V11h.309l.942-.244C14.458 10.184 16 8.208 16 5.95c0-1.07-.355-2.103-.985-2.949H16V1.586L14.414 0H10v4.414l2.652 2.652a2.008 2.008 0 0 1-.986.76z" fill="#242424"/><path d="M13.294 2.706L14 2h1l-1-1h-3v3l1 1V4l.582-.582A2.979 2.979 0 0 1 14 5.95a2.995 2.995 0 0 1-2 2.82v1.02c1.72-.446 3-1.982 3-3.84 0-1.348-.68-2.523-1.706-3.243z" fill="#C4C4C4"/></g></svg>