<svg ti:v="1" width="16" height="16" viewBox="0 0 16 16" xmlns="http://www.w3.org/2000/svg" xmlns:ti="urn:schemas-jetbrains-com:tisvg"><rect id="frame" width="16" height="16" fill="none"/><linearGradient id="a" x1=".5" y1="0" x2=".5" y2="1"><stop offset="0" stop-color="purple"/><stop offset="1" stop-color="#5B005B"/></linearGradient><path fill-rule="evenodd" d="M0 2.751V8.25L5 11l5-2.75V2.751L5 0 0 2.751z" fill="url(#a)"/><linearGradient id="b" x1=".028" y1=".5" x2="1.015" y2=".5"><stop offset="0" stop-color="#FD58FF"/><stop offset="1" stop-color="#FF9CFF"/></linearGradient><path fill-rule="evenodd" d="M1 7.659l4 2.2V6L1 3.801v3.858z" fill="url(#b)"/><linearGradient id="c" x1=".028" y1=".5" x2="1.015" y2=".5"><stop offset="0" stop-color="#FD32FF"/><stop offset="1" stop-color="#FFA3FF"/></linearGradient><path fill-rule="evenodd" d="M5 6v3.859l4-2.2V3.801L5 6z" fill="url(#c)"/><path fill-rule="evenodd" d="M8.379 3l-3.38 1.858L1.622 3 1 3.342v.459L5 6l4-2.199v-.459L8.379 3z" fill="#FFE6FF"/><linearGradient id="d" x1=".5" y1=".028" x2=".5" y2="1.016"><stop offset="0" stop-color="#FD53FF"/><stop offset="1" stop-color="#FFBFFF"/></linearGradient><path fill-rule="evenodd" d="M1.621 3L5 4.858 8.379 3 5 1.141 1.621 3z" fill="url(#d)"/><linearGradient id="e" x1=".5" y1=".013" x2=".5" y2="1"><stop offset="0" stop-color="#5572A1"/><stop offset="1" stop-color="#405980"/></linearGradient><path fill-rule="evenodd" d="M5 5v4.382l-2-1v4.032L6.586 16h.828L11 12.414V8.382l-2 1V5H5z" fill="url(#e)"/><linearGradient id="f" x1=".5" y1=".041" x2=".5" y2="1.017"><stop offset="0" stop-color="#8CD5FF"/><stop offset=".994" stop-color="#A3FBFF"/><stop offset="1" stop-color="#A3FBFF"/></linearGradient><path fill-rule="evenodd" d="M6 7h2V6H6m0 2v3l-2-1v2l3 3 3-3v-2l-2 1V8H6z" fill="url(#f)"/><linearGradient id="g" x1=".5" y1="0" x2=".5" y2="1"><stop offset="0" stop-color="#605B00"/><stop offset="1" stop-color="#3A3700"/></linearGradient><path fill-rule="evenodd" d="M8 0v3h1v3h1v2h1v2h3V8h1V6h1V3h-2c0-1.655-1.346-3-3-3H8z" fill="url(#g)"/><linearGradient id="h" x1=".5" y1="0" x2=".5" y2="1"><stop offset="0" stop-color="#FFF758"/><stop offset="1" stop-color="#E3D700"/></linearGradient><path fill-rule="evenodd" d="M9 1v1h2a1 1 0 0 1 1 1v1h-2v1h5V4h-2V3a2 2 0 0 0-2-2m0 6h3V6h-3m1 3h1V8h-1v1z" fill="url(#h)"/></svg>