<svg ti:v="1" width="16" height="16" viewBox="0 0 16 16" xmlns="http://www.w3.org/2000/svg" xmlns:ti="urn:schemas-jetbrains-com:tisvg"><rect id="frame" width="16" height="16" fill="none"/><g fill-rule="evenodd"><path d="M1 12.25V6.751L6 4l5 2.751v5.499L6 15l-5-2.75z" fill="#F4F4F4"/><path d="M2 7.801v3.858l4 2.2V10L2 7.801z" fill="#632D8D"/><path d="M10 7.801L6 10v3.859l4-2.2V7.801z" fill="#632D8D"/><path d="M9.379 7l-3.38 1.858L2.622 7 2 7.342v.459L6 10l4-2.199v-.459L9.379 7z" fill="#EBEBEB"/><path d="M6 8.858L9.379 7 6 5.141 2.621 7 6 8.858z" fill="#632D8D"/><path d="M10.666 7.825L10 8.06V11h.309l.942-.244C13.458 10.184 15 8.208 15 5.949A4.943 4.943 0 0 0 14.015 3H15V1.586L13.414 0H9v4.414l2.652 2.652a2.008 2.008 0 0 1-.986.759z" fill="#F4F4F4"/><path d="M12.294 2.706L13 2h1l-1-1h-3v3l1 1V4l.582-.582A2.979 2.979 0 0 1 13 5.949a2.995 2.995 0 0 1-2 2.819v1.02c1.72-.445 3-1.981 3-3.839 0-1.348-.68-2.523-1.706-3.243z" fill="#313131"/></g></svg>