<svg ti:v="1" width="16" height="16" viewBox="0 0 16 16" xmlns="http://www.w3.org/2000/svg" xmlns:ti="urn:schemas-jetbrains-com:tisvg"><rect id="frame" width="16" height="16" fill="none"/><linearGradient id="a" x1=".5" y1="0" x2=".5" y2="1"><stop offset="0" stop-color="purple"/><stop offset="1" stop-color="#5B005B"/></linearGradient><path fill-rule="evenodd" d="M1 6.751v5.499L6 15l5-2.75V6.751L6 4 1 6.751z" fill="url(#a)"/><linearGradient id="b" x1=".028" y1=".5" x2="1.015" y2=".5"><stop offset="0" stop-color="#FD58FF"/><stop offset="1" stop-color="#FF9CFF"/></linearGradient><path fill-rule="evenodd" d="M2 11.66l4 2.198V10L2 7.8v3.86z" fill="url(#b)"/><linearGradient id="c" x1=".028" y1=".5" x2="1.015" y2=".5"><stop offset="0" stop-color="#FD32FF"/><stop offset="1" stop-color="#FFA3FF"/></linearGradient><path fill-rule="evenodd" d="M6 10v3.858l4-2.198V7.8L6 10z" fill="url(#c)"/><path fill-rule="evenodd" d="M9.379 7l-3.38 1.858L2.622 7 2 7.342v.459L6 10l4-2.199v-.459L9.379 7z" fill="#FFE6FF"/><linearGradient id="d" x1=".5" y1=".028" x2=".5" y2="1.015"><stop offset="0" stop-color="#FD53FF"/><stop offset="1" stop-color="#FFBFFF"/></linearGradient><path fill-rule="evenodd" d="M2.621 7L6 8.859 9.379 7 6 5.142 2.621 7z" fill="url(#d)"/><linearGradient id="e" x1=".5" y1=".012" x2=".5" y2=".998"><stop offset="0" stop-color="#006D08"/><stop offset="1" stop-color="#004C1D"/></linearGradient><path fill-rule="evenodd" d="M10 0v4.414l2.653 2.652a2.012 2.012 0 0 1-.987.76L11 8.061V11h.309l.942-.244C14.458 10.185 16 8.208 16 5.949A4.937 4.937 0 0 0 15.014 3H16V1.586L14.414 0H10z" fill="url(#e)"/><linearGradient id="f" x1=".5" y1=".012" x2=".5" y2=".998"><stop offset="0" stop-color="#C7FFB8"/><stop offset="1" stop-color="#00E82C"/></linearGradient><path fill-rule="evenodd" d="M11 1v3l1 1V4l.582-.582A2.982 2.982 0 0 1 14 5.949a2.994 2.994 0 0 1-2 2.819v1.021c1.72-.446 3-1.982 3-3.84 0-1.348-.68-2.523-1.706-3.243L14 2h1l-1-1h-3z" fill="url(#f)"/></svg>