<svg ti:v="1" width="16" height="16" viewBox="0 0 16 16" xmlns="http://www.w3.org/2000/svg" xmlns:ti="urn:schemas-jetbrains-com:tisvg"><rect id="frame" width="16" height="16" fill="none"/><linearGradient id="a" x1="0" y1=".5" x2="1" y2=".5"><stop offset="0" stop-color="#5C5E61"/><stop offset="1" stop-color="#282B2C"/></linearGradient><path fill-rule="evenodd" d="M1 16h12V5H1v11z" fill="url(#a)"/><path fill-rule="evenodd" d="M12 5H2v10h10V5z" fill="#FFF"/><linearGradient id="b" x1="0" y1=".5" x2="1" y2=".5"><stop offset="0" stop-color="#F2F9FF"/><stop offset="1" stop-color="#CCEBFF"/></linearGradient><path fill-rule="evenodd" d="M3 14h8V5H3v9z" fill="url(#b)"/><linearGradient id="c" x1="0" y1=".5" x2="1" y2=".5"><stop offset="0" stop-color="#006294"/><stop offset="1" stop-color="#00214E"/></linearGradient><path fill-rule="evenodd" d="M6 11H4v1h2m4-1H7v1h3M6 7H4v1h2m4 0H7V7h3M6 9H4v1h2m4 0H7V9h3v1z" fill="url(#c)"/><linearGradient id="d" x1=".5" y1="0" x2=".5" y2="1"><stop offset="0" stop-color="#003C62"/><stop offset="1" stop-color="#00134E"/></linearGradient><path fill-rule="evenodd" d="M1 2v3h12V2H1z" fill="url(#d)"/><linearGradient id="e" x1="0" y1=".5" x2=".993" y2=".5"><stop offset="0" stop-color="#32D6FF"/><stop offset="1" stop-color="#009DFF"/></linearGradient><path fill-rule="evenodd" d="M2 5h10V3H2v2z" fill="url(#e)"/><linearGradient id="f" x1=".5" y1=".012" x2=".5" y2=".998"><stop offset="0" stop-color="#006D08"/><stop offset="1" stop-color="#004C1D"/></linearGradient><path fill-rule="evenodd" d="M10.37 0l-.299.235C9.127.977 8 2.319 8 4.5c0 2.177 1.126 3.523 2.07 4.265l.298.235h3.264l.299-.235C14.874 8.023 16 6.677 16 4.5 16 2.319 14.873.977 13.929.235L13.63 0h-3.26z" fill="url(#f)"/><linearGradient id="g" x1=".5" y1=".012" x2=".5" y2=".998"><stop offset="0" stop-color="#C7FFB8"/><stop offset="1" stop-color="#00E82C"/></linearGradient><path fill-rule="evenodd" d="M13 1c1.153 1.91 1.153 5.091 0 7h.457C14.169 7.393 15 6.301 15 4.5s-.831-2.893-1.543-3.5m-2.914 0C9.831 1.607 9 2.699 9 4.5s.831 2.893 1.543 3.5H11c-1.154-1.909-1.154-5.09 0-7h-.457z" fill="url(#g)"/></svg>