<svg ti:v="1" width="16" height="16" viewBox="0 0 16 16" xmlns="http://www.w3.org/2000/svg" xmlns:ti="urn:schemas-jetbrains-com:tisvg"><rect id="frame" width="16" height="16" fill="none"/><linearGradient id="a" x1=".5" y1="0" x2=".5" y2="1"><stop offset="0" stop-color="purple"/><stop offset="1" stop-color="#5B005B"/></linearGradient><path fill-rule="evenodd" d="M1 6.751v5.499L6 15l5-2.75V6.751L6 4 1 6.751z" fill="url(#a)"/><linearGradient id="b" x1=".028" y1=".5" x2="1.015" y2=".5"><stop offset="0" stop-color="#FD58FF"/><stop offset="1" stop-color="#FF9CFF"/></linearGradient><path fill-rule="evenodd" d="M2 11.659l4 2.2V10L2 7.801v3.858z" fill="url(#b)"/><linearGradient id="c" x1=".028" y1=".5" x2="1.015" y2=".5"><stop offset="0" stop-color="#FD32FF"/><stop offset="1" stop-color="#FFA3FF"/></linearGradient><path fill-rule="evenodd" d="M6 10v3.859l4-2.2V7.801L6 10z" fill="url(#c)"/><path fill-rule="evenodd" d="M9.379 7l-3.38 1.858L2.622 7 2 7.342v.459L6 10l4-2.199v-.459L9.379 7z" fill="#FFE6FF"/><linearGradient id="d" x1=".5" y1=".028" x2=".5" y2="1.016"><stop offset="0" stop-color="#FD53FF"/><stop offset="1" stop-color="#FFBFFF"/></linearGradient><path fill-rule="evenodd" d="M2.621 7L6 8.858 9.379 7 6 5.141 2.621 7z" fill="url(#d)"/><linearGradient id="e" x1=".5" y1="0" x2=".5" y2="1"><stop offset="0" stop-color="#605B00"/><stop offset="1" stop-color="#3A3700"/></linearGradient><path fill-rule="evenodd" d="M7 0v3h3v1H7v3h2v2h1v2h3V9h1V7h2V4h-3V3c0-1.654-1.346-3-3-3H7z" fill="url(#e)"/><linearGradient id="f" x1=".5" y1="0" x2=".5" y2="1"><stop offset="0" stop-color="#FFF758"/><stop offset="1" stop-color="#E3D700"/></linearGradient><path fill-rule="evenodd" d="M8 1v1h2a1 1 0 0 1 1 1v2H8v1h7V5h-3V3a2 2 0 0 0-2-2m0 7h3V7h-3m1 3h1V9h-1v1z" fill="url(#f)"/></svg>