<svg xmlns="http://www.w3.org/2000/svg" width="16" height="16" viewBox="0 0 16 16">
  <path fill="#afb1b3" fill-rule="evenodd" d="M12.425 10.154v.538a4.22 4.22 0 01-.156 1.077H14v1.616h-2.565a4.332 4.332 0 01-6.748 0H2v-1.616h1.853a4.178 4.178 0 01-.153-1.077v-.538H2V8.538h1.7V7.462a4.17 4.17 0 01.056-.539H2V5.308h2.307a4.351 4.351 0 011.76-1.653L4.534 2.143 5.692 1l2.2 2.171c.058 0 .051-.01.109-.01.02 0 .1.008.12.009L10.308 1l1.158 1.143-1.49 1.47a4.361 4.361 0 011.839 1.695H14v1.615h-1.63a4.354 4.354 0 01.055.539v1.076H14v1.616zM6.2 7v1.5h3.6V7zm0 3v1.5h3.6V10z"/>
</svg>
