<svg xmlns="http://www.w3.org/2000/svg" width="19" height="12" viewBox="0 0 19 12">
  <g fill-rule="evenodd">
    <path fill="#9AA7B0" d="M5.832,2 C5.934,2.295 6.02,2.614 6.072,2.98 C6.085,3.075 6.085,3.159 6.093,3.25 L6.75,3.25 L6.75,8.75 L4.423,8.75 C4.518,9.309 4.734,9.668 5.047,10 L8,10 L8,2 L5.832,2 Z M2.168,10 L0,10 L0,2 L2.953,2 C3.266,2.332 3.482,2.691 3.577,3.25 L1.25,3.25 L1.25,8.75 L1.907,8.75 C1.915,8.841 1.915,8.925 1.928,9.02 C1.979,9.386 2.066,9.705 2.168,10 L2.168,10 Z" transform="translate(9)"/>
    <path fill="#62B543" d="M4.4355,11.8379 C3.7105,11.1939 2.8885,10.4639 2.6705,8.9149 C2.4525,7.3559 3.0565,6.4839 3.5885,5.7149 C4.0795,5.0069 4.5035,4.3959 4.3385,3.2239 C4.1725,2.0389 3.5825,1.5159 2.9005,0.9099 L3.5645,0.1619 C4.2895,0.8059 5.1115,1.5359 5.3295,3.0849 C5.5475,4.6449 4.9435,5.5159 4.4115,6.2849 C3.9205,6.9929 3.4965,7.6049 3.6615,8.7759 C3.8275,9.9609 4.4165,10.4839 5.0995,11.0899 L4.4355,11.8379 Z" transform="translate(9)"/>
  </g>
</svg>
