<svg xmlns="http://www.w3.org/2000/svg" width="19" height="12" viewBox="0 0 19 12">
  <path fill="#9AA7B0" fill-rule="evenodd" d="M17,5 L17,4 C17,2.896 16.104,2 15,2 L14.5,2 L14.5,3.25 L15,3.25 C15.414,3.25 15.75,3.586 15.75,4 L15.75,5 L15.75,5.625 L16.25,6 L15.75,6.375 L15.75,7 L15.75,8 C15.75,8.414 15.414,8.75 15,8.75 L14.5,8.75 L14.5,10 L15,10 C16.104,10 17,9.104 17,8 L17,7 L18,6.25 L18,5.75 L17,5 Z M11.5,10 L11,10 C9.896,10 9,9.104 9,8 L9,7 L8,6.25 L8,5.75 L9,5 L9,4 C9,2.896 9.896,2 11,2 L11.5,2 L11.5,3.25 L11,3.25 C10.586,3.25 10.25,3.586 10.25,4 L10.25,5 L10.25,5.625 L9.75,6 L10.25,6.375 L10.25,7 L10.25,8 C10.25,8.414 10.586,8.75 11,8.75 L11.5,8.75 L11.5,10 Z" opacity=".7"/>
</svg>
