<svg xmlns="http://www.w3.org/2000/svg" width="19" height="12" viewBox="0 0 19 12">
  <g fill-rule="evenodd">
    <path fill="#9AA7B0" d="M6.8374,10 L7.0004,10 C8.1044,10 9.0004,9.104 9.0004,8 L9.0004,7 L10.0004,6.25 L10.0004,5.75 L9.0004,5 L9.0004,4 C9.0004,2.896 8.1044,2 7.0004,2 L6.5004,2 L6.5004,3.25 L7.0004,3.25 C7.4134,3.25 7.7504,3.586 7.7504,4 L7.7504,5 L7.7504,5.625 L8.2504,6 L7.7504,6.375 L7.7504,7 L7.7504,8 C7.7504,8.383 7.4574,8.688 7.0874,8.732 C7.0784,8.831 7.0864,8.916 7.0714,9.02 C7.0204,9.384 6.9394,9.707 6.8374,10 L6.8374,10 Z M1.0004,5 L1.0004,4 C1.0004,2.896 1.8954,2 3.0004,2 L3.1624,2 C3.0614,2.293 2.9794,2.616 2.9284,2.98 C2.9134,3.084 2.9214,3.169 2.9134,3.268 C2.5424,3.313 2.2504,3.617 2.2504,4 L2.2504,5 L2.2504,5.625 L1.7504,6 L2.2504,6.375 L2.2504,7 L2.2504,8 C2.2504,8.414 2.5864,8.75 3.0004,8.75 L3.5004,8.75 L3.5004,10 L3.0004,10 C1.8954,10 1.0004,9.104 1.0004,8 L1.0004,7 L0.0004,6.25 L0.0004,5.75 L1.0004,5 Z" transform="translate(8)"/>
    <path fill="#62B543" d="M4.5645,11.8379 C5.2895,11.1939 6.1115,10.4639 6.3295,8.9149 C6.5475,7.3559 5.9435,6.4839 5.4115,5.7149 C4.9205,5.0069 4.4965,4.3959 4.6615,3.2239 C4.8275,2.0389 5.4175,1.5159 6.0995,0.9099 L5.4355,0.1619 C4.7105,0.8059 3.8885,1.5359 3.6705,3.0849 C3.4525,4.6449 4.0565,5.5159 4.5885,6.2849 C5.0795,6.9929 5.5035,7.6049 5.3385,8.7759 C5.1725,9.9609 4.5835,10.4839 3.9005,11.0899 L4.5645,11.8379 Z" transform="translate(8)"/>
  </g>
</svg>
