<svg xmlns="http://www.w3.org/2000/svg" width="16" height="16" viewBox="0 0 16 16">
  <g id="RevealOff4" fill="none" fill-rule="evenodd" stroke="none" stroke-width="1">
    <path id="Fill-2" fill="#9AA7B0" d="M8.5,6 L7.5,6 C6.948,6 6.5,5.552 6.5,5 C6.5,4.448 6.948,4 7.5,4 L8.5,4 C9.052,4 9.5,4.448 9.5,5 C9.5,5.552 9.052,6 8.5,6 M8,2 C5.791,2 4,3.791 4,6 C4,7.202 4.541,8.267 5.379,9 L6,9 L6,13 L8,15 L10,13 L10,9 L10.621,9 C11.459,8.267 12,7.202 12,6 C12,3.791 10.209,2 8,2 M8,3 C9.654,3 11,4.346 11,6 C11,6.748 10.724,7.446 10.216,8 L10,8 L9,8 L9,9 L9,12.586 L8,13.586 L7,12.586 L7,9 L7,8 L6,8 L5.784,8 C5.276,7.446 5,6.748 5,6 C5,4.346 6.346,3 8,3"/>
  </g>
</svg>
