<svg xmlns="http://www.w3.org/2000/svg" width="16" height="16" viewBox="0 0 16 16">
  <g id="SingleThread" fill="none" fill-rule="evenodd" stroke="none" stroke-width="1">
    <path id="Fill-3" fill="#9AA7B0" d="M12.4512,14 L11.5012,13.578 L12.9452,10.328 C12.9792,10.251 12.9582,10.158 12.8922,10.103 C12.8292,10.049 12.7332,10.043 12.6632,10.091 L8.7832,12.677 C8.2882,13.007 7.6282,12.936 7.2152,12.509 C6.8012,12.082 6.7522,11.42 7.0972,10.936 L11.5112,4.758 C11.5662,4.681 11.5572,4.577 11.4912,4.511 C11.4242,4.443 11.3202,4.436 11.2432,4.489 L5.0642,8.902 C4.5792,9.248 3.9182,9.198 3.4912,8.785 C3.0632,8.371 2.9932,7.711 3.3232,7.217 L5.9102,3.338 C5.9572,3.267 5.9522,3.172 5.8962,3.107 C5.8422,3.042 5.7492,3.021 5.6722,3.055 L2.4222,4.499 L2.0002,3.549 L5.2492,2.105 C5.7472,1.884 6.3402,2.021 6.6912,2.437 C7.0432,2.854 7.0772,3.461 6.7742,3.914 L4.1882,7.794 C4.1372,7.871 4.1472,7.974 4.2152,8.038 C4.2812,8.104 4.3852,8.111 4.4602,8.057 L10.6392,3.644 C11.1302,3.291 11.7982,3.348 12.2252,3.775 C12.6532,4.202 12.7092,4.869 12.3572,5.361 L7.9432,11.54 C7.8892,11.615 7.8972,11.719 7.9622,11.785 C8.0262,11.853 8.1302,11.863 8.2072,11.812 L12.0862,9.226 C12.5392,8.924 13.1462,8.957 13.5632,9.309 C13.9792,9.66 14.1162,10.253 13.8952,10.751 L12.4512,14 Z"/>
  </g>
</svg>
