<svg xmlns="http://www.w3.org/2000/svg" width="16" height="16" viewBox="0 0 16 16">
  <g id="AssemblyExplorerToolWindow" fill="none" fill-rule="evenodd" stroke="none" stroke-width="1">
    <path id="Fill-2" fill="#6E6E6E" d="M2.5,6 C2.224,6 2,5.776 2,5.5 C2,5.224 2.224,5 2.5,5 C2.776,5 3,5.224 3,5.5 C3,5.776 2.776,6 2.5,6 M7,8.5 C7,8.143 7.052,7.799 7.131,7.466 C7.055,7.325 7,7.171 7,7 L7,4 C7,3.448 7.449,3 8,3 L13,3 C13.551,3 14,3.448 14,4 L14,4.76 C14.384,5.017 14.712,5.343 15,5.703 L15,4 C15,2.9 14.1,2 13,2 L8,2 C6.9,2 6,2.9 6,4 L6,5 L3.908,5 C3.701,4.419 3.152,4 2.5,4 C1.672,4 1,4.672 1,5.5 C1,6.328 1.672,7 2.5,7 C3.152,7 3.701,6.581 3.908,6 L6,6 L6,7 C6,7.744 6.417,8.389 7.023,8.733 C7.02,8.654 7,8.58 7,8.5"/>
    <path id="Fill-4" fill="#6E6E6E" d="M14,8.5 C14,7.119 12.881,6 11.5,6 C10.119,6 9,7.119 9,8.5 C9,9.881 10.119,11 11.5,11 C12.881,11 14,9.881 14,8.5 L14,8.5 Z M15,8.5 C15,10.434 13.434,12 11.5,12 C9.566,12 8,10.434 8,8.5 C8,6.566 9.566,5 11.5,5 C13.434,5 15,6.566 15,8.5 L15,8.5 Z M8,11 L9,12 L6,15 L5,14 L8,11 Z"/>
  </g>
</svg>
