<svg xmlns="http://www.w3.org/2000/svg" width="16" height="16" viewBox="0 0 16 16">
  <g id="AssemblyExplorerOpenFromGAC" fill="none" fill-rule="evenodd" stroke="none" stroke-width="1">
    <path id="Fill-2" fill="#6E6E6E" d="M12,5 L14,5 L14,3 L12,3 L12,5 Z M12,10 L14,10 L14,9 L12,9 L12,10 Z M12,12 L14,12 L14,11 L12,11 L12,12 Z M11,13 L15,13 L15,2 L11,2 L11,13 Z M8,3 L9,3 L9,2 L8,2 L8,3 Z M7,10 L8,10 L8,9 L9,9 L9,10 L8,10 L8,11 L9,11 L9,12 L8,12 L8,13 L10,13 L10,1 L7,1 L7,10 Z M4,5 L5,5 L5,3 L4,3 L4,5 Z M3,8 L6,8 L6,2 L3,2 L3,8 Z"/>
    <polygon id="Fill-3" fill="#59A869" points="7 11 5 11 5 9 3 9 3 11 1 11 1 13 3 13 3 15 5 15 5 13 7 13"/>
  </g>
</svg>
