<svg xmlns="http://www.w3.org/2000/svg" width="16" height="16" viewBox="0 0 16 16">
  <g id="AssemblyAdd_dark" fill="none" fill-rule="evenodd" stroke="none" stroke-width="1">
    <path id="Fill-2" fill="#AFB1B3" d="M14,6 C14,6.552 13.551,7 13,7 L8,7 C7.449,7 7,6.552 7,6 L7,3 C7,2.448 7.449,2 8,2 L13,2 C13.551,2 14,2.448 14,3 L14,6 Z M2.5,5 C2.224,5 2,4.776 2,4.5 C2,4.224 2.224,4 2.5,4 C2.776,4 3,4.224 3,4.5 C3,4.776 2.776,5 2.5,5 L2.5,5 Z M13,1 L8,1 C6.9,1 6,1.9 6,3 L6,4 L3.908,4 C3.701,3.419 3.152,3 2.5,3 C1.672,3 1,3.672 1,4.5 C1,5.328 1.672,6 2.5,6 C3.152,6 3.701,5.581 3.908,5 L6,5 L6,6 C6,7.1 6.9,8 8,8 L13,8 C14.1,8 15,7.1 15,6 L15,3 C15,1.9 14.1,1 13,1 L13,1 Z"/>
    <polygon id="Fill-4" fill="#499C54" points="7 11 5 11 5 9 3 9 3 11 1 11 1 13 3 13 3 15 5 15 5 13 7 13"/>
  </g>
</svg>
