<svg xmlns="http://www.w3.org/2000/svg" width="16" height="16" viewBox="0 0 16 16">
  <g id="WorkspaceSave_dark" fill="none" fill-rule="evenodd" stroke="none" stroke-width="1">
    <path id="Fill-2" fill="#AFB1B3" d="M12,6 L6,6 L6,1.5 L9,1.5 L9,4 L11,4 L11,1.5 L12,1.5 L12,6 Z M13,1 L3,1 L3,7 L9,7 L9,8 L13,8 L13,12.5 L9,12.5 L9,13 L15,13 L15,3 L13,1 Z"/>
    <path id="Fill-3" fill="#AFB1B3" d="M5,15 L8,15 L8,12 L5,12 L5,15 Z M1,15 L4,15 L4,12 L1,12 L1,15 Z M5,11 L8,11 L8,8 L5,8 L5,11 Z M1,11 L4,11 L4,8 L1,8 L1,11 Z"/>
  </g>
</svg>
