<svg xmlns="http://www.w3.org/2000/svg" width="16" height="16" viewBox="0 0 16 16"><rect id="frame" width="16" height="16" fill="none"/><path fill="#f4f4f4" d="M0 3h13v13H0z"/><path fill="#323232" d="M1 4h11v11H1z"/><path d="M10 14H6v-1h4zm-8 0h1l3-2.5L3 9H2v.345L4.586 11.5 2 13.655z" fill="#ebebeb"/><g><path d="M7.5 7A2.754 2.754 0 0 1 5 4V3a2.754 2.754 0 0 1 2.5-3H15v1h1v5h-1v1z" fill="#f4f4f4"/><path d="M7 3.5C7 5.016 8 5 8 5h1v1H7.5C6.672 6 6 5.1 6 4V3c0-1.1.672-2 1.5-2H9v1H8s-1-.016-1 1.5zm8-.5V2h-1V1h-1v1h-1V1h-1v1h-1v1h1v1h-1v1h1v1h1V5h1v1h1V5h1V4h-1V3zm-2 1h-1V3h1z" fill="#388a34"/></g></svg>