<svg xmlns="http://www.w3.org/2000/svg" width="16" height="16" viewBox="0 0 16 16"><rect id="frame" width="16" height="16" fill="none"/><path fill="#6E6E6E" fill-rule="evenodd" d="M11.509 5.477c.2.3.219.687.049 1.006a.982.982 0 0 1-.864.517H5.306a.979.979 0 0 1-.815-1.523l2.694-4.04A.983.983 0 0 1 8 1c.328 0 .634.165.816.437l2.693 4.04zM4.5 8A3.501 3.501 0 0 0 1 11.5 3.5 3.5 0 1 0 4.5 8m0 1.3c1.213 0 2.2.987 2.2 2.2s-.987 2.2-2.2 2.2-2.2-.987-2.2-2.2.987-2.2 2.2-2.2m7.066 4.7L14 11.566V14h-2.434zM10 12.566L13.566 9H14v1.434L10.434 14H10v-1.434zM12.433 9L10 11.435V9h2.433zM9 15h6V8H9v7z"/></svg>