<svg xmlns="http://www.w3.org/2000/svg" width="16" height="16" viewBox="0 0 16 16"><rect id="frame" width="16" height="16" fill="none"/><path fill="#AFB1B3" fill-rule="evenodd" d="M11.509 5.477c.2.3.219.687.049 1.006a.982.982 0 0 1-.864.517H5.307a.98.98 0 0 1-.816-1.523l2.694-4.04a.981.981 0 0 1 1.63 0l2.694 4.04zM4.5 8a3.5 3.5 0 1 0 .001 7.001A3.5 3.5 0 0 0 4.5 8m0 1.3c1.213 0 2.2.987 2.2 2.2s-.987 2.2-2.2 2.2-2.2-.987-2.2-2.2.987-2.2 2.2-2.2m7.066 4.7L14 11.566V14h-2.434zM10 12.566L13.566 9H14v1.434L10.433 14H10v-1.434zM12.433 9L10 11.435V9h2.433zM9 15h6V8H9v7z"/></svg>