<svg xmlns="http://www.w3.org/2000/svg" width="16" height="16" viewBox="0 0 16 16"><rect id="frame" width="16" height="16" fill="none"/><circle cx="7" cy="9" r="7" fill="#252525"/><circle cx="7" cy="9" r="6" fill="#c4c4c4"/><path d="M5.182 11h3.636C8.475 12.8 7.707 14 7 14s-1.475-1.2-1.818-3zM7 4c-.707 0-1.475 1.2-1.818 3h3.636C8.475 5.2 7.707 4 7 4zm2 5c0-.345-.017-.678-.046-1H5.046a11.128 11.128 0 0 0 0 2h3.908C8.983 9.678 9 9.345 9 9zm.839-2h1.739a5.014 5.014 0 0 0-2.629-2.605A7.542 7.542 0 0 1 9.839 7zm0 4a7.542 7.542 0 0 1-.89 2.605A5.014 5.014 0 0 0 11.578 11zm-5.678 0H2.422a5.014 5.014 0 0 0 2.629 2.605A7.542 7.542 0 0 1 4.161 11zm0-4a7.542 7.542 0 0 1 .89-2.605A5.014 5.014 0 0 0 2.422 7zm5.8 1c.026.325.042.657.042 1s-.016.675-.042 1H11.9a5 5 0 0 0 0-2zm-5.919 2C4.016 9.675 4 9.343 4 9s.016-.675.042-1H2.1a5 5 0 0 0 0 2z" fill="#292929"/><g><path d="M12.414 0h-.828L8 3.586V8h1.242L10 7.242V9a4.638 4.638 0 0 1-7.828 3.379A6.4 6.4 0 0 0 14 9V7.242l.758.758H16V3.586z" fill="#252525"/><path d="M1.142 10.305A6 6 0 0 0 13 9V4.828l2 2V4l-3-3-3 3v2.828l2-2V9a5 5 0 0 1-9.83 1.3z" fill="#7cbeff"/></g></svg>