<svg xmlns="http://www.w3.org/2000/svg" width="16" height="16" viewBox="0 0 16 16"><rect id="frame" width="16" height="16" fill="none"/><g fill="none" fill-rule="evenodd"><path fill="#59A869" d="M14.833 13.122v.301c0 .21-.036.409-.087.603h.968v.903H14.28a2.44 2.44 0 0 1-1.888.904 2.44 2.44 0 0 1-1.888-.904H9v-.903h1.037a2.345 2.345 0 0 1-.087-.603v-.301H9v-.904h.95v-.603c0-.103.018-.2.03-.3H9v-.905h1.291a2.44 2.44 0 0 1 .985-.925l-.858-.846.648-.639 1.23 1.215c.032-.001.029-.006.061-.006l.067.005L13.65 8l.647.64-.833.822c.43.21.787.54 1.029.948h1.222v.904h-.912c.013.1.03.198.03.301v.603h.882v.904h-.881zm-3.483-1.765v.84h2.014v-.84H11.35zm0 1.679v.839h2.014v-.84H11.35z"/><path fill="#9AA7B0" fill-opacity=".8" d="M5.5 9v6H3V1h9v2.5H5.5v3H11V9H5.5z"/></g></svg>