<svg ti:v="1" width="16" height="16" viewBox="0 0 16 16" xmlns="http://www.w3.org/2000/svg" xmlns:ti="urn:schemas-jetbrains-com:tisvg"><rect id="frame" width="16" height="16" fill="none"/><linearGradient id="a" x1=".5" y1="0" x2=".5" y2="1.009"><stop offset="0" stop-color="#005CA8"/><stop offset="1" stop-color="#00335D"/></linearGradient><path fill-rule="evenodd" d="M12 12.414l4-4v-.828l-4-4m-12 4v.828l4 4V3.586l-4 4z" fill="url(#a)"/><linearGradient id="b" x1=".5" y1="0" x2=".5" y2="1.011"><stop offset="0" stop-color="#D9EEFF"/><stop offset="1" stop-color="#96D0FF"/></linearGradient><path fill-rule="evenodd" d="M12 7l1 1-1 1v2l3-3-3-3M1 8l3 3V9L3 8l1-1V5L1 8z" fill="url(#b)"/><linearGradient id="c" x1=".5" y1=".01" x2=".5" y2="1.003"><stop offset="0" stop-color="#004A8A"/><stop offset="1" stop-color="#005B22"/></linearGradient><path fill-rule="evenodd" d="M5.586 2L4 3.586V14h8V2H5.586z" fill="url(#c)"/><linearGradient id="d" x1=".5" y1="-.004" x2=".5" y2="1"><stop offset="0" stop-color="#FFF9A3"/><stop offset="1" stop-color="#FFE260"/></linearGradient><path fill-rule="evenodd" d="M9 3L8 4v3h2l1-1V3M9 4h1v2H9M6 3L5 4h1v3h1V3m3 6l-1 1h1v3h1V9M6 9l-1 1v3h2l1-1V9m-2 1h1v2H6v-2z" fill="url(#d)"/><linearGradient id="e" x1=".5" y1=".007" x2=".5" y2="1"><stop offset="0" stop-color="#265DA6"/><stop offset="1" stop-color="#0A3269"/></linearGradient><path fill-rule="evenodd" d="M0 16h9V7H0v9z" fill="url(#e)"/><linearGradient id="f" x1=".5" y1=".018" x2=".5" y2="1.009"><stop offset="0" stop-color="#EAFFEC"/><stop offset="1" stop-color="#C3FFC8"/></linearGradient><path fill-rule="evenodd" d="M1 15h6.999V8H1v7z" fill="url(#f)"/><linearGradient id="g" x1=".5" y1=".009" x2=".5" y2="1.009"><stop offset="0" stop-color="#265DA6"/><stop offset="1" stop-color="#0A3269"/></linearGradient><path fill-rule="evenodd" d="M4 8v1H3c-1 0-1 1-1 1v1s0 1 1 1h2l-1 1H2s0 1 1 1h1v1h1v-1h1s1 0 1-1v-1s0-1-1-1H3v-1h1v1l1-1h2s0-1-1-1H5V8m1 5H5v-1h1v1z" fill="url(#g)"/></svg>