<svg ti:v="1" width="16" height="16" viewBox="0 0 16 16" xmlns="http://www.w3.org/2000/svg" xmlns:ti="urn:schemas-jetbrains-com:tisvg"><rect id="frame" width="16" height="16" fill="none"/><linearGradient id="a" x1=".5" y1="0" x2=".5" y2="1.009"><stop offset="0" stop-color="#005CA8"/><stop offset="1" stop-color="#00335D"/></linearGradient><path fill-rule="evenodd" d="M0 7.586v.828l4 4V3.586m12 4v.828l-4 4V3.586l4 4z" fill="url(#a)"/><linearGradient id="b" x1=".5" y1="0" x2=".5" y2="1.011"><stop offset="0" stop-color="#D9EEFF"/><stop offset="1" stop-color="#96D0FF"/></linearGradient><path fill-rule="evenodd" d="M12 5v2l1 1-1 1v2l3-3M4 11L1 8l3-3v2L3 8l1 1v2z" fill="url(#b)"/><linearGradient id="c" x1=".5" y1=".01" x2=".5" y2="1.003"><stop offset="0" stop-color="#004A8A"/><stop offset="1" stop-color="#005B22"/></linearGradient><path fill-rule="evenodd" d="M12 2H5.586L4 3.586V14h8V2z" fill="url(#c)"/><linearGradient id="d" x1=".5" y1="-.004" x2=".5" y2="1"><stop offset="0" stop-color="#FFF9A3"/><stop offset="1" stop-color="#FFE260"/></linearGradient><path fill-rule="evenodd" d="M7 3v4H6V4H5l1-1m5 6v4h-1v-3H9l1-1m-3 3H6v-2h1M6 9l-1 1v3h2l1-1V9m2-3H9V4h1M9 3L8 4v3h2l1-1V3H9z" fill="url(#d)"/><linearGradient id="e" x1=".5" y1=".028" x2=".5" y2="1.001"><stop offset="0" stop-color="#265DA6"/><stop offset="1" stop-color="#0A3269"/></linearGradient><path fill-rule="evenodd" d="M9 16H0V7h9v9z" fill="url(#e)"/><linearGradient id="f" x1=".5" y1=".012" x2=".5" y2="1"><stop offset="0" stop-color="#FFFBEA"/><stop offset="1" stop-color="#FFF5C3"/></linearGradient><path fill-rule="evenodd" d="M8 15H1V8h7v7z" fill="url(#f)"/><linearGradient id="g" x1=".5" y1="0" x2=".5" y2="1.017"><stop offset="0" stop-color="#265DA6"/><stop offset="1" stop-color="#0A3269"/></linearGradient><path fill-rule="evenodd" d="M7 12H2v1h5m0-2H2v-1h5v1z" fill="url(#g)"/></svg>