<svg ti:v="1" width="16" height="16" viewBox="0 0 16 16" xmlns="http://www.w3.org/2000/svg" xmlns:ti="urn:schemas-jetbrains-com:tisvg"><rect id="frame" width="16" height="16" fill="none"/><g fill-rule="evenodd"><path d="M0 7.586v.828l4 4V3.586m12 4v.828l-4 4V3.586l4 4z" fill="#242424"/><path d="M12 5v2l1 1-1 1v2l3-3M4 11L1 8l3-3v2L3 8l1 1v2z" fill="#C4C4C4"/><path d="M12 2H5.586L4 3.586V14h8V2z" fill="#242424"/><path d="M7 3v4H6V4H5l1-1m5 6v4h-1v-3H9l1-1m-3 3H6v-2h1M6 9l-1 1v3h2l1-1V9m2-3H9V4h1M9 3L8 4v3h2l1-1V3H9z" fill="#C4C4C4"/><path d="M9 16H0V7h9v9z" fill="#242424"/><path d="M8 15H1V8h7v7z" fill="#C4C4C4"/><path d="M7 12H2v1h5m0-2H2v-1h5v1z" fill="#282828"/></g></svg>