<svg ti:v="1" width="16" height="16" viewBox="0 0 16 16" xmlns="http://www.w3.org/2000/svg" xmlns:ti="urn:schemas-jetbrains-com:tisvg"><rect id="frame" width="16" height="16" fill="none"/><g fill-rule="evenodd"><path d="M0 7.586v.828l4 4V3.586m12 4v.828l-4 4V3.586l4 4z" fill="#F4F4F4"/><path d="M12 5v2l1 1-1 1v2l3-3M4 11L1 8l3-3v2L3 8l1 1v2z" fill="#313131"/><path d="M12 2H5.586L4 3.586V14h8V2z" fill="#F4F4F4"/><path d="M7 3v4H6V4H5l1-1m5 6v4h-1v-3H9l1-1m-3 3H6v-2h1M6 9l-1 1v3h2l1-1V9m2-3H9V4h1M9 3L8 4v3h2l1-1V3H9z" fill="#313131"/><path d="M9 16H0V7h9v9z" fill="#F4F4F4"/><path d="M8 15H1V8h7v7z" fill="#313131"/><path d="M4.8 12h-1l.4-1h1M7 9H6l-.4 1h-1L5 9H4l-.4 1H2v1h1.2l-.4 1H2v1h.4L2 14h1l.4-1h1L4 14h1l.4-1H7v-1H5.8l.4-1H7v-1h-.4L7 9z" fill="#EBEBEB"/></g></svg>