<svg ti:v="1" width="16" height="16" viewBox="0 0 16 16" xmlns="http://www.w3.org/2000/svg" xmlns:ti="urn:schemas-jetbrains-com:tisvg"><rect id="frame" width="16" height="16" fill="none"/><g fill-rule="evenodd"><path d="M12.62 12L14 5.099V4h-1.18l.4-2H6.176L5.78 4h-1.4L3 10.901V12h1.18l-.4 2h7.04l.4-2h1.4z" fill="#242424"/><path d="M8.8 9h-1l.4-2h1m3.4 0l.4-2h-1.4l.4-2h-2l-.4 2h-1l.396-2h-2L6.6 5H5.2l-.4 2h1.4l-.4 2H4.4L4 11h1.4L5 13h2l.4-2h1L8 13h2l.4-2h1.4l.4-2h-1.4l.4-2h1.4z" fill="#C3C3C3"/></g></svg>