<svg xmlns="http://www.w3.org/2000/svg" width="16" height="16" viewBox="0 0 16 16">
  <title>Vbasic(Gray)</title>
  <g>
    <rect width="16" height="16" fill="#ffe3ff" opacity="0"/>
    <g>
      <path d="M15.716,6.209A3.172,3.172,0,0,0,12.239,3H6.95l-.2.739c-.032.118-.5,1.845-.97,3.723-.469-1.882-.94-3.608-.973-3.726L4.606,3H1V4.386L3.841,14H7.162L8.4,9.7V14h3.984A3.457,3.457,0,0,0,16,10.313a3.05,3.05,0,0,0-.8-2.139A3.692,3.692,0,0,0,15.716,6.209Z" fill="#f4f4f4"/>
      <path d="M9,4,6.409,13H4.589L1.929,4H3.843s1.3,4.755,1.753,7.161h.341C6.429,8.765,7.715,4,7.715,4ZM13.5,8.367V8.342a2.114,2.114,0,0,0,1.222-2.133A2.184,2.184,0,0,0,12.239,4H9.4v9h2.984A2.457,2.457,0,0,0,15,10.314,1.813,1.813,0,0,0,13.5,8.367Zm-2.316-3.2h1.287q1.151,0,1.151,1.219c0,.919-.428,1.405-1.048,1.405h-1.39Zm1.427,6.623H11.179V8.97h1.437c.666,0,1.184.426,1.184,1.371C13.8,11.315,13.287,11.787,12.606,11.787Z" fill="#00539c"/>
    </g>
  </g>
</svg>
