<svg xmlns="http://www.w3.org/2000/svg" width="16" height="16" viewBox="0 0 16 16"><rect id="frame" width="16" height="16" fill="none"/><g fill="#6E6E6E" fill-rule="evenodd"><path d="M2.174 15.246L.759 13.83l3.536-3.535 1.414 1.414z"/><path d="M7 14L2 9h5z"/><path d="M1.823 8c.382-1.155 1.078-2.078 1.952-2.7l.866 1.495a1.16 1.16 0 0 0 1.569.431L6.616 7h.014c.48-.298.931-.638 1.35-1.016a.209.209 0 0 0-.009-.311.224.224 0 0 0-.29.01 9.382 9.382 0 0 1-1.28.953L6 6.86l.017-.012-.022.012a.722.722 0 0 1-.98-.269l-.917-1.583A.724.724 0 0 1 4.41 3.99c5.34-2.546 7.693 2.393 9.456.632a1.273 1.273 0 0 0-1.668-1.92.212.212 0 0 1-.277-.02l-.268-.273a.215.215 0 0 1 0-.311 2.22 2.22 0 0 1 3.086.052c.825.825 1.761 3.11-1.802 5.775-1.029.77-1.39 2.308-1.412 3.646a.212.212 0 0 1-.211.209h-.95a.212.212 0 0 1-.208-.186A1.446 1.446 0 0 0 8 10.532V8H1.823zm9.282-1.824v.002a.426.426 0 1 0-.68-.343l.68.341z"/></g></svg>