<svg xmlns="http://www.w3.org/2000/svg" width="13" height="13" viewBox="0 0 13 13"><rect id="frame" width="13" height="13" fill="none"/><path fill="#6E6E6E" fill-rule="evenodd" d="M12.293 1.904a2.062 2.062 0 0 0-2.865-.05.2.2 0 0 0 0 .29l.248.254c.07.07.18.077.258.018a1.182 1.182 0 0 1 1.549 1.783C9.845 5.834 7.66 1.248 2.702 3.612a.672.672 0 0 0-.29.945l.852 1.47a.67.67 0 0 0 .91.25l.02-.012-.016.011.373-.208c.42-.26.818-.557 1.188-.885a.208.208 0 0 1 .27-.01.194.194 0 0 1 .009.29c-.39.35-.81.666-1.254.943H4.75l-.378.211a1.076 1.076 0 0 1-1.456-.4L2.112 4.83C.573 5.924-.372 8.028.14 10.692c.017.093.098.16.192.16h.907a.197.197 0 0 0 .201-.179 1.342 1.342 0 0 1 2.662 0 .195.195 0 0 0 .193.172h.888a.197.197 0 0 0 .193-.172 1.342 1.342 0 0 1 2.662 0 .197.197 0 0 0 .193.172h.882a.197.197 0 0 0 .196-.193c.02-1.243.356-2.67 1.31-3.386 3.31-2.475 2.44-4.596 1.674-5.362zM8.92 5.642l-.631-.316a.396.396 0 1 1 .631.318v-.002z"/></svg>