<svg width="32" height="32" viewBox="0 0 32 32" fill="none" xmlns="http://www.w3.org/2000/svg">
<path d="M20.5667 0L21.2 13L5.00001 19.4L1.20838e-05 6.46667L20.5667 0Z" fill="url(#paint0_linear)"/>
<path d="M32 7.6L18 13.6667L20.5667 0L32 7.6Z" fill="#21D789"/>
<path d="M17.1667 10.6L32 7.59998V21.6333L21.8 25.4666L17.6333 21.6666L17.1667 10.6Z" fill="url(#paint1_linear)"/>
<path d="M11 6.5L21.2342 8.08333L32 21.5087L21.6661 25.5L17.6788 21.5417L11 6.5Z" fill="url(#paint2_linear)"/>
<path d="M6.60001 0L21.2 8.06667L16.1667 32H7.66668L0.300014 24.4L6.60001 0Z" fill="url(#paint3_linear)"/>
<path d="M26 6H6V26H26V6Z" fill="url(#paint4_linear)"/>
<path d="M16 23H8V24H16V23Z" fill="white"/>
<path d="M8 8H10.9709C13.3704 8 15.0844 9.71397 15.0844 11.885C15.0844 14.056 13.3704 15.77 10.9709 15.77H8V8ZM9.71397 9.71397V14.2846H11.0851C12.4563 14.2846 13.3704 13.3704 13.3704 11.9993C13.3704 10.6281 12.4563 9.71397 11.0851 9.71397H9.71397Z" fill="white"/>
<path d="M16 14.8782L17.1341 13.6562C17.9162 14.2497 18.7765 14.5988 19.7542 14.5988C20.5363 14.5988 21.0447 14.3195 21.0447 13.8656V13.8307C21.0447 13.3768 20.7318 13.1674 19.2849 12.8182C17.486 12.4341 16.352 11.9803 16.352 10.4091V10.3742C16.352 8.94269 17.6425 8 19.4413 8C20.7318 8 21.8268 8.34915 22.7263 9.01252L21.7095 10.3044C20.9274 9.81556 20.1453 9.53624 19.4022 9.53624C18.6592 9.53624 18.2682 9.85047 18.2682 10.2345V10.2694C18.2682 10.7932 18.6592 10.9677 20.1844 11.3169C21.9832 11.7359 23 12.2945 23 13.6911V13.726C23 15.2971 21.6704 16.17 19.7542 16.17C18.4246 16.1351 17.0559 15.7161 16 14.8782Z" fill="white"/>
<defs>
<linearGradient id="paint0_linear" x1="23.7325" y1="9.70743" x2="2.52135" y2="9.70743" gradientUnits="userSpaceOnUse">
<stop offset="0" stop-color="#21D789"/>
<stop offset="0.9169" stop-color="#FCF84A"/>
</linearGradient>
<linearGradient id="paint1_linear" x1="24.5784" y1="9.23791" x2="24.5784" y2="35.7103" gradientUnits="userSpaceOnUse">
<stop offset="0" stop-color="#21D789"/>
<stop offset="1" stop-color="#087CFA"/>
</linearGradient>
<linearGradient id="paint2_linear" x1="42.0886" y1="33.3585" x2="10.7974" y2="7.8588" gradientUnits="userSpaceOnUse">
<stop offset="0.1049" stop-color="#21D789"/>
<stop offset="0.9668" stop-color="#087CFA"/>
</linearGradient>
<linearGradient id="paint3_linear" x1="27.6667" y1="-2.4631" x2="5.61115" y2="22.5332" gradientUnits="userSpaceOnUse">
<stop offset="0.2348" stop-color="#21D789"/>
<stop offset="0.7396" stop-color="#087CFA"/>
</linearGradient>
<linearGradient id="paint4_linear" x1="15.9733" y1="1.139" x2="15.9733" y2="19.075" gradientUnits="userSpaceOnUse">
<stop offset="0.0842986" stop-color="#878585"/>
<stop offset="0.5377"/>
</linearGradient>
</defs>
</svg>
