<svg xmlns="http://www.w3.org/2000/svg" width="16" height="16" viewBox="0 0 16 16"><rect id="frame" width="16" height="16" fill="none"/><g fill="#9AA7B0" fill-rule="evenodd"><path d="M3 2v6.009l.018.001c-.071-.551.082-1.288.602-1.92.118-.144.248-.262.38-.369V5h10v7H8.548l.452.164v.828L8.998 13H15V2H3z"/><path d="M4.392 6.727c.506-.613 1.307-.685 1.606-.727.015.492-.033.98-.502 1.442-.56.548-1.25.564-1.462.557-.076-.237-.048-.778.358-1.272m.139 3.086C4.283 9.813 3.528 9 2.818 9 1.938 9 1 9.992 1 11.477 1 12.783 2.02 15 3.032 15c.678 0 1.059-.91 1.628-.91.588 0 .824.904 1.522.904.756 0 1.656-1.503 1.818-2.128-.561-.203-1.373-.811-1.373-1.611 0-.681.513-1.15 1.149-1.55C7.364 9.153 6.718 9 6.293 9c-.68 0-1.51.813-1.762.813"/></g></svg>