<svg xmlns="http://www.w3.org/2000/svg" width="16" height="16" viewBox="0 0 16 16"><rect id="frame" width="16" height="16" fill="none"/><path fill="#9AA7B0" d="M12.9 9h-1.945c.027-.326.045-.658.045-1 0-.342-.018-.674-.045-1H12.9a5.062 5.062 0 0 1 0 2m-3.002 3.622c.417-.687.745-1.583.93-2.622h1.751a5.013 5.013 0 0 1-2.68 2.622M8 13c-.62 0-1.448-1.125-1.813-3h3.625C9.447 11.875 8.62 13 8 13m-4.579-3h1.753c.184 1.039.512 1.936.93 2.622A5.015 5.015 0 0 1 3.42 10m-.42-2c0-.343.034-.677.1-1h1.944C5.017 7.326 5 7.658 5 8c0 .342.017.674.045 1H3.1A5.062 5.062 0 0 1 3 8m3.103-4.622c-.417.686-.745 1.583-.929 2.622H3.421a5.015 5.015 0 0 1 2.682-2.622M8 3c.62 0 1.447 1.125 1.812 3H6.187C6.552 4.125 7.38 3 8 3m2 5c0 .35-.02.681-.048 1H6.047C6.02 8.681 6 8.35 6 8s.02-.681.047-1h3.905c.028.319.048.65.048 1m2.578-2h-1.752c-.184-1.039-.512-1.935-.929-2.622A5.013 5.013 0 0 1 12.578 6M8 1a7 7 0 0 0-7 7 7 7 0 1 0 7-7" fill-rule="evenodd"/></svg>