<svg xmlns="http://www.w3.org/2000/svg" width="16" height="16" viewBox="0 0 16 16"><rect id="frame" width="16" height="16" fill="none"/><g fill="none" fill-rule="evenodd"><path fill="#9AA7B0" d="M3 2v5.686l1 1.302V5h10v7h-3.632c.167.32.298.654.398 1H15V2H3z"/><path fill="#A4C639" d="M7.472 13.543a.643.643 0 1 1 0-1.286.643.643 0 0 1 0 1.286m-3.943 0a.643.643 0 1 1 0-1.286.643.643 0 0 1 0 1.286m4.815-2.504l1.52-1.981a.658.658 0 0 0-1.043-.8l-1.6 2.086a4.483 4.483 0 0 0-3.441 0L2.179 8.258a.658.658 0 1 0-1.042.8l1.52 1.981C1.654 11.864 1 13.1 1 14.5v.5h9v-.5c0-1.4-.653-2.636-1.656-3.461"/></g></svg>