<svg xmlns="http://www.w3.org/2000/svg" width="16" height="16" viewBox="0 0 16 16"><rect id="frame" width="16" height="16" fill="none"/><g fill="none" fill-rule="evenodd"><path fill="#A4C639" d="M11.5 4.5a.5.5 0 1 0-1 0 .5.5 0 0 0 1 0m-3 0a.5.5 0 1 0-1 0 .5.5 0 0 0 1 0m4.396-2.694L11.727 3.32A3.478 3.478 0 0 1 13 6H7.581a4.027 4.027 0 0 0-1.248-1.466c.223-.47.544-.884.94-1.214L6.104 1.806a.5.5 0 0 1 .792-.612l1.226 1.589a3.493 3.493 0 0 1 2.756 0l1.226-1.589a.5.5 0 1 1 .792.612M14.25 6a.75.75 0 0 0-.75.75v3.486a.75.75 0 0 0 1.5 0V6.75a.75.75 0 0 0-.75-.75m-6.396.75H13v4.503a.746.746 0 0 1-.747.747H12v2.146a.855.855 0 0 1-.855.854h-.29a.855.855 0 0 1-.855-.854V12H9v2.109a.89.89 0 0 1-.891.891h-.218A.89.89 0 0 1 7 14.109V12h-.253A.746.746 0 0 1 6 11.253v-.009a4.02 4.02 0 0 0 2-3.467 3.95 3.95 0 0 0-.146-1.027"/><path fill="#9AA7B0" d="M5 5v3H3V5a2.994 2.994 0 0 0-2 2.816c0 1.304.838 2.403 2 2.817V14a1 1 0 1 0 2 0v-3.367a2.994 2.994 0 0 0 2-2.817A2.994 2.994 0 0 0 5 5" opacity=".8"/></g></svg>