<svg xmlns="http://www.w3.org/2000/svg" width="16" height="16" viewBox="0 0 16 16"><rect id="frame" width="16" height="16" fill="none"/><g fill="none" fill-rule="evenodd"><path fill="#A4C639" d="M11.5 4.5a.5.5 0 1 0-1 0 .5.5 0 0 0 1 0zm-3 0a.5.5 0 1 0-1 0 .5.5 0 0 0 1 0zm4.396-2.694L11.727 3.32A3.478 3.478 0 0 1 13 6H6c0-1.082.501-2.037 1.273-2.68L6.104 1.806a.5.5 0 0 1 .792-.612l1.226 1.589a3.493 3.493 0 0 1 2.756 0l1.226-1.589a.5.5 0 1 1 .792.612zM14.25 6a.75.75 0 0 0-.75.75v3.486a.75.75 0 0 0 1.5 0V6.75a.75.75 0 0 0-.75-.75zM6 7h2v2h3v6h.145a.855.855 0 0 0 .855-.854V12h.253a.746.746 0 0 0 .747-.747V6.75H6V7zM4 7v-.25a.75.75 0 0 1 1.5 0V7H4z"/><path fill="#9AA7B0" d="M8 13v1H7v-1H4v1H3v-1H1v2h9v-2H8zm-7-3v2h1.5l.5-.5h1l.5.5h2l.5-.5h1l.5.5H10v-2H1zm3-1h3V8H4v1z" opacity=".8"/></g></svg>