<svg xmlns="http://www.w3.org/2000/svg" width="16" height="16" viewBox="0 0 16 16">
  <g id="dotNetProject" fill="none" fill-rule="evenodd" stroke="none" stroke-width="1">
    <path id="Fill-2" fill="#40B6E0" d="M7.9766,10.1763 C7.7026,9.4853 6.9966,6.9603 6.8396,6.00028532 C7.1636,5.9983 7.4586,6.2003 7.6236,6.8113 C7.8226,7.5513 8.3306,10.2403 9.2036,11.0003 C8.7276,11.0183 8.2476,10.8593 7.9766,10.1763 L7.9766,10.1763 Z M13.9996,5.0003 C13.9996,5.0013 12.5996,8.1323 12.3636,8.5383 C12.2626,8.7123 12.0366,9.1023 11.8536,9.3123 C12.3136,8.0903 13.2756,5.0013 13.2756,5.0003 L13.1076,5.0003 C11.7746,5.0003 11.2456,5.9923 10.9556,7.4193 C10.8146,8.1113 10.3216,9.9703 10.0906,10.4933 C9.9366,10.0133 9.5586,7.2873 9.0626,6.2003 C8.6986,5.4023 8.2016,5.0003 7.4756,5.0003 L5.1306,5.0003 C4.6786,5.0003 4.2246,5.2563 3.6996,5.7903 C2.8726,6.6333 1.6086,9.0463 0.9996,11.9883 L2.2016,11.9883 C2.5036,10.3343 3.0946,8.6263 3.9786,7.5003 C3.4696,8.8143 2.9826,10.8183 2.8226,11.9703 C3.7636,11.8853 4.4196,11.3953 4.5416,10.5003 C4.7056,9.3023 5.1666,7.3123 5.9206,6.4263 C6.0846,7.0093 6.4686,9.3073 6.7266,10.1243 C7.0746,11.2203 7.4226,12.0003 8.2446,12.0003 L10.8526,12.0003 C11.5616,12.0003 12.1006,11.1293 12.5996,10.2883 C13.0356,9.5543 14.7636,5.9213 14.9996,5.0003 L13.9996,5.0003 Z"/>
  </g>
</svg>
