<svg xmlns="http://www.w3.org/2000/svg" width="16" height="16" viewBox="0 0 16 16">
  <g id="dotNetExecutable" fill="none" fill-rule="evenodd" stroke="none" stroke-width="1">
    <path id="Fill-2" fill="#40B6E0" d="M7.9766,11.1763 C7.7026,10.4853 6.9966,7.9603 6.8396,7.00028532 C7.1636,6.9983 7.4586,7.2003 7.6236,7.8113 C7.8226,8.5513 8.3306,11.2403 9.2036,12.0003 C8.7276,12.0183 8.2476,11.8593 7.9766,11.1763 L7.9766,11.1763 Z M13.4766,7.1613 C13.0526,8.0983 12.5036,9.2973 12.3636,9.5383 C12.2626,9.7123 12.0366,10.1023 11.8536,10.3123 C12.0716,9.7343 12.4006,8.7403 12.6876,7.8523 L11.3756,9.0003 L10.8216,9.0003 C10.6146,9.8463 10.2726,11.0813 10.0906,11.4933 C9.9366,11.0133 9.5586,8.2873 9.0626,7.2003 C8.6986,6.4023 8.2016,6.0003 7.4756,6.0003 L5.1306,6.0003 C4.6786,6.0003 4.2246,6.2563 3.6996,6.7903 C2.8726,7.6333 1.6086,10.0463 0.9996,12.9883 L2.2016,12.9883 C2.5036,11.3343 3.0946,9.6263 3.9786,8.5003 C3.4696,9.8143 2.9826,11.8183 2.8226,12.9703 C3.7636,12.8853 4.4196,12.3953 4.5416,11.5003 C4.7056,10.3023 5.1666,8.3123 5.9206,7.4263 C6.0846,8.0093 6.4686,10.3073 6.7266,11.1243 C7.0746,12.2203 7.4226,13.0003 8.2446,13.0003 L10.8526,13.0003 C11.5616,13.0003 12.1006,12.1293 12.5996,11.2883 C13.0356,10.5543 14.7636,6.9213 14.9996,6.0003 L14.8046,6.0003 L13.4766,7.1613 Z"/>
    <polygon id="Fill-4" fill="#62B543" points="11 1 11 8 15 4.5"/>
  </g>
</svg>
