<svg xmlns="http://www.w3.org/2000/svg" width="16" height="16" viewBox="0 0 16 16">
  <title>LaunchSettings</title>
  <g>
    <rect width="16" height="16" fill="#ffdbff" opacity="0"/>
    <path d="M13,9.906c0,.4-.764.924-1.894,1.06.068-.245.132-.5.184-.758.539-.125.892-.414.892-.644A2.6,2.6,0,0,0,11.5,8.346c0-.051.005-.1.005-.154,0-.175-.017-.346-.023-.52A4.4,4.4,0,0,1,13,9.906ZM11,8.192A9.161,9.161,0,0,1,10.185,12H5.815a5.963,5.963,0,0,1-.391-1C4.009,10.99,3,10.368,3,9.906A5.041,5.041,0,0,1,5.042,7.244C5.243,4.135,6.4,1.3,8,0,9.759,1.426,11,4.722,11,8.192ZM6.208,9.264a3.27,3.27,0,0,0-.517-1.832A3.793,3.793,0,0,0,4,9.494c0,.33.729.777,1.749.777C5.859,10.271,6.208,10.213,6.208,9.264ZM9.75,5.5A1.25,1.25,0,1,0,8.5,6.75,1.25,1.25,0,0,0,9.75,5.5Z" fill="#9aa7b0"/>
    <path d="M8.7,13A9.416,9.416,0,0,1,8,14.366,9.416,9.416,0,0,1,7.3,13H6.214A10.045,10.045,0,0,0,8,16a10.045,10.045,0,0,0,1.786-3Z" fill="#f4af3d"/>
  </g>
</svg>
