<svg xmlns="http://www.w3.org/2000/svg" width="16" height="16" viewBox="0 0 16 16">
  <g id="monoRemote" fill="none" fill-rule="evenodd" stroke="none" stroke-width="1">
    <path id="Fill-2" fill="#9AA7B0" d="M1,1 L1,6.375 C2.046,6.127 2.876,5.841 3.958,5.375 C4.481,5.591 5.633,5.73 6.475,5.761 C6.505,5.736 6.518,5.645 6.521,5.62 C5.521,5.008 3.51,4.166 3.771,3 C3.837,2.703 4.078,2.5 4.349,2.365 C4.601,2.239 6.984,3.152 7.902,2.898 C7.941,2.836 7.95,2.804 7.965,2.726 C7.444,2.58 6.344,2.12 6.021,1.854 C8.02,0.71 11.307,1.759 12.254,2.458 C12.479,2.624 12.701,2.823 12.828,3.092 C13.147,3.766 13.417,4.943 13.365,5.433 C13.336,5.701 13.36,5.837 13.012,5.848 C12.569,5.862 10.404,5.306 10.045,5.039 C9.987,5.087 9.957,5.352 9.98,5.431 C10.125,6.084 11.942,6.82 12.352,6.905 C12.83,7.752 12.784,8.905 12.595,10.041 C12.501,10.602 9.916,8.71 9.541,8.203 C9.496,8.236 9.441,8.314 9.421,8.383 C9.421,9.438 10.666,10.572 12.095,11.353 C11.97,11.806 11.729,12.435 11.506,12.734 C11.477,12.773 11.431,12.785 11.209,12.71 C10.849,12.587 6.001,10.533 6.001,10.533 C6.001,10.533 3.208,13.948 2.048,15 L15,15 L15,1 L1,1 Z"/>
  </g>
</svg>
