<svg xmlns="http://www.w3.org/2000/svg" width="16" height="16">
  <path d="M10.823 7.427a.25.25 0 01-.25-.25V6.25a.25.25 0 01.25-.25h.927a.25.25 0 01.25.25v.927a.25.25 0 01-.25.25h-.927M9.25 9A.25.25 0 019 8.75V7.872a.25.25 0 01.25-.25h.878a.25.25 0 01.25.25V8.75a.25.25 0 01-.25.25H9.25" fill="#9aa7b0"/>
  <circle cx="5.5" cy="7.5" r="1.5" fill="#9aa7b0"/>
  <path d="M14.148,4.79A3.59,3.59,0,0,0,11.192,3a3.213,3.213,0,0,0-1.645.531,3.049,3.049,0,0,1-1.072.432,3.842,3.842,0,0,0-.269-1.2A2.946,2.946,0,0,1,8,1.5,2.031,2.031,0,0,1,8.718,0H7.45A2.648,2.648,0,0,0,7,1.5a3.922,3.922,0,0,0,.272,1.618,2.916,2.916,0,0,1,.2.833,3.141,3.141,0,0,1-1.019-.42A3.213,3.213,0,0,0,4.808,3,3.59,3.59,0,0,0,1.852,4.79,31.361,31.361,0,0,0,0,11.456C0,13.752,1.534,14,2.193,14a3.117,3.117,0,0,0,2.531-1.473A3.488,3.488,0,0,1,8,11a3.488,3.488,0,0,1,3.276,1.527A3.117,3.117,0,0,0,13.807,14C14.466,14,16,13.752,16,11.456A31.361,31.361,0,0,0,14.148,4.79ZM13.807,13C11.73,13,12.256,10,8,10s-3.73,3-5.807,3C1.3,13,1,12.46,1,11.456A32.7,32.7,0,0,1,2.72,5.285,2.6,2.6,0,0,1,4.808,4C5.828,4,6.263,5,8,5s2.172-1,3.192-1A2.6,2.6,0,0,1,13.28,5.285,32.7,32.7,0,0,1,15,11.456C15,12.46,14.7,13,13.807,13Z" fill="#9aa7b0"/>
</svg>
