<svg xmlns="http://www.w3.org/2000/svg" width="16" height="16" viewBox="0 0 16 16">
  <g id="xamarinApplePhone" fill="none" fill-rule="evenodd" stroke="none" stroke-width="1">
    <path id="Fill-2" fill="#9AA7B0" d="M12,1 L9,1 C7.896,1 7,1.896 7,3 L7,8.085 C7.367,8.174 7.702,8.343 8,8.559 L8,3.5 L13,3.5 L13,10.5 L8.391,10.5 L8.308,10.552 C7.627,10.979 7.627,11.187 7.627,11.255 C7.627,11.455 7.994,11.8 8.34,11.925 L9,12.164 L9,12.992 L8.998,13 L9,13 L12,13 C13.104,13 14,12.104 14,11 L14,3 C14,1.896 13.104,1 12,1"/>
    <path id="Fill-4" fill="#9AA7B0" d="M4.3916,6.7266 C4.8976,6.1136 5.6976,6.0416 5.9976,5.9996 C6.0126,6.4916 5.9646,6.9796 5.4956,7.4416 C4.9356,7.9896 4.2456,8.0056 4.0336,7.9986 C3.9576,7.7616 3.9846,7.2206 4.3916,6.7266 M4.5296,9.8126 C4.2826,9.8126 3.5266,8.9996 2.8176,8.9996 C1.9386,8.9996 0.9996,9.9916 0.9996,11.4766 C0.9996,12.7826 2.0186,14.9996 3.0316,14.9996 C3.7096,14.9996 4.0916,14.0906 4.6596,14.0906 C5.2476,14.0906 5.4836,14.9936 6.1816,14.9936 C6.9376,14.9936 7.8386,13.4906 7.9996,12.8656 C7.4386,12.6626 6.6276,12.0546 6.6276,11.2546 C6.6276,10.5736 7.1396,10.1046 7.7756,9.7046 C7.3636,9.1526 6.7176,8.9996 6.2926,8.9996 C5.6136,8.9996 4.7826,9.8126 4.5296,9.8126"/>
  </g>
</svg>
