<svg xmlns="http://www.w3.org/2000/svg" width="16" height="16" viewBox="0 0 16 16"><rect id="frame" width="16" height="16" fill="none"/><g fill="none" fill-rule="evenodd"><path fill="#AFB1B3" d="M5 3h2v10H5z"/><path fill="#AFB1B3" d="M11 7v2H1V7z"/><g fill-rule="nonzero" transform="translate(9 8.8)"><circle cx="3.5" cy="3.5" r="3.5" fill="#40B6E0" fill-opacity=".6"/><path fill="#231F20" d="M4.822 4.383c-.304.32-.733.43-1.177.417-.73-.032-1.296-.577-1.266-1.297a1.32 1.32 0 0 1 .362-.964c.244-.258.583-.33.94-.339.423-.004.83.074 1.138.36l.32-.34c-.232-.23-.558-.567-1.551-.567-.583 0-.996.178-1.36.525a1.857 1.857 0 0 0-.576 1.325c.004 1.029.903 1.862 1.936 1.86 1.166-.004 1.41-.463 1.572-.639l-.338-.34z" opacity=".7"/></g></g></svg>