<svg xmlns="http://www.w3.org/2000/svg" width="16" height="16" viewBox="0 0 16 16"><rect id="frame" width="16" height="16" fill="none"/><defs><linearGradient id="a" x1="50%" y1="29.171%" y2="100%"><stop offset="0%" stop-color="#2684FF"/><stop offset="100%" stop-color="#0042A4"/></linearGradient></defs><g fill="none" fill-rule="evenodd"><path fill="#6E6E6E" d="M5 3h2v10H5z"/><path fill="#6E6E6E" d="M11 7v2H1V7z"/><g fill-rule="nonzero"><path fill="url(#a)" d="M3.5 0H5v5H3.5z" transform="rotate(45 -4.596 19.632)"/><path fill="url(#a)" transform="scale(1 -1) rotate(-45 -10.632 -17.132)" d="M0 0h1.5v5H0z"/><path fill="#2684FF" d="M12.536 16.071L9 12.535l1.06-1.06 2.25 2.25c.369.368.658.792.7 1.23.031.326-.05.622-.474 1.116z"/><path fill="#2684FF" d="M12.536 9l3.535 3.535-1.06 1.061-2.25-2.25c-.368-.368-.657-.792-.7-1.23-.03-.326.051-.622.475-1.116z"/></g></g></svg>