<svg ti:v="1" width="16" height="16" viewBox="0 0 16 16" xmlns="http://www.w3.org/2000/svg" xmlns:ti="urn:schemas-jetbrains-com:tisvg"><rect id="frame" width="16" height="16" fill="none"/><path d="M9.977 3.613l1.489-1.47L10.308 1 8.12 3.17c-.021 0-.1-.01-.12-.01-.058 0-.051.009-.109.011L5.692 1 4.534 2.143l1.533 1.512a4.36 4.36 0 0 0-1.76 1.653H2v1.615h1.753a4.17 4.17 0 0 0-.055.539v1.076H2v1.616h1.7v.538c.005.364.057.726.156 1.077H2v1.616h2.687a4.333 4.333 0 0 0 6.748 0H14v-1.616h-1.731c.098-.35.15-.713.156-1.077v-.538H14V8.538h-1.575V7.462a4.17 4.17 0 0 0-.056-.539H14V5.308h-2.185a4.356 4.356 0 0 0-1.838-1.695zM9.8 11.5H6.2V10h3.6zm0-3H6.2V7h3.6zm0 0" fill="#59A869"/></svg>