<svg ti:v="1" width="16" height="16" viewBox="0 0 16 16" xmlns="http://www.w3.org/2000/svg" xmlns:ti="urn:schemas-jetbrains-com:tisvg"><rect id="frame" width="16" height="16" fill="none"/><path fill-rule="evenodd" d="M15 14.385V4.308h-2.653a5.35 5.35 0 0 0-.793-.847l1.336-1.318L10.719 0H9.9L8 1.877 6.1 0h-.819L3.11 2.143l1.4 1.376c-.27.238-.514.502-.73.789H1v10.077h3.241a5.325 5.325 0 0 0 7.64 0zm0 0" fill="#293D00" opacity=".749"/><linearGradient id="a" x1=".5" y1="0" x2=".5" y2="1"><stop offset="0" stop-color="#BBFF61"/><stop offset="1" stop-color="#BCD100"/></linearGradient><path fill-rule="evenodd" d="M9.977 3.613l1.489-1.47L10.308 1 8.12 3.17c-.021 0-.1-.01-.12-.01-.058 0-.051.009-.109.011L5.692 1 4.534 2.143l1.533 1.512a4.36 4.36 0 0 0-1.76 1.653H2v1.615h1.753a4.17 4.17 0 0 0-.055.539v1.076H2v1.616h1.7v.538c.005.364.057.726.156 1.077H2v1.616h2.687a4.333 4.333 0 0 0 6.748 0H14v-1.616h-1.731c.098-.35.15-.713.156-1.077v-.538H14V8.538h-1.575V7.462a4.17 4.17 0 0 0-.056-.539H14V5.308h-2.185a4.356 4.356 0 0 0-1.838-1.695zm0 0" fill="url(#a)"/><path fill-rule="evenodd" d="M9.8 11.5H6.2V10h3.6zm0-3H6.2V7h3.6zm0 0" fill="#293D00" opacity=".749"/></svg>