<svg xmlns="http://www.w3.org/2000/svg" width="16" height="16" viewBox="0 0 16 16"><rect id="frame" width="16" height="16" fill="none"/><g fill="none" fill-rule="evenodd"><path fill="#9AA7B0" d="M10.825 10.547a2.554 2.554 0 0 1 3.4-3.219L12.37 9.183l1.354 1.355 1.855-1.855a2.554 2.554 0 0 1-3.219 3.4l-3.787 3.786-1.534-1.535 3.786-3.787z"/><path fill="#F4AF3D" fill-opacity=".6" d="M14.723 6.045A3.75 3.75 0 0 0 9.438 9.99L5.07 14.36a7.001 7.001 0 1 1 9.653-8.314z"/><path fill="#231F20" fill-opacity=".7" d="M7.813 8C8.777 8 9 7.674 9 7.05v-.018C9 6.33 8.76 6 7.812 6H7v2h.812zM6 5h1.831C9.168 5 10 5.797 10 7.006 10 8.37 8.972 9 7.717 9L7 8.984V11H6V5z"/></g></svg>