<svg xmlns="http://www.w3.org/2000/svg" width="16" height="16" viewBox="0 0 16 16"><rect id="frame" width="16" height="16" fill="none"/><g fill="none" fill-rule="evenodd"><path fill="#77BBE2" d="M7.634 14.835c-2.307-.148-3.92-1.686-3.92-3.545 0 0 .147-1.14.21-2.378h-.01c.022-.29.038-.612.038-.989 0-1.539-.238-3.368-.238-3.368C3.714 2.6 5.5 1 8 1c2.5 0 4.286 1.6 4.286 3.556 0 0-.155 1.352-.215 2.548H9.368a.968.968 0 0 0-.829.505l-2.21 3.913a1.003 1.003 0 0 0 0 .982l1.305 2.33z"/><path fill="#77BBE2" d="M13 3.18c0 .495-.373.897-.833.897-.46 0-.834-.402-.834-.898 0-.495.374-.897.834-.897.46 0 .833.402.833.897m-10 0c0 .496.373.898.833.898.46 0 .834-.402.834-.898 0-.495-.374-.897-.834-.897-.46 0-.833.402-.833.897"/><path fill="#FFF" d="M7.743 5.078c0 .836-.688 1.514-1.538 1.514-.85 0-1.538-.678-1.538-1.514s.688-1.514 1.538-1.514c.85 0 1.538.678 1.538 1.514"/><path fill="#FFF" d="M7.743 5.078c0 .836-.688 1.514-1.538 1.514-.85 0-1.538-.678-1.538-1.514s.688-1.514 1.538-1.514c.85 0 1.538.678 1.538 1.514"/><path fill="#000" d="M6.993 5.073c0 .409-.307.74-.687.74-.38 0-.687-.331-.687-.74 0-.408.308-.74.687-.74.38 0 .687.332.687.74"/><path fill="#FFF" d="M11.137 5.078c0 .836-.688 1.514-1.538 1.514-.85 0-1.539-.678-1.539-1.514S8.75 3.564 9.6 3.564s1.538.678 1.538 1.514"/><path fill="#000" d="M10.387 5.073c0 .409-.308.74-.687.74-.38 0-.687-.331-.687-.74 0-.408.307-.74.687-.74.38 0 .687.332.687.74"/><path fill="#FFF" d="M7.523 7.923h.953v-.769h-.953z"/><path fill="#B7937F" d="M8.953 6.897c0 .284-.427.513-.953.513s-.952-.23-.952-.513c0-.283.426-.512.952-.512s.953.23.953.513"/><path fill="#000" d="M8.476 6.633c0 .288-.216.264-.484.264-.267 0-.484.024-.484-.264 0-.289.217-.522.484-.522.268 0 .484.233.484.522"/><path fill="#B7937F" fill-rule="nonzero" d="M4.19 8.271c0 .354-.266.641-.595.641-.328 0-.595-.287-.595-.64 0-.355.267-.642.595-.642.33 0 .596.287.596.641M12 14.205c0 .354-.267.641-.596.641-.329 0-.596-.287-.596-.641 0-.354.267-.64.596-.64.329 0 .595.286.595.64m-6.81 0c0 .354-.266.641-.595.641-.328 0-.595-.287-.595-.641 0-.354.267-.64.595-.64.329 0 .596.286.596.64"/><g><path fill="#4285F4" d="M15.851 11.535l-1.799-3.129a.79.79 0 0 0-.674-.402h-3.6a.79.79 0 0 0-.674.402l-1.8 3.121a.785.785 0 0 0 0 .783l1.8 3.146a.805.805 0 0 0 .674.417h3.599a.802.802 0 0 0 .675-.415l1.8-3.129a.802.802 0 0 0 0-.794z"/><path fill="#000" d="M14.127 11.8l-.047-.014-2.387-2.388-.49.717.41.41-1.044.38-.41 1.039-.401-.401-.72.635 3.695 3.693h.644a.802.802 0 0 0 .675-.414l1.362-2.37-1.287-1.286z" opacity=".07"/><g fill="#FFF"><path fill-rule="nonzero" d="M11.578 10.364a1.573 1.573 0 1 0 0 3.147 1.573 1.573 0 0 0 0-3.147m0 2.773a1.196 1.196 0 1 1 .846-.354c-.224.225-.528.35-.846.35"/><path d="M14.05 11.75l-.657-.205a1.857 1.857 0 0 1 .022.67h.636a.116.116 0 0 0 .098-.108v-.248a.116.116 0 0 0-.098-.108m-2.473-1.67c.13 0 .259.013.386.04l-.236-.655a.116.116 0 0 0-.109-.098h-.098a.115.115 0 0 0-.108.098l-.205.652c.121-.025.245-.037.369-.037m-1.856 1.856c0-.132.014-.264.042-.393l-.657.205a.116.116 0 0 0-.098.108v.249c.003.054.044.099.098.107h.636a1.86 1.86 0 0 1-.02-.277"/><path fill-rule="nonzero" d="M12.141 11.423l-.152.15a.568.568 0 0 0-.8.802l-.149.15a.779.779 0 0 0 1.101-1.102m-.307.77a.361.361 0 1 1-.512-.51.361.361 0 0 1 .512.51"/></g></g></g></svg>