<svg xmlns="http://www.w3.org/2000/svg" width="16" height="16" viewBox="0 0 16 16"><rect id="frame" width="16" height="16" fill="none"/><g fill="none" fill-rule="evenodd"><path fill="#77BBE2" d="M9.093 15a18.99 18.99 0 0 1-.045-1.077c0-1.282.238-3.367.238-3.367C9.286 8.6 7.5 7 5 7 2.5 7 .714 8.6.714 10.556c0 0 .238 1.828.238 3.367 0 .251-.012.61-.038 1.077h8.179z"/><path fill="#8BC5E6" d="M10 9.18c0 .495-.373.897-.833.897-.46 0-.834-.402-.834-.898 0-.495.374-.897.834-.897.46 0 .833.402.833.897"/><path fill="#3B89BE" d="M9.645 8.988c.089.213-.086.504-.39.651-.304.147-.622.093-.71-.12-.09-.213.085-.505.39-.652.303-.146.622-.092.71.12"/><path fill="#8BC5E6" d="M0 9.18c0 .495.373.897.833.897.46 0 .834-.402.834-.898 0-.495-.374-.897-.834-.897-.46 0-.833.402-.833.897"/><path fill="#3B89BE" d="M.355 8.988c-.089.213.086.504.39.651.304.147.622.093.71-.12.09-.213-.085-.505-.39-.652-.303-.146-.622-.092-.71.12"/><path fill="#FFF" d="M4.743 11.078c0 .836-.688 1.514-1.538 1.514-.85 0-1.538-.678-1.538-1.514s.688-1.514 1.538-1.514c.85 0 1.538.678 1.538 1.514"/><path fill="#FFF" d="M4.743 11.078c0 .836-.688 1.514-1.538 1.514-.85 0-1.538-.678-1.538-1.514s.688-1.514 1.538-1.514c.85 0 1.538.678 1.538 1.514"/><path fill="#000" d="M3.993 11.073c0 .409-.307.74-.687.74-.38 0-.687-.331-.687-.74 0-.408.308-.74.687-.74.38 0 .687.332.687.74"/><path fill="#FFF" fill-rule="nonzero" d="M3.659 10.718c0 .123-.093.222-.206.222-.115 0-.207-.1-.207-.222 0-.123.092-.222.207-.222.113 0 .206.1.206.222m4.478.36c0 .836-.688 1.514-1.538 1.514-.85 0-1.539-.678-1.539-1.514S5.75 9.564 6.6 9.564s1.538.678 1.538 1.514"/><path fill="#FFF" d="M8.137 11.078c0 .836-.688 1.514-1.538 1.514-.85 0-1.539-.678-1.539-1.514S5.75 9.564 6.6 9.564s1.538.678 1.538 1.514"/><path fill="#000" d="M7.387 11.073c0 .409-.308.74-.687.74-.38 0-.687-.331-.687-.74 0-.408.307-.74.687-.74.38 0 .687.332.687.74"/><path fill="#FFF" d="M7.052 10.718c0 .123-.092.222-.206.222-.114 0-.206-.1-.206-.222 0-.123.092-.222.206-.222.114 0 .206.1.206.222"/><path fill="#FFF" d="M4.523 13.923h.953v-.769h-.953z"/><path fill="#B7937F" d="M5.953 12.898c0 .283-.427.512-.953.512s-.952-.23-.952-.512c0-.284.426-.513.952-.513s.953.23.953.513"/><path fill="#000" d="M5.476 12.633c0 .288-.216.265-.484.265-.267 0-.484.023-.484-.265 0-.289.217-.522.484-.522.268 0 .484.233.484.521"/><path fill="#B7937F" fill-rule="nonzero" d="M10 14.271c0 .354-.267.641-.595.641-.329 0-.596-.287-.596-.64 0-.355.267-.642.596-.642.328 0 .595.287.595.641m-8.81 0c0 .354-.266.641-.595.641-.328 0-.595-.287-.595-.64 0-.355.267-.642.595-.642.33 0 .596.287.596.641"/><path fill="#6E6E6E" d="M11 11h2V5h-2V1h2a2 2 0 0 1 2 2v10a2 2 0 0 1-2 2h-2v-4zM3 1.142c-.583.343-1 1.27-1 2.358 0 1.089.417 2.015 1 2.358A.978.978 0 0 1 2.5 6C1.672 6 1 4.88 1 3.5S1.672 1 2.5 1c.175 0 .344.05.5.142zm3 0c-.583.343-1 1.27-1 2.358 0 1.089.417 2.015 1 2.358A.978.978 0 0 1 5.5 6C4.672 6 4 4.88 4 3.5S4.672 1 5.5 1c.175 0 .344.05.5.142zm3 0c-.583.343-1 1.27-1 2.358 0 1.089.417 2.015 1 2.358A.978.978 0 0 1 8.5 6C7.672 6 7 4.88 7 3.5S7.672 1 8.5 1c.175 0 .344.05.5.142z"/></g></svg>