<svg width="16" height="16" viewBox="0 0 16 16" fill="none" xmlns="http://www.w3.org/2000/svg"><rect id="frame" width="16" height="16" fill="none"/><path fill-rule="evenodd" clip-rule="evenodd" d="M3 3h1v10H3V3z" fill="#6E6E6E"/><path fill="#6E6E6E" d="M1 2h2v1H1z"/><path fill="#6E6E6E" d="M4 2h2v1H4z"/><path fill="#6E6E6E" d="M1 13h2v1H1z"/><path fill="#6E6E6E" d="M4 13h2v1H4z"/><path fill-rule="evenodd" clip-rule="evenodd" d="M13.762 9.192H15V7.923h-1.238v-.846c0-.111-.015-.218-.03-.326a7.742 7.742 0 0 1-.014-.097H15v-1.27h-1.717a3.426 3.426 0 0 0-1.444-1.331l1.17-1.155-.91-.898-1.72 1.705-.035-.003-.058-.005c-.024 0-.034.002-.045.004-.01.002-.02.004-.041.005L8.472 2l-.91.898 1.205 1.188a3.427 3.427 0 0 0-1.383 1.299H5.571v1.269H6.95a7.413 7.413 0 0 1-.014.097c-.015.108-.03.215-.03.326v.846H5.571v1.27h1.334v.422c0 .294.05.574.123.846H5.57v1.27h2.111A3.427 3.427 0 0 0 10.334 13a3.427 3.427 0 0 0 2.65-1.27H15v-1.269h-1.36c.072-.272.122-.552.122-.846v-.423zm-4.89-2.478H11.7v1.179H8.87V6.714zM11.7 9.071H8.87v1.179H11.7V9.071z" fill="#59A869"/></svg>