<svg width="16" height="16" viewBox="0 0 16 16" fill="none" xmlns="http://www.w3.org/2000/svg">
<rect x="7" y="8" width="6" height="6" transform="rotate(90 7 8)" fill="#9AA7B0" fill-opacity="0.8"/>
<rect x="7" y="1" width="6" height="6" transform="rotate(90 7 1)" fill="#F26522" fill-opacity="0.7"/>
<path d="M14 1L14 7L8 7L8 1L14 1Z" fill="#9AA7B0" fill-opacity="0.8"/>
<path fill-rule="evenodd" clip-rule="evenodd" d="M14.8624 13.2381H15.7483V12.2857H14.8624V11.6337C14.8624 11.555 14.8518 11.4804 14.841 11.405C14.8376 11.3813 14.8342 11.3574 14.8311 11.3333H15.7483V10.381H14.5195C14.2766 9.97095 13.9183 9.68059 13.4858 9.46923L14.3232 8.64256L13.6723 8L12.4416 9.22032C12.437 9.22008 12.4271 9.21916 12.4162 9.21814L12.4162 9.21814C12.3999 9.21661 12.3811 9.21487 12.3741 9.21487C12.357 9.21487 12.3499 9.21621 12.3423 9.21766C12.3355 9.21897 12.3282 9.22035 12.3128 9.22092L11.076 8L10.4251 8.64256L11.2871 9.49285C10.8742 9.70542 10.5319 9.98548 10.2975 10.381H9V11.3333H9.98587C9.98278 11.3574 9.97937 11.3813 9.97598 11.405L9.97598 11.405C9.96522 11.4804 9.95458 11.555 9.95458 11.6337V12.2857H9V13.2381H9.95458V13.4506C9.95458 13.6607 9.99077 13.9955 10.0423 14.1905H9V15.1429H10.511C10.9613 15.6915 11.641 16 12.4085 16C13.176 16 13.8557 15.6915 14.306 15.1429H15.7483V14.1905H14.7747C14.8262 13.9955 14.8624 13.6607 14.8624 13.4506V13.2381ZM11.381 11.3333H13.3715V12.2857H11.381V11.3333ZM13.3715 13.2381H11.381V14.1905H13.3715V13.2381Z" fill="#62B543"/>
</svg>
