<svg xmlns="http://www.w3.org/2000/svg" width="36" height="21" viewBox="0 0 36 21">
  <g fill-rule="evenodd" opacity=".7">
    <path fill="#F4AF3D" d="M21,11.0752 C20.165,11.2182 18.917,11.4002 18,11.4002 C17.083,11.4002 15.835,11.2182 15,11.0752 L15,11.0222 L16.635,6.9962 L19.262,6.7422 L21,11.0222 L21,11.0752 Z M18.57,2.3842 C18.466,2.1282 18.233,2.0002 18,2.0002 C17.767,2.0002 17.534,2.1282 17.43,2.3842 L14,10.8262 L14,21.0002 L15,21.0002 L15,12.4892 C15.439,12.5622 15.966,12.6402 16.5,12.7002 L16.5,21.0002 L22,21.0002 L22,10.8262 L18.57,2.3842 Z"/>
    <path fill="#40B6E0" d="M12,11.0752 C11.165,11.2182 9.917,11.4002 9,11.4002 C8.083,11.4002 6.835,11.2182 6,11.0752 L6,11.0222 L7.635,6.9962 L10.262,6.7422 L12,11.0222 L12,11.0752 Z M9.57,2.3842 C9.466,2.1282 9.233,2.0002 9,2.0002 C8.767,2.0002 8.534,2.1282 8.43,2.3842 L5,10.8262 L5,21.0002 L6,21.0002 L6,12.4892 C6.439,12.5622 6.966,12.6402 7.5,12.7002 L7.5,21.0002 L13,21.0002 L13,10.8262 L9.57,2.3842 Z"/>
    <path fill="#F26522" d="M30,11.0752 C29.165,11.2182 27.917,11.4002 27,11.4002 C26.083,11.4002 24.835,11.2182 24,11.0752 L24,11.0222 L25.635,6.9962 L28.262,6.7422 L30,11.0222 L30,11.0752 Z M27.57,2.3842 C27.466,2.1282 27.233,2.0002 27,2.0002 C26.767,2.0002 26.534,2.1282 26.43,2.3842 L23,10.8262 L23,21.0002 L24,21.0002 L24,12.4892 C24.439,12.5622 24.966,12.6402 25.5,12.7002 L25.5,21.0002 L31,21.0002 L31,10.8262 L27.57,2.3842 Z"/>
  </g>
</svg>
