<svg xmlns="http://www.w3.org/2000/svg" width="16" height="16" viewBox="0 0 16 16">
  <path fill="#AFB1B3" fill-rule="evenodd" d="M8 11.2998C7.241 11.2998 6.626 11.1658 6.626 10.9998L7.247 9.5528 8.656 9.3258 9.374 10.9998C9.374 11.1658 8.759 11.2998 8 11.2998L8 11.2998zM7.7 13.2928C7.447 13.2838 7.212 13.2648 7 13.2368L7 11.9738C7.249 12.0198 7.495 12.0388 7.7 12.0448L7.7 13.2928zM8.285 7.1918C8.233 7.0648 8.116 6.9998 8 6.9998 7.884 6.9998 7.767 7.0648 7.715 7.1918L6 11.1918 6 13.5638C6 13.8048 6.896 13.9998 8 13.9998 9.104 13.9998 10 13.8048 10 13.5638L10 11.1918 8.285 7.1918zM3 11.2998C2.241 11.2998 1.626 11.1658 1.626 10.9998L2.247 9.5528 3.656 9.3258 4.374 10.9998C4.374 11.1658 3.759 11.2998 3 11.2998L3 11.2998zM2.7 13.2928C2.447 13.2838 2.212 13.2648 2 13.2368L2 11.9738C2.249 12.0198 2.495 12.0388 2.7 12.0448L2.7 13.2928zM3.285 7.1918C3.233 7.0648 3.116 6.9998 3 6.9998 2.884 6.9998 2.767 7.0648 2.715 7.1918L1 11.1918 1 13.5638C1 13.8048 1.896 13.9998 3 13.9998 4.104 13.9998 5 13.8048 5 13.5638L5 11.1918 3.285 7.1918zM13 11.2998C12.241 11.2998 11.626 11.1658 11.626 10.9998L12.247 9.5528 13.656 9.3258 14.374 10.9998C14.374 11.1658 13.759 11.2998 13 11.2998L13 11.2998zM12.7 13.2928C12.447 13.2838 12.212 13.2648 12 13.2368L12 11.9738C12.249 12.0198 12.495 12.0388 12.7 12.0448L12.7 13.2928zM13.285 7.1918C13.233 7.0648 13.116 6.9998 13 6.9998 12.884 6.9998 12.767 7.0648 12.715 7.1918L11 11.1918 11 13.5638C11 13.8048 11.896 13.9998 13 13.9998 14.104 13.9998 15 13.8048 15 13.5638L15 11.1918 13.285 7.1918z"/>
</svg>
