<svg xmlns="http://www.w3.org/2000/svg" width="16" height="16" viewBox="0 0 16 16">
  <path fill="#6E6E6E" fill-rule="evenodd" d="M13 1.9998C13.117 1.9998 13.233 2.0638 13.285 2.1918L13.285 2.1918 15 6.1918 15 13.5638C15 13.8048 14.104 13.9998 13 13.9998 11.896 13.9998 11 13.8048 11 13.5638L11 13.5638 11 6.1918 12.715 2.1918C12.767 2.0638 12.883 1.9998 13 1.9998zM12 6.9738L12 13.2358C12.212 13.2648 12.447 13.2848 12.7 13.2938L12.7 13.2938 12.7 7.0448C12.495 7.0388 12.25 7.0198 12 6.9738L12 6.9738zM13.656 4.3258L12.247 4.5518 11.626 5.9998C11.626 6.1658 12.241 6.2998 13 6.2998 13.759 6.2998 14.374 6.1658 14.374 5.9998L14.374 5.9998 13.656 4.3258zM8 1.9998C8.117 1.9998 8.233 2.0638 8.285 2.1918L8.285 2.1918 10 6.1918 10 13.5638C10 13.8048 9.104 13.9998 8 13.9998 6.896 13.9998 6 13.8048 6 13.5638L6 13.5638 6 6.1918 7.715 2.1918C7.767 2.0638 7.883 1.9998 8 1.9998zM7 6.9738L7 13.2358C7.212 13.2648 7.447 13.2848 7.7 13.2938L7.7 13.2938 7.7 7.0448C7.495 7.0388 7.25 7.0198 7 6.9738L7 6.9738zM8.656 4.3258L7.247 4.5518 6.626 5.9998C6.626 6.1658 7.241 6.2998 8 6.2998 8.759 6.2998 9.374 6.1658 9.374 5.9998L9.374 5.9998 8.656 4.3258zM3 1.9998C3.117 1.9998 3.233 2.0638 3.285 2.1918L3.285 2.1918 5 6.1918 5 13.5638C5 13.8048 4.104 13.9998 3 13.9998 1.896 13.9998 1 13.8048 1 13.5638L1 13.5638 1 6.1918 2.715 2.1918C2.767 2.0638 2.883 1.9998 3 1.9998zM2 6.9738L2 13.2358C2.212 13.2648 2.447 13.2848 2.7 13.2938L2.7 13.2938 2.7 7.0448C2.495 7.0388 2.25 7.0198 2 6.9738L2 6.9738zM3.656 4.3258L2.247 4.5518 1.626 5.9998C1.626 6.1658 2.241 6.2998 3 6.2998 3.759 6.2998 4.374 6.1658 4.374 5.9998L4.374 5.9998 3.656 4.3258z"/>
</svg>
