<svg xmlns="http://www.w3.org/2000/svg" width="36" height="21" viewBox="0 0 36 21">
  <g fill-rule="evenodd" opacity=".7">
    <path fill="#F4AF3D" d="M21,18.0752 C20.165,18.2182 18.917,18.4002 18,18.4002 C17.083,18.4002 15.835,18.2182 15,18.0752 L15,18.0212 L16.635,13.9962 L19.262,13.7432 L21,18.0212 L21,18.0752 Z M18.57,9.3842 C18.466,9.1282 18.233,9.0002 18,9.0002 C17.767,9.0002 17.534,9.1282 17.43,9.3842 L14,17.8262 L14,21.0002 L15,21.0002 L15,19.4892 C15.439,19.5622 15.966,19.6402 16.5,19.7012 L16.5,21.0002 L22,21.0002 L22,17.8262 L18.57,9.3842 Z"/>
    <path fill="#40B6E0" d="M12,18.0752 C11.165,18.2182 9.917,18.4002 9,18.4002 C8.083,18.4002 6.835,18.2182 6,18.0752 L6,18.0212 L7.635,13.9962 L10.262,13.7432 L12,18.0212 L12,18.0752 Z M9.57,9.3842 C9.466,9.1282 9.233,9.0002 9,9.0002 C8.767,9.0002 8.534,9.1282 8.43,9.3842 L5,17.8262 L5,21.0002 L6,21.0002 L6,19.4892 C6.439,19.5622 6.966,19.6402 7.5,19.7012 L7.5,21.0002 L13,21.0002 L13,17.8262 L9.57,9.3842 Z"/>
    <path fill="#F26522" d="M30,18.0752 C29.165,18.2182 27.917,18.4002 27,18.4002 C26.083,18.4002 24.835,18.2182 24,18.0752 L24,18.0212 L25.635,13.9962 L28.262,13.7432 L30,18.0212 L30,18.0752 Z M27.57,9.3842 C27.466,9.1282 27.233,9.0002 27,9.0002 C26.767,9.0002 26.534,9.1282 26.43,9.3842 L23,17.8262 L23,21.0002 L24,21.0002 L24,19.4892 C24.439,19.5622 24.966,19.6402 25.5,19.7012 L25.5,21.0002 L31,21.0002 L31,17.8262 L27.57,9.3842 Z"/>
  </g>
</svg>
