<svg xmlns="http://www.w3.org/2000/svg" width="28" height="21" viewBox="0 0 28 21">
  <g fill-rule="evenodd">
    <path fill="#389FD6" d="M5,9 C5.203875,9 5.40775,9.098 5.52520508,9.294 L5.57,9.384 L9,17.827 L9,21 L3.5,21.0003 L3.5,19.7003 C2.966,19.6403 2.439,19.5623 2,19.4893 L2,21.0003 L1,21 L1,17.827 L4.43,9.384 C4.534,9.128 4.767,9 5,9 Z M6.2617,13.7427 L3.6347,13.9957 L1.9997,18.0217 L1.9997,18.0757 C2.8357,18.2177 4.0837,18.3997 4.9997,18.3997 C5.9167,18.3997 7.1647,18.2177 7.9997,18.0757 L7.9997,18.0217 L6.2617,13.7427 Z"/>
    <path fill="#EDA200" d="M14,2 C14.233,2 14.466,2.128 14.57,2.384 L18,10.827 L18,21 L12.5,21.0003 L12.5,12.7003 C11.966,12.6403 11.439,12.5623 11,12.4893 L11,21.0003 L10,21 L10,10.827 L13.43,2.384 C13.534,2.128 13.767,2 14,2 Z M15.2617,6.7427 L12.6347,6.9957 L10.9997,11.0217 L10.9997,11.0757 C11.8357,11.2177 13.0837,11.3997 13.9997,11.3997 C14.9167,11.3997 16.1647,11.2177 16.9997,11.0757 L16.9997,11.0217 L15.2617,6.7427 Z"/>
    <path fill="#DB5860" d="M23,2 C23.233,2 23.466,2.128 23.57,2.384 L27,10.827 L27,21 L21.5,21.0003 L21.5,12.7003 C20.966,12.6403 20.439,12.5623 20,12.4893 L20,21.0003 L19,21 L19,10.827 L22.43,2.384 C22.534,2.128 22.767,2 23,2 Z M24.2617,6.7427 L21.6347,6.9957 L19.9997,11.0217 L19.9997,11.0757 C20.8357,11.2177 22.0837,11.3997 22.9997,11.3997 C23.9167,11.3997 25.1647,11.2177 25.9997,11.0757 L25.9997,11.0217 L24.2617,6.7427 Z"/>
  </g>
</svg>
