<svg xmlns="http://www.w3.org/2000/svg" width="16" height="16" viewBox="0 0 16 16">
  <path fill="#6E6E6E" fill-rule="evenodd" d="M8 6.2998C7.241 6.2998 6.626 6.1658 6.626 5.9998L7.247 4.5518 8.656 4.3258 9.374 5.9998C9.374 6.1658 8.759 6.2998 8 6.2998L8 6.2998zM7.7 13.2938C7.447 13.2848 7.212 13.2648 7 13.2358L7 6.9738C7.25 7.0198 7.495 7.0388 7.7 7.0448L7.7 13.2938zM8.285 2.1918C8.233 2.0638 8.117 1.9998 8 1.9998 7.883 1.9998 7.767 2.0638 7.715 2.1918L6 6.1918 6 13.5638C6 13.8048 6.896 13.9998 8 13.9998 9.104 13.9998 10 13.8048 10 13.5638L10 6.1918 8.285 2.1918zM3 6.2998C2.241 6.2998 1.626 6.1658 1.626 5.9998L2.247 4.5518 3.656 4.3258 4.374 5.9998C4.374 6.1658 3.759 6.2998 3 6.2998L3 6.2998zM2.7 13.2938C2.447 13.2848 2.212 13.2648 2 13.2358L2 6.9738C2.25 7.0198 2.495 7.0388 2.7 7.0448L2.7 13.2938zM3.285 2.1918C3.233 2.0638 3.117 1.9998 3 1.9998 2.883 1.9998 2.767 2.0638 2.715 2.1918L1 6.1918 1 13.5638C1 13.8048 1.896 13.9998 3 13.9998 4.104 13.9998 5 13.8048 5 13.5638L5 6.1918 3.285 2.1918zM13 6.2998C12.241 6.2998 11.626 6.1658 11.626 5.9998L12.247 4.5518 13.656 4.3258 14.374 5.9998C14.374 6.1658 13.759 6.2998 13 6.2998L13 6.2998zM12.7 13.2938C12.447 13.2848 12.212 13.2648 12 13.2358L12 6.9738C12.25 7.0198 12.495 7.0388 12.7 7.0448L12.7 13.2938zM13.285 2.1918C13.233 2.0638 13.117 1.9998 13 1.9998 12.883 1.9998 12.767 2.0638 12.715 2.1918L11 6.1918 11 13.5638C11 13.8048 11.896 13.9998 13 13.9998 14.104 13.9998 15 13.8048 15 13.5638L15 6.1918 13.285 2.1918z"/>
</svg>
