<svg xmlns="http://www.w3.org/2000/svg" width="28" height="21" viewBox="0 0 28 21">
  <path fill="#6E6E6E" fill-rule="evenodd" d="M17 11.0752C16.165 11.2182 14.917 11.4002 14 11.4002 13.084 11.4002 11.836 11.2182 11 11.0752L11 11.0222 12.635 6.9962 15.262 6.7422 17 11.0222 17 11.0752zM14.57 2.3842C14.466 2.1282 14.233 2.0002 14 2.0002 13.767 2.0002 13.534 2.1282 13.43 2.3842L10 10.8262 10 21.0002 11 21.0002 11 12.4892C11.439 12.5622 11.966 12.6402 12.5 12.7002L12.5 21.0002 18 21.0002 18 10.8262 14.57 2.3842zM26 11.0752C25.165 11.2182 23.917 11.4002 23 11.4002 22.084 11.4002 20.836 11.2182 20 11.0752L20 11.0222 21.635 6.9962 24.262 6.7422 26 11.0222 26 11.0752zM23.57 2.3842C23.466 2.1282 23.233 2.0002 23 2.0002 22.767 2.0002 22.534 2.1282 22.43 2.3842L19 10.8262 19 21.0002 20 21.0002 20 12.4892C20.439 12.5622 20.966 12.6402 21.5 12.7002L21.5 21.0002 27 21.0002 27 10.8262 23.57 2.3842zM2 18.022L3.635 13.996 6.262 13.743 8 18.022 8 18.075C7.165 18.218 5.917 18.4 5 18.4 4.084 18.4 2.836 18.218 2 18.075L2 18.022zM2 21L2 19.489C2.439 19.563 2.966 19.641 3.5 19.701L3.5 21 9 21 9 17.827 5.57 9.384C5.466 9.128 5.233 9 5 9 4.767 9 4.534 9.128 4.43 9.384L1 17.827 1 21 2 21z"/>
</svg>
