<svg xmlns="http://www.w3.org/2000/svg" width="36" height="21" viewBox="0 0 36 21">
  <path fill="#9AA7B0" fill-rule="evenodd" d="M21 11.0752C20.165 11.2182 18.917 11.4002 18 11.4002 17.083 11.4002 15.835 11.2182 15 11.0752L15 11.0222 16.635 6.9962 19.262 6.7422 21 11.0222 21 11.0752zM18.57 2.3842C18.466 2.1282 18.233 2.0002 18 2.0002 17.767 2.0002 17.534 2.1282 17.43 2.3842L14 10.8262 14 21.0002 15 21.0002 15 12.4892C15.439 12.5622 15.966 12.6402 16.5 12.7002L16.5 21.0002 22 21.0002 22 10.8262 18.57 2.3842zM27 2.0002C27.233 2.0002 27.466 2.1282 27.57 2.3842L27.57 2.3842 31 10.8262 31 21.0002 25.5 21.0002 25.5 12.7002C24.966 12.6402 24.439 12.5622 24 12.4892L24 12.4892 24 21.0002 23 21.0002 23 10.8262 26.43 2.3842C26.534 2.1282 26.767 2.0002 27 2.0002zM28.262 6.7422L25.635 6.9962 24 11.0222 24 11.0752C24.835 11.2182 26.083 11.4002 27 11.4002 27.917 11.4002 29.165 11.2182 30 11.0752L30 11.0752 30 11.0222 28.262 6.7422zM6 18.022L7.635 13.996 10.262 13.743 12 18.022 12 18.075C11.165 18.218 9.917 18.4 9 18.4 8.083 18.4 6.835 18.218 6 18.075L6 18.022zM6 21L6 19.489C6.439 19.563 6.966 19.641 7.5 19.701L7.5 21 13 21 13 17.827 9.57 9.384C9.466 9.128 9.233 9 9 9 8.767 9 8.534 9.128 8.43 9.384L5 17.827 5 21 6 21z" opacity=".7"/>
</svg>
