<svg xmlns="http://www.w3.org/2000/svg" width="28" height="21" viewBox="0 0 28 21">
  <path fill="#AFB1B3" fill-rule="evenodd" d="M17 18.0752C16.165 18.2182 14.917 18.4002 14 18.4002 13.084 18.4002 11.836 18.2182 11 18.0752L11 18.0212 12.635 13.9962 15.262 13.7432 17 18.0212 17 18.0752zM14.57 9.3842C14.466 9.1282 14.233 9.0002 14 9.0002 13.767 9.0002 13.534 9.1282 13.43 9.3842L10 17.8262 10 21.0002 11 21.0002 11 19.4892C11.439 19.5622 11.966 19.6402 12.5 19.7012L12.5 21.0002 18 21.0002 18 17.8262 14.57 9.3842zM8 18.0752C7.165 18.2182 5.917 18.4002 5 18.4002 4.084 18.4002 2.836 18.2182 2 18.0752L2 18.0212 3.635 13.9962 6.262 13.7432 8 18.0212 8 18.0752zM5.57 9.3842C5.466 9.1282 5.233 9.0002 5 9.0002 4.767 9.0002 4.534 9.1282 4.43 9.3842L1 17.8262 1 21.0002 2 21.0002 2 19.4892C2.439 19.5622 2.966 19.6402 3.5 19.7012L3.5 21.0002 9 21.0002 9 17.8262 5.57 9.3842zM26 18.0752C25.165 18.2182 23.917 18.4002 23 18.4002 22.084 18.4002 20.836 18.2182 20 18.0752L20 18.0212 21.635 13.9962 24.262 13.7432 26 18.0212 26 18.0752zM23.57 9.3842C23.466 9.1282 23.233 9.0002 23 9.0002 22.767 9.0002 22.534 9.1282 22.43 9.3842L19 17.8262 19 21.0002 20 21.0002 20 19.4892C20.439 19.5622 20.966 19.6402 21.5 19.7012L21.5 21.0002 27 21.0002 27 17.8262 23.57 9.3842z"/>
</svg>
