<svg xmlns="http://www.w3.org/2000/svg" width="36" height="21" viewBox="0 0 36 21">
  <path fill="#9AA7B0" fill-rule="evenodd" d="M21 18.0752C20.165 18.2182 18.917 18.4002 18 18.4002 17.083 18.4002 15.835 18.2182 15 18.0752L15 18.0222 16.635 13.9962 19.262 13.7422 21 18.0222 21 18.0752zM18.57 9.3842C18.466 9.1282 18.233 9.0002 18 9.0002 17.767 9.0002 17.534 9.1282 17.43 9.3842L14 17.8262 14 21.0002 15 21.0002 15 19.4892C15.439 19.5622 15.966 19.6402 16.5 19.7002L16.5 21.0002 22 21.0002 22 17.8262 18.57 9.3842zM12 18.0752C11.165 18.2182 9.917 18.4002 9 18.4002 8.083 18.4002 6.835 18.2182 6 18.0752L6 18.0222 7.635 13.9962 10.262 13.7422 12 18.0222 12 18.0752zM9.57 9.3842C9.466 9.1282 9.233 9.0002 9 9.0002 8.767 9.0002 8.534 9.1282 8.43 9.3842L5 17.8262 5 21.0002 6 21.0002 6 19.4892C6.439 19.5622 6.966 19.6402 7.5 19.7002L7.5 21.0002 13 21.0002 13 17.8262 9.57 9.3842zM30 11.0752C29.165 11.2182 27.917 11.4002 27 11.4002 26.083 11.4002 24.835 11.2182 24 11.0752L24 11.0222 25.635 6.9962 28.262 6.7422 30 11.0222 30 11.0752zM27.57 2.3842C27.466 2.1282 27.233 2.0002 27 2.0002 26.767 2.0002 26.534 2.1282 26.43 2.3842L23 10.8262 23 21.0002 24 21.0002 24 12.4892C24.439 12.5622 24.966 12.6402 25.5 12.7002L25.5 21.0002 31 21.0002 31 10.8262 27.57 2.3842z" opacity=".7"/>
</svg>
