<svg xmlns="http://www.w3.org/2000/svg" width="28" height="21" viewBox="0 0 28 21">
  <g fill-rule="evenodd">
    <path fill="#EDA200" d="M14,9 C14.233,9 14.466,9.128 14.57,9.384 L18,17.826 L18,21 L12.5,21.0003 L12.5,19.7013 L11.867744,19.621348 C11.55848,19.5787 11.2634,19.5331 11,19.4893 L11,21.0003 L10,21 L10,17.826 L13.43,9.384 C13.534,9.128 13.767,9 14,9 Z M15.2617,13.7432 L12.6347,13.9962 L10.9997,18.0212 L10.9997,18.0752 C11.8357,18.2182 13.0837,18.4002 13.9997,18.4002 C14.9167,18.4002 16.1647,18.2182 16.9997,18.0752 L16.9997,18.0212 L15.2617,13.7432 Z"/>
    <path fill="#389FD6" d="M5,9 C5.233,9 5.466,9.128 5.57,9.384 L9,17.826 L9,21 L3.5,21.0003 L3.5,19.7013 L2.867744,19.621348 C2.55848,19.5787 2.2634,19.5331 2,19.4893 L2,21.0003 L1,21 L1,17.826 L4.43,9.384 C4.534,9.128 4.767,9 5,9 Z M6.2617,13.7432 L3.6347,13.9962 L1.9997,18.0212 L1.9997,18.0752 C2.8357,18.2182 4.0837,18.4002 4.9997,18.4002 C5.9167,18.4002 7.1647,18.2182 7.9997,18.0752 L7.9997,18.0212 L6.2617,13.7432 Z"/>
    <path fill="#DB5860" d="M23,9 C23.233,9 23.466,9.128 23.57,9.384 L27,17.826 L27,21 L21.5,21.0003 L21.5,19.7013 L20.867744,19.621348 C20.55848,19.5787 20.2634,19.5331 20,19.4893 L20,21.0003 L19,21 L19,17.826 L22.43,9.384 C22.534,9.128 22.767,9 23,9 Z M24.2617,13.7432 L21.6347,13.9962 L19.9997,18.0212 L19.9997,18.0752 C20.8357,18.2182 22.0837,18.4002 22.9997,18.4002 C23.9167,18.4002 25.1647,18.2182 25.9997,18.0752 L25.9997,18.0212 L24.2617,13.7432 Z"/>
  </g>
</svg>
