<svg xmlns="http://www.w3.org/2000/svg" width="16" height="16" viewBox="0 0 16 16">
  <g fill-rule="evenodd">
    <path fill="#EDA200" d="M8,6.2998 C7.241,6.2998 6.626,6.1658 6.626,5.9998 L7.247,4.5518 L8.656,4.3258 L9.374,5.9998 C9.374,6.1658 8.759,6.2998 8,6.2998 L8,6.2998 Z M7.7,13.2938 C7.447,13.2848 7.212,13.2648 7,13.2358 L7,6.9738 C7.25,7.0198 7.495,7.0388 7.7,7.0448 L7.7,13.2938 Z M8.285,2.1918 C8.233,2.0638 8.117,1.9998 8,1.9998 C7.883,1.9998 7.767,2.0638 7.715,2.1918 L6,6.1918 L6,13.5638 C6,13.8048 6.896,13.9998 8,13.9998 C9.104,13.9998 10,13.8048 10,13.5638 L10,6.1918 L8.285,2.1918 Z"/>
    <path fill="#DB5860" d="M13,6.2998 C12.241,6.2998 11.626,6.1658 11.626,5.9998 L12.247,4.5518 L13.656,4.3258 L14.374,5.9998 C14.374,6.1658 13.759,6.2998 13,6.2998 L13,6.2998 Z M12.7,13.2938 C12.447,13.2848 12.212,13.2648 12,13.2358 L12,6.9738 C12.25,7.0198 12.495,7.0388 12.7,7.0448 L12.7,13.2938 Z M13.285,2.1918 C13.233,2.0638 13.117,1.9998 13,1.9998 C12.883,1.9998 12.767,2.0638 12.715,2.1918 L11,6.1918 L11,13.5638 C11,13.8048 11.896,13.9998 13,13.9998 C14.104,13.9998 15,13.8048 15,13.5638 L15,6.1918 L13.285,2.1918 Z"/>
    <path fill="#389FD6" d="M3,11.2998 C2.241,11.2998 1.626,11.1658 1.626,10.9998 L2.247,9.5518 L3.656,9.3258 L4.374,10.9998 C4.374,11.1658 3.759,11.2998 3,11.2998 L3,11.2998 Z M2.7,13.2938 C2.447,13.2848 2.212,13.2648 2,13.2358 L2,11.9738 C2.25,12.0198 2.495,12.0388 2.7,12.0448 L2.7,13.2938 Z M3.285,7.1918 C3.233,7.0638 3.117,6.9998 3,6.9998 C2.883,6.9998 2.767,7.0638 2.715,7.1918 L1,11.1918 L1,13.5638 C1,13.8048 1.896,13.9998 3,13.9998 C4.104,13.9998 5,13.8048 5,13.5638 L5,11.1918 L3.285,7.1918 Z"/>
  </g>
</svg>
