<svg width="12" height="12" viewBox="0 0 12 12" fill="none" xmlns="http://www.w3.org/2000/svg">
<path fill-rule="evenodd" clip-rule="evenodd" d="M6 3.75229C8.76142 3.75229 11 3.13617 11 2.37615C11 1.61612 8.76142 1 6 1C3.23858 1 1 1.61612 1 2.37615C1 3.13617 3.23858 3.75229 6 3.75229ZM11 3.62112C9.93954 4.25217 8.09632 4.66974 5.99999 4.66974C3.90368 4.66974 2.06047 4.25217 1 3.62113V4.76148C1 5.5215 3.23858 6.13762 6 6.13762C6.06938 6.13762 6.13843 6.13724 6.20712 6.13647C6.928 5.43327 7.9134 5 9 5C9.55758 5 10.0885 5.11409 10.5707 5.32019C10.8467 5.14946 11 4.9604 11 4.76148V3.62112ZM5.0207 9.40948C5.07892 9.982 5.25787 10.5188 5.5317 10.994C2.98987 10.9291 1.00002 10.3404 1 9.62387V9.62386V8.39177C1.89174 8.92241 3.33694 9.30209 5.0207 9.40948ZM5.50818 7.04733C5.26206 7.4865 5.0964 7.97684 5.03115 8.49838C2.73341 8.38027 1 7.85009 1 7.21392V6.00644C1.97669 6.58764 3.61734 6.98774 5.50818 7.04733Z" fill="#9AA7B0" fill-opacity="0.8"/>
<path fill-rule="evenodd" clip-rule="evenodd" d="M9 12C10.6569 12 12 10.6569 12 9C12 7.34315 10.6569 6 9 6C7.34315 6 6 7.34315 6 9C6 10.6569 7.34315 12 9 12Z" fill="#F4AF3D" fill-opacity="0.7"/>
</svg>
