<svg width="12" height="12" viewBox="0 0 12 12" fill="none" xmlns="http://www.w3.org/2000/svg">
<path fill-rule="evenodd" clip-rule="evenodd" d="M9.5 8.89062C8.77187 8.63437 8.25 7.94062 8.25 7.125C8.25 6.09062 9.09062 5.25 10.125 5.25C11.1594 5.25 12 6.09062 12 7.125C12 7.94062 11.4781 8.63437 10.75 8.89062V10.125H12V11.25H10.75V12H9.5V8.89062ZM10.75 7.125C10.75 6.78125 10.4687 6.5 10.125 6.5C9.78122 6.5 9.49997 6.78125 9.49997 7.125C9.49997 7.46875 9.78122 7.75 10.125 7.75C10.4687 7.75 10.75 7.46875 10.75 7.125Z" fill="#9AA7B0"/>
<path fill-rule="evenodd" clip-rule="evenodd" d="M6 12C6.94137 12 7.8321 11.7832 8.625 11.3968V9.27949C7.94494 8.80514 7.5 8.01703 7.5 7.125C7.5 5.67525 8.67525 4.5 10.125 4.5C10.8354 4.5 11.4798 4.78216 11.9524 5.24052C11.5791 2.28538 9.05644 0 6 0C2.68629 0 0 2.68629 0 6C0 9.31371 2.68629 12 6 12Z" fill="#F4AF3D" fill-opacity="0.6"/>
<path fill-rule="evenodd" clip-rule="evenodd" d="M5.42067 8C4.71667 8 4 7.67733 4 6.9V6.88533C4 6.086 4.66533 5.594 5.626 5.594C6.11 5.594 6.32933 5.72667 6.66667 5.822V5.69C6.66667 5.008 6.374 4.66667 5.66267 4.66667C5.21533 4.66667 4.86333 4.77333 4.51133 4.93467L4.34267 4.33933C4.76067 4.14867 5.04482 4 5.72133 4C6.39785 4 6.69627 4.27045 6.97493 4.54911C7.2316 4.80578 7.33467 5.19867 7.33467 5.68267V8H6.66667V7.428C6.40267 7.77267 6.088 8 5.42067 8ZM5.53067 7.4C6.22733 7.4 6.69287 7.07578 6.66667 6.60666V6.4C6.39976 6.26623 6.11214 6.07866 5.68467 6.07866C5.12622 6.07866 4.66667 6.38666 4.66667 6.86333V6.878C4.66667 7.208 5.01733 7.4 5.53067 7.4Z" fill="#231F20" fill-opacity="0.7"/>
</svg>
