<svg width="12" height="12" viewBox="0 0 12 12" fill="none" xmlns="http://www.w3.org/2000/svg">
<path fill-rule="evenodd" clip-rule="evenodd" d="M9 6L8.99988 5.97343C9.26166 5.936 9.51098 5.85995 9.74188 5.75123C9.74726 5.83346 9.75 5.91641 9.75 6C9.75 8.07107 8.07107 9.75 6 9.75C5.91641 9.75 5.83346 9.74726 5.75123 9.74188C5.85995 9.51098 5.936 9.26166 5.97343 8.99988C5.98228 8.99996 5.99114 9 6 9C7.65685 9 9 7.65685 9 6ZM3.00012 6.02657C3.00004 6.01772 3 6.00886 3 6C3 4.34315 4.34315 3 6 3L6.02657 3.00012C6.064 2.73834 6.14005 2.48902 6.24877 2.25812C6.16654 2.25274 6.08359 2.25 6 2.25C3.92893 2.25 2.25 3.92893 2.25 6C2.25 6.08359 2.25274 6.16654 2.25812 6.24877C2.48902 6.14005 2.73834 6.064 3.00012 6.02657Z" fill="#9AA7B0"/>
<path fill-rule="evenodd" clip-rule="evenodd" d="M8.625 6C10.0747 6 11.25 4.82475 11.25 3.375C11.25 1.92525 10.0747 0.75 8.625 0.75C7.17525 0.75 6 1.92525 6 3.375C6 4.82475 7.17525 6 8.625 6Z" fill="#F4AF3D" fill-opacity="0.7"/>
<path fill-rule="evenodd" clip-rule="evenodd" d="M3.375 11.25C4.82475 11.25 6 10.0747 6 8.625C6 7.17525 4.82475 6 3.375 6C1.92525 6 0.75 7.17525 0.75 8.625C0.75 10.0747 1.92525 11.25 3.375 11.25Z" fill="#F4AF3D" fill-opacity="0.7"/>
</svg>
