<svg width="12" height="12" viewBox="0 0 12 12" fill="none" xmlns="http://www.w3.org/2000/svg">
<path fill-rule="evenodd" clip-rule="evenodd" d="M12 7H5V12H12V7ZM11 8H6V11H11V8Z" fill="#9AA7B0"/>
<path fill-rule="evenodd" clip-rule="evenodd" d="M7 8H8V9H9V8H10V9H11V10H10V11H9V10H8V11H7V10H6V9H7V8Z" fill="#9AA7B0"/>
<path fill-rule="evenodd" clip-rule="evenodd" d="M6 3.76807C8.76142 3.76807 11 3.14842 11 2.38403C11 1.61965 8.76142 1 6 1C3.23858 1 1 1.61965 1 2.38403C1 3.14842 3.23858 3.76807 6 3.76807ZM11 3.71069C9.89403 4.3035 8.06686 4.69078 6.00005 4.69078C3.93318 4.69078 2.10596 4.30347 1 3.71064V4.78305C1 5.3506 2.2341 5.83835 4 6.05192V6H8.38358C9.94205 5.76562 11 5.30853 11 4.78305V3.71069ZM4 9.3624V10.9422C2.2341 10.7286 1 10.2409 1 9.67331V8.50863C1.73115 8.90055 2.77754 9.20265 4 9.3624ZM4 6.9634V8.45653C2.2341 8.25338 1 7.78942 1 7.24956V6.10964C1.73115 6.50156 2.77754 6.80366 4 6.9634Z" fill="#9AA7B0" fill-opacity="0.8"/>
</svg>
