<svg width="12" height="12" viewBox="0 0 12 12" fill="none" xmlns="http://www.w3.org/2000/svg">
<path fill-rule="evenodd" clip-rule="evenodd" d="M6 3.76807C8.76142 3.76807 11 3.14842 11 2.38403C11 1.61965 8.76142 1 6 1C3.23858 1 1 1.61965 1 2.38403C1 3.14842 3.23858 3.76807 6 3.76807ZM11 3.71067C9.89403 4.30347 8.06685 4.69077 6.00003 4.69077C3.93317 4.69077 2.10596 4.30346 1 3.71064V4.78304C1 5.35058 2.2341 5.83834 4 6.05191V6H8.38349C9.94201 5.76562 11 5.30853 11 4.78304V3.71067ZM4 9.36238V10.9422C2.2341 10.7286 1 10.2408 1 9.67329V8.50862C1.73116 8.90054 2.77754 9.20263 4 9.36238ZM4 6.96338V8.45651C2.2341 8.25336 1 7.7894 1 7.24954V6.10962C1.73116 6.50154 2.77754 6.80364 4 6.96338Z" fill="#9AA7B0" fill-opacity="0.8"/>
<path fill-rule="evenodd" clip-rule="evenodd" d="M12 7H5V12H12V7ZM11 8H6V11H11V8Z" fill="#9AA7B0"/>
<rect x="7" y="9" width="3" height="1" fill="#62B543"/>
</svg>
