<svg width="12" height="12" viewBox="0 0 12 12" fill="none" xmlns="http://www.w3.org/2000/svg">
<path fill-rule="evenodd" clip-rule="evenodd" d="M9.5 8.89062C8.77187 8.63437 8.25 7.94062 8.25 7.125C8.25 6.09062 9.09062 5.25 10.125 5.25C11.1594 5.25 12 6.09062 12 7.125C12 7.94062 11.4781 8.63437 10.75 8.89062V10.125H12V11.25H10.75V12H9.5V8.89062ZM10.75 7.125C10.75 6.78125 10.4687 6.5 10.125 6.5C9.78122 6.5 9.49997 6.78125 9.49997 7.125C9.49997 7.46875 9.78122 7.75 10.125 7.75C10.4687 7.75 10.75 7.46875 10.75 7.125Z" fill="#9AA7B0"/>
<path fill-rule="evenodd" clip-rule="evenodd" d="M8.27161 8.98392C8.09441 8.80724 7.94232 8.60539 7.82116 8.38418C7.31619 8.77049 6.6849 9 6 9L5.97343 8.99988C5.936 9.26166 5.85995 9.51098 5.75123 9.74188C5.83346 9.74726 5.91641 9.75 6 9.75C6.85394 9.75 7.64121 9.46457 8.27161 8.98392ZM3 6L3.00012 6.02657C2.73834 6.064 2.48902 6.14005 2.25812 6.24877C2.25274 6.16654 2.25 6.08359 2.25 6C2.25 3.92893 3.92893 2.25 6 2.25C6.08359 2.25 6.16654 2.25274 6.24877 2.25812C6.14005 2.48902 6.064 2.73834 6.02657 3.00012L6 3C4.34315 3 3 4.34315 3 6Z" fill="#9AA7B0"/>
<path fill-rule="evenodd" clip-rule="evenodd" d="M7.81707 5.87332C8.26166 5.05529 9.12848 4.5 10.125 4.5C10.4069 4.5 10.6784 4.54444 10.9329 4.62669C11.1351 4.25463 11.25 3.82823 11.25 3.375C11.25 1.92525 10.0747 0.75 8.625 0.75C7.17525 0.75 6 1.92525 6 3.375C6 4.54285 6.76264 5.53258 7.81707 5.87332Z" fill="#F4AF3D" fill-opacity="0.7"/>
<path fill-rule="evenodd" clip-rule="evenodd" d="M3.375 11.25C4.82475 11.25 6 10.0747 6 8.625C6 7.17525 4.82475 6 3.375 6C1.92525 6 0.75 7.17525 0.75 8.625C0.75 10.0747 1.92525 11.25 3.375 11.25Z" fill="#F4AF3D" fill-opacity="0.7"/>
</svg>
