<svg xmlns="http://www.w3.org/2000/svg" width="16" height="16" viewBox="0 0 16 16"><rect id="frame" width="16" height="16" fill="none"/><path fill="#F26522" fill-opacity=".6" fill-rule="evenodd" d="M8 14.345l-1.015-.924C3.38 10.152 1 7.996 1 5.35A3.813 3.813 0 0 1 4.85 1.5c1.218 0 2.387.567 3.15 1.463A4.192 4.192 0 0 1 11.15 1.5 3.813 3.813 0 0 1 15 5.35c0 2.646-2.38 4.802-5.985 8.078L8 14.345zM5.892 4.528L5.9 4.5h-.658l.006.028L3.96 8.5h.643l.901-2.779L6.528 10.5h.643l1.544-4.8 1.028 4.8h.643l1.288-4h-.64l-.905 2.802L9.1 4.5h-.642L6.914 9.3 5.892 4.528z"/></svg>