<svg xmlns="http://www.w3.org/2000/svg" width="16" height="16" viewBox="0 0 16 16"><rect id="frame" width="16" height="16" fill="none"/><path fill="#F26522" fill-opacity=".6" fill-rule="evenodd" d="M12.812 10.02l1.392-3.128.914.407-1.355 3.043A2.499 2.499 0 0 1 12.5 15a2.5 2.5 0 0 1-1.345-4.608L9.45 6a2.512 2.512 0 0 1-.392-.039l-3.756 4.807a2.5 2.5 0 1 1-3.017-.455L1.2 6.26 2.166 6l1.075 4.013a2.53 2.53 0 0 1 1.238.186l3.617-4.63a2.5 2.5 0 1 1 2.355.244l1.637 4.22a2.517 2.517 0 0 1 .724-.014z"/></svg>