<svg xmlns="http://www.w3.org/2000/svg" width="16" height="16" viewBox="0 0 16 16">
  <path fill="#F26522" fill-opacity=".6" fill-rule="evenodd" d="M8,14.345 L6.985,13.421 C3.38,10.152 1,7.996 1,5.35 C1,3.194 2.694,1.5 4.85,1.5 C6.068,1.5 7.237,2.067 8,2.963 C8.763,2.067 9.932,1.5 11.15,1.5 C13.306,1.5 15,3.194 15,5.35 C15,7.996 12.62,10.152 9.015,13.428 L8,14.345 Z M5.89152031,4.52785128 L5.90055667,4.5 L5.88555203,4.5 L5.24267959,4.5 L5.24864806,4.52785221 L3.95995481,8.5 L4.60275503,8.5 L5.50435812,5.72113744 L6.52842448,10.5 L7.17129693,10.5 L8.7145508,5.7004799 L9.74304387,10.5 L10.3859163,10.5 L11.6736199,6.5 L11.0332199,6.5 L10.129298,9.30247625 L9.10017143,4.5 L8.77892806,4.5 L8.4576847,4.5 L6.91419937,9.30023995 L5.89152031,4.52785128 Z"/>
</svg>
