<svg xmlns="http://www.w3.org/2000/svg" width="13" height="13" viewBox="0 0 13 13"><rect id="frame" width="13" height="13" fill="none"/><defs><radialGradient id="a" cx="24.019%" cy="-35.847%" r="198.567%" fx="24.019%" fy="-35.847%" gradientTransform="matrix(.49447 0 0 1 .121 0)"><stop offset=".511%" stop-color="#D0FF59"/><stop offset="46.923%" stop-color="#4FCFFF"/><stop offset="100%" stop-color="#B166FF"/></radialGradient><radialGradient id="b" cx="14.15%" cy="-.234%" r="152.832%" fx="14.15%" fy="-.234%" gradientTransform="scale(1 .63867)"><stop offset="1.024%" stop-color="#FF6"/><stop offset="47.949%" stop-color="#47F984"/><stop offset="100%" stop-color="#00F7FF"/></radialGradient><radialGradient id="c" cx="113.659%" cy="-14.116%" r="215.853%" fx="113.659%" fy="-14.116%" gradientTransform="matrix(.72514 0 0 1 .312 0)"><stop offset=".748%" stop-color="#5D2FE0"/><stop offset="49.585%" stop-color="#809BFF"/><stop offset="90.474%" stop-color="#21DAFF"/></radialGradient></defs><path d="M8.11 5.746v-.004c.578.094 1.171.145 1.777.145.765 0 1.511-.078 2.234-.23.004.034.008.066.004.1a.652.652 0 0 0-.133-.417A11.32 11.32 0 0 0 2.488.953a.676.676 0 0 0-.367.133c.031-.02.059-.04.09-.059 2.48.832 4.562 2.52 5.898 4.72zm0 0" fill="url(#a)"/><path d="M8.11 5.746a11.004 11.004 0 0 0-5.9-4.719.665.665 0 0 0-.304.34 11.255 11.255 0 0 0-.8 5.324c.171 1.88.792 3.61 1.75 5.09a.67.67 0 0 0 .402.29 10.996 10.996 0 0 0 4.851-6.325zm0 0" fill="url(#b)"/><path d="M8.11 5.742a10.989 10.989 0 0 1-4.852 6.328c.078.016.16.024.246.012a11.316 11.316 0 0 0 8.55-6.027.709.709 0 0 0 .067-.399c-.723.153-1.469.23-2.234.23-.606 0-1.2-.05-1.778-.144zm0 0" fill="url(#c)"/></svg>