<svg xmlns="http://www.w3.org/2000/svg" width="16" height="16" viewBox="0 0 16 16"><rect id="frame" width="16" height="16" fill="none"/><defs><radialGradient id="a" cx="24.019%" cy="-35.847%" r="198.567%" fx="24.019%" fy="-35.847%" gradientTransform="matrix(.49447 0 0 1 .121 0)"><stop offset=".511%" stop-color="#D0FF59"/><stop offset="46.923%" stop-color="#4FCFFF"/><stop offset="100%" stop-color="#B166FF"/></radialGradient><radialGradient id="b" cx="14.15%" cy="-.234%" r="152.832%" fx="14.15%" fy="-.234%" gradientTransform="scale(1 .63867)"><stop offset="1.024%" stop-color="#FF6"/><stop offset="47.949%" stop-color="#47F984"/><stop offset="100%" stop-color="#00F7FF"/></radialGradient><radialGradient id="c" cx="113.659%" cy="-14.116%" r="215.853%" fx="113.659%" fy="-14.116%" gradientTransform="matrix(.72514 0 0 1 .312 0)"><stop offset=".748%" stop-color="#5D2FE0"/><stop offset="49.585%" stop-color="#809BFF"/><stop offset="90.474%" stop-color="#21DAFF"/></radialGradient></defs><g fill="none"><path fill="url(#a)" d="M8.982 6.07V6.07a13.592 13.592 0 0 0 4.936-.106.845.845 0 0 1-.16-.39A13.926 13.926 0 0 0 2.06.174a.814.814 0 0 0-.338.094A13.536 13.536 0 0 1 8.982 6.07z" transform="translate(1 1)"/><path fill="url(#b)" d="M8.982 6.07A13.536 13.536 0 0 0 1.722.267a.822.822 0 0 0-.378.415 13.874 13.874 0 0 0-.982 6.553c.211 2.312.976 4.44 2.151 6.267a.82.82 0 0 0 .497.352A13.529 13.529 0 0 0 8.982 6.07z" transform="translate(1 1)"/><path fill="url(#c)" d="M8.982 6.069a13.529 13.529 0 0 1-5.972 7.785.81.81 0 0 0 .3.018A13.926 13.926 0 0 0 13.835 6.45a.822.822 0 0 0 .083-.487 13.545 13.545 0 0 1-4.936.106z" transform="translate(1 1)"/></g></svg>