<svg xmlns="http://www.w3.org/2000/svg" width="10" height="10" viewBox="0 0 10 10"><rect id="frame" width="10" height="10" fill="none"/><g fill="none" fill-rule="evenodd"><path fill="#202A5A" d="M8.917 2.55L5.1.333.933 2.667v4.666L5.1 9.667l4-2.334V2.467z"/><path fill="#2C448A" d="M.933 2.667L5.1 5l4-2.333-4-2.334z"/><path fill="#283A79" d="M9.1 2.467l-1.333.7-.017.3L5.1 5v4.667l4-2.334z"/><path fill="#202A5A" d="M.933 2.667v4.666L5.1 9.667V5z"/><path fill="#3558A7" d="M.6 7.333v-1.5L5.1 8.5V10z"/><path fill="#3558A7" d="M.6 2.667V3.5l4.5 2.667v-.834z"/><path fill="#416FB5" d="M9.433 7.333V6.5l-3.65-1.583-.683.416v.817l2.217.983L5.1 8.5V10z"/><path fill="#477FC1" d="M7.317 7.133l-.267-.1L5.1 8.167.933 5.833v-.2l-.333.2L5.1 8.5z"/><path fill="#477FC1" d="M2.567 3L5.1 1.5l2.667 1.667 1.333-.7L5.1 0 .6 2.667l4.5 2.666.683-.416z"/><path fill="#202A5A" d="M7.75 3.467l.017-.3L5.1 1.5 2.567 3l.283.167L5.1 1.833z"/></g></svg>