<svg width="24" height="24" viewBox="0 0 24 24" fill="none" xmlns="http://www.w3.org/2000/svg"><rect id="frame" width="24" height="24" fill="none"/><path d="M8.625 9.375L9.15 0l5.45 3.025-5.975 6.35z" fill="url(#paint0_linear)"/><path d="M8.625 9.375L9.15 0 2.225 4.375 0 17.65l8.625-8.275z" fill="url(#paint1_linear)"/><path d="M23.525 7.2l-3.1-6.275-5.825 2.1-5.975 6.35L0 17.65l7.775 5.65 9.8-8.825 5.95-7.275z" fill="url(#paint2_linear)"/><path d="M19.5 13.75L15.75 12l-5.675 7.5 4.15 3.2 6 1.3L24 15.45l-4.5-1.7z" fill="url(#paint3_linear)"/><path d="M20 4H4v16h16V4z" fill="url(#paint4_linear)"/><path d="M12 17H6v1h6v-1z" fill="#fff"/><path d="M12.027 6h1.327v4.885h2.628V12h-3.955V6z" fill="#fff"/><path d="M5.4 8.978c0-1.69 1.244-3.111 3.111-3.111 1.156 0 1.778.355 2.4.888l-.8.978c-.444-.444-.889-.71-1.511-.71-.978 0-1.778.8-1.778 1.866s.711 1.867 1.778 1.867c.711 0 1.067-.267 1.6-.712l.8.89C10.289 11.643 9.578 12 8.422 12 6.644 12 5.4 10.667 5.4 8.978z" fill="#fff"/><defs><linearGradient id="paint0_linear" x1="8.627" y1="4.692" x2="15.503" y2="4.692" gradientUnits="userSpaceOnUse"><stop offset="0" stop-color="#FF318C"/><stop offset=".149" stop-color="#FB348C"/><stop offset=".285" stop-color="#F03C8C"/><stop offset=".416" stop-color="#DE4A8C"/><stop offset=".543" stop-color="#C45D8B"/><stop offset=".669" stop-color="#A2778B"/><stop offset=".793" stop-color="#79958A"/><stop offset=".913" stop-color="#49B98A"/><stop offset="1" stop-color="#21D789"/></linearGradient><linearGradient id="paint1_linear" x1="5.873" y1="3.046" x2="2.344" y2="26.731" gradientUnits="userSpaceOnUse"><stop offset=".091" stop-color="#21D789"/><stop offset=".903" stop-color="#009AE5"/></linearGradient><linearGradient id="paint2_linear" x1="21.887" y1="2.226" x2="-2.257" y2="27.725" gradientUnits="userSpaceOnUse"><stop offset=".091" stop-color="#21D789"/><stop offset=".903" stop-color="#009AE5"/></linearGradient><linearGradient id="paint3_linear" x1="14.671" y1="17.529" x2="22.929" y2="18.703" gradientUnits="userSpaceOnUse"><stop offset=".091" stop-color="#21D789"/><stop offset=".903" stop-color="#009AE5"/></linearGradient><linearGradient id="paint4_linear" x1="12" y1=".129" x2="12" y2="14.478" gradientUnits="userSpaceOnUse"><stop offset=".084" stop-color="#878585"/><stop offset=".538"/></linearGradient></defs></svg>