<svg width="16" height="16" viewBox="0 0 16 16" fill="none" xmlns="http://www.w3.org/2000/svg"><rect id="frame" width="16" height="16" fill="none"/><path d="M16 0H0v16h16V0z" fill="#21D789"/><path d="M15 1H1v14h14V1z" fill="#000"/><path d="M9 12H3v1h6v-1z" fill="#fff"/><path d="M2.7 6.1C2.7 4.4 4 3 5.8 3c1.1 0 1.8.4 2.4.9l-.8 1c-.5-.4-1-.7-1.6-.7-1 0-1.7.8-1.7 1.9 0 1 .7 1.9 1.7 1.9.7 0 1.1-.3 1.6-.7l.8.8c-.6.7-1.3 1.1-2.4 1.1-1.8 0-3.1-1.4-3.1-3.1z" fill="#fff"/><path d="M9 3h1.3v4.9h2.6V9H9V3z" fill="#fff"/></svg>