<svg ti:v="1" width="16" height="16" viewBox="0 0 16 16" xmlns="http://www.w3.org/2000/svg" xmlns:ti="urn:schemas-jetbrains-com:tisvg"><rect id="frame" width="16" height="16" fill="none"/><g fill="#9AA7B0"><path d="M4 2v3.721a3.037 3.037 0 0 1 1-.531V5h9v6H7.745a.385.385 0 0 0-.118.255c0 .2.367.545.713.67l.208.075H15V2zm0 0"/><path d="M4.53 9.813c-.247 0-1-.813-1.712-.813C1.938 9 1 9.991 1 11.476 1 12.782 2.019 15 3.031 15c.679 0 1.06-.91 1.628-.91.589 0 .825.9 1.522.9.757 0 1.657-1.5 1.819-2.127a1.988 1.988 0 0 1-1.373-1.611c0-.682.512-1.15 1.149-1.55A1.857 1.857 0 0 0 6.293 9c-.68 0-1.511.813-1.763.813zm-.138-3.086c.423-.44.999-.7 1.608-.727a1.745 1.745 0 0 1-.5 1.441A2.016 2.016 0 0 1 4.033 8a1.49 1.49 0 0 1 .359-1.273zm0 0"/></g></svg>