<svg ti:v="1" width="16" height="16" viewBox="0 0 16 16" xmlns="http://www.w3.org/2000/svg" xmlns:ti="urn:schemas-jetbrains-com:tisvg"><rect id="frame" width="16" height="16" fill="none"/><path d="M4 2v6.988l.141.184c.282-.07.57-.117.859-.141V5h9v6H9.713a5.5 5.5 0 0 1 .655 1H15V2zm0 0" fill="#9AA7B0"/><path d="M8.344 11.039l1.52-1.981a.657.657 0 0 0-1.043-.8l-1.6 2.086a4.472 4.472 0 0 0-3.44 0l-1.6-2.086a.657.657 0 0 0-1.043.8l1.52 1.981A4.471 4.471 0 0 0 1 14.5v.5h9v-.5a4.471 4.471 0 0 0-1.656-3.461zm-4.815 2.1a.643.643 0 1 1 .558-.32.643.643 0 0 1-.558.324zm3.943 0a.643.643 0 1 1 .558-.32.643.643 0 0 1-.558.324zm0 0" fill="#A4C639"/></svg>