<svg ti:v="1" width="16" height="16" viewBox="0 0 16 16" xmlns="http://www.w3.org/2000/svg" xmlns:ti="urn:schemas-jetbrains-com:tisvg"><rect id="frame" width="16" height="16" fill="none"/><linearGradient id="a" x1=".5" y1=".004" x2=".5" y2="1"><stop offset="0" stop-color="#0B4E70"/><stop offset="1" stop-color="#082D40"/></linearGradient><path d="M16 8A8 8 0 1 1 0 8a8 8 0 0 1 16 0z" fill="url(#a)"/><path d="M8 8L5.837 1.344a7.002 7.002 0 0 0-4.632 8.4 7.002 7.002 0 0 0 8.1 5.136 7.002 7.002 0 0 0 4.352-2.77zm0 0" fill="#FFF"/><linearGradient id="b" x1=".501" y1="-.078" x2=".501" y2="1.151"><stop offset="0" stop-color="#D4F0FF"/><stop offset="1" stop-color="#E3F5FF"/></linearGradient><path d="M14.656 10.163l-.951-.309A6 6 0 0 0 8 2V1a7 7 0 0 0-2.163.344l.309.951A6.002 6.002 0 0 0 4.77 13.073a6.002 6.002 0 0 0 8.076-1.55l.808.587a6.97 6.97 0 0 0 1.002-1.947zm0 0" fill="url(#b)"/><path d="M8 1v1.5a5.496 5.496 0 0 1 5.229 7.2l1.427.464A7.001 7.001 0 0 0 8 1zm0 0" fill="#09F"/></svg>