<svg ti:v="1" width="16" height="16" viewBox="0 0 16 16" xmlns="http://www.w3.org/2000/svg" xmlns:ti="urn:schemas-jetbrains-com:tisvg"><rect id="frame" width="16" height="16" fill="none"/><path d="M16 8A8 8 0 1 1 0 8a8 8 0 0 1 16 0z" fill="#252525"/><path d="M5.837 1.344A7.048 7.048 0 0 0 2.343 3.89L8 8zm0 0" fill="#C4C4C4"/><path d="M8 2V1a7 7 0 0 0-2.163.344l.309.951a6 6 0 0 0-2.995 2.182l-.808-.587a6.97 6.97 0 0 0-1 1.947l.951.309a6.001 6.001 0 0 0 7.303 7.638 6.001 6.001 0 0 0 2.35-10.303A6.001 6.001 0 0 0 8 2zm0 0" fill="#292929"/><path d="M8 1v1.5a5.508 5.508 0 0 1 4.604 8.54 5.508 5.508 0 0 1-9.663-.872 5.508 5.508 0 0 1-.17-3.868l-1.427-.463a7.002 7.002 0 0 0 8.52 8.91 7.002 7.002 0 0 0 2.742-12.02A7.002 7.002 0 0 0 8 1zm0 0" fill="#2BAAE8"/></svg>