<svg ti:v="1" width="16" height="16" viewBox="0 0 16 16" xmlns="http://www.w3.org/2000/svg" xmlns:ti="urn:schemas-jetbrains-com:tisvg"><rect id="frame" width="16" height="16" fill="none"/><path d="M16 8A8 8 0 1 1 0 8a8 8 0 0 1 16 0z" fill="#F4F4F4"/><path d="M5.837 1.344a7.001 7.001 0 0 0 0 13.312L8 8zm0 0" fill="#323232"/><path d="M6.146 2.3a6 6 0 0 0 0 11.41l-.309.951A7 7 0 0 0 8 15v-1a6.002 6.002 0 0 0 6-6 6.002 6.002 0 0 0-6-6V1a7 7 0 0 0-2.163.344l.309.951z" fill="#EBEBEB"/><path d="M8 1v1.5A5.502 5.502 0 0 1 13.5 8 5.502 5.502 0 0 1 8 13.5V15a7.002 7.002 0 0 0 7-7 7.002 7.002 0 0 0-7-7zm0 0" fill="#1BA1E2"/></svg>