<svg ti:v="1" width="16" height="16" viewBox="0 0 16 16" xmlns="http://www.w3.org/2000/svg" xmlns:ti="urn:schemas-jetbrains-com:tisvg"><rect id="frame" width="16" height="16" fill="none"/><path d="M16 8A8 8 0 1 1 0 8a8 8 0 0 1 16 0z" fill="#F4F4F4"/><path d="M8 8z" fill="#323232"/><path d="M8 8z" fill="#323232"/><path d="M8 8z" fill="#323232"/><path d="M8 8z" fill="#323232"/><path d="M8 8z" fill="#323232"/><path d="M8 8z" fill="#323232"/><path d="M8 8z" fill="#323232"/><path d="M8 8z" fill="#323232"/><path d="M8 8z" fill="#323232"/><path d="M8 8z" fill="#323232"/><path d="M14 8A6 6 0 1 1 2 8a6 6 0 0 1 12 0z" fill="#EBEBEB"/><path d="M8 1a7.002 7.002 0 0 0-7 7 7.002 7.002 0 0 0 7 7 7.002 7.002 0 0 0 7-7 7 7 0 0 0-7-7zm0 12.5A5.502 5.502 0 0 1 2.5 8 5.502 5.502 0 0 1 8 2.5 5.502 5.502 0 0 1 13.5 8 5.508 5.508 0 0 1 8 13.5zm0 0" fill="#2BAAE8"/></svg>