<svg ti:v="1" width="16" height="16" viewBox="0 0 16 16" xmlns="http://www.w3.org/2000/svg" xmlns:ti="urn:schemas-jetbrains-com:tisvg"><rect id="frame" width="16" height="16" fill="none"/><linearGradient id="a" x1=".5" y1=".004" x2=".5" y2="1"><stop offset="0" stop-color="#0B4E70"/><stop offset="1" stop-color="#082D40"/></linearGradient><path d="M16 8A8 8 0 1 1 0 8a8 8 0 0 1 16 0z" fill="url(#a)"/><path d="M8 8z" fill="#323232"/><path d="M8 8z" fill="#323232"/><path d="M8 8z" fill="#323232"/><path d="M8 8z" fill="#323232"/><path d="M8 8z" fill="#323232"/><path d="M8 8z" fill="#323232"/><path d="M8 8z" fill="#323232"/><path d="M8 8z" fill="#323232"/><path d="M8 8z" fill="#323232"/><path d="M8 8z" fill="#323232"/><linearGradient id="b" x1=".5" y1="-.166" x2=".5" y2="1.169"><stop offset="0" stop-color="#D4F0FF"/><stop offset="1" stop-color="#E3F5FF"/></linearGradient><path d="M14 8A6 6 0 1 1 2 8a6 6 0 0 1 12 0z" fill="url(#b)"/><path d="M8 1a7.002 7.002 0 0 0-7 7 7.002 7.002 0 0 0 7 7 7.002 7.002 0 0 0 7-7 7 7 0 0 0-7-7zm0 12.5A5.502 5.502 0 0 1 2.5 8 5.502 5.502 0 0 1 8 2.5 5.502 5.502 0 0 1 13.5 8 5.508 5.508 0 0 1 8 13.5zm0 0" fill="#09F"/></svg>