<svg ti:v="1" width="16" height="16" viewBox="0 0 16 16" xmlns="http://www.w3.org/2000/svg" xmlns:ti="urn:schemas-jetbrains-com:tisvg"><rect id="frame" width="16" height="16" fill="none"/><path d="M16 8A8 8 0 1 1 0 8a8 8 0 0 1 16 0z" fill="#252525"/><path d="M5.837 1.344A7.028 7.028 0 0 0 1 8h7zm0 0" fill="#C4C4C4"/><path d="M8 2V1a7 7 0 0 0-2.163.344l.309.951A6 6 0 0 0 2 8H1a7 7 0 0 0 .344 2.163l.956-.309a6.002 6.002 0 0 0 10.562 1.67A6.002 6.002 0 0 0 8 2zm0 0" fill="#292929"/><path d="M8 1v1.5a5.501 5.501 0 0 1 4.452 8.732A5.501 5.501 0 0 1 2.77 9.7l-1.427.464a7.002 7.002 0 0 0 12.32 1.95A7.002 7.002 0 0 0 8 1zm0 0" fill="#2BAAE8"/></svg>