<svg ti:v="1" width="16" height="16" viewBox="0 0 16 16" xmlns="http://www.w3.org/2000/svg" xmlns:ti="urn:schemas-jetbrains-com:tisvg"><rect id="frame" width="16" height="16" fill="none"/><path d="M16 8A8 8 0 1 1 0 8a8 8 0 0 1 16 0z" fill="#252525"/><path d="M5.837 1.344A6.987 6.987 0 0 0 2.343 12.11L8 8zm0 0" fill="#C4C4C4"/><path d="M8 2V1a7 7 0 0 0-2.163.344l.309.951a5.99 5.99 0 0 0-2.995 9.228l-.808.587c.43.594.953 1.116 1.547 1.547l.587-.808a6.002 6.002 0 0 0 9.522-5.229A6.002 6.002 0 0 0 8 2zm0 0" fill="#292929"/><path d="M8 1v1.5a5.502 5.502 0 0 1 4.246 9.007 5.502 5.502 0 0 1-7.476.938l-.88 1.212a7.002 7.002 0 0 0 9.516-1.194 7.002 7.002 0 0 0-.607-9.571A7.002 7.002 0 0 0 8 1zm0 0" fill="#2BAAE8"/></svg>