<svg ti:v="1" width="16" height="16" viewBox="0 0 16 16" xmlns="http://www.w3.org/2000/svg" xmlns:ti="urn:schemas-jetbrains-com:tisvg"><rect id="frame" width="16" height="16" fill="none"/><path d="M16 8A8 8 0 1 1 0 8a8 8 0 0 1 16 0z" fill="#F4F4F4"/><path d="M8 8L5.837 1.344a7.002 7.002 0 0 0-1.951 12.32A7.002 7.002 0 0 0 15 8zm0 0" fill="#323232"/><path d="M14.656 5.837l-.951.309A6 6 0 0 0 8 2V1a7 7 0 0 0-2.163.344l.309.951a6.002 6.002 0 0 0-1.672 10.56A6.002 6.002 0 0 0 14 8h1a7 7 0 0 0-.344-2.163zm0 0" fill="#EBEBEB"/><path d="M13.229 6.3l1.427-.464A7.027 7.027 0 0 0 8 1v1.5a5.5 5.5 0 0 1 5.229 3.8zm0 0" fill="#1BA1E2"/></svg>