<svg ti:v="1" width="16" height="16" viewBox="0 0 16 16" xmlns="http://www.w3.org/2000/svg" xmlns:ti="urn:schemas-jetbrains-com:tisvg"><rect id="frame" width="16" height="16" fill="none"/><linearGradient id="a" x1=".5" y1=".004" x2=".5" y2="1"><stop offset="0" stop-color="#0B4E70"/><stop offset="1" stop-color="#082D40"/></linearGradient><path d="M16 8A8 8 0 1 1 0 8a8 8 0 0 1 16 0z" fill="url(#a)"/><path d="M13.657 3.89L8 8 5.837 1.344a7.002 7.002 0 0 0-1.951 12.32A7.002 7.002 0 0 0 15 8c0-1.478-.47-2.918-1.343-4.11zm0 0" fill="#FFF"/><linearGradient id="b" x1=".501" y1="-.078" x2=".501" y2="1.149"><stop offset="0" stop-color="#D4F0FF"/><stop offset="1" stop-color="#E3F5FF"/></linearGradient><path d="M12.849 4.477l.808-.587a6.965 6.965 0 0 0-1.547-1.547l-.587.808A5.963 5.963 0 0 0 8 2V1a7 7 0 0 0-2.163.344l.309.951a6.01 6.01 0 0 0-1.908 10.414 6.01 6.01 0 0 0 9.736-4.16 6.01 6.01 0 0 0-1.128-4.072zm0 0" fill="url(#b)"/><path d="M12.11 2.343A6.956 6.956 0 0 0 8 1v1.5c1.161 0 2.293.37 3.23 1.055zm0 0" fill="#09F"/></svg>