<svg ti:v="1" width="16" height="16" viewBox="0 0 16 16" xmlns="http://www.w3.org/2000/svg" xmlns:ti="urn:schemas-jetbrains-com:tisvg"><rect id="frame" width="16" height="16" fill="none"/><path d="M16 8A8 8 0 1 1 0 8a8 8 0 0 1 16 0z" fill="#F4F4F4"/><path d="M8 8L5.837 1.344a7.001 7.001 0 1 0 4.326 13.312zm0 0" fill="#323232"/><path d="M14 8a6.002 6.002 0 0 0-6-6V1a7 7 0 0 0-2.163.344l.309.951a6 6 0 1 0 3.708 11.41l.309.951a6.97 6.97 0 0 0 1.947-1l-.587-.808A5.983 5.983 0 0 0 14 8zm0 0" fill="#EBEBEB"/><path d="M8 1v1.5a5.5 5.5 0 0 1 3.23 9.945l.88 1.212A6.995 6.995 0 0 0 8 1zm0 0" fill="#1BA1E2"/></svg>