<svg ti:v="1" width="16" height="16" viewBox="0 0 16 16" xmlns="http://www.w3.org/2000/svg" xmlns:ti="urn:schemas-jetbrains-com:tisvg"><rect id="frame" width="16" height="16" fill="none"/><path d="M16 8A8 8 0 1 1 0 8a8 8 0 0 1 16 0z" fill="#F4F4F4"/><path d="M8 8z" fill="#323232"/><path d="M8 8z" fill="#323232"/><path d="M8 8z" fill="#323232"/><path d="M8 8z" fill="#323232"/><path d="M8 8z" fill="#323232"/><path d="M8 8z" fill="#323232"/><path d="M8 8z" fill="#323232"/><path d="M8 8z" fill="#323232"/><path d="M8 8z" fill="#323232"/><path d="M8 8z" fill="#323232"/><path d="M8 2V1c-1.478 0-2.918.47-4.11 1.343l.587.808a5.993 5.993 0 0 0 1.247 10.38 5.993 5.993 0 0 0 8.201-6.485A5.993 5.993 0 0 0 8 2zm0 0" fill="#EBEBEB"/><path d="M8 1v1.5a5.515 5.515 0 0 1 1.726 10.755 5.515 5.515 0 0 1-4.956-9.7l-.88-1.212a6.992 6.992 0 0 0 1.456 12.11 6.992 6.992 0 0 0 9.566-7.567A6.992 6.992 0 0 0 8 1zm0 0" fill="#1BA1E2"/></svg>