<svg ti:v="1" width="16" height="16" viewBox="0 0 16 16" xmlns="http://www.w3.org/2000/svg" xmlns:ti="urn:schemas-jetbrains-com:tisvg"><rect id="frame" width="16" height="16" fill="none"/><linearGradient id="a" x1=".5" y1=".004" x2=".5" y2="1"><stop offset="0" stop-color="#0B4E70"/><stop offset="1" stop-color="#082D40"/></linearGradient><path d="M16 8A8 8 0 1 1 0 8a8 8 0 0 1 16 0z" fill="url(#a)"/><path d="M5.837 1.344a7.001 7.001 0 0 0 0 13.312L8 8zm0 0" fill="#FFF"/><linearGradient id="b" x1=".5" y1="-.078" x2=".5" y2="1.151"><stop offset="0" stop-color="#D4F0FF"/><stop offset="1" stop-color="#E3F5FF"/></linearGradient><path d="M6.146 2.3a6 6 0 0 0 0 11.41l-.309.951A7 7 0 0 0 8 15v-1a6.002 6.002 0 0 0 6-6 6.002 6.002 0 0 0-6-6V1a7 7 0 0 0-2.163.344l.309.951z" fill="url(#b)"/><path d="M8 1v1.5A5.502 5.502 0 0 1 13.5 8 5.502 5.502 0 0 1 8 13.5V15a7.002 7.002 0 0 0 7-7 7.002 7.002 0 0 0-7-7zm0 0" fill="#09F"/></svg>