<svg ti:v="1" width="16" height="16" viewBox="0 0 16 16" xmlns="http://www.w3.org/2000/svg" xmlns:ti="urn:schemas-jetbrains-com:tisvg"><rect id="frame" width="16" height="16" fill="none"/><linearGradient id="a" x1=".5" y1=".004" x2=".5" y2="1"><stop offset="0" stop-color="#0B4E70"/><stop offset="1" stop-color="#082D40"/></linearGradient><path d="M16 8A8 8 0 1 1 0 8a8 8 0 0 1 16 0z" fill="url(#a)"/><path d="M8 8L5.837 1.344a7.002 7.002 0 0 0-1.951 12.32A7.002 7.002 0 0 0 15 8zm0 0" fill="#FFF"/><linearGradient id="b" x1=".5" y1="-.078" x2=".5" y2="1.151"><stop offset="0" stop-color="#D4F0FF"/><stop offset="1" stop-color="#E3F5FF"/></linearGradient><path d="M14.656 5.837l-.951.309A6 6 0 0 0 8 2V1a7 7 0 0 0-2.163.344l.309.951a6.002 6.002 0 0 0-1.672 10.56A6.002 6.002 0 0 0 14 8h1a7 7 0 0 0-.344-2.163zm0 0" fill="url(#b)"/><path d="M13.229 6.3l1.427-.464A7.027 7.027 0 0 0 8 1v1.5a5.5 5.5 0 0 1 5.229 3.8zm0 0" fill="#09F"/></svg>