<svg width="13" height="13" viewBox="0 0 13 13" fill="none" xmlns="http://www.w3.org/2000/svg">
<path fill-rule="evenodd" clip-rule="evenodd" d="M10.5249 2.5C10.5249 3.56296 9.86148 4.47097 8.92614 4.83261L10.1536 8.02381C10.2668 8.00811 10.3825 8 10.5 8C10.6778 8 10.8512 8.01855 11.0185 8.05383L12.1588 5.47104L13.071 5.88063L11.9354 8.45287C12.5792 8.90514 13 9.65343 13 10.5C13 11.8807 11.8807 13 10.5 13C9.11929 13 8 11.8807 8 10.5C8 9.591 8.48513 8.79531 9.21061 8.35773L7.91826 4.99777C7.70273 4.98873 7.49426 4.9524 7.29621 4.89215L4.29758 8.76256C4.73244 9.21237 5 9.82494 5 10.5C5 11.8807 3.88071 13 2.5 13C1.11929 13 0 11.8807 0 10.5C0 9.62843 0.446006 8.86103 1.12224 8.41358L0.184174 4.88319L1.14955 4.62234L2.05741 8.03906C2.20106 8.01339 2.34897 8 2.5 8C2.84462 8 3.17296 8.06973 3.47167 8.19585L6.40755 4.40644C5.86754 3.94787 5.52487 3.26395 5.52487 2.5C5.52487 1.11929 6.64416 0 8.02487 0C9.40558 0 10.5249 1.11929 10.5249 2.5Z" fill="#AFB1B3"/>
</svg>