<svg xmlns="http://www.w3.org/2000/svg" width="16" height="16" viewBox="0 0 16 16"><rect id="frame" width="16" height="16" fill="none"/><g fill="none" fill-rule="evenodd"><path fill="#59A869" d="M5.62 1.147l-.001-.002 3.342-.118-.01.798-1.144.542-1.767 1.72 3.156 3.156.789.082 5.218 5.219-2.475 2.475-5.219-5.22-.084-.79-3.166-3.166-.107.582-.156.355L2.12 8.655.001 6.534 1.772 4.76l.495-.176a.5.5 0 0 1 .136-.456l2.83-2.828.387-.154z"/><path fill="#6E6E6E" d="M2 10H1v1h1v4h1v-4h1v-1H2zM0 9h9v7H0V9zm5 1v1h3v-1H5zm0 1v1h1v-1H5zm1 1v1h1v-1H6zm1 1v1h1v-1H7zm-2 1v1h3v-1H5z"/></g></svg>