<svg xmlns="http://www.w3.org/2000/svg" width="13" height="13" viewBox="0 0 13 13"><rect id="frame" width="13" height="13" fill="none"/><path fill="#6E6E6E" fill-rule="evenodd" d="M0 1h13v10H0V1zm2.833 8.02h1.324V4.221L6 4.22V3H1v1.221h1.833V9.02zM9.363 9c1.298 0 2.184-.585 2.184-1.797 0-1.05-.718-1.806-1.91-1.806-1.061 0-1.298-.396-1.298-.809 0-.292.267-.488.774-.488H11.2V3H9.165C7.935 3 7 3.62 7 4.73c0 1.195.781 1.836 2.018 1.836 1.045 0 1.213.43 1.213.783 0 .352-.327.501-.869.501H7V9h2.362z"/></svg>