<svg width="16" height="16" viewBox="0 0 16 16" fill="none" xmlns="http://www.w3.org/2000/svg"><rect id="frame" width="16" height="16" fill="none"/><path fill="#F98B9E" fill-opacity=".6" d="M4 1h8v14H4z"/><path fill-rule="evenodd" clip-rule="evenodd" d="M3 1.17A3.001 3.001 0 0 0 1 4v8c0 1.306.835 2.418 2 2.83V1.17zm10 0v13.66A3.001 3.001 0 0 0 15 12V4a3.001 3.001 0 0 0-2-2.83z" fill="#9AA7B0" fill-opacity=".6"/><path fill-rule="evenodd" clip-rule="evenodd" d="M11.992 8c0-.749-.357-2-2.01-2-.87 0-1.324.502-1.383.6C8.284 6.194 7.944 6 7.1 6c-.702 0-1.1.3-1.1.3V6H5v5h1s-.05-2.766 0-3c.05-.234.05-1 1-1s.999.537 1 1v3h1V8c0-.314-.04-1 .982-1s1.022.74 1.023 1v3h.992l-.005-3z" fill="#231F20" fill-opacity=".7"/></svg>