<svg width="16" height="16" viewBox="0 0 16 16" fill="none" xmlns="http://www.w3.org/2000/svg"><rect id="frame" width="16" height="16" fill="none"/><path fill="#F98B9E" fill-opacity=".6" d="M4 1h8v14H4z"/><path fill-rule="evenodd" clip-rule="evenodd" d="M12 8c-.001-.85-.502-2-2.118-2C8.697 6 8 6.604 8 6.604S7.5 6 6.4 6c-.702 0-1.4.4-1.4.4V6H4v5h1V8c0-.36.25-1 1.2-1s1.299.537 1.3 1v3h1V8c0-.36.3-1 1.25-1s1.254.54 1.255 1v3h.992L12 8z" fill="#231F20" fill-opacity=".7"/><path fill-rule="evenodd" clip-rule="evenodd" d="M3 1.17A3.001 3.001 0 0 0 1 4v8c0 1.306.835 2.418 2 2.83V1.17zm10 0v13.66A3.001 3.001 0 0 0 15 12V4a3.001 3.001 0 0 0-2-2.83z" fill="#9AA7B0" fill-opacity=".6"/></svg>