<svg width="16" height="16" viewBox="0 0 16 16" fill="none" xmlns="http://www.w3.org/2000/svg"><rect id="frame" width="16" height="16" fill="none"/><rect x="1" y="1" width="14" height="14" rx="3" fill="#F4AF3D" fill-opacity=".6"/><path fill-rule="evenodd" clip-rule="evenodd" d="M7.564 12a3.894 3.894 0 0 1-2.02-.54l.385-.878c.488.3.993.47 1.61.47.924 0 1.461-.37 1.461-1.277v-.343c-.377.48-.88.822-1.624.822-1.07 0-1.955-.788-1.955-2.114v-.017C5.421 6.787 6.323 6 7.376 6c.761 0 1.273.35 1.624.77V6h1v3.689c0 .762-.202 1.327-.579 1.703-.41.411-1.044.608-1.857.608zm.085-2.628C8.37 9.372 9 8.867 9 8.132v-.018c0-.736-.632-1.232-1.35-1.232-.72 0-1.184.487-1.184 1.232v.017c0 .736.473 1.241 1.183 1.241z" fill="#231F20" fill-opacity=".7"/></svg>