<svg width="16" height="16" viewBox="0 0 16 16" fill="none" xmlns="http://www.w3.org/2000/svg"><rect id="frame" width="16" height="16" fill="none"/><rect x="1" y="1" width="14" height="14" rx="3" fill="#F98B9E" fill-opacity=".6"/><path fill-rule="evenodd" clip-rule="evenodd" d="M11.992 8c0-.749-.357-2-2.01-2-.87 0-1.324.502-1.383.6C8.284 6.194 7.944 6 7.1 6c-.702 0-1.1.3-1.1.3V6H5v5h1s-.05-2.766 0-3c.05-.234.05-1 1-1s.999.537 1 1v3h1V8c0-.314-.04-1 .982-1s1.022.74 1.023 1v3h.992l-.005-3z" fill="#231F20" fill-opacity=".7"/></svg>