<svg width="16" height="16" viewBox="0 0 16 16" fill="none" xmlns="http://www.w3.org/2000/svg"><rect id="frame" width="16" height="16" fill="none"/><path fill-rule="evenodd" clip-rule="evenodd" d="M13.136 11.911L10.6 14.447l1.4 1.401 3.924-3.924-.013-.013.013-.013L12 7.974l-1.4 1.4 2.536 2.537z" fill="#9AA7B0"/><path fill-rule="evenodd" clip-rule="evenodd" d="M7.561 7.47c.96 0 1.572-.424 1.572-1.084v-.02c0-.695-.59-1.077-1.585-1.077H5.594V7.47h1.967zM4.25 4.25h3.408c.962 0 1.714.24 2.207.648.405.356.632.838.632 1.404v.02c0 1.066-.755 1.708-1.813 1.966l2.066 2.462H9.156l-1.88-2.266H5.594v2.266H4.25v-6.5zm3.25 8.905A5.654 5.654 0 0 1 1.845 7.5 5.654 5.654 0 0 1 13.133 7h.848A6.5 6.5 0 1 0 9 13.826v-.872c-.478.131-.98.201-1.5.201z" fill="#231F20" fill-opacity=".7"/></svg>