<svg width="16" height="16" viewBox="0 0 16 16" fill="none" xmlns="http://www.w3.org/2000/svg"><rect id="frame" width="16" height="16" fill="none"/><path fill-rule="evenodd" clip-rule="evenodd" d="M15 8a6.976 6.976 0 0 1-.604 2.85l-.863-.526A6 6 0 1 0 8 14h.036l1.408.85A7 7 0 1 1 15 8z" fill="#9AA7B0" fill-opacity=".8"/><path fill-rule="evenodd" clip-rule="evenodd" d="M13 8c0 .849-.211 1.648-.585 2.348L8 12.978V13a5 5 0 1 1 5-5zm-1 0a4 4 0 1 1-8 0 4 4 0 0 1 8 0z" fill="#9AA7B0" fill-opacity=".8"/><path fill-rule="evenodd" clip-rule="evenodd" d="M8 11a3 3 0 1 0 0-6 3 3 0 0 0 0 6z" fill="#9AA7B0" fill-opacity=".8"/><path fill-rule="evenodd" clip-rule="evenodd" d="M11.991 16L9 13.459l2.991-2.465V16z" fill="#F26522"/><path fill-rule="evenodd" clip-rule="evenodd" d="M13 16l2.946-2.541L13 11v5z" fill="#62B543"/></svg>