<svg width="16" height="16" viewBox="0 0 16 16" fill="none" xmlns="http://www.w3.org/2000/svg"><rect id="frame" width="16" height="16" fill="none"/><g clip-path="url(#clip0)" fill-rule="evenodd" clip-rule="evenodd"><path d="M14.042 11.537a7 7 0 1 0-2.505 2.505l-.735-.735a6 6 0 1 1 2.505-2.505l.735.735z" fill="#9AA7B0" fill-opacity=".8"/><path d="M13 8.076V8a5 5 0 1 0-4.931 5L7.01 11.877A4.002 4.002 0 0 1 8 4a4.002 4.002 0 0 1 3.881 3.03L13 8.075z" fill="#9AA7B0" fill-opacity=".8"/><path d="M7.97 11L11 7.97A3 3 0 1 0 7.97 11z" fill="#9AA7B0" fill-opacity=".8"/><path d="M9.285 10.815L8.4 11.7l1.059 1.059.935-.936.078-.177.054-.29 1.58 1.579.042.395 2.604 2.605 1.236-1.236-2.605-2.604-.394-.04-1.575-1.576.882-.858.571-.271.005-.398-1.668.059h.001l-.193.077-1.235 1.235a.5.5 0 0 0-.136.457l-.093-.058-.263.093z" fill="#62B543"/></g><defs><clipPath id="clip0"><path fill="#fff" d="M0 0h16v16H0z"/></clipPath></defs></svg>