<svg width="16" height="16" viewBox="0 0 16 16" fill="none" xmlns="http://www.w3.org/2000/svg"><rect id="frame" width="16" height="16" fill="none"/><path fill-rule="evenodd" clip-rule="evenodd" d="M14.326 11A7 7 0 1 0 6 14.71V13.66A6 6 0 1 1 13.197 11h1.13z" fill="#9AA7B0" fill-opacity=".8"/><path fill-rule="evenodd" clip-rule="evenodd" d="M12 11a5 5 0 1 0-6 1.584v-1.12A4 4 0 1 1 10.646 11H12z" fill="#9AA7B0" fill-opacity=".8"/><path fill-rule="evenodd" clip-rule="evenodd" d="M11 8a3 3 0 1 1-6 0 3 3 0 0 1 6 0z" fill="#9AA7B0" fill-opacity=".8"/><path fill-rule="evenodd" clip-rule="evenodd" d="M10.735 14.006c0 .946.335 1.435.765 1.435.467 0 .758-.47.758-1.399 0-.898-.278-1.482-.752-1.482-.417 0-.771.481-.771 1.446M13 13.97c0 1.25-.526 2.03-1.526 2.03-.956 0-1.468-.809-1.474-1.988 0-1.209.55-2.012 1.525-2.012 1.007 0 1.475.833 1.475 1.97" fill="#40B6E0"/><path fill-rule="evenodd" clip-rule="evenodd" d="M14.845 12.683h-.012l-.708.369L14 12.48l.947-.48h.607v4h-.709v-3.317z" fill="#40B6E0"/><path fill-rule="evenodd" clip-rule="evenodd" d="M7.845 12.683h-.012l-.708.369L7 12.48l.947-.48h.607v4h-.709v-3.317z" fill="#40B6E0"/></svg>