<svg width="16" height="16" viewBox="0 0 16 16" fill="none" xmlns="http://www.w3.org/2000/svg"><rect id="frame" width="16" height="16" fill="none"/><path fill-rule="evenodd" clip-rule="evenodd" d="M14.774 9.773A7 7 0 1 0 8 15h.017L6.97 13.912A6.002 6.002 0 0 1 8 2a6 6 0 0 1 5.934 6.892l.84.881z" fill="#9AA7B0" fill-opacity=".8"/><path fill-rule="evenodd" clip-rule="evenodd" d="M13 8a5 5 0 1 0-7.315 4.433l.725-.762A4 4 0 1 1 12 8h1z" fill="#9AA7B0" fill-opacity=".8"/><path fill-rule="evenodd" clip-rule="evenodd" d="M7.162 10.881L9.905 8H11a3 3 0 1 0-3.838 2.881z" fill="#9AA7B0" fill-opacity=".8"/><path fill-rule="evenodd" clip-rule="evenodd" d="M10.346 9l.645.875-2.777 2.638L11 15.125l-.643.875L7 12.513 10.346 9z" fill="#40B6E0"/><path fill-rule="evenodd" clip-rule="evenodd" d="M12.654 9l-.645.875 2.778 2.638L12 15.125l.643.875L16 12.513 12.654 9z" fill="#40B6E0"/></svg>