<svg width="16" height="16" viewBox="0 0 16 16" fill="none" xmlns="http://www.w3.org/2000/svg"><rect id="frame" width="16" height="16" fill="none"/><path fill-rule="evenodd" clip-rule="evenodd" d="M15 8A7 7 0 1 1 1 8a7 7 0 0 1 14 0zm-1 0A6 6 0 1 1 2 8a6 6 0 0 1 12 0z" fill="#9AA7B0" fill-opacity=".8"/><path fill-rule="evenodd" clip-rule="evenodd" d="M13 8A5 5 0 1 1 3 8a5 5 0 0 1 10 0zm-1 0a4 4 0 1 1-8 0 4 4 0 0 1 8 0z" fill="#9AA7B0" fill-opacity=".8"/><path fill-rule="evenodd" clip-rule="evenodd" d="M8 11a3 3 0 1 0 0-6 3 3 0 0 0 0 6z" fill="#9AA7B0" fill-opacity=".8"/></svg>