<svg width="16" height="16" viewBox="0 0 16 16" fill="none" xmlns="http://www.w3.org/2000/svg"><rect id="frame" width="16" height="16" fill="none"/><path fill-rule="evenodd" clip-rule="evenodd" d="M14.93 9a7 7 0 1 0-8.114 5.9l.557-.932A6 6 0 1 1 13.917 9h1.012z" fill="#9AA7B0" fill-opacity=".8"/><path fill-rule="evenodd" clip-rule="evenodd" d="M12.9 9a5 5 0 1 0-4.947 4l.623-1.041A4 4 0 1 1 11.874 9H12.9z" fill="#9AA7B0" fill-opacity=".8"/><path fill-rule="evenodd" clip-rule="evenodd" d="M8 11a3 3 0 1 0 0-6 3 3 0 0 0 0 6z" fill="#9AA7B0" fill-opacity=".8"/><path fill-rule="evenodd" clip-rule="evenodd" d="M12.492 10l1.459 1.424L12 13.654l-1.529-2.651L8 15.024l.98.976 1.491-3 1.573 2.423 2.625-3.298L16 13.424V10h-3.508z" fill="#40B6E0"/></svg>