<svg width="16" height="16" viewBox="0 0 16 16" fill="none" xmlns="http://www.w3.org/2000/svg"><rect id="frame" width="16" height="16" fill="none"/><path fill-rule="evenodd" clip-rule="evenodd" d="M7 13.917A6.002 6.002 0 0 1 8 2a6.002 6.002 0 0 1 5.917 5H14v2h.93A7 7 0 1 0 7 14.93v-1.013z" fill="#9AA7B0" fill-opacity=".8"/><path fill-rule="evenodd" clip-rule="evenodd" d="M7 12.9A5.002 5.002 0 0 1 8 3a5.002 5.002 0 0 1 4.9 4h-1.026A4.002 4.002 0 0 0 4 8a4.002 4.002 0 0 0 3 3.874V12.9z" fill="#9AA7B0" fill-opacity=".8"/><path fill-rule="evenodd" clip-rule="evenodd" d="M10 9H7v1.83A3.001 3.001 0 1 1 10.83 7H10v2z" fill="#9AA7B0" fill-opacity=".8"/><path fill="#40B6E0" d="M14 10h2v6h-2z"/><path fill="#9AA7B0" fill-opacity=".8" d="M11 8h2v8h-2z"/><path fill="#62B543" d="M8 10h2v6H8z"/></svg>