<svg ti:v="1" width="16" height="16" viewBox="0 0 16 16" xmlns="http://www.w3.org/2000/svg" xmlns:ti="urn:schemas-jetbrains-com:tisvg"><rect id="frame" width="16" height="16" fill="none"/><g fill-rule="evenodd"><path d="M4.586 13L0 8.414V6.586L4.586 2H16v11H4.586z" fill="#F4F4F4"/><path d="M15 3H5L1 7v1l4 4h10V3z" fill="#313131"/><path d="M5 3L1 7v1l4-4h10V3H5z" fill="#313131"/><path d="M5 7.5a1 1 0 1 1-2 0 1 1 0 0 1 2 0z" fill="#EBEBEB"/><path d="M11 8h-1V7h1m2 0V6h-1V4h-1v2h-1V4H9v2H8v1h1v1H8v1h1v2h1V9h1v2h1V9h1V8h-1V7h1z" fill="#EBEBEB"/><path d="M16 2.408L3.408 15h-.191L1 12.783v-.203L13.58 0h.191L16 2.228v.18z" fill="#F4F4F4"/><path d="M3.313 13.682l-1-1L13.675 1.319l1 1L3.313 13.682z" fill="#A1260C"/></g></svg>