<svg ti:v="1" width="16" height="16" viewBox="0 0 16 16" xmlns="http://www.w3.org/2000/svg" xmlns:ti="urn:schemas-jetbrains-com:tisvg"><rect id="frame" width="16" height="16" fill="none"/><path fill-rule="evenodd" d="M4 14v-2H2V3h2V1h9v2h2v9h-2v2H4z" fill="#E4EEF0"/><linearGradient id="a" x1=".5" y1="0" x2=".5" y2="1"><stop offset="0" stop-color="#6B8595"/><stop offset="1" stop-color="#2D4352"/></linearGradient><path fill-rule="evenodd" d="M4 12h9V3H4v9z" fill="url(#a)"/><path fill-rule="evenodd" d="M12 12h-1v1h1m-2-1H9v1h1m-2-1H7v1h1m-2-1H5v1h1m6-11h-1v1h1m-2-1H9v1h1M8 2H7v1h1M6 2H5v1h1m8 1h-1v1h1m0 1h-1v1h1m0 1h-1v1h1m0 1h-1v1h1M4 4H3v1h1m0 1H3v1h1m0 1H3v1h1m0 1H3v1h1v-1z" fill="#293B47"/><linearGradient id="b" x1=".5" y1="0" x2=".5" y2="1"><stop offset="0" stop-color="#334D5D"/><stop offset="1" stop-color="#607887"/></linearGradient><path fill-rule="evenodd" d="M5 11h7V4H5v7z" fill="url(#b)"/><path fill-rule="evenodd" d="M11 10H6V5h5v5z" fill="#FFF3C2"/><path fill-rule="evenodd" d="M7 9V6h1.586L10 7.414V9H7z" fill="#293B47"/><path fill-rule="evenodd" d="M16 2.408L3.408 15h-.191L1 12.783v-.203L13.58 0h.191L16 2.228v.18z" fill="#820000"/><path fill-rule="evenodd" d="M3.313 13.682l-1-1L13.675 1.319l1 1L3.313 13.682z" fill="red"/></svg>