<svg ti:v="1" width="16" height="16" viewBox="0 0 16 16" xmlns="http://www.w3.org/2000/svg" xmlns:ti="urn:schemas-jetbrains-com:tisvg"><rect id="frame" width="16" height="16" fill="none"/><linearGradient id="a" x1=".5" y1=".011" x2=".5" y2="1"><stop offset="0" stop-color="#9C730A"/><stop offset="1" stop-color="#5C4408"/></linearGradient><path fill-rule="evenodd" d="M4.586 13L0 8.414V6.586L4.586 2H16v11H4.586z" fill="url(#a)"/><linearGradient id="b" x1=".5" y1=".013" x2=".5" y2="1.013"><stop offset="0" stop-color="#DBB657"/><stop offset="1" stop-color="#F6EFAA"/></linearGradient><path fill-rule="evenodd" d="M15 3H5L1 7v1l4 4h10V3z" fill="url(#b)"/><path fill-rule="evenodd" d="M5 3L1 7v1l4-4h10V3H5z" fill="#F8F5DF"/><path fill-rule="evenodd" d="M5 7.5a1 1 0 1 1-2 0 1 1 0 0 1 2 0z"/><linearGradient id="c" x1=".5" y1=".019" x2=".5" y2="1.01"><stop offset="0" stop-color="#877000"/><stop offset="1" stop-color="#564800"/></linearGradient><path fill-rule="evenodd" d="M11 4v2h-1V4H9v2H8v1h1v1H8v1h1v2h1V9h1v2h1V9h1V8h-1V7h1V6h-1V4m-2 3h1v1h-1V7z" fill="url(#c)"/><path fill-rule="evenodd" d="M16 2.408L3.408 15h-.191L1 12.783v-.203L13.58 0h.191L16 2.228v.18z" fill="#820000"/><path fill-rule="evenodd" d="M3.313 13.682l-1-1L13.675 1.319l1 1L3.313 13.682z" fill="red"/></svg>