<svg ti:v="1" width="16" height="16" viewBox="0 0 16 16" xmlns="http://www.w3.org/2000/svg" xmlns:ti="urn:schemas-jetbrains-com:tisvg"><rect id="frame" width="16" height="16" fill="none"/><g fill-rule="evenodd"><path d="M4.5 13A4.505 4.505 0 0 1 0 8.5c0-1.986 1.32-3.712 3.174-4.284A5.466 5.466 0 0 1 8.5 0C11.532 0 14 2.468 14 5.5v.049c1.222.703 2 2.006 2 3.451 0 2.206-1.794 4-4 4H4.5z" fill="#242424"/><path d="M13.746 6.576c-.293.705-1.027 1.518-1.758 1.756C12.672 7.734 13 6.656 13 5.5A4.5 4.5 0 0 0 8.5 1C6.541 1 4.903 2.264 4.291 4.012c1.661.155 2.447 1.274 2.644 1.985A3.458 3.458 0 0 0 4.5 5c-.153 0-.304.01-.454.046A3.488 3.488 0 0 0 1 8.5 3.5 3.5 0 0 0 4.5 12H12a3 3 0 0 0 3-3 2.969 2.969 0 0 0-1.254-2.424z" fill="#C3C3C3"/><path d="M5 6v10h1.352L12 11.48v-.96L6.352 6H5z" fill="#242424"/><path d="M6 7v8l5-4-5-4z" fill="#8CCF8C"/></g></svg>