<svg ti:v="1" width="16" height="16" viewBox="0 0 16 16" xmlns="http://www.w3.org/2000/svg" xmlns:ti="urn:schemas-jetbrains-com:tisvg"><rect id="frame" width="16" height="16" fill="none"/><g fill-rule="evenodd"><path d="M4 14v-2H2V3h2V1h9v2h2v9h-2v2H4z" fill="#F4F4F4"/><path d="M4 12h9V3H4v9z" fill="#313131"/><path d="M12 12h-1v1h1m-2-1H9v1h1m-2-1H7v1h1m-2-1H5v1h1m6-11h-1v1h1m-2-1H9v1h1M8 2H7v1h1M6 2H5v1h1m8 1h-1v1h1m0 1h-1v1h1m0 1h-1v1h1m0 1h-1v1h1M4 4H3v1h1m0 1H3v1h1m0 1H3v1h1m0 1H3v1h1v-1z" fill="#313131"/><path d="M5 11h7V4H5v7z" fill="#313131"/><path d="M11 10H6V5h5v5z" fill="#EBEBEB"/><path d="M7 9V6h1.586L10 7.414V9H7z" fill="#313131"/></g></svg>