<svg ti:v="1" width="16" height="16" viewBox="0 0 16 16" xmlns="http://www.w3.org/2000/svg" xmlns:ti="urn:schemas-jetbrains-com:tisvg"><rect id="frame" width="16" height="16" fill="none"/><linearGradient id="a" x1=".5" y1=".022" x2=".5" y2=".992"><stop offset="0" stop-color="#90B6FF"/><stop offset="1" stop-color="#6A95E6"/></linearGradient><path fill-rule="evenodd" d="M3.174 4.216C1.321 4.789 0 6.514 0 8.5 0 10.981 2.018 13 4.5 13H12c2.206 0 4-1.794 4-4a3.978 3.978 0 0 0-2-3.451V5.5C14 2.467 11.532 0 8.5 0a5.465 5.465 0 0 0-5.326 4.216z" fill="url(#a)"/><linearGradient id="b" x1=".5" y1=".008" x2=".5" y2="1"><stop offset="0" stop-color="#FFF"/><stop offset="1" stop-color="#C1DAFF"/></linearGradient><path fill-rule="evenodd" d="M4.291 4.012c1.661.155 2.448 1.274 2.645 1.985A3.462 3.462 0 0 0 4.5 5c-.154 0-.304.01-.451.03l-.003.016C2.331 5.271 1 6.723 1 8.5A3.5 3.5 0 0 0 4.5 12H12a3 3 0 0 0 3-3 2.969 2.969 0 0 0-1.254-2.424c-.293.705-1.028 1.518-1.758 1.756C12.672 7.734 13 6.656 13 5.5 13 3.015 10.984 1 8.5 1 6.541 1 4.904 2.264 4.291 4.012z" fill="url(#b)"/><linearGradient id="c" x1=".5" y1="0" x2=".5" y2="1.024"><stop offset="0" stop-color="#00484F"/><stop offset="1" stop-color="#009073"/></linearGradient><path fill-rule="evenodd" d="M0 9v7h11c2.708 0 3-1.748 3-2.5 0-.464-.149-.906-.426-1.288.088-.244.145-.55.145-.946C13.719 10.138 12.881 9 11 9H0z" fill="url(#c)"/><linearGradient id="d" x1=".5" y1="-.015" x2=".5" y2="1.031"><stop offset="0" stop-color="#E6FDFF"/><stop offset="1" stop-color="#93FFE9"/></linearGradient><path fill-rule="evenodd" d="M11 10.001V10H9v5h2c1.576 0 2-.671 2-1.5 0-.464-.287-.873-.726-1.149.199-.209.444-.351.444-1.085 0-.656-.484-1.266-1.711-1.266M10 11h1.516c.312 0 .471.224.471.5s-.159.5-.471.5H10m0 1h1.797c.368 0 .541.223.541.5s-.173.5-.541.5H10m-5-4v5h1.5c.828 0 1.5-.896 1.5-2v-1c0-1.104-.672-2-1.5-2M6 11h.5c.277 0 .5.448.5 1v1c0 .553-.223 1-.5 1H6m-5-4v5h1v-1h1a1 1 0 0 0 1-1v-2a1 1 0 0 0-1-1m-1 1h1v2H2v-2z" fill="url(#d)"/></svg>