<svg ti:v="1" width="16" height="16" viewBox="0 0 16 16" xmlns="http://www.w3.org/2000/svg" xmlns:ti="urn:schemas-jetbrains-com:tisvg"><rect id="frame" width="16" height="16" fill="none"/><linearGradient id="a" x1=".5" y1="0" x2=".5" y2=".992"><stop offset="0" stop-color="#7C6D48"/><stop offset="1" stop-color="#60492F"/></linearGradient><path fill-rule="evenodd" d="M2 15V1h7.414L14 5.586V15H2z" fill="url(#a)"/><linearGradient id="b" x1=".5" y1=".019" x2=".5" y2="1.01"><stop offset="0" stop-color="#E2D7BC"/><stop offset="1" stop-color="#E2CCB3"/></linearGradient><path fill-rule="evenodd" d="M9 2H3v12h10V6L9 2z" fill="url(#b)"/><linearGradient id="c" x1=".5" y1=".014" x2=".5" y2="1"><stop offset="0" stop-color="#FFF2D3"/><stop offset="1" stop-color="#FFF"/></linearGradient><path fill-rule="evenodd" d="M9 6V3H4v10h8V6H9z" fill="url(#c)"/><path fill-rule="evenodd" d="M10 11H5v1h5m0-3H5v1h5m0-3H5v1h5m0-2H5V5h5v1z" fill="#00619E"/></svg>