<svg ti:v="1" width="16" height="16" viewBox="0 0 16 16" xmlns="http://www.w3.org/2000/svg" xmlns:ti="urn:schemas-jetbrains-com:tisvg"><rect id="frame" width="16" height="16" fill="none"/><linearGradient id="a" x1=".5" y1=".003" x2=".5" y2="1.003"><stop offset="0" stop-color="#7C6D48"/><stop offset="1" stop-color="#60492F"/></linearGradient><path fill-rule="evenodd" d="M6 11V0h5.414L15 3.586V11H6z" fill="url(#a)"/><linearGradient id="b" x1=".5" y1=".004" x2=".5" y2="1"><stop offset="0" stop-color="#E2D7BC"/><stop offset="1" stop-color="#E2CCB3"/></linearGradient><path fill-rule="evenodd" d="M11 1H7v9h7V4l-3-3z" fill="url(#b)"/><linearGradient id="c" x1=".5" y1=".012" x2=".5" y2="1.006"><stop offset="0" stop-color="#FFF2D3"/><stop offset="1" stop-color="#FFF"/></linearGradient><path fill-rule="evenodd" d="M11 4V2H8v7h5V4h-2z" fill="url(#c)"/><linearGradient id="d" x1=".5" y1=".013" x2=".5" y2="1"><stop offset="0" stop-color="#3C7380"/><stop offset="1" stop-color="#093C6D"/></linearGradient><path fill-rule="evenodd" d="M0 10c0 3.315 2.684 6 6 6 3.315 0 6-2.685 6-6 0-3.316-2.685-6-6-6-3.316 0-6 2.684-6 6z" fill="url(#d)"/><linearGradient id="e" x1=".5" y1=".006" x2=".5" y2="1"><stop offset="0" stop-color="#FFF"/><stop offset="1" stop-color="#73C9FF"/></linearGradient><path fill-rule="evenodd" d="M1 10c0 2.763 2.238 5 5 5 2.763 0 5-2.237 5-5 0-2.762-2.237-5-5-5a5 5 0 0 0-5 5z" fill="url(#e)"/><linearGradient id="f" x1=".5" y1=".012" x2=".5" y2="1"><stop offset="0" stop-color="#BFDFFF"/><stop offset=".736" stop-color="#FFF"/><stop offset="1" stop-color="#FFF"/></linearGradient><path fill-rule="evenodd" d="M2 10c0 2.21 1.79 4 4 4s4-1.79 4-4-1.79-4-4-4-4 1.79-4 4z" fill="url(#f)"/><linearGradient id="g" x1=".5" y1="0" x2=".5" y2="1"><stop offset="0" stop-color="#6D4D00"/><stop offset="1" stop-color="#412D00"/></linearGradient><path fill-rule="evenodd" d="M4 7.779V12h4.222A2.982 2.982 0 0 0 9 10H6V7c-.771 0-1.469.3-2 .779z" fill="url(#g)"/><linearGradient id="h" x1=".5" y1="0" x2=".5" y2="1"><stop offset="0" stop-color="#F6DF85"/><stop offset="1" stop-color="#ECB62A"/></linearGradient><path fill-rule="evenodd" d="M6 10h3a3 3 0 0 0-3-3v3z" fill="url(#h)"/><linearGradient id="i" x1=".5" y1="0" x2=".5" y2="3.689"><stop offset="0" stop-color="#F6DF85"/><stop offset="1" stop-color="#ECB62A"/></linearGradient><path fill-rule="evenodd" d="M7 9h1.817A2.991 2.991 0 0 0 7 7.184V9z" fill="url(#i)"/></svg>