<svg ti:v="1" width="16" height="16" viewBox="0 0 16 16" xmlns="http://www.w3.org/2000/svg" xmlns:ti="urn:schemas-jetbrains-com:tisvg"><rect id="frame" width="16" height="16" fill="none"/><g fill-rule="evenodd"><path d="M6 11V0h5.414L15 3.586V11H6z" fill="#F4F4F4"/><path d="M11 1H7v9h7V4l-3-3z" fill="#313131"/><path d="M11 4V2H8v7h5V4h-2z" fill="#EBEBEB"/><path d="M6 4c3.315 0 6 2.685 6 6s-2.685 6-6 6-6-2.685-6-6 2.685-6 6-6z" fill="#F4F4F4"/><path d="M6 5c2.763 0 5 2.237 5 5s-2.237 5-5 5-5-2.237-5-5 2.237-5 5-5z" fill="#313131"/><path d="M6 6c2.21 0 4 1.79 4 4s-1.79 4-4 4-4-1.79-4-4 1.79-4 4-4z" fill="#EBEBEB"/><path d="M6 7c-.771 0-1.469.3-2 .778V12h4.222A2.982 2.982 0 0 0 9 10H6V7z" fill="#313131"/><path d="M9 10a3 3 0 0 0-3-3v3h3z" fill="#EBEBEB"/><path d="M8.816 9A2.987 2.987 0 0 0 7 7.184V9h1.816z" fill="#EBEBEB"/></g></svg>