<svg xmlns="http://www.w3.org/2000/svg" width="16" height="16" viewBox="0 0 16 16">
  <g fill="none" fill-rule="evenodd">
    <polygon fill="#40B6E0" fill-opacity=".7" points="1 16 16 16 16 9 1 9"/>
    <polygon fill="#9AA7B0" fill-opacity=".8" points="7 1 3 5 7 5"/>
    <polygon fill="#9AA7B0" fill-opacity=".8" points="8 1 8 6 3 6 3 8 13 8 13 1"/>
    <polygon fill="#231F20" fill-opacity=".7" points="0 5 1 5 1 0 0 0" transform="translate(2 10)"/>
    <path fill="#231F20" fill-opacity=".7" d="M2.4931694,5 C1.02459016,5 4.39648318e-14,3.87430939 4.39648318e-14,2.51381215 L4.39648318e-14,2.5 C4.39648318e-14,1.13950276 1.03825137,0 2.5068306,0 C3.97540984,0 5,1.12569061 5,2.48618785 L5,2.5 C5,3.86049724 3.96174863,5 2.4931694,5 Z M2.50632911,4.05 C3.38607595,4.05 4,3.3625 4,2.5125 L4,2.5 C4,1.65 3.37341772,0.95 2.49367089,0.95 C1.61392405,0.95 1,1.6375 1,2.4875 L1,2.5 C1,3.35 1.62658228,4.05 2.50632911,4.05 Z" transform="translate(4 10)"/>
    <path fill="#231F20" fill-opacity=".7" d="M0,2.501 C0,1 0.931,2.02832126e-16 2.256,0 C3.20239258,0 3.55,0.311 3.969,0.753 L3.42669678,1.42712402 C3.07669678,1.06812402 2.75,1 2.25,1 C1.418,1 1,1.73791504 1,2.487 C1,3.23608496 1.412,4 2.25,4 C2.787,4 3.05169678,3.89340869 3.42669678,3.50640869 L4,4.144 C3.544,4.669 3.19732666,5 2.225,5 C0.949,5 7.35277938e-17,4.002 0,2.501 Z" transform="translate(10 10)"/>
  </g>
</svg>
