<svg xmlns="http://www.w3.org/2000/svg" width="16" height="16" viewBox="0 0 16 16"><rect id="frame" width="16" height="16" fill="none"/><g fill="none" fill-rule="evenodd"><path fill="#40B6E0" fill-opacity=".7" d="M1 16h15V9H1z"/><path fill="#9AA7B0" fill-opacity=".8" d="M7 1L3 5h4z"/><path fill="#9AA7B0" fill-opacity=".8" d="M8 1v5H3v2h10V1z"/><path fill="#231F20" fill-opacity=".7" d="M2 15h1v-5H2z"/><path fill="#231F20" fill-opacity=".7" d="M6.493 15C5.025 15 4 13.874 4 12.514V12.5C4 11.14 5.038 10 6.507 10 7.975 10 9 11.126 9 12.486v.014C9 13.86 7.962 15 6.493 15zm.013-.95c.88 0 1.494-.688 1.494-1.537V12.5c0-.85-.627-1.55-1.506-1.55-.88 0-1.494.688-1.494 1.537v.013c0 .85.627 1.55 1.506 1.55z"/><path fill="#231F20" fill-opacity=".7" d="M10 12.501C10 11 10.931 10 12.256 10c.946 0 1.294.311 1.713.753l-.542.674c-.35-.359-.677-.427-1.177-.427-.832 0-1.25.738-1.25 1.487 0 .75.412 1.513 1.25 1.513.537 0 .802-.107 1.177-.494l.573.638c-.456.525-.803.856-1.775.856C10.949 15 10 14.002 10 12.501z"/></g></svg>