<svg xmlns="http://www.w3.org/2000/svg" width="40" height="40" viewBox="0 0 40 40"><rect id="frame" width="40" height="40" fill="none"/><path fill="#3592C4" fill-rule="evenodd" d="M36 33h-7.973V17.698l-.114-.041-7.918 9.8-8.008-9.911V32.99H4V6.039c.135-.009.29-.027.445-.027C6.8 6.009 9.155 6.016 11.51 6c.346-.002.555.109.768.372 2.486 3.102 4.989 6.192 7.486 9.284.068.083.147.157.244.264 1.106-1.37 2.203-2.722 3.296-4.075 1.49-1.848 2.98-3.701 4.478-5.54.111-.136.31-.282.47-.282 2.573-.018 5.142-.014 7.749-.014V33z"/></svg>