<svg xmlns="http://www.w3.org/2000/svg" width="16" height="16" viewBox="0 0 16 16"><rect id="frame" width="16" height="16" fill="none"/><path fill="#9AA7B0" fill-opacity=".8" fill-rule="evenodd" d="M3 5.99c0 .322.181.618.467.764l.312.157a.82.82 0 0 0 .721.01V3.08a.816.816 0 0 0-.721.01l-.312.157A.857.857 0 0 0 3 4.01v1.98zM6 14c-1.889 0-4.022-2.178-4-4V8c0-1.42.566-2 1-2V4C1.9 4 1 6.08 1 8v2c0 2.733 2.6 5 5 5h5v-1H6zM7.137 1H11v8H7.137C5.957 9 5 7.924 5 6.596V3.403C5 2.076 5.957 1 7.137 1zM11.5 8H15V7h-3.5v1zm0-5H15V2h-3.5v1z"/></svg>