<svg xmlns="http://www.w3.org/2000/svg" width="16" height="16" viewBox="0 0 16 16"><rect id="frame" width="16" height="16" fill="none"/><g fill="#9AA7B0" fill-opacity=".8" fill-rule="evenodd"><path d="M6 15c-2.4 0-5-2.267-5-5V8c0-1.92.9-4 2-4v2c-.434 0-1 .58-1 2v2c-.022 1.822 2.111 4 4 4v1zm5-9H6v2.632c-.6-.425-1-1.178-1-2.036V3.403C5 2.076 5.957 1 7.137 1H11v5zm-8-.01V4.01c0-.323.181-.619.467-.764l.312-.157a.816.816 0 0 1 .721-.01v3.842a.82.82 0 0 1-.721-.01l-.312-.157A.859.859 0 0 1 3 5.99zM11.5 3V2H15v1h-3.5z"/><path d="M14 9h-1V8H8v5h1v1H7V7h7v2z"/><path d="M9 9h7v7H9V9zm1 1v5h5v-5h-5z"/><path d="M11 11h3v1h-3z"/><path d="M11 13h3v1h-3z"/></g></svg>