<svg width="70" height="70" viewBox="0 0 70 70" fill="none" xmlns="http://www.w3.org/2000/svg"><rect id="frame" width="70" height="70" fill="none"/><path d="M64 6H6v58h58V6z" fill="url(#paint0_linear)"/><path d="M56 14H14v42h42V14z" fill="#010101"/><path d="M27.137 22.143V19.25h-7.864v2.893h2.194v9.964h-2.194v2.87h7.864v-2.87H24.92v-9.964h2.217z" fill="#fff"/><path d="M34.697 35.21c-1.237 0-2.264-.233-3.08-.7a7.355 7.355 0 0 1-2.054-1.657l2.17-2.426c.444.49.91.886 1.354 1.166.466.28.956.42 1.516.42.654 0 1.167-.21 1.54-.63.374-.42.56-1.073.56-1.983V19.273h3.547v10.29c0 .934-.117 1.75-.373 2.45-.257.7-.63 1.284-1.097 1.75-.49.49-1.073.84-1.773 1.097-.7.233-1.47.35-2.31.35z" fill="#fff"/><path d="M34.417 48.65h-15.75v2.683h15.75V48.65z" fill="#fff"/><defs><linearGradient id="paint0_linear" x1="70.506" y1="70.462" x2="-11.423" y2="-11.466" gradientUnits="userSpaceOnUse"><stop offset=".347" stop-color="#087CFA"/><stop offset=".856" stop-color="#FE2857"/><stop offset="1" stop-color="#FE2857"/></linearGradient></defs></svg>