<svg width="64" height="64" viewBox="0 0 64 64" fill="none" xmlns="http://www.w3.org/2000/svg"><rect id="frame" width="64" height="64" fill="none"/><path d="M58 6H6v52h52V6z" fill="url(#paint0_linear)"/><path d="M51 13H13v38h38V13z" fill="url(#paint1_linear)"/><path d="M32.144 44H18v2.322h14.144V44z" fill="#fff"/><path d="M24.893 20.37v-2.62h-7.122v2.62h1.987v9.025H17.77v2.6h7.122v-2.6h-2.007v-9.024h2.008z" fill="#fff"/><path d="M31.741 32.206c-1.12 0-2.05-.211-2.79-.634a6.662 6.662 0 0 1-1.86-1.5l1.966-2.198a6.07 6.07 0 0 0 1.226 1.056c.422.254.866.38 1.374.38.591 0 1.056-.19 1.394-.57.339-.38.508-.972.508-1.796V17.77h3.212v9.32c0 .846-.106 1.586-.338 2.22a4.314 4.314 0 0 1-.993 1.585c-.444.444-.973.76-1.607.993a6.582 6.582 0 0 1-2.092.317z" fill="#fff"/><defs><linearGradient id="paint0_linear" x1="63.833" y1="63.794" x2="-9.621" y2="-9.659" gradientUnits="userSpaceOnUse"><stop offset=".347" stop-color="#087CFA"/><stop offset=".856" stop-color="#FE2857"/><stop offset="1" stop-color="#FE2857"/></linearGradient><linearGradient id="paint1_linear" x1="31.949" y1="3.764" x2="31.949" y2="37.843" gradientUnits="userSpaceOnUse"><stop offset=".084" stop-color="#878585"/><stop offset=".538"/></linearGradient></defs></svg>