<svg width="32" height="32" viewBox="0 0 32 32" fill="none" xmlns="http://www.w3.org/2000/svg"><rect id="frame" width="32" height="32" fill="none"/><path d="M30 2H2v28h28V2z" fill="url(#paint0_linear)"/><path d="M26 6H6v20h20V6z" fill="url(#paint1_linear)"/><path d="M16 23H8v1h8v-1z" fill="#fff"/><path d="M12.453 9.45V8H8.51v1.45h1.1v4.994h-1.1v1.439h3.942v-1.439h-1.111V9.45h1.11z" fill="#fff"/><path d="M16.242 16c-.62 0-1.134-.117-1.544-.35a3.687 3.687 0 0 1-1.029-.831l1.088-1.217c.222.246.456.445.678.585.234.14.48.21.76.21.328 0 .585-.105.772-.315.187-.21.28-.538.28-.994V8.012h1.779v5.158c0 .467-.059.877-.187 1.228-.13.35-.316.643-.55.877a2.38 2.38 0 0 1-.889.55c-.35.117-.737.175-1.158.175z" fill="#fff"/><defs><linearGradient id="paint0_linear" x1="33.141" y1="33.12" x2="-6.411" y2="-6.432" gradientUnits="userSpaceOnUse"><stop offset=".347" stop-color="#087CFA"/><stop offset=".856" stop-color="#FE2857"/><stop offset="1" stop-color="#FE2857"/></linearGradient><linearGradient id="paint1_linear" x1="15.973" y1="1.139" x2="15.973" y2="19.075" gradientUnits="userSpaceOnUse"><stop offset=".084" stop-color="#878585"/><stop offset=".538"/></linearGradient></defs></svg>