<svg ti:v="1" width="16" height="16" viewBox="0 0 16 16" xmlns="http://www.w3.org/2000/svg" xmlns:ti="urn:schemas-jetbrains-com:tisvg"><rect id="frame" width="16" height="16" fill="none"/><g fill-rule="evenodd"><path d="M7.586 10L4 13.586v.828L5.586 16h.828L10 12.414v-.828L8.414 10h-.828z" fill="#F4F4F4"/><path d="M5 14l1 1 3-3-1-1-3 3z" fill="#00529C"/><path d="M16 8.5a4.5 4.5 0 1 1-9 0 4.5 4.5 0 0 1 9 0z" fill="#F4F4F4"/><path d="M15 8.5a3.5 3.5 0 1 1-7 0 3.5 3.5 0 1 1 7 0z" fill="#00529C"/><path d="M14 8.5a2.5 2.5 0 1 1-5 0 2.5 2.5 0 0 1 5 0z" fill="#EBEBEB"/><path d="M13 8.5a1.5 1.5 0 1 1-3 0 1.5 1.5 0 0 1 3 0z" fill="#EBEBEB"/><path d="M9 0v4H7v3H6v3H0V0h9z" fill="#F4F4F4"/><path d="M6 4H1v2h5M5 7H1v2h4m3-8H1v2h7V1z" fill="#313131"/></g></svg>