<svg ti:v="1" width="16" height="16" viewBox="0 0 16 16" xmlns="http://www.w3.org/2000/svg" xmlns:ti="urn:schemas-jetbrains-com:tisvg"><rect id="frame" width="16" height="16" fill="none"/><g fill-rule="evenodd"><path d="M5 6a5 5 0 0 0 5 5V1a5 5 0 0 0-5 5z" fill="#F4F4F4"/><path d="M15 6a5 5 0 0 0-5-5v10a5 5 0 0 0 5-5z" fill="#F4F4F4"/><path d="M10 2v8a4 4 0 0 0 0-8z" fill="#313131"/><path d="M10 2v8a4 4 0 0 1 0-8z" fill="#313131"/><path d="M10 3v6a3 3 0 0 0 0-6z" fill="#EBEBEB"/><path d="M10 3v6a3 3 0 0 1 0-6z" fill="#313131"/><path d="M1 10a5 5 0 0 0 5 5V5a5 5 0 0 0-5 5z" fill="#F4F4F4"/><path d="M11 10a5 5 0 0 0-5-5v10a5 5 0 0 0 5-5z" fill="#F4F4F4"/><path d="M6 6v8a4 4 0 0 0 0-8z" fill="#313131"/><path d="M6 6v8a4 4 0 0 1 0-8z" fill="#313131"/><path d="M6 7v6a3 3 0 0 0 0-6z" fill="#EBEBEB"/><path d="M6 7v6a3 3 0 0 1 0-6z" fill="#313131"/></g></svg>