<svg xmlns="http://www.w3.org/2000/svg" width="16" height="16" viewBox="0 0 16 16">
  <g fill="none" transform="translate(2 2)">
    <rect width="12" height="12" fill="#092E20" rx="1.7"/>
    <g fill="#FFF" transform="translate(2.571 1.833)">
      <path d="M2.88583333,0.0510555556 L4.21205556,0.0510555556 L4.21205556,6.18972222 C3.53172222,6.31888889 3.03222222,6.37055556 2.48972222,6.37055556 C0.870722222,6.37055556 0.0267777778,5.63866667 0.0267777778,4.23483333 C0.0267777778,2.88283333 0.922444444,2.00444444 2.30888889,2.00444444 C2.52416667,2.00444444 2.68777778,2.02172222 2.88588889,2.07327778 L2.88588889,0.0510555556 L2.88583333,0.0510555556 Z M2.88583333,3.14105556 C2.73083333,3.08944444 2.60166667,3.07222222 2.43805556,3.07222222 C1.76633333,3.07222222 1.37877778,3.48561111 1.37877778,4.20888889 C1.37877778,4.91516667 1.74911111,5.30266667 2.42944444,5.30266667 C2.57577778,5.30266667 2.69638889,5.29405556 2.88583333,5.26833333 L2.88583333,3.14105556 Z"/>
      <path d="M6.32183333,2.09905556 L6.32183333,5.17355556 C6.32183333,6.23272222 6.24433333,6.74077778 6.01183333,7.18005556 C5.7965,7.60205556 5.51227778,7.86888889 4.92672222,8.16172222 L3.69522222,7.57611111 C4.28083333,7.30055556 4.565,7.05961111 4.74583333,6.68911111 C4.93533333,6.31027778 4.99566667,5.87094444 4.99566667,4.717 L4.99566667,2.09905556 L6.32183333,2.09905556 Z M4.99566667,0.0581111111 L6.32183333,0.0581111111 L6.32183333,1.41883333 L4.99566667,1.41883333 L4.99566667,0.0581111111 Z"/>
    </g>
  </g>
</svg>
