<svg xmlns="http://www.w3.org/2000/svg" width="16" height="16" viewBox="0 0 16 16">
  <g fill="none" fill-rule="evenodd">
    <path fill="#AFB1B3" d="M14,8 L10.5,8 L6,12.5 L7.5,14 L3.7,14 C2.76111593,14 2,13.2388841 2,12.3 L2,3.7 C2,2.76111593 2.76111593,2 3.7,2 L12.3,2 C13.2388841,2 14,2.76111593 14,3.7 L14,8 Z"/>
    <path fill="#092E20" fill-rule="nonzero" d="M7.4572619 3.88438889L8.78348413 3.88438889 8.78348413 10.0230556C8.10315079 10.1522222 7.60365079 10.2038889 7.06115079 10.2038889 5.44215079 10.2038889 4.59820635 9.472 4.59820635 8.06816667 4.59820635 6.71616667 5.49387302 5.83777778 6.88031746 5.83777778 7.09559524 5.83777778 7.25920635 5.85505556 7.45731746 5.90661111L7.45731746 3.88438889 7.4572619 3.88438889zM7.4572619 6.97438889C7.3022619 6.92277778 7.17309524 6.90555556 7.00948413 6.90555556 6.3377619 6.90555556 5.95020635 7.31894444 5.95020635 8.04222222 5.95020635 8.7485 6.32053968 9.136 7.00087302 9.136 7.14720635 9.136 7.26781746 9.12738889 7.4572619 9.10166667L7.4572619 6.97438889zM10.8932619 8L10.5 8 9.56437595 8.93562405C9.56622833 8.81671076 9.56709524 8.68865606 9.56709524 8.55033333L9.56709524 5.93238889 10.8932619 5.93238889 10.8932619 8zM9.56709524 3.89144444L10.8932619 3.89144444 10.8932619 5.25216667 9.56709524 5.25216667 9.56709524 3.89144444z"/>
    <polygon fill="#62B543" points="15.5 12.5 12 16 12 9"/>
    <polygon fill="#F26522" points="7.5 12.5 11 9 11 16"/>
  </g>
</svg>
