<svg xmlns="http://www.w3.org/2000/svg" width="16" height="16" viewBox="0 0 16 16"><rect id="frame" width="16" height="16" fill="none"/><g fill="none" fill-rule="evenodd" transform="translate(2 2)"><rect width="12" height="12" fill="#AFB1B3" rx="1.7"/><g fill="#092E20" fill-rule="nonzero"><path d="M5.457 1.884h1.326v6.139c-.68.129-1.18.18-1.722.18-1.62 0-2.463-.731-2.463-2.135 0-1.352.895-2.23 2.282-2.23.215 0 .379.017.577.068V1.884zm0 3.09a1.317 1.317 0 0 0-.448-.069c-.672 0-1.06.414-1.06 1.137 0 .706.371 1.094 1.051 1.094.147 0 .267-.009.457-.035V4.974z"/><path d="M8.893 3.932v3.075c0 1.059-.078 1.567-.31 2.006-.216.422-.5.689-1.085.982l-1.232-.586c.586-.275.87-.516 1.05-.887.19-.379.25-.818.25-1.972V3.932h1.327zm-1.326-2.04h1.326v1.36H7.567v-1.36z"/></g></g></svg>