<svg xmlns="http://www.w3.org/2000/svg" width="16" height="16" viewBox="0 0 16 16"><rect id="frame" width="16" height="16" fill="none"/><g fill="none" fill-rule="evenodd"><path fill="#092E20" fill-rule="nonzero" d="M14 8h-3.5L6 12.5 7.5 14H3.7A1.7 1.7 0 0 1 2 12.3V3.7A1.7 1.7 0 0 1 3.7 2h8.6A1.7 1.7 0 0 1 14 3.7V8z"/><path fill="#FFF" fill-rule="nonzero" d="M7.457 3.884h1.326v6.14c-.68.128-1.18.18-1.722.18-1.619 0-2.463-.732-2.463-2.136 0-1.352.896-2.23 2.282-2.23.216 0 .38.017.577.069V3.884zm0 3.09a1.317 1.317 0 0 0-.448-.068c-.671 0-1.059.413-1.059 1.136 0 .707.37 1.094 1.05 1.094.147 0 .268-.009.457-.034V6.974zM10.893 8H10.5l-.936.936c.002-.12.003-.247.003-.386V5.932h1.326V8zM9.567 3.891h1.326v1.361H9.567v-1.36z"/><path fill="#62B543" d="M15.5 12.5L12 16V9z"/><path fill="#F26522" d="M7.5 12.5L11 9v7z"/></g></svg>