<svg xmlns="http://www.w3.org/2000/svg" width="16" height="16" viewBox="0 0 16 16"><rect id="frame" width="16" height="16" fill="none"/><g fill="#7F8B91" fill-opacity=".9" fill-rule="evenodd"><path d="M5.84 8c-1.01 0-1.69-.79-1.69-1.77v-.02c0-.99.69-1.79 1.71-1.79 1.01 0 1.69.79 1.69 1.77v.02C7.55 7.19 6.86 8 5.84 8zm0-2.67c-.42 0-.64.4-.64.86v.02c0 .47.26.88.66.88.42 0 .64-.41.64-.86v-.02c0-.47-.26-.88-.66-.88zm1.81 2.4L9.96 4.5h1.19l-2.8 3.77-2.31 3.23H4.85l2.8-3.77zm2.49 3.85c-1.01 0-1.69-.79-1.69-1.77v-.02c0-.99.69-1.79 1.71-1.79 1.01 0 1.69.79 1.69 1.77v.02c0 .98-.69 1.79-1.71 1.79zm.02-.91c.42 0 .64-.41.64-.86v-.02c0-.47-.26-.88-.66-.88-.42 0-.64.4-.64.86v.02c0 .47.26.88.66.88z"/><path d="M4.784 12.921c-2.093-.379-2.61-1.115-2.61-2.288 0-.172.022-.632.022-.828 0-.897-.345-1.277-1.299-1.277H.598V7.47h.299c.954 0 1.3-.379 1.3-1.276 0-.196-.023-.655-.023-.828 0-1.173.517-1.909 2.61-2.288l.242.92c-1.38.379-1.564.736-1.564 1.575 0 .23.022.61.022.851 0 .897-.437 1.334-1.196 1.575.771.253 1.197.679 1.197 1.576 0 .242-.023.621-.023.851 0 .84.183 1.196 1.563 1.575l-.241.92z"/><path d="M11.211 12.921c2.093-.379 2.61-1.115 2.61-2.288 0-.172-.022-.632-.022-.828 0-.897.345-1.277 1.299-1.277h.299V7.47h-.299c-.954 0-1.3-.379-1.3-1.276 0-.196.024-.655.024-.828 0-1.173-.518-1.909-2.611-2.288l-.242.92c1.38.379 1.565.736 1.565 1.575 0 .23-.024.61-.024.851 0 .897.438 1.334 1.197 1.575-.771.253-1.197.679-1.197 1.576 0 .242.024.621.024.851 0 .84-.184 1.196-1.565 1.575l.242.92z"/></g></svg>