<svg ti:v="1" width="16" height="16" viewBox="0 0 16 16" xmlns="http://www.w3.org/2000/svg" xmlns:ti="urn:schemas-jetbrains-com:tisvg"><rect id="frame" width="16" height="16" fill="none"/><linearGradient id="a" x1=".5" y1=".003" x2=".5" y2="1.003"><stop offset="0" stop-color="#7C6D47"/><stop offset="1" stop-color="#60492F"/></linearGradient><path fill-rule="evenodd" d="M2 1v14h12V5.586L9.414 1H2z" fill="url(#a)"/><linearGradient id="b" x1=".5" y1=".004" x2=".5" y2="1"><stop offset="0" stop-color="#E3D8BC"/><stop offset="1" stop-color="#E3CDB3"/></linearGradient><path fill-rule="evenodd" d="M3 2v12h10V6L9 2H3z" fill="url(#b)"/><linearGradient id="c" x1=".5" y1=".012" x2=".5" y2="1.006"><stop offset="0" stop-color="#FFF3D4"/><stop offset="1" stop-color="#FFF"/></linearGradient><path fill-rule="evenodd" d="M5 4v8h6V6H9V4H5z" fill="url(#c)"/><linearGradient id="d" x1=".5" y1=".009" x2=".5" y2="1.009"><stop offset="0" stop-color="#580D14"/><stop offset="1" stop-color="#BD1D2C"/></linearGradient><path fill-rule="evenodd" d="M2.5 9C1.098 9 0 10.317 0 12v1c0 1.682 1.098 3 2.5 3H13V9H2.5z" fill="url(#d)"/><linearGradient id="e" x1=".5" y1=".025" x2=".5" y2="1"><stop offset="0" stop-color="#FFEBED"/><stop offset="1" stop-color="#FFC4CA"/></linearGradient><path fill-rule="evenodd" d="M10 10s-1 0-1 1v1c0 1 1 1 1 1h1v1H9v1h2s1 0 1-1v-1c0-1-1-1-1-1h-1v-1h2v-1m-6 0s-1 0-1 1v1c0 1 1 1 1 1h1v1H5v1h2s1 0 1-1v-1c0-1-1-1-1-1H6v-1h2v-1m-5.5 0c-.828 0-1.5.895-1.5 2v1c0 1.104.672 2 1.5 2H4v-1H3s-1 .015-1-1.5C2 10.984 3 11 3 11h1v-1H2.5z" fill="url(#e)"/></svg>