<svg ti:v="1" width="16" height="16" viewBox="0 0 16 16" xmlns="http://www.w3.org/2000/svg" xmlns:ti="urn:schemas-jetbrains-com:tisvg"><rect id="frame" width="16" height="16" fill="none"/><g fill-rule="evenodd"><path d="M2 15V1h7.414L14 5.586V15H2z" fill="#242424"/><path d="M9 2H3v12h10V6L9 2z" fill="#C4C4C4"/><path d="M9 6V4H5v8h6V6H9z" fill="#282828"/><path d="M2.5 16C1.098 16 0 14.683 0 13v-1c0-1.683 1.098-3 2.5-3H13v7H2.5z" fill="#242424"/><path d="M10 11v1h1s1 0 1 1v1c0 1-1 1-1 1H9v-1h2v-1h-1s-1 0-1-1v-1c0-1 1-1 1-1h2v1m-6 0v1h1s1 0 1 1v1c0 1-1 1-1 1H5v-1h2v-1H6s-1 0-1-1v-1c0-1 1-1 1-1h2v1m-6 1.5C2 14.016 3 14 3 14h1v1H2.5c-.828 0-1.5-.896-1.5-2v-1c0-1.104.672-2 1.5-2H4v1H3s-1-.016-1 1.5z" fill="#E05764"/></g></svg>