<svg ti:v="1" width="16" height="16" viewBox="0 0 16 16" xmlns="http://www.w3.org/2000/svg" xmlns:ti="urn:schemas-jetbrains-com:tisvg"><rect id="frame" width="16" height="16" fill="none"/><g fill-rule="evenodd"><path d="M2 15V1h7.414L14 5.586V15H2z" fill="#242424"/><path d="M9 2H3v12h10V6L9 2z" fill="#C3C3C3"/><path d="M9 6V4H5v8h6V6H9z" fill="#292929"/><path d="M11 16v-.501a2.494 2.494 0 0 1-3.355-.325C7.26 15.716 6.618 16 6 16H3v-.246A2.039 2.039 0 0 1 2 16H0v-3h1V9h3v.257C4.309 9.087 4.658 9 5 9h3v.5A2.49 2.49 0 0 1 9.5 9a2.49 2.49 0 0 1 1.5.5V9h5v7h-5z" fill="#242424"/><path d="M10 11.5a.5.5 0 0 0-1 0v2.498-.498a.5.5 0 1 0 1 0v.5m1-2.5v2a1.5 1.5 0 0 1-3 0v-2a1.5 1.5 0 1 1 3 0zM7 11v-1H5s-1 0-1 1v1c0 1 1 1 1 1h1v1H4v1h2s1 0 1-1v-1c0-1-1-1-1-1H5v-1m-3 3H1v1h1c1 0 1-1 1-1v-4H2m13 0v5h-1v-1l-1-2v3h-1v-5h1l1 2v-2h1z" fill="#ED6016"/></g></svg>