<svg xmlns="http://www.w3.org/2000/svg" width="12" height="12" viewBox="0 0 12 12"><rect id="frame" width="12" height="12" fill="none"/><g fill="none" fill-rule="evenodd"><path fill="#F4AF3D" fill-opacity=".6" d="M12 8.5A3.5 3.5 0 0 1 8.5 12 3.5 3.5 0 1 1 12 8.5"/><path fill="#40B6E0" fill-opacity=".7" d="M1.107 2.027L4.87 5.838A4.48 4.48 0 0 0 4 8.5c0 1.286.54 2.447 1.405 3.267-1.151-.308-2.277-1-3.258-1.993-2.262-2.29-2.942-5.356-1.04-7.747zm8.546.148c.898.91 1.547 1.94 1.883 3.004A4.484 4.484 0 0 0 8.5 4a4.48 4.48 0 0 0-2.738.929L2 1.12C4.362-.804 7.39-.117 9.653 2.175z"/><path fill="#231F20" fill-opacity=".7" d="M7.799 8.751c0 .646.344 1.097.922 1.097.578 0 .88-.683.88-1.103 0-.429-.26-1.079-.886-1.079-.627 0-.916.44-.916 1.085zm.001 1.374c.005.046.004.671-.001 1.875H7V7H7.8v.466C8.02 7.156 8.364 7 8.829 7c.7 0 1.471.361 1.471 1.751s-.907 1.763-1.47 1.763c-.375 0-.719-.13-1.03-.389z"/></g></svg>