<svg xmlns="http://www.w3.org/2000/svg" width="12" height="12" viewBox="0 0 12 12"><rect id="frame" width="12" height="12" fill="none"/><g fill="none" fill-rule="evenodd"><path fill="#40B6E0" fill-opacity=".7" d="M1.107 2.027L5.099 6.07A4.38 4.38 0 0 0 4.3 8.6c0 1.283.55 2.438 1.425 3.242-1.262-.257-2.506-.983-3.578-2.068-2.262-2.29-2.942-5.356-1.04-7.747zm8.546.148c.92.932 1.578 1.992 1.908 3.083A4.379 4.379 0 0 0 8.7 4.2a4.381 4.381 0 0 0-2.724.945L2 1.12C4.362-.804 7.39-.117 9.653 2.175z"/><path fill="#9AA7B0" d="M11.204 9.008l.796.57a3.473 3.473 0 0 1-.73 1.266l-.893-.402a2.582 2.582 0 0 1-.88.508l-.098.975c-.236.05-.48.076-.73.076a3.46 3.46 0 0 1-.732-.076l-.096-.975a2.582 2.582 0 0 1-.88-.508l-.894.402a3.485 3.485 0 0 1-.73-1.265l.796-.571a2.572 2.572 0 0 1 0-1.014l-.796-.571c.153-.474.404-.903.73-1.265l.893.403c.254-.224.553-.4.881-.51l.096-.975a3.597 3.597 0 0 1 1.462 0l.097.975c.328.11.627.286.881.51l.892-.403c.327.362.578.79.731 1.265l-.796.57a2.641 2.641 0 0 1 0 1.015m-2.536.73a1.239 1.239 0 1 0 .001-2.476 1.239 1.239 0 0 0 0 2.477"/></g></svg>