<svg xmlns="http://www.w3.org/2000/svg" width="12" height="12" viewBox="0 0 12 12"><rect id="frame" width="12" height="12" fill="none"/><g fill="none" fill-rule="evenodd"><path fill="#40B6E0" fill-opacity=".7" d="M1.107 2.008L6.5 7.415V8L4 7v4.09a8.15 8.15 0 0 1-1.852-1.407c-2.263-2.27-2.943-5.306-1.04-7.675zm8.55.146C10.95 3.452 11.727 5 11.799 6.53L8.8 5.5V7l-1.415-.493L2.001 1.11C4.364-.797 7.393-.116 9.657 2.154z"/><path fill="#9AA7B0" d="M9.668 7L12 7.712V12H5V8.429l2.333.714V7.712l2.335.717V7zM7 10H6v1h1v-1zm2-.5H8v1h1v-1zm2-.5h-1v1h1V9z"/></g></svg>