<svg xmlns="http://www.w3.org/2000/svg" width="12" height="12" viewBox="0 0 12 12">
  <g fill="none" fill-rule="evenodd">
    <path fill="#40B6E0" fill-opacity=".7" d="M0.59470308,5.87607334 L5.14466122,10.426798 C5.16771165,10.4785134 5.19182735,10.5296494 5.21698044,10.5801782 L5.26350308,10.5448733 C3.99470308,11.5664733 2.36910308,11.2016733 1.15390308,9.98567334 C-0.0620969198,8.77047334 -0.42689692,7.14407334 0.59470308,5.87607334 Z M5.18590308,5.95367334 C5.3334043,6.10127173 5.46837173,6.25493637 5.58984495,6.41328969 C5.09374004,7.07922216 4.8,7.90530775 4.8,8.8 C4.8,8.91281867 4.80467065,9.02454644 4.81382915,9.13500051 L1.07470308,5.39447334 C2.34350308,4.37287334 3.96990308,4.73847334 5.18590308,5.95367334 Z M5.39470308,1.07607334 L9.1340024,4.81374651 C9.02387337,4.80464256 8.91247885,4.8 8.8,4.8 C7.90576007,4.8 7.08005746,5.0934431 6.41393202,5.58928943 C6.25578778,5.46906413 6.10180571,5.33367334 5.95390308,5.18567334 C4.73790308,3.97047334 4.37310308,2.34407334 5.39470308,1.07607334 Z M9.98590308,1.15367334 C11.1535954,2.32213488 11.5357847,3.87077393 10.6559691,5.1161301 L10.5801782,5.21698044 C10.5290006,5.1915044 10.4772002,5.16709255 10.4248057,5.14377387 L5.87470308,0.594473341 C7.14350308,-0.427126659 8.76990308,-0.0615266592 9.98590308,1.15367334 Z"/>
    <path fill="#9AA7B0" d="M8.8,5.6 C7.0336,5.6 5.6,7.0336 5.6,8.8 C5.6,10.5664 7.0336,12 8.8,12 C10.5664,12 12,10.5664 12,8.8 C12,7.0336 10.5664,5.6 8.8,5.6 Z M8.48,11.3376 C7.216,11.1808 6.24,10.1056 6.24,8.8 C6.24,8.6016 6.2656,8.4128 6.3072,8.2272 L7.84,9.76 L7.84,10.08 C7.84,10.432 8.128,10.72 8.48,10.72 L8.48,11.3376 Z M10.688,10.5248 C10.6048,10.2656 10.368,10.08 10.08,10.08 L9.76,10.08 L9.76,9.12 C9.76,8.944 9.616,8.8 9.44,8.8 L7.52,8.8 L7.52,8.16 L8.16,8.16 C8.336,8.16 8.48,8.016 8.48,7.84 L8.48,7.2 L9.12,7.2 C9.472,7.2 9.76,6.912 9.76,6.56 L9.76,6.4288 C10.6976,6.8096 11.36,7.728 11.36,8.8 C11.36,9.4656 11.104,10.0704 10.688,10.5248 Z"/>
  </g>
</svg>
