<svg xmlns="http://www.w3.org/2000/svg" width="12" height="12" viewBox="0 0 12 12"><rect id="frame" width="12" height="12" fill="none"/><g fill="none" fill-rule="evenodd"><path fill="#40B6E0" fill-opacity=".7" d="M.595 5.876l4.55 4.55c.023.053.047.104.072.154l.047-.035c-1.27 1.021-2.895.657-4.11-.56-1.216-1.215-1.58-2.84-.56-4.109zm4.59.078c.148.147.283.3.405.46a3.981 3.981 0 0 0-.776 2.721l-3.74-3.74c1.27-1.022 2.896-.657 4.112.559zm.21-4.878l3.739 3.738a3.982 3.982 0 0 0-2.72.776 4.522 4.522 0 0 1-.46-.404c-1.216-1.216-1.58-2.842-.56-4.11zm4.59.078c1.169 1.168 1.55 2.717.671 3.962l-.076.101a3.981 3.981 0 0 0-.155-.073L5.875.594c1.269-1.021 2.895-.656 4.11.56z"/><path fill="#9AA7B0" d="M8.8 5.6a3.201 3.201 0 0 0 0 6.4 3.201 3.201 0 0 0 0-6.4zm-.32 5.738a2.556 2.556 0 0 1-2.173-3.11L7.84 9.76v.32c0 .352.288.64.64.64v.618zm2.208-.813a.635.635 0 0 0-.608-.445h-.32v-.96a.32.32 0 0 0-.32-.32H7.52v-.64h.64a.32.32 0 0 0 .32-.32V7.2h.64c.352 0 .64-.288.64-.64v-.131c.938.38 1.6 1.299 1.6 2.371 0 .666-.256 1.27-.672 1.725z"/></g></svg>