<svg xmlns="http://www.w3.org/2000/svg" width="12" height="12" viewBox="0 0 12 12">
  <g fill="none" fill-rule="evenodd">
    <path fill="#40B6E0" fill-opacity=".7" d="M6.90596163,7.89849128 L9.79840057,10.8266194 C9.55734709,11.0232706 9.309343,11.1926723 9.05591175,11.3359 L6.64523585,8.92375593 C6.77670635,8.60143109 6.86590628,8.25738386 6.90596163,7.89849128 Z M9.65258628,2.17467275 C11.8536735,4.40311816 12.5562802,7.36507369 10.8412106,9.72512997 L10.692672,9.92037942 L6.48152578,5.65625951 C6.12614011,4.9863648 5.57949878,4.43346729 4.91438312,4.07034828 L2.00028628,1.12080609 C4.361972,-0.804313912 7.38951485,-0.117380579 9.65258628,2.17467275 Z M1.10685771,2.02704609 L2.67873301,3.6190604 C1.5893219,3.72715734 0.632965131,4.28760664 0.000141157179,5.10992985 C0.00214675475,4.03692263 0.350129576,2.97860056 1.10685771,2.02704609 Z"/>
    <g fill="#9AA7B0" transform="translate(0 4.4)">
      <polygon points="5.417 4.286 6.59 4.286 6.59 7.615 5.417 7.615" transform="rotate(-45 6.004 5.95)"/>
      <path d="M3.06666667,0 C4.7603399,0 6.13333333,1.37299343 6.13333333,3.06666667 C6.13333333,4.7603399 4.7603399,6.13333333 3.06666667,6.13333333 C1.37299343,6.13333333 -4e-16,4.7603399 -4e-16,3.06666667 C-4e-16,1.37299343 1.37299343,0 3.06666667,0 Z M3.06666667,1.06666667 C1.96209717,1.06666667 1.06666667,1.96209717 1.06666667,3.06666667 C1.06666667,4.17123617 1.96209717,5.06666667 3.06666667,5.06666667 C4.17123617,5.06666667 5.06666667,4.17123617 5.06666667,3.06666667 C5.06666667,1.96209717 4.17123617,1.06666667 3.06666667,1.06666667 Z"/>
    </g>
  </g>
</svg>
