<svg xmlns="http://www.w3.org/2000/svg" width="12" height="12" viewBox="0 0 12 12"><rect id="frame" width="12" height="12" fill="none"/><g fill="none" fill-rule="evenodd"><path fill="#40B6E0" fill-opacity=".7" d="M6.906 7.898l2.892 2.929a5.3 5.3 0 0 1-.742.509l-2.41-2.412a3.84 3.84 0 0 0 .26-1.026zm2.747-5.723c2.2 2.228 2.903 5.19 1.188 7.55l-.148.195-4.211-4.264A3.883 3.883 0 0 0 4.914 4.07L2 1.12C4.362-.803 7.39-.116 9.653 2.176zm-8.546-.148l1.572 1.592A3.86 3.86 0 0 0 0 5.11c.002-1.072.35-2.13 1.107-3.082z"/><g fill="#9AA7B0"><path d="M4.412 9.588l.83-.829 2.354 2.354-.83.83z"/><path d="M3.067 4.4a3.067 3.067 0 1 1 0 6.133 3.067 3.067 0 0 1 0-6.133zm0 1.067a2 2 0 1 0 0 4 2 2 0 0 0 0-4z"/></g></g></svg>