<svg xmlns="http://www.w3.org/2000/svg" width="12" height="12" viewBox="0 0 12 12"><rect id="frame" width="12" height="12" fill="none"/><g fill="none" fill-rule="evenodd"><path fill="#40B6E0" fill-opacity=".7" d="M1.107 2.027L6 6.981V7H4v3h2v1.892c-1.356-.204-2.703-.954-3.853-2.118-2.262-2.29-2.942-5.356-1.04-7.747zm8.546.148C10.78 3.317 11.516 4.652 11.733 6H10V4H6v1.17L2 1.12C4.362-.803 7.39-.116 9.653 2.176z"/><g fill="#62B543"><path d="M10.2 8H5v1h5.2v1.25l1.767-1.75-1.778-1.75z"/><path d="M6.529 5l.927.869-1.123.99.618.579 1.122-.99.927.868V5z"/><path d="M6.3 10.079l1.115 1.044-.927.869h2.471V9.676l-.926.869L6.918 9.5z"/></g></g></svg>