<svg xmlns="http://www.w3.org/2000/svg" width="12" height="12" viewBox="0 0 12 12">
  <g fill="none" fill-rule="evenodd">
    <path fill="#40B6E0" fill-opacity=".7" d="M1.10685771,2.02704609 L6,6.981 L6,7 L4,7 L4,10 L6,10 L6.00035777,11.8916324 C4.64368356,11.6877806 3.29665925,10.9376122 2.14694343,9.77360609 C-0.115285146,7.48325942 -0.794628003,4.41808609 1.10685771,2.02704609 Z M9.65258628,2.17467275 C10.7809566,3.31706797 11.5155231,4.65223114 11.7324486,6.00025135 L10,6 L10,4 L6,4 L6,5.17 L2.00028628,1.12080609 C4.361972,-0.804313912 7.38951485,-0.117380579 9.65258628,2.17467275 Z"/>
    <g fill="#62B543" transform="translate(5 5)">
      <polygon points="5.2 3 0 3 0 4 5.2 4 5.2 5.25 6.967 3.5 5.189 1.75"/>
      <polygon points="1.529 0 2.456 .869 1.333 1.859 1.951 2.438 3.073 1.448 4 2.316 4 0"/>
      <polygon points="1.3 5.079 2.415 6.123 1.488 6.992 3.959 6.992 3.959 4.676 3.033 5.545 1.918 4.5"/>
    </g>
  </g>
</svg>
