<svg xmlns="http://www.w3.org/2000/svg" width="12" height="12" viewBox="0 0 12 12">
  <g fill="none" fill-rule="evenodd">
    <path fill="#40B6E0" fill-opacity=".7" d="M2.73122316,3.34920269 L8.47311517,9.20620221 C6.91347208,10.4881308 4.91338712,10.0303398 3.41833475,8.50531612 C1.9238392,6.98086046 1.47504508,4.94067987 2.73122316,3.34920269 Z M3.32144868,2.74600898 C4.88164858,1.46464834 6.88173354,1.92187144 8.37678591,3.44746305 C9.87128146,4.97191871 10.3200756,7.01209931 9.0638975,8.60300851 L9.0638975,8.60300851 Z"/>
    <path fill="#9AA7B0" fill-opacity=".8" d="M6,0 C9.3137085,0 12,2.6862915 12,6 C12,9.3137085 9.3137085,12 6,12 C2.6862915,12 0,9.3137085 0,6 C0,2.6862915 2.6862915,0 6,0 Z M6,0.857142857 C3.15967843,0.857142857 0.857142857,3.15967843 0.857142857,6 C0.857142857,8.84032157 3.15967843,11.1428571 6,11.1428571 C8.84032157,11.1428571 11.1428571,8.84032157 11.1428571,6 C11.1428571,3.15967843 8.84032157,0.857142857 6,0.857142857 Z"/>
  </g>
</svg>
