<svg xmlns="http://www.w3.org/2000/svg" width="12" height="12" viewBox="0 0 12 12"><rect id="frame" width="12" height="12" fill="none"/><g fill="none" fill-rule="evenodd"><path fill="#40B6E0" fill-opacity=".7" d="M2.731 3.35l5.742 5.856c-1.56 1.282-3.56.824-5.055-.7C1.924 6.98 1.475 4.94 2.731 3.348zm.59-.604c1.56-1.281 3.56-.824 5.056.701 1.494 1.525 1.943 3.565.687 5.156z"/><path fill="#9AA7B0" fill-opacity=".8" d="M6 0a6 6 0 1 1 0 12A6 6 0 0 1 6 0zm0 .857a5.143 5.143 0 1 0 0 10.286A5.143 5.143 0 0 0 6 .857z"/></g></svg>