<svg xmlns="http://www.w3.org/2000/svg" width="12" height="12" viewBox="0 0 12 12"><rect id="frame" width="12" height="12" fill="none"/><g fill="none" fill-rule="evenodd"><path fill="#40B6E0" fill-opacity=".7" d="M2.5 4.293l6.39 6.21c-1.75 1.369-3.995.88-5.672-.75-.271-.263-.511-.54-.718-.827V4.293zm6.283.054c.27.263.511.54.717.828v4.63L3.11 3.598c1.75-1.37 3.995-.881 5.673.75z"/><path fill="#9AA7B0" d="M1.5 9H0V4h1.5z"/><path fill="#9AA7B0" d="M1.464 6.768C1.466 3.506 2.504.846 5.997.846c3.5 0 4.537 2.66 4.539 5.922h.907C11.44 3.039 10.536 0 5.997 0 2.004 0 .56 3.04.557 6.768h.907z"/><path fill="#9AA7B0" d="M12 9h-1.5V4H12z"/></g></svg>