<svg xmlns="http://www.w3.org/2000/svg" width="12" height="12" viewBox="0 0 12 12">
  <g fill="#9AA7B0">
    <path d="M6,10.7142857 C3.40114286,10.7142857 1.28571429,8.59885714 1.28571429,6 C1.28571429,3.40114286 3.40114286,1.28571429 6,1.28571429 C8.59885714,1.28571429 10.7142857,3.40114286 10.7142857,6 C10.7142857,8.59885714 8.59885714,10.7142857 6,10.7142857 M6,0 C2.68628571,0 0,2.68628571 0,6 C0,9.31371429 2.68628571,12 6,12 C9.31371429,12 12,9.31371429 12,6 C12,2.68628571 9.31371429,0 6,0"/>
    <path d="M6,9.42857143 C7.89342857,9.42857143 9.42857143,7.89342857 9.42857143,6 L6,6 L6,9.42857143 Z"/>
  </g>
</svg>
