<svg xmlns="http://www.w3.org/2000/svg" width="12" height="12" viewBox="0 0 12 12">
  <g fill="none" fill-rule="evenodd">
    <path fill="#40B6E0" fill-opacity=".7" d="M1.10685771,2.02704609 L6.019,7 L4,7 L4.00011917,11.1949245 C3.34859682,10.8361535 2.72300332,10.356826 2.14694343,9.77360609 C-0.115285146,7.48325942 -0.794628003,4.41808609 1.10685771,2.02704609 Z M9.65258628,2.17467275 C11.1961214,3.73739302 12.0027547,5.66082862 11.7554961,7.48445567 L9.5,5.5 L8,5.5 L8,7 L7.808,7 L2.00028628,1.12080609 C4.361972,-0.804313912 7.38951485,-0.117380579 9.65258628,2.17467275 Z"/>
    <path fill="#9AA7B0" d="M9,6.5 L12,9 L9,11.5 L9,10 L5,10 L5,8 L9,8 L9,6.5 Z"/>
  </g>
</svg>
