<svg ti:v="1" width="16" height="16" viewBox="0 0 16 16" xmlns="http://www.w3.org/2000/svg" xmlns:ti="urn:schemas-jetbrains-com:tisvg"><rect id="frame" width="16" height="16" fill="none"/><linearGradient id="a" x1=".237" y1=".017" x2=".861" y2=".996"><stop offset="0" stop-color="#C30A54"/><stop offset=".22" stop-color="#C30A54"/><stop offset=".683" stop-color="#E243E6"/><stop offset=".925" stop-color="#F49152"/><stop offset="1" stop-color="#F49152"/></linearGradient><path fill-rule="evenodd" d="M4.607 3.473l3.159 4.904L2.64 16 0 5.272l4.607-1.799z" fill="url(#a)"/><linearGradient id="b" x1="1.027" y1="1.047" x2="-.28" y2=".259"><stop offset="0" stop-color="#FFBC00"/><stop offset=".113" stop-color="#FFBC00"/><stop offset=".586" stop-color="#E243E6"/><stop offset=".817" stop-color="#EB841A"/><stop offset=".935" stop-color="#FFBC00"/><stop offset="1" stop-color="#FFBC00"/></linearGradient><path fill-rule="evenodd" d="M4.319 3.585L4.803 0l6.902 7.687-2.003 1.972L11.25 16H2.64L4.319 3.585z" fill="url(#b)"/><linearGradient id="c" x1=".092" y1="-.041" x2=".999" y2="1.087"><stop offset="0" stop-color="#FFBC00"/><stop offset=".129" stop-color="#FFBC00"/><stop offset=".64" stop-color="#E243E6"/><stop offset=".909" stop-color="#C30A54"/><stop offset="1" stop-color="#C30A54"/></linearGradient><path fill-rule="evenodd" d="M8.059 10.759H16L13.346 0H4.803l3.256 10.759z" fill="url(#c)"/><path fill-rule="evenodd" d="M2 14h12V2H2v12z" fill="#2D2D34"/><path fill-rule="evenodd" d="M11.029 4.964H10v-.928h1.029V3.001h.941v1.035H13v.928h-1.03v1.037h-.941V4.964z" fill="#FFF"/><path fill-rule="evenodd" d="M9.029 6.964H8v-.928h1.029V5.001h.941v1.035H11v.928H9.97v1.037h-.941V6.964z" fill="#FFF"/><path fill-rule="evenodd" d="M5.956 5.267c-.126.123-.377.184-.629.184H4.132v-1.47h1.132c.315 0 .503.061.692.183.189.123.252.307.252.552a.768.768 0 0 1-.252.551zm.276.943c.317-.123.634-.308.824-.555.19-.247.317-.556.317-.988 0-.494-.127-.864-.444-1.173C6.612 3.186 6.042 3 5.408 3H3v5h1.141V6.457h.95L6.169 8H7.5L6.232 6.21z" fill="#FFF"/><path fill-rule="evenodd" d="M3 11h5v1H3v-1z" fill="#FFF"/></svg>