<svg xmlns="http://www.w3.org/2000/svg" width="16" height="16" viewBox="0 0 16 16"><rect id="frame" width="16" height="16" fill="none"/><g fill="none" fill-rule="evenodd"><path fill="#9AA7B0" fill-opacity=".8" d="M15 10.05a2.497 2.497 0 0 0-2.5.95 2.5 2.5 0 0 0-4.45 2H1V2.051C1 2.023 1.023 2 1.05 2h3.928c.554 0 1.326.32 1.718.711L7.984 4H15v6.05z"/><path fill="#62B543" d="M12 12.5a1.5 1.5 0 1 1-3.001-.001A1.5 1.5 0 0 1 12 12.5"/><path fill="#40B6E0" d="M16 12.5a1.5 1.5 0 1 1-3.001-.001A1.5 1.5 0 0 1 16 12.5"/></g></svg>