<svg xmlns="http://www.w3.org/2000/svg" width="16" height="16" viewBox="0 0 16 16">
  <g fill="none" fill-rule="evenodd">
    <path fill="#9AA7B0" fill-opacity=".8" d="M15.0004,10.0501605 C14.8387066,10.017269 14.6713577,10 14.5,10 C13.6824966,10 12.9562351,10.393042 12.5,11.0003416 C12.0437649,10.393042 11.3175034,10 10.5,10 C9.12,10 8,11.12 8,12.5 C8,12.6712164 8.01724053,12.8384306 8.05007913,13 L1.0004,13 L1.0004,2.051 C1.0004,2.023 1.0234,2 1.0504,2 L4.9784,2 C5.5324,2 6.3044,2.32 6.6964,2.711 L7.9844,4 L15.0004,4 L15.0004,10.0501605 Z"/>
    <path fill="#62B543" d="M12,12.5 C12,13.328 11.328,14 10.5,14 C9.672,14 9,13.328 9,12.5 C9,11.672 9.672,11 10.5,11 C11.328,11 12,11.672 12,12.5"/>
    <path fill="#40B6E0" d="M16,12.5 C16,13.328 15.328,14 14.5,14 C13.672,14 13,13.328 13,12.5 C13,11.672 13.672,11 14.5,11 C15.328,11 16,11.672 16,12.5"/>
  </g>
</svg>
