<svg xmlns="http://www.w3.org/2000/svg" xmlns:xlink="http://www.w3.org/1999/xlink" width="40" height="40" viewBox="0 0 40 40"><rect id="frame" width="40" height="40" fill="none"/><defs><path id="a" d="M.087 0h30.788v32H.087z"/><path id="c" d="M.268.527h4.608V7H.268z"/></defs><g fill="none" fill-rule="evenodd"><path fill="#435363" d="M20 27.205c-3.973 0-7.206-3.232-7.206-7.205 0-3.974 3.233-7.207 7.206-7.207 3.28 0 6.053 2.203 6.922 5.207h2.79c-.93-4.51-4.93-7.914-9.712-7.914-5.466 0-9.912 4.448-9.912 9.914 0 5.466 4.447 9.913 9.912 9.913 4.782 0 8.782-3.4 9.71-7.913h-2.788c-.869 3.003-3.642 5.205-6.922 5.205"/><path fill="#435363" d="M15.143 24.857A6.853 6.853 0 0 0 20 26.873V24a3.991 3.991 0 0 1-2.828-1.172l-2.029 2.03z"/><path fill="#F38B00" d="M13.127 20c0 .982.21 1.917.583 2.765l2.63-1.156A4 4 0 0 1 20 16v-2.873A6.88 6.88 0 0 0 13.126 20"/><path fill="#435363" d="M22.493 13.595l-1.043 2.679c.848.33 1.558.938 2.014 1.725h3.11a6.901 6.901 0 0 0-4.081-4.404"/><path fill="#F38B00" d="M23.463 22a4.003 4.003 0 0 1-2.012 1.726l1.041 2.678A6.9 6.9 0 0 0 26.575 22h-3.112z"/><g transform="translate(5 4)"><mask id="b" fill="#fff"><use xlink:href="#a"/></mask><path fill="#F38B00" d="M15 2.714a13.2 13.2 0 0 1 7.942 2.643l1.628-2.18A15.93 15.93 0 0 0 15 0C8.212 0 2.41 4.229.088 10.197l2.531.985C4.553 6.23 9.373 2.714 15 2.714m0 26.572a13.242 13.242 0 0 1-9.388-3.897l-1.924 1.923A15.95 15.95 0 0 0 15.002 32c8.159 0 14.89-6.107 15.874-14h-2.738c-.968 6.38-6.49 11.286-13.136 11.286" mask="url(#b)"/></g><g transform="translate(31 11)"><mask id="d" fill="#fff"><use xlink:href="#c"/></mask><path fill="#435363" d="M2.137 7h2.74A15.89 15.89 0 0 0 2.573.527L.268 1.967A13.191 13.191 0 0 1 2.136 7" mask="url(#d)"/></g><path fill="#F38B00" d="M30.051 18H32.8c-.717-4.609-3.873-8.419-8.102-10.07l-.982 2.524A10.28 10.28 0 0 1 30.051 18"/><path fill="#435363" d="M20 9.753l.002-2.707H20c-5.486 0-10.186 3.43-12.07 8.256l2.522.982c1.49-3.819 5.208-6.53 9.548-6.53"/><path fill="#F38B00" d="M9.754 20H7.048c0 5.442 3.376 10.109 8.143 12.023l1.004-2.512c-3.77-1.514-6.44-5.205-6.44-9.511"/><path fill="#435363" d="M7.285 23.844c-.045-.15-.088-.302-.13-.454l-.006-.027a13.197 13.197 0 0 1-.2-.883l-.03-.165a30.662 30.662 0 0 1-.05-.297l-.034-.254c-.08-.585-.12-1.174-.12-1.764H4c-.001.65.04 1.292.116 1.925 0 .014.004.027.005.04.02.174.045.346.072.517.007.048.016.094.024.142a11.903 11.903 0 0 0 .12.642 13.122 13.122 0 0 0 .143.623l.066.258c.03.114.064.227.096.34l.04.143h.002c.186.616.409 1.22.667 1.81l2.488-1.094c-.215-.488-.4-.99-.554-1.502h-.001zM30.049 22c-.933 4.696-5.083 8.245-10.049 8.245v2.707c6.462 0 11.833-4.757 12.8-10.952h-2.75z"/></g></svg>