<svg ti:v="1" width="16" height="16" viewBox="0 0 16 16" xmlns="http://www.w3.org/2000/svg" xmlns:ti="urn:schemas-jetbrains-com:tisvg"><rect id="frame" width="16" height="16" fill="none"/><linearGradient id="a" x1=".5" y1="-.014" x2=".5" y2="1.032"><stop offset="0" stop-color="#005CA8"/><stop offset="1" stop-color="#00335D"/></linearGradient><path fill-rule="evenodd" d="M12 12.414l4-4v-.828l-4-4m-12 4v.828l4 4V3.586l-4 4z" fill="url(#a)"/><linearGradient id="b" x1=".5" y1="-.077" x2=".5" y2="1.065"><stop offset="0" stop-color="#D9EEFF"/><stop offset="1" stop-color="#96D0FF"/></linearGradient><path fill-rule="evenodd" d="M12 7l1 1-1 1v2l3-3-3-3M1 8l3 3V9L3 8l1-1V5L1 8z" fill="url(#b)"/><linearGradient id="c" x1=".5" y1=".013" x2=".5" y2=".994"><stop offset="0" stop-color="#004A8A"/><stop offset="1" stop-color="#005B22"/></linearGradient><path fill-rule="evenodd" d="M6 2C4.346 2 3 3.345 3 5v6c0 1.654 1.346 3 3 3h4c1.654 0 3-1.346 3-3V5c0-1.655-1.346-3-3-3H6z" fill="url(#c)"/><linearGradient id="d" x1=".5" y1="0" x2=".5" y2="1"><stop offset="0" stop-color="#FFF9A3"/><stop offset="1" stop-color="#FFE260"/></linearGradient><path fill-rule="evenodd" d="M6 3C5 3 4 4 4 5v6c0 1 1 2 2 2h4v-1H6c-.312 0-1-.649-1-1V5c0-.297.454-1 1-1h4c.516 0 1 .532 1 1v5h-1V6s0-1-1-1H7v1h2v1H7C6 7 6 8 6 8v2c0 1 1 1 1 1h4.019c.641 0 .981-.647.981-1V5c0-1-1-2-2-2M7 8h2.001v2H7V8z" fill="url(#d)"/></svg>