<svg ti:v="1" width="16" height="16" viewBox="0 0 16 16" xmlns="http://www.w3.org/2000/svg" xmlns:ti="urn:schemas-jetbrains-com:tisvg"><rect id="frame" width="16" height="16" fill="none"/><g fill-rule="evenodd"><path d="M0 7.586v.828l4 4V3.586m12 4v.828l-4 4V3.586l4 4z" fill="#F4F4F4"/><path d="M12 5v2l1 1-1 1v2l3-3M4 11L1 8l3-3v2L3 8l1 1v2z" fill="#313131"/><path d="M6 14c-1.654 0-3-1.346-3-3V5c0-1.654 1.346-3 3-3h4c1.654 0 3 1.346 3 3v6c0 1.654-1.346 3-3 3H6z" fill="#F4F4F4"/><path d="M7 8h2v2H7m3-7H6C5 3 4 4 4 5v6c0 1 1 2 2 2h4v-1H6c-.312 0-1-.649-1-1V5c0-.297.453-1 1-1h4c.516 0 1 .531 1 1v5h-1V6s0-1-1-1H7v1h2v1H7C6 7 6 8 6 8v2c0 1 1 1 1 1h4.02c.64 0 .98-.647.98-1V5c0-1-1-2-2-2z"/></g></svg>