<svg xmlns="http://www.w3.org/2000/svg" width="16" height="16" viewBox="0 0 16 16"><rect id="frame" width="16" height="16" fill="none"/><g fill="none" fill-rule="evenodd"><path fill="#389FD6" d="M7.5 1a4.681 4.681 0 0 1 4.594 3.775 3.11 3.11 0 0 1 2.837 3.757A4.558 4.558 0 0 0 8.105 11H3.75A3.753 3.753 0 0 1 0 7.25a3.746 3.746 0 0 1 3.344-3.725A4.685 4.685 0 0 1 7.5 1zm-1 2.5l-3 3 3 3v-2h4v-2h-4v-2z"/><path fill="#6E6E6E" d="M12.488 8.889c.25 0 .495.026.73.077l.098.98c.328.112.626.287.88.513l.894-.405c.325.364.577.796.73 1.272l-.796.575a2.628 2.628 0 0 1 0 1.019l.796.575c-.153.477-.405.91-.731 1.273l-.893-.405a2.58 2.58 0 0 1-.88.512l-.098.98a3.496 3.496 0 0 1-1.46 0l-.098-.98a2.58 2.58 0 0 1-.88-.512l-.893.405a3.523 3.523 0 0 1-.731-1.273l.796-.574a2.628 2.628 0 0 1 0-1.02l-.796-.575c.153-.476.404-.908.73-1.272l.893.405a2.58 2.58 0 0 1 .881-.513l.098-.98c.235-.05.48-.077.73-.077zm0 2.275c-.684 0-1.239.558-1.239 1.247 0 .688.555 1.246 1.239 1.246s1.239-.558 1.239-1.246c0-.689-.555-1.247-1.24-1.247z"/></g></svg>