<svg width="64" height="64" viewBox="0 0 64 64" fill="none" xmlns="http://www.w3.org/2000/svg">
<path d="M62.9913 48.8348L64 21.0782L46.3652 17.0782L31.3391 27.1304L38.3304 47.7565L62.9913 48.8348Z" fill="url(#paint0_linear)"/>
<path d="M59.0609 33.9478L64 21.0782L46.6435 13.426L31.3391 27.1304L59.0609 33.9478Z" fill="url(#paint1_linear)"/>
<path d="M40.9391 63.9999L62.9913 48.8347L9.98261 25.2869L0 53.6695L40.9391 63.9999Z" fill="url(#paint2_linear)"/>
<path d="M0 24.4522L35.2696 51.3391L59.0609 33.9478L32.0348 3.96522L8.48696 0L0 24.4522Z" fill="url(#paint3_linear)"/>
<path d="M51 13H13V51H51V13Z" fill="url(#paint4_linear)"/>
<path d="M32.1444 44H18V46.3222H32.1444V44Z" fill="white"/>
<path d="M18 17.5H23.98C27.49 17.5 29.57 19.58 29.57 22.57V22.635C29.57 26.015 26.97 27.77 23.655 27.77H21.185V32.125H18V17.5ZM23.785 24.845C25.41 24.845 26.32 23.87 26.32 22.635V22.57C26.32 21.14 25.345 20.36 23.72 20.36H21.25V24.845H23.785Z" fill="white"/>
<path d="M33.5667 32.3201C32.4183 32.3201 31.465 32.1034 30.7067 31.6701C29.9267 31.2367 29.2983 30.7167 28.8 30.1317L30.815 27.8784C31.2267 28.3334 31.66 28.7017 32.0717 28.9617C32.505 29.2217 32.96 29.3517 33.48 29.3517C34.0867 29.3517 34.5633 29.1567 34.91 28.7667C35.2567 28.3767 35.43 27.7701 35.43 26.9251V17.5217H38.7233V27.0767C38.7233 27.9434 38.615 28.7017 38.3767 29.3517C38.1383 30.0017 37.7917 30.5434 37.3583 30.9767C36.9033 31.4317 36.3617 31.7567 35.7117 31.9951C35.0617 32.2117 34.3467 32.3201 33.5667 32.3201Z" fill="white"/>
<defs>
<linearGradient id="paint0_linear" x1="54.6563" y1="44.4948" x2="45.3839" y2="17.7079" gradientUnits="userSpaceOnUse">
<stop offset="0.000825369" stop-color="#FF318C"/>
<stop offset="1" stop-color="#FE6C54"/>
</linearGradient>
<linearGradient id="paint1_linear" x1="57.0686" y1="15.488" x2="48.9322" y2="25.8213" gradientUnits="userSpaceOnUse">
<stop offset="0" stop-color="#FF546A"/>
<stop offset="0.7814" stop-color="#FE764A"/>
</linearGradient>
<linearGradient id="paint2_linear" x1="53.7005" y1="57.0599" x2="7.00466" y2="40.2109" gradientUnits="userSpaceOnUse">
<stop offset="0.016776" stop-color="#FF318C"/>
<stop offset="0.8106" stop-color="#6B57FF"/>
</linearGradient>
<linearGradient id="paint3_linear" x1="18.1207" y1="44.6544" x2="37.9798" y2="9.57847" gradientUnits="userSpaceOnUse">
<stop offset="0.3305" stop-color="#FF318C"/>
<stop offset="0.9422" stop-color="#FDB60D"/>
</linearGradient>
<linearGradient id="paint4_linear" x1="31.9493" y1="3.7641" x2="31.9493" y2="37.8425" gradientUnits="userSpaceOnUse">
<stop offset="0.0842986" stop-color="#878585"/>
<stop offset="0.5377"/>
</linearGradient>
</defs>
    <path fill-rule="evenodd" clip-rule="evenodd" d="M28 64H64V44H28V64Z" fill="#D99E2B"/>
    <path fill-rule="evenodd" clip-rule="evenodd" d="M32 60H39.5V58.101H33.8V54.9H38.8V53H33.8V49.9H39.4V48H32V60Z" fill="black"/>
    <path fill-rule="evenodd" clip-rule="evenodd" d="M44.7998 55.3L46.5998 50.5L48.4998 55.3H44.7998ZM41 60H42.9L44 57.101H49.1L50.199 60H52.199L47.5 48H45.699L41 60Z" fill="black"/>
    <path fill-rule="evenodd" clip-rule="evenodd" d="M54.814 54.2004V49.9004H56.599C57.969 49.9004 58.599 50.6004 58.7 51.7004V52.1004C58.7 53.2884 58.045 54.2004 56.9 54.2004H54.814ZM54.814 60V56.1H56.5C58.791 56.142 60.511 54.348 60.511 52.304V51.804C60.511 49.585 58.935 48 56.88 48H53V60H54.814Z" fill="black"/>
</svg>