<svg ti:v="1" width="16" height="16" viewBox="0 0 16 16" xmlns="http://www.w3.org/2000/svg" xmlns:ti="urn:schemas-jetbrains-com:tisvg"><rect id="frame" width="16" height="16" fill="none"/><g fill-rule="evenodd"><path d="M14.999 2.387V1h-2.338L8.143 4.698 6.18 1.868c-.407-.477-1.039-.752-1.735-.752-.681 0-1.335.274-1.763.704-.771.77-1.005 2.467 0 3.473l2.313 2.388-4.334 4.024c-1 .977-.755 2.986.002 3.47.53.339 1.071.711 1.735.711.667 0 1.28-.253 1.754-.747L8.1 10.645 14.14 16H16v-1.354l-5.28-6.913 4.279-5.346z" fill="#F4F4F4"/><path d="M9.454 7.72L14.029 2H13.02L7.942 6.159 5.421 2.516c-.485-.569-1.543-.494-2.017 0-.492.508-.59 1.466 0 2.082L6.429 7.72l-5.042 4.683c-.454.454-.505 1.561 0 2.082.504.52 1.474.562 2.017 0l4.612-5.254 6.48 5.774H15L9.454 7.72z" fill="#A1260C"/></g></svg>