<svg ti:v="1" width="16" height="16" viewBox="0 0 16 16" xmlns="http://www.w3.org/2000/svg" xmlns:ti="urn:schemas-jetbrains-com:tisvg"><rect id="frame" width="16" height="16" fill="none"/><linearGradient id="a" x1=".5" y1="-.156" x2=".5" y2="1.008"><stop offset="0" stop-color="#00991C"/><stop offset="1" stop-color="#005D11"/></linearGradient><path fill-rule="evenodd" d="M0 11.586V16h4.414l9.793-9.793-4.414-4.414L0 11.586z" fill="url(#a)"/><linearGradient id="b" x1=".185" y1=".119" x2=".891" y2=".824"><stop offset="0" stop-color="#87461A"/><stop offset="1" stop-color="#460000"/></linearGradient><path fill-rule="evenodd" d="M11.293.293l-1.5 1.5 4.414 4.414 1.5-1.5a1 1 0 0 0 0-1.414l-3-3A.993.993 0 0 0 12 0a.993.993 0 0 0-.707.293z" fill="url(#b)"/><linearGradient id="c" x1=".5" y1="0" x2=".5" y2="1.017"><stop offset="0" stop-color="#FDFFC6"/><stop offset="1" stop-color="#FF9028"/></linearGradient><path fill-rule="evenodd" d="M11 2l3 3 1-1-3-3-1 1z" fill="url(#c)"/><linearGradient id="d" x1=".5" y1=".017" x2=".5" y2="1"><stop offset="0" stop-color="#B3FF00"/><stop offset="1" stop-color="#90CF00"/></linearGradient><path fill-rule="evenodd" d="M2 11l3 3 8-8-3-3M1 15h3l-3-3v3z" fill="url(#d)"/><path fill-rule="evenodd" d="M10 4l-7 7h1l6-6V4z" fill="#FFF"/></svg>