<svg ti:v="1" width="16" height="16" viewBox="0 0 16 16" xmlns="http://www.w3.org/2000/svg" xmlns:ti="urn:schemas-jetbrains-com:tisvg"><rect id="frame" width="16" height="16" fill="none"/><linearGradient id="a" x1=".5" y1="0" x2=".5" y2=".981"><stop offset="0" stop-color="#8C0A00"/><stop offset="1" stop-color="#C60000"/></linearGradient><path fill-rule="evenodd" d="M12.662 1L8.143 4.697 6.18 1.868c-.406-.477-1.039-.752-1.734-.752-.681 0-1.335.274-1.765.703-.77.771-1.003 2.468 0 3.474l2.315 2.388L.66 11.705c-.999.976-.754 2.985.003 3.47.531.339 1.071.71 1.734.71.669 0 1.281-.253 1.755-.747L8.1 10.645 14.14 16H16v-1.355l-5.28-6.913 4.279-5.345V1h-2.337z" fill="url(#a)"/><linearGradient id="b" x1=".5" y1="-.003" x2=".5" y2=".973"><stop offset="0" stop-color="#FFA88E"/><stop offset="1" stop-color="red"/></linearGradient><path fill-rule="evenodd" d="M13.02 2L7.941 6.159l-2.52-3.643c-.485-.57-1.544-.494-2.017 0-.493.507-.59 1.465 0 2.082L6.429 7.72l-5.043 4.682c-.454.455-.505 1.562 0 2.082.504.521 1.475.562 2.018 0l4.611-5.253 6.48 5.774h.504L9.453 7.72 14.029 2H13.02z" fill="url(#b)"/></svg>