<svg xmlns="http://www.w3.org/2000/svg" width="16" height="16" viewBox="0 0 16 16">
  <defs>
    <linearGradient id="a" x1="8" x2="8" y1="4.95" y2="15.952" gradientUnits="userSpaceOnUse">
      <stop offset="0" stop-color="#576a80"/>
      <stop offset="1" stop-color="#2d3742"/>
    </linearGradient>
    <linearGradient id="b" x1="8" x2="8" y1="6.174" y2="14.962" gradientUnits="userSpaceOnUse">
      <stop offset="0" stop-color="#baebff"/>
      <stop offset="1" stop-color="#66aeff"/>
    </linearGradient>
    <linearGradient id="c" x1="8" x2="8" y2="13" gradientUnits="userSpaceOnUse">
      <stop offset="0" stop-color="#755200"/>
      <stop offset="1" stop-color="#522400"/>
    </linearGradient>
    <linearGradient id="d" x1="8" x2="8" y1="1" y2="12" gradientUnits="userSpaceOnUse">
      <stop offset="0" stop-color="#f6ffbd"/>
      <stop offset="1" stop-color="#ff9500"/>
    </linearGradient>
    <linearGradient id="e" x1="8" x2="8" y1="4.5" y2="8.5" gradientUnits="userSpaceOnUse">
      <stop offset="0" stop-color="#f08000"/>
      <stop offset="1" stop-color="#ffffab"/>
    </linearGradient>
  </defs>
  <path fill="url(#a)" d="M7.516 16L8 14.198 8.484 16h.936l4.38-1.525-4.319-9.543L8 5.442l-1.481-.51L2.2 14.475 6.58 16h.936z"/>
  <path fill="url(#b)" d="M12.437 13.891L8.945 6.174 8 6.5l-.945-.326-3.493 7.717L6.749 15 8 10.344 9.251 15l3.186-1.109z"/>
  <path fill="url(#c)" d="M8 13a1.365 1.365 0 01-1.2-.715l-.425-.785-.8.383a1.366 1.366 0 01-1.943-1.411l.116-.883-.879-.159a1.366 1.366 0 01-.743-2.284L2.74 6.5l-.614-.646a1.367 1.367 0 01.743-2.284l.875-.162-.116-.883A1.368 1.368 0 014.982.98a1.379 1.379 0 01.586.132l.807.385L6.8.714a1.367 1.367 0 012.4 0l.424.782.8-.383a1.366 1.366 0 011.943 1.411l-.116.883.875.162a1.366 1.366 0 01.743 2.284l-.609.647.614.646a1.367 1.367 0 01-.743 2.284l-.875.162.116.883a1.368 1.368 0 01-1.354 1.545 1.379 1.379 0 01-.586-.132l-.807-.388-.424.783A1.366 1.366 0 018 13z"/>
  <path fill="url(#d)" d="M6.8 2.791a.363.363 0 00.209-.191l.679-1.4a.346.346 0 01.624 0l.679 1.4a.361.361 0 00.5.161l1.377-.739a.346.346 0 01.5.367l-.278 1.538a.36.36 0 00.307.422l1.549.211a.347.347 0 01.193.594l-1.127 1.085a.36.36 0 000 .522l1.129 1.081a.347.347 0 01-.193.594l-1.548.211a.36.36 0 00-.307.422l.278 1.538a.346.346 0 01-.5.367l-1.377-.739a.361.361 0 00-.5.161L8.312 11.8a.346.346 0 01-.624 0l-.679-1.4a.361.361 0 00-.5-.161l-1.377.739a.346.346 0 01-.5-.367l.278-1.538a.36.36 0 00-.31-.426l-1.548-.211a.347.347 0 01-.193-.594l1.129-1.081a.36.36 0 000-.522L2.859 5.158a.347.347 0 01.193-.594L4.6 4.353a.36.36 0 00.307-.422L4.63 2.393a.346.346 0 01.5-.367l1.377.739a.363.363 0 00.293.026z"/>
  <circle cx="8" cy="6.5" r="2" fill="url(#e)"/>
</svg>
