<svg xmlns="http://www.w3.org/2000/svg" width="16" height="16" viewBox="0 0 16 16">
  <path fill="#40b6e0" d="M7.334 12.822L6.749 15l-3.187-1.109.9-1.988a1.346 1.346 0 00.52.117 1.375 1.375 0 00.589-.134l.8-.383.424.782a1.361 1.361 0 00.539.537zm3.684-.8a1.379 1.379 0 01-.586-.132l-.807-.39-.424.783a1.359 1.359 0 01-.535.536L9.251 15l3.186-1.109-.9-1.988a1.354 1.354 0 01-.519.117z" opacity=".7"/>
  <path fill="#f4af3d" d="M12.012 6.761a.36.36 0 010-.522l1.129-1.081a.347.347 0 00-.193-.594L11.4 4.353a.36.36 0 01-.307-.422l.278-1.538a.346.346 0 00-.5-.367l-1.377.74a.367.367 0 01-.283.025.363.363 0 01-.22-.191l-.679-1.4a.346.346 0 00-.624 0l-.679 1.4a.363.363 0 01-.214.187.367.367 0 01-.283-.025l-1.377-.74a.346.346 0 00-.5.367l.278 1.538a.36.36 0 01-.307.422l-1.549.211a.347.347 0 00-.193.594l1.124 1.085a.36.36 0 010 .522L2.859 7.842a.347.347 0 00.193.594l1.548.211a.36.36 0 01.307.422l-.277 1.538a.346.346 0 00.5.367l1.377-.74a.367.367 0 01.283-.025.363.363 0 01.214.187l.684 1.404a.346.346 0 00.624 0l.679-1.4a.363.363 0 01.214-.187.367.367 0 01.283.025l1.377.74a.346.346 0 00.5-.367l-.278-1.538a.36.36 0 01.307-.422l1.549-.211a.347.347 0 00.193-.594zM8 8.5a2 2 0 112-2 2 2 0 01-2 2z" opacity=".7"/>
</svg>
