<svg xmlns="http://www.w3.org/2000/svg" width="16" height="16" viewBox="0 0 16 16">
  <path fill="#9aa7b0" d="M12.1 5.9l-5.686 5.686c-.456.456-1.109-.081-1.514-.486s-.942-1.058-.486-1.514L10.1 3.9c1.479-1.479 3.868-2.732 4.3-2.3s-.821 2.821-2.3 4.3zm-7.907 5.907A4.005 4.005 0 013.56 11c-1.668.009-2.286 1.685-2.286 3.5a2.751 2.751 0 012.173-.851 1.46 1.46 0 001.547-1.2 4.265 4.265 0 01-.801-.642z" opacity=".7"/>
  <path fill="#40b6e0" d="M3.5 1.5l3.793 3.793-2 2L1.5 3.5zm7.876 11.713L14.5 14.5l-1.286-3.124zm1.212-2.625l-1.881-1.881-2 2 1.88 1.88z" opacity=".7"/>
</svg>
