<svg xmlns="http://www.w3.org/2000/svg" width="16" height="16" viewBox="0 0 16 16">
  <path fill="#f4f4f4" d="M15.854 15.146l-1.853-4.558L3.5.086.086 3.5l10.448 10.449 4.617 1.9.703-.703z"/>
  <path fill="#00539c" d="M14.5 14.5l-3.124-1.287 1.838-1.837zm-11-13l-2 2 9.087 9.087 2-2z"/>
  <path fill="#f4f4f4" d="M15.107.893a1.345 1.345 0 00-.985-.379C12.9.514 10.687 1.9 9.393 3.193L3.707 8.879a1.55 1.55 0 00-.466 1.139C1.4 10.2.274 11.883.274 14.5c0 1.512 1.4 1.183 1.82.573a1.9 1.9 0 011.353-.425A2.467 2.467 0 005.96 12.76h.048a1.544 1.544 0 001.113-.468l5.686-5.686c.659-.658 3.71-4.306 2.3-5.713z"/>
  <path fill="#323232" d="M12.1 5.9l-5.686 5.686c-.456.456-1.109-.081-1.514-.486s-.942-1.058-.486-1.514L10.1 3.9c1.479-1.479 3.868-2.732 4.3-2.3s-.821 2.821-2.3 4.3zm-7.907 5.907A4.005 4.005 0 013.56 11c-1.668.009-2.286 1.685-2.286 3.5a2.751 2.751 0 012.173-.851 1.46 1.46 0 001.547-1.2 4.265 4.265 0 01-.801-.642z"/>
</svg>
