<svg width="16" height="16" viewBox="0 0 16 16" fill="none" xmlns="http://www.w3.org/2000/svg"><rect id="frame" width="16" height="16" fill="none"/><path d="M11.753 1H4.247A3.247 3.247 0 0 0 1 4.247v7.506A3.247 3.247 0 0 0 4.247 15h7.506A3.247 3.247 0 0 0 15 11.753V4.247A3.247 3.247 0 0 0 11.753 1z" fill="url(#paint0_linear)" stroke="#D9D9D9" stroke-width=".071"/><path fill-rule="evenodd" clip-rule="evenodd" d="M3.3 10.854h-.329V6.453h.33v4.4zm-.169-5.48a.251.251 0 1 1 0-.502c.143 0 .257.11.257.253a.251.251 0 0 1-.257.25z" fill="#000"/><path fill-rule="evenodd" clip-rule="evenodd" d="M6.5 10.94c-1.61 0-2.628-1.173-2.628-3.037 0-1.855 1.022-3.032 2.627-3.032 1.606 0 2.627 1.177 2.627 3.032 0 1.864-1.017 3.036-2.627 3.036zm0-5.766c-1.402 0-2.297 1.058-2.297 2.729s.899 2.734 2.296 2.734c1.402 0 2.297-1.063 2.297-2.734s-.895-2.73-2.297-2.73z" fill="#000"/><path fill-rule="evenodd" clip-rule="evenodd" d="M11.471 10.94c-1.209 0-2.075-.683-2.125-1.66h.323c.05.801.801 1.361 1.827 1.361 1 0 1.699-.568 1.699-1.336 0-.617-.417-.972-1.405-1.221l-.699-.172c-1.09-.278-1.585-.72-1.585-1.458 0-.92.858-1.582 1.933-1.582 1.11 0 1.94.654 1.977 1.52h-.322c-.045-.707-.736-1.222-1.663-1.222-.887 0-1.594.532-1.594 1.275 0 .59.433.928 1.38 1.165l.658.167c1.14.282 1.651.72 1.651 1.504 0 .976-.82 1.659-2.055 1.659z" fill="#000"/><defs><linearGradient id="paint0_linear" x1="8" y1="8" x2="8" y2="15" gradientUnits="userSpaceOnUse"><stop offset="1" stop-color="#fff"/><stop offset="1" stop-color="#E9E5E5"/></linearGradient></defs></svg>