<svg xmlns="http://www.w3.org/2000/svg" width="16" height="16" viewBox="0 0 16 16"><rect id="frame" width="16" height="16" fill="none"/><g fill="none" fill-rule="evenodd"><path fill="#9AA7B0" d="M13.892 3.376l-3.806-1.368A.154.154 0 0 0 10.04 2h-5.3C3.383 2 2 3.352 2 4.77v6.46C2 12.555 3.429 14 4.738 14h5.3a.154.154 0 0 0 .053-.01l3.805-1.321c.14-.05.138-.253-.004-.3l-3.806-1.41a.154.154 0 0 0-.047-.008H6.714C5.52 10.951 5 10.318 5 9.086V6.914c0-1.232.52-1.877 1.714-1.877h3.325a.154.154 0 0 0 .047-.007l3.806-1.353c.144-.047.144-.254 0-.3z"/><path fill="#0F0" fill-rule="nonzero" d="M13.88 7.862L8.05 6.505a.178.178 0 0 0-.041-.005H6.16c-.088 0-.16.064-.16.143v.52c0 .079.072.143.16.143 1.209 0 1.209 1.388 0 1.388-.088 0-.16.064-.16.143v.52c0 .079.072.143.16.143h1.849a.178.178 0 0 0 .04-.005l5.831-1.357c.16-.037.16-.24 0-.276z"/></g></svg>