<svg ti:v="1" width="16" height="16" viewBox="0 0 16 16" xmlns="http://www.w3.org/2000/svg" xmlns:ti="urn:schemas-jetbrains-com:tisvg"><rect id="frame" width="16" height="16" fill="none"/><g fill-rule="evenodd"><path d="M7.956 15c-2.049 0-3.737-.637-5.018-1.892C1.652 11.848 1 10.193 1 8.19c0-2.045.68-3.772 2.02-5.132C4.365 1.692 6.095 1 8.16 1c1.93 0 3.561.582 4.848 1.728C14.33 3.904 15 5.449 15 7.321c0 1.388-.377 2.558-1.122 3.479-.576.714-1.232 1.006-1.878 1.124v2.266l-.635.249c-.949.373-2.096.561-3.409.561z" fill="#242424"/><path d="M8.815 9.298c-.311.504-.733.756-1.267.756-.37 0-.664-.138-.884-.417-.222-.277-.332-.656-.332-1.136 0-.715.164-1.312.492-1.792.327-.48.758-.72 1.292-.72.777 0 1.165.435 1.165 1.306 0 .831-.155 1.499-.466 2.003zM11 12.391c-.803.358-1.751.543-2.854.543-1.481 0-2.658-.44-3.532-1.321-.873-.881-1.31-2.039-1.31-3.475 0-1.455.454-2.666 1.36-3.635.909-.968 2.055-1.452 3.438-1.452 1.442 0 2.569.4 3.382 1.201.813.8 1.22 1.833 1.22 3.098 0 .856-.15 1.554-.451 2.091-.301.538-.63.613-1.086.613-.5 0-.854-.285-.75-1.394.004-.044.114-1.66.342-3.66h-1.21c-.057 1-.093 1-.108 1h-.022c-.077 0-.25-.488-.517-.659a1.666 1.666 0 0 0-.91-.277c-.893 0-1.613.32-2.16.982-.545.662-.818 1.488-.818 2.487 0 .756.199 1.354.597 1.8.398.447.922.884 1.573.884 1.019 0 1.704-.217 2.053-1.217h.037c.005 1 .565 1.216 1.682 1.216.864 0 1.545-.194 2.145-.937.599-.742.899-1.746.899-2.904 0-1.582-.552-2.891-1.656-3.874-1.105-.983-2.5-1.488-4.183-1.488-1.797 0-3.272.58-4.428 1.752C2.578 4.938 2 6.412 2 8.193c0 1.732.547 3.132 1.639 4.203C4.73 13.466 6.169 14 7.957 14c1.207 0 2.217-.168 3.043-.492v-1.117z" fill="#C3C3C3"/></g></svg>