<svg ti:v="1" width="16" height="16" viewBox="0 0 16 16" xmlns="http://www.w3.org/2000/svg" xmlns:ti="urn:schemas-jetbrains-com:tisvg"><rect id="frame" width="16" height="16" fill="none"/><linearGradient id="a" x1=".5" y1=".018" x2=".5" y2="1.009"><stop offset="0" stop-color="#49005D"/><stop offset="1" stop-color="#7C00A1"/></linearGradient><path fill-rule="evenodd" d="M3.021 3.057C1.68 4.418 1 6.145 1 8.19c0 2.003.652 3.658 1.938 4.918C4.219 14.363 5.907 15 7.956 15c1.314 0 2.46-.189 3.41-.56l.634-.25v-2.266c.646-.118 1.301-.41 1.878-1.124C14.623 9.879 15 8.709 15 7.322c0-1.872-.671-3.419-1.992-4.595C11.721 1.581 10.089 1 8.16 1c-2.066 0-3.795.692-5.139 2.057z" fill="url(#a)"/><linearGradient id="b" x1=".5" y1=".018" x2=".5" y2="1.009"><stop offset="0" stop-color="#FFF"/><stop offset="1" stop-color="#F4C8FF"/></linearGradient><path fill-rule="evenodd" d="M3.733 3.766C2.578 4.938 2 6.412 2 8.193c0 1.732.547 3.133 1.638 4.203 1.093 1.071 2.532 1.605 4.318 1.605 1.207 0 2.217-.169 3.044-.493v-1.117c-.803.358-1.751.543-2.855.543-1.48 0-2.657-.44-3.531-1.321-.874-.88-1.311-2.039-1.311-3.474 0-1.455.454-2.667 1.362-3.635.908-.969 2.053-1.453 3.437-1.453 1.442 0 2.569.401 3.382 1.201.813.801 1.22 1.833 1.22 3.098 0 .857-.15 1.554-.452 2.091-.3.538-.629.614-1.085.614-.501 0-.854-.286-.751-1.395.005-.044.114-1.66.343-3.66H9.55c-.058 1-.095 1-.109 1h-.022c-.077 0-.25-.487-.517-.658a1.667 1.667 0 0 0-.91-.278c-.893 0-1.613.321-2.159.982-.547.663-.82 1.488-.82 2.488 0 .755.199 1.353.598 1.799.398.447.922.885 1.572.885 1.02 0 1.704-.218 2.054-1.218h.036c.006 1 .566 1.216 1.682 1.216.864 0 1.546-.195 2.146-.937.599-.742.899-1.746.899-2.903 0-1.583-.553-2.891-1.657-3.875-1.104-.983-2.498-1.488-4.183-1.488-1.796 0-3.272.58-4.427 1.753zm2.93 5.872c-.221-.278-.331-.657-.331-1.137 0-.715.163-1.313.491-1.792.328-.48.758-.719 1.293-.719.776 0 1.164.434 1.164 1.306 0 .83-.154 1.498-.465 2.002-.311.505-.734.757-1.267.757-.369 0-.664-.139-.885-.417z" fill="url(#b)"/></svg>