<svg ti:v="1" width="16" height="16" viewBox="0 0 16 16" xmlns="http://www.w3.org/2000/svg" xmlns:ti="urn:schemas-jetbrains-com:tisvg"><rect id="frame" width="16" height="16" fill="none"/><g fill-rule="evenodd"><path d="M2 15V1h7.414L14 5.586V15H2z" fill="#F4F4F4"/><path d="M9 2H3v12h10V6L9 2z" fill="#313131"/><path d="M9 6V4H5v8h6V6H9z" fill="#EBEBEB"/><path d="M10.586 0L8 2.586V4h1.586l-3 3L9 9.414l3-3V8h1.414L16 5.414V0h-5.414z" fill="#F4F4F4"/><path d="M13 7V4L9 8 8 7l4-4H9l2-2h4v4l-2 2z" fill="#313131"/><path d="M0 9v3h1v4h11v-4h1V9H0z" fill="#F4F4F4"/><path d="M1 10v1h1v4h1v-4h1v-1m5 0v1h1v4h1v-4h1v-1m-6 3h1v-1H6m2-1v-1H7v2s1 0 1-1zm-3 4h1v-2H5m3 0H7v2h1m-2-5v2s-1 0-1-1v-1h1z" fill="#757575"/></g></svg>