<svg ti:v="1" width="16" height="16" viewBox="0 0 16 16" xmlns="http://www.w3.org/2000/svg" xmlns:ti="urn:schemas-jetbrains-com:tisvg"><rect id="frame" width="16" height="16" fill="none"/><linearGradient id="a" x1=".5" y1=".003" x2=".5" y2="1.003"><stop offset="0" stop-color="#7C6D47"/><stop offset="1" stop-color="#60492F"/></linearGradient><path fill-rule="evenodd" d="M2 1v14h12V5.586L9.414 1H2z" fill="url(#a)"/><linearGradient id="b" x1=".5" y1=".004" x2=".5" y2="1"><stop offset="0" stop-color="#E3D8BC"/><stop offset="1" stop-color="#E3CDB3"/></linearGradient><path fill-rule="evenodd" d="M3 2v12h10V6L9 2H3z" fill="url(#b)"/><linearGradient id="c" x1=".5" y1=".012" x2=".5" y2="1.006"><stop offset="0" stop-color="#FFF3D4"/><stop offset="1" stop-color="#FFF"/></linearGradient><path fill-rule="evenodd" d="M5 4v8h6V6H9V4H5z" fill="url(#c)"/><linearGradient id="d" x1=".5" y1="0" x2=".5" y2="1.007"><stop offset="0" stop-color="#914D89"/><stop offset="1" stop-color="#492851"/></linearGradient><path fill-rule="evenodd" d="M10.586 0L8 2.586V4h1.586l-3 3L9 9.414l3-3V8h1.414L16 5.414V0h-5.414z" fill="url(#d)"/><linearGradient id="e" x1=".5" y1="0" x2=".5" y2="1.015"><stop offset="0" stop-color="#F7CCFF"/><stop offset="1" stop-color="#DEB3FF"/></linearGradient><path fill-rule="evenodd" d="M11 1L9 3h3L8 7l1 1 4-4v3l2-2V1h-4z" fill="url(#e)"/><linearGradient id="f" x1=".5" y1="0" x2=".5" y2="1"><stop offset="0" stop-color="#464F58"/><stop offset="1" stop-color="#657780"/></linearGradient><path fill-rule="evenodd" d="M0 9v3h1v4h11v-4h1V9H0z" fill="url(#f)"/><linearGradient id="g" x1=".5" y1="-.018" x2=".5" y2="2.48"><stop offset="0" stop-color="#FFF"/><stop offset="1" stop-color="#CCE6FF"/></linearGradient><path fill-rule="evenodd" d="M5 10v1c0 1 1 1 1 1v-2H5z" fill="url(#g)"/><linearGradient id="h" x1=".5" y1="-1.518" x2=".5" y2=".98"><stop offset="0" stop-color="#FFF"/><stop offset="1" stop-color="#CCE6FF"/></linearGradient><path fill-rule="evenodd" d="M7 15h1v-2H7v2z" fill="url(#h)"/><linearGradient id="i" x1=".5" y1="-1.518" x2=".5" y2=".98"><stop offset="0" stop-color="#FFF"/><stop offset="1" stop-color="#CCE6FF"/></linearGradient><path fill-rule="evenodd" d="M5 15h1v-2H5v2z" fill="url(#i)"/><linearGradient id="j" x1=".5" y1="-.018" x2=".5" y2="2.48"><stop offset="0" stop-color="#FFF"/><stop offset="1" stop-color="#CCE6FF"/></linearGradient><path fill-rule="evenodd" d="M7 10v2s1 0 1-1v-1H7z" fill="url(#j)"/><linearGradient id="k" x1=".5" y1="-2.035" x2=".5" y2="2.961"><stop offset="0" stop-color="#FFF"/><stop offset="1" stop-color="#CCE6FF"/></linearGradient><path fill-rule="evenodd" d="M6 13h1v-1H6v1z" fill="url(#k)"/><linearGradient id="l" x1=".5" y1="-.007" x2=".5" y2=".993"><stop offset="0" stop-color="#FFF"/><stop offset="1" stop-color="#CCE6FF"/></linearGradient><path fill-rule="evenodd" d="M9 10v1h1v4h1v-4h1v-1H9z" fill="url(#l)"/><linearGradient id="m" x1=".5" y1="-.007" x2=".5" y2=".993"><stop offset="0" stop-color="#FFF"/><stop offset="1" stop-color="#CCE6FF"/></linearGradient><path fill-rule="evenodd" d="M1 10v1h1v4h1v-4h1v-1H1z" fill="url(#m)"/></svg>