<svg ti:v="1" width="16" height="16" viewBox="0 0 16 16" xmlns="http://www.w3.org/2000/svg" xmlns:ti="urn:schemas-jetbrains-com:tisvg"><rect id="frame" width="16" height="16" fill="none"/><g fill-rule="evenodd"><path d="M2 15V1h7.414L14 5.586V15H2z" fill="#242424"/><path d="M9 2H3v12h10V6L9 2z" fill="#C4C4C4"/><path d="M9 6V4H5v8h6V6H9z" fill="#282828"/><path d="M10.586 0L8 2.586V4h1.586l-3 3L9 9.414l3-3V8h1.414L16 5.414V0h-5.414z" fill="#242424"/><path d="M13 7V4L9 8 8 7l4-4H9l2-2h4v4l-2 2z" fill="#C4C4C4"/><path d="M0 16V9h6.414L7.5 10.086 8.586 9H13v4h1v3H0z" fill="#242424"/><path d="M8 11v1H7v-1l-1-1H5v5h1v-3l1 1v2h1v-2l1-1v3h1v-5H9m3 4v-4h-1v5h2v-1m-9-3v-1H3v2s1 0 1-1zm-2 2h1v-1H2m2 1H3v2h1m-3 0h1v-2H1m1-3v2s-1 0-1-1v-1h1z" fill="#F03636"/></g></svg>