<svg ti:v="1" width="16" height="16" viewBox="0 0 16 16" xmlns="http://www.w3.org/2000/svg" xmlns:ti="urn:schemas-jetbrains-com:tisvg"><rect id="frame" width="16" height="16" fill="none"/><g fill-rule="evenodd"><path d="M2 15V1h7.414L14 5.586V15H2z" fill="#242424"/><path d="M9 2H3v12h10V6L9 2z" fill="#C4C4C4"/><path d="M9 6V4H5v8h6V6H9z" fill="#282828"/><path d="M15 13V9h-4.414L9.5 10.086 8.414 9H0v7h16v-3h-1z" fill="#242424"/><path d="M10 11v1H9v-1l-1-1H3v2H2v-2H1v5h1v-2h1v2h1v-4h1v4h1v-4h1v4h1v-3l1 1v2h1v-2l1-1v3h1v-5h-1m4 4v1h-2v-5h1v4h1z" fill="#42C2FF"/></g></svg>