<svg ti:v="1" width="16" height="16" viewBox="0 0 16 16" xmlns="http://www.w3.org/2000/svg" xmlns:ti="urn:schemas-jetbrains-com:tisvg"><rect id="frame" width="16" height="16" fill="none"/><g fill-rule="evenodd"><path d="M2.152 16c-.38 0-.946-.115-1.49-.658-1.117-1.119-.614-2.435 0-3.047l6.594-6.597a4.31 4.31 0 0 1-.178-1.235A4.468 4.468 0 0 1 11.54 0c.628 0 1.593.289 1.83.399.236.111 1.617.766 2.231 2.232.087.209.4 1.204.4 1.832a4.467 4.467 0 0 1-4.46 4.462c-.42 0-.832-.059-1.238-.178L3.71 15.342c-.11.109-.702.658-1.557.658z" fill="#F4F4F4"/><path d="M14.715 3.017l-2.345 2.36-1.746-1.745 2.372-2.35c-.437-.198-.988-.268-1.498-.268a3.492 3.492 0 0 0-3.492 3.49c0 .512.124 1.073.32 1.513L1.39 12.869s-.872.872 0 1.746c.872.871 1.745 0 1.745 0l6.863-6.88c.439.199.987.26 1.5.26a3.49 3.49 0 0 0 3.488-3.491c0-.51-.073-1.05-.271-1.487z" fill="#313131"/><path d="M13.848 16c.38 0 .946-.115 1.49-.658 1.117-1.119.614-2.435 0-3.047L8.744 5.698a4.31 4.31 0 0 0 .178-1.235A4.468 4.468 0 0 0 4.46 0c-.628 0-1.593.289-1.83.399C2.395.51 1.014 1.165.4 2.63.313 2.84 0 3.835 0 4.463a4.467 4.467 0 0 0 4.46 4.462c.42 0 .832-.059 1.238-.178l6.593 6.595c.11.109.702.658 1.557.658z" fill="#F4F4F4"/><path d="M1.285 3.017l2.345 2.36 1.746-1.745-2.372-2.35c.437-.198.988-.268 1.498-.268a3.492 3.492 0 0 1 3.492 3.49c0 .512-.124 1.073-.32 1.513l6.936 6.852s.872.872 0 1.746c-.872.871-1.745 0-1.745 0l-6.863-6.88c-.439.199-.987.26-1.5.26a3.49 3.49 0 0 1-3.488-3.491c0-.51.073-1.05.271-1.487z" fill="#313131"/></g></svg>