<svg ti:v="1" width="16" height="16" viewBox="0 0 16 16" xmlns="http://www.w3.org/2000/svg" xmlns:ti="urn:schemas-jetbrains-com:tisvg"><rect id="frame" width="16" height="16" fill="none"/><linearGradient id="a" x1=".5" y1=".021" x2=".5" y2="1"><stop offset="0" stop-color="#454E5D"/><stop offset="1" stop-color="#1A4885"/></linearGradient><path fill-rule="evenodd" d="M7.078 4.463c0 .419.059.832.178 1.235L.662 12.294c-.613.613-1.117 1.928 0 3.048.544.543 1.111.658 1.49.658.856 0 1.448-.55 1.557-.658l6.594-6.595c.405.119.817.178 1.236.178A4.467 4.467 0 0 0 16 4.463c0-.628-.313-1.623-.399-1.832C14.986 1.165 13.606.51 13.369.399 13.133.289 12.167 0 11.539 0a4.468 4.468 0 0 0-4.461 4.463z" fill="url(#a)"/><linearGradient id="b" x1=".5" y1=".024" x2=".5" y2="1.003"><stop offset="0" stop-color="#BFEAFF"/><stop offset="1" stop-color="#A8BDE0"/></linearGradient><path fill-rule="evenodd" d="M8.006 4.504c0 .511.124 1.073.321 1.513l-6.937 6.85s-.872.873 0 1.748c.872.871 1.745 0 1.745 0l6.863-6.88c.439.199.986.26 1.5.26a3.49 3.49 0 0 0 3.488-3.491c0-.511-.073-1.05-.271-1.488L12.37 5.378l-1.746-1.746 2.372-2.35c-.437-.198-.988-.268-1.498-.268a3.491 3.491 0 0 0-3.492 3.49z" fill="url(#b)"/><linearGradient id="c" x1=".5" y1=".021" x2=".5" y2="1"><stop offset="0" stop-color="#455A5D"/><stop offset="1" stop-color="#1A7485"/></linearGradient><path fill-rule="evenodd" d="M2.631.399C2.394.51 1.014 1.165.399 2.63.313 2.84 0 3.835 0 4.463a4.467 4.467 0 0 0 4.461 4.462c.419 0 .831-.059 1.236-.178l6.594 6.595c.11.109.701.658 1.557.658.38 0 .946-.115 1.49-.658 1.117-1.12.613-2.435 0-3.048L8.744 5.698a4.31 4.31 0 0 0 .178-1.235A4.468 4.468 0 0 0 4.461 0c-.628 0-1.594.289-1.83.399z" fill="url(#c)"/><linearGradient id="d" x1=".5" y1=".024" x2=".5" y2="1.003"><stop offset="0" stop-color="#BFFFE6"/><stop offset="1" stop-color="#A8D8E0"/></linearGradient><path fill-rule="evenodd" d="M3.004 1.282l2.372 2.35L3.63 5.378 1.286 3.016c-.199.438-.272.977-.272 1.488a3.49 3.49 0 0 0 3.488 3.492c.513 0 1.061-.062 1.5-.261l6.863 6.88s.873.871 1.745 0c.872-.875 0-1.747 0-1.747L7.673 6.017c.197-.44.321-1.002.321-1.513a3.491 3.491 0 0 0-3.492-3.49c-.51 0-1.061.07-1.498.268z" fill="url(#d)"/></svg>