<svg ti:v="1" width="16" height="16" viewBox="0 0 16 16" xmlns="http://www.w3.org/2000/svg" xmlns:ti="urn:schemas-jetbrains-com:tisvg"><rect id="frame" width="16" height="16" fill="none"/><linearGradient id="a" x1=".5" y1="-.006" x2=".5" y2="1"><stop offset="0" stop-color="#566980"/><stop offset="1" stop-color="#2C3641"/></linearGradient><path fill-rule="evenodd" d="M16 15H1V1h15v14z" fill="url(#a)"/><linearGradient id="b" x1="0" y1=".5" x2="1" y2=".5"><stop offset="0" stop-color="#FFF"/><stop offset="1" stop-color="#A7BBDB"/></linearGradient><path fill-rule="evenodd" d="M2 14h13V5H2v9z" fill="url(#b)"/><linearGradient id="c" x1=".5" y1="0" x2=".5" y2="1.011"><stop offset="0" stop-color="#FFF"/><stop offset="1" stop-color="#A7BBDB"/></linearGradient><path fill-rule="evenodd" d="M14 13H3V5h11v8z" fill="url(#c)"/><path fill-rule="evenodd" d="M12 12h1v-1h-1m-2 1h1v-1h-1m-2 1h1v-1H8m4-1h1V9h-1m-2 1h1V9h-1m-2 1h1V9H8m4-1h1V7h-1m-2 1h1V7h-1M8 8h1V7H8M6 6h1v7H6V6z"/><linearGradient id="d" x1="0" y1=".5" x2="1" y2=".5"><stop offset="0" stop-color="#6D97E7"/><stop offset="1" stop-color="#2E61C8"/></linearGradient><path fill-rule="evenodd" d="M15 5H2V2h13v3z" fill="url(#d)"/><linearGradient id="e" x1=".5" y1=".024" x2=".5" y2="1.013"><stop offset="0" stop-color="#566980"/><stop offset="1" stop-color="#2C3641"/></linearGradient><path fill-rule="evenodd" d="M10 16H0V9h10v7z" fill="url(#e)"/><linearGradient id="f" x1=".5" y1=".04" x2=".5" y2=".987"><stop offset="0" stop-color="#FFF"/><stop offset="1" stop-color="#A7BBDB"/></linearGradient><path fill-rule="evenodd" d="M9 15H1v-5h8v5z" fill="url(#f)"/><path fill-rule="evenodd" d="M3.66 11.51l-1.32.99 1.32.99v-1.98z" fill="#FFF"/><path fill-rule="evenodd" d="M5 14h3v-3H5v3z" fill="#329932"/><path fill-rule="evenodd" d="M6 11.51l1.32.99-1.32.99v-1.98z" fill="#329932"/></svg>