<svg ti:v="1" width="16" height="16" viewBox="0 0 16 16" xmlns="http://www.w3.org/2000/svg" xmlns:ti="urn:schemas-jetbrains-com:tisvg"><rect id="frame" width="16" height="16" fill="none"/><g fill-rule="evenodd"><path d="M16 15H1V1h15v14z" fill="#F4F4F4"/><path d="M2 14h13V5H2v9z" fill="#313131"/><path d="M14 13H3V5h11v8z" fill="#EBEBEB"/><path d="M12 12h1v-1h-1m-2 1h1v-1h-1m-2 1h1v-1H8m4-1h1V9h-1m-2 1h1V9h-1m-2 1h1V9H8m4-1h1V7h-1m-2 1h1V7h-1M8 8h1V7H8M6 6h1v7H6V6z" fill="#313131"/><path d="M15 5H2V2h13v3z" fill="#313131"/><path d="M10 16H0V9h10v7z" fill="#F4F4F4"/><path d="M9 15H1v-5h8v5z" fill="#313131"/><path d="M3.66 11.51l-1.32.99 1.32.99v-1.98z" fill="#EBEBEB"/><path d="M5 14h3v-3H5v3z" fill="#EBEBEB"/><path d="M6 11.51l1.32.99-1.32.99v-1.98z" fill="#313131"/></g></svg>