<svg ti:v="1" width="16" height="16" viewBox="0 0 16 16" xmlns="http://www.w3.org/2000/svg" xmlns:ti="urn:schemas-jetbrains-com:tisvg"><rect id="frame" width="16" height="16" fill="none"/><g fill-rule="evenodd"><path d="M12 4H5V1h7v3z" fill="#242424"/><path d="M1 14h15V4H1v10z" fill="#242424"/><path d="M6 4V2h5v2h-1V3H7v1H6z" fill="#C4C4C4"/><path d="M2 6v2h2l1-1h1l1 1h3l1-1h1l1 1h2V6H2z" fill="#C4C4C4"/><path d="M2 6h13V5H2v1z" fill="#C4C4C4"/><path d="M7 11H4V9h3v2z" fill="#C4C4C4"/><path d="M13 9v2h-3V9H7v2H4V9H2v4h13V9h-2z" fill="#C4C4C4"/><path d="M13 11h-3V9h3v2z" fill="#C4C4C4"/><path d="M5 10h1V6.999H5V10z" fill="#282828"/><path d="M11 10h1V6.999h-1V10z" fill="#282828"/></g></svg>