<svg ti:v="1" width="16" height="16" viewBox="0 0 16 16" xmlns="http://www.w3.org/2000/svg" xmlns:ti="urn:schemas-jetbrains-com:tisvg"><rect id="frame" width="16" height="16" fill="none"/><linearGradient id="a" x1=".5" y1=".014" x2=".5" y2="1.01"><stop offset="0" stop-color="#0078B5"/><stop offset="1" stop-color="#004F77"/></linearGradient><path fill-rule="evenodd" d="M12 4H5V1h7v3z" fill="url(#a)"/><linearGradient id="b" x1=".5" y1=".014" x2=".5" y2="1.01"><stop offset="0" stop-color="#995B00"/><stop offset="1" stop-color="#792400"/></linearGradient><path fill-rule="evenodd" d="M1 14h15V4H1v10z" fill="url(#b)"/><linearGradient id="c" x1=".5" y1=".032" x2=".5" y2="1.049"><stop offset="0" stop-color="#DEFDFF"/><stop offset="1" stop-color="#00D5FF"/></linearGradient><path fill-rule="evenodd" d="M6 4V2h5v2h-1V3H7v1H6z" fill="url(#c)"/><linearGradient id="d" x1=".5" y1=".011" x2=".5" y2="1.035"><stop offset="0" stop-color="#FF994E"/><stop offset="1" stop-color="#FF7513"/></linearGradient><path fill-rule="evenodd" d="M2 6v2h2l1-1h1l1 1h3l1-1h1l1 1h2V6H2z" fill="url(#d)"/><path fill-rule="evenodd" d="M2 6h13V5H2v1z" fill="#FFC9A3"/><path fill-rule="evenodd" d="M7 11H4V9h3v2z" fill="#8E4500"/><linearGradient id="e" x1=".5" y1=".009" x2=".5" y2="1.018"><stop offset="0" stop-color="#FF7513"/><stop offset="1" stop-color="#B3520D"/></linearGradient><path fill-rule="evenodd" d="M13 9v2h-3V9H7v2H4V9H2v4h13V9h-2z" fill="url(#e)"/><path fill-rule="evenodd" d="M13 11h-3V9h3v2z" fill="#8E4500"/><linearGradient id="f" x1=".5" y1=".031" x2=".5" y2="1.018"><stop offset="0" stop-color="#DEFDFF"/><stop offset="1" stop-color="#00D5FF"/></linearGradient><path fill-rule="evenodd" d="M5 10h1V6.999H5V10z" fill="url(#f)"/><linearGradient id="g" x1=".5" y1=".031" x2=".5" y2="1.018"><stop offset="0" stop-color="#DEFDFF"/><stop offset="1" stop-color="#00D5FF"/></linearGradient><path fill-rule="evenodd" d="M11 10h1V6.999h-1V10z" fill="url(#g)"/></svg>