<svg xmlns="http://www.w3.org/2000/svg" width="16" height="16" viewBox="0 0 16 16"><rect id="frame" width="16" height="16" fill="none"/><path fill="#9AA7B0" fill-rule="evenodd" d="M13.6 10.745c-.512.465-1.053.896-1.62 1.291a2.892 2.892 0 0 1-2.706.286 1.844 1.844 0 0 1-1.29-1.567c-.954.786-1.85 1.7-3.226 1.762-.11.52-.45 2.06-.48 2.3-.026.339-.191.477-.525.55-.828.166-2.624.605-2.753.633 1-4.687 1.991-9.354 2.972-14H7.03c-.161.757-1.562 7.422-1.57 7.512-.082.8.423 1.272 1.2 1.039.439-.177.856-.404 1.243-.677.062-.033.08-.157.1-.243.527-2.483 1.606-7.572 1.633-7.63h3c-.161.766-1.18 5.673-1.533 7.383a1.72 1.72 0 0 0-.034.414.705.705 0 0 0 .591.743 1.32 1.32 0 0 0 1.005-.11c.329-.184.647-.388.953-.609.322-.239.627-.501.91-.786a1.115 1.115 0 0 1 1.043-.247c-.68.675-1.305 1.342-1.972 1.956z"/></svg>