<svg xmlns="http://www.w3.org/2000/svg" width="13" height="13" viewBox="0 0 13 13"><rect id="frame" width="13" height="13" fill="none"/><g fill="#AFB1B3" fill-rule="evenodd"><path d="M2 4h2v2H2z"/><path d="M5 4h2v2H5z"/><path d="M5 .9h2v2H5z"/><path d="M12.873 6.112l.127.1-.053.155a1.57 1.57 0 0 1-.38.562c-.249.247-.702.541-1.438.541h-.119c-.298.754-.699 2.144-1.371 2.905a5.645 5.645 0 0 1-1.401 1.147 6.577 6.577 0 0 1-2.054.746 8.457 8.457 0 0 1-1.573.142c-1.168 0-1.67-.131-2.485-.52-.815-.388-1.305-1.029-1.745-2.025C.088 9.2-.036 8.245.01 6.998h8.996c.104-.004.617-.048.936-.226-.265-.418-.34-.908-.216-1.429a2.475 2.475 0 0 1 .328-.768l.122-.175.185.107c.033.02.788.465.921 1.377.18-.03.36-.045.543-.046.688 0 1.014.246 1.049.274zM3.86 10.2a1.25 1.25 0 1 0 0-2.5 1.25 1.25 0 0 0 0 2.5z"/><circle cx="3.86" cy="8.95" r="1"/></g></svg>