<svg xmlns="http://www.w3.org/2000/svg" width="16" height="16" viewBox="0 0 16 16">
  <path fill="#9AA7B0" fill-opacity=".8" fill-rule="evenodd" d="M2 3L5 3 5 6 2 6 2 3zM3 4L3 5 4 5 4 4 3 4zM6 3L9 3 9 6 6 6 6 3zM7 4L7 5 8 5 8 4 7 4zM2 7L5 7 5 10 2 10 2 7zM3 8L3 9 4 9 4 8 3 8zM6 7L9 7 9 10 6 10 6 7zM7 8L7 9 8 9 8 8 7 8zM2 11L5 11 5 14 2 14 2 11zM3 12L3 13 4 13 4 12 3 12zM6 11L9 11 9 14 6 14 6 11zM7 12L7 13 8 13 8 12 7 12zM10 7L13 7 13 10 10 10 10 7zM11 8L11 9 12 9 12 8 11 8zM10 11L13 11 13 14 10 14 10 11zM11 12L11 13 12 13 12 12 11 12z"/>
</svg>
