<svg ti:v="1" width="16" height="16" viewBox="0 0 16 16" xmlns="http://www.w3.org/2000/svg" xmlns:ti="urn:schemas-jetbrains-com:tisvg"><rect id="frame" width="16" height="16" fill="none"/><path d="M7.139 1H3.824L1 9.844V11h3.244l.686-2.268h1.056L6.708 11H10V9.841L7.139 1z" fill="#252525"/><path d="M4.188 7.733L3.5 10H2l2.554-8h1.857L9 10H7.439l-.721-2.267zm2.282-1.1l-.627-1.97c-.153-.486-.283-1.033-.4-1.495h-.026c-.118.462-.236 1.02-.378 1.495l-.615 1.97zm0 0" fill="#C4C4C4"/><path d="M16 7.586L13.414 5h-.828L8 9.586 6.414 8h-.828L3 10.586v.828L7.586 16h.828L16 8.414v-.828z" fill="#252525"/><path d="M4 11l2-2 2 2 5-5 2 2-7 7-4-4z" fill="#8DCF8D"/></svg>