<svg xmlns="http://www.w3.org/2000/svg" width="16" height="16" viewBox="0 0 16 16">
  <g fill="none" fill-rule="evenodd">
    <path fill="#62B543" fill-opacity=".6" d="M15.0002,7.25732729 C14.0492304,6.4718838 12.8297224,6 11.5,6 C8.46243388,6 6,8.46243388 6,11.5 C6,12.0201209 6.07219743,12.5233792 6.20711735,13.0003 L1.0002,13.0003 L1.0002,2.0513 C1.0002,2.0233 1.0232,2.0003 1.0512,2.0003 L4.9782,2.0003 C5.5322,2.0003 6.3042,2.3203 6.6962,2.7113 L7.9842,4.0003 L15.0002,4.0003 L15.0002,7.25732729 Z"/>
    <path fill="#F98B9E" fill-opacity=".6" d="M16,11.5 C16,13.9852857 13.9852857,16 11.5,16 C9.01471429,16 7,13.9852857 7,11.5 C7,9.01471429 9.01471429,7 11.5,7 C13.9852857,7 16,9.01471429 16,11.5"/>
    <path fill="#231F20" fill-opacity=".7" d="M11,14 L12,14 L12,13 L13,13 L13,12 L12,12 C12,10.8510657 12,10.2677324 12,10.25 C12,10.1431885 12,10.065092 12.1241577,10 C12.4897311,9.89755319 12.9766374,10.038217 13.0673874,10.065092 L13.2888992,9.14127731 C13.2321122,9.12426596 12.8919266,9 12.408551,9 C11.9251755,9 11.5625797,9.03837585 11.31142,9.24299622 C11.0738486,9.43654617 11.0111713,9.7625953 11,10.25 C10.999361,10.2778779 10.9999857,11.9704654 11,12 C11.0000055,12.0113742 10.6666722,12.0113742 10,12 L10,13 L11,13 L11,14 Z" transform="matrix(1 0 0 -1 0 23)"/>
  </g>
</svg>
