<svg ti:v="1" width="16" height="16" viewBox="0 0 16 16" xmlns="http://www.w3.org/2000/svg" xmlns:ti="urn:schemas-jetbrains-com:tisvg"><rect id="frame" width="16" height="16" fill="none"/><g fill-rule="evenodd"><path d="M4 12h11V1H4v11z" fill="#F4F4F4"/><path d="M14 11H5V2h9v9z" fill="#313131"/><path d="M13 3H6v7h7V3z" fill="#EBEBEB"/><path d="M9 5a1 1 0 1 1-2 0 1 1 0 0 1 2 0z" fill="#313131"/><path d="M13 10V8l-2-2-5 2v2h7z" fill="#313131"/><path d="M11 8l-5 2h7l-2-2z" fill="#EBEBEB"/><path d="M12.334 16L15 14v-1l-2.666-2H11v1H8v-1H6.666L4 13v1l2.666 2H8v-1h3v1h1.334z" fill="#F4F4F4"/><path d="M14 13.5L12 12v1H7v-1l-2 1.5L7 15v-1h5v1l2-1.5z" fill="#313131"/><path d="M5 5V3.666L3 1H2L0 3.666V5h1v3H0v1.334L2 12h1l2-2.666V8H4V5h1z" fill="#F4F4F4"/><path d="M3 4h1L2.5 2 1 4h1v5H1l1.5 2L4 9H3V4z" fill="#313131"/></g></svg>