<svg ti:v="1" width="16" height="16" viewBox="0 0 16 16" xmlns="http://www.w3.org/2000/svg" xmlns:ti="urn:schemas-jetbrains-com:tisvg"><rect id="frame" width="16" height="16" fill="none"/><linearGradient id="a" x1=".5" y1=".003" x2=".5" y2="1.003"><stop offset="0" stop-color="#7B9500"/><stop offset="1" stop-color="#466200"/></linearGradient><path fill-rule="evenodd" d="M4 12h11V1H4v11z" fill="url(#a)"/><linearGradient id="b" x1=".5" y1="0" x2=".5" y2="1"><stop offset="0" stop-color="#FFF"/><stop offset="1" stop-color="#F0FFEF"/></linearGradient><path fill-rule="evenodd" d="M14 11H5V2h9v9z" fill="url(#b)"/><linearGradient id="c" x1=".991" y1=".009" x2="-.009" y2="1.009"><stop offset="0" stop-color="#93EDFF"/><stop offset="1" stop-color="#FFF"/></linearGradient><path fill-rule="evenodd" d="M13 3H6v7h7V3z" fill="url(#c)"/><path fill-rule="evenodd" d="M9 5a1 1 0 1 1-2 0 1 1 0 0 1 2 0z" fill="#F90"/><linearGradient id="d" x1=".5" y1=".003" x2=".5" y2="1.003"><stop offset="0" stop-color="#8EAC00"/><stop offset="1" stop-color="#608700"/></linearGradient><path fill-rule="evenodd" d="M6 8v2h7V8l-2-2-5 2z" fill="url(#d)"/><linearGradient id="e" x1=".5" y1="0" x2=".5" y2="1.012"><stop offset="0" stop-color="#2FDB00"/><stop offset="1" stop-color="#83AF00"/></linearGradient><path fill-rule="evenodd" d="M6 10h7l-2-2-5 2z" fill="url(#e)"/><linearGradient id="f" x1=".5" y1=".019" x2=".5" y2="1.02"><stop offset="0" stop-color="#566980"/><stop offset="1" stop-color="#2D3642"/></linearGradient><path fill-rule="evenodd" d="M11 11v1H8v-1H6.666L4 13v1l2.666 2H8v-1h3v1h1.334L15 14v-1l-2.666-2H11z" fill="url(#f)"/><path fill-rule="evenodd" d="M14 13.5L12 12v1H7v-1l-2 1.5L7 15v-1h5v1l2-1.5z" fill="#FFF"/><linearGradient id="g" x1=".5" y1=".019" x2=".5" y2="1.02"><stop offset="0" stop-color="#566980"/><stop offset="1" stop-color="#2D3642"/></linearGradient><path fill-rule="evenodd" d="M2 1L0 3.666V5h1v3H0v1.334L2 12h1l2-2.666V8H4V5h1V3.666L3 1H2z" fill="url(#g)"/><path fill-rule="evenodd" d="M3 4h1L2.5 2 1 4h1v5H1l1.5 2L4 9H3V4z" fill="#FFF"/></svg>