<svg ti:v="1" width="16" height="16" viewBox="0 0 16 16" xmlns="http://www.w3.org/2000/svg" xmlns:ti="urn:schemas-jetbrains-com:tisvg"><rect id="frame" width="16" height="16" fill="none"/><g fill-rule="evenodd"><path d="M13.414 16c.534 0 1.036-.208 1.414-.586l.586-.586c.378-.378.586-.88.586-1.414 0-.534-.208-1.036-.586-1.414l-5-5L7 10.414l5 5c.378.378.88.586 1.414.586z" fill="#242424"/><path d="M14.707 14.121l-.586.586a.999.999 0 0 1-1.414 0l-4.293-4.293 2-2 4.293 4.293a.999.999 0 0 1 0 1.414z" fill="#C3C3C3"/><path d="M1 6.5a5.5 5.5 0 1 0 11.001-.001A5.5 5.5 0 0 0 1 6.5z" fill="#242424"/><path d="M2 6.5a4.5 4.5 0 1 0 9 0 4.5 4.5 0 0 0-9 0z" fill="#C3C3C3"/><path d="M3 6.5a3.5 3.5 0 1 0 7 0 3.5 3.5 0 0 0-7 0z" fill="#C3C3C3"/><path d="M4 6.5a2.5 2.5 0 1 0 5 0 2.5 2.5 0 0 0-5 0z" fill="#292929"/></g></svg>