<svg ti:v="1" width="16" height="16" viewBox="0 0 16 16" xmlns="http://www.w3.org/2000/svg" xmlns:ti="urn:schemas-jetbrains-com:tisvg"><rect id="frame" width="16" height="16" fill="none"/><linearGradient id="a" x1=".725" y1=".367" x2=".35" y2=".742"><stop offset="0" stop-color="#9C7733"/><stop offset="1" stop-color="#6E2121"/></linearGradient><path fill-rule="evenodd" d="M7 10.414l5 5c.378.378.88.586 1.414.586.534 0 1.036-.208 1.414-.586l.586-.586c.378-.378.586-.879.586-1.414 0-.534-.208-1.036-.586-1.414l-4.999-5L7 10.414z" fill="url(#a)"/><linearGradient id="b" x1=".683" y1=".38" x2=".38" y2=".683"><stop offset="0" stop-color="#FFDF77"/><stop offset="1" stop-color="#D88C00"/></linearGradient><path fill-rule="evenodd" d="M8.414 10.414l4.293 4.293a.999.999 0 0 0 1.414 0l.586-.586a.999.999 0 0 0 0-1.414l-4.292-4.293-2.001 2z" fill="url(#b)"/><linearGradient id="c" x1=".5" y1=".013" x2=".5" y2="1"><stop offset="0" stop-color="#3B7480"/><stop offset="1" stop-color="#2B4D6E"/></linearGradient><path fill-rule="evenodd" d="M1 6.5a5.5 5.5 0 0 0 11 0 5.5 5.5 0 0 0-11 0z" fill="url(#c)"/><linearGradient id="d" x1=".5" y1=".006" x2=".5" y2="1"><stop offset="0" stop-color="#9ED3FF"/><stop offset="1" stop-color="#5BA3CF"/></linearGradient><path fill-rule="evenodd" d="M2 6.5a4.501 4.501 0 0 0 9 0 4.5 4.5 0 1 0-9 0z" fill="url(#d)"/><linearGradient id="e" x1=".5" y1=".012" x2=".5" y2="1"><stop offset="0" stop-color="#509EE8"/><stop offset="1" stop-color="#FFF"/></linearGradient><path fill-rule="evenodd" d="M3 6.5a3.5 3.5 0 0 0 7 0 3.5 3.5 0 0 0-7 0z" fill="url(#e)"/><linearGradient id="f" x1=".5" y1=".013" x2=".5" y2=".988"><stop offset="0" stop-color="#FFF"/><stop offset=".221" stop-color="#FFF"/><stop offset="1" stop-color="#8EBAC1"/></linearGradient><path fill-rule="evenodd" d="M4 6.5a2.5 2.5 0 1 0 5 0 2.5 2.5 0 0 0-5 0z" fill="url(#f)"/></svg>