<svg xmlns="http://www.w3.org/2000/svg" width="40" height="40" viewBox="0 0 40 40"><rect id="frame" width="40" height="40" fill="none"/><g fill="none" fill-rule="evenodd"><path fill="#40B6E0" fill-opacity=".7" d="M14.36 27.282L12 25l2-1.615v-.597c1.88.244 3.899.377 6 .377 6.2 0 11.682-1.155 15-2.923v3.4c0 2.169-6.716 3.927-15 3.927-1.995 0-3.898-.102-5.64-.287zm8.725 7.63l-4.481-4.61c.46.012.926.02 1.396.02 6.2 0 11.682-1.156 15-2.924v3.474c0 1.989-5.11 3.65-11.915 4.04zM5 13.087c3.318 1.768 8.8 2.923 15 2.923 6.2 0 11.682-1.155 15-2.923v3.198c0 2.28-6.716 4.129-15 4.129-8.284 0-15-1.849-15-4.129v-3.198zm15 .17c-8.284 0-15-1.847-15-4.128C5 6.848 11.716 5 20 5c8.284 0 15 1.848 15 4.128 0 2.28-6.716 4.129-15 4.129z"/><path fill="#59A869" d="M8.412 21.377l-.002-.002 4.114-.145-.011.982-1.41.668-2.175 2.117 3.886 3.886.97.1 6.425 6.425-3.047 3.047-6.425-6.426-.104-.974-3.897-3.897-.132.717-.192.438-2.308 2.307-2.611-2.611 2.182-2.183.57-.202a.5.5 0 0 1 .126-.493l3.564-3.565.477-.19z"/></g></svg>