<svg xmlns="http://www.w3.org/2000/svg" width="40" height="40" viewBox="0 0 40 40">
  <g fill="none" fill-rule="evenodd">
    <path fill="#40B6E0" fill-opacity=".7" d="M14.3607886,27.2818438 L12,25 L14,23.3846 L14,22.7881983 C15.879943,23.0324562 17.8986868,23.1651374 20,23.1651374 C26.2005259,23.1651374 31.6821086,22.0098641 35,20.24155 C35,22.1579541 35,23.2913558 35,23.6417551 C35,25.8106066 28.2842712,27.5688082 20,27.5688082 C18.0053856,27.5688082 16.1017008,27.4668838 14.3607886,27.2818438 Z M23.0847596,34.9126103 L18.603688,30.3014421 C19.0645797,30.3144691 19.5302264,30.3211004 20,30.3211004 C26.2005259,30.3211004 31.6821086,29.1658272 35,27.397513 L35,30.8715596 C35,32.8606139 29.889207,34.5211298 23.0847596,34.9126103 Z M5,13.0855869 C8.31789136,14.853901 13.7994741,16.0091743 20,16.0091743 C26.2005259,16.0091743 31.6821086,14.853901 35,13.0855869 C35,14.8732778 35,15.9395501 35,16.2844038 C35,18.5644784 28.2842712,20.4128441 20,20.4128441 C11.7157288,20.4128441 5,18.5644784 5,16.2844038 C5,15.9863268 5,14.9200545 5,13.0855869 Z M20,13.2568808 C11.7157288,13.2568808 5,11.408515 5,9.12844038 C5,6.84836572 11.7157288,5 20,5 C28.2842712,5 35,6.84836572 35,9.12844038 C35,11.408515 28.2842712,13.2568808 20,13.2568808 Z"/>
    <path fill="#59A869" d="M15.7595385,21.0554405 L15.7586971,21.0523094 L18.7711114,23.8589485 L18.0684973,24.5451221 L16.5996973,24.0208545 L13.564253,23.9804204 L13.564253,29.4749891 L14.1798481,30.2327349 L14.1798481,39.3181427 L9.87068242,39.3181427 L9.87068242,30.2315268 L10.4862775,29.4694623 L10.4862775,23.9579255 L9.88567402,24.3718505 L9.44062252,24.5451221 L6.17711187,24.5451221 L6.17711187,20.851867 L9.26342852,20.851867 L9.80908935,21.1113805 C9.89410667,20.9566994 10.0585926,20.851867 10.2475635,20.851867 L15.2879193,20.851867 L15.7595385,21.0554405 Z" transform="rotate(-45 12.474 30.085)"/>
  </g>
</svg>
