<svg width="32" height="32" viewBox="0 0 32 32" fill="none" xmlns="http://www.w3.org/2000/svg">
<path d="M30 2H2V30H30V2Z" fill="url(#paint0_linear)"/>
<path d="M26 6H6V26H26V6Z" fill="url(#paint1_linear)"/>
<path d="M16 23H8V24H16V23Z" fill="white"/>
<path d="M8 8.11597H11.136C12.928 8.11597 14.048 9.27539 14.048 10.7826C14.048 12.6377 12.704 13.5652 11.024 13.5652H9.79199V15.8841H8V8.11597ZM11.024 12.1739C11.808 12.1739 12.368 11.5942 12.368 10.8986C12.368 10.087 11.808 9.73916 11.024 9.73916H9.79199V12.1739H11.024Z" fill="white"/>
<path d="M14.9441 12.058C14.9441 9.85507 16.5121 8 18.864 8C20.32 8 21.104 8.46377 21.888 9.15942L20.88 10.4348C20.32 9.85507 19.76 9.50725 18.976 9.50725C17.744 9.50725 16.7361 10.5507 16.7361 11.942C16.7361 13.3333 17.632 14.3768 18.976 14.3768C19.872 14.3768 20.32 14.029 20.992 13.4493L22 14.6087C21.104 15.5362 20.208 16 18.752 16C16.5121 16 14.9441 14.2609 14.9441 12.058Z" fill="white"/>
<defs>
<linearGradient id="paint0_linear" x1="29.5929" y1="29.6101" x2="-5.27915" y2="-5.26211" gradientUnits="userSpaceOnUse">
<stop offset="0.482" stop-color="#FCF84A"/>
<stop offset="0.7258" stop-color="#21D789"/>
</linearGradient>
<linearGradient id="paint1_linear" x1="15.9733" y1="1.139" x2="15.9733" y2="19.075" gradientUnits="userSpaceOnUse">
<stop offset="0.0842986" stop-color="#878585"/>
<stop offset="0.5377"/>
</linearGradient>
</defs>
</svg>
