<svg width="64" height="64" viewBox="0 0 64 64" fill="none" xmlns="http://www.w3.org/2000/svg">
<path d="M58 6H6V58H58V6Z" fill="url(#paint0_linear)"/>
<path d="M51 13H13V51H51V13Z" fill="url(#paint1_linear)"/>
<path d="M32.1444 44H18V46.3222H32.1444V44Z" fill="white"/>
<path d="M17.6445 17.6444H23.45C26.8278 17.6444 28.9389 19.65 28.9389 22.6055C28.9389 25.8777 26.4056 27.5666 23.1333 27.5666H20.7056V31.7889H17.5389V17.6444H17.6445ZM23.2389 24.9277C24.8222 24.9277 25.6667 23.8722 25.6667 22.7111C25.6667 21.3389 24.7167 20.6 23.1333 20.6H20.7056V24.9277H23.2389Z" fill="white"/>
<path d="M30.7333 24.8221C30.7333 20.811 33.6888 17.4332 38.1222 17.4332C40.8666 17.4332 42.3444 18.2777 43.8222 19.5443L41.9222 21.8666C40.8666 20.811 39.8111 20.1777 38.3333 20.1777C36.0111 20.1777 34.1111 22.0777 34.1111 24.611C34.1111 27.1443 35.8 29.0443 38.3333 29.0443C40.0222 29.0443 40.8666 28.411 42.1333 27.3555L44.0333 29.4666C42.3444 31.1555 40.6555 31.9999 37.9111 31.9999C33.6888 31.9999 30.7333 28.8332 30.7333 24.8221Z" fill="white"/>
<defs>
<linearGradient id="paint0_linear" x1="57.244" y1="57.2758" x2="-7.51843" y2="-7.48678" gradientUnits="userSpaceOnUse">
<stop offset="0.482" stop-color="#FCF84A"/>
<stop offset="0.7258" stop-color="#21D789"/>
</linearGradient>
<linearGradient id="paint1_linear" x1="31.9493" y1="3.7641" x2="31.9493" y2="37.8425" gradientUnits="userSpaceOnUse">
<stop offset="0.0842986" stop-color="#878585"/>
<stop offset="0.5377"/>
</linearGradient>
</defs>
    <path fill-rule="evenodd" clip-rule="evenodd" d="M28 64H64V44H28V64Z" fill="#D99E2B"/>
    <path fill-rule="evenodd" clip-rule="evenodd" d="M32 60H39.5V58.101H33.8V54.9H38.8V53H33.8V49.9H39.4V48H32V60Z" fill="black"/>
    <path fill-rule="evenodd" clip-rule="evenodd" d="M44.7998 55.3L46.5998 50.5L48.4998 55.3H44.7998ZM41 60H42.9L44 57.101H49.1L50.199 60H52.199L47.5 48H45.699L41 60Z" fill="black"/>
    <path fill-rule="evenodd" clip-rule="evenodd" d="M54.814 54.2004V49.9004H56.599C57.969 49.9004 58.599 50.6004 58.7 51.7004V52.1004C58.7 53.2884 58.045 54.2004 56.9 54.2004H54.814ZM54.814 60V56.1H56.5C58.791 56.142 60.511 54.348 60.511 52.304V51.804C60.511 49.585 58.935 48 56.88 48H53V60H54.814Z" fill="black"/>
</svg>