<svg xmlns="http://www.w3.org/2000/svg" xmlns:xlink="http://www.w3.org/1999/xlink" width="16" height="16" viewBox="0 0 16 16"><rect id="frame" width="16" height="16" fill="none"/><defs><linearGradient id="b" x1="65.347%" x2="27.427%" y1="100%" y2="57.698%"><stop offset="0%" stop-color="#2773E7"/><stop offset="100%" stop-color="#FC801D"/></linearGradient><path id="a" d="M0 13l4.098-.716L6.5 6.433 0 5z"/><linearGradient id="c" x1="56.154%" x2="27.304%" y1="30.518%" y2="106.868%"><stop offset="0%" stop-color="#FE2857"/><stop offset="100%" stop-color="#9039D0"/></linearGradient><linearGradient id="d" x1="50%" x2="50%" y1="0%" y2="75.199%"><stop offset="0%" stop-color="#2773E7"/><stop offset="100%" stop-color="#9039D0"/></linearGradient><linearGradient id="f" x1="50%" x2="50%" y1="-11.618%" y2="60.589%"><stop offset="0%" stop-color="#A6A5A5"/><stop offset="0%" stop-color="#989898" stop-opacity=".568"/><stop offset="100%"/></linearGradient><path id="e" d="M0 10h10V0H0z"/></defs><g fill="none" fill-rule="evenodd"><g transform="translate(1 1)"><use fill="#F97A12" xlink:href="#a"/><use fill="url(#b)" xlink:href="#a"/><path fill="#2773E7" d="M2.5 14H14V0H6.21z"/><path fill="url(#c)" d="M0 0v5.25l2.597 1.625L0 12.125V14h3.091L11.5 6 6.306 0z"/><path fill="url(#d)" d="M10.5 7L14 3.559V0H7z"/><g transform="translate(2 2)"><use fill="#000" xlink:href="#e"/><use fill="url(#f)" xlink:href="#e"/><path fill="#FFF" d="M1 8.5h4V8H1z"/><path fill="#FFF" d="M3.504 4.834l.61-.684c.25.279.495.444.803.444.365 0 .59-.222.59-.736V1H6.5v2.903c0 .526-.15.919-.414 1.185-.27.272-.666.412-1.144.412a1.79 1.79 0 0 1-1.438-.666"/><path fill="#FFF" d="M1 1v1h.5v2.5H1v1h2v-1h-.5V2H3V1z"/></g></g><path fill="#D99E2B" d="M7 16h9v-5H7z"/><path fill="#000" d="M8 15h1.875v-.475H8.45v-.8H9.7v-.475H8.45v-.775h1.4V12H8z"/><path fill="#000" d="M11.05 13.825l.45-1.2.475 1.2h-.925zM10.1 15h.475l.275-.725h1.275L12.4 15h.5l-1.175-3h-.45L10.1 15zm3.354-1.45v-1.075h.446c.342 0 .5.175.525.45v.1c0 .297-.164.525-.45.525h-.521zm0 1.45v-.975h.421a.967.967 0 0 0 1.003-.949v-.125c0-.555-.394-.951-.908-.951H13v3h.454z"/></g></svg>