<svg xmlns="http://www.w3.org/2000/svg" xmlns:xlink="http://www.w3.org/1999/xlink" width="16" height="16" viewBox="0 0 16 16"><rect id="frame" width="16" height="16" fill="none"/><defs><linearGradient id="b" x1="50%" x2="50%" y1="-11.618%" y2="60.589%"><stop offset="0%" stop-color="#A6A5A5"/><stop offset="0%" stop-color="#989898" stop-opacity=".568"/><stop offset="100%"/></linearGradient><path id="a" d="M0 14h14V0H0z"/></defs><g fill="none" fill-rule="evenodd"><path fill="#087CFA" d="M0 16h16V0H0z"/><g transform="translate(1 1)"><use fill="#000" xlink:href="#a"/><use fill="url(#b)" xlink:href="#a"/><path fill="#FFF" d="M4.165 3.217v3.565h.665V8H2.17V6.782h.665V3.217H2.17V2h2.66v1.217z"/><path fill="#FFF" d="M5.777 7.226l.838-.933c.346.38.683.605 1.105.605.5 0 .812-.303.812-1.002V2h1.365v3.956c0 .717-.207 1.252-.57 1.616-.371.37-.915.56-1.572.56-.941 0-1.563-.414-1.978-.906"/><path fill="#FFF" d="M2 12h6v-1H2z"/></g></g></svg>