<svg xmlns="http://www.w3.org/2000/svg" xmlns:xlink="http://www.w3.org/1999/xlink" width="16" height="16" viewBox="0 0 16 16"><rect id="frame" width="16" height="16" fill="none"/><defs><linearGradient id="b" x1="50%" x2="50%" y1="-11.618%" y2="60.589%"><stop offset="0%" stop-color="#A6A5A5"/><stop offset="0%" stop-color="#989898" stop-opacity=".568"/><stop offset="100%"/></linearGradient><path id="a" d="M0 14h14V0H0z"/></defs><g fill="none" fill-rule="evenodd"><path fill="#087CFA" d="M0 16h16V0H0z"/><g transform="translate(1 1)"><use fill="#000" xlink:href="#a"/><use fill="url(#b)" xlink:href="#a"/><path fill="#FFF" d="M4.165 3.014v2.971h.665V7H2.17V5.985h.665V3.014H2.17V2h2.66v1.014z"/><path fill="#FFF" d="M5.777 6.26l.838-.76c.346.31.683.493 1.105.493.5 0 .812-.247.812-.817V2h1.365v3.225c0 .584-.207 1.02-.57 1.317-.371.303-.915.458-1.572.458-.941 0-1.563-.339-1.978-.74"/><path fill="#FFF" d="M2 12h6v-1H2z"/></g><path fill="#D99E2B" d="M3 16h13V9H3z"/><path fill="#000" d="M4 10h3v.8H4.8V12h1.7v.8H4.8v1.4h2.198v.8H4z"/><path fill="#000" d="M14.2 11.709c0 .495-.187.875-.645.875H12.8v-1.793h.636c.547 0 .724.293.764.75v.168zM11.997 10v5h.803v-1.625h.595A1.578 1.578 0 0 0 15 11.792v-.207C15 10.66 14.37 10 13.547 10h-1.55zm-3.196 3l.72-1.959L10.28 13H8.8zm1.079-3h-.72l-1.88 5h.76l.44-1.2h2.039l.44 1.2h.799L9.88 10z"/><path fill="#FFF" d="M5.165 4.014v2.971h.665V8H3.17V6.985h.665V4.014H3.17V3h2.66v1.014z"/><path fill="#FFF" d="M7.615 6.5c.346.31.683.493 1.105.493.5 0 .812-.247.812-.817V3h1.365v3.225c0 .584-.207 1.02-.57 1.317-.371.303-.915.458-1.572.458-.941 0-1.563-.339-1.978-.74l.838-.76z"/></g></svg>