<svg xmlns="http://www.w3.org/2000/svg" width="16" height="16">
  <g fill="#f4af3d">
    <path d="M11 12H9.914l.086.086v.828L9.914 13H10l2 2 3-3-2-2zm1 1.586L11.414 13 13 11.414l.586.586zM3.086 9H4.164L2.414 7.25 7.25 2.414 9.586 4.75 5.336 9H6.75l1-1H8v2.086l1 1V8h1l2 2 3-3L13 5 11 7H8.75L11 4.75 7.25 1 1 7.25 2.918 9.168zM13 6.414L13.586 7 12 8.586 11.414 8z" opacity=".7"/>
  </g>
  <path fill="#62b543" opacity=".7" d="M6.5 10L6 10 6 11 7 12 5 12 5 13 7 13 6 14 6 15 6.5 15 9 12.5 6.5 10z"/>
  <path fill="#f26522" opacity=".7" d="M5 12L3 12 4 11 4 10 3.5 10 1 12.5 3.5 15 4 15 4 14 3 13 5 13 5 12z"/>
</svg>
