<svg xmlns="http://www.w3.org/2000/svg" width="16" height="16">
  <g opacity=".7" fill="#f4af3d">
    <path d="M3.086 9L6.75 9 7.75 8 8 8 8 10.086 9 11.086 9 8 10 8 12 10 15 7 13 5 11 7 8.75 7 11 4.75 7.25 1 1 7.25 2.918 9.168 3.086 9zM11 12L9.914 12 10 12.086 10 12.914 9.914 13 10 13 12 15 15 12 13 10 11 12z"/>
  </g>
  <path fill="#62b543" opacity=".7" d="M6.5 10L6 10 6 11 7 12 5 12 5 13 7 13 6 14 6 15 6.5 15 9 12.5 6.5 10z"/>
  <path fill="#f26522" opacity=".7" d="M5 12L3 12 4 11 4 10 3.5 10 1 12.5 3.5 15 4 15 4 14 3 13 5 13 5 12z"/>
</svg>
