<svg ti:v="1" width="16" height="16" viewBox="0 0 16 16" xmlns="http://www.w3.org/2000/svg" xmlns:ti="urn:schemas-jetbrains-com:tisvg"><rect id="frame" width="16" height="16" fill="none"/><path fill-rule="evenodd" d="M16 16H0v-3h16v3z" fill="#5576BA"/><path fill-rule="evenodd" d="M15 15H1v-1h14v1z" fill="#FFF"/><linearGradient id="a" x1=".5" y1=".022" x2=".5" y2=".992"><stop offset="0" stop-color="#91B6FF"/><stop offset="1" stop-color="#4F70B5"/></linearGradient><path fill-rule="evenodd" d="M3.174 5.216C1.321 5.788 0 7.514 0 9.5 0 11.981 2.018 14 4.5 14H12c2.206 0 4-1.794 4-4a3.978 3.978 0 0 0-2-3.451V6.5C14 3.468 11.532 1 8.5 1a5.466 5.466 0 0 0-5.326 4.216z" fill="url(#a)"/><linearGradient id="b" x1=".5" y1=".008" x2=".5" y2="1"><stop offset="0" stop-color="#FFF"/><stop offset="1" stop-color="#C2DAFF"/></linearGradient><path fill-rule="evenodd" d="M4.291 5.012c1.661.155 2.448 1.274 2.645 1.985A3.462 3.462 0 0 0 4.5 6c-.154 0-.304.01-.451.03l-.003.016C2.331 6.271 1 7.723 1 9.5A3.5 3.5 0 0 0 4.5 13H12a3 3 0 0 0 3-3 2.97 2.97 0 0 0-1.254-2.424c-.293.705-1.028 1.518-1.758 1.756C12.672 8.734 13 7.656 13 6.5A4.5 4.5 0 0 0 8.5 2C6.541 2 4.904 3.264 4.291 5.012z" fill="url(#b)"/><path fill-rule="evenodd" d="M5 11v1h.5L8 9.5 5.5 7H5v1l1.5 1.5M11 9v1h-.5L8 7.5 10.5 5h.5v1L9.5 7.5 11 9z" fill="#003987"/></svg>