<svg ti:v="1" width="16" height="16" viewBox="0 0 16 16" xmlns="http://www.w3.org/2000/svg" xmlns:ti="urn:schemas-jetbrains-com:tisvg"><rect id="frame" width="16" height="16" fill="none"/><g fill-rule="evenodd"><path d="M16 16H0v-3h16v3z" fill="#F4F4F4"/><path d="M1 15h14v-1H1v1z" fill="#313131"/><path d="M4.5 14A4.505 4.505 0 0 1 0 9.5c0-1.986 1.32-3.712 3.174-4.284A5.466 5.466 0 0 1 8.5 1C11.532 1 14 3.468 14 6.5v.049c1.222.703 2 2.006 2 3.451 0 2.206-1.794 4-4 4H4.5z" fill="#F4F4F4"/><path d="M13.746 7.576c-.293.705-1.027 1.518-1.758 1.756C12.672 8.734 13 7.656 13 6.5A4.5 4.5 0 0 0 8.5 2C6.541 2 4.903 3.263 4.291 5.012c1.661.155 2.447 1.274 2.644 1.985A3.46 3.46 0 0 0 4.5 6c-.153 0-.304.01-.454.046A3.488 3.488 0 0 0 1 9.5 3.5 3.5 0 0 0 4.5 13H12a3 3 0 0 0 3-3 2.969 2.969 0 0 0-1.254-2.424z" fill="#313131"/><path d="M5 11v1h.5L8 9.5 5.5 7H5v1l1.5 1.5M11 9v1h-.5L8 7.5 10.5 5h.5v1L9.5 7.5 11 9z" fill="#EBEBEB"/></g></svg>