<svg ti:v="1" width="16" height="16" viewBox="0 0 16 16" xmlns="http://www.w3.org/2000/svg" xmlns:ti="urn:schemas-jetbrains-com:tisvg"><rect id="frame" width="16" height="16" fill="none"/><linearGradient id="a" x1=".5" y1=".007" x2=".5" y2="1.014"><stop offset="0" stop-color="#37AD0D"/><stop offset="1" stop-color="#006F33"/></linearGradient><path fill-rule="evenodd" d="M3.174 5.215C1.321 5.788 0 7.514 0 9.5 0 11.982 2.018 14 4.5 14H12c2.206 0 4-1.794 4-4a3.977 3.977 0 0 0-2-3.451V6.5C14 3.468 11.532 1 8.5 1a5.465 5.465 0 0 0-5.326 4.215z" fill="url(#a)"/><linearGradient id="b" x1=".5" y1="-.015" x2=".5" y2="1.008"><stop offset="0" stop-color="#ADFF8F"/><stop offset="1" stop-color="#2EDE7E"/></linearGradient><path fill-rule="evenodd" d="M4.291 5.012c1.661.155 2.448 1.274 2.645 1.985A3.462 3.462 0 0 0 4.5 6c-.154 0-.304.01-.451.029l-.003.017A3.49 3.49 0 0 0 1 9.5 3.5 3.5 0 0 0 4.5 13H12a3 3 0 0 0 3-3 2.97 2.97 0 0 0-1.254-2.424c-.293.706-1.028 1.518-1.758 1.756C12.672 8.734 13 7.656 13 6.5 13 4.015 10.984 2 8.5 2 6.541 2 4.904 3.263 4.291 5.012z" fill="url(#b)"/><linearGradient id="c" x1=".5" y1=".007" x2=".5" y2="1.014"><stop offset="0" stop-color="#00441F"/><stop offset="1" stop-color="#277909"/></linearGradient><path fill-rule="evenodd" d="M9.5 5L7.25 9.5 6.5 8H5l1.5 3H8l3-6H9.5z" fill="url(#c)"/></svg>