<svg ti:v="1" width="16" height="16" viewBox="0 0 16 16" xmlns="http://www.w3.org/2000/svg" xmlns:ti="urn:schemas-jetbrains-com:tisvg"><rect id="frame" width="16" height="16" fill="none"/><linearGradient id="a" x1=".5" y1=".002" x2=".5" y2=".996"><stop offset="0" stop-color="#566980"/><stop offset="1" stop-color="#2D3642"/></linearGradient><path fill-rule="evenodd" d="M3.174 5.216C1.321 5.788 0 7.514 0 9.5 0 11.982 2.018 14 4.5 14H12c2.206 0 4-1.793 4-4a3.977 3.977 0 0 0-2-3.451V6.5C14 3.468 11.532 1 8.5 1a5.465 5.465 0 0 0-5.326 4.216z" fill="url(#a)"/><linearGradient id="b" x1=".5" y1="0" x2=".5" y2=".996"><stop offset="0" stop-color="#DFEFFF"/><stop offset="1" stop-color="#A5B1BC"/></linearGradient><path fill-rule="evenodd" d="M4.291 5.012c1.661.155 2.448 1.274 2.645 1.985A3.462 3.462 0 0 0 4.5 6c-.154 0-.304.01-.451.029l-.003.017A3.49 3.49 0 0 0 1 9.5 3.5 3.5 0 0 0 4.5 13H12a3 3 0 0 0 3-3 2.97 2.97 0 0 0-1.254-2.424c-.293.706-1.027 1.517-1.758 1.756C12.672 8.734 13 7.656 13 6.5 13 4.015 10.984 2 8.5 2 6.541 2 4.904 3.264 4.291 5.012z" fill="url(#b)"/><linearGradient id="c" x1=".5" y1=".002" x2=".5" y2=".996"><stop offset="0" stop-color="#566980"/><stop offset="1" stop-color="#2D3642"/></linearGradient><path fill-rule="evenodd" d="M8 7L6 5 5 6l2.001 2-2 1.999L6 11l2-2 2 2 1-1.001L9 8l2-2-1-1-2 2z" fill="url(#c)"/></svg>