<svg ti:v="1" width="16" height="16" viewBox="0 0 16 16" xmlns="http://www.w3.org/2000/svg" xmlns:ti="urn:schemas-jetbrains-com:tisvg"><rect id="frame" width="16" height="16" fill="none"/><linearGradient id="a" x1=".5" y1=".008" x2=".5" y2="1.004"><stop offset="0" stop-color="#966B00"/><stop offset="1" stop-color="#7C4200"/></linearGradient><path fill-rule="evenodd" d="M3.174 5.216C1.321 5.788 0 7.513 0 9.5 0 11.982 2.018 14 4.5 14H12c2.206 0 4-1.794 4-4a3.981 3.981 0 0 0-2-3.452V6.5C14 3.468 11.532 1 8.5 1a5.466 5.466 0 0 0-5.326 4.216z" fill="url(#a)"/><linearGradient id="b" x1=".5" y1=".01" x2=".5" y2="1.002"><stop offset="0" stop-color="#FFE100"/><stop offset="1" stop-color="#FFB11E"/></linearGradient><path fill-rule="evenodd" d="M4.291 5.011c1.661.156 2.448 1.275 2.645 1.986A3.462 3.462 0 0 0 4.5 6a3.34 3.34 0 0 0-.451.029l-.003.017A3.49 3.49 0 0 0 1 9.5 3.5 3.5 0 0 0 4.5 13H12a3 3 0 0 0 3-3 2.969 2.969 0 0 0-1.254-2.424c-.293.705-1.028 1.518-1.758 1.756C12.672 8.735 13 7.656 13 6.5 13 4.015 10.984 2 8.5 2 6.541 2 4.904 3.264 4.291 5.011z" fill="url(#b)"/><path fill-rule="evenodd" d="M9 10H7v2h2m-.299-3H7.299L7 5V4h2v1l-.299 4z" fill="#313131"/></svg>