<svg xmlns="http://www.w3.org/2000/svg" width="16" height="16" viewBox="0 0 16 16"><rect id="frame" width="16" height="16" fill="none"/><g fill="#AFB1B3" fill-rule="evenodd"><path d="M7 1L3 5h4z"/><path d="M6.833 13H3V6h5V1h4v5.695A4.4 4.4 0 0 0 6.833 13z"/><path d="M13.073 11.378l.77.538a3.278 3.278 0 0 1-.707 1.193l-.863-.38a2.513 2.513 0 0 1-.851.48l-.094.919a3.482 3.482 0 0 1-1.413 0l-.094-.919a2.513 2.513 0 0 1-.852-.48l-.863.38a3.278 3.278 0 0 1-.706-1.193l.77-.538a2.39 2.39 0 0 1 0-.956l-.77-.538c.148-.447.391-.852.706-1.193l.863.38c.246-.211.535-.376.852-.48l.094-.919a3.482 3.482 0 0 1 1.413 0l.094.919c.317.104.605.269.85.48l.864-.38c.315.341.558.746.706 1.193l-.77.538a2.39 2.39 0 0 1 0 .956zm-2.452.69c.662 0 1.198-.523 1.198-1.168 0-.645-.536-1.168-1.198-1.168-.661 0-1.198.523-1.198 1.168 0 .645.537 1.168 1.198 1.168z"/></g></svg>