<svg width="16" height="16" viewBox="0 0 16 16" fill="none" xmlns="http://www.w3.org/2000/svg"><rect id="frame" width="16" height="16" fill="none"/><path d="M10.174 5c1.179 0 2.417-.98 2.125-2.264-.167-.735-.862-1.343-1.702-1.49-1.174-.203-2.59.564-2.59 1.86 0-1.296-1.416-2.063-2.59-1.86-.84.147-1.534.755-1.701 1.49C3.423 4.02 4.662 5 5.84 5h4.333zm-3.25-.947H5.84c-.836 0-1.492-.983-.766-1.618.604-.528 1.849-.246 1.849.67v.948zm2.167-.948c0-.916 1.245-1.198 1.849-.67.726.635.07 1.618-.766 1.618H9.09v-.948z" fill="#3592C4"/><path d="M8.5 5h6v2h-6V5z" fill="#3592C4"/><path d="M1.5 5h6v2h-6V5z" fill="#3592C4"/><path fill="#3592C4" d="M3 8h4.5v6H3z"/><path fill="#3592C4" d="M8.5 8H13v6H8.5z"/></svg>