<svg xmlns="http://www.w3.org/2000/svg" width="16" height="16" viewBox="0 0 16 16"><rect id="frame" width="16" height="16" fill="none"/><g fill="#AFB1B3" fill-rule="evenodd"><path d="M12 9v.9c0 .834-.365 1.583-.943 2.096 1.887.537 2.343 1.538 2.343 2.004H2.6c0-.5.526-1.617 2.783-2.115A3.693 3.693 0 0 1 4 9V7.127c0-.035 0-.071.002-.107L4 6.837V6H2V4.8h2V3.436c0-.847.088-1.154.254-1.464.165-.31.408-.553.718-.718.31-.166.617-.254 1.464-.254h3.128c.847 0 1.154.088 1.464.254.31.165.553.408.718.718.166.31.254.617.254 1.464V4.8h2V6h-2v.837c0 .064 0 .125-.002.183l.002.107V7.6h-.8V6H4.8v2.85a3.05 3.05 0 0 0 3.05 3.05h1.2a2.15 2.15 0 0 0 2.15-2.15V9h.8z"/><circle cx="9.1" cy="7.7" r=".7"/><path d="M8.942 9.937l.516-.474c.365.397.771.587 1.237.587.292 0 .559-.074.808-.224l.36.6a2.23 2.23 0 0 1-1.168.324c-.668 0-1.259-.276-1.753-.813z"/><path d="M4 6h4L4.765 9.98 4 9z"/><path d="M11.2 8.985l.8-.235-.797-.95H11.2v-.2h.8l.75 1v.6l-.847.3H11.2v-.515z"/></g></svg>