<svg xmlns="http://www.w3.org/2000/svg" width="16" height="16" viewBox="0 0 16 16"><rect id="frame" width="16" height="16" fill="none"/><path fill="#AFB1B3" fill-rule="evenodd" d="M5.383 11.885A3.693 3.693 0 0 1 4 9v-.018h-.3a.5.5 0 0 1-.5-.5V7.59a.5.5 0 0 1 .5-.5h.303A10.017 10.017 0 0 1 4 6.837V6H2V4.8h2V3.436c0-.847.088-1.154.254-1.464.165-.31.408-.553.718-.718.31-.166.617-.254 1.464-.254h3.128c.847 0 1.154.088 1.464.254.31.165.553.408.718.718.166.31.254.617.254 1.464V4.8h2V6h-2v.837c0 .09-.001.175-.003.254h.303a.5.5 0 0 1 .5.5v.89a.5.5 0 0 1-.5.5H12V9c0 1.166-.54 2.207-1.383 2.885C12.874 12.383 13.4 13.5 13.4 14H2.6c0-.5.526-1.617 2.783-2.115z"/></svg>