<svg xmlns="http://www.w3.org/2000/svg" width="16" height="16" viewBox="0 0 16 16">
  <g fill="none" fill-rule="evenodd">
    <path fill="#9AA7B0" fill-opacity=".8" d="M7.9846,4 L6.6966,2.711 C6.3046,2.32 5.5326,2 4.9786,2 L1.0506,2 C1.0226,2 1.0006,2.023 1.0006,2.051 L1.0006,13 L8.0006,13 L8.0006,7 L15.0006,7 L15.0006,4 L7.9846,4 Z"/>
    <path fill="#B99BF8" d="M12.5656,11.9658 C13.5996,11.9658 14.2586,11.4408 14.2586,10.6288 L14.2586,10.6058 C14.2586,9.7478 13.6236,9.2798 12.5526,9.2798 L10.4476,9.2798 L10.4476,11.9658 L12.5656,11.9658 Z M9.0006,7.9998 L12.6696,7.9998 C13.7066,7.9998 14.5166,8.2968 15.0466,8.7998 C15.4816,9.2348 15.7286,9.8278 15.7286,10.5258 L15.7286,10.5488 C15.7286,11.8618 14.9176,12.6518 13.7766,12.9708 L16.0006,15.9998 L14.2826,15.9998 L12.2586,13.2108 L10.4476,13.2108 L10.4476,15.9998 L9.0006,15.9998 L9.0006,7.9998 Z"/>
  </g>
</svg>
