<svg xmlns="http://www.w3.org/2000/svg" width="16" height="16" viewBox="0 0 16 16">
  <g fill="none" fill-rule="evenodd">
    <path fill="#F4AF3D" fill-opacity=".7" d="M9.53512878,6 L2,6 L2,2 L14,2 L14,4.12601749 C13.6803801,4.043753 13.3452996,4 13,4 C11.5194353,4 10.2267476,4.80439726 9.53512878,6 Z M9.53512878,10 L2,10 L2,7 L9.12601749,7 C9.043753,7.31961992 9,7.65470043 9,8 C9,8.72857429 9.19478857,9.41165327 9.53512878,10 Z M10,11.0001 L10,12 L9,12 L9,14.0001 L2,14.0001 L2,11.0001 L10,11.0001 Z"/>
    <path fill="#9AA7B0" d="M14,13 L16,13 L16,15 L14,15 L14,16 L12,16 L12,10.8292943 C10.8348076,10.4174579 10,9.30621883 10,8 C10,6.34314575 11.3431458,5 13,5 C14.6568542,5 16,6.34314575 16,8 C16,9.30621883 15.1651924,10.4174579 14,10.8292943 L14,13 Z M13,9 C13.5522847,9 14,8.55228475 14,8 C14,7.44771525 13.5522847,7 13,7 C12.4477153,7 12,7.44771525 12,8 C12,8.55228475 12.4477153,9 13,9 Z" transform="matrix(-1 0 0 1 26 0)"/>
  </g>
</svg>
