<svg xmlns="http://www.w3.org/2000/svg" width="16" height="16" viewBox="0 0 16 16">
  <g fill="none" fill-opacity=".6" fill-rule="evenodd">
    <path fill="#40B6E0" d="M11,1.6826 C10.09,1.2496 9.075,0.9996 8,0.9996 C6.925,0.9996 5.91,1.2496 5,1.6826 L5,14.3176 C5.91,14.7496 6.925,14.9996 8,14.9996 C9.075,14.9996 10.09,14.7496 11,14.3176 L11,1.6826 Z"/>
    <path fill="#62B543" d="M4 2.2598C2.188 3.5258 1 5.6228 1 7.9998 1 10.3768 2.188 12.4748 4 13.7398L4 2.2598zM12 2.2598L12 13.7398C13.812 12.4748 15 10.3768 15 7.9998 15 5.6228 13.812 3.5258 12 2.2598"/>
  </g>
</svg>
