<svg width="80" height="80" viewBox="0 0 80 80" fill="none" xmlns="http://www.w3.org/2000/svg">
<path d="M75 5H5V75H75V5Z" fill="url(#paint0_linear)"/>
<path d="M65 15H15V65H65V15Z" fill="url(#paint1_linear)"/>
<path d="M39.9 55.5H21.2V58.6H39.9V55.5Z" fill="white"/>
<path d="M20.8929 21.2499H28.3929C32.8572 21.2499 35.5357 23.9285 35.5357 27.6785C35.5357 31.9642 32.1429 34.2857 28.0357 34.2857H25V39.8214H20.8929V21.2499ZM28.2143 30.7142C30.1786 30.7142 31.4286 29.4642 31.4286 27.8571C31.4286 26.0714 30.1786 24.9999 28.0357 24.9999H24.8215V30.7142H28.2143Z" fill="white"/>
<path d="M52.5104 21.25V24.8977H42.5622V28.7112H51.4327V32.3588H42.5622V36.1723H52.7591V39.82H38.5V21.25H52.5104Z" fill="white"/>
<defs>
<linearGradient id="paint0_linear" x1="74.1192" y1="74.1195" x2="-13.1815" y2="-13.1799" gradientUnits="userSpaceOnUse">
<stop offset="0.482" stop-color="#21D789"/>
<stop offset="0.7258" stop-color="#FCF84A"/>
</linearGradient>
<linearGradient id="paint1_linear" x1="39.9989" y1="2.84554" x2="39.9989" y2="47.6855" gradientUnits="userSpaceOnUse">
<stop offset="0.0842986" stop-color="#878585"/>
<stop offset="0.5377"/>
</linearGradient>
</defs>
</svg>
