<svg ti:v="1" width="16" height="16" viewBox="0 0 16 16" xmlns="http://www.w3.org/2000/svg" xmlns:ti="urn:schemas-jetbrains-com:tisvg"><rect id="frame" width="16" height="16" fill="none"/><g fill-rule="evenodd"><path d="M6 2h-.414L0 7.586v.828L5.586 14H6m4-12h.414L16 7.586v.828L10.414 14H10V2z" fill="#242424"/><path d="M11 4v2l2 2-2 2v2l4-4M5 12L1 8l4-4v2L3 8l2 2v2z" fill="#C3C3C3"/><path d="M10 8c-.06 0-.116.014-.175.018l2.553-5.182L10.237 2H9.123l-.646 1.311A3 3 0 0 0 6 2C4.346 2 3 3.346 3 5s1.346 3 3 3c.06 0 .116-.014.175-.018l-2.553 5.182L5.763 14h1.114l.646-1.311A3 3 0 0 0 10 14c1.654 0 3-1.346 3-3s-1.346-3-3-3z" fill="#242424"/><path d="M9.745 3h.304l.951.372L6.255 13h-.304l-.95-.372M6 6a1 1 0 1 1 0-2 1 1 0 0 1 0 2zm0-3a2 2 0 1 0-.002 3.999A2 2 0 0 0 6 3zm4 9a1 1 0 1 1 0-2 1 1 0 0 1 0 2zm0-3a2 2 0 1 0-.002 3.999A2 2 0 0 0 10 9z" fill="#C3C3C3"/></g></svg>