<svg xmlns="http://www.w3.org/2000/svg" width="16" height="16" viewBox="0 0 16 16"><rect id="frame" width="16" height="16" fill="none"/><g fill="none" fill-rule="evenodd"><path fill="#751E21" d="M3.714 4.91l.006.007h.001c.628.607 1.284.962 2.032 1.677-1.746-1.393-5.415-2.2-4.508-4.29.097-.2.243-.398.414-.57.17-.17.37-.316.568-.413 2.09-.909 2.898 2.761 4.291 4.507-.715-.748-1.07-1.403-1.676-2.031l-.001-.001-.006-.006-.009-.008a.78.78 0 0 0-1.102 0l-.01.008-.008.01a.78.78 0 0 0 0 1.102l.008.009"/><path fill="#1D5895" d="M3.714 11.19l.006-.005.001-.001c.628-.607 1.284-.962 2.032-1.677-1.746 1.393-5.415 2.201-4.508 4.29.097.2.243.398.414.57.17.17.37.316.568.413 2.09.909 2.898-2.76 4.291-4.507-.715.748-1.07 1.404-1.676 2.031l-.001.001-.006.006-.009.009a.78.78 0 0 1-1.102 0l-.01-.01-.008-.008a.78.78 0 0 1 0-1.103l.008-.009"/><path fill="#9D3B2A" d="M12.236 11.19l-.006-.005-.001-.001c-.628-.607-1.284-.962-2.032-1.677 1.747 1.393 5.415 2.201 4.508 4.29-.097.2-.243.398-.414.57-.171.17-.37.316-.568.413-2.09.909-2.898-2.76-4.292-4.507.716.748 1.07 1.404 1.677 2.031l.001.001.005.006.01.009a.78.78 0 0 0 1.103 0l.017-.018a.78.78 0 0 0 0-1.103l-.008-.009"/><path fill="#3A5E30" d="M12.236 4.91l-.006.007h-.001c-.628.607-1.284.962-2.032 1.677 1.747-1.393 5.415-2.2 4.508-4.29a2.159 2.159 0 0 0-.414-.57 2.166 2.166 0 0 0-.568-.413c-2.09-.909-2.898 2.761-4.292 4.507.716-.748 1.07-1.404 1.677-2.031l.001-.001.005-.006.01-.008a.78.78 0 0 1 1.103 0l.009.008.008.01a.78.78 0 0 1 0 1.102l-.008.009"/><path fill="#C4242B" d="M6.63 8.05c-.02 2.484-6.574 3.034-5.382 5.754-1.081-2.11 1.849-3.073 2.332-5.076a3.053 3.053 0 0 0-.006-1.38C3.072 5.361.171 4.397 1.248 2.296.056 5.017 6.61 5.567 6.63 8.05"/><path fill="#79A240" d="M7.294 3.655c-2-.485-2.964-3.412-5.073-2.332 2.72-1.191 3.27 5.362 5.754 5.383 2.484-.02 3.034-6.574 5.754-5.383-2.111-1.08-3.074 1.85-5.078 2.333-.419.101-.937.101-1.357 0"/><path fill="#329DCC" d="M7.294 12.446c-2 .486-2.964 3.412-5.073 2.332 2.72 1.192 3.27-5.362 5.754-5.383 2.484.02 3.034 6.575 5.754 5.383-2.113 1.082-3.076-1.856-5.083-2.334a3.074 3.074 0 0 0-1.352.002"/><path fill="#E6762B" d="M9.32 8.05c.02-2.483 6.574-3.033 5.382-5.753 1.08 2.11-1.85 3.073-2.333 5.076a3.06 3.06 0 0 0 .007 1.381c.502 1.985 3.402 2.949 2.326 5.05 1.192-2.72-5.362-3.27-5.382-5.753"/></g></svg>