<svg xmlns="http://www.w3.org/2000/svg" width="16" height="16" viewBox="0 0 16 16"><rect id="frame" width="16" height="16" fill="none"/><g fill="none" fill-rule="evenodd"><path fill="#751E21" d="M3.714 4.91l.006.007h.001c.628.607 1.284.962 2.032 1.677-1.746-1.393-5.415-2.2-4.508-4.29.097-.2.243-.398.414-.57.17-.17.37-.316.568-.413 2.09-.909 2.898 2.761 4.291 4.507-.715-.748-1.07-1.403-1.676-2.031l-.001-.001-.006-.006-.009-.008a.78.78 0 0 0-1.102 0l-.01.008-.008.01a.78.78 0 0 0 0 1.102l.008.009"/><path fill="#1D5895" d="M6 10.867v.171c-1.107 1.859-1.955 4.532-3.773 3.742a2.17 2.17 0 0 1-.568-.413 2.172 2.172 0 0 1-.414-.57c-.907-2.089 2.762-2.897 4.507-4.29-.747.715-1.403 1.07-2.03 1.677H3.72l-.006.006-.008.009a.78.78 0 0 0 0 1.103l.008.009.01.009a.78.78 0 0 0 1.102 0l.01-.01.005-.005c.442-.457.75-.928 1.159-1.438z"/><path fill="#3A5E30" d="M12.236 4.91l-.006.007h-.001c-.628.607-1.284.962-2.032 1.677 1.747-1.393 5.415-2.2 4.508-4.29a2.159 2.159 0 0 0-.414-.57 2.166 2.166 0 0 0-.568-.413c-2.09-.909-2.898 2.761-4.292 4.507.716-.748 1.07-1.404 1.677-2.031l.001-.001.005-.006.01-.008a.78.78 0 0 1 1.103 0l.009.008.008.01a.78.78 0 0 1 0 1.102l-.008.009"/><path fill="#C4242B" d="M6.63 8.05c-.02 2.484-6.574 3.034-5.382 5.754-1.081-2.11 1.849-3.073 2.332-5.076a3.053 3.053 0 0 0-.006-1.38C3.072 5.361.171 4.397 1.248 2.296.056 5.017 6.61 5.567 6.63 8.05"/><path fill="#79A240" d="M7.294 3.655c-2-.485-2.964-3.412-5.073-2.332 2.72-1.191 3.27 5.362 5.754 5.383 2.484-.02 3.034-6.574 5.754-5.383-2.111-1.08-3.074 1.85-5.078 2.333-.419.101-.937.101-1.357 0"/><path fill="#329DCC" d="M6 13.13c-1.236.978-2.177 2.468-3.779 1.648 1.822.798 2.67-1.88 3.779-3.74v2.092z"/><path fill="#E6762B" d="M12.452 9H9.68c-.224-.286-.357-.598-.36-.95.02-2.483 6.574-3.033 5.382-5.753 1.08 2.11-1.85 3.073-2.333 5.076a3.06 3.06 0 0 0 .007 1.381c.021.084.047.166.076.246z"/><path fill="#40B6E0" d="M7.897 10.016L6.7 15.996h1.643l.747-4.004s.647-.565 1.145-.514c.498.052.498.57.498.57L10.036 16h1.644l.796-4.008s.547-.565 1.095-.514c.548.052.448.62.448.62l-.747 3.898h1.693l.846-4.565c.1-.723-.327-1.349-.896-1.415a2.54 2.54 0 0 0-1.643.389c-.498.312-.796.718-.796.718s-.257-1.04-1.046-1.107c-.789-.066-1.145.128-1.494.333-.348.205-.547.466-.547.466l.137-.799h-1.63z"/></g></svg>