<svg ti:v="1" width="16" height="16" viewBox="0 0 16 16" xmlns="http://www.w3.org/2000/svg" xmlns:ti="urn:schemas-jetbrains-com:tisvg"><rect id="frame" width="16" height="16" fill="none"/><linearGradient id="a" x1=".5" y1="0" x2=".5" y2="1"><stop offset="0" stop-color="#8EBFFF"/><stop offset="1" stop-color="#406290"/></linearGradient><path fill-rule="evenodd" d="M14 14H2V5h12v9z" fill="url(#a)"/><path fill-rule="evenodd" d="M14 5H2V2h12v3z" fill="#416391"/><linearGradient id="b" x1=".5" y1="0" x2=".5" y2="1"><stop offset="0" stop-color="#FFF"/><stop offset="1" stop-color="#D5E8FF"/></linearGradient><path fill-rule="evenodd" d="M13 13H3V5h10v8z" fill="url(#b)"/><path fill-rule="evenodd" d="M3 4h10V3H3v1z" fill="#BDD9FF"/><path fill-rule="evenodd" d="M3 5h10V4H3v1z" fill="#416391"/><linearGradient id="c" x1=".5" y1="0" x2=".5" y2="1"><stop offset="0" stop-color="#FFF"/><stop offset="1" stop-color="#D5E8FF"/></linearGradient><path fill-rule="evenodd" d="M12 12H4V6h8v6z" fill="url(#c)"/><linearGradient id="d" x1=".5" y1="0" x2=".5" y2="1"><stop offset="0" stop-color="#4D9AFF"/><stop offset="1" stop-color="#104890"/></linearGradient><path fill-rule="evenodd" d="M5 11h6L8 7l-3 4z" fill="url(#d)"/><path fill-rule="evenodd" d="M4 5h8V4H4v1z" fill="#416391"/></svg>