<svg xmlns="http://www.w3.org/2000/svg" width="16" height="16" viewBox="0 0 16 16"><rect id="frame" width="16" height="16" fill="none"/><defs><linearGradient id="a" x1="66.089%" x2="44.758%" y1="0%" y2="81.35%"><stop offset="0%" stop-color="#CED3D4"/><stop offset="100%" stop-color="#E8EBEC"/></linearGradient><linearGradient id="b" x1="50%" x2="50%" y1="0%" y2="100%"><stop offset="0%" stop-color="#F9F9F9"/><stop offset="100%" stop-color="#EFF2F3"/></linearGradient><linearGradient id="c" x1="100%" x2="19.889%" y1="0%" y2="76.504%"><stop offset="0%" stop-color="#D8D9DA"/><stop offset="100%" stop-color="#E8EAEB"/></linearGradient><linearGradient id="d" x1="80.35%" x2="56.347%" y1="0%" y2="82.54%"><stop offset="0%" stop-color="#FFF"/><stop offset="100%" stop-color="#EFF1F2"/></linearGradient><linearGradient id="e" x1="0%" y1="0%" y2="104.989%"><stop offset="0%" stop-color="#F98A92"/><stop offset="100%" stop-color="#E0506A"/></linearGradient><linearGradient id="f" x1="61.867%" x2="0%" y1="44.196%" y2="100%"><stop offset="0%" stop-color="#E63D5B"/><stop offset="100%" stop-color="#A32000"/></linearGradient><linearGradient id="g" x1="0%" x2="34.148%" y1="0%" y2="92.906%"><stop offset="0%" stop-color="#CDD1D2"/><stop offset="51.651%" stop-color="#FFF"/><stop offset="100%" stop-color="#E5E6E7"/></linearGradient><linearGradient id="h" x1="0%" x2="88.833%" y1="5.173%" y2="74.087%"><stop offset="0%" stop-color="#FCFDFA"/><stop offset="100%" stop-color="#F8CF2E"/></linearGradient><linearGradient id="i" x1="63.625%" x2="35.351%" y1="2.23%" y2="81.579%"><stop offset="0%" stop-color="#F9D900"/><stop offset="100%" stop-color="#F0A600"/></linearGradient></defs><g fill="none" fill-rule="nonzero"><path fill="#7B3541" d="M13 8l1.9 1.1-1.9.9z"/><path fill="url(#a)" d="M5.993 1.3L7.7 9 2.6 6z"/><path fill="url(#b)" transform="scale(-1 1) rotate(20 0 -39.143)" d="M8.177.877l1.707 7.7L5.587 6.03z"/><path fill="url(#c)" d="M12.9 2.1L9.266 7l.61-2.1z"/><path fill="url(#d)" d="M12.9 2.1L14 9H7.7z"/><path fill="url(#e)" d="M12.9 2.1l2 7L14 9z"/><path fill="url(#f)" d="M2.2 4.4l2.8 7-3.9.7z"/><path fill="url(#g)" transform="rotate(-18 4.93 7.468)" d="M3.282 3.706L6.58 9.089l-2.799 2.14z"/><path fill="url(#h)" d="M9.1 5.4L14 9l-2.3 6z"/><path fill="url(#i)" d="M9.1 5.4l2.6 9.6L5 11.4z"/></g></svg>