<svg xmlns="http://www.w3.org/2000/svg" width="16" height="16" viewBox="0 0 16 16">
  <g fill="none" fill-rule="evenodd">
    <path fill="#8C3123" d="M2.97865435,12.5497641 L2.97764706,12.5517073 L2.01411765,12.0856098 L2.01411765,3.89560976 L2.97764706,3.4295122 L2.97764706,12.55 L2.97865435,12.5497641 Z"/>
    <path fill="#E05243" d="M5.81,10.945122 L5.81,11.8866029 L2.97764706,12.55 L2.97764706,3.4295122 L5.81,4.09290926 L5.81,5.05487805 L7.84136675,4.56869839 L8,4.60585366 L8,6.23804878 L5.81,6.50439024 L5.81,9.49902439 L8,9.7704878 L8,10.5558537 L5.81,10.945122 Z"/>
    <path fill="#8C3123" d="M8.15860568,4.56869179 L10.19,5.05487805 L10.19,4.09272896 L13.0205882,3.4295122 L13.0205882,12.55 L10.19,11.8867832 L10.19,10.945122 L8,10.5558537 L8,9.7704878 L10.19,9.49902439 L10.19,6.50439024 L8,6.23804878 L8,4.60585366 L8.15860568,4.56869179 Z"/>
    <polygon fill="#E05243" points="13.021 3.43 13.986 3.896 13.986 12.086 13.021 12.552"/>
    <path fill="#8C3123" d="M8,6.23804878 L8,9.7704878 L5.81,9.49902439 L5.81,6.50439024 L8,6.23804878 Z"/>
    <path fill="#5E1F18" d="M5.81,5.05487805 L8,4.53073171 L10.19,5.05487805 L8,5.44073171 L5.81,5.05487805 Z"/>
    <path fill="#F2B0A9" d="M5.81,10.945122 L8,10.5558537 L10.19,10.945122 L8,11.4692683 L5.81,10.945122 Z"/>
    <polygon fill="#E05243" points="10.19 5.055 8 4.531 8 1 10.19 2.059"/>
    <polygon fill="#8C3123" points="5.81 5.055 8 4.531 8 1 5.81 2.059"/>
    <polygon fill="#E05243" points="8 15 10.19 13.941 10.19 10.945 8 11.469"/>
    <polygon fill="#8C3123" points="8 15 5.81 13.941 5.81 10.945 8 11.469"/>
    <polygon fill="#E05243" points="8 9.77 8 6.238 10.19 6.504 10.19 9.499"/>
  </g>
</svg>
