<svg xmlns="http://www.w3.org/2000/svg" width="16" height="16" viewBox="0 0 16 16">
  <g fill="none" fill-rule="evenodd">
    <path fill="#9AA7B0" fill-opacity=".8" d="M1,14 L1,1 L3,1 L3,14 L1,14 Z M4,7 L4,1 L8,1 L8,7 L4,7 Z M9,7 L9,1 L15,1 L15,7 L9,7 Z"/>
    <rect width="12" height="7" x="4" y="8" fill="#40B6E0" fill-opacity=".7" fill-rule="nonzero"/>
    <polygon fill="#231F20" fill-opacity=".7" fill-rule="nonzero" points="6.1 9 5 9.443 5.157 10.225 6 10 6 14 7 14 7 9"/>
    <path fill="#231F20" fill-opacity=".7" fill-rule="nonzero" d="M8 14L8 13.1338 9.6543 11.7777C10.272 11.2665 10.5134 10.9967 10.5134 10.5849 10.5134 10.166 10.2365 9.9388 9.846 9.9388 9.4626 9.9388 9.1999 10.1518 8.8307 10.6062L8.0639 9.9885C8.5538 9.3211 9.0295 8.959 9.917 8.959 10.9465 8.959 11.6281 9.5625 11.6281 10.4926 11.6281 11.3375 11.2021 11.7493 10.3217 12.4309L9.6123 13 11.6778 13 11.6778 14 8 14zM13.694683 14.05C12.8062755 14.05 12.1928512 13.6974573 11.7698 13.1968467L12.5171905 12.4847105C12.8556314 12.8654566 13.2081741 13.0769822 13.7087847 13.0769822 14.1177342 13.0769822 14.4068192 12.8443041 14.4068192 12.4776597 14.4068192 12.0616593 14.0472257 11.836032 13.4408523 11.836032L12.9895977 11.836032 12.8203772 11.1450484 13.9978697 9.99307795 11.9984065 9.99307795 11.9984065 9 15.3939387 9 15.3939387 9.84769134 14.1459376 11.0392856C14.8157687 11.1520992 15.4714981 11.5046419 15.4714981 12.4212529 15.4714981 13.3660672 14.7946161 14.05 13.694683 14.05z"/>
  </g>
</svg>
