<svg width="16" height="16" viewBox="0 0 16 16" fill="none" xmlns="http://www.w3.org/2000/svg">
<path fill-rule="evenodd" clip-rule="evenodd" d="M13.2833 4.09225H2.71617C2.30693 4.09225 2 4.4161 2 4.81355C2 5.211 2.32155 5.53485 2.71617 5.53485H3.3008L4.26544 14.4112C4.28006 14.735 4.55775 15 4.89392 15H11.091C11.4125 15 11.6902 14.7498 11.7341 14.4259L12.6987 5.54957H13.2833C13.6926 5.54957 13.9995 5.22572 13.9995 4.82827C14.0141 4.44554 13.6926 4.09225 13.2833 4.09225ZM10.0533 14.1462C9.64403 14.1462 9.3371 13.8224 9.3371 13.4249C9.3371 13.0275 9.65865 12.6889 10.0533 12.6889C10.4625 12.6889 10.7841 13.0128 10.7841 13.4249C10.7694 13.8224 10.4479 14.1462 10.0533 14.1462Z" fill="#229D59"/>
<path d="M5.44931 2.98575C5.47854 3.02991 5.52239 3.05935 5.58085 3.05935C5.61008 3.05935 5.6247 3.05935 5.63932 3.04463C5.71239 3.01519 5.72701 2.92686 5.69778 2.85326L4.67468 0.807139C4.64545 0.733538 4.55775 0.718817 4.48467 0.748258C4.41159 0.777699 4.39698 0.866021 4.42621 0.939622L5.44931 2.98575Z" fill="#229D59"/>
<path d="M10.3456 3.04463C10.3748 3.05935 10.3894 3.05935 10.4187 3.05935C10.4771 3.05935 10.5356 3.02991 10.5356 2.98575L11.5587 0.939622C11.6025 0.880741 11.5733 0.777699 11.5002 0.748258C11.4418 0.704097 11.3395 0.733538 11.3102 0.807139L10.2871 2.85326C10.2433 2.91214 10.2725 3.01519 10.3456 3.04463Z" fill="#229D59"/>
<path d="M7.86091 2.33805C7.86091 2.42637 7.91937 2.48526 8.00706 2.48526C8.08014 2.48526 8.15322 2.41165 8.15322 2.33805V0.277208C8.15322 0.188886 8.09476 0.130005 8.00706 0.130005C7.91937 0.130005 7.86091 0.188886 7.86091 0.277208V2.33805Z" fill="#229D59"/>
<path d="M5.44931 2.98575C5.47854 3.02991 5.52239 3.05935 5.58085 3.05935C5.61008 3.05935 5.6247 3.05935 5.63932 3.04463C5.71239 3.01519 5.72701 2.92686 5.69778 2.85326L4.67468 0.807139C4.64545 0.733538 4.55775 0.718817 4.48467 0.748258C4.41159 0.777699 4.39698 0.866021 4.42621 0.939622L5.44931 2.98575Z" stroke="#229D59" stroke-width="0.25"/>
<path d="M10.3456 3.04463C10.3748 3.05935 10.3894 3.05935 10.4187 3.05935C10.4771 3.05935 10.5356 3.02991 10.5356 2.98575L11.5587 0.939622C11.6025 0.880741 11.5733 0.777699 11.5002 0.748258C11.4418 0.704097 11.3395 0.733538 11.3102 0.807139L10.2871 2.85326C10.2433 2.91214 10.2725 3.01519 10.3456 3.04463Z" stroke="#229D59" stroke-width="0.25"/>
<path d="M7.86091 2.33805C7.86091 2.42637 7.91937 2.48526 8.00706 2.48526C8.08014 2.48526 8.15322 2.41165 8.15322 2.33805V0.277208C8.15322 0.188886 8.09476 0.130005 8.00706 0.130005C7.91937 0.130005 7.86091 0.188886 7.86091 0.277208V2.33805Z" stroke="#229D59" stroke-width="0.25"/>
</svg>
