<svg xmlns="http://www.w3.org/2000/svg" width="16" height="16" viewBox="0 0 16 16">
  <g fill="none" fill-rule="evenodd">
    <rect width="15" height="7" x="1" y="9" fill="#F4AF3D" fill-opacity=".7"/>
    <polygon fill="#231F20" fill-opacity=".7" fill-rule="nonzero" points="6.6 11.001 8.4 11.001 8.4 10 5.6 10 5.6 15 6.6 15 6.6 13 8.4 13 8.4 12 6.6 12"/>
    <polygon fill="#231F20" fill-opacity=".7" fill-rule="nonzero" points="9.9 11 8.6 11 8.6 10 12.2 10 12.2 11 10.9 11 10.9 15 9.9 15"/>
    <path fill="#231F20" fill-opacity=".7" fill-rule="nonzero" d="M13.7,12.5 C14.364,12.5 14.8,12.3843994 14.8,11.75 C14.8,11.1156006 14.357,11 13.7,11 L13.4,11 L13.4,12.5 L13.7,12.5 Z M12.4,10 L13.771,10 C14.942,10 15.8,10.642 15.8,11.65 C15.8,13.2858276 14.771,13.5 13.672,13.5 L13.4,13.5 L13.4,15 L12.4,15 L12.4,10 Z"/>
    <polygon fill="#9AA7B0" fill-opacity=".8" fill-rule="nonzero" points="7 1 3 5 7 5"/>
    <polygon fill="#9AA7B0" fill-opacity=".8" fill-rule="nonzero" points="8 1 8 5 8 6 7 6 3 6 3 8 13 8 13 1"/>
    <path fill="#231F20" fill-opacity=".7" fill-rule="nonzero" d="M2.97276797,11.5015259 C2.97276797,11.1330566 3.284,11 3.845,11 C3.85033333,11 4.23533333,11 5,11 L5,10 C4.26266667,10 3.88266667,10 3.86,10 C2.778,10 2,10.4591675 2,11.45 C2,12.3145264 2.41955566,12.6904907 3.47125244,12.9160767 C4.24158869,13.0813116 4.496155,13.2286294 4.496155,13.548 C4.496155,13.8673706 4.13842773,14 3.47125244,14 C3.46058577,14 3.07016829,14 2.3,14 L2.3,15 C3.07550163,15 3.46591911,15 3.47125244,15 C5.5,15 5.5,14 5.5,13.548 C5.5,12.9160767 5.02026367,12.4207153 4.15869141,12.1468506 C3.29711914,11.8729858 2.97276797,11.8699951 2.97276797,11.5015259 Z"/>
  </g>
</svg>
