<svg xmlns="http://www.w3.org/2000/svg" width="16" height="16" viewBox="0 0 16 16">
  <g fill="none" fill-rule="evenodd">
    <polygon fill="#62B543" fill-opacity=".7" points="1 16 16 16 16 9 1 9"/>
    <polygon fill="#9AA7B0" fill-opacity=".8" fill-rule="nonzero" points="7 1 3 5 7 5"/>
    <polygon fill="#9AA7B0" fill-opacity=".8" fill-rule="nonzero" points="8 1 8 6 3 6 3 8 13 8 13 1"/>
    <polygon fill="#231F20" fill-opacity=".7" fill-rule="nonzero" points="3 11 1.5 11 1.5 10 5.5 10 5.5 11 4 11 4 15 3 15"/>
    <path fill="#231F20" fill-opacity=".7" fill-rule="nonzero" d="M6.97276797,11.5015259 C6.97276797,11.1330566 7.284,11 7.845,11 C7.85033333,11 8.23533333,11 9,11 L9,10 C8.26266667,10 7.88266667,10 7.86,10 C6.778,10 6,10.4591675 6,11.45 C6,12.3145264 6.41955566,12.6904907 7.47125244,12.9160767 C8.24158869,13.0813116 8.496155,13.2286294 8.496155,13.548 C8.496155,13.8673706 8.13842773,14 7.47125244,14 C7.46058577,14 7.07016829,14 6.3,14 L6.3,15 C7.07550163,15 7.46591911,15 7.47125244,15 C9.5,15 9.5,14 9.5,13.548 C9.5,12.9160767 9.02026367,12.4207153 8.15869141,12.1468506 C7.29711914,11.8729858 6.97276797,11.8699951 6.97276797,11.5015259 Z"/>
    <polygon fill="#231F20" fill-opacity=".7" points="11.1 10 12.496 13.5 13.9 10 15 10 12.89 15 12.109 15 10 10 11.1 10"/>
  </g>
</svg>
