<svg xmlns="http://www.w3.org/2000/svg" width="16" height="16" viewBox="0 0 16 16">
  <g fill="none" fill-rule="evenodd">
    <path fill="#9AA7B0" fill-opacity=".8" d="M5.21589537,13.7702941 C2.2151441,12.9807839 1.86517468e-14,10.2475069 1.86517468e-14,7 C1.86517468e-14,3.136 3.136,-1.687539e-14 7,-1.687539e-14 C10.8113385,-1.687539e-14 13.9143853,3.05110302 13.9982586,6.84242739 C13.9181176,6.76543155 13.8372141,6.68781877 13.7526125,6.61142801 C13.32751,6.2275268 12.9320148,6.03875985 12.5114996,6.00541537 C12.1679304,4.09806979 10.8541373,2.5254312 9.1,1.813 L9.1,2.1 C9.1,2.87 8.47,3.5 7.7,3.5 L6.3,3.5 L6.3,4.9 C6.3,5.285 5.985,5.6 5.6,5.6 L4.2,5.6 L4.2,7 L8.4,7 C8.785,7 9.1,7.315 9.1,7.7 L9.1,8.01411414 C9.08714678,8.02860958 9.07433931,8.04315289 9.06157264,8.05774521 C8.05774878,8.23295587 7.43433313,8.44248859 6.77479208,9.08293691 C6.65031256,9.20381173 6.34834738,9.29352305 6.139834,9.408921 C5.89877051,9.54233322 5.74895474,9.71007765 5.6,10 C5.42400491,10.3425531 5.6315584,10.6524366 5.758719,11.0905113 C5.2554637,10.8777809 4.9,10.3783864 4.9,9.8 L4.9,9.1 L1.547,5.747 C1.456,6.153 1.4,6.566 1.4,7 C1.4,9.68629258 3.28880924,11.9267023 5.81408894,12.4688905 C5.77538879,12.5841513 5.73665111,12.6994187 5.69796677,12.8147606 C5.57016893,12.9532772 5.44237973,13.0920396 5.31454738,13.2306319 C5.17481703,13.3822462 5.14476573,13.3812067 5.17758662,13.5956628 C5.18645493,13.6536436 5.19913948,13.7120317 5.21589537,13.7702941 Z"/>
    <path fill="#000" d="M10.8369221,15.0374898 C10.7456163,15.1867589 10.7343424,15.2791317 10.5880692,15.3658504 C10.1526287,15.6239193 9.92152793,15.3246251 9.66376663,14.8895516 C9.54094715,14.6822443 9.27240805,14.208938 9.55737629,14.0484865 C9.677442,13.9808882 9.76844576,13.930221 9.85921944,13.8723167 C9.56026667,13.9129434 9.26686457,13.9134317 8.96177873,13.8631582 C8.96717842,13.9034778 8.97188786,13.9418444 8.97569856,13.9770295 C8.99552856,14.1596017 8.99285031,14.2362336 8.93638144,14.3599299 C8.87991257,14.4836262 8.82344369,14.5454743 8.76697482,14.6073225 C8.78148423,14.7657659 8.80779242,14.9670836 8.76697482,15.1330318 C8.67623709,15.5018221 7.98817441,15.2761393 7.73196616,15.2002408 C7.42368077,15.108939 6.9831642,15.0239135 7.16392066,14.5898085 C7.20627692,14.4881039 7.23953783,14.3840841 7.2645662,14.2848759 C6.99500612,14.4155523 6.62040023,14.1383551 6.44198771,13.9424507 C6.27228947,13.7560986 6.18010655,13.5397037 6.14798885,13.329719 C6.12063811,13.1510056 6.14568086,13.1518718 6.26212282,13.0255266 C6.36864977,12.910033 6.47514078,12.7943977 6.58163897,12.6789671 C6.62464233,12.5507477 6.66772477,12.4226385 6.71070656,12.2945057 C6.69395387,12.198786 6.6815008,12.1033105 6.67408073,12.0087563 C6.64314218,11.6145142 6.65353891,11.3337655 6.70496175,11.0756729 C6.51739637,11.1558317 6.30217108,11.118284 6.2064435,10.900259 C6.17004056,10.8173755 6.14835554,10.7329485 6.120861,10.6103753 C5.70245366,10.1688365 6.48653692,9.5899905 6.71527221,9.54645794 C6.6891222,9.62784524 6.66047007,9.70229473 6.63525476,9.77611423 C6.79037889,9.86406921 6.77136135,10.1146807 6.73842399,10.2760299 C6.68262244,10.1989029 6.65178456,10.0980488 6.56971077,10.0937176 C6.5576891,10.2761874 6.55976701,10.4778247 6.42965687,10.5849551 C6.46817367,10.697724 6.46615328,10.6978185 6.57562095,10.6517187 C6.73109019,10.58616 6.84815768,10.4401196 6.9659226,10.2975914 C7.0927541,10.0270013 7.25533425,9.7862965 7.4789934,9.56911409 C8.02861094,9.03540716 8.54812398,8.86079656 9.38464386,8.71478767 C9.49598812,8.5875211 9.61105678,8.46472747 9.73456651,8.34532794 C9.90189924,8.18360072 10.0105472,8.15002206 10.1688062,8.14098165 C10.4306874,7.75732344 10.6367382,7.49014316 11.0637017,7.29330167 C11.9586546,6.88071888 12.5755274,6.86082683 13.2938438,7.50952334 C13.5312214,7.7238629 13.7336629,7.9497471 13.9945447,8.12868103 C14.1265673,8.21922685 14.2209144,8.28431306 14.3210063,8.41486348 C14.4468816,8.57915006 14.5496841,8.74344451 14.6212389,8.95490973 C14.7136879,8.91323565 14.819122,8.8739713 14.9042515,8.79427711 C15.0141649,8.69141491 15.0840948,8.51923767 15.1858979,8.40621682 C15.3210267,8.25623898 15.6292689,8.43729125 15.6975236,8.58037855 C15.9296669,9.06696983 16.0236902,9.68173508 15.9949907,10.2161038 C15.9385218,11.2675224 15.6661968,11.779478 15.1359059,12.0894506 C14.7753421,12.300152 14.3762549,12.4046831 13.9621112,12.3189409 C13.9056423,12.6900298 13.5668291,13.184815 13.171547,13.184815 C12.7762649,13.184815 12.7762649,13.1229669 12.6068582,12.9992706 C12.4970774,12.9191114 12.3737573,12.7903672 12.3667549,12.8061989 C12.352175,12.8391626 12.3311391,12.865615 12.3245139,12.9064984 C12.3959321,13.0609492 12.3585549,12.9387371 12.4196771,13.0979601 C12.4869323,13.2733109 12.5196683,13.3884029 12.5242915,13.5760701 C12.5283466,13.742664 12.5324234,13.9093052 12.5365001,14.0758913 C12.6043449,14.2079143 12.6102766,14.2400361 12.6003976,14.3911164 C12.5795034,14.709523 12.4193895,14.7399045 12.15254,14.7380696 C12.0636357,14.7374475 11.7280643,14.7397234 11.642525,14.7329588 C11.4724816,14.7195006 11.3603896,14.7052785 11.3017911,14.6283562 C11.1472422,14.7651042 10.8873455,15.0071714 10.8369221,15.0374898 Z"/>
    <path fill="#FF0" d="M12.031972,13.3141877 C12.0444914,13.3623224 12.0767369,13.5585247 12.0789157,13.6502138 C12.0812112,13.7469239 12.0835212,13.8436598 12.0858349,13.9403698 C12.1119267,13.9945926 12.1160038,14.0061553 12.1113801,14.0680088 C12.1019177,14.1943644 12.0664073,14.2027037 11.9728363,14.2007679 C11.9303338,14.1998994 11.7610636,14.1989661 11.7181275,14.1945718 C11.6574399,14.1883627 11.5987815,14.1346028 11.580221,14.1182137 C11.675581,14.0351749 11.8060965,13.8089729 11.8625654,13.6852766 C11.9190343,13.5615803 12.004769,13.4293912 12.031972,13.3141877 Z M7.16213449,13.6999602 L7.16209542,13.7044192 C7.15250039,13.748438 7.14138676,13.7913408 7.11810478,13.8257729 C7.00857983,13.9875707 6.72996263,13.750061 6.64932044,13.6591495 C6.56116336,13.5597566 6.50215759,13.4420424 6.48810929,13.331661 C6.47789413,13.2511287 6.48780655,13.2491769 6.53868706,13.1922123 C6.60725856,13.1155622 6.67589843,13.0388527 6.74444063,12.9622187 C6.75944599,12.9179249 6.77450506,12.8736796 6.78951041,12.829402 C6.87067509,13.1393617 7.00889722,13.4439241 7.16213449,13.6999602 Z M10.3481033,13.4940558 C10.3763377,13.3394354 10.461041,13.184815 10.4045722,13.0611187 C10.3794369,13.1571789 10.2351655,13.3085113 10.1786967,13.3703595 C10.1222278,13.4322076 10.1222278,13.4322076 10.00929,13.4940558 C9.63430367,13.5779709 9.31146412,13.5673478 8.93638144,13.4940558 C8.76018494,13.4631317 8.33965748,13.1747108 8.31522383,13.0611187 C8.30781531,13.1883626 8.31522383,13.3085113 8.42816158,13.4940558 C8.54109932,13.6796002 8.54109932,13.8651447 8.54109932,13.988841 C8.54109932,14.1125373 8.46585031,14.2164504 8.3716927,14.421778 C8.37951395,14.5513274 8.40312214,14.6080468 8.3716927,14.7310188 C8.3194135,14.9354272 8.11551455,14.8345759 7.97641059,14.7928669 C7.80512739,14.7415219 7.54854384,14.7337291 7.63759734,14.4836262 C7.71598176,14.2635242 7.71224057,13.9257623 7.75053509,13.6177521 C7.43672227,13.1226243 7.18536438,12.5490453 7.12937748,11.947852 C7.08589631,11.4810224 7.1500837,11.1819769 7.24231523,10.8964335 C7.38845625,10.4440166 7.53540018,10.1603709 7.86347284,9.84501491 C8.30598193,9.41974353 8.51457259,9.33449746 9.16225694,9.22653341 C9.00651305,9.41748588 9.00314503,9.4392151 8.83518432,9.65573087 C8.66515307,9.87495892 8.56410287,10.0963568 8.45616006,10.3361078 C8.30701299,10.6672629 8.31020477,10.7932712 8.50793024,11.0839755 C8.6783123,11.3345079 8.77028931,11.4473163 8.84467712,11.6924241 C8.78323529,11.831135 8.76090657,11.9483359 8.74024252,12.1377514 C8.94886408,12.3874926 9.1038788,12.5586454 9.30643322,12.6113768 C9.50511484,12.6630986 9.67104629,12.6530631 9.84878184,12.5535599 C10.2435793,12.3324784 10.6933312,12.0215062 11.1386675,12.0097002 C11.3446957,11.4549171 11.2394019,11.0169368 11.1404772,10.480183 C11.0729339,10.1136175 10.9902826,9.72394506 10.9692609,9.35022971 C10.8075438,9.64781185 10.6814345,10.2656894 10.7433854,10.6490409 C10.8181034,11.1110487 10.7998543,11.2675224 10.7433854,11.514915 C10.461041,11.5767631 10.4287142,11.6801263 10.0657589,11.8860039 C9.91988617,11.9687889 9.55753905,12.0715483 9.38813243,12.0097002 C9.21872581,11.947852 9.30227759,11.7622081 9.38813243,11.5767631 C9.52608763,11.2789315 9.89867182,9.92162397 10.0657589,9.62854639 C9.86114085,9.89907432 9.21035978,10.9337223 9.04931919,11.2056742 C8.98776042,11.0135766 8.93638144,10.8964335 8.82344369,10.7727372 C8.71050595,10.6490409 9.04327451,10.0296046 9.22551569,9.81409084 C9.54040161,9.4416563 9.60846629,9.22222092 9.95282117,8.85544451 C10.1397812,8.65629491 10.2351655,8.60805191 10.461041,8.48435561 C10.6869165,8.36065931 11.0230007,8.41883031 11.2516053,8.36065931 C11.1386675,8.23696301 11.0257298,8.17511486 10.8563232,8.17511486 C11.0257298,7.8658741 11.1335524,7.84400105 11.4774808,7.68032965 C11.9068613,7.47607523 12.0004801,7.45542127 12.268045,7.46386113 C12.5281475,7.47206561 12.6742553,7.53307098 13.0021404,7.83495004 C13.174531,7.99367151 13.3355482,8.06909863 13.5103602,8.20603894 C13.4469854,8.21197583 13.5691491,8.27147801 13.4969075,8.30255629 C13.5848259,8.28421069 13.5885328,8.31147251 13.6797668,8.32973524 C13.7053905,8.34793016 13.7289033,8.34728606 13.7927046,8.39158339 C13.9128079,8.47497132 13.9915948,8.51161156 14.075049,8.63897599 C14.1632632,8.77356565 14.2013285,8.98182573 14.1743841,8.97898536 C14.1210111,8.9733649 14.0699426,8.98774002 14.027397,9.01642245 C14.0256841,9.0172964 14.023985,9.01814776 14.0222516,9.01906692 C13.9539997,9.05545676 13.8482581,9.09695474 13.7774955,9.10953673 C13.8135681,9.12318104 13.8933971,9.12828918 13.9310519,9.11197026 C13.9361009,9.10977029 13.9412326,9.10810525 13.9464949,9.10671897 C13.929511,9.13836984 13.9184154,9.17433023 13.9150035,9.21316113 C13.9104841,9.26464936 13.9200388,9.3140657 13.9402558,9.35697256 C13.9468595,9.37388668 13.9557332,9.38909055 13.9655011,9.4000301 C13.9331362,9.41305661 13.9001384,9.42798172 13.8661156,9.44417256 C14.0239025,9.41784078 14.0904314,9.42076873 14.2444556,9.44300194 C14.2546156,9.49617782 14.3406044,9.54506206 14.3500835,9.60238171 C14.3309947,9.60404675 14.3119609,9.60562892 14.2928928,9.60727136 L14.2882496,9.60772341 C14.215382,9.54393194 14.134191,9.55465301 14.0232765,9.5823786 C13.6859793,9.66662522 13.7652442,9.87393428 13.6100507,10.1862766 C13.7711738,9.97055194 13.759239,9.7448596 14.0217976,9.67675109 C14.0829849,9.66088421 14.1246363,9.64103932 14.1660469,9.64785771 C14.0915078,9.68892624 14.0270186,9.75698955 14.0014568,9.83603008 C13.9293872,10.0589273 13.974141,10.246738 13.8949723,10.454921 C13.9930509,10.2688205 13.9989598,10.0871802 14.0866513,9.89138332 C14.1181427,9.82103717 14.2350348,9.70844716 14.3067949,9.70671431 C14.326489,9.70626226 14.3461419,9.70579515 14.3658567,9.70532803 C14.3831501,9.8292343 14.3641002,10.0212894 14.3573933,10.1233316 C14.3451696,10.309515 14.270891,10.5123828 14.2444556,10.6181168 C14.3573933,10.6490409 14.5268,10.5253446 14.6397377,10.2161038 C14.7526754,9.90686306 14.7317771,9.68251588 14.6962066,9.47392601 C14.6474012,9.18770449 14.765836,9.39234098 14.9220821,9.25745749 C15.0369312,9.15827823 15.1555871,8.99853669 15.2608953,8.88636859 C15.3653574,8.77514226 15.452494,9.02501359 15.4935607,9.13376119 C15.6717227,9.60578184 15.6467598,9.98767103 15.5997086,10.4634964 C15.5469066,10.9974325 15.3588478,11.4685027 14.928872,11.7313835 C14.380752,12.0664488 13.7793762,11.8704781 13.2348057,11.6695354 C13.1185739,11.6266511 12.941702,11.5544877 12.8395236,11.4839909 C12.8673485,11.6211874 12.8433875,11.8998424 12.8395236,12.0406243 C12.8327337,12.2880169 12.8638745,12.3980627 12.9330074,12.4667361 C13.0021404,12.5354095 13.0408657,12.5354095 13.1150781,12.5354095 C13.2280159,12.5354095 13.3974225,12.4735613 13.4538914,12.349865 C13.5103602,12.2261687 13.5103602,12.1952446 13.5103602,12.1333965 C13.5516746,12.1473421 13.6359349,12.1836421 13.6797668,12.1952446 C13.6797668,12.1952446 13.6410192,12.2714289 13.616276,12.3597816 C13.552062,12.5891883 13.3409536,12.7828021 13.1150781,12.7828021 C12.8892026,12.7828021 12.7473543,12.6258644 12.6063931,12.4885173 C12.5092707,12.393866 12.4158147,12.3033133 12.3231705,12.2136346 C12.0690385,12.1258168 11.9956869,11.9535539 11.7598251,11.7623076 C11.7033563,12.1333965 11.7598251,12.2570928 11.9857006,12.4426372 C11.9516366,12.8229826 11.865973,12.9992706 11.7598251,13.2466632 C11.6917198,13.4053923 11.3534878,13.9863778 11.2516053,14.0506891 C11.1789509,14.0965192 10.8290064,14.4901136 10.7433854,14.5454743 C10.6796392,14.638227 10.613346,14.7992338 10.5175099,14.8547151 C10.225448,15.0238563 10.1391986,14.89189 10.00929,14.6073225 C9.95282117,14.4836262 9.8963523,14.3599299 10.00929,14.2980817 C10.1222278,14.2362336 10.2419554,14.0506891 10.2916344,13.988841 C10.3413134,13.9269928 10.3198689,13.6486762 10.3481033,13.4940558 Z M12.3317759,9.73630091 C12.3689245,9.82125871 12.4290293,9.88621005 12.5002208,9.92683598 C12.4488543,10.0007131 12.4062092,10.0834418 12.3756974,10.1751149 C12.6473515,9.8235993 13.0413339,9.5581561 13.4117218,9.44465613 C13.3081807,9.44303072 13.1855887,9.46421676 13.0607505,9.50897588 C13.0561644,9.4636409 13.0448309,9.41833379 13.0258737,9.37494002 C12.9809143,9.272047 12.9021161,9.19832774 12.8109209,9.16189072 C12.8937011,9.11363001 12.9750008,9.06292654 13.0384409,9 C12.8526216,9.09383717 12.6363244,9.07095142 12.4769497,9.18851027 C12.3365067,9.29206275 12.1426893,9.6201074 12,9.75920524 C12.1033455,9.71544924 12.2029387,9.63972376 12.2945423,9.55984653 C12.2949762,9.61921575 12.3068883,9.67932801 12.3317759,9.73630091 L12.3317759,9.73630091 Z"/>
  </g>
</svg>
