<svg xmlns="http://www.w3.org/2000/svg" width="16" height="16" viewBox="0 0 16 16"><rect id="frame" width="16" height="16" fill="none"/><path d="M14.923 4.066l-.566-.366a5.026 5.026 0 0 0-2.5-.7A4.36 4.36 0 0 0 10 3.382V3H2v3.671h2.05V14h3.9v-1.477l.161.206a4.026 4.026 0 0 0 3 1.271A3.64 3.64 0 0 0 15 10.2a2.9 2.9 0 0 0-.9-2.021z" fill="#252525"/><path d="M8.9 12.114l.6-1.314a1.815 1.815 0 0 0 1.538.616c.536 0 1.223-.263 1.223-.952C12.261 9.3 9.1 8.5 9.1 6.585A2.455 2.455 0 0 1 11.861 4a4.034 4.034 0 0 1 1.95.534l-.291 1.457a2.124 2.124 0 0 0-1.568-.607c-.524 0-1.224.228-1.224 1.009C10.728 7.518 14 8.359 14 10.2a2.643 2.643 0 0 1-2.891 2.8 3.01 3.01 0 0 1-2.209-.886zM9 4H3v1.671h2.05V13h1.9V5.671H9z" fill="#ed6117"/></svg>