<svg ti:v="1" width="16" height="16" viewBox="0 0 16 16" xmlns="http://www.w3.org/2000/svg" xmlns:ti="urn:schemas-jetbrains-com:tisvg"><rect id="frame" width="16" height="16" fill="none"/><linearGradient id="a" x1=".5" y1=".017" x2=".5" y2="1.051"><stop offset="0" stop-color="#A35400"/><stop offset="1" stop-color="#5D1200"/></linearGradient><path fill-rule="evenodd" d="M6 0C3.794 0 2 1.794 2 4v6H0v1.5C0 13.43 1.57 15 3.5 15h6c1.93 0 3.5-1.57 3.5-3.5V5h3V3c0-1.655-1.346-3-3-3H6z" fill="url(#a)"/><linearGradient id="b" x1=".5" y1="-.006" x2=".5" y2="1.019"><stop offset="0" stop-color="#9E5000"/><stop offset="1" stop-color="#934400"/></linearGradient><path fill-rule="evenodd" d="M12 2.5V4h3V3a2.018 2.018 0 0 0-1.75-2c-.708.12-1.25.758-1.25 1.5z" fill="url(#b)"/><linearGradient id="c" x1=".5" y1=".024" x2=".5" y2="1.517"><stop offset="0" stop-color="#FFFDFB"/><stop offset="1" stop-color="#FFEFDF"/></linearGradient><path fill-rule="evenodd" d="M6 1a3 3 0 0 0-3 3v6h6l2 1h1V2.5c0-.742.542-1.355 1.25-1.475C13.167 1.015 13.085 1 13 1H6z" fill="url(#c)"/><linearGradient id="d" x1=".5" y1=".017" x2=".5" y2="1.051"><stop offset="0" stop-color="#FFF2E9"/><stop offset=".104" stop-color="#FFF2E9"/><stop offset="1" stop-color="#ECB178"/></linearGradient><path fill-rule="evenodd" d="M1 11v.5A2.5 2.5 0 0 0 3.5 14h6a2.5 2.5 0 0 0 2.5-2.5V11H1z" fill="url(#d)"/><linearGradient id="e" x1=".5" y1=".017" x2=".5" y2="1.051"><stop offset="0" stop-color="#FFF2E9"/><stop offset=".104" stop-color="#FFF2E9"/><stop offset="1" stop-color="#ECB178"/></linearGradient><path fill-rule="evenodd" d="M6 3a1 1 0 0 0-1 1v6h4l2 1V3H6z" fill="url(#e)"/><linearGradient id="f" x1=".5" y1=".005" x2=".5" y2="1.001"><stop offset="0" stop-color="#752800"/><stop offset="1" stop-color="#6A1E00"/></linearGradient><path fill-rule="evenodd" d="M5 10v1h3v.5a1.5 1.5 0 0 0 3 0V11l-2-1H5z" fill="url(#f)"/></svg>