<svg ti:v="1" width="16" height="16" viewBox="0 0 16 16" xmlns="http://www.w3.org/2000/svg" xmlns:ti="urn:schemas-jetbrains-com:tisvg"><rect id="frame" width="16" height="16" fill="none"/><g fill-rule="evenodd"><path d="M3.5 15C1.57 15 0 13.43 0 11.5V10h2V4c0-2.206 1.794-4 4-4h7c1.654 0 3 1.346 3 3v2h-3v6.5c0 1.93-1.57 3.5-3.5 3.5h-6z" fill="#242424"/><path d="M13.25 1c-.709.12-1.25.758-1.25 1.5V4h3V3a2.019 2.019 0 0 0-1.75-2z" fill="#C3C3C3"/><path d="M11 11h1V2.5c0-.742.542-1.355 1.25-1.475C13.167 1.015 13.086 1 13 1H6a3 3 0 0 0-3 3v6h6l2 1z" fill="#C3C3C3"/><path d="M1 11v.5A2.5 2.5 0 0 0 3.5 14h6a2.5 2.5 0 0 0 2.5-2.5V11H1z" fill="#C3C3C3"/><path d="M6 3a1 1 0 0 0-1 1v6h4l2 1V3H6z" fill="#282828"/><path d="M9 10H5v1h3v.5a1.5 1.5 0 0 0 3 0V11l-2-1z" fill="#282828"/></g></svg>