<svg xmlns="http://www.w3.org/2000/svg" width="16" height="16" viewBox="0 0 16 16"><rect id="frame" width="16" height="16" fill="none"/><g fill="none" fill-rule="evenodd"><path fill="#F98B9E" fill-opacity=".6" d="M15 8A7 7 0 1 1 1 8a7 7 0 0 1 14 0"/><path fill="#231F20" fill-opacity=".7" d="M11.852 10.16v1.14c-.216.06-.468.12-.84.12-.804 0-1.296-.276-1.524-.9-.384.588-.936.912-1.572.912-.684 0-1.344-.324-1.644-.996h-.024c.096.516.192.912.192 1.464v1.356H5V5h1.464v3.6c0 .972.552 1.584 1.404 1.584.852 0 1.428-.612 1.428-1.584V5h1.452v4.44c0 .54.24.768.696.768.156 0 .3-.024.408-.048z"/></g></svg>