<svg ti:v="1" width="16" height="16" viewBox="0 0 16 16" xmlns="http://www.w3.org/2000/svg" xmlns:ti="urn:schemas-jetbrains-com:tisvg"><rect id="frame" width="16" height="16" fill="none"/><path d="M4.05 7.5a3.955 3.955 0 0 1 .802-1.941L3.067 3.774A6.466 6.466 0 0 0 1.525 7.5zm0 0" opacity=".2"/><path d="M8.5 1.525V4.05a3.955 3.955 0 0 1 1.952.811l1.785-1.784A6.466 6.466 0 0 0 8.5 1.525zm0 0" opacity=".949"/><path d="M4.861 10.452a3.955 3.955 0 0 1-.81-1.952H1.524a6.466 6.466 0 0 0 1.552 3.737zm0 0" opacity=".298"/><path d="M5.559 4.852A3.955 3.955 0 0 1 7.5 4.05V1.525a6.466 6.466 0 0 0-3.726 1.542zm0 0"/><path d="M11.95 8.5a3.956 3.956 0 0 1-.802 1.941l1.785 1.785A6.466 6.466 0 0 0 14.475 8.5zm0 0" opacity=".8"/><path d="M11.158 5.57c.431.561.705 1.228.792 1.93h2.525a6.466 6.466 0 0 0-1.532-3.715zm0 0" opacity=".898"/><path d="M10.441 11.148a3.956 3.956 0 0 1-1.941.802v2.525a6.466 6.466 0 0 0 3.726-1.542zm0 0" opacity=".698"/><path d="M7.5 11.95a3.956 3.956 0 0 1-1.93-.793l-1.785 1.786A6.466 6.466 0 0 0 7.5 14.475zm0 0" opacity=".498"/></svg>