<svg ti:v="1" width="24" height="24" viewBox="0 0 24 24" xmlns="http://www.w3.org/2000/svg" xmlns:ti="urn:schemas-jetbrains-com:tisvg"><rect id="frame" width="24" height="24" fill="none"/><linearGradient id="a" x1="1.003" y1=".98" x2="-.135" y2=".184"><stop offset="0" stop-color="#C90F5E"/><stop offset=".221" stop-color="#C90F5E"/><stop offset=".236" stop-color="#C90F5E"/><stop offset=".356" stop-color="#CA135C"/><stop offset=".466" stop-color="#CE1E57"/><stop offset=".573" stop-color="#D4314E"/><stop offset=".678" stop-color="#DC4B41"/><stop offset=".782" stop-color="#E66D31"/><stop offset=".882" stop-color="#F3961D"/><stop offset=".942" stop-color="#FCB20F"/></linearGradient><path d="M24 9.346L21.72 8.15 7.178 0l-5.87 6.131 6.094 7.962 13.346 1.122L24 9.346z" fill="url(#a)"/><linearGradient id="b" x1=".221" y1=".119" x2=".589" y2=".976"><stop offset=".042" stop-color="#077CFB"/><stop offset=".445" stop-color="#C90F5E"/><stop offset=".958" stop-color="#077CFB"/></linearGradient><path d="M17.271 5.533L15.178.374 9.495 5.981 4.037 17.196 16.935 24 24 19.888 17.271 5.533z" fill="url(#b)"/><linearGradient id="c" x1=".323" y1=".114" x2=".617" y2=".917"><stop offset=".278" stop-color="#C90F5E"/><stop offset=".974" stop-color="#FCB20F"/></linearGradient><path d="M7.178 0L0 4.822l2.654 16.486 6.879 2.655 8.897-7.215L7.178 0z" fill="url(#c)"/><path d="M4 4h16v16H4z"/><path d="M6 17h5v1H6z" fill="#FFF"/><path d="M6 6.004h2.765a2.406 2.406 0 0 1 1.759.61c.328.379.506.864.503 1.365a1.898 1.898 0 0 1-1.293 1.867L11.206 12H9.662L8.37 10.061H7.328V12H6V6.004zm2.657 2.908c.646 0 1.005-.359 1.005-.862 0-.574-.395-.861-1.04-.861h-1.33v1.723zM12 6h2.357a2.977 2.977 0 0 1 3.179 3 2.997 2.997 0 0 1-3.179 3H12zm1.321 1.179v3.607h1.036a1.716 1.716 0 0 0 1.822-1.607V9a1.72 1.72 0 0 0-1.608-1.821h-1.25zm0 0" fill="#FFF"/></svg>