<svg ti:v="1" width="16" height="16" viewBox="0 0 16 16" xmlns="http://www.w3.org/2000/svg" xmlns:ti="urn:schemas-jetbrains-com:tisvg"><rect id="frame" width="16" height="16" fill="none"/><linearGradient id="a" x1=".5" y1="0" x2=".5" y2=".994"><stop offset="0" stop-color="#4474C8"/><stop offset="1" stop-color="#003F6D"/></linearGradient><path d="M10 14H6V9c0-.738.272-1.45.766-2H4V5c0-1.738 1.682-3 4-3s4 1.262 4 3v2a3.004 3.004 0 0 1-2 2.828zm0 0" fill="url(#a)"/><linearGradient id="b" x1=".5" y1=".007" x2=".5" y2="1"><stop offset="0" stop-color="#F0F3FA"/><stop offset="1" stop-color="#65A3FF"/></linearGradient><path d="M9 10H7V9a2.003 2.003 0 0 1 2-2V5.203A2.181 2.181 0 0 0 8 5a2.181 2.181 0 0 0-1 .203V6H5V5c0-1.159 1.262-2 3-2s3 .841 3 2v2a2.002 2.002 0 0 1-2 2zm0 1H7v2h2zm0 0" fill="url(#b)"/></svg>