<svg ti:v="1" width="16" height="16" viewBox="0 0 16 16" xmlns="http://www.w3.org/2000/svg" xmlns:ti="urn:schemas-jetbrains-com:tisvg"><rect id="frame" width="16" height="16" fill="none"/><path d="M10 14H6V9c0-.738.272-1.45.766-2H4V5c0-1.738 1.682-3 4-3s4 1.262 4 3v2a3.004 3.004 0 0 1-2 2.828zm0 0" fill="#F4F4F4"/><path d="M9 10H7V9a2.003 2.003 0 0 1 2-2V5.203A2.181 2.181 0 0 0 8 5a2.181 2.181 0 0 0-1 .203V6H5V5c0-1.159 1.262-2 3-2s3 .841 3 2v2a2.002 2.002 0 0 1-2 2zm0 1H7v2h2zm0 0" fill="#323232"/></svg>