<svg ti:v="1" width="24" height="24" viewBox="0 0 24 24" xmlns="http://www.w3.org/2000/svg" xmlns:ti="urn:schemas-jetbrains-com:tisvg"><rect id="frame" width="24" height="24" fill="none"/><linearGradient id="a" x1=".5" y1="0" x2=".5" y2="1"><stop offset="0" stop-color="#663886"/><stop offset="1" stop-color="#260A3B"/></linearGradient><path fill-rule="evenodd" d="M16.845 2.5H16.1L9.641 8.4 5.037 5h-.308L2 7.217v9.316l2.729 2.217h.308l4.604-3.4 6.459 5.9h.745L22 19.013V4.737L16.845 2.5z" fill="url(#a)"/><linearGradient id="b" x1=".5" y1="0" x2=".5" y2="1"><stop offset="0" stop-color="#DEB2FF"/><stop offset="1" stop-color="#B353FF"/></linearGradient><path fill-rule="evenodd" d="M17 15l-4.773-3.125L17 8.75zm-12.088-.586V9.336l2.783 2.539zM16.585 3.75l-6.86 6.266-4.813-3.554-1.662 1.35v8.125l1.662 1.351 4.813-3.554L16.585 20l4.165-1.807V5.557zm0 0" fill="url(#b)"/></svg>