<svg xmlns="http://www.w3.org/2000/svg" width="16" height="16" viewBox="0 0 16 16">
  <title>ProfileAll</title>
  <g id="Layer_2" data-name="Layer 2">
    <g id="Layer_1-2" data-name="Layer 1">
      <g>
        <rect width="16" height="16" fill="#f9e6f0" opacity="0"/>
        <path d="M9,12,4,16V14.08l2-1.6v-1L4,9.92V8ZM0,8v8l5-4Z" fill="#5aa86a" fill-rule="evenodd"/>
        <g>
          <rect x="7" y="1" width="5" height="1" fill="#6f6f6f"/>
          <rect x="8.8" y="6" width="1.4" height="3" fill="#6f6f6f"/>
          <path d="M13.72,5l.88-.88-1-1L12.69,4A5.49,5.49,0,0,0,4.18,7.13l1.36,1a4,4,0,1,1,5,4.26L8.37,13.88A5.22,5.22,0,0,0,9.5,14a5.5,5.5,0,0,0,4.22-9Z" fill="#6f6f6f"/>
        </g>
      </g>
    </g>
  </g>
</svg>
