<svg ti:v="1" width="16" height="16" viewBox="0 0 16 16" xmlns="http://www.w3.org/2000/svg" xmlns:ti="urn:schemas-jetbrains-com:tisvg"><rect id="frame" width="16" height="16" fill="none"/><g fill-rule="evenodd"><path d="M8 0a7.926 7.926 0 0 0-4.903 1.683L1.414 0H0v8c0 4.411 3.589 8 8 8s8-3.589 8-8-3.589-8-8-8z" fill="#F4F4F4"/><path d="M8 1a6.972 6.972 0 0 0-4.947 2.053L1 1v6h6L4.48 4.48A4.937 4.937 0 0 1 8 3a5 5 0 1 1-5 5H1a7 7 0 1 0 7-7z" fill="#00529C"/><path d="M8 11H7V7h4v1H8v3z" fill="#313131"/></g></svg>