<svg ti:v="1" width="16" height="16" viewBox="0 0 16 16" xmlns="http://www.w3.org/2000/svg" xmlns:ti="urn:schemas-jetbrains-com:tisvg"><rect id="frame" width="16" height="16" fill="none"/><linearGradient id="a" x1=".5" y1=".008" x2=".5" y2=".992"><stop offset="0" stop-color="#1A4380"/><stop offset="1" stop-color="#2A58A1"/></linearGradient><path fill-rule="evenodd" d="M3.097 1.682L1.414 0H0v8c0 4.411 3.589 8 8 8s8-3.589 8-8-3.589-8-8-8a7.93 7.93 0 0 0-4.903 1.682z" fill="url(#a)"/><linearGradient id="b" x1=".5" y1=".02" x2=".5" y2="1.031"><stop offset="0" stop-color="#D3F5FF"/><stop offset="1" stop-color="#44F7FF"/></linearGradient><path fill-rule="evenodd" d="M3.053 3.053L1 1v6h6L4.479 4.48A4.946 4.946 0 0 1 8 3a5 5 0 1 1 0 10 5 5 0 0 1-5-5H1a7 7 0 1 0 14 0 7 7 0 0 0-7-7 6.972 6.972 0 0 0-4.947 2.053z" fill="url(#b)"/><linearGradient id="c" x1=".5" y1=".008" x2=".5" y2="1.008"><stop offset="0" stop-color="#FFF2D3"/><stop offset="1" stop-color="#FFF"/></linearGradient><path fill-rule="evenodd" d="M7 7v4h1V8h3V7H7z" fill="url(#c)"/></svg>