<svg ti:v="1" width="16" height="16" viewBox="0 0 16 16" xmlns="http://www.w3.org/2000/svg" xmlns:ti="urn:schemas-jetbrains-com:tisvg"><rect id="frame" width="16" height="16" fill="none"/><linearGradient id="a" x1=".5" y1="0" x2=".5" y2="1"><stop offset="0" stop-color="#00709C"/><stop offset="1" stop-color="#003680"/></linearGradient><path fill-rule="evenodd" d="M8.585 0L2 6.586v.828L8.585 14h.829L16 7.414v-.828L9.414 0h-.829z" fill="url(#a)"/><linearGradient id="b" x1=".5" y1="0" x2=".5" y2="1"><stop offset="0" stop-color="#00BAFF"/><stop offset="1" stop-color="#2081FF"/></linearGradient><path fill-rule="evenodd" d="M3 7l6 6 6-6-6-6-6 6z" fill="url(#b)"/><path fill-rule="evenodd" d="M9 4l3 3v1l-2-1v3H8V7L6 8V7l3-3z" fill="#FFF"/><linearGradient id="c" x1=".5" y1="-.024" x2=".5" y2=".992"><stop offset="0" stop-color="#8C0900"/><stop offset="1" stop-color="#C70000"/></linearGradient><path fill-rule="evenodd" d="M11 5L6 8 4.814 6c-.239-.236-.604-1-1.316-1a2.12 2.12 0 0 0-1.55.675C1.163 6.495.797 7.141 1.829 8L4 10l-2.905 2.11c-.421.442-1.094.901-1.095 1.531-.001.63.233 1.224.656 1.674.421.441.98.685 1.574.685.593 0 1.152-.586 1.547-1L6 12l4 4h3l-5-6 5-5h-2z" fill="url(#c)"/><linearGradient id="d" x1=".5" y1="-.023" x2=".5" y2=".996"><stop offset="0" stop-color="#FFA98F"/><stop offset="1" stop-color="red"/></linearGradient><path fill-rule="evenodd" d="M10.437 6L6 9 3.96 6.282c-.346-.395-1.047-.343-1.386 0a.995.995 0 0 0 0 1.406L5 10l-3.813 3.308a.992.992 0 0 0 0 1.405.97.97 0 0 0 1.387 0L6 11l4.5 4h.5l-4-5 4-4h-.563z" fill="url(#d)"/></svg>