<svg ti:v="1" width="16" height="16" viewBox="0 0 16 16" xmlns="http://www.w3.org/2000/svg" xmlns:ti="urn:schemas-jetbrains-com:tisvg"><rect id="frame" width="16" height="16" fill="none"/><g fill-rule="evenodd"><path d="M8.586 0L2 6.586v.828L8.586 14h.828L16 7.414v-.828L9.414 0h-.828z" fill="#F4F4F4"/><path d="M9 1l6 6-6 6-6-6 6-6z" fill="#313131"/><path d="M9 4l3 3v1l-2-1v3H8V7L6 8V7l3-3z" fill="#EBEBEB"/><path d="M2 16v-2H0v-4h2V8h4v2h2v4H6v2H2z" fill="#F4F4F4"/><path d="M7 11H5V9H3v2H1v2h2v2h2v-2h2v-2z" fill="#378A33"/></g></svg>