<svg width="64" height="64" viewBox="0 0 64 64" fill="none" xmlns="http://www.w3.org/2000/svg">
<path d="M58 6H6V58H58V6Z" fill="url(#paint0_linear)"/>
<path d="M51 13H13V51H51V13Z" fill="url(#paint1_linear)"/>
<path d="M32.1444 44H18V46.3222H32.1444V44Z" fill="white"/>
<path d="M17.6445 17.6444H23.45C26.8278 17.6444 28.9389 19.65 28.9389 22.6055C28.9389 25.8777 26.4056 27.5666 23.1333 27.5666H20.7056V31.7889H17.5389V17.6444H17.6445ZM23.2389 24.9277C24.8222 24.9277 25.6667 23.8722 25.6667 22.7111C25.6667 21.3389 24.7167 20.6 23.1333 20.6H20.7056V24.9277H23.2389Z" fill="white"/>
<path d="M41.6681 17.64V20.4175H34.0931V23.3213H40.8475V26.0988H34.0931V29.0025H41.8575V31.78H31V17.64H41.6681Z" fill="white"/>
<defs>
<linearGradient id="paint0_linear" x1="57.3457" y1="57.3459" x2="-7.50628" y2="-7.50507" gradientUnits="userSpaceOnUse">
<stop offset="0.482" stop-color="#21D789"/>
<stop offset="0.7258" stop-color="#FCF84A"/>
</linearGradient>
<linearGradient id="paint1_linear" x1="31.9493" y1="3.7641" x2="31.9493" y2="37.8425" gradientUnits="userSpaceOnUse">
<stop offset="0.0842986" stop-color="#878585"/>
<stop offset="0.5377"/>
</linearGradient>
</defs>
</svg>
