<svg width="128" height="128" viewBox="0 0 128 128" fill="none" xmlns="http://www.w3.org/2000/svg">
<path d="M117 11H11V117H117V11Z" fill="url(#paint0_linear)"/>
<path d="M103 25H25V103H103V25Z" fill="url(#paint1_linear)"/>
<path d="M62.7 89.5668H33.6667V94.3335H62.7V89.5668Z" fill="white"/>
<path d="M34.5332 34.5332H46.4499C53.3832 34.5332 57.6082 38.6499 57.6082 44.6082V44.7165C57.6082 51.4332 52.2999 55.0082 45.7999 55.0082H40.9249V63.7832H34.5332V34.5332ZM46.0166 49.1582C49.2666 49.1582 51.1082 47.3165 51.1082 44.8249V44.7165C51.1082 41.7915 49.1582 40.2749 45.9082 40.2749H40.9249V49.1582H46.0166Z" fill="white"/>
<path d="M84.0681 34.53V40.2756H68.3984V46.2823H82.3705V52.0278H68.3984V58.0345H84.4598V63.78H62V34.53H84.0681Z" fill="white"/>
<defs>
<linearGradient id="paint0_linear" x1="115.666" y1="115.667" x2="-16.532" y2="-16.5296" gradientUnits="userSpaceOnUse">
<stop offset="0.482" stop-color="#21D789"/>
<stop offset="0.7258" stop-color="#FCF84A"/>
</linearGradient>
<linearGradient id="paint1_linear" x1="63.896" y1="6.0421" x2="63.896" y2="75.9925" gradientUnits="userSpaceOnUse">
<stop offset="0.0842986" stop-color="#878585"/>
<stop offset="0.5377"/>
</linearGradient>
</defs>
</svg>
