<svg width="70" height="70" viewBox="0 0 70 70" fill="none" xmlns="http://www.w3.org/2000/svg">
<path d="M64 6H6V64H64V6Z" fill="url(#paint0_linear)"/>
<path d="M56 14H14V56H56V14Z" fill="url(#paint1_linear)"/>
<path d="M19.1333 19.1334H25.55C29.2833 19.1334 31.6166 21.3501 31.6166 24.6168C31.6166 28.2334 28.8166 30.1001 25.2 30.1001H22.5166V34.7668H19.0166V19.1334H19.1333ZM25.3166 27.1834C27.0666 27.1834 28 26.0168 28 24.7334C28 23.2168 26.95 22.4001 25.2 22.4001H22.5166V27.1834H25.3166Z" fill="white"/>
<path d="M45.7923 19.13V22.2002H37.4191V25.4099H44.8852V28.4801H37.4191V31.6898H46.0016V34.76H34V19.13H45.7923Z" fill="white"/>
<path d="M34.4166 48.65H18.6666V51.3334H34.4166V48.65Z" fill="white"/>
<defs>
<linearGradient id="paint0_linear" x1="63.2702" y1="63.2704" x2="-9.0647" y2="-9.06335" gradientUnits="userSpaceOnUse">
<stop offset="0.482" stop-color="#21D789"/>
<stop offset="0.7258" stop-color="#FCF84A"/>
</linearGradient>
<linearGradient id="paint1_linear" x1="34.944" y1="3.7919" x2="34.944" y2="41.4575" gradientUnits="userSpaceOnUse">
<stop offset="0.0842986" stop-color="#878585"/>
<stop offset="0.5377"/>
</linearGradient>
</defs>
</svg>
