<svg xmlns="http://www.w3.org/2000/svg" width="16" height="16" viewBox="0 0 16 16"><rect id="frame" width="16" height="16" fill="none"/><path fill="#6E6E6E" fill-rule="evenodd" d="M4.535 5.92l.97.971-1.386 1.386a2.548 2.548 0 1 0 3.604 3.604l1.386-1.386.97.97-1.386 1.387a3.92 3.92 0 1 1-5.545-5.545L4.535 5.92zM5.92 4.536l1.386-1.387a3.92 3.92 0 0 1 5.545 5.545l-1.387 1.386-.97-.97 1.386-1.386a2.548 2.548 0 1 0-3.604-3.604L6.891 5.505l-.97-.97zm-.448 4.917l3.881-3.881 1.178 1.178-3.88 3.882-1.18-1.179z"/></svg>