<svg xmlns="http://www.w3.org/2000/svg" width="16" height="16" viewBox="0 0 16 16"><rect id="frame" width="16" height="16" fill="none"/><g fill="none" fill-rule="evenodd"><path fill="#F26522" d="M2 8l5-5v10z"/><path fill="#62B543" d="M14 8L9 3v5z"/><path fill="#00A817" d="M13.429 13.016a.943.943 0 0 1-.541-.637.887.887 0 0 1 .516-.154c.11.002.22.024.323.07.08.041.157.08.237.142.279.206.103.664-.255.643-.1 0-.18-.023-.28-.064zm-1.076.701a.858.858 0 0 1 .08-.823.911.911 0 0 1 .654.534c.04.082.062.188.062.27.02.309-.44.492-.66.245-.059-.062-.096-.143-.136-.226zm.1-3.622c.082-.1.199-.14.31-.129.186.02.361.174.349.392a.666.666 0 0 1-.062.27.883.883 0 0 1-.635.535.812.812 0 0 1-.1-.824c.04-.082.078-.162.137-.244zm-.815 3.848c-.2.267-.66.08-.64-.27a.64.64 0 0 1 .061-.264.882.882 0 0 1 .635-.535c.159.248.2.556.08.824-.04.083-.077.162-.136.245zM10.4 13.1c-.358.02-.532-.411-.274-.637a.676.676 0 0 1 .237-.148.87.87 0 0 1 .833.084c-.04.267-.237.513-.516.636a.625.625 0 0 1-.28.065zm0-2.124c.1 0 .18.023.28.065.279.123.481.369.54.637a.87.87 0 0 1-.839.083 1.483 1.483 0 0 1-.236-.148c-.261-.212-.121-.62.193-.637.02 0 .04-.002.062 0zm1.219-.862c.06.062.097.143.137.225a.858.858 0 0 1-.081.824.911.911 0 0 1-.653-.534.666.666 0 0 1-.062-.27c0-.206.173-.356.354-.374a.344.344 0 0 1 .305.129zM12.032 9C10.356 9 9 10.381 9 12.088c0 1.502 1.058 2.75 2.453 3.028V16c1.814-.279 3.421-1.745 3.54-3.67.12-1.926-1.286-3.33-2.961-3.33z"/></g></svg>