<svg ti:v="1" width="16" height="16" viewBox="0 0 16 16" xmlns="http://www.w3.org/2000/svg" xmlns:ti="urn:schemas-jetbrains-com:tisvg"><rect id="frame" width="16" height="16" fill="none"/><g fill-rule="evenodd"><path d="M8.108 15A4.113 4.113 0 0 1 4 10.892V7.108c0-.944.32-1.815.858-2.509A2.503 2.503 0 0 1 1 2.5C1 1.12 2.122 0 3.5 0a2.502 2.502 0 0 1 2.098 3.858A4.088 4.088 0 0 1 8.108 3h3.784A4.113 4.113 0 0 1 16 7.108v3.784A4.113 4.113 0 0 1 11.892 15H8.108z" fill="#F4F4F4"/><path d="M3.5 1a1.5 1.5 0 1 1-.001 3.001A1.5 1.5 0 0 1 3.5 1zM5 7.108A3.109 3.109 0 0 1 8.108 4h3.784A3.109 3.109 0 0 1 15 7.108v3.784A3.109 3.109 0 0 1 11.892 14H8.108A3.109 3.109 0 0 1 5 10.892V7.108z" fill="#1AA1E2"/><path d="M7.5 5a1.5 1.5 0 1 1-.001 3.001A1.5 1.5 0 0 1 7.5 5zm4 3a2.5 2.5 0 1 1 0 5 2.5 2.5 0 0 1 0-5z" fill="#FFF"/><path d="M2 16v-2H0v-4h2V8h4v2h2v4H6v2H2z" fill="#F4F4F4"/><path d="M7 11H5V9H3v2H1v2h2v2h2v-2h2v-2z" fill="#388934"/></g></svg>