<svg ti:v="1" width="16" height="16" viewBox="0 0 16 16" xmlns="http://www.w3.org/2000/svg" xmlns:ti="urn:schemas-jetbrains-com:tisvg"><rect id="frame" width="16" height="16" fill="none"/><linearGradient id="a" x1=".5" y1="0" x2=".5" y2="1"><stop offset="0" stop-color="#004D75"/><stop offset="1" stop-color="#00334F"/></linearGradient><path fill-rule="evenodd" d="M1 2.5C1 3.879 2.122 5 3.5 5c.501 0 .967-.148 1.358-.401A4.083 4.083 0 0 0 4 7.109v3.782A4.112 4.112 0 0 0 8.108 15h3.784A4.112 4.112 0 0 0 16 10.891V7.109A4.112 4.112 0 0 0 11.892 3H8.108a4.08 4.08 0 0 0-2.51.859A2.503 2.503 0 0 0 3.5 0C2.122 0 1 1.12 1 2.5z" fill="url(#a)"/><linearGradient id="b" x1=".5" y1="0" x2=".5" y2="1"><stop offset="0" stop-color="#58C6FF"/><stop offset="1" stop-color="#0093DD"/></linearGradient><path fill-rule="evenodd" d="M2 2.5a1.5 1.5 0 1 0 3 0 1.5 1.5 0 0 0-3 0zM8.109 4A3.108 3.108 0 0 0 5 7.108v3.784A3.108 3.108 0 0 0 8.109 14h3.783A3.108 3.108 0 0 0 15 10.892V7.108A3.108 3.108 0 0 0 11.892 4H8.109z" fill="url(#b)"/><path fill-rule="evenodd" d="M7.5 5a1.5 1.5 0 1 1-.001 3.001A1.5 1.5 0 0 1 7.5 5zm4 3a2.5 2.5 0 1 1 0 5 2.5 2.5 0 0 1 0-5z" fill="#FFF"/><linearGradient id="c" x1=".5" y1="-.005" x2=".5" y2="1.025"><stop offset="0" stop-color="#439040"/><stop offset="1" stop-color="#056D1D"/></linearGradient><path fill-rule="evenodd" d="M2 8v2H0v4h2v2h4v-2h2v-4H6V8H2z" fill="url(#c)"/><linearGradient id="d" x1=".5" y1=".013" x2=".5" y2="1.027"><stop offset="0" stop-color="#A3FFA1"/><stop offset=".012" stop-color="#A3FFA1"/><stop offset=".988" stop-color="#31D354"/><stop offset="1" stop-color="#31D354"/></linearGradient><path fill-rule="evenodd" d="M3 9v2H1v2h2v2h2v-2h2v-2H5V9H3z" fill="url(#d)"/></svg>