<svg ti:v="1" width="16" height="16" viewBox="0 0 16 16" xmlns="http://www.w3.org/2000/svg" xmlns:ti="urn:schemas-jetbrains-com:tisvg"><rect id="frame" width="16" height="16" fill="none"/><linearGradient id="a" x1=".5" y1="0" x2=".5" y2="1"><stop offset="0" stop-color="#907B00"/><stop offset="1" stop-color="#664900"/></linearGradient><path fill-rule="evenodd" d="M4 6a6 6 0 1 0 12 0c0-3.315-2.686-6-6-6S4 2.685 4 6z" fill="url(#a)"/><linearGradient id="b" x1=".5" y1="0" x2=".5" y2="1"><stop offset="0" stop-color="#FDFFF2"/><stop offset="1" stop-color="#E8A300"/></linearGradient><path fill-rule="evenodd" d="M9.37 1.064l-.193 1.544a3.428 3.428 0 0 0-.993.414l-1.232-.959a4.96 4.96 0 0 0-.889.89l.959 1.231a3.46 3.46 0 0 0-.415.994l-1.543.193C5.037 5.58 5 5.786 5 6c0 .217.037.422.064.631l1.543.191c.086.358.228.69.415.994l-.959 1.231c.257.334.556.631.889.89l1.232-.958c.304.185.637.327.993.414l.193 1.544c.209.026.414.063.63.063.216 0 .421-.037.63-.063l.193-1.544c.356-.087.689-.229.993-.414l1.232.958c.333-.259.632-.556.89-.89l-.96-1.231c.187-.304.329-.636.415-.994l1.544-.191C14.963 6.422 15 6.217 15 6c0-.214-.037-.42-.063-.629l-1.544-.193a3.46 3.46 0 0 0-.415-.994l.96-1.231a4.999 4.999 0 0 0-.89-.89l-1.232.959a3.428 3.428 0 0 0-.993-.414l-.193-1.544C10.421 1.038 10.216 1 10 1c-.216 0-.421.038-.63.064z" fill="url(#b)"/><linearGradient id="c" x1=".5" y1="0" x2=".5" y2="1"><stop offset="0" stop-color="#D09300"/><stop offset="1" stop-color="#FFFFFB"/></linearGradient><path fill-rule="evenodd" d="M8 6a2 2 0 0 0 4 0 2 2 0 0 0-4 0z" fill="url(#c)"/><path fill-rule="evenodd" d="M11 6a1 1 0 1 1-1.998.002A1 1 0 0 1 11 6z" fill="#3C2C0F"/><linearGradient id="d" x1=".5" y1="-.005" x2=".5" y2="1.025"><stop offset="0" stop-color="#439040"/><stop offset="1" stop-color="#056D1D"/></linearGradient><path fill-rule="evenodd" d="M2 8v2H0v4h2v2h4v-2h2v-4H6V8H2z" fill="url(#d)"/><linearGradient id="e" x1=".5" y1=".013" x2=".5" y2="1.027"><stop offset="0" stop-color="#A3FFA1"/><stop offset=".012" stop-color="#A3FFA1"/><stop offset=".988" stop-color="#31D354"/><stop offset="1" stop-color="#31D354"/></linearGradient><path fill-rule="evenodd" d="M3 9v2H1v2h2v2h2v-2h2v-2H5V9H3z" fill="url(#e)"/></svg>