<svg ti:v="1" width="16" height="16" viewBox="0 0 16 16" xmlns="http://www.w3.org/2000/svg" xmlns:ti="urn:schemas-jetbrains-com:tisvg"><rect id="frame" width="16" height="16" fill="none"/><g fill-rule="evenodd"><path d="M16 6A6 6 0 1 1 4 6a6 6 0 0 1 12 0z" fill="#242424"/><path d="M13.393 6.822a3.462 3.462 0 0 1-.414.994l.959 1.231c-.258.334-.557.63-.89.89l-1.231-.959a3.474 3.474 0 0 1-.994.414l-.193 1.545c-.21.026-.414.063-.63.063-.215 0-.421-.037-.63-.063l-.192-1.545a3.474 3.474 0 0 1-.994-.414l-1.232.96a5.026 5.026 0 0 1-.89-.89l.96-1.232a3.434 3.434 0 0 1-.414-.994l-1.544-.19C5.038 6.421 5 6.216 5 6c0-.215.038-.42.064-.629l1.544-.194c.086-.355.227-.689.414-.994l-.96-1.23c.259-.334.557-.63.89-.89l1.232.958c.305-.185.638-.328.994-.414l.192-1.543C9.579 1.038 9.785 1 10 1c.216 0 .42.038.63.064l.193 1.543c.356.086.689.23.994.414l1.23-.958c.334.26.633.556.89.89l-.958 1.23c.186.305.328.64.414.994l1.544.194c.026.21.063.414.063.63 0 .216-.037.421-.063.63l-1.544.191z" fill="#C3C3C3"/><path d="M10 4a2 2 0 1 0 0 4 2 2 0 0 0 0-4z" fill="#282828"/><path d="M11 6a1 1 0 1 1-1.998.002A1 1 0 0 1 11 6z" fill="#C3C3C3"/><path d="M2 16v-2H0v-4h2V8h4v2h2v4H6v2H2z" fill="#242424"/><path d="M7 11H5V9H3v2H1v2h2v2h2v-2h2v-2z" fill="#8CCF8C"/></g></svg>