<svg ti:v="1" width="16" height="16" viewBox="0 0 16 16" xmlns="http://www.w3.org/2000/svg" xmlns:ti="urn:schemas-jetbrains-com:tisvg"><rect id="frame" width="16" height="16" fill="none"/><g fill-rule="evenodd"><path d="M10 2H8C6.346 2 5 3.346 5 5v3c0 1.654 1.346 3 3 3h2V2z" fill="#F4F4F4"/><path d="M4.488 5A2.486 2.486 0 0 0 2.5 4a2.5 2.5 0 1 0 0 5c.815 0 1.532-.396 1.988-1H5V5h-.512z" fill="#F4F4F4"/><path d="M9 3H8c-1.1 0-2 .9-2 2v3c0 1.1.9 2 2 2h1V3z" fill="#313131"/><path d="M6 6H3.908A1.496 1.496 0 0 0 1 6.5a1.496 1.496 0 1 0 2.908.5H6V6z" fill="#313131"/><path d="M3 6.5a.5.5 0 1 1-1 0 .5.5 0 0 1 1 0z" fill="#EBEBEB"/><path d="M9 4H8c-.551 0-1 .448-1 1v3c0 .552.449 1 1 1h1V4z" fill="#EBEBEB"/><path d="M13 5H9v9h4c1.654 0 3-1.346 3-3V8c0-1.654-1.346-3-3-3z" fill="#F4F4F4"/><path d="M13 6h-3v7h3c1.1 0 2-.9 2-2V8c0-1.1-.9-2-2-2z" fill="#313131"/><path d="M13 7h-3v5h3c.551 0 1-.448 1-1V8c0-.552-.449-1-1-1z" fill="#EBEBEB"/></g></svg>