<svg ti:v="1" width="16" height="16" viewBox="0 0 16 16" xmlns="http://www.w3.org/2000/svg" xmlns:ti="urn:schemas-jetbrains-com:tisvg"><rect id="frame" width="16" height="16" fill="none"/><linearGradient id="a" x1=".5" y1="0" x2=".5" y2=".994"><stop offset="0" stop-color="#977C1A"/><stop offset="1" stop-color="#6B500E"/></linearGradient><path fill-rule="evenodd" d="M4 6a6 6 0 1 0 12 0A6 6 0 1 0 4 6z" fill="url(#a)"/><linearGradient id="b" x1=".5" y1=".007" x2=".5" y2="1"><stop offset="0" stop-color="#FDF682"/><stop offset="1" stop-color="#EFD300"/></linearGradient><path fill-rule="evenodd" d="M5 6a5 5 0 0 0 5 5 5 5 0 0 0 5-5 5 5 0 0 0-5-5 5 5 0 0 0-5 5z" fill="url(#b)"/><path fill-rule="evenodd" d="M11 6c.848-.115 2-.812 2-1.649v-.685C13 2.686 11.473 2 10 2s-3 .686-3 1.666V4.5h2V3.045c.234-.061 1.766-.061 2 0V5c-.848.115-2 .812-2 1.65V7h2m0 3H9V8h2v2z" fill="#6B5900"/><linearGradient id="c" x1=".5" y1=".003" x2=".5" y2="1.003"><stop offset="0" stop-color="#0077DB"/><stop offset="1" stop-color="#002BAF"/></linearGradient><path fill-rule="evenodd" d="M0 7v9h9v-5H8V7H0z" fill="url(#c)"/><linearGradient id="d" x1=".5" y1=".009" x2=".5" y2="1.009"><stop offset="0" stop-color="#FFF"/><stop offset=".988" stop-color="#77E9FF"/><stop offset="1" stop-color="#77E9FF"/></linearGradient><path fill-rule="evenodd" d="M1 15h6.999V8H1v7z" fill="url(#d)"/><linearGradient id="e" x1=".5" y1=".006" x2=".5" y2="1.013"><stop offset="0" stop-color="#0077DB"/><stop offset="1" stop-color="#002BAF"/></linearGradient><path fill-rule="evenodd" d="M3 9l-1 1h2l.5.5L2 13v1h1l2.5-2.5.5.5v2l1-1V9H3z" fill="url(#e)"/></svg>