<svg ti:v="1" width="16" height="16" viewBox="0 0 16 16" xmlns="http://www.w3.org/2000/svg" xmlns:ti="urn:schemas-jetbrains-com:tisvg"><rect id="frame" width="16" height="16" fill="none"/><linearGradient id="a" x1=".5" y1=".019" x2=".5" y2="1.02"><stop offset="0" stop-color="#5672A1"/><stop offset="1" stop-color="#415980"/></linearGradient><path fill-rule="evenodd" d="M0 4.5A2.5 2.5 0 0 0 2.5 7a2.49 2.49 0 0 0 1.989-1H5V3h-.511A2.49 2.49 0 0 0 2.5 2 2.5 2.5 0 0 0 0 4.5z" fill="url(#a)"/><linearGradient id="b" x1=".5" y1=".019" x2=".5" y2="1.02"><stop offset="0" stop-color="#566980"/><stop offset="1" stop-color="#2D3642"/></linearGradient><path fill-rule="evenodd" d="M8 0C6.345 0 5 1.346 5 3v3c0 1.654 1.345 3 3 3h5c1.654 0 3-1.346 3-3V3c0-1.654-1.346-3-3-3H8z" fill="url(#b)"/><linearGradient id="c" x1=".5" y1=".01" x2=".5" y2="1.001"><stop offset="0" stop-color="#FFF"/><stop offset="1" stop-color="#A7BADB"/></linearGradient><path fill-rule="evenodd" d="M8 1c-1.099 0-2 .9-2 2v3c0 1.1.901 2 2 2h5c1.1 0 2-.9 2-2V3c0-1.1-.9-2-2-2H8z" fill="url(#c)"/><linearGradient id="d" x1=".5" y1="0" x2=".5" y2="1.067"><stop offset="0" stop-color="#A7BADB"/><stop offset="1" stop-color="#FFF"/></linearGradient><path fill-rule="evenodd" d="M8 2c-.551 0-1 .448-1 1v3c0 .552.449 1 1 1h5c.551 0 1-.448 1-1V3c0-.552-.449-1-1-1H8z" fill="url(#d)"/><path fill-rule="evenodd" d="M6 4H3.908A1.496 1.496 0 0 0 1 4.5a1.496 1.496 0 1 0 2.908.5H6V4z" fill="#7ED5FF"/><path fill-rule="evenodd" d="M3 4.5a.5.5 0 1 1-1 0 .5.5 0 0 1 1 0z" fill="#0FF"/><linearGradient id="e" x1=".5" y1="-.005" x2=".5" y2="1.025"><stop offset="0" stop-color="#429041"/><stop offset="1" stop-color="#056E1C"/></linearGradient><path fill-rule="evenodd" d="M2 8v2H0v4h2v2h4v-2h2v-4H6V8H2z" fill="url(#e)"/><linearGradient id="f" x1=".5" y1=".013" x2=".5" y2="1.027"><stop offset="0" stop-color="#A3FFA1"/><stop offset=".012" stop-color="#A3FFA1"/><stop offset=".988" stop-color="#31D454"/><stop offset="1" stop-color="#31D454"/></linearGradient><path fill-rule="evenodd" d="M3 9v2H1v2h2v2h2v-2h2v-2H5V9H3z" fill="url(#f)"/></svg>