<svg ti:v="1" width="16" height="16" viewBox="0 0 16 16" xmlns="http://www.w3.org/2000/svg" xmlns:ti="urn:schemas-jetbrains-com:tisvg"><rect id="frame" width="16" height="16" fill="none"/><linearGradient id="a" x1=".5" y1=".019" x2=".5" y2="1.02"><stop offset="0" stop-color="#5672A1"/><stop offset="1" stop-color="#415980"/></linearGradient><path fill-rule="evenodd" d="M0 5.5A2.5 2.5 0 0 0 2.5 8c.815 0 1.533-.397 1.988-1H5V4h-.512A2.487 2.487 0 0 0 2.5 3 2.5 2.5 0 0 0 0 5.5z" fill="url(#a)"/><linearGradient id="b" x1=".5" y1=".019" x2=".5" y2="1.02"><stop offset="0" stop-color="#566980"/><stop offset="1" stop-color="#2D3642"/></linearGradient><path fill-rule="evenodd" d="M8 1C6.346 1 5 2.345 5 4v3c0 1.654 1.346 3 3 3h5c1.654 0 3-1.346 3-3V4c0-1.655-1.346-3-3-3H8z" fill="url(#b)"/><linearGradient id="c" x1=".5" y1=".01" x2=".5" y2="1.001"><stop offset="0" stop-color="#FFF"/><stop offset="1" stop-color="#A7BADB"/></linearGradient><path fill-rule="evenodd" d="M8 2c-1.1 0-2 .901-2 2v3c0 1.1.9 2 2 2h5c1.1 0 2-.9 2-2V4c0-1.099-.9-2-2-2H8z" fill="url(#c)"/><linearGradient id="d" x1=".5" y1="0" x2=".5" y2="1.067"><stop offset="0" stop-color="#A7BADB"/><stop offset="1" stop-color="#FFF"/></linearGradient><path fill-rule="evenodd" d="M8 3c-.551 0-1 .448-1 1v3c0 .552.449 1 1 1h5c.551 0 1-.448 1-1V4c0-.552-.449-1-1-1H8z" fill="url(#d)"/><path fill-rule="evenodd" d="M6 5H3.908A1.496 1.496 0 0 0 1 5.5a1.496 1.496 0 1 0 2.908.5H6V5z" fill="#7ED5FF"/><path fill-rule="evenodd" d="M3 5.5a.5.5 0 1 1-1 0 .5.5 0 0 1 1 0z" fill="#0FF"/><linearGradient id="e" x1=".31" y1=".31" x2=".708" y2=".708"><stop offset="0" stop-color="#9C7733"/><stop offset="1" stop-color="#6E2121"/></linearGradient><path fill-rule="evenodd" d="M7.586 10L4 13.586v.828L5.586 16h.828L10 12.415v-.829L8.414 10h-.828z" fill="url(#e)"/><linearGradient id="f" x1=".375" y1=".375" x2=".625" y2=".625"><stop offset="0" stop-color="#FFDF77"/><stop offset="1" stop-color="#D88C00"/></linearGradient><path fill-rule="evenodd" d="M5 14l1 1 3-3-1-1-3 3z" fill="url(#f)"/><linearGradient id="g" x1=".5" y1=".012" x2=".5" y2="1"><stop offset="0" stop-color="#3B7480"/><stop offset="1" stop-color="#0A3B6E"/></linearGradient><path fill-rule="evenodd" d="M7 8.5a4.5 4.5 0 1 0 9 0 4.5 4.5 0 0 0-9 0z" fill="url(#g)"/><linearGradient id="h" x1=".5" y1=".006" x2=".5" y2="1"><stop offset="0" stop-color="#D6EFFF"/><stop offset="1" stop-color="#72CAFF"/></linearGradient><path fill-rule="evenodd" d="M8 8.5a3.5 3.5 0 0 0 3.5 3.5c1.934 0 3.5-1.566 3.5-3.5S13.434 5 11.5 5A3.5 3.5 0 0 0 8 8.5z" fill="url(#h)"/><linearGradient id="i" x1=".5" y1=".013" x2=".5" y2="1"><stop offset="0" stop-color="#509EE8"/><stop offset=".736" stop-color="#FFF"/><stop offset="1" stop-color="#FFF"/></linearGradient><path fill-rule="evenodd" d="M9 8.5a2.5 2.5 0 0 0 5 0 2.5 2.5 0 1 0-5 0z" fill="url(#i)"/><linearGradient id="j" x1=".5" y1=".013" x2=".5" y2=".988"><stop offset="0" stop-color="#FFF"/><stop offset=".301" stop-color="#FFF"/><stop offset="1" stop-color="#BCF6FF"/></linearGradient><path fill-rule="evenodd" d="M10 8.5a1.5 1.5 0 0 0 3 0 1.5 1.5 0 0 0-3 0z" fill="url(#j)"/></svg>