<svg ti:v="1" width="16" height="16" viewBox="0 0 16 16" xmlns="http://www.w3.org/2000/svg" xmlns:ti="urn:schemas-jetbrains-com:tisvg"><rect id="frame" width="16" height="16" fill="none"/><g fill-rule="evenodd"><path d="M11 1V0H6v1H2v13h14V1h-5z" fill="#F4F4F4"/><path d="M11 13h4V2h-4v11z" fill="#313131"/><path d="M14 5h-2V3h2m0 7h-2V9h2m0 3h-2v-1h2v1z" fill="#EBEBEB"/><path d="M3 13h3V2H3v11z" fill="#313131"/><path d="M4 5h1V3H4m0 7h1V9H4m0 3h1v-1H4v1z" fill="#EBEBEB"/><path d="M7 13h3V1H7v12z" fill="#313131"/><path d="M8 3h1V2H8m0 8h1V9H8m0 3h1v-1H8v1z" fill="#EBEBEB"/><path d="M2 16v-2H0v-4h2V8h4v2h2v4H6v2H2z" fill="#F4F4F4"/><path d="M7 11H5V9H3v2H1v2h2v2h2v-2h2v-2z" fill="#388934"/></g></svg>