<svg ti:v="1" width="16" height="16" viewBox="0 0 16 16" xmlns="http://www.w3.org/2000/svg" xmlns:ti="urn:schemas-jetbrains-com:tisvg"><rect id="frame" width="16" height="16" fill="none"/><linearGradient id="a" x1=".5" y1=".019" x2=".5" y2="1.02"><stop offset="0" stop-color="#566980"/><stop offset="1" stop-color="#2D3642"/></linearGradient><path fill-rule="evenodd" d="M8 2C6.345 2 5 3.346 5 5v3c0 1.654 1.345 3 3 3h2V2H8z" fill="url(#a)"/><linearGradient id="b" x1=".5" y1=".019" x2=".5" y2="1.02"><stop offset="0" stop-color="#5672A1"/><stop offset="1" stop-color="#415980"/></linearGradient><path fill-rule="evenodd" d="M0 6.5A2.5 2.5 0 0 0 2.5 9a2.49 2.49 0 0 0 1.989-1H5V5h-.511A2.49 2.49 0 0 0 2.5 4 2.5 2.5 0 0 0 0 6.5z" fill="url(#b)"/><linearGradient id="c" x1=".5" y1=".01" x2=".5" y2="1.001"><stop offset="0" stop-color="#FFF"/><stop offset="1" stop-color="#A7BADB"/></linearGradient><path fill-rule="evenodd" d="M8 3c-1.099 0-2 .9-2 2v3c0 1.1.901 2 2 2h1V3H8z" fill="url(#c)"/><path fill-rule="evenodd" d="M6 6H3.908A1.496 1.496 0 0 0 1 6.5a1.496 1.496 0 1 0 2.908.5H6V6z" fill="#7ED5FF"/><path fill-rule="evenodd" d="M3 6.5a.5.5 0 1 1-1 0 .5.5 0 0 1 1 0z" fill="#0FF"/><linearGradient id="d" x1=".5" y1="0" x2=".5" y2="1.067"><stop offset="0" stop-color="#A7BADB"/><stop offset="1" stop-color="#FFF"/></linearGradient><path fill-rule="evenodd" d="M8 4c-.551 0-1 .449-1 1v3c0 .552.449 1 1 1h1V4H8z" fill="url(#d)"/><linearGradient id="e" x1=".5" y1=".019" x2=".5" y2="1.02"><stop offset="0" stop-color="#566980"/><stop offset="1" stop-color="#2D3642"/></linearGradient><path fill-rule="evenodd" d="M9 5v9h4c1.654 0 3-1.345 3-3V8c0-1.654-1.346-3-3-3H9z" fill="url(#e)"/><linearGradient id="f" x1=".5" y1=".01" x2=".5" y2="1.001"><stop offset="0" stop-color="#FFF"/><stop offset="1" stop-color="#A7BADB"/></linearGradient><path fill-rule="evenodd" d="M10 6v7h3c1.1 0 2-.901 2-2V8c0-1.1-.9-2-2-2h-3z" fill="url(#f)"/><linearGradient id="g" x1=".5" y1="0" x2=".5" y2="1.067"><stop offset="0" stop-color="#A7BADB"/><stop offset="1" stop-color="#FFF"/></linearGradient><path fill-rule="evenodd" d="M10 7v5h3c.551 0 1-.448 1-1V8c0-.552-.449-1-1-1h-3z" fill="url(#g)"/></svg>