<svg ti:v="1" width="16" height="16" viewBox="0 0 16 16" xmlns="http://www.w3.org/2000/svg" xmlns:ti="urn:schemas-jetbrains-com:tisvg"><rect id="frame" width="16" height="16" fill="none"/><g fill-rule="evenodd"><path d="M16 6A6 6 0 1 1 4 6a6 6 0 0 1 12 0z" fill="#F4F4F4"/><path d="M10 1a5 5 0 0 0-5 5 5 5 0 0 0 5 5 5 5 0 0 0 5-5 5 5 0 0 0-5-5z" fill="#313131"/><path d="M11 6c.848-.115 2-.812 2-1.649v-.685C13 2.686 11.473 2 10 2s-3 .686-3 1.666V4.5h2V3.045c.234-.061 1.766-.061 2 0V5c-.848.115-2 .812-2 1.65V7h2m0 3H9V8h2v2z" fill="#EBEBEB"/><path d="M8 11V7H0v9h9v-5H8z" fill="#F4F4F4"/><path d="M8 15H1V8h7v7z" fill="#313131"/><path d="M3 9l-1 1h2l.5.5L2 13v1h1l2.5-2.5.5.5v2l1-1V9H3z" fill="#EBEBEB"/></g></svg>