<svg ti:v="1" width="16" height="16" viewBox="0 0 16 16" xmlns="http://www.w3.org/2000/svg" xmlns:ti="urn:schemas-jetbrains-com:tisvg"><rect id="frame" width="16" height="16" fill="none"/><g fill-rule="evenodd"><path d="M4.488 4A2.486 2.486 0 0 0 2.5 3a2.5 2.5 0 1 0 0 5c.815 0 1.532-.396 1.988-1H5V4h-.512z" fill="#F4F4F4"/><path d="M13 1H8C6.346 1 5 2.346 5 4v3c0 1.654 1.346 3 3 3h5c1.654 0 3-1.346 3-3V4c0-1.654-1.346-3-3-3z" fill="#F4F4F4"/><path d="M13 2H8c-1.1 0-2 .9-2 2v3c0 1.1.9 2 2 2h5c1.1 0 2-.9 2-2V4c0-1.1-.9-2-2-2z" fill="#313131"/><path d="M8 8c-.551 0-1-.448-1-1V4c0-.552.449-1 1-1h5c.551 0 1 .448 1 1v3c0 .552-.449 1-1 1H8z" fill="#EBEBEB"/><path d="M6 5H3.908A1.496 1.496 0 0 0 1 5.5a1.496 1.496 0 1 0 2.908.5H6V5z" fill="#313131"/><path d="M3 5.5a.5.5 0 1 1-1 0 .5.5 0 0 1 1 0z" fill="#EBEBEB"/><path d="M7.586 10L4 13.586v.828L5.586 16h.828L10 12.414v-.828L8.414 10h-.828z" fill="#F4F4F4"/><path d="M5 14l1 1 3-3-1-1-3 3z" fill="#00529C"/><path d="M16 8.5a4.5 4.5 0 1 1-9 0 4.5 4.5 0 0 1 9 0z" fill="#F4F4F4"/><path d="M15 8.5c0 1.934-1.566 3.5-3.5 3.5A3.499 3.499 0 0 1 8 8.5C8 6.566 9.566 5 11.5 5S15 6.566 15 8.5z" fill="#00529C"/><path d="M14 8.5a2.5 2.5 0 1 1-5 0 2.5 2.5 0 0 1 5 0z" fill="#EBEBEB"/><path d="M13 8.5a1.5 1.5 0 1 1-3.001-.001A1.5 1.5 0 0 1 13 8.5z" fill="#EBEBEB"/></g></svg>