<svg ti:v="1" width="16" height="16" viewBox="0 0 16 16" xmlns="http://www.w3.org/2000/svg" xmlns:ti="urn:schemas-jetbrains-com:tisvg"><rect id="frame" width="16" height="16" fill="none"/><g fill-rule="evenodd"><path d="M4.488 3A2.486 2.486 0 0 0 2.5 2a2.5 2.5 0 1 0 0 5c.815 0 1.532-.396 1.988-1H5V3h-.512z" fill="#F4F4F4"/><path d="M13 0H8C6.346 0 5 1.346 5 3v3c0 1.654 1.346 3 3 3h5c1.654 0 3-1.346 3-3V3c0-1.654-1.346-3-3-3z" fill="#F4F4F4"/><path d="M13 1H8c-1.1 0-2 .9-2 2v3c0 1.1.9 2 2 2h5c1.1 0 2-.9 2-2V3c0-1.1-.9-2-2-2z" fill="#313131"/><path d="M8 7c-.551 0-1-.448-1-1V3c0-.552.449-1 1-1h5c.551 0 1 .448 1 1v3c0 .552-.449 1-1 1H8z" fill="#EBEBEB"/><path d="M6 4H3.908A1.496 1.496 0 0 0 1 4.5a1.496 1.496 0 1 0 2.908.5H6V4z" fill="#313131"/><path d="M3 4.5a.5.5 0 1 1-1 0 .5.5 0 0 1 1 0z" fill="#EBEBEB"/><path d="M2 16v-2H0v-4h2V8h4v2h2v4H6v2H2z" fill="#F4F4F4"/><path d="M7 11H5V9H3v2H1v2h2v2h2v-2h2v-2z" fill="#388934"/></g></svg>