<svg xmlns="http://www.w3.org/2000/svg" width="16" height="16" viewBox="0 0 16 16"><rect id="frame" width="16" height="16" fill="none"/><g fill="none" fill-rule="evenodd"><path fill="#6E6E6E" d="M14 6c0 .552-.449 1-1 1H8c-.551 0-1-.448-1-1V3c0-.552.449-1 1-1h5c.551 0 1 .448 1 1v3zM2.5 5a.5.5 0 1 1 0-1 .5.5 0 0 1 0 1zM13 1H8c-1.1 0-2 .9-2 2v1H3.908A1.496 1.496 0 0 0 1 4.5a1.496 1.496 0 1 0 2.908.5H6v1c0 1.1.9 2 2 2h5c1.1 0 2-.9 2-2V3c0-1.1-.9-2-2-2z"/><path fill="#59A869" d="M7 11H5V9H3v2H1v2h2v2h2v-2h2z"/></g></svg>