<svg xmlns="http://www.w3.org/2000/svg" width="16" height="16" viewBox="0 0 16 16"><rect id="frame" width="16" height="16" fill="none"/><g fill="#6E6E6E" fill-rule="evenodd"><path d="M2.5 6a.5.5 0 1 1 0-1 .5.5 0 0 1 0 1M7 8.5c0-.357.052-.701.131-1.034A.976.976 0 0 1 7 7V4c0-.552.449-1 1-1h5c.551 0 1 .448 1 1v.76a4.5 4.5 0 0 1 1 .943V4c0-1.1-.9-2-2-2H8c-1.1 0-2 .9-2 2v1H3.908A1.496 1.496 0 0 0 1 5.5a1.496 1.496 0 1 0 2.908.5H6v1c0 .744.417 1.389 1.023 1.733C7.02 8.654 7 8.58 7 8.5"/><path d="M14 8.5a2.5 2.5 0 1 0-5 0 2.5 2.5 0 0 0 5 0zm1 0c0 1.934-1.566 3.5-3.5 3.5A3.499 3.499 0 0 1 8 8.5C8 6.566 9.566 5 11.5 5S15 6.566 15 8.5zM8 11l1 1-3 3-1-1 3-3z"/></g></svg>