<svg ti:v="1" width="16" height="16" viewBox="0 0 16 16" xmlns="http://www.w3.org/2000/svg" xmlns:ti="urn:schemas-jetbrains-com:tisvg"><rect id="frame" width="16" height="16" fill="none"/><g fill-rule="evenodd"><path d="M2 15V1h7.414L14 5.586V15H2z" fill="#242424"/><path d="M9 2H3v12h10V6L9 2z" fill="#C3C3C3"/><path d="M9 6V4H5v8h6V6H9z" fill="#292929"/><path d="M8 6a1 1 0 1 1-2 0 1 1 0 0 1 2 0z" fill="#C3C3C3"/><path d="M11 12v-2L9.5 8 5 10v2h6z" fill="#C3C3C3"/><path d="M9.5 10L5 12h6l-1.5-2z" fill="#292929"/></g></svg>