<svg ti:v="1" width="16" height="16" viewBox="0 0 16 16" xmlns="http://www.w3.org/2000/svg" xmlns:ti="urn:schemas-jetbrains-com:tisvg"><rect id="frame" width="16" height="16" fill="none"/><linearGradient id="a" x1=".5" y1=".003" x2=".5" y2="1.003"><stop offset="0" stop-color="#7B9500"/><stop offset="1" stop-color="#466200"/></linearGradient><path fill-rule="evenodd" d="M2 15V1h7.414L14 5.586V15H2z" fill="url(#a)"/><linearGradient id="b" x1=".5" y1="0" x2=".5" y2="1"><stop offset="0" stop-color="#FFF"/><stop offset="1" stop-color="#F0FFEF"/></linearGradient><path fill-rule="evenodd" d="M9 2H3v12h10V6L9 2z" fill="url(#b)"/><linearGradient id="c" x1=".908" y1=".194" x2="-.092" y2=".944"><stop offset="0" stop-color="#93EDFF"/><stop offset="1" stop-color="#FFF"/></linearGradient><path fill-rule="evenodd" d="M9 6V4H5v8h6V6H9z" fill="url(#c)"/><path fill-rule="evenodd" d="M8 6a1 1 0 1 1-2 0 1 1 0 0 1 2 0z" fill="#F90"/><linearGradient id="d" x1=".5" y1=".003" x2=".5" y2="1.003"><stop offset="0" stop-color="#8EAC00"/><stop offset="1" stop-color="#608700"/></linearGradient><path fill-rule="evenodd" d="M5 10v2h6v-2L9.5 8 5 10z" fill="url(#d)"/><linearGradient id="e" x1=".5" y1="0" x2=".5" y2="1.012"><stop offset="0" stop-color="#2FDB00"/><stop offset="1" stop-color="#83AF00"/></linearGradient><path fill-rule="evenodd" d="M5 12h6l-1.5-2L5 12z" fill="url(#e)"/></svg>