<svg ti:v="1" width="16" height="16" viewBox="0 0 16 16" xmlns="http://www.w3.org/2000/svg" xmlns:ti="urn:schemas-jetbrains-com:tisvg"><rect id="frame" width="16" height="16" fill="none"/><linearGradient id="a" x1=".5" y1="0" x2=".5" y2="1"><stop offset="0" stop-color="#7C6E48"/><stop offset="1" stop-color="#60492F"/></linearGradient><path fill-rule="evenodd" d="M2 14V0h7.414L14 4.586V14H2z" fill="url(#a)"/><linearGradient id="b" x1=".5" y1="0" x2=".5" y2="1"><stop offset="0" stop-color="#E2D8BC"/><stop offset="1" stop-color="#E2CDB3"/></linearGradient><path fill-rule="evenodd" d="M9 1H3v12h10V5L9 1z" fill="url(#b)"/><linearGradient id="c" x1=".5" y1=".009" x2=".5" y2="1.009"><stop offset="0" stop-color="#FFF2D4"/><stop offset="1" stop-color="#FFF"/></linearGradient><path fill-rule="evenodd" d="M9 5V3H5v8h6V5H9z" fill="url(#c)"/><linearGradient id="d" x1=".5" y1="0" x2=".5" y2="1"><stop offset="0" stop-color="#5B6669"/><stop offset="1" stop-color="#313638"/></linearGradient><path fill-rule="evenodd" d="M1 16V6h2.414l2 2h5.172l2-2H15v10H1z" fill="url(#d)"/><linearGradient id="e" x1=".5" y1="0" x2=".5" y2="1"><stop offset="0" stop-color="#BFD6D8"/><stop offset="1" stop-color="#A1AFB8"/></linearGradient><path fill-rule="evenodd" d="M13 7l-2 2H5L3 7H2v8h12V7h-1z" fill="url(#e)"/><path fill-rule="evenodd" d="M13 7l-2 2H5L3 7H2v1h1l2 2h6l2-2h1V7h-1z" fill="#EDFEFF"/><path fill-rule="evenodd" d="M6 13h4.001v-1H6v1z" fill="#242A2C"/><path fill-rule="evenodd" d="M6 12h4.001v-1.001H6V12z" fill="#EDFEFF"/></svg>