<svg ti:v="1" width="16" height="16" viewBox="0 0 16 16" xmlns="http://www.w3.org/2000/svg" xmlns:ti="urn:schemas-jetbrains-com:tisvg"><rect id="frame" width="16" height="16" fill="none"/><g fill-rule="evenodd"><path d="M2 14V0h7.414L14 4.586V14H2z" fill="#242424"/><path d="M9 1H3v12h10V5L9 1z" fill="#C3C3C3"/><path d="M9 5V3H5v8h6V5H9z" fill="#292929"/><path d="M1 16V6h2.414l2 2h5.172l2-2H15v10H1z" fill="#242424"/><path d="M13 7l-2 2H5L3 7H2v8h12V7h-1z" fill="#C3C3C3"/><path d="M13 7l-2 2H5L3 7H2v1h1l2 2h6l2-2h1V7h-1z" fill="#C3C3C3"/><path d="M6 13h4v-1H6v1z" fill="#292929"/><path d="M6 12h4v-1.001H6V12z" fill="#292929"/></g></svg>