<svg ti:v="1" width="16" height="16" viewBox="0 0 16 16" xmlns="http://www.w3.org/2000/svg" xmlns:ti="urn:schemas-jetbrains-com:tisvg"><rect id="frame" width="16" height="16" fill="none"/><path d="M1 15V3h6.586l2-2H16v14H1z" fill="#F4F4F4"/><path d="M14 2h1v1h-1zm0 3h1V4h-1zm-2 0h1V4h-1zm-2 0h1V4h-1zm1-1h1V3h-1zm2 0h1V3h-1zm1 3h1V6h-1zm0 2h1V8h-1zm0 2h1v-1h-1zm0 2h1v-1h-1zm-1 1h1v-1h-1zm-1-1h-1v1h1zm-2 0H9v1h1zm-3 1h1v-1H7zm-2 0h1v-1H5zm-2 0h1v-1H3zm-1-3h1v-1H2zm0 2h1v-1H2zm0-4h1V8H2zm0-2h1V6H2zm0-2h1V4H2zm2 0h1V4H4zm2 0h1V4H6zm2 0h1V4H8zm5 1h1V5h-1zm-2 0h1V5h-1zM3 6h1V5H3zm2 0h1V5H5zm2 0h1V5H7zm2 0h1V5H9zm0-2h1V3H9zm1-1h1V2h-1zm2 0h1V2h-1zm0 0" fill="#C7781A"/></svg>