<svg ti:v="1" width="16" height="16" viewBox="0 0 16 16" xmlns="http://www.w3.org/2000/svg" xmlns:ti="urn:schemas-jetbrains-com:tisvg"><rect id="frame" width="16" height="16" fill="none"/><linearGradient id="a" x1=".5" y1=".002" x2=".5" y2=".996"><stop offset="0" stop-color="#C28C21"/><stop offset="1" stop-color="#634933"/></linearGradient><path d="M1 15V3h6.586l2-2H16v14H1z" fill="url(#a)"/><linearGradient id="b" x1=".5" y1=".002" x2=".5" y2=".996"><stop offset="0" stop-color="#FFE9BD"/><stop offset="1" stop-color="#D4A24C"/></linearGradient><path d="M15 14V2h-5L8 4H2v10h13z" fill="url(#b)"/><linearGradient id="c" x1=".5" y1=".002" x2=".5" y2=".996"><stop offset="0" stop-color="#B88143"/><stop offset="1" stop-color="#8A4717"/></linearGradient><path d="M3 6h11v7H3z" fill="url(#c)"/><linearGradient id="d" x1=".5" y1=".003" x2=".5" y2="1.004"><stop offset="0" stop-color="#0078DA"/><stop offset="1" stop-color="#002CAF"/></linearGradient><path d="M0 6h10v10H0z" fill="url(#d)"/><linearGradient id="e" x1=".5" y1=".009" x2=".5" y2="1.009"><stop offset="0" stop-color="#FFF"/><stop offset=".988" stop-color="#78E9FF"/></linearGradient><path d="M1 7h8v8H1z" fill="url(#e)"/><linearGradient id="f" x1=".5" y1=".006" x2=".5" y2="1.013"><stop offset="0" stop-color="#0078DA"/><stop offset="1" stop-color="#002CAF"/></linearGradient><path d="M3.4 8L2 9.4h3.6L2 13l1 1 3.6-3.6V14L8 12.6V8H3.4z" fill="url(#f)"/></svg>