<svg ti:v="1" width="16" height="16" viewBox="0 0 16 16" xmlns="http://www.w3.org/2000/svg" xmlns:ti="urn:schemas-jetbrains-com:tisvg"><rect id="frame" width="16" height="16" fill="none"/><linearGradient id="a" x1="0" y1=".5" x2="1" y2=".5"><stop offset="0" stop-color="#70693F"/><stop offset=".5" stop-color="#3F6070"/><stop offset="1" stop-color="#42753F"/></linearGradient><path fill-rule="evenodd" d="M11 1V0H6v1H2v13h14V1h-5z" fill="url(#a)"/><linearGradient id="b" x1="0" y1=".5" x2="1" y2=".5"><stop offset="0" stop-color="#AAFFA8"/><stop offset="1" stop-color="#079C00"/></linearGradient><path fill-rule="evenodd" d="M11 13h4V2h-4v11z" fill="url(#b)"/><path fill-rule="evenodd" d="M14 5h-2V3h2m0 7h-2V9h2m0 3h-2v-1h2v1z" fill="#00630C"/><linearGradient id="c" x1="0" y1=".5" x2="1" y2=".5"><stop offset="0" stop-color="#FDFFC1"/><stop offset="1" stop-color="#FFA723"/></linearGradient><path fill-rule="evenodd" d="M3 13h3V2H3v11z" fill="url(#c)"/><path fill-rule="evenodd" d="M4 5h1V3H4m0 7h1V9H4m0 3h1v-1H4v1z" fill="#995D00"/><linearGradient id="d" x1="0" y1=".5" x2="1" y2=".5"><stop offset="0" stop-color="#C1EBFF"/><stop offset="1" stop-color="#23B8FF"/></linearGradient><path fill-rule="evenodd" d="M7 13h3V1H7v12z" fill="url(#d)"/><path fill-rule="evenodd" d="M8 3h1V2H8m0 8h1V9H8m0 3h1v-1H8v1z" fill="#002D70"/><linearGradient id="e" x1=".5" y1="-.005" x2=".5" y2="1.025"><stop offset="0" stop-color="#429041"/><stop offset="1" stop-color="#056E1C"/></linearGradient><path fill-rule="evenodd" d="M2 16v-2H0v-4h2V8h4v2h2v4H6v2H2z" fill="url(#e)"/><linearGradient id="f" x1=".5" y1=".013" x2=".5" y2="1.027"><stop offset="0" stop-color="#A3FFA1"/><stop offset=".012" stop-color="#A3FFA1"/><stop offset=".988" stop-color="#31D454"/><stop offset="1" stop-color="#31D454"/></linearGradient><path fill-rule="evenodd" d="M7 11H5V9H3v2H1v2h2v2h2v-2h2v-2z" fill="url(#f)"/></svg>