<svg ti:v="1" width="16" height="16" viewBox="0 0 16 16" xmlns="http://www.w3.org/2000/svg" xmlns:ti="urn:schemas-jetbrains-com:tisvg"><rect id="frame" width="16" height="16" fill="none"/><linearGradient id="a" x1=".5" y1="0" x2=".5" y2="1"><stop offset="0" stop-color="#0077B3"/><stop offset="1" stop-color="#00527D"/></linearGradient><path d="M1 15V3h6.586l2-2H16v14H1z" fill="url(#a)"/><linearGradient id="b" x1=".5" y1="0" x2=".5" y2="1"><stop offset="0" stop-color="#BDE7FF"/><stop offset="1" stop-color="#6BCDFF"/></linearGradient><path d="M14 2h1v1h-1zm0 3h1V4h-1zm-2 0h1V4h-1zm-2 0h1V4h-1zm1-1h1V3h-1zm2 0h1V3h-1zm1 3h1V6h-1zm0 2h1V8h-1zm0 2h1v-1h-1zm0 2h1v-1h-1zm-1 1h1v-1h-1zm-1-1h-1v1h1zm-2 0H9v1h1zm-3 1h1v-1H7zm-2 0h1v-1H5zm-2 0h1v-1H3zm-1-3h1v-1H2zm0 2h1v-1H2zm0-4h1V8H2zm0-2h1V6H2zm0-2h1V4H2zm2 0h1V4H4zm2 0h1V4H6zm2 0h1V4H8zm5 1h1V5h-1zm-2 0h1V5h-1zM3 6h1V5H3zm2 0h1V5H5zm2 0h1V5H7zm2 0h1V5H9zm0-2h1V3H9zm1-1h1V2h-1zm2 0h1V2h-1zm0 0" fill="url(#b)"/><path d="M8 8.5a1.5 1.5 0 1 1-3 0 1.5 1.5 0 0 1 3 0z" fill="#FFF"/><path d="M13 10a2 2 0 1 1-4 0 2 2 0 0 1 4 0z" fill="#FFF"/></svg>