<svg ti:v="1" width="16" height="16" viewBox="0 0 16 16" xmlns="http://www.w3.org/2000/svg" xmlns:ti="urn:schemas-jetbrains-com:tisvg"><rect id="frame" width="16" height="16" fill="none"/><linearGradient id="a" x1=".5" y1="0" x2=".5" y2="1"><stop offset="0" stop-color="#0077B3"/><stop offset="1" stop-color="#00527D"/></linearGradient><path d="M1 15V3h6.586l2-2H16v14H1z" fill="url(#a)"/><linearGradient id="b" x1=".5" y1="0" x2=".5" y2="1"><stop offset="0" stop-color="#82CBF5"/><stop offset="1" stop-color="#0090DB"/></linearGradient><path d="M15 14V2h-5L8 4H2v10h13z" fill="url(#b)"/><linearGradient id="c" x1=".5" y1="0" x2=".5" y2="1"><stop offset="0" stop-color="#0077B3"/><stop offset="1" stop-color="#00527D"/></linearGradient><path d="M3 6h11v7H3z" fill="url(#c)"/><path d="M8 8.5a1.5 1.5 0 1 1-3 0 1.5 1.5 0 0 1 3 0z" fill="#FFF"/><path d="M13 10a2 2 0 1 1-4 0 2 2 0 0 1 4 0z" fill="#FFF"/></svg>