<svg ti:v="1" width="16" height="16" viewBox="0 0 16 16" xmlns="http://www.w3.org/2000/svg" xmlns:ti="urn:schemas-jetbrains-com:tisvg"><rect id="frame" width="16" height="16" fill="none"/><g fill-rule="evenodd"><path d="M8 10H7V9h1m6-1V7h-1V6h-3v1H9V2H7V1H4v1H2v7h2v1h1v1H4v3h1v1h3v-1h1v-2h1v1h3v-1h1v-1h1V8h-1z" fill="#242424"/><path d="M8 8H7V7h1M4 8H3V7h1m4-3H7V3h1M4 4H3V3h1m3 2V4H6V2H5v2H4v1H3v1h1v1h1v2h1V7h1V6h1V5m0 8H7v1H6v-1H5v-1h1v-1h1v1h1m5-3V8h-1V7h-1v1h-1v1H9v1h1v1h1v1h1v-1h1v-1h1V9h-1z" fill="#E8A34D"/><path d="M6 6H5V5h1m6 5h-1V9h1v1z" fill="#282828"/></g></svg>