<svg ti:v="1" width="16" height="16" viewBox="0 0 16 16" xmlns="http://www.w3.org/2000/svg" xmlns:ti="urn:schemas-jetbrains-com:tisvg"><rect id="frame" width="16" height="16" fill="none"/><linearGradient id="a" x1=".5" y1=".003" x2=".5" y2="1.003"><stop offset="0" stop-color="#7C6D48"/><stop offset="1" stop-color="#60492F"/></linearGradient><path fill-rule="evenodd" d="M2 14V0h7.414L14 4.586V14H2z" fill="url(#a)"/><linearGradient id="b" x1=".5" y1=".004" x2=".5" y2="1"><stop offset="0" stop-color="#E2D7BC"/><stop offset="1" stop-color="#E2CCB3"/></linearGradient><path fill-rule="evenodd" d="M9 1H3v12h10V5L9 1z" fill="url(#b)"/><linearGradient id="c" x1=".5" y1=".012" x2=".5" y2="1.006"><stop offset="0" stop-color="#FFF2D3"/><stop offset="1" stop-color="#FFF"/></linearGradient><path fill-rule="evenodd" d="M9 5V3H5v8h6V5H9z" fill="url(#c)"/><linearGradient id="d" x1=".5" y1="0" x2=".5" y2="1"><stop offset="0" stop-color="#663787"/><stop offset="1" stop-color="#25093B"/></linearGradient><path fill-rule="evenodd" d="M7.873 7H7.32L4.227 9.436 2.337 8h-.67L0 9.25v4.5L1.667 15h.67l1.89-1.436L7.32 16h.553L11 14.659V8.341L7.873 7z" fill="url(#d)"/><linearGradient id="e" x1=".5" y1="0" x2=".5" y2="1"><stop offset="0" stop-color="#DEB3FF"/><stop offset="1" stop-color="#B352FF"/></linearGradient><path fill-rule="evenodd" d="M8 13l-2.512-1.5L8 10m-6.169 2.594v-2.188L3.223 11.5M7.667 8l-3.43 2.699L2 9l-1 .75v3.5L2 14l2.237-1.699L7.667 15 10 14V9L7.667 8z" fill="url(#e)"/></svg>