<svg ti:v="1" width="16" height="16" viewBox="0 0 16 16" xmlns="http://www.w3.org/2000/svg" xmlns:ti="urn:schemas-jetbrains-com:tisvg"><rect id="frame" width="16" height="16" fill="none"/><g fill-rule="evenodd"><path d="M2 14V0h7.414L14 4.586V14H2z" fill="#F4F4F4"/><path d="M9 1H3v12h10V5L9 1z" fill="#313131"/><path d="M9 5V3H5v8h6V5H9z" fill="#EBEBEB"/><path d="M7.873 7H7.32L4.227 9.436 2.337 8h-.67L0 9.25v4.5L1.667 15h.67l1.89-1.436L7.32 16h.553L11 14.659V8.341L7.873 7z" fill="#F4F4F4"/><path d="M8 13l-2.512-1.5L8 10m-6.169 2.594v-2.188L3.223 11.5M7.667 8l-3.43 2.699L2 9l-1 .75v3.5L2 14l2.237-1.699L7.667 15 10 14V9L7.667 8z" fill="#642D8C"/></g></svg>