<svg ti:v="1" width="16" height="16" viewBox="0 0 16 16" xmlns="http://www.w3.org/2000/svg" xmlns:ti="urn:schemas-jetbrains-com:tisvg"><rect id="frame" width="16" height="16" fill="none"/><linearGradient id="a" x1=".5" y1=".003" x2=".5" y2="1.004"><stop offset="0" stop-color="#445B60"/><stop offset="1" stop-color="#263336"/></linearGradient><path fill-rule="evenodd" d="M5 11h11V0H5v11z" fill="url(#a)"/><linearGradient id="b" x1="0" y1=".5" x2="1" y2=".5"><stop offset="0" stop-color="#FFF"/><stop offset="1" stop-color="#C1DAFF"/></linearGradient><path fill-rule="evenodd" d="M6 5h4V2H6v3z" fill="url(#b)"/><linearGradient id="c" x1="0" y1=".5" x2="1" y2=".5"><stop offset="0" stop-color="#FFF"/><stop offset="1" stop-color="#C1DAFF"/></linearGradient><path fill-rule="evenodd" d="M6 10h4V6.999H6V10z" fill="url(#c)"/><linearGradient id="d" x1="0" y1=".5" x2="1" y2=".5"><stop offset="0" stop-color="#FFF"/><stop offset="1" stop-color="#C1DAFF"/></linearGradient><path fill-rule="evenodd" d="M11 5h4V2h-4v3z" fill="url(#d)"/><linearGradient id="e" x1="0" y1=".5" x2="1" y2=".5"><stop offset="0" stop-color="#FFF"/><stop offset="1" stop-color="#C1DAFF"/></linearGradient><path fill-rule="evenodd" d="M11 10h4V6.999h-4V10z" fill="url(#e)"/><path fill-rule="evenodd" d="M10 2H6V1h4v1z" fill="#94BDFF"/><path fill-rule="evenodd" d="M15 2h-4V1h4v1z" fill="#94BDFF"/><path fill-rule="evenodd" d="M10 7H6V6h4v1z" fill="#94BDFF"/><path fill-rule="evenodd" d="M15 7h-4V6h4v1z" fill="#94BDFF"/><linearGradient id="f" x1=".5" y1=".017" x2=".5" y2="1.008"><stop offset="0" stop-color="#8C0A00"/><stop offset="1" stop-color="#C60000"/></linearGradient><path fill-rule="evenodd" d="M11 5L6 8 4.814 6c-.239-.236-.604-1-1.316-1a2.12 2.12 0 0 0-1.55.675c-.785.819-.783 1.37-.119 2.325L4 10l-2.905 2.109c-.421.444-1.094.903-1.095 1.533-.001.63.233 1.223.655 1.673.422.442.981.685 1.575.685.593 0 1.152-.586 1.546-1L6 12l4 4h3l-5-6 5-5h-2z" fill="url(#f)"/><linearGradient id="g" x1=".5" y1="0" x2=".5" y2="1"><stop offset="0" stop-color="#FFA88E"/><stop offset="1" stop-color="red"/></linearGradient><path fill-rule="evenodd" d="M10.436 6L6 9 3.96 6.282c-.346-.396-1.047-.342-1.387 0a.996.996 0 0 0 0 1.405L5 10l-3.813 3.309a.99.99 0 0 0 0 1.404.969.969 0 0 0 1.386 0L6 11l4.5 4h.5l-4-5 4-4h-.564z" fill="url(#g)"/></svg>