<svg ti:v="1" width="16" height="16" viewBox="0 0 16 16" xmlns="http://www.w3.org/2000/svg" xmlns:ti="urn:schemas-jetbrains-com:tisvg"><rect id="frame" width="16" height="16" fill="none"/><linearGradient id="a" x1=".5" y1=".002" x2=".5" y2=".996"><stop offset="0" stop-color="#C28C21"/><stop offset="1" stop-color="#634933"/></linearGradient><path d="M1 15V3h6.586l2-2H16v14H1z" fill="url(#a)"/><linearGradient id="b" x1=".5" y1=".002" x2=".5" y2=".996"><stop offset="0" stop-color="#FFE9BD"/><stop offset="1" stop-color="#D4A24C"/></linearGradient><path d="M15 14V2h-5L8 4H2v10h13z" fill="url(#b)"/><linearGradient id="c" x1=".5" y1=".002" x2=".5" y2=".996"><stop offset="0" stop-color="#B88143"/><stop offset="1" stop-color="#8A4717"/></linearGradient><path d="M3 6h11v7H3z" fill="url(#c)"/><linearGradient id="d" x1=".5" y1=".003" x2=".5" y2="1.003"><stop offset="0" stop-color="#445C61"/><stop offset="1" stop-color="#263336"/></linearGradient><path d="M0 7h9v9H0z" fill="url(#d)"/><linearGradient id="e" x1="0" y1=".5" x2="1" y2=".5"><stop offset="0" stop-color="#FFF"/><stop offset="1" stop-color="#C1D9FF"/></linearGradient><path d="M1 9h3v2H1z" fill="url(#e)"/><linearGradient id="f" x1="0" y1=".5" x2="1" y2=".5"><stop offset="0" stop-color="#FFF"/><stop offset="1" stop-color="#C1D9FF"/></linearGradient><path d="M1 13h3v2H1z" fill="url(#f)"/><linearGradient id="g" x1="0" y1=".5" x2="1" y2=".5"><stop offset="0" stop-color="#FFF"/><stop offset="1" stop-color="#C1D9FF"/></linearGradient><path d="M5 9h3v2H5z" fill="url(#g)"/><linearGradient id="h" x1="0" y1=".5" x2="1" y2=".5"><stop offset="0" stop-color="#FFF"/><stop offset="1" stop-color="#C1D9FF"/></linearGradient><path d="M5 13h3v2H5z" fill="url(#h)"/><path d="M1 8h3v1H1z" fill="#57B6FF"/><path d="M5 8h3v1H5z" fill="#57B6FF"/><path d="M1 12h3v1H1z" fill="#57B6FF"/><path d="M5 12h3v1H5z" fill="#57B6FF"/></svg>