<svg ti:v="1" width="16" height="16" viewBox="0 0 16 16" xmlns="http://www.w3.org/2000/svg" xmlns:ti="urn:schemas-jetbrains-com:tisvg"><rect id="frame" width="16" height="16" fill="none"/><path d="M2 14V0h11.414L16 2.586V14H2z" fill="#F4F4F4"/><path d="M15 3v10H3V1h10l2 2z" fill="#323232"/><path d="M6 1h6v5H6z" fill="#EBEBEB"/><path d="M9 1h2v3H9z" fill="#323232"/><path d="M5 8h8v4.5H5z" fill="#EBEBEB"/><path d="M0 7h9v9H0z" fill="#F4F4F4"/><path d="M1 9h3v2H1z" fill="#0095D7"/><path d="M1 13h3v2H1z" fill="#0095D7"/><path d="M5 9h3v2H5z" fill="#0095D7"/><path d="M5 13h3v2H5z" fill="#0095D7"/><path d="M1 8h3v1H1z" fill="#0095D7"/><path d="M5 8h3v1H5z" fill="#0095D7"/><path d="M1 12h3v1H1z" fill="#0095D7"/><path d="M5 12h3v1H5z" fill="#0095D7"/></svg>