<svg ti:v="1" width="16" height="16" viewBox="0 0 16 16" xmlns="http://www.w3.org/2000/svg" xmlns:ti="urn:schemas-jetbrains-com:tisvg"><rect id="frame" width="16" height="16" fill="none"/><linearGradient id="a" x1=".5" y1=".002" x2=".5" y2=".996"><stop offset="0" stop-color="#C28C21"/><stop offset="1" stop-color="#634933"/></linearGradient><path d="M1 15V3h6.586l2-2H16v14H1z" fill="url(#a)"/><linearGradient id="b" x1=".5" y1=".002" x2=".5" y2=".996"><stop offset="0" stop-color="#FFE9BD"/><stop offset="1" stop-color="#D4A24C"/></linearGradient><path d="M14 2h1v1h-1zm0 3h1V4h-1zm-2 0h1V4h-1zm-2 0h1V4h-1zm1-1h1V3h-1zm2 0h1V3h-1zm1 3h1V6h-1zm0 2h1V8h-1zm0 2h1v-1h-1zm0 2h1v-1h-1zm-1 1h1v-1h-1zm-1-1h-1v1h1zm-2 0H9v1h1zm-3 1h1v-1H7zm-2 0h1v-1H5zm-2 0h1v-1H3zm-1-3h1v-1H2zm0 2h1v-1H2zm0-4h1V8H2zm0-2h1V6H2zm0-2h1V4H2zm2 0h1V4H4zm2 0h1V4H6zm2 0h1V4H8zm5 1h1V5h-1zm-2 0h1V5h-1zM3 6h1V5H3zm2 0h1V5H5zm2 0h1V5H7zm2 0h1V5H9zm0-2h1V3H9zm1-1h1V2h-1zm2 0h1V2h-1zm0 0" fill="url(#b)"/><linearGradient id="c" x1=".5" y1="0" x2=".5" y2="1"><stop offset="0" stop-color="#D8FFFC"/><stop offset="1" stop-color="#84FFCF"/></linearGradient><path d="M11.3 7.462L9 7v1l2.3-.438zm-.6-.912L13 7V6l-2.3.45zm0 2L13 9V8l-2.3.45zm.6.912L9 9v1l2.3-.438zm0 2L9 11v1l2.3-.438zm-.6-.912L13 11v-1l-2.3.45zm0 2L13 13v-1l-2.3.45zm0 0" fill="url(#c)"/></svg>