<svg ti:v="1" width="16" height="16" viewBox="0 0 16 16" xmlns="http://www.w3.org/2000/svg" xmlns:ti="urn:schemas-jetbrains-com:tisvg"><rect id="frame" width="16" height="16" fill="none"/><path d="M1 15V3h6.586l2-2H16v14H1z" fill="#F4F4F4"/><path d="M15 14V2h-5L8 4H2v10h13z" fill="#C7781A"/><path d="M3 6h11v7H3z" fill="#EBEBEB"/><path d="M11.3 7.462L9 7v1l2.3-.438zm-.6-.912L13 7V6l-2.3.45zm0 2L13 9V8l-2.3.45zm.6.912L9 9v1l2.3-.438zm0 2L9 11v1l2.3-.438zm-.6-.912L13 11v-1l-2.3.45zm0 2L13 13v-1l-2.3.45zm0 0" fill="#0095D7"/></svg>