<svg xmlns="http://www.w3.org/2000/svg" width="16" height="16" viewBox="0 0 16 16"><rect id="frame" width="16" height="16" fill="none"/><path fill="#00B4F0" fill-rule="evenodd" d="M14.653 8c0 .324-.203.607-.486.85h-.04l-5.341 2.873a.816.816 0 0 1-.446.12.916.916 0 0 1-.93-.93c0-.404.202-.688.647-.89L11.74 8.04 8.057 6.058c-.445-.203-.647-.486-.647-.89 0-.526.404-.931.93-.931.162 0 .324.04.446.121l5.34 2.873h.041c.283.162.486.445.486.769zm-7.931-.04c0 .04 0 .04 0 0a.798.798 0 0 1-.728.809h-.162a.682.682 0 0 0-.688.688v3.762c0 .446-.162.81-.405 1.134-.323.404-.809.647-1.375.647H1.988a.71.71 0 0 1-.688-.688c0-.283.162-.485.364-.607.081-.04.202-.08.324-.08h.445a.682.682 0 0 0 .688-.689V9.497c0-.728.526-1.335 1.254-1.457 0 0 .202-.04.364-.04-.162 0-.364-.04-.364-.04a1.477 1.477 0 0 1-1.254-1.457V3.064a.682.682 0 0 0-.688-.688h-.445a.762.762 0 0 1-.324-.081.668.668 0 0 1-.364-.607A.71.71 0 0 1 1.988 1h1.376c.566 0 1.052.243 1.375.647.243.284.405.688.405 1.133v3.763c0 .365.283.688.688.688h.162c.404 0 .728.324.728.729z"/></svg>