<svg width="16" height="16" viewBox="0 0 16 16" fill="none" xmlns="http://www.w3.org/2000/svg"><rect id="frame" width="16" height="16" fill="none"/><path fill-rule="evenodd" clip-rule="evenodd" d="M11.047 2.903L6 5.476v1.522c.963-.367 3.149-1.101 5.047-1.014v-3.08z" fill="#AFB1B3"/><path fill-rule="evenodd" clip-rule="evenodd" d="M5 5.476L0 2.903v5.524L5 11V5.476z" fill="#AFB1B3"/><path fill-rule="evenodd" clip-rule="evenodd" d="M10.707 2.207L5.524 0 .34 2.207 5.524 4.78l5.183-2.573z" fill="#AFB1B3"/><path fill-rule="evenodd" clip-rule="evenodd" d="M15.646 12.015v3.572l-1.259-1.26a4.047 4.047 0 0 1-6.908-2.34l1.362.12a2.734 2.734 0 0 0 4.616 1.291l-1.383-1.383h3.572zm-3.938-4.559a4.047 4.047 0 0 1 3.795 3.473l-1.353-.117a2.734 2.734 0 0 0-4.67-1.16l1.433 1.434H7.341V7.515L8.55 8.724a4.037 4.037 0 0 1 3.158-1.268z" fill="#3592C4"/></svg>