<svg width="16" height="16" viewBox="0 0 16 16" fill="none" xmlns="http://www.w3.org/2000/svg"><rect id="frame" width="16" height="16" fill="none"/><path fill-rule="evenodd" clip-rule="evenodd" d="M14.5 4.416l-6 3.028v2.992a4.5 4.5 0 0 1 6-1.968V4.416z" fill="#F26522" fill-opacity=".7"/><path fill-rule="evenodd" clip-rule="evenodd" d="M7.5 7.444l-6-3.028v6.5l6 3.028v-6.5z" fill="#F26522" fill-opacity=".7"/><path fill-rule="evenodd" clip-rule="evenodd" d="M14.1 3.597L8 1 1.9 3.597 8 6.624l6.1-3.027z" fill="#F26522" fill-opacity=".7"/><path fill-rule="evenodd" clip-rule="evenodd" d="M12.5 9A3.501 3.501 0 0 0 9 12.5c0 1.932 1.568 3.5 3.5 3.5s3.5-1.568 3.5-3.5S14.432 9 12.5 9zm-.35 6.275a2.796 2.796 0 0 1-2.377-3.402l1.677 1.677v.35c0 .385.315.7.7.7v.675zm2.415-.889a.694.694 0 0 0-.665-.486h-.35v-1.05a.351.351 0 0 0-.35-.35h-2.1v-.7h.7c.192 0 .35-.158.35-.35v-.7h.7c.385 0 .7-.315.7-.7v-.144A2.802 2.802 0 0 1 15.3 12.5c0 .728-.28 1.39-.735 1.886z" fill="#9AA7B0"/></svg>