<svg width="16" height="16" viewBox="0 0 16 16" fill="none" xmlns="http://www.w3.org/2000/svg">
<path fill-rule="evenodd" clip-rule="evenodd" d="M14.5 4.41644L8.5 7.44422V10.4364C9.24811 8.98922 10.7585 8 12.5 8C13.2184 8 13.8975 8.16835 14.5 8.46776V4.41644Z" fill="#F26522" fill-opacity="0.7"/>
<path fill-rule="evenodd" clip-rule="evenodd" d="M7.5 7.44422L1.5 4.41644V10.9164L7.5 13.9442V7.44422Z" fill="#F26522" fill-opacity="0.7"/>
<path fill-rule="evenodd" clip-rule="evenodd" d="M14.1 3.59656L7.99998 1L1.89998 3.59656L7.99998 6.62434L14.1 3.59656Z" fill="#F26522" fill-opacity="0.7"/>
<path fill-rule="evenodd" clip-rule="evenodd" d="M12.5 9C10.568 9 9 10.568 9 12.5C9 14.432 10.568 16 12.5 16C14.432 16 16 14.432 16 12.5C16 10.568 14.432 9 12.5 9ZM12.15 15.2755C10.7675 15.104 9.7 13.928 9.7 12.5C9.7 12.283 9.728 12.0765 9.7735 11.8735L11.45 13.55V13.9C11.45 14.285 11.765 14.6 12.15 14.6V15.2755ZM14.565 14.3865C14.474 14.103 14.215 13.9 13.9 13.9H13.55V12.85C13.55 12.6575 13.3925 12.5 13.2 12.5H11.1V11.8H11.8C11.9925 11.8 12.15 11.6425 12.15 11.45V10.75H12.85C13.235 10.75 13.55 10.435 13.55 10.05V9.9065C14.5755 10.323 15.3 11.3275 15.3 12.5C15.3 13.228 15.02 13.8895 14.565 14.3865Z" fill="#9AA7B0"/>
</svg>
