<svg width="16" height="16" viewBox="0 0 16 16" fill="none" xmlns="http://www.w3.org/2000/svg">
<path fill-rule="evenodd" clip-rule="evenodd" d="M14.5 4.91644L10.0865 7.14363C11.0562 7.14582 11.8818 7.76144 12.1959 8.62301C12.5998 8.23705 13.1472 8.00001 13.75 8.00001C14.013 8.00001 14.2654 8.04512 14.5 8.12803V4.91644ZM8.5 11V10.9943L8.50584 11H8.5Z" fill="#F26522" fill-opacity="0.7"/>
<path fill-rule="evenodd" clip-rule="evenodd" d="M1.5 4.91644L7.5 7.94422V11.4549C6.83198 12.0528 6.37957 12.8866 6.27378 13.8254L1.5 11.4164V4.91644Z" fill="#F26522" fill-opacity="0.7"/>
<path fill-rule="evenodd" clip-rule="evenodd" d="M14.1 4.09656L7.99998 1.5L1.89998 4.09656L7.99998 7.12434L14.1 4.09656Z" fill="#F26522" fill-opacity="0.7"/>
<circle cx="10" cy="14" r="2" fill="#9AA7B0"/>
<path d="M11.25 9.25C11.25 9.94036 10.6904 10.5 10 10.5C9.30964 10.5 8.75 9.94036 8.75 9.25C8.75 8.55964 9.30964 8 10 8C10.6904 8 11.25 8.55964 11.25 9.25Z" fill="#9AA7B0"/>
<path d="M15.0572 10.1693C15.0572 10.8596 14.4975 11.4193 13.8072 11.4193C13.1168 11.4193 12.5572 10.8596 12.5572 10.1693C12.5572 9.47892 13.1168 8.91928 13.8072 8.91928C14.4975 8.91928 15.0572 9.47892 15.0572 10.1693Z" fill="#9AA7B0"/>
<path d="M16 14C16 14.6904 15.4404 15.25 14.75 15.25C14.0596 15.25 13.5 14.6904 13.5 14C13.5 13.3096 14.0596 12.75 14.75 12.75C15.4404 12.75 16 13.3096 16 14Z" fill="#9AA7B0"/>
<path d="M10 8.99999V13" stroke="#9AA7B0"/>
<path d="M14 9.99999L11 13" stroke="#9AA7B0"/>
<path d="M15 14L11 14" stroke="#9AA7B0"/>
</svg>
