<svg ti:v="1" width="32" height="32" viewBox="0 0 32 32" xmlns="http://www.w3.org/2000/svg" xmlns:ti="urn:schemas-jetbrains-com:tisvg"><rect id="frame" width="32" height="32" fill="none"/><linearGradient id="a" x1=".574" y1=".889" x2=".365" y2=".086"><stop offset=".048" stop-color="#7866FF"/><stop offset=".135" stop-color="#8265FA"/><stop offset=".281" stop-color="#9C64EE"/><stop offset=".467" stop-color="#C661D9"/><stop offset=".608" stop-color="#EB5FC7"/><stop offset=".729" stop-color="#FA6398"/><stop offset=".769" stop-color="#FF6488"/><stop offset=".995" stop-color="#FF7500"/></linearGradient><path d="M19.52 0L0 2.24v10.027l4.907 16.32 24.64-6.294L19.52 0z" fill="url(#a)"/><linearGradient id="b" x1=".959" y1=".59" x2=".409" y2=".5"><stop offset=".247" stop-color="#7866FF"/><stop offset=".346" stop-color="#8F5FFA"/><stop offset=".531" stop-color="#B353F1"/><stop offset=".705" stop-color="#CD4AEB"/><stop offset=".859" stop-color="#DD45E7"/><stop offset=".979" stop-color="#E343E6"/></linearGradient><path d="M32 18.88l-1.813-8.747-4.267 5.76-2.88 8.854L22.08 32l7.147-4.587L32 18.88z" fill="url(#b)"/><linearGradient id="c" x1=".811" y1=".572" x2=".112" y2=".315"><stop offset=".006" stop-color="#E343E6"/><stop offset=".064" stop-color="#E649CA"/><stop offset=".19" stop-color="#EF5982"/><stop offset=".372" stop-color="#FD7110"/><stop offset=".398" stop-color="#FF7500"/></linearGradient><path d="M30.187 10.133L24 7.147l-7.147.64-7.04 4.906-1.386 8.747 6.08 8.427L22.08 32l8.107-21.867z" fill="url(#c)"/><path d="M5 5h22v22H5z" fill="#2D2D34"/><path d="M7 22h8v2H7z" fill="#FFF"/><path d="M15.788 11.553a4.716 4.716 0 0 1 8.047-3.388l-1.27 1.482a3.165 3.165 0 0 0-2.224-1.059 2.658 2.658 0 0 0-2.541 2.859 2.723 2.723 0 0 0 2.541 2.859 3.401 3.401 0 0 0 2.33-1.059l1.27 1.27a4.69 4.69 0 0 1-3.6 1.695 4.481 4.481 0 0 1-4.553-4.66z" fill="#FFF"/><path d="M7 7h3.51a5.32 5.32 0 0 1 1.935.34 4.57 4.57 0 0 1 1.517.945c.423.401.758.885.984 1.421.234.56.353 1.161.347 1.768v.026a4.51 4.51 0 0 1-.347 1.774 4.186 4.186 0 0 1-.984 1.428c-.44.412-.954.735-1.517.95A5.224 5.224 0 0 1 10.51 16H7zm3.51 7.213c.378.004.753-.061 1.106-.193.321-.12.613-.309.855-.553.238-.243.426-.532.553-.848a2.87 2.87 0 0 0 .199-1.093V11.5a2.934 2.934 0 0 0-.2-1.093 2.443 2.443 0 0 0-1.408-1.42 2.967 2.967 0 0 0-1.105-.2H8.98v5.426zm0 0" fill="#FFF"/></svg>