<svg ti:v="1" width="16" height="16" viewBox="0 0 16 16" xmlns="http://www.w3.org/2000/svg" xmlns:ti="urn:schemas-jetbrains-com:tisvg"><rect id="frame" width="16" height="16" fill="none"/><linearGradient id="a" x1="0" y1=".5" x2="1" y2=".5"><stop offset="0" stop-color="#597F97"/><stop offset="1" stop-color="#21464F"/></linearGradient><path fill-rule="evenodd" d="M3 13V1h3v3h1v9H3z" fill="url(#a)"/><linearGradient id="b" x1="0" y1=".5" x2="1" y2=".5"><stop offset="0" stop-color="#285AA9"/><stop offset="1" stop-color="#1F356B"/></linearGradient><path fill-rule="evenodd" d="M13 14H7V9h6v5z" fill="url(#b)"/><linearGradient id="c" x1="0" y1=".5" x2="1" y2=".5"><stop offset="0" stop-color="#A1DADE"/><stop offset="1" stop-color="#78D1F0"/></linearGradient><path fill-rule="evenodd" d="M12 13H9v-2h3v2z" fill="url(#c)"/><linearGradient id="d" x1="0" y1=".5" x2="1" y2=".5"><stop offset="0" stop-color="#285AA9"/><stop offset="1" stop-color="#1F356B"/></linearGradient><path fill-rule="evenodd" d="M13 10H7V6h6v4z" fill="url(#d)"/><linearGradient id="e" x1="0" y1=".5" x2="1" y2=".5"><stop offset="0" stop-color="#A1DADE"/><stop offset="1" stop-color="#78D1F0"/></linearGradient><path fill-rule="evenodd" d="M12 10H9V8h3v2z" fill="url(#e)"/><linearGradient id="f" x1="0" y1=".5" x2="1" y2=".5"><stop offset="0" stop-color="#285AA9"/><stop offset="1" stop-color="#1F356B"/></linearGradient><path fill-rule="evenodd" d="M13 7H7V4h6v3z" fill="url(#f)"/><linearGradient id="g" x1="0" y1=".5" x2="1" y2=".5"><stop offset="0" stop-color="#A1DADE"/><stop offset="1" stop-color="#78D1F0"/></linearGradient><path fill-rule="evenodd" d="M12 7H9V5h3v2z" fill="url(#g)"/><path fill-rule="evenodd" d="M9 6V5H5V2H4v10h5v-1H5V9h4V8H5V6h4z" fill="#CDCDCC"/></svg>