<svg ti:v="1" width="16" height="16" viewBox="0 0 16 16" xmlns="http://www.w3.org/2000/svg" xmlns:ti="urn:schemas-jetbrains-com:tisvg"><rect id="frame" width="16" height="16" fill="none"/><linearGradient id="a" x1="0" y1=".5" x2="1" y2=".5"><stop offset="0" stop-color="#597F97"/><stop offset="1" stop-color="#21464F"/></linearGradient><path fill-rule="evenodd" d="M2 4.5v5.999c0 1.996 2.579 3.5 6 3.5s6-1.504 6-3.5V4.5C14 2.505 11.421 1 8 1S2 2.505 2 4.5z" fill="url(#a)"/><linearGradient id="b" x1="0" y1=".5" x2="1" y2=".5"><stop offset="0" stop-color="#D9EFF5"/><stop offset="1" stop-color="#85D2F5"/></linearGradient><path fill-rule="evenodd" d="M3 4.5C3 5.881 5.239 7 8 7c2.762 0 5-1.119 5-2.5C13 3.118 10.762 2 8 2 5.239 2 3 3.118 3 4.5zM8 9c-2.419 0-4.435-.86-4.9-2-.065.162-.1.328-.1.5C3 8.88 5.239 10 8 10c2.762 0 5-1.12 5-2.5 0-.172-.035-.338-.101-.5-.464 1.14-2.48 2-4.899 2zm0 3c-2.419 0-4.435-.86-4.9-2-.065.162-.1.327-.1.499C3 11.881 5.239 13 8 13c2.762 0 5-1.119 5-2.501 0-.172-.035-.337-.101-.499-.464 1.14-2.48 2-4.899 2z" fill="url(#b)"/></svg>