<svg ti:v="1" width="16" height="16" viewBox="0 0 16 16" xmlns="http://www.w3.org/2000/svg" xmlns:ti="urn:schemas-jetbrains-com:tisvg"><rect id="frame" width="16" height="16" fill="none"/><g fill-rule="evenodd"><path d="M15 8A7 7 0 1 1 .999 7.999 7 7 0 0 1 15 8z" fill="#F4F4F4"/><path d="M8 2.166a5.834 5.834 0 0 0 0 11.667A5.834 5.834 0 0 0 8 2.166z" fill="#313131"/><path d="M4.656 10.333a4.1 4.1 0 0 0 .729.779c.245.202.51.382.798.527a9.794 9.794 0 0 1-.319-1.306m3.185 0H6.952c.143.725.339 1.291.531 1.698.171.022.339.052.517.052.182 0 .355-.031.532-.054.185-.406.376-.973.517-1.696zm2.845-3.5h-1.607a14.725 14.725 0 0 1 0 2.333h1.607c.05-.168.091-.342.123-.517A4.09 4.09 0 0 0 12.083 8c0-.222-.032-.437-.066-.65a4.984 4.984 0 0 0-.123-.517zM4.106 9.166h1.608a14.232 14.232 0 0 1 0-2.333H4.106c-.05.169-.091.342-.124.517a4.102 4.102 0 0 0-.065.65c0 .222.031.436.065.649.033.175.074.349.124.517zm5.108 0c.032-.364.054-.749.054-1.166 0-.417-.022-.802-.054-1.167H6.785c-.032.365-.053.75-.053 1.167 0 .417.021.802.053 1.166m3.351-3.5h1.208a4.152 4.152 0 0 0-.728-.778 4.233 4.233 0 0 0-.799-.527c.127.398.236.832.319 1.305zm-3.184 0h2.096c-.142-.722-.337-1.289-.529-1.697-.17-.023-.341-.053-.519-.053s-.348.03-.52.053c-.191.408-.385.975-.528 1.697zm-.769-1.305a4.476 4.476 0 0 0-.876.592 3.903 3.903 0 0 0-.651.713h1.208a9.74 9.74 0 0 1 .319-1.305zm3.953 5.972h1.208a4.152 4.152 0 0 1-.728.778 4.287 4.287 0 0 1-.799.528 9.99 9.99 0 0 0 .319-1.306z" fill="#EBEBEB"/></g></svg>