<svg ti:v="1" width="16" height="16" viewBox="0 0 16 16" xmlns="http://www.w3.org/2000/svg" xmlns:ti="urn:schemas-jetbrains-com:tisvg"><rect id="frame" width="16" height="16" fill="none"/><linearGradient id="a" x1=".5" y1=".014" x2=".5" y2="1"><stop offset="0" stop-color="#1D66A7"/><stop offset="1" stop-color="#12375E"/></linearGradient><path fill-rule="evenodd" d="M1 7.999a7 7 0 0 0 14 0 7 7 0 0 0-14 0z" fill="url(#a)"/><linearGradient id="b" x1=".5" y1=".005" x2=".5" y2="1.004"><stop offset="0" stop-color="#6ABAE8"/><stop offset="1" stop-color="#4996D1"/></linearGradient><path fill-rule="evenodd" d="M2.167 7.999A5.834 5.834 0 0 0 8 13.833a5.835 5.835 0 0 0 5.834-5.834 5.834 5.834 0 0 0-11.667 0z" fill="url(#b)"/><linearGradient id="c" x1=".5" y1="-.001" x2=".5" y2="1.004"><stop offset="0" stop-color="#F6FBF6"/><stop offset="1" stop-color="#BFE5EC"/></linearGradient><path fill-rule="evenodd" d="M7.481 3.969c-.192.408-.386.975-.529 1.697h2.096c-.142-.722-.337-1.289-.529-1.697-.171-.023-.341-.053-.519-.053-.177 0-.348.03-.519.053zm2.655 1.697h1.208a3.934 3.934 0 0 0-.65-.713l-.078-.065a4.299 4.299 0 0 0-.799-.527c.127.398.236.832.319 1.305zm-4.83-.713a3.9 3.9 0 0 0-.65.713h1.207c.083-.473.193-.908.321-1.305a4.311 4.311 0 0 0-.799.526zm4.981 1.88a14.724 14.724 0 0 1 0 2.334h1.607c.051-.17.091-.342.124-.518a4.09 4.09 0 0 0 .065-.65c0-.221-.031-.435-.065-.649a4.927 4.927 0 0 0-.124-.517m-5.108 0a12.861 12.861 0 0 0 0 2.334h2.429c.031-.365.053-.75.053-1.168 0-.416-.022-.802-.053-1.166m-5.109 0a4.927 4.927 0 0 0-.124.517 4.113 4.113 0 0 0-.065.649c0 .223.031.437.065.65.033.176.073.348.124.518h1.608a14.25 14.25 0 0 1 0-2.334m4.422 3.5a9.99 9.99 0 0 1-.319 1.306c.289-.145.553-.325.799-.527l.078-.066c.243-.211.464-.447.65-.713m-4.392 0c.143.725.34 1.291.53 1.697.171.024.341.053.518.053.183 0 .355-.031.532-.053.184-.407.376-.973.517-1.697m-4.393 0c.186.266.407.502.65.713l.079.066c.245.202.51.382.798.527a9.947 9.947 0 0 1-.32-1.306H4.656z" fill="url(#c)"/></svg>