<svg ti:v="1" width="16" height="16" viewBox="0 0 16 16" xmlns="http://www.w3.org/2000/svg" xmlns:ti="urn:schemas-jetbrains-com:tisvg"><rect id="frame" width="16" height="16" fill="none"/><g fill-rule="evenodd"><path d="M3 13V1h3v3h1v9H3z" fill="#F4F4F4"/><path d="M13 14H7V9h6v5z" fill="#F4F4F4"/><path d="M12 13H9v-2h3v2z" fill="#313131"/><path d="M13 10H7V6h6v4z" fill="#F4F4F4"/><path d="M12 10H9V8h3v2z" fill="#313131"/><path d="M13 7H7V4h6v3z" fill="#F4F4F4"/><path d="M12 7H9V5h3v2z" fill="#313131"/><path d="M9 6V5H5V2H4v10h5v-1H5V9h4V8H5V6h4z" fill="#313131"/></g></svg>