<svg ti:v="1" width="16" height="16" viewBox="0 0 16 16" xmlns="http://www.w3.org/2000/svg" xmlns:ti="urn:schemas-jetbrains-com:tisvg"><rect id="frame" width="16" height="16" fill="none"/><g fill-rule="evenodd"><path d="M8 14c-3.421 0-6-1.505-6-3.5v-6C2 2.505 4.579 1 8 1s6 1.505 6 3.5v6c0 1.995-2.579 3.5-6 3.5z" fill="#242424"/><path d="M8 12c-2.419 0-4.436-.859-4.899-2a1.313 1.313 0 0 0-.101.5C3 11.881 5.238 13 8 13s5-1.119 5-2.5c0-.172-.035-.338-.101-.5-.463 1.141-2.48 2-4.899 2zm0-3c-2.419 0-4.436-.859-4.899-2A1.313 1.313 0 0 0 3 7.5C3 8.881 5.238 10 8 10s5-1.119 5-2.5c0-.172-.035-.338-.101-.5-.463 1.141-2.48 2-4.899 2zm5-4.5C13 5.881 10.762 7 8 7S3 5.881 3 4.5 5.238 2 8 2s5 1.119 5 2.5z" fill="#C3C3C3"/></g></svg>