<svg xmlns="http://www.w3.org/2000/svg" width="16" height="16" viewBox="0 0 16 16"><rect id="frame" width="16" height="16" fill="none"/><path fill="#F4AF3D" fill-opacity=".7" fill-rule="evenodd" d="M9.337 13.578l-.841.86a1.855 1.855 0 0 1-2.657 0l-.214-.218c.55-.342.922-.957.922-1.661v-1.401c0-.84-.671-1.527-1.491-1.527h-1.37c-.686 0-1.286.38-1.622.944l-.73-.748a1.2 1.2 0 0 1 .001-1.661L2.696 6.77A2.454 2.454 0 0 1 1 4.445 2.451 2.451 0 0 1 3.444 2c1.064 0 1.974.688 2.308 1.641l1.268-1.3a1.134 1.134 0 0 1 1.623 0l1.51 1.546A2.451 2.451 0 0 1 12.556 1c1.344 0 2.443 1.1 2.443 2.445a2.451 2.451 0 0 1-2.943 2.393l1.608 1.647a1.198 1.198 0 0 1 0 1.66l-1.14 1.167A2.454 2.454 0 0 1 14 12.556 2.452 2.452 0 0 1 11.556 15c-.98 0-1.83-.586-2.22-1.423z"/></svg>