<svg width="40" height="40" viewBox="0 0 40 40" fill="none" xmlns="http://www.w3.org/2000/svg"><rect id="frame" width="40" height="40" fill="none"/><path d="M10.526 29.474l-5.474-5.475C4.402 23.334 4 22.393 4 21.473c0-.426.24-1.092.421-1.473L9.474 9.474l1.052 20z" fill="#01579B"/><path d="M29.265 10.526L23.79 5.052C23.313 4.572 22.317 4 21.475 4c-.725 0-1.435.146-1.894.421L9.477 9.474l19.788 1.052z" fill="#40C4FF"/><path d="M17.052 36h13.264v-5.684l-9.895-3.16-9.053 3.16L17.052 36z" fill="#40C4FF"/><path d="M9.474 26.526c0 1.69.212 2.103 1.052 2.948l.842.842h18.948l-9.262-10.525L9.474 9.474v17.052z" fill="#29B6F6"/><path d="M26.317 9.472H9.474l20.842 20.842H36V17.262l-6.738-6.738c-.946-.948-1.785-1.052-2.945-1.052z" fill="#01579B"/><path opacity=".2" d="M10.738 29.683c-.842-.844-1.052-1.677-1.052-3.157V9.684l-.21-.21v17.052c-.002 1.48-.002 1.89 1.262 3.157l.63.63-.63-.63z" fill="#fff"/><path opacity=".2" d="M35.79 17.052v13.052h-5.683l.21.212H36V17.262l-.21-.21z" fill="#263238"/><path opacity=".2" d="M29.265 10.526c-1.045-1.044-1.899-1.052-3.158-1.052H9.477l.21.21h16.42c.628 0 2.214-.106 3.158.842z" fill="#fff"/><path opacity=".2" d="M35.79 17.052l-6.525-6.526-5.475-5.474C23.313 4.572 22.317 4 21.475 4c-.725 0-1.435.146-1.894.421L9.477 9.474 4.423 20c-.18.384-.42 1.05-.42 1.473 0 .92.404 1.858 1.051 2.526l5.044 5.01c.12.147.261.298.428.465l.21.21.63.63 5.474 5.474.21.21h13.262v-5.684h5.683V17.262l-.204-.21z"/><defs><radialGradient id="paint0_radial" cx="0" cy="0" r="1" gradientTransform="translate(19.999 20) scale(15.9976)"><stop stop-color="#fff" stop-opacity=".1"/><stop offset="1" stop-color="#fff" stop-opacity="0"/></radialGradient></defs></svg>