<svg width="64" height="64" viewBox="0 0 64 64" fill="none" xmlns="http://www.w3.org/2000/svg"><rect id="frame" width="64" height="64" fill="none"/><path d="M10.24 45.227L.64 37.76 6.4 27.2l8.107 3.093-4.267 14.934z" fill="url(#paint0_linear)"/><path d="M64 17.067l-1.067 37.12L38.187 64l-13.44-8.747L64 17.067z" fill="#087CFA"/><path d="M64 17.067l-13.013 12.8-15.147-19.84 8.107-8.96 20.053 16z" fill="url(#paint1_linear)"/><path d="M24.747 55.253L5.12 62.507 9.173 48l5.334-17.707L0 25.387 9.173 0l21.12 2.56L49.6 27.733l1.173 2.134-26.026 25.386z" fill="url(#paint2_linear)"/><g><path d="M51 13H13v38h38V13z" fill="url(#paint3_linear)"/><path d="M32.144 44H18v2.322h14.144V44z" fill="#fff"/><g fill="#fff"><path d="M24.893 20.37v-2.62h-7.122v2.62h1.987v9.025H17.77v2.6h7.122v-2.6h-2.007v-9.024h2.007z"/><path d="M31.741 32.206c-1.12 0-2.05-.211-2.79-.634a6.662 6.662 0 0 1-1.86-1.5l1.966-2.198c.402.444.824.803 1.226 1.056.422.254.866.38 1.373.38.592 0 1.057-.19 1.395-.57.339-.38.508-.972.508-1.796V17.77h3.212v9.32c0 .846-.106 1.586-.338 2.22a4.313 4.313 0 0 1-.993 1.585c-.444.444-.973.76-1.607.993a6.582 6.582 0 0 1-2.092.317z"/></g></g><defs><linearGradient id="paint0_linear" x1="4.731" y1="36.47" x2="36.584" y2="34.855" gradientUnits="userSpaceOnUse"><stop offset=".091" stop-color="#FC801D"/><stop offset=".231" stop-color="#B07F61"/><stop offset=".409" stop-color="#577DB3"/><stop offset=".533" stop-color="#1E7CE6"/><stop offset=".593" stop-color="#087CFA"/></linearGradient><linearGradient id="paint1_linear" x1="56.678" y1="33.751" x2="45.859" y2="1.424" gradientUnits="userSpaceOnUse"><stop offset="0" stop-color="#FE2857"/><stop offset=".078" stop-color="#CB3979"/><stop offset=".16" stop-color="#9E4997"/><stop offset=".247" stop-color="#7557B2"/><stop offset=".339" stop-color="#5362C8"/><stop offset=".436" stop-color="#386CDA"/><stop offset=".541" stop-color="#2373E8"/><stop offset=".658" stop-color="#1478F2"/><stop offset=".794" stop-color="#0B7BF8"/><stop offset="1" stop-color="#087CFA"/></linearGradient><linearGradient id="paint2_linear" x1="9.204" y1="15.082" x2="49.258" y2="81.335" gradientUnits="userSpaceOnUse"><stop offset="0" stop-color="#FE2857"/><stop offset=".08" stop-color="#FE295F"/><stop offset=".206" stop-color="#FF2D76"/><stop offset=".303" stop-color="#FF318C"/><stop offset=".385" stop-color="#EA3896"/><stop offset=".553" stop-color="#B248AE"/><stop offset=".792" stop-color="#5A63D6"/><stop offset="1" stop-color="#087CFA"/></linearGradient><linearGradient id="paint3_linear" x1="31.949" y1="3.764" x2="31.949" y2="37.843" gradientUnits="userSpaceOnUse"><stop offset=".084" stop-color="#878585"/><stop offset=".538"/></linearGradient></defs></svg>