<svg width="16" height="16" viewBox="0 0 16 16" fill="none" xmlns="http://www.w3.org/2000/svg"><rect id="frame" width="16" height="16" fill="none"/><path d="M16 0H0v16h16V0z" fill="#087CFA"/><path d="M15 1H1v14h14V1z" fill="#000"/><path d="M9 12H3v1h6v-1z" fill="#fff"/><path d="M6.013 4.1V3.006H3.03V4.1h.838v3.775H3.03v1.094h2.982V7.875H5.18V4.1h.832z" fill="#fff"/><path d="M8.875 9.056c-.469 0-.856-.087-1.169-.262a2.817 2.817 0 0 1-.781-.632l.825-.918c.169.187.344.331.512.437.175.106.363.156.575.156.25 0 .444-.075.588-.237.144-.156.212-.406.212-.756V3.006h1.344v3.9c0 .356-.05.669-.144.931a1.766 1.766 0 0 1-.418.663 1.779 1.779 0 0 1-.67.412c-.255.094-.55.144-.874.144z" fill="#fff"/></svg>