<svg xmlns="http://www.w3.org/2000/svg" width="13" height="13" viewBox="0 0 13 13"><rect id="frame" width="13" height="13" fill="none"/><path fill="#6E6E6E" fill-rule="evenodd" d="M0 2h13v9H0V2zm2.23 7c.54 0 .983-.085 1.288-.39C3.816 8.31 4 7.87 4 7.282V4H2.865v3.232c0 .575-.256.824-.668.824-.347 0-.624-.185-.908-.497L.6 8.326C.94 8.73 1.456 9 2.23 9zm4.2 0c1.072 0 1.803-.483 1.803-1.484C8.233 6.65 7.648 6 6.657 6c-.876 0-1.072-.301-1.072-.642 0-.242.22-.458.64-.458h1.491V4H6.238c-1.015 0-1.74.555-1.74 1.471C4.499 6.458 5.126 7 6.147 7c.88 0 1.001.346 1.001.637 0 .29-.27.363-.717.363H4.587v1H6.43zm2.475 0h1.093V7.01H12V6.002H9.998V5H12.3V4H8.905v5z"/></svg>