<svg xmlns="http://www.w3.org/2000/svg" xmlns:xlink="http://www.w3.org/1999/xlink" width="40" height="40" viewBox="0 0 40 40"><rect id="frame" width="40" height="40" fill="none"/><defs><path id="a" d="M.605.796H10v3.6H.605z"/><path id="c" d="M.306 0h17.231v15.126H.306z"/></defs><g fill="none" fill-rule="evenodd"><path fill="#A81C7D" d="M0 29.32c.317-.264.636-.524.95-.792 1.267-1.079 2.53-2.159 3.794-3.239.61-.52 1.22-1.043 1.829-1.565.015-.012.032-.022.041-.029-.008.294-.032.587-.02.88.023.583.204 1.128.44 1.655.019.042.07.078.114.097a1.7 1.7 0 0 0 .88.141c.192-.02.384-.029.61-.044-.723.956-1.375 1.937-2.311 2.674.189.034.343.026.508-.083.5-.328.854-.803 1.256-1.23.47-.504.902-1.043 1.377-1.54.136-.146.316-.269.527-.339.258-.085.506-.22.734-.37a5.476 5.476 0 0 0 2.048-2.459c.112-.26.694-.55.96-.467.068.022.155.117.16.186.056.627.333 1.166.655 1.68.19.305.446.57.67.854a2.4 2.4 0 0 1 .202.288c.066.12.177.128.283.127.165-.003.325-.03.444.145.03.043.152.06.213.035a2.61 2.61 0 0 0 .486-.239c.1-.064.186-.106.3-.054.137.062.262.033.382-.05a.9.9 0 0 0 .402-.874c-.012-.117-.088-.227-.137-.34.16-.02.328-.04.492-.062.027.22.041.45.088.673.05.237.172.445.364.593a.59.59 0 0 0 .25.115c.224.042.35.154.395.377.07.352.219.46.559.392A2.705 2.705 0 0 0 20.98 26c.125-.088.226-.085.34-.003.224.16.355.393.492.626.444.754.898 1.5 1.34 2.253.143.245.34.294.608.23a11.446 11.446 0 0 0-.099-.247c-.434-1.036-.913-2.05-1.524-2.993-.096-.15-.213-.287-.323-.428-.223-.287-.532-.246-.831-.213-.314.034-.58.182-.826.38-.189.152-.319.156-.476.02-.056-.048-.114-.147-.104-.21.068-.394-.02-.757-.192-1.13.19-.047.241-.199.287-.36.037-.138.133-.196.271-.174.078.011.155.022.242.036-.118.31.008.565.18.804a.573.573 0 0 0 .224.19c.479.2.958.402 1.475.482.163.026.291-.028.433-.12a56.309 56.309 0 0 1 1.694-1.036c.1-.058.227-.076.343-.099.242-.046.294-.015.396.214.375.853.75 1.705 1.122 2.56.06.138.125.214.297.163.08-.023.201.025.276.081.096.07.174.14.302.137.15-.003.247.096.316.224.106.201.207.403.315.602a.86.86 0 0 0 .63.467c.56.107 1.117.232 1.675.346a.863.863 0 0 0 .31.024c.073-.014.169-.078.19-.144.018-.05-.044-.175-.1-.199a1.999 1.999 0 0 0-.502-.148c-.436-.065-.874-.11-1.313-.162-.198-.024-.316-.143-.378-.33-.073-.226-.148-.45-.22-.676-.046-.148-.135-.25-.285-.287-.39-.095-.63-.344-.802-.717-.302-.66-.644-1.303-.966-1.954-.027-.054-.047-.113-.08-.199.236.097.445.186.655.27.841.331 1.697.618 2.578.817.152.035.308.075.46.07.159-.006.316-.063.495-.102.08.128.18.301.293.465.032.047.098.078.154.096.159.048.319.095.48.127.69.13 1.116.588 1.444 1.177.146.263.214.546.253.843.045.336.177.64.373.912.023.03.044.072.075.08.084.026.18.067.255.043.053-.017.114-.133.108-.198a5.455 5.455 0 0 0-.125-.795c-.11-.447-.274-.876-.566-1.24-.242-.305-.578-.48-.902-.667-.258-.15-.524-.279-.784-.426-.198-.112-.392-.237-.588-.356-.009-.006-.02-.012-.023-.02a88.695 88.695 0 0 1-.16-.742c.276-.796.123-1.562-.157-2.319-.035-.097-.046-.204-.067-.305.313-.076.42-.397.692-.534 1.134 2.702 2.268 5.41 3.41 8.136H23.86c.096.185.162.35.256.494.239.36.468.73.744 1.058.189.224.445.393.684.567.355.146 1.396.726.186.477-.26-.177-.534-.326-.758-.53a1.225 1.225 0 0 1-.28-.41c-.114-.267-.306-.5-.477-.74-.19-.265-.396-.518-.587-.783-.069-.096-.143-.129-.26-.128-5.623.003-11.248.002-16.873.006a.537.537 0 0 0-.244.074c-.554.31-.924.8-1.22 1.347-.127.234-.724.65-1.321.323-.05-.153.524-.268.644-.364.556-.437 1.1-.89 1.675-1.36-.064-.014-.085-.023-.107-.023L0 29.352v-.032z"/><g transform="translate(30 19)"><mask id="b" fill="#fff"><use xlink:href="#a"/></mask><path fill="#A81C7D" d="M10 4.396c-.187-.045-.396-.048-.553-.144-.311-.196-.593-.442-.89-.665a.9.9 0 0 0-.188-.099c-.107-.046-.236-.066-.328-.135-.429-.327-.92-.527-1.397-.758-.76-.366-1.51-.757-2.258-1.147-.3-.156-.595-.248-.94-.18-.395.079-.804.093-1.196.19A4.8 4.8 0 0 0 .72 2.13l-.114-.27a6.21 6.21 0 0 1 2-.872c.373-.087.74-.217 1.13-.189.083.006.18.03.244.077.708.527 1.502.88 2.3 1.223.42.18.848.34 1.277.493.149.054.317.046.471.09.126.034.248.095.363.16.105.063.191.165.301.22.351.173.665.397.94.675.143.145.248.332.37.5v.159z" mask="url(#b)"/></g><g transform="translate(13 8)"><mask id="d" fill="#fff"><use xlink:href="#c"/></mask><path fill="#A81C7D" d="M.306 9.977c.6-.511 1.204-1.03 1.81-1.547 1.008-.864 2.017-1.725 3.026-2.587 1.05-.896 2.098-1.79 3.146-2.687 1.074-.916 2.146-1.833 3.218-2.75l.395-.337c.131-.11.218-.09.283.068l3.657 8.73 1.601 3.817.095.234c-.238.118-.47.24-.71.34-.047.02-.143-.028-.19-.073-.483-.462-.99-.9-1.432-1.4-.68-.774-1.567-1.076-2.517-1.26a2.768 2.768 0 0 0-.71-.039c-.388.027-.66.256-.85.593-.036.063-.067.13-.11.216-.037-.057-.063-.105-.095-.147-.25-.332-.5-.662-.758-.989-.028-.035-.102-.056-.149-.049a1.626 1.626 0 0 0-.9.434 7.077 7.077 0 0 0-.344.35c-.15.165-.292.31-.54.348-.162.025-.308.185-.45.298-.488.389-.972.78-1.454 1.177a.852.852 0 0 0-.31.463c-.02.08-.085.15-.137.236-.242-.206-.49-.236-.769-.106a33.77 33.77 0 0 1-.038-.59c-.036-.619-.065-1.239-.107-1.857-.017-.274-.033-.553-.097-.819-.087-.367-.317-.418-.566-.14-.268.3-.316.655-.172 1.021.082.207.125.412.137.63.038.667.072 1.334.102 2.002.002.045-.027.117-.063.136-.416.216-.616.572-.692 1.029-.023.138-.104.266-.162.404-.345-.223-.435-.342-.359-.653.014-.055.042-.119.083-.148.154-.111.188-.271.201-.443.003-.037.01-.075.008-.111-.002-.303.02-.617-.358-.68.09-.542.203-1.064.256-1.593a6.642 6.642 0 0 0-.01-1.188 11.466 11.466 0 0 0-.182-1.207c-.075-.39-.437-.538-.784-.332-.67.4-1.338.805-2.003 1.206" mask="url(#d)"/></g><path fill="#A81C7D" d="M15.06 21.63c-.159.008-.178-.075-.164-.221.021-.215.022-.433.01-.65-.013-.24-.154-.37-.389-.394-.333-.035-.63.085-.932.205-.209.083-.429.136-.658.206-.087-.368-.347-.488-.639-.563-.214-.056-.43-.101-.672-.156.153-.171.305-.326.442-.495a.882.882 0 0 1 .581-.346c.447-.07.766-.377 1.082-.678.46-.438.921-.875 1.384-1.31a.626.626 0 0 1 .188-.136c.073-.027.183-.051.23-.015.057.044.094.157.086.234-.029.305-.076.608-.125.91-.14.875-.223 1.754-.154 2.64.015.189.041.374-.142.516-.066.05-.085.16-.129.253m-4.325-1.671l-3.966 3.386c.08-.637.255-1.237.618-1.751.166-.234.413-.416.645-.593a7.597 7.597 0 0 1 1.537-.897c.363-.162.739-.17 1.166-.145M20.96 24.16c.055-.043.105-.092.163-.129.22-.14.444-.273.661-.418.21-.14.34-.342.44-.578.083-.195.226-.364.346-.54.204-.3.406-.603.621-.893.04-.05.144-.049.23-.076.105.713.396 1.278 1 1.686-.396.087-.75.161-1.105.246-.418.101-.836.198-1.248.323-.189.058-.36.177-.542.27-.1.05-.199.116-.306.15-.075.022-.163.004-.245.004l-.015-.045m6.495-1.145c-.02.086-.023.179-.06.258-.066.15-.224.22-.358.17-.3-.112-.732-.743-.726-1.062a.43.43 0 0 1 .291-.406.391.391 0 0 1 .468.148c.186.269.37.539.384.892m-12.535.096c.214.003.407.057.522.265.103.183.2.37.29.56.02.04.01.102-.002.15-.068.287.02.428.308.453.132.011.271-.003.4-.035.092-.024.146-.019.182.056-.223.185-.44.371-.665.546-.083.066-.185.083-.253-.036-.342-.61-.626-1.249-.792-1.936 0-.003.004-.008.01-.023m8.082-3.141c-.208-.193-.409-.38-.644-.596.126-.21.251-.452.41-.67a.366.366 0 0 1 .288-.128c.061.007.131.149.156.242.08.299.135.605.21.905.022.099.012.148-.094.167-.116.02-.229.056-.326.08m-12.016-.012l1.178-1.004c.009.008.017.018.027.026-.254.29-.518.57-.758.873-.126.159-.256.177-.447.105m1.925 2.653c-.031-.214-.06-.405-.093-.646l.55.321-.457.325"/></g></svg>