<svg xmlns="http://www.w3.org/2000/svg" width="16" height="16" viewBox="0 0 16 16"><rect id="frame" width="16" height="16" fill="none"/><defs><linearGradient id="a" x1="0%" y1="50%" y2="50%"><stop offset="0%"/><stop offset="100%" stop-color="#6D5656"/></linearGradient><linearGradient id="b" x1="27.36%" x2="129.895%" y1="77.113%" y2="-16.561%"><stop offset="0%"/><stop offset="100%" stop-color="#6D5656"/></linearGradient><linearGradient id="c" x1="19.553%" x2="95.466%" y1="52.371%" y2="5.532%"><stop offset="0%"/><stop offset="100%" stop-color="#6D5656"/></linearGradient></defs><g fill="none" fill-rule="evenodd"><path fill="#1A1A1A" stroke="#000" stroke-width=".5" d="M13.961 6.671l.997.29-.93.274.637.267-.67.126-.034-.957z"/><path fill="url(#a)" d="M3.61 2.81C3.476 4.516 5.515 7.25 7.53 7.469c.788.084 1.943-.661 1.883-1.453C9.245 3.81 5.846 3.698 3.61 2.81z" transform="translate(1 2)"/><path fill="url(#b)" d="M.03 9.124c2.206 2.465 6.18 3.576 9.07 2.383 2.41-.995 3.974-4.206 3.975-6.753 0-1.744-1.742-3.728-4.322-2.91-1.159.367-2.043 1.534-2.79 2.594C4.295 6.664 2.815 8.16.03 9.124z" transform="translate(1 2)"/><path fill="url(#c)" d="M1.69 4.143c.14 1.706 2.59 4.078 4.614 3.97.79-.044 1.812-.965 1.626-1.737-.518-2.152-3.892-1.716-6.24-2.233z" transform="translate(1 2)"/><path fill="#D40000" d="M8.284 4.8c.702.063 1.94.285 2.918.346.802.05 1.75.028 2.41.015.48.822.518 1.7.383 2.467-1.41.236-2.46.062-3.61-.307-1.046-.335-2.083-.84-2.836-1.681.336-.479.45-.582.735-.84z"/><path fill="#FFF" d="M13.502 6.783c-.14.364-.631.514-1.096.335-.464-.18-.726-.62-.586-.984.141-.364.632-.514 1.096-.334.464.179.726.62.586.983z"/><path fill="#1A1A1A" d="M13.454 6.741c-.106.275-.456.396-.781.27s-.502-.45-.396-.725c.106-.274.455-.395.78-.27.325.126.503.45.397.725z"/><path fill="#FFF" d="M13.323 6.396c-.038.097-.157.141-.266.099-.11-.042-.168-.155-.13-.253.037-.097.156-.141.266-.099.11.042.167.156.13.253z"/><path fill="#1A1A1A" d="M13.441 6.288c-.176-.11-.322-.262-.498-.373a2.926 2.926 0 0 0-.533-.302l-.249-.087c-.056.014.011-.037.023-.056l.172-.192c.074.01.14.05.212.068.195.08.372.2.55.314.173.118.335.252.51.367.052.01.05.046.01.068l-.197.193z"/><path fill="#D40000" d="M8.43 5.742c-.338-.011-.732.03-.99-.283a2.664 2.664 0 0 1-.534-.902c-.021-.247-.021-.549-.246-.666-.26-.165-.567-.141-.85-.187-.536-.036-1.047.188-1.546.386-.237.094-.529.076-.703-.162-.135-.155-.217-.357-.303-.55-.125-.125-.133-.319.036-.37l.312-.213c.16.347.282.792.619.947.346.088.667-.148.993-.244a2.603 2.603 0 0 1 1.435-.109c.275.03.607.149.69.504.025.308.08.608.264.84.174.313.43.611.764.624.11.044.474-.045.434.062l-.375.323z"/><path fill="#D40000" d="M8.203 5.58c-.245-.16-.545-.302-.649-.597-.07-.197-.14-.397-.175-.604-.03-.28.001-.563-.013-.845a.306.306 0 0 0-.25-.378c-.235-.069-.484-.06-.725-.093-.222-.012-.487.036-.662-.13-.134-.16-.192-.366-.258-.56-.015-.1.119-.105.177-.164l.318-.202c.023.187.105.363.179.535.101.181.323.19.506.185.288.019.58.024.861.088.177.042.386.168.368.375.012.429-.06.873.088 1.287.06.185.12.385.284.507.122.114.276.189.412.28-.111.098-.254.171-.377.26l-.084.056z"/></g></svg>