<svg xmlns="http://www.w3.org/2000/svg" width="16" height="16" viewBox="0 0 16 16"><rect id="frame" width="16" height="16" fill="none"/><g fill="none" fill-rule="evenodd"><path fill="#62B543" fill-opacity=".7" d="M15.325 14.877c-1.189 1.583-3.727 1.052-5.355 1.126 0 0-.288.016-.579.064 0 0 .11-.047.25-.095 1.143-.395 1.684-.475 2.379-.832 1.305-.668 2.604-2.124 2.868-3.636-.497 1.455-2.008 2.706-3.384 3.214-.942.347-2.645.686-2.645.686l-.07-.037c-1.158-.563-1.19-3.07.913-3.878.923-.355 1.805-.16 2.801-.398 1.064-.252 2.295-1.051 2.795-2.091.562 1.664 1.236 4.267.027 5.877z"/><path fill="#9AA7B0" fill-opacity=".8" d="M10 1h5v5h-5z"/><path fill="#9AA7B0" fill-opacity=".8" d="M5 2h1v1H5z"/><path fill="#9AA7B0" fill-opacity=".8" d="M7 2h1v1H7z"/><path fill="#9AA7B0" fill-opacity=".8" d="M9 2h1v1H9z"/><path fill="#9AA7B0" fill-opacity=".8" d="M1 1h3v3H1z"/><path fill="#9AA7B0" fill-opacity=".8" d="M1 10h5v5H1z"/><path fill="#9AA7B0" fill-opacity=".8" d="M2 9h1v1H2z"/><path fill="#9AA7B0" fill-opacity=".8" d="M2 7h1v1H2z"/><path fill="#9AA7B0" fill-opacity=".8" d="M12 9h1v1h-1z"/><path fill="#9AA7B0" fill-opacity=".8" d="M12 7h1v1h-1z"/><path fill="#9AA7B0" fill-opacity=".8" d="M2 5h1v1H2z"/></g></svg>