<svg xmlns="http://www.w3.org/2000/svg" width="16" height="16" viewBox="0 0 16 16"><rect id="frame" width="16" height="16" fill="none"/><g fill="none" fill-rule="evenodd"><path fill="#9AA7B0" fill-opacity=".8" d="M14.184 10H9.137a2.3 2.3 0 1 0-2.274 0H4v1.976l-.83.374a6.493 6.493 0 0 1-1.356-2.349l1.478-1.06a4.823 4.823 0 0 1 0-1.882L1.814 6a6.493 6.493 0 0 1 1.356-2.35l1.658.748a4.795 4.795 0 0 1 1.635-.945l.18-1.81a6.526 6.526 0 0 1 2.714 0l.18 1.81c.61.205 1.163.53 1.635.945l1.658-.747a6.493 6.493 0 0 1 1.356 2.349l-1.478 1.06a4.823 4.823 0 0 1 0 1.882L14.184 10z"/><path fill="#40B6E0" d="M5 11h8v1a4 4 0 1 1-8 0v-1z"/><path fill="#40B6E0" d="M10.5 12h4a1.5 1.5 0 0 1 0 3h-4a1.5 1.5 0 0 1 0-3zm0 1a.5.5 0 1 0 0 1h4a.5.5 0 1 0 0-1h-4z"/></g></svg>