<svg width="128" height="128" viewBox="0 0 128 128" fill="none" xmlns="http://www.w3.org/2000/svg">
<path d="M89.6003 20.0531L127.147 51.1998L113.494 78.5064L91.307 72.5331H71.6803L89.6003 20.0531Z" fill="url(#paint0_linear)"/>
<path d="M52.0533 40.5333L44.8 78.5067L43.9467 91.7333L26.0267 99.84L0 102.4L7.68 19.6267L54.6133 0L83.6266 18.7733L52.0533 40.5333Z" fill="url(#paint1_linear)"/>
<path d="M52.0533 40.5333L55.4667 114.347L43.9467 128L0 102.4L35.84 48.64L52.0533 40.5333Z" fill="url(#paint2_linear)"/>
<path d="M100.267 34.9867H55.8932L95.1465 0L100.267 34.9867Z" fill="url(#paint3_linear)"/>
<path d="M128 114.347L88.7464 127.573L37.1198 113.067L52.0531 40.5333L58.0264 34.9867L89.5997 32L87.0397 64L112.213 54.1867L128 114.347Z" fill="url(#paint4_linear)"/>
<path d="M103 25H25V103H103V25Z" fill="url(#paint5_linear)"/>
<path d="M62.7001 89.5668H33.6667V94.3335H62.7001V89.5668Z" fill="white"/>
<path d="M61.4001 49.2665C61.4001 41.0332 67.4668 34.0999 76.5668 34.0999C82.2001 34.0999 85.2335 35.8332 88.2668 38.4332L84.3668 43.1999C82.2001 41.0332 80.0335 39.7332 77.0001 39.7332C72.2335 39.7332 68.3335 43.6332 68.3335 48.8332C68.3335 54.0332 71.8001 57.9332 77.0001 57.9332C80.4668 57.9332 82.2001 56.6332 84.8001 54.4665L88.7001 58.7999C85.2335 62.2665 81.7668 63.9999 76.1335 63.9999C67.4668 63.9999 61.4001 57.4999 61.4001 49.2665Z" fill="white"/>
<path d="M34.5333 34.5333H46.4499C53.3833 34.5333 57.6083 38.6499 57.6083 44.6083V44.7166C57.6083 51.4333 52.2999 55.0083 45.7999 55.0083H40.9249V63.7833H34.5333V34.5333ZM46.0166 49.1583C49.2666 49.1583 51.1083 47.3166 51.1083 44.8249V44.7166C51.1083 41.7916 49.1583 40.2749 45.9083 40.2749H40.9249V49.1583H46.0166Z" fill="white"/>
<defs>
<linearGradient id="paint0_linear" x1="45.7121" y1="49.4555" x2="121.887" y2="49.4555" gradientUnits="userSpaceOnUse">
<stop offset="0" stop-color="#21D789"/>
<stop offset="1" stop-color="#07C3F2"/>
</linearGradient>
<linearGradient id="paint1_linear" x1="-44.9088" y1="108.033" x2="111.945" y2="-7.75551" gradientUnits="userSpaceOnUse">
<stop offset="0.0107527" stop-color="#FCF84A"/>
<stop offset="0.1116" stop-color="#A7EB62"/>
<stop offset="0.2056" stop-color="#5FE077"/>
<stop offset="0.2727" stop-color="#32DA84"/>
<stop offset="0.3065" stop-color="#21D789"/>
<stop offset="0.5768" stop-color="#21D789"/>
<stop offset="0.5968" stop-color="#21D789"/>
<stop offset="0.686" stop-color="#20D68C"/>
<stop offset="0.7627" stop-color="#1ED497"/>
<stop offset="0.8348" stop-color="#19D1A9"/>
<stop offset="0.904" stop-color="#13CCC2"/>
<stop offset="0.9707" stop-color="#0BC6E1"/>
<stop offset="1" stop-color="#07C3F2"/>
</linearGradient>
<linearGradient id="paint2_linear" x1="17.0607" y1="141.995" x2="43.2217" y2="59.9036" gradientUnits="userSpaceOnUse">
<stop offset="0" stop-color="#21D789"/>
<stop offset="0.1601" stop-color="#24D888"/>
<stop offset="0.2979" stop-color="#2FD985"/>
<stop offset="0.4273" stop-color="#41DC80"/>
<stop offset="0.5517" stop-color="#5AE079"/>
<stop offset="0.6726" stop-color="#7AE46F"/>
<stop offset="0.7908" stop-color="#A1EA64"/>
<stop offset="0.9045" stop-color="#CFF157"/>
<stop offset="1" stop-color="#FCF84A"/>
</linearGradient>
<linearGradient id="paint3_linear" x1="51.7033" y1="70.6253" x2="108.633" y2="-5.91701" gradientUnits="userSpaceOnUse">
<stop offset="0" stop-color="#21D789"/>
<stop offset="0.0925964" stop-color="#23D986"/>
<stop offset="0.1722" stop-color="#2ADE7B"/>
<stop offset="0.2467" stop-color="#36E669"/>
<stop offset="0.2707" stop-color="#3BEA62"/>
<stop offset="0.3504" stop-color="#47EB61"/>
<stop offset="0.4943" stop-color="#67ED5D"/>
<stop offset="0.6859" stop-color="#9AF156"/>
<stop offset="0.9155" stop-color="#E0F64D"/>
<stop offset="1" stop-color="#FCF84A"/>
</linearGradient>
<linearGradient id="paint4_linear" x1="138.769" y1="80.3648" x2="24.0599" y2="79.3028" gradientUnits="userSpaceOnUse">
<stop offset="0.3871" stop-color="#FCF84A"/>
<stop offset="0.4627" stop-color="#ECF74C"/>
<stop offset="0.611" stop-color="#C1F451"/>
<stop offset="0.8153" stop-color="#7EEF5A"/>
<stop offset="1" stop-color="#3BEA62"/>
</linearGradient>
<linearGradient id="paint5_linear" x1="63.896" y1="6.0421" x2="63.896" y2="75.9925" gradientUnits="userSpaceOnUse">
<stop offset="0.0842986" stop-color="#878585"/>
<stop offset="0.5377"/>
</linearGradient>
</defs>
</svg>
