<svg xmlns="http://www.w3.org/2000/svg" width="16" height="16" viewBox="0 0 16 16"><rect id="frame" width="16" height="16" fill="none"/><g fill="none" fill-rule="evenodd"><path fill="#40B6E0" fill-opacity=".7" d="M7 14H2V2h12v4H9v4H7v4z"/><path fill="#9AA7B0" d="M15.625 9.063V14.5c0 .825-.675 1.5-1.5 1.5h-2.738c-.405 0-.787-.161-1.068-.446L7.375 12.56s.473-.461.487-.469a.458.458 0 0 1 .521-.049c.016.005 1.617.923 1.617.923V8.5a.562.562 0 1 1 1.125 0v2.625h.375V7.562a.562.562 0 1 1 1.125 0v3.563H13V7.937a.562.562 0 1 1 1.125 0v3.188h.375V9.062a.562.562 0 1 1 1.125 0z"/></g></svg>