<svg xmlns="http://www.w3.org/2000/svg" width="16" height="16" viewBox="0 0 16 16"><rect id="frame" width="16" height="16" fill="none"/><g fill="#9AA7B0" fill-rule="evenodd"><path fill-opacity=".8" d="M11.666 12.48A3.5 3.5 0 0 1 10 9.5C10 7.57 11.57 6 13.5 6c.54 0 1.043.133 1.5.351v-2.35H7.984L6.696 2.71C6.306 2.32 5.532 2 4.98 2H1.051a.05.05 0 0 0-.05.05V13h10.665v-.521z"/><path d="M12.666 11.854A2.496 2.496 0 0 1 11 9.502C11 8.12 12.121 7 13.5 7a2.497 2.497 0 1 1 .833 4.854V13.5H16V15h-1.667v1h-1.667v-4.147zm1.667-2.353a.836.836 0 0 0-.833-.835.836.836 0 0 0-.834.835c0 .458.375.833.834.833a.836.836 0 0 0 .833-.833z"/></g></svg>