<svg xmlns="http://www.w3.org/2000/svg" width="16" height="16" viewBox="0 0 16 16"><rect id="frame" width="16" height="16" fill="none"/><g fill="#AE4768" fill-rule="evenodd"><g transform="translate(1.5 6.6)"><path d="M6.295 2.772a1.46 1.46 0 0 0 1.898-1.389l1.83.027c.017.793.662 1.43 1.456 1.43.449 0 .85-.204 1.118-.525.408.57.585 1.271.463 1.976a2.496 2.496 0 0 1-1.217 1.733c-.878.51-1.971.47-2.968.718-2.75.68-5.357 3.39-7.759 1.717C.085 7.741-.112 6.47.086 5.272.25 4.272.78 3.41 1.14 2.586a1.445 1.445 0 0 0 1.168.227l-.128.304c-.38.895.04 1.915.93 2.373A5.825 5.825 0 0 0 5.15 4.22c.443-.42.834-.907 1.145-1.447z"/><circle cx="6.75" cy="1.35" r="1.05" fill-rule="nonzero"/><circle cx="1.95" cy="1.35" r="1.05" fill-rule="nonzero"/><circle cx="11.45" cy="1.35" r="1.05" fill-rule="nonzero"/></g><path fill-rule="nonzero" d="M7 1h7l-1.639 5L10.5 3 8.721 6z"/></g></svg>