<svg xmlns="http://www.w3.org/2000/svg" width="16" height="16" viewBox="0 0 16 16">
  <g fill="none" fill-rule="evenodd">
    <g fill="#AE4768" transform="translate(1.5 6.6)">
      <path d="M6.29465758,2.77176842 C6.43396685,2.81627163 6.58236927,2.84028571 6.73635556,2.84028571 C7.53866904,2.84028571 8.18939663,2.188372 8.19216889,1.38312995 L10.023413,1.40976398 C10.0402547,2.20269813 10.6854489,2.84028571 11.4788978,2.84028571 C11.9279373,2.84028571 12.3294936,2.63607853 12.5965453,2.31507411 C13.0050841,2.88417358 13.182294,3.58627507 13.0604444,4.29117857 C12.9371022,5.00475 12.5025067,5.64032143 11.8432711,6.02385714 C10.9654044,6.53457143 9.87168,6.49478571 8.87527111,6.74160714 C6.12590222,7.42260714 3.51832889,10.1316786 1.11612444,8.45932143 C0.0846577778,7.74125 -0.112462222,6.46964286 0.0852977778,5.27171429 C0.250292571,4.27232483 0.779880147,3.41000487 1.14021067,2.58604203 C1.37672574,2.7528626 1.664907,2.85078571 1.97585778,2.85078571 C2.09002327,2.85078571 2.20111946,2.83758578 2.3077162,2.81262244 C2.26604742,2.91437495 2.22237671,3.0166098 2.17969778,3.11739286 C1.80092444,4.01178571 2.22069333,5.03185714 3.10954667,5.4905 C3.85617778,5.22346429 4.54645333,4.79007143 5.14958222,4.21853571 C5.59312243,3.79820782 5.98417468,3.31195247 6.29465758,2.77176842 Z"/>
      <circle cx="6.75" cy="1.35" r="1.05" fill-rule="nonzero"/>
      <circle cx="1.95" cy="1.35" r="1.05" fill-rule="nonzero"/>
      <circle cx="11.45" cy="1.35" r="1.05" fill-rule="nonzero"/>
    </g>
    <polygon fill="#AE4768" fill-rule="nonzero" points="7 1 14 1 12.361 6 10.5 3 8.721 6"/>
  </g>
</svg>
