<svg width="16" height="16" viewBox="0 0 16 16" fill="none" xmlns="http://www.w3.org/2000/svg">
<path fill-rule="evenodd" clip-rule="evenodd" d="M8 12.5L11.5 9V16L8 12.5Z" fill="#F26522"/>
<path fill-rule="evenodd" clip-rule="evenodd" d="M16 12.5L12.5 16L12.5 9L16 12.5Z" fill="#62B543"/>
<path fill-rule="evenodd" clip-rule="evenodd" d="M1.88134 7.80285C3.12452 7.59565 3.81518 6.97406 3.95331 5.73089C4.02237 4.48771 6.09434 4.55678 6.09434 5.73089C6.09434 7.25033 6.99219 7.73378 8.1663 7.80285C9.47854 7.87192 9.40948 9.87481 8.1663 9.94388C6.85405 10.0129 6.23247 10.7727 6.09434 12.0158C5.9562 13.3281 3.95331 13.3281 3.95331 12.0158C3.95331 10.7036 3.26265 9.87481 1.88134 9.94388C0.776298 10.0129 0.638167 8.01005 1.88134 7.80285Z" fill="#5BC547"/>
<path fill-rule="evenodd" clip-rule="evenodd" d="M10.1692 1.93238C10.0311 3.10649 9.3404 3.79715 8.09723 4.00434C6.85405 4.14248 6.99218 6.21444 8.09723 6.14537C9.47853 6.07631 10.1692 6.90509 10.1692 8.21733C10.1692 8.41093 10.2128 8.57597 10.2876 8.71245L11 8H12.3285C12.4559 6.88595 13.0792 6.21032 14.3131 6.14537C15.6254 6.07631 15.6944 4.00434 14.3131 4.00434C13.139 3.93528 12.3102 3.45182 12.3102 1.93238C12.2411 0.689206 10.2383 0.689206 10.1692 1.93238Z" fill="#7D73FF"/>
</svg>
