<svg width="16" height="16" viewBox="0 0 16 16" fill="none" xmlns="http://www.w3.org/2000/svg"><rect id="frame" width="16" height="16" fill="none"/><path fill-rule="evenodd" clip-rule="evenodd" d="M6.114 11.742c.867-.144 1.348-.578 1.445-1.444.048-.867 1.492-.819 1.492 0 0 1.059.626 1.396 1.444 1.444.915.048.867 1.444 0 1.492-.914.049-1.348.578-1.444 1.445-.096.915-1.492.915-1.492 0s-.482-1.493-1.445-1.444c-.77.048-.866-1.348 0-1.493z" fill="#80D96E"/><path fill-rule="evenodd" clip-rule="evenodd" d="M10.447 9.094c.867-.144 1.348-.626 1.445-1.444.048-.867 1.444-.867 1.492 0 0 1.06.578 1.396 1.396 1.444.963 0 .915 1.445 0 1.493-.915.048-1.348.577-1.396 1.444-.096.915-1.492.915-1.492 0s-.482-1.492-1.445-1.444c-.77.048-.866-1.396 0-1.493z" fill="#7D73FF"/><path fill-rule="evenodd" clip-rule="evenodd" d="M7 3L2 8l3.338 3.338a1.34 1.34 0 0 1 .676-.271c.322-.055.507-.16.616-.267.106-.104.196-.264.231-.536.015-.197.064-.368.139-.516V3z" fill="#F26522"/><path fill-rule="evenodd" clip-rule="evenodd" d="M12.326 6.326c-.539.1-1.11.494-1.165 1.259-.035.277-.125.44-.23.545-.11.11-.295.215-.617.271-.606.076-.949.465-1.107.884A1.471 1.471 0 0 0 9 9.162V3l3.326 3.326z" fill="#62B543"/></svg>