<svg xmlns="http://www.w3.org/2000/svg" width="16" height="16" viewBox="0 0 16 16"><rect id="frame" width="16" height="16" fill="none"/><g fill="none" fill-rule="evenodd"><path fill="#40B6E0" fill-opacity=".6" d="M14.959 8.762A5.002 5.002 0 0 0 5.2 10.3a5.002 5.002 0 0 0 3.251 4.686 7 7 0 1 1 6.508-6.224z"/><path fill="#231F20" fill-opacity=".7" d="M9.108 5.42c-2.239-1.832-4.232.11-4.232.11C5.61 4.605 6.729 4 8 4c1.193 0 2.253.531 2.984 1.361a5.037 5.037 0 0 0-1.876.059zM5.26 9.527a5.038 5.038 0 0 0-.026 1.347A3.95 3.95 0 0 1 4 8c0-.578.128-1.124.348-1.62l1.22.703c-.337 1.004-.403 1.806-.309 2.444z"/><path fill="#9AA7B0" d="M11.914 12.986l1.038-1.038 2.943 2.943-1.038 1.038z"/><path fill="#9AA7B0" d="M10.233 14.167a3.833 3.833 0 1 1 0-7.667 3.833 3.833 0 0 1 0 7.667zm0-1.334a2.5 2.5 0 1 0 0-5 2.5 2.5 0 0 0 0 5z"/></g></svg>