<svg xmlns="http://www.w3.org/2000/svg" width="16" height="16" viewBox="0 0 16 16"><rect id="frame" width="16" height="16" fill="none"/><g fill="none" fill-rule="evenodd"><path fill="#40B6E0" fill-opacity=".6" d="M8 15a7 7 0 1 1 6.93-8H8v8z"/><path fill="#231F20" fill-opacity=".7" d="M9.932 6.264l1.218-.703A3.98 3.98 0 0 0 8 4c-1.271 0-2.39.605-3.124 1.53 0 0 2.507-2.442 5.056.734m-4.365.819L4.348 6.38A3.982 3.982 0 0 0 4 8c0 2.052 1.55 3.723 3.54 3.954 0 0-3.393-.631-1.973-4.871"/><path fill="#9AA7B0" fill-opacity=".8" d="M9 8v8h6V8z"/><path fill="#231F20" fill-opacity=".7" fill-rule="nonzero" d="M10 12h4v-1h-4v1zm0 2h4v-1h-4v1zm0-4h4V9h-4v1z"/></g></svg>