<svg xmlns="http://www.w3.org/2000/svg" width="16" height="16" viewBox="0 0 16 16"><rect id="frame" width="16" height="16" fill="none"/><path fill="#6E6E6E" d="M14 3.746l-.607.076c-.086.356-.228.69-.414.994l.959 1.231a4.96 4.96 0 0 1-.89.89l-1.232-.959a3.423 3.423 0 0 1-.994.414l-.192 1.543c-.209.027-.414.065-.63.065-.216 0-.421-.038-.63-.065l-.192-1.543a3.423 3.423 0 0 1-.994-.414l-1.232.958a4.922 4.922 0 0 1-.889-.889l.958-1.23a3.462 3.462 0 0 1-.414-.995L5.063 3.63C5.037 3.42 5 3.215 5 3c0-.217.037-.422.063-.63l1.544-.192c.015-.062.04-.118.059-.178h1.611A1.977 1.977 0 0 0 8 3a2 2 0 0 0 4 0c0-.366-.105-.705-.277-1h1.611c.019.06.044.116.059.178l.607.075v1.493zm-3.063 9.885l-1.544.191c-.015.062-.04.117-.059.178H7.723c.172-.295.277-.634.277-1a2 2 0 0 0-4 0c0 .366.105.705.277 1H2.666c-.019-.06-.044-.116-.059-.178L2 13.747v-1.493l.607-.076a3.48 3.48 0 0 1 .414-.995l-.959-1.23c.258-.334.557-.63.89-.89l1.232.958c.304-.185.637-.328.994-.414l.192-1.543C5.579 8.038 5.784 8 6 8c.216 0 .421.038.63.064l.192 1.543c.357.086.69.23.994.414l1.232-.958c.333.26.632.556.89.89l-.959 1.23c.186.305.328.64.414.995l1.544.193c.026.21.063.414.063.63 0 .216-.037.421-.063.63zM5 13.001A1 1 0 1 1 7 13a1 1 0 0 1-2 0zm6-10a1 1 0 1 1-2 0 1 1 0 0 1 2 0zM1 15h14V1H1v14z" fill-rule="evenodd"/></svg>