<svg xmlns="http://www.w3.org/2000/svg" width="16" height="16" viewBox="0 0 16 16"><rect id="frame" width="16" height="16" fill="none"/><path fill="#941100" d="M1 1h14v14H1V1zm2.019 7.927V5H2v3.927C2.027 10.077 2.853 11 3.869 11c1.032 0 1.868-.952 1.868-2.127 0-1.175-.836-2.128-1.868-2.128-.177 0-.348.028-.51.08V8.03a.78.78 0 0 1 .51-.194c.469 0 .849.433.849.967s-.38.967-.85.967c-.431 0-.788-.367-.841-.843h-.007zm9.962 0h-.007c-.053.476-.41.843-.842.843-.469 0-.849-.433-.849-.967s.38-.967.85-.967a.78.78 0 0 1 .509.194V6.826a1.657 1.657 0 0 0-.51-.08c-1.032 0-1.868.952-1.868 2.127 0 1.175.836 2.127 1.868 2.127 1.016 0 1.842-.923 1.867-2.073L14 5h-1.019v3.927zm-4.415 1.964h1.019V8.004c0-.695-.563-1.259-1.258-1.259h-.654c-.695 0-1.258.564-1.258 1.259v2.887h1.019V8.402a.566.566 0 0 1 1.132 0v2.489z"/></svg>