<svg xmlns="http://www.w3.org/2000/svg" width="16" height="16" viewBox="0 0 16 16"><rect id="frame" width="16" height="16" fill="none"/><g fill="none" fill-rule="evenodd"><path fill="#941100" fill-rule="nonzero" d="M15 10.517l-1.068-1.075c.04-.164.063-.337.067-.515L14 5h-1.019v3.484L12.5 8h-.84a.774.774 0 0 1 .472-.164.78.78 0 0 1 .51.194V6.826a1.657 1.657 0 0 0-.51-.08c-.797 0-1.477.567-1.745 1.367l-.802.802v-.911c0-.695-.563-1.259-1.258-1.259h-.654c-.695 0-1.258.564-1.258 1.259v2.887h1.019V8.402a.566.566 0 0 1 1.132 0v1.532L6 12.5 8.5 15H1V1h14v9.517zm0 4.327V15h-.135l.135-.156zM3.019 8.927V5H2v3.927C2.027 10.077 2.853 11 3.869 11c1.032 0 1.868-.952 1.868-2.127 0-1.175-.836-2.128-1.868-2.128-.177 0-.348.028-.51.08V8.03a.78.78 0 0 1 .51-.194c.469 0 .849.433.849.967s-.38.967-.85.967c-.431 0-.788-.367-.841-.843h-.007z"/><path fill="#62B543" d="M15.5 12.5L12 16V9z"/><path fill="#F26522" d="M7.5 12.5L11 9v7z"/></g></svg>