<svg xmlns="http://www.w3.org/2000/svg" width="16" height="16" viewBox="0 0 16 16"><rect id="frame" width="16" height="16" fill="none"/><g fill="none" fill-rule="evenodd"><path fill="#F08B22" fill-rule="nonzero" d="M0 3h16v10H0z"/><path fill="#231F20" fill-opacity=".7" d="M2.712 10.482C1.243 10.482.19 9.387.19 8.034V8.02c0-1.353 1.068-2.462 2.537-2.462 1.468 0 2.522 1.095 2.522 2.448v.014c0 1.353-1.067 2.462-2.536 2.462zm.014-.966c.843 0 1.428-.666 1.428-1.482V8.02c0-.816-.599-1.496-1.442-1.496s-1.428.666-1.428 1.482v.014c0 .816.598 1.496 1.442 1.496zm4.628.952c-.721 0-1.449-.252-2.02-.762l.619-.74c.428.353.877.577 1.42.577.43 0 .688-.17.688-.449v-.013c0-.265-.163-.401-.96-.605-.958-.245-1.577-.51-1.577-1.456v-.013c0-.864.694-1.435 1.666-1.435.694 0 1.286.218 1.768.605l-.544.789c-.421-.292-.836-.47-1.237-.47-.401 0-.612.184-.612.416v.013c0 .313.204.415 1.027.626.965.251 1.51.598 1.51 1.428v.013c0 .946-.722 1.476-1.748 1.476zm4.464.014c-1.482 0-2.502-1.04-2.502-2.448V8.02c0-1.353 1.054-2.462 2.495-2.462.857 0 1.374.232 1.87.653l-.66.796c-.366-.306-.693-.483-1.244-.483-.761 0-1.366.673-1.366 1.482v.014c0 .87.598 1.51 1.441 1.51.381 0 .721-.096.986-.286v-.68h-1.054V7.66h2.067v2.067a3.09 3.09 0 0 1-2.033.755zm2.602-.082V5.64h1.047v4.76H14.42z"/></g></svg>