<svg xmlns="http://www.w3.org/2000/svg" width="16" height="16" viewBox="0 0 16 16"><rect id="frame" width="16" height="16" fill="none"/><g fill="#9AA7B0" fill-rule="evenodd"><path d="M10.093 12.745l2.652-2.652.884.884-2.652 2.652z"/><path d="M9.652 10.535l.619.619-.884.884a1.625 1.625 0 0 0 2.298 2.298l.884-.884.618.619-.884.884a2.5 2.5 0 0 1-3.535-3.536l.884-.884zm.884-.884l.884-.884a2.5 2.5 0 0 1 3.535 3.536l-.884.884-.619-.619.884-.884a1.625 1.625 0 1 0-2.298-2.298l-.884.884-.618-.619z"/></g></svg>