<svg xmlns="http://www.w3.org/2000/svg" width="16" height="16" viewBox="0 0 16 16"><rect id="frame" width="16" height="16" fill="none"/><g fill="#9AA7B0" fill-opacity=".8" fill-rule="evenodd"><path d="M5.55 9.192L9.792 4.95l1.414 1.414-4.242 4.242z"/><path d="M4.543 5.857l.99.99L4.118 8.26a2.6 2.6 0 0 0 3.677 3.677l1.415-1.414.99.99-1.415 1.414A4 4 0 0 1 3.128 7.27l1.415-1.414zm1.414-1.415L7.37 3.028a4 4 0 1 1 5.657 5.657L11.614 10.1l-.99-.99 1.414-1.414a2.6 2.6 0 1 0-3.677-3.677L6.947 5.432l-.99-.99z"/></g></svg>