<svg xmlns="http://www.w3.org/2000/svg" width="16" height="16" viewBox="0 0 16 16"><rect id="frame" width="16" height="16" fill="none"/><g fill="none" fill-rule="evenodd"><path fill="#F26522" fill-opacity=".7" d="M1 16h15V9H1z"/><path fill="#9AA7B0" fill-opacity=".8" d="M7 1L3 5h4z"/><path fill="#9AA7B0" fill-opacity=".8" d="M8 1v5H3v2h10V1z"/><path fill="#231F20" fill-opacity=".7" d="M5.5 10l-1.6 2.45L5.5 15H4.3l-1.05-1.907L2.2 15H1l1.6-2.55L1 10h1.2l1.05 1.814L4.3 10z"/><path fill="#231F20" fill-opacity=".7" d="M5.973 11.502c0-.369.311-.502.872-.502H8v-1H6.86C5.778 10 5 10.46 5 11.45c0 .865.42 1.24 1.471 1.466.77.165 1.025.313 1.025.632 0 .32-.358.452-1.025.452H5.3v1h1.171C8.5 15 8.5 14 8.5 13.548c0-.632-.48-1.127-1.341-1.401-.862-.274-1.186-.277-1.186-.645z"/><path fill="#231F20" fill-opacity=".7" d="M9 10h1v4h2.5v1H9z"/><path fill="#231F20" fill-opacity=".7" d="M13 11h-1.5v-1h4v1H14v4h-1z"/></g></svg>