<svg xmlns="http://www.w3.org/2000/svg" width="16" height="16" viewBox="0 0 16 16"><rect id="frame" width="16" height="16" fill="none"/><path fill="#D9A343" fill-rule="evenodd" d="M2.5 5.356V3.604l1.501-.87 1.499.87v1.752l-1.501.87-1.499-.87zM7 6.22V2.74l-2.998-1.74L1 2.739v3.48l2.998 1.74 1.329-.768L7 6.22zm2.5 6.136l-1.501.869-1.499-.87v-1.752l1.501-.87 1.499.87v1.753zM5 9.739v3.48l2.998 1.742 1.329-.77L11 13.22V9.74l-2.998-1.74L5 9.739zm8.5-4.383l-1.501.87-1.499-.87V3.604l1.501-.87 1.499.87v1.752zM12.002 1L9 2.74v3.48l2.998 1.741 1.329-.77L15 6.22V2.743L12.002 1z"/></svg>