<svg xmlns="http://www.w3.org/2000/svg" width="16" height="16" viewBox="0 0 16 16">
  <g fill-rule="evenodd">
    <path fill="#6E6E6E" d="M8,1 C5.196,1 2.784,2.652 1.667,5.033 C1.777,5.021 1.886,5 2,5 C2.44,5 2.854,5.101 3.231,5.271 C4.181,3.618 5.961,2.5 8,2.5 C11.033,2.5 13.5,4.968 13.5,8 C13.5,11.032 11.033,13.5 8,13.5 C5.961,13.5 4.181,12.382 3.231,10.729 C2.854,10.899 2.44,11 2,11 C1.886,11 1.777,10.979 1.667,10.967 C2.784,13.348 5.196,15 8,15 C11.866,15 15,11.866 15,8 C15,4.134 11.866,1 8,1"/>
    <path fill="#389FD6" d="M4,8 C4,9.104 3.104,10 2,10 C0.896,10 0,9.104 0,8 C0,6.896 0.896,6 2,6 C3.104,6 4,6.896 4,8"/>
  </g>
</svg>
