<svg xmlns="http://www.w3.org/2000/svg" width="16" height="16" viewBox="0 0 16 16">
  <path fill="#AFB1B3" fill-rule="evenodd" d="M2.5,1 C1.671,1 1,1.672 1,2.5 L1,6.508 C1.283,6.219 1.666,6.047 2.071,6.027 L3.572,6.634 C4.14,6.845 4.729,6.993 5.329,7.078 C5.35,7.078 3.908,6.167 3.415,5.917 C2.371,5.39 1.783,5.005 1.83,4.524 C1.962,3.908 2.206,3.32 2.548,2.791 C2.657,2.693 6.192,4.534 6.498,4.371 C6.546,4.346 6.439,3.97 5.606,3.507 C5.24,3.33 4.894,3.112 4.574,2.859 C4.979,2.6 5.411,2.383 5.861,2.214 C6.732,1.939 11.716,3.327 11.776,3.622 C11.951,4.383 12.026,5.163 12,5.943 C12.02,6.47 11.317,6.136 9.692,5.631 C9.176,5.471 7.985,5.216 8.4,5.746 C9.376,6.318 10.383,6.838 11.416,7.3 C11.96,8.393 12.103,9.643 11.819,10.83 C11.723,11.007 10.045,10.27 9.221,9.495 C8.826,9.161 8.402,8.861 7.956,8.6 C8.068,9.084 8.276,9.542 8.567,9.945 C9.48,10.878 10.524,11.673 11.665,12.307 C11.665,12.307 11.067,13.668 10.958,13.814 C9.335,13.268 7.775,12.553 6.303,11.68 C4.8,10.882 4.529,11.469 4.494,11.461 C3.377,12.218 2.209,12.897 1,13.496 L1,13.5 C1,14.328 1.671,15 2.5,15 L13.5,15 C14.329,15 15,14.328 15,13.5 L15,2.5 C15,1.672 14.329,1 13.5,1 L2.5,1 Z"/>
</svg>
