<svg ti:v="1" width="16" height="16" viewBox="0 0 16 16" xmlns="http://www.w3.org/2000/svg" xmlns:ti="urn:schemas-jetbrains-com:tisvg"><rect id="frame" width="16" height="16" fill="none"/><g fill-rule="evenodd"><path d="M14 11.697l-3-6V3h1V1H4v2h1v2.697l-3 6v.538L3.382 15h9.236L14 12.235v-.538z" fill="#242424"/><path d="M10 6V3h1V2H5v1h1v3l-3 6 1 2h8l1-2-3-6z" fill="#C4C4C4"/><path d="M10.132 8h-2.8L5 13h-.382l-.465-.928 2.679-5.517L7 6.303V3h2v3.303l.168.252L10.132 8z" fill="#282828"/></g></svg>