<svg ti:v="1" width="16" height="16" viewBox="0 0 16 16" xmlns="http://www.w3.org/2000/svg" xmlns:ti="urn:schemas-jetbrains-com:tisvg"><rect id="frame" width="16" height="16" fill="none"/><linearGradient id="a" x1=".5" y1=".017" x2=".5" y2="1.025"><stop offset="0" stop-color="#5572A1"/><stop offset="1" stop-color="#405980"/></linearGradient><path fill-rule="evenodd" d="M13 6v4l-5 5-5-5V6h1l2 1V4h4v3l2-1h1z" fill="url(#a)"/><linearGradient id="b" x1=".5" y1=".057" x2=".5" y2="1.012"><stop offset="0" stop-color="#8CD5FF"/><stop offset=".994" stop-color="#20A2FF"/><stop offset="1" stop-color="#20A2FF"/></linearGradient><path fill-rule="evenodd" d="M12 9l-4 4-4-4V7l3 2V5h2v4l3-2v2z" fill="url(#b)"/><linearGradient id="c" x1=".5" y1="0" x2=".5" y2="1.04"><stop offset="0" stop-color="#37AD0D"/><stop offset="1" stop-color="#006F33"/></linearGradient><path fill-rule="evenodd" d="M13 5H3V1h10v4z" fill="url(#c)"/><linearGradient id="d" x1=".5" y1="0" x2=".5" y2=".974"><stop offset="0" stop-color="#8DFF62"/><stop offset="1" stop-color="#29C771"/></linearGradient><path fill-rule="evenodd" d="M12 4H4V2h8v2z" fill="url(#d)"/></svg>