<svg ti:v="1" width="16" height="16" viewBox="0 0 16 16" xmlns="http://www.w3.org/2000/svg" xmlns:ti="urn:schemas-jetbrains-com:tisvg"><rect id="frame" width="16" height="16" fill="none"/><linearGradient id="a" x1=".5" y1=".011" x2=".5" y2="1.006"><stop offset="0" stop-color="#566980"/><stop offset="1" stop-color="#2C3641"/></linearGradient><path fill-rule="evenodd" d="M2 0v15h13V4l-4-4H2z" fill="url(#a)"/><linearGradient id="b" x1=".5" y1=".011" x2=".5" y2="1.006"><stop offset="0" stop-color="#001E41"/><stop offset="1" stop-color="#566980"/></linearGradient><path fill-rule="evenodd" d="M3 14V1h7.586L14 4.414V14H3z" fill="url(#b)"/><path fill-rule="evenodd" d="M12 3h-1v1h1m0 1h-1v1h1m-2-5H9v1h1m4 11h-1v1h1m-8-1H5v1h1m-2-1H3v1h1m8-1h-1v1h1m-2-1H9v1h1m-2-1H7v1h1m-4-3H3v1h1m0-3H3v1h1m0-3H3v1h1m0-3H3v1h1m0-3H3v1h1m10 7h-1v1h1m0-3h-1v1h1m0-3h-1v1h1M4 1H3v1h1m6 1H9v1h1m0 1H9v1h1m4-1h-1v1h1M8 1H7v1h1M6 2H5V1h1v1z" fill="#FFF"/></svg>