<svg ti:v="1" width="16" height="16" viewBox="0 0 16 16" xmlns="http://www.w3.org/2000/svg" xmlns:ti="urn:schemas-jetbrains-com:tisvg"><rect id="frame" width="16" height="16" fill="none"/><linearGradient id="a" x1=".5" y1=".011" x2=".5" y2="1"><stop offset="0" stop-color="#70798F"/><stop offset="1" stop-color="#3C414C"/></linearGradient><path fill-rule="evenodd" d="M14 15H2V1h12v14z" fill="url(#a)"/><linearGradient id="b" x1=".5" y1="0" x2=".5" y2="1.007"><stop offset="0" stop-color="#AFD8E3"/><stop offset="1" stop-color="#95A8CC"/></linearGradient><path fill-rule="evenodd" d="M13 14H3V2h10v12z" fill="url(#b)"/><path fill-rule="evenodd" d="M11 12H5V4h6v8z" fill="#FFF"/><linearGradient id="c" x1="0" y1=".5" x2="1" y2=".5"><stop offset="0" stop-color="#6DC8FF"/><stop offset="1" stop-color="#3F8BFF"/></linearGradient><path fill-rule="evenodd" d="M8 7H6v1h2m2-2H6V5h4v1z" fill="url(#c)"/><linearGradient id="d" x1=".5" y1=".028" x2=".5" y2="1.001"><stop offset="0" stop-color="#566980"/><stop offset="1" stop-color="#2C3641"/></linearGradient><path fill-rule="evenodd" d="M16 5H9V0h7v5z" fill="url(#d)"/><linearGradient id="e" x1=".5" y1=".003" x2=".5" y2=".988"><stop offset="0" stop-color="#2C3641"/><stop offset="1" stop-color="#566980"/></linearGradient><path fill-rule="evenodd" d="M15 4h-5V1h5v3z" fill="url(#e)"/><path fill-rule="evenodd" d="M14 3.999h1V3h-1m-4 1h1V3h-1m2 1h1V3h-1m3-2h-1v1h1m-2-1h-1v1h1m-2-.001h-1V1h1v.999z" fill="#FFF"/><linearGradient id="f" x1=".5" y1=".028" x2=".5" y2="1.001"><stop offset="0" stop-color="#566980"/><stop offset="1" stop-color="#2C3641"/></linearGradient><path fill-rule="evenodd" d="M16 11H9V6h7v5z" fill="url(#f)"/><linearGradient id="g" x1=".5" y1=".003" x2=".5" y2=".988"><stop offset="0" stop-color="#2C3641"/><stop offset="1" stop-color="#566980"/></linearGradient><path fill-rule="evenodd" d="M15 10h-5V7h5v3z" fill="url(#g)"/><path fill-rule="evenodd" d="M14 9.999h1V9h-1m-4 1h1V9h-1m2 1h1V9h-1m3-2h-1v1h1m-2-1h-1v1h1m-2-.001h-1V7h1v.999z" fill="#FFF"/></svg>