<svg ti:v="1" width="16" height="16" viewBox="0 0 16 16" xmlns="http://www.w3.org/2000/svg" xmlns:ti="urn:schemas-jetbrains-com:tisvg"><rect id="frame" width="16" height="16" fill="none"/><g fill-rule="evenodd"><path d="M2 0v15h13V4l-4-4H2z" fill="#F4F4F4"/><path d="M3 14V1h7.586L14 4.414V14H3z" fill="#EBEBEB"/><path d="M12 3h-1v1h1m0 1h-1v1h1m-2-5H9v1h1m4 11h-1v1h1m-8-1H5v1h1m-2-1H3v1h1m8-1h-1v1h1m-2-1H9v1h1m-2-1H7v1h1m-4-3H3v1h1m0-3H3v1h1m0-3H3v1h1m0-3H3v1h1m0-3H3v1h1m10 7h-1v1h1m0-3h-1v1h1m0-3h-1v1h1M4 1H3v1h1m6 1H9v1h1m0 1H9v1h1m4-1h-1v1h1M8 1H7v1h1M6 2H5V1h1v1z" fill="#313131"/></g></svg>