<svg ti:v="1" width="16" height="16" viewBox="0 0 16 16" xmlns="http://www.w3.org/2000/svg" xmlns:ti="urn:schemas-jetbrains-com:tisvg"><rect id="frame" width="16" height="16" fill="none"/><g fill-rule="evenodd"><path d="M14 15H2V1h12v14z" fill="#242424"/><path d="M13 14H3V2h10v12z" fill="#C4C4C4"/><path d="M11 12H5V4h6v8z" fill="#282828"/><path d="M8 7H6v1h2m2-2H6V5h4v1z" fill="#C4C4C4"/><path d="M16 5H9V0h7v5z" fill="#242424"/><path d="M15 4h-5V1h5v3z" fill="#282828"/><path d="M14 3.999h1V3h-1m-4 1h1V3h-1m2 1h1V3h-1m3-2h-1v1h1m-2-1h-1v1h1m-2-.001h-1V1h1v.999z" fill="#C4C4C4"/><path d="M16 11H9V6h7v5z" fill="#242424"/><path d="M15 10h-5V7h5v3z" fill="#282828"/><path d="M14 9.999h1V9h-1m-4 1h1V9h-1m2 1h1V9h-1m3-2h-1v1h1m-2-1h-1v1h1m-2-.001h-1V7h1v.999z" fill="#C4C4C4"/></g></svg>