<svg ti:v="1" width="16" height="16" viewBox="0 0 16 16" xmlns="http://www.w3.org/2000/svg" xmlns:ti="urn:schemas-jetbrains-com:tisvg"><rect id="frame" width="16" height="16" fill="none"/><linearGradient id="a" x1=".5" y1=".002" x2=".5" y2="1.008"><stop offset="0" stop-color="#5572A1"/><stop offset="1" stop-color="#405980"/></linearGradient><path fill-rule="evenodd" d="M6 2.5c0 .795.383 1.529 1.001 1.993V5h-2v5.585L4.5 11A2.503 2.503 0 0 0 2 13.5C2 14.879 3.122 16 4.5 16S7 14.879 7 13.5c0-.319-.059-.627-.172-.914L7.414 12h2.172l.586.586A2.503 2.503 0 0 0 12.5 16c1.378 0 2.5-1.121 2.5-2.5S13.878 11 12.5 11l-.084.002-.416-.416V5h-2v-.507c.618-.464 1-1.198 1-1.993C11 1.121 9.879 0 8.5 0A2.502 2.502 0 0 0 6 2.5z" fill="url(#a)"/><linearGradient id="b" x1=".5" y1="0" x2=".5" y2="1.008"><stop offset="0" stop-color="#B8E5FF"/><stop offset=".994" stop-color="#80CAFF"/><stop offset="1" stop-color="#80CAFF"/></linearGradient><path fill-rule="evenodd" d="M7 2.5c0 .653.419 1.201 1.001 1.408V6H9V3.908c.582-.207 1-.755 1-1.408a1.5 1.5 0 1 0-3 0zm3 8.5l1.44 1.44A1.5 1.5 0 0 0 12.5 15a1.5 1.5 0 1 0 0-3c-.151 0-.293.029-.43.07L11 11m-5 0l-1.07 1.07A1.489 1.489 0 0 0 4.5 12a1.5 1.5 0 0 0 0 3A1.5 1.5 0 0 0 6 13.5c0-.414-.168-.789-.44-1.06L7 11H6z" fill="url(#b)"/><linearGradient id="c" x1=".5" y1="0" x2=".5" y2="1.008"><stop offset="0" stop-color="#F6E468"/><stop offset="1" stop-color="#EFD205"/></linearGradient><path fill-rule="evenodd" d="M6 11h5V6.001H6V11z" fill="url(#c)"/><path fill-rule="evenodd" d="M9 9h-.999V8H9v1z" fill="#F3DD42"/><path fill-rule="evenodd" d="M9 2.5a.5.5 0 1 1-1 0 .5.5 0 0 1 1 0z" fill="#FFF"/><path fill-rule="evenodd" d="M5 13.5a.5.5 0 1 1-1 0 .5.5 0 0 1 1 0z" fill="#FFF"/><path fill-rule="evenodd" d="M13 13.5a.5.5 0 1 1-1 0 .5.5 0 0 1 1 0z" fill="#FFF"/></svg>