<svg ti:v="1" width="16" height="16" viewBox="0 0 16 16" xmlns="http://www.w3.org/2000/svg" xmlns:ti="urn:schemas-jetbrains-com:tisvg"><rect id="frame" width="16" height="16" fill="none"/><g fill-rule="evenodd"><path d="M12.5 16a2.503 2.503 0 0 1-2.328-3.414L9.586 12H7.414l-.586.586A2.503 2.503 0 0 1 4.5 16 2.503 2.503 0 0 1 2 13.5c0-1.379 1.122-2.5 2.584-2.498l.417-.417V5H7v-.507A2.5 2.5 0 0 1 6 2.5C6 1.121 7.122 0 8.5 0S11 1.121 11 2.5c0 .795-.382 1.529-1 1.993V5h2v5.586l.5.414c1.378 0 2.5 1.121 2.5 2.5S13.878 16 12.5 16z" fill="#F4F4F4"/><path d="M12.5 12c-.15 0-.293.029-.43.07L11 11h-1l1.44 1.439A1.5 1.5 0 1 0 12.5 12zM8 3.908V6h1V3.908A1.495 1.495 0 0 0 8.5 1 1.496 1.496 0 1 0 8 3.908zM7 11l-1.44 1.439A1.5 1.5 0 1 1 4.5 12c.15 0 .293.029.43.07L6 11h1z" fill="#313131"/><path d="M11 11H6V6h5v5z" fill="#313131"/><path d="M9 9h-.999V8H9v1z" fill="#EBEBEB"/><path d="M9 2.5a.5.5 0 1 1-1 0 .5.5 0 0 1 1 0z" fill="#EBEBEB"/><path d="M5 13.5a.5.5 0 1 1-1 0 .5.5 0 0 1 1 0z" fill="#EBEBEB"/><path d="M13 13.5a.5.5 0 1 1-1 0 .5.5 0 0 1 1 0z" fill="#EBEBEB"/></g></svg>