<svg ti:v="1" width="16" height="16" viewBox="0 0 16 16" xmlns="http://www.w3.org/2000/svg" xmlns:ti="urn:schemas-jetbrains-com:tisvg"><rect id="frame" width="16" height="16" fill="none"/><g fill-rule="evenodd"><path d="M16 15H1V0h15v15z" fill="#242424"/><path d="M15 14H2V1h13v13z" fill="#282828"/><path d="M7 7H6v1h1M3 7H2v1h1m12-1h-1v1h1m0-5h-1v1h1M9 5H8v1h1m0-5H8v1h1M7 9H6v1h1m0-5H6v1h1m0-5H6v1h1M5 5H4v1h1m2-3H6v1h1M5 1H4v1h1M3 9H2v1h1m0-5H2v1h1m0-3H2v1h1m0-3H2v1h1m6 11H8v1h1m-4-1H4v1h1m2-3H6v1h1m0 1H6v1h1m-4-1H2v1h1m0-3H2v1h1m12-3h-1v1h1m0-5h-1v1h1m0-5h-1v1h1m-2 3h-1v1h1m0-5h-1v1h1m-2 3h-1v1h1m0-5h-1v1h1m4 9h-1v1h1m-2 1h-1v1h1m2-1h-1v1h1m-4 0h-1v-1h1v1z" fill="#C4C4C4"/></g></svg>