<svg ti:v="1" width="16" height="16" viewBox="0 0 16 16" xmlns="http://www.w3.org/2000/svg" xmlns:ti="urn:schemas-jetbrains-com:tisvg"><rect id="frame" width="16" height="16" fill="none"/><linearGradient id="a" x1=".5" y1=".015" x2=".5" y2="1"><stop offset="0" stop-color="#566980"/><stop offset="1" stop-color="#2C3641"/></linearGradient><path fill-rule="evenodd" d="M16 15H1V0h15v15z" fill="url(#a)"/><linearGradient id="b" x1=".5" y1=".017" x2=".5" y2="1.009"><stop offset="0" stop-color="#001E41"/><stop offset="1" stop-color="#566980"/></linearGradient><path fill-rule="evenodd" d="M15 14H2V1h13v13z" fill="url(#b)"/><path fill-rule="evenodd" d="M7 7H6v1h1M3 7H2v1h1m12-1h-1v1h1m0-5h-1v1h1M9 5H8v1h1m0-5H8v1h1M7 9H6v1h1m0-5H6v1h1m0-5H6v1h1M5 5H4v1h1m2-3H6v1h1M5 1H4v1h1M3 9H2v1h1m0-5H2v1h1m0-3H2v1h1m0-3H2v1h1m6 11H8v1h1m-4-1H4v1h1m2-3H6v1h1m0 1H6v1h1m-4-1H2v1h1m0-3H2v1h1m12-3h-1v1h1m0-5h-1v1h1m0-5h-1v1h1m-2 3h-1v1h1m0-5h-1v1h1m-2 3h-1v1h1m0-5h-1v1h1m4 9h-1v1h1m-2 1h-1v1h1m2-1h-1v1h1m-4 0h-1v-1h1v1z" fill="#FFF"/></svg>