<svg ti:v="1" width="16" height="16" viewBox="0 0 16 16" xmlns="http://www.w3.org/2000/svg" xmlns:ti="urn:schemas-jetbrains-com:tisvg"><rect id="frame" width="16" height="16" fill="none"/><linearGradient id="a" x1=".5" y1=".004" x2=".5" y2="1.002"><stop offset="0" stop-color="#207477"/><stop offset="1" stop-color="#065558"/></linearGradient><path fill-rule="evenodd" d="M0 8a8 8 0 0 0 16 0A8 8 0 0 0 0 8z" fill="url(#a)"/><linearGradient id="b" x1="-.005" y1="-5.453" x2="-.005" y2="8.804"><stop offset="0" stop-color="#B8E6DF"/><stop offset="1" stop-color="#85BFE3"/></linearGradient><path fill-rule="evenodd" d="M1.223 6.305z" fill="url(#b)"/><linearGradient id="c" x1=".525" y1="-385.697" x2=".525" y2="233.079"><stop offset="0" stop-color="#B8E6DF"/><stop offset="1" stop-color="#85BFE3"/></linearGradient><path fill-rule="evenodd" d="M14.777 9.694l.009-.023-.009.023z" fill="url(#c)"/><linearGradient id="d" x1=".149" y1=".149" x2=".85" y2=".85"><stop offset="0" stop-color="#C4D937"/><stop offset="1" stop-color="#00D9FF"/></linearGradient><path fill-rule="evenodd" d="M4.872 1.744l1.792 3.583A2.97 2.97 0 0 1 8 5a3 3 0 0 1 3 3h4a7 7 0 0 0-7-7 6.973 6.973 0 0 0-3.128.744zM1.223 6.305l3.876.971c.092-.372.249-.714.465-1.017L2.309 3.935c-.57.795-1.018 2.182-1.086 2.37zM6 8a2 2 0 0 0 4 0 2 2 0 0 0-4 0zm1 0a1 1 0 1 1 2 0 1 1 0 1 1-2 0zM1 8a7 7 0 0 0 7 7 6.96 6.96 0 0 0 3.128-.744l-1.792-3.583A2.973 2.973 0 0 1 8 11a3 3 0 0 1-3-3m5.436 1.74l3.255 2.325c.57-.795 1.018-2.182 1.086-2.371l-3.876-.969a2.99 2.99 0 0 1-.465 1.015z" fill="url(#d)"/><path fill-rule="evenodd" d="M8 10.001A2 2 0 1 1 8.001 6 2 2 0 0 1 8 10zm6.781-.306A6.865 6.865 0 0 0 15 8h-4a3 3 0 0 0-3-3c-.482 0-.933.125-1.336.327L4.872 1.744a7.023 7.023 0 0 0-2.563 2.191L5.564 6.26a2.963 2.963 0 0 0-.465 1.015l-3.88-.97A6.865 6.865 0 0 0 1 8h4a3 3 0 0 0 3 3c.482 0 .933-.125 1.336-.327l1.792 3.583a7.023 7.023 0 0 0 2.563-2.191L10.436 9.74c.215-.302.374-.644.465-1.015l3.88.97z" fill="#FFF"/><linearGradient id="e" x1=".5" y1=".005" x2=".5" y2="1.012"><stop offset="0" stop-color="#566980"/><stop offset="1" stop-color="#2C3641"/></linearGradient><path fill-rule="evenodd" d="M0 16h9V7H0v9z" fill="url(#e)"/><linearGradient id="f" x1=".5" y1=".023" x2=".5" y2="1.004"><stop offset="0" stop-color="#2C3641"/><stop offset="1" stop-color="#566980"/></linearGradient><path fill-rule="evenodd" d="M1 14.999h6.999v-7H1v7z" fill="url(#f)"/><path fill-rule="evenodd" d="M5 10.999h1V10H5m-2 2.999h1V12H3m-2 .999h1V12H1m0-1h1v-1H1m2 1h1v-1H3m2 5h1v-1H5m-2 1h1v-1H3m-2 1h1v-1H1m6-3h1v-1H7m0 3h1v-1H7m0 3h1v-1H7m1-6H7v1h1M6 8H5v1h1M4 8H3v1h1m-2-.001H1V8h1v.999z" fill="#FFF"/></svg>