<svg ti:v="1" width="16" height="16" viewBox="0 0 16 16" xmlns="http://www.w3.org/2000/svg" xmlns:ti="urn:schemas-jetbrains-com:tisvg"><rect id="frame" width="16" height="16" fill="none"/><path fill-rule="evenodd" d="M16 8A8 8 0 1 1 0 8a8 8 0 0 1 16 0z" fill="#F4F4F4"/><linearGradient id="a" x1="-.005" y1="-5.453" x2="-.005" y2="8.804"><stop offset="0" stop-color="#B8E6DF"/><stop offset="1" stop-color="#85BFE3"/></linearGradient><path fill-rule="evenodd" d="M1.223 6.305z" fill="url(#a)"/><linearGradient id="b" x1=".526" y1="-385.697" x2=".526" y2="233.079"><stop offset="0" stop-color="#B8E6DF"/><stop offset="1" stop-color="#85BFE3"/></linearGradient><path fill-rule="evenodd" d="M14.777 9.694l.009-.023-.009.023z" fill="url(#b)"/><path fill-rule="evenodd" d="M10.901 8.725l3.876.97c-.068.188-.517 1.575-1.086 2.371l-3.256-2.325a2.97 2.97 0 0 0 .466-1.016zm-1.565 1.948l1.792 3.583A6.963 6.963 0 0 1 8 15c-3.867 0-7-3.133-7-7h4a3 3 0 0 0 3 3c.482 0 .932-.125 1.336-.327zM6.664 5.328L4.872 1.745A6.96 6.96 0 0 1 8 1a7 7 0 0 1 7 7h-4a3 3 0 0 0-3-3c-.483 0-.933.125-1.336.328zM5.098 7.276l-3.876-.97c.07-.188.517-1.575 1.086-2.371L5.564 6.26a2.97 2.97 0 0 0-.466 1.016zM9 8a1 1 0 1 1-1.999 0 1 1 0 0 1 2 0zM6 8a2 2 0 1 0 4 .001A2 2 0 0 0 6 8z" fill="#313131"/><path fill-rule="evenodd" d="M8 10.001A2 2 0 1 1 8.001 6 2 2 0 0 1 8 10zm6.781-.306A6.865 6.865 0 0 0 15 8h-4a3 3 0 0 0-3-3c-.482 0-.933.125-1.336.327L4.872 1.744a7.023 7.023 0 0 0-2.563 2.191L5.564 6.26a2.963 2.963 0 0 0-.465 1.015l-3.88-.97A6.865 6.865 0 0 0 1 8h4a3 3 0 0 0 3 3c.482 0 .933-.125 1.336-.327l1.792 3.583a7.023 7.023 0 0 0 2.563-2.191L10.436 9.74c.215-.302.374-.644.465-1.015l3.88.97z" fill="#EBEBEB"/><path fill-rule="evenodd" d="M9 16H0V7h9v9z" fill="#F4F4F4"/><path fill-rule="evenodd" d="M8 14.999H1v-7h7v7z" fill="#EBEBEB"/><path fill-rule="evenodd" d="M5 10.999h1V10H5m-2 2.999h1V12H3m-2 .999h1V12H1m0-1h1v-1H1m2 1h1v-1H3m2 5h1v-1H5m-2 1h1v-1H3m-2 1h1v-1H1m6-3h1v-1H7m0 3h1v-1H7m0 3h1v-1H7m1-6H7v1h1M6 8H5v1h1M4 8H3v1h1m-2-.001H1V8h1v.999z" fill="#313131"/></svg>