<svg ti:v="1" width="16" height="16" viewBox="0 0 16 16" xmlns="http://www.w3.org/2000/svg" xmlns:ti="urn:schemas-jetbrains-com:tisvg"><rect id="frame" width="16" height="16" fill="none"/><linearGradient id="a" x1=".5" y1=".004" x2=".5" y2=".995"><stop offset="0" stop-color="#567180"/><stop offset="1" stop-color="#2C3041"/></linearGradient><path fill-rule="evenodd" d="M1 12h11V.999H1V12z" fill="url(#a)"/><linearGradient id="b" x1=".5" y1="-.007" x2=".5" y2=".993"><stop offset="0" stop-color="#ADEEF9"/><stop offset="1" stop-color="#84A2BF"/></linearGradient><path fill-rule="evenodd" d="M2 11h9V2H2v9z" fill="url(#b)"/><linearGradient id="c" x1=".5" y1="-.005" x2=".5" y2=".998"><stop offset="0" stop-color="#5B400E"/><stop offset="1" stop-color="#6D2020"/></linearGradient><path fill-rule="evenodd" d="M10.586 3L7.087 6.497 10.585 10H13v2a1 1 0 0 1-1 1H9a1 1 0 0 1-1-1v-1H5v1c0 2.206 1.794 4 4 4h3c2.206 0 4-1.794 4-4V9a4.008 4.008 0 0 0-3.404-3.956L13.618 3h-3.032z" fill="url(#c)"/><linearGradient id="d" x1=".5" y1=".009" x2=".5" y2="1.024"><stop offset="0" stop-color="#FFE077"/><stop offset="1" stop-color="#D98C00"/></linearGradient><path fill-rule="evenodd" d="M11 4L8.501 6.498 11 9h1l-1-2h1c1.103 0 2 .897 2 2v3c0 1.103-.897 2-2 2H9c-1.102 0-2-.897-2-2v-1H6v1c0 1.65 1.35 3 3 3h3c1.651 0 3-1.35 3-3V9c0-1.65-1.349-3-3-3h-1l1-2h-1z" fill="url(#d)"/></svg>