<svg ti:v="1" width="16" height="16" viewBox="0 0 16 16" xmlns="http://www.w3.org/2000/svg" xmlns:ti="urn:schemas-jetbrains-com:tisvg"><rect id="frame" width="16" height="16" fill="none"/><linearGradient id="a" x1=".5" y1=".004" x2=".5" y2=".995"><stop offset="0" stop-color="#5F8056"/><stop offset="1" stop-color="#2F412C"/></linearGradient><path fill-rule="evenodd" d="M4 12h11V1H4v11z" fill="url(#a)"/><linearGradient id="b" x1=".5" y1="-.007" x2=".5" y2=".993"><stop offset="0" stop-color="#BDF9AD"/><stop offset="1" stop-color="#91BF84"/></linearGradient><path fill-rule="evenodd" d="M5 11h9V2H5v9z" fill="url(#b)"/><linearGradient id="c" x1=".5" y1="-.005" x2=".5" y2=".998"><stop offset="0" stop-color="#5B400E"/><stop offset="1" stop-color="#6D2020"/></linearGradient><path fill-rule="evenodd" d="M2.382 3l1.023 2.044A4.007 4.007 0 0 0 0 9v3c0 2.207 1.794 4 4 4h3c2.206 0 4-1.793 4-4v-1H8v1c0 .551-.448 1-1 1H4c-.552 0-1-.449-1-1v-2h2.415l3.498-3.503L5.414 3H2.382z" fill="url(#c)"/><linearGradient id="d" x1=".5" y1=".009" x2=".5" y2="1.024"><stop offset="0" stop-color="#FFE077"/><stop offset="1" stop-color="#D98C00"/></linearGradient><path fill-rule="evenodd" d="M4 4l1 2H4C2.35 6 1 7.349 1 9v3c0 1.65 1.35 3 3 3h3c1.651 0 3-1.35 3-3v-1H9v1c0 1.102-.897 2-2 2H4c-1.102 0-2-.898-2-2V9c0-1.102.898-2 2-2h1L4 9h1l2.499-2.502L5 4H4z" fill="url(#d)"/></svg>