<svg ti:v="1" width="16" height="16" viewBox="0 0 16 16" xmlns="http://www.w3.org/2000/svg" xmlns:ti="urn:schemas-jetbrains-com:tisvg"><rect id="frame" width="16" height="16" fill="none"/><g fill-rule="evenodd"><path d="M1 12h11V1H1v11z" fill="#F4F4F4"/><path d="M2 11h9V2H2v9z" fill="#313131"/><path d="M8 12a1 1 0 0 0 1 1h3a1 1 0 0 0 1-1v-2h-2.415L7.087 6.497 10.586 3h3.032l-1.022 2.044A4.007 4.007 0 0 1 16 9v3c0 2.206-1.794 4-4 4H9c-2.206 0-4-1.794-4-4v-1h3v1z" fill="#F4F4F4"/><path d="M7 11v1c0 1.103.897 2 2 2h3c1.103 0 2-.897 2-2V9c0-1.103-.897-2-2-2h-1l1 2h-1L8.501 6.498 11 4h1l-1 2h1c1.65 0 3 1.35 3 3v3c0 1.65-1.35 3-3 3H9c-1.65 0-3-1.35-3-3v-1h1z" fill="#00529C"/></g></svg>