<svg ti:v="1" width="16" height="16" viewBox="0 0 16 16" xmlns="http://www.w3.org/2000/svg" xmlns:ti="urn:schemas-jetbrains-com:tisvg"><rect id="frame" width="16" height="16" fill="none"/><g fill-rule="evenodd"><path d="M16 13H3V0h13v13z" fill="#242424"/><path d="M15 12H4V1h11v11z" fill="#282828"/><path d="M4 4h1V3H4m1-2H4v1h1m1 2h1V3H6m2 1h1V3H8m2 1h1V3h-1m-6 9h1v-1H4m2 1h1v-1H6M4 6h1V5H4m0 3h1V7H4m4 5h1v-1H8m-4-1h1V9H4m6 3h1v-1h-1m4-7h1V3h-1m-2 1h1V3h-1m2 3h1V5h-1m0 3h1V7h-1m-2 5h1v-1h-1m2 1h1v-1h-1m1-10h-1v1h1m-2-1h-1v1h1m-2-1h-1v1h1M9 1H8v1h1M7 1H6v1h1m8 8h-1V9h1v1z" fill="#C4C4C4"/><path d="M0 13v-3c0-1.103.896-2 2-2h3c1.104 0 2 .897 2 2v3H0z" fill="#242424"/><path d="M6 10v2H1v-2a1 1 0 0 1 1-1h3a1 1 0 0 1 1 1z" fill="#C4C4C4"/><path d="M6 6.5a2.5 2.5 0 1 1-5 0 2.5 2.5 0 0 1 5 0z" fill="#242424"/><path d="M3.5 5a1.5 1.5 0 1 0 .001 3.001A1.5 1.5 0 0 0 3.5 5z" fill="#C4C4C4"/><path d="M2 9l1.5 2L5 9H2z" fill="#282828"/><path d="M4 16v-3c0-1.103.896-2 2-2h3c1.104 0 2 .897 2 2v3H4z" fill="#242424"/><path d="M10 13v2H5v-2a1 1 0 0 1 1-1h3a1 1 0 0 1 1 1z" fill="#C4C4C4"/><path d="M10 9.5a2.5 2.5 0 1 1-5 0 2.5 2.5 0 0 1 5 0z" fill="#242424"/><path d="M7.5 8a1.5 1.5 0 1 0 .001 3.001A1.5 1.5 0 0 0 7.5 8z" fill="#C4C4C4"/><path d="M6 12l1.5 2L9 12H6z" fill="#282828"/></g></svg>