<svg ti:v="1" width="16" height="16" viewBox="0 0 16 16" xmlns="http://www.w3.org/2000/svg" xmlns:ti="urn:schemas-jetbrains-com:tisvg"><rect id="frame" width="16" height="16" fill="none"/><linearGradient id="a" x1=".5" y1="0" x2=".5" y2="1.008"><stop offset="0" stop-color="#566980"/><stop offset="1" stop-color="#2C3641"/></linearGradient><path fill-rule="evenodd" d="M3 13h13V0H3v13z" fill="url(#a)"/><linearGradient id="b" x1=".5" y1="-.009" x2=".5" y2="1.028"><stop offset="0" stop-color="#2C3641"/><stop offset="1" stop-color="#566980"/></linearGradient><path fill-rule="evenodd" d="M4 12h11V1H4v11z" fill="url(#b)"/><path fill-rule="evenodd" d="M15 10h-1V9h1v1z" fill="#FFF"/><path fill-rule="evenodd" d="M7 1H6v1h1V1z" fill="#FFF"/><path fill-rule="evenodd" d="M9 1H8v1h1V1z" fill="#FFF"/><path fill-rule="evenodd" d="M11 1h-1v1h1V1z" fill="#FFF"/><path fill-rule="evenodd" d="M13 1h-1v1h1V1z" fill="#FFF"/><path fill-rule="evenodd" d="M15 1h-1v1h1V1z" fill="#FFF"/><path fill-rule="evenodd" d="M14 12h1v-1h-1v1z" fill="#FFF"/><path fill-rule="evenodd" d="M12 12h1v-1h-1v1z" fill="#FFF"/><path fill-rule="evenodd" d="M14 8h1V7h-1v1z" fill="#FFF"/><path fill-rule="evenodd" d="M14 6h1V5h-1v1z" fill="#FFF"/><path fill-rule="evenodd" d="M12 4h1V3h-1v1z" fill="#FFF"/><path fill-rule="evenodd" d="M14 4h1V3h-1v1z" fill="#FFF"/><path fill-rule="evenodd" d="M10 12h1v-1h-1v1z" fill="#FFF"/><path fill-rule="evenodd" d="M4 10h1V9H4v1z" fill="#FFF"/><path fill-rule="evenodd" d="M8 12h1v-1H8v1z" fill="#FFF"/><path fill-rule="evenodd" d="M4 8h1V7H4v1z" fill="#FFF"/><path fill-rule="evenodd" d="M4 6h1V5H4v1z" fill="#FFF"/><path fill-rule="evenodd" d="M6 12h1v-1H6v1z" fill="#FFF"/><path fill-rule="evenodd" d="M4 12h1v-1H4v1z" fill="#FFF"/><path fill-rule="evenodd" d="M10 4h1V3h-1v1z" fill="#FFF"/><path fill-rule="evenodd" d="M8 4h1V3H8v1z" fill="#FFF"/><path fill-rule="evenodd" d="M6 4h1V3H6v1z" fill="#FFF"/><path fill-rule="evenodd" d="M5 1H4v1h1V1z" fill="#FFF"/><path fill-rule="evenodd" d="M4 4h1V3H4v1z" fill="#FFF"/><linearGradient id="c" x1=".5" y1=".014" x2=".5" y2="1"><stop offset="0" stop-color="#435B80"/><stop offset="1" stop-color="#1C2737"/></linearGradient><path fill-rule="evenodd" d="M2 8c-1.103 0-2 .898-2 2v3h7v-3c0-1.102-.897-2-2-2H2z" fill="url(#c)"/><linearGradient id="d" x1=".5" y1=".048" x2=".5" y2="1"><stop offset="0" stop-color="#87BEDE"/><stop offset="1" stop-color="#0070C2"/></linearGradient><path fill-rule="evenodd" d="M2 9a1 1 0 0 0-1 1v2h5v-2a1 1 0 0 0-1-1H2z" fill="url(#d)"/><path fill-rule="evenodd" d="M6 6.5a2.5 2.5 0 1 1-5 0 2.5 2.5 0 0 1 5 0z" fill="#6E4623"/><linearGradient id="e" x1=".5" y1=".024" x2=".5" y2="1.024"><stop offset="0" stop-color="#FFEABF"/><stop offset="1" stop-color="#FBC658"/></linearGradient><path fill-rule="evenodd" d="M2 6.5a1.5 1.5 0 1 0 3 0 1.5 1.5 0 0 0-3 0z" fill="url(#e)"/><path fill-rule="evenodd" d="M2 9l1.5 2L5 9H2z" fill="#FFF"/><linearGradient id="f" x1=".5" y1=".014" x2=".5" y2="1"><stop offset="0" stop-color="#435B80"/><stop offset="1" stop-color="#1C2737"/></linearGradient><path fill-rule="evenodd" d="M6 11c-1.104 0-2 .897-2 2v3h7v-3c0-1.103-.896-2-2-2H6z" fill="url(#f)"/><linearGradient id="g" x1=".5" y1=".048" x2=".5" y2="1"><stop offset="0" stop-color="#87BEDE"/><stop offset="1" stop-color="#0070C2"/></linearGradient><path fill-rule="evenodd" d="M6 12a1 1 0 0 0-1 1v2h5v-2a1 1 0 0 0-1-1H6z" fill="url(#g)"/><path fill-rule="evenodd" d="M10 9.5a2.5 2.5 0 1 1-5 0 2.5 2.5 0 0 1 5 0z" fill="#6E4623"/><linearGradient id="h" x1=".5" y1=".024" x2=".5" y2="1.024"><stop offset="0" stop-color="#FFEABF"/><stop offset="1" stop-color="#FBC658"/></linearGradient><path fill-rule="evenodd" d="M6 9.5a1.5 1.5 0 0 0 3 0 1.5 1.5 0 0 0-3 0z" fill="url(#h)"/><path fill-rule="evenodd" d="M6 12l1.5 2L9 12H6z" fill="#FFF"/></svg>