<svg ti:v="1" width="16" height="16" viewBox="0 0 16 16" xmlns="http://www.w3.org/2000/svg" xmlns:ti="urn:schemas-jetbrains-com:tisvg"><rect id="frame" width="16" height="16" fill="none"/><g fill-rule="evenodd"><path d="M1 8h10V6H1v2z" fill="#F4F4F4"/><path d="M12 6H0V0h12v6z" fill="#F4F4F4"/><path d="M11 5H1V1h10v4z" fill="#313131"/><path d="M2 7h8V6H2v1z" fill="#313131"/><path d="M2 10h8V8H2v2z" fill="#F4F4F4"/><path d="M3 9h5.999V8H3v1z" fill="#313131"/><path d="M3 12h6v-2H3v2z" fill="#F4F4F4"/><path d="M4 11h4v-1H4v1z" fill="#313131"/><path d="M7.586 10L4 13.586v.828L5.586 16h.828L10 12.414v-.828L8.414 10h-.828z" fill="#F4F4F4"/><path d="M5 14l1 1 3-3-1-1-3 3z" fill="#00529C"/><path d="M16 8.5a4.5 4.5 0 1 1-9 0 4.5 4.5 0 0 1 9 0z" fill="#F4F4F4"/><path d="M15 8.5c0 1.934-1.566 3.5-3.5 3.5A3.499 3.499 0 0 1 8 8.5C8 6.566 9.566 5 11.5 5S15 6.566 15 8.5z" fill="#00529C"/><path d="M14 8.5a2.5 2.5 0 1 1-5 0 2.5 2.5 0 0 1 5 0z" fill="#EBEBEB"/><path d="M13 8.5a1.5 1.5 0 1 1-3.001-.001A1.5 1.5 0 0 1 13 8.5z" fill="#EBEBEB"/></g></svg>