<svg ti:v="1" width="16" height="16" viewBox="0 0 16 16" xmlns="http://www.w3.org/2000/svg" xmlns:ti="urn:schemas-jetbrains-com:tisvg"><rect id="frame" width="16" height="16" fill="none"/><linearGradient id="a" x1=".5" y1="0" x2=".5" y2="1"><stop offset="0" stop-color="#783199"/><stop offset="1" stop-color="#440062"/></linearGradient><path fill-rule="evenodd" d="M1 8h10V6H1v2z" fill="url(#a)"/><linearGradient id="b" x1=".5" y1="0" x2=".5" y2="1"><stop offset="0" stop-color="#783199"/><stop offset="1" stop-color="#440062"/></linearGradient><path fill-rule="evenodd" d="M0 6h12V0H0v6z" fill="url(#b)"/><linearGradient id="c" x1=".5" y1="0" x2=".5" y2="1"><stop offset="0" stop-color="#FFE3F2"/><stop offset="1" stop-color="#D4BCC9"/></linearGradient><path fill-rule="evenodd" d="M1 5h10V1H1v4z" fill="url(#c)"/><linearGradient id="d" x1=".5" y1="0" x2=".5" y2="1"><stop offset="0" stop-color="#FFE3F2"/><stop offset="1" stop-color="#D4BCC9"/></linearGradient><path fill-rule="evenodd" d="M2 7h8V6H2v1z" fill="url(#d)"/><linearGradient id="e" x1=".5" y1=".001" x2=".5" y2="1"><stop offset="0" stop-color="#783199"/><stop offset="1" stop-color="#440062"/></linearGradient><path fill-rule="evenodd" d="M2 10h8V7.999H2V10z" fill="url(#e)"/><linearGradient id="f" x1=".5" y1="0" x2=".5" y2="1"><stop offset="0" stop-color="#FFE3F2"/><stop offset="1" stop-color="#D4BCC9"/></linearGradient><path fill-rule="evenodd" d="M3 9h6V8H3v1z" fill="url(#f)"/><linearGradient id="g" x1=".5" y1="0" x2=".5" y2="1"><stop offset="0" stop-color="#783199"/><stop offset="1" stop-color="#440062"/></linearGradient><path fill-rule="evenodd" d="M3 12h6v-2H3v2z" fill="url(#g)"/><linearGradient id="h" x1=".5" y1="0" x2=".5" y2="1"><stop offset="0" stop-color="#FFE3F2"/><stop offset="1" stop-color="#D4BCC9"/></linearGradient><path fill-rule="evenodd" d="M4 11h4v-1H4v1z" fill="url(#h)"/><linearGradient id="i" x1=".31" y1=".31" x2=".708" y2=".708"><stop offset="0" stop-color="#9C7632"/><stop offset="1" stop-color="#6D2020"/></linearGradient><path fill-rule="evenodd" d="M7.586 10L4 13.586v.828L5.586 16h.828L10 12.414v-.828L8.415 10h-.829z" fill="url(#i)"/><linearGradient id="j" x1=".375" y1=".375" x2=".625" y2=".625"><stop offset="0" stop-color="#FFE077"/><stop offset="1" stop-color="#D98C00"/></linearGradient><path fill-rule="evenodd" d="M5 14l1 1 3-3-1-1-3 3z" fill="url(#j)"/><linearGradient id="k" x1=".5" y1=".012" x2=".5" y2="1"><stop offset="0" stop-color="#3B7380"/><stop offset="1" stop-color="#093B6D"/></linearGradient><path fill-rule="evenodd" d="M7 8.5a4.5 4.5 0 1 0 9 0 4.5 4.5 0 1 0-9 0z" fill="url(#k)"/><linearGradient id="l" x1=".5" y1=".006" x2=".5" y2="1"><stop offset="0" stop-color="#D6EFFF"/><stop offset="1" stop-color="#72CAFF"/></linearGradient><path fill-rule="evenodd" d="M8 8.5a3.5 3.5 0 1 0 7 0C15 6.566 13.434 5 11.5 5A3.499 3.499 0 0 0 8 8.5z" fill="url(#l)"/><linearGradient id="m" x1=".5" y1=".013" x2=".5" y2="1"><stop offset="0" stop-color="#509FE8"/><stop offset=".736" stop-color="#FFF"/><stop offset="1" stop-color="#FFF"/></linearGradient><path fill-rule="evenodd" d="M9 8.5a2.5 2.5 0 1 0 5 0 2.5 2.5 0 0 0-5 0z" fill="url(#m)"/><linearGradient id="n" x1=".5" y1=".013" x2=".5" y2=".988"><stop offset="0" stop-color="#FFF"/><stop offset=".301" stop-color="#FFF"/><stop offset="1" stop-color="#BCF6FF"/></linearGradient><path fill-rule="evenodd" d="M10 8.5a1.5 1.5 0 0 0 3 0 1.5 1.5 0 0 0-3 0z" fill="url(#n)"/></svg>