<svg ti:v="1" width="16" height="16" viewBox="0 0 16 16" xmlns="http://www.w3.org/2000/svg" xmlns:ti="urn:schemas-jetbrains-com:tisvg"><rect id="frame" width="16" height="16" fill="none"/><g fill-rule="evenodd"><path d="M12.5 14a2.503 2.503 0 0 1-2.328-3.414L9.586 10l-2.172-.001-.586.587A2.503 2.503 0 0 1 4.5 14 2.503 2.503 0 0 1 2 11.5C2 10.121 3.122 9 4.584 9.002l.417-.418V3.001H12v5.584l.5.415c1.378 0 2.5 1.121 2.5 2.5S13.878 14 12.5 14z" fill="#242424"/><path d="M11 8.999H6.002V4.001H11v4.998z" fill="#C4C4C4"/><path d="M9 6.999h-.998v-.998H9v.998z" fill="#282828"/><path d="M6 9l-1.07 1.07A1.494 1.494 0 0 0 4.5 10a1.5 1.5 0 1 0 1.06.439L7 9m7 2.5a1.5 1.5 0 1 1-2.56-1.061L10 9h1l1.07 1.07c.137-.041.28-.07.43-.07a1.5 1.5 0 0 1 1.5 1.5z" fill="#C4C4C4"/><path d="M4.999 11.5a.5.5 0 1 1-1 0 .5.5 0 0 1 1 0z" fill="#282828"/><path d="M12.999 11.5a.5.5 0 1 1-1 0 .5.5 0 0 1 1 0z" fill="#282828"/></g></svg>