<svg ti:v="1" width="16" height="16" viewBox="0 0 16 16" xmlns="http://www.w3.org/2000/svg" xmlns:ti="urn:schemas-jetbrains-com:tisvg"><rect id="frame" width="16" height="16" fill="none"/><linearGradient id="a" x1=".5" y1=".005" x2=".5" y2="1.005"><stop offset="0" stop-color="#5572A1"/><stop offset="1" stop-color="#405980"/></linearGradient><path fill-rule="evenodd" d="M5.001 3.001v5.583L4.5 9A2.503 2.503 0 0 0 2 11.5C2 12.879 3.122 14 4.5 14 5.879 14 7 12.879 7 11.5a2.49 2.49 0 0 0-.172-.914l.586-.587L9.586 10l.586.586A2.502 2.502 0 0 0 12.5 14c1.379 0 2.5-1.121 2.5-2.5S13.879 9 12.5 9l-.084.002L12 8.585V3.001H5.001z" fill="url(#a)"/><linearGradient id="b" x1=".5" y1=".012" x2=".5" y2="1.001"><stop offset="0" stop-color="#F6E468"/><stop offset="1" stop-color="#EFD205"/></linearGradient><path fill-rule="evenodd" d="M6.001 8.999H11V4H6.001v4.999z" fill="url(#b)"/><path fill-rule="evenodd" d="M9 6.999h-.998v-.998H9v.998z" fill="#F3DD42"/><linearGradient id="c" x1=".5" y1=".015" x2=".5" y2="1.016"><stop offset="0" stop-color="#B8E5FF"/><stop offset=".994" stop-color="#80CAFF"/><stop offset="1" stop-color="#80CAFF"/></linearGradient><path fill-rule="evenodd" d="M10 9l1.44 1.439A1.5 1.5 0 0 0 12.5 13a1.5 1.5 0 1 0 0-3c-.15 0-.293.029-.429.07L11 9M6 9l-1.07 1.07A1.494 1.494 0 0 0 4.5 10a1.5 1.5 0 1 0 0 3A1.5 1.5 0 0 0 6 11.5c0-.414-.168-.789-.44-1.061L7 9H6z" fill="url(#c)"/><path fill-rule="evenodd" d="M4.999 11.5a.5.5 0 1 1-1 0 .5.5 0 0 1 1 0z" fill="#FFF"/><path fill-rule="evenodd" d="M12.999 11.5a.5.5 0 1 1-1 0 .5.5 0 0 1 1 0z" fill="#FFF"/></svg>