<svg ti:v="1" width="16" height="16" viewBox="0 0 16 16" xmlns="http://www.w3.org/2000/svg" xmlns:ti="urn:schemas-jetbrains-com:tisvg"><rect id="frame" width="16" height="16" fill="none"/><g fill-rule="evenodd"><path d="M12.5 2.001a2.503 2.503 0 0 0-2.328 3.414l-.586.586-2.172.001-.586-.587A2.503 2.503 0 0 0 4.5 2.001a2.503 2.503 0 0 0-2.5 2.5c0 1.379 1.122 2.5 2.584 2.498l.417.418V13H12V7.416l.5-.415c1.378 0 2.5-1.121 2.5-2.5s-1.122-2.5-2.5-2.5z" fill="#242424"/><path d="M11 7H6v5h5V7z" fill="#C4C4C4"/><path d="M9 9.002h-.998V10H9v-.998z" fill="#282828"/><path d="M7 7L5.56 5.561A1.5 1.5 0 1 0 4.5 6c.15 0 .293-.029.43-.07L6 7m6.5-1c-.15 0-.293-.029-.43-.07L11 7h-1l1.44-1.439A1.5 1.5 0 1 1 12.5 6z" fill="#C4C4C4"/><path d="M4.999 4.501a.5.5 0 1 0-1 0 .5.5 0 0 0 1 0z" fill="#282828"/><path d="M12.999 4.501a.5.5 0 1 0-1 0 .5.5 0 0 0 1 0z" fill="#282828"/></g></svg>