<svg ti:v="1" width="16" height="16" viewBox="0 0 16 16" xmlns="http://www.w3.org/2000/svg" xmlns:ti="urn:schemas-jetbrains-com:tisvg"><rect id="frame" width="16" height="16" fill="none"/><linearGradient id="a" x1=".5" y1=".003" x2=".5" y2="1.006"><stop offset="0" stop-color="#5572A1"/><stop offset="1" stop-color="#405980"/></linearGradient><path fill-rule="evenodd" d="M10 4.501c0 .318.059.627.172.914l-.586.586-2.172.001-.586-.587A2.502 2.502 0 0 0 4.5 2.001a2.503 2.503 0 0 0-2.5 2.5c0 1.379 1.122 2.5 2.5 2.5l.084-.002.417.418V13H12V7.416l.5-.415c1.379 0 2.5-1.121 2.5-2.5s-1.121-2.5-2.5-2.5a2.502 2.502 0 0 0-2.5 2.5z" fill="url(#a)"/><linearGradient id="b" x1=".5" y1="0" x2=".5" y2="1.013"><stop offset="0" stop-color="#F6E468"/><stop offset="1" stop-color="#EFD205"/></linearGradient><path fill-rule="evenodd" d="M6 12h4.999V7H6v5z" fill="url(#b)"/><path fill-rule="evenodd" d="M9 9.002h-.998V10H9v-.998z" fill="#F3DD42"/><linearGradient id="c" x1=".5" y1="0" x2=".5" y2="1.009"><stop offset="0" stop-color="#B8E5FF"/><stop offset=".994" stop-color="#80CAFF"/><stop offset="1" stop-color="#80CAFF"/></linearGradient><path fill-rule="evenodd" d="M11 4.5c0 .414.168.789.44 1.061L10 6.999h1l1.071-1.069c.136.041.279.07.429.07a1.5 1.5 0 1 0 0-3A1.5 1.5 0 0 0 11 4.5zm-8 0A1.5 1.5 0 0 0 4.5 6c.15 0 .293-.029.43-.07L6 7h1L5.56 5.561A1.5 1.5 0 0 0 4.5 3 1.5 1.5 0 0 0 3 4.5z" fill="url(#c)"/><path fill-rule="evenodd" d="M4.999 4.501a.5.5 0 1 0-1 0 .5.5 0 0 0 1 0z" fill="#FFF"/><path fill-rule="evenodd" d="M12.999 4.501a.5.5 0 1 0-1 0 .5.5 0 0 0 1 0z" fill="#FFF"/></svg>