<svg ti:v="1" width="16" height="16" viewBox="0 0 16 16" xmlns="http://www.w3.org/2000/svg" xmlns:ti="urn:schemas-jetbrains-com:tisvg"><rect id="frame" width="16" height="16" fill="none"/><g fill-rule="evenodd"><path d="M13.929 1.339l-.3-.339H3.37l-.297.339C2.127 2.41 1 4.35 1 7.5c0 3.147 1.126 5.087 2.07 6.161l.298.339h10.264l.299-.339C14.874 12.587 16 10.647 16 7.5c0-3.15-1.127-5.09-2.071-6.161z" fill="#242424"/><path d="M4.361 13c-.519-1.009-.519-9.992 0-11h-.539C2.982 2.953 2 4.67 2 7.5s.981 4.546 1.821 5.5h.54z" fill="#C4C4C4"/><path d="M12.639 13c.519-1.009.519-9.992 0-11h.539C14.018 2.953 15 4.67 15 7.5s-.981 4.546-1.821 5.5h-.54z" fill="#C4C4C4"/><path d="M12 12H5V3h7v9z" fill="#242424"/><path d="M11 11H6V4h5v7z" fill="#282828"/><path d="M10 8.999h1V8h-1m0-1h1V6h-1m0 5h1v-1h-1m1-6h-1v1h1M8 6.999h1V6H8M6 8.999h1V8H6m0-1h1V6H6m2 3h1V8H8m0 3h1v-1H8m-2 1h1v-1H6m3-6H8v1h1M7 4H6v1h1V4z" fill="#C4C4C4"/></g></svg>