<svg ti:v="1" width="16" height="16" viewBox="0 0 16 16" xmlns="http://www.w3.org/2000/svg" xmlns:ti="urn:schemas-jetbrains-com:tisvg"><rect id="frame" width="16" height="16" fill="none"/><linearGradient id="a" x1=".5" y1=".012" x2=".5" y2=".998"><stop offset="0" stop-color="#6D4000"/><stop offset="1" stop-color="#4C2D00"/></linearGradient><path fill-rule="evenodd" d="M3.37 1l-.299.339C2.127 2.41 1 4.35 1 7.5c0 3.146 1.126 5.087 2.069 6.161l.299.339h10.264l.299-.339C14.874 12.587 16 10.646 16 7.5c0-3.15-1.127-5.09-2.071-6.161L13.63 1H3.37z" fill="url(#a)"/><linearGradient id="b" x1=".5" y1=".005" x2=".5" y2="1.001"><stop offset="0" stop-color="#566980"/><stop offset="1" stop-color="#2C3641"/></linearGradient><path fill-rule="evenodd" d="M5 12h7V3H5v9z" fill="url(#b)"/><linearGradient id="c" x1=".5" y1="-.009" x2=".5" y2=".995"><stop offset="0" stop-color="#2C3641"/><stop offset="1" stop-color="#566980"/></linearGradient><path fill-rule="evenodd" d="M6 11h5V4H6v7z" fill="url(#c)"/><path fill-rule="evenodd" d="M10 8.999h1V8h-1m0-1h1V6h-1m0 5h1v-1h-1m1-6h-1v1h1M8 6.999h1V6H8M6 8.999h1V8H6m0-1h1V6H6m2 3h1V8H8m0 3h1v-1H8m-2 1h1v-1H6m3-6H8v1h1M7 4H6v1h1V4z" fill="#FFF"/><linearGradient id="d" x1=".5" y1=".012" x2=".5" y2=".998"><stop offset="0" stop-color="#FFF3B8"/><stop offset="1" stop-color="#FFEA7C"/></linearGradient><path fill-rule="evenodd" d="M3.823 2C2.981 2.953 2 4.669 2 7.5s.981 4.546 1.821 5.5h.54c-.519-1.009-.519-9.992 0-11h-.538z" fill="url(#d)"/><linearGradient id="e" x1=".5" y1=".012" x2=".5" y2=".998"><stop offset="0" stop-color="#FFF3B8"/><stop offset="1" stop-color="#FFEA7C"/></linearGradient><path fill-rule="evenodd" d="M12.639 2c.519 1.008.519 9.991 0 11h.54c.84-.954 1.821-2.669 1.821-5.5s-.981-4.547-1.823-5.5h-.538z" fill="url(#e)"/></svg>