<svg ti:v="1" width="16" height="16" viewBox="0 0 16 16" xmlns="http://www.w3.org/2000/svg" xmlns:ti="urn:schemas-jetbrains-com:tisvg"><rect id="frame" width="16" height="16" fill="none"/><linearGradient id="a" x1=".5" y1=".008" x2=".5" y2="1.003"><stop offset="0" stop-color="#385985"/><stop offset="1" stop-color="#263C59"/></linearGradient><path fill-rule="evenodd" d="M0 16h12V6H0v10z" fill="url(#a)"/><linearGradient id="b" x1=".5" y1="-.022" x2=".5" y2="1.021"><stop offset="0" stop-color="#91B6FF"/><stop offset="1" stop-color="#6A95E7"/></linearGradient><path fill-rule="evenodd" d="M1 15h10V7H1v8z" fill="url(#b)"/><path fill-rule="evenodd" d="M10 14H2V9h8v5z" fill="#FFF"/><path fill-rule="evenodd" d="M14 12c-.776 0-1.496-.37-2-.716-.504.346-1.224.716-2 .716H8.016L8 11V9h2V4H8V1h2c.776 0 1.496.37 2 .716C12.504 1.37 13.224 1 14 1h1.984L16 2v2h-2v5h2v3h-2z" fill="#595959"/><path fill-rule="evenodd" d="M15 3V2h-1c-1 0-2 1-2 1s-1-1-2-1H9v1h2v7H9v1h1c1 0 2-1 2-1s1 1 2 1h1v-1h-2V3h2z" fill="#FFF"/><linearGradient id="c" x1=".5" y1=".01" x2=".5" y2="1.008"><stop offset="0" stop-color="#9E771F"/><stop offset="1" stop-color="#604913"/></linearGradient><path fill-rule="evenodd" d="M3 0v2H1.586L0 3.586V9h3V8h2.414l4-4-4-4H3z" fill="url(#c)"/><linearGradient id="d" x1=".5" y1=".023" x2=".5" y2="1.001"><stop offset="0" stop-color="#FFF082"/><stop offset="1" stop-color="#FFD95B"/></linearGradient><path fill-rule="evenodd" d="M4 1l1 2H2L1 4v4h1V5h3L4 7h1l3-3-3-3H4z" fill="url(#d)"/></svg>