<svg ti:v="1" width="16" height="16" viewBox="0 0 16 16" xmlns="http://www.w3.org/2000/svg" xmlns:ti="urn:schemas-jetbrains-com:tisvg"><rect id="frame" width="16" height="16" fill="none"/><g fill-rule="evenodd"><path d="M12 16H0V6h12v10z" fill="#F4F4F4"/><path d="M1 15h10V7H1v8z" fill="#313131"/><path d="M10 14H2V9h8v5z" fill="#EBEBEB"/><path d="M14 12c-.776 0-1.496-.37-2-.716-.504.346-1.224.716-2 .716H8.016L8 11V9h2V4H8V1h2c.776 0 1.496.37 2 .716C12.504 1.37 13.224 1 14 1h1.984L16 2v2h-2v5h2v3h-2z" fill="#F4F4F4"/><path d="M15 3V2h-1c-1 0-2 1-2 1s-1-1-2-1H9v1h2v7H9v1h1c1 0 2-1 2-1s1 1 2 1h1v-1h-2V3h2z" fill="#313131"/><path d="M3 8h2.414l4-4-4-4H3v2H1.586L0 3.586V9h3V8z" fill="#F4F4F4"/><path d="M8 4L5 7H4l1-2H2v3H1V4l1-1h3L4 1h1l3 3z" fill="#00529C"/></g></svg>