<svg ti:v="1" width="16" height="16" viewBox="0 0 16 16" xmlns="http://www.w3.org/2000/svg" xmlns:ti="urn:schemas-jetbrains-com:tisvg"><rect id="frame" width="16" height="16" fill="none"/><linearGradient id="a" x1=".5" y1=".002" x2=".5" y2="1.008"><stop offset="0" stop-color="#5572A1"/><stop offset="1" stop-color="#405980"/></linearGradient><path fill-rule="evenodd" d="M6 2.5c0 .795.383 1.529 1 1.994V5H5.001v5.585L4.5 11A2.503 2.503 0 0 0 2 13.5C2 14.879 3.122 16 4.5 16 5.879 16 7 14.879 7 13.5c0-.319-.059-.627-.172-.915L7.414 12h2.172l.586.585A2.502 2.502 0 0 0 12.5 16c1.379 0 2.5-1.121 2.5-2.5S13.879 11 12.5 11l-.084.002-.416-.416V5h-1.999v-.506A2.501 2.501 0 0 0 11 2.5C11 1.121 9.878 0 8.5 0A2.503 2.503 0 0 0 6 2.5z" fill="url(#a)"/><linearGradient id="b" x1=".5" y1="0" x2=".5" y2="1.008"><stop offset="0" stop-color="#B8E5FF"/><stop offset=".994" stop-color="#80CAFF"/><stop offset="1" stop-color="#80CAFF"/></linearGradient><path fill-rule="evenodd" d="M7 2.5c0 .653.419 1.202 1.001 1.409V6h1V3.909c.58-.207.999-.756.999-1.409a1.5 1.5 0 1 0-3 0zm3 8.5l1.44 1.44A1.5 1.5 0 0 0 12.5 15a1.5 1.5 0 1 0 0-3c-.15 0-.293.029-.429.071L11 11m-5 0l-1.07 1.071A1.462 1.462 0 0 0 4.5 12a1.5 1.5 0 1 0 0 3A1.5 1.5 0 0 0 6 13.5c0-.414-.168-.789-.44-1.06L7 11H6z" fill="url(#b)"/><linearGradient id="c" x1=".5" y1="0" x2=".5" y2="1.008"><stop offset="0" stop-color="#F6E468"/><stop offset="1" stop-color="#EFD205"/></linearGradient><path fill-rule="evenodd" d="M6 11h4.999V6H6v5z" fill="url(#c)"/><path fill-rule="evenodd" d="M9 9h-.999V8H9v1z" fill="#F3DD42"/><path fill-rule="evenodd" d="M8.999 2.5a.5.5 0 1 1-1 0 .5.5 0 0 1 1 0z" fill="#FFF"/><path fill-rule="evenodd" d="M4.999 13.5a.5.5 0 1 1-1 0 .5.5 0 0 1 1 0z" fill="#FFF"/><path fill-rule="evenodd" d="M12.999 13.5a.5.5 0 1 1-1 0 .5.5 0 0 1 1 0z" fill="#FFF"/></svg>