<svg ti:v="1" width="16" height="16" viewBox="0 0 16 16" xmlns="http://www.w3.org/2000/svg" xmlns:ti="urn:schemas-jetbrains-com:tisvg"><rect id="frame" width="16" height="16" fill="none"/><g fill-rule="evenodd" fill="#C3C3C3"><path d="M9.304 3.588l-.729 1.118c1.781.747 2.879 1.914 2.879 3.494 0 1.93-1.527 3.3-3.454 3.3A3.503 3.503 0 0 1 4.503 8C4.503 6.814 5 5.768 6 5.135V3.422C4 4.194 3 5.951 3 8c0 2.761 2.241 5 4.999 5 2.758 0 4.986-2.239 5.001-5 .011-2.2-1.77-3.875-3.696-4.412z"/><path d="M8 3h4v1.255l-2.772-.008L9.242 7H8V3z"/></g></svg>