<svg ti:v="1" width="16" height="16" viewBox="0 0 16 16" xmlns="http://www.w3.org/2000/svg" xmlns:ti="urn:schemas-jetbrains-com:tisvg"><rect id="frame" width="16" height="16" fill="none"/><g fill-rule="evenodd"><path d="M4.588 7c.248-.859.615-1.406 1.412-2.028V3.164C3.953 3.988 3.021 6.104 3.004 7h1.584z"/><path d="M11.419 7H13c-.069-1-2.306-3.171-3.485-3.494l-.854 1.207C9.383 4.763 10.959 6 11.419 7z"/><path d="M4.581 9H3c.408 2 2 3.581 4 4v-1.573C6 11.071 4.927 10 4.581 9z"/><path d="M11.419 9c-.346 1-1.435 2.097-2.435 2.453L9 13c2-.419 3.592-2 4-4h-1.581z"/><path d="M8 3h4v1H9.21l.061 3H8V3z"/></g></svg>