<svg xmlns="http://www.w3.org/2000/svg" width="16" height="16" viewBox="0 0 16 16"><rect id="frame" width="16" height="16" fill="none"/><g fill="none" fill-rule="evenodd"><path fill="#9AA7B0" fill-opacity=".8" d="M3 10V4h10V2H1v10h2z"/><path fill="#9AA7B0" fill-opacity=".8" d="M8 12H6V7h7v.033c.732.055 1.417.213 2 .474V5H4v9h4v-2z"/><path fill="#F26522" fill-opacity=".7" d="M14.999 9.051v2.95h-1V9.052c0-.754-.433-1.052-1-1.052v4.001h-1V8.053c-.546 0-1 .339-1 .999v2.949h-1V9.052C9.227 9.033 9 9.779 9 11.002 9 13.486 9.374 16 12.5 16c3.124 0 3.5-2.515 3.499-5 0-1.223-.263-1.949-1-1.949"/></g></svg>