<svg width="48" height="48" viewBox="0 0 48 48" fill="none" xmlns="http://www.w3.org/2000/svg">
<path d="M44.95 7.45L48 27.1L42.35 30.4L37 17.5L44.95 7.45Z" fill="url(#paint0_linear)"/>
<path d="M44.95 7.45L27.75 0L22.95 4L30.5 12.5L44.95 7.45Z" fill="url(#paint1_linear)"/>
<path d="M32.45 48L7.5 21.5L0.400024 42.85L32.45 48Z" fill="url(#paint2_linear)"/>
<path d="M38 30L0 22.15L32.45 48L38 30Z" fill="url(#paint3_linear)"/>
<path d="M0 0.349998V22.15L41.65 36.45L44.95 7.45L0 0.349998Z" fill="url(#paint4_linear)"/>
<path d="M39 9H9V39H39V9Z" fill="url(#paint5_linear)"/>
<path d="M23.25 34H12V35.9286H23.25V34Z" fill="white"/>
<path d="M24 17.9073C24 14.5459 26.6039 11.8 30.1547 11.8C32.2852 11.8 33.5161 12.3681 34.747 13.4097L33.1373 15.3981C32.2378 14.6406 31.433 14.2145 30.06 14.2145C28.1662 14.2145 26.6986 15.8716 26.6986 17.86V17.9073C26.6986 20.0378 28.1662 21.6002 30.2494 21.6002C31.1962 21.6002 32.0011 21.3634 32.6639 20.89V19.233H30.06V17.0078H35.1258V22.0736C33.9895 23.1152 32.3325 23.92 30.202 23.92C26.5092 23.92 24 21.3634 24 17.9073Z" fill="white"/>
<path d="M12 12.5H16.3929C19.9286 12.5 22.2857 14.9643 22.2857 18.0714C22.2857 21.1786 19.8214 23.6429 16.3929 23.6429L12 23.75V12.5ZM14.4643 14.75V21.5H16.3929C18.4286 21.5 19.7143 20.1071 19.7143 18.1786C19.7143 16.25 18.3214 14.8571 16.3929 14.8571L14.4643 14.75Z" fill="white"/>
<defs>
<linearGradient id="paint0_linear" x1="43.9434" y1="18.0585" x2="45.3471" y2="30.2787" gradientUnits="userSpaceOnUse">
<stop offset="0.1599" stop-color="#21D789"/>
<stop offset="0.5402" stop-color="#419FBC"/>
<stop offset="1" stop-color="#6B57FF"/>
</linearGradient>
<linearGradient id="paint1_linear" x1="31.177" y1="12.8122" x2="34.7274" y2="3.7297" gradientUnits="userSpaceOnUse">
<stop offset="0" stop-color="#6B57FF"/>
<stop offset="0.9516" stop-color="#21D789"/>
</linearGradient>
<linearGradient id="paint2_linear" x1="11.5609" y1="24.2328" x2="15.0088" y2="39.2556" gradientUnits="userSpaceOnUse">
<stop offset="0" stop-color="#6B57FF"/>
<stop offset="0.0219079" stop-color="#685CFB"/>
<stop offset="0.281" stop-color="#4A91CA"/>
<stop offset="0.5057" stop-color="#34B7A7"/>
<stop offset="0.6853" stop-color="#26CE91"/>
<stop offset="0.7971" stop-color="#21D789"/>
</linearGradient>
<linearGradient id="paint3_linear" x1="2.99" y1="24.0054" x2="45.0513" y2="47.2288" gradientUnits="userSpaceOnUse">
<stop offset="0.0752688" stop-color="#21D789"/>
<stop offset="0.8874" stop-color="#6B57FF"/>
</linearGradient>
<linearGradient id="paint4_linear" x1="3.2467" y1="18.4049" x2="45.5183" y2="18.4049" gradientUnits="userSpaceOnUse">
<stop offset="0.3086" stop-color="#21D789"/>
<stop offset="0.4871" stop-color="#59A3B2"/>
<stop offset="0.7668" stop-color="#B74AF7"/>
<stop offset="1" stop-color="#FF45ED"/>
</linearGradient>
<linearGradient id="paint5_linear" x1="23.9994" y1="1.70732" x2="23.9994" y2="28.6113" gradientUnits="userSpaceOnUse">
<stop offset="0.0842986" stop-color="#878585"/>
<stop offset="0.5377"/>
</linearGradient>
</defs>
</svg>
