<svg width="32" height="32" viewBox="0 0 32 32" fill="none" xmlns="http://www.w3.org/2000/svg">
<path d="M4.3 28.9334L0 3.36672L7.96667 0.0333862L13.0667 3.06672L17.7333 0.56672L27.4667 4.30005L22 32.0001L4.3 28.9334Z" fill="url(#paint0_linear)"/>
<path d="M32 10.8333L27.8667 0.633333L20.3667 0L8.79999 11.1L11.9333 25.4333L17.7333 29.5L32 21.0333L28.5 14.5L32 10.8333Z" fill="url(#paint1_linear)"/>
<path d="M25.5999 9.3L28.4999 14.5L31.9999 10.8333L29.4332 4.5L25.5999 9.3Z" fill="url(#paint2_linear)"/>
<path d="M26 6H6V26H26V6Z" fill="url(#paint3_linear)"/>
<path d="M16 23H8V24H16V23Z" fill="white"/>
<path d="M15.9667 8.13959L14.7801 12.7115L13.4539 8.13959H12.1277L10.8015 12.7115L9.61487 8.13959H7.80005L10.0337 15.9922H11.4995L12.7908 11.4551L14.0472 15.9922H15.5479L17.7816 8.13959H15.9667Z" fill="white"/>
<path d="M18.1306 14.8754L19.1427 13.6539C19.8407 14.2472 20.6085 14.5962 21.481 14.5962C22.179 14.5962 22.6327 14.317 22.6327 13.8633V13.8284C22.6327 13.3747 22.3535 13.1653 21.0622 12.8163C19.4917 12.3975 18.4447 11.9786 18.4447 10.4081V10.3732C18.4447 8.94231 19.5964 8 21.2018 8C22.3535 8 23.3307 8.349 24.1334 9.01211L23.226 10.3034C22.528 9.81482 21.83 9.53562 21.1669 9.53562C20.5038 9.53562 20.1548 9.84972 20.1548 10.2336V10.2685C20.1548 10.792 20.5038 10.9665 21.8649 11.3155C23.4703 11.7343 24.3777 12.2928 24.3777 13.6888V13.7237C24.3777 15.2942 23.1911 16.1667 21.481 16.1667C20.2595 16.1318 19.0729 15.713 18.1306 14.8754Z" fill="white"/>
<defs>
<linearGradient id="paint0_linear" x1="11.4595" y1="0.667419" x2="19.7407" y2="30.4801" gradientUnits="userSpaceOnUse">
<stop offset="0.2849" stop-color="#07C3F2"/>
<stop offset="0.9409" stop-color="#087CFA"/>
</linearGradient>
<linearGradient id="paint1_linear" x1="14.0434" y1="4.44997" x2="28.0526" y2="24.9926" gradientUnits="userSpaceOnUse">
<stop offset="0.1398" stop-color="#FCF84A"/>
<stop offset="0.3656" stop-color="#07C3F2"/>
</linearGradient>
<linearGradient id="paint2_linear" x1="27.9231" y1="6.98967" x2="29.7629" y2="13.5057" gradientUnits="userSpaceOnUse">
<stop offset="0.2849" stop-color="#07C3F2"/>
<stop offset="0.9409" stop-color="#087CFA"/>
</linearGradient>
<linearGradient id="paint3_linear" x1="15.9733" y1="1.139" x2="15.9733" y2="19.075" gradientUnits="userSpaceOnUse">
<stop offset="0.0842986" stop-color="#878585"/>
<stop offset="0.5377"/>
</linearGradient>
</defs>
</svg>
