<svg ti:v="1" width="42.681" height="42.667" viewBox="0 0 42.681 42.667" xmlns="http://www.w3.org/2000/svg" xmlns:ti="urn:schemas-jetbrains-com:tisvg"><rect id="frame" width="42.681" height="42.667" fill="none"/><path fill-rule="evenodd" d="M13.798 24.099l.85 1.474 2.325.623 2.21-1.276.736-.426 1.474-.85.425.736-.623 2.324-3.683 2.127-4.648-1.246-1.701-2.946 1.245-4.648 3.683-2.127 2.324.623.426.737-1.474.85-.736.426-2.21 1.276-.623 2.323zm8.187-9.637l3.683-2.127 4.648 1.246 1.701 2.946-1.245 4.648-3.684 2.127-2.323-.623-.426-.737 1.474-.85.736-.426 2.21-1.275.623-2.324-.85-1.474-2.325-.622-2.21 1.276-.736.425-1.474.85-.425-.736.623-2.324zm-2.597 9.111l-1.162-.311-.638-1.105.31-1.162 5.894-3.402 1.162.311.638 1.105-.311 1.162-5.893 3.402z" fill="#FCFCFC"/></svg>