<svg ti:v="1" width="42.68" height="42.667" viewBox="0 0 42.68 42.667" xmlns="http://www.w3.org/2000/svg" xmlns:ti="urn:schemas-jetbrains-com:tisvg"><rect id="frame" width="42.68" height="42.667" fill="none"/><path fill-rule="evenodd" d="M13.983 23.379a3.462 3.462 0 1 1 0 6.923 3.462 3.462 0 0 1 0-6.923zm-.577 1.154v1.154h1.154v-1.154h-1.154zm0 1.731v2.884h1.154v-2.884h-1.154zM33.02 12.417v15h-6.634c-1.525 0-2.597 1.731-2.597 1.731H20.33s-.707-1.142-1.79-1.571l.059-.737c0-.38-.046-.75-.133-1.103.441.115 1.153.469 1.864 1.536V15.101c-.374-.46-.846-.953-1.154-.953h-6.346v8.222a4.616 4.616 0 0 0-1.731.867v-10.82h8.942s.82.41 1.718 1.353c1.075-1.353 2.177-1.353 2.177-1.353h9.086zm-9.23 14.856c1.153-1.731 2.307-1.586 2.307-1.586h5.192V14.148h-6.346c-.308 0-.78.493-1.154.953v12.172z" fill="#424242"/></svg>