<svg ti:v="1" width="42.68" height="42.667" viewBox="0 0 42.68 42.667" xmlns="http://www.w3.org/2000/svg" xmlns:ti="urn:schemas-jetbrains-com:tisvg"><rect id="frame" width="42.68" height="42.667" fill="none"/><path fill-rule="evenodd" d="M9.527 14.265H13.2v6.66l2.755-2.756v3.674l-4.592 4.822-4.593-4.822V18.17l2.756 2.756v-6.66zm12.86 20.208l-1.71-.092.79-11.849c-.612.306-1.836 2.756-1.836 2.756s-.613.918-.919 4.592l-2.756-.918.919-4.593s1.837-6.43 5.511-6.43h7.348c3.674 0 5.512 6.43 5.512 6.43l.465 2.635a15.687 15.687 0 0 1-2.357 2.968c-.318-3.252-.864-4.684-.864-4.684s-1.225-2.45-1.837-2.756l.521 9.235a15.543 15.543 0 0 1-8.788 2.706zM26.06 6.917a4.593 4.593 0 1 1 0 9.185 4.593 4.593 0 0 1 0-9.185z" fill="#424242"/></svg>