<svg ti:v="1" width="42.68" height="42.667" viewBox="0 0 42.68 42.667" xmlns="http://www.w3.org/2000/svg" xmlns:ti="urn:schemas-jetbrains-com:tisvg"><rect id="frame" width="42.68" height="42.667" fill="none"/><path fill-rule="evenodd" d="M14.032 24.639l.85 1.473 2.325.623 2.21-1.276.736-.425 1.474-.851.425.737-.623 2.324-3.683 2.126-4.648-1.245-1.701-2.947 1.245-4.648 3.683-2.126 2.324.622.426.737-1.474.851-.736.425-2.21 1.276-.623 2.324zm8.187-9.638l3.683-2.126 4.648 1.245 1.701 2.947-1.245 4.648-3.683 2.126-2.324-.622-.426-.737 1.474-.851.736-.425 2.21-1.276.623-2.324-.85-1.473-2.325-.623-2.21 1.276-.736.425-1.474.851-.425-.737.623-2.324zm-2.597 9.112l-1.162-.311-.638-1.105.311-1.162 5.893-3.403 1.162.311.638 1.105-.311 1.162-5.893 3.403z" fill="#424242"/></svg>