<svg ti:v="1" width="42.68" height="42.667" viewBox="0 0 42.68 42.667" xmlns="http://www.w3.org/2000/svg" xmlns:ti="urn:schemas-jetbrains-com:tisvg"><rect id="frame" width="42.68" height="42.667" fill="none"/><path fill-rule="evenodd" d="M10.709 31.943V13.757h2.674v-1.605c0-.591.48-1.07 1.07-1.07h2.14c.59 0 1.07.479 1.07 1.07v1.605h7.488v-1.605c0-.591.479-1.07 1.07-1.07h2.14c.59 0 1.069.479 1.069 1.07v1.605h2.674v18.186H10.71zm1.604-1.605H30.5V18.036H12.313v12.302zm1.07-3.744h3.21v2.675h-3.21v-2.675zm4.28 0h3.209v2.675h-3.21v-2.675zm4.278 0h3.21v2.675h-3.21v-2.675zm4.28 0h3.209v2.675h-3.21v-2.675zM13.383 22.85h3.21v2.674h-3.21V22.85zm4.28 0h3.209v2.674h-3.21V22.85zm4.278 0h3.21v2.674h-3.21V22.85zm4.28 0h3.209v2.674h-3.21V22.85zm-8.559-3.744h3.21v2.674h-3.21v-2.674zm4.28 0h3.209v2.674h-3.21v-2.674zm4.279 0h3.209v2.674h-3.21v-2.674zm.802-6.954a.802.802 0 0 0-.802.802v1.605c0 .443.359.802.802.802h.535a.802.802 0 0 0 .802-.802v-1.605a.802.802 0 0 0-.802-.802h-.535zm-11.768 0a.802.802 0 0 0-.802.802v1.605c0 .443.36.802.802.802h.535a.802.802 0 0 0 .803-.802v-1.605a.802.802 0 0 0-.803-.802h-.535zm2.942 11.233v1.604h2.14v-1.604h-2.14zm-4.279 0v1.604h2.14v-1.604h-2.14zm8.558 0v1.604h2.14v-1.604h-2.14zm4.28 0v1.604h2.139v-1.604h-2.14z" fill="#FCFCFC"/></svg>