<svg ti:v="1" width="42.68" height="42.666" viewBox="0 0 42.68 42.666" xmlns="http://www.w3.org/2000/svg" xmlns:ti="urn:schemas-jetbrains-com:tisvg"><rect id="frame" width="42.68" height="42.666" fill="none"/><path fill-rule="evenodd" d="M11.185 31.62V13.434h2.674v-1.605c0-.591.48-1.07 1.07-1.07h2.14c.59 0 1.07.479 1.07 1.07v1.605h7.488v-1.605c0-.591.48-1.07 1.07-1.07h2.14c.59 0 1.07.479 1.07 1.07v1.605h2.674V31.62H11.185zm1.605-1.604h18.186V17.713H12.79v12.303zm1.07-3.745h3.209v2.675h-3.21v-2.675zm4.279 0h3.209v2.675h-3.21v-2.675zm4.279 0h3.21v2.675h-3.21v-2.675zm4.279 0h3.21v2.675h-3.21v-2.675zm-12.838-3.744h3.21v2.674h-3.21v-2.674zm4.28 0h3.209v2.674h-3.21v-2.674zm4.279 0h3.21v2.674h-3.21v-2.674zm4.279 0h3.21v2.674h-3.21v-2.674zm-8.558-3.744h3.209v2.674h-3.21v-2.674zm4.279 0h3.21v2.674h-3.21v-2.674zm4.279 0h3.21v2.674h-3.21v-2.674zm.802-6.954a.802.802 0 0 0-.802.803v1.604c0 .443.36.803.802.803h.535c.443 0 .802-.36.802-.803v-1.604a.802.802 0 0 0-.802-.803H27.5zm-11.767 0a.802.802 0 0 0-.803.802v1.605c0 .443.36.803.803.803h.534c.444 0 .803-.36.803-.803v-1.605a.802.802 0 0 0-.803-.802h-.534zm2.941 11.233v1.605h2.14v-1.605h-2.14zm-4.279 0v1.605h2.14v-1.605h-2.14zm8.559 0v1.605h2.14v-1.605h-2.14zm4.279 0v1.605h2.14v-1.605h-2.14z" fill="#424242"/></svg>