<svg ti:v="1" width="42.681" height="42.667" viewBox="0 0 42.681 42.667" xmlns="http://www.w3.org/2000/svg" xmlns:ti="urn:schemas-jetbrains-com:tisvg"><rect id="frame" width="42.681" height="42.667" fill="none"/><path fill-rule="evenodd" d="M10.45 14.213h3.673v6.66l2.756-2.756v3.674l-4.593 4.822-4.592-4.822v-3.674l2.755 2.755v-6.66zM23.308 34.42l-1.709-.093.79-11.848c-.612.306-1.837 2.755-1.837 2.755s-.612.919-.918 4.593l-2.756-.919.918-4.592s1.838-6.43 5.512-6.43h7.348c3.674 0 5.511 6.43 5.511 6.43l.465 2.635a15.684 15.684 0 0 1-2.356 2.968c-.319-3.252-.864-4.685-.864-4.685s-1.225-2.45-1.838-2.755l.522 9.235a15.544 15.544 0 0 1-8.788 2.706zm3.674-27.556a4.593 4.593 0 1 1 0 9.185 4.593 4.593 0 0 1 0-9.185z" fill="#FCFCFC"/></svg>