<svg ti:v="1" width="42.68" height="42.667" viewBox="0 0 42.68 42.667" xmlns="http://www.w3.org/2000/svg" xmlns:ti="urn:schemas-jetbrains-com:tisvg"><rect id="frame" width="42.68" height="42.667" fill="none"/><path fill-rule="evenodd" d="M9.151 14.04h3.674v6.66l2.756-2.756v3.674l-4.593 4.822-4.592-4.822v-3.674L9.151 20.7v-6.66zm12.86 20.208l-1.709-.092.79-11.849c-.612.306-1.837 2.756-1.837 2.756s-.612.918-.918 4.592l-2.756-.918.919-4.593s1.837-6.43 5.511-6.43h7.348c3.674 0 5.511 6.43 5.511 6.43l.465 2.635a15.674 15.674 0 0 1-2.356 2.968c-.319-3.252-.864-4.684-.864-4.684s-1.225-2.45-1.837-2.756l.521 9.235a15.54 15.54 0 0 1-8.788 2.706zm3.674-27.556a4.593 4.593 0 1 1 0 9.186 4.593 4.593 0 0 1 0-9.186z"/></svg>