<svg ti:v="1" width="42.681" height="42.667" viewBox="0 0 42.681 42.667" xmlns="http://www.w3.org/2000/svg" xmlns:ti="urn:schemas-jetbrains-com:tisvg"><rect id="frame" width="42.681" height="42.667" fill="none"/><path fill-rule="evenodd" d="M13.551 23.102a3.462 3.462 0 1 1 0 6.924 3.462 3.462 0 0 1 0-6.924zm-.576 1.154v1.154h1.153v-1.154h-1.153zm0 1.731v2.884h1.153v-2.884h-1.153zM32.59 12.141v15h-6.635c-1.524 0-2.596 1.73-2.596 1.73h-3.461s-.707-1.141-1.79-1.57l.059-.737c0-.381-.046-.75-.133-1.104.441.115 1.152.47 1.864 1.536V14.825c-.374-.46-.846-.954-1.154-.954h-6.346v8.223a4.587 4.587 0 0 0-1.731.867v-10.82h8.942s.82.409 1.717 1.352c1.076-1.352 2.177-1.352 2.177-1.352h9.087zm-9.23 14.855c1.153-1.73 2.307-1.586 2.307-1.586h5.192V13.871h-6.346c-.308 0-.78.494-1.154.954v12.171z" fill="#FCFCFC"/></svg>