<svg ti:v="1" width="42.68" height="42.667" viewBox="0 0 42.68 42.667" xmlns="http://www.w3.org/2000/svg" xmlns:ti="urn:schemas-jetbrains-com:tisvg"><rect id="frame" width="42.68" height="42.667" fill="none"/><path fill-rule="evenodd" d="M13.621 22.769a3.461 3.461 0 1 1 0 6.922 3.461 3.461 0 0 1 0-6.922zm-.577 1.154v1.154h1.154v-1.154h-1.154zm0 1.731v2.884h1.154v-2.884h-1.154zm19.615-13.846v15h-6.634c-1.525 0-2.596 1.73-2.596 1.73h-3.462s-.707-1.141-1.789-1.57l.058-.737c0-.381-.046-.75-.132-1.104.441.115 1.152.47 1.863 1.536V14.492c-.373-.46-.846-.954-1.154-.954h-6.346v8.223a4.594 4.594 0 0 0-1.731.867v-10.82h8.943s.819.409 1.717 1.352c1.075-1.352 2.177-1.352 2.177-1.352h9.086zm-9.23 14.855c1.153-1.73 2.307-1.586 2.307-1.586h5.193V13.538h-6.347c-.308 0-.78.494-1.153.954v12.171z"/></svg>