<svg xmlns="http://www.w3.org/2000/svg" width="16" height="16" viewBox="0 0 16 16">
  <g fill="none" fill-rule="evenodd">
    <path fill="#9AA7B0" fill-opacity=".8" d="M7.9846,4 L6.6966,2.711 C6.3046,2.32 5.5326,2 4.9786,2 L1.0506,2 C1.0226,2 1.0006,2.023 1.0006,2.051 L1.0006,13 L4.0006,13 L4.0006,7 L15.0006,7 L15.0006,4 L7.9846,4 Z"/>
    <polygon fill="#F98B9E" fill-opacity=".6" points="5 16 16 16 16 8 5 8"/>
    <path fill="#231F20" fill-opacity=".7" d="M2.9834,1.2 L4.1,4 L1.8964,4 L2.9834,1.2 Z M4.8154,5.9999 L6.0004,5.9999 L3.4464,-0.0001 L2.5534,-0.0001 L0.0004,5.9999 L1.1514,5.9999 L1.5654,4.9999 L4.4064,4.9999 L4.8154,5.9999 Z" transform="translate(7 9)"/>
  </g>
</svg>
