<svg xmlns="http://www.w3.org/2000/svg" width="16" height="16" viewBox="0 0 16 16">
  <g fill="none" fill-rule="evenodd">
    <path fill="#F98B9E" fill-opacity=".6" d="M15,8 C15,11.866 11.866,15 8,15 C4.134,15 1,11.866 1,8 C1,4.134 4.134,1 8,1 C11.866,1 15,4.134 15,8"/>
    <path fill="#231F20" fill-opacity=".7" d="M4.9814 3.9082L7.6334 2.3472C7.5094 2.0752 7.3514 1.8242 7.1714 1.5882L4.5054 3.1572C4.7694 3.3162 4.9514 3.5862 4.9814 3.9082M3.4648 3.1777L.7898 1.6337C.6138 1.8717.4588 2.1247.3378 2.3987L3.0118 3.9427C3.0308 3.6167 3.2068 3.3457 3.4648 3.1777M4 3C4.162 3 4.309 3.047 4.444 3.115L4.444.045C4.297.028 4.152 4.4408921e-15 4 4.4408921e-15 3.848 4.4408921e-15 3.703.028 3.556.045L3.556 3.115C3.691 3.047 3.838 3 4 3M4.9883 4.0566C4.9683 4.3826 4.7933 4.6546 4.5363 4.8226L7.2103 6.3666C7.3853 6.1276 7.5423 5.8746 7.6623 5.6006L4.9883 4.0566zM4 5C3.838 5 3.691 4.953 3.556 4.885L3.556 7.955C3.703 7.972 3.848 8 4 8 4.152 8 4.297 7.972 4.444 7.955L4.444 4.885C4.309 4.953 4.162 5 4 5M3.0078 4.0391L.3418 5.6071C.4618 5.8811.6178 6.1341.7948 6.3711L3.4468 4.8111C3.1948 4.6391 3.0208 4.3651 3.0078 4.0391" transform="translate(4 4)"/>
  </g>
</svg>
