<svg xmlns="http://www.w3.org/2000/svg" width="16" height="16" viewBox="0 0 16 16">
  <g fill="none" fill-rule="evenodd">
    <path fill="#F98B9E" fill-opacity=".6" d="M8.5,14.9824181 L8.5,1.01758193 C12.1326435,1.27395426 15,4.30211674 15,8 C15,11.6978833 12.1326435,14.7260457 8.5,14.9824181 Z"/>
    <path fill="#F4AF3D" fill-opacity=".6" d="M1,14.9824181 L1,1.01758193 C4.63264354,1.27395426 7.5,4.30211674 7.5,8 C7.5,11.6978833 4.63264354,14.7260457 1,14.9824181 Z" transform="matrix(-1 0 0 1 8.5 0)"/>
    <path fill="#231F20" fill-opacity=".7" d="M2.9834,1.2 L4.1,4 L1.8964,4 L2.9834,1.2 Z M4.8154,5.9999 L6.0004,5.9999 L3.4464,-0.0001 L2.5534,-0.0001 L0.0004,5.9999 L1.1514,5.9999 L1.5654,4.9999 L4.4064,4.9999 L4.8154,5.9999 Z" transform="translate(5 5)"/>
  </g>
</svg>
