<svg width="32" height="32" viewBox="0 0 32 32" fill="none" xmlns="http://www.w3.org/2000/svg">
<path d="M26 6H6V26H26V6Z" fill="url(#paint0_linear)"/>
<path d="M16 6H6V26H16V6Z" fill="url(#paint1_linear)"/>
<path d="M16 6H6V26H16V6Z" fill="url(#paint2_linear)"/>
<path d="M26 18H22V15L16 20L22 25V22H26V18Z" fill="url(#paint3_linear)"/>
<path d="M26 18H22V15L16 20L22 25V22H26V18Z" fill="url(#paint4_linear)"/>
<path d="M6 14H10V17L16 12.0526L10 7V10H6V14Z" fill="url(#paint5_linear)"/>
<defs>
<linearGradient id="paint0_linear" x1="15.9733" y1="1.139" x2="15.9733" y2="19.075" gradientUnits="userSpaceOnUse">
<stop offset="0.0842986" stop-color="#878585"/>
<stop offset="0.5377"/>
</linearGradient>
<linearGradient id="paint1_linear" x1="11" y1="6" x2="11" y2="26" gradientUnits="userSpaceOnUse">
<stop offset="0" stop-color="#FDFEFF"/>
<stop offset="0.458333" stop-color="#E2E3E4"/>
<stop offset="0.765625" stop-color="#E2E3E4"/>
</linearGradient>
<linearGradient id="paint2_linear" x1="11" y1="6" x2="11" y2="26" gradientUnits="userSpaceOnUse">
<stop offset="0" stop-color="#F5F1F1"/>
<stop offset="1" stop-color="white" stop-opacity="0"/>
</linearGradient>
<linearGradient id="paint3_linear" x1="21" y1="15" x2="21" y2="25" gradientUnits="userSpaceOnUse">
<stop offset="0" stop-color="#FDFEFF"/>
<stop offset="0.458333" stop-color="#E2E3E4"/>
<stop offset="0.765625" stop-color="#E2E3E4"/>
</linearGradient>
<linearGradient id="paint4_linear" x1="21" y1="15" x2="21" y2="25" gradientUnits="userSpaceOnUse">
<stop offset="0" stop-color="#F5F1F1"/>
<stop offset="1" stop-color="white" stop-opacity="0"/>
</linearGradient>
<linearGradient id="paint5_linear" x1="10.9867" y1="4.5695" x2="10.9867" y2="13.5375" gradientUnits="userSpaceOnUse">
<stop offset="0.0842986" stop-color="#878585"/>
<stop offset="0.5377"/>
</linearGradient>
</defs>
    <path fill-rule="evenodd" clip-rule="evenodd" d="M14 32H32V22H14V32Z" fill="#D99E2B"/>
    <path fill-rule="evenodd" clip-rule="evenodd" d="M16 30H19.75V29.0505H16.9V27.45H19.4V26.5H16.9V24.95H19.7V24H16V30Z" fill="black"/>
    <path fill-rule="evenodd" clip-rule="evenodd" d="M22.3999 27.65L23.2999 25.25L24.2499 27.65H22.3999ZM20.5 30H21.45L22 28.5505H24.55L25.0995 30H26.0995L23.75 24H22.8495L20.5 30Z" fill="black"/>
    <path fill-rule="evenodd" clip-rule="evenodd" d="M27.407 27.1002V24.9502H28.2995C28.9845 24.9502 29.2995 25.3002 29.35 25.8502V26.0502C29.35 26.6442 29.0225 27.1002 28.45 27.1002H27.407ZM27.407 30V28.05H28.25C29.3955 28.071 30.2555 27.174 30.2555 26.152V25.902C30.2555 24.7925 29.4675 24 28.44 24H26.5V30H27.407Z" fill="black"/>
</svg>