<svg width="16" height="16" viewBox="0 0 16 16" fill="none" xmlns="http://www.w3.org/2000/svg">
<path d="M15 1H1V15H15V1Z" fill="url(#paint0_linear)"/>
<path d="M8 1H1V15H8V1Z" fill="url(#paint1_linear)"/>
<path d="M8 1H1V15H8V1Z" fill="url(#paint2_linear)"/>
<path d="M15 9.1H12V7L8 10.5L12 14V11.9H15V9.1Z" fill="url(#paint3_linear)"/>
<path d="M15 9.1H12V7L8 10.5L12 14V11.9H15V9.1Z" fill="url(#paint4_linear)"/>
<path d="M1 6.9H4V9L8 5.53683L4 2V4.1H1V6.9Z" fill="url(#paint5_linear)"/>
<defs>
<linearGradient id="paint0_linear" x1="7.98133" y1="-2.4027" x2="7.98133" y2="10.1525" gradientUnits="userSpaceOnUse">
<stop offset="0.0842986" stop-color="#878585"/>
<stop offset="0.5377"/>
</linearGradient>
<linearGradient id="paint1_linear" x1="4.5" y1="1" x2="4.5" y2="15" gradientUnits="userSpaceOnUse">
<stop offset="0" stop-color="#FDFEFF"/>
<stop offset="0.458333" stop-color="#E2E3E4"/>
<stop offset="0.765625" stop-color="#E2E3E4"/>
</linearGradient>
<linearGradient id="paint2_linear" x1="4.5" y1="1" x2="4.5" y2="15" gradientUnits="userSpaceOnUse">
<stop offset="0" stop-color="#F5F1F1"/>
<stop offset="1" stop-color="white" stop-opacity="0"/>
</linearGradient>
<linearGradient id="paint3_linear" x1="11.5" y1="7" x2="11.5" y2="14" gradientUnits="userSpaceOnUse">
<stop offset="0" stop-color="#FDFEFF"/>
<stop offset="0.458333" stop-color="#E2E3E4"/>
<stop offset="0.765625" stop-color="#E2E3E4"/>
</linearGradient>
<linearGradient id="paint4_linear" x1="11.5" y1="7" x2="11.5" y2="14" gradientUnits="userSpaceOnUse">
<stop offset="0" stop-color="#F5F1F1"/>
<stop offset="1" stop-color="white" stop-opacity="0"/>
</linearGradient>
<linearGradient id="paint5_linear" x1="4.49067" y1="0.29865" x2="4.49067" y2="6.57625" gradientUnits="userSpaceOnUse">
<stop offset="0.0842986" stop-color="#878585"/>
<stop offset="0.5377"/>
</linearGradient>
</defs>
</svg>
