<svg width="12" height="12" viewBox="0 0 12 12" fill="none" xmlns="http://www.w3.org/2000/svg"><rect id="frame" width="12" height="12" fill="none"/><path fill-rule="evenodd" clip-rule="evenodd" d="M1.957 5.422l1.155-1.155.809.809L2.766 6.23a2.124 2.124 0 1 0 3.003 3.003L6.924 8.08l.809.809-1.155 1.155a3.267 3.267 0 1 1-4.621-4.62zm7.277.347L8.08 6.924l.809.809 1.155-1.155a3.267 3.267 0 1 0-4.62-4.621L4.266 3.112l.809.809L6.23 2.766a2.124 2.124 0 0 1 3.003 3.003zM7.13 3.976L3.894 7.21l.982.982L8.11 4.958l-.981-.982z" fill="#AFB1B3"/></svg>