<svg xmlns="http://www.w3.org/2000/svg" width="16" height="16" viewBox="0 0 16 16"><rect id="frame" width="16" height="16" fill="none"/><g fill="none" fill-rule="evenodd"><path fill="#40B6E0" fill-opacity=".7" d="M1 16h15V9H1z"/><path fill="#9AA7B0" fill-opacity=".8" d="M7 1L3 5h4z"/><path fill="#9AA7B0" fill-opacity=".8" d="M8 1v5H3v2h10V1z"/><path fill="#231F20" fill-opacity=".7" d="M3 15h1v-5H3z"/><path fill="#231F20" fill-opacity=".7" d="M6.9 12.5c.664 0 1.1-.116 1.1-.75S7.557 11 6.9 11H6v1.5h.9zM5 10h1.971C8.142 10 9 10.642 9 11.65c0 1.636-1.029 1.85-2.128 1.85H6V15H5v-5z"/></g></svg>