<svg ti:v="1" width="16" height="16" viewBox="0 0 16 16" xmlns="http://www.w3.org/2000/svg" xmlns:ti="urn:schemas-jetbrains-com:tisvg"><rect id="frame" width="16" height="16" fill="none"/><linearGradient id="a" x1=".5" y1=".003" x2=".5" y2="1.003"><stop offset="0" stop-color="#7C6D47"/><stop offset="1" stop-color="#60492F"/></linearGradient><path fill-rule="evenodd" d="M2 15V1h7.414L14 5.586V15H2z" fill="url(#a)"/><linearGradient id="b" x1=".5" y1=".004" x2=".5" y2="1"><stop offset="0" stop-color="#E3D8BC"/><stop offset="1" stop-color="#E3CDB3"/></linearGradient><path fill-rule="evenodd" d="M9 2H3v12h10V6L9 2z" fill="url(#b)"/><linearGradient id="c" x1=".5" y1=".012" x2=".5" y2="1.006"><stop offset="0" stop-color="#FFF3D4"/><stop offset="1" stop-color="#FFF"/></linearGradient><path fill-rule="evenodd" d="M9 6V4H5v8h6V6H9z" fill="url(#c)"/><linearGradient id="d" x1=".5" y1=".009" x2=".5" y2="1.009"><stop offset="0" stop-color="#00474E"/><stop offset="1" stop-color="#009173"/></linearGradient><path fill-rule="evenodd" d="M6 9H0v1.164l1 1v2.672l-1 1V16h8v-3H6V9z" fill="url(#d)"/><linearGradient id="e" x1=".5" y1=".009" x2=".5" y2="1.009"><stop offset="0" stop-color="#E6FDFF"/><stop offset="1" stop-color="#94FFEA"/></linearGradient><path fill-rule="evenodd" d="M5 14v-4H4v5h3v-1m-4-3.25v3.5l.75.75h-2.5l.75-.75v-3.5L1.25 10h2.5l-.75.75z" fill="url(#e)"/></svg>