<svg xmlns="http://www.w3.org/2000/svg" width="16" height="16" viewBox="0 0 16 16">
  <g fill="none" fill-rule="evenodd">
    <path fill="#B99BF8" fill-opacity=".6" d="M9,8 L15,8 C15,4.134 11.866,1 8,1 C4.134,1 1,4.134 1,8 C1,11.866 4.134,15 8,15 C8.34,15 8.673,14.967 9,14.92 L9,8 Z"/>
    <path fill="#231F20" fill-opacity=".7" d="M9,9.83289848 L9,10.8800335 C8.7461685,10.9589073 8.46134117,11 8.15333333,11 C7.26166667,11 6.42,10.6916667 5.72,10.0666667 L6.33666667,9.33333333 C6.895,9.81666667 7.46166667,10.0916667 8.17833333,10.0916667 C8.53729248,10.0916667 8.82129636,9.99529561 9,9.83289848 Z M9,8.86434422 C8.81290356,8.71110862 8.47633295,8.58415376 7.895,8.45 C6.65333333,8.15 5.95333333,7.78333333 5.95333333,6.70833333 L5.95333333,6.69166667 C5.95333333,5.69166667 6.78666667,5 7.945,5 C8.795,5 9.47,5.25833333 10.0616667,5.73333333 L9.51166667,6.50833333 C8.98666667,6.11666667 8.46166667,5.90833333 7.92833333,5.90833333 C7.32833333,5.90833333 6.97833333,6.21666667 6.97833333,6.6 L6.97833333,6.61666667 C6.97833333,7.06666667 7.245,7.26666667 8.37,7.53333333 C8.87549938,7.65629264 9.28020548,7.80305036 9.58182322,8 L9,8 L9,8.86434422 Z"/>
    <path fill="#9AA7B0" d="M10,16 L16,16 L16,9 L10,9 L10,16 Z M11,15 L15.001,15 L15.001,10 L11,10 L11,15 Z"/>
    <polygon fill="#9AA7B0" points="12 12.001 14 12.001 14 11 12 11"/>
    <polygon fill="#9AA7B0" points="12 14.001 14 14.001 14 13 12 13"/>
  </g>
</svg>
