<svg ti:v="1" width="32" height="32" viewBox="0 0 32 32" xmlns="http://www.w3.org/2000/svg" xmlns:ti="urn:schemas-jetbrains-com:tisvg"><rect id="frame" width="32" height="32" fill="none"/><linearGradient id="a" x1="-.019" y1=".626" x2=".998" y2=".374"><stop offset="0" stop-color="#7866FF"/><stop offset=".124" stop-color="#7866FF"/><stop offset=".538" stop-color="#FD2EB6"/><stop offset=".855" stop-color="#FD0385"/><stop offset="1" stop-color="#FD0385"/></linearGradient><path fill-rule="evenodd" d="M30.72 7.36L19.947 0 0 14.187 5.12 32l22.4-4.48 3.2-20.16z" fill="url(#a)"/><linearGradient id="b" x1=".246" y1=".813" x2=".926" y2=".19"><stop offset="0" stop-color="#FF0080"/><stop offset=".124" stop-color="#FF0080"/><stop offset=".259" stop-color="#FD0285"/><stop offset=".411" stop-color="#F90B91"/><stop offset=".571" stop-color="#F41AA8"/><stop offset=".736" stop-color="#EA2FC7"/><stop offset=".866" stop-color="#E243E6"/><stop offset="1" stop-color="#E243E6"/></linearGradient><path fill-rule="evenodd" d="M30.72 7.36L19.947 0l-2.56 7.147v14.72H32L30.72 7.36z" fill="url(#b)"/><path fill-rule="evenodd" d="M5 5h22v22H5V5z" fill="#2D2D34"/><path fill-rule="evenodd" d="M7 22h8v2H7v-2z" fill="#FFF"/><path fill-rule="evenodd" d="M10.51 14.213c.403 0 .771-.064 1.105-.193.335-.128.62-.313.855-.552.236-.241.42-.524.553-.849.133-.326.2-.69.2-1.093V11.5a2.93 2.93 0 0 0-.2-1.093 2.564 2.564 0 0 0-.553-.861 2.423 2.423 0 0 0-.855-.559 2.96 2.96 0 0 0-1.105-.2H8.98v5.426M7 7h3.51c.703 0 1.348.114 1.935.341a4.563 4.563 0 0 1 1.517.945c.424.403.752.876.983 1.42.232.545.348 1.134.348 1.768v.026c0 .634-.116 1.226-.348 1.774a4.19 4.19 0 0 1-.983 1.428c-.424.402-.93.719-1.517.951A5.22 5.22 0 0 1 10.51 16H7m11.076-7.121h-2.67V7h7.22v1.879h-2.67V16h-1.88V8.879z" fill="#FFF"/></svg>