<svg xmlns="http://www.w3.org/2000/svg" width="16" height="16" viewBox="0 0 16 16">
  <path fill="#252525" d="M9 0a7.009 7.009 0 00-7 7 6.917 6.917 0 00.429 2.4L0 14.785V16h1.215L6.6 13.571A6.921 6.921 0 009 14 7 7 0 009 0z"/>
  <path fill="#c4c4c4" d="M9 1a5.994 5.994 0 00-5.484 8.427L1 15l5.573-2.516A6 6 0 109 1z"/>
  <path fill="#292929" d="M5.81 8a9.3 9.3 0 001.336-2.2V8zm2.844 0h-.621V4h-.922a15.39 15.39 0 01-2.524 4v.993h2.559V10h.887V8.988h.621zm4.331.977h-2.2c0-.85 2.107-1.4 2.107-3.36A1.569 1.569 0 0011.108 4a3.082 3.082 0 00-1.852.439v1.118a2.259 2.259 0 011.494-.468c.494 0 .994.119.994.733 0 1.028-2.513 1.918-2.513 3.421V10h3.754z"/>
</svg>
