<svg xmlns="http://www.w3.org/2000/svg" width="16" height="16" viewBox="0 0 16 16">
  <path fill="#6e6e6f" d="M7.146 8V5.8A9.3 9.3 0 015.81 8z"/>
  <path fill="#6e6e6f" d="M9 1a5.994 5.994 0 00-5.484 8.427L1 15l5.573-2.516A6 6 0 109 1zm-.346 7.988h-.621V10h-.887V8.988H4.587V8a15.39 15.39 0 002.524-4h.922v4h.621zM12.985 10H9.231v-.757c0-1.5 2.513-2.393 2.513-3.421 0-.614-.5-.733-.994-.733a2.259 2.259 0 00-1.494.468V4.439A3.082 3.082 0 0111.108 4a1.569 1.569 0 011.785 1.621c0 1.958-2.107 2.51-2.107 3.36h2.2z"/>
</svg>
