<svg xmlns="http://www.w3.org/2000/svg" width="108" height="78" viewBox="0 0 108 78">
  <path fill="#eeeff2" d="M.084.084h108v78h-108z" style="isolation:isolate"/>
  <path fill="#adb5c2" d="M106.46 13.585A13.046 13.046 0 0094.622 2.046C84.8 1.179 69.368.084 54.084.084s-30.715 1.1-40.537 1.962A13.044 13.044 0 001.709 13.585a237.813 237.813 0 00-1.625 25.5 237.8 237.8 0 001.625 25.5 13.044 13.044 0 0011.838 11.537c9.822.867 25.253 1.962 40.537 1.962s30.716-1.095 40.538-1.962a13.046 13.046 0 0011.838-11.539 237.814 237.814 0 001.624-25.5 237.832 237.832 0 00-1.624-25.498z" style="isolation:isolate"/>
  <path fill="#f3f4f5" d="M73.339 36.417c2.326 1.467 2.326 3.867 0 5.334L45.781 59.126c-2.327 1.467-4.229.416-4.228-2.334l.013-35.416c0-2.75 1.9-3.8 4.231-2.333z" style="isolation:isolate"/>
</svg>
