<svg xmlns="http://www.w3.org/2000/svg" width="108" height="78" viewBox="0 0 108 78">
  <path fill="#eeeff2" d="M0 0h108v78H0z" style="isolation:isolate"/>
  <path fill="#adb5c2" d="M106.375 13.5A13.044 13.044 0 0094.538 1.962C84.716 1.1 69.284 0 54 0S23.284 1.1 13.462 1.962A13.044 13.044 0 001.625 13.5 237.813 237.813 0 000 39a237.813 237.813 0 001.625 25.5 13.044 13.044 0 0011.837 11.538C23.284 76.905 38.716 78 54 78s30.716-1.095 40.538-1.962A13.044 13.044 0 00106.375 64.5 237.813 237.813 0 00108 39a237.813 237.813 0 00-1.625-25.5z" style="isolation:isolate"/>
  <path fill="#f3f4f5" d="M73.255 36.332c2.326 1.468 2.326 3.868 0 5.335L45.7 59.042c-2.326 1.466-4.228.416-4.227-2.334l.013-35.416c0-2.75 1.905-3.8 4.231-2.333z" style="isolation:isolate"/>
</svg>
