<svg ti:v="1" width="16" height="16" viewBox="0 0 16 16" xmlns="http://www.w3.org/2000/svg" xmlns:ti="urn:schemas-jetbrains-com:tisvg"><rect id="frame" width="16" height="16" fill="none"/><path d="M2 15V1h7.414L14 5.586V15H2z" fill="#F4F4F4"/><path d="M9 2H3v12h10V6L9 2z" fill="#323232"/><path d="M9 6V4H5v8h6V6H9z" fill="#EBEBEB"/><path d="M0 16V9h5v.257c.307-.168.65-.256 1-.257h3v3h-.246c.166.307.25.651.246 1v1a1.96 1.96 0 0 1-2 2zm0 0" fill="#F4F4F4"/><path d="M8 11v-1H6a.98.98 0 0 0-1 1v1a.98.98 0 0 0 1 1h1v1H5v1h2a.98.98 0 0 0 1-1v-1a.98.98 0 0 0-1-1H6v-1zm-6 0v1h1.5v1H2v1h2v1H1v-5h3v1zm0 0" fill="#F16421"/></svg>