<svg ti:v="1" width="16" height="16" viewBox="0 0 16 16" xmlns="http://www.w3.org/2000/svg" xmlns:ti="urn:schemas-jetbrains-com:tisvg"><rect id="frame" width="16" height="16" fill="none"/><linearGradient id="a" x1=".5" y1=".003" x2=".5" y2="1.003"><stop offset="0" stop-color="#7D6E48"/><stop offset="1" stop-color="#614A30"/></linearGradient><path d="M2 15V1h7.414L14 5.586V15H2z" fill="url(#a)"/><linearGradient id="b" x1=".5" y1=".004" x2=".5" y2="1"><stop offset="0" stop-color="#E2D7BB"/><stop offset="1" stop-color="#E2CCB2"/></linearGradient><path d="M9 2H3v12h10V6L9 2z" fill="url(#b)"/><linearGradient id="c" x1=".5" y1=".012" x2=".5" y2="1.006"><stop offset="0" stop-color="#FFF2D3"/><stop offset="1" stop-color="#FFF"/></linearGradient><path d="M9 6V4H5v8h6V6H9z" fill="url(#c)"/><linearGradient id="d" x1=".5" y1=".017" x2=".5" y2="1.051"><stop offset="0" stop-color="#813612"/><stop offset="1" stop-color="#F06421"/></linearGradient><path d="M0 16V9h5v.257c.307-.168.65-.256 1-.257h3v3h-.246c.166.307.25.651.246 1v1a1.96 1.96 0 0 1-2 2zm0 0" fill="url(#d)"/><linearGradient id="e" x1=".5" y1=".017" x2=".5" y2="1.051"><stop offset="0" stop-color="#FFE0D0"/><stop offset="1" stop-color="#FFBD81"/></linearGradient><path d="M8 11v-1H6a.98.98 0 0 0-1 1v1a.98.98 0 0 0 1 1h1v1H5v1h2a.98.98 0 0 0 1-1v-1a.98.98 0 0 0-1-1H6v-1zm-6 0v1h1.5v1H2v1h2v1H1v-5h3v1zm0 0" fill="url(#e)"/></svg>