<svg ti:v="1" width="16" height="16" viewBox="0 0 16 16" xmlns="http://www.w3.org/2000/svg" xmlns:ti="urn:schemas-jetbrains-com:tisvg"><rect id="frame" width="16" height="16" fill="none"/><linearGradient id="a" x1=".5" y1=".003" x2=".5" y2="1.003"><stop offset="0" stop-color="#7C6D47"/><stop offset="1" stop-color="#60492F"/></linearGradient><path fill-rule="evenodd" d="M2 15V1h7.414L14 5.586V15H2z" fill="url(#a)"/><linearGradient id="b" x1=".5" y1=".004" x2=".5" y2="1"><stop offset="0" stop-color="#E3D8BC"/><stop offset="1" stop-color="#E3CDB3"/></linearGradient><path fill-rule="evenodd" d="M9 2H3v12h10V6L9 2z" fill="url(#b)"/><linearGradient id="c" x1=".5" y1=".012" x2=".5" y2="1.006"><stop offset="0" stop-color="#FFF3D4"/><stop offset="1" stop-color="#FFF"/></linearGradient><path fill-rule="evenodd" d="M9 6V4H5v8h6V6H9z" fill="url(#c)"/><linearGradient id="d" x1=".5" y1=".017" x2=".5" y2="1.051"><stop offset="0" stop-color="#823511"/><stop offset="1" stop-color="#F16320"/></linearGradient><path fill-rule="evenodd" d="M2 9v3.648l-2-.357v2.207C0 15.018.418 16 2 16h5c.97 0 2-.701 2-2V9H2z" fill="url(#d)"/><linearGradient id="e" x1=".5" y1=".017" x2=".5" y2="1.051"><stop offset="0" stop-color="#FFE1D1"/><stop offset="1" stop-color="#FFBE82"/></linearGradient><path fill-rule="evenodd" d="M6 10s-1 0-1 1v1c0 1 1 1 1 1h1v1H5v1h2s1 0 1-1v-1c0-1-1-1-1-1H6v-1h2v-1m-5 0v4H2l-1-.328v.826S1 15 2 15h1c1 0 1-1 1-1v-4H3z" fill="url(#e)"/></svg>