<svg ti:v="1" width="16" height="16" viewBox="0 0 16 16" xmlns="http://www.w3.org/2000/svg" xmlns:ti="urn:schemas-jetbrains-com:tisvg"><rect id="frame" width="16" height="16" fill="none"/><g fill-rule="evenodd"><path d="M2 4.16v6.681l5.742 3.16h.516L14 10.84v-6.68L8.258 1h-.516L2 4.16z" fill="#F4F4F4"/><path d="M3 5.25v5L8 13V8L3 5.25z" fill="#632D8D"/><path d="M13 5.25L8 8v5l5-2.75v-5z" fill="#632D8D"/><path d="M12.545 4.5L8 7 3.455 4.5 3 4.75v.5L8 8l5-2.75v-.5l-.455-.25z" fill="#EBEBEB"/><path d="M8 7l4.545-2.5L8 2 3.455 4.5 8 7z" fill="#632D8D"/></g></svg>