<svg ti:v="1" width="16" height="16" viewBox="0 0 16 16" xmlns="http://www.w3.org/2000/svg" xmlns:ti="urn:schemas-jetbrains-com:tisvg"><rect id="frame" width="16" height="16" fill="none"/><linearGradient id="a" x1=".5" y1="0" x2=".5" y2="1"><stop offset="0" stop-color="#EAFF5E"/><stop offset="1" stop-color="#C1DE00"/></linearGradient><path fill-rule="evenodd" d="M6.838 1l-.154.052c-1.199.398-3.4 1.885-3.659 4.741L2 6.457v2.087l1.025.663c.259 2.856 2.46 4.342 3.659 4.741l.154.052h2.324l.154-.052c1.198-.399 3.401-1.885 3.659-4.741L14 8.544V6.457l-1.025-.664c-.258-2.856-2.461-4.343-3.659-4.741L9.162 1H6.838z" fill="url(#a)"/><path fill-rule="evenodd" d="M11.5 7v1l-1 1c0 2-1.5 3-1.5 3v1s3-1 3-4.354L13 8V7l-1-.646C12 3 9 2 9 2v1s1.5 1 1.5 3m-5 0C5.5 4 7 3 7 3V2S4 3 4 6.354L3 7v1l1 .646C4 12 7 13 7 13v-1s-1.5-1-1.5-3l-1-1V7l1-1z" fill="#495E00"/></svg>