<svg ti:v="1" width="16" height="16" viewBox="0 0 16 16" xmlns="http://www.w3.org/2000/svg" xmlns:ti="urn:schemas-jetbrains-com:tisvg"><rect id="frame" width="16" height="16" fill="none"/><linearGradient id="a" x1=".5" y1=".012" x2=".5" y2=".998"><stop offset="0" stop-color="#006D08"/><stop offset="1" stop-color="#004C1D"/></linearGradient><path fill-rule="evenodd" d="M11.087 1l.641 1.413C12.204 3.46 13 5.524 13 7.588c0 1.478-.416 3.112-1.272 4.999L11.087 14h2.544l.299-.339C14.874 12.588 16 10.648 16 7.5c0-3.151-1.127-5.09-2.072-6.161L13.629 1M2.371 1l-.299.339C1.127 2.41 0 4.349 0 7.5c0 3.148 1.126 5.088 2.07 6.161l.299.339h2.544l-.641-1.413C3.416 10.7 3 9.059 3 7.568c0-2.046.797-4.108 1.272-5.155L4.913 1H2.371z" fill="url(#a)"/><linearGradient id="b" x1=".5" y1=".012" x2=".5" y2=".998"><stop offset="0" stop-color="#C7FFB8"/><stop offset="1" stop-color="#00E82C"/></linearGradient><path fill-rule="evenodd" d="M12.639 2C13.32 3.5 14 5.588 14 7.588S13.32 11.5 12.639 13h.54c.84-.954 1.821-2.67 1.821-5.5s-.981-4.547-1.823-5.5M2.822 2C1.981 2.953 1 4.67 1 7.5s.981 4.546 1.821 5.5h.54C2.681 11.5 2 9.569 2 7.568 2 5.568 2.681 3.5 3.361 2h-.539z" fill="url(#b)"/><linearGradient id="c" x1=".5" y1="0" x2=".5" y2="1"><stop offset="0" stop-color="#005A94"/><stop offset="1" stop-color="#00134E"/></linearGradient><path fill-rule="evenodd" d="M8.234 4L4 6.42v3.646L7.225 12h.541L12 9.581V5.934L8.775 4h-.541z" fill="url(#c)"/><linearGradient id="d" x1=".5" y1="0" x2=".5" y2=".993"><stop offset="0" stop-color="#D1F6FF"/><stop offset="1" stop-color="#53D1FF"/></linearGradient><path fill-rule="evenodd" d="M5 7v2.5L7.5 11 11 9V6.5L8.5 5 5 7z" fill="url(#d)"/><linearGradient id="e" x1="0" y1=".5" x2="1" y2=".5"><stop offset="0" stop-color="#006294"/><stop offset="1" stop-color="#00214E"/></linearGradient><path fill-rule="evenodd" d="M6 7l1.5 1L10 6.5l-1.5-1L6 7z" fill="url(#e)"/></svg>