<svg ti:v="1" width="16" height="16" viewBox="0 0 16 16" xmlns="http://www.w3.org/2000/svg" xmlns:ti="urn:schemas-jetbrains-com:tisvg"><rect id="frame" width="16" height="16" fill="none"/><linearGradient id="a" x1=".5" y1="0" x2=".5" y2="1"><stop offset="0" stop-color="#005A94"/><stop offset="1" stop-color="#00134E"/></linearGradient><path fill-rule="evenodd" d="M9.191 2h-.457L1 6.42v5.257L6.809 14h.457L15 9.58V4.323L9.191 2z" fill="url(#a)"/><linearGradient id="b" x1="0" y1=".5" x2=".993" y2=".5"><stop offset="0" stop-color="#32D6FF"/><stop offset="1" stop-color="#009DFF"/></linearGradient><path fill-rule="evenodd" d="M2 7v4l5 2V9L2 7z" fill="url(#b)"/><linearGradient id="c" x1="-.005" y1=".5" x2="1" y2=".5"><stop offset="0" stop-color="#8AD8FF"/><stop offset="1" stop-color="#00ACEB"/></linearGradient><path fill-rule="evenodd" d="M14 5L7 9v4l7-4V5z" fill="url(#c)"/><linearGradient id="d" x1="0" y1=".5" x2="1" y2=".5"><stop offset="0" stop-color="#E0F3FF"/><stop offset="1" stop-color="#F9FBFF"/></linearGradient><path fill-rule="evenodd" d="M2 7l5 2 7-4-5-2-7 4z" fill="url(#d)"/><linearGradient id="e" x1="0" y1=".5" x2="1" y2=".5"><stop offset="0" stop-color="#006294"/><stop offset="1" stop-color="#00214E"/></linearGradient><path fill-rule="evenodd" d="M4.294 6.841l4.783-2.734 2.629 1.052-4.783 2.734-2.629-1.052z" fill="url(#e)"/></svg>