<svg ti:v="1" width="16" height="16" viewBox="0 0 16 16" xmlns="http://www.w3.org/2000/svg" xmlns:ti="urn:schemas-jetbrains-com:tisvg"><rect id="frame" width="16" height="16" fill="none"/><linearGradient id="a" x1=".5" y1="0" x2=".5" y2="1"><stop offset="0" stop-color="#945800"/><stop offset="1" stop-color="#4E0000"/></linearGradient><path fill-rule="evenodd" d="M6.809 2h.457L15 6.42v5.257L9.191 14h-.457L1 9.58V4.323L6.809 2z" fill="url(#a)"/><linearGradient id="b" x1="-.005" y1=".5" x2="1" y2=".5"><stop offset="0" stop-color="#EDAA00"/><stop offset="1" stop-color="#D95900"/></linearGradient><path fill-rule="evenodd" d="M14 7v4l-5 2V9l5-2z" fill="url(#b)"/><path fill-rule="evenodd" d="M10 9.677l3-1.2V10l-3 1.2V9.677z" fill="#002ADF"/><linearGradient id="c" x1="0" y1=".5" x2=".993" y2=".5"><stop offset="0" stop-color="#EDAA00"/><stop offset="1" stop-color="#D95900"/></linearGradient><path fill-rule="evenodd" d="M2 5l7 4v4L2 9V5z" fill="url(#c)"/><linearGradient id="d" x1="0" y1=".5" x2="1" y2=".5"><stop offset="0" stop-color="#FFEEC2"/><stop offset="1" stop-color="#FFB987"/></linearGradient><path fill-rule="evenodd" d="M14 7L9 9 2 5l5-2 7 4z" fill="url(#d)"/><linearGradient id="e" x1="0" y1=".5" x2="1" y2=".5"><stop offset="0" stop-color="#945800"/><stop offset="1" stop-color="#4E0000"/></linearGradient><path fill-rule="evenodd" d="M11.706 6.841L6.923 4.107 4.294 5.159l4.783 2.734 2.629-1.052z" fill="url(#e)"/></svg>