<svg ti:v="1" width="16" height="16" viewBox="0 0 16 16" xmlns="http://www.w3.org/2000/svg" xmlns:ti="urn:schemas-jetbrains-com:tisvg"><rect id="frame" width="16" height="16" fill="none"/><g fill-rule="evenodd"><path d="M6.809 2h.457L15 6.42v5.257L9.192 14h-.457L1 9.58V4.323L6.809 2z" fill="#242424"/><path d="M14 7v4l-5 2V9l5-2z" fill="#75BCFF"/><path d="M10 9.677l3-1.2V10l-3 1.2V9.677z" fill="#282828"/><path d="M2 5l7 4v4L2 9V5z" fill="#75BCFF"/><path d="M14 7L9 9 2 5l5-2 7 4z" fill="#75BCFF"/><path d="M11.706 6.841L6.923 4.108 4.294 5.159l4.783 2.734 2.63-1.052z" fill="#282828"/></g></svg>