<svg ti:v="1" width="16" height="16" viewBox="0 0 16 16" xmlns="http://www.w3.org/2000/svg" xmlns:ti="urn:schemas-jetbrains-com:tisvg"><rect id="frame" width="16" height="16" fill="none"/><g fill-rule="evenodd"><path d="M2 15V1h7.414L14 5.586V15H2z" fill="#F4F4F4"/><path d="M9 2H3v12h10V6L9 2z" fill="#313131"/><path d="M9 6V4H5v8h6V6H9z" fill="#EBEBEB"/><path d="M1 16v-4H0V9h9v5c0 1.299-1.03 2-2 2H1z" fill="#F4F4F4"/><path d="M4 10v1H3v4H2v-4H1v-1m7 1v-1H6s-1 0-1 1v1c0 1 1 1 1 1h1v1H5v1h2s1 0 1-1v-1c0-1-1-1-1-1H6v-1h2z" fill="#F06421"/></g></svg>