<svg ti:v="1" width="16" height="16" viewBox="0 0 16 16" xmlns="http://www.w3.org/2000/svg" xmlns:ti="urn:schemas-jetbrains-com:tisvg"><rect id="frame" width="16" height="16" fill="none"/><linearGradient id="a" x1=".5" y1=".003" x2=".5" y2="1.003"><stop offset="0" stop-color="#7C6E48"/><stop offset="1" stop-color="#60492F"/></linearGradient><path fill-rule="evenodd" d="M2 1v14h12V5.586L9.414 1H2z" fill="url(#a)"/><linearGradient id="b" x1=".5" y1=".004" x2=".5" y2="1"><stop offset="0" stop-color="#E2D8BC"/><stop offset="1" stop-color="#E2CDB3"/></linearGradient><path fill-rule="evenodd" d="M3 2v12h10V6L9 2H3z" fill="url(#b)"/><linearGradient id="c" x1=".5" y1=".012" x2=".5" y2="1.006"><stop offset="0" stop-color="#FFF2D4"/><stop offset="1" stop-color="#FFF"/></linearGradient><path fill-rule="evenodd" d="M5 4v8h6V6H9V4H5z" fill="url(#c)"/><linearGradient id="d" x1=".5" y1=".017" x2=".5" y2="1.051"><stop offset="0" stop-color="#823611"/><stop offset="1" stop-color="#F06421"/></linearGradient><path fill-rule="evenodd" d="M0 9v3h1v4h6c.97 0 2-.701 2-2V9H0z" fill="url(#d)"/><linearGradient id="e" x1=".5" y1=".017" x2=".5" y2="1.051"><stop offset="0" stop-color="#FFE1D1"/><stop offset="1" stop-color="#FFBD82"/></linearGradient><path fill-rule="evenodd" d="M6 10s-1 0-1 1v1c0 1 1 1 1 1h1v1H5v1h2s1 0 1-1v-1c0-1-1-1-1-1H6v-1h2v-1m-7 0v1h1v4h1v-4h1v-1H1z" fill="url(#e)"/></svg>