<svg width="64" height="64" viewBox="0 0 64 64" fill="none" xmlns="http://www.w3.org/2000/svg">
<path d="M48.9332 64L63.9999 24.0667L38 18L48.9332 64Z" fill="#087CFA"/>
<path d="M63.8 51.3333L48.9333 64L27.6 58.5333L41 44.5L63.8 51.3333Z" fill="url(#paint0_linear)"/>
<path d="M8.00009 29.3333L1.13342 9.86667L35.1334 0L25 18.5L8.00009 29.3333Z" fill="url(#paint1_linear)"/>
<path d="M55.8667 37.0667L46.3333 20.8L46.4667 20.6667L35.1333 0L0 37.9333V64L63.8 51.3333L55.8667 37.0667Z" fill="url(#paint2_linear)"/>
<path d="M51 13H13V51H51V13Z" fill="url(#paint3_linear)"/>
<path d="M32.1444 44H18V46.3222H32.1444V44Z" fill="white"/>
<path d="M22.7702 17.64H25.5982L31.6313 31.78H28.4262L27.1693 28.6378H21.1991L19.9422 31.78H16.8L22.7702 17.64ZM25.9753 25.8726L24.0899 21.285L22.2046 25.8726H25.9753Z" fill="white"/>
<path d="M31.4 24.8221C31.4 20.811 34.3556 17.4332 38.7889 17.4332C41.5334 17.4332 43.0111 18.2777 44.4889 19.5443L42.5889 21.8666C41.5334 20.811 40.4778 20.1777 39 20.1777C36.6778 20.1777 34.7778 22.0777 34.7778 24.611C34.7778 27.1443 36.4667 29.0443 39 29.0443C40.6889 29.0443 41.5334 28.411 42.8 27.3555L44.7 29.4666C43.0111 31.1555 41.3222 31.9999 38.5778 31.9999C34.3556 31.9999 31.4 28.8332 31.4 24.8221Z" fill="white"/>
<defs>
<linearGradient id="paint0_linear" x1="27.6306" y1="57.6681" x2="63.8139" y2="57.6681" gradientUnits="userSpaceOnUse">
<stop offset="0.1935" stop-color="#07C3F2"/>
<stop offset="0.9032" stop-color="#087CFA"/>
</linearGradient>
<linearGradient id="paint1_linear" x1="1.16476" y1="14.6611" x2="35.1176" y2="14.6611" gradientUnits="userSpaceOnUse">
<stop offset="0.1935" stop-color="#07C3F2"/>
<stop offset="0.9032" stop-color="#087CFA"/>
</linearGradient>
<linearGradient id="paint2_linear" x1="41.9435" y1="66.0314" x2="10.237" y2="21.7817" gradientUnits="userSpaceOnUse">
<stop offset="0.0913979" stop-color="#21D789"/>
<stop offset="0.4839" stop-color="#07C3F2"/>
<stop offset="0.9032" stop-color="#087CFA"/>
</linearGradient>
<linearGradient id="paint3_linear" x1="31.9493" y1="3.7641" x2="31.9493" y2="37.8425" gradientUnits="userSpaceOnUse">
<stop offset="0.0842986" stop-color="#878585"/>
<stop offset="0.5377"/>
</linearGradient>
</defs>
    <path fill-rule="evenodd" clip-rule="evenodd" d="M28 64H64V44H28V64Z" fill="#D99E2B"/>
    <path fill-rule="evenodd" clip-rule="evenodd" d="M32 60H39.5V58.101H33.8V54.9H38.8V53H33.8V49.9H39.4V48H32V60Z" fill="black"/>
    <path fill-rule="evenodd" clip-rule="evenodd" d="M44.7998 55.3L46.5998 50.5L48.4998 55.3H44.7998ZM41 60H42.9L44 57.101H49.1L50.199 60H52.199L47.5 48H45.699L41 60Z" fill="black"/>
    <path fill-rule="evenodd" clip-rule="evenodd" d="M54.814 54.2004V49.9004H56.599C57.969 49.9004 58.599 50.6004 58.7 51.7004V52.1004C58.7 53.2884 58.045 54.2004 56.9 54.2004H54.814ZM54.814 60V56.1H56.5C58.791 56.142 60.511 54.348 60.511 52.304V51.804C60.511 49.585 58.935 48 56.88 48H53V60H54.814Z" fill="black"/>
</svg>