<svg width="32" height="32" viewBox="0 0 32 32" fill="none" xmlns="http://www.w3.org/2000/svg">
<path d="M24.4666 32L31.9999 12.0333L19 9L24.4666 32Z" fill="#087CFA"/>
<path d="M31.9 25.6667L24.4667 32L13.8 29.2667L21.5 24L31.9 25.6667Z" fill="url(#paint0_linear)"/>
<path d="M4.00011 14.6667L0.566772 4.93333L17.5668 0L14 9.5L4.00011 14.6667Z" fill="url(#paint1_linear)"/>
<path d="M27.9333 18.5333L23.1667 10.4L23.2333 10.3333L17.5667 0L0 18.9667V32L31.9 25.6667L27.9333 18.5333Z" fill="url(#paint2_linear)"/>
<path d="M26 6H6V26H26V6Z" fill="url(#paint3_linear)"/>
<path d="M16 23H8V24H16V23Z" fill="white"/>
<path d="M15.7 12.058C15.7 9.85507 17.268 8 19.62 8C21.076 8 21.86 8.46377 22.644 9.15942L21.636 10.4348C21.076 9.85507 20.516 9.50725 19.732 9.50725C18.5 9.50725 17.492 10.5507 17.492 11.942C17.492 13.3333 18.388 14.3768 19.732 14.3768C20.628 14.3768 21.076 14.029 21.748 13.4493L22.756 14.6087C21.86 15.5362 20.964 16 19.508 16C17.268 16 15.7 14.2609 15.7 12.058Z" fill="white"/>
<path d="M11.1667 8.12H12.6667L15.8667 15.89H14.1667L13.5 14.1633H10.3333L9.66667 15.89H8L11.1667 8.12ZM12.8667 12.6439L11.8667 10.1229L10.8667 12.6439H12.8667Z" fill="white"/>
<defs>
<linearGradient id="paint0_linear" x1="13.8153" y1="28.834" x2="31.907" y2="28.834" gradientUnits="userSpaceOnUse">
<stop offset="0.1935" stop-color="#07C3F2"/>
<stop offset="0.9032" stop-color="#087CFA"/>
</linearGradient>
<linearGradient id="paint1_linear" x1="0.582439" y1="7.33057" x2="17.5588" y2="7.33057" gradientUnits="userSpaceOnUse">
<stop offset="0.1935" stop-color="#07C3F2"/>
<stop offset="0.9032" stop-color="#087CFA"/>
</linearGradient>
<linearGradient id="paint2_linear" x1="20.9717" y1="33.0157" x2="5.1185" y2="10.8909" gradientUnits="userSpaceOnUse">
<stop offset="0.0913979" stop-color="#21D789"/>
<stop offset="0.4839" stop-color="#07C3F2"/>
<stop offset="0.9032" stop-color="#087CFA"/>
</linearGradient>
<linearGradient id="paint3_linear" x1="15.9733" y1="1.139" x2="15.9733" y2="19.075" gradientUnits="userSpaceOnUse">
<stop offset="0.0842986" stop-color="#878585"/>
<stop offset="0.5377"/>
</linearGradient>
</defs>
</svg>
