<svg width="48" height="48" viewBox="0 0 48 48" fill="none" xmlns="http://www.w3.org/2000/svg"><rect id="frame" width="48" height="48" fill="none"/><path d="M44 4H4v40h40V4z" fill="url(#paint0_linear)"/><path d="M39 9H9v30h30V9z" fill="url(#paint1_linear)"/><path d="M23.25 34H12v1.929h11.25V34z" fill="#fff"/><path d="M12.536 12.75h4.5c2.678 0 4.285 1.607 4.285 3.857 0 2.572-2.035 3.964-4.5 3.964H15v3.322h-2.464V12.75zm4.393 5.679c1.178 0 1.928-.75 1.928-1.715 0-1.071-.75-1.714-2.036-1.714h-1.928v3.429h2.036z" fill="#fff"/><path d="M22.929 18.322c0-3.215 2.357-5.786 5.892-5.786 2.143 0 3.429.75 4.393 1.714l-1.607 1.822c-.857-.75-1.714-1.286-2.893-1.286-1.928 0-3.214 1.607-3.214 3.536 0 1.928 1.286 3.535 3.214 3.535 1.286 0 2.036-.535 2.893-1.285l1.607 1.607c-1.178 1.285-2.464 2.035-4.607 2.035-3.214-.107-5.678-2.678-5.678-5.892z" fill="#fff"/><defs><linearGradient id="paint0_linear" x1="43.419" y1="43.443" x2="-6.399" y2="-6.374" gradientUnits="userSpaceOnUse"><stop offset=".482" stop-color="#FCF84A"/><stop offset=".726" stop-color="#21D789"/></linearGradient><linearGradient id="paint1_linear" x1="23.999" y1="1.707" x2="23.999" y2="28.611" gradientUnits="userSpaceOnUse"><stop offset=".084" stop-color="#878585"/><stop offset=".538"/></linearGradient></defs></svg>