<svg width="32" height="32" viewBox="0 0 32 32" fill="none" xmlns="http://www.w3.org/2000/svg"><rect id="frame" width="32" height="32" fill="none"/><path d="M30 2H2v28h28V2z" fill="url(#paint0_linear)"/><path d="M26 6H6v20h20V6z" fill="url(#paint1_linear)"/><path d="M16 23H8v1h8v-1z" fill="#fff"/><path d="M8 8.116h3.136c1.792 0 2.912 1.16 2.912 2.667 0 1.855-1.344 2.782-3.024 2.782H9.792v2.32H8V8.115zm3.024 4.058c.784 0 1.344-.58 1.344-1.275 0-.812-.56-1.16-1.344-1.16H9.792v2.435h1.232z" fill="#fff"/><path d="M14.944 12.058c0-2.203 1.568-4.058 3.92-4.058 1.456 0 2.24.464 3.024 1.16l-1.008 1.275c-.56-.58-1.12-.928-1.904-.928-1.232 0-2.24 1.044-2.24 2.435s.896 2.435 2.24 2.435c.896 0 1.344-.348 2.016-.928L22 14.61c-.896.927-1.792 1.391-3.248 1.391-2.24 0-3.808-1.74-3.808-3.942z" fill="#fff"/><defs><linearGradient id="paint0_linear" x1="29.593" y1="29.61" x2="-5.279" y2="-5.262" gradientUnits="userSpaceOnUse"><stop offset=".482" stop-color="#FCF84A"/><stop offset=".726" stop-color="#21D789"/></linearGradient><linearGradient id="paint1_linear" x1="15.973" y1="1.139" x2="15.973" y2="19.075" gradientUnits="userSpaceOnUse"><stop offset=".084" stop-color="#878585"/><stop offset=".538"/></linearGradient></defs></svg>