<svg width="16" height="16" viewBox="0 0 16 16" fill="none" xmlns="http://www.w3.org/2000/svg"><rect id="frame" width="16" height="16" fill="none"/><path d="M16 0H0v16h16V0z" fill="#FCF84A"/><path d="M15 1H1v14h14V1z" fill="#000"/><path d="M9 12H3v1h6v-1z" fill="#fff"/><path d="M8 6.1C8 4.4 9.3 3 11.1 3c1.1 0 1.8.4 2.4.9l-.8 1c-.5-.4-1-.7-1.6-.7-1 0-1.7.8-1.7 1.9 0 1 .7 1.9 1.7 1.9.7 0 1.1-.3 1.6-.7l.8.8c-.6.7-1.3 1.1-2.4 1.1C9.3 9.2 8 7.8 8 6.1z" fill="#fff"/><path d="M3 3.1h2.4c1.4 0 2.2.8 2.2 2.1 0 1.4-1.1 2.1-2.4 2.1h-1v1.8H3v-6zm2.3 3c.6 0 1-.4 1-.9 0-.6-.4-.9-1-.9h-1v1.8h1z" fill="#fff"/></svg>