<svg ti:v="1" width="16" height="16" viewBox="0 0 16 16" xmlns="http://www.w3.org/2000/svg" xmlns:ti="urn:schemas-jetbrains-com:tisvg"><rect id="frame" width="16" height="16" fill="none"/><linearGradient id="a" x1=".5" y1=".008" x2=".5" y2=".994"><stop offset="0" stop-color="#385985"/><stop offset="1" stop-color="#263C59"/></linearGradient><path fill-rule="evenodd" d="M1 8a7 7 0 0 0 14 0A7 7 0 0 0 1 8z" fill="url(#a)"/><linearGradient id="b" x1=".5" y1="0" x2=".5" y2="1.007"><stop offset="0" stop-color="#91B6FF"/><stop offset="1" stop-color="#1B68FF"/></linearGradient><path fill-rule="evenodd" d="M2 8a6 6 0 0 0 12 0 6 6 0 0 0-6-6C4.688 2 2 4.687 2 8z" fill="url(#b)"/><path fill-rule="evenodd" d="M11 5H9v6h2m-4 0H5V5h2v6z" fill="#FFF"/></svg>