<svg ti:v="1" width="16" height="16" viewBox="0 0 16 16" xmlns="http://www.w3.org/2000/svg" xmlns:ti="urn:schemas-jetbrains-com:tisvg"><rect id="frame" width="16" height="16" fill="none"/><linearGradient id="a" x1=".5" y1=".012" x2=".5" y2="1"><stop offset="0" stop-color="#566980"/><stop offset="1" stop-color="#2C3641"/></linearGradient><path fill-rule="evenodd" d="M16 15H4V5h12v10z" fill="url(#a)"/><linearGradient id="b" x1=".012" y1=".5" x2="1" y2=".5"><stop offset="0" stop-color="#FFF"/><stop offset="1" stop-color="#A7BBDB"/></linearGradient><path fill-rule="evenodd" d="M5 14h10V8H5v6z" fill="url(#b)"/><linearGradient id="c" x1=".5" y1=".01" x2=".5" y2="1"><stop offset="0" stop-color="#FFF"/><stop offset="1" stop-color="#A7BBDB"/></linearGradient><path fill-rule="evenodd" d="M14 13H6V8h8v5z" fill="url(#c)"/><linearGradient id="d" x1="0" y1=".5" x2="1" y2=".5"><stop offset="0" stop-color="#6D97E7"/><stop offset="1" stop-color="#2E61C8"/></linearGradient><path fill-rule="evenodd" d="M15 8H5V6h10v2z" fill="url(#d)"/><path fill-rule="evenodd" d="M10 1H0v1.414l3 3V11h1.414L7 8.414v-3l3-3V1z" fill="#3F8187"/><linearGradient id="e" x1="0" y1=".5" x2="1" y2=".5"><stop offset="0" stop-color="#B8E3FF"/><stop offset=".399" stop-color="#F5F5F5"/><stop offset="1" stop-color="#70BCE5"/></linearGradient><path fill-rule="evenodd" d="M9 2L6 5v3l-2 2V5L1 2h8z" fill="url(#e)"/></svg>