<svg ti:v="1" width="16" height="16" viewBox="0 0 16 16" xmlns="http://www.w3.org/2000/svg" xmlns:ti="urn:schemas-jetbrains-com:tisvg"><rect id="frame" width="16" height="16" fill="none"/><linearGradient id="a" x1=".5" y1=".005" x2=".5" y2="1.01"><stop offset="0" stop-color="#465668"/><stop offset="1" stop-color="#1D232A"/></linearGradient><path fill-rule="evenodd" d="M0 8a8 8 0 0 0 8 8A8 8 0 0 0 8 0a8 8 0 0 0-8 8z" fill="url(#a)"/><linearGradient id="b" x1=".5" y1="0" x2=".5" y2="1.012"><stop offset="0" stop-color="#9AB9D9"/><stop offset="1" stop-color="#959FA8"/></linearGradient><path fill-rule="evenodd" d="M1 8c0 3.865 3.135 7 7 7s7-3.135 7-7-3.135-7-7-7-7 3.135-7 7z" fill="url(#b)"/><path fill-rule="evenodd" d="M12.168 5.245l-6.922 6.924C6.036 12.691 6.98 13 8 13a5 5 0 0 0 5-5 4.977 4.977 0 0 0-.832-2.755zm-8.336 5.51A4.98 4.98 0 0 1 3 8a5 5 0 0 1 5-5c1.02 0 1.964.308 2.754.831l-6.922 6.924z" fill="#FFF"/></svg>