<svg ti:v="1" width="16" height="16" viewBox="0 0 16 16" xmlns="http://www.w3.org/2000/svg" xmlns:ti="urn:schemas-jetbrains-com:tisvg"><rect id="frame" width="16" height="16" fill="none"/><g fill-rule="evenodd"><path d="M16 8A8 8 0 1 1 0 8a8 8 0 0 1 16 0z" fill="#F4F4F4"/><path d="M8 1a7 7 0 1 0 0 14A7 7 0 0 0 8 1z" fill="#313131"/><path d="M12.9 9h-1.945c.027-.326.045-.658.045-1 0-.342-.018-.674-.045-1H12.9a5.062 5.062 0 0 1 0 2zm-3.003 3.622c.417-.687.745-1.583.93-2.622h1.751a5.013 5.013 0 0 1-2.68 2.622zM3.421 10h1.753c.184 1.039.512 1.936.93 2.622A5.015 5.015 0 0 1 3.42 10zm-.32-3h1.944C5.017 7.326 5 7.658 5 8c0 .342.017.674.045 1H3.1a5.062 5.062 0 0 1 0-2zm3.002-3.622c-.417.686-.745 1.583-.929 2.622H3.421a5.015 5.015 0 0 1 2.682-2.622zM8 3c.62 0 1.447 1.125 1.812 3H6.187C6.552 4.125 7.38 3 8 3zM6.047 9C6.02 8.681 6 8.35 6 8s.02-.681.047-1h3.905c.028.319.048.65.048 1s-.02.681-.048 1M8 13c-.62 0-1.448-1.125-1.813-3h3.625C9.447 11.875 8.62 13 8 13zm4.578-7h-1.752c-.184-1.039-.512-1.935-.929-2.622A5.013 5.013 0 0 1 12.578 6z" fill="#EBEBEB"/></g></svg>