<svg ti:v="1" width="16" height="16" viewBox="0 0 16 16" xmlns="http://www.w3.org/2000/svg" xmlns:ti="urn:schemas-jetbrains-com:tisvg"><rect id="frame" width="16" height="16" fill="none"/><linearGradient id="a" x1=".5" y1=".014" x2=".5" y2="1"><stop offset="0" stop-color="#2064A6"/><stop offset="1" stop-color="#0E365D"/></linearGradient><path fill-rule="evenodd" d="M0 8a8 8 0 0 0 16 0A8 8 0 0 0 0 8z" fill="url(#a)"/><linearGradient id="b" x1=".5" y1=".005" x2=".5" y2="1.005"><stop offset="0" stop-color="#56BFFF"/><stop offset="1" stop-color="#009FFF"/></linearGradient><path fill-rule="evenodd" d="M1 8a7 7 0 1 0 14 0A7 7 0 1 0 1 8z" fill="url(#b)"/><linearGradient id="c" x1=".5" y1="-.002" x2=".5" y2="1.004"><stop offset="0" stop-color="#F5FFF7"/><stop offset="1" stop-color="#B5FFFD"/></linearGradient><path fill-rule="evenodd" d="M6.188 6h3.624C9.448 4.125 8.619 3 8 3S6.552 4.125 6.188 6zm4.639 0h1.751a5.015 5.015 0 0 0-2.68-2.622c.416.687.745 1.583.929 2.622zM3.422 6h1.752c.184-1.039.513-1.936.929-2.622A5.014 5.014 0 0 0 3.422 6zm7.533 1c.027.326.045.658.045 1 0 .342-.018.674-.045 1h1.944a4.988 4.988 0 0 0 0-2M6.048 7C6.02 7.32 6 7.651 6 8c0 .35.02.68.048 1h3.904c.028-.32.048-.65.048-1 0-.349-.02-.68-.048-1M3.101 7a4.988 4.988 0 0 0 0 2h1.944A12.065 12.065 0 0 1 5 8c0-.342.018-.674.045-1m5.782 3c-.184 1.039-.513 1.935-.929 2.622A5.012 5.012 0 0 0 12.578 10m-6.39 0c.364 1.875 1.193 3 1.812 3s1.448-1.125 1.812-3m-6.39 0a5.01 5.01 0 0 0 2.681 2.622c-.416-.686-.745-1.583-.929-2.622H3.422z" fill="url(#c)"/></svg>