<svg ti:v="1" width="16" height="16" viewBox="0 0 16 16" xmlns="http://www.w3.org/2000/svg" xmlns:ti="urn:schemas-jetbrains-com:tisvg"><rect id="frame" width="16" height="16" fill="none"/><g fill-rule="evenodd"><path d="M13.772 9l1.229-6.954V1h-3.386L3.73 9.55l-.5 3.45H9.22L9 14.129V16h3.518l.542-3h2.057L16 9h-2.229z" fill="#242424"/><path d="M7.156 10l4.742-5.244L10.816 10m3.939 0H12.58l1.412-8h-1.94l-7.376 8-.29 2h6.044l-.581 3h1.834l.543-3h2.087l.44-2z" fill="#E8A754"/><path d="M1 12V1h4.637C7 1.057 9.5 1.964 9.5 5S7 8.943 5.679 8.999H5V12H1z" fill="#242424"/><path d="M5.407 6H4V4h1.407c.615 0 1.114.448 1.114 1s-.499 1-1.114 1zm.23-4H2v9h2V8h1.636S8.5 7.88 8.5 5 5.636 2 5.636 2z" fill="#E8A754"/></g></svg>