<svg ti:v="1" width="16" height="16" viewBox="0 0 16 16" xmlns="http://www.w3.org/2000/svg" xmlns:ti="urn:schemas-jetbrains-com:tisvg"><rect id="frame" width="16" height="16" fill="none"/><linearGradient id="a" x1=".5" y1="0" x2=".5" y2="1"><stop offset="0" stop-color="#703C00"/><stop offset="1" stop-color="#582400"/></linearGradient><path fill-rule="evenodd" d="M13.772 9L15 2.046V1h-3.386L3.731 9.55l-.5 3.45h5.988L9 14.129V16h3.519l.543-3h2.055L16 9h-2.228z" fill="url(#a)"/><linearGradient id="b" x1=".5" y1="0" x2=".5" y2="1"><stop offset="0" stop-color="#FFDE3F"/><stop offset="1" stop-color="#D58400"/></linearGradient><path fill-rule="evenodd" d="M7.156 10l4.742-5.244L10.816 10m3.939 0H12.58l1.412-8h-1.94l-7.376 8-.29 2h6.045l-.581 3h1.833l.544-3h2.087l.441-2z" fill="url(#b)"/><linearGradient id="c" x1=".5" y1="0" x2=".5" y2="1"><stop offset="0" stop-color="#703C00"/><stop offset="1" stop-color="#582400"/></linearGradient><path fill-rule="evenodd" d="M1 1v11h4V8.999h.678C7 8.944 9.5 8.036 9.5 5S7 1.057 5.637 1H1z" fill="url(#c)"/><linearGradient id="d" x1=".5" y1="0" x2=".5" y2="1"><stop offset="0" stop-color="#FFDE3F"/><stop offset="1" stop-color="#D58400"/></linearGradient><path fill-rule="evenodd" d="M4 2H2v9h2V8h1.636S8.5 7.88 8.5 5 5.636 2 5.636 2M4 4h1.408c.614 0 1.113.447 1.113 1 0 .552-.499 1-1.113 1H4V4z" fill="url(#d)"/></svg>