<svg ti:v="1" width="16" height="16" viewBox="0 0 16 16" xmlns="http://www.w3.org/2000/svg" xmlns:ti="urn:schemas-jetbrains-com:tisvg"><rect id="frame" width="16" height="16" fill="none"/><linearGradient id="a" x1=".5" y1=".022" x2=".5" y2=".992"><stop offset="0" stop-color="#91B6FF"/><stop offset="1" stop-color="#6A95E7"/></linearGradient><path fill-rule="evenodd" d="M3.174 4.216C1.321 4.788 0 6.514 0 8.5 0 10.981 2.018 13 4.5 13H12c2.206 0 4-1.794 4-4a3.978 3.978 0 0 0-2-3.451V5.5C14 2.468 11.532 0 8.5 0a5.466 5.466 0 0 0-5.326 4.216z" fill="url(#a)"/><linearGradient id="b" x1=".5" y1=".008" x2=".5" y2="1"><stop offset="0" stop-color="#FFF"/><stop offset="1" stop-color="#C2DAFF"/></linearGradient><path fill-rule="evenodd" d="M4.291 4.012c1.661.155 2.448 1.274 2.645 1.985A3.462 3.462 0 0 0 4.5 5c-.154 0-.304.01-.451.03l-.003.016C2.331 5.271 1 6.722 1 8.5A3.5 3.5 0 0 0 4.5 12H12a3 3 0 0 0 3-3 2.967 2.967 0 0 0-1.254-2.423c-.293.704-1.028 1.517-1.758 1.755C12.672 7.734 13 6.657 13 5.5A4.5 4.5 0 0 0 8.5 1C6.541 1 4.904 2.264 4.291 4.012z" fill="url(#b)"/><linearGradient id="c" x1=".5" y1=".006" x2=".5" y2="1.013"><stop offset="0" stop-color="#37AD0D"/><stop offset="1" stop-color="#006F33"/></linearGradient><path fill-rule="evenodd" d="M5 6v10h1.352L12 11.481v-.961L6.352 6H5z" fill="url(#c)"/><linearGradient id="d" x1=".5" y1="-.015" x2=".5" y2="1.008"><stop offset="0" stop-color="#8DFF62"/><stop offset="1" stop-color="#29C771"/></linearGradient><path fill-rule="evenodd" d="M6 15l5-4-5-4v8z" fill="url(#d)"/></svg>