<svg ti:v="1" width="16" height="16" viewBox="0 0 16 16" xmlns="http://www.w3.org/2000/svg" xmlns:ti="urn:schemas-jetbrains-com:tisvg"><rect id="frame" width="16" height="16" fill="none"/><g fill-rule="evenodd"><path d="M15 15H5V5h10v10z" fill="#F4F4F4"/><path d="M6 14h8V6H6v8z" fill="#313131"/><path d="M13 13H7V7h6v6z" fill="#EBEBEB"/><path d="M9.501 10.293L8.355 9.147l-.707.707 1.853 1.853L13 8.207V7h-.207l-3.292 3.293z" fill="#313131"/><path d="M11 11H1V1h10v10z" fill="#F4F4F4"/><path d="M2 10h8V2H2v8z" fill="#313131"/><path d="M9 9H3V3h6v6z" fill="#EBEBEB"/><path d="M5.501 6.293L4.355 5.147l-.707.707 1.853 1.853L9 4.207V3h-.207L5.501 6.293z" fill="#313131"/></g></svg>