<svg ti:v="1" width="16" height="16" viewBox="0 0 16 16" xmlns="http://www.w3.org/2000/svg" xmlns:ti="urn:schemas-jetbrains-com:tisvg"><rect id="frame" width="16" height="16" fill="none"/><linearGradient id="a" x1=".013" y1=".5" x2="1" y2=".5"><stop offset="0" stop-color="#3F5475"/><stop offset="1" stop-color="#2D3F58"/></linearGradient><path fill-rule="evenodd" d="M7 15H4V6h3v9z" fill="url(#a)"/><linearGradient id="b" x1=".5" y1=".041" x2=".5" y2="1.017"><stop offset="0" stop-color="#E6F6FF"/><stop offset="1" stop-color="#66BFFF"/></linearGradient><path fill-rule="evenodd" d="M5 15h1V6H5v9z" fill="url(#b)"/><linearGradient id="c" x1=".5" y1="0" x2=".5" y2="1"><stop offset="0" stop-color="#7C2C00"/><stop offset="1" stop-color="#470000"/></linearGradient><path fill-rule="evenodd" d="M3 1h5v5H3V1z" fill="url(#c)"/><linearGradient id="d" x1=".5" y1=".021" x2=".5" y2="1"><stop offset="0" stop-color="#FF823F"/><stop offset="1" stop-color="#FF4141"/></linearGradient><path fill-rule="evenodd" d="M7 5H4V2h3v3z" fill="url(#d)"/><linearGradient id="e" x1=".013" y1=".5" x2="1" y2=".5"><stop offset="0" stop-color="#3F5475"/><stop offset="1" stop-color="#2D3F58"/></linearGradient><path fill-rule="evenodd" d="M7 15H4v-3.927l6-3V6h3v3.927l-6 3V15z" fill="url(#e)"/><linearGradient id="f" x1=".5" y1=".041" x2=".5" y2="1.017"><stop offset="0" stop-color="#E6F6FF"/><stop offset="1" stop-color="#66BFFF"/></linearGradient><path fill-rule="evenodd" d="M6 15H5v-3.31l6-3V6h1v3.309l-6 3V15z" fill="url(#f)"/><linearGradient id="g" x1=".5" y1="0" x2=".5" y2="1"><stop offset="0" stop-color="#703C00"/><stop offset="1" stop-color="#582400"/></linearGradient><path fill-rule="evenodd" d="M9 1h5v5H9V1z" fill="url(#g)"/><linearGradient id="h" x1=".5" y1="0" x2=".5" y2="1"><stop offset="0" stop-color="#FFDE3F"/><stop offset="1" stop-color="#D59C00"/></linearGradient><path fill-rule="evenodd" d="M13 5h-3V2h3v3z" fill="url(#h)"/></svg>