<svg ti:v="1" width="16" height="16" viewBox="0 0 16 16" xmlns="http://www.w3.org/2000/svg" xmlns:ti="urn:schemas-jetbrains-com:tisvg"><rect id="frame" width="16" height="16" fill="none"/><g fill-rule="evenodd"><path d="M7 15H4V6h3v9z" fill="#242424"/><path d="M5 15h1V6H5v9z" fill="#C3C3C3"/><path d="M3 1h5v5H3V1z" fill="#242424"/><path d="M7 5H4V2h3v3z" fill="#C3C3C3"/><path d="M7 15H4v-3.927l6-3V6h3v3.927l-6 3V15z" fill="#242424"/><path d="M6 15H5v-3.31l6-3V6h1v3.309l-6 3V15z" fill="#C3C3C3"/><path d="M9 1h5v5H9V1z" fill="#242424"/><path d="M13 5h-3V2h3v3z" fill="#C3C3C3"/></g></svg>