<svg ti:v="1" width="16" height="16" viewBox="0 0 16 16" xmlns="http://www.w3.org/2000/svg" xmlns:ti="urn:schemas-jetbrains-com:tisvg"><rect id="frame" width="16" height="16" fill="none"/><g fill-rule="evenodd"><path d="M16 14H1V1h15v13z" fill="#F4F4F4"/><path d="M2 13h7V5H2v8z" fill="#313131"/><path d="M9 13h6V5H9v8z" fill="#313131"/><path d="M9 12H3V5h6v7z" fill="#EBEBEB"/><path d="M14 12H9V5h5v7z" fill="#EBEBEB"/><path d="M15 5H2V2h13v3z" fill="#313131"/><path d="M8 4h1V3H8m0 3h1V5H8m0 3h1V7H8m0 3h1V9H8m0 3h1v-1.001H8V12z" fill="#313131"/><path d="M8 3h1V1.999H8M8 5h1V4H8m0 3h1V6H8m0 3h1V8H8m0 3h1v-1H8m0 3h1v-1H8v1z" fill="#EBEBEB"/><path d="M8 2h1V1H8m0 13h1v-1H8v1z" fill="#F4F4F4"/></g></svg>