<svg ti:v="1" width="16" height="16" viewBox="0 0 16 16" xmlns="http://www.w3.org/2000/svg" xmlns:ti="urn:schemas-jetbrains-com:tisvg"><rect id="frame" width="16" height="16" fill="none"/><linearGradient id="a" x1=".5" y1="0" x2=".5" y2="1.005"><stop offset="0" stop-color="#566980"/><stop offset="1" stop-color="#2C3641"/></linearGradient><path fill-rule="evenodd" d="M16 14H1V1h15v13z" fill="url(#a)"/><linearGradient id="b" x1="0" y1=".5" x2="1" y2=".5"><stop offset="0" stop-color="#FFF"/><stop offset="1" stop-color="#C2DAFF"/></linearGradient><path fill-rule="evenodd" d="M2 13h7V5H2v8z" fill="url(#b)"/><linearGradient id="c" x1=".004" y1=".5" x2="1" y2=".5"><stop offset="0" stop-color="#FFDB9C"/><stop offset="1" stop-color="#FBC96E"/></linearGradient><path fill-rule="evenodd" d="M9 13h6V5H9v8z" fill="url(#c)"/><linearGradient id="d" x1=".5" y1=".008" x2=".5" y2="1"><stop offset="0" stop-color="#FFF"/><stop offset="1" stop-color="#C2DAFF"/></linearGradient><path fill-rule="evenodd" d="M9 12H3V5h6v7z" fill="url(#d)"/><linearGradient id="e" x1=".5" y1=".004" x2=".5" y2="1"><stop offset="0" stop-color="#FFFBF5"/><stop offset="1" stop-color="#FBBA46"/></linearGradient><path fill-rule="evenodd" d="M14 12H9V5h5v7z" fill="url(#e)"/><linearGradient id="f" x1="0" y1=".5" x2="1" y2=".5"><stop offset="0" stop-color="#6D97E7"/><stop offset="1" stop-color="#2E61C8"/></linearGradient><path fill-rule="evenodd" d="M15 5H2V2h13v3z" fill="url(#f)"/><path fill-rule="evenodd" d="M8 4h1.001V3H8m0 3h1.001V5H8m0 3h1.001V7H8m0 3h1.001V9H8m0 3h1.001v-1.001H8V12z" fill="#FFF"/><linearGradient id="g" x1=".499" y1="0" x2=".499" y2="1.005"><stop offset="0" stop-color="#566980"/><stop offset="1" stop-color="#2C3641"/></linearGradient><path fill-rule="evenodd" d="M8 3h1.001V1.999H8M8 5h1.001V4H8m0 3h1.001V6H8m0 3h1.001V8H8m0 3h1.001v-1H8m0 3h1.001v-1H8v1z" fill="url(#g)"/><path fill-rule="evenodd" d="M8 2h1.001V1H8m0 13h1.001v-1H8v1z" fill="#FFF"/></svg>