<svg ti:v="1" width="16" height="16" viewBox="0 0 16 16" xmlns="http://www.w3.org/2000/svg" xmlns:ti="urn:schemas-jetbrains-com:tisvg"><rect id="frame" width="16" height="16" fill="none"/><linearGradient id="a" x1=".5" y1="0" x2=".5" y2="1.005"><stop offset="0" stop-color="#566980"/><stop offset="1" stop-color="#2C3641"/></linearGradient><path fill-rule="evenodd" d="M16 14H1V1h15v13z" fill="url(#a)"/><linearGradient id="b" x1="0" y1=".5" x2="1" y2=".5"><stop offset="0" stop-color="#FFF"/><stop offset="1" stop-color="#A7BBDB"/></linearGradient><path fill-rule="evenodd" d="M2 9h13V5H2v4z" fill="url(#b)"/><linearGradient id="c" x1=".004" y1=".5" x2="1" y2=".5"><stop offset="0" stop-color="#FFF6E6"/><stop offset="1" stop-color="#FBC96E"/></linearGradient><path fill-rule="evenodd" d="M2 13h13V9H2v4z" fill="url(#c)"/><linearGradient id="d" x1=".5" y1=".008" x2=".5" y2="1"><stop offset="0" stop-color="#FFF"/><stop offset="1" stop-color="#C2DAFF"/></linearGradient><path fill-rule="evenodd" d="M14 9H3V5h11v4z" fill="url(#d)"/><linearGradient id="e" x1="0" y1=".5" x2="1" y2=".5"><stop offset="0" stop-color="#6D97E7"/><stop offset="1" stop-color="#2E61C8"/></linearGradient><path fill-rule="evenodd" d="M15 5H2V2h13v3z" fill="url(#e)"/><linearGradient id="f" x1=".5" y1=".004" x2=".5" y2="1"><stop offset="0" stop-color="#FFD382"/><stop offset="1" stop-color="#FBBA46"/></linearGradient><path fill-rule="evenodd" d="M14 12H3V9h11v3z" fill="url(#f)"/><path fill-rule="evenodd" d="M13 9h1V8h-1m-2 1h1V8h-1M9 9h1V8H9M7 9h1V8H7M5 9h1V8H5M3 9h1V8H3v1z" fill="#FFF"/><path fill-rule="evenodd" d="M15 9h1V8h-1M1 9h1V8H1v1z" fill="#FFF"/><linearGradient id="g" x1=".5" y1="0" x2=".5" y2="1.005"><stop offset="0" stop-color="#566980"/><stop offset="1" stop-color="#2C3641"/></linearGradient><path fill-rule="evenodd" d="M14 9h1V8h-1m-2 1h1V8h-1m-2 1h1V8h-1M8 9h1.001V8H8M6 9h1V8H6M4 9h1V8H4M2 9h1V8H2v1z" fill="url(#g)"/></svg>