<svg ti:v="1" width="16" height="16" viewBox="0 0 16 16" xmlns="http://www.w3.org/2000/svg" xmlns:ti="urn:schemas-jetbrains-com:tisvg"><rect id="frame" width="16" height="16" fill="none"/><g fill-rule="evenodd"><path d="M0 1h16v14H0V1z" fill="#F4F4F4"/><path d="M15 14H1V2h14v12z" fill="#01509E"/><path d="M6.402 7.123c-.398.03-.798.082-1.198.006-.428-.082-.792-.246-.51-.645.197-.281.47-.448.741-.603.94-.54 1.93-.921 2.928-1.275a36.525 36.525 0 0 1 4.308-1.215 39.606 39.606 0 0 1 2.33-.451V2h-.584s-3.4.767-7.092 1.919C3.695 5.052 2.085 5.835 1 6.314v3.074c.625-.005 1.247-.082 1.87-.143 1.035-.101 2.898-.337 3.762-.44 1.267-.15 3.374-.413 4.646-.36 1.024.042 1.368.613.103 1.372-1.828 1.095-5.5 2.098-7.512 2.54-.332.074-2.477.524-2.869.533v1.068c1.701-.363 3.076-.604 6.383-1.567 5.358-1.561 7.1-2.533 7.617-2.704v-3.46c-.732.055-1.463.115-2.192.203-.037.005-4.886.579-6.406.693z" fill="#EBEBEB"/></g></svg>