<svg ti:v="1" width="16" height="16" viewBox="0 0 16 16" xmlns="http://www.w3.org/2000/svg" xmlns:ti="urn:schemas-jetbrains-com:tisvg"><rect id="frame" width="16" height="16" fill="none"/><linearGradient id="a" x1=".5" y1="0" x2=".5" y2="1"><stop offset="0" stop-color="#663787"/><stop offset="1" stop-color="#25093B"/></linearGradient><path fill-rule="evenodd" d="M11.876 0h-.596L6.113 4.72 2.43 2h-.246L0 3.774v7.452L2.184 13h.246l3.683-2.72L11.28 15h.596L16 13.21V1.79L11.876 0z" fill="url(#a)"/><linearGradient id="b" x1=".5" y1="0" x2=".5" y2="1"><stop offset="0" stop-color="#DEB3FF"/><stop offset="1" stop-color="#B352FF"/></linearGradient><path fill-rule="evenodd" d="M11.668 1L6.18 6.013 2.33 3.169 1 4.25v6.5l1.33 1.081 3.85-2.844L11.668 14 15 12.554V2.446M2.33 9.531V5.469L4.556 7.5M12 10L8.182 7.5 12 5v5z" fill="url(#b)"/></svg>