<svg xmlns="http://www.w3.org/2000/svg" width="16" height="16" viewBox="0 0 16 16"><rect id="frame" width="16" height="16" fill="none"/><g fill="none" fill-rule="evenodd"><path fill="#62B543" fill-opacity=".7" d="M10.363 11.054c.263.53.656.983 1.137 1.319v1.508c-2.212.723-5.033.282-7.053.374 0 0-.504.028-1.013.112 0 0 .193-.082.438-.167 2-.69 2.946-.83 4.163-1.455a9.958 9.958 0 0 0 2.328-1.69zm-.27-.747c-.933.744-1.967 1.333-2.96 1.699-1.65.607-4.63 1.2-4.63 1.201l-.121-.064C.354 12.157.298 7.77 3.979 6.355c1.614-.62 3.158-.279 4.902-.695 1.86-.442 4.015-1.84 4.89-3.66.412 1.219.858 2.725 1.082 4.271a3.5 3.5 0 0 0-4.76 4.036z"/><path fill="#9AA7B0" d="M12.667 11.854A2.496 2.496 0 0 1 11 9.5C11 8.12 12.12 7 13.5 7S16 8.12 16 9.5a2.496 2.496 0 0 1-1.667 2.354V13.5H16V15h-1.667v1h-1.666v-4.146zM14.333 9.5a.836.836 0 0 0-.833-.833.836.836 0 0 0-.833.833c0 .458.375.833.833.833a.836.836 0 0 0 .833-.833z"/></g></svg>