<svg xmlns="http://www.w3.org/2000/svg" width="16" height="16" viewBox="0 0 16 16">
  <g fill="none" fill-rule="evenodd">
    <path fill="#62B543" fill-opacity=".7" d="M10.3632377,11.0543969 C10.6260471,11.5837263 11.0188977,12.0370756 11.5,12.3726554 L11.5,13.8808387 C9.28782923,14.6039211 6.4671614,14.1632501 4.44717245,14.2546012 C4.44717245,14.2546012 3.94283089,14.2832335 3.43439732,14.3670851 C3.43439732,14.3670851 3.62672229,14.2852786 3.87224354,14.2004045 C5.87221867,13.5091403 6.81849847,13.3700694 8.03485163,12.7452728 C8.83831353,12.3336337 9.64063542,11.7514446 10.3632377,11.0543969 Z M10.0935392,10.3071995 C9.16048291,11.0510626 8.12629744,11.6395194 7.13256106,12.0059474 C5.4834767,12.61336 2.50243959,13.2064565 2.50243959,13.2074791 L2.38172498,13.1430565 C0.354128707,12.1572892 0.297863422,7.76939754 3.97863607,6.35516911 C5.59293826,5.73446293 7.13665308,6.07600472 8.88087692,5.65981457 C10.7417233,5.21805992 12.8961723,3.81917019 13.7718647,2 C14.1832319,3.21861294 14.6289894,4.72494591 14.8533378,6.27124711 C14.4370158,6.09653728 13.9797817,6 13.5,6 C11.5670034,6 10,7.56700338 10,9.5 C10,9.77781499 10.0323682,10.04807 10.0935392,10.3071995 Z"/>
    <path fill="#9AA7B0" d="M13.8541667,10.6666667 C13.5125,9.69583333 12.5875,9 11.5,9 C10.1208333,9 9,10.1208333 9,11.5 C9,12.8791667 10.1208333,14 11.5,14 C12.5875,14 13.5125,13.3041667 13.8541667,12.3333333 L15.5,12.3333333 L15.5,14 L17,14 L17,12.3333333 L18,12.3333333 L18,10.6666667 L13.8541667,10.6666667 Z M11.5,12.3333333 C11.0416667,12.3333333 10.6666667,11.9583333 10.6666667,11.5 C10.6666667,11.0416667 11.0416667,10.6666667 11.5,10.6666667 C11.9583333,10.6666667 12.3333333,11.0416667 12.3333333,11.5 C12.3333333,11.9583333 11.9583333,12.3333333 11.5,12.3333333 Z" transform="matrix(0 1 1 0 2 -2)"/>
  </g>
</svg>
