<svg xmlns="http://www.w3.org/2000/svg" width="16" height="16" viewBox="0 0 16 16"><rect id="frame" width="16" height="16" fill="none"/><g fill="none" fill-rule="evenodd"><path fill="#9AA7B0" fill-opacity=".8" d="M15 7.07A4.2 4.2 0 0 0 9.07 13H1V2.05c0-.026.023-.05.051-.05h3.928c.553 0 1.326.32 1.717.71L7.984 4H15v3.07z"/><path fill="#9AA7B0" d="M10.286 14.071h3.857v1h-3.857z"/><path fill="#9AA7B0" d="M10.607 15.357h3.214a.643.643 0 0 1-.642.643H11.25a.643.643 0 0 1-.643-.643z"/><path fill="#F4AF3D" fill-opacity=".7" d="M15.429 9.7c0 2.571-1.286 2.423-1.286 3.729h-3.857C10.286 12.163 9 12.27 9 9.7 9 8.28 10.44 7 12.214 7c1.775 0 3.215 1.28 3.215 2.7z"/></g></svg>