<svg xmlns="http://www.w3.org/2000/svg" width="16" height="16" viewBox="0 0 16 16"><rect id="frame" width="16" height="16" fill="none"/><g fill="none" fill-rule="evenodd"><path fill="#9AA7B0" d="M5 12h6v1H5z"/><path fill="#9AA7B0" d="M5.5 14h5a1 1 0 0 1-1 1h-3a1 1 0 0 1-1-1z"/><path fill="#F4AF3D" fill-opacity=".7" d="M13 5.2c0 4-2 3.769-2 5.8H5c0-1.969-2-1.8-2-5.8C3 2.991 5.239 1 8 1s5 1.991 5 4.2z"/><path fill="#231F20" fill-opacity=".7" d="M8.153 9a3.593 3.593 0 0 1-2.433-.933l.617-.734c.558.484 1.125.759 1.841.759.634 0 1.034-.3 1.034-.734v-.016c0-.417-.234-.642-1.317-.892-1.242-.3-1.942-.667-1.942-1.742v-.016c0-1 .834-1.692 1.992-1.692.85 0 1.525.258 2.117.733l-.55.775c-.525-.391-1.05-.6-1.584-.6-.6 0-.95.309-.95.692v.017c0 .45.267.65 1.392.916 1.233.3 1.867.742 1.867 1.709v.016C10.237 8.35 9.378 9 8.153 9z"/></g></svg>