<svg xmlns="http://www.w3.org/2000/svg" width="16" height="16" viewBox="0 0 16 16">
  <g fill="none" fill-rule="evenodd">
    <path fill="#40B6E0" d="M14.1571853,8.79870347 C12.6940472,8.01333758 10.9696617,8.05355118 9.73174686,8.9633277 L8.8242,8.0693 L11.9122,4.8883 L15.0002,7.9303 L14.1571853,8.79870347 Z"/>
    <polygon fill="#9AA7B0" points="4.912 4.18 8 7.223 11.088 4.042 8 1"/>
    <polygon fill="#40B6E0" points="1 8.069 4.088 11.111 7.176 7.93 4.088 4.888"/>
    <path fill="#9AA7B0" d="M8.96569741,9.72852621 C8.05089363,10.9703728 8.012419,12.7031076 8.80577866,14.170318 L8.0001,15 L4.9121,11.958 L8.0001,8.777 L8.96569741,9.72852621 Z"/>
    <path fill="#935E2D" fill-opacity=".7" d="M.6572 1.188C-.4708 2.588-.0688 4.384 1.2742 5.726 2.6162 7.069 4.4122 7.471 5.8122 6.343L.6572 1.188zM6.3437 5.812C7.4717 4.412 7.0687 2.616 5.7267 1.274 4.3837-.069 2.5877-.472 1.1877.657L6.3437 5.812z" transform="translate(9 9)"/>
  </g>
</svg>
