<svg xmlns="http://www.w3.org/2000/svg" width="16" height="16" viewBox="0 0 16 16"><rect id="frame" width="16" height="16" fill="none"/><g fill="none" fill-rule="evenodd"><path fill="#40B6E0" d="M14.157 8.799c-1.463-.786-3.187-.745-4.425.164l-.908-.894 3.088-3.18L15 7.93l-.843.869z"/><path fill="#9AA7B0" d="M4.912 4.18L8 7.223l3.088-3.181L8 1z"/><path fill="#40B6E0" d="M1 8.069l3.088 3.042L7.176 7.93 4.088 4.888z"/><path fill="#9AA7B0" d="M8.966 9.729c-.915 1.241-.954 2.974-.16 4.441L8 15l-3.088-3.042L8 8.777l.966.952z"/><path fill="#935E2D" fill-opacity=".7" d="M9.657 10.188c-1.128 1.4-.726 3.196.617 4.538 1.342 1.343 3.138 1.745 4.538.617l-5.155-5.155zm5.687 4.624c1.128-1.4.725-3.196-.617-4.538-1.343-1.343-3.14-1.746-4.54-.617l5.157 5.155z"/></g></svg>