<svg xmlns="http://www.w3.org/2000/svg" width="13" height="13" viewBox="0 0 13 13">
  <g fill="none" fill-rule="evenodd">
    <path fill="#AFB1B3" d="M11,5 L4,5 L4,11 L1,11 L1,1 L11,1 L11,5 Z"/>
    <path fill="#AFB1B3" d="M9.60000038,11 L9.60000038,12 L12.1000004,12 L12.1000004,11 L10.6000004,11 L10.6000004,10 L11.6000004,10 L11.6000004,9 L10.6000004,9 L10.6000004,8 L12.1000004,8 L12.1000004,7 L9.60000038,7 L9.60000038,8 L9.60000038,9 L9.60000038,10 L9.60000038,11 Z M6,11 L6,12 L8.5,12 L8.5,11 L7,11 L7,10 L8,10 L8,9 L7,9 L7,8 L8.5,8 L8.5,7 L6,7 L6,8 L6,9 L6,10 L6,11 Z M5,6 L13,6 L13,13 L5,13 L5,6 Z"/>
  </g>
</svg>
