<svg xmlns="http://www.w3.org/2000/svg" width="16" height="16" viewBox="0 0 16 16"><rect id="frame" width="16" height="16" fill="none"/><g fill="none" fill-rule="evenodd"><path fill="#9AA7B0" d="M12.6 14v1h2.5v-1h-1.5v-1h1v-1h-1v-1h1.5v-1h-2.5v4zM9 14v1h2.5v-1H10v-1h1v-1h-1v-1h1.5v-1H9v4zM8 9h8v7H8V9z"/><path fill="#40B6E0" d="M8.891 8l3.021-3.112L15 7.93l-.067.07H8.89z"/><path fill="#9AA7B0" d="M4.912 4.18L8 7.223l3.088-3.181L8 1z"/><path fill="#40B6E0" d="M1 8.069l3.088 3.042L7.176 7.93 4.088 4.888z"/><path fill="#9AA7B0" d="M7 9.807v4.208l-2.088-2.057L7 9.808z"/></g></svg>