<svg xmlns="http://www.w3.org/2000/svg" width="16" height="16" viewBox="0 0 16 16"><rect id="frame" width="16" height="16" fill="none"/><g fill="none" fill-rule="evenodd"><path fill="#9AA7B0" d="M12 8c-2.208 0-4 1.792-4 4s1.792 4 4 4 4-1.792 4-4-1.792-4-4-4zm-.4 7.172A3.195 3.195 0 0 1 8.8 12c0-.248.032-.484.084-.716L10.8 13.2v.4c0 .44.36.8.8.8v.772zm2.76-1.016a.794.794 0 0 0-.76-.556h-.4v-1.2c0-.22-.18-.4-.4-.4h-2.4v-.8h.8c.22 0 .4-.18.4-.4V10h.8c.44 0 .8-.36.8-.8v-.164c1.172.476 2 1.624 2 2.964 0 .832-.32 1.588-.84 2.156z"/><path fill="#40B6E0" d="M14.961 7.97A4.978 4.978 0 0 0 12 7a4.98 4.98 0 0 0-3.138 1.107l-.038-.038 3.088-3.18L15 7.93l-.039.04z"/><path fill="#9AA7B0" d="M4.912 4.18L8 7.223l3.088-3.181L8 1z"/><path fill="#40B6E0" d="M1 8.069l3.088 3.042L7.176 7.93 4.088 4.888z"/><path fill="#9AA7B0" d="M8.098 8.873A4.979 4.979 0 0 0 7 12c0 1.125.371 2.163.998 2.998l-3.086-3.04L8 8.777l.098.096z"/></g></svg>