<svg ti:v="1" width="16" height="16" viewBox="0 0 16 16" xmlns="http://www.w3.org/2000/svg" xmlns:ti="urn:schemas-jetbrains-com:tisvg"><rect id="frame" width="16" height="16" fill="none"/><linearGradient id="a" x1="0" y1=".5" x2="1" y2=".5"><stop offset="0" stop-color="#587E96"/><stop offset="1" stop-color="#21454E"/></linearGradient><path fill-rule="evenodd" d="M4 3.5v6c0 1.995 2.579 3.5 6 3.5s6-1.505 6-3.5v-6C16 1.505 13.421 0 10 0S4 1.505 4 3.5z" fill="url(#a)"/><linearGradient id="b" x1="0" y1=".5" x2="1" y2=".5"><stop offset="0" stop-color="#D4FFFD"/><stop offset="1" stop-color="#80D4FF"/></linearGradient><path fill-rule="evenodd" d="M5 3.5C5 4.88 7.238 6 10 6s5-1.12 5-2.5C15 2.119 12.762 1 10 1S5 2.119 5 3.5zM10 8c-2.419 0-4.436-.86-4.899-2A1.313 1.313 0 0 0 5 6.5C5 7.88 7.238 9 10 9s5-1.12 5-2.5c0-.172-.035-.338-.101-.5-.463 1.14-2.48 2-4.899 2zm0 3c-2.419 0-4.436-.859-4.899-2A1.317 1.317 0 0 0 5 9.5c0 1.38 2.238 2.5 5 2.5s5-1.12 5-2.5c0-.172-.035-.337-.101-.5-.463 1.141-2.48 2-4.899 2z" fill="url(#b)"/><linearGradient id="c" x1=".5" y1=".987" x2=".5" y2="0"><stop offset="0" stop-color="#048300"/><stop offset="1" stop-color="#027900"/></linearGradient><path fill-rule="evenodd" d="M3.586 6L0 9.586V13h1.414L2 12.414V16h4v-3.586l.586.586H8V9.586L4.414 6h-.828z" fill="url(#c)"/><linearGradient id="d" x1=".5" y1=".041" x2=".5" y2="1.017"><stop offset="0" stop-color="#70FD58"/><stop offset="1" stop-color="#28E11F"/></linearGradient><path fill-rule="evenodd" d="M1 10v2l2-2v5h2v-5l2 2v-2L4 7l-3 3z" fill="url(#d)"/></svg>