<svg ti:v="1" width="16" height="16" viewBox="0 0 16 16" xmlns="http://www.w3.org/2000/svg" xmlns:ti="urn:schemas-jetbrains-com:tisvg"><rect id="frame" width="16" height="16" fill="none"/><g fill-rule="evenodd"><path d="M10 13c-3.421 0-6-1.505-6-3.5v-6C4 1.505 6.579 0 10 0s6 1.505 6 3.5v6c0 1.995-2.579 3.5-6 3.5z" fill="#F4F4F4"/><path d="M10 11c-2.419 0-4.436-.859-4.899-2A1.313 1.313 0 0 0 5 9.5c0 1.38 2.238 2.5 5 2.5s5-1.12 5-2.5c0-.172-.035-.338-.101-.5-.463 1.141-2.48 2-4.899 2zm0-3c-2.419 0-4.436-.859-4.899-2A1.313 1.313 0 0 0 5 6.5C5 7.88 7.238 9 10 9s5-1.12 5-2.5c0-.172-.035-.338-.101-.5-.463 1.141-2.48 2-4.899 2zm5-4.5C15 4.88 12.762 6 10 6S5 4.88 5 3.5C5 2.119 7.238 1 10 1s5 1.119 5 2.5z" fill="#313131"/><path d="M6 12.414l.586.586H8V9.586L4.414 6h-.828L0 9.586V13h1.414L2 12.414V16h4v-3.586z" fill="#F4F4F4"/><path d="M7 12l-2-2v5H3v-5l-2 2v-2l3-3 3 3v2z" fill="#00529C"/></g></svg>