<svg ti:v="1" width="16" height="16" viewBox="0 0 16 16" xmlns="http://www.w3.org/2000/svg" xmlns:ti="urn:schemas-jetbrains-com:tisvg"><rect id="frame" width="16" height="16" fill="none"/><linearGradient id="a" x1=".5" y1="0" x2=".5" y2=".992"><stop offset="0" stop-color="#7C6D47"/><stop offset="1" stop-color="#60492F"/></linearGradient><path fill-rule="evenodd" d="M6 0v11h10V3.586L12.414 0H6z" fill="url(#a)"/><linearGradient id="b" x1=".5" y1=".019" x2=".5" y2="1.01"><stop offset="0" stop-color="#E3D8BC"/><stop offset="1" stop-color="#E3CDB3"/></linearGradient><path fill-rule="evenodd" d="M7 1v9h8V4l-3-3H7z" fill="url(#b)"/><linearGradient id="c" x1=".5" y1=".014" x2=".5" y2="1"><stop offset="0" stop-color="#FFF3D4"/><stop offset="1" stop-color="#FFF"/></linearGradient><path fill-rule="evenodd" d="M8 2v7h6V4h-2V2H8z" fill="url(#c)"/><linearGradient id="d" x1=".5" y1="0" x2=".5" y2=".992"><stop offset="0" stop-color="#7C6D47"/><stop offset="1" stop-color="#60492F"/></linearGradient><path fill-rule="evenodd" d="M0 5v11h10V8.586L6.414 5H0z" fill="url(#d)"/><linearGradient id="e" x1=".5" y1=".019" x2=".5" y2="1.01"><stop offset="0" stop-color="#E3D8BC"/><stop offset="1" stop-color="#E3CDB3"/></linearGradient><path fill-rule="evenodd" d="M1 6v9h8V9L6 6H1z" fill="url(#e)"/><linearGradient id="f" x1=".5" y1=".014" x2=".5" y2="1"><stop offset="0" stop-color="#FFF3D4"/><stop offset="1" stop-color="#FFF"/></linearGradient><path fill-rule="evenodd" d="M2 7v7h6V9H6V7H2z" fill="url(#f)"/><linearGradient id="g" x1=".696" y1=".304" x2=".297" y2=".703"><stop offset="0" stop-color="#9C7632"/><stop offset="1" stop-color="#6D2020"/></linearGradient><path fill-rule="evenodd" d="M11.586 10L10 11.586v.828L13.586 16h.828L16 14.414v-.828L12.414 10h-.828z" fill="url(#g)"/><linearGradient id="h" x1=".616" y1=".384" x2=".366" y2=".634"><stop offset="0" stop-color="#FFE077"/><stop offset="1" stop-color="#D98C00"/></linearGradient><path fill-rule="evenodd" d="M11 12l3 3 1-1-3-3-1 1z" fill="url(#h)"/><linearGradient id="i" x1=".5" y1=".012" x2=".5" y2="1"><stop offset="0" stop-color="#3B7380"/><stop offset="1" stop-color="#093B6D"/></linearGradient><path fill-rule="evenodd" d="M4 8.5a4.5 4.5 0 0 0 9 0A4.5 4.5 0 0 0 8.5 4 4.499 4.499 0 0 0 4 8.5z" fill="url(#i)"/><linearGradient id="j" x1=".5" y1=".006" x2=".5" y2="1"><stop offset="0" stop-color="#D6EFFF"/><stop offset="1" stop-color="#72CAFF"/></linearGradient><path fill-rule="evenodd" d="M5 8.5a3.5 3.5 0 0 0 7 0 3.5 3.5 0 1 0-7 0z" fill="url(#j)"/><linearGradient id="k" x1=".5" y1=".013" x2=".5" y2="1"><stop offset="0" stop-color="#509FE8"/><stop offset=".736" stop-color="#FFF"/><stop offset="1" stop-color="#FFF"/></linearGradient><path fill-rule="evenodd" d="M6 8.5a2.5 2.5 0 1 0 5 0 2.5 2.5 0 0 0-5 0z" fill="url(#k)"/><linearGradient id="l" x1=".5" y1=".013" x2=".5" y2=".988"><stop offset="0" stop-color="#FFF"/><stop offset=".301" stop-color="#FFF"/><stop offset="1" stop-color="#BCF6FF"/></linearGradient><path fill-rule="evenodd" d="M7 8.5a1.5 1.5 0 0 0 3 0 1.5 1.5 0 0 0-3 0z" fill="url(#l)"/></svg>