<svg ti:v="1" width="16" height="16" viewBox="0 0 16 16" xmlns="http://www.w3.org/2000/svg" xmlns:ti="urn:schemas-jetbrains-com:tisvg"><rect id="frame" width="16" height="16" fill="none"/><g fill-rule="evenodd"><path d="M6 11V0h6.414L16 3.586V11H6z" fill="#242424"/><path d="M12 1H7v9h8V4l-3-3z" fill="#C4C4C4"/><path d="M12 4V2H8v7h6V4h-2z" fill="#292929"/><path d="M0 16V5h6.414L10 8.586V16H0z" fill="#242424"/><path d="M6 6H1v9h8V9L6 6z" fill="#C4C4C4"/><path d="M6 9V7H2v7h6V9H6z" fill="#292929"/><path d="M12.414 10L16 13.586v.828L14.414 16h-.828L10 12.414v-.828L11.586 10h.828z" fill="#242424"/><path d="M15 14l-1 1-3-3 1-1 3 3z" fill="#7CBEFF"/><path d="M4 8.5a4.5 4.5 0 1 0 9 0 4.5 4.5 0 0 0-9 0z" fill="#242424"/><path d="M5 8.5C5 10.434 6.566 12 8.5 12S12 10.434 12 8.5 10.434 5 8.5 5A3.499 3.499 0 0 0 5 8.5z" fill="#7CBEFF"/><path d="M6 8.5a2.5 2.5 0 1 0 5 0 2.5 2.5 0 0 0-5 0z" fill="#292929"/><path d="M7 8.5a1.5 1.5 0 1 0 3.001-.001A1.5 1.5 0 0 0 7 8.5z" fill="#292929"/></g></svg>