<svg ti:v="1" width="16" height="16" viewBox="0 0 16 16" xmlns="http://www.w3.org/2000/svg" xmlns:ti="urn:schemas-jetbrains-com:tisvg"><rect id="frame" width="16" height="16" fill="none"/><g fill-rule="evenodd"><path d="M15 7h-3.118l-1.632 3.264-.132-.264H7v1.236L8.882 15h2.736L15 8.236V7z" fill="#F4F4F4"/><path d="M9.5 14L8 11h1.5l.75 1.5L12.5 8H14l-3 6H9.5z" fill="#378A33"/><path d="M5 13c-1.104 0-2-.902-2-2.01V7.244a4.02 4.02 0 0 1-2-3.467A4.022 4.022 0 0 1 3.664 0h2.672A4.022 4.022 0 0 1 9 3.777a4.02 4.02 0 0 1-2 3.467v3.746C7 12.098 6.104 13 5 13z" fill="#F4F4F4"/><path d="M6 1v3H4V1a2.994 2.994 0 0 0-2 2.816c0 1.304.838 2.403 2 2.817V11a.999.999 0 1 0 2 0V6.633a2.994 2.994 0 0 0 2-2.817A2.994 2.994 0 0 0 6 1z" fill="#313131"/></g></svg>