<svg ti:v="1" width="16" height="16" viewBox="0 0 16 16" xmlns="http://www.w3.org/2000/svg" xmlns:ti="urn:schemas-jetbrains-com:tisvg"><rect id="frame" width="16" height="16" fill="none"/><linearGradient id="a" x1=".5" y1=".021" x2=".5" y2="1"><stop offset="0" stop-color="#455A5D"/><stop offset="1" stop-color="#1A7485"/></linearGradient><path fill-rule="evenodd" d="M3.664 0A4.024 4.024 0 0 0 1 3.778c0 1.44.781 2.757 2 3.466v3.746C3 12.098 3.896 13 5 13c1.103 0 2-.902 2-2.01V7.244a4.02 4.02 0 0 0 2-3.466A4.025 4.025 0 0 0 6.335 0H3.664z" fill="url(#a)"/><linearGradient id="b" x1=".5" y1=".024" x2=".5" y2="1.003"><stop offset="0" stop-color="#BFFFE6"/><stop offset="1" stop-color="#A8D8E0"/></linearGradient><path fill-rule="evenodd" d="M6 4H4V1a2.994 2.994 0 0 0-2 2.816c0 1.304.838 2.403 2 2.817V11a1 1 0 1 0 2 0V6.633a2.994 2.994 0 0 0 2-2.817A2.994 2.994 0 0 0 6 1v3z" fill="url(#b)"/><linearGradient id="c" x1=".5" y1=".003" x2=".5" y2="1"><stop offset="0" stop-color="#873E3E"/><stop offset="1" stop-color="#3F1D1D"/></linearGradient><path fill-rule="evenodd" d="M13.612 7L12 8.613 10.387 7h-.72l-.254.172c-.494.333-.912.75-1.242 1.242L8 8.668v.717L9.612 11 8 12.615v.718l.172.254c.331.49.748.907 1.24 1.241l.254.172h.72L12 13.388 13.613 15h.721l.254-.172a4.618 4.618 0 0 0 1.24-1.241l.172-.254v-.718L14.388 11 16 9.385v-.717l-.171-.254a4.558 4.558 0 0 0-1.242-1.242L14.333 7h-.721z" fill="url(#c)"/><linearGradient id="d" x1=".5" y1="-.004" x2=".5" y2="1"><stop offset="0" stop-color="#FFC59C"/><stop offset="1" stop-color="#FF774E"/></linearGradient><path fill-rule="evenodd" d="M12 10.027L9.972 8c-.382.259-.714.59-.972.972L11.026 11 9 13.028c.259.382.591.713.972.972L12 11.974 14.027 14c.382-.259.715-.59.973-.972L12.974 11 15 8.972A3.628 3.628 0 0 0 14.027 8L12 10.027z" fill="url(#d)"/></svg>