<svg ti:v="1" width="16" height="16" viewBox="0 0 16 16" xmlns="http://www.w3.org/2000/svg" xmlns:ti="urn:schemas-jetbrains-com:tisvg"><rect id="frame" width="16" height="16" fill="none"/><linearGradient id="a" x1=".5" y1="0" x2=".5" y2="1.006"><stop offset="0" stop-color="#006F33"/><stop offset="1" stop-color="#2C8A0A"/></linearGradient><path fill-rule="evenodd" d="M16 7h-3.118l-1.632 3.264-.132-.264H8v1.236L9.882 15h2.736L16 8.236V7z" fill="url(#a)"/><linearGradient id="b" x1=".5" y1=".007" x2=".5" y2="1.007"><stop offset="0" stop-color="#E1FFD6"/><stop offset="1" stop-color="#62F2A5"/></linearGradient><path fill-rule="evenodd" d="M10.5 14L9 11h1.5l.75 1.5L13.5 8H15l-3 6h-1.5z" fill="url(#b)"/><linearGradient id="c" x1=".5" y1=".021" x2=".5" y2="1"><stop offset="0" stop-color="#455A5D"/><stop offset="1" stop-color="#1A7485"/></linearGradient><path fill-rule="evenodd" d="M3.664 0A4.023 4.023 0 0 0 1 3.778c0 1.441.781 2.757 2 3.467v3.745C3 12.097 3.896 13 5 13c1.103 0 2-.903 2-2.01V7.245c1.22-.71 2-2.026 2-3.467A4.024 4.024 0 0 0 6.335 0H3.664z" fill="url(#c)"/><linearGradient id="d" x1=".5" y1=".024" x2=".5" y2="1.003"><stop offset="0" stop-color="#BFFFE6"/><stop offset="1" stop-color="#A8D8E0"/></linearGradient><path fill-rule="evenodd" d="M6 4H4V1a2.993 2.993 0 0 0-2 2.817c0 1.303.838 2.402 2 2.816V11a.999.999 0 1 0 2 0V6.633a2.993 2.993 0 0 0 2-2.816A2.993 2.993 0 0 0 6 1v3z" fill="url(#d)"/></svg>