<svg ti:v="1" width="16" height="16" viewBox="0 0 16 16" xmlns="http://www.w3.org/2000/svg" xmlns:ti="urn:schemas-jetbrains-com:tisvg"><rect id="frame" width="16" height="16" fill="none"/><g fill-rule="evenodd"><path d="M5 13c-1.104 0-2-.902-2-2.01V7.244a4.02 4.02 0 0 1-2-3.467A4.022 4.022 0 0 1 3.664 0h2.672A4.022 4.022 0 0 1 9 3.777a4.02 4.02 0 0 1-2 3.467v3.746C7 12.098 6.104 13 5 13z" fill="#242424"/><path d="M6 1v3H4V1a2.994 2.994 0 0 0-2 2.816c0 1.304.838 2.403 2 2.817V11a1 1 0 1 0 2 0V6.633a2.994 2.994 0 0 0 2-2.817A2.994 2.994 0 0 0 6 1z" fill="#C4C4C4"/><path d="M15 12.614L13.388 11 15 9.385v-.717l-.171-.254a4.558 4.558 0 0 0-1.242-1.242L13.333 7h-.721L11 8.613 9.388 7h-.721l-.254.172c-.494.333-.912.751-1.242 1.242L7 8.668v.717L8.612 11 7 12.614v.72l.172.253c.331.49.748.907 1.24 1.241l.254.172h.721L11 13.387 12.613 15h.721l.254-.172a4.62 4.62 0 0 0 1.24-1.24l.172-.255v-.719z" fill="#242424"/><path d="M11 11.974L8.973 14A3.628 3.628 0 0 1 8 13.028L10.026 11 8 8.973A3.62 3.62 0 0 1 8.973 8L11 10.028 13.027 8c.383.259.715.59.973.973L11.974 11 14 13.028a3.628 3.628 0 0 1-.973.972L11 11.974z" fill="#F28365"/></g></svg>