<svg ti:v="1" width="16" height="16" viewBox="0 0 16 16" xmlns="http://www.w3.org/2000/svg" xmlns:ti="urn:schemas-jetbrains-com:tisvg"><rect id="frame" width="16" height="16" fill="none"/><linearGradient id="a" x1=".5" y1=".002" x2=".5" y2="1.003"><stop offset="0" stop-color="#385985"/><stop offset="1" stop-color="#263C59"/></linearGradient><path fill-rule="evenodd" d="M16 16H6V6h10v10z" fill="url(#a)"/><linearGradient id="b" x1=".5" y1=".022" x2=".5" y2=".992"><stop offset="0" stop-color="#91B6FF"/><stop offset="1" stop-color="#6A95E7"/></linearGradient><path fill-rule="evenodd" d="M7 15h8V7H7v8z" fill="url(#b)"/><path fill-rule="evenodd" d="M14 14H8V8h6v6z" fill="#FFF"/><path fill-rule="evenodd" d="M10.501 11.293l-1.146-1.146-.707.707 1.853 1.853L14 9.207V8h-.207l-3.292 3.293z"/><path fill-rule="evenodd" d="M10 1H0v1.414l3 3V11h1.414L7 8.414v-3l3-3V1z" fill="#3F8187"/><linearGradient id="c" x1="0" y1=".5" x2="1" y2=".5"><stop offset="0" stop-color="#B8E3FF"/><stop offset=".399" stop-color="#F5F5F5"/><stop offset="1" stop-color="#70BCE5"/></linearGradient><path fill-rule="evenodd" d="M9 2L6 5v3l-2 2V5L1 2h8z" fill="url(#c)"/></svg>