<svg ti:v="1" width="16" height="16" viewBox="0 0 16 16" xmlns="http://www.w3.org/2000/svg" xmlns:ti="urn:schemas-jetbrains-com:tisvg"><rect id="frame" width="16" height="16" fill="none"/><linearGradient id="a" x1=".5" y1="0" x2=".5" y2="1.014"><stop offset="0" stop-color="#7C6D47"/><stop offset="1" stop-color="#60492F"/></linearGradient><path fill-rule="evenodd" d="M6 6h10v10H6V6z" fill="url(#a)"/><linearGradient id="b" x1=".5" y1="0" x2=".5" y2="1"><stop offset="0" stop-color="#E3C371"/><stop offset="1" stop-color="#C79862"/></linearGradient><path fill-rule="evenodd" d="M15 15H7V7h8v8z" fill="url(#b)"/><linearGradient id="c" x1=".5" y1="0" x2=".5" y2="1"><stop offset="0" stop-color="#FFEBD4"/><stop offset="1" stop-color="#FFF9ED"/></linearGradient><path fill-rule="evenodd" d="M8 11a3 3 0 1 0 6 0 3 3 0 1 0-6 0z" fill="url(#c)"/><path fill-rule="evenodd" d="M11 11V9h-1v3h3v-1h-2z"/><path fill-rule="evenodd" d="M10 1H0v1.414l3 3V11h1.414L7 8.414v-3l3-3V1z" fill="#3F8187"/><linearGradient id="d" x1="0" y1=".5" x2="1" y2=".5"><stop offset="0" stop-color="#B8E3FF"/><stop offset=".399" stop-color="#F5F5F5"/><stop offset="1" stop-color="#70BCE5"/></linearGradient><path fill-rule="evenodd" d="M1 2l3 3v5l2-2V5l3-3H1z" fill="url(#d)"/></svg>