<svg ti:v="1" width="16" height="16" viewBox="0 0 16 16" xmlns="http://www.w3.org/2000/svg" xmlns:ti="urn:schemas-jetbrains-com:tisvg"><rect id="frame" width="16" height="16" fill="none"/><g fill-rule="evenodd"><path d="M6 6h10v10H6V6z" fill="#F4F4F4"/><path d="M15 15H7V7h8v8z" fill="#313131"/><path d="M14 11a3 3 0 1 1-6 0 3 3 0 0 1 6 0z" fill="#EBEBEB"/><path d="M11 11V9h-1v3h3v-1h-2z" fill="#313131"/><path d="M10 1H0v1.414l3 3V11h1.414L7 8.414v-3l3-3V1z" fill="#F4F4F4"/><path d="M9 2L6 5v3l-2 2V5L1 2h8z" fill="#313131"/></g></svg>