<svg ti:v="1" width="16" height="16" viewBox="0 0 16 16" xmlns="http://www.w3.org/2000/svg" xmlns:ti="urn:schemas-jetbrains-com:tisvg"><rect id="frame" width="16" height="16" fill="none"/><g fill-rule="evenodd"><path d="M16 16H6V6h10v10z" fill="#242424"/><path d="M7 15h8V7H7v8z" fill="#C4C4C4"/><path d="M14 14H8V8h6v6z" fill="#282828"/><path d="M10.501 11.293l-1.146-1.146-.707.707 1.853 1.853L14 9.207V8h-.207l-3.292 3.293z" fill="#C4C4C4"/><path d="M10 1H0v1.414l3 3V11h1.414L7 8.414v-3l3-3V1z" fill="#242424"/><path d="M9 2L6 5v3l-2 2V5L1 2h8z" fill="#C4C4C4"/></g></svg>