<svg ti:v="1" width="16" height="16" viewBox="0 0 16 16" xmlns="http://www.w3.org/2000/svg" xmlns:ti="urn:schemas-jetbrains-com:tisvg"><rect id="frame" width="16" height="16" fill="none"/><linearGradient id="a" x1=".5" y1=".006" x2=".5" y2="1.006"><stop offset="0" stop-color="#00746C"/><stop offset="1" stop-color="#0A4642"/></linearGradient><path fill-rule="evenodd" d="M5 15h11V1H5v14z" fill="url(#a)"/><linearGradient id="b" x1=".5" y1=".014" x2=".5" y2="1.014"><stop offset="0" stop-color="#DEFFFD"/><stop offset="1" stop-color="#54EBE2"/></linearGradient><path fill-rule="evenodd" d="M6 14h9V2H6v12z" fill="url(#b)"/><linearGradient id="c" x1=".5" y1=".009" x2=".5" y2="1.004"><stop offset="0" stop-color="#00746C"/><stop offset="1" stop-color="#0A4642"/></linearGradient><path fill-rule="evenodd" d="M11.154 3.142a.489.489 0 0 0-.138.355c0 .146.047.266.144.36A.462.462 0 0 0 11.5 4a.456.456 0 0 0 .347-.147.502.502 0 0 0 .138-.356.48.48 0 0 0-.144-.352A.475.475 0 0 0 11.49 3a.455.455 0 0 0-.336.142zm-2.007 0a.486.486 0 0 0-.14.355.48.48 0 0 0 .145.353c.098.1.216.15.354.15a.455.455 0 0 0 .34-.147.487.487 0 0 0 .144-.356.468.468 0 0 0-.148-.352A.489.489 0 0 0 9.49 3a.47.47 0 0 0-.343.142zm-.763 2.367l.234.997c.615-.533 1.302-.565 2.064-.565.869 0 1.305.688 1.305 1.792l-1.898.272C8.696 8.204 8 8.91 8 10.123c0 .567.178 1.02.534 1.364.357.341.851.513 1.481.513.857 0 1.505-.389 1.947-1.167h.025V12H13V7.625c0-1.614-.744-2.558-2.231-2.558-.812 0-1.763.036-2.385.442zm.985 5.314a.999.999 0 0 1-.331-.776c0-.435.12-.74.358-.911.24-.171.594-.29 1.064-.357l1.527-.216v.647c0 .554-.165 1.012-.492 1.373a1.607 1.607 0 0 1-1.246.542c-.367 0-.659-.1-.88-.302z" fill="url(#c)"/><linearGradient id="d" x1=".5" y1=".006" x2=".5" y2="1"><stop offset="0" stop-color="#806718"/><stop offset="1" stop-color="#513E28"/></linearGradient><path fill-rule="evenodd" d="M3.586 0L0 3.586v4.032l2-1V11h4V6.618l2 1V3.586L4.414 0h-.828z" fill="url(#d)"/><linearGradient id="e" x1=".5" y1=".014" x2=".5" y2="1.007"><stop offset="0" stop-color="#FFE48C"/><stop offset=".994" stop-color="#FF9720"/><stop offset="1" stop-color="#FF9720"/></linearGradient><path fill-rule="evenodd" d="M1 4v2l2-1v5h2V5l2 1V4L4 1 1 4z" fill="url(#e)"/></svg>