<svg ti:v="1" width="16" height="16" viewBox="0 0 16 16" xmlns="http://www.w3.org/2000/svg" xmlns:ti="urn:schemas-jetbrains-com:tisvg"><rect id="frame" width="16" height="16" fill="none"/><g fill-rule="evenodd"><path d="M16 15H5V1h11v14z" fill="#242424"/><path d="M15 14H6V2h9v12z" fill="#C4C4C4"/><path d="M11.5 4a.466.466 0 0 1-.341-.143.48.48 0 0 1-.143-.36c0-.141.046-.26.138-.354A.452.452 0 0 1 11.49 3c.139 0 .256.049.351.146a.471.471 0 0 1 .143.351.506.506 0 0 1-.137.356A.458.458 0 0 1 11.5 4zm.486 4.563l-1.526.216c-.47.067-.824.187-1.064.358-.238.172-.358.475-.358.91 0 .317.11.576.331.776.221.2.514.302.88.302a1.61 1.61 0 0 0 1.246-.542c.327-.361.491-.82.491-1.373M9.506 4a.476.476 0 0 1-.354-.15.484.484 0 0 1-.145-.353.485.485 0 0 1 .835-.351.468.468 0 0 1 .148.351.494.494 0 0 1-.143.356.462.462 0 0 1-.341.147zM13 12h-1.014v-1.167h-.024C11.521 11.61 10.871 12 10.015 12c-.63 0-1.124-.172-1.481-.513-.356-.343-.534-.798-.534-1.364 0-1.214.696-1.92 2.089-2.118l1.897-.272c0-1.104-.435-1.792-1.304-1.792-.762 0-1.45.032-2.064.565l-.234-.997c.622-.406 1.573-.443 2.385-.443 1.487 0 2.231.945 2.231 2.559V12z" fill="#282828"/><path d="M3.586 0L0 3.586v4.032l2-1V11h4V6.618l2 1V3.586L4.414 0h-.828z" fill="#242424"/><path d="M7 4L4 1 1 4v2l2-1v5h2V5l2 1V4z" fill="#7BBEFF"/></g></svg>