<svg xmlns="http://www.w3.org/2000/svg" xmlns:xlink="http://www.w3.org/1999/xlink" width="16" height="16" viewBox="0 0 16 16"><rect id="frame" width="16" height="16" fill="none"/><defs><linearGradient id="a" x1="8" y1=".083" x2="8" y2="14.918" gradientUnits="userSpaceOnUse"><stop offset="0" stop-color="#00756d"/><stop offset="1" stop-color="#0b4743"/></linearGradient><linearGradient id="b" x1="8" y1="1.083" x2="8" y2="14.083" gradientUnits="userSpaceOnUse"><stop offset="0" stop-color="#8aece6"/><stop offset="1" stop-color="#71d5cf"/></linearGradient></defs><path d="M8.031 1.988A1.953 1.953 0 0 1 9.981 0a1.981 1.981 0 0 1 1.989 1.988A1.986 1.986 0 0 1 10.582 3.9 3.891 3.891 0 0 1 13 7.916V15H9.378v-.465A4.892 4.892 0 0 1 7.224 15C4.465 15 3 13.369 3 11.39a3.687 3.687 0 0 1 1.038-2.57V4.811a6.775 6.775 0 0 1 1.7-.842 2.005 2.005 0 0 1-1.72-1.981A1.962 1.962 0 0 1 5.985 0a1.994 1.994 0 0 1 2 1.988z" fill="url(#a)"/><path d="M12 14h-1.622v-1.622h-.039A3.484 3.484 0 0 1 7.224 14C5.006 14 4 12.8 4 11.39 4 9.7 5.1 8.723 7.342 8.445l3.036-.38c0-1.615-.766-2.3-2.087-2.3a5.349 5.349 0 0 0-3.3 1.11V5.394a6.851 6.851 0 0 1 3.443-.846C10.822 4.548 12 5.67 12 7.916zM6.015 2.987a1 1 0 0 1-1-1A.962.962 0 0 1 5.985 1a.993.993 0 0 1 1 .988.982.982 0 0 1-.97.999zm4.363 6.233l-2.443.3c-1.312.165-2.274.447-2.274 1.763 0 1 .922 1.5 1.938 1.5a2.627 2.627 0 0 0 2.779-2.663zM10 2.987a.969.969 0 0 1-.97-1A.953.953 0 0 1 9.981 1a.979.979 0 0 1 .989.988.968.968 0 0 1-.97.999z" fill="url(#b)"/></svg>