<svg ti:v="1" width="16" height="16" viewBox="0 0 16 16" xmlns="http://www.w3.org/2000/svg" xmlns:ti="urn:schemas-jetbrains-com:tisvg"><rect id="frame" width="16" height="16" fill="none"/><linearGradient id="a" x1=".5" y1=".006" x2=".5" y2="1.006"><stop offset="0" stop-color="#00746C"/><stop offset="1" stop-color="#0A4642"/></linearGradient><path fill-rule="evenodd" d="M5 15h11V1H5v14z" fill="url(#a)"/><linearGradient id="b" x1=".5" y1=".014" x2=".5" y2="1.014"><stop offset="0" stop-color="#DEFFFD"/><stop offset="1" stop-color="#54EBE2"/></linearGradient><path fill-rule="evenodd" d="M6 14h9V1.999H6V14z" fill="url(#b)"/><linearGradient id="c" x1=".5" y1=".009" x2=".5" y2="1.004"><stop offset="0" stop-color="#00746C"/><stop offset="1" stop-color="#0A4642"/></linearGradient><path fill-rule="evenodd" d="M11.154 3.143a.485.485 0 0 0-.138.354c0 .146.047.267.144.36A.459.459 0 0 0 11.5 4a.46.46 0 0 0 .347-.147.502.502 0 0 0 .138-.356.481.481 0 0 0-.144-.352A.475.475 0 0 0 11.49 3a.452.452 0 0 0-.336.143zm-2.007 0a.482.482 0 0 0-.14.354.48.48 0 0 0 .145.353c.098.1.216.15.354.15.131 0 .245-.05.34-.147a.487.487 0 0 0 .144-.356.47.47 0 0 0-.148-.352A.489.489 0 0 0 9.49 3a.467.467 0 0 0-.343.143zm-.763 2.366l.234.997c.615-.533 1.302-.564 2.064-.564.869 0 1.305.687 1.305 1.792l-1.898.271C8.696 8.204 8 8.909 8 10.123c0 .566.178 1.02.534 1.364.357.341.851.513 1.481.513.857 0 1.505-.389 1.947-1.167h.025V12H13V7.625c0-1.614-.744-2.558-2.231-2.558-.812 0-1.763.036-2.385.442zm.985 5.314a.999.999 0 0 1-.331-.776c0-.434.12-.738.358-.91.24-.171.594-.291 1.064-.358l1.527-.216v.647c0 .554-.165 1.012-.492 1.373a1.607 1.607 0 0 1-1.246.542c-.367 0-.659-.1-.88-.302z" fill="url(#c)"/><linearGradient id="d" x1=".5" y1=".023" x2=".5" y2="1.012"><stop offset="0" stop-color="#4E2851"/><stop offset="1" stop-color="#804185"/></linearGradient><path fill-rule="evenodd" d="M2 5v4.38l-2-.998v4.032L3.586 16h.828L8 12.414V8.382l-2 .999V5H2z" fill="url(#d)"/><linearGradient id="e" x1=".5" y1=".014" x2=".5" y2=".986"><stop offset="0" stop-color="#FD8CFF"/><stop offset="1" stop-color="#FDC9FF"/></linearGradient><path fill-rule="evenodd" d="M3 6v5l-2-1v2l3 3 3-3v-2l-2 1V6H3z" fill="url(#e)"/></svg>