<svg ti:v="1" width="16" height="16" viewBox="0 0 16 16" xmlns="http://www.w3.org/2000/svg" xmlns:ti="urn:schemas-jetbrains-com:tisvg"><rect id="frame" width="16" height="16" fill="none"/><g fill-rule="evenodd"><path d="M16 15H5V1h11v14z" fill="#F4F4F4"/><path d="M15 14H6V2h9v12z"/><path d="M11.5 4a.466.466 0 0 1-.341-.143.48.48 0 0 1-.143-.36c0-.141.046-.26.138-.354A.452.452 0 0 1 11.49 3c.139 0 .256.049.351.146a.471.471 0 0 1 .143.351.506.506 0 0 1-.137.356A.458.458 0 0 1 11.5 4zm.486 4.563l-1.526.216c-.47.067-.824.187-1.064.358-.238.172-.358.475-.358.91 0 .317.11.576.331.776.221.2.514.302.88.302a1.61 1.61 0 0 0 1.246-.542c.327-.361.491-.82.491-1.373M9.506 4a.476.476 0 0 1-.354-.15.484.484 0 0 1-.145-.353.485.485 0 0 1 .835-.351.468.468 0 0 1 .148.351.494.494 0 0 1-.143.356.462.462 0 0 1-.341.147zM13 12h-1.014v-1.167h-.024C11.521 11.61 10.871 12 10.015 12c-.63 0-1.124-.172-1.481-.513-.356-.343-.534-.798-.534-1.364 0-1.214.696-1.92 2.089-2.118l1.897-.272c0-1.104-.435-1.792-1.304-1.792-.762 0-1.45.032-2.064.565l-.234-.997c.622-.406 1.573-.443 2.385-.443 1.487 0 2.231.945 2.231 2.559V12z" fill="#EBEBEB"/><path d="M0 3.586V7h1.414L2 6.414v3.172L1.414 9H0v3.414L3.586 16h.828L8 12.414V9H6.586L6 9.586V6.414L6.586 7H8V3.586L4.414 0h-.828L0 3.586z" fill="#F4F4F4"/><path d="M7 10l-2 2V9.249l-2-1V12l-2-2v2l3 3 3-3M4 1l3 3v2L5 4v3.75l-2-1V4L1 6V4l3-3z" fill="#00529C"/></g></svg>