<svg ti:v="1" width="16" height="16" viewBox="0 0 16 16" xmlns="http://www.w3.org/2000/svg" xmlns:ti="urn:schemas-jetbrains-com:tisvg"><rect id="frame" width="16" height="16" fill="none"/><linearGradient id="a" x1=".5" y1=".006" x2=".5" y2="1.006"><stop offset="0" stop-color="#00746C"/><stop offset="1" stop-color="#0A4642"/></linearGradient><path fill-rule="evenodd" d="M5 15h11V1H5v14z" fill="url(#a)"/><linearGradient id="b" x1=".5" y1=".014" x2=".5" y2="1.014"><stop offset="0" stop-color="#DEFFFD"/><stop offset="1" stop-color="#54EBE2"/></linearGradient><path fill-rule="evenodd" d="M6 14h9V2H6v12z" fill="url(#b)"/><linearGradient id="c" x1=".5" y1=".009" x2=".5" y2="1.004"><stop offset="0" stop-color="#00746C"/><stop offset="1" stop-color="#0A4642"/></linearGradient><path fill-rule="evenodd" d="M11.154 3.143a.485.485 0 0 0-.138.354c0 .146.047.266.144.36A.459.459 0 0 0 11.5 4a.456.456 0 0 0 .347-.147.502.502 0 0 0 .138-.356.481.481 0 0 0-.144-.352A.475.475 0 0 0 11.49 3a.452.452 0 0 0-.336.143zm-2.007 0a.482.482 0 0 0-.14.354.48.48 0 0 0 .145.353c.098.1.216.15.354.15a.455.455 0 0 0 .34-.147.487.487 0 0 0 .144-.356.47.47 0 0 0-.148-.352A.489.489 0 0 0 9.49 3a.467.467 0 0 0-.343.143zm-.763 2.366l.234.997c.615-.533 1.302-.564 2.064-.564.869 0 1.305.687 1.305 1.79l-1.898.273C8.696 8.204 8 8.909 8 10.123c0 .567.178 1.02.534 1.364.357.341.851.513 1.481.513.857 0 1.505-.389 1.947-1.167h.025V12H13V7.625c0-1.614-.744-2.558-2.231-2.558-.812 0-1.763.036-2.385.442zm.985 5.314a.999.999 0 0 1-.331-.776c0-.434.12-.74.358-.91.24-.171.594-.291 1.064-.358l1.527-.216v.647c0 .554-.165 1.012-.492 1.373a1.607 1.607 0 0 1-1.246.542c-.367 0-.659-.1-.88-.302z" fill="url(#c)"/><linearGradient id="d" x1=".5" y1=".006" x2=".5" y2="1.006"><stop offset="0" stop-color="#6F3C00"/><stop offset="1" stop-color="#56005D"/></linearGradient><path fill-rule="evenodd" d="M3.586 0L0 3.586V7h1.414L2 6.414v3.172L1.414 9H0v3.414L3.586 16h.828L8 12.414V9H6.586L6 9.586V6.414L6.586 7H8V3.586L4.414 0h-.828z" fill="url(#d)"/><linearGradient id="e" x1=".5" y1=".007" x2=".5" y2="1"><stop offset="0" stop-color="#FFD035"/><stop offset=".345" stop-color="#FCB79A"/><stop offset="1" stop-color="#F99EFF"/></linearGradient><path fill-rule="evenodd" d="M1 4v2l2-2v2.75l2 1V4l2 2V4L4 1M3 12l-2-2v2l3 3 3-3v-2l-2 2V9.249l-2-1V12z" fill="url(#e)"/></svg>