<svg xmlns="http://www.w3.org/2000/svg" width="16" height="16" viewBox="0 0 16 16"><rect id="frame" width="16" height="16" fill="none"/><g fill="none" fill-rule="evenodd"><path fill="#62B543" fill-opacity=".7" d="M9 14.286c-1.598.074-3.244-.09-4.553-.031 0 0-.504.028-1.013.112 0 0 .193-.082.438-.167 2-.69 2.946-.83 4.163-1.455.323-.166.647-.359.965-.576v2.117zM12.55 8c.235-.528.408-1.07.504-1.618A7.101 7.101 0 0 1 12.244 8H9v3.08c-.615.384-1.25.698-1.867.926-1.65.607-4.63 1.2-4.63 1.201l-.121-.064C.354 12.157.298 7.77 3.979 6.355c1.614-.62 3.158-.279 4.902-.695 1.86-.442 4.015-1.84 4.89-3.66.565 1.672 1.194 3.885 1.228 6H12.55z"/><path fill="#9AA7B0" d="M10 9h6v1h-6z"/><path fill="#9AA7B0" d="M10 11h6v1h-6z"/><path fill="#9AA7B0" d="M10 13h6v1h-6z"/><path fill="#9AA7B0" d="M10 15h6v1h-6z"/></g></svg>