<svg width="32" height="32" viewBox="0 0 32 32" fill="none" xmlns="http://www.w3.org/2000/svg">
<path d="M28.2 12.3667L32 20.8333L25.4667 32L16.5 20.8333L28.2 12.3667Z" fill="url(#paint0_linear)"/>
<path d="M19 16.5L25.4667 32L15.3667 28.5333L19 16.5Z" fill="#B74AF7"/>
<path d="M22.5333 9.03333L20.4667 0H8.96667L0 13.7333L2.6 20.0333L0 25.8L20.4667 13.7333L22.5333 9.03333Z" fill="url(#paint1_linear)"/>
<path d="M32 6.8L18.5667 9.96667L0 25.8L12 32L21.4667 22.2333L32 6.8Z" fill="url(#paint2_linear)"/>
<path d="M26 6H6V26H26V6Z" fill="url(#paint3_linear)"/>
<path d="M16 23H8V24H16V23Z" fill="white"/>
<path d="M7.5 12.1169C7.5 9.85102 9.25527 8 11.6488 8C13.085 8 13.9147 8.38297 14.7445 9.08508L13.6594 10.4255C13.053 9.91484 12.5105 9.62762 11.585 9.62762C10.3084 9.62762 9.3191 10.7446 9.3191 12.085V12.1169C9.3191 13.553 10.3084 14.6062 11.7127 14.6062C12.3509 14.6062 12.8935 14.4466 13.3403 14.1275V13.0105H11.585V11.5105H14.9998V14.9254C14.2339 15.6275 13.1169 16.17 11.6807 16.17C9.19145 16.17 7.5 14.4466 7.5 12.1169Z" fill="white"/>
<path d="M15.7657 12.1169C15.7657 9.85102 17.521 8 19.9783 8C22.4038 8 24.1591 9.8191 24.1591 12.0531V12.085C24.1591 14.319 22.4038 16.17 19.9464 16.17C17.521 16.17 15.7657 14.3509 15.7657 12.1169ZM22.34 12.1169C22.34 10.7446 21.3506 9.62762 19.9464 9.62762C18.5422 9.62762 17.5848 10.7446 17.5848 12.085V12.1169C17.5848 13.4573 18.5741 14.6062 19.9783 14.6062C21.3826 14.5743 22.34 13.4892 22.34 12.1169Z" fill="white"/>
<defs>
<linearGradient id="paint0_linear" x1="31.5103" y1="18.2283" x2="19.0118" y2="28.8039" gradientUnits="userSpaceOnUse">
<stop offset="0" stop-color="#087CFA"/>
<stop offset="0.0225255" stop-color="#0D7BFA"/>
<stop offset="0.3726" stop-color="#5566F9"/>
<stop offset="0.6634" stop-color="#8A57F8"/>
<stop offset="0.8808" stop-color="#AB4EF7"/>
<stop offset="1" stop-color="#B74AF7"/>
</linearGradient>
<linearGradient id="paint1_linear" x1="11.0122" y1="9.91947" x2="18.6085" y2="1.27727" gradientUnits="userSpaceOnUse">
<stop offset="0" stop-color="#087CFA"/>
<stop offset="0.0225255" stop-color="#0D7BFA"/>
<stop offset="0.3726" stop-color="#5566F9"/>
<stop offset="0.6634" stop-color="#8A57F8"/>
<stop offset="0.8808" stop-color="#AB4EF7"/>
<stop offset="1" stop-color="#B74AF7"/>
</linearGradient>
<linearGradient id="paint2_linear" x1="4.44563" y1="27.9544" x2="27.529" y2="13.1211" gradientUnits="userSpaceOnUse">
<stop offset="0" stop-color="#087CFA"/>
<stop offset="0.1021" stop-color="#1598D3"/>
<stop offset="0.2248" stop-color="#23B6AA"/>
<stop offset="0.3455" stop-color="#2DCC8B"/>
<stop offset="0.4619" stop-color="#35DD74"/>
<stop offset="0.5723" stop-color="#39E767"/>
<stop offset="0.6701" stop-color="#3BEA62"/>
</linearGradient>
<linearGradient id="paint3_linear" x1="15.9733" y1="1.139" x2="15.9733" y2="19.075" gradientUnits="userSpaceOnUse">
<stop offset="0.0842986" stop-color="#878585"/>
<stop offset="0.5377"/>
</linearGradient>
</defs>
</svg>
