<svg width="64" height="64" viewBox="0 0 64 64" fill="none" xmlns="http://www.w3.org/2000/svg">
<path d="M56.4 24.7333L64 41.6667L50.9333 64L35.5 41.6667L56.4 24.7333Z" fill="url(#paint0_linear)"/>
<path d="M40.5 39L50.9333 64L30.7333 57.0667L40.5 39Z" fill="#B74AF7"/>
<path d="M45.0667 18.0667L40.9333 0H17.9333L0 27.4667L5.2 40.0667L0 51.6L43 30L45.0667 18.0667Z" fill="url(#paint1_linear)"/>
<path d="M64 13.6L37.1333 19.9333L0 51.6L24 64L42.9333 44.4667L64 13.6Z" fill="url(#paint2_linear)"/>
<path d="M51 13H13V51H51V13Z" fill="url(#paint3_linear)"/>
<path d="M32.1444 44H18V46.3222H32.1444V44Z" fill="white"/>
<path d="M15.7 24.9679C15.7 20.8577 18.884 17.5 23.2258 17.5C25.8309 17.5 27.336 18.1947 28.8412 19.4683L26.8729 21.8997C25.773 20.9734 24.7888 20.4524 23.11 20.4524C20.7944 20.4524 18.9998 22.4786 18.9998 24.91V24.9679C18.9998 27.573 20.7944 29.4834 23.3416 29.4834C24.4994 29.4834 25.4835 29.1939 26.294 28.615V26.5888H23.11V23.868H29.3043V30.0623C27.9149 31.3359 25.8888 32.32 23.2837 32.32C18.7682 32.32 15.7 29.1939 15.7 24.9679Z" fill="white"/>
<path d="M30.6937 24.9679C30.6937 20.8577 33.8776 17.5 38.3352 17.5C42.7349 17.5 45.9189 20.7998 45.9189 24.8521V24.91C45.9189 28.9623 42.7349 32.32 38.2773 32.32C33.8777 32.32 30.6937 29.0202 30.6937 24.9679ZM42.6191 24.9679C42.6191 22.4786 40.8245 20.4524 38.2773 20.4524C35.7302 20.4524 33.9934 22.4786 33.9934 24.91V24.9679C33.9934 27.3993 35.788 29.4834 38.3352 29.4834C40.8824 29.4255 42.6191 27.4572 42.6191 24.9679Z" fill="white"/>
<defs>
<linearGradient id="paint0_linear" x1="63.0207" y1="36.4565" x2="38.0236" y2="57.6079" gradientUnits="userSpaceOnUse">
<stop offset="0" stop-color="#087CFA"/>
<stop offset="0.0225255" stop-color="#0D7BFA"/>
<stop offset="0.3726" stop-color="#5566F9"/>
<stop offset="0.6634" stop-color="#8A57F8"/>
<stop offset="0.8808" stop-color="#AB4EF7"/>
<stop offset="1" stop-color="#B74AF7"/>
</linearGradient>
<linearGradient id="paint1_linear" x1="22.0243" y1="19.8389" x2="37.217" y2="2.55453" gradientUnits="userSpaceOnUse">
<stop offset="0" stop-color="#087CFA"/>
<stop offset="0.0225255" stop-color="#0D7BFA"/>
<stop offset="0.3726" stop-color="#5566F9"/>
<stop offset="0.6634" stop-color="#8A57F8"/>
<stop offset="0.8808" stop-color="#AB4EF7"/>
<stop offset="1" stop-color="#B74AF7"/>
</linearGradient>
<linearGradient id="paint2_linear" x1="8.89127" y1="55.9088" x2="55.0579" y2="26.2421" gradientUnits="userSpaceOnUse">
<stop offset="0" stop-color="#087CFA"/>
<stop offset="0.1021" stop-color="#1598D3"/>
<stop offset="0.2248" stop-color="#23B6AA"/>
<stop offset="0.3455" stop-color="#2DCC8B"/>
<stop offset="0.4619" stop-color="#35DD74"/>
<stop offset="0.5723" stop-color="#39E767"/>
<stop offset="0.6701" stop-color="#3BEA62"/>
</linearGradient>
<linearGradient id="paint3_linear" x1="31.9493" y1="3.7641" x2="31.9493" y2="37.8425" gradientUnits="userSpaceOnUse">
<stop offset="0.0842986" stop-color="#878585"/>
<stop offset="0.5377"/>
</linearGradient>
</defs>
</svg>
