<svg xmlns="http://www.w3.org/2000/svg" width="12" height="12" viewBox="0 0 12 12"><rect id="frame" width="12" height="12" fill="none"/><g fill="none" fill-rule="evenodd"><path fill="#62B543" fill-opacity=".7" d="M11.56 5.256A4.383 4.383 0 0 0 8.7 4.2a4.381 4.381 0 0 0-2.725.945l-1.472-1.49A2.985 2.985 0 0 0 5 2C5 1.262 4.733.585 4.29.062 6.126-.24 8.075.577 9.653 2.175c.92.931 1.578 1.991 1.907 3.081zM5.1 6.07a4.38 4.38 0 0 0-.8 2.53c0 1.284.55 2.439 1.426 3.243-1.263-.258-2.507-.984-3.58-2.07C.557 8.164-.251 6.17.07 4.297A2.989 2.989 0 0 0 2 4.999c.585 0 1.13-.167 1.592-.456L5.1 6.07z"/><path fill="#F98B9E" fill-opacity=".7" d="M4 2A2 2 0 1 1 .002 2 2 2 0 0 1 4 2"/><path fill="#9AA7B0" d="M11.204 9.008l.796.57a3.473 3.473 0 0 1-.73 1.266l-.893-.402a2.582 2.582 0 0 1-.88.508l-.098.975c-.236.05-.48.076-.73.076a3.46 3.46 0 0 1-.732-.076l-.096-.975a2.582 2.582 0 0 1-.88-.508l-.894.402a3.485 3.485 0 0 1-.73-1.265l.796-.571a2.572 2.572 0 0 1 0-1.014l-.796-.571c.153-.474.404-.903.73-1.265l.893.403c.254-.224.553-.4.881-.51l.096-.975a3.597 3.597 0 0 1 1.462 0l.097.975c.328.11.627.286.881.51l.892-.403c.327.362.578.79.731 1.265l-.796.57a2.641 2.641 0 0 1 0 1.015m-2.536.73a1.239 1.239 0 1 0 .001-2.476 1.239 1.239 0 0 0 0 2.477"/></g></svg>