<svg xmlns="http://www.w3.org/2000/svg" width="12" height="12" viewBox="0 0 12 12"><rect id="frame" width="12" height="12" fill="none"/><g fill="none" fill-rule="evenodd"><path fill="#62B543" fill-opacity=".7" d="M2.5 4.295l6.39 6.207c-1.75 1.37-3.995.882-5.672-.749a6.204 6.204 0 0 1-.718-.827V4.295zm7 5.51L3.11 3.598c1.75-1.37 3.995-.881 5.673.75.27.262.51.539.717.826v4.63z"/><path fill="#9AA7B0" d="M1.5 9H0V4h1.5z"/><path fill="#9AA7B0" d="M1.464 6.768C1.466 3.506 2.504.846 5.997.846c3.5 0 4.537 2.66 4.539 5.922h.907C11.44 3.039 10.536 0 5.997 0 2.004 0 .56 3.04.557 6.768h.907z"/><path fill="#9AA7B0" d="M12 9h-1.5V4H12z"/></g></svg>