<svg xmlns="http://www.w3.org/2000/svg" width="12" height="12" viewBox="0 0 12 12"><rect id="frame" width="12" height="12" fill="none"/><g fill="none" fill-rule="evenodd"><path fill="#62B543" fill-opacity=".7" d="M8.356 5.99L4.083 1.61c1.16-.958 2.649-.616 3.761.525C8.956 3.275 9.29 4.8 8.356 5.99zm-.44.452c-1.16.959-2.648.616-3.76-.524-1.113-1.14-1.447-2.666-.512-3.857l4.272 4.38z"/><path fill="#9AA7B0" d="M6 8l2.5 4h-5z"/><path fill="#9AA7B0" d="M0 1h1v6H0z"/><path fill="#9AA7B0" d="M0 1h2v1H0z"/><path fill="#9AA7B0" d="M0 6h2v1H0z"/><path fill="#9AA7B0" d="M11 1h1v6h-1z"/><path fill="#9AA7B0" d="M10 1h2v1h-2z"/><path fill="#9AA7B0" d="M10 6h2v1h-2z"/></g></svg>