<svg xmlns="http://www.w3.org/2000/svg" width="12" height="12" viewBox="0 0 12 12">
  <g fill="none" fill-rule="evenodd">
    <path fill="#62B543" fill-opacity=".7" d="M5.68945341,4.8554651 L2.00028628,1.12080609 C4.361972,-0.804313912 7.38951485,-0.117380579 9.65258628,2.17467275 C10.5678617,3.10132452 11.2240296,4.15481015 11.5549973,5.23911045 C10.7428787,4.44050935 9.62897291,3.94784868 8.4,3.94784868 C7.38221398,3.94784868 6.44334656,4.28573938 5.68945341,4.8554651 Z M5.34318512,11.7502827 C4.21282462,11.4341131 3.1105796,10.7492197 2.14694343,9.77360609 C-0.115285146,7.48325942 -0.794628003,4.41808609 1.10685771,2.02704609 L4.79204181,5.75803474 C4.23173797,6.50837642 3.9,7.43937177 3.9,8.44784868 C3.9,9.75296887 4.45560262,10.9283211 5.34318512,11.7502827 Z"/>
    <path fill="#9AA7B0" d="M8.4,4.94784868 C6.468,4.94784868 4.9,6.51584868 4.9,8.44784868 C4.9,10.3798487 6.468,11.9478487 8.4,11.9478487 C10.332,11.9478487 11.9,10.3798487 11.9,8.44784868 C11.9,6.51584868 10.332,4.94784868 8.4,4.94784868 Z M8.05,11.2233487 C6.6675,11.0518487 5.6,9.87584868 5.6,8.44784868 C5.6,8.23084868 5.628,8.02434868 5.6735,7.82134868 L7.35,9.49784868 L7.35,9.84784868 C7.35,10.2328487 7.665,10.5478487 8.05,10.5478487 L8.05,11.2233487 Z M10.465,10.3343487 C10.374,10.0508487 10.115,9.84784868 9.8,9.84784868 L9.45,9.84784868 L9.45,8.79784868 C9.45,8.60534868 9.2925,8.44784868 9.1,8.44784868 L7,8.44784868 L7,7.74784868 L7.7,7.74784868 C7.8925,7.74784868 8.05,7.59034868 8.05,7.39784868 L8.05,6.69784868 L8.75,6.69784868 C9.135,6.69784868 9.45,6.38284868 9.45,5.99784868 L9.45,5.85434868 C10.4755,6.27084868 11.2,7.27534868 11.2,8.44784868 C11.2,9.17584868 10.92,9.83734868 10.465,10.3343487 Z"/>
  </g>
</svg>
