<svg xmlns="http://www.w3.org/2000/svg" width="12" height="12" viewBox="0 0 12 12"><rect id="frame" width="12" height="12" fill="none"/><g fill="none" fill-rule="evenodd"><path fill="#62B543" fill-opacity=".7" d="M5.69 4.855L2 1.121C4.362-.804 7.39-.117 9.653 2.175c.915.926 1.571 1.98 1.902 3.064A4.485 4.485 0 0 0 8.4 3.948a4.48 4.48 0 0 0-2.71.907zm-.347 6.895c-1.13-.316-2.232-1-3.196-1.976-2.262-2.29-2.942-5.356-1.04-7.747l3.685 3.731a4.48 4.48 0 0 0-.892 2.69c0 1.305.556 2.48 1.443 3.302z"/><path fill="#9AA7B0" d="M8.4 4.948a3.501 3.501 0 0 0-3.5 3.5c0 1.932 1.568 3.5 3.5 3.5s3.5-1.568 3.5-3.5-1.568-3.5-3.5-3.5zm-.35 6.275a2.796 2.796 0 0 1-2.377-3.402L7.35 9.498v.35c0 .385.315.7.7.7v.675zm2.415-.889a.694.694 0 0 0-.665-.486h-.35v-1.05a.351.351 0 0 0-.35-.35H7v-.7h.7c.192 0 .35-.158.35-.35v-.7h.7c.385 0 .7-.315.7-.7v-.144a2.802 2.802 0 0 1 1.75 2.594c0 .728-.28 1.39-.735 1.886z"/></g></svg>