<svg xmlns="http://www.w3.org/2000/svg" width="12" height="12" viewBox="0 0 12 12">
  <g fill="none" fill-rule="evenodd">
    <path fill="#62B543" fill-opacity=".7" d="M7.80786572,7 L2.00028628,1.12080609 C4.361972,-0.804313912 7.38951485,-0.117380579 9.65258628,2.17467275 C11.1961173,3.73738893 12.0027505,5.66081856 11.755498,7.48444136 L9.5,5.5 L8,5.5 L8,7 L7.80786572,7 Z M4,11.1948588 C3.34852054,10.836095 2.72296819,10.3567905 2.14694343,9.77360609 C-0.115285146,7.48325942 -0.794628003,4.41808609 1.10685771,2.02704609 L6.01875973,7 L4,7 L4,11.1948588 Z"/>
    <path fill="#9AA7B0" d="M9,8 L9,6.5 L12,9 L9,11.5 L9,10 L5,10 L5,8 L9,8 Z"/>
  </g>
</svg>
