<svg xmlns="http://www.w3.org/2000/svg" width="12" height="12" viewBox="0 0 12 12"><rect id="frame" width="12" height="12" fill="none"/><path fill="#62B543" fill-opacity=".7" fill-rule="evenodd" d="M10.988 9.316c-1.784 2.374-5.591 1.578-8.033 1.688 0 0-.433.024-.868.096 0 0 .164-.07.375-.143 1.714-.592 2.525-.711 3.568-1.247 1.957-1.002 3.906-3.186 4.302-5.454-.746 2.182-3.012 4.06-5.076 4.82-1.413.521-3.968 1.03-3.968 1.03l-.104-.055c-1.738-.845-1.786-4.606 1.37-5.818 1.383-.532 2.706-.24 4.201-.596C8.35 3.258 10.197 2.059 10.947.5c.843 2.496 1.854 6.401.04 8.816z"/></svg>