<svg xmlns="http://www.w3.org/2000/svg" width="12" height="12" viewBox="0 0 12 12">
  <g fill="none" fill-rule="evenodd">
    <path fill="#40B6E0" fill-opacity=".6" d="M12.0004,8.50056 C12.0004,10.43356 10.4334,11.99956 8.5004,11.99956 C6.5664,11.99956 4.9994,10.43256 5.0004,8.49956 C5.0004,6.56656 6.5664,4.99956 8.5004,4.99956 C10.4334,5.00056 12.0004,6.56656 12.0004,8.50056"/>
    <path fill="#62B543" fill-opacity=".7" d="M5.76178778,4.92869144 L2.00028628,1.12080609 C4.361972,-0.804313912 7.38951485,-0.117380579 9.65258628,2.17467275 C10.5508167,3.08406759 11.1995002,4.11561625 11.5361687,5.17856472 C10.73584,4.44656793 9.67007077,4 8.5,4 C7.46972639,4 6.52031983,4.34623297 5.76178778,4.92869144 Z M5.40579035,11.7674088 C4.25355229,11.4592914 3.12836203,10.7672231 2.14694343,9.77360609 C-0.115285146,7.48325942 -0.794628003,4.41808609 1.10685771,2.02704609 L4.87126186,5.83823944 C4.32354523,6.5836757 4,7.50405383 4,8.5 C4,9.78669388 4.54002485,10.9472582 5.40579035,11.7674088 Z"/>
    <path fill="#231F20" fill-opacity=".7" d="M2.5,2.14126587 C2.265,2.37076587 2.014,2.489 1.55,2.5 C1.0305,2.511 0.5,2.1397 0.5,1.5002 C0.5,0.8562 0.9855,0.5 1.55,0.5 C1.97416585,0.5 2.27416585,0.592376709 2.45,0.777130127 L2.7581,0.418365479 C2.41469995,0.135087598 2.14413452,0.0002 1.5491,0.0002 C0.6701,0.0002 0.0001,0.6792 0.0001,1.5002 C0.0001,2.3412 0.6821,3.0002 1.5011,3.0002 C2.14642334,3.0002 2.5116,2.7967 2.8081,2.4907 C2.6027,2.25774391 2.5,2.14126587 2.5,2.14126587 Z" transform="translate(7 7)"/>
  </g>
</svg>
