<svg xmlns="http://www.w3.org/2000/svg" width="12" height="12" viewBox="0 0 12 12"><rect id="frame" width="12" height="12" fill="none"/><g fill="none" fill-rule="evenodd"><path fill="#F4AF3D" fill-opacity=".6" d="M4.35 10.235c0-2.255 1.853-3.027 4.13-3.263.882-.09 1.695-.688 2.438-1.794C10.523 2.81 8.48 1 6 1a5 5 0 0 0-5 5 4.994 4.994 0 0 0 3.322 4.705"/><path fill="#231F20" fill-opacity=".7" d="M4.798 6.102c0 .775.193 1.556 1.23 1.556 1.038 0 1.172-1.06 1.172-1.564 0-.514-.078-1.534-1.18-1.534-1.103 0-1.222.766-1.222 1.542zM4.8 7.75c.006.055.006.806-.002 2.25H4V4h.798v.56c.296-.373.754-.56 1.375-.56C7.105 4 8 4.434 8 6.102S6.924 8.217 6.173 8.217c-.5 0-.958-.155-1.373-.467z"/><path fill="#62B543" fill-opacity=".7" d="M11.22 10.99c-1.01 1.344-3.165.893-4.548.955 0 0-.244.014-.49.055 0 0 .092-.04.211-.08.97-.336 1.43-.404 2.02-.707 1.108-.567 2.211-1.803 2.435-3.087-.422 1.235-1.705 2.298-2.873 2.728-.8.295-2.246.583-2.246.583l-.059-.03c-.983-.48-1.01-2.608.775-3.294.783-.301 1.532-.135 2.378-.337.903-.215 1.949-.893 2.373-1.776.477 1.413 1.05 3.623.023 4.99z"/></g></svg>