<svg xmlns="http://www.w3.org/2000/svg" width="12" height="12" viewBox="0 0 12 12"><rect id="frame" width="12" height="12" fill="none"/><g fill="none" fill-rule="evenodd"><path fill="#F26522" fill-opacity=".7" d="M12 12H0V6h10.333c-.565.51-1.289.88-1.947 1.037-.97.232-1.83.042-2.728.387-2.049.787-2.09 3.627-.961 4.176.64.4 1.006.4 1.303.4h6z"/><path fill="#9AA7B0" fill-opacity=".8" d="M6 0v4H2v1h8V0z"/><path fill="#9AA7B0" fill-opacity=".8" d="M5 0L2 3h3z"/><path fill="#231F20" fill-opacity=".7" d="M1 9.39v-.784L2.983 7v.835L1.498 8.991l1.485 1.163v.841z"/><path fill="#62B543" fill-opacity=".7" d="M11.22 10.99c-1.01 1.344-3.165.893-4.548.955 0 0-.244.014-.49.055 0 0 .092-.04.211-.08.97-.336 1.43-.404 2.02-.707 1.108-.567 2.211-1.803 2.435-3.087-.422 1.235-1.705 2.298-2.873 2.728-.8.295-2.246.583-2.246.583l-.059-.03c-.983-.48-1.01-2.608.775-3.294.783-.301 1.532-.135 2.378-.337.903-.215 1.949-.893 2.373-1.776.477 1.413 1.05 3.623.023 4.99z"/></g></svg>