<svg xmlns="http://www.w3.org/2000/svg" width="12" height="12" viewBox="0 0 12 12"><rect id="frame" width="12" height="12" fill="none"/><g fill="none" fill-rule="evenodd"><path fill="#40B6E0" fill-opacity=".6" d="M12 8.5A3.5 3.5 0 0 1 8.5 12 3.5 3.5 0 1 1 12 8.5"/><path fill="#62B543" fill-opacity=".7" d="M5.762 4.929L2 1.12C4.362-.804 7.39-.117 9.653 2.175c.898.91 1.547 1.94 1.883 3.004A4.484 4.484 0 0 0 8.5 4a4.48 4.48 0 0 0-2.738.929zm-.356 6.838c-1.152-.308-2.278-1-3.26-1.993-2.261-2.29-2.94-5.356-1.04-7.747l3.765 3.811A4.48 4.48 0 0 0 4 8.5c0 1.287.54 2.447 1.406 3.267z"/><path fill="#231F20" fill-opacity=".7" d="M9.5 9.141c-.235.23-.486.348-.95.359-.52.011-1.05-.36-1.05-1 0-.644.486-1 1.05-1 .424 0 .724.092.9.277l.308-.359C9.415 7.135 9.144 7 8.55 7 7.67 7 7 7.68 7 8.5c0 .841.682 1.5 1.501 1.5.645 0 1.01-.203 1.307-.51L9.5 9.142z"/></g></svg>