<svg xmlns="http://www.w3.org/2000/svg" width="12" height="12" viewBox="0 0 12 12">
  <g fill="none" fill-rule="evenodd">
    <path fill="#62B543" fill-opacity=".7" d="M6.6451946,8.92387426 C6.77671201,8.60144963 6.8659401,8.25727984 6.9059879,7.89825586 L9.79840057,10.8266194 C9.55761216,11.0230544 9.30988843,11.1922997 9.05674779,11.3354274 L6.6451946,8.92387426 Z M6.48272142,5.65851507 C6.12718035,4.98725394 5.57967105,4.43329383 4.91333513,4.06977635 L2.00028628,1.12080609 C4.361972,-0.804313912 7.38951485,-0.117380579 9.65258628,2.17467275 C11.9148149,4.46501942 12.5941577,7.53019275 10.692672,9.92037942 L6.48272531,5.658519 Z M1.11063929e-05,5.11009886 C0.00227357324,4.03653698 0.350267452,2.97842719 1.10685771,2.02704609 L2.67927421,3.61900674 C1.589564,3.72697913 0.632938883,4.28754725 1.11063924e-05,5.11009886 Z"/>
    <g fill="#9AA7B0" transform="translate(0 4.4)">
      <polygon points="5.417 4.286 6.59 4.286 6.59 7.615 5.417 7.615" transform="rotate(-45 6.004 5.95)"/>
      <path d="M3.06666667,6.13333333 C1.37299343,6.13333333 -4e-16,4.7603399 -4e-16,3.06666667 C-4e-16,1.37299343 1.37299343,0 3.06666667,0 C4.7603399,0 6.13333333,1.37299343 6.13333333,3.06666667 C6.13333333,4.7603399 4.7603399,6.13333333 3.06666667,6.13333333 Z M3.06666667,5.06666667 C4.17123617,5.06666667 5.06666667,4.17123617 5.06666667,3.06666667 C5.06666667,1.96209717 4.17123617,1.06666667 3.06666667,1.06666667 C1.96209717,1.06666667 1.06666667,1.96209717 1.06666667,3.06666667 C1.06666667,4.17123617 1.96209717,5.06666667 3.06666667,5.06666667 Z"/>
    </g>
  </g>
</svg>
