<svg xmlns="http://www.w3.org/2000/svg" width="12" height="12" viewBox="0 0 12 12"><rect id="frame" width="12" height="12" fill="none"/><g fill="none" fill-rule="evenodd"><path fill="#F98B9E" fill-opacity=".6" d="M12 8.5A3.5 3.5 0 0 1 8.5 12 3.5 3.5 0 1 1 12 8.5"/><path fill="#231F20" fill-opacity=".7" d="M10.996 8.267c0-.455-.097-.786-.287-.994-.191-.207-.476-.31-.854-.31-.02 0-.04.005-.06.006-.031 0-.06-.007-.092-.007-.108 0-.214.012-.317.036-.104.024-.202.06-.296.11-.095.048-.18.11-.26.183-.05.047-.088.111-.13.17a.833.833 0 0 0-.325-.355 1.315 1.315 0 0 0-.647-.144c-.024 0-.047.007-.072.008-.028 0-.051-.008-.08-.008-.1 0-.197.011-.293.033a1.064 1.064 0 0 0-.506.271c-.02.02-.032.045-.05.064l.032-.374H6L6.003 10h.758s-.006-1.643.022-1.803c.028-.16.077-.296.145-.408a.669.669 0 0 1 .27-.25.89.89 0 0 1 .317-.075c.198.011.35.074.449.202.106.141.16.353.162.634L8.13 10h.743l-.002-1.37c0-.19.015-.36.047-.507.033-.146.084-.269.154-.368a.66.66 0 0 1 .27-.223.882.882 0 0 1 .298-.069c.198.012.352.075.452.203.108.141.162.353.163.634l.004 1.7h.742l-.005-1.732z"/><path fill="#62B543" fill-opacity=".7" d="M5.762 4.929L2 1.12C4.362-.804 7.39-.117 9.653 2.175c.898.91 1.547 1.94 1.883 3.004A4.484 4.484 0 0 0 8.5 4a4.48 4.48 0 0 0-2.738.929zm-.356 6.838c-1.152-.308-2.278-1-3.26-1.993-2.261-2.29-2.94-5.356-1.04-7.747l3.765 3.811A4.48 4.48 0 0 0 4 8.5c0 1.287.54 2.447 1.406 3.267z"/></g></svg>