<svg xmlns="http://www.w3.org/2000/svg" width="12" height="12" viewBox="0 0 12 12"><rect id="frame" width="12" height="12" fill="none"/><g fill="none" fill-rule="evenodd"><path fill="#62B543" fill-opacity=".7" d="M6.645 8.924a3.84 3.84 0 0 0 .261-1.026l2.892 2.929a5.3 5.3 0 0 1-.741.508L6.645 8.924zm-.162-3.265a3.883 3.883 0 0 0-1.57-1.59L2 1.122C4.362-.804 7.39-.117 9.653 2.175c2.262 2.29 2.941 5.355 1.04 7.745L6.483 5.66zM0 5.11c.002-1.073.35-2.132 1.107-3.083l1.572 1.592A3.86 3.86 0 0 0 0 5.11z"/><g fill="#9AA7B0"><path d="M4.412 9.588l.83-.829 2.354 2.354-.83.83z"/><path d="M3.067 10.533a3.067 3.067 0 1 1 0-6.133 3.067 3.067 0 0 1 0 6.133zm0-1.066a2 2 0 1 0 0-4 2 2 0 0 0 0 4z"/></g></g></svg>