<svg width="64" height="64" viewBox="0 0 64 64" fill="none" xmlns="http://www.w3.org/2000/svg">
<path d="M29.287 27.0261L22.6435 0L0.904348 15.1304L0 43.7913L17.9478 38.6783L30.6783 31.1652L29.287 27.0261Z" fill="#087DFA"/>
<path d="M22.6435 0L19.0261 16.4174L48.9739 37.0087L63.8608 12.9043L22.6435 0Z" fill="url(#paint0_linear)"/>
<path d="M48.5217 18.1565L54.0174 38.7131L64 12.9044L48.5217 18.1565Z" fill="#07C3F2"/>
<path d="M41.0435 23.1652L18.4 21.913L0 43.7913L22.5 51L32.3826 35.7217L41.0435 23.1652Z" fill="url(#paint1_linear)"/>
<path d="M64 39.513L48.1739 22.9913L46.2609 2.19128L18.4 21.913L18.1218 44.6261L31.7218 63.1304L55.5131 64L64 39.513Z" fill="url(#paint2_linear)"/>
<path d="M51 13H13V51H51V13Z" fill="url(#paint3_linear)"/>
<path d="M32.1444 44H18V46.3222H32.1444V44Z" fill="white"/>
<path d="M18 17.75H21.4484L25.2651 23.7872L29.0818 17.75H32.5302V31.99H29.3496V22.7045L25.2651 28.7745H25.1981L21.1471 22.7701V31.99H18V17.75Z" fill="white"/>
<path d="M36.1459 17.75H39.3265V31.99H36.1459V17.75Z" fill="white"/>
<defs>
<linearGradient id="paint0_linear" x1="19.0327" y1="18.5083" x2="63.8634" y2="18.5083" gradientUnits="userSpaceOnUse">
<stop offset="0.1179" stop-color="#087CFA"/>
<stop offset="0.8178" stop-color="#07C3F2"/>
</linearGradient>
<linearGradient id="paint1_linear" x1="3.69426" y1="52.7449" x2="31.7913" y2="26.0477" gradientUnits="userSpaceOnUse">
<stop offset="0.1179" stop-color="#087CFA"/>
<stop offset="0.8178" stop-color="#FF45ED"/>
</linearGradient>
<linearGradient id="paint2_linear" x1="4.83359" y1="-21.593" x2="54.6676" y2="60.3505" gradientUnits="userSpaceOnUse">
<stop offset="0" stop-color="#087CFA"/>
<stop offset="0.8178" stop-color="#FF45ED"/>
</linearGradient>
<linearGradient id="paint3_linear" x1="31.9493" y1="3.7641" x2="31.9493" y2="37.8425" gradientUnits="userSpaceOnUse">
<stop offset="0.0842986" stop-color="#878585"/>
<stop offset="0.5377"/>
</linearGradient>
</defs>
    <path fill-rule="evenodd" clip-rule="evenodd" d="M28 64H64V44H28V64Z" fill="#D99E2B"/>
    <path fill-rule="evenodd" clip-rule="evenodd" d="M32 60H39.5V58.101H33.8V54.9H38.8V53H33.8V49.9H39.4V48H32V60Z" fill="black"/>
    <path fill-rule="evenodd" clip-rule="evenodd" d="M44.7998 55.3L46.5998 50.5L48.4998 55.3H44.7998ZM41 60H42.9L44 57.101H49.1L50.199 60H52.199L47.5 48H45.699L41 60Z" fill="black"/>
    <path fill-rule="evenodd" clip-rule="evenodd" d="M54.814 54.2004V49.9004H56.599C57.969 49.9004 58.599 50.6004 58.7 51.7004V52.1004C58.7 53.2884 58.045 54.2004 56.9 54.2004H54.814ZM54.814 60V56.1H56.5C58.791 56.142 60.511 54.348 60.511 52.304V51.804C60.511 49.585 58.935 48 56.88 48H53V60H54.814Z" fill="black"/>
</svg>