<svg width="32" height="32" viewBox="0 0 32 32" fill="none" xmlns="http://www.w3.org/2000/svg">
<path d="M14.6435 13.513L11.3217 0L0.452174 7.56522L0 21.8957L8.97392 19.3391L15.3391 15.5826L14.6435 13.513Z" fill="#087DFA"/>
<path d="M11.3218 0L9.51306 8.2087L24.487 18.5044L31.9305 6.45217L11.3218 0Z" fill="url(#paint0_linear)"/>
<path d="M24.2609 9.0783L27.0087 19.3566L32 6.45221L24.2609 9.0783Z" fill="#07C3F2"/>
<path d="M20.5217 11.5826L9.2 10.9565L0 21.8957L11.25 25.5L16.1913 17.8609L20.5217 11.5826Z" fill="url(#paint1_linear)"/>
<path d="M32 19.7565L24.0869 11.4956L23.1304 1.09564L9.19998 10.9565L9.06085 22.313L15.8609 31.5652L27.7565 32L32 19.7565Z" fill="url(#paint2_linear)"/>
<path d="M26 6H6V26H26V6Z" fill="url(#paint3_linear)"/>
<path d="M16 23H8V24H16V23Z" fill="white"/>
<path d="M8 8H9.88161L11.9642 11.2942L14.0467 8H15.9283V15.77H14.1929V10.7034L11.9642 14.0155H11.9276L9.71719 10.7392V15.77H8V8Z" fill="white"/>
<path d="M17.9012 8H19.6367V15.77H17.9012V8Z" fill="white"/>
<defs>
<linearGradient id="paint0_linear" x1="9.51638" y1="9.25414" x2="31.9317" y2="9.25414" gradientUnits="userSpaceOnUse">
<stop offset="0.1179" stop-color="#087CFA"/>
<stop offset="0.8178" stop-color="#07C3F2"/>
</linearGradient>
<linearGradient id="paint1_linear" x1="1.84713" y1="26.3725" x2="15.8957" y2="13.0239" gradientUnits="userSpaceOnUse">
<stop offset="0.1179" stop-color="#087CFA"/>
<stop offset="0.8178" stop-color="#FF45ED"/>
</linearGradient>
<linearGradient id="paint2_linear" x1="2.41676" y1="-10.7965" x2="27.3338" y2="30.1753" gradientUnits="userSpaceOnUse">
<stop offset="0" stop-color="#087CFA"/>
<stop offset="0.8178" stop-color="#FF45ED"/>
</linearGradient>
<linearGradient id="paint3_linear" x1="15.9733" y1="1.139" x2="15.9733" y2="19.075" gradientUnits="userSpaceOnUse">
<stop offset="0.0842986" stop-color="#878585"/>
<stop offset="0.5377"/>
</linearGradient>
</defs>
    <path fill-rule="evenodd" clip-rule="evenodd" d="M14 32H32V22H14V32Z" fill="#D99E2B"/>
    <path fill-rule="evenodd" clip-rule="evenodd" d="M16 30H19.75V29.0505H16.9V27.45H19.4V26.5H16.9V24.95H19.7V24H16V30Z" fill="black"/>
    <path fill-rule="evenodd" clip-rule="evenodd" d="M22.3999 27.65L23.2999 25.25L24.2499 27.65H22.3999ZM20.5 30H21.45L22 28.5505H24.55L25.0995 30H26.0995L23.75 24H22.8495L20.5 30Z" fill="black"/>
    <path fill-rule="evenodd" clip-rule="evenodd" d="M27.407 27.1002V24.9502H28.2995C28.9845 24.9502 29.2995 25.3002 29.35 25.8502V26.0502C29.35 26.6442 29.0225 27.1002 28.45 27.1002H27.407ZM27.407 30V28.05H28.25C29.3955 28.071 30.2555 27.174 30.2555 26.152V25.902C30.2555 24.7925 29.4675 24 28.44 24H26.5V30H27.407Z" fill="black"/>
</svg>