<svg xmlns="http://www.w3.org/2000/svg" width="16" height="16" viewBox="0 0 16 16"><rect id="frame" width="16" height="16" fill="none"/><g fill="#6E6E6E" fill-rule="evenodd" transform="translate(2 1)"><circle cx="8.5" cy="10.5" r="3.5"/><path d="M6.39 6.525a4.5 4.5 0 0 0-2.16 5.399 3.5 3.5 0 1 1 2.16-5.4z"/><path d="M3.125 6.606C4.089 3.063 7.165.473 10.81.473c.379 0 .751.028 1.116.082l.099-.049v1.135C10.059 2.72 8.807 4.347 8.807 6.168c0 .426.069.842.2 1.242H7.842a4.994 4.994 0 0 1-.133-1.144c0-1.78.95-3.406 2.514-4.642C7.191 1.9 4.718 4.287 4.09 7.41h-.965v-.804z"/></g></svg>