<svg width="48" height="48" viewBox="0 0 48 48" fill="none" xmlns="http://www.w3.org/2000/svg">
<g clip-path="url(#clip0)">
<path d="M26.5 8.45L24.9 3.6L8.2 0L0 9.25L9 13.85L23.95 20.6L26.5 8.45Z" fill="url(#paint0_linear)"/>
<path d="M18.5 14.05L0 9.25L4.55 36.75L18.15 36.7L18.5 14.05Z" fill="url(#paint1_linear)"/>
<path d="M13 17.6L23.35 8.39998L29.65 2.84998L41.75 5.09998L48 20.6L39 29.55L13 17.6Z" fill="url(#paint2_linear)"/>
<path d="M34.25 11.7L9.75 11.6L13.2 38.45L13.85 42.35L30.1 48L48 37.25L34.25 11.7Z" fill="url(#paint3_linear)"/>
<path d="M39 9H9V39H39V9Z" fill="url(#paint4_linear)"/>
<path d="M23.25 34H12V35.9286H23.25V34Z" fill="white"/>
<path d="M12.75 12.0072H17.5463C20.3615 12.0072 22.0297 13.6754 22.0297 16.0736V16.1257C22.0297 18.8366 19.9444 20.2442 17.2856 20.2442H15.3045V23.7372H12.75V12.0072ZM17.3899 17.8982C18.6932 17.8982 19.4231 17.1162 19.4231 16.1257V16.0736C19.4231 14.9266 18.6411 14.301 17.3377 14.301H15.3567V17.8982H17.3899Z" fill="white"/>
<path d="M22.9018 22.0036L24.4038 20.1908C25.4397 21.0713 26.5792 21.5892 27.8741 21.5892C28.91 21.5892 29.5833 21.1749 29.5833 20.5015V20.4497C29.5833 19.7764 29.169 19.4656 27.2526 18.9477C24.87 18.3779 23.3679 17.7046 23.3679 15.3738V15.322C23.3679 13.1984 25.0772 11.8 27.4597 11.8C29.169 11.8 30.6192 12.3179 31.8105 13.302L30.4638 15.2184C29.4279 14.4933 28.3921 14.079 27.4079 14.079C26.4238 14.079 25.9059 14.5451 25.9059 15.1149V15.1667C25.9059 15.9436 26.4238 16.2026 28.4438 16.7205C30.8264 17.342 32.1731 18.1708 32.1731 20.2426V20.2943C32.1731 22.6251 30.4121 23.92 27.8741 23.92C26.1131 23.8682 24.3003 23.2467 22.9018 22.0036Z" fill="white"/>
</g>
<defs>
<linearGradient id="paint0_linear" x1="12.0805" y1="14.7657" x2="16.1555" y2="6.62065" gradientUnits="userSpaceOnUse">
<stop offset="0" stop-color="#AF1DF5"/>
<stop offset="0.21" stop-color="#BC20E4"/>
<stop offset="0.63" stop-color="#DD29B8"/>
<stop offset="1" stop-color="#FF318C"/>
</linearGradient>
<linearGradient id="paint1_linear" x1="1.5486" y1="32.9335" x2="21.5988" y2="6.4467" gradientUnits="userSpaceOnUse">
<stop offset="0.02" stop-color="#6B57FF"/>
<stop offset="0.42" stop-color="#B74AF7"/>
<stop offset="0.75" stop-color="#FF318C"/>
</linearGradient>
<linearGradient id="paint2_linear" x1="36.3707" y1="32.6863" x2="24.4507" y2="4.40633" gradientUnits="userSpaceOnUse">
<stop offset="0" stop-color="#293896"/>
<stop offset="0.08" stop-color="#3B3AA2"/>
<stop offset="0.29" stop-color="#6740C0"/>
<stop offset="0.49" stop-color="#8A44D8"/>
<stop offset="0.68" stop-color="#A347E9"/>
<stop offset="0.86" stop-color="#B249F3"/>
<stop offset="1" stop-color="#B74AF7"/>
</linearGradient>
<linearGradient id="paint3_linear" x1="34.316" y1="42.0229" x2="16.206" y2="15.4886" gradientUnits="userSpaceOnUse">
<stop offset="0.02" stop-color="#6B57FF"/>
<stop offset="0.78" stop-color="#B74AF7"/>
</linearGradient>
<linearGradient id="paint4_linear" x1="23.9994" y1="1.70732" x2="23.9994" y2="28.6113" gradientUnits="userSpaceOnUse">
<stop offset="0.0842986" stop-color="#878585"/>
<stop offset="0.5377"/>
</linearGradient>
<clipPath id="clip0">
<path d="M0 0H48V48H0V0Z" fill="white"/>
</clipPath>
</defs>
</svg>
