<svg xmlns="http://www.w3.org/2000/svg" xmlns:xlink="http://www.w3.org/1999/xlink" width="16" height="16" viewBox="0 0 16 16"><rect id="frame" width="16" height="16" fill="none"/><defs><path id="a" d="M11.095 3.477V3.46l.363-1.811S10.653-.203 7.955.019c-2.697.22-3.04.845-3.482 1.59l.262 1.187-.504.322s-.18-.543-.463-.563c0 0 .423-.604.121-1.027-.302-.423-1.912-.382-2.536 1.751 0 0-.08-.644-.342-.644s-1.228.343-.966 1.349c.261 1.006 1.167 1.308 1.469 1.43 0 0 .14.18.08.422-.031.127-.762 2.385-.152 4.472.456 1.558 1.912 2.912 1.912 2.912a6.159 6.159 0 0 0 4.266 1.712c3.429 0 6.209-2.804 6.209-6.264a6.273 6.273 0 0 0-2.734-5.191z"/></defs><g fill="none" fill-rule="evenodd" transform="translate(.3 .2)"><path fill="#020202" fill-rule="nonzero" d="M7.62 15.093c-3.513 0-6.37-2.882-6.37-6.425 0-3.543 2.857-6.425 6.37-6.425 3.512 0 6.37 2.882 6.37 6.425 0 3.543-2.858 6.425-6.37 6.425zm0-12.528c-3.336 0-6.049 2.738-6.049 6.103 0 3.366 2.713 6.104 6.049 6.104 3.335 0 6.048-2.738 6.048-6.104 0-3.365-2.713-6.103-6.048-6.103z"/><path fill="#FFF" d="M7.62 2.565c-3.336 0-6.049 2.738-6.049 6.103 0 3.366 2.713 6.104 6.049 6.104 3.335 0 6.048-2.738 6.048-6.104 0-3.365-2.713-6.103-6.048-6.103z"/><mask id="b" fill="#fff"><use xlink:href="#a"/></mask><g mask="url(#b)"><g transform="translate(.257 .128)"><path fill="#050505" d="M9.553 10.823s4.512.727 5.01 7.037c0 0-.842.535-1.721.574 0 0 .076-4.857-3.29-7.611z"/><path fill="#DD002A" d="M12.191 14.77c.036.102.069.204.1.304.297-.03.962-.124 1.55-.39a8.104 8.104 0 0 0-.127-.289c-.216.1-.696.277-1.523.375z"/><circle cx="4.897" cy="6.044" r="1" fill="#F4CF8C"/><circle cx="4.897" cy="6.044" r="1" fill="#F4CF8C"/><path fill="#F4CF8C" d="M3.93 6.044c0 .03 0 .059.003.088.07-.03.143-.067.221-.118.459-.293.473-.642.37-.863a.968.968 0 0 0-.595.893z"/><circle cx="4.397" cy="6.044" r="1" fill="#F4CF8C"/><path fill="#D8AF6F" d="M4.397 5.576a.447.447 0 0 0-.056.004c.183.027.324.224.324.464 0 .24-.141.436-.324.464a.468.468 0 1 0 .056-.932z"/><path fill="#F4CF8C" fill-rule="nonzero" d="M5.484 5.582a2.433 2.433 0 0 0-.166-.006c-.767 0-1.389.348-1.389.778 0-.398.68-.726 1.555-.772zm-1.555.772c0 .43.622.777 1.39.777.056 0 .11-.002.166-.006-.876-.046-1.556-.373-1.556-.771z"/><circle cx="10.562" cy="6.044" r="1" fill="#F4CF8C"/><circle cx="10.562" cy="6.044" r="1" fill="#F4CF8C"/><circle cx="11.062" cy="6.044" r="1" fill="#F4CF8C"/><path fill="#D8AF6F" d="M10.794 6.044c0-.24.141-.437.324-.464a.468.468 0 1 0 0 .928c-.183-.028-.324-.225-.324-.464z"/><path fill="#F4CF8C" fill-rule="nonzero" d="M11.53 6.044c0-.259-.165-.468-.368-.468a.28.28 0 0 0-.044.004.468.468 0 0 1 .412.464zm-.412.464c.014.002.029.004.044.004.203 0 .368-.21.368-.468 0 .24-.18.436-.412.464zm-8.925.154s.923.12.803-.802c0 0 .321.501 1.044.04.722-.462.34-1.064.14-1.084-.2-.02-.482-.241-1.184.482l-.401-.924.461-.602s.064.87.734.626c.671-.244.17-1.73-.433-1.73l-1.083.623s.2-.562 1.083-1.024c0 0 .341-.2.14-.702-.2-.502-2.106-.14-2.408 2.308 0 0-.34-.321-.26-.823.08-.502-.984-.361-.783.722.2 1.084 1.244 1.305 1.244 1.305s.354.573.1 1.224c0 0 .402.502.803.361zM4.04 5.9c.722-.462.34-1.064.14-1.084-.123-.012-.277-.1-.54.001l.236.488s-.049.696-.826.518c0 0-.008.027-.029.07.088.103.412.394 1.019.007zm-1.037.027c-.12.216-.537.63-1.54.114-.019.09-.037.17-.073.26 0 0 .402.502.803.361 0 0 .877.114.81-.735zm.053-2.155s.064.87.734.626c.275-.1.353-.407.308-.736-.167.173-.684.613-.886-.318l-.924 1.07-.73.42.908-.226.53.69-.401-.924.461-.602zm-.631-.742c.149-.206.43-.5.932-.763 0 0 .341-.2.14-.702a.223.223 0 0 0-.011-.025.863.863 0 0 1-.323.46c-.373.258-1.701 1.182-1.28 2.575 0 0-.17-.862.542-1.545zm-1.355.823A.977.977 0 0 1 .83 3.05c.031-.198-.116-.296-.293-.275-.031.54.043 1.633 1.104 1.946 0 0-.402-.19-.57-.868z"/><path fill="#050505" d="M1.39 6.301l.803.361s-.722 3.974 3.05 4.134c0 0 .027 2.556-2.3 2.516 0 0-3.077-2.444-1.553-7.011z"/><path fill="#DD002A" fill-rule="nonzero" d="M2.352 8.824a3.656 3.656 0 0 1-.035-.11v-.002c-.179.093-.658.3-1.346.293.003.09.008.176.015.262.345.001.915-.045 1.412-.314v-.002a3.118 3.118 0 0 1-.041-.113l-.005-.014zm.255.57a3.02 3.02 0 0 1-.055-.1v-.001c-.206.097-.779.33-1.53.33.014.1.029.196.046.291.409 0 1.013-.072 1.603-.414l-.001-.002a2.73 2.73 0 0 1-.06-.099l-.003-.006zM1.39 6.3c-.217.597-.31 1.145-.382 1.659.382.073.767.08 1.144-.163-.048-.644.041-1.135.041-1.135l-.803-.361z"/><path fill="#050505" d="M9.993 10.695H5.466C.647 12.812 1.769 20.792 1.769 20.792h5.992v-3.65l.331 3.65h5.598s1.122-7.98-3.697-10.097z"/><path fill="#930023" d="M14.053 18.123c-.067-1.714-.412-3.92-1.567-5.572-1.383-1.478-2.934-1.728-2.934-1.728 3.366 2.754 3.29 7.61 3.29 7.61.45-.019.889-.169 1.211-.31z"/><path fill="#DD002A" fill-rule="nonzero" d="M1.964 15.668c-.016.073-.03.147-.045.22 1.332-.49 3.439-.807 5.81-.807 2.372 0 4.48.317 5.811.807l-.045-.22c-1.334-.481-3.42-.791-5.765-.791-2.346 0-4.432.31-5.766.79zm.264-1.008l-.06.198c1.337-.44 3.332-.72 5.562-.72 2.229 0 4.224.28 5.562.72a9.873 9.873 0 0 0-.06-.198c-1.337-.43-3.307-.701-5.502-.701-2.196 0-4.165.271-5.502.701zM4.1 11.572c-1.032 1.33-.92 2.948-.92 2.948l.28-.128c-.089-1.411.556-2.53.961-3.084a5.29 5.29 0 0 0-.321.264zm6.936-.264c.405.555 1.05 1.673.962 3.084l.28.128s.111-1.618-.92-2.948a5.205 5.205 0 0 0-.322-.264z"/><path fill="#F4CF8C" fill-rule="nonzero" d="M10.233 10.53s-.962.876-2.544.876c-1.882 0-2.463-.877-2.463-.877l-.333-6.131h5.673l-.333 6.131zm0 0s-.962.876-2.544.876c-1.882 0-2.463-.877-2.463-.877l-.333-6.131h5.673l-.333 6.131zm0 0s-.962.876-2.544.876c-1.882 0-2.463-.877-2.463-.877l-.333-6.131h5.673l-.333 6.131z"/><path fill="#B27D30" d="M8.45 5.443l.14-.178s.51-.026 1.294.395c0 0-.567-.701-1.422-.465l.026-.153-.242.395s.09.529-.006.911H7.22c-.096-.382-.007-.911-.007-.911l-.242-.395.025.153c-.854-.236-1.421.465-1.421.465.784-.42 1.294-.395 1.294-.395l.14.178c-.274.548-.918.593-.918.593.676.07.925-.35.925-.35-.039.33.031.767.031.767l.68.478.002-.003.004.003.678-.478s.07-.436.032-.768c0 0 .249.421.925.35 0 0-.644-.044-.918-.592z"/><ellipse cx="7.73" cy="7.429" fill="#050505" rx="1" ry="1"/><path fill="#DD002A" d="M7.73 8.014c.21 0 .404-.07.56-.14-.109-.118-.32-.198-.56-.198-.242 0-.452.08-.561.198.156.07.35.14.56.14z"/><path fill="#FFF" d="M7.73 6.871c-.514 0-.931.25-.931.558a.33.33 0 0 0 .004.048h1.854a.34.34 0 0 0 .003-.048c0-.308-.417-.558-.93-.558z"/><path fill="#C98C28" fill-rule="nonzero" d="M7.73 8.35c-.19 0-.365-.034-.512-.092a.644.644 0 0 0 1.023 0 1.403 1.403 0 0 1-.511.092zm0 1.659c-.323 0-.623-.058-.874-.157a1.1 1.1 0 0 0 .874.429 1.1 1.1 0 0 0 .873-.43c-.25.1-.55.158-.873.158z"/><path fill="#CEA063" d="M4.947 5.405h5.565l.054-1.007H4.893z"/><path fill="#050505" d="M10.579 4.398l.498-2.878S10.326.047 7.746.047C4.61.047 4.382 1.52 4.382 1.52l.498 2.878h5.699z"/><path fill="#DD002A" d="M4.667 3.164l.213 1.234h5.699l.213-1.234z"/><path fill="#050505" d="M11.439 5.086H4.02l-.23-.688h7.879z"/><circle cx="7.73" cy="3.558" r="1" fill="#050505"/><path fill="#DD002A" fill-rule="nonzero" d="M7.73 4.363a.806.806 0 1 1 .001-1.612.806.806 0 0 1-.001 1.612zm0-1.505A.7.7 0 1 0 7.73 4.26a.7.7 0 0 0-.001-1.402zm0 1.281a.582.582 0 1 1 0-1.163.582.582 0 0 1 0 1.163zm0-1.086a.506.506 0 1 0 0 1.012.506.506 0 0 0 0-1.012zm.145.301l.264-.19-.2.257.315-.083-.28.167.324.037-.321.055.289.152-.32-.065.214.246-.274-.176.111.306-.192-.263-.007.326-.085-.315-.124.301.035-.324-.225.236.15-.29-.295.14.245-.216-.325.023.305-.113-.311-.096.326.005-.256-.202.302.123-.166-.281.238.223-.053-.322.14.295.068-.32.025.326.177-.274-.094.312z"/><path fill="#050505" d="M7.903 3.558a.174.174 0 1 1-.347 0 .174.174 0 0 1 .347 0z"/><path fill="#DD002A" d="M7.689 11.406c-1.881 0-2.463-.876-2.463-.877l.067 1.245s.566.853 2.397.853c1.54 0 2.476-.853 2.476-.853l.067-1.245c0 .001-.963.877-2.544.877z"/><path fill="#050505" d="M7.734 12.61c.048-.161.078-.37.078-.597 0-.227-.03-.435-.078-.597-.049.162-.078.37-.078.597 0 .228.03.436.078.598z"/><circle cx="8.175" cy="12.052" r="1" fill="#930023"/><circle cx="8.137" cy="12.013" r="1" fill="#FFF"/><path fill="#FFB000" fill-rule="nonzero" d="M8.339 13.727H7.12a.35.35 0 0 0-.35.35v.867c0 .194.157.351.35.351H8.34a.35.35 0 0 0 .35-.35v-.867a.35.35 0 0 0-.35-.35zm-.095.487v.595a.064.064 0 0 1-.065.064h-.9a.064.064 0 0 1-.064-.064v-.595c0-.036.03-.065.065-.065h.9c.035 0 .064.03.064.065z"/><path fill="#C98C28" d="M7.053 6.457l.673.475.004-.004.003.004.673-.475z"/><path fill="#4F1907" fill-rule="nonzero" d="M7.73 6.826s-.568-.675-1.9-.344c-1.332.332-2.014 1.982-2.014 1.982s.726.542 1.861.396c1.135-.147 2.059-1.358 2.052-2.034zm0 0s.567-.675 1.899-.344c1.332.332 2.014 1.982 2.014 1.982s-.726.542-1.861.396C8.647 8.713 7.723 7.502 7.73 6.826z"/><path fill="#DD002A" d="M10.49 12.62h.118l-.207.257-.209-.257h.119v-.115h-.446v.115h.177l.297.366v.229h-.172v.116h.469v-.116h-.174v-.229l.298-.366h.176v-.115h-.446z"/></g></g></g></svg>