<svg xmlns="http://www.w3.org/2000/svg" width="16" height="16" viewBox="0 0 16 16"><rect id="frame" width="16" height="16" fill="none"/><g fill="none" fill-rule="evenodd"><path fill="#9AA7B0" fill-opacity=".8" d="M7 1a6.002 6.002 0 0 1 5.658 8l-1.297.001A4.757 4.757 0 0 0 11.8 7a4.803 4.803 0 0 0-3-4.446V2.8c0 .66-.54 1.2-1.2 1.2H6.4v1.2c0 .33-.27.6-.6.6H4.6V7h3.6c.33 0 .6.27.6.6L6 10v.53a1.205 1.205 0 0 1-.8-1.13v-.6L2.326 5.926A4.87 4.87 0 0 0 2.2 7 4.793 4.793 0 0 0 6 11.691v1.226A6.004 6.004 0 0 1 1 7c0-3.312 2.688-6 6-6z"/><g fill="#40B6E0"><path d="M13 16.001l3-2.499L13 11v2.001H8v1h5z"/><path d="M7 10.497l3 2.504V11h5v-1h-5V8.001z"/></g></g></svg>