<svg xmlns="http://www.w3.org/2000/svg" width="16" height="16" viewBox="0 0 16 16">
  <path fill="#6E6E6E" fill-rule="evenodd" d="M6.68 12L13.752 4.929 11.823 3 6.68 8.143 4.108 5.571 2.18 7.5zM11.5234 10.9395L10.5534 10.9395C10.5534 9.8675 11.4214 9.0005 12.4934 9.0005 13.5644 9.0005 14.4314 9.8675 14.4314 10.9395 14.4314 12.0365 13.2504 12.2465 13.0254 13.0855L12.0424 13.0855C12.2104 11.8055 13.4624 11.7695 13.4624 10.9395 13.4624 10.4065 13.0264 9.9695 12.4934 9.9695 11.9604 9.9695 11.5234 10.4065 11.5234 10.9395L11.5234 10.9395zM12.0074 14.9895L12.9774 14.9895 12.9774 14.0205 12.0074 14.0205 12.0074 14.9895z"/>
</svg>
