<svg xmlns="http://www.w3.org/2000/svg" width="16" height="16" viewBox="0 0 16 16"><rect id="frame" width="16" height="16" fill="none"/><g fill="none" fill-rule="evenodd"><path fill="#9AA7B0" fill-opacity=".8" d="M15 9l-1.484-2.364-8.754 4.356a.304.304 0 0 0-.16.264.309.309 0 0 0 .145.274l1.837 1.089.154.381H1V2.051C1 2.023 1.023 2 1.051 2H4.98a2.8 2.8 0 0 1 1.717.711L7.985 4H15v5z"/><path fill="#4A0000" d="M15.845 12.566l-.714-.252-.087-.522a.178.178 0 0 0-.296-.102l-.884.816-.488-1.044a8.832 8.832 0 0 0 .924-1.975.179.179 0 0 0-.246-.213l-1.394.65-.253-.54.485-1.118a.178.178 0 1 0-.239-.232l-6.547 3.053a.178.178 0 0 0-.01.318l1.192.644.921 1.976a.18.18 0 0 0 .1.092l2.703.986a.177.177 0 0 0 .136-.006l4.713-2.201a.178.178 0 0 0-.016-.33"/><path fill="#CA1F27" d="M14.796 12.476l-.05-.3-.724.67.198.426 1.096-.514-.403-.143a.18.18 0 0 1-.117-.139"/><path fill="#FFD440" d="M7.561 11.791l-.988-.533.608-.281.38.814"/><path fill="#CA1F27" d="M12.873 11.562l.008-.01c.462-.65.773-1.351.937-1.775l-3.516 1.64a.18.18 0 0 1-.253-.15c0-.008-.055-.773-.484-1.041-.2-.126-.467-.123-.79.008l-1.594.743 1.32 2.83 2.563.936 2.568-1.197c-.168-.244-.541-.736-1.04-1.09-.39.393-.852.718-1.39.886a.178.178 0 1 1-.106-.34s.962-.245 1.777-1.44"/><path fill="#4A0000" d="M8.485 10.916a.427.427 0 1 0-.292.802.427.427 0 0 0 .292-.802"/></g></svg>