<svg xmlns="http://www.w3.org/2000/svg" width="16" height="16" viewBox="0 0 16 16">
  <g fill="none" fill-rule="evenodd" transform="translate(0 2)">
    <path fill="#4A0000" d="M15.7516576,7.30633463 L14.6093074,6.90291051 L14.4708482,6.06680156 C14.4537276,5.9629572 14.3808872,5.8774786 14.2818988,5.84342412 C14.1829105,5.81011673 14.073463,5.8326537 13.9960156,5.90368872 L12.5818521,7.20989883 L11.8020856,5.53886381 C12.7740389,4.01270039 13.2454475,2.49338521 13.28,2.37933074 C13.312,2.27119066 13.2786304,2.15489494 13.1937743,2.08118288 C13.1089183,2.00753307 12.9887626,1.99140856 12.8867237,2.03835019 L10.6553152,3.07922179 L10.2518288,2.21354086 L11.0276732,0.425151751 C11.0749883,0.317011673 11.0498988,0.190381323 10.9647938,0.108202335 C10.8795019,0.0249649805 10.7528716,0.00373540856 10.6455409,0.0536031128 L0.169151751,4.93945525 C0.0710972763,4.98484047 0.00709727626,5.08171206 0.00385992218,5.18954086 C0.001307393,5.29674708 0.0583346304,5.39766537 0.153587549,5.44877821 L2.06026459,6.47825681 L3.53444358,9.63996887 C3.56669261,9.70789105 3.62415564,9.76099611 3.69487938,9.78689494 L8.0187393,11.3647315 C8.05024125,11.3763113 8.08342412,11.3822257 8.116607,11.3822257 C8.15738521,11.3822257 8.19866148,11.3730739 8.23670039,11.355642 L15.7778677,7.83315175 C15.8822101,7.78403113 15.9469572,7.67663813 15.9411051,7.56096498 C15.9358132,7.4454786 15.8606693,7.34462257 15.7516576,7.30633463"/>
    <path fill="#CA1F27" d="M14.0741479,7.16214786 L13.9948327,6.68077821 L12.8346148,7.75284047 L13.1526848,8.43449027 L14.9058366,7.61207782 L14.2605447,7.38428016 C14.1631751,7.34985214 14.0915175,7.26424903 14.0741479,7.16214786"/>
    <polyline fill="#FFD440" points="2.497 6.066 .917 5.213 1.89 4.763 2.497 6.066"/>
    <path fill="#CA1F27" d="M10.9972918,5.69954864 C11.001463,5.69350973 11.0056342,5.68828016 11.0100545,5.68236576 C11.7485447,4.64280156 12.2461012,3.52093385 12.5095097,2.843393 L6.88398444,5.46664591 C6.79819455,5.50617899 6.69920623,5.50094942 6.61802335,5.45332296 C6.53708949,5.40550973 6.48516732,5.32009339 6.47869261,5.2265214 C6.47819455,5.21388327 6.38966537,3.99103502 5.70353307,3.56140078 C5.38291051,3.36037354 4.95670039,3.36535409 4.43965759,3.57509728 L1.88912062,4.76382879 L4.00143191,9.29226459 L8.10266148,10.7893541 L12.2108638,8.87433463 C11.9421012,8.48286381 11.3453074,7.69562646 10.5479222,7.13083268 C9.92236576,7.7581323 9.18412451,8.27766537 8.32435798,8.54729961 C8.29603113,8.55614008 8.26751751,8.56031128 8.23925292,8.56031128 C8.11822568,8.56031128 8.00572763,8.48205447 7.96768872,8.3602179 C7.9204358,8.2103035 8.00392218,8.05005447 8.15414786,8.00367315 C8.15414786,8.00367315 9.69301167,7.61170428 10.9972918,5.69954864"/>
    <path fill="#4A0000" d="M3.97590661,4.66496498 C3.62166537,4.53603113 3.22907393,4.71863035 3.10063813,5.07299611 C2.97151751,5.42742412 3.15442802,5.81926848 3.50848249,5.94776654 C3.86303502,6.0772607 4.25506615,5.89466148 4.384,5.53967315 C4.5124358,5.18568093 4.33021012,4.79389883 3.97590661,4.66496498"/>
  </g>
</svg>
