<svg xmlns="http://www.w3.org/2000/svg" width="16" height="16" viewBox="0 0 16 16"><rect id="frame" width="16" height="16" fill="none"/><g fill="none" fill-rule="evenodd"><path fill="#4A0000" d="M15.752 9.306l-1.143-.403-.138-.836a.285.285 0 0 0-.475-.163L12.582 9.21l-.78-1.671a14.132 14.132 0 0 0 1.478-3.16.286.286 0 0 0-.393-.341L10.655 5.08l-.403-.865.776-1.789a.284.284 0 1 0-.382-.372L.169 6.94a.285.285 0 0 0-.015.51l1.906 1.03 1.474 3.161c.033.068.09.121.16.147l4.325 1.578a.284.284 0 0 0 .218-.01l7.54-3.522a.285.285 0 0 0-.025-.527"/><path fill="#CA1F27" d="M14.074 9.162l-.08-.481-1.16 1.072.319.681 1.753-.822-.645-.228a.287.287 0 0 1-.187-.222"/><path fill="#FFD440" d="M2.497 8.066l-1.58-.853.973-.45.607 1.303"/><path fill="#CA1F27" d="M10.997 7.7l.013-.018c.739-1.04 1.236-2.161 1.5-2.839L6.884 7.467a.287.287 0 0 1-.405-.24c0-.013-.09-1.236-.775-1.666-.321-.2-.747-.196-1.264.014L1.89 6.764 4 11.292l4.102 1.497 4.108-1.915c-.269-.391-.866-1.178-1.663-1.743-.626.627-1.364 1.147-2.224 1.416a.285.285 0 1 1-.17-.543s1.539-.392 2.843-2.304"/><path fill="#4A0000" d="M3.976 6.665a.683.683 0 1 0-.467 1.283.683.683 0 0 0 .467-1.283"/></g></svg>