<svg width="32" height="32" viewBox="0 0 32 32" fill="none" xmlns="http://www.w3.org/2000/svg"><rect id="frame" width="32" height="32" fill="none"/><path d="M30 2H2v28h28V2z" fill="url(#paint0_linear)"/><path d="M26 6H6v20h20V6z" fill="url(#paint1_linear)"/><path d="M16 23H8v1h8v-1z" fill="#fff"/><path d="M8 8.116h3.136c1.792 0 2.912 1.16 2.912 2.667 0 1.855-1.344 2.782-3.024 2.782H9.792v2.32H8V8.115zm3.024 4.058c.784 0 1.344-.58 1.344-1.275 0-.812-.56-1.16-1.344-1.16H9.792v2.435h1.232z" fill="#fff"/><path d="M15.5 8.12h2.97c2.4 0 4.114 1.714 4.114 3.885s-1.714 3.885-4.113 3.885H15.5V8.12zm1.714 1.6v4.685h1.371c1.371 0 2.285-.915 2.285-2.286 0-1.37-.914-2.285-2.285-2.285l-1.371-.114z" fill="#fff"/><defs><linearGradient id="paint0_linear" x1="33.094" y1="33.119" x2="-6.458" y2="-6.432" gradientUnits="userSpaceOnUse"><stop offset=".347" stop-color="#07C3F2"/><stop offset=".816" stop-color="#21D789"/></linearGradient><linearGradient id="paint1_linear" x1="15.973" y1="1.139" x2="15.973" y2="19.075" gradientUnits="userSpaceOnUse"><stop offset=".084" stop-color="#878585"/><stop offset=".538"/></linearGradient></defs></svg>