<svg width="64" height="64" viewBox="0 0 64 64" fill="none" xmlns="http://www.w3.org/2000/svg"><rect id="frame" width="64" height="64" fill="none"/><path d="M58 6H6v52h52V6z" fill="url(#paint0_linear)"/><path d="M51 13H13v38h38V13z" fill="url(#paint1_linear)"/><path d="M32.144 44H18v2.322h14.144V44z" fill="#fff"/><path d="M17.645 17.644h5.805c3.378 0 5.489 2.006 5.489 4.962 0 3.272-2.533 4.96-5.806 4.96h-2.427v4.223h-3.167V17.644h.105zm5.594 7.284c1.583 0 2.428-1.056 2.428-2.217 0-1.372-.95-2.111-2.534-2.111h-2.427v4.328h2.533z" fill="#fff"/><path d="M30.945 17.645h5.594c4.539 0 7.6 3.06 7.6 7.072 0 4.01-3.061 7.178-7.6 7.178L30.944 32V17.645zM34.11 20.6v8.55h2.428c2.533 0 4.328-1.689 4.328-4.222 0-2.534-1.69-4.328-4.328-4.328H34.11z" fill="#fff"/><defs><linearGradient id="paint0_linear" x1="63.789" y1="63.794" x2="-9.664" y2="-9.659" gradientUnits="userSpaceOnUse"><stop offset=".347" stop-color="#07C3F2"/><stop offset=".816" stop-color="#21D789"/></linearGradient><linearGradient id="paint1_linear" x1="31.949" y1="3.764" x2="31.949" y2="37.843" gradientUnits="userSpaceOnUse"><stop offset=".084" stop-color="#878585"/><stop offset=".538"/></linearGradient></defs></svg>