<svg xmlns="http://www.w3.org/2000/svg" width="16" height="16" viewBox="0 0 16 16"><rect id="frame" width="16" height="16" fill="none"/><g fill="none" fill-rule="evenodd"><path fill="#9AA7B0" d="M12.5 9A3.501 3.501 0 0 0 9 12.5c0 1.932 1.568 3.5 3.5 3.5s3.5-1.568 3.5-3.5S14.432 9 12.5 9zm-.35 6.275a2.796 2.796 0 0 1-2.377-3.402l1.677 1.677v.35c0 .385.315.7.7.7v.675zm2.415-.889a.694.694 0 0 0-.665-.486h-.35v-1.05a.351.351 0 0 0-.35-.35h-2.1v-.7h.7c.192 0 .35-.158.35-.35v-.7h.7c.385 0 .7-.315.7-.7v-.144A2.802 2.802 0 0 1 15.3 12.5c0 .728-.28 1.39-.735 1.886z"/><path fill="#F98B9E" fill-opacity=".6" d="M14.962 8.733a4.5 4.5 0 0 0-6.23 6.23 7 7 0 1 1 6.23-6.23z"/><path fill="#231F20" fill-opacity=".7" d="M11.992 8.028a4.474 4.474 0 0 0-.987.226V8c0-.26-.2-1-1.223-1C8.759 7 8.5 7.686 8.5 8v2.436c-.094.182-.175.37-.244.564H7.5V8c-.001-.463-.35-1-1.3-1-.95 0-1.15.766-1.2 1-.033.156-.033 1.156 0 3H4V6h1v.4c.465-.267.932-.4 1.4-.4.733 0 1.3.202 1.699.604C8.498 6.202 9.092 6 9.882 6c1.616 0 2.11 1.251 2.11 2v.028z"/></g></svg>