<svg xmlns="http://www.w3.org/2000/svg" width="16" height="16" viewBox="0 0 16 16"><rect id="frame" width="16" height="16" fill="none"/><g fill="none" fill-rule="evenodd"><path fill="#9AA7B0" d="M12.5 9A3.501 3.501 0 0 0 9 12.5c0 1.932 1.568 3.5 3.5 3.5s3.5-1.568 3.5-3.5S14.432 9 12.5 9zm-.35 6.275a2.796 2.796 0 0 1-2.377-3.402l1.677 1.677v.35c0 .385.315.7.7.7v.675zm2.415-.889a.694.694 0 0 0-.665-.486h-.35v-1.05a.351.351 0 0 0-.35-.35h-2.1v-.7h.7c.192 0 .35-.158.35-.35v-.7h.7c.385 0 .7-.315.7-.7v-.144A2.802 2.802 0 0 1 15.3 12.5c0 .728-.28 1.39-.735 1.886z"/><path fill="#F98B9E" fill-opacity=".6" d="M14.962 8.733a4.5 4.5 0 0 0-6.23 6.23 7 7 0 1 1 6.23-6.23z"/><path fill="#231F20" fill-opacity=".7" d="M11.992 8.028a4.474 4.474 0 0 0-.987.226V8c0-.26 0-1-1.023-1S9 7.686 9 8v1.671a4.493 4.493 0 0 0-.744 1.33H8V8c-.001-.463-.05-1-1-1s-.95.766-1 1c-.033.156-.033 1.156 0 3H5V6h1v.3c.265-.2.632-.3 1.1-.3.844 0 1.184.194 1.499.6.059-.098.513-.6 1.383-.6 1.653 0 2.01 1.251 2.01 2v.028z"/></g></svg>