<svg xmlns="http://www.w3.org/2000/svg" width="16" height="16" viewBox="0 0 16 16">
  <g fill="none" fill-rule="evenodd">
    <g fill="#9AA7B0" transform="matrix(-1 0 0 1 15 2)">
      <polygon fill-opacity=".8" points="14 0 9 0 9 12 14 12"/>
      <path d="M1,5 L4,5 L4,3 L1,3 L1,5 Z M1,6 L0,6 L0,3 L0,0 L8,0 L8,3 L5,3 L5,5 L8,5 L8,6 L1,6 Z"/>
    </g>
    <path fill="#231F20" fill-opacity=".7" d="M2.21112046,3.06149393 L2.85167601,3.70204947 L1.93659664,4.61712884 C1.27959695,5.27412853 1.27959695,6.33933551 1.93659664,6.9963352 C2.59359634,7.6533349 3.65880331,7.6533349 4.31580301,6.9963352 L5.23088237,6.08125584 L5.87143792,6.72181138 L4.95635855,7.63689075 C3.9455898,8.6476595 2.30680985,8.6476595 1.2960411,7.63689075 C0.285272344,6.62612199 0.285272344,4.98734205 1.2960411,3.97657329 L2.21112046,3.06149393 Z M3.12619983,2.14641457 L4.04127919,1.2313352 C5.05204795,0.220566446 6.69082789,0.220566446 7.70159665,1.2313352 C8.7123654,2.24210396 8.7123654,3.8808839 7.70159665,4.89165266 L6.78651728,5.80673202 L6.14596174,5.16617648 L7.0610411,4.25109711 C7.7180408,3.59409742 7.7180408,2.52889044 7.0610411,1.87189075 C6.40404141,1.21489105 5.33883443,1.21489105 4.68183473,1.87189075 L3.76675537,2.78697011 L3.12619983,2.14641457 Z M2.66866015,5.34919234 L5.41389824,2.60395425 L6.3289776,3.51903361 L3.58373951,6.2642717 L2.66866015,5.34919234 Z" transform="translate(7.5 7.6)"/>
  </g>
</svg>
