<svg xmlns="http://www.w3.org/2000/svg" width="16" height="16" viewBox="0 0 16 16"><rect id="frame" width="16" height="16" fill="none"/><g fill="#9AA7B0" fill-rule="evenodd"><path fill-opacity=".8" d="M1 2h5v12H1z"/><path d="M14 7h-3V5h3v2zm0 1h1V2H7v3h3v2H7v1h7z"/><path d="M9.711 10.661l.64.641-.914.915a1.682 1.682 0 0 0 2.379 2.38l.915-.916.64.64-.915.916a2.588 2.588 0 0 1-3.66-3.66l.915-.916zm.915-.915l.915-.915a2.588 2.588 0 0 1 3.66 3.66l-.914.916-.641-.64.915-.916a1.682 1.682 0 1 0-2.38-2.38l-.914.916-.64-.64zm-.457 3.203l2.745-2.745.915.915-2.745 2.745-.915-.915z"/></g></svg>