<svg ti:v="1" width="16" height="16" viewBox="0 0 16 16" xmlns="http://www.w3.org/2000/svg" xmlns:ti="urn:schemas-jetbrains-com:tisvg"><rect id="frame" width="16" height="16" fill="none"/><linearGradient id="a" x1="0" y1=".5" x2="1" y2=".5"><stop offset="0" stop-color="#6D9C00"/><stop offset="1" stop-color="#046"/></linearGradient><path fill-rule="evenodd" d="M0 9c0 1.18.804 2.228 2 2.713V16h2.414L6 14.414V12H5v-.287C6.197 11.228 7 10.18 7 9c0-1.655-1.57-3-3.5-3S0 7.345 0 9z" fill="url(#a)"/><linearGradient id="b" x1=".5" y1="0" x2=".5" y2="1"><stop offset="0" stop-color="#DFFDAC"/><stop offset="1" stop-color="#B1F767"/></linearGradient><path fill-rule="evenodd" d="M1 9c0 .968.859 1.774 2 1.96V15h1l1-1v-1H4v-2.04c1.141-.186 2-.992 2-1.96 0-1.105-1.119-2-2.5-2S1 7.895 1 9z" fill="url(#b)"/><linearGradient id="c" x1="0" y1=".5" x2="1" y2=".5"><stop offset="0" stop-color="#008E9C"/><stop offset="1" stop-color="#046"/></linearGradient><path fill-rule="evenodd" d="M2 9c0 .553.672 1 1.5 1S5 9.553 5 9c0-.553-.672-1-1.5-1S2 8.447 2 9z" fill="url(#c)"/></svg>