<svg ti:v="1" width="16" height="16" viewBox="0 0 16 16" xmlns="http://www.w3.org/2000/svg" xmlns:ti="urn:schemas-jetbrains-com:tisvg"><rect id="frame" width="16" height="16" fill="none"/><linearGradient id="a" x1=".5" y1="0" x2=".5" y2="1"><stop offset="0" stop-color="#008CB3"/><stop offset="1" stop-color="#004782"/></linearGradient><path fill-rule="evenodd" d="M16 16H0V9h16v7z" fill="url(#a)"/><linearGradient id="b" x1=".5" y1="0" x2=".5" y2="1"><stop offset="0" stop-color="#004782"/><stop offset="1" stop-color="#008CB3"/></linearGradient><path fill-rule="evenodd" d="M15 15H9v-5h6v5z" fill="url(#b)"/><linearGradient id="c" x1=".5" y1="0" x2=".5" y2="1"><stop offset="0" stop-color="#E3F9FF"/><stop offset="1" stop-color="#B0DCFF"/></linearGradient><path fill-rule="evenodd" d="M14 15h1v-1h-1m0-1h1v-1h-1m0-1h1v-1h-1m-3 0h-1v1h1m2-1h-1v1h1m-1 4h1v-1h-1m-2 1h1v-1h-1m-1 1H1v-5h8v5z" fill="url(#c)"/><linearGradient id="d" x1=".5" y1=".021" x2=".5" y2="1"><stop offset="0" stop-color="#455A5D"/><stop offset="1" stop-color="#1A7485"/></linearGradient><path fill-rule="evenodd" d="M3.664 1A4.022 4.022 0 0 0 1 4.777c0 1.442.781 2.758 2 3.467v2.746C3 12.098 3.896 13 5 13c1.103 0 2-.902 2-2.01V8.244a4.02 4.02 0 0 0 2-3.467A4.023 4.023 0 0 0 6.335 1H3.664z" fill="url(#d)"/><linearGradient id="e" x1=".5" y1=".024" x2=".5" y2="1.003"><stop offset="0" stop-color="#BFFFE6"/><stop offset="1" stop-color="#A8D8E0"/></linearGradient><path fill-rule="evenodd" d="M6 5H4V2a2.994 2.994 0 0 0-2 2.817c0 1.303.838 2.402 2 2.816V11a1 1 0 1 0 2 0V7.633a2.994 2.994 0 0 0 2-2.816A2.994 2.994 0 0 0 6 2v3z" fill="url(#e)"/></svg>