<svg ti:v="1" width="16" height="16" viewBox="0 0 16 16" xmlns="http://www.w3.org/2000/svg" xmlns:ti="urn:schemas-jetbrains-com:tisvg"><rect id="frame" width="16" height="16" fill="none"/><g fill-rule="evenodd"><path d="M16 16H0V9h16v7z" fill="#F4F4F4"/><path d="M15 15H9v-5h6v5z" fill="#EBEBEB"/><path d="M14 15h1v-1h-1m0-1h1v-1h-1m0-1h1v-1h-1m-3 0h-1v1h1m2-1h-1v1h1m-1 4h1v-1h-1m-2 1h1v-1h-1m-1 1H1v-5h8v5z" fill="#313131"/><path d="M5 13c-1.104 0-2-.902-2-2.01V8.244a4.02 4.02 0 0 1-2-3.467A4.022 4.022 0 0 1 3.664 1h2.672A4.022 4.022 0 0 1 9 4.777a4.02 4.02 0 0 1-2 3.467v2.746C7 12.098 6.104 13 5 13z" fill="#F4F4F4"/><path d="M6 2v3H4V2a2.994 2.994 0 0 0-2 2.816c0 1.304.838 2.403 2 2.817V11a1 1 0 1 0 2 0V7.633a2.994 2.994 0 0 0 2-2.817A2.994 2.994 0 0 0 6 2z" fill="#313131"/></g></svg>