<svg ti:v="1" width="16" height="16" viewBox="0 0 16 16" xmlns="http://www.w3.org/2000/svg" xmlns:ti="urn:schemas-jetbrains-com:tisvg"><rect id="frame" width="16" height="16" fill="none"/><g fill-rule="evenodd"><path d="M16 16H0V9h16v7z" fill="#F4F4F4"/><path d="M15 15H9v-5h6v5z" fill="#EBEBEB"/><path d="M14 15h1v-1h-1m0-1h1v-1h-1m0-1h1v-1h-1m-3 0h-1v1h1m2-1h-1v1h1m-1 4h1v-1h-1m-2 1h1v-1h-1m-1 1H1v-5h8v5z" fill="#313131"/><path d="M2 11.414l3 3 3-3V3H2v8.414z" fill="#F4F4F4"/><path d="M5.999 0H4C2.897 0 2 .898 2 2v1h6V2c0-1.103-.897-2-2.001-2z" fill="#F4F4F4"/><path d="M3 11l2 2 2-2m0-1H3V4h4v6z" fill="#313131"/><path d="M6 1H4c-.553 0-1 .448-1 1v1h4V2a1 1 0 0 0-1-1z" fill="#313131"/><path d="M5 10H4V4h1v6z" fill="#313131"/></g></svg>