<svg ti:v="1" width="16" height="16" viewBox="0 0 16 16" xmlns="http://www.w3.org/2000/svg" xmlns:ti="urn:schemas-jetbrains-com:tisvg"><rect id="frame" width="16" height="16" fill="none"/><linearGradient id="a" x1=".5" y1="0" x2=".5" y2="1"><stop offset="0" stop-color="#008CB3"/><stop offset="1" stop-color="#004782"/></linearGradient><path fill-rule="evenodd" d="M16 16H0V9h16v7z" fill="url(#a)"/><linearGradient id="b" x1=".5" y1="0" x2=".5" y2="1"><stop offset="0" stop-color="#004782"/><stop offset="1" stop-color="#008CB3"/></linearGradient><path fill-rule="evenodd" d="M15 15H9v-5h6v5z" fill="url(#b)"/><linearGradient id="c" x1=".5" y1="0" x2=".5" y2="1"><stop offset="0" stop-color="#E3F9FF"/><stop offset="1" stop-color="#B0DCFF"/></linearGradient><path fill-rule="evenodd" d="M14 15h1v-1h-1m0-1h1v-1h-1m0-1h1v-1h-1m-3 0h-1v1h1m2-1h-1v1h1m-1 4h1v-1h-1m-2 1h1v-1h-1m-1 1H1v-5h8v5z" fill="url(#c)"/><linearGradient id="d" x1="-.156" y1=".5" x2="1.009" y2=".5"><stop offset="0" stop-color="#00991B"/><stop offset="1" stop-color="#005D10"/></linearGradient><path fill-rule="evenodd" d="M2 11.414l3 3 3-3V3H2v8.414z" fill="url(#d)"/><linearGradient id="e" x1=".01" y1=".5" x2="1.002" y2=".5"><stop offset="0" stop-color="#874619"/><stop offset="1" stop-color="#460000"/></linearGradient><path fill-rule="evenodd" d="M4 0C2.898 0 2 .898 2 2v1h6V2c0-1.103-.898-2-2.001-2H4z" fill="url(#e)"/><linearGradient id="f" x1=".016" y1=".5" x2="1" y2=".5"><stop offset="0" stop-color="#B3FF00"/><stop offset="1" stop-color="#91CF00"/></linearGradient><path fill-rule="evenodd" d="M3 10h4V4H3m0 7l2 2 2-2H3z" fill="url(#f)"/><linearGradient id="g" x1="0" y1=".5" x2="1.017" y2=".5"><stop offset="0" stop-color="#FDFFC7"/><stop offset="1" stop-color="#FF9128"/></linearGradient><path fill-rule="evenodd" d="M4 1c-.553 0-1 .448-1 1v1h4V2a1 1 0 0 0-1-1H4z" fill="url(#g)"/><path fill-rule="evenodd" d="M5 10H4V4h1v6z" fill="#FFF"/></svg>