<svg ti:v="1" width="16" height="16" viewBox="0 0 16 16" xmlns="http://www.w3.org/2000/svg" xmlns:ti="urn:schemas-jetbrains-com:tisvg"><rect id="frame" width="16" height="16" fill="none"/><linearGradient id="a" x1="0" y1=".5" x2="1" y2=".5"><stop offset="0" stop-color="#114262"/><stop offset="1" stop-color="#0B5D96"/></linearGradient><path fill-rule="evenodd" d="M5 11v1.5C5 14.43 6.57 16 8.5 16s3.5-1.57 3.5-3.5V11H5z" fill="url(#a)"/><linearGradient id="b" x1=".5" y1=".017" x2=".5" y2="1.008"><stop offset="0" stop-color="#FFA600"/><stop offset="1" stop-color="#8A6D00"/></linearGradient><path fill-rule="evenodd" d="M3 5.5c0 1.704.779 3.23 2 4.24V11h7V9.74a5.493 5.493 0 0 0 2-4.24C14 2.468 11.533 0 8.5 0A5.507 5.507 0 0 0 3 5.5z" fill="url(#b)"/><linearGradient id="c" x1="0" y1=".5" x2="1" y2=".5"><stop offset="0" stop-color="#E3F7FF"/><stop offset="1" stop-color="#455777"/></linearGradient><path fill-rule="evenodd" d="M6 11v1.5a2.5 2.5 0 0 0 5 0V11H6z" fill="url(#c)"/><path fill-rule="evenodd" d="M13 5.5a4.5 4.5 0 1 0-7 3.74V11h5V9.24c1.205-.807 2-2.18 2-3.74z" fill="#FFF"/><linearGradient id="d" x1=".5" y1=".007" x2=".5" y2="1.002"><stop offset="0" stop-color="#FFF"/><stop offset="1" stop-color="#FC0"/></linearGradient><path fill-rule="evenodd" d="M5 5.5c0 1.39.822 2.585 2 3.149V10h3V8.649A3.496 3.496 0 0 0 12 5.5C12 3.57 10.43 2 8.5 2S5 3.57 5 5.5z" fill="url(#d)"/><path fill-rule="evenodd" d="M9.5 6l-1 1-1-1H7l1 2v2h1V8l1-2h-.5z" fill="#9F5B00"/></svg>