<svg ti:v="1" width="16" height="16" viewBox="0 0 16 16" xmlns="http://www.w3.org/2000/svg" xmlns:ti="urn:schemas-jetbrains-com:tisvg"><rect id="frame" width="16" height="16" fill="none"/><g fill-rule="evenodd"><path d="M6 15c-.775 0-1.496-.37-2-.716-.504.346-1.225.716-2 .716H.016L0 14v-2h2V7H0V4h2c.775 0 1.496.37 2 .716C4.504 4.37 5.225 4 6 4h1.984L8 5v2H6v5h2v3H6z" fill="#242424"/><path d="M7 6V5H6C5 5 4 6 4 6S3 5 2 5H1v1h2v7H1v1h1c1 0 2-1 2-1s1 1 2 1h1v-1H5V6h2z" fill="#C4C4C4"/><path d="M8 11V7.829A3.006 3.006 0 0 1 6 5V3c0-1.654 1.346-3 3-3h4c1.654 0 3 1.346 3 3v2c0 1.654-1.346 3-3 3h-.172l-3 3H8z" fill="#242424"/><path d="M13 1H9c-1.103 0-2 .897-2 2v2c0 1.103.897 2 2 2v3h.414l3-3H13c1.103 0 2-.897 2-2V3c0-1.103-.897-2-2-2z" fill="#C4C4C4"/><path d="M13 2H9a1 1 0 0 0-1 1v2a1 1 0 0 0 1 1h1v2l2-2h1a1 1 0 0 0 1-1V3a1 1 0 0 0-1-1z" fill="#282828"/></g></svg>