<svg ti:v="1" width="16" height="16" viewBox="0 0 16 16" xmlns="http://www.w3.org/2000/svg" xmlns:ti="urn:schemas-jetbrains-com:tisvg"><rect id="frame" width="16" height="16" fill="none"/><linearGradient id="a" x1="0" y1=".5" x2="1" y2=".5"><stop offset="0" stop-color="#114262"/><stop offset="1" stop-color="#0B5D96"/></linearGradient><path fill-rule="evenodd" d="M7 11v1.5c0 1.93 1.57 3.5 3.5 3.5 1.929 0 3.5-1.57 3.5-3.5V11H7z" fill="url(#a)"/><linearGradient id="b" x1=".5" y1=".017" x2=".5" y2="1.008"><stop offset="0" stop-color="#FFA600"/><stop offset="1" stop-color="#8A6D00"/></linearGradient><path fill-rule="evenodd" d="M5 5.5c0 1.704.779 3.23 2 4.24V11h7V9.74c1.22-1.01 2-2.536 2-4.24C16 2.468 13.533 0 10.5 0A5.506 5.506 0 0 0 5 5.5z" fill="url(#b)"/><linearGradient id="c" x1="0" y1=".5" x2="1" y2=".5"><stop offset="0" stop-color="#E3F7FF"/><stop offset="1" stop-color="#455777"/></linearGradient><path fill-rule="evenodd" d="M8 11v1.5a2.5 2.5 0 1 0 5 0V11H8z" fill="url(#c)"/><path fill-rule="evenodd" d="M15 5.5a4.5 4.5 0 1 0-7 3.74V11h5V9.24c1.205-.807 2-2.18 2-3.74z" fill="#FFF"/><linearGradient id="d" x1=".5" y1=".007" x2=".5" y2="1.002"><stop offset="0" stop-color="#FFF"/><stop offset="1" stop-color="#FC0"/></linearGradient><path fill-rule="evenodd" d="M7 5.5c0 1.39.822 2.585 2 3.149V10h3V8.649A3.498 3.498 0 0 0 14 5.5C14 3.57 12.429 2 10.5 2 8.57 2 7 3.57 7 5.5z" fill="url(#d)"/><path fill-rule="evenodd" d="M11.5 6l-1 1-1-1H9l1 2v2h1V8l1-2h-.5z" fill="#9F5B00"/><path fill-rule="evenodd" d="M8 7H1V4h7v3z" fill="#4D606B"/><linearGradient id="e" x1=".5" y1=".006" x2=".5" y2="1.002"><stop offset="0" stop-color="#804C00"/><stop offset=".313" stop-color="#533100"/><stop offset="1" stop-color="#804C00"/></linearGradient><path fill-rule="evenodd" d="M0 7v3h1v3h2v3h3v-3h2v-3h1V7H0z" fill="url(#e)"/><path fill-rule="evenodd" d="M5 16H4v-3h1v3z" fill="#F90"/><linearGradient id="f" x1=".5" y1=".04" x2=".5" y2="1.001"><stop offset="0" stop-color="#F90"/><stop offset=".313" stop-color="#C47400"/><stop offset="1" stop-color="#D68100"/></linearGradient><path fill-rule="evenodd" d="M1 8v1h1v3h5V9h1V8H1z" fill="url(#f)"/><path fill-rule="evenodd" d="M2 7h1V5H2v2z" fill="#FFF"/><path fill-rule="evenodd" d="M6 7h1V5H6v2z" fill="#FFF"/></svg>