<svg ti:v="1" width="16" height="16" viewBox="0 0 16 16" xmlns="http://www.w3.org/2000/svg" xmlns:ti="urn:schemas-jetbrains-com:tisvg"><rect id="frame" width="16" height="16" fill="none"/><g fill-rule="evenodd"><path d="M16 16H0V9h16v7z" fill="#F4F4F4"/><path d="M15 15H9v-5h6v5z" fill="#EBEBEB"/><path d="M14 15h1v-1h-1m0-1h1v-1h-1m0-1h1v-1h-1m-3 0h-1v1h1m2-1h-1v1h1m-1 4h1v-1h-1m-2 1h1v-1h-1m-1 1H1v-5h8v5z" fill="#313131"/><path d="M10 10.451L6.487 1H3.604L0 10.622V11h3.467l.692-2.036h1.724L6.603 11H10v-.549z" fill="#F4F4F4"/><path d="M6.238 6.881l-1.11-3.19a3.68 3.68 0 0 1-.107-.502h-.02a3.3 3.3 0 0 1-.114.502L3.79 6.881M8.765 10H7.31L6.59 7.964H3.443L2.751 10h-1.45l2.996-8h1.495l2.973 8z" fill="#313131"/></g></svg>