<svg ti:v="1" width="16" height="16" viewBox="0 0 16 16" xmlns="http://www.w3.org/2000/svg" xmlns:ti="urn:schemas-jetbrains-com:tisvg"><rect id="frame" width="16" height="16" fill="none"/><g fill-rule="evenodd"><path d="M7 12.5c0 1.93 1.57 3.5 3.5 3.5s3.5-1.57 3.5-3.5V11H7v1.5z" fill="#242424"/><path d="M16 5.5C16 2.468 13.533 0 10.5 0A5.506 5.506 0 0 0 5 5.5a5.49 5.49 0 0 0 2 4.239V11h7V9.739A5.49 5.49 0 0 0 16 5.5z" fill="#242424"/><path d="M8 11v1.5a2.5 2.5 0 1 0 5 0V11H8z" fill="#C4C4C4"/><path d="M15 5.5a4.5 4.5 0 1 0-7 3.74V11h5V9.24c1.205-.807 2-2.18 2-3.74z" fill="#C4C4C4"/><path d="M14 5.5C14 3.57 12.43 2 10.5 2S7 3.57 7 5.5c0 1.391.822 2.585 2 3.148V10h3V8.648A3.493 3.493 0 0 0 14 5.5z" fill="#282828"/><path d="M11.5 6l-1 1-1-1H9l1 2v2h1V8l1-2h-.5z" fill="#C4C4C4"/><path d="M8 7H1V4h7v3z" fill="#242424"/><path d="M0 7v3h1v3h2v3h3v-3h2v-3h1V7H0z" fill="#242424"/><path d="M5 16H4v-3h1v3z" fill="#C4C4C4"/><path d="M8 8H1v1h1v3h5V9h1V8z" fill="#C4C4C4"/><path d="M2 7h1V5H2v2z" fill="#C4C4C4"/><path d="M6 7h1V5H6v2z" fill="#C4C4C4"/></g></svg>