<svg ti:v="1" width="16" height="16" viewBox="0 0 16 16" xmlns="http://www.w3.org/2000/svg" xmlns:ti="urn:schemas-jetbrains-com:tisvg"><rect id="frame" width="16" height="16" fill="none"/><linearGradient id="a" x1=".5" y1="0" x2=".5" y2="1"><stop offset="0" stop-color="#008CB3"/><stop offset="1" stop-color="#004782"/></linearGradient><path fill-rule="evenodd" d="M0 16h15.999V9.001H0V16z" fill="url(#a)"/><linearGradient id="b" x1=".5" y1="0" x2=".5" y2="1"><stop offset="0" stop-color="#004782"/><stop offset="1" stop-color="#008CB3"/></linearGradient><path fill-rule="evenodd" d="M9 15h5.999v-4.999H9V15z" fill="url(#b)"/><linearGradient id="c" x1=".5" y1="0" x2=".5" y2="1"><stop offset="0" stop-color="#E3F9FF"/><stop offset="1" stop-color="#B0DCFF"/></linearGradient><path fill-rule="evenodd" d="M14 11h1v-1h-1m-2 1h1v-1h-1m-2 1h1v-1h-1m-9 5h8v-4.999H1M14 13h1v-1h-1m0 3h1v-1h-1m-2 1h1v-1h-1m-2 1h1v-1h-1v1z" fill="url(#c)"/><path fill-rule="evenodd" d="M10 10.451L6.487 1H3.604L0 10.622V11h3.467l.692-2.036h1.724L6.603 11H10v-.549z" fill="#595959"/><path fill-rule="evenodd" d="M6.238 6.881l-1.11-3.19a3.68 3.68 0 0 1-.107-.502h-.02a3.3 3.3 0 0 1-.114.502L3.79 6.881M8.765 10H7.31L6.59 7.964H3.443L2.751 10h-1.45l2.996-8h1.495l2.973 8z" fill="#FFF"/></svg>