<svg ti:v="1" width="16" height="16" viewBox="0 0 16 16" xmlns="http://www.w3.org/2000/svg" xmlns:ti="urn:schemas-jetbrains-com:tisvg"><rect id="frame" width="16" height="16" fill="none"/><path fill-rule="evenodd" d="M6 15c-.775 0-1.496-.37-2-.716-.504.346-1.225.716-2 .716H.016L0 14v-2h2V7H0V4h2c.775 0 1.496.37 2 .716C4.504 4.37 5.225 4 6 4h1.984L8 5v2H6v5h2v3H6z" fill="#595959"/><path fill-rule="evenodd" d="M7 6V5H6C5 5 4 6 4 6S3 5 2 5H1v1h2v7H1v1h1c1 0 2-1 2-1s1 1 2 1h1v-1H5V6h2z" fill="#FFF"/><linearGradient id="a" x1=".5" y1="0" x2=".5" y2="1"><stop offset="0" stop-color="#807737"/><stop offset="1" stop-color="#4E4922"/></linearGradient><path fill-rule="evenodd" d="M9 0C7.345 0 6 1.346 6 3v2c0 1.304.836 2.416 2 2.829V11h1.828l3-3H13c1.654 0 3-1.346 3-3V3c0-1.654-1.346-3-3-3H9z" fill="url(#a)"/><linearGradient id="b" x1=".5" y1="0" x2=".5" y2="1"><stop offset="0" stop-color="#FFF"/><stop offset="1" stop-color="#F5DB00"/></linearGradient><path fill-rule="evenodd" d="M9 1c-1.102 0-2 .897-2 2v2c0 1.102.898 2 2 2v3h.414l3-3H13c1.103 0 2-.898 2-2V3c0-1.103-.897-2-2-2H9z" fill="url(#b)"/><linearGradient id="c" x1=".5" y1="0" x2=".5" y2="1"><stop offset="0" stop-color="#F7E64C"/><stop offset="1" stop-color="#FFFBD9"/></linearGradient><path fill-rule="evenodd" d="M9 2a1 1 0 0 0-1 1v2c0 .551.448 1 1 1h1v2l2-2h1c.552 0 1-.449 1-1V3a1 1 0 0 0-1-1H9z" fill="url(#c)"/></svg>