<svg ti:v="1" width="16" height="16" viewBox="0 0 16 16" xmlns="http://www.w3.org/2000/svg" xmlns:ti="urn:schemas-jetbrains-com:tisvg"><rect id="frame" width="16" height="16" fill="none"/><g fill-rule="evenodd"><path d="M2.37 15l-.3-.287C1.126 13.805 0 12.163 0 9.5c0-2.666 1.127-4.307 2.072-5.213l.3-.287h2.541l-.642 1.195c-1.25 2.334-1.25 6.276 0 8.61L4.913 15m6.174 0l.641-1.195c1.251-2.334 1.251-6.276 0-8.61L11.088 4h2.541l.3.287C14.872 5.193 16 6.834 16 9.5c0 2.663-1.126 4.305-2.07 5.213l-.299.287h-2.544z" fill="#F4F4F4"/><path d="M13.179 14c.84-.78 1.82-2.185 1.82-4.5 0-2.314-.98-3.721-1.821-4.5h-.54c1.362 2.455 1.362 6.545 0 9m-9.816 0C1.982 13.22 1 11.815 1 9.5c0-2.314.982-3.721 1.823-4.5h.539C2 7.455 2 11.545 3.362 14h-.54z" fill="#313131"/><path d="M7 11V7.829A3.006 3.006 0 0 1 5 5V3c0-1.654 1.346-3 3-3h4c1.654 0 3 1.346 3 3v2c0 1.654-1.346 3-3 3h-.172l-3 3H7z" fill="#F4F4F4"/><path d="M12 1H8c-1.103 0-2 .897-2 2v2c0 1.103.897 2 2 2v3h.414l3-3H12c1.103 0 2-.897 2-2V3c0-1.103-.897-2-2-2z" fill="#313131"/><path d="M12 2H8a1 1 0 0 0-1 1v2a1 1 0 0 0 1 1h1v2l2-2h1a1 1 0 0 0 1-1V3a1 1 0 0 0-1-1z" fill="#EBEBEB"/></g></svg>