<svg ti:v="1" width="16" height="16" viewBox="0 0 16 16" xmlns="http://www.w3.org/2000/svg" xmlns:ti="urn:schemas-jetbrains-com:tisvg"><rect id="frame" width="16" height="16" fill="none"/><linearGradient id="a" x1=".5" y1=".012" x2=".5" y2=".998"><stop offset="0" stop-color="#006D08"/><stop offset="1" stop-color="#004C1D"/></linearGradient><path fill-rule="evenodd" d="M11.087 4l.641 1.195c1.251 2.334 1.251 6.276 0 8.61L11.087 15h2.544l.299-.287c.944-.908 2.07-2.55 2.07-5.213 0-2.666-1.127-4.307-2.072-5.213L13.629 4M2.371 4l-.299.287C1.127 5.193 0 6.834 0 9.5c0 2.663 1.126 4.305 2.07 5.213l.299.287h2.544l-.641-1.195c-1.251-2.334-1.251-6.276 0-8.61L4.913 4H2.371z" fill="url(#a)"/><linearGradient id="b" x1=".5" y1=".012" x2=".5" y2=".998"><stop offset="0" stop-color="#C7FFB8"/><stop offset="1" stop-color="#00E82C"/></linearGradient><path fill-rule="evenodd" d="M12.639 5c1.361 2.455 1.361 6.545 0 9h.54c.84-.78 1.821-2.184 1.821-4.5 0-2.314-.981-3.721-1.823-4.5M2.822 5C1.981 5.779 1 7.186 1 9.5c0 2.316.981 3.72 1.821 4.5h.54C2 11.545 2 7.455 3.361 5h-.539z" fill="url(#b)"/><linearGradient id="c" x1=".5" y1="0" x2=".5" y2="1"><stop offset="0" stop-color="#807737"/><stop offset="1" stop-color="#4E4922"/></linearGradient><path fill-rule="evenodd" d="M8 0C6.345 0 5 1.346 5 3v2c0 1.304.836 2.416 2 2.829V11h1.829l2.999-3H12c1.654 0 3-1.346 3-3V3c0-1.654-1.346-3-3-3H8z" fill="url(#c)"/><linearGradient id="d" x1=".5" y1="0" x2=".5" y2="1"><stop offset="0" stop-color="#FFF"/><stop offset="1" stop-color="#F5DB00"/></linearGradient><path fill-rule="evenodd" d="M8 1c-1.103 0-2 .898-2 2v2c0 1.102.897 2 2 2v3h.415l2.999-3H12c1.103 0 2-.898 2-2V3c0-1.102-.897-2-2-2H8z" fill="url(#d)"/><linearGradient id="e" x1=".5" y1="0" x2=".5" y2="1"><stop offset="0" stop-color="#F7E64C"/><stop offset="1" stop-color="#FFFBD9"/></linearGradient><path fill-rule="evenodd" d="M8 2a1 1 0 0 0-1 1v2a1 1 0 0 0 1 1h1v2l2-2h1a1 1 0 0 0 1-1V3a1 1 0 0 0-1-1H8z" fill="url(#e)"/></svg>