<svg width="48" height="48" viewBox="0 0 48 48" fill="none" xmlns="http://www.w3.org/2000/svg">
<path d="M2.55005 2.54993V14.6999V29.3999V34.7999H20.4L28.5 2.54993H2.55005ZM28.05 13.1999L19.9501 45.4499H45.45V33.2999V18.5999V13.1999H28.05Z" fill="url(#paint0_linear)"/>
<path d="M39 9H9V39H39V9Z" fill="url(#paint1_linear)"/>
<path d="M26.55 18.45L22.35 35.25H35.1V28.9499V21.3V18.45H26.55ZM32.4 32.4H26.1L26.7 29.55H32.4V32.4Z" fill="#6B57FF"/>
<path d="M12.75 12.75V19.05V26.7V29.55H21.3L25.5 12.75H12.75ZM19.8 26.85H15.75V24H20.55L19.8 26.85Z" fill="#3BEA62"/>
<defs>
<linearGradient id="paint0_linear" x1="2.8901" y1="0.398776" x2="48.2413" y2="45.75" gradientUnits="userSpaceOnUse">
<stop offset="0.0553885" stop-color="#3BEA62"/>
<stop offset="1" stop-color="#6B57FF"/>
</linearGradient>
<linearGradient id="paint1_linear" x1="23.96" y1="1.7085" x2="23.96" y2="28.6125" gradientUnits="userSpaceOnUse">
<stop offset="0.0842986" stop-color="#878585"/>
<stop offset="0.5377"/>
</linearGradient>
</defs>
</svg>
