<svg ti:v="1" width="16" height="16" viewBox="0 0 16 16" xmlns="http://www.w3.org/2000/svg" xmlns:ti="urn:schemas-jetbrains-com:tisvg"><rect id="frame" width="16" height="16" fill="none"/><g fill-rule="evenodd"><path d="M3.586 16a1.986 1.986 0 0 1-1.414-.586l-.586-.586A1.986 1.986 0 0 1 1 13.414c0-.534.208-1.036.586-1.414l5-5L10 10.414l-5 5c-.378.378-.88.586-1.414.586z" fill="#F4F4F4"/><path d="M2.293 14.121l.586.586a.999.999 0 0 0 1.414 0l4.293-4.293-2-2-4.293 4.293a.999.999 0 0 0 0 1.414z" fill="#313131"/><path d="M16 6.5a5.5 5.5 0 1 1-11.001-.001A5.5 5.5 0 0 1 16 6.5z" fill="#F4F4F4"/><path d="M15 6.5a4.5 4.5 0 1 1-9 0 4.5 4.5 0 0 1 9 0z" fill="#313131"/><path d="M14 6.5a3.5 3.5 0 1 1-7 0 3.5 3.5 0 0 1 7 0z" fill="#313131"/><path d="M13 6.5a2.5 2.5 0 1 1-5 0 2.5 2.5 0 0 1 5 0z" fill="#EBEBEB"/></g></svg>