<svg xmlns="http://www.w3.org/2000/svg" width="16" height="16" viewBox="0 0 16 16"><rect id="frame" width="16" height="16" fill="none"/><path fill="#9AA7B0" fill-rule="evenodd" d="M4.5 1A3.501 3.501 0 0 0 1 4.5C1 6.432 2.568 8 4.5 8S8 6.432 8 4.5 6.432 1 4.5 1zm-.35 6.276a2.796 2.796 0 0 1-2.377-3.402L3.45 5.55v.35c0 .385.315.7.7.7v.676zm2.415-.89A.694.694 0 0 0 5.9 5.9h-.35V4.85a.351.351 0 0 0-.35-.35H3.1v-.7h.7c.193 0 .35-.157.35-.35v-.7h.7c.385 0 .7-.315.7-.7v-.143A2.802 2.802 0 0 1 7.3 4.5c0 .728-.28 1.39-.735 1.886z"/></svg>