<svg xmlns="http://www.w3.org/2000/svg" width="16" height="16" viewBox="0 0 16 16">
  <path fill="#9AA7B0" fill-rule="evenodd" d="M4.5,1 C2.568,1 1,2.568 1,4.5 C1,6.432 2.568,8 4.5,8 C6.432,8 8,6.432 8,4.5 C8,2.568 6.432,1 4.5,1 Z M4.15,7.2755 C2.7675,7.104 1.7,5.928 1.7,4.5 C1.7,4.283 1.728,4.0765 1.7735,3.8735 L3.45,5.55 L3.45,5.9 C3.45,6.285 3.765,6.6 4.15,6.6 L4.15,7.2755 Z M6.565,6.3865 C6.474,6.103 6.215,5.9 5.9,5.9 L5.55,5.9 L5.55,4.85 C5.55,4.6575 5.3925,4.5 5.2,4.5 L3.1,4.5 L3.1,3.8 L3.8,3.8 C3.9925,3.8 4.15,3.6425 4.15,3.45 L4.15,2.75 L4.85,2.75 C5.235,2.75 5.55,2.435 5.55,2.05 L5.55,1.9065 C6.5755,2.323 7.3,3.3275 7.3,4.5 C7.3,5.228 7.02,5.8895 6.565,6.3865 Z"/>
</svg>
