<svg xmlns="http://www.w3.org/2000/svg" width="16" height="16" viewBox="0 0 16 16"><rect id="frame" width="16" height="16" fill="none"/><g fill="none" fill-rule="evenodd"><path fill="#62B543" fill-opacity=".6" d="M6 11a5.268 5.268 0 0 1 5.5-5A5.82 5.82 0 0 1 15 7.143V4H7.985L6.696 2.71A2.8 2.8 0 0 0 4.98 2H1.051A.051.051 0 0 0 1 2.05V13h5.46A4.597 4.597 0 0 1 6 11z"/><path fill="#9AA7B0" d="M16 11v.002a4.791 4.791 0 0 0-4.5-.01v-.006c0-.876 1.272-1.858 2.05-2.079C15.511 8.351 16 10.262 16 11zm-6.548 2.092c.778-.22 2.049-1.202 2.049-2.078v-.006a4.792 4.792 0 0 1-4.5-.01V11c0 .738.489 2.649 2.45 2.092z"/><path fill="#9AA7B0" d="M9.25 7.378l.003-.002a3.938 3.938 0 0 0 .602 2.103c.403.643.968 1.169 1.638 1.525l-.005.003a3.295 3.295 0 0 1-2.961-.61c-1.5-1.302.037-2.65.724-3.02zm5.224 4.225a3.295 3.295 0 0 0-2.96-.61l-.005.003c.67.356 1.234.882 1.637 1.525.395.63.604 1.359.603 2.102h.002c.687-.37 2.223-1.718.723-3.02z"/><path fill="#9AA7B0" d="M9.251 14.623l-.002-.002a4.335 4.335 0 0 0 1.657-1.536 3.94 3.94 0 0 0 .603-2.081l.004.003a2.773 2.773 0 0 1 .912 2.689c-.462 1.858-2.487 1.295-3.174.927zm1.325-6.319a2.774 2.774 0 0 0 .912 2.69l.005.002c.002-.737.21-1.458.602-2.082.407-.65.979-1.18 1.657-1.536h-.002c-.687-.37-2.712-.932-3.174.926z"/></g></svg>