<svg xmlns="http://www.w3.org/2000/svg" width="16" height="16" viewBox="0 0 16 16"><rect id="frame" width="16" height="16" fill="none"/><g fill="none" fill-rule="evenodd"><path fill="#9AA7B0" d="M1 13h14v2H1z"/><path fill="#9AA7B0" fill-opacity=".6" d="M2 1h12v11H2z"/><path fill="#231F20" fill-opacity=".7" d="M6 5c-.708 0-1 .54-1 1.5S5.285 8 6 8c.715 0 1-.554 1-1.5S6.708 5 6 5zm0-1c1.207 0 2 1.118 2 2.5S7.206 9 6 9 4 7.88 4 6.5C4 4.959 4.793 4 6 4z"/><path fill="#231F20" fill-opacity=".7" d="M10.1 4L9 4.443l.157.782L10 5v4h1V4z"/></g></svg>