<svg xmlns="http://www.w3.org/2000/svg" width="16" height="16" viewBox="0 0 16 16"><rect id="frame" width="16" height="16" fill="none"/><g fill="none" fill-rule="evenodd"><path fill="#9AA7B0" fill-opacity=".8" d="M9 11.524L5.5 8h-2L1 10.5V2.051A.051.051 0 0 1 1.051 2H4.98a2.8 2.8 0 0 1 1.717.711L7.985 4H15v4H9v3.524z"/><path fill="#D9A343" d="M10 13h6v1h-6z"/><path fill="#D9A343" d="M10 15h6v1h-6z"/><path fill="#D9A343" d="M10 11h6v1h-6z"/><path fill="#D9A343" d="M10 9h6v1h-6z"/><path fill="#62B543" d="M8.5 12.5L5 16V9z"/><path fill="#F26522" d="M.5 12.5L4 9v7z"/></g></svg>