<svg xmlns="http://www.w3.org/2000/svg" width="16" height="16" viewBox="0 0 16 16"><rect id="frame" width="16" height="16" fill="none"/><g fill="none" fill-rule="evenodd"><path fill="#9AA7B0" fill-opacity=".8" d="M7.908 10.405c-.51.51-1.187.79-1.908.79A2.703 2.703 0 0 1 3.3 8.5c0-.72.28-1.399.79-1.909a2.681 2.681 0 0 1 1.907-.79 2.704 2.704 0 0 1 2.701 2.697 2.68 2.68 0 0 1-.79 1.908zM7.984 4H15v9H1V2.051c0-.028.023-.05.051-.05h3.927c.554 0 1.326.32 1.718.71l1.288 1.29zM9 9v4h6V9H9z"/><path fill="#40B6E0" d="M6 10.495A1.996 1.996 0 1 1 5.997 6.5 1.997 1.997 0 1 1 6 10.495"/><path fill="#9AA7B0" d="M10 10h6v6h-6z"/></g></svg>