<svg xmlns="http://www.w3.org/2000/svg" width="16" height="16" viewBox="0 0 16 16"><rect id="frame" width="16" height="16" fill="none"/><g fill="none" fill-rule="evenodd"><path fill="#B99BF8" fill-opacity=".6" d="M15 8A7 7 0 1 1 1 8a7 7 0 0 1 14 0"/><path fill="#231F20" fill-opacity=".7" d="M8 10H6V8H5v2H3v1h2v2h1v-2h2z"/><path fill="#231F20" fill-opacity=".7" d="M7.681 7.53l.967-1.65L7 5.185l.252-.747 1.725.472L9.143 3l.772.004.127 1.88 1.732-.421.226.749-1.639.676.947 1.661-.62.459-1.18-1.52-1.212 1.507z"/></g></svg>