<svg xmlns="http://www.w3.org/2000/svg" width="16" height="16" viewBox="0 0 16 16"><rect id="frame" width="16" height="16" fill="none"/><g fill="none" fill-rule="evenodd"><path fill="#B99BF8" fill-opacity=".6" d="M10 5.646V7a2 2 0 0 0 2 2h2c.348 0 .675-.089.96-.245a7.001 7.001 0 1 1-5.508-7.604A3.983 3.983 0 0 0 9 3c0 1.014.378 1.94 1 2.646z"/><path fill="#231F20" fill-opacity=".7" d="M6 5v6h1V8.5h2.5v-1H7V6h3V5z"/><path fill="#9AA7B0" d="M11.2 6.6h3.6v1h-3.6z"/><path fill="#9AA7B0" d="M11.5 7.8h3a.6.6 0 0 1-.6.6h-1.8a.6.6 0 0 1-.6-.6z"/><path fill="#F4AF3D" fill-opacity=".7" d="M16 2.52c0 2.4-1.2 2.261-1.2 3.48h-3.6c0-1.181-1.2-1.08-1.2-3.48C10 1.195 11.343 0 13 0s3 1.195 3 2.52z"/></g></svg>