<svg xmlns="http://www.w3.org/2000/svg" width="16" height="16" viewBox="0 0 16 16"><rect id="frame" width="16" height="16" fill="none"/><g fill-rule="evenodd"><path fill="#242424" d="M16 7.914v-.828L11.914 3h-.828L9.5 4.586 8 3.086l-1.5 1.5L4.914 3h-.828L0 7.086v.828L4.086 12h.828L6.5 10.414l1.5 1.5 1.5-1.5L11.086 12h.828L16 7.914z"/><path fill="#c4c4c4" d="M11.5 4l-.99.99 2.511 2.51-2.511 2.51.99.99L15 7.5 11.5 4z"/><path fill="#c4c4c4" d="M4.5 4l.99.99L2.979 7.5l2.511 2.51-.99.99L1 7.5 4.5 4z"/><path d="M8 10.5l-3-3 3-3 3 3z" fill="#c4c4c4"/></g></svg>