<svg xmlns="http://www.w3.org/2000/svg" xmlns:xlink="http://www.w3.org/1999/xlink" width="16" height="16" viewBox="0 0 16 16"><rect id="frame" width="16" height="16" fill="none"/><defs><linearGradient id="b" x1="8" y1="3" x2="8" y2="11.968" gradientUnits="userSpaceOnUse"><stop offset="0" stop-color="#6d0000"/><stop offset="1" stop-color="#490000"/></linearGradient><linearGradient id="a" x1="12.755" y1="3.949" x2="12.755" y2="10.968" gradientUnits="userSpaceOnUse"><stop offset="0" stop-color="#fff"/><stop offset="1" stop-color="#77eaff"/></linearGradient><linearGradient id="c" x1="22.245" y1="3.949" x2="22.245" y2="10.968" gradientTransform="matrix(-1 0 0 1 25.49 0)" xlink:href="#a"/><linearGradient id="d" x1="-376.167" y1="255.5" x2="-376.167" y2="254.5" gradientTransform="matrix(6 0 0 -6 2265 1537.5)" gradientUnits="userSpaceOnUse"><stop offset="0" stop-color="#ffede3"/><stop offset="1" stop-color="#ffa6a6"/></linearGradient></defs><g fill-rule="evenodd"><path fill="url(#b)" d="M16 7.914v-.828L11.914 3h-.828L9.5 4.586 8 3.086l-1.5 1.5L4.914 3h-.828L0 7.086v.828L4.086 12h.828L6.5 10.414l1.5 1.5 1.5-1.5L11.086 12h.828L16 7.914z"/><path fill="url(#a)" d="M11.5 4l-.99.99 2.511 2.51-2.511 2.51.99.99L15 7.5 11.5 4z"/><path fill="url(#c)" d="M4.5 4l.99.99L2.979 7.5l2.511 2.51-.99.99L1 7.5 4.5 4z"/><path d="M8 10.5l-3-3 3-3 3 3z" fill="url(#d)"/></g></svg>