<svg xmlns="http://www.w3.org/2000/svg" width="16" height="16" viewBox="0 0 16 16">
  <title>ErrorSubmit(Gray)</title>
  <g>
    <rect width="16" height="16" fill="#ffe5ff" opacity="0"/>
    <g>
      <g>
        <rect x="1" y="7" width="9" height="9" fill="#f4f4f4"/>
        <rect x="2" y="8" width="7" height="7" fill="#e51400"/>
        <path d="M5.7,12H5.3L5,11.1V9H6v2.1Zm.2,1.1H5.1v.8h.8Z" fill="#ebebeb"/>
      </g>
      <g>
        <path d="M16,8V4.586L11.414,0h-.828L6,4.586V8H7.914L9,6.914V13h1a3,3,0,0,0,3-3V6.914L14.086,8Z" fill="#f4f4f4"/>
        <path d="M11,1,7,5V7.5l3-3V12a2,2,0,0,0,2-2V4.5l3,3V5Z" fill="#00539c"/>
      </g>
    </g>
  </g>
</svg>
