<svg xmlns="http://www.w3.org/2000/svg" width="16" height="16" viewBox="0 0 16 16">
  <g id="areas">
    <rect width="16" height="16" fill="#ffe5ff" opacity="0"/>
  </g>
  <g id="icons">
    <g>
      <polygon points="14 7.618 12.875 4.398 9.813 5.676 10 3.882 10 2.003 6 2 6 3.866 6.187 5.677 3.126 4.399 2 7.619 2 8.587 5.06 9.109 3 11.603 3 12.047 5.831 14 6.488 14 8.004 11.227 9.551 14 10.201 14 13 12.04 13 11.617 10.951 9.109 14 8.584 14 7.618" fill="#f4f4f4"/>
      <path d="M10.074,13,8,9.238,5.957,13,4.221,11.792,6.929,8.484,3,7.808l.706-2.037L7.354,7.3,6.913,3H9.09L8.647,7.3,12.3,5.768,13,7.806l-3.906.678L11.775,11.8Z" fill="#323232"/>
    </g>
  </g>
</svg>
