<svg xmlns="http://www.w3.org/2000/svg" width="16" height="16" viewBox="0 0 16 16">
  <g id="areas">
    <rect width="16" height="16" fill="#ffe5ff" opacity="0"/>
  </g>
  <g id="icons">
    <g>
      <g>
        <path d="M10,3V2H8.83A3,3,0,0,0,3.172,2H2L2,3H1V13H11V3Z" fill="#252525"/>
        <path d="M9,4V3H8A2,2,0,1,0,4,3H3V4H2v8h8V4Z" fill="#c4c4c4"/>
        <path d="M6,2A1,1,0,1,1,5,3,1,1,0,0,1,6,2Z" fill="#292929"/>
        <rect x="3.5" y="5" width="5" height="5.5" fill="#292929"/>
      </g>
      <g>
        <polygon points="6 16 6 6 11.914 6 15 9.086 15 16 6 16" fill="#252525"/>
        <polygon points="11.5 7 7 7 7 15 14 15 14 9.5 11.5 7" fill="#c4c4c4"/>
        <polygon points="13 14 8 14 8 8 11 8 11 10 13 10 13 14" fill="#292929"/>
      </g>
    </g>
  </g>
</svg>
