<svg xmlns="http://www.w3.org/2000/svg" xmlns:xlink="http://www.w3.org/1999/xlink" width="16" height="16" viewBox="0 0 16 16">
  <defs>
    <linearGradient id="a" x1="8" y1="3.063" x2="8" y2="12.944" gradientUnits="userSpaceOnUse">
      <stop offset="0" stop-color="#005439"/>
      <stop offset="1" stop-color="#007356"/>
    </linearGradient>
    <linearGradient id="b" x1="2.5" y1="1.012" x2="2.5" y2="7.97" gradientUnits="userSpaceOnUse">
      <stop offset="0" stop-color="#4b5b6e"/>
      <stop offset="1" stop-color="#1d2b3b"/>
    </linearGradient>
    <linearGradient id="c" x1="2.39" y1="2" x2="2.39" y2="7.053" gradientUnits="userSpaceOnUse">
      <stop offset="0" stop-color="#fff"/>
      <stop offset="1" stop-color="#a6bada"/>
    </linearGradient>
    <linearGradient id="d" x1="13.5" y1="8.012" x2="13.5" y2="14.97" xlink:href="#b"/>
    <linearGradient id="e" x1="13.61" y1="9" x2="13.61" y2="14.053" xlink:href="#c"/>
    <linearGradient id="f" x1="8" y1="4" x2="8" y2="12.075" gradientUnits="userSpaceOnUse">
      <stop offset="0" stop-color="#b3ffcc"/>
      <stop offset="1" stop-color="#10bf41"/>
    </linearGradient>
  </defs>
  <rect width="16" height="16" fill="#f0f" opacity="0"/>
  <g>
    <rect x="3" y="3" width="10" height="10" fill="url(#a)"/>
    <polygon points="5 2.32 3.35 1 2.519 1 0 4.15 0 4.85 2.519 8 3.35 8 5 6.68 5 6.299 3.561 4.5 5 2.701 5 2.32" fill="url(#b)"/>
    <polygon points="3.78 6.375 2.28 4.5 3.78 2.625 2.999 2 1 4.5 2.999 7 3.78 6.375" fill="url(#c)"/>
    <polygon points="11 9.32 12.65 8 13.481 8 16 11.15 16 11.85 13.481 15 12.65 15 11 13.68 11 13.299 12.439 11.5 11 9.701 11 9.32" fill="url(#d)"/>
    <polygon points="12.22 13.375 13.72 11.5 12.22 9.625 13.001 9 15 11.5 13.001 14 12.22 13.375" fill="url(#e)"/>
    <path d="M12,10H4v2h8Zm0-3H4V9h8Zm0-3H4V6h8Z" fill="url(#f)"/>
  </g>
</svg>
