<svg xmlns="http://www.w3.org/2000/svg" width="16" height="16" viewBox="0 0 16 16">
  <rect width="16" height="16" fill="#f0f" opacity="0"/>
  <g>
    <rect x="3" y="3" width="10" height="10" fill="#f4f4f4"/>
    <polygon points="5 2.32 3.35 1 2.519 1 0 4.15 0 4.85 2.519 8 3.35 8 5 6.68 5 6.299 3.561 4.5 5 2.701 5 2.32" fill="#f4f4f4"/>
    <polygon points="3.78 6.375 2.28 4.5 3.78 2.625 2.999 2 1 4.5 2.999 7 3.78 6.375" fill="#323232"/>
    <polygon points="11 9.32 12.65 8 13.481 8 16 11.15 16 11.85 13.481 15 12.65 15 11 13.68 11 13.299 12.439 11.5 11 9.701 11 9.32" fill="#f4f4f4"/>
    <polygon points="12.22 13.375 13.72 11.5 12.22 9.625 13.001 9 15 11.5 13.001 14 12.22 13.375" fill="#323232"/>
    <path d="M12,10H4v2h8Zm0-3H4V9h8Zm0-3H4V6h8Z" fill="#388a34"/>
  </g>
</svg>
