<svg xmlns="http://www.w3.org/2000/svg" width="16" height="16" viewBox="0 0 16 16"><rect id="frame" width="16" height="16" fill="none"/><g data-name="Layer 2"><g data-name="Layer 1"><path d="M1 1v3.84a11.93 11.93 0 0 0 2.113-.715 6.628 6.628 0 0 0 1.797.276c.022-.018.031-.084.034-.101-.714-.437-2.151-1.039-1.965-1.871a.71.71 0 0 1 .413-.454c.18-.09 1.883.562 2.538.38a.28.28 0 0 0 .045-.123 5.694 5.694 0 0 1-1.389-.622c1.428-.817 3.776-.068 4.453.431a1.254 1.254 0 0 1 .41.453 4.304 4.304 0 0 1 .383 1.672c-.02.192-.004.289-.252.297a7.718 7.718 0 0 1-2.12-.578.454.454 0 0 0-.045.28c.102.466 1.401.992 1.693 1.053a2.742 2.742 0 0 1 .255 1.517A.964.964 0 0 1 10 6.5a1.003 1.003 0 0 1 .64.231l.36.3V1z" fill="#afb1b3"/><path d="M7.1 6.145a.29.29 0 0 0-.085.128A2.513 2.513 0 0 0 8.293 8H9v-.5l.002-.014A6.787 6.787 0 0 1 7.1 6.145z" fill="#afb1b3"/><path d="M1.749 11H5V9a.982.982 0 0 1 .456-.817l-.884-.373S2.577 10.249 1.75 11z" fill="#afb1b3"/><path d="M13 15.5V14H6v-2h3v.5a1 1 0 0 0 1.64.769L12.164 12H13v-.698l.481-.4L16 13zm0-5.5l-3-2.5V9H6v2h4v1.5z" fill="#40b6e0"/></g></g></svg>