<svg ti:v="1" width="16" height="16" viewBox="0 0 16 16" xmlns="http://www.w3.org/2000/svg" xmlns:ti="urn:schemas-jetbrains-com:tisvg"><rect id="frame" width="16" height="16" fill="none"/><path d="M5 5.29L3.4 6.9l.7.7L6 5.71V3H5v2.29z" fill="#6E6E6E"/><path d="M5.5 1a4.502 4.502 0 0 0-1.723 8.66A4.46 4.46 0 0 0 5.5 10a4.38 4.38 0 0 0 2.16-.58l.25-.25L9.5 6h.5a4 4 0 0 0 0-.5A4.512 4.512 0 0 0 5.5 1zM3 3a3.537 3.537 0 0 1 6.036 2.5A3.537 3.537 0 0 1 3 8a3.537 3.537 0 0 1 0-5z" fill="#6E6E6E"/><path d="M10.89 7.02h-.78l-3.02 6 .52.98h5.77l.48-1-2.97-5.98z" fill="#EDA200"/><path d="M11 11h-1V9h1zm0 1h-1v1h1zm0 0" fill="#323232"/></svg>