<svg xmlns="http://www.w3.org/2000/svg" width="16" height="16" viewBox="0 0 16 16"><rect id="frame" width="16" height="16" fill="none"/><g data-name="Layer 2"><g data-name="sampling .NET 3.0"><g fill="#6e6e6e"><path d="M5 5.29L3.4 6.9l.7.7L6 5.71V3H5v2.29z"/><path d="M5.5 1a4.5 4.5 0 0 0-3.18 7.68A4.46 4.46 0 0 0 5.5 10a4.38 4.38 0 0 0 2.16-.58l.25-.25L9.5 6h.5a4 4 0 0 0 0-.5A4.51 4.51 0 0 0 5.5 1M3 3a3.49 3.49 0 1 1 5 5 3.49 3.49 0 1 1-5-5"/></g><path fill="#eda200" d="M10.89 7.02h-.78l-3.02 6 .52.98h5.77l.48-1-2.97-5.98z"/><path d="M11 11h-1V9h1zm0 1h-1v1h1z" fill="#323232"/></g></g></svg>