<svg xmlns="http://www.w3.org/2000/svg" width="16" height="16" viewBox="0 0 16 16"><rect id="frame" width="16" height="16" fill="none"/><g fill="none" fill-rule="evenodd"><path fill="#6E6E6E" d="M5 5.293L3.396 6.897l.708.707L6 5.707V3H5v2.293zm0 4.656a4.478 4.478 0 0 1-2.682-1.267A4.49 4.49 0 0 1 1 5.5 4.494 4.494 0 0 1 5.5 1a4.49 4.49 0 0 1 3.182 1.318A4.49 4.49 0 0 1 10 5.5c0 .355-.052.697-.129 1.029-.1.013-.201.022-.295.066A1 1 0 0 0 9 7.5V8H7.941c.01-.01.023-.017.033-.026a3.493 3.493 0 0 0 0-4.948 3.493 3.493 0 0 0-4.948 0 3.493 3.493 0 0 0 0 4.948 3.484 3.484 0 0 0 1.984.976C5.009 8.968 5 8.982 5 9v.949z"/><path fill="#40B6E0" d="M13 10l-3-2.5V9H6v2h4v1.5l3-2.5zm0 5.5V14H6v-2h3v.5a1 1 0 0 0 1.641.769L12.163 12H13v-.697l.481-.402L16 13l-3 2.5z"/></g></svg>