<svg ti:v="1" width="16" height="16" viewBox="0 0 16 16" xmlns="http://www.w3.org/2000/svg" xmlns:ti="urn:schemas-jetbrains-com:tisvg"><rect id="frame" width="16" height="16" fill="none"/><path d="M4 4.293L2.396 5.897l.708.707L5 4.707V2H4v2.293zm0 4.656a4.478 4.478 0 0 1-2.682-1.267A4.49 4.49 0 0 1 0 4.5 4.494 4.494 0 0 1 4.5 0a4.49 4.49 0 0 1 3.182 1.318A4.49 4.49 0 0 1 9 4.5c0 .355-.052.697-.129 1.029-.1.013-.201.022-.295.066A1 1 0 0 0 8 6.5V7H6.941c.01-.01.023-.017.033-.026a3.493 3.493 0 0 0 0-4.948 3.493 3.493 0 0 0-4.948 0 3.493 3.493 0 0 0 0 4.948 3.484 3.484 0 0 0 1.984.976C4.009 7.968 4 7.982 4 8v.949zm0 0" fill="#6E6E6E"/><path d="M12 9L9 6.5V8H5v2h4v1.5L12 9zm0 5.5V13H5v-2h3v.5a1 1 0 0 0 1.641.769L11.163 11H12v-.697l.481-.402L15 12l-3 2.5zm0 0" fill="#40B6E0"/></svg>