<svg ti:v="1" width="16" height="16" viewBox="0 0 16 16" xmlns="http://www.w3.org/2000/svg" xmlns:ti="urn:schemas-jetbrains-com:tisvg"><rect id="frame" width="16" height="16" fill="none"/><path d="M6 8.95c-.165.023-.329.05-.5.05a3.49 3.49 0 0 1-2.474-1.027 3.493 3.493 0 0 1 0-4.947A3.489 3.489 0 0 1 5.5 2c.965 0 1.84.392 2.474 1.026A3.493 3.493 0 0 1 9 5.5c0 .54-.133 1.044-.351 1.5h1.076c.167-.472.275-.972.275-1.5a4.49 4.49 0 0 0-1.318-3.182A4.49 4.49 0 0 0 5.5 1 4.494 4.494 0 0 0 1 5.5c0 1.242.504 2.367 1.318 3.181a4.486 4.486 0 0 0 3.182 1.32c.171 0 .334-.033.5-.052v-1zM5 3h1v2.707L4.104 7.603l-.708-.707L5 5.293V3zm0 0" fill="#6E6E6E"/><path d="M7 10h9V8H7v2zm0 3h9v-2.001H7V13zm0 3h9v-2H7v2zm0 0" fill="#D9A343"/></svg>