<svg ti:v="1" width="16" height="16" viewBox="0 0 16 16" xmlns="http://www.w3.org/2000/svg" xmlns:ti="urn:schemas-jetbrains-com:tisvg"><rect id="frame" width="16" height="16" fill="none"/><path d="M6 5.707L4.104 7.603l-.708-.707L5 5.293V3h1v2.707zM2 5.5c0-.965.393-1.84 1.026-2.474a3.493 3.493 0 0 1 4.948 0 3.493 3.493 0 0 1 0 4.948 3.493 3.493 0 0 1-4.948 0A3.493 3.493 0 0 1 2 5.5zm5.663 3.923L8.736 8.35c.009-.009.021-.012.03-.02a.98.98 0 0 1 .277-.787l.744-.744C9.912 6.385 10 5.955 10 5.5a4.486 4.486 0 0 0-1.318-3.182A4.49 4.49 0 0 0 5.5 1a4.489 4.489 0 0 0-3.093 1.231A4.489 4.489 0 0 0 1 5.5c0 1.243.504 2.368 1.318 3.182A4.49 4.49 0 0 0 5.5 10c.788 0 1.519-.221 2.163-.577zm0 0" fill="#6E6E6E"/><path d="M4.75 3.25L7.379.621A2.115 2.115 0 0 1 8.879 0a2.118 2.118 0 0 1 1.5 3.621L7.75 6.25l-3-3zm0 0" fill="#62B543"/><path d="M6.361 5.975L3.178 9.157l-2.149.815.564-1.901 3.432-3.432-.582-.582L1 7.5l-1 3 .5.5 3-1 3.443-3.443z" fill="#6E6E6E"/></svg>