<svg ti:v="1" width="16" height="16" viewBox="0 0 16 16" xmlns="http://www.w3.org/2000/svg" xmlns:ti="urn:schemas-jetbrains-com:tisvg"><rect id="frame" width="16" height="16" fill="none"/><path d="M13 15.5V14H6v-2h3v.5a1 1 0 0 0 1.64.769L12.164 12H13v-.698l.481-.4L16 13zm0-5.5l-3-2.5V9H6v2h4v1.5zm0 0" fill="#40B6E0"/><path d="M5 9.073l-.878-.154L1.473 5.5l2.649-3.42 4.06-.71 1.5 4.13-.554 1.526A.98.98 0 0 1 10 6.5a.998.998 0 0 1 .129.022L10.5 5.5 8.685.5l-4.99.875L.5 5.5l3.196 4.125L5 9.854zm0 0" fill="#6E6E6E"/><path d="M7.146 8h.308L6.423 5.5l1.48-3.59-2.202 3.171-3.664.419 3.664.419L7.146 8z" fill="#6E6E6E"/></svg>