<svg xmlns="http://www.w3.org/2000/svg" width="16" height="16" viewBox="0 0 16 16"><rect id="frame" width="16" height="16" fill="none"/><g fill="#6E6E6E" fill-rule="evenodd"><path d="M9 8h1v1H9z"/><path d="M11 8h1v1h-1z"/><path d="M9 15h1v1H9z"/><path d="M11 15h1v1h-1z"/><path d="M10 9h1v6h-1z"/><path d="M13 8h1v1h-1z"/><path d="M15 8h1v1h-1z"/><path d="M13 15h1v1h-1z"/><path d="M15 15h1v1h-1z"/><path d="M14 9h1v6h-1z"/><path d="M7.132 2L6.097 3H1v6h6V7.642l1-.966V10H0V2h7.132z"/><path fill-rule="nonzero" d="M8.968 2L10 2.98 4.478 8.222 1.667 5.553l1.032-.98 1.779 1.689z"/></g></svg>