<svg xmlns="http://www.w3.org/2000/svg" width="16" height="16" viewBox="0 0 16 16"><rect id="frame" width="16" height="16" fill="none"/><g fill="none" fill-rule="evenodd"><path fill="#AFB1B3" d="M1 2h1v12H1z"/><path fill="#AFB1B3" d="M2 2h2v1H2z"/><path fill="#AFB1B3" d="M2 13h2v1H2z"/><path fill="#AFB1B3" d="M14 2h1v12h-1z"/><path fill="#AFB1B3" d="M12 2h3v1h-3z"/><path fill="#AFB1B3" d="M12 13h2v1h-2z"/><g transform="translate(3 2.8)"><circle cx="5" cy="5" r="5" fill="#F98B9E" fill-opacity=".6"/><path fill="#231F20" fill-rule="nonzero" d="M7.162 6.813l-.004-1.995a1.212 1.212 0 0 0-.191-.745.7.7 0 0 0-.592-.248 1.125 1.125 0 0 0-.473.09.791.791 0 0 0-.319.263 1.17 1.17 0 0 0-.18.432c-.04.195-.06.394-.057.593l.003 1.61h-.698l-.004-1.995a1.222 1.222 0 0 0-.19-.745.695.695 0 0 0-.59-.248 1.094 1.094 0 0 0-.492.1.777.777 0 0 0-.318.293 1.368 1.368 0 0 0-.171.478 3.646 3.646 0 0 0-.051.649l.022 1.468h-.714V3.242l.56.083.1.565h.038a1.192 1.192 0 0 1 .493-.485c.101-.054.21-.093.32-.118A1.57 1.57 0 0 1 4 3.249c.264-.01.526.048.762.167.207.118.366.304.449.527h.03c.063-.115.143-.22.238-.309.092-.085.194-.158.306-.216.11-.057.227-.1.349-.127.122-.029.248-.043.374-.042.372-.028.738.104 1.006.364.254.333.375.749.339 1.166l.004 2.034h-.695z"/></g></g></svg>