<svg xmlns="http://www.w3.org/2000/svg" width="16" height="16" viewBox="0 0 16 16"><rect id="frame" width="16" height="16" fill="none"/><path fill="#6E6E6E" fill-rule="evenodd" d="M1 2h14v12H1V2zm5.614 7.845l.581 1.655h1.29L5.793 4.39H4.686L2 11.5h1.284l.576-1.655h2.754zm-2.407-.996l1.03-2.95 1.03 2.95h-2.06zm9.432.063v-.068c0-.86-.184-1.529-.552-2.007-.368-.479-.874-.718-1.519-.718-.58 0-1.04.202-1.381.606V4H9v7.5h1.074l.059-.571c.345.446.827.669 1.445.669.641 0 1.145-.243 1.511-.728.367-.485.55-1.138.55-1.958zm-1.183-.103v.151c-.007.56-.111.978-.313 1.255-.202.277-.488.415-.86.415-.517 0-.881-.23-1.093-.688V7.764c.208-.45.57-.674 1.084-.674.384 0 .677.143.879.43.202.286.303.716.303 1.289z"/></svg>