<svg xmlns="http://www.w3.org/2000/svg" width="16" height="16" viewBox="0 0 16 16"><rect id="frame" width="16" height="16" fill="none"/><path fill="#7F8B91" fill-opacity=".9" fill-rule="evenodd" d="M4.997 4.808l-.953 4.093h1.912l-.96-4.093zM3.763 3h2.474L9 13H6.978l-.631-2.472H3.639L3.022 13H1L3.763 3zM15 8.95V13h-1.765v-.932c-.214.3-.49.53-.825.692a2.523 2.523 0 0 1-1.11.242c-.773 0-1.374-.204-1.805-.612-.43-.409-.646-.979-.646-1.711 0-.793.257-1.378.77-1.756.514-.378 1.309-.567 2.384-.567h1.232v-.297c0-.288-.104-.505-.313-.653-.208-.147-.514-.22-.919-.22a4.73 4.73 0 0 0-1.234.16 5.79 5.79 0 0 0-1.246.512V6.342a6.13 6.13 0 0 1 1.195-.358 6.883 6.883 0 0 1 1.285-.115c1.104 0 1.88.224 2.327.673.447.449.67 1.252.67 2.408zm-2.475.686c-.663 0-1.126.085-1.389.254-.263.17-.394.461-.394.874 0 .307.09.552.273.734.182.182.428.273.74.273.469 0 .833-.177 1.092-.53.258-.355.388-.85.388-1.484v-.121h-.71z"/></svg>