<svg xmlns="http://www.w3.org/2000/svg" width="16" height="16" viewBox="0 0 16 16"><rect id="frame" width="16" height="16" fill="none"/><g fill="none" fill-rule="evenodd"><path d="M0 0h16v16H0z"/><path fill="#7F8B91" fill-opacity=".9" d="M7 1l3 2.5L7 6z"/><path fill="#7F8B91" fill-opacity=".9" d="M4.928 5L7 13H5.484l-.474-1.978H2.98L2.516 13H1l2.072-8h1.856zm-.896 1.481l-.73 3.334h1.465L4.032 6.48zM12.928 5L15 13h-1.517l-.473-1.978h-2.03L10.516 13H9l2.072-8h1.856zm-.896 1.483l-.73 3.332h1.465l-.735-3.332zm0-.002v.002-.002z"/></g></svg>