<svg xmlns="http://www.w3.org/2000/svg" width="16" height="16" viewBox="0 0 16 16"><rect id="frame" width="16" height="16" fill="none"/><g fill="#6E6E6E" fill-rule="evenodd"><path d="M7.618 11.783l1.245-1.245 3.53 3.531-1.244 1.245z"/><path d="M5.6 13.2a4.6 4.6 0 1 1 0-9.2 4.6 4.6 0 0 1 0 9.2zm0-1.6a3 3 0 1 0 0-6 3 3 0 0 0 0 6z"/><path d="M9.89 5a5.632 5.632 0 0 0-1.095-1H13V3H8v.539a5.567 5.567 0 0 0-2-.525V1h9v10h-4.339a5.578 5.578 0 0 0 .507-3H13V7h-2.032a5.564 5.564 0 0 0-.407-1H13V5H9.89z"/></g></svg>