<svg xmlns="http://www.w3.org/2000/svg" width="16" height="16" viewBox="0 0 16 16"><rect id="frame" width="16" height="16" fill="none"/><g fill="#AFB1B3" fill-rule="evenodd"><path d="M2 6h4v4H2V6zm1 1v2h2V7H3zm7-1h4v4h-4V6zm1 1v2h2V7h-2z"/><path d="M12.958 11.002h.043v4.184l-1.38-1.38A5 5 0 0 1 3.04 11h1.52a3.501 3.501 0 0 0 6 1.744l-1.742-1.742h2.623V11h1.519v.002z"/><path d="M3.084 4.858H3.04V.674l1.38 1.38a5 5 0 0 1 8.582 2.806h-1.52a3.501 3.501 0 0 0-6-1.744l1.742 1.742H4.602v.002H3.083v-.002z"/></g></svg>