<svg width="24" height="24" viewBox="0 0 24 24" fill="none" xmlns="http://www.w3.org/2000/svg">
<path d="M18.35 24L24 9.025L19.5 8.025L18.35 24Z" fill="#087CFA"/>
<path d="M24 20L18.35 24L10.35 21.95L17 20H24Z" fill="url(#paint0_linear)"/>
<path d="M3.5 12.5L0.425049 3.7L13.175 0L3.5 12.5Z" fill="url(#paint1_linear)"/>
<path d="M17.5 8L17.375 7.8L17.425 7.75L13.175 0L0 14.225V24L24 20L17.5 8Z" fill="url(#paint2_linear)"/>
<path d="M20 4H4V20H20V4Z" fill="url(#paint3_linear)"/>
<path d="M12 17H6V18H12V17Z" fill="white"/>
<path d="M8.13331 6H9.33331L11.8933 12H10.5333L9.99998 10.6667H7.46664L6.93331 12H5.59998L8.13331 6ZM9.49331 9.49333L8.69331 7.54667L7.89331 9.49333H9.49331Z" fill="white"/>
<path d="M11.7 8.97769C11.7 7.2888 12.9444 5.86658 14.8111 5.86658C15.9666 5.86658 16.5888 6.22213 17.2111 6.75547L16.4111 7.73324C15.9666 7.2888 15.5222 7.02213 14.9 7.02213C13.9222 7.02213 13.1222 7.82213 13.1222 8.8888C13.1222 9.95547 13.8333 10.7555 14.9 10.7555C15.6111 10.7555 15.9666 10.4888 16.5 10.0444L17.3 10.9332C16.5888 11.6444 15.8777 11.9999 14.7222 11.9999C12.9444 11.9999 11.7 10.6666 11.7 8.97769Z" fill="white"/>
<defs>
<linearGradient id="paint0_linear" x1="10.3615" y1="21.6255" x2="23.9302" y2="21.6255" gradientUnits="userSpaceOnUse">
<stop offset="0.1935" stop-color="#07C3F2"/>
<stop offset="0.9032" stop-color="#087CFA"/>
</linearGradient>
<linearGradient id="paint1_linear" x1="0.436799" y1="5.49792" x2="13.1691" y2="5.49792" gradientUnits="userSpaceOnUse">
<stop offset="0.1935" stop-color="#07C3F2"/>
<stop offset="0.9032" stop-color="#087CFA"/>
</linearGradient>
<linearGradient id="paint2_linear" x1="15.7288" y1="24.7618" x2="3.83887" y2="8.16815" gradientUnits="userSpaceOnUse">
<stop offset="0.0913979" stop-color="#21D789"/>
<stop offset="0.4839" stop-color="#07C3F2"/>
<stop offset="0.9032" stop-color="#087CFA"/>
</linearGradient>
<linearGradient id="paint3_linear" x1="12" y1="0.129" x2="12" y2="14.4779" gradientUnits="userSpaceOnUse">
<stop offset="0.0842986" stop-color="#878585"/>
<stop offset="0.5377"/>
</linearGradient>
</defs>
</svg>
