<svg width="128" height="128" viewBox="0 0 128 128" fill="none" xmlns="http://www.w3.org/2000/svg">
<path d="M97.8664 128L128 48.1333L76 36L97.8664 128Z" fill="#087CFA"/>
<path d="M127.6 102.667L97.8666 128L55.2 117.067L85 88.5L127.6 102.667Z" fill="url(#paint0_linear)"/>
<path d="M19.5 70.5L2.26685 19.7333L70.2668 0L19.5 70.5Z" fill="url(#paint1_linear)"/>
<path d="M111.733 74.1333L92.6666 41.6L92.9333 41.3333L70.2666 0L0 75.8667V128L127.6 102.667L111.733 74.1333Z" fill="url(#paint2_linear)"/>
<path d="M103 25H25V103H103V25Z" fill="url(#paint3_linear)"/>
<path d="M62.7001 89.5668H33.6667V94.3335H62.7001V89.5668Z" fill="white"/>
<path d="M63 49.2665C63 41.0332 69.0667 34.0998 78.1667 34.0998C83.8 34.0998 86.8333 35.8332 89.8667 38.4332L85.9667 43.1998C83.8 41.0332 81.6333 39.7332 78.6 39.7332C73.8333 39.7332 69.9333 43.6332 69.9333 48.8332C69.9333 54.0332 73.4 57.9332 78.6 57.9332C82.0667 57.9332 83.8 56.6332 86.4 54.4665L90.3 58.7998C86.8333 62.2665 83.3667 63.9998 77.7333 63.9998C69.0667 63.9998 63 57.4998 63 49.2665Z" fill="white"/>
<path d="M45.15 34.53H51L63.48 63.78H56.85L54.25 57.28H41.9L39.3 63.78H32.8L45.15 34.53ZM51.78 51.56L47.88 42.07L43.98 51.56H51.78Z" fill="white"/>
<defs>
<linearGradient id="paint0_linear" x1="55.2613" y1="115.336" x2="127.628" y2="115.336" gradientUnits="userSpaceOnUse">
<stop offset="0.1935" stop-color="#07C3F2"/>
<stop offset="0.9032" stop-color="#087CFA"/>
</linearGradient>
<linearGradient id="paint1_linear" x1="2.32951" y1="29.3223" x2="70.2351" y2="29.3223" gradientUnits="userSpaceOnUse">
<stop offset="0.1935" stop-color="#07C3F2"/>
<stop offset="0.9032" stop-color="#087CFA"/>
</linearGradient>
<linearGradient id="paint2_linear" x1="83.8869" y1="132.063" x2="20.474" y2="43.5635" gradientUnits="userSpaceOnUse">
<stop offset="0.0913979" stop-color="#21D789"/>
<stop offset="0.4839" stop-color="#07C3F2"/>
<stop offset="0.9032" stop-color="#087CFA"/>
</linearGradient>
<linearGradient id="paint3_linear" x1="63.896" y1="6.0421" x2="63.896" y2="75.9925" gradientUnits="userSpaceOnUse">
<stop offset="0.0842986" stop-color="#878585"/>
<stop offset="0.5377"/>
</linearGradient>
</defs>
</svg>
