<svg width="16" height="16" viewBox="0 0 16 16" fill="none" xmlns="http://www.w3.org/2000/svg"><rect id="frame" width="16" height="16" fill="none"/><path fill-rule="evenodd" clip-rule="evenodd" d="M7.135 5.937A1.923 1.923 0 1 0 3.6 5.225c.14 1.96-.071 2.297-.288 2.641l-.025.04C2.593 9.02 2.29 9.108 1.891 9.223a2.643 2.643 0 0 0-.43.155 1.587 1.587 0 1 0 2.212 1.459c0-.286-.056-.445-.108-.592-.043-.126-.084-.242-.084-.42 0-.48.009-.83.48-1.538.472-.707 1.347-1.442 1.827-1.442.66 0 1.79.739 1.564 2.307a1.162 1.162 0 0 0-.025.241c0 .664.56 1.202 1.25 1.202s1.25-.538 1.25-1.202v-.817c0-.096.48-2.02 1.538-2.02.184 0 1.77.877 1.579 3.13-.026.107-.04.218-.04.332 0 .744.581 1.346 1.298 1.346.717 0 1.298-.602 1.298-1.346a1.35 1.35 0 0 0-.77-1.23c-2.246-1.038-2.085-2.773-2.03-3.373a1.298 1.298 0 0 0-2.585-.205l.001.006v.043c0 .103.01.203.031.299.087 1.866-1.291 2.658-1.409 2.643a1.3 1.3 0 0 0-.069-.006l.004-.004c-.096 0-2.054-.747-1.538-2.255zm4.904-.725a.673.673 0 1 1-1.347 0 .673.673 0 0 1 1.347 0z" fill="#FDB63D"/></svg>