<svg xmlns="http://www.w3.org/2000/svg" width="16" height="16" viewBox="0 0 16 16">
  <path fill="#D9A343" fill-rule="evenodd" d="M2.5 5.3555L2.5 3.6035 4.001 2.7345 5.5 3.6045 5.5 5.3565 3.999 6.2255 2.5 5.3555zM7 6.2205L7 2.7415 4.002 1.0005 1 2.7385 1 6.2185 3.998 7.9595 5.327 7.1905 7 6.2205zM9.5 12.3565L7.999 13.2255 6.5 12.3555 6.5 10.6035 8.001 9.7345 9.5 10.6045 9.5 12.3565zM5 9.7385L5 13.2185 7.998 14.9605 9.327 14.1905 11 13.2205 11 9.7415 8.002 8.0005 5 9.7385zM13.5 5.3565L11.999 6.2255 10.5 5.3555 10.5 3.6035 12.001 2.7345 13.5 3.6045 13.5 5.3565zM12.002 1.0005L9 2.7385 9 6.2185 11.998 7.9605 13.327 7.1905 15 6.2205 15 2.7415 12.002 1.0005z"/>
</svg>
