<svg xmlns="http://www.w3.org/2000/svg" width="16" height="16" viewBox="0 0 16 16"><rect id="frame" width="16" height="16" fill="none"/><g fill="#9AA7B0" fill-opacity=".8" fill-rule="evenodd"><path d="M8.742 7.528l.816 2.097H5.83l1.138-2.097h1.773zm3.191 0h3.068v2.097h-2.252l-.816-2.097zm-8.32 0L2.476 9.625H1.001V7.528h2.613zm1.42-1.457l1.572.664-2.84 5.785-1.626 1.503.063-2.186 2.83-5.766zm.359-.732l.398-.81c.302-.616.807-.72 1.245-.529.41.179.594.65.352 1.143l-.422.86-1.573-.664z"/><path d="M11.213 12.54l1.677-.72c.236.635.481 1.3.737 1.994-.908.53-1.988-.132-2.412-1.268l-.002-.006zm-.365-.982a9156.454 9156.454 0 0 0-3.576-9.63c-.077-.2.244-.645.664-.819.42-.173.975-.039 1.051.161.09.236 1.27 3.424 3.54 9.566l-1.679.722z"/></g></svg>