<svg width="16" height="16" viewBox="0 0 16 16" fill="none" xmlns="http://www.w3.org/2000/svg">
<path fill-rule="evenodd" clip-rule="evenodd" d="M12.7822 2.3L11.4161 1H4.5858L3.21973 2.3V12.7L4.5858 14H8.25606C8.09023 13.5308 8 13.026 8 12.5C8 11.6177 8.25395 10.7946 8.69274 10.1H4.5858V2.3H11.4161V8.13139C11.7633 8.04555 12.1263 8 12.5 8C12.5948 8 12.6889 8.00293 12.7822 8.00871V2.3Z" fill="#9AA7B0" fill-opacity="0.8"/>
<path d="M14.8226 13.9551C14.7167 14.1997 14.5914 14.4248 14.4462 14.6318C14.2483 14.9139 14.0863 15.1092 13.9614 15.2177C13.7679 15.3957 13.5605 15.4869 13.3384 15.4921C13.1789 15.4921 12.9867 15.4467 12.7628 15.3547C12.5383 15.263 12.3319 15.2177 12.1432 15.2177C11.9453 15.2177 11.7331 15.263 11.5061 15.3547C11.2787 15.4467 11.0955 15.4946 10.9555 15.4994C10.7425 15.5085 10.5303 15.4147 10.3184 15.2177C10.1831 15.0997 10.014 14.8975 9.8113 14.611C9.59388 14.3051 9.41513 13.9504 9.27509 13.5459C9.12511 13.1091 9.04993 12.6861 9.04993 12.2766C9.04993 11.8074 9.15129 11.4028 9.35433 11.0638C9.5139 10.7914 9.72618 10.5766 9.99187 10.4189C10.2576 10.2612 10.5446 10.1808 10.8538 10.1757C11.023 10.1757 11.2448 10.228 11.5205 10.3308C11.7954 10.434 11.9719 10.4863 12.0492 10.4863C12.1071 10.4863 12.3032 10.4252 12.6356 10.3032C12.9499 10.1901 13.2152 10.1432 13.4326 10.1617C14.0215 10.2092 14.464 10.4414 14.7582 10.8596C14.2315 11.1788 13.971 11.6258 13.9761 12.1992C13.9809 12.6458 14.1429 13.0175 14.4614 13.3126C14.6057 13.4496 14.7669 13.5554 14.9462 13.6306C14.9073 13.7434 14.8662 13.8514 14.8226 13.9551V13.9551ZM13.4719 8.64004C13.4719 8.99012 13.344 9.31699 13.0891 9.61953C12.7814 9.9792 12.4093 10.187 12.0058 10.1542C12.0006 10.1122 11.9977 10.068 11.9977 10.0216C11.9977 9.68551 12.144 9.32585 12.4038 9.03177C12.5335 8.88287 12.6985 8.75907 12.8985 8.6603C13.0981 8.56302 13.287 8.50921 13.4645 8.5C13.4697 8.5468 13.4719 8.5936 13.4719 8.64004V8.64004Z" fill="black"/>
</svg>
