<svg xmlns="http://www.w3.org/2000/svg" width="16" height="16" viewBox="0 0 16 16">
  <path fill="#252525" d="M4.586 0L1 3.586V8h.914L5 4.914 8.086 8H9V3.586L5.414 0h-.828z"/>
  <path fill="#7cbeff" d="M5 1L2 4v2.5l3-3 3 3V4L5 1z"/>
  <path fill="#252525" d="M16 8.787L14.213 7h-.829L11.5 8.884 9.616 7h-.829L7 8.787v.829L8.884 11.5 7 13.384v.829L8.787 16h.829l1.884-1.884L13.384 16h.829L16 14.213v-.829L14.116 11.5 16 9.616v-.829z"/>
  <path fill="#c4c4c4" d="M15 9.202L13.798 8 11.5 10.298 9.202 8 8 9.202l2.298 2.298L8 13.798 9.202 15l2.298-2.298L13.798 15 15 13.798 12.702 11.5 15 9.202z"/>
</svg>
