<svg xmlns="http://www.w3.org/2000/svg" width="16" height="16" viewBox="0 0 16 16">
  <path fill="#252525" d="M4.586 0L1 3.586V8h.914L5 4.914 8.086 8H9V3.586L5.414 0h-.828z"/>
  <path fill="#7cbeff" d="M5 1L2 4v2.5l3-3 3 3V4L5 1z"/>
  <path fill="#252525" d="M12 7h4v9h-4z"/>
  <path fill="#c4c4c4" d="M13 8h2v7h-2z"/>
  <g>
    <path fill="#252525" d="M12 8.787L10.213 7h-.829L7.5 8.884 5.616 7h-.829L3 8.787v.829L4.884 11.5 3 13.384v.829L4.787 16h.829L7.5 14.116 9.384 16h.829L12 14.213v-.829L10.116 11.5 12 9.616v-.829z"/>
    <path fill="#c4c4c4" d="M11 9.202L9.798 8 7.5 10.298 5.202 8 4 9.202 6.298 11.5 4 13.798 5.202 15 7.5 12.702 9.798 15 11 13.798 8.702 11.5 11 9.202z"/>
  </g>
</svg>
