<svg xmlns="http://www.w3.org/2000/svg" width="16" height="16" viewBox="0 0 16 16">
  <defs>
    <linearGradient id="a" x1="5" x2="5" y2="8" gradientUnits="userSpaceOnUse">
      <stop offset="0" stop-color="#541900"/>
      <stop offset="1" stop-color="#72490c"/>
    </linearGradient>
    <linearGradient id="b" x1="5" x2="5" y1="1" y2="6.5" gradientUnits="userSpaceOnUse">
      <stop offset="0" stop-color="#ffe38b"/>
      <stop offset="1" stop-color="orange"/>
    </linearGradient>
    <linearGradient id="c" x1="14" x2="14" y1="16" y2="7" gradientUnits="userSpaceOnUse">
      <stop offset="0" stop-color="#145400"/>
      <stop offset="1" stop-color="#24720c"/>
    </linearGradient>
    <linearGradient id="d" x1="14" x2="14" y1="8" y2="15" gradientUnits="userSpaceOnUse">
      <stop offset="0" stop-color="#7dff54"/>
      <stop offset="1" stop-color="#88d072"/>
    </linearGradient>
    <linearGradient id="e" x1="7.5" x2="7.5" y1="7" y2="16" gradientUnits="userSpaceOnUse">
      <stop offset="0" stop-color="#8b0031"/>
      <stop offset="1" stop-color="#450021"/>
    </linearGradient>
    <linearGradient id="f" x1="7.5" x2="7.5" y1="8" y2="15" gradientUnits="userSpaceOnUse">
      <stop offset="0" stop-color="#ffa763"/>
      <stop offset="1" stop-color="#ff1900"/>
    </linearGradient>
  </defs>
  <path fill="url(#a)" d="M4.586 0L1 3.586V8h.914L5 4.914 8.086 8H9V3.586L5.414 0h-.828z"/>
  <path fill="url(#b)" d="M5 1L2 4v2.5l3-3 3 3V4L5 1z"/>
  <path fill="url(#c)" d="M12 7h4v9h-4z"/>
  <path fill="url(#d)" d="M13 8h2v7h-2z"/>
  <g>
    <path fill="url(#e)" d="M12 8.787L10.213 7h-.829L7.5 8.884 5.616 7h-.829L3 8.787v.829L4.884 11.5 3 13.384v.829L4.787 16h.829L7.5 14.116 9.384 16h.829L12 14.213v-.829L10.116 11.5 12 9.616v-.829z"/>
    <path fill="url(#f)" d="M11 9.202L9.798 8 7.5 10.298 5.202 8 4 9.202 6.298 11.5 4 13.798 5.202 15 7.5 12.702 9.798 15 11 13.798 8.702 11.5 11 9.202z"/>
  </g>
</svg>
