<svg xmlns="http://www.w3.org/2000/svg" xmlns:xlink="http://www.w3.org/1999/xlink" width="16" height="16" viewBox="0 0 16 16">
  <defs>
    <linearGradient id="c" x1="5" x2="5" y2="8" gradientUnits="userSpaceOnUse">
      <stop offset="0" stop-color="#541900"/>
      <stop offset="1" stop-color="#72490c"/>
    </linearGradient>
    <linearGradient id="d" x1="5" x2="5" y1="1" y2="6.5" gradientUnits="userSpaceOnUse">
      <stop offset="0" stop-color="#ffe38b"/>
      <stop offset="1" stop-color="orange"/>
    </linearGradient>
    <linearGradient id="a" x1="8" x2="8" y1="16" y2="7" gradientUnits="userSpaceOnUse">
      <stop offset="0" stop-color="#145400"/>
      <stop offset="1" stop-color="#24720c"/>
    </linearGradient>
    <linearGradient id="b" x1="8" x2="8" y1="8" y2="15" gradientUnits="userSpaceOnUse">
      <stop offset="0" stop-color="#7dff54"/>
      <stop offset="1" stop-color="#88d072"/>
    </linearGradient>
    <linearGradient id="e" x1="12.5" x2="12.5" y1="15" y2="8" xlink:href="#a"/>
    <linearGradient id="f" x1="12.5" x2="12.5" y1="9" y2="14" xlink:href="#b"/>
  </defs>
  <path fill="url(#c)" d="M4.586 0L1 3.586V8h.914L5 4.914 8.086 8H9V3.586L5.414 0h-.828z"/>
  <path fill="url(#d)" d="M5 1L2 4v2.5l3-3 3 3V4L5 1z"/>
  <path fill="url(#a)" d="M6 7h4v9H6z"/>
  <path fill="url(#b)" d="M7 8h2v7H7z"/>
  <path fill="url(#e)" d="M11 15v-2H9v-3h2V8h3v2h2v3h-2v2h-3z"/>
  <path fill="url(#f)" d="M15 11h-2V9h-1v2h-2v1h2v2h1v-2h2v-1z"/>
</svg>
