<svg xmlns="http://www.w3.org/2000/svg" width="16" height="16" viewBox="0 0 16 16">
  <defs>
    <linearGradient id="a" x1="5" x2="5" y1="4" y2="16" gradientUnits="userSpaceOnUse">
      <stop offset="0" stop-color="#004354"/>
      <stop offset="1" stop-color="#0c4b72"/>
    </linearGradient>
    <linearGradient id="b" x1="5" x2="5" y1="5.5" y2="15" gradientUnits="userSpaceOnUse">
      <stop offset="0" stop-color="#8bffed"/>
      <stop offset="1" stop-color="#61aae7"/>
    </linearGradient>
    <linearGradient id="c" x1="12" x2="12" y1="9" gradientUnits="userSpaceOnUse">
      <stop offset="0" stop-color="#145400"/>
      <stop offset="1" stop-color="#24720c"/>
    </linearGradient>
    <linearGradient id="d" x1="12" x2="12" y1="1" y2="8" gradientUnits="userSpaceOnUse">
      <stop offset="0" stop-color="#7dff54"/>
      <stop offset="1" stop-color="#88d072"/>
    </linearGradient>
  </defs>
  <path fill="url(#a)" d="M5 7.086L1.914 4H1v8.414L4.586 16h.828L9 12.414V4h-.914L5 7.086z"/>
  <path fill="url(#b)" d="M2 12V9.5l3 3 3-3V12l-3 3zm3-1l3-3V5.5l-3 3-3-3V8z"/>
  <path fill="url(#c)" d="M10 0h4v9h-4z"/>
  <path fill="url(#d)" d="M11 1h2v7h-2z"/>
</svg>
