<svg xmlns="http://www.w3.org/2000/svg" width="16" height="16">
  <circle cx="11.5" cy="9.5" r="3.5" fill="#252525"/>
  <circle cx="11.5" cy="9.5" r="2.5" fill="#c4c4c4"/>
  <path fill="#252525" d="M4.086 6L1 9.086 1 9.914 4.086 13 4.914 13 8 9.914 8 9.086 4.914 6 4.086 6z"/>
  <path transform="rotate(-45 4.5 9.5)" fill="#c4c4c4" d="M2.732 7.732H6.268000000000001V11.268H2.732z"/>
  <circle cx="11.5" cy="9.5" r="1.5" fill="#292929"/>
  <path d="M10.586,2l-.718.718A4.36,4.36,0,0,0,7.5,2,4.794,4.794,0,0,0,3.057,5.406L3,5.567v.88L4.584,7h.879L5.7,6.331A2.052,2.052,0,0,1,7.5,4.8a1.437,1.437,0,0,1,.242.047L7,5.586V7h5V2Z" fill="#252525"/>
  <path d="M9.947,4.053A3.467,3.467,0,0,0,7.5,3h0A3.81,3.81,0,0,0,4,5.737L4.754,6A3.026,3.026,0,0,1,7.5,3.8h0a2.673,2.673,0,0,1,1.882.821L8,6h3V3Z" fill="#7cbdff"/>
</svg>
