<svg xmlns="http://www.w3.org/2000/svg" width="16" height="16" viewBox="0 0 16 16">
  <path fill="#DA4648" d="M7.67441949 11.9424249L8.24174659 11.2160872C8.24174659 11.2160872 6.9505048 11.5384613 4.78875568 11.5384613 2.6269687 11.5384613 1.35530035 11.223413 1.35530035 11.223413L1.9911156 12.0157402 2.21603988 14.5101622C2.21603988 14.7775839 3.39192327 14.9943494 4.84251641 14.9943494 6.29303382 14.9943494 7.46895507 14.7775839 7.46895507 14.5101622L7.67441949 11.9424249zM8.36950606.177197802L7.13324232.151486091 5.98351667 2.63736264C5.60665526 2.62789204 5.22780485 2.6372995 4.85073195 2.63736264 2.18783443 2.63736264.0291140838 2.85115775.0291140838 3.13186825.0291140838 3.41260714 2.18783443 3.87362637 4.85073195 3.87362637 7.51359162 3.87362637 9.6722741 3.41260714 9.6722741 3.13186825 9.6722741 2.92515447 8.90044674 2.71678275 7.21978041 2.63736264L8.36950606.177197802zM9.58072943 3.88598929C9.58072943 3.8918386 8.92973246 4.6153845 4.78811206 4.6153845.646453811 4.6153845.0628091873 3.88598929.0628091873 3.88598929L1.11788238 10.2774729C1.11788238 10.2774729 2.02700656 10.6730769 4.76566128 10.6730769 7.504316 10.6730769 8.44709743 10.2898346 8.44709743 10.2898346L9.58072943 3.88598929z" transform="translate(3)"/>
</svg>
