<svg xmlns="http://www.w3.org/2000/svg" width="13" height="13" viewBox="0 0 13 13"><rect id="frame" width="13" height="13" fill="none"/><path d="M8.708 9.527l.459-.588S8.122 9.2 6.374 9.2c-1.75 0-2.778-.255-2.778-.255l.515.641.182 2.018c0 .216.95.391 2.124.391 1.173 0 2.125-.175 2.125-.391l.166-2.077zM9.27.01l-1-.02L7.34 2c-.305-.008-.611 0-.916 0-2.154 0-3.9.173-3.9.4 0 .227 1.746.6 3.9.6s3.9-.373 3.9-.6c0-.167-.625-.336-1.984-.4L9.27.01zm.98 3c0 .005-.527.59-3.877.59-3.35 0-3.822-.59-3.822-.59l.853 5.17s.736.32 2.95.32c2.216 0 2.979-.31 2.979-.31l.917-5.18z" fill="#6E6E6E"/></svg>