<svg xmlns="http://www.w3.org/2000/svg" width="16" height="16" viewBox="0 0 16 16"><rect id="frame" width="16" height="16" fill="none"/><path fill="#DA4648" d="M10.674 11.942l.568-.726s-1.291.322-3.453.322-3.434-.315-3.434-.315l.636.793.225 2.494c0 .268 1.176.484 2.627.484 1.45 0 2.626-.216 2.626-.484l.205-2.568zM11.37.177L10.133.151l-1.15 2.486c-.376-.01-.755 0-1.132 0-2.663 0-4.822.214-4.822.495 0 .28 2.159.742 4.822.742 2.663 0 4.821-.461 4.821-.742 0-.207-.772-.415-2.452-.495l1.15-2.46zm1.21 3.709c0 .006-.65.73-4.792.73-4.142 0-4.725-.73-4.725-.73l1.055 6.391s.909.396 3.648.396c2.738 0 3.681-.383 3.681-.383l1.134-6.404z"/></svg>