<svg xmlns="http://www.w3.org/2000/svg" width="40" height="40" viewBox="0 0 40 40"><rect id="frame" width="40" height="40" fill="none"/><g fill="none" fill-rule="evenodd"><path fill="#326CE5" d="M19.896 2.98c-.301.016-.596.09-.868.22L7.19 8.857a2.249 2.249 0 0 0-1.225 1.523l-2.92 12.707a2.23 2.23 0 0 0 .436 1.9l8.194 10.189c.43.534 1.081.845 1.77.845l13.141-.004c.689.001 1.34-.31 1.77-.843l8.192-10.19c.43-.534.59-1.234.437-1.9L34.06 10.377a2.249 2.249 0 0 0-1.225-1.523L20.994 3.2a2.28 2.28 0 0 0-1.098-.22z"/><path fill="#FFF" fill-rule="nonzero" d="M20.013 7.305c-.391 0-.709.352-.708.787l.001.02c0 .059-.003.13-.001.182.009.25.064.442.096.673.06.495.11.905.08 1.286-.03.144-.137.275-.231.366l-.017.3a9.115 9.115 0 0 0-5.911 2.842 11.88 11.88 0 0 1-.256-.182c-.126.018-.254.057-.42-.04-.318-.214-.607-.509-.956-.863-.16-.17-.276-.332-.466-.496-.044-.037-.11-.087-.158-.125a.843.843 0 0 0-.493-.187.683.683 0 0 0-.565.25c-.244.306-.166.774.174 1.045l.01.008c.047.037.104.086.147.118.202.149.387.225.588.343.424.262.775.48 1.054.74.108.117.128.321.142.41l.227.203a9.17 9.17 0 0 0-1.446 6.392l-.297.087c-.078.1-.188.26-.304.307-.365.115-.775.157-1.27.209-.233.02-.434.008-.68.054-.054.01-.13.03-.19.044l-.006.002-.01.003c-.418.1-.686.485-.6.863.087.378.495.608.915.518l.01-.002c.005 0 .01-.003.014-.004.059-.013.132-.028.183-.041.243-.065.418-.16.636-.244.47-.168.857-.309 1.236-.363.158-.013.324.097.407.143l.309-.053a9.222 9.222 0 0 0 4.087 5.103l-.13.309c.047.12.098.282.064.4-.138.357-.373.734-.642 1.153-.13.194-.262.345-.38.567-.028.053-.063.134-.09.19-.183.39-.049.839.3 1.007.353.17.79-.009.979-.4h.002v-.002c.026-.056.065-.128.087-.18.1-.23.134-.428.205-.65.187-.471.29-.965.548-1.273.071-.084.186-.117.306-.149l.16-.29a9.156 9.156 0 0 0 6.54.016l.151.273c.122.04.254.06.362.22.193.33.325.72.486 1.19.07.223.106.42.206.65.023.053.06.127.088.182.189.392.627.571.98.401.35-.168.483-.617.3-1.007-.026-.056-.064-.137-.092-.19-.117-.222-.25-.371-.38-.565-.268-.42-.49-.768-.628-1.125-.058-.184.01-.299.054-.418-.026-.03-.084-.205-.118-.286a9.221 9.221 0 0 0 4.086-5.14c.091.015.25.043.302.054.107-.07.205-.162.397-.147.378.055.767.195 1.236.363.218.084.393.18.636.246.05.013.124.026.183.039l.013.005.011.001c.42.09.828-.14.914-.518.087-.378-.181-.762-.6-.863-.06-.014-.146-.037-.205-.048-.247-.047-.447-.035-.68-.055-.495-.052-.906-.094-1.27-.209-.149-.057-.255-.234-.306-.307l-.286-.083a9.151 9.151 0 0 0-.149-3.309 9.173 9.173 0 0 0-1.328-3.069l.252-.226c.011-.127.001-.26.133-.4.279-.262.63-.48 1.054-.741.201-.119.387-.195.589-.344.046-.034.108-.087.156-.126.34-.27.418-.738.174-1.044-.244-.306-.717-.335-1.057-.064-.048.038-.114.088-.157.126-.19.163-.308.325-.468.495-.35.355-.639.651-.956.864-.137.08-.338.053-.43.047l-.27.193a9.287 9.287 0 0 0-5.882-2.842 17.12 17.12 0 0 1-.016-.317c-.092-.088-.204-.163-.232-.354-.03-.381.02-.791.08-1.286.033-.23.088-.423.097-.673.002-.057-.001-.14-.001-.202 0-.435-.318-.787-.709-.787zm-.887 5.496l-.21 3.717-.016.008a.625.625 0 0 1-.992.478l-.006.003-3.048-2.16a7.3 7.3 0 0 1 4.272-2.046zm1.776 0a7.361 7.361 0 0 1 4.246 2.047l-3.029 2.147-.01-.004a.625.625 0 0 1-.994-.477l-.003-.002-.21-3.71zm-7.153 3.434l2.783 2.49-.003.015a.624.624 0 0 1-.245 1.073l-.003.012-3.567 1.03a7.298 7.298 0 0 1 1.035-4.62zm12.508.002a7.39 7.39 0 0 1 .913 2.23c.185.802.23 1.602.155 2.376l-3.586-1.033-.003-.015a.625.625 0 0 1-.245-1.074l-.001-.007 2.767-2.477zm-6.815 2.68h1.14l.71.886-.255 1.105-1.024.492-1.026-.494-.255-1.105.71-.884zm3.655 3.031a.622.622 0 0 1 .144.01l.006-.007 3.69.624a7.308 7.308 0 0 1-2.954 3.711l-1.432-3.46.004-.006a.625.625 0 0 1 .542-.872zm-6.197.015a.625.625 0 0 1 .565.87l.01.014-1.417 3.425a7.338 7.338 0 0 1-2.945-3.685l3.658-.62.006.007a.632.632 0 0 1 .123-.01zm3.09 1.5a.618.618 0 0 1 .293.063.62.62 0 0 1 .28.266h.013l1.804 3.259a7.474 7.474 0 0 1-.721.201 7.328 7.328 0 0 1-3.999-.206l1.799-3.252h.003a.626.626 0 0 1 .528-.33z"/></g></svg>