<svg xmlns="http://www.w3.org/2000/svg" width="16" height="16" viewBox="0 0 16 16"><rect id="frame" width="16" height="16" fill="none"/><g fill="#6E6E6E" fill-rule="evenodd"><path d="M5.493 7.997L4.206 6.711 2.4 8.516.635 6.751l2.023-2.023a.502.502 0 0 1 .073-.09l2.647-2.63.005.002L8.355 2l-.008.69-.99.47L5.751 4.72 7.26 6.23 5.493 7.997zm3.363 3.364l1.768-1.768 2.691 2.692-1.767 1.767-2.692-2.691z"/><path d="M12.824 2.631L11 4.455l1.477 1.477 1.824-1.823a2.787 2.787 0 0 1-3.521 3.705l-6.2 6.2-1.769-1.768 6.254-6.254a2.785 2.785 0 0 1 3.759-3.36z"/></g></svg>