<svg width="16" height="16" viewBox="0 0 16 16" fill="none" xmlns="http://www.w3.org/2000/svg"><rect id="frame" width="16" height="16" fill="none"/><g fill="#AFB1B3"><path fill-rule="evenodd" clip-rule="evenodd" d="M3.5 5A2.5 2.5 0 0 0 1 7.5v1a2.5 2.5 0 0 0 5 0v-1A2.5 2.5 0 0 0 3.5 5zm0 1A1.5 1.5 0 0 0 2 7.5v1a1.5 1.5 0 1 0 3 0v-1A1.5 1.5 0 0 0 3.5 6z"/><path d="M7 5h1v6H7z"/><path d="M7 5h3v1H7z"/><path d="M7 7.5h3v1H7z"/><path d="M11 5h1v6h-1z"/><path d="M11 5h3v1h-3z"/><path d="M11 7.5h3v1h-3z"/></g></svg>