<svg width="16" height="16" viewBox="0 0 16 16" fill="none" xmlns="http://www.w3.org/2000/svg"><rect id="frame" width="16" height="16" fill="none"/><g fill-rule="evenodd" clip-rule="evenodd" fill="#499C54"><path d="M6.68 12.07L13.751 5 11.823 3.07 6.68 8.214 4.11 5.643 2.18 7.57l4.5 4.5z"/><path d="M2.707 15.014L2 14.307 4.707 11.6l.707.707-2.707 2.707z"/><path d="M4 12.307l.707-.707 2.707 2.707-.707.707L4 12.307z"/><path d="M6.707 15.014L6 14.307 8.707 11.6l.707.707-2.707 2.707z"/><path d="M8 12.307l.707-.707 2.707 2.707-.707.707L8 12.307z"/><path d="M10.707 15.014L10 14.307l2.707-2.707.707.707-2.707 2.707z"/></g></svg>