<svg width="16" height="16" viewBox="0 0 16 16" fill="none" xmlns="http://www.w3.org/2000/svg"><rect id="frame" width="16" height="16" fill="none"/><path fill-rule="evenodd" clip-rule="evenodd" d="M7.398 11.093C6.553 10.58 5.09 9.341 5.06 9.368a21.01 21.01 0 0 1-2.447 1.677c-.51.294-1.03.367-1.35-.068a.736.736 0 0 1 .198-1.041c.006-.003 1.814-1.182 2.416-1.703a8.632 8.632 0 0 1-1.655-2.62.799.799 0 0 1 .391-1.015c.39-.165.778-.094 1.102.46A7.66 7.66 0 0 0 5.06 7.204 8.046 8.046 0 0 0 6.66 3.98L1 3.965V2.478h3.568V1.74a.731.731 0 1 1 1.461 0v.737h3.833v1.487H8.315a12.632 12.632 0 0 1-1.957 4.268c.53.46 1.101.873 1.706 1.231l1.712-4.2a.861.861 0 0 1 1.616.012l2.232 5.477L15 14.004h-1.834l-.803-1.882H8.775l-.659 1.882H6.19l.213-.513.996-2.398zm3.197-3.83l-1.242 3.376h2.484l-1.242-3.377z" fill="#7F8B91" fill-opacity=".5"/></svg>