<svg xmlns="http://www.w3.org/2000/svg" width="16" height="16" viewBox="0 0 16 16"><rect id="frame" width="16" height="16" fill="none"/><g fill="none" fill-rule="evenodd"><path fill="#40B6E0" fill-opacity=".6" d="M10.39 1.419L9 2.803v1.054h2V8h4a7 7 0 1 1-4.61-6.581z"/><path fill="#231F20" fill-opacity=".7" d="M7.984 11C6.268 11 5 9.66 5 8.027v-.022C5 6.361 6.279 5 8.005 5 9.732 5 11 6.34 11 7.984v.021A2.973 2.973 0 0 1 7.984 11zm.021-1.154c1.045 0 1.705-.828 1.705-1.819v-.022c0-1.012-.714-1.85-1.726-1.85-1.034 0-1.694.827-1.694 1.829v.021c0 1.002.714 1.84 1.715 1.84z"/><path fill="#9AA7B0" d="M14 3h2l-3-3-3 3h2v4h2V3z"/></g></svg>