<svg width="16" height="16" viewBox="0 0 16 16" fill="none" xmlns="http://www.w3.org/2000/svg"><rect id="frame" width="16" height="16" fill="none"/><path d="M2.173 3.293A6.923 6.923 0 0 1 4.226 3C5.369 3 6.65 3.455 7.5 4.1v9.114c-.792-.498-2.277-1.124-3.274-1.124-.968 0-1.965.176-2.786.616-.185.093-.44-.049-.44-.264V3.88c.352-.264.733-.44 1.173-.587zm.327 7.6c.645-.205 1.022-.279 1.726-.279.997 0 1.786.242 2.578.74V5.4c-.657-.594-1.581-1.03-2.578-1.03-.704 0-1.226.13-1.726.38v6.143z" fill="#AFB1B3"/><path d="M12.827 3.293A6.924 6.924 0 0 0 10.774 3C9.631 3 8.35 3.455 7.5 4.1v9.114c.792-.498 2.277-1.124 3.274-1.124.968 0 1.965.176 2.786.616.185.093.44-.049.44-.264V3.88c-.352-.264-.733-.44-1.173-.587zm-.327 7.6c-.645-.205-1.022-.279-1.726-.279-.997 0-1.786.242-2.578.74V5.4c.657-.594 1.581-1.03 2.578-1.03.704 0 1.226.13 1.726.38v6.143z" fill="#AFB1B3"/></svg>