<svg ti:v="1" width="16" height="16" viewBox="0 0 16 16" xmlns="http://www.w3.org/2000/svg" xmlns:ti="urn:schemas-jetbrains-com:tisvg"><rect id="frame" width="16" height="16" fill="none"/><g fill-rule="evenodd"><path d="M2 15h12V4H2v11z" fill="#F4F4F4"/><path d="M13 4H3v10h10V4z" fill="#01509E"/><path d="M4 13h8V4H4v9z" fill="#EBEBEB"/><path d="M7 10H5v1h2m4-1H8v1h3M7 6H5v1h2m4 0H8V6h3M7 8H5v1h2m4 0H8V8h3v1z" fill="#01509E"/><path d="M2 1v3h12V1H2z" fill="#F4F4F4"/><path d="M3 4h10V2H3v2z" fill="#01509E"/><path d="M10 11a5 5 0 0 1-5 5 5 5 0 0 1-5-5 5 5 0 0 1 5-5 5 5 0 0 1 5 5z" fill="#F4F4F4"/><path d="M7.714 11.658a2.804 2.804 0 0 1-.331.795l.768.984a4.038 4.038 0 0 1-.712.713l-.986-.767c-.244.148-.51.261-.795.332l-.154 1.234C5.337 14.971 5.173 15 5 15s-.337-.029-.504-.051l-.154-1.234a2.865 2.865 0 0 1-.795-.332l-.985.767a3.972 3.972 0 0 1-.712-.713l.767-.984a2.833 2.833 0 0 1-.331-.795l-1.235-.154C1.029 11.338 1 11.174 1 11c0-.172.029-.336.05-.504l1.236-.154a2.82 2.82 0 0 1 .33-.795l-.766-.985c.207-.267.445-.506.712-.713l.985.768c.244-.148.51-.262.795-.33l.154-1.236C4.663 7.029 4.826 7 5 7c.173 0 .337.029.504.051l.154 1.236c.285.068.55.182.795.33l.986-.768c.266.207.504.446.712.713l-.768.985c.148.244.262.509.33.795l1.236.154c.022.168.05.332.05.504 0 .174-.028.338-.05.504l-1.235.154z" fill="#313131"/><path d="M5 9a2 2 0 1 0 .001 4.001A2 2 0 0 0 5 9z" fill="#EBEBEB"/><path d="M5 12a1 1 0 1 1 0-2 1 1 0 1 1 0 2z" fill="#313131"/></g></svg>