<svg ti:v="1" width="16" height="16" viewBox="0 0 16 16" xmlns="http://www.w3.org/2000/svg" xmlns:ti="urn:schemas-jetbrains-com:tisvg"><rect id="frame" width="16" height="16" fill="none"/><linearGradient id="a" x1="0" y1=".5" x2="1" y2=".5"><stop offset="0" stop-color="#5D5E62"/><stop offset="1" stop-color="#282C2D"/></linearGradient><path fill-rule="evenodd" d="M2 15h12V4H2v11z" fill="url(#a)"/><path fill-rule="evenodd" d="M13 4H3v10h10V4z" fill="#FFF"/><linearGradient id="b" x1="0" y1=".5" x2="1" y2=".5"><stop offset="0" stop-color="#F2F9FF"/><stop offset="1" stop-color="#CCEAFF"/></linearGradient><path fill-rule="evenodd" d="M4 13h8V4H4v9z" fill="url(#b)"/><linearGradient id="c" x1="0" y1=".5" x2="1" y2=".5"><stop offset="0" stop-color="#006293"/><stop offset="1" stop-color="#00214F"/></linearGradient><path fill-rule="evenodd" d="M8 7h3V6H8M5 7h2V6H5m3 3h3V8H8M5 9h2V8H5m3 3h3v-1H8m-3 1h2v-1H5v1z" fill="url(#c)"/><linearGradient id="d" x1=".5" y1="0" x2=".5" y2="1"><stop offset="0" stop-color="#003D62"/><stop offset="1" stop-color="#00134F"/></linearGradient><path fill-rule="evenodd" d="M2 1v3h12V1H2z" fill="url(#d)"/><linearGradient id="e" x1="0" y1=".5" x2=".993" y2=".5"><stop offset="0" stop-color="#33D5FF"/><stop offset="1" stop-color="#009CFF"/></linearGradient><path fill-rule="evenodd" d="M3 4h10V1.999H3V4z" fill="url(#e)"/><linearGradient id="f" x1=".5" y1="0" x2=".5" y2="1"><stop offset="0" stop-color="#907B00"/><stop offset="1" stop-color="#664900"/></linearGradient><path fill-rule="evenodd" d="M0 11a5 5 0 1 0 10 0 5 5 0 1 0-10 0z" fill="url(#f)"/><linearGradient id="g" x1=".5" y1="0" x2=".5" y2="1"><stop offset="0" stop-color="#FDFFF2"/><stop offset="1" stop-color="#E8A300"/></linearGradient><path fill-rule="evenodd" d="M4.496 7.051l-.154 1.236a2.773 2.773 0 0 0-.795.33l-.985-.767a3.999 3.999 0 0 0-.712.712l.768.985c-.149.244-.262.51-.332.795l-1.235.154C1.029 10.664 1 10.828 1 11c0 .173.029.338.051.504l1.235.154c.07.286.183.551.332.795l-.768.985c.207.267.445.506.712.713l.985-.768c.244.148.51.262.795.332l.154 1.234c.167.022.331.051.504.051s.337-.029.504-.051l.155-1.234c.284-.07.55-.184.794-.332l.986.768c.266-.207.505-.446.712-.713l-.768-.985c.149-.244.262-.509.331-.795l1.235-.154C8.971 11.338 9 11.173 9 11c0-.172-.029-.336-.051-.504l-1.235-.154a2.775 2.775 0 0 0-.331-.795l.768-.985a4.032 4.032 0 0 0-.712-.712l-.986.767a2.779 2.779 0 0 0-.794-.33l-.155-1.236C5.337 7.029 5.173 7 5 7s-.337.029-.504.051z" fill="url(#g)"/><linearGradient id="h" x1=".5" y1="0" x2=".5" y2="1"><stop offset="0" stop-color="#D09300"/><stop offset="1" stop-color="#FFFFFB"/></linearGradient><path fill-rule="evenodd" d="M3 11a2 2 0 1 0 4 0 2 2 0 0 0-4 0z" fill="url(#h)"/><path fill-rule="evenodd" d="M5 12a1 1 0 1 1 0-2 1 1 0 1 1 0 2z" fill="#3C2C0F"/></svg>