<svg ti:v="1" width="16" height="16" viewBox="0 0 16 16" xmlns="http://www.w3.org/2000/svg" xmlns:ti="urn:schemas-jetbrains-com:tisvg"><rect id="frame" width="16" height="16" fill="none"/><linearGradient id="a" x1=".5" y1=".041" x2=".5" y2="1.017"><stop offset="0" stop-color="#BCF8FF"/><stop offset="1" stop-color="#93D1FF"/></linearGradient><path fill-rule="evenodd" d="M16 0H0v16h16m-1-1H1V1h14v14z" fill="url(#a)"/><linearGradient id="b" x1=".5" y1=".013" x2=".5" y2="1"><stop offset="0" stop-color="#133F85"/><stop offset="1" stop-color="#04214D"/></linearGradient><path fill-rule="evenodd" d="M14 15h-1v1h1m2-1h-1v1h1m-6-1H9v1h1m-2-1H7v1h1m-2-1H5v1h1m-2-1H3v1h1m-2-1H1v1h1m-2-1h1v-1H0m1-2H0v1h1m0-3H0v1h1m0-3H0v1h1m0-3H0v1h1m0-3H0v1h1m0-3H0v1h1m11 12h-1v1h1m4-3h-1v1h1m0-3h-1v1h1m0-3h-1v1h1m0-3h-1v1h1m0-3h-1v1h1m0-3h-1v1h1m-1-2h1V1h-1m0-1h-1v1h1m-2-1h-1v1h1m-2-1h-1v1h1M9 0H8v1h1M7 0H6v1h1M5 0H4v1h1M3 0H2v1h1M1 1H0V0h1v1z" fill="url(#b)"/><linearGradient id="c" x1=".5" y1=".013" x2=".5" y2="1"><stop offset="0" stop-color="#133F85"/><stop offset="1" stop-color="#04214D"/></linearGradient><path fill-rule="evenodd" d="M5 6h4v4H5V6z" fill="url(#c)"/><linearGradient id="d" x1=".5" y1="0" x2=".5" y2="1"><stop offset="0" stop-color="#FFE295"/><stop offset="1" stop-color="#F90"/></linearGradient><path fill-rule="evenodd" d="M8 9H6V7h2v2z" fill="url(#d)"/><linearGradient id="e" x1=".5" y1=".013" x2=".5" y2="1"><stop offset="0" stop-color="#133F85"/><stop offset="1" stop-color="#04214D"/></linearGradient><path fill-rule="evenodd" d="M2 5h4v6H2V5z" fill="url(#e)"/><linearGradient id="f" x1=".5" y1=".041" x2=".5" y2="1.017"><stop offset="0" stop-color="#8CF4FF"/><stop offset="1" stop-color="#21A1FF"/></linearGradient><path fill-rule="evenodd" d="M5 10H3V6h2v4z" fill="url(#f)"/><linearGradient id="g" x1=".5" y1=".013" x2=".5" y2="1"><stop offset="0" stop-color="#133F85"/><stop offset="1" stop-color="#04214D"/></linearGradient><path fill-rule="evenodd" d="M8 3h6v10H8V3z" fill="url(#g)"/><linearGradient id="h" x1=".5" y1=".041" x2=".5" y2="1.017"><stop offset="0" stop-color="#8CF4FF"/><stop offset="1" stop-color="#21A1FF"/></linearGradient><path fill-rule="evenodd" d="M13 12H9V4h4v8z" fill="url(#h)"/></svg>