<svg ti:v="1" width="16" height="16" viewBox="0 0 16 16" xmlns="http://www.w3.org/2000/svg" xmlns:ti="urn:schemas-jetbrains-com:tisvg"><rect id="frame" width="16" height="16" fill="none"/><linearGradient id="a" x1=".5" y1=".013" x2=".5" y2="1"><stop offset="0" stop-color="#133F85"/><stop offset="1" stop-color="#04214D"/></linearGradient><path fill-rule="evenodd" d="M5 6h4v4H5V6z" fill="url(#a)"/><linearGradient id="b" x1=".5" y1="0" x2=".5" y2="1"><stop offset="0" stop-color="#FFE295"/><stop offset="1" stop-color="#F90"/></linearGradient><path fill-rule="evenodd" d="M8 9H6V7h2v2z" fill="url(#b)"/><linearGradient id="c" x1=".5" y1=".013" x2=".5" y2="1"><stop offset="0" stop-color="#133F85"/><stop offset="1" stop-color="#04214D"/></linearGradient><path fill-rule="evenodd" d="M1 5h5v6H1V5z" fill="url(#c)"/><linearGradient id="d" x1=".5" y1=".041" x2=".5" y2="1.017"><stop offset="0" stop-color="#8CF4FF"/><stop offset="1" stop-color="#21A1FF"/></linearGradient><path fill-rule="evenodd" d="M5 10H2V6h3v4z" fill="url(#d)"/><linearGradient id="e" x1=".5" y1=".013" x2=".5" y2="1"><stop offset="0" stop-color="#133F85"/><stop offset="1" stop-color="#04214D"/></linearGradient><path fill-rule="evenodd" d="M8 3h7v10H8V3z" fill="url(#e)"/><linearGradient id="f" x1=".5" y1=".041" x2=".5" y2="1.017"><stop offset="0" stop-color="#8CF4FF"/><stop offset="1" stop-color="#21A1FF"/></linearGradient><path fill-rule="evenodd" d="M14 12H9V4h5v8z" fill="url(#f)"/></svg>