<svg ti:v="1" width="16" height="16" viewBox="0 0 16 16" xmlns="http://www.w3.org/2000/svg" xmlns:ti="urn:schemas-jetbrains-com:tisvg"><rect id="frame" width="16" height="16" fill="none"/><linearGradient id="a" x1="0" y1=".5" x2="1" y2=".5"><stop offset="0" stop-color="#385985"/><stop offset="1" stop-color="#263D59"/></linearGradient><path fill-rule="evenodd" d="M5 6h10V1H5m10 13H5V9h10v5z" fill="url(#a)"/><linearGradient id="b" x1="0" y1=".5" x2="1" y2=".5"><stop offset="0" stop-color="#C6E9FF"/><stop offset="1" stop-color="#85B5FF"/></linearGradient><path fill-rule="evenodd" d="M6 13h8v-1H6m0-1h8v-1H6m0-5h8V4H6m8-1H6V2h8v1z" fill="url(#b)"/><linearGradient id="c" x1=".01" y1=".5" x2="1" y2=".5"><stop offset="0" stop-color="#855900"/><stop offset="1" stop-color="#3D2800"/></linearGradient><path fill-rule="evenodd" d="M12 10H2V5h10v5z" fill="url(#c)"/><linearGradient id="d" x1=".016" y1=".5" x2=".993" y2=".5"><stop offset="0" stop-color="#FFC13F"/><stop offset="1" stop-color="#D89300"/></linearGradient><path fill-rule="evenodd" d="M3 9h8V6H3v3z" fill="url(#d)"/></svg>