<svg ti:v="1" width="16" height="16" viewBox="0 0 16 16" xmlns="http://www.w3.org/2000/svg" xmlns:ti="urn:schemas-jetbrains-com:tisvg"><rect id="frame" width="16" height="16" fill="none"/><g fill-rule="evenodd"><path d="M13 12H3V3h10v9z" fill="#F4F4F4"/><path d="M12 9v2H7v4h8V9h-3z" fill="#F4F4F4"/><path d="M4 4h5V0H1v6h3V4z" fill="#F4F4F4"/><path d="M4 11h8v-1H4m0-1h8V8H4m0-1h8V6H4m0-1h8V4H4v1z" fill="#313131"/><path d="M8 1v2H3v2H2V1h6z" fill="#313131"/><path d="M14 14v-4h-1v2H8v2h6z" fill="#313131"/></g></svg>