<svg ti:v="1" width="16" height="16" viewBox="0 0 16 16" xmlns="http://www.w3.org/2000/svg" xmlns:ti="urn:schemas-jetbrains-com:tisvg"><rect id="frame" width="16" height="16" fill="none"/><linearGradient id="a" x1=".5" y1=".005" x2=".5" y2="1.01"><stop offset="0" stop-color="#694822"/><stop offset="1" stop-color="#2A1D0B"/></linearGradient><path fill-rule="evenodd" d="M6 2C4.458 2 3 3.458 3 5v6c0 1.542 1.458 3 3 3h5v-2h.02c1.166 0 1.98-1.053 1.98-2V5c0-1.542-1.458-3-3-3H6z" fill="url(#a)"/><linearGradient id="b" x1=".5" y1="0" x2=".5" y2="1.012"><stop offset="0" stop-color="#FFE9D0"/><stop offset="1" stop-color="#FFBF7A"/></linearGradient><path fill-rule="evenodd" d="M6 3C5 3 4 4 4 5v6c0 1 1 2 2 2h4v-1H6c-.313 0-1-.649-1-1V5c0-.297.453-1 1-1h4c.516 0 1 .531 1 1v5h-1V6s0-1-1-1H7v1h2v1H7C6 7 6 8 6 8v2c0 1 1 1 1 1h4.02c.64 0 .98-.647.98-1V5c0-1-1-2-2-2M7 8h2.001v2H7V8z" fill="url(#b)"/></svg>