<svg ti:v="1" width="16" height="16" viewBox="0 0 16 16" xmlns="http://www.w3.org/2000/svg" xmlns:ti="urn:schemas-jetbrains-com:tisvg"><rect id="frame" width="16" height="16" fill="none"/><linearGradient id="a" x1=".5" y1="0" x2=".5" y2="1"><stop offset="0" stop-color="#FFF" stop-opacity="0"/><stop offset="1" stop-color="#B3B3B3" stop-opacity="0"/></linearGradient><path fill-rule="evenodd" d="M12 4V1H1v11h3v3h11V4h-3z" fill="url(#a)"/><linearGradient id="b" x1=".5" y1="0" x2=".5" y2="1"><stop offset="0" stop-color="#585858"/><stop offset="1" stop-color="#1C1C1C"/></linearGradient><path fill-rule="evenodd" d="M11 5V2H2v9h3v3h9V5h-3z" fill="url(#b)"/><linearGradient id="c" x1=".5" y1="0" x2=".5" y2="1"><stop offset="0" stop-color="#70D1FF"/><stop offset="1" stop-color="#4893DB"/></linearGradient><path fill-rule="evenodd" d="M10 10H6V6h4v4z" fill="url(#c)"/><linearGradient id="d" x1=".5" y1="0" x2=".5" y2="1"><stop offset="0" stop-color="#CCC"/><stop offset="1" stop-color="#FFF"/></linearGradient><path fill-rule="evenodd" d="M11 6v5H6v2h7V6M5 5h5V3H3v7h2V5z" fill="url(#d)"/></svg>