<svg ti:v="1" width="16" height="16" viewBox="0 0 16 16" xmlns="http://www.w3.org/2000/svg" xmlns:ti="urn:schemas-jetbrains-com:tisvg"><rect id="frame" width="16" height="16" fill="none"/><path fill-rule="evenodd" d="M2 4.16v6.681L7.742 14h.516L14 10.841V4.16L8.258 1h-.516L2 4.16z" fill="#313131" opacity=".302"/><path fill-rule="evenodd" d="M3 5.25v5L8 13V8L3 5.25z" fill="#FFF" opacity=".302"/><path fill-rule="evenodd" d="M13 5.25L8 8v5l5-2.75v-5z" fill="#FFF" opacity=".302"/><path fill-rule="evenodd" d="M12.545 4.5L8 7 3.455 4.5 3 4.751v.499L8 8l5-2.75v-.499l-.455-.251z" fill="#313131" opacity=".302"/><path fill-rule="evenodd" d="M8 7l4.545-2.5L8 2 3.455 4.5 8 7z" fill="#FFF" opacity=".302"/><linearGradient id="a" x1=".5" y1=".014" x2=".5" y2="1"><stop offset="0" stop-color="#2164A5"/><stop offset="1" stop-color="#0E365D"/></linearGradient><path fill-rule="evenodd" d="M0 11.5a4.5 4.5 0 0 0 9 0A4.5 4.5 0 0 0 4.5 7 4.5 4.5 0 0 0 0 11.5z" fill="url(#a)"/><linearGradient id="b" x1=".5" y1=".004" x2=".5" y2="1.004"><stop offset="0" stop-color="#56BFFF"/><stop offset="1" stop-color="#009EFF"/></linearGradient><path fill-rule="evenodd" d="M1 11.5A3.5 3.5 0 0 0 4.5 15a3.5 3.5 0 1 0 0-7A3.5 3.5 0 0 0 1 11.5z" fill="url(#b)"/><linearGradient id="c" x1=".5" y1="-.002" x2=".5" y2="1.004"><stop offset="0" stop-color="#F4FFF7"/><stop offset="1" stop-color="#B5FFFD"/></linearGradient><path fill-rule="evenodd" d="M4 9.051V10h1v-.949a2.423 2.423 0 0 0-1 0zM6 10h.478A2.635 2.635 0 0 0 6 9.511M2.522 10H3v-.489c-.183.14-.337.307-.478.489zM6 11v1h.939c.034-.162.061-.327.061-.5 0-.172-.027-.338-.061-.5M4 12h1v-1H4m-1.94 0c-.033.162-.06.328-.06.5 0 .173.027.338.06.5H3v-1m3 2v.488A2.57 2.57 0 0 0 6.478 13M4 13v.949a2.423 2.423 0 0 0 1 0V13m-2.478 0c.141.182.295.35.478.488V13h-.478z" fill="url(#c)"/></svg>