<svg ti:v="1" width="16" height="16" viewBox="0 0 16 16" xmlns="http://www.w3.org/2000/svg" xmlns:ti="urn:schemas-jetbrains-com:tisvg"><rect id="frame" width="16" height="16" fill="none"/><g fill-rule="evenodd"><path d="M7.485 15L1 11.432V3.569L7.485 0h1.03L15 3.569v7.863L8.514 15H7.485z" fill="#242424"/><path d="M2 4.16v6.681L7.742 14h.516L14 10.841V4.16L8.258 1h-.516L2 4.16z" fill="#C3C3C3"/><path d="M3 5.25v5L8 13V8L3 5.25z" fill="#282828"/><path d="M13 5.25L8 8v5l5-2.75v-5z" fill="#282828"/><path d="M12.545 4.5L8 7 3.455 4.5 3 4.751v.499L8 8l5-2.75v-.499l-.455-.251z" fill="#C3C3C3"/><path d="M8 7l4.545-2.5L8 2 3.455 4.5 8 7z" fill="#282828"/><path d="M9 11.5a4.5 4.5 0 1 1-9 0 4.5 4.5 0 0 1 9 0z" fill="#242424"/><path d="M8 11.5A3.5 3.5 0 1 1 4.5 8 3.5 3.5 0 0 1 8 11.5z" fill="#C3C3C3"/><path d="M5 10v-.949a2.494 2.494 0 0 0-1 0V10m-1.478 3c.14.182.295.35.478.488V13m3 0v.488A2.54 2.54 0 0 0 6.478 13M4 13v.949a2.494 2.494 0 0 0 1 0V13m-2-3v-.488a2.54 2.54 0 0 0-.478.488M6 12h.939A2.35 2.35 0 0 0 7 11.5a2.35 2.35 0 0 0-.061-.5H6m.478-1A2.54 2.54 0 0 0 6 9.512V10m-1 1H4v1h1m-2 0h-.939A2.417 2.417 0 0 1 2 11.5c0-.173.027-.338.061-.5H3v1z" fill="#282828"/></g></svg>