<svg ti:v="1" width="16" height="16" viewBox="0 0 16 16" xmlns="http://www.w3.org/2000/svg" xmlns:ti="urn:schemas-jetbrains-com:tisvg"><rect id="frame" width="16" height="16" fill="none"/><path fill-rule="evenodd" d="M2 4.16v6.681L7.742 14h.516L14 10.841V4.16L8.258 1h-.516L2 4.16z" fill="#313131" opacity=".302"/><path fill-rule="evenodd" d="M3 5.25v5L8 13V8L3 5.25z" fill="#FFF" opacity=".302"/><path fill-rule="evenodd" d="M13 5.25L8 8v5l5-2.75v-5z" fill="#FFF" opacity=".302"/><path fill-rule="evenodd" d="M12.545 4.5L8 7 3.455 4.5 3 4.751v.499L8 8l5-2.75v-.499l-.455-.251z" fill="#313131" opacity=".302"/><path fill-rule="evenodd" d="M8 7l4.545-2.5L8 2 3.455 4.5 8 7z" fill="#FFF" opacity=".302"/><linearGradient id="a" x1="0" y1=".5" x2="1" y2=".5"><stop offset="0" stop-color="#541900"/><stop offset="1" stop-color="#72490B"/></linearGradient><path fill-rule="evenodd" d="M0 3.086V5h2v3h3V5h2V3.086L3.914 0h-.828L0 3.086z" fill="url(#a)"/><linearGradient id="b" x1="0" y1=".5" x2="1" y2=".5"><stop offset="0" stop-color="#FFE38C"/><stop offset="1" stop-color="orange"/></linearGradient><path fill-rule="evenodd" d="M1 3.5V4h1l1-1v4h1V3l1 1h1v-.5L3.5 1 1 3.5z" fill="url(#b)"/></svg>