<svg ti:v="1" width="16" height="16" viewBox="0 0 16 16" xmlns="http://www.w3.org/2000/svg" xmlns:ti="urn:schemas-jetbrains-com:tisvg"><rect id="frame" width="16" height="16" fill="none"/><path fill-rule="evenodd" d="M2 4.16v6.681L7.742 14h.516L14 10.841V4.16L8.258 1h-.516L2 4.16z" fill="#313131" opacity=".302"/><path fill-rule="evenodd" d="M3 5.25v5L8 13V8L3 5.25z" fill="#FFF" opacity=".302"/><path fill-rule="evenodd" d="M13 5.25L8 8v5l5-2.75v-5z" fill="#FFF" opacity=".302"/><path fill-rule="evenodd" d="M12.545 4.5L8 7 3.455 4.5 3 4.751v.499L8 8l5-2.75v-.499l-.455-.251z" fill="#313131" opacity=".302"/><path fill-rule="evenodd" d="M8 7l4.545-2.5L8 2 3.455 4.5 8 7z" fill="#FFF" opacity=".302"/><linearGradient id="a" x1=".5" y1="0" x2=".5" y2="1"><stop offset="0" stop-color="#198949"/><stop offset="1" stop-color="#004909"/></linearGradient><path fill-rule="evenodd" d="M12.914 0H11v2H8v3h3v2h1.914L16 3.914v-.828L12.914 0z" fill="url(#a)"/><linearGradient id="b" x1=".5" y1="0" x2=".5" y2="1"><stop offset="0" stop-color="#80FFB6"/><stop offset="1" stop-color="#0F2"/></linearGradient><path fill-rule="evenodd" d="M12.5 1H12v1l1 1H9v1h4l-1 1v1h.5L15 3.5 12.5 1z" fill="url(#b)"/></svg>