<svg ti:v="1" width="16" height="16" viewBox="0 0 16 16" xmlns="http://www.w3.org/2000/svg" xmlns:ti="urn:schemas-jetbrains-com:tisvg"><rect id="frame" width="16" height="16" fill="none"/><g fill-rule="evenodd"><path d="M7.485 15L1 11.432V3.569L7.485 0h1.03L15 3.569v7.863L8.514 15H7.485z" fill="#F4F4F4"/><path d="M2 4.16v6.681L7.742 14h.516L14 10.841V4.16L8.258 1h-.516L2 4.16z" fill="#313131"/><path d="M3 5.25v5L8 13V8L3 5.25z" fill="#EBEBEB"/><path d="M13 5.25L8 8v5l5-2.75v-5z" fill="#EBEBEB"/><path d="M12.545 4.5L8 7 3.455 4.5 3 4.751v.499L8 8l5-2.75v-.499l-.455-.251z" fill="#313131"/><path d="M8 7l4.545-2.5L8 2 3.455 4.5 8 7z" fill="#EBEBEB"/><path d="M7 0H4.341L3.5 1.961 2.659 0H0v1.191L2.323 7h2.354L7 1.191V0z" fill="#F4F4F4"/><path d="M5 1L3.5 4.5 2 1H1l2 5h1l2-5H5z" fill="#313131"/></g></svg>