<svg ti:v="1" width="16" height="16" viewBox="0 0 16 16" xmlns="http://www.w3.org/2000/svg" xmlns:ti="urn:schemas-jetbrains-com:tisvg"><rect id="frame" width="16" height="16" fill="none"/><g fill-rule="evenodd"><path d="M2 2h12v12H2V2z" fill="#F4F4F4"/><path d="M13 13H3V3h10v10z" fill="#313131"/><path d="M12 12H4V4h8v8z" fill="#EBEBEB"/><path d="M12 9a3 3 0 1 1-6 0 3 3 0 0 1 6 0z" fill="#EBEBEB"/><path d="M11 9a2 2 0 1 1-4.001-.001A2 2 0 0 1 11 9z" fill="#313131"/><path d="M10 9a1 1 0 1 1-2 0 1 1 0 1 1 2 0z" fill="#313131"/></g></svg>