<svg ti:v="1" width="16" height="16" viewBox="0 0 16 16" xmlns="http://www.w3.org/2000/svg" xmlns:ti="urn:schemas-jetbrains-com:tisvg"><rect id="frame" width="16" height="16" fill="none"/><linearGradient id="a" x1=".5" y1="0" x2=".5" y2="1"><stop offset="0" stop-color="#0043C8"/><stop offset="1" stop-color="#00297C"/></linearGradient><path fill-rule="evenodd" d="M2 2h12v12H2V2z" fill="url(#a)"/><linearGradient id="b" x1=".5" y1="0" x2=".5" y2="1"><stop offset="0" stop-color="#FFF"/><stop offset="1" stop-color="#80B1FF"/></linearGradient><path fill-rule="evenodd" d="M13 13H3V3h10v10z" fill="url(#b)"/><linearGradient id="c" x1=".5" y1="0" x2=".5" y2="1"><stop offset="0" stop-color="#D0DFFF"/><stop offset="1" stop-color="#8EB5FF"/></linearGradient><path fill-rule="evenodd" d="M12 12H4V4h8v8z" fill="url(#c)"/><linearGradient id="d" x1=".5" y1="0" x2=".5" y2="1"><stop offset="0" stop-color="#8200C3"/><stop offset="1" stop-color="#52007C"/></linearGradient><path fill-rule="evenodd" d="M6 9a3 3 0 1 0 6 0 3 3 0 1 0-6 0z" fill="url(#d)"/><linearGradient id="e" x1=".5" y1="0" x2=".5" y2="1"><stop offset="0" stop-color="#FFF"/><stop offset="1" stop-color="#C154FF"/></linearGradient><path fill-rule="evenodd" d="M7 9a2 2 0 1 0 4 0 2 2 0 1 0-4 0z" fill="url(#e)"/><linearGradient id="f" x1=".5" y1="0" x2=".5" y2="1"><stop offset="0" stop-color="#EAC1FF"/><stop offset="1" stop-color="#C154FF"/></linearGradient><path fill-rule="evenodd" d="M8 9a1 1 0 1 0 2 0 1 1 0 1 0-2 0z" fill="url(#f)"/></svg>