<svg ti:v="1" width="16" height="16" viewBox="0 0 16 16" xmlns="http://www.w3.org/2000/svg" xmlns:ti="urn:schemas-jetbrains-com:tisvg"><rect id="frame" width="16" height="16" fill="none"/><g fill-rule="evenodd"><path d="M14 7.618l-1.125-3.22-3.062 1.278L10 3.882V2.003L6 2v1.866l.188 1.811-3.062-1.278L2 7.619v.968l3.06.522L3 11.603v.444L5.831 14h.657l1.516-2.774L9.551 14h.65L13 12.04v-.423l-2.049-2.508L14 8.584v-.966z" fill="#F4F4F4"/><path d="M10.074 12.997L7.995 9.238 5.957 13 4.22 11.792l2.708-3.308L3 7.808l.706-2.038 3.647 1.533L6.913 3H9.09l-.443 4.302 3.648-1.534L13 7.806l-3.906.678 2.681 3.311-1.7 1.202z" fill="#313131"/></g></svg>