<svg ti:v="1" width="16" height="16" viewBox="0 0 16 16" xmlns="http://www.w3.org/2000/svg" xmlns:ti="urn:schemas-jetbrains-com:tisvg"><rect id="frame" width="16" height="16" fill="none"/><linearGradient id="a" x1="0" y1=".5" x2="1" y2=".5"><stop offset="0" stop-color="#385985"/><stop offset="1" stop-color="#263D59"/></linearGradient><path fill-rule="evenodd" d="M13 12H3V3h10v9z" fill="url(#a)"/><linearGradient id="b" x1="0" y1=".5" x2="1" y2=".5"><stop offset="0" stop-color="#C6E9FF"/><stop offset="1" stop-color="#85B5FF"/></linearGradient><path fill-rule="evenodd" d="M4 11h8v-1H4m0-1h8V8H4m0-1h8V6H4m0-1h8V4H4v1z" fill="url(#b)"/><linearGradient id="c" x1=".01" y1=".5" x2="1" y2=".5"><stop offset="0" stop-color="#855900"/><stop offset="1" stop-color="#3D2800"/></linearGradient><path fill-rule="evenodd" d="M9 4H1V0h5l3 3v1z" fill="url(#c)"/><linearGradient id="d" x1=".016" y1=".5" x2=".993" y2=".5"><stop offset="0" stop-color="#FFC13F"/><stop offset="1" stop-color="#D89300"/></linearGradient><path fill-rule="evenodd" d="M2 3V1h3.586l2 2H2z" fill="url(#d)"/><linearGradient id="e" x1=".01" y1=".5" x2="1" y2=".5"><stop offset="0" stop-color="#855900"/><stop offset="1" stop-color="#3D2800"/></linearGradient><path fill-rule="evenodd" d="M9 11H1v4h5l3-3v-1z" fill="url(#e)"/><linearGradient id="f" x1=".016" y1=".5" x2=".993" y2=".5"><stop offset="0" stop-color="#FFC13F"/><stop offset="1" stop-color="#D89300"/></linearGradient><path fill-rule="evenodd" d="M2 14v-2h5.586l-2 2H2z" fill="url(#f)"/></svg>