<svg ti:v="1" width="16" height="16" viewBox="0 0 16 16" xmlns="http://www.w3.org/2000/svg" xmlns:ti="urn:schemas-jetbrains-com:tisvg"><rect id="frame" width="16" height="16" fill="none"/><g fill-rule="evenodd"><path d="M13 12H3V3h10v9z" fill="#F4F4F4"/><path d="M4 11h8v-1H4m0-1h8V8H4m0-1h8V6H4m0-1h8V4H4v1z" fill="#313131"/><path d="M9 4H1V0h5l3 3v1z" fill="#F4F4F4"/><path d="M2 3V1h3.586l2 2H2z" fill="#313131"/><path d="M9 11H1v4h5l3-3v-1z" fill="#F4F4F4"/><path d="M2 14v-2h5.586l-2 2H2z" fill="#313131"/></g></svg>