<svg ti:v="1" width="16" height="16" viewBox="0 0 16 16" xmlns="http://www.w3.org/2000/svg" xmlns:ti="urn:schemas-jetbrains-com:tisvg"><rect id="frame" width="16" height="16" fill="none"/><linearGradient id="a" x1=".5" y1=".015" x2=".5" y2="1"><stop offset="0" stop-color="#566980"/><stop offset="1" stop-color="#2D3641"/></linearGradient><path fill-rule="evenodd" d="M11 14V6h4V1H2v5h4v8h5z" fill="url(#a)"/><linearGradient id="b" x1=".5" y1=".017" x2=".5" y2="1.01"><stop offset="0" stop-color="#001E41"/><stop offset="1" stop-color="#566980"/></linearGradient><path fill-rule="evenodd" d="M3 2v3h4v8h3V5h4V2H3z" fill="url(#b)"/><path fill-rule="evenodd" d="M10 6H9v1h1M8 6H7v1h1m2-3H9v1h1m0-3H9v1h1m0 5H9v1h1M8 4H7v1h1m0-3H7v1h1M6 4H5v1h1m0-3H5v1h1m2 5H7v1h1M4 4H3v1h1m0-3H3v1h1m6 9H9v1h1m0-3H9v1h1m-2 1H7v1h1m0-3H7v1h1m6-7h-1v1h1m0-3h-1v1h1m-2 1h-1v1h1m0-3h-1v1h1V2z" fill="#FFF"/></svg>