<svg ti:v="1" width="16" height="16" viewBox="0 0 16 16" xmlns="http://www.w3.org/2000/svg" xmlns:ti="urn:schemas-jetbrains-com:tisvg"><rect id="frame" width="16" height="16" fill="none"/><g fill-rule="evenodd"><path d="M11 14V6h4V1H2v5h4v8h5z" fill="#F4F4F4"/><path d="M3 2v3h4v8h3V5h4V2H3z" fill="#EBEBEB"/><path d="M10 6H9v1h1M8 6H7v1h1m2-3H9v1h1m0-3H9v1h1m0 5H9v1h1M8 4H7v1h1m0-3H7v1h1M6 4H5v1h1m0-3H5v1h1m2 5H7v1h1M4 4H3v1h1m0-3H3v1h1m6 9H9v1h1m0-3H9v1h1m-2 1H7v1h1m0-3H7v1h1m6-7h-1v1h1m0-3h-1v1h1m-2 1h-1v1h1m0-3h-1v1h1V2z" fill="#313131"/></g></svg>