<svg xmlns="http://www.w3.org/2000/svg" width="16" height="16" viewBox="0 0 16 16"><rect id="frame" width="16" height="16" fill="none"/><g fill="#AFB1B3" fill-rule="evenodd"><path d="M7.467 15.933a2.567 2.567 0 1 1 0-5.133 2.567 2.567 0 0 1 0 5.133zm-.002-1.203a1.365 1.365 0 1 0 0-2.73 1.365 1.365 0 0 0 0 2.73zm5.868 1.203a2.567 2.567 0 1 1 0-5.133 2.567 2.567 0 0 1 0 5.133zm.002-1.203a1.365 1.365 0 1 0 0-2.73 1.365 1.365 0 0 0 0 2.73z"/><path d="M9.3 12h2.2v1.1H9.3z"/><path d="M3 3h10v2H3z"/><path d="M12.666 10a3.506 3.506 0 0 0-2.166 1.596A3.506 3.506 0 0 0 8.334 10h4.332zm-6 0a3.508 3.508 0 0 0-2.375 2H3v-2h3.666z"/><path d="M3 6.5h10v2H3z"/></g></svg>