<svg xmlns="http://www.w3.org/2000/svg" width="16" height="16" viewBox="0 0 16 16"><rect id="frame" width="16" height="16" fill="none"/><g fill="none" fill-rule="evenodd"><path fill="#AFB1B3" d="M7.465 15.93a2.565 2.565 0 1 1 0-5.13 2.565 2.565 0 0 1 0 5.13zm0-1.199a1.365 1.365 0 1 0 0-2.73 1.365 1.365 0 0 0 0 2.73zm5.863 1.199a2.565 2.565 0 1 1 0-5.13 2.565 2.565 0 0 1 0 5.13zm-.003-1.2a1.365 1.365 0 1 0 0-2.73 1.365 1.365 0 0 0 0 2.73z"/><path fill="#AFB1B3" d="M9.297 12h2.2v1.246h-2.2z"/><path fill="#40B6E0" fill-opacity=".6" fill-rule="nonzero" d="M11.981 10.146a3.515 3.515 0 0 0-1.481 1.35 3.501 3.501 0 0 0-6.293.615 6 6 0 1 1 7.774-1.966z"/><path fill="#231F20" fill-rule="nonzero" d="M9.242 8.498l-.463-.474a2.124 2.124 0 0 1-1.615.67A1.82 1.82 0 0 1 5.426 6.8v-.014A1.839 1.839 0 0 1 7.214 4.88a2.242 2.242 0 0 1 1.56.609l.44-.474A2.686 2.686 0 0 0 7.24 4.23h-.156A2.597 2.597 0 0 0 4.43 6.8v.014a2.566 2.566 0 0 0 2.573 2.558h.217a2.677 2.677 0 0 0 2.023-.874z" opacity=".7"/></g></svg>