<svg xmlns="http://www.w3.org/2000/svg" width="16" height="16" viewBox="0 0 16 16"><rect id="frame" width="16" height="16" fill="none"/><g fill="none" fill-rule="evenodd"><path fill="#9AA7B0" d="M3.148 5h-.775V2.022l-.925.287v-.63L3.065 1.1h.083V5zm.794 5.002H1.266v-.53l1.263-1.347c.094-.104.174-.198.24-.284a2.09 2.09 0 0 0 .158-.236.902.902 0 0 0 .086-.2.67.67 0 0 0 .025-.178c0-.174-.044-.31-.131-.41-.088-.098-.213-.148-.376-.148a.566.566 0 0 0-.242.05.497.497 0 0 0-.177.136.613.613 0 0 0-.109.208.88.88 0 0 0-.037.263h-.778c0-.175.031-.34.094-.496.062-.156.153-.291.27-.408.119-.116.261-.208.428-.276.167-.068.356-.102.565-.102.205 0 .387.026.545.077.159.05.291.123.399.218.107.095.188.211.244.349.055.137.083.292.083.464 0 .13-.02.256-.062.378-.04.121-.099.243-.174.364a2.97 2.97 0 0 1-.272.37 8.26 8.26 0 0 1-.356.387l-.689.726h1.679v.625zM2.054 12.7h.413c.197 0 .342-.049.437-.147a.54.54 0 0 0 .142-.392.604.604 0 0 0-.032-.2.411.411 0 0 0-.263-.261.658.658 0 0 0-.233-.038.653.653 0 0 0-.202.031.526.526 0 0 0-.167.087.4.4 0 0 0-.154.322H1.22a.95.95 0 0 1 .1-.438c.068-.132.159-.243.274-.335.116-.092.25-.164.406-.215.156-.05.322-.076.5-.076.196 0 .375.023.537.07.162.048.3.119.417.213.116.093.206.21.27.348.065.139.097.3.097.482a.825.825 0 0 1-.154.48 1.062 1.062 0 0 1-.438.359.97.97 0 0 1 .492.354.96.96 0 0 1 .162.558 1.04 1.04 0 0 1-.397.849c-.123.097-.27.17-.438.222a1.891 1.891 0 0 1-1.037.01 1.28 1.28 0 0 1-.425-.207 1.063 1.063 0 0 1-.3-.35 1.036 1.036 0 0 1-.114-.5h.775a.466.466 0 0 0 .162.358.57.57 0 0 0 .181.103.76.76 0 0 0 .475 0 .474.474 0 0 0 .303-.278.722.722 0 0 0-.004-.485.446.446 0 0 0-.128-.181.536.536 0 0 0-.202-.103.986.986 0 0 0-.267-.034h-.413V12.7z"/><path fill="#40B6E0" fill-opacity=".7" d="M6 2h8v3H6z"/><path fill="#40B6E0" fill-opacity=".7" d="M6 12h8v3H6z"/><path fill="#40B6E0" fill-opacity=".7" d="M6 7h8v3H6z"/></g></svg>