<svg xmlns="http://www.w3.org/2000/svg" width="16" height="16" viewBox="0 0 16 16"><rect id="frame" width="16" height="16" fill="none"/><g fill="none" fill-rule="evenodd"><path fill="#40B6E0" fill-opacity=".6" d="M2 2h12v12H2z"/><path fill="#231F20" fill-opacity=".7" d="M10.812 11V6.608l-.976.24L9.58 5.84l1.608-.48h.84V11h-1.216zm-4.442.096c-1.496 0-2.48-1.256-2.48-2.88V8.2c0-1.624 1.008-2.896 2.496-2.896 1.48 0 2.48 1.256 2.48 2.88V8.2c0 1.624-1 2.896-2.496 2.896zm.022-1.112c.744 0 1.216-.752 1.216-1.768V8.2c0-1.016-.496-1.784-1.232-1.784S5.16 7.16 5.16 8.184V8.2c0 1.024.488 1.784 1.232 1.784z"/></g></svg>