<svg xmlns="http://www.w3.org/2000/svg" width="12" height="12" viewBox="0 0 12 12"><rect id="frame" width="12" height="12" fill="none"/><g fill="none" fill-rule="evenodd"><path fill="#C75450" d="M4 2.323v.434a1 1 0 0 0 .329.741l.006.006a3 3 0 1 0 4.527 1.593l1.509-1.366A7 7 0 0 1 12 6c-1.066 2.365-3.352 4-6 4S1.066 8.365 0 6c.785-1.743 2.233-3.089 4-3.677zm1.112 1.884l1.696 1.534a1 1 0 0 0 1.187.116 2 2 0 1 1-2.883-1.65z"/><path fill="#AFB1B3" fill-rule="nonzero" d="M12 .908L7.479 5 5 2.757v-.903h.998l1.482 1.34L11.009 0H12z"/></g></svg>