<svg xmlns="http://www.w3.org/2000/svg" width="16" height="16" viewBox="0 0 16 16"><rect id="frame" width="16" height="16" fill="none"/><path fill="#DB5860" fill-rule="evenodd" d="M10.998 12v1.996H5.002V12l-1.654-.414C2.65 10.518 2.3 8.798 2.3 6.429 2.3 3.43 5.002 1 8 1s5.7 2.43 5.7 5.429c0 2.366-.34 4.085-1.021 5.157L10.998 12zM4.66 9.834c.738.13 2.292-.649 2.292-1.472S6.644 7.05 5.909 6.904C3.51 6.43 3.51 7.967 3.51 8.235c0 .898.411 1.47 1.15 1.6zm6.08.003c.738-.13 1.15-.702 1.15-1.6 0-.267 0-1.805-2.399-1.33-.735.145-1.043.634-1.043 1.457 0 .824 1.553 1.603 2.292 1.473z"/></svg>