<svg xmlns="http://www.w3.org/2000/svg" width="16" height="16" viewBox="0 0 16 16"><rect id="frame" width="16" height="16" fill="none"/><g fill="none" fill-rule="evenodd"><path fill="#F4AF3D" fill-opacity=".6" d="M15 8A7 7 0 1 1 1 8a7 7 0 0 1 14 0"/><path fill="#231F20" fill-opacity=".7" d="M6.882 12H8V7h1.39v-.955H8c0-.922.569-1.256 1.706-1.002l.276-.826a4.69 4.69 0 0 0-.52-.15A2.802 2.802 0 0 0 8.828 4c-.304 0-.578.034-.82.103a1.387 1.387 0 0 0-.612.348 1.325 1.325 0 0 0-.374.592 3.19 3.19 0 0 0-.14 1.002L5.746 6.5V7h1.137v5z"/><path fill="#C2AA81" d="M13.425 3.575A7 7 0 1 1 4.56 1.902C2.797 3.035 2 5.118 2 7.5 2 11.09 4.686 14 8 14s6-2.91 6-6.5c0-1.822-.757-2.594-1.31-3.19L11 6V2h4l-1.575 1.575zM7.926 1a8.973 8.973 0 0 1 .077 0h-.077z"/></g></svg>