<svg xmlns="http://www.w3.org/2000/svg" width="16" height="16" viewBox="0 0 16 16"><rect id="frame" width="16" height="16" fill="none"/><path fill="#AFB1B3" fill-rule="evenodd" d="M.18 8H0V6h.649c.144-.21.328-.395.564-.547.678-.436 1.63-.65 2.59-.65s1.81.12 2.492.573c.3.2.528.44.699.71A5.532 5.532 0 0 1 8 6c.355 0 .684.027.986.082.17-.27.398-.51.699-.71.682-.452 1.532-.572 2.492-.572s1.911.213 2.59.65c.237.152.422.338.566.55H16v2h-.2c0 .196-.008.395-.02.595-.118 2.018-1.528 3.603-3.603 3.603-2.722 0-3.697-1.502-3.697-3.7 0-.267.007-.533.03-.794A3.388 3.388 0 0 0 8 7.667a3.37 3.37 0 0 0-.53.04c.023.26.03.528.03.795 0 2.198-.975 3.7-3.697 3.7-2.075 0-3.486-1.586-3.604-3.604-.011-.2-.019-.4-.02-.598zm11.982 2.666c1.224 0 2.057-.935 2.126-2.127.044-.746-.01-1.478-.598-1.855-.4-.258-.962-.384-1.528-.384-.567 0-1.069.07-1.47.338-.627.416-.712 1.126-.712 1.845 0 1.297.575 2.183 2.182 2.183zm-8.344 0C5.425 10.666 6 9.78 6 8.483c0-.719-.085-1.43-.711-1.845-.402-.267-.904-.338-1.47-.338-.567 0-1.129.126-1.53.384-.587.377-.64 1.109-.597 1.855.07 1.192.902 2.127 2.126 2.127z"/></svg>