<svg xmlns="http://www.w3.org/2000/svg" width="16" height="16" viewBox="0 0 16 16"><rect id="frame" width="16" height="16" fill="none"/><g fill="none" fill-rule="evenodd"><path fill="#AFB1B3" d="M7.465 15.93a2.565 2.565 0 1 1 0-5.13 2.565 2.565 0 0 1 0 5.13zm0-1.199a1.365 1.365 0 1 0 0-2.73 1.365 1.365 0 0 0 0 2.73zm5.863 1.199a2.565 2.565 0 1 1 0-5.13 2.565 2.565 0 0 1 0 5.13zm-.003-1.2a1.365 1.365 0 1 0 0-2.73 1.365 1.365 0 0 0 0 2.73z"/><path fill="#AFB1B3" d="M9.297 12h2.2v1.246h-2.2z"/><path fill="#F98B9E" fill-opacity=".6" d="M11.981 10.146a3.515 3.515 0 0 0-1.481 1.35 3.501 3.501 0 0 0-6.293.615 6 6 0 1 1 7.774-1.966z"/><path fill="#231F20" fill-rule="nonzero" d="M9.595 8.976L9.59 6.58a1.455 1.455 0 0 0-.23-.893.84.84 0 0 0-.71-.298 1.35 1.35 0 0 0-.568.108.95.95 0 0 0-.382.316c-.106.156-.18.332-.217.518a3.306 3.306 0 0 0-.068.712l.004 1.932h-.838L6.577 6.58a1.466 1.466 0 0 0-.228-.893.833.833 0 0 0-.708-.298 1.312 1.312 0 0 0-.59.12.932.932 0 0 0-.383.352c-.103.176-.173.37-.205.573a4.375 4.375 0 0 0-.061.779l.027 1.762h-.857V4.69l.671.1.12.678h.046A1.43 1.43 0 0 1 5 4.886c.121-.064.25-.112.385-.142.136-.03.275-.046.414-.046a1.87 1.87 0 0 1 .914.202c.248.14.44.364.539.632h.037a1.48 1.48 0 0 1 .285-.371c.11-.103.233-.19.366-.259.133-.069.274-.12.42-.153.146-.034.297-.051.448-.05.446-.034.886.125 1.207.437.306.4.45.898.408 1.4l.004 2.44h-.833z"/></g></svg>