<svg xmlns="http://www.w3.org/2000/svg" width="16" height="16" viewBox="0 0 16 16"><rect id="frame" width="16" height="16" fill="none"/><g fill="none" fill-rule="evenodd"><g fill="#6E6E6E"><path d="M7.465 15.93a2.565 2.565 0 1 1 0-5.13 2.565 2.565 0 0 1 0 5.13zm0-1.199a1.365 1.365 0 1 0 0-2.73 1.365 1.365 0 0 0 0 2.73zm5.863 1.199a2.565 2.565 0 1 1 0-5.13 2.565 2.565 0 0 1 0 5.13zm-.003-1.2a1.365 1.365 0 1 0 0-2.73 1.365 1.365 0 0 0 0 2.73z"/><path d="M9.297 12h2.2v1.246h-2.2z"/></g><path fill="#F98B9E" fill-opacity=".6" d="M11.981 10.146a3.515 3.515 0 0 0-1.481 1.35 3.501 3.501 0 0 0-6.293.615 6 6 0 1 1 7.774-1.966z"/><path fill="#231F20" fill-rule="nonzero" d="M9.594 8.976L9.59 6.582a1.455 1.455 0 0 0-.23-.894.84.84 0 0 0-.71-.298 1.35 1.35 0 0 0-.569.108.95.95 0 0 0-.382.316c-.106.156-.18.332-.216.518a3.306 3.306 0 0 0-.068.712l.004 1.932H6.58l-.005-2.394a1.466 1.466 0 0 0-.228-.894.833.833 0 0 0-.708-.298 1.312 1.312 0 0 0-.59.12.932.932 0 0 0-.382.352c-.104.177-.173.37-.206.573a4.375 4.375 0 0 0-.06.779l.026 1.762h-.856L3.57 4.69l.672.1.12.678h.045a1.43 1.43 0 0 1 .593-.582c.12-.064.25-.112.384-.142.136-.03.275-.046.415-.046a1.87 1.87 0 0 1 .914.202c.248.14.439.365.539.632h.036a1.48 1.48 0 0 1 .286-.37c.11-.103.233-.19.366-.26.133-.068.273-.12.419-.153.147-.034.298-.05.449-.05.446-.034.885.125 1.207.437.305.4.45.899.407 1.4l.005 2.44h-.834z" opacity=".7"/></g></svg>