<svg ti:v="1" width="16" height="16" viewBox="0 0 16 16" xmlns="http://www.w3.org/2000/svg" xmlns:ti="urn:schemas-jetbrains-com:tisvg"><rect id="frame" width="16" height="16" fill="none"/><linearGradient id="a" x1="-.381" y1="1.105" x2="1.14" y2=".099"><stop offset="0" stop-color="#E243E6"/><stop offset=".016" stop-color="#E243E6"/><stop offset=".404" stop-color="#C30A54"/><stop offset=".468" stop-color="#C30A54"/><stop offset=".65" stop-color="#EB841A"/><stop offset=".952" stop-color="#FFBC00"/><stop offset="1" stop-color="#FFBC00"/></linearGradient><path fill-rule="evenodd" d="M8.213 8.373L13.333 16 16 5.28l-4.586-1.814-3.201 4.907z" fill="url(#a)"/><linearGradient id="b" x1="-.03" y1="1.046" x2="1.284" y2=".259"><stop offset="0" stop-color="#E243E6"/><stop offset=".016" stop-color="#E243E6"/><stop offset=".404" stop-color="#C30A54"/><stop offset=".468" stop-color="#C30A54"/><stop offset=".704" stop-color="#EB841A"/><stop offset="1" stop-color="#EB841A"/></linearGradient><path fill-rule="evenodd" d="M4.32 7.68l1.974 1.974L4.746 16h8.587L11.68 3.573 11.2 0 4.32 7.68z" fill="url(#b)"/><linearGradient id="c" x1=".033" y1="1.134" x2=".88" y2=".196"><stop offset="0" stop-color="#E243E6"/><stop offset=".016" stop-color="#E243E6"/><stop offset=".661" stop-color="#C30A54"/><stop offset="1" stop-color="#C30A54"/></linearGradient><path fill-rule="evenodd" d="M2.667 0L0 10.773h12.693L11.2 0H2.667z" fill="url(#c)"/><linearGradient id="d" x1=".6" y1="-.246" x2=".524" y2=".509"><stop offset="0" stop-color="#C30A54"/><stop offset=".5" stop-color="#C30A54"/><stop offset=".615" stop-color="#CC2548"/><stop offset=".777" stop-color="#D74738"/><stop offset=".866" stop-color="#DB5233"/><stop offset="1" stop-color="#DB5233"/></linearGradient><path fill-rule="evenodd" d="M9.547 5.227l3.093 5.546-.96-7.2L11.2 0 9.547 5.227z" fill="url(#d)"/><path fill-rule="evenodd" d="M14 14H2V2h12v12z" fill="#313131"/><path fill-rule="evenodd" d="M10.413 6.063l.183-1.103H9.555l-.183 1.103m-1.113.853h-.541v-.904h.721l.181-1.084H8.02v-.904h.783L8.982 3h.963l-.18 1.024h1.024L10.972 3h.962l-.18 1.024h.542v.904h-.722l-.181 1.084h.602v.904h-.782L11.03 8h-.964l.18-1.084H9.224L9.043 8h-.965M5.267 5.45c.245 0 .49-.061.612-.183a.781.781 0 0 0 .246-.552c0-.245-.063-.429-.245-.551-.185-.123-.368-.184-.674-.184H4.102v1.47M3 3h2.346c.616 0 1.172.185 1.482.494.308.308.431.679.431 1.173 0 .432-.123.74-.308.987-.186.247-.495.432-.803.556L7.383 8H6.087l-1.05-1.543h-.926V8H3V3z" fill="#FFF"/><path fill-rule="evenodd" d="M3 11h5v1H3v-1z" fill="#FFF"/></svg>