<svg ti:v="1" width="16" height="16" viewBox="0 0 16 16" xmlns="http://www.w3.org/2000/svg" xmlns:ti="urn:schemas-jetbrains-com:tisvg"><rect id="frame" width="16" height="16" fill="none"/><linearGradient id="a" x1="-.381" y1="1.105" x2="1.14" y2=".099"><stop offset="0" stop-color="#E243E6"/><stop offset=".016" stop-color="#E243E6"/><stop offset=".404" stop-color="#C30A54"/><stop offset=".468" stop-color="#C30A54"/><stop offset=".65" stop-color="#EB841A"/><stop offset=".952" stop-color="#FFBC00"/><stop offset="1" stop-color="#FFBC00"/></linearGradient><path fill-rule="evenodd" d="M8.213 8.373L13.333 16 16 5.28l-4.587-1.814-3.2 4.907z" fill="url(#a)"/><linearGradient id="b" x1="-.03" y1="1.046" x2="1.284" y2=".259"><stop offset="0" stop-color="#E243E6"/><stop offset=".016" stop-color="#E243E6"/><stop offset=".404" stop-color="#C30A54"/><stop offset=".468" stop-color="#C30A54"/><stop offset=".704" stop-color="#EB841A"/><stop offset="1" stop-color="#EB841A"/></linearGradient><path fill-rule="evenodd" d="M4.32 7.68l1.973 1.974L4.746 16h8.587L11.68 3.573 11.2 0 4.32 7.68z" fill="url(#b)"/><linearGradient id="c" x1=".033" y1="1.134" x2=".88" y2=".196"><stop offset="0" stop-color="#E243E6"/><stop offset=".016" stop-color="#E243E6"/><stop offset=".661" stop-color="#C30A54"/><stop offset="1" stop-color="#C30A54"/></linearGradient><path fill-rule="evenodd" d="M2.666 0L0 10.773h12.693L11.2 0H2.666z" fill="url(#c)"/><linearGradient id="d" x1=".6" y1="-.246" x2=".524" y2=".509"><stop offset="0" stop-color="#C30A54"/><stop offset=".5" stop-color="#C30A54"/><stop offset=".615" stop-color="#CC2548"/><stop offset=".777" stop-color="#D74738"/><stop offset=".866" stop-color="#DB5233"/><stop offset="1" stop-color="#DB5233"/></linearGradient><path fill-rule="evenodd" d="M9.547 5.227l3.093 5.546-.96-7.2L11.2 0 9.547 5.227z" fill="url(#d)"/><path fill-rule="evenodd" d="M14 14H2V2h12v12z" fill="#282828"/><path fill-rule="evenodd" d="M10.413 6.063l.183-1.103H9.554l-.183 1.103m-1.111.853h-.542v-.904h.722l.18-1.084H8.02v-.904H8.8L8.983 3h.963l-.18 1.024h1.023L10.971 3h.963l-.18 1.024h.541v.904h-.723l-.18 1.084h.603v.904h-.783L11.03 8h-.965l.182-1.084H9.224L9.042 8h-.964M5.267 5.45c.244 0 .49-.061.612-.183a.781.781 0 0 0 .245-.552c0-.245-.061-.429-.244-.551-.184-.123-.369-.184-.674-.184H4.102v1.47M3 3h2.347c.616 0 1.173.185 1.482.494.308.308.432.679.432 1.173 0 .432-.124.74-.31.987-.184.247-.494.432-.802.556L7.383 8H6.087l-1.05-1.543h-.926V8H3V3z" fill="#FFF"/><path fill-rule="evenodd" d="M3 11h5v1H3v-1z" fill="#FFF"/></svg>