<svg ti:v="1" width="16" height="16" viewBox="0 0 16 16" xmlns="http://www.w3.org/2000/svg" xmlns:ti="urn:schemas-jetbrains-com:tisvg"><rect id="frame" width="16" height="16" fill="none"/><linearGradient id="a" x1=".004" y1=".5" x2="1.002" y2=".5"><stop offset="0" stop-color="#905CFB"/><stop offset=".068" stop-color="#776BF8"/><stop offset=".173" stop-color="#5580F6"/><stop offset=".287" stop-color="#3B91F4"/><stop offset=".41" stop-color="#259EF4"/><stop offset=".547" stop-color="#16A8F2"/><stop offset=".711" stop-color="#0EAEF2"/><stop offset=".968" stop-color="#0BAFF2"/><stop offset="1" stop-color="#0BAFF2"/></linearGradient><path fill-rule="evenodd" d="M1.049 0C.609.376.253.836 0 1.357v3.74c.02.043.033.086.055.13l3.869 8.277c.123.244.245.487.43.792.307.425.737.73 1.228.851 2.641.791 4.607-1.399 3.993-3.651L7.977 2.609C7.855 2.001 7.67 1.393 7.24.784A3.775 3.775 0 0 0 6.545 0H1.049z" fill="url(#a)"/><linearGradient id="b" x1=".145" y1=".737" x2=".915" y2=".185"><stop offset="0" stop-color="#905CFB"/><stop offset=".068" stop-color="#776BF8"/><stop offset=".173" stop-color="#5580F6"/><stop offset=".287" stop-color="#3B91F4"/><stop offset=".41" stop-color="#259EF4"/><stop offset=".547" stop-color="#16A8F2"/><stop offset=".711" stop-color="#0EAEF2"/><stop offset=".968" stop-color="#0BAFF2"/><stop offset="1" stop-color="#0BAFF2"/></linearGradient><path fill-rule="evenodd" d="M1.018 0A4.229 4.229 0 0 0 0 1.348v3.768c.145.316.315.628.542.933.418.545.897.91 1.555 1.152l9.389 4.245c.18.121.419.242.658.304 1.564.491 2.964-.032 3.856-1.033V5.43c-.307-.358-.673-.662-1.104-.836L6.634 0H1.018z" fill="url(#b)"/><linearGradient id="c" x1="-.179" y1=".07" x2=".756" y2=".696"><stop offset="0" stop-color="#3BE962"/><stop offset=".117" stop-color="#31DD80"/><stop offset=".303" stop-color="#24CDA8"/><stop offset=".484" stop-color="#19C0C8"/><stop offset=".659" stop-color="#11B6DE"/><stop offset=".824" stop-color="#0DB1EC"/><stop offset=".968" stop-color="#0BAFF2"/><stop offset="1" stop-color="#0BAFF2"/></linearGradient><path fill-rule="evenodd" d="M11.841 4.374L1.949 8.14s-.06.061-.18.121A4.343 4.343 0 0 0 0 9.581l.03 5.848c.165.209.35.396.543.571h5.705l8.8-4.762h.061a3.92 3.92 0 0 0 .861-.764V5.223c-.455-.51-1.038-.887-1.701-1.032a3.686 3.686 0 0 0-.963-.129c-.536 0-1.04.12-1.495.312z" fill="url(#c)"/><linearGradient id="d" x1=".706" y1=".837" x2=".204" y2=".035"><stop offset="0" stop-color="#3BE962"/><stop offset=".094" stop-color="#2FDB87"/><stop offset=".196" stop-color="#24CDA8"/><stop offset=".306" stop-color="#1AC2C2"/><stop offset=".426" stop-color="#13BAD7"/><stop offset=".56" stop-color="#0FB5E6"/><stop offset=".719" stop-color="#0CB1EF"/><stop offset=".968" stop-color="#0BAFF2"/><stop offset="1" stop-color="#0BAFF2"/></linearGradient><path fill-rule="evenodd" d="M7.82 0c-.036.054-.076.105-.108.162L0 9.682l.014 5.762c.16.204.339.385.527.556h5.507a4.464 4.464 0 0 0 1.368-1.994L11.738 2.32A2.405 2.405 0 0 0 11.511 0H7.82z" fill="url(#d)"/><path fill-rule="evenodd" d="M2 2h12v12H2V2z" fill="#2D2D34"/><path fill-rule="evenodd" d="M7.739 5.528c0-1.404 1.125-2.584 2.723-2.584 1.006 0 1.598.337 2.071.786l-.71.787c-.414-.337-.829-.562-1.361-.562-.888 0-1.539.674-1.539 1.517 0 .843.592 1.573 1.539 1.573.591 0 .947-.225 1.361-.562l.71.674c-.533.562-1.124.899-2.131.899-1.538 0-2.663-1.124-2.663-2.528zM4.898 4.011H3.3V3h4.321v1.011H6.082V8H4.898V4.011z" fill="#FFF"/><path fill-rule="evenodd" d="M8 11H3v1h5v-1z" fill="#FFF"/></svg>