<svg ti:v="1" width="32" height="32" viewBox="0 0 32 32" xmlns="http://www.w3.org/2000/svg" xmlns:ti="urn:schemas-jetbrains-com:tisvg"><rect id="frame" width="32" height="32" fill="none"/><linearGradient id="a" x1=".004" y1=".5" x2="1.002" y2=".5"><stop offset="0" stop-color="#905CFB"/><stop offset=".068" stop-color="#776BF8"/><stop offset=".173" stop-color="#5580F6"/><stop offset=".287" stop-color="#3B91F4"/><stop offset=".41" stop-color="#259EF4"/><stop offset=".547" stop-color="#16A8F2"/><stop offset=".711" stop-color="#0EAEF2"/><stop offset=".968" stop-color="#0BAFF2"/><stop offset="1" stop-color="#0BAFF2"/></linearGradient><path fill-rule="evenodd" d="M1.875 11.07l6.879 14.715c.217.433.436.866.764 1.406.546.758 1.31 1.299 2.183 1.515 4.695 1.407 8.19-2.488 7.098-6.491L15.96 6.417c-.219-1.082-.546-2.164-1.31-3.246C13.667 1.657 12.247.683 10.501.25A8.559 8.559 0 0 0 8.473 0C2.897 0-.765 5.839 1.875 11.07z" fill="url(#a)"/><linearGradient id="b" x1=".048" y1=".192" x2=".991" y2=".872"><stop offset="0" stop-color="#905CFB"/><stop offset=".068" stop-color="#776BF8"/><stop offset=".173" stop-color="#5580F6"/><stop offset=".287" stop-color="#3B91F4"/><stop offset=".41" stop-color="#259EF4"/><stop offset=".547" stop-color="#16A8F2"/><stop offset=".711" stop-color="#0EAEF2"/><stop offset=".968" stop-color="#0BAFF2"/><stop offset="1" stop-color="#0BAFF2"/></linearGradient><path fill-rule="evenodd" d="M2.741 12.531c.744.971 1.595 1.618 2.765 2.049l16.692 7.546c.319.216.744.431 1.17.539 6.167 1.941 10.951-4.959 7.443-10.457-.638-.97-1.489-1.833-2.553-2.264L11.779.781A6.053 6.053 0 0 0 10.29.242 8.162 8.162 0 0 0 8.343 0C2.388 0-1.396 6.971 2.741 12.531z" fill="url(#b)"/><linearGradient id="c" x1="-.276" y1="1.01" x2=".802" y2=".26"><stop offset="0" stop-color="#3BE962"/><stop offset=".117" stop-color="#31DD80"/><stop offset=".303" stop-color="#24CDA8"/><stop offset=".484" stop-color="#19C0C8"/><stop offset=".659" stop-color="#11B6DE"/><stop offset=".824" stop-color="#0DB1EC"/><stop offset=".968" stop-color="#0BAFF2"/><stop offset="1" stop-color="#0BAFF2"/></linearGradient><path fill-rule="evenodd" d="M22.828 9.553L5.242 16.248s-.106.108-.32.216C.34 18.3-1.792 24.24 1.832 29.207c.852 1.08 1.918 1.944 3.197 2.376 2.451.756 4.583.432 6.395-.54l17.159-9.288h.108a7.119 7.119 0 0 0 2.131-9.934c-.853-1.296-2.131-2.268-3.624-2.591A6.571 6.571 0 0 0 25.486 9a6.83 6.83 0 0 0-2.658.553z" fill="url(#c)"/><linearGradient id="d" x1=".768" y1=".086" x2=".104" y2="1.106"><stop offset="0" stop-color="#3BE962"/><stop offset=".094" stop-color="#2FDB87"/><stop offset=".196" stop-color="#24CDA8"/><stop offset=".306" stop-color="#1AC2C2"/><stop offset=".426" stop-color="#13BAD7"/><stop offset=".56" stop-color="#0FB5E6"/><stop offset=".719" stop-color="#0CB1EF"/><stop offset=".968" stop-color="#0BAFF2"/><stop offset="1" stop-color="#0BAFF2"/></linearGradient><path fill-rule="evenodd" d="M15.488 2.066L1.592 19.219c-1.999 2.664-2.315 6.606.211 10.015.842 1.066 1.894 1.918 3.158 2.344 4.737 1.492 8.737-1.172 10.001-4.9l7.684-20.776c.527-1.172.527-2.77-.42-4.155C21.699.894 20.962.362 20.014.148A4.274 4.274 0 0 0 18.912 0c-1.507 0-2.742.858-3.424 2.066z" fill="url(#d)"/><path fill-rule="evenodd" d="M5 5h22v22H5V5z" fill="#2D2D34"/><path fill-rule="evenodd" d="M14.99 11.551c0-2.528 2.024-4.652 4.901-4.652 1.811 0 2.876.607 3.728 1.416l-1.278 1.416c-.746-.607-1.492-1.011-2.45-1.011-1.598 0-2.77 1.213-2.77 2.73s1.065 2.831 2.77 2.831c1.065 0 1.704-.404 2.45-1.011l1.278 1.214c-.958 1.011-2.024 1.618-3.835 1.618-2.77 0-4.794-2.023-4.794-4.551zm-5.114-2.73H7V7h7.777v1.821h-2.77V16h-2.13V8.821z" fill="#FFF"/><path fill-rule="evenodd" d="M15 22H7v2h8v-2z" fill="#FFF"/></svg>