<svg width="32" height="32" viewBox="0 0 32 32" fill="none" xmlns="http://www.w3.org/2000/svg"><rect id="frame" width="32" height="32" fill="none"/><path d="M5.12 22.613L.32 18.88l2.773-5.12 4.16 1.387-2.133 7.466z" fill="url(#paint0_linear)"/><path d="M32 8.533l-.533 18.56L19.093 32l-6.72-4.373L32 8.533z" fill="#087CFA"/><path d="M32 8.533l-6.507 6.4-7.573-9.92 4.053-4.48 10.027 8z" fill="url(#paint1_linear)"/><path d="M12.373 27.627L2.56 31.253 4.587 24l2.666-8.853L0 12.693 4.587 0l10.56 1.28 9.92 12.587.32 1.066-13.014 12.694z" fill="url(#paint2_linear)"/><g><path d="M26 6H6v20h20V6z" fill="url(#paint3_linear)"/><path d="M16 23H8v1h8v-1z" fill="#fff"/><g fill="#fff"><path d="M12.453 9.45V8H8.51v1.45h1.1v4.994h-1.1v1.439h3.942v-1.439h-1.111V9.45h1.11z"/><path d="M16.242 16c-.62 0-1.134-.117-1.544-.35a3.687 3.687 0 0 1-1.029-.831l1.088-1.217c.222.246.456.445.678.585.234.14.48.21.76.21.328 0 .585-.105.772-.315.187-.21.28-.538.28-.994V8.012h1.779v5.158c0 .467-.059.877-.187 1.228-.13.35-.316.643-.55.877a2.38 2.38 0 0 1-.889.55c-.35.117-.737.175-1.158.175z"/></g></g><defs><linearGradient id="paint0_linear" x1="2.366" y1="18.235" x2="18.292" y2="17.428" gradientUnits="userSpaceOnUse"><stop offset=".091" stop-color="#FC801D"/><stop offset=".231" stop-color="#B07F61"/><stop offset=".409" stop-color="#577DB3"/><stop offset=".533" stop-color="#1E7CE6"/><stop offset=".593" stop-color="#087CFA"/></linearGradient><linearGradient id="paint1_linear" x1="28.339" y1="16.875" x2="22.929" y2=".712" gradientUnits="userSpaceOnUse"><stop offset="0" stop-color="#FE2857"/><stop offset=".078" stop-color="#CB3979"/><stop offset=".16" stop-color="#9E4997"/><stop offset=".247" stop-color="#7557B2"/><stop offset=".339" stop-color="#5362C8"/><stop offset=".436" stop-color="#386CDA"/><stop offset=".541" stop-color="#2373E8"/><stop offset=".658" stop-color="#1478F2"/><stop offset=".794" stop-color="#0B7BF8"/><stop offset="1" stop-color="#087CFA"/></linearGradient><linearGradient id="paint2_linear" x1="4.602" y1="7.541" x2="24.629" y2="40.667" gradientUnits="userSpaceOnUse"><stop offset="0" stop-color="#FE2857"/><stop offset=".08" stop-color="#FE295F"/><stop offset=".206" stop-color="#FF2D76"/><stop offset=".303" stop-color="#FF318C"/><stop offset=".385" stop-color="#EA3896"/><stop offset=".553" stop-color="#B248AE"/><stop offset=".792" stop-color="#5A63D6"/><stop offset="1" stop-color="#087CFA"/></linearGradient><linearGradient id="paint3_linear" x1="15.973" y1="1.139" x2="15.973" y2="19.075" gradientUnits="userSpaceOnUse"><stop offset=".084" stop-color="#878585"/><stop offset=".538"/></linearGradient></defs></svg>