<svg width="128" height="128" viewBox="0 0 128 128" fill="none" xmlns="http://www.w3.org/2000/svg"><rect id="frame" width="128" height="128" fill="none"/><path d="M20.48 90.454L1.28 75.52 12.8 54.933l16.213 5.654-8.533 29.867z" fill="url(#paint0_linear)"/><path d="M128 34.133l-2.133 74.24L76.373 128l-26.88-17.493L128 34.133z" fill="#087CFA"/><path d="M128 34.133l-26.027 25.6-30.293-39.68 16.213-17.92 40.107 32z" fill="url(#paint1_linear)"/><path d="M49.493 110.507L10.24 125.013 18.347 96l10.666-35.413L0 50.773 18.347 0l42.24 5.12L99.2 55.467l2.347 4.266-52.054 50.774z" fill="url(#paint2_linear)"/><g><path d="M103 25H25v78h78V25z" fill="url(#paint3_linear)"/><path d="M62.7 89.567H33.667v4.767H62.7v-4.767z" fill="#fff"/><g fill="#fff"><path d="M49.397 40.123V34.75H34.794v5.373h4.073v18.504h-4.073v5.33h14.603v-5.33H45.28V40.123h4.117z"/><path d="M63.437 64.39c-2.297 0-4.203-.433-5.72-1.3-1.56-.867-2.817-1.907-3.813-3.077l4.03-4.506c.823.91 1.69 1.646 2.513 2.166.866.52 1.776.78 2.816.78 1.214 0 2.167-.39 2.86-1.17.694-.78 1.04-1.993 1.04-3.683V34.793h6.587v19.11c0 1.734-.216 3.25-.693 4.55-.477 1.3-1.17 2.384-2.037 3.25-.91.91-1.993 1.56-3.293 2.037-1.3.433-2.73.65-4.29.65z"/></g></g><defs><linearGradient id="paint0_linear" x1="9.462" y1="72.941" x2="73.168" y2="69.711" gradientUnits="userSpaceOnUse"><stop offset=".091" stop-color="#FC801D"/><stop offset=".231" stop-color="#B07F61"/><stop offset=".409" stop-color="#577DB3"/><stop offset=".533" stop-color="#1E7CE6"/><stop offset=".593" stop-color="#087CFA"/></linearGradient><linearGradient id="paint1_linear" x1="113.355" y1="67.502" x2="91.718" y2="2.848" gradientUnits="userSpaceOnUse"><stop offset="0" stop-color="#FE2857"/><stop offset=".078" stop-color="#CB3979"/><stop offset=".16" stop-color="#9E4997"/><stop offset=".247" stop-color="#7557B2"/><stop offset=".339" stop-color="#5362C8"/><stop offset=".436" stop-color="#386CDA"/><stop offset=".541" stop-color="#2373E8"/><stop offset=".658" stop-color="#1478F2"/><stop offset=".794" stop-color="#0B7BF8"/><stop offset="1" stop-color="#087CFA"/></linearGradient><linearGradient id="paint2_linear" x1="18.407" y1="30.163" x2="98.517" y2="162.669" gradientUnits="userSpaceOnUse"><stop offset="0" stop-color="#FE2857"/><stop offset=".08" stop-color="#FE295F"/><stop offset=".206" stop-color="#FF2D76"/><stop offset=".303" stop-color="#FF318C"/><stop offset=".385" stop-color="#EA3896"/><stop offset=".553" stop-color="#B248AE"/><stop offset=".792" stop-color="#5A63D6"/><stop offset="1" stop-color="#087CFA"/></linearGradient><linearGradient id="paint3_linear" x1="63.896" y1="6.042" x2="63.896" y2="75.993" gradientUnits="userSpaceOnUse"><stop offset=".084" stop-color="#878585"/><stop offset=".538"/></linearGradient></defs></svg>