<svg width="80" height="80" viewBox="0 0 80 80" fill="none" xmlns="http://www.w3.org/2000/svg"><rect id="frame" width="80" height="80" fill="none"/><g clip-path="url(#clip0)"><path d="M12.696 56.348L.87 47.13l6.956-12.87 10.435 3.479-5.565 18.609z" fill="url(#paint0_linear)"/><path d="M80 21.391l-1.391 46.261L47.826 80l-16.87-10.783L80 21.391z" fill="#087CFA"/><path d="M80 21.391L62.5 38.5 44.87 12.522l9.913-11.13 25.217 20z" fill="url(#paint1_linear)"/><path d="M30.957 69.217l-24.522 8.87L11.652 60l6.609-22.26L0 31.651 11.651 0 37.74 3.13l25.913 34.087-32.695 32z" fill="url(#paint2_linear)"/><g><path d="M65 15H15v50h50V15z" fill="url(#paint3_linear)"/><path d="M30.383 24.991v-3.374H21.2v3.374h2.574v11.635H21.2v3.357h9.183v-3.357h-2.574V24.991h2.574z" fill="#fff"/><path d="M39.2 40.243c-1.426 0-2.644-.278-3.6-.817-.974-.539-1.774-1.183-2.4-1.948l2.54-2.834A7.84 7.84 0 0 0 37.321 36c.539.33 1.13.487 1.774.487.765 0 1.373-.244 1.808-.73.435-.487.661-1.253.661-2.33V21.582h4.14V33.6c0 1.096-.157 2.052-.453 2.87-.296.8-.73 1.495-1.287 2.052a5.39 5.39 0 0 1-2.052 1.27c-.8.312-1.704.451-2.713.451z" fill="#fff"/><path d="M39.9 55.5H21.2v3.1h18.7v-3.1z" fill="#fff"/></g></g><defs><linearGradient id="paint0_linear" x1="5.914" y1="45.587" x2="45.73" y2="43.569" gradientUnits="userSpaceOnUse"><stop offset=".091" stop-color="#FC801D"/><stop offset=".231" stop-color="#B07F61"/><stop offset=".409" stop-color="#577DB3"/><stop offset=".533" stop-color="#1E7CE6"/><stop offset=".593" stop-color="#087CFA"/></linearGradient><linearGradient id="paint1_linear" x1="70.874" y1="42.182" x2="57.35" y2="1.771" gradientUnits="userSpaceOnUse"><stop offset="0" stop-color="#FE2857"/><stop offset=".078" stop-color="#CB3979"/><stop offset=".16" stop-color="#9E4997"/><stop offset=".247" stop-color="#7557B2"/><stop offset=".339" stop-color="#5362C8"/><stop offset=".436" stop-color="#386CDA"/><stop offset=".541" stop-color="#2373E8"/><stop offset=".658" stop-color="#1478F2"/><stop offset=".794" stop-color="#0B7BF8"/><stop offset="1" stop-color="#087CFA"/></linearGradient><linearGradient id="paint2_linear" x1="11.58" y1="18.806" x2="61.649" y2="101.623" gradientUnits="userSpaceOnUse"><stop offset="0" stop-color="#FE2857"/><stop offset=".08" stop-color="#FE295F"/><stop offset=".206" stop-color="#FF2D76"/><stop offset=".303" stop-color="#FF318C"/><stop offset=".385" stop-color="#EA3896"/><stop offset=".553" stop-color="#B248AE"/><stop offset=".792" stop-color="#5A63D6"/><stop offset="1" stop-color="#087CFA"/></linearGradient><linearGradient id="paint3_linear" x1="39.999" y1="2.846" x2="39.999" y2="47.685" gradientUnits="userSpaceOnUse"><stop offset=".084" stop-color="#878585"/><stop offset=".538"/></linearGradient><clipPath id="clip0"><path d="M0 0h80v80H0V0z" fill="#fff"/></clipPath></defs></svg>