<svg width="48" height="48" viewBox="0 0 48 48" fill="none" xmlns="http://www.w3.org/2000/svg"><rect id="frame" width="48" height="48" fill="none"/><path d="M7.617 33.809l-7.095-5.53 4.174-7.723 6.26 2.087L7.617 33.81z" fill="url(#paint0_linear)"/><path d="M48 12.835l-.835 27.756-18.47 7.41-10.121-6.47L48 12.835z" fill="#087CFA"/><path d="M48 12.835L36.522 24l-9.6-16.487L32.87.835l15.13 12z" fill="url(#paint1_linear)"/><path d="M18.574 41.53L3.86 46.852 6.99 36l3.966-13.357L0 18.991 6.991 0l15.652 1.878L38.191 22.33l-19.617 19.2z" fill="url(#paint2_linear)"/><g><path d="M39 9H9v30h30V9z" fill="url(#paint3_linear)"/><path d="M23.25 34H12v1.929h11.25V34z" fill="#fff"/><g fill="#fff"><path d="M17.905 14.191v-2.17H12v2.17h1.655v7.482H12v2.158h5.905v-2.158H16.25V14.19h1.655z"/><path d="M23.575 24c-.917 0-1.7-.179-2.315-.526-.626-.346-1.14-.76-1.543-1.252l1.632-1.823c.336.369.683.66 1.018.872.347.213.727.313 1.14.313.493 0 .884-.156 1.164-.47.28-.313.425-.805.425-1.498V12h2.662v7.728c0 .704-.101 1.32-.291 1.845a3.63 3.63 0 0 1-.828 1.32 3.464 3.464 0 0 1-1.32.816c-.514.201-1.095.291-1.744.291z"/></g></g><defs><linearGradient id="paint0_linear" x1="3.548" y1="27.353" x2="27.438" y2="26.142" gradientUnits="userSpaceOnUse"><stop offset=".091" stop-color="#FC801D"/><stop offset=".231" stop-color="#B07F61"/><stop offset=".409" stop-color="#577DB3"/><stop offset=".533" stop-color="#1E7CE6"/><stop offset=".593" stop-color="#087CFA"/></linearGradient><linearGradient id="paint1_linear" x1="42.524" y1="25.309" x2="34.41" y2="1.063" gradientUnits="userSpaceOnUse"><stop offset="0" stop-color="#FE2857"/><stop offset=".078" stop-color="#CB3979"/><stop offset=".16" stop-color="#9E4997"/><stop offset=".247" stop-color="#7557B2"/><stop offset=".339" stop-color="#5362C8"/><stop offset=".436" stop-color="#386CDA"/><stop offset=".541" stop-color="#2373E8"/><stop offset=".658" stop-color="#1478F2"/><stop offset=".794" stop-color="#0B7BF8"/><stop offset="1" stop-color="#087CFA"/></linearGradient><linearGradient id="paint2_linear" x1="6.948" y1="11.284" x2="36.989" y2="60.974" gradientUnits="userSpaceOnUse"><stop offset="0" stop-color="#FE2857"/><stop offset=".08" stop-color="#FE295F"/><stop offset=".206" stop-color="#FF2D76"/><stop offset=".303" stop-color="#FF318C"/><stop offset=".385" stop-color="#EA3896"/><stop offset=".553" stop-color="#B248AE"/><stop offset=".792" stop-color="#5A63D6"/><stop offset="1" stop-color="#087CFA"/></linearGradient><linearGradient id="paint3_linear" x1="23.999" y1="1.707" x2="23.999" y2="28.611" gradientUnits="userSpaceOnUse"><stop offset=".084" stop-color="#878585"/><stop offset=".538"/></linearGradient></defs></svg>