<svg width="24" height="24" viewBox="0 0 24 24" fill="none" xmlns="http://www.w3.org/2000/svg"><rect id="frame" width="24" height="24" fill="none"/><path d="M3.8 16.9L.3 14.1l2-3.8 3.2 1-1.7 5.6z" fill="url(#paint0_linear)"/><path d="M24 6.4l-.4 13.9-9.3 3.7-5-3.2L24 6.4z" fill="#087CFA"/><path d="M24 6.4l-5 5.1-5.4-7.8L16.5.4l7.5 6z" fill="url(#paint1_linear)"/><path d="M9.3 20.8l-7.4 2.6L3.5 18l2-6.7L0 9.5 3.5 0l7.8.9 8.1 10-10.1 9.9z" fill="url(#paint2_linear)"/><g><path d="M20 4H4v16h16V4z" fill="url(#paint3_linear)"/><path d="M12 17H6v1h6v-1z" fill="#fff"/><path d="M8.99 7.1V6H6.01v1.1h.83v3.78h-.83v1.09h2.98v-1.09h-.84V7.1h.84z" fill="#fff"/><path d="M11.85 12.05c-.47 0-.86-.09-1.17-.26-.32-.18-.58-.39-.78-.63l.83-.92c.17.19.34.33.52.44.17.11.36.16.58.16.25 0 .45-.08.59-.23.14-.16.21-.41.21-.75V6h1.35v3.9c0 .36-.05.67-.14.93-.1.26-.24.48-.42.66-.18.18-.4.32-.67.41-.28.11-.58.15-.9.15z" fill="#fff"/></g><defs><linearGradient id="paint0_linear" x1="1.774" y1="13.676" x2="13.719" y2="13.071" gradientUnits="userSpaceOnUse"><stop offset=".091" stop-color="#FC801D"/><stop offset=".231" stop-color="#B07F61"/><stop offset=".409" stop-color="#577DB3"/><stop offset=".533" stop-color="#1E7CE6"/><stop offset=".593" stop-color="#087CFA"/></linearGradient><linearGradient id="paint1_linear" x1="21.246" y1="12.406" x2="17.263" y2=".505" gradientUnits="userSpaceOnUse"><stop offset="0" stop-color="#FE2857"/><stop offset=".078" stop-color="#CB3979"/><stop offset=".16" stop-color="#9E4997"/><stop offset=".247" stop-color="#7557B2"/><stop offset=".339" stop-color="#5362C8"/><stop offset=".436" stop-color="#386CDA"/><stop offset=".541" stop-color="#2373E8"/><stop offset=".658" stop-color="#1478F2"/><stop offset=".794" stop-color="#0B7BF8"/><stop offset="1" stop-color="#087CFA"/></linearGradient><linearGradient id="paint2_linear" x1="3.663" y1="5.528" x2="18.684" y2="30.372" gradientUnits="userSpaceOnUse"><stop offset="0" stop-color="#FE2857"/><stop offset=".08" stop-color="#FE295F"/><stop offset=".206" stop-color="#FF2D76"/><stop offset=".303" stop-color="#FF318C"/><stop offset=".385" stop-color="#EA3896"/><stop offset=".553" stop-color="#B248AE"/><stop offset=".792" stop-color="#5A63D6"/><stop offset="1" stop-color="#087CFA"/></linearGradient><linearGradient id="paint3_linear" x1="12" y1=".129" x2="12" y2="14.478" gradientUnits="userSpaceOnUse"><stop offset=".084" stop-color="#878585"/><stop offset=".538"/></linearGradient></defs></svg>