<svg xmlns="http://www.w3.org/2000/svg" width="16" height="16" viewBox="0 0 16 16"><rect id="frame" width="16" height="16" fill="none"/><g fill="none" fill-rule="evenodd"><path fill="#F9AE41" d="M13.132 1c-.942 0-1.721.698-1.85 1.605-1.546-.7-2.833.521-2.833.521L5.044 6.55 6.39 7.844l2.74-2.692c1.28-1.28 1.976-.414 1.976-.414.963.814.033 1.777.033 1.777l1.378 1.33c1.126-1.217 1.191-2.278.849-3.122A1.869 1.869 0 0 0 13.132 1z"/><path fill="#EE4035" d="M12.874 8.653L9.45 5.356 8.156 6.659l2.692 2.654c1.28 1.24.414 1.914.414 1.914-.814.934-1.777.033-1.777.033l-1.33 1.335c1.217 1.09 2.278 1.154 3.122.822.116.892.901 1.583 1.854 1.583C14.163 15 15 14.19 15 13.19c0-.913-.698-1.667-1.605-1.791.7-1.499-.521-2.746-.521-2.746z"/><path fill="#4F91CD" d="M6.87 10.848c-1.28 1.28-1.976.414-1.976.414-.963-.814-.033-1.777-.033-1.777l-1.378-1.33c-1.126 1.217-1.191 2.278-.85 3.122a1.869 1.869 0 1 0 2.084 2.118c1.547.7 2.834-.521 2.834-.521l3.405-3.423L9.61 8.156l-2.74 2.692z"/><path fill="#7AC043" d="M4.738 4.772c.814-.933 1.777-.032 1.777-.032l1.33-1.335c-1.217-1.09-2.278-1.153-3.122-.822C4.607 1.69 3.822 1 2.869 1 1.837 1 1 1.81 1 2.81c0 .913.698 1.667 1.605 1.791-.7 1.499.521 2.745.521 2.745l3.423 3.298 1.295-1.303-2.692-2.654c-1.28-1.24-.414-1.915-.414-1.915z"/></g></svg>