<svg xmlns="http://www.w3.org/2000/svg" width="16" height="16" viewBox="0 0 16 16">
  <g fill="none" fill-rule="evenodd">
    <path fill="#F9AE41" d="M13.1317599,1 C12.189627,1 11.4108008,1.69768023 11.2824844,2.60471446 C9.7357007,1.90542552 8.4486551,3.12643527 8.4486551,3.12643527 L5.04444444,6.54860202 L6.3895485,7.84444444 L9.12960813,5.1515219 C10.4091122,3.87148919 11.1057582,4.73786192 11.1057582,4.73786192 C12.0690184,5.55186842 11.1389741,6.51542934 11.1389741,6.51542934 L12.5173495,7.84444444 C13.6429183,6.62837177 13.7081855,5.56701247 13.3660454,4.7226624 C14.2872174,4.60727917 15,3.8216747 15,2.86893096 C15,1.83675031 14.163559,1 13.1317599,1 Z"/>
    <path fill="#EE4035" d="M12.8736202,8.65345533 L9.45128704,5.35555556 L8.15555556,6.65866431 L10.8484781,9.31306751 C12.1285108,10.552627 11.2621381,11.2274953 11.2621381,11.2274953 C10.4481316,12.1606432 9.48457066,11.2596728 9.48457066,11.2596728 L8.15555556,12.5949591 C9.37157276,13.685288 10.4329875,13.7485149 11.2772267,13.4170704 C11.3926099,14.3094995 12.1783808,15 13.131069,15 C14.1633052,15 15,14.1897068 15,13.1901625 C15,12.2774815 14.3023198,11.523002 13.3952855,11.3986432 C14.09463,9.90021314 12.8736202,8.65345533 12.8736202,8.65345533 Z"/>
    <path fill="#4F91CD" d="M6.87038192,10.8484226 C5.59089208,12.1285108 4.89419838,11.2621935 4.89419838,11.2621935 C3.93100437,10.4481316 4.86098288,9.48462614 4.86098288,9.48462614 L3.48267831,8.15561103 C2.35712206,9.37162823 2.29185555,10.4329875 2.63393637,11.2772821 C1.71277466,11.3926654 1,12.1783253 1,13.131069 C1,14.1633052 1.83643169,15 2.86827476,15 C3.81034172,15.0000555 4.58915922,14.3023752 4.71747418,13.395341 C6.26429611,14.0946854 7.55127192,12.8736202 7.55127192,12.8736202 L10.9555556,9.45128704 L9.61041103,8.15555556 L6.87038192,10.8484226 Z"/>
    <path fill="#7AC043" d="M4.73780645,4.77247197 C5.55186842,3.83937258 6.51537386,4.740348 6.51537386,4.740348 L7.84438897,3.40516173 C6.62837177,2.31477304 5.56701247,2.25154575 4.72277335,2.58293839 C4.60727917,1.69045058 3.82173017,1 2.86887549,1 C1.83675031,1 1.00005547,1.81029771 1,2.80984754 C1,3.72253371 1.69762476,4.47707108 2.60465899,4.60137689 C1.90520363,6.09981526 3.12637979,7.34647259 3.12637979,7.34647259 L6.54871296,10.6444444 L7.84444444,9.34138215 L5.1515219,6.68696416 C3.87148919,5.44739775 4.73780645,4.77247197 4.73780645,4.77247197 Z"/>
  </g>
</svg>
