<svg xmlns="http://www.w3.org/2000/svg" width="12" height="12" viewBox="0 0 12 12"><rect id="frame" width="12" height="12" fill="none"/><g fill="none" fill-rule="evenodd"><path fill="#AFB1B3" d="M2.908 0c.82 0 1.463.286 1.882.77.345.418.54.99.54 1.661 0 1.287-.642 2.046-1.546 2.354l.867 1.436-.845.846-1.225-2.051H1.146V7.7H0V0h2.908zM1.353 3.817h1.424c.697 0 1.14-.506 1.14-1.287v-.022c0-.825-.427-1.276-1.147-1.276H1.353v2.585z"/><path fill="#3592C4" d="M10.118 6.962l-2.07-2.07-5.038 5.01v2.07h2.07l5.038-5.01zm1.726-1.725c.221-.222.221-.814 0-1.036l-1.035-1.035c-.222-.221-.814-.221-1.036 0L8.738 4.201l2.07 2.07 1.036-1.034z"/></g></svg>