<svg xmlns="http://www.w3.org/2000/svg" width="16" height="16" viewBox="0 0 16 16"><rect id="frame" width="16" height="16" fill="none"/><g fill="none" fill-rule="evenodd"><path fill="#40B6E0" d="M7.977 11.176C7.703 10.486 6.997 7.96 6.84 7c.324-.002.619.2.784.811.199.74.707 3.43 1.58 4.19-.476.017-.956-.142-1.227-.825zm5.5-4.015c-.424.937-.973 2.136-1.113 2.377-.101.174-.327.564-.51.774.218-.578.547-1.572.834-2.46L11.376 9h-.554c-.207.846-.55 2.081-.731 2.493-.154-.48-.532-3.206-1.028-4.293C8.699 6.402 8.202 6 7.476 6H5.13c-.452 0-.906.256-1.431.79-.827.843-2.091 3.256-2.7 6.198h1.202c.302-1.654.893-3.362 1.777-4.488-.51 1.314-.996 3.318-1.156 4.47.94-.085 1.597-.575 1.719-1.47.164-1.198.625-3.188 1.379-4.074.164.583.548 2.881.806 3.698C7.075 12.22 7.423 13 8.245 13h2.608c.709 0 1.248-.87 1.747-1.712.436-.734 2.164-4.367 2.4-5.288h-.195l-1.328 1.161z"/><path fill="#62B543" d="M11 1v7l4-3.5z"/></g></svg>