<svg xmlns="http://www.w3.org/2000/svg" width="16" height="16" viewBox="0 0 16 16"><rect id="frame" width="16" height="16" fill="none"/><path fill="#40B6E0" d="M7.977 10.176C7.703 9.486 6.997 6.96 6.84 6c.324-.002.619.2.784.811.199.74.707 3.43 1.58 4.19-.476.017-.956-.142-1.227-.825zM14 5c0 .001-1.4 3.132-1.636 3.538-.101.174-.327.564-.51.774.46-1.222 1.422-4.31 1.422-4.312h-.168c-1.333 0-1.862.992-2.152 2.42-.141.691-.634 2.55-.865 3.073-.154-.48-.532-3.206-1.028-4.293C8.699 5.402 8.202 5 7.476 5H5.13c-.452 0-.906.256-1.431.79-.827.843-2.091 3.256-2.7 6.198h1.202c.302-1.654.893-3.362 1.777-4.488-.51 1.314-.996 3.318-1.156 4.47.94-.085 1.597-.575 1.719-1.47.164-1.198.625-3.188 1.379-4.074.164.583.548 2.881.806 3.698C7.075 11.22 7.423 12 8.245 12h2.608c.709 0 1.248-.87 1.747-1.712.436-.734 2.164-4.367 2.4-5.288h-1z" fill-rule="evenodd"/></svg>