<svg xmlns="http://www.w3.org/2000/svg" width="16" height="16" viewBox="0 0 16 16"><rect id="frame" width="16" height="16" fill="none"/><path fill="#9AA7B0" d="M1 1v5.375c1.046-.248 1.876-.534 2.958-1 .523.216 1.675.355 2.517.386.03-.025.043-.116.046-.141-1-.612-3.011-1.454-2.75-2.62.066-.297.307-.5.578-.635.252-.126 2.635.787 3.553.533a.404.404 0 0 0 .063-.172c-.521-.146-1.621-.606-1.944-.872 1.999-1.144 5.286-.095 6.233.604.225.166.447.365.574.634.319.674.589 1.851.537 2.341-.029.268-.005.404-.353.415-.443.014-2.608-.542-2.967-.809-.058.048-.088.313-.065.392.145.653 1.962 1.389 2.372 1.474.478.847.432 2 .243 3.136-.094.561-2.679-1.331-3.054-1.838a.39.39 0 0 0-.12.18c0 1.055 1.245 2.189 2.674 2.97-.125.453-.366 1.082-.589 1.381-.029.039-.075.051-.297-.024-.36-.123-5.208-2.177-5.208-2.177S3.208 13.948 2.048 15H15V1H1z" fill-rule="evenodd"/></svg>