<svg xmlns="http://www.w3.org/2000/svg" width="16" height="16" viewBox="0 0 16 16"><rect id="frame" width="16" height="16" fill="none"/><g fill="#9AA7B0" fill-rule="evenodd"><path d="M12 1H9a2 2 0 0 0-2 2v5.085c.367.089.702.258 1 .474V3.5h5v7H8.391l-.083.052c-.681.427-.681.635-.681.703 0 .2.367.545.713.67l.66.239v.828L8.998 13H12a2 2 0 0 0 2-2V3a2 2 0 0 0-2-2"/><path d="M4.392 6.727c.506-.613 1.306-.685 1.606-.727.015.492-.033.98-.502 1.442-.56.548-1.25.564-1.462.557-.076-.237-.05-.778.358-1.272m.138 3.086C4.283 9.813 3.527 9 2.818 9 1.938 9 1 9.992 1 11.477 1 12.783 2.019 15 3.032 15c.678 0 1.06-.91 1.628-.91.588 0 .824.904 1.522.904.756 0 1.657-1.503 1.818-2.128-.561-.203-1.372-.811-1.372-1.611 0-.681.512-1.15 1.148-1.55C7.364 9.153 6.718 9 6.293 9c-.68 0-1.51.813-1.763.813"/></g></svg>