<svg xmlns="http://www.w3.org/2000/svg" width="16" height="16" viewBox="0 0 16 16"><rect id="frame" width="16" height="16" fill="none"/><g fill="none" fill-rule="evenodd"><path fill="#9AA7B0" d="M12 1H9a2 2 0 0 0-2 2v5.989l1-1.303V3.5h5v7h-2.982l-.343.447A5.465 5.465 0 0 1 10.766 13H12a2 2 0 0 0 2-2V3a2 2 0 0 0-2-2"/><path fill="#A4C639" d="M7.472 13.143a.643.643 0 1 1 0-1.287.643.643 0 0 1 0 1.287m-3.943 0a.643.643 0 1 1 0-1.287.643.643 0 0 1 0 1.287m4.815-2.104l1.52-1.981a.656.656 0 0 0-.121-.921.655.655 0 0 0-.921.12L7.22 10.345a4.483 4.483 0 0 0-3.44 0L2.18 8.258a.657.657 0 1 0-1.043.8l1.52 1.98C1.654 11.866 1 13.1 1 14.5v.5h9v-.5c0-1.4-.653-2.635-1.656-3.461"/></g></svg>