<svg width="24" height="24" viewBox="0 0 24 24" fill="none" xmlns="http://www.w3.org/2000/svg"><rect id="frame" width="24" height="24" fill="none"/><path d="M22.475 3.725L24 13.55l-2.825 1.65 1.3-11.475z" fill="url(#paint0_linear)"/><path d="M22.475 3.725L13.875 0l-2.4 2 11 1.725z" fill="url(#paint1_linear)"/><path d="M16.225 24L2.875 13.375.2 21.425 16.225 24z" fill="url(#paint2_linear)"/><path d="M18.075 17.3L0 11.075 16.225 24l1.85-6.7z" fill="url(#paint3_linear)"/><path d="M0 .175v10.9l20.825 7.15 1.65-14.5L0 .175z" fill="url(#paint4_linear)"/><path d="M20 4H4v16h16V4z" fill="url(#paint5_linear)"/><path d="M12 17H6v1h6v-1z" fill="#fff"/><path d="M12 9.034c0-1.73 1.34-3.144 3.169-3.144 1.097 0 1.73.293 2.364.829l-.829 1.023c-.463-.39-.877-.609-1.584-.609-.975 0-1.73.853-1.73 1.877v.024c0 1.097.755 1.902 1.827 1.902.488 0 .902-.122 1.244-.366v-.853H15.12V8.57h2.608v2.608c-.585.537-1.438.951-2.535.951-1.901 0-3.193-1.316-3.193-3.096z" fill="#fff"/><path d="M8.3 6H6v6h2.5c1.8-.1 3-1.3 3-3s-1.3-3-3.2-3zm1.8 3c0 1.1-.7 1.8-1.8 1.8h-1V7.2h1c1 0 1.8.8 1.8 1.8z" fill="#fff"/><defs><linearGradient id="paint0_linear" x1="21.972" y1="9.029" x2="22.674" y2="15.139" gradientUnits="userSpaceOnUse"><stop offset=".16" stop-color="#21D789"/><stop offset=".54" stop-color="#419FBC"/><stop offset="1" stop-color="#6B57FF"/></linearGradient><linearGradient id="paint1_linear" x1="15.588" y1="6.406" x2="17.364" y2="1.865" gradientUnits="userSpaceOnUse"><stop offset="0" stop-color="#6B57FF"/><stop offset=".952" stop-color="#21D789"/></linearGradient><linearGradient id="paint2_linear" x1="5.78" y1="12.116" x2="7.504" y2="19.628" gradientUnits="userSpaceOnUse"><stop offset="0" stop-color="#6B57FF"/><stop offset=".022" stop-color="#685CFB"/><stop offset=".281" stop-color="#4A91CA"/><stop offset=".506" stop-color="#34B7A7"/><stop offset=".685" stop-color="#26CE91"/><stop offset=".797" stop-color="#21D789"/></linearGradient><linearGradient id="paint3_linear" x1="1.495" y1="12.003" x2="22.526" y2="23.614" gradientUnits="userSpaceOnUse"><stop offset=".075" stop-color="#21D789"/><stop offset=".887" stop-color="#6B57FF"/></linearGradient><linearGradient id="paint4_linear" x1="1.623" y1="9.202" x2="22.759" y2="9.202" gradientUnits="userSpaceOnUse"><stop offset=".309" stop-color="#21D789"/><stop offset=".487" stop-color="#59A3B2"/><stop offset=".767" stop-color="#B74AF7"/><stop offset="1" stop-color="#FF45ED"/></linearGradient><linearGradient id="paint5_linear" x1="12" y1=".129" x2="12" y2="14.478" gradientUnits="userSpaceOnUse"><stop offset=".084" stop-color="#878585"/><stop offset=".538"/></linearGradient></defs></svg>