<svg width="80" height="80" viewBox="0 0 80 80" fill="none" xmlns="http://www.w3.org/2000/svg"><rect id="frame" width="80" height="80" fill="none"/><g clip-path="url(#clip0)"><path d="M74.917 12.417L80 45.167l-9.417 5.5 4.334-38.25z" fill="url(#paint0_linear)"/><path d="M74.917 12.417L46.25 0l-8 6.667 36.667 5.75z" fill="url(#paint1_linear)"/><path d="M54.083 80l-44.5-35.417L.667 71.417 54.083 80z" fill="url(#paint2_linear)"/><path d="M60.25 57.667L0 36.917 54.083 80l6.167-22.333z" fill="url(#paint3_linear)"/><path d="M0 .583v36.334L69.417 60.75l5.5-48.333L0 .583z" fill="url(#paint4_linear)"/><path d="M65 15H15v50h50V15z" fill="url(#paint5_linear)"/><path d="M39.9 55.5H21.2v3.1h18.7v-3.1z" fill="#fff"/><path d="M41 30.874c0-5.27 4.082-9.574 9.648-9.574 3.34 0 5.27.89 7.2 2.523l-2.524 3.118c-1.41-1.188-2.672-1.856-4.824-1.856-2.969 0-5.27 2.598-5.27 5.715v.074c0 3.34 2.301 5.79 5.567 5.79 1.484 0 2.746-.372 3.785-1.114v-2.598H50.5v-3.488h7.941v7.942c-1.78 1.632-4.379 2.894-7.718 2.894-5.79 0-9.723-4.008-9.723-9.426z" fill="#fff"/><path d="M21.3 21.25h7.27c5.798 0 9.826 4.028 9.826 9.236v.098c0 5.208-4.028 9.236-9.825 9.236H21.3V21.25zm4.028 3.635v11.201h3.145c3.34 0 5.6-2.26 5.6-5.502v-.098c0-3.242-2.26-5.6-5.6-5.6h-3.145z" fill="#fff"/></g><defs><linearGradient id="paint0_linear" x1="73.239" y1="30.097" x2="75.579" y2="50.464" gradientUnits="userSpaceOnUse"><stop offset=".16" stop-color="#21D789"/><stop offset=".54" stop-color="#419FBC"/><stop offset="1" stop-color="#6B57FF"/></linearGradient><linearGradient id="paint1_linear" x1="51.962" y1="21.354" x2="57.879" y2="6.216" gradientUnits="userSpaceOnUse"><stop offset="0" stop-color="#6B57FF"/><stop offset=".952" stop-color="#21D789"/></linearGradient><linearGradient id="paint2_linear" x1="19.268" y1="40.388" x2="25.015" y2="65.426" gradientUnits="userSpaceOnUse"><stop offset="0" stop-color="#6B57FF"/><stop offset=".022" stop-color="#685CFB"/><stop offset=".281" stop-color="#4A91CA"/><stop offset=".506" stop-color="#34B7A7"/><stop offset=".685" stop-color="#26CE91"/><stop offset=".797" stop-color="#21D789"/></linearGradient><linearGradient id="paint3_linear" x1="4.983" y1="40.009" x2="75.085" y2="78.715" gradientUnits="userSpaceOnUse"><stop offset=".075" stop-color="#21D789"/><stop offset=".887" stop-color="#6B57FF"/></linearGradient><linearGradient id="paint4_linear" x1="5.411" y1="30.675" x2="75.864" y2="30.675" gradientUnits="userSpaceOnUse"><stop offset=".309" stop-color="#21D789"/><stop offset=".487" stop-color="#59A3B2"/><stop offset=".767" stop-color="#B74AF7"/><stop offset="1" stop-color="#FF45ED"/></linearGradient><linearGradient id="paint5_linear" x1="39.999" y1="2.846" x2="39.999" y2="47.685" gradientUnits="userSpaceOnUse"><stop offset=".084" stop-color="#878585"/><stop offset=".538"/></linearGradient><clipPath id="clip0"><path d="M0 0h80v80H0V0z" fill="#fff"/></clipPath></defs></svg>