<svg width="64" height="64" viewBox="0 0 64 64" fill="none" xmlns="http://www.w3.org/2000/svg"><rect id="frame" width="64" height="64" fill="none"/><path d="M59.933 9.933L64 36.133l-7.533 4.4 3.466-30.6z" fill="url(#paint0_linear)"/><path d="M59.933 9.933L37 0l-6.4 5.333 29.333 4.6z" fill="url(#paint1_linear)"/><path d="M43.267 64l-35.6-28.333L.533 57.133 43.267 64z" fill="url(#paint2_linear)"/><path d="M48.2 46.133L0 29.533 43.267 64 48.2 46.133z" fill="url(#paint3_linear)"/><path d="M0 .467v29.066L55.533 48.6l4.4-38.667L0 .467z" fill="url(#paint4_linear)"/><path d="M51 13H13v38h38V13z" fill="url(#paint5_linear)"/><path d="M32.144 44H18v2.322h14.144V44z" fill="#fff"/><path d="M32.7 24.968c0-4.11 3.184-7.468 7.526-7.468 2.605 0 4.11.695 5.615 1.968L43.873 21.9c-1.1-.927-2.084-1.448-3.763-1.448-2.316 0-4.11 2.027-4.11 4.458v.058c0 2.605 1.794 4.515 4.342 4.515 1.157 0 2.142-.29 2.952-.868v-2.026H40.11v-2.721h6.194v6.194c-1.39 1.274-3.415 2.258-6.02 2.258-4.516 0-7.584-3.126-7.584-7.352z" fill="#fff"/><path d="M17.8 17.645h5.594c4.54 0 7.6 3.06 7.6 7.072 0 4.01-3.06 7.178-7.6 7.178L17.8 32V17.645zm3.167 2.955v8.55h2.427c2.534 0 4.328-1.689 4.328-4.222 0-2.534-1.689-4.328-4.328-4.328h-2.427z" fill="#fff"/><defs><linearGradient id="paint0_linear" x1="58.591" y1="24.078" x2="60.463" y2="40.371" gradientUnits="userSpaceOnUse"><stop offset=".16" stop-color="#21D789"/><stop offset=".54" stop-color="#419FBC"/><stop offset="1" stop-color="#6B57FF"/></linearGradient><linearGradient id="paint1_linear" x1="41.569" y1="17.083" x2="46.303" y2="4.973" gradientUnits="userSpaceOnUse"><stop offset="0" stop-color="#6B57FF"/><stop offset=".952" stop-color="#21D789"/></linearGradient><linearGradient id="paint2_linear" x1="15.415" y1="32.31" x2="20.012" y2="52.341" gradientUnits="userSpaceOnUse"><stop offset="0" stop-color="#6B57FF"/><stop offset=".022" stop-color="#685CFB"/><stop offset=".281" stop-color="#4A91CA"/><stop offset=".506" stop-color="#34B7A7"/><stop offset=".685" stop-color="#26CE91"/><stop offset=".797" stop-color="#21D789"/></linearGradient><linearGradient id="paint3_linear" x1="3.987" y1="32.007" x2="60.068" y2="62.972" gradientUnits="userSpaceOnUse"><stop offset=".075" stop-color="#21D789"/><stop offset=".887" stop-color="#6B57FF"/></linearGradient><linearGradient id="paint4_linear" x1="4.329" y1="24.54" x2="60.691" y2="24.54" gradientUnits="userSpaceOnUse"><stop offset=".309" stop-color="#21D789"/><stop offset=".487" stop-color="#59A3B2"/><stop offset=".767" stop-color="#B74AF7"/><stop offset="1" stop-color="#FF45ED"/></linearGradient><linearGradient id="paint5_linear" x1="31.949" y1="3.764" x2="31.949" y2="37.843" gradientUnits="userSpaceOnUse"><stop offset=".084" stop-color="#878585"/><stop offset=".538"/></linearGradient></defs></svg>