<svg width="16" height="16" viewBox="0 0 16 16" fill="none" xmlns="http://www.w3.org/2000/svg"><rect id="frame" width="16" height="16" fill="none"/><path d="M16 0H0v16h16V0z" fill="#21D789"/><path d="M15 1H1v14h14V1z" fill="#000"/><path d="M9 12H3v1h6v-1z" fill="#fff"/><path d="M8.4 6.048C8.4 4.322 9.6 2.9 11.3 2.9c1 0 1.6.305 2.2.812l-.8 1.016c-.4-.406-.8-.61-1.5-.61-.9 0-1.6.813-1.6 1.93s.7 1.93 1.7 1.93c.4 0 .8-.102 1.2-.407V6.76h-1.2V5.54h2.4v2.64c-.6.508-1.4.915-2.4.915-1.7.101-2.9-1.22-2.9-3.047z" fill="#fff"/><path d="M3 3.002h2.1c1.7 0 2.9 1.32 2.9 3.046 0 1.726-1.2 3.047-2.9 3.047H3V3.002zM4.2 4.22v3.656h.9c1 0 1.6-.71 1.6-1.828C6.7 4.931 6 4.22 5.1 4.22h-.9z" fill="#fff"/></svg>