<svg width="64" height="64" viewBox="0 0 64 64" fill="none" xmlns="http://www.w3.org/2000/svg"><rect id="frame" width="64" height="64" fill="none"/><path d="M44.8 10.027L63.574 25.6l-6.827 13.653-11.093-2.986H35.84l8.96-26.24z" fill="url(#paint0_linear)"/><path d="M26.027 20.267L22.4 39.253l-.427 6.614-8.96 4.053L0 51.2 3.84 9.813 27.307 0l14.506 9.387-15.786 10.88z" fill="url(#paint1_linear)"/><path d="M26.027 20.267l1.706 36.906L21.973 64 0 51.2l17.92-26.88 8.107-4.053z" fill="url(#paint2_linear)"/><path d="M50.133 17.493H27.947L47.573 0l2.56 17.493z" fill="url(#paint3_linear)"/><path d="M64 57.173l-19.627 6.614-25.813-7.254 7.466-36.266 2.987-2.774L44.8 16l-1.28 16 12.586-4.907L64 57.173z" fill="url(#paint4_linear)"/><path d="M51 13H13v38h38V13z" fill="url(#paint5_linear)"/><path d="M32.144 44H18v2.322h14.144V44z" fill="#fff"/><path d="M17.644 17.644h5.806c3.378 0 5.489 2.006 5.489 4.962 0 3.272-2.534 4.96-5.806 4.96h-2.427v4.223h-3.167V17.644h.105zm5.595 7.284c1.583 0 2.428-1.056 2.428-2.217 0-1.372-.95-2.111-2.534-2.111h-2.427v4.328h2.533z" fill="#fff"/><path d="M30.733 24.822c0-4.011 2.956-7.389 7.39-7.389 2.744 0 4.221.845 5.7 2.111l-1.9 2.323c-1.056-1.056-2.112-1.69-3.59-1.69-2.322 0-4.222 1.9-4.222 4.434 0 2.533 1.689 4.433 4.222 4.433 1.69 0 2.534-.633 3.8-1.689l1.9 2.112C42.344 31.156 40.656 32 37.911 32c-4.222 0-7.178-3.167-7.178-7.178z" fill="#fff"/><defs><linearGradient id="paint0_linear" x1="22.856" y1="24.728" x2="60.943" y2="24.728" gradientUnits="userSpaceOnUse"><stop offset="0" stop-color="#21D789"/><stop offset="1" stop-color="#07C3F2"/></linearGradient><linearGradient id="paint1_linear" x1="-22.454" y1="54.016" x2="55.972" y2="-3.878" gradientUnits="userSpaceOnUse"><stop offset=".011" stop-color="#FCF84A"/><stop offset=".112" stop-color="#A7EB62"/><stop offset=".206" stop-color="#5FE077"/><stop offset=".273" stop-color="#32DA84"/><stop offset=".306" stop-color="#21D789"/><stop offset=".577" stop-color="#21D789"/><stop offset=".597" stop-color="#21D789"/><stop offset=".686" stop-color="#20D68C"/><stop offset=".763" stop-color="#1ED497"/><stop offset=".835" stop-color="#19D1A9"/><stop offset=".904" stop-color="#13CCC2"/><stop offset=".971" stop-color="#0BC6E1"/><stop offset="1" stop-color="#07C3F2"/></linearGradient><linearGradient id="paint2_linear" x1="8.53" y1="70.998" x2="21.611" y2="29.952" gradientUnits="userSpaceOnUse"><stop offset="0" stop-color="#21D789"/><stop offset=".16" stop-color="#24D888"/><stop offset=".298" stop-color="#2FD985"/><stop offset=".427" stop-color="#41DC80"/><stop offset=".552" stop-color="#5AE079"/><stop offset=".673" stop-color="#7AE46F"/><stop offset=".791" stop-color="#A1EA64"/><stop offset=".904" stop-color="#CFF157"/><stop offset="1" stop-color="#FCF84A"/></linearGradient><linearGradient id="paint3_linear" x1="25.852" y1="35.313" x2="54.316" y2="-2.959" gradientUnits="userSpaceOnUse"><stop offset="0" stop-color="#21D789"/><stop offset=".093" stop-color="#23D986"/><stop offset=".172" stop-color="#2ADE7B"/><stop offset=".247" stop-color="#36E669"/><stop offset=".271" stop-color="#3BEA62"/><stop offset=".35" stop-color="#47EB61"/><stop offset=".494" stop-color="#67ED5D"/><stop offset=".686" stop-color="#9AF156"/><stop offset=".915" stop-color="#E0F64D"/><stop offset="1" stop-color="#FCF84A"/></linearGradient><linearGradient id="paint4_linear" x1="69.384" y1="40.182" x2="12.03" y2="39.651" gradientUnits="userSpaceOnUse"><stop offset=".387" stop-color="#FCF84A"/><stop offset=".463" stop-color="#ECF74C"/><stop offset=".611" stop-color="#C1F451"/><stop offset=".815" stop-color="#7EEF5A"/><stop offset="1" stop-color="#3BEA62"/></linearGradient><linearGradient id="paint5_linear" x1="31.949" y1="3.764" x2="31.949" y2="37.843" gradientUnits="userSpaceOnUse"><stop offset=".084" stop-color="#878585"/><stop offset=".538"/></linearGradient></defs></svg>