<svg width="32" height="32" viewBox="0 0 32 32" fill="none" xmlns="http://www.w3.org/2000/svg"><rect id="frame" width="32" height="32" fill="none"/><path d="M22.4 5.013l9.387 7.787-3.414 6.827-5.546-1.494H17.92l4.48-13.12z" fill="url(#paint0_linear)"/><path d="M13.013 10.133L11.2 19.627l-.213 3.306-4.48 2.027L0 25.6 1.92 4.907 13.653 0l7.254 4.693-7.894 5.44z" fill="url(#paint1_linear)"/><path d="M13.013 10.133l.854 18.454L10.987 32 0 25.6l8.96-13.44 4.053-2.027z" fill="url(#paint2_linear)"/><path d="M25.067 8.747H13.973L23.787 0l1.28 8.747z" fill="url(#paint3_linear)"/><path d="M32 28.587l-9.813 3.306L9.28 28.267l3.733-18.134 1.494-1.386L22.4 8l-.64 8 6.293-2.453L32 28.587z" fill="url(#paint4_linear)"/><path d="M26 6H6v20h20V6z" fill="url(#paint5_linear)"/><path d="M16 23H8v1h8v-1z" fill="#fff"/><path d="M8 8.116h3.136c1.792 0 2.912 1.16 2.912 2.667 0 1.855-1.344 2.782-3.024 2.782H9.792v2.32H8V8.115zm3.024 4.058c.784 0 1.344-.58 1.344-1.275 0-.812-.56-1.16-1.344-1.16H9.792v2.435h1.232z" fill="#fff"/><path d="M14.944 12.058c0-2.203 1.568-4.058 3.92-4.058 1.456 0 2.24.464 3.024 1.16l-1.008 1.275c-.56-.58-1.12-.928-1.904-.928-1.232 0-2.24 1.044-2.24 2.435s.896 2.435 2.24 2.435c.896 0 1.344-.348 2.016-.928L22 14.61c-.896.927-1.792 1.391-3.248 1.391-2.24 0-3.808-1.74-3.808-3.942z" fill="#fff"/><defs><linearGradient id="paint0_linear" x1="11.428" y1="12.364" x2="30.472" y2="12.364" gradientUnits="userSpaceOnUse"><stop offset="0" stop-color="#21D789"/><stop offset="1" stop-color="#07C3F2"/></linearGradient><linearGradient id="paint1_linear" x1="-11.227" y1="27.008" x2="27.986" y2="-1.939" gradientUnits="userSpaceOnUse"><stop offset=".011" stop-color="#FCF84A"/><stop offset=".112" stop-color="#A7EB62"/><stop offset=".206" stop-color="#5FE077"/><stop offset=".273" stop-color="#32DA84"/><stop offset=".306" stop-color="#21D789"/><stop offset=".577" stop-color="#21D789"/><stop offset=".597" stop-color="#21D789"/><stop offset=".686" stop-color="#20D68C"/><stop offset=".763" stop-color="#1ED497"/><stop offset=".835" stop-color="#19D1A9"/><stop offset=".904" stop-color="#13CCC2"/><stop offset=".971" stop-color="#0BC6E1"/><stop offset="1" stop-color="#07C3F2"/></linearGradient><linearGradient id="paint2_linear" x1="4.265" y1="35.499" x2="10.805" y2="14.976" gradientUnits="userSpaceOnUse"><stop offset="0" stop-color="#21D789"/><stop offset=".16" stop-color="#24D888"/><stop offset=".298" stop-color="#2FD985"/><stop offset=".427" stop-color="#41DC80"/><stop offset=".552" stop-color="#5AE079"/><stop offset=".673" stop-color="#7AE46F"/><stop offset=".791" stop-color="#A1EA64"/><stop offset=".904" stop-color="#CFF157"/><stop offset="1" stop-color="#FCF84A"/></linearGradient><linearGradient id="paint3_linear" x1="12.926" y1="17.656" x2="27.158" y2="-1.479" gradientUnits="userSpaceOnUse"><stop offset="0" stop-color="#21D789"/><stop offset=".093" stop-color="#23D986"/><stop offset=".172" stop-color="#2ADE7B"/><stop offset=".247" stop-color="#36E669"/><stop offset=".271" stop-color="#3BEA62"/><stop offset=".35" stop-color="#47EB61"/><stop offset=".494" stop-color="#67ED5D"/><stop offset=".686" stop-color="#9AF156"/><stop offset=".915" stop-color="#E0F64D"/><stop offset="1" stop-color="#FCF84A"/></linearGradient><linearGradient id="paint4_linear" x1="34.692" y1="20.091" x2="6.015" y2="19.826" gradientUnits="userSpaceOnUse"><stop offset=".387" stop-color="#FCF84A"/><stop offset=".463" stop-color="#ECF74C"/><stop offset=".611" stop-color="#C1F451"/><stop offset=".815" stop-color="#7EEF5A"/><stop offset="1" stop-color="#3BEA62"/></linearGradient><linearGradient id="paint5_linear" x1="15.973" y1="1.139" x2="15.973" y2="19.075" gradientUnits="userSpaceOnUse"><stop offset=".084" stop-color="#878585"/><stop offset=".538"/></linearGradient></defs></svg>