<svg width="80" height="80" viewBox="0 0 80 80" fill="none" xmlns="http://www.w3.org/2000/svg"><rect id="frame" width="80" height="80" fill="none"/><g clip-path="url(#clip0)"><path d="M56 12.533L79.467 32l-8.533 17.067-13.867-3.734H44.8l11.2-32.8z" fill="url(#paint0_linear)"/><path d="M32.533 25.333L28 49.067l-.533 8.266-11.2 5.067L0 64l4.8-51.733L34.133 0l18.134 11.733-19.734 13.6z" fill="url(#paint1_linear)"/><path d="M32.533 25.333l2.134 46.134-7.2 8.533L0 64l22.4-33.6 10.133-5.067z" fill="url(#paint2_linear)"/><path d="M62.667 21.867H34.933L59.467 0l3.2 21.867z" fill="url(#paint3_linear)"/><path d="M80 71.467l-24.533 8.267L23.2 70.667l9.333-45.334 3.734-3.466L56 20l-1.6 20 15.733-6.133L80 71.467z" fill="url(#paint4_linear)"/><path d="M65 15H15v50h50V15z" fill="url(#paint5_linear)"/><path d="M20.893 21.25h7.5c4.464 0 7.143 2.678 7.143 6.428 0 4.286-3.393 6.608-7.5 6.608H25v5.535h-4.107V21.25zm7.321 9.464c1.965 0 3.215-1.25 3.215-2.857 0-1.786-1.25-2.857-3.393-2.857H24.82v5.714h3.393z" fill="#fff"/><path d="M38.214 30.536c0-5.357 3.929-9.643 9.822-9.643 3.571 0 5.714 1.25 7.321 2.857l-2.678 3.036c-1.429-1.25-2.858-2.143-4.822-2.143-3.214 0-5.357 2.679-5.357 5.893s2.143 5.893 5.357 5.893c2.143 0 3.393-.893 4.822-2.143l2.678 2.678c-1.964 2.143-4.107 3.393-7.678 3.393-5.358-.178-9.465-4.464-9.465-9.821z" fill="#fff"/><path d="M39.9 55.5H21.2v3.1h18.7v-3.1z" fill="#fff"/></g><defs><linearGradient id="paint0_linear" x1="28.57" y1="30.91" x2="76.179" y2="30.91" gradientUnits="userSpaceOnUse"><stop offset="0" stop-color="#21D789"/><stop offset="1" stop-color="#07C3F2"/></linearGradient><linearGradient id="paint1_linear" x1="-28.068" y1="67.521" x2="69.965" y2="-4.847" gradientUnits="userSpaceOnUse"><stop offset=".011" stop-color="#FCF84A"/><stop offset=".112" stop-color="#A7EB62"/><stop offset=".206" stop-color="#5FE077"/><stop offset=".273" stop-color="#32DA84"/><stop offset=".306" stop-color="#21D789"/><stop offset=".577" stop-color="#21D789"/><stop offset=".597" stop-color="#21D789"/><stop offset=".686" stop-color="#20D68C"/><stop offset=".763" stop-color="#1ED497"/><stop offset=".835" stop-color="#19D1A9"/><stop offset=".904" stop-color="#13CCC2"/><stop offset=".971" stop-color="#0BC6E1"/><stop offset="1" stop-color="#07C3F2"/></linearGradient><linearGradient id="paint2_linear" x1="10.663" y1="88.747" x2="27.014" y2="37.44" gradientUnits="userSpaceOnUse"><stop offset="0" stop-color="#21D789"/><stop offset=".16" stop-color="#24D888"/><stop offset=".298" stop-color="#2FD985"/><stop offset=".427" stop-color="#41DC80"/><stop offset=".552" stop-color="#5AE079"/><stop offset=".673" stop-color="#7AE46F"/><stop offset=".791" stop-color="#A1EA64"/><stop offset=".904" stop-color="#CFF157"/><stop offset="1" stop-color="#FCF84A"/></linearGradient><linearGradient id="paint3_linear" x1="32.315" y1="44.141" x2="67.896" y2="-3.698" gradientUnits="userSpaceOnUse"><stop offset="0" stop-color="#21D789"/><stop offset=".093" stop-color="#23D986"/><stop offset=".172" stop-color="#2ADE7B"/><stop offset=".247" stop-color="#36E669"/><stop offset=".271" stop-color="#3BEA62"/><stop offset=".35" stop-color="#47EB61"/><stop offset=".494" stop-color="#67ED5D"/><stop offset=".686" stop-color="#9AF156"/><stop offset=".915" stop-color="#E0F64D"/><stop offset="1" stop-color="#FCF84A"/></linearGradient><linearGradient id="paint4_linear" x1="86.731" y1="50.228" x2="15.038" y2="49.564" gradientUnits="userSpaceOnUse"><stop offset=".387" stop-color="#FCF84A"/><stop offset=".463" stop-color="#ECF74C"/><stop offset=".611" stop-color="#C1F451"/><stop offset=".815" stop-color="#7EEF5A"/><stop offset="1" stop-color="#3BEA62"/></linearGradient><linearGradient id="paint5_linear" x1="39.999" y1="2.846" x2="39.999" y2="47.685" gradientUnits="userSpaceOnUse"><stop offset=".084" stop-color="#878585"/><stop offset=".538"/></linearGradient><clipPath id="clip0"><path d="M0 0h80v80H0V0z" fill="#fff"/></clipPath></defs></svg>