<svg xmlns="http://www.w3.org/2000/svg" width="16" height="16" viewBox="0 0 16 16"><rect id="frame" width="16" height="16" fill="none"/><g fill="none" fill-rule="evenodd"><path fill="#F26522" fill-opacity=".7" d="M9 16H1V9h7c-.628.835-1 1.874-1 3 0 1.636.785 3.088 2 4z"/><path fill="#9AA7B0" fill-opacity=".8" d="M7 1L3 5h4z"/><path fill="#9AA7B0" fill-opacity=".8" d="M8 1v5H3v2h10V1z"/><path fill="#231F20" fill-opacity=".7" d="M3 12.991v-.982L6 10v1.045l-2.247 1.446L6 13.946V15z"/><path fill="#40B6E0" d="M12.581 13.847l2.519-2.519-.629-.628-2.518 2.518-.936-.935v2.5h2.5l-.936-.936zm2.204.938a4 4 0 1 1-5.657-5.657 4 4 0 0 1 5.657 5.657zm-2.857-4.057l.99.99v-2.5h-2.5l.882.882-2.486 2.485.629.629 2.485-2.486z"/></g></svg>