<svg xmlns="http://www.w3.org/2000/svg" width="16" height="16" viewBox="0 0 16 16"><rect id="frame" width="16" height="16" fill="none"/><g fill="none" fill-rule="evenodd"><path fill="#62B543" fill-opacity=".7" d="M7.56 14.3c-1.115-.019-2.196-.087-3.113-.045 0 0-.504.028-1.013.112 0 0 .193-.082.438-.167 1.489-.514 2.393-.723 3.26-1.053.095.406.24.792.427 1.153zm5.33-7.22c.068-.232.123-.465.164-.698-.079.229-.171.455-.277.678A5 5 0 0 0 7 12.054c-1.67.59-4.498 1.152-4.498 1.153l-.12-.064C.354 12.157.298 7.77 3.979 6.355c1.614-.62 3.158-.279 4.902-.695 1.86-.442 4.015-1.84 4.89-3.66.565 1.671 1.194 3.884 1.228 5.999a4.976 4.976 0 0 0-2.109-.92z"/><path fill="#40B6E0" d="M12.581 13.847l2.519-2.519-.629-.628-2.518 2.518-.936-.935v2.5h2.5l-.936-.936zm2.204.938a4 4 0 1 1-5.657-5.657 4 4 0 0 1 5.657 5.657zm-2.857-4.057l.99.99v-2.5h-2.5l.882.882-2.486 2.485.629.629 2.485-2.486z"/></g></svg>