<svg xmlns="http://www.w3.org/2000/svg" width="40" height="40" viewBox="0 0 40 40"><rect id="frame" width="40" height="40" fill="none"/><g fill="none"><path fill="#93D500" d="M12.47 22.426H4.1l.004.123.014.236.007.1c.006.092.014.182.022.273l.006.06a13.088 13.088 0 0 0 .078.656c.097.67.241 1.332.434 1.981l.002.009a12.266 12.266 0 0 0 .106.34c.03.092.06.183.092.274l.024.07.086.236.04.107.077.196.06.147.065.153.081.186.05.111.104.223.035.071c.04.086.083.17.125.254l.02.039c.048.092.097.185.147.277l.006.013c.01.02.022.038.033.056l7.148-4.306.027-.016a5.7 5.7 0 0 1-.523-1.869z"/><path fill="#93D500" d="M4.495 26.265l.003.007.269-.085z"/><path fill="#4D5A31" d="M14.527 26.269l-.02.02-5.896 5.896c.03.028.06.057.092.084.055.05.11.1.166.148l.086.076c.067.058.135.115.202.17l.054.046a13.4 13.4 0 0 0 .523.41c.355.266.723.514 1.103.746l.039.024a16.79 16.79 0 0 0 .74.417c.214.112.432.216.652.316l.209-.508 2.965-7.201.011-.027a5.719 5.719 0 0 1-.926-.617z"/><path fill="#6BA43A" d="M13.913 25.681a5.505 5.505 0 0 1-.337-.414 5.814 5.814 0 0 1-.316-.47l-7.158 4.312c.11.182.225.36.342.536l.011.019.004.006.012.018.03.044.001.002c.125.185.253.366.385.542l.009.011.008.011a13.01 13.01 0 0 0 .383.486l.044.054.171.202.076.086.148.167.084.09.038.042.11.119.046.046c.065.068.131.136.198.203l5.905-5.904a5.09 5.09 0 0 1-.194-.208z"/><path fill="#4D5A31" d="M21.74 26.266c-.066.052-.131.103-.198.153l.015.024 4.305 7.146c.199-.13.396-.264.589-.405.416-.307.82-.64 1.208-.999l-5.896-5.896-.024-.023z"/><path fill="#93D500" d="M25.318 33.93l.01-.006h-.001l-.01.006z"/><path fill="#93D500" d="M25.314 33.932h-.001z"/><path fill="#93D500" d="M25.327 33.924l.057-.031-.001-.002-.056.033z"/><path fill="#93D500" d="M25.315 33.931l.003-.001v-.001z"/><path fill="#93D500" d="M25.313 33.932h.001l-.011-.018z"/><path fill="#93D500" d="M25.318 33.93a.08.08 0 0 0 0 0z"/><path fill="#93D500" d="M25.31 33.934l.002-.001z"/><path fill="#93D500" d="M25.313 33.932l-.001.001.002-.001z"/><path fill="#93D500" d="M25.315 33.93l-.002.002.005-.003-.003.002zm.012-.006l.056-.031-.056.031z"/><path fill="#93D500" d="M25.384 33.893l-.001-.002h-.001z"/><path fill="#93D500" d="M25.306 33.949l.024-.017.016.024-.024.016z"/><path fill="#93D500" d="M25.307 33.936l.001-.001z"/><path fill="#93D500" d="M25.31 33.934l-.002.001.002-.001z"/><path fill="#93D500" d="M25.236 33.648l-.146-.242-4.018-6.67c-.082.048-.165.092-.248.137a5.706 5.706 0 0 1-4.324.443c-.09-.026-.179-.062-.268-.093-.089-.032-.18-.06-.267-.095l-2.963 7.196-.116.282-.1.242.023.01.024.009c.077.031.147.056.217.083.088.034.176.07.265.101.045.017.09.036.135.052.928.328 1.889.557 2.865.686.039.004.077.01.115.015l.12.013.226.025.056.005.277.023.095.006.243.014.148.006.194.007c.092.002.186.003.279.003l.066.001c.78 0 1.56-.065 2.331-.194.013-.002.026-.005.04-.006l.244-.045.139-.027.143-.03c.08-.016.159-.034.238-.052l.043-.01a14.117 14.117 0 0 0 3.37-1.256c.07-.037.137-.08.207-.117l.247-.139c.056-.032.114-.062.17-.096l.005-.003-.01-.019.011.018.005-.002.009-.006.055-.033-.145-.242zM14.53 17.454c.065-.052.131-.103.198-.153l-.015-.024-4.305-7.146a13.07 13.07 0 0 0-1.797 1.404l5.896 5.896.023.023z"/><path fill="#4D5A31" d="M8.202 11.927c-.067.067-.13.137-.196.205-.065.068-.132.135-.196.204-.436.472-.834.966-1.193 1.479l-.051.073a13.881 13.881 0 0 0-.286.431 14.012 14.012 0 0 0-2.18 6.974c-.004.095-.006.19-.008.284-.002.094-.005.189-.005.283h8.35c0-.095.01-.189.014-.283.005-.095.007-.19.016-.284a5.667 5.667 0 0 1 1.26-3.04c.059-.073.126-.141.19-.211.063-.07.122-.143.19-.21l-5.905-5.905zm17.23-2.073l-.035-.02c-.073-.045-.147-.089-.221-.132l-.13-.074-.13-.072a17.49 17.49 0 0 0-.227-.122l-.036-.02A14.044 14.044 0 0 0 22.77 8.6a14.095 14.095 0 0 0-2.931-.684l-.118-.013c-.075-.008-.15-.017-.226-.024l-.064-.006a14.44 14.44 0 0 0-.27-.023l-.105-.006-.232-.014-.123-.005V16.196c.43.044.855.136 1.268.276l6.16-6.16c-.228-.16-.46-.313-.697-.458z"/><path fill="#6BA43A" d="M11.033 10.071l-.146-.242z"/><path fill="#6BA43A" d="M10.887 9.827v.002z"/><path fill="#6BA43A" d="M17.852 7.818c-.095.002-.19.003-.283.006-.591.024-1.18.084-1.766.182l-.038.007-.245.044c-.046.01-.093.018-.139.027l-.144.03c-.079.016-.158.034-.237.052l-.044.01a14.128 14.128 0 0 0-3.37 1.257c-.069.036-.137.078-.206.116l-.247.139c-.06.035-.122.067-.183.104h-.002l-.013.008-.048.027v.002l.147.242 4.164 6.914c.081-.05.165-.094.248-.138a5.678 5.678 0 0 1 2.406-.674c.094-.005.188-.01.283-.01v-8.35c-.095 0-.189.004-.283.005z"/><path fill="#4D5A31" d="M32.165 21.17l-.013-.226-.008-.112a11.884 11.884 0 0 0-.022-.265c-.001-.023-.004-.045-.006-.068l-.031-.296-.003-.023-.001-.012a17.164 17.164 0 0 0-.042-.318l-.002-.01a14.034 14.034 0 0 0-.431-1.974l-.004-.013-.093-.3c-.005-.014-.01-.027-.013-.04a18.908 18.908 0 0 0-.201-.577 10.383 10.383 0 0 0-.18-.454l-.062-.149a22.684 22.684 0 0 0-.083-.19l-.048-.107-.106-.225-.033-.069a16.593 16.593 0 0 0-.127-.256l-.018-.036a14.663 14.663 0 0 0-.148-.28l-.005-.01c-.243-.447-.51-.88-.8-1.296l-6.162 6.162c.14.413.232.839.276 1.268H32.17l-.005-.125z"/><path fill="#6BA43A" d="M23.818 22.143c-.005.095-.006.19-.016.283a5.67 5.67 0 0 1-1.259 3.042c-.06.072-.126.14-.19.21-.063.07-.122.143-.19.21l5.905 5.905c.067-.068.13-.137.195-.205.066-.068.132-.136.196-.205.437-.473.836-.968 1.196-1.483l.042-.06.13-.19.112-.172.053-.084a14.006 14.006 0 0 0 2.177-6.968l.007-.283c.002-.095.005-.189.005-.283h-8.35c0 .094-.008.188-.013.283z"/><path fill="#CBCBCB" d="M34.662 5.333a3.912 3.912 0 0 0-6.269 4.503l-8.521 8.522a3.912 3.912 0 1 0 1.765 1.765L30.16 11.6a3.91 3.91 0 0 0 4.503-6.268z"/></g></svg>