<svg xmlns="http://www.w3.org/2000/svg" width="40" height="40" viewBox="0 0 40 40">
  <g fill="none" transform="translate(4 4)">
    <g transform="translate(0 3.681)">
      <path fill="#93D500" d="M8.46980531,14.7452035 L8.43780531,14.7452035 L0.0996814159,14.7452035 C0.101097345,14.7859823 0.102230088,14.8270442 0.104495575,14.867823 C0.107893805,14.9465487 0.113557522,15.0249912 0.118371681,15.1037168 C0.120637168,15.1374159 0.122053097,15.171115 0.12460177,15.204531 C0.131115044,15.2957168 0.139044248,15.3863363 0.147256637,15.4769558 C0.149238938,15.4976283 0.150938053,15.5180177 0.152920354,15.5378407 C0.162548673,15.6386549 0.17359292,15.739469 0.185486726,15.8394336 C0.186053097,15.8493451 0.187185841,15.8589735 0.18860177,15.8686018 C0.201628319,15.9767788 0.215504425,16.0849558 0.231362832,16.1925664 C0.328212389,16.8637168 0.472353982,17.5246726 0.664637168,18.1743009 C0.665486726,18.1771327 0.666619469,18.1796814 0.667185841,18.1825133 C0.69720354,18.2847434 0.728920354,18.3864071 0.761486726,18.4875044 C0.763469027,18.4934513 0.765451327,18.4993982 0.767150442,18.5053451 C0.768849558,18.511292 0.770831858,18.5172389 0.772814159,18.5231858 C0.802548673,18.6146549 0.833699115,18.7058407 0.864849558,18.7973097 C0.873061947,18.8202478 0.880707965,18.843469 0.88920354,18.8664071 C0.917238938,18.9454159 0.945840708,19.0244248 0.975292035,19.1034336 C0.988884956,19.139115 1.00247788,19.1745133 1.01578761,19.2104779 C1.04127434,19.2758938 1.06647788,19.3407434 1.09224779,19.4061593 C1.11178761,19.4551504 1.13217699,19.5041416 1.15256637,19.5531327 C1.17352212,19.6041062 1.19504425,19.6547965 1.21656637,19.7060531 C1.24318584,19.768354 1.27093805,19.8303717 1.29840708,19.8923894 C1.31483186,19.9294867 1.33153982,19.9663009 1.3479646,20.003115 C1.3819469,20.0775929 1.41706195,20.1520708 1.45217699,20.2259823 C1.46378761,20.2497699 1.47483186,20.2735575 1.48672566,20.2973451 C1.52778761,20.3825841 1.56969912,20.4669735 1.61217699,20.5507965 C1.61925664,20.563823 1.62548673,20.5765664 1.632,20.5895929 C1.67985841,20.6824779 1.72856637,20.7753628 1.77869027,20.8673982 C1.78095575,20.8713628 1.78322124,20.8753274 1.78520354,20.8798584 C1.79568142,20.899115 1.80729204,20.9175221 1.81776991,20.9364956 L8.96623009,16.6300885 L8.99256637,16.6142301 C8.71051327,16.019823 8.53493805,15.3877522 8.46980531,14.7452035 Z"/>
      <polygon fill="#93D500" points=".495 18.584 .498 18.591 .767 18.506"/>
      <path fill="#4D5A31" d="M10.5268673,18.5877522 L10.5067611,18.6078584 L4.61111504,24.5037876 C4.64141593,24.5321062 4.67143363,24.560708 4.70258407,24.588177 C4.75752212,24.6380177 4.81359292,24.6875752 4.86938053,24.7362832 C4.89826549,24.7620531 4.92658407,24.7875398 4.95546903,24.8124602 C5.02230088,24.8702301 5.08969912,24.9265841 5.15681416,24.9829381 C5.17522124,24.9982301 5.19306195,25.0132389 5.21118584,25.0282478 C5.28679646,25.0908319 5.36382301,25.1522832 5.44113274,25.2134513 C5.45104425,25.2210973 5.46095575,25.2290265 5.47086726,25.2369558 C5.55440708,25.3026549 5.63879646,25.3666549 5.7240354,25.4312212 C5.72771681,25.4334867 5.73083186,25.4357522 5.73366372,25.4383009 C6.08877876,25.703646 6.45692035,25.9522832 6.83667257,26.1839292 C6.84969912,26.1921416 6.86272566,26.1997876 6.8760354,26.208 C6.94824779,26.2513274 7.02046018,26.2940885 7.09323894,26.3362832 C7.13769912,26.3617699 7.18215929,26.3869735 7.22661947,26.412177 C7.26853097,26.436531 7.31044248,26.4597522 7.35292035,26.4832566 C7.42938053,26.5251681 7.50640708,26.5667965 7.58343363,26.6075752 C7.5939115,26.6132389 7.60467257,26.6189027 7.61543363,26.6245664 C7.82980531,26.736708 8.04785841,26.8409204 8.26761062,26.9411681 L8.26761062,26.9411681 L8.47688496,26.4331327 L11.4421239,19.232 L11.4531681,19.2053805 C11.1292035,19.0320708 10.8188319,18.8267611 10.5268673,18.5877522 Z"/>
      <path fill="#6BA43A" d="M9.91292035,18.0004248 C9.84920354,17.9296283 9.78860177,17.8571327 9.72913274,17.7837876 C9.67646018,17.7186549 9.62548673,17.6529558 9.57621239,17.5864071 C9.51985841,17.5099469 9.46463717,17.4332035 9.41253097,17.3547611 C9.35985841,17.2760354 9.30831858,17.1967434 9.25961062,17.1160354 L2.1020885,21.427823 C2.2119646,21.6104779 2.32665487,21.7883186 2.44361062,21.964177 C2.44757522,21.9701239 2.45125664,21.9766372 2.45522124,21.9825841 C2.45663717,21.9848496 2.4580531,21.9868319 2.45946903,21.9890973 C2.46343363,21.9947611 2.46683186,22.0009912 2.47079646,22.0069381 C2.48127434,22.0227965 2.49090265,22.0363894 2.50053097,22.0505487 C2.50109735,22.0513982 2.50166372,22.0522478 2.50223009,22.0530973 C2.62739823,22.2380177 2.75511504,22.4189735 2.88679646,22.595115 C2.88962832,22.5987965 2.89274336,22.6027611 2.89557522,22.6064425 C2.89840708,22.6101239 2.90123894,22.6138053 2.9040708,22.6174867 C2.96127434,22.6933805 3.01876106,22.7689912 3.0779469,22.8440354 C3.08559292,22.8539469 3.09323894,22.8635752 3.10145133,22.8732035 C3.1620531,22.9507965 3.22378761,23.0272566 3.28665487,23.1031504 C3.30138053,23.1209912 3.31667257,23.139115 3.33139823,23.1572389 C3.3880354,23.2249204 3.44467257,23.2923186 3.50244248,23.3591504 C3.52707965,23.3877522 3.55284956,23.416354 3.57776991,23.4446726 C3.62704425,23.5007434 3.67575221,23.556531 3.72615929,23.6117522 C3.75362832,23.6420531 3.78223009,23.6726372 3.81026549,23.7029381 C3.82300885,23.7168142 3.83546903,23.7304071 3.84849558,23.7442832 C3.88530973,23.7839292 3.92184071,23.8235752 3.95893805,23.8629381 C3.97366372,23.8785133 3.98923894,23.8938053 4.00424779,23.9093805 C4.06938053,23.9773451 4.13507965,24.0453097 4.20219469,24.1121416 L10.1066195,18.2077168 C10.0389381,18.1400354 9.97550442,18.0703717 9.91292035,18.0004248 Z"/>
      <path fill="#4D5A31" d="M17.7393274,18.5846372 C17.6744779,18.6370265 17.6087788,18.6882832 17.5419469,18.7375575 L17.5566726,18.7621947 L21.8616637,25.9083894 C22.0610265,25.7781239 22.2581239,25.6438938 22.4506903,25.5028673 C22.8672566,25.1956106 23.2705133,24.8625841 23.6590442,24.5040708 L17.7628319,18.6078584 L17.7393274,18.5846372 Z"/>
      <path fill="#93D500" d="M21.3176637,26.2487788 C21.3207788,26.2470796 21.324177,26.2450973 21.327292,26.2433982 L21.3270088,26.243115 C21.3238938,26.2448142 21.3207788,26.2467965 21.3176637,26.2487788 L21.3176637,26.2487788 Z"/>
      <polygon fill="#93D500" points="21.314 26.251 21.314 26.251 21.314 26.251 21.313 26.251"/>
      <path fill="#93D500" d="M21.3270088,26.243115 L21.327292,26.2433982 C21.3459823,26.2329204 21.3649558,26.2230088 21.383646,26.2119646 L21.3825133,26.2099823 C21.363823,26.2210265 21.3454159,26.2320708 21.3270088,26.243115 Z"/>
      <polygon fill="#93D500" points="21.315 26.25 21.318 26.249 21.318 26.248"/>
      <polygon fill="#93D500" points="21.313 26.251 21.314 26.251 21.303 26.233"/>
      <path fill="#93D500" d="M21.3176637,26.2487788 L21.3176637,26.2487788 C21.3210619,26.2470796 21.324177,26.2453805 21.327292,26.2436814 L21.327292,26.2436814 C21.324177,26.2450973 21.3207788,26.2467965 21.3176637,26.2487788 Z"/>
      <polygon fill="#93D500" points="21.31 26.253 21.31 26.253 21.312 26.252 21.312 26.252"/>
      <polygon fill="#93D500" points="21.313 26.251 21.312 26.252 21.312 26.252 21.314 26.251"/>
      <path fill="#93D500" d="M21.315115 26.2499115C21.3145487 26.2501947 21.3139823 26.2504779 21.3134159 26.2507611L21.3134159 26.2507611C21.3148319 26.2499115 21.3162478 26.2493451 21.3176637 26.2484956L21.3176637 26.2482124C21.3168142 26.2490619 21.3159646 26.2496283 21.315115 26.2499115zM21.327292 26.2433982C21.3459823 26.232354 21.3649558 26.2230088 21.3833628 26.2116814 21.3649558 26.2230088 21.3459823 26.2329204 21.327292 26.2433982L21.327292 26.2433982z"/>
      <polygon fill="#93D500" points="21.384 26.212 21.383 26.21 21.382 26.21"/>
      <polygon fill="#93D500" points="21.311 26.257 21.34 26.257 21.34 26.285 21.311 26.285" transform="rotate(-33.688 21.326 26.27)"/>
      <polygon fill="#93D500" points="21.307 26.255 21.308 26.254 21.308 26.254"/>
      <polygon fill="#93D500" points="21.31 26.253 21.308 26.254 21.308 26.254 21.31 26.253"/>
      <path fill="#93D500" d="M21.2361062 25.9670088L21.0899823 25.7246018 17.0715752 19.0541593C16.9903009 19.1031504 16.9070442 19.1473274 16.8240708 19.1920708 16.7402478 19.2370973 16.6558584 19.279292 16.5703363 19.3197876 15.7983717 19.6859469 14.9626903 19.8728496 14.1258761 19.8728496 13.5776283 19.8728496 13.0296637 19.7935575 12.499823 19.6355398 12.4094867 19.6086372 12.3214159 19.5732389 12.2322124 19.5415221 12.1430088 19.5100885 12.0526726 19.4829027 11.964885 19.4466549L9.00162832 26.6429735 8.88552212 26.9250265 8.78612389 27.1665841C8.79320354 27.1708319 8.80113274 27.1733805 8.80877876 27.1764956 8.81699115 27.1798938 8.82492035 27.1824425 8.83313274 27.1858407 8.90959292 27.2169912 8.98010619 27.2416283 9.05033628 27.2690973 9.13840708 27.3033628 9.22647788 27.3381947 9.31483186 27.3704779 9.35985841 27.3869027 9.40460177 27.4061593 9.44962832 27.4220177 10.3781947 27.7499469 11.3387611 27.9793274 12.315469 28.1078938 12.3536991 28.1124248 12.391646 28.1178053 12.4298761 28.1231858 12.4698053 28.1277168 12.5100177 28.1316814 12.5499469 28.1362124 12.6252743 28.144708 12.7003186 28.1534867 12.7759292 28.1608496 12.7946195 28.1622655 12.8133097 28.1639646 12.832 28.1656637 12.9246018 28.1744425 13.0172035 28.1823717 13.1092389 28.188885 13.1406726 28.1911504 13.1723894 28.1925664 13.2035398 28.1948319 13.2848142 28.2002124 13.3655221 28.2053097 13.4465133 28.2089912 13.4960708 28.211823 13.5456283 28.2132389 13.595469 28.2149381 13.6597522 28.2172035 13.7237522 28.2197522 13.7886018 28.2217345 13.8812035 28.224 13.9746549 28.2248496 14.067823 28.2251327 14.0899115 28.2251327 14.1117168 28.2256991 14.1335221 28.2259823 14.9136991 28.2259823 15.6935929 28.1611327 16.4649912 28.0317168 16.4780177 28.0297345 16.4907611 28.027469 16.5040708 28.0257699 16.5856283 28.0116106 16.6671858 27.9963186 16.7487434 27.9813097 16.7951858 27.9722478 16.8419115 27.963469 16.8877876 27.9544071 16.9353628 27.9444956 16.9832212 27.9345841 17.0307965 27.9243894 17.1103717 27.9076814 17.1896637 27.8904071 17.2692389 27.872 17.2833982 27.868885 17.2978407 27.8660531 17.3122832 27.8620885 18.4849558 27.5888142 19.6174159 27.1657345 20.6813451 26.6058761 20.751292 26.5687788 20.8192566 26.5268673 20.8886372 26.4892035 20.9713274 26.4438938 21.0534513 26.3971681 21.1355752 26.3501593 21.1924956 26.3175929 21.2499823 26.2875752 21.3063363 26.2538761 21.3094513 26.2518938 21.3103009 26.2516106 21.3111504 26.2510442L21.3018053 26.232354 21.3122832 26.2501947C21.3148319 26.2487788 21.3156814 26.2484956 21.316531 26.2479292 21.319646 26.2459469 21.3227611 26.2442478 21.3258761 26.2422655 21.3442832 26.2312212 21.3626903 26.220177 21.3810973 26.2091327L21.2361062 25.9670088zM10.5302655 9.77330973C10.5953982 9.72063717 10.6610973 9.66966372 10.727646 9.62038938L10.7129204 9.59575221 6.40821239 2.44955752C6.20828319 2.58010619 6.01061947 2.71461947 5.81776991 2.85621239 5.40148673 3.16261947 4.99851327 3.49536283 4.61083186 3.85359292L10.5070442 9.74980531 10.5302655 9.77330973z"/>
      <path fill="#4D5A31" d="M4.2019115 4.2460885C4.13479646 4.31320354 4.07136283 4.38258407 4.0059469 4.45054867 3.94053097 4.51851327 3.8739823 4.58619469 3.8099823 4.65529204 3.37444248 5.12679646 2.97628319 5.62067257 2.61720354 6.13352212 2.5999292 6.15759292 2.58265487 6.18279646 2.56566372 6.20743363 2.52516814 6.26633628 2.48523894 6.32523894 2.44587611 6.38442478 2.40481416 6.44587611 2.3640354 6.50817699 2.32438938 6.57019469 2.30938053 6.59284956 2.29465487 6.61578761 2.28021239 6.63844248.924035398 8.7660177.197380531 11.1790442.0996814159 13.6124602.096 13.7067611.0940176991 13.8013451.0920353982 13.895646.0900530973 13.9899469.0872212389 14.084531.0872212389 14.1788319L8.43780531 14.1788319C8.43780531 14.0842478 8.44658407 13.9902301 8.45139823 13.895646 8.45621239 13.8010619 8.45762832 13.7064779 8.46697345 13.6124602 8.57486726 12.5250265 8.99454867 11.4633628 9.72630088 10.5713274 9.78576991 10.4988319 9.85288496 10.4308673 9.91660177 10.3609204 9.9800354 10.2909735 10.0389381 10.2181947 10.1066195 10.1507965L4.2019115 4.2460885zM21.4317876 2.17345133C21.4204602 2.16637168 21.4085664 2.15957522 21.3972389 2.15277876 21.3238938 2.10775221 21.2496991 2.06442478 21.1755044 2.02109735 21.1324602 1.99617699 21.0894159 1.97210619 21.0460885 1.94746903 21.0024779 1.92311504 20.9594336 1.89876106 20.9155398 1.87497345 20.8402124 1.83362832 20.7646018 1.79284956 20.688708 1.75263717 20.6768142 1.74669027 20.6652035 1.74017699 20.6530265 1.7339469 20.1633982 1.4779469 19.6604602 1.25253097 19.1470442 1.05684956 19.1340177 1.05146903 19.1204248 1.04637168 19.107115 1.04155752 18.9952566.999646018 18.883115.958017699 18.7701239.918938053 17.8579823.600353982 16.9146903.376920354 15.9563894.251185841 15.9173097.24580531 15.8779469.240424779 15.8388673.235327434 15.7995044.230513274 15.7604248.226548673 15.7213451.222300885 15.6457345.213522124 15.5704071.205026549 15.4945133.197663717 15.4735575.195681416 15.4523186.194265487 15.4310796.192 15.3413097.183787611 15.2509735.175858407 15.1612035.169345133 15.1263717.16679646 15.0909735.164814159 15.0561416.162831858 14.979115.157734513 14.9012389.152353982 14.8242124.148955752 14.7828673.146690265 14.7420885.145557522 14.7013097.144141593L14.7010265 8.48226549 14.7010265 8.51483186C15.1306195 8.55929204 15.5562478 8.65076106 15.9691327 8.79093805L22.1295575 2.63051327C21.9010265 2.4719292 21.6696637 2.31787611 21.4317876 2.17345133z"/>
      <polygon fill="#6BA43A" points="7.033 2.39 6.887 2.148 6.887 2.148"/>
      <polygon fill="#6BA43A" points="6.887 2.146 6.887 2.148 6.887 2.148"/>
      <path fill="#6BA43A" d="M13.8517522,0.137345133 C13.7574513,0.139327434 13.6628673,0.139610619 13.5685664,0.143292035 C12.9778407,0.167079646 12.3882478,0.22739823 11.803469,0.325380531 C11.7907257,0.327646018 11.7779823,0.329628319 11.7649558,0.331893805 C11.6828319,0.346053097 11.6015575,0.361061947 11.52,0.376353982 C11.4738407,0.385132743 11.4273982,0.393628319 11.3812389,0.402973451 C11.3330973,0.41260177 11.2852389,0.422513274 11.2373805,0.43299115 C11.1580885,0.449415929 11.0787965,0.466690265 10.9995044,0.485097345 L10.9995044,0.485097345 C10.9850619,0.488212389 10.9709027,0.491610619 10.956177,0.494725664 C9.78350442,0.768283186 8.65047788,1.19164602 7.58683186,1.75150442 C7.58683186,1.75150442 7.58683186,1.75150442 7.58683186,1.75150442 L7.58654867,1.75150442 C7.51716814,1.78831858 7.44948673,1.8299469 7.38038938,1.86789381 C7.29769912,1.91320354 7.21557522,1.9599292 7.13345133,2.00693805 C7.07256637,2.0420531 7.01054867,2.07433628 6.9499469,2.11058407 C6.94938053,2.11086726 6.94853097,2.11143363 6.9479646,2.11171681 C6.9479646,2.11171681 6.94768142,2.11171681 6.94768142,2.11171681 C6.94343363,2.11426549 6.93918584,2.11653097 6.93493805,2.11907965 C6.91907965,2.12870796 6.90265487,2.13663717 6.88679646,2.14626549 L6.88764602,2.14768142 L7.03376991,2.39037168 L7.03376991,2.39037168 L11.1980177,9.30350442 C11.279292,9.25451327 11.3625487,9.2100531 11.4455221,9.16559292 C11.5290619,9.12056637 11.6137345,9.07837168 11.6989735,9.03787611 C12.2936637,8.75469027 12.9257345,8.57911504 13.5682832,8.5139823 C13.6625841,8.50435398 13.756885,8.49642478 13.851469,8.49161062 C13.9457699,8.48679646 14.0400708,8.4819823 14.1346549,8.4819823 L14.1349381,0.131681416 C14.040354,0.131681416 13.9460531,0.135646018 13.8517522,0.137345133 Z"/>
      <path fill="#4D5A31" d="M28.1650973,13.4884248 C28.1611327,13.4133805 28.1566018,13.3386195 28.1515044,13.263292 C28.1492389,13.2259115 28.1472566,13.1888142 28.1441416,13.1508673 C28.1379115,13.0627965 28.1305487,12.9744425 28.1223363,12.8863717 C28.1206372,12.8634336 28.1183717,12.8407788 28.1163894,12.8178407 C28.1067611,12.719292 28.0962832,12.6207434 28.0849558,12.5224779 C28.083823,12.5145487 28.0829735,12.5066195 28.0821239,12.4986903 C28.0815575,12.4950088 28.0812743,12.4910442 28.080708,12.4873628 C28.0676814,12.3811681 28.0535221,12.2749735 28.0385133,12.1690619 C28.0382301,12.1659469 28.0379469,12.1619823 28.0370973,12.1591504 C27.9410973,11.4933805 27.7972389,10.8335575 27.6055221,10.1847788 C27.6041062,10.1802478 27.6029735,10.1762832 27.6015575,10.1723186 C27.5712566,10.0715044 27.5403894,9.97125664 27.5086726,9.87129204 C27.5044248,9.85826549 27.4998938,9.84495575 27.4959292,9.83164602 C27.4661947,9.74130973 27.436177,9.65153982 27.4050265,9.56148673 C27.3962478,9.53741593 27.3877522,9.51306195 27.3792566,9.48842478 C27.3517876,9.41054867 27.323469,9.33295575 27.2945841,9.25536283 C27.280708,9.21826549 27.2665487,9.18145133 27.2521062,9.14463717 C27.2277522,9.08035398 27.2025487,9.0160708 27.1770619,8.95263717 C27.1566726,8.90166372 27.1362832,8.85153982 27.1153274,8.80141593 C27.0949381,8.75157522 27.0739823,8.70230088 27.0530265,8.65246018 C27.0255575,8.58902655 26.9978053,8.52559292 26.9697699,8.46244248 C26.9539115,8.42704425 26.9380531,8.39107965 26.9216283,8.35539823 C26.8870796,8.2800708 26.8516814,8.20474336 26.816,8.12969912 C26.8049558,8.10704425 26.7941947,8.08382301 26.7831504,8.06116814 C26.7415221,7.97536283 26.6993274,7.88955752 26.6562832,7.80460177 C26.6500531,7.79299115 26.6441062,7.78109735 26.6378761,7.76920354 C26.5897345,7.67546903 26.5404602,7.58145133 26.4903363,7.48884956 C26.488354,7.48573451 26.4869381,7.4820531 26.4849558,7.47893805 C26.2416991,7.03150442 25.9746549,6.59879646 25.6858053,6.18251327 L19.5233982,12.3452035 C19.6635752,12.7583717 19.7547611,13.1837168 19.7992212,13.6130265 L19.8320708,13.6130265 L28.1701947,13.6130265 C28.1682124,13.5708319 28.1670796,13.5294867 28.1650973,13.4884248 Z"/>
      <path fill="#6BA43A" d="M19.8179115,14.4620177 C19.8133805,14.5566018 19.8116814,14.6511858 19.8023363,14.7452035 C19.6944425,15.8326372 19.2747611,16.8945841 18.543292,17.7866195 C18.483823,17.859115 18.416708,17.9270796 18.3529912,17.9970265 C18.2895575,18.0669735 18.2306549,18.1397522 18.1629735,18.2071504 L24.0676814,24.1115752 C24.1347965,24.0444602 24.1979469,23.9750796 24.2633628,23.9068319 C24.3287788,23.8385841 24.3953274,23.7711858 24.4590442,23.7020885 C24.896,23.228885 25.295292,22.7338761 25.6552212,22.2193274 C25.6696637,22.1989381 25.6832566,22.1788319 25.6971327,22.1587257 C25.7410265,22.0955752 25.7837876,22.0318584 25.8268319,21.9681416 C25.8644956,21.9112212 25.9021593,21.8543009 25.9386903,21.7968142 C25.9568142,21.7693451 25.9749381,21.7407434 25.9924956,21.7132743 C27.3466903,19.5868319 28.0713628,17.176354 28.1687788,14.7449204 C28.1724602,14.6506195 28.1744425,14.5560354 28.1764248,14.4617345 C28.1784071,14.3674336 28.1812389,14.2731327 28.1812389,14.1785487 L19.8315044,14.1785487 C19.8315044,14.2734159 19.8227257,14.3674336 19.8179115,14.4620177 Z"/>
    </g>
    <path fill="#CBCBCB" d="M30.6622301,1.33267257 C29.1344425,-0.195115044 26.6574159,-0.195115044 25.1299115,1.33267257 C23.9110796,2.55122124 23.6675398,4.37295575 24.3933451,5.83589381 L15.872,14.3575221 C14.4090619,13.632 12.5873274,13.8752566 11.3684956,15.0938053 C9.84070796,16.6215929 9.84099115,19.0986195 11.3684956,20.6264071 C12.8965664,22.1541947 15.3735929,22.1536283 16.9013805,20.6261239 C18.1199292,19.4075752 18.3631858,17.5858407 17.6373805,16.1226195 L26.1587257,7.60127434 C27.6219469,8.32679646 29.4433982,8.08353982 30.6619469,6.86470796 C32.1897345,5.33776991 32.1897345,2.86046018 30.6622301,1.33267257 Z"/>
  </g>
</svg>
