<svg ti:v="1" width="16" height="16" viewBox="0 0 16 16" xmlns="http://www.w3.org/2000/svg" xmlns:ti="urn:schemas-jetbrains-com:tisvg"><rect id="frame" width="16" height="16" fill="none"/><path d="M0 0v1.35l4 5V13h1.41L8 10.41V6.35l4-5V0H0z" fill="#252525"/><path d="M11 1L7 6v4l-2 2V6L1 1zm0 0" fill="#C4C4C4"/><path d="M12 16a2 2 0 0 1-2-2v-2.76A4.001 4.001 0 0 1 10.66 4h2.68a4.001 4.001 0 0 1 .66 7.24V14a2 2 0 0 1-2 2zm0 0" fill="#252525"/><path d="M13 5v3h-2V5a3 3 0 0 0 0 5.63V14a1 1 0 0 0 1 1 1 1 0 0 0 1-1v-3.37A3 3 0 0 0 13 5zm0 0" fill="#C4C4C4"/></svg>