<svg ti:v="1" width="16" height="16" viewBox="0 0 16 16" xmlns="http://www.w3.org/2000/svg" xmlns:ti="urn:schemas-jetbrains-com:tisvg"><rect id="frame" width="16" height="16" fill="none"/><path d="M6 16V6h10v10zm0 0" fill="#F4F4F4"/><path d="M15 13H7v2h8zm0-3H7v2h8zm0-3H7v2h8zm0 0" fill="#323232"/><path d="M4 11c-.99 0-2.82-.76-2.987-3.573L0 6.414V4.586l1.013-1.013C1.18.76 3.01 0 4 0h3c.99 0 2.82.76 2.987 3.573L11 4.586v1.828L9.987 7.427C9.82 10.24 7.99 11 7 11zm0 0" fill="#F4F4F4"/><path d="M9 5v1H8v1c0 2-1 2-1 2v1s2 0 2-3l1-1V5L9 4c0-3-2-3-2-3v1s1 0 1 2v1zM3 5V4c0-2 1-2 1-2V1S2 1 2 4L1 5v1l1 1c0 3 2 3 2 3V9S3 9 3 7V6H2V5zm0 0" fill="#323232"/></svg>