<svg ti:v="1" width="32" height="32" viewBox="0 0 32 32" xmlns="http://www.w3.org/2000/svg" xmlns:ti="urn:schemas-jetbrains-com:tisvg"><rect id="frame" width="32" height="32" fill="none"/><linearGradient id="a" x1=".396" y1="-.579" x2=".628" y2=".968"><stop offset="0" stop-color="#7866FF"/><stop offset=".023" stop-color="#7E64FD"/><stop offset=".195" stop-color="#AA55F2"/><stop offset=".349" stop-color="#C84CEB"/><stop offset=".48" stop-color="#DB44E8"/><stop offset=".57" stop-color="#E243E6"/><stop offset=".641" stop-color="#E858BC"/><stop offset=".818" stop-color="#F48E57"/><stop offset=".942" stop-color="#FBAF19"/><stop offset="1" stop-color="#FFBC00"/></linearGradient><path fill-rule="evenodd" d="M3.627 29.76L20.267 32l3.306-11.413L0 17.173 3.627 29.76z" fill="url(#a)"/><linearGradient id="b" x1=".637" y1=".897" x2=".342" y2=".162"><stop offset="0" stop-color="#7866FF"/><stop offset=".202" stop-color="#955CF7"/><stop offset=".64" stop-color="#E243E6"/><stop offset=".968" stop-color="#FFBC00"/><stop offset="1" stop-color="#FFBC00"/></linearGradient><path fill-rule="evenodd" d="M19.306 2.454L10.774 0 6.08 17.173 32 21.12 28.906 0l-9.6 2.454z" fill="url(#b)"/><linearGradient id="c" x1=".376" y1="1.061" x2=".517" y2=".427"><stop offset="0" stop-color="#E243E6"/><stop offset=".118" stop-color="#E243E6"/><stop offset=".211" stop-color="#C74CEB"/><stop offset=".338" stop-color="#AA54F2"/><stop offset=".472" stop-color="#955DF7"/><stop offset=".618" stop-color="#8562FB"/><stop offset=".781" stop-color="#7B64FD"/><stop offset="1" stop-color="#7866FF"/></linearGradient><path fill-rule="evenodd" d="M0 9.067v8.106l22.613 6.294L32 21.12l-1.173-7.893-19.094-6.614L0 9.067z" fill="url(#c)"/><path fill-rule="evenodd" d="M5 5h22v22H5V5z" fill="#2D2D34"/><path fill-rule="evenodd" d="M7 22h8v2H7v-2z" fill="#FFF"/><path fill-rule="evenodd" d="M10.511 14.213c.402 0 .771-.064 1.105-.193.334-.128.62-.313.855-.552.236-.24.42-.524.553-.849.133-.326.199-.69.199-1.093V11.5a2.93 2.93 0 0 0-.199-1.093 2.448 2.448 0 0 0-1.408-1.421 2.984 2.984 0 0 0-1.105-.199h-1.53v5.426M7 7h3.511c.702 0 1.348.113 1.935.341a4.566 4.566 0 0 1 1.516.944c.425.404.753.877.984 1.421.232.545.347 1.134.347 1.768v.026a4.51 4.51 0 0 1-.347 1.775 4.17 4.17 0 0 1-.984 1.426c-.424.404-.93.721-1.516.951a5.203 5.203 0 0 1-1.935.348H7m9-9h2.223l2.333 3.827L22.889 7H25v9h-2v-5.896l-2.444 3.827h-.111L18 10.104V16h-2V7z" fill="#FFF"/></svg>