<svg ti:v="1" width="16" height="16" viewBox="0 0 16 16" xmlns="http://www.w3.org/2000/svg" xmlns:ti="urn:schemas-jetbrains-com:tisvg"><rect id="frame" width="16" height="16" fill="none"/><linearGradient id="a" x1=".346" y1="-.692" x2=".598" y2="1.102"><stop offset="0" stop-color="#7866FF"/><stop offset=".023" stop-color="#7E64FD"/><stop offset=".195" stop-color="#AA55F2"/><stop offset=".349" stop-color="#C84CEB"/><stop offset=".48" stop-color="#DB44E8"/><stop offset=".57" stop-color="#E243E6"/><stop offset=".641" stop-color="#E858BC"/><stop offset=".818" stop-color="#F48E57"/><stop offset=".942" stop-color="#FBAF19"/><stop offset="1" stop-color="#FFBC00"/></linearGradient><path fill-rule="evenodd" d="M0 12.13l1.04 3.61 1.926.26h7.724l1.569-5.42L0 8.805v3.325z" fill="url(#a)"/><linearGradient id="b" x1=".684" y1=".9" x2=".368" y2=".086"><stop offset="0" stop-color="#7866FF"/><stop offset=".202" stop-color="#955CF7"/><stop offset=".64" stop-color="#E243E6"/><stop offset=".968" stop-color="#FFBC00"/><stop offset="1" stop-color="#FFBC00"/></linearGradient><path fill-rule="evenodd" d="M11.347 0L9.86.38 8.539 0H4.786L2.42 8.66 16 10.727V4.052L15.407 0h-4.06z" fill="url(#b)"/><linearGradient id="c" x1=".361" y1="1.061" x2=".519" y2=".427"><stop offset="0" stop-color="#E243E6"/><stop offset=".118" stop-color="#E243E6"/><stop offset=".211" stop-color="#C74CEB"/><stop offset=".338" stop-color="#AA54F2"/><stop offset=".472" stop-color="#955DF7"/><stop offset=".618" stop-color="#8562FB"/><stop offset=".781" stop-color="#7B64FD"/><stop offset="1" stop-color="#7866FF"/></linearGradient><path fill-rule="evenodd" d="M0 3.891v5.047L11.719 12.2 16 11.13V6.323L5.599 2.72 0 3.891z" fill="url(#c)"/><path fill-rule="evenodd" d="M1 15h14V1H1v14z" fill="#FFF" opacity=".071"/><path fill-rule="evenodd" d="M2 14h12V2H2v12z"/><linearGradient id="d" x1=".219" y1="-1.074" x2=".519" y2="1.557"><stop offset="0" stop-color="#7866FF" stop-opacity=".204"/><stop offset=".023" stop-color="#7E64FD" stop-opacity=".204"/><stop offset=".195" stop-color="#AA55F2" stop-opacity=".204"/><stop offset=".349" stop-color="#C84CEB" stop-opacity=".204"/><stop offset=".48" stop-color="#DB44E8" stop-opacity=".204"/><stop offset=".57" stop-color="#E243E6" stop-opacity=".204"/><stop offset=".641" stop-color="#E858BC" stop-opacity=".204"/><stop offset=".818" stop-color="#F48E57" stop-opacity=".204"/><stop offset=".942" stop-color="#FBAF19" stop-opacity=".204"/><stop offset="1" stop-color="#FFBC00" stop-opacity=".204"/></linearGradient><path fill-rule="evenodd" d="M2 14h9.269l.99-3.42L2 9.095V14z" fill="url(#d)"/><linearGradient id="e" x1=".802" y1=".909" x2=".431" y2="-.127"><stop offset="0" stop-color="#7866FF" stop-opacity=".204"/><stop offset=".202" stop-color="#955CF7" stop-opacity=".204"/><stop offset=".64" stop-color="#E243E6" stop-opacity=".204"/><stop offset=".968" stop-color="#FFBC00" stop-opacity=".204"/><stop offset="1" stop-color="#FFBC00" stop-opacity=".204"/></linearGradient><path fill-rule="evenodd" d="M4.24 2L2.42 8.66 14 10.423V2H4.24z" fill="url(#e)"/><linearGradient id="f" x1=".314" y1="1.061" x2=".526" y2=".427"><stop offset="0" stop-color="#E243E6" stop-opacity=".204"/><stop offset=".118" stop-color="#E243E6" stop-opacity=".204"/><stop offset=".211" stop-color="#C74CEB" stop-opacity=".204"/><stop offset=".338" stop-color="#AA54F2" stop-opacity=".204"/><stop offset=".472" stop-color="#955DF7" stop-opacity=".204"/><stop offset=".618" stop-color="#8562FB" stop-opacity=".204"/><stop offset=".781" stop-color="#7B64FD" stop-opacity=".204"/><stop offset="1" stop-color="#7866FF" stop-opacity=".204"/></linearGradient><path fill-rule="evenodd" d="M2 3.473v6.022l9.719 2.705L14 11.63v-6L5.599 2.72 2 3.473z" fill="url(#f)"/><path fill-rule="evenodd" d="M7 13H3v-1h4v1z" fill="#FFF"/><path fill-rule="evenodd" d="M8 8h1.079V4.758l1.393 2.114h.029l1.406-2.136V8H13V3h-1.186l-1.313 2.114L9.186 3H8m-3.868.993v3.014h.843c.925 0 1.55-.607 1.55-1.492V5.5c0-.886-.625-1.507-1.55-1.507M3 3h1.888C6.433 3 7.5 4.078 7.5 5.485V5.5C7.5 6.907 6.433 8 4.888 8H3V3z" fill="#FFF"/></svg>