<svg ti:v="1" width="16" height="16" viewBox="0 0 16 16" xmlns="http://www.w3.org/2000/svg" xmlns:ti="urn:schemas-jetbrains-com:tisvg"><rect id="frame" width="16" height="16" fill="none"/><linearGradient id="a" x1=".5" y1="0" x2=".5" y2=".994"><stop offset="0" stop-color="#4473C8"/><stop offset="1" stop-color="#003F6D"/></linearGradient><path fill-rule="evenodd" d="M1 8a7 7 0 1 0 14 0A7 7 0 1 0 1 8z" fill="url(#a)"/><linearGradient id="b" x1=".5" y1=".007" x2=".5" y2="1"><stop offset="0" stop-color="#F0F4FB"/><stop offset="1" stop-color="#64A3FF"/></linearGradient><path fill-rule="evenodd" d="M2 8a6 6 0 0 0 12 0A6 6 0 0 0 2 8z" fill="url(#b)"/><path fill-rule="evenodd" d="M10.775 5.436a1.924 1.924 0 0 0-.483-.687 2.708 2.708 0 0 0-.891-.534C9.034 4.072 8.574 4 8.023 4c-.427 0-.812.069-1.158.204-.345.135-.64.325-.884.566a2.547 2.547 0 0 0-.57.858c-.136.33-.208.694-.216 1.089h1.711c0-.198.023-.383.07-.555.046-.172.117-.323.215-.451.097-.129.221-.231.373-.308.15-.077.331-.115.54-.115.311 0 .552.081.727.242.174.161.262.41.262.748a.874.874 0 0 1-.11.495 1.486 1.486 0 0 1-.32.362 6.564 6.564 0 0 1-.431.33 2.922 2.922 0 0 0-.442.391c-.14.15-.261.332-.366.545A2.005 2.005 0 0 0 7.261 9h1.612c.04-.103.09-.199.156-.281.12-.146.259-.276.414-.39.154-.114.319-.227.494-.341a2.158 2.158 0 0 0 .838-.995c.096-.228.145-.518.145-.87 0-.212-.049-.441-.145-.687zM8.866 12h-1.76v-1.726h1.76" fill="#003987"/></svg>