<svg ti:v="1" width="16" height="16" viewBox="0 0 16 16" xmlns="http://www.w3.org/2000/svg" xmlns:ti="urn:schemas-jetbrains-com:tisvg"><rect id="frame" width="16" height="16" fill="none"/><g fill-rule="evenodd"><path d="M14 8.5a5.5 5.5 0 1 1-11 0 5.5 5.5 0 0 1 11 0z" fill="#F4F4F4"/><path d="M11.95 9a3.49 3.49 0 0 1-3.45 3A3.5 3.5 0 0 1 5 8.5a3.489 3.489 0 0 1 3-3.449v-1C5.754 4.302 4 6.186 4 8.5A4.5 4.5 0 0 0 8.5 13c2.314 0 4.198-1.753 4.45-4h-1z" fill="#313131"/><path d="M12 8.5a3.5 3.5 0 1 1-7 0 3.5 3.5 0 0 1 7 0z" fill="#EBEBEB"/><path d="M8 9V2h1c3.309 0 6 2.691 6 6v1H8z" fill="#F4F4F4"/><path d="M9 3v5h5a5 5 0 0 0-5-5z" fill="#313131"/></g></svg>