<svg xmlns="http://www.w3.org/2000/svg" width="16" height="16" viewBox="0 0 16 16"><rect id="frame" width="16" height="16" fill="none"/><g fill="none" fill-rule="evenodd"><path fill="#F98B9E" fill-opacity=".6" d="M7 14.93A7.002 7.002 0 0 1 8 1a7.001 7.001 0 0 1 6.935 6.04A2.414 2.414 0 0 0 14.5 7h-2A2.502 2.502 0 0 0 10 9.5c0 .593.229 1.101.566 1.5H9c-1.103 0-2 .898-2 2v1.93z"/><path fill="#40B6E0" d="M12.5 10a.507.507 0 0 1-.5-.5c0-.271.229-.5.5-.5h2c.271 0 .5.229.5.5s-.229.5-.5.5h-2zm2 1c.825 0 1.5-.675 1.5-1.5S15.325 8 14.5 8h-2c-.825 0-1.5.675-1.5 1.5 0 .669.577 1.232 1.186 1.424L11.063 12H9c-.55 0-1 .45-1 1v3h1v-2h1v2h1v-2h1v2h1v-2h1v2h1v-3c0-.55-.45-1-1-1h-1.812l1.093-1H14.5z"/><path fill="#231F20" fill-opacity=".7" d="M10.942 7.546c-.095-.273-.34-.546-.96-.546C8.959 7 9 7.686 9 8v3H8V8c-.001-.463-.05-1-1-1s-.95.766-1 1c-.033.156-.033 1.156 0 3H5V6h1v.3c.265-.2.632-.3 1.1-.3.844 0 1.184.194 1.499.6.059-.098.513-.6 1.383-.6 1.069 0 1.595.523 1.834 1.095a2.495 2.495 0 0 0-.874.45z"/></g></svg>