<svg xmlns="http://www.w3.org/2000/svg" width="16" height="16" viewBox="0 0 16 16">
  <path fill="#F26522" fill-opacity=".7" fill-rule="evenodd" d="M11.5,2 L13.5,2 C13.771,2 14,2.229 14,2.5 C14,2.771 13.771,3 13.5,3 L11.5,3 C11.229,3 11,2.771 11,2.5 C11,2.229 11.229,2 11.5,2 Z M13.5,4 C14.325,4 15,3.325 15,2.5 C15,1.675 14.325,1 13.5,1 L11.5,1 C10.675,1 10,1.675 10,2.5 C10,3.18 10.461,3.75 11.083,3.934 L6.504,10 L2,10 C1.45,10 1,10.45 1,11 L1,13 L1,15 L2,15 L2,13 L3,13 L3,15 L4.0021,15 L4,13 L5,13 L5,15 L6,15 L6,13 L7,13 L7,15 L8,15 L8,13 L9,13 L9,15 L10,15 L10,13 L11,13 L11,15 L12,15 L12,13 L13,13 L13,15 L14,15 L14,13 L14,11 C14,10.45 13.55,10 13,10 L8.334,10 L12.968,4 L13.5,4 Z"/>
</svg>
