<svg xmlns="http://www.w3.org/2000/svg" width="16" height="16" viewBox="0 0 16 16">
  <g fill="none" fill-rule="evenodd">
    <path fill="#9AA7B0" fill-opacity=".8" d="M15.0004,7 L12.5,7 C11.121,7 10,8.121 10,9.5 C10,10.093 10.229,10.601 10.566,11 L9,11 C7.897,11 7,11.898 7,13 L1.0004,13 L1.0004,2.051 C1.0004,2.023 1.0234,2 1.0504,2 L4.9784,2 C5.5324,2 6.3044,2.32 6.6964,2.711 L7.9844,4 L15.0004,4 L15.0004,7 Z"/>
    <path fill="#40B6E0" d="M12.5,10 C12.229,10 12,9.771 12,9.5 C12,9.229 12.229,9 12.5,9 L14.5,9 C14.771,9 15,9.229 15,9.5 C15,9.771 14.771,10 14.5,10 L12.5,10 Z M14.5,11 C15.325,11 16,10.325 16,9.5 C16,8.675 15.325,8 14.5,8 L12.5,8 C11.675,8 11,8.675 11,9.5 C11,10.169 11.577,10.732 12.186,10.924 L11.063,12 L9,12 C8.45,12 8,12.45 8,13 L8,14 L8,16 L9,16 L9,14 L10,14 L10,16 L11,16 L11,14 L12,14 L12,16 L13,16 L13,14 L14,14 L14,16 L15,16 L15,14 L15,13 C15,12.45 14.55,12 14,12 L12.188,12 L13.281,11 L14.5,11 Z"/>
  </g>
</svg>
