<svg xmlns="http://www.w3.org/2000/svg" width="16" height="16" viewBox="0 0 16 16"><rect id="frame" width="16" height="16" fill="none"/><path fill="#F26522" fill-opacity=".7" fill-rule="evenodd" d="M11.5 2h2c.271 0 .5.229.5.5s-.229.5-.5.5h-2a.507.507 0 0 1-.5-.5c0-.271.229-.5.5-.5zm2 2c.825 0 1.5-.675 1.5-1.5S14.325 1 13.5 1h-2c-.825 0-1.5.675-1.5 1.5 0 .68.461 1.25 1.083 1.434L6.504 10H2c-.55 0-1 .45-1 1v4h1v-2h1v2h1.002L4 13h1v2h1v-2h1v2h1v-2h1v2h1v-2h1v2h1v-2h1v2h1v-4c0-.55-.45-1-1-1H8.334l4.634-6h.532z"/></svg>