<svg xmlns="http://www.w3.org/2000/svg" xmlns:xlink="http://www.w3.org/1999/xlink" width="16" height="16" viewBox="0 0 16 16"><rect id="frame" width="16" height="16" fill="none"/><defs><path id="a" d="M13.5 10c-.276 0-.5.312-.5.696v2.608c0 .384.224.696.5.696s.5-.312.5-.696v-2.608c0-.384-.224-.696-.5-.696zm0-1a1.5 1.5 0 0 1 1.5 1.5V13a1.5 1.5 0 0 1-3 0v-2.5A1.5 1.5 0 0 1 13.5 9z"/></defs><g fill="none" fill-rule="evenodd"><path fill="#9AA7B0" fill-opacity=".8" d="M11.5 2h2c.271 0 .5.229.5.5s-.229.5-.5.5h-2a.507.507 0 0 1-.5-.5c0-.271.229-.5.5-.5zm-.5 8l.001 1H10v4H9v-2H8v2H7v-2H6v2H5v-2H4l.002 2H3v-2H2v2H1v-4c0-.55.45-1 1-1h4.504l4.579-6.066A1.503 1.503 0 0 1 10 2.5c0-.825.675-1.5 1.5-1.5h2c.825 0 1.5.675 1.5 1.5S14.325 4 13.5 4h-.532l-4.634 6h2.667z"/><path fill="#40B6E0" d="M11 12h5v4h-5z"/><use fill="#40B6E0" xlink:href="#a"/></g></svg>