<svg xmlns="http://www.w3.org/2000/svg" width="16" height="16" viewBox="0 0 16 16"><rect id="frame" width="16" height="16" fill="none"/><g fill="none" fill-rule="evenodd"><path fill="#9AA7B0" fill-opacity=".8" d="M7 1L3 5h4z"/><path fill="#9AA7B0" fill-opacity=".8" d="M8 1v5H3v2h10V1z"/><path fill="#F26522" fill-opacity=".7" d="M1 16h15V9H1z"/><path fill="#231F20" fill-opacity=".7" d="M2 13v-1l3-2v1l-2.2 1.5L5 14v1z"/><path fill="#231F20" fill-opacity=".7" d="M6 14l2.2-1.5L6 11v-1l3 2v1l-3 2z"/><path fill="#231F20" fill-opacity=".7" d="M11 14h1v1h-2v-5h2v1h-1v1h1v1h-1v1z"/><path fill="#231F20" fill-opacity=".7" d="M14 14h1v1h-2v-5h2v1h-1v1h1v1h-1v1z"/></g></svg>