<svg xmlns="http://www.w3.org/2000/svg" width="16" height="16" viewBox="0 0 16 16"><rect id="frame" width="16" height="16" fill="none"/><g fill="none" fill-rule="evenodd"><path fill="#F26522" fill-opacity=".7" d="M9.683 9a3.598 3.598 0 0 0-.365.318c-1.562 1.563-1.403 4.253.354 6.01.258.26.537.483.83.672H1V9h8.683zm4.815 0H16v1.501A5.05 5.05 0 0 0 14.498 9zM16 15.32V16h-.68a3.598 3.598 0 0 0 .68-.68z"/><path fill="#231F20" fill-opacity=".7" d="M3 13v-1l3-2v1l-2.2 1.5L6 14v1z"/><path fill="#935E2D" fill-opacity=".7" d="M9.657 10.188c-1.128 1.4-.726 3.196.617 4.538 1.342 1.343 3.138 1.745 4.538.617l-5.155-5.155zm5.687 4.624c1.128-1.4.725-3.196-.617-4.538-1.343-1.343-3.14-1.746-4.54-.617l5.157 5.155z"/><path fill="#9AA7B0" fill-opacity=".8" d="M7 1L3 5h4z"/><path fill="#9AA7B0" fill-opacity=".8" d="M8 1v5H3v2h10V1z"/></g></svg>