<svg xmlns="http://www.w3.org/2000/svg" width="16" height="16" viewBox="0 0 16 16"><rect id="frame" width="16" height="16" fill="none"/><g fill="none" fill-rule="evenodd"><path fill="#F98B9E" fill-opacity=".6" d="M6 11.5a5.5 5.5 0 0 1 8.955-4.277 7 7 0 1 0-7.732 7.732A5.476 5.476 0 0 1 6 11.5"/><path fill="#9AA7B0" fill-opacity=".8" d="M16 11.5a4.5 4.5 0 1 1-9 0 4.5 4.5 0 0 1 9 0"/><path fill="#231F20" fill-opacity=".7" d="M11 13.148v-1.4c-1.184-.261-1.733-.703-1.733-1.407v-.015c0-.668.707-1.183 1.733-1.3V8h1v1.023a4.143 4.143 0 0 1 1.8.574l-.438.625A3.64 3.64 0 0 0 12 9.732v1.434c1.366.245 2 .731 2 1.446 0 .786-.822 1.31-2 1.38V15h-1v-1.044a4.638 4.638 0 0 1-2-.734l.467-.702c.491.324.968.534 1.533.628zm1 .056c.737-.018 1.137-.13 1.137-.537 0-.392-.176-.563-1.137-.741v1.278zm-1-3.491c-.586.06-.9.254-.9.613 0 .338.155.5.9.662V9.713z"/></g></svg>