<svg xmlns="http://www.w3.org/2000/svg" width="16" height="16" viewBox="0 0 16 16"><rect id="frame" width="16" height="16" fill="none"/><g fill="none" fill-rule="evenodd"><path fill="#F4AF3D" fill-opacity=".6" d="M14.884 9.276c-1.742-1.376-4.13-1.393-5.566.042-1.435 1.436-1.418 3.824-.042 5.566a7 7 0 1 1 5.608-5.608z"/><path fill="#231F20" fill-opacity=".7" d="M9.707 2.999l-.706.709L10.293 5H5v1h5.294L9 7.295l.706.706 2.479-2.499z"/><path fill="#231F20" fill-opacity=".7" d="M8.784 10H5.707L7 11.293l-.707.709-2.478-2.503L6.293 7 7 7.708 5.707 9.002h3.974a3.598 3.598 0 0 0-.897.998z"/><path fill="#935E2D" fill-opacity=".7" d="M9.657 10.188c-1.128 1.4-.726 3.196.617 4.538 1.342 1.343 3.138 1.745 4.538.617l-5.155-5.155zm5.687 4.624c1.128-1.4.725-3.196-.617-4.538-1.343-1.343-3.14-1.746-4.54-.617l5.157 5.155z"/></g></svg>