<svg xmlns="http://www.w3.org/2000/svg" width="16" height="16" viewBox="0 0 16 16"><rect id="frame" width="16" height="16" fill="none"/><g fill="none" fill-rule="evenodd"><path fill="#935E2D" fill-opacity=".7" d="M15.344 14.72l-5.157-5.074c1.401-1.11 3.197-.714 4.54.608 1.342 1.32 1.745 3.087.617 4.465zm-.53.522c-1.401 1.11-3.198.714-4.54-.607-1.342-1.32-1.745-3.088-.617-4.466l5.156 5.073z"/><path fill="#40B6E0" fill-opacity=".6" d="M14.884 9.276c-1.742-1.376-4.13-1.393-5.566.042-1.435 1.436-1.418 3.824-.042 5.566a7 7 0 1 1 5.608-5.608z"/><path fill="#231F20" fill-opacity=".7" d="M8.37 10.989c-.118.007-.24.011-.368.011A2.998 2.998 0 0 1 5 8c0-1.642 1.34-3 3.098-3 1.19 0 1.731.27 2.418.837l-.616.717C9.548 6.184 8.948 6 8.1 6 6.971 6 6 6.712 6 8c0 1.28 1.061 2.022 2.1 2 .28-.007.52-.033.733-.078a3.69 3.69 0 0 0-.463 1.067z"/></g></svg>