<svg xmlns="http://www.w3.org/2000/svg" width="16" height="16" viewBox="0 0 16 16"><rect id="frame" width="16" height="16" fill="none"/><g fill="none" fill-rule="evenodd"><path fill="#40B6E0" fill-opacity=".6" d="M14.777 6.24a3.5 3.5 0 0 0-3.277 6.132v1.692a7 7 0 1 1 3.277-7.823z"/><path fill="#9AA7B0" d="M12.667 11.854A2.496 2.496 0 0 1 11 9.5C11 8.12 12.12 7 13.5 7S16 8.12 16 9.5a2.496 2.496 0 0 1-1.667 2.354V13.5H16V15h-1.667v1h-1.666v-4.146zM14.333 9.5a.836.836 0 0 0-.833-.833.836.836 0 0 0-.833.833c0 .458.375.833.833.833a.836.836 0 0 0 .833-.833z"/><path fill="#231F20" fill-opacity=".7" d="M10.006 9.29a3.555 3.555 0 0 0 .114 1.122c-.513.365-1.162.588-2.118.588A2.998 2.998 0 0 1 5 8c0-1.642 1.34-3 3.098-3 1.19 0 1.731.27 2.418.837l-.616.717C9.548 6.184 8.948 6 8.1 6 6.971 6 6 6.712 6 8c0 1.28 1.061 2.022 2.1 2 .928-.022 1.43-.258 1.9-.717l.006.007z"/></g></svg>