<svg xmlns="http://www.w3.org/2000/svg" width="16" height="16" viewBox="0 0 16 16"><rect id="frame" width="16" height="16" fill="none"/><g fill="none" fill-rule="evenodd"><path fill="#935E2D" fill-opacity=".7" d="M9.06 8L3.374 2.313C6.176.057 9.768.863 12.454 3.548c1.33 1.33 2.198 2.883 2.462 4.452H9.06zM6 14.251a9.514 9.514 0 0 1-2.453-1.798C.865 9.77.057 6.177 2.313 3.375L6.938 8H6v6.251z"/><path fill="#9AA7B0" d="M7 9h9v7H7V9zm1 1v5h7v-5H8z"/><path fill="#9AA7B0" fill-opacity=".6" d="M10 11v-1h1v1h4v1h-4v1h4v1h-4v1h-1v-1H8v-1h2v-1H8v-1h2z"/></g></svg>