<svg xmlns="http://www.w3.org/2000/svg" width="16" height="16" viewBox="0 0 16 16"><rect id="frame" width="16" height="16" fill="none"/><g fill="none" fill-rule="evenodd"><path fill="#F98B9E" fill-opacity=".6" d="M14.85 9.452a4 4 0 0 0-5.397 5.397 7 7 0 1 1 5.397-5.397z"/><circle cx="13" cy="13" r="3" fill="#62B543"/><path fill="#231F20" fill-opacity=".7" d="M11.994 9.128c-.35.09-.683.228-.99.404V8c0-.26 0-1-1.022-1C8.959 7 9 7.686 9 8v3H8V8c-.001-.463-.05-1-1-1s-.95.766-1 1c-.033.156-.033 1.156 0 3H5V6h1v.3c.265-.2.632-.3 1.1-.3.844 0 1.184.194 1.499.6.059-.098.513-.6 1.383-.6 1.653 0 2.01 1.251 2.01 2l.002 1.128z"/></g></svg>