<svg xmlns="http://www.w3.org/2000/svg" width="16" height="16" viewBox="0 0 16 16"><rect id="frame" width="16" height="16" fill="none"/><g fill="none" fill-rule="evenodd"><path fill="#9AA7B0" fill-opacity=".8" d="M8.772 8.181A25.59 25.59 0 0 1 8 8.193c-3.866 0-7-.863-7-1.927V4.67c1.485.883 4.065 1.468 7 1.468 2.935 0 5.515-.585 7-1.468v1.596c0 .397-.437.767-1.186 1.073A4.988 4.988 0 0 0 12 7a4.98 4.98 0 0 0-3.228 1.181zm-1.749 3.333C3.62 11.39 1 10.624 1 9.7V8.01c1.431.852 3.88 1.425 6.684 1.466a4.969 4.969 0 0 0-.66 2.04zM8 15c-3.866 0-7-.863-7-1.927v-1.725c1.324.789 3.52 1.339 6.063 1.448.131.818.46 1.57.937 2.204zM8 4.853c-3.866 0-7-.862-7-1.926S4.134 1 8 1s7 .863 7 1.927-3.134 1.926-7 1.926z"/><circle cx="12" cy="12" r="4" fill="#F4AF3D" fill-opacity=".7"/></g></svg>