<svg xmlns="http://www.w3.org/2000/svg" width="16" height="16" viewBox="0 0 16 16"><rect id="frame" width="16" height="16" fill="none"/><g fill="none" fill-rule="evenodd"><path fill="#9AA7B0" fill-opacity=".8" d="M15 8.5h-.854c.31-.12.596-.25.854-.387V8.5zm-9 2.956c-2.891-.225-5-.926-5-1.757V8.113c1.18.629 2.946 1.091 5 1.276v2.067zm0 3.464c-2.891-.237-5-.974-5-1.847v-1.62c1.18.628 2.946 1.09 5 1.275v2.192zM1 4.773c1.548.825 4.106 1.365 7 1.365s5.452-.54 7-1.365v1.493c0 1.064-3.134 1.927-7 1.927S1 7.33 1 6.266V4.773zm7 .08c-3.866 0-7-.862-7-1.926S4.134 1 8 1s7 .863 7 1.927-3.134 1.926-7 1.926z"/><path fill="#9AA7B0" d="M7 9h9v7H7V9zm1 1v5h7v-5H8z"/><path fill="#62B543" d="M9 11h5v3H9z"/></g></svg>