<svg xmlns="http://www.w3.org/2000/svg" width="16" height="16" viewBox="0 0 16 16"><rect id="frame" width="16" height="16" fill="none"/><g fill="none" fill-rule="evenodd"><path fill="#F4AF3D" fill-opacity=".6" d="M14.777 6.24a3.5 3.5 0 0 0-3.277 6.132v1.692a7 7 0 1 1 3.277-7.823z"/><path fill="#9AA7B0" d="M12.667 11.854A2.496 2.496 0 0 1 11 9.5C11 8.12 12.12 7 13.5 7S16 8.12 16 9.5a2.496 2.496 0 0 1-1.667 2.354V13.5H16V15h-1.667v1h-1.666v-4.146zM14.333 9.5a.836.836 0 0 0-.833-.833.836.836 0 0 0-.833.833c0 .458.375.833.833.833a.836.836 0 0 0 .833-.833z"/><path fill="#231F20" fill-opacity=".7" d="M7.131 11C6.075 11 5 10.516 5 9.35v-.022c0-1.199.998-1.937 2.439-1.937.726 0 1.055.199 1.561.342v-.198C9 6.512 8.561 6 7.494 6c-.671 0-1.199.16-1.727.402l-.253-.893C6.141 5.223 6.567 5 7.582 5c1.015 0 1.462.406 1.88.824.385.385.54.974.54 1.7V11H9v-.858c-.396.517-.868.858-1.869.858zm.165-.9c1.045 0 1.743-.486 1.704-1.19V8.6c-.4-.2-.832-.482-1.473-.482C6.689 8.118 6 8.58 6 9.295v.022c0 .495.526.783 1.296.783z"/></g></svg>