<svg xmlns="http://www.w3.org/2000/svg" width="16" height="16" viewBox="0 0 16 16"><rect id="frame" width="16" height="16" fill="none"/><g fill="none" fill-rule="evenodd"><path fill="#9AA7B0" d="M3.01 8.332a5 5 0 0 1 5.32-5.32c-.143.307-.245.64-.295.988H8a4 4 0 0 0-4 4.035c-.349.05-.681.152-.99.297zm4.658 4.657c.145-.308.247-.64.297-.99L8 12a4 4 0 0 0 4-4.035c.349-.05.681-.152.99-.297a5 5 0 0 1-5.32 5.32z"/><circle cx="11.5" cy="4.5" r="3.5" fill="#F4AF3D" fill-opacity=".7"/><circle cx="4.5" cy="11.5" r="3.5" fill="#F4AF3D" fill-opacity=".7"/></g></svg>