<svg xmlns="http://www.w3.org/2000/svg" width="16" height="16" viewBox="0 0 16 16"><rect id="frame" width="16" height="16" fill="none"/><g fill="none" fill-rule="evenodd"><path fill="#9AA7B0" d="M12.667 11.854A2.496 2.496 0 0 1 11 9.5C11 8.12 12.12 7 13.5 7S16 8.12 16 9.5a2.496 2.496 0 0 1-1.667 2.354V13.5H16V15h-1.667v1h-1.666v-4.146zM14.333 9.5a.836.836 0 0 0-.833-.833.836.836 0 0 0-.833.833c0 .458.375.833.833.833a.836.836 0 0 0 .833-.833z"/><path fill="#9AA7B0" d="M11.029 11.979a4.978 4.978 0 0 1-3.36 1.01c.144-.308.246-.64.296-.99L8 12c.913 0 1.755-.306 2.428-.821.162.295.365.564.6.8zM3.01 8.332a5 5 0 0 1 5.32-5.32c-.144.307-.246.64-.296.988H8a4 4 0 0 0-4 4.035c-.349.05-.681.152-.99.297z"/><path fill="#F4AF3D" fill-opacity=".7" d="M10.423 7.831A3.502 3.502 0 0 1 11.5 1a3.5 3.5 0 0 1 3.077 5.169 3.5 3.5 0 0 0-4.154 1.662z"/><circle cx="4.5" cy="11.5" r="3.5" fill="#F4AF3D" fill-opacity=".7"/></g></svg>