<svg width="16" height="16" viewBox="0 0 16 16" fill="none" xmlns="http://www.w3.org/2000/svg">
<path d="M16 0H0V16H16V0Z" fill="#DD1265"/>
<path d="M15 1H1V15H15V1Z" fill="black"/>
<path d="M9 12H3V13H9V12Z" fill="white"/>
<path d="M3 3H5.4C6.1 3 6.7 3.2 7 3.6C7.3 3.9 7.5 4.4 7.5 5C7.5 6 7 6.6 6.3 6.9L7.6 9H6.3L5.1 7.1H4.2V9H3V3ZM5.4 5.9C6 5.9 6.3 5.6 6.3 5C6.3 4.4 5.9 4.1 5.4 4.1H4.2V5.8L5.4 5.9Z" fill="white"/>
<path d="M8.19995 3H10.3C12 3 13.2 4.32014 13.2 6.04648C13.2 7.77283 12 9.09297 10.3 9.09297H8.19995V3ZM9.39995 4.21859V7.87437H10.3C11.3 7.87437 11.9 7.16353 11.9 6.04648C11.9 4.92944 11.2 4.21859 10.3 4.21859H9.39995Z" fill="white"/>
</svg>
