<svg width="16" height="16" viewBox="0 0 16 16" xmlns="http://www.w3.org/2000/svg">
    <g clip-path="url(#clip0)">
        <path d="M16 6.23335L4.78336 0L12.3 11.1666L13.8334 10.15L16 6.23335Z" fill="url(#paint0_linear)"/>
        <path d="M11.5333 3.68334L10.1167 0.25L7.01669 3.31666L8.28334 14.4166L11.3 16L16 13.25L11.5333 3.68334Z" fill="url(#paint1_linear)"/>
        <path d="M4.78334 0L0 3.21667L1.78333 14.2167L6.36665 15.9667L12.3 11.1666L4.78334 0Z" fill="url(#paint2_linear)"/>
        <path d="M13 3H3V13H13V3Z" fill="url(#paint3_linear)"/>
        <path d="M8 11.5H4V12H8V11.5Z" fill="white"/>
        <path d="M4.01751 4H5.82115C6.329 4 6.6967 4.14009 6.9769 4.40275C7.20455 4.6304 7.3096 4.92809 7.3096 5.2958V5.31335C7.3096 5.62855 7.23955 5.8912 7.08195 6.10135C6.92435 6.29395 6.7142 6.45155 6.46905 6.5391L7.4322 7.94H6.41655L5.5935 6.73175H4.87556V7.94H4V4H4.01751ZM5.7686 5.9087C5.97875 5.9087 6.15385 5.8562 6.25895 5.7511C6.3815 5.64605 6.43405 5.50595 6.43405 5.34835V5.33085C6.43405 5.1382 6.3815 4.99814 6.25895 4.91058C6.13635 4.82302 5.97875 4.77049 5.7511 4.77049H4.89306V5.9087H5.7686Z" fill="white"/>
        <path d="M8 4H9.48545C10.6852 4 11.5422 4.85699 11.5422 5.9425C11.5422 7.028 10.6852 7.885 9.48545 7.885H8V4ZM8.857 4.85699V7.1423H9.54255C10.2282 7.1423 10.6852 6.6852 10.6852 5.99965C10.6852 5.31405 10.2282 4.85699 9.54255 4.85699H8.857Z" fill="white"/>
    </g>
    <defs>
        <linearGradient id="paint0_linear" x1="14.9714" y1="9.16595" x2="2.63823" y2="2.0884" gradientUnits="userSpaceOnUse">
            <stop offset="0" stop-color="#DD1265"/>
            <stop offset="0.4834" stop-color="#DD1265"/>
            <stop offset="0.9424" stop-color="#FDB60D"/>
        </linearGradient>
        <linearGradient id="paint1_linear" x1="7.63789" y1="1.3971" x2="12.5268" y2="14.8971" gradientUnits="userSpaceOnUse">
            <stop offset="0.1392" stop-color="#087CFA"/>
            <stop offset="0.4757" stop-color="#DD1265"/>
            <stop offset="0.9581" stop-color="#087CFA"/>
        </linearGradient>
        <linearGradient id="paint2_linear" x1="3.97603" y1="1.81342" x2="7.58715" y2="14.6468" gradientUnits="userSpaceOnUse">
            <stop offset="0.2775" stop-color="#DD1265"/>
            <stop offset="0.9684" stop-color="#FDB60D"/>
        </linearGradient>
        <linearGradient id="paint3_linear" x1="7.98665" y1="0.5695" x2="7.98665" y2="9.5375" gradientUnits="userSpaceOnUse">
            <stop offset="0.0842986" stop-color="#878585"/>
            <stop offset="0.5377"/>
        </linearGradient>
        <clipPath id="clip0">
            <rect width="16" height="16" fill="white"/>
        </clipPath>
    </defs>
</svg>