<svg ti:v="1" width="16" height="16" viewBox="0 0 16 16" xmlns="http://www.w3.org/2000/svg" xmlns:ti="urn:schemas-jetbrains-com:tisvg"><rect id="frame" width="16" height="16" fill="none"/><g fill-rule="evenodd"><path d="M15 15H1V1h14v14z" fill="#F4F4F4"/><path d="M10.683 6.915l-.866-.5 2.5-4.33.866.5-2.5 4.33z" fill="#313131"/><path d="M13.916 12.317l-1.417-.818 1.415-.817-.5-.866-1.414.816V9h-1v1.633l-1.414-.816-.5.866 1.413.816-1.415.817.5.866L11 12.365V14h1v-1.634l1.416.817.5-.866z" fill="#313131"/><path d="M7 4H5V2H4v2H2v1h2v2h1V5h2V4z" fill="#313131"/><path d="M2 12h5v-1H2v1z" fill="#313131"/></g></svg>