<svg ti:v="1" width="16" height="16" viewBox="0 0 16 16" xmlns="http://www.w3.org/2000/svg" xmlns:ti="urn:schemas-jetbrains-com:tisvg"><rect id="frame" width="16" height="16" fill="none"/><g fill-rule="evenodd"><path d="M4.586 13L0 8.414V6.586L4.586 2H16v11H4.586z" fill="#242424"/><path d="M15 3H5L1 7v1l4 4h10V3z" fill="#C4C4C4"/><path d="M5 3L1 7v1l4-4h10V3H5z" fill="#C4C4C4"/><path d="M5 7.5a1 1 0 1 1-2 0 1 1 0 0 1 2 0z" fill="#282828"/><path d="M12 7h-2v2h2m1-5v6h-3L9 9V7l1-1h2V4M8 4H7v1h1m0 5H7V6h1v4z" fill="#282828"/></g></svg>