<svg ti:v="1" width="16" height="16" viewBox="0 0 16 16" xmlns="http://www.w3.org/2000/svg" xmlns:ti="urn:schemas-jetbrains-com:tisvg"><rect id="frame" width="16" height="16" fill="none"/><linearGradient id="a" x1=".5" y1=".006" x2=".5" y2="1.001"><stop offset="0" stop-color="#7C6D47"/><stop offset="1" stop-color="#60492F"/></linearGradient><path fill-rule="evenodd" d="M2 15V1h7.414L14 5.586V15H2z" fill="url(#a)"/><linearGradient id="b" x1=".5" y1="0" x2=".5" y2=".998"><stop offset="0" stop-color="#E3D8BC"/><stop offset="1" stop-color="#E3CDB3"/></linearGradient><path fill-rule="evenodd" d="M9 2H3v12h10V6L9 2z" fill="url(#b)"/><linearGradient id="c" x1=".5" y1=".012" x2=".5" y2="1.007"><stop offset="0" stop-color="#FFF3D4"/><stop offset="1" stop-color="#FFF"/></linearGradient><path fill-rule="evenodd" d="M9 6V4H5v8h6V6H9z" fill="url(#c)"/><linearGradient id="d" x1=".5" y1="0" x2=".5" y2=".999"><stop offset="0" stop-color="#4D6791"/><stop offset="1" stop-color="#283851"/></linearGradient><path fill-rule="evenodd" d="M12.414 8L15 5.414V4h-1.586L16 1.414V0h-3.414L11 1.586V0H9.586L7 2.586V8h5.414z" fill="url(#d)"/><linearGradient id="e" x1=".5" y1=".021" x2=".5" y2="1.006"><stop offset="0" stop-color="#ABF0FF"/><stop offset=".994" stop-color="#60BDFF"/><stop offset="1" stop-color="#60BDFF"/></linearGradient><path fill-rule="evenodd" d="M10 1v3l3-3h2l-4 4h3l-2 2H8V3l2-2z" fill="url(#e)"/></svg>