<svg ti:v="1" width="16" height="16" viewBox="0 0 16 16" xmlns="http://www.w3.org/2000/svg" xmlns:ti="urn:schemas-jetbrains-com:tisvg"><rect id="frame" width="16" height="16" fill="none"/><g fill-rule="evenodd"><path d="M16 14H0V2h16v12z" fill="#F4F4F4"/><path d="M15 13H1V3h14v10z" fill="#313131"/><path d="M14 12H2V4h12v8z" fill="#EBEBEB"/><path d="M5 7H3V5h2v2z" fill="#313131"/><path d="M7 7H5v2h2V7z" fill="#313131"/><path d="M9 5H7v2h2V5z" fill="#313131"/><path d="M11 7H9v2h2V7z" fill="#313131"/><path d="M13 5h-2v2h2V5z" fill="#313131"/><path d="M5 11H3V9h2v2z" fill="#313131"/><path d="M9 9H7v2h2V9z" fill="#313131"/><path d="M13 9h-2v2h2V9z" fill="#313131"/></g></svg>