<svg ti:v="1" width="16" height="16" viewBox="0 0 16 16" xmlns="http://www.w3.org/2000/svg" xmlns:ti="urn:schemas-jetbrains-com:tisvg"><rect id="frame" width="16" height="16" fill="none"/><linearGradient id="a" x1=".5" y1="0" x2=".5" y2="1"><stop offset="0" stop-color="#566980"/><stop offset="1" stop-color="#2C3641"/></linearGradient><path fill-rule="evenodd" d="M16 14H0V2h16v12z" fill="url(#a)"/><path fill-rule="evenodd" d="M15 13H1V3h14v10z" fill="#FFF"/><linearGradient id="b" x1=".5" y1=".026" x2=".5" y2="1.013"><stop offset="0" stop-color="#EFD205"/><stop offset="1" stop-color="#F6E468"/></linearGradient><path fill-rule="evenodd" d="M14 12H2V4h12v8z" fill="url(#b)"/><path fill-rule="evenodd" d="M5 7H3V5h2v2z" fill="#00992B"/><path fill-rule="evenodd" d="M7 7H5v2h2V7z" fill="#00992B"/><path fill-rule="evenodd" d="M9 5H7v2h2V5z" fill="#00992B"/><path fill-rule="evenodd" d="M11 7H9v2h2V7z" fill="#00992B"/><path fill-rule="evenodd" d="M13 5h-2v2h2V5z" fill="#00992B"/><path fill-rule="evenodd" d="M5 11H3V9h2v2z" fill="#00992B"/><path fill-rule="evenodd" d="M9 9H7v2h2V9z" fill="#00992B"/><path fill-rule="evenodd" d="M13 9h-2v2h2V9z" fill="#00992B"/></svg>