<svg ti:v="1" width="16" height="16" viewBox="0 0 16 16" xmlns="http://www.w3.org/2000/svg" xmlns:ti="urn:schemas-jetbrains-com:tisvg"><rect id="frame" width="16" height="16" fill="none"/><linearGradient id="a" x1="0" y1=".5" x2="1" y2=".5"><stop offset="0" stop-color="#1095D6"/><stop offset="1" stop-color="#0088BA"/></linearGradient><path fill-rule="evenodd" d="M1 3v2H0v3h1v2h5V8h1V3H1z" fill="url(#a)"/><path fill-rule="evenodd" d="M4 8H2v1h2m1-5H2v1h3m0 2H1V6h4v1z" fill="#8CE8FF"/><linearGradient id="b" x1=".275" y1=".367" x2=".65" y2=".742"><stop offset="0" stop-color="#9C7632"/><stop offset="1" stop-color="#6D2020"/></linearGradient><path fill-rule="evenodd" d="M1.586 12c-.378.378-.586.88-.586 1.415 0 .533.208 1.035.586 1.413l.586.586c.378.378.879.586 1.414.586.534 0 1.036-.208 1.414-.586l5-5L6.586 7l-5 5z" fill="url(#b)"/><linearGradient id="c" x1=".317" y1=".38" x2=".621" y2=".683"><stop offset="0" stop-color="#FFE077"/><stop offset="1" stop-color="#D98C00"/></linearGradient><path fill-rule="evenodd" d="M2.293 12.707a.999.999 0 0 0 0 1.414l.586.586a.999.999 0 0 0 1.414 0l4.292-4.293-1.999-2-4.293 4.293z" fill="url(#c)"/><linearGradient id="d" x1=".5" y1=".013" x2=".5" y2="1"><stop offset="0" stop-color="#3B7380"/><stop offset="1" stop-color="#2B4C6D"/></linearGradient><path fill-rule="evenodd" d="M5 6.5a5.5 5.5 0 0 0 11 0 5.5 5.5 0 0 0-11 0z" fill="url(#d)"/><linearGradient id="e" x1=".5" y1=".006" x2=".5" y2="1"><stop offset="0" stop-color="#9ED3FF"/><stop offset="1" stop-color="#5AA3CF"/></linearGradient><path fill-rule="evenodd" d="M6 6.5a4.5 4.5 0 0 0 4.5 4.5 4.5 4.5 0 1 0 0-9A4.501 4.501 0 0 0 6 6.5z" fill="url(#e)"/><linearGradient id="f" x1=".5" y1=".013" x2=".5" y2="1"><stop offset="0" stop-color="#509FE8"/><stop offset="1" stop-color="#FFF"/></linearGradient><path fill-rule="evenodd" d="M7 6.5a3.5 3.5 0 1 0 7 0A3.5 3.5 0 0 0 10.5 3 3.501 3.501 0 0 0 7 6.5z" fill="url(#f)"/><linearGradient id="g" x1=".5" y1=".013" x2=".5" y2=".988"><stop offset="0" stop-color="#FFF"/><stop offset=".221" stop-color="#FFF"/><stop offset="1" stop-color="#8FBBC2"/></linearGradient><path fill-rule="evenodd" d="M8 6.5a2.5 2.5 0 1 0 5 0 2.5 2.5 0 1 0-5 0z" fill="url(#g)"/></svg>