<svg ti:v="1" width="16" height="16" viewBox="0 0 16 16" xmlns="http://www.w3.org/2000/svg" xmlns:ti="urn:schemas-jetbrains-com:tisvg"><rect id="frame" width="16" height="16" fill="none"/><linearGradient id="a" x1=".5" y1="0" x2=".5" y2="1"><stop offset="0" stop-color="#566980"/><stop offset="1" stop-color="#2C3641"/></linearGradient><path fill-rule="evenodd" d="M16 14H0V1h16v13z" fill="url(#a)"/><linearGradient id="b" x1=".5" y1="0" x2=".5" y2="1"><stop offset="0" stop-color="#566980"/><stop offset="1" stop-color="#2C3641"/></linearGradient><path fill-rule="evenodd" d="M15 13H1V2h14v11z" fill="url(#b)"/><path fill-rule="evenodd" d="M1 7h2V5H1m0 5h2V8H1m0 5h2v-2H1m3 2h2v-2H4m6 2h2v-2h-2m0-7h2V2h-2M7 13h2v-2H7m6 2h2v-2h-2m0-1h2V8h-2m0-1h2V5h-2m0-1h2V2h-2M7 4h2V2H7M4 4h2V2H4M1 4h2V2H1v2z" fill="#FFF"/></svg>