<svg ti:v="1" width="16" height="16" viewBox="0 0 16 16" xmlns="http://www.w3.org/2000/svg" xmlns:ti="urn:schemas-jetbrains-com:tisvg"><rect id="frame" width="16" height="16" fill="none"/><linearGradient id="a" x1=".5" y1="0" x2=".5" y2="1"><stop offset="0" stop-color="#685C4C"/><stop offset="1" stop-color="#3A342C"/></linearGradient><path fill-rule="evenodd" d="M1 2.279v10.442L7.839 15h.322L15 12.721V2.279L8.161 0h-.322L1 2.279z" fill="url(#a)"/><linearGradient id="b" x1=".5" y1="0" x2=".5" y2="1"><stop offset="0" stop-color="#CAE6B8"/><stop offset="1" stop-color="#F7FFF2"/></linearGradient><path fill-rule="evenodd" d="M8 1L2 3l6 2 6-2-6-2z" fill="url(#b)"/><linearGradient id="c" x1=".007" y1=".5" x2="1.004" y2=".5"><stop offset="0" stop-color="#E6D2B8"/><stop offset="1" stop-color="#FFF9F2"/></linearGradient><path fill-rule="evenodd" d="M2 3v9l6 2V5L2 3z" fill="url(#c)"/><linearGradient id="d" x1=".007" y1=".5" x2="1.004" y2=".5"><stop offset="0" stop-color="#BDCEE6"/><stop offset="1" stop-color="#F2F9FF"/></linearGradient><path fill-rule="evenodd" d="M14 3L8 5v9l6-2V3z" fill="url(#d)"/><path fill-rule="evenodd" d="M11 4H5v2h2v6h2V6h2V4z" fill="#302821"/></svg>