<svg xmlns="http://www.w3.org/2000/svg" width="16" height="16" viewBox="0 0 16 16"><rect id="frame" width="16" height="16" fill="none"/><g fill="none" fill-rule="evenodd"><path fill="#9AA7B0" fill-opacity=".8" d="M7 1L3 5h4z"/><path fill="#9AA7B0" fill-opacity=".8" d="M8 1v5H3v9h10V1H8zm4 13H4V7h8v7z"/><g fill-opacity=".7"><path fill="#62B543" d="M11 13H5v-1.667s1.769-1.58 2.571-.833A8.29 8.29 0 0 0 11 12.167V13z"/><path fill="#40B6E0" d="M5 8h6v3.333a8.288 8.288 0 0 1-3.429-1.666C6.77 8.92 5 10.5 5 10.5V8zm4.5 2a.5.5 0 1 0 0-1 .5.5 0 0 0 0 1z"/></g></g></svg>