<svg ti:v="1" width="16" height="16" viewBox="0 0 16 16" xmlns="http://www.w3.org/2000/svg" xmlns:ti="urn:schemas-jetbrains-com:tisvg"><rect id="frame" width="16" height="16" fill="none"/><linearGradient id="a" x1=".5" y1="0" x2=".5" y2="1"><stop offset="0" stop-color="#005B93"/><stop offset="1" stop-color="#00134F"/></linearGradient><path fill-rule="evenodd" d="M2 13V1h6v3H6v6h2v3m1 0v-3h2V4H9V1h6v12H9z" fill="url(#a)"/><linearGradient id="b" x1=".5" y1="0" x2=".5" y2=".993"><stop offset="0" stop-color="#33D5FF"/><stop offset="1" stop-color="#009CFF"/></linearGradient><path fill-rule="evenodd" d="M7 11H5V3h2V2H3v10h4m7-10v10h-4v-1h2V3h-2V2h4z" fill="url(#b)"/><linearGradient id="c" x1=".5" y1=".016" x2=".5" y2="1.006"><stop offset="0" stop-color="#785F04"/><stop offset="1" stop-color="#443500"/></linearGradient><path fill-rule="evenodd" d="M7 16H0v-6h7v6z" fill="url(#c)"/><linearGradient id="d" x1="0" y1=".5" x2="1" y2=".5"><stop offset="0" stop-color="#D6B672"/><stop offset=".319" stop-color="#FDD79C"/><stop offset="1" stop-color="#C36D29"/></linearGradient><path fill-rule="evenodd" d="M6 15H1v-4h5v4z" fill="url(#d)"/><path fill-rule="evenodd" d="M3 14h1v-2H3v2z"/><linearGradient id="e" x1="0" y1=".5" x2="1" y2=".5"><stop offset="0" stop-color="#939597"/><stop offset="1" stop-color="#57585B"/></linearGradient><path fill-rule="evenodd" d="M3 6a2 2 0 0 0-2 2v2h5V8a2 2 0 0 0-2-2H3z" fill="url(#e)"/><path fill-rule="evenodd" d="M4 7H3L2 8v2h1V8h1v2h1V8L4 7z" fill="#FFF"/></svg>