<svg ti:v="1" width="16" height="16" viewBox="0 0 16 16" xmlns="http://www.w3.org/2000/svg" xmlns:ti="urn:schemas-jetbrains-com:tisvg"><rect id="frame" width="16" height="16" fill="none"/><g fill-rule="evenodd"><path d="M2 13V1h6v3H6v6h2v3m1 0v-3h2V4H9V1h6v12H9z" fill="#F4F4F4"/><path d="M7 11H5V3h2V2H3v10h4m7-10v10h-4v-1h2V3h-2V2h4z" fill="#313131"/><path d="M7 16H0v-6h7v6z" fill="#F4F4F4"/><path d="M6 15H1v-4h5v4z" fill="#313131"/><path d="M4 14H3v-2h1v2z" fill="#EBEBEB"/><path d="M1 10V8a2 2 0 0 1 2-2h1a2 2 0 0 1 2 2v2H1z" fill="#F4F4F4"/><path d="M4 7H3L2 8v2h1V8h1v2h1V8L4 7z" fill="#313131"/></g></svg>