<svg ti:v="1" width="16" height="16" viewBox="0 0 16 16" xmlns="http://www.w3.org/2000/svg" xmlns:ti="urn:schemas-jetbrains-com:tisvg"><rect id="frame" width="16" height="16" fill="none"/><g fill-rule="evenodd"><path d="M16 16H1V0h15v16z" fill="#292929"/><path d="M3 2H2l1-1h1v4H3m7-3H9l1-1h1v4h-1m4 2h-1l1-1h1v4h-1m0 2h-1l1-1h1v4h-1m-3-3h-1l1-1h1v4h-1M7 7H6l1-1h1v4H7M4 9H3V7h1M3 6L2 7v3h2l1-1V6m-1 8H3v-2h1m-1-1l-1 1v3h2l1-1v-3m3 3H7v-2h1m-1-1l-1 1v3h2l1-1v-3M7 4H6V2h1M6 1L5 2v3h2l1-1V1m6 3h-1V2h1m-1-1l-1 1v3h2l1-1V1m-4 8h-1V7h1m-1-1L9 7v3h2l1-1V6h-2z" fill="#C3C3C3"/></g></svg>