<svg ti:v="1" width="16" height="16" viewBox="0 0 16 16" xmlns="http://www.w3.org/2000/svg" xmlns:ti="urn:schemas-jetbrains-com:tisvg"><rect id="frame" width="16" height="16" fill="none"/><g fill-rule="evenodd"><path d="M7 13V8H3.586l3-3h7.828l-3 3H10v2h4.414l-3 3H7z" fill="#242424"/><path d="M16 12.414v-.828l-3-3L8.586 13l3 3h.828L16 12.414z" fill="#242424"/><path d="M16 6.586l-3-3L8.586 8 12 11.414l4-4v-.828z" fill="#242424"/><path d="M13 5l2 2-3 3-2-2 3-3z" fill="#E8A754"/><path d="M13 10l2 2-3 3-2-2 3-3z" fill="#E8A754"/><path d="M0 5.586v.828l4 4L10.414 4l-4-4h-.828L0 5.586z" fill="#242424"/><path d="M4 9L1 6l5-5 3 3-5 5z" fill="#E8A754"/><path d="M11 7V6H7v1h1v5h3v-1H9V7h2z" fill="#E8A754"/><path d="M10 7H0V0h10v7z" fill="#242424"/><path d="M9 6H1V1h8v5z" fill="#C3C3C3"/><path d="M5 4H2v1h3m3-2H2V2h6v1z" fill="#292929"/></g></svg>