<svg ti:v="1" width="16" height="16" viewBox="0 0 16 16" xmlns="http://www.w3.org/2000/svg" xmlns:ti="urn:schemas-jetbrains-com:tisvg"><rect id="frame" width="16" height="16" fill="none"/><g fill-rule="evenodd"><path d="M16 0H8.382L4 8.764V10h3.371L5 14.766V16h2.414L16 7.414V6h-4.586L16 1.414V0z" fill="#F4F4F4"/><path d="M15 1H9L5 9h3.985L6 15h1l8-8H9l6-6z" fill="#C6771A"/><path d="M8 16H0V7h8v9z" fill="#F4F4F4"/><path d="M7 15H1V8h6v7z" fill="#313131"/><path d="M6 13H2v1h4m0-3H2v1h4m0-2H2V9h4v1z" fill="#EBEBEB"/></g></svg>