<svg ti:v="1" width="16" height="16" viewBox="0 0 16 16" xmlns="http://www.w3.org/2000/svg" xmlns:ti="urn:schemas-jetbrains-com:tisvg"><rect id="frame" width="16" height="16" fill="none"/><linearGradient id="a" x1=".5" y1="0" x2=".5" y2="1"><stop offset="0" stop-color="#7C6A2F"/><stop offset="1" stop-color="#575813"/></linearGradient><path fill-rule="evenodd" d="M16 0H8.382L4 8.764V10h3.371L5 14.766V16h2.414L16 7.414V6h-4.586L16 1.414V0z" fill="url(#a)"/><linearGradient id="b" x1=".5" y1="0" x2=".5" y2="1"><stop offset="0" stop-color="#FFDA60"/><stop offset="1" stop-color="#FBFF37"/></linearGradient><path fill-rule="evenodd" d="M15 1H9L5 9h3.985L6 15h1l8-8H9l6-6z" fill="url(#b)"/><linearGradient id="c" x1=".5" y1=".003" x2=".5" y2="1.003"><stop offset="0" stop-color="#B84AC6"/><stop offset="1" stop-color="#4C1E52"/></linearGradient><path fill-rule="evenodd" d="M8 16H0V7h8v9z" fill="url(#c)"/><linearGradient id="d" x1=".5" y1=".009" x2=".5" y2="1.009"><stop offset="0" stop-color="#FFF"/><stop offset="1" stop-color="#E299F9"/></linearGradient><path fill-rule="evenodd" d="M7 15H1V8h6v7z" fill="url(#d)"/><linearGradient id="e" x1=".5" y1=".006" x2=".5" y2="1.013"><stop offset="0" stop-color="#B84AC6"/><stop offset="1" stop-color="#4C1E52"/></linearGradient><path fill-rule="evenodd" d="M6 13H2v1h4m0-3H2v1h4m0-2H2V9h4v1z" fill="url(#e)"/></svg>