<svg ti:v="1" width="16" height="16" viewBox="0 0 16 16" xmlns="http://www.w3.org/2000/svg" xmlns:ti="urn:schemas-jetbrains-com:tisvg"><rect id="frame" width="16" height="16" fill="none"/><linearGradient id="a" x1=".5" y1=".003" x2=".5" y2="1.003"><stop offset="0" stop-color="#7C6D47"/><stop offset="1" stop-color="#60492F"/></linearGradient><path fill-rule="evenodd" d="M4 0v14h12V4.586L11.414 0H4z" fill="url(#a)"/><linearGradient id="b" x1=".5" y1=".004" x2=".5" y2="1"><stop offset="0" stop-color="#E3D8BC"/><stop offset="1" stop-color="#E3CDB3"/></linearGradient><path fill-rule="evenodd" d="M5 1v12h10V5l-4-4H5z" fill="url(#b)"/><linearGradient id="c" x1=".5" y1=".012" x2=".5" y2="1.006"><stop offset="0" stop-color="#FFF3D4"/><stop offset="1" stop-color="#FFF"/></linearGradient><path fill-rule="evenodd" d="M7 3v8h6V5h-2V3H7z" fill="url(#c)"/><linearGradient id="d" x1=".5" y1=".014" x2=".5" y2="1"><stop offset="0" stop-color="#2064A6"/><stop offset="1" stop-color="#0E365D"/></linearGradient><path fill-rule="evenodd" d="M0 10.5a5.5 5.5 0 0 0 11 0 5.5 5.5 0 0 0-11 0z" fill="url(#d)"/><linearGradient id="e" x1=".5" y1=".005" x2=".5" y2="1.005"><stop offset="0" stop-color="#56BFFF"/><stop offset="1" stop-color="#009FFF"/></linearGradient><path fill-rule="evenodd" d="M1 10.5a4.5 4.5 0 1 0 9 0 4.5 4.5 0 1 0-9 0z" fill="url(#e)"/><linearGradient id="f" x1=".5" y1="-.002" x2=".5" y2="1.004"><stop offset="0" stop-color="#F5FFF7"/><stop offset="1" stop-color="#B5FFFD"/></linearGradient><path fill-rule="evenodd" d="M5 7.051V9h1V7.051C5.835 7.028 5.671 7 5.5 7c-.171 0-.335.028-.5.051zM7 9h1.65A3.495 3.495 0 0 0 7 7.35M2.349 9H4V7.35A3.497 3.497 0 0 0 2.349 9zM7 10v1h1.95c.023-.164.05-.328.05-.5s-.027-.336-.05-.5M5 11h1V9.999H5M2.05 10c-.024.164-.05.328-.05.5s.026.336.05.5H4v-1m3 2v1.65A3.495 3.495 0 0 0 8.65 12M5 12v1.949c.165.024.329.051.5.051.171 0 .335-.027.5-.051V12m-3.651 0A3.498 3.498 0 0 0 4 13.65V12H2.349z" fill="url(#f)"/></svg>