<svg ti:v="1" width="16" height="16" viewBox="0 0 16 16" xmlns="http://www.w3.org/2000/svg" xmlns:ti="urn:schemas-jetbrains-com:tisvg"><rect id="frame" width="16" height="16" fill="none"/><g fill-rule="evenodd"><path d="M4 14V0h7.414L16 4.586V14H4z" fill="#F4F4F4"/><path d="M11 1H5v12h10V5l-4-4z" fill="#313131"/><path d="M11 5V3H7v8h6V5h-2z" fill="#EBEBEB"/><path d="M11 10.5a5.5 5.5 0 1 1-11.002-.002A5.5 5.5 0 0 1 11 10.5z" fill="#F4F4F4"/><path d="M5.5 6a4.5 4.5 0 1 0 0 9 4.5 4.5 0 0 0 0-9z" fill="#313131"/><path d="M8.95 11H7v-1h1.95c.023.164.05.328.05.5s-.027.336-.05.5zM7 13.65V12h1.65A3.495 3.495 0 0 1 7 13.65zm-2 .299V12h1v1.949c-.165.024-.329.051-.5.051-.17 0-.335-.027-.5-.051zM2.35 12H4v1.65A3.493 3.493 0 0 1 2.35 12zm-.3-2H4v1H2.05c-.024-.164-.05-.328-.05-.5s.026-.336.05-.5zM4 7.35V9H2.35A3.493 3.493 0 0 1 4 7.35zM6 11H5v-1h1m0-2.949V9H5V7.051c.165-.024.33-.051.5-.051.171 0 .335.027.5.051zM8.65 9H7V7.35A3.496 3.496 0 0 1 8.65 9z" fill="#EBEBEB"/></g></svg>