<svg ti:v="1" width="16" height="16" viewBox="0 0 16 16" xmlns="http://www.w3.org/2000/svg" xmlns:ti="urn:schemas-jetbrains-com:tisvg"><rect id="frame" width="16" height="16" fill="none"/><linearGradient id="a" x1=".5" y1="0" x2=".5" y2="1"><stop offset="0" stop-color="#005B93"/><stop offset="1" stop-color="#00134F"/></linearGradient><path fill-rule="evenodd" d="M10.191 3h-.457L2 7.42v5.257L7.809 15h.457L16 10.58V5.323L10.191 3z" fill="url(#a)"/><linearGradient id="b" x1="0" y1=".5" x2=".993" y2=".5"><stop offset="0" stop-color="#33D5FF"/><stop offset="1" stop-color="#009CFF"/></linearGradient><path fill-rule="evenodd" d="M3 8v4l5 2v-4L3 8z" fill="url(#b)"/><linearGradient id="c" x1="-.005" y1=".5" x2="1" y2=".5"><stop offset="0" stop-color="#89D7FF"/><stop offset="1" stop-color="#00ACEA"/></linearGradient><path fill-rule="evenodd" d="M15 6l-7 4v4l7-4V6z" fill="url(#c)"/><linearGradient id="d" x1="0" y1=".5" x2="1" y2=".5"><stop offset="0" stop-color="#DFF2FF"/><stop offset="1" stop-color="#F9FBFF"/></linearGradient><path fill-rule="evenodd" d="M3 8l5 2 7-4-5-2-7 4z" fill="url(#d)"/><linearGradient id="e" x1="0" y1=".5" x2="1" y2=".5"><stop offset="0" stop-color="#006293"/><stop offset="1" stop-color="#00214F"/></linearGradient><path fill-rule="evenodd" d="M5.294 7.841l4.783-2.734 2.629 1.052-4.783 2.734-2.629-1.052z" fill="url(#e)"/><linearGradient id="f" x1=".5" y1=".007" x2=".5" y2="1.007"><stop offset="0" stop-color="#44893F"/><stop offset="1" stop-color="#1E3F1E"/></linearGradient><path fill-rule="evenodd" d="M10 7H0V0h10v7z" fill="url(#f)"/><linearGradient id="g" x1=".5" y1=".008" x2=".5" y2="1.008"><stop offset="0" stop-color="#D0FFCE"/><stop offset="1" stop-color="#AED5AE"/></linearGradient><path fill-rule="evenodd" d="M9 6H1V1h8v5z" fill="url(#g)"/><path fill-rule="evenodd" d="M5 4H2v1h3m3-2H2V2h6v1z" fill="#003914"/></svg>