<svg ti:v="1" width="16" height="16" viewBox="0 0 16 16" xmlns="http://www.w3.org/2000/svg" xmlns:ti="urn:schemas-jetbrains-com:tisvg"><rect id="frame" width="16" height="16" fill="none"/><g fill-rule="evenodd"><path d="M10.191 3h-.457L2 7.42v5.257L7.808 15h.457L16 10.58V5.323L10.191 3z" fill="#242424"/><path d="M3 8v4l5 2v-4L3 8z" fill="#75BCFF"/><path d="M15 6l-7 4v4l7-4V6z" fill="#75BCFF"/><path d="M3 8l5 2 7-4-5-2-7 4z" fill="#75BCFF"/><path d="M5.294 7.841l4.783-2.733 2.629 1.051-4.783 2.734-2.63-1.052z" fill="#282828"/><path d="M10 7H0V0h10v7z" fill="#242424"/><path d="M9 6H1V1h8v5z" fill="#C3C3C3"/><path d="M5 4H2v1h3m3-2H2V2h6v1z" fill="#292929"/></g></svg>