<svg ti:v="1" width="16" height="16" viewBox="0 0 16 16" xmlns="http://www.w3.org/2000/svg" xmlns:ti="urn:schemas-jetbrains-com:tisvg"><rect id="frame" width="16" height="16" fill="none"/><g fill-rule="evenodd"><path d="M9.191 4h-.457L1 8.42v5.257L6.808 16h.457L15 11.58V6.323L9.191 4z" fill="#F4F4F4"/><path d="M2 9v4l5 2v-4L2 9z" fill="#313131"/><path d="M14 7l-7 4v4l7-4V7z" fill="#313131"/><path d="M2 9l5 2 7-4-5-2-7 4z" fill="#313131"/><path d="M4.294 8.84l4.783-2.732 2.629 1.05-4.783 2.735L4.294 8.84z" fill="#EBEBEB"/><path d="M10.764 2L10 2.382V0H6v2.382L5.237 2H4v3.414L7.586 9h.828L12 5.414V2h-1.236z" fill="#F4F4F4"/><path d="M9 4V1H7v3L5 3v2l3 3 3-3V3L9 4z" fill="#00529C"/></g></svg>