<svg ti:v="1" width="16" height="16" viewBox="0 0 16 16" xmlns="http://www.w3.org/2000/svg" xmlns:ti="urn:schemas-jetbrains-com:tisvg"><rect id="frame" width="16" height="16" fill="none"/><g fill-rule="evenodd"><path d="M5.653 13.668L3.419 14.73 1.27 12.581l1.061-2.233L0 9.518V6.482l2.331-.83L1.27 3.419 3.419 1.27l2.234 1.062L6.483 0l3.036.001.829 2.331 2.234-1.062 2.147 2.149-1.06 2.233 2.331.83v3.036l-2.331.83 1.06 2.233-2.147 2.149-2.234-1.062L9.519 16H6.482l-.829-2.332z" fill="#F4F4F4"/><path d="M12.748 9.614l-.248.604 1.023 2.155-1.149 1.15-2.155-1.024-.605.249-.8 2.252H7.189l-.801-2.252-.606-.248-2.155 1.023-1.15-1.15L3.5 10.218l-.248-.604L1 8.812V7.187l2.252-.802.248-.604-1.023-2.154 1.15-1.151L5.782 3.5l.606-.249L7.189 1l1.625.001.8 2.252.605.248 2.155-1.025 1.149 1.151L12.5 5.781l.248.604L15 7.187v1.625l-2.252.802z" fill="#313131"/><path d="M8 5a3 3 0 1 0 0 6 3 3 0 0 0 0-6z" fill="#EBEBEB"/><path d="M9.5 8a1.5 1.5 0 1 1-3 0 1.5 1.5 0 0 1 3 0z" fill="#313131"/></g></svg>