<svg ti:v="1" width="16" height="16" viewBox="0 0 16 16" xmlns="http://www.w3.org/2000/svg" xmlns:ti="urn:schemas-jetbrains-com:tisvg"><rect id="frame" width="16" height="16" fill="none"/><linearGradient id="a" x1=".5" y1="0" x2=".5" y2="1"><stop offset="0" stop-color="#907B00"/><stop offset="1" stop-color="#664900"/></linearGradient><path fill-rule="evenodd" d="M5.653 2.332L3.418 1.27 1.27 3.419l1.061 2.233L0 6.482v3.036l2.331.83-1.061 2.233 2.148 2.149 2.235-1.062L6.482 16H9.52l.828-2.332 2.234 1.062 2.148-2.149-1.061-2.233L16 9.518V6.482l-2.331-.83 1.061-2.233-2.148-2.149-2.234 1.062L9.52.001 6.483 0l-.83 2.332z" fill="url(#a)"/><linearGradient id="b" x1=".5" y1="0" x2=".5" y2="1"><stop offset="0" stop-color="#FDFFF2"/><stop offset="1" stop-color="#E8A300"/></linearGradient><path fill-rule="evenodd" d="M6.388 3.251l-.606.249-2.155-1.024-1.151 1.151L3.5 5.781l-.248.605L1 7.188v1.624l2.252.802.248.605-1.024 2.154 1.151 1.151L5.782 12.5l.606.248L7.189 15h1.624l.801-2.252.605-.249 2.155 1.025 1.15-1.151-1.024-2.154.248-.605L15 8.812V7.188l-2.252-.802-.248-.605 1.024-2.154-1.15-1.151-2.155 1.025-.605-.248-.801-2.252L7.189 1l-.801 2.251z" fill="url(#b)"/><linearGradient id="c" x1=".5" y1="0" x2=".5" y2="1"><stop offset="0" stop-color="#D09300"/><stop offset="1" stop-color="#FFFFFB"/></linearGradient><path fill-rule="evenodd" d="M5 8a3 3 0 1 0 6 0 3 3 0 1 0-6 0z" fill="url(#c)"/><path fill-rule="evenodd" d="M9.5 8a1.5 1.5 0 1 1-3 0 1.5 1.5 0 0 1 3 0z" fill="#3C2C0F"/></svg>