<svg ti:v="1" width="16" height="16" viewBox="0 0 16 16" xmlns="http://www.w3.org/2000/svg" xmlns:ti="urn:schemas-jetbrains-com:tisvg"><rect id="frame" width="16" height="16" fill="none"/><linearGradient id="a" x1=".5" y1="-.002" x2=".5" y2="1.002"><stop offset="0" stop-color="#005DA8"/><stop offset="1" stop-color="#00335D"/></linearGradient><path fill-rule="evenodd" d="M9 6.414L10.586 8 9 9.586V13h1.414L15 8.414v-.828L10.414 3H9M7 13H5.586L1 8.414v-.828L5.586 3H7v3.414L5.414 8 7 9.586V13z" fill="url(#a)"/><linearGradient id="b" x1=".5" y1="0" x2=".5" y2="1"><stop offset="0" stop-color="#D8EDFF"/><stop offset="1" stop-color="#95CFFF"/></linearGradient><path fill-rule="evenodd" d="M10 4v2l2 2-2 2v2l4-4m-8 4L2 8l4-4v2L4 8l2 2v2z" fill="url(#b)"/></svg>