<svg ti:v="1" width="16" height="16" viewBox="0 0 16 16" xmlns="http://www.w3.org/2000/svg" xmlns:ti="urn:schemas-jetbrains-com:tisvg"><rect id="frame" width="16" height="16" fill="none"/><linearGradient id="a" x1=".5" y1="0" x2=".5" y2="1"><stop offset="0" stop-color="purple"/><stop offset="1" stop-color="#5C005C"/></linearGradient><path fill-rule="evenodd" d="M3 3.16v6.681L8.742 13h.516L15 9.841V3.16L9.258 0h-.516L3 3.16z" fill="url(#a)"/><linearGradient id="b" x1=".028" y1=".5" x2="1.015" y2=".5"><stop offset="0" stop-color="#FD58FF"/><stop offset="1" stop-color="#FF9CFF"/></linearGradient><path fill-rule="evenodd" d="M4 4.25v5L9 12V7L4 4.25z" fill="url(#b)"/><linearGradient id="c" x1=".028" y1=".5" x2="1.015" y2=".5"><stop offset="0" stop-color="#FD33FF"/><stop offset="1" stop-color="#FFA3FF"/></linearGradient><path fill-rule="evenodd" d="M14 4.25L9 7v5l5-2.75v-5z" fill="url(#c)"/><path fill-rule="evenodd" d="M13.545 3.5L9 6 4.455 3.5 4 3.751v.499L9 7l5-2.75v-.499l-.455-.251z" fill="#FFF"/><linearGradient id="d" x1=".5" y1=".028" x2=".5" y2="1.015"><stop offset="0" stop-color="#FD54FF"/><stop offset="1" stop-color="#FFBFFF"/></linearGradient><path fill-rule="evenodd" d="M9 6l4.545-2.5L9 1 4.455 3.5 9 6z" fill="url(#d)"/><linearGradient id="e" x1=".5" y1="-.002" x2=".5" y2="1.002"><stop offset="0" stop-color="#005DA8"/><stop offset="1" stop-color="#00335D"/></linearGradient><path fill-rule="evenodd" d="M9 12.414v-.828L5.414 8H3.586L0 11.586v.828L3.586 16h1.828L9 12.414z" fill="url(#e)"/><linearGradient id="f" x1=".5" y1="0" x2=".5" y2="1"><stop offset="0" stop-color="#D8EDFF"/><stop offset="1" stop-color="#95CFFF"/></linearGradient><path fill-rule="evenodd" d="M5 13.5L6.5 12 5 10.5V9l3 3-3 3m-1 0l-3-3 3-3v1.5L2.5 12 4 13.5V15z" fill="url(#f)"/></svg>