<svg ti:v="1" width="16" height="16" viewBox="0 0 16 16" xmlns="http://www.w3.org/2000/svg" xmlns:ti="urn:schemas-jetbrains-com:tisvg"><rect id="frame" width="16" height="16" fill="none"/><g fill-rule="evenodd"><path d="M7 9.586L5.414 8 7 6.414V3H5.586L1 7.586v.828L5.586 13H7M9 3h1.414L15 7.586v.828L10.414 13H9V9.586L10.586 8 9 6.414V3z" fill="#F4F4F4"/><path d="M10 4v2l2 2-2 2v2l4-4m-8 4L2 8l4-4v2L4 8l2 2v2z" fill="#313131"/><path d="M10 2h5v5h1V1h-6m5 8v5h-5v1h6V9M6 14H1V9H0v6h6M0 7V1h6v1H1v5H0z" fill="#F4F4F4"/><path d="M12 1h-1v1h1m2-1h-1v1h1m2 3h-1v1h1m0-3h-1v1h1m-1-3h1v1h-1m0 9h1v-1h-1m0 3h1v-1h-1m-4 3h1v-1h-1m2 1h1v-1h-1m2 0h1v1h-1M4 15h1v-1H4m-2 1h1v-1H2m-2-3h1v-1H0m0 3h1v-1H0m1 3H0v-1h1m0-9H0v1h1m0-3H0v1h1m4-3H4v1h1M3 1H2v1h1M1 2H0V1h1v1z" fill="#313131"/></g></svg>