<svg ti:v="1" width="16" height="16" viewBox="0 0 16 16" xmlns="http://www.w3.org/2000/svg" xmlns:ti="urn:schemas-jetbrains-com:tisvg"><rect id="frame" width="16" height="16" fill="none"/><linearGradient id="a" x1=".5" y1="-.002" x2=".5" y2="1.002"><stop offset="0" stop-color="#005DA8"/><stop offset="1" stop-color="#00335D"/></linearGradient><path fill-rule="evenodd" d="M9 6.414L10.586 8 9 9.586V13h1.414L15 8.414v-.828L10.414 3H9M7 13H5.586L1 8.414v-.828L5.586 3H7v3.414L5.414 8 7 9.586V13z" fill="url(#a)"/><linearGradient id="b" x1=".5" y1="0" x2=".5" y2="1"><stop offset="0" stop-color="#D8EDFF"/><stop offset="1" stop-color="#95CFFF"/></linearGradient><path fill-rule="evenodd" d="M10 4v2l2 2-2 2v2l4-4m-8 4L2 8l4-4v2L4 8l2 2v2z" fill="url(#b)"/><linearGradient id="c" x1=".5" y1="0" x2=".5" y2="1"><stop offset="0" stop-color="#F6DF85"/><stop offset="1" stop-color="#ECB62A"/></linearGradient><path fill-rule="evenodd" d="M10 2h5v5h1V1h-6m5 8v5h-5v1h6V9M6 14H1V9H0v6h6M0 7V1h6v1H1v5H0z" fill="url(#c)"/><linearGradient id="d" x1=".5" y1="0" x2=".5" y2="1"><stop offset="0" stop-color="#6D4D00"/><stop offset="1" stop-color="#412D00"/></linearGradient><path fill-rule="evenodd" d="M12 1h-1v1h1m2-1h-1v1h1m2 3h-1v1h1m0-3h-1v1h1m-1-3h1v1h-1m0 9h1v-1h-1m0 3h1v-1h-1m-4 3h1v-1h-1m2 1h1v-1h-1m2 0h1v1h-1M4 15h1v-1H4m-2 1h1v-1H2m-2-3h1v-1H0m0 3h1v-1H0m1 3H0v-1h1m0-9H0v1h1m0-3H0v1h1m4-3H4v1h1M3 1H2v1h1M1 2H0V1h1v1z" fill="url(#d)"/></svg>