<svg ti:v="1" width="16" height="16" viewBox="0 0 16 16" xmlns="http://www.w3.org/2000/svg" xmlns:ti="urn:schemas-jetbrains-com:tisvg"><rect id="frame" width="16" height="16" fill="none"/><g fill-rule="evenodd"><path d="M3 3.16v6.681L8.742 13h.516L15 9.841V3.16L9.258 0h-.516L3 3.16z" fill="#242424"/><path d="M4 4.25v5L9 12V7L4 4.25z" fill="#B180D3"/><path d="M14 4.25L9 7v5l5-2.75v-5z" fill="#B180D3"/><path d="M13.545 3.5L9 6 4.455 3.5 4 3.751v.499L9 7l5-2.75v-.499l-.455-.251z" fill="#292929"/><path d="M9 6l4.545-2.5L9 1 4.455 3.5 9 6z" fill="#B180D3"/><path d="M9 12.414v-.828L5.414 8H3.586L0 11.586v.828L3.586 16h1.828L9 12.414z" fill="#242424"/><path d="M5 13.5L6.5 12 5 10.5V9l3 3-3 3m-1 0l-3-3 3-3v1.5L2.5 12 4 13.5V15z" fill="#C3C3C3"/></g></svg>