<svg ti:v="1" width="16" height="16" viewBox="0 0 16 16" xmlns="http://www.w3.org/2000/svg" xmlns:ti="urn:schemas-jetbrains-com:tisvg"><rect id="frame" width="16" height="16" fill="none"/><linearGradient id="a" x1=".5" y1="0" x2=".5" y2="1"><stop offset="0" stop-color="#0062C3"/><stop offset="1" stop-color="#003662"/></linearGradient><path fill-rule="evenodd" d="M4.586 3L0 7.586v.828L4.586 13H16V3H4.586z" fill="url(#a)"/><linearGradient id="b" x1=".5" y1="0" x2=".5" y2="1"><stop offset="0" stop-color="#FFF"/><stop offset="1" stop-color="#CFDBE8"/></linearGradient><path fill-rule="evenodd" d="M5 4L1 8l4 4h10V4H5z" fill="url(#b)"/><path fill-rule="evenodd" d="M14 6h-1v4h1m-2-4h-1v4h1m-2-4H8v4h2m-3 0H6V6h1v4z" fill="#626364"/><path fill-rule="evenodd" d="M5 8a1 1 0 1 1-2 0 1 1 0 1 1 2 0z" fill="#00295C"/></svg>