<svg ti:v="1" width="16" height="16" viewBox="0 0 16 16" xmlns="http://www.w3.org/2000/svg" xmlns:ti="urn:schemas-jetbrains-com:tisvg"><rect id="frame" width="16" height="16" fill="none"/><linearGradient id="a" x1=".5" y1=".002" x2=".5" y2=".996"><stop offset="0" stop-color="#566980"/><stop offset="1" stop-color="#2D3641"/></linearGradient><path fill-rule="evenodd" d="M1 14V3h6.5l2-2H16v13H1z" fill="url(#a)"/><linearGradient id="b" x1=".5" y1="0" x2=".5" y2=".996"><stop offset="0" stop-color="#DFEFFF"/><stop offset="1" stop-color="#A5B1BC"/></linearGradient><path fill-rule="evenodd" d="M15 13H2V4h6l2-2h5v11z" fill="url(#b)"/><path fill-rule="evenodd" d="M14 5H8.5l2-2H14v2z" fill="#448A40"/><linearGradient id="c" x1=".5" y1=".007" x2=".5" y2="1.007"><stop offset="0" stop-color="#44893F"/><stop offset="1" stop-color="#1E3F1E"/></linearGradient><path fill-rule="evenodd" d="M14 12H3V5h11v7z" fill="url(#c)"/><linearGradient id="d" x1=".5" y1=".008" x2=".5" y2="1.008"><stop offset="0" stop-color="#D0FFCE"/><stop offset="1" stop-color="#AED5AE"/></linearGradient><path fill-rule="evenodd" d="M13 11H4V6h9v5z" fill="url(#d)"/><path fill-rule="evenodd" d="M8 9H5v1h3m2-2H5V7h5v1z" fill="#003914"/></svg>