<svg ti:v="1" width="16" height="16" viewBox="0 0 16 16" xmlns="http://www.w3.org/2000/svg" xmlns:ti="urn:schemas-jetbrains-com:tisvg"><rect id="frame" width="16" height="16" fill="none"/><linearGradient id="a" x1=".5" y1=".003" x2=".5" y2="1.003"><stop offset="0" stop-color="#7C6D48"/><stop offset="1" stop-color="#60492F"/></linearGradient><path fill-rule="evenodd" d="M4 16V2h7.414L16 6.586V16H4z" fill="url(#a)"/><linearGradient id="b" x1=".5" y1=".004" x2=".5" y2="1"><stop offset="0" stop-color="#E2D7BC"/><stop offset="1" stop-color="#E2CCB3"/></linearGradient><path fill-rule="evenodd" d="M11 3H5v12h10V7l-4-4z" fill="url(#b)"/><linearGradient id="c" x1=".5" y1=".012" x2=".5" y2="1.006"><stop offset="0" stop-color="#FFF2D3"/><stop offset="1" stop-color="#FFF"/></linearGradient><path fill-rule="evenodd" d="M11 7V5H7v8h6V7h-2z" fill="url(#c)"/><linearGradient id="d" x1=".5" y1=".007" x2=".5" y2="1.007"><stop offset="0" stop-color="#44893F"/><stop offset="1" stop-color="#1E3F1E"/></linearGradient><path fill-rule="evenodd" d="M10 9H0V0h10v9z" fill="url(#d)"/><linearGradient id="e" x1=".5" y1=".008" x2=".5" y2="1.008"><stop offset="0" stop-color="#D0FFCE"/><stop offset="1" stop-color="#AED5AE"/></linearGradient><path fill-rule="evenodd" d="M9 8H1V1h8v7z" fill="url(#e)"/><path fill-rule="evenodd" d="M6 6H2v1h4M5 4H2v1h3m3-2H2V2h6v1z" fill="#003914"/></svg>