<svg ti:v="1" width="16" height="16" viewBox="0 0 16 16" xmlns="http://www.w3.org/2000/svg" xmlns:ti="urn:schemas-jetbrains-com:tisvg"><rect id="frame" width="16" height="16" fill="none"/><g fill-rule="evenodd"><path d="M12.831 9.686c.277-.229.527-.453.753-.671.26-.251.486-.523.673-.808.197-.301.351-.628.459-.977.108-.354.162-.746.162-1.165 0-.487-.082-.936-.244-1.327a2.823 2.823 0 0 0-.741-1.058 3.137 3.137 0 0 0-1.109-.625c-.077-.024-.162-.035-.242-.055h-2.137c-.141.033-.289.057-.416.102a4.165 4.165 0 0 0-.673.296 5.01 5.01 0 0 0-.621.404l-.395.3v4.064h-.475V3H4.884l-.264.593c-.166.372-.376.772-.626 1.191-.255.429-.534.857-.833 1.283a29.674 29.674 0 0 1-1.913 2.43L1 8.78v2.464h3.583V13H15V9.891h-2.421l.252-.205z" fill="#F4F4F4"/><path d="M14 12H9v-.619c0-.253.035-.491.106-.712.07-.221.164-.429.283-.625a3.47 3.47 0 0 1 .417-.551c.159-.174.329-.341.511-.503.181-.162.366-.318.555-.468.189-.151.374-.302.556-.456.17-.144.326-.287.466-.426a2.9 2.9 0 0 0 .362-.432c.1-.149.177-.306.233-.471.055-.166.083-.345.083-.539 0-.212-.032-.397-.097-.555a1.09 1.09 0 0 0-.686-.636 1.614 1.614 0 0 0-.522-.081c-.326 0-.658.076-.995.229a3.39 3.39 0 0 0-.972.686V4.597c.163-.123.328-.23.494-.321.167-.091.339-.167.517-.228.178-.062.365-.108.561-.137a4.17 4.17 0 0 1 .628-.045c.359 0 .685.048.978.142.292.095.542.234.75.419.207.184.367.414.48.689.113.275.17.591.17.948 0 .324-.04.615-.119.873-.08.259-.193.5-.34.723a3.759 3.759 0 0 1-.53.636c-.208.201-.439.407-.695.618-.214.176-.428.346-.641.512a8.423 8.423 0 0 0-.575.484c-.17.159-.308.317-.414.475a.856.856 0 0 0-.158.477v.028H14M5.582 9.166V5.808a18.401 18.401 0 0 1-1.189 1.907 34.365 34.365 0 0 1-1.101 1.451M6.824 4v5.166H8v1.077H6.824V12H5.582v-1.757H2V9.155a30.372 30.372 0 0 0 1.979-2.514c.314-.448.606-.896.875-1.347.268-.45.494-.881.679-1.294h1.291z" fill="#313131"/></g></svg>