<svg ti:v="1" width="16" height="16" viewBox="0 0 16 16" xmlns="http://www.w3.org/2000/svg" xmlns:ti="urn:schemas-jetbrains-com:tisvg"><rect id="frame" width="16" height="16" fill="none"/><g fill-rule="evenodd"><path d="M8 14c-3.364 0-6-3.9-6-8.879 0-1.002.115-2.001.344-2.968L2.615 1l1.084.454C5.061 2.024 6.531 2.639 8 2.639c1.469 0 2.939-.615 4.237-1.159l1.083-.453.336 1.125c.229.963.344 1.962.344 2.969C14 10.1 11.364 14 8 14z" fill="#F4F4F4"/><path d="M8 3.649c-1.693 0-3.286-.678-4.684-1.262A11.946 11.946 0 0 0 3 5.121c0 4.347 2.239 7.869 5 7.869 2.76 0 5-3.522 5-7.869 0-.961-.114-1.88-.316-2.734C11.286 2.971 9.693 3.649 8 3.649z" fill="#313131"/><path d="M10.289 6.881c.856.221 1.211-.328 1.211-.821 0-1.009-.833-1.148-2.5-1.148 0 0 .013 1.641 1.289 1.969zM7 4.912c-1.667 0-2.5.139-2.5 1.148 0 .493.354 1.042 1.211.821C6.987 6.553 7 4.912 7 4.912zm3.5 4.039c0 .946-1.301 2.02-2.5 2.02s-2.5-1.074-2.5-2.02c1.667 1.01 3.333 1.01 5 0z" fill="#EBEBEB"/></g></svg>