<svg ti:v="1" width="16" height="16" viewBox="0 0 16 16" xmlns="http://www.w3.org/2000/svg" xmlns:ti="urn:schemas-jetbrains-com:tisvg"><rect id="frame" width="16" height="16" fill="none"/><linearGradient id="a" x1=".5" y1=".019" x2=".5" y2="1.02"><stop offset="0" stop-color="#566980"/><stop offset="1" stop-color="#2D3641"/></linearGradient><path fill-rule="evenodd" d="M2.344 2.153A12.897 12.897 0 0 0 2 5.121C2 10.099 4.635 14 8 14s6-3.901 6-8.879c0-1.007-.115-2.006-.344-2.969l-.336-1.125-1.082.453C10.94 2.024 9.469 2.639 8 2.639c-1.468 0-2.94-.615-4.301-1.185L2.615 1l-.271 1.153z" fill="url(#a)"/><linearGradient id="b" x1=".5" y1="0" x2=".5" y2="1"><stop offset="0" stop-color="#F6FBFF"/><stop offset="1" stop-color="#E8F4FF"/></linearGradient><path fill-rule="evenodd" d="M8 3.649c-1.693 0-3.286-.678-4.683-1.263A11.892 11.892 0 0 0 3 5.121c0 4.347 2.239 7.869 5 7.869 2.76 0 5-3.522 5-7.869 0-.962-.114-1.881-.316-2.735C11.286 2.971 9.693 3.649 8 3.649z" fill="url(#b)"/><path fill-rule="evenodd" d="M10.289 6.881c.856.221 1.211-.328 1.211-.821 0-1.009-.833-1.148-2.5-1.148 0 0 .013 1.641 1.289 1.969zM7 4.912c-1.667 0-2.5.139-2.5 1.148 0 .493.354 1.042 1.211.821C6.987 6.553 7 4.912 7 4.912zm3.5 4.039c0 .946-1.301 2.02-2.5 2.02s-2.5-1.074-2.5-2.02c1.667 1.01 3.333 1.01 5 0z"/></svg>