<svg ti:v="1" width="16" height="16" viewBox="0 0 16 16" xmlns="http://www.w3.org/2000/svg" xmlns:ti="urn:schemas-jetbrains-com:tisvg"><rect id="frame" width="16" height="16" fill="none"/><g fill-rule="evenodd"><path d="M3 6.16v6.681L8.742 16h.516L15 12.841V6.16L9.258 3h-.516L3 6.16z" fill="#242424"/><path d="M4 7.25v5L9 15v-5L4 7.25z" fill="#B180D3"/><path d="M14 7.25L9 10v5l5-2.75v-5z" fill="#B180D3"/><path d="M13.545 6.5L9 9 4.455 6.5 4 6.751v.499L9 10l5-2.75v-.499l-.455-.251z" fill="#292929"/><path d="M9 9l4.545-2.5L9 4 4.455 6.5 9 9z" fill="#B180D3"/><path d="M10 7H0V0h10v7z" fill="#242424"/><path d="M9 6H1V1h8v5z" fill="#C3C3C3"/><path d="M5 4H2v1h3m3-2H2V2h6v1z" fill="#292929"/></g></svg>