<svg ti:v="1" width="16" height="16" viewBox="0 0 16 16" xmlns="http://www.w3.org/2000/svg" xmlns:ti="urn:schemas-jetbrains-com:tisvg"><rect id="frame" width="16" height="16" fill="none"/><linearGradient id="a" x1=".5" y1="0" x2=".5" y2="1"><stop offset="0" stop-color="purple"/><stop offset="1" stop-color="#5C005C"/></linearGradient><path fill-rule="evenodd" d="M3 3.16v6.681L8.742 13h.516L15 9.841V3.16L9.258 0h-.516L3 3.16z" fill="url(#a)"/><linearGradient id="b" x1=".028" y1=".5" x2="1.015" y2=".5"><stop offset="0" stop-color="#FD58FF"/><stop offset="1" stop-color="#FF9CFF"/></linearGradient><path fill-rule="evenodd" d="M4 4.25v5L9 12V7L4 4.25z" fill="url(#b)"/><linearGradient id="c" x1=".028" y1=".5" x2="1.015" y2=".5"><stop offset="0" stop-color="#FD33FF"/><stop offset="1" stop-color="#FFA3FF"/></linearGradient><path fill-rule="evenodd" d="M14 4.25L9 7v5l5-2.75v-5z" fill="url(#c)"/><path fill-rule="evenodd" d="M13.545 3.5L9 6 4.455 3.5 4 3.751v.499L9 7l5-2.75v-.499l-.455-.251z" fill="#FFF"/><linearGradient id="d" x1=".5" y1=".028" x2=".5" y2="1.015"><stop offset="0" stop-color="#FD54FF"/><stop offset="1" stop-color="#FFBFFF"/></linearGradient><path fill-rule="evenodd" d="M9 6l4.545-2.5L9 1 4.455 3.5 9 6z" fill="url(#d)"/><linearGradient id="e" x1=".5" y1="1" x2=".5" y2="0"><stop offset="0" stop-color="#135400"/><stop offset="1" stop-color="#24720B"/></linearGradient><path fill-rule="evenodd" d="M3 7c-1.654 0-3 1.346-3 3v3c0 1.654 1.346 3 3 3h3c1.654 0 3-1.346 3-3v-3c0-1.654-1.346-3-3-3H3z" fill="url(#e)"/><linearGradient id="f" x1=".5" y1="0" x2=".5" y2="1"><stop offset="0" stop-color="#7CFF54"/><stop offset="1" stop-color="#89D072"/></linearGradient><path fill-rule="evenodd" d="M3 8a2 2 0 0 0-2 2v3a2 2 0 0 0 2 2h3a2 2 0 0 0 2-2v-3a2 2 0 0 0-2-2H3z" fill="url(#f)"/><linearGradient id="g" x1=".5" y1="0" x2=".5" y2="1"><stop offset="0" stop-color="#24720B"/><stop offset="1" stop-color="#135400"/></linearGradient><path fill-rule="evenodd" d="M3 9v1h1v3H3v1h3v-1H5v-3h1V9H3z" fill="url(#g)"/></svg>