<svg ti:v="1" width="16" height="16" viewBox="0 0 16 16" xmlns="http://www.w3.org/2000/svg" xmlns:ti="urn:schemas-jetbrains-com:tisvg"><rect id="frame" width="16" height="16" fill="none"/><g fill-rule="evenodd"><path d="M3 3.16v6.681L8.742 13h.516L15 9.841V3.16L9.258 0h-.516L3 3.16z" fill="#F4F4F4"/><path d="M4 4.25v5L9 12V7L4 4.25z" fill="#642D8C"/><path d="M14 4.25L9 7v5l5-2.75v-5z" fill="#642D8C"/><path d="M13.545 3.5L9 6 4.455 3.5 4 3.751v.499L9 7l5-2.75v-.499l-.455-.251z" fill="#EBEBEB"/><path d="M9 6l4.545-2.5L9 1 4.455 3.5 9 6z" fill="#642D8C"/><path d="M3 16c-1.654 0-3-1.346-3-3v-3c0-1.654 1.346-3 3-3h3c1.654 0 3 1.346 3 3v3c0 1.654-1.346 3-3 3H3z" fill="#F4F4F4"/><path d="M6 15H3a2 2 0 0 1-2-2v-3a2 2 0 0 1 2-2h3a2 2 0 0 1 2 2v3a2 2 0 0 1-2 2z" fill="#313131"/><path d="M6 10V9H3v1h1v3H3v1h3v-1H5v-3h1z" fill="#EBEBEB"/></g></svg>