<svg ti:v="1" width="16" height="16" viewBox="0 0 16 16" xmlns="http://www.w3.org/2000/svg" xmlns:ti="urn:schemas-jetbrains-com:tisvg"><rect id="frame" width="16" height="16" fill="none"/><g fill-rule="evenodd"><path d="M3 3.16v6.681L8.742 13h.516L15 9.841V3.16L9.258 0h-.516L3 3.16z" fill="#242424"/><path d="M4 4.25v5L9 12V7L4 4.25z" fill="#B180D3"/><path d="M14 4.25L9 7v5l5-2.75v-5z" fill="#B180D3"/><path d="M13.545 3.5L9 6 4.455 3.5 4 3.751v.499L9 7l5-2.75v-.499l-.455-.251z" fill="#292929"/><path d="M9 6l4.545-2.5L9 1 4.455 3.5 9 6z" fill="#B180D3"/><path d="M10 11a5 5 0 0 1-5 5 5 5 0 0 1-5-5 5 5 0 0 1 5-5 5 5 0 0 1 5 5z" fill="#242424"/><path d="M7.714 11.658a2.804 2.804 0 0 1-.331.795l.768.984a4.004 4.004 0 0 1-.712.713l-.986-.767a2.852 2.852 0 0 1-.795.332l-.154 1.234C5.337 14.971 5.173 15 5 15s-.337-.029-.504-.051l-.154-1.234a2.865 2.865 0 0 1-.795-.332l-.985.767a3.972 3.972 0 0 1-.712-.713l.767-.984a2.833 2.833 0 0 1-.331-.795l-1.235-.154C1.029 11.338 1 11.174 1 11c0-.172.029-.336.05-.504l1.236-.154a2.82 2.82 0 0 1 .33-.795l-.766-.985c.207-.267.445-.506.712-.713l.985.768c.244-.148.51-.262.795-.33l.154-1.236C4.663 7.029 4.826 7 5 7c.173 0 .337.029.504.051l.154 1.236c.286.068.55.182.795.33l.986-.768c.266.207.505.446.712.713l-.768.985c.148.244.262.509.33.795l1.236.154c.022.168.05.332.05.504 0 .174-.028.338-.05.504l-1.235.154z" fill="#C3C3C3"/><path d="M5 9a2 2 0 1 0 .001 4.001A2 2 0 0 0 5 9z" fill="#282828"/><path d="M5 12a1 1 0 1 1 0-2 1 1 0 1 1 0 2z" fill="#C3C3C3"/></g></svg>