<svg ti:v="1" width="16" height="16" viewBox="0 0 16 16" xmlns="http://www.w3.org/2000/svg" xmlns:ti="urn:schemas-jetbrains-com:tisvg"><rect id="frame" width="16" height="16" fill="none"/><linearGradient id="a" x1=".5" y1="0" x2=".5" y2="1"><stop offset="0" stop-color="purple"/><stop offset="1" stop-color="#5C005C"/></linearGradient><path fill-rule="evenodd" d="M3 6.16v6.681L8.742 16h.516L15 12.841V6.16L9.258 3h-.516L3 6.16z" fill="url(#a)"/><linearGradient id="b" x1=".028" y1=".5" x2="1.015" y2=".5"><stop offset="0" stop-color="#FD58FF"/><stop offset="1" stop-color="#FF9CFF"/></linearGradient><path fill-rule="evenodd" d="M4 7.25v5L9 15v-5L4 7.25z" fill="url(#b)"/><linearGradient id="c" x1=".028" y1=".5" x2="1.015" y2=".5"><stop offset="0" stop-color="#FD33FF"/><stop offset="1" stop-color="#FFA3FF"/></linearGradient><path fill-rule="evenodd" d="M14 7.25L9 10v5l5-2.75v-5z" fill="url(#c)"/><path fill-rule="evenodd" d="M13.545 6.5L9 9 4.455 6.5 4 6.751v.499L9 10l5-2.75v-.499l-.455-.251z" fill="#FFF"/><linearGradient id="d" x1=".5" y1=".028" x2=".5" y2="1.015"><stop offset="0" stop-color="#FD54FF"/><stop offset="1" stop-color="#FFBFFF"/></linearGradient><path fill-rule="evenodd" d="M9 9l4.545-2.5L9 4 4.455 6.5 9 9z" fill="url(#d)"/><linearGradient id="e" x1=".5" y1=".007" x2=".5" y2="1.007"><stop offset="0" stop-color="#44893F"/><stop offset="1" stop-color="#1E3F1E"/></linearGradient><path fill-rule="evenodd" d="M10 7H0V0h10v7z" fill="url(#e)"/><linearGradient id="f" x1=".5" y1=".008" x2=".5" y2="1.008"><stop offset="0" stop-color="#D0FFCE"/><stop offset="1" stop-color="#AED5AE"/></linearGradient><path fill-rule="evenodd" d="M9 6H1V1h8v5z" fill="url(#f)"/><path fill-rule="evenodd" d="M5 4H2v1h3m3-2H2V2h6v1z" fill="#003914"/></svg>