<svg ti:v="1" width="16" height="16" viewBox="0 0 16 16" xmlns="http://www.w3.org/2000/svg" xmlns:ti="urn:schemas-jetbrains-com:tisvg"><rect id="frame" width="16" height="16" fill="none"/><linearGradient id="a" x1=".5" y1="0" x2=".5" y2="1"><stop offset="0" stop-color="purple"/><stop offset="1" stop-color="#5C005C"/></linearGradient><path fill-rule="evenodd" d="M8.742 0L3 3.16v6.681L8.742 13h.516L15 9.841V3.16L9.258 0h-.516z" fill="url(#a)"/><linearGradient id="b" x1=".028" y1=".5" x2="1.015" y2=".5"><stop offset="0" stop-color="#FD58FF"/><stop offset="1" stop-color="#FF9CFF"/></linearGradient><path fill-rule="evenodd" d="M4 9.25L9 12V7L4 4.25v5z" fill="url(#b)"/><linearGradient id="c" x1=".028" y1=".5" x2="1.015" y2=".5"><stop offset="0" stop-color="#FD33FF"/><stop offset="1" stop-color="#FFA3FF"/></linearGradient><path fill-rule="evenodd" d="M9 7v5l5-2.75v-5L9 7z" fill="url(#c)"/><path fill-rule="evenodd" d="M13.545 3.5L9 6 4.455 3.5 4 3.751v.499L9 7l5-2.75v-.499l-.455-.251z" fill="#FFF"/><linearGradient id="d" x1=".5" y1=".028" x2=".5" y2="1.015"><stop offset="0" stop-color="#FD54FF"/><stop offset="1" stop-color="#FFBFFF"/></linearGradient><path fill-rule="evenodd" d="M4.455 3.5L9 6l4.544-2.5L9 1 4.455 3.5z" fill="url(#d)"/><linearGradient id="e" x1=".5" y1="0" x2=".5" y2="1"><stop offset="0" stop-color="#907B00"/><stop offset="1" stop-color="#664900"/></linearGradient><path fill-rule="evenodd" d="M0 11a5 5 0 1 0 10 0 5 5 0 1 0-10 0z" fill="url(#e)"/><linearGradient id="f" x1=".5" y1="0" x2=".5" y2="1"><stop offset="0" stop-color="#FDFFF2"/><stop offset="1" stop-color="#E8A300"/></linearGradient><path fill-rule="evenodd" d="M4.496 7.051l-.154 1.236a2.773 2.773 0 0 0-.795.33l-.985-.767a3.966 3.966 0 0 0-.712.712l.768.985a2.794 2.794 0 0 0-.332.795l-1.235.154C1.029 10.664 1 10.828 1 11c0 .174.029.338.051.503l1.235.155c.07.286.183.551.332.795l-.768.985c.207.267.444.505.712.712l.985-.767c.244.148.51.262.795.332l.154 1.235c.167.02.331.05.504.05s.337-.03.504-.05l.154-1.235c.285-.07.551-.184.795-.332l.986.767c.266-.207.505-.445.712-.712l-.768-.985c.149-.244.261-.509.331-.795l1.235-.155C8.971 11.338 9 11.174 9 11c0-.172-.029-.336-.051-.504l-1.235-.154a2.792 2.792 0 0 0-.331-.795l.768-.985a4.032 4.032 0 0 0-.712-.712l-.986.767a2.773 2.773 0 0 0-.795-.33l-.154-1.236C5.337 7.03 5.173 7 5 7s-.337.03-.504.051z" fill="url(#f)"/><linearGradient id="g" x1=".5" y1="0" x2=".5" y2="1"><stop offset="0" stop-color="#D09300"/><stop offset="1" stop-color="#FFFFFB"/></linearGradient><path fill-rule="evenodd" d="M3 11a2 2 0 1 0 4 0 2 2 0 0 0-4 0z" fill="url(#g)"/><path fill-rule="evenodd" d="M5 12a1 1 0 1 1 0-2 1 1 0 1 1 0 2z" fill="#3C2C0F"/></svg>