<svg ti:v="1" width="16" height="16" viewBox="0 0 16 16" xmlns="http://www.w3.org/2000/svg" xmlns:ti="urn:schemas-jetbrains-com:tisvg"><rect id="frame" width="16" height="16" fill="none"/><linearGradient id="a" x1=".5" y1="0" x2=".5" y2="1"><stop offset="0" stop-color="purple"/><stop offset="1" stop-color="#5C005C"/></linearGradient><path fill-rule="evenodd" d="M3 3.16v6.681L8.742 13h.516L15 9.841V3.16L9.258 0h-.516L3 3.16z" fill="url(#a)"/><linearGradient id="b" x1=".028" y1=".5" x2="1.015" y2=".5"><stop offset="0" stop-color="#FD58FF"/><stop offset="1" stop-color="#FF9CFF"/></linearGradient><path fill-rule="evenodd" d="M4 4.25v5L9 12V7L4 4.25z" fill="url(#b)"/><linearGradient id="c" x1=".028" y1=".5" x2="1.015" y2=".5"><stop offset="0" stop-color="#FD33FF"/><stop offset="1" stop-color="#FFA3FF"/></linearGradient><path fill-rule="evenodd" d="M14 4.25L9 7v5l5-2.75v-5z" fill="url(#c)"/><path fill-rule="evenodd" d="M13.545 3.5L9 6 4.455 3.5 4 3.751v.499L9 7l5-2.75v-.499l-.455-.251z" fill="#FFF"/><linearGradient id="d" x1=".5" y1=".028" x2=".5" y2="1.015"><stop offset="0" stop-color="#FD54FF"/><stop offset="1" stop-color="#FFBFFF"/></linearGradient><path fill-rule="evenodd" d="M9 6l4.545-2.5L9 1 4.455 3.5 9 6z" fill="url(#d)"/><linearGradient id="e" x1=".5" y1=".003" x2=".5" y2="1.003"><stop offset="0" stop-color="#0078DB"/><stop offset="1" stop-color="#002CAF"/></linearGradient><path fill-rule="evenodd" d="M9 16H0V7h9v9z" fill="url(#e)"/><linearGradient id="f" x1=".5" y1=".009" x2=".5" y2="1.009"><stop offset="0" stop-color="#FFF"/><stop offset=".988" stop-color="#78E9FF"/><stop offset="1" stop-color="#78E9FF"/></linearGradient><path fill-rule="evenodd" d="M8 15H1V8h7v7z" fill="url(#f)"/><linearGradient id="g" x1=".5" y1=".006" x2=".5" y2="1.013"><stop offset="0" stop-color="#0078DB"/><stop offset="1" stop-color="#002CAF"/></linearGradient><path fill-rule="evenodd" d="M3 9l-1 1h2l.5.5L2 13v1h1l2.5-2.5.5.5v2l1-1V9H3z" fill="url(#g)"/></svg>