<svg ti:v="1" width="16" height="16" viewBox="0 0 16 16" xmlns="http://www.w3.org/2000/svg" xmlns:ti="urn:schemas-jetbrains-com:tisvg"><rect id="frame" width="16" height="16" fill="none"/><g fill-rule="evenodd"><path d="M3 3.16v6.681l5.742 3.16h.516L15 9.84v-6.68L9.258 0h-.516L3 3.16z" fill="#F4F4F4"/><path d="M4 4.25v5L9 12V7L4 4.25z" fill="#642D8C"/><path d="M14 4.25L9 7v5l5-2.75v-5z" fill="#642D8C"/><path d="M13.545 3.5L9 6 4.455 3.5 4 3.75v.5L9 7l5-2.75v-.5l-.455-.25z" fill="#EBEBEB"/><path d="M9 6l4.545-2.5L9 1 4.455 3.5 9 6z" fill="#642D8C"/><path d="M2 16v-2H0V7h2V5h7v2h2v7H9v2H2z" fill="#F4F4F4"/><path d="M2 14h7V7H2v7z" fill="#313131"/><path d="M8 6H7v1h1M6 6H5v1h1M4 6H3v1h1M2 8H1v1h1m0 1H1v1h1m0 1H1v1h1m2 1H3v1h1m2-1H5v1h1m2-1H7v1h1m2-3H9v1h1m0-3H9v1h1m0-2H9V8h1v1z" fill="#313131"/><path d="M8 13H3V8h3.5L8 9.5V13z" fill="#EBEBEB"/><path d="M4 12V9h2.086L7 9.914V12H4z" fill="#313131"/></g></svg>