<svg ti:v="1" width="16" height="16" viewBox="0 0 16 16" xmlns="http://www.w3.org/2000/svg" xmlns:ti="urn:schemas-jetbrains-com:tisvg"><rect id="frame" width="16" height="16" fill="none"/><linearGradient id="a" x1=".5" y1="0" x2=".5" y2="1"><stop offset="0" stop-color="purple"/><stop offset="1" stop-color="#5C005C"/></linearGradient><path fill-rule="evenodd" d="M3 3.16V9.84L8.742 13h.516L15 9.841V3.16L9.258 0h-.516L3 3.16z" fill="url(#a)"/><linearGradient id="b" x1=".028" y1=".5" x2="1.015" y2=".5"><stop offset="0" stop-color="#FD58FF"/><stop offset="1" stop-color="#FF9CFF"/></linearGradient><path fill-rule="evenodd" d="M4 4.25v5L9 12V7L4 4.25z" fill="url(#b)"/><linearGradient id="c" x1=".028" y1=".5" x2="1.015" y2=".5"><stop offset="0" stop-color="#FD33FF"/><stop offset="1" stop-color="#FFA3FF"/></linearGradient><path fill-rule="evenodd" d="M14 4.25L9 7v5l5-2.75v-5z" fill="url(#c)"/><path fill-rule="evenodd" d="M13.545 3.5L9 6 4.455 3.5 4 3.75v.5L9 7l5-2.75v-.5l-.455-.25z" fill="#FFF"/><linearGradient id="d" x1=".5" y1=".028" x2=".5" y2="1.015"><stop offset="0" stop-color="#FD54FF"/><stop offset="1" stop-color="#FFBFFF"/></linearGradient><path fill-rule="evenodd" d="M9 6l4.545-2.5L9 1 4.455 3.5 9 6z" fill="url(#d)"/><path fill-rule="evenodd" d="M2 16v-2H0V7h2V5h7v2h2v7H9v2H2z" fill="#E4EEF0"/><path fill-rule="evenodd" d="M2 14h7V7H2v7z" fill="#546875"/><path fill-rule="evenodd" d="M8 6H7v1h1M6 6H5v1h1M4 6H3v1h1M2 8H1v1h1m0 1H1v1h1m0 1H1v1h1m2 1H3v1h1m2-1H5v1h1m2-1H7v1h1m2-3H9v1h1m0-3H9v1h1m0-2H9V8h1v1z" fill="#293B47"/><path fill-rule="evenodd" d="M8 13H3V8h3.5L8 9.5V13z" fill="#FFF3C2"/><path fill-rule="evenodd" d="M4 12V9h2.086L7 9.914V12H4z" fill="#293B47"/></svg>