<svg ti:v="1" width="16" height="16" viewBox="0 0 16 16" xmlns="http://www.w3.org/2000/svg" xmlns:ti="urn:schemas-jetbrains-com:tisvg"><rect id="frame" width="16" height="16" fill="none"/><linearGradient id="a" x1=".5" y1=".019" x2=".5" y2="1.02"><stop offset="0" stop-color="#5573A1"/><stop offset="1" stop-color="#405980"/></linearGradient><path fill-rule="evenodd" d="M0 4.5A2.5 2.5 0 0 0 2.5 7c.815 0 1.532-.397 1.989-1H5V3h-.511A2.492 2.492 0 0 0 2.5 2 2.5 2.5 0 0 0 0 4.5z" fill="url(#a)"/><linearGradient id="b" x1=".5" y1=".019" x2=".5" y2="1.02"><stop offset="0" stop-color="#566980"/><stop offset="1" stop-color="#2D3641"/></linearGradient><path fill-rule="evenodd" d="M8 0C6.345 0 5 1.345 5 3v3c0 1.654 1.345 3 3 3h5c1.654 0 3-1.346 3-3V3c0-1.655-1.346-3-3-3H8z" fill="url(#b)"/><linearGradient id="c" x1=".5" y1=".01" x2=".5" y2="1.001"><stop offset="0" stop-color="#FFF"/><stop offset="1" stop-color="#A7BADB"/></linearGradient><path fill-rule="evenodd" d="M8 1c-1.099 0-2 .901-2 2v3c0 1.1.901 2 2 2h5c1.1 0 2-.9 2-2V3c0-1.099-.9-2-2-2H8z" fill="url(#c)"/><linearGradient id="d" x1=".5" y1="0" x2=".5" y2="1.067"><stop offset="0" stop-color="#A7BADB"/><stop offset="1" stop-color="#FFF"/></linearGradient><path fill-rule="evenodd" d="M8 2c-.551 0-1 .448-1 1v3c0 .552.449 1 1 1h5c.551 0 1-.448 1-1V3c0-.552-.449-1-1-1H8z" fill="url(#d)"/><path fill-rule="evenodd" d="M6 4H3.908A1.496 1.496 0 0 0 1 4.5a1.496 1.496 0 1 0 2.908.5H6V4z" fill="#7ED5FF"/><path fill-rule="evenodd" d="M3 4.5a.5.5 0 1 1-1 0 .5.5 0 0 1 1 0z" fill="#0FF"/><path fill-rule="evenodd" d="M7 16v-2H5V7h2V5h7v2h2v7h-2v2H7z" fill="#E4EEF0"/><path fill-rule="evenodd" d="M7 14h7V7H7v7z" fill="#546875"/><path fill-rule="evenodd" d="M13 6h-1v1h1m-2-1h-1v1h1M9 6H8v1h1M7 8H6v1h1m0 1H6v1h1m0 1H6v1h1m2 1H8v1h1m2-1h-1v1h1m2-1h-1v1h1m2-3h-1v1h1m0-3h-1v1h1m0-2h-1V8h1v1z" fill="#293B47"/><path fill-rule="evenodd" d="M13 13H8V8h3.5L13 9.5V13z" fill="#FFF3C2"/><path fill-rule="evenodd" d="M9 12V9h2.086l.914.914V12H9z" fill="#293B47"/><linearGradient id="e" x1=".5" y1=".003" x2=".5" y2="1.003"><stop offset="0" stop-color="#0078DB"/><stop offset="1" stop-color="#002CAF"/></linearGradient><path fill-rule="evenodd" d="M0 16h9V7H0v9z" fill="url(#e)"/><linearGradient id="f" x1=".5" y1=".009" x2=".5" y2="1.009"><stop offset="0" stop-color="#FFF"/><stop offset=".988" stop-color="#78E9FF"/><stop offset="1" stop-color="#78E9FF"/></linearGradient><path fill-rule="evenodd" d="M1 15h6.999V8H1v7z" fill="url(#f)"/><linearGradient id="g" x1=".5" y1=".006" x2=".5" y2="1.013"><stop offset="0" stop-color="#0078DB"/><stop offset="1" stop-color="#002CAF"/></linearGradient><path fill-rule="evenodd" d="M3 9l-1 1h2l.5.5L2 13v1h1l2.5-2.5.5.5v2l1-1V9H3z" fill="url(#g)"/></svg>