<svg ti:v="1" width="16" height="16" viewBox="0 0 16 16" xmlns="http://www.w3.org/2000/svg" xmlns:ti="urn:schemas-jetbrains-com:tisvg"><rect id="frame" width="16" height="16" fill="none"/><linearGradient id="a" x1=".5" y1=".002" x2=".5" y2="1.003"><stop offset="0" stop-color="#385985"/><stop offset="1" stop-color="#263D59"/></linearGradient><path fill-rule="evenodd" d="M2 8a6 6 0 1 0 12 0A6 6 0 1 0 2 8z" fill="url(#a)"/><linearGradient id="b" x1=".5" y1=".022" x2=".5" y2=".992"><stop offset="0" stop-color="#90B6FF"/><stop offset="1" stop-color="#6A95E6"/></linearGradient><path fill-rule="evenodd" d="M3 8a5 5 0 1 0 10 0A5 5 0 0 0 3 8z" fill="url(#b)"/><path fill-rule="evenodd" d="M11 8a3 3 0 1 1-6 0 3 3 0 0 1 6 0z" fill="#FFF"/></svg>