<svg ti:v="1" width="16" height="16" viewBox="0 0 16 16" xmlns="http://www.w3.org/2000/svg" xmlns:ti="urn:schemas-jetbrains-com:tisvg"><rect id="frame" width="16" height="16" fill="none"/><linearGradient id="a" x1=".5" y1=".002" x2=".5" y2="1.003"><stop offset="0" stop-color="#385985"/><stop offset="1" stop-color="#263D59"/></linearGradient><path fill-rule="evenodd" d="M1 8a7 7 0 1 0 14 0A7 7 0 1 0 1 8z" fill="url(#a)"/><linearGradient id="b" x1=".5" y1=".022" x2=".5" y2=".992"><stop offset="0" stop-color="#90B6FF"/><stop offset="1" stop-color="#6A95E6"/></linearGradient><path fill-rule="evenodd" d="M2 8a6 6 0 0 0 12 0A6 6 0 0 0 2 8z" fill="url(#b)"/><path fill-rule="evenodd" d="M12.5 8a4.5 4.5 0 1 1-9 0 4.5 4.5 0 0 1 9 0z" fill="#FFF"/><path fill-rule="evenodd" d="M10.5 8a2.5 2.5 0 1 1-5 0 2.5 2.5 0 0 1 5 0z" fill="#313131"/></svg>