<svg ti:v="1" width="16" height="16" viewBox="0 0 16 16" xmlns="http://www.w3.org/2000/svg" xmlns:ti="urn:schemas-jetbrains-com:tisvg"><rect id="frame" width="16" height="16" fill="none"/><g fill-rule="evenodd"><path d="M3 15h12V4H3v11z" fill="#242424"/><path d="M14 4H4v10h10V4z" fill="#75BCFF"/><path d="M5 13h8V4H5v9z" fill="#292929"/><path d="M8 10H6v1h2m4-1H9v1h3M8 6H6v1h2m4 0H9V6h3M8 8H6v1h2m4 0H9V8h3v1z" fill="#75BCFF"/><path d="M3 1v3h12V1H3z" fill="#242424"/><path d="M4 4h10V2H4v2z" fill="#75BCFF"/><path d="M8 16H0V7h8v9z" fill="#242424"/><path d="M7 15H1V8h6v7z" fill="#C3C3C3"/><path d="M6 13H2v1h4m0-3H2v1h4m0-2H2V9h4v1z" fill="#292929"/></g></svg>