<svg ti:v="1" width="16" height="16" viewBox="0 0 16 16" xmlns="http://www.w3.org/2000/svg" xmlns:ti="urn:schemas-jetbrains-com:tisvg"><rect id="frame" width="16" height="16" fill="none"/><linearGradient id="a" x1="0" y1=".5" x2="1" y2=".5"><stop offset="0" stop-color="#5D5E62"/><stop offset="1" stop-color="#282C2D"/></linearGradient><path fill-rule="evenodd" d="M3 15h12V4H3v11z" fill="url(#a)"/><path fill-rule="evenodd" d="M14 4H4v10h10V4z" fill="#FFF"/><linearGradient id="b" x1="0" y1=".5" x2="1" y2=".5"><stop offset="0" stop-color="#F2F9FF"/><stop offset="1" stop-color="#CCEAFF"/></linearGradient><path fill-rule="evenodd" d="M5 13h8V4H5v9z" fill="url(#b)"/><linearGradient id="c" x1="0" y1=".5" x2="1" y2=".5"><stop offset="0" stop-color="#006293"/><stop offset="1" stop-color="#00214F"/></linearGradient><path fill-rule="evenodd" d="M8 10H6v1h2m4-1H9v1h3M8 6H6v1h2m4 0H9V6h3M8 8H6v1h2m4 0H9V8h3v1z" fill="url(#c)"/><linearGradient id="d" x1=".5" y1="0" x2=".5" y2="1"><stop offset="0" stop-color="#003D62"/><stop offset="1" stop-color="#00134F"/></linearGradient><path fill-rule="evenodd" d="M3 1v3h12V1H3z" fill="url(#d)"/><linearGradient id="e" x1="0" y1=".5" x2=".993" y2=".5"><stop offset="0" stop-color="#33D5FF"/><stop offset="1" stop-color="#009CFF"/></linearGradient><path fill-rule="evenodd" d="M4 4h10V2H4v2z" fill="url(#e)"/><linearGradient id="f" x1=".5" y1=".003" x2=".5" y2="1.003"><stop offset="0" stop-color="#B84AC6"/><stop offset="1" stop-color="#4C1E52"/></linearGradient><path fill-rule="evenodd" d="M8 16H0V7h8v9z" fill="url(#f)"/><linearGradient id="g" x1=".5" y1=".009" x2=".5" y2="1.009"><stop offset="0" stop-color="#FFF"/><stop offset="1" stop-color="#E299F9"/></linearGradient><path fill-rule="evenodd" d="M7 15H1V8h6v7z" fill="url(#g)"/><linearGradient id="h" x1=".5" y1=".006" x2=".5" y2="1.013"><stop offset="0" stop-color="#B84AC6"/><stop offset="1" stop-color="#4C1E52"/></linearGradient><path fill-rule="evenodd" d="M6 13H2v1h4m0-3H2v1h4m0-2H2V9h4v1z" fill="url(#h)"/></svg>