<svg ti:v="1" width="16" height="16" viewBox="0 0 16 16" xmlns="http://www.w3.org/2000/svg" xmlns:ti="urn:schemas-jetbrains-com:tisvg"><rect id="frame" width="16" height="16" fill="none"/><g fill-rule="evenodd"><path d="M2 14V0h7.414L14 4.586V14H2z" fill="#F4F4F4"/><path d="M9 1H3v12h10V5L9 1z" fill="#313131"/><path d="M9 5V3H5v8h6V5H9z" fill="#EBEBEB"/><path d="M0 16V9h11c1.881 0 2.719 1.138 2.719 2.266 0 .396-.057.702-.145.946.277.382.426.824.426 1.288 0 .752-.292 2.5-3 2.5H0z" fill="#F4F4F4"/><path d="M6 11h.5c.276 0 .5.447.5 1v1c0 .553-.224 1-.5 1H6m.5-4H5v5h1.5c.828 0 1.5-.896 1.5-2v-1c0-1.104-.672-2-1.5-2zM3 13H2v-2h1m-2 4h1v-1h1a1 1 0 0 0 1-1v-2a1 1 0 0 0-1-1H1m10.797 4H10v-1h1.797c.368 0 .541.224.541.5s-.173.5-.541.5zM10 11h1.516c.312 0 .47.224.47.5s-.158.5-.47.5H10m2.273.352c.2-.209.446-.352.446-1.086 0-.657-.485-1.266-1.711-1.266l-.008.001V10H9v5h2c1.576 0 2-.672 2-1.5 0-.464-.287-.873-.727-1.148z" fill="#009691"/></g></svg>