<svg ti:v="1" width="16" height="16" viewBox="0 0 16 16" xmlns="http://www.w3.org/2000/svg" xmlns:ti="urn:schemas-jetbrains-com:tisvg"><rect id="frame" width="16" height="16" fill="none"/><linearGradient id="a" x1=".5" y1=".003" x2=".5" y2="1.003"><stop offset="0" stop-color="#7C6D47"/><stop offset="1" stop-color="#60492F"/></linearGradient><path fill-rule="evenodd" d="M2 14V0h7.414L14 4.586V14H2z" fill="url(#a)"/><linearGradient id="b" x1=".5" y1=".004" x2=".5" y2="1"><stop offset="0" stop-color="#E3D8BC"/><stop offset="1" stop-color="#E3CDB3"/></linearGradient><path fill-rule="evenodd" d="M9 1H3v12h10V5L9 1z" fill="url(#b)"/><linearGradient id="c" x1=".5" y1=".012" x2=".5" y2="1.006"><stop offset="0" stop-color="#FFF3D4"/><stop offset="1" stop-color="#FFF"/></linearGradient><path fill-rule="evenodd" d="M9 5V3H5v8h6V5H9z" fill="url(#c)"/><linearGradient id="d" x1=".5" y1="0" x2=".5" y2="1.024"><stop offset="0" stop-color="#00474E"/><stop offset="1" stop-color="#009173"/></linearGradient><path fill-rule="evenodd" d="M0 9v7h11c2.708 0 3-1.748 3-2.5 0-.464-.149-.906-.426-1.288.088-.244.145-.55.145-.947C13.719 10.138 12.881 9 11 9H0z" fill="url(#d)"/><linearGradient id="e" x1=".5" y1="-.015" x2=".5" y2="1.031"><stop offset="0" stop-color="#E6FDFF"/><stop offset="1" stop-color="#94FFEA"/></linearGradient><path fill-rule="evenodd" d="M11 10.001V10H9v5h2c1.576 0 2-.672 2-1.5 0-.464-.287-.873-.726-1.148.199-.209.444-.352.444-1.087 0-.656-.484-1.265-1.711-1.265M10 11h1.516c.312 0 .471.224.471.5s-.159.5-.471.5H10m0 1h1.797c.368 0 .541.224.541.5s-.173.5-.541.5H10m-5-4v5h1.5c.828 0 1.5-.895 1.5-2v-1c0-1.105-.672-2-1.5-2M6 11h.5c.277 0 .5.447.5 1v1c0 .553-.223 1-.5 1H6m-5-4v5h1v-1h1a1 1 0 0 0 1-1v-2a1 1 0 0 0-1-1m-1 1h1v2.001H2V11z" fill="url(#e)"/></svg>