<svg ti:v="1" width="16" height="16" viewBox="0 0 16 16" xmlns="http://www.w3.org/2000/svg" xmlns:ti="urn:schemas-jetbrains-com:tisvg"><rect id="frame" width="16" height="16" fill="none"/><linearGradient id="a" x1=".5" y1="0" x2=".5" y2="1.04"><stop offset="0" stop-color="#277C09"/><stop offset="1" stop-color="#00411E"/></linearGradient><path fill-rule="evenodd" d="M1 2v8h5V9h4v1h5V2H1z" fill="url(#a)"/><linearGradient id="b" x1=".5" y1="0" x2=".5" y2="1.04"><stop offset="0" stop-color="#8AEF66"/><stop offset="1" stop-color="#85C647"/></linearGradient><path fill-rule="evenodd" d="M14 9H2V3h12v6z" fill="url(#b)"/><linearGradient id="c" x1=".5" y1="0" x2=".5" y2="1.04"><stop offset="0" stop-color="#00411E"/><stop offset="1" stop-color="#277C09"/></linearGradient><path fill-rule="evenodd" d="M12 5H4v2h8V5z" fill="url(#c)"/><linearGradient id="d" x1=".5" y1=".017" x2=".5" y2="1.025"><stop offset="0" stop-color="#284673"/><stop offset="1" stop-color="#1C2F4D"/></linearGradient><path fill-rule="evenodd" d="M10.764 9L10 9.382V7H6v2.382L5.236 9H4v2.414L7.586 15h.828L12 11.414V9h-1.236z" fill="url(#d)"/><linearGradient id="e" x1=".5" y1=".017" x2=".5" y2="1.025"><stop offset="0" stop-color="#5DD3FF"/><stop offset="1" stop-color="#FFF"/></linearGradient><path fill-rule="evenodd" d="M11 11l-3 3-3-3v-1l2 1V7h2v4l2-1v1z" fill="url(#e)"/></svg>