<svg ti:v="1" width="16" height="16" viewBox="0 0 16 16" xmlns="http://www.w3.org/2000/svg" xmlns:ti="urn:schemas-jetbrains-com:tisvg"><rect id="frame" width="16" height="16" fill="none"/><g fill-rule="evenodd"><path d="M5.504 11c-.5 0-1.037-.145-1.485-.484-.42.303-.946.484-1.515.484C1.349 11 0 10.23 0 8.062 0 4.926 1.914 3 3.286 3c.58 0 1.073.368 1.224.905C5.082 3.317 5.729 3 6.286 3c.606 0 1.116.401 1.242.977.129.587-.178 1.18-.746 1.441-.271.125-.556.509-.621.811.067.037.152.078.217.11C6.904 6.595 8 7.128 8 8.646 8 9.944 6.88 11 5.504 11z" fill="#F4F4F4"/><path d="M7 8.647c0 .748-.665 1.354-1.496 1.354S4 9.453 4 8.062c0-2.643 1.533-4.061 2.286-4.061.311 0 .377.371.078.509-.631.291-1.218 1.099-1.218 1.84C5.146 7.458 7 7.017 7 8.647zm-3 0c0 .748-.665 1.354-1.496 1.354S1 9.453 1 8.062c0-2.643 1.533-4.061 2.286-4.061.311 0 .377.371.078.509-.631.291-1.218 1.099-1.218 1.84C2.146 7.458 4 7.017 4 8.647z" fill="#313131"/><path d="M10.496 5c.5 0 1.037.145 1.485.484.42-.303.946-.484 1.515-.484C14.651 5 16 5.77 16 7.938 16 11.074 14.086 13 12.714 13c-.58 0-1.073-.368-1.224-.905-.572.588-1.219.905-1.776.905a1.251 1.251 0 0 1-1.242-.977c-.129-.587.178-1.18.746-1.441.271-.125.556-.509.621-.811-.067-.037-.152-.078-.217-.11C9.096 9.405 8 8.872 8 7.354 8 6.056 9.12 5 10.496 5z" fill="#F4F4F4"/><path d="M9 7.354C9 6.606 9.665 6 10.496 6S12 6.548 12 7.939C12 10.581 10.467 12 9.714 12c-.311 0-.377-.372-.078-.509.631-.291 1.218-1.1 1.218-1.84C10.854 8.542 9 8.984 9 7.354zm3 0C12 6.606 12.665 6 13.496 6S15 6.548 15 7.939C15 10.581 13.467 12 12.714 12c-.311 0-.377-.372-.078-.509.631-.291 1.218-1.1 1.218-1.84 0-1.109-1.854-.667-1.854-2.297z" fill="#313131"/></g></svg>