<svg ti:v="1" width="16" height="16" viewBox="0 0 16 16" xmlns="http://www.w3.org/2000/svg" xmlns:ti="urn:schemas-jetbrains-com:tisvg"><rect id="frame" width="16" height="16" fill="none"/><g fill-rule="evenodd"><path d="M10.828 0H10v2.465L7.535 0h-.789L4 2.744v.792L6.465 6H4v.828L8.172 11H15V4.172L10.828 0z" fill="#F4F4F4"/><path d="M8.586 10l-3-3H8.88L5.019 3.14l2.122-2.12L11 4.879V1.586l3 3V10H8.586z" fill="#313131"/><path d="M12 4v3.293L7.141 2.434l-.707.706L11.294 8H8l1 1h4V5l-1-1z" fill="#EBEBEB"/><path d="M8.414 7H7v2.172L2.828 5h-.824L0 7.004v.824L4.172 12H2v1.414L4.586 16H11V9.586L8.414 7z" fill="#F4F4F4"/><path d="M8 8v3.586L2.416 6.002 1.002 7.416 6.586 13H3l2 2h5v-5L8 8z" fill="#313131"/></g></svg>