<svg xmlns="http://www.w3.org/2000/svg" width="16" height="16" viewBox="0 0 16 16"><rect id="frame" width="16" height="16" fill="none"/><g fill="none" fill-rule="evenodd"><path fill="#40B6E0" fill-opacity=".7" d="M2.395 3.42L9 10.092v.507l-3-1v4.642a9.406 9.406 0 0 1-2.388-1.776C.965 9.79.17 6.212 2.395 3.419zm10 .172c1.46 1.475 2.357 3.226 2.494 4.968l-2.887-.96v2l-2.086-.698-6.475-6.541C6.204.113 9.747.915 12.395 3.591z"/><path fill="#9AA7B0" d="M13.002 9L16 9.997V16H7v-5l3 1V9.997L13.002 11V9zM9 13H8v2h1v-2zm3-1h-1v2h1v-2zm3-1h-1v2h1v-2z"/></g></svg>