<svg xmlns="http://www.w3.org/2000/svg" width="16" height="16" viewBox="0 0 16 16"><rect id="frame" width="16" height="16" fill="none"/><g fill="none" fill-rule="evenodd"><path fill="#40B6E0" fill-opacity=".7" d="M2.323 3.393l5.533 5.533A4.978 4.978 0 0 0 6.8 12c0 1.11.362 2.135.974 2.965-1.486-.318-2.947-1.167-4.208-2.43C.862 9.834.05 6.216 2.323 3.394zm10.212.174c1.378 1.378 2.264 2.994 2.501 4.621A4.983 4.983 0 0 0 11.8 7a4.977 4.977 0 0 0-2.845.888L3.39 2.323C6.212.05 9.83.86 12.535 3.567z"/><path fill="#9AA7B0" d="M11.807 8c.286 0 .565.03.835.087l.111 1.114a2.95 2.95 0 0 1 1.006.582l1.02-.46c.372.413.66.904.835 1.445l-.91.653a2.968 2.968 0 0 1 0 1.157l.91.653a3.996 3.996 0 0 1-.835 1.446l-1.02-.46a2.95 2.95 0 0 1-1.006.582l-.111 1.114a4.016 4.016 0 0 1-1.671 0l-.112-1.114a2.95 2.95 0 0 1-1.005-.582l-1.02.46A3.996 3.996 0 0 1 8 13.231l.91-.653a2.968 2.968 0 0 1 0-1.157L8 10.77a3.996 3.996 0 0 1 .835-1.446l1.02.46a2.95 2.95 0 0 1 1.004-.582l.112-1.114c.27-.057.55-.087.836-.087zm0 2.585a1.415 1.415 0 1 0 0 2.83 1.415 1.415 0 0 0 0-2.83z"/></g></svg>