<svg xmlns="http://www.w3.org/2000/svg" width="16" height="16" viewBox="0 0 16 16"><rect id="frame" width="16" height="16" fill="none"/><g fill="none" fill-rule="evenodd"><path fill="#F98B9E" fill-opacity=".6" d="M12 16a4 4 0 1 1 0-8 4 4 0 0 1 0 8z"/><path fill="#231F20" fill-opacity=".7" d="M14.993 11.6c0-.6-.306-1.6-1.723-1.6-.745 0-1.135.402-1.185.48-.27-.325-.561-.48-1.285-.48-.401 0-.715.08-.943.24V10H9v4h.857c-.028-1.475-.028-2.275 0-2.4.043-.187.043-.8.857-.8.815 0 .857.43.857.8V14h.858v-2.4c0-.251-.035-.8.841-.8s.876.592.877.8V14h.85l-.004-2.4z"/><path fill="#40B6E0" fill-opacity=".7" d="M2.395 3.42l5.452 5.508a5.142 5.142 0 0 0-1.013 3.073c0 1.057.318 2.04.863 2.86-1.442-.32-2.86-1.157-4.085-2.395C.965 9.79.17 6.212 2.395 3.419zm10 .172c1.193 1.205 2.01 2.593 2.343 4.01a5.159 5.159 0 0 0-2.724-.772 5.164 5.164 0 0 0-3.119 1.042L3.441 2.361C6.204.113 9.747.915 12.395 3.591z"/></g></svg>