<svg xmlns="http://www.w3.org/2000/svg" xmlns:xlink="http://www.w3.org/1999/xlink" width="16" height="16" viewBox="0 0 16 16"><rect id="frame" width="16" height="16" fill="none"/><defs><circle id="a" cx="4" cy="4" r="4"/></defs><g fill="none" fill-rule="evenodd"><path fill="#F4AF3D" fill-opacity=".6" d="M12 16a4 4 0 1 1 0-8 4 4 0 0 1 0 8z"/><path fill="#40B6E0" fill-opacity=".7" d="M2.395 3.42l5.452 5.508a5.142 5.142 0 0 0-1.013 3.073c0 1.057.318 2.04.863 2.86-1.442-.32-2.86-1.157-4.085-2.395C.965 9.79.17 6.212 2.395 3.419zm10 .172c1.193 1.205 2.01 2.593 2.343 4.01a5.159 5.159 0 0 0-2.724-.772 5.164 5.164 0 0 0-3.119 1.042L3.441 2.361C6.204.113 9.747.915 12.395 3.591z"/><g transform="translate(8 8)"><mask id="b" fill="#fff"><use xlink:href="#a"/></mask><g fill="#231F20" fill-opacity=".7" mask="url(#b)"><path d="M2.798 4.102c0 .775.193 1.556 1.23 1.556 1.038 0 1.172-1.06 1.172-1.564 0-.514-.078-1.534-1.18-1.534-1.103 0-1.222.766-1.222 1.542zM2.8 5.75c.006.055.006.806-.002 2.25H2V2h.798v.56c.296-.373.754-.56 1.375-.56C5.105 2 6 2.434 6 4.102S4.924 6.217 4.173 6.217c-.5 0-.958-.155-1.373-.467z"/></g></g></g></svg>