<svg xmlns="http://www.w3.org/2000/svg" width="16" height="16" viewBox="0 0 16 16">
  <g fill="none" fill-rule="evenodd">
    <path fill="#40B6E0" fill-opacity=".7" d="M2.39519915,3.41930099 L9,10.0931513 L9,10.6 L6,9.6 L6.00092078,14.2420253 C5.159326,13.812668 4.35098915,13.211989 3.61226447,12.4656009 C0.965098087,9.79097338 0.170159152,6.21151651 2.39519915,3.41930099 Z M12.3950575,3.59169688 C13.8552939,5.06708141 14.7519209,6.817794 14.8889296,8.55965045 L12.0019531,7.6 L12.0019531,9.6 L9.916,8.90215132 L3.44065234,2.36100945 C6.20419936,0.112887319 9.74690489,0.915076289 12.3950575,3.59169688 Z"/>
    <path fill="#9AA7B0" d="M13.0019531,9 L16,9.99682617 L16,16 L7,16 L7,11 L10,12 L10,9.99682617 L13.0019531,11 L13.0019531,9 Z M9,13 L8,13 L8,15 L9,15 L9,13 Z M12,12 L11,12 L11,14 L12,14 L12,12 Z M15,11 L14,11 L14,13 L15,13 L15,11 Z"/>
  </g>
</svg>
