<svg xmlns="http://www.w3.org/2000/svg" width="16" height="16" viewBox="0 0 16 16">
  <g fill="none" fill-rule="evenodd">
    <path fill="#F98B9E" fill-opacity=".6" d="M12,16 C9.79085714,16 8,14.2091429 8,12 C8,9.79085714 9.79085714,8 12,8 C14.2091429,8 16,9.79085714 16,12 C16,14.2091429 14.2091429,16 12,16 Z"/>
    <path fill="#231F20" fill-opacity=".7" d="M5.99331429,1.6 C5.99245714,1.0008 5.68725586,0.00024 4.26996722,0.00024 C3.52478027,0.00024 3.13508571,0.4016 3.08451429,0.48 C2.81454032,0.155292969 2.52352818,0.00024 1.8,0.00024 C1.3988072,0.00024 1.08452148,0.0799549333 0.857142857,0.2393848 L0.857142857,0.00024 L0,0.00024 L0,4.00024 L0.857142857,4.00024 C0.828571429,2.52504 0.828571429,1.72496 0.857142857,1.6 C0.9,1.41256 0.9,0.8 1.71428571,0.8 C2.52857143,0.8 2.57057143,1.2296 2.57142857,1.6 L2.57142857,4.00024 L3.42857143,4.00024 L3.42857143,1.6 C3.42857143,1.3488 3.39353102,0.8 4.26996722,0.8 C5.14640341,0.8 5.14640341,1.39168945 5.14688546,1.6 C5.14688546,2.23233507 5.14688546,2.70658637 5.14688546,3.02275391 C5.14688546,3.23997304 5.14688546,3.56580174 5.14688546,4.00024 L5.9976,4.00024 L5.99331429,1.6 Z" transform="translate(9 10)"/>
    <path fill="#40B6E0" fill-opacity=".7" d="M2.39519915,3.41930099 L7.84729822,8.92837464 C7.21038831,9.7874819 6.83377749,10.8504883 6.83377749,12.0012956 C6.83377749,13.05838 7.15154312,14.0413824 7.69692874,14.8603225 C6.25473947,14.5409625 4.83771974,13.7037689 3.61226447,12.4656009 C0.965098087,9.79097338 0.170159152,6.21151651 2.39519915,3.41930099 Z M12.3950575,3.59169688 C13.587543,4.79655292 14.4041581,6.18502488 14.7381534,7.60234172 C13.9463774,7.11241177 13.0134166,6.83016418 12.0144122,6.83016418 C10.8432602,6.83016418 9.76287415,7.21806608 8.89517062,7.8721768 L3.44065234,2.36100945 C6.20419936,0.112887319 9.74690489,0.915076289 12.3950575,3.59169688 Z"/>
  </g>
</svg>
