<svg xmlns="http://www.w3.org/2000/svg" xmlns:xlink="http://www.w3.org/1999/xlink" width="16" height="16" viewBox="0 0 16 16">
  <defs>
    <circle id="beanproperty-a" cx="4" cy="4" r="4"/>
  </defs>
  <g fill="none" fill-rule="evenodd">
    <path fill="#F4AF3D" fill-opacity=".6" d="M12,16 C9.79085714,16 8,14.2091429 8,12 C8,9.79085714 9.79085714,8 12,8 C14.2091429,8 16,9.79085714 16,12 C16,14.2091429 14.2091429,16 12,16 Z"/>
    <path fill="#40B6E0" fill-opacity=".7" d="M2.39519915,3.41930099 L7.84729822,8.92837464 C7.21038831,9.7874819 6.83377749,10.8504883 6.83377749,12.0012956 C6.83377749,13.05838 7.15154312,14.0413824 7.69692874,14.8603225 C6.25473947,14.5409625 4.83771974,13.7037689 3.61226447,12.4656009 C0.965098087,9.79097338 0.170159152,6.21151651 2.39519915,3.41930099 Z M12.3950575,3.59169688 C13.587543,4.79655292 14.4041581,6.18502488 14.7381534,7.60234172 C13.9463774,7.11241177 13.0134166,6.83016418 12.0144122,6.83016418 C10.8432602,6.83016418 9.76287415,7.21806608 8.89517062,7.8721768 L3.44065234,2.36100945 C6.20419936,0.112887319 9.74690489,0.915076289 12.3950575,3.59169688 Z"/>
    <g transform="translate(8 8)">
      <mask id="beanproperty-b" fill="#fff">
        <use xlink:href="#beanproperty-a"/>
      </mask>
      <g fill="#231F20" fill-opacity=".7" mask="url(#beanproperty-b)">
        <path d="M0.79792,2.101575 C0.79792,2.87677002 0.990844102,3.657825 2.02832,3.657825 C3.0657959,3.657825 3.2,2.598075 3.2,2.094075 C3.2,1.579575 3.12182617,0.559575 2.01952,0.559575 C0.917213828,0.559575 0.79792,1.32637998 0.79792,2.101575 Z M0.8,3.75 C0.8064,3.8055 0.805706667,4.5555 0.79792,6 L0.00032,6 L0.00032,7.5e-05 L0.79792,7.5e-05 L0.79792,0.559575 C1.09354479,0.186575 1.55194479,7.5e-05 2.17312,7.5e-05 C3.10488281,7.5e-05 4.00032,0.433639526 4.00032,2.101575 C4.00032,3.76951047 2.92363281,4.217325 2.17312,4.217325 C1.67277812,4.217325 1.21507146,4.06155 0.8,3.75 Z" transform="translate(2 2)"/>
      </g>
    </g>
  </g>
</svg>
