<svg xmlns="http://www.w3.org/2000/svg" width="16" height="16" viewBox="0 0 16 16"><rect id="frame" width="16" height="16" fill="none"/><g fill="none" fill-rule="evenodd"><path fill="#40B6E0" fill-opacity=".7" d="M1.743 8.345l5.687 5.686c.029.066.06.13.091.194l.058-.044c-1.586 1.277-3.618.821-5.137-.699C.922 11.963.466 9.93 1.743 8.345zm5.74.097c.184.185.353.377.505.575a4.97 4.97 0 0 0-.97 3.4L2.342 7.744c1.586-1.277 3.62-.82 5.14.7zm.26-6.097l4.673 4.672a4.978 4.978 0 0 0-3.398.97c-.198-.15-.39-.32-.576-.505-1.52-1.519-1.976-3.552-.699-5.137zm5.74.097c1.465 1.467 1.94 3.412.823 4.972l-.081.107a4.976 4.976 0 0 0-.197-.092L8.343 1.743c1.586-1.277 3.62-.82 5.14.7z"/><path fill="#9AA7B0" d="M12 8c-2.208 0-4 1.792-4 4s1.792 4 4 4 4-1.792 4-4-1.792-4-4-4zm-.4 7.172A3.195 3.195 0 0 1 8.8 12c0-.248.032-.484.084-.716L10.8 13.2v.4c0 .44.36.8.8.8v.772zm2.76-1.016a.794.794 0 0 0-.76-.556h-.4v-1.2c0-.22-.18-.4-.4-.4h-2.4v-.8h.8c.22 0 .4-.18.4-.4V10h.8c.44 0 .8-.36.8-.8v-.164c1.172.476 2 1.624 2 2.964 0 .832-.32 1.588-.84 2.156z"/></g></svg>