<svg xmlns="http://www.w3.org/2000/svg" width="16" height="16" viewBox="0 0 16 16">
  <g fill="none" fill-rule="evenodd">
    <path fill="#40B6E0" fill-opacity=".7" d="M2.39519915,3.41930099 L9.897,10.9991513 L7,11 L7,13 L9,13 L9.00076744,15.0046348 C7.12396784,15.0080542 5.20609421,14.0759648 3.61226447,12.4656009 C0.965098087,9.79097338 0.170159152,6.21151651 2.39519915,3.41930099 Z M12.3950575,3.59169688 C13.4179457,4.62519632 14.1642747,5.79379737 14.5666706,6.99981793 L9,7 L9,7.97715132 L3.44065234,2.36100945 C6.20419936,0.112887319 9.74690489,0.915076289 12.3950575,3.59169688 Z"/>
    <g fill="#62B543" transform="translate(7.6 8)">
      <polygon points="6.4 3.606 0 3.606 0 4.394 6.4 4.394 6.4 6 8.401 4 6.4 2"/>
      <polygon points="2.62 0 3.663 .993 2.4 2.124 3.095 2.786 4.358 1.655 5.4 2.647 5.4 0"/>
      <polygon points="2.408 5.814 3.663 7.007 2.62 8 5.4 8 5.4 5.353 4.358 6.346 3.103 5.152"/>
    </g>
  </g>
</svg>
