<svg xmlns="http://www.w3.org/2000/svg" width="16" height="16" viewBox="0 0 16 16">
  <g fill="none" fill-rule="evenodd">
    <path fill="#40B6E0" fill-opacity=".7" d="M3.91883364,4.68851835 L11.1339272,12.018515 C9.17412533,13.6228403 6.66087706,13.0499177 4.78223797,11.1413606 C2.90429857,9.23351433 2.340357,6.68024164 3.91883364,4.68851835 Z M4.66049376,3.93362537 C6.62099534,2.33001089 9.1342436,2.90222262 11.0128827,4.81149056 C12.8908221,6.71933685 13.4547637,9.27260954 11.876287,11.263622 L11.876287,11.263622 Z"/>
    <path fill="#9AA7B0" fill-opacity=".8" d="M8,1 C11.8659932,1 15,4.13400675 15,8 C15,11.8659932 11.8659932,15 8,15 C4.13400675,15 1,11.8659932 1,8 C1,4.13400675 4.13400675,1 8,1 Z M8,2 C4.6862915,2 2,4.6862915 2,8 C2,11.3137085 4.6862915,14 8,14 C11.3137085,14 14,11.3137085 14,8 C14,4.6862915 11.3137085,2 8,2 Z"/>
  </g>
</svg>
