<svg xmlns="http://www.w3.org/2000/svg" width="16" height="16" viewBox="0 0 16 16"><rect id="frame" width="16" height="16" fill="none"/><g fill="none" fill-rule="evenodd"><path fill="#40B6E0" fill-opacity=".7" d="M3.919 4.689l7.215 7.33c-1.96 1.604-4.473 1.03-6.352-.878C2.904 9.234 2.34 6.681 3.92 4.69zm.741-.755c1.961-1.604 4.474-1.032 6.353.877 1.878 1.908 2.442 4.462.863 6.453z"/><path fill="#9AA7B0" fill-opacity=".8" d="M8 1a7 7 0 1 1 0 14A7 7 0 0 1 8 1zm0 1a6 6 0 1 0 0 12A6 6 0 0 0 8 2z"/></g></svg>