<svg xmlns="http://www.w3.org/2000/svg" width="16" height="16" viewBox="0 0 16 16">
  <g fill="none" fill-rule="evenodd">
    <path fill="#40B6E0" fill-opacity=".7" d="M4,5.75752851 L11.3031429,13.0614286 C9.30314286,14.6728571 6.73742857,14.0985714 4.82028571,12.18 C4.51041649,11.8703615 4.23561378,11.5438046 3.99942259,11.2054453 L4,5.75752851 Z M11.181,5.82 C11.4906385,6.12963849 11.765285,6.45619537 12.0013765,6.79455472 L12,12.2405285 L4.69671429,4.93857143 C6.69671429,3.32571429 9.26242857,3.90142857 11.181,5.82 Z"/>
    <polygon fill="#9AA7B0" points="3 11.814 1 11.814 1 6 3 6"/>
    <polygon fill="#9AA7B0" points="15 11.814 13 11.814 13 6 15 6"/>
    <path fill="#9AA7B0" d="M3,8.998 C3.002,5.143 4.146,2 7.997,2 C11.854,2 12.998,5.143 13,8.998 L14,8.998 C13.998,4.592 13,1 7.997,1 C3.595,1 2.002,4.592 2,8.998 L3,8.998 Z"/>
  </g>
</svg>
