<svg xmlns="http://www.w3.org/2000/svg" width="16" height="16" viewBox="0 0 16 16"><rect id="frame" width="16" height="16" fill="none"/><g fill="none" fill-rule="evenodd"><path fill="#40B6E0" fill-opacity=".7" d="M4 5.758l7.303 7.303c-2 1.612-4.566 1.038-6.483-.881a7.242 7.242 0 0 1-.82-.975V5.758zm7.181.062c.31.31.584.636.82.975L12 12.24 4.697 4.939c2-1.613 4.565-1.038 6.484.881z"/><path fill="#9AA7B0" d="M3 11.814H1V6h2z"/><path fill="#9AA7B0" d="M15 11.814h-2V6h2z"/><path fill="#9AA7B0" d="M3 8.998C3.002 5.143 4.146 2 7.997 2 11.854 2 12.998 5.143 13 8.998h1C13.998 4.592 13 1 7.997 1 3.595 1 2.002 4.592 2 8.998h1z"/></g></svg>