<svg xmlns="http://www.w3.org/2000/svg" width="16" height="16" viewBox="0 0 16 16">
  <title>DotMemoryUnitRunAll</title>
  <g>
    <rect width="16" height="16" fill="#ffc4ff" opacity="0"/>
    <g>
      <path d="M9,12,4,16V14.081l2-1.6v-.961l-2-1.6V8ZM0,8v8l5-4Z" fill="#59a869" fill-rule="evenodd"/>
      <path d="M9,1A6,6,0,0,0,3,7H4.351l.6.478A4.182,4.182,0,0,1,4.9,7,4.1,4.1,0,0,1,9,2.9V7h4.1a4.086,4.086,0,0,1-3.678,4.057l.578.462v.962l-.626.5A6,6,0,0,0,15,7V1Z" fill="#6e6e6e"/>
    </g>
  </g>
</svg>
