<svg xmlns="http://www.w3.org/2000/svg" width="16" height="16" viewBox="0 0 16 16">
  <g fill="none" fill-rule="evenodd">
    <polygon fill="#9AA7B0" fill-opacity=".8" points="7 1 3 5 7 5"/>
    <path fill="#9AA7B0" fill-opacity=".8" d="M13,8.57367677 C11.8341419,8.69997842 10.6313633,9.08323035 9.49519053,9.7392 C7.30397509,11.0042988 5.86735725,12.9911286 5.45870011,15 L3,15 L3,6 L8,6 L8,1 L13,1 L13,8.57367677 Z"/>
    <path fill="#40B6E0" d="M7.31890474,0.0124080078 C6.38969273,0.00880635937 5.35964145,0.299176754 4.80452962,0.64157795 C4.59703377,0.769564422 4.38411983,0.912860173 4.17075038,1.06409745 C4.17075038,1.06409745 2.24538673,2.54660731 1.64715665,3.29269574 C1.56703294,3.39262274 1.49408195,3.50034106 1.43051928,3.61381056 C1.42623546,3.62195612 1.42166499,3.63018207 1.41745959,3.63839351 C1.41151519,3.64931867 1.40555161,3.66040361 1.39979059,3.67142686 C1.39842624,3.67418998 1.39730452,3.67710724 1.39594951,3.67987725 C1.3014283,3.87310319 1.22939631,4.08234861 1.19390836,4.29368284 C1.19361091,4.29546019 1.19343391,4.29728154 1.19314138,4.29906036 C1.19207939,4.30648417 1.19104691,4.31388339 1.19006851,4.32133866 C1.15791007,4.56639801 1.17115414,4.8278795 1.27149954,5.04960863 C1.39348285,5.31915038 1.59652732,5.52033137 1.89068275,5.68569253 C2.17435429,5.84515993 2.6934698,5.98068796 2.6934698,5.98068796 L2.68501941,5.98452905 C3.11766512,6.0612667 3.56584577,6.03549689 4.00328024,5.99297944 C4.21777314,5.97213137 4.43235331,5.94852387 4.64704631,5.92153523 C4.64719381,5.92153868 4.64766826,5.92153179 4.6478133,5.92153523 C4.64927844,5.92155982 4.65393544,5.92151065 4.65549547,5.92153523 C4.64134651,5.84948727 4.61849321,5.71152282 4.64627686,5.70412975 C4.94034798,5.6258795 5.11542064,5.57866966 5.34458636,5.49901574 C5.56371266,5.42285136 5.72407635,5.35345417 5.90154388,5.25549086 C5.94588858,5.23101239 5.98099353,5.19021526 6.02753151,5.17021875 C6.17446702,5.10708309 6.33806657,5.09228906 6.49614405,5.06804585 C6.62244216,5.04867645 6.7501978,5.03598255 6.87794803,5.03347607 C6.96081052,5.03185114 7.04471091,5.03003298 7.12608221,5.04576755 C7.18840737,5.05781909 7.25144691,5.07527471 7.30584505,5.10799315 C7.34223077,5.12987787 7.37596841,5.15950377 7.39956755,5.1948017 C7.41215796,5.22163006 7.42257007,5.24987218 7.4326009,5.27776916 C7.89719141,5.10368867 8.36909093,4.89379106 8.72781521,4.55334028 C9.25843382,4.04975161 9.68002506,3.39159665 9.8885915,2.6904134 C10.0018938,2.30950055 10.0215671,1.8814644 9.91394267,1.49890842 C9.84740571,1.26239952 9.74482917,1.11018606 9.51600613,0.878188869 C9.04791795,0.403607594 8.36599643,0.110111969 7.70378159,0.0339180913 C7.58118469,0.0198121472 7.45164924,0.0129225289 7.31890474,0.0124080078 Z M4.17075038,1.06409745 C4.07568957,1.13147711 3.98032542,1.20047703 3.88574177,1.27074789 L4.17075038,1.06409745 Z M6.17502923,1.51196811 C6.47606764,1.51107821 6.64287354,1.55729293 6.64287354,1.55729293 C6.64287354,1.55729293 6.14760031,1.60351356 5.87235162,1.65255188 C5.65433476,1.69139368 5.30365083,1.75891567 5.0303855,1.85152015 C4.49754926,2.03208808 3.99066796,2.28455082 3.49010988,2.54137925 C3.1053702,2.73878307 2.73671318,2.96683297 2.36851267,3.19359571 C2.11685944,3.34858066 1.62564657,3.67757259 1.62564657,3.67757259 C1.62564657,3.67757259 2.04425713,3.13663824 3.1574718,2.51141878 C3.47577187,2.33265057 3.80061789,2.16495599 4.13387595,2.01591864 C4.39428833,1.89945887 4.65832915,1.78845873 4.93128547,1.70555887 C5.13866578,1.64257513 5.35266997,1.59894801 5.56660115,1.56420689 C5.72246789,1.53889505 5.8881624,1.52295473 6.03751834,1.5158092 C6.08588775,1.51349595 6.13202381,1.51209521 6.17502923,1.51196811 Z M2.35622119,2.02821012 C2.25762437,2.02879028 2.17307549,2.14451748 2.1211467,2.2317877 C2.05460262,2.34361874 2.02503375,2.53553269 2.01129164,2.68887697 C2.22494109,2.50614672 2.43814634,2.33616347 2.58591815,2.22103265 C2.52882474,2.12511538 2.45730309,2.04219118 2.37619484,2.02974655 C2.36950311,2.02871899 2.36279442,2.02817079 2.35622119,2.02821012 Z M6.66054254,2.5167963 C6.66054254,2.5167963 5.73105643,2.86951103 5.26930107,3.05378017 C4.73736949,3.26605421 4.20711594,3.48363276 3.68062776,3.7090695 C3.31234514,3.86676423 2.94617444,4.02975608 2.58207707,4.19688747 C2.2473401,4.35054149 1.58339462,4.6701093 1.58339462,4.6701093 C1.58339462,4.6701093 2.14877376,4.20660314 3.1974191,3.74824858 C3.80938564,3.48076295 4.22203902,3.24641366 4.88058313,3.03150187 C5.18808268,2.93115131 5.49156415,2.81815478 5.80244385,2.72882427 C6.08555515,2.64747289 6.66054254,2.5167963 6.66054254,2.5167963 Z M6.98319379,3.46016711 C6.98319379,3.46016711 6.85272789,3.61552424 6.56144251,3.80816953 C6.41579909,3.90449242 6.28810171,4.00547993 6.14506875,4.09394635 C5.95993921,4.20844957 5.76990881,4.31498151 5.57428332,4.41045187 C5.33179708,4.5287915 5.08001971,4.62771281 4.82911257,4.72695738 C4.58316185,4.82424122 4.33578483,4.91885855 4.08394182,4.99967451 C3.77321601,5.09938567 3.45947509,5.19163615 3.14057102,5.26086838 C2.90917341,5.3111034 2.43918865,5.37225989 2.43918865,5.37225989 C2.43918865,5.37225989 3.01912017,5.17579858 3.30804238,5.07419159 C3.6130947,4.96691207 3.90236673,4.86567677 4.2206845,4.7453946 C4.5497342,4.62105722 4.78501592,4.53046363 5.06495528,4.41736582 C5.29385133,4.32488992 5.52432118,4.23549917 5.74790043,4.13082078 C5.91889945,4.05076025 6.08485822,3.95994812 6.25108274,3.87039513 C6.49739802,3.73769365 6.98319379,3.46016711 6.98319379,3.46016711 Z M7.65845677,4.0693634 C7.65845677,4.0693634 7.65067774,4.16572735 7.40571329,4.41659761 C7.30680944,4.51788576 7.13255465,4.64859676 7.02160466,4.71697056 C6.59160727,4.9819593 6.36247424,5.04960863 6.36247424,5.04960863 C6.36247424,5.04960863 6.78698004,4.77195254 6.9924124,4.62324805 C7.11338487,4.53568062 7.2326439,4.44464897 7.34732878,4.34899449 C7.45442613,4.25966889 7.65845677,4.0693634 7.65845677,4.0693634 Z M1.06331143,4.98738304 C0.918879699,5.05235381 0.744848619,5.13295394 0.630805107,5.19403348 C0.419349432,5.30728493 0.00327165118,5.50539305 0.0169995094,5.56969172 C0.0379835177,5.66797756 0.509036155,5.47787268 0.754488087,5.42910796 C0.910653505,5.39808207 1.06594205,5.36552416 1.22156419,5.33231259 C1.15877539,5.22251037 1.10419386,5.10689871 1.06331143,4.98738304 Z M6.82109995,5.14486758 C6.75857419,5.14526828 6.69174323,5.14893163 6.61060842,5.15792727 C6.36205535,5.18548476 6.29477353,5.20770726 6.09590285,5.27239164 C6.02505158,5.29543644 5.98324041,5.33249057 5.92766327,5.36304128 C5.82779158,5.41794067 5.7337227,5.48419074 5.62959497,5.53051264 C5.47996935,5.59707468 5.32078416,5.63974896 5.1640553,5.68722897 C5.03482149,5.72637978 5.01694526,5.73403393 4.77303271,5.79247473 C4.73069472,5.80261889 4.77051296,5.87178302 4.80837071,5.9246081 C5.38703719,5.93633466 7.137294,5.96431719 7.16065198,5.86699181 L7.28971248,5.33077615 C7.30121239,5.32666687 7.31278113,5.32266329 7.32428226,5.31848468 C7.3194345,5.30005607 7.31316364,5.28161295 7.30584505,5.26931877 C7.28450999,5.23347855 7.25337446,5.2009526 7.21596363,5.18251022 C7.15309543,5.15151825 7.07848322,5.15642304 7.00854496,5.15178153 C6.9424623,5.14739593 6.88362571,5.1444681 6.82109995,5.14486758 Z M7.13760547,5.28929242 C7.2069643,5.29044536 7.26319264,5.30100349 7.26282488,5.33538546 C7.26203331,5.40939883 7.10299439,5.40576276 7.03005505,5.4129754 C6.55960961,5.45949495 6.39462874,5.45158195 6.07669742,5.4529227 C6.01561616,5.45318082 5.89386171,5.44677696 5.89386171,5.44677696 C5.89386171,5.44677696 6.19935726,5.3742693 6.47079288,5.3415312 C6.62861764,5.32249588 6.78254503,5.30281845 6.93402789,5.29774281 C6.98599109,5.29600234 7.06824663,5.28814046 7.13760547,5.28929242 Z M6.77731157,5.58428785 C6.83386268,5.5832062 6.89046616,5.58497372 6.94631937,5.59273824 C6.99048879,5.59887931 7.04032433,5.6010989 7.07461165,5.62961267 C7.08991773,5.64234099 7.10767818,5.66960004 7.10149925,5.68261966 C7.08894548,5.70907141 7.04166656,5.71033178 6.94094184,5.71718944 C6.82017022,5.72541195 6.70239305,5.73513672 6.5829526,5.73869952 C6.28680791,5.74753316 5.69412522,5.73716309 5.69412522,5.73716309 C5.69412522,5.73716309 5.87896763,5.68806847 5.97298809,5.6710964 C6.18272222,5.6332362 6.3948082,5.60573279 6.60753555,5.59273824 C6.66382117,5.58930007 6.72076045,5.58536975 6.77731157,5.58428785 Z" transform="translate(6 10)"/>
  </g>
</svg>
