<svg xmlns="http://www.w3.org/2000/svg" width="13" height="13" viewBox="0 0 13 13">
  <path fill="#6E6E6E" fill-rule="evenodd" d="M9.51457616,0.0161304101 C8.30660055,0.0114482672 6.96753389,0.38892978 6.24588851,0.834051335 C5.9761439,1.00043375 5.69935578,1.18671823 5.42197549,1.38332668 C5.42197549,1.38332668 2.91900276,3.3105895 2.14130365,4.28050446 C2.03714282,4.41040956 1.94230653,4.55044338 1.85967507,4.69795373 C1.85410609,4.70854296 1.84816449,4.71923669 1.84269747,4.72991157 C1.83496974,4.74411427 1.82721709,4.7585247 1.81972777,4.77285491 C1.81795411,4.77644697 1.81649587,4.78023941 1.81473436,4.78384042 C1.69185679,5.03503414 1.59821521,5.30705319 1.55208087,5.5817877 C1.55169418,5.58409825 1.55146409,5.586466 1.55108379,5.58877847 C1.54970321,5.59842942 1.54836098,5.60804841 1.54708906,5.61774026 C1.50528309,5.93631741 1.52250038,6.27624335 1.6529494,6.56449122 C1.81152771,6.9148955 2.07548552,7.17643078 2.45788758,7.39140029 C2.82666058,7.59870791 3.50151074,7.77489435 3.50151074,7.77489435 L3.49052523,7.77988776 C4.05296465,7.87964671 4.63559951,7.84614595 5.20426431,7.79087327 C5.48310508,7.76377079 5.7620593,7.73308104 6.0411602,7.6979958 C6.04135195,7.69800028 6.04196874,7.69799133 6.04215729,7.6979958 C6.04406198,7.69802776 6.05011607,7.69796385 6.05214411,7.6979958 C6.03375046,7.60433345 6.00404118,7.42497967 6.04015992,7.41536867 C6.42245237,7.31364336 6.65004683,7.25227056 6.94796227,7.14872046 C7.23282645,7.04970676 7.44129926,6.95949043 7.67200705,6.83213812 C7.72965515,6.8003161 7.77529158,6.74727983 7.83579097,6.72128437 C8.02680712,6.63920801 8.23948654,6.61997578 8.44498726,6.5884596 C8.60917481,6.56327938 8.77525714,6.54677731 8.94133244,6.54351889 C9.04905368,6.54140648 9.15812419,6.53904288 9.26390687,6.55949781 C9.34492958,6.57516482 9.42688098,6.59785713 9.49759856,6.64039109 C9.5449,6.66884124 9.58875893,6.70735491 9.61943782,6.75324221 C9.63580535,6.78811907 9.64934109,6.82483384 9.66238116,6.86109991 C10.2663488,6.63479527 10.8798182,6.36192838 11.3461598,5.91934236 C12.035964,5.2646771 12.5840326,4.40907564 12.855169,3.49753743 C13.002462,3.00235072 13.0280372,2.44590371 12.8881255,1.94858095 C12.8016274,1.64111938 12.6682779,1.44324188 12.370808,1.14164553 C11.7622933,0.524689873 10.8757954,0.14314556 10.0149161,0.0440935186 C9.85554009,0.0257557914 9.68714402,0.0167992876 9.51457616,0.0161304101 Z M5.42197549,1.38332668 C5.29839645,1.47092024 5.17442304,1.56062014 5.0514643,1.65197226 L5.42197549,1.38332668 Z M8.027538,1.96555855 C8.41888793,1.96440168 8.63573561,2.02448081 8.63573561,2.02448081 C8.63573561,2.02448081 7.9918804,2.08456762 7.63405711,2.14831744 C7.35063519,2.19881178 6.89474608,2.28659038 6.53950115,2.40697619 C5.84681404,2.6417145 5.18786834,2.96991607 4.53714284,3.30379303 C4.03698126,3.56041799 3.55772713,3.85688286 3.07906646,4.15167443 C2.75191727,4.35315486 2.11334054,4.78084437 2.11334054,4.78084437 C2.11334054,4.78084437 2.65753427,4.07762972 4.10471334,3.26484441 C4.51850343,3.03244574 4.94080325,2.81444279 5.37403873,2.62069424 C5.71257482,2.46929653 6.05582789,2.32499635 6.41067111,2.21722653 C6.68026552,2.13534767 6.95847097,2.07863241 7.2365815,2.03346896 C7.43920825,2.00056357 7.65461112,1.97984115 7.84877384,1.97055196 C7.91165408,1.96754473 7.97163095,1.96572377 8.027538,1.96555855 Z M3.06308755,2.63667315 C2.93491169,2.63742736 2.82499813,2.78787272 2.75749072,2.901324 C2.6709834,3.04670436 2.63254388,3.2961925 2.61467913,3.49554006 C2.89242342,3.25799074 3.16959024,3.03701251 3.3616936,2.88734245 C3.28747216,2.76264999 3.19449402,2.65484854 3.08905329,2.63867052 C3.08035405,2.63733468 3.07163275,2.63662202 3.06308755,2.63667315 Z M8.6587053,3.27183519 C8.6587053,3.27183519 7.45037336,3.73036434 6.85009139,3.96991422 C6.15858033,4.24587048 5.46925072,4.52872259 4.78481609,4.82179035 C4.30604868,5.02679349 3.83002677,5.23868291 3.35670019,5.45595371 C2.92154213,5.65570394 2.058413,6.0711421 2.058413,6.0711421 C2.058413,6.0711421 2.79340589,5.46858408 4.15664483,4.87272316 C4.95220134,4.52499184 5.48865072,4.22033776 6.34475807,3.94095243 C6.74450749,3.8104967 7.13903339,3.66360122 7.54317701,3.54747155 C7.91122169,3.44171475 8.6587053,3.27183519 8.6587053,3.27183519 Z M9.07815193,4.49821724 C9.07815193,4.49821724 8.90854625,4.70018151 8.52987527,4.95062039 C8.34053882,5.07584015 8.17453223,5.20712391 7.98858938,5.32213026 C7.74792097,5.47098444 7.50088145,5.60947597 7.24656832,5.73358743 C6.9313362,5.88742895 6.60402562,6.01602665 6.27784635,6.1450446 C5.95811041,6.27151359 5.63652028,6.39451611 5.30912437,6.49957687 C4.90518081,6.62920137 4.49731762,6.749127 4.08274233,6.8391289 C3.78192543,6.90443442 3.17094525,6.98393785 3.17094525,6.98393785 C3.17094525,6.98393785 3.92485622,6.72853816 4.3004551,6.59644906 C4.69702311,6.4569857 5.07307675,6.3253798 5.48688985,6.16901298 C5.91465446,6.00737438 6.2205207,5.88960272 6.58444186,5.74257557 C6.88200672,5.62235689 7.18161753,5.50614892 7.47227056,5.37006702 C7.69456928,5.26598833 7.91031569,5.14793256 8.12640756,5.03151367 C8.44661743,4.85900174 9.07815193,4.49821724 9.07815193,4.49821724 Z M9.9559938,5.29017242 C9.9559938,5.29017242 9.94588107,5.41544555 9.62742728,5.74157689 C9.49885227,5.87325149 9.27232105,6.04317579 9.12808606,6.13206172 C8.56908945,6.47654709 8.27121651,6.56449122 8.27121651,6.56449122 C8.27121651,6.56449122 8.82307405,6.20353831 9.09013612,6.01022247 C9.24740032,5.89638481 9.40243707,5.77804366 9.55152741,5.65369283 C9.69075397,5.53756955 9.9559938,5.29017242 9.9559938,5.29017242 Z M1.38230486,6.48359795 C1.19454361,6.56805996 0.968303205,6.67284012 0.820046639,6.75224352 C0.545154261,6.89947041 0.00425314653,7.15701096 0.0220993622,7.24059924 C0.049378573,7.36837083 0.661747002,7.12123448 0.980834513,7.05784035 C1.18384956,7.01750669 1.38572467,6.97518141 1.58803344,6.93200637 C1.50640801,6.78926348 1.43545202,6.63896833 1.38230486,6.48359795 Z M8.86742994,6.68832785 C8.78614645,6.68884876 8.69926619,6.69361112 8.59379095,6.70530545 C8.27067195,6.74113019 8.18320559,6.77001943 7.9246737,6.85410913 C7.83256706,6.88406737 7.77821253,6.93223774 7.70596225,6.97195366 C7.57612906,7.04332287 7.45383951,7.12944796 7.31847346,7.18966644 C7.12396016,7.27619708 6.91701941,7.33167365 6.71327189,7.39339766 C6.54526794,7.44429371 6.52202884,7.4542441 6.20494253,7.53021715 C6.14990314,7.54340455 6.20166685,7.63331793 6.25088192,7.70199053 C7.00314834,7.71723506 9.2784822,7.75361235 9.30884758,7.62708935 L9.47662623,6.930009 C9.49157611,6.92466693 9.50661547,6.91946227 9.52156694,6.91403008 C9.51526485,6.89007289 9.50711273,6.86609684 9.49759856,6.8501144 C9.46986299,6.80352211 9.42938679,6.76123838 9.38075271,6.73726329 C9.29902406,6.69697372 9.20202818,6.70334995 9.11110845,6.69731599 C9.02520099,6.69161471 8.94871342,6.68780853 8.86742994,6.68832785 Z M9.2788871,6.87608015 C9.36905359,6.87757897 9.44215043,6.89130454 9.44167234,6.9360011 C9.4406433,7.03221848 9.23389271,7.02749159 9.13907156,7.03686802 C8.52749249,7.09734344 8.31301737,7.08705653 7.89970664,7.08879951 C7.820301,7.08913507 7.66202022,7.08081005 7.66202022,7.08081005 C7.66202022,7.08081005 8.05916443,6.98655009 8.41203074,6.94399056 C8.61720294,6.91924464 8.81730854,6.89366399 9.01423626,6.88706566 C9.08178842,6.88480304 9.18872062,6.8745826 9.2788871,6.87608015 Z M8.81050504,7.25957421 C8.88402149,7.25816806 8.95760601,7.26046583 9.03021518,7.27055972 C9.08763542,7.2785431 9.15242163,7.28142858 9.19699514,7.31849647 C9.21689305,7.33504328 9.23998163,7.37048005 9.23194903,7.38740556 C9.21562912,7.42179284 9.15416653,7.42343131 9.0232244,7.43234627 C8.86622129,7.44303553 8.71311097,7.45567773 8.55783838,7.46030938 C8.17285029,7.47179311 7.40236278,7.45831202 7.40236278,7.45831202 C7.40236278,7.45831202 7.64265793,7.39448902 7.76488451,7.37242533 C8.03753888,7.32320706 8.31325066,7.28745263 8.58979622,7.27055972 C8.66296752,7.26609009 8.73698859,7.26098067 8.81050504,7.25957421 Z" transform="translate(0 2)"/>
</svg>
