<svg xmlns="http://www.w3.org/2000/svg" width="16" height="16" viewBox="0 0 16 16">
  <path fill="#6E6E6E" fill-rule="evenodd" d="M3.95696092,5.57417655 L5.08901185,6.70622748 L3.47179622,8.32344311 C2.31068362,9.48455571 2.31068362,11.3670912 3.47179622,12.5282038 C4.63290882,13.6893164 6.51544429,13.6893164 7.67655689,12.5282038 L9.29377252,10.9109882 L10.4258234,12.0430391 L8.80860782,13.6602547 C7.02228076,15.4465818 4.12607235,15.4465818 2.33974529,13.6602547 C0.553418235,11.8739276 0.553418235,8.97771924 2.33974529,7.19139218 L3.95696092,5.57417655 Z M5.57417655,3.95696092 L7.19139218,2.33974529 C8.97771924,0.553418235 11.8739276,0.553418235 13.6602547,2.33974529 C15.4465818,4.12607235 15.4465818,7.02228076 13.6602547,8.80860782 L12.0430391,10.4258234 L10.9109882,9.29377252 L12.5282038,7.67655689 C13.6893164,6.51544429 13.6893164,4.63290882 12.5282038,3.47179622 C11.3670912,2.31068362 9.48455571,2.31068362 8.32344311,3.47179622 L6.70622748,5.08901185 L5.57417655,3.95696092 Z M5.008491,9.72164665 L9.71871665,5.011421 L10.9915089,6.28421321 L6.28128321,10.9944389 L5.008491,9.72164665 Z"/>
</svg>
