<svg xmlns="http://www.w3.org/2000/svg" width="16" height="16" viewBox="0 0 16 16"><rect id="frame" width="16" height="16" fill="none"/><g fill="none"><path fill="#4695EB" d="M10.118 3.45L7.972 4.689l2.146 1.239z"/><path fill="#FF004A" d="M5.825 3.45v2.478l2.147-1.239z"/><path fill="#FFF" d="M10.118 5.928L7.972 4.689 5.825 5.928l2.147 1.24z"/><path fill="#4695EB" d="M3.562 7.37l2.146 1.24V6.131z"/><path fill="#FF004A" d="M5.708 11.088l2.147-1.239L5.708 8.61z"/><path fill="#FFF" d="M5.708 6.131V8.61l2.147 1.239V7.37z"/><path fill="#4695EB" d="M10.235 11.088V8.61L8.088 9.849z"/><path fill="#FF004A" d="M12.382 7.37l-2.147-1.239V8.61z"/><path fill="#FFF" d="M8.088 9.849l2.147-1.239V6.131L8.088 7.37z"/><path fill="#4695EB" d="M12.63 1H3.313A2.32 2.32 0 0 0 1 3.313v9.317a2.32 2.32 0 0 0 2.313 2.313h6.38L7.973 10.76l-1.25 2.64h-3.41a.78.78 0 0 1-.77-.77V3.313a.78.78 0 0 1 .77-.77h9.318a.78.78 0 0 1 .77.77v9.317a.78.78 0 0 1-.77.77h-2.022l.635 1.543h1.386a2.32 2.32 0 0 0 2.313-2.313V3.313A2.32 2.32 0 0 0 12.63 1z"/></g></svg>