<svg xmlns="http://www.w3.org/2000/svg" width="16" height="16" viewBox="0 0 16 16">
  <g fill="none" transform="translate(1 1)">
    <polygon fill="#4695EB" points="9.118 2.45 6.972 3.689 9.118 4.928"/>
    <polygon fill="#FF004A" points="4.825 2.45 4.825 4.928 6.972 3.689"/>
    <polygon fill="#091313" points="9.118 4.928 6.972 3.689 4.825 4.928 6.972 6.168"/>
    <polygon fill="#4695EB" points="2.562 6.37 4.708 7.61 4.708 5.131"/>
    <polygon fill="#FF004A" points="4.708 10.088 6.855 8.849 4.708 7.61"/>
    <polygon fill="#091313" points="4.708 5.131 4.708 7.61 6.855 8.849 6.855 6.37"/>
    <polygon fill="#4695EB" points="9.235 10.088 9.235 7.61 7.088 8.849"/>
    <polygon fill="#FF004A" points="11.382 6.37 9.235 5.131 9.235 7.61"/>
    <polygon fill="#091313" points="7.088 8.849 9.235 7.61 9.235 5.131 7.088 6.37"/>
    <path fill="#4695EB" d="M11.6302083,0 L2.31291667,0 C1.03702421,0.00360480328 0.00360480328,1.03702421 0,2.31291667 L0,11.6302083 C0.00360480328,12.9061008 1.03702421,13.9395202 2.31291667,13.943125 L8.69385417,13.943125 L6.9715625,9.75989583 L5.7225,12.4009375 L2.31291667,12.4009375 C1.88955335,12.3954386 1.54768642,12.0535717 1.5421875,11.6302083 L1.5421875,2.31291667 C1.54768642,1.88955335 1.88955335,1.54768642 2.31291667,1.5421875 L11.6302083,1.5421875 C12.0535717,1.54768642 12.3954386,1.88955335 12.4009375,2.31291667 L12.4009375,11.6302083 C12.3954386,12.0535717 12.0535717,12.3954386 11.6302083,12.4009375 L9.60822917,12.4009375 L10.2433333,13.943125 L11.62875,13.943125 C12.9046425,13.9395202 13.9380619,12.9061008 13.9416667,11.6302083 L13.9416667,2.31291667 C13.938066,1.03759123 12.9055312,0.00440505085 11.6302083,0 Z"/>
  </g>
</svg>
