<svg width="16" height="16" viewBox="0 0 16 16" fill="none" xmlns="http://www.w3.org/2000/svg"><rect id="frame" width="16" height="16" fill="none"/><path fill-rule="evenodd" clip-rule="evenodd" d="M13 16H1V9h12v.035a3.5 3.5 0 0 0 0 6.93V16z" fill="#40B6E0" fill-opacity=".7"/><path fill-rule="evenodd" clip-rule="evenodd" d="M7 1L3 5h4V1z" fill="#9AA7B0" fill-opacity=".8"/><path fill-rule="evenodd" clip-rule="evenodd" d="M8 1v5H3v2h10V1H8z" fill="#9AA7B0" fill-opacity=".8"/><path fill-rule="evenodd" clip-rule="evenodd" d="M3 15h1v-5H3v5z" fill="#231F20" fill-opacity=".7"/><path fill-rule="evenodd" clip-rule="evenodd" d="M6.9 12.5c.664 0 1.1-.116 1.1-.75S7.557 11 6.9 11H6v1.5h.9zM5 10h1.971C8.142 10 9 10.642 9 11.65c0 1.636-1.029 1.85-2.128 1.85H6V15H5v-5z" fill="#231F20" fill-opacity=".7"/><circle cx="13.5" cy="12.5" r="2.5" fill="#62B543"/></svg>