<svg xmlns="http://www.w3.org/2000/svg" xmlns:xlink="http://www.w3.org/1999/xlink" width="16" height="16" viewBox="0 0 16 16"><rect id="frame" width="16" height="16" fill="none"/><defs><path id="a" d="M0 0h8v14H0z"/></defs><g fill="none" fill-rule="evenodd"><g transform="translate(4 1)"><mask id="b" fill="#fff"><use xlink:href="#a"/></mask><g fill="#B99BF8" fill-opacity=".6" mask="url(#b)"><path d="M11 7A7 7 0 1 1-3 7a7 7 0 0 1 14 0"/></g></g><path fill="#9AA7B0" fill-opacity=".8" d="M3 3a6.974 6.974 0 0 0-2 4.895c0 1.906.764 3.631 2 4.894V3zm10 0v9.789a6.974 6.974 0 0 0 2-4.894A6.972 6.972 0 0 0 13 3"/><path fill="#231F20" fill-opacity=".7" d="M7 4h1v2h1.5v1H8l-.005 3c-.008.497.138.927.437 1.028.488.164 1.137-.05 1.258-.092l.295.838c-.076.027-.53.226-1.174.226-.644 0-.994-.061-1.33-.389-.316-.31-.465-.831-.48-1.611L7 7c0-.018-.333-.018-1 0v-.972h1V4z"/></g></svg>