<svg xmlns="http://www.w3.org/2000/svg" xmlns:xlink="http://www.w3.org/1999/xlink" width="16" height="16" viewBox="0 0 16 16"><rect id="frame" width="16" height="16" fill="none"/><defs><path id="a" d="M0 0h8v14H0z"/></defs><g fill="none" fill-rule="evenodd"><g transform="translate(4 1)"><mask id="b" fill="#fff"><use xlink:href="#a"/></mask><g mask="url(#b)"><path fill="#F98B9E" fill-opacity=".6" d="M11 7A7 7 0 1 1-3 7a7 7 0 0 1 14 0"/><path fill="#231F20" fill-opacity=".7" d="M3.294 10L1 4h1.2C3.389 7.14 3.989 8.74 4 8.8L5.8 4H7l-2.294 6H3.294z"/></g></g><path fill="#9AA7B0" fill-opacity=".8" d="M3 3a6.974 6.974 0 0 0-2 4.895c0 1.906.764 3.631 2 4.894V3zm10 0v9.789a6.974 6.974 0 0 0 2-4.894A6.972 6.972 0 0 0 13 3"/></g></svg>