<svg xmlns="http://www.w3.org/2000/svg" xmlns:xlink="http://www.w3.org/1999/xlink" width="16" height="16" viewBox="0 0 16 16"><rect id="frame" width="16" height="16" fill="none"/><defs><path id="a" d="M4 1h8v14H4z"/></defs><g fill="none" fill-rule="evenodd"><path fill="#9AA7B0" fill-opacity=".8" d="M3 3a6.974 6.974 0 0 0-2 4.895c0 1.906.764 3.631 2 4.894V3zm10 0v9.789a6.974 6.974 0 0 0 2-4.894A6.972 6.972 0 0 0 13 3"/><mask id="b" fill="#fff"><use xlink:href="#a"/></mask><g mask="url(#b)"><path fill="#40B6E0" fill-opacity=".6" d="M1 8a7 7 0 1 1 14 0H1z"/><path fill="#F4AF3D" fill-opacity=".6" d="M1 8h14A7 7 0 1 1 1 8z"/><path fill="#231F20" fill-opacity=".7" d="M10 9.283c-.47.459-.972.695-1.9.717-1.039.022-2.1-.72-2.1-2 0-1.288.971-2 2.1-2 .848 0 1.448.185 1.8.554l.616-.717C9.83 5.27 9.288 5 8.098 5 6.34 5 5 6.358 5 8c0 1.682 1.364 3 3.002 3 1.29 0 2.021-.407 2.614-1.019L10 9.283z"/></g></g></svg>