<svg xmlns="http://www.w3.org/2000/svg" xmlns:xlink="http://www.w3.org/1999/xlink" width="16" height="16" viewBox="0 0 16 16"><rect id="frame" width="16" height="16" fill="none"/><defs><path id="a" d="M0 0h8v8H4v6H0z"/></defs><g fill="none" fill-rule="evenodd"><path fill="#9AA7B0" fill-opacity=".8" d="M3 3.106A6.974 6.974 0 0 0 1 8c0 1.906.764 3.631 2 4.894V3.106zm11.98 5.433c-.598.1-1.281.19-1.98.269V3.106a6.972 6.972 0 0 1 1.98 5.433z"/><g transform="translate(4 1)"><mask id="b" fill="#fff"><use xlink:href="#a"/></mask><g mask="url(#b)"><path fill="#40B6E0" fill-opacity=".6" d="M11 7A7 7 0 1 1-3 7a7 7 0 0 1 14 0"/><path fill="#231F20" fill-opacity=".7" d="M6 8.283c-.47.459-.972.695-1.9.717C3.061 9.022 2 8.28 2 7c0-1.288.971-2 2.1-2 .848 0 1.448.185 1.8.554l.616-.717C5.83 4.27 5.288 4 4.098 4 2.34 4 1 5.358 1 7c0 1.682 1.364 3 3.002 3 1.29 0 2.021-.407 2.614-1.019L6 8.283z"/></g></g><path fill="#DF2621" fill-rule="nonzero" d="M9 11.622c0-.152 7-.456 7-1.196V9c0 .76-7 1.043-7 1.196v1.426zm0 4c0-.152 7-.456 7-1.196V13c0 .76-7 1.043-7 1.196v1.426zm0-2c0-.152 7-.456 7-1.196V11c0 .76-7 1.043-7 1.196v1.426z"/></g></svg>