<svg xmlns="http://www.w3.org/2000/svg" width="16" height="16" viewBox="0 0 16 16"><rect id="frame" width="16" height="16" fill="none"/><g fill="none" fill-rule="evenodd"><path fill="#9AA7B0" fill-opacity=".8" d="M7 1L3 5h4z"/><path fill="#9AA7B0" fill-opacity=".8" d="M13 8.455c-2.27.283-5 .435-5 .537V15H3V6h5V1h5v7.455z"/><path fill="#DF2621" fill-rule="nonzero" d="M9 11.622c0-.152 7-.456 7-1.196V9c0 .76-7 1.043-7 1.196v1.426zm0 4c0-.152 7-.456 7-1.196V13c0 .76-7 1.043-7 1.196v1.426zm0-2c0-.152 7-.456 7-1.196V11c0 .76-7 1.043-7 1.196v1.426z"/></g></svg>