<svg xmlns="http://www.w3.org/2000/svg" width="16" height="16" viewBox="0 0 16 16"><rect id="frame" width="16" height="16" fill="none"/><g fill="none" fill-rule="evenodd"><path fill="#9AA7B0" fill-opacity=".8" d="M7.729 7.497A2 2 0 0 0 4 8.498a2 2 0 0 0 2.092 1.995A5.531 5.531 0 0 0 6.207 13H1V2.051c0-.028.023-.05.051-.05h3.928c.553 0 1.326.32 1.717.71l1.288 1.29H15v3.256A5.478 5.478 0 0 0 11.5 6c-1.46 0-2.787.569-3.771 1.497z"/><path fill="#F4AF3D" fill-opacity=".6" d="M16 11.5a4.5 4.5 0 1 1-9 0 4.5 4.5 0 0 1 9 0"/><path fill="#231F20" fill-opacity=".7" d="M11.493 14C10.025 14 9 12.874 9 11.514V11.5C9 10.14 10.038 9 11.507 9 12.975 9 14 10.126 14 11.486v.014c0 1.36-1.038 2.5-2.507 2.5zm.014-.787c.95 0 1.612-.76 1.612-1.7V11.5c0-.94-.676-1.713-1.626-1.713-.95 0-1.612.76-1.612 1.7v.013c0 .94.676 1.713 1.626 1.713z"/></g></svg>