<svg xmlns="http://www.w3.org/2000/svg" width="16" height="16" viewBox="0 0 16 16"><rect id="frame" width="16" height="16" fill="none"/><g fill="none" fill-rule="evenodd"><path fill="#F98B9E" fill-opacity=".6" d="M14.98 8.54c-1.144.192-2.599.341-3.884.46H8v6a7 7 0 1 1 6.98-6.46z"/><path fill="#DF2621" fill-rule="nonzero" d="M9 11.622c0-.152 7-.456 7-1.196V9c0 .76-7 1.043-7 1.196v1.426zm0 4c0-.152 7-.456 7-1.196V13c0 .76-7 1.043-7 1.196v1.426zm0-2c0-.152 7-.456 7-1.196V11c0 .76-7 1.043-7 1.196v1.426z"/><path fill="#231F20" fill-opacity=".7" d="M8.5 11.048v.945c-.455-.022-.742-.111-1.018-.382-.317-.31-.466-.831-.48-1.611C7 9.955 7 7.047 7 7c0-.018-.333-.018-1 0v-.972h1V4h1v2h1.5v1H8l-.005 3c-.008.497.138.927.437 1.028l.068.02z"/></g></svg>