<svg xmlns="http://www.w3.org/2000/svg" width="16" height="16" viewBox="0 0 16 16"><rect id="frame" width="16" height="16" fill="none"/><g fill="none" fill-rule="evenodd"><path fill="#DF2621" d="M7.042 11.347a4.98 4.98 0 0 0 .468 2.857c-2.828.26-5.51.42-5.51.53v-2.91c0-.104 2.393-.247 5.042-.477zM14 7.416A5 5 0 0 0 7.56 9.7c-2.847.261-5.56.424-5.56.534v-2.91c0-.233 12-.663 12-1.824v1.916zM2 5.734v-2.91C2 2.591 14 2.161 14 1v2.91C14 5.038 2 5.502 2 5.734z" opacity=".8"/><path fill="#40B6E0" d="M14.904 12.579l.91.653a3.996 3.996 0 0 1-.835 1.445l-1.02-.46a2.95 2.95 0 0 1-1.006.582l-.111 1.114a4.016 4.016 0 0 1-1.67 0l-.111-1.114a2.95 2.95 0 0 1-1.006-.582l-1.02.46a3.996 3.996 0 0 1-.835-1.445l.91-.653a2.968 2.968 0 0 1 0-1.158l-.91-.653a3.996 3.996 0 0 1 .835-1.445l1.02.46a2.95 2.95 0 0 1 1.006-.582l.11-1.114a4.016 4.016 0 0 1 1.67 0l.112 1.114a2.95 2.95 0 0 1 1.006.582l1.02-.46c.372.413.66.904.835 1.445l-.91.653a2.968 2.968 0 0 1 0 1.158zm-2.897.837a1.415 1.415 0 1 0 0-2.831 1.415 1.415 0 0 0 0 2.83z"/></g></svg>