<svg xmlns="http://www.w3.org/2000/svg" width="16" height="16" viewBox="0 0 16 16"><rect id="frame" width="16" height="16" fill="none"/><g fill="none" fill-rule="evenodd"><path fill="#9AA7B0" fill-opacity=".8" d="M15 8.536c-1.147.194-2.611.344-3.904.464H8v4H1V2.051C1 2.023 1.023 2 1.051 2H4.98a2.8 2.8 0 0 1 1.717.711L7.985 4H15v4.536z"/><path fill="#DF2621" fill-rule="nonzero" d="M9 11.622c0-.152 7-.456 7-1.196V9c0 .76-7 1.043-7 1.196v1.426zm0 4c0-.152 7-.456 7-1.196V13c0 .76-7 1.043-7 1.196v1.426zm0-2c0-.152 7-.456 7-1.196V11c0 .76-7 1.043-7 1.196v1.426z"/></g></svg>