<svg xmlns="http://www.w3.org/2000/svg" width="16" height="16" viewBox="0 0 16 16"><rect id="frame" width="16" height="16" fill="none"/><g fill="none" fill-rule="evenodd"><path fill="#9AA7B0" d="M8 14A6 6 0 0 1 6.146 2.295l-.308-.95A7.024 7.024 0 0 0 1 8c0 3.835 3.132 7 7 7 .755 0 1.48-.123 2.162-.345l-.308-.95A5.983 5.983 0 0 1 8 14" opacity=".7"/><g fill="#62B543"><path d="M8 1v1.5A5.5 5.5 0 0 1 13.5 8a5.484 5.484 0 0 1-2.271 4.445l.88 1.212A7.002 7.002 0 0 0 15 8c0-3.867-3.163-7-7-7"/><path d="M6.4 11h2l3.218-6.436a4.988 4.988 0 0 0-1.47-1.061L7.4 9l-1-2h-2l2 4z"/></g></g></svg>