<svg xmlns="http://www.w3.org/2000/svg" width="16" height="16" viewBox="0 0 16 16"><rect id="frame" width="16" height="16" fill="none"/><g fill="none" fill-rule="evenodd"><path fill="#9AA7B0" d="M13.657 3.89l-.808.587A5.962 5.962 0 0 1 14 8a6 6 0 1 1-7.854-5.705l-.308-.95A7.024 7.024 0 0 0 1 8c0 3.835 3.132 7 7 7 3.847 0 7-3.144 7-7a6.964 6.964 0 0 0-1.343-4.11" opacity=".7"/><path fill="#F4AF3D" d="M7 12h2v-2H7v2zm1.5-3h-1L7 4h2l-.5 5zm3.61-6.657l-.88 1.212A5.46 5.46 0 0 0 8 2.5V1c1.422 0 2.863.435 4.11 1.343z"/></g></svg>