<svg xmlns="http://www.w3.org/2000/svg" width="16" height="16" viewBox="0 0 16 16"><rect id="frame" width="16" height="16" fill="none"/><g fill="none" fill-rule="evenodd"><path fill="#9AA7B0" d="M13.657 3.89l-.808.587A5.962 5.962 0 0 1 14 8c0 3.315-2.686 6-6 6A5.998 5.998 0 0 1 6.146 2.295l-.308-.95A7.024 7.024 0 0 0 1 8c0 3.835 3.132 7 7 7 3.847 0 7-3.144 7-7a6.964 6.964 0 0 0-1.343-4.11" opacity=".7"/><g fill="#E05555"><path d="M12.11 2.343A6.962 6.962 0 0 0 8 1v1.5c1.21 0 2.322.395 3.23 1.055l.88-1.212z"/><path d="M4 9h8V7H4z"/></g></g></svg>