<svg xmlns="http://www.w3.org/2000/svg" width="16" height="16" viewBox="0 0 16 16"><rect id="frame" width="16" height="16" fill="none"/><g fill="none" fill-rule="evenodd"><path fill="#9AA7B0" d="M6.146 2.295l-.308-.95A7.042 7.042 0 0 0 2.342 3.89l.808.587a6.007 6.007 0 0 1 2.996-2.182" opacity=".7"/><g fill="#62B543"><path d="M8 1v1.5a5.5 5.5 0 1 1 0 11 5.5 5.5 0 0 1-5.229-7.199l-1.426-.463A6.962 6.962 0 0 0 1 8c0 3.848 3.145 7 7 7 3.848 0 7-3.145 7-7 0-3.852-3.149-7-7-7"/><path d="M6.4 11h2l3.218-6.436a4.988 4.988 0 0 0-1.47-1.061L7.4 9l-1-2h-2l2 4z"/></g></g></svg>