<svg xmlns="http://www.w3.org/2000/svg" width="16" height="16" viewBox="0 0 16 16"><rect id="frame" width="16" height="16" fill="none"/><g fill="none" fill-rule="evenodd"><path fill="#9AA7B0" d="M2 8a5.999 5.999 0 0 1 4.146-5.705l-.308-.951C3.001 2.266 1 4.947 1 8c0 3.087 2.033 5.745 4.838 6.655l.308-.95A5.999 5.999 0 0 1 2 8" opacity=".7"/><g fill="#F4AF3D"><path d="M8 1v1.5a5.5 5.5 0 1 1 0 11V15c3.848 0 7-3.145 7-7 0-3.851-3.149-7-7-7"/><path d="M7 12h2v-2H7z"/><path d="M8.5 9h-1L7 4h2z"/></g></g></svg>