<svg ti:v="1" width="21" height="21" viewBox="0 0 21 21" xmlns="http://www.w3.org/2000/svg" xmlns:ti="urn:schemas-jetbrains-com:tisvg"><rect id="frame" width="21" height="21" fill="none"/><linearGradient id="a" x1=".5" y1=".004" x2=".5" y2="1"><stop offset="0" stop-color="#0A6F22"/><stop offset="1" stop-color="#073F14"/></linearGradient><path fill-rule="evenodd" d="M1 10.5a9.5 9.5 0 0 0 9.5 9.5 9.5 9.5 0 0 0 9.5-9.5A9.5 9.5 0 0 0 10.5 1 9.5 9.5 0 0 0 1 10.5z" fill="url(#a)"/><linearGradient id="b" x1=".5" y1="0" x2=".5" y2="1.005"><stop offset="0" stop-color="#FFF"/><stop offset="1" stop-color="#E6FFEC"/></linearGradient><path fill-rule="evenodd" d="M2 10.5a8.5 8.5 0 1 0 17 0A8.5 8.5 0 0 0 10.5 2 8.5 8.5 0 0 0 2 10.5z" fill="url(#b)"/><linearGradient id="c" x1=".5" y1=".011" x2=".5" y2="1.006"><stop offset="0" stop-color="#B5FFC8"/><stop offset="1" stop-color="#FFF"/></linearGradient><path fill-rule="evenodd" d="M3 10.5c0 4.143 3.357 7.5 7.5 7.5s7.5-3.357 7.5-7.5S14.643 3 10.5 3A7.499 7.499 0 0 0 3 10.5z" fill="url(#c)"/><path fill-rule="evenodd" d="M10.5 10.499l-.001.001h.001v-.001z" fill="#329932"/><path fill-rule="evenodd" d="M10.5 10.499v.001-.001z" fill="#329932"/><linearGradient id="d" x1=".5" y1="0" x2=".5" y2="1.004"><stop offset="0" stop-color="#00791D"/><stop offset="1" stop-color="#0C3"/></linearGradient><path fill-rule="evenodd" d="M10.5 10.499v.001h-.001l-7.13-2.318A7.491 7.491 0 0 0 3 10.5a7.495 7.495 0 0 0 3.096 6.061A7.446 7.446 0 0 0 10.5 18a7.444 7.444 0 0 0 4.404-1.439A7.496 7.496 0 0 0 18 10.5c0-.81-.132-1.588-.369-2.318a7.511 7.511 0 0 0-2.727-3.744A7.455 7.455 0 0 0 10.5 3v7.499z" fill="url(#d)"/><linearGradient id="e" x1=".5" y1=".011" x2=".5" y2="1.006"><stop offset="0" stop-color="#FFF"/><stop offset="1" stop-color="#A3E6B4"/></linearGradient><path fill-rule="evenodd" d="M6 10.5a4.5 4.5 0 0 0 4.5 4.5 4.5 4.5 0 0 0 0-9A4.502 4.502 0 0 0 6 10.5z" fill="url(#e)"/><path fill-rule="evenodd" d="M12.5 7l-2.25 4.5L9.5 10H8l1.5 3H11l3-6h-1.5z" fill="#329932"/></svg>