<svg ti:v="1" width="21" height="21" viewBox="0 0 21 21" xmlns="http://www.w3.org/2000/svg" xmlns:ti="urn:schemas-jetbrains-com:tisvg"><rect id="frame" width="21" height="21" fill="none"/><linearGradient id="a" x1=".5" y1=".004" x2=".5" y2="1"><stop offset="0" stop-color="#873E3E"/><stop offset="1" stop-color="#3F1D1D"/></linearGradient><path fill-rule="evenodd" d="M1 10.5a9.5 9.5 0 0 0 9.5 9.5 9.5 9.5 0 0 0 9.5-9.5A9.5 9.5 0 0 0 10.5 1 9.5 9.5 0 0 0 1 10.5z" fill="url(#a)"/><linearGradient id="b" x1=".5" y1="0" x2=".5" y2="1.005"><stop offset="0" stop-color="#FFF"/><stop offset="1" stop-color="#FFE6E9"/></linearGradient><path fill-rule="evenodd" d="M2 10.5a8.5 8.5 0 1 0 17 0A8.5 8.5 0 0 0 10.5 2 8.5 8.5 0 0 0 2 10.5z" fill="url(#b)"/><linearGradient id="c" x1=".5" y1=".011" x2=".5" y2="1.006"><stop offset="0" stop-color="#FFD9D9"/><stop offset="1" stop-color="#FFF"/></linearGradient><path fill-rule="evenodd" d="M3 10.5a7.5 7.5 0 0 0 7.5 7.5 7.5 7.5 0 0 0 7.5-7.5A7.5 7.5 0 0 0 10.5 3 7.5 7.5 0 0 0 3 10.5z" fill="url(#c)"/><path fill-rule="evenodd" d="M10.5 10.499l-.001.001h.001v-.001z" fill="#329932"/><path fill-rule="evenodd" d="M10.5 10.499v.001-.001z" fill="#329932"/><linearGradient id="d" x1=".5" y1="0" x2=".5" y2="1.004"><stop offset="0" stop-color="#C00"/><stop offset="1" stop-color="#FF5F3F"/></linearGradient><path fill-rule="evenodd" d="M10.5 10.499v.001h-.001l-7.13 2.316a7.504 7.504 0 0 0 2.727 3.746A7.452 7.452 0 0 0 10.5 18a7.45 7.45 0 0 0 4.404-1.438 7.508 7.508 0 0 0 2.727-3.745c.237-.73.369-1.507.369-2.317 0-.81-.132-1.588-.369-2.318a7.522 7.522 0 0 0-2.727-3.745A7.46 7.46 0 0 0 10.5 3v7.499z" fill="url(#d)"/><linearGradient id="e" x1=".5" y1=".011" x2=".5" y2="1.006"><stop offset="0" stop-color="#FFF"/><stop offset="1" stop-color="#FFB5B5"/></linearGradient><path fill-rule="evenodd" d="M6 10.5a4.5 4.5 0 1 0 9 0A4.5 4.5 0 0 0 10.5 6 4.502 4.502 0 0 0 6 10.5z" fill="url(#e)"/><path fill-rule="evenodd" d="M13 12H8V9h5v3z" fill="#E51300"/></svg>