<svg ti:v="1" width="21" height="21" viewBox="0 0 21 21" xmlns="http://www.w3.org/2000/svg" xmlns:ti="urn:schemas-jetbrains-com:tisvg"><rect id="frame" width="21" height="21" fill="none"/><g fill-rule="evenodd"><path d="M20 10.5a9.5 9.5 0 0 1-9.5 9.5A9.5 9.5 0 0 1 1 10.5 9.5 9.5 0 0 1 10.5 1a9.5 9.5 0 0 1 9.5 9.5z" fill="#242424"/><path d="M19 10.5a8.5 8.5 0 1 1-17 0 8.5 8.5 0 0 1 17 0z" fill="#292929"/><path d="M18 10.5c0 4.143-3.357 7.5-7.5 7.5A7.499 7.499 0 0 1 3 10.5C3 6.357 6.357 3 10.5 3S18 6.357 18 10.5z" fill="#292929"/><path d="M10.5 10.499l-.001.001h.001v-.001z" fill="#329932"/><path d="M10.5 10.499v.001-.001z" fill="#329932"/><path d="M17.63 8.182a7.514 7.514 0 0 0-2.726-3.744A7.462 7.462 0 0 0 10.5 3v7.499l7.13 2.319A7.496 7.496 0 0 0 18 10.5c0-.81-.132-1.587-.37-2.318z" fill="#FFCA01"/><path d="M15 10.5a4.5 4.5 0 1 1-9 0 4.5 4.5 0 0 1 9 0z"/><path d="M11.5 12h-2v2h2m0-3h-2V6.5h2V11z" fill="#FFCA01"/></g></svg>