<svg xmlns="http://www.w3.org/2000/svg" width="16" height="16" viewBox="0 0 16 16"><rect id="frame" width="16" height="16" fill="none"/><g fill="none" fill-rule="evenodd"><path fill="#9AA7B0" d="M14 8a6 6 0 1 1-7.854-5.705l-.308-.95A7.024 7.024 0 0 0 1 8c0 3.835 3.132 7 7 7 3.848 0 7-3.145 7-7h-1z" opacity=".7"/><g fill="#62B543"><path d="M13.23 6.301l1.425-.463C13.75 3.045 11.098 1 8 1v1.5a5.5 5.5 0 0 1 5.23 3.801"/><path d="M6.4 11h2l3.218-6.436a4.988 4.988 0 0 0-1.47-1.06L7.4 9l-1-2h-2l2 4z"/></g></g></svg>