<svg xmlns="http://www.w3.org/2000/svg" width="16" height="16" viewBox="0 0 16 16"><rect id="frame" width="16" height="16" fill="none"/><g fill="none" fill-rule="evenodd"><path fill="#9AA7B0" d="M9.854 13.705a6 6 0 0 1-3.707-11.41l-.31-.95C3.002 2.265 1 4.946 1 8c0 3.835 3.131 7 7 7 .755 0 1.48-.123 2.162-.344l-.309-.95z" opacity=".7"/><g fill="#F4AF3D"><path d="M8 1v1.5A5.5 5.5 0 0 1 13.5 8c0 1.83-.896 3.445-2.271 4.445l.881 1.212A7.002 7.002 0 0 0 15 8c0-3.867-3.164-7-7-7"/><path d="M7 12h2v-2H7z"/><path d="M8.5 9h-1L7 4h2z"/></g></g></svg>