<svg ti:v="1" width="21" height="21" viewBox="0 0 21 21" xmlns="http://www.w3.org/2000/svg" xmlns:ti="urn:schemas-jetbrains-com:tisvg"><rect id="frame" width="21" height="21" fill="none"/><g fill-rule="evenodd"><path d="M20 10.5a9.5 9.5 0 0 1-9.5 9.5A9.5 9.5 0 0 1 1 10.5 9.5 9.5 0 0 1 10.5 1a9.5 9.5 0 0 1 9.5 9.5z" fill="#F4F4F4"/><path d="M19 10.5A8.5 8.5 0 1 1 10.5 2a8.5 8.5 0 0 1 8.5 8.5z" fill="#EBEBEB"/><path d="M18 10.5c0 4.143-3.357 7.5-7.5 7.5A7.499 7.499 0 0 1 3 10.5C3 6.357 6.357 3 10.5 3S18 6.357 18 10.5z" fill="#EBEBEB"/><path d="M10.5 10.499l-.001.001h.001v-.001z" fill="#329932"/><path d="M10.5 10.499v.001-.001z" fill="#329932"/><path d="M17.63 8.182a7.51 7.51 0 0 0-2.726-3.744A7.455 7.455 0 0 0 10.5 3v15a7.45 7.45 0 0 0 4.404-1.438A7.5 7.5 0 0 0 18 10.5c0-.809-.132-1.588-.37-2.318z" fill="#E31500"/><path d="M15 10.5a4.5 4.5 0 1 1-9 0 4.5 4.5 0 0 1 9 0z" fill="#FFF"/><path d="M13 12H8V9h5v3z" fill="#E51300"/></g></svg>