<svg xmlns="http://www.w3.org/2000/svg" width="16" height="16" viewBox="0 0 16 16"><rect id="frame" width="16" height="16" fill="none"/><g fill="none" fill-rule="evenodd"><path fill="#9AA7B0" d="M2 8a5.999 5.999 0 0 1 4.146-5.705l-.308-.95A7.024 7.024 0 0 0 1 8c0 1.445.447 2.881 1.343 4.11l.807-.587A5.968 5.968 0 0 1 2 8" opacity=".7"/><g fill="#E05555"><path d="M8 1v1.5a5.5 5.5 0 1 1 0 11 5.467 5.467 0 0 1-3.229-1.055l-.881 1.212A6.962 6.962 0 0 0 8 15c3.848 0 7-3.145 7-7 0-3.852-3.149-7-7-7"/><path d="M4 9h8V7H4z"/></g></g></svg>