<svg ti:v="1" width="21" height="21" viewBox="0 0 21 21" xmlns="http://www.w3.org/2000/svg" xmlns:ti="urn:schemas-jetbrains-com:tisvg"><rect id="frame" width="21" height="21" fill="none"/><g fill-rule="evenodd"><path d="M20 10.5a9.5 9.5 0 0 1-9.5 9.5A9.5 9.5 0 0 1 1 10.5 9.5 9.5 0 0 1 10.5 1a9.5 9.5 0 0 1 9.5 9.5z" fill="#242424"/><path d="M19 10.5A8.5 8.5 0 1 1 10.5 2a8.5 8.5 0 0 1 8.5 8.5z" fill="#C4C4C4"/><path d="M18 10.5c0 4.143-3.357 7.5-7.5 7.5A7.499 7.499 0 0 1 3 10.5C3 6.357 6.357 3 10.5 3S18 6.357 18 10.5z" fill="#282828"/><path d="M14 12v-1a1 1 0 0 1 2 0v1h4v-1c0-2.757-2.243-5-5-5s-5 2.243-5 5v1h4z" fill="#242424"/><path d="M21 21H9v-9h12v9z" fill="#242424"/><path d="M10 20h10v-7H10v7z" fill="#C4C4C4"/><path d="M14 15h2v3h-2v-3z" fill="#282828"/><path d="M15 7a4 4 0 0 0-4 4v1h2v-1a2 2 0 0 1 4 0v1h2v-1a4 4 0 0 0-4-4z" fill="#C4C4C4"/></g></svg>