<svg ti:v="1" width="21" height="21" viewBox="0 0 21 21" xmlns="http://www.w3.org/2000/svg" xmlns:ti="urn:schemas-jetbrains-com:tisvg"><rect id="frame" width="21" height="21" fill="none"/><linearGradient id="a" x1=".5" y1=".004" x2=".5" y2="1"><stop offset="0" stop-color="#3E8187"/><stop offset="1" stop-color="#1D3C3F"/></linearGradient><path fill-rule="evenodd" d="M1 10.5a9.5 9.5 0 0 0 9.5 9.5 9.5 9.5 0 0 0 9.5-9.5A9.5 9.5 0 0 0 10.5 1 9.5 9.5 0 0 0 1 10.5z" fill="url(#a)"/><linearGradient id="b" x1=".5" y1="0" x2=".5" y2="1.007"><stop offset="0" stop-color="#FFF"/><stop offset="1" stop-color="#E1F7F9"/></linearGradient><path fill-rule="evenodd" d="M2 10.5a8.5 8.5 0 1 0 17 0A8.5 8.5 0 0 0 10.5 2 8.5 8.5 0 0 0 2 10.5z" fill="url(#b)"/><linearGradient id="c" x1=".5" y1=".011" x2=".5" y2="1.006"><stop offset="0" stop-color="#BADDE0"/><stop offset="1" stop-color="#FFF"/></linearGradient><path fill-rule="evenodd" d="M3 10.5c0 4.143 3.357 7.5 7.5 7.5a7.5 7.5 0 0 0 7.5-7.5A7.5 7.5 0 0 0 10.5 3 7.499 7.499 0 0 0 3 10.5z" fill="url(#c)"/><linearGradient id="d" x1="0" y1=".5" x2="1" y2=".5"><stop offset="0" stop-color="#818386"/><stop offset="1" stop-color="#454648"/></linearGradient><path fill-rule="evenodd" d="M10 11v1h4v-1c0-.551.448-1 1-1 .551 0 1 .449 1 1v1h4v-1c0-2.757-2.243-5-5-5s-5 2.243-5 5z" fill="url(#d)"/><linearGradient id="e" x1=".5" y1=".016" x2=".5" y2="1.006"><stop offset="0" stop-color="#775F04"/><stop offset="1" stop-color="#443400"/></linearGradient><path fill-rule="evenodd" d="M9 21h12v-9H9v9z" fill="url(#e)"/><linearGradient id="f" x1="0" y1=".5" x2="1" y2=".5"><stop offset="0" stop-color="#D7B771"/><stop offset=".319" stop-color="#FDD89D"/><stop offset="1" stop-color="#C46C29"/></linearGradient><path fill-rule="evenodd" d="M10 20h10v-7H10v7z" fill="url(#f)"/><path fill-rule="evenodd" d="M14 15h2v3h-2v-3z"/><linearGradient id="g" x1="0" y1=".5" x2="1" y2=".5"><stop offset="0" stop-color="#FFF"/><stop offset="1" stop-color="#C7C9CA"/></linearGradient><path fill-rule="evenodd" d="M11 11v1h2v-1a2 2 0 0 1 4 0v1h2v-1a4 4 0 0 0-8 0z" fill="url(#g)"/></svg>