<svg ti:v="1" width="21" height="21" viewBox="0 0 21 21" xmlns="http://www.w3.org/2000/svg" xmlns:ti="urn:schemas-jetbrains-com:tisvg"><rect id="frame" width="21" height="21" fill="none"/><linearGradient id="a" x1=".5" y1="0" x2=".5" y2="1.003"><stop offset="0" stop-color="#3E8187"/><stop offset="1" stop-color="#1D3C3F"/></linearGradient><path fill-rule="evenodd" d="M1 10.5a9.5 9.5 0 0 0 9.5 9.5 9.5 9.5 0 0 0 9.5-9.5A9.5 9.5 0 0 0 10.5 1 9.5 9.5 0 0 0 1 10.5zm5 0A4.5 4.5 0 0 1 10.5 6a4.5 4.5 0 1 1 0 9A4.5 4.5 0 0 1 6 10.5z" fill="url(#a)"/><linearGradient id="b" x1=".5" y1="-.003" x2=".5" y2="1.006"><stop offset="0" stop-color="#BADDE0"/><stop offset="1" stop-color="#FFF"/></linearGradient><path fill-rule="evenodd" d="M4.902 4.146l2.147 2.148a5.412 5.412 0 0 1 2.795-1.159V2.102a8.438 8.438 0 0 0-4.942 2.044zm9.804 3.005a5.424 5.424 0 0 1 1.16 2.794h3.033a8.442 8.442 0 0 0-2.045-4.942M2 9.945h3.033a5.414 5.414 0 0 1 1.159-2.794L4.045 5.003A8.423 8.423 0 0 0 2 9.945zm13.866 1.211a5.427 5.427 0 0 1-1.16 2.795l2.148 2.147a8.44 8.44 0 0 0 2.045-4.942M2 11.156a8.42 8.42 0 0 0 2.045 4.942l2.147-2.147a5.417 5.417 0 0 1-1.159-2.795m6.023 4.811V19a8.426 8.426 0 0 0 4.941-2.045l-2.147-2.148a5.406 5.406 0 0 1-2.794 1.16z" fill="url(#b)"/></svg>