<svg xmlns="http://www.w3.org/2000/svg" width="16" height="16" viewBox="0 0 16 16"><rect id="frame" width="16" height="16" fill="none"/><g fill="none" fill-rule="evenodd"><path fill="#9AA7B0" d="M14.467 5.321l-.924.383a5.999 5.999 0 0 1-9.786 6.538l-.706.707a7 7 0 0 0 11.416-7.628zM1.533 10.678A7 7 0 0 1 8 1c1.934 0 3.684.783 4.95 2.05l-.707.707a6 6 0 0 0-9.786 6.539l-.924.382z" opacity=".7"/><path fill="#40B6E0" d="M7 8.501l3.787 2.845 1.201-1.6L9 7.501v-4.4a4.988 4.988 0 0 0-2 0v5.4zm4.889-4.39l1.415-1.414a7.517 7.517 0 0 0-2.434-1.626l-.766 1.848a5.518 5.518 0 0 1 1.785 1.192zm-5.993 8.97l-.766 1.848a7.517 7.517 0 0 1-2.434-1.626l1.415-1.414a5.502 5.502 0 0 0 1.785 1.192z"/></g></svg>