<svg ti:v="1" width="21" height="21" viewBox="0 0 21 21" xmlns="http://www.w3.org/2000/svg" xmlns:ti="urn:schemas-jetbrains-com:tisvg"><rect id="frame" width="21" height="21" fill="none"/><linearGradient id="a" x1=".5" y1=".003" x2=".5" y2="1.003"><stop offset="0" stop-color="#3E8187"/><stop offset="1" stop-color="#1D3C3F"/></linearGradient><path fill-rule="evenodd" d="M1 10.5a9.5 9.5 0 0 0 9.5 9.5 9.5 9.5 0 0 0 9.5-9.5A9.5 9.5 0 0 0 10.5 1 9.5 9.5 0 0 0 1 10.5zm5 0A4.5 4.5 0 0 1 10.5 6a4.5 4.5 0 1 1 0 9A4.5 4.5 0 0 1 6 10.5z" fill="url(#a)"/><linearGradient id="b" x1=".5" y1="0" x2=".5" y2="1.006"><stop offset="0" stop-color="#BADDE0"/><stop offset="1" stop-color="#FFF"/></linearGradient><path fill-rule="evenodd" d="M11.056 5.135c1.05.115 2.01.532 2.794 1.159l2.147-2.148a8.439 8.439 0 0 0-4.941-2.045M4.902 4.146l2.147 2.148a5.412 5.412 0 0 1 2.795-1.159V2.101a8.44 8.44 0 0 0-4.942 2.045zM2 9.946h3.033A5.42 5.42 0 0 1 6.192 7.15L4.045 5.003A8.423 8.423 0 0 0 2 9.946zm13.866 1.21a5.434 5.434 0 0 1-1.16 2.796l2.148 2.147a8.447 8.447 0 0 0 2.045-4.943m-7.843 4.811V19a8.426 8.426 0 0 0 4.941-2.045l-2.147-2.148a5.406 5.406 0 0 1-2.794 1.16zm-6.154.988A8.426 8.426 0 0 0 9.844 19v-3.033a5.405 5.405 0 0 1-2.795-1.16l-2.147 2.148z" fill="url(#b)"/></svg>