<svg ti:v="1" width="21" height="21" viewBox="0 0 21 21" xmlns="http://www.w3.org/2000/svg" xmlns:ti="urn:schemas-jetbrains-com:tisvg"><rect id="frame" width="21" height="21" fill="none"/><linearGradient id="a" x1=".5" y1="0" x2=".5" y2=".987"><stop offset="0" stop-color="#3E8187"/><stop offset="1" stop-color="#1D3C3F"/></linearGradient><path fill-rule="evenodd" d="M1 10.5a9.5 9.5 0 0 0 9.5 9.5 9.5 9.5 0 0 0 9.5-9.5A9.5 9.5 0 0 0 10.5 1 9.5 9.5 0 0 0 1 10.5zm5 0a4.5 4.5 0 1 1 9 0 4.5 4.5 0 0 1-9 0z" fill="url(#a)"/><linearGradient id="b" x1=".5" y1="-.013" x2=".5" y2="1.015"><stop offset="0" stop-color="#BADDE0"/><stop offset="1" stop-color="#FFF"/></linearGradient><path fill-rule="evenodd" d="M11.056 5.135c1.05.115 2.01.532 2.794 1.159l2.147-2.147a8.426 8.426 0 0 0-4.941-2.045m3.65 5.049a5.427 5.427 0 0 1 1.16 2.794h3.033a8.444 8.444 0 0 0-2.045-4.942M2 9.945h3.033a5.417 5.417 0 0 1 1.159-2.794L4.045 5.003A8.425 8.425 0 0 0 2 9.945zm13.866 1.212a5.427 5.427 0 0 1-1.16 2.794l2.148 2.148a8.444 8.444 0 0 0 2.045-4.942M2 11.157a8.425 8.425 0 0 0 2.045 4.942l2.147-2.148a5.417 5.417 0 0 1-1.159-2.794m-.131 5.798A8.433 8.433 0 0 0 9.844 19v-3.033a5.414 5.414 0 0 1-2.795-1.16l-2.147 2.148z" fill="url(#b)"/></svg>