<svg ti:v="1" width="21" height="21" viewBox="0 0 21 21" xmlns="http://www.w3.org/2000/svg" xmlns:ti="urn:schemas-jetbrains-com:tisvg"><rect id="frame" width="21" height="21" fill="none"/><g fill-rule="evenodd"><path d="M10.5 15a4.5 4.5 0 1 1 0-9 4.5 4.5 0 0 1 0 9zm0-14A9.5 9.5 0 0 0 1 10.5a9.5 9.5 0 0 0 9.5 9.5 9.5 9.5 0 0 0 9.5-9.5A9.5 9.5 0 0 0 10.5 1z" fill="#242424"/><path d="M7.049 6.294a5.412 5.412 0 0 1 2.795-1.159V2.102a8.426 8.426 0 0 0-4.942 2.045m8.948 10.66a5.402 5.402 0 0 1-2.794 1.16V19a8.43 8.43 0 0 0 4.941-2.045m-6.153-.988a5.405 5.405 0 0 1-2.795-1.16l-2.147 2.148A8.433 8.433 0 0 0 9.844 19m4.862-11.85a5.424 5.424 0 0 1 1.159 2.795h3.034a8.432 8.432 0 0 0-2.045-4.942M6.193 13.951a5.427 5.427 0 0 1-1.16-2.795H2a8.432 8.432 0 0 0 2.045 4.943m7.011-13.997v3.033a5.41 5.41 0 0 1 2.794 1.159l2.147-2.147a8.423 8.423 0 0 0-4.941-2.045z" fill="#C4C4C4"/></g></svg>