<svg xmlns="http://www.w3.org/2000/svg" width="16" height="16" viewBox="0 0 16 16"><rect id="frame" width="16" height="16" fill="none"/><g fill="none" fill-rule="evenodd"><path fill="#9AA7B0" d="M13.543 10.296A6 6 0 0 1 2 8H1a7 7 0 0 0 13.467 2.679l-.924-.383zM1.533 5.32A7 7 0 0 1 15 8h-1A6 6 0 0 0 2.457 5.704l-.924-.383z" opacity=".7"/><path fill="#40B6E0" d="M7 8.501l3.787 2.845 1.201-1.6L9 7.501v-4.4a4.988 4.988 0 0 0-2 0v5.4zM2.5 8h-2c0 1.017.205 1.986.571 2.87l1.848-.765A5.482 5.482 0 0 1 2.5 8zm10.581-2.104l1.848-.766c.366.884.571 1.853.571 2.87h-2c0-.746-.15-1.456-.419-2.104z"/></g></svg>