<svg xmlns="http://www.w3.org/2000/svg" width="16" height="16" viewBox="0 0 16 16"><rect id="frame" width="16" height="16" fill="none"/><g fill="none" fill-rule="evenodd"><path fill="#9AA7B0" d="M10.679 1.533l-.383.924A5.999 5.999 0 0 1 8 14v1a7 7 0 0 0 2.679-13.467zM5.322 14.467A7 7 0 0 1 8 1v1a6 6 0 0 0-2.296 11.543l-.382.924z" opacity=".7"/><path fill="#40B6E0" d="M7 8.501l3.787 2.845 1.201-1.6L9 7.501v-4.4a4.988 4.988 0 0 0-2 0v5.4zM8 2.5v-2a7.49 7.49 0 0 0-2.87.571l.766 1.848A5.474 5.474 0 0 1 8 2.5zm2.104 10.581l.766 1.848A7.482 7.482 0 0 1 8 15.5v-2c.746 0 1.456-.15 2.104-.419z"/></g></svg>