<svg ti:v="1" width="21" height="21" viewBox="0 0 21 21" xmlns="http://www.w3.org/2000/svg" xmlns:ti="urn:schemas-jetbrains-com:tisvg"><rect id="frame" width="21" height="21" fill="none"/><linearGradient id="a" x1=".5" y1=".003" x2=".5" y2="1.003"><stop offset="0" stop-color="#3E8187"/><stop offset="1" stop-color="#1D3C3F"/></linearGradient><path fill-rule="evenodd" d="M1 10.5a9.5 9.5 0 0 0 9.5 9.5 9.5 9.5 0 0 0 9.5-9.5A9.5 9.5 0 0 0 10.5 1 9.5 9.5 0 0 0 1 10.5zm5 0a4.5 4.5 0 1 1 9 0 4.5 4.5 0 1 1-9 0z" fill="url(#a)"/><linearGradient id="b" x1=".5" y1="-.006" x2=".5" y2="1.006"><stop offset="0" stop-color="#BADDE0"/><stop offset="1" stop-color="#FFF"/></linearGradient><path fill-rule="evenodd" d="M11.056 5.135c1.05.115 2.01.532 2.794 1.159l2.147-2.147a8.427 8.427 0 0 0-4.941-2.046M4.902 4.147l2.147 2.147a5.412 5.412 0 0 1 2.795-1.159V2.101a8.427 8.427 0 0 0-4.942 2.046zm9.804 3.003a5.434 5.434 0 0 1 1.16 2.796h3.033a8.442 8.442 0 0 0-2.045-4.943M2 11.156a8.426 8.426 0 0 0 2.045 4.943l2.147-2.147a5.424 5.424 0 0 1-1.159-2.796m6.023 4.811V19a8.432 8.432 0 0 0 4.941-2.045l-2.147-2.148a5.414 5.414 0 0 1-2.794 1.16zm-6.154.988A8.433 8.433 0 0 0 9.844 19v-3.033a5.414 5.414 0 0 1-2.795-1.16l-2.147 2.148z" fill="url(#b)"/></svg>