<svg xmlns="http://www.w3.org/2000/svg" width="16" height="16" viewBox="0 0 16 16"><rect id="frame" width="16" height="16" fill="none"/><g fill="none" fill-rule="evenodd"><path fill="#9AA7B0" d="M10.296 13.543a6 6 0 0 1-6.539-9.786L3.05 3.05a7 7 0 0 0 7.629 11.417l-.383-.924zM5.32 1.533A6.999 6.999 0 0 1 15 8a6.978 6.978 0 0 1-2.05 4.95l-.707-.707a5.999 5.999 0 0 0-6.539-9.786l-.383-.924z" opacity=".7"/><path fill="#40B6E0" d="M7 8.501l3.787 2.845 1.201-1.6L9 7.501v-4.4a4.988 4.988 0 0 0-2 0v5.4zm4.889 3.388l1.415 1.414a7.505 7.505 0 0 0 1.625-2.433l-1.848-.765a5.482 5.482 0 0 1-1.192 1.784zm-8.97-5.993L1.071 5.13a7.505 7.505 0 0 1 1.625-2.433l1.415 1.414a5.476 5.476 0 0 0-1.192 1.785z"/></g></svg>