<svg ti:v="1" width="16" height="16" viewBox="0 0 16 16" xmlns="http://www.w3.org/2000/svg" xmlns:ti="urn:schemas-jetbrains-com:tisvg"><rect id="frame" width="16" height="16" fill="none"/><g fill-rule="evenodd"><path d="M16 6a5 5 0 0 1-5 5 5 5 0 0 1-5-5 5 5 0 0 1 5-5 5 5 0 0 1 5 5z" fill="#242424"/><path d="M15 6a4 4 0 1 1-8 0 4 4 0 0 1 8 0z" fill="#C4C4C4"/><path d="M12 8h-2v1h2m0-2h-2V3h2v4z" fill="#282828"/><path d="M10 10a5 5 0 0 1-5 5 5 5 0 0 1-5-5 5 5 0 0 1 5-5 5 5 0 0 1 5 5z" fill="#242424"/><path d="M9 10a4 4 0 1 1-8 0 4 4 0 0 1 8 0z" fill="#C4C4C4"/><path d="M6 12H4v1h2m0-2H4V7h2v4z" fill="#282828"/></g></svg>