<svg ti:v="1" width="16" height="16" viewBox="0 0 16 16" xmlns="http://www.w3.org/2000/svg" xmlns:ti="urn:schemas-jetbrains-com:tisvg"><rect id="frame" width="16" height="16" fill="none"/><linearGradient id="a" x1=".5" y1=".008" x2=".5" y2="1.011"><stop offset="0" stop-color="#80396B"/><stop offset="1" stop-color="#440460"/></linearGradient><path fill-rule="evenodd" d="M6 6a5 5 0 1 0 10 0A5 5 0 1 0 6 6z" fill="url(#a)"/><linearGradient id="b" x1=".5" y1=".006" x2=".5" y2="1.012"><stop offset="0" stop-color="#FF74C8"/><stop offset="1" stop-color="#8108B5"/></linearGradient><path fill-rule="evenodd" d="M7 6a4 4 0 0 0 8 0 4 4 0 0 0-8 0z" fill="url(#b)"/><path fill-rule="evenodd" d="M12 8h-2v1h2m0-2h-2V3h2v4z" fill="#FFF"/><linearGradient id="c" x1=".5" y1="0" x2=".5" y2="1"><stop offset="0" stop-color="#80396B"/><stop offset="1" stop-color="#440460"/></linearGradient><path fill-rule="evenodd" d="M0 10a5 5 0 1 0 10 0 5 5 0 1 0-10 0z" fill="url(#c)"/><linearGradient id="d" x1=".5" y1=".025" x2=".5" y2="1.027"><stop offset="0" stop-color="#FF74C8"/><stop offset="1" stop-color="#8108B5"/></linearGradient><path fill-rule="evenodd" d="M1 10a4 4 0 0 0 8 0 4 4 0 0 0-8 0z" fill="url(#d)"/><path fill-rule="evenodd" d="M6 12H4v1h2m0-2H4V7h2v4z" fill="#FFF"/></svg>