<svg ti:v="1" width="16" height="16" viewBox="0 0 16 16" xmlns="http://www.w3.org/2000/svg" xmlns:ti="urn:schemas-jetbrains-com:tisvg"><rect id="frame" width="16" height="16" fill="none"/><g fill-rule="evenodd"><path d="M4 0v1.351l4 5V13h1.414L12 10.414V6.351l4-5V0H4z" fill="#F4F4F4"/><path d="M15 1l-4 5v4l-2 2V6L5 1h10z" fill="#313131"/><path d="M10 11a5 5 0 0 1-5 5 5 5 0 0 1-5-5 5 5 0 0 1 5-5 5 5 0 0 1 5 5z" fill="#F4F4F4"/><path d="M9 11a4 4 0 1 1-8 0 4 4 0 0 1 8 0z" fill="#313131"/><path d="M6 13H4v1h2m0-2H4V8h2v4z" fill="#EBEBEB"/></g></svg>