<svg ti:v="1" width="16" height="16" viewBox="0 0 16 16" xmlns="http://www.w3.org/2000/svg" xmlns:ti="urn:schemas-jetbrains-com:tisvg"><rect id="frame" width="16" height="16" fill="none"/><g fill-rule="evenodd"><path d="M2.586 16a1.986 1.986 0 0 1-1.414-.586l-.586-.586A1.986 1.986 0 0 1 0 13.414C0 12.88.208 12.378.586 12l5-5L9 10.414l-5 5c-.378.378-.88.586-1.414.586z" fill="#F4F4F4"/><path d="M1.293 13.707l.586.586a.999.999 0 0 0 1.414 0L7.586 10l-2-2-4.293 4.293a.999.999 0 0 0 0 1.414z" fill="#313131"/><path d="M16 7A7 7 0 1 1 2 7a7 7 0 0 1 14 0z" fill="#F4F4F4"/><path d="M15 7A6 6 0 1 1 3 7a6 6 0 0 1 12 0z" fill="#313131"/><path d="M14 7a5 5 0 0 1-5 5 5 5 0 0 1-5-5 5 5 0 0 1 5-5 5 5 0 0 1 5 5z" fill="#313131"/><path d="M13 7a4 4 0 1 1-8 0 4 4 0 0 1 8 0z" fill="#EBEBEB"/><path d="M10 9H8v1h2m0-2H8V4h2v4z" fill="#313131"/></g></svg>