<svg ti:v="1" width="16" height="16" viewBox="0 0 16 16" xmlns="http://www.w3.org/2000/svg" xmlns:ti="urn:schemas-jetbrains-com:tisvg"><rect id="frame" width="16" height="16" fill="none"/><linearGradient id="a" x1=".275" y1=".367" x2=".65" y2=".742"><stop offset="0" stop-color="#9C7632"/><stop offset="1" stop-color="#6D2020"/></linearGradient><path fill-rule="evenodd" d="M.586 12c-.378.378-.586.88-.586 1.414 0 .534.208 1.036.586 1.414l.586.586c.378.378.879.586 1.414.586.534 0 1.036-.208 1.414-.586l5-4.999L5.586 7l-5 5z" fill="url(#a)"/><linearGradient id="b" x1=".317" y1=".38" x2=".621" y2=".683"><stop offset="0" stop-color="#FFE077"/><stop offset="1" stop-color="#D98C00"/></linearGradient><path fill-rule="evenodd" d="M1.293 12.707a.999.999 0 0 0 0 1.414l.586.586a.999.999 0 0 0 1.414 0l4.293-4.292-2-2.001-4.293 4.293z" fill="url(#b)"/><linearGradient id="c" x1=".5" y1=".012" x2=".5" y2="1"><stop offset="0" stop-color="#3B7380"/><stop offset="1" stop-color="#2B4C6D"/></linearGradient><path fill-rule="evenodd" d="M2 7a7 7 0 1 0 14 0 7 7 0 0 0-7-7 7 7 0 0 0-7 7z" fill="url(#c)"/><linearGradient id="d" x1=".5" y1=".006" x2=".5" y2="1"><stop offset="0" stop-color="#9ED3FF"/><stop offset="1" stop-color="#5AA3CF"/></linearGradient><path fill-rule="evenodd" d="M3 7a6 6 0 0 0 6 6A6 6 0 1 0 9 1a6 6 0 0 0-6 6z" fill="url(#d)"/><linearGradient id="e" x1=".5" y1=".013" x2=".5" y2="1"><stop offset="0" stop-color="#509FE8"/><stop offset="1" stop-color="#FFF"/></linearGradient><path fill-rule="evenodd" d="M4 7a5 5 0 0 0 5 5A5 5 0 1 0 9 2a5 5 0 0 0-5 5z" fill="url(#e)"/><linearGradient id="f" x1=".5" y1=".012" x2=".5" y2=".988"><stop offset="0" stop-color="#FFF"/><stop offset=".313" stop-color="#FFF"/><stop offset="1" stop-color="#8FBBC2"/></linearGradient><path fill-rule="evenodd" d="M5 7a4 4 0 0 0 8 0 4 4 0 0 0-8 0z" fill="url(#f)"/><linearGradient id="g" x1=".5" y1="0" x2=".5" y2="1.01"><stop offset="0" stop-color="#FF74C8"/><stop offset="1" stop-color="#8108B5"/></linearGradient><path fill-rule="evenodd" d="M8 8h2.001V4H8m0 6h2.001V9H8v1z" fill="url(#g)"/></svg>