<svg xmlns="http://www.w3.org/2000/svg" width="16" height="16" viewBox="0 0 16 16"><rect id="frame" width="16" height="16" fill="none"/><path d="M4.5 8A3.5 3.5 0 0 1 8 4.5a3.5 3.5 0 0 1 .449.045l1.306-1.306A7.178 7.178 0 0 0 8 3a7.542 7.542 0 0 0-7 5 7.938 7.938 0 0 0 1.517 2.478l2.028-2.029A3.5 3.5 0 0 1 4.5 8zm2.1 1.424A2 2 0 0 0 9.425 6.6zm5.271-5.274l-1.387 1.387a3.5 3.5 0 0 1-4.947 4.947l-1.382 1.382A7.189 7.189 0 0 0 8 13a7.542 7.542 0 0 0 7-5 7.817 7.817 0 0 0-3.129-3.85z" fill="#6e6e6e"/><path fill="#db5860" d="M2 13.116L13.116 2l.884.885L2.884 14z"/></svg>