<svg ti:v="1" width="16" height="16" viewBox="0 0 16 16" xmlns="http://www.w3.org/2000/svg" xmlns:ti="urn:schemas-jetbrains-com:tisvg"><rect id="frame" width="16" height="16" fill="none"/><g fill-rule="evenodd"><path d="M15 3.408L4.408 14h-.191L2 11.783v-.203L12.58 1h.191L15 3.228v.18z" fill="#242424"/><path d="M16 7.139l-.23-.278C15.638 6.703 12.513 3 8.5 3S1.362 6.703 1.23 6.86L1 7.14v.723l.23.278C1.362 8.297 4.487 12 8.5 12s7.138-3.703 7.27-3.86l.23-.278v-.723z" fill="#242424"/><path d="M15 7.5S12.09 4 8.5 4 2 7.5 2 7.5 4.91 11 8.5 11 15 7.5 15 7.5z" fill="#C4C4C4"/><path d="M11 7.5a2.5 2.5 0 1 0-5 0 2.5 2.5 0 0 0 5 0z" fill="#282828"/><path d="M4.312 12.682l-1-1 9.363-9.363 1 1-9.363 9.363z" fill="#F28365"/></g></svg>