<svg ti:v="1" width="16" height="16" viewBox="0 0 16 16" xmlns="http://www.w3.org/2000/svg" xmlns:ti="urn:schemas-jetbrains-com:tisvg"><rect id="frame" width="16" height="16" fill="none"/><g fill-rule="evenodd"><path d="M15 8A7 7 0 1 1 1 8a7 7 0 0 1 14 0z" fill="#F4F4F4"/><path d="M14 8A6 6 0 1 1 2 8a6 6 0 0 1 12 0z" fill="#313131"/><path d="M12 9H4V7h8v2z" fill="#EBEBEB"/><path d="M13.727 0h-.555L0 13.171v.557L2.272 16h.557L16 2.829v-.557L13.727 0z" fill="#F4F4F4"/><path d="M2.55 14.864L1.136 13.45 13.449 1.136l1.415 1.415L2.55 14.864z" fill="#A1250C"/></g></svg>