<svg ti:v="1" width="16" height="16" viewBox="0 0 16 16" xmlns="http://www.w3.org/2000/svg" xmlns:ti="urn:schemas-jetbrains-com:tisvg"><rect id="frame" width="16" height="16" fill="none"/><linearGradient id="a" x1=".5" y1="0" x2=".5" y2="1.005"><stop offset="0" stop-color="#873E3E"/><stop offset="1" stop-color="#3F1D1D"/></linearGradient><path fill-rule="evenodd" d="M1 8a7 7 0 1 0 14 0A7 7 0 1 0 1 8z" fill="url(#a)"/><linearGradient id="b" x1=".5" y1="0" x2=".5" y2="1.024"><stop offset="0" stop-color="#FF8C74"/><stop offset="1" stop-color="#DE5858"/></linearGradient><path fill-rule="evenodd" d="M2 8c0 3.315 2.686 6 6 6s6-2.685 6-6A6 6 0 1 0 2 8z" fill="url(#b)"/><path fill-rule="evenodd" d="M12 9H4V7h8v2z" fill="#FFF"/><linearGradient id="c" x1=".5" y1=".009" x2=".5" y2="1"><stop offset="0" stop-color="#3F3F00"/><stop offset="1" stop-color="#231D00"/></linearGradient><path fill-rule="evenodd" d="M13.172 0L0 13.171v.557L2.272 16h.556L16 2.829v-.557L13.726 0h-.554z" fill="url(#c)"/><linearGradient id="d" x1=".5" y1="-.004" x2=".5" y2="1.007"><stop offset="0" stop-color="#FF0"/><stop offset="1" stop-color="#FFD500"/></linearGradient><path fill-rule="evenodd" d="M1.136 13.449l1.414 1.415L14.864 2.55l-1.415-1.413L1.136 13.449z" fill="url(#d)"/></svg>