<svg ti:v="1" width="16" height="16" viewBox="0 0 16 16" xmlns="http://www.w3.org/2000/svg" xmlns:ti="urn:schemas-jetbrains-com:tisvg"><rect id="frame" width="16" height="16" fill="none"/><linearGradient id="a" x1=".5" y1=".002" x2=".5" y2=".996"><stop offset="0" stop-color="#C28C21"/><stop offset="1" stop-color="#634933"/></linearGradient><path d="M1 15V3h6.586l2-2H16v14H1z" fill="url(#a)"/><linearGradient id="b" x1=".5" y1=".002" x2=".5" y2=".996"><stop offset="0" stop-color="#FFE9BD"/><stop offset="1" stop-color="#D4A24C"/></linearGradient><path d="M15 14V2h-5L8 4H2v10h13z" fill="url(#b)"/><linearGradient id="c" x1=".5" y1=".002" x2=".5" y2=".996"><stop offset="0" stop-color="#B88143"/><stop offset="1" stop-color="#8A4717"/></linearGradient><path d="M3 6h11v7H3z" fill="url(#c)"/><linearGradient id="d" x1=".5" y1="0" x2=".5" y2="1"><stop offset="0" stop-color="#FFF"/><stop offset="1" stop-color="#DDECFC"/></linearGradient><path d="M9 11.5a4.5 4.5 0 1 1-9 0 4.5 4.5 0 0 1 9 0z" fill="url(#d)"/><linearGradient id="e" x1=".5" y1="0" x2=".5" y2="1"><stop offset="0" stop-color="#576A80"/><stop offset="1" stop-color="#2D3742"/></linearGradient><path d="M8 11.5a3.5 3.5 0 1 1-7 0 3.5 3.5 0 0 1 7 0z" fill="url(#e)"/><linearGradient id="f" x1=".5" y1="0" x2=".5" y2="1"><stop offset="0" stop-color="#FFF"/><stop offset="1" stop-color="#DDECFC"/></linearGradient><path d="M4.9 12.2h-.8L3.9 10 4 9h1l.1 1zm.1.8H4v1h1zm0 0" fill="url(#f)"/></svg>