<svg ti:v="1" width="16" height="16" viewBox="0 0 16 16" xmlns="http://www.w3.org/2000/svg" xmlns:ti="urn:schemas-jetbrains-com:tisvg"><rect id="frame" width="16" height="16" fill="none"/><path d="M1 15V3h6.586l2-2H16v14H1z" fill="#252525"/><path d="M15 14V2h-5L8 4H2v10h13z" fill="#E9A755"/><path d="M3 6h11v7H3z" fill="#292929"/><path d="M9 11.5a4.5 4.5 0 1 1-9 0 4.5 4.5 0 0 1 9 0z" fill="#252525"/><path d="M8 11.5a3.5 3.5 0 1 1-7 0 3.5 3.5 0 0 1 7 0z" fill="#43C2FF"/><path d="M4.9 12.2h-.8L3.9 10 4 9h1l.1 1zm.1.8H4v1h1zm0 0" fill="#292929"/></svg>