<svg xmlns="http://www.w3.org/2000/svg" width="16" height="16" viewBox="0 0 16 16"><rect id="frame" width="16" height="16" fill="none"/><g fill="none" fill-rule="evenodd"><path fill="#9AA7B0" d="M13.657 3.89l-.808.587A5.962 5.962 0 0 1 14 8a6 6 0 1 1-7.854-5.705l-.308-.95A7.024 7.024 0 0 0 1 8c0 3.835 3.132 7 7 7 3.847 0 7-3.144 7-7a6.964 6.964 0 0 0-1.343-4.11" opacity=".7"/><g fill="#40B6E0"><path d="M12.11 2.343A6.962 6.962 0 0 0 8 1v1.5a5.46 5.46 0 0 1 3.23 1.055l.88-1.212z"/><path d="M7 8.501l3.787 2.845 1.201-1.6L9 7.501v-4.4a4.988 4.988 0 0 0-2 0v5.4z"/></g></g></svg>