<svg ti:v="1" width="21" height="21" viewBox="0 0 21 21" xmlns="http://www.w3.org/2000/svg" xmlns:ti="urn:schemas-jetbrains-com:tisvg"><rect id="frame" width="21" height="21" fill="none"/><linearGradient id="a" x1=".5" y1=".004" x2=".5" y2="1"><stop offset="0" stop-color="#0A4D6F"/><stop offset="1" stop-color="#072C3F"/></linearGradient><path fill-rule="evenodd" d="M1 10.5a9.5 9.5 0 0 0 9.5 9.5 9.5 9.5 0 0 0 9.5-9.5A9.5 9.5 0 0 0 10.5 1 9.5 9.5 0 0 0 1 10.5z" fill="url(#a)"/><linearGradient id="b" x1=".5" y1="0" x2=".5" y2="1.005"><stop offset="0" stop-color="#FFF"/><stop offset="1" stop-color="#E6F7FF"/></linearGradient><path fill-rule="evenodd" d="M2 10.5a8.5 8.5 0 1 0 17 0C19 5.804 15.195 2 10.5 2A8.499 8.499 0 0 0 2 10.5z" fill="url(#b)"/><linearGradient id="c" x1=".5" y1=".011" x2=".5" y2="1.006"><stop offset="0" stop-color="#CEF"/><stop offset="1" stop-color="#FFF"/></linearGradient><path fill-rule="evenodd" d="M3 10.5a7.5 7.5 0 0 0 15 0A7.5 7.5 0 0 0 10.5 3 7.5 7.5 0 0 0 3 10.5z" fill="url(#c)"/><linearGradient id="d" x1=".5" y1="0" x2=".5" y2="1.007"><stop offset="0" stop-color="#0053A8"/><stop offset="1" stop-color="#0AC"/></linearGradient><path fill-rule="evenodd" d="M10.5 10.499L6.096 4.437a7.518 7.518 0 0 0-2.727 3.744 7.454 7.454 0 0 0 0 4.635 7.497 7.497 0 0 0 2.727 3.745A7.446 7.446 0 0 0 10.5 18a7.446 7.446 0 0 0 4.404-1.439 7.487 7.487 0 0 0 2.726-3.744c.238-.73.37-1.507.37-2.317a7.516 7.516 0 0 0-3.096-6.063A7.46 7.46 0 0 0 10.5 3v7.499z" fill="url(#d)"/><linearGradient id="e" x1=".5" y1=".011" x2=".5" y2="1.006"><stop offset="0" stop-color="#FFF"/><stop offset="1" stop-color="#B5DAFF"/></linearGradient><path fill-rule="evenodd" d="M6 10.5a4.5 4.5 0 1 0 9 0 4.5 4.5 0 0 0-9 0z" fill="url(#e)"/><path fill-rule="evenodd" d="M11 10V7H9v5h5v-2h-3z" fill="#1AA1E2"/></svg>