<svg xmlns="http://www.w3.org/2000/svg" width="16" height="16" viewBox="0 0 16 16"><rect id="frame" width="16" height="16" fill="none"/><g fill="none" fill-rule="evenodd"><path fill="#9AA7B0" d="M6.146 2.295l-.308-.95A7.023 7.023 0 0 0 1 8h1a5.999 5.999 0 0 1 4.146-5.705" opacity=".7"/><g fill="#40B6E0"><path d="M8 1v1.5a5.5 5.5 0 1 1-5.229 7.199l-1.427.463A7.026 7.026 0 0 0 8 15c3.848 0 7-3.145 7-7 0-3.852-3.149-7-7-7"/><path d="M7 8.501l3.787 2.845 1.201-1.6L9 7.501v-4.4a4.988 4.988 0 0 0-2 0v5.4z"/></g></g></svg>