<svg ti:v="1" width="21" height="21" viewBox="0 0 21 21" xmlns="http://www.w3.org/2000/svg" xmlns:ti="urn:schemas-jetbrains-com:tisvg"><rect id="frame" width="21" height="21" fill="none"/><linearGradient id="a" x1=".5" y1=".004" x2=".5" y2="1"><stop offset="0" stop-color="#0A4D6F"/><stop offset="1" stop-color="#072C3F"/></linearGradient><path fill-rule="evenodd" d="M1 10.5a9.5 9.5 0 0 0 9.5 9.5 9.5 9.5 0 0 0 9.5-9.5A9.5 9.5 0 0 0 10.5 1 9.5 9.5 0 0 0 1 10.5z" fill="url(#a)"/><linearGradient id="b" x1=".5" y1="0" x2=".5" y2="1.005"><stop offset="0" stop-color="#FFF"/><stop offset="1" stop-color="#E6F7FF"/></linearGradient><path fill-rule="evenodd" d="M2 10.5a8.5 8.5 0 0 0 8.5 8.5 8.5 8.5 0 0 0 8.5-8.5A8.5 8.5 0 0 0 10.5 2 8.5 8.5 0 0 0 2 10.5z" fill="url(#b)"/><linearGradient id="c" x1=".5" y1=".011" x2=".5" y2="1.006"><stop offset="0" stop-color="#CEF"/><stop offset="1" stop-color="#FFF"/></linearGradient><path fill-rule="evenodd" d="M3 10.5c0 4.143 3.357 7.5 7.5 7.5a7.5 7.5 0 0 0 7.5-7.5A7.5 7.5 0 0 0 10.5 3 7.499 7.499 0 0 0 3 10.5z" fill="url(#c)"/><path fill-rule="evenodd" d="M10.5 10.499l-.001.001h.001v-.001z" fill="#329932"/><path fill-rule="evenodd" d="M10.5 10.499v.001-.001z" fill="#329932"/><linearGradient id="d" x1=".5" y1="0" x2=".5" y2="1.007"><stop offset="0" stop-color="#0053A8"/><stop offset="1" stop-color="#0AC"/></linearGradient><path fill-rule="evenodd" d="M10.5 10.499v.001h-.001l-7.13 2.317a7.502 7.502 0 0 0 2.727 3.745 7.46 7.46 0 0 0 8.808 0 7.491 7.491 0 0 0 2.726-3.744 7.467 7.467 0 0 0 0-4.636 7.508 7.508 0 0 0-2.726-3.744A7.455 7.455 0 0 0 10.5 3v7.499z" fill="url(#d)"/><linearGradient id="e" x1=".5" y1=".011" x2=".5" y2="1.006"><stop offset="0" stop-color="#FFF"/><stop offset="1" stop-color="#B5DAFF"/></linearGradient><path fill-rule="evenodd" d="M6 10.5a4.5 4.5 0 1 0 9 0 4.5 4.5 0 1 0-9 0z" fill="url(#e)"/><path fill-rule="evenodd" d="M11 10V7H9v5h5v-2h-3z" fill="#1AA1E2"/></svg>