<svg xmlns="http://www.w3.org/2000/svg" width="16" height="16" viewBox="0 0 16 16"><rect id="frame" width="16" height="16" fill="none"/><g fill="none" fill-rule="evenodd"><path fill="#9AA7B0" d="M8 14A6 6 0 0 1 6.146 2.295l-.308-.951C3.001 2.266 1 4.947 1 8c0 3.835 3.132 7 7 7a7.002 7.002 0 0 0 5.657-2.89l-.807-.587A5.986 5.986 0 0 1 8 14" opacity=".7"/><g fill="#40B6E0"><path d="M8 1v1.5a5.5 5.5 0 0 1 5.229 7.199l1.427.464A7.002 7.002 0 0 0 15 8c0-3.867-3.164-7-7-7"/><path d="M7 8.501l3.787 2.845 1.201-1.6L9 7.501v-4.4a4.988 4.988 0 0 0-2 0v5.4z"/></g></g></svg>