<svg xmlns="http://www.w3.org/2000/svg" width="16" height="16" viewBox="0 0 16 16"><rect id="frame" width="16" height="16" fill="none"/><g fill="none" fill-rule="evenodd"><path fill="#9AA7B0" d="M14 8a6 6 0 1 1-7.854-5.705l-.308-.951C3.001 2.266 1 4.947 1 8c0 3.835 3.132 7 7 7 3.848 0 7-3.145 7-7h-1z" opacity=".7"/><g fill="#40B6E0"><path d="M13.23 6.301l1.425-.463C13.75 3.045 11.1 1 8.002 1v1.5a5.499 5.499 0 0 1 5.228 3.801"/><path d="M7 8.501l3.787 2.845 1.201-1.6L9 7.501v-4.4a4.988 4.988 0 0 0-2 0v5.4z"/></g></g></svg>