<svg ti:v="1" width="16" height="16" viewBox="0 0 16 16" xmlns="http://www.w3.org/2000/svg" xmlns:ti="urn:schemas-jetbrains-com:tisvg"><rect id="frame" width="16" height="16" fill="none"/><g fill-rule="evenodd"><path d="M14.316 11a6.974 6.974 0 0 0-5.15-9.896L8.551 1H2.586L0 3.586V5h1.684a6.974 6.974 0 0 0 5.15 9.896l.615.104h5.965L16 12.414V11h-1.684z" fill="#242424"/><path d="M12.452 12A5.952 5.952 0 0 0 14 8a5.996 5.996 0 0 0-5-5.91v2.052A3.99 3.99 0 0 1 12 8a3.935 3.935 0 0 1-1 2.616V8l-2 2v4h4l2-2M7 2v4L5 8V5.383c-.617.7-1 1.609-1 2.617a3.99 3.99 0 0 0 3 3.858v2.052A5.996 5.996 0 0 1 2 8c0-1.542.591-2.938 1.547-4H1l1.999-2H7z" fill="#C4C4C4"/></g></svg>