<svg ti:v="1" width="16" height="16" viewBox="0 0 16 16" xmlns="http://www.w3.org/2000/svg" xmlns:ti="urn:schemas-jetbrains-com:tisvg"><rect id="frame" width="16" height="16" fill="none"/><linearGradient id="a" x1=".5" y1=".009" x2=".5" y2=".999"><stop offset="0" stop-color="#006F33"/><stop offset="1" stop-color="#37AD0D"/></linearGradient><path fill-rule="evenodd" d="M2.586 1L0 3.586V5h1.683A6.929 6.929 0 0 0 1 8a6.973 6.973 0 0 0 5.834 6.896L7.45 15h5.964L16 12.414V11h-1.683A6.926 6.926 0 0 0 15 8a6.973 6.973 0 0 0-5.834-6.896L8.551 1H2.586z" fill="url(#a)"/><linearGradient id="b" x1=".5" y1="-.008" x2=".5" y2=".994"><stop offset="0" stop-color="#E1FFD6"/><stop offset="1" stop-color="#62F2A5"/></linearGradient><path fill-rule="evenodd" d="M3 2L1 4h2.547A5.95 5.95 0 0 0 2 8a5.996 5.996 0 0 0 5 5.91v-2.052A3.989 3.989 0 0 1 4 8c0-1.007.382-1.917 1-2.617V8l2-2V2m2 2.141c1.723.447 3 1.998 3 3.859a3.935 3.935 0 0 1-1 2.616V8l-2 2v4h4l2-2h-2.548A5.952 5.952 0 0 0 14 8a5.998 5.998 0 0 0-5-5.911v2.052z" fill="url(#b)"/></svg>