<svg ti:v="1" width="16" height="16" viewBox="0 0 16 16" xmlns="http://www.w3.org/2000/svg" xmlns:ti="urn:schemas-jetbrains-com:tisvg"><rect id="frame" width="16" height="16" fill="none"/><g fill-rule="evenodd"><path d="M4 6a6 6 0 0 0 12 0A6 6 0 0 0 4 6z" fill="#242424"/><path d="M5 6a5 5 0 1 0 10 0A5 5 0 0 0 5 6z" fill="#C4C4C4"/><path d="M11 8H9v2h2m0-3H9V2h2v5z" fill="#282828"/><path d="M3.801 16C1.598 15.553 0 13.57 0 11.312 0 10.486.215 9.693.605 9H0V8l1.5-2h4.699C8.401 6.447 10 8.43 10 10.687A4.7 4.7 0 0 1 9.394 13H10v.937L8.5 16H3.801z" fill="#242424"/><path d="M7.5 15l1-1H6.98A3.735 3.735 0 0 0 9 10.687 3.764 3.764 0 0 0 6 7v1a2.562 2.562 0 0 1 0 5v-1.5l-1 1V15m0-8v2.5l-1 1V9a2.564 2.564 0 0 0 0 5v1a3.764 3.764 0 0 1-3-3.688C1 9.868 1.823 8.627 3.019 8H1.5l1-1H5z" fill="#C4C4C4"/></g></svg>