<svg ti:v="1" width="16" height="16" viewBox="0 0 16 16" xmlns="http://www.w3.org/2000/svg" xmlns:ti="urn:schemas-jetbrains-com:tisvg"><rect id="frame" width="16" height="16" fill="none"/><linearGradient id="a" x1=".5" y1="0" x2=".5" y2="1"><stop offset="0" stop-color="#80396B"/><stop offset="1" stop-color="#440460"/></linearGradient><path fill-rule="evenodd" d="M4 6a6 6 0 0 0 12 0A6 6 0 1 0 4 6z" fill="url(#a)"/><linearGradient id="b" x1=".5" y1="0" x2=".5" y2="1.007"><stop offset="0" stop-color="#FF74C8"/><stop offset="1" stop-color="#8108B5"/></linearGradient><path fill-rule="evenodd" d="M5 6a5 5 0 1 0 10 0A5 5 0 1 0 5 6z" fill="url(#b)"/><path fill-rule="evenodd" d="M11 8H9v2h2m0-3H9V2h2v5z" fill="#FFF"/><linearGradient id="c" x1=".5" y1=".013" x2=".5" y2="1.006"><stop offset="0" stop-color="#006F33"/><stop offset="1" stop-color="#37AD0D"/></linearGradient><path fill-rule="evenodd" d="M1.5 6L0 8v1h.605A4.713 4.713 0 0 0 0 11.313C0 13.57 1.599 15.553 3.801 16H8.5l1.5-2.063V13h-.605c.39-.694.605-1.487.605-2.313C10 8.43 8.402 6.447 6.199 6H1.5z" fill="url(#c)"/><linearGradient id="d" x1=".5" y1=".007" x2=".5" y2="1.016"><stop offset="0" stop-color="#E1FFD6"/><stop offset="1" stop-color="#62F2A5"/></linearGradient><path fill-rule="evenodd" d="M6 8a2.564 2.564 0 0 1 0 5v-1.5l-1 1V15h2.5l1-1H6.981A3.736 3.736 0 0 0 9 10.687 3.764 3.764 0 0 0 6 7M2.5 7l-1 1h1.52A3.735 3.735 0 0 0 1 11.313 3.763 3.763 0 0 0 4 15v-1a2.562 2.562 0 0 1-2-2.5c0-1.222.855-2.241 2-2.5v1.5l1-1V7H2.5z" fill="url(#d)"/></svg>