<svg xmlns="http://www.w3.org/2000/svg" width="16" height="16" viewBox="0 0 16 16"><rect id="frame" width="16" height="16" fill="none"/><path d="M10.754 4.835l.617-1.783a6 6 0 0 1 2.569 4.111L12.081 7a4.206 4.206 0 0 0-1.327-2.165zM9.393 8.766L9.312 9H9.26l.013.027 1.818 1.817A4.2 4.2 0 0 1 3.9 8.894l-1.858-.162a6 6 0 0 0 10.323 3.387l1.647 1.646v-5zm-2.774-1.9L4.91 5.156a4.2 4.2 0 0 1 2.148-1.231l.281-1.876a5.983 5.983 0 0 0-3.7 1.834L1.993 2.239v5h4.57z" fill="#afb1b3"/><path d="M8.5 9.952a1.083 1.083 0 0 1-.081.427 1.063 1.063 0 0 1-.219.33.953.953 0 0 1-.329.215 1.074 1.074 0 0 1-.406.076.981.981 0 0 1-.382-.073.938.938 0 0 1-.306-.2.907.907 0 0 1-.2-.3.939.939 0 0 1-.073-.372 1.111 1.111 0 0 1 .082-.434.945.945 0 0 1 .214-.333 1 1 0 0 1 .33-.212A1.094 1.094 0 0 1 7.546 9a.968.968 0 0 1 .38.073.925.925 0 0 1 .5.5.956.956 0 0 1 .074.379zM8.6 8H7.46l1.047-7h2.515z" fill="#c75450"/></svg>