<svg ti:v="1" width="16" height="16" viewBox="0 0 16 16" xmlns="http://www.w3.org/2000/svg" xmlns:ti="urn:schemas-jetbrains-com:tisvg"><rect id="frame" width="16" height="16" fill="none"/><path fill-rule="evenodd" d="M4 0v1.351l4 5V13h1.414L12 10.414V6.351l4-5V0H4z" fill="#3F8187"/><linearGradient id="a" x1="0" y1=".5" x2="1" y2=".5"><stop offset="0" stop-color="#B8E3FF"/><stop offset=".399" stop-color="#F5F5F5"/><stop offset="1" stop-color="#70BCE5"/></linearGradient><path fill-rule="evenodd" d="M5 1l4 5v6l2-2V6l4-5H5z" fill="url(#a)"/><linearGradient id="b" x1=".5" y1="0" x2=".5" y2="1"><stop offset="0" stop-color="#80396B"/><stop offset="1" stop-color="#440460"/></linearGradient><path fill-rule="evenodd" d="M0 11a5 5 0 1 0 10 0 5 5 0 1 0-10 0z" fill="url(#b)"/><linearGradient id="c" x1=".5" y1=".025" x2=".5" y2="1.027"><stop offset="0" stop-color="#FF74C8"/><stop offset="1" stop-color="#8108B5"/></linearGradient><path fill-rule="evenodd" d="M1 11a4 4 0 0 0 8 0 4 4 0 0 0-8 0z" fill="url(#c)"/><path fill-rule="evenodd" d="M6 13H4v1h2m0-2H4V8h2v4z" fill="#FFF"/></svg>