<svg ti:v="1" width="16" height="16" viewBox="0 0 16 16" xmlns="http://www.w3.org/2000/svg" xmlns:ti="urn:schemas-jetbrains-com:tisvg"><rect id="frame" width="16" height="16" fill="none"/><linearGradient id="a" x1=".5" y1=".032" x2=".5" y2="1"><stop offset="0" stop-color="#746F00"/><stop offset="1" stop-color="#623F00"/></linearGradient><path fill-rule="evenodd" d="M1 11c0 1.654 1.346 3 3 3s3-1.346 3-3-1.346-3-3-3-3 1.346-3 3z" fill="url(#a)"/><linearGradient id="b" x1=".5" y1="0" x2=".5" y2="1"><stop offset="0" stop-color="#FFF988"/><stop offset="1" stop-color="#FFBD44"/></linearGradient><path fill-rule="evenodd" d="M2 11a2 2 0 0 0 2 2 2 2 0 0 0 0-4 2 2 0 0 0-2 2z" fill="url(#b)"/><linearGradient id="c" x1=".5" y1=".02" x2=".5" y2="1.02"><stop offset="0" stop-color="#033480"/><stop offset="1" stop-color="#014E80"/></linearGradient><path fill-rule="evenodd" d="M1 2v4h7v3.414l4 4.001 4-4.001V4.585l-2 2.001V5c0-1.206-.798-3-3-3H1z" fill="url(#c)"/><linearGradient id="d" x1=".5" y1=".012" x2=".5" y2="1.012"><stop offset="0" stop-color="#9ED7FF"/><stop offset="1" stop-color="#BFF2FF"/></linearGradient><path fill-rule="evenodd" d="M2 3v2h9v4L9 7v2l3 3 3-3V7l-2 2V5s0-2-2-2H2z" fill="url(#d)"/></svg>