<svg ti:v="1" width="16" height="16" viewBox="0 0 16 16" xmlns="http://www.w3.org/2000/svg" xmlns:ti="urn:schemas-jetbrains-com:tisvg"><rect id="frame" width="16" height="16" fill="none"/><g fill-rule="evenodd"><path d="M4 14c-1.654 0-3-1.346-3-3s1.346-3 3-3 3 1.346 3 3-1.346 3-3 3z" fill="#242424"/><path d="M6 11a2 2 0 1 1-4.001-.001A2 2 0 0 1 6 11z" fill="#C4C4C4"/><path d="M8 9.414V6H1V2h10c2.201 0 3 1.794 3 3v1.586l2-2v4.828l-4 4-4-4z" fill="#242424"/><path d="M13 9V5s0-2-2-2H2v2h9v4L9 7v2l3 3 3-3V7l-2 2z" fill="#7CBEFF"/></g></svg>