<svg ti:v="1" width="16" height="16" viewBox="0 0 16 16" xmlns="http://www.w3.org/2000/svg" xmlns:ti="urn:schemas-jetbrains-com:tisvg"><rect id="frame" width="16" height="16" fill="none"/><linearGradient id="a" x1="0" y1=".5" x2="1" y2=".5"><stop offset="0" stop-color="#167D87"/><stop offset="1" stop-color="#09585D"/></linearGradient><path fill-rule="evenodd" d="M6 0v2h1v2.698l-3 5.999v.538L5.382 14h9.236L16 11.235v-.538l-3-5.999V2h1V0H6z" fill="url(#a)"/><linearGradient id="b" x1="0" y1=".5" x2="1" y2=".5"><stop offset="0" stop-color="#6ACBFF"/><stop offset="1" stop-color="#82FFE6"/></linearGradient><path fill-rule="evenodd" d="M7 1v1h1v3l-3 6 1 2h8l1-2-3-6V2h1V1H7z" fill="url(#b)"/><path fill-rule="evenodd" d="M12.132 7H9.333L7 12h-.382l-.465-.928 2.679-5.517L9 5.303V2h2v3.303l.168.252L12.132 7z" fill="#FFF"/><linearGradient id="c" x1=".5" y1=".011" x2=".5" y2="1.046"><stop offset="0" stop-color="#455A5D"/><stop offset="1" stop-color="#1A7485"/></linearGradient><path fill-rule="evenodd" d="M2.63 4.4c-.235.11-1.616.766-2.231 2.23C.312 6.84 0 7.836 0 8.462a4.466 4.466 0 0 0 4.461 4.463 4.37 4.37 0 0 0 1.237-.178l2.593 2.596c.109.109.702.658 1.557.658.379 0 .945-.115 1.49-.658 1.117-1.12.613-2.435 0-3.047L8.744 9.698c.119-.403.178-.817.178-1.237A4.466 4.466 0 0 0 4.461 4c-.628 0-1.594.289-1.831.4z" fill="url(#c)"/><linearGradient id="d" x1=".5" y1=".004" x2=".5" y2="1.023"><stop offset="0" stop-color="#BFFFE6"/><stop offset="1" stop-color="#A8D8E0"/></linearGradient><path fill-rule="evenodd" d="M3 5.272L5.373 7.62 3.627 9.366l-2.345-2.36c-.198.437-.272.976-.272 1.486a3.49 3.49 0 0 0 3.489 3.492c.513 0 1.062-.062 1.499-.26l2.863 2.877s.873.873 1.745 0c.873-.873 0-1.746 0-1.746l-2.936-2.85c.198-.44.32-1.001.32-1.513a3.49 3.49 0 0 0-3.491-3.49c-.51 0-1.061.071-1.499.27z" fill="url(#d)"/></svg>