<svg ti:v="1" width="16" height="16" viewBox="0 0 16 16" xmlns="http://www.w3.org/2000/svg" xmlns:ti="urn:schemas-jetbrains-com:tisvg"><rect id="frame" width="16" height="16" fill="none"/><g fill-rule="evenodd"><path d="M16 10.697l-3-6V2h1V0H6v2h1v2.697l-3 6v.538L5.382 14h9.236L16 11.235v-.538z" fill="#F4F4F4"/><path d="M12 5V2h1V1H7v1h1v3l-3 6 1 2h8l1-2-3-6z" fill="#313131"/><path d="M12.132 7H9.333L7 12h-.382l-.465-.928 2.679-5.517L9 5.303V2h2v3.303l.168.252L12.132 7z" fill="#EBEBEB"/><path d="M9.848 16c.38 0 .946-.115 1.49-.658 1.117-1.119.614-2.436 0-3.047L8.744 9.698c.12-.403.178-.817.178-1.236A4.467 4.467 0 0 0 4.461 4c-.628 0-1.593.289-1.83.399C2.395 4.51 1.014 5.166.4 6.63.313 6.84 0 7.835 0 8.46a4.466 4.466 0 0 0 4.461 4.463 4.37 4.37 0 0 0 1.237-.178l2.593 2.596c.11.109.702.658 1.557.658z" fill="#F4F4F4"/><path d="M1.285 7.018l2.345 2.36 1.746-1.746-2.372-2.348c.437-.2.988-.27 1.498-.27a3.492 3.492 0 0 1 3.492 3.49c0 .512-.124 1.074-.321 1.513l2.936 2.85s.873.874 0 1.747c-.871.873-1.744 0-1.744 0l-2.863-2.878c-.439.198-.987.26-1.5.26a3.49 3.49 0 0 1-3.488-3.492c0-.51.074-1.05.271-1.486z" fill="#313131"/></g></svg>