<svg ti:v="1" width="16" height="16" viewBox="0 0 16 16" xmlns="http://www.w3.org/2000/svg" xmlns:ti="urn:schemas-jetbrains-com:tisvg"><rect id="frame" width="16" height="16" fill="none"/><linearGradient id="a" x1=".5" y1=".007" x2=".5" y2="1.004"><stop offset="0" stop-color="#004B5B"/><stop offset="1" stop-color="#002A56"/></linearGradient><path fill-rule="evenodd" d="M6 1a5 5 0 0 0-5 5v10h2l3-3h5a5 5 0 0 0 5-5V6a5 5 0 0 0-5-5H6z" fill="url(#a)"/><linearGradient id="b" x1=".5" y1="0" x2=".5" y2="1.004"><stop offset="0" stop-color="#5F9EDB"/><stop offset="1" stop-color="#2BC1DB"/></linearGradient><path fill-rule="evenodd" d="M6 2C3.794 2 2 3.794 2 6v9h.586l3-3H11c2.206 0 4-1.793 4-4V6c0-2.206-1.794-4-4-4H6z" fill="url(#b)"/><path fill-rule="evenodd" d="M7 10V8.5h3V10a1 1 0 0 1-1 1H8a1 1 0 0 1-1-1z" fill="#FFF"/><path fill-rule="evenodd" d="M8.5 3A2.5 2.5 0 0 0 6 5.5c0 .815.352 1.228.352 1.228.356.418.648.876.648 1.016C7 7.885 7.45 8 8 8V6h1v2c.55 0 1-.115 1-.256 0-.14.292-.598.648-1.016 0 0 .352-.413.352-1.228A2.5 2.5 0 0 0 8.5 3z" fill="#FFF"/></svg>