<svg ti:v="1" width="16" height="16" viewBox="0 0 16 16" xmlns="http://www.w3.org/2000/svg" xmlns:ti="urn:schemas-jetbrains-com:tisvg"><rect id="frame" width="16" height="16" fill="none"/><g fill-rule="evenodd"><path d="M11 1H6a5 5 0 0 0-5 5v10h2l3-3h5a5 5 0 0 0 5-5V6a5 5 0 0 0-5-5z" fill="#242424"/><path d="M2 15V6c0-2.206 1.794-4 4-4h5c2.206 0 4 1.794 4 4v2c0 2.206-1.794 4-4 4H5.586l-3 3H2z" fill="#C4C4C4"/><path d="M7 10V8.5h3V10a1 1 0 0 1-1 1H8a1 1 0 0 1-1-1z" fill="#282828"/><path d="M8.5 3A2.5 2.5 0 0 0 6 5.5c0 .815.352 1.228.352 1.228.356.418.648.876.648 1.016C7 7.885 7.45 8 8 8V6h1v2c.55 0 1-.115 1-.256 0-.14.292-.598.648-1.016 0 0 .352-.413.352-1.228A2.5 2.5 0 0 0 8.5 3z" fill="#282828"/></g></svg>