<svg ti:v="1" width="16" height="16" viewBox="0 0 16 16" xmlns="http://www.w3.org/2000/svg" xmlns:ti="urn:schemas-jetbrains-com:tisvg"><rect id="frame" width="16" height="16" fill="none"/><linearGradient id="a" x1=".5" y1=".007" x2=".5" y2="1.004"><stop offset="0" stop-color="#005B16"/><stop offset="1" stop-color="#004110"/></linearGradient><path fill-rule="evenodd" d="M6 1a5 5 0 0 0-5 5v10h2l3-3h5a5 5 0 0 0 5-5V6a5 5 0 0 0-5-5H6z" fill="url(#a)"/><linearGradient id="b" x1=".5" y1="0" x2=".5" y2="1.004"><stop offset="0" stop-color="#20A642"/><stop offset="1" stop-color="#2CCF55"/></linearGradient><path fill-rule="evenodd" d="M6 2C3.794 2 2 3.794 2 6v9h.586l3-3H11c2.206 0 4-1.794 4-4V6c0-2.206-1.794-4-4-4H6z" fill="url(#b)"/><path fill-rule="evenodd" d="M5 6v2h3.5L7 10h2l3-3-3-3H7l1.5 2H5z" fill="#FFF"/></svg>