<svg ti:v="1" width="16" height="16" viewBox="0 0 16 16" xmlns="http://www.w3.org/2000/svg" xmlns:ti="urn:schemas-jetbrains-com:tisvg"><rect id="frame" width="16" height="16" fill="none"/><linearGradient id="a" x1="0" y1=".5" x2="1" y2=".5"><stop offset="0" stop-color="#167D87"/><stop offset="1" stop-color="#09585D"/></linearGradient><path fill-rule="evenodd" d="M14 11.697l-3-6V3h1V1H4v2h1v2.697l-3 6v.538L3.382 15h9.236L14 12.235v-.538z" fill="url(#a)"/><linearGradient id="b" x1="0" y1=".5" x2="1" y2=".5"><stop offset="0" stop-color="#6ACBFF"/><stop offset="1" stop-color="#82FFE6"/></linearGradient><path fill-rule="evenodd" d="M10 6V3h1V2H5v1h1v3l-3 6 1 2h8l1-2-3-6z" fill="url(#b)"/><path fill-rule="evenodd" d="M10.132 8H7.333L5 13h-.382l-.465-.928 2.679-5.517L7 6.303V3h2v3.303l.168.252L10.132 8z" fill="#FFF"/></svg>