<svg width="80" height="80" viewBox="0 0 80 80" fill="none" xmlns="http://www.w3.org/2000/svg">
<g clip-path="url(#clip0)">
<path d="M78.7391 61.0434L80 26.3478L57.9565 21.3478L39.1739 33.913L47.913 59.6956L78.7391 61.0434Z" fill="url(#paint0_linear)"/>
<path d="M73.8261 42.4346L80 26.3477L58.3043 16.7825L39.1739 33.9129L73.8261 42.4346Z" fill="url(#paint1_linear)"/>
<path d="M51.1739 79.9999L78.7391 61.0434L12.4783 31.6086L0 67.0869L51.1739 79.9999Z" fill="url(#paint2_linear)"/>
<path d="M0 30.5652L44.087 64.1739L73.8261 42.4348L40.0435 4.95652L10.6087 0L0 30.5652Z" fill="url(#paint3_linear)"/>
<path d="M65 15H15V65H65V15Z" fill="url(#paint4_linear)"/>
<path d="M39.9 55.5H21.2V58.6H39.9V55.5Z" fill="white"/>
<path d="M21.25 21.6249H28.7201C33.1047 21.6249 35.703 24.2232 35.703 27.9582V28.0394C35.703 32.2616 32.4551 34.4539 28.3141 34.4539H25.2286V39.8941H21.25V21.6249ZM28.4765 30.8001C30.5064 30.8001 31.6432 29.5821 31.6432 28.0394V27.9582C31.6432 26.1719 30.4252 25.1975 28.3953 25.1975H25.3098V30.8001H28.4765Z" fill="white"/>
<path d="M40 40.2435C38.5739 40.2435 37.3565 39.9653 36.4 39.4261C35.4261 38.887 34.6261 38.2435 34 37.4783L36.5391 34.6435C37.0609 35.2174 37.6 35.6696 38.1217 36C38.6609 36.3305 39.2522 36.487 39.8956 36.487C40.6609 36.487 41.2696 36.2435 41.7043 35.7566C42.1391 35.2696 42.3652 34.5044 42.3652 33.4261V21.5826H46.5043V33.6C46.5043 34.6957 46.3478 35.6522 46.0522 36.4696C45.7565 37.2696 45.3217 37.9653 44.7652 38.5218C44.2087 39.0783 43.513 39.5131 42.713 39.7914C41.913 40.1044 41.0087 40.2435 40 40.2435Z" fill="white"/>
</g>
<defs>
<linearGradient id="paint0_linear" x1="68.3204" y1="55.6185" x2="56.7298" y2="22.1349" gradientUnits="userSpaceOnUse">
<stop offset="0.000825369" stop-color="#FF318C"/>
<stop offset="1" stop-color="#FE6C54"/>
</linearGradient>
<linearGradient id="paint1_linear" x1="71.3357" y1="19.3599" x2="61.1652" y2="32.2765" gradientUnits="userSpaceOnUse">
<stop stop-color="#FF546A"/>
<stop offset="0.7814" stop-color="#FE764A"/>
</linearGradient>
<linearGradient id="paint2_linear" x1="67.1256" y1="71.3249" x2="8.75583" y2="50.2636" gradientUnits="userSpaceOnUse">
<stop offset="0.016776" stop-color="#FF318C"/>
<stop offset="0.8106" stop-color="#6B57FF"/>
</linearGradient>
<linearGradient id="paint3_linear" x1="22.6508" y1="55.818" x2="47.4747" y2="11.9731" gradientUnits="userSpaceOnUse">
<stop offset="0.3305" stop-color="#FF318C"/>
<stop offset="0.9422" stop-color="#FDB60D"/>
</linearGradient>
<linearGradient id="paint4_linear" x1="39.9989" y1="2.84554" x2="39.9989" y2="47.6855" gradientUnits="userSpaceOnUse">
<stop offset="0.0842986" stop-color="#878585"/>
<stop offset="0.5377"/>
</linearGradient>
<clipPath id="clip0">
<rect width="80" height="80" fill="white"/>
</clipPath>
</defs>
</svg>
