<svg ti:v="1" width="16" height="16" viewBox="0 0 16 16" xmlns="http://www.w3.org/2000/svg" xmlns:ti="urn:schemas-jetbrains-com:tisvg"><rect id="frame" width="16" height="16" fill="none"/><g fill-rule="evenodd"><path d="M5.586 2L0 7.586v.828L5.586 14h.828L12 8.414v-.828L6.414 2h-.828z" fill="#EBEBEB"/><path d="M6 3L1 8l5 5 5-5-5-5z" fill="#313131"/><path d="M2.414 8L6 4.414 9.586 8 6 11.586 2.414 8z" fill="#EBEBEB"/><path d="M9.586 2L4 7.586v.828L9.586 14h.828L16 8.414v-.828L10.414 2h-.828z" fill="#EBEBEB"/><path d="M10 3L5 8l5 5 5-5-5-5z" fill="#313131"/><path d="M7.828 8L10 5.828 12.172 8 10 10.172 7.828 8z" fill="#EBEBEB"/></g></svg>