<svg width="48" height="48" viewBox="0 0 48 48" fill="none" xmlns="http://www.w3.org/2000/svg">
<path d="M39 9H9V39H39V9Z" fill="url(#paint0_linear)"/>
<path d="M24 9H9V39H24V9Z" fill="url(#paint1_linear)"/>
<path d="M24 9H9V39H24V9Z" fill="url(#paint2_linear)"/>
<path d="M39 27.1853H31.8947V21.6316L24 29.5263L31.8947 37.4211V31.8735H39V27.1853Z" fill="url(#paint3_linear)"/>
<path d="M39 27.1853H31.8947V21.6316L24 29.5263L31.8947 37.4211V31.8735H39V27.1853Z" fill="url(#paint4_linear)"/>
<path d="M9 20.8421H16.1053V26.3684L24 18.4737L16.1053 10.5789V16.1052H9V20.8421Z" fill="url(#paint5_linear)"/>
<defs>
<linearGradient id="paint0_linear" x1="23.96" y1="1.7085" x2="23.96" y2="28.6125" gradientUnits="userSpaceOnUse">
<stop offset="0.0842986" stop-color="#878585"/>
<stop offset="0.5377"/>
</linearGradient>
<linearGradient id="paint1_linear" x1="16.5" y1="9" x2="16.5" y2="39" gradientUnits="userSpaceOnUse">
<stop offset="0" stop-color="#FDFEFF"/>
<stop offset="0.458333" stop-color="#E2E3E4"/>
<stop offset="0.765625" stop-color="#E2E3E4"/>
</linearGradient>
<linearGradient id="paint2_linear" x1="16.5" y1="9" x2="16.5" y2="39" gradientUnits="userSpaceOnUse">
<stop offset="0" stop-color="#F5F1F1"/>
<stop offset="1" stop-color="white" stop-opacity="0"/>
</linearGradient>
<linearGradient id="paint3_linear" x1="31.5" y1="21.6316" x2="31.5" y2="37.4211" gradientUnits="userSpaceOnUse">
<stop offset="0" stop-color="#FDFEFF"/>
<stop offset="0.458333" stop-color="#E2E3E4"/>
<stop offset="0.765625" stop-color="#E2E3E4"/>
</linearGradient>
<linearGradient id="paint4_linear" x1="31.5" y1="21.6316" x2="31.5" y2="37.4211" gradientUnits="userSpaceOnUse">
<stop offset="0" stop-color="#F5F1F1"/>
<stop offset="1" stop-color="white" stop-opacity="0"/>
</linearGradient>
<linearGradient id="paint5_linear" x1="16.48" y1="6.74129" x2="16.48" y2="20.9013" gradientUnits="userSpaceOnUse">
<stop offset="0.0842986" stop-color="#878585"/>
<stop offset="0.5377"/>
</linearGradient>
</defs>
</svg>
