<svg width="128" height="128" viewBox="0 0 128 128" fill="none" xmlns="http://www.w3.org/2000/svg">
<path d="M103 25H25V103H103V25Z" fill="url(#paint0_linear)"/>
<path d="M64 25H25V103H64V25Z" fill="url(#paint1_linear)"/>
<path d="M64 25H25V103H64V25Z" fill="url(#paint2_linear)"/>
<path d="M103 71.7025H83.5V57.8575L64 78.04L83.5 97.2475V83.4025H103V71.7025Z" fill="url(#paint3_linear)"/>
<path d="M103 71.7025H83.5V57.8575L64 78.04L83.5 97.2475V83.4025H103V71.7025Z" fill="url(#paint4_linear)"/>
<path d="M25 55.545H44.5V69.39L64 49.305L44.5 30V43.845H25V55.545Z" fill="url(#paint5_linear)"/>
<defs>
<linearGradient id="paint0_linear" x1="63.896" y1="6.0421" x2="63.896" y2="75.9925" gradientUnits="userSpaceOnUse">
<stop offset="0.0842986" stop-color="#878585"/>
<stop offset="0.5377"/>
</linearGradient>
<linearGradient id="paint1_linear" x1="44.5" y1="25" x2="44.5" y2="103" gradientUnits="userSpaceOnUse">
<stop offset="0" stop-color="#FDFEFF"/>
<stop offset="0.458333" stop-color="#E2E3E4"/>
<stop offset="0.765625" stop-color="#E2E3E4"/>
</linearGradient>
<linearGradient id="paint2_linear" x1="44.5" y1="25" x2="44.5" y2="103" gradientUnits="userSpaceOnUse">
<stop offset="0" stop-color="#F5F1F1"/>
<stop offset="1" stop-color="white" stop-opacity="0"/>
</linearGradient>
<linearGradient id="paint3_linear" x1="83.5" y1="57.8575" x2="83.5" y2="97.2475" gradientUnits="userSpaceOnUse">
<stop offset="0" stop-color="#FDFEFF"/>
<stop offset="0.458333" stop-color="#E2E3E4"/>
<stop offset="0.765625" stop-color="#E2E3E4"/>
</linearGradient>
<linearGradient id="paint4_linear" x1="83.5" y1="57.8575" x2="83.5" y2="97.2475" gradientUnits="userSpaceOnUse">
<stop offset="0" stop-color="#F5F1F1"/>
<stop offset="1" stop-color="white" stop-opacity="0"/>
</linearGradient>
<linearGradient id="paint5_linear" x1="44.448" y1="20.4263" x2="44.448" y2="55.7512" gradientUnits="userSpaceOnUse">
<stop offset="0.0842986" stop-color="#878585"/>
<stop offset="0.5377"/>
</linearGradient>
</defs>
</svg>
