<svg width="70" height="70" viewBox="0 0 70 70" fill="none" xmlns="http://www.w3.org/2000/svg">
<path d="M56 14H14V56H56V14Z" fill="url(#paint0_linear)"/>
<path d="M35 14H14V56H35V14Z" fill="url(#paint1_linear)"/>
<path d="M35 14H14V56H35V14Z" fill="url(#paint2_linear)"/>
<path d="M56 39.4594H46.0526V31.6842L35 42.7368L46.0526 53.7895V46.0228H56V39.4594Z" fill="url(#paint3_linear)"/>
<path d="M56 39.4594H46.0526V31.6842L35 42.7368L46.0526 53.7895V46.0228H56V39.4594Z" fill="url(#paint4_linear)"/>
<path d="M14 30.5789H23.9474V38.3158L35 27.2631L23.9474 16.2105V23.9474H14V30.5789Z" fill="url(#paint5_linear)"/>
<defs>
<linearGradient id="paint0_linear" x1="34.944" y1="3.7919" x2="34.944" y2="41.4575" gradientUnits="userSpaceOnUse">
<stop offset="0.0842986" stop-color="#878585"/>
<stop offset="0.5377"/>
</linearGradient>
<linearGradient id="paint1_linear" x1="24.5" y1="14" x2="24.5" y2="56" gradientUnits="userSpaceOnUse">
<stop offset="0" stop-color="#FDFEFF"/>
<stop offset="0.458333" stop-color="#E2E3E4"/>
<stop offset="0.765625" stop-color="#E2E3E4"/>
</linearGradient>
<linearGradient id="paint2_linear" x1="24.5" y1="14" x2="24.5" y2="56" gradientUnits="userSpaceOnUse">
<stop offset="0" stop-color="#F5F1F1"/>
<stop offset="1" stop-color="white" stop-opacity="0"/>
</linearGradient>
<linearGradient id="paint3_linear" x1="45.5" y1="31.6842" x2="45.5" y2="53.7895" gradientUnits="userSpaceOnUse">
<stop offset="0" stop-color="#FDFEFF"/>
<stop offset="0.458333" stop-color="#E2E3E4"/>
<stop offset="0.765625" stop-color="#E2E3E4"/>
</linearGradient>
<linearGradient id="paint4_linear" x1="45.5" y1="31.6842" x2="45.5" y2="53.7895" gradientUnits="userSpaceOnUse">
<stop offset="0" stop-color="#F5F1F1"/>
<stop offset="1" stop-color="white" stop-opacity="0"/>
</linearGradient>
<linearGradient id="paint5_linear" x1="24.472" y1="10.8378" x2="24.472" y2="30.6618" gradientUnits="userSpaceOnUse">
<stop offset="0.0842986" stop-color="#878585"/>
<stop offset="0.5377"/>
</linearGradient>
</defs>
</svg>
