<svg ti:v="1" width="16" height="16" viewBox="0 0 16 16" xmlns="http://www.w3.org/2000/svg" xmlns:ti="urn:schemas-jetbrains-com:tisvg"><rect id="frame" width="16" height="16" fill="none"/><path d="M7.953 13.5a1.178 1.178 0 0 1-.786-.291.887.887 0 0 1-.327-.7.878.878 0 0 1 .327-.7 1.175 1.175 0 0 1 1.564 0 .878.878 0 0 1 .327.7.887.887 0 0 1-.327.7c-.215.19-.492.293-.778.291zm-.887-3.153a3.415 3.415 0 0 1-.179-1.073 3.023 3.023 0 0 1 1.28-2.131c.644-.58 1.468-1.262 1.468-1.992 0-.9-.81-1.26-1.744-1.26a3.74 3.74 0 0 0-2.413 1.046V3.215A5.341 5.341 0 0 1 8.124 2.5c1.614 0 3.033.947 3.033 2.437a3.291 3.291 0 0 1-1.332 2.512c-.657.538-1.418 1.143-1.418 1.887.022.355.125.701.3 1.011zm0 0" fill="#9AA7B0"/></svg>