<svg ti:v="1" width="16" height="16" viewBox="0 0 16 16" xmlns="http://www.w3.org/2000/svg" xmlns:ti="urn:schemas-jetbrains-com:tisvg"><rect id="frame" width="16" height="16" fill="none"/><g fill="#9AA7B0"><path d="M10.474 3.026a3.5 3.5 0 1 0-4.949 4.953 3.5 3.5 0 0 0 4.949-4.953zM9.65 7.149A2.333 2.333 0 0 1 5.667 5.5c.003-.09.012-.18.027-.268a2.71 2.71 0 0 0 1.889-.515 2.012 2.012 0 0 0 .881-1.4c.179.274.421.501.707.661a3 3 0 0 0 .839.353 2.3 2.3 0 0 1-.36 2.814zm0 0"/><path d="M13.5 13.335S12.125 14 8 14s-5.5-.665-5.5-.665a4.75 4.75 0 0 1 1.454-3.265A2.26 2.26 0 0 1 5.5 9.5c.486 0 .826.459 1.179.927.367.488.749.985 1.325.985.61 0 1-.558 1.389-1.07.33-.437.658-.842 1.115-.842a2.26 2.26 0 0 1 1.542.57 4.75 4.75 0 0 1 1.45 3.265zm0 0"/></g></svg>