<svg ti:v="1" width="16" height="16" viewBox="0 0 16 16" xmlns="http://www.w3.org/2000/svg" xmlns:ti="urn:schemas-jetbrains-com:tisvg"><rect id="frame" width="16" height="16" fill="none"/><path d="M15 8a1 1 0 0 0-1-1h-1V4.5a.5.5 0 0 0-.5-.5H10V3a1 1 0 0 0-1-1H7a1 1 0 0 0-1 1v1H3.5a.5.5 0 0 0-.5.5v3a.5.5 0 0 0 .5.5H5v2H3.5a.5.5 0 0 0-.5.5v3a.5.5 0 0 0 .5.5h9a.5.5 0 0 0 .5-.5V11h1a1 1 0 0 0 1-1zm-1 2h-2v3H4v-2h1.031A.97.97 0 0 0 6 10.031V7.969A.97.97 0 0 0 5.031 7H4V5h3V3h2v2h3v3h2zm0 0" fill="#9AA7B0"/></svg>