<svg ti:v="1" width="16" height="16" viewBox="0 0 16 16" xmlns="http://www.w3.org/2000/svg" xmlns:ti="urn:schemas-jetbrains-com:tisvg"><rect id="frame" width="16" height="16" fill="none"/><linearGradient id="a" x1=".5" y1=".104" x2=".5" y2="5.208"><stop offset="0" stop-color="#4D5156"/><stop offset="1" stop-color="#192532"/></linearGradient><path fill-rule="evenodd" d="M3 15h11v-3H3v3z" fill="url(#a)"/><linearGradient id="b" x1=".5" y1=".104" x2=".5" y2="5.208"><stop offset="0" stop-color="#4D5156"/><stop offset="1" stop-color="#192532"/></linearGradient><path fill-rule="evenodd" d="M14 0H3v3h11V0z" fill="url(#b)"/><linearGradient id="c" x1="0" y1=".5" x2="1" y2=".5"><stop offset="0" stop-color="#4A6F67"/><stop offset="1" stop-color="#14493B"/></linearGradient><path fill-rule="evenodd" d="M11 7.667v-.334l3-4V3H3v.333l3 4v.334l-3 4V12h11v-.333l-3-4z" fill="url(#c)"/><linearGradient id="d" x1="0" y1=".5" x2="1" y2=".5"><stop offset="0" stop-color="#ABEEFF"/><stop offset="1" stop-color="#00CDFF"/></linearGradient><path fill-rule="evenodd" d="M13 1H4v2h9V1z" fill="url(#d)"/><linearGradient id="e" x1="0" y1=".5" x2="1" y2=".5"><stop offset="0" stop-color="#ABEEFF"/><stop offset="1" stop-color="#00CDFF"/></linearGradient><path fill-rule="evenodd" d="M4 14h9v-2H4v2z" fill="url(#e)"/><path fill-rule="evenodd" d="M10 7l3-4H4l3 4v1l-3 4h9l-3-4V7z" fill="#FFF"/><path fill-rule="evenodd" d="M5 13v-.667l3-4V6.667l-3-4V2h7v.667l-3 4v1.666l3 4V13H5z" fill="#FFF"/><linearGradient id="f" x1="0" y1=".5" x2="1" y2=".5"><stop offset="0" stop-color="#32D6FF"/><stop offset="1" stop-color="#0098BD"/></linearGradient><path fill-rule="evenodd" d="M5 3h7V2H5v1z" fill="url(#f)"/><path fill-rule="evenodd" d="M6.75 5L8 6.667V7h1v-.333L10.25 5h-3.5z" fill="#FFC65F"/><linearGradient id="g" x1="0" y1=".5" x2="1" y2=".5"><stop offset="0" stop-color="#32D6FF"/><stop offset="1" stop-color="#0098BD"/></linearGradient><path fill-rule="evenodd" d="M5 13h7v-1H5v1z" fill="url(#g)"/><path fill-rule="evenodd" d="M8 10l-1.5 2h4L9 10H8z" fill="#FFC65F"/></svg>