<svg ti:v="1" width="16" height="16" viewBox="0 0 16 16" xmlns="http://www.w3.org/2000/svg" xmlns:ti="urn:schemas-jetbrains-com:tisvg"><rect id="frame" width="16" height="16" fill="none"/><g fill-rule="evenodd"><path d="M7 15c-2.023 0-4-3.797-4-6V4.676c0-1.088.773-1.675 1.5-1.675.168 0 .338.03.5.092v-.418C5 1.587 5.773 1 6.5 1c.354 0 .719.14 1 .407A1.465 1.465 0 0 1 8.5 1c.354 0 .719.14 1 .407a1.465 1.465 0 0 1 1-.407c.727 0 1.5.587 1.5 1.675v2.178c.26-.15.588-.239 1-.239h1V8c0 2.448-2.057 7-4 7H7z" fill="#242424"/><path d="M12 7.416C12 8 10 9 10 10H9c0-2 2-2 2-3V2.675c0-.9-1-.9-1 0V7c0 .842-1 .842-1 0V2.675c0-.9-1-.9-1 0V7c0 1-1 .992-1 0V2.675c0-.9-1-.9-1 0v4.572c0 1.008-1 1-1 0V4.676c0-.901-1-.901-1 0V9c0 2 1.8 5 3 5h3c1 0 3-3.6 3-6V5.614c-.807 0-1 .603-1 1.802z" fill="#F28365"/></g></svg>