<svg ti:v="1" width="16" height="16" viewBox="0 0 16 16" xmlns="http://www.w3.org/2000/svg" xmlns:ti="urn:schemas-jetbrains-com:tisvg"><rect id="frame" width="16" height="16" fill="none"/><linearGradient id="a" x1=".5" y1="0" x2=".5" y2=".994"><stop offset="0" stop-color="#4373C9"/><stop offset="1" stop-color="#003E6C"/></linearGradient><path fill-rule="evenodd" d="M1 8a7 7 0 1 0 14 0A7 7 0 1 0 1 8z" fill="url(#a)"/><linearGradient id="b" x1=".5" y1=".007" x2=".5" y2="1"><stop offset="0" stop-color="#F1F4FB"/><stop offset="1" stop-color="#64A4FF"/></linearGradient><path fill-rule="evenodd" d="M2 8a6 6 0 0 0 12 0A6 6 0 0 0 2 8z" fill="url(#b)"/><path fill-rule="evenodd" d="M10.775 5.435a1.937 1.937 0 0 0-.483-.687 2.724 2.724 0 0 0-.89-.534C9.033 4.071 8.573 4 8.022 4c-.427 0-.812.068-1.158.204-.345.135-.64.325-.884.565a2.546 2.546 0 0 0-.57.859c-.136.33-.208.693-.216 1.089h1.711c0-.198.023-.383.07-.555.046-.172.117-.323.215-.451.097-.13.221-.231.373-.308.15-.077.331-.116.54-.116.311 0 .552.082.727.242.174.162.262.41.262.749a.874.874 0 0 1-.11.495 1.488 1.488 0 0 1-.32.362c-.132.11-.277.22-.43.33a2.929 2.929 0 0 0-.443.39c-.14.15-.26.333-.366.546A2.005 2.005 0 0 0 7.261 9h1.612c.04-.104.09-.2.156-.281.12-.146.26-.276.414-.39.154-.115.32-.227.494-.342a2.16 2.16 0 0 0 .838-.995c.096-.227.145-.518.145-.869 0-.212-.049-.441-.145-.688zM8.866 12h-1.76v-1.726h1.76" fill="#003987"/></svg>