<svg ti:v="1" width="16" height="16" viewBox="0 0 16 16" xmlns="http://www.w3.org/2000/svg" xmlns:ti="urn:schemas-jetbrains-com:tisvg"><rect id="frame" width="16" height="16" fill="none"/><linearGradient id="a" x1=".5" y1=".005" x2=".5" y2="1.01"><stop offset="0" stop-color="#7C2B00"/><stop offset="1" stop-color="#460000"/></linearGradient><path fill-rule="evenodd" d="M2 8a6 6 0 0 0 12 0A6 6 0 0 0 2 8z" fill="url(#a)"/><linearGradient id="b" x1=".5" y1=".012" x2=".5" y2="1"><stop offset="0" stop-color="#FF7A00"/><stop offset="1" stop-color="red"/></linearGradient><path fill-rule="evenodd" d="M3 8a5 5 0 1 0 10 0 5 5 0 0 0-5-5 5 5 0 0 0-5 5z" fill="url(#b)"/><linearGradient id="c" x1=".5" y1=".012" x2=".5" y2="1"><stop offset="0" stop-color="red"/><stop offset="1" stop-color="#FF7A00"/></linearGradient><path fill-rule="evenodd" d="M4 8a4 4 0 0 0 8 0 4 4 0 0 0-8 0z" fill="url(#c)"/><path fill-rule="evenodd" d="M11 6.5a1.5 1.5 0 1 1-3.001-.001A1.5 1.5 0 0 1 11 6.5z" fill="#FFF"/></svg>