<svg ti:v="1" width="16" height="16" viewBox="0 0 16 16" xmlns="http://www.w3.org/2000/svg" xmlns:ti="urn:schemas-jetbrains-com:tisvg"><rect id="frame" width="16" height="16" fill="none"/><g fill-rule="evenodd"><path d="M15 8A7 7 0 1 1 1 8a7 7 0 0 1 14 0z" fill="#242424"/><path d="M14 8A6.001 6.001 0 0 1 2 8a6 6 0 0 1 12 0z" fill="#C4C4C4"/><path d="M10.775 5.435a1.937 1.937 0 0 0-.483-.687 2.724 2.724 0 0 0-.89-.534C9.033 4.071 8.573 4 8.022 4c-.427 0-.812.068-1.158.204-.345.135-.64.325-.884.565a2.546 2.546 0 0 0-.57.859c-.136.33-.208.693-.216 1.089h1.711c0-.198.023-.383.07-.555.046-.172.117-.323.215-.451.097-.13.221-.231.373-.308.15-.077.331-.116.54-.116.311 0 .552.082.727.242.174.162.262.41.262.749a.874.874 0 0 1-.11.495 1.488 1.488 0 0 1-.32.362c-.132.11-.277.22-.43.33a2.929 2.929 0 0 0-.443.39c-.14.15-.26.333-.366.546A2.005 2.005 0 0 0 7.261 9h1.612c.04-.104.09-.2.156-.281.12-.146.26-.276.414-.39.154-.115.32-.227.494-.342a2.16 2.16 0 0 0 .838-.995c.096-.227.145-.518.145-.869 0-.212-.049-.441-.145-.688zM8.866 12h-1.76v-1.726h1.76" fill="#292929"/></g></svg>