<svg ti:v="1" width="16" height="16" viewBox="0 0 16 16" xmlns="http://www.w3.org/2000/svg" xmlns:ti="urn:schemas-jetbrains-com:tisvg"><rect id="frame" width="16" height="16" fill="none"/><g fill-rule="evenodd"><path d="M4 16v-3.127A4.005 4.005 0 0 1 1 9V5c0-2.206 1.794-4 4-4h6c2.206 0 4 1.794 4 4v4c0 2.206-1.794 4-4 4H8.828l-3 3H4z" fill="#242424"/><path d="M11 2H5a3 3 0 0 0-3 3v4a3 3 0 0 0 3 3v3h.414l3-3H11a3 3 0 0 0 3-3V5a3 3 0 0 0-3-3z" fill="#C4C4C4"/><path d="M11 5.001L10 4 8 6 6 4 5 5.001 7.001 7l-2 1.999L6 10l2-2 2 2 1-1.001L9 7l2-1.999z" fill="#292929"/></g></svg>