<svg ti:v="1" width="16" height="16" viewBox="0 0 16 16" xmlns="http://www.w3.org/2000/svg" xmlns:ti="urn:schemas-jetbrains-com:tisvg"><rect id="frame" width="16" height="16" fill="none"/><linearGradient id="a" x1=".5" y1=".003" x2=".5" y2="1"><stop offset="0" stop-color="#873E3E"/><stop offset="1" stop-color="#3F1D1D"/></linearGradient><path fill-rule="evenodd" d="M5 1C2.794 1 1 2.794 1 5v4a4.006 4.006 0 0 0 3 3.873V16h1.828l3.001-3H11c2.206 0 4-1.793 4-4V5c0-2.206-1.794-4-4-4H5z" fill="url(#a)"/><linearGradient id="b" x1=".5" y1="-.004" x2=".5" y2="1"><stop offset="0" stop-color="#FF8C74"/><stop offset="1" stop-color="#FF3A3A"/></linearGradient><path fill-rule="evenodd" d="M5 2a3 3 0 0 0-3 3v4a3 3 0 0 0 3 3v3h.414l3.001-3H11a3 3 0 0 0 3-3V5a3 3 0 0 0-3-3H5z" fill="url(#b)"/><path fill-rule="evenodd" d="M11 5.001L10 4 8 6 6 4 5 5.001 7.001 7l-2 1.999L6 10l2-2 2 2 1-1.001L9 7l2-1.999z" fill="#FFF"/></svg>