<svg ti:v="1" width="16" height="16" viewBox="0 0 16 16" xmlns="http://www.w3.org/2000/svg" xmlns:ti="urn:schemas-jetbrains-com:tisvg"><rect id="frame" width="16" height="16" fill="none"/><g fill-rule="evenodd"><path d="M15 10a5 5 0 0 1-5 5 5 5 0 0 1-5-5 5 5 0 0 1 5-5 5 5 0 0 1 5 5z" fill="#242424"/><path d="M14 10a4 4 0 1 1-8 0 4 4 0 0 1 8 0z" fill="#F28365"/><path d="M13 11H7V9h6v2z" fill="#FFF"/><path d="M10 1H0v1.414l3 3V11h1.414L7 8.414v-3l3-3V1z" fill="#242424"/><path d="M9 2L6 5v3l-2 2V5L1 2h8z" fill="#C4C4C4"/></g></svg>