<svg ti:v="1" width="16" height="16" viewBox="0 0 16 16" xmlns="http://www.w3.org/2000/svg" xmlns:ti="urn:schemas-jetbrains-com:tisvg"><rect id="frame" width="16" height="16" fill="none"/><linearGradient id="a" x1=".5" y1="0" x2=".5" y2="1"><stop offset="0" stop-color="#7C2B00"/><stop offset="1" stop-color="#460000"/></linearGradient><path fill-rule="evenodd" d="M5 10a5 5 0 0 0 5 5 5 5 0 0 0 5-5 5 5 0 0 0-5-5 5 5 0 0 0-5 5z" fill="url(#a)"/><linearGradient id="b" x1=".5" y1=".021" x2=".5" y2="1"><stop offset="0" stop-color="#FF7A00"/><stop offset="1" stop-color="red"/></linearGradient><path fill-rule="evenodd" d="M6 10a4 4 0 0 0 8 0 4 4 0 0 0-8 0z" fill="url(#b)"/><path fill-rule="evenodd" d="M13 11H7V9h6v2z" fill="#FFF"/><path fill-rule="evenodd" d="M10 1H0v1.414l3 3V11h1.414L7 8.414v-3l3-3V1z" fill="#3F8187"/><linearGradient id="c" x1="0" y1=".5" x2="1" y2=".5"><stop offset="0" stop-color="#B8E3FF"/><stop offset=".399" stop-color="#F5F5F5"/><stop offset="1" stop-color="#70BCE5"/></linearGradient><path fill-rule="evenodd" d="M1 2l3 3v5l2-2V5l3-3H1z" fill="url(#c)"/></svg>