<svg ti:v="1" width="16" height="16" viewBox="0 0 16 16" xmlns="http://www.w3.org/2000/svg" xmlns:ti="urn:schemas-jetbrains-com:tisvg"><rect id="frame" width="16" height="16" fill="none"/><g fill-rule="evenodd"><path d="M10 5A5 5 0 1 1-.001 4.999 5 5 0 0 1 10 5z" fill="#242424"/><path d="M9 5c0 2.208-1.792 4-4 4S1 7.208 1 5a4 4 0 0 1 8 0z" fill="#329932"/><path d="M5 5V2H4v4h4V5H5z" fill="#FFF"/><path d="M7 16v-4c0-1.103.897-2 2-2h5c1.103 0 2 .897 2 2v4H7z" fill="#242424"/><path d="M11.5 11C9.57 11 8 9.43 8 7.5S9.57 4 11.5 4 15 5.57 15 7.5 13.43 11 11.5 11z" fill="#242424"/><path d="M9 7.5a2.5 2.5 0 1 1 5 0 2.5 2.5 0 0 1-5 0z" fill="#C4C4C4"/><path d="M15 12v3H8v-3a1 1 0 0 1 1-1h5a1 1 0 0 1 1 1z" fill="#C4C4C4"/><path d="M10 11l1.5 2 1.5-2h-3z" fill="#282828"/></g></svg>