<svg ti:v="1" width="16" height="16" viewBox="0 0 16 16" xmlns="http://www.w3.org/2000/svg" xmlns:ti="urn:schemas-jetbrains-com:tisvg"><rect id="frame" width="16" height="16" fill="none"/><linearGradient id="a" x1=".5" y1="0" x2=".5" y2="1.006"><stop offset="0" stop-color="#006F33"/><stop offset="1" stop-color="#2C8A0A"/></linearGradient><path fill-rule="evenodd" d="M13 0H8.659L5.125 6.425 4.341 5H0v1.257L3.159 12h3.932L13 1.257V0z" fill="url(#a)"/><linearGradient id="b" x1=".5" y1=".007" x2=".5" y2="1.007"><stop offset="0" stop-color="#E1FFD6"/><stop offset="1" stop-color="#62F2A5"/></linearGradient><path fill-rule="evenodd" d="M3.75 11L1 6h2.75l1.375 2.5L9.25 1H12L6.5 11H3.75z" fill="url(#b)"/><linearGradient id="c" x1=".5" y1=".015" x2=".5" y2="1.008"><stop offset="0" stop-color="#435B80"/><stop offset="1" stop-color="#1C2737"/></linearGradient><path fill-rule="evenodd" d="M9 10c-1.102 0-2 .898-2 2v4h9v-4c0-1.102-.898-2-2-2H9z" fill="url(#c)"/><path fill-rule="evenodd" d="M11.5 11C9.57 11 8 9.43 8 7.5S9.57 4 11.5 4 15 5.57 15 7.5 13.43 11 11.5 11z" fill="#6E4623"/><linearGradient id="d" x1=".5" y1=".021" x2=".5" y2="1"><stop offset="0" stop-color="#FFEABF"/><stop offset="1" stop-color="#FBC658"/></linearGradient><path fill-rule="evenodd" d="M9 7.5a2.5 2.5 0 0 0 5 0 2.5 2.5 0 0 0-5 0z" fill="url(#d)"/><linearGradient id="e" x1=".5" y1=".021" x2=".5" y2="1"><stop offset="0" stop-color="#87BEDE"/><stop offset="1" stop-color="#0070C2"/></linearGradient><path fill-rule="evenodd" d="M9 11a1 1 0 0 0-1 1v3h7v-3a1 1 0 0 0-1-1H9z" fill="url(#e)"/><path fill-rule="evenodd" d="M10 11l1.5 2 1.5-2h-3z" fill="#FFF"/></svg>