<svg ti:v="1" width="16" height="16" viewBox="0 0 16 16" xmlns="http://www.w3.org/2000/svg" xmlns:ti="urn:schemas-jetbrains-com:tisvg"><rect id="frame" width="16" height="16" fill="none"/><g fill-rule="evenodd"><path d="M3 11c-1.712 0-3-2.427-3-4V1.676C0 .588.772.001 1.5.001c.354 0 .719.139 1 .407A1.461 1.461 0 0 1 3.5 0c.354 0 .719.14 1 .407A1.465 1.465 0 0 1 5.5 0C6.228 0 7 .587 7 1.675v.563C7.26 2.09 7.588 2 8 2h1v3.386C9 8.225 6.71 11 5 11H3z" fill="#242424"/><path d="M3 5V1.675c0-.9 1-.9 1 0V5c0 .842 1 .842 1 0V1.675c0-.9 1-.9 1 0V6.5c1 0 1-.614 1-1.198C7 4.103 7.193 3.5 8 3.5v2.386C8 8.286 6 10 5 10H3c-.975 0-2-1.846-2-3V1.676c0-.901 1-.901 1 0V5c0 .8 1 .984 1 0z" fill="#F28365"/><path d="M7 16v-4c0-1.103.897-2 2-2h5c1.103 0 2 .897 2 2v4H7z" fill="#242424"/><path d="M11.5 11C9.57 11 8 9.43 8 7.5S9.57 4 11.5 4 15 5.57 15 7.5 13.43 11 11.5 11z" fill="#242424"/><path d="M9 7.5a2.5 2.5 0 1 1 5 0 2.5 2.5 0 0 1-5 0z" fill="#C4C4C4"/><path d="M15 12v3H8v-3a1 1 0 0 1 1-1h5a1 1 0 0 1 1 1z" fill="#C4C4C4"/><path d="M10 11l1.5 2 1.5-2h-3z" fill="#282828"/></g></svg>