<svg ti:v="1" width="16" height="16" viewBox="0 0 16 16" xmlns="http://www.w3.org/2000/svg" xmlns:ti="urn:schemas-jetbrains-com:tisvg"><rect id="frame" width="16" height="16" fill="none"/><g fill-rule="evenodd"><path d="M12 6A6 6 0 1 1 0 6a6 6 0 0 1 12 0z" fill="#F4F4F4"/><path d="M11 6a5 5 0 0 1-5 5 5 5 0 0 1-5-5 5 5 0 0 1 5-5 5 5 0 0 1 5 5z" fill="#E51300"/><path d="M9 7H3V5h6v2z" fill="#FFF"/><path d="M7 16v-4c0-1.103.897-2 2-2h5c1.103 0 2 .897 2 2v4H7z" fill="#F4F4F4"/><path d="M11.5 11C9.57 11 8 9.43 8 7.5S9.57 4 11.5 4 15 5.57 15 7.5 13.43 11 11.5 11z" fill="#F4F4F4"/><path d="M9 7.5a2.5 2.5 0 1 1 5 0 2.5 2.5 0 0 1-5 0z" fill="#313131"/><path d="M15 12v3H8v-3a1 1 0 0 1 1-1h5a1 1 0 0 1 1 1z" fill="#313131"/><path d="M10 11l1.5 2 1.5-2h-3z" fill="#EBEBEB"/></g></svg>