<svg ti:v="1" width="16" height="16" viewBox="0 0 16 16" xmlns="http://www.w3.org/2000/svg" xmlns:ti="urn:schemas-jetbrains-com:tisvg"><rect id="frame" width="16" height="16" fill="none"/><linearGradient id="a" x1=".5" y1="0" x2=".5" y2="1"><stop offset="0" stop-color="#995100"/><stop offset="1" stop-color="#460000"/></linearGradient><path fill-rule="evenodd" d="M4.5.407A1.466 1.466 0 0 0 3.5 0c-.354 0-.719.14-1 .408a1.46 1.46 0 0 0-1-.407C.773.001 0 .588 0 1.676V7c0 1.574 1.288 4 3 4h2c1.71 0 4-2.776 4-5.614V2H8c-.412 0-.74.09-1 .238v-.563C7 .587 6.228 0 5.5 0c-.353 0-.719.14-1 .407z" fill="url(#a)"/><linearGradient id="b" x1=".5" y1=".012" x2=".5" y2="1.012"><stop offset="0" stop-color="#FFD500"/><stop offset="1" stop-color="#FF2E00"/></linearGradient><path fill-rule="evenodd" d="M5 1.675V5c0 .842-1 .842-1 0V1.675c0-.9-1-.9-1 0V5c0 .984-1 .8-1 0V1.676c0-.901-1-.901-1 0V7c0 1.154 1.025 3 2 3h2c1 0 3-1.714 3-4.114V3.5c-.807 0-1 .602-1 1.802C7 5.886 7 6.5 6 6.5V1.675C6 1.225 5.75 1 5.5 1s-.5.225-.5.675z" fill="url(#b)"/><linearGradient id="c" x1=".5" y1=".015" x2=".5" y2="1.008"><stop offset="0" stop-color="#435B80"/><stop offset="1" stop-color="#1C2737"/></linearGradient><path fill-rule="evenodd" d="M9 10c-1.102 0-2 .897-2 2v4h9v-4c0-1.103-.898-2-2-2H9z" fill="url(#c)"/><path fill-rule="evenodd" d="M11.5 11C9.57 11 8 9.43 8 7.5S9.57 4 11.5 4 15 5.57 15 7.5 13.43 11 11.5 11z" fill="#6E4623"/><linearGradient id="d" x1=".5" y1=".021" x2=".5" y2="1"><stop offset="0" stop-color="#FFEABF"/><stop offset="1" stop-color="#FBC658"/></linearGradient><path fill-rule="evenodd" d="M9 7.5a2.5 2.5 0 0 0 5 0 2.5 2.5 0 0 0-5 0z" fill="url(#d)"/><linearGradient id="e" x1=".5" y1=".021" x2=".5" y2="1"><stop offset="0" stop-color="#87BEDE"/><stop offset="1" stop-color="#0070C2"/></linearGradient><path fill-rule="evenodd" d="M9 11a1 1 0 0 0-1 1v3h7v-3a1 1 0 0 0-1-1H9z" fill="url(#e)"/><path fill-rule="evenodd" d="M10 11l1.5 2 1.5-2h-3z" fill="#FFF"/></svg>