<svg ti:v="1" width="16" height="16" viewBox="0 0 16 16" xmlns="http://www.w3.org/2000/svg" xmlns:ti="urn:schemas-jetbrains-com:tisvg"><rect id="frame" width="16" height="16" fill="none"/><linearGradient id="a" x1=".5" y1=".104" x2=".5" y2="5.208"><stop offset="0" stop-color="#4D5156"/><stop offset="1" stop-color="#192532"/></linearGradient><path fill-rule="evenodd" d="M0 13h10v-3H0v3z" fill="url(#a)"/><linearGradient id="b" x1=".5" y1=".104" x2=".5" y2="5.208"><stop offset="0" stop-color="#4D5156"/><stop offset="1" stop-color="#192532"/></linearGradient><path fill-rule="evenodd" d="M0 3h10V0H0v3z" fill="url(#b)"/><linearGradient id="c" x1="0" y1=".5" x2="1" y2=".5"><stop offset="0" stop-color="#4A6F67"/><stop offset="1" stop-color="#14493B"/></linearGradient><path fill-rule="evenodd" d="M0 3v.414l3 3v.172l-3 3V10h10v-.414l-3-3v-.172l3-3V3H0z" fill="url(#c)"/><linearGradient id="d" x1="0" y1=".5" x2="1" y2=".5"><stop offset="0" stop-color="#ABEEFF"/><stop offset="1" stop-color="#00CDFF"/></linearGradient><path fill-rule="evenodd" d="M1 3h8V1H1v2z" fill="url(#d)"/><linearGradient id="e" x1="0" y1=".5" x2="1" y2=".5"><stop offset="0" stop-color="#ABEEFF"/><stop offset="1" stop-color="#00CDFF"/></linearGradient><path fill-rule="evenodd" d="M1 12h8v-2H1v2z" fill="url(#e)"/><path fill-rule="evenodd" d="M6 6l3-3H1l3 3v1l-3 3h8L6 7V6z" fill="#FFF"/><linearGradient id="f" x1="0" y1=".5" x2="1" y2=".5"><stop offset="0" stop-color="#32D6FF"/><stop offset="1" stop-color="#0098BD"/></linearGradient><path fill-rule="evenodd" d="M2 3h5.999V2H2v1z" fill="url(#f)"/><linearGradient id="g" x1="0" y1=".5" x2="1" y2=".5"><stop offset="0" stop-color="#32D6FF"/><stop offset="1" stop-color="#0098BD"/></linearGradient><path fill-rule="evenodd" d="M2 11h5.999v-1H2v1z" fill="url(#g)"/><path fill-rule="evenodd" d="M7.586 10L5 7.414 2.414 10m5.172-7L5 5.586 2.414 3h5.172z" fill="#FFF"/><linearGradient id="h" x1=".5" y1=".015" x2=".5" y2="1.008"><stop offset="0" stop-color="#435B80"/><stop offset="1" stop-color="#1C2737"/></linearGradient><path fill-rule="evenodd" d="M9 10c-1.102 0-2 .898-2 2v4h9v-4c0-1.102-.898-2-2-2H9z" fill="url(#h)"/><path fill-rule="evenodd" d="M11.5 11C9.57 11 8 9.43 8 7.5S9.57 4 11.5 4 15 5.57 15 7.5 13.43 11 11.5 11z" fill="#6E4623"/><linearGradient id="i" x1=".5" y1=".021" x2=".5" y2="1"><stop offset="0" stop-color="#FFEABF"/><stop offset="1" stop-color="#FBC658"/></linearGradient><path fill-rule="evenodd" d="M9 7.5a2.5 2.5 0 0 0 5 0 2.5 2.5 0 0 0-5 0z" fill="url(#i)"/><linearGradient id="j" x1=".5" y1=".021" x2=".5" y2="1"><stop offset="0" stop-color="#87BEDE"/><stop offset="1" stop-color="#0070C2"/></linearGradient><path fill-rule="evenodd" d="M9 11a1 1 0 0 0-1 1v3h7v-3a1 1 0 0 0-1-1H9z" fill="url(#j)"/><path fill-rule="evenodd" d="M10 11l1.5 2 1.5-2h-3z" fill="#FFF"/></svg>