<svg ti:v="1" width="16" height="16" viewBox="0 0 16 16" xmlns="http://www.w3.org/2000/svg" xmlns:ti="urn:schemas-jetbrains-com:tisvg"><rect id="frame" width="16" height="16" fill="none"/><g fill-rule="evenodd"><path d="M15 2H1v5h14V2z" fill="#F4F4F4"/><path d="M15 15H1V7h14v8z" fill="#F4F4F4"/><path d="M14 6H2V3h12v3z" fill="#313131"/><path d="M2 7h12.001V6H2v1z" fill="#313131"/><path d="M14 14H2V7h12v7z" fill="#313131"/><path d="M13 7H3v6h10V7z" fill="#EBEBEB"/><path d="M8 10v2h2v-1H9v-1m1-2H8v1h1v1h1m-4 2V9H5V8h2v4H6z" fill="#313131"/><path d="M12 1H9v4h3M7 5H4V1h3v4z" fill="#F4F4F4"/><path d="M11 2h-1v2h1M6 2H5v2h1V2z" fill="#313131"/></g></svg>