<svg ti:v="1" width="16" height="16" viewBox="0 0 16 16" xmlns="http://www.w3.org/2000/svg" xmlns:ti="urn:schemas-jetbrains-com:tisvg"><rect id="frame" width="16" height="16" fill="none"/><g fill-rule="evenodd"><path d="M16 12H4V5h12v7z" fill="#242424"/><path d="M16 1H4v4h12V1z" fill="#242424"/><path d="M15 11H5V5h10v6z" fill="#C4C4C4"/><path d="M15 2H5v3h10V2z" fill="#C4C4C4"/><path d="M14 10H6V5h8v5z" fill="#282828"/><path d="M12 7V6h-2v1h.5v1H10v1h2V8h-.5V7M9 6H8v3h1V6z" fill="#C4C4C4"/><path d="M14 0h-3v3h3M9 3H6V0h3v3z" fill="#242424"/><path d="M12 2h1V1h-1M7 2h1V1H7v1z" fill="#C4C4C4"/><path d="M12.414 10L13 9.414V8H3.586L0 11.586v.828L3.586 16H13v-1.414L12.414 14H16v-4h-3.586z" fill="#242424"/><path d="M5 9H4l-3 3 3 3h1l-3-3m6-3H7l-3 3 3 3h1l-3-3m10 1h-5l2 2h-2l-3-3 3-3h2l-2 2h5v2z" fill="#7CBEFF"/></g></svg>