<svg ti:v="1" width="16" height="16" viewBox="0 0 16 16" xmlns="http://www.w3.org/2000/svg" xmlns:ti="urn:schemas-jetbrains-com:tisvg"><rect id="frame" width="16" height="16" fill="none"/><linearGradient id="a" x1=".5" y1="0" x2=".5" y2="1"><stop offset="0" stop-color="#7C2B00"/><stop offset="1" stop-color="#460000"/></linearGradient><path fill-rule="evenodd" d="M15 2H1v5h14V2z" fill="url(#a)"/><linearGradient id="b" x1=".5" y1="0" x2=".5" y2=".992"><stop offset="0" stop-color="#7C6D47"/><stop offset="1" stop-color="#3A2C1C"/></linearGradient><path fill-rule="evenodd" d="M15 15H1V7h14v8z" fill="url(#b)"/><linearGradient id="c" x1=".5" y1=".021" x2=".5" y2="1"><stop offset="0" stop-color="#FF7A00"/><stop offset="1" stop-color="red"/></linearGradient><path fill-rule="evenodd" d="M14 6H2V3h12v3z" fill="url(#c)"/><path fill-rule="evenodd" d="M2 7h12V6H2v1z" fill="#8A1111"/><linearGradient id="d" x1=".5" y1=".014" x2=".5" y2="1"><stop offset="0" stop-color="#FFF"/><stop offset="1" stop-color="#B5A989"/></linearGradient><path fill-rule="evenodd" d="M14 14H2V7h12v7z" fill="url(#d)"/><linearGradient id="e" x1=".5" y1=".014" x2=".5" y2="1"><stop offset="0" stop-color="#FFF3D4"/><stop offset="1" stop-color="#FFF"/></linearGradient><path fill-rule="evenodd" d="M13 7H3v6h10V7z" fill="url(#e)"/><path fill-rule="evenodd" d="M8 10v2h2v-1H9v-1m1-2H8v1h1v1h1m-4 2V9H5V8h2v4H6z" fill="#005BBF"/><linearGradient id="f" x1=".5" y1="0" x2=".5" y2="1"><stop offset="0" stop-color="#209CDB"/><stop offset="1" stop-color="#084260"/></linearGradient><path fill-rule="evenodd" d="M12 1H9v4h3M7 5H4V1h3v4z" fill="url(#f)"/><linearGradient id="g" x1=".5" y1="0" x2=".5" y2="1"><stop offset="0" stop-color="#FFF"/><stop offset=".252" stop-color="#FFF"/><stop offset=".767" stop-color="#77FFF6"/><stop offset="1" stop-color="#77FFF6"/></linearGradient><path fill-rule="evenodd" d="M11 2h-1v2h1M6 2H5v2h1V2z" fill="url(#g)"/></svg>