<svg ti:v="1" width="16" height="16" viewBox="0 0 16 16" xmlns="http://www.w3.org/2000/svg" xmlns:ti="urn:schemas-jetbrains-com:tisvg"><rect id="frame" width="16" height="16" fill="none"/><linearGradient id="a" x1=".5" y1="0" x2=".5" y2=".992"><stop offset="0" stop-color="#7C6D47"/><stop offset="1" stop-color="#3A2C1C"/></linearGradient><path fill-rule="evenodd" d="M16 12H4V5h12v7z" fill="url(#a)"/><linearGradient id="b" x1=".5" y1="0" x2=".5" y2="1"><stop offset="0" stop-color="#7C2B00"/><stop offset="1" stop-color="#460000"/></linearGradient><path fill-rule="evenodd" d="M16 1H4v4h12V1z" fill="url(#b)"/><linearGradient id="c" x1=".5" y1=".014" x2=".5" y2="1"><stop offset="0" stop-color="#FFF"/><stop offset="1" stop-color="#B5A989"/></linearGradient><path fill-rule="evenodd" d="M15 11H5V5h10v6z" fill="url(#c)"/><linearGradient id="d" x1=".5" y1=".021" x2=".5" y2="1"><stop offset="0" stop-color="#FF833F"/><stop offset=".472" stop-color="red"/><stop offset="1" stop-color="#910000"/></linearGradient><path fill-rule="evenodd" d="M15 2H5v3h10V2z" fill="url(#d)"/><linearGradient id="e" x1=".5" y1=".014" x2=".5" y2="1"><stop offset="0" stop-color="#FFF3D4"/><stop offset="1" stop-color="#FFF"/></linearGradient><path fill-rule="evenodd" d="M14 10H6V5h8v5z" fill="url(#e)"/><path fill-rule="evenodd" d="M12 7V6h-2v1h.5v1H10v1h2V8h-.5V7M9 6H8v3h1V6z" fill="#005BBF"/><linearGradient id="f" x1=".5" y1="0" x2=".5" y2="1"><stop offset="0" stop-color="#209CDB"/><stop offset="1" stop-color="#084260"/></linearGradient><path fill-rule="evenodd" d="M14 0h-3v3h3M9 3H6V0h3v3z" fill="url(#f)"/><linearGradient id="g" x1=".5" y1="0" x2=".5" y2="1"><stop offset="0" stop-color="#FFF"/><stop offset=".252" stop-color="#FFF"/><stop offset=".767" stop-color="#77FFF6"/><stop offset="1" stop-color="#77FFF6"/></linearGradient><path fill-rule="evenodd" d="M12 2h1V1h-1M7 2h1V1H7v1z" fill="url(#g)"/><linearGradient id="h" x1=".013" y1=".5" x2="1" y2=".5"><stop offset="0" stop-color="#3E5374"/><stop offset="1" stop-color="#2C3E58"/></linearGradient><path fill-rule="evenodd" d="M6.414 10L7 9.414V8H3.586L0 11.586v.828L3.586 16H7v-1.414L6.414 14H10v-4H6.414z" fill="url(#h)"/><linearGradient id="i" x1=".041" y1=".5" x2="1.017" y2=".5"><stop offset="0" stop-color="#77D2FF"/><stop offset="1" stop-color="#60BDFF"/></linearGradient><path fill-rule="evenodd" d="M9 11H4l2-2H4l-3 3 3 3h2l-2-2h5v-2z" fill="url(#i)"/></svg>