<svg width="16" height="16" viewBox="0 0 16 16" fill="none" xmlns="http://www.w3.org/2000/svg"><rect id="frame" width="16" height="16" fill="none"/><path fill-rule="evenodd" clip-rule="evenodd" d="M4.747 5.246l1.05 1.052-1.5 1.502A2.76 2.76 0 1 0 8.2 11.704l1.502-1.502 1.05 1.051-1.5 1.503a4.249 4.249 0 0 1-6.008-6.007l1.503-1.503zm1.5-1.5L7.75 2.245a4.248 4.248 0 0 1 6.007 6.007l-1.503 1.502-1.05-1.051 1.5-1.502a2.76 2.76 0 0 0-3.008-4.502 2.76 2.76 0 0 0-.895.598l-1.5 1.5-1.052-1.05zm-.485 5.328l4.204-4.205 1.277 1.276-4.204 4.206-1.278-1.277z" fill="#6E6E6E"/></svg>