<svg width="16" height="16" viewBox="0 0 16 16" fill="none" xmlns="http://www.w3.org/2000/svg">
<path fill-rule="evenodd" clip-rule="evenodd" d="M4.74673 5.24609L5.79758 6.29802L4.29606 7.79955C4.03969 8.05591 3.83633 8.36026 3.69759 8.69522C3.55884 9.03018 3.48743 9.38919 3.48743 9.75174C3.48743 10.1143 3.55884 10.4733 3.69759 10.8083C3.83633 11.1432 4.03969 11.4476 4.29606 11.7039C4.55243 11.9603 4.85678 12.1637 5.19174 12.3024C5.52669 12.4412 5.8857 12.5126 6.24826 12.5126C6.61081 12.5126 6.96982 12.4412 7.30478 12.3024C7.63974 12.1637 7.94409 11.9603 8.20045 11.7039L9.70198 10.2024L10.7528 11.2533L9.2513 12.7559C8.85687 13.1503 8.3886 13.4632 7.87325 13.6767C7.35789 13.8901 6.80553 14 6.24772 14C5.6899 14 5.13754 13.8901 4.62219 13.6767C4.10683 13.4632 3.63856 13.1503 3.24413 12.7559C2.84969 12.3614 2.53681 11.8932 2.32334 11.3778C2.10987 10.8625 2 10.3101 2 9.75229C2 9.19447 2.10987 8.64211 2.32334 8.12675C2.53681 7.6114 2.84969 7.14313 3.24413 6.7487L4.74673 5.24609ZM6.24717 3.74673L7.7487 2.24413C8.5453 1.44753 9.62572 1 10.7523 1C11.8788 1 12.9593 1.44753 13.7559 2.24413C14.5525 3.04073 15 4.12115 15 5.24772C15 6.37428 14.5525 7.4547 13.7559 8.2513L12.2533 9.75283L11.2024 8.70198L12.7039 7.20045C12.9603 6.94409 13.1637 6.63974 13.3024 6.30478C13.4412 5.96982 13.5126 5.61081 13.5126 5.24826C13.5126 4.8857 13.4412 4.52669 13.3024 4.19174C13.1637 3.85678 12.9603 3.55243 12.7039 3.29606C12.4476 3.03969 12.1432 2.83633 11.8083 2.69759C11.4733 2.55884 11.1143 2.48743 10.7517 2.48743C10.3892 2.48743 10.0302 2.55884 9.69522 2.69759C9.36026 2.83633 9.05591 3.03969 8.79955 3.29606L7.29911 4.7965L6.24826 3.74565L6.24717 3.74673ZM5.76183 9.07357L9.96631 4.86908L11.2425 6.14527L7.0391 10.3508L5.76075 9.07357H5.76183Z" fill="#6E6E6E"/>
</svg>
