<svg width="24" height="24" viewBox="0 0 24 24" fill="none" xmlns="http://www.w3.org/2000/svg"><rect id="frame" width="24" height="24" fill="none"/><path d="M19.125 2.875A2.894 2.894 0 0 0 17 2c-.833 0-1.541.292-2.125.875A2.893 2.893 0 0 0 14 5c0 .542.135 1.044.406 1.508.271.463.635.825 1.094 1.086 0 .541-.044 1.018-.133 1.43a3.223 3.223 0 0 1-.437 1.086 4.915 4.915 0 0 1-.633.796c-.219.22-.526.425-.922.618-.396.192-.763.354-1.102.484-.338.13-.794.284-1.367.46-1.042.324-1.844.62-2.406.891V5.594c.458-.26.823-.623 1.094-1.086C9.864 4.044 10 3.542 10 3c0-.833-.292-1.542-.875-2.125A2.893 2.893 0 0 0 7 0c-.834 0-1.542.292-2.125.875A2.893 2.893 0 0 0 4 3c0 .542.135 1.044.406 1.508.27.463.635.825 1.094 1.086v12.812c-.459.26-.823.623-1.094 1.086A2.94 2.94 0 0 0 4 21c0 .834.291 1.542.875 2.125A2.894 2.894 0 0 0 7 24c.833 0 1.542-.292 2.125-.875A2.893 2.893 0 0 0 10 21a2.94 2.94 0 0 0-.406-1.508A2.918 2.918 0 0 0 8.5 18.406V18c0-.718.216-1.24.648-1.562.432-.323 1.315-.693 2.649-1.11 1.406-.447 2.464-.87 3.172-1.266 2.333-1.322 3.51-3.479 3.531-6.468.459-.26.823-.623 1.094-1.086A2.94 2.94 0 0 0 20 5c0-.833-.291-1.541-.875-2.125z" fill="#fff"/></svg>