<svg xmlns="http://www.w3.org/2000/svg" width="16" height="16" viewBox="0 0 16 16">
  <g fill="none" fill-rule="evenodd">
    <path fill="#62B543" fill-opacity=".6" d="M10.1931596,1.35044264 C10.068006,1.71050591 10,2.09731113 10,2.5 C10,4.43299662 11.5670034,6 13.5,6 C13.9026889,6 14.2894941,5.93199404 14.6495574,5.80684043 C14.8769572,6.49669773 15,7.23397948 15,8 C15,11.866 11.866,15 8,15 C4.134,15 1,11.866 1,8 C1,4.134 4.134,1 8,1 C8.76602052,1 9.50330227,1.12304277 10.1931596,1.35044264 Z"/>
    <path fill="#9AA7B0" d="M16,2.5 C16,3.88071429 14.8807143,5 13.5,5 C12.1192857,5 11,3.88071429 11,2.5 C11,1.11928571 12.1192857,0 13.5,0 C14.8807143,0 16,1.11928571 16,2.5"/>
    <polygon fill="#231F20" fill-opacity=".7" points="5.5 1 5.5 0 .5 0 .5 1 2.5 1 2.5 6 3.5 6 3.5 1" transform="translate(5 5)"/>
  </g>
</svg>
