<svg xmlns="http://www.w3.org/2000/svg" width="16" height="16" viewBox="0 0 16 16">
  <g fill="none" fill-rule="evenodd">
    <rect width="15" height="7" x="1" y="9" fill="#62B543" fill-opacity=".7"/>
    <polygon fill="#9AA7B0" fill-opacity=".8" points="7 1 3 5 7 5"/>
    <polygon fill="#9AA7B0" fill-opacity=".8" points="8 1 8 6 3 6 3 8 13 8 13 1"/>
    <path fill="#231F20" fill-opacity=".7" d="M4.5,11 C3.73533333,11 3.35033333,11 3.345,11 C2.784,11 2.47276797,11.1330566 2.47276797,11.5015259 C2.47276797,11.8699951 2.79711914,11.8729858 3.65869141,12.1468506 C4.52026367,12.4207153 5,12.9160767 5,13.548 C5,14 5,15 2.97125244,15 C2.96591911,15 2.57550163,15 1.8,15 L1.8,14 C2.57016829,14 2.96058577,14 2.97125244,14 C3.63842773,14 3.996155,13.8673706 3.996155,13.548 C3.996155,13.2286294 3.74158869,13.0813116 2.97125244,12.9160767 C1.91955566,12.6904907 1.5,12.3145264 1.5,11.45 C1.5,10.4591675 2.278,10 3.36,10 C3.38266667,10 3.76266667,10 4.5,10 L8.5,10 L8.5,10.6870059 L9.49571429,12.2071429 L10.95,10 L12,10 L10,13.0071429 L10,15 L8.995714,15 L8.995714,13.0285714 L7.65896217,11 L7,11 L7,15 L6,15 L6,11 L4.5,11 Z M12,10 L13,10 L13,14 L15.5,14 L15.5,15 L12,15 L12,10 Z"/>
  </g>
</svg>
