<svg xmlns="http://www.w3.org/2000/svg" width="16" height="16" viewBox="0 0 16 16"><rect id="frame" width="16" height="16" fill="none"/><g fill="none" fill-rule="evenodd"><path fill="#62B543" fill-opacity=".7" d="M1 9h15v7H1z"/><path fill="#9AA7B0" fill-opacity=".8" d="M7 1L3 5h4z"/><path fill="#9AA7B0" fill-opacity=".8" d="M8 1v5H3v2h10V1z"/><path fill="#231F20" fill-opacity=".7" d="M4.5 11H3.345c-.561 0-.872.133-.872.502 0 .368.324.371 1.186.645.861.274 1.341.77 1.341 1.401C5 14 5 15 2.971 15H1.8v-1h1.171c.667 0 1.025-.133 1.025-.452 0-.32-.254-.467-1.025-.632C1.92 12.69 1.5 12.315 1.5 11.45c0-.99.778-1.45 1.86-1.45H8.5v.687l.996 1.52L10.95 10H12l-2 3.007V15H8.996v-1.971L7.659 11H7v4H6v-4H4.5zm7.5-1h1v4h2.5v1H12v-5z"/></g></svg>