<svg width="16" height="16" viewBox="0 0 16 16" fill="none" xmlns="http://www.w3.org/2000/svg"><rect id="frame" width="16" height="16" fill="none"/><path d="M1 16h15V9H1v7z" fill="#40B6E0" fill-opacity=".7"/><path d="M7 1L3 5h4V1z" fill="#9AA7B0" fill-opacity=".8"/><path d="M8 1v5H3v2h10V1H8z" fill="#9AA7B0" fill-opacity=".8"/><path d="M7 10h.749L9 12l1.183-2H11v5h-1v-3l-1 1.5L8 12v3H7v-5z" fill="#231F20" fill-opacity=".7"/><path fill-rule="evenodd" clip-rule="evenodd" d="M13.649 10H12v5h1.649C15.04 15 16 13.921 16 12.5c0-1.407-.96-2.5-2.351-2.5zM13 14v-3h.649c.929 0 1.351.522 1.351 1.5v.015c0 .978-.422 1.485-1.351 1.485H13z" fill="#231F20" fill-opacity=".7"/><path fill-rule="evenodd" clip-rule="evenodd" d="M2 15v-5h2.257c.627 0 1.114.179 1.438.507.275.279.424.672.424 1.143v.014c0 .807-.43 1.315-1.058 1.55L6.267 15h-1.27L3.94 13.4h-.853V15H2zm1.086-2.571h1.1c.53 0 .832-.286.832-.708v-.014c0-.471-.324-.714-.853-.714H3.086v1.436z" fill="#231F20" fill-opacity=".7"/></svg>