<svg width="16" height="16" viewBox="0 0 16 16" fill="none" xmlns="http://www.w3.org/2000/svg"><rect id="frame" width="16" height="16" fill="none"/><path fill-rule="evenodd" clip-rule="evenodd" d="M8 15A7 7 0 1 0 8 1a7 7 0 0 0 0 14zm.174-11H5v8h1.527V9.44h1.2L9.215 12H11L9.304 9.143c.883-.377 1.488-1.189 1.488-2.48V6.64c0-.754-.208-1.383-.595-1.829C9.74 4.286 9.057 4 8.174 4zm-.1 3.886H6.527V5.589h1.518c.743 0 1.2.388 1.2 1.142v.023c0 .675-.427 1.132-1.17 1.132z" fill="#40B6E0" fill-opacity=".6"/></svg>