<svg xmlns="http://www.w3.org/2000/svg" xmlns:xlink="http://www.w3.org/1999/xlink" width="40" height="40" viewBox="0 0 40 40"><rect id="frame" width="40" height="40" fill="none"/><defs><path id="a" d="M0 0h36v35.999H0z"/></defs><g fill="none" fill-rule="evenodd" transform="translate(2 2)"><mask id="b" fill="#fff"><use xlink:href="#a"/></mask><path fill="#DF4F4F" d="M9.268 26.003l7.435 8.198s.362.247.64-.041.064-.577.064-.577l-8.14-7.58zM26.444 9.759l7.434 8.199s.364.247.64-.041c.278-.29.065-.578.065-.578l-8.14-7.58zm-21.28 7.933l16.402 18.035s.734.527 1.296-.088c.56-.616.129-1.232.129-1.232L5.164 17.692zm12.85-11.836L34.418 23.89s.735.528 1.295-.088c.562-.615.13-1.232.13-1.232L18.015 5.856zM2.905 9.885l23.478 25.813s1.05.756 1.854-.126c.803-.881.185-1.762.185-1.762L2.905 9.885zm6.858-6.737L33.24 28.962s1.049.756 1.853-.126c.803-.882.186-1.763.186-1.763L9.762 3.148zM0 0l30.83 33.306s1.05.756 1.854-.126c.804-.881.186-1.763.186-1.763L0 0z" mask="url(#b)"/></g></svg>