<svg xmlns="http://www.w3.org/2000/svg" xmlns:xlink="http://www.w3.org/1999/xlink" width="16" height="16" viewBox="0 0 16 16">
  <defs>
    <linearGradient id="linear-gradient" x1="-19.667" y1="-434.649" x2="-19.667" y2="-435.644" gradientTransform="matrix(12, 0, 0, -14, 244, -6084)" gradientUnits="userSpaceOnUse">
      <stop offset="0" stop-color="#7c6e48"/>
      <stop offset="1" stop-color="#60492f"/>
    </linearGradient>
    <linearGradient id="linear-gradient-2" x1="-19.3" y1="-440.583" x2="-19.3" y2="-441.581" gradientTransform="matrix(10, 0, 0, -12, 201, -5285)" gradientUnits="userSpaceOnUse">
      <stop offset="0" stop-color="#e2d8bc"/>
      <stop offset="1" stop-color="#e2cdb3"/>
    </linearGradient>
    <linearGradient id="linear-gradient-3" x1="-17.833" y1="-461.387" x2="-17.833" y2="-462.382" gradientTransform="matrix(6, 0, 0, -8, 115, -3687)" gradientUnits="userSpaceOnUse">
      <stop offset="0" stop-color="#fff2d4"/>
      <stop offset="1" stop-color="#fff"/>
    </linearGradient>
    <linearGradient id="linear-gradient-4" x1="11.5" y1="-0.065" x2="11.5" y2="9.086" gradientUnits="userSpaceOnUse">
      <stop offset="0" stop-color="#4d6790"/>
      <stop offset="1" stop-color="#283852"/>
    </linearGradient>
    <linearGradient id="linear-gradient-5" x1="11.5" y1="1.014" x2="11.5" y2="8.203" gradientUnits="userSpaceOnUse">
      <stop offset="0" stop-color="#aaefff"/>
      <stop offset="0.994" stop-color="#60bcff"/>
      <stop offset="1" stop-color="#60bcff"/>
    </linearGradient>
  </defs>
  <g id="areas">
    <rect width="16" height="16" fill="#ffe5ff" opacity="0"/>
  </g>
  <g id="icons">
    <g>
      <path d="M2,15V1H9.414L14,5.586V15Z" fill-rule="evenodd" fill="url(#linear-gradient)"/>
      <path d="M9,2H3V14H13V6Z" fill-rule="evenodd" fill="url(#linear-gradient-2)"/>
      <path d="M9,6V4H5v8h6V6Z" fill-rule="evenodd" fill="url(#linear-gradient-3)"/>
    </g>
    <g>
      <polygon points="13.414 9 16 6.414 16 5 14.041 5 16 3.041 16 2.213 13.788 0 13 0 12.959 0 11 1.959 11 0 9.586 0 7 2.586 7 9 13.414 9" fill-rule="evenodd" fill="url(#linear-gradient-4)"/>
      <polygon points="13 8 15 6 11.626 6 15 2.626 13.374 1 10 4.374 10 1 8 3 8 8 13 8" fill-rule="evenodd" fill="url(#linear-gradient-5)"/>
    </g>
  </g>
</svg>
