<svg xmlns="http://www.w3.org/2000/svg" width="16" height="16" viewBox="0 0 16 16"><rect id="frame" width="16" height="16" fill="none"/><path fill="#62B543" fill-rule="evenodd" d="M4.248 13.91l.005-1.657 2.001.112A4.7 4.7 0 1 0 8.08 3.301l.056-.205-.376-.102.959-1.062-.079-.07.004-.006-.07-.055-.3-.271-.02.021-.685-.538A7 7 0 1 1 4.248 13.91zm-.599-.426a7.041 7.041 0 0 1-1.289-1.337l1.294.073-.005 1.264zm-1.954-2.44a6.95 6.95 0 0 1-.61-1.954l1.22.655-.61 1.299zm-.69-3.301a6.978 6.978 0 0 1 .383-2.046l.792 1.11-1.175.936zm1.02-3.391a7.03 7.03 0 0 1 1.03-1.306l.18 1.029-1.21.277zM3.58 2.57l.077-.062 1.603.432-.237.724-1.204.276-.24-1.37zm.715-.512c.46-.287.957-.523 1.481-.699l-.33 1.01-1.151-.31zm2.176-.892c.084-.018.17-.036.255-.052l1.125.882-.743.822-1.082-.292.445-1.36zM5.1 11.7l-.846-.048.003-.807c.244.32.527.607.843.855zm-1.45-1.915l-.56-.3.29-.615c.059.317.15.624.27.915zm-.313-2.387L3 6.923l.55-.437c-.1.292-.171.597-.212.912zm.921-2.244l-.2.16-.136-.781.884-.203-.106.322a4.727 4.727 0 0 0-.442.502zm-2.132 6.38l.708-1.505.825.442-.004 1.148-1.529-.086zm-1.015-3.11L2.53 7.297l.56.784-.527 1.12-1.45-.777zm.552-3.374l1.674-.383.187 1.072-.874.695-.987-1.384zM5.706 3.51l.135-.411.762.205-.897.206z"/></svg>