<svg xmlns="http://www.w3.org/2000/svg" width="16" height="16" viewBox="0 0 16 16"><rect id="frame" width="16" height="16" fill="none"/><g fill="none" fill-rule="evenodd"><g fill-opacity=".9" fill-rule="nonzero"><path fill="#40A0CF" d="M7.91 1.026c-.54 0-1.08.046-1.612.136-1.428.25-1.687.772-1.687 1.735v1.271h3.374v.424h-4.64a2.102 2.102 0 0 0-2.108 1.692 6.172 6.172 0 0 0 0 3.391 1.879 1.879 0 0 0 1.794 1.692h1.16V9.842A2.132 2.132 0 0 1 6.297 7.77h3.37a1.69 1.69 0 0 0 1.687-1.696V2.897a1.872 1.872 0 0 0-1.687-1.735 10.636 10.636 0 0 0-1.758-.136zM6.086 2.049A.636.636 0 1 1 6.09 3.32a.636.636 0 0 1-.005-1.271z"/><path fill="#FFC900" d="M9.44 14.824c-1.032.272-2.12.25-3.142-.066a1.954 1.954 0 0 1-1.687-1.695V9.885A1.711 1.711 0 0 1 6.298 8.19h3.37a2.152 2.152 0 0 0 2.107-2.116V4.592h1.267c.909.057 1.633.783 1.686 1.692a5.667 5.667 0 0 1 .072 3.143 4 4 0 0 0-5.453 1.94H7.985v.424h1.201C9.066 12.172 9 12.579 9 13c0 .657.158 1.277.44 1.824z"/></g><path fill="#9AA7B0" d="M15 14.283c-.47.459-.972.695-1.9.717-1.039.022-2.1-.72-2.1-2 0-1.288.971-2 2.1-2 .848 0 1.448.185 1.8.554l.616-.717C14.83 10.27 14.288 10 13.098 10 11.34 10 10 11.358 10 13c0 1.682 1.364 3 3.002 3 1.29 0 2.021-.407 2.614-1.019L15 14.283z"/></g></svg>