<svg xmlns="http://www.w3.org/2000/svg" width="16" height="16" viewBox="0 0 16 16"><rect id="frame" width="16" height="16" fill="none"/><defs><linearGradient id="a" x1="49.997%" x2="49.997%" y1="-19.516%" y2="129.625%"><stop offset="0%" stop-color="#0994DC"/><stop offset="35.001%" stop-color="#66CEF5"/><stop offset="35.001%" stop-color="#66CEF5"/><stop offset="84.616%" stop-color="#127BCA"/><stop offset="84.616%" stop-color="#127BCA"/><stop offset="100%" stop-color="#127BCA"/></linearGradient><linearGradient id="b" x1="50.001%" x2="50.001%" y1="-19.516%" y2="129.624%"><stop offset="0%" stop-color="#0E76BC"/><stop offset="36%" stop-color="#36AEE8"/><stop offset="36%" stop-color="#36AEE8"/><stop offset="84.616%" stop-color="#00ADEF"/><stop offset="84.616%" stop-color="#00ADEF"/><stop offset="100%" stop-color="#00ADEF"/></linearGradient><linearGradient id="c" x1="49.999%" x2="49.999%" y1="110.922%" y2="-6.214%"><stop offset="0%" stop-color="#1C63B7"/><stop offset="50%" stop-color="#33BDF2"/><stop offset="100%" stop-color="#33BDF2" stop-opacity=".42"/></linearGradient><linearGradient id="d" x1="50.001%" x2="50.001%" y1="-19.515%" y2="129.627%"><stop offset="0%" stop-color="#166AB8"/><stop offset="39.999%" stop-color="#36AEE8"/><stop offset="39.999%" stop-color="#36AEE8"/><stop offset="84.616%" stop-color="#0798DD"/><stop offset="84.616%" stop-color="#0798DD"/><stop offset="100%" stop-color="#0798DD"/></linearGradient><linearGradient id="e" x1="49.999%" x2="49.999%" y1="-19.521%" y2="129.627%"><stop offset="0%" stop-color="#124379"/><stop offset="39%" stop-color="#1487CB"/><stop offset="39%" stop-color="#1487CB"/><stop offset="78.023%" stop-color="#165197"/><stop offset="78.023%" stop-color="#165197"/><stop offset="100%" stop-color="#165197"/></linearGradient><linearGradient id="f" x1="0%" y1="50.001%" y2="50.001%"><stop offset="0%" stop-color="#33BDF2" stop-opacity=".698"/><stop offset="100%" stop-color="#1DACD8"/></linearGradient><linearGradient id="g" x1="50.01%" x2="50.01%" y1="94.686%" y2="-3.025%"><stop offset="0%" stop-color="#136AB4"/><stop offset="60%" stop-color="#59CAF5" stop-opacity=".549"/><stop offset="100%" stop-color="#59CAF5" stop-opacity=".235"/></linearGradient><linearGradient id="h" x1="-.001%" x2="99.999%" y1="50%" y2="50%"><stop offset="0%" stop-color="#05A1E6" stop-opacity=".247"/><stop offset="100%" stop-color="#05A1E6"/></linearGradient><linearGradient id="i" x1="49.998%" x2="49.998%" y1="124.314%" y2="-9.421%"><stop offset="0%" stop-color="#318ED5"/><stop offset="100%" stop-color="#38A7E4"/></linearGradient><linearGradient id="j" x1="49.999%" x2="49.999%" y1="91.2%" y2="-76.785%"><stop offset="0%" stop-color="#05A1E6"/><stop offset="100%" stop-color="#05A1E6" stop-opacity=".549"/></linearGradient><linearGradient id="k" x1="50%" x2="50%" y1="100.01%" y2=".01%"><stop offset="0%" stop-color="#1959A6"/><stop offset="50%" stop-color="#05A1E6"/><stop offset="50%" stop-color="#05A1E6"/><stop offset="91.759%" stop-color="#7EC5EA"/><stop offset="100%" stop-color="#7EC5EA"/></linearGradient><linearGradient id="l" x1="59.804%" x2="38.471%" y1="94.568%" y2="5.755%"><stop offset="0%" stop-color="#165096"/><stop offset="100%" stop-color="#0D82CA"/></linearGradient><linearGradient id="m" x1="49.995%" x2="49.995%" y1="76.998%" y2="-3.299%"><stop offset="0%" stop-color="#05A1E6"/><stop offset="87.363%" stop-color="#0495D6"/><stop offset="100%" stop-color="#0495D6"/></linearGradient><linearGradient id="n" x1="65.263%" x2="34.263%" y1="-4.161%" y2="105.844%"><stop offset="0%" stop-color="#38A7E4" stop-opacity=".329"/><stop offset="96.153%" stop-color="#0E88D3"/><stop offset="96.153%" stop-color="#0E88D3"/><stop offset="100%" stop-color="#0E88D3"/></linearGradient><linearGradient id="o" x1="50.017%" x2="50.017%" y1="-.296%" y2="101.882%"><stop offset="0%" stop-color="#168CD4"/><stop offset="50%" stop-color="#1C87CC"/><stop offset="100%" stop-color="#154B8D"/></linearGradient><linearGradient id="p" x1="16.674%" x2="87.813%" y1="205.565%" y2="-19.836%"><stop offset="0%" stop-color="#97D6EE"/><stop offset="70.329%" stop-color="#55C1EA"/><stop offset="100%" stop-color="#55C1EA"/></linearGradient><linearGradient id="q" x1="6.89%" x2="75.783%" y1="6.3%" y2="116.771%"><stop offset="0%" stop-color="#7ACCEC"/><stop offset="100%" stop-color="#3FB7ED"/></linearGradient><linearGradient id="r" x1="49.997%" x2="49.997%" y1="6.363%" y2="127.961%"><stop offset="0%" stop-color="#1DA7E7"/><stop offset="100%" stop-color="#37ABE7" stop-opacity="0"/></linearGradient></defs><g fill="none" fill-rule="evenodd"><path fill="url(#a)" d="M5.582 1.293c.573 1.752.79 4.876 2.465 4.876.127 0 .256-.012.385-.037C6.91 5.777 6.73 2.687 5.8 1.086a7.709 7.709 0 0 0-.218.207" transform="translate(0 5)"/><path fill="url(#b)" d="M5.8 1.086c.93 1.6 1.11 4.691 2.632 5.046.12-.022.24-.055.36-.097-1.367-.67-1.744-3.67-2.8-5.116-.065.055-.129.11-.192.167" transform="translate(0 5)"/><path fill="#14559A" d="M7.139 5.134c-.127 0-.257.013-.386.037-.34.064-.683.21-1.03.43.094.094.185.201.27.318.352-.293.703-.51 1.053-.64.127-.047.259-.083.392-.108a1.21 1.21 0 0 0-.3-.037"/><path fill="url(#c)" d="M9.859 5.418c.145-.116.286-.24.42-.368C9.697 3.306 9.49.137 7.802.137c-.12 0-.242.01-.364.033 1.537.383 1.734 3.725 2.42 5.248" transform="translate(0 5)"/><path fill="#3092C4" d="M7.438 5.2a.787.787 0 0 0-.3-.058l.664.004c-.12 0-.242.018-.364.054"/><path fill="#1969BC" d="M9.83 10.788a2.498 2.498 0 0 1-.19-.205c-.285.2-.567.353-.848.452a1.305 1.305 0 0 0 .585.134c.315 0 .564-.037.776-.139a1.474 1.474 0 0 1-.324-.242"/><path fill="url(#d)" d="M7.045.28C8.422 1 8.541 4.26 9.64 5.583c.075-.053.148-.108.22-.165C9.17 3.895 8.975.552 7.439.17a2.379 2.379 0 0 0-.394.11" transform="translate(0 5)"/><path fill="url(#e)" d="M5.992.92c1.055 1.444 1.433 4.446 2.8 5.115.28-.099.564-.251.847-.452C8.541 4.259 8.422 1 7.045.28c-.349.13-.7.346-1.053.64" transform="translate(0 5)"/><path fill="url(#f)" d="M4.907 1.25c-.166.375-.335.866-.539 1.508.406-.572.811-1.066 1.214-1.465a4.392 4.392 0 0 0-.18-.468 6.048 6.048 0 0 0-.495.426" transform="translate(0 5)"/><path fill="#2B74B1" d="M5.55 5.717l-.147.108a4.4 4.4 0 0 1 .179.468c.071-.07.144-.14.218-.207a2.9 2.9 0 0 0-.25-.369"/><path fill="#125A9E" d="M5.723 5.602a4.765 4.765 0 0 0-.174.115c.09.111.173.235.251.37.063-.058.127-.113.192-.168a2.55 2.55 0 0 0-.27-.317"/><path fill="url(#g)" d="M15.11 0c-.78 3.002-2.405 5.413-3.768 6.02h-.002c-.025.012-.05.022-.074.032l-.009.004-.02.008-.01.004c-.012.004-.023.007-.034.012l-.014.005a.17.17 0 0 1-.017.005l-.017.006-.014.005-.03.009-.011.003-.02.005-.013.004a.433.433 0 0 1-.022.005l-.026.006a.555.555 0 0 0 .195.034c1.292 0 2.595-2.316 4.751-6.167h-.846z" transform="translate(0 5)"/><path fill="url(#h)" d="M4.088.256L4.09.254s.003 0 .003-.002h.002l.02-.008c.002 0 .003 0 .005-.002L4.125.24l.023-.008.05-.018.008-.002.021-.006c.003-.002.007-.002.01-.003l.021-.007.008-.002a2.12 2.12 0 0 1 .071-.018l.01-.002a.137.137 0 0 1 .02-.005l.011-.003.021-.004h.005l.043-.008h.009l.02-.003.01-.002c.007 0 .014-.002.02-.003.003 0 .007 0 .01-.002L4.564.14a1.436 1.436 0 0 0-.137-.007C2.97.133.965 2.833.062 6.33h.174c.289-.515.548-1.003.786-1.46C1.655 2.391 2.943.702 4.088.254" transform="translate(0 5)"/><path fill="#0D82CA" d="M4.907 6.25c.157-.15.323-.292.496-.425a2.342 2.342 0 0 0-.118-.228 2.798 2.798 0 0 0-.378.654"/><path fill="#0D82CA" d="M5.026 5.276c.095.08.18.19.259.321.024-.03.049-.058.075-.084a1.46 1.46 0 0 0-.334-.237"/><path fill="url(#i)" d="M1.022 4.87C2.349 2.312 2.978.694 4.088.256 2.943.704 1.655 2.393 1.022 4.87" transform="translate(0 5)"/><path fill="#127BCA" d="M5.36 5.513c-.026.026-.05.054-.076.084.044.074.083.15.119.228l.146-.108a1.993 1.993 0 0 0-.19-.204"/><path fill="url(#j)" d="M1.624 6.32l-.024.002h-.004l-.02.002h-.004l-.049.003h-.005c1.343-.037 1.957-.71 2.262-1.685.231-.74.422-1.362.588-1.885-.562.792-1.128 1.736-1.696 2.793-.274.51-.69.723-1.048.768" transform="translate(0 5)"/><path fill="url(#k)" d="M1.624 6.319c.358-.046.774-.258 1.048-.768.568-1.058 1.134-2.002 1.696-2.794.204-.642.373-1.133.539-1.507-1.12 1.067-2.245 2.84-3.283 5.068" transform="translate(0 5)"/><path fill="#05A1E6" d="M1.022 9.87c-.238.458-.497.945-.786 1.46h.506c.064-.491.157-.98.28-1.46"/><path fill="url(#l)" d="M4.516.145l-.01.002C4.5.15 4.493.15 4.486.15c-.003 0-.007 0-.01.002l-.02.004c-.003 0-.007 0-.01.002l-.042.007h-.005a.163.163 0 0 1-.021.004l-.01.003-.021.004c-.004.002-.006.002-.01.002a2.285 2.285 0 0 0-.07.019l-.009.002a1.102 1.102 0 0 0-.021.007c-.003.002-.007.002-.01.003a.592.592 0 0 0-.021.006l-.008.002-.05.017-.022.008-.01.004-.02.008-.007.003C2.979.695 2.35 2.314 1.023 4.87c-.122.48-.216.968-.28 1.46h.071l.487-.001h.223l.05-.004h.002l.02-.002h.006l.024-.003C2.663 4.093 3.788 2.32 4.908 1.254c.123-.28.245-.493.378-.654a1.238 1.238 0 0 0-.258-.321s-.003 0-.003-.002L5.009.269 4.993.261a.17.17 0 0 1-.015-.007L4.96.246 4.946.24a.598.598 0 0 1-.03-.012L4.905.223a.418.418 0 0 1-.022-.008C4.88.212 4.875.212 4.871.21L4.84.2h-.003C4.826.195 4.814.192 4.802.19 4.8.187 4.797.187 4.794.187l-.03-.009-.006-.002a1.05 1.05 0 0 0-.074-.016L4.676.16a.436.436 0 0 0-.032-.005C4.642.152 4.64.152 4.638.152A.851.851 0 0 0 4.6.147h-.006l-.03-.003-.046.004" transform="translate(0 5)"/><path fill="url(#m)" d="M12.069 1.662c-.255.818-.462 1.493-.642 2.048.7-.964 1.39-2.177 2.048-3.576-.767.24-1.176.791-1.406 1.528" transform="translate(0 5)"/><path fill="url(#n)" d="M11.45 5.97a2.093 2.093 0 0 1-.108.05c1.363-.607 2.989-3.018 3.767-6.02h-.158c-1.788 3.195-2.363 5.333-3.502 5.97" transform="translate(0 5)"/><path fill="#079AE1" d="M10.56 10.701c.296-.361.537-.977.867-1.99-.38.522-.763.97-1.146 1.337 0 .002 0 .002-.002.003.083.25.175.472.28.65"/><path fill="#1969BC" d="M10.56 10.701a1.215 1.215 0 0 1-.407.33 1.148 1.148 0 0 0 .484.136h.004c.01 0 .022 0 .033.002h.11c.005 0 .01 0 .013-.002.008 0 .017 0 .025-.002h.012l.027-.002h.002l.008-.002c.01-.003.019-.003.028-.005h.009l.031-.005h.006c.021-.004.042-.008.063-.014-.176-.064-.323-.216-.45-.432"/><path fill="#1E5CB3" d="M8.047 11.17a2.391 2.391 0 0 0 .745-.134 1.308 1.308 0 0 0 .585.133h-1.33z"/><path fill="#1E5CB3" d="M9.377 11.17c.315 0 .564-.038.776-.14a1.149 1.149 0 0 0 .484.137h.004c.01 0 .022 0 .033.003h.038-1.336.001z"/><path fill="#1D60B5" d="M10.713 11.198h.073c.004 0 .008 0 .012-.004.008 0 .017 0 .025-.003h.012c.009 0 .018-.003.027-.004h.002c.002 0 .005-.004.008-.004l.028-.007c.003 0 .006 0 .009-.003l.032-.008h.005a.8.8 0 0 0 .064-.021.375.375 0 0 0 .195.054l-.492.004v-.004z"/><path fill="#175FAB" d="M10.28 10.051v-.002a6.132 6.132 0 0 1-.64.534c.061.073.124.142.19.205.1.097.207.179.324.242a1.212 1.212 0 0 0 .406-.329 3.498 3.498 0 0 1-.28-.65"/><path fill="url(#o)" d="M14.452 0h-.794l-.125.007-.06.125c-.656 1.4-1.346 2.613-2.047 3.577-.33 1.014-.571 1.629-.868 1.99.127.217.275.37.45.434l.014-.003h.003l.01-.002c.006-.003.014-.004.021-.006l.013-.004.02-.005.012-.003.03-.01a.083.083 0 0 1 .014-.004c.006-.002.011-.003.016-.006l.017-.005.014-.005c.011-.005.023-.008.034-.012.003 0 .006-.003.01-.004l.02-.008c.003-.002.006-.002.01-.003l.073-.032h.003c.036-.016.071-.033.106-.051 1.14-.636 1.715-2.775 3.503-5.97h-.5.001z" transform="translate(0 5)"/><path fill="#7DCBEC" d="M4.563 5.141c.003 0 .005 0 .008.002.007 0 .014 0 .02.002H4.6l.038.005a.756.756 0 0 0 .038.007c.002 0 .005.003.008.003.024.004.05.01.074.016l.006.002.03.008c.003 0 .005.002.008.003a.5.5 0 0 1 .038.012l.03.01.012.004.022.01c.004 0 .008.002.013.004l.029.012.014.006a.833.833 0 0 0 .033.015l.016.008c.127.062.243.145.352.246.038-.04.08-.079.124-.113a1.373 1.373 0 0 0-.92-.259"/><path fill="#5EC5ED" d="M5.36 5.513c.067.064.13.132.19.205.056-.04.114-.079.173-.116a1.828 1.828 0 0 0-.239-.202 1.116 1.116 0 0 0-.124.113"/><path fill="url(#p)" d="M4.563.393a1.374 1.374 0 0 0 .921-.259c.25.197.551.266.97.266H4.425c.047 0 .093-.003.138-.007" transform="matrix(1 0 0 -1 0 5.534)"/><path fill="url(#q)" d="M6.454.602c-.419 0-.72-.069-.97-.266.085-.06.165-.128.238-.202.348.22.692.367 1.031.431.127.024.256.037.386.037h-.685z" transform="matrix(1 0 0 -1 0 5.736)"/><path fill="url(#r)" d="M11.427 3.71c.18-.555.386-1.23.642-2.048.23-.737.639-1.288 1.406-1.528l.059-.126c-1.25.075-1.834.71-2.128 1.652-.514 1.644-.825 2.71-1.125 3.388a9.988 9.988 0 0 0 1.146-1.337" transform="translate(0 5)"/><path fill="#000" fill-rule="nonzero" d="M13.586 10.786h-.277v.893h-.113v-.893h-.277v-.107h.667v.107zm1.132.893h-.112v-.671c0-.053.004-.118.009-.195a.71.71 0 0 1-.03.098l-.327.768h-.055l-.329-.762a.555.555 0 0 1-.03-.103h-.003c.004.04.005.105.005.195v.67h-.108v-1h.149l.295.698a.925.925 0 0 1 .043.12h.005l.046-.123.301-.695h.142v1h-.001z"/></g></svg>