<svg xmlns="http://www.w3.org/2000/svg" width="16" height="16" viewBox="0 0 16 16"><rect id="frame" width="16" height="16" fill="none"/><defs><linearGradient id="a" x1="10.428%" x2="89.522%" y1="45.224%" y2="44.164%"><stop offset="0%" stop-color="#5B9FD3"/><stop offset="48.719%" stop-color="#A0D64D"/><stop offset="100%" stop-color="#FEE873"/></linearGradient></defs><g fill="none" fill-rule="nonzero"><path fill="url(#a)" stroke="#000101" stroke-width=".4" d="M5.723 12.895l.073.038a3.103 3.103 0 0 0 1.954.667c.64 0 1.247-.182 1.817-.542 3.051-.561 5.233-2.696 5.233-5.158 0-2.915-3.035-5.3-6.8-5.3-3.765 0-6.8 2.385-6.8 5.3 0 2.252 1.828 4.248 4.523 4.995zm-.557-3.084C4.066 9.291 3.4 8.489 3.4 7.6c0-1.574 2.074-2.8 4.6-2.8s4.6 1.226 4.6 2.8c0 .995-.835 1.877-2.16 2.378l-.147.056-.089-.13C9.695 9.166 8.771 8.7 7.75 8.7c-.948 0-1.814.4-2.343 1.056l-.1.122-.141-.067z"/><path fill="#2B2B2B" fill-opacity=".1" d="M8.05 10.2c2.407-.016 4.35-1.174 4.35-2.6C12.4 6.164 10.43 5 8 5 5.57 5 3.6 6.164 3.6 7.6c0 .742.525 1.41 1.368 1.884C3.888 8.916 3.2 8.06 3.2 7.1 3.2 5.388 5.394 4 8.1 4 10.806 4 13 5.388 13 7.1c0 1.712-2.194 3.1-4.9 3.1h-.05z"/><path fill="#000" d="M10.22 12.721l1.301-.504c.479-.217.954-.79.858-1.31l-.002-.012c-.102-.51-.637-.847-1.197-.755l-.96.076v2.505zm0-2.885l.871-.144c.831-.136 1.627.366 1.778 1.122l.003.017c.142.767-.42 1.395-1.262 1.733l-1.39.43"/><path fill="#2B2B2B" fill-opacity=".1" d="M1.57 7.757c-.111.335-.17.684-.17 1.043 0 2.54 2.955 4.6 6.6 4.6 3.645 0 6.6-2.06 6.6-4.6 0-.203-.019-.403-.055-.598-.193 2.238-3.023 4.014-6.486 4.014-3.587 0-6.496-1.906-6.496-4.258 0-.067.003-.134.007-.201z"/><circle cx="7.5" cy="10" r="1" fill="#1D1D1D"/><circle cx="7.5" cy="12" r="1" fill="#1D1D1D"/></g></svg>