<svg xmlns="http://www.w3.org/2000/svg" width="16" height="16" viewBox="0 0 16 16"><rect id="frame" width="16" height="16" fill="none"/><g fill="none" fill-rule="evenodd"><path fill="#9AA7B0" fill-opacity=".8" d="M15 8.599a2.49 2.49 0 0 0-.582-.081v-.214a2.081 2.081 0 0 0-.54-1.549c-.384-.42-.887-.743-1.457-.755H10.58c-.57.012-1.073.335-1.457.755-.385.42-.58.98-.54 1.549v.214a2.49 2.49 0 0 0-2.384 1.97c-.224.806-.174 1.765.152 2.512H1V2.051C1 2.023 1.023 2 1.051 2H4.98a2.8 2.8 0 0 1 1.717.711L7.985 4H15v4.599zM4 6h4-4z"/><path fill="#40A0CF" fill-opacity=".9" fill-rule="nonzero" d="M11.491 6.878c-.35 0-.701.03-1.047.089-.928.162-1.097.501-1.097 1.127v.827h2.193v.275H8.524a1.366 1.366 0 0 0-1.37 1.1 4.011 4.011 0 0 0 0 2.204c.06.606.558 1.075 1.166 1.1h.754v-.991a1.386 1.386 0 0 1 1.37-1.347h2.19a1.099 1.099 0 0 0 1.096-1.103V8.094a1.217 1.217 0 0 0-1.096-1.127 6.913 6.913 0 0 0-1.143-.089zm-1.186.665a.413.413 0 1 1 .004.827.413.413 0 0 1-.004-.827z"/><path fill="#FFC900" fill-opacity=".9" fill-rule="nonzero" d="M14.004 9.196v.963a1.399 1.399 0 0 1-1.37 1.376h-2.19a1.112 1.112 0 0 0-1.097 1.102v2.065a1.27 1.27 0 0 0 1.097 1.102c.713.22 1.476.22 2.19 0a1.251 1.251 0 0 0 1.096-1.102v-.827h-2.19V13.6h3.286c.638 0 .875-.44 1.097-1.1a3.683 3.683 0 0 0 0-2.204 1.17 1.17 0 0 0-1.097-1.1h-.822zm-1.232 5.23a.413.413 0 1 1 .003.827.413.413 0 0 1-.003-.827z"/></g></svg>