<svg xmlns="http://www.w3.org/2000/svg" width="16" height="16" viewBox="0 0 16 16"><rect id="frame" width="16" height="16" fill="none"/><g fill="none" fill-rule="evenodd"><g fill-opacity=".9" fill-rule="nonzero"><path fill="#40A0CF" d="M7.91 1.026c-.54 0-1.08.046-1.612.136-1.428.25-1.687.772-1.687 1.735v1.271h3.374v.424h-4.64a2.102 2.102 0 0 0-2.108 1.692 6.172 6.172 0 0 0 0 3.391 1.879 1.879 0 0 0 1.794 1.692h1.16V9.842A2.132 2.132 0 0 1 6.297 7.77h3.37a1.69 1.69 0 0 0 1.687-1.696V2.897a1.872 1.872 0 0 0-1.687-1.735 10.636 10.636 0 0 0-1.758-.136zM6.086 2.049A.636.636 0 1 1 6.09 3.32a.636.636 0 0 1-.005-1.271z"/><path fill="#FFC900" d="M11.691 6.637c.052-.179.081-.368.084-.563V4.592h1.267c.909.057 1.633.783 1.686 1.692a5.667 5.667 0 0 1 .063 3.178L11.828 6.5l-.137.137zm-1.468 1.469L9 9.328l2.039 2.04H7.985v.423h3.37v1.272c-.1.888-.8 1.59-1.687 1.695a5.704 5.704 0 0 1-3.37 0 1.954 1.954 0 0 1-1.687-1.695V9.885A1.711 1.711 0 0 1 6.298 8.19h3.37c.192-.004.378-.033.555-.084zm-.343 4.533a.633.633 0 0 0-.633.634.636.636 0 1 0 .633-.634z"/></g><path fill="#9AA7B0" d="M13.136 11.937L10.6 14.473l1.4 1.401 3.924-3.924-.013-.013.013-.013L12 8l-1.4 1.4z"/></g></svg>