<svg xmlns="http://www.w3.org/2000/svg" width="16" height="16" viewBox="0 0 16 16"><rect id="frame" width="16" height="16" fill="none"/><g fill="none" fill-rule="evenodd"><g fill-opacity=".9" fill-rule="nonzero"><path fill="#40A0CF" d="M7.91 1.026c-.54 0-1.08.046-1.612.136-1.428.25-1.687.772-1.687 1.735v1.271h3.374v.424h-4.64a2.102 2.102 0 0 0-2.108 1.692 6.172 6.172 0 0 0 0 3.391 1.879 1.879 0 0 0 1.794 1.692h1.16V9.842A2.132 2.132 0 0 1 6.297 7.77h3.37a1.69 1.69 0 0 0 1.687-1.696V2.897a1.872 1.872 0 0 0-1.687-1.735 10.636 10.636 0 0 0-1.758-.136zM6.086 2.049A.636.636 0 1 1 6.09 3.32a.636.636 0 0 1-.005-1.271z"/><path fill="#FFC900" d="M10 14.689a1.93 1.93 0 0 1-.332.07 5.704 5.704 0 0 1-3.37 0 1.954 1.954 0 0 1-1.687-1.696V9.885A1.711 1.711 0 0 1 6.298 8.19h3.37a2.152 2.152 0 0 0 2.107-2.116V4.592h1.267c.909.057 1.633.783 1.686 1.692.277.882.333 1.814.167 2.716H10v2.367H7.985v.424H10v.859a.633.633 0 0 0-.753.623.636.636 0 0 0 .753.627v.789z"/></g><path fill="#9AA7B0" d="M11 16v-6h2.683c.757 0 1.35.204 1.737.582.319.327.58.773.58 1.298 0 1.006-.674 1.6-1.508 1.841L16.117 16h-1.256l-1.479-2H12v2h-1zm1-3h1.606c.757 0 1.394-.431 1.394-1.042v-.017c0-.645-.62-.941-1.403-.941H12v2z"/></g></svg>