<svg xmlns="http://www.w3.org/2000/svg" width="16" height="16" viewBox="0 0 16 16"><rect id="frame" width="16" height="16" fill="none"/><g fill="none" fill-rule="evenodd"><path fill="#1159CC" d="M14.286 3.63V2.42L11.38 4.11v1.023l-2.325 5.014-1.163.802v3.674l2.492-1.437z"/><path fill="#1159CC" d="M7.892 8.334l-1.743-4.07v-1.15l-.011-.004-1.732 1v1.023l2.325 5.235 1.161-.575z"/><path fill="#127EFF" d="M12.543 1.402L9.639 3.103h-.002v1.161l-1.745 4.07v1.36l-1.161.674-2.325-5.235V4.108l1.745-1.003-2.908-1.703L1.5 2.42v1.247l3.924 9.53 2.468 1.426v-3.581l1.163-.674-.015-.009 2.34-5.226V4.108l2.906-1.688z"/></g></svg>