<svg xmlns="http://www.w3.org/2000/svg" width="16" height="16" viewBox="0 0 16 16"><rect id="frame" width="16" height="16" fill="none"/><g fill="none" fill-rule="evenodd"><path fill="#4285F4" d="M15.324 7.284l-3.2-5.567A1.407 1.407 0 0 0 10.922 1H4.519a1.406 1.406 0 0 0-1.2.716L.116 7.27a1.397 1.397 0 0 0 0 1.392l3.202 5.6c.242.44.697.721 1.2.74h6.404a1.428 1.428 0 0 0 1.201-.737l3.201-5.568c.25-.438.25-.975 0-1.413z"/><path fill="#000" d="M12.257 7.757l-.084-.026-4.248-4.25-.872 1.275.73.73-1.858.677-.73 1.848-.714-.713-1.28 1.13L9.776 15h1.147a1.428 1.428 0 0 0 1.201-.737l2.424-4.218-2.29-2.288z" opacity=".07"/><g fill="#FFF"><path fill-rule="nonzero" d="M7.72 5.2a2.8 2.8 0 1 0 0 5.6 2.8 2.8 0 0 0 0-5.6m0 4.933A2.129 2.129 0 1 1 9.849 8a2.128 2.128 0 0 1-2.127 2.128"/><path d="M12.12 7.667l-1.17-.365a3.305 3.305 0 0 1 .039 1.19h1.132a.206.206 0 0 0 .174-.19V7.86a.206.206 0 0 0-.174-.192m-4.4-2.973c.23 0 .46.024.685.072l-.42-1.165a.206.206 0 0 0-.192-.174h-.176a.204.204 0 0 0-.192.174l-.365 1.16c.216-.044.436-.066.657-.066M4.416 8c0-.236.024-.47.074-.7l-1.17.365a.206.206 0 0 0-.174.192V8.3a.206.206 0 0 0 .174.191h1.132a3.308 3.308 0 0 1-.036-.493"/><path fill-rule="nonzero" d="M8.722 7.084l-.271.266a1.01 1.01 0 0 0-1.423 1.429l-.265.265a1.386 1.386 0 1 0 1.96-1.96m-.548 1.37a.643.643 0 1 1-.91-.909.643.643 0 0 1 .91.909"/></g></g></svg>