<svg ti:v="1" width="16" height="16" viewBox="0 0 16 16" xmlns="http://www.w3.org/2000/svg" xmlns:ti="urn:schemas-jetbrains-com:tisvg"><rect id="frame" width="16" height="16" fill="none"/><linearGradient id="a" x1=".5" y1="0" x2=".5" y2="1.009"><stop offset="0" stop-color="#005DA8"/><stop offset="1" stop-color="#00335D"/></linearGradient><path fill-rule="evenodd" d="M10 2v12h.414L16 8.414v-.828L10.414 2M5.586 2L0 7.586v.828L5.586 14H6V2h-.414z" fill="url(#a)"/><linearGradient id="b" x1=".5" y1="0" x2=".5" y2="1.011"><stop offset="0" stop-color="#D8EDFF"/><stop offset="1" stop-color="#95CFFF"/></linearGradient><path fill-rule="evenodd" d="M11 6l2 2-2 2v2l4-4-4-4M1 8l4 4v-2L3 8l2-2V4L1 8z" fill="url(#b)"/><linearGradient id="c" x1=".5" y1="0" x2=".5" y2="1"><stop offset="0" stop-color="#0075AA"/><stop offset="1" stop-color="#00547A"/></linearGradient><path fill-rule="evenodd" d="M9.123 2l-.646 1.312A2.997 2.997 0 0 0 6 2C4.346 2 3 3.346 3 5s1.346 3 3 3c.06 0 .116-.014.175-.017l-2.553 5.181L5.763 14h1.114l.646-1.311A3 3 0 0 0 10 14c1.654 0 3-1.345 3-3 0-1.654-1.346-3-3-3-.06 0-.116.014-.175.018l2.553-5.182L10.237 2H9.123z" fill="url(#c)"/><linearGradient id="d" x1=".5" y1="0" x2=".5" y2="1"><stop offset="0" stop-color="#E8F7FF"/><stop offset="1" stop-color="#B3E8FF"/></linearGradient><path fill-rule="evenodd" d="M9.745 3L5 12.628l.951.372h.304L11 3.372 10.049 3M4 5a2 2 0 0 0 4 0 2 2 0 0 0-4 0zm1 0a1 1 0 1 1 2 0 1 1 0 1 1-2 0zm3 6a2 2 0 1 0 4 0 2 2 0 1 0-4 0zm1 0a1 1 0 0 1 2 0 1 1 0 0 1-2 0z" fill="url(#d)"/></svg>