<svg xmlns="http://www.w3.org/2000/svg" width="16" height="16" viewBox="0 0 16 16">
	<path fill="#242424" fill-rule="evenodd" d="M1 16V5c0-2.757 2.243-5 5-5h9v16H1z" clip-rule="evenodd"/>
	<path fill="#C3C3C3" fill-rule="evenodd" d="M6 1a4 4 0 00-4 4v10h12V1H6z" clip-rule="evenodd"/>
	<path fill="#282828" fill-rule="evenodd" d="M3 14V5c0-1.654 1.346-3 3-3h7v12H3z" clip-rule="evenodd"/>
	<path fill="#242424" fill-rule="evenodd" d="M8.376 14L13 9.954v-.908L8.376 5H7v2H6V5H4.624L0 9.046v.908L4.624 14H6v-2h1v2h1.376z" clip-rule="evenodd"/>
	<path fill="#8CCF8C" fill-rule="evenodd" d="M5.5 10V9h1V8H5V6L1 9.5 5 13v-2h1.5v-1h-1z" clip-rule="evenodd"/>
	<path fill="#F28366" fill-rule="evenodd" d="M12 9.5L8 6v2H6.5v1h1v1h-1v1H8v2l4-3.5z" clip-rule="evenodd"/>
</svg>