<svg xmlns="http://www.w3.org/2000/svg" width="16" height="16" viewBox="0 0 16 16">
	<path fill="#F4F4F4" fill-rule="evenodd" d="M1 16V5c0-2.757 2.243-5 5-5h9v16H1z" clip-rule="evenodd"/>
	<path fill="#313131" fill-rule="evenodd" d="M6 1a4 4 0 00-4 4v10h12V1H6z" clip-rule="evenodd"/>
	<path fill="#EBEBEB" fill-rule="evenodd" d="M3 14V5c0-1.654 1.346-3 3-3h7v12H3z" clip-rule="evenodd"/>
	<path fill="#F4F4F4" fill-rule="evenodd" d="M5.376 14L10 9.954v-.908L5.376 5H4v2H1v5h3v2h1.376z" clip-rule="evenodd"/>
	<path fill="#A1260C" fill-rule="evenodd" d="M5 11v2l4-3.5L5 6v2H2v3h3z" clip-rule="evenodd"/>
</svg>