<svg xmlns="http://www.w3.org/2000/svg" width="16" height="16"><defs><linearGradient id="a" x1="8" y1=".083" x2="8" y2="16.167" gradientUnits="userSpaceOnUse"><stop offset="0" stop-color="#576a80"/><stop offset="1" stop-color="#2d3742"/></linearGradient><linearGradient id="b" x1="8" y1="1" x2="8" y2="15" gradientUnits="userSpaceOnUse"><stop offset="0" stop-color="#fff"/><stop offset="1" stop-color="#e0efff"/></linearGradient><linearGradient id="c" x1="8" y1="2.25" x2="8" y2="14.167" gradientUnits="userSpaceOnUse"><stop offset="0" stop-color="#c2d9f2"/><stop offset="1" stop-color="#e0efff"/></linearGradient><linearGradient id="d" x1="8" y1="3" x2="8" y2="13" gradientUnits="userSpaceOnUse"><stop offset="0" stop-color="#907b00"/><stop offset="1" stop-color="#664900"/></linearGradient><linearGradient id="e" x1="8" y1="4" x2="8" y2="12" gradientUnits="userSpaceOnUse"><stop offset="0" stop-color="#fdfff1"/><stop offset="1" stop-color="#e7a200"/></linearGradient></defs><path d="M1 16V5a5.006 5.006 0 015-5h9v16z" fill="url(#a)"/><path d="M6 1a4 4 0 00-4 4v10h12V1z" fill="url(#b)"/><path d="M3 14V5a3 3 0 013-3h7v12z" fill="url(#c)"/><g><path d="M13 8a5 5 0 11-5-5 5 5 0 015 5z" fill="url(#d)"/><path d="M10.714 8.658a2.816 2.816 0 01-.331.8l.767.984a4 4 0 01-.711.713l-.986-.768a2.806 2.806 0 01-.795.332l-.158 1.23A3.983 3.983 0 018 12a3.983 3.983 0 01-.5-.051l-.154-1.235a2.806 2.806 0 01-.795-.332l-.985.768a3.972 3.972 0 01-.712-.713l.767-.984a2.816 2.816 0 01-.331-.795L4.051 8.5A3.807 3.807 0 014 8a3.807 3.807 0 01.051-.5l1.235-.154a2.8 2.8 0 01.331-.795l-.767-.988a3.972 3.972 0 01.712-.713l.985.767a2.8 2.8 0 01.8-.331L7.5 4.051A3.807 3.807 0 018 4a3.807 3.807 0 01.5.051l.154 1.235a2.8 2.8 0 01.8.331l.986-.767a4 4 0 01.711.713l-.767.984a2.8 2.8 0 01.331.8l1.235.154A3.807 3.807 0 0112 8a3.807 3.807 0 01-.051.5z" fill="url(#e)"/><path d="M9 8a1 1 0 11-1-1 1 1 0 011 1z" fill="#3c2c0f"/></g></svg>