<svg xmlns="http://www.w3.org/2000/svg" width="16" height="16"><path d="M1 16V5a5.006 5.006 0 015-5h9v16z" fill="#252525"/><path d="M6 1a4 4 0 00-4 4v10h12V1z" fill="#c4c4c4"/><path d="M3 14V5a3 3 0 013-3h7v12z" fill="#292929"/><g><path d="M13 8a5 5 0 11-5-5 5 5 0 015 5z" fill="#252525"/><path d="M10.714 8.658a2.816 2.816 0 01-.331.8l.767.984a3.972 3.972 0 01-.712.713l-.985-.768a2.806 2.806 0 01-.795.332l-.158 1.23A3.983 3.983 0 018 12a3.983 3.983 0 01-.5-.051l-.154-1.235a2.806 2.806 0 01-.795-.332l-.985.768a3.972 3.972 0 01-.712-.713l.767-.984a2.816 2.816 0 01-.331-.795L4.051 8.5A3.807 3.807 0 014 8a3.807 3.807 0 01.051-.5l1.235-.154a2.8 2.8 0 01.331-.795l-.767-.988a3.972 3.972 0 01.712-.713l.985.767a2.8 2.8 0 01.8-.331L7.5 4.051A3.807 3.807 0 018 4a3.807 3.807 0 01.5.051l.154 1.235a2.8 2.8 0 01.8.331l.985-.767a3.972 3.972 0 01.712.713l-.767.984a2.8 2.8 0 01.331.8l1.235.154A3.807 3.807 0 0112 8a3.807 3.807 0 01-.051.5z" fill="#c4c4c4"/><path d="M9 8a1 1 0 11-1-1 1 1 0 011 1z" fill="#292929"/></g></svg>