<svg xmlns="http://www.w3.org/2000/svg" width="16" height="16" viewBox="0 0 16 16">
	<path fill="#F4F4F4" fill-rule="evenodd" d="M1 16V5c0-2.757 2.243-5 5-5h9v16H1z" clip-rule="evenodd"/>
	<path fill="#313131" fill-rule="evenodd" d="M6 1a4 4 0 00-4 4v10h12V1H6z" clip-rule="evenodd"/>
	<path fill="#EBEBEB" fill-rule="evenodd" d="M3 14V5c0-1.654 1.346-3 3-3h7v12H3z" clip-rule="evenodd"/>
	<path fill="#F4F4F4" fill-rule="evenodd" d="M4.624 5L0 9.046v.908L4.624 14H6v-2h3V7H6V5H4.624z" clip-rule="evenodd"/>
	<path fill="#388934" fill-rule="evenodd" d="M5 8V6L1 9.5 5 13v-2h3V8H5z" clip-rule="evenodd"/>
</svg>