<svg width="24" height="24" viewBox="0 0 24 24" fill="none" xmlns="http://www.w3.org/2000/svg"><rect id="frame" width="24" height="24" fill="none"/><path d="M16.8 3.76l7.04 5.84-2.56 5.12-4.16-1.12h-3.68l3.36-9.84z" fill="url(#paint0_linear)"/><path d="M9.76 7.6L8.4 14.72l-.16 2.48-3.36 1.52L0 19.2 1.44 3.68 10.24 0l5.44 3.52L9.76 7.6z" fill="url(#paint1_linear)"/><path d="M9.76 7.6l.64 13.84L8.24 24 0 19.2 6.72 9.12 9.76 7.6z" fill="url(#paint2_linear)"/><path d="M18.8 6.56h-8.32L17.84 0l.96 6.56z" fill="url(#paint3_linear)"/><path d="M24 21.44l-7.36 2.48-9.68-2.72 2.8-13.6 1.12-1.04L16.8 6l-.48 6 4.72-1.84L24 21.44z" fill="url(#paint4_linear)"/><path d="M20 4H4v16h16V4z" fill="url(#paint5_linear)"/><path d="M12 17H6v1h6v-1z" fill="#fff"/><path d="M6 6h2.4c1.4 0 2.3.8 2.3 2.1 0 1.4-1.1 2.1-2.4 2.1h-1V12H6V6zm2.4 3c.7 0 1-.4 1-.9 0-.6-.4-.9-1.1-.9h-1V9h1.1z" fill="#fff"/><path d="M11.467 8.978c0-1.69 1.244-3.111 3.11-3.111 1.156 0 1.779.355 2.4.888l-.8.978c-.444-.444-.888-.71-1.51-.71-.978 0-1.778.8-1.778 1.866s.711 1.867 1.778 1.867c.71 0 1.066-.267 1.6-.712l.8.89c-.711.71-1.422 1.066-2.578 1.066-1.778 0-3.022-1.333-3.022-3.022z" fill="#fff"/><defs><linearGradient id="paint0_linear" x1="8.571" y1="9.273" x2="22.854" y2="9.273" gradientUnits="userSpaceOnUse"><stop offset="0" stop-color="#21D789"/><stop offset="1" stop-color="#07C3F2"/></linearGradient><linearGradient id="paint1_linear" x1="-8.42" y1="20.256" x2="20.99" y2="-1.454" gradientUnits="userSpaceOnUse"><stop offset=".011" stop-color="#FCF84A"/><stop offset=".112" stop-color="#A7EB62"/><stop offset=".206" stop-color="#5FE077"/><stop offset=".273" stop-color="#32DA84"/><stop offset=".306" stop-color="#21D789"/><stop offset=".577" stop-color="#21D789"/><stop offset=".597" stop-color="#21D789"/><stop offset=".686" stop-color="#20D68C"/><stop offset=".763" stop-color="#1ED497"/><stop offset=".835" stop-color="#19D1A9"/><stop offset=".904" stop-color="#13CCC2"/><stop offset=".971" stop-color="#0BC6E1"/><stop offset="1" stop-color="#07C3F2"/></linearGradient><linearGradient id="paint2_linear" x1="3.199" y1="26.624" x2="8.104" y2="11.232" gradientUnits="userSpaceOnUse"><stop offset="0" stop-color="#21D789"/><stop offset=".16" stop-color="#24D888"/><stop offset=".298" stop-color="#2FD985"/><stop offset=".427" stop-color="#41DC80"/><stop offset=".552" stop-color="#5AE079"/><stop offset=".673" stop-color="#7AE46F"/><stop offset=".791" stop-color="#A1EA64"/><stop offset=".904" stop-color="#CFF157"/><stop offset="1" stop-color="#FCF84A"/></linearGradient><linearGradient id="paint3_linear" x1="9.694" y1="13.242" x2="20.369" y2="-1.109" gradientUnits="userSpaceOnUse"><stop offset="0" stop-color="#21D789"/><stop offset=".093" stop-color="#23D986"/><stop offset=".172" stop-color="#2ADE7B"/><stop offset=".247" stop-color="#36E669"/><stop offset=".271" stop-color="#3BEA62"/><stop offset=".35" stop-color="#47EB61"/><stop offset=".494" stop-color="#67ED5D"/><stop offset=".686" stop-color="#9AF156"/><stop offset=".915" stop-color="#E0F64D"/><stop offset="1" stop-color="#FCF84A"/></linearGradient><linearGradient id="paint4_linear" x1="26.019" y1="15.068" x2="4.511" y2="14.869" gradientUnits="userSpaceOnUse"><stop offset=".387" stop-color="#FCF84A"/><stop offset=".463" stop-color="#ECF74C"/><stop offset=".611" stop-color="#C1F451"/><stop offset=".815" stop-color="#7EEF5A"/><stop offset="1" stop-color="#3BEA62"/></linearGradient><linearGradient id="paint5_linear" x1="12" y1=".129" x2="12" y2="14.478" gradientUnits="userSpaceOnUse"><stop offset=".084" stop-color="#878585"/><stop offset=".538"/></linearGradient></defs></svg>