<svg width="128" height="128" viewBox="0 0 128 128" fill="none" xmlns="http://www.w3.org/2000/svg"><rect id="frame" width="128" height="128" fill="none"/><path d="M89.6 20.053L127.147 51.2l-13.653 27.306-22.187-5.973H71.68l17.92-52.48z" fill="url(#paint0_linear)"/><path d="M52.053 40.533L44.8 78.507l-.853 13.226-17.92 8.107L0 102.4l7.68-82.773L54.613 0l29.014 18.773-31.574 21.76z" fill="url(#paint1_linear)"/><path d="M52.053 40.533l3.414 73.814L43.947 128 0 102.4l35.84-53.76 16.213-8.107z" fill="url(#paint2_linear)"/><path d="M100.267 34.987H55.893L95.147 0l5.12 34.987z" fill="url(#paint3_linear)"/><path d="M128 114.347l-39.254 13.226-51.626-14.506 14.933-72.534 5.973-5.546L89.6 32l-2.56 32 25.173-9.813L128 114.347z" fill="url(#paint4_linear)"/><path d="M103 25H25v78h78V25z" fill="url(#paint5_linear)"/><path d="M62.7 89.567H33.667v4.767H62.7v-4.767z" fill="#fff"/><path d="M61.4 49.267c0-8.234 6.067-15.167 15.167-15.167 5.633 0 8.667 1.733 11.7 4.333l-3.9 4.767C82.2 41.033 80.033 39.733 77 39.733c-4.766 0-8.666 3.9-8.666 9.1 0 5.2 3.466 9.1 8.666 9.1 3.467 0 5.2-1.3 7.8-3.466l3.9 4.333c-3.466 3.467-6.933 5.2-12.567 5.2C67.468 64 61.4 57.5 61.4 49.267z" fill="#fff"/><path d="M34.533 34.533H46.45c6.933 0 11.158 4.117 11.158 10.075v.109c0 6.716-5.308 10.291-11.808 10.291h-4.875v8.775h-6.392v-29.25zm11.484 14.625c3.25 0 5.091-1.841 5.091-4.333v-.108c0-2.925-1.95-4.442-5.2-4.442h-4.983v8.883h5.092z" fill="#fff"/><defs><linearGradient id="paint0_linear" x1="45.712" y1="49.456" x2="121.887" y2="49.456" gradientUnits="userSpaceOnUse"><stop offset="0" stop-color="#21D789"/><stop offset="1" stop-color="#07C3F2"/></linearGradient><linearGradient id="paint1_linear" x1="-44.909" y1="108.033" x2="111.945" y2="-7.756" gradientUnits="userSpaceOnUse"><stop offset=".011" stop-color="#FCF84A"/><stop offset=".112" stop-color="#A7EB62"/><stop offset=".206" stop-color="#5FE077"/><stop offset=".273" stop-color="#32DA84"/><stop offset=".306" stop-color="#21D789"/><stop offset=".577" stop-color="#21D789"/><stop offset=".597" stop-color="#21D789"/><stop offset=".686" stop-color="#20D68C"/><stop offset=".763" stop-color="#1ED497"/><stop offset=".835" stop-color="#19D1A9"/><stop offset=".904" stop-color="#13CCC2"/><stop offset=".971" stop-color="#0BC6E1"/><stop offset="1" stop-color="#07C3F2"/></linearGradient><linearGradient id="paint2_linear" x1="17.061" y1="141.995" x2="43.222" y2="59.904" gradientUnits="userSpaceOnUse"><stop offset="0" stop-color="#21D789"/><stop offset=".16" stop-color="#24D888"/><stop offset=".298" stop-color="#2FD985"/><stop offset=".427" stop-color="#41DC80"/><stop offset=".552" stop-color="#5AE079"/><stop offset=".673" stop-color="#7AE46F"/><stop offset=".791" stop-color="#A1EA64"/><stop offset=".904" stop-color="#CFF157"/><stop offset="1" stop-color="#FCF84A"/></linearGradient><linearGradient id="paint3_linear" x1="51.703" y1="70.625" x2="108.633" y2="-5.917" gradientUnits="userSpaceOnUse"><stop offset="0" stop-color="#21D789"/><stop offset=".093" stop-color="#23D986"/><stop offset=".172" stop-color="#2ADE7B"/><stop offset=".247" stop-color="#36E669"/><stop offset=".271" stop-color="#3BEA62"/><stop offset=".35" stop-color="#47EB61"/><stop offset=".494" stop-color="#67ED5D"/><stop offset=".686" stop-color="#9AF156"/><stop offset=".915" stop-color="#E0F64D"/><stop offset="1" stop-color="#FCF84A"/></linearGradient><linearGradient id="paint4_linear" x1="138.769" y1="80.365" x2="24.06" y2="79.303" gradientUnits="userSpaceOnUse"><stop offset=".387" stop-color="#FCF84A"/><stop offset=".463" stop-color="#ECF74C"/><stop offset=".611" stop-color="#C1F451"/><stop offset=".815" stop-color="#7EEF5A"/><stop offset="1" stop-color="#3BEA62"/></linearGradient><linearGradient id="paint5_linear" x1="63.896" y1="6.042" x2="63.896" y2="75.993" gradientUnits="userSpaceOnUse"><stop offset=".084" stop-color="#878585"/><stop offset=".538"/></linearGradient></defs></svg>