<svg width="48" height="48" viewBox="0 0 48 48" fill="none" xmlns="http://www.w3.org/2000/svg"><rect id="frame" width="48" height="48" fill="none"/><path d="M33.6 7.52L47.68 19.2l-5.12 10.24-8.32-2.24h-7.36L33.6 7.52z" fill="url(#paint0_linear)"/><path d="M19.52 15.2L16.8 29.44l-.32 4.96-6.72 3.04L0 38.4 2.88 7.36 20.48 0l10.88 7.04-11.84 8.16z" fill="url(#paint1_linear)"/><path d="M19.52 15.2l1.28 27.68L16.48 48 0 38.4l13.44-20.16 6.08-3.04z" fill="url(#paint2_linear)"/><path d="M37.6 13.12H20.96L35.68 0l1.92 13.12z" fill="url(#paint3_linear)"/><path d="M48 42.88l-14.72 4.96-19.36-5.44 5.6-27.2 2.24-2.08L33.6 12l-.96 12 9.44-3.68L48 42.88z" fill="url(#paint4_linear)"/><path d="M39 9H9v30h30V9z" fill="url(#paint5_linear)"/><path d="M23.25 34H12v1.929h11.25V34z" fill="#fff"/><path d="M12.536 12.75h4.5c2.678 0 4.285 1.607 4.285 3.857 0 2.572-2.035 3.964-4.5 3.964H15v3.322h-2.464V12.75zm4.393 5.679c1.178 0 1.928-.75 1.928-1.715 0-1.071-.75-1.714-2.036-1.714h-1.928v3.429h2.036z" fill="#fff"/><path d="M22.929 18.322c0-3.215 2.357-5.786 5.892-5.786 2.143 0 3.429.75 4.393 1.714l-1.607 1.822c-.857-.75-1.714-1.286-2.893-1.286-1.928 0-3.214 1.607-3.214 3.536 0 1.928 1.286 3.535 3.214 3.535 1.286 0 2.036-.535 2.893-1.285l1.607 1.607c-1.178 1.285-2.464 2.035-4.607 2.035-3.214-.107-5.678-2.678-5.678-5.892z" fill="#fff"/><defs><linearGradient id="paint0_linear" x1="17.142" y1="18.546" x2="45.708" y2="18.546" gradientUnits="userSpaceOnUse"><stop offset="0" stop-color="#21D789"/><stop offset="1" stop-color="#07C3F2"/></linearGradient><linearGradient id="paint1_linear" x1="-16.841" y1="40.512" x2="41.979" y2="-2.908" gradientUnits="userSpaceOnUse"><stop offset=".011" stop-color="#FCF84A"/><stop offset=".112" stop-color="#A7EB62"/><stop offset=".206" stop-color="#5FE077"/><stop offset=".273" stop-color="#32DA84"/><stop offset=".306" stop-color="#21D789"/><stop offset=".577" stop-color="#21D789"/><stop offset=".597" stop-color="#21D789"/><stop offset=".686" stop-color="#20D68C"/><stop offset=".763" stop-color="#1ED497"/><stop offset=".835" stop-color="#19D1A9"/><stop offset=".904" stop-color="#13CCC2"/><stop offset=".971" stop-color="#0BC6E1"/><stop offset="1" stop-color="#07C3F2"/></linearGradient><linearGradient id="paint2_linear" x1="6.398" y1="53.248" x2="16.208" y2="22.464" gradientUnits="userSpaceOnUse"><stop offset="0" stop-color="#21D789"/><stop offset=".16" stop-color="#24D888"/><stop offset=".298" stop-color="#2FD985"/><stop offset=".427" stop-color="#41DC80"/><stop offset=".552" stop-color="#5AE079"/><stop offset=".673" stop-color="#7AE46F"/><stop offset=".791" stop-color="#A1EA64"/><stop offset=".904" stop-color="#CFF157"/><stop offset="1" stop-color="#FCF84A"/></linearGradient><linearGradient id="paint3_linear" x1="19.389" y1="26.485" x2="40.737" y2="-2.219" gradientUnits="userSpaceOnUse"><stop offset="0" stop-color="#21D789"/><stop offset=".093" stop-color="#23D986"/><stop offset=".172" stop-color="#2ADE7B"/><stop offset=".247" stop-color="#36E669"/><stop offset=".271" stop-color="#3BEA62"/><stop offset=".35" stop-color="#47EB61"/><stop offset=".494" stop-color="#67ED5D"/><stop offset=".686" stop-color="#9AF156"/><stop offset=".915" stop-color="#E0F64D"/><stop offset="1" stop-color="#FCF84A"/></linearGradient><linearGradient id="paint4_linear" x1="52.038" y1="30.137" x2="9.022" y2="29.739" gradientUnits="userSpaceOnUse"><stop offset=".387" stop-color="#FCF84A"/><stop offset=".463" stop-color="#ECF74C"/><stop offset=".611" stop-color="#C1F451"/><stop offset=".815" stop-color="#7EEF5A"/><stop offset="1" stop-color="#3BEA62"/></linearGradient><linearGradient id="paint5_linear" x1="23.999" y1="1.707" x2="23.999" y2="28.611" gradientUnits="userSpaceOnUse"><stop offset=".084" stop-color="#878585"/><stop offset=".538"/></linearGradient></defs></svg>