<svg xmlns="http://www.w3.org/2000/svg" width="16" height="16" viewBox="0 0 16 16"><rect id="frame" width="16" height="16" fill="none"/><g fill="none" fill-rule="evenodd"><path fill="#AFB1B3" d="M2 3h5v1H2z"/><path fill="#AFB1B3" d="M3 11h5v1H3z"/><path fill="#AFB1B3" d="M2 1h1v14H2z"/><path fill="#AFB1B3" d="M11.5 6H10V4h3v2H6V2h7v4h-1.5z"/><path fill="#AFB1B3" d="M6 1h3.001L10 2H6z"/><path fill="#3592C4" d="M11 5h3v3h-3z"/><path fill="#AFB1B3" d="M11.5 14H10v-2h3v2H6v-4h7v4h-1.5z"/><path fill="#AFB1B3" d="M6 9h3.001L10 10H6z"/><path fill="#3592C4" d="M11 13h3v3h-3z"/></g></svg>