<svg xmlns="http://www.w3.org/2000/svg" width="16" height="16" viewBox="0 0 16 16"><rect id="frame" width="16" height="16" fill="none"/><g fill="none" fill-rule="evenodd"><path fill="#F98B9E" fill-opacity=".6" d="M4.564 10.843C2.514 10.289 1 8.33 1 6c0-2.761 2.127-5 4.75-5 2.13 0 3.932 1.475 4.535 3.507a5.5 5.5 0 0 0-5.72 6.336z"/><path fill="#231F20" fill-opacity=".7" d="M7.637 5.08A.735.735 0 0 0 7.282 5c-.633 0-.757.526-.778.868-.381.343-.72.74-1.004 1.181V6c-.001-.463 0-1-.8-1S4 6 4 6v2H3V4h1v.3c.199-.2.499-.3.9-.3.602 0 .884.194 1.199.6C6.158 4.502 6.4 4 7.5 4c.641 0 1.044.204 1.268.651a5.162 5.162 0 0 0-1.131.43z"/><path fill="#F4AF3D" fill-opacity=".6" d="M15 10a5 5 0 1 1-10 0 5 5 0 0 1 10 0"/><path fill="#231F20" fill-opacity=".7" d="M9 13h1v-3h1V9h-1c-.003.028-.005.028-.005 0-.008-.497.038-.927.337-1.028.488-.164.737.05.858.092l.295-.838C11.41 7.199 11.345 7 10.7 7s-.983.061-1.318.389c-.317.31-.366.831-.38 1.611C9 9.018 8.666 9.018 8 9v.972h1V13z"/></g></svg>