<svg xmlns="http://www.w3.org/2000/svg" width="16" height="16" viewBox="0 0 16 16"><rect id="frame" width="16" height="16" fill="none"/><g fill="#6E6E6E" fill-rule="evenodd"><path d="M4 2h2v9H4z"/><path d="M5 14l4-4H1z"/><path d="M11.117 7C10.174 7 9.4 6.549 9.4 5.56v-.019C9.4 4.45 10.189 4 11.374 4c.504 0 .909.03 1.264.151v-.084c0-.588-.364-.914-1.073-.914-.542 0-.924.103-1.381.27l-.355-1.082C10.38 2.1 10.921 2 11.77 2c.775 0 1.335.145 1.69.5.373.373.54.923.54 1.595v2.902h-1.37v-.541c-.346.382-.822.544-1.512.544zm.429-.89c.662 0 1.11-.363 1.11-.877v-.251a2.199 2.199 0 0 0-.905-.187c-.606 0-.98.243-.98.69v.02c0 .382.318.606.775.606z"/><path d="M9.65 14.001v-.998l2.584-2.855h-2.5V9h4.264v.998l-2.594 2.855h2.594v1.148z"/></g></svg>