<svg xmlns="http://www.w3.org/2000/svg" xmlns:xlink="http://www.w3.org/1999/xlink" width="16" height="16" viewBox="0 0 16 16"><rect id="frame" width="16" height="16" fill="none"/><defs><path id="a" d="M2.5 1.5c-.276 0-.5.312-.5.696v1.608c0 .384.224.696.5.696s.5-.312.5-.696V2.196c0-.384-.224-.696-.5-.696zm0-1A1.5 1.5 0 0 1 4 2v1.5a1.5 1.5 0 0 1-3 0V2A1.5 1.5 0 0 1 2.5.5z"/><path id="b" d="M2 1.5c-.552 0-1 .312-1 .696V3.5h2V2.196c0-.384-.448-.696-1-.696zm2 2H0V2C0 1.172.895.5 2 .5S4 1.172 4 2v1.5z"/></defs><g fill="none" fill-rule="evenodd"><path fill="#6E6E6E" d="M4 2h2v9H4z"/><path fill="#6E6E6E" d="M5 14l4-4H1z"/><g transform="translate(10 7)" fill="#DB5860"><path d="M0 3h5v4H0z"/><use fill-rule="nonzero" xlink:href="#a"/></g><g transform="translate(8)" fill="#59A869"><path d="M2 3h5v4H2z"/><use fill-rule="nonzero" xlink:href="#b"/></g></g></svg>