<svg width="128" height="128" viewBox="0 0 128 128" fill="none" xmlns="http://www.w3.org/2000/svg">
<path d="M117 11H11V117H117V11Z" fill="url(#paint0_linear)"/>
<path d="M103 25H25V103H103V25Z" fill="url(#paint1_linear)"/>
<path d="M62.7 89.5668H33.6667V94.3335H62.7V89.5668Z" fill="white"/>
<path d="M49.3967 40.1233V34.75H34.7934V40.1233H38.8668V58.6267H34.7934V63.9567H49.3967V58.6267H45.2801V40.1233H49.3967Z" fill="white"/>
<path d="M63.4368 64.39C61.1402 64.39 59.2335 63.9567 57.7168 63.09C56.1568 62.2233 54.9002 61.1833 53.9035 60.0133L57.9335 55.5067C58.7568 56.4167 59.6235 57.1533 60.4468 57.6733C61.3135 58.1933 62.2235 58.4533 63.2635 58.4533C64.4768 58.4533 65.4302 58.0633 66.1235 57.2833C66.8168 56.5033 67.1635 55.29 67.1635 53.6V34.7933H73.7502V53.9033C73.7502 55.6367 73.5335 57.1533 73.0568 58.4533C72.5802 59.7533 71.8868 60.8367 71.0202 61.7033C70.1102 62.6133 69.0268 63.2633 67.7268 63.74C66.4268 64.1733 64.9968 64.39 63.4368 64.39Z" fill="white"/>
<defs>
<linearGradient id="paint0_linear" x1="128.89" y1="128.81" x2="-20.8422" y2="-20.921" gradientUnits="userSpaceOnUse">
<stop offset="0.3475" stop-color="#087CFA"/>
<stop offset="0.8562" stop-color="#FE2857"/>
<stop offset="1" stop-color="#FE2857"/>
</linearGradient>
<linearGradient id="paint1_linear" x1="63.896" y1="6.0421" x2="63.896" y2="75.9925" gradientUnits="userSpaceOnUse">
<stop offset="0.0842986" stop-color="#878585"/>
<stop offset="0.5377"/>
</linearGradient>
</defs>
</svg>
