<svg ti:v="1" width="16" height="16" viewBox="0 0 16 16" xmlns="http://www.w3.org/2000/svg" xmlns:ti="urn:schemas-jetbrains-com:tisvg"><rect id="frame" width="16" height="16" fill="none"/><linearGradient id="a" x1=".5" y1="0" x2=".5" y2=".981"><stop offset="0" stop-color="#8C0900"/><stop offset="1" stop-color="#C70000"/></linearGradient><path fill-rule="evenodd" d="M12.662 1L8.143 4.698 6.18 1.868c-.406-.478-1.039-.751-1.735-.751-.681 0-1.334.272-1.763.703-.77.77-1.005 2.467 0 3.473L4.995 7.68.661 11.705c-1.001.977-.754 2.985.003 3.47.53.339 1.07.711 1.734.711.668 0 1.28-.253 1.755-.747L8.1 10.645 14.14 16h1.861v-1.355L10.72 7.733 15 2.387V1h-2.338z" fill="url(#a)"/><linearGradient id="b" x1=".5" y1="-.003" x2=".5" y2=".973"><stop offset="0" stop-color="#FFA98F"/><stop offset="1" stop-color="red"/></linearGradient><path fill-rule="evenodd" d="M13.02 2L7.942 6.159 5.42 2.515c-.484-.569-1.542-.494-2.016 0-.492.509-.59 1.466 0 2.083L6.428 7.72l-5.042 4.683c-.454.453-.504 1.561 0 2.081.504.521 1.475.563 2.018 0L8.015 9.23l6.481 5.775H15L9.454 7.72 14.029 2H13.02z" fill="url(#b)"/></svg>