<svg xmlns="http://www.w3.org/2000/svg" width="16" height="16" viewBox="0 0 16 16"><rect id="frame" width="16" height="16" fill="none"/><g fill="#6E6E6E" fill-rule="evenodd"><path d="M11 11v1h3v-1z"/><path d="M11 9v3h1V9z"/><path d="M15 11.5a3.5 3.5 0 1 1-7 0 3.5 3.5 0 0 1 7 0zm1 0a4.5 4.5 0 1 0-9 0 4.5 4.5 0 0 0 9 0z"/><path d="M6.5 13.815a6.006 6.006 0 0 1-4.458-5.083l1.854.162a4.21 4.21 0 0 0 2.088 2.791c.027.757.209 1.478.515 2.13zm7.307-7.32a5.485 5.485 0 0 0-2.121-.51 4.197 4.197 0 0 0-3.466-2.18 4.191 4.191 0 0 0-3.31 1.35L6.993 7.24h-5v-5l1.645 1.644a6.003 6.003 0 0 1 10.17 2.612z"/></g></svg>