<svg xmlns="http://www.w3.org/2000/svg" width="16" height="16" viewBox="0 0 16 16"><rect id="frame" width="16" height="16" fill="none"/><path fill="#AFB1B3" d="M7.642 8.222l-.845.845L5.57 7.016H4.136V9.7H2.99V2h2.908c.82 0 1.463.286 1.882.77.345.418.54.99.54 1.661 0 1.287-.642 2.046-1.546 2.354l.868 1.437zM4.343 5.817h1.424c.697 0 1.14-.506 1.14-1.287v-.022c0-.825-.427-1.276-1.147-1.276H4.343v2.585zm8.765 3.145l-2.07-2.07L6 11.902v2.07h2.07l5.038-5.01zm1.726-1.725c.221-.222.221-.814 0-1.036l-1.035-1.035c-.222-.221-.814-.221-1.036 0l-1.035 1.035 2.07 2.07 1.036-1.034z" fill-rule="evenodd"/></svg>