<svg xmlns="http://www.w3.org/2000/svg" width="16" height="16" viewBox="0 0 16 16"><rect id="frame" width="16" height="16" fill="none"/><g fill="none" fill-rule="evenodd"><path fill="#6E6E6E" d="M7 12v2H2v-2h5z"/><path fill="#389FD6" d="M6.998 6.004h3.663L5.996 1.32 1.329 6.005h3.67v4.999h1.999v-5z"/><g fill="#6E6E6E"><path d="M11.39 15c-1.61-.3-2.06-.897-2.06-1.85 0-.14.027-.486.027-.645 0-.73-.282-.963-.968-.963H8v-1.084h.389c.686 0 .968-.234.968-.963 0-.159-.027-.504-.027-.645 0-.953.45-1.55 2.06-1.85l.237.944c-.933.28-1.073.542-1.073 1.112 0 .187.026.495.026.692 0 .682-.326 1.046-.915 1.252.59.206.915.57.915 1.252 0 .197-.026.505-.026.692 0 .57.14.832 1.073 1.112L11.39 15z"/><path d="M12.607 15c1.61-.3 2.06-.897 2.06-1.85 0-.14-.027-.486-.027-.645 0-.73.282-.963.968-.963h.389v-1.084h-.389c-.686 0-.968-.234-.968-.963 0-.159.027-.504.027-.645 0-.953-.45-1.55-2.06-1.85l-.237.944c.933.28 1.073.542 1.073 1.112 0 .187-.026.495-.026.692 0 .682.326 1.046.915 1.252-.59.206-.915.57-.915 1.252 0 .197.026.505.026.692 0 .57-.14.832-1.073 1.112l.237.944z"/></g></g></svg>