<svg xmlns="http://www.w3.org/2000/svg" xmlns:xlink="http://www.w3.org/1999/xlink" width="40" height="40" viewBox="0 0 40 40"><rect id="frame" width="40" height="40" fill="none"/><defs><path id="a" d="M.858 0h22.285v36H.858z"/><path id="c" d="M0 36h26V0H0z"/></defs><g fill="none" fill-rule="evenodd"><g transform="translate(7 2)"><g transform="translate(1)"><mask id="b" fill="#fff"><use xlink:href="#a"/></mask><path fill="#77BBE2" d="M9.67 35.814L14 33v-6l-8-5.6H1.356c.017-.273.032-.55.047-.829h-.025c.056-.753.098-1.592.098-2.57 0-4.002-.618-8.757-.618-8.757C.858 4.16 5.5 0 12 0c6.5 0 11.143 4.16 11.143 9.244 0 0-.618 5.422-.618 8.756 0 .916.05 1.78.118 2.571h-.032c.169 2.992.532 6.184.532 6.184C23.143 31.84 18.5 36 12 36c-.807 0-1.585-.064-2.33-.186z" mask="url(#b)"/></g><path fill="#8BC5E6" d="M26 5.667C26 6.955 25.03 8 23.833 8c-1.196 0-2.166-1.045-2.166-2.333 0-1.29.97-2.333 2.166-2.333C25.03 3.333 26 4.377 26 5.667"/><path fill="#3B89BE" d="M25.078 5.168c.23.554-.224 1.313-1.014 1.694s-1.618.242-1.848-.313c-.23-.554.223-1.313 1.013-1.694.79-.38 1.62-.24 1.85.313"/><path fill="#8BC5E6" d="M0 5.667C0 6.955.97 8 2.167 8c1.196 0 2.166-1.045 2.166-2.333 0-1.29-.97-2.333-2.166-2.333C.97 3.333 0 4.377 0 5.667"/><path fill="#3B89BE" d="M.922 5.168c-.23.554.224 1.313 1.014 1.694s1.618.242 1.848-.313c.23-.554-.223-1.313-1.013-1.694-.79-.38-1.62-.24-1.85.313"/><path fill="#FFF" d="M12.333 10.602c0 2.175-1.791 3.937-4 3.937s-4-1.762-4-3.937c0-2.174 1.791-3.936 4-3.936s4 1.762 4 3.936"/><path fill="#FFF" d="M12.333 10.602c0 2.175-1.791 3.937-4 3.937s-4-1.762-4-3.937c0-2.174 1.791-3.936 4-3.936s4 1.762 4 3.936"/><path fill="#000" d="M10.383 10.59c0 1.063-.8 1.925-1.787 1.925-.986 0-1.786-.862-1.786-1.924 0-1.062.8-1.924 1.786-1.924.987 0 1.787.862 1.787 1.924"/><path fill="#FFF" d="M9.513 9.666c0 .32-.24.579-.536.579-.297 0-.537-.26-.537-.579 0-.319.24-.578.537-.578.296 0 .536.26.536.579m11.644.935c0 2.175-1.79 3.937-4 3.937s-4-1.762-4-3.937c0-2.174 1.79-3.936 4-3.936s4 1.762 4 3.936"/><path fill="#FFF" d="M21.157 10.602c0 2.175-1.79 3.937-4 3.937s-4-1.762-4-3.937c0-2.174 1.79-3.936 4-3.936s4 1.762 4 3.936"/><path fill="#000" d="M19.206 10.59c0 1.063-.8 1.925-1.786 1.925-.987 0-1.787-.862-1.787-1.924 0-1.062.8-1.924 1.787-1.924.986 0 1.786.862 1.786 1.924"/><path fill="#FFF" d="M18.336 9.666c0 .32-.24.579-.536.579-.297 0-.536-.26-.536-.579 0-.319.239-.578.536-.578.296 0 .536.26.536.579"/><mask id="d" fill="#fff"><use xlink:href="#c"/></mask><path fill="#FFF" mask="url(#d)" d="M11.761 18h2.477v-2h-2.477z"/><path fill="#B7937F" d="M15.477 15.334c0 .736-1.11 1.332-2.477 1.332-1.367 0-2.476-.596-2.476-1.332C10.524 14.598 11.633 14 13 14c1.368 0 2.477.597 2.477 1.333" mask="url(#d)"/><path fill="#000" d="M14.238 14.645c0 .748-.563.689-1.259.689-.695 0-1.259.06-1.259-.69 0-.748.564-1.354 1.26-1.354.695 0 1.258.606 1.258 1.355" mask="url(#d)"/><path fill="#B7937F" d="M26 18.905c0 .92-.693 1.667-1.548 1.667-.854 0-1.548-.747-1.548-1.667s.694-1.667 1.548-1.667c.855 0 1.548.747 1.548 1.667m-22.904 0c0 .92-.693 1.667-1.548 1.667-.854 0-1.548-.747-1.548-1.667s.694-1.667 1.548-1.667c.855 0 1.548.747 1.548 1.667m20.3 15.428c0 .921-.694 1.667-1.549 1.667-.854 0-1.548-.746-1.548-1.667 0-.92.694-1.666 1.548-1.666.855 0 1.548.746 1.548 1.666" mask="url(#d)"/></g><g fill="#CBCBCB"><path d="M2 33v-2.667l8-5.332v2.666l-5.867 4 5.867 4v2.667z"/><path d="M20 33v-2.667l-8-5.332v2.666l5.867 4-5.867 4v2.667z"/></g></g></svg>