<svg xmlns="http://www.w3.org/2000/svg" width="16" height="16" viewBox="0 0 16 16"><rect id="frame" width="16" height="16" fill="none"/><g fill="none" fill-rule="evenodd"><path fill="#40B6E0" fill-opacity=".6" d="M6 11.5a5.5 5.5 0 0 1 8.955-4.277 7 7 0 1 0-7.732 7.732A5.476 5.476 0 0 1 6 11.5"/><path fill="#9AA7B0" fill-opacity=".8" d="M16 11.5a4.5 4.5 0 1 1-9 0 4.5 4.5 0 0 1 9 0"/><path fill="#231F20" fill-opacity=".7" d="M11 15h1.167v-1.105H11V15zm.583-7c-1.289 0-2.333.697-2.333 2h1.167c0-.648.525-1 1.166-1 .642 0 1.167.352 1.167 1 0 1.179-1.75 1.39-1.75 3.305h1.167c0-1.326 1.75-1.831 1.75-3.305 0-1.303-1.044-2-2.334-2z"/></g></svg>