<svg width="16" height="16" viewBox="0 0 16 16" fill="none" xmlns="http://www.w3.org/2000/svg">
<path d="M16 0H0V16H16V0Z" fill="#087CFA"/>
<path d="M15 1H1V15H15V1Z" fill="black"/>
<path d="M9 12H3V13H9V12Z" fill="white"/>
<path d="M3 3H5.1C6.8 3 8 4.32014 8 6.04648C8 7.77283 6.8 9.09297 5.1 9.09297H3V3ZM4.2 4.21859V7.87437H5.1C6.1 7.87437 6.7 7.16353 6.7 6.04648C6.7 4.92944 6 4.21859 5.1 4.21859H4.2Z" fill="white"/>
<path d="M8.19995 8.10002L8.99995 7.20002C9.49995 7.60002 10.1 7.90002 10.8 7.90002C11.3 7.90002 11.7 7.70002 11.7 7.30002C11.7 7.00002 11.5 6.80002 10.5 6.50002C9.29995 6.20002 8.49995 5.90002 8.49995 4.70002C8.49995 3.60002 9.39995 2.90002 10.6 2.90002C11.5 2.90002 12.2 3.20002 12.8 3.70002L12.1 4.70002C11.6 4.30002 11 4.10002 10.5 4.10002C9.99995 4.10002 9.69995 4.30002 9.69995 4.60002C9.69995 5.00002 9.99995 5.10002 11 5.40002C12.3 5.70002 13 6.20002 13 7.20002C13 8.40002 12.1 9.10002 10.8 9.10002C9.89995 9.10002 8.99995 8.80002 8.19995 8.10002Z" fill="white"/>
<path fill-rule="evenodd" clip-rule="evenodd" d="M3 16H16V10H3V16Z" fill="#D99E2B"/>
<path fill-rule="evenodd" clip-rule="evenodd" d="M4 11H7V11.64H4.8V12.6H6.5V13.24H4.8V14.36H6.998V15H4V11Z" fill="black"/>
<path fill-rule="evenodd" clip-rule="evenodd" d="M14.2 12.3672C14.2 12.7632 14.0134 13.0672 13.5554 13.0672H12.8V11.6328H13.4364C13.9834 11.6328 14.16 11.8672 14.2 12.2328V12.3672ZM11.9974 11V15H12.8V13.7H13.3954C14.3114 13.7144 15.0004 13.116 15.0004 12.4336V12.268C15.0004 11.528 14.3694 11 13.5474 11H11.9974Z" fill="black"/>
<path fill-rule="evenodd" clip-rule="evenodd" d="M9.85453 11H9.14647L7.36169 15H8.12852L8.54223 14.0519H10.4212L10.835 15H11.6384L9.85453 11ZM8.86404 13.3705L9.50209 11.9083L10.1747 13.3705H8.86404Z" fill="black"/>
</svg>