<svg ti:v="1" width="16" height="16" viewBox="0 0 16 16" xmlns="http://www.w3.org/2000/svg" xmlns:ti="urn:schemas-jetbrains-com:tisvg"><rect id="frame" width="16" height="16" fill="none"/><linearGradient id="a" x1=".5" y1="0" x2=".5" y2="1"><stop offset="0" stop-color="#BA8308"/><stop offset="1" stop-color="#6F4A00"/></linearGradient><path fill-rule="evenodd" d="M8 11.201L4 14V0h8v14l-4-2.799z" fill="url(#a)"/><linearGradient id="b" x1=".5" y1="0" x2=".5" y2="1"><stop offset="0" stop-color="#FFF7E6"/><stop offset="1" stop-color="#F3B423"/></linearGradient><path fill-rule="evenodd" d="M11 12l-3-2-3 2V1h6v11z" fill="url(#b)"/><linearGradient id="c" x1=".5" y1="-.005" x2=".5" y2="1.025"><stop offset="0" stop-color="#429140"/><stop offset="1" stop-color="#056D1C"/></linearGradient><path fill-rule="evenodd" d="M2 16v-2H0v-4h2V8h4v2h2v4H6v2H2z" fill="url(#c)"/><linearGradient id="d" x1=".5" y1=".013" x2=".5" y2="1.027"><stop offset="0" stop-color="#A3FFA1"/><stop offset=".012" stop-color="#A3FFA1"/><stop offset=".988" stop-color="#30D453"/><stop offset="1" stop-color="#30D453"/></linearGradient><path fill-rule="evenodd" d="M7 11H5V9H3v2H1v2h2v2h2v-2h2v-2z" fill="url(#d)"/></svg>