<svg ti:v="1" width="16" height="16" viewBox="0 0 16 16" xmlns="http://www.w3.org/2000/svg" xmlns:ti="urn:schemas-jetbrains-com:tisvg"><rect id="frame" width="16" height="16" fill="none"/><g fill-rule="evenodd"><path d="M8 11.201L4 14V0h8v14l-4-2.799z" fill="#F4F4F4"/><path d="M11 12l-3-2-3 2V1h6v11z" fill="#313131"/><path d="M9 4H7V3h2m0 4H7V5h2m1-2c0-1-1-1-1-1H7S6 2 6 3v1s0 .246.123.495A1.02 1.02 0 0 0 6 5v2s0 1 1 1h2c1 0 1-1 1-1V5a1.02 1.02 0 0 0-.123-.505C10 4.246 10 4 10 4V3z" fill="#EBEBEB"/></g></svg>