<svg ti:v="1" width="16" height="16" viewBox="0 0 16 16" xmlns="http://www.w3.org/2000/svg" xmlns:ti="urn:schemas-jetbrains-com:tisvg"><rect id="frame" width="16" height="16" fill="none"/><linearGradient id="a" x1=".5" y1="0" x2=".5" y2="1"><stop offset="0" stop-color="#BA8308"/><stop offset="1" stop-color="#6F4A00"/></linearGradient><path fill-rule="evenodd" d="M4 0v14l4-2.799L12 14V0H4z" fill="url(#a)"/><linearGradient id="b" x1=".5" y1="0" x2=".5" y2="1"><stop offset="0" stop-color="#FFF7E6"/><stop offset="1" stop-color="#F3B423"/></linearGradient><path fill-rule="evenodd" d="M5 1v11l3-2 3 2V1H5z" fill="url(#b)"/><path fill-rule="evenodd" d="M9 4H7V3h2m0 4H7V5h2m1-2c0-1-1-1-1-1H7S6 2 6 3v1s0 .246.123.495A1.02 1.02 0 0 0 6 5v2s0 1 1 1h2c1 0 1-1 1-1V5a1.02 1.02 0 0 0-.123-.505C10 4.246 10 4 10 4V3z" fill="#65571B"/></svg>