<svg ti:v="1" width="16" height="16" viewBox="0 0 16 16" xmlns="http://www.w3.org/2000/svg" xmlns:ti="urn:schemas-jetbrains-com:tisvg"><rect id="frame" width="16" height="16" fill="none"/><linearGradient id="a" x1=".5" y1="0" x2=".5" y2="1"><stop offset="0" stop-color="#7C6D47"/><stop offset="1" stop-color="#60492F"/></linearGradient><path fill-rule="evenodd" d="M1 16V0h9.414L15 4.586V16H1z" fill="url(#a)"/><linearGradient id="b" x1=".5" y1=".006" x2=".5" y2="1.021"><stop offset="0" stop-color="#E3D8BC"/><stop offset="1" stop-color="#E3CDB3"/></linearGradient><path fill-rule="evenodd" d="M10 1H2v14h12V5l-4-4z" fill="url(#b)"/><linearGradient id="c" x1=".5" y1=".009" x2=".5" y2="1.009"><stop offset="0" stop-color="#FFF3D4"/><stop offset="1" stop-color="#FFF"/></linearGradient><path fill-rule="evenodd" d="M10 5V3H4v10h8V5h-2z" fill="url(#c)"/><linearGradient id="d" x1=".5" y1="0" x2=".5" y2="1.014"><stop offset="0" stop-color="#7C6D47"/><stop offset="1" stop-color="#60492F"/></linearGradient><path fill-rule="evenodd" d="M5 5v7h6V7L9 5H5z" fill="url(#d)"/><linearGradient id="e" x1=".5" y1="-.018" x2=".5" y2="1.055"><stop offset="0" stop-color="#FFF3D4"/><stop offset="1" stop-color="#FFF"/></linearGradient><path fill-rule="evenodd" d="M8 6H6v5h4V8H8V6z" fill="url(#e)"/></svg>