<svg ti:v="1" width="16" height="16" viewBox="0 0 16 16" xmlns="http://www.w3.org/2000/svg" xmlns:ti="urn:schemas-jetbrains-com:tisvg"><rect id="frame" width="16" height="16" fill="none"/><linearGradient id="a" x1=".5" y1="-.002" x2=".5" y2=".998"><stop offset="0" stop-color="#1766A1"/><stop offset=".994" stop-color="#0F456C"/><stop offset="1" stop-color="#0F456C"/></linearGradient><path fill-rule="evenodd" d="M0 16v-6h3V7H0V1h16v15H0z" fill="url(#a)"/><linearGradient id="b" x1=".5" y1=".004" x2=".5" y2="1.004"><stop offset="0" stop-color="#80B6FF"/><stop offset=".994" stop-color="#60BDFF"/><stop offset="1" stop-color="#60BDFF"/></linearGradient><path fill-rule="evenodd" d="M1 2v4h2V4h10v9H3v-2H1v4h14V2H1z" fill="url(#b)"/><linearGradient id="c" x1=".5" y1="-.006" x2=".5" y2="1.006"><stop offset="0" stop-color="#FFF"/><stop offset="1" stop-color="#FFF3D4"/></linearGradient><path fill-rule="evenodd" d="M13 13H3V4h10v9z" fill="url(#c)"/><path fill-rule="evenodd" d="M7 11h4v-1H7m-2 1h1v-1H5m2-1h4V8H7M5 9h1V8H5m2-1h4V6H7M5 6h1v1H5V6z" fill="#624B31"/></svg>