<svg ti:v="1" width="16" height="16" viewBox="0 0 16 16" xmlns="http://www.w3.org/2000/svg" xmlns:ti="urn:schemas-jetbrains-com:tisvg"><rect id="frame" width="16" height="16" fill="none"/><linearGradient id="a" x1="0" y1=".5" x2="1" y2=".5"><stop offset="0" stop-color="#3E5F6F"/><stop offset="1" stop-color="#41743F"/></linearGradient><path fill-rule="evenodd" d="M5 0v12h11V1h-5V0H5z" fill="url(#a)"/><linearGradient id="b" x1="0" y1=".5" x2="1" y2=".5"><stop offset="0" stop-color="#C2EBFF"/><stop offset="1" stop-color="#23B8FF"/></linearGradient><path fill-rule="evenodd" d="M6 11h4.001V1H6v10z" fill="url(#b)"/><path fill-rule="evenodd" d="M9 3H7V2h2m0 6H7V7h2m0 3H7V9h2v1z" fill="#002D70"/><linearGradient id="c" x1="0" y1=".5" x2="1" y2=".5"><stop offset="0" stop-color="#ABFFA8"/><stop offset="1" stop-color="#069C00"/></linearGradient><path fill-rule="evenodd" d="M11 11h4V2h-4v9z" fill="url(#c)"/><path fill-rule="evenodd" d="M14 5h-2V3h2m0 5h-2V7h2m0 3h-2V9h2v1z" fill="#00630C"/><linearGradient id="d" x1=".5" y1=".017" x2=".5" y2="1.008"><stop offset="0" stop-color="#8C0900"/><stop offset="1" stop-color="#C70000"/></linearGradient><path fill-rule="evenodd" d="M11 5L6 8 4.814 6c-.239-.236-.604-1-1.316-1a2.12 2.12 0 0 0-1.55.675c-.785.819-.783 1.37-.119 2.325L4 10l-2.905 2.109c-.421.444-1.094.903-1.095 1.533-.001.63.233 1.223.656 1.673.421.442.98.685 1.574.685.593 0 1.152-.586 1.547-1L6 12l4 4h3l-5-6 5-5h-2z" fill="url(#d)"/><linearGradient id="e" x1=".5" y1="0" x2=".5" y2="1"><stop offset="0" stop-color="#FFA98F"/><stop offset="1" stop-color="red"/></linearGradient><path fill-rule="evenodd" d="M10.437 6L6 9 3.96 6.283c-.346-.397-1.047-.343-1.386 0a.992.992 0 0 0 0 1.404L5 10l-3.813 3.309a.99.99 0 0 0 0 1.404.97.97 0 0 0 1.387 0L6 11l4.5 4h.5l-4-5 4-4h-.563z" fill="url(#e)"/></svg>