<svg ti:v="1" width="16" height="16" viewBox="0 0 16 16" xmlns="http://www.w3.org/2000/svg" xmlns:ti="urn:schemas-jetbrains-com:tisvg"><rect id="frame" width="16" height="16" fill="none"/><g fill-rule="evenodd"><path d="M11 0H2v15h13V4l-4-4z" fill="#F4F4F4"/><path d="M10.5 1H3v13h11V4.5L10.5 1z" fill="#313131"/><path d="M5 3v9h7V5h-2V3H5z" fill="#EBEBEB"/><path d="M13 7h-1v1h1M5 7H4v1h1m4 4H8v1h1M9 3H8V2h1v1z" fill="#EBEBEB"/><path d="M11 7h-1v1h1M7 7H6v1h1m2-2H8v1h1m0 3H8v1h1m0-3H8v1h1m0-5H8v1h1V4z" fill="#313131"/></g></svg>