<svg ti:v="1" width="16" height="16" viewBox="0 0 16 16" xmlns="http://www.w3.org/2000/svg" xmlns:ti="urn:schemas-jetbrains-com:tisvg"><rect id="frame" width="16" height="16" fill="none"/><linearGradient id="a" x1=".5" y1="0" x2=".5" y2="1"><stop offset="0" stop-color="#7C6D47"/><stop offset="1" stop-color="#60492F"/></linearGradient><path fill-rule="evenodd" d="M11 0H2v15h13V4l-4-4z" fill="url(#a)"/><linearGradient id="b" x1=".5" y1=".006" x2=".5" y2="1.021"><stop offset="0" stop-color="#E3D8BC"/><stop offset="1" stop-color="#E3CDB3"/></linearGradient><path fill-rule="evenodd" d="M10.5 1H3v13h11V4.5L10.5 1z" fill="url(#b)"/><path fill-rule="evenodd" d="M5 3v9h7V5h-2V3H5z" fill="#FFF"/><path fill-rule="evenodd" d="M13 7h-1v1h1M5 7H4v1h1m4 4H8v1h1M9 3H8V2h1v1z"/><path fill-rule="evenodd" d="M11 7h-1v1h1M7 7H6v1h1m2-2H8v1h1m0 3H8v1h1m0-3H8v1h1m0-5H8v1h1V4z"/></svg>