<svg ti:v="1" width="16" height="16" viewBox="0 0 16 16" xmlns="http://www.w3.org/2000/svg" xmlns:ti="urn:schemas-jetbrains-com:tisvg"><rect id="frame" width="16" height="16" fill="none"/><linearGradient id="a" x1=".5" y1="0" x2=".5" y2="1"><stop offset="0" stop-color="#183D87"/><stop offset="1" stop-color="#072156"/></linearGradient><path fill-rule="evenodd" d="M4 0C2.346 0 1 1.345 1 3v9c0 1.655 1.346 3 3 3h9c1.654 0 3-1.345 3-3V3c0-1.655-1.346-3-3-3H4z" fill="url(#a)"/><linearGradient id="b" x1=".5" y1="0" x2=".5" y2="1"><stop offset="0" stop-color="#6D97E7"/><stop offset="1" stop-color="#2E61C8"/></linearGradient><path fill-rule="evenodd" d="M4 1c-1.1 0-2 .901-2 2v9c0 1.099.9 2 2 2h9c1.1 0 2-.901 2-2V3c0-1.099-.9-2-2-2H4z" fill="url(#b)"/><path fill-rule="evenodd" d="M4 4v5h3v4h3V9h3V4H4z" fill="#FFF"/><path fill-rule="evenodd" d="M12 8H5V5h7v3z" fill="#FF5757"/></svg>