<svg ti:v="1" width="16" height="16" viewBox="0 0 16 16" xmlns="http://www.w3.org/2000/svg" xmlns:ti="urn:schemas-jetbrains-com:tisvg"><rect id="frame" width="16" height="16" fill="none"/><g fill-rule="evenodd"><path d="M4 15c-1.654 0-3-1.346-3-3V3c0-1.654 1.346-3 3-3h9c1.654 0 3 1.346 3 3v9c0 1.654-1.346 3-3 3H4z" fill="#F4F4F4"/><path d="M15 12c0 1.1-.9 2-2 2H4c-1.1 0-2-.9-2-2V3c0-1.1.9-2 2-2h9c1.1 0 2 .9 2 2v9z" fill="#313131"/><path d="M4 4v5h3v4h3V9h3V4H4z" fill="#EBEBEB"/><path d="M12 8H5V5h7v3z" fill="#313131"/></g></svg>