<svg ti:v="1" width="16" height="16" viewBox="0 0 16 16" xmlns="http://www.w3.org/2000/svg" xmlns:ti="urn:schemas-jetbrains-com:tisvg"><rect id="frame" width="16" height="16" fill="none"/><g fill-rule="evenodd"><path d="M9 5h1.507c.463.617 1.198 1 1.993 1C13.878 6 15 4.879 15 3.5S13.878 1 12.5 1c-.795 0-1.53.383-1.993 1H9V0H2v7h7V5z" fill="#242424"/><path d="M15 9.5C15 8.121 13.878 7 12.5 7c-.795 0-1.53.383-1.993 1H2v7h8.507c.463.617 1.198 1 1.993 1a2.5 2.5 0 1 0 1.499-4.5A2.5 2.5 0 0 0 15 9.5z" fill="#242424"/><path d="M12.5 12c-.652 0-1.202.419-1.408 1H8v1h3.092A1.495 1.495 0 0 0 14 13.5a1.5 1.5 0 0 0-1.5-1.5zm0-4c-.652 0-1.202.419-1.408 1H8v1h3.092A1.495 1.495 0 0 0 14 9.5 1.5 1.5 0 0 0 12.5 8zm-1.408-4H8V3h3.092A1.495 1.495 0 0 1 14 3.5a1.495 1.495 0 1 1-2.908.5z" fill="#C4C4C4"/><path d="M13 3.5a.5.5 0 1 0-1 0 .5.5 0 0 0 1 0z" fill="#282828"/><path d="M13 9.5a.5.5 0 1 0-1 0 .5.5 0 0 0 1 0z" fill="#282828"/><path d="M13 13.5a.5.5 0 1 0-1 0 .5.5 0 0 0 1 0z" fill="#282828"/><path d="M8 6H3V1h5v5z" fill="#C4C4C4"/><path d="M3 14h5V9H3v5z" fill="#C4C4C4"/><path d="M6 3H5v1h1V3z" fill="#282828"/><path d="M6 11H5v1h1v-1z" fill="#282828"/></g></svg>