<svg ti:v="1" width="16" height="16" viewBox="0 0 16 16" xmlns="http://www.w3.org/2000/svg" xmlns:ti="urn:schemas-jetbrains-com:tisvg"><rect id="frame" width="16" height="16" fill="none"/><linearGradient id="a" x1=".5" y1=".013" x2=".5" y2="1"><stop offset="0" stop-color="#5572A1"/><stop offset="1" stop-color="#405980"/></linearGradient><path fill-rule="evenodd" d="M2 0v7h7V5h1.507A2.5 2.5 0 0 0 12.5 6C13.878 6 15 4.879 15 3.5S13.878 1 12.5 1c-.795 0-1.529.382-1.993 1H9V0H2z" fill="url(#a)"/><linearGradient id="b" x1=".5" y1="-.01" x2=".5" y2="1.005"><stop offset="0" stop-color="#5572A1"/><stop offset="1" stop-color="#405980"/></linearGradient><path fill-rule="evenodd" d="M10.507 8H2v7h8.507a2.5 2.5 0 0 0 1.993 1 2.498 2.498 0 1 0 1.498-4.5A2.497 2.497 0 0 0 15 9.5C15 8.121 13.878 7 12.5 7a2.5 2.5 0 0 0-1.993 1z" fill="url(#b)"/><linearGradient id="c" x1="0" y1=".5" x2="1" y2=".5"><stop offset="0" stop-color="#B8E5FF"/><stop offset=".994" stop-color="#80CAFF"/><stop offset="1" stop-color="#80CAFF"/></linearGradient><path fill-rule="evenodd" d="M11.092 3H8v1h3.092c.206.581.756 1 1.408 1a1.5 1.5 0 1 0 0-3c-.652 0-1.202.419-1.408 1zm0 6H8v1h3.092c.206.581.756 1 1.408 1a1.5 1.5 0 1 0 0-3c-.652 0-1.202.419-1.408 1zm0 4H8v1h3.092c.206.581.756 1 1.408 1a1.5 1.5 0 1 0 0-3c-.652 0-1.202.419-1.408 1z" fill="url(#c)"/><path fill-rule="evenodd" d="M13 13.5a.5.5 0 1 0-1 0 .5.5 0 0 0 1 0zm0-4a.5.5 0 1 0-1 0 .5.5 0 0 0 1 0zM12.5 4a.5.5 0 1 1 0-1 .5.5 0 0 1 0 1z" fill="#FFF"/><linearGradient id="d" x1=".5" y1=".02" x2=".5" y2="1"><stop offset="0" stop-color="#F6E468"/><stop offset="1" stop-color="#EFD205"/></linearGradient><path fill-rule="evenodd" d="M3 6h4.999V1H3v5z" fill="url(#d)"/><linearGradient id="e" x1=".5" y1=".04" x2=".5" y2="1.021"><stop offset="0" stop-color="#F6E468"/><stop offset="1" stop-color="#EFD205"/></linearGradient><path fill-rule="evenodd" d="M3 14h4.999V9.001H3V14z" fill="url(#e)"/><path fill-rule="evenodd" d="M6 3H5v1h1V3z" fill="#F3DD42"/><path fill-rule="evenodd" d="M6 11H5v1h1v-1z" fill="#F3DD42"/></svg>