<svg ti:v="1" width="12" height="12" viewBox="0 0 12 12" xmlns="http://www.w3.org/2000/svg" xmlns:ti="urn:schemas-jetbrains-com:tisvg"><rect id="frame" width="12" height="12" fill="none"/><g fill-rule="evenodd"><path d="M7.361 10L5.5 8.139 3.638 10H2.162L1 8.838V7.361L2.861 5.5 1 3.639V2.162L2.162 1h1.686l1.726 1.787L7.361 1h1.477L10 2.162v1.477L8.167 5.473 10 7.371v1.467L8.838 10H7.361z" fill="#F4F4F4"/><path d="M9 2.576L8.424 2h-.649L5.562 4.214 3.424 2h-.848L2 2.576v.648L4.275 5.5 2 7.775v.65L2.576 9h.649L5.5 6.724 7.775 9h.649L9 8.424v-.649L6.765 5.46 9 3.224v-.648z" fill="#313131"/></g></svg>