<svg ti:v="1" width="16" height="16" viewBox="0 0 16 16" xmlns="http://www.w3.org/2000/svg" xmlns:ti="urn:schemas-jetbrains-com:tisvg"><rect id="frame" width="16" height="16" fill="none"/><linearGradient id="a" x1=".5" y1=".012" x2=".5" y2=".998"><stop offset="0" stop-color="#006D08"/><stop offset="1" stop-color="#004C1D"/></linearGradient><path fill-rule="evenodd" d="M9.087 1l.642 1.413c1.251 2.758 1.251 7.416 0 10.174L9.087 14h2.544l.298-.339C12.874 12.588 14 10.647 14 7.5c0-3.152-1.127-5.09-2.072-6.161L11.629 1M4.371 1l-.299.339C3.126 2.41 2 4.348 2 7.5c0 3.147 1.126 5.088 2.071 6.161l.298.339h2.544l-.642-1.413c-1.251-2.758-1.251-7.416 0-10.174L6.913 1H4.371z" fill="url(#a)"/><linearGradient id="b" x1=".5" y1=".012" x2=".5" y2=".998"><stop offset="0" stop-color="#C7FFB8"/><stop offset="1" stop-color="#00E82C"/></linearGradient><path fill-rule="evenodd" d="M10.639 2c1.361 3 1.361 8 0 11h.54C12.018 12.046 13 10.331 13 7.5s-.982-4.547-1.822-5.5M4.822 2C3.981 2.953 3 4.669 3 7.5s.981 4.546 1.821 5.5h.54C4 10 4 5 5.361 2h-.539z" fill="url(#b)"/></svg>