<svg ti:v="1" width="16" height="16" viewBox="0 0 16 16" xmlns="http://www.w3.org/2000/svg" xmlns:ti="urn:schemas-jetbrains-com:tisvg"><rect id="frame" width="16" height="16" fill="none"/><g fill-rule="evenodd"><path d="M4.369 14l-.299-.339C3.126 12.588 2 10.647 2 7.5c0-3.151 1.127-5.09 2.072-6.161L4.371 1h2.542l-.642 1.413c-1.251 2.758-1.251 7.416 0 10.174L6.913 14m2.174 0l.641-1.413c1.251-2.758 1.251-7.416 0-10.174L9.087 1h2.542l.299.339C12.873 2.41 14 4.349 14 7.5c0 3.147-1.126 5.088-2.07 6.161l-.299.339H9.087z" fill="#F4F4F4"/><path d="M11.179 13c.84-.954 1.821-2.67 1.821-5.5s-.981-4.547-1.822-5.5h-.539c1.361 3 1.361 8 0 11m-5.817 0C3.982 12.046 3 10.33 3 7.5S3.982 2.953 4.823 2h.539C4 5 4 10 5.362 13h-.54z" fill="#313131"/></g></svg>