<svg ti:v="1" width="16" height="16" viewBox="0 0 16 16" xmlns="http://www.w3.org/2000/svg" xmlns:ti="urn:schemas-jetbrains-com:tisvg"><rect id="frame" width="16" height="16" fill="none"/><linearGradient id="a" x1=".5" y1=".007" x2=".5" y2="1.004"><stop offset="0" stop-color="#5572A1"/><stop offset="1" stop-color="#405980"/></linearGradient><path fill-rule="evenodd" d="M10 4.5c0 .795.383 1.53 1 1.993V7H9v7h7V7h-2v-.507c.617-.463 1-1.198 1-1.993C15 3.121 13.879 2 12.5 2A2.502 2.502 0 0 0 10 4.5zm-8 0c0 .795.383 1.53 1 1.993V7H1v7h7V7H6v-.507C6.618 6.03 7 5.295 7 4.5 7 3.121 5.879 2 4.5 2A2.503 2.503 0 0 0 2 4.5z" fill="url(#a)"/><linearGradient id="b" x1=".5" y1=".008" x2=".5" y2="1.008"><stop offset="0" stop-color="#F6E468"/><stop offset="1" stop-color="#EFD205"/></linearGradient><path fill-rule="evenodd" d="M10 13h5V8h-5m-8 5h5V8H2v5z" fill="url(#b)"/><linearGradient id="c" x1=".5" y1=".017" x2=".5" y2="1.025"><stop offset="0" stop-color="#B8E5FF"/><stop offset=".994" stop-color="#80CAFF"/><stop offset="1" stop-color="#80CAFF"/></linearGradient><path fill-rule="evenodd" d="M11 4.5c0 .652.419 1.201 1 1.408V8h1V5.908c.581-.207 1-.756 1-1.408a1.5 1.5 0 1 0-3 0zm-8 0c0 .652.419 1.201 1 1.408V8h1V5.908c.581-.207 1-.756 1-1.408a1.5 1.5 0 1 0-3 0z" fill="url(#c)"/><path fill-rule="evenodd" d="M4.999 4.5a.5.5 0 1 0-1 0 .5.5 0 0 0 1 0z" fill="#FFF"/><path fill-rule="evenodd" d="M12.999 4.5a.5.5 0 1 0-1 0 .5.5 0 0 0 1 0z" fill="#FFF"/><path fill-rule="evenodd" d="M5 10H4v1h1v-1z" fill="#F3DD42"/><path fill-rule="evenodd" d="M13 10h-1v1h1v-1z" fill="#F3DD42"/></svg>