<svg ti:v="1" width="16" height="16" viewBox="0 0 16 16" xmlns="http://www.w3.org/2000/svg" xmlns:ti="urn:schemas-jetbrains-com:tisvg"><rect id="frame" width="16" height="16" fill="none"/><g fill-rule="evenodd"><path d="M16 7h-2v-.507A2.5 2.5 0 0 0 15 4.5C15 3.121 13.878 2 12.5 2A2.503 2.503 0 0 0 10 4.5a2.5 2.5 0 0 0 1 1.993V7H9v7h7m-8 0H1V7h2v-.507A2.5 2.5 0 0 1 2 4.5C2 3.121 3.122 2 4.5 2S7 3.121 7 4.5a2.5 2.5 0 0 1-1 1.993V7h2v7z" fill="#F4F4F4"/><path d="M15 8h-5v5h5m-8 0H2V8h5v5z" fill="#313131"/><path d="M13 5.908V8h-1V5.908A1.496 1.496 0 0 1 12.5 3a1.496 1.496 0 1 1 .5 2.908zm-8 0V8H4V5.908A1.496 1.496 0 0 1 4.5 3 1.496 1.496 0 1 1 5 5.908z" fill="#313131"/><path d="M4.999 4.5a.5.5 0 1 0-1 0 .5.5 0 0 0 1 0z" fill="#EBEBEB"/><path d="M12.999 4.5a.5.5 0 1 0-1 0 .5.5 0 0 0 1 0z" fill="#EBEBEB"/><path d="M5 10H4v1h1v-1z" fill="#EBEBEB"/><path d="M13 10h-1v1h1v-1z" fill="#EBEBEB"/></g></svg>