<svg ti:v="1" width="16" height="16" viewBox="0 0 16 16" xmlns="http://www.w3.org/2000/svg" xmlns:ti="urn:schemas-jetbrains-com:tisvg"><rect id="frame" width="16" height="16" fill="none"/><g fill-rule="evenodd"><path d="M16 16H0V0h16v16z" fill="#FFE6FF"/><path d="M7.49 16h1.021c.86-1.688 2.639-5.173 3.945-7.729C12.783 7.586 13 6.822 13 6A5 5 0 1 0 3 6c0 .822.217 1.586.568 2.271C4.855 10.827 6.63 14.312 7.49 16z" fill="#F4F4F4"/><path d="M8.001 14.8c-.936-1.836-2.423-4.761-3.539-6.979A3.953 3.953 0 0 1 4 6c0-2.206 1.794-4 4-4s4 1.794 4 4c0 .601-.15 1.22-.446 1.839L8.001 14.8z" fill="#313131"/><path d="M10 6a2 2 0 1 1-4.001-.001A2 2 0 0 1 10 6z" fill="#EBEBEB"/></g></svg>