<svg ti:v="1" width="16" height="16" viewBox="0 0 16 16" xmlns="http://www.w3.org/2000/svg" xmlns:ti="urn:schemas-jetbrains-com:tisvg"><rect id="frame" width="16" height="16" fill="none"/><path fill-rule="evenodd" d="M16 16H0V0h16v16z" fill="#FFE6FF"/><linearGradient id="a" x1=".5" y1="0" x2=".5" y2="1"><stop offset="0" stop-color="#BA6008"/><stop offset="1" stop-color="#6F2E00"/></linearGradient><path fill-rule="evenodd" d="M3 6c0 .823.216 1.586.568 2.271C4.855 10.828 6.63 14.312 7.491 16H8.51l3.946-7.729C12.783 7.586 13 6.823 13 6A5 5 0 1 0 3 6z" fill="url(#a)"/><linearGradient id="b" x1=".5" y1="0" x2=".5" y2="1"><stop offset="0" stop-color="#FFF7E6"/><stop offset="1" stop-color="#F3B423"/></linearGradient><path fill-rule="evenodd" d="M4 6c0 .611.154 1.222.462 1.821 1.116 2.218 2.604 5.143 3.539 6.979l3.553-6.961C11.849 7.219 12 6.6 12 6c0-2.206-1.794-4-4-4S4 3.794 4 6z" fill="url(#b)"/><linearGradient id="c" x1=".5" y1="0" x2=".5" y2="1"><stop offset="0" stop-color="#6F2E00"/><stop offset="1" stop-color="#BA6008"/></linearGradient><path fill-rule="evenodd" d="M6 6a2 2 0 0 0 4 0 2 2 0 0 0-4 0z" fill="url(#c)"/></svg>