<svg ti:v="1" width="16" height="16" viewBox="0 0 16 16" xmlns="http://www.w3.org/2000/svg" xmlns:ti="urn:schemas-jetbrains-com:tisvg"><rect id="frame" width="16" height="16" fill="none"/><linearGradient id="a" x1=".5" y1="0" x2=".5" y2="1"><stop offset="0" stop-color="#006F33"/><stop offset="1" stop-color="#37AD0D"/></linearGradient><path fill-rule="evenodd" d="M6.586 0L3 3.586V8h1.414L5 7.414V10c0 3.309 2.691 6 6 6h4v-4h-4c-1.103 0-2-.898-2-2V7.414L9.586 8H11V3.586L7.414 0h-.828z" fill="url(#a)"/><linearGradient id="b" x1=".5" y1="0" x2=".5" y2="1"><stop offset="0" stop-color="#E1FFD6"/><stop offset="1" stop-color="#62F2A5"/></linearGradient><path fill-rule="evenodd" d="M4 4v3l2-2v5a5 5 0 0 0 5 5h3v-2h-3a3 3 0 0 1-3-3V5l2 2V4L7 1 4 4z" fill="url(#b)"/></svg>