<svg ti:v="1" width="16" height="16" viewBox="0 0 16 16" xmlns="http://www.w3.org/2000/svg" xmlns:ti="urn:schemas-jetbrains-com:tisvg"><rect id="frame" width="16" height="16" fill="none"/><linearGradient id="a" x1=".5" y1=".006" x2=".5" y2="1"><stop offset="0" stop-color="#564100"/><stop offset="1" stop-color="#2F2417"/></linearGradient><path fill-rule="evenodd" d="M7.586 2L4 5.586v4.032l2-1V13h4V8.618l2 1V5.586L8.414 2h-.828z" fill="url(#a)"/><linearGradient id="b" x1=".5" y1=".014" x2=".5" y2="1.007"><stop offset="0" stop-color="#FFE48C"/><stop offset=".994" stop-color="#FF9720"/><stop offset="1" stop-color="#FF9720"/></linearGradient><path fill-rule="evenodd" d="M11 6L8 3 5 6v2l2-1v5h2V7l2 1V6z" fill="url(#b)"/><linearGradient id="c" x1=".5" y1=".012" x2=".5" y2=".998"><stop offset="0" stop-color="#006D08"/><stop offset="1" stop-color="#004C1D"/></linearGradient><path fill-rule="evenodd" d="M11.087 1l.642 1.413C12.203 3.46 13 5.524 13 7.588c0 1.477-.416 3.112-1.271 4.999L11.087 14h2.544l.299-.339C14.874 12.588 16 10.648 16 7.5c0-3.151-1.127-5.09-2.073-6.161L13.629 1M2.371 1l-.298.339C1.127 2.41 0 4.349 0 7.5c0 3.148 1.126 5.088 2.07 6.161l.299.339h2.544l-.642-1.413C3.416 10.7 3 9.059 3 7.569c0-2.048.797-4.109 1.271-5.156L4.913 1H2.371z" fill="url(#c)"/><linearGradient id="d" x1=".5" y1=".012" x2=".5" y2=".998"><stop offset="0" stop-color="#C7FFB8"/><stop offset="1" stop-color="#00E82C"/></linearGradient><path fill-rule="evenodd" d="M12.639 2C13.319 3.5 14 5.588 14 7.588c0 1.999-.681 3.912-1.361 5.412h.54C14.018 12.046 15 10.33 15 7.5s-.982-4.547-1.822-5.5M2.822 2C1.982 2.953 1 4.67 1 7.5s.982 4.546 1.821 5.5h.54C2.681 11.5 2 9.569 2 7.569 2 5.568 2.681 3.5 3.361 2h-.539z" fill="url(#d)"/></svg>