<svg ti:v="1" width="16" height="16" viewBox="0 0 16 16" xmlns="http://www.w3.org/2000/svg" xmlns:ti="urn:schemas-jetbrains-com:tisvg"><rect id="frame" width="16" height="16" fill="none"/><linearGradient id="a" x1=".5" y1=".012" x2=".5" y2=".998"><stop offset="0" stop-color="#006D08"/><stop offset="1" stop-color="#004C1D"/></linearGradient><path fill-rule="evenodd" d="M11.087 1l.642 1.413C12.203 3.46 13 5.524 13 7.588c0 1.478-.416 3.112-1.271 4.999L11.087 14h2.544l.299-.339C14.874 12.588 16 10.648 16 7.5c0-3.151-1.127-5.09-2.073-6.161L13.629 1M2.371 1l-.298.339C1.127 2.41 0 4.349 0 7.5c0 3.148 1.126 5.088 2.07 6.161l.299.339h2.544l-.642-1.413C3.416 10.7 3 9.059 3 7.568c0-2.047.797-4.108 1.271-5.155L4.913 1H2.371z" fill="url(#a)"/><linearGradient id="b" x1=".5" y1=".012" x2=".5" y2=".998"><stop offset="0" stop-color="#C7FFB8"/><stop offset="1" stop-color="#00E82C"/></linearGradient><path fill-rule="evenodd" d="M12.639 2C13.319 3.5 14 5.588 14 7.588S13.319 11.5 12.639 13h.54C14.018 12.046 15 10.33 15 7.5s-.982-4.547-1.822-5.5M2.822 2C1.982 2.953 1 4.67 1 7.5s.982 4.546 1.821 5.5h.54C2.681 11.5 2 9.569 2 7.568 2 5.568 2.681 3.5 3.361 2h-.539z" fill="url(#b)"/><path fill-rule="evenodd" d="M9.914 6L12.5 3.414V2H6.882L3.5 8.764V10h2.382l-2 4h2.532L13 7.414V6H9.914z" fill="#5C5100"/><path fill-rule="evenodd" d="M11.5 3h-4l-3 6h3l-2 4H6l6-6H7.5l4-4z" fill="#FDFF7F"/></svg>