<svg ti:v="1" width="16" height="16" viewBox="0 0 16 16" xmlns="http://www.w3.org/2000/svg" xmlns:ti="urn:schemas-jetbrains-com:tisvg"><rect id="frame" width="16" height="16" fill="none"/><g fill-rule="evenodd"><path d="M2.369 14l-.299-.339C1.126 12.588 0 10.647 0 7.5c0-3.151 1.127-5.09 2.072-6.161L2.371 1h2.542l-.642 1.413C3.797 3.46 3 5.521 3 7.568c0 1.492.416 3.132 1.271 5.019L4.913 14m6.174 0l.641-1.413C12.584 10.7 13 9.065 13 7.588c0-2.064-.797-4.128-1.272-5.175L11.087 1h2.542l.299.339C14.873 2.41 16 4.349 16 7.5c0 3.147-1.126 5.088-2.07 6.161l-.299.339h-2.544z" fill="#F4F4F4"/><path d="M13.179 13c.84-.954 1.821-2.67 1.821-5.5s-.981-4.547-1.822-5.5h-.539C13.32 3.5 14 5.588 14 7.588S13.32 11.5 12.639 13m-9.817 0C1.982 12.046 1 10.33 1 7.5S1.982 2.953 2.823 2h.539C2.681 3.5 2 5.568 2 7.568c0 2 .681 3.932 1.362 5.432h-.54z" fill="#313131"/><path d="M9.914 6L12.5 3.414V2H6.882L3.5 8.764V10h2.382l-2 4h2.532L13 7.414V6H9.914z" fill="#F4F4F4"/><path d="M11.5 3h-4l-3 6h3l-2 4H6l6-6H7.5l4-4z" fill="#313131"/></g></svg>