<svg ti:v="1" width="16" height="16" viewBox="0 0 16 16" xmlns="http://www.w3.org/2000/svg" xmlns:ti="urn:schemas-jetbrains-com:tisvg"><rect id="frame" width="16" height="16" fill="none"/><path fill-rule="evenodd" d="M16 7H3V0h13v7z" fill="#023B87"/><path fill-rule="evenodd" d="M15 6H4V1h11v5z" fill="#85D6FF"/><path fill-rule="evenodd" d="M15 7.998L12.333 6H11v1H4v3h7v1h1.334L15 8.998v-1z" fill="#023B87"/><linearGradient id="a" x1="0" y1=".5" x2="1" y2=".5"><stop offset="0" stop-color="#C3E300"/><stop offset="1" stop-color="#F3FFA6"/></linearGradient><path fill-rule="evenodd" d="M12 8H9v1h3v1l2-1.502L12 7M7 9h1V8H7M5 9h1V8H5v1z" fill="url(#a)"/><path fill-rule="evenodd" d="M14 3.498L12 2v1H9v1h3v1l2-1.502z" fill="#023B87"/><path fill-rule="evenodd" d="M7 4h1V3H7v1z" fill="#023B87"/><path fill-rule="evenodd" d="M5 4h1V3H5v1z" fill="#023B87"/><path fill-rule="evenodd" d="M15 11.998L12.333 10H11v1H4v3h7v1h1.334L15 12.998v-1z" fill="#023B87"/><linearGradient id="b" x1="0" y1=".5" x2="1" y2=".5"><stop offset="0" stop-color="#C3E300"/><stop offset="1" stop-color="#F3FFA6"/></linearGradient><path fill-rule="evenodd" d="M12 12H9v1h3v1l2-1.501L12 11m-5 2h1v-1H7m-2 1h1v-1H5v1z" fill="url(#b)"/><linearGradient id="c" x1=".5" y1="-.024" x2=".5" y2=".992"><stop offset="0" stop-color="#8C0900"/><stop offset="1" stop-color="#C70000"/></linearGradient><path fill-rule="evenodd" d="M11 5L6 8 4.813 6c-.237-.236-.603-1-1.315-1-.587 0-1.137.24-1.55.675C1.163 6.494.797 7.141 1.829 8L4 10l-2.906 2.11c-.42.443-1.093.902-1.094 1.532-.001.63.232 1.224.655 1.673.422.442.981.685 1.574.685.594 0 1.153-.585 1.547-1L6 12l4 4h3l-5-6 5-5h-2z" fill="url(#c)"/><linearGradient id="d" x1=".5" y1="-.023" x2=".5" y2=".996"><stop offset="0" stop-color="#FFA98F"/><stop offset="1" stop-color="red"/></linearGradient><path fill-rule="evenodd" d="M10.436 6L6 9 3.96 6.282c-.346-.395-1.047-.343-1.387 0a.996.996 0 0 0 0 1.405L5 10l-3.814 3.309a.991.991 0 0 0 0 1.403c.387.39.998.39 1.387 0L6 11l4.5 4h.5l-4-5 4-4h-.564z" fill="url(#d)"/></svg>