<svg ti:v="1" width="16" height="16" viewBox="0 0 16 16" xmlns="http://www.w3.org/2000/svg" xmlns:ti="urn:schemas-jetbrains-com:tisvg"><rect id="frame" width="16" height="16" fill="none"/><g fill-rule="evenodd"><path d="M2 6V3c0-1.542 1.458-3 3-3h6c1.542 0 3 1.458 3 3v3H2z" fill="#F4F4F4"/><path d="M9 1v2H7V1H5C4 1 3 2 3 3v2h10V3c0-1-1-2-2-2H9z" fill="#313131"/><path d="M4 15h1.162l.617-.206L6.382 16h3.236L11 13.236v-.182l1-.333V6H4v9z" fill="#F4F4F4"/><path d="M5 7v1l1-.333v1l4-1.334v-1L11 6H8m-3 5l1-.333v1l4-1.334v-1L11 9V8l-6 2m0 3l6-2v1l-1 .333V13l-1 2H7l-.715-1.429L5 14v-1z" fill="#313131"/></g></svg>