<svg ti:v="1" width="16" height="16" viewBox="0 0 16 16" xmlns="http://www.w3.org/2000/svg" xmlns:ti="urn:schemas-jetbrains-com:tisvg"><rect id="frame" width="16" height="16" fill="none"/><linearGradient id="a" x1=".5" y1=".014" x2=".5" y2="1.001"><stop offset="0" stop-color="#727C7C"/><stop offset="1" stop-color="#2D3D5B"/></linearGradient><path fill-rule="evenodd" d="M5 0C3.458 0 2 1.458 2 3v3h12V3c0-1.542-1.458-3-3-3H5z" fill="url(#a)"/><linearGradient id="b" x1=".5" y1=".014" x2=".5" y2="1.001"><stop offset="0" stop-color="#FBFFFF"/><stop offset="1" stop-color="#AEBBD4"/></linearGradient><path fill-rule="evenodd" d="M9 1v2H7V1H5C4 1 3 2 3 3v2h10V3c0-1-1-2-2-2H9z" fill="url(#b)"/><linearGradient id="c" x1="0" y1=".5" x2="1" y2=".5"><stop offset="0" stop-color="#727C7C"/><stop offset="1" stop-color="#3B475B"/></linearGradient><path fill-rule="evenodd" d="M4 6v9h1.162l.618-.206L6.382 16h3.236L11 13.237v-.183l1-.333V6H4z" fill="url(#c)"/><linearGradient id="d" x1="0" y1=".5" x2="1" y2=".5"><stop offset="0" stop-color="#FFF"/><stop offset="1" stop-color="#A1B9FF"/></linearGradient><path fill-rule="evenodd" d="M8 6L5 7v1l1-.333v1l4-1.334v-1L11 6m-6 4v1l1-.333v1l4-1.334v-1L11 9V8m-6 5v1l1.285-.429L7 15h2l1-2v-.667L11 12v-1l-6 2z" fill="url(#d)"/></svg>