<svg ti:v="1" width="16" height="16" viewBox="0 0 16 16" xmlns="http://www.w3.org/2000/svg" xmlns:ti="urn:schemas-jetbrains-com:tisvg"><rect id="frame" width="16" height="16" fill="none"/><g fill-rule="evenodd"><path d="M15 1.998L12.333 0H11v1H5v3h6v1h1.334L15 2.998v-1z" fill="#242424"/><path d="M14 2.498L12 1v1H9v1h3v1l2-1.502z" fill="#C4C4C4"/><path d="M7 3h1V2H7v1z" fill="#C4C4C4"/><path d="M5 3h1V2H5v1z" fill="#C4C4C4"/><path d="M15 5.998L12.333 4H11v1H5v3h6v1h1.334L15 6.998v-1z" fill="#242424"/><path d="M14 6.498L12 5v1H9v1h3v1l2-1.502z" fill="#C4C4C4"/><path d="M7 7h1V6H7v1z" fill="#C4C4C4"/><path d="M5 7h1V6H5v1z" fill="#C4C4C4"/><path d="M15 9.998L12.333 8H11v1H5v3h6v1h1.334L15 10.998v-1z" fill="#242424"/><path d="M14 10.498L12 9v1H9v1h3v1l2-1.502z" fill="#C4C4C4"/><path d="M7 11h1v-1H7v1z" fill="#C4C4C4"/><path d="M5 11h1v-1H5v1z" fill="#C4C4C4"/><path d="M11.801 11.402C11.697 11.262 9.225 8 6 8 2.774 8 .302 11.262.198 11.402L0 11.668v.664l.198.265C.302 12.737 2.774 16 6 16c3.225 0 5.697-3.263 5.801-3.403l.199-.265v-.664l-.199-.266z" fill="#242424"/><path d="M11 12s-2.239 3-5 3-5-3-5-3 2.239-3 5-3 5 3 5 3z" fill="#C4C4C4"/><path d="M8 12a2 2 0 1 1-4.001-.001A2 2 0 0 1 8 12z" fill="#282828"/><path d="M7 12a1 1 0 1 1-2 0 1 1 0 0 1 2 0z" fill="#C4C4C4"/></g></svg>