<svg ti:v="1" width="16" height="16" viewBox="0 0 16 16" xmlns="http://www.w3.org/2000/svg" xmlns:ti="urn:schemas-jetbrains-com:tisvg"><rect id="frame" width="16" height="16" fill="none"/><path fill-rule="evenodd" d="M15 1.998L12.333 0H11v1H4v3h7v1H4v3h7v1H4v3h7v1h1.334L15 10.998v-1L13 8.5l2-1.502v-1L13 4.5l2-1.502v-1z" fill="#023B87"/><linearGradient id="a" x1="0" y1=".5" x2="1" y2=".5"><stop offset="0" stop-color="#C3E300"/><stop offset="1" stop-color="#F3FFA6"/></linearGradient><path fill-rule="evenodd" d="M12 2H9v1h3v1l2-1.502L12 1M7 3h1.001V2H7M5 3h1V2H5v1z" fill="url(#a)"/><linearGradient id="b" x1="0" y1=".5" x2="1" y2=".5"><stop offset="0" stop-color="#C3E300"/><stop offset="1" stop-color="#F3FFA6"/></linearGradient><path fill-rule="evenodd" d="M12 6H9v1h3v1l2-1.501L12 5M7 7h1.001V6H7M5 7h1V6H5v1z" fill="url(#b)"/><linearGradient id="c" x1="0" y1=".5" x2="1" y2=".5"><stop offset="0" stop-color="#C3E300"/><stop offset="1" stop-color="#F3FFA6"/></linearGradient><path fill-rule="evenodd" d="M12 10H9v1h3v1l2-1.502L12 9m-5 2h1.001v-1H7m-2 1h1v-1H5v1z" fill="url(#c)"/><linearGradient id="d" x1=".5" y1="-.003" x2=".5" y2="1"><stop offset="0" stop-color="#474C72"/><stop offset="1" stop-color="#7077B3"/></linearGradient><path fill-rule="evenodd" d="M.198 11.403L0 11.668v.664l.198.266C.302 12.737 2.774 16 6 16c3.225 0 5.698-3.263 5.801-3.402l.199-.266v-.664l-.199-.265C11.698 11.263 9.225 8 6 8 2.774 8 .302 11.263.198 11.403z" fill="url(#d)"/><linearGradient id="e" x1=".5" y1=".005" x2=".5" y2="1.009"><stop offset="0" stop-color="#FFF"/><stop offset="1" stop-color="#E0DDD0"/></linearGradient><path fill-rule="evenodd" d="M1 12s2.238 3 5 3c2.761 0 5-3 5-3S8.761 9 6 9c-2.762 0-5 3-5 3z" fill="url(#e)"/><path fill-rule="evenodd" d="M8 12a2 2 0 1 1-4.001-.001A2 2 0 0 1 8 12z" fill="#005BB3"/><path fill-rule="evenodd" d="M7 12a1 1 0 1 1-2 0 1 1 0 0 1 2 0z" fill="#7ACCFF"/></svg>