<svg ti:v="1" width="16" height="16" viewBox="0 0 16 16" xmlns="http://www.w3.org/2000/svg" xmlns:ti="urn:schemas-jetbrains-com:tisvg"><rect id="frame" width="16" height="16" fill="none"/><g fill-rule="evenodd"><path d="M16 8a8 8 0 0 1-8 8 8 8 0 0 1-8-8 8 8 0 0 1 8-8 8 8 0 0 1 8 8z" fill="#242424"/><path d="M15 8c0 3.865-3.135 7-7 7s-7-3.135-7-7 3.135-7 7-7 7 3.135 7 7z" fill="#C4C4C4"/><path d="M12.168 5.245l-6.922 6.924C6.036 12.691 6.98 13 8 13a5 5 0 0 0 5-5 4.977 4.977 0 0 0-.832-2.755zm-8.336 5.51A4.98 4.98 0 0 1 3 8a5 5 0 0 1 5-5c1.02 0 1.964.308 2.754.831l-6.922 6.924z" fill="#282828"/></g></svg>