<svg ti:v="1" width="16" height="16" viewBox="0 0 16 16" xmlns="http://www.w3.org/2000/svg" xmlns:ti="urn:schemas-jetbrains-com:tisvg"><rect id="frame" width="16" height="16" fill="none"/><linearGradient id="a" x1=".5" y1="0" x2=".5" y2=".994"><stop offset="0" stop-color="#914D89"/><stop offset="1" stop-color="#492851"/></linearGradient><path fill-rule="evenodd" d="M11.414 1h-.828L8 3.586 5.414 1h-.828L0 5.586v.828L3.086 9.5l-.5.5 5 5h.828l5-5-.5-.5L16 6.414v-.828L11.414 1z" fill="url(#a)"/><linearGradient id="b" x1=".5" y1="0" x2=".5" y2="1.008"><stop offset="0" stop-color="#F7CCFF"/><stop offset="1" stop-color="#DEB3FF"/></linearGradient><path fill-rule="evenodd" d="M15 6l-4-4-3 3-3-3-4 4 3.5 3.5-.5.5 4 4 4-4-.5-.5L15 6z" fill="url(#b)"/><linearGradient id="c" x1=".5" y1=".061" x2=".5" y2="1.01"><stop offset="0" stop-color="#914D89"/><stop offset="1" stop-color="#492851"/></linearGradient><path fill-rule="evenodd" d="M2.414 6L5 3.414 7.586 6 5 8.586 2.414 6z" fill="url(#c)"/><linearGradient id="d" x1=".5" y1="-.045" x2=".5" y2="1.029"><stop offset="0" stop-color="#914D89"/><stop offset="1" stop-color="#492851"/></linearGradient><path fill-rule="evenodd" d="M7.5 6.5L11 10l.5-.5L8 6l-.5.5z" fill="url(#d)"/></svg>