<svg ti:v="1" width="16" height="16" viewBox="0 0 16 16" xmlns="http://www.w3.org/2000/svg" xmlns:ti="urn:schemas-jetbrains-com:tisvg"><rect id="frame" width="16" height="16" fill="none"/><g fill-rule="evenodd"><path d="M11.414 1h-.828L8 3.586 5.414 1h-.828L0 5.586v.828L3.086 9.5l-.5.5 5 5h.828l5-5-.5-.5L16 6.414v-.828L11.414 1z" fill="#F4F4F4"/><path d="M15 6l-4-4-3 3-3-3-4 4 3.5 3.5-.5.5 4 4 4-4-.5-.5L15 6z" fill="#313131"/><path d="M2.414 6L5 3.414 7.586 6 5 8.586 2.414 6z" fill="#EBEBEB"/><path d="M7.5 6.5L11 10l.5-.5L8 6l-.5.5z" fill="#EBEBEB"/></g></svg>