<svg ti:v="1" width="16" height="16" viewBox="0 0 16 16" xmlns="http://www.w3.org/2000/svg" xmlns:ti="urn:schemas-jetbrains-com:tisvg"><rect id="frame" width="16" height="16" fill="none"/><g fill-rule="evenodd"><path d="M15 16H1V0h14v16z" fill="#F4F4F4"/><path d="M14 15H2V1h12v14z" fill="#313131"/><path d="M12 13H4V3h8v10z" fill="#EBEBEB"/><path d="M7 6H5v1h2m4-2H5V4h6v1z" fill="#313131"/><path d="M16 16H8V7h8v9z" fill="#F4F4F4"/><path d="M9 15h6V8H9v7z" fill="#313131"/><path d="M10 14h4V9h-4v5z" fill="#EBEBEB"/><path d="M12.75 13H11v-1h1.75m.25-1h-1.75v-1H13v1z" fill="#313131"/></g></svg>