<svg ti:v="1" width="16" height="16" viewBox="0 0 16 16" xmlns="http://www.w3.org/2000/svg" xmlns:ti="urn:schemas-jetbrains-com:tisvg"><rect id="frame" width="16" height="16" fill="none"/><g fill-rule="evenodd"><path d="M15 16H1V0h14v16z" fill="#242424"/><path d="M14 15H2V1h12v14z" fill="#C4C4C4"/><path d="M12 13H4V3h8v10z" fill="#282828"/><path d="M7 6H5v1h2m4-2H5V4h6v1z" fill="#C4C4C4"/><path d="M16 16H7V7h9v9z" fill="#242424"/><path d="M8 15h7V8H8v7z" fill="#282828"/><path d="M13 8h-1v1h1m1 0h1V8h-1m-3 0h-1v1h1M9 8H8v1h1m4 5h-1v1h1m-5-4h1v-1H8m0 3h1v-1H8m6-1h1v-1h-1m0 3h1v-1h-1m0 3h1v-1h-1m-3 0h-1v1h1m-2 0H8v-1h1v1z" fill="#C4C4C4"/></g></svg>