<svg ti:v="1" width="16" height="16" viewBox="0 0 16 16" xmlns="http://www.w3.org/2000/svg" xmlns:ti="urn:schemas-jetbrains-com:tisvg"><rect id="frame" width="16" height="16" fill="none"/><linearGradient id="a" x1=".5" y1=".01" x2=".5" y2="1"><stop offset="0" stop-color="#70798F"/><stop offset="1" stop-color="#3C414C"/></linearGradient><path fill-rule="evenodd" d="M15 16H1V0h14v16z" fill="url(#a)"/><linearGradient id="b" x1=".5" y1=".006" x2=".5" y2="1.006"><stop offset="0" stop-color="#AFD8E3"/><stop offset="1" stop-color="#95A8CC"/></linearGradient><path fill-rule="evenodd" d="M14 15H2V1h12v14z" fill="url(#b)"/><path fill-rule="evenodd" d="M12 13H4V3h8v10z" fill="#FFF"/><linearGradient id="c" x1="0" y1=".5" x2="1" y2=".5"><stop offset="0" stop-color="#6DC8FF"/><stop offset="1" stop-color="#3F8BFF"/></linearGradient><path fill-rule="evenodd" d="M7 6H5v1h2m4-2H5V4h6v1z" fill="url(#c)"/><linearGradient id="d" x1=".5" y1=".022" x2=".5" y2="1.001"><stop offset="0" stop-color="#385985"/><stop offset="1" stop-color="#263C59"/></linearGradient><path fill-rule="evenodd" d="M16 16H8V7h8v9z" fill="url(#d)"/><linearGradient id="e" x1=".5" y1="0" x2=".5" y2="1.011"><stop offset="0" stop-color="#91B6FF"/><stop offset="1" stop-color="#6A95E7"/></linearGradient><path fill-rule="evenodd" d="M9 15h6V8H9v7z" fill="url(#e)"/><path fill-rule="evenodd" d="M10 14h4V9h-4v5z" fill="#FFF"/><path fill-rule="evenodd" d="M12.75 13H11v-1h1.75m.25-1h-1.75v-1H13v1z" fill="#414F5F"/></svg>