<svg ti:v="1" width="16" height="16" viewBox="0 0 16 16" xmlns="http://www.w3.org/2000/svg" xmlns:ti="urn:schemas-jetbrains-com:tisvg"><rect id="frame" width="16" height="16" fill="none"/><g fill-rule="evenodd"><path d="M2 15V1h7.414L14 5.586V15H2z" fill="#F4F4F4"/><path d="M9 2H3v12h10V6L9 2z" fill="#313131"/><path d="M9 6V4H5v8h6V6H9z" fill="#EBEBEB"/><path d="M11.413 9H1.586L0 10.586V16h11v-2h2v-3.414L11.413 9z" fill="#F4F4F4"/><path d="M6 10h2v1H6v1h1s1 0 1 1v1c0 1-1 1-1 1H5v-1h2v-1H6s-1 0-1-1v-1c0-1 1-1 1-1zm4 1h1v1h-1m2 0v-1l-1.001-1H9v5h1v-2h1m-8 0H2v-2h1m-2 0v4h1v-1h1v1h1v-5H2l-1 1z" fill="#0095D7"/></g></svg>