<svg ti:v="1" width="16" height="16" viewBox="0 0 16 16" xmlns="http://www.w3.org/2000/svg" xmlns:ti="urn:schemas-jetbrains-com:tisvg"><rect id="frame" width="16" height="16" fill="none"/><g fill-rule="evenodd"><path d="M0 7.586v.828l4 4V3.586m12 4v.828l-4 4V3.586l4 4z" fill="#F4F4F4"/><path d="M12 5v2l1 1-1 1v2l3-3M4 11L1 8l3-3v2L3 8l1 1v2z" fill="#313131"/><path d="M12 14H4V2h8v12z" fill="#F4F4F4"/><path d="M11 13H5V3h6v10z" fill="#313131"/><path d="M6 4v2h1V5h3V4H6z" fill="#EBEBEB"/><path d="M6 7v2h1V8h3V7H6z" fill="#EBEBEB"/><path d="M6 10v2h1v-1h3v-1H6z" fill="#EBEBEB"/></g></svg>