<svg ti:v="1" width="16" height="16" viewBox="0 0 16 16" xmlns="http://www.w3.org/2000/svg" xmlns:ti="urn:schemas-jetbrains-com:tisvg"><rect id="frame" width="16" height="16" fill="none"/><linearGradient id="a" x1=".5" y1="-.014" x2=".5" y2="1.032"><stop offset="0" stop-color="#005CA8"/><stop offset="1" stop-color="#00335D"/></linearGradient><path fill-rule="evenodd" d="M0 7.586v.828l4 4V3.586m12 4v.828l-4 4V3.586l4 4z" fill="url(#a)"/><linearGradient id="b" x1=".5" y1="-.077" x2=".5" y2="1.065"><stop offset="0" stop-color="#D9EEFF"/><stop offset="1" stop-color="#96D0FF"/></linearGradient><path fill-rule="evenodd" d="M12 5v2l1 1-1 1v2l3-3M4 11L1 8l3-3v2L3 8l1 1v2z" fill="url(#b)"/><linearGradient id="c" x1=".5" y1=".01" x2=".5" y2="1.021"><stop offset="0" stop-color="#70798F"/><stop offset="1" stop-color="#3C414C"/></linearGradient><path fill-rule="evenodd" d="M12 14H4V2h8v12z" fill="url(#c)"/><linearGradient id="d" x1="0" y1=".5" x2="1" y2=".5"><stop offset="0" stop-color="#77C8DE"/><stop offset="1" stop-color="#878DCC"/></linearGradient><path fill-rule="evenodd" d="M11 13H5V3h6v10z" fill="url(#d)"/><path fill-rule="evenodd" d="M6 4v2h1V5h3V4H6z" fill="#FFF"/><path fill-rule="evenodd" d="M6 7v2h1V8h3V7H6z" fill="#FFF"/><path fill-rule="evenodd" d="M6 10v2h1v-1h3v-1H6z" fill="#FFF"/></svg>