<svg ti:v="1" width="16" height="16" viewBox="0 0 16 16" xmlns="http://www.w3.org/2000/svg" xmlns:ti="urn:schemas-jetbrains-com:tisvg"><rect id="frame" width="16" height="16" fill="none"/><linearGradient id="a" x1=".5" y1="-.002" x2=".5" y2="1.002"><stop offset="0" stop-color="#005CA8"/><stop offset="1" stop-color="#00335D"/></linearGradient><path fill-rule="evenodd" d="M10 14.414l6-6v-.828l-6-6m-10 6v.828l6 6V1.586l-6 6z" fill="url(#a)"/><linearGradient id="b" x1=".5" y1="0" x2=".5" y2="1"><stop offset="0" stop-color="#D9EEFF"/><stop offset="1" stop-color="#96D0FF"/></linearGradient><path fill-rule="evenodd" d="M11 6l2 2-2 2v2l4-4-4-4M1 8l4 4v-2L3 8l2-2V4L1 8z" fill="url(#b)"/><linearGradient id="c" x1=".5" y1=".004" x2=".5" y2="1.004"><stop offset="0" stop-color="#7C8000"/><stop offset="1" stop-color="#803D00"/></linearGradient><path fill-rule="evenodd" d="M7.795 1L4.76 15h3.445l3.036-14H7.795z" fill="url(#c)"/><linearGradient id="d" x1=".5" y1=".005" x2=".5" y2="1.002"><stop offset="0" stop-color="#E2E600"/><stop offset="1" stop-color="#FFB700"/></linearGradient><path fill-rule="evenodd" d="M8.602 2L6 14h1.398L10 2H8.602z" fill="url(#d)"/><linearGradient id="e" x1=".5" y1=".028" x2=".5" y2="1.001"><stop offset="0" stop-color="#265DA6"/><stop offset="1" stop-color="#0A3269"/></linearGradient><path fill-rule="evenodd" d="M7 16h9V7H7v9z" fill="url(#e)"/><linearGradient id="f" x1=".5" y1=".012" x2=".5" y2="1"><stop offset="0" stop-color="#FFEAEA"/><stop offset="1" stop-color="#FFC3C3"/></linearGradient><path fill-rule="evenodd" d="M8 15h7V8H8v7z" fill="url(#f)"/><linearGradient id="g" x1=".5" y1=".013" x2=".5" y2="1"><stop offset="0" stop-color="#265DA6"/><stop offset="1" stop-color="#0A3269"/></linearGradient><path fill-rule="evenodd" d="M11.5 9c-.828 0-1.5.896-1.5 2v1c0 1.105.672 2 1.5 2H13v-1h-1s-1 .016-1-1.5c0-1.515 1-1.5 1-1.5h1V9h-1.5z" fill="url(#g)"/></svg>