<svg ti:v="1" width="16" height="16" viewBox="0 0 16 16" xmlns="http://www.w3.org/2000/svg" xmlns:ti="urn:schemas-jetbrains-com:tisvg"><rect id="frame" width="16" height="16" fill="none"/><g fill-rule="evenodd"><path d="M6 1.586l-6 6v.828l6 6m10-6l-6 6V1.586l6 6v.828z" fill="#F4F4F4"/><path d="M11 4v2l2 2-2 2v2l4-4M5 12L1 8l4-4v2L3 8l2 2v2z" fill="#313131"/><path d="M4.76 15L7.795 1h3.445L8.205 15H4.76z" fill="#F4F4F4"/><path d="M7.398 14H6L8.601 2h1.4L7.397 14z" fill="#313131"/><path d="M16 16H7V7h9v9z" fill="#F4F4F4"/><path d="M15 15H8V8h7v7z" fill="#313131"/><path d="M11 11.5c0 1.516 1 1.5 1 1.5h1v1h-1.5c-.828 0-1.5-.896-1.5-2v-1c0-1.104.672-2 1.5-2H13v1h-1s-1-.016-1 1.5z" fill="#EBEBEB"/></g></svg>