<svg ti:v="1" width="16" height="16" viewBox="0 0 16 16" xmlns="http://www.w3.org/2000/svg" xmlns:ti="urn:schemas-jetbrains-com:tisvg"><rect id="frame" width="16" height="16" fill="none"/><linearGradient id="a" x1=".5" y1="0" x2=".5" y2=".992"><stop offset="0" stop-color="#7C6D47"/><stop offset="1" stop-color="#60492F"/></linearGradient><path fill-rule="evenodd" d="M2 1v14h12V5.586L9.414 1H2z" fill="url(#a)"/><linearGradient id="b" x1=".5" y1=".019" x2=".5" y2="1.01"><stop offset="0" stop-color="#E3D8BC"/><stop offset="1" stop-color="#E3CDB3"/></linearGradient><path fill-rule="evenodd" d="M3 2v12h10V6L9 2H3z" fill="url(#b)"/><linearGradient id="c" x1=".5" y1=".014" x2=".5" y2="1"><stop offset="0" stop-color="#FFF3D4"/><stop offset="1" stop-color="#FFF"/></linearGradient><path fill-rule="evenodd" d="M5 4v8h6V6H9V4H5z" fill="url(#c)"/><linearGradient id="d" x1=".5" y1=".007" x2=".5" y2="1.007"><stop offset="0" stop-color="#1F4E1C"/><stop offset="1" stop-color="#348531"/></linearGradient><path fill-rule="evenodd" d="M2.5 9C1.098 9 0 10.317 0 12v1c0 1.682 1.098 3 2.5 3H10v-1h1v-5h-1V9H2.5z" fill="url(#d)"/><linearGradient id="e" x1=".5" y1=".03" x2=".5" y2="1.02"><stop offset="0" stop-color="#D3FFD1"/><stop offset="1" stop-color="#8DE889"/></linearGradient><path fill-rule="evenodd" d="M8 10v1H7v-1H6v1H5v1h1v1H5v1h1v1h1v-1h1v1h1v-1h1v-1H9v-1h1v-1H9v-1m-2 2h1v1H7m-4.5-3c-.828 0-1.5.896-1.5 2v1c0 1.104.672 2 1.5 2H4v-1H3s-1 .015-1-1.5C2 10.984 3 11 3 11h1v-1H2.5z" fill="url(#e)"/><linearGradient id="f" x1=".5" y1=".018" x2=".5" y2="1.009"><stop offset="0" stop-color="#49005D"/><stop offset="1" stop-color="#7C00A1"/></linearGradient><path fill-rule="evenodd" d="M4 0C1.794 0 0 1.794 0 4v1c0 2.243 1.384 4 3.15 4H8V6.273C8.62 5.732 9 4.928 9 4c0-2.243-1.756-4-4-4H4z" fill="url(#f)"/><linearGradient id="g" x1=".5" y1=".018" x2=".5" y2="1.009"><stop offset="0" stop-color="#FFF"/><stop offset="1" stop-color="#F4C9FF"/></linearGradient><path fill-rule="evenodd" d="M4 1a3 3 0 0 0-3 3v1c0 1.657.963 3 2.15 3H7V7H2.7a.7.7 0 0 1-.7-.7V2.7a.7.7 0 0 1 .7-.7h3.599A.7.7 0 0 1 7 2.7V4c0 .302-.516 1-1 1V3.7c0-.386-.314-.7-.701-.7H4.5a1.5 1.5 0 0 0 0 3H6c1.104 0 2-.797 2-2 0-1.719-1.343-3-3-3M4 4h1v1H4V4z" fill="url(#g)"/></svg>