<svg ti:v="1" width="16" height="16" viewBox="0 0 16 16" xmlns="http://www.w3.org/2000/svg" xmlns:ti="urn:schemas-jetbrains-com:tisvg"><rect id="frame" width="16" height="16" fill="none"/><g fill-rule="evenodd"><path d="M2 15V1h7.414L14 5.586V15H2z" fill="#242424"/><path d="M9 2H3v12h10V6L9 2z" fill="#C4C4C4"/><path d="M9 6V4H5v8h6V6H9z" fill="#282828"/><path d="M2.5 16C1.098 16 0 14.683 0 13v-1c0-1.683 1.098-3 2.5-3H10v1h1v5h-1v1H2.5z" fill="#242424"/><path d="M8 13H7v-1h1m2 0v-1H9v-1H8v1H7v-1H6v1H5v1h1v1H5v1h1v1h1v-1h1v1h1v-1h1v-1H9v-1m-7 .5C2 14.016 3 14 3 14h1v1H2.5c-.828 0-1.5-.896-1.5-2v-1c0-1.104.672-2 1.5-2H4v1H3s-1-.016-1 1.5z" fill="#86D086"/><path d="M3.15 9C1.383 9 0 7.243 0 5V4c0-2.206 1.794-4 4-4h1c2.243 0 4 1.757 4 4 0 .928-.38 1.731-1 2.273V9H3.15z" fill="#242424"/><path d="M5 5H4V4h1M1 4v1c0 1.657.963 3 2.15 3H7V7H2.7a.7.7 0 0 1-.7-.7V2.7a.7.7 0 0 1 .7-.7h3.6a.7.7 0 0 1 .7.7V4c0 .302-.516 1-1 1V3.7c0-.386-.314-.7-.701-.7H4.5a1.5 1.5 0 0 0 0 3H6c1.104 0 2-.797 2-2 0-1.719-1.343-3-3-3H4a3 3 0 0 0-3 3z" fill="#C673D3"/></g></svg>