<svg width="32" height="32" viewBox="0 0 32 32" fill="none" xmlns="http://www.w3.org/2000/svg">
<path d="M22.4 5.01337L31.7867 12.8L28.3733 19.6267L22.8267 18.1334H17.92L22.4 5.01337Z" fill="url(#paint0_linear)"/>
<path d="M13.0133 10.1333L11.2 19.6267L10.9867 22.9333L6.50667 24.96L0 25.6L1.92 4.90667L13.6533 0L20.9067 4.69333L13.0133 10.1333Z" fill="url(#paint1_linear)"/>
<path d="M13.0133 10.1334L13.8667 28.5867L10.9867 32L0 25.6L8.96 12.16L13.0133 10.1334Z" fill="url(#paint2_linear)"/>
<path d="M25.0667 8.74667H13.9733L23.7867 0L25.0667 8.74667Z" fill="url(#paint3_linear)"/>
<path d="M32 28.5867L22.1867 31.8933L9.28003 28.2667L13.0134 10.1333L14.5067 8.74667L22.4 8L21.76 16L28.0534 13.5467L32 28.5867Z" fill="url(#paint4_linear)"/>
<path d="M26 6H6V26H26V6Z" fill="url(#paint5_linear)"/>
<path d="M16 23H8V24H16V23Z" fill="white"/>
<path d="M8 8.11597H11.136C12.928 8.11597 14.048 9.27539 14.048 10.7826C14.048 12.6377 12.704 13.5652 11.024 13.5652H9.79199V15.8841H8V8.11597ZM11.024 12.1739C11.808 12.1739 12.368 11.5942 12.368 10.8986C12.368 10.087 11.808 9.73916 11.024 9.73916H9.79199V12.1739H11.024Z" fill="white"/>
<path d="M14.9441 12.058C14.9441 9.85507 16.5121 8 18.8641 8C20.3201 8 21.1041 8.46377 21.8881 9.15942L20.8801 10.4348C20.3201 9.85507 19.7601 9.50725 18.9761 9.50725C17.7441 9.50725 16.7361 10.5507 16.7361 11.942C16.7361 13.3333 17.6321 14.3768 18.9761 14.3768C19.8721 14.3768 20.3201 14.029 20.9921 13.4493L22.0001 14.6087C21.1041 15.5362 20.2081 16 18.7521 16C16.5121 16 14.9441 14.2609 14.9441 12.058Z" fill="white"/>
<defs>
<linearGradient id="paint0_linear" x1="11.4279" y1="12.364" x2="30.4716" y2="12.364" gradientUnits="userSpaceOnUse">
<stop offset="0" stop-color="#21D789"/>
<stop offset="1" stop-color="#07C3F2"/>
</linearGradient>
<linearGradient id="paint1_linear" x1="-11.2272" y1="27.0082" x2="27.9861" y2="-1.93888" gradientUnits="userSpaceOnUse">
<stop offset="0.0107527" stop-color="#FCF84A"/>
<stop offset="0.1116" stop-color="#A7EB62"/>
<stop offset="0.2056" stop-color="#5FE077"/>
<stop offset="0.2727" stop-color="#32DA84"/>
<stop offset="0.3065" stop-color="#21D789"/>
<stop offset="0.5768" stop-color="#21D789"/>
<stop offset="0.5968" stop-color="#21D789"/>
<stop offset="0.686" stop-color="#20D68C"/>
<stop offset="0.7627" stop-color="#1ED497"/>
<stop offset="0.8348" stop-color="#19D1A9"/>
<stop offset="0.904" stop-color="#13CCC2"/>
<stop offset="0.9707" stop-color="#0BC6E1"/>
<stop offset="1" stop-color="#07C3F2"/>
</linearGradient>
<linearGradient id="paint2_linear" x1="4.26517" y1="35.4988" x2="10.8054" y2="14.9759" gradientUnits="userSpaceOnUse">
<stop offset="0" stop-color="#21D789"/>
<stop offset="0.1601" stop-color="#24D888"/>
<stop offset="0.2979" stop-color="#2FD985"/>
<stop offset="0.4273" stop-color="#41DC80"/>
<stop offset="0.5517" stop-color="#5AE079"/>
<stop offset="0.6726" stop-color="#7AE46F"/>
<stop offset="0.7908" stop-color="#A1EA64"/>
<stop offset="0.9045" stop-color="#CFF157"/>
<stop offset="1" stop-color="#FCF84A"/>
</linearGradient>
<linearGradient id="paint3_linear" x1="12.9259" y1="17.6563" x2="27.1583" y2="-1.47925" gradientUnits="userSpaceOnUse">
<stop offset="0" stop-color="#21D789"/>
<stop offset="0.0925964" stop-color="#23D986"/>
<stop offset="0.1722" stop-color="#2ADE7B"/>
<stop offset="0.2467" stop-color="#36E669"/>
<stop offset="0.2707" stop-color="#3BEA62"/>
<stop offset="0.3504" stop-color="#47EB61"/>
<stop offset="0.4943" stop-color="#67ED5D"/>
<stop offset="0.6859" stop-color="#9AF156"/>
<stop offset="0.9155" stop-color="#E0F64D"/>
<stop offset="1" stop-color="#FCF84A"/>
</linearGradient>
<linearGradient id="paint4_linear" x1="34.6923" y1="20.0912" x2="6.01507" y2="19.8257" gradientUnits="userSpaceOnUse">
<stop offset="0.3871" stop-color="#FCF84A"/>
<stop offset="0.4627" stop-color="#ECF74C"/>
<stop offset="0.611" stop-color="#C1F451"/>
<stop offset="0.8153" stop-color="#7EEF5A"/>
<stop offset="1" stop-color="#3BEA62"/>
</linearGradient>
<linearGradient id="paint5_linear" x1="15.9733" y1="1.139" x2="15.9733" y2="19.075" gradientUnits="userSpaceOnUse">
<stop offset="0.0842986" stop-color="#878585"/>
<stop offset="0.5377"/>
</linearGradient>
</defs>
</svg>
