<svg xmlns="http://www.w3.org/2000/svg" width="16" height="16" viewBox="0 0 16 16">
  <g id="grouping" fill="none" fill-rule="evenodd" stroke="none" stroke-width="1">
    <g id="Group" fill="#6E6E6E" transform="translate(2 1)">
      <polygon id="Path" points="0 13 4 13 4 12 1 12 1 9 0 9"/>
      <polygon id="Path" points="13 13 13 9 12 9 12 12 9 12 9 13"/>
      <polygon id="Path" points="13 0 9 0 9 1 12 1 12 4 13 4"/>
      <polygon id="Path" points="4 0 4 1 1 1 1 4 0 4 0 0"/>
      <polygon id="Fill-3" points="2 11 6 11 6 7 2 7"/>
      <polygon id="Fill-4" points="7 6 11 6 11 2 7 2"/>
      <polygon id="Fill-5" points="7 11 11 11 11 7 7 7"/>
      <polygon id="Fill-6" points="2 6 6 6 6 2 2 2"/>
    </g>
  </g>
</svg>
