<svg xmlns="http://www.w3.org/2000/svg" width="16" height="16" viewBox="0 0 16 16">
  <g id="splitRight" fill="none" fill-rule="evenodd" stroke="none" stroke-width="1">
    <path id="Fill-2" fill="#6E6E6E" d="M8,4 L9,4 L9,3 L8,3 L8,4 Z M8,6 L9,6 L9,5 L8,5 L8,6 Z M8,8 L9,8 L9,7 L8,7 L8,8 Z M8,10 L9,10 L9,9 L8,9 L8,10 Z M8,12 L9,12 L9,10.999 L8,10.999 L8,12 Z"/>
    <path id="Fill-3" fill="#6E6E6E" d="M9,2 L9,3 L9,4 L9,5 L14,5 L14,12 L9,12 L9,13 L15,13 L15,2 L9,2 Z M3,5 L3,12 L8,12 L8,13 L2,13 L2,2 L8,2 L8,3 L8,4 L8,5 L3,5 Z"/>
  </g>
</svg>
