<svg xmlns="http://www.w3.org/2000/svg" width="16" height="16" viewBox="0 0 16 16">
  <g id="splitBottom" fill="none" fill-rule="evenodd" stroke="none" stroke-width="1">
    <path id="Fill-2" fill="#6E6E6E" d="M13,9 L14.001,9 L14.001,8 L13,8 L13,9 Z M11,9 L12,9 L12,8 L11,8 L11,9 Z M9,9 L10,9 L10,8 L9,8 L9,9 Z M7,9 L8,9 L8,8 L7,8 L7,9 Z M5,9 L6,9 L6,8 L5,8 L5,9 Z M3,9 L4,9 L4,8 L3,8 L3,9 Z"/>
    <path id="Fill-3" fill="#6E6E6E" d="M2,2 L2,8 L3,8 L3,5 L14,5 L14,8 L15,8 L15,2 L2,2 Z M14,9 L15,9 L15,13 L2,13 L2,9 L3,9 L3,12 L14,12 L14,9 Z"/>
  </g>
</svg>
