<svg ti:v="1" width="16" height="16" viewBox="0 0 16 16" xmlns="http://www.w3.org/2000/svg" xmlns:ti="urn:schemas-jetbrains-com:tisvg"><rect id="frame" width="16" height="16" fill="none"/><linearGradient id="a" x1=".5" y1="0" x2=".5" y2="1.011"><stop offset="0" stop-color="#006E09"/><stop offset="1" stop-color="#004717"/></linearGradient><path d="M7.807 1L2 3.323V8c0 3.35 3.169 5.254 5.683 7h.634C10.815 13.265 14 11.379 14 8V3.323L8.193 1zm0 0" fill="url(#a)"/><linearGradient id="b" x1=".5" y1=".014" x2=".5" y2="1.014"><stop offset="0" stop-color="#14C900"/><stop offset="1" stop-color="#008F00"/></linearGradient><path d="M13 4L8 2 3 4v4c0 3 3.372 4.852 5 6 1.628-1.148 5-3 5-6zm0 0" fill="url(#b)"/><path d="M10.828 3.131L7.451 9.27 6.6 7H5l1.5 4H8.4l3.985-7.246-1.557-.623z" fill="#FFF"/></svg>