<svg ti:v="1" width="32" height="32" viewBox="0 0 32 32" xmlns="http://www.w3.org/2000/svg" xmlns:ti="urn:schemas-jetbrains-com:tisvg"><rect id="frame" width="32" height="32" fill="none"/><linearGradient id="a" x1="-.381" y1="1.105" x2="1.14" y2=".099"><stop offset="0" stop-color="#E243E6"/><stop offset=".016" stop-color="#E243E6"/><stop offset=".404" stop-color="#C30A54"/><stop offset=".468" stop-color="#C30A54"/><stop offset=".65" stop-color="#EB841A"/><stop offset=".952" stop-color="#FFBC00"/><stop offset="1" stop-color="#FFBC00"/></linearGradient><path fill-rule="evenodd" d="M16.427 16.747L26.667 32 32 10.56l-9.173-3.627-6.4 9.814z" fill="url(#a)"/><linearGradient id="b" x1="-.03" y1="1.046" x2="1.284" y2=".259"><stop offset="0" stop-color="#E243E6"/><stop offset=".016" stop-color="#E243E6"/><stop offset=".404" stop-color="#C30A54"/><stop offset=".468" stop-color="#C30A54"/><stop offset=".704" stop-color="#EB841A"/><stop offset="1" stop-color="#EB841A"/></linearGradient><path fill-rule="evenodd" d="M8.64 15.36l3.946 3.946L9.493 32h17.174L23.36 7.146 22.4 0 8.64 15.36z" fill="url(#b)"/><linearGradient id="c" x1=".033" y1="1.134" x2=".88" y2=".196"><stop offset="0" stop-color="#E243E6"/><stop offset=".016" stop-color="#E243E6"/><stop offset=".661" stop-color="#C30A54"/><stop offset="1" stop-color="#C30A54"/></linearGradient><path fill-rule="evenodd" d="M5.333 0L0 21.546h25.387L22.4 0H5.333z" fill="url(#c)"/><linearGradient id="d" x1=".6" y1="-.246" x2=".524" y2=".509"><stop offset="0" stop-color="#C30A54"/><stop offset=".5" stop-color="#C30A54"/><stop offset=".615" stop-color="#CC2548"/><stop offset=".777" stop-color="#D74738"/><stop offset=".866" stop-color="#DB5233"/><stop offset="1" stop-color="#DB5233"/></linearGradient><path fill-rule="evenodd" d="M19.093 10.453l6.187 11.093-1.92-14.4L22.4 0l-3.307 10.453z" fill="url(#d)"/><path fill-rule="evenodd" d="M27 27H5V5h22v22z" fill="#313131"/><path fill-rule="evenodd" d="M20.343 12.513l.33-1.985h-1.875l-.33 1.985m-2.001 1.535h-.977v-1.627h1.301l.326-1.952h-1.085V8.843h1.41L17.768 7h1.735l-.324 1.843h1.842L21.346 7h1.735l-.326 1.843h.976v1.626h-1.3l-.326 1.952h1.085v1.627h-1.41L21.454 16h-1.736l.325-1.952h-1.842L17.876 16h-1.735m-5.06-4.59c.44 0 .881-.11 1.101-.33.222-.22.441-.552.441-.993 0-.44-.11-.772-.44-.992-.331-.22-.663-.33-1.213-.33H8.983v2.645M7 7h4.223c1.11 0 2.11.333 2.665.888.556.556.778 1.223.778 2.112 0 .777-.222 1.333-.555 1.777-.333.445-.889.778-1.445 1L14.89 16h-2.333l-1.89-2.778H9V16H7V7z" fill="#FFF"/><path fill-rule="evenodd" d="M7 22h8v2H7v-2z" fill="#FFF"/></svg>