<svg ti:v="1" width="32" height="32" viewBox="0 0 32 32" xmlns="http://www.w3.org/2000/svg" xmlns:ti="urn:schemas-jetbrains-com:tisvg"><rect id="frame" width="32" height="32" fill="none"/><linearGradient id="a" x1="-.381" y1="1.105" x2="1.14" y2=".099"><stop offset="0" stop-color="#E243E6"/><stop offset=".016" stop-color="#E243E6"/><stop offset=".404" stop-color="#C30A54"/><stop offset=".468" stop-color="#C30A54"/><stop offset=".65" stop-color="#EB841A"/><stop offset=".952" stop-color="#FFBC00"/><stop offset="1" stop-color="#FFBC00"/></linearGradient><path fill-rule="evenodd" d="M22.827 6.933l-6.4 9.814L26.667 32 32 10.56l-9.173-3.627z" fill="url(#a)"/><linearGradient id="b" x1="-.03" y1="1.046" x2="1.284" y2=".259"><stop offset="0" stop-color="#E243E6"/><stop offset=".016" stop-color="#E243E6"/><stop offset=".404" stop-color="#C30A54"/><stop offset=".468" stop-color="#C30A54"/><stop offset=".704" stop-color="#EB841A"/><stop offset="1" stop-color="#EB841A"/></linearGradient><path fill-rule="evenodd" d="M23.36 7.147L22.4 0 8.64 15.36l3.947 3.947L9.493 32h17.174L23.36 7.147z" fill="url(#b)"/><linearGradient id="c" x1=".033" y1="1.134" x2=".88" y2=".196"><stop offset="0" stop-color="#E243E6"/><stop offset=".016" stop-color="#E243E6"/><stop offset=".661" stop-color="#C30A54"/><stop offset="1" stop-color="#C30A54"/></linearGradient><path fill-rule="evenodd" d="M22.4 0H5.333L0 21.547h25.387L22.4 0z" fill="url(#c)"/><linearGradient id="d" x1=".6" y1="-.246" x2=".524" y2=".509"><stop offset="0" stop-color="#C30A54"/><stop offset=".5" stop-color="#C30A54"/><stop offset=".615" stop-color="#CC2548"/><stop offset=".777" stop-color="#D74738"/><stop offset=".866" stop-color="#DB5233"/><stop offset="1" stop-color="#DB5233"/></linearGradient><path fill-rule="evenodd" d="M25.28 21.547l-1.92-14.4L22.4 0l-3.307 10.453 6.187 11.094z" fill="url(#d)"/><path fill-rule="evenodd" d="M27 27H5V5h22v22z" fill="#2D2D34"/><path fill-rule="evenodd" d="M20.342 12.513l.331-1.985h-1.875l-.331 1.985m-2.001 1.535h-.976v-1.627h1.301l.326-1.952h-1.085V8.843h1.41L17.767 7h1.735l-.325 1.843h1.843L21.346 7h1.735l-.326 1.843h.976v1.626H22.43l-.325 1.952h1.084v1.627h-1.41L21.454 16h-1.735l.325-1.952h-1.843L17.876 16h-1.735m-5.061-4.59c.441 0 .882-.11 1.102-.33.221-.22.441-.552.441-.993 0-.44-.11-.772-.441-.992-.331-.22-.661-.33-1.213-.33H8.984v2.645M7 7h4.222c1.111 0 2.111.333 2.666.888.556.556.778 1.223.778 2.112 0 .777-.222 1.333-.555 1.777-.334.445-.889.778-1.445 1L14.888 16h-2.333l-1.889-2.778H9V16H7V7z" fill="#FFF"/><path fill-rule="evenodd" d="M7 22h8v2H7v-2z" fill="#FFF"/></svg>