<svg xmlns="http://www.w3.org/2000/svg" width="16" height="16" viewBox="0 0 16 16">
  <g fill="none" fill-rule="evenodd">
    <path fill="#40B6E0" fill-opacity=".6" d="M6,14.7101226 C3.1085077,13.8495756 1,11.1710271 1,8 C1,4.134 4.134,1 8,1 C11.866,1 15,4.134 15,8 L6,8 L6,14.7101226 Z"/>
    <path fill="#231F20" fill-opacity=".7" d="M6,8 L6,5 L10,5 L10,6 L7,6 L7,7 L9,7 L9,8 L7,8 L6,8 Z"/>
    <polygon fill="#40B6E0" fill-opacity=".7" points="7 16 16 16 16 9 7 9"/>
    <path fill="#231F20" fill-opacity=".7" d="M0.972767969,1.50152588 C0.972767969,1.13305664 1.284,1 1.845,1 C1.85033333,1 2.23533333,1 3,1 L3,0 C2.26266667,0 1.88266667,0 1.86,0 C0.778,0 0,0.45916748 0,1.45 C0,2.31452637 0.419555664,2.69049072 1.47125244,2.91607666 C2.24158869,3.08131157 2.496155,3.22862939 2.496155,3.548 C2.496155,3.86737061 2.13842773,4 1.47125244,4 C1.46058577,4 1.07016829,4 0.3,4 L0.3,5 C1.07550163,5 1.46591911,5 1.47125244,5 C3.5,5 3.5,4 3.5,3.548 C3.5,2.91607666 3.02026367,2.42071533 2.15869141,2.14685059 C1.29711914,1.87298584 0.972767969,1.86999512 0.972767969,1.50152588 Z" transform="translate(12 10)"/>
    <polygon fill="#231F20" fill-opacity=".7" points="2 1 .5 1 .5 0 4.5 0 4.5 1 3 1 3 5 2 5" transform="translate(7 10)"/>
  </g>
</svg>
