<svg xmlns="http://www.w3.org/2000/svg" width="16" height="16" viewBox="0 0 16 16"><rect id="frame" width="16" height="16" fill="none"/><g fill="none" fill-rule="evenodd"><path fill="#62B543" fill-opacity=".6" d="M6 14.71A7 7 0 1 1 15 8H6v6.71z"/><path fill="#231F20" fill-opacity=".7" d="M8.701 8l-.718-1.8L7.285 8H6.277l1.276-3h.893l1.277 3H8.701zM6 11H5l1-2.35V11z"/><path fill="#40B6E0" fill-opacity=".7" d="M7 16h9V9H7z"/><path fill="#231F20" fill-opacity=".7" d="M12.973 11.502c0-.369.311-.502.872-.502H15v-1h-1.14c-1.082 0-1.86.46-1.86 1.45 0 .865.42 1.24 1.471 1.466.77.165 1.025.313 1.025.632 0 .32-.358.452-1.025.452H12.3v1h1.171c2.029 0 2.029-1 2.029-1.452 0-.632-.48-1.127-1.341-1.401-.862-.274-1.186-.277-1.186-.645z"/><path fill="#231F20" fill-opacity=".7" d="M9 11H7.5v-1h4v1H10v4H9z"/></g></svg>