<svg xmlns="http://www.w3.org/2000/svg" width="16" height="16" viewBox="0 0 16 16"><rect id="frame" width="16" height="16" fill="none"/><g fill="none" fill-rule="evenodd"><path fill="#40B6E0" fill-opacity=".6" d="M6 14.71A7 7 0 1 1 15 8H6v6.71z"/><path fill="#231F20" fill-opacity=".7" d="M6.01 10.246A2.982 2.982 0 0 1 5 8c0-1.642 1.34-3 3.098-3 1.19 0 1.731.27 2.418.836l-.616.718C9.548 6.184 8.948 6 8.1 6 6.97 6 6 6.712 6 8c0 .073.003.144.01.214v2.032z"/><path fill="#F26522" fill-opacity=".7" d="M7 16h9V9H7z"/><path fill="#231F20" fill-opacity=".7" d="M8 13v-1l3-2v1l-2.2 1.5L11 14v1z"/><path fill="#231F20" fill-opacity=".7" d="M12 14l2.2-1.5L12 11v-1l3 2v1l-3 2z"/></g></svg>