<svg width="16" height="16" viewBox="0 0 16 16" fill="none" xmlns="http://www.w3.org/2000/svg">
<path d="M16 0H0V16H16V0Z" fill="#087CFA"/>
<path d="M15 1H1V15H15V1Z" fill="black"/>
<path d="M9 12H3V13H9V12Z" fill="white"/>
<path d="M6.0125 4.10002V3.00627H3.03125V4.10002H3.86875V7.87503H3.03125V8.96878H6.0125V7.87503H5.18125V4.10002H6.0125Z" fill="white"/>
<path d="M8.87493 9.05628C8.40618 9.05628 8.01868 8.96878 7.70618 8.79378C7.39368 8.61878 7.13118 8.40628 6.92493 8.16253L7.74993 7.24378C7.91868 7.43128 8.09368 7.57503 8.26243 7.68128C8.43743 7.78753 8.62493 7.83753 8.83743 7.83753C9.08743 7.83753 9.28118 7.76253 9.42493 7.60003C9.56868 7.44378 9.63743 7.19378 9.63743 6.84378V3.00627H10.9812V6.90628C10.9812 7.26253 10.9312 7.57503 10.8374 7.83753C10.7437 8.10003 10.5999 8.31878 10.4187 8.50003C10.2374 8.68128 10.0124 8.81878 9.74993 8.91253C9.49368 9.00628 9.19993 9.05628 8.87493 9.05628Z" fill="white"/>
</svg>
