<svg xmlns="http://www.w3.org/2000/svg" width="16" height="16" viewBox="0 0 16 16">
  <g fill="none" fill-rule="evenodd">
    <path fill="#9AA7B0" fill-opacity=".8" d="M15.0009266,8.8985332 C14.3949784,6.81926924 12.4749114,5.3 10.2,5.3 C7.43857625,5.3 5.2,7.53857625 5.2,10.3 C5.2,11.2945359 5.49036662,12.221253 5.99094851,13 L1.0006,13 L1.0006,2.051 C1.0006,2.023 1.0226,2 1.0506,2 L4.9786,2 C5.5326,2 6.3046,2.32 6.6966,2.711 L7.9846,4 L15.0006,4 L15.0009266,8.8985332 Z"/>
    <path fill="#9AA7B0" d="M10.2333333,14.1666667 C8.11624179,14.1666667 6.4,12.4504249 6.4,10.3333333 C6.4,8.21624179 8.11624179,6.5 10.2333333,6.5 C12.3504249,6.5 14.0666667,8.21624179 14.0666667,10.3333333 C14.0666667,12.4504249 12.3504249,14.1666667 10.2333333,14.1666667 Z M10.2333333,12.8333333 C11.6140452,12.8333333 12.7333333,11.7140452 12.7333333,10.3333333 C12.7333333,8.95262146 11.6140452,7.83333333 10.2333333,7.83333333 C8.85262146,7.83333333 7.73333333,8.95262146 7.73333333,10.3333333 C7.73333333,11.7140452 8.85262146,12.8333333 10.2333333,12.8333333 Z"/>
    <polygon fill="#9AA7B0" points="13.171 11.857 14.638 11.857 14.638 16.019 13.171 16.019" transform="rotate(-45 13.905 13.938)"/>
  </g>
</svg>
