<svg ti:v="1" width="16" height="16" viewBox="0 0 16 16" xmlns="http://www.w3.org/2000/svg" xmlns:ti="urn:schemas-jetbrains-com:tisvg"><rect id="frame" width="16" height="16" fill="none"/><g fill-rule="evenodd"><path d="M5 16h11V7H5v9z" fill="#F4F4F4"/><path d="M15 7H6v8h9V7z" fill="#01509E"/><path d="M7 14h7V7H7v7z" fill="#EBEBEB"/><path d="M9 12H8v1h1m4-1h-3v1h3M9 8H8v1h1m4 0h-3V8h3m-4 2H8v1h1m4 0h-3v-1h3v1z" fill="#01509E"/><path d="M5 4v3h11V4H5z" fill="#F4F4F4"/><path d="M6 7h9V5H6v2z" fill="#01509E"/><path d="M9.459 0h-.266L8.39.308A9.609 9.609 0 0 1 5 .913 9.613 9.613 0 0 1 1.61.308L.807 0H.541L.285.991A9.007 9.007 0 0 0 0 3.242C0 7.031 2.196 10 5 10s5-2.969 5-6.758c0-.762-.096-1.519-.285-2.251L9.459 0z" fill="#F4F4F4"/><path d="M5 1.913a10.51 10.51 0 0 1-3.747-.672A8.016 8.016 0 0 0 1 3.242C1 6.422 2.791 9 5 9s4-2.578 4-5.758c0-.704-.092-1.377-.253-2.001A10.51 10.51 0 0 1 5 1.913z" fill="#313131"/><path d="M3 6c0 1 1.04 2 2 2s2-1 2-2c-.615.725-3.385.725-4 0z" fill="#EBEBEB"/><path d="M2.06 3a2.172 2.172 0 0 0-.06.5C2 4.329 2.448 5 3 5s1-.671 1-1.5c0-.176-.023-.343-.06-.5H2.06z" fill="#EBEBEB"/><path d="M6.06 3a2.172 2.172 0 0 0-.06.5C6 4.329 6.448 5 7 5s1-.671 1-1.5c0-.176-.023-.343-.06-.5H6.06z" fill="#EBEBEB"/></g></svg>