<svg ti:v="1" width="16" height="16" viewBox="0 0 16 16" xmlns="http://www.w3.org/2000/svg" xmlns:ti="urn:schemas-jetbrains-com:tisvg"><rect id="frame" width="16" height="16" fill="none"/><linearGradient id="a" x1="0" y1=".5" x2="1" y2=".5"><stop offset="0" stop-color="#5D5E62"/><stop offset="1" stop-color="#282B2D"/></linearGradient><path fill-rule="evenodd" d="M5 16h11V7H5v9z" fill="url(#a)"/><path fill-rule="evenodd" d="M15 7H6v8h9V7z" fill="#FFF"/><linearGradient id="b" x1="0" y1=".5" x2="1" y2=".5"><stop offset="0" stop-color="#F2F9FF"/><stop offset="1" stop-color="#CCEBFF"/></linearGradient><path fill-rule="evenodd" d="M7 14h7V7H7v7z" fill="url(#b)"/><linearGradient id="c" x1="0" y1=".5" x2="1" y2=".5"><stop offset="0" stop-color="#006293"/><stop offset="1" stop-color="#00214F"/></linearGradient><path fill-rule="evenodd" d="M10 9h3V8h-3M8 9h1.001V8H8m2 3h3v-1h-3m-2 1h1.001v-1H8m2 3h3v-1h-3m-2 1h1.001v-1H8v1z" fill="url(#c)"/><linearGradient id="d" x1=".5" y1="0" x2=".5" y2="1"><stop offset="0" stop-color="#003D62"/><stop offset="1" stop-color="#00144F"/></linearGradient><path fill-rule="evenodd" d="M5 4v3h11V4H5z" fill="url(#d)"/><linearGradient id="e" x1="0" y1=".5" x2=".993" y2=".5"><stop offset="0" stop-color="#33D6FF"/><stop offset="1" stop-color="#009CFF"/></linearGradient><path fill-rule="evenodd" d="M6 7h9V5H6v2z" fill="url(#e)"/><linearGradient id="f" x1=".5" y1=".019" x2=".5" y2="1.02"><stop offset="0" stop-color="#566980"/><stop offset="1" stop-color="#2D3642"/></linearGradient><path fill-rule="evenodd" d="M9.193 0l-.804.308A9.603 9.603 0 0 1 5 .913 9.6 9.6 0 0 1 1.611.308L.807 0H.541L.285.992A8.987 8.987 0 0 0 0 3.242C0 7.031 2.196 10 5 10c2.803 0 5-2.969 5-6.758 0-.762-.096-1.52-.285-2.25L9.459 0h-.266z" fill="url(#f)"/><linearGradient id="g" x1=".5" y1="0" x2=".5" y2="1"><stop offset="0" stop-color="#F6FBFF"/><stop offset="1" stop-color="#E8F4FF"/></linearGradient><path fill-rule="evenodd" d="M5 1.913c-1.355 0-2.629-.244-3.747-.672A8.022 8.022 0 0 0 1 3.242C1 6.422 2.791 9 5 9s4-2.578 4-5.758c0-.704-.091-1.376-.253-2.001A10.512 10.512 0 0 1 5 1.913z" fill="url(#g)"/><path fill-rule="evenodd" d="M3 6c0 1 1.04 2 2 2s2-1 2-2c-.615.725-3.385.725-4 0z"/><path fill-rule="evenodd" d="M6.06 3a2.172 2.172 0 0 0-.06.5C6 4.329 6.447 5 7 5s1-.671 1-1.5c0-.176-.023-.343-.06-.5H6.06z"/><path fill-rule="evenodd" d="M2.06 3a2.172 2.172 0 0 0-.06.5C2 4.329 2.447 5 3 5s1-.671 1-1.5c0-.176-.023-.343-.06-.5H2.06z"/></svg>