<svg ti:v="1" width="16" height="16" viewBox="0 0 16 16" xmlns="http://www.w3.org/2000/svg" xmlns:ti="urn:schemas-jetbrains-com:tisvg"><rect id="frame" width="16" height="16" fill="none"/><path fill-rule="evenodd" d="M7 13V8H3.586l3-3h7.828l-3 3H10v2h4.414l-3 3H7z" fill="#324A63"/><linearGradient id="a" x1=".5" y1="0" x2=".5" y2="1"><stop offset="0" stop-color="#1C568E"/><stop offset="1" stop-color="#000E4F"/></linearGradient><path fill-rule="evenodd" d="M16 12.414v-.828l-3-3L8.586 13l3 3h.828L16 12.414z" fill="url(#a)"/><linearGradient id="b" x1=".5" y1="0" x2=".5" y2="1"><stop offset="0" stop-color="#720872"/><stop offset="1" stop-color="#540A54"/></linearGradient><path fill-rule="evenodd" d="M16 6.586l-3-3L8.586 8 12 11.414l4-4v-.828z" fill="url(#b)"/><linearGradient id="c" x1=".5" y1="0" x2=".5" y2="1"><stop offset="0" stop-color="#EBACF6"/><stop offset="1" stop-color="#DA6EDB"/></linearGradient><path fill-rule="evenodd" d="M13 5l2 2-3 3-2-2 3-3z" fill="url(#c)"/><linearGradient id="d" x1=".5" y1="0" x2=".5" y2="1"><stop offset="0" stop-color="#9CCDFD"/><stop offset="1" stop-color="#5D9AD8"/></linearGradient><path fill-rule="evenodd" d="M13 10l2 2-3 3-2-2 3-3z" fill="url(#d)"/><linearGradient id="e" x1=".5" y1="0" x2=".5" y2="1"><stop offset="0" stop-color="#6E4D00"/><stop offset="1" stop-color="#422D00"/></linearGradient><path fill-rule="evenodd" d="M0 5.586v.828l4 4L10.414 4l-4-4h-.828L0 5.586z" fill="url(#e)"/><linearGradient id="f" x1=".5" y1="0" x2=".5" y2="1"><stop offset="0" stop-color="#F6DF85"/><stop offset="1" stop-color="#EDB62A"/></linearGradient><path fill-rule="evenodd" d="M4 9L1 6l5-5 3 3-5 5z" fill="url(#f)"/><path fill-rule="evenodd" d="M11 7V6H7v1h1v5h3v-1H9V7h2z" fill="#FFF"/></svg>