<svg ti:v="1" width="16" height="16" viewBox="0 0 16 16" xmlns="http://www.w3.org/2000/svg" xmlns:ti="urn:schemas-jetbrains-com:tisvg"><rect id="frame" width="16" height="16" fill="none"/><linearGradient id="a" x1=".5" y1="0" x2=".5" y2="1"><stop offset="0" stop-color="#3F5680"/><stop offset="1" stop-color="#102642"/></linearGradient><path fill-rule="evenodd" d="M5 3C3.346 3 2 4.346 2 6v4c0 1.654 1.346 3 3 3h6c1.654 0 3-1.346 3-3V6c0-1.654-1.346-3-3-3H5z" fill="url(#a)"/><linearGradient id="b" x1=".5" y1="0" x2=".5" y2="1"><stop offset="0" stop-color="#DFF6FF"/><stop offset="1" stop-color="#9CBFFF"/></linearGradient><path fill-rule="evenodd" d="M5 4a2 2 0 0 0-2 2v4a2 2 0 0 0 2 2h6a2 2 0 0 0 2-2V6a2 2 0 0 0-2-2H5z" fill="url(#b)"/><linearGradient id="c" x1="0" y1=".5" x2="1" y2=".5"><stop offset="0" stop-color="#3F5680"/><stop offset="1" stop-color="#102642"/></linearGradient><path fill-rule="evenodd" d="M5 7h6V6H5m0 4h6V9H5v1z" fill="url(#c)"/></svg>