<svg ti:v="1" width="16" height="16" viewBox="0 0 16 16" xmlns="http://www.w3.org/2000/svg" xmlns:ti="urn:schemas-jetbrains-com:tisvg"><rect id="frame" width="16" height="16" fill="none"/><g fill-rule="evenodd"><path d="M5 12.25V6.751L10 4l5 2.751v5.499L10 15l-5-2.75z" fill="#242424"/><path d="M6 7.801v3.858l4 2.2V10L6 7.801z" fill="#C3C3C3"/><path d="M14 7.801L10 10v3.859l4-2.2V7.801z" fill="#C3C3C3"/><path d="M13.379 7l-3.38 1.858L6.622 7 6 7.342v.459L10 10l4-2.199v-.459L13.379 7z" fill="#282828"/><path d="M10 8.858L13.379 7 10 5.141 6.621 7 10 8.858z" fill="#C3C3C3"/><path d="M5 1V0H2v1H0v7h2v1h3V8h2V1H5z" fill="#242424"/><path d="M6 6H5v1h1M2 6H1v1h1m4-5H5v1h1M2 2H1v1h1m4 1v1H5v1H4v2H3V6H2V5H1V4h1V3h1V1h1v2h1v1h1z" fill="#E8A34D"/><path d="M3 5h1V4H3v1z" fill="#282828"/></g></svg>