<svg ti:v="1" width="16" height="16" viewBox="0 0 16 16" xmlns="http://www.w3.org/2000/svg" xmlns:ti="urn:schemas-jetbrains-com:tisvg"><rect id="frame" width="16" height="16" fill="none"/><linearGradient id="a" x1=".5" y1=".003" x2=".5" y2="1.003"><stop offset="0" stop-color="#7C6E48"/><stop offset="1" stop-color="#60492F"/></linearGradient><path fill-rule="evenodd" d="M2 1v14h12V5.586L9.414 1H2z" fill="url(#a)"/><linearGradient id="b" x1=".5" y1=".004" x2=".5" y2="1"><stop offset="0" stop-color="#E2D8BC"/><stop offset="1" stop-color="#E2CDB3"/></linearGradient><path fill-rule="evenodd" d="M3 2v12h10V6L9 2H3z" fill="url(#b)"/><linearGradient id="c" x1=".5" y1=".012" x2=".5" y2="1.006"><stop offset="0" stop-color="#FFF2D4"/><stop offset="1" stop-color="#FFF"/></linearGradient><path fill-rule="evenodd" d="M5 4v8h6V6H9V4H5z" fill="url(#c)"/><linearGradient id="d" x1=".5" y1="-.005" x2=".5" y2="1.025"><stop offset="0" stop-color="#A01A93"/><stop offset="1" stop-color="#6B0160"/></linearGradient><path fill-rule="evenodd" d="M3 7v5H1.25C.563 12 0 12.563 0 13.25v1.5C0 15.438.563 16 1.25 16H10v-4c0-1.956-1.127-2.654-2.18-2.654-.278 0-.557.046-.82.117V7H3z" fill="url(#d)"/><linearGradient id="e" x1=".5" y1=".013" x2=".5" y2="1.027"><stop offset="0" stop-color="#FFBCF7"/><stop offset="1" stop-color="#FF93F4"/></linearGradient><path fill-rule="evenodd" d="M4 8v7h2v-3s1-1 1 0v3h2v-3c0-3-3-1-3-1V8H4z" fill="url(#e)"/><linearGradient id="f" x1=".5" y1=".013" x2=".5" y2="1.027"><stop offset="0" stop-color="#FFBCF7"/><stop offset="1" stop-color="#FFA3F6"/></linearGradient><path fill-rule="evenodd" d="M1.75 13a.753.753 0 0 0-.75.75v.5c0 .412.338.75.75.75h.5c.412 0 .75-.338.75-.75v-.5a.753.753 0 0 0-.75-.75h-.5z" fill="url(#f)"/></svg>