<svg ti:v="1" width="16" height="16" viewBox="0 0 16 16" xmlns="http://www.w3.org/2000/svg" xmlns:ti="urn:schemas-jetbrains-com:tisvg"><rect id="frame" width="16" height="16" fill="none"/><g fill-rule="evenodd"><path d="M2 15V1h7.414L14 5.586V15H2z" fill="#F4F4F4"/><path d="M9 2H3v12h10V6L9 2z" fill="#313131"/><path d="M9 6V4H5v8h6V6H9z" fill="#EBEBEB"/><path d="M7.82 9.347c-.278 0-.557.046-.82.116V7H3v5H1.25C.562 12 0 12.563 0 13.25v1.5C0 15.438.562 16 1.25 16H10v-4c0-1.956-1.127-2.653-2.18-2.653z" fill="#F4F4F4"/><path d="M9 12v3H7v-3c0-1-1 0-1 0v3H4V8h2v3s3-2 3 1z" fill="#A04897"/><path d="M3 13.75a.753.753 0 0 0-.75-.75h-.5a.753.753 0 0 0-.75.75v.5c0 .412.338.75.75.75h.5c.412 0 .75-.338.75-.75v-.5z" fill="#A04897"/></g></svg>