<svg xmlns="http://www.w3.org/2000/svg" width="16" height="16" viewBox="0 0 16 16"><rect id="frame" width="16" height="16" fill="none"/><g fill-rule="evenodd"><path d="M10.3 14V8.78c0-.4-.084-.4-.224-.4s-.274.2-.276.288V14H6v-.169a1.747 1.747 0 0 1-.75.169h-.5A1.752 1.752 0 0 1 3 12.25v-.5A1.752 1.752 0 0 1 4.75 10h.5a1.747 1.747 0 0 1 .75.169V2h3.8v3.141A4.041 4.041 0 0 1 10.876 5 2.988 2.988 0 0 1 14 8.251V14z" fill="#f4f4f4"/><path d="M6 12.25a.753.753 0 0 1-.75.75h-.5a.753.753 0 0 1-.75-.75v-.5a.753.753 0 0 1 .75-.75h.5a.753.753 0 0 1 .75.75zm7-4A1.991 1.991 0 0 0 10.876 6a2.516 2.516 0 0 0-2 .864H8.8V3H7v10h1.8V8.671a1.346 1.346 0 0 1 1.276-1.289c.667 0 1.224.4 1.224 1.4V13H13z" fill="#a04898"/></g></svg>