<svg ti:v="1" width="16" height="16" viewBox="0 0 16 16" xmlns="http://www.w3.org/2000/svg" xmlns:ti="urn:schemas-jetbrains-com:tisvg"><rect id="frame" width="16" height="16" fill="none"/><linearGradient id="a" x1=".5" y1=".003" x2=".5" y2="1.003"><stop offset="0" stop-color="#7C6E48"/><stop offset="1" stop-color="#60492F"/></linearGradient><path fill-rule="evenodd" d="M2 15V1h7.414L14 5.586V15H2z" fill="url(#a)"/><linearGradient id="b" x1=".5" y1=".004" x2=".5" y2="1"><stop offset="0" stop-color="#E2D8BC"/><stop offset="1" stop-color="#E2CDB3"/></linearGradient><path fill-rule="evenodd" d="M9 2H3v12h10V6L9 2z" fill="url(#b)"/><linearGradient id="c" x1=".5" y1=".012" x2=".5" y2="1.006"><stop offset="0" stop-color="#FFF2D4"/><stop offset="1" stop-color="#FFF"/></linearGradient><path fill-rule="evenodd" d="M9 6V4H5v8h6V6H9z" fill="url(#c)"/><linearGradient id="d" x1=".5" y1="-.005" x2=".5" y2="1.025"><stop offset="0" stop-color="#A01A93"/><stop offset="1" stop-color="#6B0160"/></linearGradient><path fill-rule="evenodd" d="M2 15v-2H0V9h2V7h4v2h1v4H6v2H2z" fill="url(#d)"/><linearGradient id="e" x1=".5" y1=".013" x2=".5" y2="1.027"><stop offset="0" stop-color="#FFBCF7"/><stop offset="1" stop-color="#FF93F4"/></linearGradient><path fill-rule="evenodd" d="M7 10H5V8H3v2H1v2h2v2h2v-2h2v-2z" fill="url(#e)"/><linearGradient id="f" x1=".5" y1="-.005" x2=".5" y2="1.025"><stop offset="0" stop-color="#A01A93"/><stop offset="1" stop-color="#6B0160"/></linearGradient><path fill-rule="evenodd" d="M8 16v-2H6v-4h2V8h4v2h2v4h-2v2H8z" fill="url(#f)"/><linearGradient id="g" x1=".5" y1=".013" x2=".5" y2="1.027"><stop offset="0" stop-color="#FFBCF7"/><stop offset="1" stop-color="#FF93F4"/></linearGradient><path fill-rule="evenodd" d="M13 11h-2V9H9v2H7v2h2v2h2v-2h2v-2z" fill="url(#g)"/></svg>