<svg ti:v="1" width="16" height="16" viewBox="0 0 16 16" xmlns="http://www.w3.org/2000/svg" xmlns:ti="urn:schemas-jetbrains-com:tisvg"><rect id="frame" width="16" height="16" fill="none"/><g fill-rule="evenodd"><path d="M2 15V1h7.414L14 5.586V15H2z" fill="#F4F4F4"/><path d="M9 2H3v12h10V6L9 2z" fill="#313131"/><path d="M9 6V4H5v8h6V6H9z" fill="#EBEBEB"/><path d="M2 15v-2H0V9h2V7h4v2h1v4H6v2H2z" fill="#F4F4F4"/><path d="M7 10H5V8H3v2H1v2h2v2h2v-2h2v-2z" fill="#A04897"/><path d="M8 16v-2H6v-4h2V8h4v2h2v4h-2v2H8z" fill="#F4F4F4"/><path d="M13 11h-2V9H9v2H7v2h2v2h2v-2h2v-2z" fill="#A04897"/></g></svg>