<svg ti:v="1" width="16" height="16" viewBox="0 0 16 16" xmlns="http://www.w3.org/2000/svg" xmlns:ti="urn:schemas-jetbrains-com:tisvg"><rect id="frame" width="16" height="16" fill="none"/><linearGradient id="a" x1=".5" y1="-2" x2=".5" y2="1"><stop offset="0" stop-color="#935900"/><stop offset="1" stop-color="#4F0000"/></linearGradient><path fill-rule="evenodd" d="M12 5H5V2h7v3z" fill="url(#a)"/><linearGradient id="b" x1=".5" y1="-.4" x2=".5" y2="1"><stop offset="0" stop-color="#590A99"/><stop offset="1" stop-color="#2A0049"/></linearGradient><path fill-rule="evenodd" d="M14 13H3V5h11v8z" fill="url(#b)"/><linearGradient id="c" x1=".5" y1="0" x2=".5" y2=".993"><stop offset="0" stop-color="#EDC45E"/><stop offset="1" stop-color="#BC8760"/></linearGradient><path fill-rule="evenodd" d="M11 3v2h-1V4H7v1H6V3h5z" fill="url(#c)"/><linearGradient id="d" x1=".5" y1="0" x2=".5" y2=".993"><stop offset="0" stop-color="#EDA5FF"/><stop offset="1" stop-color="#AF46FF"/></linearGradient><path fill-rule="evenodd" d="M11 9H6L4 7.5V12h9V7.5L11 9z" fill="url(#d)"/><linearGradient id="e" x1=".5" y1="0" x2=".5" y2=".993"><stop offset="0" stop-color="#DDB3FF"/><stop offset="1" stop-color="#DD75FF"/></linearGradient><path fill-rule="evenodd" d="M4 6l2.5 2h4L13 6H4z" fill="url(#e)"/><path fill-rule="evenodd" d="M8 10h1.001V8H8v2z" fill="#FFF200"/></svg>