<svg ti:v="1" width="16" height="16" viewBox="0 0 16 16" xmlns="http://www.w3.org/2000/svg" xmlns:ti="urn:schemas-jetbrains-com:tisvg"><rect id="frame" width="16" height="16" fill="none"/><g fill-rule="evenodd"><path d="M1 4v2H0v3h1v2h6V4H1z" fill="#F4F4F4"/><path d="M5 9H2v1h3m0-5H2v1h3M4 8H1V7h3v1z" fill="#313131"/><path d="M5 10.25V4.751L10 2l5 2.751v5.499L10 13l-5-2.75z" fill="#F4F4F4"/><path d="M6 5.801v3.858l4 2.2V8L6 5.801z" fill="#642D8C"/><path d="M14 5.801L10 8v3.859l4-2.2V5.801z" fill="#642D8C"/><path d="M13.379 5l-3.38 1.858L6.622 5 6 5.342v.459L10 8l4-2.199v-.459L13.379 5z" fill="#EBEBEB"/><path d="M10 6.858L13.379 5 10 3.141 6.621 5 10 6.858z" fill="#642D8C"/></g></svg>