<svg ti:v="1" width="16" height="16" viewBox="0 0 16 16" xmlns="http://www.w3.org/2000/svg" xmlns:ti="urn:schemas-jetbrains-com:tisvg"><rect id="frame" width="16" height="16" fill="none"/><g fill-rule="evenodd"><path d="M1 4v2H0v3h1v2h4V4H1z" fill="#F4F4F4"/><path d="M5 9H2v1h3m0-5H2v1h3M4 8H1V7h3v1z" fill="#313131"/><path d="M4 5v6l4 2h2l6-3V4l-4-2h-2L4 5z" fill="#F4F4F4"/><path d="M5 6v4l4 2V8L5 6z" fill="#01509E"/><path d="M15 5L9 8v4l6-3V5z" fill="#01509E"/><path d="M5 6l4 2 6-3-4-2-6 3z" fill="#01509E"/><path d="M9 7L7 6l4-2 2 1-4 2z" fill="#EBEBEB"/></g></svg>