<svg ti:v="1" width="16" height="16" viewBox="0 0 16 16" xmlns="http://www.w3.org/2000/svg" xmlns:ti="urn:schemas-jetbrains-com:tisvg"><rect id="frame" width="16" height="16" fill="none"/><linearGradient id="a" x1="0" y1=".5" x2="1" y2=".5"><stop offset="0" stop-color="#BA7800"/><stop offset="1" stop-color="#C69900"/></linearGradient><path fill-rule="evenodd" d="M1 4v2H0v3h1v2h4V4H1z" fill="url(#a)"/><path fill-rule="evenodd" d="M5 9H2v1h3m0-5H2v1h3M4 8H1V7h3v1z" fill="#FEFFA8"/><linearGradient id="b" x1=".5" y1="0" x2=".5" y2="1"><stop offset="0" stop-color="#005B93"/><stop offset="1" stop-color="#00134F"/></linearGradient><path fill-rule="evenodd" d="M4 5v6l4 2h2l6-3V4l-4-2h-2L4 5z" fill="url(#b)"/><linearGradient id="c" x1="0" y1=".5" x2=".993" y2=".5"><stop offset="0" stop-color="#33D5FF"/><stop offset="1" stop-color="#009CFF"/></linearGradient><path fill-rule="evenodd" d="M5 6v4l4 2V8L5 6z" fill="url(#c)"/><linearGradient id="d" x1="-.005" y1=".5" x2="1" y2=".5"><stop offset="0" stop-color="#89D7FF"/><stop offset="1" stop-color="#00ACEA"/></linearGradient><path fill-rule="evenodd" d="M15 5L9 8v4l6-3V5z" fill="url(#d)"/><linearGradient id="e" x1="0" y1=".5" x2="1" y2=".5"><stop offset="0" stop-color="#DFF2FF"/><stop offset="1" stop-color="#F9FBFF"/></linearGradient><path fill-rule="evenodd" d="M5 6l4 2 6-3-4-2-6 3z" fill="url(#e)"/><linearGradient id="f" x1="0" y1=".5" x2="1" y2=".5"><stop offset="0" stop-color="#006293"/><stop offset="1" stop-color="#00214F"/></linearGradient><path fill-rule="evenodd" d="M9 7L7 6l4-2 2 1-4 2z" fill="url(#f)"/></svg>