<svg ti:v="1" width="16" height="16" viewBox="0 0 16 16" xmlns="http://www.w3.org/2000/svg" xmlns:ti="urn:schemas-jetbrains-com:tisvg"><rect id="frame" width="16" height="16" fill="none"/><g fill-rule="evenodd"><path d="M9 10c-1.103 0-2-.897-2-2V5c0-1.103.897-2 2-2h4c1.103 0 2 .897 2 2v3c0 1.103-.897 2-2 2H9z" fill="#F4F4F4"/><path d="M13 9H9a1 1 0 0 1-1-1V5a1 1 0 0 1 1-1h4a1 1 0 0 1 1 1v3a1 1 0 0 1-1 1z" fill="#C6771A"/><path d="M13 7H9v1h4m0-2H9V5h4v1z" fill="#EBEBEB"/><path d="M10 13H2V6h8v7z" fill="#F4F4F4"/><path d="M9 12H3V7h6v5z" fill="#C6771A"/><path d="M8 10H4V9h4v1z" fill="#EBEBEB"/></g></svg>