<svg ti:v="1" width="16" height="16" viewBox="0 0 16 16" xmlns="http://www.w3.org/2000/svg" xmlns:ti="urn:schemas-jetbrains-com:tisvg"><rect id="frame" width="16" height="16" fill="none"/><linearGradient id="a" x1=".5" y1="0" x2=".5" y2="1"><stop offset="0" stop-color="#805E00"/><stop offset="1" stop-color="#4D2800"/></linearGradient><path fill-rule="evenodd" d="M9 3c-1.102 0-2 .898-2 2v3c0 1.102.898 2 2 2h4c1.103 0 2-.898 2-2V5c0-1.102-.897-2-2-2H9z" fill="url(#a)"/><linearGradient id="b" x1=".5" y1="0" x2=".5" y2="1"><stop offset="0" stop-color="#F6EDA5"/><stop offset="1" stop-color="#DFB644"/></linearGradient><path fill-rule="evenodd" d="M9 4a1 1 0 0 0-1 1v3a1 1 0 0 0 1 1h4a1 1 0 0 0 1-1V5a1 1 0 0 0-1-1H9z" fill="url(#b)"/><linearGradient id="c" x1="0" y1=".5" x2="1" y2=".5"><stop offset="0" stop-color="#5789D8"/><stop offset="1" stop-color="#335B95"/></linearGradient><path fill-rule="evenodd" d="M9 6h4V5H9m0 3h4V7H9v1z" fill="url(#c)"/><linearGradient id="d" x1=".5" y1="0" x2=".5" y2="1"><stop offset="0" stop-color="#005B93"/><stop offset="1" stop-color="#00144F"/></linearGradient><path fill-rule="evenodd" d="M2 13h8V6H2v7z" fill="url(#d)"/><linearGradient id="e" x1=".5" y1="-.005" x2=".5" y2="1"><stop offset="0" stop-color="#89D8FF"/><stop offset="1" stop-color="#00ACEB"/></linearGradient><path fill-rule="evenodd" d="M3 12h6V7H3v5z" fill="url(#e)"/><path fill-rule="evenodd" d="M8 10H4V9h4v1z" fill="#FFF"/></svg>