<svg ti:v="1" width="16" height="16" viewBox="0 0 16 16" xmlns="http://www.w3.org/2000/svg" xmlns:ti="urn:schemas-jetbrains-com:tisvg"><rect id="frame" width="16" height="16" fill="none"/><g fill-rule="evenodd"><path d="M1 12.25V6.751L6 4l5 2.751v5.499L6 15l-5-2.75z" fill="#F4F4F4"/><path d="M2 7.8v3.859l4 2.2v-3.86L2 7.802z" fill="#313131"/><path d="M10 7.8L6 10v3.859l4-2.2V7.8z" fill="#313131"/><path d="M9.379 7l-3.38 1.858L2.622 7 2 7.342v.459L6 10l4-2.199v-.459L9.379 7z" fill="#EBEBEB"/><path d="M6 8.858L9.379 7 6 5.141l-3.379 1.86L6 8.857z" fill="#313131"/><path d="M11.586 11L8 7.414V3.382l2 1V0h4v4.382l2-1v4.032L12.414 11h-.828z" fill="#F4F4F4"/><path d="M13 6V3h-2v3L9 5v2l3 3 3-3V5m-2-3h-2V1h2v1z" fill="#00529C"/></g></svg>