<svg ti:v="1" width="16" height="16" viewBox="0 0 16 16" xmlns="http://www.w3.org/2000/svg" xmlns:ti="urn:schemas-jetbrains-com:tisvg"><rect id="frame" width="16" height="16" fill="none"/><linearGradient id="a" x1=".5" y1="0" x2=".5" y2="1"><stop offset="0" stop-color="#935900"/><stop offset="1" stop-color="#4F0000"/></linearGradient><path fill-rule="evenodd" d="M6.809 2h.457L15 6.42v5.257L9.191 14h-.457L1 9.58V4.323L6.809 2z" fill="url(#a)"/><linearGradient id="b" x1="-.005" y1=".5" x2="1" y2=".5"><stop offset="0" stop-color="#EDAA00"/><stop offset="1" stop-color="#D85900"/></linearGradient><path fill-rule="evenodd" d="M14 7v4l-5 2V9l5-2z" fill="url(#b)"/><path fill-rule="evenodd" d="M10 9.677l3-1.2V10l-3 1.2V9.677z" fill="#002ADF"/><linearGradient id="c" x1="0" y1=".5" x2=".993" y2=".5"><stop offset="0" stop-color="#EDAA00"/><stop offset="1" stop-color="#D85900"/></linearGradient><path fill-rule="evenodd" d="M2 5l7 4v4L2 9V5z" fill="url(#c)"/><linearGradient id="d" x1="0" y1=".5" x2="1" y2=".5"><stop offset="0" stop-color="#FFEDC1"/><stop offset="1" stop-color="#FFB887"/></linearGradient><path fill-rule="evenodd" d="M14 7L9 9 2 5l5-2 7 4z" fill="url(#d)"/><linearGradient id="e" x1="0" y1=".5" x2="1" y2=".5"><stop offset="0" stop-color="#935900"/><stop offset="1" stop-color="#4F0000"/></linearGradient><path fill-rule="evenodd" d="M11.706 6.841L6.923 4.107 4.294 5.159l4.783 2.734 2.629-1.052z" fill="url(#e)"/><linearGradient id="f" x1=".5" y1=".014" x2=".5" y2="1"><stop offset="0" stop-color="#2164A5"/><stop offset="1" stop-color="#0E365D"/></linearGradient><path fill-rule="evenodd" d="M0 11.5C0 13.984 2.016 16 4.5 16S9 13.984 9 11.5a4.501 4.501 0 0 0-9 0z" fill="url(#f)"/><linearGradient id="g" x1=".5" y1=".004" x2=".5" y2="1.004"><stop offset="0" stop-color="#56BFFF"/><stop offset="1" stop-color="#009EFF"/></linearGradient><path fill-rule="evenodd" d="M1 11.5C1 13.434 2.566 15 4.5 15S8 13.434 8 11.5a3.5 3.5 0 1 0-7 0z" fill="url(#g)"/><linearGradient id="h" x1=".5" y1="-.002" x2=".5" y2="1.004"><stop offset="0" stop-color="#F4FFF7"/><stop offset="1" stop-color="#B5FFFD"/></linearGradient><path fill-rule="evenodd" d="M4 9.051V10h1v-.949a2.43 2.43 0 0 0-1 0zM6 10h.488A2.512 2.512 0 0 0 6 9.511M2.511 10H3v-.489a2.574 2.574 0 0 0-.489.489zM6 11v1h.949a2.423 2.423 0 0 0 0-1M4 12h1v-1H4m-1.949 0a2.423 2.423 0 0 0 0 1H3v-1m3 2v.488c.185-.139.349-.302.488-.488M4 13v.949a2.423 2.423 0 0 0 1 0V13m-2.489 0c.141.186.304.349.489.488V13h-.489z" fill="url(#h)"/></svg>