<svg ti:v="1" width="16" height="16" viewBox="0 0 16 16" xmlns="http://www.w3.org/2000/svg" xmlns:ti="urn:schemas-jetbrains-com:tisvg"><rect id="frame" width="16" height="16" fill="none"/><g fill-rule="evenodd"><path d="M6.809 2h.457L15 6.42v5.257L9.192 14h-.457L1 9.58V4.323L6.809 2z" fill="#242424"/><path d="M14 7v4l-5 2V9l5-2z" fill="#75BCFF"/><path d="M10 9.677l3-1.2V10l-3 1.2V9.677z" fill="#282828"/><path d="M2 5l7 4v4L2 9V5z" fill="#75BCFF"/><path d="M14 7L9 9 2 5l5-2 7 4z" fill="#75BCFF"/><path d="M11.706 6.841L6.923 4.108 4.294 5.159l4.783 2.734 2.63-1.052z" fill="#282828"/><path d="M9 11.5C9 13.984 6.984 16 4.5 16A4.502 4.502 0 0 1 0 11.5C0 9.016 2.016 7 4.5 7S9 9.016 9 11.5z" fill="#242424"/><path d="M4.5 8a3.5 3.5 0 1 0 0 7 3.5 3.5 0 1 0 0-7z" fill="#C3C3C3"/><path d="M3 13.488V13h-.488c.139.185.302.348.488.488zm0-3.977c-.186.14-.349.303-.488.489H3m2 3.949V13H4v.949a2.494 2.494 0 0 0 1 0zM6.488 13H6v.488c.186-.14.349-.303.488-.488zM4 12h1v-1H4m-1 0h-.949a2.494 2.494 0 0 0 0 1H3m2-2.949a2.423 2.423 0 0 0-1 0V10h1m1-.489V10h.488A2.431 2.431 0 0 0 6 9.511zM6 11h.949a2.494 2.494 0 0 1 0 1H6v-1z" fill="#313131"/></g></svg>