<svg ti:v="1" width="16" height="16" viewBox="0 0 16 16" xmlns="http://www.w3.org/2000/svg" xmlns:ti="urn:schemas-jetbrains-com:tisvg"><rect id="frame" width="16" height="16" fill="none"/><linearGradient id="a" x1=".5" y1="0" x2=".5" y2="1"><stop offset="0" stop-color="purple"/><stop offset="1" stop-color="#5B005B"/></linearGradient><path fill-rule="evenodd" d="M2 4.16v6.681L7.742 14h.516L14 10.841V4.16L8.258 1h-.516L2 4.16z" fill="url(#a)"/><linearGradient id="b" x1=".028" y1=".5" x2="1.015" y2=".5"><stop offset="0" stop-color="#FD59FF"/><stop offset="1" stop-color="#FF9CFF"/></linearGradient><path fill-rule="evenodd" d="M3 5.25v5L8 13V8L3 5.25z" fill="url(#b)"/><linearGradient id="c" x1=".028" y1=".5" x2="1.015" y2=".5"><stop offset="0" stop-color="#FD33FF"/><stop offset="1" stop-color="#FFA3FF"/></linearGradient><path fill-rule="evenodd" d="M13 5.25L8 8v5l5-2.75v-5z" fill="url(#c)"/><path fill-rule="evenodd" d="M12.545 4.5L8 7 3.455 4.5 3 4.751v.499L8 8l5-2.75v-.499l-.455-.251z" fill="#FFF"/><linearGradient id="d" x1=".5" y1=".028" x2=".5" y2="1.015"><stop offset="0" stop-color="#FD54FF"/><stop offset="1" stop-color="#FFBFFF"/></linearGradient><path fill-rule="evenodd" d="M8 7l4.545-2.5L8 2 3.455 4.5 8 7z" fill="url(#d)"/><linearGradient id="e" x1=".5" y1=".014" x2=".5" y2="1"><stop offset="0" stop-color="#2164A5"/><stop offset="1" stop-color="#0E365D"/></linearGradient><path fill-rule="evenodd" d="M0 11.5C0 13.984 2.016 16 4.5 16S9 13.984 9 11.5 6.984 7 4.5 7A4.502 4.502 0 0 0 0 11.5z" fill="url(#e)"/><linearGradient id="f" x1=".5" y1=".004" x2=".5" y2="1.004"><stop offset="0" stop-color="#56BFFF"/><stop offset="1" stop-color="#009EFF"/></linearGradient><path fill-rule="evenodd" d="M1 11.5C1 13.434 2.566 15 4.5 15S8 13.434 8 11.5a3.5 3.5 0 1 0-7 0z" fill="url(#f)"/><linearGradient id="g" x1=".5" y1="-.002" x2=".5" y2="1.004"><stop offset="0" stop-color="#F4FFF7"/><stop offset="1" stop-color="#B5FFFD"/></linearGradient><path fill-rule="evenodd" d="M4 9.051V10h1v-.949a2.43 2.43 0 0 0-1 0zM6 10h.488A2.512 2.512 0 0 0 6 9.511M2.511 10H3v-.489a2.574 2.574 0 0 0-.489.489zM6 11v1h.949a2.423 2.423 0 0 0 0-1M4 12h1v-1H4m-1.949 0a2.423 2.423 0 0 0 0 1H3v-1m3 2v.488c.185-.139.349-.303.488-.488M4 13v.949a2.423 2.423 0 0 0 1 0V13m-2.489 0c.141.185.304.349.489.488V13h-.489z" fill="url(#g)"/></svg>