<svg ti:v="1" width="16" height="16" viewBox="0 0 16 16" xmlns="http://www.w3.org/2000/svg" xmlns:ti="urn:schemas-jetbrains-com:tisvg"><rect id="frame" width="16" height="16" fill="none"/><g fill-rule="evenodd"><path d="M15 7.5a4.5 4.5 0 1 1-9 0 4.5 4.5 0 0 1 9 0z" fill="#F4F4F4"/><path d="M14 7.5A3.5 3.5 0 1 1 10.5 4 3.5 3.5 0 0 1 14 7.5z" fill="#01509E"/><path d="M12 7.5a1.5 1.5 0 1 1-3.001-.001A1.5 1.5 0 0 1 12 7.5z" fill="#EBEBEB"/><path d="M7 6H4.488A2.486 2.486 0 0 0 2.5 5a2.5 2.5 0 1 0 0 5c.815 0 1.532-.396 1.988-1H7V6z" fill="#F4F4F4"/><path d="M7 7H3.908A1.496 1.496 0 0 0 1 7.5a1.496 1.496 0 1 0 2.908.5H7V7z" fill="#01509E"/></g></svg>