<svg ti:v="1" width="16" height="16" viewBox="0 0 16 16" xmlns="http://www.w3.org/2000/svg" xmlns:ti="urn:schemas-jetbrains-com:tisvg"><rect id="frame" width="16" height="16" fill="none"/><linearGradient id="a" x1=".5" y1=".019" x2=".5" y2="1.02"><stop offset="0" stop-color="#566980"/><stop offset="1" stop-color="#2D3642"/></linearGradient><path fill-rule="evenodd" d="M6 7.5a4.5 4.5 0 0 0 4.5 4.5 4.5 4.5 0 1 0 0-9A4.5 4.5 0 0 0 6 7.5z" fill="url(#a)"/><linearGradient id="b" x1=".5" y1=".01" x2=".5" y2="1.001"><stop offset="0" stop-color="#FFF"/><stop offset="1" stop-color="#A7BADB"/></linearGradient><path fill-rule="evenodd" d="M7 7.5a3.5 3.5 0 0 0 3.5 3.5 3.5 3.5 0 1 0 0-7A3.5 3.5 0 0 0 7 7.5z" fill="url(#b)"/><linearGradient id="c" x1=".5" y1="0" x2=".5" y2="1"><stop offset="0" stop-color="#00214F"/><stop offset="1" stop-color="#006293"/></linearGradient><path fill-rule="evenodd" d="M9 7.5a1.5 1.5 0 0 0 3 0 1.5 1.5 0 0 0-3 0z" fill="url(#c)"/><linearGradient id="d" x1=".5" y1=".019" x2=".5" y2="1.02"><stop offset="0" stop-color="#5672A1"/><stop offset="1" stop-color="#415980"/></linearGradient><path fill-rule="evenodd" d="M0 7.5A2.5 2.5 0 0 0 2.5 10a2.49 2.49 0 0 0 1.989-1H7V6H4.489A2.49 2.49 0 0 0 2.5 5 2.5 2.5 0 0 0 0 7.5z" fill="url(#d)"/><path fill-rule="evenodd" d="M7 7H3.908A1.496 1.496 0 0 0 1 7.5a1.496 1.496 0 1 0 2.908.5H7V7z" fill="#7ED5FF"/></svg>