<svg ti:v="1" width="16" height="16" viewBox="0 0 16 16" xmlns="http://www.w3.org/2000/svg" xmlns:ti="urn:schemas-jetbrains-com:tisvg"><rect id="frame" width="16" height="16" fill="none"/><linearGradient id="a" x1=".5" y1="0" x2=".5" y2="1"><stop offset="0" stop-color="#B87700"/><stop offset="1" stop-color="#6E2A00"/></linearGradient><path fill-rule="evenodd" d="M0 8a8 8 0 0 0 16 0A8 8 0 0 0 0 8z" fill="url(#a)"/><linearGradient id="b" x1=".5" y1="0" x2=".5" y2="1"><stop offset="0" stop-color="#FDFFF2"/><stop offset="1" stop-color="#E8A300"/></linearGradient><path fill-rule="evenodd" d="M1 8a7 7 0 0 0 14 0 7 7 0 0 0-7-7C4.135 1 1 4.135 1 8z" fill="url(#b)"/><path fill-rule="evenodd" d="M11 5a2.996 2.996 0 0 0-2.815 2H2v2h1v2h1V9h1v2h1V9h2.185A2.996 2.996 0 0 0 11 11c1.654 0 3-1.346 3-3s-1.346-3-3-3z" fill="#6E4623"/><path fill-rule="evenodd" d="M12 8a1 1 0 1 0-2 0 1 1 0 0 0 2 0z" fill="#FCF6D9"/></svg>