<svg ti:v="1" width="16" height="16" viewBox="0 0 16 16" xmlns="http://www.w3.org/2000/svg" xmlns:ti="urn:schemas-jetbrains-com:tisvg"><rect id="frame" width="16" height="16" fill="none"/><linearGradient id="a" x1=".5" y1="0" x2=".5" y2="1"><stop offset="0" stop-color="#3F5680"/><stop offset="1" stop-color="#102642"/></linearGradient><path fill-rule="evenodd" d="M5 3C3.346 3 2 4.345 2 6v4c0 1.654 1.346 3 3 3h6c1.654 0 3-1.346 3-3V6c0-1.655-1.346-3-3-3H5z" fill="url(#a)"/><linearGradient id="b" x1=".5" y1="0" x2=".5" y2="1"><stop offset="0" stop-color="#DFF6FF"/><stop offset="1" stop-color="#9CBFFF"/></linearGradient><path fill-rule="evenodd" d="M5 4a2 2 0 0 0-2 2v4a2 2 0 0 0 2 2h6a2 2 0 0 0 2-2V6a2 2 0 0 0-2-2H5z" fill="url(#b)"/><linearGradient id="c" x1="0" y1=".5" x2="1" y2=".5"><stop offset="0" stop-color="#3F5680"/><stop offset="1" stop-color="#102642"/></linearGradient><path fill-rule="evenodd" d="M5 7h6V6H5m0 4h6V9H5v1z" fill="url(#c)"/><linearGradient id="d" x1=".5" y1="0" x2=".5" y2="1"><stop offset="0" stop-color="#BA6008"/><stop offset="1" stop-color="#702F00"/></linearGradient><path fill-rule="evenodd" d="M9 8.5c0 .465.09.918.271 1.348l.068-.029c.234.706.86 2.101 2.249 5.193l.444.988h.937l2.764-6.158A3.504 3.504 0 0 0 12.5 5C10.57 5 9 6.57 9 8.5z" fill="url(#d)"/><linearGradient id="e" x1=".5" y1="0" x2=".5" y2="1"><stop offset="0" stop-color="#FFF6E6"/><stop offset="1" stop-color="#F2B323"/></linearGradient><path fill-rule="evenodd" d="M10 8.5c0 .341.07.665.194.961l2.306 5.141 2.309-5.141A2.5 2.5 0 0 0 12.5 6 2.5 2.5 0 0 0 10 8.5z" fill="url(#e)"/><linearGradient id="f" x1=".5" y1="0" x2=".5" y2="1"><stop offset="0" stop-color="#702F00"/><stop offset="1" stop-color="#BA6008"/></linearGradient><path fill-rule="evenodd" d="M11 8.5a1.5 1.5 0 1 0 3 0 1.5 1.5 0 0 0-3 0z" fill="url(#f)"/></svg>