<svg ti:v="1" width="16" height="16" viewBox="0 0 16 16" xmlns="http://www.w3.org/2000/svg" xmlns:ti="urn:schemas-jetbrains-com:tisvg"><rect id="frame" width="16" height="16" fill="none"/><g fill-rule="evenodd"><path d="M13 5h-1.373L12 3.137V2H6.188l-.6 3h-1.5L3 10.435V11h1.386L4 12.921V14h5.823l.603-3h1.5L13 5.634V5z" fill="#F4F4F4"/><path d="M8.807 9h-2l.4-2h2m2.5 0l.2-1h-1.5l.6-3h-1l-.6 3h-2l.6-3h-1l-.6 3h-1.5l-.2 1h1.5l-.4 2h-1.5l-.2 1h1.5l-.603 3h1l.603-3h2l-.603 3h1l.603-3h1.5l.2-1h-1.5l.4-2h1.5z" fill="#313131"/></g></svg>