<svg ti:v="1" width="16" height="16" viewBox="0 0 16 16" xmlns="http://www.w3.org/2000/svg" xmlns:ti="urn:schemas-jetbrains-com:tisvg"><rect id="frame" width="16" height="16" fill="none"/><linearGradient id="a" x1=".5" y1=".016" x2=".5" y2="1.006"><stop offset="0" stop-color="#776004"/><stop offset="1" stop-color="#443400"/></linearGradient><path fill-rule="evenodd" d="M7 16H0v-6h7v6z" fill="url(#a)"/><linearGradient id="b" x1="0" y1=".5" x2="1" y2=".5"><stop offset="0" stop-color="#D6B672"/><stop offset=".319" stop-color="#FDD89C"/><stop offset="1" stop-color="#C36D2A"/></linearGradient><path fill-rule="evenodd" d="M6 15H1v-4h5v4z" fill="url(#b)"/><path fill-rule="evenodd" d="M3 14h1v-2H3v2z"/><linearGradient id="c" x1="0" y1=".5" x2="1" y2=".5"><stop offset="0" stop-color="#939597"/><stop offset="1" stop-color="#57595B"/></linearGradient><path fill-rule="evenodd" d="M3 6a2 2 0 0 0-2 2v2h5V8a2 2 0 0 0-2-2H3z" fill="url(#c)"/><path fill-rule="evenodd" d="M4 7H3L2 8v2h1V8h1v2h1V8L4 7z" fill="#FFF"/></svg>