<svg ti:v="1" width="16" height="16" viewBox="0 0 16 16" xmlns="http://www.w3.org/2000/svg" xmlns:ti="urn:schemas-jetbrains-com:tisvg"><rect id="frame" width="16" height="16" fill="none"/><g fill-rule="evenodd"><path d="M2 16v-4.287C.804 11.228 0 10.181 0 9c0-1.654 1.57-3 3.5-3S7 7.346 7 9c0 1.181-.804 2.228-2 2.713V12h1v2.414L4.414 16H2z" fill="#242424"/><path d="M6 9c0-1.104-1.119-2-2.5-2S1 7.896 1 9c0 .968.859 1.774 2 1.96V15h1l1-1v-1H4v-2.04c1.141-.186 2-.992 2-1.96z" fill="#C3C3C3"/><path d="M5 9c0 .553-.672 1-1.5 1S2 9.553 2 9c0-.553.672-1 1.5-1S5 8.447 5 9z" fill="#282828"/></g></svg>