<svg ti:v="1" width="16" height="16" viewBox="0 0 16 16" xmlns="http://www.w3.org/2000/svg" xmlns:ti="urn:schemas-jetbrains-com:tisvg"><rect id="frame" width="16" height="16" fill="none"/><linearGradient id="a" x1=".5" y1="0" x2=".5" y2="1"><stop offset="0" stop-color="#FBFDFF"/><stop offset="1" stop-color="#D6E1EB"/></linearGradient><path fill-rule="evenodd" d="M15 15H1V1h14v14z" fill="url(#a)"/><path fill-rule="evenodd" d="M10.683 6.915l-.866-.5 2.5-4.33.866.5-2.5 4.33z" fill="#313131"/><path fill-rule="evenodd" d="M13.916 12.317l-1.417-.817 1.415-.818-.5-.866-1.414.816V9h-1v1.633l-1.414-.816-.5.866 1.413.817-1.415.816.5.866L11 12.365V14h1v-1.634l1.416.817.5-.866z" fill="#313131"/><path fill-rule="evenodd" d="M7 4H5V2H4v2H2v1h2v2h1V5h2V4z" fill="#313131"/><path fill-rule="evenodd" d="M2 12h4.999v-1H2v1z" fill="#313131"/></svg>