<svg ti:v="1" width="16" height="16" viewBox="0 0 16 16" xmlns="http://www.w3.org/2000/svg" xmlns:ti="urn:schemas-jetbrains-com:tisvg"><rect id="frame" width="16" height="16" fill="none"/><g fill-rule="evenodd"><path d="M2.37 14l-.3-.339C1.126 12.588 0 10.647 0 7.5c0-3.151 1.127-5.09 2.072-6.161l.3-.339h2.541l-.642 1.413c-.474 1.047-1.27 3.108-1.27 5.155 0 1.492.415 3.132 1.27 5.019L4.913 14m6.174 0l.641-1.413C12.584 10.7 13 9.065 13 7.588c0-2.064-.797-4.128-1.272-5.175L11.088 1h2.541l.3.339C14.872 2.41 16 4.349 16 7.5c0 3.147-1.126 5.088-2.07 6.161l-.299.339h-2.544z" fill="#242424"/><path d="M13.179 13c.84-.954 1.82-2.67 1.82-5.5s-.98-4.547-1.821-5.5h-.54C13.32 3.5 14 5.588 14 7.588S13.32 11.5 12.639 13m-9.817 0C1.982 12.046 1 10.33 1 7.5S1.982 2.953 2.823 2h.539C2.68 3.5 2 5.568 2 7.568c0 2 .68 3.932 1.362 5.432h-.54z" fill="#C3C3C3"/><path d="M7.766 12L12 9.58V5.934L8.776 4h-.541L4 6.42v3.646L7.225 12h.54z" fill="#242424"/><path d="M8.5 5L5 7v2.5L7.5 11 11 9V6.5L8.5 5z" fill="#C3C3C3"/><path d="M6 7l1.5 1L10 6.5l-1.5-1L6 7z" fill="#282828"/></g></svg>