<svg ti:v="1" width="16" height="16" viewBox="0 0 16 16" xmlns="http://www.w3.org/2000/svg" xmlns:ti="urn:schemas-jetbrains-com:tisvg"><rect id="frame" width="16" height="16" fill="none"/><linearGradient id="a" x1=".5" y1=".012" x2=".5" y2=".998"><stop offset="0" stop-color="#006E08"/><stop offset="1" stop-color="#004D1D"/></linearGradient><path fill-rule="evenodd" d="M11.087 1l.641 1.413C12.204 3.46 13 5.525 13 7.587c0 1.478-.416 3.114-1.272 5L11.087 14h2.544l.299-.339C14.874 12.588 16 10.647 16 7.5c0-3.152-1.127-5.09-2.072-6.161L13.629 1M2.371 1l-.299.339C1.127 2.41 0 4.348 0 7.5c0 3.147 1.126 5.088 2.07 6.161l.299.339h2.544l-.641-1.413C3.416 10.701 3 9.06 3 7.569c0-2.048.797-4.109 1.272-5.156L4.913 1H2.371z" fill="url(#a)"/><linearGradient id="b" x1=".5" y1=".012" x2=".5" y2=".998"><stop offset="0" stop-color="#C6FFB8"/><stop offset="1" stop-color="#00E82D"/></linearGradient><path fill-rule="evenodd" d="M12.639 2C13.32 3.5 14 5.588 14 7.587c0 2.001-.68 3.913-1.361 5.413h.54c.84-.954 1.821-2.67 1.821-5.5s-.981-4.547-1.823-5.5M2.822 2C1.981 2.953 1 4.67 1 7.5s.981 4.546 1.821 5.5h.54C2.681 11.5 2 9.568 2 7.569 2 5.569 2.681 3.5 3.361 2h-.539z" fill="url(#b)"/><linearGradient id="c" x1=".5" y1="0" x2=".5" y2="1"><stop offset="0" stop-color="#005B93"/><stop offset="1" stop-color="#00144F"/></linearGradient><path fill-rule="evenodd" d="M8.234 4L4 6.42v3.646L7.225 12h.541L12 9.58V5.933L8.775 4h-.541z" fill="url(#c)"/><linearGradient id="d" x1=".5" y1="0" x2=".5" y2=".993"><stop offset="0" stop-color="#D1F6FF"/><stop offset="1" stop-color="#54D1FF"/></linearGradient><path fill-rule="evenodd" d="M5 7v2.5L7.5 11 11 9V6.5L8.5 5 5 7z" fill="url(#d)"/><linearGradient id="e" x1="0" y1=".5" x2="1" y2=".5"><stop offset="0" stop-color="#006293"/><stop offset="1" stop-color="#00214F"/></linearGradient><path fill-rule="evenodd" d="M6 7l1.5 1L10 6.5l-1.5-1L6 7z" fill="url(#e)"/></svg>