<svg ti:v="1" width="16" height="16" viewBox="0 0 16 16" xmlns="http://www.w3.org/2000/svg" xmlns:ti="urn:schemas-jetbrains-com:tisvg"><rect id="frame" width="16" height="16" fill="none"/><linearGradient id="a" x1="0" y1=".5" x2="1" y2=".5"><stop offset="0" stop-color="#939597"/><stop offset="1" stop-color="#57595B"/></linearGradient><path fill-rule="evenodd" d="M3 5v1h4V5a1 1 0 0 1 2 0v1h4V5c0-2.757-2.243-5-5-5S3 2.243 3 5z" fill="url(#a)"/><linearGradient id="b" x1=".5" y1=".016" x2=".5" y2="1.006"><stop offset="0" stop-color="#776004"/><stop offset="1" stop-color="#443400"/></linearGradient><path fill-rule="evenodd" d="M2 15h12.001V6H2v9z" fill="url(#b)"/><linearGradient id="c" x1="0" y1=".5" x2="1" y2=".5"><stop offset="0" stop-color="#D6B672"/><stop offset=".319" stop-color="#FDD89C"/><stop offset="1" stop-color="#C36D2A"/></linearGradient><path fill-rule="evenodd" d="M3 14h10V7H3v7z" fill="url(#c)"/><path fill-rule="evenodd" d="M7 9h2v3H7V9z"/><linearGradient id="d" x1="0" y1=".5" x2="1" y2=".5"><stop offset="0" stop-color="#FFF"/><stop offset="1" stop-color="#D1D3D4"/></linearGradient><path fill-rule="evenodd" d="M4 5v1h2V5a2 2 0 0 1 4 0v1h2V5a4 4 0 0 0-8 0z" fill="url(#d)"/></svg>