<svg ti:v="1" width="16" height="16" viewBox="0 0 16 16" xmlns="http://www.w3.org/2000/svg" xmlns:ti="urn:schemas-jetbrains-com:tisvg"><rect id="frame" width="16" height="16" fill="none"/><linearGradient id="a" x1="0" y1=".5" x2="1" y2=".5"><stop offset="0" stop-color="#5D5E62"/><stop offset="1" stop-color="#282B2D"/></linearGradient><path fill-rule="evenodd" d="M2 15h12V4H2v11z" fill="url(#a)"/><path fill-rule="evenodd" d="M13 4H3v10h10V4z" fill="#FFF"/><linearGradient id="b" x1="0" y1=".5" x2="1" y2=".5"><stop offset="0" stop-color="#F2F9FF"/><stop offset="1" stop-color="#CCEBFF"/></linearGradient><path fill-rule="evenodd" d="M4 13h8V4H4v9z" fill="url(#b)"/><linearGradient id="c" x1="0" y1=".5" x2="1" y2=".5"><stop offset="0" stop-color="#006293"/><stop offset="1" stop-color="#00214F"/></linearGradient><path fill-rule="evenodd" d="M7 10H5v1h2m4-1H8v1h3M7 6H5v1h2m4 0H8V6h3M7 8H5v1h2m4 0H8V8h3v1z" fill="url(#c)"/><linearGradient id="d" x1=".5" y1="0" x2=".5" y2="1"><stop offset="0" stop-color="#003D62"/><stop offset="1" stop-color="#00144F"/></linearGradient><path fill-rule="evenodd" d="M2 1v3h12V1H2z" fill="url(#d)"/><linearGradient id="e" x1="0" y1=".5" x2=".993" y2=".5"><stop offset="0" stop-color="#33D6FF"/><stop offset="1" stop-color="#009CFF"/></linearGradient><path fill-rule="evenodd" d="M3 4h10V2H3v2z" fill="url(#e)"/></svg>