<svg ti:v="1" width="16" height="16" viewBox="0 0 16 16" xmlns="http://www.w3.org/2000/svg" xmlns:ti="urn:schemas-jetbrains-com:tisvg"><rect id="frame" width="16" height="16" fill="none"/><g fill-rule="evenodd"><path d="M2 15h12V4H2v11z" fill="#F4F4F4"/><path d="M13 4H3v10h10V4z" fill="#01509E"/><path d="M4 13h8V4H4v9z" fill="#EBEBEB"/><path d="M7 10H5v1h2m4-1H8v1h3M7 6H5v1h2m4 0H8V6h3M7 8H5v1h2m4 0H8V8h3v1z" fill="#01509E"/><path d="M2 1v3h12V1H2z" fill="#F4F4F4"/><path d="M3 4h10V2H3v2z" fill="#01509E"/></g></svg>