<svg ti:v="1" width="16" height="16" viewBox="0 0 16 16" xmlns="http://www.w3.org/2000/svg" xmlns:ti="urn:schemas-jetbrains-com:tisvg"><rect id="frame" width="16" height="16" fill="none"/><g fill-rule="evenodd"><path d="M0 14h12V3H0v11z" fill="#242424"/><path d="M11 3H1v10h10V3z" fill="#75BCFF"/><path d="M2 12h8V3H2v9z" fill="#282828"/><path d="M5 9H3v1h2m4-1H6v1h3M5 5H3v1h2m4 0H6V5h3M5 7H3v1h2m4 0H6V7h3v1z" fill="#75BCFF"/><path d="M0 0v3h12V0H0z" fill="#242424"/><path d="M1 3h10V1H1v2z" fill="#75BCFF"/><path d="M4 11.586V16h4.414l5.793-5.793-4.414-4.414L4 11.586z" fill="#242424"/><path d="M11.293 4.293l-1.5 1.5 4.414 4.414 1.5-1.5a.999.999 0 0 0 0-1.414l-3-3a.999.999 0 0 0-1.414 0z" fill="#242424"/><path d="M15 8l-1 1-3-3 1-1 3 3z" fill="#C3C3C3"/><path d="M5 15h3l-3-3m5-5l-4 4 3 3 4-4-3-3z" fill="#C3C3C3"/><path d="M10 8l-3 3h1l2-2V8z" fill="#282828"/></g></svg>