<svg ti:v="1" width="16" height="16" viewBox="0 0 16 16" xmlns="http://www.w3.org/2000/svg" xmlns:ti="urn:schemas-jetbrains-com:tisvg"><rect id="frame" width="16" height="16" fill="none"/><linearGradient id="a" x1="0" y1=".5" x2="1" y2=".5"><stop offset="0" stop-color="#6D9C00"/><stop offset="1" stop-color="#046"/></linearGradient><path fill-rule="evenodd" d="M4 5c0 1.474.811 2.75 2 3.443V15h4v-1h2V9h-2v-.557C11.19 7.75 12 6.474 12 5c0-2.206-1.794-4-4-4S4 2.794 4 5z" fill="url(#a)"/><linearGradient id="b" x1=".5" y1="0" x2=".5" y2="1"><stop offset="0" stop-color="#DFFDAC"/><stop offset="1" stop-color="#B1F767"/></linearGradient><path fill-rule="evenodd" d="M5 5c0 1.301.839 2.401 2 2.815V14h2v-1h2v-1H9v-1h2v-1H9V7.815A2.996 2.996 0 0 0 11 5c0-1.654-1.346-3-3-3S5 3.346 5 5z" fill="url(#b)"/><linearGradient id="c" x1="0" y1=".5" x2="1" y2=".5"><stop offset="0" stop-color="#008E9C"/><stop offset="1" stop-color="#046"/></linearGradient><path fill-rule="evenodd" d="M7 5c0 .551.449 1 1 1a1 1 0 0 0 0-2 1 1 0 0 0-1 1z" fill="url(#c)"/></svg>