<svg xmlns="http://www.w3.org/2000/svg" width="16" height="16" viewBox="0 0 16 16"><rect id="frame" width="16" height="16" fill="none"/><path fill="#f4f4f4" d="M2 15V1h7.414L14 5.586V15H2z"/><path fill="#323232" d="M9 2H3v12h10V6L9 2z"/><path fill="#ebebeb" d="M9 6V4H5v8h6V6H9z"/><g><path d="M11 16v-.257A2.088 2.088 0 0 1 10 16H4v-.269A1.984 1.984 0 0 1 3 16H2a1.959 1.959 0 0 1-2-2v-3a1.959 1.959 0 0 1 2-2h1a1.984 1.984 0 0 1 1 .269V9h3v2a1.959 1.959 0 0 1 2-2h5v4h2v3z" fill="#f4f4f4"/><path d="M7.5 14v1H5v-5h1v4zm5.5 0v-4h-1v5h3v-1zm-4-3v1h1a.979.979 0 0 1 1 1v1a.979.979 0 0 1-1 1H8v-1h2v-1H9a.979.979 0 0 1-1-1v-1a.979.979 0 0 1 1-1h2v1zm-5 0a1 1 0 0 0-1-1H2a.979.979 0 0 0-1 1v3a.979.979 0 0 0 1 1h1a1 1 0 0 0 1-1v-1.5H3V14H2v-3z" fill="#c7781a"/></g></svg>