<svg xmlns="http://www.w3.org/2000/svg" width="16" height="16" viewBox="0 0 16 16"><rect id="frame" width="16" height="16" fill="none"/><path fill="#252525" d="M2 15V1h7.414L14 5.586V15H2z"/><path fill="#c4c4c4" d="M9 2H3v12h10V6L9 2z"/><path fill="#292929" d="M9 6V4H5v8h6V6H9z"/><g><path d="M11 16v-.257A2.088 2.088 0 0 1 10 16H0V9h7v2a1.959 1.959 0 0 1 2-2h5v4h2v3z" fill="#252525"/><path d="M4 10v5H3v-2H2v2H1v-5h1v2h1v-2zm2 4v-4H5v5h2.5v-1zm7 0v-4h-1v5h3v-1zm-4-3v1h1a.979.979 0 0 1 1 1v1a.979.979 0 0 1-1 1H8v-1h2v-1H9a.979.979 0 0 1-1-1v-1a.979.979 0 0 1 1-1h2v1z" fill="#e9a755"/></g></svg>