<svg xmlns="http://www.w3.org/2000/svg" xmlns:xlink="http://www.w3.org/1999/xlink" width="16" height="16" viewBox="0 0 16 16"><rect id="frame" width="16" height="16" fill="none"/><defs><linearGradient id="a" x1="8" y1="1.048" x2="8" y2="15.048" gradientUnits="userSpaceOnUse"><stop offset="0" stop-color="#7d6e48"/><stop offset="1" stop-color="#614a30"/></linearGradient><linearGradient id="b" x1="8" y1="2.048" x2="8" y2="14" gradientUnits="userSpaceOnUse"><stop offset="0" stop-color="#e2d7bb"/><stop offset="1" stop-color="#e2ccb2"/></linearGradient><linearGradient id="c" x1="8" y1="4.096" x2="8" y2="12.051" gradientUnits="userSpaceOnUse"><stop offset="0" stop-color="#fff2d3"/><stop offset="1" stop-color="#fff"/></linearGradient><linearGradient id="d" x1="8" y1="9" x2="8" y2="16" gradientUnits="userSpaceOnUse"><stop offset="0" stop-color="#422d00"/><stop offset="1" stop-color="#6e4d00"/></linearGradient><linearGradient id="e" x1="8" y1="10" x2="8" y2="15" gradientUnits="userSpaceOnUse"><stop offset="0" stop-color="#f6df85"/><stop offset="1" stop-color="#ecb62b"/></linearGradient></defs><path fill="url(#a)" d="M2 15V1h7.414L14 5.586V15H2z"/><path fill="url(#b)" d="M9 2H3v12h10V6L9 2z"/><path fill="url(#c)" d="M9 6V4H5v8h6V6H9z"/><g><path d="M11 16v-.257A2.088 2.088 0 0 1 10 16H0V9h7v2a1.959 1.959 0 0 1 2-2h5v4h2v3z" fill="url(#d)"/><path d="M4 10v5H3v-2H2v2H1v-5h1v2h1v-2zm2 4v-4H5v5h2.5v-1zm7 0v-4h-1v5h3v-1zm-4-3v1h1a.979.979 0 0 1 1 1v1a.979.979 0 0 1-1 1H8v-1h2v-1H9a.979.979 0 0 1-1-1v-1a.979.979 0 0 1 1-1h2v1z" fill="url(#e)"/></g></svg>