<svg ti:v="1" width="16" height="16" viewBox="0 0 16 16" xmlns="http://www.w3.org/2000/svg" xmlns:ti="urn:schemas-jetbrains-com:tisvg"><rect id="frame" width="16" height="16" fill="none"/><linearGradient id="a" x1=".5" y1=".002" x2=".5" y2=".998"><stop offset="0" stop-color="#2FA323"/><stop offset="1" stop-color="#0A6600"/></linearGradient><path fill-rule="evenodd" d="M3 8a5 5 0 0 0 5 5V3a5 5 0 0 0-5 5z" fill="url(#a)"/><linearGradient id="b" x1=".5" y1="-.002" x2=".5" y2=".998"><stop offset="0" stop-color="#9C6400"/><stop offset="1" stop-color="#624600"/></linearGradient><path fill-rule="evenodd" d="M8 13A5 5 0 1 0 8 3v10z" fill="url(#b)"/><linearGradient id="c" x1=".5" y1=".025" x2=".5" y2="1"><stop offset="0" stop-color="#DFFFDF"/><stop offset="1" stop-color="#11B811"/></linearGradient><path fill-rule="evenodd" d="M4 8a4 4 0 0 0 4 4V4a4 4 0 0 0-4 4z" fill="url(#c)"/><linearGradient id="d" x1=".5" y1=".025" x2=".5" y2="1"><stop offset="0" stop-color="#FFF2D8"/><stop offset="1" stop-color="#A36221"/></linearGradient><path fill-rule="evenodd" d="M8 12a4 4 0 0 0 0-8v8z" fill="url(#d)"/><linearGradient id="e" x1=".5" y1="0" x2=".5" y2="1.016"><stop offset="0" stop-color="#49FF36"/><stop offset="1" stop-color="#36BA26"/></linearGradient><path fill-rule="evenodd" d="M5 8c0 1.656 1.344 3 3 3V5a3 3 0 0 0-3 3z" fill="url(#e)"/><linearGradient id="f" x1=".5" y1=".031" x2=".5" y2="1.031"><stop offset="0" stop-color="#FFB600"/><stop offset="1" stop-color="#A86400"/></linearGradient><path fill-rule="evenodd" d="M8 11a3 3 0 0 0 0-6v6z" fill="url(#f)"/></svg>