<svg ti:v="1" width="16" height="16" viewBox="0 0 16 16" xmlns="http://www.w3.org/2000/svg" xmlns:ti="urn:schemas-jetbrains-com:tisvg"><rect id="frame" width="16" height="16" fill="none"/><g fill-rule="evenodd"><path d="M3 8a5 5 0 0 0 5 5V3a5 5 0 0 0-5 5z" fill="#242424"/><path d="M13 8a5 5 0 0 0-5-5v10a5 5 0 0 0 5-5z" fill="#242424"/><path d="M4 8a4 4 0 0 0 4 4V4a4 4 0 0 0-4 4z" fill="#C3C3C3"/><path d="M12 8a4 4 0 0 0-4-4v8a4 4 0 0 0 4-4z" fill="#C3C3C3"/><path d="M5 8c0 1.656 1.344 3 3 3V5C6.344 5 5 6.344 5 8z" fill="#C3C3C3"/><path d="M11 8c0-1.656-1.344-3-3-3v6c1.656 0 3-1.344 3-3z" fill="#282828"/></g></svg>