<svg ti:v="1" width="16" height="16" viewBox="0 0 16 16" xmlns="http://www.w3.org/2000/svg" xmlns:ti="urn:schemas-jetbrains-com:tisvg"><rect id="frame" width="16" height="16" fill="none"/><linearGradient id="a" x1=".5" y1=".002" x2=".5" y2=".998"><stop offset="0" stop-color="#2FA323"/><stop offset="1" stop-color="#0A6600"/></linearGradient><path fill-rule="evenodd" d="M6 6a4 4 0 0 0 4 4V2a4 4 0 0 0-4 4z" fill="url(#a)"/><linearGradient id="b" x1=".5" y1="-.002" x2=".5" y2=".998"><stop offset="0" stop-color="#9C6400"/><stop offset="1" stop-color="#624600"/></linearGradient><path fill-rule="evenodd" d="M10 10a4 4 0 0 0 0-8v8z" fill="url(#b)"/><linearGradient id="c" x1=".5" y1=".025" x2=".5" y2="1"><stop offset="0" stop-color="#DFFFDF"/><stop offset="1" stop-color="#11B811"/></linearGradient><path fill-rule="evenodd" d="M7 6a3 3 0 0 0 3 3V3C8.344 3 7 4.344 7 6z" fill="url(#c)"/><linearGradient id="d" x1=".5" y1=".025" x2=".5" y2="1"><stop offset="0" stop-color="#FFF2D8"/><stop offset="1" stop-color="#A36221"/></linearGradient><path fill-rule="evenodd" d="M10 9a3.001 3.001 0 0 0 0-6v6z" fill="url(#d)"/><linearGradient id="e" x1=".5" y1="0" x2=".5" y2="1.016"><stop offset="0" stop-color="#49FF36"/><stop offset="1" stop-color="#36BA26"/></linearGradient><path fill-rule="evenodd" d="M8 6a2 2 0 0 0 2 2V4a2 2 0 0 0-2 2z" fill="url(#e)"/><linearGradient id="f" x1=".5" y1=".031" x2=".5" y2="1.031"><stop offset="0" stop-color="#FFB600"/><stop offset="1" stop-color="#A86400"/></linearGradient><path fill-rule="evenodd" d="M10 8a2 2 0 0 0 0-4v4z" fill="url(#f)"/><linearGradient id="g" x1=".5" y1=".002" x2=".5" y2=".998"><stop offset="0" stop-color="#2FA323"/><stop offset="1" stop-color="#0A6600"/></linearGradient><path fill-rule="evenodd" d="M2 9a4 4 0 0 0 4 4V5a4 4 0 0 0-4 4z" fill="url(#g)"/><linearGradient id="h" x1=".5" y1="-.002" x2=".5" y2=".998"><stop offset="0" stop-color="#9C6400"/><stop offset="1" stop-color="#624600"/></linearGradient><path fill-rule="evenodd" d="M6 13a4 4 0 0 0 0-8v8z" fill="url(#h)"/><linearGradient id="i" x1=".5" y1=".025" x2=".5" y2="1"><stop offset="0" stop-color="#DFFFDF"/><stop offset="1" stop-color="#11B811"/></linearGradient><path fill-rule="evenodd" d="M3 9a3 3 0 0 0 3 3V6a3 3 0 0 0-3 3z" fill="url(#i)"/><linearGradient id="j" x1=".5" y1=".025" x2=".5" y2="1"><stop offset="0" stop-color="#FFF2D8"/><stop offset="1" stop-color="#A36221"/></linearGradient><path fill-rule="evenodd" d="M6 12a3 3 0 0 0 0-6v6z" fill="url(#j)"/><linearGradient id="k" x1=".5" y1="0" x2=".5" y2="1.016"><stop offset="0" stop-color="#49FF36"/><stop offset="1" stop-color="#36BA26"/></linearGradient><path fill-rule="evenodd" d="M4 9a2 2 0 0 0 2 2V7a2 2 0 0 0-2 2z" fill="url(#k)"/><linearGradient id="l" x1=".5" y1=".031" x2=".5" y2="1.031"><stop offset="0" stop-color="#FFB600"/><stop offset="1" stop-color="#A86400"/></linearGradient><path fill-rule="evenodd" d="M6 11a2 2 0 0 0 0-4v4z" fill="url(#l)"/></svg>