<svg ti:v="1" width="16" height="16" viewBox="0 0 16 16" xmlns="http://www.w3.org/2000/svg" xmlns:ti="urn:schemas-jetbrains-com:tisvg"><rect id="frame" width="16" height="16" fill="none"/><g fill-rule="evenodd"><path d="M6 6a4 4 0 0 0 4 4V2a4 4 0 0 0-4 4z" fill="#242424"/><path d="M14 6a4 4 0 0 0-4-4v8a4 4 0 0 0 4-4z" fill="#242424"/><path d="M7 6c0 1.656 1.344 3 3 3V3C8.344 3 7 4.344 7 6z" fill="#C3C3C3"/><path d="M13 6c0-1.656-1.344-3-3-3v6c1.656 0 3-1.344 3-3z" fill="#C3C3C3"/><path d="M8 6a2 2 0 0 0 2 2V4a2 2 0 0 0-2 2z" fill="#C3C3C3"/><path d="M12 6a2 2 0 0 0-2-2v4a2 2 0 0 0 2-2z" fill="#282828"/><path d="M2 9a4 4 0 0 0 4 4V5a4 4 0 0 0-4 4z" fill="#242424"/><path d="M10 9a4 4 0 0 0-4-4v8a4 4 0 0 0 4-4z" fill="#242424"/><path d="M3 9c0 1.656 1.344 3 3 3V6C4.344 6 3 7.344 3 9z" fill="#C3C3C3"/><path d="M9 9c0-1.656-1.344-3-3-3v6c1.656 0 3-1.344 3-3z" fill="#C3C3C3"/><path d="M4 9a2 2 0 0 0 2 2V7a2 2 0 0 0-2 2z" fill="#C3C3C3"/><path d="M8 9a2 2 0 0 0-2-2v4a2 2 0 0 0 2-2z" fill="#282828"/></g></svg>