<svg ti:v="1" width="16" height="16" viewBox="0 0 16 16" xmlns="http://www.w3.org/2000/svg" xmlns:ti="urn:schemas-jetbrains-com:tisvg"><rect id="frame" width="16" height="16" fill="none"/><linearGradient id="a" x1=".5" y1="0" x2=".5" y2="1"><stop offset="0" stop-color="#597E95"/><stop offset="1" stop-color="#21464F"/></linearGradient><path fill-rule="evenodd" d="M14 13H5V2h9v11z" fill="url(#a)"/><linearGradient id="b" x1=".5" y1="0" x2=".5" y2="1"><stop offset="0" stop-color="#EFFDFF"/><stop offset="1" stop-color="#6BE4FF"/></linearGradient><path fill-rule="evenodd" d="M13 12H6V3h7v9z" fill="url(#b)"/><linearGradient id="c" x1=".5" y1="0" x2=".5" y2="1"><stop offset="0" stop-color="#8ED8FF"/><stop offset="1" stop-color="#D4FBFF"/></linearGradient><path fill-rule="evenodd" d="M12 11H7V4h5v7z" fill="url(#c)"/><linearGradient id="d" x1=".5" y1="0" x2=".5" y2="1"><stop offset="0" stop-color="#10424F"/><stop offset="1" stop-color="#3689BA"/></linearGradient><path fill-rule="evenodd" d="M11 9H8v1h3m0-3H8v1h3m0-2H8V5h3v1z" fill="url(#d)"/><linearGradient id="e" x1=".5" y1=".013" x2=".5" y2="1"><stop offset="0" stop-color="#620183"/><stop offset="1" stop-color="#5B0179"/></linearGradient><path fill-rule="evenodd" d="M8 15H1V8h7v7z" fill="url(#e)"/><linearGradient id="f" x1=".5" y1=".041" x2=".5" y2="1.017"><stop offset="0" stop-color="#F4D4FF"/><stop offset="1" stop-color="#FF42E8"/></linearGradient><path fill-rule="evenodd" d="M7 14H2V9h5v5z" fill="url(#f)"/><linearGradient id="g" x1=".5" y1=".041" x2=".5" y2="1.017"><stop offset="0" stop-color="#C138B1"/><stop offset="1" stop-color="#EBB3FF"/></linearGradient><path fill-rule="evenodd" d="M6 13H3v-3h3v3z" fill="url(#g)"/></svg>