<svg ti:v="1" width="16" height="16" viewBox="0 0 16 16" xmlns="http://www.w3.org/2000/svg" xmlns:ti="urn:schemas-jetbrains-com:tisvg"><rect id="frame" width="16" height="16" fill="none"/><linearGradient id="a" x1=".5" y1="0" x2=".5" y2="1"><stop offset="0" stop-color="#50694D"/><stop offset="1" stop-color="#2D3B2D"/></linearGradient><path fill-rule="evenodd" d="M11 11H0V0h11v11z" fill="url(#a)"/><linearGradient id="b" x1=".5" y1="0" x2=".5" y2="1"><stop offset="0" stop-color="#E1FFCF"/><stop offset="1" stop-color="#87C35D"/></linearGradient><path fill-rule="evenodd" d="M1 10h9V1H1v9z" fill="url(#b)"/><linearGradient id="c" x1=".5" y1="0" x2=".5" y2="1"><stop offset="0" stop-color="#83BC60"/><stop offset="1" stop-color="#FFF"/></linearGradient><path fill-rule="evenodd" d="M8 8H3V3h5v5z" fill="url(#c)"/><linearGradient id="d" x1=".5" y1="0" x2=".5" y2="1"><stop offset="0" stop-color="#695D4D"/><stop offset="1" stop-color="#3B342D"/></linearGradient><path fill-rule="evenodd" d="M16 16H5V5h11v11z" fill="url(#d)"/><linearGradient id="e" x1=".5" y1=".007" x2=".5" y2="1.004"><stop offset="0" stop-color="#FFEDCF"/><stop offset="1" stop-color="#E6A34D"/></linearGradient><path fill-rule="evenodd" d="M6 15h9V6H6v9z" fill="url(#e)"/><linearGradient id="f" x1=".5" y1=".007" x2=".5" y2="1.004"><stop offset="0" stop-color="#C69352"/><stop offset="1" stop-color="#FFF"/></linearGradient><path fill-rule="evenodd" d="M13 13H8V8h5v5z" fill="url(#f)"/></svg>