<svg ti:v="1" width="16" height="16" viewBox="0 0 16 16" xmlns="http://www.w3.org/2000/svg" xmlns:ti="urn:schemas-jetbrains-com:tisvg"><rect id="frame" width="16" height="16" fill="none"/><linearGradient id="a" x1=".5" y1="0" x2=".5" y2="1"><stop offset="0" stop-color="#005B93"/><stop offset="1" stop-color="#00144F"/></linearGradient><path fill-rule="evenodd" d="M6 0L0 3v6l4 2h2l6-3V2L8 0H6z" fill="url(#a)"/><linearGradient id="b" x1="0" y1=".5" x2=".993" y2=".5"><stop offset="0" stop-color="#33D6FF"/><stop offset="1" stop-color="#009CFF"/></linearGradient><path fill-rule="evenodd" d="M1 8l4 2V6L1 4v4z" fill="url(#b)"/><linearGradient id="c" x1="-.005" y1=".5" x2="1" y2=".5"><stop offset="0" stop-color="#89D8FF"/><stop offset="1" stop-color="#00ACEB"/></linearGradient><path fill-rule="evenodd" d="M5 6v4l6-3V3L5 6z" fill="url(#c)"/><linearGradient id="d" x1="0" y1=".5" x2="1" y2=".5"><stop offset="0" stop-color="#DFF2FF"/><stop offset="1" stop-color="#F9FBFF"/></linearGradient><path fill-rule="evenodd" d="M1 4l4 2 6-3-4-2-6 3z" fill="url(#d)"/><linearGradient id="e" x1="0" y1=".5" x2="1" y2=".5"><stop offset="0" stop-color="#006293"/><stop offset="1" stop-color="#00214F"/></linearGradient><path fill-rule="evenodd" d="M3 4l2 1 4-2-2-1-4 2z" fill="url(#e)"/><linearGradient id="f" x1=".5" y1="0" x2=".5" y2="1"><stop offset="0" stop-color="#956B00"/><stop offset="1" stop-color="#7C4200"/></linearGradient><path fill-rule="evenodd" d="M6 11a5 5 0 1 0 10 0 5 5 0 1 0-10 0z" fill="url(#f)"/><linearGradient id="g" x1=".5" y1="0" x2=".5" y2="1"><stop offset="0" stop-color="#FFE100"/><stop offset="1" stop-color="#FFB11F"/></linearGradient><path fill-rule="evenodd" d="M7 11a4 4 0 0 0 8 0 4 4 0 0 0-8 0z" fill="url(#g)"/><path fill-rule="evenodd" d="M13 9.2c0-.696-.841-1.2-2-1.2s-2 .504-2 1.2v.8h1V9h2v1l-2 1v1h2v-.533l1-1.067M12 14h-2v-1h2v1z"/></svg>