<svg ti:v="1" width="16" height="16" viewBox="0 0 16 16" xmlns="http://www.w3.org/2000/svg" xmlns:ti="urn:schemas-jetbrains-com:tisvg"><rect id="frame" width="16" height="16" fill="none"/><g fill-rule="evenodd"><path d="M0 8.25v-5.5L5 0l5 2.75v5.5L5 11 0 8.25z" fill="#F4F4F4"/><path d="M1 3.8V7.66l4 2.2v-3.86L1 3.802z" fill="#313131"/><path d="M9 3.8L5 6v3.859l4-2.2V3.8z" fill="#313131"/><path d="M8.379 3L5 4.858 1.621 3 1 3.342V3.8L5 6l4-2.199v-.46L8.379 3z" fill="#EBEBEB"/><path d="M5 4.858L8.379 3 5 1.141l-3.379 1.86L5 4.857z" fill="#313131"/><path d="M6 11a5 5 0 0 1 5-5 5 5 0 0 1 5 5 5 5 0 0 1-5 5 5 5 0 0 1-5-5z" fill="#F4F4F4"/><path d="M11 7a4 4 0 1 0 0 8 4 4 0 0 0 0-8z" fill="#FA0"/><path d="M13 9.2c0-.696-.841-1.2-2-1.2s-2 .504-2 1.2v.8h1V9h2v1l-2 1v1h2v-.533l1-1.067M12 14h-2v-1h2v1z" fill="#313131"/></g></svg>