<svg ti:v="1" width="16" height="16" viewBox="0 0 16 16" xmlns="http://www.w3.org/2000/svg" xmlns:ti="urn:schemas-jetbrains-com:tisvg"><rect id="frame" width="16" height="16" fill="none"/><g fill-rule="evenodd"><path d="M0 3v6l4 2h2l6-3V2L8 0H6L0 3z" fill="#242424"/><path d="M1 4v4l4 2V6L1 4z" fill="#C3C3C3"/><path d="M11 3L5 6v4l6-3V3z" fill="#C3C3C3"/><path d="M1 4l4 2 6-3-4-2-6 3z" fill="#C3C3C3"/><path d="M5 5L3 4l4-2 2 1-4 2z" fill="#282828"/><path d="M6 11a5 5 0 0 1 5-5 5 5 0 0 1 5 5 5 5 0 0 1-5 5 5 5 0 0 1-5-5z" fill="#242424"/><path d="M11 7a4 4 0 1 0 0 8 4 4 0 0 0 0-8z" fill="#FFCA01"/><path d="M13 9.2c0-.696-.841-1.2-2-1.2s-2 .504-2 1.2v.8h1V9h2v1l-2 1v1h2v-.533l1-1.067M12 14h-2v-1h2v1z" fill="#282828"/></g></svg>