<svg ti:v="1" width="16" height="16" viewBox="0 0 16 16" xmlns="http://www.w3.org/2000/svg" xmlns:ti="urn:schemas-jetbrains-com:tisvg"><rect id="frame" width="16" height="16" fill="none"/><linearGradient id="a" x1=".5" y1="0" x2=".5" y2="1"><stop offset="0" stop-color="purple"/><stop offset="1" stop-color="#5B005B"/></linearGradient><path fill-rule="evenodd" d="M0 8.25v-5.5L5 0l5 2.75v5.5L5 11 0 8.25z" fill="url(#a)"/><linearGradient id="b" x1=".028" y1=".5" x2="1.015" y2=".5"><stop offset="0" stop-color="#FD59FF"/><stop offset="1" stop-color="#FF9CFF"/></linearGradient><path fill-rule="evenodd" d="M1 3.801v3.858l4 2.199V6L1 3.801z" fill="url(#b)"/><linearGradient id="c" x1=".028" y1=".5" x2="1.015" y2=".5"><stop offset="0" stop-color="#FD33FF"/><stop offset="1" stop-color="#FFA3FF"/></linearGradient><path fill-rule="evenodd" d="M9 3.801L5 6v3.858l4-2.199V3.801z" fill="url(#c)"/><path fill-rule="evenodd" d="M8.379 3L5 4.858 1.621 3 1 3.342V3.8L5 6l4-2.199v-.46L8.379 3z" fill="#FFE6FF"/><linearGradient id="d" x1=".5" y1=".028" x2=".5" y2="1.016"><stop offset="0" stop-color="#FD54FF"/><stop offset="1" stop-color="#FFBFFF"/></linearGradient><path fill-rule="evenodd" d="M5 4.858L8.379 3 5 1.142 1.621 3 5 4.858z" fill="url(#d)"/><linearGradient id="e" x1=".5" y1="0" x2=".5" y2="1"><stop offset="0" stop-color="#956B00"/><stop offset="1" stop-color="#7C4200"/></linearGradient><path fill-rule="evenodd" d="M6 11a5 5 0 1 0 10 0 5 5 0 1 0-10 0z" fill="url(#e)"/><linearGradient id="f" x1=".5" y1="0" x2=".5" y2="1"><stop offset="0" stop-color="#FFE100"/><stop offset="1" stop-color="#FFB11F"/></linearGradient><path fill-rule="evenodd" d="M7 11a4 4 0 0 0 8 0 4 4 0 0 0-8 0z" fill="url(#f)"/><path fill-rule="evenodd" d="M13 9.2c0-.696-.841-1.2-2-1.2s-2 .504-2 1.2v.8h1V9h2v1l-2 1v1h2v-.533l1-1.067M12 14h-2v-1h2v1z"/></svg>