<svg xmlns="http://www.w3.org/2000/svg" width="16" height="16" viewBox="0 0 16 16">
  <g fill="none" fill-rule="evenodd">
    <path fill="#9AA7B0" fill-opacity=".8" d="M1 0L8 0 8 7 1 7 1 0zM2 1L2 6 7 6 7 1 2 1zM9 0L16 0 16 7 9 7 9 0zM10 1L10 6 15 6 15 1 10 1zM9 8L16 8 16 15 9 15 9 8zM10 9L10 14 15 14 15 9 10 9zM1 8L8 8 8 15 1 15 1 8zM2 9L2 14 7 14 7 9 2 9z"/>
    <rect width="3" height="3" x="3" y="2" fill="#40B6E0" fill-opacity=".7"/>
    <rect width="3" height="3" x="11" y="2" fill="#F98B9E" fill-opacity=".7"/>
    <rect width="3" height="3" x="11" y="10" fill="#62B543" fill-opacity=".7"/>
    <rect width="3" height="3" x="3" y="10" fill="#F4AF3D" fill-opacity=".7"/>
  </g>
</svg>
