<svg ti:v="1" width="13" height="13" viewBox="0 0 13 13" xmlns="http://www.w3.org/2000/svg" xmlns:ti="urn:schemas-jetbrains-com:tisvg"><rect id="frame" width="13" height="13" fill="none"/><g fill-rule="evenodd"><path d="M3.586 6L0 9.586v.828L1.586 12h.828L6 8.414v-.828L4.414 6h-.828z" fill="#242424"/><path d="M1 10l1 1 3-3-1-1-3 3z" fill="#C3C3C3"/><path d="M12 4.5a4.5 4.5 0 1 1-9 0 4.5 4.5 0 0 1 9 0z" fill="#242424"/><path d="M11 4.5a3.5 3.5 0 1 1-7 0 3.5 3.5 0 1 1 7 0z" fill="#C3C3C3"/><path d="M10 4.5a2.5 2.5 0 1 1-5 0 2.5 2.5 0 0 1 5 0z" fill="#292929"/><path d="M9 4.5a1.5 1.5 0 1 1-3 0 1.5 1.5 0 0 1 3 0z" fill="#292929"/><path d="M13 8.697L10.535 5H7v1.302L7.465 7H5v4h2.465L7 11.697V13h3.535L13 9.302v-.605z" fill="#242424"/><path d="M10 6H8l1.333 2H6v2h3.333L8 12h2l2-3-2-3z" fill="#7CBDFF"/></g></svg>