<svg ti:v="1" width="13" height="13" viewBox="0 0 13 13" xmlns="http://www.w3.org/2000/svg" xmlns:ti="urn:schemas-jetbrains-com:tisvg"><rect id="frame" width="13" height="13" fill="none"/><linearGradient id="a" x1=".31" y1=".31" x2=".708" y2=".708"><stop offset="0" stop-color="#9C7733"/><stop offset="1" stop-color="#6D2121"/></linearGradient><path fill-rule="evenodd" d="M3.586 6L0 9.586v.828L1.586 12h.828L6 8.414v-.828L4.414 6h-.828z" fill="url(#a)"/><linearGradient id="b" x1=".375" y1=".375" x2=".625" y2=".625"><stop offset="0" stop-color="#FFDF78"/><stop offset="1" stop-color="#D88C00"/></linearGradient><path fill-rule="evenodd" d="M1 10l1 1 3-3-1-1-3 3z" fill="url(#b)"/><linearGradient id="c" x1=".5" y1=".012" x2=".5" y2="1"><stop offset="0" stop-color="#3C7380"/><stop offset="1" stop-color="#093C6D"/></linearGradient><path fill-rule="evenodd" d="M3 4.5a4.5 4.5 0 1 0 9 0 4.5 4.5 0 1 0-9 0z" fill="url(#c)"/><linearGradient id="d" x1=".5" y1=".006" x2=".5" y2="1"><stop offset="0" stop-color="#D5EFFF"/><stop offset="1" stop-color="#73C9FF"/></linearGradient><path fill-rule="evenodd" d="M4 4.5a3.5 3.5 0 1 0 7 0 3.5 3.5 0 1 0-7 0z" fill="url(#d)"/><linearGradient id="e" x1=".5" y1=".013" x2=".5" y2="1"><stop offset="0" stop-color="#509EE8"/><stop offset=".736" stop-color="#FFF"/><stop offset="1" stop-color="#FFF"/></linearGradient><path fill-rule="evenodd" d="M5 4.5a2.5 2.5 0 1 0 5 0 2.5 2.5 0 0 0-5 0z" fill="url(#e)"/><linearGradient id="f" x1=".5" y1=".013" x2=".5" y2=".988"><stop offset="0" stop-color="#FFF"/><stop offset=".288" stop-color="#FFF"/><stop offset="1" stop-color="#BCF5FF"/></linearGradient><path fill-rule="evenodd" d="M6 4.5a1.5 1.5 0 0 0 3 0 1.5 1.5 0 0 0-3 0z" fill="url(#f)"/><linearGradient id="g" x1=".007" y1=".5" x2=".993" y2=".5"><stop offset="0" stop-color="#0E4185"/><stop offset=".002" stop-color="#0E4185"/><stop offset="1" stop-color="#0B2D59"/></linearGradient><path fill-rule="evenodd" d="M7 5v1.303L7.465 7H5v4h2.465L7 11.698V13h3.536L13 9.303v-.606L10.536 5H7z" fill="url(#g)"/><linearGradient id="h" x1="0" y1=".5" x2="1" y2=".5"><stop offset="0" stop-color="#85B5FF"/><stop offset="1" stop-color="#70D8FF"/></linearGradient><path fill-rule="evenodd" d="M8 6l1.333 2H6v2h3.333L8 12h2l2-3-2-3H8z" fill="url(#h)"/></svg>