<svg xmlns="http://www.w3.org/2000/svg" xmlns:xlink="http://www.w3.org/1999/xlink" width="13" height="13" viewBox="0 0 13 13"><rect id="frame" width="13" height="13" fill="none"/><defs><linearGradient id="a" x1="6.5" y1=".108" x2="6.5" y2="13.055" gradientUnits="userSpaceOnUse"><stop offset="0" stop-color="#856000"/><stop offset="1" stop-color="#733000"/></linearGradient><linearGradient id="b" x1="6.5" y1="1.106" x2="6.5" y2="12.018" gradientUnits="userSpaceOnUse"><stop offset="0" stop-color="#ffe000"/><stop offset="1" stop-color="#ffb01f"/></linearGradient><linearGradient id="c" x1="6.5" y1="2.075" x2="6.5" y2="11.038" gradientUnits="userSpaceOnUse"><stop offset="0" stop-color="#733000"/><stop offset="1" stop-color="#856000"/></linearGradient></defs><path fill="url(#a)" d="M13 10.521L7.77 0H5.229L0 10.521v.591L1.54 13h9.919L13 11.112v-.591z"/><path fill="url(#b)" d="M7.151 1H5.849L1 10.756 2.015 12h8.97L12 10.756 7.151 1z"/><path fill="url(#c)" d="M2.49 11l-.307-.377L6.469 2h.062l4.286 8.623-.307.377H2.49z"/><path d="M7 8H6V5h1zm0 1H6v1h1z" fill="#fff"/></svg>