<svg ti:v="1" width="13" height="13" viewBox="0 0 13 13" xmlns="http://www.w3.org/2000/svg" xmlns:ti="urn:schemas-jetbrains-com:tisvg"><rect id="frame" width="13" height="13" fill="none"/><g fill-rule="evenodd"><path d="M13 6.5a6.5 6.5 0 1 1-13 0 6.5 6.5 0 0 1 13 0z" fill="#242424"/><path d="M12 6.5a5.5 5.5 0 1 1-11 0 5.5 5.5 0 0 1 11 0z" fill="#C4C4C4"/><path d="M6.5 6.5V2c-1.665 0-3.103.915-3.881 2.26A4.454 4.454 0 0 0 2 6.5c0 .82.236 1.578.619 2.24C3.397 10.085 4.835 11 6.5 11c1.665 0 3.103-.915 3.881-2.26L6.5 6.5z" fill="#282828"/></g></svg>