<svg ti:v="1" width="13" height="13" viewBox="0 0 13 13" xmlns="http://www.w3.org/2000/svg" xmlns:ti="urn:schemas-jetbrains-com:tisvg"><rect id="frame" width="13" height="13" fill="none"/><linearGradient id="a" x1=".5" y1="0" x2=".5" y2="1"><stop offset="0" stop-color="#4D6791"/><stop offset="1" stop-color="#283851"/></linearGradient><path fill-rule="evenodd" d="M0 6.5a6.5 6.5 0 0 0 13 0 6.5 6.5 0 1 0-13 0z" fill="url(#a)"/><linearGradient id="b" x1=".5" y1="0" x2=".5" y2="1"><stop offset="0" stop-color="#ABF0FF"/><stop offset=".994" stop-color="#60BDFF"/><stop offset="1" stop-color="#60BDFF"/></linearGradient><path fill-rule="evenodd" d="M1 6.5a5.5 5.5 0 0 0 11 0 5.5 5.5 0 0 0-11 0z" fill="url(#b)"/><linearGradient id="c" x1=".5" y1="0" x2=".5" y2="1"><stop offset="0" stop-color="#283851"/><stop offset="1" stop-color="#4D6791"/></linearGradient><path fill-rule="evenodd" d="M2.619 4.259A4.46 4.46 0 0 0 2 6.5c0 .82.236 1.578.619 2.241C3.398 10.085 4.835 11 6.5 11c1.665 0 3.102-.915 3.881-2.259L6.5 6.5V2c-1.665 0-3.102.915-3.881 2.259z" fill="url(#c)"/></svg>