<svg ti:v="1" width="16" height="16" viewBox="0 0 16 16" xmlns="http://www.w3.org/2000/svg" xmlns:ti="urn:schemas-jetbrains-com:tisvg"><rect id="frame" width="16" height="16" fill="none"/><g fill-rule="evenodd"><path d="M0 16h16V5H0v11z" fill="#F4F4F4"/><path d="M14 6v8H2V6H1v9h14V6h-1z" fill="#313131"/><path d="M14 14H2V6h12v8z" fill="#EBEBEB"/><path d="M5 13h2v-2H5m6 0H9v2h2M9 8H7v2h2m2 0h2V8h-2M5 8H3v2h2V8z" fill="#313131"/><path d="M10 0H6v2.612l-3-1V4.5L7.667 8h.666L13 4.5V1.612l-3 1V0z" fill="#F4F4F4"/><path d="M8 7L4 4V3l3 1V0h2v4l3-1v1L8 7z" fill="#313131"/></g></svg>