<svg ti:v="1" width="16" height="16" viewBox="0 0 16 16" xmlns="http://www.w3.org/2000/svg" xmlns:ti="urn:schemas-jetbrains-com:tisvg"><rect id="frame" width="16" height="16" fill="none"/><g fill-rule="evenodd"><path d="M16 15H5V1h11v14z" fill="#242424"/><path d="M15 14H6V2h9v12z" fill="#C3C3C3"/><path d="M11.5 4a.466.466 0 0 1-.341-.143.48.48 0 0 1-.143-.36c0-.141.046-.26.138-.354A.452.452 0 0 1 11.49 3c.139 0 .256.049.351.146a.475.475 0 0 1 .143.351.505.505 0 0 1-.137.356A.458.458 0 0 1 11.5 4zm.486 4.563l-1.526.216c-.47.067-.824.187-1.064.358-.238.172-.358.475-.358.91 0 .317.11.576.331.776.221.201.514.302.88.302.503 0 .918-.18 1.246-.542.327-.361.491-.819.491-1.373M9.506 4a.476.476 0 0 1-.354-.15.485.485 0 0 1-.145-.353.485.485 0 0 1 .835-.351.469.469 0 0 1 .148.351.494.494 0 0 1-.143.356.462.462 0 0 1-.341.147zM13 12h-1.014v-1.167h-.024C11.521 11.61 10.871 12 10.015 12c-.63 0-1.124-.172-1.481-.513-.356-.343-.534-.798-.534-1.364 0-1.214.696-1.919 2.089-2.118l1.897-.272c0-1.104-.435-1.792-1.304-1.792-.762 0-1.45.032-2.064.565l-.234-.997c.622-.406 1.573-.443 2.385-.443 1.487 0 2.231.945 2.231 2.559V12z" fill="#292929"/><path d="M10 16l-4-4-2.224 3c-.394.414-.953 1-1.547 1a2.16 2.16 0 0 1-1.574-.686A2.42 2.42 0 0 1 0 13.642c.001-.63.674-1.089 1.095-1.533L4 10 1.829 8c-.664-.955-.666-1.506.119-2.325A2.12 2.12 0 0 1 3.498 5c.712 0 1.077.764 1.315 1L6 8l5-3h2l-5 5 5 6h-3z" fill="#242424"/><path d="M7 10l4-4h-.563L6 9 3.96 6.282c-.346-.395-1.047-.343-1.387 0a.995.995 0 0 0 0 1.405L5 10l-3.813 3.309a.99.99 0 0 0 0 1.404c.386.39.998.39 1.386 0L6 11l4.5 4h.5l-4-5z" fill="#F28366"/></g></svg>