<svg ti:v="1" width="16" height="16" viewBox="0 0 16 16" xmlns="http://www.w3.org/2000/svg" xmlns:ti="urn:schemas-jetbrains-com:tisvg"><rect id="frame" width="16" height="16" fill="none"/><linearGradient id="a" x1=".5" y1=".006" x2=".5" y2="1.006"><stop offset="0" stop-color="#00756D"/><stop offset="1" stop-color="#0B4642"/></linearGradient><path fill-rule="evenodd" d="M5 15h11V1H5v14z" fill="url(#a)"/><linearGradient id="b" x1=".5" y1=".014" x2=".5" y2="1.014"><stop offset="0" stop-color="#DDFFFD"/><stop offset="1" stop-color="#54EBE2"/></linearGradient><path fill-rule="evenodd" d="M6 14h9V1.999H6V14z" fill="url(#b)"/><linearGradient id="c" x1=".5" y1=".009" x2=".5" y2="1.004"><stop offset="0" stop-color="#00756D"/><stop offset="1" stop-color="#0B4642"/></linearGradient><path fill-rule="evenodd" d="M11.154 3.143a.485.485 0 0 0-.138.354c0 .145.047.267.144.36A.462.462 0 0 0 11.5 4a.46.46 0 0 0 .347-.147.502.502 0 0 0 .138-.356.482.482 0 0 0-.144-.352A.475.475 0 0 0 11.49 3a.452.452 0 0 0-.336.143zm-2.007 0a.482.482 0 0 0-.14.354c0 .136.046.253.145.352A.475.475 0 0 0 9.506 4a.458.458 0 0 0 .34-.147.487.487 0 0 0 .144-.356.47.47 0 0 0-.148-.352A.489.489 0 0 0 9.49 3a.468.468 0 0 0-.343.143zm-.763 2.366l.234.997c.615-.534 1.302-.564 2.064-.564.869 0 1.305.687 1.305 1.792l-1.898.271C8.696 8.205 8 8.909 8 10.123c0 .566.178 1.021.534 1.364.357.341.851.513 1.481.513.857 0 1.505-.389 1.947-1.167h.025V12H13V7.625c0-1.614-.744-2.559-2.231-2.559-.812 0-1.763.037-2.385.443zm.985 5.314a.997.997 0 0 1-.331-.776c0-.435.12-.738.358-.91.24-.171.594-.291 1.064-.358l1.527-.216v.647c0 .554-.165 1.012-.492 1.373a1.61 1.61 0 0 1-1.246.542c-.367 0-.659-.101-.88-.302z" fill="url(#c)"/><linearGradient id="d" x1=".5" y1=".017" x2=".5" y2="1.008"><stop offset="0" stop-color="#8C0A00"/><stop offset="1" stop-color="#C60000"/></linearGradient><path fill-rule="evenodd" d="M11 5L6 8 4.814 6c-.239-.237-.604-1-1.316-1-.587 0-1.138.241-1.55.674-.785.82-.783 1.371-.119 2.326L4 10l-2.905 2.109c-.421.444-1.094.903-1.095 1.532-.001.63.233 1.224.656 1.673.421.443.98.686 1.574.686.593 0 1.152-.586 1.547-1L6 12l4 4h3l-5-6 5-5h-2z" fill="url(#d)"/><linearGradient id="e" x1=".5" y1="0" x2=".5" y2="1"><stop offset="0" stop-color="#FFA88E"/><stop offset="1" stop-color="red"/></linearGradient><path fill-rule="evenodd" d="M10.437 6L6 9 3.96 6.282c-.346-.395-1.047-.342-1.386 0a.994.994 0 0 0 0 1.406L5 10l-3.813 3.308a.992.992 0 0 0 0 1.405c.387.39.998.39 1.387 0L6 11l4.5 4h.5l-4-5 4-4h-.563z" fill="url(#e)"/></svg>