<svg ti:v="1" width="16" height="16" viewBox="0 0 16 16" xmlns="http://www.w3.org/2000/svg" xmlns:ti="urn:schemas-jetbrains-com:tisvg"><rect id="frame" width="16" height="16" fill="none"/><g fill-rule="evenodd"><path d="M7 9.15L5.366 6.383l-.245-.405a2.79 2.79 0 0 0 .714-1.121c.103-.304.155-.638.155-.992 0-.454-.079-.864-.233-1.214a2.604 2.604 0 0 0-.687-.944 2.77 2.77 0 0 0-.994-.547A3.681 3.681 0 0 0 2.978 1H0v9h2.776V7.409C2.799 7.447 4.24 10 4.24 10H7v-.85z" fill="#242424"/><path d="M1.776 2.742V5.28h1.052c.195 0 .374-.03.54-.092a1.196 1.196 0 0 0 .709-.69 1.52 1.52 0 0 0 .101-.565c0-.374-.114-.665-.344-.876-.229-.209-.56-.315-.996-.315M5.75 9h-.926L3.716 7.038a4.354 4.354 0 0 0-.295-.466 1.697 1.697 0 0 0-.294-.314.988.988 0 0 0-.324-.179 1.235 1.235 0 0 0-.39-.058h-.637V9H1V2h1.977c.29 0 .557.039.802.115.246.077.456.192.637.349.18.156.322.349.423.583.102.233.151.506.151.818 0 .243-.033.467-.103.671a1.778 1.778 0 0 1-.757.952 2.281 2.281 0 0 1-.608.26v.021a1.374 1.374 0 0 1 .522.414c.074.091.147.194.22.311.071.114.152.249.242.401L5.75 9z" fill="#C3C3C3"/><path d="M13.114 6c-.883 0-1.623.272-2.197.81-.585.545-.895 1.294-.895 2.163 0 .674.187 1.27.556 1.774.077.105.161.202.25.293a2.54 2.54 0 0 0-.11.232L10 12.971V15h2.243l.994-2.575V15H16V6h-2.886z" fill="#242424"/><path d="M14.237 10.28V7.742h-1.054c-.428 0-.762.108-.999.327-.238.218-.354.525-.354.923 0 .396.12.711.361.942.241.231.567.346.975.346M15 14h-.763v-2.979h-.946a.763.763 0 0 0-.477.159c-.139.106-.284.344-.442.711L11.557 14h-.907l.99-2.338c.061-.153.16-.315.29-.486.132-.171.286-.292.46-.364v-.019c-.43-.102-.767-.315-1.007-.64-.24-.326-.36-.719-.36-1.181 0-.596.193-1.074.576-1.432.387-.362.892-.54 1.515-.54H15v7z" fill="#C3C3C3"/><path d="M4.5 15c-.297 0-.585-.087-.832-.252a1.488 1.488 0 0 1-.639-.954c-.079-.393 0-.793.224-1.127L10.24 1.686A1.51 1.51 0 0 1 11.501 1c.297 0 .584.087.831.252.334.223.561.561.639.954.079.393 0 .793-.224 1.127L5.76 14.314A1.507 1.507 0 0 1 4.5 15z" fill="#242424"/><path d="M4.5 14a.5.5 0 0 1-.416-.777l7-11a.5.5 0 0 1 .832.554l-7 11A.5.5 0 0 1 4.5 14z" fill="#C3C3C3"/></g></svg>