<svg ti:v="1" width="16" height="16" viewBox="0 0 16 16" xmlns="http://www.w3.org/2000/svg" xmlns:ti="urn:schemas-jetbrains-com:tisvg"><rect id="frame" width="16" height="16" fill="none"/><linearGradient id="a" x1=".5" y1=".016" x2=".5" y2="1.008"><stop offset="0" stop-color="#00248C"/><stop offset="1" stop-color="#00779C"/></linearGradient><path fill-rule="evenodd" d="M0 1v9h2.776V7.409L4.24 10H7v-.85L5.366 6.384l-.245-.405a2.78 2.78 0 0 0 .714-1.122c.103-.304.155-.638.155-.992a3 3 0 0 0-.233-1.213 2.62 2.62 0 0 0-.687-.945 2.765 2.765 0 0 0-.993-.547A3.716 3.716 0 0 0 2.978 1H0z" fill="url(#a)"/><linearGradient id="b" x1=".5" y1="0" x2=".5" y2="1"><stop offset="0" stop-color="#AAF4FF"/><stop offset="1" stop-color="#00CFFF"/></linearGradient><path fill-rule="evenodd" d="M1 2v7h.776V6.021h.637c.145 0 .277.02.391.058.116.039.221.096.323.179.101.079.197.185.294.314.095.127.193.283.296.466L4.824 9h.926L4.507 6.895a28.172 28.172 0 0 0-.243-.401 2.904 2.904 0 0 0-.22-.311 1.343 1.343 0 0 0-.522-.414v-.02a2.29 2.29 0 0 0 .609-.261 1.764 1.764 0 0 0 .756-.952c.07-.204.103-.427.103-.671 0-.312-.049-.584-.151-.818a1.604 1.604 0 0 0-.423-.583 1.783 1.783 0 0 0-.637-.349A2.696 2.696 0 0 0 2.978 2m-1.202.743h1.063c.435 0 .767.106.995.315.231.211.345.502.345.875a1.5 1.5 0 0 1-.102.565 1.183 1.183 0 0 1-.283.424c-.12.116-.262.205-.426.267a1.55 1.55 0 0 1-.54.092H1.776V2.743z" fill="url(#b)"/><linearGradient id="c" x1=".5" y1=".016" x2=".5" y2="1.008"><stop offset="0" stop-color="#5B0700"/><stop offset="1" stop-color="#700"/></linearGradient><path fill-rule="evenodd" d="M13.114 6c-.883 0-1.622.272-2.197.81-.585.546-.894 1.294-.894 2.162 0 .675.186 1.271.555 1.775.078.105.161.203.25.293a2.202 2.202 0 0 0-.109.233L10 12.971V15h2.243l.995-2.575V15H16V6h-2.886z" fill="url(#c)"/><linearGradient id="d" x1=".5" y1="0" x2=".5" y2="1"><stop offset="0" stop-color="#FFBFA3"/><stop offset="1" stop-color="#F44"/></linearGradient><path fill-rule="evenodd" d="M13.114 7c-.622 0-1.127.179-1.514.54-.384.359-.577.836-.577 1.432 0 .463.12.855.36 1.181.24.326.577.538 1.007.64v.02a1.112 1.112 0 0 0-.459.363c-.132.171-.23.333-.292.486L10.65 14h.907l.815-2.108c.158-.367.304-.606.443-.711a.76.76 0 0 1 .476-.159h.947V14H15V7m-2.808 2.934c-.243-.231-.362-.545-.362-.942 0-.398.116-.705.355-.922.236-.219.57-.328.999-.328h1.054v2.538h-1.072c-.408 0-.733-.115-.974-.346z" fill="url(#d)"/><linearGradient id="e" x1=".5" y1=".003" x2=".5" y2="1.003"><stop offset="0" stop-color="#5D6044"/><stop offset="1" stop-color="#2B3626"/></linearGradient><path fill-rule="evenodd" d="M10.241 1.686L3.253 12.667c-.224.334-.302.734-.224 1.127A1.5 1.5 0 0 0 4.5 15c.502 0 .968-.249 1.26-.685l6.987-10.982c.223-.334.302-.735.223-1.127a1.483 1.483 0 0 0-.638-.954A1.49 1.49 0 0 0 11.501 1c-.502 0-.969.249-1.26.686z" fill="url(#e)"/><linearGradient id="f" x1=".5" y1=".006" x2=".5" y2="1"><stop offset="0" stop-color="#F4FFE8"/><stop offset="1" stop-color="#D4CD9A"/></linearGradient><path fill-rule="evenodd" d="M11.084 2.222l-7 11.001A.5.5 0 0 0 4.5 14a.5.5 0 0 0 .416-.223l7-10.999a.502.502 0 0 0-.139-.694.503.503 0 0 0-.693.138z" fill="url(#f)"/></svg>