<svg ti:v="1" width="16" height="16" viewBox="0 0 16 16" xmlns="http://www.w3.org/2000/svg" xmlns:ti="urn:schemas-jetbrains-com:tisvg"><rect id="frame" width="16" height="16" fill="none"/><linearGradient id="a" x1=".5" y1="0" x2=".5" y2="1"><stop offset="0" stop-color="#566980"/><stop offset="1" stop-color="#2C3641"/></linearGradient><path fill-rule="evenodd" d="M4.586 2L0 6.586v1.828L4.586 13H16V2H4.586z" fill="url(#a)"/><linearGradient id="b" x1=".5" y1="0" x2=".5" y2="1"><stop offset="0" stop-color="#BBC4CC"/><stop offset="1" stop-color="#EDF6FF"/></linearGradient><path fill-rule="evenodd" d="M5 3L1 7v1l4 4h10V3H5z" fill="url(#b)"/><path fill-rule="evenodd" d="M5 3L1 7v1l4-4h10V3H5z" fill="#DFEEF8"/><path fill-rule="evenodd" d="M5 7.5a1 1 0 1 1-2 0 1 1 0 0 1 2 0z"/><linearGradient id="c" x1=".5" y1="0" x2=".5" y2="1"><stop offset="0" stop-color="#566980"/><stop offset="1" stop-color="#2C3641"/></linearGradient><path fill-rule="evenodd" d="M12 4v2h-2L9 7v2l1 1h3V4m-3 3h2v2h-2M7 5h1V4H7m0 6h1V6H7v4z" fill="url(#c)"/></svg>