<svg ti:v="1" width="16" height="16" viewBox="0 0 16 16" xmlns="http://www.w3.org/2000/svg" xmlns:ti="urn:schemas-jetbrains-com:tisvg"><rect id="frame" width="16" height="16" fill="none"/><linearGradient id="a" x1=".5" y1="0" x2=".5" y2="1"><stop offset="0" stop-color="#963300"/><stop offset="1" stop-color="#620000"/></linearGradient><path fill-rule="evenodd" d="M14.94 11l-.722.909c-.08.099-.152.2-.217.303-.37-.578-.977-1.212-2-1.212-1.021 0-1.629.634-2 1.211-.371-.577-.978-1.211-2-1.211-1.023 0-1.629.634-2.001 1.212C5.63 11.635 5.022 11 4 11c-1.023 0-1.63.634-2 1.211a3.431 3.431 0 0 0-.218-.306L1.061 11H0v3.817l.216.273c.597.751 1.301.91 1.785.91 1.022 0 1.629-.633 2-1.211C4.371 15.366 4.978 16 6 16c1.021 0 1.629-.634 2.001-1.211.371.577.978 1.211 2 1.211s1.629-.633 2-1.211c.371.577.978 1.211 2 1.211.482 0 1.183-.158 1.78-.905l.219-.272V11h-1.06z" fill="url(#a)"/><path fill-rule="evenodd" d="M15 12.531c-.187.234-.327.508-.446.745-.212.424-.375.724-.553.724-.178 0-.342-.3-.554-.724-.268-.539-.637-1.276-1.446-1.276-.809 0-1.178.737-1.447 1.276-.212.424-.375.724-.553.724-.178 0-.341-.3-.553-.724C9.179 12.737 8.81 12 8.001 12s-1.178.737-1.447 1.276C6.342 13.7 6.178 14 6 14c-.178 0-.341-.3-.553-.724C5.178 12.738 4.81 12 4 12s-1.179.738-1.447 1.277c-.212.423-.375.723-.552.723-.178 0-.341-.3-.553-.724A4.24 4.24 0 0 0 1 12.528v1.941c.236.297.549.531 1.001.531.81 0 1.178-.738 1.446-1.277C3.659 13.3 3.822 13 4 13c.178 0 .341.3.553.723C4.822 14.261 5.19 15 6 15s1.179-.739 1.448-1.277c.212-.423.376-.723.553-.723.178 0 .341.3.553.723.269.54.638 1.277 1.447 1.277s1.178-.738 1.447-1.277c.212-.423.375-.723.553-.723.177 0 .341.3.552.723.269.538.638 1.277 1.448 1.277.451 0 .763-.233.999-.529v-1.94z" fill="#FFC9BD"/><linearGradient id="b" x1=".5" y1=".013" x2=".5" y2="1"><stop offset="0" stop-color="#5572A1"/><stop offset="1" stop-color="#405980"/></linearGradient><path fill-rule="evenodd" d="M6.586 0L2 4.586v.828L6.586 10H10V8.697L8.868 7H15V3H8.868L10 1.303V0H6.586z" fill="url(#b)"/><linearGradient id="c" x1=".5" y1=".041" x2=".5" y2="1.017"><stop offset="0" stop-color="#8CD5FF"/><stop offset=".994" stop-color="#20A2FF"/><stop offset="1" stop-color="#20A2FF"/></linearGradient><path fill-rule="evenodd" d="M7 1L3 5l4 4h2L7 6h7V4H7l2-3H7z" fill="url(#c)"/></svg>