<svg ti:v="1" width="16" height="16" viewBox="0 0 16 16" xmlns="http://www.w3.org/2000/svg" xmlns:ti="urn:schemas-jetbrains-com:tisvg"><rect id="frame" width="16" height="16" fill="none"/><g fill-rule="evenodd"><path d="M14.94 11l-.723.908c-.08.1-.15.201-.216.304-.37-.578-.977-1.212-2-1.212-1.022 0-1.629.634-2 1.211-.372-.577-.979-1.211-2-1.211-1.023 0-1.629.634-2 1.212C5.628 11.635 5.021 11 4 11c-1.025 0-1.63.634-2 1.211a3.893 3.893 0 0 0-.219-.306L1.06 11H0v3.817l.216.273c.597.752 1.3.91 1.785.91 1.022 0 1.628-.633 2-1.211.37.577.977 1.211 2 1.211 1.02 0 1.627-.634 2-1.212.371.578.977 1.212 2 1.212 1.021 0 1.628-.633 2-1.211.371.577.978 1.211 2 1.211.482 0 1.183-.157 1.78-.904l.22-.274V11h-1.06z" fill="#F4F4F4"/><path d="M15 12.531c-.187.234-.327.508-.446.745-.212.424-.375.724-.553.724-.178 0-.342-.3-.554-.724-.268-.539-.637-1.276-1.446-1.276-.809 0-1.178.737-1.447 1.276-.212.424-.375.724-.553.724-.178 0-.341-.3-.553-.724C9.179 12.737 8.81 12 8.001 12s-1.178.737-1.447 1.276C6.342 13.7 6.178 14 6 14c-.178 0-.341-.3-.553-.724C5.178 12.738 4.81 12 4 12s-1.179.738-1.447 1.277c-.212.423-.375.723-.552.723-.178 0-.341-.3-.553-.724A4.24 4.24 0 0 0 1 12.528v1.941c.236.297.549.531 1.001.531.81 0 1.178-.738 1.446-1.277C3.659 13.3 3.822 13 4 13c.178 0 .341.3.553.723C4.822 14.261 5.19 15 6 15s1.179-.739 1.448-1.277c.212-.423.376-.723.553-.723.178 0 .341.3.553.723.269.54.638 1.277 1.447 1.277s1.178-.738 1.447-1.277c.212-.423.375-.723.553-.723.177 0 .341.3.552.723.269.538.638 1.277 1.448 1.277.451 0 .763-.233.999-.529v-1.94z"/><path d="M2 5.414v-.828L6.586 0H10v1.303L8.868 3H15v4H8.868L10 8.697V10H6.586L2 5.414z" fill="#F4F4F4"/><path d="M7 9L3 5l4-4h2L7 4h7v2H7l2 3H7z" fill="#00529C"/></g></svg>