<svg ti:v="1" width="16" height="16" viewBox="0 0 16 16" xmlns="http://www.w3.org/2000/svg" xmlns:ti="urn:schemas-jetbrains-com:tisvg"><rect id="frame" width="16" height="16" fill="none"/><g fill-rule="evenodd"><path d="M0 7V0h16v4H9v3H0z" fill="#242424"/><path d="M15 1H1v2h14M8 4H1v2h7V4z" fill="#C4C4C4"/><path d="M11 3H8v4h2v3H6.618L7 9.236V8H4.586L1 11.586v.828L4.586 16H7v-1.236L6.618 14H11c1.654 0 3-1.346 3-3V6c0-1.654-1.346-3-3-3z" fill="#242424"/><path d="M9 6h2v5H5l1-2H5l-3 3 3 3h1l-1-2h6a2 2 0 0 0 2-2V6a2 2 0 0 0-2-2H9v2z" fill="#7BBEFF"/></g></svg>