<svg width="48" height="48" viewBox="0 0 48 48" fill="none" xmlns="http://www.w3.org/2000/svg"><rect id="frame" width="48" height="48" fill="none"/><path d="M44 4H4v40h40V4z" fill="url(#paint0_linear)"/><path d="M39 9H9v30h30V9z" fill="url(#paint1_linear)"/><path d="M23.25 34H12v1.929h11.25V34z" fill="#fff"/><path d="M12.536 12.75h4.5c2.678 0 4.285 1.607 4.285 3.857 0 2.572-2.035 3.964-4.5 3.964H15v3.322h-2.464V12.75zm4.393 5.679c1.178 0 1.928-.75 1.928-1.715 0-1.071-.75-1.714-2.036-1.714h-1.928v3.429h2.036z" fill="#fff"/><path d="M31.905 12.75v2.188h-5.968v2.288h5.321v2.188h-5.321v2.288h6.117v2.188H23.5V12.75h8.405z" fill="#fff"/><defs><linearGradient id="paint0_linear" x1="43.497" y1="43.497" x2="-6.389" y2="-6.389" gradientUnits="userSpaceOnUse"><stop offset=".482" stop-color="#21D789"/><stop offset=".726" stop-color="#FCF84A"/></linearGradient><linearGradient id="paint1_linear" x1="23.999" y1="1.707" x2="23.999" y2="28.611" gradientUnits="userSpaceOnUse"><stop offset=".084" stop-color="#878585"/><stop offset=".538"/></linearGradient></defs></svg>