<svg width="80" height="80" viewBox="0 0 80 80" fill="none" xmlns="http://www.w3.org/2000/svg"><rect id="frame" width="80" height="80" fill="none"/><path d="M75 5H5v70h70V5z" fill="url(#paint0_linear)"/><path d="M65 15H15v50h50V15z" fill="url(#paint1_linear)"/><path d="M39.9 55.5H21.2v3.1h18.7v-3.1z" fill="#fff"/><path d="M20.893 21.25h7.5c4.464 0 7.143 2.678 7.143 6.428 0 4.286-3.393 6.608-7.5 6.608H25v5.535h-4.107V21.25zm7.321 9.464c1.965 0 3.215-1.25 3.215-2.857 0-1.786-1.25-2.857-3.393-2.857H24.82v5.714h3.393z" fill="#fff"/><path d="M52.51 21.25v3.648h-9.948v3.813h8.87v3.648h-8.87v3.813H52.76v3.648H38.5V21.25h14.01z" fill="#fff"/><defs><linearGradient id="paint0_linear" x1="74.119" y1="74.12" x2="-13.181" y2="-13.18" gradientUnits="userSpaceOnUse"><stop offset=".482" stop-color="#21D789"/><stop offset=".726" stop-color="#FCF84A"/></linearGradient><linearGradient id="paint1_linear" x1="39.999" y1="2.846" x2="39.999" y2="47.685" gradientUnits="userSpaceOnUse"><stop offset=".084" stop-color="#878585"/><stop offset=".538"/></linearGradient></defs></svg>