<svg width="128" height="128" viewBox="0 0 128 128" fill="none" xmlns="http://www.w3.org/2000/svg"><rect id="frame" width="128" height="128" fill="none"/><path d="M117 11H11v106h106V11z" fill="url(#paint0_linear)"/><path d="M103 25H25v78h78V25z" fill="url(#paint1_linear)"/><path d="M62.7 89.567H33.667v4.767H62.7v-4.767z" fill="#fff"/><path d="M34.533 34.533H46.45c6.933 0 11.158 4.117 11.158 10.075v.109c0 6.716-5.308 10.291-11.808 10.291h-4.875v8.775h-6.392v-29.25zm11.484 14.625c3.25 0 5.091-1.842 5.091-4.333v-.108c0-2.925-1.95-4.442-5.2-4.442h-4.983v8.883h5.092z" fill="#fff"/><path d="M84.068 34.53v5.746h-15.67v6.006h13.973v5.746H68.398v6.007H84.46v5.745H62V34.53h22.068z" fill="#fff"/><defs><linearGradient id="paint0_linear" x1="115.666" y1="115.667" x2="-16.532" y2="-16.53" gradientUnits="userSpaceOnUse"><stop offset=".482" stop-color="#21D789"/><stop offset=".726" stop-color="#FCF84A"/></linearGradient><linearGradient id="paint1_linear" x1="63.896" y1="6.042" x2="63.896" y2="75.993" gradientUnits="userSpaceOnUse"><stop offset=".084" stop-color="#878585"/><stop offset=".538"/></linearGradient></defs></svg>