<svg width="70" height="70" viewBox="0 0 70 70" fill="none" xmlns="http://www.w3.org/2000/svg">
<path d="M67.8 19.7L64.7 43.9L63 54.6L41.4 67.8L14.6 47.3L47.2 13.1L67.8 19.7Z" fill="url(#paint0_linear)"/>
<path d="M41.3999 62.4V64.3H43.6999L44.3999 63.1L41.3999 62.4Z" fill="url(#paint1_linear)"/>
<path d="M61.3999 53.4L64.6999 43.9L66.5999 57.7L61.3999 53.4Z" fill="url(#paint2_linear)"/>
<path d="M67.7999 19.7L29.9999 45.5L12.8999 48.1L47.1999 3.3L67.7999 19.7Z" fill="url(#paint3_linear)"/>
<path d="M40 12.9L47.2 3.3L45.9 23.1L40 12.9Z" fill="url(#paint4_linear)"/>
<path d="M12.6999 48L2.8999 40.9L12.2999 31.5L40.3999 42.9L12.6999 48Z" fill="url(#paint5_linear)"/>
<path d="M28.8 59L7.5 66.2L12.9 51.1L39 41L53.5 49.9L28.8 59Z" fill="url(#paint6_linear)"/>
<path d="M22.8 16L11.7 2.2L33.2 4.7L35.5999 11.8L22.8 16Z" fill="url(#paint7_linear)"/>
<path d="M64.7 43.9L33.2 4.7L21.6 4.9L15.1 24L56 46.4L49.1 56.6L63 54.6L64.7 43.9Z" fill="url(#paint8_linear)"/>
<path d="M15 25.1L7.69995 24.9L11.7 2.2L21.6 4.9L15 25.1Z" fill="url(#paint9_linear)"/>
<path d="M56 46.4L37.7 42.5L2.19995 28.2L15.3 24.1L56 46.4Z" fill="url(#paint10_linear)"/>
<path d="M20.4 8.3L15.2 24.1V24.2L15.3 24.1L40.9 38.2L41.5 38.3L52.0999 30.4L20.4 8.3Z" fill="url(#paint11_linear)"/>
<path d="M11.7 2.2L2.19995 28.2L14.3 25.1L15.2 24.1L20.4 8.3L11.7 2.2Z" fill="url(#paint12_linear)"/>
<path d="M7.5 66.2L15.6 33.7L37.7 42.5L7.5 66.2Z" fill="url(#paint13_linear)"/>
<path d="M37.6999 42.5L25.3999 31.9L8.5999 30.3L2.8999 40.9L14.8999 36H14.9999L7.4999 66.2L37.6999 42.5Z" fill="url(#paint14_linear)"/>
<path d="M55.9999 46.4L44.5999 63.2L28.7999 59.1L37.6999 42.5L55.9999 46.4Z" fill="url(#paint15_linear)"/>
<path d="M56 46.4L37.7 42.5L2.19995 28.2L15.3 24.1L56 46.4Z" fill="url(#paint16_linear)"/>
<path d="M15.3 24.1L2.19995 28.2L40.9 38.2L15.3 24.1Z" fill="url(#paint17_linear)"/>
<path d="M62.9999 54.6L48.6999 56.6L41.2999 67.8L66.5999 57.7L62.9999 54.6Z" fill="url(#paint18_linear)"/>
<path d="M41.2999 67.8L48.9999 56.7L28.7999 59.2L41.2999 67.8Z" fill="url(#paint19_linear)"/>
<path d="M52.1 30.4L35.4 18.7L26.5 30.2L41.5 38.3L51.5 30.8L52.1 30.4Z" fill="url(#paint20_linear)"/>
<path d="M55 15H15V55H55V15Z" fill="url(#paint21_linear)"/>
<g opacity="0.3">
<path d="M54.2893 55L55 54.9147V46.4428L49.1436 55H54.2893Z" fill="url(#paint22_linear)"/>
<path d="M40.6148 15H19.0085L15.8244 24.3817L53.2942 44.936L15.9666 24.5238L15 24.8365V33.1095L37.6013 42.2068L55 45.9595V45.8742V32.9104L40.6148 15Z" fill="url(#paint23_linear)"/>
<path d="M19.0084 15L15.8243 24.3817L54.9999 45.8742V32.9104L40.6147 15H19.0084Z" fill="url(#paint24_linear)"/>
<path d="M15 15V25.462L15.0569 25.4335L15.9382 24.5238L19.0654 15H15Z" fill="#85FFF6"/>
<path d="M15 24.8365V33.1094L37.6013 42.2068L55 45.9595V45.8742L15.9666 24.5238L15 24.8365Z" fill="url(#paint25_linear)"/>
<path d="M15 31.4321L40.7285 38.0561L15.9666 24.5238L15 24.8365V31.4321Z" fill="url(#paint26_linear)"/>
<path d="M30.7498 55L37.6012 42.2068L21.2828 55H30.7498Z" fill="url(#paint27_linear)"/>
<path d="M15 38.9943L15.7676 35.924L15.6254 35.9808L15 36.2367V38.9943Z" fill="#F7941D"/>
<path d="M15 36.2367L15.6254 35.9808L15.7676 35.9239L15 38.9943V55H21.2829L37.6013 42.2068L15 33.1095V36.2367Z" fill="url(#paint28_linear)"/>
<path d="M30.7498 55H49.1435L54.9999 46.4428V45.9595L37.6012 42.2068L30.7498 55Z" fill="url(#paint29_linear)"/>
<path d="M52.5552 29.8401L55.0001 28.1912V15H40.6149L52.5552 29.8401Z" fill="url(#paint30_linear)"/>
</g>
<path d="M35 47.4H20V49.9H35V47.4Z" fill="white"/>
<path d="M27.5 22.7V20H20V22.7H22.1V32.2H20V34.9H27.5V32.2H25.4V22.7H27.5Z" fill="white"/>
<path d="M34.6 35.1C33.4 35.1 32.5001 34.9 31.7001 34.4C30.9001 34 30.3 33.4 29.8 32.8L31.9 30.5C32.3 31 32.8001 31.3 33.2001 31.6C33.6001 31.9 34.1 32 34.6 32C35.2 32 35.7 31.8 36.1 31.4C36.5 31 36.6 30.4 36.6 29.5V20H40V29.8C40 30.7 39.9 31.5 39.6 32.1C39.4 32.8 39 33.3 38.6 33.8C38.1 34.3 37.6001 34.6 36.9001 34.8C36.2001 35 35.4 35.1 34.6 35.1Z" fill="white"/>
<defs>
<linearGradient id="paint0_linear" x1="69.2292" y1="19.6375" x2="53.6166" y2="35.3535" gradientUnits="userSpaceOnUse">
<stop offset="0.2859" stop-color="#087CFA"/>
<stop offset="1" stop-color="#079AF6"/>
</linearGradient>
<linearGradient id="paint1_linear" x1="42.9801" y1="63.8183" x2="43.5236" y2="64.6069" gradientUnits="userSpaceOnUse">
<stop offset="0.2859" stop-color="#087CFA"/>
<stop offset="1" stop-color="#079AF6"/>
</linearGradient>
<linearGradient id="paint2_linear" x1="62.813" y1="59.0865" x2="67.5191" y2="44.9071" gradientUnits="userSpaceOnUse">
<stop offset="0.2708" stop-color="#08DBF9"/>
<stop offset="0.4026" stop-color="#15CDF3"/>
<stop offset="0.651" stop-color="#36A9E5"/>
<stop offset="0.9871" stop-color="#6B6ECD"/>
<stop offset="1" stop-color="#6D6CCC"/>
</linearGradient>
<linearGradient id="paint3_linear" x1="69.0892" y1="5.9418" x2="30.9517" y2="29.0036" gradientUnits="userSpaceOnUse">
<stop offset="0.286" stop-color="#0AEFFF"/>
<stop offset="0.3292" stop-color="#09DEFA"/>
<stop offset="0.3966" stop-color="#07CAF4"/>
<stop offset="0.442" stop-color="#07C3F2"/>
<stop offset="0.5015" stop-color="#07ACF5"/>
<stop offset="0.5749" stop-color="#0897F7"/>
<stop offset="0.6568" stop-color="#0888F9"/>
<stop offset="0.7528" stop-color="#087FFA"/>
<stop offset="0.8981" stop-color="#087CFA"/>
</linearGradient>
<linearGradient id="paint4_linear" x1="43.5706" y1="1.7276" x2="43.5706" y2="27.0239" gradientUnits="userSpaceOnUse">
<stop offset="0.207" stop-color="#02C5FE"/>
<stop offset="0.317" stop-color="#04ACFD"/>
<stop offset="0.4435" stop-color="#0697FB"/>
<stop offset="0.5845" stop-color="#0788FB"/>
<stop offset="0.7499" stop-color="#087FFA"/>
<stop offset="1" stop-color="#087CFA"/>
</linearGradient>
<linearGradient id="paint5_linear" x1="7.0283" y1="31.9412" x2="18.7119" y2="40.0059" gradientUnits="userSpaceOnUse">
<stop stop-color="#42FFFA"/>
<stop offset="0.157" stop-color="#3AF7F9"/>
<stop offset="0.4049" stop-color="#24E0F6"/>
<stop offset="0.4943" stop-color="#1AD6F5"/>
<stop offset="0.9028" stop-color="#07C3F2"/>
</linearGradient>
<linearGradient id="paint6_linear" x1="20.1093" y1="46.8652" x2="29.6437" y2="57.133" gradientUnits="userSpaceOnUse">
<stop offset="0.3536" stop-color="#07C3F2"/>
<stop offset="0.52" stop-color="#1CAEF2"/>
<stop offset="0.6811" stop-color="#3595F3"/>
<stop offset="0.8463" stop-color="#2089F6"/>
<stop offset="1" stop-color="#087CFA"/>
</linearGradient>
<linearGradient id="paint7_linear" x1="22.1725" y1="0.511597" x2="25.2104" y2="13.802" gradientUnits="userSpaceOnUse">
<stop stop-color="#71FFFB"/>
<stop offset="0.3126" stop-color="#CAFFFE"/>
<stop offset="0.5939" stop-color="#42FFFA"/>
<stop offset="0.6862" stop-color="#3AF7F9"/>
<stop offset="0.8317" stop-color="#23E0F6"/>
<stop offset="0.976" stop-color="#07C3F2"/>
</linearGradient>
<linearGradient id="paint8_linear" x1="19.9885" y1="13.8632" x2="65.839" y2="50.2636" gradientUnits="userSpaceOnUse">
<stop stop-color="#27E4F6"/>
<stop offset="0.2282" stop-color="#07C3F2"/>
<stop offset="0.3408" stop-color="#07AEF4"/>
<stop offset="0.5521" stop-color="#087CFA"/>
<stop offset="0.7522" stop-color="#087CFA"/>
<stop offset="0.9812" stop-color="#07C3F2"/>
</linearGradient>
<linearGradient id="paint9_linear" x1="9.10465" y1="12.3617" x2="18.3946" y2="16.5992" gradientUnits="userSpaceOnUse">
<stop offset="0.2048" stop-color="#42FFFA"/>
<stop offset="0.2906" stop-color="#68FFFB"/>
<stop offset="0.41" stop-color="#96FFFC"/>
<stop offset="0.53" stop-color="#BCFFFD"/>
<stop offset="0.6485" stop-color="#D9FFFE"/>
<stop offset="0.7651" stop-color="#EEFFFF"/>
<stop offset="0.8792" stop-color="#FBFFFF"/>
<stop offset="0.9874" stop-color="white"/>
</linearGradient>
<linearGradient id="paint10_linear" x1="7.24015" y1="25.3849" x2="52.7035" y2="49.0371" gradientUnits="userSpaceOnUse">
<stop offset="0.2464" stop-color="#FE2857"/>
<stop offset="0.292" stop-color="#FE265F"/>
<stop offset="0.3641" stop-color="#FE1F76"/>
<stop offset="0.4534" stop-color="#FF159B"/>
<stop offset="0.4574" stop-color="#FF149D"/>
<stop offset="0.536" stop-color="#EF1AB2"/>
<stop offset="0.6983" stop-color="#C82BE9"/>
<stop offset="0.7574" stop-color="#B831FF"/>
<stop offset="0.811" stop-color="#A33AFE"/>
<stop offset="0.9215" stop-color="#6C52FD"/>
<stop offset="1" stop-color="#4164FC"/>
</linearGradient>
<linearGradient id="paint11_linear" x1="17.2358" y1="15.5763" x2="42.9053" y2="33.9117" gradientUnits="userSpaceOnUse">
<stop offset="0.00823305" stop-color="#42FFFA"/>
<stop offset="0.1549" stop-color="#27E4F6"/>
<stop offset="0.3008" stop-color="#11CDF3"/>
<stop offset="0.3345" stop-color="#0FCBF3"/>
<stop offset="0.5125" stop-color="#07C3F2"/>
<stop offset="0.6963" stop-color="#3595F3"/>
</linearGradient>
<linearGradient id="paint12_linear" x1="6.79865" y1="15.0964" x2="15.6608" y2="20.7803" gradientUnits="userSpaceOnUse">
<stop offset="0.0433729" stop-color="#42FFFA"/>
<stop offset="0.2066" stop-color="#7DFFFB"/>
<stop offset="0.2976" stop-color="#A0FFFC"/>
<stop offset="0.6631" stop-color="#B7FFFF"/>
<stop offset="0.9409" stop-color="#57FFFB"/>
<stop offset="1" stop-color="#42FFFA"/>
</linearGradient>
<linearGradient id="paint13_linear" x1="-0.4633" y1="31.7706" x2="40.5671" y2="71.9265" gradientUnits="userSpaceOnUse">
<stop offset="0.0226617" stop-color="#FC801D"/>
<stop offset="0.2467" stop-color="#FC7E20"/>
<stop offset="0.276" stop-color="#FC772A"/>
<stop offset="0.3253" stop-color="#FD6444"/>
<stop offset="0.3881" stop-color="#FE466E"/>
<stop offset="0.4273" stop-color="#FF318C"/>
<stop offset="0.4924" stop-color="#EA3896"/>
<stop offset="0.6276" stop-color="#B248AE"/>
<stop offset="0.8194" stop-color="#5A63D6"/>
<stop offset="0.9859" stop-color="#087CFA"/>
</linearGradient>
<linearGradient id="paint14_linear" x1="9.595" y1="31.8823" x2="22.544" y2="54.2586" gradientUnits="userSpaceOnUse">
<stop offset="0.00442798" stop-color="#42FFFA"/>
<stop offset="0.1542" stop-color="#42FFFA"/>
<stop offset="0.2294" stop-color="#3BF7F9"/>
<stop offset="0.343" stop-color="#26E3F6"/>
<stop offset="0.4724" stop-color="#07C3F2"/>
<stop offset="0.6565" stop-color="#3595F3"/>
<stop offset="0.8856" stop-color="#3595F3"/>
</linearGradient>
<linearGradient id="paint15_linear" x1="36.5641" y1="43.4179" x2="48.5366" y2="62.4919" gradientUnits="userSpaceOnUse">
<stop offset="0.0211218" stop-color="#087CFA"/>
<stop offset="0.3042" stop-color="#087CFA"/>
<stop offset="0.7942" stop-color="#07C3F2"/>
</linearGradient>
<linearGradient id="paint16_linear" x1="7.24015" y1="25.3849" x2="52.7035" y2="49.0371" gradientUnits="userSpaceOnUse">
<stop offset="0.1401" stop-color="#07C3F2"/>
<stop offset="0.321" stop-color="#07AEF4"/>
<stop offset="0.6603" stop-color="#087CFA"/>
<stop offset="1" stop-color="#3595F3"/>
</linearGradient>
<linearGradient id="paint17_linear" x1="11.4078" y1="27.5256" x2="32.3795" y2="39.1907" gradientUnits="userSpaceOnUse">
<stop stop-color="#1DD9F5"/>
<stop offset="0.3352" stop-color="#07C3F2"/>
<stop offset="0.6729" stop-color="#1CAEF2"/>
<stop offset="1" stop-color="#3595F3"/>
</linearGradient>
<linearGradient id="paint18_linear" x1="64.7645" y1="54.8251" x2="41.7027" y2="63.463" gradientUnits="userSpaceOnUse">
<stop stop-color="#07C3F2"/>
<stop offset="0.0971854" stop-color="#05B5ED"/>
<stop offset="0.2458" stop-color="#02A6E9"/>
<stop offset="0.4209" stop-color="#009DE6"/>
<stop offset="0.6854" stop-color="#009AE5"/>
</linearGradient>
<linearGradient id="paint19_linear" x1="30.3088" y1="56.9407" x2="46.0365" y2="62.5635" gradientUnits="userSpaceOnUse">
<stop offset="0.1529" stop-color="#087CFA"/>
<stop offset="0.6343" stop-color="#009AE5"/>
<stop offset="1" stop-color="#05B6EE"/>
</linearGradient>
<linearGradient id="paint20_linear" x1="32.566" y1="20.8259" x2="42.2539" y2="34.4882" gradientUnits="userSpaceOnUse">
<stop stop-color="#07C3F2"/>
<stop offset="0.6392" stop-color="#3595F3"/>
<stop offset="0.7656" stop-color="#298EF5"/>
<stop offset="0.9941" stop-color="#097DFA"/>
<stop offset="1" stop-color="#087CFA"/>
</linearGradient>
<linearGradient id="paint21_linear" x1="14.3826" y1="18.1926" x2="55.3427" y2="51.5859" gradientUnits="userSpaceOnUse">
<stop offset="0.0162265" stop-color="#022244"/>
<stop offset="0.2475" stop-color="#011327"/>
<stop offset="0.48" stop-color="#010911"/>
<stop offset="0.7054" stop-color="#000204"/>
<stop offset="0.9138"/>
</linearGradient>
<linearGradient id="paint22_linear" x1="49.1555" y1="50.7258" x2="55.0129" y2="50.7258" gradientUnits="userSpaceOnUse">
<stop stop-color="#087CFA"/>
<stop offset="0.7942" stop-color="#000216"/>
</linearGradient>
<linearGradient id="paint23_linear" x1="15" y1="30.4801" x2="55.013" y2="30.4801" gradientUnits="userSpaceOnUse">
<stop offset="0.2464" stop-color="#FE2857"/>
<stop offset="0.292" stop-color="#FE265F"/>
<stop offset="0.3641" stop-color="#FE1F76"/>
<stop offset="0.4534" stop-color="#FF159B"/>
<stop offset="0.4574" stop-color="#FF149D"/>
<stop offset="0.536" stop-color="#EF1AB2"/>
<stop offset="0.6983" stop-color="#C82BE9"/>
<stop offset="0.7574" stop-color="#B831FF"/>
<stop offset="0.811" stop-color="#A33AFE"/>
<stop offset="0.9215" stop-color="#6C52FD"/>
<stop offset="1" stop-color="#4164FC"/>
</linearGradient>
<linearGradient id="paint24_linear" x1="15.8184" y1="30.4345" x2="55.0129" y2="30.4345" gradientUnits="userSpaceOnUse">
<stop stop-color="#42FFFA"/>
<stop offset="0.0408124" stop-color="#3AF7F9"/>
<stop offset="0.1052" stop-color="#23E0F6"/>
<stop offset="0.1691" stop-color="#07C3F2"/>
<stop offset="0.3611" stop-color="#07C3F2"/>
<stop offset="0.5398" stop-color="#0888F9"/>
<stop offset="0.5728" stop-color="#087CFA"/>
<stop offset="0.6996" stop-color="#0659BC"/>
<stop offset="0.9919" stop-color="#000220"/>
<stop offset="1" stop-color="#00001C"/>
</linearGradient>
<linearGradient id="paint25_linear" x1="15" y1="35.2452" x2="55.013" y2="35.2452" gradientUnits="userSpaceOnUse">
<stop offset="0.0878508" stop-color="#087CFA"/>
<stop offset="0.2751" stop-color="#087CFA"/>
<stop offset="0.2903" stop-color="#0877F1"/>
<stop offset="0.4275" stop-color="#054DA4"/>
<stop offset="0.5498" stop-color="#032C66"/>
<stop offset="0.6528" stop-color="#01143A"/>
<stop offset="0.7324" stop-color="#00051F"/>
<stop offset="0.7791" stop-color="#000015"/>
</linearGradient>
<linearGradient id="paint26_linear" x1="18.8732" y1="29.744" x2="34.5425" y2="38.4598" gradientUnits="userSpaceOnUse">
<stop stop-color="#07C3F2"/>
<stop offset="0.3478" stop-color="#07AEF4"/>
<stop offset="1" stop-color="#087CFA"/>
</linearGradient>
<linearGradient id="paint27_linear" x1="21.2854" y1="48.6102" x2="37.5875" y2="48.6102" gradientUnits="userSpaceOnUse">
<stop offset="0.0878508" stop-color="#087CFA"/>
<stop offset="0.4746" stop-color="#087CFA"/>
<stop offset="0.4905" stop-color="#0877F1"/>
<stop offset="0.6335" stop-color="#054DA4"/>
<stop offset="0.761" stop-color="#032C66"/>
<stop offset="0.8684" stop-color="#01143A"/>
<stop offset="0.9514" stop-color="#00051F"/>
<stop offset="1" stop-color="#000015"/>
</linearGradient>
<linearGradient id="paint28_linear" x1="15" y1="44.0642" x2="37.5875" y2="44.0642" gradientUnits="userSpaceOnUse">
<stop offset="0.0878508" stop-color="#087CFA"/>
<stop offset="0.4746" stop-color="#087CFA"/>
<stop offset="0.4905" stop-color="#0877F1"/>
<stop offset="0.6335" stop-color="#054DA4"/>
<stop offset="0.761" stop-color="#032C66"/>
<stop offset="0.8684" stop-color="#01143A"/>
<stop offset="0.9514" stop-color="#00051F"/>
<stop offset="1" stop-color="#000015"/>
</linearGradient>
<linearGradient id="paint29_linear" x1="30.7633" y1="48.6102" x2="55.0129" y2="48.6102" gradientUnits="userSpaceOnUse">
<stop stop-color="#087CFA"/>
<stop offset="0.7942" stop-color="#000216"/>
</linearGradient>
<linearGradient id="paint30_linear" x1="71.3403" y1="53.0916" x2="45.843" y2="11.8024" gradientUnits="userSpaceOnUse">
<stop offset="0.1908" stop-color="#3595F3"/>
<stop offset="0.8951" stop-color="#000020"/>
</linearGradient>
</defs>
</svg>
