<svg width="48" height="48" viewBox="0 0 48 48" fill="none" xmlns="http://www.w3.org/2000/svg">
<path d="M46.5 13.5L44.4 30.1L43.2 37.5L28.4 46.5L10 32.4L32.3 9L46.5 13.5Z" fill="url(#paint0_linear)"/>
<path d="M28.4 42.8V44.1H29.9L30.5 43.3L28.4 42.8Z" fill="url(#paint1_linear)"/>
<path d="M42.1 36.7L44.4 30.1L45.7 39.6L42.1 36.7Z" fill="url(#paint2_linear)"/>
<path d="M46.5 13.5L20.6 31.2L8.80005 33L32.3 2.2L46.5 13.5Z" fill="url(#paint3_linear)"/>
<path d="M27.4 8.9L32.3 2.2L31.5 15.8L27.4 8.9Z" fill="url(#paint4_linear)"/>
<path d="M8.7 32.9L2 28L8.4 21.6L27.7 29.4L8.7 32.9Z" fill="url(#paint5_linear)"/>
<path d="M19.8 40.5L5.09998 45.4L8.79998 35L26.7 28.1L36.7 34.3L19.8 40.5Z" fill="url(#paint6_linear)"/>
<path d="M15.6 11L8 1.5L22.7 3.2L24.4 8.1L15.6 11Z" fill="url(#paint7_linear)"/>
<path d="M44.4001 30.1L22.7 3.2L14.8 3.4L10.3 16.4L38.4001 31.8L33.7001 38.8L43.2001 37.5L44.4001 30.1Z" fill="url(#paint8_linear)"/>
<path d="M10.3 17.2L5.30005 17.1L8.00005 1.5L14.8 3.4L10.3 17.2Z" fill="url(#paint9_linear)"/>
<path d="M38.4 31.8L25.8 29.1L1.5 19.3L10.5 16.5L38.4 31.8Z" fill="url(#paint10_linear)"/>
<path d="M14 5.7L10.4 16.5V16.6L10.5 16.5L28.1 26.2L28.4 26.3L35.7 20.8L14 5.7Z" fill="url(#paint11_linear)"/>
<path d="M8 1.5L1.5 19.3L9.8 17.2L10.4 16.5L14 5.7L8 1.5Z" fill="url(#paint12_linear)"/>
<path d="M5.09998 45.4L10.7 23.1L25.8 29.1L5.09998 45.4Z" fill="url(#paint13_linear)"/>
<path d="M25.8 29.1L17.4 21.8L5.9 20.8L2 28L10.2 24.7H10.3L5.1 45.4L25.8 29.1Z" fill="url(#paint14_linear)"/>
<path d="M38.4001 31.8L30.6 43.3L19.8 40.5L25.8 29.1L38.4001 31.8Z" fill="url(#paint15_linear)"/>
<path d="M38.4 31.8L25.8 29.1L1.5 19.3L10.5 16.5L38.4 31.8Z" fill="url(#paint16_linear)"/>
<path d="M10.5 16.5L1.5 19.3L28.1 26.2L10.5 16.5Z" fill="url(#paint17_linear)"/>
<path d="M43.2 37.5L33.4 38.8L28.4 46.5L45.7 39.6L43.2 37.5Z" fill="url(#paint18_linear)"/>
<path d="M28.4 46.5L33.5999 38.9L19.7 40.6L28.4 46.5Z" fill="url(#paint19_linear)"/>
<path d="M35.7 20.8L24.2 12.8L18.2 20.7L28.4 26.3L35.2999 21.1L35.7 20.8Z" fill="url(#paint20_linear)"/>
<path d="M38 10H10V38H38V10Z" fill="url(#paint21_linear)"/>
<g opacity="0.2">
<path d="M37.5025 38L38 37.9403V32.0099L33.9005 38H37.5025Z" fill="url(#paint22_linear)"/>
<path d="M27.9303 10H12.806L10.5771 16.5672L36.806 30.9552L10.6766 16.6667L10 16.8856V22.6766L25.8209 29.0448L38 31.6716V31.6119V22.5373L27.9303 10Z" fill="url(#paint23_linear)"/>
<path d="M12.806 10L10.5771 16.5672L38 31.6119V22.5373L27.9304 10H12.806Z" fill="url(#paint24_linear)"/>
<path d="M10 10V17.3234L10.0398 17.3035L10.6567 16.6667L12.8458 10H10Z" fill="#85FFF6"/>
<path d="M10 16.8856V22.6766L25.8209 29.0448L38 31.6716V31.6119L10.6766 16.6667L10 16.8856Z" fill="url(#paint25_linear)"/>
<path d="M10 21.5025L28.0099 26.1393L10.6766 16.6667L10 16.8856V21.5025Z" fill="url(#paint26_linear)"/>
<path d="M21.0248 38L25.8208 29.0448L14.3979 38H21.0248Z" fill="url(#paint27_linear)"/>
<path d="M10 26.796L10.5373 24.6468L10.4378 24.6866L10 24.8657V26.796Z" fill="#F7941D"/>
<path d="M10 24.8657L10.4378 24.6866L10.5373 24.6468L10 26.796V38H14.398L25.8209 29.0448L10 22.6766V24.8657Z" fill="url(#paint28_linear)"/>
<path d="M21.0249 38H33.9005L38 32.01V31.6717L25.8209 29.0448L21.0249 38Z" fill="url(#paint29_linear)"/>
<path d="M36.2886 20.3881L38.0001 19.2338V10H27.9304L36.2886 20.3881Z" fill="url(#paint30_linear)"/>
</g>
<path d="M24 32.7H13.5V34.4H24V32.7Z" fill="white"/>
<path d="M18.7 15.4V13.5H13.5V15.4H15V22H13.5V23.9H18.7V22H17.3V15.4H18.7Z" fill="white"/>
<path d="M23.7 24.1C22.9 24.1 22.2 23.9 21.6 23.6C21 23.3 20.6 22.9 20.2 22.5L21.6 20.9C21.9 21.2 22.2 21.5 22.5 21.7C22.8 21.9 23.1 22 23.5 22C23.9 22 24.3 21.9 24.5 21.6C24.7 21.3 24.9 20.9 24.9 20.3V13.6H27.2999V20.4C27.2999 21 27.2 21.6 27 22C26.8 22.5 26.5999 22.8 26.2999 23.2C25.9999 23.5 25.6 23.8 25.1 23.9C24.8 24 24.3 24.1 23.7 24.1Z" fill="white"/>
<defs>
<linearGradient id="paint0_linear" x1="47.4804" y1="13.4617" x2="36.7706" y2="24.2425" gradientUnits="userSpaceOnUse">
<stop offset="0.2859" stop-color="#087CFA"/>
<stop offset="1" stop-color="#079AF6"/>
</linearGradient>
<linearGradient id="paint1_linear" x1="29.4743" y1="43.7687" x2="29.847" y2="44.3096" gradientUnits="userSpaceOnUse">
<stop offset="0.2859" stop-color="#087CFA"/>
<stop offset="1" stop-color="#079AF6"/>
</linearGradient>
<linearGradient id="paint2_linear" x1="43.0791" y1="40.5227" x2="46.3074" y2="30.796" gradientUnits="userSpaceOnUse">
<stop offset="0.2708" stop-color="#08DBF9"/>
<stop offset="0.4026" stop-color="#15CDF3"/>
<stop offset="0.651" stop-color="#36A9E5"/>
<stop offset="0.9871" stop-color="#6B6ECD"/>
<stop offset="1" stop-color="#6D6CCC"/>
</linearGradient>
<linearGradient id="paint3_linear" x1="47.3845" y1="4.0668" x2="21.223" y2="19.8866" gradientUnits="userSpaceOnUse">
<stop offset="0.286" stop-color="#0AEFFF"/>
<stop offset="0.3292" stop-color="#09DEFA"/>
<stop offset="0.3966" stop-color="#07CAF4"/>
<stop offset="0.442" stop-color="#07C3F2"/>
<stop offset="0.5015" stop-color="#07ACF5"/>
<stop offset="0.5749" stop-color="#0897F7"/>
<stop offset="0.6568" stop-color="#0888F9"/>
<stop offset="0.7528" stop-color="#087FFA"/>
<stop offset="0.8981" stop-color="#087CFA"/>
</linearGradient>
<linearGradient id="paint4_linear" x1="29.8792" y1="1.176" x2="29.8792" y2="18.5286" gradientUnits="userSpaceOnUse">
<stop offset="0.207" stop-color="#02C5FE"/>
<stop offset="0.317" stop-color="#04ACFD"/>
<stop offset="0.4435" stop-color="#0697FB"/>
<stop offset="0.5845" stop-color="#0788FB"/>
<stop offset="0.7499" stop-color="#087FFA"/>
<stop offset="1" stop-color="#087CFA"/>
</linearGradient>
<linearGradient id="paint5_linear" x1="4.8122" y1="21.9017" x2="12.8268" y2="27.434" gradientUnits="userSpaceOnUse">
<stop stop-color="#42FFFA"/>
<stop offset="0.157" stop-color="#3AF7F9"/>
<stop offset="0.4049" stop-color="#24E0F6"/>
<stop offset="0.4943" stop-color="#1AD6F5"/>
<stop offset="0.9028" stop-color="#07C3F2"/>
</linearGradient>
<linearGradient id="paint6_linear" x1="13.7854" y1="32.1393" x2="20.3257" y2="39.1827" gradientUnits="userSpaceOnUse">
<stop offset="0.3536" stop-color="#07C3F2"/>
<stop offset="0.52" stop-color="#1CAEF2"/>
<stop offset="0.6811" stop-color="#3595F3"/>
<stop offset="0.8463" stop-color="#2089F6"/>
<stop offset="1" stop-color="#087CFA"/>
</linearGradient>
<linearGradient id="paint7_linear" x1="15.2007" y1="0.3418" x2="17.2846" y2="9.4587" gradientUnits="userSpaceOnUse">
<stop stop-color="#71FFFB"/>
<stop offset="0.3126" stop-color="#CAFFFE"/>
<stop offset="0.5939" stop-color="#42FFFA"/>
<stop offset="0.6862" stop-color="#3AF7F9"/>
<stop offset="0.8317" stop-color="#23E0F6"/>
<stop offset="0.976" stop-color="#07C3F2"/>
</linearGradient>
<linearGradient id="paint8_linear" x1="13.7025" y1="9.5007" x2="45.1548" y2="34.4705" gradientUnits="userSpaceOnUse">
<stop stop-color="#27E4F6"/>
<stop offset="0.2282" stop-color="#07C3F2"/>
<stop offset="0.3408" stop-color="#07AEF4"/>
<stop offset="0.5521" stop-color="#087CFA"/>
<stop offset="0.7522" stop-color="#087CFA"/>
<stop offset="0.9812" stop-color="#07C3F2"/>
</linearGradient>
<linearGradient id="paint9_linear" x1="6.23645" y1="8.4706" x2="12.6091" y2="11.3775" gradientUnits="userSpaceOnUse">
<stop offset="0.2048" stop-color="#42FFFA"/>
<stop offset="0.2906" stop-color="#68FFFB"/>
<stop offset="0.41" stop-color="#96FFFC"/>
<stop offset="0.53" stop-color="#BCFFFD"/>
<stop offset="0.6485" stop-color="#D9FFFE"/>
<stop offset="0.7651" stop-color="#EEFFFF"/>
<stop offset="0.8792" stop-color="#FBFFFF"/>
<stop offset="0.9874" stop-color="white"/>
</linearGradient>
<linearGradient id="paint10_linear" x1="4.9575" y1="17.4042" x2="36.1442" y2="33.6291" gradientUnits="userSpaceOnUse">
<stop offset="0.2464" stop-color="#FE2857"/>
<stop offset="0.292" stop-color="#FE265F"/>
<stop offset="0.3641" stop-color="#FE1F76"/>
<stop offset="0.4534" stop-color="#FF159B"/>
<stop offset="0.4574" stop-color="#FF149D"/>
<stop offset="0.536" stop-color="#EF1AB2"/>
<stop offset="0.6983" stop-color="#C82BE9"/>
<stop offset="0.7574" stop-color="#B831FF"/>
<stop offset="0.811" stop-color="#A33AFE"/>
<stop offset="0.9215" stop-color="#6C52FD"/>
<stop offset="1" stop-color="#4164FC"/>
</linearGradient>
<linearGradient id="paint11_linear" x1="11.8142" y1="10.6758" x2="29.4229" y2="23.2534" gradientUnits="userSpaceOnUse">
<stop offset="0.00823305" stop-color="#42FFFA"/>
<stop offset="0.1549" stop-color="#27E4F6"/>
<stop offset="0.3008" stop-color="#11CDF3"/>
<stop offset="0.3345" stop-color="#0FCBF3"/>
<stop offset="0.5125" stop-color="#07C3F2"/>
<stop offset="0.6963" stop-color="#3595F3"/>
</linearGradient>
<linearGradient id="paint12_linear" x1="4.6546" y1="10.3466" x2="10.7338" y2="14.2457" gradientUnits="userSpaceOnUse">
<stop offset="0.0433729" stop-color="#42FFFA"/>
<stop offset="0.2066" stop-color="#7DFFFB"/>
<stop offset="0.2976" stop-color="#A0FFFC"/>
<stop offset="0.6631" stop-color="#B7FFFF"/>
<stop offset="0.9409" stop-color="#57FFFB"/>
<stop offset="1" stop-color="#42FFFA"/>
</linearGradient>
<linearGradient id="paint13_linear" x1="-0.326924" y1="21.7847" x2="27.8189" y2="49.3307" gradientUnits="userSpaceOnUse">
<stop offset="0.0226617" stop-color="#FC801D"/>
<stop offset="0.2467" stop-color="#FC7E20"/>
<stop offset="0.276" stop-color="#FC772A"/>
<stop offset="0.3253" stop-color="#FD6444"/>
<stop offset="0.3881" stop-color="#FE466E"/>
<stop offset="0.4273" stop-color="#FF318C"/>
<stop offset="0.4924" stop-color="#EA3896"/>
<stop offset="0.6276" stop-color="#B248AE"/>
<stop offset="0.8194" stop-color="#5A63D6"/>
<stop offset="0.9859" stop-color="#087CFA"/>
</linearGradient>
<linearGradient id="paint14_linear" x1="6.5729" y1="21.8613" x2="15.4556" y2="37.2109" gradientUnits="userSpaceOnUse">
<stop offset="0.00442798" stop-color="#42FFFA"/>
<stop offset="0.1542" stop-color="#42FFFA"/>
<stop offset="0.2294" stop-color="#3BF7F9"/>
<stop offset="0.343" stop-color="#26E3F6"/>
<stop offset="0.4724" stop-color="#07C3F2"/>
<stop offset="0.6565" stop-color="#3595F3"/>
<stop offset="0.8856" stop-color="#3595F3"/>
</linearGradient>
<linearGradient id="paint15_linear" x1="25.073" y1="29.7745" x2="33.2859" y2="42.8587" gradientUnits="userSpaceOnUse">
<stop offset="0.0211218" stop-color="#087CFA"/>
<stop offset="0.3042" stop-color="#087CFA"/>
<stop offset="0.7942" stop-color="#07C3F2"/>
</linearGradient>
<linearGradient id="paint16_linear" x1="4.9575" y1="17.4042" x2="36.1442" y2="33.6291" gradientUnits="userSpaceOnUse">
<stop offset="0.1401" stop-color="#07C3F2"/>
<stop offset="0.321" stop-color="#07AEF4"/>
<stop offset="0.6603" stop-color="#087CFA"/>
<stop offset="1" stop-color="#3595F3"/>
</linearGradient>
<linearGradient id="paint17_linear" x1="7.8163" y1="18.8727" x2="22.2024" y2="26.8747" gradientUnits="userSpaceOnUse">
<stop stop-color="#1DD9F5"/>
<stop offset="0.3352" stop-color="#07C3F2"/>
<stop offset="0.6729" stop-color="#1CAEF2"/>
<stop offset="1" stop-color="#3595F3"/>
</linearGradient>
<linearGradient id="paint18_linear" x1="44.4178" y1="37.5995" x2="28.598" y2="43.525" gradientUnits="userSpaceOnUse">
<stop stop-color="#07C3F2"/>
<stop offset="0.0971854" stop-color="#05B5ED"/>
<stop offset="0.2458" stop-color="#02A6E9"/>
<stop offset="0.4209" stop-color="#009DE6"/>
<stop offset="0.6854" stop-color="#009AE5"/>
</linearGradient>
<linearGradient id="paint19_linear" x1="20.782" y1="39.0508" x2="31.5707" y2="42.9079" gradientUnits="userSpaceOnUse">
<stop offset="0.1529" stop-color="#087CFA"/>
<stop offset="0.6343" stop-color="#009AE5"/>
<stop offset="1" stop-color="#05B6EE"/>
</linearGradient>
<linearGradient id="paint20_linear" x1="22.3304" y1="14.2769" x2="28.976" y2="23.6489" gradientUnits="userSpaceOnUse">
<stop stop-color="#07C3F2"/>
<stop offset="0.6392" stop-color="#3595F3"/>
<stop offset="0.7656" stop-color="#298EF5"/>
<stop offset="0.9941" stop-color="#097DFA"/>
<stop offset="1" stop-color="#087CFA"/>
</linearGradient>
<linearGradient id="paint21_linear" x1="9.5678" y1="12.2348" x2="38.2399" y2="35.6101" gradientUnits="userSpaceOnUse">
<stop offset="0.0162265" stop-color="#022244"/>
<stop offset="0.2475" stop-color="#011327"/>
<stop offset="0.48" stop-color="#010911"/>
<stop offset="0.7054" stop-color="#000204"/>
<stop offset="0.9138"/>
</linearGradient>
<linearGradient id="paint22_linear" x1="33.9089" y1="35.0081" x2="38.0091" y2="35.0081" gradientUnits="userSpaceOnUse">
<stop stop-color="#087CFA"/>
<stop offset="0.7942" stop-color="#000216"/>
</linearGradient>
<linearGradient id="paint23_linear" x1="10" y1="20.8361" x2="38.0091" y2="20.8361" gradientUnits="userSpaceOnUse">
<stop offset="0.2464" stop-color="#FE2857"/>
<stop offset="0.292" stop-color="#FE265F"/>
<stop offset="0.3641" stop-color="#FE1F76"/>
<stop offset="0.4534" stop-color="#FF159B"/>
<stop offset="0.4574" stop-color="#FF149D"/>
<stop offset="0.536" stop-color="#EF1AB2"/>
<stop offset="0.6983" stop-color="#C82BE9"/>
<stop offset="0.7574" stop-color="#B831FF"/>
<stop offset="0.811" stop-color="#A33AFE"/>
<stop offset="0.9215" stop-color="#6C52FD"/>
<stop offset="1" stop-color="#4164FC"/>
</linearGradient>
<linearGradient id="paint24_linear" x1="10.573" y1="20.8042" x2="38.0091" y2="20.8042" gradientUnits="userSpaceOnUse">
<stop stop-color="#42FFFA"/>
<stop offset="0.0408124" stop-color="#3AF7F9"/>
<stop offset="0.1052" stop-color="#23E0F6"/>
<stop offset="0.1691" stop-color="#07C3F2"/>
<stop offset="0.3611" stop-color="#07C3F2"/>
<stop offset="0.5398" stop-color="#0888F9"/>
<stop offset="0.5728" stop-color="#087CFA"/>
<stop offset="0.6996" stop-color="#0659BC"/>
<stop offset="0.9919" stop-color="#000220"/>
<stop offset="1" stop-color="#00001C"/>
</linearGradient>
<linearGradient id="paint25_linear" x1="10" y1="24.1716" x2="38.0091" y2="24.1716" gradientUnits="userSpaceOnUse">
<stop offset="0.0878508" stop-color="#087CFA"/>
<stop offset="0.2751" stop-color="#087CFA"/>
<stop offset="0.2903" stop-color="#0877F1"/>
<stop offset="0.4275" stop-color="#054DA4"/>
<stop offset="0.5498" stop-color="#032C66"/>
<stop offset="0.6528" stop-color="#01143A"/>
<stop offset="0.7324" stop-color="#00051F"/>
<stop offset="0.7791" stop-color="#000015"/>
</linearGradient>
<linearGradient id="paint26_linear" x1="12.7112" y1="20.3208" x2="23.6797" y2="26.4219" gradientUnits="userSpaceOnUse">
<stop stop-color="#07C3F2"/>
<stop offset="0.3478" stop-color="#07AEF4"/>
<stop offset="1" stop-color="#087CFA"/>
</linearGradient>
<linearGradient id="paint27_linear" x1="14.3998" y1="33.5272" x2="25.8112" y2="33.5272" gradientUnits="userSpaceOnUse">
<stop offset="0.0878508" stop-color="#087CFA"/>
<stop offset="0.4746" stop-color="#087CFA"/>
<stop offset="0.4905" stop-color="#0877F1"/>
<stop offset="0.6335" stop-color="#054DA4"/>
<stop offset="0.761" stop-color="#032C66"/>
<stop offset="0.8684" stop-color="#01143A"/>
<stop offset="0.9514" stop-color="#00051F"/>
<stop offset="1" stop-color="#000015"/>
</linearGradient>
<linearGradient id="paint28_linear" x1="10" y1="30.345" x2="25.8113" y2="30.345" gradientUnits="userSpaceOnUse">
<stop offset="0.0878508" stop-color="#087CFA"/>
<stop offset="0.4746" stop-color="#087CFA"/>
<stop offset="0.4905" stop-color="#0877F1"/>
<stop offset="0.6335" stop-color="#054DA4"/>
<stop offset="0.761" stop-color="#032C66"/>
<stop offset="0.8684" stop-color="#01143A"/>
<stop offset="0.9514" stop-color="#00051F"/>
<stop offset="1" stop-color="#000015"/>
</linearGradient>
<linearGradient id="paint29_linear" x1="21.0344" y1="33.5272" x2="38.0091" y2="33.5272" gradientUnits="userSpaceOnUse">
<stop stop-color="#087CFA"/>
<stop offset="0.7942" stop-color="#000216"/>
</linearGradient>
<linearGradient id="paint30_linear" x1="49.4382" y1="36.6641" x2="31.5901" y2="7.76171" gradientUnits="userSpaceOnUse">
<stop offset="0.1908" stop-color="#3595F3"/>
<stop offset="0.8951" stop-color="#000020"/>
</linearGradient>
</defs>
</svg>
