<svg width="256" height="256" viewBox="0 0 256 256" fill="none" xmlns="http://www.w3.org/2000/svg">
<path d="M244 73.8324L232.992 159.636L227.024 197.394L150.48 244L55.8279 171.365L171.056 50.6838L244 73.8324Z" fill="url(#paint0_linear)"/>
<path d="M150.583 224.761L150.686 231.654H158.608L161.283 227.539L150.583 224.761Z" fill="url(#paint1_linear)"/>
<path d="M221.263 193.279L232.992 159.533L239.679 208.403L221.263 193.279Z" fill="url(#paint2_linear)"/>
<path d="M244 73.8324L110.356 165.089L49.8607 174.246L171.056 15.8066L244 73.8324Z" fill="url(#paint3_linear)"/>
<path d="M145.644 49.8607L171.056 15.8066L166.632 85.9725L145.644 49.8607Z" fill="url(#paint4_linear)"/>
<path d="M49.2434 173.834L14.572 148.731L47.8031 115.808L147.188 156.035L49.2434 173.834Z" fill="url(#paint5_linear)"/>
<path d="M106.24 212.929L30.7246 238.341L49.7579 184.945L142.043 149.245L193.588 180.933L106.24 212.929Z" fill="url(#paint6_linear)"/>
<path d="M84.9437 60.8692L45.6426 12L121.57 20.9508L130.109 45.8483L84.9437 60.8692Z" fill="url(#paint7_linear)"/>
<path d="M232.992 159.533L121.57 20.9508L80.6226 21.5681L57.5769 88.9561L202.435 168.381L177.949 204.39L227.024 197.394L232.992 159.533Z" fill="url(#paint8_linear)"/>
<path d="M57.2683 92.8656L31.5477 92.2483L45.6426 12L80.6227 21.5681L57.2683 92.8656Z" fill="url(#paint9_linear)"/>
<path d="M202.435 168.381L137.517 154.389L12 103.874L58.1942 89.5734L202.435 168.381Z" fill="url(#paint10_linear)"/>
<path d="M76.5074 33.6053L58.0914 89.5734L57.8856 89.6763L58.1943 89.5734L149.039 139.266L150.891 139.677L188.341 111.796L76.5074 33.6053Z" fill="url(#paint11_linear)"/>
<path d="M45.6426 12L12 103.874L54.7991 92.9685L58.0914 89.5734L76.5073 33.6053L45.6426 12Z" fill="url(#paint12_linear)"/>
<path d="M30.7246 238.341L59.4288 123.319L137.517 154.389L30.7246 238.341Z" fill="url(#paint13_linear)"/>
<path d="M137.517 154.389L93.9973 116.94L34.737 111.487L14.572 148.731L56.9596 131.652L57.3711 131.447L30.7246 238.341L137.517 154.389Z" fill="url(#paint14_linear)"/>
<path d="M202.435 168.381L161.9 227.745L106.137 213.238L137.517 154.389L202.435 168.381Z" fill="url(#paint15_linear)"/>
<path d="M202.435 168.381L137.517 154.389L12 103.874L58.1942 89.5734L202.435 168.381Z" fill="url(#paint16_linear)"/>
<path d="M58.1942 89.5734L12 103.874L149.039 139.266L58.1942 89.5734Z" fill="url(#paint17_linear)"/>
<path d="M227.024 197.394L176.509 204.493L150.48 244L239.679 208.403L227.024 197.394Z" fill="url(#paint18_linear)"/>
<path d="M150.48 244L177.435 204.802L106.035 213.547L150.48 244Z" fill="url(#paint19_linear)"/>
<path d="M188.341 111.796L129.286 70.4372L98.1127 111.179L150.891 139.677L186.283 113.339L188.341 111.796Z" fill="url(#paint20_linear)"/>
<path d="M200 56H56V200H200V56Z" fill="url(#paint21_linear)"/>
<g opacity="0.3">
<path d="M197.441 200L200 199.693V169.194L178.917 200H197.441Z" fill="url(#paint22_linear)"/>
<path d="M148.213 56H70.4307L58.968 89.774L193.859 163.77L59.4797 90.2857L56 91.4115V121.194L137.365 153.945L200 167.454V167.147V120.478L148.213 56Z" fill="url(#paint23_linear)"/>
<path d="M70.4307 56L58.968 89.774L200 167.147V120.478L148.213 56H70.4307Z" fill="url(#paint24_linear)"/>
<path d="M56 56V93.6631L56.2047 93.5608L59.3774 90.2857L70.6354 56H56Z" fill="#85FFF6"/>
<path d="M56 91.4115V121.194L137.365 153.945L200 167.454V167.147L59.4797 90.2857L56 91.4115Z" fill="url(#paint25_linear)"/>
<path d="M56 115.156L148.623 139.002L59.4797 90.2857L56 91.4115V115.156Z" fill="url(#paint26_linear)"/>
<path d="M112.699 200L137.365 153.945L78.6183 200H112.699Z" fill="url(#paint27_linear)"/>
<path d="M56 142.38L58.7633 131.326L58.2516 131.531L56 132.452V142.38Z" fill="#F7941D"/>
<path d="M56 132.452L58.2516 131.531L58.7633 131.326L56 142.38V200H78.6183L137.365 153.945L56 121.194V132.452Z" fill="url(#paint28_linear)"/>
<path d="M112.699 200H178.917L200 169.194V167.454L137.365 153.945L112.699 200Z" fill="url(#paint29_linear)"/>
<path d="M191.198 109.424L200 103.488V56H148.213L191.198 109.424Z" fill="url(#paint30_linear)"/>
</g>
<path d="M127.9 172.9H73.8V181.9H127.9V172.9Z" fill="white"/>
<path d="M100.8 83.8V73.9H73.9V83.8H81.5V117.9H73.9V127.7H100.8V117.9H93.3V83.8H100.8Z" fill="white"/>
<path d="M126.7 128.5C122.5 128.5 119 127.7 116.1 126.1C113.3 124.5 110.9 122.6 109.1 120.4L116.6 112.1C118.1 113.8 119.7 115.1 121.2 116.1C122.8 117 124.5 117.5 126.4 117.5C128.7 117.5 130.4 116.8 131.7 115.4C133 114 133.6 111.7 133.6 108.6V73.9H145.7V109.1C145.7 112.3 145.3 115.1 144.4 117.5C143.5 119.9 142.3 121.9 140.6 123.5C139 125.1 137 126.4 134.6 127.2C132.2 128.1 129.6 128.5 126.7 128.5Z" fill="white"/>
<defs>
<linearGradient id="paint0_linear" x1="249.08" y1="73.6758" x2="193.859" y2="129.263" gradientUnits="userSpaceOnUse">
<stop offset="0.2859" stop-color="#087CFA"/>
<stop offset="1" stop-color="#079AF6"/>
</linearGradient>
<linearGradient id="paint1_linear" x1="156.238" y1="229.942" x2="158.16" y2="232.731" gradientUnits="userSpaceOnUse">
<stop offset="0.2859" stop-color="#087CFA"/>
<stop offset="1" stop-color="#079AF6"/>
</linearGradient>
<linearGradient id="paint2_linear" x1="226.386" y1="213.205" x2="243.031" y2="163.053" gradientUnits="userSpaceOnUse">
<stop offset="0.2708" stop-color="#08DBF9"/>
<stop offset="0.4026" stop-color="#15CDF3"/>
<stop offset="0.651" stop-color="#36A9E5"/>
<stop offset="0.9871" stop-color="#6B6ECD"/>
<stop offset="1" stop-color="#6D6CCC"/>
</linearGradient>
<linearGradient id="paint3_linear" x1="248.585" y1="25.2347" x2="113.694" y2="106.803" gradientUnits="userSpaceOnUse">
<stop offset="0.286" stop-color="#0AEFFF"/>
<stop offset="0.3292" stop-color="#09DEFA"/>
<stop offset="0.3966" stop-color="#07CAF4"/>
<stop offset="0.442" stop-color="#07C3F2"/>
<stop offset="0.5015" stop-color="#07ACF5"/>
<stop offset="0.5749" stop-color="#0897F7"/>
<stop offset="0.6568" stop-color="#0888F9"/>
<stop offset="0.7528" stop-color="#087FFA"/>
<stop offset="0.8981" stop-color="#087CFA"/>
</linearGradient>
<linearGradient id="paint4_linear" x1="158.326" y1="10.3293" x2="158.326" y2="99.801" gradientUnits="userSpaceOnUse">
<stop offset="0.207" stop-color="#02C5FE"/>
<stop offset="0.317" stop-color="#04ACFD"/>
<stop offset="0.4435" stop-color="#0697FB"/>
<stop offset="0.5845" stop-color="#0788FB"/>
<stop offset="0.7499" stop-color="#087FFA"/>
<stop offset="1" stop-color="#087CFA"/>
</linearGradient>
<linearGradient id="paint5_linear" x1="29.0777" y1="117.193" x2="70.4021" y2="145.718" gradientUnits="userSpaceOnUse">
<stop stop-color="#42FFFA"/>
<stop offset="0.157" stop-color="#3AF7F9"/>
<stop offset="0.4049" stop-color="#24E0F6"/>
<stop offset="0.4943" stop-color="#1AD6F5"/>
<stop offset="0.9028" stop-color="#07C3F2"/>
</linearGradient>
<linearGradient id="paint6_linear" x1="75.3445" y1="169.979" x2="109.067" y2="206.296" gradientUnits="userSpaceOnUse">
<stop offset="0.3536" stop-color="#07C3F2"/>
<stop offset="0.52" stop-color="#1CAEF2"/>
<stop offset="0.6811" stop-color="#3595F3"/>
<stop offset="0.8463" stop-color="#2089F6"/>
<stop offset="1" stop-color="#087CFA"/>
</linearGradient>
<linearGradient id="paint7_linear" x1="82.6422" y1="6.02839" x2="93.3867" y2="53.0359" gradientUnits="userSpaceOnUse">
<stop stop-color="#71FFFB"/>
<stop offset="0.3126" stop-color="#CAFFFE"/>
<stop offset="0.5939" stop-color="#42FFFA"/>
<stop offset="0.6862" stop-color="#3AF7F9"/>
<stop offset="0.8317" stop-color="#23E0F6"/>
<stop offset="0.976" stop-color="#07C3F2"/>
</linearGradient>
<linearGradient id="paint8_linear" x1="74.9172" y1="53.2523" x2="237.089" y2="181.999" gradientUnits="userSpaceOnUse">
<stop stop-color="#27E4F6"/>
<stop offset="0.2282" stop-color="#07C3F2"/>
<stop offset="0.3408" stop-color="#07AEF4"/>
<stop offset="0.5521" stop-color="#087CFA"/>
<stop offset="0.7522" stop-color="#087CFA"/>
<stop offset="0.9812" stop-color="#07C3F2"/>
</linearGradient>
<linearGradient id="paint9_linear" x1="36.4216" y1="47.9414" x2="69.2797" y2="62.9293" gradientUnits="userSpaceOnUse">
<stop offset="0.2048" stop-color="#42FFFA"/>
<stop offset="0.2906" stop-color="#68FFFB"/>
<stop offset="0.41" stop-color="#96FFFC"/>
<stop offset="0.53" stop-color="#BCFFFD"/>
<stop offset="0.6485" stop-color="#D9FFFE"/>
<stop offset="0.7651" stop-color="#EEFFFF"/>
<stop offset="0.8792" stop-color="#FBFFFF"/>
<stop offset="0.9874" stop-color="white"/>
</linearGradient>
<linearGradient id="paint10_linear" x1="29.827" y1="94.0039" x2="190.629" y2="177.661" gradientUnits="userSpaceOnUse">
<stop offset="0.2464" stop-color="#FE2857"/>
<stop offset="0.292" stop-color="#FE265F"/>
<stop offset="0.3641" stop-color="#FE1F76"/>
<stop offset="0.4534" stop-color="#FF159B"/>
<stop offset="0.4574" stop-color="#FF149D"/>
<stop offset="0.536" stop-color="#EF1AB2"/>
<stop offset="0.6983" stop-color="#C82BE9"/>
<stop offset="0.7574" stop-color="#B831FF"/>
<stop offset="0.811" stop-color="#A33AFE"/>
<stop offset="0.9215" stop-color="#6C52FD"/>
<stop offset="1" stop-color="#4164FC"/>
</linearGradient>
<linearGradient id="paint11_linear" x1="65.1811" y1="59.3114" x2="155.973" y2="124.163" gradientUnits="userSpaceOnUse">
<stop offset="0.00823305" stop-color="#42FFFA"/>
<stop offset="0.1549" stop-color="#27E4F6"/>
<stop offset="0.3008" stop-color="#11CDF3"/>
<stop offset="0.3345" stop-color="#0FCBF3"/>
<stop offset="0.5125" stop-color="#07C3F2"/>
<stop offset="0.6963" stop-color="#3595F3"/>
</linearGradient>
<linearGradient id="paint12_linear" x1="28.2653" y1="57.614" x2="59.6102" y2="77.7179" gradientUnits="userSpaceOnUse">
<stop offset="0.0433729" stop-color="#42FFFA"/>
<stop offset="0.2066" stop-color="#7DFFFB"/>
<stop offset="0.2976" stop-color="#A0FFFC"/>
<stop offset="0.6631" stop-color="#B7FFFF"/>
<stop offset="0.9409" stop-color="#57FFFB"/>
<stop offset="1" stop-color="#42FFFA"/>
</linearGradient>
<linearGradient id="paint13_linear" x1="2.58008" y1="116.59" x2="147.703" y2="258.62" gradientUnits="userSpaceOnUse">
<stop offset="0.0226617" stop-color="#FC801D"/>
<stop offset="0.2467" stop-color="#FC7E20"/>
<stop offset="0.276" stop-color="#FC772A"/>
<stop offset="0.3253" stop-color="#FD6444"/>
<stop offset="0.3881" stop-color="#FE466E"/>
<stop offset="0.4273" stop-color="#FF318C"/>
<stop offset="0.4924" stop-color="#EA3896"/>
<stop offset="0.6276" stop-color="#B248AE"/>
<stop offset="0.8194" stop-color="#5A63D6"/>
<stop offset="0.9859" stop-color="#087CFA"/>
</linearGradient>
<linearGradient id="paint14_linear" x1="38.1561" y1="116.985" x2="83.9563" y2="196.129" gradientUnits="userSpaceOnUse">
<stop offset="0.00442798" stop-color="#42FFFA"/>
<stop offset="0.1542" stop-color="#42FFFA"/>
<stop offset="0.2294" stop-color="#3BF7F9"/>
<stop offset="0.343" stop-color="#26E3F6"/>
<stop offset="0.4724" stop-color="#07C3F2"/>
<stop offset="0.6565" stop-color="#3595F3"/>
<stop offset="0.8856" stop-color="#3595F3"/>
</linearGradient>
<linearGradient id="paint15_linear" x1="133.545" y1="157.786" x2="175.891" y2="225.25" gradientUnits="userSpaceOnUse">
<stop offset="0.0211218" stop-color="#087CFA"/>
<stop offset="0.3042" stop-color="#087CFA"/>
<stop offset="0.7942" stop-color="#07C3F2"/>
</linearGradient>
<linearGradient id="paint16_linear" x1="29.827" y1="94.0039" x2="190.629" y2="177.661" gradientUnits="userSpaceOnUse">
<stop offset="0.1401" stop-color="#07C3F2"/>
<stop offset="0.321" stop-color="#07AEF4"/>
<stop offset="0.6603" stop-color="#087CFA"/>
<stop offset="1" stop-color="#3595F3"/>
</linearGradient>
<linearGradient id="paint17_linear" x1="44.5675" y1="101.576" x2="118.744" y2="142.835" gradientUnits="userSpaceOnUse">
<stop stop-color="#1DD9F5"/>
<stop offset="0.3352" stop-color="#07C3F2"/>
<stop offset="0.6729" stop-color="#1CAEF2"/>
<stop offset="1" stop-color="#3595F3"/>
</linearGradient>
<linearGradient id="paint18_linear" x1="233.289" y1="198.133" x2="151.72" y2="228.685" gradientUnits="userSpaceOnUse">
<stop stop-color="#07C3F2"/>
<stop offset="0.0971854" stop-color="#05B5ED"/>
<stop offset="0.2458" stop-color="#02A6E9"/>
<stop offset="0.4209" stop-color="#009DE6"/>
<stop offset="0.6854" stop-color="#009AE5"/>
</linearGradient>
<linearGradient id="paint19_linear" x1="111.42" y1="205.615" x2="167.048" y2="225.503" gradientUnits="userSpaceOnUse">
<stop offset="0.1529" stop-color="#087CFA"/>
<stop offset="0.6343" stop-color="#009AE5"/>
<stop offset="1" stop-color="#05B6EE"/>
</linearGradient>
<linearGradient id="paint20_linear" x1="119.403" y1="77.8789" x2="153.669" y2="126.202" gradientUnits="userSpaceOnUse">
<stop stop-color="#07C3F2"/>
<stop offset="0.6392" stop-color="#3595F3"/>
<stop offset="0.7656" stop-color="#298EF5"/>
<stop offset="0.9941" stop-color="#097DFA"/>
<stop offset="1" stop-color="#087CFA"/>
</linearGradient>
<linearGradient id="paint21_linear" x1="53.7773" y1="67.4935" x2="201.234" y2="187.709" gradientUnits="userSpaceOnUse">
<stop offset="0.0162265" stop-color="#022244"/>
<stop offset="0.2475" stop-color="#011327"/>
<stop offset="0.48" stop-color="#010911"/>
<stop offset="0.7054" stop-color="#000204"/>
<stop offset="0.9138"/>
</linearGradient>
<linearGradient id="paint22_linear" x1="178.96" y1="184.613" x2="200.047" y2="184.613" gradientUnits="userSpaceOnUse">
<stop stop-color="#087CFA"/>
<stop offset="0.7942" stop-color="#000216"/>
</linearGradient>
<linearGradient id="paint23_linear" x1="56" y1="111.728" x2="200.047" y2="111.728" gradientUnits="userSpaceOnUse">
<stop offset="0.2464" stop-color="#FE2857"/>
<stop offset="0.292" stop-color="#FE265F"/>
<stop offset="0.3641" stop-color="#FE1F76"/>
<stop offset="0.4534" stop-color="#FF159B"/>
<stop offset="0.4574" stop-color="#FF149D"/>
<stop offset="0.536" stop-color="#EF1AB2"/>
<stop offset="0.6983" stop-color="#C82BE9"/>
<stop offset="0.7574" stop-color="#B831FF"/>
<stop offset="0.811" stop-color="#A33AFE"/>
<stop offset="0.9215" stop-color="#6C52FD"/>
<stop offset="1" stop-color="#4164FC"/>
</linearGradient>
<linearGradient id="paint24_linear" x1="58.9465" y1="111.564" x2="200.047" y2="111.564" gradientUnits="userSpaceOnUse">
<stop stop-color="#42FFFA"/>
<stop offset="0.0408124" stop-color="#3AF7F9"/>
<stop offset="0.1052" stop-color="#23E0F6"/>
<stop offset="0.1691" stop-color="#07C3F2"/>
<stop offset="0.3611" stop-color="#07C3F2"/>
<stop offset="0.5398" stop-color="#0888F9"/>
<stop offset="0.5728" stop-color="#087CFA"/>
<stop offset="0.6996" stop-color="#0659BC"/>
<stop offset="0.9919" stop-color="#000220"/>
<stop offset="1" stop-color="#00001C"/>
</linearGradient>
<linearGradient id="paint25_linear" x1="56" y1="128.883" x2="200.047" y2="128.883" gradientUnits="userSpaceOnUse">
<stop offset="0.0878508" stop-color="#087CFA"/>
<stop offset="0.2751" stop-color="#087CFA"/>
<stop offset="0.2903" stop-color="#0877F1"/>
<stop offset="0.4275" stop-color="#054DA4"/>
<stop offset="0.5498" stop-color="#032C66"/>
<stop offset="0.6528" stop-color="#01143A"/>
<stop offset="0.7324" stop-color="#00051F"/>
<stop offset="0.7791" stop-color="#000015"/>
</linearGradient>
<linearGradient id="paint26_linear" x1="69.9434" y1="109.079" x2="126.353" y2="140.455" gradientUnits="userSpaceOnUse">
<stop stop-color="#07C3F2"/>
<stop offset="0.3478" stop-color="#07AEF4"/>
<stop offset="1" stop-color="#087CFA"/>
</linearGradient>
<linearGradient id="paint27_linear" x1="78.6276" y1="176.997" x2="137.315" y2="176.997" gradientUnits="userSpaceOnUse">
<stop offset="0.0878508" stop-color="#087CFA"/>
<stop offset="0.4746" stop-color="#087CFA"/>
<stop offset="0.4905" stop-color="#0877F1"/>
<stop offset="0.6335" stop-color="#054DA4"/>
<stop offset="0.761" stop-color="#032C66"/>
<stop offset="0.8684" stop-color="#01143A"/>
<stop offset="0.9514" stop-color="#00051F"/>
<stop offset="1" stop-color="#000015"/>
</linearGradient>
<linearGradient id="paint28_linear" x1="56" y1="160.631" x2="137.315" y2="160.631" gradientUnits="userSpaceOnUse">
<stop offset="0.0878508" stop-color="#087CFA"/>
<stop offset="0.4746" stop-color="#087CFA"/>
<stop offset="0.4905" stop-color="#0877F1"/>
<stop offset="0.6335" stop-color="#054DA4"/>
<stop offset="0.761" stop-color="#032C66"/>
<stop offset="0.8684" stop-color="#01143A"/>
<stop offset="0.9514" stop-color="#00051F"/>
<stop offset="1" stop-color="#000015"/>
</linearGradient>
<linearGradient id="paint29_linear" x1="112.748" y1="176.997" x2="200.047" y2="176.997" gradientUnits="userSpaceOnUse">
<stop stop-color="#087CFA"/>
<stop offset="0.7942" stop-color="#000216"/>
</linearGradient>
<linearGradient id="paint30_linear" x1="258.825" y1="193.13" x2="167.034" y2="44.4888" gradientUnits="userSpaceOnUse">
<stop offset="0.1908" stop-color="#3595F3"/>
<stop offset="0.8951" stop-color="#000020"/>
</linearGradient>
</defs>
</svg>
