<svg width="16" height="16" viewBox="0 0 16 16" fill="none" xmlns="http://www.w3.org/2000/svg">
<path d="M16 0H0V16H16V0Z" fill="#087CFA"/>
<path d="M15 1H1V15H15V1Z" fill="black"/>
<path d="M9 12H3V13H9V12Z" fill="white"/>
<path d="M2.5 5.99999C2.5 4.29999 3.7 2.89999 5.4 2.89999C6.4 2.89999 7 3.19999 7.6 3.69999L6.8 4.69999C6.4 4.29999 6 4.09999 5.4 4.09999C4.5 4.09999 3.8 4.89999 3.8 5.99999C3.8 7.09999 4.5 7.89999 5.5 7.89999C5.9 7.89999 6.3 7.79999 6.7 7.49999V6.69999H5.4V5.49999H7.8V8.09999C7.2 8.59999 6.4 9.09999 5.4 9.09999C3.7 9.09999 2.5 7.79999 2.5 5.99999Z" fill="white"/>
<path d="M8.5 5.99999C8.5 4.29999 9.7 2.89999 11.4 2.89999C13.1 2.89999 14.2 4.29999 14.2 5.99999C14.2 7.69999 13 9.09999 11.3 9.09999C9.7 9.09999 8.5 7.69999 8.5 5.99999ZM13 5.99999C13 4.99999 12.3 4.09999 11.4 4.09999C10.5 4.09999 9.8 4.89999 9.8 5.99999C9.8 6.99999 10.5 7.89999 11.4 7.89999C12.3 7.89999 13 6.99999 13 5.99999Z" fill="white"/>
<path fill-rule="evenodd" clip-rule="evenodd" d="M3 16H16V10H3V16Z" fill="#D99E2B"/>
<path fill-rule="evenodd" clip-rule="evenodd" d="M4 11H7V11.64H4.8V12.6H6.5V13.24H4.8V14.36H6.998V15H4V11Z" fill="black"/>
<path fill-rule="evenodd" clip-rule="evenodd" d="M14.2 12.3672C14.2 12.7632 14.0134 13.0672 13.5554 13.0672H12.8V11.6328H13.4364C13.9834 11.6328 14.16 11.8672 14.2 12.2328V12.3672ZM11.9974 11V15H12.8V13.7H13.3954C14.3114 13.7144 15.0004 13.116 15.0004 12.4336V12.268C15.0004 11.528 14.3694 11 13.5474 11H11.9974Z" fill="black"/>
<path fill-rule="evenodd" clip-rule="evenodd" d="M9.85453 11H9.14647L7.36169 15H8.12852L8.54223 14.0519H10.4212L10.835 15H11.6384L9.85453 11ZM8.86404 13.3705L9.50209 11.9083L10.1747 13.3705H8.86404Z" fill="black"/>
</svg>