<svg xmlns="http://www.w3.org/2000/svg" width="16" height="16" viewBox="0 0 16 16"><rect id="frame" width="16" height="16" fill="none"/><g fill="none" fill-rule="evenodd" opacity=".9"><path fill="#A8ADB2" d="M8.042 11.96a3.923 3.923 0 0 1-3.918-3.918 3.923 3.923 0 0 1 3.918-3.918 3.924 3.924 0 0 1 3.763 2.831h1.516a5.399 5.399 0 0 0-5.279-4.303 5.396 5.396 0 0 0-5.39 5.39 5.396 5.396 0 0 0 5.39 5.39c2.6 0 4.774-1.85 5.279-4.302h-1.516a3.924 3.924 0 0 1-3.763 2.83"/><path fill="#A8ADB2" d="M5.4 10.683a3.725 3.725 0 0 0 2.642 1.096v-1.562a2.166 2.166 0 0 1-1.538-.638L5.4 10.683z"/><path fill="#F38B00" d="M4.306 8.042c0 .534.113 1.043.316 1.504l1.429-.629a2.174 2.174 0 0 1 1.99-3.05V4.306a3.74 3.74 0 0 0-3.735 3.736"/><path fill="#A8ADB2" d="M9.396 4.56L8.83 6.016c.463.18.849.514 1.094.939h1.693a3.75 3.75 0 0 0-2.22-2.395"/><path fill="#F38B00" d="M8.83 10.067l.566 1.456a3.753 3.753 0 0 0 2.221-2.394H9.925a2.179 2.179 0 0 1-1.095.938m4.676-3.112H15a7.065 7.065 0 0 0-4.405-5.476l-.533 1.373a5.59 5.59 0 0 1 3.444 4.103"/><path fill="#A8ADB2" d="M8.042 2.472V1C5.059 1 2.504 2.865 1.48 5.489l1.371.534a5.58 5.58 0 0 1 5.191-3.551"/><path fill="#F38B00" d="M2.472 8.042H1c0 2.959 1.835 5.496 4.427 6.537l.547-1.366a5.577 5.577 0 0 1-3.502-5.171"/><path fill="#A8ADB2" d="M8.042 13.612v1.472c3.513 0 6.434-2.586 6.958-5.955h-1.494a5.58 5.58 0 0 1-5.464 4.483"/></g></svg>