<svg xmlns="http://www.w3.org/2000/svg" width="16" height="16" viewBox="0 0 16 16">
  <g fill="none" fill-rule="evenodd">
    <path fill="#40B6E0" fill-opacity=".6" d="M15,8 C15,11.866 11.866,15 8,15 C4.134,15 1,11.866 1,8 C1,4.134 4.134,1 8,1 C11.866,1 15,4.134 15,8"/>
    <path fill="#231F20" fill-opacity=".7" d="M8.21565038e-15,6 L8.21565038e-15,8.8817842e-16 L1.0004,8.8817842e-16 L1.0004,2.3206 C1.2792,1.9188 1.681,1.5662 2.3534,1.5662 C3.3292,1.5662 4,2.2222 4,3.2226 L4,6 L3.0028,6 L3.0028,3.526 C3.0028,2.8536 2.5666,2.4682 1.9762,2.4682 C1.4022,2.4682 1.0004,2.87 1.0004,3.5424 L1.0004,6 L8.21565038e-15,6 Z" transform="translate(6 5)"/>
  </g>
</svg>
