<svg xmlns="http://www.w3.org/2000/svg" width="16" height="16" viewBox="0 0 16 16"><rect id="frame" width="16" height="16" fill="none"/><g fill="#D7DADE" fill-rule="evenodd"><path d="M12.51 5.563c0 .155.053.363.053.519 0 .518-.104 1.088-.414 1.814l-1.556 4.512c1.504-.881 2.54-2.541 2.54-4.407 0-.882-.26-1.711-.622-2.438zM8.105 8.466l-1.556 4.458c.467.156.934.208 1.452.208a4.77 4.77 0 0 0 1.71-.31l-.051-.053-1.555-4.303zm3.37-.727c0-.622-.207-1.088-.414-1.4-.26-.414-.52-.777-.52-1.191 0-.468.364-.934.882-.934h.052C10.54 3.385 9.349 2.865 8 2.865c-1.762 0-3.37.933-4.252 2.283h.312c.518 0 1.347-.053 1.347-.053.26 0 .312.415.052.415 0 0-.26.051-.57.051l1.867 5.55 1.14-3.372-.778-2.178c-.258 0-.518-.051-.518-.051-.26 0-.26-.415.052-.415 0 0 .83.053 1.348.053.519 0 1.349-.053 1.349-.053.259 0 .31.415.052.415 0 0-.26.051-.571.051l1.71 5.55.52-1.712c.207-.726.414-1.245.414-1.66zM3.333 5.926l2.438 6.69C4.06 11.786 2.866 10.023 2.866 8c0-.726.157-1.453.467-2.075z"/><path d="M8 14.17c-3.37 0-6.17-2.748-6.17-6.17 0-3.37 2.748-6.17 6.17-6.17 3.422 0 6.17 2.8 6.17 6.17s-2.8 6.17-6.17 6.17M8 1C4.163 1 1 4.163 1 8s3.163 7 7 7 7-3.163 7-7-3.163-7-7-7"/></g></svg>