<svg xmlns="http://www.w3.org/2000/svg" width="16" height="16" viewBox="0 0 16 16"><rect id="frame" width="16" height="16" fill="none"/><path fill="#F26522" fill-opacity=".7" fill-rule="evenodd" d="M7.35 5.832a2 2 0 0 0-.67.635 2.745 2.745 0 0 0-.362.879c-.073.32-.11.647-.11.976 0 .704.128 1.204.387 1.53.266.332.625.502 1.064.502.289 0 .542-.067.756-.2.21-.127.385-.311.518-.544.128-.222.227-.49.294-.798.066-.297.11-.635.126-1l.12-2.089-.073-.017a4.2 4.2 0 0 0-1.046-.117c-.392 0-.728.08-1.005.243zm-6.346 2.17c0-7 6.414-7 7.55-7 .585 0 6.446.15 6.446 6.223 0 4.29-2.669 4.275-3.202 4.275-.87-.053-1.498-.396-1.885-1.03-.718.686-1.42 1.03-2.107 1.03C6.389 11.5 4.5 11.362 4.5 8c0-2.94 2.548-3.5 3.5-3.5.268 0 3.054.096 3.192.138l-.14 3.691c-.085 1.173.2 1.79.856 1.85 1.265 0 1.447-2.559 1.447-2.972 0-4.619-4.116-4.903-4.802-4.903-.954 0-5.902.185-5.902 5.697 0 1.021 0 5.68 5.155 5.68.352 0 3.246-.356 3.978-.732v1.313c-.538.218-1.871.738-3.962.738-1.3 0-6.818 0-6.818-6.999z"/></svg>