<svg width="32" height="32" viewBox="0 0 32 32" fill="none" xmlns="http://www.w3.org/2000/svg"><rect id="frame" width="32" height="32" fill="none"/><path d="M4.3 28.933L0 3.367 7.967.033l5.1 3.034 4.666-2.5L27.467 4.3 22 32 4.3 28.933z" fill="url(#paint0_linear)"/><path d="M32 10.833L27.867.633 20.367 0 8.8 11.1l3.133 14.333 5.8 4.067L32 21.033 28.5 14.5l3.5-3.667z" fill="url(#paint1_linear)"/><path d="M25.6 9.3l2.9 5.2 3.5-3.667L29.433 4.5 25.6 9.3z" fill="url(#paint2_linear)"/><path d="M26 6H6v20h20V6z" fill="url(#paint3_linear)"/><path d="M16 23H8v1h8v-1z" fill="#fff"/><path d="M15.967 8.14L14.78 12.71 13.454 8.14h-1.326l-1.326 4.571L9.615 8.14H7.8l2.234 7.852h1.465l1.292-4.537 1.256 4.537h1.5l2.235-7.852h-1.815z" fill="#fff"/><path d="M18.13 14.875l1.013-1.221c.698.593 1.465.942 2.338.942.698 0 1.152-.279 1.152-.733v-.035c0-.453-.28-.663-1.57-1.012-1.571-.418-2.618-.837-2.618-2.408v-.035c0-1.43 1.151-2.373 2.757-2.373 1.151 0 2.129.349 2.931 1.012l-.907 1.291c-.698-.488-1.396-.767-2.06-.767-.662 0-1.011.314-1.011.698v.034c0 .524.349.698 1.71 1.047 1.605.42 2.513.978 2.513 2.374v.035c0 1.57-1.187 2.443-2.897 2.443-1.222-.035-2.408-.454-3.35-1.292z" fill="#fff"/><defs><linearGradient id="paint0_linear" x1="11.46" y1=".667" x2="19.741" y2="30.48" gradientUnits="userSpaceOnUse"><stop offset=".285" stop-color="#07C3F2"/><stop offset=".941" stop-color="#087CFA"/></linearGradient><linearGradient id="paint1_linear" x1="14.043" y1="4.45" x2="28.053" y2="24.993" gradientUnits="userSpaceOnUse"><stop offset=".14" stop-color="#FCF84A"/><stop offset=".366" stop-color="#07C3F2"/></linearGradient><linearGradient id="paint2_linear" x1="27.923" y1="6.99" x2="29.763" y2="13.506" gradientUnits="userSpaceOnUse"><stop offset=".285" stop-color="#07C3F2"/><stop offset=".941" stop-color="#087CFA"/></linearGradient><linearGradient id="paint3_linear" x1="15.973" y1="1.139" x2="15.973" y2="19.075" gradientUnits="userSpaceOnUse"><stop offset=".084" stop-color="#878585"/><stop offset=".538"/></linearGradient></defs></svg>