<svg width="80" height="80" viewBox="0 0 80 80" fill="none" xmlns="http://www.w3.org/2000/svg"><rect id="frame" width="80" height="80" fill="none"/><g clip-path="url(#clip0)"><path d="M10.75 72.333L0 8.417 19.917.083l12.75 7.584 11.666-6.25 24.334 9.333L55 80l-44.25-7.667z" fill="url(#paint0_linear)"/><path d="M80 27.083l-10.334-25.5L50.916 0 22 27.75l7.833 35.833 14.5 10.167L80 52.583 71.25 36.25 80 27.083z" fill="url(#paint1_linear)"/><path d="M64 23.25l7.25 13L80 27.083 73.583 11.25 64 23.25z" fill="url(#paint2_linear)"/><path d="M65 15H15v50h50V15z" fill="url(#paint3_linear)"/><path d="M39.9 55.5H21.2v3.1h18.7v-3.1z" fill="#fff"/><path d="M38.213 21.625L35.42 32.26l-3.12-10.636h-3.12l-3.12 10.636-2.791-10.636H19l5.255 18.269h3.448l3.038-10.556 2.956 10.556h3.53l5.255-18.27h-4.27z" fill="#fff"/><path d="M43.303 37.296l2.381-2.842c1.642 1.38 3.449 2.192 5.501 2.192 1.642 0 2.71-.65 2.71-1.705v-.081c0-1.056-.657-1.543-3.695-2.355-3.695-.974-6.158-1.949-6.158-5.602v-.082c0-3.329 2.71-5.521 6.486-5.521 2.71 0 5.009.812 6.897 2.355l-2.134 3.004c-1.643-1.137-3.285-1.786-4.845-1.786-1.56 0-2.38.73-2.38 1.624v.08c0 1.219.82 1.625 4.022 2.437 3.777.974 5.912 2.273 5.912 5.521v.081c0 3.654-2.792 5.684-6.815 5.684-2.873-.081-5.665-1.056-7.882-3.004z" fill="#fff"/></g><defs><linearGradient id="paint0_linear" x1="28.649" y1="1.668" x2="49.352" y2="76.2" gradientUnits="userSpaceOnUse"><stop offset=".285" stop-color="#07C3F2"/><stop offset=".941" stop-color="#087CFA"/></linearGradient><linearGradient id="paint1_linear" x1="35.108" y1="11.125" x2="70.131" y2="62.481" gradientUnits="userSpaceOnUse"><stop offset=".14" stop-color="#FCF84A"/><stop offset=".366" stop-color="#07C3F2"/></linearGradient><linearGradient id="paint2_linear" x1="69.808" y1="17.474" x2="74.407" y2="33.764" gradientUnits="userSpaceOnUse"><stop offset=".285" stop-color="#07C3F2"/><stop offset=".941" stop-color="#087CFA"/></linearGradient><linearGradient id="paint3_linear" x1="39.999" y1="2.846" x2="39.999" y2="47.685" gradientUnits="userSpaceOnUse"><stop offset=".084" stop-color="#878585"/><stop offset=".538"/></linearGradient><clipPath id="clip0"><path d="M0 0h80v80H0V0z" fill="#fff"/></clipPath></defs></svg>