<svg width="48" height="48" viewBox="0 0 48 48" fill="none" xmlns="http://www.w3.org/2000/svg"><rect id="frame" width="48" height="48" fill="none"/><path d="M6.45 43.4L0 5.05l11.95-5L19.6 4.6l7-3.75 14.6 5.6L33 48 6.45 43.4z" fill="url(#paint0_linear)"/><path d="M48 16.25L41.8.95 30.55 0 13.2 16.65l4.7 21.5 8.7 6.1L48 31.55l-5.25-9.8 5.25-5.5z" fill="url(#paint1_linear)"/><path d="M38.4 13.95l4.35 7.8 5.25-5.5-3.85-9.5-5.75 7.2z" fill="url(#paint2_linear)"/><path d="M39 9H9v30h30V9z" fill="url(#paint3_linear)"/><path d="M23.25 34H12v1.929h11.25V34z" fill="#fff"/><path d="M23.616 12.008l-1.79 6.83-2-6.83h-2l-2 6.83-1.79-6.83H11.3l3.368 11.731h2.21l1.948-6.777 1.895 6.777h2.263l3.369-11.73h-2.737z" fill="#fff"/><path d="M26.579 22.07l1.526-1.824c1.053.887 2.21 1.408 3.527 1.408 1.052 0 1.736-.417 1.736-1.095v-.052c0-.678-.42-.99-2.368-1.512-2.368-.626-3.947-1.251-3.947-3.598v-.052c0-2.137 1.736-3.545 4.157-3.545 1.737 0 3.211.521 4.422 1.512l-1.369 1.929c-1.052-.73-2.105-1.147-3.105-1.147s-1.526.47-1.526 1.043v.052c0 .782.526 1.043 2.579 1.564 2.42.626 3.789 1.46 3.789 3.545v.052c0 2.347-1.79 3.65-4.368 3.65-1.843-.052-3.632-.678-5.053-1.93z" fill="#fff"/><defs><linearGradient id="paint0_linear" x1="17.189" y1="1.001" x2="29.611" y2="45.72" gradientUnits="userSpaceOnUse"><stop offset=".285" stop-color="#07C3F2"/><stop offset=".941" stop-color="#087CFA"/></linearGradient><linearGradient id="paint1_linear" x1="21.065" y1="6.675" x2="42.079" y2="37.489" gradientUnits="userSpaceOnUse"><stop offset=".14" stop-color="#FCF84A"/><stop offset=".366" stop-color="#07C3F2"/></linearGradient><linearGradient id="paint2_linear" x1="41.885" y1="10.485" x2="44.644" y2="20.259" gradientUnits="userSpaceOnUse"><stop offset=".285" stop-color="#07C3F2"/><stop offset=".941" stop-color="#087CFA"/></linearGradient><linearGradient id="paint3_linear" x1="23.999" y1="1.707" x2="23.999" y2="28.611" gradientUnits="userSpaceOnUse"><stop offset=".084" stop-color="#878585"/><stop offset=".538"/></linearGradient></defs></svg>