<svg width="64" height="64" viewBox="0 0 64 64" fill="none" xmlns="http://www.w3.org/2000/svg"><rect id="frame" width="64" height="64" fill="none"/><path d="M8.6 57.867L0 6.733 15.933.067l10.2 6.066 9.334-5L54.933 8.6 44 64 8.6 57.867z" fill="url(#paint0_linear)"/><path d="M64 21.667l-8.267-20.4-15-1.267L17.6 22.2l6.267 28.667L35.467 59 64 42.067 57 29l7-7.333z" fill="url(#paint1_linear)"/><path d="M51.2 18.6L57 29l7-7.333L58.867 9 51.2 18.6z" fill="url(#paint2_linear)"/><path d="M51 13H13v38h38V13z" fill="url(#paint3_linear)"/><path d="M32.144 44H18v2.322h14.144V44z" fill="#fff"/><path d="M31.24 17.75l-2.153 8.297-2.407-8.297h-2.407l-2.406 8.297-2.154-8.297H16.42L20.473 32h2.66l2.344-8.233L27.757 32h2.723l4.053-14.25H31.24z" fill="#fff"/><path d="M35.167 29.973l1.836-2.216c1.267 1.076 2.66 1.71 4.244 1.71 1.266 0 2.09-.507 2.09-1.33v-.064c0-.823-.507-1.203-2.85-1.836-2.85-.76-4.75-1.52-4.75-4.37v-.064c0-2.596 2.09-4.306 5.003-4.306 2.09 0 3.863.633 5.32 1.836l-1.647 2.344c-1.266-.887-2.533-1.394-3.736-1.394-1.204 0-1.837.57-1.837 1.267v.063c0 .95.633 1.267 3.103 1.9 2.914.76 4.56 1.774 4.56 4.307v.063c0 2.85-2.153 4.434-5.256 4.434-2.217-.064-4.37-.824-6.08-2.344z" fill="#fff"/><defs><linearGradient id="paint0_linear" x1="22.919" y1="1.335" x2="39.481" y2="60.96" gradientUnits="userSpaceOnUse"><stop offset=".285" stop-color="#07C3F2"/><stop offset=".941" stop-color="#087CFA"/></linearGradient><linearGradient id="paint1_linear" x1="28.087" y1="8.9" x2="56.105" y2="49.985" gradientUnits="userSpaceOnUse"><stop offset=".14" stop-color="#FCF84A"/><stop offset=".366" stop-color="#07C3F2"/></linearGradient><linearGradient id="paint2_linear" x1="55.846" y1="13.979" x2="59.526" y2="27.011" gradientUnits="userSpaceOnUse"><stop offset=".285" stop-color="#07C3F2"/><stop offset=".941" stop-color="#087CFA"/></linearGradient><linearGradient id="paint3_linear" x1="31.949" y1="3.764" x2="31.949" y2="37.843" gradientUnits="userSpaceOnUse"><stop offset=".084" stop-color="#878585"/><stop offset=".538"/></linearGradient></defs></svg>