<svg xmlns="http://www.w3.org/2000/svg" width="13" height="13" viewBox="0 0 13 13">
  <path fill="#AFB1B3" fill-rule="evenodd" d="M5.65253427,3.55772748 C5.68923904,3.75873397 5.79935335,3.95974046 5.72594381,4.12054565 C5.69326793,3.99566748 5.5057152,3.79893527 5.43230567,3.71853268 C5.35889613,3.63813008 5.35889613,3.63813008 5.21207706,3.55772748 C4.72459478,3.44863783 4.30490335,3.46244789 3.81729587,3.55772748 C3.58824042,3.59792879 3.04155472,3.97287599 3.00979098,4.12054565 C3.00015991,3.9551286 3.00979098,3.79893527 3.15661005,3.55772748 C3.30342912,3.3165197 3.30342912,3.07531191 3.30342912,2.91450672 C3.30342912,2.75370153 3.2056054,2.61861442 3.08320051,2.35168855 C3.09336813,2.18327443 3.12405878,2.10953922 3.08320051,1.94967558 C3.01523754,1.68394463 2.75016891,1.81505137 2.56933376,1.86927298 C2.34666561,1.93602159 2.01310699,1.94615218 2.12887654,2.27128596 C2.23077629,2.55741857 2.22591274,2.99650901 2.27569562,3.39692229 C1.86773895,4.04058846 1.5409737,4.78624112 1.46819072,5.56779237 C1.4116652,6.17467089 1.49510881,6.56343001 1.61500979,6.93463649 C1.80499312,7.52277839 1.99602023,7.89151782 2.42251469,8.30148061 C2.99777651,8.85433341 3.26894437,8.9651533 4.11093402,9.10550657 C3.90846697,8.85726835 3.90408853,8.82902037 3.68573961,8.54754987 C3.464699,8.2625534 3.33333373,7.97473615 3.19300808,7.66305983 C2.99911689,7.23255825 3.0032662,7.06874748 3.26030931,6.69083186 C3.48180599,6.36513979 3.6013761,6.21848875 3.69808025,5.89984863 C3.61820588,5.71952455 3.58917854,5.56716339 3.56231528,5.32092323 C3.8335233,4.99625957 4.03504244,4.77376096 4.29836318,4.70521019 C4.55664929,4.63797186 4.77236018,4.65101796 5.00341639,4.78037215 C5.51665306,5.06777804 6.10133059,5.472042 6.68026778,5.48738977 C6.94810447,6.20860773 6.81122243,6.77798213 6.68262039,7.47576216 C6.59481403,7.95229726 6.48736744,8.45887143 6.46003917,8.94470138 C6.24980696,8.5578446 6.08586491,7.75460382 6.16640103,7.25624687 C6.26353442,6.65563674 6.23981056,6.45222092 6.16640103,6.13061054 C5.79935335,6.05020794 5.75732845,5.91583582 5.28548659,5.64819496 C5.09585202,5.54057447 4.62480077,5.40698718 4.40457216,5.48738977 C4.18434355,5.56779237 4.29296087,5.80912941 4.40457216,6.05020794 C4.58391392,6.43738903 5.06827337,8.20188884 5.28548659,8.58288969 C5.01948311,8.23120338 4.17346772,6.88616096 3.96411495,6.53262351 C3.88408855,6.78235047 3.81729587,6.93463649 3.6704768,7.09544168 C3.52365773,7.25624687 3.95625686,8.06151405 4.1931704,8.3416819 C4.6025221,8.82584681 4.69100617,9.1111128 5.13866752,9.58792214 C5.38171562,9.84681662 5.5057152,9.90953252 5.79935335,10.0703377 C6.09299149,10.2311429 6.52990088,10.1555206 6.82708685,10.2311429 C6.68026778,10.3919481 6.53344871,10.4723507 6.3132201,10.4723507 C6.53344871,10.8743637 6.67361808,10.9027986 7.12072499,11.1155715 C7.6789197,11.3811022 7.80062407,11.4079523 8.1484585,11.3969805 C8.48659176,11.3863147 8.6765319,11.3070077 9.10278247,10.914565 C9.32689036,10.708227 9.53621264,10.6101718 9.76346829,10.4321494 C9.68108108,10.4244314 9.83989379,10.3470786 9.74597969,10.3066768 C9.86027373,10.3305261 9.86509258,10.2950857 9.9836969,10.2713442 C10.0170077,10.2476908 10.0475743,10.2485281 10.130516,10.1909416 C10.2866503,10.0825373 10.3890733,10.034905 10.4975637,9.86933121 C10.6122422,9.69436465 10.661727,9.42362655 10.6266993,9.42731903 C10.5573145,9.43462562 10.4909254,9.41593797 10.435616,9.37865082 C10.4333894,9.37751467 10.4311806,9.37640791 10.4289271,9.375213 C10.3401996,9.32790621 10.2027356,9.27395884 10.1107441,9.25760225 C10.1576386,9.23986465 10.2614162,9.23322407 10.3103674,9.25443867 C10.3169312,9.25729862 10.3236023,9.25946318 10.3304433,9.26126534 C10.3083643,9.22011921 10.2939401,9.1733707 10.2895046,9.12289053 C10.2836294,9.05595584 10.2960505,8.99171459 10.3223325,8.93593567 C10.3309173,8.91394732 10.3424531,8.89418229 10.3551515,8.87996087 C10.313077,8.86302641 10.2701799,8.84362377 10.2259503,8.82257568 C10.4310733,8.85680699 10.5175608,8.85300065 10.7177923,8.82409747 C10.7310003,8.75496884 10.8427858,8.69141932 10.8551085,8.61690378 C10.8302931,8.61473922 10.8055492,8.61268241 10.7807606,8.61054723 C10.7787575,8.61035135 10.7767275,8.61015546 10.7747244,8.60995957 C10.6799966,8.69288847 10.5744483,8.67895109 10.4302595,8.64290782 C9.99177314,8.53338722 10.0948175,8.26388543 9.89306587,7.85784039 C10.1025259,8.13828248 10.0870107,8.43168252 10.4283368,8.52022359 C10.5078803,8.54085052 10.5620272,8.56664888 10.615861,8.55778498 C10.5189601,8.50439589 10.4351242,8.41591359 10.4018939,8.31316089 C10.3082034,8.02339457 10.3663832,7.7792406 10.263464,7.50860267 C10.3909662,7.75053332 10.3986478,7.98666569 10.5126467,8.24120168 C10.5535854,8.33265168 10.7055453,8.47901869 10.7988334,8.48127139 C10.8244358,8.48185906 10.8499845,8.48246631 10.8756137,8.48307356 C10.8980951,8.32199541 10.8733303,8.07232382 10.8646113,7.93966892 C10.8487205,7.69763055 10.7521583,7.4339023 10.7177923,7.29644816 C10.8646113,7.25624687 11.0848399,7.41705206 11.231659,7.81906504 C11.3784781,8.22107802 11.3513102,8.51272936 11.3050685,8.78389618 C11.2416215,9.15598416 11.3955868,8.88995672 11.5987067,9.06530526 C11.7480106,9.1942383 11.9022632,9.40190231 12.0391639,9.54772083 C12.1749647,9.69231506 12.2882422,9.36748233 12.3416289,9.22611045 C12.5732395,8.61248361 12.5407878,8.11602765 12.4796211,7.49745466 C12.4109785,6.80333771 12.1665021,6.19094647 11.6075335,5.84920144 C10.8949776,5.41361659 10.1131891,5.6683785 9.40524746,5.92960404 C9.25414611,5.98535357 9.02421254,6.07916594 8.89138071,6.17081183 C8.9275531,5.99245642 8.89640374,5.63020486 8.89138071,5.44718847 C8.88255386,5.12557809 8.92303682,4.98251844 9.01290965,4.89324307 C9.10278247,4.8039677 9.1531254,4.8039677 9.24960154,4.8039677 C9.39642061,4.8039677 9.61664922,4.8843703 9.69005876,5.04517549 C9.76346829,5.20598068 9.76346829,5.24618199 9.76346829,5.32658458 C9.81717692,5.30845521 9.92671532,5.26126531 9.9836969,5.24618199 C9.9836969,5.24618199 9.93332498,5.14714243 9.90115883,5.0322839 C9.81768063,4.73405524 9.54323968,4.48235732 9.24960154,4.48235732 C8.9559634,4.48235732 8.77156062,4.68637626 8.58831099,4.86492756 C8.46205189,4.98797418 8.34055914,5.10569267 8.22012161,5.22227501 C7.88975004,5.33643815 7.79439298,5.56037996 7.48777267,5.80900016 C7.41436314,5.32658458 7.48777267,5.16577939 7.78141082,4.92457161 C7.73712758,4.43012261 7.6257649,4.20094825 7.48777267,3.87933787 C7.39923571,3.67298996 6.95953416,2.91770884 6.82708685,2.83410413 C6.73263621,2.774525 6.27770827,2.26285237 6.16640103,2.19088336 C6.08353092,2.07030492 5.99734974,1.8609961 5.87276288,1.78887039 C5.49308239,1.56898686 5.38095819,1.74054297 5.21207706,2.11048077 C5.13866752,2.27128596 5.06525799,2.43209115 5.21207706,2.51249374 C5.35889613,2.59289634 5.51454205,2.83410413 5.57912474,2.91450672 C5.64370743,2.99490932 5.61582951,3.356721 5.65253427,3.55772748 Z M7.92822989,3.55772748 C7.89286594,3.40796305 7.78141082,3.2361171 7.70800128,3.07531191 C7.63459175,2.91450672 7.46492163,2.62044412 7.3409536,2.51249374 C7.36508218,2.4911879 7.44133815,2.42130009 7.52023206,2.41322824 C7.57604894,2.4075156 7.79610024,2.4063023 7.85135345,2.40517325 C7.97299578,2.40265677 8.01915933,2.41349787 8.03146045,2.57776016 C8.03747128,2.65816966 8.03217095,2.67320115 7.99825168,2.74369076 C7.9952439,2.86941379 7.99224085,2.99517053 7.98925675,3.12089357 C7.98642423,3.24008948 7.94450508,3.49515244 7.92822989,3.55772748 Z M1.59744112,3.2702291 C1.59742208,3.26830153 1.59740303,3.26639498 1.59739034,3.26443236 C1.5849168,3.20720787 1.57046908,3.15143433 1.5402025,3.1066725 C1.39782007,2.89633537 1.03561771,3.20509805 0.930782857,3.32328301 C0.816178652,3.45249371 0.739471151,3.60552224 0.721208367,3.74901804 C0.707928651,3.85370996 0.7208148,3.85624735 0.786959467,3.93030133 C0.876102419,4.02994652 0.965334241,4.1296688 1.05443911,4.22929295 C1.07394607,4.28687492 1.09352286,4.34439379 1.11302982,4.40195473 C1.2185439,3.99900716 1.39823268,3.60307598 1.59744112,3.2702291 Z M6.28799867,1.55126322 C6.16930121,1.35721339 6.15464512,1.23712874 5.96448991,1.12439454 C5.39841734,0.788904848 5.09798631,1.17798731 4.76289662,1.74358294 C4.6032313,2.01308238 4.25413047,2.62838057 4.62458917,2.8369675 C4.7806746,2.92484531 4.89897949,2.99071271 5.01698527,3.06598828 C4.62834666,3.01317355 4.24692394,3.01253884 3.85031235,3.07789437 C3.85733194,3.0254789 3.86345422,2.97560231 3.86840813,2.92986163 C3.89418713,2.69251785 3.89070541,2.59289634 3.81729587,2.43209115 C3.74388634,2.27128596 3.6704768,2.19088336 3.59706727,2.11048077 C3.6159295,1.90450437 3.65013014,1.64279134 3.59706727,1.4270587 C3.47910822,0.947631225 2.58462674,1.24101895 2.25155601,1.33968697 C1.850785,1.45837933 1.27811346,1.56891249 1.51309686,2.13324893 C1.56815999,2.26546489 1.61139918,2.40069065 1.64393606,2.52966136 C1.29350796,2.35978202 0.806520301,2.72013834 0.574584027,2.97481403 C0.353976308,3.21707176 0.234138516,3.49838516 0.192385501,3.77136531 C0.156829541,4.00369277 0.189385116,4.00256665 0.340759661,4.16681543 C0.479244703,4.31695707 0.61768301,4.46728299 0.756130664,4.61734273 C0.812035026,4.78402801 0.868042206,4.95056996 0.923918527,5.11714263 C0.902140035,5.24157817 0.885951043,5.36569635 0.876304947,5.48861676 C0.836084838,6.0011315 0.849600589,6.36610489 0.91645028,6.70162529 C0.672615285,6.59741884 0.392822409,6.64623075 0.26837655,6.92966328 C0.221052727,7.03741187 0.192862197,7.14716699 0.157119298,7.30651205 C-0.386810241,7.88051258 0.632497993,8.63301235 0.929853868,8.68960467 C0.895858856,8.58380119 0.85861109,8.48701685 0.825831187,8.3910515 C1.02749255,8.27671003 1.00276976,7.95091515 0.959951184,7.74116116 C0.887409174,7.84142621 0.847319923,7.97253653 0.740624003,7.9781671 C0.724995831,7.74095641 0.727697112,7.47882789 0.558553935,7.33955836 C0.608625774,7.19295886 0.605999269,7.19283601 0.748307231,7.25276572 C0.950417251,7.33799204 1.10260498,7.52784454 1.25569938,7.71313117 C1.42058032,8.06489832 1.63193452,8.37781455 1.92269142,8.66015169 C2.63719422,9.3539707 3.31256117,9.58096447 4.40003702,9.77077602 C4.54478455,9.93622257 4.69437382,10.0958543 4.85493646,10.2510737 C5.07246902,10.4613191 5.21371142,10.5049713 5.41944807,10.5167239 C5.75989359,11.0154795 6.0277597,11.3628139 6.58281216,11.6187078 C7.74625102,12.1550655 8.54818559,12.1809251 9.48199689,11.3376197 C9.79058785,11.0589782 10.0537618,10.7653288 10.392908,10.5327147 C10.5645375,10.4150051 10.6871888,10.330393 10.8173082,10.1606775 C10.980946,9.94710492 11.1145893,9.73352214 11.2076106,9.45861736 C11.3277942,9.51279365 11.4648585,9.56383731 11.5755269,9.66743975 C11.7184144,9.80116061 11.8093233,10.024991 11.9416673,10.1719181 C12.1173347,10.3668893 12.5180496,10.1315214 12.6067806,9.94550789 C12.908567,9.31293922 13.0307972,8.51374439 12.9934879,7.81906504 C12.9200783,6.45222092 12.5660558,5.78667854 11.8766777,5.38371417 C11.4079447,5.10980241 10.8891314,4.97391203 10.3507446,5.0853768 C10.277335,4.60296122 9.83687783,3.95974046 9.32301108,3.95974046 C8.80914432,3.95974046 8.80914432,4.04014306 8.58891572,4.20094825 C8.44620056,4.30515513 8.28588448,4.47252264 8.27678139,4.45194144 C8.25782756,4.40908868 8.23048081,4.37470055 8.22186803,4.32155213 C8.31471171,4.12076609 8.2661214,4.27964177 8.34558018,4.07265186 C8.43301195,3.84469578 8.47556881,3.69507624 8.48157892,3.45110886 C8.48685063,3.23453676 8.49215037,3.01790323 8.49745012,2.80134136 C8.58564834,2.62971143 8.59335961,2.58795309 8.58051684,2.39154866 C8.55335448,1.97762004 8.3452063,1.93812417 7.99830202,1.94050948 C7.88272646,1.94131823 7.44648362,1.93835963 7.33528245,1.94715355 C7.11422607,1.96464926 6.96850646,1.983138 6.89232847,2.08313688 C6.69141487,1.9053645 6.35354912,1.5906772 6.28799867,1.55126322 Z M8.19787807,8.33667819 C8.16552411,8.41074296 8.15003845,8.4888889 8.14947433,8.56606889 C8.03038963,8.46222848 7.90091847,8.36378536 7.76656934,8.30690256 C7.95206539,8.48772975 8.20402809,8.9141878 8.38660399,9.04880602 C8.59379102,9.20163253 8.87497736,9.17188105 9.11654255,9.29386937 C9.03407037,9.21206487 8.92838076,9.14615036 8.8207665,9.08341144 C8.93932027,9.03604331 9.04175789,8.94020828 9.10020518,8.80644735 C9.1248495,8.75003544 9.139583,8.6911362 9.14554498,8.63220073 C9.30783466,8.69038758 9.4672042,8.71792944 9.60180774,8.71581641 C9.12030336,8.56826644 8.60812631,8.22319029 8.2549759,7.76622006 C8.2946413,7.88539504 8.35007996,7.9929423 8.41685632,8.0889826 C8.3243074,8.14179631 8.2461712,8.22623305 8.19787807,8.33667819 L8.19787807,8.33667819 Z" transform="matrix(1 0 0 -1 0 13)"/>
</svg>
