<svg width="32" height="32" viewBox="0 0 32 32" fill="none" xmlns="http://www.w3.org/2000/svg">
<path d="M31.4956 24.4173L32 10.5391L23.1826 8.53906L15.6696 13.5651L19.1652 23.8782L31.4956 24.4173Z" fill="url(#paint0_linear)"/>
<path d="M29.5304 16.9739L32 10.5391L23.3217 6.71301L15.6696 13.5652L29.5304 16.9739Z" fill="url(#paint1_linear)"/>
<path d="M20.4696 32L31.4957 24.4173L4.9913 12.6434L0 26.8347L20.4696 32Z" fill="url(#paint2_linear)"/>
<path d="M0 12.2261L17.6348 25.6696L29.5304 16.9739L16.0174 1.98261L4.24348 0L0 12.2261Z" fill="url(#paint3_linear)"/>
<path d="M26 6H6V26H26V6Z" fill="url(#paint4_linear)"/>
<path d="M16 23H8V24H16V23Z" fill="white"/>
<path d="M16.5731 16.0001C15.9532 16.0001 15.4386 15.8831 15.0292 15.6492C14.6082 15.4153 14.269 15.1346 14 14.8188L15.0877 13.6024C15.3099 13.848 15.5439 14.0469 15.7661 14.1872C16 14.3276 16.2456 14.3977 16.5263 14.3977C16.8538 14.3977 17.1111 14.2925 17.2982 14.082C17.4854 13.8714 17.5789 13.5439 17.5789 13.0878V8.15002H19.3567V13.1697C19.3567 13.6375 19.2982 14.0469 19.1696 14.3977C19.0409 14.7486 18.8538 15.041 18.6199 15.2749C18.3743 15.5206 18.0819 15.696 17.731 15.8246C17.3801 15.9416 16.9941 16.0001 16.5731 16.0001Z" fill="white"/>
<path d="M8 8.14001H11.4763C13.5167 8.14001 14.7258 9.25646 14.7258 10.8613V10.8962C14.7258 12.7105 13.2144 13.6525 11.2873 13.6525H9.85149V15.99H8V8.14001ZM11.3629 12.0825C12.3076 12.0825 12.8365 11.5591 12.8365 10.8962V10.8613C12.8365 10.0938 12.2698 9.67513 11.3251 9.67513H9.88928V12.0825H11.3629Z" fill="white"/>
<defs>
<linearGradient id="paint0_linear" x1="27.3281" y1="22.2473" x2="22.6919" y2="8.8539" gradientUnits="userSpaceOnUse">
<stop offset="0.000825369" stop-color="#FF318C"/>
<stop offset="1" stop-color="#FE6C54"/>
</linearGradient>
<linearGradient id="paint1_linear" x1="28.5343" y1="7.74399" x2="24.4661" y2="12.9106" gradientUnits="userSpaceOnUse">
<stop offset="0" stop-color="#FF546A"/>
<stop offset="0.7814" stop-color="#FE764A"/>
</linearGradient>
<linearGradient id="paint2_linear" x1="26.8502" y1="28.5299" x2="3.50233" y2="20.1054" gradientUnits="userSpaceOnUse">
<stop offset="0.016776" stop-color="#FF318C"/>
<stop offset="0.8106" stop-color="#6B57FF"/>
</linearGradient>
<linearGradient id="paint3_linear" x1="9.06033" y1="22.3272" x2="18.9899" y2="4.78924" gradientUnits="userSpaceOnUse">
<stop offset="0.3305" stop-color="#FF318C"/>
<stop offset="0.9422" stop-color="#FDB60D"/>
</linearGradient>
<linearGradient id="paint4_linear" x1="15.9733" y1="1.139" x2="15.9733" y2="19.075" gradientUnits="userSpaceOnUse">
<stop offset="0.0842986" stop-color="#878585"/>
<stop offset="0.5377"/>
</linearGradient>
</defs>
    <path fill-rule="evenodd" clip-rule="evenodd" d="M14 32H32V22H14V32Z" fill="#D99E2B"/>
    <path fill-rule="evenodd" clip-rule="evenodd" d="M16 30H19.75V29.0505H16.9V27.45H19.4V26.5H16.9V24.95H19.7V24H16V30Z" fill="black"/>
    <path fill-rule="evenodd" clip-rule="evenodd" d="M22.3999 27.65L23.2999 25.25L24.2499 27.65H22.3999ZM20.5 30H21.45L22 28.5505H24.55L25.0995 30H26.0995L23.75 24H22.8495L20.5 30Z" fill="black"/>
    <path fill-rule="evenodd" clip-rule="evenodd" d="M27.407 27.1002V24.9502H28.2995C28.9845 24.9502 29.2995 25.3002 29.35 25.8502V26.0502C29.35 26.6442 29.0225 27.1002 28.45 27.1002H27.407ZM27.407 30V28.05H28.25C29.3955 28.071 30.2555 27.174 30.2555 26.152V25.902C30.2555 24.7925 29.4675 24 28.44 24H26.5V30H27.407Z" fill="black"/>
</svg>