<svg xmlns="http://www.w3.org/2000/svg" width="48" height="48" viewBox="0 0 48 48">
  <g id="Unity" fill="none" fill-rule="evenodd" stroke="none" stroke-width="1" opacity=".8">
    <path id="Fill-3" fill="#9AA7B0" d="M36.8281,37.4023 L29.0481,24.0003 L36.8281,10.5973 L40.4391,24.0003 L36.8281,37.4023 Z M19.5991,35.9653 L9.5771,26.0003 L25.2041,26.0003 L33.0751,39.5563 L19.5991,35.9653 Z M19.5991,12.0343 L33.0751,8.4433 L25.2041,22.0003 L9.5771,22.0003 L19.5991,12.0343 Z M41.3051,23.9813 L43.9931,19.3503 L39.3181,2.0003 L21.8701,6.6493 L21.8451,6.6563 L19.1491,11.2983 L13.7721,11.2983 L1.0001,24.0003 L13.7731,36.7023 L13.7911,36.7203 L19.1821,36.7203 L21.8711,41.3503 L39.3181,46.0003 L43.9931,28.6483 L44.0001,28.6243 L41.3051,23.9813 Z"/>
  </g>
</svg>
