<svg xmlns="http://www.w3.org/2000/svg" width="16" height="16" viewBox="0 0 16 16"><rect id="frame" width="16" height="16" fill="none"/><path fill="#F37726" fill-rule="evenodd" d="M7.9 11.736c-2.74 0-5.147-.983-6.392-2.435.483 1.306 1.354 2.733 2.497 3.529a6.815 6.815 0 0 0 7.79 0c1.142-.796 2.013-2.223 2.496-3.53-1.241 1.453-3.64 2.436-6.391 2.436zm0-8.42c2.739 0 5.147.983 6.391 2.435-.483-1.306-1.354-2.733-2.497-3.529a6.815 6.815 0 0 0-7.789 0c-1.143.796-2.014 2.223-2.497 3.53C2.753 4.295 5.148 3.315 7.9 3.315z"/></svg>