<svg xmlns="http://www.w3.org/2000/svg" width="13" height="13" viewBox="0 0 13 13"><rect id="frame" width="13" height="13" fill="none"/><path fill="#AFB1B3" fill-rule="evenodd" d="M6.4 10.736c-2.74 0-5.147-.983-6.392-2.435.483 1.306 1.354 2.733 2.497 3.529a6.815 6.815 0 0 0 7.79 0c1.142-.796 2.013-2.223 2.496-3.53-1.241 1.453-3.64 2.436-6.391 2.436zm0-8.42c2.739 0 5.147.983 6.391 2.435-.483-1.306-1.354-2.733-2.497-3.529a6.815 6.815 0 0 0-7.789 0C1.362 2.018.491 3.445.008 4.752 1.253 3.295 3.648 2.315 6.4 2.315z"/></svg>