<svg xmlns="http://www.w3.org/2000/svg" width="16" height="16" viewBox="0 0 16 16">
  <g fill="none" fill-rule="evenodd">
    <path fill="#689F63" d="M5.23465054,12.5346505 L6.60579811,13.9057981 C6.47491953,13.9605061 6.33402519,13.9884182 6.19092727,13.9884182 L6.19143636,13.9910909 C6.00561818,13.9910909 5.82107273,13.9423455 5.65816364,13.8485455 L3.96072727,12.8436 C3.7072,12.7018182 3.83090909,12.6516727 3.91452727,12.6227818 C4.25256364,12.5044182 4.32116364,12.4776909 4.68198182,12.2727818 C4.71990909,12.2511455 4.76954545,12.2587818 4.80836364,12.2816909 L5.23465054,12.5346505 Z M11.4321455,7.73714031 L11.4321455,4.11587273 C11.4321455,4.05732727 11.4016,4.00514545 11.3534909,3.97587273 L6.27098182,1.04350909 C6.22389091,1.01550909 6.16152727,1.01550909 6.11443636,1.04350909 L1.03294545,3.97587273 C0.983690909,4.00387273 0.952381818,4.0586 0.952381818,4.1146 L0.952381818,9.98187273 C0.952381818,10.0378727 0.982927273,10.0913273 1.03129091,10.1180545 L2.42365455,10.9224182 C3.17965455,11.3004182 3.64165455,10.8549636 3.64165455,10.4069636 L3.64165455,4.61605455 C3.64165455,4.53332727 3.70656364,4.46969091 3.78929091,4.46969091 L4.43329091,4.46969091 C4.51347273,4.46969091 4.57965455,4.53332727 4.57965455,4.61605455 L4.57965455,10.4095091 C4.57965455,10.7757834 4.50705884,11.0854263 4.36876746,11.3312325 L4.2,11.5 L4.23055991,11.5305599 C3.97348442,11.8337906 3.58082404,11.9966 3.07401818,11.9966 C2.78001818,11.9966 2.54838182,11.9966 1.90183636,11.6784182 L0.568018182,10.9096909 C0.238381818,10.7187818 0.0347454545,10.3624182 0.0347454545,9.98187273 L0.0347454545,4.1146 C0.0347454545,3.73278182 0.238381818,3.37641818 0.568018182,3.18805455 L5.65765455,0.251872727 C5.97965455,0.0698727273 6.40729091,0.0698727273 6.72674545,0.251872727 L11.8100182,3.18932727 C12.1383818,3.37896364 12.3432909,3.73405455 12.3432909,4.11587273 L12.3432909,8.6545018 L11.4321455,7.73714031 Z M6.056956,9.643044 C5.27489288,9.27557854 5.0708,8.6369416 5.0708,8.07036364 C5.0708,7.98890909 5.13647273,7.924 5.21805455,7.924 L5.87478182,7.924 C5.94732727,7.924 6.00841818,7.97681818 6.01987273,8.04847273 C6.08688524,8.50020578 6.24320937,8.80080503 6.75153037,8.94846963 L6.056956,9.643044 Z M8.11381993,7.58618007 C7.93505995,7.5597441 7.72927504,7.53494229 7.49241818,7.51176364 C6.10005455,7.37430909 5.23969091,7.06758182 5.23969091,5.95394545 C5.23969091,4.92812727 6.10514545,4.31721818 7.55478182,4.31721818 C9.1826,4.31721818 9.98950909,4.88230909 10.0913273,6.09649091 C10.0951455,6.13849091 10.0798727,6.17921818 10.0518727,6.20976364 C10.0238727,6.23903636 9.98441818,6.25685455 9.94369091,6.25685455 L9.28314545,6.25685455 C9.21441818,6.25685455 9.1546,6.20849091 9.1406,6.14230909 C8.98150909,5.43849091 8.59714545,5.21321818 7.55223636,5.21321818 C6.3826,5.21321818 6.24641818,5.62049091 6.24641818,5.92594545 C6.24641818,6.29630909 6.40678182,6.40449091 7.98496364,6.61321818 C8.67517319,6.70483394 9.20528339,6.81308018 9.58209049,7 L8.7,7 L8.11381993,7.58618007 Z" transform="translate(1.8 1)"/>
    <polygon fill="#62B543" points="13.75 10.75 17.25 14.25 10.25 14.25" transform="rotate(90 13.75 12.5)"/>
    <polygon fill="#F26522" points="9.25 10.75 12.75 14.25 5.75 14.25" transform="rotate(-90 9.25 12.5)"/>
  </g>
</svg>
