<svg xmlns="http://www.w3.org/2000/svg" width="16" height="16" viewBox="0 0 16 16"><rect id="frame" width="16" height="16" fill="none"/><g fill="none" fill-rule="evenodd"><path fill="#689F63" d="M7.035 13.535l1.37 1.37c-.13.056-.271.083-.414.083v.003a1.07 1.07 0 0 1-.533-.142l-1.697-1.005c-.254-.142-.13-.192-.046-.221.338-.119.406-.145.767-.35.038-.022.088-.014.126.009l.427.253zm6.197-4.798V5.116c0-.059-.03-.11-.079-.14L8.071 2.044a.156.156 0 0 0-.157 0L2.833 4.976a.162.162 0 0 0-.08.139v5.867c0 .056.03.11.078.136l1.393.804c.756.378 1.218-.067 1.218-.515v-5.79c0-.084.065-.147.147-.147h.644c.08 0 .147.063.147.146v5.794c0 .366-.073.675-.211.921L6 12.5l.03.03c-.257.304-.65.467-1.156.467-.294 0-.526 0-1.172-.319l-1.334-.768a1.075 1.075 0 0 1-.533-.928V5.115c0-.382.203-.739.533-.927l5.09-2.936c.322-.182.75-.182 1.069 0l5.083 2.937c.328.19.533.545.533.927v4.539l-.91-.918zm-5.375 1.906c-.782-.367-.986-1.006-.986-1.573 0-.081.065-.146.147-.146h.657c.072 0 .133.053.145.124.067.452.223.753.732.9l-.695.695zm2.057-2.057a12.814 12.814 0 0 0-.622-.074C7.9 8.374 7.04 8.068 7.04 6.954c0-1.026.865-1.637 2.315-1.637 1.628 0 2.435.565 2.536 1.78a.148.148 0 0 1-.147.16h-.66a.146.146 0 0 1-.143-.115c-.16-.704-.544-.929-1.589-.929-1.17 0-1.306.407-1.306.713 0 .37.16.478 1.739.687.69.092 1.22.2 1.597.387H10.5l-.586.586z"/><path fill="#62B543" d="M15.5 12.5L12 16V9z"/><path fill="#F26522" d="M7.5 12.5L11 9v7z"/></g></svg>