<svg xmlns="http://www.w3.org/2000/svg" width="13" height="13" viewBox="0 0 13 13"><rect id="frame" width="13" height="13" fill="none"/><g fill="none" fill-rule="evenodd"><path fill="#6E6E6E" d="M9 4.519a3.503 3.503 0 0 0-2.538 4.032A4.5 4.5 0 1 1 9 4.519zM4.001 5v.002h1V2h-1V4H2v1h2.001z"/><path fill="#737373" d="M10.05 12.7c-1.55 0-2.7-.8-2.7-2.02v-.02c0-.85.39-1.35 1.13-1.69-.54-.33-.89-.78-.89-1.53v-.02c0-1.07.98-1.92 2.46-1.92s2.46.84 2.46 1.92v.02c0 .75-.35 1.2-.89 1.53.71.37 1.13.82 1.13 1.65v.02c0 1.3-1.15 2.06-2.7 2.06zm0-4.24c.61 0 1-.36 1-.85v-.02c0-.43-.37-.82-1-.82s-1 .38-1 .81v.02c0 .49.39.86 1 .86zm0 2.97c.76 0 1.21-.38 1.21-.87v-.02c0-.54-.51-.86-1.21-.86s-1.21.32-1.21.86v.02c0 .48.45.87 1.21.87z"/></g></svg>