<svg xmlns="http://www.w3.org/2000/svg" width="16" height="16" viewBox="0 0 16 16"><rect id="frame" width="16" height="16" fill="none"/><g fill="none" fill-rule="evenodd"><path fill="#AFB1B3" d="M10 6v1.58c-.91.62-1.5 1.608-1.5 2.72 0 .62.183 1.2.502 1.7H4v-2H1V9h3V8H1V7h3V6H1V5h3V3h6v2h3v1h-3z"/><path fill="#3F89EC" d="M12.35 16c-1.722 0-3-.889-3-2.244v-.023c0-.944.433-1.5 1.256-1.877-.6-.367-.99-.867-.99-1.7v-.023C9.617 8.944 10.707 8 12.35 8s2.733.933 2.733 2.133v.023c0 .833-.389 1.333-.989 1.7.79.41 1.256.91 1.256 1.833v.022c0 1.445-1.278 2.289-3 2.289zm0-4.711c.678 0 1.111-.4 1.111-.945v-.022c0-.478-.411-.91-1.111-.91s-1.111.421-1.111.9v.021c0 .545.433.956 1.111.956zm0 3.3c.844 0 1.344-.422 1.344-.967V13.6c0-.6-.566-.956-1.344-.956-.778 0-1.344.356-1.344.956v.022c0 .534.5.967 1.344.967z"/></g></svg>