<svg xmlns="http://www.w3.org/2000/svg" width="16" height="16" viewBox="0 0 16 16">
  <g fill="none" fill-rule="evenodd">
    <path fill="#3F89EC" d="M12.3499998,16 C10.6277776,16 9.34999981,15.1111111 9.34999981,13.7555556 L9.34999981,13.7333333 C9.34999981,12.7888889 9.78333314,12.2333333 10.6055554,11.8555556 C10.0055554,11.4888889 9.61666648,10.9888889 9.61666648,10.1555556 L9.61666648,10.1333333 C9.61666648,8.94444444 10.7055554,8 12.3499998,8 C13.9944443,8 15.0833331,8.93333333 15.0833331,10.1333333 L15.0833331,10.1555556 C15.0833331,10.9888889 14.6944443,11.4888889 14.0944443,11.8555556 C14.8833331,12.2666667 15.3499998,12.7666667 15.3499998,13.6888889 L15.3499998,13.7111111 C15.3499998,15.1555556 14.072222,16 12.3499998,16 Z M12.3499998,11.2888889 C13.0277776,11.2888889 13.4611109,10.8888889 13.4611109,10.3444444 L13.4611109,10.3222222 C13.4611109,9.84444444 13.0499998,9.41111111 12.3499998,9.41111111 C11.6499998,9.41111111 11.2388887,9.83333333 11.2388887,10.3111111 L11.2388887,10.3333333 C11.2388887,10.8777778 11.672222,11.2888889 12.3499998,11.2888889 Z M12.3499998,14.5888889 C13.1944443,14.5888889 13.6944443,14.1666667 13.6944443,13.6222222 L13.6944443,13.6 C13.6944443,13 13.1277776,12.6444444 12.3499998,12.6444444 C11.572222,12.6444444 11.0055554,13 11.0055554,13.6 L11.0055554,13.6222222 C11.0055554,14.1555556 11.5055554,14.5888889 12.3499998,14.5888889 Z"/>
    <path fill="#6E6E6E" d="M12.9794631,7 L11.5572742,7 C11.308553,4.70256077 9.36269622,2.91412873 6.99912877,2.91412873 C4.46690317,2.91412873 2.41412873,4.96690317 2.41412873,7.49912877 C2.41412873,10.0313544 4.46690317,12.0841288 6.99912877,12.0841288 C7.52476948,12.0841288 8.02975079,11.9956754 8.5,11.8328414 L8.5,13.3109738 C8.02057012,13.4343705 7.51794935,13.5 7,13.5 C3.6862915,13.5 1,10.8137085 1,7.5 C1,4.1862915 3.6862915,1.5 7,1.5 C10.1453319,1.5 12.7253877,3.92023474 12.9794631,7 Z"/>
    <polygon fill="#6E6E6E" points="6.761 4.696 8.018 4.696 8.018 7.839 6.761 7.839"/>
    <polygon fill="#6E6E6E" points="7.136 6.935 8.025 7.824 5.803 10.046 4.914 9.158"/>
  </g>
</svg>
