<svg xmlns="http://www.w3.org/2000/svg" width="17" height="16" viewBox="0 0 17 16">
  <g fill="none" transform="translate(.9 1.5)">
    <polygon fill="#9A9A9A" points="0 1.465 1.864 4.952 2.978 4.944 2.978 2.454"/>
    <polygon fill="#9A9A9A" points="12.149 2.454 12.035 4.944 13.247 4.944 15.152 1.502"/>
    <path fill="#767676" d="M11.2111004,1.50165017 L8.79380987,5.67697014 L6.2300169,5.71359575 L3.84935201,1.46502455 L0.00366256138,1.46502455 L1.21230782,3.73581261 L2.237825,3.73581261 L4.25223376,7.28849714 L7.47528777,13.2584722 L10.6250906,7.58150205 L12.7860018,3.73581261 L13.9213958,3.73581261 L15.1666667,1.50165017 L11.2111004,1.50165017 Z M7.49360058,9.11977783 C6.73506214,9.11977783 6.12014006,8.50485941 6.12014006,7.74631731 C6.12014006,6.98777888 6.73506214,6.3728568 7.49360058,6.3728568 C8.25214268,6.3728568 8.8670611,6.98777888 8.8670611,7.74631731 C8.8670611,8.50485941 8.25214268,9.11977783 7.49360058,9.11977783 Z"/>
    <path fill="#3F89EC" d="M10.0108277,4.95248986 C10.3929318,4.4363727 10.6189228,3.79774652 10.6189228,3.10632452 C10.6189228,1.39075147 9.22786734,-5.32907052e-15 7.51191339,-5.32907052e-15 C5.79595577,-5.32907052e-15 4.40490397,1.39075147 4.40490397,3.10632452 C4.40490397,3.79774652 4.63089499,4.4363727 5.01299903,4.95249352 C4.25360356,5.63614723 3.77610078,6.62671991 3.77610078,7.72883225 C3.77610078,9.79160879 5.44868269,11.4638171 7.51191339,11.4638171 C9.57514409,11.4638171 11.247726,9.79160879 11.247726,7.72883225 C11.247726,6.62671991 10.7702269,5.63614723 10.0108277,4.95248986 Z M7.53022619,2.34403928 C7.94489773,2.34403928 8.28105128,2.68019283 8.28105128,3.09486436 C8.28105128,3.5095359 7.94489773,3.84568945 7.53022619,3.84568945 C7.11555466,3.84568945 6.77940111,3.5095359 6.77940111,3.09486436 C6.77940111,2.68019283 7.11555466,2.34403928 7.53022619,2.34403928 Z M7.51191339,8.79014731 C6.92531023,8.79014731 6.44977059,8.31460766 6.44977059,7.72800451 C6.44977059,7.14140135 6.92531023,6.66586171 7.51191339,6.66586171 C8.09851654,6.66586171 8.57405619,7.14140135 8.57405619,7.72800451 C8.57405619,8.31460766 8.09851654,8.79014731 7.51191339,8.79014731 Z"/>
  </g>
</svg>
