<svg xmlns="http://www.w3.org/2000/svg" width="17" height="16" viewBox="0 0 17 16"><rect id="frame" width="17" height="16" fill="none"/><g fill="none"><path fill="#9A9A9A" d="M.9 2.965l1.864 3.487 1.114-.008v-2.49z"/><path fill="#9A9A9A" d="M13.049 3.954l-.114 2.49h1.212l1.905-3.442z"/><path fill="#767676" d="M12.111 3.002L9.694 7.177l-2.564.037-2.38-4.249H.903l1.208 2.27h1.026l2.014 3.553 3.223 5.97 3.15-5.676 2.161-3.846h1.135l1.246-2.234H12.11zM8.394 10.62a1.373 1.373 0 1 1 0-2.747 1.373 1.373 0 0 1 0 2.747z"/><path fill="#3F89EC" d="M10.91 6.452a3.107 3.107 0 1 0-4.998 0 3.735 3.735 0 1 0 4.998 0zM8.43 3.844a.75.75 0 1 1 0 1.502.75.75 0 0 1 0-1.502zm-.018 6.446a1.062 1.062 0 1 1 0-2.124 1.062 1.062 0 0 1 0 2.124z"/></g></svg>