<svg xmlns="http://www.w3.org/2000/svg" width="13" height="13" viewBox="0 0 13 13"><rect id="frame" width="13" height="13" fill="none"/><g fill="#AFB1B3" fill-rule="nonzero"><path d="M10.895 4.175l-.315.665h.9l.045-.076.33-.59h-.97.01zm-8.802 0h-.95l.38.665h.89l-.32-.665z"/><path d="M3.663 2.71a2.636 2.636 0 0 0-.057.562c0 .6.199 1.16.539 1.613-.467.36-.844.826-1.086 1.36L2.011 4.252h-.828L0 2.183h3.398l.265.526zm2.1 8.471a3.901 3.901 0 0 0 1.477 0L6.5 12.525l-.739-1.344zm4.18-4.943c-.242-.532-.614-1-1.08-1.359.34-.453.539-1.008.539-1.613 0-.084-.006-.168-.012-.252a2.65 2.65 0 0 0-.06-.36l.27-.476 3.403.005-1.183 2.068h-.828L9.944 6.238z"/><path d="M9.671 6.765a3.261 3.261 0 0 0-1.123-1.793c.295-.411.468-.914.468-1.463 0-.076-.005-.152-.01-.228a2.513 2.513 0 0 0-5.004 0c-.005.076-.01.152-.01.233 0 .544.173 1.052.468 1.463A3.216 3.216 0 0 0 3.337 6.77a3.135 3.135 0 0 0-.086.731 3.252 3.252 0 0 0 4.434 3.028A3.252 3.252 0 0 0 9.752 7.5c0-.253-.03-.497-.081-.736zm-3.17-4.14a1.037 1.037 0 0 1 0 2.073 1.037 1.037 0 0 1 0-2.073zm0 6.06a1.185 1.185 0 0 1 0-2.367 1.18 1.18 0 0 1 1.183 1.183c.001.656-.527 1.184-1.183 1.184z"/></g></svg>