<svg ti:v="1" width="16" height="16" viewBox="0 0 16 16" xmlns="http://www.w3.org/2000/svg" xmlns:ti="urn:schemas-jetbrains-com:tisvg"><rect id="frame" width="16" height="16" fill="none"/><linearGradient id="a" x1=".5" y1=".014" x2=".5" y2="1"><stop offset="0" stop-color="#008712"/><stop offset="1" stop-color="#005B38"/></linearGradient><path d="M16 8A8 8 0 1 1 0 8a8 8 0 0 1 16 0z" fill="url(#a)"/><path d="M8 14.85a6.862 6.862 0 0 1-6.85-6.332A6.862 6.862 0 0 1 6.947 1.21a6.862 6.862 0 0 1 7.725 5.227 6.862 6.862 0 0 1-.726 4.957A6.77 6.77 0 0 1 8 14.85zm0 0" fill="#FFF"/><linearGradient id="b" x1=".5" y1=".014" x2=".5" y2="1"><stop offset="0" stop-color="#008712"/><stop offset="1" stop-color="#005B38"/></linearGradient><path d="M8 1.85A6.152 6.152 0 0 0 1.85 8 6.152 6.152 0 0 0 8 14.15a6.08 6.08 0 0 0 5.339-3.1A6.148 6.148 0 0 0 8 1.85zm0 0" fill="url(#b)"/><path d="M9 1.5a1 1 0 1 1-2 0 1 1 0 0 1 2 0z" fill="#FFF"/><path d="M3.352 11.22a1 1 0 1 1-2 0 1 1 0 0 1 2 0z" fill="#FFF"/><path d="M14.643 11.22a1 1 0 1 1-2 0 1 1 0 0 1 2 0z" fill="#FFF"/><path d="M6.625 5.589v.2c.246-.343.566-.626.936-.829a2.5 2.5 0 0 1 1.176-.269 2.34 2.34 0 0 1 1.152.281c.33.178.595.456.758.793.21.48.297 1.004.253 1.525v3.031c.02.266-.061.53-.227.74a.735.735 0 0 1-.579.251.751.751 0 0 1-.59-.257 1.073 1.073 0 0 1-.227-.734V7.606a2.663 2.663 0 0 0-.227-1.229.9.9 0 0 0-.889-.43 1.314 1.314 0 0 0-.794.263 1.483 1.483 0 0 0-.525.71c-.1.446-.14.904-.119 1.361v2.04c.02.27-.063.536-.233.746a.769.769 0 0 1-.591.245.738.738 0 0 1-.578-.257 1.068 1.068 0 0 1-.227-.734V5.613a1.01 1.01 0 0 1 .2-.692.7.7 0 0 1 .555-.233.717.717 0 0 1 .518.2.957.957 0 0 1 .251.7zm0 0" fill="#FFF"/></svg>