<svg xmlns="http://www.w3.org/2000/svg" width="16" height="16" viewBox="0 0 16 16"><rect id="frame" width="16" height="16" fill="none"/><g fill="none" fill-rule="evenodd"><path fill="#FFF" fill-rule="nonzero" d="M5.633 5.7H5l-.163-.117C5.447 5.116 6.635 4.8 8 4.8v.5c-.959 0-1.803.173-2.367.4zM8 7.3v.5-.5z"/><path fill="#FFF" fill-rule="nonzero" d="M4.017 4.987l.887.644.622-.166-1.083-.787z"/><path fill="#FFF" fill-rule="nonzero" d="M3.95 4.68h1v1.5h-1z"/><path fill="#9AA7B0" fill-opacity=".8" d="M7 1L3 5h4z"/><path fill="#9AA7B0" fill-opacity=".8" d="M13 6.485L4.485 15H3V6h5V1h5v5.485zm0 8.486V15h-.03l.03-.03z"/><path fill="#62B543" d="M13.621 11.33l-1.928-1.928L7 14.068v1.929h1.928z"/><path fill="#9AA7B0" d="M15.228 9.723c.206-.206.206-.757 0-.964l-.964-.964c-.207-.207-.758-.207-.964 0l-.965.964 1.929 1.929.964-.965z"/></g></svg>