<svg xmlns="http://www.w3.org/2000/svg" width="16" height="16" viewBox="0 0 16 16"><rect id="frame" width="16" height="16" fill="none"/><g fill="none" fill-rule="evenodd"><path fill="#F98B9E" fill-opacity=".6" d="M14.728 9.94l-1.503-.084L11.95 6.5h-.91L9.772 9.856l-3.752.216v.805l2.685 2.263-.491 1.857a7 7 0 1 1 6.515-5.058z"/><path fill="#9AA7B0" d="M11.498 14.163l-2.78 1.793.846-3.198L7 10.668l3.303-.184L11.498 7.4l1.195 3.084 3.303.184-2.564 2.09.846 3.198z"/><path fill="#231F20" fill-opacity=".7" d="M10.73 7.323c-.196-.19-.508-.323-.98-.323-.95 0-1.25.64-1.25 1v1.929l-1 .057V8c-.001-.463-.35-1-1.3-1C5.25 7 5 7.64 5 8v3H4V6h1v.4c.465-.267.932-.4 1.4-.4.733 0 1.267.202 1.6.604C8.465 6.202 9.092 6 9.882 6c.678 0 1.16.203 1.49.5h-.331l-.312.823z"/></g></svg>