<svg xmlns="http://www.w3.org/2000/svg" width="16" height="16" viewBox="0 0 16 16"><rect id="frame" width="16" height="16" fill="none"/><path fill="#AFB1B3" fill-rule="evenodd" d="M3.957 5.574l1.132 1.132-1.617 1.617a2.973 2.973 0 0 0 4.205 4.205l1.617-1.617 1.132 1.132-1.617 1.617a4.574 4.574 0 1 1-6.47-6.469l1.618-1.617zm1.617-1.617L7.191 2.34a4.574 4.574 0 0 1 6.47 6.469l-1.618 1.617-1.132-1.132 1.617-1.617a2.973 2.973 0 1 0-4.205-4.205L6.706 5.089 5.574 3.957zm-.566 5.765l4.71-4.71 1.274 1.272-4.71 4.71-1.274-1.272z"/></svg>