<svg width="80" height="80" viewBox="0 0 80 80" fill="none" xmlns="http://www.w3.org/2000/svg">
<path d="M80 21.3215L76.204 50.9091L74.1463 63.9291L47.7516 80L15.113 54.9534L54.847 13.3392L80 21.3215Z" fill="url(#paint0_linear)"/>
<path d="M47.7871 73.3659L47.8226 75.7428H50.5543L51.4767 74.3237L47.7871 73.3659Z" fill="url(#paint1_linear)"/>
<path d="M72.1597 62.51L76.204 50.8736L78.51 67.725L72.1597 62.51Z" fill="url(#paint2_linear)"/>
<path d="M80 21.3215L33.9157 52.7894L13.0554 55.9468L54.847 1.31264L80 21.3215Z" fill="url(#paint3_linear)"/>
<path d="M46.0842 13.0554L54.847 1.31264L53.3215 25.5078L46.0842 13.0554Z" fill="url(#paint4_linear)"/>
<path d="M12.8426 55.8049L0.886963 47.1486L12.3459 35.796L46.6164 49.6674L12.8426 55.8049Z" fill="url(#paint5_linear)"/>
<path d="M32.4967 69.286L6.45679 78.0488L13.02 59.6364L44.8426 47.3259L62.6164 58.2528L32.4967 69.286Z" fill="url(#paint6_linear)"/>
<path d="M25.1529 16.8514L11.6008 0L37.7827 3.08647L40.7272 11.6718L25.1529 16.8514Z" fill="url(#paint7_linear)"/>
<path d="M76.2039 50.8736L37.7826 3.08647L23.6628 3.29933L15.7161 26.5366L65.6673 53.9246L57.2238 66.3415L74.1462 63.929L76.2039 50.8736Z" fill="url(#paint8_linear)"/>
<path d="M15.6097 27.8847L6.74048 27.6718L11.6008 0L23.6629 3.29934L15.6097 27.8847Z" fill="url(#paint9_linear)"/>
<path d="M65.6674 53.9246L43.2816 49.0998L0 31.6807L15.929 26.7495L65.6674 53.9246Z" fill="url(#paint10_linear)"/>
<path d="M22.2438 7.4501L15.8935 26.7494L15.8225 26.7849L15.9289 26.7494L47.2549 43.8847L47.8935 44.0266L60.807 34.4124L22.2438 7.4501Z" fill="url(#paint11_linear)"/>
<path d="M11.6009 0L0 31.6807L14.7583 27.9202L15.8936 26.7494L22.2439 7.45011L11.6009 0Z" fill="url(#paint12_linear)"/>
<path d="M6.45679 78.0488L16.3548 38.3858L43.2816 49.0998L6.45679 78.0488Z" fill="url(#paint13_linear)"/>
<path d="M43.2816 49.0998L28.275 36.1863L7.8404 34.306L0.886963 47.1486L15.5034 41.2594L15.6453 41.1885L6.45681 78.0488L43.2816 49.0998Z" fill="url(#paint14_linear)"/>
<path d="M65.6674 53.9246L51.6896 74.3947L32.4612 69.3925L43.2816 49.0998L65.6674 53.9246Z" fill="url(#paint15_linear)"/>
<path d="M65.6674 53.9246L43.2816 49.0998L0 31.6807L15.929 26.7495L65.6674 53.9246Z" fill="url(#paint16_linear)"/>
<path d="M15.929 26.7495L0 31.6807L47.255 43.8847L15.929 26.7495Z" fill="url(#paint17_linear)"/>
<path d="M74.1464 63.929L56.7273 66.3769L47.7517 80L78.51 67.7251L74.1464 63.929Z" fill="url(#paint18_linear)"/>
<path d="M47.7517 80L57.0466 66.4834L32.4258 69.4989L47.7517 80Z" fill="url(#paint19_linear)"/>
<path d="M60.8072 34.4124L40.4435 20.1508L29.6941 34.1996L47.8936 44.0266L60.0976 34.9446L60.8072 34.4124Z" fill="url(#paint20_linear)"/>
<path d="M65 15H15V65H65V15Z" fill="url(#paint21_linear)"/>
<g opacity="0.3">
<path d="M64.1116 65L65 64.8934V54.3035L57.6794 65H64.1116Z" fill="url(#paint22_linear)"/>
<path d="M47.0185 15H20.0107L16.0306 26.7271L62.8678 52.42L16.2082 26.9048L15 27.2957V37.6368L43.2516 49.0085L65 53.6994V53.5928V37.3881L47.0185 15Z" fill="url(#paint23_linear)"/>
<path d="M20.0106 15L16.0305 26.7271L65 53.5927V37.3881L47.0184 15H20.0106Z" fill="url(#paint24_linear)"/>
<path d="M15 15V28.0775L15.0711 28.0419L16.1727 26.9048L20.0817 15H15Z" fill="#85FFF6"/>
<path d="M15 27.2957V37.6368L43.2516 49.0085L65 53.6994V53.5927L16.2082 26.9048L15 27.2957Z" fill="url(#paint25_linear)"/>
<path d="M15 35.5401L47.1606 43.8202L16.2082 26.9048L15 27.2957V35.5401Z" fill="url(#paint26_linear)"/>
<path d="M34.6874 65L43.2518 49.0085L22.8538 65H34.6874Z" fill="url(#paint27_linear)"/>
<path d="M15 44.9929L15.9595 41.1549L15.7818 41.226L15 41.5458V44.9929Z" fill="#F7941D"/>
<path d="M15 41.5458L15.7818 41.226L15.9595 41.1549L15 44.9929V65H22.8536L43.2516 49.0085L15 37.6368V41.5458Z" fill="url(#paint28_linear)"/>
<path d="M34.6875 65H57.6797L65.0002 54.3035V53.6993L43.2518 49.0085L34.6875 65Z" fill="url(#paint29_linear)"/>
<path d="M61.9439 33.5501L65.0001 31.489V15H47.0186L61.9439 33.5501Z" fill="url(#paint30_linear)"/>
</g>
<path d="M39.9 55.6001H21.2V58.7001H39.9V55.6001Z" fill="white"/>
<path d="M30.6 24.7001V21.3H21.3V24.7001H23.9V36.5H21.3V39.9001H30.6V36.5H28V24.7001H30.6Z" fill="white"/>
<path d="M39.4999 40.2001C37.9999 40.2001 36.7999 39.9001 35.7999 39.4001C34.7999 38.9001 33.9999 38.2001 33.3999 37.4001L35.9999 34.5C36.4999 35.1 37.0999 35.5001 37.5999 35.9001C38.0999 36.2001 38.6999 36.4001 39.3999 36.4001C40.1999 36.4001 40.7999 36.2001 41.1999 35.7001C41.5999 35.2001 41.8999 34.4 41.8999 33.3V21.3H46.0999V33.5C46.0999 34.6 45.8999 35.6001 45.5999 36.4001C45.2999 37.2001 44.8999 37.9 44.2999 38.5C43.6999 39.1 42.9999 39.5 42.1999 39.8C41.4999 40 40.4999 40.2001 39.4999 40.2001Z" fill="white"/>
<defs>
<linearGradient id="paint0_linear" x1="81.7516" y1="21.2675" x2="62.7098" y2="40.4354" gradientUnits="userSpaceOnUse">
<stop offset="0.2859" stop-color="#087CFA"/>
<stop offset="1" stop-color="#079AF6"/>
</linearGradient>
<linearGradient id="paint1_linear" x1="49.7372" y1="75.1523" x2="50.4" y2="76.114" gradientUnits="userSpaceOnUse">
<stop offset="0.2859" stop-color="#087CFA"/>
<stop offset="1" stop-color="#079AF6"/>
</linearGradient>
<linearGradient id="paint2_linear" x1="73.9262" y1="69.3811" x2="79.666" y2="52.0873" gradientUnits="userSpaceOnUse">
<stop offset="0.2708" stop-color="#08DBF9"/>
<stop offset="0.4026" stop-color="#15CDF3"/>
<stop offset="0.651" stop-color="#36A9E5"/>
<stop offset="0.9871" stop-color="#6B6ECD"/>
<stop offset="1" stop-color="#6D6CCC"/>
</linearGradient>
<linearGradient id="paint3_linear" x1="81.581" y1="4.56369" x2="35.0669" y2="32.6908" gradientUnits="userSpaceOnUse">
<stop offset="0.286" stop-color="#0AEFFF"/>
<stop offset="0.3292" stop-color="#09DEFA"/>
<stop offset="0.3966" stop-color="#07CAF4"/>
<stop offset="0.442" stop-color="#07C3F2"/>
<stop offset="0.5015" stop-color="#07ACF5"/>
<stop offset="0.5749" stop-color="#0897F7"/>
<stop offset="0.6568" stop-color="#0888F9"/>
<stop offset="0.7528" stop-color="#087FFA"/>
<stop offset="0.8981" stop-color="#087CFA"/>
</linearGradient>
<linearGradient id="paint4_linear" x1="50.4573" y1="-0.576108" x2="50.4573" y2="30.2762" gradientUnits="userSpaceOnUse">
<stop offset="0.207" stop-color="#02C5FE"/>
<stop offset="0.317" stop-color="#04ACFD"/>
<stop offset="0.4435" stop-color="#0697FB"/>
<stop offset="0.5845" stop-color="#0788FB"/>
<stop offset="0.7499" stop-color="#087FFA"/>
<stop offset="1" stop-color="#087CFA"/>
</linearGradient>
<linearGradient id="paint5_linear" x1="5.88893" y1="36.2736" x2="20.1387" y2="46.1097" gradientUnits="userSpaceOnUse">
<stop stop-color="#42FFFA"/>
<stop offset="0.157" stop-color="#3AF7F9"/>
<stop offset="0.4049" stop-color="#24E0F6"/>
<stop offset="0.4943" stop-color="#1AD6F5"/>
<stop offset="0.9028" stop-color="#07C3F2"/>
</linearGradient>
<linearGradient id="paint6_linear" x1="21.843" y1="54.4756" x2="33.4715" y2="66.9986" gradientUnits="userSpaceOnUse">
<stop offset="0.3536" stop-color="#07C3F2"/>
<stop offset="0.52" stop-color="#1CAEF2"/>
<stop offset="0.6811" stop-color="#3595F3"/>
<stop offset="0.8463" stop-color="#2089F6"/>
<stop offset="1" stop-color="#087CFA"/>
</linearGradient>
<linearGradient id="paint7_linear" x1="24.3593" y1="-2.05918" x2="28.0643" y2="14.1503" gradientUnits="userSpaceOnUse">
<stop stop-color="#71FFFB"/>
<stop offset="0.3126" stop-color="#CAFFFE"/>
<stop offset="0.5939" stop-color="#42FFFA"/>
<stop offset="0.6862" stop-color="#3AF7F9"/>
<stop offset="0.8317" stop-color="#23E0F6"/>
<stop offset="0.976" stop-color="#07C3F2"/>
</linearGradient>
<linearGradient id="paint8_linear" x1="21.6955" y1="14.2249" x2="77.6166" y2="58.6203" gradientUnits="userSpaceOnUse">
<stop stop-color="#27E4F6"/>
<stop offset="0.2282" stop-color="#07C3F2"/>
<stop offset="0.3408" stop-color="#07AEF4"/>
<stop offset="0.5521" stop-color="#087CFA"/>
<stop offset="0.7522" stop-color="#087CFA"/>
<stop offset="0.9812" stop-color="#07C3F2"/>
</linearGradient>
<linearGradient id="paint9_linear" x1="8.42112" y1="12.3936" x2="19.7515" y2="17.5618" gradientUnits="userSpaceOnUse">
<stop offset="0.2048" stop-color="#42FFFA"/>
<stop offset="0.2906" stop-color="#68FFFB"/>
<stop offset="0.41" stop-color="#96FFFC"/>
<stop offset="0.53" stop-color="#BCFFFD"/>
<stop offset="0.6485" stop-color="#D9FFFE"/>
<stop offset="0.7651" stop-color="#EEFFFF"/>
<stop offset="0.8792" stop-color="#FBFFFF"/>
<stop offset="0.9874" stop-color="white"/>
</linearGradient>
<linearGradient id="paint10_linear" x1="6.14723" y1="28.2772" x2="61.5961" y2="57.1245" gradientUnits="userSpaceOnUse">
<stop offset="0.2464" stop-color="#FE2857"/>
<stop offset="0.292" stop-color="#FE265F"/>
<stop offset="0.3641" stop-color="#FE1F76"/>
<stop offset="0.4534" stop-color="#FF159B"/>
<stop offset="0.4574" stop-color="#FF149D"/>
<stop offset="0.536" stop-color="#EF1AB2"/>
<stop offset="0.6983" stop-color="#C82BE9"/>
<stop offset="0.7574" stop-color="#B831FF"/>
<stop offset="0.811" stop-color="#A33AFE"/>
<stop offset="0.9215" stop-color="#6C52FD"/>
<stop offset="1" stop-color="#4164FC"/>
</linearGradient>
<linearGradient id="paint11_linear" x1="18.3382" y1="16.3143" x2="49.6458" y2="38.6769" gradientUnits="userSpaceOnUse">
<stop offset="0.00823305" stop-color="#42FFFA"/>
<stop offset="0.1549" stop-color="#27E4F6"/>
<stop offset="0.3008" stop-color="#11CDF3"/>
<stop offset="0.3345" stop-color="#0FCBF3"/>
<stop offset="0.5125" stop-color="#07C3F2"/>
<stop offset="0.6963" stop-color="#3595F3"/>
</linearGradient>
<linearGradient id="paint12_linear" x1="5.60873" y1="15.729" x2="16.4173" y2="22.6614" gradientUnits="userSpaceOnUse">
<stop offset="0.0433729" stop-color="#42FFFA"/>
<stop offset="0.2066" stop-color="#7DFFFB"/>
<stop offset="0.2976" stop-color="#A0FFFC"/>
<stop offset="0.6631" stop-color="#B7FFFF"/>
<stop offset="0.9409" stop-color="#57FFFB"/>
<stop offset="1" stop-color="#42FFFA"/>
</linearGradient>
<linearGradient id="paint13_linear" x1="-3.24822" y1="36.0655" x2="46.7941" y2="85.0413" gradientUnits="userSpaceOnUse">
<stop offset="0.0226617" stop-color="#FC801D"/>
<stop offset="0.2467" stop-color="#FC7E20"/>
<stop offset="0.276" stop-color="#FC772A"/>
<stop offset="0.3253" stop-color="#FD6444"/>
<stop offset="0.3881" stop-color="#FE466E"/>
<stop offset="0.4273" stop-color="#FF318C"/>
<stop offset="0.4924" stop-color="#EA3896"/>
<stop offset="0.6276" stop-color="#B248AE"/>
<stop offset="0.8194" stop-color="#5A63D6"/>
<stop offset="0.9859" stop-color="#087CFA"/>
</linearGradient>
<linearGradient id="paint14_linear" x1="9.0194" y1="36.2018" x2="24.8126" y2="63.4928" gradientUnits="userSpaceOnUse">
<stop offset="0.00442798" stop-color="#42FFFA"/>
<stop offset="0.1542" stop-color="#42FFFA"/>
<stop offset="0.2294" stop-color="#3BF7F9"/>
<stop offset="0.343" stop-color="#26E3F6"/>
<stop offset="0.4724" stop-color="#07C3F2"/>
<stop offset="0.6565" stop-color="#3595F3"/>
<stop offset="0.8856" stop-color="#3595F3"/>
</linearGradient>
<linearGradient id="paint15_linear" x1="41.912" y1="50.2711" x2="56.5142" y2="73.5344" gradientUnits="userSpaceOnUse">
<stop offset="0.0211218" stop-color="#087CFA"/>
<stop offset="0.3042" stop-color="#087CFA"/>
<stop offset="0.7942" stop-color="#07C3F2"/>
</linearGradient>
<linearGradient id="paint16_linear" x1="6.14723" y1="28.2772" x2="61.5961" y2="57.1245" gradientUnits="userSpaceOnUse">
<stop offset="0.1401" stop-color="#07C3F2"/>
<stop offset="0.321" stop-color="#07AEF4"/>
<stop offset="0.6603" stop-color="#087CFA"/>
<stop offset="1" stop-color="#3595F3"/>
</linearGradient>
<linearGradient id="paint17_linear" x1="11.2302" y1="30.8881" x2="36.8081" y2="45.1154" gradientUnits="userSpaceOnUse">
<stop stop-color="#1DD9F5"/>
<stop offset="0.3352" stop-color="#07C3F2"/>
<stop offset="0.6729" stop-color="#1CAEF2"/>
<stop offset="1" stop-color="#3595F3"/>
</linearGradient>
<linearGradient id="paint18_linear" x1="76.3064" y1="64.1837" x2="48.1793" y2="74.7189" gradientUnits="userSpaceOnUse">
<stop stop-color="#07C3F2"/>
<stop offset="0.0971854" stop-color="#05B5ED"/>
<stop offset="0.2458" stop-color="#02A6E9"/>
<stop offset="0.4209" stop-color="#009DE6"/>
<stop offset="0.6854" stop-color="#009AE5"/>
</linearGradient>
<linearGradient id="paint19_linear" x1="34.2829" y1="66.764" x2="53.465" y2="73.6218" gradientUnits="userSpaceOnUse">
<stop offset="0.1529" stop-color="#087CFA"/>
<stop offset="0.6343" stop-color="#009AE5"/>
<stop offset="1" stop-color="#05B6EE"/>
</linearGradient>
<linearGradient id="paint20_linear" x1="37.0357" y1="22.7169" x2="48.8514" y2="39.3801" gradientUnits="userSpaceOnUse">
<stop stop-color="#07C3F2"/>
<stop offset="0.6392" stop-color="#3595F3"/>
<stop offset="0.7656" stop-color="#298EF5"/>
<stop offset="0.9941" stop-color="#097DFA"/>
<stop offset="1" stop-color="#087CFA"/>
</linearGradient>
<linearGradient id="paint21_linear" x1="14.2282" y1="18.9908" x2="65.4284" y2="60.7323" gradientUnits="userSpaceOnUse">
<stop offset="0.0162265" stop-color="#022244"/>
<stop offset="0.2475" stop-color="#011327"/>
<stop offset="0.48" stop-color="#010911"/>
<stop offset="0.7054" stop-color="#000204"/>
<stop offset="0.9138"/>
</linearGradient>
<linearGradient id="paint22_linear" x1="57.6943" y1="59.6573" x2="65.0162" y2="59.6573" gradientUnits="userSpaceOnUse">
<stop stop-color="#087CFA"/>
<stop offset="0.7942" stop-color="#000216"/>
</linearGradient>
<linearGradient id="paint23_linear" x1="15" y1="34.3501" x2="65.0162" y2="34.3501" gradientUnits="userSpaceOnUse">
<stop offset="0.2464" stop-color="#FE2857"/>
<stop offset="0.292" stop-color="#FE265F"/>
<stop offset="0.3641" stop-color="#FE1F76"/>
<stop offset="0.4534" stop-color="#FF159B"/>
<stop offset="0.4574" stop-color="#FF149D"/>
<stop offset="0.536" stop-color="#EF1AB2"/>
<stop offset="0.6983" stop-color="#C82BE9"/>
<stop offset="0.7574" stop-color="#B831FF"/>
<stop offset="0.811" stop-color="#A33AFE"/>
<stop offset="0.9215" stop-color="#6C52FD"/>
<stop offset="1" stop-color="#4164FC"/>
</linearGradient>
<linearGradient id="paint24_linear" x1="16.0231" y1="34.2932" x2="65.0162" y2="34.2932" gradientUnits="userSpaceOnUse">
<stop stop-color="#42FFFA"/>
<stop offset="0.0408124" stop-color="#3AF7F9"/>
<stop offset="0.1052" stop-color="#23E0F6"/>
<stop offset="0.1691" stop-color="#07C3F2"/>
<stop offset="0.3611" stop-color="#07C3F2"/>
<stop offset="0.5398" stop-color="#0888F9"/>
<stop offset="0.5728" stop-color="#087CFA"/>
<stop offset="0.6996" stop-color="#0659BC"/>
<stop offset="0.9919" stop-color="#000220"/>
<stop offset="1" stop-color="#00001C"/>
</linearGradient>
<linearGradient id="paint25_linear" x1="15" y1="40.3065" x2="65.0162" y2="40.3065" gradientUnits="userSpaceOnUse">
<stop offset="0.0878508" stop-color="#087CFA"/>
<stop offset="0.2751" stop-color="#087CFA"/>
<stop offset="0.2903" stop-color="#0877F1"/>
<stop offset="0.4275" stop-color="#054DA4"/>
<stop offset="0.5498" stop-color="#032C66"/>
<stop offset="0.6528" stop-color="#01143A"/>
<stop offset="0.7324" stop-color="#00051F"/>
<stop offset="0.7791" stop-color="#000015"/>
</linearGradient>
<linearGradient id="paint26_linear" x1="19.8415" y1="33.4301" x2="39.4281" y2="44.3248" gradientUnits="userSpaceOnUse">
<stop stop-color="#07C3F2"/>
<stop offset="0.3478" stop-color="#07AEF4"/>
<stop offset="1" stop-color="#087CFA"/>
</linearGradient>
<linearGradient id="paint27_linear" x1="22.857" y1="57.0128" x2="43.2346" y2="57.0128" gradientUnits="userSpaceOnUse">
<stop offset="0.0878508" stop-color="#087CFA"/>
<stop offset="0.4746" stop-color="#087CFA"/>
<stop offset="0.4905" stop-color="#0877F1"/>
<stop offset="0.6335" stop-color="#054DA4"/>
<stop offset="0.761" stop-color="#032C66"/>
<stop offset="0.8684" stop-color="#01143A"/>
<stop offset="0.9514" stop-color="#00051F"/>
<stop offset="1" stop-color="#000015"/>
</linearGradient>
<linearGradient id="paint28_linear" x1="15" y1="51.3303" x2="43.2344" y2="51.3303" gradientUnits="userSpaceOnUse">
<stop offset="0.0878508" stop-color="#087CFA"/>
<stop offset="0.4746" stop-color="#087CFA"/>
<stop offset="0.4905" stop-color="#0877F1"/>
<stop offset="0.6335" stop-color="#054DA4"/>
<stop offset="0.761" stop-color="#032C66"/>
<stop offset="0.8684" stop-color="#01143A"/>
<stop offset="0.9514" stop-color="#00051F"/>
<stop offset="1" stop-color="#000015"/>
</linearGradient>
<linearGradient id="paint29_linear" x1="34.7045" y1="57.0128" x2="65.0164" y2="57.0128" gradientUnits="userSpaceOnUse">
<stop stop-color="#087CFA"/>
<stop offset="0.7942" stop-color="#000216"/>
</linearGradient>
<linearGradient id="paint30_linear" x1="85.4253" y1="62.6145" x2="53.5537" y2="11.0031" gradientUnits="userSpaceOnUse">
<stop offset="0.1908" stop-color="#3595F3"/>
<stop offset="0.8951" stop-color="#000020"/>
</linearGradient>
</defs>
</svg>
