<svg width="48" height="48" viewBox="0 0 48 48" fill="none" xmlns="http://www.w3.org/2000/svg">
<path d="M48 12.7929L45.7224 30.5455L44.4878 38.3574L28.651 48L9.06787 32.9721L32.9082 8.00356L48 12.7929Z" fill="url(#paint0_linear)"/>
<path d="M28.6724 44.0195L28.6937 45.4457H30.3327L30.8861 44.5942L28.6724 44.0195Z" fill="url(#paint1_linear)"/>
<path d="M43.2958 37.506L45.7224 30.5242L47.106 40.635L43.2958 37.506Z" fill="url(#paint2_linear)"/>
<path d="M48 12.7929L20.3494 31.6736L7.83325 33.5681L32.9082 0.787582L48 12.7929Z" fill="url(#paint3_linear)"/>
<path d="M27.6506 7.83326L32.9083 0.787582L31.993 15.3047L27.6506 7.83326Z" fill="url(#paint4_linear)"/>
<path d="M7.7055 33.4829L0.532104 28.2891L7.40749 21.4776L27.9698 29.8004L7.7055 33.4829Z" fill="url(#paint5_linear)"/>
<path d="M19.498 41.5716L3.87402 46.8293L7.81194 35.7818L26.9055 28.3956L37.5698 34.9517L19.498 41.5716Z" fill="url(#paint6_linear)"/>
<path d="M15.0918 10.1109L6.96057 0L22.6697 1.85188L24.4364 7.0031L15.0918 10.1109Z" fill="url(#paint7_linear)"/>
<path d="M45.7224 30.5242L22.6696 1.85188L14.1978 1.9796L9.42969 15.922L39.4004 32.3548L34.3343 39.8049L44.4878 38.3574L45.7224 30.5242Z" fill="url(#paint8_linear)"/>
<path d="M9.36582 16.7308L4.04431 16.6031L6.9605 0L14.1977 1.9796L9.36582 16.7308Z" fill="url(#paint9_linear)"/>
<path d="M39.4004 32.3548L25.969 29.4599L0 19.0084L9.55743 16.0497L39.4004 32.3548Z" fill="url(#paint10_linear)"/>
<path d="M13.3463 4.47006L9.5361 16.0497L9.49353 16.0709L9.55739 16.0497L28.353 26.3308L28.7361 26.416L36.4842 20.6474L13.3463 4.47006Z" fill="url(#paint11_linear)"/>
<path d="M6.96053 0L0 19.0084L8.85499 16.7521L9.53614 16.0497L13.3463 4.47007L6.96053 0Z" fill="url(#paint12_linear)"/>
<path d="M3.87402 46.8293L9.81283 23.0315L25.9689 29.4599L3.87402 46.8293Z" fill="url(#paint13_linear)"/>
<path d="M25.9689 29.4599L16.9649 21.7117L4.70417 20.5836L0.532104 28.2891L9.30195 24.7557L9.38709 24.7131L3.87401 46.8293L25.9689 29.4599Z" fill="url(#paint14_linear)"/>
<path d="M39.4005 32.3548L31.0138 44.6368L19.4768 41.6355L25.969 29.4599L39.4005 32.3548Z" fill="url(#paint15_linear)"/>
<path d="M39.4004 32.3548L25.969 29.4599L0 19.0084L9.55743 16.0497L39.4004 32.3548Z" fill="url(#paint16_linear)"/>
<path d="M9.55743 16.0497L0 19.0084L28.353 26.3308L9.55743 16.0497Z" fill="url(#paint17_linear)"/>
<path d="M44.4878 38.3574L34.0364 39.8262L28.651 48L47.106 40.635L44.4878 38.3574Z" fill="url(#paint18_linear)"/>
<path d="M28.651 48L34.228 39.89L19.4554 41.6993L28.651 48Z" fill="url(#paint19_linear)"/>
<path d="M36.4843 20.6475L24.2661 12.0905L17.8164 20.5197L28.7361 26.416L36.0585 20.9667L36.4843 20.6475Z" fill="url(#paint20_linear)"/>
<path d="M39 9H9V39H39V9Z" fill="url(#paint21_linear)"/>
<g opacity="0.2">
<path d="M38.4669 39L39 38.936V32.5821L34.6077 39H38.4669Z" fill="url(#paint22_linear)"/>
<path d="M28.2111 9H12.0064L9.61834 16.0362L37.7207 31.452L9.72495 16.1429L9 16.3774V22.5821L25.951 29.4051L39 32.2196V32.1557V22.4328L28.2111 9Z" fill="url(#paint23_linear)"/>
<path d="M12.0065 9L9.61841 16.0362L39.0001 32.1556V22.4328L28.2112 9H12.0065Z" fill="url(#paint24_linear)"/>
<path d="M9 9V16.8465L9.04264 16.8252L9.70362 16.1429L12.049 9H9Z" fill="#85FFF6"/>
<path d="M9 16.3774V22.5821L25.951 29.4051L39 32.2196V32.1556L9.72495 16.1429L9 16.3774Z" fill="url(#paint25_linear)"/>
<path d="M9 21.3241L28.2964 26.2921L9.72495 16.1429L9 16.3774V21.3241Z" fill="url(#paint26_linear)"/>
<path d="M20.8124 39L25.951 29.4051L13.7122 39H20.8124Z" fill="url(#paint27_linear)"/>
<path d="M9 26.9957L9.57569 24.693L9.46908 24.7356L9 24.9275V26.9957Z" fill="#F7941D"/>
<path d="M9 24.9275L9.46908 24.7356L9.57569 24.693L9 26.9957V39H13.7122L25.951 29.4051L9 22.5821V24.9275Z" fill="url(#paint28_linear)"/>
<path d="M20.8124 39H34.6077L39 32.5821V32.2196L25.951 29.4051L20.8124 39Z" fill="url(#paint29_linear)"/>
<path d="M37.1663 20.1301L39 18.8934V9H28.2111L37.1663 20.1301Z" fill="url(#paint30_linear)"/>
</g>
<path d="M23.9 33.3H12.7V35.2001H23.9V33.3Z" fill="white"/>
<path d="M18.3999 14.8V12.8H12.7999V14.8H14.2999V21.9H12.7999V23.9H18.3999V21.9H16.7999V14.8H18.3999Z" fill="white"/>
<path d="M23.7 24.1C22.8 24.1 22.1 23.9 21.5 23.6C20.9 23.3 20.4 22.9 20 22.4L21.5 20.7C21.8 21.1 22.1 21.3 22.5 21.5C22.8 21.7 23.2 21.8 23.6 21.8C24.1 21.8 24.4 21.7 24.7 21.4C25 21.1 25.1 20.6 25.1 20V12.8H27.6V20.1C27.6 20.8 27.5 21.4 27.3 21.8C27.1 22.3 26.9 22.7 26.5 23C26.2 23.3 25.7 23.6 25.2 23.8C24.9 24 24.3 24.1 23.7 24.1Z" fill="white"/>
<defs>
<linearGradient id="paint0_linear" x1="49.051" y1="12.7605" x2="37.6259" y2="24.2613" gradientUnits="userSpaceOnUse">
<stop offset="0.2859" stop-color="#087CFA"/>
<stop offset="1" stop-color="#079AF6"/>
</linearGradient>
<linearGradient id="paint1_linear" x1="29.8424" y1="45.0914" x2="30.2401" y2="45.6684" gradientUnits="userSpaceOnUse">
<stop offset="0.2859" stop-color="#087CFA"/>
<stop offset="1" stop-color="#079AF6"/>
</linearGradient>
<linearGradient id="paint2_linear" x1="44.3557" y1="41.6286" x2="47.7996" y2="31.2524" gradientUnits="userSpaceOnUse">
<stop offset="0.2708" stop-color="#08DBF9"/>
<stop offset="0.4026" stop-color="#15CDF3"/>
<stop offset="0.651" stop-color="#36A9E5"/>
<stop offset="0.9871" stop-color="#6B6ECD"/>
<stop offset="1" stop-color="#6D6CCC"/>
</linearGradient>
<linearGradient id="paint3_linear" x1="48.9486" y1="2.73821" x2="21.0401" y2="19.6145" gradientUnits="userSpaceOnUse">
<stop offset="0.286" stop-color="#0AEFFF"/>
<stop offset="0.3292" stop-color="#09DEFA"/>
<stop offset="0.3966" stop-color="#07CAF4"/>
<stop offset="0.442" stop-color="#07C3F2"/>
<stop offset="0.5015" stop-color="#07ACF5"/>
<stop offset="0.5749" stop-color="#0897F7"/>
<stop offset="0.6568" stop-color="#0888F9"/>
<stop offset="0.7528" stop-color="#087FFA"/>
<stop offset="0.8981" stop-color="#087CFA"/>
</linearGradient>
<linearGradient id="paint4_linear" x1="30.2745" y1="-0.345665" x2="30.2745" y2="18.1657" gradientUnits="userSpaceOnUse">
<stop offset="0.207" stop-color="#02C5FE"/>
<stop offset="0.317" stop-color="#04ACFD"/>
<stop offset="0.4435" stop-color="#0697FB"/>
<stop offset="0.5845" stop-color="#0788FB"/>
<stop offset="0.7499" stop-color="#087FFA"/>
<stop offset="1" stop-color="#087CFA"/>
</linearGradient>
<linearGradient id="paint5_linear" x1="3.53329" y1="21.7641" x2="12.0832" y2="27.6658" gradientUnits="userSpaceOnUse">
<stop offset="0" stop-color="#42FFFA"/>
<stop offset="0.157" stop-color="#3AF7F9"/>
<stop offset="0.4049" stop-color="#24E0F6"/>
<stop offset="0.4943" stop-color="#1AD6F5"/>
<stop offset="0.9028" stop-color="#07C3F2"/>
</linearGradient>
<linearGradient id="paint6_linear" x1="13.1057" y1="32.6853" x2="20.0828" y2="40.1992" gradientUnits="userSpaceOnUse">
<stop offset="0.3536" stop-color="#07C3F2"/>
<stop offset="0.52" stop-color="#1CAEF2"/>
<stop offset="0.6811" stop-color="#3595F3"/>
<stop offset="0.8463" stop-color="#2089F6"/>
<stop offset="1" stop-color="#087CFA"/>
</linearGradient>
<linearGradient id="paint7_linear" x1="14.6157" y1="-1.23551" x2="16.8387" y2="8.49019" gradientUnits="userSpaceOnUse">
<stop offset="0" stop-color="#71FFFB"/>
<stop offset="0.3126" stop-color="#CAFFFE"/>
<stop offset="0.5939" stop-color="#42FFFA"/>
<stop offset="0.6862" stop-color="#3AF7F9"/>
<stop offset="0.8317" stop-color="#23E0F6"/>
<stop offset="0.976" stop-color="#07C3F2"/>
</linearGradient>
<linearGradient id="paint8_linear" x1="13.0173" y1="8.53495" x2="46.57" y2="35.1722" gradientUnits="userSpaceOnUse">
<stop offset="0" stop-color="#27E4F6"/>
<stop offset="0.2282" stop-color="#07C3F2"/>
<stop offset="0.3408" stop-color="#07AEF4"/>
<stop offset="0.5521" stop-color="#087CFA"/>
<stop offset="0.7522" stop-color="#087CFA"/>
<stop offset="0.9812" stop-color="#07C3F2"/>
</linearGradient>
<linearGradient id="paint9_linear" x1="5.05269" y1="7.43615" x2="11.8509" y2="10.5371" gradientUnits="userSpaceOnUse">
<stop offset="0.2048" stop-color="#42FFFA"/>
<stop offset="0.2906" stop-color="#68FFFB"/>
<stop offset="0.41" stop-color="#96FFFC"/>
<stop offset="0.53" stop-color="#BCFFFD"/>
<stop offset="0.6485" stop-color="#D9FFFE"/>
<stop offset="0.7651" stop-color="#EEFFFF"/>
<stop offset="0.8792" stop-color="#FBFFFF"/>
<stop offset="0.9874" stop-color="white"/>
</linearGradient>
<linearGradient id="paint10_linear" x1="3.68834" y1="16.9663" x2="36.9577" y2="34.2747" gradientUnits="userSpaceOnUse">
<stop offset="0.2464" stop-color="#FE2857"/>
<stop offset="0.292" stop-color="#FE265F"/>
<stop offset="0.3641" stop-color="#FE1F76"/>
<stop offset="0.4534" stop-color="#FF159B"/>
<stop offset="0.4574" stop-color="#FF149D"/>
<stop offset="0.536" stop-color="#EF1AB2"/>
<stop offset="0.6983" stop-color="#C82BE9"/>
<stop offset="0.7574" stop-color="#B831FF"/>
<stop offset="0.811" stop-color="#A33AFE"/>
<stop offset="0.9215" stop-color="#6C52FD"/>
<stop offset="1" stop-color="#4164FC"/>
</linearGradient>
<linearGradient id="paint11_linear" x1="11.0029" y1="9.78857" x2="29.7875" y2="23.2061" gradientUnits="userSpaceOnUse">
<stop offset="0.00823305" stop-color="#42FFFA"/>
<stop offset="0.1549" stop-color="#27E4F6"/>
<stop offset="0.3008" stop-color="#11CDF3"/>
<stop offset="0.3345" stop-color="#0FCBF3"/>
<stop offset="0.5125" stop-color="#07C3F2"/>
<stop offset="0.6963" stop-color="#3595F3"/>
</linearGradient>
<linearGradient id="paint12_linear" x1="3.36524" y1="9.43737" x2="9.85039" y2="13.5968" gradientUnits="userSpaceOnUse">
<stop offset="0.0433729" stop-color="#42FFFA"/>
<stop offset="0.2066" stop-color="#7DFFFB"/>
<stop offset="0.2976" stop-color="#A0FFFC"/>
<stop offset="0.6631" stop-color="#B7FFFF"/>
<stop offset="0.9409" stop-color="#57FFFB"/>
<stop offset="1" stop-color="#42FFFA"/>
</linearGradient>
<linearGradient id="paint13_linear" x1="-1.94898" y1="21.6393" x2="28.0764" y2="51.0248" gradientUnits="userSpaceOnUse">
<stop offset="0.0226617" stop-color="#FC801D"/>
<stop offset="0.2467" stop-color="#FC7E20"/>
<stop offset="0.276" stop-color="#FC772A"/>
<stop offset="0.3253" stop-color="#FD6444"/>
<stop offset="0.3881" stop-color="#FE466E"/>
<stop offset="0.4273" stop-color="#FF318C"/>
<stop offset="0.4924" stop-color="#EA3896"/>
<stop offset="0.6276" stop-color="#B248AE"/>
<stop offset="0.8194" stop-color="#5A63D6"/>
<stop offset="0.9859" stop-color="#087CFA"/>
</linearGradient>
<linearGradient id="paint14_linear" x1="5.41157" y1="21.721" x2="14.8875" y2="38.0956" gradientUnits="userSpaceOnUse">
<stop offset="0.00442798" stop-color="#42FFFA"/>
<stop offset="0.1542" stop-color="#42FFFA"/>
<stop offset="0.2294" stop-color="#3BF7F9"/>
<stop offset="0.343" stop-color="#26E3F6"/>
<stop offset="0.4724" stop-color="#07C3F2"/>
<stop offset="0.6565" stop-color="#3595F3"/>
<stop offset="0.8856" stop-color="#3595F3"/>
</linearGradient>
<linearGradient id="paint15_linear" x1="25.1473" y1="30.1627" x2="33.9086" y2="44.1207" gradientUnits="userSpaceOnUse">
<stop offset="0.0211218" stop-color="#087CFA"/>
<stop offset="0.3042" stop-color="#087CFA"/>
<stop offset="0.7942" stop-color="#07C3F2"/>
</linearGradient>
<linearGradient id="paint16_linear" x1="3.68834" y1="16.9663" x2="36.9577" y2="34.2747" gradientUnits="userSpaceOnUse">
<stop offset="0.1401" stop-color="#07C3F2"/>
<stop offset="0.321" stop-color="#07AEF4"/>
<stop offset="0.6603" stop-color="#087CFA"/>
<stop offset="1" stop-color="#3595F3"/>
</linearGradient>
<linearGradient id="paint17_linear" x1="6.73811" y1="18.5329" x2="22.0849" y2="27.0692" gradientUnits="userSpaceOnUse">
<stop offset="0" stop-color="#1DD9F5"/>
<stop offset="0.3352" stop-color="#07C3F2"/>
<stop offset="0.6729" stop-color="#1CAEF2"/>
<stop offset="1" stop-color="#3595F3"/>
</linearGradient>
<linearGradient id="paint18_linear" x1="45.7838" y1="38.5102" x2="28.9076" y2="44.8314" gradientUnits="userSpaceOnUse">
<stop offset="0" stop-color="#07C3F2"/>
<stop offset="0.0971854" stop-color="#05B5ED"/>
<stop offset="0.2458" stop-color="#02A6E9"/>
<stop offset="0.4209" stop-color="#009DE6"/>
<stop offset="0.6854" stop-color="#009AE5"/>
</linearGradient>
<linearGradient id="paint19_linear" x1="20.5697" y1="40.0584" x2="32.079" y2="44.1731" gradientUnits="userSpaceOnUse">
<stop offset="0.1529" stop-color="#087CFA"/>
<stop offset="0.6343" stop-color="#009AE5"/>
<stop offset="1" stop-color="#05B6EE"/>
</linearGradient>
<linearGradient id="paint20_linear" x1="22.2214" y1="13.6301" x2="29.3108" y2="23.6281" gradientUnits="userSpaceOnUse">
<stop offset="0" stop-color="#07C3F2"/>
<stop offset="0.6392" stop-color="#3595F3"/>
<stop offset="0.7656" stop-color="#298EF5"/>
<stop offset="0.9941" stop-color="#097DFA"/>
<stop offset="1" stop-color="#087CFA"/>
</linearGradient>
<linearGradient id="paint21_linear" x1="8.53693" y1="11.3945" x2="39.2571" y2="36.4394" gradientUnits="userSpaceOnUse">
<stop offset="0.0162265" stop-color="#022244"/>
<stop offset="0.2475" stop-color="#011327"/>
<stop offset="0.48" stop-color="#010911"/>
<stop offset="0.7054" stop-color="#000204"/>
<stop offset="0.9138"/>
</linearGradient>
<linearGradient id="paint22_linear" x1="34.6166" y1="35.7944" x2="39.0097" y2="35.7944" gradientUnits="userSpaceOnUse">
<stop offset="0" stop-color="#087CFA"/>
<stop offset="0.7942" stop-color="#000216"/>
</linearGradient>
<linearGradient id="paint23_linear" x1="9" y1="20.6101" x2="39.0097" y2="20.6101" gradientUnits="userSpaceOnUse">
<stop offset="0.2464" stop-color="#FE2857"/>
<stop offset="0.292" stop-color="#FE265F"/>
<stop offset="0.3641" stop-color="#FE1F76"/>
<stop offset="0.4534" stop-color="#FF159B"/>
<stop offset="0.4574" stop-color="#FF149D"/>
<stop offset="0.536" stop-color="#EF1AB2"/>
<stop offset="0.6983" stop-color="#C82BE9"/>
<stop offset="0.7574" stop-color="#B831FF"/>
<stop offset="0.811" stop-color="#A33AFE"/>
<stop offset="0.9215" stop-color="#6C52FD"/>
<stop offset="1" stop-color="#4164FC"/>
</linearGradient>
<linearGradient id="paint24_linear" x1="9.61393" y1="20.5759" x2="39.0098" y2="20.5759" gradientUnits="userSpaceOnUse">
<stop offset="0" stop-color="#42FFFA"/>
<stop offset="0.0408124" stop-color="#3AF7F9"/>
<stop offset="0.1052" stop-color="#23E0F6"/>
<stop offset="0.1691" stop-color="#07C3F2"/>
<stop offset="0.3611" stop-color="#07C3F2"/>
<stop offset="0.5398" stop-color="#0888F9"/>
<stop offset="0.5728" stop-color="#087CFA"/>
<stop offset="0.6996" stop-color="#0659BC"/>
<stop offset="0.9919" stop-color="#000220"/>
<stop offset="1" stop-color="#00001C"/>
</linearGradient>
<linearGradient id="paint25_linear" x1="9" y1="24.1839" x2="39.0097" y2="24.1839" gradientUnits="userSpaceOnUse">
<stop offset="0.0878508" stop-color="#087CFA"/>
<stop offset="0.2751" stop-color="#087CFA"/>
<stop offset="0.2903" stop-color="#0877F1"/>
<stop offset="0.4275" stop-color="#054DA4"/>
<stop offset="0.5498" stop-color="#032C66"/>
<stop offset="0.6528" stop-color="#01143A"/>
<stop offset="0.7324" stop-color="#00051F"/>
<stop offset="0.7791" stop-color="#000015"/>
</linearGradient>
<linearGradient id="paint26_linear" x1="11.9049" y1="20.058" x2="23.6569" y2="26.5949" gradientUnits="userSpaceOnUse">
<stop offset="0" stop-color="#07C3F2"/>
<stop offset="0.3478" stop-color="#07AEF4"/>
<stop offset="1" stop-color="#087CFA"/>
</linearGradient>
<linearGradient id="paint27_linear" x1="13.7141" y1="34.2077" x2="25.9406" y2="34.2077" gradientUnits="userSpaceOnUse">
<stop offset="0.0878508" stop-color="#087CFA"/>
<stop offset="0.4746" stop-color="#087CFA"/>
<stop offset="0.4905" stop-color="#0877F1"/>
<stop offset="0.6335" stop-color="#054DA4"/>
<stop offset="0.761" stop-color="#032C66"/>
<stop offset="0.8684" stop-color="#01143A"/>
<stop offset="0.9514" stop-color="#00051F"/>
<stop offset="1" stop-color="#000015"/>
</linearGradient>
<linearGradient id="paint28_linear" x1="9" y1="30.7982" x2="25.9406" y2="30.7982" gradientUnits="userSpaceOnUse">
<stop offset="0.0878508" stop-color="#087CFA"/>
<stop offset="0.4746" stop-color="#087CFA"/>
<stop offset="0.4905" stop-color="#0877F1"/>
<stop offset="0.6335" stop-color="#054DA4"/>
<stop offset="0.761" stop-color="#032C66"/>
<stop offset="0.8684" stop-color="#01143A"/>
<stop offset="0.9514" stop-color="#00051F"/>
<stop offset="1" stop-color="#000015"/>
</linearGradient>
<linearGradient id="paint29_linear" x1="20.8225" y1="34.2077" x2="39.0097" y2="34.2077" gradientUnits="userSpaceOnUse">
<stop offset="0" stop-color="#087CFA"/>
<stop offset="0.7942" stop-color="#000216"/>
</linearGradient>
<linearGradient id="paint30_linear" x1="51.2551" y1="37.5687" x2="32.1321" y2="6.60183" gradientUnits="userSpaceOnUse">
<stop offset="0.1908" stop-color="#3595F3"/>
<stop offset="0.8951" stop-color="#000020"/>
</linearGradient>
</defs>
</svg>
