<svg xmlns="http://www.w3.org/2000/svg" width="16" height="16" viewBox="0 0 16 16"><rect id="frame" width="16" height="16" fill="none"/><g fill="none" fill-rule="evenodd"><path fill="#9AA7B0" fill-opacity=".6" d="M1 2h14v11H1z"/><path fill="#231F20" fill-opacity=".7" d="M4.504 10.088C3.712 10.088 3 9.632 3 8.784v-.016c0-.912.72-1.36 1.752-1.36.472 0 .808.072 1.136.176V7.48c0-.6-.368-.92-1.048-.92-.472 0-.824.104-1.208.264l-.264-.76a3.667 3.667 0 0 1 1.6-.344c.632 0 1.104.168 1.4.472.312.304.456.752.456 1.304V10H5.88v-.528c-.288.344-.728.616-1.376.616zm.24-.704c.64 0 1.128-.368 1.128-.904v-.288a2.684 2.684 0 0 0-.96-.168c-.624 0-.992.264-.992.704v.016c0 .408.36.64.824.64z"/><path fill="#231F20" fill-opacity=".7" d="M11.416 10.088c-.704 0-1.144-.352-1.44-.744V10H9V4h.976v2.48c.312-.44.752-.792 1.44-.792.992 0 1.96.784 1.96 2.192v.016c0 1.4-.96 2.192-1.96 2.192zm-.084-.84c.664 0 1.208-.52 1.208-1.352V7.88c0-.816-.56-1.352-1.208-1.352-.656 0-1.232.544-1.232 1.352v.016c0 .808.576 1.352 1.232 1.352z" opacity=".9"/></g></svg>