<svg width="64" height="64" viewBox="0 0 64 64" fill="none" xmlns="http://www.w3.org/2000/svg">
<path d="M16.5 40.5L24.4 0L38.9334 8.06667L30 27L16.5 40.5Z" fill="url(#paint0_linear)"/>
<path d="M22.5 35L24.4 0L5.93333 11.6667L0 47.0667L22.5 35Z" fill="url(#paint1_linear)"/>
<path d="M62.7333 19.2L54.4667 2.46664L38.9333 8.06664L23 25L0 47.0666L20.7333 62.1333L46.8667 38.6L62.7333 19.2Z" fill="url(#paint2_linear)"/>
<path d="M51.9999 36.6667L41.9999 32L24.5 50.5L37.9332 60.5333L53.9332 64L63.9999 41.2L51.9999 36.6667Z" fill="url(#paint3_linear)"/>
<path d="M51 13H13V51H51V13Z" fill="url(#paint4_linear)"/>
<path d="M32.1444 44H18V46.3222H32.1444V44Z" fill="white"/>
<path d="M33 17.64H36.1283V29.1522H42.3224V31.78H33V17.64Z" fill="white"/>
<path d="M17 24.8221C17 20.811 19.9556 17.4332 24.3889 17.4332C27.1333 17.4332 28.6111 18.2777 30.0889 19.5443L28.1889 21.8666C27.1333 20.811 26.0778 20.1777 24.6 20.1777C22.2778 20.1777 20.3778 22.0777 20.3778 24.611C20.3778 27.1443 22.0667 29.0443 24.6 29.0443C26.2889 29.0443 27.1333 28.411 28.4 27.3555L30.3 29.4666C28.6111 31.1555 26.9222 31.9999 24.1778 31.9999C19.9556 31.9999 17 28.8332 17 24.8221Z" fill="white"/>
<defs>
<linearGradient id="paint0_linear" x1="23.0045" y1="12.513" x2="41.3411" y2="12.513" gradientUnits="userSpaceOnUse">
<stop offset="0" stop-color="#FF318C"/>
<stop offset="0.149" stop-color="#FB348C"/>
<stop offset="0.2849" stop-color="#F03C8C"/>
<stop offset="0.4157" stop-color="#DE4A8C"/>
<stop offset="0.5434" stop-color="#C45D8B"/>
<stop offset="0.6689" stop-color="#A2778B"/>
<stop offset="0.7926" stop-color="#79958A"/>
<stop offset="0.9128" stop-color="#49B98A"/>
<stop offset="1" stop-color="#21D789"/>
</linearGradient>
<linearGradient id="paint1_linear" x1="15.6627" y1="8.1214" x2="6.24993" y2="71.2823" gradientUnits="userSpaceOnUse">
<stop offset="0.0913979" stop-color="#21D789"/>
<stop offset="0.9032" stop-color="#009AE5"/>
</linearGradient>
<linearGradient id="paint2_linear" x1="58.3645" y1="5.93551" x2="-6.0188" y2="73.9338" gradientUnits="userSpaceOnUse">
<stop offset="0.0913979" stop-color="#21D789"/>
<stop offset="0.9032" stop-color="#009AE5"/>
</linearGradient>
<linearGradient id="paint3_linear" x1="39.1231" y1="46.7441" x2="61.1433" y2="49.875" gradientUnits="userSpaceOnUse">
<stop offset="0.0913979" stop-color="#21D789"/>
<stop offset="0.9032" stop-color="#009AE5"/>
</linearGradient>
<linearGradient id="paint4_linear" x1="31.9493" y1="3.7641" x2="31.9493" y2="37.8425" gradientUnits="userSpaceOnUse">
<stop offset="0.0842986" stop-color="#878585"/>
<stop offset="0.5377"/>
</linearGradient>
</defs>
    <path fill-rule="evenodd" clip-rule="evenodd" d="M28 64H64V44H28V64Z" fill="#D99E2B"/>
    <path fill-rule="evenodd" clip-rule="evenodd" d="M32 60H39.5V58.101H33.8V54.9H38.8V53H33.8V49.9H39.4V48H32V60Z" fill="black"/>
    <path fill-rule="evenodd" clip-rule="evenodd" d="M44.7998 55.3L46.5998 50.5L48.4998 55.3H44.7998ZM41 60H42.9L44 57.101H49.1L50.199 60H52.199L47.5 48H45.699L41 60Z" fill="black"/>
    <path fill-rule="evenodd" clip-rule="evenodd" d="M54.814 54.2004V49.9004H56.599C57.969 49.9004 58.599 50.6004 58.7 51.7004V52.1004C58.7 53.2884 58.045 54.2004 56.9 54.2004H54.814ZM54.814 60V56.1H56.5C58.791 56.142 60.511 54.348 60.511 52.304V51.804C60.511 49.585 58.935 48 56.88 48H53V60H54.814Z" fill="black"/>
</svg>