<svg width="70" height="70" viewBox="0 0 70 70" fill="none" xmlns="http://www.w3.org/2000/svg">
<path d="M58.1876 0L38.2085 7.14584L22.3855 0L17.2084 13.125H13.8542V51.7709L62.4168 52.2084L70.0002 13.7084L58.1876 0Z" fill="url(#paint0_linear)"/>
<path d="M57.6044 25.1562L25.6669 6.12488L57.6044 43.677V25.1562Z" fill="url(#paint1_linear)"/>
<path d="M29.1667 68.177L55.2709 64.677L51.2605 56.8749L48.8542 51.7708L51.2605 47.5782L55.2709 39.375L25.5938 6.12488L0 12.3957V49.1458L14.7292 70L29.0209 68.177H29.0938H29.1667Z" fill="url(#paint2_linear)"/>
<path d="M56 14H14V56H56V14Z" fill="#010101"/>
<path d="M34.4166 48.65H18.6666V51.3333H34.4166V48.65Z" fill="white"/>
<path d="M34.8601 19.25H38.6353L42.7601 25.8916L46.8848 19.25H50.66V34.98H47.1645V24.7031L42.7601 31.4145H42.6902L38.2857 24.773V34.98H34.8601V19.25Z" fill="white"/>
<path d="M19.3399 19.25H26.5408C28.5682 19.25 30.0363 19.8093 31.1549 20.858C32.0638 21.7668 32.4832 22.9553 32.4832 24.4234V24.4933C32.4832 25.7517 32.2036 26.8004 31.5744 27.6393C30.9452 28.4084 30.1062 29.0376 29.1275 29.3871L32.9726 34.98H28.9178L25.6319 30.1561H22.7656V34.98H19.27V19.25H19.3399ZM26.331 26.8703C27.17 26.8703 27.8691 26.6606 28.2886 26.2411C28.7779 25.8216 28.9877 25.2624 28.9877 24.6332V24.5632C28.9877 23.7942 28.7779 23.2349 28.2886 22.8854C27.7992 22.5358 27.17 22.3261 26.2611 22.3261H22.8355V26.8703H26.331Z" fill="white"/>
<defs>
<linearGradient id="paint0_linear" x1="44.8771" y1="40.4873" x2="36.0319" y2="17.2684" gradientUnits="userSpaceOnUse">
<stop offset="0" stop-color="#FE2857"/>
<stop offset="0.0562257" stop-color="#FE3052"/>
<stop offset="0.3252" stop-color="#FD533B"/>
<stop offset="0.5796" stop-color="#FC6C2A"/>
<stop offset="0.8114" stop-color="#FC7B20"/>
<stop offset="1" stop-color="#FC801D"/>
</linearGradient>
<linearGradient id="paint1_linear" x1="28.0206" y1="7.25144" x2="41.687" y2="19.779" gradientUnits="userSpaceOnUse">
<stop offset="0" stop-color="#6B57FF"/>
<stop offset="1" stop-color="#FE2857"/>
</linearGradient>
<linearGradient id="paint2_linear" x1="0.305667" y1="11.2118" x2="45.2998" y2="68.4078" gradientUnits="userSpaceOnUse">
<stop offset="0.00149909" stop-color="#6B57FF"/>
<stop offset="0.2967" stop-color="#FE2857"/>
<stop offset="0.629" stop-color="#FE2857"/>
<stop offset="0.6414" stop-color="#FE3052"/>
<stop offset="0.7007" stop-color="#FD533B"/>
<stop offset="0.7568" stop-color="#FC6C2A"/>
<stop offset="0.8079" stop-color="#FC7B20"/>
<stop offset="0.8495" stop-color="#FC801D"/>
</linearGradient>
</defs>
</svg>
