<svg width="48" height="48" viewBox="0 0 48 48" fill="none" xmlns="http://www.w3.org/2000/svg">
<path d="M39.9 0L26.2 4.9L15.35 0L11.8 9H9.5V35.5L42.8 35.8L48 9.4L39.9 0Z" fill="url(#paint0_linear)"/>
<path d="M39.5001 17.25L17.6001 4.19995L39.5001 29.95V17.25Z" fill="url(#paint1_linear)"/>
<path d="M20 46.75L37.9 44.3499L35.15 39L33.5 35.5L34.5 34.5L37 26.5L17.55 4.19995L0 8.49995V33.7L10.1 48L19.9 46.75H19.95H20Z" fill="url(#paint2_linear)"/>
<path d="M39 9H9V39H39V9Z" fill="url(#paint3_linear)"/>
<path d="M23.25 34H12V35.9286H23.25V34Z" fill="white"/>
<path d="M23.705 12.02H26.5394L29.6362 17.0065L32.733 12.02H35.5674V23.83H32.943V16.1142L29.6362 21.1531H29.5837L26.2769 16.1666V23.83H23.705V12.02Z" fill="white"/>
<path d="M12.0525 12.02H17.4588C18.981 12.02 20.0833 12.4399 20.9231 13.2273C21.6055 13.9096 21.9204 14.8019 21.9204 15.9042V15.9567C21.9204 16.9015 21.7104 17.6888 21.238 18.3187C20.7656 18.8961 20.1358 19.3685 19.4009 19.6309L22.2878 23.83H19.2435L16.7765 20.2083H14.6244V23.83H12V12.02H12.0525ZM17.3014 17.7413C17.9312 17.7413 18.4561 17.5838 18.7711 17.2689C19.1385 16.954 19.296 16.5341 19.296 16.0617V16.0092C19.296 15.4318 19.1385 15.0119 18.7711 14.7494C18.4036 14.487 17.9312 14.3295 17.2489 14.3295H14.6769V17.7413H17.3014Z" fill="white"/>
<defs>
<linearGradient id="paint0_linear" x1="30.7728" y1="27.7627" x2="24.7075" y2="11.8412" gradientUnits="userSpaceOnUse">
<stop offset="0" stop-color="#FE2857"/>
<stop offset="0.0562257" stop-color="#FE3052"/>
<stop offset="0.3252" stop-color="#FD533B"/>
<stop offset="0.5796" stop-color="#FC6C2A"/>
<stop offset="0.8114" stop-color="#FC7B20"/>
<stop offset="1" stop-color="#FC801D"/>
</linearGradient>
<linearGradient id="paint1_linear" x1="19.2141" y1="4.97245" x2="28.5853" y2="13.5627" gradientUnits="userSpaceOnUse">
<stop offset="0" stop-color="#6B57FF"/>
<stop offset="1" stop-color="#FE2857"/>
</linearGradient>
<linearGradient id="paint2_linear" x1="0.2096" y1="7.68815" x2="31.0626" y2="46.9082" gradientUnits="userSpaceOnUse">
<stop offset="0.00149909" stop-color="#6B57FF"/>
<stop offset="0.2967" stop-color="#FE2857"/>
<stop offset="0.629" stop-color="#FE2857"/>
<stop offset="0.6414" stop-color="#FE3052"/>
<stop offset="0.7007" stop-color="#FD533B"/>
<stop offset="0.7568" stop-color="#FC6C2A"/>
<stop offset="0.8079" stop-color="#FC7B20"/>
<stop offset="0.8495" stop-color="#FC801D"/>
</linearGradient>
<linearGradient id="paint3_linear" x1="23.9994" y1="1.70732" x2="23.9994" y2="28.6113" gradientUnits="userSpaceOnUse">
<stop offset="0.0842986" stop-color="#878585"/>
<stop offset="0.5377"/>
</linearGradient>
</defs>
</svg>
