<svg width="16" height="16" viewBox="0 0 16 16" fill="none" xmlns="http://www.w3.org/2000/svg">
<path d="M16 0H0V16H16V0Z" fill="#FE2857"/>
<path d="M15 1H1V15H15V1Z" fill="black"/>
<path d="M9 12H3V13H9V12Z" fill="white"/>
<path d="M8 3H9.4L11 5.5L12.6 3H14V9H12.7V5.1L11 7.6L9.3 5.1V9H8V3Z" fill="white"/>
<path d="M3 3H5.4C6.1 3 6.7 3.2 7 3.6C7.3 3.9 7.5 4.4 7.5 5C7.5 6 7 6.6 6.3 6.9L7.6 9H6.3L5.1 7.1H4.2V9H3V3ZM5.4 5.9C6 5.9 6.3 5.6 6.3 5C6.3 4.4 5.9 4.1 5.4 4.1H4.2V5.8L5.4 5.9Z" fill="white"/>
</svg>
