<svg ti:v="1" width="16" height="16" viewBox="0 0 16 16" xmlns="http://www.w3.org/2000/svg" xmlns:ti="urn:schemas-jetbrains-com:tisvg"><rect id="frame" width="16" height="16" fill="none"/><linearGradient id="a" x1=".007" y1=".5" x2=".993" y2=".5"><stop offset="0" stop-color="#385985"/><stop offset="1" stop-color="#263C59"/></linearGradient><path fill-rule="evenodd" d="M4 8V1h12v4h-3v3m-9 3h11v4H4v-4z" fill="url(#a)"/><linearGradient id="b" x1="0" y1=".5" x2="1" y2=".5"><stop offset="0" stop-color="#C7EAFF"/><stop offset="1" stop-color="#85B5FF"/></linearGradient><path fill-rule="evenodd" d="M15 2H5v2h10m-3 1H5v2h7m2 5H5v2h9v-2z" fill="url(#b)"/><linearGradient id="c" x1=".5" y1=".007" x2=".5" y2=".993"><stop offset="0" stop-color="#004A8A"/><stop offset="1" stop-color="#005B22"/></linearGradient><path fill-rule="evenodd" d="M3 16H0V0h3v16z" fill="url(#c)"/><linearGradient id="d" x1=".5" y1=".007" x2=".5" y2=".993"><stop offset="0" stop-color="#FFF9A3"/><stop offset="1" stop-color="#FFD102"/></linearGradient><path fill-rule="evenodd" d="M1 15h1V1H1v14z" fill="url(#d)"/></svg>