<svg ti:v="1" width="16" height="16" viewBox="0 0 16 16" xmlns="http://www.w3.org/2000/svg" xmlns:ti="urn:schemas-jetbrains-com:tisvg"><rect id="frame" width="16" height="16" fill="none"/><linearGradient id="a" x1=".5" y1=".007" x2=".5" y2=".993"><stop offset="0" stop-color="#385985"/><stop offset="1" stop-color="#263C59"/></linearGradient><path fill-rule="evenodd" d="M0 7V0h16v4H9v3H0z" fill="url(#a)"/><linearGradient id="b" x1="0" y1=".5" x2="1" y2=".5"><stop offset="0" stop-color="#C7EAFF"/><stop offset="1" stop-color="#85B5FF"/></linearGradient><path fill-rule="evenodd" d="M15 1H1v2h14M8 4H1v2h7V4z" fill="url(#b)"/><linearGradient id="c" x1=".5" y1="0" x2=".5" y2="1"><stop offset="0" stop-color="#004A8A"/><stop offset="1" stop-color="#005B22"/></linearGradient><path fill-rule="evenodd" d="M8 3v4h2v3H6.618L7 9.236V8H4.586L1 11.586v.828L4.586 16H7v-1.237L6.618 14H11c1.654 0 3-1.345 3-3V6c0-1.654-1.346-3-3-3H8z" fill="url(#c)"/><linearGradient id="d" x1=".5" y1="0" x2=".5" y2="1"><stop offset="0" stop-color="#FFF9A3"/><stop offset="1" stop-color="#FFD102"/></linearGradient><path fill-rule="evenodd" d="M9 4v2h2v5H5l1-2H5l-3 3 3 3h1l-1-2h6a2 2 0 0 0 2-2V6a2 2 0 0 0-2-2H9z" fill="url(#d)"/></svg>