<svg ti:v="1" width="16" height="16" viewBox="0 0 16 16" xmlns="http://www.w3.org/2000/svg" xmlns:ti="urn:schemas-jetbrains-com:tisvg"><rect id="frame" width="16" height="16" fill="none"/><linearGradient id="a" x1=".5" y1=".018" x2=".5" y2="1.007"><stop offset="0" stop-color="#566980"/><stop offset="1" stop-color="#2D3642"/></linearGradient><path fill-rule="evenodd" d="M8.5 2.169A4.461 4.461 0 0 0 5.5 1 4.502 4.502 0 0 0 1 5.5c0 1.984 1.293 3.65 3.076 4.248A4.437 4.437 0 0 0 4 10.5a4.501 4.501 0 0 0 9 0c0-.258-.034-.506-.077-.752C14.707 9.15 16 7.484 16 5.5 16 3.017 13.984 1 11.5 1c-1.158 0-2.203.45-3 1.169z" fill="url(#a)"/><linearGradient id="b" x1=".5" y1="0" x2=".5" y2="1.007"><stop offset="0" stop-color="#FCC"/><stop offset="1" stop-color="#FF3838"/></linearGradient><path fill-rule="evenodd" d="M2 5.5A3.5 3.5 0 0 0 5.5 9c.9 0 1.712-.35 2.332-.907A4.475 4.475 0 0 1 7 5.5c0-.966.313-1.858.832-2.592A3.47 3.47 0 0 0 5.5 2 3.501 3.501 0 0 0 2 5.5z" fill="url(#b)"/><linearGradient id="c" x1=".5" y1=".002" x2=".5" y2="1.007"><stop offset="0" stop-color="#FBF297"/><stop offset="1" stop-color="#EFC334"/></linearGradient><path fill-rule="evenodd" d="M5.5 10c-.153 0-.297-.03-.445-.045-.027.179-.055.358-.055.545a3.5 3.5 0 0 0 7 0 3.49 3.49 0 0 0-2.342-3.288A4.5 4.5 0 0 1 5.5 10z" fill="url(#c)"/><linearGradient id="d" x1=".5" y1="0" x2=".5" y2=".999"><stop offset="0" stop-color="#DBFFAC"/><stop offset="1" stop-color="#46EB02"/></linearGradient><path fill-rule="evenodd" d="M8 5.5c0 .186.027.366.054.545C8.203 6.03 8.348 6 8.5 6a4.497 4.497 0 0 1 4.158 2.788A3.488 3.488 0 0 0 15 5.5C15 3.569 13.433 2 11.5 2A3.501 3.501 0 0 0 8 5.5z" fill="url(#d)"/></svg>