<svg ti:v="1" width="16" height="16" viewBox="0 0 16 16" xmlns="http://www.w3.org/2000/svg" xmlns:ti="urn:schemas-jetbrains-com:tisvg"><rect id="frame" width="16" height="16" fill="none"/><g fill-rule="evenodd"><path d="M16 5.5C16 3.017 13.984 1 11.5 1c-1.158 0-2.203.45-3 1.169A4.463 4.463 0 0 0 5.5 1 4.502 4.502 0 0 0 1 5.5c0 1.983 1.293 3.649 3.076 4.248A4.437 4.437 0 0 0 4 10.5C4 12.984 6.016 15 8.5 15s4.5-2.016 4.5-4.5c0-.258-.034-.506-.076-.752C14.707 9.149 16 7.483 16 5.5z" fill="#242424"/><path d="M7 5.5c0-.967.312-1.858.832-2.592A3.474 3.474 0 0 0 5.5 2a3.5 3.5 0 0 0 0 7c.9 0 1.712-.35 2.332-.907A4.47 4.47 0 0 1 7 5.5z" fill="#C3C3C3"/><path d="M9.658 7.212A4.498 4.498 0 0 1 5.5 10c-.153 0-.297-.03-.446-.045A3.633 3.633 0 0 0 5 10.5a3.5 3.5 0 1 0 7 0 3.49 3.49 0 0 0-2.342-3.288z" fill="#C3C3C3"/><path d="M11.5 2A3.5 3.5 0 0 0 8 5.5c0 .187.027.366.055.545C8.203 6.03 8.348 6 8.5 6a4.498 4.498 0 0 1 4.158 2.788A3.489 3.489 0 0 0 15 5.5 3.5 3.5 0 0 0 11.5 2z" fill="#C3C3C3"/></g></svg>