<svg ti:v="1" width="16" height="16" viewBox="0 0 16 16" xmlns="http://www.w3.org/2000/svg" xmlns:ti="urn:schemas-jetbrains-com:tisvg"><rect id="frame" width="16" height="16" fill="none"/><linearGradient id="a" x1=".5" y1="0" x2=".5" y2="1"><stop offset="0" stop-color="#004A8A"/><stop offset="1" stop-color="#005B22"/></linearGradient><path fill-rule="evenodd" d="M15 15H6V6h9v9z" fill="url(#a)"/><path fill-rule="evenodd" d="M14 14H7V7h7v7z"/><linearGradient id="b" x1=".5" y1="0" x2=".5" y2="1"><stop offset="0" stop-color="#FFF9A3"/><stop offset="1" stop-color="#FFD102"/></linearGradient><path fill-rule="evenodd" d="M14 13h-1v1h1m-2-1h-1v1h1m-2-1H9v1h1m4-5h-1v1h1m0 1h-1v1h1M8 9H7v1h1m0 1H7v1h1m0 1H7v1h1m6-7h-1v1h1m-2 3h-1v1h1m-2-1H9v1h1m2-3h-1v1h1m-2-1H9v1h1m2-3h-1v1h1m-2-1H9v1h1M8 8H7V7h1v1z" fill="url(#b)"/><linearGradient id="c" x1=".5" y1=".007" x2=".5" y2=".993"><stop offset="0" stop-color="#385985"/><stop offset="1" stop-color="#263C59"/></linearGradient><path fill-rule="evenodd" d="M11 11H2V2h9v9z" fill="url(#c)"/><linearGradient id="d" x1=".5" y1="0" x2=".5" y2="1"><stop offset="0" stop-color="#C7EAFF"/><stop offset="1" stop-color="#85B5FF"/></linearGradient><path fill-rule="evenodd" d="M10 10H3V3h7v7z" fill="url(#d)"/></svg>