<svg ti:v="1" width="16" height="16" viewBox="0 0 16 16" xmlns="http://www.w3.org/2000/svg" xmlns:ti="urn:schemas-jetbrains-com:tisvg"><rect id="frame" width="16" height="16" fill="none"/><g fill-rule="evenodd"><path d="M15 15H6V6h9v9z" fill="#F4F4F4"/><path d="M14 14H7V7h7v7z" fill="#EBEBEB"/><path d="M14 13h-1v1h1m-2-1h-1v1h1m-2-1H9v1h1m4-5h-1v1h1m0 1h-1v1h1M8 9H7v1h1m0 1H7v1h1m0 1H7v1h1m6-7h-1v1h1m-2 3h-1v1h1m-2-1H9v1h1m2-3h-1v1h1m-2-1H9v1h1m2-3h-1v1h1m-2-1H9v1h1M8 8H7V7h1v1z" fill="#313131"/><path d="M11 11H2V2h9v9z" fill="#F4F4F4"/><path d="M10 10H3V3h7v7z" fill="#313131"/></g></svg>