<svg ti:v="1" width="32" height="32" viewBox="0 0 32 32" xmlns="http://www.w3.org/2000/svg" xmlns:ti="urn:schemas-jetbrains-com:tisvg"><rect id="frame" width="32" height="32" fill="none"/><g fill-rule="evenodd" fill="gray"><path d="M25 4H8C5.794 4 4 5.794 4 8v17c0 2.206 1.794 4 4 4h17c2.206 0 4-1.794 4-4V8c0-2.206-1.794-4-4-4z" opacity=".051"/><path d="M28 25c0 2-1 3-3 3H8c-2 0-3-1-3-3V8c0-2 1-3 3-3h17c2 0 3 1 3 3m-3-4H8C5.794 4 4 5.794 4 8v17c0 2.206 1.794 4 4 4h17c2.206 0 4-1.794 4-4V8c0-2.206-1.794-4-4-4z" opacity=".333"/></g></svg>