<svg ti:v="1" width="16" height="16" viewBox="0 0 16 16" xmlns="http://www.w3.org/2000/svg" xmlns:ti="urn:schemas-jetbrains-com:tisvg"><rect id="frame" width="16" height="16" fill="none"/><linearGradient id="a" x1=".638" y1=".319" x2=".316" y2=".641"><stop offset="0" stop-color="#5D3200"/><stop offset="1" stop-color="#3A0600"/></linearGradient><path fill-rule="evenodd" d="M5.464 5.467c-.661.664-.607 1.835.114 2.658l6.171 7.197c.377.431.917.678 1.482.678.525 0 1.022-.207 1.364-.551l.825-.755c.386-.389.598-.921.579-1.46a1.954 1.954 0 0 0-.681-1.42L8.131 5.585C7.706 5.213 7.164 5 6.644 5c-.46 0-.878.165-1.18.467z" fill="url(#a)"/><linearGradient id="b" x1=".59" y1=".357" x2=".353" y2=".594"><stop offset="0" stop-color="#FFB662"/><stop offset="1" stop-color="#FF1C00"/></linearGradient><path fill-rule="evenodd" d="M6.174 6.175c-.285.286-.211.871.165 1.299l6.165 7.19a.959.959 0 0 0 1.417.046l.79-.72a.964.964 0 0 0-.048-1.42L7.475 6.339c-.254-.222-.561-.338-.829-.338a.65.65 0 0 0-.472.174z" fill="url(#b)"/><path fill-rule="evenodd" d="M2.585 10L0 7.414V5h1.585l-.5-.5 3.207-3.207C5.586 0 6.925 0 8 0h3v1.081C10.922 2.034 10.209 3 9 3c-.467 0-.862.171-1.185.401L9.414 5 5.5 8.914l-.5-.5L5.002 10H2.585z" fill="#00363B"/><linearGradient id="c" x1=".361" y1=".219" x2=".695" y2=".594"><stop offset="0" stop-color="#4EF1FF"/><stop offset=".62" stop-color="#FFF"/><stop offset="1" stop-color="#FFF"/></linearGradient><path fill-rule="evenodd" d="M8 1C7 1 6 1 5 2L2.5 4.5 3 5v1H1.001v1L3 9h1.001L4 7h1l.5.5L8 5 6.398 3.398C6.861 2.81 7.726 2 9 2c.919 0 1-1 1-1H8z" fill="url(#c)"/></svg>