<svg ti:v="1" width="16.001" height="16" viewBox="0 0 16.001 16" xmlns="http://www.w3.org/2000/svg" xmlns:ti="urn:schemas-jetbrains-com:tisvg"><rect id="frame" width="16.001" height="16" fill="none"/><path d="M13.485 14a1.83 1.83 0 0 1-1.378-.63L6.817 7.2a1.83 1.83 0 0 1-.091-2.472 1.56 1.56 0 0 1 1.114-.442c.505.01.99.2 1.368.537l6.158 5.338a1.823 1.823 0 0 1 .1 2.678l-.712.651a1.79 1.79 0 0 1-1.264.51zm0 0" fill="#F4F4F4"/><path d="M8.55 5.576a.861.861 0 0 0-1.115-.14.861.861 0 0 0 .141 1.114l5.285 6.162a.822.822 0 0 0 1.214.039l.677-.617a.825.825 0 0 0-.041-1.217zm0 0" fill="#323232"/><path d="M7.078 7.96l3.46-3.46-1.379-1.379A1.6 1.6 0 0 1 10 2.875a2.063 2.063 0 0 0 1.976-1.655L12 1.111V0H9.124a4.155 4.155 0 0 0-3.332 1.168L3.039 3.921l.448.447L2 4.388v2.276L4.334 9h2.278l.019-1.486zm0 0" fill="#F4F4F4"/><path d="M9.124 1a3.214 3.214 0 0 0-2.624.875L4.453 3.921l.813.813-.62.62L3 5.375v.875L4.749 8h.876l.021-1.646.62-.62.812.812L9.124 4.5l-1.4-1.4A2.933 2.933 0 0 1 10 1.875c.8 0 1-.875 1-.875zm0 0" fill="#323232"/><path d="M6.276 8l-.733 1.515L2.641 5H0v1.294l1.788 2.781L0 12.771V14h2.724l.958-1.979.37.576L3 14.771V16h2.724L9 9.229V8H6.276z" fill="#F4F4F4"/><path d="M6.903 9l-1.237 2.556L2.095 6H1l1.932 3.006L1 13h1.097l1.461-3.02 1.638 2.548L4 15h1.097L8 9H6.903z" fill="#C42A29"/></svg>