<svg ti:v="1" width="16" height="16" viewBox="0 0 16 16" xmlns="http://www.w3.org/2000/svg" xmlns:ti="urn:schemas-jetbrains-com:tisvg"><rect id="frame" width="16" height="16" fill="none"/><g fill-rule="evenodd"><path d="M13.231 16a1.969 1.969 0 0 1-1.482-.68L5.58 8.126c-.723-.823-.777-1.994-.116-2.657A1.645 1.645 0 0 1 6.644 5c.52 0 1.062.213 1.486.585l7.188 6.229c.421.37.662.873.681 1.419a1.985 1.985 0 0 1-.58 1.46l-.825.756a1.933 1.933 0 0 1-1.363.551z" fill="#F4F4F4"/><path d="M7.475 6.339c-.43-.376-1.015-.45-1.301-.164-.285.286-.211.87.165 1.3l6.165 7.189a.96.96 0 0 0 1.417.046l.79-.721a.961.961 0 0 0-.048-1.42L7.475 6.34z" fill="#313131"/><path d="M2.585 10L0 7.414V5h1.585l-.5-.5 3.207-3.207C5.586 0 6.925 0 8 0h3v1.081C10.922 2.034 10.209 3 9 3c-.467 0-.862.171-1.185.401L9.414 5 5.5 8.914l-.5-.5L5.002 10H2.585z" fill="#F4F4F4"/><path d="M8 1C7 1 6 1 5 2L2.5 4.5 3 5v1H1.001v1L3 9h1.001L4 7h1l.5.5L8 5 6.398 3.398C6.861 2.81 7.726 2 9 2c.919 0 1-1 1-1H8z" fill="#313131"/></g></svg>