<svg ti:v="1" width="16" height="16" viewBox="0 0 16 16" xmlns="http://www.w3.org/2000/svg" xmlns:ti="urn:schemas-jetbrains-com:tisvg"><rect id="frame" width="16" height="16" fill="none"/><g fill-rule="evenodd"><path d="M11.2 9.4l-.568-.821c-.775.517-.754 1.42-.754 1.42H11s-.037-.433.2-.6zm-4.831-.821l-.57.82c.238.167.2.6.2.6h1.123s.02-.903-.753-1.42zM7.83 1.818L7.65.836A4.715 4.715 0 0 0 5.8 1.6l.569.82c.43-.298.926-.505 1.462-.602zm-2.41 1.55L4.6 2.8a4.715 4.715 0 0 0-.764 1.852l.982.179a3.719 3.719 0 0 1 .603-1.462zm0 4.264a3.724 3.724 0 0 1-.603-1.462l-.982.178A4.71 4.71 0 0 0 4.6 8.2m8.564-3.548A4.715 4.715 0 0 0 12.4 2.8l-.821.569c.299.43.506.926.603 1.462m.982 1.517l-.982-.178a3.724 3.724 0 0 1-.603 1.462l.82.568a4.71 4.71 0 0 0 .765-1.852zM10.632 2.42a3.725 3.725 0 0 0-1.462-.603l.178-.982A4.715 4.715 0 0 1 11.2 1.6l-.568.82z" fill="#D49013"/><path d="M6 11v-1h5v1m-5 1v.5c0 .171.018.338.05.5h4.9c.032-.162.05-.329.05-.5V12m-4.489 2A2.49 2.49 0 0 0 8.5 15a2.49 2.49 0 0 0 1.989-1H6.511z" fill="#73AABD"/><path d="M9 8H8V6h1m1-1H9v1h1M8 5H7v1h1V5z" fill="#D49013"/></g></svg>