<svg ti:v="1" width="16" height="16" viewBox="0 0 16 16" xmlns="http://www.w3.org/2000/svg" xmlns:ti="urn:schemas-jetbrains-com:tisvg"><rect id="frame" width="16" height="16" fill="none"/><g fill-rule="evenodd"><path d="M14 5.5a5.5 5.5 0 1 0-9 4.243V12.5a3.5 3.5 0 1 0 7 0V9.743A5.49 5.49 0 0 0 14 5.5z" fill="#F4F4F4"/><path d="M11.2 9.4l-.568-.821c-.775.517-.754 1.42-.754 1.42H11s-.037-.433.2-.6zm-4.831-.821l-.57.82c.238.167.2.6.2.6h1.123s.02-.903-.753-1.42zM7.83 1.818L7.65.836A4.715 4.715 0 0 0 5.8 1.6l.569.82c.43-.298.926-.505 1.462-.602zm-2.41 1.55L4.6 2.8a4.715 4.715 0 0 0-.764 1.852l.982.179a3.719 3.719 0 0 1 .603-1.462zm0 4.264a3.724 3.724 0 0 1-.603-1.462l-.982.178A4.71 4.71 0 0 0 4.6 8.2m8.564-3.548A4.715 4.715 0 0 0 12.4 2.8l-.821.569c.299.43.506.926.603 1.462m.982 1.517l-.982-.178a3.724 3.724 0 0 1-.603 1.462l.82.568a4.71 4.71 0 0 0 .765-1.852zM10.632 2.42a3.725 3.725 0 0 0-1.462-.603l.178-.982A4.715 4.715 0 0 1 11.2 1.6l-.568.82z" fill="#313131"/><path d="M6 11v-1h5v1m-5 1v.5c0 .171.018.338.05.5h4.9c.032-.162.05-.329.05-.5V12m-4.489 2A2.49 2.49 0 0 0 8.5 15a2.49 2.49 0 0 0 1.989-1H6.511z" fill="#313131"/><path d="M8.5 1.75c.229 0 .451.028.669.068l.179-.982A4.744 4.744 0 0 0 8.5.75c-.29 0-.572.036-.848.086l.179.982c.218-.04.44-.068.669-.068zm3.75 3.75c0 .229-.028.451-.068.669l.982.179c.05-.276.086-.558.086-.848 0-.29-.036-.572-.086-.848l-.982.179c.04.218.068.44.068.669zm-.671-2.131L12.4 2.8a4.785 4.785 0 0 0-1.2-1.2l-.569.821c.37.257.691.578.948.948zM4.75 5.5c0-.229.028-.451.068-.669l-.982-.179c-.05.276-.086.558-.086.848 0 .29.036.572.086.848l.982-.179A3.692 3.692 0 0 1 4.75 5.5zm1.619-3.079L5.8 1.6a4.785 4.785 0 0 0-1.2 1.2l.821.569c.257-.37.578-.691.948-.948zm-.948 5.21L4.6 8.2c.325.468.732.875 1.2 1.2l.569-.821a3.779 3.779 0 0 1-.948-.948zm6.158 0l.821.569a4.785 4.785 0 0 1-1.2 1.2l-.569-.821c.37-.257.691-.578.948-.948z" fill="#EBEBEB"/><path d="M8.5 1.75A3.75 3.75 0 0 0 4.75 5.5c0 1.277.641 2.401 1.617 3.076.554.384.679.9.755 1.424h2.756c.076-.524.201-1.04.755-1.424A3.732 3.732 0 0 0 12.25 5.5 3.75 3.75 0 0 0 8.5 1.75z" fill="#EBEBEB"/><path d="M9 8H8V6h1m1-1H9v1h1M8 5H7v1h1V5z" fill="#313131"/></g></svg>