<svg ti:v="1" width="16" height="16" viewBox="0 0 16 16" xmlns="http://www.w3.org/2000/svg" xmlns:ti="urn:schemas-jetbrains-com:tisvg"><rect id="frame" width="16" height="16" fill="none"/><path d="M1.606 3h1.583l2.2 2.183.789-.773L4 2.21V.608l.208-.1A5.44 5.44 0 0 1 6.5 0 5.51 5.51 0 0 1 12 5.5c0 .554-.086 1.104-.255 1.631l3.674 3.7a2 2 0 0 1-.021 2.83l-.783.766a2.02 2.02 0 0 1-2.829-.013l-3.67-3.66A5.388 5.388 0 0 1 6.5 11 5.51 5.51 0 0 1 1 5.5c0-.786.17-1.563.5-2.277zm0 0" fill="#252525"/><path d="M2.409 3.644l2.968 2.95 2.212-2.167-2.966-3a4.483 4.483 0 0 1 5.955 5.957l4.129 4.159a1 1 0 0 1-.01 1.411l-.783.765a1.02 1.02 0 0 1-1.423 0L8.359 9.592a4.482 4.482 0 0 1-5.95-5.948zm0 0" fill="#C4C4C4"/><path d="M6.276 8l-.733 1.515L2.641 5H0v1.294l1.788 2.781L0 12.771V14h2.724l.958-1.979.37.576L3 14.771V16h2.724L9 9.229V8H6.276z" fill="#252525"/><path d="M6.903 9l-1.237 2.556L2.095 6H1l1.932 3.006L1 13h1.097l1.461-3.02 1.638 2.548L4 15h1.097L8 9H6.903z" fill="#E05865"/></svg>