<svg ti:v="1" width="16" height="16" viewBox="0 0 16 16" xmlns="http://www.w3.org/2000/svg" xmlns:ti="urn:schemas-jetbrains-com:tisvg"><rect id="frame" width="16" height="16" fill="none"/><path d="M7 8.5v3a3.501 3.501 0 0 0 7 0v-3zm0 0" fill="#F4F4F4"/><path d="M7.344 10h6.312a5.501 5.501 0 0 0-1.21-9.649 5.501 5.501 0 0 0-7.293 6.434A5.501 5.501 0 0 0 7.344 10zm0 0" fill="#F4F4F4"/><path d="M8 9v2.5a2.5 2.5 0 0 0 5 0V9zm0 0" fill="#323232"/><path d="M15 5.5a4.5 4.5 0 1 0-7 3.74V10h5v-.76a4.494 4.494 0 0 0 2-3.74zm0 0" fill="#323232"/><path d="M14 5.5a3.5 3.5 0 1 1-7 0 3.5 3.5 0 0 1 7 0z" fill="#E51400"/><path d="M12 4.5L10.5 6 9 4.5l-.5.5L10 7v1.5h1V7l1.5-2-.5-.5z" fill="#EBEBEB"/><path d="M6.276 8l-.733 1.515L2.641 5H0v1.294l1.788 2.781L0 12.771V14h2.724l.958-1.979.37.576L3 14.771V16h2.724L9 9.229V8H6.276z" fill="#F4F4F4"/><path d="M6.903 9l-1.237 2.556L2.095 6H1l1.932 3.006L1 13h1.097l1.461-3.02 1.638 2.548L4 15h1.097L8 9H6.903z" fill="#C42A29"/></svg>