<svg ti:v="1" width="16" height="16" viewBox="0 0 16 16" xmlns="http://www.w3.org/2000/svg" xmlns:ti="urn:schemas-jetbrains-com:tisvg"><rect id="frame" width="16" height="16" fill="none"/><g fill-rule="evenodd"><path d="M5 12.5C5 14.43 6.57 16 8.5 16s3.5-1.57 3.5-3.5V11H5v1.5z" fill="#242424"/><path d="M14 5.5C14 2.468 11.533 0 8.5 0A5.506 5.506 0 0 0 3 5.5a5.49 5.49 0 0 0 2 4.239V11h7V9.739A5.49 5.49 0 0 0 14 5.5z" fill="#242424"/><path d="M6 11v1.5a2.5 2.5 0 1 0 5 0V11H6z" fill="#C4C4C4"/><path d="M13 5.5a4.5 4.5 0 1 0-7 3.74V11h5V9.24c1.205-.807 2-2.18 2-3.74z" fill="#C4C4C4"/><path d="M12 5.5C12 3.57 10.43 2 8.5 2S5 3.57 5 5.5c0 1.391.822 2.585 2 3.148V10h3V8.648A3.493 3.493 0 0 0 12 5.5z" fill="#E31600"/><path d="M9.5 6l-1 1-1-1H7l1 2v2h1V8l1-2h-.5z" fill="#C4C4C4"/></g></svg>