<svg ti:v="1" width="16" height="16" viewBox="0 0 16 16" xmlns="http://www.w3.org/2000/svg" xmlns:ti="urn:schemas-jetbrains-com:tisvg"><rect id="frame" width="16" height="16" fill="none"/><linearGradient id="a" x1="0" y1=".5" x2="1" y2=".5"><stop offset="0" stop-color="#114262"/><stop offset="1" stop-color="#0B5D96"/></linearGradient><path fill-rule="evenodd" d="M5 11v1.5C5 14.43 6.57 16 8.5 16s3.5-1.57 3.5-3.5V11H5z" fill="url(#a)"/><linearGradient id="b" x1=".5" y1=".017" x2=".5" y2="1.008"><stop offset="0" stop-color="#FA0"/><stop offset=".016" stop-color="#FFAB04"/><stop offset=".032" stop-color="#FFAC08"/><stop offset=".048" stop-color="#FFAE0C"/><stop offset=".063" stop-color="#FFAF10"/><stop offset=".079" stop-color="#FFB014"/><stop offset=".095" stop-color="#FFB218"/><stop offset=".111" stop-color="#FFB31C"/><stop offset=".127" stop-color="#FFB420"/><stop offset=".143" stop-color="#FFB624"/><stop offset=".159" stop-color="#FFB728"/><stop offset=".175" stop-color="#FFB92D"/><stop offset=".19" stop-color="#FFBA30"/><stop offset=".206" stop-color="#FFBB35"/><stop offset=".222" stop-color="#FFBD38"/><stop offset=".238" stop-color="#FFBE3D"/><stop offset=".254" stop-color="#FFBF41"/><stop offset=".27" stop-color="#FFC145"/><stop offset=".286" stop-color="#FFC249"/><stop offset=".302" stop-color="#FFC34D"/><stop offset=".317" stop-color="#FFC551"/><stop offset=".333" stop-color="#FFC655"/><stop offset=".349" stop-color="#FFC759"/><stop offset=".365" stop-color="#FFC95D"/><stop offset=".381" stop-color="#FFCA61"/><stop offset=".397" stop-color="#FFCB65"/><stop offset=".413" stop-color="#FFCD69"/><stop offset=".429" stop-color="#FFCE6D"/><stop offset=".444" stop-color="#FFCF71"/><stop offset=".46" stop-color="#FFD175"/><stop offset=".476" stop-color="#FFD279"/><stop offset=".492" stop-color="#FFD37D"/><stop offset=".508" stop-color="#FFD582"/><stop offset=".524" stop-color="#FFD686"/><stop offset=".54" stop-color="#FFD88A"/><stop offset=".556" stop-color="#FFD98E"/><stop offset=".571" stop-color="#FFDA92"/><stop offset=".587" stop-color="#FFDC96"/><stop offset=".603" stop-color="#FFDD9A"/><stop offset=".619" stop-color="#FFDE9E"/><stop offset=".635" stop-color="#FFE0A2"/><stop offset=".651" stop-color="#FFE1A6"/><stop offset=".667" stop-color="#FFE2AA"/><stop offset=".683" stop-color="#FFE4AE"/><stop offset=".698" stop-color="#FFE5B2"/><stop offset=".714" stop-color="#FFE6B6"/><stop offset=".73" stop-color="#FFE8BA"/><stop offset=".746" stop-color="#FFE9BE"/><stop offset=".762" stop-color="#FFEAC2"/><stop offset=".778" stop-color="#FFECC6"/><stop offset=".794" stop-color="#FFEDCA"/><stop offset=".81" stop-color="#FFEECE"/><stop offset=".825" stop-color="#FFF0D2"/><stop offset=".841" stop-color="#FFF1D7"/><stop offset=".857" stop-color="#FFF3DB"/><stop offset=".873" stop-color="#FFF4DF"/><stop offset=".889" stop-color="#FFF5E3"/><stop offset=".905" stop-color="#FFF7E7"/><stop offset=".921" stop-color="#FFF8EB"/><stop offset=".937" stop-color="#FFF9EF"/><stop offset=".952" stop-color="#FFFBF3"/><stop offset=".968" stop-color="#FFFCF7"/><stop offset=".984" stop-color="#FFFDFB"/><stop offset="1" stop-color="#FFF"/></linearGradient><path fill-rule="evenodd" d="M3 5.5a5.49 5.49 0 0 0 2 4.239V11h7V9.739A5.49 5.49 0 0 0 14 5.5C14 2.468 11.533 0 8.5 0A5.506 5.506 0 0 0 3 5.5z" fill="url(#b)"/><linearGradient id="c" x1=".5" y1=".017" x2=".5" y2="1.008"><stop offset="0" stop-color="#FFF"/><stop offset=".016" stop-color="#FDFDFB"/><stop offset=".032" stop-color="#FBFAF7"/><stop offset=".048" stop-color="#F9F8F3"/><stop offset=".063" stop-color="#F8F6EF"/><stop offset=".079" stop-color="#F6F3EB"/><stop offset=".095" stop-color="#F4F1E7"/><stop offset=".111" stop-color="#F2EFE3"/><stop offset=".127" stop-color="#F0EDDF"/><stop offset=".143" stop-color="#EEEADB"/><stop offset=".159" stop-color="#ECE8D7"/><stop offset=".175" stop-color="#EBE6D2"/><stop offset=".19" stop-color="#E9E3CE"/><stop offset=".206" stop-color="#E7E1CA"/><stop offset=".222" stop-color="#E5DFC6"/><stop offset=".238" stop-color="#E3DCC2"/><stop offset=".254" stop-color="#E1DABE"/><stop offset=".27" stop-color="#DFD8BA"/><stop offset=".286" stop-color="#DED6B6"/><stop offset=".302" stop-color="#DCD3B2"/><stop offset=".317" stop-color="#DAD1AE"/><stop offset=".333" stop-color="#D8CFAA"/><stop offset=".349" stop-color="#D6CCA6"/><stop offset=".365" stop-color="#D4CAA2"/><stop offset=".381" stop-color="#D2C89E"/><stop offset=".397" stop-color="#D1C59A"/><stop offset=".413" stop-color="#CFC396"/><stop offset=".429" stop-color="#CDC192"/><stop offset=".444" stop-color="#CBBF8E"/><stop offset=".46" stop-color="#C9BC8A"/><stop offset=".476" stop-color="#C7BA86"/><stop offset=".492" stop-color="#C5B882"/><stop offset=".508" stop-color="#C4B57D"/><stop offset=".524" stop-color="#C2B379"/><stop offset=".54" stop-color="#C0B175"/><stop offset=".556" stop-color="#BEAE71"/><stop offset=".571" stop-color="#BCAC6D"/><stop offset=".587" stop-color="#BAAA69"/><stop offset=".603" stop-color="#B8A865"/><stop offset=".619" stop-color="#B7A561"/><stop offset=".635" stop-color="#B5A35D"/><stop offset=".651" stop-color="#B3A159"/><stop offset=".667" stop-color="#B19E55"/><stop offset=".683" stop-color="#AF9C51"/><stop offset=".698" stop-color="#AD9A4D"/><stop offset=".714" stop-color="#AB9749"/><stop offset=".73" stop-color="#AA9545"/><stop offset=".746" stop-color="#A89341"/><stop offset=".762" stop-color="#A6913D"/><stop offset=".778" stop-color="#A48E39"/><stop offset=".794" stop-color="#A28C35"/><stop offset=".81" stop-color="#A08A31"/><stop offset=".825" stop-color="#9E872D"/><stop offset=".841" stop-color="#9D8528"/><stop offset=".857" stop-color="#9B8324"/><stop offset=".873" stop-color="#998020"/><stop offset=".889" stop-color="#977E1C"/><stop offset=".905" stop-color="#957C18"/><stop offset=".921" stop-color="#937A14"/><stop offset=".937" stop-color="#917710"/><stop offset=".952" stop-color="#90750C"/><stop offset=".968" stop-color="#8E7308"/><stop offset=".984" stop-color="#8C7004"/><stop offset="1" stop-color="#8A6E00"/></linearGradient><path fill-rule="evenodd" d="M3 5.5a5.49 5.49 0 0 0 2 4.239V11h7V9.739A5.49 5.49 0 0 0 14 5.5C14 2.468 11.533 0 8.5 0A5.506 5.506 0 0 0 3 5.5z" fill="url(#c)"/><linearGradient id="d" x1="0" y1=".5" x2="1" y2=".5"><stop offset="0" stop-color="#E3F7FF"/><stop offset="1" stop-color="#455777"/></linearGradient><path fill-rule="evenodd" d="M6 11v1.5a2.5 2.5 0 1 0 5 0V11H6z" fill="url(#d)"/><path fill-rule="evenodd" d="M13 5.5a4.5 4.5 0 1 0-7 3.74V11h5V9.24c1.205-.807 2-2.18 2-3.74z" fill="#FFF"/><linearGradient id="e" x1=".5" y1=".007" x2=".5" y2="1.002"><stop offset="0" stop-color="#FFF7B8"/><stop offset="1" stop-color="#FFE100"/></linearGradient><path fill-rule="evenodd" d="M5 5.5c0 1.391.822 2.585 2 3.148V10h3V8.648A3.493 3.493 0 0 0 12 5.5C12 3.571 10.43 2 8.5 2S5 3.571 5 5.5z" fill="url(#e)"/><path fill-rule="evenodd" d="M9.5 6l-1 1-1-1H7l1 2v2h1V8l1-2h-.5z" fill="#9F5B00"/></svg>