<svg ti:v="1" width="16" height="16" viewBox="0 0 16 16" xmlns="http://www.w3.org/2000/svg" xmlns:ti="urn:schemas-jetbrains-com:tisvg"><rect id="frame" width="16" height="16" fill="none"/><g fill-rule="evenodd"><path d="M2 14v-2.703c0-.737.193-1.58.566-2.341L0 9V5h9.382l-1-2h3.532l4 4-4 4H8.382l1-2H8.75C7.362 9 6 10.331 6 11.687V14H2z" fill="#242424"/><path d="M5 11.688C5 9.755 6.816 8 8.75 8H11l-1 2h1.5l3-3-3-3H10l1 2H1v2l3.891-.11C3.75 8.39 3 9.968 3 11.298V13h2v-1.312z" fill="#C4C4C4"/></g></svg>