<svg ti:v="1" width="16" height="16" viewBox="0 0 16 16" xmlns="http://www.w3.org/2000/svg" xmlns:ti="urn:schemas-jetbrains-com:tisvg"><rect id="frame" width="16" height="16" fill="none"/><linearGradient id="a" x1=".5" y1="0" x2=".5" y2="1.01"><stop offset="0" stop-color="#566980"/><stop offset="1" stop-color="#2C3641"/></linearGradient><path fill-rule="evenodd" d="M6 0C3.243 0 1 2.244 1 5v11h14V0H6z" fill="url(#a)"/><path fill-rule="evenodd" d="M6 1a4 4 0 0 0-4 4v10h12V1H6z" fill="#FFF"/><linearGradient id="b" x1=".5" y1="0" x2=".5" y2="1.007"><stop offset="0" stop-color="#8D96A1"/><stop offset="1" stop-color="#C2CFDE"/></linearGradient><path fill-rule="evenodd" d="M6 2C4.346 2 3 3.346 3 5v9h10V2H6z" fill="url(#b)"/><linearGradient id="c" x1=".5" y1=".011" x2=".5" y2="1.006"><stop offset="0" stop-color="#FFF200"/><stop offset="1" stop-color="#FFFBC9"/></linearGradient><path fill-rule="evenodd" d="M8 3L5 9h3l-2 4h.5l5-5V7H8l4-4H8z" fill="url(#c)"/></svg>