<svg ti:v="1" width="16" height="16" viewBox="0 0 16 16" xmlns="http://www.w3.org/2000/svg" xmlns:ti="urn:schemas-jetbrains-com:tisvg"><rect id="frame" width="16" height="16" fill="none"/><linearGradient id="a" x1=".5" y1="0" x2=".5" y2="1.008"><stop offset="0" stop-color="#566980"/><stop offset="1" stop-color="#2C3641"/></linearGradient><path fill-rule="evenodd" d="M3 13h13V0H3v13z" fill="url(#a)"/><linearGradient id="b" x1=".5" y1="-.009" x2=".5" y2="1.028"><stop offset="0" stop-color="#2C3641"/><stop offset="1" stop-color="#566980"/></linearGradient><path fill-rule="evenodd" d="M4 12h11V1H4v11z" fill="url(#b)"/><path fill-rule="evenodd" d="M15 10h-1V9h1v1z" fill="#FFF"/><path fill-rule="evenodd" d="M7 1H6v1h1V1z" fill="#FFF"/><path fill-rule="evenodd" d="M9 1H8v1h1V1z" fill="#FFF"/><path fill-rule="evenodd" d="M11 1h-1v1h1V1z" fill="#FFF"/><path fill-rule="evenodd" d="M13 1h-1v1h1V1z" fill="#FFF"/><path fill-rule="evenodd" d="M15 1h-1v1h1V1z" fill="#FFF"/><path fill-rule="evenodd" d="M14 12h1v-1h-1v1z" fill="#FFF"/><path fill-rule="evenodd" d="M12 12h1v-1h-1v1z" fill="#FFF"/><path fill-rule="evenodd" d="M14 8h1V7h-1v1z" fill="#FFF"/><path fill-rule="evenodd" d="M14 6h1V5h-1v1z" fill="#FFF"/><path fill-rule="evenodd" d="M12 4h1V3h-1v1z" fill="#FFF"/><path fill-rule="evenodd" d="M14 4h1V3h-1v1z" fill="#FFF"/><path fill-rule="evenodd" d="M10 12h1v-1h-1v1z" fill="#FFF"/><path fill-rule="evenodd" d="M4 10h1V9H4v1z" fill="#FFF"/><path fill-rule="evenodd" d="M8 12h1v-1H8v1z" fill="#FFF"/><path fill-rule="evenodd" d="M4 8h1V7H4v1z" fill="#FFF"/><path fill-rule="evenodd" d="M4 6h1V5H4v1z" fill="#FFF"/><path fill-rule="evenodd" d="M6 12h1v-1H6v1z" fill="#FFF"/><path fill-rule="evenodd" d="M4 12h1v-1H4v1z" fill="#FFF"/><path fill-rule="evenodd" d="M10 4h1V3h-1v1z" fill="#FFF"/><path fill-rule="evenodd" d="M8 4h1V3H8v1z" fill="#FFF"/><path fill-rule="evenodd" d="M6 4h1V3H6v1z" fill="#FFF"/><path fill-rule="evenodd" d="M5 1H4v1h1V1z" fill="#FFF"/><path fill-rule="evenodd" d="M4 4h1V3H4v1z" fill="#FFF"/><linearGradient id="c" x1=".5" y1=".015" x2=".5" y2="1.008"><stop offset="0" stop-color="#435B80"/><stop offset="1" stop-color="#1C2737"/></linearGradient><path fill-rule="evenodd" d="M2 9c-1.102 0-2 .897-2 2v5h9v-5c0-1.103-.898-2-2-2H2z" fill="url(#c)"/><path fill-rule="evenodd" d="M4.5 10C2.57 10 1 8.43 1 6.5S2.57 3 4.5 3 8 4.57 8 6.5 6.43 10 4.5 10z" fill="#6E4623"/><linearGradient id="d" x1=".5" y1=".021" x2=".5" y2="1"><stop offset="0" stop-color="#FFEABF"/><stop offset="1" stop-color="#FBC658"/></linearGradient><path fill-rule="evenodd" d="M2 6.5a2.5 2.5 0 0 0 5 0 2.5 2.5 0 0 0-5 0z" fill="url(#d)"/><linearGradient id="e" x1=".5" y1=".021" x2=".5" y2="1"><stop offset="0" stop-color="#87BEDE"/><stop offset="1" stop-color="#0070C2"/></linearGradient><path fill-rule="evenodd" d="M2 10a1 1 0 0 0-1 1v4h7v-4a1 1 0 0 0-1-1H2z" fill="url(#e)"/><path fill-rule="evenodd" d="M3 10l1.5 2L6 10H3z" fill="#FFF"/></svg>