<svg xmlns="http://www.w3.org/2000/svg" width="16" height="16" viewBox="0 0 16 16"><rect id="frame" width="16" height="16" fill="none"/><g fill="none" fill-rule="evenodd"><path fill="#0072C0" d="M7.05 0c1.642 1.134 3.286 2.203 4.853 3.373 1.413 1.054 2.28 2.502 2.53 4.245a6.437 6.437 0 0 1-4.927 7.201c-3.674.871-7.28-1.496-7.904-5.186C1.157 7 2.199 4.94 4.244 3.316c.598-.474 1.232-.907 1.864-1.338.645-.44.971-1.026.93-1.805-.002-.044.007-.09.013-.173"/><path fill="#FFF" d="M8.915 14.088c1.018 0 1.559-.372 2.046-.905.056-.061.11-.096.11-.312 0-.158-.315.015-.354.038-.985.586-1.857.758-2.92-.037-.155-.115-.333-.233-.501-.214-.222.025-.297.397-.145.655.075.127.091.174.363.38.273.207.725.45 1.4.395m.623-2.835c.306-.024.853.109.89.295.021.11-.13.238-.333.167-.46-.196-.797-.08-1.224-.001-.116.02-.296.035-.382-.015-.086-.05.083-.172.176-.206.313-.114.566-.217.873-.24"/><path fill="#FFF" d="M6.607 7.5c1.122-.007 1.96.535 2.693 1.274.547.552.537.558 1.129.066.571-.475 1.153-.934 1.919-1.09.74-.15 1.345.274 1.422 1.001.093.88-.234 1.594-.931 2.151-.692.553-1.443.51-2.049-.135-.251-.268-.458-.575-.686-.864-.198-.251-.3-.262-.563-.074-.508.363-1.001.749-1.532 1.078-.643.399-1.365.57-2.125.425-.966-.184-1.586-.881-1.598-1.736-.015-1.066.52-1.76 1.561-2 .247-.057.506-.065.76-.096"/></g></svg>