<svg xmlns="http://www.w3.org/2000/svg" width="16" height="16" viewBox="0 0 16 16">
  <g fill="none" fill-rule="evenodd" transform="translate(1.5)">
    <path fill="#0072C0" d="M5.55078956,0 C7.19172232,1.1340006 8.83570703,2.20345504 10.4032234,3.37299795 C11.815938,4.42702837 12.6821836,5.8748742 12.9331219,7.61845881 C13.4058353,10.902098 11.3316949,14.0313295 8.00625434,14.8194632 C4.33221302,15.690082 0.72548419,13.3229982 0.101529597,9.63263433 C-0.343377156,7.00032454 0.698525282,4.93970931 2.74401121,3.31633145 C3.34219376,2.8417076 3.97598242,2.4094998 4.60773645,1.97846557 C5.25339381,1.5380428 5.57927444,0.952265438 5.53858175,0.173017242 C5.53620801,0.128589365 5.54468565,0.0834908782 5.55078956,0"/>
    <path fill="#FFF" d="M7.41489188 14.0877836C8.4327226 14.0886314 8.97369774 13.7162058 9.46132971 13.1827162 9.51682816 13.1219639 9.57142857 13.0872079 9.57142857 12.8710429 9.57142857 12.713087 9.25621895 12.8857365 9.21742392 12.9086245 8.23156318 13.494672 7.36047107 13.6667563 6.29612224 12.8718906 6.14201976 12.7568851 5.96367039 12.6393366 5.79555859 12.6582687 5.57446284 12.6834173 5.49884845 13.0547125 5.65115487 13.3129803 5.72623043 13.4401362 5.74203582 13.4867601 6.01431945 13.6933178 6.2867827 13.900158 6.73885256 14.1431671 7.41489188 14.0877836M8.0367746 11.2527479C8.34344621 11.2290297 8.8900863 11.3615072 8.9264883 11.5475656 8.94824816 11.6584141 8.79694599 11.7859759 8.59378622 11.7148215 8.13357545 11.5185631 7.79721284 11.6351875 7.36974354 11.7135926 7.25423328 11.7348529 7.07446027 11.7491083 6.98803094 11.6988455 6.90180497 11.6485827 7.07120646 11.5272884 7.16434678 11.4932473 7.47671254 11.3794494 7.72989964 11.276466 8.0367746 11.2527479"/>
    <path fill="#FFF" d="M5.1070675,7.50006261 C6.22858213,7.49330377 7.06720598,8.0345053 7.79989481,8.77385615 C8.34694189,9.3261026 8.33723402,9.33220204 8.92873293,8.84012572 C9.50013484,8.36486407 10.0819259,7.90559284 10.8476555,7.75030443 C11.5881788,7.59996152 12.1927918,8.02411977 12.2701142,8.75143659 C12.363446,9.63140423 12.0361034,10.3448737 11.3388398,10.9023953 C10.6470262,11.455466 9.89560287,11.4114512 9.29030856,10.7672186 C9.03875547,10.4993378 8.83216515,10.192058 8.60411533,9.90340621 C8.40552975,9.65184559 8.30487445,9.64080066 8.04139941,9.829059 C7.5330135,10.1918932 7.03995582,10.5778063 6.50908852,10.9068463 C5.86615493,11.3056177 5.14368491,11.4770613 4.38408654,11.3323233 C3.41806816,11.1483511 2.79812689,10.4507072 2.78603463,9.59579669 C2.77070641,8.53037316 3.30566123,7.83635597 4.3471285,7.59584028 C4.59425344,7.53863743 4.85347064,7.53072465 5.1070675,7.50006261"/>
  </g>
</svg>
