<svg xmlns="http://www.w3.org/2000/svg" width="16" height="16" viewBox="0 0 16 16"><rect id="frame" width="16" height="16" fill="none"/><defs><linearGradient id="a" x1="100%" x2="16.327%" y1="100%" y2="59.996%"><stop offset="0%" stop-color="#01B202"/><stop offset="100%" stop-color="#0FE90F"/></linearGradient><linearGradient id="b" x1="90.095%" x2="0%" y1="5.142%" y2="100%"><stop offset="0%" stop-color="#7777E9"/><stop offset="100%" stop-color="#01009A"/></linearGradient><linearGradient id="c" x1="0%" y1="2.749%" y2="100%"><stop offset="0%" stop-color="#B83535"/><stop offset="100%" stop-color="#FD5B5A"/></linearGradient></defs><g fill="none" fill-rule="evenodd"><path fill="#F98B9E" fill-opacity=".6" d="M7.111 14.944A7.001 7.001 0 0 1 8 1a7 7 0 0 1 6.448 9.729L12 6.5l-4.889 8.444z"/><path fill="#231F20" fill-opacity=".7" d="M7 12h1V8h1.5V7H8l-.005-1c-.008-.497.138-.927.437-1.028.488-.164 1.137.05 1.258.092l.295-.838C9.91 4.199 9.455 4 8.811 4c-.644 0-.994.061-1.33.389-.316.31-.465.831-.48 1.611L7 7c0 .018-.333.018-1 0v.972h1V12z"/><path fill="url(#a)" d="M2.967 5.7L8.333 8h-8z" transform="translate(7.6 8)"/><path fill="url(#b)" d="M4.333.333L4.8 4.2.333 8z" transform="translate(7.6 8)"/><path fill="url(#c)" d="M4.333.333l4 7.667L5 6.6z" transform="translate(7.6 8)"/></g></svg>