<svg width="16" height="16" viewBox="0 0 16 16" fill="none" xmlns="http://www.w3.org/2000/svg">
<path d="M5.85029 5.56707V4.78972C5.92592 4.78445 6.00203 4.78015 6.07957 4.77775C8.20483 4.71074 9.59918 6.60385 9.59918 6.60385C9.59918 6.60385 8.0933 8.69609 6.47877 8.69609C6.2652 8.69708 6.0529 8.66312 5.85029 8.59557V6.23911C6.6779 6.33915 6.84399 6.70437 7.34132 7.5315L8.44799 6.6005C8.44799 6.6005 7.64049 5.5417 6.27917 5.5417C6.13522 5.54242 5.99141 5.55089 5.84837 5.56707H5.85029ZM5.84837 3.00048V4.16076C5.92448 4.15453 6.00107 4.14975 6.07765 4.14688C9.03292 4.04731 10.96 6.57082 10.96 6.57082C10.96 6.57082 8.74859 9.25995 6.44431 9.25995C6.245 9.26003 6.04606 9.24257 5.84981 9.20778V9.92577C6.01395 9.94692 6.17926 9.95763 6.34475 9.95784C8.48868 9.95784 10.0395 8.86314 11.5411 7.56692C11.79 7.76604 12.8091 8.25093 13.0187 8.46346C11.5909 9.66011 8.26419 10.6217 6.37778 10.6217C6.19588 10.6217 6.02117 10.6107 5.85125 10.5945V11.6025H14V3H5.85029L5.84837 3.00048ZM5.84837 8.59557V9.20825C3.86719 8.85404 3.31673 6.79292 3.31673 6.79292C3.31673 6.79292 4.26879 5.73987 5.85029 5.56707V6.2372H5.84742C5.01742 6.13907 4.36931 6.9145 4.36931 6.9145C4.36931 6.9145 4.73357 8.21742 5.85029 8.59509L5.84837 8.59557ZM2.32829 6.70341C2.32829 6.70341 3.50341 4.96922 5.85029 4.78876V4.16076C3.24971 4.36945 1 6.57082 1 6.57082C1 6.57082 2.27468 10.2565 5.85029 10.594V9.92386C3.22674 9.59501 2.32829 6.70341 2.32829 6.70341Z" fill="#76B900"/>
</svg>
