<svg width="16" height="16" viewBox="0 0 16 16" fill="none" xmlns="http://www.w3.org/2000/svg">
<g clip-path="url(#clip0)">
<path fill-rule="evenodd" clip-rule="evenodd" d="M6.48027 5.29791C6.00783 5.29791 5.68202 5.45826 5.50282 5.78317C5.3277 6.10808 5.2381 6.62287 5.2381 7.33598C5.2381 8.04487 5.32362 8.55544 5.49468 8.85925C5.66573 9.16306 5.99562 9.31919 6.48027 9.31919C6.96492 9.31919 7.29073 9.16728 7.46178 8.86769C7.62876 8.5681 7.71429 8.05753 7.71429 7.34442C7.71429 6.62709 7.62876 6.10808 7.45364 5.78317C7.27851 5.45826 6.9527 5.29791 6.48027 5.29791Z" fill="#41CD52"/>
<mask id="mask0" maskUnits="userSpaceOnUse" x="2" y="3" width="12" height="9">
<path d="M13.9755 12V3.03735H2V12H13.9755Z" fill="white"/>
</mask>
<g mask="url(#mask0)">
<path fill-rule="evenodd" clip-rule="evenodd" d="M10.7429 9.95947C10.3143 9.95947 10.0204 9.85993 9.86118 9.66086C9.70204 9.46178 9.62041 9.08432 9.62041 8.5286V6.73689H9.04082V6.02353H9.62041V4.90371H10.4408V6.02353H11.4857V6.741H10.4408V8.43735C10.4408 8.75252 10.4653 8.95989 10.5102 9.05947C10.5551 9.16316 10.6735 9.21293 10.8571 9.21293L11.4776 9.188L11.5142 9.85993C11.1796 9.92625 10.9224 9.95947 10.7429 9.95947ZM8.37959 10.764L7.6 11.1332L6.92653 10.0092C6.82857 10.0382 6.67755 10.0549 6.46531 10.0549C5.67755 10.0549 5.12653 9.8392 4.81633 9.40782C4.50612 8.97652 4.35102 8.29219 4.35102 7.36312C4.35102 6.42994 4.5102 5.73735 4.82449 5.28528C5.13878 4.83316 5.68571 4.60505 6.46531 4.60505C7.2449 4.60505 7.79184 4.82906 8.10204 5.28113C8.41633 5.72906 8.57143 6.42169 8.57143 7.35901C8.57143 7.97694 8.50612 8.47464 8.37959 8.8521C8.24894 9.23367 8.04082 9.52399 7.74694 9.72307L8.37959 10.764ZM12.8245 3.03735H12.4082H3.66122L2 4.72537V10.37V10.8304V12H3.15102H3.56735H12.3143L13.9755 10.312V4.66727V4.20694V3.03735H12.8245Z" fill="#41CD52"/>
</g>
</g>
<defs>
<clipPath id="clip0">
<rect width="12" height="9" fill="white" transform="translate(2 3)"/>
</clipPath>
</defs>
</svg>
