<svg width="128" height="128" viewBox="0 0 128 128" fill="none" xmlns="http://www.w3.org/2000/svg"><rect id="frame" width="128" height="128" fill="none"/><path d="M112.8 49.467L128 83.333 101.867 128l-16-39.067L112.8 49.467z" fill="url(#paint0_linear)"/><path d="M85.867 88.933l16 39.067-40.4-13.867 24.4-25.2z" fill="#B74AF7"/><path d="M90.133 36.133L81.867 0h-46L0 54.933l10.4 25.2L0 103.2l74.267-63.333 15.866-3.734z" fill="url(#paint1_linear)"/><path d="M128 27.2L74.267 39.867 0 103.2 48 128l37.867-39.067L128 27.2z" fill="url(#paint2_linear)"/><path d="M103 25H25v78h78V25z" fill="url(#paint3_linear)"/><path d="M62.7 89.567H33.667v4.767H62.7v-4.767z" fill="#fff"/><path d="M31 49.559c0-8.437 6.535-15.329 15.448-15.329 5.347 0 8.437 1.426 11.526 4.04l-4.04 4.99c-2.258-1.9-4.278-2.97-7.724-2.97-4.753 0-8.437 4.16-8.437 9.15v.119c0 5.347 3.684 9.268 8.912 9.268 2.377 0 4.397-.594 6.06-1.782v-4.159H46.21v-5.585h12.715v12.715c-2.852 2.614-7.011 4.634-12.358 4.634C37.296 64.65 31 58.233 31 49.559z" fill="#fff"/><path d="M61.776 49.559c0-8.437 6.536-15.329 15.686-15.329 9.03 0 15.566 6.773 15.566 15.091v.119c0 8.318-6.535 15.21-15.685 15.21-9.031 0-15.567-6.773-15.567-15.091zm24.48 0c0-5.11-3.685-9.269-8.913-9.269s-8.793 4.16-8.793 9.15v.119c0 4.99 3.683 9.268 8.912 9.268 5.228-.118 8.793-4.159 8.793-9.268z" fill="#fff"/><defs><linearGradient id="paint0_linear" x1="126.041" y1="72.913" x2="76.047" y2="115.216" gradientUnits="userSpaceOnUse"><stop offset="0" stop-color="#087CFA"/><stop offset=".023" stop-color="#0D7BFA"/><stop offset=".373" stop-color="#5566F9"/><stop offset=".663" stop-color="#8A57F8"/><stop offset=".881" stop-color="#AB4EF7"/><stop offset="1" stop-color="#B74AF7"/></linearGradient><linearGradient id="paint1_linear" x1="44.049" y1="39.678" x2="74.434" y2="5.109" gradientUnits="userSpaceOnUse"><stop offset="0" stop-color="#087CFA"/><stop offset=".023" stop-color="#0D7BFA"/><stop offset=".373" stop-color="#5566F9"/><stop offset=".663" stop-color="#8A57F8"/><stop offset=".881" stop-color="#AB4EF7"/><stop offset="1" stop-color="#B74AF7"/></linearGradient><linearGradient id="paint2_linear" x1="17.782" y1="111.818" x2="110.116" y2="52.484" gradientUnits="userSpaceOnUse"><stop offset="0" stop-color="#087CFA"/><stop offset=".102" stop-color="#1598D3"/><stop offset=".225" stop-color="#23B6AA"/><stop offset=".345" stop-color="#2DCC8B"/><stop offset=".462" stop-color="#35DD74"/><stop offset=".572" stop-color="#39E767"/><stop offset=".67" stop-color="#3BEA62"/></linearGradient><linearGradient id="paint3_linear" x1="63.896" y1="6.042" x2="63.896" y2="75.993" gradientUnits="userSpaceOnUse"><stop offset=".084" stop-color="#878585"/><stop offset=".538"/></linearGradient></defs></svg>