<svg width="48" height="48" viewBox="0 0 48 48" fill="none" xmlns="http://www.w3.org/2000/svg"><rect id="frame" width="48" height="48" fill="none"/><path d="M42.3 18.55l5.7 12.7L38.2 48l-6-14.65 10.1-14.8z" fill="url(#paint0_linear)"/><path d="M32.2 33.35l6 14.65-15.15-5.2 9.15-9.45z" fill="#B74AF7"/><path d="M33.8 13.55L30.7 0H13.45L0 20.6l3.9 9.45L0 38.7l27.85-23.75 5.95-1.4z" fill="url(#paint1_linear)"/><path d="M48 10.2l-20.15 4.75L0 38.7 18 48l14.2-14.65L48 10.2z" fill="url(#paint2_linear)"/><path d="M39 9H9v30h30V9z" fill="url(#paint3_linear)"/><path d="M23.25 34H12v1.929h11.25V34z" fill="#fff"/><path d="M11 17.907c0-3.361 2.604-6.107 6.155-6.107 2.13 0 3.361.568 4.592 1.61l-1.61 1.988c-.9-.757-1.704-1.184-3.077-1.184-1.894 0-3.361 1.658-3.361 3.646v.047c0 2.13 1.467 3.693 3.55 3.693.947 0 1.752-.237 2.415-.71v-1.657H17.06v-2.225h5.066v5.066c-1.137 1.041-2.794 1.846-4.924 1.846-3.693 0-6.202-2.557-6.202-6.013z" fill="#fff"/><path d="M23.262 17.907c0-3.361 2.604-6.107 6.25-6.107 3.597 0 6.201 2.699 6.201 6.013v.047c0 3.314-2.604 6.06-6.249 6.06-3.598 0-6.202-2.699-6.202-6.013zm9.753 0c0-2.035-1.468-3.693-3.55-3.693-2.084 0-3.504 1.658-3.504 3.646v.047c0 1.989 1.467 3.693 3.55 3.693 2.084-.047 3.504-1.657 3.504-3.693z" fill="#fff"/><defs><linearGradient id="paint0_linear" x1="47.266" y1="27.342" x2="28.518" y2="43.206" gradientUnits="userSpaceOnUse"><stop offset="0" stop-color="#087CFA"/><stop offset=".023" stop-color="#0D7BFA"/><stop offset=".373" stop-color="#5566F9"/><stop offset=".663" stop-color="#8A57F8"/><stop offset=".881" stop-color="#AB4EF7"/><stop offset="1" stop-color="#B74AF7"/></linearGradient><linearGradient id="paint1_linear" x1="16.518" y1="14.879" x2="27.913" y2="1.916" gradientUnits="userSpaceOnUse"><stop offset="0" stop-color="#087CFA"/><stop offset=".023" stop-color="#0D7BFA"/><stop offset=".373" stop-color="#5566F9"/><stop offset=".663" stop-color="#8A57F8"/><stop offset=".881" stop-color="#AB4EF7"/><stop offset="1" stop-color="#B74AF7"/></linearGradient><linearGradient id="paint2_linear" x1="6.668" y1="41.932" x2="41.293" y2="19.682" gradientUnits="userSpaceOnUse"><stop offset="0" stop-color="#087CFA"/><stop offset=".102" stop-color="#1598D3"/><stop offset=".225" stop-color="#23B6AA"/><stop offset=".345" stop-color="#2DCC8B"/><stop offset=".462" stop-color="#35DD74"/><stop offset=".572" stop-color="#39E767"/><stop offset=".67" stop-color="#3BEA62"/></linearGradient><linearGradient id="paint3_linear" x1="23.999" y1="1.707" x2="23.999" y2="28.611" gradientUnits="userSpaceOnUse"><stop offset=".084" stop-color="#878585"/><stop offset=".538"/></linearGradient></defs></svg>