<svg xmlns="http://www.w3.org/2000/svg" width="16" height="16" viewBox="0 0 16 16"><rect id="frame" width="16" height="16" fill="none"/><g fill="none" fill-rule="evenodd"><path fill="#40B6E0" fill-opacity=".6" d="M15 8A7 7 0 1 1 1 8a7 7 0 0 1 14 0"/><path fill="#231F20" fill-opacity=".7" d="M9.932 6.264l1.218-.703A3.98 3.98 0 0 0 8 4c-1.271 0-2.39.605-3.124 1.53 0 0 2.507-2.442 5.056.734M8.54 10.55v1.396C10.491 11.68 12 10.025 12 8c0-.563-.119-1.098-.33-1.585 0 0 1.242 2.765-3.13 4.135M5.567 7.083L4.348 6.38A3.982 3.982 0 0 0 4 8c0 2.052 1.55 3.723 3.54 3.954 0 0-3.393-.631-1.973-4.871"/></g></svg>