<svg xmlns="http://www.w3.org/2000/svg" width="16" height="16" viewBox="0 0 16 16"><rect id="frame" width="16" height="16" fill="none"/><g fill="none" fill-rule="evenodd"><path fill="#9AA7B0" fill-opacity=".6" d="M15 8A7 7 0 1 1 1 8a7 7 0 0 1 14 0"/><path fill="#231F20" fill-opacity=".7" d="M8.104 11c-1.815 0-3.008-1.293-3.008-2.983V8c0-1.624 1.243-3 2.991-3 1.011 0 1.633.282 2.23.787l-.647.771c-.447-.373-.887-.613-1.624-.613-1.07 0-1.881.928-1.881 2.038V8c0 1.193.787 2.072 1.972 2.072.547 0 1.044-.174 1.4-.44V8.556H8.055V7.66h2.47v2.437a3.699 3.699 0 0 1-2.42.903z"/></g></svg>