<svg xmlns="http://www.w3.org/2000/svg" width="16" height="16" viewBox="0 0 16 16"><rect id="frame" width="16" height="16" fill="none"/><g fill="none" fill-rule="evenodd"><path fill="#9AA7B0" fill-opacity=".6" d="M15 8A7 7 0 1 1 1 8a7 7 0 0 1 14 0"/><g fill="#231F20" fill-opacity=".7"><path d="M5 7h3V6H5z"/><path d="M5 9.999h3V9H5z"/><path d="M3.081 8c0 1.104.814 2 1.92 2V9a1.001 1.001 0 0 1 0-2V6c-1.106 0-1.92.896-1.92 2"/><path d="M8 9v4l5-4.952L8 3v4h1V5.243l2.743 2.795L9 10.771V9z"/></g></g></svg>