<svg xmlns="http://www.w3.org/2000/svg" width="16" height="16" viewBox="0 0 16 16"><rect id="frame" width="16" height="16" fill="none"/><g fill="none" fill-rule="evenodd"><path fill="#9AA7B0" fill-opacity=".6" d="M12.5 8a4.5 4.5 0 1 1-9 0 4.5 4.5 0 0 1 9 0"/><path fill="#231F20" fill-opacity=".7" d="M5.5 10.998V5h1l3 4.3V5.002h1v5.996L9.5 11l-3-4.2v4.198z"/><path fill="#9AA7B0" fill-opacity=".8" d="M8 13.465a5.465 5.465 0 1 1 0-10.93 5.465 5.465 0 0 1 0 10.93M8 1a7 7 0 1 0 0 14A7 7 0 0 0 8 1"/></g></svg>