<svg ti:v="1" width="16" height="16" viewBox="0 0 16 16" xmlns="http://www.w3.org/2000/svg" xmlns:ti="urn:schemas-jetbrains-com:tisvg"><rect id="frame" width="16" height="16" fill="none"/><linearGradient id="a" x1=".5" y1=".021" x2=".5" y2="1.01"><stop offset="0" stop-color="#7C6D47"/><stop offset="1" stop-color="#60492F"/></linearGradient><path fill-rule="evenodd" d="M1.586 0L0 1.586v4.828L9.586 16h.828L16 10.414v-.828L6.414 0H1.586z" fill="url(#a)"/><linearGradient id="b" x1=".5" y1=".012" x2=".5" y2="1"><stop offset="0" stop-color="#E3D8BC"/><stop offset="1" stop-color="#E3CDB3"/></linearGradient><path fill-rule="evenodd" d="M2 1L1 2v4l9 9 5-5-9-9H2z" fill="url(#b)"/><linearGradient id="c" x1=".5" y1=".008" x2=".5" y2="1.008"><stop offset="0" stop-color="#60492F"/><stop offset="1" stop-color="#7C6D47"/></linearGradient><path fill-rule="evenodd" d="M2 3.5a1.5 1.5 0 1 0 3 0 1.5 1.5 0 0 0-3 0z" fill="url(#c)"/><linearGradient id="d" x1=".5" y1="-.019" x2=".5" y2=".998"><stop offset="0" stop-color="#FFF3D4"/><stop offset="1" stop-color="#FFF"/></linearGradient><path fill-rule="evenodd" d="M4 7l6 6 3-3-6-6-3 3z" fill="url(#d)"/></svg>