<svg ti:v="1" width="16" height="16" viewBox="0 0 16 16" xmlns="http://www.w3.org/2000/svg" xmlns:ti="urn:schemas-jetbrains-com:tisvg"><rect id="frame" width="16" height="16" fill="none"/><g fill-rule="evenodd"><path d="M15 2.387V1H12.66L8.144 4.698 6.18 1.868c-.408-.477-1.04-.752-1.735-.752-.682 0-1.335.274-1.764.704-.77.77-1.004 2.467 0 3.473L4.995 7.68.66 11.705c-1 .977-.753 2.986.003 3.47.53.339 1.07.711 1.735.711.667 0 1.28-.253 1.755-.747L8.1 10.645 14.14 16H16v-1.354l-5.28-6.913L15 2.387z" fill="#242424"/><path d="M9.454 7.72L14.029 2h-1.01L7.943 6.159 5.42 2.516c-.485-.57-1.543-.494-2.017 0-.492.508-.59 1.466 0 2.082L6.429 7.72l-5.042 4.683c-.454.454-.505 1.561 0 2.082.504.52 1.474.562 2.017 0l4.612-5.254 6.48 5.774H15L9.454 7.72z" fill="#F28365"/></g></svg>