<svg ti:v="1" width="16" height="16" viewBox="0 0 16 16" xmlns="http://www.w3.org/2000/svg" xmlns:ti="urn:schemas-jetbrains-com:tisvg"><rect id="frame" width="16" height="16" fill="none"/><linearGradient id="a" x1="0" y1=".5" x2="1" y2=".5"><stop offset="0" stop-color="#995100"/><stop offset="1" stop-color="#460000"/></linearGradient><path fill-rule="evenodd" d="M9.5 1.408A1.457 1.457 0 0 0 8.5 1c-.354 0-.719.139-1 .408A1.458 1.458 0 0 0 6.5 1C5.773 1 5 1.587 5 2.675v.417a1.425 1.425 0 0 0-.5-.091c-.727 0-1.5.587-1.5 1.675V9c0 2.203 1.977 6 4 6h3c1.943 0 4-4.552 4-7V4.614h-1c-.412 0-.74.09-1 .239V2.675C12 1.587 11.227 1 10.5 1c-.354 0-.718.139-1 .408z" fill="url(#a)"/><linearGradient id="b" x1=".5" y1=".012" x2=".5" y2="1.012"><stop offset="0" stop-color="#FFD500"/><stop offset="1" stop-color="#FF2E00"/></linearGradient><path fill-rule="evenodd" d="M10 2.675V7c0 .842-1 .842-1 0V2.675c0-.899-1-.899-1 0V7c0 1-1 .992-1 0V2.675c0-.899-1-.899-1 0v4.572c0 1.008-1 1-1 0V4.676c0-.9-1-.9-1 0V9c0 2 1.8 5 3 5h3c1 0 3-3.6 3-6V5.614c-.806 0-1 .603-1 1.802C12 8 10 9 10 10H9c0-2 2-2 2-3V2.675c0-.45-.25-.675-.5-.675s-.5.225-.5.675z" fill="url(#b)"/></svg>