<svg ti:v="1" width="16" height="16" viewBox="0 0 16 16" xmlns="http://www.w3.org/2000/svg" xmlns:ti="urn:schemas-jetbrains-com:tisvg"><rect id="frame" width="16" height="16" fill="none"/><g fill-rule="evenodd"><path d="M7 6V5a1 1 0 0 1 2 0v1h4V5c0-2.757-2.243-5-5-5S3 2.243 3 5v1h4z" fill="#242424"/><path d="M14 15H2V6h12v9z" fill="#242424"/><path d="M3 14h10V7H3v7z" fill="#C4C4C4"/><path d="M7 9h2v3H7V9z" fill="#282828"/><path d="M8 1a4 4 0 0 0-4 4v1h2V5a2 2 0 0 1 4 0v1h2V5a4 4 0 0 0-4-4z" fill="#C4C4C4"/></g></svg>