<svg ti:v="1" width="16" height="16" viewBox="0 0 16 16" xmlns="http://www.w3.org/2000/svg" xmlns:ti="urn:schemas-jetbrains-com:tisvg"><rect id="frame" width="16" height="16" fill="none"/><g fill-rule="evenodd"><path d="M2 15V1h7.414L14 5.586V15H2z" fill="#242424"/><path d="M9 2H3v12h10V6L9 2z" fill="#C4C4C4"/><path d="M9 6V4H5v8h6V6H9z" fill="#282828"/><path d="M5 1V0H2v1H0v7h2v1h3V8h2V1H5z" fill="#242424"/><path d="M6 6H5v1h1M2 6H1v1h1m4-5H5v1h1M2 2H1v1h1m4 1v1H5v1H4v2H3V6H2V5H1V4h1V3h1V1h1v2h1v1h1z" fill="#E9A34C"/><path d="M3 5h1V4H3v1z" fill="#282828"/></g></svg>