<svg ti:v="1" width="16" height="16" viewBox="0 0 16 16" xmlns="http://www.w3.org/2000/svg" xmlns:ti="urn:schemas-jetbrains-com:tisvg"><rect id="frame" width="16" height="16" fill="none"/><g fill-rule="evenodd"><path d="M7 4.5a4.5 4.5 0 1 1 9 0 4.5 4.5 0 0 1-9 0z" fill="#F4F4F4"/><path d="M11.5 1a3.5 3.5 0 1 0 0 7 3.5 3.5 0 0 0 0-7z" fill="#00529C"/><path d="M12 6h-1v1h1m0-1.5h-1V5c0-.551.449-1 1-1V3a1.088 1.088 0 0 0-.5-.102c-.248 0-.42.058-.5.102v1h-1V3c0-.58.631-1 1.5-1s1.5.42 1.5 1v1c0 .551-.449 1-1 1v.5z" fill="#EBEBEB"/></g></svg>