<svg ti:v="1" width="16" height="16" viewBox="0 0 16 16" xmlns="http://www.w3.org/2000/svg" xmlns:ti="urn:schemas-jetbrains-com:tisvg"><rect id="frame" width="16" height="16" fill="none"/><linearGradient id="a" x1=".5" y1="0" x2=".5" y2="1"><stop offset="0" stop-color="#7B899E"/><stop offset="1" stop-color="#43556F"/></linearGradient><path fill-rule="evenodd" d="M7 4.5A4.5 4.5 0 0 0 11.5 9a4.5 4.5 0 1 0 0-9A4.5 4.5 0 0 0 7 4.5z" fill="url(#a)"/><linearGradient id="b" x1=".5" y1="0" x2=".5" y2="1"><stop offset="0" stop-color="#FFF"/><stop offset="1" stop-color="#DBEAFF"/></linearGradient><path fill-rule="evenodd" d="M8 4.5a3.5 3.5 0 0 0 7 0 3.5 3.5 0 1 0-7 0z" fill="url(#b)"/><path fill-rule="evenodd" d="M12 6h-1v1h1m0-1.5h-1V5c0-.551.449-1 1-1V3a1.088 1.088 0 0 0-.5-.102c-.248 0-.42.058-.5.102v1h-1V3c0-.58.631-1 1.5-1s1.5.42 1.5 1v1c0 .551-.449 1-1 1v.5z" fill="#435570"/></svg>