<svg ti:v="1" width="16" height="16" viewBox="0 0 16 16" xmlns="http://www.w3.org/2000/svg" xmlns:ti="urn:schemas-jetbrains-com:tisvg"><rect id="frame" width="16" height="16" fill="none"/><linearGradient id="a" x1=".5" y1=".005" x2=".5" y2="1.005"><stop offset="0" stop-color="#006F33"/><stop offset="1" stop-color="#37AD0D"/></linearGradient><path fill-rule="evenodd" d="M8 2v3.586l-3-3-4 4V9h2.084A6.009 6.009 0 0 0 9 14c3.309 0 6-2.691 6-6s-2.691-6-6-6M7.269 9H9V6.586L8.415 6H9c1.103 0 2 .896 2 2s-.897 2-2 2a1.998 1.998 0 0 1-1.731-1z" fill="url(#a)"/><linearGradient id="b" x1=".5" y1=".017" x2=".5" y2="1.011"><stop offset="0" stop-color="#E1FFD6"/><stop offset="1" stop-color="#62F2A5"/></linearGradient><path fill-rule="evenodd" d="M9 5a3.001 3.001 0 0 1 0 6c-1.656 0-3-1.344-3-3h2V7L5 4 2 7v1h2a5 5 0 1 0 10 0 5 5 0 0 0-5-5v2z" fill="url(#b)"/></svg>