<svg xmlns="http://www.w3.org/2000/svg" width="16" height="16" viewBox="0 0 16 16"><rect id="frame" width="16" height="16" fill="none"/><path fill="#499C54" d="M0 16l6-4.5L0 7z"/><path fill="#C75450" d="M13 6.416C13 7 11 8 11 9h-1c0-2 2-2 2-3V1.675c0-.9-1-.9-1 0V6c0 .842-1 .842-1 0V1.675c0-.9-1-.9-1 0V6c0 1-1 .992-1 0V1.675c0-.9-1-.9-1 0v4.572c0 1.008-1 1-1 0V3.676c0-.901-1-.901-1 0V8c0 .541.135 1.154.351 1.763L7 11v1l-.265.199c.431.488.879.801 1.265.801h3c1 0 3-3.6 3-6V4.614c-.806 0-1 .603-1 1.802"/></svg>