<svg ti:v="1" width="16" height="16" viewBox="0 0 16 16" xmlns="http://www.w3.org/2000/svg" xmlns:ti="urn:schemas-jetbrains-com:tisvg"><rect id="frame" width="16" height="16" fill="none"/><linearGradient id="a" x1=".5" y1=".013" x2=".5" y2="1"><stop offset="0" stop-color="#5672A1"/><stop offset="1" stop-color="#415980"/></linearGradient><path fill-rule="evenodd" d="M11.586 4L10 5.586V0H6v5.586L4.414 4H3v3.414L7.586 12h.828L13 7.414V4h-1.414z" fill="url(#a)"/><linearGradient id="b" x1=".5" y1=".041" x2=".5" y2="1.017"><stop offset="0" stop-color="#8CD4FF"/><stop offset=".994" stop-color="#21A1FF"/><stop offset="1" stop-color="#21A1FF"/></linearGradient><path fill-rule="evenodd" d="M12 7l-4 4-4-4V5l3 3V1h2v7l3-3v2z" fill="url(#b)"/><linearGradient id="c" x1=".5" y1=".013" x2=".5" y2="1"><stop offset="0" stop-color="#994900"/><stop offset="1" stop-color="#5B1F00"/></linearGradient><path fill-rule="evenodd" d="M14 15H2v-4h12v4z" fill="url(#c)"/><path fill-rule="evenodd" d="M13 14H3v-2h10v2z" fill="#FFB200"/></svg>