<svg ti:v="1" width="16" height="16" viewBox="0 0 16 16" xmlns="http://www.w3.org/2000/svg" xmlns:ti="urn:schemas-jetbrains-com:tisvg"><rect id="frame" width="16" height="16" fill="none"/><linearGradient id="a" x1=".5" y1="0" x2=".5" y2=".994"><stop offset="0" stop-color="#977C19"/><stop offset="1" stop-color="#6B4F0E"/></linearGradient><path fill-rule="evenodd" d="M1 8a7 7 0 0 0 14 0c0-3.865-3.135-7-7-7S1 4.135 1 8z" fill="url(#a)"/><linearGradient id="b" x1=".5" y1=".007" x2=".5" y2="1"><stop offset="0" stop-color="#FDF682"/><stop offset="1" stop-color="#F0D300"/></linearGradient><path fill-rule="evenodd" d="M2 8a6 6 0 1 0 12 0c0-3.315-2.686-6-6-6S2 4.685 2 8z" fill="url(#b)"/><path fill-rule="evenodd" d="M9 5v1h1L8 8 6 6h1V5H4v3h1V7l2 2v3h2V9l2-2v1h1V5H9z" fill="#6B5900"/></svg>