<svg ti:v="1" width="16" height="16" viewBox="0 0 16 16" xmlns="http://www.w3.org/2000/svg" xmlns:ti="urn:schemas-jetbrains-com:tisvg"><rect id="frame" width="16" height="16" fill="none"/><g fill-rule="evenodd"><path d="M15 8A7 7 0 1 1 1 8a7 7 0 0 1 14 0z" fill="#F4F4F4"/><path d="M14 8A6 6 0 0 1 2 8a6 6 0 0 1 12 0z" fill="#1AA1E2"/><path d="M10.775 5.436a1.948 1.948 0 0 0-.483-.689 2.74 2.74 0 0 0-.89-.532C9.033 4.072 8.573 4 8.022 4c-.427 0-.812.069-1.158.204-.345.135-.64.325-.884.566a2.547 2.547 0 0 0-.57.858c-.136.33-.208.694-.216 1.089h1.711c0-.199.023-.384.07-.556.046-.171.117-.322.215-.45.097-.129.221-.231.373-.308.15-.077.331-.115.54-.115.311 0 .552.081.727.242.174.161.262.41.262.748a.874.874 0 0 1-.11.495 1.486 1.486 0 0 1-.32.362 6.564 6.564 0 0 1-.43.33 2.922 2.922 0 0 0-.443.391c-.14.149-.26.332-.366.545A2.005 2.005 0 0 0 7.261 9h1.612a1.01 1.01 0 0 1 .156-.281 2.33 2.33 0 0 1 .414-.391c.154-.114.32-.226.494-.34a2.149 2.149 0 0 0 .838-.996c.096-.227.145-.517.145-.868 0-.213-.049-.442-.145-.688zM8.866 12h-1.76v-1.727h1.76" fill="#FFF"/></g></svg>