<svg ti:v="1" width="16" height="16" viewBox="0 0 16 16" xmlns="http://www.w3.org/2000/svg" xmlns:ti="urn:schemas-jetbrains-com:tisvg"><rect id="frame" width="16" height="16" fill="none"/><path fill-rule="evenodd" d="M15 3.408L4.408 14h-.191L2 11.783v-.203L12.58 1h.191L15 3.228v.18z" fill="#820000"/><linearGradient id="a" x1=".5" y1=".013" x2=".5" y2="1.001"><stop offset="0" stop-color="#474C72"/><stop offset="1" stop-color="#7077B3"/></linearGradient><path fill-rule="evenodd" d="M1.231 6.861L1 7.139v.722l.231.278C1.362 8.297 4.487 12 8.5 12s7.138-3.703 7.269-3.861L16 7.861v-.722l-.231-.278C15.638 6.703 12.513 3 8.5 3S1.362 6.703 1.231 6.861z" fill="url(#a)"/><linearGradient id="b" x1=".5" y1=".006" x2=".5" y2="1.008"><stop offset="0" stop-color="#FFF"/><stop offset="1" stop-color="#E0DDD0"/></linearGradient><path fill-rule="evenodd" d="M2 7.5S4.91 11 8.5 11 15 7.5 15 7.5 12.09 4 8.5 4 2 7.5 2 7.5z" fill="url(#b)"/><path fill-rule="evenodd" d="M11 7.5a2.5 2.5 0 1 0-5 0 2.5 2.5 0 0 0 5 0z" fill="#005BB3"/><path fill-rule="evenodd" d="M4.313 12.682l-1-1 9.362-9.363 1 1-9.363 9.363z" fill="red"/></svg>