<svg ti:v="1" width="16" height="16" viewBox="0 0 16 16" xmlns="http://www.w3.org/2000/svg" xmlns:ti="urn:schemas-jetbrains-com:tisvg"><rect id="frame" width="16" height="16" fill="none"/><linearGradient id="a" x1=".5" y1="0" x2=".5" y2=".994"><stop offset="0" stop-color="#4373C9"/><stop offset="1" stop-color="#003E6C"/></linearGradient><path fill-rule="evenodd" d="M1 8a7 7 0 1 0 14 0A7 7 0 1 0 1 8z" fill="url(#a)"/><linearGradient id="b" x1=".5" y1=".007" x2=".5" y2="1"><stop offset="0" stop-color="#F1F4FB"/><stop offset="1" stop-color="#64A4FF"/></linearGradient><path fill-rule="evenodd" d="M2 8a6 6 0 0 0 12 0A6 6 0 0 0 2 8z" fill="url(#b)"/><path fill-rule="evenodd" d="M10.775 5.436a1.948 1.948 0 0 0-.483-.689 2.74 2.74 0 0 0-.89-.532C9.033 4.072 8.573 4 8.022 4c-.427 0-.812.069-1.158.204-.345.135-.64.325-.884.566a2.547 2.547 0 0 0-.57.858c-.136.33-.208.694-.216 1.089h1.711c0-.199.023-.384.07-.556.046-.171.117-.322.215-.45.097-.129.221-.231.373-.308.15-.077.331-.115.54-.115.311 0 .552.081.727.242.174.161.262.41.262.748a.874.874 0 0 1-.11.495 1.486 1.486 0 0 1-.32.362 6.564 6.564 0 0 1-.43.33 2.922 2.922 0 0 0-.443.391c-.14.149-.26.332-.366.545A2.005 2.005 0 0 0 7.261 9h1.612a1.01 1.01 0 0 1 .156-.281 2.33 2.33 0 0 1 .414-.391c.154-.114.32-.226.494-.34a2.149 2.149 0 0 0 .838-.996c.096-.227.145-.517.145-.868 0-.213-.049-.442-.145-.688zM8.866 12h-1.76v-1.727h1.76" fill="#003987"/></svg>