<svg ti:v="1" width="16" height="16" viewBox="0 0 16 16" xmlns="http://www.w3.org/2000/svg" xmlns:ti="urn:schemas-jetbrains-com:tisvg"><rect id="frame" width="16" height="16" fill="none"/><linearGradient id="a" x1=".5" y1=".002" x2=".5" y2=".998"><stop offset="0" stop-color="#2FA223"/><stop offset="1" stop-color="#0A6600"/></linearGradient><path d="M2 8a6.002 6.002 0 0 0 6 6V2a6.002 6.002 0 0 0-6 6zm0 0" fill="url(#a)"/><linearGradient id="b" x1=".5" y1="-.002" x2=".5" y2=".998"><stop offset="0" stop-color="#9B6500"/><stop offset="1" stop-color="#634700"/></linearGradient><path d="M14 8a6.002 6.002 0 0 0-6-6v12a6.002 6.002 0 0 0 6-6zm0 0" fill="url(#b)"/><linearGradient id="c" x1=".5" y1=".025" x2=".5" y2="1"><stop offset="0" stop-color="#DFFFDF"/><stop offset="1" stop-color="#12B712"/></linearGradient><path d="M3 8a5.002 5.002 0 0 0 5 5V3a5.002 5.002 0 0 0-5 5zm0 0" fill="url(#c)"/><linearGradient id="d" x1=".5" y1=".025" x2=".5" y2="1"><stop offset="0" stop-color="#FFF2D8"/><stop offset="1" stop-color="#A26222"/></linearGradient><path d="M13 8a5.002 5.002 0 0 0-5-5v10a5.002 5.002 0 0 0 5-5zm0 0" fill="url(#d)"/><linearGradient id="e" x1=".5" y1="0" x2=".5" y2="1.016"><stop offset="0" stop-color="#4AFF36"/><stop offset="1" stop-color="#36B927"/></linearGradient><path d="M4 8a4.001 4.001 0 0 0 4 4V4a4.001 4.001 0 0 0-4 4zm0 0" fill="url(#e)"/><linearGradient id="f" x1=".5" y1=".031" x2=".5" y2="1.031"><stop offset="0" stop-color="#FFB600"/><stop offset="1" stop-color="#A76500"/></linearGradient><path d="M12 8a4.001 4.001 0 0 0-4-4v8a4.001 4.001 0 0 0 4-4zm0 0" fill="url(#f)"/><path d="M14.259 3L0 10.371v.872L.908 13h.799L16 5.611v-.854L15.092 3h-.833z" fill="#810000"/><path d="M.992 10.984l13.495-6.976.513.993-13.494 6.977z" fill="#FF7B57"/></svg>