<svg xmlns="http://www.w3.org/2000/svg" width="16" height="16" viewBox="0 0 16 16"><rect id="frame" width="16" height="16" fill="none"/><g fill="none" fill-rule="evenodd"><path fill="#AFB1B3" d="M5.379 7.621A2.965 2.965 0 0 0 9 8.084v1.655A4.776 4.776 0 0 1 7.5 10c-1.21 0-2.338-.515-3.308-1.192zm5.428-5.428C12.717 3.526 14 5.5 14 5.5s-.789 1.213-2.046 2.379l-.167.152-1.214-.85a.983.983 0 0 0-.496-.17 2.96 2.96 0 0 0-.325-3.492l-.13-.14 1.185-1.186zM7.5 1c.543 0 1.07.107 1.574.283l.25.094-1.192 1.192a3 3 0 0 0-3.6 3.357l.037.206-1.64 1.64A14.086 14.086 0 0 1 1 5.5S3.91 1 7.5 1zm1.06 3.44a1.5 1.5 0 0 1-2.015 2.218L6.44 6.56 8.56 4.439z"/><path fill="#C75450" d="M13 .885L12.115 0 2 10.115l.885.885z"/><path fill="#499C54" d="M10 15l5-3.5L10 8z"/></g></svg>