<svg ti:v="1" width="16" height="16" viewBox="0 0 16 16" xmlns="http://www.w3.org/2000/svg" xmlns:ti="urn:schemas-jetbrains-com:tisvg"><rect id="frame" width="16" height="16" fill="none"/><linearGradient id="a" x1=".5" y1=".002" x2=".5" y2=".998"><stop offset="0" stop-color="#00A400"/><stop offset="1" stop-color="#060"/></linearGradient><path fill-rule="evenodd" d="M5 5a4 4 0 0 0 4 4V1a4 4 0 0 0-4 4z" fill="url(#a)"/><linearGradient id="b" x1=".5" y1="-.002" x2=".5" y2=".998"><stop offset="0" stop-color="#AD6500"/><stop offset="1" stop-color="#6C4500"/></linearGradient><path fill-rule="evenodd" d="M9 9a4 4 0 0 0 0-8v8z" fill="url(#b)"/><linearGradient id="c" x1=".5" y1=".025" x2=".5" y2="1"><stop offset="0" stop-color="#D3FFDF"/><stop offset="1" stop-color="#00B900"/></linearGradient><path fill-rule="evenodd" d="M6 5c0 1.656 1.344 3 3 3V2C7.344 2 6 3.344 6 5z" fill="url(#c)"/><linearGradient id="d" x1=".5" y1=".025" x2=".5" y2="1"><stop offset="0" stop-color="#FFF3D8"/><stop offset="1" stop-color="#B76114"/></linearGradient><path fill-rule="evenodd" d="M9 8a3.001 3.001 0 0 0 0-6v6z" fill="url(#d)"/><linearGradient id="e" x1=".5" y1="0" x2=".5" y2="1.016"><stop offset="0" stop-color="#0F0"/><stop offset="1" stop-color="#0B0"/></linearGradient><path fill-rule="evenodd" d="M7 5a2 2 0 0 0 2 2V3a2 2 0 0 0-2 2z" fill="url(#e)"/><linearGradient id="f" x1=".5" y1=".031" x2=".5" y2="1.031"><stop offset="0" stop-color="#FFB800"/><stop offset="1" stop-color="#BC6500"/></linearGradient><path fill-rule="evenodd" d="M9 7a2 2 0 0 0 0-4v4z" fill="url(#f)"/><linearGradient id="g" x1=".5" y1=".002" x2=".5" y2=".998"><stop offset="0" stop-color="#00A400"/><stop offset="1" stop-color="#060"/></linearGradient><path fill-rule="evenodd" d="M1 8a4 4 0 0 0 4 4V4a4 4 0 0 0-4 4z" fill="url(#g)"/><linearGradient id="h" x1=".5" y1="-.002" x2=".5" y2=".998"><stop offset="0" stop-color="#AD6500"/><stop offset="1" stop-color="#6C4500"/></linearGradient><path fill-rule="evenodd" d="M5 12a4 4 0 0 0 0-8v8z" fill="url(#h)"/><linearGradient id="i" x1=".5" y1=".025" x2=".5" y2="1"><stop offset="0" stop-color="#D3FFDF"/><stop offset="1" stop-color="#00B900"/></linearGradient><path fill-rule="evenodd" d="M2 8c0 1.656 1.344 3 3 3V5C3.344 5 2 6.344 2 8z" fill="url(#i)"/><linearGradient id="j" x1=".5" y1=".025" x2=".5" y2="1"><stop offset="0" stop-color="#FFF3D8"/><stop offset="1" stop-color="#B76114"/></linearGradient><path fill-rule="evenodd" d="M5 11a3 3 0 0 0 0-6v6z" fill="url(#j)"/><linearGradient id="k" x1=".5" y1="0" x2=".5" y2="1.016"><stop offset="0" stop-color="#0F0"/><stop offset="1" stop-color="#0B0"/></linearGradient><path fill-rule="evenodd" d="M3 8a2 2 0 0 0 2 2V6a2 2 0 0 0-2 2z" fill="url(#k)"/><linearGradient id="l" x1=".5" y1=".031" x2=".5" y2="1.031"><stop offset="0" stop-color="#FFB800"/><stop offset="1" stop-color="#BC6500"/></linearGradient><path fill-rule="evenodd" d="M5 10a2 2 0 0 0 0-4v4z" fill="url(#l)"/><linearGradient id="m" x1=".5" y1="0" x2=".5" y2="1"><stop offset="0" stop-color="#AD5100"/><stop offset="1" stop-color="#510000"/></linearGradient><path fill-rule="evenodd" d="M11.5 5.407a1.466 1.466 0 0 0-1-.407c-.354 0-.719.14-1 .408a1.462 1.462 0 0 0-1-.407c-.727 0-1.5.587-1.5 1.675V12c0 1.573 1.288 4 3 4h2c1.71 0 4-2.775 4-5.614V7h-1c-.412 0-.74.09-1 .239v-.565C14 5.587 13.227 5 12.5 5c-.354 0-.719.14-1 .407z" fill="url(#m)"/><linearGradient id="n" x1=".5" y1=".012" x2=".5" y2="1.012"><stop offset="0" stop-color="#FFD600"/><stop offset="1" stop-color="#FF2B00"/></linearGradient><path fill-rule="evenodd" d="M12 6.674V10c0 .841-1 .841-1 0V6.674c0-.899-1-.899-1 0V10c0 .984-1 .8-1 0V6.676c0-.901-1-.901-1 0V12c0 1.154 1.025 3 2 3h2c1 0 3-1.714 3-4.115V8.5c-.807 0-1 .603-1 1.801 0 .584 0 1.199-1 1.199V6.674c0-.449-.25-.674-.5-.674s-.5.225-.5.674z" fill="url(#n)"/></svg>