<svg xmlns="http://www.w3.org/2000/svg" width="16" height="16" viewBox="0 0 16 16"><rect id="frame" width="16" height="16" fill="none"/><g fill="none" fill-rule="evenodd"><path fill="#C75450" d="M8 1.675c0-.9 1-.9 1 0V6c0 1-2 1-2 3h1c0-.605.731-1.209 1.31-1.723A1 1 0 0 0 9 8v4.265c-.367.451-.723.735-1 .735H5c-1.2 0-3-3-3-5V3.676c0-.901 1-.901 1 0v2.571c0 1 1 1.008 1 0V1.675c0-.9 1-.9 1 0V6c0 .992 1 1 1 0V1.675c0-.9 1-.9 1 0V6c0 .842 1 .842 1 0zm3 2.94V7c0 .15-.008.304-.023.464l-.404-.284a.997.997 0 0 0-1.25.085c.371-.33.677-.622.677-.849 0-1.199.194-1.802 1-1.802z"/><path fill="#499C54" d="M10 15l5-3.5L10 8z"/></g></svg>