<svg ti:v="1" width="16" height="16" viewBox="0 0 16 16" xmlns="http://www.w3.org/2000/svg" xmlns:ti="urn:schemas-jetbrains-com:tisvg"><rect id="frame" width="16" height="16" fill="none"/><linearGradient id="a" x1=".5" y1=".002" x2=".5" y2=".998"><stop offset="0" stop-color="#00A400"/><stop offset="1" stop-color="#060"/></linearGradient><path fill-rule="evenodd" d="M1 6a5 5 0 0 0 5 5V1a5 5 0 0 0-5 5z" fill="url(#a)"/><linearGradient id="b" x1=".5" y1="-.002" x2=".5" y2=".998"><stop offset="0" stop-color="#AD6500"/><stop offset="1" stop-color="#6C4500"/></linearGradient><path fill-rule="evenodd" d="M6 11A5 5 0 1 0 6 1v10z" fill="url(#b)"/><linearGradient id="c" x1=".5" y1=".025" x2=".5" y2="1"><stop offset="0" stop-color="#D3FFDF"/><stop offset="1" stop-color="#00B900"/></linearGradient><path fill-rule="evenodd" d="M2 6a4 4 0 0 0 4 4V2a4 4 0 0 0-4 4z" fill="url(#c)"/><linearGradient id="d" x1=".5" y1=".025" x2=".5" y2="1"><stop offset="0" stop-color="#FFF3D8"/><stop offset="1" stop-color="#B76114"/></linearGradient><path fill-rule="evenodd" d="M6 10a4 4 0 0 0 0-8v8z" fill="url(#d)"/><linearGradient id="e" x1=".5" y1="0" x2=".5" y2="1.016"><stop offset="0" stop-color="#0F0"/><stop offset="1" stop-color="#0B0"/></linearGradient><path fill-rule="evenodd" d="M3 6a3 3 0 0 0 3 3V3C4.344 3 3 4.344 3 6z" fill="url(#e)"/><linearGradient id="f" x1=".5" y1=".031" x2=".5" y2="1.031"><stop offset="0" stop-color="#FFB800"/><stop offset="1" stop-color="#BC6500"/></linearGradient><path fill-rule="evenodd" d="M6 9a3.001 3.001 0 0 0 0-6v6z" fill="url(#f)"/><linearGradient id="g" x1=".5" y1="0" x2=".5" y2="1.006"><stop offset="0" stop-color="#00702B"/><stop offset="1" stop-color="#008B00"/></linearGradient><path fill-rule="evenodd" d="M7 11.5a4.5 4.5 0 1 0 9 0 4.5 4.5 0 1 0-9 0z" fill="url(#g)"/><linearGradient id="h" x1=".5" y1=".007" x2=".5" y2="1.007"><stop offset="0" stop-color="#D4FFD5"/><stop offset="1" stop-color="#00F2A2"/></linearGradient><path fill-rule="evenodd" d="M8 11.5a3.5 3.5 0 1 0 7 0 3.5 3.5 0 1 0-7 0z" fill="url(#h)"/><linearGradient id="i" x1=".5" y1="0" x2=".5" y2="1.006"><stop offset="0" stop-color="#00702B"/><stop offset="1" stop-color="#008B00"/></linearGradient><path fill-rule="evenodd" d="M10.5 12.293l-1.146-1.146-.708.706 1.854 1.854 3.994-3.994a3.508 3.508 0 0 0-.633-.781L10.5 12.293z" fill="url(#i)"/></svg>