<svg ti:v="1" width="16" height="16" viewBox="0 0 16 16" xmlns="http://www.w3.org/2000/svg" xmlns:ti="urn:schemas-jetbrains-com:tisvg"><rect id="frame" width="16" height="16" fill="none"/><g fill-rule="evenodd"><path d="M5 5a4 4 0 0 0 4 4V1a4 4 0 0 0-4 4z" fill="#F4F4F4"/><path d="M13 5a4 4 0 0 0-4-4v8a4 4 0 0 0 4-4z" fill="#F4F4F4"/><path d="M6 5c0 1.656 1.344 3 3 3V2C7.344 2 6 3.344 6 5z" fill="#2D2D2D"/><path d="M12 5c0-1.656-1.344-3-3-3v6c1.656 0 3-1.344 3-3z" fill="#2D2D2D"/><path d="M7 5a2 2 0 0 0 2 2V3a2 2 0 0 0-2 2z" fill="#2D2D2D"/><path d="M11 5a2 2 0 0 0-2-2v4a2 2 0 0 0 2-2z" fill="#ECECEC"/><path d="M1 8a4 4 0 0 0 4 4V4a4 4 0 0 0-4 4z" fill="#F4F4F4"/><path d="M9 8a4 4 0 0 0-4-4v8a4 4 0 0 0 4-4z" fill="#F4F4F4"/><path d="M2 8c0 1.656 1.344 3 3 3V5C3.344 5 2 6.344 2 8z" fill="#2D2D2D"/><path d="M8 8c0-1.656-1.344-3-3-3v6c1.656 0 3-1.344 3-3z" fill="#2D2D2D"/><path d="M3 8a2 2 0 0 0 2 2V6a2 2 0 0 0-2 2z" fill="#2D2D2D"/><path d="M7 8a2 2 0 0 0-2-2v4a2 2 0 0 0 2-2z" fill="#ECECEC"/><path d="M10 16c-1.712 0-3-2.427-3-4V6.676c0-1.088.772-1.675 1.5-1.675.354 0 .719.139 1 .407a1.461 1.461 0 0 1 1-.408c.354 0 .719.14 1 .407a1.465 1.465 0 0 1 1-.407c.728 0 1.5.587 1.5 1.675v.563c.26-.148.588-.238 1-.238h1v3.386C16 13.225 13.71 16 12 16h-2z" fill="#F4F4F4"/><path d="M10 10V6.675c0-.9 1-.9 1 0V10c0 .842 1 .842 1 0V6.675c0-.9 1-.9 1 0V11.5c1 0 1-.614 1-1.198 0-1.199.193-1.802 1-1.802v2.386c0 2.4-2 4.114-3 4.114h-2c-.975 0-2-1.846-2-3V6.676c0-.901 1-.901 1 0V10c0 .8 1 .984 1 0z" fill="#FF9600"/></g></svg>