<svg ti:v="1" width="16" height="16" viewBox="0 0 16 16" xmlns="http://www.w3.org/2000/svg" xmlns:ti="urn:schemas-jetbrains-com:tisvg"><rect id="frame" width="16" height="16" fill="none"/><g fill-rule="evenodd"><path d="M1 6a5 5 0 0 0 5 5V1a5 5 0 0 0-5 5z" fill="#1F1F1F"/><path d="M11 6a5 5 0 0 0-5-5v10a5 5 0 0 0 5-5z" fill="#1F1F1F"/><path d="M2 6a4 4 0 0 0 4 4V2a4 4 0 0 0-4 4z" fill="#C4C4C4"/><path d="M10 6a4 4 0 0 0-4-4v8a4 4 0 0 0 4-4z" fill="#C4C4C4"/><path d="M3 6c0 1.656 1.344 3 3 3V3C4.344 3 3 4.344 3 6z" fill="#C4C4C4"/><path d="M9 6c0-1.656-1.344-3-3-3v6c1.656 0 3-1.344 3-3z" fill="#242424"/><path d="M16 11a5 5 0 0 1-5 5 5 5 0 0 1-5-5 5 5 0 0 1 5-5 5 5 0 0 1 5 5z" fill="#1F1F1F"/><path d="M15 11c0 2.21-1.79 4-4 4s-4-1.79-4-4a4 4 0 1 1 8 0z" fill="#FF0E00"/><path d="M14 12H8v-2h6v2z" fill="#FFF"/></g></svg>