<svg ti:v="1" width="16" height="16" viewBox="0 0 16 16" xmlns="http://www.w3.org/2000/svg" xmlns:ti="urn:schemas-jetbrains-com:tisvg"><rect id="frame" width="16" height="16" fill="none"/><g fill-rule="evenodd"><path d="M5 5a4 4 0 0 0 4 4V1a4 4 0 0 0-4 4z" fill="#1F1F1F"/><path d="M13 5a4 4 0 0 0-4-4v8a4 4 0 0 0 4-4z" fill="#1F1F1F"/><path d="M6 5c0 1.656 1.344 3 3 3V2C7.344 2 6 3.344 6 5z" fill="#C4C4C4"/><path d="M12 5c0-1.656-1.344-3-3-3v6c1.656 0 3-1.344 3-3z" fill="#C4C4C4"/><path d="M7 5a2 2 0 0 0 2 2V3a2 2 0 0 0-2 2z" fill="#C4C4C4"/><path d="M11 5a2 2 0 0 0-2-2v4a2 2 0 0 0 2-2z" fill="#242424"/><path d="M1 8a4 4 0 0 0 4 4V4a4 4 0 0 0-4 4z" fill="#1F1F1F"/><path d="M9 8a4 4 0 0 0-4-4v8a4 4 0 0 0 4-4z" fill="#1F1F1F"/><path d="M2 8c0 1.656 1.344 3 3 3V5C3.344 5 2 6.344 2 8z" fill="#C4C4C4"/><path d="M8 8c0-1.656-1.344-3-3-3v6c1.656 0 3-1.344 3-3z" fill="#C4C4C4"/><path d="M3 8a2 2 0 0 0 2 2V6a2 2 0 0 0-2 2z" fill="#C4C4C4"/><path d="M7 8a2 2 0 0 0-2-2v4a2 2 0 0 0 2-2z" fill="#242424"/><path d="M12.836 6L5 13.836v.828L6.336 16h.828L15 8.164v-.828L13.664 6h-.828z" fill="#1F1F1F"/><path d="M16 10.713l-.152-.243C14.489 8.297 12.304 7 10 7c-2.29 0-4.476 1.296-5.846 3.466L4 10.711v.576l.151.242C5.548 13.768 7.623 15 9.995 15c2.307 0 4.494-1.297 5.853-3.47l.152-.243v-.574z" fill="#1F1F1F"/><path d="M13.31 9.147l-4.68 4.68c.45.116.908.174 1.365.174 1.9 0 3.777-1.036 5.004-3a6.818 6.818 0 0 0-1.689-1.854zM5 11.001c1.181-1.873 3.041-3 5-3 .462 0 .916.066 1.358.184l-4.686 4.686c-.615-.468-1.183-1.087-1.673-1.87z" fill="#00ACEB"/><path d="M12 11a2 2 0 1 1-3.999.001A2 2 0 0 1 12 11z" fill="#232323"/><path d="M13.25 7L6 14.25l.75.75L14 7.75 13.25 7z" fill="#00ACEB"/></g></svg>