<svg ti:v="1" width="16" height="16" viewBox="0 0 16 16" xmlns="http://www.w3.org/2000/svg" xmlns:ti="urn:schemas-jetbrains-com:tisvg"><rect id="frame" width="16" height="16" fill="none"/><path d="M2 8a6.002 6.002 0 0 0 6 6V2a6.002 6.002 0 0 0-6 6zm0 0" fill="#F4F4F4"/><path d="M14 8a6.002 6.002 0 0 0-6-6v12a6.002 6.002 0 0 0 6-6zm0 0" fill="#F4F4F4"/><path d="M3 8a5.002 5.002 0 0 0 5 5V3a5.002 5.002 0 0 0-5 5zm0 0" fill="#323232"/><path d="M13 8a5.002 5.002 0 0 0-5-5v10a5.002 5.002 0 0 0 5-5zm0 0" fill="#323232"/><path d="M4 8a4.001 4.001 0 0 0 4 4V4a4.001 4.001 0 0 0-4 4zm0 0" fill="#323232"/><path d="M12 8a4.001 4.001 0 0 0-4-4v8a4.001 4.001 0 0 0 4-4zm0 0" fill="#EBEBEB"/><path d="M14.259 3L0 10.371v.872L.908 13h.799L16 5.611v-.854L15.092 3h-.833z" fill="#F4F4F4"/><path d="M.992 10.984l13.495-6.976.513.993-13.494 6.977z" fill="#E51400"/></svg>