<svg ti:v="1" width="16" height="16" viewBox="0 0 16 16" xmlns="http://www.w3.org/2000/svg" xmlns:ti="urn:schemas-jetbrains-com:tisvg"><rect id="frame" width="16" height="16" fill="none"/><g fill-rule="evenodd"><path d="M5 5a4 4 0 0 0 4 4V1a4 4 0 0 0-4 4z" fill="#F4F4F4"/><path d="M13 5a4 4 0 0 0-4-4v8a4 4 0 0 0 4-4z" fill="#F4F4F4"/><path d="M6 5c0 1.656 1.344 3 3 3V2C7.344 2 6 3.344 6 5z" fill="#2D2D2D"/><path d="M12 5c0-1.656-1.344-3-3-3v6c1.656 0 3-1.344 3-3z" fill="#2D2D2D"/><path d="M7 5a2 2 0 0 0 2 2V3a2 2 0 0 0-2 2z" fill="#2D2D2D"/><path d="M11 5a2 2 0 0 0-2-2v4a2 2 0 0 0 2-2z" fill="#ECECEC"/><path d="M1 8a4 4 0 0 0 4 4V4a4 4 0 0 0-4 4z" fill="#F4F4F4"/><path d="M9 8a4 4 0 0 0-4-4v8a4 4 0 0 0 4-4z" fill="#F4F4F4"/><path d="M2 8c0 1.656 1.344 3 3 3V5C3.344 5 2 6.344 2 8z" fill="#2D2D2D"/><path d="M8 8c0-1.656-1.344-3-3-3v6c1.656 0 3-1.344 3-3z" fill="#2D2D2D"/><path d="M3 8a2 2 0 0 0 2 2V6a2 2 0 0 0-2 2z" fill="#2D2D2D"/><path d="M7 8a2 2 0 0 0-2-2v4a2 2 0 0 0 2-2z" fill="#ECECEC"/><path d="M16 11a5 5 0 0 1-5 5 5 5 0 0 1-5-5 5 5 0 0 1 5-5 5 5 0 0 1 5 5z" fill="#F4F4F4"/><path d="M15 11c0 2.21-1.79 4-4 4s-4-1.79-4-4a4 4 0 1 1 8 0z" fill="#FF0B00"/><path d="M14 12H8v-2h6v2z" fill="#FFF"/></g></svg>