<svg ti:v="1" width="16" height="16" viewBox="0 0 16 16" xmlns="http://www.w3.org/2000/svg" xmlns:ti="urn:schemas-jetbrains-com:tisvg"><rect id="frame" width="16" height="16" fill="none"/><g fill-rule="evenodd"><path d="M1 6a5 5 0 0 0 5 5V1a5 5 0 0 0-5 5z" fill="#F4F4F4"/><path d="M11 6a5 5 0 0 0-5-5v10a5 5 0 0 0 5-5z" fill="#F4F4F4"/><path d="M2 6a4 4 0 0 0 4 4V2a4 4 0 0 0-4 4z" fill="#2D2D2D"/><path d="M10 6a4 4 0 0 0-4-4v8a4 4 0 0 0 4-4z" fill="#2D2D2D"/><path d="M3 6c0 1.656 1.344 3 3 3V3C4.344 3 3 4.344 3 6z" fill="#2D2D2D"/><path d="M9 6c0-1.656-1.344-3-3-3v6c1.656 0 3-1.344 3-3z" fill="#ECECEC"/><path d="M7 11.5a4.5 4.5 0 1 1 9 0 4.5 4.5 0 0 1-9 0z" fill="#F4F4F4"/><path d="M15 11.5a3.5 3.5 0 1 1-6.999.001A3.5 3.5 0 0 1 15 11.5z" fill="#009A21"/><path d="M10.5 12.293l3.361-3.361c.248.228.459.49.633.781L10.5 13.707l-1.854-1.853.708-.707 1.146 1.146z" fill="#FFF"/></g></svg>