<svg ti:v="1" width="16" height="16" viewBox="0 0 16 16" xmlns="http://www.w3.org/2000/svg" xmlns:ti="urn:schemas-jetbrains-com:tisvg"><rect id="frame" width="16" height="16" fill="none"/><g fill-rule="evenodd"><path d="M2 8a6 6 0 0 0 6 6V2a6 6 0 0 0-6 6z" fill="#242424"/><path d="M14 8a6 6 0 0 0-6-6v12a6 6 0 0 0 6-6z" fill="#242424"/><path d="M3 8a5 5 0 0 0 5 5V3a5 5 0 0 0-5 5z" fill="#C4C4C4"/><path d="M13 8a5 5 0 0 0-5-5v10a5 5 0 0 0 5-5z" fill="#C4C4C4"/><path d="M4 8a4 4 0 0 0 4 4V4a4 4 0 0 0-4 4z" fill="#C4C4C4"/><path d="M12 8a4 4 0 0 0-4-4v8a4 4 0 0 0 4-4z" fill="#282828"/></g></svg>