<svg ti:v="1" width="16" height="16" viewBox="0 0 16 16" xmlns="http://www.w3.org/2000/svg" xmlns:ti="urn:schemas-jetbrains-com:tisvg"><rect id="frame" width="16" height="16" fill="none"/><g fill-rule="evenodd"><path d="M5 5a4 4 0 0 0 4 4V1a4 4 0 0 0-4 4z" fill="#1F1F1F"/><path d="M13 5a4 4 0 0 0-4-4v8a4 4 0 0 0 4-4z" fill="#1F1F1F"/><path d="M6 5c0 1.656 1.344 3 3 3V2C7.344 2 6 3.344 6 5z" fill="#C4C4C4"/><path d="M12 5c0-1.656-1.344-3-3-3v6c1.656 0 3-1.344 3-3z" fill="#C4C4C4"/><path d="M7 5a2 2 0 0 0 2 2V3a2 2 0 0 0-2 2z" fill="#C4C4C4"/><path d="M11 5a2 2 0 0 0-2-2v4a2 2 0 0 0 2-2z" fill="#242424"/><path d="M1 8a4 4 0 0 0 4 4V4a4 4 0 0 0-4 4z" fill="#1F1F1F"/><path d="M9 8a4 4 0 0 0-4-4v8a4 4 0 0 0 4-4z" fill="#1F1F1F"/><path d="M2 8c0 1.656 1.344 3 3 3V5C3.344 5 2 6.344 2 8z" fill="#C4C4C4"/><path d="M8 8c0-1.656-1.344-3-3-3v6c1.656 0 3-1.344 3-3z" fill="#C4C4C4"/><path d="M3 8a2 2 0 0 0 2 2V6a2 2 0 0 0-2 2z" fill="#C4C4C4"/><path d="M7 8a2 2 0 0 0-2-2v4a2 2 0 0 0 2-2z" fill="#242424"/><path d="M7 11.5a4.5 4.5 0 1 1 9 0 4.5 4.5 0 0 1-9 0z" fill="#1F1F1F"/><path d="M15 11.5a3.5 3.5 0 1 1-6.999.001A3.5 3.5 0 0 1 15 11.5z" fill="#009A21"/><path d="M10.5 12.293l3.361-3.361c.248.228.459.49.633.781L10.5 13.707l-1.854-1.853.708-.707 1.146 1.146z" fill="#FFF"/></g></svg>