<svg ti:v="1" width="16" height="16" viewBox="0 0 16 16" xmlns="http://www.w3.org/2000/svg" xmlns:ti="urn:schemas-jetbrains-com:tisvg"><rect id="frame" width="16" height="16" fill="none"/><linearGradient id="a" x1=".5" y1=".002" x2=".5" y2=".998"><stop offset="0" stop-color="#00A400"/><stop offset="1" stop-color="#060"/></linearGradient><path fill-rule="evenodd" d="M1 6a5 5 0 0 0 5 5V1a5 5 0 0 0-5 5z" fill="url(#a)"/><linearGradient id="b" x1=".5" y1="-.002" x2=".5" y2=".998"><stop offset="0" stop-color="#AD6500"/><stop offset="1" stop-color="#6C4500"/></linearGradient><path fill-rule="evenodd" d="M6 11a5 5 0 0 0 5-5 5 5 0 0 0-5-5v10z" fill="url(#b)"/><linearGradient id="c" x1=".5" y1=".025" x2=".5" y2="1"><stop offset="0" stop-color="#D3FFDF"/><stop offset="1" stop-color="#00B900"/></linearGradient><path fill-rule="evenodd" d="M2 6a4 4 0 0 0 4 4V2a4 4 0 0 0-4 4z" fill="url(#c)"/><linearGradient id="d" x1=".5" y1=".025" x2=".5" y2="1"><stop offset="0" stop-color="#FFF3D8"/><stop offset="1" stop-color="#B76114"/></linearGradient><path fill-rule="evenodd" d="M6 10a4 4 0 0 0 0-8v8z" fill="url(#d)"/><linearGradient id="e" x1=".5" y1="0" x2=".5" y2="1.016"><stop offset="0" stop-color="#0F0"/><stop offset="1" stop-color="#0B0"/></linearGradient><path fill-rule="evenodd" d="M3 6c0 1.656 1.344 3 3 3V3C4.344 3 3 4.344 3 6z" fill="url(#e)"/><linearGradient id="f" x1=".5" y1=".031" x2=".5" y2="1.031"><stop offset="0" stop-color="#FFB800"/><stop offset="1" stop-color="#BC6500"/></linearGradient><path fill-rule="evenodd" d="M6 9a3.001 3.001 0 0 0 0-6v6z" fill="url(#f)"/><linearGradient id="g" x1=".5" y1="0" x2=".5" y2="1"><stop offset="0" stop-color="#AD5100"/><stop offset="1" stop-color="#510000"/></linearGradient><path fill-rule="evenodd" d="M12.836 6L5 13.836v.828L6.336 16h.828L15 8.164v-.828L13.664 6h-.828z" fill="url(#g)"/><linearGradient id="h" x1=".5" y1="0" x2=".5" y2=".994"><stop offset="0" stop-color="#1174CC"/><stop offset="1" stop-color="#003C6E"/></linearGradient><path fill-rule="evenodd" d="M4.154 10.466L4 10.711v.576l.152.242C5.548 13.767 7.623 15 9.995 15c2.307 0 4.494-1.297 5.852-3.47l.153-.243v-.574l-.153-.243C14.489 8.297 12.304 7 10 7c-2.29 0-4.476 1.296-5.846 3.466z" fill="url(#h)"/><path fill-rule="evenodd" d="M13.31 9.147l-4.68 4.68c.45.116.907.174 1.366.174 1.9 0 3.776-1.036 5.003-3a6.818 6.818 0 0 0-1.688-1.854zM5 11.001c1.181-1.873 3.041-3 5-3 .462 0 .915.066 1.359.184l-4.687 4.686c-.615-.468-1.183-1.087-1.673-1.87z" fill="#FFF"/><path fill-rule="evenodd" d="M12 11a2 2 0 1 1-3.999.001A2 2 0 0 1 12 11z" fill="#00368A"/><linearGradient id="i" x1=".5" y1=".012" x2=".5" y2="1.012"><stop offset="0" stop-color="#FFAF00"/><stop offset="1" stop-color="#FF2B00"/></linearGradient><path fill-rule="evenodd" d="M6 14.25l.75.75L14 7.75 13.25 7 6 14.25z" fill="url(#i)"/></svg>