<svg ti:v="1" width="16" height="16" viewBox="0 0 16 16" xmlns="http://www.w3.org/2000/svg" xmlns:ti="urn:schemas-jetbrains-com:tisvg"><rect id="frame" width="16" height="16" fill="none"/><linearGradient id="a" x1=".5" y1=".002" x2=".5" y2=".998"><stop offset="0" stop-color="#00A400"/><stop offset="1" stop-color="#060"/></linearGradient><path fill-rule="evenodd" d="M5 5a4 4 0 0 0 4 4V1a4 4 0 0 0-4 4z" fill="url(#a)"/><linearGradient id="b" x1=".5" y1="-.002" x2=".5" y2=".998"><stop offset="0" stop-color="#AD6500"/><stop offset="1" stop-color="#6C4500"/></linearGradient><path fill-rule="evenodd" d="M9 9a4 4 0 0 0 0-8v8z" fill="url(#b)"/><linearGradient id="c" x1=".5" y1=".025" x2=".5" y2="1"><stop offset="0" stop-color="#D3FFDF"/><stop offset="1" stop-color="#00B900"/></linearGradient><path fill-rule="evenodd" d="M6 5c0 1.656 1.344 3 3 3V2C7.344 2 6 3.344 6 5z" fill="url(#c)"/><linearGradient id="d" x1=".5" y1=".025" x2=".5" y2="1"><stop offset="0" stop-color="#FFF3D8"/><stop offset="1" stop-color="#B76114"/></linearGradient><path fill-rule="evenodd" d="M9 8a3.001 3.001 0 0 0 0-6v6z" fill="url(#d)"/><linearGradient id="e" x1=".5" y1="0" x2=".5" y2="1.016"><stop offset="0" stop-color="#0F0"/><stop offset="1" stop-color="#0B0"/></linearGradient><path fill-rule="evenodd" d="M7 5c0 1.104.897 2 2 2V3c-1.103 0-2 .896-2 2z" fill="url(#e)"/><linearGradient id="f" x1=".5" y1=".031" x2=".5" y2="1.031"><stop offset="0" stop-color="#FFB800"/><stop offset="1" stop-color="#BC6500"/></linearGradient><path fill-rule="evenodd" d="M9 7a2 2 0 0 0 0-4v4z" fill="url(#f)"/><linearGradient id="g" x1=".5" y1=".002" x2=".5" y2=".998"><stop offset="0" stop-color="#00A400"/><stop offset="1" stop-color="#060"/></linearGradient><path fill-rule="evenodd" d="M1 8a4 4 0 0 0 4 4V4a4 4 0 0 0-4 4z" fill="url(#g)"/><linearGradient id="h" x1=".5" y1="-.002" x2=".5" y2=".998"><stop offset="0" stop-color="#AD6500"/><stop offset="1" stop-color="#6C4500"/></linearGradient><path fill-rule="evenodd" d="M5 12a4 4 0 0 0 0-8v8z" fill="url(#h)"/><linearGradient id="i" x1=".5" y1=".025" x2=".5" y2="1"><stop offset="0" stop-color="#D3FFDF"/><stop offset="1" stop-color="#00B900"/></linearGradient><path fill-rule="evenodd" d="M2 8c0 1.656 1.344 3 3 3V5C3.344 5 2 6.344 2 8z" fill="url(#i)"/><linearGradient id="j" x1=".5" y1=".025" x2=".5" y2="1"><stop offset="0" stop-color="#FFF3D8"/><stop offset="1" stop-color="#B76114"/></linearGradient><path fill-rule="evenodd" d="M5 11a3 3 0 0 0 0-6v6z" fill="url(#j)"/><linearGradient id="k" x1=".5" y1="0" x2=".5" y2="1.016"><stop offset="0" stop-color="#0F0"/><stop offset="1" stop-color="#0B0"/></linearGradient><path fill-rule="evenodd" d="M3 8a2 2 0 0 0 2 2V6a2 2 0 0 0-2 2z" fill="url(#k)"/><linearGradient id="l" x1=".5" y1=".031" x2=".5" y2="1.031"><stop offset="0" stop-color="#FFB800"/><stop offset="1" stop-color="#BC6500"/></linearGradient><path fill-rule="evenodd" d="M5 10a2 2 0 0 0 0-4v4z" fill="url(#l)"/><linearGradient id="m" x1=".5" y1=".033" x2=".5" y2=".983"><stop offset="0" stop-color="#902700"/><stop offset="1" stop-color="#510000"/></linearGradient><path fill-rule="evenodd" d="M6 11a5 5 0 1 0 10 0 5 5 0 1 0-10 0z" fill="url(#m)"/><linearGradient id="n" x1=".5" y1="0" x2=".5" y2="1.063"><stop offset="0" stop-color="#FF7B00"/><stop offset="1" stop-color="red"/></linearGradient><path fill-rule="evenodd" d="M7 11c0 2.21 1.79 4 4 4s4-1.79 4-4a4 4 0 1 0-8 0z" fill="url(#n)"/><path fill-rule="evenodd" d="M14 12H8v-2h6v2z" fill="#FFF"/></svg>