<svg xmlns="http://www.w3.org/2000/svg" width="16" height="16" viewBox="0 0 16 16"><rect id="frame" width="16" height="16" fill="none"/><g fill="none" fill-rule="evenodd"><path fill="#6E6E6E" d="M4.192 8.808l1.187-1.187A2.99 2.99 0 0 0 7.5 8.5c.47 0 .912-.116 1.307-.312L9 8.084v1.655A4.776 4.776 0 0 1 7.5 10c-1.117 0-2.164-.439-3.081-1.039l-.227-.153 1.187-1.187zm6.615-6.615C12.717 3.526 14 5.5 14 5.5s-.789 1.213-2.046 2.379l-.167.152-1.214-.85a.983.983 0 0 0-.496-.17 2.96 2.96 0 0 0-.325-3.492l-.13-.14 1.185-1.186zM7.5 1c.634 0 1.245.146 1.824.377L8.132 2.569a3 3 0 0 0-3.563 3.563l-1.64 1.64A14.086 14.086 0 0 1 1 5.5S3.91 1 7.5 1zm1.06 3.44a1.5 1.5 0 0 1-2.015 2.218L6.44 6.56 8.56 4.439z"/><path fill="#DB5860" d="M13 .885L12.115 0 2 10.115l.885.885z"/><path fill="#59A869" d="M10 15l5-3.5L10 8z"/></g></svg>