<svg ti:v="1" width="16" height="16" viewBox="0 0 16 16" xmlns="http://www.w3.org/2000/svg" xmlns:ti="urn:schemas-jetbrains-com:tisvg"><rect id="frame" width="16" height="16" fill="none"/><linearGradient id="a" x1=".5" y1=".007" x2=".5" y2=".996"><stop offset="0" stop-color="#634BA1"/><stop offset="1" stop-color="#2B006D"/></linearGradient><path fill-rule="evenodd" d="M1 8a7 7 0 0 0 14 0A7 7 0 1 0 1 8z" fill="url(#a)"/><linearGradient id="b" x1=".5" y1="-.002" x2=".5" y2="1.005"><stop offset="0" stop-color="#E8F1FF"/><stop offset="1" stop-color="#9591FF"/></linearGradient><path fill-rule="evenodd" d="M2 8a6 6 0 1 0 12 0A6 6 0 1 0 2 8z" fill="url(#b)"/><linearGradient id="c" x1=".5" y1="-.002" x2=".5" y2="1.005"><stop offset="0" stop-color="#C8B3FF"/><stop offset="1" stop-color="#FFF"/></linearGradient><path fill-rule="evenodd" d="M7.93 4.001a3.999 3.999 0 1 0 .139 7.998 3.998 3.998 0 1 0-.066-7.998H7.93z" fill="url(#c)"/><path fill-rule="evenodd" d="M8 5H7v4h4V8H8V5z"/></svg>