<svg ti:v="1" width="16" height="16" viewBox="0 0 16 16" xmlns="http://www.w3.org/2000/svg" xmlns:ti="urn:schemas-jetbrains-com:tisvg"><rect id="frame" width="16" height="16" fill="none"/><linearGradient id="a" x1=".5" y1=".001" x2=".5" y2="1.01"><stop offset="0" stop-color="#AD4E21"/><stop offset="1" stop-color="#803918"/></linearGradient><path fill-rule="evenodd" d="M9.84 1.012c-.318.053-.59.253-.734.54-.091.181-.358.729-.606 1.378a15.901 15.901 0 0 0-.606-1.378 1.004 1.004 0 0 0-.734-.54.996.996 0 0 0-.867.281c-.111.11-.943.99-1.21 2.652a15.532 15.532 0 0 0-.188-.392 1 1 0 0 0-.735-.54.996.996 0 0 0-.867.28C3.16 3.424 2 4.653 2 7c0 1.103.897 2 2 2 .113 0 .276 0 .463-.023C4.169 9.549 4 10.119 4 10.599 4 12.243 5.182 14 8.5 14s4.5-1.757 4.5-3.401c0-.48-.169-1.05-.463-1.622C12.724 9 12.888 9 13 9c1.103 0 2-.896 2-1.999 0-2.348-1.16-3.577-1.293-3.708A.996.996 0 0 0 13 3a1 1 0 0 0-.895.553c-.037.074-.104.212-.188.392-.267-1.662-1.099-2.542-1.21-2.652A.996.996 0 0 0 10 1c-.053 0-.107.004-.16.012z" fill="url(#a)"/><linearGradient id="b" x1=".5" y1="-.003" x2=".5" y2="1.001"><stop offset="0" stop-color="#FFB546"/><stop offset="1" stop-color="#FFE174"/></linearGradient><path fill-rule="evenodd" d="M3 7a1 1 0 0 0 1 1c.553 0 1 0 1-1S4 4 4 4 3 5 3 7z" fill="url(#b)"/><linearGradient id="c" x1=".5" y1="-.003" x2=".5" y2="1.001"><stop offset="0" stop-color="#FFB546"/><stop offset="1" stop-color="#FFE174"/></linearGradient><path fill-rule="evenodd" d="M6 5a1 1 0 0 0 1 1c.552 0 1 0 1-1S7 2 7 2 6 3 6 5z" fill="url(#c)"/><linearGradient id="d" x1=".5" y1="-.003" x2=".5" y2="1.001"><stop offset="0" stop-color="#FFB546"/><stop offset="1" stop-color="#FFE174"/></linearGradient><path fill-rule="evenodd" d="M5 10.599C5 11.8 5.875 13 8.5 13s3.5-1.2 3.5-2.401C12 9.4 10.251 7 8.501 7 6.75 7 5 9.4 5 10.599z" fill="url(#d)"/><linearGradient id="e" x1=".5" y1="-.003" x2=".5" y2="1.001"><stop offset="0" stop-color="#FFB546"/><stop offset="1" stop-color="#FFE174"/></linearGradient><path fill-rule="evenodd" d="M12 7c0 1 .447 1 1 1 .553 0 1-.447 1-.999C14 5 13 4 13 4s-1 2-1 3z" fill="url(#e)"/><linearGradient id="f" x1=".5" y1="-.003" x2=".5" y2="1.001"><stop offset="0" stop-color="#FFB546"/><stop offset="1" stop-color="#FFE174"/></linearGradient><path fill-rule="evenodd" d="M9 5c0 1 .448 1 1 1a1 1 0 0 0 1-.999C11 3 10 2 10 2S9 4 9 5z" fill="url(#f)"/><path fill-rule="evenodd" d="M10 5c-.435 0-.8-.008-.938-.494A2.532 2.532 0 0 0 9 5c0 1 .448 1 1 1a1 1 0 0 0 1-.999c0-.269-.02-.515-.051-.747A.987.987 0 0 1 10 5zm3 2c-.435 0-.8-.008-.938-.494A2.532 2.532 0 0 0 12 7c0 1 .448 1 1 1a1 1 0 0 0 1-.999c0-.269-.02-.515-.051-.747A.987.987 0 0 1 13 7zm-4.5 5c-2.226 0-3.185-.864-3.428-1.858-.043.164-.072.32-.072.458 0 1.2.875 2.4 3.5 2.4s3.5-1.2 3.5-2.4c0-.138-.029-.294-.072-.458C11.685 11.136 10.726 12 8.5 12zM7 5a.987.987 0 0 1-.949-.747A5.598 5.598 0 0 0 6 5a1 1 0 0 0 1 1c.552 0 1 0 1-1 0-.146-.025-.315-.062-.494C7.8 4.992 7.435 5 7 5zM4.938 6.506C4.975 6.685 5 6.854 5 7c0 1-.448 1-1 1a1 1 0 0 1-1-1c0-.268.02-.515.051-.747A.987.987 0 0 0 4 7c.435 0 .8-.008.938-.494z" fill="#FFF"/></svg>