<svg ti:v="1" width="16" height="16" viewBox="0 0 16 16" xmlns="http://www.w3.org/2000/svg" xmlns:ti="urn:schemas-jetbrains-com:tisvg"><rect id="frame" width="16" height="16" fill="none"/><g fill-rule="evenodd"><path d="M8.5 14C5.182 14 4 12.243 4 10.6c0-.482.169-1.051.462-1.623C4.276 9 4.112 9 4 9c-1.103 0-2-.897-2-2 0-2.347 1.161-3.575 1.293-3.707a1 1 0 0 1 1.602.26c.037.074.104.211.188.392.267-1.662 1.099-2.542 1.21-2.652a1 1 0 0 1 1.602.26c.09.18.356.727.605 1.378.249-.651.515-1.198.605-1.378a1.002 1.002 0 0 1 1.602-.26c.111.11.943.99 1.21 2.652.084-.18.151-.318.188-.392a1.002 1.002 0 0 1 1.602-.26C13.839 3.425 15 4.653 15 7.001A2.001 2.001 0 0 1 13 9c-.112 0-.276 0-.462-.023.293.572.462 1.141.462 1.623 0 1.643-1.182 3.4-4.5 3.4z" fill="#F4F4F4"/><path d="M3 7a1 1 0 0 0 1 1c.552 0 1 0 1-1S4 4 4 4 3 5 3 7z" fill="#313131"/><path d="M6 5a1 1 0 0 0 1 1c.552 0 1 0 1-1S7 2 7 2 6 3 6 5z" fill="#313131"/><path d="M8.5 7C6.75 7 5 9.4 5 10.6c0 1.2.875 2.4 3.5 2.4s3.5-1.2 3.5-2.4S10.25 7 8.5 7z" fill="#313131"/><path d="M12 7c0 1 .448 1 1 1a1 1 0 0 0 1-.999C14 5 13 4 13 4s-1 2-1 3z" fill="#313131"/><path d="M9 5c0 1 .448 1 1 1a1 1 0 0 0 1-.999C11 3 10 2 10 2S9 4 9 5z" fill="#313131"/><path d="M10 5c-.435 0-.8-.008-.938-.494A2.532 2.532 0 0 0 9 5c0 1 .448 1 1 1a1 1 0 0 0 1-.999c0-.269-.02-.515-.051-.747A.987.987 0 0 1 10 5zm3 2c-.435 0-.8-.008-.938-.494A2.532 2.532 0 0 0 12 7c0 1 .448 1 1 1a1 1 0 0 0 1-.999c0-.269-.02-.515-.051-.747A.987.987 0 0 1 13 7zm-4.5 5c-2.226 0-3.185-.864-3.428-1.858-.043.164-.072.32-.072.458 0 1.2.875 2.4 3.5 2.4s3.5-1.2 3.5-2.4c0-.138-.029-.294-.072-.458C11.685 11.136 10.726 12 8.5 12zM7 5a.987.987 0 0 1-.949-.747A5.598 5.598 0 0 0 6 5a1 1 0 0 0 1 1c.552 0 1 0 1-1 0-.146-.025-.315-.062-.494C7.8 4.992 7.435 5 7 5zM4.938 6.506C4.975 6.685 5 6.854 5 7c0 1-.448 1-1 1a1 1 0 0 1-1-1c0-.268.02-.515.051-.747A.987.987 0 0 0 4 7c.435 0 .8-.008.938-.494z" fill="#313131"/></g></svg>