<svg ti:v="1" width="16" height="16" viewBox="0 0 16 16" xmlns="http://www.w3.org/2000/svg" xmlns:ti="urn:schemas-jetbrains-com:tisvg"><rect id="frame" width="16" height="16" fill="none"/><linearGradient id="a" x1=".5" y1=".006" x2=".5" y2="1.014"><stop offset="0" stop-color="#37AD0D"/><stop offset="1" stop-color="#006F33"/></linearGradient><path fill-rule="evenodd" d="M5 1v14h1.334L15 8.5v-1L6.334 1H5z" fill="url(#a)"/><linearGradient id="b" x1=".5" y1="-.015" x2=".5" y2="1.008"><stop offset="0" stop-color="#8DFF62"/><stop offset="1" stop-color="#29C771"/></linearGradient><path fill-rule="evenodd" d="M6 14l8-6-8-6v12z" fill="url(#b)"/><linearGradient id="c" x1=".5" y1=".002" x2=".5" y2=".998"><stop offset="0" stop-color="#2EA322"/><stop offset="1" stop-color="#096500"/></linearGradient><path fill-rule="evenodd" d="M1 8a4 4 0 0 0 4 4V4a4 4 0 0 0-4 4z" fill="url(#c)"/><linearGradient id="d" x1=".5" y1="-.002" x2=".5" y2=".998"><stop offset="0" stop-color="#9C6400"/><stop offset="1" stop-color="#624600"/></linearGradient><path fill-rule="evenodd" d="M5 12a4 4 0 0 0 0-8v8z" fill="url(#d)"/><linearGradient id="e" x1=".5" y1=".025" x2=".5" y2="1"><stop offset="0" stop-color="#E0FFE0"/><stop offset="1" stop-color="#11B811"/></linearGradient><path fill-rule="evenodd" d="M2 8a3 3 0 0 0 3 3V5a3 3 0 0 0-3 3z" fill="url(#e)"/><linearGradient id="f" x1=".5" y1=".025" x2=".5" y2="1"><stop offset="0" stop-color="#FFF3D9"/><stop offset="1" stop-color="#A36121"/></linearGradient><path fill-rule="evenodd" d="M5 11a3 3 0 0 0 0-6v6z" fill="url(#f)"/><linearGradient id="g" x1=".5" y1="0" x2=".5" y2="1.016"><stop offset="0" stop-color="#49FF35"/><stop offset="1" stop-color="#35BA26"/></linearGradient><path fill-rule="evenodd" d="M3 8a2 2 0 0 0 2 2V6a2 2 0 0 0-2 2z" fill="url(#g)"/><linearGradient id="h" x1=".5" y1=".031" x2=".5" y2="1.031"><stop offset="0" stop-color="#FFB700"/><stop offset="1" stop-color="#A86400"/></linearGradient><path fill-rule="evenodd" d="M5 10a2 2 0 0 0 0-4v4z" fill="url(#h)"/></svg>