<svg ti:v="1" width="16" height="16" viewBox="0 0 16 16" xmlns="http://www.w3.org/2000/svg" xmlns:ti="urn:schemas-jetbrains-com:tisvg"><rect id="frame" width="16" height="16" fill="none"/><g fill-rule="evenodd"><path d="M15 7.5L6.334 1H5v14h1.334L15 8.5v-1z" fill="#F4F4F4"/><path d="M6 2v12l8-6-8-6z" fill="#378A33"/><path d="M1 8a4 4 0 0 0 4 4V4a4 4 0 0 0-4 4z" fill="#F4F4F4"/><path d="M9 8a4 4 0 0 0-4-4v8a4 4 0 0 0 4-4z" fill="#F4F4F4"/><path d="M2 8a3 3 0 0 0 3 3V5a3 3 0 0 0-3 3z" fill="#313131"/><path d="M8 8a3 3 0 0 0-3-3v6a3 3 0 0 0 3-3z" fill="#313131"/><path d="M3 8a2 2 0 0 0 2 2V6a2 2 0 0 0-2 2z" fill="#313131"/><path d="M7 8a2 2 0 0 0-2-2v4a2 2 0 0 0 2-2z" fill="#EBEBEB"/></g></svg>