<svg xmlns="http://www.w3.org/2000/svg" width="16" height="16" viewBox="0 0 16 16"><rect id="frame" width="16" height="16" fill="none"/><g fill="none" fill-rule="evenodd"><path fill="#8C3123" d="M2.979 12.55l-.001.002-.964-.466v-8.19l.964-.466v9.12z"/><path fill="#E05243" d="M5.81 10.945v.942l-2.832.663V3.43l2.832.663v.962l2.031-.486.159.037v1.632l-2.19.266V9.5L8 9.77v.786l-2.19.39z"/><path fill="#8C3123" d="M8.159 4.569l2.031.486v-.962l2.83-.663v9.12l-2.83-.663v-.942L8 10.555V9.77l2.19-.271V6.504L8 6.238V4.606l.159-.037z"/><path fill="#E05243" d="M13.021 3.43l.965.466v8.19l-.965.466z"/><path fill="#8C3123" d="M8 6.238V9.77L5.81 9.5V6.504L8 6.238z"/><path fill="#5E1F18" d="M5.81 5.055L8 4.53l2.19.524L8 5.44l-2.19-.386z"/><path fill="#F2B0A9" d="M5.81 10.945l2.19-.39 2.19.39L8 11.47l-2.19-.524z"/><path fill="#E05243" d="M10.19 5.055L8 4.531V1l2.19 1.059z"/><path fill="#8C3123" d="M5.81 5.055L8 4.531V1L5.81 2.059z"/><path fill="#E05243" d="M8 15l2.19-1.059v-2.996L8 11.469z"/><path fill="#8C3123" d="M8 15l-2.19-1.059v-2.996l2.19.524z"/><path fill="#E05243" d="M8 9.77V6.238l2.19.266v2.995z"/></g></svg>