<svg width="16" height="16" viewBox="0 0 16 16" fill="none" xmlns="http://www.w3.org/2000/svg"><rect id="frame" width="16" height="16" fill="none"/><path fill-rule="evenodd" clip-rule="evenodd" d="M8 3.027a4.973 4.973 0 0 0 0 9.946v-1.081a3.892 3.892 0 0 1 0-7.784V3.027z" fill="#246CF6"/><path fill-rule="evenodd" clip-rule="evenodd" d="M8 16A8 8 0 1 0 8 0v1.081A6.919 6.919 0 0 1 8 14.92V16z" fill="#246CF6"/><path opacity=".35" fill-rule="evenodd" clip-rule="evenodd" d="M8 0a8 8 0 1 0 0 16v-1.081A6.919 6.919 0 1 1 8 1.08V0z" fill="#246CF6"/><path opacity=".35" fill-rule="evenodd" clip-rule="evenodd" d="M8 12.973a4.973 4.973 0 0 0 0-9.946v1.081a3.892 3.892 0 0 1 0 7.784v1.081z" fill="#246CF6"/></svg>