<svg xmlns="http://www.w3.org/2000/svg" width="16" height="16" viewBox="0 0 16 16"><rect id="frame" width="16" height="16" fill="none"/><g fill="none" fill-rule="evenodd"><path fill="#9AA7B0" fill-opacity=".8" d="M1 14V1h2v13H1zm3-7V1h4v6H4zm5 0V1h6v6H9z"/><path fill="#40B6E0" fill-opacity=".7" fill-rule="nonzero" d="M4 8h12v7H4z"/><path fill="#231F20" fill-opacity=".7" fill-rule="nonzero" d="M6.1 9L5 9.443l.157.782L6 10v4h1V9z"/><path fill="#231F20" fill-opacity=".7" fill-rule="nonzero" d="M8 14v-.866l1.654-1.356c.618-.511.86-.781.86-1.193 0-.419-.277-.646-.668-.646-.383 0-.646.213-1.015.667l-.767-.617c.49-.668.966-1.03 1.853-1.03 1.03 0 1.711.604 1.711 1.534 0 .845-.426 1.256-1.306 1.938l-.71.569h2.066v1H8zm5.695.05c-.889 0-1.502-.353-1.925-.853l.747-.712c.339.38.691.592 1.192.592.409 0 .698-.233.698-.6 0-.415-.36-.641-.966-.641h-.451l-.17-.691 1.178-1.152h-2V9h3.396v.848l-1.248 1.191c.67.113 1.325.466 1.325 1.382 0 .945-.676 1.629-1.776 1.629z"/></g></svg>