<svg xmlns="http://www.w3.org/2000/svg" width="16" height="16" viewBox="0 0 16 16"><rect id="frame" width="16" height="16" fill="none"/><g fill="none" fill-rule="evenodd"><path fill="#9AA7B0" fill-opacity=".8" d="M5.216 13.77A7.006 7.006 0 0 1 0 7c0-3.864 3.136-7 7-7a7.003 7.003 0 0 1 6.998 6.842 10.84 10.84 0 0 0-.245-.23c-.425-.384-.821-.573-1.242-.607A5.615 5.615 0 0 0 9.1 1.813V2.1c0 .77-.63 1.4-1.4 1.4H6.3v1.4c0 .385-.315.7-.7.7H4.2V7h4.2c.385 0 .7.315.7.7v.314a8.736 8.736 0 0 0-.038.044c-1.004.175-1.628.384-2.287 1.025-.125.12-.427.21-.635.326-.241.133-.391.301-.54.591-.176.343.032.652.159 1.09A1.405 1.405 0 0 1 4.9 9.8v-.7L1.547 5.747A5.683 5.683 0 0 0 1.4 7a5.592 5.592 0 0 0 4.414 5.469l-.116.346-.383.416c-.14.151-.17.15-.137.365.008.058.021.116.038.174z"/><path fill="#000" d="M10.837 15.037c-.091.15-.103.242-.249.329-.435.258-.666-.041-.924-.476-.123-.208-.392-.681-.107-.842.12-.067.211-.118.302-.176-.299.04-.592.041-.897-.009l.014.114c.02.183.017.26-.04.383-.056.124-.113.185-.169.247.014.159.04.36 0 .526-.09.369-.779.143-1.035.067-.308-.091-.749-.176-.568-.61.042-.102.076-.206.1-.305-.269.13-.644-.147-.822-.343a1.17 1.17 0 0 1-.294-.612c-.027-.179-.002-.178.114-.304l.32-.347.129-.384a3.039 3.039 0 0 1-.037-.286c-.03-.394-.02-.675.031-.933-.188.08-.403.042-.499-.176a1.531 1.531 0 0 1-.085-.29c-.419-.441.366-1.02.594-1.064-.026.082-.055.156-.08.23.155.088.136.339.103.5-.055-.077-.086-.178-.168-.182-.012.182-.01.384-.14.491.038.113.036.113.146.067.155-.066.272-.212.39-.354.127-.271.29-.512.513-.729.55-.534 1.07-.708 1.906-.854.111-.127.226-.25.35-.37.167-.161.276-.195.434-.204.262-.384.468-.65.895-.848.895-.412 1.512-.432 2.23.217.237.214.44.44.7.619.133.09.227.155.327.286.126.164.229.328.3.54.093-.042.198-.081.283-.16.11-.104.18-.276.282-.389.135-.15.443.031.512.174.232.487.326 1.102.297 1.636-.056 1.052-.329 1.563-.86 1.873-.36.211-.759.316-1.173.23-.056.371-.395.866-.79.866-.396 0-.396-.062-.565-.186-.11-.08-.233-.209-.24-.193-.015.033-.036.06-.042.1.07.155.034.033.095.192.067.175.1.29.104.478l.013.5a.446.446 0 0 1 .063.315c-.02.319-.18.349-.447.347-.09 0-.425.002-.51-.005-.17-.013-.283-.028-.341-.105-.155.137-.415.38-.465.41z"/><path fill="#FF0" d="M12.032 13.314c.012.048.045.245.047.336l.007.29c.026.055.03.066.025.128-.01.126-.045.135-.138.133-.043-.001-.212-.002-.255-.006-.06-.007-.12-.06-.138-.077.096-.083.226-.309.283-.433.056-.123.142-.256.169-.37zm-4.87.386v.004a.347.347 0 0 1-.044.122c-.11.162-.388-.076-.469-.167a.635.635 0 0 1-.16-.327c-.011-.08-.001-.083.05-.14l.205-.23.046-.133c.08.31.219.615.372.871zm3.186-.206c.028-.155.113-.31.057-.433-.026.096-.17.248-.226.31-.057.061-.057.061-.17.123a2.47 2.47 0 0 1-1.073 0c-.176-.03-.596-.32-.62-.433a.662.662 0 0 0 .112.433.896.896 0 0 1 .113.495c0 .124-.075.227-.17.433.009.13.032.186 0 .309-.052.204-.255.104-.395.062-.17-.051-.427-.06-.338-.31.078-.22.074-.557.113-.865-.314-.495-.566-1.069-.622-1.67-.043-.467.021-.766.113-1.052.146-.452.293-.736.621-1.051.443-.425.652-.51 1.3-.618-.156.19-.16.212-.328.429-.17.219-.27.44-.379.68-.149.331-.146.457.052.748.17.25.262.363.337.608a1.364 1.364 0 0 0-.105.446c.209.25.364.42.566.473a.678.678 0 0 0 .543-.057c.395-.222.844-.532 1.29-.544.206-.555.1-.993.001-1.53-.067-.366-.15-.756-.17-1.13-.162.298-.289.916-.227 1.299.075.462.057.619 0 .866-.282.062-.314.165-.677.371-.146.083-.508.186-.678.124-.17-.062-.086-.248 0-.433.138-.298.51-1.655.678-1.948-.205.27-.856 1.305-1.017 1.577-.061-.192-.113-.31-.226-.433-.112-.124.22-.743.403-.959.314-.372.382-.592.727-.959.187-.199.282-.247.508-.37.226-.124.562-.066.79-.124a.493.493 0 0 0-.395-.186c.17-.31.278-.331.621-.495.43-.204.523-.225.791-.216.26.008.406.07.734.371.173.159.334.234.508.371-.063.006.06.065-.013.097.088-.019.092.008.183.027.025.018.049.017.113.062.12.083.199.12.282.247.088.135.126.343.1.34a.22.22 0 0 0-.148.037l-.005.003a.982.982 0 0 1-.245.09.268.268 0 0 0 .17-.002.276.276 0 0 0-.007.25.145.145 0 0 0 .026.043 1.776 1.776 0 0 0-.1.044.992.992 0 0 1 .378-.001c.01.053.097.102.106.16l-.057.004h-.005c-.073-.063-.154-.052-.265-.025-.337.085-.258.292-.413.604.161-.215.15-.441.412-.51.061-.015.103-.035.144-.028a.348.348 0 0 0-.165.188c-.072.223-.027.41-.106.619.098-.186.104-.368.192-.564.031-.07.148-.183.22-.184l.059-.002c.017.124-.002.316-.009.418-.012.187-.086.39-.113.495.113.031.283-.093.396-.402.113-.31.092-.533.056-.742-.049-.286.07-.082.226-.217.115-.099.234-.258.339-.37.104-.112.191.138.233.247.178.472.153.854.106 1.33-.053.533-.241 1.005-.671 1.267-.548.335-1.15.14-1.694-.061a2.058 2.058 0 0 1-.395-.186c.027.137.003.416 0 .557-.007.247.024.357.093.426.07.068.108.068.182.068.113 0 .282-.061.339-.185.056-.124.056-.155.056-.217.042.014.126.05.17.062 0 0-.039.076-.064.165-.064.23-.275.423-.5.423-.227 0-.369-.157-.51-.294l-.283-.275c-.254-.088-.327-.26-.563-.452-.057.371 0 .495.226.68-.034.381-.12.557-.226.805-.068.158-.407.74-.508.804-.073.046-.423.44-.509.494-.063.093-.13.254-.225.31-.293.169-.379.037-.509-.248-.056-.123-.113-.247 0-.309s.233-.247.283-.31c.05-.061.028-.34.056-.494zm1.984-3.758c.037.085.097.15.168.19a.97.97 0 0 0-.124.25 2.175 2.175 0 0 1 1.036-.731 1.02 1.02 0 0 0-.351.064.447.447 0 0 0-.035-.134.397.397 0 0 0-.215-.213c.083-.048.164-.1.227-.162-.185.094-.402.071-.561.189-.14.103-.334.431-.477.57.103-.044.203-.12.295-.2 0 .06.012.12.037.177z"/></g></svg>