<svg xmlns="http://www.w3.org/2000/svg" width="16" height="16" viewBox="0 0 16 16"><rect id="frame" width="16" height="16" fill="none"/><g fill="none"><path fill="#DD3735" d="M3.737 6.781c.02.014.052.024.02.052-.024.032-.052.06-.07.098-.02.032-.033.042-.061.018a2.62 2.62 0 0 1 .111-.168zm9.374 4.894c0 .014.005.023.005.038.01-.019.01-.028.014-.038h-.019zm-.951 1.864l-.812-4.502c-.014-.005-.032-.014-.065-.023.01.018.014.032.019.046.023-.004.032-.004.042-.009 0-.004 0-.009.004-.014l.812 4.502zm-.84-5.515c-.004.013-.004.028-.004.042 0-.015 0-.029.005-.043zm-.004.13v-.033c-.014.005-.028.005-.047.01.024.008.047.013.047.023z"/><path fill="#DD3A0A" d="M14.949 7.02c-.01-.183-.014-.365-.033-.547-.033-.247-.065-.5-.121-.742a4.202 4.202 0 0 0-.182-.584c-.089-.224-.177-.453-.29-.668-.181-.345-.419-.654-.638-.976-.145-.206-.332-.374-.472-.584a1.432 1.432 0 0 0-.312-.317 8.089 8.089 0 0 0-.578-.416c-.15-.103-.299-.2-.457-.29-.126-.07-.261-.126-.392-.187-.15-.07-.294-.154-.462-.186-.042-.01-.08-.023-.121-.038-.107-.037-.21-.079-.317-.112-.163-.051-.322-.112-.49-.154a4.497 4.497 0 0 0-.499-.093c-.186-.028-.377-.037-.564-.056a4.755 4.755 0 0 0-.359-.032c-.177-.01-.359-.01-.536-.014-.089-.005-.182-.014-.27-.01-.136.005-.271.02-.406.038-.13.014-.261.037-.387.056-.154.019-.308.028-.462.047-.144.018-.294.046-.438.07-.051.01-.103.028-.154.037-.112.023-.228.033-.34.07-.2.061-.401.131-.597.206-.182.075-.36.154-.532.247-.177.098-.345.215-.513.327a5.59 5.59 0 0 0-.896.72c-.074.074-.135.163-.205.247-.116.135-.233.266-.345.406-.093.117-.177.238-.266.36a5.95 5.95 0 0 0-.419.672c-.051.094-.098.187-.145.28-.07.14-.144.276-.21.42a1.775 1.775 0 0 0-.111.314c-.065.228-.13.462-.191.69-.056.206-.07.421-.075.631-.005.187.014.37.033.556.004.047-.024.103.032.14-.018.051-.004.08.023.089-.032.05.014.084-.004.13-.005.01.014.028.023.042 0 .015-.004.033 0 .047.005.042.024.084.024.131 0 .033.027.07.037.103.004.014 0 .037-.01.046-.028.033-.023.061.019.08.024.06.014.088.01.117.009.042-.005.056 0 .065a.615.615 0 0 1 .055.243c0 .019.01.037.02.06.004 0 0 .09 0 .09.022-.015.041-.02.064-.029.015.061.028.117.047.169.023.037.023.055.014.06.019.084.028.163.06.243 0-.089-.008-.177-.023-.262.066.024.122.047.159.047l.014-.042c-.028-.028-.051-.07-.08-.098.01.037 0 .052 0 .066-.018-.01-.041-.02-.064-.029.018-.023.037-.046.065-.074 0-.042-.023-.08-.089-.075.028-.01.056-.023.089-.033.051-.027-.005-.079-.005-.144.005-.08-.042-.159-.056-.243-.023-.13-.018-.327-.032-.458-.028-.023-.052.038-.056.042.014.112.028.224.037.337-.028-.094-.047-.197-.07-.309-.005.033-.01.047-.01.066-.023.023-.004.051.01.084-.033-.014-.07-.01-.07-.01v.131c-.047-.046-.06-.084-.084-.117-.01-.037-.014-.074-.023-.111.009-.024 0-.038 0-.052a2.83 2.83 0 0 1-.014-.112c.004-.005-.005-.074-.005-.074.037.004.061.008.084.008-.046-.06-.014-.097.005-.135.01-.019.042-.023.051-.042.038-.07.098-.126.098-.215 0-.042.015-.088.02-.13.008-.08.018-.16.022-.239.01-.102 0-.205.024-.303a5.208 5.208 0 0 1 .261-.836c.07-.182.135-.364.224-.537.126-.252.27-.495.41-.742.089-.155.182-.3.28-.449.093-.145.186-.294.294-.43.15-.191.313-.369.494-.527.187-.168.364-.341.565-.495.26-.202.536-.379.83-.533.237-.126.484-.224.732-.318.158-.06.33-.088.494-.14.186-.06.373-.088.569-.093.126-.005.247-.019.373-.033.112-.009.224-.018.345-.032-.014.018-.019.028-.023.037-.051.075-.107.15-.159.224l-.13.187c-.075.098-.154.196-.224.299-.107.154-.205.313-.317.467-.112.15-.234.29-.35.434-.154.201-.299.406-.452.607-.14.192-.29.374-.425.566-.12.167-.228.345-.345.518-.172.257-.345.509-.517.765-.136.196-.27.388-.41.584-.01.014-.024.019-.038.028-.037.06-.037.093-.051.121-.038.07-.075.14-.117.206-.023.037-.056.07-.084.107-.005-.056.074-.084.037-.154-.023.038-.046.07-.07.108l-.056.111c.019.014.052.024.019.052l-.042.075a.17.17 0 0 0 .051-.047c0 .051-.028.093-.051.135-.019.037-.065.066-.098.093.005.005.037.02.042.024.042-.014.056-.037.061-.024.014-.018.028-.032.033-.046a.169.169 0 0 1 .093-.103c.018-.01.032-.023.046-.037.14-.145.285-.285.41-.44.197-.238.374-.485.56-.728.08-.102.173-.205.257-.303.014.107.005.21 0 .308-.014.173-.023.346-.037.523-.005.07 0 .14-.005.21 0 .019-.014.033-.014.051 0 .047.014.098.014.145-.014.173-.033.34-.047.514-.005.037.014.074.023.107-.023.252.028.519-.014.785.033-.052.042-.084.042-.117.005-.028 0-.056 0-.088V7.8c.005-.084.023-.173.014-.257a.87.87 0 0 1 .01-.271c.009-.037-.005-.084.018-.13v.07c-.004.265.005.531-.032.798-.005.023.014.065-.037.06-.043.084.009.145-.038.192-.01.01.01.051.014.08-.019.055-.019.055.01.06.004.103.013.196.018.294.074-.177.037-.36.07-.542.005.075.01.15.005.229 0 .122-.005.238-.01.36 0 .023-.004.046-.009.07-.014.065-.019.13-.042.191-.019.047-.01.117-.01.173v.178c.02.079-.004.121.01.168-.014.047-.019.06-.014.075l.014.07c.093-.01.051.06.089.098-.028.037-.019.051-.019.07 0 .042-.004.08-.01.121 0 .108-.004.215-.004.318 0 .014.005.028.005.042l-.005.13c.01.015 0 .029-.014.043-.004 0-.018-.593-.018-.593h-.07c-.01.28.014.532-.038.793-.056.005-.074.014-.135.014-.145 0-.29 0-.434.005-.172 0-.34.005-.513.005-.084 0-.172.01-.256.01-.112 0-.229-.015-.34-.015-.173 0-.341.014-.514.019-.125.004-.251.004-.377.01a4.122 4.122 0 0 0-.252.018c-.037.004-.07.018-.117.032-.014 0-.046-.004-.074 0-.047.01-.089.037-.136.047-.07.014-.088.033-.08.103v.046c-.004.01.104-.014.104-.014-.01 0-.015.028-.029.052l.084-.033c.07.033.131.014.187.028.182.047.368.066.555.084.121.01.238.014.359.019.172.01.345.018.517.018.145 0 .285-.014.43-.014.2 0 .4.01.6.014.043 0 .09-.004.136-.004h.34c.304-.01.607-.015.91-.024.173-.004.35-.014.522-.018l.532-.015c.205-.004.41-.004.611-.009.154 0 .303-.005.457-.01.172-.004.35-.018.522-.027.094-.005.187-.014.28-.023.112-.01.229-.024.34-.028.169-.01.341-.014.51-.024.209-.014.419-.032.633-.037.196-.01.397-.005.593-.01.172-.004.345-.013.522-.018l.294-.014s.196-.005.294-.014c.168-.01.336-.028.504-.033.107-.005.214 0 .321-.005.173-.004.35-.014.522-.014.066 0 .136.01.22.014-.038.033-.061.052-.09.075.02.005.038.014.057.024a.126.126 0 0 1-.075.023c-.01.023-.018.033-.028.08h.084c-.032 0-.06.041-.093.07-.037-.01-.07 0-.089.05.033.02.028.033.024.052-.056.019-.098.037-.075.098-.019.01-.042.019-.065.033-.023.037-.066.046-.056.098.018.004.037.014.051.018l-.07.033c-.084.05-.046.074-.028.098-.014.01-.028.018-.042.023.01.042.023.052.028.052a1.648 1.648 0 0 0-.07.056c-.014.042-.033.06-.051.088-.019.028-.028.066-.052.094-.098.107-.168.233-.293.317-.047.033-.089.075-.13.117-.085.08-.16.168-.248.243a5.245 5.245 0 0 1-.364.275c-.153.108-.307.215-.461.318-.084.056-.177.098-.266.15-.089.05-.173.097-.261.149-.056.037-.108.088-.168.117-.154.065-.318.12-.476.182-.154.065-.266.121-.382.163-.108.037-.22.066-.331.089-.038.01-.08 0-.122.005-.08.014-.158.032-.238.042-.205.028-.41.046-.615.074-.122.015-.238.038-.36.052-.083.004-.172-.005-.256-.005-.06 0-.126.014-.187.005-.097-.014-.195-.037-.293-.056-.023-.005-.056-.014-.075-.005-.037.02-.07-.009-.107 0-.023.005-.047-.014-.07-.014-.019-.004-.042.005-.066 0-.051-.014-.098-.032-.154-.028-.055.005-.112-.023-.172-.037l-.247-.056a.422.422 0 0 1-.093-.042.761.761 0 0 1-.276-.033c-.065-.023-.125-.056-.195-.046-.019.004-.033-.005-.052-.005-.014-.019-.028-.056-.042-.056-.093.005-.149-.074-.228-.098-.042-.014-.075-.06-.117-.075-.102-.042-.186-.13-.303-.144-.037-.005-.074-.024-.116-.038.014.019.023.033.037.047-.135-.066-.261-.14-.387-.21-.018-.005-.032-.023-.046-.033l-.126-.084c-.07.014-.098-.014-.117-.023-.126-.089-.27-.145-.392-.243-.051-.042-.112-.07-.149-.122a.737.737 0 0 0-.233-.182c-.07-.037-.135-.08-.2-.121-.033-.023-.066-.051-.066-.103 0-.033-.014-.065-.056-.047-.018-.028-.037-.06-.06-.07-.056-.023-.094-.065-.136-.102-.042-.038-.074-.089-.125-.108-.094-.037-.15-.116-.206-.182-.13-.154-.247-.322-.368-.485-.01-.014-.028-.024-.042-.038.018.052.042.094.065.14a.28.28 0 0 1-.107-.084c-.005.005.322.542.322.542.028.042.051.084.079.126a.144.144 0 0 1-.14-.075c-.042-.074-.089-.12-.182-.111a.813.813 0 0 1-.023-.103c-.019 0-.033 0-.065-.005.065.103.12.192.182.294l-.047-.028c.083.089.144.201.251.257.024.108.145.159.173.262-.023-.005-.042-.01-.066-.014-.037-.047-.079-.094-.12-.145.008.033.022.06.041.084.056.07.107.14.173.2.023.024.056.034.056.076.037.018.051.023.065.023.01.028-.005.07.051.06.037.07.075.07.126.048.06.06.094.065.135.028 0 .023.005.046.005.065.019-.01.014-.023.014-.047.023.019.037.028.047.038.046.065.088.126.154.177.088.075.168.154.251.224.164.136.346.248.527.35.224.127.439.262.667.383.275.145.57.244.872.314.112.023.22.046.332.074.097.028.195.07.293.094.15.032.303.06.453.088.032.005.065.01.102.014.042.01.093-.009.103.005.023.037.042.019.07.014.032-.01.07-.01.107-.01.13.005.256.033.387.024.028 0 .07-.024.093.023.042-.019.066-.019.084-.023.005.042 0 .042-.009.046-.01.005-.023.01-.042.024.168.032.327.037.466 0 .243.018.453-.01.654-.08.018.024.032.056.06.01.01-.014.033-.02.052-.024.041-.01.093-.028.13-.014.042.014.056-.023.089-.023a.868.868 0 0 0 .158-.014c.028-.005.056-.019.089-.028a.226.226 0 0 0-.103-.024 4.16 4.16 0 0 1 .159-.074c-.01.014-.019.032-.037.032h.065c-.014 0-.033.042-.056.07l.47-.117c-.05-.097.056-.065.094-.12a1.446 1.446 0 0 1-.14.036c.158-.079.322-.149.48-.219-.023.028-.051.042-.093.066.028.004.047.004.06.009.075.023.057-.047.08-.089.089 0 .126-.014.168-.028.046-.014.093-.028.14-.047.074-.032.144-.074.219-.111.014-.005.037 0 .056 0 .051-.033.07-.061.084-.057.065.01.111-.014.13-.074.033-.024.056-.042.08-.056l.302-.168c.037 0 .056 0 .065-.005.061-.029.117-.06.173-.094-.014-.004-.046-.023-.046-.023.046-.01.06-.014.088-.023.112-.131.266-.22.383-.323.05-.004.05-.018.05-.028.02-.023.038-.051.061-.07.103-.093.215-.173.308-.27.135-.136.266-.276.387-.421.112-.131.224-.262.317-.406.13-.201.243-.407.36-.617.083-.15.158-.299.242-.448.009-.014.028-.033.042-.033.126-.014.252-.023.373-.037.028-.005.06-.023.089-.037-.014-.024-.024-.052-.038-.075-.018-.028-.046-.052-.065-.08-.019-.023-.033-.051-.047-.08-.014-.022-.028-.04-.042-.065a1.696 1.696 0 0 1-.08-.158c-.004-.014-.013-.037-.008-.051.084-.182.116-.379.195-.56.08-.188.103-.398.14-.599.033-.191.052-.382.075-.574.014-.135.033-.266.037-.401.028-.215.019-.416.014-.617-.004-.177-.014-.36-.023-.537zM3.248 12.767c-.033-.037-.06-.08-.093-.117l.014-.014c.05.056.102.112.153.173-.028-.014-.06-.023-.074-.042zm.074.042c.015-.005.029-.005.043-.01.014.024.023.052.037.08-.065-.005-.098-.033-.08-.07zm4.85 1.929v-.014l.262-.028v.013a2.51 2.51 0 0 1-.261.028zm1.176-.122c-.065.015-.135.024-.2.033-.024.005-.052.028-.061-.014-.01.005-.019.005-.028.01.023.07.08.014.126.042-.103.014-.2.023-.299.037v-.01l.089-.014v-.013a1.365 1.365 0 0 0-.14-.01c-.014 0-.033.019-.047.024-.018.004-.037.009-.06.009-.08.005-.159.005-.233.01-.005 0-.015-.005-.02-.005V14.7l.934-.125c.004.009.004.018.009.027-.028 0-.047.01-.07.015zm.07-.046c.107-.014.205-.023.308-.037-.215.06-.285.07-.308.037zM5.356 5.142c.149-.205.303-.41.452-.62.047-.062.084-.127.13-.188.015-.019.033-.028.057-.047l-.005-.009c.019-.023.037-.042.047-.06.023-.038.037-.08.056-.122.005-.009.019-.018.019-.018.065.032.065-.038.088-.061a3.24 3.24 0 0 0 .121-.145c.028-.037.056-.07.08-.112.004-.014-.01-.037-.014-.056h-.014l.042-.033c.004 0 .004 0 .009-.004.028-.042.056-.084.084-.122.056-.074.116-.15.182-.214l-.028.065c.004 0 .004.005.01.005.055-.075.116-.145.172-.22-.005-.004-.01-.01-.015-.01-.023.024-.041.048-.065.07-.004-.004-.009-.008-.014-.008.047-.061.094-.122.14-.192a.68.68 0 0 1 .037.07c.02-.046.038-.08.052-.112-.014.014-.033.028-.047.042l-.014-.014.084-.126c.089-.126.177-.257.266-.383.033-.046.074-.084.103-.13.088-.178.228-.318.335-.482.024-.032.056-.06.084-.088.023-.029.042-.019.061.004l.377.481c.094.117.187.229.276.35.107.15.21.3.317.449.121.173.242.346.36.523.176.261.344.523.521.784.13.192.262.379.387.57h-.238c-.219-.004-.443-.023-.662-.014-.298.015-.601.047-.9.07-.378.033-.76.038-1.138.038-.135 0-.27.019-.405.028-.164.01-.322.019-.486.023-.19.01-.377.014-.568.02-.108.004-.22 0-.336 0v-.002zm5.349 2.148v.042c-.005 0-.01.005-.019.005-.018-.066-.037-.136-.06-.201a1.568 1.568 0 0 0-.182-.392c-.094-.131-.178-.266-.271-.402-.023-.033-.056-.06-.084-.088-.098-.108-.196-.22-.322-.3a3.807 3.807 0 0 0-.583-.299 1.307 1.307 0 0 1-.163-.084h.112l.797-.014c.173-.004.34-.004.513-.014.042 0 .065.015.089.052.042.07.084.14.13.21.005.01.014.023.014.037 0 .103 0 .21.005.313.004.108.014.21.018.318 0 .107-.01.22-.004.331.005.16.01.323.01.486zM5.687 5.726c.219-.01.429-.023.643-.032.168-.01.34-.015.508-.024.07-.004.136-.009.206 0-.075.038-.15.075-.215.122-.084.056-.163.13-.247.191-.084.06-.159.136-.229.215-.088.107-.186.2-.28.303-.065.075-.14.145-.196.224-.079.103-.149.215-.223.332.023-.444.051-.883.032-1.331zm3.045 4.493c-.15.037-.303.08-.457.098-.13.019-.266.014-.401.014-.122 0-.238-.005-.36-.014a1.209 1.209 0 0 1-.4-.089c-.113-.051-.229-.098-.34-.154a.9.9 0 0 1-.309-.224c-.06-.075-.144-.136-.22-.201a.22.22 0 0 0 .099.135c-.023.028-.056.015-.103-.06-.014.009-.028.014-.037.018.014-.032.028-.065.042-.093l-.06-.117a3.93 3.93 0 0 1-.108-.187c-.01-.014-.01-.028-.019-.042a1.044 1.044 0 0 1-.065-.084c-.037-.056-.07-.116-.117-.172 0 .014.005.028.005.046-.005 0-.01.005-.01.005l-.097-.238c-.005 0-.005 0-.01.004l.084.309c-.004 0-.009.004-.014.004-.014-.018-.028-.037-.037-.06-.01-.038-.037-.038-.06-.024-.015.01-.024.042-.02.056.034.08.07.16.108.239.01.028.019.051.033.079.005.01.019.019.019.033.018.037.032.074.056.107.042.056.088.112.13.168.042.056.08.117.117.173.004.01.018.01.023.014.023.07.102.121.158.093.015.108.131.145.178.248a2.119 2.119 0 0 1-.136-.061c-.004.005-.004.01-.01.019.057.028.113.056.164.088.047.029.093.056.135.089.056.051.122.08.2.098-.004-.014-.008-.019-.008-.019.13.06.266.126.368.177-.485.01-1.003.02-1.54.029 0-.09-.004-.173-.004-.262 0-.037.01-.07.005-.107-.014-.215-.014-.43-.042-.64a4.575 4.575 0 0 1-.023-.668c.004-.121-.005-.247-.01-.369 0-.163 0-.322.005-.485 0-.024.01-.042.019-.066h.014c.004.01 0 .024.009.028.014.015.037.038.047.033.028-.019.07-.037.08-.066a.458.458 0 0 0 .032-.172c0-.042.018-.07.037-.098.01-.014.014-.028.023-.047-.018-.014-.037-.023-.06-.042.019-.051.014-.112.084-.14.01-.005.01-.028.014-.042l.014-.117c.01.014.014.019.023.028a.074.074 0 0 1 .01-.014c0-.019-.005-.056 0-.056.056-.01.032-.07.06-.098.005-.005-.005-.02-.005-.028 0-.01 0-.024.005-.024.065-.014.056-.084.098-.116.014-.01.019-.024.037-.047.037.065-.028.098-.032.145.079-.047.102-.16.055-.192a.277.277 0 0 0 .052-.051c.051-.056.107-.108.154-.164.032-.041.051-.093.084-.135.018-.023.056-.042.084-.056a.567.567 0 0 0 .214-.177c.01-.01.023-.019.037-.028.014-.01.042-.01.047-.024.005-.009-.01-.032-.019-.046.019-.01.038-.028.075-.047-.014.028-.019.047-.028.066l.023.023c.042-.033.107-.07.15-.098 0-.005-.024-.023-.024-.023-.028.014-.07.037-.112.056.01-.014.01-.024.014-.028.065-.042.13-.084.2-.117.164-.075.327-.15.49-.22.028-.014.066-.004.098-.004.014 0 .023 0 .038-.005.074-.023.149-.046.223-.065a.39.39 0 0 1 .103-.014c.14.004.28.004.42.014.06.004.116.018.172.037.07.024.144.056.21.089.08.042.154.089.228.14.136.089.261.187.397.266.13.08.233.187.317.308.103.145.22.276.266.453l.07.309c.014.056.046.112.032.177-.023.117-.042.238-.06.355-.01.047-.02.094-.014.14.009.145-.047.271-.103.402-.019.042-.047.084-.07.13a.141.141 0 0 0 .037.02l.042-.085c.005 0 .005 0 .01.005-.024.065-.042.136-.066.201-.056.145-.112.294-.182.434-.037.08-.102.145-.149.22-.046.065-.084.135-.13.196-.042.051-.084.103-.14.14a3.577 3.577 0 0 1-.392.261.98.98 0 0 1-.275.103h.001zM6.246 9.97l-.004.004c-.01-.004-.024-.009-.033-.018l-.112-.169c-.01-.013-.014-.027-.01-.046.052.08.103.154.16.229zm2.901.64c.21-.09.383-.215.541-.36.024-.023.047-.047.075-.066.196-.12.34-.289.47-.476.15-.215.248-.457.37-.686a.484.484 0 0 1 .027-.052c-.01.533.052 1.056.121 1.584l-1.604.056zm4.73-.14c-.006.009-.015.018-.02.028-.004-.01-.004-.024-.009-.043-.028.075-.089.038-.13.038-.252.005-.509.005-.76.005-.243 0-.49 0-.733.004-.08 0-.163.018-.242.023-.191.01-.383.014-.574.019-.014 0-.028-.023-.051-.042a.32.32 0 0 1-.028.042c-.005-.01-.014-.018-.024-.032a.272.272 0 0 1-.014.037h-.014c-.009-.065-.028-.126-.028-.192 0-.14.015-.28.02-.42.004-.065 0-.126 0-.187l.05.037a.395.395 0 0 1 .028-.046s-.009-.005-.018-.014c.009-.005.018-.014.018-.019.005-.014.014-.028.014-.037 0-.033-.01-.06-.014-.088.005 0 .01 0 .014-.005l.028.14h.014c-.018-.033.042-.061-.01-.098-.004-.005.006-.033.006-.047-.015-.028-.024-.056-.038-.093.005-.005.019-.01.033-.014-.019-.01-.033-.019-.047-.023.047-.043.047-.066.005-.113.01-.004.019-.004.019-.008 0-.043 0-.085-.01-.126-.009-.047.015-.103-.056-.131.005.014.01.023.02.037 0 0-.015.005-.029.014-.06-.056-.023-.131-.037-.215.032.01.056.019.08.028-.01-.033-.034-.07-.048-.112h-.018V8.51c0 .004.032.004.05.01 0-.006.005-.01.005-.015-.014-.019-.032-.037-.051-.06l.01-.01c-.038-.046-.02-.112-.02-.126v-.327c.048.047-.022.108.048.136V8.07h-.005c-.005-.07-.005-.14-.01-.21h-.009c-.004.01-.004.014-.01.023h-.008l.028-1.116c.046.061.097.117.13.178.107.196.247.364.378.541.112.155.214.323.317.481.126.192.247.383.373.575.093.145.191.29.289.43.088.125.182.247.275.369.08.107.163.214.243.322.093.13.186.261.28.387.046.065.097.13.148.196.029.037.07.066.099.089-.005 0-.01 0-.019-.005.014.019.023.033.033.042.051.028.056.056.028.098zm.237-1.168V9.27c0 .01.005.023 0 .033zm.159-2.059c-.005 0-.033-.028-.038-.033-.004.014 0 .028-.01.047-.004-.014-.036-.01-.036-.023-.005.065.028.13.023.196.014-.01.07-.014.084-.028.005.004.014.009.019.009-.094.07-.07.14-.028.22.009.018.037.056.009.093-.01.01.005.037.01.06h.013v.01l-.042.014c-.01-.014-.065-.042-.065-.066v.239c.046.014.046.08.065.112a.14.14 0 0 0 .019-.037l.005.004c-.005.028-.01.056-.02.084-.008.042-.018.08-.022.121 0 .005.009.015.009.019-.051.117-.023.247-.042.369-.014.088 0 .182-.01.275-.009.08-.028.164-.046.243-.005.014-.014.019-.037.028a.376.376 0 0 0-.005-.145c-.005 0-.066-.032-.07-.032 0 .065.037.154.051.228-.014-.004-.07-.037-.074-.037-.01.056-.01.13-.015.191-.004.047-.046.09-.051.14 0 .029.033.047.028.094h.037c0-.093.042-.177.042-.275h.014c.005.01.019.018.014.023-.009.051-.028.107-.023.159 0 .028.023.056.014.088a.455.455 0 0 0-.019.099c-.005-.024-.01-.033-.01-.047l-.05-.005c-.005.028.032.056.027.08-.004.004-.009.004-.018.009l-.154-.224a47.1 47.1 0 0 1-.364-.537 1.119 1.119 0 0 1-.084-.14 6.548 6.548 0 0 0-.48-.715c-.136-.173-.243-.36-.37-.541-.115-.173-.232-.341-.349-.514-.042-.056-.093-.108-.13-.168-.121-.192-.229-.388-.35-.58-.102-.158-.214-.312-.321-.466-.038-.052-.075-.108-.112-.164a.065.065 0 0 1-.01-.032c-.01-.103-.018-.206-.023-.304 0-.093.01-.187.01-.285v-.084c0-.023.004-.042.004-.065.004-.005.009-.014.014-.019-.136 0-.276-.005-.41 0-.09.005-.136-.033-.197-.098-.177-.2-.307-.43-.461-.644a28.794 28.794 0 0 0-.443-.608c-.122-.163-.243-.322-.364-.485-.136-.187-.266-.374-.406-.56-.168-.225-.34-.45-.513-.673-.08-.103-.168-.2-.257-.308.06.01.117.018.173.023l.224.014c.168.014.335.023.503.046.14.02.28.047.425.07.308.052.61.136.905.234.172.056.34.13.508.2.378.155.737.342 1.091.538.112.06.177.159.261.247.122.127.243.253.36.383.134.154.26.313.391.472.116.14.237.28.354.42.038.042.066.094.098.14.075.113.159.22.224.341.047.09.075.192.107.29l.14.43c.033.107.06.22.084.331.019.075.014.154.037.229.028.098 0 .205.028.304l.014.032c.019.019.033.038.005.066-.005.004-.005.023 0 .037.01-.01.014-.019.023-.033 0 .01.005.014.005.019 0 .018-.005.037 0 .056 0 .009.009.023.014.032.009-.01.018-.014.037-.028.042.159.047.318.047.481 0 .154.027.308-.038.458.014-.052-.018-.099-.004-.145l.002.001z"/><path fill="#DD3735" d="M12.03 13.674a.441.441 0 0 1-.169.084c-.005-.005-.005-.01-.01-.014l.16-.098c.004.009.014.018.018.028zM3.284 7.346c.052-.065.103-.13.159-.196.004.005.041.014.046.019-.051.065-.121.154-.173.224-.01-.01-.023-.042-.032-.047zM1.961 9.635c-.038-.08-.075-.164-.112-.243a.161.161 0 0 1 .042-.019c.051.075.074.163.112.243 0 0-.038.019-.042.019zM3.15 7.393l-.084.131c-.005-.005-.056.019-.06.014.027-.042.097-.117.125-.159.005.005.01.01.019.014zm8.38 6.473c.005 0 .005-.005.01-.005.032.005.07.01.107.01-.061.041-.098.037-.117-.005zM3.16 7.589a.196.196 0 0 1 .023-.042c.01 0 .023-.005.023-.005.02-.032.02-.056.038-.084-.005-.004-.01-.004-.014-.009-.028.02-.056.043-.084.061.01.01.01.014.01.024-.038-.005-.052.014-.07.065-.005.014-.029.019-.052.037-.005.01-.01.033-.019.056l.005.005c-.01.01-.023.014-.023.014-.028.028-.06.052-.089.08-.004.014-.009.028-.009.042.033-.033.089-.094.13-.131l.005.005c.019-.028.033-.056.052-.084.004.004.004.009.009.014l-.042.116c-.01.005-.024.014-.024.01-.018.014-.032.032-.051.046l-.084.056c-.047.042-.093.08-.145.122-.032.05-.065.098-.102.158.056-.014.07.01.065.056.065.01.07-.042.089-.079.004-.01.01-.028.018-.033.042-.037.089-.07.136-.107.009-.01.009-.028.009-.042 0-.005-.024-.005-.038-.01.042-.046.103-.125.145-.177.023-.014.047-.033.047-.047-.005-.051.028-.065.065-.084-.019-.014-.023-.028-.023-.032z"/><path fill="#DD3735" d="M3.252 7.538c-.018.032-.037.06-.055.093l-.028-.014c-.019.107-.084.2-.15.22.019.009.038.018.052.013.014-.004.023-.028.032-.042l.126-.182.042-.07-.018-.019zM1.7 9.588c.023 0 .046.004.074.004 0-.018.024-.014.024-.032h.014c0 .023.004.042.004.065H1.72c-.005-.004-.024-.033-.02-.037zm-.038-.215c-.014-.014-.037-.028-.037-.042-.005-.018.01-.042.023-.065.01.033.014.06.024.093-.005.005-.01.01-.01.014zm.117-.299c.019.047.037.099.056.145a.146.146 0 0 0-.037.019c-.019-.047-.042-.098-.06-.145a.116.116 0 0 1 .041-.019zM12.16 13.54c.023-.01.051-.014.089-.023-.042.032-.075.056-.103.084-.005-.005-.01-.01-.014-.01.01-.018.019-.032.028-.051zM6.428 3.67l.08-.051.009.01c-.029.036-.052.074-.085.12-.004-.032-.004-.05-.009-.074-.005 0 0 0 .005-.004zm1.366 2.363l.136-.06c-.005.027-.005.046-.005.065a.164.164 0 0 0-.047-.01c-.028.005-.08.043-.103.047-.004 0 .02-.037.02-.042zm3.499 3.96c.009.047.097.07.009.117.014.01.028.014.042.024a.035.035 0 0 1-.01.018c-.009.005-.028.014-.037.01-.005 0-.014-.02-.014-.029 0-.042.005-.084.01-.14z"/></g></svg>