<svg xmlns="http://www.w3.org/2000/svg" width="16" height="16" viewBox="0 0 16 16">
  <g fill="none" fill-rule="evenodd">
    <path fill="#9AA7B0" d="M10.2683248,11.216167 C9.40068431,10.8082086 8.80001481,9.9262579 8.80001481,8.90401328 C8.80001481,7.83234575 9.46017002,6.91486572 10.3960038,6.53604983 L10.3960038,9.15937158 L12.3111906,9.15937158 L12.3111906,6.53604983 C13.2470244,6.91486572 13.9071796,7.83234575 13.9071796,8.90401328 C13.9071796,9.92625778 13.3065103,10.8082084 12.4388699,11.2161669 L12.4388699,16.5711446 L10.2683248,16.5711446 L10.2683248,11.216167 Z" transform="rotate(45 11.354 11.554)"/>
    <path fill="#F4AF3D" fill-opacity=".6" d="M14.7232715,6.04472973 C14.2447569,5.82321227 13.711664,5.6996 13.1497,5.6996 C11.0786322,5.6996 9.3997,7.37853219 9.3997,9.4496 C9.3997,9.6334761 9.41293412,9.8142612 9.43850182,9.99105477 L5.07027825,14.3592783 C2.66750402,13.2504826 1,10.8199785 1,8 C1,4.134 4.134,1 8,1 C11.1873557,1 13.877148,3.13027836 14.7232715,6.04472973 Z"/>
    <path fill="#231F20" fill-opacity=".7" d="M1.8125,3 C2.7765,3 3,2.6742 3,2.0492 L3,2.0322 C3,1.3292 2.7605,1 1.8125,1 L1.0005,1 L1.0005,3 L1.8125,3 Z M0.0005,0.0002 L1.8325,0.0002 C3.1675,0.0002 4.0005,0.7972 4.0005,2.0062 C4.0005,3.3692 2.9725,4 1.7175,4 L1.0005,3.9842 L1.0005,6.0002 L0.0005,6.0002 L0.0005,0.0002 Z" transform="translate(6 5)"/>
  </g>
</svg>
