<svg ti:v="1" width="16" height="16" viewBox="0 0 16 16" xmlns="http://www.w3.org/2000/svg" xmlns:ti="urn:schemas-jetbrains-com:tisvg"><rect id="frame" width="16" height="16" fill="none"/><path d="M3 7V4.5A2.5 2.5 0 0 1 5.5 2H11V1h3v1.5A2.5 2.5 0 0 1 11.5 5H6v2zm0 0" fill="#F4F4F4"/><path d="M13 15H4a3 3 0 0 1-3-3V7a3.001 3.001 0 0 1 3-3h9a3.001 3.001 0 0 1 3 3v5a3.001 3.001 0 0 1-3 3z" fill="#F4F4F4"/><path d="M5 6H4V4.5A1.5 1.5 0 0 1 5.5 3h6a.5.5 0 0 0 .5-.5V2h1v.5A1.5 1.5 0 0 1 11.5 4h-6a.5.5 0 0 0-.5.5zm0 0" fill="#323232"/><path d="M13 14H4a2 2 0 0 1-2-2V7a2 2 0 0 1 2-2h9a2 2 0 0 1 2 2v5a2 2 0 0 1-2 2z" fill="#323232"/><path d="M13 13H4a1 1 0 0 1-1-1V7a1 1 0 0 1 1-1h9a1 1 0 0 1 1 1v5a1 1 0 0 1-1 1z" fill="#EBEBEB"/><path d="M4 7h1v1H4z" fill="#323232"/><path d="M6 7h1v1H6z" fill="#323232"/><path d="M8 7h1v1H8z" fill="#323232"/><path d="M10 7h1v1h-1z" fill="#323232"/><path d="M12 7h1v1h-1z" fill="#323232"/><path d="M5 9h1v1H5z" fill="#323232"/><path d="M7 9h1v1H7z" fill="#323232"/><path d="M9 9h1v1H9z" fill="#323232"/><path d="M11 9h1v1h-1z" fill="#323232"/><path d="M6 11h5v1H6z" fill="#323232"/></svg>