<svg ti:v="1" width="16" height="16" viewBox="0 0 16 16" xmlns="http://www.w3.org/2000/svg" xmlns:ti="urn:schemas-jetbrains-com:tisvg"><rect id="frame" width="16" height="16" fill="none"/><g fill-rule="evenodd"><path d="M10.63 13L8 10.746 5.37 13H3.586L0 9.414V5.586L3.586 2H5.37L8 4.254 10.63 2h1.784L16 5.586v3.828L12.414 13H10.63z" fill="#242424"/><path d="M14.293 5.293L12 3v3l.793.793 1.5-1.5z" fill="#C4C4C4"/><path d="M15 9l-3 3V9l3-3v3z" fill="#C4C4C4"/><path d="M1.707 9.707L4 12V9l-.793-.793-1.5 1.5z" fill="#C4C4C4"/><path d="M1 9l3-3V3L1 6v3z" fill="#C4C4C4"/><path d="M8.768 10.087L11 12h1V9l-.982-.842-2.25 1.929z" fill="#C4C4C4"/><path d="M7.232 4.913L5 3H4v3l.982.842 2.25-1.929z" fill="#C4C4C4"/><path d="M12 6V3h-1L4 9v3h1l7-6z" fill="#C4C4C4"/></g></svg>