<svg ti:v="1" width="16" height="16" viewBox="0 0 16 16" xmlns="http://www.w3.org/2000/svg" xmlns:ti="urn:schemas-jetbrains-com:tisvg"><rect id="frame" width="16" height="16" fill="none"/><linearGradient id="a" x1=".5" y1="0" x2=".5" y2="1.006"><stop offset="0" stop-color="#666C72"/><stop offset="1" stop-color="#464A4E"/></linearGradient><path fill-rule="evenodd" d="M10.63 13L8 10.746 5.37 13H3.586L0 9.414V5.586L3.586 2H5.37L8 4.254 10.63 2h1.784L16 5.586v3.828L12.414 13H10.63z" fill="url(#a)"/><linearGradient id="b" x1="0" y1=".5" x2="1" y2=".5"><stop offset="0" stop-color="#79C9FF"/><stop offset="1" stop-color="#4BA4FF"/></linearGradient><path fill-rule="evenodd" d="M14.293 5.293L12 3v3l.793.793 1.5-1.5z" fill="url(#b)"/><linearGradient id="c" x1="0" y1=".5" x2="1" y2=".5"><stop offset="0" stop-color="#67D400"/><stop offset="1" stop-color="#B5FF6C"/></linearGradient><path fill-rule="evenodd" d="M15 9l-3 3V9l3-3v3z" fill="url(#c)"/><linearGradient id="d" x1="0" y1=".5" x2="1" y2=".5"><stop offset="0" stop-color="#79C9FF"/><stop offset="1" stop-color="#4BA4FF"/></linearGradient><path fill-rule="evenodd" d="M1.707 9.707L4 12V9l-.793-.793-1.5 1.5z" fill="url(#d)"/><linearGradient id="e" x1="0" y1=".5" x2="1" y2=".5"><stop offset="0" stop-color="#67D400"/><stop offset="1" stop-color="#B5FF6C"/></linearGradient><path fill-rule="evenodd" d="M1 9l3-3V3L1 6v3z" fill="url(#e)"/><path fill-rule="evenodd" d="M8.768 10.087L11 12h1V9l-.982-.842-2.25 1.929z" fill="#FFE100"/><path fill-rule="evenodd" d="M7.232 4.913L5 3H4v3l.982.842 2.25-1.929z" fill="#FFE100"/><linearGradient id="f" x1=".379" y1=".368" x2=".621" y2=".632"><stop offset="0" stop-color="#FF986A"/><stop offset="1" stop-color="#CC1500"/></linearGradient><path fill-rule="evenodd" d="M12 6V3h-1L4 9v3h1l7-6z" fill="url(#f)"/></svg>