<svg width="24" height="24" viewBox="0 0 24 24" fill="none" xmlns="http://www.w3.org/2000/svg">
<path d="M24 9.35L7.17505 0L18.45 16.75L20.75 15.225L24 9.35Z" fill="url(#paint0_linear)"/>
<path d="M17.3 5.525L15.175 0.375L10.525 4.975L12.425 21.625L16.95 24L24 19.875L17.3 5.525Z" fill="url(#paint1_linear)"/>
<path d="M7.175 0L0 4.825L2.675 21.325L9.55 23.95L18.45 16.75L7.175 0Z" fill="url(#paint2_linear)"/>
<path d="M20 4H4V20H20V4Z" fill="url(#paint3_linear)"/>
<path d="M12 17H6V18H12V17Z" fill="white"/>
<path d="M14.3 6H12V12H14.5C16.3 11.9 17.5 10.7 17.5 9C17.5 7.3 16.2 6 14.3 6ZM16.1 9C16.1 10.1 15.4 10.8 14.3 10.8H13.3V7.2H14.3C15.3 7.2 16.1 8 16.1 9Z" fill="white"/>
<path d="M5.99993 6H8.7466C9.51993 6 10.0799 6.21333 10.5066 6.61333C10.8533 6.96 11.0133 7.41333 11.0133 7.97333V8C11.0133 8.48 10.9066 8.88 10.6666 9.2C10.4266 9.49333 10.1066 9.73333 9.73327 9.86667L11.1999 12H9.65327L8.39993 10.16H7.3066V12H5.97327V6H5.99993ZM8.6666 8.90667C8.9866 8.90667 9.25327 8.82667 9.41327 8.66667C9.59993 8.50667 9.67993 8.29333 9.67993 8.05333V8.02667C9.67993 7.73333 9.59993 7.52 9.41327 7.38667C9.2266 7.25333 8.9866 7.17333 8.63993 7.17333H7.33327V8.90667H8.6666Z" fill="white"/>
<defs>
<linearGradient id="paint0_linear" x1="22.4571" y1="13.749" x2="3.95735" y2="3.1326" gradientUnits="userSpaceOnUse">
<stop offset="0" stop-color="#DD1265"/>
<stop offset="0.4834" stop-color="#DD1265"/>
<stop offset="0.9424" stop-color="#FDB60D"/>
</linearGradient>
<linearGradient id="paint1_linear" x1="11.4568" y1="2.09565" x2="18.7902" y2="22.3456" gradientUnits="userSpaceOnUse">
<stop offset="0.1392" stop-color="#087CFA"/>
<stop offset="0.4757" stop-color="#DD1265"/>
<stop offset="0.9581" stop-color="#087CFA"/>
</linearGradient>
<linearGradient id="paint2_linear" x1="5.96405" y1="2.72013" x2="11.3807" y2="21.9701" gradientUnits="userSpaceOnUse">
<stop offset="0.2775" stop-color="#DD1265"/>
<stop offset="0.9684" stop-color="#FDB60D"/>
</linearGradient>
<linearGradient id="paint3_linear" x1="12" y1="0.129" x2="12" y2="14.4779" gradientUnits="userSpaceOnUse">
<stop offset="0.0842986" stop-color="#878585"/>
<stop offset="0.5377"/>
</linearGradient>
</defs>
</svg>
