<svg ti:v="1" width="599" height="103" viewBox="0 0 599 103" xmlns="http://www.w3.org/2000/svg" xmlns:ti="urn:schemas-jetbrains-com:tisvg"><rect id="frame" width="599" height="103" fill="none"/><g fill-rule="evenodd"><path d="M283 79V36h-61l35 43h26z" fill="#68992C" opacity=".333"/><path d="M275 20c4.971 0 11.01 6.721 13.5 15s.471 15-4.5 15h-51c-4.971 0-12-3.12-12-15 0-11.88 7.029-15 12-15h42z" fill="#FFF"/><path d="M233 48c-2.346 0-10-.938-10-13 0-12.063 7.654-13 10-13h42c3.548 0 9.179 5.575 11.585 13.576 1.409 4.685 1.289 9.098-.305 11.242-.592.795-1.338 1.182-2.28 1.182h-51z" fill="#72A332"/><path d="M271.21 35.37c-1.239-4.479-1.149-8.54.011-11.37h-1.141c-.95 2.74-.88 6.65.42 11 1.3 4.349 3.59 8.26 6.18 11h.34c-2.5-2.651-4.629-6.42-5.81-10.63z" fill="#FFF"/><path d="M282.5 35c2.32-7.74 7.68-15 12.5-15h97c4.971 0 11 3.12 11 15 0 11.88-6.029 15-11 15H287c-4.971 0-6.99-6.721-4.5-15z" fill="#FFF"/><path d="M287 48c-.942 0-1.688-.387-2.28-1.182-1.594-2.144-1.714-6.557-.305-11.242C286.621 28.216 291.469 22 295 22h97c3.361 0 9 1.689 9 13 0 11.312-5.639 13-9 13H287z" fill="#A3B0CC"/><path d="M391.269 46c-1.959-2.3-3.27-6.37-3.27-11s1.311-8.7 3.27-11h-1c-1.959 2.3-3.27 6.37-3.27 11s1.311 8.7 3.27 11h1z" fill="#FFF"/><path d="M391.269 46c-1.959-2.3-3.27-6.37-3.27-11s1.311-8.7 3.27-11h-1c-1.959 2.3-3.27 6.37-3.27 11s1.311 8.7 3.27 11h1z" fill="#FFF"/><path d="M279.12 74c1.659 0 3.68 2.24 4.5 5 .83 2.76.159 5-1.5 5H259c-1.66 0-4-1.04-4-5s2.34-5 4-5h20.12z" fill="#FFF"/><path d="M259 82c-1.309 0-2-1.037-2-3s.691-3 2-3h20.12c.463.043 1.911 1.311 2.583 3.57.368 1.225.297 2.076.177 2.43H259z" fill="#72A332"/><path d="M277.83 78.17a7.654 7.654 0 0 1-.03-1.17h-.861a8.16 8.16 0 0 0 .351 2c.22.71.51 1.391.851 2h.378a9.812 9.812 0 0 1-.689-2.83z" fill="#FFF"/><path d="M281.83 79c.779-2.58 2.561-5 4.17-5h26c1.66 0 4 1.04 4 5s-2.34 5-4 5h-28.67c-1.65 0-2.33-2.24-1.5-5z" fill="#FFF"/><path d="M283.578 82c-.107-.322-.222-1.131.167-2.424.633-2.094 1.859-3.46 2.312-3.576H312c1.308 0 2 1.037 2 3s-.692 3-2 3h-28.422z" fill="#A3B0CC"/><path d="M311.33 81a5.99 5.99 0 0 1-.33-2c0-.73.12-1.41.33-2h-1a5.99 5.99 0 0 0-.33 2c0 .73.12 1.41.33 2h1z" fill="#FFF"/><path d="M50.666 24.952l-2.064 5.28h4.152m-3.528-10.224h3.096L59.714 37H55.49l-1.464-3.6h-6.6L46.01 37h-4.128l7.344-16.992z" fill="#FFF"/><path d="M64.563 33.544h1.942c.866 0 1.669-.088 2.413-.264.744-.175 1.388-.468 1.931-.876a4.194 4.194 0 0 0 1.285-1.608c.313-.664.469-1.476.469-2.436 0-.832-.156-1.556-.468-2.171a4.354 4.354 0 0 0-1.26-1.525 5.553 5.553 0 0 0-1.862-.9 8.286 8.286 0 0 0-2.243-.3h-2.207m-3.745-3.456h5.617c1.358 0 2.65.152 3.876.456 1.223.305 2.291.796 3.202 1.476.912.68 1.637 1.564 2.173 2.652.536 1.089.804 2.408.804 3.96 0 1.377-.26 2.589-.78 3.637a7.824 7.824 0 0 1-2.1 2.639 9.284 9.284 0 0 1-3.047 1.62c-1.153.368-2.36.552-3.624.552h-6.12V20.008z" fill="#FFF"/><path d="M87.219 31.312c0 .784-.068 1.545-.205 2.28a5.106 5.106 0 0 1-.779 1.956c-.385.569-.933 1.025-1.645 1.368-.712.344-1.643.516-2.796.516-1.344 0-2.48-.32-3.407-.96-.93-.639-1.53-1.639-1.801-3l3.432-.84c.049.416.236.769.564 1.057.328.287.699.432 1.116.432.432 0 .768-.109 1.008-.325.241-.215.416-.483.529-.803.111-.321.179-.668.203-1.044.024-.376.037-.724.037-1.044V20.008h3.744v11.304z" fill="#FFF"/><path d="M104.162 30.448c0 1.008-.152 1.936-.456 2.784a6.115 6.115 0 0 1-1.357 2.208c-.599.624-1.347 1.112-2.244 1.464-.896.352-1.927.527-3.095.527-1.184 0-2.225-.175-3.119-.527-.897-.352-1.645-.84-2.245-1.464a6.126 6.126 0 0 1-1.356-2.208c-.304-.848-.456-1.776-.456-2.784v-10.44h3.744v10.295c0 .529.084 1.017.252 1.464.168.449.404.837.708 1.164.304.329.668.585 1.092.769.424.184.884.275 1.38.275.496 0 .952-.091 1.368-.275.416-.184.776-.44 1.08-.769.304-.327.54-.715.708-1.164a4.13 4.13 0 0 0 .252-1.464V20.008h3.744v10.44z" fill="#FFF"/><path d="M115.418 24.16c-.305-.384-.717-.668-1.236-.853a4.452 4.452 0 0 0-1.476-.275c-.272 0-.552.032-.84.096a3.22 3.22 0 0 0-.816.3 1.779 1.779 0 0 0-.624.54c-.16.224-.24.496-.24.816 0 .512.192.904.576 1.176.385.272.868.504 1.452.696.584.192 1.212.384 1.884.576.672.192 1.3.464 1.884.816a4.46 4.46 0 0 1 1.452 1.416c.384.592.576 1.384.576 2.376 0 .944-.176 1.768-.528 2.471a5.02 5.02 0 0 1-1.427 1.753 6.09 6.09 0 0 1-2.089 1.032 9.174 9.174 0 0 1-2.508.335c-1.104 0-2.128-.167-3.071-.503-.946-.336-1.824-.88-2.641-1.632l2.664-2.928c.384.512.867.908 1.451 1.188a4.091 4.091 0 0 0 2.737.312c.312-.072.591-.18.84-.324.248-.144.448-.328.6-.552.151-.224.228-.488.228-.792 0-.512-.196-.916-.588-1.212-.393-.296-.884-.548-1.476-.756a46.222 46.222 0 0 0-1.92-.624 8.587 8.587 0 0 1-1.921-.841 4.596 4.596 0 0 1-1.474-1.391c-.393-.576-.589-1.336-.589-2.28 0-.913.181-1.712.54-2.4.36-.688.84-1.264 1.439-1.728a6.275 6.275 0 0 1 2.077-1.044 8.49 8.49 0 0 1 2.423-.348c.961 0 1.889.136 2.786.408a6.436 6.436 0 0 1 2.423 1.367l-2.568 2.809z" fill="#FFF"/><path d="M123.482 23.32h-4.849v-3.313h13.441v3.313h-4.849V37h-3.743V23.32z" fill="#FFF"/><path d="M143.161 23.32h-4.849v-3.313h13.441v3.313h-4.849V37h-3.743V23.32z" fill="#FFF"/><path d="M153.001 20.008h3.743V37h-3.743V20.008z" fill="#FFF"/><path d="M159.553 20.008h5.664l3.912 11.088h.048l3.937-11.088h5.639V37h-3.744V23.968h-.048L170.496 37h-2.855l-4.296-13.032h-.048V37h-3.744V20.008z" fill="#FFF"/><path d="M181.752 20.008h11.545v3.456h-7.801v3.168h7.368v3.456h-7.368v3.456h8.233V37h-11.977V20.008z" fill="#FFF"/><path d="M40.99 46.15h6.012v1.8H42.94v1.649h3.838V51.4H42.94v1.8h4.287V55H40.99v-8.85z" fill="#525F85"/><path d="M53.165 48.313a1.38 1.38 0 0 0-.644-.443 2.307 2.307 0 0 0-.769-.145c-.141 0-.287.018-.437.051-.15.033-.292.085-.425.156a.914.914 0 0 0-.325.281.714.714 0 0 0-.125.425c0 .267.1.471.3.613.2.141.452.262.757.362.303.1.63.2.98.3.351.1.678.242.982.425.304.183.556.429.756.738.2.308.3.72.3 1.237 0 .492-.092.921-.275 1.287a2.614 2.614 0 0 1-.743.913 3.175 3.175 0 0 1-1.088.537 4.765 4.765 0 0 1-1.307.175 4.744 4.744 0 0 1-1.6-.262 4.035 4.035 0 0 1-1.375-.85l1.388-1.525c.2.267.452.473.756.619a2.16 2.16 0 0 0 1.425.163 1.59 1.59 0 0 0 .438-.169.94.94 0 0 0 .312-.288.718.718 0 0 0 .119-.412.748.748 0 0 0-.306-.631 2.823 2.823 0 0 0-.769-.395 25.445 25.445 0 0 0-1-.324 4.539 4.539 0 0 1-1-.438 2.409 2.409 0 0 1-.769-.725c-.204-.3-.306-.696-.306-1.188 0-.474.094-.891.281-1.25.188-.358.438-.658.75-.899a3.26 3.26 0 0 1 1.082-.544 4.417 4.417 0 0 1 1.262-.182c.5 0 .983.072 1.45.213.467.142.887.379 1.262.712l-1.337 1.463z" fill="#525F85"/><path d="M57.677 47.875h-2.525V46.15h7v1.725h-2.525V55h-1.95v-7.125z" fill="#525F85"/><path d="M63.115 46.15h1.949V55h-1.949v-8.85z" fill="#525F85"/><path d="M66.84 46.15h2.949l2.038 5.774h.025l2.05-5.774h2.938V55h-1.95v-6.787h-.026L72.539 55h-1.487l-2.237-6.787h-.026V55h-1.95v-8.85z" fill="#525F85"/><path d="M82.302 48.725l-1.075 2.75h2.162m-1.837-5.324h1.612L87.014 55h-2.199l-.763-1.875h-3.438L79.877 55h-2.15l3.825-8.849z" fill="#525F85"/><path d="M89.614 47.875H87.09V46.15h7v1.725h-2.526V55h-1.95v-7.125z" fill="#525F85"/><path d="M95.152 46.15h6.012v1.8h-4.063v1.649h3.838V51.4h-3.838v1.8h4.287V55h-6.236v-8.85z" fill="#525F85"/><path d="M108.363 47.875h-2.524V46.15h7v1.725h-2.525V55h-1.951v-7.125z" fill="#525F85"/><path d="M113.826 46.15h1.95v3.3h3.788v-3.3h1.95V55h-1.95v-3.826h-3.788V55h-1.95v-8.85z" fill="#525F85"/><path d="M123.389 46.15h6.012v1.8h-4.063v1.649h3.838V51.4h-3.838v1.8h4.288V55h-6.237v-8.85z" fill="#525F85"/><path d="M136.838 49.9h1.301c.175 0 .344-.017.506-.051.162-.033.308-.089.437-.168a.896.896 0 0 0 .313-.325 1.03 1.03 0 0 0 .119-.519c0-.225-.053-.406-.156-.543a1.05 1.05 0 0 0-.401-.32 1.74 1.74 0 0 0-.544-.143 5.507 5.507 0 0 0-.575-.032h-1m-1.949-1.649h3.287c.458 0 .891.041 1.3.125.408.083.764.227 1.069.431.304.204.545.479.725.825.179.346.268.781.268 1.306 0 .517-.083.95-.25 1.3-.167.35-.395.629-.687.837a2.793 2.793 0 0 1-1.037.445c-.401.086-.833.13-1.3.13h-1.426V55h-1.949v-8.85z" fill="#525F85"/><path d="M144.313 50.575c0 .417.064.798.193 1.144a2.542 2.542 0 0 0 1.425 1.494c.338.141.715.212 1.132.212.417 0 .794-.071 1.131-.212a2.546 2.546 0 0 0 1.425-1.494 3.25 3.25 0 0 0 .194-1.144c0-.408-.065-.788-.194-1.138a2.622 2.622 0 0 0-.556-.906 2.546 2.546 0 0 0-.869-.594 2.904 2.904 0 0 0-1.131-.213c-.417 0-.794.072-1.132.213a2.542 2.542 0 0 0-1.425 1.5c-.129.35-.193.73-.193 1.138zm-2.025 0c0-.708.119-1.351.356-1.925a4.211 4.211 0 0 1 .994-1.469 4.386 4.386 0 0 1 1.512-.931 5.449 5.449 0 0 1 1.913-.325c.691 0 1.329.108 1.912.325a4.39 4.39 0 0 1 1.513.931c.425.405.756.894.994 1.469.237.574.355 1.217.355 1.925s-.118 1.35-.355 1.925a4.238 4.238 0 0 1-.994 1.469 4.39 4.39 0 0 1-1.513.931 5.466 5.466 0 0 1-1.912.324 5.472 5.472 0 0 1-1.913-.324 4.386 4.386 0 0 1-1.512-.931 4.211 4.211 0 0 1-.994-1.469c-.237-.575-.356-1.217-.356-1.925z" fill="#525F85"/><path d="M157.538 48.313a1.38 1.38 0 0 0-.644-.443 2.307 2.307 0 0 0-.769-.145c-.141 0-.287.018-.438.051a1.639 1.639 0 0 0-.423.156.92.92 0 0 0-.327.281.721.721 0 0 0-.125.425c0 .267.101.471.301.613.199.141.451.262.756.362.305.1.631.2.981.3.351.1.677.242.982.425.305.183.557.429.756.738.2.308.301.72.301 1.237 0 .492-.092.921-.276 1.287a2.606 2.606 0 0 1-.744.913 3.158 3.158 0 0 1-1.088.537 4.757 4.757 0 0 1-1.306.175 4.74 4.74 0 0 1-1.6-.262 4.035 4.035 0 0 1-1.375-.85l1.389-1.525c.199.267.451.473.755.619a2.163 2.163 0 0 0 1.425.163 1.59 1.59 0 0 0 .438-.169.93.93 0 0 0 .312-.288.718.718 0 0 0 .118-.412.747.747 0 0 0-.305-.631 2.808 2.808 0 0 0-.769-.395 25.445 25.445 0 0 0-1-.324 4.56 4.56 0 0 1-1-.438 2.42 2.42 0 0 1-.769-.725c-.203-.3-.306-.696-.306-1.188 0-.474.094-.891.281-1.25.188-.358.438-.658.75-.899a3.265 3.265 0 0 1 1.081-.544 4.43 4.43 0 0 1 1.263-.182c.5 0 .983.072 1.45.213.467.142.887.379 1.262.712l-1.337 1.463z" fill="#525F85"/><path d="M164.713 48.313a1.38 1.38 0 0 0-.644-.443 2.301 2.301 0 0 0-.768-.145 2.04 2.04 0 0 0-.438.051c-.15.033-.292.085-.425.156a.914.914 0 0 0-.325.281.707.707 0 0 0-.125.425c0 .267.1.471.3.613.2.141.452.262.757.362.303.1.631.2.98.3.35.1.678.242.982.425.304.183.556.429.757.738.199.308.299.72.299 1.237 0 .492-.092.921-.275 1.287-.183.367-.43.671-.743.913a3.166 3.166 0 0 1-1.088.537 4.765 4.765 0 0 1-1.307.175 4.734 4.734 0 0 1-1.599-.262 4.016 4.016 0 0 1-1.375-.85l1.387-1.525c.201.267.453.473.756.619a2.157 2.157 0 0 0 1.425.163 1.59 1.59 0 0 0 .438-.169.94.94 0 0 0 .312-.288.718.718 0 0 0 .119-.412.748.748 0 0 0-.306-.631 2.823 2.823 0 0 0-.769-.395 24.913 24.913 0 0 0-1-.324 4.539 4.539 0 0 1-1-.438 2.395 2.395 0 0 1-.768-.725c-.205-.3-.307-.696-.307-1.188 0-.474.094-.891.281-1.25.188-.358.438-.658.75-.899a3.26 3.26 0 0 1 1.082-.544 4.412 4.412 0 0 1 1.262-.182c.5 0 .983.072 1.45.213a3.36 3.36 0 0 1 1.263.712l-1.338 1.463z" fill="#525F85"/><path d="M167.488 46.15h1.949V55h-1.949v-8.85z" fill="#525F85"/><path d="M173.162 53.35h1.75c.15 0 .303-.017.457-.05.154-.033.293-.092.418-.175a.986.986 0 0 0 .307-.325.94.94 0 0 0 .119-.487.788.788 0 0 0-.156-.506.99.99 0 0 0-.395-.294 2.085 2.085 0 0 0-.512-.138 3.796 3.796 0 0 0-.512-.037h-1.476m0-1.65h1.413c.15 0 .298-.017.443-.05.146-.033.278-.088.394-.163a.827.827 0 0 0 .281-.3.884.884 0 0 0 .107-.45.826.826 0 0 0-.118-.456.852.852 0 0 0-.307-.281 1.448 1.448 0 0 0-.425-.144 2.57 2.57 0 0 0-.463-.044h-1.325m-1.949-1.649h3.3c.382 0 .768.026 1.156.081.388.054.735.162 1.044.325.307.162.557.39.75.681.191.292.287.679.287 1.163 0 .5-.14.914-.419 1.243a2.306 2.306 0 0 1-1.106.706v.025c.291.042.556.123.793.245.238.12.443.274.613.461.171.188.302.407.394.657.092.25.137.516.137.799 0 .467-.1.857-.3 1.169-.2.313-.458.565-.774.757a3.4 3.4 0 0 1-1.07.412c-.395.083-.79.125-1.18.125h-3.625v-8.849z" fill="#525F85"/><path d="M179.388 46.15h1.95v7.05h3.613V55h-5.563v-8.85z" fill="#525F85"/><path d="M186.1 46.15h6.013v1.8h-4.063v1.649h3.838V51.4h-3.838v1.8h4.288V55H186.1v-8.85z" fill="#525F85"/><path d="M100.989 68.375c-.575.3-1.175.517-1.8.65s-1.263.2-1.912.2c-.692 0-1.33-.109-1.913-.325a4.384 4.384 0 0 1-1.513-.931 4.238 4.238 0 0 1-.994-1.469c-.236-.575-.355-1.217-.355-1.925s.119-1.35.355-1.925a4.225 4.225 0 0 1 .994-1.468c.426-.405.93-.715 1.513-.932a5.445 5.445 0 0 1 1.913-.325 7.07 7.07 0 0 1 1.955.257 3.837 3.837 0 0 1 1.569.88l-1.375 1.5a2.748 2.748 0 0 0-.899-.625c-.334-.141-.75-.212-1.25-.212-.418 0-.795.071-1.132.212a2.532 2.532 0 0 0-1.425 1.5c-.128.35-.193.73-.193 1.138 0 .417.065.798.193 1.144.129.345.315.645.557.9.24.254.531.452.868.594.337.141.714.212 1.132.212.424 0 .791-.048 1.1-.144.308-.095.553-.193.737-.294V65.55h-1.587v-1.8h3.462v4.625z" fill="#525F85"/><path d="M102.777 60.15h1.949v7.05h3.614V69h-5.563v-8.85z" fill="#525F85"/><path d="M110.965 64.575c0 .417.064.798.193 1.144.129.345.315.645.557.9.24.254.531.452.868.594.337.141.714.212 1.132.212.416 0 .793-.071 1.131-.212.338-.142.627-.34.869-.594.24-.255.426-.555.556-.9a3.25 3.25 0 0 0 .194-1.144c0-.408-.065-.788-.194-1.138a2.652 2.652 0 0 0-.556-.906 2.546 2.546 0 0 0-.869-.594 2.911 2.911 0 0 0-1.131-.213c-.418 0-.795.072-1.132.213a2.532 2.532 0 0 0-1.425 1.5c-.129.35-.193.73-.193 1.138zm-2.025 0c0-.708.119-1.351.355-1.925a4.238 4.238 0 0 1 .994-1.469 4.4 4.4 0 0 1 1.513-.931 5.445 5.445 0 0 1 1.913-.325c.691 0 1.328.108 1.912.325a4.377 4.377 0 0 1 1.512.931c.426.405.757.894.994 1.469.238.574.356 1.217.356 1.925s-.118 1.35-.356 1.925a4.211 4.211 0 0 1-.994 1.469 4.377 4.377 0 0 1-1.512.931 5.47 5.47 0 0 1-1.912.324c-.692 0-1.33-.108-1.913-.324a4.4 4.4 0 0 1-1.513-.931 4.238 4.238 0 0 1-.994-1.469c-.236-.575-.355-1.217-.355-1.925z" fill="#525F85"/><path d="M121.764 67.35h1.75c.15 0 .302-.017.456-.05a1.21 1.21 0 0 0 .419-.175.996.996 0 0 0 .307-.325.95.95 0 0 0 .118-.487.782.782 0 0 0-.156-.506.986.986 0 0 0-.394-.294 2.093 2.093 0 0 0-.513-.138 3.784 3.784 0 0 0-.512-.037h-1.475m0-1.65h1.412c.151 0 .299-.017.443-.05a1.22 1.22 0 0 0 .395-.163.827.827 0 0 0 .281-.3.894.894 0 0 0 .106-.45.818.818 0 0 0-.118-.456.841.841 0 0 0-.306-.281 1.455 1.455 0 0 0-.426-.144 2.56 2.56 0 0 0-.463-.044h-1.324m-1.95-1.649h3.3c.382 0 .769.026 1.156.081.388.054.736.162 1.044.325.307.162.557.39.75.681.192.292.288.679.288 1.163 0 .5-.141.914-.42 1.243a2.303 2.303 0 0 1-1.105.706v.025c.291.042.556.123.792.245a1.98 1.98 0 0 1 1.007 1.118c.092.25.138.516.138.799 0 .467-.1.857-.301 1.169a2.343 2.343 0 0 1-.774.757 3.39 3.39 0 0 1-1.07.412 5.723 5.723 0 0 1-1.18.125h-3.625v-8.849z" fill="#525F85"/><path d="M131.576 62.725l-1.075 2.75h2.163m-1.838-5.324h1.612L136.289 69h-2.2l-.763-1.875h-3.438L129.151 69h-2.15l3.825-8.849z" fill="#525F85"/><path d="M137.252 60.15h1.949v7.05h3.614V69h-5.563v-8.85z" fill="#525F85"/><path d="M147.664 60.15h6.012v1.8h-4.063v1.649h3.838V65.4h-3.838v1.8h4.287V69h-6.236v-8.85z" fill="#525F85"/><path d="M155.539 60.15h5.938v1.8h-3.989v1.8h3.688v1.799h-3.688V69h-1.949v-8.85z" fill="#525F85"/><path d="M162.951 60.15h5.938v1.8H164.9v1.8h3.688v1.799H164.9V69h-1.949v-8.85z" fill="#525F85"/><path d="M170.363 60.15h6.012v1.8h-4.063v1.649h3.838V65.4h-3.838v1.8h4.288V69h-6.237v-8.85z" fill="#525F85"/><path d="M183.95 62.45a1.92 1.92 0 0 0-.706-.538 2.353 2.353 0 0 0-.969-.188c-.367 0-.707.072-1.019.213a2.45 2.45 0 0 0-.813.594 2.791 2.791 0 0 0-.537.906c-.129.35-.193.73-.193 1.138 0 .417.064.798.193 1.144.129.345.307.645.531.9.225.254.491.452.794.594.304.141.632.212.982.212.4 0 .754-.083 1.062-.25.309-.166.563-.4.762-.701l1.625 1.213c-.375.526-.85.912-1.424 1.162a4.417 4.417 0 0 1-1.775.375c-.692 0-1.33-.108-1.912-.324a4.395 4.395 0 0 1-1.514-.931 4.236 4.236 0 0 1-.993-1.469c-.238-.575-.357-1.217-.357-1.925s.119-1.351.357-1.925a4.236 4.236 0 0 1 .993-1.469c.426-.404.93-.714 1.514-.931a5.435 5.435 0 0 1 1.912-.325c.25 0 .509.023.781.069.27.046.537.118.8.219.262.099.514.233.757.399.241.167.457.371.649.612l-1.5 1.226z" fill="#525F85"/><path d="M188.437 61.875h-2.525V60.15h7v1.725h-2.525V69h-1.95v-7.125z" fill="#525F85"/><path d="M22.378 78.575c0 .417.064.798.193 1.144a2.536 2.536 0 0 0 1.426 1.494c.337.141.714.212 1.131.212.417 0 .793-.071 1.131-.212a2.546 2.546 0 0 0 1.425-1.494 3.25 3.25 0 0 0 .194-1.144c0-.408-.065-.788-.194-1.138a2.622 2.622 0 0 0-.556-.906 2.546 2.546 0 0 0-.869-.594 2.908 2.908 0 0 0-1.13-.213c-.418 0-.795.072-1.132.213a2.536 2.536 0 0 0-1.426 1.5c-.129.35-.193.73-.193 1.138zm-2.025 0c0-.708.12-1.351.356-1.925a4.225 4.225 0 0 1 .994-1.469 4.386 4.386 0 0 1 1.512-.931 5.445 5.445 0 0 1 1.913-.325c.691 0 1.33.108 1.912.325a4.38 4.38 0 0 1 1.513.931c.425.405.756.894.993 1.469.238.574.357 1.217.357 1.925s-.119 1.35-.357 1.925a4.222 4.222 0 0 1-.993 1.469 4.38 4.38 0 0 1-1.513.931 5.466 5.466 0 0 1-1.912.324c-.692 0-1.33-.108-1.913-.324a4.386 4.386 0 0 1-1.512-.931 4.225 4.225 0 0 1-.994-1.469c-.237-.575-.356-1.217-.356-1.925z" fill="#525F85"/><path d="M31.303 74.15h5.938v1.8h-3.988v1.8h3.687v1.799h-3.687V83h-1.95v-8.85z" fill="#525F85"/><path d="M46.003 76.725l-1.075 2.75h2.162m-1.837-5.324h1.612L50.715 83h-2.2l-.762-1.875h-3.438L43.578 83h-2.15l3.825-8.849z" fill="#525F85"/><path d="M55.377 74.15h1.95v7.05h3.613V83h-5.563v-8.85z" fill="#525F85"/><path d="M63.564 78.575c0 .417.065.798.193 1.144a2.546 2.546 0 0 0 1.426 1.494c.339.141.716.212 1.132.212.416 0 .794-.071 1.13-.212a2.546 2.546 0 0 0 1.427-1.494 3.25 3.25 0 0 0 .192-1.144c0-.408-.063-.788-.192-1.138a2.609 2.609 0 0 0-.558-.906 2.546 2.546 0 0 0-.868-.594 2.904 2.904 0 0 0-1.132-.213c-.415 0-.792.072-1.13.213-.338.142-.627.34-.87.594a2.624 2.624 0 0 0-.556.906c-.13.35-.194.73-.194 1.138zm-2.024 0c0-.708.119-1.351.357-1.925a4.209 4.209 0 0 1 .992-1.469 4.38 4.38 0 0 1 1.514-.931 5.443 5.443 0 0 1 1.911-.325c.692 0 1.33.108 1.913.325a4.395 4.395 0 0 1 1.513.931c.425.405.757.894.994 1.469.237.574.356 1.217.356 1.925s-.12 1.35-.356 1.925a4.236 4.236 0 0 1-.993 1.469c-.427.404-.93.714-1.514.931a5.462 5.462 0 0 1-1.913.324 5.466 5.466 0 0 1-1.911-.324 4.38 4.38 0 0 1-1.514-.931 4.209 4.209 0 0 1-.992-1.469c-.238-.575-.357-1.217-.357-1.925z" fill="#525F85"/><path d="M78.202 76.45a1.92 1.92 0 0 0-.706-.538 2.353 2.353 0 0 0-.969-.188c-.367 0-.707.072-1.019.213a2.45 2.45 0 0 0-.813.594 2.791 2.791 0 0 0-.537.906c-.129.35-.193.73-.193 1.138 0 .417.064.798.193 1.144.13.345.307.645.531.9.225.254.491.452.794.594.304.141.632.212.982.212.4 0 .754-.083 1.062-.25.31-.166.563-.4.762-.701l1.625 1.213c-.375.526-.85.912-1.424 1.162a4.417 4.417 0 0 1-1.775.375c-.692 0-1.33-.108-1.912-.324a4.395 4.395 0 0 1-1.514-.931 4.236 4.236 0 0 1-.993-1.469c-.238-.575-.357-1.217-.357-1.925s.12-1.351.357-1.925a4.236 4.236 0 0 1 .993-1.469c.426-.404.93-.714 1.514-.931a5.435 5.435 0 0 1 1.912-.325c.25 0 .51.023.781.069.27.046.537.118.8.219.262.099.514.233.757.399.241.167.457.371.65.612l-1.5 1.226z" fill="#525F85"/><path d="M84.64 76.725l-1.075 2.75h2.162m-1.837-5.324h1.612L89.352 83h-2.199l-.763-1.875h-3.438L82.215 83h-2.15l3.825-8.849z" fill="#525F85"/><path d="M90.314 74.15h1.95v7.05h3.613V83h-5.563v-8.85z" fill="#525F85"/><path d="M102.202 78.575c0 .417.064.798.193 1.144a2.542 2.542 0 0 0 1.425 1.494c.338.141.715.212 1.132.212.417 0 .794-.071 1.131-.212a2.546 2.546 0 0 0 1.425-1.494 3.25 3.25 0 0 0 .194-1.144c0-.408-.065-.788-.194-1.138a2.622 2.622 0 0 0-.556-.906 2.546 2.546 0 0 0-.869-.594 2.904 2.904 0 0 0-1.131-.213c-.417 0-.794.072-1.132.213a2.542 2.542 0 0 0-1.425 1.5c-.129.35-.193.73-.193 1.138zm-2.025 0c0-.708.119-1.351.356-1.925a4.211 4.211 0 0 1 .994-1.469 4.386 4.386 0 0 1 1.512-.931 5.449 5.449 0 0 1 1.913-.325c.691 0 1.329.108 1.912.325a4.39 4.39 0 0 1 1.513.931c.425.405.756.894.994 1.469.237.574.355 1.217.355 1.925s-.118 1.35-.355 1.925a4.238 4.238 0 0 1-.994 1.469 4.39 4.39 0 0 1-1.513.931 5.466 5.466 0 0 1-1.912.324 5.472 5.472 0 0 1-1.913-.324 4.386 4.386 0 0 1-1.512-.931 4.211 4.211 0 0 1-.994-1.469c-.237-.575-.356-1.217-.356-1.925z" fill="#525F85"/><path d="M113.002 77.9h1.3c.175 0 .344-.017.507-.051.162-.033.307-.089.437-.168a.904.904 0 0 0 .313-.325 1.04 1.04 0 0 0 .118-.519c0-.225-.052-.406-.156-.543a1.047 1.047 0 0 0-.4-.32 1.747 1.747 0 0 0-.545-.143 5.473 5.473 0 0 0-.574-.032h-1m-1.95-1.649h3.288c.457 0 .891.041 1.299.125.408.083.765.227 1.069.431.304.204.546.479.726.825.178.346.267.781.267 1.306 0 .517-.082.95-.25 1.3a2.11 2.11 0 0 1-.687.837 2.779 2.779 0 0 1-1.037.445c-.401.086-.833.13-1.3.13h-1.425V83h-1.95v-8.85z" fill="#525F85"/><path d="M120.639 75.875h-2.525V74.15h7v1.725h-2.525V83h-1.95v-7.125z" fill="#525F85"/><path d="M126.076 74.15h1.951V83h-1.951v-8.85z" fill="#525F85"/><path d="M129.801 74.15h2.951l2.037 5.774h.026l2.049-5.774h2.937V83h-1.949v-6.787h-.026L135.502 83h-1.488l-2.237-6.787h-.025V83h-1.951v-8.85z" fill="#525F85"/><path d="M141.576 74.15h1.95V83h-1.95v-8.85z" fill="#525F85"/><path d="M144.838 81.2l4.488-5.325h-4.325V74.15h6.688v1.725l-4.4 5.325h4.549V83h-7v-1.8z" fill="#525F85"/><path d="M156.838 76.725l-1.074 2.75h2.162m-1.838-5.324h1.613l3.85 8.849h-2.199l-.764-1.875h-3.438L154.414 83h-2.15l3.824-8.849z" fill="#525F85"/><path d="M164.15 75.875h-2.525V74.15h7v1.725H166.1V83h-1.95v-7.125z" fill="#525F85"/><path d="M169.588 74.15h1.951V83h-1.951v-8.85z" fill="#525F85"/><path d="M174.863 78.575c0 .417.064.798.193 1.144a2.536 2.536 0 0 0 1.426 1.494c.337.141.714.212 1.131.212.416 0 .793-.071 1.131-.212a2.546 2.546 0 0 0 1.426-1.494 3.25 3.25 0 0 0 .193-1.144c0-.408-.064-.788-.193-1.138a2.639 2.639 0 0 0-.557-.906 2.546 2.546 0 0 0-.869-.594 2.911 2.911 0 0 0-1.131-.213c-.417 0-.794.072-1.131.213a2.536 2.536 0 0 0-1.426 1.5c-.129.35-.193.73-.193 1.138zm-2.025 0c0-.708.119-1.351.356-1.925a4.236 4.236 0 0 1 .993-1.469c.426-.404.93-.714 1.514-.931a5.44 5.44 0 0 1 1.912-.325c.691 0 1.329.108 1.912.325a4.38 4.38 0 0 1 1.513.931c.425.405.757.894.993 1.469.238.574.357 1.217.357 1.925s-.119 1.35-.357 1.925a4.209 4.209 0 0 1-.993 1.469 4.38 4.38 0 0 1-1.513.931 5.466 5.466 0 0 1-1.912.324c-.691 0-1.33-.108-1.912-.324a4.395 4.395 0 0 1-1.514-.931 4.236 4.236 0 0 1-.993-1.469c-.237-.575-.356-1.217-.356-1.925z" fill="#525F85"/><path d="M183.713 74.15h2.65l3.762 6.149h.026V74.15h1.95V83h-2.55l-3.863-6.3h-.025V83h-1.95v-8.85z" fill="#525F85"/><path d="M338.109 60.598h.779l-.984 4.623c-.109.496-.164.92-.164 1.272 0 .652.173 1.141.518 1.467.346.326.824.49 1.433.49.707 0 1.264-.204 1.67-.61.406-.406.707-1.058.902-1.957l1.125-5.285h.774l-1.096 5.156c-.262 1.227-.662 2.099-1.201 2.616-.539.518-1.301.777-2.285.777-.805 0-1.442-.231-1.91-.692-.469-.461-.704-1.086-.704-1.875 0-.418.043-.826.129-1.224l1.014-4.758z" fill="#333"/><path d="M344.285 68.027c.184.137.413.25.688.34.276.09.539.135.789.135.429 0 .756-.087.981-.261.225-.174.337-.429.337-.765 0-.23-.07-.428-.211-.595-.141-.166-.396-.362-.768-.588-.418-.25-.721-.502-.911-.756a1.452 1.452 0 0 1-.284-.891c0-.515.19-.943.568-1.283.379-.34.872-.51 1.477-.51a3.9 3.9 0 0 1 .727.076c.261.051.492.125.691.223l-.152.721a2.347 2.347 0 0 0-1.301-.375c-.379 0-.683.098-.911.296a.968.968 0 0 0-.343.77c0 .231.062.43.187.598.125.168.375.363.75.586.454.277.773.542.958.794.186.252.279.54.279.864 0 .531-.194.954-.58 1.268-.387.315-.914.472-1.582.472-.27 0-.546-.036-.829-.108a2.704 2.704 0 0 1-.712-.279l.152-.732z" fill="#333"/><path d="M350.021 65.783c1.164 0 2.021-.111 2.572-.334.552-.223.826-.572.826-1.049 0-.293-.097-.516-.295-.671-.198-.154-.474-.231-.83-.231-.531 0-1.009.214-1.435.641-.426.428-.704.976-.838 1.644zm-.1.943c0 .563.149.999.446 1.31.297.31.707.466 1.231.466.534 0 1.109-.18 1.722-.539l-.141.738a3.384 3.384 0 0 1-1.687.445c-.746 0-1.321-.218-1.722-.656-.403-.437-.604-1.051-.604-1.84a4.2 4.2 0 0 1 .437-1.895 3.554 3.554 0 0 1 1.18-1.392 2.777 2.777 0 0 1 1.599-.51c.544 0 .978.136 1.304.408.326.271.49.633.49 1.086 0 .692-.34 1.206-1.017 1.541-.678.336-1.753.512-3.226.528l-.012.31z" fill="#333"/><path d="M360.064 61.494a.508.508 0 0 1-.378-.161.531.531 0 0 1-.155-.378c0-.152.053-.276.158-.372a.537.537 0 0 1 .375-.144c.145 0 .27.048.375.144.105.096.159.22.159.372s-.055.28-.162.384a.52.52 0 0 1-.372.155zM359.261 63h.744l-.896 4.224c-.078.399-.117.674-.117.827 0 .277.15.416.451.416.181 0 .342-.028.486-.082l-.123.597a1.672 1.672 0 0 1-.627.117c-.304 0-.538-.079-.7-.237-.162-.158-.243-.389-.243-.694 0-.215.045-.537.135-.967l.89-4.201z" fill="#333"/><path d="M362.115 63.639h-1.049l.147-.639h1.031l.322-1.517.791-.24-.375 1.757h1.565l-.147.639h-1.553l-.744 3.498c-.07.316-.105.574-.105.773 0 .196.041.338.123.428.082.09.219.135.41.135.184 0 .482-.092.897-.275l-.147.668a2.462 2.462 0 0 1-.478.172 1.912 1.912 0 0 1-.477.074c-.719 0-1.078-.371-1.078-1.114 0-.23.037-.507.111-.832l.756-3.527z" fill="#333"/><path d="M369.123 63.639h-1.049l.147-.639h1.031l.322-1.517.791-.24L369.99 63h1.565l-.147.639h-1.553l-.744 3.498c-.07.316-.105.574-.105.773 0 .196.041.338.123.428.082.09.219.135.41.135.184 0 .482-.092.897-.275l-.147.668a2.462 2.462 0 0 1-.478.172 1.912 1.912 0 0 1-.477.074c-.719 0-1.078-.371-1.078-1.114 0-.23.037-.507.111-.832l.756-3.527z" fill="#333"/><path d="M373.893 68.502c.441 0 .848-.145 1.219-.434.371-.289.661-.683.87-1.183.209-.5.313-1.047.313-1.641 0-.566-.13-.999-.389-1.298-.26-.298-.617-.448-1.07-.448-.668 0-1.235.314-1.702.941-.467.626-.7 1.399-.7 2.317 0 .547.131.975.393 1.283.261.309.617.463 1.066.463zm-.053.645c-.668 0-1.195-.207-1.582-.619-.386-.412-.58-.987-.58-1.725 0-.727.138-1.394.413-2.001.276-.608.662-1.084 1.16-1.43a2.818 2.818 0 0 1 1.644-.518c.664 0 1.189.208 1.576.624.387.416.58.987.58 1.713 0 .739-.137 1.412-.413 2.019-.275.607-.658 1.082-1.148 1.424a2.818 2.818 0 0 1-1.65.513z" fill="#333"/><path d="M381.1 68.027c.184.137.413.25.688.34.276.09.539.135.789.135.429 0 .756-.087.981-.261.225-.174.337-.429.337-.765 0-.23-.07-.428-.211-.595-.141-.166-.396-.362-.768-.588-.418-.25-.721-.502-.911-.756a1.452 1.452 0 0 1-.284-.891c0-.515.19-.943.568-1.283.379-.34.872-.51 1.477-.51a3.9 3.9 0 0 1 .727.076c.261.051.492.125.691.223l-.152.721a2.347 2.347 0 0 0-1.301-.375c-.379 0-.683.098-.911.296a.968.968 0 0 0-.343.77c0 .231.062.43.187.598.125.168.375.363.75.586.454.277.773.542.958.794.186.252.279.54.279.864 0 .531-.194.954-.58 1.268-.387.315-.914.472-1.582.472-.27 0-.546-.036-.829-.108a2.704 2.704 0 0 1-.712-.279l.152-.732z" fill="#333"/><path d="M386.836 65.783c1.164 0 2.021-.111 2.572-.334.551-.223.826-.572.826-1.049 0-.293-.098-.516-.295-.671-.198-.154-.474-.231-.83-.231-.531 0-1.009.214-1.435.641-.426.428-.705.976-.838 1.644zm-.1.943c0 .563.149.999.446 1.31.297.31.707.466 1.23.466.535 0 1.11-.18 1.723-.539l-.141.738a3.384 3.384 0 0 1-1.687.445c-.746 0-1.321-.218-1.723-.656-.402-.437-.603-1.051-.603-1.84 0-.676.145-1.307.436-1.895a3.564 3.564 0 0 1 1.181-1.392 2.775 2.775 0 0 1 1.599-.51c.543 0 .978.136 1.304.408.326.271.489.633.489 1.086 0 .692-.339 1.206-1.016 1.541-.678.336-1.753.512-3.226.528l-.012.31z" fill="#333"/><path d="M392.549 65.783c1.164 0 2.021-.111 2.572-.334.551-.223.826-.572.826-1.049 0-.293-.098-.516-.295-.671-.198-.154-.474-.231-.83-.231-.531 0-1.009.214-1.435.641-.426.428-.705.976-.838 1.644zm-.1.943c0 .563.149.999.446 1.31.297.31.707.466 1.23.466.535 0 1.11-.18 1.723-.539l-.141.738a3.384 3.384 0 0 1-1.687.445c-.746 0-1.321-.218-1.723-.656-.402-.437-.603-1.051-.603-1.84 0-.676.145-1.307.436-1.895a3.564 3.564 0 0 1 1.181-1.392 2.775 2.775 0 0 1 1.599-.51c.543 0 .978.136 1.304.408.326.271.489.633.489 1.086 0 .692-.339 1.206-1.016 1.541-.678.336-1.753.512-3.226.528l-.012.31z" fill="#333"/><path d="M402.445 60.117h.732l-.943 4.441h.023c.715-1.136 1.514-1.705 2.397-1.705.5 0 .875.142 1.125.425.25.283.375.693.375 1.228 0 .054-.008.136-.023.246-.016.109-.04.259-.071.448-.031.189-.293 1.456-.785 3.8h-.744l.721-3.481c.097-.453.146-.761.146-.925 0-.731-.316-1.096-.949-1.096-.316 0-.66.132-1.031.395a3.878 3.878 0 0 0-.973 1.017 3.533 3.533 0 0 0-.545 1.242L401.291 69h-.744l1.898-8.883z" fill="#333"/><path d="M409.482 68.502c.441 0 .848-.145 1.219-.434.371-.289.661-.683.87-1.183.209-.5.313-1.047.313-1.641 0-.566-.13-.999-.389-1.298-.26-.298-.617-.448-1.07-.448-.668 0-1.235.314-1.702.941-.467.626-.7 1.399-.7 2.317 0 .547.131.975.393 1.283.261.309.617.463 1.066.463zm-.053.645c-.668 0-1.195-.207-1.582-.619-.386-.412-.58-.987-.58-1.725 0-.727.138-1.394.413-2.001.276-.608.662-1.084 1.16-1.43a2.818 2.818 0 0 1 1.644-.518c.664 0 1.189.208 1.576.624.387.416.58.987.58 1.713 0 .739-.137 1.412-.413 2.019-.275.607-.658 1.082-1.148 1.424a2.818 2.818 0 0 1-1.65.513z" fill="#333"/><path d="M413.894 63h.727l.339 4.717V67.869l-.023.311h.041c.062-.2.135-.379.217-.539L417.644 63h.592l.346 4.822-.03.364h.047a2.83 2.83 0 0 1 .211-.54L421.124 63h.762l-3.111 6h-.697l-.358-4.383-.012-.222.024-.34h-.024a3.407 3.407 0 0 1-.085.214c-.037.087-.866 1.665-2.487 4.731h-.703l-.539-6z" fill="#333"/><path d="M425.959 68.268c.344.156.75.234 1.219.234.511 0 .978-.15 1.4-.451.422-.301.752-.712.99-1.233a4.038 4.038 0 0 0 .358-1.702c0-1.078-.383-1.618-1.149-1.618-.32 0-.651.145-.993.434-.342.289-.646.678-.914 1.166a5.361 5.361 0 0 0-.559 1.5m-.17-3.598h.75c0 .137-.026.401-.077.791-.05.391-.091.666-.123.827h.024c.648-1.176 1.404-1.764 2.267-1.764.543 0 .962.185 1.257.557.295.371.443.916.443 1.634a4.57 4.57 0 0 1-.484 2.083c-.322.643-.756 1.14-1.301 1.492a3.256 3.256 0 0 1-1.801.527 3.56 3.56 0 0 1-1.266-.229l-.609 2.883h-.739l1.465-6.926c.047-.242.091-.579.132-1.01.041-.432.062-.72.062-.865z" fill="#333"/><path d="M433.834 68.502c.441 0 .848-.145 1.219-.434.371-.289.661-.683.87-1.183.209-.5.313-1.047.313-1.641 0-.566-.13-.999-.389-1.298-.26-.298-.617-.448-1.07-.448-.668 0-1.235.314-1.702.941-.467.626-.7 1.399-.7 2.317 0 .547.131.975.393 1.283.261.309.617.463 1.066.463zm-.053.645c-.668 0-1.195-.207-1.582-.619-.386-.412-.58-.987-.58-1.725 0-.727.138-1.394.413-2.001.276-.608.662-1.084 1.16-1.43a2.818 2.818 0 0 1 1.644-.518c.664 0 1.189.208 1.576.624.387.416.58.987.58 1.713 0 .739-.137 1.412-.413 2.019-.275.607-.658 1.082-1.148 1.424a2.818 2.818 0 0 1-1.65.513z" fill="#333"/><path d="M439.084 63.639h-1.049l.147-.639h1.031l.322-1.517.791-.24-.375 1.757h1.565l-.147.639h-1.553l-.744 3.498c-.07.316-.105.574-.105.773 0 .196.041.338.123.428.082.09.219.135.41.135.184 0 .482-.092.897-.275l-.147.668a2.462 2.462 0 0 1-.478.172 1.912 1.912 0 0 1-.477.074c-.719 0-1.078-.371-1.078-1.114 0-.23.037-.507.111-.832l.756-3.527z" fill="#333"/><path d="M442.494 65.783c1.164 0 2.021-.111 2.572-.334.551-.223.826-.572.826-1.049 0-.293-.098-.516-.295-.671-.198-.154-.474-.231-.83-.231-.531 0-1.009.214-1.435.641-.426.428-.705.976-.838 1.644zm-.1.943c0 .563.149.999.446 1.31.297.31.707.466 1.23.466.535 0 1.11-.18 1.723-.539l-.141.738a3.384 3.384 0 0 1-1.687.445c-.746 0-1.321-.218-1.723-.656-.402-.437-.603-1.051-.603-1.84 0-.676.145-1.307.436-1.895a3.564 3.564 0 0 1 1.181-1.392 2.775 2.775 0 0 1 1.599-.51c.543 0 .978.136 1.304.408.326.271.489.633.489 1.086 0 .692-.339 1.206-1.016 1.541-.678.336-1.753.512-3.226.528l-.012.31z" fill="#333"/><path d="M448.424 63h.721c-.055.418-.139.941-.252 1.57h.023c.34-.55.717-.974 1.131-1.271.414-.297.84-.445 1.277-.445 1.004 0 1.506.542 1.506 1.628 0 .215-.062.614-.187 1.196L451.94 69h-.739l.721-3.48c.094-.477.141-.786.141-.926 0-.731-.315-1.096-.944-1.096-.312 0-.654.132-1.025.396a3.934 3.934 0 0 0-.976 1.013 3.48 3.48 0 0 0-.548 1.234L447.961 69h-.744l.926-4.307c.109-.543.203-1.107.281-1.693z" fill="#333"/><path d="M455.103 63.639h-1.049l.147-.639h1.031l.322-1.517.791-.24L455.97 63h1.565l-.147.639h-1.553l-.744 3.498c-.07.316-.105.574-.105.773 0 .196.041.338.123.428.082.09.219.135.41.135.184 0 .482-.092.897-.275l-.147.668a2.462 2.462 0 0 1-.478.172 1.912 1.912 0 0 1-.477.074c-.719 0-1.078-.371-1.078-1.114 0-.23.037-.507.111-.832l.756-3.527z" fill="#333"/><path d="M459.545 61.494a.508.508 0 0 1-.378-.161.531.531 0 0 1-.155-.378c0-.152.053-.276.158-.372a.537.537 0 0 1 .375-.144c.145 0 .27.048.375.144.105.096.158.22.158.372s-.054.28-.161.384a.52.52 0 0 1-.372.155zM458.742 63h.744l-.896 4.224c-.078.399-.117.674-.117.827 0 .277.15.416.451.416.18 0 .342-.028.486-.082l-.123.597a1.672 1.672 0 0 1-.627.117c-.304 0-.538-.079-.7-.237-.162-.158-.243-.389-.243-.694 0-.215.045-.537.135-.967l.89-4.201z" fill="#333"/><path d="M465.146 63.621a5.225 5.225 0 0 0-1.131-.123c-.531 0-1.01.144-1.435.434-.426.289-.763.699-1.011 1.23a4.089 4.089 0 0 0-.372 1.752c0 1.059.375 1.588 1.125 1.588.316 0 .64-.138.972-.413.332-.276.635-.665.909-1.169a5.878 5.878 0 0 0 .58-1.524M464.179 69c.016-.41.082-.949.199-1.617h-.023c-.359.633-.712 1.085-1.058 1.356a1.814 1.814 0 0 1-1.151.407c-.539 0-.958-.19-1.257-.571-.299-.381-.448-.917-.448-1.608 0-.746.161-1.445.483-2.095.323-.65.762-1.149 1.319-1.497a3.445 3.445 0 0 1 1.866-.522c.504 0 1.133.077 1.887.229l-.803 3.873c-.055.258-.11.609-.167 1.055a8.598 8.598 0 0 0-.085.99h-.762z" fill="#333"/><path d="M468.521 60.117h.744l-1.512 7.107c-.078.399-.117.674-.117.827 0 .277.151.416.451.416.18 0 .342-.028.487-.082l-.123.597a1.68 1.68 0 0 1-.627.117c-.305 0-.538-.079-.7-.237-.163-.158-.244-.39-.244-.694 0-.242.045-.565.135-.967l1.506-7.084z" fill="#333"/><path d="M475.119 68.502c.441 0 .848-.145 1.219-.434.371-.289.661-.683.87-1.183.209-.5.313-1.047.313-1.641 0-.566-.13-.999-.389-1.298-.26-.298-.617-.448-1.07-.448-.668 0-1.235.314-1.702.941-.467.626-.7 1.399-.7 2.317 0 .547.131.975.393 1.283.261.309.617.463 1.066.463zm-.053.645c-.668 0-1.195-.207-1.582-.619-.386-.412-.58-.987-.58-1.725 0-.727.138-1.394.413-2.001.276-.608.662-1.084 1.16-1.43a2.818 2.818 0 0 1 1.644-.518c.664 0 1.189.208 1.576.624.387.416.58.987.58 1.713 0 .739-.137 1.412-.413 2.019-.275.607-.658 1.082-1.148 1.424a2.818 2.818 0 0 1-1.65.513z" fill="#333"/><path d="M479.935 68.268c.344.156.75.234 1.219.234.511 0 .978-.15 1.4-.451.422-.301.752-.712.99-1.233a4.038 4.038 0 0 0 .358-1.702c0-1.078-.383-1.618-1.149-1.618-.32 0-.651.145-.993.434-.342.289-.646.678-.914 1.166a5.361 5.361 0 0 0-.559 1.5m-.17-3.598h.75c0 .137-.026.401-.077.791-.05.391-.091.666-.123.827h.024c.648-1.176 1.404-1.764 2.267-1.764.543 0 .962.185 1.257.557.295.371.443.916.443 1.634a4.57 4.57 0 0 1-.484 2.083c-.322.643-.756 1.14-1.301 1.492a3.256 3.256 0 0 1-1.801.527 3.56 3.56 0 0 1-1.266-.229l-.609 2.883h-.739l1.465-6.926c.047-.242.091-.579.132-1.01.041-.432.062-.72.062-.865z" fill="#333"/><path d="M486.75 63.639h-1.049l.147-.639h1.031l.322-1.517.791-.24-.375 1.757h1.565l-.147.639h-1.553l-.744 3.498c-.07.316-.105.574-.105.773 0 .196.041.338.123.428.082.09.219.135.41.135.184 0 .482-.092.897-.275l-.147.668a2.462 2.462 0 0 1-.478.172 1.912 1.912 0 0 1-.477.074c-.719 0-1.078-.371-1.078-1.114 0-.23.037-.507.111-.832l.756-3.527z" fill="#333"/><path d="M491.191 61.494a.508.508 0 0 1-.378-.161.531.531 0 0 1-.155-.378c0-.152.053-.276.158-.372a.537.537 0 0 1 .375-.144c.145 0 .27.048.375.144.105.096.158.22.158.372s-.054.28-.161.384a.52.52 0 0 1-.372.155zM490.388 63h.744l-.896 4.224c-.078.399-.117.674-.117.827 0 .277.15.416.451.416.18 0 .342-.028.486-.082l-.123.597a1.672 1.672 0 0 1-.627.117c-.304 0-.538-.079-.7-.237-.162-.158-.243-.389-.243-.694 0-.215.045-.537.135-.967l.89-4.201z" fill="#333"/><path d="M493.137 63h.721c-.055.418-.139.941-.252 1.57h.023c.711-1.144 1.475-1.716 2.291-1.716.485 0 .837.144 1.058.433.221.289.335.715.343 1.277.339-.543.712-.963 1.119-1.262.406-.299.822-.448 1.248-.448.941 0 1.412.542 1.412 1.628 0 .231-.059.629-.176 1.196L500.215 69h-.732l.715-3.48c.097-.45.146-.776.146-.979 0-.695-.287-1.043-.861-1.043-.285 0-.599.127-.941.381a3.97 3.97 0 0 0-.931 1.014c-.28.421-.464.832-.554 1.23L496.448 69h-.745l.727-3.48c.098-.45.146-.758.146-.926 0-.731-.287-1.096-.861-1.096-.285 0-.6.129-.946.387a4.02 4.02 0 0 0-.941 1.028c-.281.428-.462.837-.545 1.228L492.674 69h-.744l.926-4.307c.156-.757.25-1.322.281-1.693z" fill="#333"/><path d="M504.1 61.494a.508.508 0 0 1-.378-.161.531.531 0 0 1-.155-.378c0-.152.053-.276.158-.372a.537.537 0 0 1 .375-.144c.145 0 .27.048.375.144.105.096.158.22.158.372s-.054.28-.161.384a.52.52 0 0 1-.372.155zM503.297 63h.744l-.896 4.224c-.078.399-.117.674-.117.827 0 .277.15.416.451.416.18 0 .342-.028.486-.082l-.123.597a1.672 1.672 0 0 1-.627.117c-.304 0-.538-.079-.7-.237-.162-.158-.243-.389-.243-.694 0-.215.045-.537.135-.967l.89-4.201z" fill="#333"/><path d="M509.027 63.639h-3.422l.141-.639h4.617l-.041.235-4.852 5.127h3.662l-.14.638h-4.834l.053-.281 4.816-5.08z" fill="#333"/><path d="M515.203 63.621a5.225 5.225 0 0 0-1.131-.123c-.531 0-1.01.144-1.435.434-.426.289-.763.699-1.011 1.23a4.089 4.089 0 0 0-.372 1.752c0 1.059.375 1.588 1.125 1.588.316 0 .64-.138.972-.413.332-.276.635-.665.909-1.169a5.878 5.878 0 0 0 .58-1.524M514.236 69c.016-.41.082-.949.199-1.617h-.023c-.359.633-.712 1.085-1.058 1.356a1.814 1.814 0 0 1-1.151.407c-.539 0-.958-.19-1.257-.571-.299-.381-.448-.917-.448-1.608 0-.746.161-1.445.483-2.095.323-.65.762-1.149 1.319-1.497a3.445 3.445 0 0 1 1.866-.522c.504 0 1.133.077 1.887.229l-.803 3.873c-.055.258-.11.609-.167 1.055a8.598 8.598 0 0 0-.085.99h-.762z" fill="#333"/><path d="M518.033 63.639h-1.049l.147-.639h1.031l.322-1.517.791-.24L518.9 63h1.565l-.147.639h-1.553l-.744 3.498c-.07.316-.105.574-.105.773 0 .196.041.338.123.428.082.09.219.135.41.135.184 0 .482-.092.897-.275l-.147.668a2.462 2.462 0 0 1-.478.172 1.912 1.912 0 0 1-.477.074c-.719 0-1.078-.371-1.078-1.114 0-.23.037-.507.111-.832l.756-3.527z" fill="#333"/><path d="M522.475 61.494a.508.508 0 0 1-.378-.161.531.531 0 0 1-.155-.378c0-.152.053-.276.158-.372a.537.537 0 0 1 .375-.144c.145 0 .27.048.375.144.105.096.158.22.158.372s-.054.28-.161.384a.52.52 0 0 1-.372.155zM521.672 63h.744l-.896 4.224c-.078.399-.117.674-.117.827 0 .277.15.416.451.416.18 0 .342-.028.486-.082l-.123.597a1.672 1.672 0 0 1-.627.117c-.304 0-.538-.079-.7-.237-.162-.158-.243-.389-.243-.694 0-.215.045-.537.135-.967l.89-4.201z" fill="#333"/><path d="M525.586 68.502c.441 0 .848-.145 1.219-.434.371-.289.661-.683.87-1.183.209-.5.313-1.047.313-1.641 0-.566-.13-.999-.389-1.298-.26-.298-.617-.448-1.07-.448-.668 0-1.235.314-1.702.941-.467.626-.7 1.399-.7 2.317 0 .547.131.975.393 1.283.261.309.617.463 1.066.463zm-.053.645c-.668 0-1.195-.207-1.582-.619-.386-.412-.58-.987-.58-1.725 0-.727.138-1.394.413-2.001.276-.608.662-1.084 1.16-1.43a2.818 2.818 0 0 1 1.644-.518c.664 0 1.189.208 1.576.624.387.416.58.987.58 1.713 0 .739-.137 1.412-.413 2.019-.275.607-.658 1.082-1.148 1.424a2.818 2.818 0 0 1-1.65.513z" fill="#333"/><path d="M530.754 63h.721c-.055.418-.139.941-.252 1.57h.023c.34-.55.717-.974 1.131-1.271.414-.297.84-.445 1.277-.445 1.004 0 1.506.542 1.506 1.628 0 .215-.062.614-.187 1.196L534.27 69h-.739l.721-3.48c.094-.477.141-.786.141-.926 0-.731-.315-1.096-.944-1.096-.312 0-.654.132-1.025.396a3.934 3.934 0 0 0-.976 1.013 3.48 3.48 0 0 0-.548 1.234L530.291 69h-.744l.926-4.307c.109-.543.203-1.107.281-1.693z" fill="#333"/><path d="M544.283 63.621a5.225 5.225 0 0 0-1.131-.123c-.531 0-1.01.144-1.435.434-.426.289-.763.699-1.011 1.23a4.089 4.089 0 0 0-.372 1.752c0 1.059.375 1.588 1.125 1.588.316 0 .64-.138.972-.413.332-.276.635-.665.909-1.169a5.878 5.878 0 0 0 .58-1.524M543.316 69c.016-.41.082-.949.199-1.617h-.023c-.359.633-.712 1.085-1.058 1.356a1.814 1.814 0 0 1-1.151.407c-.539 0-.958-.19-1.257-.571-.299-.381-.448-.917-.448-1.608 0-.746.161-1.445.483-2.095.323-.65.762-1.149 1.319-1.497a3.445 3.445 0 0 1 1.866-.522c.504 0 1.133.077 1.887.229l-.803 3.873c-.055.258-.11.609-.167 1.055a8.598 8.598 0 0 0-.085.99h-.762z" fill="#333"/><path d="M546.68 68.268c.344.156.75.234 1.219.234.511 0 .978-.15 1.4-.451.422-.301.752-.712.99-1.233a4.038 4.038 0 0 0 .358-1.702c0-1.078-.383-1.618-1.149-1.618-.32 0-.651.145-.993.434-.342.289-.646.678-.914 1.166a5.361 5.361 0 0 0-.559 1.5m-.17-3.598h.75c0 .137-.026.401-.077.791-.05.391-.091.666-.123.827h.024c.648-1.176 1.404-1.764 2.267-1.764.543 0 .962.185 1.257.557.295.371.443.916.443 1.634a4.57 4.57 0 0 1-.484 2.083c-.322.643-.756 1.14-1.301 1.492a3.256 3.256 0 0 1-1.801.527 3.56 3.56 0 0 1-1.266-.229l-.609 2.883h-.739l1.465-6.926c.047-.242.091-.579.132-1.01.041-.432.062-.72.062-.865z" fill="#333"/><path d="M553.06 68.268c.344.156.75.234 1.219.234.511 0 .978-.15 1.4-.451.422-.301.752-.712.99-1.233a4.038 4.038 0 0 0 .358-1.702c0-1.078-.383-1.618-1.149-1.618-.32 0-.651.145-.993.434-.342.289-.646.678-.914 1.166a5.361 5.361 0 0 0-.559 1.5m-.17-3.598h.75c0 .137-.026.401-.077.791-.05.391-.091.666-.123.827h.024c.648-1.176 1.404-1.764 2.267-1.764.543 0 .962.185 1.257.557.295.371.443.916.443 1.634a4.57 4.57 0 0 1-.484 2.083c-.322.643-.756 1.14-1.301 1.492a3.256 3.256 0 0 1-1.801.527 3.56 3.56 0 0 1-1.266-.229l-.609 2.883h-.739l1.465-6.926c.047-.242.091-.579.132-1.01.041-.432.062-.72.062-.865z" fill="#333"/><path d="M560.42 60.117h.744l-1.512 7.107c-.078.399-.117.674-.117.827 0 .277.151.416.451.416.18 0 .342-.028.487-.082l-.123.597a1.68 1.68 0 0 1-.627.117c-.305 0-.538-.079-.7-.237-.163-.158-.244-.39-.244-.694 0-.242.045-.565.135-.967l1.506-7.084z" fill="#333"/><path d="M563.391 61.494a.508.508 0 0 1-.378-.161.531.531 0 0 1-.155-.378c0-.152.053-.276.158-.372a.537.537 0 0 1 .375-.144c.145 0 .27.048.375.144.105.096.158.22.158.372s-.054.28-.161.384a.52.52 0 0 1-.372.155zM562.588 63h.744l-.896 4.224c-.078.399-.117.674-.117.827 0 .277.15.416.451.416.18 0 .342-.028.486-.082l-.123.597a1.672 1.672 0 0 1-.627.117c-.304 0-.538-.079-.7-.237-.162-.158-.243-.389-.243-.694 0-.215.045-.537.135-.967l.89-4.201z" fill="#333"/><path d="M565.143 65.783c1.164 0 2.021-.111 2.572-.334.551-.223.826-.572.826-1.049 0-.293-.098-.516-.295-.671-.198-.154-.474-.231-.83-.231-.531 0-1.009.214-1.435.641-.426.428-.705.976-.838 1.644zm-.1.943c0 .563.149.999.446 1.31.297.31.707.466 1.23.466.535 0 1.11-.18 1.723-.539l-.141.738a3.384 3.384 0 0 1-1.687.445c-.746 0-1.321-.218-1.723-.656-.402-.437-.603-1.051-.603-1.84 0-.676.145-1.307.436-1.895a3.564 3.564 0 0 1 1.181-1.392 2.775 2.775 0 0 1 1.599-.51c.543 0 .978.136 1.304.408.326.271.489.633.489 1.086 0 .692-.339 1.206-1.016 1.541-.678.336-1.753.512-3.226.528l-.012.31z" fill="#333"/><path d="M574.699 63.674a3.627 3.627 0 0 0-1.131-.176c-.531 0-1.007.144-1.427.431-.42.287-.755.696-1.007 1.227a3.986 3.986 0 0 0-.378 1.729c0 1.078.377 1.617 1.13 1.617.313 0 .634-.138.964-.413.33-.275.631-.658.903-1.148a5.793 5.793 0 0 0 .589-1.574M573.738 69c.016-.39.08-.924.193-1.599h-.023c-.328.578-.666 1.013-1.014 1.306-.347.293-.744.44-1.189.44-.535 0-.953-.189-1.254-.566-.301-.377-.451-.919-.451-1.626 0-.746.158-1.439.474-2.08.317-.64.751-1.138 1.304-1.491a3.356 3.356 0 0 1 1.849-.53c.375 0 .777.054 1.207.164l.615-2.901h.727l-1.477 7.008a9.249 9.249 0 0 0-.126.914c-.049.461-.073.781-.073.961h-.762z" fill="#333"/><path d="M337.623 77.639h-1.049l.147-.639h1.031l.322-1.517.791-.24L338.49 77h1.565l-.147.639h-1.553l-.744 3.498c-.07.316-.105.574-.105.773 0 .196.041.338.123.428.082.09.219.135.41.135.184 0 .482-.092.897-.275l-.147.668a2.462 2.462 0 0 1-.478.172 1.912 1.912 0 0 1-.477.074c-.719 0-1.078-.371-1.078-1.114 0-.23.037-.507.111-.832l.756-3.527z" fill="#333"/><path d="M342.393 82.502c.441 0 .848-.145 1.219-.434.371-.289.661-.683.87-1.183.209-.5.313-1.047.313-1.641 0-.566-.13-.999-.389-1.298-.26-.298-.617-.448-1.07-.448-.668 0-1.235.314-1.702.941-.467.626-.7 1.399-.7 2.317 0 .547.131.975.393 1.283.261.309.617.463 1.066.463zm-.053.645c-.668 0-1.195-.207-1.582-.619-.386-.412-.58-.987-.58-1.725 0-.727.138-1.394.413-2.001.276-.608.662-1.084 1.16-1.43a2.818 2.818 0 0 1 1.644-.518c.664 0 1.189.208 1.576.624.387.416.58.987.58 1.713 0 .739-.137 1.412-.413 2.019-.275.607-.658 1.082-1.148 1.424a2.818 2.818 0 0 1-1.65.513z" fill="#333"/><path d="M354.492 77.621a5.225 5.225 0 0 0-1.131-.123c-.531 0-1.01.144-1.435.434-.426.289-.763.699-1.011 1.23a4.089 4.089 0 0 0-.372 1.752c0 1.059.375 1.588 1.125 1.588.316 0 .64-.138.972-.413.332-.276.635-.665.909-1.169a5.878 5.878 0 0 0 .58-1.524M353.525 83c.016-.41.082-.949.199-1.617h-.023c-.359.633-.712 1.085-1.058 1.356a1.814 1.814 0 0 1-1.151.407c-.539 0-.958-.19-1.257-.571-.299-.381-.448-.917-.448-1.608 0-.746.161-1.445.483-2.095.323-.65.762-1.149 1.319-1.497a3.445 3.445 0 0 1 1.866-.522c.504 0 1.133.077 1.887.229l-.803 3.873c-.055.258-.11.609-.167 1.055a8.598 8.598 0 0 0-.085.99h-.762z" fill="#333"/><path d="M360.187 82.268c.344.156.75.234 1.219.234.511 0 .978-.15 1.4-.451.422-.301.752-.712.99-1.233a4.038 4.038 0 0 0 .358-1.702c0-1.078-.383-1.618-1.149-1.618-.32 0-.651.145-.993.434-.341.289-.646.678-.914 1.166a5.424 5.424 0 0 0-.559 1.5m-.17-3.598h.75c0 .137-.026.401-.077.791-.05.391-.09.666-.123.827h.024c.648-1.176 1.405-1.764 2.267-1.764.544 0 .962.185 1.257.557.295.371.443.916.443 1.634a4.57 4.57 0 0 1-.484 2.083c-.322.643-.755 1.14-1.301 1.492a3.253 3.253 0 0 1-1.801.527 3.56 3.56 0 0 1-1.266-.229l-.609 2.883h-.739l1.466-6.926c.047-.242.09-.579.131-1.01.041-.432.062-.72.062-.865z" fill="#333"/><path d="M370.553 77.621a5.225 5.225 0 0 0-1.131-.123c-.531 0-1.01.144-1.435.434-.426.289-.763.699-1.011 1.23a4.089 4.089 0 0 0-.372 1.752c0 1.059.375 1.588 1.125 1.588.316 0 .64-.138.972-.413.332-.276.635-.665.909-1.169a5.878 5.878 0 0 0 .58-1.524M369.586 83c.016-.41.082-.949.199-1.617h-.023c-.359.633-.712 1.085-1.058 1.356a1.814 1.814 0 0 1-1.151.407c-.539 0-.958-.19-1.257-.571-.299-.381-.448-.917-.448-1.608 0-.746.161-1.445.483-2.095.323-.65.762-1.149 1.319-1.497a3.445 3.445 0 0 1 1.866-.522c.504 0 1.133.077 1.887.229l-.803 3.873c-.055.258-.11.609-.167 1.055a8.598 8.598 0 0 0-.085.99h-.762z" fill="#333"/><path d="M373.26 77h.732l-.199 1.371h.024c.265-.508.544-.888.835-1.14a1.489 1.489 0 0 1 1.004-.377 1.6 1.6 0 0 1 .627.123l-.134.791h-.024a1.177 1.177 0 0 0-.65-.205c-.426 0-.837.264-1.234.793-.396.53-.682 1.199-.858 2.007L372.821 83h-.739l.838-3.937c.184-.825.297-1.512.34-2.063z" fill="#333"/><path d="M377.508 77.639h-1.049l.147-.639h1.031l.322-1.517.791-.24-.375 1.757h1.565l-.147.639h-1.553l-.744 3.498c-.07.316-.105.574-.105.773 0 .196.041.338.123.428.082.09.219.135.41.135.184 0 .482-.092.897-.275l-.147.668a2.462 2.462 0 0 1-.478.172 1.912 1.912 0 0 1-.477.074c-.719 0-1.078-.371-1.078-1.114 0-.23.037-.507.111-.832l.756-3.527z" fill="#333"/><path d="M381.949 75.494a.508.508 0 0 1-.378-.161.531.531 0 0 1-.155-.378c0-.152.053-.276.158-.372a.537.537 0 0 1 .375-.144c.145 0 .27.048.375.144.105.096.158.22.158.372s-.054.28-.161.384a.52.52 0 0 1-.372.155zM381.146 77h.744l-.896 4.224c-.078.399-.117.674-.117.827 0 .277.15.416.451.416.18 0 .342-.028.486-.082l-.123.597a1.672 1.672 0 0 1-.627.117c-.304 0-.538-.079-.7-.237-.162-.158-.243-.389-.243-.694 0-.215.045-.537.135-.967l.89-4.201z" fill="#333"/><path d="M384.973 83.147c-.664 0-1.185-.216-1.562-.647-.376-.432-.565-1.021-.565-1.767 0-.711.142-1.366.425-1.966.283-.599.677-1.068 1.181-1.406a2.92 2.92 0 0 1 1.664-.507c.566 0 1.043.133 1.429.398l-.176.762c-.351-.344-.796-.515-1.335-.515-.457 0-.874.144-1.251.433-.377.289-.671.682-.882 1.178a3.983 3.983 0 0 0-.317 1.576c0 .578.133 1.025.399 1.342.265.316.635.474 1.107.474.481 0 .998-.201 1.553-.603l-.176.809a4.208 4.208 0 0 1-.791.345 2.49 2.49 0 0 1-.703.094z" fill="#333"/><path d="M388.957 77h.738l-.726 3.48c-.094.477-.141.786-.141.926 0 .731.315 1.096.943 1.096.305 0 .634-.122.988-.366a3.98 3.98 0 0 0 .978-1.005c.299-.426.495-.85.589-1.272l.61-2.859h.738l-.92 4.313a15.542 15.542 0 0 0-.281 1.687h-.721l.252-1.57h-.024c-.339.55-.716.974-1.13 1.271-.414.297-.838.445-1.272.445-.508 0-.887-.143-1.137-.43-.25-.287-.375-.695-.375-1.222 0-.113.021-.297.062-.551.041-.254.081-.459.12-.615l.709-3.328z" fill="#333"/><path d="M396.176 74.117h.744l-1.512 7.107c-.078.399-.117.674-.117.827 0 .277.151.416.451.416.18 0 .342-.028.487-.082l-.123.597a1.68 1.68 0 0 1-.627.117c-.305 0-.538-.079-.7-.237-.163-.158-.244-.39-.244-.694 0-.242.045-.565.135-.967l1.506-7.084z" fill="#333"/><path d="M401.965 77.621a5.225 5.225 0 0 0-1.131-.123c-.531 0-1.01.144-1.435.434-.426.289-.763.699-1.011 1.23a4.089 4.089 0 0 0-.372 1.752c0 1.059.375 1.588 1.125 1.588.316 0 .64-.138.972-.413.332-.276.635-.665.909-1.169a5.878 5.878 0 0 0 .58-1.524M400.998 83c.016-.41.082-.949.199-1.617h-.023c-.359.633-.712 1.085-1.058 1.356a1.814 1.814 0 0 1-1.151.407c-.539 0-.958-.19-1.257-.571-.299-.381-.448-.917-.448-1.608 0-.746.161-1.445.483-2.095.323-.65.762-1.149 1.319-1.497a3.445 3.445 0 0 1 1.866-.522c.504 0 1.133.077 1.887.229l-.803 3.873c-.055.258-.11.609-.167 1.055a8.598 8.598 0 0 0-.085.99h-.762z" fill="#333"/><path d="M404.672 77h.732l-.199 1.371h.024c.265-.508.544-.888.835-1.14a1.489 1.489 0 0 1 1.004-.377 1.6 1.6 0 0 1 .627.123l-.134.791h-.024a1.177 1.177 0 0 0-.65-.205c-.426 0-.837.264-1.234.793-.396.53-.682 1.199-.858 2.007L404.233 83h-.739l.838-3.937c.184-.825.297-1.512.34-2.063z" fill="#333"/><path d="M412.23 77.639h-1.061l.147-.639h1.055l.24-1.125c.269-1.265.961-1.898 2.074-1.898.254 0 .494.035.721.105l-.129.68c-.16-.098-.381-.146-.662-.146-.344 0-.62.114-.829.342-.209.229-.365.585-.466 1.07l-.211.972h1.512l-.153.639h-1.506l-1.57 7.354h-.738l1.576-7.354z" fill="#333"/><path d="M415.418 77h.738l-.726 3.48c-.094.477-.141.786-.141.926 0 .731.315 1.096.943 1.096.305 0 .634-.122.988-.366a3.98 3.98 0 0 0 .978-1.005c.299-.426.495-.85.589-1.272l.61-2.859h.738l-.92 4.313a15.542 15.542 0 0 0-.281 1.687h-.721l.252-1.57h-.024c-.339.55-.716.974-1.13 1.271-.414.297-.838.445-1.272.445-.508 0-.887-.143-1.137-.43-.25-.287-.375-.695-.375-1.222 0-.113.021-.297.062-.551.041-.254.081-.459.12-.615l.709-3.328z" fill="#333"/><path d="M422.01 77h.721c-.055.418-.139.941-.252 1.57h.023c.34-.55.717-.974 1.131-1.271.414-.297.84-.445 1.277-.445 1.004 0 1.506.542 1.506 1.628 0 .215-.062.614-.187 1.196L425.526 83h-.739l.721-3.48c.094-.477.141-.786.141-.926 0-.731-.315-1.096-.944-1.096-.312 0-.654.132-1.025.396a3.934 3.934 0 0 0-.976 1.013 3.48 3.48 0 0 0-.548 1.234L421.547 83h-.744l.926-4.307c.109-.543.203-1.107.281-1.693z" fill="#333"/><path d="M429.662 83.147c-.664 0-1.185-.216-1.562-.647-.376-.432-.565-1.021-.565-1.767 0-.711.142-1.366.425-1.966.283-.599.677-1.068 1.181-1.406a2.92 2.92 0 0 1 1.664-.507c.566 0 1.043.133 1.429.398l-.176.762c-.351-.344-.796-.515-1.335-.515-.457 0-.874.144-1.251.433-.377.289-.671.682-.882 1.178a3.983 3.983 0 0 0-.317 1.576c0 .578.133 1.025.399 1.342.265.316.635.474 1.107.474.481 0 .998-.201 1.553-.603l-.176.809a4.208 4.208 0 0 1-.791.345 2.49 2.49 0 0 1-.703.094z" fill="#333"/><path d="M433.746 77.639h-1.049l.147-.639h1.031l.322-1.517.791-.24-.375 1.757h1.565l-.147.639h-1.553l-.744 3.498c-.07.316-.105.574-.105.773 0 .196.041.338.123.428.082.09.219.135.41.135.184 0 .482-.092.897-.275l-.147.668a2.462 2.462 0 0 1-.478.172 1.912 1.912 0 0 1-.477.074c-.719 0-1.078-.371-1.078-1.114 0-.23.037-.507.111-.832l.756-3.527z" fill="#333"/><path d="M438.187 75.494a.508.508 0 0 1-.378-.161.531.531 0 0 1-.155-.378c0-.152.053-.276.158-.372a.537.537 0 0 1 .375-.144c.145 0 .27.048.375.144.105.096.158.22.158.372s-.054.28-.161.384a.52.52 0 0 1-.372.155zM437.384 77h.744l-.896 4.224c-.078.399-.117.674-.117.827 0 .277.15.416.451.416.18 0 .342-.028.486-.082l-.123.597a1.672 1.672 0 0 1-.627.117c-.304 0-.538-.079-.7-.237-.162-.158-.243-.389-.243-.694 0-.215.045-.537.135-.967l.89-4.201z" fill="#333"/><path d="M441.299 82.502c.441 0 .848-.145 1.219-.434.371-.289.661-.683.87-1.183.209-.5.313-1.047.313-1.641 0-.566-.13-.999-.389-1.298-.26-.298-.617-.448-1.07-.448-.668 0-1.235.314-1.702.941-.467.626-.7 1.399-.7 2.317 0 .547.131.975.393 1.283.261.309.617.463 1.066.463zm-.053.645c-.668 0-1.195-.207-1.582-.619-.386-.412-.58-.987-.58-1.725 0-.727.138-1.394.413-2.001.276-.608.662-1.084 1.16-1.43a2.818 2.818 0 0 1 1.644-.518c.664 0 1.189.208 1.576.624.387.416.58.987.58 1.713 0 .739-.137 1.412-.413 2.019-.275.607-.658 1.082-1.148 1.424a2.818 2.818 0 0 1-1.65.513z" fill="#333"/><path d="M446.467 77h.721c-.055.418-.139.941-.252 1.57h.023c.34-.55.717-.974 1.131-1.271.414-.297.84-.445 1.277-.445 1.004 0 1.506.542 1.506 1.628 0 .215-.062.614-.187 1.196L449.983 83h-.739l.721-3.48c.094-.477.141-.786.141-.926 0-.731-.315-1.096-.944-1.096-.312 0-.654.132-1.025.396a3.934 3.934 0 0 0-.976 1.013 3.48 3.48 0 0 0-.548 1.234L446.004 83h-.744l.926-4.307c.109-.543.203-1.107.281-1.693z" fill="#333"/><path d="M459.996 77.621a5.225 5.225 0 0 0-1.131-.123c-.531 0-1.01.144-1.435.434-.426.289-.763.699-1.011 1.23a4.089 4.089 0 0 0-.372 1.752c0 1.059.375 1.588 1.125 1.588.316 0 .64-.138.972-.413.332-.276.635-.665.909-1.169a5.878 5.878 0 0 0 .58-1.524M459.029 83c.016-.41.082-.949.199-1.617h-.023c-.359.633-.712 1.085-1.058 1.356a1.814 1.814 0 0 1-1.151.407c-.539 0-.958-.19-1.257-.571-.299-.381-.448-.917-.448-1.608 0-.746.161-1.445.483-2.095.323-.65.762-1.149 1.319-1.497a3.445 3.445 0 0 1 1.866-.522c.504 0 1.133.077 1.887.229l-.803 3.873c-.055.258-.11.609-.167 1.055a8.598 8.598 0 0 0-.085.99h-.762z" fill="#333"/><path d="M462.838 77.639h-1.061l.147-.639h1.055l.24-1.125c.269-1.265.961-1.898 2.074-1.898.254 0 .494.035.721.105l-.129.68c-.16-.098-.381-.146-.662-.146-.344 0-.62.114-.829.342-.209.229-.365.585-.466 1.07l-.211.972h1.512l-.153.639h-1.506L462 84.993h-.738l1.576-7.354z" fill="#333"/><path d="M466.137 77.639h-1.061l.147-.639h1.055l.24-1.125c.269-1.265.961-1.898 2.074-1.898.254 0 .494.035.721.105l-.129.68c-.16-.098-.381-.146-.662-.146-.344 0-.62.114-.829.342-.209.229-.365.585-.466 1.07l-.211.972h1.512l-.153.639h-1.506l-1.57 7.354h-.738l1.576-7.354z" fill="#333"/><path d="M469.125 79.783c1.164 0 2.021-.111 2.572-.334.551-.223.826-.572.826-1.049 0-.293-.098-.516-.295-.671-.198-.154-.474-.231-.83-.231-.531 0-1.009.214-1.435.641-.426.428-.705.976-.838 1.644zm-.1.943c0 .563.149.999.446 1.31.297.31.707.466 1.23.466.535 0 1.11-.18 1.723-.539l-.141.738a3.384 3.384 0 0 1-1.687.445c-.746 0-1.321-.218-1.723-.656-.402-.437-.603-1.051-.603-1.84 0-.676.145-1.307.436-1.895a3.564 3.564 0 0 1 1.181-1.392 2.775 2.775 0 0 1 1.599-.51c.543 0 .978.136 1.304.408.326.271.489.633.489 1.086 0 .692-.339 1.206-1.016 1.541-.678.336-1.753.512-3.226.528l-.012.31z" fill="#333"/><path d="M476.109 83.147c-.664 0-1.185-.216-1.562-.647-.376-.432-.565-1.021-.565-1.767 0-.711.142-1.366.425-1.966.283-.599.677-1.068 1.181-1.406a2.92 2.92 0 0 1 1.664-.507c.566 0 1.043.133 1.429.398l-.176.762c-.351-.344-.796-.515-1.335-.515-.457 0-.874.144-1.251.433-.377.289-.671.682-.882 1.178a3.983 3.983 0 0 0-.317 1.576c0 .578.133 1.025.399 1.342.265.316.635.474 1.107.474.481 0 .998-.201 1.553-.603l-.176.809a4.208 4.208 0 0 1-.791.345 2.49 2.49 0 0 1-.703.094z" fill="#333"/><path d="M480.193 77.639h-1.049l.147-.639h1.031l.322-1.517.791-.24L481.06 77h1.565l-.147.639h-1.553l-.744 3.498c-.07.316-.105.574-.105.773 0 .196.041.338.123.428.082.09.219.135.41.135.184 0 .482-.092.897-.275l-.147.668a2.462 2.462 0 0 1-.478.172 1.912 1.912 0 0 1-.477.074c-.719 0-1.078-.371-1.078-1.114 0-.23.037-.507.111-.832l.756-3.527z" fill="#333"/><path d="M482.56 82.027c.184.137.413.25.688.34.276.09.539.135.789.135.429 0 .756-.087.981-.261.225-.174.337-.429.337-.765 0-.23-.07-.428-.211-.595-.141-.166-.396-.362-.768-.588-.418-.25-.721-.502-.911-.756a1.452 1.452 0 0 1-.284-.891c0-.515.19-.943.568-1.283.379-.34.872-.51 1.477-.51a3.9 3.9 0 0 1 .727.076c.261.051.492.125.691.223l-.152.721a2.347 2.347 0 0 0-1.301-.375c-.379 0-.683.098-.911.296a.968.968 0 0 0-.343.77c0 .231.062.43.187.598.125.168.375.363.75.586.454.277.773.542.958.794.186.252.279.54.279.864 0 .531-.194.954-.58 1.268-.387.315-.914.472-1.582.472-.27 0-.546-.036-.829-.108a2.704 2.704 0 0 1-.712-.279l.152-.732z" fill="#333"/><path d="M491.894 77.639h-1.049l.147-.639h1.031l.322-1.517.791-.24-.375 1.757h1.565l-.147.639h-1.553l-.744 3.498c-.07.316-.105.574-.105.773 0 .196.041.338.123.428.082.09.219.135.41.135.184 0 .482-.092.897-.275l-.147.668a2.462 2.462 0 0 1-.478.172 1.912 1.912 0 0 1-.477.074c-.719 0-1.078-.371-1.078-1.114 0-.23.037-.507.111-.832l.756-3.527z" fill="#333"/><path d="M496.189 74.117h.732l-.943 4.441h.023c.715-1.136 1.514-1.705 2.397-1.705.5 0 .875.142 1.125.425.25.283.375.693.375 1.228 0 .054-.008.136-.023.246-.016.109-.04.259-.071.448-.031.189-.293 1.456-.785 3.8h-.744l.721-3.481c.097-.453.146-.761.146-.925 0-.731-.316-1.096-.949-1.096-.316 0-.66.132-1.031.395a3.878 3.878 0 0 0-.973 1.017 3.533 3.533 0 0 0-.545 1.242L495.035 83h-.744l1.898-8.883z" fill="#333"/><path d="M501.867 79.783c1.164 0 2.021-.111 2.572-.334.551-.223.826-.572.826-1.049 0-.293-.098-.516-.295-.671-.198-.154-.474-.231-.83-.231-.531 0-1.009.214-1.435.641-.426.428-.705.976-.838 1.644zm-.1.943c0 .563.149.999.446 1.31.297.31.707.466 1.23.466.535 0 1.11-.18 1.723-.539l-.141.738a3.384 3.384 0 0 1-1.687.445c-.746 0-1.321-.218-1.723-.656-.402-.437-.603-1.051-.603-1.84 0-.676.145-1.307.436-1.895a3.564 3.564 0 0 1 1.181-1.392 2.775 2.775 0 0 1 1.599-.51c.543 0 .978.136 1.304.408.326.271.489.633.489 1.086 0 .692-.339 1.206-1.016 1.541-.678.336-1.753.512-3.226.528l-.012.31z" fill="#333"/><path d="M510.779 82.203c.348.199.744.299 1.189.299a2.34 2.34 0 0 0 1.398-.454c.42-.303.749-.718.987-1.245a4.084 4.084 0 0 0 .358-1.705c0-.543-.095-.946-.285-1.208-.189-.261-.483-.392-.881-.392-.328 0-.658.14-.988.419-.33.279-.626.663-.887 1.151-.262.489-.44.971-.534 1.447m.616-6.398h.738l-.639 3-.31 1.383h.017c.602-1.098 1.336-1.647 2.203-1.647.559 0 .983.189 1.272.566.289.377.434.919.434 1.626 0 .762-.159 1.464-.475 2.106-.317.643-.745 1.136-1.286 1.48a3.329 3.329 0 0 1-1.82.515 4.03 4.03 0 0 1-1.022-.143 3.381 3.381 0 0 1-.917-.372l1.805-8.514z" fill="#333"/><path d="M518.291 75.494a.508.508 0 0 1-.378-.161.531.531 0 0 1-.155-.378c0-.152.053-.276.158-.372a.537.537 0 0 1 .375-.144c.145 0 .27.048.375.144.105.096.158.22.158.372s-.054.28-.161.384a.52.52 0 0 1-.372.155zM517.488 77h.744l-.896 4.224c-.078.399-.117.674-.117.827 0 .277.15.416.451.416.18 0 .342-.028.486-.082l-.123.597a1.672 1.672 0 0 1-.627.117c-.304 0-.538-.079-.7-.237-.162-.158-.243-.389-.243-.694 0-.215.045-.537.135-.967l.89-4.201z" fill="#333"/><path d="M523.893 77.621a5.128 5.128 0 0 0-1.184-.123c-.507 0-.973.145-1.397.436-.424.291-.758.7-1.002 1.225a4.033 4.033 0 0 0-.366 1.72c0 1.082.365 1.623 1.095 1.623.34 0 .681-.144 1.023-.431.342-.287.645-.681.911-1.183a5.8 5.8 0 0 0 .557-1.486m-4.84 5.262c.57.332 1.119.498 1.646.498.664 0 1.194-.187 1.588-.56.395-.373.692-.991.891-1.854l.299-1.348h-.024c-.34.594-.681 1.034-1.025 1.319a1.78 1.78 0 0 1-1.166.427c-.539 0-.959-.187-1.26-.562-.301-.375-.451-.92-.451-1.635 0-.746.157-1.434.472-2.065a3.714 3.714 0 0 1 1.303-1.489 3.294 3.294 0 0 1 1.834-.542c.27 0 .594.023.973.068.379.045.703.096.973.155l-1.166 5.496c-.254 1.168-.646 2.001-1.175 2.499-.53.498-1.251.747-2.165.747a3.48 3.48 0 0 1-1.688-.433l.141-.721z" fill="#333"/><path d="M529.588 82.268c.344.156.75.234 1.219.234.511 0 .978-.15 1.4-.451.422-.301.752-.712.99-1.233a4.038 4.038 0 0 0 .358-1.702c0-1.078-.383-1.618-1.149-1.618-.32 0-.651.145-.993.434-.342.289-.646.678-.914 1.166a5.361 5.361 0 0 0-.559 1.5M529.77 77h.75c0 .137-.026.401-.077.791-.05.391-.091.666-.123.827h.024c.648-1.176 1.404-1.764 2.267-1.764.543 0 .962.185 1.257.557.295.371.443.916.443 1.634a4.57 4.57 0 0 1-.484 2.083c-.322.643-.756 1.14-1.301 1.492a3.256 3.256 0 0 1-1.801.527 3.56 3.56 0 0 1-1.266-.229l-.609 2.883h-.739l1.465-6.926c.047-.242.091-.579.132-1.01.041-.432.062-.72.062-.865z" fill="#333"/><path d="M537.135 75.494a.508.508 0 0 1-.378-.161.531.531 0 0 1-.155-.378c0-.152.053-.276.158-.372a.537.537 0 0 1 .375-.144c.145 0 .27.048.375.144.105.096.158.22.158.372s-.054.28-.161.384a.52.52 0 0 1-.372.155zM536.332 77h.744l-.896 4.224c-.078.399-.117.674-.117.827 0 .277.15.416.451.416.18 0 .342-.028.486-.082l-.123.597a1.672 1.672 0 0 1-.627.117c-.304 0-.538-.079-.7-.237-.162-.158-.243-.389-.243-.694 0-.215.045-.537.135-.967l.89-4.201z" fill="#333"/><path d="M540.158 83.147c-.664 0-1.185-.216-1.562-.647-.376-.432-.565-1.021-.565-1.767 0-.711.142-1.366.425-1.966.283-.599.677-1.068 1.181-1.406a2.92 2.92 0 0 1 1.664-.507c.566 0 1.043.133 1.429.398l-.176.762c-.351-.344-.796-.515-1.335-.515-.457 0-.874.144-1.251.433-.377.289-.671.682-.882 1.178a3.983 3.983 0 0 0-.317 1.576c0 .578.133 1.025.399 1.342.265.316.635.474 1.107.474.481 0 .998-.201 1.553-.603l-.176.809a4.208 4.208 0 0 1-.791.345 2.49 2.49 0 0 1-.703.094z" fill="#333"/><path d="M544.242 77.639h-1.049l.147-.639h1.031l.322-1.517.791-.24-.375 1.757h1.565l-.147.639h-1.553l-.744 3.498c-.07.316-.105.574-.105.773 0 .196.041.338.123.428.082.09.219.135.41.135.184 0 .482-.092.897-.275l-.147.668a2.462 2.462 0 0 1-.478.172 1.912 1.912 0 0 1-.477.074c-.719 0-1.078-.371-1.078-1.114 0-.23.037-.507.111-.832l.756-3.527z" fill="#333"/><path d="M547.852 77h.738l-.726 3.48c-.094.477-.141.786-.141.926 0 .731.315 1.096.943 1.096.305 0 .634-.122.988-.366a3.98 3.98 0 0 0 .978-1.005c.299-.426.495-.85.589-1.272l.61-2.859h.738l-.92 4.313a15.542 15.542 0 0 0-.281 1.687h-.721l.252-1.57h-.024c-.339.55-.716.974-1.13 1.271-.414.297-.838.445-1.272.445-.508 0-.887-.143-1.137-.43-.25-.287-.375-.695-.375-1.222 0-.113.021-.297.062-.551.041-.254.081-.459.12-.615l.709-3.328z" fill="#333"/><path d="M554.402 77h.732l-.199 1.371h.024c.265-.508.544-.888.835-1.14a1.489 1.489 0 0 1 1.004-.377 1.6 1.6 0 0 1 .627.123l-.134.791h-.024a1.177 1.177 0 0 0-.65-.205c-.426 0-.837.264-1.234.793-.396.53-.682 1.199-.858 2.007L553.963 83h-.739l.838-3.937c.184-.825.297-1.512.34-2.063z" fill="#333"/><path d="M558.352 79.783c1.164 0 2.021-.111 2.572-.334.551-.223.826-.572.826-1.049 0-.293-.098-.516-.295-.671-.198-.154-.474-.231-.83-.231-.531 0-1.009.214-1.435.641-.426.428-.705.976-.838 1.644zm-.1.943c0 .563.149.999.446 1.31.297.31.707.466 1.23.466.535 0 1.11-.18 1.723-.539l-.141.738a3.384 3.384 0 0 1-1.687.445c-.746 0-1.321-.218-1.723-.656-.402-.437-.603-1.051-.603-1.84 0-.676.145-1.307.436-1.895a3.564 3.564 0 0 1 1.181-1.392 2.775 2.775 0 0 1 1.599-.51c.543 0 .978.136 1.304.408.326.271.489.633.489 1.086 0 .692-.339 1.206-1.016 1.541-.678.336-1.753.512-3.226.528l-.012.31z" fill="#333"/><path d="M563.549 83.117a.534.534 0 0 1-.381-.158.532.532 0 0 1-.164-.399c0-.156.053-.287.158-.392a.526.526 0 0 1 .387-.158.55.55 0 0 1 .398.158.52.52 0 0 1 .165.392.532.532 0 0 1-.167.393.55.55 0 0 1-.396.164z" fill="#333"/></g></svg>