<svg ti:v="1" width="699" height="114" viewBox="0 0 699 114" xmlns="http://www.w3.org/2000/svg" xmlns:ti="urn:schemas-jetbrains-com:tisvg"><rect id="frame" width="699" height="114" fill="none"/><g fill-rule="evenodd"><path d="M223 26h270v2H223v-2z" fill="#98A5BF"/><path d="M223 56h270v2H223v-2z" fill="#98A5BF"/><path d="M223 86h270v2H223v-2z" fill="#98A5BF"/><path d="M358 67.172L356.828 66H358m-84-28.828L272.828 36H274m210-18h-63v16.678l-5 5.555v9.595l3-3V78h-54.81l3.81-4.232v-9.596l-3 3V48h-84.81l3.81-4.232v-9.596l-3 3V18h-52v18h42v7.768l5 5.554V66h79v7.768l5 5.554V96h66V46.828l3 3v-9.595L425.19 36H484V18z" fill="#FFF"/><path d="M424 42l3 3v-4l-4.5-5-4.5 5v4l3-3v38h-59v14h62V42z" fill="#B25FBF"/><path d="M363 50h-85v14h82v8l-3-3v4l4.5 5 4.5-5v-4l-3 3V50z" fill="#B25FBF"/><path d="M279 20h-48v14h45v8l-3-3v4l4.5 5 4.5-5v-4l-3 3V20z" fill="#B25FBF"/><path d="M423 20h59v14h-59V20z" fill="#B25FBF"/><path d="M90.891 23.32h-4.849v-3.313h13.441v3.313h-4.849V37h-3.743V23.32z" fill="#FFF"/><path d="M100.73 20.008h3.743V37h-3.743V20.008z" fill="#FFF"/><path d="M107.281 20.008h5.664l3.912 11.088h.049l3.936-11.088h5.64V37h-3.744V23.968h-.049L118.225 37h-2.856l-4.295-13.032h-.049V37h-3.744V20.008z" fill="#FFF"/><path d="M129.481 20.008h11.544v3.456h-7.8v3.168h7.368v3.456h-7.368v3.456h8.232V37h-11.976V20.008z" fill="#FFF"/><path d="M144.001 20.008h3.744v13.536h6.936V37h-10.68V20.008z" fill="#FFF"/><path d="M156.097 20.008h3.743V37h-3.743V20.008z" fill="#FFF"/><path d="M162.648 20.008h5.088l7.225 11.809h.046V20.008h3.745V37h-4.896l-7.416-12.096h-.048V37h-3.744V20.008z" fill="#FFF"/><path d="M181.752 20.008h11.544v3.456h-7.8v3.168h7.367v3.456h-7.367v3.456h8.233V37h-11.977V20.008z" fill="#FFF"/><path d="M26.39 48.313a1.378 1.378 0 0 0-.644-.443 2.301 2.301 0 0 0-.768-.145c-.142 0-.287.018-.438.051a1.646 1.646 0 0 0-.424.156.917.917 0 0 0-.326.281.714.714 0 0 0-.125.425c0 .267.1.471.3.613.2.141.452.262.757.362.304.1.63.2.98.3.35.1.678.242.982.425.305.183.557.429.757.738.2.308.3.72.3 1.237 0 .492-.092.921-.276 1.287-.183.367-.43.671-.743.913a3.158 3.158 0 0 1-1.088.537 4.757 4.757 0 0 1-1.306.175 4.736 4.736 0 0 1-1.6-.262 4.026 4.026 0 0 1-1.375-.85l1.388-1.525c.2.267.452.473.755.619a2.164 2.164 0 0 0 1.426.163c.162-.038.308-.094.438-.169a.95.95 0 0 0 .312-.288.725.725 0 0 0 .118-.412.75.75 0 0 0-.305-.631 2.83 2.83 0 0 0-.77-.395 24.913 24.913 0 0 0-1-.324 4.58 4.58 0 0 1-1-.438 2.406 2.406 0 0 1-.768-.725c-.204-.3-.306-.696-.306-1.188 0-.474.094-.891.28-1.25.189-.358.439-.658.75-.899a3.255 3.255 0 0 1 1.082-.544 4.424 4.424 0 0 1 1.263-.182c.5 0 .982.072 1.449.213.467.142.888.379 1.263.712l-1.337 1.463z" fill="#525F85"/><path d="M29.266 46.15h6.012v1.8h-4.063v1.649h3.838V51.4h-3.838v1.8h4.287V55h-6.236v-8.85z" fill="#525F85"/><path d="M37.14 46.15h6.013v1.8H39.09v1.649h3.838V51.4H39.09v1.8h4.287V55H37.14v-8.85z" fill="#525F85"/><path d="M48.715 46.15h6.012v1.8h-4.063v1.649h3.838V51.4h-3.838v1.8h4.288V55h-6.237v-8.85z" fill="#525F85"/><path d="M55.64 46.15h2.226l2.187 5.8h.025l2.225-5.8h2.087L60.74 55h-1.562l-3.538-8.85z" fill="#525F85"/><path d="M65.39 46.15h6.013v1.8H67.34v1.649h3.838V51.4H67.34v1.8h4.287V55H65.39v-8.85z" fill="#525F85"/><path d="M73.19 46.15h2.65l3.761 6.149h.026V46.15h1.95V55h-2.55l-3.862-6.3h-.026V55h-1.95v-8.85z" fill="#525F85"/><path d="M85.089 47.875h-2.524V46.15h7v1.725h-2.526V55h-1.95v-7.125z" fill="#525F85"/><path d="M94.926 48.313a1.382 1.382 0 0 0-.643-.443 2.307 2.307 0 0 0-.769-.145c-.142 0-.287.018-.438.051-.15.033-.291.085-.424.156a.917.917 0 0 0-.326.281.714.714 0 0 0-.125.425c0 .267.1.471.301.613.199.141.451.262.756.362.304.1.631.2.98.3.351.1.678.242.983.425.304.183.556.429.756.738.199.308.3.72.3 1.237 0 .492-.092.921-.275 1.287a2.606 2.606 0 0 1-.744.913 3.166 3.166 0 0 1-1.088.537 4.765 4.765 0 0 1-1.307.175 4.738 4.738 0 0 1-1.599-.262 4.026 4.026 0 0 1-1.375-.85l1.388-1.525c.2.267.452.473.756.619a2.156 2.156 0 0 0 1.424.163c.163-.038.309-.094.438-.169a.92.92 0 0 0 .312-.288.71.71 0 0 0 .119-.412.745.745 0 0 0-.306-.631 2.801 2.801 0 0 0-.768-.395 25.445 25.445 0 0 0-1-.324 4.518 4.518 0 0 1-1-.438 2.409 2.409 0 0 1-.769-.725c-.204-.3-.307-.696-.307-1.188 0-.474.094-.891.281-1.25.188-.358.438-.658.75-.899a3.27 3.27 0 0 1 1.082-.544 4.417 4.417 0 0 1 1.262-.182c.5 0 .984.072 1.451.213.466.142.887.379 1.262.712l-1.338 1.463z" fill="#525F85"/><path d="M101.401 46.15h1.95V55h-1.95v-8.85z" fill="#525F85"/><path d="M105.126 46.15h2.649l3.764 6.149h.025V46.15h1.95V55h-2.551l-3.861-6.3h-.026V55h-1.95v-8.85z" fill="#525F85"/><path d="M121.188 51.225l-3.325-5.074h2.425l1.875 3.312 1.987-3.312h2.312l-3.324 5.074V55h-1.95v-3.775z" fill="#525F85"/><path d="M128.664 50.575c0 .417.064.798.193 1.144.129.345.315.645.557.9.24.254.531.452.868.594.337.141.714.212 1.132.212.416 0 .793-.071 1.131-.212.338-.142.627-.34.869-.594.24-.255.426-.555.556-.9a3.25 3.25 0 0 0 .194-1.144c0-.408-.065-.788-.194-1.138a2.652 2.652 0 0 0-.556-.906 2.546 2.546 0 0 0-.869-.594 2.911 2.911 0 0 0-1.131-.213c-.418 0-.795.072-1.132.213a2.532 2.532 0 0 0-1.425 1.5c-.129.35-.193.73-.193 1.138zm-2.025 0c0-.708.119-1.351.355-1.925a4.238 4.238 0 0 1 .994-1.469 4.4 4.4 0 0 1 1.513-.931 5.445 5.445 0 0 1 1.913-.325c.691 0 1.328.108 1.912.325a4.377 4.377 0 0 1 1.512.931c.426.405.757.894.994 1.469.238.574.356 1.217.356 1.925s-.118 1.35-.356 1.925a4.211 4.211 0 0 1-.994 1.469 4.377 4.377 0 0 1-1.512.931 5.47 5.47 0 0 1-1.912.324c-.692 0-1.33-.108-1.913-.324a4.4 4.4 0 0 1-1.513-.931 4.238 4.238 0 0 1-.994-1.469c-.236-.575-.355-1.217-.355-1.925z" fill="#525F85"/><path d="M144.976 51.588c0 .524-.079 1.008-.237 1.449a3.208 3.208 0 0 1-.706 1.151 3.24 3.24 0 0 1-1.169.762c-.467.183-1.004.275-1.613.275-.617 0-1.159-.092-1.625-.275a3.24 3.24 0 0 1-1.169-.762 3.208 3.208 0 0 1-.706-1.151 4.248 4.248 0 0 1-.237-1.449V46.15h1.949v5.363c0 .274.044.529.132.763.087.233.21.435.368.605.159.171.348.305.57.4.22.096.46.144.718.144.258 0 .496-.048.712-.144.217-.095.405-.229.563-.4.158-.17.281-.372.369-.605.088-.234.131-.489.131-.763V46.15h1.95v5.438z" fill="#525F85"/><path d="M148.726 49.813h1.149c.176 0 .362-.006.557-.019.195-.012.373-.049.531-.112a.929.929 0 0 0 .395-.294c.103-.134.156-.321.156-.562 0-.226-.047-.405-.139-.538a.909.909 0 0 0-.349-.306 1.559 1.559 0 0 0-.487-.144A3.996 3.996 0 0 0 150 47.8h-1.274m-1.95-1.649h3.426c.449 0 .877.043 1.281.131.403.088.758.233 1.062.437.303.204.545.48.725.825.179.346.269.778.269 1.294 0 .625-.164 1.157-.488 1.594-.325.438-.801.714-1.426.831l2.25 3.738h-2.336l-1.851-3.538h-.962v3.538h-1.95v-8.85z" fill="#525F85"/><path d="M164.363 48.45a1.924 1.924 0 0 0-.707-.538 2.35 2.35 0 0 0-.969-.188c-.367 0-.706.072-1.018.213a2.45 2.45 0 0 0-.813.594 2.793 2.793 0 0 0-.538.906c-.129.35-.193.73-.193 1.138 0 .417.064.798.193 1.144.13.345.307.645.531.9.226.254.491.452.795.594.304.141.631.212.981.212.4 0 .754-.083 1.062-.25.309-.166.563-.4.763-.701l1.625 1.213a3.381 3.381 0 0 1-1.425 1.162 4.41 4.41 0 0 1-1.775.375 5.462 5.462 0 0 1-1.912-.324 4.38 4.38 0 0 1-1.513-.931 4.209 4.209 0 0 1-.993-1.469c-.239-.575-.358-1.217-.358-1.925s.119-1.351.358-1.925a4.209 4.209 0 0 1 .993-1.469 4.38 4.38 0 0 1 1.513-.931 5.44 5.44 0 0 1 1.912-.325c.25 0 .51.023.781.069.271.046.537.118.801.219.261.099.513.233.756.399.242.167.458.371.65.612l-1.5 1.226z" fill="#525F85"/><path d="M168.687 50.575c0 .417.064.798.193 1.144a2.54 2.54 0 0 0 1.427 1.494c.337.141.714.212 1.13.212.417 0 .794-.071 1.131-.212a2.546 2.546 0 0 0 1.426-1.494 3.25 3.25 0 0 0 .193-1.144c0-.408-.064-.788-.193-1.138a2.609 2.609 0 0 0-.557-.906 2.546 2.546 0 0 0-.869-.594 2.904 2.904 0 0 0-1.131-.213c-.416 0-.793.072-1.13.213a2.54 2.54 0 0 0-.87.594 2.624 2.624 0 0 0-.557.906c-.129.35-.193.73-.193 1.138zm-2.025 0c0-.708.119-1.351.357-1.925a4.209 4.209 0 0 1 .993-1.469 4.38 4.38 0 0 1 1.513-.931 5.451 5.451 0 0 1 1.912-.325c.691 0 1.33.108 1.912.325a4.395 4.395 0 0 1 1.514.931c.424.405.756.894.993 1.469.237.574.356 1.217.356 1.925s-.119 1.35-.356 1.925a4.236 4.236 0 0 1-.993 1.469c-.426.404-.93.714-1.514.931a5.462 5.462 0 0 1-1.912.324c-.69 0-1.328-.108-1.912-.324a4.38 4.38 0 0 1-1.513-.931 4.209 4.209 0 0 1-.993-1.469c-.238-.575-.357-1.217-.357-1.925z" fill="#525F85"/><path d="M179.488 53.2h1.012c.45 0 .869-.046 1.256-.138a2.675 2.675 0 0 0 1.006-.456c.284-.213.507-.492.669-.838.162-.345.245-.768.245-1.268 0-.434-.083-.811-.245-1.131a2.242 2.242 0 0 0-.656-.794 2.894 2.894 0 0 0-.969-.469 4.308 4.308 0 0 0-1.169-.156h-1.149m-1.951-1.8h2.926c.708 0 1.38.079 2.018.237a4.623 4.623 0 0 1 1.669.769c.475.355.852.815 1.131 1.381.279.567.419 1.255.419 2.062 0 .717-.136 1.349-.406 1.895a4.079 4.079 0 0 1-1.094 1.375 4.87 4.87 0 0 1-1.587.844 6.196 6.196 0 0 1-1.889.287h-3.187v-8.85z" fill="#525F85"/><path d="M187.1 46.15h6.013v1.8h-4.063v1.649h3.838V51.4h-3.838v1.8h4.288V55H187.1v-8.85z" fill="#525F85"/><path d="M72.164 62.725l-1.074 2.75h2.162m-1.838-5.324h1.613L76.877 69h-2.199l-.764-1.875h-3.438L69.74 69h-2.15l3.824-8.849z" fill="#525F85"/><path d="M82.14 62.313a1.38 1.38 0 0 0-.644-.443 2.307 2.307 0 0 0-.769-.145c-.141 0-.287.018-.438.051a1.642 1.642 0 0 0-.423.156.92.92 0 0 0-.327.281.721.721 0 0 0-.125.425c0 .267.1.471.3.613.2.141.452.262.757.362.305.1.631.2.981.3.351.1.677.242.982.425.305.183.557.429.756.738.2.308.301.72.301 1.237 0 .492-.092.921-.276 1.287a2.606 2.606 0 0 1-.744.913 3.158 3.158 0 0 1-1.088.537 4.757 4.757 0 0 1-1.306.175 4.74 4.74 0 0 1-1.6-.262 4.035 4.035 0 0 1-1.375-.85l1.389-1.525c.199.267.45.473.755.619a2.163 2.163 0 0 0 1.425.163 1.59 1.59 0 0 0 .438-.169.93.93 0 0 0 .312-.288.718.718 0 0 0 .118-.412.747.747 0 0 0-.305-.631 2.808 2.808 0 0 0-.769-.395 25.473 25.473 0 0 0-1-.324 4.56 4.56 0 0 1-1-.438 2.42 2.42 0 0 1-.77-.725c-.202-.3-.305-.696-.305-1.188 0-.474.094-.891.28-1.25.189-.358.439-.658.75-.899a3.265 3.265 0 0 1 1.082-.544c.409-.121.83-.182 1.263-.182.5 0 .983.072 1.45.213.467.142.887.379 1.262.712l-1.337 1.463z" fill="#525F85"/><path d="M90.352 61.875h-2.525V60.15h7v1.725h-2.525V69h-1.95v-7.125z" fill="#525F85"/><path d="M95.814 60.15h1.949v3.3h3.788v-3.3h1.951V69h-1.951v-3.826h-3.788V69h-1.949v-8.85z" fill="#525F85"/><path d="M105.377 60.15h6.012v1.8h-4.063v1.649h3.838V65.4h-3.838v1.8h4.287V69h-6.236v-8.85z" fill="#525F85"/><path d="M115.352 65.225l-3.325-5.074h2.425l1.875 3.312 1.988-3.312h2.312l-3.326 5.074V69h-1.949v-3.775z" fill="#525F85"/><path d="M124.977 60.15h1.949v3.3h3.788v-3.3h1.951V69h-1.951v-3.826h-3.788V69h-1.949v-8.85z" fill="#525F85"/><path d="M138.126 62.725l-1.075 2.75h2.162m-1.837-5.324h1.612l3.85 8.849h-2.199l-.763-1.875h-3.438L135.701 69h-2.15l3.825-8.849z" fill="#525F85"/><path d="M145.676 63.9h1.301c.175 0 .344-.017.506-.051.162-.033.308-.089.437-.168a.896.896 0 0 0 .313-.325 1.03 1.03 0 0 0 .119-.519c0-.225-.053-.406-.156-.543a1.05 1.05 0 0 0-.401-.32 1.74 1.74 0 0 0-.544-.143 5.507 5.507 0 0 0-.575-.032h-1m-1.949-1.649h3.287c.458 0 .891.041 1.3.125.408.083.764.227 1.069.431.304.204.545.479.725.825.179.346.268.781.268 1.306 0 .517-.083.95-.25 1.3-.167.35-.395.629-.687.837a2.793 2.793 0 0 1-1.037.445c-.401.086-.833.13-1.3.13h-1.426V69h-1.949v-8.85z" fill="#525F85"/><path d="M153.551 63.9h1.3c.175 0 .344-.017.507-.051.162-.033.307-.089.437-.168a.904.904 0 0 0 .313-.325 1.04 1.04 0 0 0 .118-.519c0-.225-.052-.406-.156-.543a1.047 1.047 0 0 0-.4-.32 1.747 1.747 0 0 0-.545-.143 5.473 5.473 0 0 0-.574-.032h-1m-1.95-1.649h3.288c.457 0 .891.041 1.299.125.408.083.765.227 1.069.431.304.204.546.479.726.825.178.346.267.781.267 1.306 0 .517-.082.95-.25 1.3a2.11 2.11 0 0 1-.687.837 2.779 2.779 0 0 1-1.037.445c-.401.086-.833.13-1.3.13h-1.425V69h-1.95v-8.85z" fill="#525F85"/><path d="M159.551 60.15h6.012v1.8H161.5v1.649h3.838V65.4H161.5v1.8h4.288V69h-6.237v-8.85z" fill="#525F85"/><path d="M167.351 60.15H170l3.764 6.149h.025V60.15h1.95V69h-2.551l-3.861-6.3h-.026V69h-1.95v-8.85z" fill="#525F85"/><path d="M177.613 60.15h6.012v1.8h-4.063v1.649h3.838V65.4h-3.838v1.8h4.287V69h-6.236v-8.85z" fill="#525F85"/><path d="M187.363 67.2h1.012c.45 0 .869-.046 1.256-.138a2.675 2.675 0 0 0 1.006-.456c.284-.213.507-.492.669-.838.162-.345.245-.768.245-1.268 0-.434-.083-.811-.245-1.131a2.242 2.242 0 0 0-.656-.794 2.894 2.894 0 0 0-.969-.469 4.308 4.308 0 0 0-1.169-.156h-1.149m-1.951-1.8h2.926c.708 0 1.38.079 2.018.237a4.623 4.623 0 0 1 1.669.769c.475.355.852.815 1.131 1.381.279.567.419 1.255.419 2.062 0 .717-.136 1.349-.406 1.895a4.079 4.079 0 0 1-1.094 1.375 4.87 4.87 0 0 1-1.587.844 6.196 6.196 0 0 1-1.889.287h-3.187v-8.85z" fill="#525F85"/><path d="M504.109 44.598h.779l-.984 4.623c-.109.496-.164.92-.164 1.272 0 .652.173 1.141.518 1.467.346.326.824.49 1.433.49.707 0 1.264-.204 1.67-.61.406-.406.707-1.058.902-1.957l1.125-5.285h.774l-1.096 5.156c-.262 1.227-.662 2.099-1.201 2.616-.539.518-1.301.777-2.285.777-.805 0-1.442-.231-1.91-.692-.469-.461-.704-1.086-.704-1.875 0-.418.043-.826.129-1.224l1.014-4.758z" fill="#333"/><path d="M510.285 52.027c.184.137.413.25.688.34.276.09.539.135.789.135.429 0 .756-.087.981-.261.225-.174.337-.429.337-.765 0-.23-.07-.428-.211-.595-.141-.166-.396-.362-.768-.588-.418-.25-.721-.502-.911-.756a1.452 1.452 0 0 1-.284-.891c0-.515.19-.943.568-1.283.379-.34.872-.51 1.477-.51a3.9 3.9 0 0 1 .727.076c.261.051.492.125.691.223l-.152.721a2.347 2.347 0 0 0-1.301-.375c-.379 0-.683.098-.911.296a.968.968 0 0 0-.343.77c0 .231.062.43.187.598.125.168.375.363.75.586.454.277.773.542.958.794.186.252.279.54.279.864 0 .531-.194.954-.58 1.268-.387.315-.914.472-1.582.472-.27 0-.546-.036-.829-.108a2.704 2.704 0 0 1-.712-.279l.152-.732z" fill="#333"/><path d="M516.021 49.783c1.164 0 2.021-.111 2.572-.334.551-.223.826-.572.826-1.049 0-.293-.098-.516-.295-.671-.198-.154-.474-.231-.83-.231-.531 0-1.009.214-1.435.641-.426.428-.705.976-.838 1.644zm-.1.943c0 .563.149.999.446 1.31.297.31.707.466 1.23.466.535 0 1.11-.18 1.723-.539l-.141.738a3.384 3.384 0 0 1-1.687.445c-.746 0-1.321-.218-1.723-.656-.402-.437-.603-1.051-.603-1.84 0-.676.145-1.307.436-1.895a3.564 3.564 0 0 1 1.181-1.392 2.775 2.775 0 0 1 1.599-.51c.543 0 .978.136 1.304.408.326.271.489.633.489 1.086 0 .692-.339 1.206-1.016 1.541-.678.336-1.753.512-3.226.528l-.012.31z" fill="#333"/><path d="M526.064 45.494a.508.508 0 0 1-.378-.161.531.531 0 0 1-.155-.378c0-.152.053-.276.158-.372a.537.537 0 0 1 .375-.144c.145 0 .27.048.375.144.105.096.158.22.158.372s-.054.28-.161.384a.52.52 0 0 1-.372.155zM525.261 47h.744l-.896 4.224c-.078.399-.117.674-.117.827 0 .277.15.416.451.416.18 0 .342-.028.486-.082l-.123.597a1.672 1.672 0 0 1-.627.117c-.304 0-.538-.079-.7-.237-.162-.158-.243-.389-.243-.694 0-.215.045-.537.135-.967l.89-4.201z" fill="#333"/><path d="M528.115 47.639h-1.049l.147-.639h1.031l.322-1.517.791-.24-.375 1.757h1.565l-.147.639h-1.553l-.744 3.498c-.07.316-.105.574-.105.773 0 .196.041.338.123.428.082.09.219.135.41.135.184 0 .482-.092.897-.275l-.147.668a2.462 2.462 0 0 1-.478.172 1.912 1.912 0 0 1-.477.074c-.719 0-1.078-.371-1.078-1.114 0-.23.037-.507.111-.832l.756-3.527z" fill="#333"/><path d="M535.123 47.639h-1.049l.147-.639h1.031l.322-1.517.791-.24L535.99 47h1.565l-.147.639h-1.553l-.744 3.498c-.07.316-.105.574-.105.773 0 .196.041.338.123.428.082.09.219.135.41.135.184 0 .482-.092.897-.275l-.147.668a2.462 2.462 0 0 1-.478.172 1.912 1.912 0 0 1-.477.074c-.719 0-1.078-.371-1.078-1.114 0-.23.037-.507.111-.832l.756-3.527z" fill="#333"/><path d="M539.893 52.502c.441 0 .848-.145 1.219-.434.371-.289.661-.683.87-1.183.209-.5.313-1.047.313-1.641 0-.566-.13-.999-.389-1.298-.26-.298-.617-.448-1.07-.448-.668 0-1.235.314-1.702.941-.467.626-.7 1.399-.7 2.317 0 .547.131.975.393 1.283.261.309.617.463 1.066.463zm-.053.645c-.668 0-1.195-.207-1.582-.619-.386-.412-.58-.987-.58-1.725 0-.727.138-1.394.413-2.001.276-.608.662-1.084 1.16-1.43a2.818 2.818 0 0 1 1.644-.518c.664 0 1.189.208 1.576.624.387.416.58.987.58 1.713 0 .739-.137 1.412-.413 2.019-.275.607-.658 1.082-1.148 1.424a2.818 2.818 0 0 1-1.65.513z" fill="#333"/><path d="M547.1 52.027c.184.137.413.25.688.34.276.09.539.135.789.135.429 0 .756-.087.981-.261.225-.174.337-.429.337-.765 0-.23-.07-.428-.211-.595-.141-.166-.396-.362-.768-.588-.418-.25-.721-.502-.911-.756a1.452 1.452 0 0 1-.284-.891c0-.515.19-.943.568-1.283.379-.34.872-.51 1.477-.51a3.9 3.9 0 0 1 .727.076c.261.051.492.125.691.223l-.152.721a2.347 2.347 0 0 0-1.301-.375c-.379 0-.683.098-.911.296a.968.968 0 0 0-.343.77c0 .231.062.43.187.598.125.168.375.363.75.586.454.277.773.542.958.794.186.252.279.54.279.864 0 .531-.194.954-.58 1.268-.387.315-.914.472-1.582.472-.27 0-.546-.036-.829-.108a2.704 2.704 0 0 1-.712-.279l.152-.732z" fill="#333"/><path d="M552.836 49.783c1.164 0 2.021-.111 2.572-.334.551-.223.826-.572.826-1.049 0-.293-.098-.516-.295-.671-.198-.154-.474-.231-.83-.231-.531 0-1.009.214-1.435.641-.426.428-.705.976-.838 1.644zm-.1.943c0 .563.149.999.446 1.31.297.31.707.466 1.23.466.535 0 1.11-.18 1.723-.539l-.141.738a3.384 3.384 0 0 1-1.687.445c-.746 0-1.321-.218-1.723-.656-.402-.437-.603-1.051-.603-1.84 0-.676.145-1.307.436-1.895a3.564 3.564 0 0 1 1.181-1.392 2.775 2.775 0 0 1 1.599-.51c.543 0 .978.136 1.304.408.326.271.489.633.489 1.086 0 .692-.339 1.206-1.016 1.541-.678.336-1.753.512-3.226.528l-.012.31z" fill="#333"/><path d="M558.549 49.783c1.164 0 2.021-.111 2.572-.334.551-.223.826-.572.826-1.049 0-.293-.098-.516-.295-.671-.198-.154-.474-.231-.83-.231-.531 0-1.009.214-1.435.641-.426.428-.705.976-.838 1.644zm-.1.943c0 .563.149.999.446 1.31.297.31.707.466 1.23.466.535 0 1.11-.18 1.723-.539l-.141.738a3.384 3.384 0 0 1-1.687.445c-.746 0-1.321-.218-1.723-.656-.402-.437-.603-1.051-.603-1.84 0-.676.145-1.307.436-1.895a3.564 3.564 0 0 1 1.181-1.392 2.775 2.775 0 0 1 1.599-.51c.543 0 .978.136 1.304.408.326.271.489.633.489 1.086 0 .692-.339 1.206-1.016 1.541-.678.336-1.753.512-3.226.528l-.012.31z" fill="#333"/><path d="M568.445 44.117h.732l-.943 4.441h.023c.715-1.136 1.514-1.705 2.397-1.705.5 0 .875.142 1.125.425.25.283.375.693.375 1.228 0 .054-.008.136-.023.246-.016.109-.04.259-.071.448-.031.189-.293 1.456-.785 3.8h-.744l.721-3.481c.097-.453.146-.761.146-.925 0-.731-.316-1.096-.949-1.096-.316 0-.66.132-1.031.395a3.878 3.878 0 0 0-.973 1.017 3.533 3.533 0 0 0-.545 1.242L567.291 53h-.744l1.898-8.883z" fill="#333"/><path d="M575.482 52.502c.441 0 .848-.145 1.219-.434.371-.289.661-.683.87-1.183.209-.5.313-1.047.313-1.641 0-.566-.13-.999-.389-1.298-.26-.298-.617-.448-1.07-.448-.668 0-1.235.314-1.702.941-.467.626-.7 1.399-.7 2.317 0 .547.131.975.393 1.283.261.309.617.463 1.066.463zm-.053.645c-.668 0-1.195-.207-1.582-.619-.386-.412-.58-.987-.58-1.725 0-.727.138-1.394.413-2.001.276-.608.662-1.084 1.16-1.43a2.818 2.818 0 0 1 1.644-.518c.664 0 1.189.208 1.576.624.387.416.58.987.58 1.713 0 .739-.137 1.412-.413 2.019-.275.607-.658 1.082-1.148 1.424a2.818 2.818 0 0 1-1.65.513z" fill="#333"/><path d="M579.894 47h.727l.339 4.717V51.869l-.023.311h.041c.062-.2.135-.379.217-.539L583.644 47h.592l.346 4.822-.03.364h.047a2.83 2.83 0 0 1 .211-.54L587.124 47h.762l-3.111 6h-.697l-.358-4.383-.012-.222.024-.34h-.024a3.407 3.407 0 0 1-.085.214c-.037.087-.866 1.665-2.487 4.731h-.703l-.539-6z" fill="#333"/><path d="M595.937 47.674a3.627 3.627 0 0 0-1.131-.176c-.531 0-1.007.144-1.427.431-.42.287-.755.696-1.007 1.227a3.986 3.986 0 0 0-.378 1.729c0 1.078.377 1.617 1.13 1.617.313 0 .634-.138.964-.413.33-.275.631-.658.903-1.148a5.793 5.793 0 0 0 .589-1.574M594.976 53c.016-.39.08-.924.193-1.599h-.023c-.328.578-.666 1.013-1.014 1.306-.347.293-.744.44-1.189.44-.535 0-.953-.189-1.254-.566-.301-.377-.451-.919-.451-1.626 0-.746.158-1.439.474-2.08.317-.64.751-1.138 1.304-1.491a3.356 3.356 0 0 1 1.849-.53c.375 0 .777.054 1.207.164l.615-2.901h.727l-1.477 7.008a9.249 9.249 0 0 0-.126.914c-.049.461-.073.781-.073.961h-.762z" fill="#333"/><path d="M599.506 45.494a.508.508 0 0 1-.378-.161.531.531 0 0 1-.155-.378c0-.152.053-.276.158-.372a.537.537 0 0 1 .375-.144c.145 0 .27.048.375.144.105.096.158.22.158.372s-.054.28-.161.384a.52.52 0 0 1-.372.155zM598.703 47h.744l-.896 4.224c-.078.399-.117.674-.117.827 0 .277.15.416.451.416.18 0 .342-.028.486-.082l-.123.597a1.672 1.672 0 0 1-.627.117c-.304 0-.538-.079-.7-.237-.162-.158-.243-.389-.243-.694 0-.215.045-.537.135-.967l.89-4.201z" fill="#333"/><path d="M601.568 47.639h-1.061l.147-.639h1.055l.24-1.125c.269-1.265.961-1.898 2.074-1.898.254 0 .494.035.721.105l-.129.68c-.16-.098-.381-.146-.662-.146-.344 0-.62.114-.829.342-.209.229-.365.585-.466 1.07l-.211.972h1.512l-.153.639H602.3l-1.57 7.354h-.738l1.576-7.354z" fill="#333"/><path d="M604.867 47.639h-1.061l.147-.639h1.055l.24-1.125c.269-1.265.961-1.898 2.074-1.898.254 0 .494.035.721.105l-.129.68c-.16-.098-.381-.146-.662-.146-.344 0-.62.114-.829.342-.209.229-.365.585-.466 1.07l-.211.972h1.512l-.153.639h-1.506l-1.57 7.354h-.738l1.576-7.354z" fill="#333"/><path d="M607.855 49.783c1.164 0 2.021-.111 2.572-.334.551-.223.826-.572.826-1.049 0-.293-.098-.516-.295-.671-.198-.154-.474-.231-.83-.231-.531 0-1.009.214-1.435.641-.426.428-.705.976-.838 1.644zm-.1.943c0 .563.149.999.446 1.31.297.31.707.466 1.23.466.535 0 1.11-.18 1.723-.539l-.141.738a3.384 3.384 0 0 1-1.687.445c-.746 0-1.321-.218-1.723-.656-.402-.437-.603-1.051-.603-1.84 0-.676.145-1.307.436-1.895a3.564 3.564 0 0 1 1.181-1.392 2.775 2.775 0 0 1 1.599-.51c.543 0 .978.136 1.304.408.326.271.489.633.489 1.086 0 .692-.339 1.206-1.016 1.541-.678.336-1.753.512-3.226.528l-.012.31z" fill="#333"/><path d="M613.744 47h.732l-.199 1.371h.024c.265-.508.544-.888.835-1.14a1.489 1.489 0 0 1 1.004-.377 1.6 1.6 0 0 1 .627.123l-.134.791h-.024a1.177 1.177 0 0 0-.65-.205c-.426 0-.837.264-1.234.793-.396.53-.682 1.199-.858 2.007L613.305 53h-.739l.838-3.937c.184-.825.297-1.512.34-2.063z" fill="#333"/><path d="M617.693 49.783c1.164 0 2.021-.111 2.572-.334.551-.223.826-.572.826-1.049 0-.293-.098-.516-.295-.671-.198-.154-.474-.231-.83-.231-.531 0-1.009.214-1.435.641-.426.428-.705.976-.838 1.644zm-.1.943c0 .563.149.999.446 1.31.297.31.707.466 1.23.466.535 0 1.11-.18 1.723-.539l-.141.738a3.384 3.384 0 0 1-1.687.445c-.746 0-1.321-.218-1.723-.656-.402-.437-.603-1.051-.603-1.84 0-.676.145-1.307.436-1.895a3.564 3.564 0 0 1 1.181-1.392 2.775 2.775 0 0 1 1.599-.51c.543 0 .978.136 1.304.408.326.271.489.633.489 1.086 0 .692-.339 1.206-1.016 1.541-.678.336-1.753.512-3.226.528l-.012.31z" fill="#333"/><path d="M623.623 47h.721c-.055.418-.139.941-.252 1.57h.023c.34-.55.717-.974 1.131-1.271.414-.297.84-.445 1.277-.445 1.004 0 1.506.542 1.506 1.628 0 .215-.062.614-.187 1.196L627.139 53h-.739l.721-3.48c.094-.477.141-.786.141-.926 0-.731-.315-1.096-.944-1.096-.312 0-.654.132-1.025.396a3.934 3.934 0 0 0-.976 1.013 3.48 3.48 0 0 0-.548 1.234L623.16 53h-.744l.926-4.307c.109-.543.203-1.107.281-1.693z" fill="#333"/><path d="M630.303 47.639h-1.049l.147-.639h1.031l.322-1.517.791-.24L631.17 47h1.565l-.147.639h-1.553l-.744 3.498c-.07.316-.105.574-.105.773 0 .196.041.338.123.428.082.09.219.135.41.135.184 0 .482-.092.897-.275l-.147.668a2.462 2.462 0 0 1-.478.172 1.912 1.912 0 0 1-.477.074c-.719 0-1.078-.371-1.078-1.114 0-.23.037-.507.111-.832l.756-3.527z" fill="#333"/><path d="M637.012 49.783c1.164 0 2.021-.111 2.572-.334.551-.223.826-.572.826-1.049 0-.293-.098-.516-.295-.671-.198-.154-.474-.231-.83-.231-.531 0-1.009.214-1.435.641-.426.428-.705.976-.838 1.644zm-.1.943c0 .563.149.999.446 1.31.297.31.707.466 1.23.466.535 0 1.11-.18 1.723-.539l-.141.738a3.384 3.384 0 0 1-1.687.445c-.746 0-1.321-.218-1.723-.656-.402-.437-.603-1.051-.603-1.84 0-.676.145-1.307.436-1.895a3.564 3.564 0 0 1 1.181-1.392 2.775 2.775 0 0 1 1.599-.51c.543 0 .978.136 1.304.408.326.271.489.633.489 1.086 0 .692-.339 1.206-1.016 1.541-.678.336-1.753.512-3.226.528l-.012.31z" fill="#333"/><path d="M642.209 47h.744l.668 4.295c.047.309.07.586.07.832h.024a6.55 6.55 0 0 1 .351-.703L646.627 47h.838l-3.615 6h-.639l-1.002-6z" fill="#333"/><path d="M648.273 49.783c1.164 0 2.021-.111 2.572-.334.551-.223.826-.572.826-1.049 0-.293-.098-.516-.295-.671-.198-.154-.474-.231-.83-.231-.531 0-1.009.214-1.435.641-.426.428-.705.976-.838 1.644zm-.1.943c0 .563.149.999.446 1.31.297.31.707.466 1.23.466.535 0 1.11-.18 1.723-.539l-.141.738a3.384 3.384 0 0 1-1.687.445c-.746 0-1.321-.218-1.723-.656-.402-.437-.603-1.051-.603-1.84 0-.676.145-1.307.436-1.895a3.564 3.564 0 0 1 1.181-1.392 2.775 2.775 0 0 1 1.599-.51c.543 0 .978.136 1.304.408.326.271.489.633.489 1.086 0 .692-.339 1.206-1.016 1.541-.678.336-1.753.512-3.226.528l-.012.31z" fill="#333"/><path d="M654.203 47h.721c-.055.418-.139.941-.252 1.57h.023c.34-.55.717-.974 1.131-1.271.414-.297.84-.445 1.277-.445 1.004 0 1.506.542 1.506 1.628 0 .215-.062.614-.187 1.196L657.719 53h-.739l.721-3.48c.094-.477.141-.786.141-.926 0-.731-.315-1.096-.944-1.096-.312 0-.654.132-1.025.396a3.934 3.934 0 0 0-.976 1.013 3.48 3.48 0 0 0-.548 1.234L653.74 53h-.744l.926-4.307c.109-.543.203-1.107.281-1.693z" fill="#333"/><path d="M660.883 47.639h-1.049l.147-.639h1.031l.322-1.517.791-.24L661.75 47h1.565l-.147.639h-1.553l-.744 3.498c-.07.316-.105.574-.105.773 0 .196.041.338.123.428.082.09.219.135.41.135.184 0 .482-.092.897-.275l-.147.668a2.462 2.462 0 0 1-.478.172 1.912 1.912 0 0 1-.477.074c-.719 0-1.078-.371-1.078-1.114 0-.23.037-.507.111-.832l.756-3.527z" fill="#333"/><path d="M663.25 52.027c.184.137.413.25.688.34.276.09.539.135.789.135.429 0 .756-.087.981-.261.225-.174.337-.429.337-.765 0-.23-.07-.428-.211-.595-.141-.166-.396-.362-.768-.588-.418-.25-.721-.502-.911-.756a1.452 1.452 0 0 1-.284-.891c0-.515.19-.943.568-1.283.379-.34.872-.51 1.477-.51a3.9 3.9 0 0 1 .727.076c.261.051.492.125.691.223l-.152.721a2.347 2.347 0 0 0-1.301-.375c-.379 0-.683.098-.911.296a.968.968 0 0 0-.343.77c0 .231.062.43.187.598.125.168.375.363.75.586.454.277.773.542.958.794.186.252.279.54.279.864 0 .531-.194.954-.58 1.268-.387.315-.914.472-1.582.472-.27 0-.546-.036-.829-.108a2.704 2.704 0 0 1-.712-.279l.152-.732z" fill="#333"/><path d="M502.281 66.027c.184.137.413.25.688.34.276.09.539.135.789.135.429 0 .756-.087.981-.261.225-.174.337-.429.337-.765 0-.23-.07-.428-.211-.595-.141-.166-.396-.362-.768-.588-.418-.25-.721-.502-.911-.756a1.452 1.452 0 0 1-.284-.891c0-.515.19-.943.568-1.283.379-.34.872-.51 1.477-.51a3.9 3.9 0 0 1 .727.076c.261.051.492.125.691.223l-.152.721a2.347 2.347 0 0 0-1.301-.375c-.379 0-.683.098-.911.296a.968.968 0 0 0-.343.77c0 .231.062.43.187.598.125.168.375.363.75.586.454.277.773.542.958.794.186.252.279.54.279.864 0 .531-.194.954-.58 1.268-.387.315-.914.472-1.582.472-.27 0-.546-.036-.829-.108a2.704 2.704 0 0 1-.712-.279l.152-.732z" fill="#333"/><path d="M508.217 61h.738l-.726 3.48c-.094.477-.141.786-.141.926 0 .731.315 1.096.943 1.096.305 0 .634-.122.988-.366a3.98 3.98 0 0 0 .978-1.005c.299-.426.495-.85.589-1.272l.61-2.859h.738l-.92 4.313a15.542 15.542 0 0 0-.281 1.687h-.721l.252-1.57h-.024c-.339.55-.716.974-1.13 1.271-.414.297-.838.445-1.272.445-.508 0-.887-.143-1.137-.43-.25-.287-.375-.695-.375-1.222 0-.113.021-.297.062-.551.041-.254.081-.459.12-.615l.709-3.328z" fill="#333"/><path d="M515.863 67.147c-.664 0-1.185-.216-1.562-.647-.376-.432-.565-1.021-.565-1.767 0-.711.142-1.366.425-1.966.283-.599.677-1.068 1.181-1.406a2.92 2.92 0 0 1 1.664-.507c.566 0 1.043.133 1.429.398l-.176.762c-.351-.344-.796-.515-1.335-.515-.457 0-.874.144-1.251.433-.377.289-.671.682-.882 1.178a3.983 3.983 0 0 0-.317 1.576c0 .578.133 1.025.399 1.342.265.316.635.474 1.107.474.481 0 .998-.201 1.553-.603l-.176.809a4.208 4.208 0 0 1-.791.345 2.49 2.49 0 0 1-.703.094z" fill="#333"/><path d="M520.533 58.117h.732l-.943 4.441h.023c.715-1.136 1.514-1.705 2.397-1.705.5 0 .875.142 1.125.425.25.283.375.693.375 1.228 0 .054-.008.136-.023.246-.016.109-.04.259-.071.448-.031.189-.293 1.456-.785 3.8h-.744l.721-3.481c.097-.453.146-.761.146-.925 0-.731-.316-1.096-.949-1.096-.316 0-.66.132-1.031.395a3.878 3.878 0 0 0-.973 1.017 3.533 3.533 0 0 0-.545 1.242L519.379 67h-.744l1.898-8.883z" fill="#333"/><path d="M533.359 61.621a5.225 5.225 0 0 0-1.131-.123c-.531 0-1.01.144-1.435.434-.426.289-.763.699-1.011 1.23a4.089 4.089 0 0 0-.372 1.752c0 1.059.375 1.588 1.125 1.588.316 0 .64-.138.972-.413.332-.276.635-.665.909-1.169a5.878 5.878 0 0 0 .58-1.524M532.392 67c.016-.41.082-.949.199-1.617h-.023c-.359.633-.712 1.085-1.058 1.356a1.814 1.814 0 0 1-1.151.407c-.539 0-.958-.19-1.257-.571-.299-.381-.448-.917-.448-1.608 0-.746.161-1.445.483-2.095.323-.65.762-1.149 1.319-1.497a3.445 3.445 0 0 1 1.866-.522c.504 0 1.133.077 1.887.229l-.803 3.873c-.055.258-.11.609-.167 1.055a8.598 8.598 0 0 0-.085.99h-.762z" fill="#333"/><path d="M534.848 66.027c.184.137.413.25.688.34.276.09.539.135.789.135.429 0 .756-.087.981-.261.225-.174.337-.429.337-.765 0-.23-.07-.428-.211-.595-.141-.166-.396-.362-.768-.588-.418-.25-.721-.502-.911-.756a1.452 1.452 0 0 1-.284-.891c0-.515.19-.943.568-1.283.379-.34.872-.51 1.477-.51a3.9 3.9 0 0 1 .727.076c.261.051.492.125.691.223l-.152.721a2.347 2.347 0 0 0-1.301-.375c-.379 0-.683.098-.911.296a.968.968 0 0 0-.343.77c0 .231.062.43.187.598.125.168.375.363.75.586.454.277.773.542.958.794.186.252.279.54.279.864 0 .531-.194.954-.58 1.268-.387.315-.914.472-1.582.472-.27 0-.546-.036-.829-.108a2.704 2.704 0 0 1-.712-.279l.152-.732z" fill="#333"/><path d="M547.732 61.621a5.128 5.128 0 0 0-1.184-.123c-.507 0-.973.145-1.397.436-.424.291-.758.7-1.002 1.225a4.033 4.033 0 0 0-.366 1.72c0 1.082.365 1.623 1.095 1.623.34 0 .681-.144 1.023-.431.342-.287.645-.681.911-1.183a5.8 5.8 0 0 0 .557-1.486m-4.84 5.262c.57.332 1.119.498 1.646.498.664 0 1.194-.187 1.588-.56.395-.373.692-.991.891-1.854l.299-1.348h-.024c-.34.594-.681 1.034-1.025 1.319a1.78 1.78 0 0 1-1.166.427c-.539 0-.959-.187-1.26-.562-.301-.375-.451-.92-.451-1.635 0-.746.157-1.434.472-2.065a3.714 3.714 0 0 1 1.303-1.489 3.294 3.294 0 0 1 1.834-.542c.27 0 .594.023.973.068.379.045.703.096.973.155l-1.166 5.496c-.254 1.168-.646 2.001-1.175 2.499-.53.498-1.251.747-2.165.747a3.48 3.48 0 0 1-1.688-.433l.141-.721z" fill="#333"/><path d="M554.113 61.621a5.225 5.225 0 0 0-1.131-.123c-.531 0-1.01.144-1.435.434-.426.289-.763.699-1.011 1.23a4.089 4.089 0 0 0-.372 1.752c0 1.059.375 1.588 1.125 1.588.316 0 .64-.138.972-.413.332-.276.635-.665.909-1.169a5.878 5.878 0 0 0 .58-1.524M553.146 67c.016-.41.082-.949.199-1.617h-.023c-.359.633-.712 1.085-1.058 1.356a1.814 1.814 0 0 1-1.151.407c-.539 0-.958-.19-1.257-.571-.299-.381-.448-.917-.448-1.608 0-.746.161-1.445.483-2.095.323-.65.762-1.149 1.319-1.497a3.445 3.445 0 0 1 1.866-.522c.504 0 1.133.077 1.887.229l-.803 3.873c-.055.258-.11.609-.167 1.055a8.598 8.598 0 0 0-.085.99h-.762z" fill="#333"/><path d="M556.82 61h.732l-.199 1.371h.024c.265-.508.544-.888.835-1.14a1.489 1.489 0 0 1 1.004-.377 1.6 1.6 0 0 1 .627.123l-.134.791h-.024a1.177 1.177 0 0 0-.65-.205c-.426 0-.837.264-1.234.793-.396.53-.682 1.199-.858 2.007L556.381 67h-.739l.838-3.937c.184-.825.297-1.512.34-2.063z" fill="#333"/><path d="M560.67 66.203c.348.199.744.299 1.189.299a2.34 2.34 0 0 0 1.398-.454c.42-.303.749-.718.987-1.245a4.084 4.084 0 0 0 .358-1.705c0-.543-.095-.946-.285-1.208-.189-.261-.483-.392-.881-.392-.328 0-.658.14-.988.419-.33.279-.626.663-.887 1.151-.262.489-.44.971-.534 1.447m.616-6.398h.738l-.639 3-.31 1.383h.017c.602-1.098 1.336-1.647 2.203-1.647.559 0 .983.189 1.272.566.289.377.434.919.434 1.626 0 .762-.159 1.464-.475 2.106-.317.643-.745 1.136-1.286 1.48a3.329 3.329 0 0 1-1.82.515 4.03 4.03 0 0 1-1.022-.143 3.381 3.381 0 0 1-.917-.372l1.805-8.514z" fill="#333"/><path d="M571 61.621a5.225 5.225 0 0 0-1.131-.123c-.531 0-1.01.144-1.435.434-.426.289-.763.699-1.011 1.23a4.089 4.089 0 0 0-.372 1.752c0 1.059.375 1.588 1.125 1.588.316 0 .64-.138.972-.413.332-.276.635-.665.909-1.169a5.878 5.878 0 0 0 .58-1.524M570.033 67c.016-.41.082-.949.199-1.617h-.023c-.359.633-.712 1.085-1.058 1.356a1.814 1.814 0 0 1-1.151.407c-.539 0-.958-.19-1.257-.571-.299-.381-.448-.917-.448-1.608 0-.746.161-1.445.483-2.095.323-.65.762-1.149 1.319-1.497a3.445 3.445 0 0 1 1.866-.522c.504 0 1.133.077 1.887.229l-.803 3.873c-.055.258-.11.609-.167 1.055a8.598 8.598 0 0 0-.085.99h-.762z" fill="#333"/><path d="M577.381 61.621a5.128 5.128 0 0 0-1.184-.123c-.507 0-.973.145-1.397.436-.424.291-.758.7-1.002 1.225a4.033 4.033 0 0 0-.366 1.72c0 1.082.365 1.623 1.095 1.623.34 0 .681-.144 1.023-.431.342-.287.645-.681.911-1.183a5.8 5.8 0 0 0 .557-1.486m-4.84 5.262c.57.332 1.119.498 1.646.498.664 0 1.194-.187 1.588-.56.395-.373.692-.991.891-1.854l.299-1.348h-.024c-.34.594-.681 1.034-1.025 1.319a1.78 1.78 0 0 1-1.166.427c-.539 0-.959-.187-1.26-.562-.301-.375-.451-.92-.451-1.635 0-.746.157-1.434.472-2.065a3.714 3.714 0 0 1 1.303-1.489 3.294 3.294 0 0 1 1.834-.542c.27 0 .594.023.973.068.379.045.703.096.973.155l-1.166 5.496c-.254 1.168-.646 2.001-1.175 2.499-.53.498-1.251.747-2.165.747a3.48 3.48 0 0 1-1.688-.433l.141-.721z" fill="#333"/><path d="M579.912 63.783c1.164 0 2.021-.111 2.572-.334.551-.223.826-.572.826-1.049 0-.293-.098-.516-.295-.671-.198-.154-.474-.231-.83-.231-.531 0-1.009.214-1.435.641-.426.428-.705.976-.838 1.644zm-.1.943c0 .563.149.999.446 1.31.297.31.707.466 1.23.466.535 0 1.11-.18 1.723-.539l-.141.738a3.384 3.384 0 0 1-1.687.445c-.746 0-1.321-.218-1.723-.656-.402-.437-.603-1.051-.603-1.84 0-.676.145-1.307.436-1.895a3.564 3.564 0 0 1 1.181-1.392 2.775 2.775 0 0 1 1.599-.51c.543 0 .978.136 1.304.408.326.271.489.633.489 1.086 0 .692-.339 1.206-1.016 1.541-.678.336-1.753.512-3.226.528l-.012.31z" fill="#333"/><path d="M590.195 67.147c-.664 0-1.185-.216-1.562-.647-.376-.432-.565-1.021-.565-1.767 0-.711.142-1.366.425-1.966.283-.599.677-1.068 1.181-1.406a2.92 2.92 0 0 1 1.664-.507c.566 0 1.043.133 1.429.398l-.176.762c-.351-.344-.796-.515-1.335-.515-.457 0-.874.144-1.251.433-.377.289-.671.682-.882 1.178a3.983 3.983 0 0 0-.317 1.576c0 .578.133 1.025.399 1.342.265.316.635.474 1.107.474.481 0 .998-.201 1.553-.603l-.176.809a4.208 4.208 0 0 1-.791.345 2.49 2.49 0 0 1-.703.094z" fill="#333"/><path d="M595.34 66.502c.441 0 .848-.145 1.219-.434.371-.289.661-.683.87-1.183.209-.5.313-1.047.313-1.641 0-.566-.13-.999-.389-1.298-.26-.298-.617-.448-1.07-.448-.668 0-1.235.314-1.702.941-.467.626-.7 1.399-.7 2.317 0 .547.131.975.393 1.283.261.309.617.463 1.066.463zm-.053.645c-.668 0-1.195-.207-1.582-.619-.386-.412-.58-.987-.58-1.725 0-.727.138-1.394.413-2.001.276-.608.662-1.084 1.16-1.43a2.818 2.818 0 0 1 1.644-.518c.664 0 1.189.208 1.576.624.387.416.58.987.58 1.713 0 .739-.137 1.412-.413 2.019-.275.607-.658 1.082-1.148 1.424a2.818 2.818 0 0 1-1.65.513z" fill="#333"/><path d="M601.135 58.117h.744l-1.512 7.107c-.078.399-.117.674-.117.827 0 .277.151.416.451.416.18 0 .342-.028.487-.082l-.123.597a1.68 1.68 0 0 1-.627.117c-.305 0-.538-.079-.7-.237-.163-.158-.244-.39-.244-.694 0-.242.045-.565.135-.967l1.506-7.084z" fill="#333"/><path d="M603.918 58.117h.744l-1.512 7.107c-.078.399-.117.674-.117.827 0 .277.151.416.451.416.18 0 .342-.028.487-.082l-.123.597a1.68 1.68 0 0 1-.627.117c-.305 0-.538-.079-.7-.237-.163-.158-.244-.39-.244-.694 0-.242.045-.565.135-.967l1.506-7.084z" fill="#333"/><path d="M605.857 63.783c1.164 0 2.021-.111 2.572-.334.551-.223.826-.572.826-1.049 0-.293-.098-.516-.295-.671-.198-.154-.474-.231-.83-.231-.531 0-1.009.214-1.435.641-.426.428-.705.976-.838 1.644zm-.1.943c0 .563.149.999.446 1.31.297.31.707.466 1.23.466.535 0 1.11-.18 1.723-.539l-.141.738a3.384 3.384 0 0 1-1.687.445c-.746 0-1.321-.218-1.723-.656-.402-.437-.603-1.051-.603-1.84 0-.676.145-1.307.436-1.895a3.564 3.564 0 0 1 1.181-1.392 2.775 2.775 0 0 1 1.599-.51c.543 0 .978.136 1.304.408.326.271.489.633.489 1.086 0 .692-.339 1.206-1.016 1.541-.678.336-1.753.512-3.226.528l-.012.31z" fill="#333"/><path d="M612.842 67.147c-.664 0-1.185-.216-1.562-.647-.376-.432-.565-1.021-.565-1.767 0-.711.142-1.366.425-1.966.283-.599.677-1.068 1.181-1.406a2.92 2.92 0 0 1 1.664-.507c.566 0 1.043.133 1.429.398l-.176.762c-.351-.344-.796-.515-1.335-.515-.457 0-.874.144-1.251.433-.377.289-.671.682-.882 1.178a3.983 3.983 0 0 0-.317 1.576c0 .578.133 1.025.399 1.342.265.316.635.474 1.107.474.481 0 .998-.201 1.553-.603l-.176.809a4.208 4.208 0 0 1-.791.345 2.49 2.49 0 0 1-.703.094z" fill="#333"/><path d="M616.926 61.639h-1.049l.147-.639h1.031l.322-1.517.791-.24-.375 1.757h1.565l-.147.639h-1.553l-.744 3.498c-.07.316-.105.574-.105.773 0 .196.041.338.123.428.082.09.219.135.41.135.184 0 .482-.092.897-.275l-.147.668a2.462 2.462 0 0 1-.478.172 1.912 1.912 0 0 1-.477.074c-.719 0-1.078-.371-1.078-1.114 0-.23.037-.507.111-.832l.756-3.527z" fill="#333"/><path d="M621.367 59.494a.508.508 0 0 1-.378-.161.531.531 0 0 1-.155-.378c0-.152.053-.276.158-.372a.537.537 0 0 1 .375-.144c.145 0 .27.048.375.144.105.096.158.22.158.372s-.054.28-.161.384a.52.52 0 0 1-.372.155zM620.564 61h.744l-.896 4.224c-.078.399-.117.674-.117.827 0 .277.15.416.451.416.18 0 .342-.028.486-.082l-.123.597a1.672 1.672 0 0 1-.627.117c-.304 0-.538-.079-.7-.237-.162-.158-.243-.389-.243-.694 0-.215.045-.537.135-.967l.89-4.201z" fill="#333"/><path d="M624.478 66.502c.441 0 .848-.145 1.219-.434.371-.289.661-.683.87-1.183.209-.5.313-1.047.313-1.641 0-.566-.13-.999-.389-1.298-.26-.298-.617-.448-1.07-.448-.668 0-1.235.314-1.702.941-.467.626-.7 1.399-.7 2.317 0 .547.131.975.393 1.283.261.309.617.463 1.066.463zm-.053.645c-.668 0-1.195-.207-1.582-.619-.386-.412-.58-.987-.58-1.725 0-.727.138-1.394.413-2.001.276-.608.662-1.084 1.16-1.43a2.818 2.818 0 0 1 1.644-.518c.664 0 1.189.208 1.576.624.387.416.58.987.58 1.713 0 .739-.137 1.412-.413 2.019-.275.607-.658 1.082-1.148 1.424a2.818 2.818 0 0 1-1.65.513z" fill="#333"/><path d="M629.646 61h.721c-.055.418-.139.941-.252 1.57h.023c.34-.55.717-.974 1.131-1.271.414-.297.84-.445 1.277-.445 1.004 0 1.506.542 1.506 1.628 0 .215-.062.614-.187 1.196L633.162 67h-.739l.721-3.48c.094-.477.141-.786.141-.926 0-.731-.315-1.096-.944-1.096-.312 0-.654.132-1.025.396a3.934 3.934 0 0 0-.976 1.013 3.48 3.48 0 0 0-.548 1.234L629.183 67h-.744l.926-4.307c.109-.543.203-1.107.281-1.693z" fill="#333"/><path d="M635.541 65.67h.779l-1.289 2.824h-.615l1.125-2.824z" fill="#333"/><path d="M642.268 61.639h-1.049l.147-.639h1.031l.322-1.517.791-.24-.375 1.757h1.565l-.147.639H643l-.744 3.498c-.07.316-.105.574-.105.773 0 .196.041.338.123.428.082.09.219.135.41.135.184 0 .482-.092.897-.275l-.147.668a2.462 2.462 0 0 1-.478.172 1.912 1.912 0 0 1-.477.074c-.719 0-1.078-.371-1.078-1.114 0-.23.037-.507.111-.832l.756-3.527z" fill="#333"/><path d="M646.562 58.117h.732l-.943 4.441h.023c.715-1.136 1.514-1.705 2.397-1.705.5 0 .875.142 1.125.425.25.283.375.693.375 1.228 0 .054-.008.136-.023.246-.016.109-.04.259-.071.448-.031.189-.293 1.456-.785 3.8h-.744l.721-3.481c.097-.453.146-.761.146-.925 0-.731-.316-1.096-.949-1.096-.316 0-.66.132-1.031.395a3.878 3.878 0 0 0-.973 1.017 3.533 3.533 0 0 0-.545 1.242L645.408 67h-.744l1.898-8.883z" fill="#333"/><path d="M652.416 61h.732l-.199 1.371h.024c.265-.508.544-.888.835-1.14a1.489 1.489 0 0 1 1.004-.377 1.6 1.6 0 0 1 .627.123l-.134.791h-.024a1.177 1.177 0 0 0-.65-.205c-.426 0-.837.264-1.234.793-.396.53-.682 1.199-.858 2.007L651.977 67h-.739l.838-3.937c.184-.825.297-1.512.34-2.063z" fill="#333"/><path d="M656.365 63.783c1.164 0 2.021-.111 2.572-.334.551-.223.826-.572.826-1.049 0-.293-.098-.516-.295-.671-.198-.154-.474-.231-.83-.231-.531 0-1.009.214-1.435.641-.426.428-.705.976-.838 1.644zm-.1.943c0 .563.149.999.446 1.31.297.31.707.466 1.23.466.535 0 1.11-.18 1.723-.539l-.141.738a3.384 3.384 0 0 1-1.687.445c-.746 0-1.321-.218-1.723-.656-.402-.437-.603-1.051-.603-1.84 0-.676.145-1.307.436-1.895a3.564 3.564 0 0 1 1.181-1.392 2.775 2.775 0 0 1 1.599-.51c.543 0 .978.136 1.304.408.326.271.489.633.489 1.086 0 .692-.339 1.206-1.016 1.541-.678.336-1.753.512-3.226.528l-.012.31z" fill="#333"/><path d="M665.928 61.621a5.225 5.225 0 0 0-1.131-.123c-.531 0-1.01.144-1.435.434-.426.289-.763.699-1.011 1.23a4.089 4.089 0 0 0-.372 1.752c0 1.059.375 1.588 1.125 1.588.316 0 .64-.138.972-.413.332-.276.635-.665.909-1.169a5.878 5.878 0 0 0 .58-1.524M664.961 67c.016-.41.082-.949.199-1.617h-.023c-.359.633-.712 1.085-1.058 1.356a1.814 1.814 0 0 1-1.151.407c-.539 0-.958-.19-1.257-.571-.299-.381-.448-.917-.448-1.608 0-.746.161-1.445.483-2.095.323-.65.762-1.149 1.319-1.497a3.445 3.445 0 0 1 1.866-.522c.504 0 1.133.077 1.887.229l-.803 3.873c-.055.258-.11.609-.167 1.055a8.598 8.598 0 0 0-.085.99h-.762z" fill="#333"/><path d="M672.303 61.674a3.627 3.627 0 0 0-1.131-.176c-.531 0-1.007.144-1.427.431-.42.287-.755.696-1.007 1.227a3.986 3.986 0 0 0-.378 1.729c0 1.078.377 1.617 1.13 1.617.313 0 .634-.138.964-.413.33-.275.631-.658.903-1.148a5.793 5.793 0 0 0 .589-1.574M671.342 67c.016-.39.08-.924.193-1.599h-.023c-.328.578-.666 1.013-1.014 1.306-.347.293-.744.44-1.189.44-.535 0-.953-.189-1.254-.566-.301-.377-.451-.919-.451-1.626 0-.746.158-1.439.474-2.08.317-.64.751-1.138 1.304-1.491a3.356 3.356 0 0 1 1.849-.53c.375 0 .777.054 1.207.164l.615-2.901h.727l-1.477 7.008a9.249 9.249 0 0 0-.126.914c-.049.461-.073.781-.073.961h-.762z" fill="#333"/><path d="M673.797 66.027c.184.137.413.25.688.34.276.09.539.135.789.135.429 0 .756-.087.981-.261.225-.174.337-.429.337-.765 0-.23-.07-.428-.211-.595-.141-.166-.396-.362-.768-.588-.418-.25-.721-.502-.911-.756a1.452 1.452 0 0 1-.284-.891c0-.515.19-.943.568-1.283.379-.34.872-.51 1.477-.51a3.9 3.9 0 0 1 .727.076c.261.051.492.125.691.223l-.152.721a2.347 2.347 0 0 0-1.301-.375c-.379 0-.683.098-.911.296a.968.968 0 0 0-.343.77c0 .231.062.43.187.598.125.168.375.363.75.586.454.277.773.542.958.794.186.252.279.54.279.864 0 .531-.194.954-.58 1.268-.387.315-.914.472-1.582.472-.27 0-.546-.036-.829-.108a2.704 2.704 0 0 1-.712-.279l.152-.732z" fill="#333"/><path d="M504.355 73.494a.508.508 0 0 1-.378-.161.531.531 0 0 1-.155-.378c0-.152.053-.276.158-.372a.537.537 0 0 1 .375-.144c.145 0 .27.048.375.144.105.096.158.22.158.372s-.054.28-.161.384a.52.52 0 0 1-.372.155zM503.552 75h.744l-.896 4.224c-.078.399-.117.674-.117.827 0 .277.15.416.451.416.18 0 .342-.028.486-.082l-.123.597a1.672 1.672 0 0 1-.627.117c-.304 0-.538-.079-.7-.237-.162-.158-.243-.389-.243-.694 0-.215.045-.537.135-.967l.89-4.201z" fill="#333"/><path d="M506.324 75h.721c-.055.418-.139.941-.252 1.57h.023c.34-.55.717-.974 1.131-1.271.414-.297.84-.445 1.277-.445 1.004 0 1.506.542 1.506 1.628 0 .215-.062.614-.187 1.196L509.84 81h-.739l.721-3.48c.094-.477.141-.786.141-.926 0-.731-.315-1.096-.944-1.096-.312 0-.654.132-1.025.396a3.934 3.934 0 0 0-.976 1.013 3.48 3.48 0 0 0-.548 1.234L505.861 81h-.744l.926-4.307c.109-.543.203-1.107.281-1.693z" fill="#333"/><path d="M513.004 75.639h-1.049l.147-.639h1.031l.322-1.517.791-.24-.375 1.757h1.565l-.147.639h-1.553l-.744 3.498c-.07.316-.105.574-.105.773 0 .196.041.338.123.428.082.09.219.135.41.135.184 0 .482-.092.897-.275l-.147.668a2.462 2.462 0 0 1-.478.172 1.912 1.912 0 0 1-.477.074c-.719 0-1.078-.371-1.078-1.114 0-.23.037-.507.111-.832l.756-3.527z" fill="#333"/><path d="M516.414 77.783c1.164 0 2.021-.111 2.572-.334.551-.223.826-.572.826-1.049 0-.293-.098-.516-.295-.671-.198-.154-.474-.231-.83-.231-.531 0-1.009.214-1.435.641-.426.428-.705.976-.838 1.644zm-.1.943c0 .563.149.999.446 1.31.297.31.707.466 1.23.466.535 0 1.11-.18 1.723-.539l-.141.738a3.384 3.384 0 0 1-1.687.445c-.746 0-1.321-.218-1.723-.656-.402-.437-.603-1.051-.603-1.84 0-.676.145-1.307.436-1.895a3.564 3.564 0 0 1 1.181-1.392 2.775 2.775 0 0 1 1.599-.51c.543 0 .978.136 1.304.408.326.271.489.633.489 1.086 0 .692-.339 1.206-1.016 1.541-.678.336-1.753.512-3.226.528l-.012.31z" fill="#333"/><path d="M522.303 75h.732l-.199 1.371h.024c.265-.508.544-.888.835-1.14a1.489 1.489 0 0 1 1.004-.377 1.6 1.6 0 0 1 .627.123l-.134.791h-.024a1.177 1.177 0 0 0-.65-.205c-.426 0-.837.264-1.234.793-.396.53-.682 1.199-.858 2.007L521.864 81h-.739l.838-3.937c.184-.825.297-1.512.34-2.063z" fill="#333"/><path d="M527.096 72.117h.744l-1.512 7.107c-.078.399-.117.674-.117.827 0 .277.151.416.451.416.18 0 .342-.028.487-.082l-.123.597a1.68 1.68 0 0 1-.627.117c-.305 0-.538-.079-.7-.237-.163-.158-.244-.39-.244-.694 0-.242.045-.565.135-.967l1.506-7.084z" fill="#333"/><path d="M530.394 80.502c.441 0 .848-.145 1.219-.434.371-.289.661-.683.87-1.183.209-.5.313-1.047.313-1.641 0-.566-.13-.999-.389-1.298-.26-.298-.617-.448-1.07-.448-.668 0-1.235.314-1.702.941-.467.626-.7 1.399-.7 2.317 0 .547.131.975.393 1.283.261.309.617.463 1.066.463zm-.053.645c-.668 0-1.195-.207-1.582-.619-.386-.412-.58-.987-.58-1.725 0-.727.138-1.394.413-2.001.276-.608.662-1.084 1.16-1.43a2.818 2.818 0 0 1 1.644-.518c.664 0 1.189.208 1.576.624.387.416.58.987.58 1.713 0 .739-.137 1.412-.413 2.019-.275.607-.658 1.082-1.148 1.424a2.818 2.818 0 0 1-1.65.513z" fill="#333"/><path d="M536.617 81.147c-.664 0-1.185-.216-1.562-.647-.376-.432-.565-1.021-.565-1.767 0-.711.142-1.366.425-1.966.283-.599.677-1.068 1.181-1.406a2.92 2.92 0 0 1 1.664-.507c.566 0 1.043.133 1.429.398l-.176.762c-.351-.344-.796-.515-1.335-.515-.457 0-.874.144-1.251.433-.377.289-.671.682-.882 1.178a3.983 3.983 0 0 0-.317 1.576c0 .578.133 1.025.399 1.342.265.316.635.474 1.107.474.481 0 .998-.201 1.553-.603l-.176.809a4.208 4.208 0 0 1-.791.345 2.49 2.49 0 0 1-.703.094z" fill="#333"/><path d="M541.287 72.117h.732l-1.189 5.578h.023L544.029 75h.99l-3.439 2.865L543.83 81h-.879l-2.139-3.1h-.023l-.656 3.1h-.744l1.898-8.883z" fill="#333"/><path d="M546.959 73.494a.508.508 0 0 1-.378-.161.531.531 0 0 1-.155-.378c0-.152.053-.276.158-.372a.537.537 0 0 1 .375-.144c.145 0 .27.048.375.144.105.096.158.22.158.372s-.054.28-.161.384a.52.52 0 0 1-.372.155zM546.156 75h.744l-.896 4.224c-.078.399-.117.674-.117.827 0 .277.15.416.451.416.18 0 .342-.028.486-.082l-.123.597a1.672 1.672 0 0 1-.627.117c-.304 0-.538-.079-.7-.237-.162-.158-.243-.389-.243-.694 0-.215.045-.537.135-.967l.89-4.201z" fill="#333"/><path d="M548.928 75h.721c-.055.418-.139.941-.252 1.57h.023c.34-.55.717-.974 1.131-1.271.414-.297.84-.445 1.277-.445 1.004 0 1.506.542 1.506 1.628 0 .215-.062.614-.187 1.196L552.444 81h-.739l.721-3.48c.094-.477.141-.786.141-.926 0-.731-.315-1.096-.944-1.096-.312 0-.654.132-1.025.396a3.934 3.934 0 0 0-.976 1.013 3.48 3.48 0 0 0-.548 1.234L548.465 81h-.744l.926-4.307c.109-.543.203-1.107.281-1.693z" fill="#333"/><path d="M559.158 75.621a5.128 5.128 0 0 0-1.184-.123c-.507 0-.973.145-1.397.436-.424.291-.758.7-1.002 1.225a4.033 4.033 0 0 0-.366 1.72c0 1.082.365 1.623 1.095 1.623.34 0 .681-.144 1.023-.431.342-.287.645-.681.911-1.183a5.8 5.8 0 0 0 .557-1.486m-4.84 5.262c.57.332 1.119.498 1.646.498.664 0 1.194-.187 1.588-.56.395-.373.692-.991.891-1.854l.299-1.348h-.024c-.34.594-.681 1.034-1.025 1.319a1.78 1.78 0 0 1-1.166.427c-.539 0-.959-.187-1.26-.562-.301-.375-.451-.92-.451-1.635 0-.746.157-1.434.472-2.065a3.714 3.714 0 0 1 1.303-1.489 3.294 3.294 0 0 1 1.834-.542c.27 0 .594.023.973.068.379.045.703.096.973.155l-1.166 5.496c-.254 1.168-.646 2.001-1.175 2.499-.53.498-1.251.747-2.165.747a3.48 3.48 0 0 1-1.688-.433l.141-.721z" fill="#333"/><path d="M568.838 75.621a5.225 5.225 0 0 0-1.131-.123c-.531 0-1.01.144-1.435.434-.426.289-.763.699-1.011 1.23a4.089 4.089 0 0 0-.372 1.752c0 1.059.375 1.588 1.125 1.588.316 0 .64-.138.972-.413.332-.276.635-.665.909-1.169a5.878 5.878 0 0 0 .58-1.524M567.871 81c.016-.41.082-.949.199-1.617h-.023c-.359.633-.712 1.085-1.058 1.356a1.814 1.814 0 0 1-1.151.407c-.539 0-.958-.19-1.257-.571-.299-.381-.448-.917-.448-1.608 0-.746.161-1.445.483-2.095.323-.65.762-1.149 1.319-1.497a3.445 3.445 0 0 1 1.866-.522c.504 0 1.133.077 1.887.229l-.803 3.873c-.055.258-.11.609-.167 1.055a8.598 8.598 0 0 0-.085.99h-.762z" fill="#333"/><path d="M571.586 75h.721c-.055.418-.139.941-.252 1.57h.023c.34-.55.717-.974 1.131-1.271.414-.297.84-.445 1.277-.445 1.004 0 1.506.542 1.506 1.628 0 .215-.062.614-.187 1.196L575.102 81h-.739l.721-3.48c.094-.477.141-.786.141-.926 0-.731-.315-1.096-.944-1.096-.312 0-.654.132-1.025.396a3.934 3.934 0 0 0-.976 1.013 3.48 3.48 0 0 0-.548 1.234L571.123 81h-.744l.926-4.307c.109-.543.203-1.107.281-1.693z" fill="#333"/><path d="M581.81 75.674a3.627 3.627 0 0 0-1.131-.176c-.531 0-1.007.144-1.427.431-.42.287-.755.696-1.007 1.227a3.986 3.986 0 0 0-.378 1.729c0 1.078.377 1.617 1.13 1.617.313 0 .634-.138.964-.413.33-.275.631-.658.903-1.148a5.793 5.793 0 0 0 .589-1.574M580.849 81c.016-.39.08-.924.193-1.599h-.023c-.328.578-.666 1.013-1.014 1.306-.347.293-.744.44-1.189.44-.535 0-.953-.189-1.254-.566-.301-.377-.451-.919-.451-1.626 0-.746.158-1.439.474-2.08.317-.64.751-1.138 1.304-1.491a3.356 3.356 0 0 1 1.849-.53c.375 0 .777.054 1.207.164l.615-2.901h.727l-1.477 7.008a9.249 9.249 0 0 0-.126.914c-.049.461-.073.781-.073.961h-.762z" fill="#333"/><path d="M587.945 75.639h-1.049l.147-.639h1.031l.322-1.517.791-.24-.375 1.757h1.565l-.147.639h-1.553l-.744 3.498c-.07.316-.105.574-.105.773 0 .196.041.338.123.428.082.09.219.135.41.135.184 0 .482-.092.897-.275l-.147.668a2.462 2.462 0 0 1-.478.172 1.912 1.912 0 0 1-.477.074c-.719 0-1.078-.371-1.078-1.114 0-.23.037-.507.111-.832l.756-3.527z" fill="#333"/><path d="M592.24 72.117h.732l-.943 4.441h.023c.715-1.136 1.514-1.705 2.397-1.705.5 0 .875.142 1.125.425.25.283.375.693.375 1.228 0 .054-.008.136-.023.246-.016.109-.04.259-.071.448-.031.189-.293 1.456-.785 3.8h-.744l.721-3.481c.097-.453.146-.761.146-.925 0-.731-.316-1.096-.949-1.096-.316 0-.66.132-1.031.395a3.878 3.878 0 0 0-.973 1.017 3.533 3.533 0 0 0-.545 1.242L591.086 81h-.744l1.898-8.883z" fill="#333"/><path d="M597.918 77.783c1.164 0 2.021-.111 2.572-.334.551-.223.826-.572.826-1.049 0-.293-.098-.516-.295-.671-.198-.154-.474-.231-.83-.231-.531 0-1.009.214-1.435.641-.426.428-.705.976-.838 1.644zm-.1.943c0 .563.149.999.446 1.31.297.31.707.466 1.23.466.535 0 1.11-.18 1.723-.539l-.141.738a3.384 3.384 0 0 1-1.687.445c-.746 0-1.321-.218-1.723-.656-.402-.437-.603-1.051-.603-1.84 0-.676.145-1.307.436-1.895a3.564 3.564 0 0 1 1.181-1.392 2.775 2.775 0 0 1 1.599-.51c.543 0 .978.136 1.304.408.326.271.489.633.489 1.086 0 .692-.339 1.206-1.016 1.541-.678.336-1.753.512-3.226.528l-.012.31z" fill="#333"/><path d="M607.773 72.117h.744l-1.512 7.107c-.078.399-.117.674-.117.827 0 .277.151.416.451.416.18 0 .342-.028.487-.082l-.123.597a1.68 1.68 0 0 1-.627.117c-.305 0-.538-.079-.7-.237-.163-.158-.244-.39-.244-.694 0-.242.045-.565.135-.967l1.506-7.084z" fill="#333"/><path d="M610.744 73.494a.508.508 0 0 1-.378-.161.531.531 0 0 1-.155-.378c0-.152.053-.276.158-.372a.537.537 0 0 1 .375-.144c.145 0 .27.048.375.144.105.096.158.22.158.372s-.054.28-.161.384a.52.52 0 0 1-.372.155zM609.941 75h.744l-.896 4.224c-.078.399-.117.674-.117.827 0 .277.15.416.451.416.18 0 .342-.028.486-.082l-.123.597a1.672 1.672 0 0 1-.627.117c-.304 0-.538-.079-.7-.237-.162-.158-.243-.389-.243-.694 0-.215.045-.537.135-.967l.89-4.201z" fill="#333"/><path d="M613.381 72.117h.732l-1.189 5.578h.023L616.123 75h.99l-3.439 2.865 2.25 3.135h-.879l-2.139-3.1h-.023l-.656 3.1h-.744l1.898-8.883z" fill="#333"/><path d="M618.021 77.783c1.164 0 2.021-.111 2.572-.334.551-.223.826-.572.826-1.049 0-.293-.098-.516-.295-.671-.198-.154-.474-.231-.83-.231-.531 0-1.009.214-1.435.641-.426.428-.705.976-.838 1.644zm-.1.943c0 .563.149.999.446 1.31.297.31.707.466 1.23.466.535 0 1.11-.18 1.723-.539l-.141.738a3.384 3.384 0 0 1-1.687.445c-.746 0-1.321-.218-1.723-.656-.402-.437-.603-1.051-.603-1.84 0-.676.145-1.307.436-1.895a3.564 3.564 0 0 1 1.181-1.392 2.775 2.775 0 0 1 1.599-.51c.543 0 .978.136 1.304.408.326.271.489.633.489 1.086 0 .692-.339 1.206-1.016 1.541-.678.336-1.753.512-3.226.528l-.012.31z" fill="#333"/><path d="M630.883 75.621a5.225 5.225 0 0 0-1.131-.123c-.531 0-1.01.144-1.435.434-.426.289-.763.699-1.011 1.23a4.089 4.089 0 0 0-.372 1.752c0 1.059.375 1.588 1.125 1.588.316 0 .64-.138.972-.413.332-.276.635-.665.909-1.169a5.878 5.878 0 0 0 .58-1.524M629.916 81c.016-.41.082-.949.199-1.617h-.023c-.359.633-.712 1.085-1.058 1.356a1.814 1.814 0 0 1-1.151.407c-.539 0-.958-.19-1.257-.571-.299-.381-.448-.917-.448-1.608 0-.746.161-1.445.483-2.095.323-.65.762-1.149 1.319-1.497a3.445 3.445 0 0 1 1.866-.522c.504 0 1.133.077 1.887.229l-.803 3.873c-.055.258-.11.609-.167 1.055a8.598 8.598 0 0 0-.085.99h-.762z" fill="#333"/><path d="M633.725 75.639h-1.061l.147-.639h1.055l.24-1.125c.269-1.265.961-1.898 2.074-1.898.254 0 .494.035.721.105l-.129.68c-.16-.098-.381-.146-.662-.146-.344 0-.62.114-.829.342-.209.229-.365.585-.466 1.07l-.211.972h1.512l-.153.639h-1.506l-1.57 7.354h-.738l1.576-7.354z" fill="#333"/><path d="M637.023 75.639h-1.061l.147-.639h1.055l.24-1.125c.269-1.265.961-1.898 2.074-1.898.254 0 .494.035.721.105l-.129.68c-.16-.098-.381-.146-.662-.146-.344 0-.62.114-.829.342-.209.229-.365.585-.466 1.07l-.211.972h1.512l-.153.639h-1.506l-1.57 7.354h-.738l1.576-7.354z" fill="#333"/><path d="M640.012 77.783c1.164 0 2.021-.111 2.572-.334.551-.223.826-.572.826-1.049 0-.293-.098-.516-.295-.671-.198-.154-.474-.231-.83-.231-.531 0-1.009.214-1.435.641-.426.428-.705.976-.838 1.644zm-.1.943c0 .563.149.999.446 1.31.297.31.707.466 1.23.466.535 0 1.11-.18 1.723-.539l-.141.738a3.384 3.384 0 0 1-1.687.445c-.746 0-1.321-.218-1.723-.656-.402-.437-.603-1.051-.603-1.84 0-.676.145-1.307.436-1.895a3.564 3.564 0 0 1 1.181-1.392 2.775 2.775 0 0 1 1.599-.51c.543 0 .978.136 1.304.408.326.271.489.633.489 1.086 0 .692-.339 1.206-1.016 1.541-.678.336-1.753.512-3.226.528l-.012.31z" fill="#333"/><path d="M646.996 81.147c-.664 0-1.185-.216-1.562-.647-.376-.432-.565-1.021-.565-1.767 0-.711.142-1.366.425-1.966.283-.599.677-1.068 1.181-1.406a2.92 2.92 0 0 1 1.664-.507c.566 0 1.043.133 1.429.398l-.176.762c-.351-.344-.796-.515-1.335-.515-.457 0-.874.144-1.251.433-.377.289-.671.682-.882 1.178a3.983 3.983 0 0 0-.317 1.576c0 .578.133 1.025.399 1.342.265.316.635.474 1.107.474.481 0 .998-.201 1.553-.603l-.176.809a4.208 4.208 0 0 1-.791.345 2.49 2.49 0 0 1-.703.094z" fill="#333"/><path d="M651.08 75.639h-1.049l.147-.639h1.031l.322-1.517.791-.24-.375 1.757h1.565l-.147.639h-1.553l-.744 3.498c-.07.316-.105.574-.105.773 0 .196.041.338.123.428.082.09.219.135.41.135.184 0 .482-.092.897-.275l-.147.668a2.462 2.462 0 0 1-.478.172 1.912 1.912 0 0 1-.477.074c-.719 0-1.078-.371-1.078-1.114 0-.23.037-.507.111-.832l.756-3.527z" fill="#333"/><path d="M654.49 77.783c1.164 0 2.021-.111 2.572-.334.551-.223.826-.572.826-1.049 0-.293-.098-.516-.295-.671-.198-.154-.474-.231-.83-.231-.531 0-1.009.214-1.435.641-.426.428-.705.976-.838 1.644zm-.1.943c0 .563.149.999.446 1.31.297.31.707.466 1.23.466.535 0 1.11-.18 1.723-.539l-.141.738a3.384 3.384 0 0 1-1.687.445c-.746 0-1.321-.218-1.723-.656-.402-.437-.603-1.051-.603-1.84 0-.676.145-1.307.436-1.895a3.564 3.564 0 0 1 1.181-1.392 2.775 2.775 0 0 1 1.599-.51c.543 0 .978.136 1.304.408.326.271.489.633.489 1.086 0 .692-.339 1.206-1.016 1.541-.678.336-1.753.512-3.226.528l-.012.31z" fill="#333"/><path d="M664.047 75.674a3.627 3.627 0 0 0-1.131-.176c-.531 0-1.007.144-1.427.431-.42.287-.755.696-1.007 1.227a3.986 3.986 0 0 0-.378 1.729c0 1.078.377 1.617 1.13 1.617.313 0 .634-.138.964-.413.33-.275.631-.658.903-1.148a5.793 5.793 0 0 0 .589-1.574M663.086 81c.016-.39.08-.924.193-1.599h-.023c-.328.578-.666 1.013-1.014 1.306-.347.293-.744.44-1.189.44-.535 0-.953-.189-1.254-.566-.301-.377-.451-.919-.451-1.626 0-.746.158-1.439.474-2.08.317-.64.751-1.138 1.304-1.491a3.356 3.356 0 0 1 1.849-.53c.375 0 .777.054 1.207.164l.615-2.901h.727l-1.477 7.008a9.249 9.249 0 0 0-.126.914c-.049.461-.073.781-.073.961h-.762z" fill="#333"/><path d="M501.185 97.039c.125.07.279.105.463.105.281 0 .534-.082.759-.246.224-.164.444-.418.659-.761l.756-1.19L502.749 89h.756l.785 4.74.041.451h.024l.158-.31L507.419 89h.832l-4.347 7.06c-.418.668-.8 1.128-1.146 1.38a1.95 1.95 0 0 1-1.18.378c-.219 0-.399-.029-.539-.088l.146-.691z" fill="#333"/><path d="M510.291 94.502c.441 0 .848-.145 1.219-.434.371-.289.661-.683.87-1.183.209-.5.313-1.047.313-1.641 0-.566-.13-.999-.389-1.298-.26-.298-.617-.448-1.07-.448-.668 0-1.235.314-1.702.941-.467.626-.7 1.399-.7 2.317 0 .547.131.975.393 1.283.261.309.617.463 1.066.463zm-.053.645c-.668 0-1.195-.207-1.582-.619-.386-.412-.58-.987-.58-1.725 0-.727.138-1.394.413-2.001.276-.608.662-1.084 1.16-1.43a2.818 2.818 0 0 1 1.644-.518c.664 0 1.189.208 1.576.624.387.416.58.987.58 1.713 0 .739-.137 1.412-.413 2.019-.275.607-.658 1.082-1.148 1.424a2.818 2.818 0 0 1-1.65.513z" fill="#333"/><path d="M515.441 89h.738l-.726 3.48c-.094.477-.141.786-.141.926 0 .731.315 1.096.943 1.096.305 0 .634-.122.988-.366a3.98 3.98 0 0 0 .978-1.005c.299-.426.495-.85.589-1.272l.61-2.859h.738l-.92 4.313a15.542 15.542 0 0 0-.281 1.687h-.721l.252-1.57h-.024c-.339.55-.716.974-1.13 1.271-.414.297-.838.445-1.272.445-.508 0-.887-.143-1.137-.43-.25-.287-.375-.695-.375-1.222 0-.113.021-.297.062-.551.041-.254.081-.459.12-.615l.709-3.328z" fill="#333"/><path d="M521.992 89h.732l-.199 1.371h.024c.265-.508.544-.888.835-1.14a1.489 1.489 0 0 1 1.004-.377 1.6 1.6 0 0 1 .627.123l-.134.791h-.024a1.177 1.177 0 0 0-.65-.205c-.426 0-.837.264-1.234.793-.396.53-.682 1.199-.858 2.007L521.553 95h-.739l.838-3.937c.184-.825.297-1.512.34-2.063z" fill="#333"/><path d="M530.512 95.147c-.664 0-1.185-.216-1.562-.647-.376-.432-.565-1.021-.565-1.767 0-.711.142-1.366.425-1.966.283-.599.677-1.068 1.181-1.406a2.92 2.92 0 0 1 1.664-.507c.566 0 1.043.133 1.429.398l-.176.762c-.351-.344-.796-.515-1.335-.515-.457 0-.874.144-1.251.433-.377.289-.671.682-.882 1.178a3.983 3.983 0 0 0-.317 1.576c0 .578.133 1.025.399 1.342.265.316.635.474 1.107.474.481 0 .998-.201 1.553-.603l-.176.809a4.208 4.208 0 0 1-.791.345 2.49 2.49 0 0 1-.703.094z" fill="#333"/><path d="M535.656 94.502c.441 0 .848-.145 1.219-.434.371-.289.661-.683.87-1.183.209-.5.313-1.047.313-1.641 0-.566-.13-.999-.389-1.298-.26-.298-.617-.448-1.07-.448-.668 0-1.235.314-1.702.941-.467.626-.7 1.399-.7 2.317 0 .547.131.975.393 1.283.261.309.617.463 1.066.463zm-.053.645c-.668 0-1.195-.207-1.582-.619-.386-.412-.58-.987-.58-1.725 0-.727.138-1.394.413-2.001.276-.608.662-1.084 1.16-1.43a2.818 2.818 0 0 1 1.644-.518c.664 0 1.189.208 1.576.624.387.416.58.987.58 1.713 0 .739-.137 1.412-.413 2.019-.275.607-.658 1.082-1.148 1.424a2.818 2.818 0 0 1-1.65.513z" fill="#333"/><path d="M544.451 89.674a3.627 3.627 0 0 0-1.131-.176c-.531 0-1.007.144-1.427.431-.42.287-.755.696-1.007 1.227a3.986 3.986 0 0 0-.378 1.729c0 1.078.377 1.617 1.13 1.617.313 0 .634-.138.964-.413.33-.275.631-.658.903-1.148a5.793 5.793 0 0 0 .589-1.574M543.49 95c.016-.39.08-.924.193-1.599h-.023c-.328.578-.666 1.013-1.014 1.306-.347.293-.744.44-1.189.44-.535 0-.953-.189-1.254-.566-.301-.377-.451-.919-.451-1.626 0-.746.158-1.439.474-2.08.317-.64.751-1.138 1.304-1.491a3.356 3.356 0 0 1 1.849-.53c.375 0 .777.054 1.207.164l.615-2.901h.727l-1.477 7.008a9.249 9.249 0 0 0-.126.914c-.049.461-.073.781-.073.961h-.762z" fill="#333"/><path d="M546.988 91.783c1.164 0 2.021-.111 2.572-.334.551-.223.826-.572.826-1.049 0-.293-.098-.516-.295-.671-.198-.154-.474-.231-.83-.231-.531 0-1.009.214-1.435.641-.426.428-.705.976-.838 1.644zm-.1.943c0 .563.149.999.446 1.31.297.31.707.466 1.23.466.535 0 1.11-.18 1.723-.539l-.141.738a3.384 3.384 0 0 1-1.687.445c-.746 0-1.321-.218-1.723-.656-.402-.437-.603-1.051-.603-1.84 0-.676.145-1.307.436-1.895a3.564 3.564 0 0 1 1.181-1.392 2.775 2.775 0 0 1 1.599-.51c.543 0 .978.136 1.304.408.326.271.489.633.489 1.086 0 .692-.339 1.206-1.016 1.541-.678.336-1.753.512-3.226.528l-.012.31z" fill="#333"/><path d="M555.865 94.268c.344.156.75.234 1.219.234.511 0 .978-.15 1.4-.451.422-.301.752-.712.99-1.233a4.038 4.038 0 0 0 .358-1.702c0-1.078-.383-1.618-1.149-1.618-.32 0-.651.145-.993.434-.342.289-.646.678-.914 1.166a5.361 5.361 0 0 0-.559 1.5m-.17-3.598h.75c0 .137-.026.401-.077.791-.05.391-.091.666-.123.827h.024c.648-1.176 1.404-1.764 2.267-1.764.543 0 .962.185 1.257.557.295.371.443.916.443 1.634a4.57 4.57 0 0 1-.484 2.083c-.322.643-.756 1.14-1.301 1.492a3.256 3.256 0 0 1-1.801.527 3.56 3.56 0 0 1-1.266-.229l-.609 2.883h-.739l1.465-6.926c.047-.242.091-.579.132-1.01.041-.432.062-.72.062-.865z" fill="#333"/><path d="M562.381 91.783c1.164 0 2.021-.111 2.572-.334.551-.223.826-.572.826-1.049 0-.293-.098-.516-.295-.671-.198-.154-.474-.231-.83-.231-.531 0-1.009.214-1.435.641-.426.428-.705.976-.838 1.644zm-.1.943c0 .563.149.999.446 1.31.297.31.707.466 1.23.466.535 0 1.11-.18 1.723-.539l-.141.738a3.384 3.384 0 0 1-1.687.445c-.746 0-1.321-.218-1.723-.656-.402-.437-.603-1.051-.603-1.84 0-.676.145-1.307.436-1.895a3.564 3.564 0 0 1 1.181-1.392 2.775 2.775 0 0 1 1.599-.51c.543 0 .978.136 1.304.408.326.271.489.633.489 1.086 0 .692-.339 1.206-1.016 1.541-.678.336-1.753.512-3.226.528l-.012.31z" fill="#333"/><path d="M568.269 89h.732l-.199 1.371h.024c.265-.508.544-.888.835-1.14a1.489 1.489 0 0 1 1.004-.377 1.6 1.6 0 0 1 .627.123l-.134.791h-.024a1.177 1.177 0 0 0-.65-.205c-.426 0-.837.264-1.234.793-.396.53-.682 1.199-.858 2.007L567.83 95h-.739l.838-3.937c.184-.825.297-1.512.34-2.063z" fill="#333"/><path d="M572.529 89.639h-1.061l.147-.639h1.055l.24-1.125c.269-1.265.961-1.898 2.074-1.898.254 0 .494.035.721.105l-.129.68c-.16-.098-.381-.146-.662-.146-.344 0-.62.114-.829.342-.209.229-.365.585-.466 1.07l-.211.972h1.512l-.153.639h-1.506l-1.57 7.354h-.738l1.576-7.354z" fill="#333"/><path d="M576.877 94.502c.441 0 .848-.145 1.219-.434.371-.289.661-.683.87-1.183.209-.5.313-1.047.313-1.641 0-.566-.13-.999-.389-1.298-.26-.298-.617-.448-1.07-.448-.668 0-1.235.314-1.702.941-.467.626-.7 1.399-.7 2.317 0 .547.131.975.393 1.283.261.309.617.463 1.066.463zm-.053.645c-.668 0-1.195-.207-1.582-.619-.386-.412-.58-.987-.58-1.725 0-.727.138-1.394.413-2.001.276-.608.662-1.084 1.16-1.43a2.818 2.818 0 0 1 1.644-.518c.664 0 1.189.208 1.576.624.387.416.58.987.58 1.713 0 .739-.137 1.412-.413 2.019-.275.607-.658 1.082-1.148 1.424a2.818 2.818 0 0 1-1.65.513z" fill="#333"/><path d="M582.004 89h.732l-.199 1.371h.024c.265-.508.544-.888.835-1.14a1.489 1.489 0 0 1 1.004-.377 1.6 1.6 0 0 1 .627.123l-.134.791h-.024a1.177 1.177 0 0 0-.65-.205c-.426 0-.837.264-1.234.793-.396.53-.682 1.199-.858 2.007L581.565 95h-.739l.838-3.937c.184-.825.297-1.512.34-2.063z" fill="#333"/><path d="M586.146 89h.721c-.055.418-.139.941-.252 1.57h.023c.711-1.144 1.475-1.716 2.291-1.716.485 0 .837.144 1.058.433.221.289.335.715.343 1.277.339-.543.712-.963 1.119-1.262.406-.299.822-.448 1.248-.448.941 0 1.412.542 1.412 1.628 0 .231-.059.629-.176 1.196L593.224 95h-.732l.715-3.48c.097-.45.146-.776.146-.979 0-.695-.287-1.043-.861-1.043-.285 0-.599.127-.941.381a3.97 3.97 0 0 0-.931 1.014c-.28.421-.464.832-.554 1.23L589.457 95h-.745l.727-3.48c.098-.45.146-.758.146-.926 0-.731-.287-1.096-.861-1.096-.285 0-.6.129-.946.387a4.02 4.02 0 0 0-.941 1.028c-.281.428-.462.837-.545 1.228L585.683 95h-.744l.926-4.307c.156-.757.25-1.322.281-1.693z" fill="#333"/><path d="M599.928 89.621a5.225 5.225 0 0 0-1.131-.123c-.531 0-1.01.144-1.435.434-.426.289-.763.699-1.011 1.23a4.089 4.089 0 0 0-.372 1.752c0 1.059.375 1.588 1.125 1.588.316 0 .64-.138.972-.413.332-.276.635-.665.909-1.169a5.878 5.878 0 0 0 .58-1.524M598.961 95c.016-.41.082-.949.199-1.617h-.023c-.359.633-.712 1.085-1.058 1.356a1.814 1.814 0 0 1-1.151.407c-.539 0-.958-.19-1.257-.571-.299-.381-.448-.917-.448-1.608 0-.746.161-1.445.483-2.095.323-.65.762-1.149 1.319-1.497a3.445 3.445 0 0 1 1.866-.522c.504 0 1.133.077 1.887.229l-.803 3.873c-.055.258-.11.609-.167 1.055a8.598 8.598 0 0 0-.085.99h-.762z" fill="#333"/><path d="M602.676 89h.721c-.055.418-.139.941-.252 1.57h.023c.34-.55.717-.974 1.131-1.271.414-.297.84-.445 1.277-.445 1.004 0 1.506.542 1.506 1.628 0 .215-.062.614-.187 1.196L606.192 95h-.739l.721-3.48c.094-.477.141-.786.141-.926 0-.731-.315-1.096-.944-1.096-.312 0-.654.132-1.025.396a3.934 3.934 0 0 0-.976 1.013 3.48 3.48 0 0 0-.548 1.234L602.213 95h-.744l.926-4.307c.109-.543.203-1.107.281-1.693z" fill="#333"/><path d="M610.328 95.147c-.664 0-1.185-.216-1.562-.647-.376-.432-.565-1.021-.565-1.767 0-.711.142-1.366.425-1.966.283-.599.677-1.068 1.181-1.406a2.92 2.92 0 0 1 1.664-.507c.566 0 1.043.133 1.429.398l-.176.762c-.351-.344-.796-.515-1.335-.515-.457 0-.874.144-1.251.433-.377.289-.671.682-.882 1.178a3.983 3.983 0 0 0-.317 1.576c0 .578.133 1.025.399 1.342.265.316.635.474 1.107.474.481 0 .998-.201 1.553-.603l-.176.809a4.208 4.208 0 0 1-.791.345 2.49 2.49 0 0 1-.703.094z" fill="#333"/><path d="M614.113 91.783c1.164 0 2.021-.111 2.572-.334.551-.223.826-.572.826-1.049 0-.293-.098-.516-.295-.671-.198-.154-.474-.231-.83-.231-.531 0-1.009.214-1.435.641-.426.428-.705.976-.838 1.644zm-.1.943c0 .563.149.999.446 1.31.297.31.707.466 1.23.466.535 0 1.11-.18 1.723-.539l-.141.738a3.384 3.384 0 0 1-1.687.445c-.746 0-1.321-.218-1.723-.656-.402-.437-.603-1.051-.603-1.84 0-.676.145-1.307.436-1.895a3.564 3.564 0 0 1 1.181-1.392 2.775 2.775 0 0 1 1.599-.51c.543 0 .978.136 1.304.408.326.271.489.633.489 1.086 0 .692-.339 1.206-1.016 1.541-.678.336-1.753.512-3.226.528l-.012.31z" fill="#333"/><path d="M619.31 95.117a.534.534 0 0 1-.381-.158.532.532 0 0 1-.164-.399c0-.156.053-.287.158-.392a.526.526 0 0 1 .387-.158.55.55 0 0 1 .398.158.52.52 0 0 1 .165.392.532.532 0 0 1-.167.393.55.55 0 0 1-.396.164z" fill="#333"/></g></svg>