<svg ti:v="1" width="592" height="123" viewBox="0 0 592 123" xmlns="http://www.w3.org/2000/svg" xmlns:ti="urn:schemas-jetbrains-com:tisvg"><rect id="frame" width="592" height="123" fill="none"/><g fill-rule="evenodd"><path d="M28.986 24.16c-.304-.384-.716-.668-1.236-.853a4.452 4.452 0 0 0-1.476-.275c-.272 0-.552.032-.84.096a3.22 3.22 0 0 0-.816.3 1.779 1.779 0 0 0-.624.54c-.16.224-.24.496-.24.816 0 .512.192.904.576 1.176.384.272.868.504 1.452.696.584.192 1.212.384 1.884.576.672.192 1.3.464 1.884.816a4.46 4.46 0 0 1 1.452 1.416c.384.592.576 1.384.576 2.376 0 .944-.176 1.768-.528 2.471a5.01 5.01 0 0 1-1.428 1.753c-.6.464-1.296.808-2.088 1.032a9.174 9.174 0 0 1-2.508.335c-1.104 0-2.128-.167-3.072-.503-.944-.336-1.824-.88-2.64-1.632l2.664-2.928c.384.512.868.908 1.452 1.188.584.28 1.188.42 1.812.42.304 0 .612-.036.924-.108.312-.072.592-.18.84-.324a1.81 1.81 0 0 0 .6-.552c.152-.224.228-.488.228-.792 0-.512-.196-.916-.588-1.212-.392-.296-.884-.548-1.476-.756a45.745 45.745 0 0 0-1.92-.624 8.58 8.58 0 0 1-1.92-.84 4.613 4.613 0 0 1-1.476-1.392c-.392-.576-.588-1.336-.588-2.28 0-.913.18-1.712.54-2.4.36-.688.84-1.264 1.44-1.728a6.26 6.26 0 0 1 2.076-1.044 8.498 8.498 0 0 1 2.424-.348c.96 0 1.888.136 2.784.408a6.432 6.432 0 0 1 2.424 1.367l-2.568 2.81z" fill="#FFF"/><path d="M48.09 30.448c0 1.008-.152 1.936-.456 2.784a6.124 6.124 0 0 1-1.356 2.208c-.6.624-1.348 1.112-2.244 1.464-.897.352-1.928.527-3.096.527-1.184 0-2.224-.175-3.12-.527-.896-.352-1.644-.84-2.244-1.464a6.124 6.124 0 0 1-1.356-2.208c-.304-.848-.456-1.776-.456-2.784v-10.44h3.744v10.295c0 .53.084 1.017.252 1.464.168.45.404.837.708 1.164.304.33.668.585 1.092.77.424.183.884.274 1.38.274.496 0 .952-.09 1.368-.275.416-.184.776-.44 1.08-.769.304-.327.54-.715.708-1.164a4.13 4.13 0 0 0 .252-1.464V20.008h3.744v10.44z" fill="#FFF"/><path d="M54.69 33.832h3.36c.288 0 .579-.032.876-.096.296-.064.564-.175.805-.336.238-.16.435-.368.587-.624.151-.256.228-.568.228-.936 0-.4-.1-.724-.3-.972a1.933 1.933 0 0 0-.756-.564 3.895 3.895 0 0 0-.985-.264 7.303 7.303 0 0 0-.983-.072h-2.833m0-3.168h2.714c.286 0 .57-.031.85-.096.28-.063.532-.168.757-.312.224-.144.405-.336.54-.576.136-.24.204-.528.204-.864 0-.351-.077-.643-.229-.876a1.594 1.594 0 0 0-.587-.54 2.802 2.802 0 0 0-.817-.276 4.887 4.887 0 0 0-.887-.084H54.69m-3.744-3.168h6.336c.736 0 1.476.053 2.221.156a6.072 6.072 0 0 1 2.003.624 3.83 3.83 0 0 1 1.44 1.308c.369.56.554 1.304.554 2.232 0 .96-.27 1.756-.806 2.388-.534.633-1.243 1.084-2.123 1.356v.048a4.85 4.85 0 0 1 1.524.468 4.07 4.07 0 0 1 1.175.888c.328.36.58.78.756 1.26.176.48.264.992.264 1.536 0 .896-.192 1.644-.576 2.244a4.5 4.5 0 0 1-1.488 1.452 6.502 6.502 0 0 1-2.051.792c-.76.16-1.515.24-2.268.24h-6.96V20.008z" fill="#FFF"/><path d="M74.297 24.16c-.304-.384-.716-.668-1.235-.853a4.462 4.462 0 0 0-1.476-.275 3.86 3.86 0 0 0-.84.096c-.29.064-.56.164-.816.3a1.77 1.77 0 0 0-.624.54c-.16.224-.24.496-.24.816 0 .512.192.904.576 1.176.384.272.868.504 1.452.696.584.192 1.212.384 1.884.576a7.76 7.76 0 0 1 1.883.816 4.463 4.463 0 0 1 1.453 1.416c.383.592.576 1.384.576 2.376 0 .944-.177 1.768-.53 2.471a5.008 5.008 0 0 1-1.426 1.753c-.6.464-1.297.808-2.088 1.032a9.184 9.184 0 0 1-2.508.335c-1.104 0-2.13-.167-3.072-.503-.945-.336-1.824-.88-2.641-1.632l2.664-2.928c.385.512.868.908 1.452 1.188.584.28 1.189.42 1.812.42.305 0 .613-.036.925-.108.31-.072.59-.18.84-.324a1.81 1.81 0 0 0 .6-.552c.15-.224.228-.488.228-.792 0-.512-.197-.916-.588-1.212-.393-.296-.884-.548-1.476-.756a46.227 46.227 0 0 0-1.92-.624 8.567 8.567 0 0 1-1.921-.84 4.61 4.61 0 0 1-1.475-1.392c-.393-.576-.588-1.336-.588-2.28 0-.913.18-1.712.539-2.4a5.23 5.23 0 0 1 1.44-1.728 6.265 6.265 0 0 1 2.077-1.044 8.49 8.49 0 0 1 2.423-.348c.96 0 1.888.136 2.785.408a6.42 6.42 0 0 1 2.423 1.367l-2.568 2.81z" fill="#FFF"/><path d="M83.249 29.752l-6.384-9.744h4.656l3.6 6.36 3.816-6.36h4.44l-6.384 9.744V37h-3.744v-7.248z" fill="#FFF"/><path d="M102.425 24.16c-.304-.384-.716-.668-1.235-.853a4.463 4.463 0 0 0-1.477-.275c-.272 0-.553.032-.84.096a3.22 3.22 0 0 0-.816.3 1.767 1.767 0 0 0-.623.54c-.16.224-.24.496-.24.816 0 .512.191.904.576 1.176.383.272.867.504 1.451.696a50.13 50.13 0 0 0 1.885.576 7.753 7.753 0 0 1 1.882.816 4.476 4.476 0 0 1 1.454 1.416c.382.592.576 1.384.576 2.376 0 .944-.177 1.768-.53 2.471a5.008 5.008 0 0 1-1.427 1.753c-.6.464-1.296.808-2.088 1.032a9.174 9.174 0 0 1-2.508.335c-1.103 0-2.128-.167-3.072-.503-.944-.336-1.824-.88-2.64-1.632l2.664-2.928c.384.512.868.908 1.452 1.188.584.28 1.188.42 1.812.42.304 0 .612-.036.925-.108.311-.072.591-.18.84-.324.248-.144.447-.328.599-.552.152-.224.229-.488.229-.792 0-.512-.198-.916-.588-1.212-.393-.296-.885-.548-1.477-.756a45.745 45.745 0 0 0-1.92-.624 8.58 8.58 0 0 1-1.92-.84 4.623 4.623 0 0 1-1.476-1.392c-.393-.576-.588-1.336-.588-2.28 0-.913.18-1.712.54-2.4a5.219 5.219 0 0 1 1.44-1.728 6.246 6.246 0 0 1 2.077-1.044 8.486 8.486 0 0 1 2.423-.348c.96 0 1.888.136 2.784.408a6.413 6.413 0 0 1 2.423 1.367l-2.567 2.81z" fill="#FFF"/><path d="M110.488 23.32h-4.848v-3.313h13.44v3.313h-4.848V37h-3.744V23.32z" fill="#FFF"/><path d="M120.52 20.008h11.544v3.456h-7.8v3.168h7.368v3.456h-7.368v3.456h8.232V37H120.52V20.008z" fill="#FFF"/><path d="M134.896 20.008h5.664l3.912 11.088h.048l3.937-11.088h5.639V37h-3.744V23.968h-.048L145.839 37h-2.855l-4.296-13.032h-.048V37h-3.744V20.008z" fill="#FFF"/><path d="M165.352 24.16c-.304-.384-.716-.668-1.235-.853a4.462 4.462 0 0 0-1.476-.275 3.86 3.86 0 0 0-.84.096c-.289.064-.56.164-.816.3a1.77 1.77 0 0 0-.624.54c-.16.224-.24.496-.24.816 0 .512.192.904.576 1.176.384.272.868.504 1.452.696.584.192 1.212.384 1.884.576a7.76 7.76 0 0 1 1.883.816 4.463 4.463 0 0 1 1.453 1.416c.383.592.576 1.384.576 2.376 0 .944-.177 1.768-.529 2.471a5.008 5.008 0 0 1-1.427 1.753c-.6.464-1.297.808-2.088 1.032a9.184 9.184 0 0 1-2.508.335c-1.104 0-2.129-.167-3.072-.503-.945-.336-1.824-.88-2.641-1.632l2.664-2.928c.385.512.868.908 1.452 1.188.584.28 1.189.42 1.812.42.305 0 .613-.036.925-.108.311-.072.591-.18.84-.324a1.81 1.81 0 0 0 .6-.552c.151-.224.228-.488.228-.792 0-.512-.197-.916-.588-1.212-.393-.296-.884-.548-1.476-.756a46.227 46.227 0 0 0-1.92-.624 8.567 8.567 0 0 1-1.921-.84 4.61 4.61 0 0 1-1.475-1.392c-.393-.576-.588-1.336-.588-2.28 0-.913.18-1.712.539-2.4a5.23 5.23 0 0 1 1.44-1.728 6.265 6.265 0 0 1 2.077-1.044 8.49 8.49 0 0 1 2.423-.348c.96 0 1.888.136 2.785.408a6.42 6.42 0 0 1 2.423 1.367l-2.568 2.81z" fill="#FFF"/><path d="M67.465 53.35h1.75c.149 0 .3-.017.455-.05.154-.033.295-.092.42-.175a.983.983 0 0 0 .306-.325.94.94 0 0 0 .118-.487.783.783 0 0 0-.156-.506.977.977 0 0 0-.393-.294 2.096 2.096 0 0 0-.514-.138 3.771 3.771 0 0 0-.511-.037h-1.475m0-1.65h1.412c.15 0 .298-.017.443-.05a1.22 1.22 0 0 0 .395-.163.845.845 0 0 0 .387-.75.81.81 0 0 0-.12-.456.833.833 0 0 0-.305-.281 1.445 1.445 0 0 0-.425-.144 2.552 2.552 0 0 0-.463-.044h-1.324m-1.951-1.65h3.3c.383 0 .769.027 1.157.082a3.14 3.14 0 0 1 1.043.325c.308.162.558.39.75.68.192.293.288.68.288 1.164 0 .5-.14.914-.42 1.243a2.307 2.307 0 0 1-1.104.706v.025c.29.042.555.123.792.245.239.12.442.274.614.46.17.189.3.408.392.658.092.25.139.516.139.799 0 .467-.101.857-.301 1.169a2.344 2.344 0 0 1-.775.757c-.317.192-.672.329-1.07.412a5.733 5.733 0 0 1-1.18.125h-3.625v-8.85z" fill="#525F85"/><path d="M73.59 46.15h1.949V55H73.59v-8.85z" fill="#525F85"/><path d="M79.264 49.813h1.15c.175 0 .361-.006.557-.02.195-.011.373-.048.531-.111a.926.926 0 0 0 .394-.294c.104-.134.156-.321.156-.562 0-.226-.046-.405-.138-.538a.915.915 0 0 0-.349-.306 1.562 1.562 0 0 0-.488-.144 3.993 3.993 0 0 0-.538-.038h-1.275m-1.95-1.65h3.426c.45 0 .877.044 1.281.132.403.088.758.233 1.062.437.304.204.546.48.725.825.179.346.269.777.269 1.294 0 .625-.163 1.157-.488 1.594-.325.438-.8.714-1.425.83L84.414 55h-2.337l-1.85-3.537h-.963V55h-1.95v-8.85z" fill="#525F85"/><path d="M87.364 53.2h1.013c.449 0 .869-.046 1.256-.138a2.677 2.677 0 0 0 1.005-.456c.284-.213.507-.492.67-.838.162-.345.244-.768.244-1.268 0-.434-.082-.81-.244-1.13a2.263 2.263 0 0 0-.656-.795 2.9 2.9 0 0 0-.969-.469 4.315 4.315 0 0 0-1.17-.156h-1.149m-1.95-1.8h2.926c.707 0 1.38.08 2.017.237a4.627 4.627 0 0 1 1.67.77c.475.354.852.814 1.131 1.38.279.567.418 1.255.418 2.062 0 .717-.135 1.35-.406 1.895a4.067 4.067 0 0 1-1.094 1.375 4.86 4.86 0 0 1-1.587.844 6.19 6.19 0 0 1-1.888.287h-3.187v-8.85z" fill="#525F85"/><path d="M96.089 49.675h-1.601l.926-3.524h1.8l-1.125 3.524z" fill="#525F85"/><path d="M102.977 48.313a1.377 1.377 0 0 0-.645-.443 2.301 2.301 0 0 0-.768-.145c-.142 0-.287.018-.438.05a1.646 1.646 0 0 0-.424.157.917.917 0 0 0-.326.28.714.714 0 0 0-.125.426c0 .266.101.47.3.612.2.142.452.263.757.362.304.1.631.2.981.3.35.1.677.242.981.426.305.183.557.429.757.738.2.307.3.72.3 1.237 0 .492-.092.92-.276 1.287-.183.367-.43.67-.743.913a3.158 3.158 0 0 1-1.088.537 4.757 4.757 0 0 1-1.306.175 4.736 4.736 0 0 1-1.6-.262 4.025 4.025 0 0 1-1.375-.85l1.388-1.525c.2.267.452.472.755.618a2.164 2.164 0 0 0 1.426.164c.162-.039.308-.094.438-.17a.952.952 0 0 0 .312-.287.725.725 0 0 0 .118-.413.75.75 0 0 0-.305-.63 2.83 2.83 0 0 0-.77-.395 24.754 24.754 0 0 0-1-.324 4.58 4.58 0 0 1-1-.438 2.406 2.406 0 0 1-.768-.726c-.204-.3-.306-.695-.306-1.187 0-.474.094-.891.281-1.25.188-.358.438-.658.75-.9a3.253 3.253 0 0 1 1.081-.543 4.424 4.424 0 0 1 1.263-.182c.5 0 .982.072 1.449.213a3.35 3.35 0 0 1 1.263.712l-1.337 1.463z" fill="#525F85"/><path d="M109.551 46.15h6.013v1.8h-4.063v1.65h3.838v1.8h-3.838v1.8h4.288V55h-6.238v-8.85z" fill="#525F85"/><path d="M119.525 51.225l-3.324-5.074h2.424l1.875 3.312 1.988-3.312h2.312l-3.325 5.074V55h-1.95v-3.775z" fill="#525F85"/><path d="M125.525 46.15h6.013v1.8h-4.063v1.65h3.838v1.8h-3.838v1.8h4.288V55h-6.238v-8.85z" fill="#525F85"/><path d="M136.15 46.15h2.225l2.187 5.8h.026l2.224-5.8h2.088L141.25 55h-1.563l-3.537-8.85z" fill="#525F85"/><path d="M145.801 46.15h1.949V55h-1.949v-8.85z" fill="#525F85"/><path d="M149.601 46.15h6.013v1.8h-4.063v1.65h3.838v1.8h-3.838v1.8h4.287V55h-6.237v-8.85z" fill="#525F85"/><path d="M156.475 46.15h2.125l1.413 5.675h.025l1.85-5.675h1.813l1.837 5.824h.025l1.487-5.824h1.976L166.438 55h-1.737l-1.951-6.125h-.025L160.776 55H159.1l-2.625-8.85z" fill="#525F85"/><path d="M63.177 64.575c0 .417.064.798.193 1.144a2.539 2.539 0 0 0 1.425 1.494c.338.141.715.212 1.132.212.417 0 .794-.07 1.13-.212a2.543 2.543 0 0 0 1.426-1.494 3.25 3.25 0 0 0 .194-1.144c0-.408-.065-.788-.194-1.138a2.622 2.622 0 0 0-.556-.906 2.546 2.546 0 0 0-.87-.594 2.904 2.904 0 0 0-1.13-.213c-.417 0-.794.072-1.132.213a2.542 2.542 0 0 0-1.425 1.5c-.13.35-.193.73-.193 1.138zm-2.025 0c0-.708.119-1.35.356-1.925a4.21 4.21 0 0 1 .994-1.469 4.388 4.388 0 0 1 1.512-.93 5.451 5.451 0 0 1 1.913-.326c.69 0 1.329.108 1.912.325a4.392 4.392 0 0 1 1.513.931c.425.405.756.894.994 1.47.237.573.355 1.216.355 1.924s-.118 1.35-.355 1.925a4.238 4.238 0 0 1-.994 1.47c-.425.403-.93.713-1.513.93a5.466 5.466 0 0 1-1.912.324 5.472 5.472 0 0 1-1.913-.324 4.384 4.384 0 0 1-1.512-.93 4.211 4.211 0 0 1-.994-1.47c-.237-.575-.356-1.217-.356-1.925z" fill="#525F85"/><path d="M72.102 60.15h5.938v1.8h-3.99v1.8h3.689v1.8H74.05V69H72.1v-8.85z" fill="#525F85"/><path d="M85.314 65.225l-3.326-5.074h2.426l1.875 3.312 1.987-3.312h2.312l-3.325 5.074V69h-1.949v-3.775z" fill="#525F85"/><path d="M92.789 64.575c0 .417.064.798.193 1.144.129.345.315.645.557.9.24.254.531.452.868.594.337.141.714.212 1.132.212.416 0 .793-.07 1.131-.212.338-.142.627-.34.869-.594.24-.255.426-.555.556-.9a3.25 3.25 0 0 0 .194-1.144c0-.408-.065-.788-.194-1.138a2.652 2.652 0 0 0-.556-.906 2.546 2.546 0 0 0-.869-.594 2.911 2.911 0 0 0-1.131-.213c-.418 0-.795.072-1.132.213a2.532 2.532 0 0 0-1.425 1.5c-.129.35-.193.73-.193 1.138zm-2.025 0c0-.708.119-1.35.355-1.925a4.237 4.237 0 0 1 .994-1.469c.426-.404.93-.714 1.513-.93a5.447 5.447 0 0 1 1.913-.326 5.45 5.45 0 0 1 1.912.325 4.378 4.378 0 0 1 1.512.931c.426.405.757.894.994 1.47.238.573.356 1.216.356 1.924s-.118 1.35-.356 1.925a4.211 4.211 0 0 1-.994 1.47 4.375 4.375 0 0 1-1.512.93 5.47 5.47 0 0 1-1.912.324c-.692 0-1.33-.108-1.913-.324a4.398 4.398 0 0 1-1.513-.93 4.238 4.238 0 0 1-.994-1.47c-.236-.575-.355-1.217-.355-1.925z" fill="#525F85"/><path d="M109.101 65.588c0 .524-.079 1.008-.237 1.449a3.208 3.208 0 0 1-.706 1.15 3.24 3.24 0 0 1-1.169.763c-.467.183-1.004.275-1.613.275-.617 0-1.159-.092-1.625-.275a3.24 3.24 0 0 1-1.169-.762 3.208 3.208 0 0 1-.706-1.151 4.248 4.248 0 0 1-.237-1.45V60.15h1.949v5.363c0 .274.044.529.132.763.087.233.21.435.368.605.159.17.348.305.57.4.22.096.46.144.718.144.258 0 .496-.048.712-.144.217-.095.405-.23.563-.4.158-.17.281-.372.369-.605.088-.234.131-.49.131-.763V60.15h1.95v5.438z" fill="#525F85"/><path d="M112.852 63.813h1.149c.175 0 .361-.006.556-.02.196-.011.373-.048.531-.111a.923.923 0 0 0 .395-.294c.103-.134.156-.321.156-.562 0-.227-.046-.405-.138-.539a.905.905 0 0 0-.35-.305 1.544 1.544 0 0 0-.486-.144 4.008 4.008 0 0 0-.539-.038h-1.274m-1.951-1.65h3.426c.449 0 .877.044 1.281.132a3.05 3.05 0 0 1 1.062.437c.304.203.545.48.725.825.18.346.27.778.27 1.294 0 .625-.164 1.157-.489 1.594-.324.438-.8.714-1.425.83l2.25 3.738h-2.336l-1.851-3.537h-.962V69h-1.951v-8.85z" fill="#525F85"/><path d="M128.488 62.45a1.92 1.92 0 0 0-.706-.538 2.353 2.353 0 0 0-.969-.188 2.44 2.44 0 0 0-1.831.807 2.793 2.793 0 0 0-.538.906c-.129.35-.193.73-.193 1.138 0 .417.064.798.193 1.144.13.345.307.645.531.9.226.254.49.452.794.594.305.141.631.212.982.212.399 0 .754-.083 1.062-.25.308-.166.563-.4.763-.7l1.625 1.212a3.378 3.378 0 0 1-1.426 1.162 4.402 4.402 0 0 1-1.774.375 5.468 5.468 0 0 1-1.913-.324 4.384 4.384 0 0 1-1.512-.93 4.211 4.211 0 0 1-.994-1.47c-.238-.575-.357-1.217-.357-1.925s.119-1.35.357-1.925a4.21 4.21 0 0 1 .994-1.469 4.388 4.388 0 0 1 1.512-.93 5.447 5.447 0 0 1 1.913-.326c.25 0 .51.023.781.07.27.045.537.117.8.218.262.1.514.233.756.4.242.166.459.37.65.611l-1.5 1.226z" fill="#525F85"/><path d="M132.813 64.575c0 .417.064.798.193 1.144a2.539 2.539 0 0 0 1.425 1.494c.338.141.715.212 1.132.212.417 0 .794-.07 1.131-.212a2.543 2.543 0 0 0 1.425-1.494 3.25 3.25 0 0 0 .194-1.144c0-.408-.065-.788-.194-1.138a2.622 2.622 0 0 0-.556-.906 2.546 2.546 0 0 0-.869-.594 2.904 2.904 0 0 0-1.131-.213c-.417 0-.794.072-1.132.213a2.542 2.542 0 0 0-1.425 1.5c-.129.35-.193.73-.193 1.138zm-2.025 0c0-.708.119-1.35.356-1.925a4.21 4.21 0 0 1 .994-1.469 4.388 4.388 0 0 1 1.512-.93 5.451 5.451 0 0 1 1.913-.326c.691 0 1.329.108 1.912.325a4.392 4.392 0 0 1 1.513.931c.425.405.756.894.994 1.47.237.573.355 1.216.355 1.924s-.118 1.35-.355 1.925a4.238 4.238 0 0 1-.994 1.47c-.425.403-.93.713-1.513.93a5.466 5.466 0 0 1-1.912.324 5.472 5.472 0 0 1-1.913-.324 4.384 4.384 0 0 1-1.512-.93 4.211 4.211 0 0 1-.994-1.47c-.237-.575-.356-1.217-.356-1.925z" fill="#525F85"/><path d="M143.613 67.2h1.012c.45 0 .869-.046 1.256-.138a2.675 2.675 0 0 0 1.006-.456c.284-.213.507-.492.669-.838.162-.345.245-.768.245-1.268 0-.434-.083-.81-.245-1.13a2.242 2.242 0 0 0-.656-.795 2.89 2.89 0 0 0-.969-.469 4.308 4.308 0 0 0-1.169-.156h-1.149m-1.951-1.8h2.926c.708 0 1.38.08 2.018.237a4.623 4.623 0 0 1 1.669.77c.475.354.852.814 1.131 1.38.279.567.419 1.255.419 2.062 0 .717-.136 1.35-.406 1.895a4.078 4.078 0 0 1-1.094 1.375 4.87 4.87 0 0 1-1.587.844 6.2 6.2 0 0 1-1.889.287h-3.187v-8.85z" fill="#525F85"/><path d="M151.225 60.15h6.013v1.8h-4.063v1.65h3.838v1.8h-3.838v1.8h4.288V69h-6.238v-8.85z" fill="#525F85"/><path d="M160.213 63.675h-1.601l.925-3.524h1.801l-1.125 3.524z" fill="#525F85"/><path d="M167.1 62.313a1.38 1.38 0 0 0-.643-.443 2.307 2.307 0 0 0-.769-.146c-.142 0-.287.019-.438.052-.15.032-.291.084-.424.156a.917.917 0 0 0-.326.28.715.715 0 0 0-.125.426c0 .267.1.47.301.612.199.141.451.263.756.363.304.1.631.2.98.3.351.1.678.242.983.425.304.183.556.428.756.738.199.308.3.72.3 1.237 0 .492-.092.92-.275 1.286a2.605 2.605 0 0 1-.744.914c-.312.24-.676.42-1.088.537a4.765 4.765 0 0 1-1.307.174 4.738 4.738 0 0 1-1.599-.261 4.027 4.027 0 0 1-1.375-.85l1.388-1.525c.2.267.452.473.756.619a2.156 2.156 0 0 0 1.424.163c.163-.038.309-.094.438-.17a.921.921 0 0 0 .312-.288.71.71 0 0 0 .119-.412.745.745 0 0 0-.306-.63 2.801 2.801 0 0 0-.768-.396 25.62 25.62 0 0 0-1-.323 4.518 4.518 0 0 1-1-.438 2.41 2.41 0 0 1-.769-.725c-.204-.3-.307-.696-.307-1.188 0-.474.094-.891.281-1.25.188-.358.438-.659.75-.9a3.268 3.268 0 0 1 1.082-.543 4.417 4.417 0 0 1 1.262-.182c.5 0 .984.072 1.451.213.466.141.887.378 1.262.711l-1.338 1.464z" fill="#525F85"/><path d="M74.401 77.9h1.3c.176 0 .344-.017.506-.05.163-.034.308-.09.437-.169a.89.89 0 0 0 .313-.325c.08-.138.12-.31.12-.519 0-.225-.054-.406-.157-.543a1.035 1.035 0 0 0-.4-.32 1.742 1.742 0 0 0-.544-.143 5.522 5.522 0 0 0-.575-.032h-1m-1.95-1.649h3.287c.46 0 .892.041 1.301.125.408.083.763.227 1.068.431.305.204.546.48.725.825.18.346.27.781.27 1.306 0 .517-.085.95-.25 1.3-.168.35-.397.63-.688.837a2.793 2.793 0 0 1-1.037.445c-.4.086-.834.13-1.3.13H74.4v3.452h-1.95v-8.85z" fill="#525F85"/><path d="M80.401 74.15h6.013v1.8h-4.063v1.65h3.838v1.8h-3.838v1.8h4.287V83h-6.237v-8.85z" fill="#525F85"/><path d="M90.15 77.813h1.15c.175 0 .361-.006.557-.02.195-.011.373-.048.531-.111a.926.926 0 0 0 .394-.294c.104-.134.156-.321.156-.562 0-.227-.046-.405-.138-.539a.917.917 0 0 0-.349-.305 1.565 1.565 0 0 0-.488-.144 3.993 3.993 0 0 0-.538-.038H90.15m-1.949-1.65h3.425c.45 0 .877.043 1.281.132.403.088.758.233 1.062.437.304.203.546.48.725.825.179.346.269.778.269 1.294 0 .625-.163 1.157-.488 1.594-.325.438-.8.714-1.425.83l2.25 3.739h-2.337l-1.85-3.538h-.963V83h-1.949v-8.85z" fill="#525F85"/><path d="M96.376 74.15h5.938v1.8h-3.988v1.8h3.688v1.8h-3.688V83h-1.95v-8.85z" fill="#525F85"/><path d="M105.264 78.575c0 .417.064.798.193 1.144a2.536 2.536 0 0 0 1.426 1.494c.337.14.714.212 1.131.212.416 0 .793-.071 1.131-.212a2.546 2.546 0 0 0 1.426-1.494 3.25 3.25 0 0 0 .193-1.144c0-.408-.064-.788-.193-1.138a2.639 2.639 0 0 0-.557-.906 2.546 2.546 0 0 0-.869-.594 2.911 2.911 0 0 0-1.131-.213c-.417 0-.794.072-1.131.213a2.536 2.536 0 0 0-1.426 1.5c-.129.35-.193.73-.193 1.138zm-2.025 0c0-.708.119-1.35.356-1.925a4.235 4.235 0 0 1 .993-1.469c.426-.404.93-.714 1.514-.93a5.44 5.44 0 0 1 1.912-.326c.691 0 1.329.108 1.912.325a4.38 4.38 0 0 1 1.513.931c.425.405.757.894.993 1.47.238.573.357 1.216.357 1.924s-.119 1.35-.357 1.925a4.209 4.209 0 0 1-.993 1.469 4.38 4.38 0 0 1-1.513.93 5.466 5.466 0 0 1-1.912.325c-.691 0-1.33-.108-1.912-.324a4.395 4.395 0 0 1-1.514-.931 4.236 4.236 0 0 1-.993-1.47c-.237-.574-.356-1.216-.356-1.924z" fill="#525F85"/><path d="M116.062 77.813h1.15c.175 0 .361-.006.557-.02.195-.011.373-.048.531-.111a.926.926 0 0 0 .394-.294c.104-.134.156-.321.156-.562 0-.227-.046-.405-.138-.539a.917.917 0 0 0-.349-.305 1.565 1.565 0 0 0-.488-.144 3.993 3.993 0 0 0-.538-.038h-1.275m-1.949-1.65h3.425c.45 0 .877.043 1.281.132.403.088.758.233 1.062.437.304.203.546.48.725.825.179.346.269.778.269 1.294 0 .625-.163 1.157-.488 1.594-.325.438-.8.714-1.425.83l2.25 3.739h-2.337l-1.85-3.538h-.963V83h-1.949v-8.85z" fill="#525F85"/><path d="M122.213 74.15h2.95l2.038 5.774h.025l2.05-5.774h2.937V83h-1.949v-6.787h-.026l-2.325 6.788h-1.487l-2.238-6.788h-.025v6.788h-1.95v-8.85z" fill="#525F85"/><path d="M137.676 76.725l-1.076 2.75h2.163m-1.837-5.324h1.611L142.388 83h-2.2l-.762-1.875h-3.438L135.25 83h-2.15l3.826-8.85z" fill="#525F85"/><path d="M143.275 74.15h2.65l3.762 6.149h.026V74.15h1.95V83h-2.55l-3.863-6.3h-.025V83h-1.95v-8.85z" fill="#525F85"/><path d="M159.25 76.45a1.92 1.92 0 0 0-.706-.538 2.353 2.353 0 0 0-.969-.188 2.44 2.44 0 0 0-1.831.807 2.793 2.793 0 0 0-.538.906c-.129.35-.193.73-.193 1.138 0 .417.064.798.193 1.144.13.345.307.645.531.9.226.254.49.452.794.594.305.14.631.212.982.212.399 0 .754-.083 1.062-.25.308-.166.563-.4.763-.701l1.625 1.213a3.378 3.378 0 0 1-1.426 1.162 4.402 4.402 0 0 1-1.774.375 5.468 5.468 0 0 1-1.913-.324 4.386 4.386 0 0 1-1.512-.931 4.211 4.211 0 0 1-.994-1.47c-.238-.574-.357-1.216-.357-1.924s.119-1.35.357-1.925a4.21 4.21 0 0 1 .994-1.469 4.386 4.386 0 0 1 1.512-.93 5.445 5.445 0 0 1 1.913-.326c.25 0 .51.023.781.07.27.045.537.117.8.218.262.1.514.233.756.4.242.166.459.37.65.611l-1.5 1.226z" fill="#525F85"/><path d="M162.1 74.15h6.013v1.8h-4.063v1.65h3.838v1.8h-3.838v1.8h4.288V83H162.1v-8.85z" fill="#525F85"/><path d="M199.109 80.598h.779l-.984 4.623c-.109.496-.164.92-.164 1.272 0 .652.173 1.14.518 1.467.346.326.824.49 1.433.49.707 0 1.264-.204 1.67-.61.406-.406.707-1.058.902-1.957l1.125-5.285h.774l-1.096 5.156c-.262 1.227-.662 2.099-1.201 2.616-.539.518-1.301.777-2.285.777-.805 0-1.442-.231-1.91-.692-.469-.461-.704-1.086-.704-1.875 0-.418.043-.826.129-1.224l1.014-4.758z" fill="#333"/><path d="M205.285 88.027c.184.137.413.25.688.34.276.09.539.135.789.135.429 0 .756-.087.981-.261.225-.174.337-.43.337-.765 0-.23-.07-.428-.211-.595-.141-.166-.396-.362-.768-.588-.418-.25-.721-.502-.911-.756a1.452 1.452 0 0 1-.284-.891c0-.515.19-.943.568-1.283.379-.34.872-.51 1.477-.51a3.9 3.9 0 0 1 .727.076c.261.05.492.125.691.223l-.152.72a2.347 2.347 0 0 0-1.301-.374c-.379 0-.683.098-.911.296a.968.968 0 0 0-.343.77c0 .23.062.43.187.598.125.168.375.363.75.586.454.277.773.542.958.794.186.252.279.54.279.864 0 .53-.194.954-.58 1.268-.387.315-.914.472-1.582.472-.27 0-.546-.036-.829-.108a2.704 2.704 0 0 1-.712-.28l.152-.731z" fill="#333"/><path d="M211.021 85.783c1.164 0 2.021-.111 2.572-.334.551-.223.826-.572.826-1.05 0-.292-.098-.515-.295-.67-.198-.154-.474-.231-.83-.231-.531 0-1.009.214-1.435.64-.426.429-.705.977-.838 1.645zm-.1.943c0 .563.149.999.446 1.31.297.31.707.466 1.23.466.535 0 1.11-.18 1.723-.54l-.141.739a3.384 3.384 0 0 1-1.687.445c-.746 0-1.321-.218-1.723-.656-.402-.437-.603-1.051-.603-1.84 0-.676.145-1.307.436-1.895a3.564 3.564 0 0 1 1.181-1.392 2.775 2.775 0 0 1 1.599-.51c.543 0 .978.136 1.304.408.326.27.489.633.489 1.086 0 .692-.339 1.206-1.016 1.54-.678.337-1.753.513-3.226.529l-.012.31z" fill="#333"/><path d="M221.064 81.494a.508.508 0 0 1-.378-.161.531.531 0 0 1-.155-.378c0-.152.053-.276.158-.372a.537.537 0 0 1 .375-.144c.145 0 .27.048.375.144.105.096.158.22.158.372s-.054.28-.161.384a.52.52 0 0 1-.372.155zM220.261 83h.744l-.896 4.224c-.078.399-.117.674-.117.827 0 .277.15.416.451.416.18 0 .342-.028.486-.082l-.123.597a1.672 1.672 0 0 1-.627.117c-.304 0-.538-.08-.7-.237-.162-.158-.243-.39-.243-.694 0-.215.045-.537.135-.967l.89-4.201z" fill="#333"/><path d="M223.115 83.639h-1.049l.147-.64h1.031l.322-1.516.791-.24-.375 1.757h1.565l-.147.639h-1.553l-.744 3.498c-.07.316-.105.574-.105.773 0 .196.041.338.123.428.082.09.219.135.41.135.184 0 .482-.092.897-.275l-.147.668a2.462 2.462 0 0 1-.478.172 1.912 1.912 0 0 1-.477.074c-.719 0-1.078-.371-1.078-1.114 0-.23.037-.507.111-.832l.756-3.527z" fill="#333"/><path d="M230.123 83.639h-1.049l.147-.64h1.031l.322-1.516.791-.24L230.99 83h1.565l-.147.639h-1.553l-.744 3.498c-.07.316-.105.574-.105.773 0 .196.041.338.123.428.082.09.219.135.41.135.184 0 .482-.092.897-.275l-.147.668a2.462 2.462 0 0 1-.478.172 1.912 1.912 0 0 1-.477.074c-.719 0-1.078-.371-1.078-1.114 0-.23.037-.507.111-.832l.756-3.527z" fill="#333"/><path d="M234.893 88.502c.441 0 .848-.145 1.219-.434.371-.29.661-.683.87-1.183.209-.5.313-1.047.313-1.641 0-.566-.13-1-.389-1.298-.26-.298-.617-.448-1.07-.448-.668 0-1.235.314-1.702.94-.467.627-.7 1.4-.7 2.318 0 .547.131.975.393 1.283.261.309.617.463 1.066.463zm-.053.645c-.668 0-1.195-.207-1.582-.62-.386-.411-.58-.986-.58-1.724 0-.727.138-1.394.413-2.001.276-.608.662-1.084 1.16-1.43a2.818 2.818 0 0 1 1.644-.518c.664 0 1.189.208 1.576.624.387.416.58.987.58 1.713 0 .739-.137 1.412-.413 2.019-.275.607-.658 1.082-1.148 1.424a2.818 2.818 0 0 1-1.65.513z" fill="#333"/><path d="M244.174 81.494a.508.508 0 0 1-.378-.161.531.531 0 0 1-.155-.378c0-.152.053-.276.158-.372a.537.537 0 0 1 .375-.144c.145 0 .27.048.375.144.105.096.158.22.158.372s-.054.28-.161.384a.52.52 0 0 1-.372.155zM243.371 83h.744l-.896 4.224c-.078.399-.117.674-.117.827 0 .277.15.416.451.416.18 0 .342-.028.486-.082l-.123.597a1.672 1.672 0 0 1-.627.117c-.304 0-.538-.08-.7-.237-.162-.158-.243-.39-.243-.694 0-.215.045-.537.135-.967l.89-4.201z" fill="#333"/><path d="M246.119 83h.721c-.055.418-.139.94-.252 1.57h.023c.711-1.144 1.475-1.716 2.291-1.716.485 0 .837.144 1.058.433.221.289.335.715.343 1.277.339-.543.712-.963 1.119-1.262.406-.3.822-.448 1.248-.448.941 0 1.412.542 1.412 1.628 0 .23-.059.629-.176 1.196L253.197 89h-.732l.715-3.48c.097-.45.146-.776.146-.98 0-.694-.287-1.042-.861-1.042-.285 0-.599.127-.941.38a3.97 3.97 0 0 0-.931 1.015c-.28.42-.464.832-.554 1.23L249.43 89h-.745l.727-3.48c.098-.45.146-.758.146-.926 0-.731-.287-1.096-.861-1.096-.285 0-.6.129-.946.387a4.02 4.02 0 0 0-.941 1.028c-.281.428-.462.837-.545 1.228L245.656 89h-.744l.926-4.307c.156-.757.25-1.322.281-1.693z" fill="#333"/><path d="M256.244 83h.721c-.055.418-.139.94-.252 1.57h.023c.711-1.144 1.475-1.716 2.291-1.716.485 0 .837.144 1.058.433.221.289.335.715.343 1.277.339-.543.712-.963 1.119-1.262.406-.3.822-.448 1.248-.448.941 0 1.412.542 1.412 1.628 0 .23-.059.629-.176 1.196L263.322 89h-.732l.715-3.48c.097-.45.146-.776.146-.98 0-.694-.287-1.042-.861-1.042-.285 0-.599.127-.941.38a3.97 3.97 0 0 0-.931 1.015c-.28.42-.464.832-.554 1.23L259.555 89h-.745l.727-3.48c.098-.45.146-.758.146-.926 0-.731-.287-1.096-.861-1.096-.285 0-.6.129-.946.387a4.02 4.02 0 0 0-.941 1.028c-.281.428-.462.837-.545 1.228L255.781 89h-.744l.926-4.307c.156-.757.25-1.322.281-1.693z" fill="#333"/><path d="M266.176 85.783c1.164 0 2.021-.111 2.572-.334.551-.223.826-.572.826-1.05 0-.292-.098-.515-.295-.67-.198-.154-.474-.231-.83-.231-.531 0-1.009.214-1.435.64-.426.429-.705.977-.838 1.645zm-.1.943c0 .563.149.999.446 1.31.297.31.707.466 1.23.466.535 0 1.11-.18 1.723-.54l-.141.739a3.384 3.384 0 0 1-1.687.445c-.746 0-1.321-.218-1.723-.656-.402-.437-.603-1.051-.603-1.84 0-.676.145-1.307.436-1.895a3.564 3.564 0 0 1 1.181-1.392 2.775 2.775 0 0 1 1.599-.51c.543 0 .978.136 1.304.408.326.27.489.633.489 1.086 0 .692-.339 1.206-1.016 1.54-.678.337-1.753.513-3.226.529l-.012.31z" fill="#333"/><path d="M275.732 83.674a3.627 3.627 0 0 0-1.131-.176c-.531 0-1.007.144-1.427.43-.42.288-.755.697-1.007 1.228a3.986 3.986 0 0 0-.378 1.729c0 1.078.377 1.617 1.13 1.617.313 0 .634-.138.964-.413.33-.275.631-.658.903-1.148a5.793 5.793 0 0 0 .589-1.574M274.771 89c.016-.39.08-.924.193-1.6h-.023c-.328.579-.666 1.014-1.014 1.307-.347.293-.744.44-1.189.44-.535 0-.953-.19-1.254-.566-.301-.377-.451-.92-.451-1.626 0-.746.158-1.44.474-2.08.317-.64.751-1.138 1.304-1.491a3.356 3.356 0 0 1 1.849-.53c.375 0 .777.054 1.207.164l.615-2.901h.727l-1.477 7.008a9.249 9.249 0 0 0-.126.914c-.049.46-.073.78-.073.96h-.762z" fill="#333"/><path d="M279.301 81.494a.508.508 0 0 1-.378-.161.531.531 0 0 1-.155-.378c0-.152.053-.276.158-.372a.537.537 0 0 1 .375-.144c.145 0 .27.048.375.144.105.096.158.22.158.372s-.054.28-.161.384a.52.52 0 0 1-.372.155zM278.498 83h.744l-.896 4.224c-.078.399-.117.674-.117.827 0 .277.15.416.451.416.18 0 .342-.028.486-.082l-.123.597a1.672 1.672 0 0 1-.627.117c-.304 0-.538-.08-.7-.237-.162-.158-.243-.39-.243-.694 0-.215.045-.537.135-.967l.89-4.201z" fill="#333"/><path d="M284.902 83.62a5.225 5.225 0 0 0-1.131-.122c-.531 0-1.01.144-1.435.434-.426.289-.763.699-1.011 1.23a4.089 4.089 0 0 0-.372 1.752c0 1.059.375 1.588 1.125 1.588.316 0 .64-.138.972-.413.332-.276.635-.665.909-1.17a5.878 5.878 0 0 0 .58-1.523M283.935 89c.016-.41.082-.95.199-1.617h-.023c-.359.633-.712 1.085-1.058 1.356a1.814 1.814 0 0 1-1.151.407c-.539 0-.958-.19-1.257-.571-.299-.381-.448-.917-.448-1.608 0-.746.161-1.445.483-2.095.323-.65.762-1.15 1.319-1.497a3.445 3.445 0 0 1 1.866-.522c.504 0 1.133.077 1.887.229l-.803 3.873c-.055.258-.11.609-.167 1.055a8.598 8.598 0 0 0-.085.99h-.762z" fill="#333"/><path d="M287.732 83.639h-1.049l.147-.64h1.031l.322-1.516.791-.24-.375 1.757h1.565l-.147.639h-1.553l-.744 3.498c-.07.316-.105.574-.105.773 0 .196.041.338.123.428.082.09.219.135.41.135.184 0 .482-.092.897-.275l-.147.668a2.462 2.462 0 0 1-.478.172 1.912 1.912 0 0 1-.477.074c-.719 0-1.078-.371-1.078-1.114 0-.23.037-.507.111-.832l.756-3.527z" fill="#333"/><path d="M291.143 85.783c1.164 0 2.021-.111 2.572-.334.551-.223.826-.572.826-1.05 0-.292-.098-.515-.295-.67-.198-.154-.474-.231-.83-.231-.531 0-1.009.214-1.435.64-.426.429-.705.977-.838 1.645zm-.1.943c0 .563.149.999.446 1.31.297.31.707.466 1.23.466.535 0 1.11-.18 1.723-.54l-.141.739a3.384 3.384 0 0 1-1.687.445c-.746 0-1.321-.218-1.723-.656-.402-.437-.603-1.051-.603-1.84 0-.676.145-1.307.436-1.895a3.564 3.564 0 0 1 1.181-1.392 2.775 2.775 0 0 1 1.599-.51c.543 0 .978.136 1.304.408.326.27.489.633.489 1.086 0 .692-.339 1.206-1.016 1.54-.678.337-1.753.513-3.226.529l-.012.31z" fill="#333"/><path d="M297.699 80.117h.744l-1.512 7.107c-.078.399-.117.674-.117.827 0 .277.151.416.451.416.18 0 .342-.028.487-.082l-.123.597a1.68 1.68 0 0 1-.627.117c-.305 0-.538-.08-.7-.237-.163-.158-.244-.39-.244-.694 0-.242.045-.565.135-.967l1.506-7.084z" fill="#333"/><path d="M297.5 91.039c.125.07.279.105.463.105.281 0 .534-.082.759-.246.224-.164.444-.418.659-.761l.756-1.19L299.064 83h.756l.785 4.74.041.45h.024l.158-.31 2.906-4.88h.832l-4.347 7.06c-.418.668-.8 1.128-1.146 1.38a1.95 1.95 0 0 1-1.18.378c-.219 0-.399-.03-.539-.088l.146-.691z" fill="#333"/><path d="M312.394 83.62a5.128 5.128 0 0 0-1.184-.122c-.507 0-.973.145-1.397.436-.424.29-.758.7-1.002 1.225a4.033 4.033 0 0 0-.366 1.72c0 1.082.365 1.623 1.095 1.623.34 0 .681-.144 1.023-.431.342-.287.645-.681.911-1.183a5.8 5.8 0 0 0 .557-1.486m-4.84 5.262c.57.332 1.119.498 1.646.498.664 0 1.194-.187 1.588-.56.395-.373.692-.991.891-1.854l.299-1.348h-.024c-.34.594-.681 1.034-1.025 1.319a1.78 1.78 0 0 1-1.166.427c-.539 0-.959-.187-1.26-.562-.301-.375-.451-.92-.451-1.635 0-.746.157-1.434.472-2.065a3.714 3.714 0 0 1 1.303-1.49 3.294 3.294 0 0 1 1.834-.541c.27 0 .594.023.973.068.379.045.703.096.973.155l-1.166 5.496c-.254 1.168-.646 2-1.175 2.499-.53.498-1.251.747-2.165.747a3.48 3.48 0 0 1-1.688-.433l.141-.721z" fill="#333"/><path d="M314.926 85.783c1.164 0 2.021-.111 2.572-.334.551-.223.826-.572.826-1.05 0-.292-.098-.515-.295-.67-.198-.154-.474-.231-.83-.231-.531 0-1.009.214-1.435.64-.426.429-.705.977-.838 1.645zm-.1.943c0 .563.149.999.446 1.31.297.31.707.466 1.23.466.535 0 1.11-.18 1.723-.54l-.141.739a3.384 3.384 0 0 1-1.687.445c-.746 0-1.321-.218-1.723-.656-.402-.437-.603-1.051-.603-1.84 0-.676.145-1.307.436-1.895a3.564 3.564 0 0 1 1.181-1.392 2.775 2.775 0 0 1 1.599-.51c.543 0 .978.136 1.304.408.326.27.489.633.489 1.086 0 .692-.339 1.206-1.016 1.54-.678.337-1.753.513-3.226.529l-.012.31z" fill="#333"/><path d="M320.937 83.639h-1.049l.147-.64h1.031l.322-1.516.791-.24-.375 1.757h1.565l-.146.639h-1.554l-.744 3.498c-.07.316-.105.574-.105.773 0 .196.041.338.123.428.082.09.219.135.41.135.184 0 .482-.092.897-.275l-.147.668a2.462 2.462 0 0 1-.478.172 1.912 1.912 0 0 1-.477.074c-.719 0-1.078-.371-1.078-1.114 0-.23.037-.507.111-.832l.756-3.527z" fill="#333"/><path d="M327.945 83.639h-1.049l.147-.64h1.031l.322-1.516.791-.24-.375 1.757h1.565l-.147.639h-1.553l-.744 3.498c-.07.316-.105.574-.105.773 0 .196.041.338.123.428.082.09.219.135.41.135.184 0 .482-.092.897-.275l-.147.668a2.462 2.462 0 0 1-.478.172 1.912 1.912 0 0 1-.477.074c-.719 0-1.078-.371-1.078-1.114 0-.23.037-.507.111-.832l.756-3.527z" fill="#333"/><path d="M332.24 80.117h.732l-.943 4.44h.023c.715-1.135 1.514-1.704 2.397-1.704.5 0 .875.142 1.125.425.25.283.375.693.375 1.228 0 .054-.008.136-.023.246-.016.109-.04.259-.071.448-.031.189-.293 1.456-.785 3.8h-.744l.721-3.481c.097-.453.146-.761.146-.925 0-.731-.316-1.096-.949-1.096-.316 0-.66.132-1.031.395a3.878 3.878 0 0 0-.973 1.017 3.533 3.533 0 0 0-.545 1.242L331.086 89h-.744l1.898-8.883z" fill="#333"/><path d="M337.918 85.783c1.164 0 2.021-.111 2.572-.334.551-.223.826-.572.826-1.05 0-.292-.098-.515-.295-.67-.198-.154-.474-.231-.83-.231-.531 0-1.009.214-1.435.64-.426.429-.705.977-.838 1.645zm-.1.943c0 .563.149.999.446 1.31.297.31.707.466 1.23.466.535 0 1.11-.18 1.723-.54l-.141.739a3.384 3.384 0 0 1-1.687.445c-.746 0-1.321-.218-1.723-.656-.402-.437-.603-1.051-.603-1.84 0-.676.145-1.307.436-1.895a3.564 3.564 0 0 1 1.181-1.392 2.775 2.775 0 0 1 1.599-.51c.543 0 .978.136 1.304.408.326.27.489.633.489 1.086 0 .692-.339 1.206-1.016 1.54-.678.337-1.753.513-3.226.529l-.012.31z" fill="#333"/><path d="M346.83 88.203c.348.199.744.299 1.189.299a2.34 2.34 0 0 0 1.398-.454c.42-.303.749-.718.987-1.245a4.084 4.084 0 0 0 .358-1.705c0-.543-.095-.946-.285-1.208-.189-.261-.483-.392-.881-.392-.328 0-.658.14-.988.419-.33.279-.626.663-.887 1.15-.262.49-.44.972-.534 1.448m.616-6.398h.738l-.639 3-.31 1.383h.017c.602-1.098 1.336-1.647 2.203-1.647.559 0 .983.189 1.272.566.289.377.434.919.434 1.626 0 .762-.159 1.464-.475 2.106-.317.643-.745 1.136-1.286 1.48a3.329 3.329 0 0 1-1.82.515 4.03 4.03 0 0 1-1.022-.143 3.381 3.381 0 0 1-.917-.372l1.805-8.514z" fill="#333"/><path d="M354.342 81.494a.508.508 0 0 1-.378-.161.531.531 0 0 1-.155-.378c0-.152.053-.276.158-.372a.537.537 0 0 1 .375-.144c.145 0 .27.048.375.144.105.096.158.22.158.372s-.054.28-.161.384a.52.52 0 0 1-.372.155zM353.539 83h.744l-.896 4.224c-.078.399-.117.674-.117.827 0 .277.15.416.451.416.18 0 .342-.028.486-.082l-.123.597a1.672 1.672 0 0 1-.627.117c-.304 0-.538-.08-.7-.237-.162-.158-.243-.39-.243-.694 0-.215.045-.537.135-.967l.89-4.201z" fill="#333"/><path d="M359.943 83.62a5.128 5.128 0 0 0-1.184-.122c-.507 0-.973.145-1.397.436-.424.29-.758.7-1.002 1.225a4.033 4.033 0 0 0-.366 1.72c0 1.082.365 1.623 1.095 1.623.34 0 .681-.144 1.023-.431.342-.287.645-.681.911-1.183a5.8 5.8 0 0 0 .557-1.486m-4.84 5.262c.57.332 1.119.498 1.646.498.664 0 1.194-.187 1.588-.56.395-.373.692-.991.891-1.854l.299-1.348h-.024c-.34.594-.681 1.034-1.025 1.319a1.78 1.78 0 0 1-1.166.427c-.539 0-.959-.187-1.26-.562-.301-.375-.451-.92-.451-1.635 0-.746.157-1.434.472-2.065a3.714 3.714 0 0 1 1.303-1.49 3.294 3.294 0 0 1 1.834-.541c.27 0 .594.023.973.068.379.045.703.096.973.155l-1.166 5.496c-.254 1.168-.646 2-1.175 2.499-.53.498-1.251.747-2.165.747a3.48 3.48 0 0 1-1.688-.433l.141-.721z" fill="#333"/><path d="M365.639 88.268c.344.156.75.234 1.219.234.511 0 .978-.15 1.4-.451.422-.301.752-.712.99-1.233a4.038 4.038 0 0 0 .358-1.702c0-1.078-.383-1.618-1.149-1.618-.32 0-.651.145-.993.434-.342.289-.646.678-.914 1.166a5.361 5.361 0 0 0-.559 1.5m-.17-3.598h.75c0 .137-.026.4-.077.79-.05.392-.091.667-.123.828h.024c.648-1.176 1.404-1.764 2.267-1.764.543 0 .962.185 1.257.557.295.37.443.916.443 1.634a4.57 4.57 0 0 1-.484 2.083c-.322.643-.756 1.14-1.301 1.492a3.256 3.256 0 0 1-1.801.527 3.56 3.56 0 0 1-1.266-.23l-.609 2.884h-.739l1.465-6.926c.047-.242.091-.58.132-1.01.041-.432.062-.72.062-.865z" fill="#333"/><path d="M373.185 81.494a.508.508 0 0 1-.378-.161.531.531 0 0 1-.155-.378c0-.152.053-.276.158-.372a.537.537 0 0 1 .375-.144c.145 0 .27.048.375.144.105.096.158.22.158.372s-.054.28-.161.384a.52.52 0 0 1-.372.155zM372.382 83h.744l-.896 4.224c-.078.399-.117.674-.117.827 0 .277.15.416.451.416.18 0 .342-.028.486-.082l-.123.597a1.672 1.672 0 0 1-.627.117c-.304 0-.538-.08-.7-.237-.162-.158-.243-.39-.243-.694 0-.215.045-.537.135-.967l.89-4.201z" fill="#333"/><path d="M376.209 89.147c-.664 0-1.185-.216-1.562-.647-.376-.432-.565-1.021-.565-1.767 0-.711.142-1.366.425-1.966.283-.6.677-1.068 1.181-1.406a2.92 2.92 0 0 1 1.664-.507c.566 0 1.043.133 1.429.398l-.176.762c-.351-.344-.796-.515-1.335-.515-.457 0-.874.144-1.251.433-.377.289-.671.682-.882 1.178a3.983 3.983 0 0 0-.317 1.576c0 .578.133 1.025.399 1.342.265.316.635.474 1.107.474.481 0 .998-.201 1.553-.603l-.176.809a4.208 4.208 0 0 1-.791.345 2.49 2.49 0 0 1-.703.094z" fill="#333"/><path d="M380.293 83.639h-1.049l.147-.64h1.031l.322-1.516.791-.24L381.16 83h1.565l-.147.639h-1.553l-.744 3.498c-.07.316-.105.574-.105.773 0 .196.041.338.123.428.082.09.219.135.41.135.184 0 .482-.092.897-.275l-.147.668a2.462 2.462 0 0 1-.478.172 1.912 1.912 0 0 1-.477.074c-.719 0-1.078-.371-1.078-1.114 0-.23.037-.507.111-.832l.756-3.527z" fill="#333"/><path d="M383.902 83h.738l-.726 3.48c-.094.477-.141.786-.141.926 0 .73.315 1.096.943 1.096.305 0 .634-.122.988-.366a3.98 3.98 0 0 0 .978-1.005c.299-.426.495-.85.589-1.272l.61-2.86h.738l-.92 4.314a15.542 15.542 0 0 0-.281 1.687h-.721l.252-1.57h-.024c-.339.55-.716.974-1.13 1.27-.414.298-.838.446-1.272.446-.508 0-.887-.143-1.137-.43-.25-.287-.375-.695-.375-1.222 0-.113.021-.297.062-.551.041-.254.081-.46.12-.615l.709-3.328z" fill="#333"/><path d="M390.453 83h.732l-.199 1.37h.024c.265-.507.544-.887.835-1.14a1.489 1.489 0 0 1 1.004-.376 1.6 1.6 0 0 1 .627.123l-.134.79h-.024a1.177 1.177 0 0 0-.65-.204c-.426 0-.837.264-1.234.793-.396.53-.682 1.199-.858 2.007L390.014 89h-.739l.838-3.937c.184-.825.297-1.512.34-2.063z" fill="#333"/><path d="M394.402 85.783c1.164 0 2.021-.111 2.572-.334.551-.223.826-.572.826-1.05 0-.292-.098-.515-.295-.67-.198-.154-.474-.231-.83-.231-.531 0-1.009.214-1.435.64-.426.429-.705.977-.838 1.645zm-.1.943c0 .563.149.999.446 1.31.297.31.707.466 1.23.466.535 0 1.11-.18 1.723-.54l-.141.739a3.384 3.384 0 0 1-1.687.445c-.746 0-1.321-.218-1.723-.656-.402-.437-.603-1.051-.603-1.84 0-.676.145-1.307.436-1.895a3.564 3.564 0 0 1 1.181-1.392 2.775 2.775 0 0 1 1.599-.51c.543 0 .978.136 1.304.408.326.27.489.633.489 1.086 0 .692-.339 1.206-1.016 1.54-.678.337-1.753.513-3.226.529l-.012.31z" fill="#333"/><path d="M404.773 88.502c.441 0 .848-.145 1.219-.434.371-.29.661-.683.87-1.183.209-.5.313-1.047.313-1.641 0-.566-.13-1-.389-1.298-.26-.298-.617-.448-1.07-.448-.668 0-1.235.314-1.702.94-.467.627-.7 1.4-.7 2.318 0 .547.131.975.393 1.283.261.309.617.463 1.066.463zm-.053.645c-.668 0-1.195-.207-1.582-.62-.386-.411-.58-.986-.58-1.724 0-.727.138-1.394.413-2.001.276-.608.662-1.084 1.16-1.43a2.818 2.818 0 0 1 1.644-.518c.664 0 1.189.208 1.576.624.387.416.58.987.58 1.713 0 .739-.137 1.412-.413 2.019-.275.607-.658 1.082-1.148 1.424a2.818 2.818 0 0 1-1.65.513z" fill="#333"/><path d="M410.035 83.639h-1.061l.147-.64h1.055l.24-1.124c.269-1.265.961-1.898 2.074-1.898.254 0 .494.035.721.105l-.129.68c-.16-.098-.381-.146-.662-.146-.344 0-.62.114-.829.342-.209.229-.365.585-.466 1.07l-.211.972h1.512l-.153.639h-1.506l-1.57 7.354h-.738l1.576-7.354z" fill="#333"/><path d="M416.187 88.268c.344.156.75.234 1.219.234.511 0 .978-.15 1.4-.451.422-.301.752-.712.99-1.233a4.038 4.038 0 0 0 .358-1.702c0-1.078-.383-1.618-1.149-1.618-.32 0-.651.145-.993.434-.342.289-.646.678-.914 1.166a5.361 5.361 0 0 0-.559 1.5m-.17-3.598h.75c0 .137-.026.4-.077.79-.05.392-.091.667-.123.828h.024c.648-1.176 1.404-1.764 2.267-1.764.543 0 .962.185 1.257.557.295.37.443.916.443 1.634a4.57 4.57 0 0 1-.484 2.083c-.322.643-.756 1.14-1.301 1.492a3.256 3.256 0 0 1-1.801.527 3.56 3.56 0 0 1-1.266-.23l-.609 2.884h-.739l1.465-6.926c.047-.242.091-.58.132-1.01.041-.432.062-.72.062-.865z" fill="#333"/><path d="M422.703 85.783c1.164 0 2.021-.111 2.572-.334.551-.223.826-.572.826-1.05 0-.292-.098-.515-.295-.67-.198-.154-.474-.231-.83-.231-.531 0-1.009.214-1.435.64-.426.429-.705.977-.838 1.645zm-.1.943c0 .563.149.999.446 1.31.297.31.707.466 1.23.466.535 0 1.11-.18 1.723-.54l-.141.739a3.384 3.384 0 0 1-1.687.445c-.746 0-1.321-.218-1.723-.656-.402-.437-.603-1.051-.603-1.84 0-.676.145-1.307.436-1.895a3.564 3.564 0 0 1 1.181-1.392 2.775 2.775 0 0 1 1.599-.51c.543 0 .978.136 1.304.408.326.27.489.633.489 1.086 0 .692-.339 1.206-1.016 1.54-.678.337-1.753.513-3.226.529l-.012.31z" fill="#333"/><path d="M428.592 83h.732l-.199 1.37h.024c.265-.507.544-.887.835-1.14a1.489 1.489 0 0 1 1.004-.376 1.6 1.6 0 0 1 .627.123l-.134.79h-.024a1.177 1.177 0 0 0-.65-.204c-.426 0-.837.264-1.234.793-.396.53-.682 1.199-.858 2.007L428.153 89h-.739l.838-3.937c.184-.825.297-1.512.34-2.063z" fill="#333"/><path d="M432.852 83.639h-1.061l.147-.64h1.055l.24-1.124c.269-1.265.961-1.898 2.074-1.898.254 0 .494.035.721.105l-.129.68c-.16-.098-.381-.146-.662-.146-.344 0-.62.114-.829.342-.209.229-.365.585-.466 1.07l-.211.972h1.512l-.153.639h-1.506l-1.57 7.354h-.738l1.576-7.354z" fill="#333"/><path d="M437.199 88.502c.441 0 .848-.145 1.219-.434.371-.29.661-.683.87-1.183.209-.5.313-1.047.313-1.641 0-.566-.13-1-.389-1.298-.26-.298-.617-.448-1.07-.448-.668 0-1.235.314-1.702.94-.467.627-.7 1.4-.7 2.318 0 .547.131.975.393 1.283.261.309.617.463 1.066.463zm-.053.645c-.668 0-1.195-.207-1.582-.62-.386-.411-.58-.986-.58-1.724 0-.727.138-1.394.413-2.001.276-.608.662-1.084 1.16-1.43a2.818 2.818 0 0 1 1.644-.518c.664 0 1.189.208 1.576.624.387.416.58.987.58 1.713 0 .739-.137 1.412-.413 2.019-.275.607-.658 1.082-1.148 1.424a2.818 2.818 0 0 1-1.65.513z" fill="#333"/><path d="M442.326 83h.732l-.199 1.37h.024c.265-.507.544-.887.835-1.14a1.489 1.489 0 0 1 1.004-.376 1.6 1.6 0 0 1 .627.123l-.134.79h-.024a1.177 1.177 0 0 0-.65-.204c-.426 0-.837.264-1.234.793-.396.53-.682 1.199-.858 2.007L441.887 89h-.739l.838-3.937c.184-.825.297-1.512.34-2.063z" fill="#333"/><path d="M446.469 83h.721c-.055.418-.139.94-.252 1.57h.023c.711-1.144 1.475-1.716 2.291-1.716.485 0 .837.144 1.058.433.221.289.335.715.343 1.277.339-.543.712-.963 1.119-1.262.406-.3.822-.448 1.248-.448.941 0 1.412.542 1.412 1.628 0 .23-.059.629-.176 1.196L453.547 89h-.732l.715-3.48c.097-.45.146-.776.146-.98 0-.694-.287-1.042-.861-1.042-.285 0-.599.127-.941.38a3.97 3.97 0 0 0-.931 1.015c-.28.42-.464.832-.554 1.23L449.78 89h-.745l.727-3.48c.098-.45.146-.758.146-.926 0-.731-.287-1.096-.861-1.096-.285 0-.6.129-.946.387a4.02 4.02 0 0 0-.941 1.028c-.281.428-.462.837-.545 1.228L446.006 89h-.744l.926-4.307c.156-.757.25-1.322.281-1.693z" fill="#333"/><path d="M460.25 83.62a5.225 5.225 0 0 0-1.131-.122c-.531 0-1.01.144-1.435.434-.426.289-.763.699-1.011 1.23a4.089 4.089 0 0 0-.372 1.752c0 1.059.375 1.588 1.125 1.588.316 0 .64-.138.972-.413.332-.276.635-.665.909-1.17a5.878 5.878 0 0 0 .58-1.523M459.283 89c.016-.41.082-.95.199-1.617h-.023c-.359.633-.712 1.085-1.058 1.356a1.814 1.814 0 0 1-1.151.407c-.539 0-.958-.19-1.257-.571-.299-.381-.448-.917-.448-1.608 0-.746.161-1.445.483-2.095.323-.65.762-1.15 1.319-1.497a3.445 3.445 0 0 1 1.866-.522c.504 0 1.133.077 1.887.229l-.803 3.873c-.055.258-.11.609-.167 1.055a8.598 8.598 0 0 0-.085.99h-.762z" fill="#333"/><path d="M462.998 83h.721c-.055.418-.139.94-.252 1.57h.023c.34-.55.717-.974 1.131-1.271.414-.297.84-.445 1.277-.445 1.004 0 1.506.542 1.506 1.628 0 .215-.062.614-.187 1.196L466.514 89h-.739l.721-3.48c.094-.477.141-.786.141-.926 0-.731-.315-1.096-.944-1.096-.312 0-.654.132-1.025.396a3.934 3.934 0 0 0-.976 1.013 3.48 3.48 0 0 0-.548 1.234L462.535 89h-.744l.926-4.307c.109-.543.203-1.107.281-1.693z" fill="#333"/><path d="M470.65 89.147c-.664 0-1.185-.216-1.562-.647-.376-.432-.565-1.021-.565-1.767 0-.711.142-1.366.425-1.966.283-.6.677-1.068 1.181-1.406a2.92 2.92 0 0 1 1.664-.507c.566 0 1.043.133 1.429.398l-.176.762c-.351-.344-.796-.515-1.335-.515-.457 0-.874.144-1.251.433-.377.289-.671.682-.882 1.178a3.983 3.983 0 0 0-.317 1.576c0 .578.133 1.025.399 1.342.265.316.635.474 1.107.474.481 0 .998-.201 1.553-.603l-.176.809a4.208 4.208 0 0 1-.791.345 2.49 2.49 0 0 1-.703.094z" fill="#333"/><path d="M474.435 85.783c1.164 0 2.021-.111 2.572-.334.551-.223.826-.572.826-1.05 0-.292-.098-.515-.295-.67-.198-.154-.474-.231-.83-.231-.531 0-1.009.214-1.435.64-.426.429-.705.977-.838 1.645zm-.1.943c0 .563.149.999.446 1.31.297.31.707.466 1.23.466.535 0 1.11-.18 1.723-.54l-.141.739a3.384 3.384 0 0 1-1.687.445c-.746 0-1.321-.218-1.723-.656-.402-.437-.603-1.051-.603-1.84 0-.676.145-1.307.436-1.895a3.564 3.564 0 0 1 1.181-1.392 2.775 2.775 0 0 1 1.599-.51c.543 0 .978.136 1.304.408.326.27.489.633.489 1.086 0 .692-.339 1.206-1.016 1.54-.678.337-1.753.513-3.226.529l-.012.31z" fill="#333"/><path d="M479.633 89.117a.534.534 0 0 1-.381-.158.532.532 0 0 1-.164-.4c0-.155.053-.286.158-.391a.526.526 0 0 1 .387-.158.55.55 0 0 1 .398.158.52.52 0 0 1 .165.392.532.532 0 0 1-.167.393.55.55 0 0 1-.396.164z" fill="#333"/><path d="M485.141 87.834c.25.172.559.317.926.437.367.119.732.178 1.095.178.594 0 1.053-.134 1.377-.401.325-.268.487-.64.487-1.116 0-.332-.095-.63-.284-.894-.19-.264-.548-.587-1.076-.97-.531-.382-.907-.753-1.128-1.11a2.22 2.22 0 0 1-.331-1.187c0-.68.253-1.235.759-1.666.506-.432 1.159-.648 1.96-.648.606 0 1.201.115 1.787.346l-.152.79c-.465-.296-1.031-.445-1.699-.445-.555 0-1.001.143-1.339.428a1.387 1.387 0 0 0-.507 1.113c0 .364.09.676.27.938.179.262.517.574 1.013.937.582.422.983.8 1.201 1.137.219.336.329.713.329 1.13 0 .454-.109.857-.326 1.208a2.139 2.139 0 0 1-.937.817c-.408.194-.892.29-1.45.29-.36 0-.725-.044-1.096-.134a4.414 4.414 0 0 1-1.014-.375l.135-.803z" fill="#333"/><path d="M492.055 85.783c1.164 0 2.021-.111 2.572-.334.551-.223.826-.572.826-1.05 0-.292-.098-.515-.295-.67-.198-.154-.474-.231-.83-.231-.531 0-1.009.214-1.435.64-.426.429-.705.977-.838 1.645zm-.1.943c0 .563.149.999.446 1.31.297.31.707.466 1.23.466.535 0 1.11-.18 1.723-.54l-.141.739a3.384 3.384 0 0 1-1.687.445c-.746 0-1.321-.218-1.723-.656-.402-.437-.603-1.051-.603-1.84 0-.676.145-1.307.436-1.895a3.564 3.564 0 0 1 1.181-1.392 2.775 2.775 0 0 1 1.599-.51c.543 0 .978.136 1.304.408.326.27.489.633.489 1.086 0 .692-.339 1.206-1.016 1.54-.678.337-1.753.513-3.226.529l-.012.31z" fill="#333"/><path d="M497.768 85.783c1.164 0 2.021-.111 2.572-.334.551-.223.826-.572.826-1.05 0-.292-.098-.515-.295-.67-.198-.154-.474-.231-.83-.231-.531 0-1.009.214-1.435.64-.426.429-.705.977-.838 1.645zm-.1.943c0 .563.149.999.446 1.31.297.31.707.466 1.23.466.535 0 1.11-.18 1.723-.54l-.141.739a3.384 3.384 0 0 1-1.687.445c-.746 0-1.321-.218-1.723-.656-.402-.437-.603-1.051-.603-1.84 0-.676.145-1.307.436-1.895a3.564 3.564 0 0 1 1.181-1.392 2.775 2.775 0 0 1 1.599-.51c.543 0 .978.136 1.304.408.326.27.489.633.489 1.086 0 .692-.339 1.206-1.016 1.54-.678.337-1.753.513-3.226.529l-.012.31z" fill="#333"/><path d="M510.629 83.62a5.225 5.225 0 0 0-1.131-.122c-.531 0-1.01.144-1.435.434-.426.289-.763.699-1.011 1.23a4.089 4.089 0 0 0-.372 1.752c0 1.059.375 1.588 1.125 1.588.316 0 .64-.138.972-.413.332-.276.635-.665.909-1.17a5.878 5.878 0 0 0 .58-1.523M509.662 89c.016-.41.082-.95.199-1.617h-.023c-.359.633-.712 1.085-1.058 1.356a1.814 1.814 0 0 1-1.151.407c-.539 0-.958-.19-1.257-.571-.299-.381-.448-.917-.448-1.608 0-.746.161-1.445.483-2.095.323-.65.762-1.15 1.319-1.497a3.445 3.445 0 0 1 1.866-.522c.504 0 1.133.077 1.887.229l-.803 3.873c-.055.258-.11.609-.167 1.055a8.598 8.598 0 0 0-.085.99h-.762z" fill="#333"/><path d="M513.377 83h.721c-.055.418-.139.94-.252 1.57h.023c.34-.55.717-.974 1.131-1.271.414-.297.84-.445 1.277-.445 1.004 0 1.506.542 1.506 1.628 0 .215-.062.614-.187 1.196L516.893 89h-.739l.721-3.48c.094-.477.141-.786.141-.926 0-.731-.315-1.096-.944-1.096-.312 0-.654.132-1.025.396a3.934 3.934 0 0 0-.976 1.013 3.48 3.48 0 0 0-.548 1.234L512.914 89h-.744l.926-4.307c.109-.543.203-1.107.281-1.693z" fill="#333"/><path d="M523.602 83.674a3.627 3.627 0 0 0-1.131-.176c-.531 0-1.007.144-1.427.43-.42.288-.755.697-1.007 1.228a3.986 3.986 0 0 0-.378 1.729c0 1.078.377 1.617 1.13 1.617.313 0 .634-.138.964-.413.33-.275.631-.658.903-1.148a5.793 5.793 0 0 0 .589-1.574M522.641 89c.016-.39.08-.924.193-1.6h-.023c-.328.579-.666 1.014-1.014 1.307-.347.293-.744.44-1.189.44-.535 0-.953-.19-1.254-.566-.301-.377-.451-.92-.451-1.626 0-.746.158-1.44.474-2.08.317-.64.751-1.138 1.304-1.491a3.356 3.356 0 0 1 1.849-.53c.375 0 .777.054 1.207.164l.615-2.901h.727l-1.477 7.008a9.249 9.249 0 0 0-.126.914c-.049.46-.073.78-.073.96h-.762z" fill="#333"/><path d="M530.709 89.147c-.664 0-1.185-.216-1.562-.647-.376-.432-.565-1.021-.565-1.767 0-.711.142-1.366.425-1.966.283-.6.677-1.068 1.181-1.406a2.92 2.92 0 0 1 1.664-.507c.566 0 1.043.133 1.429.398l-.176.762c-.351-.344-.796-.515-1.335-.515-.457 0-.874.144-1.251.433-.377.289-.671.682-.882 1.178a3.983 3.983 0 0 0-.317 1.576c0 .578.133 1.025.399 1.342.265.316.635.474 1.107.474.481 0 .998-.201 1.553-.603l-.176.809a4.208 4.208 0 0 1-.791.345 2.49 2.49 0 0 1-.703.094z" fill="#333"/><path d="M535.853 88.502c.441 0 .848-.145 1.219-.434.371-.29.661-.683.87-1.183.209-.5.313-1.047.313-1.641 0-.566-.13-1-.389-1.298-.26-.298-.617-.448-1.07-.448-.668 0-1.235.314-1.702.94-.467.627-.7 1.4-.7 2.318 0 .547.131.975.393 1.283.261.309.617.463 1.066.463zm-.053.645c-.668 0-1.195-.207-1.582-.62-.386-.411-.58-.986-.58-1.724 0-.727.138-1.394.413-2.001.276-.608.662-1.084 1.16-1.43a2.818 2.818 0 0 1 1.644-.518c.664 0 1.189.208 1.576.624.387.416.58.987.58 1.713 0 .739-.137 1.412-.413 2.019-.275.607-.658 1.082-1.148 1.424a2.818 2.818 0 0 1-1.65.513z" fill="#333"/><path d="M540.998 83h.721c-.055.418-.139.94-.252 1.57h.023c.711-1.144 1.475-1.716 2.291-1.716.485 0 .837.144 1.058.433.221.289.335.715.343 1.277.339-.543.712-.963 1.119-1.262.406-.3.822-.448 1.248-.448.941 0 1.412.542 1.412 1.628 0 .23-.059.629-.176 1.196L548.076 89h-.732l.715-3.48c.097-.45.146-.776.146-.98 0-.694-.287-1.042-.861-1.042-.285 0-.599.127-.941.38a3.97 3.97 0 0 0-.931 1.015c-.28.42-.464.832-.554 1.23L544.309 89h-.745l.727-3.48c.098-.45.146-.758.146-.926 0-.731-.287-1.096-.861-1.096-.285 0-.6.129-.946.387a4.02 4.02 0 0 0-.941 1.028c-.281.428-.462.837-.545 1.228L540.535 89h-.744l.926-4.307c.156-.757.25-1.322.281-1.693z" fill="#333"/><path d="M550.795 88.268c.344.156.75.234 1.219.234.511 0 .978-.15 1.4-.451.422-.301.752-.712.99-1.233a4.038 4.038 0 0 0 .358-1.702c0-1.078-.383-1.618-1.149-1.618-.32 0-.651.145-.993.434-.342.289-.646.678-.914 1.166a5.361 5.361 0 0 0-.559 1.5m-.17-3.598h.75c0 .137-.026.4-.077.79-.05.392-.091.667-.123.828h.024c.648-1.176 1.404-1.764 2.267-1.764.543 0 .962.185 1.257.557.295.37.443.916.443 1.634a4.57 4.57 0 0 1-.484 2.083c-.322.643-.756 1.14-1.301 1.492a3.256 3.256 0 0 1-1.801.527 3.56 3.56 0 0 1-1.266-.23l-.609 2.884h-.739l1.465-6.926c.047-.242.091-.58.132-1.01.041-.432.062-.72.062-.865z" fill="#333"/><path d="M561.16 83.62a5.225 5.225 0 0 0-1.131-.122c-.531 0-1.01.144-1.435.434-.426.289-.763.699-1.011 1.23a4.089 4.089 0 0 0-.372 1.752c0 1.059.375 1.588 1.125 1.588.316 0 .64-.138.972-.413.332-.276.635-.665.909-1.17a5.878 5.878 0 0 0 .58-1.523M560.193 89c.016-.41.082-.95.199-1.617h-.023c-.359.633-.712 1.085-1.058 1.356a1.814 1.814 0 0 1-1.151.407c-.539 0-.958-.19-1.257-.571-.299-.381-.448-.917-.448-1.608 0-.746.161-1.445.483-2.095.323-.65.762-1.15 1.319-1.497a3.445 3.445 0 0 1 1.866-.522c.504 0 1.133.077 1.887.229l-.803 3.873c-.055.258-.11.609-.167 1.055a8.598 8.598 0 0 0-.085.99h-.762z" fill="#333"/><path d="M563.867 83h.732l-.199 1.37h.024c.265-.507.544-.887.835-1.14a1.489 1.489 0 0 1 1.004-.376 1.6 1.6 0 0 1 .627.123l-.134.79h-.024a1.177 1.177 0 0 0-.65-.204c-.426 0-.837.264-1.234.793-.396.53-.682 1.199-.858 2.007L563.428 89h-.739l.838-3.937c.184-.825.297-1.512.34-2.063z" fill="#333"/><path d="M567.816 85.783c1.164 0 2.021-.111 2.572-.334.551-.223.826-.572.826-1.05 0-.292-.098-.515-.295-.67-.198-.154-.474-.231-.83-.231-.531 0-1.009.214-1.435.64-.426.429-.705.977-.838 1.645zm-.1.943c0 .563.149.999.446 1.31.297.31.707.466 1.23.466.535 0 1.11-.18 1.723-.54l-.141.739a3.384 3.384 0 0 1-1.687.445c-.746 0-1.321-.218-1.723-.656-.402-.437-.603-1.051-.603-1.84 0-.676.145-1.307.436-1.895a3.564 3.564 0 0 1 1.181-1.392 2.775 2.775 0 0 1 1.599-.51c.543 0 .978.136 1.304.408.326.27.489.633.489 1.086 0 .692-.339 1.206-1.016 1.54-.678.337-1.753.513-3.226.529l-.012.31z" fill="#333"/><path d="M198.623 97.639h-1.049l.147-.64h1.031l.322-1.516.791-.24L199.49 97h1.565l-.147.639h-1.553l-.744 3.498c-.07.316-.105.574-.105.773 0 .196.041.338.123.428.082.09.219.135.41.135.184 0 .482-.092.897-.275l-.147.668a2.462 2.462 0 0 1-.478.172 1.912 1.912 0 0 1-.477.074c-.719 0-1.078-.371-1.078-1.114 0-.23.037-.507.111-.832l.756-3.527z" fill="#333"/><path d="M202.918 94.117h.732l-.943 4.44h.023c.715-1.135 1.514-1.704 2.397-1.704.5 0 .875.142 1.125.425.25.283.375.693.375 1.228 0 .054-.008.136-.023.246-.016.109-.04.259-.071.448-.031.189-.293 1.456-.785 3.8h-.744l.721-3.481c.097-.453.146-.761.146-.925 0-.731-.316-1.096-.949-1.096-.316 0-.66.132-1.031.395a3.878 3.878 0 0 0-.973 1.017 3.533 3.533 0 0 0-.545 1.242l-.609 2.848h-.744l1.898-8.883z" fill="#333"/><path d="M208.596 99.783c1.164 0 2.021-.111 2.572-.334.551-.223.826-.572.826-1.05 0-.292-.098-.515-.295-.67-.198-.154-.474-.231-.83-.231-.531 0-1.009.214-1.435.64-.426.429-.705.977-.838 1.645zm-.1.943c0 .563.149.999.446 1.31.297.31.707.466 1.23.466.535 0 1.11-.18 1.723-.54l-.141.739a3.384 3.384 0 0 1-1.687.445c-.746 0-1.321-.218-1.723-.656-.402-.437-.603-1.051-.603-1.84 0-.676.145-1.307.436-1.895a3.564 3.564 0 0 1 1.181-1.392 2.775 2.775 0 0 1 1.599-.51c.543 0 .978.136 1.304.408.326.27.489.633.489 1.086 0 .692-.339 1.206-1.016 1.54-.678.337-1.753.513-3.226.529l-.012.31z" fill="#333"/><path d="M217.906 97.639h-1.049l.147-.64h1.031l.322-1.516.791-.24-.375 1.757h1.565l-.147.639h-1.553l-.744 3.498c-.07.316-.105.574-.105.773 0 .196.041.338.123.428.082.09.219.135.41.135.184 0 .482-.092.897-.275l-.147.668a2.462 2.462 0 0 1-.478.172 1.912 1.912 0 0 1-.477.074c-.719 0-1.078-.371-1.078-1.114 0-.23.037-.507.111-.832l.756-3.527z" fill="#333"/><path d="M222.348 95.494a.508.508 0 0 1-.378-.161.531.531 0 0 1-.155-.378c0-.152.053-.276.158-.372a.537.537 0 0 1 .375-.144c.145 0 .27.048.375.144.105.096.158.22.158.372s-.054.28-.161.384a.52.52 0 0 1-.372.155zM221.545 97h.744l-.896 4.224c-.078.399-.117.674-.117.827 0 .277.15.416.451.416.18 0 .342-.028.486-.082l-.123.597a1.672 1.672 0 0 1-.627.117c-.304 0-.538-.08-.7-.237-.162-.158-.243-.39-.243-.694 0-.215.045-.537.135-.967l.89-4.201z" fill="#333"/><path d="M224.293 97h.721c-.055.418-.139.94-.252 1.57h.023c.711-1.144 1.475-1.716 2.291-1.716.485 0 .837.144 1.058.433.221.289.335.715.343 1.277.339-.543.712-.963 1.119-1.262.406-.3.822-.448 1.248-.448.941 0 1.412.542 1.412 1.628 0 .23-.059.629-.176 1.196l-.709 3.322h-.732l.715-3.48c.097-.45.146-.776.146-.98 0-.694-.287-1.042-.861-1.042-.285 0-.599.127-.941.38a3.97 3.97 0 0 0-.931 1.015c-.28.42-.464.832-.554 1.23l-.609 2.877h-.745l.727-3.48c.098-.45.146-.758.146-.926 0-.731-.287-1.096-.861-1.096-.285 0-.6.129-.946.387a4.02 4.02 0 0 0-.941 1.028c-.281.428-.462.837-.545 1.228L223.83 103h-.744l.926-4.307c.156-.757.25-1.322.281-1.693z" fill="#333"/><path d="M234.225 99.783c1.164 0 2.021-.111 2.572-.334.551-.223.826-.572.826-1.05 0-.292-.098-.515-.295-.67-.198-.154-.474-.231-.83-.231-.531 0-1.009.214-1.435.64-.426.429-.705.977-.838 1.645zm-.1.943c0 .563.149.999.446 1.31.297.31.707.466 1.23.466.535 0 1.11-.18 1.723-.54l-.141.739a3.384 3.384 0 0 1-1.687.445c-.746 0-1.321-.218-1.723-.656-.402-.437-.603-1.051-.603-1.84 0-.676.145-1.307.436-1.895a3.564 3.564 0 0 1 1.181-1.392 2.775 2.775 0 0 1 1.599-.51c.543 0 .978.136 1.304.408.326.27.489.633.489 1.086 0 .692-.339 1.206-1.016 1.54-.678.337-1.753.513-3.226.529l-.012.31z" fill="#333"/><path d="M242.193 102.027c.184.137.413.25.688.34.276.09.539.135.789.135.429 0 .756-.087.981-.261.225-.174.337-.43.337-.765 0-.23-.07-.428-.211-.595-.141-.166-.396-.362-.768-.588-.418-.25-.721-.502-.911-.756a1.452 1.452 0 0 1-.284-.891c0-.515.19-.943.568-1.283.379-.34.872-.51 1.477-.51a3.9 3.9 0 0 1 .727.076c.261.05.492.125.691.223l-.152.72a2.347 2.347 0 0 0-1.301-.374c-.379 0-.683.098-.911.296a.968.968 0 0 0-.343.77c0 .23.062.43.187.598.125.168.375.363.75.586.454.277.773.542.958.794.186.252.279.54.279.864 0 .53-.194.954-.58 1.268-.387.315-.914.472-1.582.472-.27 0-.546-.036-.829-.108a2.704 2.704 0 0 1-.712-.28l.152-.731z" fill="#333"/><path d="M247.795 102.268c.344.156.75.234 1.219.234.511 0 .978-.15 1.4-.451.422-.301.752-.712.99-1.233a4.038 4.038 0 0 0 .358-1.702c0-1.078-.383-1.618-1.149-1.618-.32 0-.651.145-.993.434-.342.289-.646.678-.914 1.166a5.361 5.361 0 0 0-.559 1.5m-.17-3.598h.75c0 .137-.026.4-.077.79-.05.392-.091.667-.123.828h.024c.648-1.176 1.404-1.764 2.267-1.764.543 0 .962.185 1.257.557.295.37.443.916.443 1.634a4.57 4.57 0 0 1-.484 2.083c-.322.643-.756 1.14-1.301 1.492a3.256 3.256 0 0 1-1.801.527 3.56 3.56 0 0 1-1.266-.23l-.609 2.884h-.739l1.465-6.926c.047-.242.091-.58.132-1.01.041-.432.062-.72.062-.865z" fill="#333"/><path d="M254.31 99.783c1.164 0 2.021-.111 2.572-.334.551-.223.826-.572.826-1.05 0-.292-.098-.515-.295-.67-.198-.154-.474-.231-.83-.231-.531 0-1.009.214-1.435.64-.426.429-.705.977-.838 1.645zm-.1.943c0 .563.149.999.446 1.31.297.31.707.466 1.23.466.535 0 1.11-.18 1.723-.54l-.141.739a3.384 3.384 0 0 1-1.687.445c-.746 0-1.321-.218-1.723-.656-.402-.437-.603-1.051-.603-1.84 0-.676.145-1.307.436-1.895a3.564 3.564 0 0 1 1.181-1.392 2.775 2.775 0 0 1 1.599-.51c.543 0 .978.136 1.304.408.326.27.489.633.489 1.086 0 .692-.339 1.206-1.016 1.54-.678.337-1.753.513-3.226.529l-.012.31z" fill="#333"/><path d="M260.24 97h.721c-.055.418-.139.94-.252 1.57h.023c.34-.55.717-.974 1.131-1.271.414-.297.84-.445 1.277-.445 1.004 0 1.506.542 1.506 1.628 0 .215-.062.614-.187 1.196l-.703 3.322h-.739l.721-3.48c.094-.477.141-.786.141-.926 0-.731-.315-1.096-.944-1.096-.312 0-.654.132-1.025.396a3.934 3.934 0 0 0-.976 1.013 3.48 3.48 0 0 0-.548 1.234l-.609 2.859h-.744l.926-4.307c.109-.543.203-1.107.281-1.693z" fill="#333"/><path d="M266.92 97.639h-1.049l.147-.64h1.031l.322-1.516.791-.24-.375 1.757h1.565l-.147.639h-1.553l-.744 3.498c-.07.316-.105.574-.105.773 0 .196.041.338.123.428.082.09.219.135.41.135.184 0 .482-.092.897-.275l-.147.668a2.462 2.462 0 0 1-.478.172 1.912 1.912 0 0 1-.477.074c-.719 0-1.078-.371-1.078-1.114 0-.23.037-.507.111-.832l.756-3.527z" fill="#333"/><path d="M274.988 102.502c.441 0 .848-.145 1.219-.434.371-.29.661-.683.87-1.183.209-.5.313-1.047.313-1.641 0-.566-.13-1-.389-1.298-.26-.298-.617-.448-1.07-.448-.668 0-1.235.314-1.702.94-.467.627-.7 1.4-.7 2.318 0 .547.131.975.393 1.283.261.309.617.463 1.066.463zm-.053.645c-.668 0-1.195-.207-1.582-.62-.386-.411-.58-.986-.58-1.724 0-.727.138-1.394.413-2.001.276-.608.662-1.084 1.16-1.43a2.818 2.818 0 0 1 1.644-.518c.664 0 1.189.208 1.576.624.387.416.58.987.58 1.713 0 .739-.137 1.412-.413 2.019-.275.607-.658 1.082-1.148 1.424a2.818 2.818 0 0 1-1.65.513z" fill="#333"/><path d="M280.156 97h.721c-.055.418-.139.94-.252 1.57h.023c.34-.55.717-.974 1.131-1.271.414-.297.84-.445 1.277-.445 1.004 0 1.506.542 1.506 1.628 0 .215-.062.614-.187 1.196l-.703 3.322h-.739l.721-3.48c.094-.477.141-.786.141-.926 0-.731-.315-1.096-.944-1.096-.312 0-.654.132-1.025.396a3.934 3.934 0 0 0-.976 1.013 3.48 3.48 0 0 0-.548 1.234l-.609 2.859h-.744l.926-4.307c.109-.543.203-1.107.281-1.693z" fill="#333"/><path d="M290.727 94.598h.779L289.725 103h-.773l1.775-8.402z" fill="#333"/><path d="M296.586 94.598h.773l-6.099 9.797h-.768l6.094-9.797z" fill="#333"/><path d="M300.412 102.449c.703 0 1.329-.184 1.878-.551.549-.367.981-.9 1.298-1.6.316-.7.474-1.445.474-2.238 0-.898-.234-1.608-.703-2.13-.468-.521-1.097-.782-1.886-.782a3.32 3.32 0 0 0-1.89.572c-.568.38-1.009.91-1.321 1.59a5.274 5.274 0 0 0-.469 2.233c0 .902.233 1.612.7 2.13.467.517 1.106.776 1.919.776zm-.035.697c-1.035 0-1.858-.331-2.467-.993-.609-.662-.914-1.532-.914-2.61 0-.957.198-1.823.595-2.6.396-.774.938-1.383 1.626-1.824a4.173 4.173 0 0 1 2.302-.662c1.012 0 1.823.329 2.432.987.609.658.914 1.519.914 2.58 0 .943-.191 1.809-.574 2.6-.383.79-.915 1.409-1.597 1.854-.681.446-1.454.668-2.317.668z" fill="#333"/><path d="M306.031 101.67h.779l-1.289 2.824h-.615l1.125-2.824z" fill="#333"/><path d="M311.416 102.027c.184.137.413.25.688.34.276.09.539.135.789.135.429 0 .756-.087.981-.261.225-.174.337-.43.337-.765 0-.23-.07-.428-.211-.595-.141-.166-.396-.362-.768-.588-.418-.25-.721-.502-.911-.756a1.452 1.452 0 0 1-.284-.891c0-.515.19-.943.568-1.283.379-.34.872-.51 1.477-.51a3.9 3.9 0 0 1 .727.076c.261.05.492.125.691.223l-.152.72a2.347 2.347 0 0 0-1.301-.374c-.379 0-.683.098-.911.296a.968.968 0 0 0-.343.77c0 .23.062.43.187.598.125.168.375.363.75.586.454.277.773.542.958.794.186.252.279.54.279.864 0 .53-.194.954-.58 1.268-.387.315-.914.472-1.582.472-.27 0-.546-.036-.829-.108a2.704 2.704 0 0 1-.712-.28l.152-.731z" fill="#333"/><path d="M315.014 105.039c.125.07.279.105.463.105.281 0 .534-.082.759-.246.224-.164.444-.418.659-.761l.756-1.19L316.578 97h.756l.785 4.74.041.45h.024l.158-.31 2.906-4.88h.832l-4.347 7.06c-.418.668-.8 1.128-1.146 1.38a1.95 1.95 0 0 1-1.18.378c-.219 0-.399-.03-.539-.088l.146-.691z" fill="#333"/><path d="M321.717 102.027c.184.137.413.25.688.34.276.09.539.135.789.135.429 0 .756-.087.981-.261.225-.174.337-.43.337-.765 0-.23-.07-.428-.211-.595-.141-.166-.396-.362-.768-.588-.418-.25-.721-.502-.911-.756a1.452 1.452 0 0 1-.284-.891c0-.515.19-.943.568-1.283.379-.34.872-.51 1.477-.51a3.9 3.9 0 0 1 .727.076c.261.05.492.125.691.223l-.152.72a2.347 2.347 0 0 0-1.301-.374c-.379 0-.683.098-.911.296a.968.968 0 0 0-.343.77c0 .23.062.43.187.598.125.168.375.363.75.586.454.277.773.542.958.794.186.252.279.54.279.864 0 .53-.194.954-.58 1.268-.387.315-.914.472-1.582.472-.27 0-.546-.036-.829-.108a2.704 2.704 0 0 1-.712-.28l.152-.731z" fill="#333"/><path d="M327.752 97.639h-1.049l.147-.64h1.031l.322-1.516.791-.24-.375 1.757h1.565l-.147.639h-1.553l-.744 3.498c-.07.316-.105.574-.105.773 0 .196.041.338.123.428.082.09.219.135.41.135.184 0 .482-.092.897-.275l-.147.668a2.462 2.462 0 0 1-.478.172 1.912 1.912 0 0 1-.477.074c-.719 0-1.078-.371-1.078-1.114 0-.23.037-.507.111-.832l.756-3.527z" fill="#333"/><path d="M331.162 99.783c1.164 0 2.021-.111 2.572-.334.551-.223.826-.572.826-1.05 0-.292-.098-.515-.295-.67-.198-.154-.474-.231-.83-.231-.531 0-1.009.214-1.435.64-.426.429-.705.977-.838 1.645zm-.1.943c0 .563.149.999.446 1.31.297.31.707.466 1.23.466.535 0 1.11-.18 1.723-.54l-.141.739a3.384 3.384 0 0 1-1.687.445c-.746 0-1.321-.218-1.723-.656-.402-.437-.603-1.051-.603-1.84 0-.676.145-1.307.436-1.895a3.564 3.564 0 0 1 1.181-1.392 2.775 2.775 0 0 1 1.599-.51c.543 0 .978.136 1.304.408.326.27.489.633.489 1.086 0 .692-.339 1.206-1.016 1.54-.678.337-1.753.513-3.226.529l-.012.31z" fill="#333"/><path d="M337.068 97h.721c-.055.418-.139.94-.252 1.57h.023c.711-1.144 1.475-1.716 2.291-1.716.485 0 .837.144 1.058.433.221.289.335.715.343 1.277.339-.543.712-.963 1.119-1.262.406-.3.822-.448 1.248-.448.941 0 1.412.542 1.412 1.628 0 .23-.059.629-.176 1.196l-.709 3.322h-.732l.715-3.48c.097-.45.146-.776.146-.98 0-.694-.287-1.042-.861-1.042-.285 0-.599.127-.941.38a3.97 3.97 0 0 0-.931 1.015c-.28.42-.464.832-.554 1.23l-.609 2.877h-.745l.727-3.48c.098-.45.146-.758.146-.926 0-.731-.287-1.096-.861-1.096-.285 0-.6.129-.946.387a4.02 4.02 0 0 0-.941 1.028c-.281.428-.462.837-.545 1.228l-.609 2.859h-.744l.926-4.307c.156-.757.25-1.322.281-1.693z" fill="#333"/><path d="M351.57 103.147c-.664 0-1.185-.216-1.562-.647-.376-.432-.565-1.021-.565-1.767 0-.711.142-1.366.425-1.966.283-.6.677-1.068 1.181-1.406a2.92 2.92 0 0 1 1.664-.507c.566 0 1.043.133 1.429.398l-.176.762c-.351-.344-.796-.515-1.335-.515-.457 0-.874.144-1.251.433-.377.289-.671.682-.882 1.178a3.983 3.983 0 0 0-.317 1.576c0 .578.133 1.025.399 1.342.265.316.635.474 1.107.474.481 0 .998-.201 1.553-.603l-.176.809a4.208 4.208 0 0 1-.791.345 2.49 2.49 0 0 1-.703.094z" fill="#333"/><path d="M359.205 97.62a5.225 5.225 0 0 0-1.131-.122c-.531 0-1.01.144-1.435.434-.426.289-.763.699-1.011 1.23a4.089 4.089 0 0 0-.372 1.752c0 1.059.375 1.588 1.125 1.588.316 0 .64-.138.972-.413.332-.276.635-.665.909-1.17a5.878 5.878 0 0 0 .58-1.523m-.604 3.604c.016-.41.082-.95.199-1.617h-.023c-.359.633-.712 1.085-1.058 1.356a1.814 1.814 0 0 1-1.151.407c-.539 0-.958-.19-1.257-.571-.299-.381-.448-.917-.448-1.608 0-.746.161-1.445.483-2.095.323-.65.762-1.15 1.319-1.497a3.445 3.445 0 0 1 1.866-.522c.504 0 1.133.077 1.887.229l-.803 3.873c-.055.258-.11.609-.167 1.055a8.598 8.598 0 0 0-.085.99h-.762z" fill="#333"/><path d="M362.58 94.117h.744l-1.512 7.107c-.078.399-.117.674-.117.827 0 .277.151.416.451.416.18 0 .342-.028.487-.082l-.123.597a1.68 1.68 0 0 1-.627.117c-.305 0-.538-.08-.7-.237-.163-.158-.244-.39-.244-.694 0-.242.045-.565.135-.967l1.506-7.084z" fill="#333"/><path d="M365.363 94.117h.744l-1.512 7.107c-.078.399-.117.674-.117.827 0 .277.151.416.451.416.18 0 .342-.028.487-.082l-.123.597a1.68 1.68 0 0 1-.627.117c-.305 0-.538-.08-.7-.237-.163-.158-.244-.39-.244-.694 0-.242.045-.565.135-.967l1.506-7.084z" fill="#333"/><path d="M366.26 102.027c.184.137.413.25.688.34.276.09.539.135.789.135.429 0 .756-.087.981-.261.225-.174.337-.43.337-.765 0-.23-.07-.428-.211-.595-.141-.166-.396-.362-.768-.588-.418-.25-.721-.502-.911-.756a1.452 1.452 0 0 1-.284-.891c0-.515.19-.943.568-1.283.379-.34.872-.51 1.477-.51a3.9 3.9 0 0 1 .727.076c.261.05.492.125.691.223l-.152.72a2.347 2.347 0 0 0-1.301-.374c-.379 0-.683.098-.911.296a.968.968 0 0 0-.343.77c0 .23.062.43.187.598.125.168.375.363.75.586.454.277.773.542.958.794.186.252.279.54.279.864 0 .53-.194.954-.58 1.268-.387.315-.914.472-1.582.472-.27 0-.546-.036-.829-.108a2.704 2.704 0 0 1-.712-.28l.152-.731z" fill="#333"/><path d="M371.51 101.67h.779L371 104.494h-.615l1.125-2.824z" fill="#333"/><path d="M378.236 97.639h-1.049l.147-.64h1.031l.322-1.516.791-.24-.375 1.757h1.565l-.147.639h-1.553l-.744 3.498c-.07.316-.105.574-.105.773 0 .196.041.338.123.428.082.09.219.135.41.135.184 0 .482-.092.897-.275l-.147.668a2.462 2.462 0 0 1-.478.172 1.912 1.912 0 0 1-.477.074c-.719 0-1.078-.371-1.078-1.114 0-.23.037-.507.111-.832l.756-3.527z" fill="#333"/><path d="M385.496 97.62a5.225 5.225 0 0 0-1.131-.122c-.531 0-1.01.144-1.435.434-.426.289-.763.699-1.011 1.23a4.089 4.089 0 0 0-.372 1.752c0 1.059.375 1.588 1.125 1.588.316 0 .64-.138.972-.413.332-.276.635-.665.909-1.17a5.878 5.878 0 0 0 .58-1.523m-.604 3.604c.016-.41.082-.95.199-1.617h-.023c-.359.633-.712 1.085-1.058 1.356a1.814 1.814 0 0 1-1.151.407c-.539 0-.958-.19-1.257-.571-.299-.381-.448-.917-.448-1.608 0-.746.161-1.445.483-2.095.323-.65.762-1.15 1.319-1.497a3.445 3.445 0 0 1 1.866-.522c.504 0 1.133.077 1.887.229l-.803 3.873c-.055.258-.11.609-.167 1.055a8.598 8.598 0 0 0-.085.99h-.762z" fill="#333"/><path d="M388.871 94.117h.744l-1.512 7.107c-.078.399-.117.674-.117.827 0 .277.151.416.451.416.18 0 .342-.028.487-.082l-.123.597a1.68 1.68 0 0 1-.627.117c-.305 0-.538-.08-.7-.237-.163-.158-.244-.39-.244-.694 0-.242.045-.565.135-.967l1.506-7.084z" fill="#333"/><path d="M391.695 94.117h.732l-1.189 5.578h.023L394.437 97h.99l-3.439 2.865 2.25 3.135h-.879l-2.139-3.1h-.023l-.656 3.1h-.744l1.898-8.883z" fill="#333"/><path d="M397.367 95.494a.508.508 0 0 1-.378-.161.531.531 0 0 1-.155-.378c0-.152.053-.276.158-.372a.537.537 0 0 1 .375-.144c.145 0 .27.048.375.144.105.096.158.22.158.372s-.054.28-.161.384a.52.52 0 0 1-.372.155zM396.564 97h.744l-.896 4.224c-.078.399-.117.674-.117.827 0 .277.15.416.451.416.18 0 .342-.028.486-.082l-.123.597a1.672 1.672 0 0 1-.627.117c-.304 0-.538-.08-.7-.237-.162-.158-.243-.39-.243-.694 0-.215.045-.537.135-.967l.89-4.201z" fill="#333"/><path d="M399.336 97h.721c-.055.418-.139.94-.252 1.57h.023c.34-.55.717-.974 1.131-1.271.414-.297.84-.445 1.277-.445 1.004 0 1.506.542 1.506 1.628 0 .215-.062.614-.187 1.196l-.703 3.322h-.739l.721-3.48c.094-.477.141-.786.141-.926 0-.731-.315-1.096-.944-1.096-.312 0-.654.132-1.025.396a3.934 3.934 0 0 0-.976 1.013 3.48 3.48 0 0 0-.548 1.234l-.609 2.859h-.744l.926-4.307c.109-.543.203-1.107.281-1.693z" fill="#333"/><path d="M409.566 97.62a5.128 5.128 0 0 0-1.184-.122c-.507 0-.973.145-1.397.436-.424.29-.758.7-1.002 1.225a4.033 4.033 0 0 0-.366 1.72c0 1.082.365 1.623 1.095 1.623.34 0 .681-.144 1.023-.431.342-.287.645-.681.911-1.183a5.8 5.8 0 0 0 .557-1.486m-4.84 5.262c.57.332 1.119.498 1.646.498.664 0 1.194-.187 1.588-.56.395-.373.692-.991.891-1.854l.299-1.348h-.024c-.34.594-.681 1.034-1.025 1.319a1.78 1.78 0 0 1-1.166.427c-.539 0-.959-.187-1.26-.562-.301-.375-.451-.92-.451-1.635 0-.746.157-1.434.472-2.065a3.714 3.714 0 0 1 1.303-1.49 3.294 3.294 0 0 1 1.834-.541c.27 0 .594.023.973.068.379.045.703.096.973.155l-1.166 5.496c-.254 1.168-.646 2-1.175 2.499-.53.498-1.251.747-2.165.747a3.48 3.48 0 0 1-1.688-.433l.141-.721z" fill="#333"/><path d="M415.695 97.639h-1.049l.147-.64h1.031l.322-1.516.791-.24-.375 1.757h1.565l-.147.639h-1.553l-.744 3.498c-.07.316-.105.574-.105.773 0 .196.041.338.123.428.082.09.219.135.41.135.184 0 .482-.092.897-.275l-.147.668a2.462 2.462 0 0 1-.478.172 1.912 1.912 0 0 1-.477.074c-.719 0-1.078-.371-1.078-1.114 0-.23.037-.507.111-.832l.756-3.527z" fill="#333"/><path d="M420.465 102.502c.441 0 .848-.145 1.219-.434.371-.29.661-.683.87-1.183.209-.5.313-1.047.313-1.641 0-.566-.13-1-.389-1.298-.26-.298-.617-.448-1.07-.448-.668 0-1.235.314-1.702.94-.467.627-.7 1.4-.7 2.318 0 .547.131.975.393 1.283.261.309.617.463 1.066.463zm-.053.645c-.668 0-1.195-.207-1.582-.62-.386-.411-.58-.986-.58-1.724 0-.727.138-1.394.413-2.001.276-.608.662-1.084 1.16-1.43a2.818 2.818 0 0 1 1.644-.518c.664 0 1.189.208 1.576.624.387.416.58.987.58 1.713 0 .739-.137 1.412-.413 2.019-.275.607-.658 1.082-1.148 1.424a2.818 2.818 0 0 1-1.65.513z" fill="#333"/><path d="M428.891 97h.732l-.199 1.37h.024c.265-.507.544-.887.835-1.14a1.489 1.489 0 0 1 1.004-.376 1.6 1.6 0 0 1 .627.123l-.134.79h-.024a1.177 1.177 0 0 0-.65-.204c-.426 0-.837.264-1.234.793-.396.53-.682 1.199-.858 2.007l-.562 2.637h-.739l.838-3.937c.184-.825.297-1.512.34-2.063z" fill="#333"/><path d="M432.84 99.783c1.164 0 2.021-.111 2.572-.334.551-.223.826-.572.826-1.05 0-.292-.098-.515-.295-.67-.198-.154-.474-.231-.83-.231-.531 0-1.009.214-1.435.64-.426.429-.705.977-.838 1.645zm-.1.943c0 .563.149.999.446 1.31.297.31.707.466 1.23.466.535 0 1.11-.18 1.723-.54l-.141.739a3.384 3.384 0 0 1-1.687.445c-.746 0-1.321-.218-1.723-.656-.402-.437-.603-1.051-.603-1.84 0-.676.145-1.307.436-1.895a3.564 3.564 0 0 1 1.181-1.392 2.775 2.775 0 0 1 1.599-.51c.543 0 .978.136 1.304.408.326.27.489.633.489 1.086 0 .692-.339 1.206-1.016 1.54-.678.337-1.753.513-3.226.529l-.012.31z" fill="#333"/><path d="M438.746 97h.721c-.055.418-.139.94-.252 1.57h.023c.711-1.144 1.475-1.716 2.291-1.716.485 0 .837.144 1.058.433.221.289.335.715.343 1.277.339-.543.712-.963 1.119-1.262.406-.3.822-.448 1.248-.448.941 0 1.412.542 1.412 1.628 0 .23-.059.629-.176 1.196l-.709 3.322h-.732l.715-3.48c.097-.45.146-.776.146-.98 0-.694-.287-1.042-.861-1.042-.285 0-.599.127-.941.38a3.97 3.97 0 0 0-.931 1.015c-.28.42-.464.832-.554 1.23l-.609 2.877h-.745l.727-3.48c.098-.45.146-.758.146-.926 0-.731-.287-1.096-.861-1.096-.285 0-.6.129-.946.387a4.02 4.02 0 0 0-.941 1.028c-.281.428-.462.837-.545 1.228l-.609 2.859h-.744l.926-4.307c.156-.757.25-1.322.281-1.693z" fill="#333"/><path d="M450.037 102.502c.441 0 .848-.145 1.219-.434.371-.29.661-.683.87-1.183.209-.5.313-1.047.313-1.641 0-.566-.13-1-.389-1.298-.26-.298-.617-.448-1.07-.448-.668 0-1.235.314-1.702.94-.467.627-.7 1.4-.7 2.318 0 .547.131.975.393 1.283.261.309.617.463 1.066.463zm-.053.645c-.668 0-1.195-.207-1.582-.62-.386-.411-.58-.986-.58-1.724 0-.727.138-1.394.413-2.001.276-.608.662-1.084 1.16-1.43a2.818 2.818 0 0 1 1.644-.518c.664 0 1.189.208 1.576.624.387.416.58.987.58 1.713 0 .739-.137 1.412-.413 2.019-.275.607-.658 1.082-1.148 1.424a2.818 2.818 0 0 1-1.65.513z" fill="#333"/><path d="M455.287 97.639h-1.049l.147-.64h1.031l.322-1.516.791-.24-.375 1.757h1.565l-.147.639h-1.553l-.744 3.498c-.07.316-.105.574-.105.773 0 .196.041.338.123.428.082.09.219.135.41.135.184 0 .482-.092.897-.275l-.147.668a2.462 2.462 0 0 1-.478.172 1.912 1.912 0 0 1-.477.074c-.719 0-1.078-.371-1.078-1.114 0-.23.037-.507.111-.832l.756-3.527z" fill="#333"/><path d="M458.697 99.783c1.164 0 2.021-.111 2.572-.334.551-.223.826-.572.826-1.05 0-.292-.098-.515-.295-.67-.198-.154-.474-.231-.83-.231-.531 0-1.009.214-1.435.64-.426.429-.705.977-.838 1.645zm-.1.943c0 .563.149.999.446 1.31.297.31.707.466 1.23.466.535 0 1.11-.18 1.723-.54l-.141.739a3.384 3.384 0 0 1-1.687.445c-.746 0-1.321-.218-1.723-.656-.402-.437-.603-1.051-.603-1.84 0-.676.145-1.307.436-1.895a3.564 3.564 0 0 1 1.181-1.392 2.775 2.775 0 0 1 1.599-.51c.543 0 .978.136 1.304.408.326.27.489.633.489 1.086 0 .692-.339 1.206-1.016 1.54-.678.337-1.753.513-3.226.529l-.012.31z" fill="#333"/><path d="M466.666 102.027c.184.137.413.25.688.34.276.09.539.135.789.135.429 0 .756-.087.981-.261.225-.174.337-.43.337-.765 0-.23-.07-.428-.211-.595-.141-.166-.396-.362-.768-.588-.418-.25-.721-.502-.911-.756a1.452 1.452 0 0 1-.284-.891c0-.515.19-.943.568-1.283.379-.34.872-.51 1.477-.51a3.9 3.9 0 0 1 .727.076c.261.05.492.125.691.223l-.152.72a2.347 2.347 0 0 0-1.301-.374c-.379 0-.683.098-.911.296a.968.968 0 0 0-.343.77c0 .23.062.43.187.598.125.168.375.363.75.586.454.277.773.542.958.794.186.252.279.54.279.864 0 .53-.194.954-.58 1.268-.387.315-.914.472-1.582.472-.27 0-.546-.036-.829-.108a2.704 2.704 0 0 1-.712-.28l.152-.731z" fill="#333"/><path d="M472.402 99.783c1.164 0 2.021-.111 2.572-.334.551-.223.826-.572.826-1.05 0-.292-.098-.515-.295-.67-.198-.154-.474-.231-.83-.231-.531 0-1.009.214-1.435.64-.426.429-.705.977-.838 1.645zm-.1.943c0 .563.149.999.446 1.31.297.31.707.466 1.23.466.535 0 1.11-.18 1.723-.54l-.141.739a3.384 3.384 0 0 1-1.687.445c-.746 0-1.321-.218-1.723-.656-.402-.437-.603-1.051-.603-1.84 0-.676.145-1.307.436-1.895a3.564 3.564 0 0 1 1.181-1.392 2.775 2.775 0 0 1 1.599-.51c.543 0 .978.136 1.304.408.326.27.489.633.489 1.086 0 .692-.339 1.206-1.016 1.54-.678.337-1.753.513-3.226.529l-.012.31z" fill="#333"/><path d="M478.291 97h.732l-.199 1.37h.024c.265-.507.544-.887.835-1.14a1.489 1.489 0 0 1 1.004-.376 1.6 1.6 0 0 1 .627.123l-.134.79h-.024a1.177 1.177 0 0 0-.65-.204c-.426 0-.837.264-1.234.793-.396.53-.682 1.199-.858 2.007l-.562 2.637h-.739l.838-3.937c.184-.825.297-1.512.34-2.063z" fill="#333"/><path d="M481.725 97h.744l.668 4.295c.047.309.07.586.07.832h.024a6.55 6.55 0 0 1 .351-.703L486.143 97h.838l-3.615 6h-.639l-1.002-6z" fill="#333"/><path d="M487.789 99.783c1.164 0 2.021-.111 2.572-.334.551-.223.826-.572.826-1.05 0-.292-.098-.515-.295-.67-.198-.154-.474-.231-.83-.231-.531 0-1.009.214-1.435.64-.426.429-.705.977-.838 1.645zm-.1.943c0 .563.149.999.446 1.31.297.31.707.466 1.23.466.535 0 1.11-.18 1.723-.54l-.141.739a3.384 3.384 0 0 1-1.687.445c-.746 0-1.321-.218-1.723-.656-.402-.437-.603-1.051-.603-1.84 0-.676.145-1.307.436-1.895a3.564 3.564 0 0 1 1.181-1.392 2.775 2.775 0 0 1 1.599-.51c.543 0 .978.136 1.304.408.326.27.489.633.489 1.086 0 .692-.339 1.206-1.016 1.54-.678.337-1.753.513-3.226.529l-.012.31z" fill="#333"/><path d="M493.678 97h.732l-.199 1.37h.024c.265-.507.544-.887.835-1.14a1.489 1.489 0 0 1 1.004-.376 1.6 1.6 0 0 1 .627.123l-.134.79h-.024a1.177 1.177 0 0 0-.65-.204c-.426 0-.837.264-1.234.793-.396.53-.682 1.199-.858 2.007l-.562 2.637h-.739l.838-3.937c.184-.825.297-1.512.34-2.063z" fill="#333"/><path d="M496.584 102.027c.184.137.413.25.688.34.276.09.539.135.789.135.429 0 .756-.087.981-.261.225-.174.337-.43.337-.765 0-.23-.07-.428-.211-.595-.141-.166-.396-.362-.768-.588-.418-.25-.721-.502-.911-.756a1.452 1.452 0 0 1-.284-.891c0-.515.19-.943.568-1.283.379-.34.872-.51 1.477-.51a3.9 3.9 0 0 1 .727.076c.261.05.492.125.691.223l-.152.72a2.347 2.347 0 0 0-1.301-.374c-.379 0-.683.098-.911.296a.968.968 0 0 0-.343.77c0 .23.062.43.187.598.125.168.375.363.75.586.454.277.773.542.958.794.186.252.279.54.279.864 0 .53-.194.954-.58 1.268-.387.315-.914.472-1.582.472-.27 0-.546-.036-.829-.108a2.704 2.704 0 0 1-.712-.28l.152-.731z" fill="#333"/><path d="M505.619 99.783c1.164 0 2.021-.111 2.572-.334.551-.223.826-.572.826-1.05 0-.292-.098-.515-.295-.67-.198-.154-.474-.231-.83-.231-.531 0-1.009.214-1.435.64-.426.429-.705.977-.838 1.645zm-.1.943c0 .563.149.999.446 1.31.297.31.707.466 1.23.466.535 0 1.11-.18 1.723-.54l-.141.739a3.384 3.384 0 0 1-1.687.445c-.746 0-1.321-.218-1.723-.656-.402-.437-.603-1.051-.603-1.84 0-.676.145-1.307.436-1.895a3.564 3.564 0 0 1 1.181-1.392 2.775 2.775 0 0 1 1.599-.51c.543 0 .978.136 1.304.408.326.27.489.633.489 1.086 0 .692-.339 1.206-1.016 1.54-.678.337-1.753.513-3.226.529l-.012.31z" fill="#333"/><path d="M511.631 97.639h-1.049l.147-.64h1.031l.322-1.516.791-.24-.375 1.757h1.565l-.147.639h-1.553l-.744 3.498c-.07.316-.105.574-.105.773 0 .196.041.338.123.428.082.09.219.135.41.135.184 0 .482-.092.897-.275l-.147.668a2.462 2.462 0 0 1-.478.172 1.912 1.912 0 0 1-.477.074c-.719 0-1.078-.371-1.078-1.114 0-.23.037-.507.111-.832l.756-3.527z" fill="#333"/><path d="M516.312 103.147c-.664 0-1.185-.216-1.562-.647-.376-.432-.565-1.021-.565-1.767 0-.711.142-1.366.425-1.966.283-.6.677-1.068 1.181-1.406a2.92 2.92 0 0 1 1.664-.507c.566 0 1.043.133 1.429.398l-.176.762c-.351-.344-.796-.515-1.335-.515-.457 0-.874.144-1.251.433-.377.289-.671.682-.882 1.178a3.983 3.983 0 0 0-.317 1.576c0 .578.133 1.025.399 1.342.265.316.635.474 1.107.474.481 0 .998-.201 1.553-.603l-.176.809a4.208 4.208 0 0 1-.791.345 2.49 2.49 0 0 1-.703.094z" fill="#333"/><path d="M519.582 103.117a.534.534 0 0 1-.381-.158.532.532 0 0 1-.164-.4c0-.155.053-.286.158-.391a.526.526 0 0 1 .387-.158.55.55 0 0 1 .398.158.52.52 0 0 1 .165.392.532.532 0 0 1-.167.393.55.55 0 0 1-.396.164z" fill="#333"/><path d="M198 20h52v51h-52V20z" fill="#FFF"/><path d="M200 22h48v47h-48V22z" fill="#E59F44"/><path d="M234.721 48.16l-2.521 8.69c-.18.07-5.1 2.93-10.229-.64l2.539-8.68c5.15 3.57 10.11.67 10.211.63zm-12.111-5.17l2.531-8.68c-5.601-3-9.341.1-9.341.1l-2.52 8.69s3.73-3.1 9.33-.11zm2.66 1.93c5.16 3.56 10.131.65 10.211.62L238 36.85s-5.009 2.95-10.2-.61m-5.95 9.37c-5.59-2.99-9.33.111-9.33.111l-2.52 8.69s3.731-3.09 9.321-.12l2.529-8.682z" fill="#FFF"/><path d="M328 20h51v51h-51V20z" fill="#FFF"/><path d="M330 22h47v47h-47V22z" fill="#FA6663"/><path d="M348.5 44c-1.1 0-2 .9-2 2s.9 2 2 2 2-.9 2-2-.9-2-2-2z" fill="#FFF"/><path d="M348.5 41h-4l-5 5 5 5h4l-5-5 5-5z" fill="#FFF"/><path d="M362.5 41h-4l5 5-5 5h4l5-5-5-5z" fill="#FFF"/><path d="M353.5 44c-1.1 0-2 .9-2 2s.9 2 2 2 2-.9 2-2-.9-2-2-2z" fill="#FFF"/><path d="M360.5 46c0-1.1-.9-2-2-2s-2 .9-2 2 .9 2 2 2 2-.9 2-2z" fill="#FFF"/><path d="M453 20h41v51h-41V20z" fill="#FFF"/><path d="M455 22h37v47h-37V22z" fill="#93B364"/><path d="M483.43 48.71c-.14.41-.3.81-.49 1.2l2.031 4.27a14.25 14.25 0 0 1-2.281 2.291l-4.28-2.041c-.39.2-.79.36-1.2.5l-1.59 4.47c-.54.06-1.07.1-1.62.1-.54 0-1.08-.04-1.609-.1l-1.591-4.47c-.42-.14-.819-.3-1.2-.491l-4.279 2.032a13.913 13.913 0 0 1-2.291-2.291l2.031-4.27c-.191-.39-.351-.79-.49-1.2l-4.471-1.601c-.06-.529-.1-1.06-.1-1.609 0-.55.04-1.08.1-1.609l4.471-1.601c.139-.41.299-.81.49-1.2l-2.031-4.27c.671-.85 1.441-1.62 2.291-2.29l4.279 2.03c.381-.19.78-.35 1.2-.49l1.591-4.47c.529-.06 1.069-.1 1.609-.1.55 0 1.08.04 1.62.1l1.59 4.47c.41.14.81.3 1.2.5l4.28-2.04c.84.67 1.61 1.44 2.281 2.29l-2.031 4.27c.19.39.35.79.49 1.2l4.471 1.601c.059.529.099 1.059.099 1.609s-.04 1.08-.099 1.609l-4.471 1.601z" fill="#FFF"/><path d="M474 39.5c-3.311 0-6 2.689-6 6 0 3.31 2.689 6 6 6s6-2.69 6-6c0-3.311-2.689-6-6-6z" fill="#93B364"/><path d="M477 45.5c0 1.66-1.34 3-3 3s-3-1.34-3-3 1.34-3 3-3 3 1.34 3 3z" fill="#FFF"/><path d="M252 20h74v51h-74V20z" fill="#FFF"/><path d="M254 22h70v47h-70V22z" fill="#EC5AE3"/><path d="M288.5 35c-5.8 0-10.5 4.7-10.5 10.5S282.7 56 288.5 56 299 51.3 299 45.5 294.3 35 288.5 35z" fill="#FFF"/><path d="M295.84 41.75H292c-.221-1.6-.57-3.01-1.019-4.12a8.276 8.276 0 0 1 4.859 4.12zm-5.09 3.75c0 .8-.04 1.55-.09 2.25h-4.32c-.05-.7-.09-1.45-.09-2.25s.04-1.55.09-2.25h4.32c.05.7.09 1.45.09 2.25zm-2.25 8.25c-.221 0-.439-.02-.66-.029-.47-.841-1.02-2.33-1.33-4.471h3.98c-.31 2.141-.86 3.63-1.33 4.471-.22.009-.439.029-.66.029zm-1.99-12c.31-2.14.86-3.63 1.33-4.47.221-.01.439-.03.66-.03.221 0 .44.02.66.03.47.84 1.02 2.33 1.33 4.47m-4.47-4.12c-.45 1.11-.799 2.52-1.02 4.12h-3.84c1-1.95 2.741-3.45 4.86-4.12zm-5.45 5.62h4.27c-.061.73-.09 1.48-.09 2.25s.029 1.52.09 2.25h-4.27a8.388 8.388 0 0 1-.32-2.25c0-.779.12-1.529.32-2.25zm.59 6H285c.221 1.6.57 3.01 1.02 4.12a8.278 8.278 0 0 1-4.86-4.12zm9.821 4.12c.449-1.11.798-2.52 1.019-4.12h3.84c-1 1.95-2.74 3.45-4.859 4.12zm5.449-5.62h-4.27c.061-.73.09-1.48.09-2.25s-.029-1.52-.09-2.25h4.27c.2.721.32 1.471.32 2.25 0 .779-.12 1.529-.32 2.25z" fill="#EC5AE3"/><path d="M381 20h70v51h-70V20z" fill="#FFF"/><path d="M383 22h66v47h-66V22z" fill="#7DA8E0"/><path d="M407 30h20c1.66 0 3 1.34 3 3v26c0 1.66-1.34 3-3 3h-20c-1.66 0-3-1.34-3-3V33c0-1.66 1.34-3 3-3z" fill="#FFF"/><path d="M426.465 55.076l-5.346-2.972C424.584 50.532 427 47.05 427 43c0-5.52-4.48-10-10-10-5.519 0-10 4.48-10 10 0 5.42 4.324 9.829 9.707 9.986l6.114 5.589.061.03a3.67 3.67 0 0 0 1.523.358c.692 0 1.3-.246 1.759-.71 1.116-1.116.73-2.495.368-3.07l-.067-.107z" fill="#759BDD"/><path d="M415 43c0-1.1.9-2 2-2s2 .9 2 2-.9 2-2 2-2-.9-2-2z" fill="#FFF"/><path d="M412.4 47l10.709 9.79s1.621.83 2.701-.261c1.129-1.129.299-2.449.299-2.449l-13.399-7.45-.31.37z" fill="#FFF"/></g></svg>