<svg ti:v="1" width="618" height="100" viewBox="0 0 618 100" xmlns="http://www.w3.org/2000/svg" xmlns:ti="urn:schemas-jetbrains-com:tisvg"><rect id="frame" width="618" height="100" fill="none"/><g fill-rule="evenodd"><path d="M361 45v-4h-4v-4H249v18h4v4h4v4h108V45h-4z" fill="#FFF"/><path d="M241 20h114v14H241V20z" fill="#98A5BF"/><path d="M264 66h91v14h-91V66z" fill="#98A5BF"/><path d="M251 39h104v14H251V39z" fill="#57B9FF"/><path d="M255 55v2h104V43h-2v12H255z" fill="#5F97BF"/><path d="M259 59v2h104V47h-2v12H259z" fill="#5F97BF"/><path d="M228 30l6-6v6h-6z" fill="#98A5BF"/><path d="M251 76l6-6v6h-6z" fill="#98A5BF"/><path d="M238 53l6-6v6h-6z" fill="#98A5BF"/><path d="M34.955 24.424a3.687 3.687 0 0 0-1.355-1.032c-.538-.24-1.157-.36-1.861-.36a4.666 4.666 0 0 0-3.516 1.548 5.334 5.334 0 0 0-1.032 1.74 6.264 6.264 0 0 0-.372 2.184c0 .8.124 1.532.372 2.196.248.664.588 1.24 1.02 1.728.431.488.939.868 1.524 1.14a4.421 4.421 0 0 0 1.884.408c.768 0 1.447-.16 2.04-.48a4.066 4.066 0 0 0 1.464-1.343l3.12 2.328a6.498 6.498 0 0 1-2.735 2.23 8.456 8.456 0 0 1-3.408.72c-1.329 0-2.553-.207-3.672-.623a8.394 8.394 0 0 1-2.905-1.788 8.105 8.105 0 0 1-1.908-2.82c-.456-1.104-.683-2.336-.683-3.696 0-1.36.227-2.592.683-3.696a8.115 8.115 0 0 1 1.908-2.82 8.408 8.408 0 0 1 2.905-1.788c1.119-.416 2.343-.624 3.672-.624.479 0 .979.044 1.5.132a8.116 8.116 0 0 1 1.535.42c.504.192.988.448 1.453.769.463.319.879.712 1.248 1.175l-2.881 2.352z" fill="#FFF"/><path d="M42.659 28.504c0 .8.124 1.532.372 2.196a5.02 5.02 0 0 0 1.068 1.728c.463.488 1.02.868 1.668 1.14.648.272 1.371.408 2.172.408.799 0 1.524-.136 2.172-.408a4.873 4.873 0 0 0 1.668-1.14 5.036 5.036 0 0 0 1.068-1.728c.248-.664.372-1.395.372-2.196 0-.783-.124-1.512-.372-2.184a5.03 5.03 0 0 0-1.068-1.74 4.858 4.858 0 0 0-1.668-1.14c-.648-.272-1.373-.408-2.172-.408-.801 0-1.524.136-2.172.409a4.849 4.849 0 0 0-1.668 1.139 5.016 5.016 0 0 0-1.068 1.74 6.263 6.263 0 0 0-.372 2.184zm-3.888 0c0-1.36.228-2.592.684-3.696a8.115 8.115 0 0 1 1.908-2.82 8.406 8.406 0 0 1 2.904-1.788c1.12-.416 2.344-.624 3.672-.624 1.328 0 2.551.208 3.672.624a8.415 8.415 0 0 1 2.904 1.788 8.115 8.115 0 0 1 1.908 2.82c.456 1.104.684 2.337.684 3.696 0 1.36-.228 2.592-.684 3.696a8.106 8.106 0 0 1-1.908 2.82 8.4 8.4 0 0 1-2.904 1.788c-1.121.416-2.344.624-3.672.624-1.328 0-2.552-.208-3.672-.624a8.39 8.39 0 0 1-2.904-1.788 8.106 8.106 0 0 1-1.908-2.82c-.456-1.104-.684-2.336-.684-3.696z" fill="#FFF"/><path d="M62.795 33.544h1.943c.865 0 1.668-.088 2.412-.264.745-.175 1.389-.468 1.932-.876a4.194 4.194 0 0 0 1.285-1.608c.312-.664.468-1.476.468-2.436 0-.832-.156-1.556-.468-2.171a4.353 4.353 0 0 0-1.259-1.525 5.555 5.555 0 0 0-1.862-.9c-.711-.2-1.459-.3-2.243-.3h-2.208m-3.744-3.456h5.616c1.359 0 2.651.152 3.876.456 1.224.305 2.292.796 3.203 1.476.912.68 1.637 1.564 2.173 2.652.536 1.089.804 2.408.804 3.96 0 1.377-.26 2.589-.78 3.637a7.823 7.823 0 0 1-2.1 2.639 9.282 9.282 0 0 1-3.048 1.62c-1.152.368-2.36.552-3.624.552h-6.12V20.008z" fill="#FFF"/><path d="M76.81 20.008h11.544v3.456h-7.8v3.168h7.367v3.456h-7.367v3.456h8.233V37H76.81V20.008z" fill="#FFF"/><path d="M97.834 20.008h11.4v3.456h-7.656v3.456h7.08v3.456h-7.08V37h-3.744V20.008z" fill="#FFF"/><path d="M114.298 28.504c0 .8.124 1.532.372 2.196a5.02 5.02 0 0 0 1.068 1.728c.463.488 1.02.868 1.668 1.14.648.272 1.371.408 2.172.408.799 0 1.524-.136 2.172-.408a4.873 4.873 0 0 0 1.668-1.14 5.036 5.036 0 0 0 1.068-1.728c.248-.664.372-1.395.372-2.196 0-.783-.124-1.512-.372-2.184a5.03 5.03 0 0 0-1.068-1.74 4.858 4.858 0 0 0-1.668-1.14c-.648-.272-1.373-.408-2.172-.408-.801 0-1.524.136-2.172.409a4.849 4.849 0 0 0-1.668 1.139 5.016 5.016 0 0 0-1.068 1.74 6.263 6.263 0 0 0-.372 2.184zm-3.888 0c0-1.36.228-2.592.684-3.696a8.115 8.115 0 0 1 1.908-2.82 8.406 8.406 0 0 1 2.904-1.788c1.12-.416 2.344-.624 3.672-.624 1.328 0 2.551.208 3.672.624a8.415 8.415 0 0 1 2.904 1.788 8.115 8.115 0 0 1 1.908 2.82c.456 1.104.684 2.337.684 3.696 0 1.36-.228 2.592-.684 3.696a8.106 8.106 0 0 1-1.908 2.82 8.4 8.4 0 0 1-2.904 1.788c-1.121.416-2.344.624-3.672.624-1.328 0-2.552-.208-3.672-.624a8.39 8.39 0 0 1-2.904-1.788 8.106 8.106 0 0 1-1.908-2.82c-.456-1.104-.684-2.336-.684-3.696z" fill="#FFF"/><path d="M130.834 20.008h3.744v13.536h6.936V37h-10.68V20.008z" fill="#FFF"/><path d="M146.721 33.544h1.944c.865 0 1.668-.088 2.412-.264.744-.175 1.388-.468 1.932-.876a4.201 4.201 0 0 0 1.284-1.608c.313-.664.469-1.476.469-2.436 0-.832-.156-1.556-.469-2.171a4.353 4.353 0 0 0-1.259-1.525 5.55 5.55 0 0 0-1.861-.9c-.712-.2-1.46-.3-2.243-.3h-2.209m-3.744-3.456h5.617c1.359 0 2.651.152 3.875.456 1.225.305 2.293.796 3.204 1.476.912.68 1.636 1.564 2.173 2.652.535 1.089.803 2.408.803 3.96 0 1.377-.26 2.589-.78 3.637a7.82 7.82 0 0 1-2.099 2.639 9.297 9.297 0 0 1-3.049 1.62 11.83 11.83 0 0 1-3.623.552h-6.121V20.008z" fill="#FFF"/><path d="M160.545 20.008h3.744V37h-3.744V20.008z" fill="#FFF"/><path d="M167.097 20.008h5.088l7.224 11.809h.048v-11.81h3.744V37h-4.896l-7.416-12.096h-.048V37h-3.744V20.008z" fill="#FFF"/><path d="M201.439 35.8a13.56 13.56 0 0 1-3.455 1.248 17.55 17.55 0 0 1-3.672.384c-1.328 0-2.553-.208-3.672-.624a8.38 8.38 0 0 1-2.904-1.788c-.817-.776-1.452-1.716-1.908-2.82-.456-1.104-.684-2.336-.684-3.696 0-1.36.228-2.592.684-3.696a8.102 8.102 0 0 1 1.908-2.82 8.395 8.395 0 0 1 2.904-1.788c1.119-.416 2.344-.624 3.672-.624 1.359 0 2.611.164 3.756.493a7.36 7.36 0 0 1 3.012 1.69l-2.641 2.88a5.242 5.242 0 0 0-1.728-1.198c-.639-.273-1.44-.41-2.399-.41-.801 0-1.524.137-2.172.41a4.85 4.85 0 0 0-1.668 1.139 5.007 5.007 0 0 0-1.068 1.74 6.255 6.255 0 0 0-.372 2.184c0 .8.124 1.532.372 2.196a4.881 4.881 0 0 0 2.736 2.869c.648.27 1.371.407 2.172.407.815 0 1.52-.092 2.111-.276.592-.183 1.065-.372 1.416-.564v-2.76h-3.047V26.92h6.647v8.88z" fill="#FFF"/><path d="M60.127 51.588c0 .524-.079 1.008-.237 1.449a3.208 3.208 0 0 1-.706 1.15 3.242 3.242 0 0 1-1.169.763c-.467.183-1.005.275-1.613.275-.617 0-1.158-.092-1.625-.275a3.242 3.242 0 0 1-1.169-.762 3.208 3.208 0 0 1-.706-1.151 4.273 4.273 0 0 1-.238-1.45V46.15h1.951v5.363c0 .274.043.529.131.763.088.233.21.435.369.605.158.17.348.305.569.4.22.096.46.144.718.144.258 0 .496-.048.713-.144.216-.095.404-.23.563-.4.158-.17.281-.372.368-.605.087-.234.132-.49.132-.763V46.15h1.949v5.438z" fill="#525F85"/><path d="M61.928 46.15h2.649l3.763 6.15h.026v-6.15h1.949V55h-2.55l-3.862-6.3h-.026V55h-1.949v-8.85z" fill="#525F85"/><path d="M73.826 47.875h-2.524V46.15h7v1.725h-2.525V55h-1.951v-7.125z" fill="#525F85"/><path d="M82.951 48.725l-1.074 2.75h2.162m-1.838-5.325h1.613l3.85 8.85h-2.199l-.764-1.875h-3.438L80.527 55h-2.15l3.824-8.85z" fill="#525F85"/><path d="M88.552 46.15h2.649l3.764 6.15h.025v-6.15h1.95V55h-2.551l-3.861-6.3h-.026V55h-1.95v-8.85z" fill="#525F85"/><path d="M106.752 54.375a7.07 7.07 0 0 1-1.801.65c-.625.133-1.262.2-1.912.2-.691 0-1.33-.109-1.912-.325a4.381 4.381 0 0 1-1.514-.931 4.236 4.236 0 0 1-.993-1.469c-.237-.575-.356-1.217-.356-1.925s.119-1.35.356-1.925a4.222 4.222 0 0 1 .993-1.468 4.38 4.38 0 0 1 1.514-.932 5.44 5.44 0 0 1 1.912-.325c.708 0 1.36.086 1.956.257a3.843 3.843 0 0 1 1.569.88l-1.375 1.5a2.752 2.752 0 0 0-.9-.625c-.334-.141-.75-.212-1.25-.212-.417 0-.794.071-1.131.212a2.536 2.536 0 0 0-1.426 1.5c-.128.35-.193.73-.193 1.138 0 .417.065.798.193 1.144a2.54 2.54 0 0 0 1.426 1.494c.337.141.714.212 1.131.212.425 0 .791-.048 1.1-.144.308-.095.554-.193.738-.294V51.55h-1.588v-1.8h3.463v4.625z" fill="#525F85"/><path d="M108.539 46.15h1.949v7.05h3.614V55h-5.563v-8.85z" fill="#525F85"/><path d="M115.252 46.15h6.012v1.8h-4.063v1.65h3.838v1.8h-3.838v1.8h4.287V55h-6.236v-8.85z" fill="#525F85"/><path d="M132.539 48.45a1.924 1.924 0 0 0-.707-.538 2.35 2.35 0 0 0-.969-.188c-.367 0-.706.072-1.018.213a2.45 2.45 0 0 0-.813.594 2.793 2.793 0 0 0-.538.906c-.129.35-.193.73-.193 1.138 0 .417.064.798.193 1.144.13.345.307.645.531.9.226.254.491.452.795.594.304.141.631.212.981.212.4 0 .754-.083 1.062-.25.309-.166.563-.4.763-.7l1.625 1.212a3.381 3.381 0 0 1-1.425 1.162 4.41 4.41 0 0 1-1.775.375 5.462 5.462 0 0 1-1.912-.324 4.38 4.38 0 0 1-1.513-.93 4.207 4.207 0 0 1-.993-1.47c-.239-.575-.358-1.217-.358-1.925s.119-1.35.358-1.925a4.208 4.208 0 0 1 .993-1.469 4.383 4.383 0 0 1 1.513-.93 5.441 5.441 0 0 1 1.912-.326c.25 0 .51.023.781.07.271.045.537.117.801.218.261.1.513.233.756.4.242.166.458.37.65.611l-1.5 1.226z" fill="#525F85"/><path d="M138.977 48.725l-1.077 2.75h2.164m-1.837-5.325h1.61l3.852 8.85h-2.2l-.762-1.875h-3.438L136.551 55H134.4l3.827-8.85z" fill="#525F85"/><path d="M144.651 46.15h1.95v7.05h3.613V55h-5.563v-8.85z" fill="#525F85"/><path d="M151.363 46.15h1.95v7.05h3.613V55h-5.563v-8.85z" fill="#525F85"/><path d="M166.076 48.312a1.377 1.377 0 0 0-.645-.443 2.301 2.301 0 0 0-.768-.145c-.142 0-.287.018-.438.051a1.646 1.646 0 0 0-.424.156.917.917 0 0 0-.326.281.714.714 0 0 0-.125.425c0 .267.101.471.3.613.2.141.452.262.757.362.304.1.631.2.981.3.35.1.677.242.981.425.305.183.557.43.757.738.2.308.3.72.3 1.237 0 .492-.092.921-.276 1.287-.183.367-.43.671-.743.913a3.158 3.158 0 0 1-1.088.537 4.757 4.757 0 0 1-1.306.175 4.736 4.736 0 0 1-1.6-.262 4.025 4.025 0 0 1-1.375-.85l1.388-1.525c.2.267.452.473.755.62a2.164 2.164 0 0 0 1.426.162c.162-.038.308-.094.438-.169a.952.952 0 0 0 .312-.288.725.725 0 0 0 .118-.412.75.75 0 0 0-.305-.63 2.83 2.83 0 0 0-.77-.396 24.754 24.754 0 0 0-1-.324 4.58 4.58 0 0 1-1-.438 2.406 2.406 0 0 1-.768-.725c-.204-.3-.306-.696-.306-1.188 0-.474.094-.89.281-1.25.188-.357.438-.658.75-.899a3.253 3.253 0 0 1 1.081-.544 4.424 4.424 0 0 1 1.263-.182c.5 0 .982.072 1.449.213a3.35 3.35 0 0 1 1.263.712l-1.337 1.463z" fill="#525F85"/><path d="M170.588 47.875h-2.525V46.15h7v1.725h-2.525V55h-1.95v-7.125z" fill="#525F85"/><path d="M179.713 48.725l-1.075 2.75h2.163m-1.838-5.325h1.612l3.851 8.85h-2.2l-.763-1.875h-3.438L177.288 55h-2.15l3.825-8.85z" fill="#525F85"/><path d="M191.101 48.45a1.92 1.92 0 0 0-.706-.538 2.353 2.353 0 0 0-.969-.188c-.367 0-.707.072-1.019.213a2.45 2.45 0 0 0-.813.594 2.811 2.811 0 0 0-.538.906c-.128.35-.192.73-.192 1.138 0 .417.064.798.192 1.144.13.345.308.645.531.9.226.254.492.452.795.594.304.141.631.212.982.212.399 0 .753-.083 1.062-.25.309-.166.563-.4.762-.7l1.625 1.212a3.381 3.381 0 0 1-1.425 1.162 4.41 4.41 0 0 1-1.774.375c-.693 0-1.33-.108-1.913-.324a4.389 4.389 0 0 1-1.513-.93 4.207 4.207 0 0 1-.993-1.47c-.238-.575-.358-1.217-.358-1.925s.12-1.35.358-1.925a4.208 4.208 0 0 1 .993-1.469 4.392 4.392 0 0 1 1.513-.93 5.443 5.443 0 0 1 1.913-.326c.25 0 .509.023.781.07.27.045.536.117.8.218.262.1.514.233.756.4.242.166.458.37.65.611l-1.5 1.226z" fill="#525F85"/><path d="M193.951 46.15h1.949v3.675l3.438-3.675h2.551l-3.938 4.112L202.225 55H199.5l-3.6-4.2V55h-1.949v-8.85z" fill="#525F85"/><path d="M386.11 44.598h.78l-.99 4.623c-.1.496-.16.92-.16 1.272 0 .652.17 1.14.52 1.467.34.326.82.49 1.43.49.71 0 1.27-.204 1.67-.61.41-.406.71-1.058.9-1.957l1.13-5.285h.77l-1.09 5.156c-.27 1.227-.67 2.099-1.2 2.616-.54.518-1.31.777-2.29.777-.8 0-1.44-.231-1.91-.692-.47-.461-.7-1.086-.7-1.875 0-.418.04-.826.13-1.224l1.01-4.758z" fill="#333"/><path d="M392.29 52.027c.18.137.41.25.68.34.28.09.54.135.79.135.43 0 .76-.087.98-.26.23-.175.34-.43.34-.766 0-.23-.07-.428-.21-.595-.14-.166-.4-.362-.77-.588-.42-.25-.72-.502-.91-.756a1.443 1.443 0 0 1-.28-.89c0-.516.19-.944.56-1.284.38-.34.88-.51 1.48-.51.22 0 .47.026.73.076.26.051.49.125.69.223l-.15.721a2.35 2.35 0 0 0-1.3-.375c-.38 0-.69.098-.91.296a.97.97 0 0 0-.35.77c0 .231.06.43.19.598.12.168.37.363.75.586.45.277.77.542.96.794.18.252.28.54.28.864 0 .531-.2.954-.58 1.268-.39.315-.92.472-1.59.472-.27 0-.54-.036-.82-.108a2.671 2.671 0 0 1-.72-.279l.16-.732z" fill="#333"/><path d="M398.02 49.783c1.17 0 2.02-.11 2.57-.334.55-.223.83-.572.83-1.049 0-.293-.1-.516-.3-.67-.19-.155-.47-.232-.83-.232-.53 0-1 .214-1.43.641-.43.428-.71.976-.84 1.644zm-.1.943c0 .563.15 1 .45 1.31.29.31.7.466 1.23.466s1.11-.18 1.72-.539l-.14.738c-.53.297-1.09.445-1.69.445-.74 0-1.32-.218-1.72-.656-.4-.437-.6-1.05-.6-1.84 0-.676.14-1.307.43-1.895.29-.588.69-1.052 1.18-1.392.5-.34 1.03-.51 1.6-.51.55 0 .98.136 1.31.408.32.271.49.633.49 1.086 0 .692-.34 1.206-1.02 1.541-.68.336-1.75.512-3.23.528l-.01.31z" fill="#333"/><path d="M408.06 45.494a.497.497 0 0 1-.37-.16.509.509 0 0 1-.16-.379c0-.152.05-.276.16-.372.1-.096.23-.144.37-.144.15 0 .27.048.38.144a.5.5 0 0 1 .16.372.542.542 0 0 1-.54.539zm-.8 1.506h.75l-.9 4.224c-.08.4-.12.674-.12.827 0 .277.15.416.45.416.18 0 .35-.028.49-.082l-.12.597c-.2.078-.41.117-.63.117-.3 0-.54-.079-.7-.237-.16-.158-.24-.389-.24-.694 0-.215.04-.537.13-.967l.89-4.2z" fill="#333"/><path d="M410.12 47.639h-1.05l.14-.64h1.03l.33-1.516.79-.24-.38 1.757h1.57l-.15.639h-1.55l-.75 3.498c-.07.316-.1.574-.1.773 0 .196.04.338.12.428.08.09.22.135.41.135.19 0 .48-.092.9-.275l-.15.668a2.33 2.33 0 0 1-.48.172c-.18.049-.34.074-.47.074-.72 0-1.08-.371-1.08-1.114 0-.23.04-.507.11-.832l.76-3.527z" fill="#333"/><path d="M417.12 47.639h-1.05l.15-.64h1.03l.32-1.516.79-.24-.37 1.757h1.56l-.14.639h-1.56l-.74 3.498c-.07.316-.1.574-.1.773 0 .196.04.338.12.428.08.09.22.135.41.135.18 0 .48-.092.9-.275l-.15.668a2.33 2.33 0 0 1-.48.172 1.86 1.86 0 0 1-.48.074c-.72 0-1.07-.371-1.07-1.114 0-.23.03-.507.11-.832l.75-3.527z" fill="#333"/><path d="M421.89 52.502c.44 0 .85-.145 1.22-.434.37-.289.66-.683.87-1.183.21-.5.31-1.047.31-1.641 0-.566-.13-.999-.38-1.298-.26-.298-.62-.448-1.07-.448-.67 0-1.24.314-1.71.941-.46.626-.7 1.399-.7 2.317 0 .547.13.975.4 1.283.26.309.61.463 1.06.463zm-.05.645c-.67 0-1.2-.207-1.58-.619-.39-.412-.58-.987-.58-1.725 0-.727.14-1.394.41-2.001.28-.608.66-1.084 1.16-1.43.5-.346 1.05-.518 1.64-.518.67 0 1.19.208 1.58.624.39.416.58.987.58 1.713 0 .739-.14 1.412-.41 2.019-.28.607-.66 1.082-1.15 1.424-.49.342-1.04.513-1.65.513z" fill="#333"/><path d="M431.41 53.146c-.66 0-1.18-.216-1.56-.647-.37-.432-.56-1.02-.56-1.767 0-.71.14-1.366.42-1.966a3.4 3.4 0 0 1 1.18-1.406 2.947 2.947 0 0 1 1.67-.507c.56 0 1.04.133 1.43.398l-.18.762c-.35-.344-.8-.515-1.34-.515-.45 0-.87.144-1.25.433-.37.29-.67.682-.88 1.178a3.996 3.996 0 0 0-.31 1.576c0 .578.13 1.025.39 1.342.27.316.64.474 1.11.474.48 0 1-.2 1.55-.603l-.17.81c-.31.167-.58.282-.79.344a2.54 2.54 0 0 1-.71.094z" fill="#333"/><path d="M436.56 52.502c.44 0 .85-.145 1.22-.434.37-.289.66-.683.87-1.183.21-.5.31-1.047.31-1.641 0-.566-.13-.999-.39-1.298-.26-.298-.62-.448-1.07-.448-.67 0-1.23.314-1.7.941-.47.626-.7 1.399-.7 2.317 0 .547.13.975.39 1.283.26.309.62.463 1.07.463zm-.05.645c-.67 0-1.2-.207-1.59-.619-.38-.412-.58-.987-.58-1.725 0-.727.14-1.394.42-2.001.27-.608.66-1.084 1.16-1.43a2.784 2.784 0 0 1 1.64-.518c.66 0 1.19.208 1.58.624.38.416.58.987.58 1.713 0 .739-.14 1.412-.42 2.019-.27.607-.65 1.082-1.14 1.424-.5.342-1.04.513-1.65.513z" fill="#333"/><path d="M441.7 47h.72c-.05.418-.13.941-.25 1.57h.02c.72-1.144 1.48-1.716 2.3-1.716.48 0 .83.144 1.05.433.23.289.34.715.35 1.277.34-.543.71-.963 1.12-1.262.4-.299.82-.448 1.24-.448.94 0 1.42.542 1.42 1.628 0 .231-.06.629-.18 1.196L448.78 53h-.73l.71-3.48c.1-.45.15-.776.15-.979 0-.695-.29-1.043-.86-1.043-.29 0-.6.127-.94.381-.34.254-.65.592-.93 1.014-.28.421-.47.832-.56 1.23L445.01 53h-.74l.73-3.48c.09-.45.14-.758.14-.926 0-.731-.29-1.096-.86-1.096-.28 0-.6.129-.95.387-.34.258-.65.6-.94 1.028-.28.428-.46.837-.54 1.228L441.24 53h-.74l.92-4.307c.16-.757.25-1.322.28-1.693z" fill="#333"/><path d="M451.5 52.267c.34.156.75.235 1.22.235.51 0 .98-.15 1.4-.451.42-.301.75-.712.99-1.233.24-.522.36-1.09.36-1.702 0-1.078-.39-1.618-1.15-1.618-.32 0-.65.144-1 .433-.34.29-.64.679-.91 1.167s-.45.988-.56 1.5M451.68 47h.75c0 .137-.02.4-.08.79-.05.391-.09.667-.12.828h.03c.64-1.176 1.4-1.764 2.26-1.764.55 0 .96.184 1.26.556.29.372.44.917.44 1.635 0 .746-.16 1.44-.48 2.083a3.72 3.72 0 0 1-1.3 1.492c-.55.35-1.15.527-1.8.527-.44 0-.86-.076-1.27-.23l-.61 2.884h-.74l1.47-6.926c.04-.242.09-.58.13-1.01.04-.432.06-.72.06-.865z" fill="#333"/><path d="M461.87 47.621a5.321 5.321 0 0 0-1.14-.123c-.53 0-1.01.144-1.43.434-.43.29-.76.7-1.01 1.23a4.059 4.059 0 0 0-.37 1.752c0 1.059.37 1.588 1.12 1.588.32 0 .64-.138.97-.413.34-.276.64-.665.91-1.169.28-.504.47-1.012.58-1.524M460.9 53c.01-.41.08-.949.2-1.617h-.03c-.35.633-.71 1.085-1.05 1.356-.35.272-.73.407-1.15.407-.54 0-.96-.19-1.26-.57-.3-.382-.45-.918-.45-1.609 0-.746.16-1.445.48-2.095.33-.65.77-1.149 1.32-1.497a3.463 3.463 0 0 1 1.87-.522c.5 0 1.13.077 1.89.23l-.81 3.872c-.05.258-.11.61-.16 1.055-.06.445-.09.775-.09.99h-.76z" fill="#333"/><path d="M465.67 53.146c-.67 0-1.19-.216-1.56-.647-.38-.432-.57-1.02-.57-1.767 0-.71.14-1.366.43-1.966.28-.599.67-1.068 1.18-1.406.5-.338 1.05-.507 1.66-.507.57 0 1.04.133 1.43.398l-.18.762c-.35-.344-.79-.515-1.33-.515-.46 0-.88.144-1.25.433-.38.29-.67.682-.88 1.178a3.835 3.835 0 0 0-.32 1.576c0 .578.13 1.025.4 1.342.26.316.63.474 1.1.474.49 0 1-.2 1.56-.603l-.18.81c-.31.167-.57.282-.79.344-.21.063-.45.094-.7.094z" fill="#333"/><path d="M469.75 47.639h-1.05l.15-.64h1.03l.32-1.516.79-.24-.37 1.757h1.56l-.14.639h-1.56l-.74 3.498c-.07.316-.11.574-.11.773 0 .196.05.338.13.428.08.09.22.135.41.135.18 0 .48-.092.89-.275l-.14.668c-.14.066-.29.124-.48.172-.19.049-.34.074-.48.074-.72 0-1.08-.371-1.08-1.114 0-.23.04-.507.12-.832l.75-3.527z" fill="#333"/><path d="M474.19 45.494a.497.497 0 0 1-.37-.16.509.509 0 0 1-.16-.379c0-.152.05-.276.16-.372.1-.096.23-.144.37-.144.15 0 .27.048.38.144a.5.5 0 0 1 .16.372.542.542 0 0 1-.54.539zm-.8 1.506h.74l-.89 4.224c-.08.4-.12.674-.12.827 0 .277.15.416.45.416.18 0 .34-.028.49-.082l-.12.597c-.2.078-.41.117-.63.117-.31 0-.54-.079-.7-.237-.16-.158-.24-.389-.24-.694 0-.215.04-.537.13-.967l.89-4.2z" fill="#333"/><path d="M476.26 47.639h-1.07l.15-.64h1.06l.24-1.124c.27-1.265.96-1.898 2.07-1.898.25 0 .49.035.72.105l-.13.68c-.16-.098-.38-.146-.66-.146-.34 0-.62.114-.83.342-.21.229-.36.585-.46 1.07l-.22.972h1.52l-.16.639h-1.5l-1.57 7.354h-.74l1.58-7.354z" fill="#333"/><path d="M477.11 55.04c.12.069.27.104.46.104.28 0 .53-.082.76-.246.22-.164.44-.418.66-.76l.75-1.19L478.67 47h.76l.78 4.74.04.451h.03l.15-.31 2.91-4.88h.83l-4.35 7.06c-.41.667-.8 1.127-1.14 1.38-.35.251-.74.377-1.18.377-.22 0-.4-.029-.54-.088l.15-.69z" fill="#333"/><path d="M488.45 47.639h-1.05l.15-.64h1.03l.32-1.516.79-.24-.37 1.757h1.56l-.15.639h-1.55l-.74 3.498c-.07.316-.11.574-.11.773 0 .196.04.338.13.428.08.09.21.135.41.135.18 0 .48-.092.89-.275l-.14.668c-.14.066-.3.124-.48.172-.19.049-.35.074-.48.074-.72 0-1.08-.371-1.08-1.114 0-.23.04-.507.11-.832l.76-3.527z" fill="#333"/><path d="M492.74 44.117h.74l-.95 4.441h.03c.71-1.136 1.51-1.705 2.39-1.705.5 0 .88.142 1.13.425.25.283.37.693.37 1.228 0 .054-.01.136-.02.246-.02.11-.04.26-.07.448-.03.19-.29 1.456-.79 3.8h-.74l.72-3.48c.1-.454.15-.762.15-.926 0-.73-.32-1.096-.95-1.096-.32 0-.66.132-1.03.395-.37.264-.7.603-.98 1.017-.27.414-.45.828-.54 1.242L491.59 53h-.74l1.89-8.883z" fill="#333"/><path d="M498.42 49.783c1.17 0 2.02-.11 2.57-.334.55-.223.83-.572.83-1.049 0-.293-.1-.516-.3-.67-.19-.155-.47-.232-.83-.232-.53 0-1 .214-1.43.641-.43.428-.71.976-.84 1.644zm-.1.943c0 .563.15 1 .45 1.31.29.31.7.466 1.23.466s1.11-.18 1.72-.539l-.14.738c-.53.297-1.09.445-1.69.445-.74 0-1.32-.218-1.72-.656-.4-.437-.6-1.05-.6-1.84 0-.676.14-1.307.43-1.895.29-.588.69-1.052 1.18-1.392.5-.34 1.03-.51 1.6-.51.55 0 .98.136 1.31.408.32.271.49.633.49 1.086 0 .692-.34 1.206-1.02 1.541-.68.336-1.75.512-3.23.528l-.01.31z" fill="#333"/><path d="M508.7 53.146c-.66 0-1.18-.216-1.56-.647-.37-.432-.56-1.02-.56-1.767 0-.71.14-1.366.42-1.966.29-.599.68-1.068 1.18-1.406a2.947 2.947 0 0 1 1.67-.507c.56 0 1.04.133 1.43.398l-.18.762c-.35-.344-.8-.515-1.33-.515-.46 0-.88.144-1.25.433-.38.29-.68.682-.89 1.178a3.996 3.996 0 0 0-.31 1.576c0 .578.13 1.025.39 1.342.27.316.64.474 1.11.474.48 0 1-.2 1.56-.603l-.18.81c-.31.167-.58.282-.79.344a2.54 2.54 0 0 1-.71.094z" fill="#333"/><path d="M516.34 47.621a5.23 5.23 0 0 0-1.13-.123c-.53 0-1.01.144-1.44.434-.42.29-.76.7-1.01 1.23a4.059 4.059 0 0 0-.37 1.752c0 1.059.38 1.588 1.13 1.588.31 0 .64-.138.97-.413.33-.276.63-.665.91-1.169a6.22 6.22 0 0 0 .58-1.524M515.37 53c.02-.41.08-.949.2-1.617h-.02c-.36.633-.71 1.085-1.06 1.356-.34.272-.73.407-1.15.407-.54 0-.96-.19-1.26-.57-.3-.382-.45-.918-.45-1.609 0-.746.17-1.445.49-2.095.32-.65.76-1.149 1.32-1.497a3.405 3.405 0 0 1 1.86-.522c.51 0 1.14.077 1.89.23l-.8 3.872c-.06.258-.11.61-.17 1.055-.06.445-.09.775-.09.99h-.76z" fill="#333"/><path d="M519.71 44.117h.75l-1.51 7.107c-.08.4-.12.674-.12.827 0 .277.15.416.45.416.18 0 .34-.028.49-.082l-.13.597c-.19.078-.4.117-.62.117-.31 0-.54-.079-.7-.237-.17-.158-.25-.39-.25-.694 0-.242.05-.565.14-.967l1.5-7.084z" fill="#333"/><path d="M522.5 44.117h.74l-1.51 7.107c-.08.4-.12.674-.12.827 0 .277.15.416.45.416.18 0 .35-.028.49-.082l-.12.597c-.2.078-.41.117-.63.117-.3 0-.54-.079-.7-.237-.16-.158-.24-.39-.24-.694 0-.242.04-.565.13-.967l1.51-7.084z" fill="#333"/><path d="M526.69 52.027c.19.137.42.25.69.34.28.09.54.135.79.135.43 0 .76-.087.98-.26.23-.175.34-.43.34-.766 0-.23-.07-.428-.21-.595-.14-.166-.4-.362-.77-.588-.42-.25-.72-.502-.91-.756a1.45 1.45 0 0 1-.29-.89c0-.516.19-.944.57-1.284.38-.34.87-.51 1.48-.51.22 0 .46.026.73.076.26.051.49.125.69.223l-.15.721c-.39-.25-.83-.375-1.31-.375-.37 0-.68.098-.91.296a.962.962 0 0 0-.34.77c0 .231.06.43.19.598.12.168.37.363.75.586.45.277.77.542.96.794.18.252.27.54.27.864 0 .531-.19.954-.58 1.268-.38.315-.91.472-1.58.472-.27 0-.54-.036-.83-.108a2.73 2.73 0 0 1-.71-.279l.15-.732z" fill="#333"/><path d="M532.73 47.639h-1.05l.15-.64h1.03l.32-1.516.79-.24L533.6 47h1.56l-.15.639h-1.55l-.74 3.498c-.07.316-.11.574-.11.773 0 .196.04.338.12.428.09.09.22.135.41.135.19 0 .49-.092.9-.275l-.15.668c-.13.066-.29.124-.47.172-.19.049-.35.074-.48.074-.72 0-1.08-.371-1.08-1.114 0-.23.04-.507.11-.832l.76-3.527z" fill="#333"/><path d="M539.99 47.621a5.23 5.23 0 0 0-1.13-.123c-.53 0-1.01.144-1.44.434-.42.29-.76.7-1.01 1.23a4.059 4.059 0 0 0-.37 1.752c0 1.059.37 1.588 1.12 1.588.32 0 .64-.138.98-.413.33-.276.63-.665.91-1.169a6.22 6.22 0 0 0 .58-1.524M539.02 53c.02-.41.08-.949.2-1.617h-.02c-.36.633-.71 1.085-1.06 1.356-.35.272-.73.407-1.15.407-.54 0-.96-.19-1.26-.57-.3-.382-.45-.918-.45-1.609 0-.746.16-1.445.49-2.095.32-.65.76-1.149 1.32-1.497a3.405 3.405 0 0 1 1.86-.522c.51 0 1.13.077 1.89.23l-.8 3.872c-.06.258-.11.61-.17 1.055-.06.445-.09.775-.09.99h-.76z" fill="#333"/><path d="M543.79 53.146c-.66 0-1.18-.216-1.56-.647-.38-.432-.57-1.02-.57-1.767 0-.71.15-1.366.43-1.966a3.4 3.4 0 0 1 1.18-1.406c.5-.338 1.06-.507 1.66-.507.57 0 1.05.133 1.43.398l-.17.762c-.35-.344-.8-.515-1.34-.515-.46 0-.87.144-1.25.433-.38.29-.67.682-.88 1.178a4.004 4.004 0 0 0-.32 1.576c0 .578.13 1.025.4 1.342.27.316.64.474 1.11.474.48 0 1-.2 1.55-.603l-.18.81c-.31.167-.57.282-.79.344-.21.063-.45.094-.7.094z" fill="#333"/><path d="M548.46 44.117h.73L548 49.695h.03L551.2 47h.99l-3.44 2.865L551 53h-.88l-2.13-3.1h-.03l-.65 3.1h-.75l1.9-8.883z" fill="#333"/><path d="M552.59 53.117a.546.546 0 0 1-.39-.158.565.565 0 0 1-.16-.399c0-.156.05-.287.16-.392.1-.106.23-.158.39-.158.15 0 .28.052.39.158a.538.538 0 0 1 0 .785.536.536 0 0 1-.39.164z" fill="#333"/><path d="M386.21 58.598h4.08l-.14.709h-3.3l-.68 3.17h3.06l-.14.703h-3.07l-.81 3.82h-.77l1.77-8.402z" fill="#333"/><path d="M392.4 66.502c.44 0 .84-.145 1.22-.434.37-.289.66-.683.87-1.183.2-.5.31-1.047.31-1.641 0-.566-.13-.999-.39-1.298-.26-.298-.62-.448-1.07-.448-.67 0-1.24.314-1.7.941-.47.626-.7 1.399-.7 2.317 0 .547.13.975.39 1.283.26.309.62.463 1.07.463zm-.06.645c-.66 0-1.19-.207-1.58-.619-.38-.412-.58-.987-.58-1.725 0-.727.14-1.394.41-2.001.28-.608.67-1.084 1.16-1.43.5-.346 1.05-.518 1.65-.518.66 0 1.19.208 1.57.624.39.416.58.987.58 1.713 0 .739-.13 1.412-.41 2.019a3.367 3.367 0 0 1-1.15 1.424c-.49.342-1.04.513-1.65.513z" fill="#333"/><path d="M397.52 61h.74l-.2 1.371h.02c.27-.508.54-.888.84-1.14.29-.252.62-.377 1-.377.22 0 .43.041.63.123l-.14.791h-.02a1.182 1.182 0 0 0-.65-.205c-.43 0-.84.264-1.24.793-.39.53-.68 1.199-.85 2.007L397.08 67h-.73l.83-3.937c.19-.825.3-1.512.34-2.063z" fill="#333"/><path d="M404.77 63.783c1.17 0 2.02-.11 2.57-.334.55-.223.83-.572.83-1.049 0-.293-.1-.516-.3-.67-.19-.155-.47-.232-.83-.232-.53 0-1 .214-1.43.641-.43.428-.71.976-.84 1.644zm-.1.943c0 .563.15 1 .45 1.31.29.31.7.466 1.23.466s1.11-.18 1.72-.539l-.14.738c-.53.297-1.09.445-1.69.445-.74 0-1.32-.218-1.72-.656-.4-.437-.6-1.05-.6-1.84 0-.676.14-1.307.43-1.895.29-.588.69-1.052 1.18-1.392.5-.34 1.03-.51 1.6-.51.55 0 .98.136 1.31.408.32.271.49.633.49 1.086 0 .692-.34 1.206-1.02 1.541-.68.336-1.75.512-3.23.528l-.01.31z" fill="#333"/><path d="M411.39 64.03L410.05 61h.81l.93 2.332.08.258h.03l.34-.446 1.8-2.144h.86l-2.7 3.076L413.57 67l-.83.006c-.53-1.274-.87-2.106-1.02-2.497h-.03l-.34.446L409.63 67h-.91l2.67-2.97z" fill="#333"/><path d="M419.64 61.621a5.23 5.23 0 0 0-1.13-.123c-.53 0-1.01.144-1.43.434-.43.29-.77.7-1.01 1.23a4.064 4.064 0 0 0-.38 1.752c0 1.059.38 1.588 1.13 1.588.31 0 .64-.138.97-.413.33-.276.64-.665.91-1.169s.47-1.012.58-1.524m-.6 3.604c.01-.41.08-.949.19-1.617h-.02c-.36.633-.71 1.085-1.06 1.356-.34.272-.73.407-1.15.407-.54 0-.96-.19-1.25-.57-.3-.382-.45-.918-.45-1.609 0-.746.16-1.445.48-2.095.32-.65.76-1.149 1.32-1.497a3.463 3.463 0 0 1 1.87-.522c.5 0 1.13.077 1.88.23l-.8 3.872c-.06.258-.11.61-.17 1.055-.05.445-.08.775-.08.99h-.76z" fill="#333"/><path d="M422.37 61h.72c-.06.418-.14.941-.25 1.57h.02c.71-1.144 1.47-1.716 2.29-1.716.49 0 .84.144 1.06.433.22.289.33.715.34 1.277.34-.543.71-.963 1.12-1.262.41-.299.82-.448 1.25-.448.94 0 1.41.542 1.41 1.628 0 .231-.06.629-.18 1.196l-.7 3.322h-.74l.72-3.48c.1-.45.14-.776.14-.979 0-.695-.28-1.043-.86-1.043-.28 0-.6.127-.94.381-.34.254-.65.592-.93 1.014-.28.421-.46.832-.55 1.23L425.68 67h-.75l.73-3.48c.1-.45.15-.758.15-.926 0-.731-.29-1.096-.86-1.096-.29 0-.6.129-.95.387s-.66.6-.94 1.028c-.28.428-.46.837-.55 1.228L421.9 67h-.74l.93-4.307c.15-.757.25-1.322.28-1.693z" fill="#333"/><path d="M432.16 66.267c.35.156.75.235 1.22.235.51 0 .98-.15 1.4-.451.42-.301.76-.712.99-1.233.24-.522.36-1.09.36-1.702 0-1.078-.38-1.618-1.15-1.618-.32 0-.65.144-.99.433-.34.29-.65.679-.92 1.167-.26.488-.45.988-.55 1.5M432.35 61h.75c0 .137-.03.4-.08.79-.05.391-.09.667-.12.828h.02c.65-1.176 1.4-1.764 2.27-1.764.54 0 .96.184 1.25.556.3.372.45.917.45 1.635 0 .746-.16 1.44-.49 2.083-.32.643-.75 1.14-1.3 1.492-.54.35-1.14.527-1.8.527-.44 0-.86-.076-1.26-.23l-.61 2.884h-.74l1.46-6.926c.05-.242.09-.58.13-1.01.04-.432.07-.72.07-.865z" fill="#333"/><path d="M439.52 58.117h.75l-1.51 7.107c-.08.4-.12.674-.12.827 0 .277.15.416.45.416.18 0 .34-.028.49-.082l-.13.597c-.19.078-.4.117-.62.117-.31 0-.54-.079-.7-.237-.17-.158-.25-.39-.25-.694 0-.242.05-.565.14-.967l1.5-7.084z" fill="#333"/><path d="M441.46 63.783c1.17 0 2.02-.11 2.57-.334.56-.223.83-.572.83-1.049 0-.293-.1-.516-.29-.67-.2-.155-.48-.232-.83-.232-.54 0-1.01.214-1.44.641-.43.428-.7.976-.84 1.644zm-.1.943c0 .563.15 1 .45 1.31.3.31.71.466 1.23.466.53 0 1.11-.18 1.72-.539l-.14.738c-.53.297-1.09.445-1.69.445-.74 0-1.32-.218-1.72-.656-.4-.437-.6-1.05-.6-1.84 0-.676.14-1.307.43-1.895.29-.588.69-1.052 1.18-1.392.5-.34 1.03-.51 1.6-.51.55 0 .98.136 1.31.408.32.271.49.633.49 1.086 0 .692-.34 1.206-1.02 1.541-.68.336-1.75.512-3.23.528l-.01.31z" fill="#333"/><path d="M448.34 69.04c.12.069.27.104.46.104.28 0 .53-.082.76-.246.22-.164.44-.418.66-.76l.75-1.19L449.9 61h.76l.78 4.74.04.451h.03l.15-.31 2.91-4.88h.83l-4.35 7.06c-.41.667-.8 1.127-1.14 1.38-.35.251-.74.377-1.18.377-.22 0-.4-.029-.54-.088l.15-.69z" fill="#333"/><path d="M457.44 66.502c.44 0 .85-.145 1.22-.434.37-.289.66-.683.87-1.183.21-.5.31-1.047.31-1.641 0-.566-.13-.999-.39-1.298-.26-.298-.61-.448-1.07-.448-.66 0-1.23.314-1.7.941-.46.626-.7 1.399-.7 2.317 0 .547.13.975.4 1.283.26.309.61.463 1.06.463zm-.05.645c-.67 0-1.2-.207-1.58-.619-.39-.412-.58-.987-.58-1.725 0-.727.13-1.394.41-2.001.28-.608.66-1.084 1.16-1.43.5-.346 1.05-.518 1.64-.518.67 0 1.19.208 1.58.624.39.416.58.987.58 1.713 0 .739-.14 1.412-.41 2.019-.28.607-.66 1.082-1.15 1.424-.49.342-1.04.513-1.65.513z" fill="#333"/><path d="M462.59 61h.74l-.73 3.48c-.09.477-.14.786-.14.926 0 .731.32 1.096.95 1.096.3 0 .63-.122.98-.366.36-.244.68-.579.98-1.005.3-.426.5-.85.59-1.272l.61-2.859h.74l-.92 4.313c-.13.609-.23 1.171-.28 1.687h-.72l.25-1.57h-.03c-.33.55-.71.974-1.13 1.271-.41.297-.83.445-1.27.445-.51 0-.88-.143-1.13-.43-.25-.287-.38-.695-.38-1.222 0-.113.02-.297.06-.551.04-.254.08-.459.12-.615l.71-3.328z" fill="#333"/><path d="M473.54 67.146c-.67 0-1.19-.216-1.57-.647-.37-.432-.56-1.02-.56-1.767 0-.71.14-1.366.42-1.966.29-.599.68-1.068 1.19-1.406.5-.338 1.05-.507 1.66-.507.57 0 1.04.133 1.43.398l-.18.762c-.35-.344-.79-.515-1.33-.515-.46 0-.88.144-1.25.433-.38.29-.67.682-.89 1.178a3.996 3.996 0 0 0-.31 1.576c0 .578.13 1.025.4 1.342.26.316.63.474 1.1.474.49 0 1-.2 1.56-.603l-.18.81c-.31.167-.58.282-.79.344-.21.063-.45.094-.7.094z" fill="#333"/><path d="M481.17 61.621a5.23 5.23 0 0 0-1.13-.123c-.53 0-1.01.144-1.43.434-.43.29-.77.7-1.02 1.23a4.21 4.21 0 0 0-.37 1.752c0 1.059.38 1.588 1.13 1.588.31 0 .64-.138.97-.413.33-.276.63-.665.91-1.169a6.22 6.22 0 0 0 .58-1.524M480.2 67c.02-.41.09-.949.2-1.617h-.02c-.36.633-.71 1.085-1.06 1.356-.34.272-.73.407-1.15.407-.54 0-.96-.19-1.26-.57-.29-.382-.44-.918-.44-1.609 0-.746.16-1.445.48-2.095.32-.65.76-1.149 1.32-1.497a3.43 3.43 0 0 1 1.86-.522c.51 0 1.14.077 1.89.23l-.8 3.872c-.06.258-.11.61-.17 1.055-.06.445-.08.775-.08.99h-.77z" fill="#333"/><path d="M483.92 61h.72c-.05.418-.14.941-.25 1.57h.02c.34-.55.72-.974 1.13-1.271.42-.297.84-.445 1.28-.445 1 0 1.51.542 1.51 1.628 0 .215-.07.614-.19 1.196l-.7 3.322h-.74l.72-3.48c.09-.477.14-.786.14-.926 0-.731-.32-1.096-.95-1.096-.31 0-.65.132-1.02.396-.37.263-.7.601-.98 1.013-.28.412-.46.823-.54 1.234L483.46 67h-.75l.93-4.307c.11-.543.2-1.107.28-1.693z" fill="#333"/><path d="M493.91 61.639h-1.06l.15-.64h1.05l.24-1.124c.27-1.265.96-1.898 2.08-1.898.25 0 .49.035.72.105l-.13.68c-.16-.098-.38-.146-.66-.146-.35 0-.62.114-.83.342-.21.229-.37.585-.47 1.07l-.21.972h1.51l-.15.639h-1.51l-1.57 7.354h-.74l1.58-7.354z" fill="#333"/><path d="M498.26 66.502c.44 0 .85-.145 1.22-.434.37-.289.66-.683.87-1.183.21-.5.31-1.047.31-1.641 0-.566-.13-.999-.39-1.298-.26-.298-.62-.448-1.07-.448-.67 0-1.23.314-1.7.941-.47.626-.7 1.399-.7 2.317 0 .547.13.975.39 1.283.26.309.62.463 1.07.463zm-.06.645c-.66 0-1.19-.207-1.58-.619-.38-.412-.58-.987-.58-1.725 0-.727.14-1.394.42-2.001.27-.608.66-1.084 1.16-1.43a2.784 2.784 0 0 1 1.64-.518c.66 0 1.19.208 1.58.624.38.416.58.987.58 1.713 0 .739-.14 1.412-.42 2.019a3.367 3.367 0 0 1-1.15 1.424c-.49.342-1.04.513-1.65.513z" fill="#333"/><path d="M504.05 58.117h.75l-1.52 7.107c-.07.4-.11.674-.11.827 0 .277.15.416.45.416.18 0 .34-.028.49-.082l-.13.597c-.19.078-.4.117-.62.117-.31 0-.54-.079-.7-.237-.17-.158-.25-.39-.25-.694 0-.242.05-.565.14-.967l1.5-7.084z" fill="#333"/><path d="M509.84 61.674a3.666 3.666 0 0 0-1.14-.176c-.53 0-1 .144-1.42.43-.42.288-.76.697-1.01 1.228a4.016 4.016 0 0 0-.38 1.729c0 1.078.38 1.617 1.13 1.617.32 0 .64-.138.97-.413.33-.275.63-.658.9-1.148.27-.491.47-1.015.59-1.574M508.87 67c.02-.39.08-.924.2-1.6h-.03c-.32.579-.66 1.014-1.01 1.307-.35.293-.74.44-1.19.44-.53 0-.95-.19-1.25-.566-.3-.377-.45-.92-.45-1.626 0-.746.15-1.44.47-2.08.32-.64.75-1.138 1.3-1.491.56-.354 1.17-.53 1.85-.53.38 0 .78.054 1.21.164l.62-2.901h.72l-1.47 7.008c-.04.149-.08.453-.13.914a10 10 0 0 0-.07.96h-.77z" fill="#333"/><path d="M519.52 61.621a5.23 5.23 0 0 0-1.13-.123c-.53 0-1.01.144-1.43.434-.43.29-.77.7-1.02 1.23a4.21 4.21 0 0 0-.37 1.752c0 1.059.38 1.588 1.13 1.588.31 0 .64-.138.97-.413.33-.276.63-.665.91-1.169a6.22 6.22 0 0 0 .58-1.524M518.55 67c.02-.41.09-.949.2-1.617h-.02c-.36.633-.71 1.085-1.06 1.356-.34.272-.73.407-1.15.407-.54 0-.96-.19-1.26-.57-.29-.382-.44-.918-.44-1.609 0-.746.16-1.445.48-2.095.32-.65.76-1.149 1.32-1.497a3.43 3.43 0 0 1 1.86-.522c.51 0 1.14.077 1.89.23l-.8 3.872c-.06.258-.11.61-.17 1.055-.06.445-.08.775-.08.99h-.77z" fill="#333"/><path d="M526.62 67.146c-.66 0-1.18-.216-1.56-.647-.38-.432-.56-1.02-.56-1.767 0-.71.14-1.366.42-1.966a3.4 3.4 0 0 1 1.18-1.406c.5-.338 1.06-.507 1.67-.507.56 0 1.04.133 1.42.398l-.17.762c-.35-.344-.8-.515-1.34-.515-.45 0-.87.144-1.25.433-.37.29-.67.682-.88 1.178a4.004 4.004 0 0 0-.32 1.576c0 .578.14 1.025.4 1.342.27.316.64.474 1.11.474.48 0 1-.2 1.55-.603l-.17.81c-.32.167-.58.282-.79.344a2.54 2.54 0 0 1-.71.094z" fill="#333"/><path d="M534.26 61.621a5.23 5.23 0 0 0-1.13-.123c-.53 0-1.01.144-1.44.434-.42.29-.76.7-1.01 1.23a4.059 4.059 0 0 0-.37 1.752c0 1.059.37 1.588 1.12 1.588.32 0 .64-.138.98-.413.33-.276.63-.665.9-1.169.28-.504.47-1.012.58-1.524m-.6 3.604c.02-.41.08-.949.2-1.617h-.02c-.36.633-.72 1.085-1.06 1.356-.35.272-.73.407-1.15.407-.54 0-.96-.19-1.26-.57-.3-.382-.45-.918-.45-1.609 0-.746.16-1.445.49-2.095.32-.65.76-1.149 1.31-1.497a3.463 3.463 0 0 1 1.87-.522c.5 0 1.13.077 1.89.23l-.81 3.872c-.05.258-.11.61-.16 1.055-.06.445-.09.775-.09.99h-.76z" fill="#333"/><path d="M537.63 58.117h.75l-1.52 7.107c-.07.4-.11.674-.11.827 0 .277.15.416.45.416.18 0 .34-.028.49-.082l-.13.597c-.19.078-.4.117-.62.117-.31 0-.54-.079-.7-.237-.17-.158-.25-.39-.25-.694 0-.242.05-.565.14-.967l1.5-7.084z" fill="#333"/><path d="M540.42 58.117h.74l-1.51 7.107c-.08.4-.12.674-.12.827 0 .277.15.416.45.416.18 0 .34-.028.49-.082l-.12.597c-.2.078-.41.117-.63.117-.31 0-.54-.079-.7-.237-.16-.158-.25-.39-.25-.694 0-.242.05-.565.14-.967l1.51-7.084z" fill="#333"/><path d="M545.95 61.639h-1.05l.15-.64h1.03l.32-1.516.79-.24-.37 1.757h1.57l-.15.639h-1.56l-.74 3.498c-.07.316-.1.574-.1.773 0 .196.04.338.12.428.08.09.22.135.41.135.18 0 .48-.092.9-.275l-.15.668a2.33 2.33 0 0 1-.48.172 1.86 1.86 0 0 1-.48.074c-.72 0-1.07-.371-1.07-1.114 0-.23.03-.507.11-.832l.75-3.527z" fill="#333"/><path d="M549.54 61h.73l-.2 1.371h.03c.26-.508.54-.888.83-1.14.29-.252.63-.377 1-.377.23 0 .44.041.63.123l-.13.791h-.03a1.158 1.158 0 0 0-.65-.205c-.42 0-.83.264-1.23.793-.4.53-.68 1.199-.86 2.007L549.1 67h-.74l.84-3.937c.18-.825.3-1.512.34-2.063z" fill="#333"/><path d="M553.49 63.783c1.16 0 2.02-.11 2.57-.334.55-.223.83-.572.83-1.049 0-.293-.1-.516-.3-.67-.2-.155-.47-.232-.83-.232-.53 0-1.01.214-1.43.641-.43.428-.71.976-.84 1.644zm-.1.943c0 .563.15 1 .44 1.31.3.31.71.466 1.23.466.54 0 1.11-.18 1.73-.539l-.14.738c-.53.297-1.09.445-1.69.445-.75 0-1.32-.218-1.72-.656-.41-.437-.61-1.05-.61-1.84 0-.676.15-1.307.44-1.895.29-.588.68-1.052 1.18-1.392.5-.34 1.03-.51 1.6-.51.54 0 .98.136 1.3.408.33.271.49.633.49 1.086 0 .692-.34 1.206-1.01 1.541-.68.336-1.76.512-3.23.528l-.01.31z" fill="#333"/><path d="M559.2 63.783c1.17 0 2.02-.11 2.57-.334.55-.223.83-.572.83-1.049 0-.293-.1-.516-.3-.67-.19-.155-.47-.232-.83-.232-.53 0-1 .214-1.43.641-.43.428-.71.976-.84 1.644zm-.1.943c0 .563.15 1 .45 1.31.29.31.7.466 1.23.466s1.11-.18 1.72-.539l-.14.738c-.53.297-1.09.445-1.69.445-.74 0-1.32-.218-1.72-.656-.4-.437-.6-1.05-.6-1.84 0-.676.14-1.307.43-1.895.29-.588.69-1.052 1.18-1.392.5-.34 1.03-.51 1.6-.51.55 0 .98.136 1.31.408.32.271.49.633.49 1.086 0 .692-.34 1.206-1.02 1.541-.68.336-1.75.512-3.23.528l-.01.31z" fill="#333"/><path d="M386.68 80.502c.44 0 .85-.145 1.22-.434.37-.289.66-.683.87-1.183.21-.5.32-1.047.32-1.641 0-.566-.13-.999-.39-1.298-.26-.298-.62-.448-1.07-.448-.67 0-1.24.314-1.71.941-.46.626-.7 1.399-.7 2.317 0 .547.14.975.4 1.283.26.309.61.463 1.06.463zm-.05.645c-.67 0-1.19-.207-1.58-.619-.39-.412-.58-.987-.58-1.725 0-.727.14-1.394.41-2.001.28-.608.66-1.084 1.16-1.43.5-.346 1.05-.518 1.65-.518.66 0 1.18.208 1.57.624.39.416.58.987.58 1.713 0 .739-.14 1.412-.41 2.019-.28.607-.66 1.082-1.15 1.424-.49.342-1.04.513-1.65.513z" fill="#333"/><path d="M391.95 75.639h-1.07l.15-.64h1.06l.24-1.124c.27-1.265.96-1.898 2.07-1.898.25 0 .49.035.72.105l-.13.68c-.16-.098-.38-.146-.66-.146-.34 0-.62.114-.83.342-.21.229-.36.585-.46 1.07l-.22.972h1.52l-.16.639h-1.5l-1.57 7.354h-.74l1.58-7.354z" fill="#333"/><path d="M402.08 75.621a5.23 5.23 0 0 0-1.13-.123c-.53 0-1.01.144-1.43.434-.43.29-.77.7-1.02 1.23a4.21 4.21 0 0 0-.37 1.752c0 1.06.38 1.588 1.13 1.588.31 0 .64-.138.97-.413.33-.276.63-.665.91-1.169.27-.504.46-1.012.58-1.524M401.11 81c.02-.41.09-.949.2-1.617h-.02c-.36.633-.71 1.085-1.06 1.356-.34.272-.73.407-1.15.407-.54 0-.96-.19-1.26-.571-.29-.38-.44-.917-.44-1.608 0-.746.16-1.445.48-2.095.32-.65.76-1.149 1.32-1.497a3.43 3.43 0 0 1 1.86-.522c.51 0 1.14.077 1.89.23l-.8 3.872c-.06.258-.11.609-.17 1.055-.06.445-.08.775-.08.99h-.77z" fill="#333"/><path d="M408.09 75h.73l-.2 1.37h.02c.27-.507.55-.887.84-1.139.29-.252.63-.377 1-.377.23 0 .44.041.63.123l-.13.791h-.03a1.157 1.157 0 0 0-.65-.205c-.42 0-.83.264-1.23.793-.4.53-.68 1.199-.86 2.007L407.65 81h-.74l.84-3.937c.18-.825.29-1.512.34-2.063z" fill="#333"/><path d="M412.04 77.783c1.16 0 2.02-.11 2.57-.334.55-.223.82-.572.82-1.049 0-.293-.09-.516-.29-.67-.2-.155-.47-.232-.83-.232-.53 0-1.01.214-1.43.641-.43.428-.71.976-.84 1.644zm-.1.943c0 .563.15 1 .44 1.31.3.31.71.466 1.23.466.54 0 1.11-.18 1.73-.539l-.15.738c-.52.297-1.09.445-1.68.445-.75 0-1.32-.218-1.72-.656-.41-.437-.61-1.05-.61-1.84 0-.676.15-1.307.44-1.895.29-.588.68-1.052 1.18-1.392.49-.34 1.03-.51 1.6-.51.54 0 .98.136 1.3.408.33.271.49.633.49 1.086 0 .692-.34 1.206-1.02 1.541-.67.336-1.75.512-3.22.528l-.01.31z" fill="#333"/><path d="M419.02 81.146c-.66 0-1.18-.216-1.56-.647-.38-.432-.57-1.02-.57-1.767 0-.71.15-1.366.43-1.966a3.4 3.4 0 0 1 1.18-1.406c.5-.338 1.06-.507 1.66-.507.57 0 1.05.133 1.43.398l-.17.762c-.35-.344-.8-.515-1.34-.515-.45 0-.87.144-1.25.433-.38.29-.67.682-.88 1.178a4.004 4.004 0 0 0-.32 1.576c0 .578.14 1.025.4 1.342.27.316.64.474 1.11.474.48 0 1-.2 1.55-.603l-.17.81c-.32.167-.58.282-.8.344-.21.063-.44.094-.7.094z" fill="#333"/><path d="M423.01 75h.73l-.72 3.48c-.1.477-.14.786-.14.926 0 .731.31 1.096.94 1.096.3 0 .63-.122.99-.366.35-.244.68-.579.98-1.005.29-.426.49-.85.58-1.272l.61-2.859h.74l-.92 4.313c-.13.609-.22 1.171-.28 1.687h-.72l.25-1.57h-.02c-.34.55-.72.974-1.13 1.271-.42.297-.84.445-1.27.445-.51 0-.89-.143-1.14-.43-.25-.287-.38-.695-.38-1.222 0-.113.03-.297.07-.551.04-.254.08-.459.12-.615l.71-3.328z" fill="#333"/><path d="M429.56 75h.73l-.2 1.37h.02c.27-.507.55-.887.84-1.139.29-.252.62-.377 1-.377.23 0 .43.041.63.123l-.13.791h-.03a1.181 1.181 0 0 0-.65-.205c-.42 0-.84.264-1.23.793-.4.53-.68 1.199-.86 2.007L429.12 81h-.74l.84-3.937c.18-.825.29-1.512.34-2.063z" fill="#333"/><path d="M432.46 80.027c.19.137.42.25.69.34.28.09.54.135.79.135.43 0 .76-.087.98-.26.23-.175.34-.43.34-.766 0-.23-.07-.428-.21-.595-.14-.166-.4-.362-.77-.588-.42-.25-.72-.502-.91-.756a1.45 1.45 0 0 1-.29-.89c0-.516.19-.944.57-1.284.38-.34.87-.51 1.48-.51.22 0 .46.026.73.076.26.051.49.125.69.223l-.16.721c-.38-.25-.82-.375-1.3-.375-.38 0-.68.098-.91.296a.962.962 0 0 0-.34.77c0 .231.06.43.19.598.12.168.37.363.75.586.45.277.77.542.95.794.19.252.28.54.28.864 0 .531-.19.954-.58 1.268-.38.315-.91.472-1.58.472-.27 0-.54-.036-.83-.108a2.727 2.727 0 0 1-.71-.279l.15-.732z" fill="#333"/><path d="M439.23 73.494a.519.519 0 0 1-.38-.16.539.539 0 0 1-.15-.379c0-.152.05-.276.16-.372.1-.096.23-.144.37-.144.15 0 .27.048.38.144.1.096.15.22.15.372s-.05.28-.16.384a.506.506 0 0 1-.37.155zm-.8 1.506h.74l-.89 4.224c-.08.4-.12.674-.12.827 0 .277.15.416.45.416.18 0 .34-.028.49-.082l-.13.597c-.19.078-.4.117-.62.117-.31 0-.54-.079-.7-.237-.17-.158-.25-.389-.25-.694 0-.215.05-.537.14-.967l.89-4.2z" fill="#333"/><path d="M440.47 75h.74l.67 4.295c.05.309.07.586.07.832h.02c.12-.277.24-.512.35-.703L444.88 75h.84l-3.61 6h-.64l-1-6z" fill="#333"/><path d="M446.53 77.783c1.17 0 2.02-.11 2.57-.334.55-.223.83-.572.83-1.049 0-.293-.1-.516-.3-.67-.19-.155-.47-.232-.83-.232-.53 0-1 .214-1.43.641-.43.428-.71.976-.84 1.644zm-.1.943c0 .563.15 1 .45 1.31.29.31.7.466 1.23.466s1.11-.18 1.72-.539l-.14.738c-.53.297-1.09.445-1.69.445-.74 0-1.32-.218-1.72-.656-.4-.437-.6-1.05-.6-1.84 0-.676.14-1.307.43-1.895.29-.588.69-1.052 1.18-1.392.5-.34 1.03-.51 1.6-.51.55 0 .98.136 1.31.408.32.271.49.633.49 1.086 0 .692-.34 1.206-1.02 1.541-.68.336-1.75.512-3.23.528l-.01.31z" fill="#333"/><path d="M455.85 75.639h-1.06l.15-.64h1.05l.24-1.124c.27-1.265.97-1.898 2.08-1.898.25 0 .49.035.72.105l-.13.68c-.16-.098-.38-.146-.66-.146-.35 0-.62.114-.83.342-.21.229-.37.585-.47 1.07l-.21.972h1.51l-.15.639h-1.5l-1.57 7.354h-.74l1.57-7.354z" fill="#333"/><path d="M459.04 75h.74l-.73 3.48c-.09.477-.14.786-.14.926 0 .731.32 1.096.94 1.096.31 0 .64-.122.99-.366.36-.244.68-.579.98-1.005.3-.426.5-.85.59-1.272l.61-2.859h.74l-.92 4.313c-.14.609-.23 1.171-.28 1.687h-.72l.25-1.57h-.03c-.34.55-.71.974-1.13 1.271-.41.297-.83.445-1.27.445-.51 0-.89-.143-1.14-.43-.25-.287-.37-.695-.37-1.222 0-.113.02-.297.06-.551.04-.254.08-.459.12-.615l.71-3.328z" fill="#333"/><path d="M465.63 75h.72c-.05.418-.14.941-.25 1.57h.02c.34-.55.72-.974 1.14-1.271.41-.297.84-.445 1.27-.445 1.01 0 1.51.542 1.51 1.628 0 .215-.06.614-.19 1.196l-.7 3.322h-.74l.72-3.48c.09-.477.14-.786.14-.926 0-.731-.31-1.096-.94-1.096-.31 0-.66.132-1.03.396a3.93 3.93 0 0 0-.97 1.013c-.28.412-.47.823-.55 1.234L465.17 81h-.74l.92-4.307c.11-.543.2-1.107.28-1.693z" fill="#333"/><path d="M473.29 81.146c-.67 0-1.19-.216-1.57-.647-.37-.432-.56-1.02-.56-1.767 0-.71.14-1.366.42-1.966.29-.599.68-1.068 1.18-1.406a2.947 2.947 0 0 1 1.67-.507c.56 0 1.04.133 1.43.398l-.18.762c-.35-.344-.79-.515-1.33-.515-.46 0-.88.144-1.25.433-.38.29-.68.682-.89 1.178a3.996 3.996 0 0 0-.31 1.576c0 .578.13 1.025.4 1.342.26.316.63.474 1.1.474.48 0 1-.2 1.56-.603l-.18.81c-.31.167-.58.282-.79.344-.22.063-.45.094-.7.094z" fill="#333"/><path d="M477.37 75.639h-1.05l.15-.64h1.03l.32-1.516.79-.24-.37 1.757h1.56l-.15.639h-1.55l-.74 3.498c-.07.316-.11.574-.11.773 0 .196.04.338.13.428.08.09.21.135.41.135.18 0 .48-.092.89-.275l-.14.668c-.14.066-.3.124-.48.172-.19.049-.35.074-.48.074-.72 0-1.08-.371-1.08-1.114 0-.23.04-.507.11-.832l.76-3.527z" fill="#333"/><path d="M481.81 73.494a.519.519 0 0 1-.38-.16.539.539 0 0 1-.15-.379c0-.152.05-.276.16-.372.1-.096.23-.144.37-.144.15 0 .27.048.38.144.1.096.15.22.15.372s-.05.28-.16.384a.506.506 0 0 1-.37.155zm-.8 1.506h.74l-.89 4.224c-.08.4-.12.674-.12.827 0 .277.15.416.45.416.18 0 .34-.028.49-.082l-.13.597c-.19.078-.4.117-.62.117-.31 0-.54-.079-.7-.237-.17-.158-.25-.389-.25-.694 0-.215.05-.537.14-.967l.89-4.2z" fill="#333"/><path d="M484.92 80.502c.44 0 .85-.145 1.22-.434.37-.289.66-.683.87-1.183.21-.5.31-1.047.31-1.641 0-.566-.13-.999-.39-1.298-.26-.298-.61-.448-1.07-.448-.66 0-1.23.314-1.7.941-.46.626-.7 1.399-.7 2.317 0 .547.13.975.4 1.283.26.309.61.463 1.06.463zm-.05.645c-.67 0-1.2-.207-1.58-.619-.39-.412-.58-.987-.58-1.725 0-.727.13-1.394.41-2.001.28-.608.66-1.084 1.16-1.43.5-.346 1.05-.518 1.64-.518.67 0 1.19.208 1.58.624.39.416.58.987.58 1.713 0 .739-.14 1.412-.41 2.019-.28.607-.66 1.082-1.15 1.424-.49.342-1.04.513-1.65.513z" fill="#333"/><path d="M490.09 75h.72c-.05.418-.14.941-.25 1.57h.02c.34-.55.72-.974 1.13-1.271.42-.297.84-.445 1.28-.445 1 0 1.51.542 1.51 1.628 0 .215-.07.614-.19 1.196l-.7 3.322h-.74l.72-3.48c.09-.477.14-.786.14-.926 0-.731-.32-1.096-.95-1.096-.31 0-.65.132-1.02.396-.37.263-.7.601-.98 1.013-.28.412-.46.823-.54 1.234L489.63 81h-.75l.93-4.307c.11-.543.2-1.107.28-1.693z" fill="#333"/><path d="M500.8 73.494a.519.519 0 0 1-.38-.16.539.539 0 0 1-.15-.379c0-.152.05-.276.16-.372.1-.096.23-.144.37-.144.15 0 .27.048.38.144.1.096.15.22.15.372s-.05.28-.16.384a.506.506 0 0 1-.37.155zM500 75h.74l-.89 4.224c-.08.4-.12.674-.12.827 0 .277.15.416.45.416.18 0 .34-.028.49-.082l-.13.597c-.19.078-.4.117-.62.117-.31 0-.54-.079-.7-.237-.17-.158-.25-.389-.25-.694 0-.215.05-.537.14-.967l.89-4.2z" fill="#333"/><path d="M502.77 75h.72c-.05.418-.14.941-.25 1.57h.02c.34-.55.72-.974 1.13-1.271.42-.297.84-.445 1.28-.445 1 0 1.51.542 1.51 1.628 0 .215-.07.614-.19 1.196l-.7 3.322h-.74l.72-3.48c.09-.477.14-.786.14-.926 0-.731-.32-1.096-.95-1.096-.31 0-.65.132-1.02.396-.37.263-.7.601-.98 1.013-.28.412-.46.823-.54 1.234L502.31 81h-.75l.93-4.307c.11-.543.2-1.107.28-1.693z" fill="#333"/><path d="M509.45 75.639h-1.05l.15-.64h1.03l.32-1.516.79-.24-.37 1.757h1.56l-.15.639h-1.55l-.74 3.498c-.07.316-.11.574-.11.773 0 .196.04.338.13.428.08.09.21.135.41.135.18 0 .48-.092.89-.275l-.14.668c-.14.066-.3.124-.48.172-.19.049-.35.074-.48.074-.72 0-1.08-.371-1.08-1.114 0-.23.04-.507.11-.832l.76-3.527z" fill="#333"/><path d="M514.22 80.502c.44 0 .85-.145 1.22-.434.37-.289.66-.683.87-1.183.21-.5.31-1.047.31-1.641 0-.566-.13-.999-.39-1.298-.26-.298-.62-.448-1.07-.448-.67 0-1.23.314-1.7.941-.47.626-.7 1.399-.7 2.317 0 .547.13.975.39 1.283.26.309.62.463 1.07.463zm-.05.645c-.67 0-1.2-.207-1.59-.619-.38-.412-.58-.987-.58-1.725 0-.727.14-1.394.42-2.001a3.35 3.35 0 0 1 1.16-1.43 2.784 2.784 0 0 1 1.64-.518c.66 0 1.19.208 1.58.624.38.416.58.987.58 1.713 0 .739-.14 1.412-.42 2.019-.27.607-.65 1.082-1.14 1.424-.5.342-1.04.513-1.65.513z" fill="#333"/><path d="M526.32 75.621a5.23 5.23 0 0 0-1.13-.123c-.53 0-1.01.144-1.44.434-.42.29-.76.7-1.01 1.23a4.059 4.059 0 0 0-.37 1.752c0 1.06.37 1.588 1.12 1.588.32 0 .64-.138.98-.413.33-.276.63-.665.91-1.169.27-.504.46-1.012.58-1.524M525.35 81c.02-.41.08-.949.2-1.617h-.02c-.36.633-.71 1.085-1.06 1.356-.35.272-.73.407-1.15.407-.54 0-.96-.19-1.26-.571-.3-.38-.45-.917-.45-1.608 0-.746.16-1.445.49-2.095.32-.65.76-1.149 1.32-1.497a3.405 3.405 0 0 1 1.86-.522c.51 0 1.13.077 1.89.23l-.8 3.872c-.06.258-.11.609-.17 1.055-.06.445-.09.775-.09.99h-.76z" fill="#333"/><path d="M531.11 80.027c.18.137.41.25.68.34.28.09.54.135.79.135.43 0 .76-.087.98-.26.23-.175.34-.43.34-.766 0-.23-.07-.428-.21-.595-.14-.166-.4-.362-.77-.588-.42-.25-.72-.502-.91-.756a1.443 1.443 0 0 1-.28-.89c0-.516.19-.944.56-1.284.38-.34.88-.51 1.48-.51.22 0 .47.026.73.076.26.051.49.125.69.223l-.15.721a2.35 2.35 0 0 0-1.3-.375c-.38 0-.69.098-.91.296a.97.97 0 0 0-.35.77c0 .231.06.43.19.598.12.168.37.363.75.586.45.277.77.542.96.794.18.252.28.54.28.864 0 .531-.2.954-.58 1.268-.39.315-.92.472-1.59.472-.27 0-.54-.036-.82-.108a2.668 2.668 0 0 1-.72-.279l.16-.732z" fill="#333"/><path d="M537.87 73.494a.519.519 0 0 1-.38-.16.539.539 0 0 1-.15-.379c0-.152.05-.276.16-.372.1-.096.23-.144.37-.144.15 0 .27.048.38.144a.512.512 0 0 1-.01.756.506.506 0 0 1-.37.155zm-.8 1.506h.74l-.89 4.224c-.08.4-.12.674-.12.827 0 .277.15.416.45.416.18 0 .34-.028.49-.082l-.13.597c-.19.078-.4.117-.62.117-.31 0-.54-.079-.7-.237-.16-.158-.25-.389-.25-.694 0-.215.05-.537.14-.967l.89-4.2z" fill="#333"/><path d="M539.84 75h.72c-.05.418-.14.941-.25 1.57h.02c.34-.55.72-.974 1.13-1.271.42-.297.84-.445 1.28-.445 1.01 0 1.51.542 1.51 1.628 0 .215-.06.614-.19 1.196l-.7 3.322h-.74l.72-3.48c.09-.477.14-.786.14-.926 0-.731-.31-1.096-.94-1.096-.32 0-.66.132-1.03.396a3.93 3.93 0 0 0-.97 1.013c-.28.412-.47.823-.55 1.234L539.38 81h-.75l.93-4.307c.11-.543.2-1.107.28-1.693z" fill="#333"/><path d="M550.07 75.621a5.104 5.104 0 0 0-1.18-.123c-.51 0-.97.145-1.4.436-.42.291-.76.7-1 1.225a4.095 4.095 0 0 0-.37 1.72c0 1.082.37 1.623 1.1 1.623.34 0 .68-.144 1.02-.43.34-.288.65-.682.91-1.184.27-.502.45-.997.56-1.486m-4.84 5.262c.57.332 1.12.498 1.65.498.66 0 1.19-.187 1.58-.56.4-.373.7-.991.89-1.854l.3-1.348h-.02c-.34.594-.68 1.034-1.03 1.32-.34.284-.73.426-1.16.426-.54 0-.96-.187-1.26-.562-.3-.375-.45-.92-.45-1.635 0-.746.15-1.434.47-2.065.31-.63.75-1.127 1.3-1.489a3.32 3.32 0 0 1 1.84-.542c.27 0 .59.023.97.068.38.045.7.096.97.155l-1.16 5.496c-.26 1.168-.65 2.001-1.18 2.5-.53.497-1.25.746-2.16.746-.6 0-1.16-.144-1.69-.433l.14-.72z" fill="#333"/><path d="M553.45 72.117h.74l-1.51 7.107c-.08.4-.12.674-.12.827 0 .277.15.416.45.416.18 0 .35-.028.49-.082l-.12.597c-.2.078-.41.117-.63.117-.3 0-.54-.079-.7-.237-.16-.158-.24-.39-.24-.694 0-.242.04-.565.13-.967l1.51-7.084z" fill="#333"/><path d="M555.39 77.783c1.16 0 2.02-.11 2.57-.334.55-.223.82-.572.82-1.049 0-.293-.09-.516-.29-.67-.2-.155-.47-.232-.83-.232-.53 0-1.01.214-1.44.641-.42.428-.7.976-.83 1.644zm-.1.943c0 .563.15 1 .44 1.31.3.31.71.466 1.23.466.54 0 1.11-.18 1.73-.539l-.15.738c-.52.297-1.09.445-1.68.445-.75 0-1.32-.218-1.73-.656-.4-.437-.6-1.05-.6-1.84 0-.676.15-1.307.44-1.895.29-.588.68-1.052 1.18-1.392.49-.34 1.03-.51 1.6-.51.54 0 .98.136 1.3.408.33.271.49.633.49 1.086 0 .692-.34 1.206-1.02 1.541-.67.336-1.75.512-3.22.528l-.01.31z" fill="#333"/><path d="M564.57 75h.74l-.2 1.37h.02c.27-.507.55-.887.84-1.139.29-.252.62-.377 1-.377.22 0 .43.041.63.123l-.14.791h-.02a1.181 1.181 0 0 0-.65-.205c-.43 0-.84.264-1.23.793-.4.53-.69 1.199-.86 2.007L564.14 81h-.74l.83-3.937c.19-.825.3-1.512.34-2.063z" fill="#333"/><path d="M568.52 77.783c1.17 0 2.02-.11 2.58-.334.55-.223.82-.572.82-1.049 0-.293-.1-.516-.29-.67-.2-.155-.48-.232-.83-.232-.53 0-1.01.214-1.44.641-.42.428-.7.976-.84 1.644zm-.1.943c0 .563.15 1 .45 1.31.3.31.71.466 1.23.466.53 0 1.11-.18 1.72-.539l-.14.738c-.53.297-1.09.445-1.69.445-.74 0-1.32-.218-1.72-.656-.4-.437-.6-1.05-.6-1.84 0-.676.14-1.307.43-1.895.3-.588.69-1.052 1.19-1.392.49-.34 1.02-.51 1.59-.51.55 0 .98.136 1.31.408.32.271.49.633.49 1.086 0 .692-.34 1.206-1.02 1.541-.68.336-1.75.512-3.22.528l-.02.31z" fill="#333"/><path d="M575.51 81.146c-.67 0-1.19-.216-1.56-.647-.38-.432-.57-1.02-.57-1.767 0-.71.14-1.366.43-1.966.28-.599.67-1.068 1.18-1.406.5-.338 1.05-.507 1.66-.507.57 0 1.04.133 1.43.398l-.18.762c-.35-.344-.79-.515-1.33-.515-.46 0-.88.144-1.25.433-.38.29-.67.682-.88 1.178a3.835 3.835 0 0 0-.32 1.576c0 .578.13 1.025.4 1.342.26.316.63.474 1.1.474.49 0 1-.2 1.56-.603l-.18.81c-.31.167-.57.282-.79.344-.21.063-.45.094-.7.094z" fill="#333"/><path d="M580.65 80.502c.44 0 .85-.145 1.22-.434.37-.289.66-.683.87-1.183.21-.5.31-1.047.31-1.641 0-.566-.13-.999-.38-1.298-.26-.298-.62-.448-1.07-.448-.67 0-1.24.314-1.71.941-.46.626-.7 1.399-.7 2.317 0 .547.13.975.4 1.283.26.309.61.463 1.06.463zm-.05.645c-.67 0-1.2-.207-1.58-.619-.39-.412-.58-.987-.58-1.725 0-.727.14-1.394.41-2.001.28-.608.66-1.084 1.16-1.43.5-.346 1.05-.518 1.64-.518.67 0 1.19.208 1.58.624.39.416.58.987.58 1.713 0 .739-.14 1.412-.41 2.019-.28.607-.66 1.082-1.15 1.424-.49.342-1.04.513-1.65.513z" fill="#333"/><path d="M585.78 75h.73l-.2 1.37h.03c.26-.507.54-.887.83-1.139.29-.252.63-.377 1.01-.377.22 0 .43.041.62.123l-.13.791h-.03a1.157 1.157 0 0 0-.65-.205c-.42 0-.83.264-1.23.793-.4.53-.68 1.199-.86 2.007L585.34 81h-.74l.84-3.937c.18-.825.3-1.512.34-2.063z" fill="#333"/><path d="M593.57 75.674a3.603 3.603 0 0 0-1.13-.176c-.53 0-1.01.144-1.43.43-.42.288-.75.697-1 1.228a4.016 4.016 0 0 0-.38 1.729c0 1.078.38 1.617 1.13 1.617.31 0 .63-.138.96-.413.33-.275.63-.658.91-1.148.27-.491.46-1.015.59-1.574M592.61 81c.02-.39.08-.924.19-1.6h-.02c-.33.579-.66 1.014-1.01 1.307-.35.293-.75.44-1.19.44-.54 0-.95-.19-1.26-.566-.3-.377-.45-.92-.45-1.626 0-.746.16-1.44.48-2.08.31-.64.75-1.138 1.3-1.491.55-.354 1.17-.53 1.85-.53.38 0 .78.054 1.21.164l.61-2.901h.73l-1.48 7.008c-.03.149-.07.453-.12.914-.05.46-.08.78-.08.96h-.76z" fill="#333"/><path d="M595.59 81.117a.54.54 0 0 1-.54-.557c0-.156.05-.287.16-.392.1-.106.23-.158.38-.158.16 0 .29.052.4.158a.538.538 0 0 1 0 .785.542.542 0 0 1-.4.164z" fill="#333"/></g></svg>