<svg ti:v="1" width="498" height="103" viewBox="0 0 498 103" xmlns="http://www.w3.org/2000/svg" xmlns:ti="urn:schemas-jetbrains-com:tisvg"><rect id="frame" width="498" height="103" fill="none"/><path fill-rule="evenodd" d="M20.05 20.008h3.744v6.336h7.272v-6.336h3.744V37h-3.744v-7.344h-7.272V37H20.05V20.008z" fill="#FFF"/><path fill-rule="evenodd" d="M40.643 28.504c0 .801.123 1.532.37 2.196a4.875 4.875 0 0 0 2.736 2.868c.65.272 1.373.408 2.173.408s1.524-.136 2.172-.408a4.865 4.865 0 0 0 1.668-1.14A5.023 5.023 0 0 0 50.83 30.7c.248-.664.372-1.395.372-2.196 0-.783-.124-1.512-.372-2.184a5.019 5.019 0 0 0-1.07-1.74 4.849 4.849 0 0 0-1.667-1.139c-.648-.273-1.372-.409-2.172-.409s-1.523.136-2.172.409a4.858 4.858 0 0 0-1.668 1.139 5.017 5.017 0 0 0-1.068 1.74 6.264 6.264 0 0 0-.371 2.184zm-3.89 0c0-1.359.229-2.592.685-3.696a8.115 8.115 0 0 1 1.908-2.82A8.415 8.415 0 0 1 42.25 20.2c1.12-.416 2.344-.624 3.672-.624 1.328 0 2.552.208 3.672.624a8.406 8.406 0 0 1 2.904 1.788 8.104 8.104 0 0 1 1.909 2.82c.455 1.104.683 2.337.683 3.696 0 1.36-.228 2.592-.683 3.696a8.095 8.095 0 0 1-1.91 2.82 8.39 8.39 0 0 1-2.903 1.788c-1.12.416-2.344.624-3.672.624-1.328 0-2.552-.208-3.672-.624a8.4 8.4 0 0 1-2.904-1.788 8.106 8.106 0 0 1-1.908-2.82c-.456-1.104-.684-2.336-.684-3.696z" fill="#FFF"/><path fill-rule="evenodd" d="M60.322 23.32h-4.849v-3.313h13.441v3.313h-4.849V37h-3.743V23.32z" fill="#FFF"/><path fill-rule="evenodd" d="M85.113 24.16c-.305-.384-.717-.668-1.236-.853a4.452 4.452 0 0 0-1.476-.275c-.272 0-.552.032-.84.096a3.22 3.22 0 0 0-.816.3 1.779 1.779 0 0 0-.624.54c-.16.224-.24.496-.24.816 0 .512.192.904.576 1.176.385.272.868.504 1.452.696.584.192 1.212.384 1.884.576.672.192 1.3.464 1.884.816a4.46 4.46 0 0 1 1.452 1.416c.384.592.576 1.384.576 2.376 0 .944-.176 1.768-.528 2.471a5.02 5.02 0 0 1-1.427 1.753 6.09 6.09 0 0 1-2.089 1.032 9.174 9.174 0 0 1-2.508.335c-1.104 0-2.128-.167-3.07-.503-.947-.336-1.825-.88-2.642-1.632l2.664-2.928c.384.512.867.908 1.451 1.188a4.091 4.091 0 0 0 2.737.312c.312-.072.591-.18.84-.324.248-.144.448-.328.6-.552.151-.224.228-.488.228-.792 0-.512-.196-.916-.588-1.212-.393-.296-.884-.548-1.476-.756a46.349 46.349 0 0 0-1.92-.624 8.587 8.587 0 0 1-1.92-.841 4.596 4.596 0 0 1-1.475-1.391c-.393-.576-.589-1.336-.589-2.28 0-.913.181-1.712.54-2.4.36-.688.84-1.264 1.44-1.728a6.276 6.276 0 0 1 2.076-1.044 8.49 8.49 0 0 1 2.423-.348c.961 0 1.889.136 2.786.408a6.436 6.436 0 0 1 2.423 1.367l-2.568 2.809z" fill="#FFF"/><path fill-rule="evenodd" d="M93.633 27.208h2.496c.336 0 .66-.032.973-.096.311-.064.592-.172.84-.324.248-.152.447-.36.599-.624.153-.264.229-.596.229-.996 0-.432-.101-.78-.301-1.044a1.98 1.98 0 0 0-.768-.612 3.287 3.287 0 0 0-1.044-.276c-.383-.04-.753-.06-1.104-.06h-1.92m-3.744-3.168h6.312c.88 0 1.712.08 2.496.24.784.16 1.468.437 2.052.828.584.392 1.048.92 1.392 1.584.344.664.516 1.5.516 2.508 0 .992-.16 1.824-.479 2.496a4.103 4.103 0 0 1-1.32 1.608c-.561.4-1.225.684-1.993.852-.767.168-1.599.252-2.496.252h-2.736V37h-3.744V20.008z" fill="#FFF"/><path fill-rule="evenodd" d="M107.385 28.504c0 .801.123 1.532.372 2.196a5.018 5.018 0 0 0 1.067 1.728 4.894 4.894 0 0 0 1.668 1.14c.649.272 1.372.408 2.172.408.801 0 1.525-.136 2.172-.408a4.87 4.87 0 0 0 1.669-1.14 5.036 5.036 0 0 0 1.068-1.728 6.228 6.228 0 0 0 .373-2.196c0-.783-.125-1.512-.373-2.184a5.032 5.032 0 0 0-1.068-1.74 4.853 4.853 0 0 0-1.669-1.139c-.647-.273-1.371-.409-2.172-.409-.8 0-1.523.136-2.172.409a4.877 4.877 0 0 0-1.668 1.139 5.014 5.014 0 0 0-1.067 1.74 6.241 6.241 0 0 0-.372 2.184zm-3.889 0c0-1.359.229-2.592.685-3.696a8.115 8.115 0 0 1 1.908-2.82 8.41 8.41 0 0 1 2.903-1.788c1.121-.416 2.344-.624 3.672-.624 1.328 0 2.553.208 3.672.624a8.387 8.387 0 0 1 2.904 1.788 8.09 8.09 0 0 1 1.909 2.82c.456 1.104.683 2.337.683 3.696 0 1.36-.227 2.592-.683 3.696a8.081 8.081 0 0 1-1.909 2.82 8.372 8.372 0 0 1-2.904 1.788c-1.119.416-2.344.624-3.672.624-1.328 0-2.551-.208-3.672-.624a8.396 8.396 0 0 1-2.903-1.788 8.106 8.106 0 0 1-1.908-2.82c-.456-1.104-.685-2.336-.685-3.696z" fill="#FFF"/><path fill-rule="evenodd" d="M127.064 23.32h-4.848v-3.313h13.44v3.313h-4.848V37h-3.744V23.32z" fill="#FFF"/><path fill-rule="evenodd" d="M145.352 24.16c-.304-.384-.716-.668-1.235-.853a4.462 4.462 0 0 0-1.476-.275c-.273 0-.553.032-.84.096-.289.064-.56.164-.816.3a1.77 1.77 0 0 0-.624.54c-.16.224-.24.496-.24.816 0 .512.192.904.576 1.176.384.272.868.504 1.452.696.584.192 1.212.384 1.884.576a7.756 7.756 0 0 1 1.883.816 4.463 4.463 0 0 1 1.453 1.416c.383.592.576 1.384.576 2.376 0 .944-.177 1.768-.529 2.471a5.008 5.008 0 0 1-1.427 1.753c-.6.464-1.297.808-2.088 1.032a9.184 9.184 0 0 1-2.508.335c-1.104 0-2.129-.167-3.072-.503-.945-.336-1.824-.88-2.641-1.632l2.664-2.928c.385.512.868.908 1.452 1.188a4.1 4.1 0 0 0 2.737.312c.311-.072.591-.18.84-.324.248-.144.448-.328.6-.552.151-.224.228-.488.228-.792 0-.512-.197-.916-.588-1.212-.393-.296-.884-.548-1.476-.756a46.222 46.222 0 0 0-1.92-.624 8.567 8.567 0 0 1-1.921-.841 4.61 4.61 0 0 1-1.475-1.391c-.393-.576-.588-1.336-.588-2.28 0-.913.18-1.712.539-2.4a5.23 5.23 0 0 1 1.44-1.728 6.265 6.265 0 0 1 2.077-1.044 8.49 8.49 0 0 1 2.423-.348c.96 0 1.888.136 2.785.408a6.42 6.42 0 0 1 2.423 1.367l-2.568 2.809z" fill="#FFF"/><path fill-rule="evenodd" d="M97.264 47.875h-2.525V46.15h7v1.725h-2.526V55h-1.949v-7.125z" fill="#525F85"/><path fill-rule="evenodd" d="M104.275 50.575c0 .417.064.798.193 1.144a2.546 2.546 0 0 0 1.426 1.494c.338.141.715.212 1.131.212.417 0 .794-.071 1.131-.212a2.546 2.546 0 0 0 1.426-1.494 3.25 3.25 0 0 0 .193-1.144c0-.408-.064-.788-.193-1.138a2.609 2.609 0 0 0-.557-.906 2.546 2.546 0 0 0-.869-.594 2.904 2.904 0 0 0-1.131-.213c-.416 0-.793.072-1.131.213-.338.142-.627.34-.869.594a2.624 2.624 0 0 0-.557.906c-.129.35-.193.73-.193 1.138zm-2.025 0c0-.708.119-1.351.357-1.925a4.209 4.209 0 0 1 .993-1.469 4.38 4.38 0 0 1 1.513-.931 5.443 5.443 0 0 1 1.912-.325c.691 0 1.33.108 1.912.325a4.395 4.395 0 0 1 1.514.931c.424.405.756.894.993 1.469.237.574.356 1.217.356 1.925s-.119 1.35-.356 1.925a4.236 4.236 0 0 1-.993 1.469c-.426.404-.93.714-1.514.931a5.462 5.462 0 0 1-1.912.324 5.466 5.466 0 0 1-1.912-.324 4.38 4.38 0 0 1-1.513-.931 4.209 4.209 0 0 1-.993-1.469c-.238-.575-.357-1.217-.357-1.925z" fill="#525F85"/><path fill-rule="evenodd" d="M115.076 49.9h1.299c.176 0 .344-.017.507-.051.163-.033.307-.089.437-.168a.896.896 0 0 0 .313-.325 1.03 1.03 0 0 0 .118-.519c0-.225-.052-.406-.156-.543a1.032 1.032 0 0 0-.4-.32 1.748 1.748 0 0 0-.544-.143 5.488 5.488 0 0 0-.574-.032h-1m-1.951-1.649h3.288c.458 0 .892.041 1.3.125a2.95 2.95 0 0 1 1.068.431c.305.204.547.479.726.825.178.346.268.781.268 1.306 0 .517-.083.95-.25 1.3-.166.35-.395.629-.687.837a2.779 2.779 0 0 1-1.037.445c-.401.086-.834.13-1.301.13h-1.424V55h-1.951v-8.85z" fill="#525F85"/><path fill-rule="evenodd" d="M127.4 48.25l-1.775 1.563-1.063-1.225 2.888-2.438h1.75V55h-1.8v-6.75z" fill="#525F85"/><path fill-rule="evenodd" d="M133.488 50.575c0 .233.01.513.031.837.02.325.076.638.168.937.092.301.232.555.419.763.188.209.452.313.794.313.333 0 .596-.104.787-.313.192-.208.334-.462.426-.763.091-.299.147-.612.168-.937.021-.324.031-.604.031-.837 0-.233-.01-.513-.031-.838a4.124 4.124 0 0 0-.168-.937 1.957 1.957 0 0 0-.426-.763c-.191-.208-.454-.313-.787-.313-.342 0-.606.105-.794.313a2.01 2.01 0 0 0-.419.763 4.017 4.017 0 0 0-.168.937c-.021.325-.031.605-.031.838zm-1.875 0c0-.525.047-1.059.143-1.601a4.658 4.658 0 0 1 .513-1.474 3.03 3.03 0 0 1 1.006-1.081c.425-.28.967-.419 1.625-.419s1.199.139 1.625.419c.425.279.76.639 1.006 1.081.246.441.417.933.513 1.474.095.542.143 1.076.143 1.601 0 .524-.048 1.059-.143 1.6a4.689 4.689 0 0 1-.513 1.475 3.048 3.048 0 0 1-1.006 1.081c-.426.28-.967.419-1.625.419s-1.2-.139-1.625-.419a3.03 3.03 0 0 1-1.006-1.081 4.664 4.664 0 0 1-.513-1.475 9.157 9.157 0 0 1-.143-1.6z" fill="#525F85"/><path fill-rule="evenodd" d="M140.888 50.575c0 .233.011.513.031.837.021.325.077.638.169.937.092.301.231.555.418.763.188.209.453.313.795.313.332 0 .596-.104.787-.313a1.94 1.94 0 0 0 .425-.763 4.18 4.18 0 0 0 .169-.937c.02-.324.031-.604.031-.837 0-.233-.011-.513-.031-.838a4.18 4.18 0 0 0-.169-.937 1.955 1.955 0 0 0-.425-.763c-.191-.208-.455-.313-.787-.313-.342 0-.607.105-.795.313a2.008 2.008 0 0 0-.418.763 4.07 4.07 0 0 0-.169.937c-.02.325-.031.605-.031.838zm-1.875 0c0-.525.048-1.059.144-1.601a4.657 4.657 0 0 1 .512-1.474 3.033 3.033 0 0 1 1.007-1.081c.424-.28.966-.419 1.625-.419.658 0 1.199.139 1.625.419.424.279.76.639 1.006 1.081.246.441.416.933.512 1.474.095.542.144 1.076.144 1.601 0 .524-.049 1.059-.144 1.6a4.687 4.687 0 0 1-.512 1.475 3.057 3.057 0 0 1-1.006 1.081c-.426.28-.967.419-1.625.419-.659 0-1.201-.139-1.625-.419a3.033 3.033 0 0 1-1.007-1.081 4.662 4.662 0 0 1-.512-1.475 9.16 9.16 0 0 1-.144-1.6z" fill="#525F85"/><path fill-rule="evenodd" d="M33.364 61.875H30.84V60.15h7v1.725h-2.525V69h-1.95v-7.125z" fill="#525F85"/><path fill-rule="evenodd" d="M38.802 60.15h1.95V69h-1.95v-8.85z" fill="#525F85"/><path fill-rule="evenodd" d="M42.526 60.15h2.95l2.037 5.774h.026l2.05-5.774h2.937V69h-1.95v-6.787h-.026L48.226 69h-1.488l-2.236-6.787h-.026V69h-1.95v-8.85z" fill="#525F85"/><path fill-rule="evenodd" d="M54.401 60.15h6.013v1.8h-4.063v1.649h3.838V65.4h-3.838v1.8h4.287V69h-6.237v-8.85z" fill="#525F85"/><path fill-rule="evenodd" d="M64.689 66.638h-3.076v-1.5h3.076v1.5z" fill="#525F85"/><path fill-rule="evenodd" d="M71.69 62.45a1.924 1.924 0 0 0-.707-.538 2.35 2.35 0 0 0-.97-.188c-.367 0-.706.072-1.017.213a2.45 2.45 0 0 0-.813.594 2.793 2.793 0 0 0-.539.906c-.129.35-.193.73-.193 1.138 0 .417.065.798.194 1.144.13.345.306.645.53.9.227.254.492.452.796.594.303.141.63.212.98.212.4 0 .755-.083 1.063-.25.309-.166.563-.4.763-.701l1.624 1.213a3.381 3.381 0 0 1-1.424 1.162 4.41 4.41 0 0 1-1.776.375 5.462 5.462 0 0 1-1.911-.324 4.38 4.38 0 0 1-1.514-.931 4.209 4.209 0 0 1-.992-1.469c-.24-.575-.359-1.217-.359-1.925s.12-1.351.359-1.925a4.209 4.209 0 0 1 .992-1.469 4.38 4.38 0 0 1 1.514-.931 5.44 5.44 0 0 1 1.911-.325c.25 0 .51.023.782.069.27.046.536.118.8.219.261.099.513.233.757.399.241.167.457.371.65.612l-1.5 1.226z" fill="#525F85"/><path fill-rule="evenodd" d="M76.014 64.575c0 .417.064.798.193 1.144a2.536 2.536 0 0 0 1.426 1.494c.337.141.714.212 1.13.212.417 0 .794-.071 1.132-.212a2.544 2.544 0 0 0 1.426-1.494 3.25 3.25 0 0 0 .193-1.144c0-.408-.064-.788-.193-1.138a2.639 2.639 0 0 0-.557-.906 2.544 2.544 0 0 0-.87-.594 2.911 2.911 0 0 0-1.13-.213c-.417 0-.794.072-1.131.213a2.536 2.536 0 0 0-1.426 1.5c-.13.35-.193.73-.193 1.138zm-2.025 0c0-.708.119-1.351.356-1.925a4.236 4.236 0 0 1 .993-1.469c.426-.404.93-.714 1.514-.931a5.44 5.44 0 0 1 1.912-.325c.69 0 1.329.108 1.912.325a4.38 4.38 0 0 1 1.513.931c.425.405.757.894.993 1.469.238.574.357 1.217.357 1.925s-.119 1.35-.357 1.925a4.209 4.209 0 0 1-.993 1.469 4.38 4.38 0 0 1-1.513.931 5.468 5.468 0 0 1-1.912.324c-.691 0-1.33-.108-1.912-.324a4.395 4.395 0 0 1-1.514-.931 4.236 4.236 0 0 1-.993-1.469c-.237-.575-.356-1.217-.356-1.925z" fill="#525F85"/><path fill-rule="evenodd" d="M84.863 60.15h2.65l3.762 6.149h.026V60.15h1.95V69h-2.55l-3.863-6.3h-.025V69h-1.95v-8.85z" fill="#525F85"/><path fill-rule="evenodd" d="M99.426 62.313a1.38 1.38 0 0 0-.644-.443 2.301 2.301 0 0 0-.768-.145 2.04 2.04 0 0 0-.438.051c-.15.033-.292.085-.425.156a.914.914 0 0 0-.325.281.707.707 0 0 0-.125.425c0 .267.1.471.3.613.2.141.452.262.757.362.303.1.631.2.98.3.35.1.678.242.982.425.304.183.556.429.757.738.199.308.299.72.299 1.237 0 .492-.092.921-.275 1.287-.183.367-.43.671-.743.913a3.166 3.166 0 0 1-1.088.537 4.765 4.765 0 0 1-1.307.175 4.734 4.734 0 0 1-1.599-.262 4.016 4.016 0 0 1-1.375-.85l1.387-1.525c.201.267.453.473.756.619a2.157 2.157 0 0 0 1.425.163 1.59 1.59 0 0 0 .438-.169.94.94 0 0 0 .312-.288.718.718 0 0 0 .119-.412.748.748 0 0 0-.306-.631 2.823 2.823 0 0 0-.769-.395 24.913 24.913 0 0 0-1-.324 4.539 4.539 0 0 1-1-.438 2.395 2.395 0 0 1-.768-.725c-.205-.3-.307-.696-.307-1.188 0-.474.094-.891.281-1.25.188-.358.438-.658.75-.899a3.26 3.26 0 0 1 1.082-.544 4.412 4.412 0 0 1 1.262-.182c.5 0 .983.072 1.45.213a3.36 3.36 0 0 1 1.263.712l-1.338 1.463z" fill="#525F85"/><path fill-rule="evenodd" d="M109.687 65.588c0 .524-.078 1.008-.236 1.449a3.21 3.21 0 0 1-.707 1.151 3.237 3.237 0 0 1-1.168.762c-.467.183-1.005.275-1.614.275-.617 0-1.158-.092-1.625-.275a3.237 3.237 0 0 1-1.168-.762 3.21 3.21 0 0 1-.707-1.151 4.272 4.272 0 0 1-.237-1.449V60.15h1.95v5.363c0 .274.043.529.131.763.088.233.211.435.369.605.158.171.348.305.569.4.22.096.461.144.718.144.258 0 .496-.048.713-.144.217-.095.405-.229.563-.4.158-.17.281-.372.369-.605.087-.234.131-.489.131-.763V60.15h1.949v5.438z" fill="#525F85"/><path fill-rule="evenodd" d="M111.488 60.15h2.95l2.038 5.774h.025l2.05-5.774h2.937V69h-1.949v-6.787h-.026L117.188 69h-1.487l-2.238-6.787h-.025V69h-1.95v-8.85z" fill="#525F85"/><path fill-rule="evenodd" d="M123.264 60.15h1.949V69h-1.949v-8.85z" fill="#525F85"/><path fill-rule="evenodd" d="M126.988 60.15h2.649l3.763 6.149h.026V60.15h1.949V69h-2.55l-3.862-6.3h-.026V69h-1.949v-8.85z" fill="#525F85"/><path fill-rule="evenodd" d="M145.187 68.375c-.574.3-1.175.517-1.8.65s-1.263.2-1.912.2a5.472 5.472 0 0 1-1.913-.325 4.37 4.37 0 0 1-1.512-.931 4.211 4.211 0 0 1-.994-1.469c-.237-.575-.356-1.217-.356-1.925s.119-1.35.356-1.925a4.198 4.198 0 0 1 .994-1.468 4.373 4.373 0 0 1 1.512-.932 5.449 5.449 0 0 1 1.913-.325c.708 0 1.36.086 1.956.257a3.827 3.827 0 0 1 1.568.88l-1.375 1.5a2.737 2.737 0 0 0-.899-.625c-.333-.141-.75-.212-1.25-.212-.417 0-.794.071-1.132.212a2.542 2.542 0 0 0-1.425 1.5c-.128.35-.193.73-.193 1.138 0 .417.065.798.193 1.144a2.542 2.542 0 0 0 1.425 1.494c.338.141.715.212 1.132.212a3.72 3.72 0 0 0 1.1-.144c.308-.095.553-.193.737-.294V65.55h-1.587v-1.8h3.462v4.625z" fill="#525F85"/><path fill-rule="evenodd" d="M72.914 74.15h5.938v1.8h-3.989v1.8h3.688v1.799h-3.688V83h-1.949v-8.85z" fill="#525F85"/><path fill-rule="evenodd" d="M87.713 79.588c0 .524-.079 1.008-.237 1.449a3.208 3.208 0 0 1-.706 1.151 3.24 3.24 0 0 1-1.169.762c-.467.183-1.005.275-1.613.275-.617 0-1.158-.092-1.625-.275a3.24 3.24 0 0 1-1.169-.762 3.208 3.208 0 0 1-.706-1.151 4.272 4.272 0 0 1-.238-1.449V74.15h1.951v5.363c0 .274.043.529.131.763.088.233.21.435.369.605.158.171.348.305.569.4.22.096.46.144.718.144.258 0 .496-.048.713-.144.216-.095.404-.229.563-.4.158-.17.281-.372.368-.605.087-.234.132-.489.132-.763V74.15h1.949v5.438z" fill="#525F85"/><path fill-rule="evenodd" d="M89.514 74.15h2.649l3.763 6.149h.026V74.15h1.949V83h-2.55l-3.862-6.3h-.026V83h-1.949v-8.85z" fill="#525F85"/><path fill-rule="evenodd" d="M105.488 76.45a1.92 1.92 0 0 0-.706-.538 2.353 2.353 0 0 0-.969-.188 2.44 2.44 0 0 0-1.831.807 2.793 2.793 0 0 0-.538.906c-.129.35-.193.73-.193 1.138 0 .417.064.798.193 1.144.13.345.307.645.531.9.226.254.49.452.794.594.305.141.631.212.982.212.399 0 .754-.083 1.062-.25.308-.166.563-.4.763-.701l1.625 1.213a3.378 3.378 0 0 1-1.426 1.162 4.402 4.402 0 0 1-1.774.375 5.468 5.468 0 0 1-1.913-.324 4.386 4.386 0 0 1-1.512-.931 4.211 4.211 0 0 1-.994-1.469c-.238-.575-.357-1.217-.357-1.925s.119-1.351.357-1.925a4.211 4.211 0 0 1 .994-1.469 4.386 4.386 0 0 1 1.512-.931 5.445 5.445 0 0 1 1.913-.325c.25 0 .51.023.781.069.27.046.537.118.8.219.262.099.514.233.756.399.242.167.459.371.65.612l-1.5 1.226z" fill="#525F85"/><path fill-rule="evenodd" d="M109.976 75.875h-2.524V74.15h7v1.725h-2.526V83h-1.95v-7.125z" fill="#525F85"/><path fill-rule="evenodd" d="M115.413 74.15h1.95V83h-1.95v-8.85z" fill="#525F85"/><path fill-rule="evenodd" d="M120.687 78.575c0 .417.064.798.193 1.144a2.546 2.546 0 0 0 1.426 1.494c.338.141.715.212 1.131.212.417 0 .794-.071 1.131-.212a2.546 2.546 0 0 0 1.426-1.494 3.25 3.25 0 0 0 .193-1.144c0-.408-.064-.788-.193-1.138a2.609 2.609 0 0 0-.557-.906 2.546 2.546 0 0 0-.869-.594 2.904 2.904 0 0 0-1.131-.213c-.416 0-.793.072-1.131.213-.338.142-.627.34-.869.594a2.624 2.624 0 0 0-.557.906c-.129.35-.193.73-.193 1.138zm-2.025 0c0-.708.119-1.351.357-1.925a4.209 4.209 0 0 1 .993-1.469 4.38 4.38 0 0 1 1.513-.931 5.443 5.443 0 0 1 1.912-.325c.691 0 1.33.108 1.912.325a4.395 4.395 0 0 1 1.514.931c.424.405.756.894.993 1.469.237.574.356 1.217.356 1.925s-.119 1.35-.356 1.925a4.236 4.236 0 0 1-.993 1.469c-.426.404-.93.714-1.514.931a5.462 5.462 0 0 1-1.912.324 5.466 5.466 0 0 1-1.912-.324 4.38 4.38 0 0 1-1.513-.931 4.209 4.209 0 0 1-.993-1.469c-.238-.575-.357-1.217-.357-1.925z" fill="#525F85"/><path fill-rule="evenodd" d="M129.537 74.15h2.65l3.763 6.149h.025V74.15h1.951V83h-2.551l-3.862-6.3h-.025V83h-1.951v-8.85z" fill="#525F85"/><path fill-rule="evenodd" d="M144.1 76.313a1.382 1.382 0 0 0-.643-.443 2.307 2.307 0 0 0-.769-.145c-.142 0-.287.018-.438.051-.15.033-.291.085-.424.156a.917.917 0 0 0-.326.281.714.714 0 0 0-.125.425c0 .267.1.471.301.613.199.141.451.262.756.362.304.1.631.2.98.3.351.1.678.242.983.425.304.183.556.429.756.738.199.308.3.72.3 1.237 0 .492-.092.921-.275 1.287a2.606 2.606 0 0 1-.744.913 3.166 3.166 0 0 1-1.088.537 4.765 4.765 0 0 1-1.307.175 4.738 4.738 0 0 1-1.599-.262 4.026 4.026 0 0 1-1.375-.85l1.388-1.525c.2.267.452.473.756.619a2.156 2.156 0 0 0 1.424.163c.163-.038.309-.094.438-.169a.92.92 0 0 0 .312-.288.71.71 0 0 0 .119-.412.745.745 0 0 0-.306-.631 2.801 2.801 0 0 0-.768-.395 25.445 25.445 0 0 0-1-.324 4.518 4.518 0 0 1-1-.438 2.409 2.409 0 0 1-.769-.725c-.204-.3-.307-.696-.307-1.188 0-.474.094-.891.281-1.25.188-.358.438-.658.75-.899a3.27 3.27 0 0 1 1.082-.544 4.417 4.417 0 0 1 1.262-.182c.5 0 .984.072 1.451.213.466.142.887.379 1.262.712l-1.338 1.463z" fill="#525F85"/><path fill-rule="evenodd" d="M300.109 46.451h.779l-.984 4.623c-.109.496-.164.92-.164 1.272 0 .652.173 1.141.518 1.467.346.326.824.49 1.433.49.707 0 1.264-.204 1.67-.61.406-.406.707-1.058.902-1.957l1.125-5.285h.774l-1.096 5.156c-.262 1.227-.662 2.099-1.201 2.616-.539.518-1.301.777-2.285.777-.805 0-1.442-.231-1.91-.692-.469-.461-.704-1.086-.704-1.875 0-.418.043-.826.129-1.224l1.014-4.758z" fill="#333"/><path fill-rule="evenodd" d="M306.285 53.881c.184.137.413.25.688.34.276.09.539.135.789.135.429 0 .756-.087.981-.261.225-.174.337-.429.337-.765 0-.23-.07-.428-.211-.595-.141-.166-.396-.362-.768-.588-.418-.25-.721-.502-.911-.756a1.452 1.452 0 0 1-.284-.891c0-.515.19-.943.568-1.283.379-.34.872-.51 1.477-.51a3.9 3.9 0 0 1 .727.076c.261.051.492.125.691.223l-.152.721a2.347 2.347 0 0 0-1.301-.375c-.379 0-.683.098-.911.296a.968.968 0 0 0-.343.77c0 .231.062.43.187.598.125.168.375.363.75.586.454.277.773.542.958.794.186.252.279.54.279.864 0 .531-.194.954-.58 1.268-.387.315-.914.472-1.582.472-.27 0-.546-.036-.829-.108a2.704 2.704 0 0 1-.712-.279l.152-.732z" fill="#333"/><path fill-rule="evenodd" d="M312.021 51.637c1.164 0 2.021-.111 2.572-.334.551-.223.826-.572.826-1.049 0-.293-.098-.516-.295-.671-.198-.154-.474-.231-.83-.231-.531 0-1.009.214-1.435.641-.426.428-.705.976-.838 1.644zm-.1.943c0 .563.149.999.446 1.31.297.31.707.466 1.23.466.535 0 1.11-.18 1.723-.539l-.141.738a3.384 3.384 0 0 1-1.687.445c-.746 0-1.321-.218-1.723-.656-.402-.437-.603-1.051-.603-1.84 0-.676.145-1.307.436-1.895a3.564 3.564 0 0 1 1.181-1.392 2.775 2.775 0 0 1 1.599-.51c.543 0 .978.136 1.304.408.326.271.489.633.489 1.086 0 .692-.339 1.206-1.016 1.541-.678.336-1.753.512-3.226.528l-.012.31z" fill="#333"/><path fill-rule="evenodd" d="M322.064 47.348a.508.508 0 0 1-.378-.161.531.531 0 0 1-.155-.378c0-.152.053-.276.158-.372a.537.537 0 0 1 .375-.144c.145 0 .27.048.375.144.105.096.159.22.159.372s-.055.28-.162.384a.52.52 0 0 1-.372.155zm-.803 1.506h.744l-.896 4.224c-.078.399-.117.674-.117.827 0 .277.15.416.451.416.181 0 .342-.028.486-.082l-.123.597a1.672 1.672 0 0 1-.627.117c-.304 0-.538-.079-.7-.237-.162-.158-.243-.389-.243-.694 0-.215.045-.537.135-.967l.89-4.201z" fill="#333"/><path fill-rule="evenodd" d="M324.115 49.492h-1.049l.147-.639h1.031l.322-1.517.791-.24-.375 1.757h1.565l-.147.639h-1.553l-.744 3.498c-.07.316-.105.574-.105.773 0 .196.041.338.123.428.082.09.219.135.41.135.184 0 .482-.092.897-.275l-.147.668a2.462 2.462 0 0 1-.478.172 1.912 1.912 0 0 1-.477.074c-.719 0-1.078-.371-1.078-1.114 0-.23.037-.507.111-.832l.756-3.527z" fill="#333"/><path fill-rule="evenodd" d="M331.123 49.492h-1.049l.147-.639h1.031l.322-1.517.791-.24-.375 1.757h1.565l-.147.639h-1.553l-.744 3.498c-.07.316-.105.574-.105.773 0 .196.041.338.123.428.082.09.219.135.41.135.184 0 .482-.092.897-.275l-.147.668a2.462 2.462 0 0 1-.478.172 1.912 1.912 0 0 1-.477.074c-.719 0-1.078-.371-1.078-1.114 0-.23.037-.507.111-.832l.756-3.527z" fill="#333"/><path fill-rule="evenodd" d="M335.893 54.356c.441 0 .848-.145 1.219-.434.371-.289.661-.683.87-1.183.209-.5.313-1.047.313-1.641 0-.566-.13-.999-.389-1.298-.26-.298-.617-.448-1.07-.448-.668 0-1.235.314-1.702.941-.467.626-.7 1.399-.7 2.317 0 .547.131.975.393 1.283.261.309.617.463 1.066.463zm-.053.645c-.668 0-1.195-.207-1.582-.619-.386-.412-.58-.987-.58-1.725 0-.727.138-1.394.413-2.001.276-.608.662-1.084 1.16-1.43a2.818 2.818 0 0 1 1.644-.518c.664 0 1.189.208 1.576.624.387.416.58.987.58 1.713 0 .739-.137 1.412-.413 2.019-.275.607-.658 1.082-1.148 1.424a2.818 2.818 0 0 1-1.65.513z" fill="#333"/><path fill-rule="evenodd" d="M343.1 53.881c.184.137.413.25.688.34.276.09.539.135.789.135.429 0 .756-.087.981-.261.225-.174.337-.429.337-.765 0-.23-.07-.428-.211-.595-.141-.166-.396-.362-.768-.588-.418-.25-.721-.502-.911-.756a1.452 1.452 0 0 1-.284-.891c0-.515.19-.943.568-1.283.379-.34.872-.51 1.477-.51a3.9 3.9 0 0 1 .727.076c.261.051.492.125.691.223l-.152.721a2.347 2.347 0 0 0-1.301-.375c-.379 0-.683.098-.911.296a.968.968 0 0 0-.343.77c0 .231.062.43.187.598.125.168.375.363.75.586.454.277.773.542.958.794.186.252.279.54.279.864 0 .531-.194.954-.58 1.268-.387.315-.914.472-1.582.472-.27 0-.546-.036-.829-.108a2.704 2.704 0 0 1-.712-.279l.152-.732z" fill="#333"/><path fill-rule="evenodd" d="M348.836 51.637c1.164 0 2.021-.111 2.572-.334.551-.223.826-.572.826-1.049 0-.293-.098-.516-.295-.671-.198-.154-.474-.231-.83-.231-.531 0-1.009.214-1.435.641-.426.428-.705.976-.838 1.644zm-.1.943c0 .563.149.999.446 1.31.297.31.707.466 1.23.466.535 0 1.11-.18 1.723-.539l-.141.738a3.384 3.384 0 0 1-1.687.445c-.746 0-1.321-.218-1.723-.656-.402-.437-.603-1.051-.603-1.84 0-.676.145-1.307.436-1.895a3.564 3.564 0 0 1 1.181-1.392 2.775 2.775 0 0 1 1.599-.51c.543 0 .978.136 1.304.408.326.271.489.633.489 1.086 0 .692-.339 1.206-1.016 1.541-.678.336-1.753.512-3.226.528l-.012.31z" fill="#333"/><path fill-rule="evenodd" d="M354.549 51.637c1.164 0 2.021-.111 2.572-.334.551-.223.826-.572.826-1.049 0-.293-.098-.516-.295-.671-.198-.154-.474-.231-.83-.231-.531 0-1.009.214-1.435.641-.426.428-.705.976-.838 1.644zm-.1.943c0 .563.149.999.446 1.31.297.31.707.466 1.23.466.535 0 1.11-.18 1.723-.539l-.141.738a3.384 3.384 0 0 1-1.687.445c-.746 0-1.321-.218-1.723-.656-.402-.437-.603-1.051-.603-1.84 0-.676.145-1.307.436-1.895a3.564 3.564 0 0 1 1.181-1.392 2.775 2.775 0 0 1 1.599-.51c.543 0 .978.136 1.304.408.326.271.489.633.489 1.086 0 .692-.339 1.206-1.016 1.541-.678.336-1.753.512-3.226.528l-.012.31z" fill="#333"/><path fill-rule="evenodd" d="M363.021 48.854h.728l.338 4.717V53.723l-.023.311h.041c.062-.2.135-.379.217-.539l2.449-4.641h.592l.346 4.822-.03.364h.047a2.83 2.83 0 0 1 .211-.54l2.314-4.646h.762l-3.111 6h-.697l-.358-4.383-.012-.222.024-.34h-.024a3.407 3.407 0 0 1-.085.214c-.037.087-.866 1.665-2.487 4.731h-.703l-.539-6z" fill="#333"/><path fill-rule="evenodd" d="M372.807 45.971h.732l-.943 4.441h.023c.715-1.136 1.514-1.705 2.397-1.705.5 0 .875.142 1.125.425.25.283.375.693.375 1.228 0 .054-.008.136-.023.246-.016.109-.04.259-.071.448-.031.189-.293 1.456-.785 3.8h-.744l.721-3.481c.097-.453.146-.761.146-.925 0-.731-.316-1.096-.949-1.096-.316 0-.66.132-1.031.395a3.878 3.878 0 0 0-.973 1.017 3.533 3.533 0 0 0-.545 1.242l-.609 2.848h-.744l1.898-8.883z" fill="#333"/><path fill-rule="evenodd" d="M378.484 51.637c1.164 0 2.021-.111 2.572-.334.551-.223.826-.572.826-1.049 0-.293-.098-.516-.295-.671-.198-.154-.474-.231-.83-.231-.531 0-1.009.214-1.435.641-.426.428-.705.976-.838 1.644zm-.1.943c0 .563.149.999.446 1.31.297.31.707.466 1.23.466.535 0 1.11-.18 1.723-.539l-.141.738a3.384 3.384 0 0 1-1.687.445c-.746 0-1.321-.218-1.723-.656-.402-.437-.603-1.051-.603-1.84 0-.676.145-1.307.436-1.895a3.564 3.564 0 0 1 1.181-1.392 2.775 2.775 0 0 1 1.599-.51c.543 0 .978.136 1.304.408.326.271.489.633.489 1.086 0 .692-.339 1.206-1.016 1.541-.678.336-1.753.512-3.226.528l-.012.31z" fill="#333"/><path fill-rule="evenodd" d="M384.373 48.854h.732l-.199 1.371h.024c.265-.508.544-.888.835-1.14a1.489 1.489 0 0 1 1.004-.377 1.6 1.6 0 0 1 .627.123l-.134.791h-.024a1.177 1.177 0 0 0-.65-.205c-.426 0-.837.264-1.234.793-.396.53-.682 1.199-.858 2.007l-.562 2.637h-.739l.838-3.937c.184-.825.297-1.512.34-2.063z" fill="#333"/><path fill-rule="evenodd" d="M388.322 51.637c1.164 0 2.021-.111 2.572-.334.551-.223.826-.572.826-1.049 0-.293-.098-.516-.295-.671-.198-.154-.474-.231-.83-.231-.531 0-1.009.214-1.435.641-.426.428-.705.976-.838 1.644zm-.1.943c0 .563.149.999.446 1.31.297.31.707.466 1.23.466.535 0 1.11-.18 1.723-.539l-.141.738a3.384 3.384 0 0 1-1.687.445c-.746 0-1.321-.218-1.723-.656-.402-.437-.603-1.051-.603-1.84 0-.676.145-1.307.436-1.895a3.564 3.564 0 0 1 1.181-1.392 2.775 2.775 0 0 1 1.599-.51c.543 0 .978.136 1.304.408.326.271.489.633.489 1.086 0 .692-.339 1.206-1.016 1.541-.678.336-1.753.512-3.226.528l-.012.31z" fill="#333"/><path fill-rule="evenodd" d="M397.527 48.854h.721c-.055.418-.139.941-.252 1.57h.023c.711-1.144 1.475-1.716 2.291-1.716.485 0 .837.144 1.058.433.221.289.335.715.343 1.277.339-.543.712-.963 1.119-1.262.406-.299.822-.448 1.248-.448.941 0 1.412.542 1.412 1.628 0 .231-.059.629-.176 1.196l-.709 3.322h-.732l.715-3.48c.097-.45.146-.776.146-.979 0-.695-.287-1.043-.861-1.043-.285 0-.599.127-.941.381a3.97 3.97 0 0 0-.931 1.014c-.28.421-.464.832-.554 1.23l-.609 2.877h-.745l.727-3.48c.098-.45.146-.758.146-.926 0-.731-.287-1.096-.861-1.096-.285 0-.6.129-.946.387a4.02 4.02 0 0 0-.941 1.028c-.281.428-.462.837-.545 1.228l-.609 2.859h-.744l.926-4.307c.156-.757.25-1.322.281-1.693z" fill="#333"/><path fill-rule="evenodd" d="M408.818 54.356c.441 0 .848-.145 1.219-.434.371-.289.661-.683.87-1.183.209-.5.313-1.047.313-1.641 0-.566-.13-.999-.389-1.298-.26-.298-.617-.448-1.07-.448-.668 0-1.235.314-1.702.941-.467.626-.7 1.399-.7 2.317 0 .547.131.975.393 1.283.261.309.617.463 1.066.463zm-.053.645c-.668 0-1.195-.207-1.582-.619-.386-.412-.58-.987-.58-1.725 0-.727.138-1.394.413-2.001.276-.608.662-1.084 1.16-1.43a2.818 2.818 0 0 1 1.644-.518c.664 0 1.189.208 1.576.624.387.416.58.987.58 1.713 0 .739-.137 1.412-.413 2.019-.275.607-.658 1.082-1.148 1.424a2.818 2.818 0 0 1-1.65.513z" fill="#333"/><path fill-rule="evenodd" d="M412.727 53.881c.184.137.413.25.688.34.276.09.539.135.789.135.429 0 .756-.087.981-.261.225-.174.337-.429.337-.765 0-.23-.07-.428-.211-.595-.141-.166-.396-.362-.768-.588-.418-.25-.721-.502-.911-.756a1.452 1.452 0 0 1-.284-.891c0-.515.19-.943.568-1.283.379-.34.872-.51 1.477-.51a3.9 3.9 0 0 1 .727.076c.261.051.492.125.691.223l-.152.721a2.347 2.347 0 0 0-1.301-.375c-.379 0-.683.098-.911.296a.968.968 0 0 0-.343.77c0 .231.062.43.187.598.125.168.375.363.75.586.454.277.773.542.958.794.186.252.279.54.279.864 0 .531-.194.954-.58 1.268-.387.315-.914.472-1.582.472-.27 0-.546-.036-.829-.108a2.704 2.704 0 0 1-.712-.279l.152-.732z" fill="#333"/><path fill-rule="evenodd" d="M418.762 49.492h-1.049l.147-.639h1.031l.322-1.517.791-.24-.375 1.757h1.565l-.147.639h-1.553l-.744 3.498c-.07.316-.105.574-.105.773 0 .196.041.338.123.428.082.09.219.135.41.135.184 0 .482-.092.897-.275l-.147.668a2.462 2.462 0 0 1-.478.172 1.912 1.912 0 0 1-.477.074c-.719 0-1.078-.371-1.078-1.114 0-.23.037-.507.111-.832l.756-3.527z" fill="#333"/><path fill-rule="evenodd" d="M426.83 54.356c.441 0 .848-.145 1.219-.434.371-.289.661-.683.87-1.183.209-.5.313-1.047.313-1.641 0-.566-.13-.999-.389-1.298-.26-.298-.617-.448-1.07-.448-.668 0-1.235.314-1.702.941-.467.626-.7 1.399-.7 2.317 0 .547.131.975.393 1.283.261.309.617.463 1.066.463zm-.053.645c-.668 0-1.195-.207-1.582-.619-.386-.412-.58-.987-.58-1.725 0-.727.138-1.394.413-2.001.276-.608.662-1.084 1.16-1.43a2.818 2.818 0 0 1 1.644-.518c.664 0 1.189.208 1.576.624.387.416.58.987.58 1.713 0 .739-.137 1.412-.413 2.019-.275.607-.658 1.082-1.148 1.424a2.818 2.818 0 0 1-1.65.513z" fill="#333"/><path fill-rule="evenodd" d="M432.092 49.492h-1.061l.147-.639h1.055l.24-1.125c.269-1.265.961-1.898 2.074-1.898.254 0 .494.035.721.105l-.129.68c-.16-.098-.381-.146-.662-.146-.344 0-.62.114-.829.342-.209.229-.365.585-.466 1.07l-.211.972h1.512l-.153.639h-1.506l-1.57 7.354h-.738l1.576-7.354z" fill="#333"/><path fill-rule="evenodd" d="M438.678 49.492h-1.049l.147-.639h1.031l.322-1.517.791-.24-.375 1.757h1.565l-.147.639h-1.553l-.744 3.498c-.07.316-.105.574-.105.773 0 .196.041.338.123.428.082.09.219.135.41.135.184 0 .482-.092.897-.275l-.147.668a2.462 2.462 0 0 1-.478.172 1.912 1.912 0 0 1-.477.074c-.719 0-1.078-.371-1.078-1.114 0-.23.037-.507.111-.832l.756-3.527z" fill="#333"/><path fill-rule="evenodd" d="M442.973 45.971h.732l-.943 4.441h.023c.715-1.136 1.514-1.705 2.397-1.705.5 0 .875.142 1.125.425.25.283.375.693.375 1.228 0 .054-.008.136-.023.246-.016.109-.04.259-.071.448-.031.189-.293 1.456-.785 3.8h-.744l.721-3.481c.097-.453.146-.761.146-.925 0-.731-.316-1.096-.949-1.096-.316 0-.66.132-1.031.395a3.878 3.878 0 0 0-.973 1.017 3.533 3.533 0 0 0-.545 1.242l-.609 2.848h-.744l1.898-8.883z" fill="#333"/><path fill-rule="evenodd" d="M448.65 51.637c1.164 0 2.021-.111 2.572-.334.551-.223.826-.572.826-1.049 0-.293-.098-.516-.295-.671-.198-.154-.474-.231-.83-.231-.531 0-1.009.214-1.435.641-.426.428-.705.976-.838 1.644zm-.1.943c0 .563.149.999.446 1.31.297.31.707.466 1.23.466.535 0 1.11-.18 1.723-.539l-.141.738a3.384 3.384 0 0 1-1.687.445c-.746 0-1.321-.218-1.723-.656-.402-.437-.603-1.051-.603-1.84 0-.676.145-1.307.436-1.895a3.564 3.564 0 0 1 1.181-1.392 2.775 2.775 0 0 1 1.599-.51c.543 0 .978.136 1.304.408.326.271.489.633.489 1.086 0 .692-.339 1.206-1.016 1.541-.678.336-1.753.512-3.226.528l-.012.31z" fill="#333"/><path fill-rule="evenodd" d="M457.961 49.492h-1.049l.147-.639h1.031l.322-1.517.791-.24-.375 1.757h1.565l-.147.639h-1.553l-.744 3.498c-.07.316-.105.574-.105.773 0 .196.041.338.123.428.082.09.219.135.41.135.184 0 .482-.092.897-.275l-.147.668a2.462 2.462 0 0 1-.478.172 1.912 1.912 0 0 1-.477.074c-.719 0-1.078-.371-1.078-1.114 0-.23.037-.507.111-.832l.756-3.527z" fill="#333"/><path fill-rule="evenodd" d="M462.402 47.348a.508.508 0 0 1-.378-.161.531.531 0 0 1-.155-.378c0-.152.053-.276.158-.372a.537.537 0 0 1 .375-.144c.145 0 .27.048.375.144.105.096.158.22.158.372s-.054.28-.161.384a.52.52 0 0 1-.372.155zm-.803 1.506h.744l-.896 4.224c-.078.399-.117.674-.117.827 0 .277.15.416.451.416.18 0 .342-.028.486-.082l-.123.597a1.672 1.672 0 0 1-.627.117c-.304 0-.538-.079-.7-.237-.162-.158-.243-.389-.243-.694 0-.215.045-.537.135-.967l.89-4.201z" fill="#333"/><path fill-rule="evenodd" d="M464.348 48.854h.721c-.055.418-.139.941-.252 1.57h.023c.711-1.144 1.475-1.716 2.291-1.716.485 0 .837.144 1.058.433.221.289.335.715.343 1.277.339-.543.712-.963 1.119-1.262.406-.299.822-.448 1.248-.448.941 0 1.412.542 1.412 1.628 0 .231-.059.629-.176 1.196l-.709 3.322h-.732l.715-3.48c.097-.45.146-.776.146-.979 0-.695-.287-1.043-.861-1.043-.285 0-.599.127-.941.381a3.97 3.97 0 0 0-.931 1.014c-.28.421-.464.832-.554 1.23l-.609 2.877h-.745l.727-3.48c.098-.45.146-.758.146-.926 0-.731-.287-1.096-.861-1.096-.285 0-.6.129-.946.387a4.02 4.02 0 0 0-.941 1.028c-.281.428-.462.837-.545 1.228l-.609 2.859h-.744l.926-4.307c.156-.757.25-1.322.281-1.693z" fill="#333"/><path fill-rule="evenodd" d="M474.279 51.637c1.164 0 2.021-.111 2.572-.334.551-.223.826-.572.826-1.049 0-.293-.098-.516-.295-.671-.198-.154-.474-.231-.83-.231-.531 0-1.009.214-1.435.641-.426.428-.705.976-.838 1.644zm-.1.943c0 .563.149.999.446 1.31.297.31.707.466 1.23.466.535 0 1.11-.18 1.723-.539l-.141.738a3.384 3.384 0 0 1-1.687.445c-.746 0-1.321-.218-1.723-.656-.402-.437-.603-1.051-.603-1.84 0-.676.145-1.307.436-1.895a3.564 3.564 0 0 1 1.181-1.392 2.775 2.775 0 0 1 1.599-.51c.543 0 .978.136 1.304.408.326.271.489.633.489 1.086 0 .692-.339 1.206-1.016 1.541-.678.336-1.753.512-3.226.528l-.012.31z" fill="#333"/><path fill-rule="evenodd" d="M298.785 62.854h.727l.339 4.717V67.723l-.023.311h.041c.062-.2.135-.379.217-.539l2.449-4.641h.592l.346 4.822-.03.364h.047a2.83 2.83 0 0 1 .211-.54l2.314-4.646h.762l-3.111 6h-.697l-.358-4.383-.012-.222.024-.34h-.024a3.407 3.407 0 0 1-.085.214c-.037.087-.866 1.665-2.487 4.731h-.703l-.539-6z" fill="#333"/><path fill-rule="evenodd" d="M311.535 63.475a5.225 5.225 0 0 0-1.131-.123c-.531 0-1.01.144-1.435.434-.426.289-.763.699-1.011 1.23a4.089 4.089 0 0 0-.372 1.752c0 1.059.375 1.588 1.125 1.588.316 0 .64-.138.972-.413.332-.276.635-.665.909-1.169a5.878 5.878 0 0 0 .58-1.524m-.604 3.604c.016-.41.082-.949.199-1.617h-.023c-.359.633-.712 1.085-1.058 1.356a1.814 1.814 0 0 1-1.151.407c-.539 0-.958-.19-1.257-.571-.299-.381-.448-.917-.448-1.608 0-.746.161-1.445.483-2.095.323-.65.762-1.149 1.319-1.497a3.445 3.445 0 0 1 1.866-.522c.504 0 1.133.077 1.887.229l-.803 3.873c-.055.258-.11.609-.167 1.055a8.598 8.598 0 0 0-.085.99h-.762z" fill="#333"/><path fill-rule="evenodd" d="M313.023 67.881c.184.137.413.25.688.34.276.09.539.135.789.135.429 0 .756-.087.981-.261.225-.174.337-.429.337-.765 0-.23-.07-.428-.211-.595-.141-.166-.396-.362-.768-.588-.418-.25-.721-.502-.911-.756a1.452 1.452 0 0 1-.284-.891c0-.515.19-.943.568-1.283.379-.34.872-.51 1.477-.51a3.9 3.9 0 0 1 .727.076c.261.051.492.125.691.223l-.152.721a2.347 2.347 0 0 0-1.301-.375c-.379 0-.683.098-.911.296a.968.968 0 0 0-.343.77c0 .231.062.43.187.598.125.168.375.363.75.586.454.277.773.542.958.794.186.252.279.54.279.864 0 .531-.194.954-.58 1.268-.387.315-.914.472-1.582.472-.27 0-.546-.036-.829-.108a2.704 2.704 0 0 1-.712-.279l.152-.732z" fill="#333"/><path fill-rule="evenodd" d="M321.016 67.881c.184.137.413.25.688.34.276.09.539.135.789.135.429 0 .756-.087.981-.261.225-.174.337-.429.337-.765 0-.23-.07-.428-.211-.595-.141-.166-.396-.362-.768-.588-.418-.25-.721-.502-.911-.756a1.452 1.452 0 0 1-.284-.891c0-.515.19-.943.568-1.283.379-.34.872-.51 1.477-.51a3.9 3.9 0 0 1 .727.076c.261.051.492.125.691.223l-.152.721a2.347 2.347 0 0 0-1.301-.375c-.379 0-.683.098-.911.296a.968.968 0 0 0-.343.77c0 .231.062.43.187.598.125.168.375.363.75.586.454.277.773.542.958.794.186.252.279.54.279.864 0 .531-.194.954-.58 1.268-.387.315-.914.472-1.582.472-.27 0-.546-.036-.829-.108a2.704 2.704 0 0 1-.712-.279l.152-.732z" fill="#333"/><path fill-rule="evenodd" d="M326.617 68.121c.344.156.75.234 1.219.234.511 0 .978-.15 1.4-.451.422-.301.752-.712.99-1.233a4.038 4.038 0 0 0 .358-1.702c0-1.078-.383-1.618-1.149-1.618-.32 0-.651.145-.993.434-.342.289-.646.678-.914 1.166a5.361 5.361 0 0 0-.559 1.5m-.17-3.598h.75c0 .137-.026.401-.077.791-.05.391-.091.666-.123.827h.024c.648-1.176 1.404-1.764 2.267-1.764.543 0 .962.185 1.257.557.295.371.443.916.443 1.634a4.57 4.57 0 0 1-.484 2.083c-.322.643-.756 1.14-1.301 1.492a3.256 3.256 0 0 1-1.801.527 3.56 3.56 0 0 1-1.266-.229l-.609 2.883h-.739l1.465-6.926c.047-.242.091-.579.132-1.01.041-.432.062-.72.062-.865z" fill="#333"/><path fill-rule="evenodd" d="M333.133 65.637c1.164 0 2.021-.111 2.572-.334.551-.223.826-.572.826-1.049 0-.293-.098-.516-.295-.671-.198-.154-.474-.231-.83-.231-.531 0-1.009.214-1.435.641-.426.428-.705.976-.838 1.644zm-.1.943c0 .563.149.999.446 1.31.297.31.707.466 1.23.466.535 0 1.11-.18 1.723-.539l-.141.738a3.384 3.384 0 0 1-1.687.445c-.746 0-1.321-.218-1.723-.656-.402-.437-.603-1.051-.603-1.84 0-.676.145-1.307.436-1.895a3.564 3.564 0 0 1 1.181-1.392 2.775 2.775 0 0 1 1.599-.51c.543 0 .978.136 1.304.408.326.271.489.633.489 1.086 0 .692-.339 1.206-1.016 1.541-.678.336-1.753.512-3.226.528l-.012.31z" fill="#333"/><path fill-rule="evenodd" d="M339.062 62.854h.721a33.61 33.61 0 0 1-.252 1.57h.023c.341-.55.717-.974 1.131-1.271.414-.297.84-.445 1.277-.445 1.004 0 1.506.542 1.506 1.628 0 .215-.062.614-.187 1.196l-.703 3.322h-.739l.721-3.48c.095-.477.142-.786.142-.926 0-.731-.316-1.096-.945-1.096-.312 0-.654.132-1.024.396a3.921 3.921 0 0 0-.977 1.013 3.497 3.497 0 0 0-.548 1.234l-.609 2.859h-.744l.926-4.307c.109-.543.203-1.107.281-1.693z" fill="#333"/><path fill-rule="evenodd" d="M345.742 63.492h-1.049l.147-.639h1.031l.322-1.517.791-.24-.375 1.757h1.565l-.147.639h-1.553l-.744 3.498c-.07.316-.105.574-.105.773 0 .196.041.338.123.428.082.09.219.135.41.135.184 0 .482-.092.897-.275l-.147.668a2.462 2.462 0 0 1-.478.172 1.912 1.912 0 0 1-.477.074c-.719 0-1.078-.371-1.078-1.114 0-.23.037-.507.111-.832l.756-3.527z" fill="#333"/><path fill-rule="evenodd" d="M353.482 61.348a.508.508 0 0 1-.378-.161.531.531 0 0 1-.155-.378c0-.152.053-.276.158-.372a.537.537 0 0 1 .375-.144c.145 0 .27.048.375.144.105.096.158.22.158.372s-.054.28-.161.384a.52.52 0 0 1-.372.155zm-.803 1.506h.744l-.896 4.224c-.078.399-.117.674-.117.827 0 .277.15.416.451.416.18 0 .342-.028.486-.082l-.123.597a1.672 1.672 0 0 1-.627.117c-.304 0-.538-.079-.7-.237-.162-.158-.243-.389-.243-.694 0-.215.045-.537.135-.967l.89-4.201z" fill="#333"/><path fill-rule="evenodd" d="M355.451 62.854h.721c-.055.418-.139.941-.252 1.57h.023c.34-.55.717-.974 1.131-1.271.414-.297.84-.445 1.277-.445 1.004 0 1.506.542 1.506 1.628 0 .215-.062.614-.187 1.196l-.703 3.322h-.739l.721-3.48c.094-.477.141-.786.141-.926 0-.731-.315-1.096-.944-1.096-.312 0-.654.132-1.025.396a3.934 3.934 0 0 0-.976 1.013 3.48 3.48 0 0 0-.548 1.234l-.609 2.859h-.744l.926-4.307c.109-.543.203-1.107.281-1.693z" fill="#333"/><path fill-rule="evenodd" d="M362.992 70.893c.125.07.279.105.463.105.281 0 .534-.082.759-.246.224-.164.444-.418.659-.761l.756-1.19-1.073-5.947h.756l.785 4.74.041.451h.024l.158-.31 2.906-4.881h.832l-4.347 7.06c-.418.668-.8 1.128-1.146 1.38a1.95 1.95 0 0 1-1.18.378c-.219 0-.399-.029-.539-.088l.146-.691z" fill="#333"/><path fill-rule="evenodd" d="M372.098 68.356c.441 0 .848-.145 1.219-.434.371-.289.661-.683.87-1.183.209-.5.313-1.047.313-1.641 0-.566-.13-.999-.389-1.298-.26-.298-.617-.448-1.07-.448-.668 0-1.235.314-1.702.941-.467.626-.7 1.399-.7 2.317 0 .547.131.975.393 1.283.261.309.617.463 1.066.463zm-.053.645c-.668 0-1.195-.207-1.582-.619-.386-.412-.58-.987-.58-1.725 0-.727.138-1.394.413-2.001.276-.608.662-1.084 1.16-1.43a2.818 2.818 0 0 1 1.644-.518c.664 0 1.189.208 1.576.624.387.416.58.987.58 1.713 0 .739-.137 1.412-.413 2.019-.275.607-.658 1.082-1.148 1.424a2.818 2.818 0 0 1-1.65.513z" fill="#333"/><path fill-rule="evenodd" d="M377.248 62.854h.738l-.726 3.48c-.094.477-.141.786-.141.926 0 .731.315 1.096.943 1.096.305 0 .634-.122.988-.366a3.98 3.98 0 0 0 .978-1.005c.299-.426.495-.85.589-1.272l.61-2.859h.738l-.92 4.313a15.542 15.542 0 0 0-.281 1.687h-.721l.252-1.57h-.024c-.339.55-.716.974-1.13 1.271-.414.297-.838.445-1.272.445-.508 0-.887-.143-1.137-.43-.25-.287-.375-.695-.375-1.222 0-.113.021-.297.062-.551.041-.254.081-.459.12-.615l.709-3.328z" fill="#333"/><path fill-rule="evenodd" d="M383.799 62.854h.732l-.199 1.371h.024c.265-.508.544-.888.835-1.14a1.489 1.489 0 0 1 1.004-.377 1.6 1.6 0 0 1 .627.123l-.134.791h-.024a1.177 1.177 0 0 0-.65-.205c-.426 0-.837.264-1.234.793-.396.53-.682 1.199-.858 2.007l-.562 2.637h-.739l.838-3.937c.184-.825.297-1.512.34-2.063z" fill="#333"/><path fill-rule="evenodd" d="M392.318 69c-.664 0-1.185-.216-1.562-.647-.376-.432-.565-1.021-.565-1.767 0-.711.142-1.366.425-1.966.283-.599.677-1.068 1.181-1.406a2.92 2.92 0 0 1 1.664-.507c.566 0 1.043.133 1.429.398l-.176.762c-.351-.344-.796-.515-1.335-.515-.457 0-.874.144-1.251.433-.377.289-.671.682-.882 1.178a3.983 3.983 0 0 0-.317 1.576c0 .578.133 1.025.399 1.342.265.316.635.474 1.107.474.481 0 .998-.201 1.553-.603l-.176.809a4.208 4.208 0 0 1-.791.345 2.49 2.49 0 0 1-.703.094z" fill="#333"/><path fill-rule="evenodd" d="M397.463 68.356c.441 0 .848-.145 1.219-.434.371-.289.661-.683.87-1.183.209-.5.313-1.047.313-1.641 0-.566-.13-.999-.389-1.298-.26-.298-.617-.448-1.07-.448-.668 0-1.235.314-1.702.941-.467.626-.7 1.399-.7 2.317 0 .547.131.975.393 1.283.261.309.617.463 1.066.463zm-.053.645c-.668 0-1.195-.207-1.582-.619-.386-.412-.58-.987-.58-1.725 0-.727.138-1.394.413-2.001.276-.608.662-1.084 1.16-1.43a2.818 2.818 0 0 1 1.644-.518c.664 0 1.189.208 1.576.624.387.416.58.987.58 1.713 0 .739-.137 1.412-.413 2.019-.275.607-.658 1.082-1.148 1.424a2.818 2.818 0 0 1-1.65.513z" fill="#333"/><path fill-rule="evenodd" d="M406.258 63.527a3.627 3.627 0 0 0-1.131-.176c-.531 0-1.007.144-1.427.431-.42.287-.755.696-1.007 1.227a3.986 3.986 0 0 0-.378 1.729c0 1.078.377 1.617 1.13 1.617.313 0 .634-.138.964-.413.33-.275.631-.658.903-1.148a5.793 5.793 0 0 0 .589-1.574m-.604 3.633c.016-.39.08-.924.193-1.599h-.023c-.328.578-.666 1.013-1.014 1.306-.347.293-.744.44-1.189.44-.535 0-.953-.189-1.254-.566-.301-.377-.451-.919-.451-1.626 0-.746.158-1.439.474-2.08.317-.64.751-1.138 1.304-1.491a3.356 3.356 0 0 1 1.849-.53c.375 0 .777.054 1.207.164l.615-2.901h.727l-1.477 7.008a9.249 9.249 0 0 0-.126.914c-.049.461-.073.781-.073.961h-.762z" fill="#333"/><path fill-rule="evenodd" d="M408.795 65.637c1.164 0 2.021-.111 2.572-.334.551-.223.826-.572.826-1.049 0-.293-.098-.516-.295-.671-.198-.154-.474-.231-.83-.231-.531 0-1.009.214-1.435.641-.426.428-.705.976-.838 1.644zm-.1.943c0 .563.149.999.446 1.31.297.31.707.466 1.23.466.535 0 1.11-.18 1.723-.539l-.141.738a3.384 3.384 0 0 1-1.687.445c-.746 0-1.321-.218-1.723-.656-.402-.437-.603-1.051-.603-1.84 0-.676.145-1.307.436-1.895a3.564 3.564 0 0 1 1.181-1.392 2.775 2.775 0 0 1 1.599-.51c.543 0 .978.136 1.304.408.326.271.489.633.489 1.086 0 .692-.339 1.206-1.016 1.541-.678.336-1.753.512-3.226.528l-.012.31z" fill="#333"/><path fill-rule="evenodd" d="M303.174 77.475a5.225 5.225 0 0 0-1.131-.123c-.531 0-1.01.144-1.435.434-.426.289-.763.699-1.011 1.23a4.089 4.089 0 0 0-.372 1.752c0 1.059.375 1.588 1.125 1.588.316 0 .64-.138.972-.413.332-.276.635-.665.909-1.169a5.878 5.878 0 0 0 .58-1.524m-.604 3.604c.016-.41.082-.949.199-1.617h-.023c-.359.633-.712 1.085-1.058 1.356a1.814 1.814 0 0 1-1.151.407c-.539 0-.958-.19-1.257-.571-.299-.381-.448-.917-.448-1.608 0-.746.161-1.445.483-2.095.323-.65.762-1.149 1.319-1.497a3.445 3.445 0 0 1 1.866-.522c.504 0 1.133.077 1.887.229l-.803 3.873c-.055.258-.11.609-.167 1.055a8.598 8.598 0 0 0-.085.99h-.762z" fill="#333"/><path fill-rule="evenodd" d="M305.922 76.854h.721c-.055.418-.139.941-.252 1.57h.023c.34-.55.717-.974 1.131-1.271.414-.297.84-.445 1.277-.445 1.004 0 1.506.542 1.506 1.628 0 .215-.062.614-.187 1.196l-.703 3.322h-.739l.721-3.48c.094-.477.141-.786.141-.926 0-.731-.315-1.096-.944-1.096-.312 0-.654.132-1.025.396a3.934 3.934 0 0 0-.976 1.013 3.48 3.48 0 0 0-.548 1.234l-.609 2.859h-.744l.926-4.307c.109-.543.203-1.107.281-1.693z" fill="#333"/><path fill-rule="evenodd" d="M316.146 77.527a3.627 3.627 0 0 0-1.131-.176c-.531 0-1.007.144-1.427.431-.42.287-.755.696-1.007 1.227a3.986 3.986 0 0 0-.378 1.729c0 1.078.377 1.617 1.13 1.617.313 0 .634-.138.964-.413.33-.275.631-.658.903-1.148a5.793 5.793 0 0 0 .589-1.574m-.604 3.633c.016-.39.08-.924.193-1.599h-.023c-.328.578-.666 1.013-1.014 1.306-.347.293-.744.44-1.189.44-.535 0-.953-.189-1.254-.566-.301-.377-.451-.919-.451-1.626 0-.746.158-1.439.474-2.08.317-.64.751-1.138 1.304-1.491a3.356 3.356 0 0 1 1.849-.53c.375 0 .777.054 1.207.164l.615-2.901h.727l-1.477 7.008a9.249 9.249 0 0 0-.126.914c-.049.461-.073.781-.073.961h-.762z" fill="#333"/><path fill-rule="evenodd" d="M322.867 73.971h.732l-.943 4.441h.023c.715-1.136 1.514-1.705 2.397-1.705.5 0 .875.142 1.125.425.25.283.375.693.375 1.228 0 .054-.008.136-.023.246-.016.109-.04.259-.071.448-.031.189-.293 1.456-.785 3.8h-.744l.721-3.481c.097-.453.146-.761.146-.925 0-.731-.316-1.096-.949-1.096-.316 0-.66.132-1.031.395a3.878 3.878 0 0 0-.973 1.017 3.533 3.533 0 0 0-.545 1.242l-.609 2.848h-.744l1.898-8.883z" fill="#333"/><path fill-rule="evenodd" d="M329.904 82.356c.441 0 .848-.145 1.219-.434.371-.289.661-.683.87-1.183.209-.5.313-1.047.313-1.641 0-.566-.13-.999-.389-1.298-.26-.298-.617-.448-1.07-.448-.668 0-1.235.314-1.702.941-.467.626-.7 1.399-.7 2.317 0 .547.131.975.393 1.283.261.309.617.463 1.066.463zm-.053.645c-.668 0-1.195-.207-1.582-.619-.386-.412-.58-.987-.58-1.725 0-.727.138-1.394.413-2.001.276-.608.662-1.084 1.16-1.43a2.818 2.818 0 0 1 1.644-.518c.664 0 1.189.208 1.576.624.387.416.58.987.58 1.713 0 .739-.137 1.412-.413 2.019-.275.607-.658 1.082-1.148 1.424a2.818 2.818 0 0 1-1.65.513z" fill="#333"/><path fill-rule="evenodd" d="M334.316 76.854h.727l.339 4.717V81.723l-.023.311h.041c.062-.2.135-.379.217-.539l2.449-4.641h.592l.346 4.822-.03.364h.047a2.83 2.83 0 0 1 .211-.54l2.314-4.646h.762l-3.111 6h-.697l-.358-4.383-.012-.222.024-.34h-.024a3.407 3.407 0 0 1-.085.214c-.037.087-.866 1.665-2.487 4.731h-.703l-.539-6z" fill="#333"/><path fill-rule="evenodd" d="M346.516 79.637c1.164 0 2.021-.111 2.572-.334.551-.223.826-.572.826-1.049 0-.293-.098-.516-.295-.671-.198-.154-.474-.231-.83-.231-.531 0-1.009.214-1.435.641-.426.428-.705.976-.838 1.644zm-.1.943c0 .563.149.999.446 1.31.297.31.707.466 1.23.466.535 0 1.11-.18 1.723-.539l-.141.738a3.384 3.384 0 0 1-1.687.445c-.746 0-1.321-.218-1.723-.656-.402-.437-.603-1.051-.603-1.84 0-.676.145-1.307.436-1.895a3.564 3.564 0 0 1 1.181-1.392 2.775 2.775 0 0 1 1.599-.51c.543 0 .978.136 1.304.408.326.271.489.633.489 1.086 0 .692-.339 1.206-1.016 1.541-.678.336-1.753.512-3.226.528l-.012.31z" fill="#333"/><path fill-rule="evenodd" d="M353.137 79.883l-1.342-3.029h.809l.926 2.332.082.258h.029l.34-.446 1.804-2.144h.862l-2.701 3.076 1.371 2.924-.832.006a159 159 0 0 1-1.02-2.497h-.029l-.34.446-1.723 2.045h-.908l2.672-2.971z" fill="#333"/><path fill-rule="evenodd" d="M357.537 79.637c1.164 0 2.021-.111 2.572-.334.551-.223.826-.572.826-1.049 0-.293-.098-.516-.295-.671-.198-.154-.474-.231-.83-.231-.531 0-1.009.214-1.435.641-.426.428-.705.976-.838 1.644zm-.1.943c0 .563.149.999.446 1.31.297.31.707.466 1.23.466.535 0 1.11-.18 1.723-.539l-.141.738a3.384 3.384 0 0 1-1.687.445c-.746 0-1.321-.218-1.723-.656-.402-.437-.603-1.051-.603-1.84 0-.676.145-1.307.436-1.895a3.564 3.564 0 0 1 1.181-1.392 2.775 2.775 0 0 1 1.599-.51c.543 0 .978.136 1.304.408.326.271.489.633.489 1.086 0 .692-.339 1.206-1.016 1.541-.678.336-1.753.512-3.226.528l-.012.31z" fill="#333"/><path fill-rule="evenodd" d="M364.521 83c-.663 0-1.185-.216-1.562-.647-.376-.432-.564-1.021-.564-1.767 0-.711.141-1.366.424-1.966.284-.599.677-1.068 1.181-1.406a2.92 2.92 0 0 1 1.664-.507c.566 0 1.043.133 1.429.398l-.176.762c-.351-.344-.796-.515-1.335-.515-.457 0-.874.144-1.251.433-.377.289-.671.682-.882 1.178a3.983 3.983 0 0 0-.317 1.576c0 .578.133 1.025.399 1.342.265.316.635.474 1.107.474.481 0 .998-.201 1.553-.603l-.176.809a4.208 4.208 0 0 1-.791.345 2.49 2.49 0 0 1-.703.094z" fill="#333"/><path fill-rule="evenodd" d="M368.506 76.854h.738l-.726 3.48c-.094.477-.141.786-.141.926 0 .731.315 1.096.943 1.096.305 0 .634-.122.988-.366a3.98 3.98 0 0 0 .978-1.005c.299-.426.495-.85.589-1.272l.61-2.859h.738l-.92 4.313a15.542 15.542 0 0 0-.281 1.687h-.721l.252-1.57h-.024c-.339.55-.716.974-1.13 1.271-.414.297-.838.445-1.272.445-.508 0-.887-.143-1.137-.43-.25-.287-.375-.695-.375-1.222 0-.113.021-.297.062-.551.041-.254.081-.459.12-.615l.709-3.328z" fill="#333"/><path fill-rule="evenodd" d="M375.18 77.492h-1.049l.147-.639h1.031l.322-1.517.791-.24-.375 1.757h1.565l-.147.639h-1.553l-.744 3.498c-.07.316-.105.574-.105.773 0 .196.041.338.123.428.082.09.219.135.41.135.184 0 .482-.092.897-.275l-.147.668a2.462 2.462 0 0 1-.478.172 1.912 1.912 0 0 1-.477.074c-.719 0-1.078-.371-1.078-1.114 0-.23.037-.507.111-.832l.756-3.527z" fill="#333"/><path fill-rule="evenodd" d="M379.621 75.348a.508.508 0 0 1-.378-.161.531.531 0 0 1-.155-.378c0-.152.053-.276.158-.372a.537.537 0 0 1 .375-.144c.145 0 .27.048.375.144.105.096.158.22.158.372s-.054.28-.161.384a.52.52 0 0 1-.372.155zm-.803 1.506h.744l-.896 4.224c-.078.399-.117.674-.117.827 0 .277.15.416.451.416.18 0 .342-.028.486-.082l-.123.597a1.672 1.672 0 0 1-.627.117c-.304 0-.538-.079-.7-.237-.162-.158-.243-.389-.243-.694 0-.215.045-.537.135-.967l.89-4.201z" fill="#333"/><path fill-rule="evenodd" d="M382.732 82.356c.441 0 .848-.145 1.219-.434.371-.289.661-.683.87-1.183.209-.5.313-1.047.313-1.641 0-.566-.13-.999-.389-1.298-.26-.298-.617-.448-1.07-.448-.668 0-1.235.314-1.702.941-.467.626-.7 1.399-.7 2.317 0 .547.131.975.393 1.283.261.309.617.463 1.066.463zm-.053.645c-.668 0-1.195-.207-1.582-.619-.386-.412-.58-.987-.58-1.725 0-.727.138-1.394.413-2.001.276-.608.662-1.084 1.16-1.43a2.818 2.818 0 0 1 1.644-.518c.664 0 1.189.208 1.576.624.387.416.58.987.58 1.713 0 .739-.137 1.412-.413 2.019-.275.607-.658 1.082-1.148 1.424a2.818 2.818 0 0 1-1.65.513z" fill="#333"/><path fill-rule="evenodd" d="M387.9 76.854h.721c-.055.418-.139.941-.252 1.57h.023c.34-.55.717-.974 1.131-1.271.414-.297.84-.445 1.277-.445 1.004 0 1.506.542 1.506 1.628 0 .215-.062.614-.187 1.196l-.703 3.322h-.739l.721-3.48c.094-.477.141-.786.141-.926 0-.731-.315-1.096-.944-1.096-.312 0-.654.132-1.025.396a3.934 3.934 0 0 0-.976 1.013 3.48 3.48 0 0 0-.548 1.234l-.609 2.859h-.744l.926-4.307c.109-.543.203-1.107.281-1.693z" fill="#333"/><path fill-rule="evenodd" d="M397.756 76.854h.732l-.199 1.371h.024c.265-.508.544-.888.835-1.14a1.489 1.489 0 0 1 1.004-.377 1.6 1.6 0 0 1 .627.123l-.134.791h-.024a1.177 1.177 0 0 0-.65-.205c-.426 0-.837.264-1.234.793-.396.53-.682 1.199-.858 2.007l-.562 2.637h-.739l.838-3.937c.184-.825.297-1.512.34-2.063z" fill="#333"/><path fill-rule="evenodd" d="M401.705 79.637c1.164 0 2.021-.111 2.572-.334.551-.223.826-.572.826-1.049 0-.293-.098-.516-.295-.671-.198-.154-.474-.231-.83-.231-.531 0-1.009.214-1.435.641-.426.428-.705.976-.838 1.644zm-.1.943c0 .563.149.999.446 1.31.297.31.707.466 1.23.466.535 0 1.11-.18 1.723-.539l-.141.738a3.384 3.384 0 0 1-1.687.445c-.746 0-1.321-.218-1.723-.656-.402-.437-.603-1.051-.603-1.84 0-.676.145-1.307.436-1.895a3.564 3.564 0 0 1 1.181-1.392 2.775 2.775 0 0 1 1.599-.51c.543 0 .978.136 1.304.408.326.271.489.633.489 1.086 0 .692-.339 1.206-1.016 1.541-.678.336-1.753.512-3.226.528l-.012.31z" fill="#333"/><path fill-rule="evenodd" d="M411.268 77.475a5.225 5.225 0 0 0-1.131-.123c-.531 0-1.01.144-1.435.434-.426.289-.763.699-1.011 1.23a4.089 4.089 0 0 0-.372 1.752c0 1.059.375 1.588 1.125 1.588.316 0 .64-.138.972-.413.332-.276.635-.665.909-1.169a5.878 5.878 0 0 0 .58-1.524m-.604 3.604c.016-.41.082-.949.199-1.617h-.023c-.359.633-.712 1.085-1.058 1.356a1.814 1.814 0 0 1-1.151.407c-.539 0-.958-.19-1.257-.571-.299-.381-.448-.917-.448-1.608 0-.746.161-1.445.483-2.095.323-.65.762-1.149 1.319-1.497a3.445 3.445 0 0 1 1.866-.522c.504 0 1.133.077 1.887.229l-.803 3.873c-.055.258-.11.609-.167 1.055a8.598 8.598 0 0 0-.085.99h-.762z" fill="#333"/><path fill-rule="evenodd" d="M415.07 83c-.664 0-1.185-.216-1.562-.647-.376-.432-.565-1.021-.565-1.767 0-.711.142-1.366.425-1.966.283-.599.677-1.068 1.181-1.406a2.92 2.92 0 0 1 1.664-.507c.566 0 1.043.133 1.429.398l-.176.762c-.351-.344-.796-.515-1.335-.515-.457 0-.874.144-1.251.433-.377.289-.671.682-.882 1.178a3.983 3.983 0 0 0-.317 1.576c0 .578.133 1.025.399 1.342.265.316.635.474 1.107.474.481 0 .998-.201 1.553-.603l-.176.809a4.208 4.208 0 0 1-.791.345 2.49 2.49 0 0 1-.703.094z" fill="#333"/><path fill-rule="evenodd" d="M419.74 73.971h.732l-.943 4.441h.023c.715-1.136 1.514-1.705 2.397-1.705.5 0 .875.142 1.125.425.25.283.375.693.375 1.228 0 .054-.008.136-.023.246-.016.109-.04.259-.071.448-.031.189-.293 1.456-.785 3.8h-.744l.721-3.481c.097-.453.146-.761.146-.925 0-.731-.316-1.096-.949-1.096-.316 0-.66.132-1.031.395a3.878 3.878 0 0 0-.973 1.017 3.533 3.533 0 0 0-.545 1.242l-.609 2.848h-.744l1.898-8.883z" fill="#333"/><path fill-rule="evenodd" d="M425.418 79.637c1.164 0 2.021-.111 2.572-.334.551-.223.826-.572.826-1.049 0-.293-.098-.516-.295-.671-.198-.154-.474-.231-.83-.231-.531 0-1.009.214-1.435.641-.426.428-.705.976-.838 1.644zm-.1.943c0 .563.149.999.446 1.31.297.31.707.466 1.23.466.535 0 1.11-.18 1.723-.539l-.141.738a3.384 3.384 0 0 1-1.687.445c-.746 0-1.321-.218-1.723-.656-.402-.437-.603-1.051-.603-1.84 0-.676.145-1.307.436-1.895a3.564 3.564 0 0 1 1.181-1.392 2.775 2.775 0 0 1 1.599-.51c.543 0 .978.136 1.304.408.326.271.489.633.489 1.086 0 .692-.339 1.206-1.016 1.541-.678.336-1.753.512-3.226.528l-.012.31z" fill="#333"/><path fill-rule="evenodd" d="M430.088 81.881c.184.137.413.25.688.34.276.09.539.135.789.135.429 0 .756-.087.981-.261.225-.174.337-.429.337-.765 0-.23-.07-.428-.211-.595-.141-.166-.396-.362-.768-.588-.418-.25-.721-.502-.911-.756a1.452 1.452 0 0 1-.284-.891c0-.515.19-.943.568-1.283.379-.34.872-.51 1.477-.51a3.9 3.9 0 0 1 .727.076c.261.051.492.125.691.223l-.152.721a2.347 2.347 0 0 0-1.301-.375c-.379 0-.683.098-.911.296a.968.968 0 0 0-.343.77c0 .231.062.43.187.598.125.168.375.363.75.586.454.277.773.542.958.794.186.252.279.54.279.864 0 .531-.194.954-.58 1.268-.387.315-.914.472-1.582.472-.27 0-.546-.036-.829-.108a2.704 2.704 0 0 1-.712-.279l.152-.732z" fill="#333"/><path fill-rule="evenodd" d="M439.422 77.492h-1.049l.147-.639h1.031l.322-1.517.791-.24-.375 1.757h1.565l-.147.639h-1.553l-.744 3.498c-.07.316-.105.574-.105.773 0 .196.041.338.123.428.082.09.219.135.41.135.184 0 .482-.092.897-.275l-.147.668a2.462 2.462 0 0 1-.478.172 1.912 1.912 0 0 1-.477.074c-.719 0-1.078-.371-1.078-1.114 0-.23.037-.507.111-.832l.756-3.527z" fill="#333"/><path fill-rule="evenodd" d="M443.717 73.971h.732l-.943 4.441h.023c.715-1.136 1.514-1.705 2.397-1.705.5 0 .875.142 1.125.425.25.283.375.693.375 1.228 0 .054-.008.136-.023.246-.016.109-.04.259-.071.448-.031.189-.293 1.456-.785 3.8h-.744l.721-3.481c.097-.453.146-.761.146-.925 0-.731-.316-1.096-.949-1.096-.316 0-.66.132-1.031.395a3.878 3.878 0 0 0-.973 1.017 3.533 3.533 0 0 0-.545 1.242l-.609 2.848h-.744l1.898-8.883z" fill="#333"/><path fill-rule="evenodd" d="M449.394 79.637c1.164 0 2.021-.111 2.572-.334.551-.223.826-.572.826-1.049 0-.293-.098-.516-.295-.671-.198-.154-.474-.231-.83-.231-.531 0-1.009.214-1.435.641-.426.428-.705.976-.838 1.644zm-.1.943c0 .563.149.999.446 1.31.297.31.707.466 1.23.466.535 0 1.11-.18 1.723-.539l-.141.738a3.384 3.384 0 0 1-1.687.445c-.746 0-1.321-.218-1.723-.656-.402-.437-.603-1.051-.603-1.84 0-.676.145-1.307.436-1.895a3.564 3.564 0 0 1 1.181-1.392 2.775 2.775 0 0 1 1.599-.51c.543 0 .978.136 1.304.408.326.271.489.633.489 1.086 0 .692-.339 1.206-1.016 1.541-.678.336-1.753.512-3.226.528l-.012.31z" fill="#333"/><path fill-rule="evenodd" d="M455.283 76.854h.732l-.199 1.371h.024c.265-.508.544-.888.835-1.14a1.489 1.489 0 0 1 1.004-.377 1.6 1.6 0 0 1 .627.123l-.134.791h-.024a1.177 1.177 0 0 0-.65-.205c-.426 0-.837.264-1.234.793-.396.53-.682 1.199-.858 2.007l-.562 2.637h-.739l.838-3.937c.184-.825.297-1.512.34-2.063z" fill="#333"/><path fill-rule="evenodd" d="M459.232 79.637c1.164 0 2.021-.111 2.572-.334.551-.223.826-.572.826-1.049 0-.293-.098-.516-.295-.671-.198-.154-.474-.231-.83-.231-.531 0-1.009.214-1.435.641-.426.428-.705.976-.838 1.644zm-.1.943c0 .563.149.999.446 1.31.297.31.707.466 1.23.466.535 0 1.11-.18 1.723-.539l-.141.738a3.384 3.384 0 0 1-1.687.445c-.746 0-1.321-.218-1.723-.656-.402-.437-.603-1.051-.603-1.84 0-.676.145-1.307.436-1.895a3.564 3.564 0 0 1 1.181-1.392 2.775 2.775 0 0 1 1.599-.51c.543 0 .978.136 1.304.408.326.271.489.633.489 1.086 0 .692-.339 1.206-1.016 1.541-.678.336-1.753.512-3.226.528l-.012.31z" fill="#333"/><path fill-rule="evenodd" d="M464.43 82.971a.534.534 0 0 1-.381-.158.532.532 0 0 1-.164-.399c0-.156.053-.287.158-.392a.526.526 0 0 1 .387-.158.55.55 0 0 1 .398.158.52.52 0 0 1 .165.392.532.532 0 0 1-.167.393.55.55 0 0 1-.396.164z" fill="#333"/><path fill-rule="evenodd" d="M183 40c-5.514 0-10-4.486-10-10s4.486-10 10-10h118c5.514 0 10 4.486 10 10s-4.486 10-10 10M183 62c-5.514 0-10-4.486-10-10s4.486-10 10-10h88c5.514 0 10 4.486 10 10s-4.486 10-10 10m-88 22c-5.514 0-10-4.486-10-10s4.486-10 10-10h68c5.514 0 10 4.486 10 10s-4.486 10-10 10h-68z" fill="#FFF"/><linearGradient id="a" x1="0" y1=".5" x2="1" y2=".5"><stop offset="0" stop-color="#3CA9FF"/><stop offset=".5" stop-color="#C17354"/><stop offset="1" stop-color="#E3B200"/></linearGradient><path fill-rule="evenodd" d="M183 22c-4.42 0-8 3.581-8 8 0 4.42 3.58 8 8 8h118c4.42 0 8-3.58 8-8 0-4.419-3.58-8-8-8M183 44c-4.42 0-8 3.58-8 8s3.58 8 8 8h88c4.42 0 8-3.58 8-8s-3.58-8-8-8m-88 22c-4.42 0-8 3.58-8 8 0 4.419 3.58 8 8 8h68c4.42 0 8-3.581 8-8 0-4.42-3.58-8-8-8h-68z" fill="url(#a)"/><path fill-rule="evenodd" d="M300 25h2v4h4v2h-6m-5-1c0 3.311 2.689 6 6 6s6-2.689 6-6-2.689-6-6-6-6 2.689-6 6z" fill="#FFF"/><path fill-rule="evenodd" d="M270 47h2v4h4v2h-6m-5-1c0 3.311 2.689 6 6 6s6-2.689 6-6-2.689-6-6-6-6 2.689-6 6z" fill="#FFF"/><path fill-rule="evenodd" d="M250 69h2v4h4v2h-6m-5-1c0 3.311 2.689 6 6 6s6-2.689 6-6-2.689-6-6-6-6 2.689-6 6z" fill="#FFF"/><path fill-rule="evenodd" d="M187.391 58h1A7 7 0 0 1 185 52a7 7 0 0 1 3.391-6h-1A6.99 6.99 0 0 0 184 52a6.99 6.99 0 0 0 3.391 6zm40 0h1A7 7 0 0 1 225 52a7 7 0 0 1 3.391-6h-1A6.99 6.99 0 0 0 224 52a6.99 6.99 0 0 0 3.391 6zm-30 0h1A7 7 0 0 1 195 52a7 7 0 0 1 3.391-6h-1A6.99 6.99 0 0 0 194 52a6.99 6.99 0 0 0 3.391 6zm40 0h1A7 7 0 0 1 235 52a7 7 0 0 1 3.391-6h-1A6.99 6.99 0 0 0 234 52a6.99 6.99 0 0 0 3.391 6zm-30 0h1A7 7 0 0 1 205 52a7 7 0 0 1 3.391-6h-1A6.99 6.99 0 0 0 204 52a6.99 6.99 0 0 0 3.391 6zm40 0h1A7 7 0 0 1 245 52a7 7 0 0 1 3.391-6h-1A6.99 6.99 0 0 0 244 52a6.99 6.99 0 0 0 3.391 6zm-30 0h1A7 7 0 0 1 215 52a7 7 0 0 1 3.391-6h-1A6.99 6.99 0 0 0 214 52a6.99 6.99 0 0 0 3.391 6zm40 0h1A7 7 0 0 1 255 52a7 7 0 0 1 3.391-6h-1A6.99 6.99 0 0 0 254 52a6.99 6.99 0 0 0 3.391 6zm30-22h1A7 7 0 0 1 285 30a7 7 0 0 1 3.391-6h-1A6.99 6.99 0 0 0 284 30a6.99 6.99 0 0 0 3.391 6zm-100 0h1A7 7 0 0 1 185 30a7 7 0 0 1 3.391-6h-1A6.99 6.99 0 0 0 184 30a6.99 6.99 0 0 0 3.391 6zm20 0h1A7 7 0 0 1 205 30a7 7 0 0 1 3.391-6h-1A6.99 6.99 0 0 0 204 30a6.99 6.99 0 0 0 3.391 6zm40 0h1A7 7 0 0 1 245 30a7 7 0 0 1 3.391-6h-1A6.99 6.99 0 0 0 244 30a6.99 6.99 0 0 0 3.391 6zm-30 0h1A7 7 0 0 1 215 30a7 7 0 0 1 3.391-6h-1A6.99 6.99 0 0 0 214 30a6.99 6.99 0 0 0 3.391 6zm40 0h1A7 7 0 0 1 255 30a7 7 0 0 1 3.391-6h-1A6.99 6.99 0 0 0 254 30a6.99 6.99 0 0 0 3.391 6zm-30 0h1A7 7 0 0 1 225 30a7 7 0 0 1 3.391-6h-1A6.99 6.99 0 0 0 224 30a6.99 6.99 0 0 0 3.391 6zm40 0h1A7 7 0 0 1 265 30a7 7 0 0 1 3.391-6h-1A6.99 6.99 0 0 0 264 30a6.99 6.99 0 0 0 3.391 6zm-70 0h1A7 7 0 0 1 195 30a7 7 0 0 1 3.391-6h-1A6.99 6.99 0 0 0 194 30a6.99 6.99 0 0 0 3.391 6zm40 0h1A7 7 0 0 1 235 30a7 7 0 0 1 3.391-6h-1A6.99 6.99 0 0 0 234 30a6.99 6.99 0 0 0 3.391 6zm40 0h1A7 7 0 0 1 275 30a7 7 0 0 1 3.391-6h-1A6.99 6.99 0 0 0 274 30a6.99 6.99 0 0 0 3.391 6zm-90 44h1A7 7 0 0 1 185 74a7 7 0 0 1 3.391-6h-1A6.99 6.99 0 0 0 184 74a6.99 6.99 0 0 0 3.391 6zm20 0h1A7 7 0 0 1 205 74a7 7 0 0 1 3.391-6h-1A6.99 6.99 0 0 0 204 74a6.99 6.99 0 0 0 3.391 6zm10 0h1A7 7 0 0 1 215 74a7 7 0 0 1 3.391-6h-1A6.99 6.99 0 0 0 214 74a6.99 6.99 0 0 0 3.391 6zm10 0h1A7 7 0 0 1 225 74a7 7 0 0 1 3.391-6h-1A6.99 6.99 0 0 0 224 74a6.99 6.99 0 0 0 3.391 6zm-30 0h1A7 7 0 0 1 195 74a7 7 0 0 1 3.391-6h-1A6.99 6.99 0 0 0 194 74a6.99 6.99 0 0 0 3.391 6zM234 74a6.99 6.99 0 0 1 3.391-6h1A7 7 0 0 0 235 74a7 7 0 0 0 3.391 6h-1A6.99 6.99 0 0 1 234 74z" fill="#FFF"/></svg>