<svg ti:v="1" width="180" height="100" viewBox="0 0 180 100" xmlns="http://www.w3.org/2000/svg" xmlns:ti="urn:schemas-jetbrains-com:tisvg"><rect id="frame" width="180" height="100" fill="none"/><g fill-rule="evenodd" fill="#FFF"><path d="M56.438 42.163c.883-.001 1.768.002 2.652-.001l1.725 6.468c.603-2.147 1.15-4.312 1.728-6.467h2.661c-1.025 3.288-2.053 6.574-3.08 9.86-.084.242-.055.499-.06.748.003 2.079 0 4.158.001 6.237H59.57c-.005-2.255.01-4.51-.008-6.763-.999-3.373-2.067-6.727-3.124-10.082z"/><path d="M73.17 46.405h2.372c.002 3.371-.006 6.744.003 10.116-.012.288.18.588.49.594.64-.078 1.005-.664 1.376-1.12.005-3.198 0-6.393.002-9.59h2.37v12.602h-2.37c-.001-.437.003-.876-.005-1.313-.545.57-1.114 1.18-1.89 1.422-.614.177-1.371.104-1.813-.402-.423-.505-.5-1.199-.534-1.833V46.405z"/><path d="M105.061 49.383c-.037-.374-.191-.836-.607-.923-.553-.144-1.081.177-1.467.542.009 2.511.009 5.02 0 7.531.393.34.91.691 1.454.53.435-.135.581-.624.62-1.03.094-1.085.036-2.174.053-3.26-.016-1.13.04-2.262-.053-3.39z"/><path d="M115.872 53.143h-4.519c.007.792-.018 1.585.013 2.377.027.482.059 1.05.459 1.384.512.412 1.399.175 1.558-.488.123-.58.075-1.185.092-1.775h2.369c-.002.585.018 1.172-.057 1.755-.132 1.223-1.039 2.355-2.246 2.659-1.15.288-2.494.126-3.388-.71-.822-.737-1.147-1.875-1.171-2.951.001-1.75-.003-3.5.002-5.248.049-1.012.28-2.1 1.026-2.84 1.427-1.512 4.31-1.25 5.31.628.823 1.606.476 3.475.552 5.209zm-8.387-2.111v4.473c.01.735-.037 1.479-.216 2.195-.166.637-.633 1.23-1.288 1.405-.671.2-1.404.016-1.971-.372-.376-.236-.663-.578-.991-.871-.002.382.002.764 0 1.146h-2.272v-16.72h2.245c.003 1.798-.004 3.596.004 5.394.447-.49.934-.977 1.569-1.211.667-.273 1.512-.216 2.05.3.505.496.675 1.218.776 1.894.133.782.085 1.577.094 2.367zm-8.61 7.976h-2.371c-.002-.436.005-.871-.006-1.306-.497.483-.967 1.027-1.618 1.307-.663.3-1.564.279-2.077-.292-.425-.502-.504-1.194-.54-1.826-.005-3.453 0-6.907-.001-10.361h2.37c.003 3.33-.003 6.662.003 9.992-.012.29.184.6.5.594.632-.081.997-.661 1.365-1.114.009-3.157.002-6.314.004-9.472h2.37m-8.983-1.872v14.35h-2.496v-14.35h-2.62v-2.37c2.62-.002 5.24 0 7.86 0v2.37m26.063-.361a10.265 10.265 0 0 0-.847-3.386c-.569-1.26-1.791-2.151-3.118-2.465-.907-.204-1.842-.216-2.764-.281-6.015-.306-12.042-.343-18.063-.198-2.336.066-4.674.128-7.002.326-1.424.097-2.843.755-3.686 1.93-.628.947-.935 2.066-1.133 3.17-.226 1.752-.334 3.516-.388 5.279-.04 2.954-.043 5.913.273 8.854.106 1.27.396 2.542.98 3.68.597 1.17 1.816 1.909 3.073 2.174 1.6.328 3.24.357 4.868.429 3.655.114 7.313.196 10.971.19 3.959-.066 7.925-.111 11.876-.416 1.496-.1 3.004-.812 3.827-2.1.582-.96.871-2.068 1.051-3.168.169-1.426.272-2.86.335-4.293.089-3.243.084-6.496-.253-9.725z"/><path d="M113.385 49.126c-.137-.956-1.802-.953-1.943-.002-.131.707-.08 1.432-.09 2.147h2.122c-.009-.715.034-1.438-.089-2.145z"/><path d="M69.053 55.766c.003.365-.06.762-.312 1.047-.334.403-1.032.398-1.372.006-.25-.291-.317-.69-.314-1.06.004-2.036-.002-4.071.004-6.106.02-.375.117-.807.445-1.033.365-.246.898-.212 1.218.092.26.286.337.689.331 1.065m1.222-2.721c-.846-.752-2.068-.872-3.14-.671a2.809 2.809 0 0 0-1.547.915c-.663.737-.855 1.764-.9 2.724-.005 1.748.002 3.497-.005 5.245-.006 1.065.201 2.225.994 3 1.216 1.265 3.445 1.29 4.697.065.79-.704 1.026-1.807 1.05-2.82v-5.5c-.048-1.066-.308-2.23-1.149-2.958z"/></g></svg>