<svg ti:v="1" width="16" height="16" viewBox="0 0 16 16" xmlns="http://www.w3.org/2000/svg" xmlns:ti="urn:schemas-jetbrains-com:tisvg"><rect id="frame" width="16" height="16" fill="none"/><linearGradient id="a" x1=".5" y1=".003" x2=".5" y2="1.003"><stop offset="0" stop-color="#7C6D48"/><stop offset="1" stop-color="#60492F"/></linearGradient><path fill-rule="evenodd" d="M2 15V1h7.414L14 5.586V15H2z" fill="url(#a)"/><linearGradient id="b" x1=".5" y1=".004" x2=".5" y2="1"><stop offset="0" stop-color="#E2D7BC"/><stop offset="1" stop-color="#E2CCB3"/></linearGradient><path fill-rule="evenodd" d="M9 2H3v12h10V6L9 2z" fill="url(#b)"/><linearGradient id="c" x1=".5" y1=".012" x2=".5" y2="1.006"><stop offset="0" stop-color="#FFF2D3"/><stop offset="1" stop-color="#FFF"/></linearGradient><path fill-rule="evenodd" d="M9 6V4H5v8h6V6H9z" fill="url(#c)"/><linearGradient id="d" x1=".5" y1=".017" x2=".5" y2="1.051"><stop offset="0" stop-color="#004F4C"/><stop offset="1" stop-color="#00908C"/></linearGradient><path fill-rule="evenodd" d="M9.585 16L9 15.415V16H4v-2.586L3.414 14H3v2H0V9h3.413L4 9.587V9h3.413L8.5 10.086 9.585 9h1.829L13 10.586v3.828L11.414 16H9.585z" fill="url(#d)"/><linearGradient id="e" x1=".5" y1=".017" x2=".5" y2="1.051"><stop offset="0" stop-color="#CEFFFD"/><stop offset="1" stop-color="#00FFF5"/></linearGradient><path fill-rule="evenodd" d="M6 11h1v1H6m2 0v-1l-1.001-1H5v5h1v-1.5L7.5 15H8v-.5L6.5 13H7m4 1h-1v-3h1m0-1H9.999L9 11v3l.999 1H11l1-1v-3m-9 1H2v-1h1m-.001-1H1v5h1v-2h1l1-1v-1l-1.001-1z" fill="url(#e)"/></svg>