<svg ti:v="1" width="16" height="16" viewBox="0 0 16 16" xmlns="http://www.w3.org/2000/svg" xmlns:ti="urn:schemas-jetbrains-com:tisvg"><rect id="frame" width="16" height="16" fill="none"/><g fill-rule="evenodd"><path d="M2 15V1h7.414L14 5.586V15H2z" fill="#242424"/><path d="M9 2H3v12h10V6L9 2z" fill="#C3C3C3"/><path d="M9 6V4H5v8h6V6H9z" fill="#292929"/><path d="M9.585 16L9 15.415V16H4v-2.586L3.414 14H3v2H0V9h3.413L4 9.587V9h3.413L8.5 10.086 9.585 9h1.829L13 10.586v3.828L11.414 16H9.585z" fill="#242424"/><path d="M6 11h1v1H6m2 0v-1l-1.001-1H5v5h1v-1.5L7.5 15H8v-.5L6.5 13H7m4 1h-1v-3h1m0-1H9.999L9 11v3l.999 1H11l1-1v-3m-9 1H2v-1h1m-.001-1H1v5h1v-2h1l1-1v-1l-1.001-1z" fill="#00C6BF"/></g></svg>