<svg xmlns="http://www.w3.org/2000/svg" width="16" height="16" viewBox="0 0 16 16"><rect id="frame" width="16" height="16" fill="none"/><path fill="#252525" d="M8 4H4.233L1 8.688v.624L4.233 14H8v-1.312L5.457 9 8 5.312V4z"/><path fill="#323232" d="M4.242 9L7 13 4.242 9z"/><path fill="#bd1e2d" d="M4.546 8.56L7 5H4.758L3.425 6.934 4.546 8.56z"/><path fill="#2baae8" d="M3.121 7.374L2 9l2.758 4H7L3.121 7.374z"/><path fill="#252525" d="M9 14h3.767L16 9.312v-.624L12.767 4H9v1.312L11.543 9 9 12.688V14z"/><path fill="#323232" d="M12.758 9L10 5l2.758 4z"/><path fill="#c27d1a" d="M12.454 9.44L10 13h2.242l1.333-1.934-1.121-1.626z"/><path fill="#8dcf8d" d="M13.879 10.626L15 9l-2.758-4H10l3.879 5.626z"/></svg>