<svg width="16" height="16" viewBox="0 0 16 16" fill="none" xmlns="http://www.w3.org/2000/svg"><rect id="frame" width="16" height="16" fill="none"/><path fill-rule="evenodd" clip-rule="evenodd" d="M9.06 2.714a2 2 0 0 1 2.829 0l1.414 1.414a2 2 0 0 1 0 2.829l-1.928 1.928-.849-.848 1.8-1.8a1 1 0 0 0 0-1.415l-1.131-1.13a1 1 0 0 0-1.414 0L7.016 6.454a1 1 0 0 0 0 1.414l.99.99-.835.836-1.132-1.131a2 2 0 0 1 0-2.829l3.022-3.021z" fill="#6E6E6E"/><path fill-rule="evenodd" clip-rule="evenodd" d="M4.625 7.15L2.697 9.078a2 2 0 0 0 0 2.829L4.11 13.32a2 2 0 0 0 2.828 0l3.022-3.022a2 2 0 0 0 0-2.828L8.829 6.34l-.835.835.99.99a1 1 0 0 1 0 1.414l-2.765 2.764a1 1 0 0 1-1.414 0l-1.131-1.13a1 1 0 0 1 0-1.415l1.8-1.8-.849-.848z" fill="#6E6E6E"/></svg>