<svg ti:v="1" width="16" height="16" viewBox="0 0 16 16" xmlns="http://www.w3.org/2000/svg" xmlns:ti="urn:schemas-jetbrains-com:tisvg"><rect id="frame" width="16" height="16" fill="none"/><linearGradient id="a" x1=".5" y1=".002" x2=".5" y2=".996"><stop offset="0" stop-color="#C28C21"/><stop offset="1" stop-color="#634933"/></linearGradient><path d="M1 15V3h6.586l2-2H16v14H1z" fill="url(#a)"/><linearGradient id="b" x1=".5" y1=".002" x2=".5" y2=".996"><stop offset="0" stop-color="#FFE9BD"/><stop offset="1" stop-color="#D4A24C"/></linearGradient><path d="M15 14V2h-5L8 4H2v10h13z" fill="url(#b)"/><linearGradient id="c" x1=".5" y1=".002" x2=".5" y2=".996"><stop offset="0" stop-color="#B88143"/><stop offset="1" stop-color="#8A4717"/></linearGradient><path d="M3 6h11v7H3z" fill="url(#c)"/><linearGradient id="d" x1=".5" y1=".019" x2=".5" y2="1.02"><stop offset="0" stop-color="#2857A0"/><stop offset="1" stop-color="#182E4F"/></linearGradient><path d="M0 6h10v10H0z" fill="url(#d)"/><linearGradient id="e" x1=".5" y1="-.127" x2=".5" y2="1.122"><stop offset="0" stop-color="#2857A0"/><stop offset="1" stop-color="#182E4F"/></linearGradient><path d="M3 15H1v-2h2zm0-6H1v2h2zm4 4H5v2h2zm0-4H5v2h2zm2-2H7v2h2zm-4 4H3v2h2zm0-4H3v2h2zm4 4H7v2h2zm0 0" fill="url(#e)"/><linearGradient id="f" x1=".5" y1=".01" x2=".5" y2="1.001"><stop offset="0" stop-color="#FFF"/><stop offset="1" stop-color="#A6BADA"/></linearGradient><path d="M3 9H1V7h2zm4-2H5v2h2zm0 4h2V9H7zm-4 0h2V9H3zm-2 2h2v-2H1zm4 0h2v-2H5zm2 2h2v-2H7zm-4 0h2v-2H3zm0 0" fill="url(#f)"/></svg>