<svg xmlns="http://www.w3.org/2000/svg" width="16" height="16" viewBox="0 0 16 16"><rect id="frame" width="16" height="16" fill="none"/><g fill="none" fill-rule="evenodd"><path fill="#F4AF3D" d="M10 2L8 4H2v3.461l1 .392V6h11v7H9.818l-.608 1H15V2z"/><g fill="#40B6E0"><path d="M5 12.5a1.5 1.5 0 1 1-.001-2.999A1.5 1.5 0 0 1 5 12.5zm2.632-1.919L9 9.58l-.705-1.16-1.597.624-.763-.419L5.705 7h-1.41l-.23 1.625-.763.419-1.597-.624L1 9.58l1.368 1.001v.837L1 12.42l.705 1.16 1.597-.624.763.419.23 1.625h1.41l.23-1.625.763-.419 1.597.624L9 12.42l-1.368-1.002v-.837z"/><path d="M5.5 11a.5.5 0 1 1-1 0 .5.5 0 0 1 1 0"/></g></g></svg>