<svg xmlns="http://www.w3.org/2000/svg" width="16" height="16" viewBox="0 0 16 16"><rect id="frame" width="16" height="16" fill="none"/><g fill="none" fill-rule="evenodd"><path fill="#F4AF3D" d="M10 2L8 4H2v4.531a2.593 2.593 0 0 1 1-.461V6h11v7h-3.161c.098.456.161.818.161.971 0 .01-.003.018-.003.029H15V2h-5z"/><g fill="#40B6E0"><path d="M7.984 10.8a.167.167 0 0 1-.167.166H7.2a.167.167 0 0 1-.166-.167v-.618c0-.092.075-.167.166-.167h.618c.092 0 .167.075.167.167v.618zm-1.036.972a.166.166 0 0 1-.166.167h-.586a.167.167 0 0 1-.167-.167v-.585c0-.093.075-.167.167-.167h.586c.092 0 .166.074.166.167v.585zM3.692 12a.693.693 0 1 1 .003-1.386A.693.693 0 0 1 3.692 12zm5.202-2.144C8.598 9.318 8.005 9 7.551 9c-.655 0-.935.666-2.05.666C4.382 9.666 4.103 9 3.447 9c-.454 0-1.047.318-1.342.856C1.758 10.488 1 13.592 1 13.97c0 .67.195 1.03.767 1.03 1.335 0 .997-2 3.733-2 2.735 0 2.398 2 3.733 2 .571 0 .767-.36.767-1.03 0-.378-.759-3.482-1.106-4.114z"/><path d="M4.84 6h-1C3.84 7.219 5 7.038 5 7.78V9l1 .019V7.78C6 6.557 4.84 6.56 4.84 6"/></g></g></svg>