<svg ti:v="1" width="16" height="16" viewBox="0 0 16 16" xmlns="http://www.w3.org/2000/svg" xmlns:ti="urn:schemas-jetbrains-com:tisvg"><rect id="frame" width="16" height="16" fill="none"/><path d="M1 15V3h6.586l2-2H16v14H1z" fill="#F4F4F4"/><path d="M15 14V2h-5L8 4H2v10h13z" fill="#C7781A"/><path d="M3 6h11v7H3z" fill="#EBEBEB"/><path d="M2.5 16A2.5 2.5 0 0 1 0 13.5v-4A2.5 2.5 0 0 1 2.5 7H8v9zm0 0" fill="#F4F4F4"/><path d="M6 8h6v7H6z" fill="#F4F4F4"/><path d="M7 9h4v5H7z" fill="#0095D7"/><path d="M1 13.5A1.5 1.5 0 0 0 2.5 15H7V8H2.5A1.5 1.5 0 0 0 1 9.5zm0 0" fill="#0095D7"/><path d="M7 10h3v3H7z" fill="#EBEBEB"/></svg>