<svg ti:v="1" width="16" height="16" viewBox="0 0 16 16" xmlns="http://www.w3.org/2000/svg" xmlns:ti="urn:schemas-jetbrains-com:tisvg"><rect id="frame" width="16" height="16" fill="none"/><path d="M1 15V3h6.586l2-2H16v14H1z" fill="#252525"/><path d="M15 14V2h-5L8 4H2v10h13z" fill="#E9A755"/><path d="M3 6h11v7H3z" fill="#292929"/><path d="M9.233 16a2.354 2.354 0 0 1-1.915-1.118A1.862 1.862 0 0 0 5.5 14a1.862 1.862 0 0 0-1.818.882A2.354 2.354 0 0 1 1.767 16C1.353 16 0 15.854 0 13.971a21.591 21.591 0 0 1 1.229-4.6A2.673 2.673 0 0 1 3.448 8c.447.012.88.151 1.252.4a1.368 1.368 0 0 0 1.61 0A2.363 2.363 0 0 1 7.552 8a2.673 2.673 0 0 1 2.219 1.375c.578 1.482.99 3.023 1.229 4.596C11 15.854 9.647 16 9.233 16zm0 0" fill="#252525"/><path d="M8.894 9.857A1.661 1.661 0 0 0 7.552 9c-.656 0-.936.667-2.052.667S4.1 9 3.448 9a1.661 1.661 0 0 0-1.342.857A22.427 22.427 0 0 0 1 13.971C1 14.64 1.2 15 1.767 15c1.335 0 1-2 3.733-2s2.4 2 3.733 2c.572 0 .767-.36.767-1.029a22.427 22.427 0 0 0-1.106-4.114zm0 0" fill="#43C2FF"/><path d="M7.2 10.966a.167.167 0 0 1-.167-.167v-.618a.166.166 0 0 1 .167-.166h.618a.166.166 0 0 1 .166.166v.619a.166.166 0 0 1-.166.167H7.2z" fill="#292929"/><path d="M6.2 11.939a.167.167 0 0 1-.167-.167v-.585a.167.167 0 0 1 .167-.167h.585a.167.167 0 0 1 .167.167v.585a.167.167 0 0 1-.167.167H6.2z" fill="#292929"/><path d="M4.386 11.307a.693.693 0 1 1-1.386 0 .693.693 0 0 1 1.386 0z" fill="#292929"/><path d="M4.84 6h-1C3.84 7.219 5 7.038 5 7.78V9l1 .018V7.78C6 6.557 4.84 6.56 4.84 6zm0 0" fill="#43C2FF"/></svg>