<svg ti:v="1" width="16" height="16" viewBox="0 0 16 16" xmlns="http://www.w3.org/2000/svg" xmlns:ti="urn:schemas-jetbrains-com:tisvg"><rect id="frame" width="16" height="16" fill="none"/><path d="M1 15V3h6.586l2-2H16v14H1z" fill="#F4F4F4"/><path d="M15 14V2h-5L8 4H2v10h13z" fill="#C7781A"/><path d="M3 6h11v7H3z" fill="#EBEBEB"/><path d="M0 6h10v10H0z" fill="#F4F4F4"/><path d="M1 13h2v2H1z" fill="#EBEBEB"/><path d="M1 9h2v2H1z" fill="#EBEBEB"/><path d="M5 13h2v2H5z" fill="#EBEBEB"/><path d="M5 9h2v2H5z" fill="#EBEBEB"/><path d="M7 7h2v2H7z" fill="#EBEBEB"/><path d="M3 11h2v2H3z" fill="#EBEBEB"/><path d="M3 7h2v2H3z" fill="#EBEBEB"/><path d="M7 11h2v2H7z" fill="#EBEBEB"/><path d="M1 7h2v2H1z" fill="#0095D7"/><path d="M5 7h2v2H5z" fill="#0095D7"/><path d="M7 9h2v2H7z" fill="#0095D7"/><path d="M3 9h2v2H3z" fill="#0095D7"/><path d="M1 11h2v2H1z" fill="#0095D7"/><path d="M5 11h2v2H5z" fill="#0095D7"/><path d="M7 13h2v2H7z" fill="#0095D7"/><path d="M3 13h2v2H3z" fill="#0095D7"/></svg>