<svg ti:v="1" width="16" height="16" viewBox="0 0 16 16" xmlns="http://www.w3.org/2000/svg" xmlns:ti="urn:schemas-jetbrains-com:tisvg"><rect id="frame" width="16" height="16" fill="none"/><path d="M1 15V3h6.586l2-2H16v14H1z" fill="#F4F4F4"/><path d="M15 14V2h-5L8 4H2v10h13z" fill="#C7781A"/><path d="M3 6h11v7H3z" fill="#EBEBEB"/><path d="M8.713 14.817L10 12.7v-.787L8.753 11 10 10.087V9.3L8.713 7.183l-1.869.731L6.574 6H3.426l-.27 1.914-1.869-.731L0 9.3v.787L1.247 11 0 11.913v.787l1.287 2.117 1.869-.731.27 1.914h3.148l.27-1.914 1.869.731z" fill="#F4F4F4"/><path d="M4.066 8.626L4.295 7h1.41l.229 1.626.764.418 1.597-.624L9 9.58l-1.368 1.001v.838L9 12.42l-.705 1.16-1.597-.624-.764.418L5.705 15h-1.41l-.229-1.626-.764-.418-1.597.624L1 12.42l1.368-1.001v-.838L1 9.58l.705-1.16 1.597.624.764-.418z" fill="#0095D7"/><path d="M6.5 11a1.5 1.5 0 1 1-3 0 1.5 1.5 0 0 1 3 0z" fill="#EBEBEB"/><path d="M5.5 11a.5.5 0 1 1-1 0 .5.5 0 0 1 1 0z" fill="#0095D7"/></svg>