<svg xmlns="http://www.w3.org/2000/svg" width="16" height="16" viewBox="0 0 16 16"><rect id="frame" width="16" height="16" fill="none"/><g fill="none" fill-rule="evenodd"><path fill="#F4AF3D" d="M10 2L8 4H2v3h1V6h11V10.889h.675V14H15V2z"/><path fill="#40B6E0" d="M11.895 11.89h-1.263v-.023s1.138-1.865 1.294-2.252h.042c-.031.366-.073 2.274-.073 2.274zm1.105 0V8h-1.209l-2.312 4.05v.97h2.416V15H13v-1.98h.675v-1.13H13zm-4.14.136h-1.7v1.89h1.908V15H5.9V8h3.043v1.084H7.16v1.91h1.7v1.032zM2.24 8v4.55c0 1.027.407 1.34.755 1.34.388 0 .765-.282.765-1.34V8H5v4.31c0 1.796-.665 2.773-1.995 2.773C1.562 15.083 1 14.076 1 12.32V8h1.24z"/></g></svg>