<svg ti:v="1" width="16" height="16" viewBox="0 0 16 16" xmlns="http://www.w3.org/2000/svg" xmlns:ti="urn:schemas-jetbrains-com:tisvg"><rect id="frame" width="16" height="16" fill="none"/><path d="M1 15V3h6.586l2-2H16v14H1z" fill="#F4F4F4"/><path d="M15 14V2h-5L8 4H2v10h13z" fill="#C7781A"/><path d="M3 6h11v7H3z" fill="#EBEBEB"/><path d="M2.244 16h1.43a2.7 2.7 0 0 0 1.226-.6v.6h5.168v-1.98h.832V16H14v-1.98h.675v-3.131H14V7h-2.789L9.943 9.221V7H0v5.32c0 2.606 1.192 3.445 2.244 3.68zm0 0" fill="#F4F4F4"/><path d="M2.24 8v4.549c0 1.028.407 1.34.755 1.34.388 0 .765-.281.765-1.34V8H5v4.31c0 1.8-.665 2.773-1.995 2.773-1.442 0-2-1.007-2-2.763V8zm6.62 4.026h-1.7v1.89h1.908V15H5.9V8h3.043v1.084H7.16v1.91h1.7zm4.14-.137V8h-1.209l-2.312 4.05v.97H11.9V15H13v-1.98h.675v-1.131zm-1.105 0h-1.263v-.022S11.771 10 11.926 9.615h.042c-.031.366-.068 2.274-.068 2.274zm0 0" fill="#0095D7"/></svg>