<svg ti:v="1" width="16" height="16" viewBox="0 0 16 16" xmlns="http://www.w3.org/2000/svg" xmlns:ti="urn:schemas-jetbrains-com:tisvg"><rect id="frame" width="16" height="16" fill="none"/><linearGradient id="a" x1=".5" y1=".002" x2=".5" y2=".996"><stop offset="0" stop-color="#C28C21"/><stop offset="1" stop-color="#634933"/></linearGradient><path d="M1 15V3h6.586l2-2H16v14H1z" fill="url(#a)"/><linearGradient id="b" x1=".5" y1=".002" x2=".5" y2=".996"><stop offset="0" stop-color="#FFE9BD"/><stop offset="1" stop-color="#D4A24C"/></linearGradient><path d="M15 14V2h-5L8 4H2v10h13z" fill="url(#b)"/><linearGradient id="c" x1=".5" y1=".002" x2=".5" y2=".996"><stop offset="0" stop-color="#B88143"/><stop offset="1" stop-color="#8A4717"/></linearGradient><path d="M3 6h11v7H3z" fill="url(#c)"/><linearGradient id="d" x1=".5" y1="0" x2=".5" y2="1"><stop offset="0" stop-color="#704600"/><stop offset="1" stop-color="#4F1600"/></linearGradient><path d="M2.5 16A2.5 2.5 0 0 1 0 13.5v-4A2.5 2.5 0 0 1 2.5 7H8v9zm0 0" fill="url(#d)"/><linearGradient id="e" x1=".5" y1="0" x2=".5" y2="1"><stop offset="0" stop-color="#68A0AD"/><stop offset="1" stop-color="#26434A"/></linearGradient><path d="M8 8h4v7H8z" fill="url(#e)"/><linearGradient id="f" x1=".5" y1="0" x2=".5" y2="1"><stop offset="0" stop-color="#FFF"/><stop offset="1" stop-color="#CBF4FF"/></linearGradient><path d="M8 9h3v5H8z" fill="url(#f)"/><linearGradient id="g" x1=".5" y1="0" x2=".5" y2="1"><stop offset="0" stop-color="#FF9C00"/><stop offset="1" stop-color="#FF4800"/></linearGradient><path d="M1 13.5A1.5 1.5 0 0 0 2.5 15H7V8H2.5A1.5 1.5 0 0 0 1 9.5zm0 0" fill="url(#g)"/><linearGradient id="h" x1=".5" y1="0" x2=".5" y2="1"><stop offset="0" stop-color="#FFF"/><stop offset="1" stop-color="#CBF4FF"/></linearGradient><path d="M8 10h2v3H8z" fill="url(#h)"/></svg>