<svg xmlns="http://www.w3.org/2000/svg" xmlns:xlink="http://www.w3.org/1999/xlink" width="16" height="16" viewBox="0 0 16 16"><rect id="frame" width="16" height="16" fill="none"/><defs><path id="a" d="M0 0h12v8l-2-2H9l-6 6H0z"/></defs><g fill="none" fill-rule="evenodd"><path fill="#62B543" d="M15.5 12.5L12 16V9z"/><path fill="#F26522" d="M7.5 12.5L11 9v7z"/><g transform="translate(2 2)"><mask id="b" fill="#fff"><use xlink:href="#a"/></mask><use fill="#ECECEC" xlink:href="#a"/><g mask="url(#b)"><path fill="#000E35" d="M0 0h12v12H0z"/><path fill="#CADAFF" d="M1 1h10v10H1z"/><path fill="#000E35" d="M6.165 4.031c-.4-.097-.67-.145-.812-.145-.312 0-.621.02-.848.145-.227.126-.32.22-.462.431-.142.21-.247.45-.316.718a3.304 3.304 0 0 0 0 1.64c.069.267.174.507.316.717.142.21.235.295.462.42.227.126.492.164.804.164.153 0 .412-.026.776-.08v.783c-.387.117-.7.176-.937.176-.437 0-.758-.093-1.105-.254-.347-.162-.456-.303-.697-.582a2.953 2.953 0 0 1-.553-.975 3.615 3.615 0 0 1-.193-1.19c0-.415.064-.808.193-1.18.128-.372.313-.697.553-.976.24-.278.534-.5.882-.664C4.575 3.015 4.967 3 5.404 3c.219 0 .472.06.76.18v.851zm.335.751h.6v-.45c0-.269.033-.486.098-.653a.926.926 0 0 1 .263-.385c.109-.09.233-.15.373-.18.14-.03.285-.045.438-.045.301 0 .323.006.46.045v.74a1.23 1.23 0 0 0-.264-.02.534.534 0 0 0-.313.09c-.09.06-.155.178-.155.353v.505h1v.8H8V9h-.9V5.582h-.6v-.8z"/></g></g><path fill="#F26522" d="M7.5 12.5L11 9v7z"/></g></svg>