<svg width="16" height="16" viewBox="0 0 16 16" fill="none" xmlns="http://www.w3.org/2000/svg"><rect id="frame" width="16" height="16" fill="none"/><path d="M16 0H0v16h16V0z" fill="#07C3F2"/><path d="M15 1H1v14h14V1z" fill="#000"/><path d="M9 12H3v1h6v-1z" fill="#fff"/><path d="M3 3h2.4c1.4 0 2.2.8 2.2 2.1 0 1.4-1.1 2.1-2.4 2.1h-1V9H3V3zm2.3 3c.6 0 1-.4 1-.9 0-.6-.4-.9-1-.9h-1V6h1z" fill="#fff"/><path d="M8.5 3h2.1c1.7 0 2.9 1.3 2.9 3s-1.2 3-2.9 3H8.5V3zm1.2 1.2v3.6h.9c1 0 1.6-.7 1.6-1.8s-.7-1.8-1.6-1.8h-.9z" fill="#fff"/></svg>