<svg width="128" height="128" viewBox="0 0 128 128" fill="none" xmlns="http://www.w3.org/2000/svg"><rect id="frame" width="128" height="128" fill="none"/><path d="M117 11H11v106h106V11z" fill="url(#paint0_linear)"/><path d="M103 25H25v78h78V25z" fill="url(#paint1_linear)"/><path d="M62.7 89.567H33.667v4.767H62.7v-4.767z" fill="#fff"/><path d="M34.533 34.533H46.45c6.933 0 11.158 4.117 11.158 10.075v.109c0 6.716-5.308 10.291-11.808 10.291h-4.875v8.775h-6.392v-29.25zm11.484 14.625c3.25 0 5.091-1.842 5.091-4.333v-.108c0-2.925-1.95-4.442-5.2-4.442h-4.983v8.883h5.092z" fill="#fff"/><path d="M61.848 34.53h11.404c9.253 0 15.493 6.24 15.493 14.416 0 8.177-6.24 14.632-15.493 14.632l-11.404.215V34.53zm6.455 6.025v17.429h4.95c5.163 0 8.821-3.443 8.821-8.607s-3.442-8.822-8.822-8.822h-4.949z" fill="#fff"/><defs><linearGradient id="paint0_linear" x1="128.801" y1="128.81" x2="-20.93" y2="-20.921" gradientUnits="userSpaceOnUse"><stop offset=".347" stop-color="#07C3F2"/><stop offset=".816" stop-color="#21D789"/></linearGradient><linearGradient id="paint1_linear" x1="63.896" y1="6.042" x2="63.896" y2="75.993" gradientUnits="userSpaceOnUse"><stop offset=".084" stop-color="#878585"/><stop offset=".538"/></linearGradient></defs></svg>