<svg width="80" height="80" viewBox="0 0 80 80" fill="none" xmlns="http://www.w3.org/2000/svg"><rect id="frame" width="80" height="80" fill="none"/><path d="M75 5H5v70h70V5z" fill="url(#paint0_linear)"/><path d="M65 15H15v50h50V15z" fill="url(#paint1_linear)"/><path d="M39.9 55.5H21.2v3.1h18.7v-3.1z" fill="#fff"/><path d="M20.893 21.25h7.5c4.464 0 7.143 2.678 7.143 6.428 0 4.286-3.393 6.608-7.5 6.608H25v5.535h-4.107V21.25zm7.321 9.464c1.965 0 3.215-1.25 3.215-2.857 0-1.786-1.25-2.857-3.393-2.857H24.82v5.714h3.393z" fill="#fff"/><path d="M38.7 21.25h7.27c5.798 0 9.826 4.028 9.826 9.236v.098c0 5.208-4.028 9.236-9.825 9.236H38.7V21.25zm4.028 3.635v11.201h3.145c3.34 0 5.6-2.26 5.6-5.502v-.098c0-3.242-2.26-5.6-5.6-5.6h-3.145z" fill="#fff"/><defs><linearGradient id="paint0_linear" x1="82.799" y1="82.796" x2="-16.08" y2="-16.082" gradientUnits="userSpaceOnUse"><stop offset=".347" stop-color="#07C3F2"/><stop offset=".816" stop-color="#21D789"/></linearGradient><linearGradient id="paint1_linear" x1="39.999" y1="2.846" x2="39.999" y2="47.685" gradientUnits="userSpaceOnUse"><stop offset=".084" stop-color="#878585"/><stop offset=".538"/></linearGradient></defs></svg>