<svg width="70" height="70" viewBox="0 0 70 70" fill="none" xmlns="http://www.w3.org/2000/svg"><rect id="frame" width="70" height="70" fill="none"/><path d="M64 6H6v58h58V6z" fill="url(#paint0_linear)"/><path d="M56 14H14v42h42V14z" fill="url(#paint1_linear)"/><path d="M19.133 19.133h6.417c3.733 0 6.067 2.217 6.067 5.484 0 3.616-2.8 5.483-6.417 5.483h-2.683v4.667h-3.5V19.133h.116zm6.184 8.05c1.75 0 2.683-1.166 2.683-2.45 0-1.516-1.05-2.333-2.8-2.333h-2.683v4.783h2.8z" fill="#fff"/><path d="M33.833 19.133h6.184c5.016 0 8.4 3.333 8.4 7.7 0 4.368-3.384 7.816-8.4 7.816l-6.184.114v-15.63zm3.5 3.103v9.424h2.684c2.8 0 4.783-1.838 4.783-4.597 0-2.758-1.867-4.712-4.783-4.712l-2.684-.115z" fill="#fff"/><path d="M34.417 48.65h-15.75v2.683h15.75V48.65z" fill="#fff"/><defs><linearGradient id="paint0_linear" x1="70.457" y1="70.462" x2="-11.471" y2="-11.466" gradientUnits="userSpaceOnUse"><stop offset=".347" stop-color="#07C3F2"/><stop offset=".816" stop-color="#21D789"/></linearGradient><linearGradient id="paint1_linear" x1="34.944" y1="3.792" x2="34.944" y2="41.458" gradientUnits="userSpaceOnUse"><stop offset=".084" stop-color="#878585"/><stop offset=".538"/></linearGradient></defs></svg>