<svg width="24" height="24" viewBox="0 0 24 24" fill="none" xmlns="http://www.w3.org/2000/svg"><rect id="frame" width="24" height="24" fill="none"/><path d="M23 1H1v22h22V1z" fill="url(#paint0_linear)"/><path d="M20 4H4v16h16V4z" fill="url(#paint1_linear)"/><path d="M12 17H6v1h6v-1z" fill="#fff"/><path d="M6 6h2.4c1.4 0 2.3.8 2.3 2.1 0 1.4-1.1 2.1-2.4 2.1h-1V12H6V6zm2.4 3c.7 0 1-.4 1-.9 0-.6-.4-.9-1.1-.9h-1V9h1.1z" fill="#fff"/><path d="M14 6h-2.3v6h2.5c1.8-.1 3-1.3 3-3S15.9 6 14 6zm1.8 3c0 1.1-.7 1.8-1.8 1.8h-1V7.2h1c1 0 1.8.8 1.8 1.8z" fill="#fff"/><defs><linearGradient id="paint0_linear" x1="25.451" y1="25.469" x2="-5.625" y2="-5.607" gradientUnits="userSpaceOnUse"><stop offset=".347" stop-color="#07C3F2"/><stop offset=".816" stop-color="#21D789"/></linearGradient><linearGradient id="paint1_linear" x1="12" y1=".129" x2="12" y2="14.478" gradientUnits="userSpaceOnUse"><stop offset=".084" stop-color="#878585"/><stop offset=".538"/></linearGradient></defs></svg>