<svg ti:v="1" width="16" height="16" viewBox="0 0 16 16" xmlns="http://www.w3.org/2000/svg" xmlns:ti="urn:schemas-jetbrains-com:tisvg"><rect id="frame" width="16" height="16" fill="none"/><g fill-rule="evenodd"><path d="M16 14H0v-2.914l1-1v-.671l-1-.999V6.588l1-1.001v-.673l-1-1V1h16v13z" fill="#F4F4F4"/><path d="M1 3.5l1 1V6L1 7.003v1l1 .999V10.5l-1 1V13h14V2H1v1.5z" fill="#313131"/><path d="M2 12v-.086l1-1V8.587l-1-.999v-.172l1-1.001V4.086l-1-1V3h12v9H2z" fill="#EBEBEB"/><path d="M10 10H9v1h1m-2-1H7v1h1m-2-1H5v1h1m6-3h-1v1h1m0-3h-1v1h1m0-3h-1v1h1m-2 3H9v1h1M8 8H7v1h1M6 8H5v1h1m4-3H9v1h1M8 6H7v1h1M6 6H5v1h1m4-3H9v1h1M8 4H7v1h1M6 5H5V4h1v1z" fill="#313131"/></g></svg>