<svg ti:v="1" width="16" height="16" viewBox="0 0 16 16" xmlns="http://www.w3.org/2000/svg" xmlns:ti="urn:schemas-jetbrains-com:tisvg"><rect id="frame" width="16" height="16" fill="none"/><linearGradient id="a" x1=".5" y1=".005" x2=".5" y2="1.005"><stop offset="0" stop-color="#566980"/><stop offset="1" stop-color="#2C3641"/></linearGradient><path fill-rule="evenodd" d="M16 14H0v-2.914l1-1v-.671l-1-.999V6.588l1-1.001v-.673l-1-1V1h16v13z" fill="url(#a)"/><path fill-rule="evenodd" d="M1 3.5l1 1v1.501L1 7.002v1l1 .999V10.5l-1 1V13h14V2H1v1.5z" fill="#FFF"/><linearGradient id="b" x1=".5" y1="0" x2=".5" y2="1.008"><stop offset="0" stop-color="#EDF6FF"/><stop offset="1" stop-color="#DFE8F2"/></linearGradient><path fill-rule="evenodd" d="M2 12v-.086l1-1V8.587l-1-.999v-.172l1-1.001V4.086l-1-1V3h12v9H2z" fill="url(#b)"/><linearGradient id="c" x1=".5" y1=".006" x2=".5" y2="1.006"><stop offset="0" stop-color="#438A3F"/><stop offset="1" stop-color="#1E3F1D"/></linearGradient><path fill-rule="evenodd" d="M10 7H0V0h10v7z" fill="url(#c)"/><linearGradient id="d" x1=".5" y1=".008" x2=".5" y2="1.008"><stop offset="0" stop-color="#D1FFCF"/><stop offset="1" stop-color="#AED6AE"/></linearGradient><path fill-rule="evenodd" d="M9 6H1V1h8v5z" fill="url(#d)"/><path fill-rule="evenodd" d="M5 4H2v1h3m3-2H2V2h6v1z" fill="#003914"/></svg>