<svg xmlns="http://www.w3.org/2000/svg" width="16" height="16" viewBox="0 0 16 16"><rect id="frame" width="16" height="16" fill="none"/><path d="M0 1v2.914l1 1v.672l-1 1v1.83l1 1v.671l-1 1V14h16V1z" fill="#f4f4f4" fill-rule="evenodd"/><path d="M1 3.5l1 1V6L1 7v1l1 1v1.5l-1 1V13h14V2H1z" fill="#313131" fill-rule="evenodd"/><path d="M2 3v.086l1 1v2.329l-1 1v.171l1 1v2.327l-1 1V12h12V3z" fill="#ebebeb" fill-rule="evenodd"/><path d="M13 7.5l-3 3.005-1-.99L11.016 7.5 9 5.485l.99-.99zm-8.99 0l3 3.005.99-.99L5.984 7.5 8 5.485 7.01 4.5z" fill="#313131"/></svg>