<svg ti:v="1" width="16" height="16" viewBox="0 0 16 16" xmlns="http://www.w3.org/2000/svg" xmlns:ti="urn:schemas-jetbrains-com:tisvg"><rect id="frame" width="16" height="16" fill="none"/><g fill-rule="evenodd"><path d="M16 14H0v-2.914l1-1v-.671l-1-.999V6.588l1-1.001v-.673l-1-1V1h16v13z" fill="#F4F4F4"/><path d="M1 3.5l1 1v1.501L1 7.002v1l1 .999V10.5l-1 1V13h14V2H1v1.5z" fill="#313131"/><path d="M2 12v-.086l1-1V8.587l-1-.999v-.172l1-1.001V4.086l-1-1V3h12v9H2z" fill="#EBEBEB"/><path d="M11.5 7.182v.637l-.5.848c0 1.909-.5 1.697-.5 1.697V11s1.5.071 1.5-3.111h1v-.777h-1C12 3.93 10.5 4 10.5 4v.637s.5-.212.5 1.696m-5.5.849v.637l.5.848c0 1.909.5 1.697.5 1.697V11S5 11.071 5 7.889H4v-.777h1C5 3.93 6.5 4 6.5 4v.637S6 4.425 6 6.333l-.5.849z" fill="#313131"/><path d="M8.5 9.5c-.553 0-1-.896-1-2s.447-2 1-2c.553 0 1 .896 1 2s-.447 2-1 2zm0-4.5C7.672 5 7 6.119 7 7.5S7.672 10 8.5 10 10 8.881 10 7.5 9.328 5 8.5 5z" fill="#313131"/></g></svg>