<svg ti:v="1" width="16" height="16" viewBox="0 0 16 16" xmlns="http://www.w3.org/2000/svg" xmlns:ti="urn:schemas-jetbrains-com:tisvg"><rect id="frame" width="16" height="16" fill="none"/><linearGradient id="a" x1=".5" y1=".005" x2=".5" y2="1.005"><stop offset="0" stop-color="#566980"/><stop offset="1" stop-color="#2C3641"/></linearGradient><path fill-rule="evenodd" d="M16 14H0v-2.914l1-1v-.671l-1-.999V6.588l1-1.001v-.673l-1-1V1h16v13z" fill="url(#a)"/><path fill-rule="evenodd" d="M1 3.5l1 1v1.501L1 7.002v1l1 .999V10.5l-1 1V13h14V2H1v1.5z" fill="#FFF"/><linearGradient id="b" x1=".5" y1="0" x2=".5" y2="1.008"><stop offset="0" stop-color="#EDF6FF"/><stop offset="1" stop-color="#DFE8F2"/></linearGradient><path fill-rule="evenodd" d="M2 12v-.086l1-1V8.587l-1-.999v-.172l1-1.001V4.086l-1-1V3h12v9H2z" fill="url(#b)"/><linearGradient id="c" x1=".5" y1="0" x2=".5" y2="1.04"><stop offset="0" stop-color="#37AD0D"/><stop offset="1" stop-color="#006F33"/></linearGradient><path fill-rule="evenodd" d="M13 7H5V4h8v3z" fill="url(#c)"/><path fill-rule="evenodd" d="M11.764 7L11 7.382V6h1V5H6v1h1v1.382L6.237 7H5v2.414L8.586 13h.828L13 9.414V7h-1.236z" fill="#FFF"/><linearGradient id="d" x1=".5" y1=".017" x2=".5" y2="1.025"><stop offset="0" stop-color="#5572A1"/><stop offset="1" stop-color="#405980"/></linearGradient><path fill-rule="evenodd" d="M12 9l-3 3-3-3V8l2 1V6h2v3l2-1v1z" fill="url(#d)"/></svg>