<svg xmlns="http://www.w3.org/2000/svg" xmlns:xlink="http://www.w3.org/1999/xlink" width="16" height="16" viewBox="0 0 16 16"><rect id="frame" width="16" height="16" fill="none"/><defs><linearGradient id="a" x1="-427.878" y1="-283.515" x2="-427.878" y2="-284.515" gradientTransform="matrix(16 0 0 -13 6854.055 -3684.638)" gradientUnits="userSpaceOnUse"><stop offset="0" stop-color="#566980"/><stop offset="1" stop-color="#2c3641"/></linearGradient><linearGradient id="b" x1="-419.671" y1="-293.071" x2="-419.671" y2="-294.079" gradientTransform="matrix(12 0 0 -9 5044.055 -2634.638)" gradientUnits="userSpaceOnUse"><stop offset="0" stop-color="#edf6ff"/><stop offset="1" stop-color="#dfe8f2"/></linearGradient></defs><path d="M0 1v2.914l1 1v.672l-1 1v1.83l1 1v.671l-1 1V14h16V1z" fill-rule="evenodd" fill="url(#a)"/><path d="M1 3.5l1 1V6L1 7v1l1 1v1.5l-1 1V13h14V2H1z" fill="#fff" fill-rule="evenodd"/><path d="M2 3v.086l1 1v2.329l-1 1v.171l1 1v2.327l-1 1V12h12V3z" fill-rule="evenodd" fill="url(#b)"/><path d="M13 7.5l-3 3.005-1-.99L11.016 7.5 9 5.485l.99-.99zm-8.99 0l3 3.005.99-.99L5.984 7.5 8 5.485 7.01 4.5z" fill="#414f5f"/></svg>