<svg xmlns="http://www.w3.org/2000/svg" width="16" height="16" viewBox="0 0 16 16"><rect id="frame" width="16" height="16" fill="none"/><g fill="#afb1b3" fill-rule="evenodd"><path d="M1 2v1.5l1 1V6L1 7v1l1 1v1.5l-1 1V13h14V2zm13 10H2v-.086l1-1V8.587l-1-1v-.171l1-1v-2.33l-1-1V3h12z"/><path d="M10.391 9c-.115.092-.094.438.078.438C11.313 8.859 12 8.734 12 6a1 1 0 0 0-2 0 .979.979 0 0 0 .4.778l.086.076c1.046.532.358 1.787-.095 2.146zM6.61 9c.115.092.093.438-.078.438C5.688 8.859 5 8.734 5 6a1 1 0 0 1 2 0 .981.981 0 0 1-.4.778l-.086.076C5.469 7.386 6.157 8.641 6.61 9z"/></g></svg>