<svg ti:v="1" width="16" height="16" viewBox="0 0 16 16" xmlns="http://www.w3.org/2000/svg" xmlns:ti="urn:schemas-jetbrains-com:tisvg"><rect id="frame" width="16" height="16" fill="none"/><linearGradient id="a" x1=".5" y1=".005" x2=".5" y2="1.005"><stop offset="0" stop-color="#566980"/><stop offset="1" stop-color="#2C3641"/></linearGradient><path fill-rule="evenodd" d="M16 14H0v-2.914l1-1v-.671l-1-.999V6.588l1-1.001v-.673l-1-1V1h16v13z" fill="url(#a)"/><path fill-rule="evenodd" d="M1 3.5l1 1V6L1 7.003v1l1 .999V10.5l-1 1V13h14V2H1v1.5z" fill="#FFF"/><linearGradient id="b" x1=".5" y1="0" x2=".5" y2="1.008"><stop offset="0" stop-color="#EDF6FF"/><stop offset="1" stop-color="#DFE8F2"/></linearGradient><path fill-rule="evenodd" d="M2 12v-.086l1-1V8.587l-1-.999v-.172l1-1.001V4.086l-1-1V3h12v9H2z" fill="url(#b)"/><path fill-rule="evenodd" d="M10 10H9v1h1m-2-1H7v1h1m-2-1H5v1h1m6-3h-1v1h1m0-3h-1v1h1m0-3h-1v1h1m-2 3H9v1h1M8 8H7v1h1M6 8H5v1h1m4-3H9v1h1M8 6H7v1h1M6 6H5v1h1m4-3H9v1h1M8 4H7v1h1M6 5H5V4h1v1z" fill="#313131"/></svg>