<svg xmlns="http://www.w3.org/2000/svg" xmlns:xlink="http://www.w3.org/1999/xlink" width="16" height="16" viewBox="0 0 16 16"><rect id="frame" width="16" height="16" fill="none"/><defs><linearGradient id="a" x1="-427.878" y1="-315.823" x2="-427.878" y2="-316.823" gradientTransform="matrix(16 0 0 -13 6854.055 -4104.638)" gradientUnits="userSpaceOnUse"><stop offset="0" stop-color="#566980"/><stop offset="1" stop-color="#2c3641"/></linearGradient><linearGradient id="b" x1="-419.671" y1="-326.404" x2="-419.671" y2="-327.412" gradientTransform="matrix(12 0 0 -9 5044.055 -2934.638)" gradientUnits="userSpaceOnUse"><stop offset="0" stop-color="#edf6ff"/><stop offset="1" stop-color="#dfe8f2"/></linearGradient></defs><g fill-rule="evenodd"><path d="M0 1v2.914l1 1v.672l-1 1v1.83l1 1v.671l-1 1V14h16V1z" fill="url(#a)"/><path d="M1 3.5l1 1V6L1 7v1l1 1v1.5l-1 1V13h14V2H1z" fill="#fff"/><path d="M2 3v.086l1 1v2.329l-1 1v.171l1 1v2.327l-1 1V12h12V3z" fill="url(#b)"/><path d="M10.391 9c-.115.092-.094.438.078.438C11.313 8.859 12 8.734 12 6a1 1 0 0 0-2 0 .979.979 0 0 0 .4.778l.086.076c1.046.532.358 1.787-.095 2.146zM6.61 9c.115.092.093.438-.078.438C5.688 8.859 5 8.734 5 6a1 1 0 0 1 2 0 .981.981 0 0 1-.4.778l-.086.076C5.469 7.386 6.157 8.641 6.61 9z" fill="#414f5f"/></g></svg>