<svg ti:v="1" width="16" height="16" viewBox="0 0 16 16" xmlns="http://www.w3.org/2000/svg" xmlns:ti="urn:schemas-jetbrains-com:tisvg"><rect id="frame" width="16" height="16" fill="none"/><linearGradient id="a" x1=".5" y1=".005" x2=".5" y2="1.005"><stop offset="0" stop-color="#566980"/><stop offset="1" stop-color="#2C3641"/></linearGradient><path fill-rule="evenodd" d="M0 1v2.914l1 1v.673L0 6.588v1.828l1 .999v.671l-1 1V14h16V1H0z" fill="url(#a)"/><path fill-rule="evenodd" d="M1 3.5l1 1v1.501L1 7.002v1l1 .999V10.5l-1 1V13h14V2H1v1.5z" fill="#FFF"/><linearGradient id="b" x1=".5" y1="0" x2=".5" y2="1.008"><stop offset="0" stop-color="#EDF6FF"/><stop offset="1" stop-color="#DFE8F2"/></linearGradient><path fill-rule="evenodd" d="M2 3v.086l1 1v2.329L2 7.416v.172l1 .999v2.327l-1 1V12h12V3H2z" fill="url(#b)"/><linearGradient id="c" x1=".5" y1=".021" x2=".5" y2="1.01"><stop offset="0" stop-color="#6E7C14"/><stop offset="1" stop-color="#404400"/></linearGradient><path fill-rule="evenodd" d="M5.415 4L5 4.415V6.59L9.41 11 12 8.41 7.59 4H5.415z" fill="url(#c)"/><linearGradient id="d" x1=".5" y1="-.018" x2=".5" y2=".999"><stop offset="0" stop-color="#FBFFD4"/><stop offset="1" stop-color="#FFF"/></linearGradient><path fill-rule="evenodd" d="M6 5.5a.5.5 0 1 0 1 0 .5.5 0 0 0-1 0z" fill="url(#d)"/></svg>