<svg ti:v="1" width="16" height="16" viewBox="0 0 16 16" xmlns="http://www.w3.org/2000/svg" xmlns:ti="urn:schemas-jetbrains-com:tisvg"><rect id="frame" width="16" height="16" fill="none"/><linearGradient id="a" x1=".5" y1=".005" x2=".5" y2="1.005"><stop offset="0" stop-color="#566980"/><stop offset="1" stop-color="#2C3641"/></linearGradient><path fill-rule="evenodd" d="M0 1v2.915l1 .999v.673l-1 1v1.829l1 .999v.671l-1 1V14h16V1H0z" fill="url(#a)"/><path fill-rule="evenodd" d="M1 3.5l1 1v1.501L1 7.002v1l1 .999V10.5l-1 1V13h14V2H1v1.5z" fill="#FFF"/><linearGradient id="b" x1=".5" y1="0" x2=".5" y2="1.008"><stop offset="0" stop-color="#EDF6FF"/><stop offset="1" stop-color="#DFE8F2"/></linearGradient><path fill-rule="evenodd" d="M2 3v.086l1 1v2.329L2 7.416v.172l1 .999v2.327l-1 1V12h12V3H2z" fill="url(#b)"/><linearGradient id="c" x1=".5" y1="0" x2=".5" y2="1"><stop offset="0" stop-color="#5E7280"/><stop offset="1" stop-color="#3B4951"/></linearGradient><path fill-rule="evenodd" d="M10.5 4v.636s.5-.211.5 1.697l.5.849v.637l-.5.848c0 1.908-.5 1.696-.5 1.696V11s1.5.07 1.5-3.111h1v-.778h-1C12 4.064 10.624 4 10.508 4H10.5zM5 7.111H4v.778h1C5 11.07 6.5 11 6.5 11v-.637s-.5.212-.5-1.696l-.5-.848v-.637l.5-.849c0-1.908.5-1.697.5-1.697L6.492 4C6.376 4 5 4.064 5 7.111z" fill="url(#c)"/><linearGradient id="d" x1=".5" y1="0" x2=".5" y2="1"><stop offset="0" stop-color="#738700"/><stop offset="1" stop-color="#353C00"/></linearGradient><path fill-rule="evenodd" d="M7 7.5c0 1.381.672 2.5 1.5 2.5S10 8.881 10 7.5C10 6.12 9.328 5 8.5 5S7 6.12 7 7.5zm.5 0c0-1.104.447-2 1-2 .553 0 1 .896 1 2s-.447 2-1 2c-.553 0-1-.896-1-2z" fill="url(#d)"/></svg>