<svg xmlns="http://www.w3.org/2000/svg" xmlns:xlink="http://www.w3.org/1999/xlink" width="16" height="16" viewBox="0 0 16 16"><rect id="frame" width="16" height="16" fill="none"/><defs><linearGradient id="a" x1="-20.125" y1="-504.159" x2="-20.125" y2="-505.159" gradientTransform="matrix(16 0 0 -13 330 -6553)" gradientUnits="userSpaceOnUse"><stop offset="0" stop-color="#566980"/><stop offset="1" stop-color="#2c3641"/></linearGradient><linearGradient id="b" x1="-19.667" y1="-523.333" x2="-19.667" y2="-524.341" gradientTransform="matrix(12 0 0 -9 244 -4707)" gradientUnits="userSpaceOnUse"><stop offset="0" stop-color="#edf6ff"/><stop offset="1" stop-color="#dfe8f2"/></linearGradient></defs><g fill-rule="evenodd"><path d="M16 14H0v-2.914l1-1v-.671l-1-1V6.588l1-1v-.674l-1-1V1h16z" fill="url(#a)"/><path d="M1 3.5l1 1V6L1 7v1l1 1v1.5l-1 1V13h14V2H1z" fill="#fff"/><path d="M2 12v-.086l1-1V8.587l-1-1v-.171l1-1v-2.33l-1-1V3h12v9z" fill="url(#b)"/><path d="M11 8H5v1h6m-3 1H5v1h3m2-5H5v1h5m2-2H5V4h7z" fill="#313131"/></g></svg>