<svg ti:v="1" width="16" height="16" viewBox="0 0 16 16" xmlns="http://www.w3.org/2000/svg" xmlns:ti="urn:schemas-jetbrains-com:tisvg"><rect id="frame" width="16" height="16" fill="none"/><g fill-rule="evenodd"><path d="M16 14H0v-2.914l1-1v-.671l-1-.999V6.588l1-1.001v-.673l-1-1V1h16v13z" fill="#242424"/><path d="M1 3.5l1 1v1.501L1 7.002v1l1 .999V10.5l-1 1V13h14V2H1v1.5z" fill="#C4C4C4"/><path d="M2 12v-.086l1-1V8.587l-1-.999v-.172l1-1.001V4.086l-1-1V3h12v9H2z" fill="#282828"/><path d="M10 7H0V0h10v7z" fill="#242424"/><path d="M9 6H1V1h8v5z" fill="#C4C4C4"/><path d="M5 4H2v1h3m3-2H2V2h6v1z" fill="#282828"/></g></svg>