<svg ti:v="1" width="16" height="16" viewBox="0 0 16 16" xmlns="http://www.w3.org/2000/svg" xmlns:ti="urn:schemas-jetbrains-com:tisvg"><rect id="frame" width="16" height="16" fill="none"/><linearGradient id="a" x1=".5" y1=".005" x2=".5" y2="1.005"><stop offset="0" stop-color="#566980"/><stop offset="1" stop-color="#2C3641"/></linearGradient><path fill-rule="evenodd" d="M0 1v2.914l1 1v.673L0 6.588v1.828l1 .999v.671l-1 1V14h16V1H0z" fill="url(#a)"/><path fill-rule="evenodd" d="M1 3.5l1 1V6L1 7.003v1l1 .999V10.5l-1 1V13h14V2H1v1.5z" fill="#FFF"/><linearGradient id="b" x1=".5" y1="0" x2=".5" y2="1.008"><stop offset="0" stop-color="#EDF6FF"/><stop offset="1" stop-color="#DFE8F2"/></linearGradient><path fill-rule="evenodd" d="M2 3v.086l1 1v2.329L2 7.416v.172l1 .998v2.328l-1 1V12h12V3H2z" fill="url(#b)"/><linearGradient id="c" x1=".5" y1=".019" x2=".5" y2="1.02"><stop offset="0" stop-color="#566980"/><stop offset="1" stop-color="#2C3641"/></linearGradient><path fill-rule="evenodd" d="M9 5a1 1 0 0 0-1 1v3a1 1 0 0 0 1 1h3a1 1 0 0 0 1-1V6a1 1 0 0 0-1-1H9z" fill="url(#c)"/><linearGradient id="d" x1=".5" y1=".019" x2=".5" y2="1.02"><stop offset="0" stop-color="#5572A1"/><stop offset="1" stop-color="#405980"/></linearGradient><path fill-rule="evenodd" d="M4 7.5a1.496 1.496 0 1 0 2.908.5H8V7H6.908c-.207-.581-.756-1-1.408-1A1.5 1.5 0 0 0 4 7.5z" fill="url(#d)"/><linearGradient id="e" x1=".5" y1="0" x2=".5" y2="1.067"><stop offset="0" stop-color="#FFF"/><stop offset="1" stop-color="#A7BBDB"/></linearGradient><path fill-rule="evenodd" d="M9 9h3V6H9v3z" fill="url(#e)"/><path fill-rule="evenodd" d="M6 7.5a.5.5 0 1 1-1 0 .5.5 0 0 1 1 0z" fill="#0FF"/></svg>