<svg xmlns="http://www.w3.org/2000/svg" width="16" height="16" viewBox="0 0 16 16"><rect id="frame" width="16" height="16" fill="none"/><g fill="none" fill-rule="evenodd"><path fill="#9AA7B0" fill-opacity=".6" d="M12 1a3 3 0 0 1 3 3v8a3 3 0 0 1-3 3V1zM4 1v14a3 3 0 0 1-3-3V4a3 3 0 0 1 3-3z"/><rect width="6" height="14" x="5" y="1" fill="#F4AF3D" fill-opacity=".6" rx="3"/><path fill="#231F20" fill-opacity=".7" d="M7 12h1V8h1.5V7H8l-.005-1c-.008-.497.138-.927.437-1.028.488-.164 1.137.05 1.258.092l.295-.838C9.91 4.199 9.455 4 8.811 4c-.644 0-.994.061-1.33.389-.316.31-.465.831-.48 1.611L7 7c0 .018-.333.018-1 0v.972h1V12z"/></g></svg>