<svg xmlns="http://www.w3.org/2000/svg" width="16" height="16" viewBox="0 0 16 16"><rect id="frame" width="16" height="16" fill="none"/><g fill="none" fill-rule="evenodd"><path fill="#9AA7B0" fill-opacity=".6" d="M4 12v3a3 3 0 0 1-3-3V4a3 3 0 0 1 3-3v4h1v7H4zm8-7V1a3 3 0 0 1 3 3v8a3 3 0 0 1-3 3v-3h-1V5h1z"/><path fill="#F98B9E" fill-opacity=".6" d="M5 1h6v14H5z"/><path fill="#231F20" fill-opacity=".7" d="M11.992 8c0-.749-.357-2-2.01-2-.87 0-1.324.502-1.383.6C8.284 6.194 7.944 6 7.1 6c-.468 0-.835.1-1.1.3V6H5v5h1c-.033-1.844-.033-2.844 0-3 .05-.234.05-1 1-1s.999.537 1 1v3h1V8c0-.314-.04-1 .982-1s1.022.74 1.023 1v3h.992l-.005-3z"/></g></svg>