<svg xmlns="http://www.w3.org/2000/svg" width="16" height="16" viewBox="0 0 16 16"><rect id="frame" width="16" height="16" fill="none"/><g fill="none" fill-rule="evenodd"><path fill="#9AA7B0" fill-opacity=".6" d="M4 12v3a3 3 0 0 1-3-3V4a3 3 0 0 1 3-3v4h1v7H4zm8-7V1a3 3 0 0 1 3 3v8a3 3 0 0 1-3 3v-3h-1V5h1z"/><path fill="#F98B9E" fill-opacity=".6" d="M5 1h6v14H5z"/><path fill="#231F20" fill-opacity=".7" d="M12 8c-.001-.85-.502-2-2.118-2-.79 0-1.417.202-1.882.604C7.667 6.202 7.133 6 6.4 6c-.468 0-.935.133-1.4.4V6H4v5h1V8c0-.36.25-1 1.2-1s1.299.537 1.3 1v3h1V8c0-.36.3-1 1.25-1s1.254.54 1.255 1v3h.992L12 8z"/></g></svg>