<svg xmlns="http://www.w3.org/2000/svg" width="16" height="16" viewBox="0 0 16 16"><rect id="frame" width="16" height="16" fill="none"/><g fill="none" fill-rule="evenodd"><path fill="#9AA7B0" fill-opacity=".8" d="M1 8.758V2.05c0-.013.005-.026.051-.051H4.98a2.8 2.8 0 0 1 1.717.711L7.985 4H15v3.5H8.5V13h-.527A4.5 4.5 0 0 0 1 8.758z"/><path fill="#231F20" fill-opacity=".7" d="M13.836 12.037c1.516 1.054 2.145 1.612 2.145 1.984v1.983h-.708v-1.983c0 .064-.023.029-.08-.03a5.274 5.274 0 0 0-.495-.437 26.402 26.402 0 0 0-1.36-.998 1.087 1.087 0 0 1-.193.164c.177.12.364.277.513.45.457.533.709 1.23.709 1.56 0 .977-.793 1.274-1.771 1.274-.978 0-1.771-.297-1.771-1.275 0-.25.269-1.005.708-1.558a2.38 2.38 0 0 1 .496-.464 1.103 1.103 0 0 1-.233-.22c-.622.43-1.108.786-1.458 1.067-.225.18-.39.326-.496.437-.057.059-.08.094-.08.03v1.983h-.708v-1.983c0-.372.63-.93 2.146-1.984H9.196v-.708h2.16a3.525 3.525 0 0 1-1.084-.623c-.464-.389-.847-.907-1.179-1.553l.63-.323c.555 1.08 1.238 1.708 2.245 1.942l-.002.005c.025-.02.05-.038.076-.056a1.417 1.417 0 1 1 1.108 0l.01.007c.914-.264 1.55-.88 2.073-1.898l.63.323c-.56 1.093-1.27 1.819-2.263 2.176h2.396v.708h-2.16z"/><path fill="#62B543" fill-opacity=".7" d="M7 12.5a3.5 3.5 0 1 1-7 0 3.5 3.5 0 0 1 7 0"/><path fill="#231F20" fill-opacity=".7" d="M3.509 15c-1.513 0-2.507-1.077-2.507-2.486V12.5c0-1.354 1.036-2.5 2.493-2.5.842 0 1.36.235 1.858.656l-.54.642c-.372-.31-.738-.51-1.353-.51-.89 0-1.567.773-1.567 1.698v.014c0 .994.656 1.727 1.643 1.727.456 0 .87-.146 1.167-.367v-.897H3.467v-.746h2.058v2.03A3.082 3.082 0 0 1 3.51 15z"/></g></svg>