<svg xmlns="http://www.w3.org/2000/svg" width="16" height="16" viewBox="0 0 16 16"><rect id="frame" width="16" height="16" fill="none"/><g fill="none" fill-rule="evenodd"><path fill="#62B543" fill-opacity=".6" d="M14.982 7.5H8.5v7.482A7 7 0 1 1 14.982 7.5z"/><path fill="#231F20" fill-opacity=".7" d="M8.5 10.046v.933a3.74 3.74 0 0 1-.396.021c-1.815 0-3.008-1.293-3.008-2.983V8c0-1.624 1.243-3 2.991-3 1.011 0 1.633.282 2.23.787l-.647.771c-.447-.373-.887-.613-1.624-.613-1.07 0-1.881.928-1.881 2.038V8c0 1.193.787 2.072 1.972 2.072.124 0 .245-.01.363-.026zm0-1.49h-.446V7.66H8.5v.895z"/><path fill="#9AA7B0" d="M13.836 12.037c1.516 1.054 2.145 1.612 2.145 1.984v1.983h-.708v-1.983c0 .064-.023.029-.08-.03a5.274 5.274 0 0 0-.495-.437 26.402 26.402 0 0 0-1.36-.998 1.087 1.087 0 0 1-.193.164c.177.12.364.277.513.45.457.533.709 1.23.709 1.56 0 .977-.793 1.274-1.771 1.274-.978 0-1.771-.297-1.771-1.275 0-.25.269-1.005.708-1.558a2.38 2.38 0 0 1 .496-.464 1.103 1.103 0 0 1-.233-.22c-.622.43-1.108.786-1.458 1.067-.225.18-.39.326-.496.437-.057.059-.08.094-.08.03v1.983h-.708v-1.983c0-.372.63-.93 2.146-1.984H9.196v-.708h2.16a3.525 3.525 0 0 1-1.084-.623c-.464-.389-.847-.907-1.179-1.553l.63-.323c.555 1.08 1.238 1.708 2.245 1.942l-.002.005c.025-.02.05-.038.076-.056a1.417 1.417 0 1 1 1.108 0l.01.007c.914-.264 1.55-.88 2.073-1.898l.63.323c-.56 1.093-1.27 1.819-2.263 2.176h2.396v.708h-2.16z"/></g></svg>