<svg xmlns="http://www.w3.org/2000/svg" width="16" height="16" viewBox="0 0 16 16"><rect id="frame" width="16" height="16" fill="none"/><g fill="none" fill-rule="evenodd"><path fill="#62B543" fill-opacity=".6" d="M14.277 11.102a2.988 2.988 0 0 0-.454-.085 3 3 0 1 0-5.646 0 3 3 0 0 0-2.625 3.543 7 7 0 1 1 8.725-3.458z"/><path fill="#231F20" fill-opacity=".7" d="M8 10.068c.008.326.067.639.17.931L8.105 11c-1.815 0-3.008-1.293-3.008-2.983V8c0-1.624 1.243-3 2.991-3 1.011 0 1.633.282 2.23.787l-.647.771c-.447-.373-.887-.613-1.624-.613-1.07 0-1.881.928-1.881 2.038V8c0 1.147.727 2.003 1.836 2.068zm.37-1.513h-.316V7.66h1.068c-.305.246-.562.55-.752.895z"/><circle cx="11" cy="10" r="2" fill="#40B6E0" fill-opacity=".6"/><circle cx="13.5" cy="14" r="2" fill="#40B6E0" fill-opacity=".6"/><circle cx="8.5" cy="14" r="2" fill="#40B6E0" fill-opacity=".6"/></g></svg>