<svg xmlns="http://www.w3.org/2000/svg" width="13" height="13" viewBox="0 0 13 13"><rect id="frame" width="13" height="13" fill="none"/><path fill="#AFB1B3" fill-rule="evenodd" d="M6.5 12a5.5 5.5 0 1 1 0-11 5.5 5.5 0 0 1 0 11zm.104-3c.857 0 1.54-.345 2.017-.753v-2.03H6.563v.746h1.236v.897a1.973 1.973 0 0 1-1.167.367c-.988 0-1.644-.733-1.644-1.727v-.014c0-.925.677-1.699 1.568-1.699.614 0 .98.2 1.353.511l.54-.642C7.95 4.235 7.432 4 6.59 4 5.133 4 4.097 5.146 4.097 6.5v.014C4.097 7.923 5.092 9 6.604 9z"/></svg>