<svg xmlns="http://www.w3.org/2000/svg" width="16" height="16" viewBox="0 0 16 16"><rect id="frame" width="16" height="16" fill="none"/><g fill="none" fill-rule="evenodd"><rect width="14" height="14" x="1" y="1" fill="#B99BF8" fill-opacity=".6" rx="3"/><path fill="#231F20" fill-opacity=".7" d="M6.997 7.802c0 1.034.242 2.075 1.538 2.075C9.832 9.877 10 8.464 10 7.792c0-.686-.098-2.046-1.476-2.046-1.377 0-1.527 1.023-1.527 2.056zM7 10c.008.074.007 1.074-.003 3H6V5h.997v.746C7.367 5.25 7.94 5 8.717 5 9.88 5 11 5.578 11 7.802s-1.345 2.821-2.284 2.821c-.625 0-1.197-.208-1.716-.623z"/></g></svg>