<svg xmlns="http://www.w3.org/2000/svg" width="16" height="16" viewBox="0 0 16 16"><rect id="frame" width="16" height="16" fill="none"/><defs><linearGradient id="a" x1="47.622%" x2="2.312%" y1="-39.906%" y2="7.8%"><stop offset="0%" stop-color="#7777E9"/><stop offset="100%" stop-color="#01009A"/></linearGradient><linearGradient id="b" x1="22.307%" x2="81.026%" y1="89.651%" y2="156.773%"><stop offset="0%" stop-color="#B83535"/><stop offset="100%" stop-color="#FD5B5A"/></linearGradient><linearGradient id="c" x1="240.033%" x2="185.457%" y1="52.698%" y2=".506%"><stop offset="0%" stop-color="#01B202"/><stop offset="100%" stop-color="#0FE90F"/></linearGradient></defs><g fill="none" fill-rule="evenodd"><path fill="url(#a)" d="M6 0l.7 5.934L0 11.766z"/><path fill="url(#b)" d="M9.003 5.89L6 0l.72 6.923c.136-.136.295-.275.48-.423.602-.481 1.166-.63 1.803-.61z"/><path fill="url(#c)" d="M5.932 9.167l-1.982-.85L0 11.768h6c-.005-.643-.025-1.185-.042-1.65-.013-.358-.024-.671-.026-.95z"/><path fill="#3592C4" d="M15.646 12.015v3.572l-1.259-1.26a4.047 4.047 0 0 1-6.908-2.34l1.362.12a2.734 2.734 0 0 0 4.616 1.291l-1.383-1.383h3.572zm-3.938-4.559a4.047 4.047 0 0 1 3.795 3.473l-1.353-.117a2.734 2.734 0 0 0-4.67-1.16l1.433 1.434H7.341V7.515L8.55 8.724a4.037 4.037 0 0 1 3.158-1.268z"/></g></svg>