<svg xmlns="http://www.w3.org/2000/svg" width="16" height="16" viewBox="0 0 16 16">
  <g fill="none" fill-rule="evenodd">
    <path fill="#9AA7B0" fill-opacity=".8" d="M15,7.06945089 C14.2569409,6.404395 13.2756962,6 12.2,6 C9.88040405,6 8,7.88040405 8,10.2 C8,11.2756962 8.404395,12.2569409 9.06945089,13 L1,13 L1,2.0509 C1,2.0239 1.023,1.9999 1.051,1.9999 L4.979,1.9999 C5.532,1.9999 6.305,2.3199 6.696,2.7109 L7.984,3.9999 L15,3.9999 L15,7.06945089 Z"/>
    <g transform="translate(9 7)">
      <rect width="3.857" height="1" x="1.286" y="7.071" fill="#9AA7B0"/>
      <path fill="#9AA7B0" d="M1.60714286,8.35714286 L4.82142857,8.35714286 L4.82142857,8.35714286 C4.82142857,8.71218305 4.53361162,9 4.17857143,9 L2.25,9 C1.8949598,9 1.60714286,8.71218305 1.60714286,8.35714286 Z"/>
      <path fill="#F4AF3D" fill-opacity=".7" d="M6.42857143,2.7 C6.42857143,5.27142857 5.14285714,5.12276786 5.14285714,6.42857143 L1.28571429,6.42857143 C1.28571429,5.16294643 0,5.27142857 0,2.7 C8.02929152e-17,1.27992857 1.43922154,0 3.21428571,0 C4.989375,0 6.42857143,1.27994866 6.42857143,2.7 Z"/>
    </g>
  </g>
</svg>
