<svg xmlns="http://www.w3.org/2000/svg" width="16" height="16" viewBox="0 0 16 16">
  <g fill="none" fill-rule="evenodd">
    <g transform="translate(3 1)">
      <rect width="6" height="1" x="2" y="11" fill="#9AA7B0"/>
      <path fill="#9AA7B0" d="M2.5,13 L7.5,13 L7.5,13 C7.5,13.5522847 7.05228475,14 6.5,14 L3.5,14 C2.94771525,14 2.5,13.5522847 2.5,13 Z"/>
      <path fill="#F4AF3D" fill-opacity=".7" d="M10,4.2 C10,8.2 8,7.96875 8,10 L2,10 C2,8.03125 0,8.2 0,4.2 C1.2490009e-16,1.991 2.23878906,0 5,0 C7.76125,0 10,1.99103125 10,4.2 Z"/>
    </g>
    <path fill="#231F20" fill-opacity=".7" d="M3.15333333,6 C2.26166667,6 1.42,5.69166667 0.72,5.06666667 L1.33666667,4.33333333 C1.895,4.81666667 2.46166667,5.09166667 3.17833333,5.09166667 C3.81166667,5.09166667 4.21166667,4.79166667 4.21166667,4.35833333 L4.21166667,4.34166667 C4.21166667,3.925 3.97833333,3.7 2.895,3.45 C1.65333333,3.15 0.953333333,2.78333333 0.953333333,1.70833333 L0.953333333,1.69166667 C0.953333333,0.691666667 1.78666667,2.48689958e-14 2.945,2.48689958e-14 C3.795,2.48689958e-14 4.47,0.258333333 5.06166667,0.733333333 L4.51166667,1.50833333 C3.98666667,1.11666667 3.46166667,0.908333333 2.92833333,0.908333333 C2.32833333,0.908333333 1.97833333,1.21666667 1.97833333,1.6 L1.97833333,1.61666667 C1.97833333,2.06666667 2.245,2.26666667 3.37,2.53333333 C4.60333333,2.83333333 5.23666667,3.275 5.23666667,4.24166667 L5.23666667,4.25833333 C5.23666667,5.35 4.37833333,6 3.15333333,6 Z" transform="translate(5 3)"/>
  </g>
</svg>
