<svg width="16" height="16" viewBox="0 0 16 16" fill="none" xmlns="http://www.w3.org/2000/svg"><rect id="frame" width="16" height="16" fill="none"/><path fill-rule="evenodd" clip-rule="evenodd" d="M5 3.977c2.761 0 5-.666 5-1.488S7.761 1 5 1s-5 .667-5 1.489c0 .822 2.239 1.488 5 1.488zm5-.061C8.894 4.553 7.067 4.97 5 4.97s-3.894-.417-5-1.054v1.153c0 .822 2.239 1.489 5 1.489s5-.667 5-1.489V3.916zM6.321 7.492c-.425.038-.867.058-1.32.058-2.068 0-3.895-.416-5.001-1.054v1.226c0 .782 2.239 1.416 5 1.416.211 0 .419-.003.623-.01.113-.584.32-1.135.698-1.636zm-.811 2.63c-.022.433-.018.877-.013 1.326l.002.363c-.164.005-.33.007-.499.007-2.761 0-5-.666-5-1.489V9.077c1.106.637 2.933 1.054 5 1.054.172 0 .342-.003.51-.009z" fill="#6E6E6E"/><path fill-rule="evenodd" clip-rule="evenodd" d="M15.646 12.015v3.572l-1.259-1.26a4.047 4.047 0 0 1-6.908-2.34l1.362.12a2.734 2.734 0 0 0 4.616 1.291l-1.383-1.383h3.572zm-3.938-4.559a4.047 4.047 0 0 1 3.795 3.473l-1.353-.117a2.734 2.734 0 0 0-4.67-1.16l1.433 1.434H7.341V7.515L8.55 8.724a4.037 4.037 0 0 1 3.158-1.268z" fill="#389FD6"/></svg>