<svg width="24" height="24" viewBox="0 0 24 24" fill="none" xmlns="http://www.w3.org/2000/svg"><rect id="frame" width="24" height="24" fill="none"/><path d="M18.35 24L24 9.025l-4.5-1L18.35 24z" fill="#087CFA"/><path d="M24 20l-5.65 4-8-2.05L24 20z" fill="url(#paint0_linear)"/><path d="M3 11L.425 3.7 13.175 0 3 11z" fill="url(#paint1_linear)"/><path d="M17.5 8l-.125-.2.05-.05L13.175 0 0 14.225V24l24-4-6.5-12z" fill="url(#paint2_linear)"/><path d="M20 4H4v16h16V4z" fill="url(#paint3_linear)"/><path d="M12 17H6v1h6v-1z" fill="#fff"/><path d="M8.133 6h1.2l2.56 6h-1.36L10 10.667H7.467L6.933 12H5.6l2.533-6zm1.36 3.493l-.8-1.946-.8 1.946h1.6z" fill="#fff"/><path d="M11.7 8.978c0-1.69 1.244-3.111 3.111-3.111 1.156 0 1.778.355 2.4.888l-.8.978c-.444-.444-.889-.71-1.511-.71-.978 0-1.778.8-1.778 1.866s.711 1.867 1.778 1.867c.711 0 1.067-.267 1.6-.712l.8.89c-.711.71-1.422 1.066-2.578 1.066-1.778 0-3.022-1.333-3.022-3.022z" fill="#fff"/><defs><linearGradient id="paint0_linear" x1="10.361" y1="21.625" x2="23.93" y2="21.625" gradientUnits="userSpaceOnUse"><stop offset=".194" stop-color="#07C3F2"/><stop offset=".903" stop-color="#087CFA"/></linearGradient><linearGradient id="paint1_linear" x1=".437" y1="5.498" x2="13.169" y2="5.498" gradientUnits="userSpaceOnUse"><stop offset=".194" stop-color="#07C3F2"/><stop offset=".903" stop-color="#087CFA"/></linearGradient><linearGradient id="paint2_linear" x1="15.729" y1="24.762" x2="3.839" y2="8.168" gradientUnits="userSpaceOnUse"><stop offset=".091" stop-color="#21D789"/><stop offset=".484" stop-color="#07C3F2"/><stop offset=".903" stop-color="#087CFA"/></linearGradient><linearGradient id="paint3_linear" x1="12" y1=".129" x2="12" y2="14.478" gradientUnits="userSpaceOnUse"><stop offset=".084" stop-color="#878585"/><stop offset=".538"/></linearGradient></defs></svg>