<svg width="48" height="48" viewBox="0 0 48 48" fill="none" xmlns="http://www.w3.org/2000/svg"><rect id="frame" width="48" height="48" fill="none"/><path d="M36.7 48L48 18.05 28.5 13.5 36.7 48z" fill="#087CFA"/><path d="M47.85 38.5L36.7 48l-16-4.1 27.15-5.4z" fill="url(#paint0_linear)"/><path d="M6 22L.85 7.4 26.35 0 6 22z" fill="url(#paint1_linear)"/><path d="M41.9 27.8l-7.15-12.2.1-.1L26.35 0 0 28.45V48l47.85-9.5-5.95-10.7z" fill="url(#paint2_linear)"/><path d="M39 9H9v30h30V9z" fill="url(#paint3_linear)"/><path d="M23.25 34H12v1.929h11.25V34z" fill="#fff"/><path d="M16.75 12.75H19l4.8 11.14h-2.55l-1-2.476H15.5l-1 2.476H12l4.75-11.14zm2.55 6.486l-1.5-3.614-1.5 3.614h3z" fill="#fff"/><path d="M23.6 18.322c0-3.215 2.357-5.786 5.893-5.786 2.143 0 3.428.75 4.393 1.714l-1.608 1.822c-.857-.75-1.714-1.286-2.892-1.286-1.929 0-3.215 1.607-3.215 3.536 0 1.928 1.286 3.535 3.215 3.535 1.285 0 2.035-.535 2.893-1.285l1.607 1.607c-1.179 1.285-2.465 2.035-4.608 2.035-3.214-.107-5.678-2.678-5.678-5.892z" fill="#fff"/><defs><linearGradient id="paint0_linear" x1="20.723" y1="43.251" x2="47.86" y2="43.251" gradientUnits="userSpaceOnUse"><stop offset=".194" stop-color="#07C3F2"/><stop offset=".903" stop-color="#087CFA"/></linearGradient><linearGradient id="paint1_linear" x1=".874" y1="10.996" x2="26.338" y2="10.996" gradientUnits="userSpaceOnUse"><stop offset=".194" stop-color="#07C3F2"/><stop offset=".903" stop-color="#087CFA"/></linearGradient><linearGradient id="paint2_linear" x1="31.458" y1="49.523" x2="7.678" y2="16.336" gradientUnits="userSpaceOnUse"><stop offset=".091" stop-color="#21D789"/><stop offset=".484" stop-color="#07C3F2"/><stop offset=".903" stop-color="#087CFA"/></linearGradient><linearGradient id="paint3_linear" x1="23.999" y1="1.707" x2="23.999" y2="28.611" gradientUnits="userSpaceOnUse"><stop offset=".084" stop-color="#878585"/><stop offset=".538"/></linearGradient></defs></svg>