<svg width="128" height="128" viewBox="0 0 128 128" fill="none" xmlns="http://www.w3.org/2000/svg"><rect id="frame" width="128" height="128" fill="none"/><path d="M97.866 128L128 48.133 76 36l21.866 92z" fill="#087CFA"/><path d="M127.6 102.667L97.867 128 55.2 117.067l72.4-14.4z" fill="url(#paint0_linear)"/><path d="M16 58.667L2.267 19.733 70.267 0 16 58.667z" fill="url(#paint1_linear)"/><path d="M111.733 74.133L92.667 41.6l.266-.267L70.267 0 0 75.867V128l127.6-25.333-15.867-28.534z" fill="url(#paint2_linear)"/><path d="M103 25H25v78h78V25z" fill="url(#paint3_linear)"/><path d="M62.7 89.567H33.667v4.767H62.7v-4.767z" fill="#fff"/><path d="M63 49.267C63 41.032 69.067 34.1 78.167 34.1c5.633 0 8.666 1.733 11.7 4.333l-3.9 4.767c-2.167-2.167-4.334-3.467-7.367-3.467-4.767 0-8.667 3.9-8.667 9.1 0 5.2 3.467 9.1 8.667 9.1 3.467 0 5.2-1.3 7.8-3.466l3.9 4.333c-3.467 3.467-6.933 5.2-12.567 5.2C69.067 64 63 57.5 63 49.267z" fill="#fff"/><path d="M45.15 34.53H51l12.48 29.25h-6.63l-2.6-6.5H41.9l-2.6 6.5h-6.5l12.35-29.25zm6.63 17.03l-3.9-9.49-3.9 9.49h7.8z" fill="#fff"/><defs><linearGradient id="paint0_linear" x1="55.261" y1="115.336" x2="127.628" y2="115.336" gradientUnits="userSpaceOnUse"><stop offset=".194" stop-color="#07C3F2"/><stop offset=".903" stop-color="#087CFA"/></linearGradient><linearGradient id="paint1_linear" x1="2.33" y1="29.322" x2="70.235" y2="29.322" gradientUnits="userSpaceOnUse"><stop offset=".194" stop-color="#07C3F2"/><stop offset=".903" stop-color="#087CFA"/></linearGradient><linearGradient id="paint2_linear" x1="83.887" y1="132.063" x2="20.474" y2="43.563" gradientUnits="userSpaceOnUse"><stop offset=".091" stop-color="#21D789"/><stop offset=".484" stop-color="#07C3F2"/><stop offset=".903" stop-color="#087CFA"/></linearGradient><linearGradient id="paint3_linear" x1="63.896" y1="6.042" x2="63.896" y2="75.993" gradientUnits="userSpaceOnUse"><stop offset=".084" stop-color="#878585"/><stop offset=".538"/></linearGradient></defs></svg>