<svg width="64" height="64" viewBox="0 0 64 64" fill="none" xmlns="http://www.w3.org/2000/svg"><rect id="frame" width="64" height="64" fill="none"/><path d="M48.933 64L64 24.067 38 18l10.933 46z" fill="#087CFA"/><path d="M63.8 51.333L48.933 64 27.6 58.533l36.2-7.2z" fill="url(#paint0_linear)"/><path d="M8 29.333L1.133 9.867l34-9.867L8 29.333z" fill="url(#paint1_linear)"/><path d="M55.867 37.067L46.333 20.8l.134-.133L35.133 0 0 37.933V64l63.8-12.667-7.933-14.266z" fill="url(#paint2_linear)"/><path d="M51 13H13v38h38V13z" fill="url(#paint3_linear)"/><path d="M32.144 44H18v2.322h14.144V44z" fill="#fff"/><path d="M22.77 17.64h2.828l6.033 14.14h-3.205l-1.257-3.142H21.2l-1.257 3.142H16.8l5.97-14.14zm3.205 8.233l-1.885-4.588-1.885 4.588h3.77z" fill="#fff"/><path d="M31.4 24.822c0-4.011 2.956-7.389 7.389-7.389 2.744 0 4.222.845 5.7 2.111l-1.9 2.323c-1.056-1.056-2.111-1.69-3.589-1.69-2.322 0-4.222 1.9-4.222 4.434 0 2.533 1.689 4.433 4.222 4.433 1.689 0 2.533-.633 3.8-1.689l1.9 2.112C43.011 31.156 41.322 32 38.578 32c-4.222 0-7.178-3.167-7.178-7.178z" fill="#fff"/><defs><linearGradient id="paint0_linear" x1="27.631" y1="57.668" x2="63.814" y2="57.668" gradientUnits="userSpaceOnUse"><stop offset=".194" stop-color="#07C3F2"/><stop offset=".903" stop-color="#087CFA"/></linearGradient><linearGradient id="paint1_linear" x1="1.165" y1="14.661" x2="35.118" y2="14.661" gradientUnits="userSpaceOnUse"><stop offset=".194" stop-color="#07C3F2"/><stop offset=".903" stop-color="#087CFA"/></linearGradient><linearGradient id="paint2_linear" x1="41.944" y1="66.031" x2="10.237" y2="21.782" gradientUnits="userSpaceOnUse"><stop offset=".091" stop-color="#21D789"/><stop offset=".484" stop-color="#07C3F2"/><stop offset=".903" stop-color="#087CFA"/></linearGradient><linearGradient id="paint3_linear" x1="31.949" y1="3.764" x2="31.949" y2="37.843" gradientUnits="userSpaceOnUse"><stop offset=".084" stop-color="#878585"/><stop offset=".538"/></linearGradient></defs></svg>