<svg width="80" height="80" viewBox="0 0 80 80" fill="none" xmlns="http://www.w3.org/2000/svg"><rect id="frame" width="80" height="80" fill="none"/><g clip-path="url(#clip0)"><path d="M61.166 80L80 30.083 47.5 22.5 61.166 80z" fill="#087CFA"/><path d="M79.75 64.167L61.167 80 34.5 73.167l45.25-9z" fill="url(#paint0_linear)"/><path d="M10 36.667L1.417 12.333 43.917 0 10 36.667z" fill="url(#paint1_linear)"/><path d="M69.833 46.333L57.917 26l.166-.167L43.917 0 0 47.417V80l79.75-15.833-9.917-17.834z" fill="url(#paint2_linear)"/><path d="M65 15H15v50h50V15z" fill="url(#paint3_linear)"/><path d="M39.9 55.5H21.2v3.1h18.7v-3.1z" fill="#fff"/><path d="M39.6 30.536c0-5.357 3.928-9.643 9.821-9.643 3.572 0 5.715 1.25 7.322 2.857l-2.679 3.036c-1.428-1.25-2.857-2.143-4.821-2.143-3.215 0-5.357 2.678-5.357 5.893 0 3.214 2.142 5.893 5.357 5.893 2.143 0 3.393-.893 4.821-2.143l2.679 2.678c-1.965 2.143-4.107 3.393-7.679 3.393-5.357-.178-9.464-4.464-9.464-9.821z" fill="#fff"/><path d="M27.917 21.25h3.75l8 18.57h-4.25l-1.667-4.127h-7.917l-1.666 4.127H20l7.917-18.57zm4.25 10.812l-2.5-6.025-2.5 6.025h5z" fill="#fff"/></g><defs><linearGradient id="paint0_linear" x1="34.538" y1="72.085" x2="79.767" y2="72.085" gradientUnits="userSpaceOnUse"><stop offset=".194" stop-color="#07C3F2"/><stop offset=".903" stop-color="#087CFA"/></linearGradient><linearGradient id="paint1_linear" x1="1.456" y1="18.326" x2="43.897" y2="18.326" gradientUnits="userSpaceOnUse"><stop offset=".194" stop-color="#07C3F2"/><stop offset=".903" stop-color="#087CFA"/></linearGradient><linearGradient id="paint2_linear" x1="52.429" y1="82.539" x2="12.796" y2="27.227" gradientUnits="userSpaceOnUse"><stop offset=".091" stop-color="#21D789"/><stop offset=".484" stop-color="#07C3F2"/><stop offset=".903" stop-color="#087CFA"/></linearGradient><linearGradient id="paint3_linear" x1="39.999" y1="2.846" x2="39.999" y2="47.685" gradientUnits="userSpaceOnUse"><stop offset=".084" stop-color="#878585"/><stop offset=".538"/></linearGradient><clipPath id="clip0"><path d="M0 0h80v80H0V0z" fill="#fff"/></clipPath></defs></svg>