<svg xmlns="http://www.w3.org/2000/svg" width="16" height="16" viewBox="0 0 16 16">
  <g fill="none" fill-rule="evenodd">
    <g transform="translate(0 2)">
      <path fill="#4A0000" d="M15.4554281,7.98376377 C15.0208573,7.24060129 14.3533974,6.65021654 13.5531687,6.3127299 L13.9960156,5.90368872 C14.073463,5.8326537 14.1829105,5.81011673 14.2818988,5.84342412 C14.3808872,5.8774786 14.4537276,5.9629572 14.4708482,6.06680156 L14.6093074,6.90291051 L15.7516576,7.30633463 C15.8606693,7.34462257 15.9358132,7.4454786 15.9411051,7.56096498 C15.9469572,7.67663813 15.8822101,7.78403113 15.7778677,7.83315175 L15.4554281,7.98376377 Z M8.23572741,11.3560858 C8.19795817,11.3732292 8.15703778,11.3822257 8.116607,11.3822257 C8.08342412,11.3822257 8.05024125,11.3763113 8.0187393,11.3647315 L3.69487938,9.78689494 C3.62415564,9.76099611 3.56669261,9.70789105 3.53444358,9.63996887 L2.06026459,6.47825681 L0.153587549,5.44877821 C0.0583346304,5.39766537 0.001307393,5.29674708 0.00385992218,5.18954086 C0.00709727626,5.08171206 0.0710972763,4.98484047 0.169151751,4.93945525 L10.6455409,0.0536031128 C10.7528716,0.00373540856 10.8795019,0.0249649805 10.9647938,0.108202335 C11.0498988,0.190381323 11.0749883,0.317011673 11.0276732,0.425151751 L10.2518288,2.21354086 L10.6553152,3.07922179 L12.8867237,2.03835019 C12.9887626,1.99140856 13.1089183,2.00753307 13.1937743,2.08118288 C13.2786304,2.15489494 13.312,2.27119066 13.28,2.37933074 C13.2454475,2.49338521 12.7740389,4.01270039 11.8020856,5.53886381 L12.0172858,6.00003656 C12.0115267,6.0000122 12.0057648,6 12,6 C9.790861,6 8,7.790861 8,10 C8,10.4760278 8.08315348,10.9326341 8.23572741,11.3560858 Z"/>
      <polyline fill="#FFD440" points="2.497 6.066 .917 5.213 1.89 4.763 2.497 6.066"/>
      <path fill="#CA1F27" d="M10.5731891,6.26197217 C9.78299365,6.56376907 9.11304619,7.10892412 8.65500055,7.80578344 C8.34740814,7.95444721 8.15414786,8.00367315 8.15414786,8.00367315 C8.00392218,8.05005447 7.9204358,8.2103035 7.96768872,8.3602179 C8.00572763,8.48205447 8.11822568,8.56031128 8.23925292,8.56031128 C8.24863157,8.56031128 8.25803765,8.55985203 8.26745522,8.55891531 C8.09471673,9.00602461 8,9.49195117 8,10 C8,10.2667703 8.02611505,10.5274412 8.07592812,10.7795955 L4.00143191,9.29226459 L1.88912062,4.76382879 L4.43965759,3.57509728 C4.95670039,3.36535409 5.38291051,3.36037354 5.70353307,3.56140078 C6.38966537,3.99103502 6.47819455,5.21388327 6.47869261,5.2265214 C6.48516732,5.32009339 6.53708949,5.40550973 6.61802335,5.45332296 C6.69920623,5.50094942 6.79819455,5.50617899 6.88398444,5.46664591 L12.5095097,2.843393 C12.2461012,3.52093385 11.7485447,4.64280156 11.0100545,5.68236576 C11.0056342,5.68828016 11.001463,5.69350973 10.9972918,5.69954864 C10.8578824,5.9039315 10.715793,6.09094678 10.5731891,6.26197217 Z"/>
      <path fill="#4A0000" d="M3.97590661,4.66496498 C3.62166537,4.53603113 3.22907393,4.71863035 3.10063813,5.07299611 C2.97151751,5.42742412 3.15442802,5.81926848 3.50848249,5.94776654 C3.86303502,6.0772607 4.25506615,5.89466148 4.384,5.53967315 C4.5124358,5.18568093 4.33021012,4.79389883 3.97590661,4.66496498"/>
    </g>
    <path fill="#00A817" d="M13.429017,13.016019 C13.1503609,12.8925388 12.9475795,12.6465886 12.8879811,12.378922 C13.0371606,12.2760219 13.22183,12.2208473 13.4041742,12.224635 C13.5134583,12.2266551 13.6231095,12.2490028 13.7274985,12.2953394 C13.807167,12.3364994 13.8842655,12.3751343 13.963934,12.4368744 C14.2425902,12.6428009 14.0672216,13.1009905 13.708897,13.0804104 C13.6094031,13.0804104 13.5285108,13.057179 13.429017,13.016019 Z M12.3529417,13.7173811 C12.2335001,13.4291345 12.2746193,13.1201817 12.433834,12.8936751 C12.7124901,12.9555415 12.9674048,13.1396254 13.0868464,13.4278719 C13.1267418,13.510192 13.1491371,13.6157436 13.1491371,13.6981899 C13.1689624,14.0068903 12.7088187,14.1897116 12.4898834,13.942625 C12.4300402,13.880885 12.3928371,13.7997012 12.3529417,13.7173811 Z M12.4524355,10.0946657 C12.5345516,9.99429074 12.6520351,9.95414076 12.7633996,9.96600899 C12.9492928,9.98557895 13.1241718,10.1397397 13.1118116,10.3584183 C13.1118116,10.4408646 13.0894163,10.5464162 13.0495209,10.6287362 C12.9302017,10.9169828 12.6937662,11.1009405 12.4152324,11.1628068 C12.2360701,10.9363003 12.1961746,10.6273474 12.3156162,10.3391008 C12.3553892,10.2567807 12.3928371,10.1769858 12.4524355,10.0946657 Z M11.6377609,13.942625 C11.4386509,14.2102916 10.9771611,14.02242 10.9971088,13.6723071 C10.9971088,13.589987 11.0195041,13.4908746 11.0592771,13.4085545 C11.1787187,13.1201817 11.4150318,12.936224 11.693688,12.874484 C11.8529026,13.1215705 11.8940218,13.4303971 11.7745802,13.6981899 C11.7348072,13.78051 11.6973593,13.860305 11.6377609,13.942625 Z M10.399901,13.0996016 C10.0416988,13.1201817 9.86755396,12.6890112 10.1262624,12.462631 C10.1859832,12.4008909 10.2630817,12.3558169 10.3626979,12.3146568 C10.4672093,12.2683202 10.5767382,12.2460988 10.6860223,12.2438262 C10.8673874,12.2405435 11.045326,12.2943293 11.1960964,12.3983657 C11.1563234,12.6660323 10.9585595,12.91173 10.6799033,13.0353364 C10.6002349,13.0764965 10.4995172,13.0996016 10.399901,13.0996016 Z M10.4000234,10.9761977 C10.4995172,10.9761977 10.5804095,10.9994292 10.6799033,11.0405892 C10.9585595,11.1640694 11.1613409,11.4100196 11.2209393,11.6776862 C10.9821786,11.8423263 10.6599556,11.884749 10.3814219,11.7612688 C10.3017534,11.7201088 10.2245324,11.6750347 10.1449863,11.6132947 C9.88370794,11.400929 10.0239539,10.9928638 10.3378551,10.9761977 C10.3587818,10.9750614 10.3776281,10.9735463 10.4000234,10.9761977 Z M11.619037,10.1139831 C11.6787578,10.1757232 11.7160833,10.2567807 11.7558563,10.3391008 C11.8752979,10.6273474 11.834301,10.9364265 11.674964,11.1628068 C11.3964303,11.1009405 11.1413932,10.9169828 11.0219516,10.6287362 C10.9820562,10.5464162 10.9597833,10.4408646 10.9597833,10.3584183 C10.9597833,10.152618 11.1325819,10.0031288 11.3143142,9.98520018 C11.4233536,9.97446826 11.5369209,10.0136082 11.619037,10.1139831 Z M12.0316628,9 C10.3560241,9 9,10.381047 9,12.0875163 C9,13.589974 10.0575117,14.8383728 11.4531169,15.1160651 L11.4531169,16 C13.2674607,15.7213809 14.8739751,14.254605 14.9938591,12.3291793 C15.1137431,10.4037535 13.7073016,9 12.0316628,9 Z"/>
  </g>
</svg>
