<svg ti:v="1" width="16" height="16" viewBox="0 0 16 16" xmlns="http://www.w3.org/2000/svg" xmlns:ti="urn:schemas-jetbrains-com:tisvg"><rect id="frame" width="16" height="16" fill="none"/><linearGradient id="a" x1=".5" y1="0" x2=".5" y2="1"><stop offset="0" stop-color="#523A00"/><stop offset="1" stop-color="#7C5F00"/></linearGradient><path fill-rule="evenodd" d="M8.535 1h-1.07L3 7.697V9h10V7.697L8.535 1z" fill="url(#a)"/><linearGradient id="b" x1=".5" y1="0" x2=".5" y2="1"><stop offset="0" stop-color="#FFAF00"/><stop offset="1" stop-color="#FFF"/></linearGradient><path fill-rule="evenodd" d="M12 8H4l4-6 4 6z" fill="url(#b)"/><linearGradient id="c" x1=".5" y1="0" x2=".5" y2="1"><stop offset="0" stop-color="#F5AF00"/><stop offset="1" stop-color="#FFDB82"/></linearGradient><path fill-rule="evenodd" d="M5.868 7L8 3.803 10.132 7H5.868z" fill="url(#c)"/><linearGradient id="d" x1=".5" y1="0" x2=".5" y2="1"><stop offset="0" stop-color="#0043C8"/><stop offset="1" stop-color="#00297C"/></linearGradient><path fill-rule="evenodd" d="M1 7h8v8H1V7z" fill="url(#d)"/><linearGradient id="e" x1=".5" y1="0" x2=".5" y2="1"><stop offset="0" stop-color="#FFF"/><stop offset="1" stop-color="#80B1FF"/></linearGradient><path fill-rule="evenodd" d="M8 14H2V8h6v6z" fill="url(#e)"/><linearGradient id="f" x1=".5" y1="0" x2=".5" y2="1"><stop offset="0" stop-color="#D0DFFF"/><stop offset="1" stop-color="#8EB5FF"/></linearGradient><path fill-rule="evenodd" d="M7 13H3V9h4v4z" fill="url(#f)"/><linearGradient id="g" x1=".5" y1="0" x2=".5" y2="1"><stop offset="0" stop-color="#8200C3"/><stop offset="1" stop-color="#52007C"/></linearGradient><path fill-rule="evenodd" d="M7 11c0 2.205 1.795 4 4 4s4-1.795 4-4-1.795-4-4-4-4 1.795-4 4z" fill="url(#g)"/><linearGradient id="h" x1=".5" y1="0" x2=".5" y2="1"><stop offset="0" stop-color="#FFF"/><stop offset="1" stop-color="#C154FF"/></linearGradient><path fill-rule="evenodd" d="M8 11c0 1.656 1.344 3 3 3 1.655 0 3-1.344 3-3s-1.345-3-3-3c-1.656 0-3 1.344-3 3z" fill="url(#h)"/><linearGradient id="i" x1=".5" y1="0" x2=".5" y2="1"><stop offset="0" stop-color="#EAC1FF"/><stop offset="1" stop-color="#C154FF"/></linearGradient><path fill-rule="evenodd" d="M9 11a2 2 0 0 0 4 0 2 2 0 0 0-4 0z" fill="url(#i)"/></svg>