<svg ti:v="1" width="16" height="16" viewBox="0 0 16 16" xmlns="http://www.w3.org/2000/svg" xmlns:ti="urn:schemas-jetbrains-com:tisvg"><rect id="frame" width="16" height="16" fill="none"/><g fill-rule="evenodd"><path d="M8.535 1h-1.07L3 7.697V9h10V7.697L8.535 1z" fill="#242424"/><path d="M12 8H4l4-6 4 6z" fill="#C3C3C3"/><path d="M5.868 7L8 3.803 10.132 7H5.868z" fill="#C3C3C3"/><path d="M1 7h8v8H1V7z" fill="#242424"/><path d="M8 14H2V8h6v6z" fill="#C3C3C3"/><path d="M7 13H3V9h4v4z" fill="#C3C3C3"/><path d="M11 15c-2.205 0-4-1.795-4-4s1.795-4 4-4 4 1.795 4 4-1.795 4-4 4z" fill="#242424"/><path d="M14 11a3.001 3.001 0 1 1-3-3c1.655 0 3 1.344 3 3z" fill="#C3C3C3"/><path d="M13 11a2 2 0 1 1-4.001-.001A2 2 0 0 1 13 11z" fill="#C3C3C3"/></g></svg>