<svg ti:v="1" width="16" height="16" viewBox="0 0 16 16" xmlns="http://www.w3.org/2000/svg" xmlns:ti="urn:schemas-jetbrains-com:tisvg"><rect id="frame" width="16" height="16" fill="none"/><g fill-rule="evenodd"><path d="M1 16V5c0-2.757 2.243-5 5-5h9v16H1z" fill="#242424"/><path d="M6 1a4 4 0 0 0-4 4v10h12V1H6z" fill="#C3C3C3"/><path d="M3 14V5c0-1.654 1.346-3 3-3h7v12H3z" fill="#292929"/><path d="M11.586 7L10 8.586V6.493A2.5 2.5 0 0 0 11 4.5C11 3.121 9.878 2 8.5 2A2.503 2.503 0 0 0 6 4.5a2.5 2.5 0 0 0 1 1.993v2.093L5.414 7H4v4c0 1.654 1.346 3 3 3 .53 0 1.047-.144 1.5-.408.453.264.969.408 1.5.408 1.654 0 3-1.346 3-3V7h-1.414z" fill="#242424"/><path d="M7.65 4.5a.85.85 0 1 1 1.7 0 .85.85 0 0 1-1.7 0zM10 10h1v1a1 1 0 1 1-2 0V5.908A1.496 1.496 0 0 0 8.5 3 1.496 1.496 0 1 0 8 5.908V11a1 1 0 1 1-2 0v-1h1L5 8v3a2 2 0 0 0 2 2c.6 0 1.133-.271 1.5-.689.367.418.9.689 1.5.689a2 2 0 0 0 2-2V8l-2 2z" fill="#C3C3C3"/></g></svg>