<svg ti:v="1" width="16" height="16" viewBox="0 0 16 16" xmlns="http://www.w3.org/2000/svg" xmlns:ti="urn:schemas-jetbrains-com:tisvg"><rect id="frame" width="16" height="16" fill="none"/><linearGradient id="a" x1=".5" y1=".005" x2=".5" y2="1.01"><stop offset="0" stop-color="#566980"/><stop offset="1" stop-color="#2D3641"/></linearGradient><path fill-rule="evenodd" d="M6 0C3.243 0 1 2.243 1 5v11h14V0H6z" fill="url(#a)"/><linearGradient id="b" x1=".5" y1="0" x2=".5" y2="1"><stop offset="0" stop-color="#FFF"/><stop offset="1" stop-color="#DFEFFF"/></linearGradient><path fill-rule="evenodd" d="M6 1a4 4 0 0 0-4 4v10h12V1H6z" fill="url(#b)"/><linearGradient id="c" x1=".5" y1=".021" x2=".5" y2="1.014"><stop offset="0" stop-color="#C1D8F2"/><stop offset="1" stop-color="#DFEFFF"/></linearGradient><path fill-rule="evenodd" d="M6 2C4.346 2 3 3.345 3 5v9h10V2H6z" fill="url(#c)"/><linearGradient id="d" x1=".5" y1="0" x2=".5" y2="1"><stop offset="0" stop-color="#BA6008"/><stop offset="1" stop-color="#702F00"/></linearGradient><path fill-rule="evenodd" d="M4 7c0 .737.2 1.422.534 1.998L7.422 14h1.156l2.888-5.002A4.004 4.004 0 0 0 8 3C5.794 3 4 4.794 4 7z" fill="url(#d)"/><linearGradient id="e" x1=".5" y1="0" x2=".5" y2="1"><stop offset="0" stop-color="#FFF6E6"/><stop offset="1" stop-color="#F2B324"/></linearGradient><path fill-rule="evenodd" d="M5 7c0 .546.157 1.051.411 1.492l-.01.006L8 13l2.6-4.502-.012-.006C10.843 8.051 11 7.546 11 7a3 3 0 1 0-6 0z" fill="url(#e)"/><linearGradient id="f" x1=".5" y1="0" x2=".5" y2="1"><stop offset="0" stop-color="#702F00"/><stop offset="1" stop-color="#BA6008"/></linearGradient><path fill-rule="evenodd" d="M6.5 7a1.5 1.5 0 1 0 3 0 1.5 1.5 0 1 0-3 0z" fill="url(#f)"/></svg>