<svg ti:v="1" width="16" height="16" viewBox="0 0 16 16" xmlns="http://www.w3.org/2000/svg" xmlns:ti="urn:schemas-jetbrains-com:tisvg"><rect id="frame" width="16" height="16" fill="none"/><g fill-rule="evenodd"><path d="M1 16V5c0-2.757 2.243-5 5-5h9v16H1z" fill="#F4F4F4"/><path d="M6 1a4 4 0 0 0-4 4v10h12V1H6z" fill="#313131"/><path d="M3 14V5c0-1.654 1.346-3 3-3h7v12H3z" fill="#EBEBEB"/><path d="M4 3h8v10H4V3z" fill="#F4F4F4"/><path d="M5 12h6V4H5v8z" fill="#313131"/><path d="M6 5.5V11h4.5L6 5.5z" fill="#EBEBEB"/><path d="M3.235 3.923L11.633 14H13v-1.641L4.658 2.349a2.968 2.968 0 0 0-1.423 1.574z" fill="#F4F4F4"/><path d="M4.381 3.111c-.18.154-.342.328-.473.527l8.219 9.862h.373v-.646L4.381 3.111z" fill="#313131"/></g></svg>