<svg ti:v="1" width="16" height="16" viewBox="0 0 16 16" xmlns="http://www.w3.org/2000/svg" xmlns:ti="urn:schemas-jetbrains-com:tisvg"><rect id="frame" width="16" height="16" fill="none"/><g fill-rule="evenodd"><path d="M1 16V5c0-2.757 2.243-5 5-5h9v16H1z" fill="#242424"/><path d="M6 1a4 4 0 0 0-4 4v10h12V1H6z" fill="#C3C3C3"/><path d="M3 14V5c0-1.654 1.346-3 3-3h7v12H3z" fill="#292929"/><path d="M4.586 10L1 13.586v.828L2.586 16h.828L7 12.414v-.828L5.414 10h-.828z" fill="#242424"/><path d="M2 14l1 1 3-3-1-1-3 3z" fill="#7CBDFF"/><path d="M12 9c0 2.21-1.79 4-4 4s-4-1.79-4-4 1.79-4 4-4 4 1.79 4 4z" fill="#242424"/><path d="M11 9a3 3 0 1 1-6 0 3 3 0 0 1 6 0z" fill="#7CBDFF"/><path d="M10 9a2 2 0 1 1-4.001-.001A2 2 0 0 1 10 9z" fill="#292929"/></g></svg>