<svg ti:v="1" width="16" height="16" viewBox="0 0 16 16" xmlns="http://www.w3.org/2000/svg" xmlns:ti="urn:schemas-jetbrains-com:tisvg"><rect id="frame" width="16" height="16" fill="none"/><g fill-rule="evenodd"><path d="M1 16V5c0-2.757 2.243-5 5-5h9v16H1z" fill="#F4F4F4"/><path d="M6 1a4 4 0 0 0-4 4v10h12V1H6z" fill="#313131"/><path d="M3 14V5c0-1.654 1.346-3 3-3h7v12H3z" fill="#EBEBEB"/><path d="M9 3C6.794 3 5 4.794 5 7v.586L4.414 7H3v2.914L6.086 13h.828L10 9.914V10h3V7c0-2.206-1.794-4-4-4z" fill="#F4F4F4"/><path d="M9 4C7.35 4 6 5.35 6 7v3L4 8v1.5L6.5 12 9 9.5V8l-2 2V7c0-1.103.897-2 2-2s2 .897 2 2v2h1V7c0-1.65-1.35-3-3-3z" fill="#00529C"/></g></svg>