<svg ti:v="1" width="16" height="16" viewBox="0 0 16 16" xmlns="http://www.w3.org/2000/svg" xmlns:ti="urn:schemas-jetbrains-com:tisvg"><rect id="frame" width="16" height="16" fill="none"/><linearGradient id="a" x1=".5" y1=".005" x2=".5" y2="1.01"><stop offset="0" stop-color="#566980"/><stop offset="1" stop-color="#2D3641"/></linearGradient><path fill-rule="evenodd" d="M6 0C3.243 0 1 2.243 1 5v11h14V0H6z" fill="url(#a)"/><linearGradient id="b" x1=".5" y1="0" x2=".5" y2="1"><stop offset="0" stop-color="#FFF"/><stop offset="1" stop-color="#DFEFFF"/></linearGradient><path fill-rule="evenodd" d="M6 1a4 4 0 0 0-4 4v10h12V1H6z" fill="url(#b)"/><linearGradient id="c" x1=".5" y1=".021" x2=".5" y2="1.014"><stop offset="0" stop-color="#C1D8F2"/><stop offset="1" stop-color="#DFEFFF"/></linearGradient><path fill-rule="evenodd" d="M6 2C4.346 2 3 3.346 3 5v9h10V2H6z" fill="url(#c)"/><linearGradient id="d" x1=".5" y1="0" x2=".5" y2="1"><stop offset="0" stop-color="#FFF2DF"/><stop offset="1" stop-color="#FFF"/></linearGradient><path fill-rule="evenodd" d="M8 13A5 5 0 1 0 8 3v10z" fill="url(#d)"/><linearGradient id="e" x1=".5" y1="0" x2=".5" y2="1"><stop offset="0" stop-color="#DFFFED"/><stop offset="1" stop-color="#FFF"/></linearGradient><path fill-rule="evenodd" d="M3 8a5 5 0 0 0 5 5V3a5 5 0 0 0-5 5z" fill="url(#e)"/><linearGradient id="f" x1=".5" y1="0" x2=".5" y2="1.021"><stop offset="0" stop-color="#624700"/><stop offset="1" stop-color="#9C6400"/></linearGradient><path fill-rule="evenodd" d="M8 12a4 4 0 1 0 0-8v8z" fill="url(#f)"/><linearGradient id="g" x1=".5" y1="-.022" x2=".5" y2="1.011"><stop offset="0" stop-color="#FFB600"/><stop offset="1" stop-color="#A86400"/></linearGradient><path fill-rule="evenodd" d="M8 11a3 3 0 0 0 0-6v6z" fill="url(#g)"/><linearGradient id="h" x1=".5" y1=".014" x2=".5" y2="1"><stop offset="0" stop-color="#096600"/><stop offset="1" stop-color="#2FA322"/></linearGradient><path fill-rule="evenodd" d="M4 8a4 4 0 0 0 4 4V4a4 4 0 0 0-4 4z" fill="url(#h)"/><linearGradient id="i" x1=".5" y1=".022" x2=".5" y2="1.045"><stop offset="0" stop-color="#49FF35"/><stop offset="1" stop-color="#35BA26"/></linearGradient><path fill-rule="evenodd" d="M5 8a3 3 0 0 0 3 3V5a3 3 0 0 0-3 3z" fill="url(#i)"/></svg>