<svg ti:v="1" width="16" height="16" viewBox="0 0 16 16" xmlns="http://www.w3.org/2000/svg" xmlns:ti="urn:schemas-jetbrains-com:tisvg"><rect id="frame" width="16" height="16" fill="none"/><g fill-rule="evenodd"><path d="M1 16V5c0-2.757 2.243-5 5-5h9v16H1z" fill="#F4F4F4"/><path d="M6 1a4 4 0 0 0-4 4v10h12V1H6z" fill="#313131"/><path d="M3 14V5c0-1.654 1.346-3 3-3h7v12H3z" fill="#EBEBEB"/><path d="M4 7h2V5H4m0 6h2V9H4m4-2h2V5H8m2 0h2V3h-2M6 5h2V3H6m4 6h2V7h-2m0 6h2v-2h-2M6 9h2V7H6m2 4h2V9H8m0 4H6v-2h2v2z" fill="#313131"/></g></svg>