<svg ti:v="1" width="16" height="16" viewBox="0 0 16 16" xmlns="http://www.w3.org/2000/svg" xmlns:ti="urn:schemas-jetbrains-com:tisvg"><rect id="frame" width="16" height="16" fill="none"/><g fill-rule="evenodd"><path d="M1 16V5c0-2.757 2.243-5 5-5h9v16H1z" fill="#242424"/><path d="M6 1a4 4 0 0 0-4 4v10h12V1H6z" fill="#C3C3C3"/><path d="M3 14V5c0-1.654 1.346-3 3-3h7v12H3z" fill="#292929"/><path d="M8 3a4.004 4.004 0 0 0-3.466 5.998L7.422 14h1.156l2.888-5.002A4.004 4.004 0 0 0 8 3z" fill="#242424"/><path d="M11 7a3 3 0 1 0-6 0c0 .546.157 1.051.412 1.492l-.012.006L8 13l2.6-4.502-.012-.006C10.843 8.051 11 7.546 11 7z" fill="#C3C3C3"/><path d="M9.5 7a1.5 1.5 0 1 1-2.999.001A1.5 1.5 0 0 1 9.5 7z" fill="#282828"/></g></svg>