<svg ti:v="1" width="16" height="16" viewBox="0 0 16 16" xmlns="http://www.w3.org/2000/svg" xmlns:ti="urn:schemas-jetbrains-com:tisvg"><rect id="frame" width="16" height="16" fill="none"/><linearGradient id="a" x1=".5" y1=".005" x2=".5" y2="1.01"><stop offset="0" stop-color="#566980"/><stop offset="1" stop-color="#2D3641"/></linearGradient><path fill-rule="evenodd" d="M6 0C3.243 0 1 2.244 1 5v11h14V0H6z" fill="url(#a)"/><linearGradient id="b" x1=".5" y1="0" x2=".5" y2="1"><stop offset="0" stop-color="#FFF"/><stop offset="1" stop-color="#DFEFFF"/></linearGradient><path fill-rule="evenodd" d="M6 1a4 4 0 0 0-4 4v10h12V1H6z" fill="url(#b)"/><linearGradient id="c" x1=".5" y1=".021" x2=".5" y2="1.014"><stop offset="0" stop-color="#C1D8F2"/><stop offset="1" stop-color="#DFEFFF"/></linearGradient><path fill-rule="evenodd" d="M6 2C4.346 2 3 3.346 3 5v9h10V2H6z" fill="url(#c)"/><path fill-rule="evenodd" d="M13 6.736v-.473L12.868 6H13V3h-1.961l.041-.328L9.736 2h-.478l-1.337.688L7.96 3H6v3h.132L6 6.263v.473L6.132 7H6v3h1.961l-.041.328L9.264 11h.478l1.337-.688L11.04 10H13V7h-.132L13 6.736z" fill="#8F7E00"/><path fill-rule="evenodd" d="M9.5 7.5l-1-1 1-1 1 1m1.5 0l-.25-.5-1 .25L11 5l-1.25.25.25-2L9.5 3l-.5.257.25 1.993L8 5l.25 1.25-1-.25-.25.5.25.5 1-.25L8 8l1.25-.25-.25 2 .5.25.5-.257-.25-1.993L11 8l-.25-1.25 1 .25M7 9h1v-.75L7.75 8H7m0-4v1h.75L8 4.75V4m4 5V8h-.75l-.25.25V9m1-5h-1v.75l.25.25H12V4z" fill="#FDFF7F"/><path fill-rule="evenodd" d="M9.5 7.5l-1-1 1-1 1 1-1 1z" fill="#FFF"/></svg>