<svg xmlns="http://www.w3.org/2000/svg" width="16" height="16" viewBox="0 0 16 16"><rect id="frame" width="16" height="16" fill="none"/><path d="M1 16V5a5.006 5.006 0 0 1 5-5h9v16z" fill="#252525"/><path d="M6 1a4 4 0 0 0-4 4v10h12V1z" fill="#c4c4c4"/><path d="M3 14V5a3 3 0 0 1 3-3h7v12z" fill="#292929"/><g><path fill="#252525" d="M6.697 6L3 8.465v4.07L6.697 15h.606L11 12.535v-4.07L7.303 6h-.606z"/><path fill="#c4c4c4" d="M4 9l3 2 3-2-3-2-3 2z"/><path fill="#c4c4c4" d="M4 9v3l3 2v-3L4 9z"/><path fill="#c4c4c4" d="M10 9l-3 2v3l3-2V9z"/><path fill="#292929" d="M7 11.421l3-2V9l-.315-.21L7 10.579 4.315 8.79 4 9v.421l3 2z"/></g><g><path fill="#252525" d="M13.758 3L13 3.758V0H9v3.758L8.242 3H7v4.414L10.586 11h.828L15 7.414V3h-1.242z"/><path d="M10 2V1h2v1zm2 1h-2v3.172l-2-2V7l3 3 3-3V4.172l-2 2z" fill="#7cbeff"/></g></svg>