<svg ti:v="1" width="16" height="16" viewBox="0 0 16 16" xmlns="http://www.w3.org/2000/svg" xmlns:ti="urn:schemas-jetbrains-com:tisvg"><rect id="frame" width="16" height="16" fill="none"/><g fill-rule="evenodd"><path d="M1 16V5c0-2.757 2.243-5 5-5h9v16H1z" fill="#242424"/><path d="M6 1a4 4 0 0 0-4 4v10h12V1H6z" fill="#C3C3C3"/><path d="M3 14V5c0-1.654 1.346-3 3-3h7v12H3z" fill="#292929"/><path d="M8.362 3h-.725L4 6.031V10h.666L6 9v1c0 1.542 1.458 3 3 3h3V6.031L8.362 3z" fill="#292929"/><path d="M8 4l3 2.5v2L9 7v2.999C9 11 10 11 10 11h1v1H9c-1 0-2-1-2-2V7L5 8.5v-2L8 4z" fill="#7CBDFF"/></g></svg>