<svg ti:v="1" width="16" height="16" viewBox="0 0 16 16" xmlns="http://www.w3.org/2000/svg" xmlns:ti="urn:schemas-jetbrains-com:tisvg"><rect id="frame" width="16" height="16" fill="none"/><g fill-rule="evenodd"><path d="M1 16V5c0-2.757 2.243-5 5-5h9v16H1z" fill="#F4F4F4"/><path d="M6 1a4 4 0 0 0-4 4v10h12V1H6z" fill="#313131"/><path d="M3 14V5c0-1.654 1.346-3 3-3h7v12H3z" fill="#EBEBEB"/><path d="M7.586 6L5 8.586v.828L7.586 12h.828L11 9.414v-.828L8.414 6h-.828z" fill="#F4F4F4"/><path d="M8 7L6 9l2 2 2-2-2-2z" fill="#313131"/><path d="M7.5 12.085l-.401-.3C6.068 11.013 5.5 10.024 5.5 9c0-1.025.568-2.014 1.599-2.786l.401-.3V4H6.258l-.216.11C3.791 5.269 2.5 7.051 2.5 9c0 1.949 1.292 3.731 3.543 4.889l.215.111H7.5m1-10h1.242l.216.11C12.209 5.269 13.5 7.051 13.5 9c0 1.949-1.292 3.731-3.543 4.889L9.742 14H8.5v-1.915l.401-.3C9.932 11.013 10.5 10.024 10.5 9c0-1.025-.568-2.014-1.599-2.786l-.401-.3V4z" fill="#F4F4F4"/><path d="M9.5 13c1.827-.939 3-2.381 3-4 0-1.619-1.173-3.06-3-4v.414c1.236.925 2 2.19 2 3.586 0 1.397-.764 2.661-2 3.586M6.5 13c-1.827-.939-3-2.381-3-4 0-1.619 1.173-3.06 3-4v.414c-1.236.925-2 2.19-2 3.586 0 1.397.764 2.661 2 3.586V13z" fill="#313131"/></g></svg>