<svg ti:v="1" width="16" height="16" viewBox="0 0 16 16" xmlns="http://www.w3.org/2000/svg" xmlns:ti="urn:schemas-jetbrains-com:tisvg"><rect id="frame" width="16" height="16" fill="none"/><linearGradient id="a" x1=".5" y1=".005" x2=".5" y2="1.01"><stop offset="0" stop-color="#566980"/><stop offset="1" stop-color="#2D3641"/></linearGradient><path fill-rule="evenodd" d="M6 0C3.243 0 1 2.243 1 5v11h14V0H6z" fill="url(#a)"/><linearGradient id="b" x1=".5" y1="0" x2=".5" y2="1"><stop offset="0" stop-color="#FFF"/><stop offset="1" stop-color="#DFEFFF"/></linearGradient><path fill-rule="evenodd" d="M6 1a4 4 0 0 0-4 4v10h12V1H6z" fill="url(#b)"/><linearGradient id="c" x1=".5" y1=".021" x2=".5" y2="1.014"><stop offset="0" stop-color="#C1D8F2"/><stop offset="1" stop-color="#DFEFFF"/></linearGradient><path fill-rule="evenodd" d="M6 2C4.346 2 3 3.346 3 5v9h10V2H6z" fill="url(#c)"/><linearGradient id="d" x1=".5" y1="0" x2=".5" y2="1"><stop offset="0" stop-color="#DFEFFF"/><stop offset="1" stop-color="#FFF"/></linearGradient><path fill-rule="evenodd" d="M8 8c0 .611.288 1.183.788 1.57l.01-.011.058.047.179.09c.011.123-.155.428-.268.521-.47.376-.523 1.008-.373 1.436.046.131.113.245.193.347h1.841C11.355 11.376 12 10.629 12 8c0-1.103-.897-2-2-2s-2 .897-2 2zM4 8c0 2.629.645 3.376 1.572 4h1.841c.08-.102.147-.216.193-.347.15-.428.096-1.06-.374-1.436-.112-.093-.278-.398-.269-.468.155-.078.264-.176.331-.245C7.744 9.12 8 8.577 8 8c0-1.103-.897-2-2-2s-2 .897-2 2z" fill="url(#d)"/><linearGradient id="e" x1=".5" y1=".005" x2=".5" y2="1.01"><stop offset="0" stop-color="#2D3641"/><stop offset="1" stop-color="#566980"/></linearGradient><path fill-rule="evenodd" d="M9 8c0 .322.162.596.399.778l.085.077c1.047.531.36 1.786-.093 2.145-.115.091-.094.438.077.438C10.313 10.859 11 10.734 11 8a1 1 0 1 0-2 0zM5 8c0 2.734.687 2.859 1.532 3.438.172 0 .192-.347.077-.438-.453-.359-1.14-1.614-.094-2.145l.086-.077A.979.979 0 0 0 7 8a1 1 0 1 0-2 0z" fill="url(#e)"/></svg>