<svg ti:v="1" width="16" height="16" viewBox="0 0 16 16" xmlns="http://www.w3.org/2000/svg" xmlns:ti="urn:schemas-jetbrains-com:tisvg"><rect id="frame" width="16" height="16" fill="none"/><linearGradient id="a" x1=".5" y1=".005" x2=".5" y2="1.01"><stop offset="0" stop-color="#566980"/><stop offset="1" stop-color="#2D3641"/></linearGradient><path fill-rule="evenodd" d="M6 0C3.243 0 1 2.243 1 5v11h14V0H6z" fill="url(#a)"/><linearGradient id="b" x1=".5" y1="0" x2=".5" y2="1"><stop offset="0" stop-color="#FFF"/><stop offset="1" stop-color="#DFEFFF"/></linearGradient><path fill-rule="evenodd" d="M6 1a4 4 0 0 0-4 4v10h12V1H6z" fill="url(#b)"/><linearGradient id="c" x1=".5" y1=".021" x2=".5" y2="1.014"><stop offset="0" stop-color="#C1D8F2"/><stop offset="1" stop-color="#DFEFFF"/></linearGradient><path fill-rule="evenodd" d="M6 2C4.346 2 3 3.346 3 5v9h10V2H6z" fill="url(#c)"/><linearGradient id="d" x1=".5" y1="0" x2=".5" y2="1"><stop offset="0" stop-color="#DFEFFF"/><stop offset="1" stop-color="#FFF"/></linearGradient><path fill-rule="evenodd" d="M6 4.5a2.5 2.5 0 0 0 1 1.993v2.093L5.414 7H4v4c0 1.655 1.345 3 3 3 .531 0 1.047-.144 1.5-.408.453.264.969.408 1.5.408 1.654 0 3-1.345 3-3V7h-1.414L10 8.586V6.493c.618-.464 1-1.199 1-1.993C11 3.121 9.879 2 8.5 2A2.503 2.503 0 0 0 6 4.5z" fill="url(#d)"/><linearGradient id="e" x1=".5" y1=".005" x2=".5" y2="1.01"><stop offset="0" stop-color="#2D4141"/><stop offset="1" stop-color="#568080"/></linearGradient><path fill-rule="evenodd" d="M7 4.5c0 .652.419 1.201 1 1.408V11a1 1 0 1 1-2 0v-1h1L5 8v3a2 2 0 0 0 2 2 1.99 1.99 0 0 0 1.5-.689c.367.418.899.689 1.5.689a2 2 0 0 0 2-2V8l-2 2h1v1a1 1 0 1 1-2 0V5.908c.581-.207 1-.756 1-1.408a1.5 1.5 0 0 0-3 0zm.65 0a.85.85 0 1 1 1.7 0 .85.85 0 1 1-1.7 0z" fill="url(#e)"/></svg>