<svg ti:v="1" width="16" height="16" viewBox="0 0 16 16" xmlns="http://www.w3.org/2000/svg" xmlns:ti="urn:schemas-jetbrains-com:tisvg"><rect id="frame" width="16" height="16" fill="none"/><linearGradient id="a" x1=".5" y1=".005" x2=".5" y2="1.01"><stop offset="0" stop-color="#566980"/><stop offset="1" stop-color="#2D3641"/></linearGradient><path fill-rule="evenodd" d="M6 0C3.243 0 1 2.243 1 5v11h14V0H6z" fill="url(#a)"/><linearGradient id="b" x1=".5" y1="0" x2=".5" y2="1"><stop offset="0" stop-color="#FFF"/><stop offset="1" stop-color="#DFEFFF"/></linearGradient><path fill-rule="evenodd" d="M6 1a4 4 0 0 0-4 4v10h12V1H6z" fill="url(#b)"/><linearGradient id="c" x1=".5" y1=".021" x2=".5" y2="1.014"><stop offset="0" stop-color="#C1D8F2"/><stop offset="1" stop-color="#DFEFFF"/></linearGradient><path fill-rule="evenodd" d="M6 2C4.346 2 3 3.345 3 5v9h10V2H6z" fill="url(#c)"/><linearGradient id="d" x1="0" y1=".5" x2="1" y2=".5"><stop offset="0" stop-color="#9E2700"/><stop offset="1" stop-color="#00806A"/></linearGradient><path fill-rule="evenodd" d="M10 5v2H9V5H7.624L3 9.046v.907L7.624 14H9v-2h1v2h1.376L16 9.953v-.907L11.376 5H10z" fill="url(#d)"/><linearGradient id="e" x1=".5" y1="0" x2=".5" y2="1"><stop offset="0" stop-color="#FFD0C1"/><stop offset="1" stop-color="#FF8056"/></linearGradient><path fill-rule="evenodd" d="M4 9.5L8 13v-2h1.5v-1h-1V9h1V8H8V6L4 9.5z" fill="url(#e)"/><linearGradient id="f" x1=".5" y1="0" x2=".5" y2="1"><stop offset="0" stop-color="#C8FFF5"/><stop offset="1" stop-color="#00CCB8"/></linearGradient><path fill-rule="evenodd" d="M11 8H9.5v1h1v1h-1v1H11v2l4-3.5L11 6v2z" fill="url(#f)"/></svg>