<svg ti:v="1" width="16" height="16" viewBox="0 0 16 16" xmlns="http://www.w3.org/2000/svg" xmlns:ti="urn:schemas-jetbrains-com:tisvg"><rect id="frame" width="16" height="16" fill="none"/><linearGradient id="a" x1=".5" y1=".005" x2=".5" y2="1.01"><stop offset="0" stop-color="#566980"/><stop offset="1" stop-color="#2D3641"/></linearGradient><path fill-rule="evenodd" d="M6 0C3.243 0 1 2.243 1 5v11h14V0H6z" fill="url(#a)"/><linearGradient id="b" x1=".5" y1="0" x2=".5" y2="1"><stop offset="0" stop-color="#FFF"/><stop offset="1" stop-color="#DFEFFF"/></linearGradient><path fill-rule="evenodd" d="M6 1a4 4 0 0 0-4 4v10h12V1H6z" fill="url(#b)"/><linearGradient id="c" x1=".5" y1=".021" x2=".5" y2="1.014"><stop offset="0" stop-color="#C1D8F2"/><stop offset="1" stop-color="#DFEFFF"/></linearGradient><path fill-rule="evenodd" d="M6 2C4.346 2 3 3.345 3 5v9h10V2H6z" fill="url(#c)"/><linearGradient id="d" x1=".5" y1="0" x2=".5" y2="1"><stop offset="0" stop-color="#DFEFFF"/><stop offset="1" stop-color="#FFF"/></linearGradient><path fill-rule="evenodd" d="M6.275 3.396a3.61 3.61 0 0 0-1.317 1.122 4.78 4.78 0 0 0-.734 1.601A7.568 7.568 0 0 0 4 8.003c0 .778.082 1.471.244 2.059.175.631.435 1.169.773 1.599.359.455.802.799 1.316 1.022.487.21 1.027.317 1.604.317.669 0 1.273-.133 1.792-.396.522-.264.965-.64 1.315-1.119.329-.453.577-.992.735-1.603A7.537 7.537 0 0 0 12 8.003c0-.778-.082-1.471-.244-2.058-.173-.63-.432-1.168-.771-1.6a3.35 3.35 0 0 0-1.318-1.027A4.01 4.01 0 0 0 8.063 3c-.664 0-1.266.133-1.788.396z" fill="url(#d)"/><linearGradient id="e" x1=".5" y1=".005" x2=".5" y2="1.01"><stop offset="0" stop-color="#566980"/><stop offset="1" stop-color="#2D3641"/></linearGradient><path fill-rule="evenodd" d="M6.724 4.289a2.602 2.602 0 0 0-.956.816 3.735 3.735 0 0 0-.575 1.265A6.45 6.45 0 0 0 5 8.003c0 .691.069 1.289.208 1.793.14.505.338.92.594 1.245.257.325.566.567.929.724A3 3 0 0 0 7.937 12c.514 0 .961-.096 1.342-.289.381-.193.7-.464.956-.816a3.66 3.66 0 0 0 .576-1.263A6.54 6.54 0 0 0 11 8.003c0-.691-.07-1.289-.208-1.793-.139-.505-.338-.921-.594-1.248a2.349 2.349 0 0 0-.928-.726A3.005 3.005 0 0 0 8.063 4c-.51 0-.956.096-1.339.289zm.679 6.719a1.517 1.517 0 0 1-.468-.292 1.763 1.763 0 0 1-.35-.449 2.966 2.966 0 0 1-.24-.572 6.188 6.188 0 0 1-.208-1.001 4.09 4.09 0 0 1-.023-.358 45.144 45.144 0 0 1-.002-.369c0-.504.044-.948.132-1.331.088-.383.215-.705.379-.965a1.69 1.69 0 0 1 .597-.587c.234-.131.494-.196.78-.196.215 0 .408.033.581.101.173.067.326.161.461.283.135.121.25.265.347.431.098.168.175.36.238.562.096.307.215.784.211.982l.035.39c.011.133.016.267.016.402 0 .504-.045.948-.133 1.331a3.058 3.058 0 0 1-.379.962 1.688 1.688 0 0 1-.597.584 1.57 1.57 0 0 1-.78.197c-.223 0-.422-.036-.597-.105z" fill="url(#e)"/><linearGradient id="f" x1=".5" y1="-.89" x2=".5" y2="1.909"><stop offset="0" stop-color="#566980"/><stop offset="1" stop-color="#2D3641"/></linearGradient><path fill-rule="evenodd" d="M6.626 8.352c.014.308.037.595.084.837.015.078.036.142.054.212L9.37 7.575a5.8 5.8 0 0 0-.08-.761c-.019-.099-.046-.183-.07-.271L6.626 8.352z" fill="url(#f)"/></svg>