<svg ti:v="1" width="16" height="16" viewBox="0 0 16 16" xmlns="http://www.w3.org/2000/svg" xmlns:ti="urn:schemas-jetbrains-com:tisvg"><rect id="frame" width="16" height="16" fill="none"/><g fill-rule="evenodd"><path d="M1 16V5c0-2.757 2.243-5 5-5h9v16H1z" fill="#F4F4F4"/><path d="M6 1a4 4 0 0 0-4 4v10h12V1H6z" fill="#313131"/><path d="M3 14V5c0-1.654 1.346-3 3-3h7v12H3z" fill="#EBEBEB"/><path d="M7.937 13a4.028 4.028 0 0 1-1.604-.317 3.37 3.37 0 0 1-1.316-1.023c-.338-.429-.598-.967-.772-1.598C4.082 9.474 4 8.781 4 8.003c0-.676.076-1.31.225-1.884a4.76 4.76 0 0 1 .733-1.601c.348-.48.791-.858 1.317-1.122C6.796 3.133 7.398 3 8.063 3a4.02 4.02 0 0 1 1.603.317c.516.224.959.569 1.319 1.028.338.432.598.97.771 1.6.162.587.244 1.28.244 2.058 0 .678-.074 1.309-.221 1.879a4.668 4.668 0 0 1-.736 1.603 3.66 3.66 0 0 1-1.314 1.119c-.519.262-1.122.396-1.792.396z" fill="#F4F4F4"/><path d="M9.756 9.37a3.068 3.068 0 0 1-.379.962 1.688 1.688 0 0 1-.597.584 1.566 1.566 0 0 1-.78.196c-.223 0-.422-.034-.597-.104a1.539 1.539 0 0 1-.467-.292 1.73 1.73 0 0 1-.35-.45 2.872 2.872 0 0 1-.241-.571 6.299 6.299 0 0 1-.208-1.001 3.76 3.76 0 0 1-.022-.358c-.002-.123-.004-.246-.004-.369 0-.504.045-.948.133-1.331.089-.384.215-.705.379-.965a1.68 1.68 0 0 1 .597-.587c.234-.131.494-.196.78-.196.215 0 .408.033.581.101.173.067.326.161.461.283.135.121.251.265.348.431.096.167.175.359.238.562.095.307.214.784.21.981.013.127.024.257.035.391a5.987 5.987 0 0 1-.117 1.733zm1.036-3.16c-.139-.505-.337-.921-.594-1.248a2.36 2.36 0 0 0-.928-.727A3.005 3.005 0 0 0 8.063 4c-.509 0-.955.096-1.339.289a2.602 2.602 0 0 0-.956.816 3.726 3.726 0 0 0-.575 1.265A6.49 6.49 0 0 0 5 8.003c0 .691.069 1.288.209 1.793.139.504.337.919.593 1.245.257.326.566.567.929.724.362.156.764.235 1.206.235.514 0 .961-.096 1.342-.289.381-.193.7-.465.957-.816.257-.352.448-.773.575-1.263A6.546 6.546 0 0 0 11 8.003c0-.691-.069-1.289-.208-1.793z" fill="#313131"/><path d="M9.29 6.815c-.019-.099-.045-.183-.069-.272l-2.594 1.81c.014.307.037.594.084.837.015.077.036.141.054.211l2.606-1.827a5.777 5.777 0 0 0-.081-.759z" fill="#313131"/></g></svg>