<svg ti:v="1" width="16" height="16" viewBox="0 0 16 16" xmlns="http://www.w3.org/2000/svg" xmlns:ti="urn:schemas-jetbrains-com:tisvg"><rect id="frame" width="16" height="16" fill="none"/><g fill-rule="evenodd"><path d="M1 16V5c0-2.757 2.243-5 5-5h9v16H1z" fill="#242424"/><path d="M6 1a4 4 0 0 0-4 4v10h12V1H6z" fill="#C3C3C3"/><path d="M3 14V5c0-1.654 1.346-3 3-3h7v12H3z" fill="#282828"/><path d="M11 4v3H9v5H6v2h5V9h2V4h-2z" fill="#242424"/><path d="M9 7h2V3H3.78A2.98 2.98 0 0 0 3 5v2h2v5h4V7z" fill="#242424"/><path d="M4 4v2h2v5h2V6h2V4H4z" fill="#C3C3C3"/><path d="M11 5v2H9v5H7v1h3V8h2V5h-1z" fill="#C3C3C3"/></g></svg>