<svg ti:v="1" width="16" height="16" viewBox="0 0 16 16" xmlns="http://www.w3.org/2000/svg" xmlns:ti="urn:schemas-jetbrains-com:tisvg"><rect id="frame" width="16" height="16" fill="none"/><linearGradient id="a" x1=".5" y1=".005" x2=".5" y2="1.01"><stop offset="0" stop-color="#566980"/><stop offset="1" stop-color="#2D3641"/></linearGradient><path fill-rule="evenodd" d="M6 0C3.243 0 1 2.243 1 5v11h14V0H6z" fill="url(#a)"/><linearGradient id="b" x1=".5" y1="0" x2=".5" y2="1"><stop offset="0" stop-color="#FFF"/><stop offset="1" stop-color="#DFEFFF"/></linearGradient><path fill-rule="evenodd" d="M6 1a4 4 0 0 0-4 4v10h12V1H6z" fill="url(#b)"/><linearGradient id="c" x1=".5" y1=".021" x2=".5" y2="1.014"><stop offset="0" stop-color="#C1D8F2"/><stop offset="1" stop-color="#DFEFFF"/></linearGradient><path fill-rule="evenodd" d="M6 2C4.346 2 3 3.346 3 5v9h10V2H6z" fill="url(#c)"/><linearGradient id="d" x1=".5" y1="0" x2=".5" y2="1"><stop offset="0" stop-color="#4600C3"/><stop offset="1" stop-color="#6D00F4"/></linearGradient><path fill-rule="evenodd" d="M4 14h9V5H4v9z" fill="url(#d)"/><linearGradient id="e" x1=".5" y1="0" x2=".5" y2="1"><stop offset="0" stop-color="#FFF"/><stop offset="1" stop-color="#BFA8FF"/></linearGradient><path fill-rule="evenodd" d="M5 13h7V6H5v7z" fill="url(#e)"/><linearGradient id="f" x1=".5" y1=".003" x2=".5" y2="1.403"><stop offset="0" stop-color="#D3C3FF"/><stop offset="1" stop-color="#9773FF"/></linearGradient><path fill-rule="evenodd" d="M6 12h5V7H6v5z" fill="url(#f)"/><linearGradient id="g" x1=".5" y1=".012" x2=".5" y2="1.001"><stop offset="0" stop-color="#5D3500"/><stop offset="1" stop-color="#B36A00"/></linearGradient><path fill-rule="evenodd" d="M7 12h4V8H7v4z" fill="url(#g)"/><linearGradient id="h" x1=".5" y1=".012" x2=".5" y2="1.001"><stop offset="0" stop-color="#F5E262"/><stop offset="1" stop-color="#FFE000"/></linearGradient><path fill-rule="evenodd" d="M8 11h2V9H8v2z" fill="url(#h)"/></svg>