<svg ti:v="1" width="16" height="16" viewBox="0 0 16 16" xmlns="http://www.w3.org/2000/svg" xmlns:ti="urn:schemas-jetbrains-com:tisvg"><rect id="frame" width="16" height="16" fill="none"/><g fill-rule="evenodd"><path d="M1 16V5c0-2.757 2.243-5 5-5h9v16H1z" fill="#F4F4F4"/><path d="M6 1a4 4 0 0 0-4 4v10h12V1H6z" fill="#313131"/><path d="M3 14V5c0-1.654 1.346-3 3-3h7v12H3z" fill="#EBEBEB"/><path d="M6 6c-1.103 0-2 .897-2 2 0 2.629.645 3.376 1.572 4h1.841a1.21 1.21 0 0 0 .193-.347c.15-.428.097-1.06-.374-1.435-.112-.094-.278-.4-.269-.469.156-.078.264-.176.331-.245C7.744 9.12 8 8.577 8 8c0-1.103-.897-2-2-2zm6 2c0 2.629-.645 3.376-1.572 4H8.587a1.21 1.21 0 0 1-.193-.347c-.15-.428-.097-1.06.374-1.435.112-.094.278-.4.267-.522l-.179-.09-.059-.047-.009.011A1.977 1.977 0 0 1 8 8c0-1.103.897-2 2-2s2 .897 2 2z" fill="#F4F4F4"/><path d="M9.39 11c-.114.092-.093.437.079.437.844-.578 1.53-.703 1.53-3.437a1 1 0 1 0-2 0c0 .322.163.596.4.778l.086.076c1.047.532.359 1.787-.094 2.146zm-2.78 0c.115.092.093.437-.078.437C5.688 10.859 5 10.734 5 8a1 1 0 1 1 2 0 .979.979 0 0 1-.4.778l-.084.076c-1.047.532-.36 1.787.094 2.146z" fill="#313131"/></g></svg>