<svg ti:v="1" width="16" height="16" viewBox="0 0 16 16" xmlns="http://www.w3.org/2000/svg" xmlns:ti="urn:schemas-jetbrains-com:tisvg"><rect id="frame" width="16" height="16" fill="none"/><g fill-rule="evenodd"><path d="M1 16V5c0-2.757 2.243-5 5-5h9v16H1z" fill="#242424"/><path d="M6 1a4 4 0 0 0-4 4v10h12V1H6z" fill="#C3C3C3"/><path d="M3 14V5c0-1.654 1.346-3 3-3h7v12H3z" fill="#292929"/><path d="M13 6.736v-.473L12.868 6H13V3h-1.961l.041-.328L9.736 2h-.478l-1.337.688L7.96 3H6v3h.132L6 6.263v.473L6.132 7H6v3h1.961l-.041.328L9.264 11h.478l1.337-.688L11.04 10H13V7h-.132L13 6.736z" fill="#242424"/><path d="M9.5 7.5l-1-1 1-1 1 1m1.5 0l-.25-.5-1 .25L11 5l-1.25.25.25-2L9.5 3l-.5.257.25 1.993L8 5l.25 1.25-1-.25-.25.5.25.5 1-.25L8 8l1.25-.25-.25 2 .5.25.5-.257-.25-1.993L11 8l-.25-1.25 1 .25M7 9h1v-.75L7.75 8H7m0-4v1h.75L8 4.75V4m4 5V8h-.75l-.25.25V9m1-5h-1v.75l.25.25H12V4z" fill="#E8A34D"/><path d="M9.5 7.5l-1-1 1-1 1 1-1 1z" fill="#282828"/></g></svg>