<svg ti:v="1" width="16" height="16" viewBox="0 0 16 16" xmlns="http://www.w3.org/2000/svg" xmlns:ti="urn:schemas-jetbrains-com:tisvg"><rect id="frame" width="16" height="16" fill="none"/><g fill-rule="evenodd"><path d="M1 16V5c0-2.757 2.243-5 5-5h9v16H1z" fill="#242424"/><path d="M6 1a4 4 0 0 0-4 4v10h12V1H6z" fill="#C3C3C3"/><path d="M3 14V5c0-1.654 1.346-3 3-3h7v12H3z" fill="#292929"/><path d="M3 11.25V5.751L8 3l5 2.751v5.499L8 14l-5-2.75z" fill="#242424"/><path d="M4 6.801v3.858l4 2.2V9L4 6.801z" fill="#B180D3"/><path d="M12 6.801L8 9v3.859l4-2.2V6.801z" fill="#B180D3"/><path d="M11.379 6L8 7.858 4.621 6 4 6.342v.459L8 9l4-2.199v-.459L11.379 6z" fill="#292929"/><path d="M8 7.858L11.379 6 8 4.141 4.621 6 8 7.858z" fill="#B180D3"/></g></svg>