<svg ti:v="1" width="16" height="16" viewBox="0 0 16 16" xmlns="http://www.w3.org/2000/svg" xmlns:ti="urn:schemas-jetbrains-com:tisvg"><rect id="frame" width="16" height="16" fill="none"/><linearGradient id="a" x1=".5" y1=".005" x2=".5" y2="1.01"><stop offset="0" stop-color="#566980"/><stop offset="1" stop-color="#2D3641"/></linearGradient><path fill-rule="evenodd" d="M6 0C3.243 0 1 2.243 1 5v11h14V0H6z" fill="url(#a)"/><linearGradient id="b" x1=".5" y1="0" x2=".5" y2="1"><stop offset="0" stop-color="#FFF"/><stop offset="1" stop-color="#DFEFFF"/></linearGradient><path fill-rule="evenodd" d="M6 1a4 4 0 0 0-4 4v10h12V1H6z" fill="url(#b)"/><linearGradient id="c" x1=".5" y1=".021" x2=".5" y2="1.014"><stop offset="0" stop-color="#C1D8F2"/><stop offset="1" stop-color="#DFEFFF"/></linearGradient><path fill-rule="evenodd" d="M6 2C4.346 2 3 3.346 3 5v9h10V2H6z" fill="url(#c)"/><linearGradient id="d" x1=".5" y1="0" x2=".5" y2="1"><stop offset="0" stop-color="#DFFFE9"/><stop offset="1" stop-color="#FFF"/></linearGradient><path fill-rule="evenodd" d="M6 9a4 4 0 0 0 8 0 4 4 0 0 0-8 0z" fill="url(#d)"/><linearGradient id="e" x1=".5" y1=".005" x2=".5" y2="1.01"><stop offset="0" stop-color="#255C09"/><stop offset="1" stop-color="#52AC22"/></linearGradient><path fill-rule="evenodd" d="M7 9a3 3 0 1 0 6 0 3 3 0 1 0-6 0z" fill="url(#e)"/><linearGradient id="f" x1=".5" y1="0" x2=".5" y2="1"><stop offset="0" stop-color="#DFEFFF"/><stop offset="1" stop-color="#FFF"/></linearGradient><path fill-rule="evenodd" d="M4 6.38v5.24A3.972 3.972 0 0 0 7 13a4 4 0 0 0 0-8 3.972 3.972 0 0 0-3 1.38z" fill="url(#f)"/><linearGradient id="g" x1=".5" y1=".013" x2=".5" y2="1"><stop offset="0" stop-color="#0041A1"/><stop offset="1" stop-color="#4473BC"/></linearGradient><path fill-rule="evenodd" d="M4 9a3 3 0 1 0 6 0 3 3 0 0 0-6 0z" fill="url(#g)"/><linearGradient id="h" x1=".5" y1="0" x2=".5" y2="1"><stop offset="0" stop-color="#FFF2DF"/><stop offset="1" stop-color="#FFF"/></linearGradient><path fill-rule="evenodd" d="M3 5.141v7.717c.321.084.652.142 1 .142a4 4 0 0 0 0-8c-.348 0-.679.059-1 .141z" fill="url(#h)"/><linearGradient id="i" x1=".5" y1=".004" x2=".5" y2=".982"><stop offset="0" stop-color="#A55200"/><stop offset="1" stop-color="#DBC500"/></linearGradient><path fill-rule="evenodd" d="M4 12a3 3 0 1 0 0-6v6z" fill="url(#i)"/><linearGradient id="j" x1=".5" y1=".004" x2=".5" y2=".982"><stop offset="0" stop-color="#A55200"/><stop offset="1" stop-color="#DBC500"/></linearGradient><path fill-rule="evenodd" d="M3 6.184v5.633c.314.11.647.183 1 .183V6c-.353 0-.686.072-1 .184z" fill="url(#j)"/></svg>