<svg xmlns="http://www.w3.org/2000/svg" xmlns:xlink="http://www.w3.org/1999/xlink" width="16" height="16" viewBox="0 0 16 16"><rect id="frame" width="16" height="16" fill="none"/><defs><linearGradient id="b" x1="8" y1=".083" x2="8" y2="16.167" gradientUnits="userSpaceOnUse"><stop offset="0" stop-color="#576a80"/><stop offset="1" stop-color="#2d3742"/></linearGradient><linearGradient id="c" x1="8" y1="1" x2="8" y2="15" gradientUnits="userSpaceOnUse"><stop offset="0" stop-color="#fff"/><stop offset="1" stop-color="#e0efff"/></linearGradient><linearGradient id="d" x1="8" y1="2.25" x2="8" y2="14.167" gradientUnits="userSpaceOnUse"><stop offset="0" stop-color="#c2d9f2"/><stop offset="1" stop-color="#e0efff"/></linearGradient><linearGradient id="a" x1="3.167" y1="11.5" x2="9.092" y2="11.5" gradientUnits="userSpaceOnUse"><stop offset="0" stop-color="#fd59ff"/><stop offset="1" stop-color="#ff9bff"/></linearGradient><linearGradient id="e" x1="7" y1="6" x2="7" y2="15" gradientUnits="userSpaceOnUse"><stop offset="0" stop-color="purple"/><stop offset="1" stop-color="#5c005c"/></linearGradient><linearGradient id="f" x1="7" y1="7.111" x2="7" y2="11.062" gradientUnits="userSpaceOnUse"><stop offset="0" stop-color="#fd54ff"/><stop offset="1" stop-color="#ffbeff"/></linearGradient><linearGradient id="g" x1="4.167" x2="10.092" xlink:href="#a"/><linearGradient id="h" x1="7.083" y1="11.5" x2="10.046" y2="11.5" gradientUnits="userSpaceOnUse"><stop offset="0" stop-color="#fc33ff"/><stop offset="1" stop-color="#ffa2ff"/></linearGradient><linearGradient id="i" x1="11" y1=".143" x2="11" y2="11.001" gradientUnits="userSpaceOnUse"><stop offset="0" stop-color="#5673a0"/><stop offset="1" stop-color="#415a80"/></linearGradient><linearGradient id="j" x1="11" y1="1.372" x2="11" y2="10.151" gradientUnits="userSpaceOnUse"><stop offset="0" stop-color="#8bd4ff"/><stop offset=".994" stop-color="#a2fbff"/></linearGradient></defs><path d="M1 16V5a5.006 5.006 0 0 1 5-5h9v16z" fill="url(#b)"/><path d="M6 1a4 4 0 0 0-4 4v10h12V1z" fill="url(#c)"/><path d="M3 14V5a3 3 0 0 1 3-3h7v12z" fill="url(#d)"/><path fill="url(#a)" d="M9 9l-3 2v3l3-2V9z"/><g><path fill="url(#e)" d="M6.697 6L3 8.465v4.07L6.697 15h.606L11 12.535v-4.07L7.303 6h-.606z"/><path fill="url(#f)" d="M4 9l3 2 3-2-3-2-3 2z"/><path fill="url(#g)" d="M4 9v3l3 2v-3L4 9z"/><path fill="url(#h)" d="M10 9l-3 2v3l3-2V9z"/><path fill="#ffe5ff" d="M7 11.421l3-2V9l-.315-.21L7 10.579 4.315 8.79 4 9v.421l3 2z"/></g><g><path fill="url(#i)" d="M13.758 3L13 3.758V0H9v3.758L8.242 3H7v4.414L10.586 11h.828L15 7.414V3h-1.242z"/><path d="M10 2V1h2v1zm2 1h-2v3.172l-2-2V7l3 3 3-3V4.172l-2 2z" fill="url(#j)"/></g></svg>