<svg ti:v="1" width="16" height="16" viewBox="0 0 16 16" xmlns="http://www.w3.org/2000/svg" xmlns:ti="urn:schemas-jetbrains-com:tisvg"><rect id="frame" width="16" height="16" fill="none"/><g fill-rule="evenodd"><path d="M1 16V5c0-2.757 2.243-5 5-5h9v16H1z" fill="#242424"/><path d="M6 1a4 4 0 0 0-4 4v10h12V1H6z" fill="#C3C3C3"/><path d="M3 14V5c0-1.654 1.346-3 3-3h7v12H3z" fill="#292929"/><path d="M8.724 3L3 6.434v4.101L6.698 13h.579L13 9.566V5.465L9.303 3h-.58z" fill="#242424"/><path d="M4 7v3l3 2V9L4 7z" fill="#75BCFF"/><path d="M12 6L7 9v3l5-3V6z" fill="#75BCFF"/><path d="M4 7l3 2 5-3-3-2-5 3z" fill="#75BCFF"/><path d="M4.79 7.526L7 9l4.21-2.527L9 5 4.79 7.526z" fill="#313131"/></g></svg>