<svg ti:v="1" width="16" height="16" viewBox="0 0 16 16" xmlns="http://www.w3.org/2000/svg" xmlns:ti="urn:schemas-jetbrains-com:tisvg"><rect id="frame" width="16" height="16" fill="none"/><g fill-rule="evenodd"><path d="M1 16V5c0-2.757 2.243-5 5-5h9v16H1z" fill="#242424"/><path d="M6 1a4 4 0 0 0-4 4v10h12V1H6z" fill="#C3C3C3"/><path d="M3 14V5c0-1.654 1.346-3 3-3h7v12H3z" fill="#292929"/><path d="M12 14H5V8h7v6z" fill="#242424"/><path d="M11 13H6V9h5v4z" fill="#C3C3C3"/><path d="M9 12H8v-2h1v2z" fill="#282828"/><path d="M6 8V6a2 2 0 0 1 2-2h1a2 2 0 0 1 2 2v2H6z" fill="#242424"/><path d="M9 5H8L7 6v2h1V6h1v2h1V6L9 5z" fill="#C3C3C3"/></g></svg>