<svg ti:v="1" width="16" height="16" viewBox="0 0 16 16" xmlns="http://www.w3.org/2000/svg" xmlns:ti="urn:schemas-jetbrains-com:tisvg"><rect id="frame" width="16" height="16" fill="none"/><g fill-rule="evenodd"><path d="M1 16V5c0-2.757 2.243-5 5-5h9v16H1z" fill="#242424"/><path d="M6 1a4 4 0 0 0-4 4v10h12V1H6z" fill="#C3C3C3"/><path d="M3 14V5c0-1.654 1.346-3 3-3h7v12H3z" fill="#292929"/><path d="M4 5h9v9H4V5z" fill="#242424"/><path d="M12 13H5V6h7v7z" fill="#C3C3C3"/><path d="M11 12H6V7h5v5z" fill="#282828"/><path d="M7 12h4V8H7v4z" fill="#242424"/><path d="M8 11h2V9H8v2z" fill="#C3C3C3"/></g></svg>