<svg ti:v="1" width="16" height="16" viewBox="0 0 16 16" xmlns="http://www.w3.org/2000/svg" xmlns:ti="urn:schemas-jetbrains-com:tisvg"><rect id="frame" width="16" height="16" fill="none"/><linearGradient id="a" x1=".5" y1=".005" x2=".5" y2="1.01"><stop offset="0" stop-color="#566980"/><stop offset="1" stop-color="#2D3641"/></linearGradient><path fill-rule="evenodd" d="M6 0C3.243 0 1 2.243 1 5v11h14V0H6z" fill="url(#a)"/><linearGradient id="b" x1=".5" y1="0" x2=".5" y2="1"><stop offset="0" stop-color="#FFF"/><stop offset="1" stop-color="#DFEFFF"/></linearGradient><path fill-rule="evenodd" d="M6 1a4 4 0 0 0-4 4v10h12V1H6z" fill="url(#b)"/><linearGradient id="c" x1=".5" y1=".021" x2=".5" y2="1.014"><stop offset="0" stop-color="#C1D8F2"/><stop offset="1" stop-color="#DFEFFF"/></linearGradient><path fill-rule="evenodd" d="M6 2C4.346 2 3 3.346 3 5v9h10V2H6z" fill="url(#c)"/><linearGradient id="d" x1=".5" y1="0" x2=".5" y2="1"><stop offset="0" stop-color="#FFF7DF"/><stop offset="1" stop-color="#FFF"/></linearGradient><path fill-rule="evenodd" d="M5.001 4v5.05A2.506 2.506 0 0 0 3 11.5C3 12.879 4.122 14 5.5 14S8 12.879 8 11.5c0-.485-.145-.935-.385-1.32l.136-.182h.497l.138.182A2.479 2.479 0 0 0 8 11.5c0 1.379 1.121 2.5 2.5 2.5 1.378 0 2.5-1.121 2.5-2.5 0-1.207-.86-2.217-2-2.449V4H5.001z" fill="url(#d)"/><linearGradient id="e" x1=".5" y1=".005" x2=".5" y2="1.005"><stop offset="0" stop-color="#5573A1"/><stop offset="1" stop-color="#405980"/></linearGradient><path fill-rule="evenodd" d="M5.733 10.024C5.656 10.012 5.58 10 5.5 10a1.5 1.5 0 1 0 0 3 1.498 1.498 0 1 0 .817-2.756L8 8l1.683 2.244A1.5 1.5 0 0 0 10.5 13a1.5 1.5 0 1 0 0-3c-.08 0-.157.012-.232.024L8 7l-2.267 3.024z" fill="url(#e)"/><linearGradient id="f" x1=".5" y1=".012" x2=".5" y2="1.001"><stop offset="0" stop-color="#CC9304"/><stop offset="1" stop-color="#DF902F"/></linearGradient><path fill-rule="evenodd" d="M6.002 8.998H10V5H6.002v3.998z" fill="url(#f)"/><linearGradient id="g" x1=".5" y1=".012" x2=".5" y2="1.001"><stop offset="0" stop-color="#F5E369"/><stop offset="1" stop-color="#EFAC05"/></linearGradient><path fill-rule="evenodd" d="M7 8h2V6H7v2z" fill="url(#g)"/></svg>