<svg ti:v="1" width="16" height="16" viewBox="0 0 16 16" xmlns="http://www.w3.org/2000/svg" xmlns:ti="urn:schemas-jetbrains-com:tisvg"><rect id="frame" width="16" height="16" fill="none"/><g fill-rule="evenodd"><path d="M1 16V5c0-2.757 2.243-5 5-5h9v16H1z" fill="#F4F4F4"/><path d="M6 1a4 4 0 0 0-4 4v10h12V1H6z" fill="#313131"/><path d="M3 14V5c0-1.654 1.346-3 3-3h7v12H3z" fill="#EBEBEB"/><path d="M14 9a4 4 0 1 1-8 0 4 4 0 0 1 8 0z" fill="#F4F4F4"/><path d="M13 9a3 3 0 1 1-6 0 3 3 0 0 1 6 0z" fill="#313131"/><path d="M7 5a3.972 3.972 0 0 0-3 1.38v5.24A3.972 3.972 0 0 0 7 13a4 4 0 0 0 0-8z" fill="#F4F4F4"/><path d="M10 9a3 3 0 1 1-6 0 3 3 0 0 1 6 0z" fill="#313131"/><path d="M4 5c-.348 0-.679.059-1 .142v7.716c.321.083.652.142 1 .142a4 4 0 0 0 0-8z" fill="#F4F4F4"/><path d="M4 6v6a3 3 0 1 0 0-6z" fill="#313131"/><path d="M3 6.184v5.633c.314.111.647.183 1 .183V6c-.353 0-.686.073-1 .184z" fill="#F4F4F4"/></g></svg>