<svg ti:v="1" width="16" height="16" viewBox="0 0 16 16" xmlns="http://www.w3.org/2000/svg" xmlns:ti="urn:schemas-jetbrains-com:tisvg"><rect id="frame" width="16" height="16" fill="none"/><linearGradient id="a" x1=".5" y1=".005" x2=".5" y2="1.01"><stop offset="0" stop-color="#566980"/><stop offset="1" stop-color="#2D3641"/></linearGradient><path fill-rule="evenodd" d="M6 0C3.243 0 1 2.244 1 5v11h14V0H6z" fill="url(#a)"/><linearGradient id="b" x1=".5" y1="0" x2=".5" y2="1"><stop offset="0" stop-color="#FFF"/><stop offset="1" stop-color="#DFEFFF"/></linearGradient><path fill-rule="evenodd" d="M6 1a4 4 0 0 0-4 4v10h12V1H6z" fill="url(#b)"/><linearGradient id="c" x1=".5" y1=".021" x2=".5" y2="1.014"><stop offset="0" stop-color="#C1D8F2"/><stop offset="1" stop-color="#DFEFFF"/></linearGradient><path fill-rule="evenodd" d="M6 2C4.346 2 3 3.346 3 5v9h10V2H6z" fill="url(#c)"/><linearGradient id="d" x1=".5" y1="0" x2=".5" y2="1"><stop offset="0" stop-color="#DFF8FF"/><stop offset="1" stop-color="#FFF"/></linearGradient><path fill-rule="evenodd" d="M6 4.5a2.5 2.5 0 0 0 1 1.993V8h3V6.493c.618-.464 1-1.198 1-1.993C11 3.121 9.879 2 8.5 2A2.503 2.503 0 0 0 6 4.5z" fill="url(#d)"/><linearGradient id="e" x1=".5" y1="0" x2=".5" y2="1"><stop offset="0" stop-color="#FFF"/><stop offset="1" stop-color="#DFEFFF"/></linearGradient><path fill-rule="evenodd" d="M5 10.5C5 12.43 6.57 14 8.5 14s3.5-1.57 3.5-3.5C12 8.571 10.43 7 8.5 7S5 8.571 5 10.5z" fill="url(#e)"/><path fill-rule="evenodd" d="M8 5.908V8.5h1V5.908A1.496 1.496 0 0 0 8.5 3 1.496 1.496 0 1 0 8 5.908z" fill="#0087C9"/><linearGradient id="f" x1=".5" y1=".005" x2=".5" y2="1.01"><stop offset="0" stop-color="#566980"/><stop offset="1" stop-color="#2D3641"/></linearGradient><path fill-rule="evenodd" d="M6 10.5a2.5 2.5 0 1 0 5 0 2.5 2.5 0 1 0-5 0z" fill="url(#f)"/><linearGradient id="g" x1=".5" y1=".01" x2=".5" y2="1.001"><stop offset="0" stop-color="#FFF"/><stop offset="1" stop-color="#A7BADB"/></linearGradient><path fill-rule="evenodd" d="M7.5 10.5a1 1 0 1 0 2 0 1.001 1.001 0 0 0-2 0z" fill="url(#g)"/></svg>