<svg ti:v="1" width="16" height="16" viewBox="0 0 16 16" xmlns="http://www.w3.org/2000/svg" xmlns:ti="urn:schemas-jetbrains-com:tisvg"><rect id="frame" width="16" height="16" fill="none"/><linearGradient id="a" x1=".5" y1=".005" x2=".5" y2="1.01"><stop offset="0" stop-color="#566980"/><stop offset="1" stop-color="#2D3641"/></linearGradient><path fill-rule="evenodd" d="M6 0C3.243 0 1 2.244 1 5v11h14V0H6z" fill="url(#a)"/><linearGradient id="b" x1=".5" y1="0" x2=".5" y2="1"><stop offset="0" stop-color="#FFF"/><stop offset="1" stop-color="#DFEFFF"/></linearGradient><path fill-rule="evenodd" d="M6 1a4 4 0 0 0-4 4v10h12V1H6z" fill="url(#b)"/><linearGradient id="c" x1=".5" y1=".021" x2=".5" y2="1.014"><stop offset="0" stop-color="#C1D8F2"/><stop offset="1" stop-color="#DFEFFF"/></linearGradient><path fill-rule="evenodd" d="M6 2C4.346 2 3 3.346 3 5v9h10V2H6z" fill="url(#c)"/><linearGradient id="d" x1=".5" y1="0" x2=".5" y2="1.007"><stop offset="0" stop-color="#D5EDFF"/><stop offset="1" stop-color="#FFF"/></linearGradient><path fill-rule="evenodd" d="M5 7v.586L4.414 7H3v2.914L6.086 13h.828L10 9.914V10h3V7c0-2.206-1.795-4-4-4-2.206 0-4 1.794-4 4z" fill="url(#d)"/><linearGradient id="e" x1=".5" y1=".013" x2=".5" y2="1"><stop offset="0" stop-color="#133F85"/><stop offset="1" stop-color="#04214D"/></linearGradient><path fill-rule="evenodd" d="M6 7v3L4 8v1.5L6.5 12 9 9.5V8l-2 2V7c0-1.102.898-2 2-2 1.103 0 2 .898 2 2v2h1V7c0-1.65-1.35-3-3-3S6 5.35 6 7z" fill="url(#e)"/></svg>