<svg ti:v="1" width="16" height="16" viewBox="0 0 16 16" xmlns="http://www.w3.org/2000/svg" xmlns:ti="urn:schemas-jetbrains-com:tisvg"><rect id="frame" width="16" height="16" fill="none"/><g fill-rule="evenodd"><path d="M1 16V5c0-2.757 2.243-5 5-5h9v16H1z" fill="#F4F4F4"/><path d="M6 1a4 4 0 0 0-4 4v10h12V1H6z" fill="#313131"/><path d="M3 14V5c0-1.654 1.346-3 3-3h7v12H3z" fill="#EBEBEB"/><path d="M7 8V6.493A2.5 2.5 0 0 1 6 4.5C6 3.121 7.122 2 8.5 2S11 3.121 11 4.5a2.5 2.5 0 0 1-1 1.993V8H7z" fill="#F4F4F4"/><path d="M8.5 14C6.57 14 5 12.43 5 10.5S6.57 7 8.5 7 12 8.57 12 10.5 10.43 14 8.5 14z" fill="#F4F4F4"/><path d="M8 5.908V8.5h1V5.908A1.496 1.496 0 0 0 8.5 3 1.496 1.496 0 1 0 8 5.908z" fill="#313131"/><path d="M11 10.5a2.5 2.5 0 1 0-5 0 2.5 2.5 0 0 0 5 0z" fill="#313131"/><path d="M8.5 11.5a1 1 0 1 0 0-2 1 1 0 0 0 0 2z" fill="#EBEBEB"/></g></svg>