<svg ti:v="1" width="16" height="16" viewBox="0 0 16 16" xmlns="http://www.w3.org/2000/svg" xmlns:ti="urn:schemas-jetbrains-com:tisvg"><rect id="frame" width="16" height="16" fill="none"/><linearGradient id="a" x1=".5" y1=".005" x2=".5" y2="1.01"><stop offset="0" stop-color="#566980"/><stop offset="1" stop-color="#2D3641"/></linearGradient><path fill-rule="evenodd" d="M6 0C3.243 0 1 2.243 1 5v11h14V0H6z" fill="url(#a)"/><linearGradient id="b" x1=".5" y1="0" x2=".5" y2="1"><stop offset="0" stop-color="#FFF"/><stop offset="1" stop-color="#DFEFFF"/></linearGradient><path fill-rule="evenodd" d="M6 1a4 4 0 0 0-4 4v10h12V1H6z" fill="url(#b)"/><linearGradient id="c" x1=".5" y1=".021" x2=".5" y2="1.014"><stop offset="0" stop-color="#C1D8F2"/><stop offset="1" stop-color="#DFEFFF"/></linearGradient><path fill-rule="evenodd" d="M6 2C4.346 2 3 3.345 3 5v9h10V2H6z" fill="url(#c)"/><linearGradient id="d" x1=".5" y1="0" x2=".5" y2="1"><stop offset="0" stop-color="#FFF6E6"/><stop offset="1" stop-color="#FFE6AF"/></linearGradient><path fill-rule="evenodd" d="M7.586 6L5 8.586v.828L7.586 12h.828L11 9.414v-.828L8.414 6h-.828z" fill="url(#d)"/><linearGradient id="e" x1=".5" y1="0" x2=".5" y2="1"><stop offset="0" stop-color="#BA6008"/><stop offset="1" stop-color="#702F00"/></linearGradient><path fill-rule="evenodd" d="M6 9l2 2 2-2-2-2-2 2z" fill="url(#e)"/><linearGradient id="f" x1=".5" y1="0" x2=".5" y2="1"><stop offset="0" stop-color="#DFEFFF"/><stop offset="1" stop-color="#FFF"/></linearGradient><path fill-rule="evenodd" d="M8.5 4v1.915l.401.3C9.932 6.987 10.5 7.976 10.5 9c0 1.024-.568 2.013-1.599 2.785l-.401.3V14h1.241l.216-.111C12.208 12.732 13.5 10.949 13.5 9c0-1.948-1.291-3.73-3.543-4.889L9.742 4M6.257 4l-.215.111C3.791 5.27 2.5 7.052 2.5 9c0 1.949 1.291 3.732 3.543 4.889l.215.111H7.5v-1.915l-.401-.3C6.068 11.013 5.5 10.024 5.5 9c0-1.024.568-2.013 1.599-2.785l.401-.3V4H6.257z" fill="url(#f)"/><linearGradient id="g" x1=".5" y1=".005" x2=".5" y2="1.01"><stop offset="0" stop-color="#132941"/><stop offset="1" stop-color="#214470"/></linearGradient><path fill-rule="evenodd" d="M9.5 5.414c1.236.925 2 2.189 2 3.586 0 1.398-.764 2.661-2 3.586V13c1.827-.939 3-2.381 3-4 0-1.619-1.173-3.06-3-4m-6 4c0 1.619 1.173 3.061 3 4v-.414c-1.236-.925-2-2.188-2-3.586 0-1.397.764-2.661 2-3.586V5c-1.827.94-3 2.381-3 4z" fill="url(#g)"/></svg>