<svg ti:v="1" width="16" height="16" viewBox="0 0 16 16" xmlns="http://www.w3.org/2000/svg" xmlns:ti="urn:schemas-jetbrains-com:tisvg"><rect id="frame" width="16" height="16" fill="none"/><linearGradient id="a" x1=".5" y1=".005" x2=".5" y2="1.01"><stop offset="0" stop-color="#566980"/><stop offset="1" stop-color="#2D3641"/></linearGradient><path fill-rule="evenodd" d="M6 0C3.243 0 1 2.243 1 5v11h14V0H6z" fill="url(#a)"/><linearGradient id="b" x1=".5" y1="0" x2=".5" y2="1"><stop offset="0" stop-color="#FFF"/><stop offset="1" stop-color="#DFEFFF"/></linearGradient><path fill-rule="evenodd" d="M6 1a4 4 0 0 0-4 4v10h12V1H6z" fill="url(#b)"/><linearGradient id="c" x1=".5" y1=".021" x2=".5" y2="1.014"><stop offset="0" stop-color="#C1D8F2"/><stop offset="1" stop-color="#DFEFFF"/></linearGradient><path fill-rule="evenodd" d="M6 2C4.346 2 3 3.346 3 5v9h10V2H6z" fill="url(#c)"/><linearGradient id="d" x1=".5" y1=".016" x2=".5" y2="1.006"><stop offset="0" stop-color="#785F04"/><stop offset="1" stop-color="#443500"/></linearGradient><path fill-rule="evenodd" d="M5 14h7V8H5v6z" fill="url(#d)"/><linearGradient id="e" x1="0" y1=".5" x2="1" y2=".5"><stop offset="0" stop-color="#D6B672"/><stop offset=".319" stop-color="#FDD79C"/><stop offset="1" stop-color="#C36D29"/></linearGradient><path fill-rule="evenodd" d="M6 13h5V8.999H6V13z" fill="url(#e)"/><path fill-rule="evenodd" d="M9 12H8v-2h1v2z" fill="#231F20"/><linearGradient id="f" x1="0" y1=".5" x2="1" y2=".5"><stop offset="0" stop-color="#939597"/><stop offset="1" stop-color="#57585B"/></linearGradient><path fill-rule="evenodd" d="M8 4a2 2 0 0 0-2 2v2h5V6a2 2 0 0 0-2-2H8z" fill="url(#f)"/><path fill-rule="evenodd" d="M9 5H8L7 6v2h1V6h1v2h1V6L9 5z" fill="#FFF"/></svg>