<svg ti:v="1" width="16" height="16" viewBox="0 0 16 16" xmlns="http://www.w3.org/2000/svg" xmlns:ti="urn:schemas-jetbrains-com:tisvg"><rect id="frame" width="16" height="16" fill="none"/><path fill-rule="evenodd" d="M8 10H7v1H6v1h1v1h1v-1h1v-1H8v-1z" fill="#E8A34D"/><path fill-rule="evenodd" d="M8 12H7v-1h1v1z" fill="#292929"/><path fill-rule="evenodd" d="M12 11v-1h-1v1h-1v1h1v1h1v-1h1v-1h-1z" fill="#E8A34D"/><path fill-rule="evenodd" d="M12 12h-1v-1h1v1z" fill="#292929"/><path fill-rule="evenodd" d="M8 6H7v1H6v1h1v1h1V8h1V7H8V6z" fill="#E8A34D"/><path fill-rule="evenodd" d="M8 8H7V7h1v1z" fill="#292929"/><path fill-rule="evenodd" d="M12 7V6h-1v1h-1v1h1v1h1V8h1V7h-1z" fill="#E8A34D"/><path fill-rule="evenodd" d="M12 8h-1V7h1v1z" fill="#292929"/><linearGradient id="a" x1=".5" y1=".005" x2=".5" y2="1.01"><stop offset="0" stop-color="#566980"/><stop offset="1" stop-color="#2D3641"/></linearGradient><path fill-rule="evenodd" d="M6 0C3.243 0 1 2.244 1 5v11h14V0H6z" fill="url(#a)"/><linearGradient id="b" x1=".5" y1="0" x2=".5" y2="1"><stop offset="0" stop-color="#FFF"/><stop offset="1" stop-color="#DFEFFF"/></linearGradient><path fill-rule="evenodd" d="M6 1a4 4 0 0 0-4 4v10h12V1H6z" fill="url(#b)"/><linearGradient id="c" x1=".5" y1=".021" x2=".5" y2="1.014"><stop offset="0" stop-color="#C1D8F2"/><stop offset="1" stop-color="#DFEFFF"/></linearGradient><path fill-rule="evenodd" d="M6 2C4.346 2 3 3.346 3 5v9h10V2H6z" fill="url(#c)"/><path fill-rule="evenodd" d="M9 10H8V9h1m4 0V6h-1V5H9v1H8V5H5v1H4v3h1v1H4v3h1v1h3v-1h1v1h3v-1h1v-3h-1V9h1z" fill="#8F7E00"/><path fill-rule="evenodd" d="M7 10H6v1H5v1h1v1h1v-1h1v-1H7v-1z" fill="#FDFF7F"/><path fill-rule="evenodd" d="M7 12H6v-1h1v1z" fill="#FFF"/><path fill-rule="evenodd" d="M11 11v-1h-1v1H9v1h1v1h1v-1h1v-1h-1z" fill="#FDFF7F"/><path fill-rule="evenodd" d="M11 12h-1v-1h1v1z" fill="#FFF"/><path fill-rule="evenodd" d="M7 6H6v1H5v1h1v1h1V8h1V7H7V6z" fill="#FDFF7F"/><path fill-rule="evenodd" d="M7 8H6V7h1v1z" fill="#FFF"/><path fill-rule="evenodd" d="M11 7V6h-1v1H9v1h1v1h1V8h1V7h-1z" fill="#FDFF7F"/><path fill-rule="evenodd" d="M11 8h-1V7h1v1z" fill="#FFF"/></svg>