<svg ti:v="1" width="16" height="16" viewBox="0 0 16 16" xmlns="http://www.w3.org/2000/svg" xmlns:ti="urn:schemas-jetbrains-com:tisvg"><rect id="frame" width="16" height="16" fill="none"/><linearGradient id="a" x1=".5" y1=".005" x2=".5" y2="1.01"><stop offset="0" stop-color="#566980"/><stop offset="1" stop-color="#2D3641"/></linearGradient><path fill-rule="evenodd" d="M6 0C3.243 0 1 2.243 1 5v11h14V0H6z" fill="url(#a)"/><linearGradient id="b" x1=".5" y1="0" x2=".5" y2="1"><stop offset="0" stop-color="#FFF"/><stop offset="1" stop-color="#DFEFFF"/></linearGradient><path fill-rule="evenodd" d="M6 1a4 4 0 0 0-4 4v10h12V1H6z" fill="url(#b)"/><linearGradient id="c" x1=".5" y1=".021" x2=".5" y2="1.014"><stop offset="0" stop-color="#C1D8F2"/><stop offset="1" stop-color="#DFEFFF"/></linearGradient><path fill-rule="evenodd" d="M6 2C4.346 2 3 3.346 3 5v9h10V2H6z" fill="url(#c)"/><linearGradient id="d" x1=".5" y1="0" x2=".5" y2="1"><stop offset="0" stop-color="#005B93"/><stop offset="1" stop-color="#00134F"/></linearGradient><path fill-rule="evenodd" d="M8.724 3L3 6.434v4.101L6.698 13h.579L13 9.566V5.465L9.302 3h-.578z" fill="url(#d)"/><linearGradient id="e" x1="0" y1=".5" x2=".993" y2=".5"><stop offset="0" stop-color="#33D5FF"/><stop offset="1" stop-color="#009CFF"/></linearGradient><path fill-rule="evenodd" d="M4 10l3 2V9L4 7v3z" fill="url(#e)"/><linearGradient id="f" x1="-.005" y1=".5" x2="1" y2=".5"><stop offset="0" stop-color="#89D7FF"/><stop offset="1" stop-color="#00ACEA"/></linearGradient><path fill-rule="evenodd" d="M7 9v3l5-3V6L7 9z" fill="url(#f)"/><linearGradient id="g" x1="0" y1=".5" x2="1" y2=".5"><stop offset="0" stop-color="#DFF2FF"/><stop offset="1" stop-color="#F9FBFF"/></linearGradient><path fill-rule="evenodd" d="M4 7l3 2 5-3-3-2-5 3z" fill="url(#g)"/><linearGradient id="h" x1=".5" y1="0" x2=".5" y2="1"><stop offset="0" stop-color="#005B93"/><stop offset="1" stop-color="#00134F"/></linearGradient><path fill-rule="evenodd" d="M4.789 7.526L7 9l4.211-2.526L9 5 4.789 7.526z" fill="url(#h)"/></svg>