<svg ti:v="1" width="16" height="16" viewBox="0 0 16 16" xmlns="http://www.w3.org/2000/svg" xmlns:ti="urn:schemas-jetbrains-com:tisvg"><rect id="frame" width="16" height="16" fill="none"/><linearGradient id="a" x1=".5" y1=".005" x2=".5" y2="1.01"><stop offset="0" stop-color="#566980"/><stop offset="1" stop-color="#2D3641"/></linearGradient><path fill-rule="evenodd" d="M6 0C3.243 0 1 2.244 1 5v11h14V0H6z" fill="url(#a)"/><linearGradient id="b" x1=".5" y1="0" x2=".5" y2="1"><stop offset="0" stop-color="#FFF"/><stop offset="1" stop-color="#DFEFFF"/></linearGradient><path fill-rule="evenodd" d="M6 1a4 4 0 0 0-4 4v10h12V1H6z" fill="url(#b)"/><linearGradient id="c" x1=".5" y1=".021" x2=".5" y2="1.014"><stop offset="0" stop-color="#C1D8F2"/><stop offset="1" stop-color="#DFEFFF"/></linearGradient><path fill-rule="evenodd" d="M6 2C4.346 2 3 3.346 3 5v9h10V2H6z" fill="url(#c)"/><linearGradient id="d" x1=".5" y1="0" x2=".5" y2="1"><stop offset="0" stop-color="#FFF6DF"/><stop offset="1" stop-color="#FFF"/></linearGradient><path fill-rule="evenodd" d="M4 9v3h1v2h7v-2h1V9H4z" fill="url(#d)"/><linearGradient id="e" x1=".5" y1="-.009" x2=".5" y2="1"><stop offset="0" stop-color="#B35500"/><stop offset="1" stop-color="#B37300"/></linearGradient><path fill-rule="evenodd" d="M11 11h1v-1h-1m-2 1h1v-1H9m-2 1h1.001v-1H7m-2 1h1v-1H5m5 3h1v-1h-1m-2 1h1v-1H8m-2 1h1v-1H6v1z" fill="url(#e)"/><linearGradient id="f" x1=".5" y1="0" x2=".5" y2="1"><stop offset="0" stop-color="#DFEFFF"/><stop offset="1" stop-color="#FFF"/></linearGradient><path fill-rule="evenodd" d="M7 2v2.586L6.414 4H5v2.914L8.086 10h.828L12 6.914V4h-1.414L10 4.586V2H7z" fill="url(#f)"/><linearGradient id="g" x1=".5" y1=".013" x2=".5" y2="1"><stop offset="0" stop-color="#2F80CE"/><stop offset="1" stop-color="#003A8E"/></linearGradient><path fill-rule="evenodd" d="M8 3v4L6 5v1.5L8.5 9 11 6.5V5L9 7V3H8z" fill="url(#g)"/></svg>