<svg ti:v="1" width="16" height="16" viewBox="0 0 16 16" xmlns="http://www.w3.org/2000/svg" xmlns:ti="urn:schemas-jetbrains-com:tisvg"><rect id="frame" width="16" height="16" fill="none"/><g fill-rule="evenodd"><path d="M1 16V5c0-2.757 2.243-5 5-5h9v16H1z" fill="#F4F4F4"/><path d="M6 1a4 4 0 0 0-4 4v10h12V1H6z" fill="#313131"/><path d="M3 14V5c0-1.654 1.346-3 3-3h7v12H3z" fill="#EBEBEB"/><path d="M9 10H8V9h1m4 0V6h-1V5H9v1H8V5H5v1H4v3h1v1H4v3h1v1h3v-1h1v1h3v-1h1v-3h-1V9h1z" fill="#F4F4F4"/><path d="M7 10H6v1H5v1h1v1h1v-1h1v-1H7v-1z" fill="#C17C1A"/><path d="M7 12H6v-1h1v1z" fill="#EBEBEB"/><path d="M11 11v-1h-1v1H9v1h1v1h1v-1h1v-1h-1z" fill="#C17C1A"/><path d="M11 12h-1v-1h1v1z" fill="#EBEBEB"/><path d="M7 6H6v1H5v1h1v1h1V8h1V7H7V6z" fill="#C17C1A"/><path d="M7 8H6V7h1v1z" fill="#EBEBEB"/><path d="M11 7V6h-1v1H9v1h1v1h1V8h1V7h-1z" fill="#C17C1A"/><path d="M11 8h-1V7h1v1z" fill="#EBEBEB"/></g></svg>