<svg ti:v="1" width="16" height="16" viewBox="0 0 16 16" xmlns="http://www.w3.org/2000/svg" xmlns:ti="urn:schemas-jetbrains-com:tisvg"><rect id="frame" width="16" height="16" fill="none"/><linearGradient id="a" x1=".5" y1=".005" x2=".5" y2="1.01"><stop offset="0" stop-color="#566980"/><stop offset="1" stop-color="#2D3641"/></linearGradient><path fill-rule="evenodd" d="M6 0C3.243 0 1 2.243 1 5v11h14V0H6z" fill="url(#a)"/><linearGradient id="b" x1=".5" y1="0" x2=".5" y2="1"><stop offset="0" stop-color="#FFF"/><stop offset="1" stop-color="#DFEFFF"/></linearGradient><path fill-rule="evenodd" d="M6 1a4 4 0 0 0-4 4v10h12V1H6z" fill="url(#b)"/><linearGradient id="c" x1=".5" y1=".021" x2=".5" y2="1.014"><stop offset="0" stop-color="#C1D8F2"/><stop offset="1" stop-color="#DFEFFF"/></linearGradient><path fill-rule="evenodd" d="M6 2C4.346 2 3 3.346 3 5v9h10V2H6z" fill="url(#c)"/><linearGradient id="d" x1=".5" y1="0" x2=".5" y2=".999"><stop offset="0" stop-color="#4D6890"/><stop offset="1" stop-color="#283852"/></linearGradient><path fill-rule="evenodd" d="M4 13h8V3H4v10z" fill="url(#d)"/><linearGradient id="e" x1=".5" y1=".021" x2=".5" y2="1.006"><stop offset="0" stop-color="#AAEFFF"/><stop offset=".994" stop-color="#60BCFF"/><stop offset="1" stop-color="#60BCFF"/></linearGradient><path fill-rule="evenodd" d="M5 12h5.999V4H5v8z" fill="url(#e)"/><linearGradient id="f" x1=".5" y1="0" x2=".5" y2=".999"><stop offset="0" stop-color="#4D6890"/><stop offset="1" stop-color="#283852"/></linearGradient><path fill-rule="evenodd" d="M6 11h4.5L6 5.5V11z" fill="url(#f)"/><linearGradient id="g" x1=".5" y1=".021" x2=".5" y2="1.014"><stop offset="0" stop-color="#C1D8F2"/><stop offset="1" stop-color="#DFEFFF"/></linearGradient><path fill-rule="evenodd" d="M3.235 3.923L11.633 14H13v-1.641L4.658 2.35a2.97 2.97 0 0 0-1.423 1.573z" fill="url(#g)"/><linearGradient id="h" x1=".5" y1=".004" x2=".5" y2=".982"><stop offset="0" stop-color="#9C6A00"/><stop offset="1" stop-color="#5C4100"/></linearGradient><path fill-rule="evenodd" d="M3.908 3.638l8.219 9.862h.373v-.646L4.381 3.111c-.18.154-.342.328-.473.527z" fill="url(#h)"/></svg>