<svg ti:v="1" width="16" height="16" viewBox="0 0 16 16" xmlns="http://www.w3.org/2000/svg" xmlns:ti="urn:schemas-jetbrains-com:tisvg"><rect id="frame" width="16" height="16" fill="none"/><g fill-rule="evenodd"><path d="M1 16V5c0-2.757 2.243-5 5-5h9v16H1z" fill="#242424"/><path d="M6 1a4 4 0 0 0-4 4v10h12V1H6z" fill="#C3C3C3"/><path d="M3 14V5c0-1.654 1.346-3 3-3h7v12H3z" fill="#292929"/><path d="M11 9.051V4H5.001v5.051A2.503 2.503 0 0 0 3 11.5C3 12.879 4.122 14 5.5 14S8 12.879 8 11.5c0-.485-.145-.935-.386-1.319l.137-.183h.498l.137.183A2.473 2.473 0 0 0 8 11.5c0 1.379 1.122 2.5 2.5 2.5s2.5-1.121 2.5-2.5c0-1.207-.86-2.217-2-2.449z" fill="#242424"/><path d="M10.5 10c-.08 0-.156.012-.232.023L8 7l-2.268 3.023C5.656 10.012 5.58 10 5.5 10a1.5 1.5 0 1 0 .817.244L8 8l1.683 2.244A1.5 1.5 0 1 0 10.5 10z" fill="#C3C3C3"/><path d="M10 8.998H6.001V5H10v3.998z" fill="#C3C3C3"/><path d="M9 8H7V6h2v2z" fill="#292929"/></g></svg>