<svg ti:v="1" width="16" height="16" viewBox="0 0 16 16" xmlns="http://www.w3.org/2000/svg" xmlns:ti="urn:schemas-jetbrains-com:tisvg"><rect id="frame" width="16" height="16" fill="none"/><g fill-rule="evenodd"><path d="M1 16V5c0-2.757 2.243-5 5-5h9v16H1z" fill="#F4F4F4"/><path d="M6 1a4 4 0 0 0-4 4v10h12V1H6z" fill="#313131"/><path d="M3 14V5c0-1.654 1.346-3 3-3h7v12H3z" fill="#EBEBEB"/><path d="M8 10.271l-1.594-1.77L8 6.728 9.594 8.5M13 8.116l-2.805-3.115h-4.39L3 8.116v.768L5.805 12h4.39L13 8.884v-.768z" fill="#F4F4F4"/><path d="M7 10.655L5.061 8.5 7 6.345V6h-.75L4 8.5 6.25 11H7m2-.345L10.939 8.5 9 6.345V6h.75L12 8.5 9.75 11H9v-.345z" fill="#313131"/></g></svg>