<svg ti:v="1" width="16" height="16" viewBox="0 0 16 16" xmlns="http://www.w3.org/2000/svg" xmlns:ti="urn:schemas-jetbrains-com:tisvg"><rect id="frame" width="16" height="16" fill="none"/><linearGradient id="a" x1=".5" y1=".005" x2=".5" y2="1.01"><stop offset="0" stop-color="#566980"/><stop offset="1" stop-color="#2D3641"/></linearGradient><path fill-rule="evenodd" d="M6 0C3.243 0 1 2.243 1 5v11h14V0H6z" fill="url(#a)"/><linearGradient id="b" x1=".5" y1="0" x2=".5" y2="1"><stop offset="0" stop-color="#FFF"/><stop offset="1" stop-color="#DFEFFF"/></linearGradient><path fill-rule="evenodd" d="M6 1a4 4 0 0 0-4 4v10h12V1H6z" fill="url(#b)"/><linearGradient id="c" x1=".5" y1=".021" x2=".5" y2="1.014"><stop offset="0" stop-color="#C1D8F2"/><stop offset="1" stop-color="#DFEFFF"/></linearGradient><path fill-rule="evenodd" d="M6 2C4.346 2 3 3.346 3 5v9h10V2H6z" fill="url(#c)"/><linearGradient id="d" x1=".31" y1=".31" x2=".708" y2=".708"><stop offset="0" stop-color="#9C7733"/><stop offset="1" stop-color="#6D2121"/></linearGradient><path fill-rule="evenodd" d="M4.586 10L1 13.586v.828L2.585 16h.829L7 12.414v-.828L5.414 10h-.828z" fill="url(#d)"/><linearGradient id="e" x1=".375" y1=".375" x2=".625" y2=".625"><stop offset="0" stop-color="#FFDF78"/><stop offset="1" stop-color="#D88C00"/></linearGradient><path fill-rule="evenodd" d="M2 14l1 1 3-3-1-1-3 3z" fill="url(#e)"/><linearGradient id="f" x1=".5" y1=".013" x2=".5" y2="1"><stop offset="0" stop-color="#3C7380"/><stop offset="1" stop-color="#093C6D"/></linearGradient><path fill-rule="evenodd" d="M4 9c0 2.21 1.79 4 4 4s4-1.79 4-4-1.79-4-4-4-4 1.79-4 4z" fill="url(#f)"/><linearGradient id="g" x1=".5" y1=".006" x2=".5" y2="1"><stop offset="0" stop-color="#D5EFFF"/><stop offset="1" stop-color="#73C9FF"/></linearGradient><path fill-rule="evenodd" d="M5 9a3 3 0 1 0 6 0 3 3 0 1 0-6 0z" fill="url(#g)"/><linearGradient id="h" x1=".5" y1=".013" x2=".5" y2="1"><stop offset="0" stop-color="#509EE8"/><stop offset=".736" stop-color="#FFF"/><stop offset="1" stop-color="#FFF"/></linearGradient><path fill-rule="evenodd" d="M6 9a2 2 0 0 0 4 0 2 2 0 0 0-4 0z" fill="url(#h)"/></svg>