<svg ti:v="1" width="16" height="16" viewBox="0 0 16 16" xmlns="http://www.w3.org/2000/svg" xmlns:ti="urn:schemas-jetbrains-com:tisvg"><rect id="frame" width="16" height="16" fill="none"/><linearGradient id="a" x1=".5" y1=".005" x2=".5" y2="1.01"><stop offset="0" stop-color="#566980"/><stop offset="1" stop-color="#2D3641"/></linearGradient><path fill-rule="evenodd" d="M6 0C3.243 0 1 2.243 1 5v11h14V0H6z" fill="url(#a)"/><linearGradient id="b" x1=".5" y1="0" x2=".5" y2="1"><stop offset="0" stop-color="#FFF"/><stop offset="1" stop-color="#DFEFFF"/></linearGradient><path fill-rule="evenodd" d="M6 1a4 4 0 0 0-4 4v10h12V1H6z" fill="url(#b)"/><linearGradient id="c" x1=".5" y1=".021" x2=".5" y2="1.014"><stop offset="0" stop-color="#C1D8F2"/><stop offset="1" stop-color="#DFEFFF"/></linearGradient><path fill-rule="evenodd" d="M6 2C4.346 2 3 3.346 3 5v9h10V2H6z" fill="url(#c)"/><linearGradient id="d" x1=".5" y1="0" x2=".5" y2="1"><stop offset="0" stop-color="#D08E00"/><stop offset="1" stop-color="#A85000"/></linearGradient><path fill-rule="evenodd" d="M7.585 5L4 8.586v.828L7.585 13h.829L12 9.414v-.828L8.414 5h-.829z" fill="url(#d)"/><linearGradient id="e" x1=".5" y1="0" x2=".5" y2="1"><stop offset="0" stop-color="#FFFF80"/><stop offset="1" stop-color="#FFC300"/></linearGradient><path fill-rule="evenodd" d="M5 9l3 3 3-3-3-3-3 3z" fill="url(#e)"/></svg>