<svg ti:v="1" width="16" height="16" viewBox="0 0 16 16" xmlns="http://www.w3.org/2000/svg" xmlns:ti="urn:schemas-jetbrains-com:tisvg"><rect id="frame" width="16" height="16" fill="none"/><g fill-rule="evenodd"><path d="M1 16V5c0-2.757 2.243-5 5-5h9v16H1z" fill="#F4F4F4"/><path d="M6 1a4 4 0 0 0-4 4v10h12V1H6z" fill="#313131"/><path d="M3 14V5c0-1.654 1.346-3 3-3h7v12H3z" fill="#EBEBEB"/><path d="M13 2H7.382L4 8.764V10h2.382L5 12.764V14h1.914L12.5 8.414V6h-2.086L13 3.414V2z" fill="#F4F4F4"/><path d="M11.5 7H8l4-4H8L5 9h3l-2 4h.5l5-5V7z" fill="#C6771A"/></g></svg>