<svg ti:v="1" width="16" height="16" viewBox="0 0 16 16" xmlns="http://www.w3.org/2000/svg" xmlns:ti="urn:schemas-jetbrains-com:tisvg"><rect id="frame" width="16" height="16" fill="none"/><g fill-rule="evenodd"><path d="M1 16V5c0-2.757 2.243-5 5-5h9v16H1z" fill="#F4F4F4"/><path d="M6 1a4 4 0 0 0-4 4v10h12V1H6z" fill="#313131"/><path d="M3 14V5c0-1.654 1.346-3 3-3h7v12H3z" fill="#EBEBEB"/><path d="M13 13H4V4h9v9z" fill="#F4F4F4"/><path d="M7 11H5v1h2m5-1H8v1h4M7 9H5v1h2m5-1H8v1h4M7 5H5v1h2m5 0H8V5h4M7 7H5v1h2m5 0H8V7h4v1z" fill="#00529C"/></g></svg>