<svg ti:v="1" width="16" height="16" viewBox="0 0 16 16" xmlns="http://www.w3.org/2000/svg" xmlns:ti="urn:schemas-jetbrains-com:tisvg"><rect id="frame" width="16" height="16" fill="none"/><g fill-rule="evenodd"><path d="M1 16V5c0-2.757 2.243-5 5-5h9v16H1z" fill="#F4F4F4"/><path d="M6 1a4 4 0 0 0-4 4v10h12V1H6z" fill="#313131"/><path d="M3 14V5c0-1.654 1.346-3 3-3h7v12H3z" fill="#EBEBEB"/><path d="M5 14v-2H4V9h9v3h-1v2H5z" fill="#F4F4F4"/><path d="M8 13h1v-1H8m3 0h-1v1h1m-1-3H9v1h1m2-1h-1v1h1m-6-1H5v1h1m1 1H6v1h1m1-3H7v1h1v-1z" fill="#313131"/><path d="M10.586 4L10 4.586V2H7v2.586L6.414 4H5v2.914L8.086 10h.828L12 6.914V4h-1.414z" fill="#F4F4F4"/><path d="M9 7V3H8v4L6 5v1.5L8.5 9 11 6.5V5L9 7z" fill="#00529C"/></g></svg>