<svg ti:v="1" width="16" height="16" viewBox="0 0 16 16" xmlns="http://www.w3.org/2000/svg" xmlns:ti="urn:schemas-jetbrains-com:tisvg"><rect id="frame" width="16" height="16" fill="none"/><g fill-rule="evenodd"><path d="M1 16V5c0-2.757 2.243-5 5-5h9v16H1z" fill="#F4F4F4"/><path d="M6 1a4 4 0 0 0-4 4v10h12V1H6z" fill="#313131"/><path d="M3 14V5c0-1.654 1.346-3 3-3h7v12H3z" fill="#EBEBEB"/><path d="M13 6h-1.126A4.01 4.01 0 0 0 8 3a3.968 3.968 0 0 0-3.42 1.946l-.517.859.755.452L3 8.438V11h1.126A4.01 4.01 0 0 0 8 14a3.968 3.968 0 0 0 3.42-1.946l.517-.859-.755-.452L13 8.562V6z" fill="#F4F4F4"/><path d="M3 10l2.5-3L8 10H6a1.994 1.994 0 1 0 3.709 1.025l.854.513A2.988 2.988 0 0 1 8 13a3 3 0 0 1-3-3H3z" fill="#00529C"/><path d="M11 7a3 3 0 0 0-3-3c-1.092 0-2.039.59-2.563 1.462l.854.513A1.994 1.994 0 0 1 10 7H8l2.5 3L13 7h-2z" fill="#00529C"/></g></svg>