<svg ti:v="1" width="16" height="16" viewBox="0 0 16 16" xmlns="http://www.w3.org/2000/svg" xmlns:ti="urn:schemas-jetbrains-com:tisvg"><rect id="frame" width="16" height="16" fill="none"/><g fill-rule="evenodd"><path d="M0 4a4 4 0 0 0 4 4V0a4 4 0 0 0-4 4z" fill="#242424"/><path d="M8 4a4 4 0 0 0-4-4v8a4 4 0 0 0 4-4z" fill="#242424"/><path d="M1 4c0 1.656 1.344 3 3 3V1C2.344 1 1 2.344 1 4z" fill="#C3C3C3"/><path d="M7 4c0-1.656-1.344-3-3-3v6c1.656 0 3-1.344 3-3z" fill="#C3C3C3"/><path d="M2 4a2 2 0 0 0 2 2V2a2 2 0 0 0-2 2z" fill="#C3C3C3"/><path d="M6 4a2 2 0 0 0-2-2v4a2 2 0 0 0 2-2z" fill="#282828"/></g></svg>