<svg ti:v="1" width="16" height="16" viewBox="0 0 16 16" xmlns="http://www.w3.org/2000/svg" xmlns:ti="urn:schemas-jetbrains-com:tisvg"><rect id="frame" width="16" height="16" fill="none"/><linearGradient id="a" x1=".5" y1=".005" x2=".5" y2="1.01"><stop offset="0" stop-color="#566980"/><stop offset="1" stop-color="#2D3641"/></linearGradient><path fill-rule="evenodd" d="M6 0C3.243 0 1 2.243 1 5v11h14V0H6z" fill="url(#a)"/><linearGradient id="b" x1=".5" y1="0" x2=".5" y2="1"><stop offset="0" stop-color="#FFF"/><stop offset="1" stop-color="#DFEFFF"/></linearGradient><path fill-rule="evenodd" d="M6 1a4 4 0 0 0-4 4v10h12V1H6z" fill="url(#b)"/><linearGradient id="c" x1=".5" y1=".021" x2=".5" y2="1.014"><stop offset="0" stop-color="#C1D8F2"/><stop offset="1" stop-color="#DFEFFF"/></linearGradient><path fill-rule="evenodd" d="M6 2C4.346 2 3 3.345 3 5v9h10V2H6z" fill="url(#c)"/><linearGradient id="d" x1=".5" y1="0" x2=".5" y2="1"><stop offset="0" stop-color="#DFEFFF"/><stop offset="1" stop-color="#FFF"/></linearGradient><path fill-rule="evenodd" d="M4.58 4.946l-.517.859.754.452L3 8.438V11h1.126A4.01 4.01 0 0 0 8 14a3.972 3.972 0 0 0 3.421-1.946l.515-.859-.754-.452L13 8.562V6h-1.127A4.008 4.008 0 0 0 8 3a3.966 3.966 0 0 0-3.42 1.946z" fill="url(#d)"/><linearGradient id="e" x1=".5" y1=".013" x2=".5" y2="1"><stop offset="0" stop-color="#4473BC"/><stop offset="1" stop-color="#04214D"/></linearGradient><path fill-rule="evenodd" d="M3 10h2a3 3 0 0 0 3 3c1.092 0 2.038-.59 2.563-1.462l-.854-.513C9.359 11.606 8.728 12 8 12a2 2 0 0 1-2-2h2L5.5 7 3 10z" fill="url(#e)"/><linearGradient id="f" x1=".5" y1=".004" x2=".5" y2=".982"><stop offset="0" stop-color="#5C4100"/><stop offset="1" stop-color="#9C6A00"/></linearGradient><path fill-rule="evenodd" d="M5.437 5.462l.854.512C6.641 5.394 7.272 5 8 5a2 2 0 0 1 2 2H8l2.5 3L13 7h-2a3 3 0 0 0-3-3c-1.093 0-2.039.59-2.563 1.462z" fill="url(#f)"/></svg>