<svg ti:v="1" width="16" height="16" viewBox="0 0 16 16" xmlns="http://www.w3.org/2000/svg" xmlns:ti="urn:schemas-jetbrains-com:tisvg"><rect id="frame" width="16" height="16" fill="none"/><linearGradient id="a" x1=".5" y1=".005" x2=".5" y2="1.01"><stop offset="0" stop-color="#566980"/><stop offset="1" stop-color="#2D3641"/></linearGradient><path fill-rule="evenodd" d="M6 0C3.243 0 1 2.243 1 5v11h14V0H6z" fill="url(#a)"/><linearGradient id="b" x1=".5" y1="0" x2=".5" y2="1"><stop offset="0" stop-color="#FFF"/><stop offset="1" stop-color="#DFEFFF"/></linearGradient><path fill-rule="evenodd" d="M6 1a4 4 0 0 0-4 4v10h12V1H6z" fill="url(#b)"/><linearGradient id="c" x1=".5" y1=".021" x2=".5" y2="1.014"><stop offset="0" stop-color="#C1D8F2"/><stop offset="1" stop-color="#DFEFFF"/></linearGradient><path fill-rule="evenodd" d="M6 2C4.346 2 3 3.346 3 5v9h10V2H6z" fill="url(#c)"/><linearGradient id="d" x1=".5" y1="0" x2=".5" y2="1"><stop offset="0" stop-color="#FFF2DF"/><stop offset="1" stop-color="#FFF"/></linearGradient><path fill-rule="evenodd" d="M11 4v3H9v5H6v2h5V9h2V4h-2z" fill="url(#d)"/><linearGradient id="e" x1=".5" y1="0" x2=".5" y2="1"><stop offset="0" stop-color="#DFEFFF"/><stop offset="1" stop-color="#FFF"/></linearGradient><path fill-rule="evenodd" d="M3.781 3A2.977 2.977 0 0 0 3 5v2h2v5h4V7h2V3H3.781z" fill="url(#e)"/><linearGradient id="f" x1=".5" y1=".013" x2=".5" y2="1"><stop offset="0" stop-color="#094093"/><stop offset="1" stop-color="#5D90DD"/></linearGradient><path fill-rule="evenodd" d="M4 4v2h2v5h2V6h2V4H4z" fill="url(#f)"/><linearGradient id="g" x1=".5" y1=".004" x2=".5" y2=".982"><stop offset="0" stop-color="#6A4100"/><stop offset="1" stop-color="#B37A00"/></linearGradient><path fill-rule="evenodd" d="M11 5v2H9v5H7v1h3V8h2V5h-1z" fill="url(#g)"/></svg>