<svg xmlns="http://www.w3.org/2000/svg" width="60" height="60" viewBox="0 0 60 60"><rect id="frame" width="60" height="60" fill="none"/><path fill="#9AA7B0" d="M52.02 5H7.98A2.98 2.98 0 0 0 5 7.981v16.668l9.43-2.622 7.012 2.743.09-.208s-3.547-1.833-5.447-2.872c-1.9-1.038-4.504-3.315-4.504-5.82 0-1.516 1.568-3.436 2.357-4.181L26.5 13.022l.09-.181-6.105-1.514s2.198-1.056 6.113-1.056c5.23 0 14.479 1.543 15.91 2.977 1.051 1.05 2.816 6.797 2.816 9.64 0 1.97-.614 2.051-1.145 2.051-2.157 0-8.392-1.449-8.529-1.482l-.03.172 7.28 2.519s2.193 4.933 2.193 10.881c0 1.881-.187 3.648-.707 5.27 0 0-5.525-2.551-9.84-8.385l-.1.036c3.576 7.475 9.287 10.241 9.287 10.241s-2.008 5.56-3.282 6.835L19.68 42.095 9.134 55H52.02A2.98 2.98 0 0 0 55 52.019V7.981A2.98 2.98 0 0 0 52.02 5" fill-rule="evenodd" opacity=".7"/></svg>