<svg xmlns="http://www.w3.org/2000/svg" width="60" height="60" viewBox="0 0 60 60"><rect id="frame" width="60" height="60" fill="none"/><path fill="#40B6E0" d="M35.827 30.49l6.815 11.556a.965.965 0 0 1-.83 1.454h-3.299a.966.966 0 0 1-.832-.474L30.29 30.49a.96.96 0 0 1 0-.98l7.392-12.535a.967.967 0 0 1 .832-.475h3.298a.966.966 0 0 1 .831 1.454L35.827 29.51a.964.964 0 0 0 0 .979m-6.116 0l-7.393 12.536a.964.964 0 0 1-.83.474h-3.3a.965.965 0 0 1-.83-1.454l6.815-11.556a.969.969 0 0 0 0-.98l-6.816-11.556a.968.968 0 0 1-.007-.968.967.967 0 0 1 .838-.486h3.3c.341 0 .656.18.83.475l7.393 12.536a.96.96 0 0 1 0 .979m26.72-2.702L45.052 7.213C44.295 5.843 42.894 5 41.382 5H18.618c-1.514 0-2.914.844-3.67 2.213L3.568 27.788a4.59 4.59 0 0 0 0 4.425l11.38 20.575c.756 1.369 2.156 2.212 3.67 2.212h22.762c1.513 0 2.914-.843 3.671-2.212l11.38-20.575a4.59 4.59 0 0 0 0-4.425" fill-rule="evenodd" opacity=".7"/></svg>