<svg xmlns="http://www.w3.org/2000/svg" width="60" height="60" viewBox="0 0 60 60"><rect id="frame" width="60" height="60" fill="none"/><g fill="#B99BF8" fill-rule="evenodd"><path d="M39.795 42.348c0 .23-.02.41-.04.52h-3.258c.03.88.72 1.26 1.499 1.26.57 0 .98-.08 1.35-.22l.179.85c-.42.17-1 .298-1.7.298-1.578 0-2.508-.969-2.508-2.458 0-1.35.82-2.619 2.379-2.619 1.579 0 2.099 1.3 2.099 2.37zm-5.01-1.18a1.692 1.692 0 0 0-.36-.04c-.59 0-.988.38-1.1.93-.018.11-.04.24-.04.38v2.518h-1.228v-3.298c0-.66-.01-1.129-.04-1.569h1.07l.04.93h.039c.24-.69.81-1.04 1.33-1.04.119 0 .19.01.289.03v1.16zm-6.34 3.898c-1.378 0-2.437-.949-2.437-2.509 0-1.598 1.05-2.578 2.518-2.578 1.45 0 2.419 1.02 2.419 2.5 0 1.788-1.26 2.587-2.5 2.587zm-4.61-1.029c.5 0 1.02-.1 1.34-.25l.2.97c-.29.15-.93.3-1.74.3-2.138 0-3.438-1.34-3.438-3.389 0-2.218 1.54-3.558 3.599-3.558.81 0 1.389.17 1.639.3l-.27.98c-.32-.14-.76-.26-1.32-.26-1.368 0-2.358.86-2.358 2.478 0 1.48.87 2.43 2.349 2.43zm-11.852-9.45c-.882 0-1.487-.68-1.487-1.587 0-.932.63-1.588 1.512-1.588s1.486.656 1.486 1.588c0 .907-.58 1.587-1.511 1.587zM29 34h6.823l12.562 12.5v1.885A25.919 25.919 0 0 1 30 56C15.64 56 4 44.36 4 30c0-7.18 2.91-13.68 7.615-18.385H13.5l11.556 11.728v1.933c0 2.337.047 4.161.237 6.164l-.048.023c-.76-1.536-1.683-3.116-2.87-4.874L17.253 19H15v15h1.944v-6.41c0-2.492-.046-4.295-.166-6.187l.072-.022c.806 1.625 1.874 3.34 2.988 5.008L24.913 34H27v-8.96l2 1.745V34zm2.2-5.296l3.205 3.671h-3.339v-3.787l.133.116z" opacity=".7"/><path d="M28.497 40.879c-.87 0-1.22.839-1.22 1.649 0 .939.46 1.649 1.21 1.649.7 0 1.19-.69 1.19-1.67 0-.758-.34-1.628-1.18-1.628" opacity=".7"/><path d="M37.626 40.819c-.759 0-1.079.689-1.129 1.189h2.139c.01-.45-.19-1.19-1.01-1.19" opacity=".7"/><path d="M45.42 20.647V34h-1.862V20.647h-4.34V19h10.563v1.647h-4.36zM30 4c-7.18 0-13.68 2.91-18.385 7.615l13.44 13.44V19H27v8l2 2V19h8.644v1.625h-6.577v4.74h6.22v1.602h-6.22v4.099l1.308 1.31H38V34h-4l14.385 14.385A25.919 25.919 0 0 0 56 30C56 15.641 44.359 4 30 4z"/></g></svg>