<svg xmlns="http://www.w3.org/2000/svg" width="40" height="40" viewBox="0 0 40 40"><rect id="frame" width="40" height="40" fill="none"/><g fill="none"><path fill="#2266CF" d="M4 4h15.721v17.95z"/><path fill="#64B8FF" d="M19.721 4l9.113 10.439-.433.502h-8.696z"/><path fill="#248BF5" d="M25.24 10.307l1.723-1.466h5.444v1.536l-3.573 4.062z"/><path fill="#2266CF" d="M32.407 8.841l1.333.007-1.333 1.529z"/><path fill="#E3F3FF" d="M32.407 10.377l-4.006 4.564h4.003z"/><path fill="#91CCFF" d="M32.404 14.941H19.705v10.593z"/><path fill="#248BF5" d="M19.721 21.95v3.588h-1.962v-1.796l-2.135 1.744v-3.16l-3.846 3.16v-1.765l-2.187 1.765H6.78l9.341-7.64z"/><path fill="#64B8FF" d="M9.591 25.486l2.187-1.765v1.765l3.846-3.16v3.16l2.135-1.744v1.796z"/><path fill="#64B8FF" d="M23.972 21.956l6.626-5.484 4.766 5.474z"/><path fill="#2266CF" d="M21.495 24.004l2.477-2.048h11.382v17.903z"/></g></svg>