<svg width="16" height="16" viewBox="0 0 16 16" fill="none" xmlns="http://www.w3.org/2000/svg">
<path d="M16 0H0V16H16V0Z" fill="#6B57FF"/>
<path d="M15 1H1V15H15V1Z" fill="black"/>
<path d="M9 12H3V13H9V12Z" fill="white"/>
<path d="M8.19995 8.09999L8.99995 7.19999C9.49995 7.59999 10.1 7.89999 10.8 7.89999C11.3 7.89999 11.7 7.69999 11.7 7.29999C11.7 6.99999 11.5 6.79999 10.5 6.49999C9.29995 6.19999 8.49995 5.89999 8.49995 4.69999C8.49995 3.59999 9.39995 2.89999 10.6 2.89999C11.5 2.89999 12.2 3.19999 12.8 3.69999L12.1 4.69999C11.6 4.29999 11 4.09999 10.5 4.09999C9.99995 4.09999 9.69995 4.29999 9.69995 4.59999C9.69995 4.99999 9.99995 5.09999 11 5.39999C12.3 5.69999 13 6.19999 13 7.19999C13 8.39999 12.1 9.09999 10.8 9.09999C9.89995 9.09999 8.99995 8.79999 8.19995 8.09999Z" fill="white"/>
<path d="M3 3H5.4C6.8 3 7.6 3.8 7.6 5.1C7.6 6.5 6.5 7.2 5.2 7.2H4.2V9H3V3ZM5.3 6C5.9 6 6.3 5.6 6.3 5.1C6.3 4.5 5.9 4.2 5.3 4.2H4.3V6H5.3Z" fill="white"/>
<path fill-rule="evenodd" clip-rule="evenodd" d="M3 16H16V10H3V16Z" fill="#D99E2B"/>
<path fill-rule="evenodd" clip-rule="evenodd" d="M4 11H7V11.64H4.8V12.6H6.5V13.24H4.8V14.36H6.998V15H4V11Z" fill="black"/>
<path fill-rule="evenodd" clip-rule="evenodd" d="M14.2 12.3672C14.2 12.7632 14.0134 13.0672 13.5554 13.0672H12.8V11.6328H13.4364C13.9834 11.6328 14.16 11.8672 14.2 12.2328V12.3672ZM11.9974 11V15H12.8V13.7H13.3954C14.3114 13.7144 15.0004 13.116 15.0004 12.4336V12.268C15.0004 11.528 14.3694 11 13.5474 11H11.9974Z" fill="black"/>
<path fill-rule="evenodd" clip-rule="evenodd" d="M9.85453 11H9.14647L7.36169 15H8.12852L8.54223 14.0519H10.4212L10.835 15H11.6384L9.85453 11ZM8.86404 13.3705L9.50209 11.9083L10.1747 13.3705H8.86404Z" fill="black"/>
</svg>