<svg width="12" height="12" viewBox="0 0 12 12" fill="none" xmlns="http://www.w3.org/2000/svg">
<path fill-rule="evenodd" clip-rule="evenodd" d="M10 0H0V10H4.25606C4.09023 9.53083 4 9.02595 4 8.5C4 6.01472 6.01472 4 8.5 4C9.02595 4 9.53083 4.09023 10 4.25606V0Z" fill="#40B6E0" fill-opacity="0.6"/>
<path fill-rule="evenodd" clip-rule="evenodd" d="M8.40002 4.94785C6.46802 4.94785 4.90002 6.51585 4.90002 8.44785C4.90002 10.3798 6.46802 11.9478 8.40002 11.9478C10.332 11.9478 11.9 10.3798 11.9 8.44785C11.9 6.51585 10.332 4.94785 8.40002 4.94785ZM8.05002 11.2233C6.66752 11.0518 5.60002 9.87585 5.60002 8.44785C5.60002 8.23085 5.62802 8.02435 5.67352 7.82135L7.35002 9.49785V9.84785C7.35002 10.2328 7.66502 10.5478 8.05002 10.5478V11.2233ZM10.465 10.3343C10.374 10.0508 10.115 9.84785 9.80002 9.84785H9.45002V8.79785C9.45002 8.60535 9.29252 8.44785 9.10002 8.44785H7.00002V7.74785H7.70002C7.89252 7.74785 8.05002 7.59035 8.05002 7.39785V6.69785H8.75002C9.13502 6.69785 9.45002 6.38285 9.45002 5.99785V5.85435C10.4755 6.27085 11.2 7.27535 11.2 8.44785C11.2 9.17585 10.92 9.83735 10.465 10.3343Z" fill="#9AA7B0"/>
</svg>
