<svg width="32" height="32" viewBox="0 0 32 32" fill="none" xmlns="http://www.w3.org/2000/svg"><rect id="frame" width="32" height="32" fill="none"/><path d="M24.467 32L32 12.033 19 9l5.467 23z" fill="#087CFA"/><path d="M31.9 25.667L24.467 32 13.8 29.267l18.1-3.6z" fill="url(#paint0_linear)"/><path d="M4 14.667L.567 4.933l17-4.933L4 14.667z" fill="url(#paint1_linear)"/><path d="M27.933 18.533L23.167 10.4l.066-.067L17.567 0 0 18.967V32l31.9-6.333-3.967-7.134z" fill="url(#paint2_linear)"/><path d="M26 6H6v20h20V6z" fill="url(#paint3_linear)"/><path d="M16 23H8v1h8v-1z" fill="#fff"/><path d="M15.7 12.058C15.7 9.855 17.268 8 19.62 8c1.456 0 2.24.464 3.024 1.16l-1.008 1.275c-.56-.58-1.12-.928-1.904-.928-1.232 0-2.24 1.044-2.24 2.435s.896 2.435 2.24 2.435c.896 0 1.344-.348 2.016-.928l1.008 1.16C21.86 15.536 20.964 16 19.508 16c-2.24 0-3.808-1.74-3.808-3.942z" fill="#fff"/><path d="M11.167 8.12h1.5l3.2 7.77h-1.7l-.667-1.727h-3.167l-.666 1.727H8l3.167-7.77zm1.7 4.524l-1-2.521-1 2.52h2z" fill="#fff"/><defs><linearGradient id="paint0_linear" x1="13.815" y1="28.834" x2="31.907" y2="28.834" gradientUnits="userSpaceOnUse"><stop offset=".194" stop-color="#07C3F2"/><stop offset=".903" stop-color="#087CFA"/></linearGradient><linearGradient id="paint1_linear" x1=".582" y1="7.331" x2="17.559" y2="7.331" gradientUnits="userSpaceOnUse"><stop offset=".194" stop-color="#07C3F2"/><stop offset=".903" stop-color="#087CFA"/></linearGradient><linearGradient id="paint2_linear" x1="20.972" y1="33.016" x2="5.119" y2="10.891" gradientUnits="userSpaceOnUse"><stop offset=".091" stop-color="#21D789"/><stop offset=".484" stop-color="#07C3F2"/><stop offset=".903" stop-color="#087CFA"/></linearGradient><linearGradient id="paint3_linear" x1="15.973" y1="1.139" x2="15.973" y2="19.075" gradientUnits="userSpaceOnUse"><stop offset=".084" stop-color="#878585"/><stop offset=".538"/></linearGradient></defs></svg>