<svg width="70" height="70" viewBox="0 0 70 70" fill="none" xmlns="http://www.w3.org/2000/svg"><rect id="frame" width="70" height="70" fill="none"/><path d="M53.52 70L70 26.323l-28.438-6.636L53.522 70z" fill="#087CFA"/><path d="M69.781 56.146L53.521 70l-23.334-5.98 39.594-7.874z" fill="url(#paint0_linear)"/><path d="M8.75 32.083L1.24 10.792 38.427 0 8.75 32.083z" fill="url(#paint1_linear)"/><path d="M61.104 40.542L50.677 22.75l.146-.146L38.427 0 0 41.49V70l69.781-13.854-8.677-15.604z" fill="url(#paint2_linear)"/><path d="M56 14H14v42h42V14z" fill="url(#paint3_linear)"/><path d="M34.417 48.65h-15.75v2.683h15.75V48.65z" fill="#fff"/><path d="M24.8 19.13h3.125l6.67 15.63H31.05l-1.389-3.473h-6.6l-1.389 3.473H18.2l6.6-15.63zm3.542 9.1l-2.084-5.07-2.084 5.07h4.168z" fill="#fff"/><path d="M34.6 27.067c0-4.434 3.267-8.167 8.167-8.167 3.033 0 4.666.933 6.3 2.333l-2.1 2.567C45.8 22.633 44.633 21.933 43 21.933c-2.567 0-4.667 2.1-4.667 4.9 0 2.8 1.867 4.9 4.667 4.9 1.867 0 2.8-.7 4.2-1.866l2.1 2.333c-1.867 1.867-3.733 2.8-6.767 2.8-4.666 0-7.933-3.5-7.933-7.933z" fill="#fff"/><defs><linearGradient id="paint0_linear" x1="30.221" y1="63.074" x2="69.796" y2="63.074" gradientUnits="userSpaceOnUse"><stop offset=".194" stop-color="#07C3F2"/><stop offset=".903" stop-color="#087CFA"/></linearGradient><linearGradient id="paint1_linear" x1="1.274" y1="16.036" x2="38.41" y2="16.036" gradientUnits="userSpaceOnUse"><stop offset=".194" stop-color="#07C3F2"/><stop offset=".903" stop-color="#087CFA"/></linearGradient><linearGradient id="paint2_linear" x1="45.876" y1="72.222" x2="11.197" y2="23.824" gradientUnits="userSpaceOnUse"><stop offset=".091" stop-color="#21D789"/><stop offset=".484" stop-color="#07C3F2"/><stop offset=".903" stop-color="#087CFA"/></linearGradient><linearGradient id="paint3_linear" x1="34.944" y1="3.792" x2="34.944" y2="41.458" gradientUnits="userSpaceOnUse"><stop offset=".084" stop-color="#878585"/><stop offset=".538"/></linearGradient></defs></svg>