<svg xmlns="http://www.w3.org/2000/svg" width="13" height="13" viewBox="0 0 13 13"><rect id="frame" width="13" height="13" fill="none"/><path fill="#6E6E6E" fill-rule="evenodd" d="M12.905 8.24a1.022 1.022 0 0 1 .035.4.83.83 0 0 1-.158.4.807.807 0 0 1-.35.26l-6.441 2.526a1.29 1.29 0 0 1-.469.088h-.054a1.335 1.335 0 0 1-1.002-.538 1.46 1.46 0 0 1-1.361.99h-.057a1.31 1.31 0 0 1-.953-.457 1.247 1.247 0 0 1-.256-.496L.064 4.673a.81.81 0 0 1 .012-.436.894.894 0 0 1 .21-.35c.097-.1.209-.176.33-.236.12-.057.254-.098.394-.118a1.414 1.414 0 0 1 .976.201.695.695 0 0 1-.004-.294.724.724 0 0 1 .167-.327.867.867 0 0 1 .273-.204c.102-.05.215-.084.328-.099a1.117 1.117 0 0 1 .346 0c.112.017.219.047.321.091.03.014.057.03.085.046a.627.627 0 0 1 .137-.364.722.722 0 0 1 .242-.19.911.911 0 0 1 .404-.089 1.09 1.09 0 0 1 .523.14.566.566 0 0 1 .306-.371.76.76 0 0 1 .348-.078.876.876 0 0 1 .261.04.532.532 0 0 1 .05-.097.528.528 0 0 1 .197-.17.618.618 0 0 1 .3-.07c.046 0 .087.003.126.01l.046.01c.05-.07.11-.115.169-.147a.569.569 0 0 1 .276-.067.664.664 0 0 1 .267.054.625.625 0 0 1 .295.242l.648 1.037.018-.005 1.615-.259a.561.561 0 0 1 .191 0c.07.01.128.029.173.048a.658.658 0 0 1 .281.22c.034.05.07.103.092.199a.492.492 0 0 1 .012.107l-.003.031a.724.724 0 0 1 .257.221.554.554 0 0 1 .091.477l.04.015c.07.03.136.067.197.114.07.052.131.114.186.189a.73.73 0 0 1 .107.227l.002.008.002.008a.541.541 0 0 1-.04.374c.024.016.049.032.072.05.072.056.14.124.193.2.065.087.111.182.136.283a.67.67 0 0 1 .007.303l-.001.003-.003.01a.617.617 0 0 1-.094.205l.01.003a1.28 1.28 0 0 1 .517.424c.066.096.116.199.148.313a.838.838 0 0 1 .018.348.708.708 0 0 1-.221.395l.012.005a1.466 1.466 0 0 1 .617.514c.083.122.14.249.176.373zm-.35.014a.894.894 0 0 0-.125-.263 1.076 1.076 0 0 0-.455-.38.854.854 0 0 0-.261-.074.591.591 0 0 0-.247.025L5.208 9.66a.876.876 0 0 0-.6.783.937.937 0 0 0 .892.997.892.892 0 0 0 .368-.062l6.442-2.526a.42.42 0 0 0 .185-.138.44.44 0 0 0 .081-.211.61.61 0 0 0-.021-.25zM2.009 4.232a.487.487 0 0 0-.129-.199.696.696 0 0 0-.214-.142.998.998 0 0 0-.274-.077 1.095 1.095 0 0 0-.595.09.753.753 0 0 0-.217.153.516.516 0 0 0-.123.202.423.423 0 0 0-.007.228l1.774 6.737a.88.88 0 0 0 .477.576.94.94 0 0 0 .375.091 1.04 1.04 0 0 0 .757-.284c.097-.09.177-.197.234-.314.057-.114.093-.237.103-.363a.925.925 0 0 0-.046-.372L2.01 4.232zm9.08 1.847L6.256 7.43a.6.6 0 0 0-.221.112.542.542 0 0 0-.2.41.6.6 0 0 0 .051.25.78.78 0 0 0 .642.447.695.695 0 0 0 .27-.03l4.942-1.58a.34.34 0 0 0 .151-.096.319.319 0 0 0 .07-.15.416.416 0 0 0-.01-.183.66.66 0 0 0-.094-.194.87.87 0 0 0-.358-.291.738.738 0 0 0-.212-.058.51.51 0 0 0-.198.012zm-2.934-2.72a.31.31 0 0 0 .233.067l1.633-.28a.123.123 0 0 0 .056-.022.076.076 0 0 0 .032-.04.091.091 0 0 0 .002-.053.156.156 0 0 0-.028-.058.268.268 0 0 0-.054-.053.324.324 0 0 0-.217-.063l-1.62.26a.169.169 0 0 0-.065.024.113.113 0 0 0-.038.042.096.096 0 0 0-.01.056c.002.02.01.04.023.063.013.021.032.04.053.058zM5.457 6.443a.5.5 0 0 0 .116.161.643.643 0 0 0 .584.155.474.474 0 0 0 .175-.084.39.39 0 0 0 .11-.134.358.358 0 0 0 .036-.162.407.407 0 0 0-.043-.176l-1.63-3.348a.36.36 0 0 0-.093-.117.563.563 0 0 0-.14-.087.693.693 0 0 0-.35-.051.547.547 0 0 0-.16.046.341.341 0 0 0-.111.086.242.242 0 0 0-.05.114.235.235 0 0 0 .02.13l1.536 3.467zm-.394 2.403a.748.748 0 0 0 .247-.133.643.643 0 0 0 .16-.202.585.585 0 0 0 .013-.494l-1.92-4.593a.434.434 0 0 0-.11-.153.656.656 0 0 0-.176-.113.844.844 0 0 0-.67.002.484.484 0 0 0-.156.114.32.32 0 0 0-.068.324l1.74 4.814a.68.68 0 0 0 .145.233.777.777 0 0 0 .504.233.793.793 0 0 0 .291-.032zm2.46-4.091a.216.216 0 0 0-.095.197c.003.04.015.08.039.123.022.042.055.08.092.114.04.032.082.06.13.08a.514.514 0 0 0 .295.036l2.875-.656a.22.22 0 0 0 .096-.046.17.17 0 0 0 .047-.079.195.195 0 0 0 0-.097.358.358 0 0 0-.053-.108.456.456 0 0 0-.098-.098.502.502 0 0 0-.246-.107.363.363 0 0 0-.125.003l-2.838.587a.314.314 0 0 0-.119.05zm-1.004.372a.394.394 0 0 0 .091.115.537.537 0 0 0 .282.125.48.48 0 0 0 .155-.006.342.342 0 0 0 .126-.056.253.253 0 0 0 .078-.092.237.237 0 0 0 .023-.115.289.289 0 0 0-.038-.124L5.878 2.487a.33.33 0 0 0-.077-.091.5.5 0 0 0-.244-.105.496.496 0 0 0-.137-.003.376.376 0 0 0-.12.035.23.23 0 0 0-.08.065.164.164 0 0 0-.031.087.186.186 0 0 0 .023.1l1.307 2.55zm.621-1.09c.016.03.041.057.069.081a.433.433 0 0 0 .207.091.372.372 0 0 0 .11-.002.247.247 0 0 0 .092-.037.174.174 0 0 0 .055-.062.158.158 0 0 0 .015-.08.215.215 0 0 0-.03-.086L6.597 2.14a.337.337 0 0 0-.146-.119.479.479 0 0 0-.1-.029.356.356 0 0 0-.104-.002.24.24 0 0 0-.086.025.142.142 0 0 0-.057.048.115.115 0 0 0-.02.064c0 .023.006.049.02.074L7.14 4.036zm.812-.278a.23.23 0 0 0-.088.033.175.175 0 0 0-.052.06.14.14 0 0 0-.014.077.207.207 0 0 0 .03.087c.018.03.041.056.07.08a.408.408 0 0 0 .203.089.343.343 0 0 0 .11-.003l2.152-.417a.167.167 0 0 0 .073-.032.13.13 0 0 0 .038-.056.138.138 0 0 0 .001-.07.226.226 0 0 0-.037-.078.34.34 0 0 0-.071-.072.403.403 0 0 0-.189-.08.282.282 0 0 0-.094 0l-2.132.382zm-.36-.45a.226.226 0 0 0 .051.06.348.348 0 0 0 .155.067.265.265 0 0 0 .082 0 .168.168 0 0 0 .068-.025.116.116 0 0 0 .04-.044.093.093 0 0 0 .01-.056.15.15 0 0 0-.022-.064L7.142 1.91a.246.246 0 0 0-.114-.09.285.285 0 0 0-.076-.022.262.262 0 0 0-.078-.002.189.189 0 0 0-.065.019.122.122 0 0 0-.042.035.096.096 0 0 0-.012.049.11.11 0 0 0 .017.055l.82 1.355zm3.104 1.628l-3.705.876a.432.432 0 0 0-.161.074.33.33 0 0 0-.102.123.328.328 0 0 0-.034.156.417.417 0 0 0 .044.173c.029.06.07.112.12.157a.628.628 0 0 0 .366.165.55.55 0 0 0 .199-.014l3.766-1a.265.265 0 0 0 .12-.066.217.217 0 0 0 .06-.106.281.281 0 0 0-.006-.133.404.404 0 0 0-.07-.144.691.691 0 0 0-.44-.266.426.426 0 0 0-.157.005z"/></svg>