<svg xmlns="http://www.w3.org/2000/svg" width="16" height="16" viewBox="0 0 16 16"><rect id="frame" width="16" height="16" fill="none"/><g fill="none" fill-rule="evenodd"><path fill="#889EA6" d="M15.883 9.795a1.587 1.587 0 0 0-.216-.458 1.804 1.804 0 0 0-.76-.634l-.015-.005a.87.87 0 0 0 .287-.647c0-.096-.014-.185-.036-.268a1.3 1.3 0 0 0-.183-.385 1.582 1.582 0 0 0-.637-.522l-.011-.004a.76.76 0 0 0 .115-.252l.004-.012v-.004a.826.826 0 0 0-.009-.372.963.963 0 0 0-.166-.35 1.2 1.2 0 0 0-.238-.246c-.028-.022-.059-.04-.089-.06a.655.655 0 0 0 .05-.462l-.002-.01-.002-.01a.898.898 0 0 0-.133-.279 1.053 1.053 0 0 0-.228-.232 1.073 1.073 0 0 0-.242-.14c-.016-.007-.034-.012-.05-.018a.642.642 0 0 0 .01-.322.763.763 0 0 0-.122-.265.89.89 0 0 0-.316-.272l.003-.04a.641.641 0 0 0-.128-.376.793.793 0 0 0-.346-.27.79.79 0 0 0-.448-.059l-1.988.319-.022.006-.797-1.276a.769.769 0 0 0-.363-.297.817.817 0 0 0-.329-.068.763.763 0 0 0-.34.082.62.62 0 0 0-.208.182c-.019-.004-.037-.01-.057-.013a.942.942 0 0 0-.258-.007.76.76 0 0 0-.265.08.65.65 0 0 0-.243.21.655.655 0 0 0-.061.118 1.078 1.078 0 0 0-.456-.04c-.1.013-.201.042-.293.088a.697.697 0 0 0-.378.457 1.188 1.188 0 0 0-.442-.157 1.363 1.363 0 0 0-.36-.005c-.122.016-.236.05-.339.1a.889.889 0 0 0-.298.233.772.772 0 0 0-.168.448c-.035-.02-.069-.04-.104-.056a1.538 1.538 0 0 0-.821-.112c-.14.018-.278.059-.404.12a1.067 1.067 0 0 0-.336.252.891.891 0 0 0-.223.578c0 .062.009.125.022.187a1.677 1.677 0 0 0-.69-.254 1.75 1.75 0 0 0-.511.006 1.695 1.695 0 0 0-.484.146c-.15.074-.288.166-.406.29a1.1 1.1 0 0 0-.26.43.985.985 0 0 0-.014.538l2.184 8.295c.059.226.167.436.316.61.14.166.318.308.525.405a1.613 1.613 0 0 0 .714.158h.003a1.77 1.77 0 0 0 1.196-.476 1.797 1.797 0 0 0 .48-.743 1.607 1.607 0 0 0 .62.509c.187.089.396.143.613.153h.067c.193 0 .389-.035.577-.108l7.928-3.11a.994.994 0 0 0 .43-.32 1.022 1.022 0 0 0 .202-.633c0-.118-.017-.236-.051-.351z"/><path fill="#FFF" fill-rule="nonzero" d="M15.452 9.812a1.1 1.1 0 0 0-.153-.323 1.324 1.324 0 0 0-.56-.469 1.05 1.05 0 0 0-.322-.09.728.728 0 0 0-.304.031L6.41 11.543a1.078 1.078 0 0 0-.738.963 1.154 1.154 0 0 0 1.098 1.227c.151.007.304-.017.452-.076l7.928-3.109a.518.518 0 0 0 .229-.17.54.54 0 0 0 .1-.259.75.75 0 0 0-.027-.307zm-12.98-4.95a.6.6 0 0 0-.158-.244.856.856 0 0 0-.264-.175 1.228 1.228 0 0 0-.336-.095 1.348 1.348 0 0 0-.733.11.926.926 0 0 0-.267.19.635.635 0 0 0-.152.247.521.521 0 0 0-.008.282l2.183 8.29a1.082 1.082 0 0 0 .587.709c.142.069.3.108.462.113a1.28 1.28 0 0 0 .932-.35c.119-.11.218-.243.288-.386.07-.14.113-.292.126-.446a1.138 1.138 0 0 0-.056-.458L2.472 4.863zm11.176 2.273L7.7 8.798a.74.74 0 0 0-.273.138.668.668 0 0 0-.246.504c-.002.1.019.204.064.308.043.103.109.196.189.274a.96.96 0 0 0 .601.276.855.855 0 0 0 .333-.036l6.082-1.945a.417.417 0 0 0 .185-.118.392.392 0 0 0 .087-.185.512.512 0 0 0-.014-.224.812.812 0 0 0-.115-.24 1.071 1.071 0 0 0-.44-.358.908.908 0 0 0-.26-.071.628.628 0 0 0-.245.014zm-3.61-3.346a.382.382 0 0 0 .286.081l2.01-.344a.151.151 0 0 0 .068-.027.093.093 0 0 0 .04-.05.113.113 0 0 0 .002-.064.192.192 0 0 0-.034-.072.33.33 0 0 0-.066-.066.399.399 0 0 0-.267-.077l-1.995.32a.208.208 0 0 0-.08.03.14.14 0 0 0-.047.051.118.118 0 0 0-.012.07c.002.024.012.049.028.077.017.026.04.05.066.07zM6.715 7.582a.616.616 0 0 0 .143.2.792.792 0 0 0 .718.19.583.583 0 0 0 .216-.104.48.48 0 0 0 .135-.164.44.44 0 0 0 .045-.2.501.501 0 0 0-.053-.217l-2.007-4.12a.443.443 0 0 0-.114-.145.693.693 0 0 0-.173-.107.853.853 0 0 0-.43-.063.673.673 0 0 0-.197.057.42.42 0 0 0-.137.106.298.298 0 0 0-.061.14.29.29 0 0 0 .025.161l1.89 4.266zm-.484 2.958a.921.921 0 0 0 .303-.163.791.791 0 0 0 .196-.25.718.718 0 0 0 .074-.296.72.72 0 0 0-.058-.311L4.386 3.867a.534.534 0 0 0-.137-.189.807.807 0 0 0-.216-.138 1.039 1.039 0 0 0-.824.001.596.596 0 0 0-.192.141.393.393 0 0 0-.083.399l2.14 5.925c.039.108.1.204.179.287a.957.957 0 0 0 .62.287.976.976 0 0 0 .359-.04zm3.027-5.036a.266.266 0 0 0-.117.243.36.36 0 0 0 .048.152.523.523 0 0 0 .113.14.633.633 0 0 0 .342.15.546.546 0 0 0 .182-.007l3.538-.808a.272.272 0 0 0 .118-.057.209.209 0 0 0 .058-.096.24.24 0 0 0 0-.12.441.441 0 0 0-.065-.132.562.562 0 0 0-.12-.12.643.643 0 0 0-.304-.132.447.447 0 0 0-.153.002l-3.493.723a.386.386 0 0 0-.147.062zm-1.236.458c.028.053.065.101.113.142a.66.66 0 0 0 .347.154.59.59 0 0 0 .19-.008.42.42 0 0 0 .155-.068.31.31 0 0 0 .097-.114.292.292 0 0 0 .027-.14.355.355 0 0 0-.046-.153l-1.672-3.06a.406.406 0 0 0-.094-.112.616.616 0 0 0-.3-.13.61.61 0 0 0-.17-.003.463.463 0 0 0-.147.043.283.283 0 0 0-.098.08.202.202 0 0 0-.039.107.229.229 0 0 0 .029.122l1.608 3.14zm.765-1.341c.02.037.05.07.085.1a.533.533 0 0 0 .254.112.458.458 0 0 0 .137-.003.304.304 0 0 0 .112-.045.214.214 0 0 0 .068-.076.194.194 0 0 0 .018-.098.265.265 0 0 0-.036-.106L8.118 2.287a.415.415 0 0 0-.18-.146.589.589 0 0 0-.123-.035.438.438 0 0 0-.128-.004.296.296 0 0 0-.106.032.175.175 0 0 0-.07.059.142.142 0 0 0-.024.078c0 .03.007.06.025.091l1.276 2.259zm1-.342a.283.283 0 0 0-.109.041.215.215 0 0 0-.064.073.173.173 0 0 0-.018.095c.004.035.015.071.037.108a.38.38 0 0 0 .087.097.502.502 0 0 0 .25.11.422.422 0 0 0 .134-.003l2.65-.514a.205.205 0 0 0 .09-.04.16.16 0 0 0 .046-.067.17.17 0 0 0 .002-.088.278.278 0 0 0-.046-.095.419.419 0 0 0-.088-.089.496.496 0 0 0-.232-.1.347.347 0 0 0-.116.001l-2.624.471zm-.445-.553a.278.278 0 0 0 .064.073.429.429 0 0 0 .19.083c.035.004.07.004.101-.001a.207.207 0 0 0 .084-.03.142.142 0 0 0 .049-.055.114.114 0 0 0 .012-.069.186.186 0 0 0-.027-.078L8.79 2.005a.303.303 0 0 0-.14-.11.351.351 0 0 0-.094-.028.323.323 0 0 0-.096-.003.232.232 0 0 0-.08.023.15.15 0 0 0-.051.044.118.118 0 0 0-.015.06c0 .021.007.044.021.067l1.008 1.668zm3.821 2.003l-4.56 1.079a.532.532 0 0 0-.198.09.406.406 0 0 0-.125.152.404.404 0 0 0-.042.192c.002.068.018.14.054.213a.644.644 0 0 0 .148.193c.06.056.133.102.21.137a.758.758 0 0 0 .485.048l4.635-1.23a.326.326 0 0 0 .148-.08.267.267 0 0 0 .073-.132.346.346 0 0 0-.006-.164.497.497 0 0 0-.086-.177.85.85 0 0 0-.542-.328.524.524 0 0 0-.194.007z"/></g></svg>