<svg xmlns="http://www.w3.org/2000/svg" width="16" height="16" viewBox="0 0 16 16">
  <g id="publishAzure" fill="none" fill-rule="evenodd" stroke="none" stroke-width="1">
    <path id="Fill-2" fill="#9AA7B0" d="M9.5,8.5 C9.134,8.5 8.828,8.706 8.653,9 L3.904,9 C2.987,9 2,8.396 2,7.069 C2,5.893 2.765,5.102 3.904,5.102 L4.708,5.102 L4.708,4.602 C4.708,3.509 5.812,3 6.559,3 C7.519,3 8.104,3.388 8.32,4.145 C8.637,4.063 8.965,4.01 9.308,4.005 C9.007,2.739 8.034,2 6.559,2 C5.335,2 4.025,2.792 3.757,4.104 C2.126,4.173 1,5.372 1,7.069 C1,8.74 2.249,10 3.904,10 L8.653,10 C8.828,10.293 9.134,10.5 9.5,10.5 C10.052,10.5 10.5,10.053 10.5,9.5 C10.5,8.947 10.052,8.5 9.5,8.5 M15,9.943 C15,11.631 13.752,13 12.212,13 L6.371,13 C5.334,13 4.228,12.013 4.039,10.75 L7.95,10.75 C8.317,11.204 8.871,11.5 9.5,11.5 C10.604,11.5 11.5,10.604 11.5,9.5 C11.5,8.396 10.604,7.5 9.5,7.5 C8.871,7.5 8.317,7.796 7.95,8.25 L4.991,8.25 C5.394,7.896 5.872,7.672 6.354,7.667 C6.489,6.173 7.786,5 9.366,5 C10.658,5 11.76,5.784 12.193,6.887 C12.2,6.887 12.206,6.886 12.212,6.886 C13.752,6.886 15,8.255 15,9.943"/>
  </g>
</svg>
