<svg xmlns="http://www.w3.org/2000/svg" xmlns:xlink="http://www.w3.org/1999/xlink" width="16" height="16" viewBox="0 0 16 16">
  <defs>
    <polygon id="path-1" points="0 0 15 0 15 15 0 15"/>
  </defs>
  <g id="publishCustomServer" fill="none" fill-rule="evenodd" stroke="none" stroke-width="1">
    <g id="Group-4">
      <mask id="mask-2" fill="#fff">
        <use xlink:href="#path-1"/>
      </mask>
      <path id="Fill-2" fill="#9AA7B0" d="M11.9287,10 C11.9697,9.679 11.9937,9.347 11.9937,9 C11.9937,8.653 11.9697,8.321 11.9287,8 L13.5877,8 C13.6577,8.323 13.6997,8.656 13.6997,9 C13.6997,9.344 13.6577,9.677 13.5877,10 L11.9287,10 Z M10.7167,13.358 C11.1187,12.711 11.4937,11.922 11.7327,11 L13.2357,11 C12.7267,12.072 11.8237,12.916 10.7167,13.358 L10.7167,13.358 Z M9.2767,13.68 C9.1817,13.685 9.0907,13.7 8.9937,13.7 C8.8977,13.7 8.8057,13.685 8.7117,13.679 C8.2097,13.055 7.6377,12.146 7.2967,11 L10.6917,11 C10.3497,12.145 9.7787,13.055 9.2767,13.68 L9.2767,13.68 Z M10.7417,3.26 C10.8877,3.744 10.9697,4.254 10.9887,4.781 C11.9667,5.247 12.7707,6.021 13.2357,7 L11.7327,7 C11.5517,6.301 11.2817,5.704 10.9917,5.162 C10.9747,5.785 10.8647,6.383 10.6717,6.944 C10.6777,6.964 10.6857,6.98 10.6917,7 L10.6517,7 C10.5277,7.35 10.3737,7.684 10.1907,8 L10.9157,8 C10.9627,8.32 10.9937,8.651 10.9937,9 C10.9937,9.349 10.9627,9.68 10.9157,10 L8.3137,10 C7.6907,10.414 6.9837,10.706 6.2247,10.859 C6.2557,10.986 6.4767,12.076 7.2697,13.356 C6.1757,12.916 5.2827,12.079 4.7737,11.018 C4.7737,11.018 4.7617,10.997 4.7537,10.981 C4.2367,10.96 3.7337,10.885 3.2587,10.741 C4.0037,13.204 6.2877,15 8.9937,15 C12.3117,15 14.9997,12.313 14.9997,9 C14.9997,6.295 13.2057,4.008 10.7417,3.26 L10.7417,3.26 Z M4.9997,9 C2.7947,9 0.9997,7.205 0.9997,5 C0.9997,4.855 1.0097,4.71 1.0247,4.57 C2.2047,4.045 3.1397,3.08 3.6297,1.885 C4.5347,3.165 6.0247,4 7.7097,4 C8.0997,4 8.4747,3.955 8.8347,3.87 C8.9397,4.225 8.9997,4.605 8.9997,5 C8.9997,7.205 7.2047,9 4.9997,9 L4.9997,9 Z M4.9997,0 C2.2407,0 -0.0003,2.24 -0.0003,5 C-0.0003,7.76 2.2407,10 4.9997,10 C7.7597,10 9.9997,7.76 9.9997,5 C9.9997,2.24 7.7597,0 4.9997,0 L4.9997,0 Z M6.4997,4.875 C6.1547,4.875 5.8747,5.155 5.8747,5.5 C5.8747,5.845 6.1547,6.125 6.4997,6.125 C6.8457,6.125 7.1247,5.845 7.1247,5.5 C7.1247,5.155 6.8457,4.875 6.4997,4.875 L6.4997,4.875 Z M3.4997,4.875 C3.1547,4.875 2.8747,5.155 2.8747,5.5 C2.8747,5.845 3.1547,6.125 3.4997,6.125 C3.8457,6.125 4.1247,5.845 4.1247,5.5 C4.1247,5.155 3.8457,4.875 3.4997,4.875 L3.4997,4.875 Z" mask="url(#mask-2)"/>
    </g>
  </g>
</svg>
