<svg xmlns="http://www.w3.org/2000/svg" width="16" height="16" viewBox="0 0 16 16">
  <g id="publishIIS" fill="none" fill-rule="evenodd" stroke="none" stroke-width="1">
    <g id="Group" transform="translate(1 1)">
      <polygon id="Fill-6" fill="#F26522" points="0 3 3 3 3 0 0 0"/>
      <polygon id="Fill-7" fill="#62B543" points="4 3 7 3 7 0 4 0"/>
      <polygon id="Fill-8" fill="#40B6E0" points="0 7 3 7 3 4 0 4"/>
      <polygon id="Fill-9" fill="#F4AF3D" points="4 7 7 7 7 4 4 4"/>
    </g>
    <path id="Fill-10" fill="#9AA7B0" d="M11.9287,10 C11.9697,9.679 11.9937,9.347 11.9937,9 C11.9937,8.653 11.9697,8.321 11.9287,8 L13.5877,8 C13.6577,8.323 13.6997,8.656 13.6997,9 C13.6997,9.344 13.6577,9.677 13.5877,10 L11.9287,10 Z M10.7167,13.358 C11.1187,12.711 11.4937,11.922 11.7327,11 L13.2357,11 C12.7267,12.072 11.8237,12.916 10.7167,13.358 L10.7167,13.358 Z M9.2767,13.68 C9.1817,13.685 9.0907,13.7 8.9937,13.7 C8.8977,13.7 8.8057,13.685 8.7117,13.679 C8.2097,13.055 7.6377,12.146 7.2967,11 L10.6917,11 C10.3497,12.145 9.7787,13.055 9.2767,13.68 L9.2767,13.68 Z M4.7627,11 L6.2557,11 C6.4947,11.921 6.8687,12.709 7.2697,13.356 C6.1687,12.913 5.2697,12.07 4.7627,11 L4.7627,11 Z M10.7167,4.642 C11.8237,5.084 12.7267,5.928 13.2357,7 L11.7327,7 C11.4927,6.078 11.1187,5.289 10.7167,4.642 L10.7167,4.642 Z M8.9997,3 L8.9997,4.301 C9.0947,4.301 9.1837,4.315 9.2767,4.32 C9.7787,4.945 10.3497,5.855 10.6917,7 L8.9997,7 L8.9997,8 L10.9157,8 C10.9627,8.32 10.9937,8.651 10.9937,9 C10.9937,9.349 10.9627,9.68 10.9157,10 L7.0727,10 C7.0257,9.68 6.9937,9.349 6.9937,9 L5.9937,9 C5.9937,9.347 6.0187,9.679 6.0597,10 L4.4117,10 C4.3417,9.677 4.2997,9.344 4.2997,9 L2.9997,9 C2.9997,12.313 5.6817,15 8.9937,15 C12.3117,15 14.9997,12.313 14.9997,9 C14.9997,5.69 12.3157,3.004 8.9997,3 L8.9997,3 Z"/>
  </g>
</svg>
