<svg xmlns="http://www.w3.org/2000/svg" xmlns:xlink="http://www.w3.org/1999/xlink" width="16" height="16" viewBox="0 0 16 16">
  <defs>
    <polygon id="path-1" points=".268 0 9.732 0 9.732 10 .268 10"/>
  </defs>
  <g id="pubxml" fill="none" fill-rule="evenodd" stroke="none" stroke-width="1">
    <g id="Group-7">
      <path id="Fill-2" fill="#9AA7B0" d="M11.9287,10 C11.9697,9.679 11.9937,9.347 11.9937,9 C11.9937,8.653 11.9697,8.321 11.9287,8 L13.5877,8 C13.6577,8.323 13.6997,8.656 13.6997,9 C13.6997,9.344 13.6577,9.677 13.5877,10 L11.9287,10 Z M10.7167,13.358 C11.1187,12.711 11.4937,11.922 11.7327,11 L13.2357,11 C12.7267,12.072 11.8237,12.916 10.7167,13.358 L10.7167,13.358 Z M9.2767,13.68 C9.1817,13.685 9.0907,13.7 8.9937,13.7 C8.8977,13.7 8.8057,13.685 8.7117,13.679 C8.2097,13.055 7.6377,12.146 7.2967,11 L10.6917,11 C10.3497,12.145 9.7787,13.055 9.2767,13.68 L9.2767,13.68 Z M10.7417,3.26 C10.8877,3.744 10.9697,4.254 10.9887,4.781 C11.9667,5.247 12.7707,6.02 13.2357,7 L11.7327,7 C11.5517,6.301 11.2817,5.705 10.9917,5.162 C10.9747,5.785 10.8647,6.383 10.6717,6.944 C10.6777,6.964 10.6857,6.98 10.6917,7 L10.6517,7 C10.5277,7.35 10.3737,7.684 10.1907,8 L10.9157,8 C10.9627,8.321 10.9937,8.651 10.9937,9 C10.9937,9.349 10.9627,9.679 10.9157,10 L8.3137,10 C7.6907,10.414 6.9837,10.706 6.2247,10.859 C6.2557,10.986 6.4767,12.076 7.2697,13.356 C6.1757,12.916 5.2827,12.079 4.7737,11.018 C4.7737,11.018 4.7617,10.997 4.7537,10.981 C4.2367,10.96 3.7337,10.885 3.2587,10.741 C4.0037,13.204 6.2877,15 8.9937,15 C12.3117,15 14.9997,12.313 14.9997,9 C14.9997,6.295 13.2057,4.008 10.7417,3.26 L10.7417,3.26 Z"/>
      <g id="Group-6">
        <mask id="mask-2" fill="#fff">
          <use xlink:href="#path-1"/>
        </mask>
        <path id="Fill-4" fill="#9AA7B0" d="M5,6.7837 C4.015,6.7837 3.216,5.9857 3.216,4.9997 C3.216,4.0147 4.015,3.2167 5,3.2167 C5.985,3.2167 6.784,4.0147 6.784,4.9997 C6.784,5.9857 5.985,6.7837 5,6.7837 L5,6.7837 Z M8.244,5.4777 C8.267,5.3207 8.292,5.1637 8.292,4.9997 C8.292,4.8367 8.267,4.6797 8.244,4.5227 L9.732,3.4577 C9.514,2.7877 9.166,2.1827 8.706,1.6707 L7.034,2.4297 C6.783,2.2317 6.51,2.0637 6.208,1.9437 L6.029,0.1077 C5.696,0.0387 5.353,-0.0003 5,-0.0003 C4.647,-0.0003 4.304,0.0387 3.971,0.1077 L3.792,1.9437 C3.49,2.0637 3.217,2.2317 2.966,2.4297 L1.294,1.6707 C0.834,2.1827 0.486,2.7877 0.268,3.4577 L1.756,4.5227 C1.733,4.6797 1.708,4.8367 1.708,4.9997 C1.708,5.1637 1.733,5.3207 1.756,5.4777 L0.268,6.5417 C0.486,7.2117 0.834,7.8177 1.294,8.3287 L2.966,7.5697 C3.217,7.7687 3.49,7.9367 3.792,8.0557 L3.971,9.8917 C4.304,9.9617 4.647,9.9997 5,9.9997 C5.353,9.9997 5.696,9.9617 6.029,9.8917 L6.208,8.0557 C6.51,7.9367 6.783,7.7687 7.034,7.5697 L8.706,8.3287 C9.166,7.8177 9.514,7.2117 9.732,6.5417 L8.244,5.4777 Z" mask="url(#mask-2)"/>
      </g>
    </g>
  </g>
</svg>
