<svg xmlns="http://www.w3.org/2000/svg" width="16" height="16" viewBox="0 0 16 16"><rect id="frame" width="16" height="16" fill="none"/><g fill="none" fill-rule="evenodd"><path fill="#202A5A" d="M14.037 4.167L8.1.719 1.619 4.348v7.259l6.481 3.63 6.222-3.63v-7.57z"/><path fill="#2C448A" d="M1.619 4.348L8.1 7.978l6.222-3.63L8.1.719z"/><path fill="#283A79" d="M14.322 4.037l-2.074 1.089-.026.467L8.1 7.978v7.259l6.222-3.63z"/><path fill="#202A5A" d="M1.619 4.348v7.259l6.481 3.63V7.978z"/><path fill="#3558A7" d="M1.1 11.607V9.274l7 4.148v2.334z"/><path fill="#3558A7" d="M1.1 4.348v1.296l7 4.149V8.496z"/><path fill="#416FB5" d="M14.841 11.607v-1.296L9.163 7.848 8.1 8.496v1.271l3.448 1.529L8.1 13.422v2.334z"/><path fill="#477FC1" d="M11.548 11.296l-.415-.155L8.1 12.904l-6.481-3.63v-.311l-.519.311 7 4.148z"/><path fill="#477FC1" d="M4.159 4.867L8.1 2.533l4.148 2.593 2.074-1.089L8.1.2l-7 4.148 7 4.148 1.063-.648z"/><path fill="#202A5A" d="M12.222 5.593l.026-.467L8.1 2.533 4.159 4.867l.441.259 3.5-2.074z"/></g></svg>