<svg width="24" height="24" viewBox="0 0 24 24" fill="none" xmlns="http://www.w3.org/2000/svg">
<path d="M24 6.39182L22.849 15.2816L22.2368 19.1755L14.3266 24L4.53064 16.4816L16.4572 3.99182L24 6.39182Z" fill="url(#paint0_linear)"/>
<path d="M14.3265 22.0164L14.351 22.7266H15.1592L15.4531 22.2857L14.3265 22.0164Z" fill="url(#paint1_linear)"/>
<path d="M21.6489 18.7348L22.8489 15.2572L23.5591 20.3021L21.6489 18.7348Z" fill="url(#paint2_linear)"/>
<path d="M24 6.39172L10.1877 15.8448L3.91833 16.7754L16.4571 0.391724L24 6.39172Z" fill="url(#paint3_linear)"/>
<path d="M13.8123 3.91825L16.4572 0.391724L15.9918 7.6407L13.8123 3.91825Z" fill="url(#paint4_linear)"/>
<path d="M3.84492 16.7266L0.269409 14.1306L3.69798 10.7266L13.9837 14.8898L3.84492 16.7266Z" fill="url(#paint5_linear)"/>
<path d="M9.74694 20.7919L1.93469 23.4123L3.89388 17.9021L13.4449 14.2041L18.7837 17.4612L9.74694 20.7919Z" fill="url(#paint6_linear)"/>
<path d="M7.54285 5.0449L3.47754 0L11.3388 0.930612L12.2204 3.50204L7.54285 5.0449Z" fill="url(#paint7_linear)"/>
<path d="M22.849 15.2571L11.3388 0.930542L7.10207 0.979522L4.72656 7.95911L19.6898 16.1877L17.1674 19.8856L22.2368 19.1754L22.849 15.2571Z" fill="url(#paint8_linear)"/>
<path d="M4.67761 8.35102L2.03271 8.30204L3.47761 0L7.1021 1.00408L4.67761 8.35102Z" fill="url(#paint9_linear)"/>
<path d="M19.6898 16.1878L12.9796 14.7429L0 9.5021L4.77551 8.03271L19.6898 16.1878Z" fill="url(#paint10_linear)"/>
<path d="M6.66118 2.22852L4.77547 8.00811L4.75098 8.0326H4.77547L14.1795 13.151L14.3755 13.1999L18.2449 10.3101L6.66118 2.22852Z" fill="url(#paint11_linear)"/>
<path d="M3.47755 0L0 9.50204L4.43265 8.37551L4.77551 8.00816L6.66122 2.22857L3.47755 0Z" fill="url(#paint12_linear)"/>
<path d="M1.93469 23.4123L4.89796 11.5103L12.9796 14.7429L1.93469 23.4123Z" fill="url(#paint13_linear)"/>
<path d="M12.9796 14.7429L8.49798 10.849L2.35104 10.2858L0.269409 14.1307L4.65308 12.3674L4.70206 12.3429L1.93472 23.4123L12.9796 14.7429Z" fill="url(#paint14_linear)"/>
<path d="M19.6898 16.1877L15.502 22.3101L9.74695 20.8163L12.9796 14.7428L19.6898 16.1877Z" fill="url(#paint15_linear)"/>
<path d="M19.6898 16.1878L12.9796 14.7429L0 9.5021L4.77551 8.03271L19.6898 16.1878Z" fill="url(#paint16_linear)"/>
<path d="M4.77551 8.03271L0 9.5021L14.1796 13.1511L4.77551 8.03271Z" fill="url(#paint17_linear)"/>
<path d="M22.2367 19.1757L17.0204 19.9104L14.3265 24.0001L23.5592 20.3022L22.2367 19.1757Z" fill="url(#paint18_linear)"/>
<path d="M14.3265 24L17.1183 19.9347L9.72241 20.8408L14.3265 24Z" fill="url(#paint19_linear)"/>
<path d="M8.91418 10.2612L14.1305 13.1265L18.6611 10.0408L13.7387 3.91833L8.91418 10.2612Z" fill="url(#paint20_linear)"/>
<path d="M18.2448 10.3102L12.1223 6.04895L8.91418 10.2612L14.1305 13.1265L18.0244 10.4816L18.2448 10.3102Z" fill="url(#paint21_linear)"/>
<path d="M20 4H4V20H20V4Z" fill="url(#paint22_linear)"/>
<g opacity="0.3">
<g opacity="0.3">
<path opacity="0.3" d="M19.7 20H20V16.6L17.7 20H19.7Z" fill="#231F20"/>
<path opacity="0.3" d="M14.2 4H5.6L4.3 7.7L19.3 16L4.4 7.8L4 7.9V11.2L13 14.9L20 16.4V16.3V11.2L14.2 4Z" fill="url(#paint23_linear)"/>
<path opacity="0.3" d="M5.60005 4L4.30005 7.7L20 16.3V11.2L14.2 4H5.60005Z" fill="url(#paint24_linear)"/>
<path opacity="0.3" d="M4 4V8.2L4.4 7.8L5.6 4H4Z" fill="#F9ED32"/>
</g>
<path opacity="0.3" d="M4 7.90005V11.2L13 14.9L20 16.4V16.3L4.4 7.80005L4 7.90005Z" fill="url(#paint25_linear)"/>
<path opacity="0.3" d="M4 10.6L14.3 13.2L4.4 7.80005L4 7.90005V10.6Z" fill="url(#paint26_linear)"/>
<path opacity="0.3" d="M10.3 20L13 14.9L6.5 20H10.3Z" fill="url(#paint27_linear)"/>
<path opacity="0.3" d="M4 13.6L4.3 12.4L4 12.5V13.6Z" fill="#F7941D"/>
<path opacity="0.3" d="M4 12.5L4.3 12.4L4 13.6V20H6.5L13 14.9L4 11.2V12.5Z" fill="url(#paint28_linear)"/>
<path opacity="0.3" d="M10.3 20H17.7L20 16.6V16.4L13 14.9L10.3 20Z" fill="url(#paint29_linear)"/>
<g opacity="0.3">
<path opacity="0.3" d="M19 9.9L20 9.3V4H14.2L19 9.9Z" fill="url(#paint30_linear)"/>
</g>
</g>
<path d="M11.9742 16.9806H5.98706V17.987H11.9742V16.9806Z" fill="white"/>
<path d="M8.98068 7.09669V6.01282H6.01294V7.09669H6.83875V10.8644H6.01294V11.9741H8.98068V10.8644H8.15487V7.09669H8.98068Z" fill="white"/>
<path d="M11.8452 12.0515C11.3806 12.0515 10.9935 11.9741 10.6839 11.7935C10.3742 11.6128 10.1161 11.4064 9.90967 11.1741L10.7355 10.2451C10.9161 10.4257 11.071 10.5806 11.2516 10.6838C11.4322 10.787 11.6129 10.8386 11.8193 10.8386C12.0774 10.8386 12.2581 10.7612 12.4129 10.6064C12.5677 10.4515 12.6193 10.1935 12.6193 9.85798V6.01282H13.9613V9.90959C13.9613 10.2709 13.9097 10.5806 13.8064 10.8386C13.7032 11.0967 13.5742 11.3289 13.3935 11.5096C13.2129 11.6902 12.9806 11.8193 12.7226 11.9225C12.4645 11.9999 12.1806 12.0515 11.8452 12.0515Z" fill="white"/>
<defs>
<linearGradient id="paint0_linear" x1="13.9245" y1="7.19641" x2="14.9386" y2="19.8505" gradientUnits="userSpaceOnUse">
<stop offset="0.0998726" stop-color="#087CFA"/>
<stop offset="0.4602" stop-color="#079AF6"/>
<stop offset="0.8454" stop-color="#07C3F2"/>
</linearGradient>
<linearGradient id="paint1_linear" x1="14.9196" y1="22.5433" x2="15.1184" y2="22.8318" gradientUnits="userSpaceOnUse">
<stop offset="0.2859" stop-color="#087CFA"/>
<stop offset="1" stop-color="#079AF6"/>
</linearGradient>
<linearGradient id="paint2_linear" x1="22.1755" y1="20.8122" x2="24.4079" y2="14.0858" gradientUnits="userSpaceOnUse">
<stop offset="0.1184" stop-color="#27A6F6"/>
<stop offset="0.2418" stop-color="#2F99F5"/>
<stop offset="0.9197" stop-color="#5753F2"/>
</linearGradient>
<linearGradient id="paint3_linear" x1="24.4717" y1="1.36884" x2="10.5189" y2="9.80609" gradientUnits="userSpaceOnUse">
<stop offset="0.286" stop-color="#0AEFFF"/>
<stop offset="0.3292" stop-color="#09DEFA"/>
<stop offset="0.3966" stop-color="#07CAF4"/>
<stop offset="0.442" stop-color="#07C3F2"/>
<stop offset="0.5015" stop-color="#07ACF5"/>
<stop offset="0.5749" stop-color="#0897F7"/>
<stop offset="0.6568" stop-color="#0888F9"/>
<stop offset="0.7528" stop-color="#087FFA"/>
<stop offset="0.8981" stop-color="#087CFA"/>
</linearGradient>
<linearGradient id="paint4_linear" x1="15.1356" y1="-0.172913" x2="15.1356" y2="9.08178" gradientUnits="userSpaceOnUse">
<stop offset="0.207" stop-color="#02C5FE"/>
<stop offset="0.317" stop-color="#04ACFD"/>
<stop offset="0.4435" stop-color="#0697FB"/>
<stop offset="0.5845" stop-color="#0788FB"/>
<stop offset="0.7499" stop-color="#087FFA"/>
<stop offset="1" stop-color="#087CFA"/>
</linearGradient>
<linearGradient id="paint5_linear" x1="3.87105" y1="11.4702" x2="5.94046" y2="13.4086" gradientUnits="userSpaceOnUse">
<stop offset="0" stop-color="#FF581C"/>
<stop offset="0.1918" stop-color="#FF5124"/>
<stop offset="0.4947" stop-color="#FE3F3B"/>
<stop offset="0.7851" stop-color="#FE2857"/>
</linearGradient>
<linearGradient id="paint6_linear" x1="6.5522" y1="16.341" x2="10.0404" y2="20.0975" gradientUnits="userSpaceOnUse">
<stop offset="0.4574" stop-color="#FF149D"/>
<stop offset="0.536" stop-color="#EF1AB2"/>
<stop offset="0.6983" stop-color="#C82BE9"/>
<stop offset="0.7574" stop-color="#B831FF"/>
<stop offset="0.8388" stop-color="#A33AFE"/>
<stop offset="1" stop-color="#6E51FD"/>
</linearGradient>
<linearGradient id="paint7_linear" x1="7.30703" y1="-0.617682" x2="8.41843" y2="4.24465" gradientUnits="userSpaceOnUse">
<stop offset="0.0276342" stop-color="#FFDE17"/>
<stop offset="0.276" stop-color="#FDB60D"/>
<stop offset="0.5939" stop-color="#FC801D"/>
<stop offset="0.6532" stop-color="#FC7A25"/>
<stop offset="0.7469" stop-color="#FD6A3C"/>
<stop offset="0.8628" stop-color="#FE4F61"/>
<stop offset="0.976" stop-color="#FF318C"/>
</linearGradient>
<linearGradient id="paint8_linear" x1="6.50802" y1="4.26696" x2="23.2826" y2="17.5842" gradientUnits="userSpaceOnUse">
<stop offset="0" stop-color="#FE2857"/>
<stop offset="0.0557468" stop-color="#FE255F"/>
<stop offset="0.1437" stop-color="#FF1F76"/>
<stop offset="0.2282" stop-color="#FF1692"/>
<stop offset="0.289" stop-color="#F11BA7"/>
<stop offset="0.4143" stop-color="#CD29DE"/>
<stop offset="0.4828" stop-color="#B831FF"/>
<stop offset="0.581" stop-color="#7A4CFD"/>
<stop offset="0.748" stop-color="#087CFA"/>
<stop offset="0.9745" stop-color="#07A5F5"/>
</linearGradient>
<linearGradient id="paint9_linear" x1="2.52616" y1="3.71767" x2="5.92493" y2="5.268" gradientUnits="userSpaceOnUse">
<stop offset="0.2889" stop-color="#FFDE17"/>
<stop offset="0.9874" stop-color="white"/>
</linearGradient>
<linearGradient id="paint10_linear" x1="1.84398" y1="8.48232" x2="18.4769" y2="17.1356" gradientUnits="userSpaceOnUse">
<stop offset="0.2464" stop-color="#FE2857"/>
<stop offset="0.292" stop-color="#FE265F"/>
<stop offset="0.3641" stop-color="#FE1F76"/>
<stop offset="0.4534" stop-color="#FF159B"/>
<stop offset="0.4574" stop-color="#FF149D"/>
<stop offset="0.536" stop-color="#EF1AB2"/>
<stop offset="0.6983" stop-color="#C82BE9"/>
<stop offset="0.7574" stop-color="#B831FF"/>
<stop offset="0.811" stop-color="#A33AFE"/>
<stop offset="0.9215" stop-color="#6C52FD"/>
<stop offset="1" stop-color="#4164FC"/>
</linearGradient>
<linearGradient id="paint11_linear" x1="5.50085" y1="4.89372" x2="14.8922" y2="11.6018" gradientUnits="userSpaceOnUse">
<stop offset="0.00823305" stop-color="#FC35E3"/>
<stop offset="0.2164" stop-color="#F12CD5"/>
<stop offset="0.4105" stop-color="#EB27CD"/>
<stop offset="0.4984" stop-color="#DE2ADA"/>
<stop offset="0.7777" stop-color="#B831FF"/>
<stop offset="1" stop-color="#6D51FD"/>
</linearGradient>
<linearGradient id="paint12_linear" x1="1.68245" y1="4.7182" x2="4.92468" y2="6.79768" gradientUnits="userSpaceOnUse">
<stop offset="0.0433729" stop-color="#FFD25F"/>
<stop offset="0.2889" stop-color="#FEBC9B"/>
<stop offset="0.6173" stop-color="#FC9CF0"/>
<stop offset="1" stop-color="#FD5ED7"/>
</linearGradient>
<linearGradient id="paint13_linear" x1="-0.974377" y1="10.8185" x2="14.0367" y2="25.5097" gradientUnits="userSpaceOnUse">
<stop offset="0.0226617" stop-color="#FC801D"/>
<stop offset="0.2467" stop-color="#FC7E20"/>
<stop offset="0.276" stop-color="#FC772A"/>
<stop offset="0.3253" stop-color="#FD6444"/>
<stop offset="0.3881" stop-color="#FE466E"/>
<stop offset="0.4273" stop-color="#FF318C"/>
<stop offset="0.4924" stop-color="#EA3896"/>
<stop offset="0.6276" stop-color="#B248AE"/>
<stop offset="0.8194" stop-color="#5A63D6"/>
<stop offset="0.9859" stop-color="#087CFA"/>
</linearGradient>
<linearGradient id="paint14_linear" x1="2.70556" y1="10.8594" x2="7.44298" y2="19.0459" gradientUnits="userSpaceOnUse">
<stop offset="0.00442798" stop-color="#FFDE17"/>
<stop offset="0.0525354" stop-color="#FECB12"/>
<stop offset="0.1093" stop-color="#FDBB0E"/>
<stop offset="0.1542" stop-color="#FDB60D"/>
<stop offset="0.2351" stop-color="#FDAE0F"/>
<stop offset="0.3571" stop-color="#FC9A15"/>
<stop offset="0.4724" stop-color="#FC801D"/>
<stop offset="1" stop-color="#FE4176"/>
</linearGradient>
<linearGradient id="paint15_linear" x1="12.5723" y1="15.0797" x2="16.9525" y2="22.0579" gradientUnits="userSpaceOnUse">
<stop offset="0.0211218" stop-color="#B149AF"/>
<stop offset="0.0831639" stop-color="#9153BD"/>
<stop offset="0.2186" stop-color="#3F6BE2"/>
<stop offset="0.3042" stop-color="#087CFA"/>
<stop offset="0.7942" stop-color="#07C3F2"/>
</linearGradient>
<linearGradient id="paint16_linear" x1="1.84398" y1="8.48232" x2="18.4769" y2="17.1356" gradientUnits="userSpaceOnUse">
<stop offset="0.2464" stop-color="#FE2857"/>
<stop offset="0.292" stop-color="#FE265F"/>
<stop offset="0.3641" stop-color="#FE1F76"/>
<stop offset="0.4534" stop-color="#FF159B"/>
<stop offset="0.4574" stop-color="#FF149D"/>
<stop offset="0.536" stop-color="#EF1AB2"/>
<stop offset="0.6983" stop-color="#C82BE9"/>
<stop offset="0.7574" stop-color="#B831FF"/>
<stop offset="0.811" stop-color="#A33AFE"/>
<stop offset="0.9215" stop-color="#6C52FD"/>
<stop offset="1" stop-color="#4164FC"/>
</linearGradient>
<linearGradient id="paint17_linear" x1="3.36869" y1="9.26551" x2="11.0413" y2="13.5332" gradientUnits="userSpaceOnUse">
<stop offset="0.00629908" stop-color="#FF45ED"/>
<stop offset="0.1766" stop-color="#FF35D8"/>
<stop offset="0.3352" stop-color="#FF24C0"/>
<stop offset="0.7349" stop-color="#EA23CA"/>
<stop offset="1" stop-color="#D923D1"/>
</linearGradient>
<linearGradient id="paint18_linear" x1="20.7912" y1="17.3428" x2="18.278" y2="23.8683" gradientUnits="userSpaceOnUse">
<stop offset="0.2157" stop-color="#07C3F2"/>
<stop offset="0.3237" stop-color="#04B1EC"/>
<stop offset="0.4576" stop-color="#01A1E7"/>
<stop offset="0.5613" stop-color="#009BE5"/>
<stop offset="0.5745" stop-color="#0198E7"/>
<stop offset="0.6778" stop-color="#058AF1"/>
<stop offset="0.7992" stop-color="#0781F7"/>
<stop offset="0.9829" stop-color="#087EF9"/>
</linearGradient>
<linearGradient id="paint19_linear" x1="10.2837" y1="20.0271" x2="16.0377" y2="22.0842" gradientUnits="userSpaceOnUse">
<stop offset="0.1529" stop-color="#087CFA"/>
<stop offset="0.6343" stop-color="#009AE5"/>
<stop offset="1" stop-color="#07C3F2"/>
</linearGradient>
<linearGradient id="paint20_linear" x1="14.9312" y1="4.87184" x2="13.1431" y2="13.1072" gradientUnits="userSpaceOnUse">
<stop offset="0" stop-color="#FF188D"/>
<stop offset="0.3188" stop-color="#D82EC8"/>
<stop offset="0.4411" stop-color="#CC30CC"/>
<stop offset="0.6628" stop-color="#AC35D7"/>
<stop offset="0.8981" stop-color="#833CE5"/>
</linearGradient>
<linearGradient id="paint21_linear" x1="11.1091" y1="6.81384" x2="14.5973" y2="11.7331" gradientUnits="userSpaceOnUse">
<stop offset="0" stop-color="#FF188D"/>
<stop offset="0.3188" stop-color="#D82EC8"/>
<stop offset="0.4411" stop-color="#CC30CC"/>
<stop offset="0.6628" stop-color="#AC35D7"/>
<stop offset="0.8981" stop-color="#833CE5"/>
</linearGradient>
<linearGradient id="paint22_linear" x1="3.7531" y1="5.2766" x2="20.1319" y2="18.6296" gradientUnits="userSpaceOnUse">
<stop offset="0" stop-color="#521713"/>
<stop offset="0.080028" stop-color="#451310"/>
<stop offset="0.2989" stop-color="#270B09"/>
<stop offset="0.514" stop-color="#110504"/>
<stop offset="0.7218" stop-color="#040101"/>
<stop offset="0.9138"/>
</linearGradient>
<linearGradient id="paint23_linear" x1="4" y1="10.19" x2="20" y2="10.19" gradientUnits="userSpaceOnUse">
<stop offset="0.2464" stop-color="#FE2857"/>
<stop offset="0.292" stop-color="#FE265F"/>
<stop offset="0.3641" stop-color="#FE1F76"/>
<stop offset="0.4534" stop-color="#FF159B"/>
<stop offset="0.4574" stop-color="#FF149D"/>
<stop offset="0.536" stop-color="#EF1AB2"/>
<stop offset="0.6983" stop-color="#C82BE9"/>
<stop offset="0.7574" stop-color="#B831FF"/>
<stop offset="0.811" stop-color="#A33AFE"/>
<stop offset="0.9215" stop-color="#6C52FD"/>
<stop offset="1" stop-color="#4164FC"/>
</linearGradient>
<linearGradient id="paint24_linear" x1="4.32735" y1="10.1718" x2="20" y2="10.1718" gradientUnits="userSpaceOnUse">
<stop offset="0.1118" stop-color="#F7941D"/>
<stop offset="0.1374" stop-color="#F88C25"/>
<stop offset="0.178" stop-color="#F9753A"/>
<stop offset="0.2284" stop-color="#FB505D"/>
<stop offset="0.2863" stop-color="#FF1C8C"/>
<stop offset="0.2928" stop-color="#FF1692"/>
<stop offset="0.4031" stop-color="#EA1A93"/>
<stop offset="0.4677" stop-color="#DB1D93"/>
<stop offset="0.5543" stop-color="#9F2895"/>
<stop offset="0.7229" stop-color="#21409A"/>
<stop offset="0.8671" stop-color="#222F5C"/>
<stop offset="1" stop-color="#231F20"/>
</linearGradient>
<linearGradient id="paint25_linear" x1="4" y1="12.0955" x2="20" y2="12.0955" gradientUnits="userSpaceOnUse">
<stop offset="0.0878508" stop-color="#FE2857"/>
<stop offset="0.1283" stop-color="#FE265F"/>
<stop offset="0.1923" stop-color="#FE1F76"/>
<stop offset="0.2716" stop-color="#FF159B"/>
<stop offset="0.2751" stop-color="#FF149D"/>
<stop offset="0.4167" stop-color="#B21871"/>
<stop offset="0.5427" stop-color="#741B4E"/>
<stop offset="0.6489" stop-color="#481D35"/>
<stop offset="0.731" stop-color="#2D1E26"/>
<stop offset="0.7791" stop-color="#231F20"/>
</linearGradient>
<linearGradient id="paint26_linear" x1="5.5488" y1="9.89575" x2="11.8145" y2="13.3809" gradientUnits="userSpaceOnUse">
<stop offset="0.00629908" stop-color="#FF45ED"/>
<stop offset="0.1766" stop-color="#FF35D8"/>
<stop offset="0.3352" stop-color="#FF24C0"/>
<stop offset="0.451" stop-color="#EA24B0"/>
<stop offset="0.6916" stop-color="#B22388"/>
<stop offset="1" stop-color="#63214F"/>
</linearGradient>
<linearGradient id="paint27_linear" x1="6.5134" y1="17.4397" x2="13.0321" y2="17.4397" gradientUnits="userSpaceOnUse">
<stop offset="0.4574" stop-color="#FF149D"/>
<stop offset="0.536" stop-color="#EF1AB2"/>
<stop offset="0.6983" stop-color="#C82BE9"/>
<stop offset="0.7574" stop-color="#B831FF"/>
<stop offset="0.8388" stop-color="#A33AFE"/>
<stop offset="1" stop-color="#6E51FD"/>
</linearGradient>
<linearGradient id="paint28_linear" x1="4" y1="15.6219" x2="13.0321" y2="15.6219" gradientUnits="userSpaceOnUse">
<stop offset="0.00442798" stop-color="#FFDE17"/>
<stop offset="0.0386836" stop-color="#FECB12"/>
<stop offset="0.0790912" stop-color="#FDBB0E"/>
<stop offset="0.1111" stop-color="#FDB60D"/>
<stop offset="0.1673" stop-color="#FDAE0F"/>
<stop offset="0.2521" stop-color="#FC9A15"/>
<stop offset="0.3323" stop-color="#FC801D"/>
<stop offset="0.7374" stop-color="#BE1E2D"/>
</linearGradient>
<linearGradient id="paint29_linear" x1="10.3033" y1="17.4397" x2="20" y2="17.4397" gradientUnits="userSpaceOnUse">
<stop offset="0" stop-color="#087CFA"/>
<stop offset="0.7942" stop-color="#231F20"/>
</linearGradient>
<linearGradient id="paint30_linear" x1="26.5288" y1="19.2317" x2="16.3332" y2="2.7214" gradientUnits="userSpaceOnUse">
<stop offset="0.3486" stop-color="#3595F3"/>
<stop offset="0.4019" stop-color="#3490EB"/>
<stop offset="0.4865" stop-color="#3284D4"/>
<stop offset="0.5918" stop-color="#2F6FAE"/>
<stop offset="0.7135" stop-color="#2B527B"/>
<stop offset="0.8476" stop-color="#252D39"/>
<stop offset="0.8951" stop-color="#231F20"/>
</linearGradient>
</defs>
</svg>
