<svg width="80" height="80" viewBox="0 0 80 80" fill="none" xmlns="http://www.w3.org/2000/svg">
<path d="M80 21.375L76.125 50.875L74.125 64L47.75 80L15.125 55L54.875 13.375L80 21.375Z" fill="url(#paint0_linear)"/>
<path d="M47.75 73.375L47.875 75.75H50.5L51.5 74.375L47.75 73.375Z" fill="url(#paint1_linear)"/>
<path d="M72.125 62.5L76.125 50.875L78.5 67.75L72.125 62.5Z" fill="url(#paint2_linear)"/>
<path d="M80 21.375L33.875 52.75L13.125 56L54.875 1.25L80 21.375Z" fill="url(#paint3_linear)"/>
<path d="M46.125 13.125L54.875 1.25L53.375 25.5L46.125 13.125Z" fill="url(#paint4_linear)"/>
<path d="M12.875 55.75L0.875 47.125L12.375 35.75L46.625 49.625L12.875 55.75Z" fill="url(#paint5_linear)"/>
<path d="M32.5 69.25L6.5 78L13 59.625L44.875 47.375L62.625 58.25L32.5 69.25Z" fill="url(#paint6_linear)"/>
<path d="M25.125 16.875L11.625 0L37.75 3.125L40.75 11.625L25.125 16.875Z" fill="url(#paint7_linear)"/>
<path d="M76.125 50.875L37.75 3.125L23.625 3.25L15.75 26.5L65.625 53.875L57.25 66.375L74.125 64L76.125 50.875Z" fill="url(#paint8_linear)"/>
<path d="M15.625 27.875L6.75 27.625L11.625 0L23.625 3.375L15.625 27.875Z" fill="url(#paint9_linear)"/>
<path d="M65.625 53.875L43.25 49.125L0 31.75L15.875 26.75L65.625 53.875Z" fill="url(#paint10_linear)"/>
<path d="M22.25 7.5L15.875 26.75L47.25 43.875L47.875 44L60.75 34.375L22.25 7.5Z" fill="url(#paint11_linear)"/>
<path d="M11.625 0L0 31.75L14.75 27.875L15.875 26.75L22.25 7.5L11.625 0Z" fill="url(#paint12_linear)"/>
<path d="M6.5 78L16.375 38.375L43.25 49.125L6.5 78Z" fill="url(#paint13_linear)"/>
<path d="M43.25 49.125L28.25 36.125L7.875 34.25L0.875 47.125L15.5 41.25L15.625 41.125L6.5 78L43.25 49.125Z" fill="url(#paint14_linear)"/>
<path d="M65.625 53.875L51.75 74.375L32.5 69.375L43.25 49.125L65.625 53.875Z" fill="url(#paint15_linear)"/>
<path d="M65.625 53.875L43.25 49.125L0 31.75L15.875 26.75L65.625 53.875Z" fill="url(#paint16_linear)"/>
<path d="M15.875 26.75L0 31.75L47.25 43.875L15.875 26.75Z" fill="url(#paint17_linear)"/>
<path d="M74.125 64L56.75 66.375L47.75 80L78.5 67.75L74.125 64Z" fill="url(#paint18_linear)"/>
<path d="M47.75 80L57 66.5L32.375 69.5L47.75 80Z" fill="url(#paint19_linear)"/>
<path d="M29.75 34.25L47.125 43.75L62.25 33.5L45.875 13.125L29.75 34.25Z" fill="url(#paint20_linear)"/>
<path d="M60.75 34.375L40.375 20.125L29.75 34.25L47.125 43.75L60.125 34.875L60.75 34.375Z" fill="url(#paint21_linear)"/>
<path d="M65 15H15V65H65V15Z" fill="url(#paint22_linear)"/>
<g opacity="0.3">
<g opacity="0.3">
<path opacity="0.3" d="M64.0999 65L65 64.9001V54.3L57.7 65H64.0999Z" fill="#231F20"/>
<path opacity="0.3" d="M47 15H20L16 26.7L62.9 52.4L16.2 26.9L15 27.3V37.6L43.2 49L65 53.7V53.6V37.4L47 15Z" fill="url(#paint23_linear)"/>
<path opacity="0.3" d="M20 15L16 26.7L65 53.6V37.4L47 15H20Z" fill="url(#paint24_linear)"/>
<path opacity="0.3" d="M15 15V28.1L15.1 28L16.2 26.9L20.1 15H15Z" fill="#F9ED32"/>
</g>
<path opacity="0.3" d="M15 27.3V37.6L43.2 49L65 53.7V53.6L16.2 26.9L15 27.3Z" fill="url(#paint25_linear)"/>
<path opacity="0.3" d="M15 35.5L47.2 43.8L16.2 26.9L15 27.3V35.5Z" fill="url(#paint26_linear)"/>
<path opacity="0.3" d="M34.6999 65L43.1999 49L22.8999 65H34.6999Z" fill="url(#paint27_linear)"/>
<path opacity="0.3" d="M15 45L16 41.2H15.8L15 41.5V45Z" fill="#F7941D"/>
<path opacity="0.3" d="M15 41.5L15.8 41.2H16L15 45V65H22.9L43.2 49L15 37.6V41.5Z" fill="url(#paint28_linear)"/>
<path opacity="0.3" d="M34.7 65H57.7L65 54.3V53.7L43.2 49L34.7 65Z" fill="url(#paint29_linear)"/>
<g opacity="0.3">
<path opacity="0.3" d="M61.9 33.6L65 31.5V15H47L61.9 33.6Z" fill="url(#paint30_linear)"/>
</g>
</g>
<g opacity="0.3">
<path opacity="0.4" d="M20 15L16 26.7L65 53.6V37.4L47 15H20Z" fill="url(#paint31_linear)"/>
<path opacity="0.4" d="M15 15V28.1L15.1 28L16.2 26.9L20.1 15H15Z" fill="#F9ED32"/>
</g>
<path d="M39.9 55.6001H21.2V58.7001H39.9V55.6001Z" fill="white"/>
<path d="M30.6 24.7001V21.3H21.3V24.7001H23.9V36.5H21.3V39.9001H30.6V36.5H28V24.7001H30.6Z" fill="white"/>
<path d="M39.4999 40.2001C37.9999 40.2001 36.7999 39.9001 35.7999 39.4001C34.7999 38.9001 33.9999 38.2001 33.3999 37.4001L35.9999 34.5C36.4999 35.1 37.0999 35.5001 37.5999 35.9001C38.0999 36.2001 38.6999 36.4001 39.3999 36.4001C40.1999 36.4001 40.7999 36.2001 41.1999 35.7001C41.5999 35.2001 41.8999 34.4 41.8999 33.3V21.3H46.0999V33.5C46.0999 34.6 45.8999 35.6001 45.5999 36.4001C45.2999 37.2001 44.8999 37.9 44.2999 38.5C43.6999 39.1 42.9999 39.5 42.1999 39.8C41.4999 40 40.4999 40.2001 39.4999 40.2001Z" fill="white"/>
<defs>
<linearGradient id="paint0_linear" x1="46.415" y1="23.988" x2="49.7954" y2="66.1684" gradientUnits="userSpaceOnUse">
<stop offset="0.0998726" stop-color="#087CFA"/>
<stop offset="0.4602" stop-color="#079AF6"/>
<stop offset="0.8454" stop-color="#07C3F2"/>
</linearGradient>
<linearGradient id="paint1_linear" x1="49.732" y1="75.1442" x2="50.3948" y2="76.106" gradientUnits="userSpaceOnUse">
<stop offset="0.2859" stop-color="#087CFA"/>
<stop offset="1" stop-color="#079AF6"/>
</linearGradient>
<linearGradient id="paint2_linear" x1="73.9184" y1="69.3737" x2="81.3599" y2="46.9525" gradientUnits="userSpaceOnUse">
<stop offset="0.1184" stop-color="#27A6F6"/>
<stop offset="0.2418" stop-color="#2F99F5"/>
<stop offset="0.9197" stop-color="#5753F2"/>
</linearGradient>
<linearGradient id="paint3_linear" x1="81.5724" y1="4.56325" x2="35.0631" y2="32.6874" gradientUnits="userSpaceOnUse">
<stop offset="0.286" stop-color="#0AEFFF"/>
<stop offset="0.3292" stop-color="#09DEFA"/>
<stop offset="0.3966" stop-color="#07CAF4"/>
<stop offset="0.442" stop-color="#07C3F2"/>
<stop offset="0.5015" stop-color="#07ACF5"/>
<stop offset="0.5749" stop-color="#0897F7"/>
<stop offset="0.6568" stop-color="#0888F9"/>
<stop offset="0.7528" stop-color="#087FFA"/>
<stop offset="0.8981" stop-color="#087CFA"/>
</linearGradient>
<linearGradient id="paint4_linear" x1="50.452" y1="-0.576" x2="50.452" y2="30.273" gradientUnits="userSpaceOnUse">
<stop offset="0.207" stop-color="#02C5FE"/>
<stop offset="0.317" stop-color="#04ACFD"/>
<stop offset="0.4435" stop-color="#0697FB"/>
<stop offset="0.5845" stop-color="#0788FB"/>
<stop offset="0.7499" stop-color="#087FFA"/>
<stop offset="1" stop-color="#087CFA"/>
</linearGradient>
<linearGradient id="paint5_linear" x1="12.9035" y1="38.2339" x2="19.8015" y2="44.6954" gradientUnits="userSpaceOnUse">
<stop stop-color="#FF581C"/>
<stop offset="0.1918" stop-color="#FF5124"/>
<stop offset="0.4947" stop-color="#FE3F3B"/>
<stop offset="0.7851" stop-color="#FE2857"/>
</linearGradient>
<linearGradient id="paint6_linear" x1="21.8406" y1="54.4697" x2="33.468" y2="66.9915" gradientUnits="userSpaceOnUse">
<stop offset="0.4574" stop-color="#FF149D"/>
<stop offset="0.536" stop-color="#EF1AB2"/>
<stop offset="0.6983" stop-color="#C82BE9"/>
<stop offset="0.7574" stop-color="#B831FF"/>
<stop offset="0.8388" stop-color="#A33AFE"/>
<stop offset="1" stop-color="#6E51FD"/>
</linearGradient>
<linearGradient id="paint7_linear" x1="24.3568" y1="-2.059" x2="28.0614" y2="14.1489" gradientUnits="userSpaceOnUse">
<stop offset="0.0276342" stop-color="#FFDE17"/>
<stop offset="0.276" stop-color="#FDB60D"/>
<stop offset="0.5939" stop-color="#FC801D"/>
<stop offset="0.6532" stop-color="#FC7A25"/>
<stop offset="0.7469" stop-color="#FD6A3C"/>
<stop offset="0.8628" stop-color="#FE4F61"/>
<stop offset="0.976" stop-color="#FF318C"/>
</linearGradient>
<linearGradient id="paint8_linear" x1="21.6934" y1="14.2234" x2="77.6085" y2="58.6141" gradientUnits="userSpaceOnUse">
<stop stop-color="#FE2857"/>
<stop offset="0.0557468" stop-color="#FE255F"/>
<stop offset="0.1437" stop-color="#FF1F76"/>
<stop offset="0.2282" stop-color="#FF1692"/>
<stop offset="0.289" stop-color="#F11BA7"/>
<stop offset="0.4143" stop-color="#CD29DE"/>
<stop offset="0.4828" stop-color="#B831FF"/>
<stop offset="0.581" stop-color="#7A4CFD"/>
<stop offset="0.748" stop-color="#087CFA"/>
<stop offset="0.9745" stop-color="#07A5F5"/>
</linearGradient>
<linearGradient id="paint9_linear" x1="8.42037" y1="12.3923" x2="19.7495" y2="17.56" gradientUnits="userSpaceOnUse">
<stop offset="0.2889" stop-color="#FFDE17"/>
<stop offset="0.9874" stop-color="white"/>
</linearGradient>
<linearGradient id="paint10_linear" x1="6.14662" y1="28.2743" x2="61.5896" y2="57.1184" gradientUnits="userSpaceOnUse">
<stop offset="0.2464" stop-color="#FE2857"/>
<stop offset="0.292" stop-color="#FE265F"/>
<stop offset="0.3641" stop-color="#FE1F76"/>
<stop offset="0.4534" stop-color="#FF159B"/>
<stop offset="0.4574" stop-color="#FF149D"/>
<stop offset="0.536" stop-color="#EF1AB2"/>
<stop offset="0.6983" stop-color="#C82BE9"/>
<stop offset="0.7574" stop-color="#B831FF"/>
<stop offset="0.811" stop-color="#A33AFE"/>
<stop offset="0.9215" stop-color="#6C52FD"/>
<stop offset="1" stop-color="#4164FC"/>
</linearGradient>
<linearGradient id="paint11_linear" x1="18.3364" y1="16.3125" x2="49.6406" y2="38.6727" gradientUnits="userSpaceOnUse">
<stop offset="0.00823305" stop-color="#FC35E3"/>
<stop offset="0.2164" stop-color="#F12CD5"/>
<stop offset="0.4105" stop-color="#EB27CD"/>
<stop offset="0.4984" stop-color="#DE2ADA"/>
<stop offset="0.7777" stop-color="#B831FF"/>
<stop offset="1" stop-color="#6D51FD"/>
</linearGradient>
<linearGradient id="paint12_linear" x1="5.60812" y1="15.7272" x2="16.4156" y2="22.659" gradientUnits="userSpaceOnUse">
<stop offset="0.0433729" stop-color="#FFD25F"/>
<stop offset="0.2889" stop-color="#FEBC9B"/>
<stop offset="0.6173" stop-color="#FC9CF0"/>
<stop offset="1" stop-color="#FD5ED7"/>
</linearGradient>
<linearGradient id="paint13_linear" x1="-3.24787" y1="36.0616" x2="46.7891" y2="85.0324" gradientUnits="userSpaceOnUse">
<stop offset="0.0226617" stop-color="#FC801D"/>
<stop offset="0.2467" stop-color="#FC7E20"/>
<stop offset="0.276" stop-color="#FC772A"/>
<stop offset="0.3253" stop-color="#FD6444"/>
<stop offset="0.3881" stop-color="#FE466E"/>
<stop offset="0.4273" stop-color="#FF318C"/>
<stop offset="0.4924" stop-color="#EA3896"/>
<stop offset="0.6276" stop-color="#B248AE"/>
<stop offset="0.8194" stop-color="#5A63D6"/>
<stop offset="0.9859" stop-color="#087CFA"/>
</linearGradient>
<linearGradient id="paint14_linear" x1="9.01837" y1="36.1979" x2="24.8099" y2="63.486" gradientUnits="userSpaceOnUse">
<stop offset="0.00442798" stop-color="#FFDE17"/>
<stop offset="0.0525354" stop-color="#FECB12"/>
<stop offset="0.1093" stop-color="#FDBB0E"/>
<stop offset="0.1542" stop-color="#FDB60D"/>
<stop offset="0.2351" stop-color="#FDAE0F"/>
<stop offset="0.3571" stop-color="#FC9A15"/>
<stop offset="0.4724" stop-color="#FC801D"/>
<stop offset="1" stop-color="#FE4176"/>
</linearGradient>
<linearGradient id="paint15_linear" x1="41.9075" y1="50.2657" x2="56.5083" y2="73.5266" gradientUnits="userSpaceOnUse">
<stop offset="0.0211218" stop-color="#B149AF"/>
<stop offset="0.0831639" stop-color="#9153BD"/>
<stop offset="0.2186" stop-color="#3F6BE2"/>
<stop offset="0.3042" stop-color="#087CFA"/>
<stop offset="0.7942" stop-color="#07C3F2"/>
</linearGradient>
<linearGradient id="paint16_linear" x1="6.14662" y1="28.2743" x2="61.5896" y2="57.1184" gradientUnits="userSpaceOnUse">
<stop offset="0.2464" stop-color="#FE2857"/>
<stop offset="0.292" stop-color="#FE265F"/>
<stop offset="0.3641" stop-color="#FE1F76"/>
<stop offset="0.4534" stop-color="#FF159B"/>
<stop offset="0.4574" stop-color="#FF149D"/>
<stop offset="0.536" stop-color="#EF1AB2"/>
<stop offset="0.6983" stop-color="#C82BE9"/>
<stop offset="0.7574" stop-color="#B831FF"/>
<stop offset="0.811" stop-color="#A33AFE"/>
<stop offset="0.9215" stop-color="#6C52FD"/>
<stop offset="1" stop-color="#4164FC"/>
</linearGradient>
<linearGradient id="paint17_linear" x1="11.229" y1="30.8849" x2="36.8042" y2="45.1106" gradientUnits="userSpaceOnUse">
<stop offset="0.00629908" stop-color="#FF45ED"/>
<stop offset="0.1766" stop-color="#FF35D8"/>
<stop offset="0.3352" stop-color="#FF24C0"/>
<stop offset="0.7349" stop-color="#EA23CA"/>
<stop offset="1" stop-color="#D923D1"/>
</linearGradient>
<linearGradient id="paint18_linear" x1="69.3039" y1="57.8089" x2="60.9266" y2="79.5605" gradientUnits="userSpaceOnUse">
<stop offset="0.2157" stop-color="#07C3F2"/>
<stop offset="0.3237" stop-color="#04B1EC"/>
<stop offset="0.4576" stop-color="#01A1E7"/>
<stop offset="0.5613" stop-color="#009BE5"/>
<stop offset="0.5745" stop-color="#0198E7"/>
<stop offset="0.6778" stop-color="#058AF1"/>
<stop offset="0.7992" stop-color="#0781F7"/>
<stop offset="0.9829" stop-color="#087EF9"/>
</linearGradient>
<linearGradient id="paint19_linear" x1="34.2792" y1="66.7569" x2="53.4592" y2="73.614" gradientUnits="userSpaceOnUse">
<stop offset="0.1529" stop-color="#087CFA"/>
<stop offset="0.6343" stop-color="#009AE5"/>
<stop offset="1" stop-color="#07C3F2"/>
</linearGradient>
<linearGradient id="paint20_linear" x1="49.7709" y1="16.2395" x2="43.8105" y2="43.6909" gradientUnits="userSpaceOnUse">
<stop stop-color="#FF188D"/>
<stop offset="0.3188" stop-color="#D82EC8"/>
<stop offset="0.4411" stop-color="#CC30CC"/>
<stop offset="0.6628" stop-color="#AC35D7"/>
<stop offset="0.8981" stop-color="#833CE5"/>
</linearGradient>
<linearGradient id="paint21_linear" x1="37.0306" y1="22.7129" x2="48.658" y2="39.1104" gradientUnits="userSpaceOnUse">
<stop stop-color="#FF188D"/>
<stop offset="0.3188" stop-color="#D82EC8"/>
<stop offset="0.4411" stop-color="#CC30CC"/>
<stop offset="0.6628" stop-color="#AC35D7"/>
<stop offset="0.8981" stop-color="#833CE5"/>
</linearGradient>
<linearGradient id="paint22_linear" x1="14.2285" y1="18.9895" x2="65.4121" y2="60.7175" gradientUnits="userSpaceOnUse">
<stop stop-color="#521713"/>
<stop offset="0.080028" stop-color="#451310"/>
<stop offset="0.2989" stop-color="#270B09"/>
<stop offset="0.514" stop-color="#110504"/>
<stop offset="0.7218" stop-color="#040101"/>
<stop offset="0.9138"/>
</linearGradient>
<linearGradient id="paint23_linear" x1="15" y1="34.3438" x2="65" y2="34.3438" gradientUnits="userSpaceOnUse">
<stop offset="0.2464" stop-color="#FE2857"/>
<stop offset="0.292" stop-color="#FE265F"/>
<stop offset="0.3641" stop-color="#FE1F76"/>
<stop offset="0.4534" stop-color="#FF159B"/>
<stop offset="0.4574" stop-color="#FF149D"/>
<stop offset="0.536" stop-color="#EF1AB2"/>
<stop offset="0.6983" stop-color="#C82BE9"/>
<stop offset="0.7574" stop-color="#B831FF"/>
<stop offset="0.811" stop-color="#A33AFE"/>
<stop offset="0.9215" stop-color="#6C52FD"/>
<stop offset="1" stop-color="#4164FC"/>
</linearGradient>
<linearGradient id="paint24_linear" x1="16.0228" y1="34.2869" x2="65" y2="34.2869" gradientUnits="userSpaceOnUse">
<stop offset="0.1118" stop-color="#F7941D"/>
<stop offset="0.1374" stop-color="#F88C25"/>
<stop offset="0.178" stop-color="#F9753A"/>
<stop offset="0.2284" stop-color="#FB505D"/>
<stop offset="0.2863" stop-color="#FF1C8C"/>
<stop offset="0.2928" stop-color="#FF1692"/>
<stop offset="0.4031" stop-color="#EA1A93"/>
<stop offset="0.4677" stop-color="#DB1D93"/>
<stop offset="0.5543" stop-color="#9F2895"/>
<stop offset="0.7229" stop-color="#21409A"/>
<stop offset="0.8671" stop-color="#222F5C"/>
<stop offset="1" stop-color="#231F20"/>
</linearGradient>
<linearGradient id="paint25_linear" x1="15" y1="40.2983" x2="65" y2="40.2983" gradientUnits="userSpaceOnUse">
<stop offset="0.0878508" stop-color="#FE2857"/>
<stop offset="0.1283" stop-color="#FE265F"/>
<stop offset="0.1923" stop-color="#FE1F76"/>
<stop offset="0.2716" stop-color="#FF159B"/>
<stop offset="0.2751" stop-color="#FF149D"/>
<stop offset="0.4167" stop-color="#B21871"/>
<stop offset="0.5427" stop-color="#741B4E"/>
<stop offset="0.6489" stop-color="#481D35"/>
<stop offset="0.731" stop-color="#2D1E26"/>
<stop offset="0.7791" stop-color="#231F20"/>
</linearGradient>
<linearGradient id="paint26_linear" x1="19.8399" y1="33.4241" x2="39.4202" y2="44.3152" gradientUnits="userSpaceOnUse">
<stop offset="0.00629908" stop-color="#FF45ED"/>
<stop offset="0.1766" stop-color="#FF35D8"/>
<stop offset="0.3352" stop-color="#FF24C0"/>
<stop offset="0.451" stop-color="#EA24B0"/>
<stop offset="0.6916" stop-color="#B22388"/>
<stop offset="1" stop-color="#63214F"/>
</linearGradient>
<linearGradient id="paint27_linear" x1="22.8542" y1="56.9992" x2="43.2251" y2="56.9992" gradientUnits="userSpaceOnUse">
<stop offset="0.4574" stop-color="#FF149D"/>
<stop offset="0.536" stop-color="#EF1AB2"/>
<stop offset="0.6983" stop-color="#C82BE9"/>
<stop offset="0.7574" stop-color="#B831FF"/>
<stop offset="0.8388" stop-color="#A33AFE"/>
<stop offset="1" stop-color="#6E51FD"/>
</linearGradient>
<linearGradient id="paint28_linear" x1="15" y1="51.3185" x2="43.2252" y2="51.3185" gradientUnits="userSpaceOnUse">
<stop offset="0.00442798" stop-color="#FFDE17"/>
<stop offset="0.0386836" stop-color="#FECB12"/>
<stop offset="0.0790912" stop-color="#FDBB0E"/>
<stop offset="0.1111" stop-color="#FDB60D"/>
<stop offset="0.1673" stop-color="#FDAE0F"/>
<stop offset="0.2521" stop-color="#FC9A15"/>
<stop offset="0.3323" stop-color="#FC801D"/>
<stop offset="0.7374" stop-color="#BE1E2D"/>
</linearGradient>
<linearGradient id="paint29_linear" x1="34.6979" y1="56.9992" x2="65" y2="56.9992" gradientUnits="userSpaceOnUse">
<stop stop-color="#087CFA"/>
<stop offset="0.7942" stop-color="#231F20"/>
</linearGradient>
<linearGradient id="paint30_linear" x1="85.4024" y1="62.5991" x2="53.5411" y2="11.0043" gradientUnits="userSpaceOnUse">
<stop offset="0.3486" stop-color="#3595F3"/>
<stop offset="0.4019" stop-color="#3490EB"/>
<stop offset="0.4865" stop-color="#3284D4"/>
<stop offset="0.5918" stop-color="#2F6FAE"/>
<stop offset="0.7135" stop-color="#2B527B"/>
<stop offset="0.8476" stop-color="#252D39"/>
<stop offset="0.8951" stop-color="#231F20"/>
</linearGradient>
<linearGradient id="paint31_linear" x1="16.0228" y1="34.2869" x2="65" y2="34.2869" gradientUnits="userSpaceOnUse">
<stop offset="0.1118" stop-color="#F7941D"/>
<stop offset="0.1374" stop-color="#F88C25"/>
<stop offset="0.178" stop-color="#F9753A"/>
<stop offset="0.2284" stop-color="#FB505D"/>
<stop offset="0.2863" stop-color="#FF1C8C"/>
<stop offset="0.2928" stop-color="#FF1692"/>
<stop offset="0.4031" stop-color="#EA1A93"/>
<stop offset="0.4677" stop-color="#DB1D93"/>
<stop offset="0.5543" stop-color="#9F2895"/>
<stop offset="0.7229" stop-color="#21409A"/>
<stop offset="0.8671" stop-color="#222F5C"/>
<stop offset="1" stop-color="#231F20"/>
</linearGradient>
</defs>
</svg>
