<svg ti:v="1" width="16" height="16" viewBox="0 0 16 16" xmlns="http://www.w3.org/2000/svg" xmlns:ti="urn:schemas-jetbrains-com:tisvg"><rect id="frame" width="16" height="16" fill="none"/><linearGradient id="a" x1=".5" y1=".019" x2=".5" y2="1.02"><stop offset="0" stop-color="#566980"/><stop offset="1" stop-color="#2D3642"/></linearGradient><path fill-rule="evenodd" d="M2.344 1.268A12.671 12.671 0 0 0 2 4.208C2 9.138 4.636 13 8 13s6-3.862 6-8.792c0-.997-.115-1.987-.344-2.941L13.32.153l-1.083.449C10.939 1.14 9.469 1.75 8 1.75c-1.469 0-2.939-.61-4.301-1.174L2.615.127l-.271 1.141z" fill="url(#a)"/><linearGradient id="b" x1=".5" y1="0" x2=".5" y2="1"><stop offset="0" stop-color="#F6FBFF"/><stop offset="1" stop-color="#E8F4FF"/></linearGradient><path fill-rule="evenodd" d="M8 2.75c-1.694 0-3.286-.671-4.684-1.25A11.725 11.725 0 0 0 3 4.208C3 8.511 5.24 12 8 12c2.759 0 5-3.489 5-7.792 0-.952-.114-1.862-.316-2.708-1.398.579-2.99 1.25-4.684 1.25z" fill="url(#b)"/><path fill-rule="evenodd" d="M10.289 5.95c.856.219 1.211-.325 1.211-.812C11.5 4.138 10.667 4 9 4c0 0 .013 1.625 1.289 1.95zM7 4c-1.667 0-2.5.138-2.5 1.138 0 .487.354 1.031 1.211.812C6.987 5.625 7 4 7 4zm3.5 4c0 .936-1.301 2-2.5 2S5.5 8.936 5.5 8c1.667 1 3.333 1 5 0z"/><linearGradient id="c" x1=".5" y1="-.005" x2=".5" y2="1.025"><stop offset="0" stop-color="#429041"/><stop offset="1" stop-color="#056E1C"/></linearGradient><path fill-rule="evenodd" d="M2 8v2H0v4h2v2h4v-2h2v-4H6V8H2z" fill="url(#c)"/><linearGradient id="d" x1=".5" y1=".013" x2=".5" y2="1.027"><stop offset="0" stop-color="#A3FFA1"/><stop offset=".012" stop-color="#A3FFA1"/><stop offset=".988" stop-color="#31D454"/><stop offset="1" stop-color="#31D454"/></linearGradient><path fill-rule="evenodd" d="M3 9v2H1v2h2v2h2v-2h2v-2H5V9H3z" fill="url(#d)"/></svg>