<svg ti:v="1" width="16" height="16" viewBox="0 0 16 16" xmlns="http://www.w3.org/2000/svg" xmlns:ti="urn:schemas-jetbrains-com:tisvg"><rect id="frame" width="16" height="16" fill="none"/><g fill-rule="evenodd"><path d="M8 13c-3.364 0-6-3.862-6-8.792 0-.992.115-1.981.344-2.939L2.615.127l1.084.449C5.061 1.141 6.531 1.75 8 1.75c1.469 0 2.939-.609 4.237-1.147l1.083-.45.336 1.115c.229.954.344 1.943.344 2.94C14 9.138 11.364 13 8 13z" fill="#242424"/><path d="M8 2.75c-1.693 0-3.286-.671-4.684-1.25A11.725 11.725 0 0 0 3 4.208C3 8.512 5.239 12 8 12c2.76 0 5-3.488 5-7.792 0-.952-.114-1.862-.316-2.708C11.286 2.079 9.693 2.75 8 2.75z" fill="#C3C3C3"/><path d="M10.289 5.95c.856.219 1.211-.325 1.211-.812C11.5 4.138 10.667 4 9 4c0 0 .013 1.625 1.289 1.95zM7 4c-1.667 0-2.5.138-2.5 1.138 0 .487.354 1.031 1.211.812C6.987 5.625 7 4 7 4zm3.5 4c0 .936-1.301 2-2.5 2S5.5 8.936 5.5 8c1.667 1 3.333 1 5 0z" fill="#282828"/><path d="M2 16v-2H0v-4h2V8h4v2h2v4H6v2H2z" fill="#242424"/><path d="M7 11H5V9H3v2H1v2h2v2h2v-2h2v-2z" fill="#8CCF8C"/></g></svg>