<svg xmlns="http://www.w3.org/2000/svg" width="16" height="16" viewBox="0 0 16 16">
  <g fill="none" fill-rule="evenodd">
    <path fill="#9AA7B0" fill-opacity=".8" d="M7.9846,4 L6.6966,2.711 C6.3046,2.32 5.5326,2 4.9786,2 L1.0506,2 C1.0226,2 1.0006,2.023 1.0006,2.051 L1.0006,13 L4.0006,13 L4.0006,7 L15.0006,7 L15.0006,4 L7.9846,4 Z"/>
    <polygon fill="#F4AF3D" fill-opacity=".6" points="5 16 16 16 16 8 5 8"/>
    <polygon fill="#231F20" fill-opacity=".7" points="4 6 0 6 0 0 4 0 4 1 1 1 1 2 3 2 3 3 1 3 1 5 4 5" transform="translate(7 9)"/>
  </g>
</svg>
