<svg xmlns="http://www.w3.org/2000/svg" width="16" height="16" viewBox="0 0 16 16">
  <g fill="none" fill-rule="evenodd">
    <path fill="#F4AF3D" fill-opacity=".6" d="M9.72556457,1.21352412 L8.073224,2.86586469 L11.9623113,6.75495198 L14.1204121,4.59685115 C14.6808672,5.60387155 15,6.7641312 15,7.9998 C15,11.8658 11.866,14.9998 8,14.9998 C4.134,14.9998 1,11.8658 1,7.9998 C1,4.1338 4.134,0.9998 8,0.9998 C8.5956213,0.9998 9.17371387,1.07394649 9.72556457,1.21352412 Z"/>
    <polygon fill="#231F20" fill-opacity=".7" points="4 6 0 6 0 0 4 0 4 1 1 1 1 2 3 2 3 3 1 3 1 5 4 5" transform="translate(6 5)"/>
    <polygon fill="#40B6E0" points="14.432 4.932 14.432 -.568 12.932 -.568 12.932 3.432 10.932 3.432 10.932 4.932" transform="rotate(45 12.682 2.182)"/>
  </g>
</svg>
