<svg xmlns="http://www.w3.org/2000/svg" width="16" height="16" viewBox="0 0 16 16">
  <g fill="none" fill-rule="evenodd">
    <path fill="#9AA7B0" d="M16,2.5 C16,3.88071429 14.8807143,5 13.5,5 C12.1192857,5 11,3.88071429 11,2.5 C11,1.11928571 12.1192857,0 13.5,0 C14.8807143,0 16,1.11928571 16,2.5"/>
    <path fill="#F4AF3D" fill-opacity=".6" d="M13.5,5.7998 C11.681,5.7998 10.2,4.3198 10.2,2.4998 C10.2,2.1228 10.277,1.7668 10.395,1.4298 C9.646,1.1558 8.842,0.9998 8,0.9998 C4.134,0.9998 1,4.1338 1,7.9998 C1,11.8658 4.134,14.9998 8,14.9998 C11.866,14.9998 15,11.8658 15,7.9998 C15,7.1578 14.844,6.3538 14.571,5.6058 C14.233,5.7228 13.877,5.7998 13.5,5.7998"/>
    <polygon fill="#231F20" fill-opacity=".7" points="4 6 0 6 0 0 4 0 4 1 1 1 1 2 3 2 3 3 1 3 1 5 4 5" transform="translate(6 5)"/>
  </g>
</svg>
