<svg xmlns="http://www.w3.org/2000/svg" width="16" height="16" viewBox="0 0 16 16">
  <g fill="none" fill-rule="evenodd">
    <path fill="#F4AF3D" fill-opacity=".6" d="M9,8 L15,8 C15,4.134 11.866,1 8,1 C4.134,1 1,4.134 1,8 C1,11.866 4.134,15 8,15 C8.34,15 8.673,14.967 9,14.92 L9,8 Z"/>
    <path fill="#9AA7B0" d="M10,16 L16,16 L16,9 L10,9 L10,16 Z M11,15 L15.001,15 L15.001,10 L11,10 L11,15 Z"/>
    <polygon fill="#9AA7B0" points="12 12 14 12 14 10.999 12 10.999"/>
    <polygon fill="#9AA7B0" points="12 14 14 14 14 13 12 13"/>
    <path fill="#231F20" fill-opacity=".7" d="M9,11 L6,11 L6,5 L10,5 L10,6 L7,6 L7,7 L9,7 L9,8 L7,8 L7,10 L9,10 L9,11 Z"/>
  </g>
</svg>
