<svg xmlns="http://www.w3.org/2000/svg" width="16" height="16" viewBox="0 0 16 16">
  <g fill="none" fill-rule="evenodd">
    <path fill="#F98B9E" fill-opacity=".6" d="M8.5,14.9824181 L8.5,1.01758193 C12.1326435,1.27395426 15,4.30211674 15,8 C15,11.6978833 12.1326435,14.7260457 8.5,14.9824181 Z"/>
    <path fill="#F4AF3D" fill-opacity=".6" d="M1,14.9824181 L1,1.01758193 C4.63264354,1.27395426 7.5,4.30211674 7.5,8 C7.5,11.6978833 4.63264354,14.7260457 1,14.9824181 Z" transform="matrix(-1 0 0 1 8.5 0)"/>
    <polygon fill="#231F20" fill-opacity=".7" points="0 0 .979 0 .979 3.018 3.641 0 4.854 0 2.522 2.58 4.957 6 3.76 6 1.853 3.3 .979 4.26 .979 6 0 6" transform="translate(6 5)"/>
  </g>
</svg>
