<svg xmlns="http://www.w3.org/2000/svg" width="16" height="16" viewBox="0 0 16 16">
  <g fill="none" fill-rule="evenodd">
    <path fill="#F98B9E" fill-opacity=".6" d="M10.1931596,1.35044264 C10.068006,1.71050591 10,2.09731113 10,2.5 C10,4.43299662 11.5670034,6 13.5,6 C13.9026889,6 14.2894941,5.93199404 14.6495574,5.80684043 C14.8769572,6.49669773 15,7.23397948 15,8 C15,11.6978833 12.1326435,14.7260457 8.5,14.9824181 L8.5,1.01758193 C9.08735529,1.05903429 9.65470365,1.17294969 10.1931596,1.35044264 Z"/>
    <path fill="#F4AF3D" fill-opacity=".6" d="M1,14.9824181 L1,1.01758193 C4.63264354,1.27395426 7.5,4.30211674 7.5,8 C7.5,11.6978833 4.63264354,14.7260457 1,14.9824181 Z" transform="matrix(-1 0 0 1 8.5 0)"/>
    <path fill="#9AA7B0" d="M16,2.5 C16,3.88071429 14.8807143,5 13.5,5 C12.1192857,5 11,3.88071429 11,2.5 C11,1.11928571 12.1192857,0 13.5,0 C14.8807143,0 16,1.11928571 16,2.5"/>
    <polygon fill="#231F20" fill-opacity=".7" points="0 0 1.097 0 3 2.837 4.914 0 6 0 6 6 5 6 5 1.603 3 4.419 2.965 4.419 1 1.619 1 6 0 6" transform="translate(5 5)"/>
  </g>
</svg>
