<svg width="16" height="16" viewBox="0 0 16 16" fill="none" xmlns="http://www.w3.org/2000/svg"><rect id="frame" width="16" height="16" fill="none"/><path fill-rule="evenodd" clip-rule="evenodd" d="M0 1v8.75h2.265V4.383l2.925 4.07h.06L8.205 4.34v1.81C8.849 5.951 9.551 5.938 10.4 6l.1.008V1H8.01L5.25 5.07 2.49 1H0z" fill="#AFB1B3"/><path fill-rule="evenodd" clip-rule="evenodd" d="M15.646 12.015v3.572l-1.259-1.26a4.047 4.047 0 0 1-6.908-2.34l1.362.12a2.734 2.734 0 0 0 4.616 1.291l-1.383-1.383h3.572zm-3.938-4.559a4.047 4.047 0 0 1 3.795 3.473l-1.353-.117a2.734 2.734 0 0 0-4.67-1.16l1.433 1.434H7.341V7.515L8.55 8.724a4.037 4.037 0 0 1 3.158-1.268z" fill="#3592C4"/></svg>