<svg xmlns="http://www.w3.org/2000/svg" width="16" height="16" viewBox="0 0 16 16"><rect id="frame" width="16" height="16" fill="none"/><g fill="none" fill-rule="evenodd"><path fill="#0095DD" d="M4.686 12.38a.308.308 0 0 1-.298-.388c.509-1.9.411-6.98.41-7.031a.308.308 0 0 1 .302-.314h.006c.167 0 .304.134.308.302.004.212.1 5.22-.431 7.202a.308.308 0 0 1-.297.228z"/><path fill="#7658B1" d="M9.122 8.552c-.619 0-1.14-.255-1.174-.272a.308.308 0 0 1 .275-.551c.018.01.969.465 1.608-.007a.307.307 0 1 1 .366.495 1.773 1.773 0 0 1-1.075.335z"/><path fill="#FF8A12" d="M10.342 11.536c-.246 0-.525-.015-.838-.034a.308.308 0 0 1 .038-.615c.645.04 1.376.085 1.552-.13.128-.156.1-.584-.08-1.271-.446-1.688-.059-2.256.34-2.657a1.56 1.56 0 0 0 .075-.079c.27-.307 1.142-.782 1.314-.875a.308.308 0 1 1 .29.543c-.387.207-.997.574-1.14.738-.03.034-.066.07-.103.108-.229.23-.574.577-.182 2.064.252.953.24 1.48-.038 1.82-.25.305-.65.388-1.228.388z"/><path fill="#DB0012" d="M9.73 15.994c-.76 0-1.507-.34-2.028-.954-1.226-1.447-2.123-1.433-2.133-1.435a.305.305 0 0 1-.32-.292.305.305 0 0 1 .283-.322c.12-.007 1.213-.032 2.64 1.65.54.639 1.355.889 2.123.652 1.498-.46 2.559-2.592 2.91-5.849.31-2.879.493-5.822-.93-7.407-.847-.943-2.226-1.401-4.218-1.401C3.781.636 2.9 3.423 2.72 4.62c-.271 1.805.424 3.674 1.487 4.001a.308.308 0 1 1-.181.588C2.669 8.793 1.793 6.65 2.11 4.53 2.536 1.706 4.758.02 8.057.02c2.177 0 3.706.525 4.676 1.605 1.593 1.774 1.409 4.868 1.084 7.885-.519 4.81-2.316 6.057-3.34 6.372a2.541 2.541 0 0 1-.747.112z"/></g></svg>