<svg xmlns="http://www.w3.org/2000/svg" width="16" height="16" viewBox="0 0 16 16"><rect id="frame" width="16" height="16" fill="none"/><g fill="none" fill-rule="evenodd"><path fill="#40B6E0" fill-opacity=".7" d="M1 16h15V9H1z"/><path fill="#231F20" fill-opacity=".7" d="M9.9 12.5c.664 0 1.1-.116 1.1-.75S10.557 11 9.9 11H9v1.5h.9zM8 10h1.971c1.171 0 2.029.642 2.029 1.65 0 1.636-1.029 1.85-2.128 1.85H9V15H8v-5z"/><path fill="#231F20" fill-opacity=".7" d="M5.15 13l-.654-1.6L3.85 13h1.3zm-1.041-3h.781L7 15H5.9l-.5-1H3.6l-.5 1H2l2.109-5z"/><path fill="#231F20" fill-opacity=".7" d="M13 15h1v-5h-1z"/><path fill="#9AA7B0" fill-opacity=".8" d="M7 1L3 5h4z"/><path fill="#9AA7B0" fill-opacity=".8" d="M8 1v5H3v2h10V1z"/></g></svg>