<svg xmlns="http://www.w3.org/2000/svg" width="16" height="16" viewBox="0 0 16 16"><rect id="frame" width="16" height="16" fill="none"/><g fill="none" fill-rule="evenodd"><path fill="#F4AF3D" fill-opacity=".6" d="M15 8A7 7 0 1 1 1 8a7 7 0 0 1 14 0"/><path fill="#231F20" fill-opacity=".7" d="M6 11V5h2.674c.755 0 1.346.223 1.732.6.317.326.497.771.497 1.294v.017c0 .986-.592 1.578-1.423 1.818L11.1 11H9.849L8.374 8.909h-1.32V11H6zm1.054-3.026h1.543c.754 0 1.234-.394 1.234-1.003v-.017c0-.643-.462-.994-1.242-.994H7.054v2.014z"/></g></svg>