<svg ti:v="1" width="16" height="16" viewBox="0 0 16 16" xmlns="http://www.w3.org/2000/svg" xmlns:ti="urn:schemas-jetbrains-com:tisvg"><rect id="frame" width="16" height="16" fill="none"/><path d="M11.85 15a2.65 2.65 0 0 1-2.09-1l-.33-.41-1.55 1.27-6.11-7.55a3.53 3.53 0 0 1-.43-3.708A3.48 3.48 0 0 1 2.3 2.39l.77-.62a3.45 3.45 0 0 1 4.86.52l6.51 8.12A2.55 2.55 0 0 1 15 12a2.51 2.51 0 0 1-.94 2l-.54.44a2.68 2.68 0 0 1-1.67.56zm0 0" fill="#252525"/><path d="M12.03.65L.15 12.53v.82l2 2h.83L14.85 3.48v-.83l-2-2h-.82z" fill="#252525"/><path d="M11.85 14a1.64 1.64 0 0 1-1.31-.63l-5.61-7 .77-.62 5.62 7a.67.67 0 0 0 .95.1l.53-.43a.54.54 0 0 0 .08-.76L6.37 3.55a1.41 1.41 0 0 0-1-.54 1.44 1.44 0 0 0-1.07.32L3.55 4a1.49 1.49 0 0 0-.22 2.1l5.47 6.72-.8.63-5.45-6.77a2.51 2.51 0 0 1 .37-3.51l.78-.62a2.44 2.44 0 0 1 3.45.37L13.66 11c.23.282.35.637.34 1a1.5 1.5 0 0 1-.57 1.19l-.54.44a1.65 1.65 0 0 1-1.04.37zm0 0" fill="#C4C4C4"/><path d="M1.143 12.946L12.436 1.654l1.414 1.414L2.557 14.36z" fill="#F28366"/></svg>