<svg ti:v="1" width="16" height="16" viewBox="0 0 16 16" xmlns="http://www.w3.org/2000/svg" xmlns:ti="urn:schemas-jetbrains-com:tisvg"><rect id="frame" width="16" height="16" fill="none"/><g fill-rule="evenodd"><path d="M13 16H3v-2l1-1h8l1 1v2z" fill="#242424"/><path d="M15 13c.55 0 1-.45 1-1V1c0-.55-.45-1-1-1H1C.45 0 0 .45 0 1v11c0 .55.45 1 1 1h14z" fill="#242424"/><path d="M15 12H1V1h14v11z" fill="#C3C3C3"/><path d="M14 9H2V2h12v7z" fill="#292929"/><path d="M11 14v-1H5v1H4v1h8v-1h-1z" fill="#C3C3C3"/><path d="M14 10H2V9h12v1z" fill="#C3C3C3"/><path d="M.479 9.5a6 6 0 0 1 12 0 6 6 0 0 1-12 0z" fill="#242424"/><path d="M6.479 4.357a5.144 5.144 0 0 0 0 10.286 5.144 5.144 0 0 0 0-10.286z" fill="#8CCF8C"/><path d="M4.479 6.5v6l5-3-5-3z" fill="#292929"/></g></svg>