<svg ti:v="1" width="16" height="16" viewBox="0 0 16 16" xmlns="http://www.w3.org/2000/svg" xmlns:ti="urn:schemas-jetbrains-com:tisvg"><rect id="frame" width="16" height="16" fill="none"/><linearGradient id="a" x1=".5" y1="0" x2=".5" y2="1"><stop offset="0" stop-color="#7C2C00"/><stop offset="1" stop-color="#470000"/></linearGradient><path fill-rule="evenodd" d="M1 8a7 7 0 0 0 7 7A7 7 0 1 0 8 1a7 7 0 0 0-7 7z" fill="url(#a)"/><linearGradient id="b" x1=".5" y1=".021" x2=".5" y2="1"><stop offset="0" stop-color="#FF7B00"/><stop offset="1" stop-color="red"/></linearGradient><path fill-rule="evenodd" d="M2 8c0 3.315 2.686 6 6 6s6-2.685 6-6A6 6 0 1 0 2 8z" fill="url(#b)"/><path fill-rule="evenodd" d="M9.74 5.401L8.078 7.063 6.416 5.401a.785.785 0 0 0-1.109 1.108L6.97 8.171 5.307 9.834a.783.783 0 1 0 1.109 1.108L8.078 9.28l1.662 1.662a.783.783 0 1 0 1.108-1.108L9.186 8.171l1.662-1.662A.783.783 0 1 0 9.74 5.401z" fill="#FFF"/></svg>