<svg ti:v="1" width="16" height="16" viewBox="0 0 16 16" xmlns="http://www.w3.org/2000/svg" xmlns:ti="urn:schemas-jetbrains-com:tisvg"><rect id="frame" width="16" height="16" fill="none"/><linearGradient id="a" x1=".5" y1=".021" x2=".5" y2="1.021"><stop offset="0" stop-color="#1E2233"/><stop offset="1" stop-color="#525566"/></linearGradient><path fill-rule="evenodd" d="M4 13l-1 1v2h10v-2l-1-1H4z" fill="url(#a)"/><linearGradient id="b" x1=".5" y1="0" x2=".5" y2="1.01"><stop offset="0" stop-color="#666A80"/><stop offset="1" stop-color="#1E2233"/></linearGradient><path fill-rule="evenodd" d="M1 0C.45 0 0 .45 0 1v11c0 .55.45 1 1 1h14c.55 0 1-.45 1-1V1c0-.55-.45-1-1-1H1z" fill="url(#b)"/><linearGradient id="c" x1=".5" y1=".011" x2=".5" y2="1"><stop offset="0" stop-color="#FFF"/><stop offset="1" stop-color="#CDCFD8"/></linearGradient><path fill-rule="evenodd" d="M1.5 1c-.275 0-.5.225-.5.5v10c0 .275.225.5.5.5h13c.275 0 .5-.225.5-.5v-10c0-.275-.225-.5-.5-.5h-13z" fill="url(#c)"/><linearGradient id="d" x1=".5" y1=".009" x2=".5" y2=".991"><stop offset="0" stop-color="#221E1F"/><stop offset="1" stop-color="#6D6D70"/></linearGradient><path fill-rule="evenodd" d="M2 9h12V2H2v7z" fill="url(#d)"/><linearGradient id="e" x1=".5" y1="0" x2=".5" y2="1.032"><stop offset="0" stop-color="#909399"/><stop offset=".699" stop-color="#FFF"/><stop offset="1" stop-color="#FFF"/></linearGradient><path fill-rule="evenodd" d="M5 13v1H4v1h8v-1h-1v-1H5z" fill="url(#e)"/><path fill-rule="evenodd" d="M14 10H2V9h12v1z"/><linearGradient id="f" x1=".5" y1="0" x2=".5" y2="1"><stop offset="0" stop-color="#3C7380"/><stop offset="1" stop-color="#093C6D"/></linearGradient><path fill-rule="evenodd" d="M0 10a6 6 0 1 0 12 0 6 6 0 1 0-12 0z" fill="url(#f)"/><linearGradient id="g" x1=".5" y1="0" x2=".5" y2="1"><stop offset="0" stop-color="#D5EFFF"/><stop offset="1" stop-color="#73C9FF"/></linearGradient><path fill-rule="evenodd" d="M.923 10a5.078 5.078 0 0 0 10.154 0A5.077 5.077 0 1 0 .923 10z" fill="url(#g)"/><linearGradient id="h" x1=".5" y1="1" x2=".5" y2="0"><stop offset="0" stop-color="#3C7380"/><stop offset="1" stop-color="#093C6D"/></linearGradient><path fill-rule="evenodd" d="M3.5 12.5h2.001v-5H3.5v5z" fill="url(#h)"/><linearGradient id="i" x1=".5" y1="1" x2=".5" y2="0"><stop offset="0" stop-color="#3C7380"/><stop offset="1" stop-color="#093C6D"/></linearGradient><path fill-rule="evenodd" d="M6.5 12.5h2v-5h-2v5z" fill="url(#i)"/></svg>