<svg ti:v="1" width="16" height="16" viewBox="0 0 16 16" xmlns="http://www.w3.org/2000/svg" xmlns:ti="urn:schemas-jetbrains-com:tisvg"><rect id="frame" width="16" height="16" fill="none"/><linearGradient id="a" x1=".5" y1=".021" x2=".5" y2="1.021"><stop offset="0" stop-color="#1E2233"/><stop offset="1" stop-color="#525566"/></linearGradient><path fill-rule="evenodd" d="M13 16H3v-2l1-1h8l1 1v2z" fill="url(#a)"/><linearGradient id="b" x1=".5" y1="0" x2=".5" y2="1.01"><stop offset="0" stop-color="#666A80"/><stop offset="1" stop-color="#1E2233"/></linearGradient><path fill-rule="evenodd" d="M1 0C.45 0 0 .45 0 1v11c0 .55.45 1 1 1h14c.55 0 1-.45 1-1V1c0-.55-.45-1-1-1H1z" fill="url(#b)"/><linearGradient id="c" x1=".5" y1=".011" x2=".5" y2="1"><stop offset="0" stop-color="#FFF"/><stop offset="1" stop-color="#CDCFD8"/></linearGradient><path fill-rule="evenodd" d="M1.5 1c-.275 0-.5.225-.5.5v10c0 .275.225.5.5.5h13c.275 0 .5-.225.5-.5v-10c0-.275-.225-.5-.5-.5h-13z" fill="url(#c)"/><linearGradient id="d" x1=".5" y1=".009" x2=".5" y2=".991"><stop offset="0" stop-color="#221E1F"/><stop offset="1" stop-color="#6D6D70"/></linearGradient><path fill-rule="evenodd" d="M2 9h12V2H2v7z" fill="url(#d)"/><linearGradient id="e" x1=".5" y1="0" x2=".5" y2="1.032"><stop offset="0" stop-color="#909399"/><stop offset=".699" stop-color="#FFF"/><stop offset="1" stop-color="#FFF"/></linearGradient><path fill-rule="evenodd" d="M5 13v1H4v1h8v-1h-1v-1H5z" fill="url(#e)"/><path fill-rule="evenodd" d="M14 10H2V9h12v1z"/><linearGradient id="f" x1=".5" y1="0" x2=".5" y2="1"><stop offset="0" stop-color="#37AC0D"/><stop offset="1" stop-color="#007033"/></linearGradient><path fill-rule="evenodd" d="M.5 9.562a6.001 6.001 0 0 0 6 6.001 6.002 6.002 0 0 0 0-12.001 6 6 0 0 0-6 6z" fill="url(#f)"/><linearGradient id="g" x1=".5" y1="0" x2=".5" y2="1"><stop offset="0" stop-color="#8CFF62"/><stop offset=".192" stop-color="#5AE26A"/><stop offset="1" stop-color="#29C672"/></linearGradient><path fill-rule="evenodd" d="M1.357 9.562a5.143 5.143 0 1 0 10.286 0 5.143 5.143 0 0 0-10.286 0z" fill="url(#g)"/><linearGradient id="h" x1=".5" y1="0" x2=".5" y2="1"><stop offset="0" stop-color="#221E1F"/><stop offset="1" stop-color="#6D6D70"/></linearGradient><path fill-rule="evenodd" d="M4.518 12.681L9.5 9.562l-5-2.999.018 6.118z" fill="url(#h)"/></svg>