<svg ti:v="1" width="16" height="16" viewBox="0 0 16 16" xmlns="http://www.w3.org/2000/svg" xmlns:ti="urn:schemas-jetbrains-com:tisvg"><rect id="frame" width="16" height="16" fill="none"/><linearGradient id="a" x1=".5" y1=".021" x2=".5" y2="1.021"><stop offset="0" stop-color="#1E2233"/><stop offset="1" stop-color="#525566"/></linearGradient><path fill-rule="evenodd" d="M4 13l-1 1v2h10v-2l-1-1H4z" fill="url(#a)"/><linearGradient id="b" x1=".5" y1="0" x2=".5" y2="1.01"><stop offset="0" stop-color="#666A80"/><stop offset="1" stop-color="#1E2233"/></linearGradient><path fill-rule="evenodd" d="M1 0C.45 0 0 .45 0 1v11c0 .55.45 1 1 1h14c.55 0 1-.45 1-1V1c0-.55-.45-1-1-1H1z" fill="url(#b)"/><linearGradient id="c" x1=".5" y1=".011" x2=".5" y2="1"><stop offset="0" stop-color="#FFF"/><stop offset="1" stop-color="#CDCFD8"/></linearGradient><path fill-rule="evenodd" d="M1.5 1c-.275 0-.5.225-.5.5v10c0 .275.225.5.5.5h13c.275 0 .5-.225.5-.5v-10c0-.275-.225-.5-.5-.5h-13z" fill="url(#c)"/><linearGradient id="d" x1=".5" y1=".009" x2=".5" y2=".991"><stop offset="0" stop-color="#221E1F"/><stop offset="1" stop-color="#6D6D70"/></linearGradient><path fill-rule="evenodd" d="M2 9h12V2H2v7z" fill="url(#d)"/><linearGradient id="e" x1=".5" y1="0" x2=".5" y2="1.032"><stop offset="0" stop-color="#909399"/><stop offset=".699" stop-color="#FFF"/><stop offset="1" stop-color="#FFF"/></linearGradient><path fill-rule="evenodd" d="M5 13v1H4v1h8v-1h-1v-1H5z" fill="url(#e)"/><path fill-rule="evenodd" d="M14 10H2V9h12v1z"/><linearGradient id="f" x1=".31" y1=".31" x2=".708" y2=".708"><stop offset="0" stop-color="#9C7733"/><stop offset="1" stop-color="#6D2121"/></linearGradient><path fill-rule="evenodd" d="M7.586 10L4 13.586v.828L5.586 16h.828L10 12.414v-.828L8.414 10h-.828z" fill="url(#f)"/><linearGradient id="g" x1=".375" y1=".375" x2=".625" y2=".625"><stop offset="0" stop-color="#FFDF78"/><stop offset="1" stop-color="#D88C00"/></linearGradient><path fill-rule="evenodd" d="M5 14l1 1 3-3-1-1-3 3z" fill="url(#g)"/><linearGradient id="h" x1=".5" y1=".013" x2=".5" y2="1"><stop offset="0" stop-color="#3C7380"/><stop offset="1" stop-color="#093C6D"/></linearGradient><path fill-rule="evenodd" d="M7 8.5a4.5 4.5 0 0 0 4.5 4.5 4.5 4.5 0 1 0 0-9A4.5 4.5 0 0 0 7 8.5z" fill="url(#h)"/><linearGradient id="i" x1=".5" y1=".006" x2=".5" y2="1"><stop offset="0" stop-color="#D5EFFF"/><stop offset="1" stop-color="#73C9FF"/></linearGradient><path fill-rule="evenodd" d="M8 8.5c0 1.934 1.566 3.5 3.5 3.5S15 10.434 15 8.5a3.5 3.5 0 1 0-7 0z" fill="url(#i)"/><linearGradient id="j" x1=".5" y1=".013" x2=".5" y2="1"><stop offset="0" stop-color="#509EE8"/><stop offset=".736" stop-color="#FFF"/><stop offset="1" stop-color="#FFF"/></linearGradient><path fill-rule="evenodd" d="M9 8.5a2.5 2.5 0 1 0 5 0 2.5 2.5 0 1 0-5 0z" fill="url(#j)"/><linearGradient id="k" x1=".5" y1=".013" x2=".5" y2=".988"><stop offset="0" stop-color="#FFF"/><stop offset=".288" stop-color="#FFF"/><stop offset="1" stop-color="#BCF5FF"/></linearGradient><path fill-rule="evenodd" d="M10 8.5a1.5 1.5 0 0 0 3 0 1.5 1.5 0 0 0-3 0z" fill="url(#k)"/></svg>