<svg ti:v="1" width="16" height="16" viewBox="0 0 16 16" xmlns="http://www.w3.org/2000/svg" xmlns:ti="urn:schemas-jetbrains-com:tisvg"><rect id="frame" width="16" height="16" fill="none"/><linearGradient id="a" x1=".5" y1="0" x2=".5" y2=".981"><stop offset="0" stop-color="#7C2C00"/><stop offset="1" stop-color="#470000"/></linearGradient><path fill-rule="evenodd" d="M12.661 1L8.143 4.697 6.18 1.868c-.407-.477-1.039-.752-1.735-.752-.681 0-1.335.274-1.764.703-.77.771-1.005 2.468 0 3.474l2.314 2.388L.66 11.705c-.999.976-.754 2.985.003 3.47.53.339 1.07.71 1.734.71.668 0 1.281-.253 1.755-.747L8.1 10.645 14.14 16H16v-1.355l-5.28-6.913 4.279-5.345V1h-2.338z" fill="url(#a)"/><linearGradient id="b" x1=".5" y1="-.003" x2=".5" y2=".973"><stop offset="0" stop-color="#FFA88E"/><stop offset="1" stop-color="red"/></linearGradient><path fill-rule="evenodd" d="M13.019 2L7.941 6.159 5.42 2.516c-.485-.57-1.543-.494-2.016 0-.493.507-.591 1.465 0 2.082L6.428 7.72l-5.042 4.682c-.455.455-.505 1.562 0 2.082.504.521 1.474.563 2.018 0l4.61-5.253 6.481 5.774h.504L9.453 7.72 14.028 2h-1.009z" fill="url(#b)"/></svg>