<svg ti:v="1" width="16" height="16" viewBox="0 0 16 16" xmlns="http://www.w3.org/2000/svg" xmlns:ti="urn:schemas-jetbrains-com:tisvg"><rect id="frame" width="16" height="16" fill="none"/><linearGradient id="a" x1=".5" y1="0" x2=".5" y2=".994"><stop offset="0" stop-color="#54582E"/><stop offset="1" stop-color="#241900"/></linearGradient><path fill-rule="evenodd" d="M0 8a8 8 0 0 0 16 0A8 8 0 0 0 0 8z" fill="url(#a)"/><linearGradient id="b" x1=".5" y1=".007" x2=".5" y2="1"><stop offset="0" stop-color="#99AF54"/><stop offset="1" stop-color="#FFF"/></linearGradient><path fill-rule="evenodd" d="M1 8a7 7 0 1 0 14 0 7 7 0 0 0-7-7 7 7 0 0 0-7 7z" fill="url(#b)"/><linearGradient id="c" x1=".5" y1=".007" x2=".5" y2="1"><stop offset="0" stop-color="#D7FFB8"/><stop offset="1" stop-color="#70E650"/></linearGradient><path fill-rule="evenodd" d="M7.913 3.001a5 5 0 1 0 .174 9.998A5.001 5.001 0 0 0 8.003 3l-.09.001z" fill="url(#c)"/><path fill-rule="evenodd" d="M8.951 11.498a.502.502 0 0 1-.426-.34L6.879 6.219 5.435 8.748A.502.502 0 0 1 5 9H2V8h2.71l1.855-3.248a.525.525 0 0 1 .484-.25.502.502 0 0 1 .426.34l1.646 4.939 1.444-2.529A.502.502 0 0 1 11 7h3v1h-2.71l-1.855 3.248A.502.502 0 0 1 9 11.5z" fill="#22303B"/></svg>