<svg ti:v="1" width="16" height="16" viewBox="0 0 16 16" xmlns="http://www.w3.org/2000/svg" xmlns:ti="urn:schemas-jetbrains-com:tisvg"><rect id="frame" width="16" height="16" fill="none"/><g fill-rule="evenodd"><path d="M16 8A8 8 0 1 1 0 8a8 8 0 0 1 16 0z" fill="#F4F4F4"/><path d="M8 1a7 7 0 1 0 0 14A7 7 0 0 0 8 1z" fill="#313131"/><path d="M7.913 3.001a5 5 0 1 0 .174 9.998 5 5 0 0 0-.174-9.998z" fill="#EBEBEB"/><path d="M8.951 11.498a.502.502 0 0 1-.426-.34L6.879 6.219 5.435 8.748A.502.502 0 0 1 5 9H2V8h2.71l1.855-3.248a.525.525 0 0 1 .484-.25.502.502 0 0 1 .426.34l1.646 4.939 1.444-2.529A.502.502 0 0 1 11 7h3v1h-2.71l-1.855 3.248A.502.502 0 0 1 9 11.5z" fill="#313131"/></g></svg>