<svg ti:v="1" width="16" height="16" viewBox="0 0 16 16" xmlns="http://www.w3.org/2000/svg" xmlns:ti="urn:schemas-jetbrains-com:tisvg"><rect id="frame" width="16" height="16" fill="none"/><g fill-rule="evenodd"><path d="M14.999 2.387V1h-2.338L8.143 4.698 6.18 1.869c-.407-.478-1.039-.752-1.735-.752-.68 0-1.335.273-1.764.703-.77.77-1.004 2.467 0 3.473l2.314 2.388L.66 11.705c-1 .977-.754 2.986.003 3.47.53.339 1.07.711 1.734.711.668 0 1.281-.253 1.755-.747L8.1 10.645 14.14 16H16v-1.354l-5.28-6.913 4.279-5.346z" fill="#242424"/><path d="M9.454 7.72L14.028 2h-1.009L7.942 6.16 5.42 2.516c-.485-.569-1.544-.494-2.018 0-.491.508-.59 1.466 0 2.082L6.428 7.72l-5.042 4.683c-.453.454-.504 1.561 0 2.082.503.52 1.475.562 2.017 0l4.611-5.254 6.481 5.774h.504L9.454 7.72z" fill="#F28366"/></g></svg>