<svg ti:v="1" width="16" height="16" viewBox="0 0 16 16" xmlns="http://www.w3.org/2000/svg" xmlns:ti="urn:schemas-jetbrains-com:tisvg"><rect id="frame" width="16" height="16" fill="none"/><g fill-rule="evenodd"><path d="M15 8A7 7 0 1 1 1 8a7 7 0 0 1 14 0z" fill="#242424"/><path d="M14 8c0 3.315-2.686 6-6 6s-6-2.685-6-6a6 6 0 1 1 12 0z" fill="#F28366"/><path d="M9.725 5.401L8.063 7.063 6.401 5.401a.785.785 0 0 0-1.109 1.108l1.663 1.662-1.663 1.663a.783.783 0 1 0 1.109 1.108L8.063 9.28l1.662 1.662a.783.783 0 1 0 1.108-1.108L9.171 8.171l1.662-1.662a.783.783 0 1 0-1.108-1.108z" fill="#FFF"/></g></svg>