<svg ti:v="1" width="16" height="16" viewBox="0 0 16 16" xmlns="http://www.w3.org/2000/svg" xmlns:ti="urn:schemas-jetbrains-com:tisvg"><rect id="frame" width="16" height="16" fill="none"/><g fill-rule="evenodd"><path d="M13 16H3v-2l1-1h8l1 1v2z" fill="#242424"/><path d="M15 13c.55 0 1-.45 1-1V1c0-.55-.45-1-1-1H1C.45 0 0 .45 0 1v11c0 .55.45 1 1 1h14z" fill="#242424"/><path d="M15 12H1V1h14v11z" fill="#C3C3C3"/><path d="M14 9H2V2h12v7z" fill="#292929"/><path d="M11 14v-1H5v1H4v1h8v-1h-1z" fill="#C3C3C3"/><path d="M14 10H2V9h12v1z" fill="#C3C3C3"/><path d="M7.586 10L4 13.586v.828L5.586 16h.828L10 12.414v-.828L8.414 10h-.828z" fill="#242424"/><path d="M5 14l1 1 3-3-1-1-3 3z" fill="#7CBDFF"/><path d="M16 8.5a4.5 4.5 0 1 1-9 0 4.5 4.5 0 0 1 9 0z" fill="#242424"/><path d="M15 8.5c0 1.934-1.566 3.5-3.5 3.5A3.499 3.499 0 0 1 8 8.5C8 6.566 9.566 5 11.5 5S15 6.566 15 8.5z" fill="#7CBDFF"/><path d="M14 8.5a2.5 2.5 0 1 1-5 0 2.5 2.5 0 0 1 5 0z" fill="#292929"/><path d="M13 8.5a1.5 1.5 0 1 1-3.001-.001A1.5 1.5 0 0 1 13 8.5z" fill="#292929"/></g></svg>