<svg ti:v="1" width="16" height="16" viewBox="0 0 16 16" xmlns="http://www.w3.org/2000/svg" xmlns:ti="urn:schemas-jetbrains-com:tisvg"><rect id="frame" width="16" height="16" fill="none"/><linearGradient id="a" x1=".5" y1="0" x2=".5" y2=".983"><stop offset="0" stop-color="#8A181A"/><stop offset="1" stop-color="#C42026"/></linearGradient><path d="M15 2.39V1h-2.34L8.14 4.7l-2-2.83a2.25 2.25 0 0 0-1.73-.75 2.53 2.53 0 0 0-1.77.7 2.6 2.6 0 0 0 0 3.47L5 7.68l-4.34 4c-1 1-.75 3 0 3.46a3.28 3.28 0 0 0 1.74.72 2.38 2.38 0 0 0 1.75-.75l3.95-4.5 6 5.36H16v-1.32l-5.28-6.92zm0 0" fill="url(#a)"/><linearGradient id="b" x1=".499" y1="-.003" x2=".499" y2=".973"><stop offset="0" stop-color="#F8A78F"/><stop offset="1" stop-color="#ED2224"/></linearGradient><path d="M9.45 7.72L14 2h-1L7.94 6.16 5.42 2.52a1.47 1.47 0 0 0-2 0 1.54 1.54 0 0 0 0 2.08l3 3.12-5 4.68a1.67 1.67 0 0 0 0 2.08 1.44 1.44 0 0 0 2 0L8 9.23 14.5 15h.5zm0 0" fill="url(#b)"/></svg>