<svg ti:v="1" width="16" height="16" viewBox="0 0 16 16" xmlns="http://www.w3.org/2000/svg" xmlns:ti="urn:schemas-jetbrains-com:tisvg"><rect id="frame" width="16" height="16" fill="none"/><path d="M12 0l-.62 1.87a7.002 7.002 0 0 0-9.219 2.268 7.002 7.002 0 0 0 1.52 9.371 7.002 7.002 0 0 0 9.464-.762A7.002 7.002 0 0 0 15 8V0zM8 11.5a3.501 3.501 0 0 1 0-7h.43L7 5v3h4.5A3.501 3.501 0 0 1 8 11.5zm0 0" fill="#F4F4F4"/><path d="M13 1l-.89 2.66A5.942 5.942 0 0 0 8 2a6.002 6.002 0 0 0-4.59 9.87A6.002 6.002 0 0 0 13.91 9h-1.53a4.501 4.501 0 0 1-7.908 1.803A4.501 4.501 0 0 1 8 3.5a4.42 4.42 0 0 1 3.18 1.35L8 6v1h6V1zm0 0" fill="#388A34"/></svg>