<svg ti:v="1" width="16" height="16" viewBox="0 0 16 16" xmlns="http://www.w3.org/2000/svg" xmlns:ti="urn:schemas-jetbrains-com:tisvg"><rect id="frame" width="16" height="16" fill="none"/><linearGradient id="a" x1=".5" y1="0" x2=".5" y2="1"><stop offset="0" stop-color="#586B80"/><stop offset="1" stop-color="#2E3842"/></linearGradient><path d="M0 8h13v5H0z" fill="url(#a)"/><linearGradient id="b" x1=".5" y1="0" x2=".5" y2="1"><stop offset="0" stop-color="#FFF"/><stop offset="1" stop-color="#DEECF9"/></linearGradient><path d="M1 9h11v3H1z" fill="url(#b)"/><linearGradient id="c" x1=".5" y1="0" x2=".5" y2="1"><stop offset="0" stop-color="#1F578F"/><stop offset="1" stop-color="#191A4D"/></linearGradient><path d="M8.67 3L8 3.67V0H5v3.67L4.33 3H3v2.91L6.09 9h.82L10 5.91V3H8.67z" fill="url(#c)"/><linearGradient id="d" x1=".5" y1="0" x2=".5" y2="1"><stop offset="0" stop-color="#E9F6F9"/><stop offset="1" stop-color="#9CDCF9"/></linearGradient><path d="M7 1H6v5.09l-2-2V5.5L6.5 8 9 5.5V4.09l-2 2V1z" fill="url(#d)"/><linearGradient id="e" x1=".5" y1="0" x2=".5" y2="1"><stop offset="0" stop-color="#A92828"/><stop offset="1" stop-color="#691911"/></linearGradient><path d="M8 8h8v8H8z" fill="url(#e)"/><linearGradient id="f" x1=".5" y1="0" x2=".5" y2="1"><stop offset="0" stop-color="#F6CB98"/><stop offset="1" stop-color="#F79356"/></linearGradient><path d="M9 9h6v6H9z" fill="url(#f)"/><linearGradient id="g" x1=".5" y1="0" x2=".5" y2="1"><stop offset="0" stop-color="#EF3C24"/><stop offset="1" stop-color="#F79356"/></linearGradient><path d="M10 10h4v4h-4z" fill="url(#g)"/></svg>