<svg ti:v="1" width="16" height="16" viewBox="0 0 16 16" xmlns="http://www.w3.org/2000/svg" xmlns:ti="urn:schemas-jetbrains-com:tisvg"><rect id="frame" width="16" height="16" fill="none"/><linearGradient id="a" x1=".5" y1="0" x2=".5" y2="1"><stop offset="0" stop-color="#586B80"/><stop offset="1" stop-color="#2E3842"/></linearGradient><path d="M0 8h13v5H0z" fill="url(#a)"/><linearGradient id="b" x1=".5" y1="0" x2=".5" y2="1"><stop offset="0" stop-color="#FFF"/><stop offset="1" stop-color="#DEECF9"/></linearGradient><path d="M1 9h11v3H1z" fill="url(#b)"/><linearGradient id="c" x1=".5" y1="0" x2=".5" y2="1"><stop offset="0" stop-color="#1F578F"/><stop offset="1" stop-color="#191A4D"/></linearGradient><path d="M8.67 3L8 3.67V0H5v3.67L4.33 3H3v2.91L6.09 9h.82L10 5.91V3H8.67z" fill="url(#c)"/><linearGradient id="d" x1=".5" y1="0" x2=".5" y2="1"><stop offset="0" stop-color="#E9F6F9"/><stop offset="1" stop-color="#9CDCF9"/></linearGradient><path d="M7 1H6v5.09l-2-2V5.5L6.5 8 9 5.5V4.09l-2 2V1z" fill="url(#d)"/><linearGradient id="e" x1=".499" y1="-.006" x2=".499" y2=".994"><stop offset="0" stop-color="#09713A"/><stop offset="1" stop-color="#3AAD49"/></linearGradient><path d="M16 8.86l-1-2.67-.91-.19-.68 1.19A5.002 5.002 0 0 0 5 10.924a5.002 5.002 0 0 0 8.521 3.473A5.002 5.002 0 0 0 15 10.9zm0 0" fill="url(#e)"/><linearGradient id="f" x1=".502" y1="-.001" x2=".502" y2="1.001"><stop offset="0" stop-color="#E2EFD2"/><stop offset="1" stop-color="#83C998"/></linearGradient><path d="M10.93 11h3.13L15 8.62l-.55-1.5-.81 1.74a4.051 4.051 0 0 0-7.406 3.239 4.051 4.051 0 0 0 7.296.671l-1-.3a3.05 3.05 0 1 1 .3-3l-2.59.37zm0 0" fill="url(#f)"/></svg>