<svg ti:v="1" width="16" height="16" viewBox="0 0 16 16" xmlns="http://www.w3.org/2000/svg" xmlns:ti="urn:schemas-jetbrains-com:tisvg"><rect id="frame" width="16" height="16" fill="none"/><path d="M0 8h13v5H0z" fill="#F4F4F4"/><path d="M1 9h11v3H1z" fill="#323232"/><path d="M8.67 3L8 3.67V0H5v3.67L4.33 3H3v2.91L6.09 9h.82L10 5.91V3H8.67z" fill="#F4F4F4"/><path d="M7 1H6v5.09l-2-2V5.5L6.5 8 9 5.5V4.09l-2 2V1z" fill="#00539C"/><path d="M8 8h8v8H8z" fill="#F4F4F4"/><path d="M9 9h6v6H9z" fill="#A1260D"/><path d="M10 10h4v4h-4z" fill="#A1260D"/></svg>