<svg ti:v="1" width="16" height="16" viewBox="0 0 16 16" xmlns="http://www.w3.org/2000/svg" xmlns:ti="urn:schemas-jetbrains-com:tisvg"><rect id="frame" width="16" height="16" fill="none"/><path d="M0 8h13v5H0z" fill="#F4F4F4"/><path d="M1 9h11v3H1z" fill="#323232"/><path d="M8.67 3L8 3.67V0H5v3.67L4.33 3H3v2.91L6.09 9h.82L10 5.91V3H8.67z" fill="#F4F4F4"/><path d="M7 1H6v5.09l-2-2V5.5L6.5 8 9 5.5V4.09l-2 2V1z" fill="#00539C"/><path d="M16 8.86l-1-2.67-.91-.19-.68 1.19A5.002 5.002 0 0 0 5 10.924a5.002 5.002 0 0 0 8.521 3.473A5.002 5.002 0 0 0 15 10.9zm0 0" fill="#F4F4F4"/><path d="M10.93 11h3.13L15 8.62l-.55-1.5-.81 1.74a4.051 4.051 0 0 0-7.406 3.239 4.051 4.051 0 0 0 7.296.671l-1-.3a3.05 3.05 0 1 1 .3-3l-2.59.37zm0 0" fill="#388A34"/></svg>