<svg ti:v="1" width="16" height="16" viewBox="0 0 16 16" xmlns="http://www.w3.org/2000/svg" xmlns:ti="urn:schemas-jetbrains-com:tisvg"><rect id="frame" width="16" height="16" fill="none"/><path d="M7 0h3v16H7z" fill="#252525"/><path d="M8 0h1v16H8z" fill="#C4C4C4"/><path d="M9 1h7v14H9z" fill="#252525"/><path d="M10 2h5v12h-5z" fill="#C4C4C4"/><path d="M12 4h4v8h-4z" fill="#252525"/><path d="M1 1h7v14H1z" fill="#252525"/><path d="M2 2h5v12H2z" fill="#C4C4C4"/><path d="M1 4h4v8H1z" fill="#252525"/><path d="M9 9H8v1h1zm0 4H8v1h1zm0 2H8v1h1zm0-4H8v1h1zm0 0" fill="#252525"/><path d="M9 1H8v1h1zm0 4H8v1h1zm0 2H8v1h1zm0-4H8v1h1zm0 0" fill="#252525"/></svg>