<svg ti:v="1" width="16" height="16" viewBox="0 0 16 16" xmlns="http://www.w3.org/2000/svg" xmlns:ti="urn:schemas-jetbrains-com:tisvg"><rect id="frame" width="16" height="16" fill="none"/><linearGradient id="a" x1=".5" y1="0" x2=".5" y2="1"><stop offset="0" stop-color="#A92828"/><stop offset="1" stop-color="#691911"/></linearGradient><path d="M12 8a4 4 0 1 1-8 0 4 4 0 0 1 8 0z" fill="url(#a)"/><linearGradient id="b" x1=".5" y1="0" x2=".5" y2="1"><stop offset="0" stop-color="#F6CB98"/><stop offset="1" stop-color="#F79356"/></linearGradient><path d="M11 8a3 3 0 1 1-6 0 3 3 0 0 1 6 0z" fill="url(#b)"/><linearGradient id="c" x1=".5" y1="0" x2=".5" y2="1"><stop offset="0" stop-color="#EF3C24"/><stop offset="1" stop-color="#F79356"/></linearGradient><path d="M10 8a2 2 0 1 1-4 0 2 2 0 0 1 4 0z" fill="url(#c)"/></svg>