<svg ti:v="1" width="32" height="32" viewBox="0 0 32 32" xmlns="http://www.w3.org/2000/svg" xmlns:ti="urn:schemas-jetbrains-com:tisvg"><rect id="frame" width="32" height="32" fill="none"/><linearGradient id="a" x1=".237" y1=".017" x2=".861" y2=".996"><stop offset="0" stop-color="#C30A54"/><stop offset=".22" stop-color="#C30A54"/><stop offset=".683" stop-color="#E243E6"/><stop offset=".925" stop-color="#F49152"/><stop offset="1" stop-color="#F49152"/></linearGradient><path fill-rule="evenodd" d="M9.213 6.946l6.319 9.809L5.281 32 0 10.545l9.213-3.599z" fill="url(#a)"/><linearGradient id="b" x1="1.027" y1="1.047" x2="-.28" y2=".259"><stop offset="0" stop-color="#FFBC00"/><stop offset=".113" stop-color="#FFBC00"/><stop offset=".586" stop-color="#E243E6"/><stop offset=".817" stop-color="#EB841A"/><stop offset=".935" stop-color="#FFBC00"/><stop offset="1" stop-color="#FFBC00"/></linearGradient><path fill-rule="evenodd" d="M8.637 7.171L9.607 0 23.41 15.374l-4.006 3.944L22.5 32H5.281L8.637 7.171z" fill="url(#b)"/><linearGradient id="c" x1=".092" y1="-.041" x2=".999" y2="1.087"><stop offset="0" stop-color="#FFBC00"/><stop offset=".129" stop-color="#FFBC00"/><stop offset=".64" stop-color="#E243E6"/><stop offset=".909" stop-color="#C30A54"/><stop offset="1" stop-color="#C30A54"/></linearGradient><path fill-rule="evenodd" d="M16.118 21.518H32L26.691 0H9.607l6.511 21.518z" fill="url(#c)"/><path fill-rule="evenodd" d="M5 27h22V5H5v22z" fill="#2D2D34"/><path fill-rule="evenodd" d="M12.183 11.08c-.221.221-.662.331-1.103.331H8.985V8.764h1.985c.551 0 .882.111 1.213.331.331.221.441.552.441.993 0 .441-.22.771-.441.992zm.484 1.698c.556-.222 1.111-.556 1.444-1 .334-.445.556-1 .556-1.778 0-.889-.222-1.556-.778-2.111C13.334 7.333 12.334 7 11.223 7H7v9h2v-2.778h1.667L12.556 16h2.333m2.17-1.073H15v-1.854h2.059V11h1.883v2.073H21v1.854h-2.058V17h-1.883m3-7.073H18V8.073h2.059V6h1.883v2.073H24v1.854h-2.058V12h-1.883V9.927z" fill="#FFF"/><path fill-rule="evenodd" d="M7 22h8v2H7v-2z" fill="#FFF"/></svg>