<svg xmlns="http://www.w3.org/2000/svg" width="16" height="16" viewBox="0 0 16 16"><rect id="frame" width="16" height="16" fill="none"/><g fill="none" fill-rule="evenodd"><path fill="#9AA7B0" fill-opacity=".6" d="M1 3h14v10H1z"/><path fill="#231F20" fill-opacity=".7" d="M4.992 11C3.23 11 2 9.65 2 8.017V8c0-1.633 1.246-3 3.008-3S8 6.35 8 7.983V8c0 1.633-1.246 3-3.008 3zm.016-.945c1.14 0 1.935-.911 1.935-2.038V8c0-1.127-.812-2.055-1.951-2.055-1.14 0-1.935.911-1.935 2.038V8c0 1.127.812 2.055 1.951 2.055z"/><path fill="#231F20" fill-opacity=".7" d="M9 11V5h1.054v3.017L12.9 5h1.311l-2.502 2.58L14.323 11h-1.286l-2.048-2.7-.935.96V11z"/></g></svg>