<svg xmlns="http://www.w3.org/2000/svg" width="16" height="16" viewBox="0 0 16 16"><rect id="frame" width="16" height="16" fill="none"/><g fill="none" fill-rule="evenodd"><path fill="#9AA7B0" fill-opacity=".8" d="M1 3h14v10H1V3zm1 1v8h12V4H2z"/><path fill="#F26522" fill-opacity=".7" d="M6.894 9.603H4.57L4.084 11H3l2.266-6h.936l2.27 6H7.386l-.49-1.397zm-2.031-.84h1.739l-.87-2.49-.87 2.49zm7.92.144c0 .67-.148 1.202-.447 1.597-.299.396-.71.594-1.233.594-.504 0-.897-.182-1.179-.546l-.048.466H9V4.9h.968v2.223c.279-.33.654-.494 1.127-.494.526 0 .939.195 1.239.585.3.39.45.936.45 1.637v.056zm-.964-.084c0-.468-.082-.818-.247-1.052-.165-.234-.404-.35-.717-.35-.42 0-.714.183-.884.55v1.776c.172.374.47.561.892.561.303 0 .536-.113.7-.338.166-.226.25-.567.256-1.024v-.123z"/></g></svg>