<svg xmlns="http://www.w3.org/2000/svg" width="16" height="16" viewBox="0 0 16 16"><rect id="frame" width="16" height="16" fill="none"/><g fill="none" fill-rule="evenodd"><path fill="#F26522" d="M10.714 14.307l-.707.707-2-2-1.293 1.293-.707.707-2-2-2 2-.707-.707L4.007 11.6l.707.707L6.007 13.6l2-2 .707.707 1.293 1.293 1.293-1.293.707-.707 2.707 2.707-.707.707-2-2-1.293 1.293z"/><path fill="#9AA7B0" fill-opacity=".8" d="M8.99 6.5l3.394 3.394-.99.99L8 7.49l-3.394 3.394-.99-.99L7.01 6.5 3.616 3.106l.99-.99L8 5.51l3.394-3.394.99.99L8.99 6.5z"/></g></svg>