<svg xmlns="http://www.w3.org/2000/svg" width="17" height="16" viewBox="0 0 17 16"><rect id="frame" width="17" height="16" fill="none"/><path fill="#9AA7B0" fill-opacity=".8" fill-rule="evenodd" d="M6.841 9.905H3.355L2.625 12H1l3.4-9h1.403l3.406 9H7.577L6.84 9.905zM3.794 8.644h2.608L5.098 4.91 3.794 8.644zm11.944.182c0 1.015-.227 1.822-.68 2.422-.453.6-1.076.9-1.87.9-.764 0-1.36-.276-1.787-.828l-.072.707H10V2.75h1.468v3.37c.422-.5.992-.749 1.709-.749.797 0 1.423.296 1.878.888.455.592.683 1.42.683 2.482v.085zm-1.464-.128c0-.709-.125-1.24-.374-1.594-.25-.355-.612-.532-1.087-.532-.636 0-1.083.278-1.341.834v2.693c.262.568.713.852 1.353.852.459 0 .813-.171 1.063-.514.25-.342.378-.86.386-1.552v-.187z"/></svg>