<svg xmlns="http://www.w3.org/2000/svg" width="16" height="16" viewBox="0 0 16 16">
  <g fill="none" fill-rule="evenodd">
    <path fill="#62B543" fill-opacity=".7" d="M6,14.2567386 C5.44990906,14.2411885 4.9260417,14.2329451 4.44717245,14.2546012 C4.44717245,14.2546012 3.94283089,14.2832335 3.43439732,14.3670851 C3.43439732,14.3670851 3.62672229,14.2852786 3.87224354,14.2004045 C4.74572487,13.8984975 5.41821682,13.7019199 6,13.5242045 L6,14.2567386 Z M12.9658332,6.79954541 C12.999995,6.66068343 13.0293772,6.52135782 13.0537151,6.3817562 C13.0094547,6.51135931 12.9605958,6.64004046 12.9074037,6.76767477 L11.5,6 L6,9 L6,12.3691677 C4.39627046,12.8297088 2.50243959,13.206664 2.50243959,13.2074791 L2.38172498,13.1430565 C0.354128707,12.1572892 0.297863422,7.76939754 3.97863607,6.35516911 C5.59293826,5.73446293 7.13665308,6.07600472 8.88087692,5.65981457 C10.7417233,5.21805992 12.8961723,3.81917019 13.7718647,2 C14.3279566,3.64733789 14.9468933,5.82045558 14.9967723,7.90733037 L12.9658332,6.79954541 Z"/>
    <path fill="#9AA7B0" d="M11.5,7 L16,9.5 L11.5,12 L7,9.5 L11.5,7 Z M15.1,11 L16,11.5 L11.5,14 L7,11.5 L7.9,11 L11.5,13 L15.1,11 Z M15.1,13 L16,13.5 L11.5,16 L7,13.5 L7.9,13 L11.5,15 L15.1,13 Z"/>
  </g>
</svg>
