<svg xmlns="http://www.w3.org/2000/svg" width="16" height="16" viewBox="0 0 16 16"><rect id="frame" width="16" height="16" fill="none"/><g fill="none" fill-rule="evenodd"><path fill="#62B543" fill-opacity=".7" d="M6 14.257a21.641 21.641 0 0 0-1.553-.002s-.504.028-1.013.112c0 0 .193-.082.438-.167.874-.302 1.546-.498 2.128-.676v.733zM12.966 6.8c.034-.14.063-.279.088-.418-.045.13-.093.258-.147.386L11.5 6 6 9v3.37c-1.604.46-3.498.837-3.498.837l-.12-.064C.354 12.157.298 7.77 3.979 6.355c1.614-.62 3.158-.279 4.902-.695 1.86-.442 4.015-1.84 4.89-3.66.557 1.647 1.176 3.82 1.226 5.907L12.966 6.8z"/><path fill="#9AA7B0" d="M11.5 7L16 9.5 11.5 12 7 9.5 11.5 7zm3.6 4l.9.5-4.5 2.5L7 11.5l.9-.5 3.6 2 3.6-2zm0 2l.9.5-4.5 2.5L7 13.5l.9-.5 3.6 2 3.6-2z"/></g></svg>