<svg width="80" height="80" viewBox="0 0 80 80" fill="none" xmlns="http://www.w3.org/2000/svg">
<path d="M77 22.7224L73.4887 50.0909L71.5854 62.1344L47.1703 77L16.9796 53.8319L53.7335 15.3388L77 22.7224Z" fill="url(#paint0_linear)"/>
<path d="M47.2031 70.8634L47.2359 73.0621H49.7628L50.616 71.7494L47.2031 70.8634Z" fill="url(#paint1_linear)"/>
<path d="M69.7477 60.8217L73.4887 50.0581L75.6217 65.6457L69.7477 60.8217Z" fill="url(#paint2_linear)"/>
<path d="M77 22.7224L34.3721 51.8301L15.0763 54.7508L53.7335 4.21419L77 22.7224Z" fill="url(#paint3_linear)"/>
<path d="M45.6279 15.0763L53.7335 4.21419L52.3224 26.5947L45.6279 15.0763Z" fill="url(#paint4_linear)"/>
<path d="M14.8794 54.6195L3.82043 46.6124L14.42 36.1113L46.1202 48.9424L14.8794 54.6195Z" fill="url(#paint5_linear)"/>
<path d="M33.0595 67.0896L8.97253 75.1951L15.0435 58.1636L44.4794 46.7765L60.9202 56.8838L33.0595 67.0896Z" fill="url(#paint6_linear)"/>
<path d="M26.2665 18.5876L13.7308 3L37.949 5.85499L40.6727 13.7965L26.2665 18.5876Z" fill="url(#paint7_linear)"/>
<path d="M73.4887 50.0581L37.949 5.855L24.8883 6.05189L17.5375 27.5463L63.7424 52.8803L55.9322 64.3659L71.5854 62.1344L73.4887 50.0581Z" fill="url(#paint8_linear)"/>
<path d="M17.4391 28.7933L9.23511 28.5965L13.7309 3L24.8883 6.05188L17.4391 28.7933Z" fill="url(#paint9_linear)"/>
<path d="M63.7423 52.8803L43.0355 48.4173L3 32.3047L17.7344 27.7432L63.7423 52.8803Z" fill="url(#paint10_linear)"/>
<path d="M23.5757 9.89136L17.7016 27.7432L17.636 27.7761L17.7344 27.7432L46.7109 43.5933L47.3016 43.7246L59.2466 34.8315L23.5757 9.89136Z" fill="url(#paint11_linear)"/>
<path d="M13.7308 3L3 32.3047L16.6514 28.8262L17.7016 27.7432L23.5756 9.89135L13.7308 3Z" fill="url(#paint12_linear)"/>
<path d="M8.97253 75.1951L18.1282 38.5069L43.0355 48.4173L8.97253 75.1951Z" fill="url(#paint13_linear)"/>
<path d="M43.0355 48.4173L29.1544 36.4723L10.2524 34.733L3.82043 46.6124L17.3406 41.165L17.4719 41.0993L8.97254 75.1951L43.0355 48.4173Z" fill="url(#paint14_linear)"/>
<path d="M63.7424 52.8803L50.8129 71.8151L33.0266 67.188L43.0355 48.4173L63.7424 52.8803Z" fill="url(#paint15_linear)"/>
<path d="M63.7423 52.8803L43.0355 48.4173L3 32.3047L17.7344 27.7432L63.7423 52.8803Z" fill="url(#paint16_linear)"/>
<path d="M17.7344 27.7432L3 32.3047L46.7109 43.5933L17.7344 27.7432Z" fill="url(#paint17_linear)"/>
<path d="M71.5854 62.1344L55.4727 64.3987L47.1703 77L75.6217 65.6457L71.5854 62.1344Z" fill="url(#paint18_linear)"/>
<path d="M47.1703 77L55.7681 64.4971L32.9938 67.2865L47.1703 77Z" fill="url(#paint19_linear)"/>
<path d="M59.2466 34.8315L40.4103 21.6395L30.467 34.6346L47.3016 43.7246L58.5903 35.3237L59.2466 34.8315Z" fill="url(#paint20_linear)"/>
<path d="M63 17H17V63H63V17Z" fill="url(#paint21_linear)"/>
<g opacity="0.3">
<path d="M62.1827 63L63 62.9019V53.1592L56.2651 63H62.1827Z" fill="url(#paint22_linear)"/>
<path d="M46.457 17H21.6098L17.9481 27.7889L61.0384 51.4264L18.1116 27.9524L17 28.312V37.8259L42.9915 48.2878L63 52.6034V52.5053V37.597L46.457 17Z" fill="url(#paint23_linear)"/>
<path d="M21.6097 17L17.948 27.7889L62.9999 52.5053V37.597L46.4569 17H21.6097Z" fill="url(#paint24_linear)"/>
<path d="M17 17V29.0313L17.0654 28.9986L18.0789 27.9524L21.6752 17H17Z" fill="#85FFF6"/>
<path d="M17 28.312V37.8259L42.9915 48.2878L63 52.6034V52.5053L18.1116 27.9524L17 28.312Z" fill="url(#paint25_linear)"/>
<path d="M17 35.8969L46.5878 43.5146L18.1116 27.9524L17 28.312V35.8969Z" fill="url(#paint26_linear)"/>
<path d="M35.1122 63L42.9914 48.2879L24.2252 63H35.1122Z" fill="url(#paint27_linear)"/>
<path d="M17 44.5935L17.8827 41.0625L17.7193 41.1279L17 41.4222V44.5935Z" fill="#F7941D"/>
<path d="M17 41.4222L17.7193 41.1279L17.8827 41.0625L17 44.5935V63H24.2253L42.9915 48.2878L17 37.8259V41.4222Z" fill="url(#paint28_linear)"/>
<path d="M35.1123 63H56.2651L63 53.1592V52.6034L42.9915 48.2879L35.1123 63Z" fill="url(#paint29_linear)"/>
<path d="M60.1884 34.0661L63 32.1699V17H46.457L60.1884 34.0661Z" fill="url(#paint30_linear)"/>
</g>
<path d="M39.9 54.3H22.7V57.2001H39.9V54.3Z" fill="white"/>
<path d="M31.2999 25.9V22.8H22.7999V25.9H25.1999V36.8H22.7999V39.9001H31.2999V36.8H28.8999V25.9H31.2999Z" fill="white"/>
<path d="M39.6 40.2001C38.3 40.2001 37.1 39.9001 36.2 39.4001C35.3 38.9001 34.5 38.3001 34 37.6001L36.4 35.0001C36.9 35.5001 37.4 36.0001 37.9 36.3001C38.4 36.6001 38.9 36.8001 39.6 36.8001C40.3 36.8001 40.9 36.6001 41.3 36.1001C41.7 35.7001 41.9 34.9001 41.9 33.9001V22.9001H45.8V34.0001C45.8 35.0001 45.7 35.9001 45.4 36.7001C45 37.4001 44.6 38.0001 44 38.6001C43.5 39.1001 42.8 39.5001 42.1 39.8001C41.3 40.0001 40.5 40.2001 39.6 40.2001Z" fill="white"/>
<defs>
<linearGradient id="paint0_linear" x1="78.6203" y1="22.6725" x2="61.0066" y2="40.4028" gradientUnits="userSpaceOnUse">
<stop offset="0.2859" stop-color="#087CFA"/>
<stop offset="1" stop-color="#079AF6"/>
</linearGradient>
<linearGradient id="paint1_linear" x1="49.007" y1="72.5158" x2="49.6201" y2="73.4055" gradientUnits="userSpaceOnUse">
<stop offset="0.2859" stop-color="#087CFA"/>
<stop offset="1" stop-color="#079AF6"/>
</linearGradient>
<linearGradient id="paint2_linear" x1="71.3818" y1="67.1775" x2="76.691" y2="51.1808" gradientUnits="userSpaceOnUse">
<stop offset="0.2708" stop-color="#08DBF9"/>
<stop offset="0.4026" stop-color="#15CDF3"/>
<stop offset="0.651" stop-color="#36A9E5"/>
<stop offset="0.9871" stop-color="#6B6ECD"/>
<stop offset="1" stop-color="#6D6CCC"/>
</linearGradient>
<linearGradient id="paint3_linear" x1="78.4624" y1="7.22141" x2="35.4369" y2="33.239" gradientUnits="userSpaceOnUse">
<stop offset="0.286" stop-color="#0AEFFF"/>
<stop offset="0.3292" stop-color="#09DEFA"/>
<stop offset="0.3966" stop-color="#07CAF4"/>
<stop offset="0.442" stop-color="#07C3F2"/>
<stop offset="0.5015" stop-color="#07ACF5"/>
<stop offset="0.5749" stop-color="#0897F7"/>
<stop offset="0.6568" stop-color="#0888F9"/>
<stop offset="0.7528" stop-color="#087FFA"/>
<stop offset="0.8981" stop-color="#087CFA"/>
</linearGradient>
<linearGradient id="paint4_linear" x1="49.673" y1="2.4671" x2="49.673" y2="31.0055" gradientUnits="userSpaceOnUse">
<stop offset="0.207" stop-color="#02C5FE"/>
<stop offset="0.317" stop-color="#04ACFD"/>
<stop offset="0.4435" stop-color="#0697FB"/>
<stop offset="0.5845" stop-color="#0788FB"/>
<stop offset="0.7499" stop-color="#087FFA"/>
<stop offset="1" stop-color="#087CFA"/>
</linearGradient>
<linearGradient id="paint5_linear" x1="8.44726" y1="36.553" x2="21.6283" y2="45.6515" gradientUnits="userSpaceOnUse">
<stop stop-color="#42FFFA"/>
<stop offset="0.157" stop-color="#3AF7F9"/>
<stop offset="0.4049" stop-color="#24E0F6"/>
<stop offset="0.4943" stop-color="#1AD6F5"/>
<stop offset="0.9028" stop-color="#07C3F2"/>
</linearGradient>
<linearGradient id="paint6_linear" x1="23.2048" y1="53.3899" x2="33.9611" y2="64.9737" gradientUnits="userSpaceOnUse">
<stop offset="0.3536" stop-color="#07C3F2"/>
<stop offset="0.52" stop-color="#1CAEF2"/>
<stop offset="0.6811" stop-color="#3595F3"/>
<stop offset="0.8463" stop-color="#2089F6"/>
<stop offset="1" stop-color="#087CFA"/>
</linearGradient>
<linearGradient id="paint7_linear" x1="25.5324" y1="1.09526" x2="28.9596" y2="16.089" gradientUnits="userSpaceOnUse">
<stop stop-color="#71FFFB"/>
<stop offset="0.3126" stop-color="#CAFFFE"/>
<stop offset="0.5939" stop-color="#42FFFA"/>
<stop offset="0.6862" stop-color="#3AF7F9"/>
<stop offset="0.8317" stop-color="#23E0F6"/>
<stop offset="0.976" stop-color="#07C3F2"/>
</linearGradient>
<linearGradient id="paint8_linear" x1="23.0684" y1="16.1581" x2="74.7955" y2="57.2238" gradientUnits="userSpaceOnUse">
<stop stop-color="#27E4F6"/>
<stop offset="0.2282" stop-color="#07C3F2"/>
<stop offset="0.3408" stop-color="#07AEF4"/>
<stop offset="0.5521" stop-color="#087CFA"/>
<stop offset="0.7522" stop-color="#087CFA"/>
<stop offset="0.9812" stop-color="#07C3F2"/>
</linearGradient>
<linearGradient id="paint9_linear" x1="10.7897" y1="14.4641" x2="21.2703" y2="19.2447" gradientUnits="userSpaceOnUse">
<stop offset="0.2048" stop-color="#42FFFA"/>
<stop offset="0.2906" stop-color="#68FFFB"/>
<stop offset="0.41" stop-color="#96FFFC"/>
<stop offset="0.53" stop-color="#BCFFFD"/>
<stop offset="0.6485" stop-color="#D9FFFE"/>
<stop offset="0.7651" stop-color="#EEFFFF"/>
<stop offset="0.8792" stop-color="#FBFFFF"/>
<stop offset="0.9874" stop-color="white"/>
</linearGradient>
<linearGradient id="paint10_linear" x1="8.68619" y1="29.1564" x2="59.9764" y2="55.8401" gradientUnits="userSpaceOnUse">
<stop offset="0.2464" stop-color="#FE2857"/>
<stop offset="0.292" stop-color="#FE265F"/>
<stop offset="0.3641" stop-color="#FE1F76"/>
<stop offset="0.4534" stop-color="#FF159B"/>
<stop offset="0.4574" stop-color="#FF149D"/>
<stop offset="0.536" stop-color="#EF1AB2"/>
<stop offset="0.6983" stop-color="#C82BE9"/>
<stop offset="0.7574" stop-color="#B831FF"/>
<stop offset="0.811" stop-color="#A33AFE"/>
<stop offset="0.9215" stop-color="#6C52FD"/>
<stop offset="1" stop-color="#4164FC"/>
</linearGradient>
<linearGradient id="paint11_linear" x1="19.963" y1="18.0907" x2="48.9225" y2="38.7761" gradientUnits="userSpaceOnUse">
<stop offset="0.00823305" stop-color="#42FFFA"/>
<stop offset="0.1549" stop-color="#27E4F6"/>
<stop offset="0.3008" stop-color="#11CDF3"/>
<stop offset="0.3345" stop-color="#0FCBF3"/>
<stop offset="0.5125" stop-color="#07C3F2"/>
<stop offset="0.6963" stop-color="#3595F3"/>
</linearGradient>
<linearGradient id="paint12_linear" x1="8.18807" y1="17.5493" x2="18.186" y2="23.9618" gradientUnits="userSpaceOnUse">
<stop offset="0.0433729" stop-color="#42FFFA"/>
<stop offset="0.2066" stop-color="#7DFFFB"/>
<stop offset="0.2976" stop-color="#A0FFFC"/>
<stop offset="0.6631" stop-color="#B7FFFF"/>
<stop offset="0.9409" stop-color="#57FFFB"/>
<stop offset="1" stop-color="#42FFFA"/>
</linearGradient>
<linearGradient id="paint13_linear" x1="-0.00460177" y1="36.3606" x2="46.2845" y2="81.6632" gradientUnits="userSpaceOnUse">
<stop offset="0.0226617" stop-color="#FC801D"/>
<stop offset="0.2467" stop-color="#FC7E20"/>
<stop offset="0.276" stop-color="#FC772A"/>
<stop offset="0.3253" stop-color="#FD6444"/>
<stop offset="0.3881" stop-color="#FE466E"/>
<stop offset="0.4273" stop-color="#FF318C"/>
<stop offset="0.4924" stop-color="#EA3896"/>
<stop offset="0.6276" stop-color="#B248AE"/>
<stop offset="0.8194" stop-color="#5A63D6"/>
<stop offset="0.9859" stop-color="#087CFA"/>
</linearGradient>
<linearGradient id="paint14_linear" x1="11.3429" y1="36.4866" x2="25.9516" y2="61.7308" gradientUnits="userSpaceOnUse">
<stop offset="0.00442798" stop-color="#42FFFA"/>
<stop offset="0.1542" stop-color="#42FFFA"/>
<stop offset="0.2294" stop-color="#3BF7F9"/>
<stop offset="0.343" stop-color="#26E3F6"/>
<stop offset="0.4724" stop-color="#07C3F2"/>
<stop offset="0.6565" stop-color="#3595F3"/>
<stop offset="0.8856" stop-color="#3595F3"/>
</linearGradient>
<linearGradient id="paint15_linear" x1="41.7686" y1="49.5008" x2="55.2756" y2="71.0194" gradientUnits="userSpaceOnUse">
<stop offset="0.0211218" stop-color="#087CFA"/>
<stop offset="0.3042" stop-color="#087CFA"/>
<stop offset="0.7942" stop-color="#07C3F2"/>
</linearGradient>
<linearGradient id="paint16_linear" x1="8.68619" y1="29.1564" x2="59.9764" y2="55.8401" gradientUnits="userSpaceOnUse">
<stop offset="0.1401" stop-color="#07C3F2"/>
<stop offset="0.321" stop-color="#07AEF4"/>
<stop offset="0.6603" stop-color="#087CFA"/>
<stop offset="1" stop-color="#3595F3"/>
</linearGradient>
<linearGradient id="paint17_linear" x1="13.3879" y1="31.5715" x2="37.0475" y2="44.7317" gradientUnits="userSpaceOnUse">
<stop stop-color="#1DD9F5"/>
<stop offset="0.3352" stop-color="#07C3F2"/>
<stop offset="0.6729" stop-color="#1CAEF2"/>
<stop offset="1" stop-color="#3595F3"/>
</linearGradient>
<linearGradient id="paint18_linear" x1="73.5834" y1="62.3699" x2="47.5658" y2="72.115" gradientUnits="userSpaceOnUse">
<stop stop-color="#07C3F2"/>
<stop offset="0.0971854" stop-color="#05B5ED"/>
<stop offset="0.2458" stop-color="#02A6E9"/>
<stop offset="0.4209" stop-color="#009DE6"/>
<stop offset="0.6854" stop-color="#009AE5"/>
</linearGradient>
<linearGradient id="paint19_linear" x1="34.7116" y1="64.7567" x2="52.455" y2="71.1002" gradientUnits="userSpaceOnUse">
<stop offset="0.1529" stop-color="#087CFA"/>
<stop offset="0.6343" stop-color="#009AE5"/>
<stop offset="1" stop-color="#05B6EE"/>
</linearGradient>
<linearGradient id="paint20_linear" x1="37.2581" y1="24.0131" x2="48.1876" y2="39.4266" gradientUnits="userSpaceOnUse">
<stop stop-color="#07C3F2"/>
<stop offset="0.6392" stop-color="#3595F3"/>
<stop offset="0.7656" stop-color="#298EF5"/>
<stop offset="0.9941" stop-color="#097DFA"/>
<stop offset="1" stop-color="#087CFA"/>
</linearGradient>
<linearGradient id="paint21_linear" x1="16.29" y1="20.6715" x2="63.3942" y2="59.0738" gradientUnits="userSpaceOnUse">
<stop offset="0.0162265" stop-color="#022244"/>
<stop offset="0.2475" stop-color="#011327"/>
<stop offset="0.48" stop-color="#010911"/>
<stop offset="0.7054" stop-color="#000204"/>
<stop offset="0.9138"/>
</linearGradient>
<linearGradient id="paint22_linear" x1="56.2788" y1="58.0847" x2="63.0149" y2="58.0847" gradientUnits="userSpaceOnUse">
<stop stop-color="#087CFA"/>
<stop offset="0.7942" stop-color="#000216"/>
</linearGradient>
<linearGradient id="paint23_linear" x1="17" y1="34.8021" x2="63.0149" y2="34.8021" gradientUnits="userSpaceOnUse">
<stop offset="0.2464" stop-color="#FE2857"/>
<stop offset="0.292" stop-color="#FE265F"/>
<stop offset="0.3641" stop-color="#FE1F76"/>
<stop offset="0.4534" stop-color="#FF159B"/>
<stop offset="0.4574" stop-color="#FF149D"/>
<stop offset="0.536" stop-color="#EF1AB2"/>
<stop offset="0.6983" stop-color="#C82BE9"/>
<stop offset="0.7574" stop-color="#B831FF"/>
<stop offset="0.811" stop-color="#A33AFE"/>
<stop offset="0.9215" stop-color="#6C52FD"/>
<stop offset="1" stop-color="#4164FC"/>
</linearGradient>
<linearGradient id="paint24_linear" x1="17.9411" y1="34.7497" x2="63.0148" y2="34.7497" gradientUnits="userSpaceOnUse">
<stop stop-color="#42FFFA"/>
<stop offset="0.0408124" stop-color="#3AF7F9"/>
<stop offset="0.1052" stop-color="#23E0F6"/>
<stop offset="0.1691" stop-color="#07C3F2"/>
<stop offset="0.3611" stop-color="#07C3F2"/>
<stop offset="0.5398" stop-color="#0888F9"/>
<stop offset="0.5728" stop-color="#087CFA"/>
<stop offset="0.6996" stop-color="#0659BC"/>
<stop offset="0.9919" stop-color="#000220"/>
<stop offset="1" stop-color="#00001C"/>
</linearGradient>
<linearGradient id="paint25_linear" x1="17" y1="40.282" x2="63.0149" y2="40.282" gradientUnits="userSpaceOnUse">
<stop offset="0.0878508" stop-color="#087CFA"/>
<stop offset="0.2751" stop-color="#087CFA"/>
<stop offset="0.2903" stop-color="#0877F1"/>
<stop offset="0.4275" stop-color="#054DA4"/>
<stop offset="0.5498" stop-color="#032C66"/>
<stop offset="0.6528" stop-color="#01143A"/>
<stop offset="0.7324" stop-color="#00051F"/>
<stop offset="0.7791" stop-color="#000015"/>
</linearGradient>
<linearGradient id="paint26_linear" x1="21.4542" y1="33.9557" x2="39.4739" y2="43.9788" gradientUnits="userSpaceOnUse">
<stop stop-color="#07C3F2"/>
<stop offset="0.3478" stop-color="#07AEF4"/>
<stop offset="1" stop-color="#087CFA"/>
</linearGradient>
<linearGradient id="paint27_linear" x1="24.2282" y1="55.6518" x2="42.9756" y2="55.6518" gradientUnits="userSpaceOnUse">
<stop offset="0.0878508" stop-color="#087CFA"/>
<stop offset="0.4746" stop-color="#087CFA"/>
<stop offset="0.4905" stop-color="#0877F1"/>
<stop offset="0.6335" stop-color="#054DA4"/>
<stop offset="0.761" stop-color="#032C66"/>
<stop offset="0.8684" stop-color="#01143A"/>
<stop offset="0.9514" stop-color="#00051F"/>
<stop offset="1" stop-color="#000015"/>
</linearGradient>
<linearGradient id="paint28_linear" x1="17" y1="50.4239" x2="42.9756" y2="50.4239" gradientUnits="userSpaceOnUse">
<stop offset="0.0878508" stop-color="#087CFA"/>
<stop offset="0.4746" stop-color="#087CFA"/>
<stop offset="0.4905" stop-color="#0877F1"/>
<stop offset="0.6335" stop-color="#054DA4"/>
<stop offset="0.761" stop-color="#032C66"/>
<stop offset="0.8684" stop-color="#01143A"/>
<stop offset="0.9514" stop-color="#00051F"/>
<stop offset="1" stop-color="#000015"/>
</linearGradient>
<linearGradient id="paint29_linear" x1="35.1279" y1="55.6518" x2="63.0149" y2="55.6518" gradientUnits="userSpaceOnUse">
<stop stop-color="#087CFA"/>
<stop offset="0.7942" stop-color="#000216"/>
</linearGradient>
<linearGradient id="paint30_linear" x1="81.7912" y1="60.8053" x2="52.4693" y2="13.3228" gradientUnits="userSpaceOnUse">
<stop offset="0.1908" stop-color="#3595F3"/>
<stop offset="0.8951" stop-color="#000020"/>
</linearGradient>
</defs>
</svg>
