<svg xmlns="http://www.w3.org/2000/svg" width="60" height="60" viewBox="0 0 60 60">
  <g id="EnvironmentMono" fill="none" fill-rule="evenodd" stroke="none" stroke-width="1" opacity=".7">
    <path id="Fill-3" fill="#9AA7B0" d="M52.0195,5 L7.9805,5 C6.3345,5 4.9995,6.334 4.9995,7.981 L4.9995,24.649 L14.4295,22.027 L21.4415,24.77 L21.5325,24.562 C21.5325,24.562 17.9855,22.729 16.0855,21.69 C14.1855,20.652 11.5815,18.375 11.5815,15.87 C11.5815,14.354 13.1485,12.434 13.9375,11.689 L26.4995,13.022 L26.5905,12.841 L20.4845,11.327 C20.4845,11.327 22.6835,10.271 26.5975,10.271 C31.8275,10.271 41.0765,11.814 42.5085,13.248 C43.5595,14.298 45.3245,20.045 45.3245,22.888 C45.3245,24.858 44.7095,24.939 44.1795,24.939 C42.0215,24.939 35.7875,23.49 35.6505,23.457 L35.6195,23.629 L42.9005,26.148 C42.9005,26.148 45.0925,31.081 45.0925,37.029 C45.0925,38.91 44.9065,40.677 44.3865,42.299 C44.3865,42.299 38.8615,39.748 34.5465,33.914 L34.4455,33.95 C38.0215,41.425 43.7325,44.191 43.7325,44.191 C43.7325,44.191 41.7255,49.751 40.4505,51.026 L19.6795,42.095 L9.1345,55 L52.0195,55 C53.6655,55 54.9995,53.666 54.9995,52.019 L54.9995,7.981 C54.9995,6.334 53.6655,5 52.0195,5"/>
  </g>
</svg>
