<svg xmlns="http://www.w3.org/2000/svg" width="60" height="60" viewBox="0 0 60 60">
  <g id="EnvironmentXamarin" fill="none" fill-rule="evenodd" stroke="none" stroke-width="1" opacity=".7">
    <path id="Fill-3" fill="#40B6E0" d="M35.8271,30.4897 L42.6421,42.0457 C42.8181,42.3437 42.8201,42.7137 42.6491,43.0137 C42.4771,43.3147 42.1581,43.4997 41.8111,43.4997 L38.5131,43.4997 C38.1711,43.4997 37.8551,43.3197 37.6811,43.0257 L30.2891,30.4897 C30.1101,30.1877 30.1101,29.8127 30.2891,29.5107 L37.6811,16.9747 C37.8551,16.6807 38.1711,16.4997 38.5131,16.4997 L41.8111,16.4997 C42.1581,16.4997 42.4771,16.6857 42.6491,16.9857 C42.8201,17.2867 42.8181,17.6567 42.6421,17.9537 L35.8271,29.5107 C35.6491,29.8127 35.6491,30.1877 35.8271,30.4897 M29.7111,30.4897 L22.3181,43.0257 C22.1441,43.3197 21.8291,43.4997 21.4871,43.4997 L18.1881,43.4997 C17.8421,43.4997 17.5221,43.3147 17.3501,43.0137 C17.1801,42.7137 17.1811,42.3437 17.3571,42.0457 L24.1731,30.4897 C24.3501,30.1877 24.3501,29.8127 24.1731,29.5107 L17.3571,17.9537 C17.1811,17.6567 17.1801,17.2867 17.3501,16.9857 C17.5221,16.6857 17.8421,16.4997 18.1881,16.4997 L21.4871,16.4997 C21.8291,16.4997 22.1441,16.6807 22.3181,16.9747 L29.7111,29.5107 C29.8901,29.8127 29.8901,30.1877 29.7111,30.4897 M56.4311,27.7877 L45.0521,7.2127 C44.2951,5.8437 42.8941,4.9997 41.3811,4.9997 L18.6191,4.9997 C17.1051,4.9997 15.7051,5.8437 14.9481,7.2127 L3.5681,27.7877 C2.8101,29.1567 2.8101,30.8437 3.5681,32.2127 L14.9481,52.7877 C15.7051,54.1567 17.1051,54.9997 18.6191,54.9997 L41.3811,54.9997 C42.8941,54.9997 44.2951,54.1567 45.0521,52.7877 L56.4311,32.2127 C57.1891,30.8437 57.1891,29.1567 56.4311,27.7877"/>
  </g>
</svg>
