<svg xmlns="http://www.w3.org/2000/svg" width="60" height="60" viewBox="0 0 60 60">
  <g id="EnvironmentDotNetCore" fill="none" fill-rule="evenodd" stroke="none" stroke-width="1">
    <g id="Group-13" fill="#B99BF8" transform="translate(4 4)">
      <path id="Fill-9" d="M35.7949,38.3481 C35.7949,38.5771 35.7749,38.7581 35.7549,38.8681 L32.4969,38.8681 C32.5269,39.7471 33.2169,40.1271 33.9959,40.1271 C34.5659,40.1271 34.9759,40.0471 35.3459,39.9071 L35.5249,40.7571 C35.1059,40.9271 34.5249,41.0561 33.8259,41.0561 C32.2469,41.0561 31.3169,40.0871 31.3169,38.5981 C31.3169,37.2481 32.1369,35.9791 33.6959,35.9791 C35.2749,35.9791 35.7949,37.2781 35.7949,38.3481 L35.7949,38.3481 Z M30.7849,37.1681 C30.6859,37.1481 30.5759,37.1281 30.4259,37.1281 C29.8359,37.1281 29.4369,37.5081 29.3259,38.0581 C29.3069,38.1681 29.2859,38.2981 29.2859,38.4381 L29.2859,40.9561 L28.0569,40.9561 L28.0569,37.6581 C28.0569,36.9981 28.0469,36.5291 28.0179,36.0891 L29.0869,36.0891 L29.1269,37.0181 L29.1659,37.0181 C29.4059,36.3291 29.9759,35.9791 30.4959,35.9791 C30.6149,35.9791 30.6859,35.9891 30.7849,36.0091 L30.7849,37.1681 Z M24.4459,41.0661 C23.0669,41.0661 22.0079,40.1171 22.0079,38.5571 C22.0079,36.9591 23.0579,35.9791 24.5259,35.9791 C25.9759,35.9791 26.9449,36.9981 26.9449,38.4781 C26.9449,40.2671 25.6859,41.0661 24.4459,41.0661 L24.4459,41.0661 Z M19.8359,40.0371 C20.3349,40.0371 20.8559,39.9371 21.1749,39.7871 L21.3749,40.7571 C21.0849,40.9071 20.4449,41.0561 19.6359,41.0561 C17.4969,41.0561 16.1969,39.7171 16.1969,37.6681 C16.1969,35.4501 17.7369,34.1101 19.7959,34.1101 C20.6059,34.1101 21.1849,34.2801 21.4349,34.4101 L21.1649,35.3901 C20.8449,35.2491 20.4049,35.1301 19.8459,35.1301 C18.4769,35.1301 17.4869,35.9891 17.4869,37.6081 C17.4869,39.0871 18.3569,40.0371 19.8359,40.0371 L19.8359,40.0371 Z M7.9829,30.5871 C7.1009,30.5871 6.4959,29.9071 6.4959,29.0001 C6.4959,28.0681 7.1259,27.4121 8.0079,27.4121 C8.8899,27.4121 9.4939,28.0681 9.4939,29.0001 C9.4939,29.9071 8.9149,30.5871 7.9829,30.5871 L7.9829,30.5871 Z M24.9999,30.0001 L31.8229,30.0001 L44.3849,42.5 L44.3849,44.3851 C39.6799,49.0901 33.1799,52.0001 25.9999,52.0001 C11.6409,52.0001 -0.0001,40.3591 -0.0001,26.0001 C-0.0001,18.8201 2.9099,12.3201 7.6149,7.6151 L9.5,7.6151 L21.0559,19.3431 L21.0559,21.2761 C21.0559,23.6131 21.1029,25.4371 21.2929,27.4401 L21.2449,27.4631 C20.4859,25.9271 19.5619,24.3471 18.3749,22.5891 L13.2529,15.0001 L10.9999,15.0001 L10.9999,30.0001 L12.9439,30.0001 L12.9439,23.5901 C12.9439,21.0981 12.8979,19.2951 12.7779,17.4031 L12.8499,17.3811 C13.6559,19.0061 14.7239,20.7201 15.8379,22.3891 L20.9129,30.0001 L22.9999,30.0001 L22.9999,21.0401 L24.9999,22.7851 L24.9999,30.0001 Z M27.1992,24.7041 L30.4052,28.3751 L27.0662,28.3751 L27.0662,24.5881 L27.1992,24.7041 Z" opacity=".7"/>
      <path id="Fill-7" d="M24.4971,36.8789 C23.6271,36.8789 23.2771,37.7179 23.2771,38.5279 C23.2771,39.4669 23.7371,40.1769 24.4861,40.1769 C25.1861,40.1769 25.6761,39.4869 25.6761,38.5079 C25.6761,37.7489 25.3361,36.8789 24.4971,36.8789" opacity=".7"/>
      <path id="Fill-11" d="M33.626,36.8188 C32.867,36.8188 32.547,37.5078 32.497,38.0078 L34.636,38.0078 C34.646,37.5588 34.446,36.8188 33.626,36.8188" opacity=".7"/>
      <path id="Fill-3" d="M41.4209,16.647 L41.4209,30 L39.5579,30 L39.5579,16.647 L35.2189,16.647 L35.2189,15 L45.7809,15 L45.7809,16.647 L41.4209,16.647 Z M25.9999,-3.55271368e-15 C18.8199,-3.55271368e-15 12.3199,2.91 7.6149,7.615 L21.0559,21.055 L21.0559,15 L22.9999,15 L22.9999,23 L24.9999,25 L24.9999,15 L33.6439,15 L33.6439,16.625 L27.0669,16.625 L27.0669,21.365 L33.2869,21.365 L33.2869,22.967 L27.0669,22.967 L27.0669,27.066 L28.3749,28.376 L33.9999,28.376 L33.9999,30 L29.9999,30 L44.3849,44.385 C49.0899,39.68 51.9999,33.18 51.9999,26 C51.9999,11.641 40.3589,-3.55271368e-15 25.9999,-3.55271368e-15 L25.9999,-3.55271368e-15 Z"/>
    </g>
  </g>
</svg>
