<svg xmlns="http://www.w3.org/2000/svg" width="16" height="16" viewBox="0 0 16 16">
  <title>FolderSolution(GrayDark)</title>
  <g>
    <rect width="16" height="16" fill="#ffd8ff" opacity="0"/>
    <g>
      <g>
        <polygon points="1 15 1 3 7.586 3 9.586 1 16 1 16 15 1 15" fill="#252525"/>
        <polygon points="15 14 15 2 10 2 8 4 2 4 2 14 15 14" fill="#e9a755"/>
        <rect x="3" y="6" width="11" height="7" fill="#292929"/>
      </g>
      <g>
        <polygon points="4.954 5 0 12.707 0 13.65 5.288 16 5.712 16 11 13.65 11 12.707 6.046 5 4.954 5" fill="#252525"/>
        <polygon points="10 13 5.5 6 1 13 5.5 15 10 13" fill="#c674d3"/>
        <polygon points="5.5 7.849 8.528 12.56 5.5 13.906 5.5 7.849" fill="#292929"/>
      </g>
    </g>
  </g>
</svg>
