<svg xmlns="http://www.w3.org/2000/svg" width="16" height="16" viewBox="0 0 16 16">
  <title>VbasicProj(GrayDark)</title>
  <g>
    <rect width="16" height="16" fill="#ffe3ff" opacity="0"/>
    <g>
      <g>
        <rect y="1" width="14" height="12" fill="#252525"/>
        <rect x="1" y="2" width="12" height="10" fill="#c4c4c4"/>
        <rect x="1" y="2" width="12" height="3" fill="#c4c4c4"/>
        <rect x="2" y="5" width="11" height="7" fill="#292929"/>
      </g>
      <g>
        <path d="M15.735,8.64c0-1.276-.87-2.64-3.312-2.64H7.642l-.189.758c-.016.065-.189.758-.411,1.676C6.847,7.491,6.534,6,6.534,6H3V7.14L5.236,15h3L9,12.351V15h3.558C14.617,15,16,13.758,16,11.911a2.608,2.608,0,0,0-.717-1.82A2.516,2.516,0,0,0,15.735,8.64Z" fill="#252525"/>
        <path d="M9.5,7,7.484,14H5.991L4,7H5.722s.778,3.7,1.13,5.57h.266C7.5,10.706,8.423,7,8.423,7ZM15,11.911C15,13.289,13.961,14,12.558,14H10V7h2.423c1.221,0,2.312.425,2.312,1.64a1.676,1.676,0,0,1-1.295,1.582v.019A1.662,1.662,0,0,1,15,11.911ZM11.541,10h.685a1.031,1.031,0,0,0,1.159-1.07q0-.932-1.272-.93h-.572Zm2.184,1.974c0-.671-.568-.974-1.3-.974h-.885v2h.874C13.162,13,13.725,12.665,13.725,11.974Z" fill="#76bcff"/>
      </g>
    </g>
  </g>
</svg>
