<svg xmlns="http://www.w3.org/2000/svg" xmlns:xlink="http://www.w3.org/1999/xlink" width="16" height="16" viewBox="0 0 16 16">
  <defs>
    <linearGradient id="a" x1="0.916" y1="16.916" x2="1.916" y2="16.916" gradientTransform="matrix(0, 11.928, 11.928, 0, -194.778, -9.908)" gradientUnits="userSpaceOnUse">
      <stop offset="0" stop-color="#576a80"/>
      <stop offset="1" stop-color="#2d3742"/>
    </linearGradient>
    <linearGradient id="b" x1="0.917" y1="17.083" x2="1.917" y2="17.083" gradientTransform="matrix(12, 0, 0, -12, -10, 212)" gradientUnits="userSpaceOnUse">
      <stop offset="0" stop-color="#fff"/>
      <stop offset="1" stop-color="#a6bada"/>
    </linearGradient>
    <linearGradient id="c" x1="0.917" y1="17.083" x2="1.917" y2="17.083" gradientTransform="matrix(12, 0, 0, -12, -10, 208.5)" gradientUnits="userSpaceOnUse">
      <stop offset="0" stop-color="#6e96e6"/>
      <stop offset="1" stop-color="#2f62c7"/>
    </linearGradient>
    <linearGradient id="d" x1="0.859" y1="16.859" x2="1.859" y2="16.859" gradientTransform="matrix(0, 7.074, 7.074, 0, -111.76, -1.074)" xlink:href="#b"/>
    <linearGradient id="e" x1="0.893" y1="16.893" x2="1.893" y2="16.893" gradientTransform="matrix(0, 9.305, 9.305, 0, -148.193, -2.156)" gradientUnits="userSpaceOnUse">
      <stop offset="0" stop-color="#813612"/>
      <stop offset="1" stop-color="#f06421"/>
    </linearGradient>
    <linearGradient id="f" x1="0.862" y1="17.07" x2="1.862" y2="17.07" gradientTransform="matrix(0, 7.238, 7.238, 0, -113.045, 0.879)" gradientUnits="userSpaceOnUse">
      <stop offset="0" stop-color="#ffe0d0"/>
      <stop offset="1" stop-color="#ffbd81"/>
    </linearGradient>
    <linearGradient id="g" x1="0.862" y1="16.448" x2="1.862" y2="16.448" xlink:href="#f"/>
    <linearGradient id="h" x1="0.862" y1="17.484" x2="1.862" y2="17.484" xlink:href="#f"/>
  </defs>
  <title>WIXProject(Color)</title>
  <rect width="16" height="16" fill="#ffe6ff" opacity="0"/>
  <rect y="0.999" width="14" height="12.001" fill="url(#a)"/>
  <rect x="1" y="2" width="12" height="10" fill="url(#b)"/>
  <rect x="1" y="2" width="12" height="3" fill="url(#c)"/>
  <rect x="2" y="5" width="11" height="7" fill="url(#d)"/>
  <polygon points="16 6 13.692 6 13.5 6.456 13.308 6 7.546 6 7.494 6.281 7.432 6 4.568 6 4.506 6.281 4.453 6 2 6 2 10.236 2.947 15 5.827 15 6 14.206 6.174 15 13.343 15 13.5 14.57 13.657 15 16 15 16 12.153 15.321 10.367 16 8.737 16 6" fill="url(#e)"/>
  <g>
    <rect x="9.908" y="7" width="1.184" height="7" fill="url(#f)"/>
    <path d="M9.6,7H8.376l-.812,4.278L6.628,7H5.372l-.937,4.278L3.624,7H2.4a.6.6,0,0,0,0,.12L3.768,14H5.021L6,9.536,6.979,14H8.231L9.6,7.12A.6.6,0,0,0,9.6,7Z" fill="url(#g)"/>
    <path d="M14.244,10.35l1.3-3.117A.585.585,0,0,0,15.591,7H14.357L13.5,9.048,12.643,7H11.409a.585.585,0,0,0,.047.233l1.3,3.117-1.3,3.417a.588.588,0,0,0-.047.233h1.234l.857-2.348L14.357,14h1.234a.588.588,0,0,0-.047-.233Z" fill="url(#h)"/>
  </g>
</svg>
