<svg xmlns="http://www.w3.org/2000/svg" width="16" height="16" viewBox="0 0 16 16">
  <g fill-rule="evenodd">
    <path fill="#F26522" d="M7,15 L8,15 L8,10 L7,10 L7,15 Z M5.515,10 L4.807,13.352 L3.989,10 L3.011,10 L2.193,13.352 L1.485,10 L0.537,10 C0.537,10.036 0.531,10.071 0.54,10.107 L1.675,15 L2.65,15 L3.5,11.626 L4.35,15 L5.325,15 L6.46,10.107 C6.469,10.071 6.463,10.036 6.463,10 L5.515,10 Z M11.417,10 L12.491,10 C12.492,10.088 12.477,10.176 12.429,10.257 L11.083,12.4 L12.429,14.743 C12.477,14.824 12.492,14.912 12.491,15 L11.417,15 L10.5,13.172 L9.583,15 L8.509,15 C8.508,14.912 8.523,14.824 8.571,14.743 L9.917,12.4 L8.571,10.257 C8.523,10.176 8.508,10.088 8.509,10 L9.583,10 L10.5,11.628 L11.417,10 Z"/>
    <path fill="#9AA7B0" d="M3 2.345L3 9.345 4 9.345 4 5.345 14 5.345 14 12.345 13 12.345 13 13.345 15 13.345 15 2.345z"/>
  </g>
</svg>
