<svg xmlns="http://www.w3.org/2000/svg" width="16" height="16" viewBox="0 0 16 16">
  <g fill-rule="evenodd">
    <path fill="#FFE6FF" d="M0 16L16 16 16 0 0 0z" opacity="0"/>
    <path fill="#242424" d="M0 13L14 13 14 0.999 0 0.999z"/>
    <path fill="#C3C3C3" d="M1 12L13 12 13 2 1 2z"/>
    <path fill="#C3C3C3" d="M1 5L13 5 13 2 1 2z"/>
    <path fill="#282828" d="M2 12L13 12 13 5 2 5z"/>
    <path fill="#242424" d="M13.691 6L13.5 6.456 13.309 6 7.548 6 7.494 6.281 7.432 6 4.568 6 4.507 6.281 4.453 6 2 6 2 10.236 2.948 15 5.827 15 6.001 14.206 6.174 15 13.344 15 13.5 14.57 13.657 15 16 15 16 12.153 15.321 10.367 16 8.737 16 6z"/>
    <path fill="#F28366" d="M7.5645,11.2773 L6.6275,7.0003 L5.3725,7.0003 L4.4355,11.2773 L3.6245,7.0003 L2.3995,7.0003 C2.3995,7.0403 2.3915,7.0783 2.3995,7.1193 L3.7685,14.0003 L5.0215,14.0003 L6.0005,9.5363 L6.9785,14.0003 L8.2315,14.0003 L9.6005,7.1193 C9.6085,7.0783 9.6005,7.0403 9.6005,7.0003 L8.3755,7.0003 L7.5645,11.2773 Z M9.9085,14.0003 L11.0925,14.0003 L11.0925,7.0003 L9.9085,7.0003 L9.9085,14.0003 Z M14.3565,7.0003 L15.5915,7.0003 C15.5915,7.0773 15.5765,7.1563 15.5435,7.2333 L14.2435,10.3503 L15.5435,13.7673 C15.5765,13.8433 15.5915,13.9223 15.5915,14.0003 L14.3565,14.0003 L13.5005,11.6523 L12.6435,14.0003 L11.4085,14.0003 C11.4085,13.9223 11.4235,13.8433 11.4565,13.7673 L12.7565,10.3503 L11.4565,7.2333 C11.4235,7.1563 11.4085,7.0773 11.4085,7.0003 L12.6435,7.0003 L13.5005,9.0483 L14.3565,7.0003 Z"/>
  </g>
</svg>
