<svg ti:v="1" width="16" height="16" viewBox="0 0 16 16" xmlns="http://www.w3.org/2000/svg" xmlns:ti="urn:schemas-jetbrains-com:tisvg"><rect id="frame" width="16" height="16" fill="none"/><g fill-rule="evenodd"><path d="M14 11H0V0h14v11z" fill="#242424"/><path d="M1 10h12V1H1v9z" fill="#C4C4C4"/><path d="M12 9H2V2h10v7z" fill="#282828"/><path d="M6 7L4.5 5.5 6 4V3l-.5-.5-3 3 3 3L6 8m5.5-2.5l-3 3L8 8V7l1.5-1.5L8 4V3l.5-.5 3 3z" fill="#C4C4C4"/><path d="M11.586 16L8 12.414V8.382l2 1V5h4v4.382l2-1v4.032L12.414 16h-.828z" fill="#242424"/><path d="M13 11V8h-2v3l-2-1v2l3 3 3-3v-2m-2-3h-2V6h2v1z" fill="#7BBEFF"/></g></svg>