<svg ti:v="1" width="16" height="16" viewBox="0 0 16 16" xmlns="http://www.w3.org/2000/svg" xmlns:ti="urn:schemas-jetbrains-com:tisvg"><rect id="frame" width="16" height="16" fill="none"/><g fill-rule="evenodd"><path d="M1 14h12V3H1v11z" fill="#242424"/><path d="M12 3H2v10h10V3z" fill="#75BCFF"/><path d="M3 12h8V3H3v9z" fill="#282828"/><path d="M6 9H4v1h2m4-1H7v1h3M6 5H4v1h2m4 0H7V5h3M6 7H4v1h2m4 0H7V7h3v1z" fill="#75BCFF"/><path d="M1 0v3h12V0H1z" fill="#242424"/><path d="M2 3h10V1H2v2z" fill="#75BCFF"/><path d="M13.5 16c-.188 0-1.158-.036-1.858-.746A2.215 2.215 0 0 1 11.029 14H9V9.283C9 7.766 10.528 6 12.498 6 14.472 6 16 7.766 16 9.283v4.289C16 15.353 14.505 16 13.5 16z" fill="#242424"/><path d="M15 9.283v4.29C15 15 13.5 15 13.5 15s-1.52 0-1.5-1.428V9h1s-.012 4.515 0 4.572c.002.008-.043.428.5.428.5 0 .498-.418.5-.428.006-.029.04-3.29 0-4.289C13.99 9.027 14.001 8 12.5 8 11 8 11 9.187 11 9.283V13h-1V9.283C10 8.394 11.002 7 12.5 7 14.002 7 15 8.394 15 9.283z" fill="#C4C4C4"/></g></svg>