<svg ti:v="1" width="16" height="16" viewBox="0 0 16 16" xmlns="http://www.w3.org/2000/svg" xmlns:ti="urn:schemas-jetbrains-com:tisvg"><rect id="frame" width="16" height="16" fill="none"/><linearGradient id="a" x1=".5" y1="0" x2=".5" y2="1"><stop offset="0" stop-color="#6D0000"/><stop offset="1" stop-color="#490000"/></linearGradient><path fill-rule="evenodd" d="M16 5.914v-.828L11.914 1h-1.828L9 2.086l-1-1-1 1L5.914 1H4.086L0 5.086v.828L4.086 10h1.828L7 8.914l1 1 1-1L10.086 10h1.828L16 5.914z" fill="url(#a)"/><linearGradient id="b" x1=".5" y1=".009" x2=".5" y2="1.009"><stop offset="0" stop-color="#FFF"/><stop offset=".988" stop-color="#77EAFF"/><stop offset="1" stop-color="#77EAFF"/></linearGradient><path fill-rule="evenodd" d="M6 8.5l-3-3 3-3-1-1-4 4 4 4m10-4l-4 4-1-1 3-3-3-3 1-1 4 4z" fill="url(#b)"/><linearGradient id="c" x1=".5" y1="0" x2=".5" y2="1"><stop offset="0" stop-color="#FFEDE3"/><stop offset="1" stop-color="#FFA6A6"/></linearGradient><path fill-rule="evenodd" d="M8 8.5l-3-3 3-3 3 3-3 3z" fill="url(#c)"/><linearGradient id="d" x1=".5" y1=".021" x2=".5" y2=".993"><stop offset="0" stop-color="#566980"/><stop offset="1" stop-color="#2C3641"/></linearGradient><path fill-rule="evenodd" d="M16 16H7V7h9v9z" fill="url(#d)"/><linearGradient id="e" x1=".5" y1=".021" x2=".5" y2=".993"><stop offset="0" stop-color="#2C3641"/><stop offset="1" stop-color="#566980"/></linearGradient><path fill-rule="evenodd" d="M15 15H8V8h7v7z" fill="url(#e)"/><path fill-rule="evenodd" d="M10 12.999h1V12h-1m2-1h1v-1h-1m-2 1h1v-1h-1m-2 2.999h1V12H8m0-1h1v-1H8m4 5h1v-1h-1m-2 1h1v-1h-1m-2 1h1v-1H8m6-3h1v-1h-1m0 3h1v-1h-1m0 3h1v-1h-1m1-6h-1v1h1m-2-1h-1v1h1m-2-1h-1v1h1m-2-.001H8V8h1v.999z" fill="#FFF"/></svg>