<svg ti:v="1" width="16" height="16" viewBox="0 0 16 16" xmlns="http://www.w3.org/2000/svg" xmlns:ti="urn:schemas-jetbrains-com:tisvg"><rect id="frame" width="16" height="16" fill="none"/><g fill-rule="evenodd"><path d="M16 7.914v-.828L11.914 3h-1.828L9 4.086l-1-1-1 1L5.914 3H4.086L0 7.086v.828L4.086 12h1.828L7 10.914l1 1 1-1L10.086 12h1.828L16 7.914z" fill="#F4F4F4"/><path d="M6 10.5l-3-3 3-3-1-1-4 4 4 4m10-4l-4 4-1-1 3-3-3-3 1-1 4 4z" fill="#313131"/><path d="M8 10.5l-3-3 3-3 3 3-3 3z" fill="#313131"/></g></svg>