<svg xmlns="http://www.w3.org/2000/svg" width="16" height="16" viewBox="0 0 16 16"><rect id="frame" width="16" height="16" fill="none"/><path fill="#f4f4f4" d="M12 5v8H4V5z"/><path fill="#1ba1e2" d="M5 6h6v6H5z"/><path fill="#f4f4f4" d="M6 4H3.233L0 8.688v.624L3.233 14H6v-1.312L3.457 9 6 5.312V4z"/><path fill="#323232" d="M5 5H3.758L1 9l2.758 4H5L2.242 9 5 5z"/><g><path fill="#f4f4f4" d="M10 14h2.767L16 9.312v-.624L12.767 4H10v1.312L12.543 9 10 12.688V14z"/><path fill="#323232" d="M11 5h1.242L15 9l-2.758 4H11l2.758-4L11 5z"/></g></svg>