<svg ti:v="1" width="16" height="16" viewBox="0 0 16 16" xmlns="http://www.w3.org/2000/svg" xmlns:ti="urn:schemas-jetbrains-com:tisvg"><rect id="frame" width="16" height="16" fill="none"/><linearGradient id="a" x1="0" y1=".5" x2="1" y2=".5"><stop offset="0" stop-color="#5C5E61"/><stop offset="1" stop-color="#282B2C"/></linearGradient><path fill-rule="evenodd" d="M1 14h12V3H1v11z" fill="url(#a)"/><path fill-rule="evenodd" d="M12 3H2v10h10V3z" fill="#FFF"/><linearGradient id="b" x1="0" y1=".5" x2="1" y2=".5"><stop offset="0" stop-color="#F2F9FF"/><stop offset="1" stop-color="#CCEBFF"/></linearGradient><path fill-rule="evenodd" d="M3 12h8V3H3v9z" fill="url(#b)"/><linearGradient id="c" x1="0" y1=".5" x2="1" y2=".5"><stop offset="0" stop-color="#006294"/><stop offset="1" stop-color="#00214E"/></linearGradient><path fill-rule="evenodd" d="M6 9H4v1h2m4-1H7v1h3M6 5H4v1h2m4 0H7V5h3M6 7H4v1h2m4 0H7V7h3v1z" fill="url(#c)"/><linearGradient id="d" x1=".5" y1="0" x2=".5" y2="1"><stop offset="0" stop-color="#003C62"/><stop offset="1" stop-color="#00134E"/></linearGradient><path fill-rule="evenodd" d="M1 0v3h12V0H1z" fill="url(#d)"/><linearGradient id="e" x1="0" y1=".5" x2=".993" y2=".5"><stop offset="0" stop-color="#32D6FF"/><stop offset="1" stop-color="#009DFF"/></linearGradient><path fill-rule="evenodd" d="M2 3h10V1H2v2z" fill="url(#e)"/><linearGradient id="f" x1=".5" y1=".005" x2=".5" y2="1.005"><stop offset="0" stop-color="#566980"/><stop offset="1" stop-color="#2C3641"/></linearGradient><path fill-rule="evenodd" d="M9 9.283V14h2.029c.088.601.369 1.005.613 1.254.7.71 1.67.746 1.858.746 1.005 0 2.5-.647 2.5-2.427v-4.29C16 7.766 14.471 6 12.498 6 10.529 6 9 7.766 9 9.283z" fill="url(#f)"/><linearGradient id="g" x1=".5" y1="0" x2=".5" y2="1.008"><stop offset="0" stop-color="#EDF6FF"/><stop offset="1" stop-color="#DFE8F2"/></linearGradient><path fill-rule="evenodd" d="M12.5 7C11.002 6.999 10 8.394 10 9.283V13h1V9.283C11 9.188 11 8 12.5 8c1.501 0 1.49 1.028 1.5 1.283.04.999.006 4.26 0 4.29-.002.009 0 .427-.5.427-.543 0-.498-.42-.5-.427C12.988 13.516 13 9 13 9h-1v4.573C11.98 15 13.5 15 13.5 15s1.5 0 1.5-1.427v-4.29C15 8.393 14.002 7 12.501 7H12.5z" fill="url(#g)"/></svg>