<svg ti:v="1" width="16" height="16" viewBox="0 0 16 16" xmlns="http://www.w3.org/2000/svg" xmlns:ti="urn:schemas-jetbrains-com:tisvg"><rect id="frame" width="16" height="16" fill="none"/><g fill-rule="evenodd"><path d="M2 15V1h7.414L14 5.586V15H2z" fill="#242424"/><path d="M9 2H3v12h10V6L9 2z" fill="#C4C4C4"/><path d="M9 6V4H5v8h6V6H9z" fill="#282828"/><path d="M15 13V9h-3.414L10.5 10.086 9.414 9H0v7h16v-3h-1z" fill="#242424"/><path d="M11 10v1h-1v-1H9v5h1v-3l.5 2 .5-2v3h1v-5m-5 3H6v-2h1m-1-1l-1 1v4h1v-1h1v1h1v-5m6 4v-4h-1v5h2v-1M2 13h1v-1H2m2-1v-1H3v2s1 0 1-1zm-3 4h1v-2H1m3 0H3v2h1m-2-5v2s-1 0-1-1v-1h1z" fill="#F03636"/></g></svg>