<svg ti:v="1" width="16" height="16" viewBox="0 0 16 16" xmlns="http://www.w3.org/2000/svg" xmlns:ti="urn:schemas-jetbrains-com:tisvg"><rect id="frame" width="16" height="16" fill="none"/><g fill-rule="evenodd"><path d="M16 5.914v-.828L11.914 1h-1.828L9 2.086l-1-1-1 1L5.914 1H4.086L0 5.086v.828L4.086 10h1.828L7 8.914l1 1 1-1L10.086 10h1.828L16 5.914z" fill="#242424"/><path d="M6 8.5l-3-3 3-3-1-1-4 4 4 4m10-4l-4 4-1-1 3-3-3-3 1-1 4 4z" fill="#C4C4C4"/><path d="M8 8.5l-3-3 3-3 3 3-3 3z" fill="#C4C4C4"/><path d="M8 14h7V7H8v7z" fill="#242424"/><path d="M14 8H9v5h5V8z" fill="#C4C4C4"/><path d="M7 16V9h3v1h3V9h3v7H7z" fill="#242424"/><path d="M14 10v1H9v-1H8v5h7v-5h-1z" fill="#C4C4C4"/><path d="M10 14h3.001v-1H10v1z" fill="#C4C4C4"/><path d="M10 13h3.001v-1H10v1z" fill="#282828"/></g></svg>