<svg ti:v="1" width="16" height="16" viewBox="0 0 16 16" xmlns="http://www.w3.org/2000/svg" xmlns:ti="urn:schemas-jetbrains-com:tisvg"><rect id="frame" width="16" height="16" fill="none"/><linearGradient id="a" x1=".5" y1="0" x2=".5" y2="1"><stop offset="0" stop-color="#EAFF5E"/><stop offset="1" stop-color="#C1DE00"/></linearGradient><path fill-rule="evenodd" d="M8 0c-.99 0-2.819.76-2.988 3.573L4 4.586v1.828l1.012 1.013C5.181 10.24 7.01 11 8 11h3c.989 0 2.819-.76 2.987-3.573L15 6.414V4.586l-1.013-1.013C13.819.76 11.989 0 11 0H8z" fill="url(#a)"/><path fill-rule="evenodd" d="M7 5V4c0-2 1-2 1-2V1S6 1 6 4L5 5v1l1 1c0 3 2 3 2 3V9S7 9 7 7V6H6V5m7 0v1h-1v1c0 2-1 2-1 2v1s2 0 2-3l1-1V5l-1-1c0-3-2-3-2-3v1s1 0 1 2v1h1z" fill="#495E00"/><linearGradient id="b" x1=".5" y1=".003" x2=".5" y2="1.003"><stop offset="0" stop-color="#0077DB"/><stop offset="1" stop-color="#002BB0"/></linearGradient><path fill-rule="evenodd" d="M0 16h9V7H0v9z" fill="url(#b)"/><linearGradient id="c" x1=".5" y1=".009" x2=".5" y2="1.009"><stop offset="0" stop-color="#FFF"/><stop offset=".988" stop-color="#77EAFF"/><stop offset="1" stop-color="#77EAFF"/></linearGradient><path fill-rule="evenodd" d="M1 15h6.999V8H1v7z" fill="url(#c)"/><linearGradient id="d" x1=".5" y1=".006" x2=".5" y2="1.013"><stop offset="0" stop-color="#0077DB"/><stop offset="1" stop-color="#002BB0"/></linearGradient><path fill-rule="evenodd" d="M3 9l-1 1h2l.5.5L2 13v1h1l2.5-2.5.5.5v2l1-1V9H3z" fill="url(#d)"/></svg>