<svg ti:v="1" width="16" height="16" viewBox="0 0 16 16" xmlns="http://www.w3.org/2000/svg" xmlns:ti="urn:schemas-jetbrains-com:tisvg"><rect id="frame" width="16" height="16" fill="none"/><linearGradient id="a" x1=".5" y1="0" x2=".5" y2="1"><stop offset="0" stop-color="#6D0000"/><stop offset="1" stop-color="#490000"/></linearGradient><path fill-rule="evenodd" d="M16 7.914v-.828L11.914 3h-1.828L9 4.086l-1-1-1 1L5.914 3H4.086L0 7.086v.828L4.086 12h1.828L7 10.914l1 1 1-1L10.086 12h1.828L16 7.914z" fill="url(#a)"/><linearGradient id="b" x1=".5" y1=".009" x2=".5" y2="1.009"><stop offset="0" stop-color="#FFF"/><stop offset=".988" stop-color="#77EAFF"/><stop offset="1" stop-color="#77EAFF"/></linearGradient><path fill-rule="evenodd" d="M6 10.5l-3-3 3-3-1-1-4 4 4 4m10-4l-4 4-1-1 3-3-3-3 1-1 4 4z" fill="url(#b)"/><linearGradient id="c" x1=".5" y1="0" x2=".5" y2="1"><stop offset="0" stop-color="#FFEDE3"/><stop offset="1" stop-color="#FFA6A6"/></linearGradient><path fill-rule="evenodd" d="M8 10.5l-3-3 3-3 3 3-3 3z" fill="url(#c)"/></svg>