<svg ti:v="1" width="16" height="16" viewBox="0 0 16 16" xmlns="http://www.w3.org/2000/svg" xmlns:ti="urn:schemas-jetbrains-com:tisvg"><rect id="frame" width="16" height="16" fill="none"/><linearGradient id="a" x1=".5" y1="0" x2=".5" y2="1"><stop offset="0" stop-color="#8C0000"/><stop offset="1" stop-color="#620000"/></linearGradient><path fill-rule="evenodd" d="M14 11H0V0h14v11z" fill="url(#a)"/><linearGradient id="b" x1=".5" y1="0" x2=".5" y2="1"><stop offset="0" stop-color="#FFF"/><stop offset="1" stop-color="#FFEDED"/></linearGradient><path fill-rule="evenodd" d="M1 10h12V1H1v9z" fill="url(#b)"/><linearGradient id="c" x1=".5" y1="0" x2=".5" y2="1"><stop offset="0" stop-color="#FFCFCF"/><stop offset="1" stop-color="#FFF"/></linearGradient><path fill-rule="evenodd" d="M12 9H2V2h10v7z" fill="url(#c)"/><linearGradient id="d" x1=".5" y1="0" x2=".5" y2="1"><stop offset="0" stop-color="#962200"/><stop offset="1" stop-color="#740000"/></linearGradient><path fill-rule="evenodd" d="M6 7L4.5 5.5 6 4V3l-.5-.5-3 3 3 3L6 8m5.5-2.5l-3 3L8 8V7l1.5-1.5L8 4V3l.5-.5 3 3z" fill="url(#d)"/><linearGradient id="e" x1=".5" y1=".013" x2=".5" y2="1"><stop offset="0" stop-color="#5572A1"/><stop offset="1" stop-color="#405980"/></linearGradient><path fill-rule="evenodd" d="M11.586 16L8 12.414V8.382l2 1V5h4v4.382l2-1v4.032L12.414 16h-.828z" fill="url(#e)"/><linearGradient id="f" x1=".5" y1=".041" x2=".5" y2="1.017"><stop offset="0" stop-color="#8CD5FF"/><stop offset=".994" stop-color="#A3FBFF"/><stop offset="1" stop-color="#A3FBFF"/></linearGradient><path fill-rule="evenodd" d="M13 11V8h-2v3l-2-1v2l3 3 3-3v-2m-2-3h-2V6h2v1z" fill="url(#f)"/></svg>