<svg ti:v="1" width="16" height="16" viewBox="0 0 16 16" xmlns="http://www.w3.org/2000/svg" xmlns:ti="urn:schemas-jetbrains-com:tisvg"><rect id="frame" width="16" height="16" fill="none"/><linearGradient id="a" x1=".5" y1="0" x2=".5" y2="1"><stop offset="0" stop-color="#6D0000"/><stop offset="1" stop-color="#490000"/></linearGradient><path fill-rule="evenodd" d="M10.086 1L9 2.086l-1-1-1 1L5.914 1H4.085L0 5.086v.828L4.085 10h1.829L7 8.914l1 1 1-1L10.086 10h1.828L16 5.914v-.828L11.914 1h-1.828z" fill="url(#a)"/><linearGradient id="b" x1=".5" y1=".009" x2=".5" y2="1.009"><stop offset="0" stop-color="#FFF"/><stop offset=".988" stop-color="#77EAFF"/><stop offset="1" stop-color="#77EAFF"/></linearGradient><path fill-rule="evenodd" d="M10 2.5l3 3-3 3 1 1 4-4-4-4m-10 4l4 4 1-1-3-3 3-3-1-1-4 4z" fill="url(#b)"/><linearGradient id="c" x1=".5" y1="0" x2=".5" y2="1"><stop offset="0" stop-color="#FFEDE3"/><stop offset="1" stop-color="#FFA6A6"/></linearGradient><path fill-rule="evenodd" d="M5 5.5l3 3 3-3-3-3-3 3z" fill="url(#c)"/><linearGradient id="d" x1=".5" y1=".005" x2=".5" y2="1.01"><stop offset="0" stop-color="#684722"/><stop offset="1" stop-color="#2A1C0B"/></linearGradient><path fill-rule="evenodd" d="M11 7c-2.206 0-4 1.794-4 4v1c0 2.243 1.384 4 3.151 4H15v-2.727c.62-.541 1-1.345 1-2.273 0-2.243-1.757-4-4-4h-1z" fill="url(#d)"/><linearGradient id="e" x1=".5" y1="0" x2=".5" y2="1.012"><stop offset="0" stop-color="#FFEAD1"/><stop offset="1" stop-color="#FFBF79"/></linearGradient><path fill-rule="evenodd" d="M11 8a3 3 0 0 0-3 3v1c0 1.658.963 3 2.151 3H14v-1H9.701A.701.701 0 0 1 9 13.299V9.7a.7.7 0 0 1 .701-.7H13.3a.7.7 0 0 1 .7.7V11c0 .301-.516 1-1 1v-1.3c0-.386-.314-.7-.701-.7H11.5a1.5 1.5 0 0 0 0 3H13c1.104 0 2-.797 2-2 0-1.719-1.343-3-3-3m-1 3h1v1h-1v-1z" fill="url(#e)"/></svg>