<svg ti:v="1" width="16" height="16" viewBox="0 0 16 16" xmlns="http://www.w3.org/2000/svg" xmlns:ti="urn:schemas-jetbrains-com:tisvg"><rect id="frame" width="16" height="16" fill="none"/><linearGradient id="a" x1=".5" y1="0" x2=".5" y2="1"><stop offset="0" stop-color="#6D0000"/><stop offset="1" stop-color="#490000"/></linearGradient><path fill-rule="evenodd" d="M16 5.914v-.828L11.914 1h-1.828L9 2.086l-1-1-1 1L5.914 1H4.086L0 5.086v.828L4.086 10h1.828L7 8.914l1 1 1-1L10.086 10h1.828L16 5.914z" fill="url(#a)"/><linearGradient id="b" x1=".5" y1=".009" x2=".5" y2="1.009"><stop offset="0" stop-color="#FFF"/><stop offset=".988" stop-color="#77EAFF"/><stop offset="1" stop-color="#77EAFF"/></linearGradient><path fill-rule="evenodd" d="M6 8.5l-3-3 3-3-1-1-4 4 4 4m10-4l-4 4-1-1 3-3-3-3 1-1 4 4z" fill="url(#b)"/><linearGradient id="c" x1=".5" y1="0" x2=".5" y2="1"><stop offset="0" stop-color="#FFEDE3"/><stop offset="1" stop-color="#FFA6A6"/></linearGradient><path fill-rule="evenodd" d="M8 8.5l-3-3 3-3 3 3-3 3z" fill="url(#c)"/><linearGradient id="d" x1=".5" y1="0" x2=".5" y2="1.014"><stop offset="0" stop-color="#7C6D47"/><stop offset="1" stop-color="#60492F"/></linearGradient><path fill-rule="evenodd" d="M8 14h7V7H8v7z" fill="url(#d)"/><linearGradient id="e" x1=".5" y1="-.018" x2=".5" y2="1.055"><stop offset="0" stop-color="#FFF3D4"/><stop offset="1" stop-color="#FFF"/></linearGradient><path fill-rule="evenodd" d="M14 8H9v5h5V8z" fill="url(#e)"/><linearGradient id="f" x1=".5" y1="0" x2=".5" y2="1"><stop offset="0" stop-color="#5B6568"/><stop offset="1" stop-color="#303537"/></linearGradient><path fill-rule="evenodd" d="M7 16V9h3v1h3V9h3v7H7z" fill="url(#f)"/><linearGradient id="g" x1=".5" y1="0" x2=".5" y2="1"><stop offset="0" stop-color="#BFD7D9"/><stop offset="1" stop-color="#A1B0B8"/></linearGradient><path fill-rule="evenodd" d="M14 10v1H9v-1H8v5h7v-5h-1z" fill="url(#g)"/><path fill-rule="evenodd" d="M10 14h3v-1h-3v1z" fill="#242A2C"/><path fill-rule="evenodd" d="M10 13h3v-1h-3v1z" fill="#EDFEFF"/></svg>