<svg xmlns="http://www.w3.org/2000/svg" width="16" height="16" viewBox="0 0 16 16">
  <g fill="none" transform="translate(2 1)">
    <path fill="#FBA919" d="M1.32247528,3.37622648 C1.32247528,3.37622648 1.56037321,4.29377352 1.59429346,4.59967783 C1.62833812,4.9054992 0.98260925,5.58514833 0.98260925,5.92501435 C0.98260925,6.26488038 1.11837321,6.87656459 1.86611164,7.1824689 C2.61385008,7.48833174 2.71569378,8.2699075 2.71569378,8.74578628 C2.71569378,9.22154067 2.4438756,10.1390048 2.4438756,10.1390048 C2.4438756,10.1390048 2.27402552,12.4158915 3.19148963,12.823681 C4.10895375,13.231429 3.90514195,13.231429 4.10895375,13.231429 C4.31280702,13.231429 5.80815949,13.8432791 6.69166188,13.6053812 C7.57524721,13.3674833 7.81297927,13.0956651 7.81297927,13.0956651 C7.81297927,13.0956651 8.69664753,13.163547 8.96846571,12.3818469 C9.24044976,11.6003126 9.41025837,9.9691547 9.30829027,9.22145774 C9.20632217,8.4737193 9.07043381,7.48837321 9.68207656,7.14846571 C10.2939266,6.80859968 10.9395311,6.40093461 10.837563,6.06102711 C10.7355949,5.72116108 10.192,5.24536523 10.192,5.24536523 C10.192,5.24536523 10.0560287,4.39586603 10.1579139,4.19192982 C10.259799,3.98803509 10.8715662,3.47815311 10.5317002,3.10440829 C10.1920415,2.73062201 9.58014992,2.73062201 9.58014992,2.73062201 L8.79861563,2.79850399 C8.79861563,2.79850399 7.47327911,1.60913876 5.74011164,1.67710367 C4.00702711,1.74506858 2.91946411,2.79850399 2.91946411,2.79850399 C2.91946411,2.79850399 2.34182456,2.59460925 1.83202552,2.79850399 C1.32222648,3.00248166 1.22059011,2.79846252 1.32247528,3.37622648 Z"/>
    <path fill="#E78724" d="M4.42767145 8.43598405C4.42767145 8.43598405 3.75469856 9.46499522 3.26107177 10.1952344 3.184689 10.3081914 3.75469856 10.3160287 3.75469856 10.3160287L4.42767145 8.43598405zM4.74808931 6.30257416C4.74808931 6.30257416 4.54523126 6.80868262 4.43409888 7.07697608 4.31347049 7.3686571 3.85355662 7.5137512 3.85355662 7.5137512 3.85355662 7.5137512 4.09195215 7.26370335 4.09195215 6.6302488 4.09195215 6.36448485 4.43505263 6.25882616 4.43505263 6.25882616L4.74808931 6.30257416z"/>
    <path fill="#E78724" d="M4.54315789 6.58874003C4.54315789 6.58874003 4.1275311 7.08348644 3.35582456 6.80640191 2.58395215 6.52940032 2.50483254 5.53978309 2.50483254 5.26269856 2.50483254 4.98561404 3.96933333 5.53978309 4.16729825 5.65854545 4.36526316 5.77730781 4.74103987 6.25223285 4.54315789 6.58874003zM1.62804785 1.3020319C1.62804785 1.3020319 2.34045614 1.1634067 2.81538118 1.53947368 3.29051356 1.91545774 3.42884848 2.2124051 3.42884848 2.2124051L2.62832217 2.84697927C2.62832217 2.84697927 2.24151515 2.66763317 2.12275279 2.15302392 2.0040319 1.63845614 2.08319298 1.40101435 1.62804785 1.3020319z"/>
    <path fill="#E78724" d="M4.33536523 5.15965231C4.02863158 4.72424561 3.52314514 4.53432536 3.11954386 4.50285167 2.43135247 4.44902711 2.10463158 4.69231579 2.10463158 4.69231579 2.10463158 4.69231579 3.23171292 4.74004466 3.55656778 5.16670175 4.16132695 5.96080064 5.04358533 6.02532376 5.1846571 5.85091228 5.02152472 5.85903987 4.84205423 5.7782201 4.64997767 5.5965933 4.52997129 5.48297289 4.432689 5.29786284 4.33536523 5.15965231zM2.43272089 6.69920893C2.43272089 6.69920893 1.18219139 6.26931738 1.41988198 5.83399362 1.65732376 5.39854545 1.46831579 5.161311 1.46831579 5.161311 1.46831579 5.161311.770047847 5.68255502.947984051 6.23664115 1.05733333 6.57675598 1.24078469 6.82298884 2.24814992 7.2950941 2.73132695 8.19257097 2.34792026 9.80801276 2.37089314 9.81560128 2.40916746 9.82833174 3.04929825 9.49920574 3.00559171 7.98784689 2.9922807 7.52374482 2.95516746 6.89016587 2.43272089 6.69920893zM4.07142584 2.07643381C3.54707177 2.34281978 2.82873365 2.71378628 2.82873365 2.71378628L3.11145774 2.85523126C3.08446252 2.8989378 3.07144179 2.92502073 3.07144179 2.92502073L3.36162998 3.0569697C3.36162998 3.0569697 4.07001595 3.57012759 4.50405423 3.90004147 4.35933333 3.45443381 3.93454226 2.75438278 3.93454226 2.75438278 3.93454226 2.75438278 3.81416268 2.43272089 4.07142584 2.07643381zM5.8133429 12.9350622C4.20167464 12.9350622 3.65575758 12.1168708 3.65575758 12.1168708L3.90762998 12.7302137C4.00283892 12.995563 5.01845614 13.82126 5.81089633 13.82126"/>
    <path fill="#E78724" d="M3.83236683 11.5640287C3.83236683 11.5640287 3.98065391 12.4702552 4.57438278 12.4702552 5.07891547 12.4702552 5.22757576 11.7047687 5.22757576 11.546571L3.83236683 11.5640287zM2.84432536 10.1973078C2.89707177 10.0520893 3.08176715 9.46499522 3.14110686 8.930689 3.21222329 8.29076555 3.18630622 7.35480702 3.18630622 7.35480702 3.18630622 7.35480702 3.02790112 7.96831579 2.88935885 8.06746411 2.75089952 8.16636364 2.49355343 8.83917065 2.49355343 8.83917065 2.49355343 8.83917065 2.35571611 9.84085486 2.29011483 10.1775279 2.47165869 10.2138947 2.62450718 10.1069091 2.84432536 10.1973078zM1.41055183 6.2268134C1.41055183 6.2268134 1.74689314 6.1079681 1.84595853 5.37582137 1.94485805 4.64350877 1.72711324 4.0102201 1.72711324 4.0102201 1.72711324 4.0102201 1.74689314 5.01953429 1.62821372 5.2174992 1.50936842 5.41533971 1.41055183 5.47472089 1.27192663 5.73206699 1.13330144 5.98945455 1.33126635 6.14761085 1.41055183 6.2268134z"/>
    <path fill="#FDC168" d="M2.21385699,1.97719617 L1.95331008,1.43174163 C1.18504285,1.51753762 2.21385699,1.97719617 2.21385699,1.97719617 Z"/>
    <path fill="#FBA919" d="M4.34519298,1.85964274 C4.34519298,1.85964274 4.02863158,1.80689633 3.87022648,1.56945455 C3.71182137,1.33192982 3.263311,0.856880383 2.54829027,0.851572568 C1.833311,0.846223285 1.12592026,1.04161722 1.12592026,1.04161722 L1.74340989,1.43178309 C1.80872089,1.42966826 1.92292185,1.43053907 2.11176396,1.43684211 C2.88670494,1.4625933 3.00600638,2.22911643 3.00600638,2.22911643 L5.737126,1.85304944"/>
    <path fill="#FFF" d="M4.60913238,6.09328868 C4.60913238,6.09328868 4.23965869,6.46276236 3.67226156,6.34391707 C3.10486443,6.22523764 2.76176396,5.97452632 2.73539075,5.53907815 C2.70901754,5.10367145 2.85423604,4.93216268 2.85423604,4.93216268 C2.85423604,4.93216268 3.48748325,5.13021053 3.79110686,5.39410845 C4.09456459,5.65792344 4.31881978,6.08014354 4.60913238,6.09328868 Z"/>
    <path fill="#C9C9C9" d="M4.16199043,5.96129825 C4.16199043,5.96129825 3.84157257,6.10767783 3.48341946,5.98845933 C3.01459011,5.83208612 2.98336523,5.34451356 2.98336523,5.34451356 C2.98336523,5.34451356 2.69574801,6.18853907 3.50212121,6.35100797 C4.14888676,6.48129825 4.53138118,6.10651675 4.53138118,6.10651675 L4.16199043,5.96129825 Z"/>
    <path fill="#463014" d="M4.3896874 1.68058692C4.35522807.956733652 4.9486252.380213716 5.1542201.355665072 5.16558214.478325359 5.14277512.95677512 5.34832855 1.10390112 5.40816587.713113238 5.61052632.282267943 6.40960128 0 6.23846571.453901116 6.38675279.834114833 6.45737161 1.01035088 7.00303987.515065391 7.370689.59692185 7.370689.59692185 7.370689.59692185 6.99155343 1.25115152 7.13984051 1.68042105 6.04444019 1.59454226 4.39503668 1.79681978 4.3896874 1.68058692zM2.06743541 2.78316108C1.80606699 2.56632855 2.00088038 2.36508772 1.98022967 2.11873046 1.96899203 1.98765231 1.9586252 1.86395534 1.91541627 1.79574163 1.6749059 1.41594258 1.10750877 1.30070494 1.10182775 1.29950239L.835524721 1.24733652 1.01180223 1.04111962C1.03465072 1.01441467 1.75858692.32369378 2.87886762.685371611 3.66251675.938114833 4.24264434 1.79516108 4.2642488 1.82978628L3.87130463 2.01456459C3.86670175 2.00726635 3.40807337 1.20168102 2.73576396.984889952 2.19229346.809524721 1.69140989.976347687 1.47685805 1.08569697 1.70492823 1.17675917 2.00311962 1.34258692 2.18279745 1.62626475 2.26755662 1.76024561 2.28186284 1.92893461 2.29567145 2.09227432 2.3138756 2.30852632 2.33091866 2.51266986 2.49007018 2.64486762L2.06743541 2.78316108zM1.3693748 5.94848485C1.3693748 5.94848485 1.77983257 5.5401563 1.90140374 4.74560128 1.94916385 4.43264753 1.86434314 3.81536523 1.72860934 3.57788198 1.75326472 4.16170016 1.56827185 4.74560128 1.56827185 4.74560128 1.56827185 4.74560128 1.44354769 5.82972249 1.3693748 5.94848485z"/>
    <path fill="#463014" d="M3.10573525 2.37076874C3.10556938 2.36989793 3.00007656 1.9089059 2.70760766 1.67619139 2.29504944 1.34801914 1.79130463 1.52259649 1.78645295 1.52413078L1.71330463 1.29817544C1.7376874 1.29025518 2.31346093 1.10883573 2.84407656 1.48183413 3.37788517 1.85694737 3.44195215 2.19697927 3.44750877 2.23454864L3.10573525 2.37076874zM2.41987011 5.65564274C2.41987011 5.65564274 2.22780343 5.40833174 2.26233486 5.13634769 2.27953142 5.00203509 2.34873259 4.8641563 2.47228965 4.81522488 2.70188448 4.72449442 2.80363464 4.95857735 2.80363464 4.95857735 2.80363464 4.95857735 2.48049605 5.03031579 2.41987011 5.65564274z"/>
    <path fill="#463014" d="M4.30044976,6.03258054 C4.30766507,6.04605742 4.31135566,6.05360447 4.31135566,6.05360447 C4.31135566,6.05360447 3.77252951,6.45799362 3.22030941,6.04763317 C2.92473046,5.82777352 2.95263796,5.28392982 3.04320255,5.05328868 C3.27869537,5.1066571 3.47844338,5.20286124 3.64539075,5.31519617 C3.4344051,5.12689314 3.24970973,4.98826794 3.25020734,4.98507496 L3.01040191,4.91719298 L2.54430941,4.75737799 C2.53833812,4.79291547 2.36832217,5.58979266 2.85904625,6.13276555 C3.07654226,6.37352472 4.09622329,6.91268262 4.58035407,5.9907815 L4.30044976,6.03258054 Z"/>
    <path fill="#463014" d="M4.24998405,6.09183732 C4.55335885,6.55357576 5.31880383,6.2897193 5.30561722,5.80156619 C5.30561722,5.80156619 4.79415949,6.08383413 4.34229027,5.5641244 C4.07847528,5.26070813 3.23312281,4.42410526 2.0867177,4.70214354 C2.87841148,4.87622329 3.92649761,5.59953748 4.24998405,6.09183732 Z"/>
    <path fill="#463014" d="M1.97960766,7.39498884 C2.05259011,7.43716108 2.30997767,7.70371292 2.31014354,8.10237959 C2.31014354,8.30229346 2.29023923,9.30659011 2.19129825,9.92014035 C2.3401244,10.0168421 2.44379266,10.0374099 2.59199681,10.1359777 C2.66618182,9.42539394 2.71938437,8.39551196 2.69458692,7.97976077 C2.66622329,7.50583094 2.41248485,7.18777671 2.17715789,7.05213716 C2.10347049,7.00975758 2.02646571,6.96808293 1.94892185,6.92615949 C1.54585965,6.70837321 1.12907177,6.48308134 1.12907177,6.09838915 C1.12907177,5.79746093 1.24605104,5.70333014 1.36991388,5.60355981 L1.38326635,5.59273684 C1.46545455,5.52634769 1.55846571,5.45104306 1.61357576,5.32738756 C1.7639362,4.98930463 1.78852632,4.12811164 1.61357576,3.90949601 C1.52637002,3.8005614 1.29270175,3.43423923 1.35987879,3.18808931 C1.38546411,3.0941244 1.44463796,3.0245008 1.54096651,2.9751547 C1.64289314,2.92294737 1.78060606,2.89649123 1.9501244,2.89649123 C2.28310686,2.89649123 2.65241467,2.99783732 2.84295694,3.05817225 C3.52380861,3.2739681 4.34535885,3.89614354 4.58085167,4.08170973 C4.58761085,4.08689314 4.59159171,4.08992026 4.59229665,4.09041786 L4.74298884,4.19520574 L4.64873365,4.03750558 C4.64292823,4.02767783 4.04604785,3.04622967 2.97880383,2.6863764 C2.77117703,2.61637959 2.36326316,2.49890271 1.96239872,2.49890271 C1.72371292,2.49890271 1.5211866,2.54057735 1.36083254,2.62268262 C1.16539713,2.72266029 1.03303349,2.88218501 0.978047847,3.08384051 C0.843279107,3.57817225 1.28221053,4.12856778 1.29718022,4.14614992 C1.34835088,4.23750239 1.37003828,4.90110367 1.25181499,5.16670175 C1.23555981,5.20335885 1.19098246,5.23939394 1.13454545,5.28492504 C1.11688038,5.29923126 1.09710048,5.31407656 1.07615949,5.32995853 C0.90937799,5.45585327 0.657173844,5.6460638 0.657173844,6.08449761 C0.657173844,6.6844051 1.26516746,7.00967464 1.75377671,7.27120893 C1.83393301,7.31433493 1.91044019,7.35513876 1.97960766,7.39498884 Z"/>
    <g fill="#463014" transform="translate(.746 .54)">
      <path d="M1.32102392,2.24408612 C1.0596555,2.02725359 1.2544689,1.82601276 1.23381818,1.5796555 C1.22258054,1.44857735 1.21221372,1.32488038 1.16900478,1.25666667 C0.928494418,0.876867624 0.361097289,0.761629984 0.355416268,0.760427432 L0.0891132376,0.708261563 L0.26539075,0.502044657 C0.288239234,0.475339713 1.01217544,-0.21538118 2.13245614,0.146296651 C2.91610526,0.399039872 3.49623285,1.25608612 3.51783732,1.29071132 L3.12489314,1.47548963 C3.12029027,1.46819139 2.66166188,0.662606061 1.98935247,0.445814992 C1.44588198,0.270449761 0.944998405,0.437272727 0.730446571,0.54662201 C0.958516746,0.637684211 1.25670813,0.803511962 1.43638596,1.08718979 C1.52114514,1.22117065 1.53545136,1.38985965 1.54925997,1.55319936 C1.56746411,1.76945136 1.58450718,1.9735949 1.74365869,2.10579266 L1.32102392,2.24408612 Z"/>
      <path d="M1.31252313,2.28849761 L1.29564593,2.27452313 C1.10182775,2.11367145 1.13620415,1.95522488 1.16950239,1.80192026 C1.18463796,1.73117703 1.20060287,1.65802871 1.19413397,1.58301435 C1.18355981,1.45687081 1.17340032,1.33785965 1.13541627,1.27777352 C0.906392344,0.916178628 0.35292823,0.800318979 0.347454545,0.799199362 L0.0148452951,0.733971292 L0.235326954,0.476210526 C0.239349282,0.471400319 0.7041563,0.00219776715 1.49137161,0.00219776715 C1.70596491,0.00219776715 1.92582456,0.0379011164 2.14456459,0.108561404 C2.96246571,0.372293461 3.54595215,1.26089633 3.5514673,1.2696874 L3.5750622,1.30742265 L3.11025518,1.52603828 L3.0915949,1.49643062 C3.04158533,1.41117384 2.60087081,0.684376396 1.97740989,0.483259968 C1.82427113,0.433830941 1.66296332,0.408867624 1.49804785,0.408867624 C1.19935885,0.408867624 0.957148325,0.490267943 0.828267943,0.54492185 C1.04364912,0.641913876 1.30485167,0.805170654 1.47014035,1.06583413 C1.56,1.20781818 1.57455502,1.38135885 1.58881978,1.54901116 C1.60631898,1.75750877 1.62286443,1.95356619 1.76911962,2.07498246 L1.8243126,2.12076236 L1.31252313,2.28849761 Z"/>
    </g>
    <g fill="#463014" transform="translate(1.659 1.203)">
      <path d="M1.44704306,1.16821691 C1.44687719,1.16734609 1.34138437,0.706354067 1.04891547,0.473639553 C0.636357257,0.145467305 0.13261244,0.320044657 0.127760766,0.321578947 L0.0546124402,0.0956236045 C0.0789952153,0.0877033493 0.65476874,-0.0937161085 1.18538437,0.279282297 C1.71919298,0.654395534 1.78325997,0.994427432 1.78881659,1.03199681 L1.44704306,1.16821691 Z"/>
      <path d="M1.41867943,1.2221244 L1.40839553,1.17675917 C1.40731738,1.17232217 1.30385646,0.727087719 1.02415949,0.504698565 C0.864759171,0.377767145 0.672516746,0.313326954 0.453113238,0.313326954 C0.28185327,0.313326954 0.154590112,0.354213716 0.140698565,0.359023923 L0.102880383,0.371588517 L0.00476874003,0.0701626794 L0.0423795853,0.0580127592 C0.0592567783,0.0526634769 0.212063796,0.00501754386 0.428232855,0.00501754386 C0.713403509,0.00501754386 0.983023923,0.0886985646 1.20827432,0.246854864 C1.75543541,0.63138118 1.82223923,0.986963317 1.82796172,1.02619139 L1.83277193,1.05720893 L1.41867943,1.2221244 Z M0.453154705,0.234290271 C0.687527911,0.234290271 0.902204147,0.306360447 1.07354705,0.44262201 C1.32189474,0.640421053 1.43870813,0.989617225 1.47403828,1.11480702 L1.74324402,1.0075311 C1.71886124,0.912488038 1.61154386,0.62723445 1.16270175,0.311709729 C0.947942584,0.16076874 0.70092185,0.0843030303 0.428274322,0.0843030303 C0.278660287,0.0843030303 0.162427432,0.108105263 0.104995215,0.12261882 L0.153553429,0.272688995 C0.209866029,0.257553429 0.318220096,0.234290271 0.453154705,0.234290271 Z"/>
    </g>
    <path fill="#463014" d="M4.54958533 12.2528421C4.43264753 12.2528421 4.31330463 12.2104211 4.23057735 12.138807 4.16725678 12.084236 3.95311962 11.8875566 3.85869856 11.6465901 3.82345136 11.5564817 3.83137161 11.4844115 3.8825008 11.4325359 3.91774801 11.3969984 3.99089633 11.3544944 4.13939075 11.3544944L4.24504944 11.3543285C4.37094418 11.3542041 4.58292504 11.3542041 4.76409569 11.3542041L4.93780223 11.3542041C5.05075917 11.3542041 5.13174482 11.3786284 5.1783126 11.4262329 5.23810845 11.4876874 5.21895056 11.5658533 5.20223923 11.6069888 5.17312919 11.679059 5.05266667 11.9135981 4.84873046 12.1316332 4.77570654 12.2097576 4.66942584 12.2528421 4.54958533 12.2528421zM4.7251745 6.11899841L4.24994258 6.09183732C4.24994258 6.09183732 4.3714343 6.28208931 4.45012621 6.5281563 4.53899299 6.80648485 4.36886725 7.21323764 4.36886725 7.21323764 4.36886725 7.21323764 5.0025098 6.57588517 4.7251745 6.11899841zM4.14511324 13.3676906C2.64237959 13.2522041 2.11367145 11.8322392 2.11367145 11.5364944L2.50611802 11.5366603 2.30989474 11.5364944 2.50611802 11.5364944C2.50806699 11.6643381 2.9074386 12.8789984 4.17517703 12.976488L4.14511324 13.3676906z"/>
    <path fill="#FFF" d="M3.72281021,10.82363 C3.69933971,10.6879075 3.69689314,10.559193 3.72554705,10.4327177 C3.61134609,10.3468804 3.40641467,10.314992 3.25265391,10.2651483 C3.12692504,10.1855726 2.48351834,10.3467145 2.01672089,9.78180542 C1.43186603,9.07441467 1.55494099,8.65207018 1.55494099,8.65207018 C1.40499522,8.81868581 1.25965231,8.75519936 1.03108453,9.53204785 C0.802185008,10.3090622 1.13852632,10.8507496 1.76538756,11.3945518 C2.06154705,11.6514418 2.48020096,11.7572663 2.84030303,11.7977799 C2.71967464,11.6766539 3.04635407,11.6645455 3.27152153,11.5802839 C3.25356619,11.3984912 3.28362998,11.2220064 3.4191866,11.0798979 C3.50091866,10.9942265 3.60607974,10.9430144 3.71518022,10.9022105 C3.72127592,10.8881116 3.72641786,10.8750909 3.73222329,10.8615726 C3.72861563,10.8492153 3.72509091,10.8367337 3.72281021,10.82363 Z"/>
    <path fill="#C9C9C9" d="M3.26849442,11.5755566 C3.25547368,11.5374067 3.24564593,11.4985104 3.23598405,11.4593652 C3.22557576,11.4166124 3.17374163,11.2954864 3.23764274,11.4337799 C3.22122169,11.3983668 3.21048166,11.3618756 3.2025614,11.3250941 C2.18735885,11.3238086 1.30414673,10.6267847 1.47478469,9.16137161 C1.34188198,8.98492823 1.15577671,9.51716108 1.15577671,9.51716108 C1.15577671,9.51716108 0.647553429,10.9928995 1.96015949,11.5648581 C2.39751515,11.7556077 2.7840319,11.8923254 2.8752185,11.8371324 C3.06518022,11.8757384 3.23664753,11.7432919 3.30096332,11.6562105 C3.28889633,11.6294641 3.2779075,11.6026762 3.26849442,11.5755566 Z"/>
    <path fill="#463014" d="M3.70452313,10.6111515 C3.70609888,10.4874545 3.73135247,10.3676555 3.79114833,10.2482711 C3.79533652,10.2400606 3.8001882,10.2321818 3.80466667,10.2241786 C3.41400319,10.2208198 2.96408293,10.1834163 2.58096651,10.0300702 C2.15986603,9.86162998 1.63310686,9.28535885 1.54258373,8.6082807 C1.54258373,8.6082807 0.749521531,9.22025518 0.982567783,10.5301244 C1.20130781,11.7601276 2.23056778,12.1611164 3.40442424,12.2289569 C3.40504625,12.2209952 3.27239234,11.9469793 3.31431579,11.779244 C2.64777033,11.8276778 1.90239553,11.5701659 1.54258373,10.9780957 C1.21316746,10.436201 1.30555662,9.51102392 1.44094737,9.3754673 C1.77119298,10.4174992 2.95948006,10.6293142 3.70452313,10.6111515 Z"/>
    <path fill="#463014" d="M3.82751515,9.8651547 C3.6162807,10.4850494 3.1848134,10.9867209 3.1848134,10.9867209 C3.1848134,10.9867209 3.77833493,10.9597257 3.8110941,10.854689 C3.83535247,10.7772695 4.34701754,9.57948644 4.5434067,8.17635726 C4.35866986,8.47985646 3.8455949,9.81207656 3.82751515,9.8651547 Z"/>
    <path fill="#E78724" d="M7.19014035 8.43598405C7.19014035 8.43598405 7.86294737 9.46499522 8.35674003 10.1952344 8.43312281 10.3081914 7.86294737 10.3160287 7.86294737 10.3160287L7.19014035 8.43598405zM6.86963955 6.30257416C6.86963955 6.30257416 7.07253907 6.80868262 7.18350558 7.07697608 7.30413397 7.3686571 7.76400638 7.5137512 7.76400638 7.5137512 7.76400638 7.5137512 7.52565231 7.26370335 7.52565231 6.6302488 7.52565231 6.36448485 7.1825933 6.25882616 7.1825933 6.25882616L6.86963955 6.30257416z"/>
    <path fill="#E78724" d="M7.07452951 6.58874003C7.07452951 6.58874003 7.4901563 7.08348644 8.26207018 6.80640191 9.03398405 6.52931738 9.1130622 5.53978309 9.1130622 5.26269856 9.1130622 4.98561404 7.6485614 5.53978309 7.45059649 5.65854545 7.25263158 5.77730781 6.876689 6.25223285 7.07452951 6.58874003zM9.98972249 1.3020319C9.98972249 1.3020319 9.27731419 1.1634067 8.80222329 1.53947368 8.32729825 1.91545774 8.18871451 2.2124051 8.18871451 2.2124051L8.9892823 2.8469378C8.9892823 2.8469378 9.37625518 2.66759171 9.49501754 2.15298246 9.61369697 1.63845614 9.53457735 1.40101435 9.98972249 1.3020319z"/>
    <path fill="#E78724" d="M7.2824051 5.15965231C7.58913876 4.72424561 8.09445933 4.53432536 8.49822648 4.50285167 9.18645933 4.44902711 9.51301435 4.69231579 9.51301435 4.69231579 9.51301435 4.69231579 8.38593301 4.74004466 8.06103668 5.16670175 7.45623604 5.96080064 6.57426794 6.02532376 6.43319617 5.85091228 6.59628708 5.85903987 6.77584051 5.7782201 6.96779266 5.5965933 7.08775758 5.48297289 7.18508134 5.29786284 7.2824051 5.15965231zM9.18504944 6.69920893C9.18504944 6.69920893 10.4354131 6.26931738 10.1979298 5.83399362 9.96048804 5.39854545 10.1493301 5.161311 10.1493301 5.161311 10.1493301 5.161311 10.847764 5.68255502 10.6696619 6.23664115 10.5603126 6.57675598 10.3768612 6.82298884 9.36949601 7.2950941 8.88631898 8.19257097 9.26972568 9.80801276 9.24687719 9.81560128 9.2085614 9.82833174 8.56851356 9.49920574 8.6122201 7.98784689 8.62548963 7.52374482 8.66260287 6.89016587 9.18504944 6.69920893zM7.54638596 2.07643381C8.07057416 2.34281978 8.78903668 2.71378628 8.78903668 2.71378628L8.50635407 2.85523126C8.53334928 2.8989378 8.54641148 2.92502073 8.54641148 2.92502073L8.25622329 3.0569697C8.25622329 3.0569697 7.54779585 3.57012759 7.11375758 3.90004147 7.2583126 3.45443381 7.68310367 2.75438278 7.68310367 2.75438278 7.68310367 2.75438278 7.80369059 2.43272089 7.54638596 2.07643381zM5.80451037 12.9350622C7.41592982 12.9350622 7.96184689 12.1168708 7.96184689 12.1168708L7.71014035 12.7302137C7.61493142 12.995563 6.59923126 13.82126 5.80695694 13.82126"/>
    <path fill="#E78724" d="M7.78540351 11.5640287C7.78540351 11.5640287 7.63695056 12.4702552 7.04338756 12.4702552 6.5389378 12.4702552 6.39023604 11.7047687 6.39023604 11.546571L7.78540351 11.5640287zM8.77344498 10.1973078C8.72069856 10.0520893 8.53600319 9.46499522 8.47649761 8.930689 8.40538118 8.29076555 8.43146411 7.35480702 8.43146411 7.35480702 8.43146411 7.35480702 8.58982775 7.96831579 8.72820415 8.06746411 8.86687081 8.16636364 9.12405104 8.83917065 9.12405104 8.83917065 9.12405104 8.83917065 9.26188836 9.84085486 9.32748963 10.1775279 9.14598724 10.2138947 8.99330463 10.1069091 8.77344498 10.1973078zM10.2073429 6.2268134C10.2073429 6.2268134 9.87083573 6.1079681 9.7719362 5.37582137 9.67303668 4.64350877 9.89074003 4.0102201 9.89074003 4.0102201 9.89074003 4.0102201 9.87083573 5.01953429 9.98963955 5.2174992 10.1084848 5.41542265 10.2073429 5.47472089 10.3459266 5.73206699 10.4843445 5.98941308 10.2864625 6.14761085 10.2073429 6.2268134z"/>
    <path fill="#FDC168" d="M9.80556619,1.97719617 L10.0663678,1.43174163 C10.8341528,1.51753762 9.80556619,1.97719617 9.80556619,1.97719617 Z"/>
    <path fill="#FBA919" d="M7.27245295,1.85964274 C7.27245295,1.85964274 7.58918022,1.80689633 7.74741946,1.56945455 C7.90578309,1.33192982 8.35445933,0.856880383 9.06952153,0.851572568 C9.7845008,0.846223285 10.4918915,1.04161722 10.4918915,1.04161722 L9.87436045,1.43178309 C9.80904944,1.42966826 9.69484848,1.43053907 9.50584051,1.43684211 C8.73102392,1.4625933 8.61172249,2.22911643 8.61172249,2.22911643 L5.88068581,1.85304944"/>
    <path fill="#FFF" d="M7.00863796,6.09328868 C7.00863796,6.09328868 7.37811164,6.46276236 7.94538437,6.34391707 C8.51282297,6.22523764 8.85588198,5.97452632 8.88229665,5.53907815 C8.90862839,5.10367145 8.76357576,4.93216268 8.76357576,4.93216268 C8.76357576,4.93216268 8.13016268,5.13021053 7.82670494,5.39410845 C7.52324721,5.65800638 7.29899203,6.08014354 7.00863796,6.09328868 Z"/>
    <path fill="#C9C9C9" d="M7.4556555,5.96129825 C7.4556555,5.96129825 7.77619777,6.10767783 8.13422648,5.98845933 C8.60318022,5.83208612 8.6344051,5.34451356 8.6344051,5.34451356 C8.6344051,5.34451356 8.92185646,6.18853907 8.11548325,6.35100797 C7.46884211,6.48129825 7.08626475,6.10651675 7.08626475,6.10651675 L7.4556555,5.96129825 Z"/>
    <path fill="#463014" d="M9.55029346 2.78316108C9.81166188 2.56632855 9.61701435 2.36508772 9.63766507 2.11873046 9.64869537 1.98765231 9.6590622 1.86395534 9.7023126 1.79574163 9.94286443 1.41594258 10.5102201 1.30070494 10.516067 1.29950239L10.7824115 1.24733652 10.6060925 1.04111962C10.583244 1.01441467 9.85930781.32369378 8.73886124.685371611 7.95533652.938114833 7.37520893 1.79516108 7.35364593 1.82978628L7.74642424 2.01456459C7.75119298 2.00726635 8.20986284 1.20168102 8.88217225.984889952 9.42560128.809524721 9.92648485.976347687 10.1409123 1.08569697 9.91296651 1.17675917 9.61465072 1.34258692 9.43497289 1.62626475 9.35021372 1.76024561 9.3360319 1.92893461 9.32226475 2.09227432 9.30406061 2.30852632 9.28685167 2.51266986 9.12765869 2.64486762L9.55029346 2.78316108zM10.3562441 5.94848485C10.3562441 5.94848485 9.94584902 5.5401563 9.82423515 4.74560128 9.77645827 4.43264753 9.86115364 3.81536523 9.99688341 3.57788198 9.97221937 4.16170016 10.1574323 4.74560128 10.1574323 4.74560128 10.1574323 4.74560128 10.282252 5.82972249 10.3562441 5.94848485z"/>
    <path fill="#463014" d="M8.51203509 2.37076874C8.51220096 2.36989793 8.61769378 1.9089059 8.91020415 1.67619139 9.32272089 1.34801914 9.82650718 1.52259649 9.83119298 1.52413078L9.90454864 1.29817544C9.88008293 1.29025518 9.30439234 1.10883573 8.77361085 1.48183413 8.23980223 1.85694737 8.17590112 2.19697927 8.17017863 2.23454864L8.51203509 2.37076874zM9.25282255 5.65564274C9.25282255 5.65564274 9.44492312 5.40833174 9.41020115 5.13634769 9.393186 5.00203509 9.32397262 4.8641563 9.20039375 4.81522488 8.97075841 4.72449442 8.86894418 4.95857735 8.86894418 4.95857735 8.86894418 4.95857735 9.19218591 5.03031579 9.25282255 5.65564274z"/>
    <path fill="#463014" d="M7.31736204,6.03258054 C7.31014673,6.04605742 7.30641467,6.05360447 7.30641467,6.05360447 C7.30641467,6.05360447 7.84507496,6.45799362 8.39729506,6.04763317 C8.69308134,5.82777352 8.66513238,5.28392982 8.57440191,5.05328868 C8.33903349,5.1066571 8.13932695,5.20286124 7.97229665,5.31519617 C8.18332376,5.12689314 8.36801914,4.98826794 8.36735566,4.98507496 L8.60732695,4.91719298 L9.07337799,4.75746093 C9.07934928,4.79299841 9.24932376,5.5898756 8.75843381,6.13284848 C8.54097927,6.37360766 7.52129825,6.91276555 7.03729187,5.99086443 L7.31736204,6.03258054 Z"/>
    <path fill="#463014" d="M7.36766188,6.09183732 C7.06428708,6.55357576 6.29904944,6.2897193 6.31227751,5.80156619 C6.31227751,5.80156619 6.82356938,6.08383413 7.2754386,5.5641244 C7.53925359,5.26070813 8.38477193,4.42410526 9.53113557,4.70214354 C8.73948325,4.87622329 7.69131419,5.59953748 7.36766188,6.09183732 Z"/>
    <path fill="#463014" d="M9.63828708,7.39498884 C9.56526316,7.43716108 9.3077512,7.70371292 9.3077512,8.10237959 C9.30758533,8.30229346 9.3275311,9.30659011 9.42659649,9.92014035 C9.27772887,10.0168421 9.17406061,10.0374099 9.02585646,10.1359777 C8.95167145,9.42539394 8.89830303,8.39551196 8.92326635,7.97976077 C8.95158852,7.50583094 9.20524402,7.18777671 9.44052951,7.05213716 C9.51421691,7.00975758 9.59126316,6.96808293 9.66897289,6.92615949 C10.0720351,6.70837321 10.488823,6.48308134 10.488823,6.09838915 C10.488823,5.79746093 10.3717193,5.70333014 10.2478565,5.60355981 L10.2346699,5.59273684 C10.1524817,5.52634769 10.0593046,5.45104306 10.0043604,5.32738756 C9.85395853,4.98930463 9.82928549,4.12811164 10.0041946,3.90949601 C10.0914003,3.8005614 10.3252344,3.43423923 10.2580574,3.18808931 C10.2323062,3.0941244 10.1730909,3.0245008 10.0768038,2.9751547 C9.97483573,2.92294737 9.83733014,2.89649123 9.66764593,2.89649123 C9.33487081,2.89649123 8.96535566,2.99783732 8.77497927,3.05817225 C8.09412759,3.2739681 7.27257735,3.89614354 7.03691866,4.08170973 C7.03020096,4.08689314 7.02630303,4.08992026 7.02555662,4.09041786 L6.8747815,4.19520574 L6.96903668,4.03750558 C6.97500797,4.02767783 7.57176396,3.04622967 8.63896651,2.6863764 C8.84663477,2.61637959 9.25450718,2.49890271 9.65541308,2.49890271 C9.89409888,2.49890271 10.0964179,2.54057735 10.2569378,2.62268262 C10.4524147,2.72266029 10.5846954,2.88218501 10.639764,3.08384051 C10.7745327,3.57817225 10.3355598,4.12856778 10.3205901,4.14614992 C10.2694195,4.23750239 10.2477735,4.90110367 10.3658309,5.16670175 C10.3820861,5.20335885 10.4266635,5.23939394 10.4832249,5.28492504 C10.50089,5.29923126 10.520504,5.31407656 10.5416108,5.32995853 C10.7084338,5.45585327 10.9605136,5.6460638 10.9605136,6.08449761 C10.9605136,6.6844051 10.3525199,7.00967464 9.86407656,7.27120893 C9.78383732,7.31433493 9.70724721,7.35513876 9.63828708,7.39498884 Z"/>
    <path fill="#463014" d="M8.91298246,2.71258373 C8.8162807,2.54878788 8.5689697,2.23251675 7.99896013,1.95460287 C7.36285167,1.64455183 6.62664115,1.48718341 5.81044019,1.48681021 L5.81044019,1.48664434 C5.81044019,1.48664434 5.80936204,1.48664434 5.80886443,1.48664434 C5.80886443,1.48664434 5.80778628,1.48664434 5.80728868,1.48664434 L5.80728868,1.48672727 C4.99096332,1.48714195 4.25462839,1.64451037 3.61868581,1.95451994 C3.04867624,2.23247528 2.80144817,2.54870494 2.70466348,2.7125008 L2.6631547,2.76744498 L3.15126635,2.87608931 L3.16673365,2.85655821 L3.17490271,2.83864434 C3.18244976,2.80638278 3.24788517,2.6322201 3.79210207,2.36682935 C4.37388836,2.08306858 5.05245933,1.9392185 5.8087815,1.9389697 C6.5651866,1.9392185 7.2434673,2.08306858 7.82521212,2.36682935 C8.36947049,2.6322201 8.43511324,2.80638278 8.44257735,2.83864434 L8.45070494,2.85655821 L8.46600638,2.87608931 L8.95428389,2.76744498 L8.91298246,2.71258373 Z"/>
    <g fill="#463014" transform="translate(7.257 .54)">
      <path d="M2.29351515,2.24408612 C2.55488357,2.02725359 2.36023604,1.82601276 2.38088676,1.5796555 C2.39191707,1.44857735 2.40228389,1.32488038 2.44553429,1.25666667 C2.68608612,0.876867624 3.25344179,0.761629984 3.25928868,0.760427432 L3.52563317,0.708261563 L3.34931419,0.502044657 C3.32646571,0.475339713 2.60252951,-0.21538118 1.48208293,0.146296651 C0.698558214,0.399039872 0.118430622,1.25608612 0.0968676236,1.29071132 L0.489645933,1.47548963 C0.494414673,1.46819139 0.95308453,0.662606061 1.62539394,0.445814992 C2.16882297,0.270449761 2.66970654,0.437272727 2.88413397,0.54662201 C2.6561882,0.637684211 2.35787241,0.803511962 2.17819458,1.08718979 C2.09343541,1.22117065 2.07925359,1.38985965 2.06548644,1.55319936 C2.0472823,1.76945136 2.03007337,1.9735949 1.87088038,2.10579266 L2.29351515,2.24408612 Z"/>
      <path d="M1.79047528,2.12092823 L1.84546093,2.07514833 C1.99184051,1.95373206 2.00826156,1.75763317 2.02592663,1.54917703 C2.04010845,1.38144179 2.05474641,1.20790112 2.14460606,1.066 C2.30972887,0.805419458 2.57113876,0.642121212 2.78647847,0.545046252 C2.65755662,0.490433812 2.41530463,0.409033493 2.11657416,0.409033493 C1.95157576,0.409033493 1.79055821,0.43399681 1.63737799,0.483425837 C1.0137512,0.684542265 0.57307815,1.41133971 0.523192982,1.49659649 L0.504491228,1.52616268 L0.0396842105,1.30758852 L0.0633205742,1.26985327 C0.0687942584,1.2610622 0.652114833,0.37245933 1.47005742,0.108727273 C1.68879745,0.0380669856 1.90861563,0.00240510367 2.12341627,0.00240510367 C2.91059011,0.00240510367 3.3754386,0.47169059 3.37941946,0.476417863 L3.59990112,0.734178628 L3.2672504,0.799406699 C3.26173525,0.800526316 2.7083126,0.91630303 2.47912281,1.27798086 C2.44113876,1.33810845 2.4311866,1.45699522 2.4204051,1.58322169 C2.41414354,1.65827751 2.42990112,1.73142584 2.44524402,1.80212759 C2.4785008,1.95543222 2.51283573,2.11400319 2.31893461,2.27473046 L2.30209888,2.28870494 L1.79047528,2.12092823 Z"/>
    </g>
    <g fill="#463014" transform="translate(8.086 1.203)">
      <path d="M0.425910686,1.16821691 C0.426076555,1.16734609 0.531569378,0.706354067 0.824079745,0.473639553 C1.23659649,0.145467305 1.74038278,0.320044657 1.74506858,0.321578947 L1.81842424,0.0956236045 C1.79395853,0.0877033493 1.21826794,-0.0937161085 0.687486443,0.279282297 C0.153677831,0.654395534 0.0897767145,0.994427432 0.0840542265,1.03199681 L0.425910686,1.16821691 Z"/>
      <path d="M0.040430622,1.05720893 L0.0450334928,1.02619139 C0.0508389155,0.986963317 0.117684211,0.631464115 0.66476236,0.246854864 C0.88984689,0.0886985646 1.15955024,0.00501754386 1.44472089,0.00501754386 C1.66101435,0.00501754386 1.81382137,0.0525805423 1.83074003,0.0580127592 L1.86830941,0.0701626794 L1.77023923,0.371588517 L1.73237959,0.359023923 C1.71823923,0.354255183 1.59101754,0.313326954 1.41984051,0.313326954 C1.20047847,0.313326954 1.00836045,0.377684211 0.848960128,0.504698565 C0.569221691,0.727170654 0.465677831,1.17236364 0.464724083,1.17675917 L0.454440191,1.22204147 L0.040430622,1.05720893 Z M1.71944179,0.272688995 L1.76816587,0.12261882 C1.71069219,0.108022329 1.59433493,0.0843030303 1.44472089,0.0843030303 C1.17211483,0.0843030303 0.925011164,0.160851675 0.710376396,0.311709729 C0.261368421,0.627317384 0.154051037,0.912488038 0.129709729,1.0075311 L0.399122807,1.11480702 C0.434370016,0.98953429 0.551059011,0.640338118 0.7995311,0.44262201 C0.970998405,0.306360447 1.18542584,0.234290271 1.41979904,0.234290271 C1.55456778,0.234290271 1.66312919,0.257553429 1.71944179,0.272688995 Z"/>
    </g>
    <path fill="#463014" d="M6.76920574 12.1316332C6.565311 11.9136396 6.44468262 11.679059 6.4155311 11.6069888 6.39886124 11.5659362 6.37986922 11.4876874 6.43966507 11.4262329 6.48627432 11.3786284 6.56705263 11.3542041 6.68000957 11.3542041L6.85384051 11.3542041C7.03501116 11.3542041 7.24686762 11.3542041 7.3728453 11.3543285L7.47850399 11.3544944C7.62691547 11.3544944 7.70002233 11.3969569 7.73522807 11.4325359 7.78639872 11.4843285 7.79440191 11.5563987 7.7591547 11.6465901 7.66473365 11.8875981 7.45055502 12.0842775 7.38723445 12.138807 7.30429984 12.2104211 7.18524721 12.2528421 7.06830941 12.2528421 6.94842743 12.2528421 6.84222967 12.2097576 6.76920574 12.1316332zM6.95355896 6.11899841L7.42870362 6.09183732C7.42870362 6.09183732 7.30734936 6.28208931 7.22862551 6.5281563 7.13972266 6.80648485 7.30991746 7.21323764 7.30991746 7.21323764 7.30991746 7.21323764 6.675971 6.57588517 6.95355896 6.11899841z"/>
    <path fill="#E78724" d="M5.80894737,4.61162041 C5.53986603,4.61162041 5.18901116,4.60423923 4.92577671,4.41506539 C4.92577671,4.41506539 5.27045295,5.01928549 5.80849123,5.01928549 L5.80894737,4.94281978 L5.80940351,5.01928549 C6.34748325,5.01928549 6.69211802,4.41506539 6.69211802,4.41506539 C6.42888357,4.60423923 6.0777799,4.61162041 5.80894737,4.61162041 Z"/>
    <path fill="#463014" d="M6.5498437 4.6087177C6.27993301 4.79293664 6.03888357 4.85677488 5.80894737 4.86243381 5.5789697 4.85677488 5.33800319 4.79293664 5.06805104 4.6087177 5.06805104 4.6087177 5.46111962 5.14968253 5.80695694 5.15384487L5.80695694 5.15417225C5.80757895 5.15417225 5.80820096 5.15398518 5.8089059 5.15398518 5.80952791 5.15398518 5.81014992 5.15417225 5.81085486 5.15417225L5.81085486 5.15384487C6.15660925 5.14968253 6.5498437 4.6087177 6.5498437 4.6087177zM7.47269856 13.3676906L7.4425933 12.9764466C8.71004147 12.8789569 9.10941308 11.6642967 9.11148644 11.536453L9.50393309 11.536453C9.50409888 11.8321563 8.97522488 13.2522041 7.47269856 13.3676906z"/>
    <path fill="#FFF" d="M7.89491866,10.82363 C7.91851356,10.6879075 7.92079426,10.559193 7.89218182,10.4327177 C8.00654864,10.3468804 8.21131419,10.314992 8.36507496,10.2651483 C8.49080383,10.1855726 9.1343764,10.3467145 9.60117384,9.78180542 C10.1860287,9.07441467 10.0627879,8.65207018 10.0627879,8.65207018 C10.2128581,8.81868581 10.3580766,8.75519936 10.5868102,9.53204785 C10.8157097,10.3090622 10.4792026,10.8507496 9.85234131,11.3945518 C9.55622329,11.6514418 9.13752791,11.7572663 8.77742584,11.7977799 C8.89805423,11.6766539 8.5713748,11.6645455 8.34633174,11.5802839 C8.36432855,11.3984912 8.33409888,11.2220064 8.19858373,11.0798979 C8.11701754,10.9942265 8.01169059,10.9430144 7.90267305,10.9022105 C7.89653589,10.8881116 7.89126954,10.8750909 7.88562998,10.8615726 C7.88923764,10.8492153 7.89263796,10.8367337 7.89491866,10.82363 Z"/>
    <path fill="#C9C9C9" d="M8.34911005,11.5755566 C8.36229665,11.5374067 8.37195853,11.4985104 8.38162041,11.4593652 C8.39219458,11.4166124 8.44402871,11.2954864 8.38004466,11.4337799 C8.39646571,11.3983668 8.40720574,11.3618756 8.415126,11.3250941 C9.43032855,11.3238086 10.3135407,10.6267847 10.1427368,9.16137161 C10.2756396,8.98492823 10.4618692,9.51716108 10.4618692,9.51716108 C10.4618692,9.51716108 10.970134,10.9928995 9.65752791,11.5648581 C9.22017225,11.7556077 8.83369697,11.8923254 8.7424689,11.8371324 C8.55234131,11.8757384 8.380874,11.7432919 8.31672408,11.6562105 C8.32870813,11.6294641 8.33994577,11.6026762 8.34911005,11.5755566 Z"/>
    <path fill="#463014" d="M7.91308134,10.6111515 C7.91167145,10.4874545 7.88625199,10.3676555 7.82662201,10.2482711 C7.82239234,10.2400606 7.81754067,10.2321818 7.81310367,10.2241786 C8.20372568,10.2208198 8.6536874,10.1834163 9.03680383,10.0300702 C9.45786284,9.86162998 9.98462201,9.28535885 10.0751866,8.6082807 C10.0751866,8.6082807 10.8682488,9.22025518 10.6352026,10.5301244 C10.4162967,11.7601276 9.38716108,12.1611164 8.21334609,12.2289569 C8.21272408,12.2209952 8.34541946,11.9469793 8.30345455,11.779244 C8.96983413,11.8276778 9.71520893,11.5701659 10.0752281,10.9780957 C10.404437,10.436201 10.3120893,9.51102392 10.1766986,9.3754673 C9.84657735,10.4174992 8.65816587,10.6293142 7.91308134,10.6111515 Z"/>
    <path fill="#463014" d="M5.35998086,0.345505582 C5.21973844,0.193901116 4.96189474,0.0131866029 4.36737799,0.0131866029 C4.36737799,0.0131866029 3.24021372,0.012523126 2.78382456,0.0122328549 C2.78320255,0.0122328549 2.78241467,0.0122328549 2.7818756,0.0122328549 C2.7818756,0.0122328549 2.78046571,0.0122328549 2.77992663,0.0122328549 C2.32357895,0.0125645933 1.1961244,0.0131866029 1.1961244,0.0131866029 C0.601773525,0.0131866029 0.343929825,0.193942584 0.203604466,0.345505582 C-0.000787878788,0.56615311 -0.0328421053,0.873094099 0.108561404,1.2567496 C0.484296651,2.27792344 1.01229984,3.31539394 2.7798437,3.3168453 L2.7798437,3.31701116 C2.78050718,3.31701116 2.78108772,3.3168453 2.78179266,3.3168453 C2.78241467,3.3168453 2.78303668,3.31701116 2.78374163,3.31701116 L2.78374163,3.3168453 C4.55111962,3.315311 5.07912281,2.27792344 5.45498246,1.2567496 C5.59638596,0.873094099 5.5642488,0.56615311 5.35998086,0.345505582 Z M5.08480383,1.18513557 C4.90578947,1.69792026 4.42468581,2.93911962 2.7817512,2.94127592 C1.13860925,2.93911962 0.657671451,1.69796172 0.478657097,1.18513557 C0.379591707,0.900628389 0.387138756,0.690098884 0.501837321,0.559311005 C0.580169059,0.469907496 0.760137161,0.363212121 1.17029027,0.363212121 L1.59877193,0.363046252 C1.91487719,0.362755981 2.31176077,0.362424242 2.78179266,0.362258373 C3.25165869,0.362424242 3.6487496,0.362755981 3.96477193,0.363046252 L4.39308772,0.363212121 C4.80336523,0.363212121 4.98329187,0.469866029 5.06166507,0.559311005 C5.17623923,0.690223285 5.18386922,0.900628389 5.08480383,1.18513557 Z" transform="translate(3.027 10.574)"/>
    <path fill="#463014" d="M7.79017225,9.8651547 C8.0014067,10.4850494 8.43283254,10.9867209 8.43283254,10.9867209 C8.43283254,10.9867209 7.83935247,10.9597257 7.80655183,10.854689 C7.78245933,10.7772695 7.27075279,9.57948644 7.07436364,8.17635726 C7.25897608,8.47985646 7.77205104,9.81207656 7.79017225,9.8651547 Z"/>
  </g>
</svg>
