<svg xmlns="http://www.w3.org/2000/svg" width="16" height="16" viewBox="0 0 16 16"><rect id="frame" width="16" height="16" fill="none"/><g fill="none"><path fill="#FBA919" d="M3.322 4.376s.238.918.272 1.224c.034.305-.611.985-.611 1.325 0 .34.135.952.883 1.257.748.306.85 1.088.85 1.564s-.272 1.393-.272 1.393-.17 2.277.747 2.685c.918.407.714.407.918.407.204 0 1.7.612 2.583.374.883-.238 1.121-.51 1.121-.51s.884.069 1.155-.713c.272-.782.442-2.413.34-3.16-.102-.748-.238-1.734.374-2.074.612-.34 1.258-.747 1.156-1.087-.102-.34-.646-.816-.646-.816s-.136-.85-.034-1.053c.102-.204.714-.714.374-1.088-.34-.373-.952-.373-.952-.373l-.781.068S9.473 2.609 7.74 2.677C6.007 2.745 4.92 3.8 4.92 3.8s-.578-.204-1.088 0c-.51.203-.611 0-.51.577z"/><path fill="#E78724" d="M6.428 9.436s-.673 1.029-1.167 1.76c-.076.112.494.12.494.12l.673-1.88zm.32-2.133s-.203.506-.314.774c-.12.292-.58.437-.58.437s.238-.25.238-.884c0-.266.343-.371.343-.371l.313.044z"/><path fill="#E78724" d="M6.543 7.589s-.415.494-1.187.217-.851-1.266-.851-1.543c0-.277 1.464.277 1.662.396.198.118.574.593.376.93zM3.628 2.302s.712-.139 1.187.237c.476.376.614.673.614.673l-.8.635s-.387-.18-.506-.694c-.119-.515-.04-.752-.495-.851z"/><path fill="#E78724" d="M6.335 6.16c-.306-.436-.812-.626-1.215-.657-.689-.054-1.015.19-1.015.19s1.127.047 1.452.474c.604.794 1.487.858 1.628.684-.163.008-.343-.073-.535-.254-.12-.114-.217-.3-.315-.437zM4.433 7.7s-1.25-.43-1.013-.866c.237-.435.048-.673.048-.673s-.698.522-.52 1.076c.11.34.293.586 1.3 1.058.483.898.1 2.513.123 2.52.038.013.678-.316.635-1.827-.014-.464-.05-1.098-.573-1.289zM6.07 3.075c-.524.267-1.242.638-1.242.638l.282.141c-.027.044-.04.07-.04.07l.29.132s.709.513 1.143.843c-.145-.446-.57-1.146-.57-1.146s-.12-.321.137-.678zm1.742 10.86c-1.611 0-2.157-.82-2.157-.82l.252.614c.095.266 1.11 1.091 1.903 1.091"/><path fill="#E78724" d="M5.832 12.564s.149.906.742.906c.505 0 .654-.765.654-.923l-1.396.017zm-.988-1.367c.053-.145.238-.732.297-1.266.071-.64.045-1.576.045-1.576s-.158.613-.297.712c-.138.1-.395.772-.395.772s-.138 1.002-.204 1.339c.182.036.335-.071.554.02zm-1.433-3.97s.336-.119.435-.851c.099-.732-.119-1.366-.119-1.366s.02 1.01-.099 1.207c-.119.198-.217.258-.356.515-.139.257.06.416.139.495z"/><path fill="#FDC168" d="M4.214 2.977l-.26-.545c-.769.086.26.545.26.545z"/><path fill="#FBA919" d="M6.345 2.86s-.316-.053-.475-.29c-.158-.238-.607-.713-1.322-.718-.715-.006-1.422.19-1.422.19l.617.39c.066-.002.18-.001.369.005.775.026.894.792.894.792l2.731-.376"/><path fill="#FFF" d="M6.61 7.093s-.37.37-.938.25c-.567-.118-.91-.368-.937-.804-.026-.435.12-.607.12-.607s.632.198.936.462c.304.264.528.686.818.7z"/><path fill="#C9C9C9" d="M6.162 6.961s-.32.147-.679.027c-.468-.156-.5-.643-.5-.643s-.287.844.52 1.006c.646.13 1.028-.244 1.028-.244l-.369-.146z"/><path fill="#463014" d="M6.39 2.68c-.035-.723.559-1.3.764-1.324.012.122-.011.6.194.748.06-.39.263-.822 1.062-1.104-.172.454-.023.834.047 1.01.546-.495.914-.413.914-.413s-.38.654-.231 1.083c-1.096-.085-2.745.117-2.75 0zM4.067 3.784c-.26-.217-.066-.418-.087-.664-.011-.131-.021-.255-.065-.323-.24-.38-.807-.495-.813-.496l-.266-.053.176-.206c.023-.027.747-.717 1.867-.356.784.253 1.364 1.11 1.385 1.145l-.393.185c-.004-.008-.463-.813-1.135-1.03a1.72 1.72 0 0 0-1.26.1c.229.092.527.258.707.541.085.134.099.303.113.466.018.217.035.42.194.553l-.423.138zM3.37 6.948s.41-.408.532-1.202c.048-.313-.037-.93-.172-1.168a3.888 3.888 0 0 1-.16 1.168s-.125 1.084-.2 1.202z"/><path fill="#463014" d="M5.106 3.37S5 2.91 4.708 2.677c-.413-.328-.917-.153-.922-.152l-.073-.226c.025-.008.6-.19 1.131.184.534.375.598.715.604.753l-.342.136zM4.42 6.657s-.192-.248-.158-.52c.018-.134.087-.272.21-.32.23-.092.332.143.332.143s-.324.071-.384.697z"/><path fill="#463014" d="M6.3 7.033l.011.02s-.538.405-1.09-.005c-.296-.22-.268-.764-.178-.995.236.054.435.15.602.262-.21-.188-.395-.327-.395-.33l-.24-.068-.466-.16c-.006.036-.176.833.315 1.376.218.24 1.237.78 1.721-.142l-.28.042z"/><path fill="#463014" d="M6.25 7.092c.303.462 1.069.198 1.056-.29 0 0-.512.282-.964-.238-.264-.303-1.109-1.14-2.255-.862.791.174 1.84.898 2.163 1.39z"/><path fill="#463014" d="M3.98 8.395c.073.042.33.309.33.707 0 .2-.02 1.205-.119 1.818.15.097.253.117.401.216.074-.71.127-1.74.103-2.156-.029-.474-.283-.792-.518-.928a10.01 10.01 0 0 0-.228-.126c-.403-.218-.82-.443-.82-.828 0-.3.117-.395.24-.494l.014-.011a.718.718 0 0 0 .23-.266c.15-.338.176-1.199 0-1.418-.087-.108-.32-.475-.253-.72a.33.33 0 0 1 .181-.214.907.907 0 0 1 .41-.079c.332 0 .701.102.892.162.68.216 1.502.838 1.738 1.024l.011.008.151.105-.094-.157c-.006-.01-.603-.992-1.67-1.352-.208-.07-.616-.187-1.017-.187-.238 0-.44.042-.601.124a.724.724 0 0 0-.383.46c-.135.495.304 1.046.32 1.063.05.092.072.755-.046 1.02a.41.41 0 0 1-.117.119l-.059.045c-.167.126-.419.316-.419.754 0 .6.608.926 1.097 1.187.08.043.156.084.226.124z"/><g fill="#463014"><path d="M4.067 3.784C3.806 3.567 4 3.366 3.98 3.12c-.011-.131-.022-.255-.065-.323-.24-.38-.808-.495-.814-.497l-.266-.052.176-.206c.023-.027.747-.717 1.867-.356.784.253 1.364 1.11 1.386 1.145l-.393.184c-.005-.007-.463-.812-1.136-1.03a1.72 1.72 0 0 0-1.259.102c.229.09.527.257.706.54.085.134.1.303.113.466.018.216.036.42.195.553l-.423.138z"/><path d="M4.059 3.828l-.017-.013c-.194-.161-.16-.32-.126-.473.015-.07.03-.144.024-.219-.01-.126-.02-.245-.059-.305-.229-.362-.782-.478-.788-.479l-.332-.065.22-.258a1.854 1.854 0 0 1 1.256-.474c.215 0 .435.036.654.107.817.263 1.401 1.152 1.406 1.16l.024.038-.465.219-.018-.03c-.05-.085-.491-.812-1.115-1.013a1.558 1.558 0 0 0-.479-.074c-.299 0-.54.081-.67.136.216.097.477.26.642.52.09.143.105.316.119.484.017.209.034.405.18.526l.055.046-.511.167z"/></g><g fill="#463014"><path d="M5.106 3.371S5 2.91 4.708 2.677c-.413-.329-.916-.154-.921-.152l-.073-.226c.024-.008.6-.19 1.13.183.534.375.598.715.604.753l-.342.136z"/><path d="M5.078 3.425l-.01-.045c-.002-.005-.105-.45-.385-.672a.893.893 0 0 0-.57-.192c-.172 0-.3.041-.313.046l-.038.013-.098-.302.037-.012c.017-.005.17-.053.386-.053.285 0 .555.084.78.242.547.384.614.74.62.78l.005.03-.414.165zm-.966-.988c.235 0 .45.072.62.209.249.197.366.547.401.672l.27-.107c-.025-.096-.132-.38-.581-.696a1.252 1.252 0 0 0-.735-.228c-.15 0-.266.024-.323.039l.049.15c.056-.015.164-.039.3-.039z"/></g><path fill="#463014" d="M6.55 13.253a.5.5 0 0 1-.32-.114c-.063-.055-.277-.251-.371-.492-.036-.09-.028-.163.024-.214.035-.036.108-.079.256-.079H6.938c.113 0 .194.025.24.072.06.062.041.14.024.181-.029.072-.15.307-.353.525a.402.402 0 0 1-.3.12zm.175-6.134l-.475-.027s.121.19.2.436c.089.278-.081.685-.081.685s.634-.637.356-1.094zm-.58 7.249c-1.503-.116-2.031-1.536-2.031-1.832h.392-.196.196c.002.128.401 1.343 1.67 1.44l-.03.392z"/><path fill="#FFF" d="M5.723 11.824a.986.986 0 0 1 .003-.391c-.115-.086-.32-.118-.473-.168-.126-.08-.77.082-1.236-.483-.585-.708-.462-1.13-.462-1.13-.15.167-.295.103-.524.88-.229.777.108 1.319.734 1.863.297.256.715.362 1.075.403-.12-.121.206-.133.432-.218-.018-.182.012-.358.147-.5a.766.766 0 0 1 .296-.178l.017-.04a.347.347 0 0 1-.01-.038z"/><path fill="#C9C9C9" d="M5.268 12.576a1.386 1.386 0 0 1-.032-.117c-.01-.042-.062-.164.002-.025a.512.512 0 0 1-.035-.109c-1.016-.001-1.899-.698-1.728-2.164-.133-.176-.32.356-.32.356s-.507 1.476.805 2.048c.438.19.824.327.915.272.19.039.362-.094.426-.18a.97.97 0 0 1-.033-.081z"/><path fill="#463014" d="M5.705 11.611a.816.816 0 0 1 .086-.363l.014-.024c-.391-.003-.84-.04-1.224-.194-.421-.168-.948-.745-1.038-1.422 0 0-.793.612-.56 1.922.218 1.23 1.248 1.631 2.421 1.699.001-.008-.132-.282-.09-.45-.666.049-1.412-.209-1.771-.8-.33-.543-.237-1.468-.102-1.604.33 1.042 1.518 1.254 2.264 1.236z"/><path fill="#463014" d="M5.828 10.865c-.212.62-.643 1.122-.643 1.122s.593-.027.626-.132c.024-.078.536-1.276.732-2.679-.184.304-.697 1.636-.715 1.69z"/><path fill="#E78724" d="M9.19 9.436s.673 1.029 1.167 1.76c.076.112-.494.12-.494.12l-.673-1.88zm-.32-2.133s.203.506.314.774c.12.292.58.437.58.437s-.238-.25-.238-.884c0-.266-.343-.371-.343-.371l-.313.044z"/><path fill="#E78724" d="M9.075 7.589s.415.494 1.187.217.851-1.266.851-1.543c0-.277-1.464.277-1.662.396-.198.118-.574.593-.376.93zm2.915-5.287s-.713-.139-1.188.237-.613.673-.613.673l.8.635s.387-.18.506-.694c.119-.515.04-.752.495-.851z"/><path fill="#E78724" d="M9.282 6.16c.307-.436.812-.626 1.216-.657.688-.054 1.015.19 1.015.19s-1.127.047-1.452.474c-.605.794-1.487.858-1.628.684.163.008.343-.073.535-.254.12-.114.217-.3.314-.437zm1.903 1.54s1.25-.43 1.013-.866c-.238-.435-.049-.673-.049-.673s.699.522.52 1.076c-.109.34-.292.586-1.3 1.058-.483.898-.1 2.513-.122 2.52-.038.013-.678-.316-.635-1.827.013-.464.05-1.098.573-1.289zM9.546 3.075c.525.267 1.243.638 1.243.638l-.283.141c.027.044.04.07.04.07l-.29.132s-.708.513-1.142.843c.144-.446.57-1.146.57-1.146s.12-.321-.138-.678zm-1.741 10.86c1.61 0 2.157-.82 2.157-.82l-.252.614c-.095.266-1.11 1.091-1.903 1.091"/><path fill="#E78724" d="M9.785 12.564s-.148.906-.742.906c-.504 0-.653-.765-.653-.923l1.395.017zm.988-1.367a6.548 6.548 0 0 1-.297-1.266c-.07-.64-.045-1.576-.045-1.576s.159.613.297.712c.139.1.396.772.396.772s.138 1.002.203 1.339c-.181.036-.334-.071-.554.02zm1.434-3.97s-.336-.119-.435-.851c-.099-.732.119-1.366.119-1.366s-.02 1.01.099 1.207c.118.198.217.258.356.515.138.257-.06.416-.139.495z"/><path fill="#FDC168" d="M11.806 2.977l.26-.545c.768.086-.26.545-.26.545z"/><path fill="#FBA919" d="M9.272 2.86s.317-.053.475-.29c.159-.238.607-.713 1.323-.718a5.95 5.95 0 0 1 1.422.19l-.618.39a6.312 6.312 0 0 0-.368.005c-.775.026-.894.792-.894.792L7.88 2.853"/><path fill="#FFF" d="M9.009 7.093s.37.37.936.25c.568-.118.91-.368.937-.804.027-.435-.118-.607-.118-.607s-.634.198-.937.462c-.304.264-.528.686-.818.7z"/><path fill="#C9C9C9" d="M9.456 6.961s.32.147.678.027c.47-.156.5-.643.5-.643s.288.844-.519 1.006c-.646.13-1.029-.244-1.029-.244l.37-.146z"/><path fill="#463014" d="M11.55 3.783c.262-.217.067-.418.088-.664.01-.131.021-.255.064-.323.24-.38.808-.495.814-.496l.266-.053-.176-.206c-.023-.027-.747-.717-1.867-.356-.784.253-1.364 1.11-1.385 1.145l.392.185c.005-.008.464-.813 1.136-1.03a1.72 1.72 0 0 1 1.259.1c-.228.092-.526.258-.706.541-.085.134-.099.303-.113.466-.018.217-.035.42-.194.553l.422.138zm.806 3.165s-.41-.408-.532-1.202c-.048-.313.037-.93.173-1.168-.025.584.16 1.168.16 1.168s.125 1.084.2 1.202z"/><path fill="#463014" d="M10.512 3.37s.106-.461.398-.694c.413-.328.917-.153.921-.152l.074-.226c-.025-.008-.6-.19-1.131.184-.534.375-.598.715-.604.753l.342.136zm.74 3.286s.193-.248.158-.52c-.017-.134-.086-.272-.21-.32-.23-.092-.331.143-.331.143s.323.071.384.697z"/><path fill="#463014" d="M9.317 7.033a.818.818 0 0 0-.01.02s.538.405 1.09-.005c.296-.22.268-.764.177-.995-.235.054-.435.15-.602.262.211-.188.396-.327.395-.33l.24-.068.466-.16c.006.036.176.833-.315 1.376-.217.24-1.237.78-1.72-.142l.28.042z"/><path fill="#463014" d="M9.368 7.092c-.304.462-1.069.198-1.056-.29 0 0 .512.282.963-.238.264-.303 1.11-1.14 2.256-.862-.792.174-1.84.898-2.163 1.39z"/><path fill="#463014" d="M11.638 8.395c-.073.042-.33.309-.33.707 0 .2.02 1.205.119 1.818-.15.097-.253.117-.401.216-.074-.71-.128-1.74-.103-2.156.029-.474.282-.792.518-.928.073-.042.15-.084.228-.126.403-.218.82-.443.82-.828 0-.3-.117-.395-.241-.494l-.013-.011a.717.717 0 0 1-.23-.266c-.151-.338-.176-1.199 0-1.418.086-.108.32-.475.253-.72a.33.33 0 0 0-.181-.214.906.906 0 0 0-.41-.079c-.332 0-.702.102-.892.162-.68.216-1.502.838-1.738 1.024l-.011.008-.151.105.094-.157c.006-.01.603-.992 1.67-1.352.208-.07.616-.187 1.016-.187.24 0 .441.042.602.124.195.1.328.26.383.46.135.495-.304 1.046-.32 1.063-.05.092-.072.755.046 1.02.016.037.06.073.117.119l.059.045c.166.126.419.316.419.754 0 .6-.608.926-1.097 1.187-.08.043-.157.084-.226.124z"/><path fill="#463014" d="M10.913 3.713c-.097-.164-.344-.48-.914-.758-.636-.31-1.372-.468-2.189-.468H7.81h-.002c-.816 0-1.552.158-2.188.468-.57.277-.818.594-.914.758l-.042.054.488.11.016-.02.008-.018c.007-.033.073-.207.617-.472.582-.284 1.26-.428 2.017-.428.756 0 1.434.144 2.016.428.544.265.61.44.618.472l.008.018.015.02.488-.11-.041-.054z"/><g fill="#463014"><path d="M11.55 3.784c.262-.217.067-.418.088-.664.01-.131.021-.255.065-.323.24-.38.807-.495.813-.497l.267-.052-.177-.206c-.023-.027-.746-.717-1.867-.356-.783.253-1.364 1.11-1.385 1.145l.393.184c.004-.007.463-.812 1.135-1.03a1.72 1.72 0 0 1 1.26.102c-.229.09-.527.257-.707.54-.085.134-.099.303-.113.466-.018.216-.035.42-.194.553l.423.138z"/><path d="M11.047 3.66l.055-.045c.147-.121.163-.317.18-.526.015-.168.03-.341.12-.483.165-.26.426-.424.641-.521a1.75 1.75 0 0 0-.67-.136c-.164 0-.325.025-.479.074-.623.202-1.064.928-1.114 1.014l-.019.03-.464-.22.023-.037c.006-.009.59-.898 1.407-1.161.219-.07.439-.107.653-.107.788 0 1.252.47 1.256.474l.22.258-.332.065c-.005.002-.559.117-.788.479-.038.06-.048.179-.059.305a.74.74 0 0 0 .025.22c.034.152.068.311-.126.472l-.017.014-.512-.168z"/></g><g fill="#463014"><path d="M10.512 3.371s.106-.462.398-.694c.413-.329.916-.154.921-.152l.073-.226c-.024-.008-.6-.19-1.13.183-.534.375-.598.715-.604.753l.342.136z"/><path d="M10.126 3.26l.005-.03c.006-.04.073-.396.62-.78.225-.158.495-.242.78-.242.216 0 .369.048.386.053l.037.012-.098.302-.038-.013a1.055 1.055 0 0 0-.312-.046.892.892 0 0 0-.571.192c-.28.222-.383.667-.384.672l-.01.045-.415-.165zm1.68-.784l.048-.15a1.341 1.341 0 0 0-.323-.039c-.273 0-.52.077-.735.228-.449.315-.556.6-.58.696l.27.107c.034-.125.151-.475.4-.672a.984.984 0 0 1 .62-.209c.135 0 .243.024.3.039z"/></g><path fill="#463014" d="M8.77 13.132a1.98 1.98 0 0 1-.354-.525c-.017-.041-.036-.12.024-.18.046-.048.127-.073.24-.073h.799c.148 0 .221.043.256.079.051.051.06.123.024.214-.094.24-.308.437-.372.492a.5.5 0 0 1-.319.114.402.402 0 0 1-.299-.121zm.184-6.013l.475-.027s-.122.19-.2.436c-.09.278.08.685.08.685s-.633-.637-.355-1.094z"/><path fill="#E78724" d="M7.809 5.612c-.27 0-.62-.008-.883-.197 0 0 .344.604.882.604v-.076l.001.076c.538 0 .883-.604.883-.604-.263.19-.614.197-.883.197z"/><path fill="#463014" d="M8.55 5.609a1.33 1.33 0 0 1-.741.253 1.33 1.33 0 0 1-.74-.253s.392.54.738.545h.004c.346-.004.739-.545.739-.545zm.923 8.759l-.03-.392c1.267-.097 1.666-1.312 1.668-1.44h.393c0 .296-.529 1.716-2.031 1.832z"/><path fill="#FFF" d="M9.895 11.824a.984.984 0 0 0-.003-.391c.115-.086.32-.118.473-.168.126-.08.77.082 1.236-.483.585-.708.462-1.13.462-1.13.15.167.295.103.524.88.229.777-.108 1.319-.735 1.863-.296.256-.714.362-1.075.403.121-.121-.206-.133-.43-.218.017-.182-.013-.358-.148-.5a.765.765 0 0 0-.296-.178l-.017-.04a.347.347 0 0 0 .009-.038z"/><path fill="#C9C9C9" d="M10.35 12.576c.012-.039.022-.077.032-.117.01-.042.062-.164-.002-.025a.512.512 0 0 0 .035-.109c1.015-.001 1.899-.698 1.728-2.164.133-.176.319.356.319.356s.508 1.476-.804 2.048c-.438.19-.824.327-.916.272-.19.039-.361-.094-.425-.18a.914.914 0 0 0 .032-.081z"/><path fill="#463014" d="M9.913 11.611a.815.815 0 0 0-.086-.363l-.014-.024c.39-.003.84-.04 1.224-.194.42-.168.948-.745 1.038-1.422 0 0 .793.612.56 1.922-.219 1.23-1.248 1.631-2.422 1.699 0-.008.132-.282.09-.45.667.049 1.412-.209 1.772-.8.33-.543.237-1.468.102-1.604-.33 1.042-1.519 1.254-2.264 1.236z"/><path fill="#463014" d="M10.387 11.92c-.14-.152-.398-.333-.993-.333H7.811h-.002-1.586c-.594 0-.852.18-.992.333-.205.22-.237.527-.095.91.375 1.022.903 2.06 2.67 2.06v.001h.005c1.767-.002 2.295-1.04 2.671-2.06.141-.384.11-.69-.095-.911zm-.275.84c-.18.512-.66 1.753-2.303 1.755-1.643-.002-2.124-1.243-2.303-1.756-.1-.284-.092-.495.023-.626.078-.09.258-.196.668-.196h.429a2036.311 2036.311 0 0 1 2.366 0h.428c.41 0 .59.107.669.196.114.131.122.342.023.626z"/><path fill="#463014" d="M9.79 10.865a3.87 3.87 0 0 0 .643 1.122s-.594-.027-.626-.132c-.025-.078-.536-1.276-.733-2.679.185.304.698 1.636.716 1.69z"/></g></svg>