<svg xmlns="http://www.w3.org/2000/svg" width="13" height="13" viewBox="0 0 13 13"><rect id="frame" width="13" height="13" fill="none"/><path fill="#AFB1B3" d="M5.613 11.311c-.14.156-.407.145-.592.007-.06-.051-.266-.235-.356-.46-.064-.18.032-.267.27-.272h.764c.244.008.296.1.252.236a1.84 1.84 0 0 1-.338.49zM3.319 4.49a2.608 2.608 0 0 0-.35-.105c1.097-.259 1.907.52 2.16.804.432.485.922.222.922.222.008.28-.268.48-.549.493.03.391-.36.823-.36.823s.144-.38.068-.64a1.934 1.934 0 0 0-.076-.213c-.501.436-1.247.038-1.426-.155-.249-.268-.32-.603-.331-.863-.048.096-.088.23-.105.419 0 0-.166-.231-.136-.485.015-.125.076-.254.183-.3zm4.725 6.83a.465.465 0 0 1-.592-.007 1.845 1.845 0 0 1-.339-.49c-.05-.151.033-.23.254-.235h.764c.327.013.31.169.269.272-.09.225-.296.408-.356.46zm1.703-6.83c.107.046.427.175.442.3.03.254-.396.484-.396.484a1.187 1.187 0 0 0-.104-.419c-.011.26-.083.596-.332.864-.179.193-.925.591-1.425.155a2.046 2.046 0 0 0-.077.214c-.076.26.069.639.069.639s-.39-.432-.36-.823c-.281-.012-.557-.213-.55-.493 0 0 .49.262.923-.222.253-.283 1.063-1.063 2.16-.804-.112.024-.229.06-.35.105zM4.12 11.394c.534 1.938 4 2.283 4.826 0 2.637-.163 2.664-2.444 1.672-3.368-.062.452-.338.857-.639 1.107a14.545 14.545 0 0 1-.096-1.578c-.08-.959 1.511-.779 1.583-1.882-.014-.55-.378-.63-.57-.855-.113-.248-.092-.867-.043-.952.602-.788.355-1.488-.568-1.535-.081-.383-.086-.603.157-.796.237-.19.525-.282.924-.347-1.045-1.194-2.57-.682-3.321.41a4.377 4.377 0 0 0-.249-.068c-.109-.4.233-.973.233-.973S7.677.48 7.154.942C7.086.778 6.944.423 7.11 0c-.766.263-.96.665-1.017 1.03-.197-.138-.175-.584-.186-.698-.196.022-.757.553-.732 1.222a3.76 3.76 0 0 0-.152.043C3.864.053 2.258.357 1.7 1.187c1.143.21 1.219.567 1.081 1.143-.995.056-1.117.811-.568 1.535 0 0 .114.564-.05.962-.035.084-.563.265-.563.845.02 1.086 1.587.858 1.583 1.882 0 .174-.017 1.003-.097 1.578-.3-.25-.576-.654-.639-1.107-1.051.967-.84 3.21 1.673 3.37z"/></svg>