<svg ti:v="1" width="16" height="16" viewBox="0 0 16 16" xmlns="http://www.w3.org/2000/svg" xmlns:ti="urn:schemas-jetbrains-com:tisvg"><rect id="frame" width="16" height="16" fill="none"/><linearGradient id="a" x1=".5" y1="0" x2=".5" y2="1"><stop offset="0" stop-color="#647389"/><stop offset="1" stop-color="#2E425F"/></linearGradient><path fill-rule="evenodd" d="M12 1v1H1V1H0v14h13V1h-1z" fill="url(#a)"/><linearGradient id="b" x1=".5" y1="0" x2=".5" y2="1"><stop offset="0" stop-color="#DDFBFF"/><stop offset="1" stop-color="#CDEAFF"/></linearGradient><path fill-rule="evenodd" d="M11 2v1h-1V2H9v1H8V2H7v1H6V2H5v1H4V2H3v1H2V2H1v12h11V2h-1z" fill="url(#b)"/><linearGradient id="c" x1=".5" y1="0" x2=".5" y2="1"><stop offset="0" stop-color="#F2FDFF"/><stop offset="1" stop-color="#FFF"/></linearGradient><path fill-rule="evenodd" d="M3 12h7V4H3v8z" fill="url(#c)"/><path fill-rule="evenodd" d="M12 2H1V0h11v2z" fill="#6E6E6E"/><linearGradient id="d" x1=".5" y1="0" x2=".5" y2="1"><stop offset="0" stop-color="#FFF"/><stop offset="1"/></linearGradient><path fill-rule="evenodd" d="M10 3h1V1h-1M8 3h1.001V1H8M6 3h1V1H6M4 3h1V1H4M2 3h1V1H2v2z" fill="url(#d)"/><path fill-rule="evenodd" d="M6 7H4v1h2m2-3H4v1h4V5z" fill="#003C78"/><linearGradient id="e" x1=".5" y1="-.156" x2=".5" y2="1.009"><stop offset="0" stop-color="#00991B"/><stop offset="1" stop-color="#005D10"/></linearGradient><path fill-rule="evenodd" d="M4 11.586V16h4.415l5.792-5.793-4.414-4.414L4 11.586z" fill="url(#e)"/><linearGradient id="f" x1=".185" y1=".119" x2=".89" y2=".824"><stop offset="0" stop-color="#874619"/><stop offset="1" stop-color="#460000"/></linearGradient><path fill-rule="evenodd" d="M11.293 4.293l-1.5 1.5 4.414 4.414 1.5-1.5a.999.999 0 0 0 0-1.414l-3-3A.996.996 0 0 0 12 4a.993.993 0 0 0-.707.293z" fill="url(#f)"/><linearGradient id="g" x1=".5" y1="0" x2=".5" y2="1.017"><stop offset="0" stop-color="#FDFFC7"/><stop offset="1" stop-color="#FF9128"/></linearGradient><path fill-rule="evenodd" d="M11 6l3 3 1-1-3-3-1 1z" fill="url(#g)"/><linearGradient id="h" x1=".5" y1=".017" x2=".5" y2="1"><stop offset="0" stop-color="#B3FF00"/><stop offset="1" stop-color="#91CF00"/></linearGradient><path fill-rule="evenodd" d="M6 11l3 3 4-4-3-3m-5 8h3l-3-3v3z" fill="url(#h)"/><path fill-rule="evenodd" d="M10 8l-3 3h1l2-2V8z" fill="#FFF"/></svg>