<svg ti:v="1" width="16" height="16" viewBox="0 0 16 16" xmlns="http://www.w3.org/2000/svg" xmlns:ti="urn:schemas-jetbrains-com:tisvg"><rect id="frame" width="16" height="16" fill="none"/><linearGradient id="a" x1=".5" y1="0" x2=".5" y2="1"><stop offset="0" stop-color="#647389"/><stop offset="1" stop-color="#2E425F"/></linearGradient><path fill-rule="evenodd" d="M12 1v1H1V1H0v14h13V1h-1z" fill="url(#a)"/><linearGradient id="b" x1=".5" y1="0" x2=".5" y2="1"><stop offset="0" stop-color="#DDFBFF"/><stop offset="1" stop-color="#CDEAFF"/></linearGradient><path fill-rule="evenodd" d="M11 2v1h-1V2H9v1H8V2H7v1H6V2H5v1H4V2H3v1H2V2H1v12h11V2h-1z" fill="url(#b)"/><linearGradient id="c" x1=".5" y1="0" x2=".5" y2="1"><stop offset="0" stop-color="#F2FDFF"/><stop offset="1" stop-color="#FFF"/></linearGradient><path fill-rule="evenodd" d="M3 12h7V4.001H3V12z" fill="url(#c)"/><path fill-rule="evenodd" d="M12 2H1V0h11v2z" fill="#6E6E6E"/><linearGradient id="d" x1=".5" y1="0" x2=".5" y2="1"><stop offset="0" stop-color="#FFF"/><stop offset="1"/></linearGradient><path fill-rule="evenodd" d="M10 3h1V1h-1M8 3h1.001V1H8M6 3h1V1H6M4 3h1V1H4M2 3h1V1H2v2z" fill="url(#d)"/><path fill-rule="evenodd" d="M6 7H4v1h2m2-3H4v1h4V5z" fill="#003C78"/><linearGradient id="e" x1=".5" y1="0" x2=".5" y2="1"><stop offset="0" stop-color="#4373C9"/><stop offset="1" stop-color="#003E6C"/></linearGradient><path fill-rule="evenodd" d="M6 11a5 5 0 1 0 10 0 5 5 0 1 0-10 0z" fill="url(#e)"/><linearGradient id="f" x1=".5" y1="0" x2=".5" y2="1"><stop offset="0" stop-color="#F1F4FB"/><stop offset="1" stop-color="#64A4FF"/></linearGradient><path fill-rule="evenodd" d="M7 11a4 4 0 0 0 8 0 4 4 0 0 0-8 0z" fill="url(#f)"/><path fill-rule="evenodd" d="M13 9.2c0-.696-.841-1.2-2-1.2s-2 .504-2 1.2v.8h1V9h2v1l-2 1v1h2v-.533l1-1.067M12 14h-2v-1h2v1z" fill="#003987"/></svg>