<svg ti:v="1" width="16" height="16" viewBox="0 0 16 16" xmlns="http://www.w3.org/2000/svg" xmlns:ti="urn:schemas-jetbrains-com:tisvg"><rect id="frame" width="16" height="16" fill="none"/><g fill-rule="evenodd"><path d="M14 1v1H3V1H2v15h13V1h-1z" fill="#242424"/><path d="M13 2v1h-1V2h-1v1h-1V2H9v1H8V2H7v1H6V2H5v1H4V2H3v13h11V2h-1z" fill="#C4C4C4"/><path d="M12 4H5v9h7V4z" fill="#282828"/><path d="M14 2H3V0h11v2z" fill="#242424"/><path d="M13 1h-1v2h1m-2-2h-1v2h1M9 1H8v2h1M7 1H6v2h1M5 3H4V1h1v2z" fill="#C4C4C4"/><path d="M7.5 11L6 8h1.5L8 9l2-4h1.5l-3 6h-1z" fill="#C4C4C4"/></g></svg>