<svg ti:v="1" width="16" height="16" viewBox="0 0 16 16" xmlns="http://www.w3.org/2000/svg" xmlns:ti="urn:schemas-jetbrains-com:tisvg"><rect id="frame" width="16" height="16" fill="none"/><linearGradient id="a" x1=".5" y1="0" x2=".5" y2="1"><stop offset="0" stop-color="#647389"/><stop offset="1" stop-color="#2E425F"/></linearGradient><path fill-rule="evenodd" d="M12 1v1H1V1H0v14h13V1h-1z" fill="url(#a)"/><linearGradient id="b" x1=".5" y1="0" x2=".5" y2="1"><stop offset="0" stop-color="#DDFBFF"/><stop offset="1" stop-color="#CDEAFF"/></linearGradient><path fill-rule="evenodd" d="M11 2v1h-1V2H9v1H8V2H7v1H6V2H5v1H4V2H3v1H2V2H1v12h11V2h-1z" fill="url(#b)"/><linearGradient id="c" x1=".5" y1="0" x2=".5" y2="1"><stop offset="0" stop-color="#F2FDFF"/><stop offset="1" stop-color="#FFF"/></linearGradient><path fill-rule="evenodd" d="M10 4H3v8h7V4z" fill="url(#c)"/><path fill-rule="evenodd" d="M12 2H1V0h11v2z" fill="#6E6E6E"/><linearGradient id="d" x1=".5" y1="0" x2=".5" y2="1"><stop offset="0" stop-color="#FFF"/><stop offset="1"/></linearGradient><path fill-rule="evenodd" d="M11 1h-1v2h1M9 1H8v2h1M7 1H6v2h1M5 1H4v2h1M3 3H2V1h1v2z" fill="url(#d)"/><path fill-rule="evenodd" d="M6 7H4v1h2m2-3H4v1h4V5z" fill="#003C78"/><linearGradient id="e" x1=".5" y1="0" x2=".5" y2="1"><stop offset="0" stop-color="#966B00"/><stop offset="1" stop-color="#7C4200"/></linearGradient><path fill-rule="evenodd" d="M9.077 5L4 14.167 5.846 16h8.308L16 14.167 10.923 5H9.077z" fill="url(#e)"/><linearGradient id="f" x1=".5" y1="0" x2=".5" y2="1"><stop offset="0" stop-color="#FFE100"/><stop offset="1" stop-color="#FFB11E"/></linearGradient><path fill-rule="evenodd" d="M6.258 15l-1.017-1.01L9.666 6h.668l4.425 7.99L13.742 15H6.258z" fill="url(#f)"/><path fill-rule="evenodd" d="M11 12H9V9h2m0 5H9v-1h2v1z"/></svg>