<svg ti:v="1" width="16" height="16" viewBox="0 0 16 16" xmlns="http://www.w3.org/2000/svg" xmlns:ti="urn:schemas-jetbrains-com:tisvg"><rect id="frame" width="16" height="16" fill="none"/><linearGradient id="a" x1=".5" y1="0" x2=".5" y2="1"><stop offset="0" stop-color="#647389"/><stop offset="1" stop-color="#2E425F"/></linearGradient><path fill-rule="evenodd" d="M14 1v1H3V1H2v15h13V1h-1z" fill="url(#a)"/><linearGradient id="b" x1=".5" y1="0" x2=".5" y2="1"><stop offset="0" stop-color="#DDFBFF"/><stop offset="1" stop-color="#CDEAFF"/></linearGradient><path fill-rule="evenodd" d="M13 2v1h-1V2h-1v1h-1V2H9v1H8V2H7v1H6V2H5v1H4V2H3v13h11V2h-1z" fill="url(#b)"/><linearGradient id="c" x1=".5" y1="0" x2=".5" y2="1"><stop offset="0" stop-color="#F2FDFF"/><stop offset="1" stop-color="#FFF"/></linearGradient><path fill-rule="evenodd" d="M12 4H5v9h7V4z" fill="url(#c)"/><path fill-rule="evenodd" d="M14 2H3V0h11v2z" fill="#6E6E6E"/><linearGradient id="d" x1=".5" y1="0" x2=".5" y2="1"><stop offset="0" stop-color="#FFF"/><stop offset="1"/></linearGradient><path fill-rule="evenodd" d="M13 1h-1v2h1m-2-2h-1v2h1M9 1H8v2h1M7 1H6v2h1M5 3H4V1h1v2z" fill="url(#d)"/><path fill-rule="evenodd" d="M7.5 11L6 8h1.5L8 9l2-4h1.5l-3 6h-1z" fill="#009E0E"/></svg>