<svg ti:v="1" width="16" height="16" viewBox="0 0 16 16" xmlns="http://www.w3.org/2000/svg" xmlns:ti="urn:schemas-jetbrains-com:tisvg"><rect id="frame" width="16" height="16" fill="none"/><g fill-rule="evenodd"><path d="M12 1v1H1V1H0v14h13V1h-1z" fill="#F4F4F4"/><path d="M11 2v1h-1V2H9v1H8V2H7v1H6V2H5v1H4V2H3v1H2V2H1v12h11V2h-1z" fill="#313131"/><path d="M10 4H3v8h7V4z" fill="#EBEBEB"/><path d="M12 2H1V0h11v2z" fill="#F4F4F4"/><path d="M11 1h-1v2h1M9 1H8v2h1M7 1H6v2h1M5 1H4v2h1M3 3H2V1h1v2z" fill="#313131"/><path d="M6 7H4v1h2m2-3H4v1h4V5z" fill="#313131"/><path d="M16 11a5 5 0 1 1-10 0 5 5 0 0 1 10 0z" fill="#F4F4F4"/><path d="M11 7a4 4 0 1 0 0 8 4 4 0 0 0 0-8z" fill="#378A33"/><path d="M12 9h-2V8h2m0 6h-2v-4h2v4z" fill="#EBEBEB"/></g></svg>