<svg ti:v="1" width="16" height="16" viewBox="0 0 16 16" xmlns="http://www.w3.org/2000/svg" xmlns:ti="urn:schemas-jetbrains-com:tisvg"><rect id="frame" width="16" height="16" fill="none"/><g fill-rule="evenodd"><path d="M15 16H1a1 1 0 0 1-1-1V1a1 1 0 0 1 1-1h14a1 1 0 0 1 1 1v14a1 1 0 0 1-1 1z" fill="#F4F4F4"/><path d="M1 1h14v14H1V1z" fill="#EBEBEB"/><path d="M5 15h2v-1H5m9 0h-1v1h1a1 1 0 0 0 1-1v-1h-1m0-2h1V9h-1m0-2h1V5h-1m0-4h-1v1h1v1h1V2a1 1 0 0 0-1-1zM9 15h2v-1H9M7 1H5v1h2M2 14v-1H1v1a1 1 0 0 0 1 1h1v-1m8-13H9v1h2M2 2h1V1H2a1 1 0 0 0-1 1v1h1m0 2H1v2h1m0 4H1V9h1v2z" fill="#F0F"/></g></svg>