<svg xmlns="http://www.w3.org/2000/svg" width="16" height="16" viewBox="0 0 16 16">
  <g fill="none" fill-rule="evenodd">
    <path fill="#9AA7B0" fill-opacity=".8" d="M12,15.0002 L12,4.6972 C12,4.3122 12.312,4.0002 12.698,4.0002 L13,4.0002 L13,1.0002 L8,1.0002 L8,5.0002 L8,6.0002 L7,6.0002 L3,6.0002 L3,15.0002 L12,15.0002 Z"/>
    <polygon fill="#9AA7B0" fill-opacity=".8" points="7 1 3 5 7 5"/>
    <path fill="#40B6E0" fill-opacity=".7" d="M15.498,16.0002 L13.502,16.0002 C13.226,16.0002 13,15.7742 13,15.4982 L13,13.5022 C13,13.2262 13.226,13.0002 13.502,13.0002 L14.967,13.0002 L15.498,13.0002 C15.774,13.0002 16,13.2262 16,13.5022 L16,15.4982 C16,15.7742 15.774,16.0002 15.498,16.0002"/>
    <path fill="#B99BF8" fill-opacity=".7" d="M15.498,12.0002 L13.502,12.0002 C13.226,12.0002 13,11.7742 13,11.4982 L13,9.5022 C13,9.2262 13.226,9.0002 13.502,9.0002 L14.5,9.0002 L15.498,9.0002 C15.774,9.0002 16,9.2262 16,9.5022 L16,11.4982 C16,11.7742 15.774,12.0002 15.498,12.0002"/>
    <path fill="#F4AF3D" fill-opacity=".7" d="M15.498,8.0002 L13.502,8.0002 C13.226,8.0002 13,7.7732 13,7.4982 L13,5.5022 C13,5.2262 13.226,5.0002 13.502,5.0002 L14.5,5.0002 L15.498,5.0002 C15.774,5.0002 16,5.2262 16,5.5022 L16,7.4982 C16,7.7732 15.774,8.0002 15.498,8.0002"/>
  </g>
</svg>
