<svg xmlns="http://www.w3.org/2000/svg" width="16" height="16" viewBox="0 0 16 16">
  <g fill="none" fill-rule="evenodd">
    <path fill="#9AA7B0" fill-opacity=".8" d="M7,15.0002 L7,7 C7,7 9,7 13,7 L13,1.0002 L8,1.0002 L8,5.0002 L8,6.0002 L7,6.0002 L3,6.0002 L3,15.0002 L7,15.0002 Z"/>
    <polygon fill="#9AA7B0" fill-opacity=".8" points="7 1 3 5 7 5"/>
    <path fill="#9AA7B0" fill-opacity=".8" d="M9.67445714,16 C8.75388571,16 8.00017143,15.2462857 8.00017143,14.3251429 L8.00017143,9.67485714 C8.00017143,8.75371429 8.75388571,8 9.67445714,8 L14.3253143,8 C15.2458857,8 16.0001714,8.75371429 16.0001714,9.67485714 L16.0001714,14.3251429 C16.0001714,15.2462857 15.2458857,16 14.3253143,16 L9.67445714,16 Z"/>
    <path fill="#231F20" fill-opacity=".7" d="M12.1801437,12 L12.1801437,12.5086667 L13.2727943,12.5086667 L13.2727943,13.0886667 C13.0104992,13.2653333 12.6443176,13.3813333 12.2412967,13.3813333 C11.367471,13.3813333 10.787622,12.7953333 10.787622,12 L10.787622,11.9886667 C10.787622,11.2486667 11.3858906,10.6246667 12.1735126,10.6246667 C12.7172592,10.6246667 13.0414441,10.7846667 13.3707865,11.0393333 L13.8474857,10.5246667 C13.4076257,10.1873333 12.9493461,10 12.2044575,10 C10.9158224,10 10,10.9166667 10,12 L10,12.0113333 C10,13.138 10.8789832,14 12.2169829,14 C12.97366,14 13.5778228,13.724 14,13.3986667 L14,12 L12.1801437,12 Z"/>
  </g>
</svg>
