<svg xmlns="http://www.w3.org/2000/svg" width="16" height="16" viewBox="0 0 16 16">
  <g fill="none" fill-rule="evenodd">
    <polygon fill="#9AA7B0" fill-opacity=".8" points="7 1 3 5 7 5"/>
    <path fill="#9AA7B0" fill-opacity=".8" d="M7,9.0042 L9.955,9.0042 C9.8,8.7562 9.667,8.4282 9.667,8.0042 C9.667,6.7182 10.714,5.6722 12,5.6722 C12.359,5.6722 12.695,5.7602 13,5.9052 L13,4.0002 L13,1.0002 L8,1.0002 L8,5.0002 L8,6.0002 L7,6.0002 L3,6.0002 L3,15.0002 L7.0047,15.0002 L7,9.0042 Z"/>
    <path fill="#9AA7B0" d="M13.333,10.0031 C12.907,10.0031 12.667,9.8521 12.667,9.3361 C12.667,8.8221 13.334,8.6701 13.334,8.0041 C13.334,7.2681 12.736,6.6721 12,6.6721 C11.264,6.6721 10.667,7.2681 10.667,8.0041 C10.667,8.6701 11.334,8.8221 11.334,9.3361 C11.334,9.8521 11.093,10.0031 10.667,10.0031 L10.667,10.0041 L8,10.0041 L8,12.0021 C8,12.6681 8.286,12.0851 8.286,12.0851 C8.299,12.0731 8.314,12.0651 8.329,12.0531 C8.577,11.7971 8.924,11.6361 9.309,11.6361 C10.063,11.6361 10.676,12.2481 10.676,13.0021 C10.676,13.7561 10.063,14.3671 9.309,14.3671 C8.923,14.3671 8.576,14.2051 8.327,13.9481 C8.313,13.9381 8.299,13.9291 8.286,13.9181 C8.286,13.9181 8,13.3351 8,14.0011 L8,16.0001 L12,16.0001 L16,16.0001 L16,13.8561 C16,13.3351 15.715,13.9181 15.715,13.9181 C15.701,13.9301 15.686,13.9391 15.672,13.9491 C15.424,14.2061 15.076,14.3671 14.691,14.3671 C13.937,14.3671 13.324,13.7561 13.324,13.0021 C13.324,12.2481 13.937,11.6361 14.691,11.6361 C15.076,11.6361 15.423,11.7971 15.671,12.0531 C15.686,12.0651 15.701,12.0731 15.715,12.0851 C15.715,12.0851 16,12.6681 16,12.1481 L16,10.0041 L13.333,10.0041 L13.333,10.0031 Z"/>
  </g>
</svg>
