<svg xmlns="http://www.w3.org/2000/svg" width="16" height="16" viewBox="0 0 16 16">
  <g fill="none" fill-rule="evenodd">
    <path fill="#9AA7B0" fill-opacity=".8" d="M7,15.0002 L7,7 C7,7 9,7 13,7 L13,1.0002 L8,1.0002 L8,5.0002 L8,6.0002 L7,6.0002 L3,6.0002 L3,15.0002 L7,15.0002 Z"/>
    <polygon fill="#9AA7B0" fill-opacity=".8" points="7 1 3 5 7 5"/>
    <path fill="#F4AF3D" fill-opacity=".6" d="M9.67445714,16 C8.75388571,16 8.00017143,15.2462857 8.00017143,14.3251429 L8.00017143,9.67485714 C8.00017143,8.75371429 8.75388571,8 9.67445714,8 L14.3253143,8 C15.2458857,8 16.0001714,8.75371429 16.0001714,9.67485714 L16.0001714,14.3251429 C16.0001714,15.2462857 15.2458857,16 14.3253143,16 L9.67445714,16 Z"/>
    <polygon fill="#231F20" fill-opacity=".7" points="11.981 13.15 11.981 10 11.01 10 11.01 13.984 13.589 13.984 13.589 13.15"/>
  </g>
</svg>
