<svg xmlns="http://www.w3.org/2000/svg" width="16" height="16" viewBox="0 0 16 16"><rect id="frame" width="16" height="16" fill="none"/><g fill="none" fill-rule="evenodd"><path fill="#FEB672" fill-rule="nonzero" d="M8.215 14.988a6.991 6.991 0 1 1 6.504-5.049l-1.494-.083-.556-1.463.089-.066c.112-.088.332-.305.418-.412.166-.205.318-.445.392-.705.091-.321.088-.459.1-.563a.031.031 0 0 0-.03-.034c-.088-.003-.406-.01-1.518-.012a.053.053 0 0 0-.05.034l-.035.089-.085-.224h-.124c.084-.16.154-.326.203-.498.148-.522.143-.745.162-.914a.05.05 0 0 0-.047-.056c-.18-.006-.954-.023-4.164-.02-3.21-.003-3.983.014-4.164.02a.05.05 0 0 0-.048.056c.02.169.014.392.163.914.12.421.367.812.636 1.145.14.174.498.525.68.668.163.128.407.29.595.392.147.081.52.221.638.284.156.083.398.265.534.475.101.156.195.368.225.506.019.088.028.217.026.366 0 .052-.002.106-.005.162l-1.24.072v.805l.81.683c-.035.077-.074.162-.12.268l-.16.376a.093.093 0 0 0 .008.088.826.826 0 0 0 .292.27c.272.146.845.2 1.13.2.072 0 .163-.003.262-.01l.462.388-.489 1.848zm2.264-7.004l-.129.34c-.155.074-.317.14-.486.198-.044.015-.048.076-.004.095.104.046.238.098.29.126l.035.02-.414 1.093-1.075.062a3.48 3.48 0 0 1-.001-.08c-.002-.15.007-.278.026-.366.03-.138.124-.35.224-.506.137-.21.38-.392.535-.475.118-.063.491-.203.638-.284.11-.06.24-.141.361-.223zm-4.339.633c.043-.019.04-.08-.004-.095C5.059 8.15 4.243 7.464 3.93 6.635a.052.052 0 0 0-.05-.034c-1.112.002-1.43.01-1.519.012a.03.03 0 0 0-.029.035c.012.103.009.241.1.563.074.259.226.5.392.705.086.107.306.323.419.41.1.08.25.179.366.243.09.05.32.136.393.174a.983.983 0 0 1 .329.293c.062.096.12.226.138.312.012.054.018.133.017.225-.003.216-.04.504-.114.7-.084.225-.13.3-.228.526l-.099.232a.057.057 0 0 0 .005.054c.026.04.084.114.18.165.168.09.52.123.695.125h.001c.175-.002.528-.034.695-.125a.507.507 0 0 0 .18-.165.056.056 0 0 0 .005-.054 30.993 30.993 0 0 0-.099-.232c-.097-.227-.143-.301-.227-.525a2.28 2.28 0 0 1-.114-.7 1.096 1.096 0 0 1 .016-.226c.019-.085.076-.216.138-.312a.982.982 0 0 1 .33-.293c.052-.027.186-.08.29-.126z"/><path fill="#9AA7B0" d="M11.498 14.163l-2.78 1.793.846-3.198L7 10.668l3.303-.184L11.498 7.4l1.195 3.084 3.303.184-2.564 2.09.846 3.198z"/></g></svg>