<svg xmlns="http://www.w3.org/2000/svg" width="16" height="16" viewBox="0 0 16 16"><rect id="frame" width="16" height="16" fill="none"/><path fill="#FEB672" d="M8 1.009a6.99 6.99 0 1 0 0 13.982A6.99 6.99 0 0 0 8 1.009zM6.14 8.617c-.104.046-.238.099-.29.126a.982.982 0 0 0-.33.293c-.062.096-.12.227-.138.312a1.096 1.096 0 0 0-.016.225c.002.216.04.504.114.7.084.225.13.3.227.526l.1.232a.056.056 0 0 1-.006.054.507.507 0 0 1-.18.165c-.167.09-.52.123-.695.125-.175-.002-.528-.034-.696-.125a.505.505 0 0 1-.18-.165.057.057 0 0 1-.005-.054l.1-.232c.097-.227.143-.301.227-.525.074-.197.111-.485.114-.7a1.08 1.08 0 0 0-.017-.226 1.098 1.098 0 0 0-.138-.312.983.983 0 0 0-.33-.293C3.93 8.705 3.7 8.62 3.61 8.57a3.104 3.104 0 0 1-.366-.242 3.589 3.589 0 0 1-.42-.411 2.055 2.055 0 0 1-.39-.705c-.092-.322-.089-.46-.101-.563a.03.03 0 0 1 .03-.035c.088-.003.406-.01 1.518-.012.022 0 .042.014.05.034.313.829 1.129 1.514 2.206 1.887.044.015.047.076.004.095zm2.74 2.359c.136.363.21.484.369.852l.16.376a.093.093 0 0 1-.007.088.828.828 0 0 1-.293.27c-.272.146-.845.2-1.129.2-.285 0-.858-.054-1.13-.2a.826.826 0 0 1-.292-.27.093.093 0 0 1-.008-.088l.16-.376c.159-.368.233-.489.37-.852.121-.32.182-.787.185-1.138a1.79 1.79 0 0 0-.026-.366 1.785 1.785 0 0 0-.225-.506 1.586 1.586 0 0 0-.534-.475c-.118-.063-.491-.203-.638-.284a5.019 5.019 0 0 1-.595-.392 5.795 5.795 0 0 1-.68-.668c-.269-.333-.517-.724-.636-1.145-.149-.522-.143-.745-.163-.914a.05.05 0 0 1 .048-.056c.18-.006.954-.023 4.164-.02 3.21-.003 3.983.014 4.164.02a.05.05 0 0 1 .047.056c-.02.169-.014.392-.162.914-.12.421-.367.812-.636 1.145-.14.174-.498.525-.68.668a5.04 5.04 0 0 1-.595.392c-.147.081-.52.221-.638.284a1.589 1.589 0 0 0-.535.475c-.1.156-.194.368-.224.506-.02.088-.028.217-.026.366.003.351.064.818.184 1.138zm4.296-3.06a3.569 3.569 0 0 1-.418.41 3.108 3.108 0 0 1-.367.243c-.09.05-.32.136-.393.174a.983.983 0 0 0-.33.293 1.1 1.1 0 0 0-.137.312 1.092 1.092 0 0 0-.017.225c.002.216.04.504.114.7.085.224.13.299.228.526l.099.232a.057.057 0 0 1-.005.053.507.507 0 0 1-.18.166c-.168.09-.52.123-.695.124h-.001c-.175 0-.528-.033-.695-.124a.507.507 0 0 1-.18-.166.057.057 0 0 1-.006-.053l.1-.232c.097-.227.143-.302.227-.525.074-.197.112-.485.114-.7 0-.093-.004-.172-.016-.226a1.104 1.104 0 0 0-.138-.312.983.983 0 0 0-.33-.293c-.052-.028-.186-.08-.29-.126-.044-.019-.04-.08.004-.095 1.078-.373 1.893-1.058 2.206-1.887a.053.053 0 0 1 .05-.034c1.112.002 1.43.01 1.519.012a.031.031 0 0 1 .029.034c-.012.104-.009.242-.1.563-.074.26-.226.5-.392.705z"/></svg>