<svg xmlns="http://www.w3.org/2000/svg" width="13" height="13" viewBox="0 0 13 13"><rect id="frame" width="13" height="13" fill="none"/><path fill="#6E6E6E" fill-rule="evenodd" d="M6.5.51a5.99 5.99 0 1 0 0 11.98A5.99 5.99 0 0 0 6.5.51zM4.907 7.029c-.09.04-.205.084-.25.108a.842.842 0 0 0-.282.25.944.944 0 0 0-.118.268.94.94 0 0 0-.014.193c.002.185.034.431.097.6.073.192.112.256.196.45l.084.199a.048.048 0 0 1-.004.046.434.434 0 0 1-.154.142c-.144.078-.446.105-.596.106-.15 0-.452-.028-.596-.106a.433.433 0 0 1-.154-.142.048.048 0 0 1-.005-.046l.085-.199c.084-.194.123-.258.195-.45.064-.169.096-.415.098-.6a.925.925 0 0 0-.014-.193.941.941 0 0 0-.119-.267.843.843 0 0 0-.282-.251c-.062-.033-.259-.107-.336-.15a2.66 2.66 0 0 1-.314-.207 3.075 3.075 0 0 1-.36-.352 1.76 1.76 0 0 1-.335-.604c-.078-.276-.075-.394-.086-.483a.026.026 0 0 1 .025-.03c.076-.002.349-.008 1.302-.01.019 0 .036.012.042.03.269.71.968 1.297 1.89 1.617.038.012.042.065.005.08zm2.346 2.02c.118.312.182.415.317.731l.138.322a.08.08 0 0 1-.007.076.71.71 0 0 1-.25.23c-.234.126-.724.172-.968.173-.244-.001-.735-.047-.968-.173a.708.708 0 0 1-.25-.23.08.08 0 0 1-.007-.076l.137-.322c.136-.316.2-.419.317-.73.103-.275.155-.674.159-.975a1.534 1.534 0 0 0-.023-.314 1.53 1.53 0 0 0-.193-.433 1.359 1.359 0 0 0-.458-.407c-.1-.054-.42-.174-.546-.243a4.3 4.3 0 0 1-.51-.337 4.965 4.965 0 0 1-.583-.572c-.23-.286-.442-.62-.545-.98-.127-.448-.122-.64-.139-.784a.043.043 0 0 1 .04-.048c.156-.005.819-.02 3.569-.017 2.75-.003 3.413.012 3.568.017.025.001.044.023.04.048-.017.145-.012.336-.139.783-.102.36-.314.695-.544.98-.12.15-.427.451-.583.573-.14.11-.35.248-.51.337-.126.07-.446.189-.547.243a1.361 1.361 0 0 0-.458.407 1.527 1.527 0 0 0-.192.433 1.515 1.515 0 0 0-.023.314c.003.3.055.7.158.975zm3.682-2.621a3.058 3.058 0 0 1-.359.352 2.663 2.663 0 0 1-.314.207c-.077.043-.274.117-.336.15a.842.842 0 0 0-.282.25.942.942 0 0 0-.119.268.935.935 0 0 0-.014.193c.002.185.034.431.098.6.072.192.111.256.195.45l.085.199a.048.048 0 0 1-.005.046.435.435 0 0 1-.154.142c-.144.077-.446.105-.596.106-.15 0-.452-.029-.596-.106a.434.434 0 0 1-.154-.142.048.048 0 0 1-.005-.046l.085-.199c.084-.194.123-.258.195-.45.064-.169.096-.415.098-.6a.965.965 0 0 0-.014-.193.946.946 0 0 0-.118-.267.842.842 0 0 0-.283-.251c-.044-.024-.16-.069-.249-.108-.037-.016-.033-.069.004-.082.923-.32 1.623-.906 1.89-1.617a.045.045 0 0 1 .043-.029c.953.002 1.226.008 1.302.01.015.002.026.015.024.03-.01.089-.007.207-.085.482a1.759 1.759 0 0 1-.336.605z"/></svg>