<svg xmlns="http://www.w3.org/2000/svg" width="16" height="16" viewBox="0 0 16 16"><rect id="frame" width="16" height="16" fill="none"/><g fill="none" fill-rule="evenodd"><path fill="#F26522" fill-opacity=".7" d="M1 16h15V9H1z"/><path fill="#9AA7B0" fill-opacity=".8" d="M7 1L3 5h4z"/><path fill="#9AA7B0" fill-opacity=".8" d="M8 1v5H3v2h10V1z"/><path fill="#231F20" fill-opacity=".7" d="M12.9 12.5c.664 0 1.1-.116 1.1-.75s-.443-.75-1.1-.75H12v1.5h.9zM11 10h1.971c1.171 0 2.029.642 2.029 1.65 0 1.636-1.029 1.85-2.128 1.85H12V15h-1v-5z"/><path fill="#231F20" fill-opacity=".7" d="M7.973 11.502c0-.369.311-.502.872-.502H10v-1H8.86C7.778 10 7 10.46 7 11.45c0 .865.42 1.24 1.471 1.466.77.165 1.025.313 1.025.632 0 .32-.358.452-1.025.452H7.3v1h1.171c2.029 0 2.029-1 2.029-1.452 0-.632-.48-1.127-1.341-1.401-.862-.274-1.186-.277-1.186-.645z"/><path fill="#231F20" fill-opacity=".7" d="M4.52 15.016c-1.513 0-2.507-1.077-2.507-2.486v-.014c0-1.354 1.036-2.5 2.493-2.5.843 0 1.36.235 1.858.656l-.539.642c-.373-.31-.739-.51-1.353-.51-.891 0-1.568.773-1.568 1.698v.014c0 .994.656 1.727 1.644 1.727.455 0 .87-.146 1.167-.367v-.897H4.478v-.746h2.058v2.03a3.082 3.082 0 0 1-2.016.753z"/></g></svg>