<svg xmlns="http://www.w3.org/2000/svg" width="16" height="16" viewBox="0 0 16 16"><rect id="frame" width="16" height="16" fill="none"/><g fill="none" fill-rule="evenodd"><path fill="#9AA7B0" fill-opacity=".8" d="M1 13h2V3H1z"/><path fill="#62B543" d="M4 13h2V3H4z"/><path fill="#40B6E0" d="M10 6.207V3h2v3.022a5.57 5.57 0 0 0-2 .185z"/><path fill="#9AA7B0" fill-opacity=".8" d="M7 8.337V.999h2v5.6a5.525 5.525 0 0 0-2 1.738zm6-2.13V5h2v2.257a5.485 5.485 0 0 0-2-1.05z"/><path fill="#FEB672" fill-rule="nonzero" d="M11.5 7.006a4.494 4.494 0 1 0 0 8.988 4.494 4.494 0 0 0 0-8.988zm-1.195 4.89c-.068.03-.154.064-.187.082a.632.632 0 0 0-.212.188.708.708 0 0 0-.09.2.705.705 0 0 0-.01.145c.002.14.026.324.074.45.054.145.084.192.146.338l.064.15a.036.036 0 0 1-.003.034.326.326 0 0 1-.116.106c-.108.059-.335.08-.447.08-.113 0-.34-.021-.447-.08a.325.325 0 0 1-.116-.106.036.036 0 0 1-.003-.035l.063-.149c.063-.146.092-.193.147-.337.047-.127.071-.312.073-.45 0-.06-.003-.11-.01-.145a.706.706 0 0 0-.09-.2.632.632 0 0 0-.211-.19c-.047-.024-.195-.08-.253-.111a1.995 1.995 0 0 1-.235-.156 2.307 2.307 0 0 1-.27-.264 1.32 1.32 0 0 1-.251-.453c-.06-.207-.057-.296-.065-.362a.02.02 0 0 1 .019-.022c.057-.002.262-.007.977-.008.014 0 .026.008.031.022.202.532.726.973 1.418 1.213.029.01.031.049.004.06zm1.76 1.517c.088.234.136.311.238.548l.103.242a.06.06 0 0 1-.005.056.532.532 0 0 1-.188.173c-.175.095-.543.13-.726.13-.183 0-.551-.035-.726-.13a.531.531 0 0 1-.188-.173.06.06 0 0 1-.005-.056l.103-.242c.102-.237.15-.314.238-.548.077-.206.116-.506.119-.731a1.15 1.15 0 0 0-.017-.236c-.02-.089-.08-.224-.145-.325a1.02 1.02 0 0 0-.343-.305c-.076-.04-.316-.13-.41-.183a3.226 3.226 0 0 1-.383-.252 3.725 3.725 0 0 1-.437-.43 2.147 2.147 0 0 1-.409-.735c-.095-.336-.092-.48-.104-.588a.032.032 0 0 1 .03-.036c.116-.004.614-.015 2.677-.013 2.063-.002 2.56.009 2.677.013.019 0 .033.017.03.036-.012.109-.009.252-.104.588a2.15 2.15 0 0 1-.409.735 3.74 3.74 0 0 1-.437.43 3.24 3.24 0 0 1-.382.252c-.095.052-.335.142-.41.183-.1.053-.257.17-.344.305-.065.1-.125.236-.145.325-.012.057-.017.14-.016.236.002.225.04.525.118.731zm2.763-1.967a2.294 2.294 0 0 1-.27.264c-.065.05-.161.115-.235.156-.058.032-.206.087-.253.112a.632.632 0 0 0-.212.188.707.707 0 0 0-.088.2.702.702 0 0 0-.01.145c0 .14.025.324.072.45.055.145.084.192.147.338l.063.15a.036.036 0 0 1-.003.034.326.326 0 0 1-.116.106c-.108.059-.334.08-.446.08-.113 0-.34-.021-.448-.08a.326.326 0 0 1-.116-.106.036.036 0 0 1-.003-.035l.064-.149c.062-.146.092-.193.146-.337.048-.127.072-.312.073-.45 0-.06-.003-.11-.01-.145a.71.71 0 0 0-.089-.201.632.632 0 0 0-.212-.188c-.033-.018-.12-.052-.187-.081-.027-.012-.025-.052.004-.061.692-.24 1.216-.68 1.418-1.214a.034.034 0 0 1 .031-.021c.715 0 .92.006.977.007.011.001.02.011.019.023-.008.066-.006.155-.065.361a1.32 1.32 0 0 1-.251.454z"/></g></svg>