<svg xmlns="http://www.w3.org/2000/svg" width="16" height="16" viewBox="0 0 16 16"><rect id="frame" width="16" height="16" fill="none"/><g fill="none" fill-rule="evenodd"><path fill="#62B543" fill-opacity=".7" d="M6.038 14.258a22.04 22.04 0 0 0-1.59-.003s-.505.028-1.014.112c0 0 .193-.082.438-.167.874-.302 1.546-.498 2.128-.676 0 .252.014.497.038.734zM7.5 10.01c-.654.107-1.2 1.05-1.41 2.333-1.621.472-3.588.864-3.588.864l-.12-.064C.354 12.157.298 7.77 3.979 6.355c1.614-.62 3.158-.279 4.902-.695 1.86-.442 4.015-1.84 4.89-3.66.748 2.212 1.608 5.373 1.05 8h-3.499c.864-1.087 1.51-2.341 1.732-3.618C12.59 7.736 11.627 8.99 10.463 10H7.5v.01z"/><path fill="#9AA7B0" d="M14.8 15.995V16H8.05v-.005C7.464 15.909 7 14.825 7 13.5c0-1.325.464-2.409 1.05-2.495V11h6.75v.005a.518.518 0 0 1 .075-.005C15.496 11 16 12.12 16 13.5s-.504 2.5-1.125 2.5a.518.518 0 0 1-.075-.005zm-.15-.71c.414 0 .75-.799.75-1.785 0-.986-.336-1.786-.75-1.786s-.75.8-.75 1.786.336 1.786.75 1.786z"/></g></svg>