<svg xmlns="http://www.w3.org/2000/svg" width="16" height="16" viewBox="0 0 16 16">
  <g fill="none" fill-rule="evenodd">
    <path fill="#9AA7B0" fill-opacity=".8" d="M10,10 L7.5,10 L7.5,10.0102011 C7.10694975,10.0746007 6.75298424,10.4401674 6.48773615,11 L2,11 L2,5 L6,5 L6,1 L10,1 L10,10 Z M12,10 L11,10 L11,3 L12,3 L12,10 Z M6.01645634,13 L3,13 L3,12 L6.15637866,12 C6.08781746,12.3108533 6.0399042,12.6469274 6.01645634,13 Z M14,10 L13,10 L13,5 L14,5 L14,10 Z M6.15637866,15 L5,15 L5,14 L6.01645634,14 C6.0399042,14.3530726 6.08781746,14.6891467 6.15637866,15 Z"/>
    <polygon fill="#9AA7B0" fill-opacity=".8" points="5 1 2 4 5 4"/>
    <path fill="#9AA7B0" d="M14.8,15.9945326 L14.8,16 L8.05,16 L8.05,15.9945326 C7.46364761,15.9087682 7,14.8247071 7,13.5 C7,12.1752929 7.46364761,11.0912318 8.05,11.0054674 L8.05,11 L14.8,11 L14.8,11.0054674 C14.8247893,11.0018416 14.8497979,11 14.875,11 C15.4963203,11 16,12.1192881 16,13.5 C16,14.8807119 15.4963203,16 14.875,16 C14.8497979,16 14.8247893,15.9981584 14.8,15.9945326 Z M14.65,15.2857143 C15.0642136,15.2857143 15.4,14.4862228 15.4,13.5 C15.4,12.5137772 15.0642136,11.7142857 14.65,11.7142857 C14.2357864,11.7142857 13.9,12.5137772 13.9,13.5 C13.9,14.4862228 14.2357864,15.2857143 14.65,15.2857143 Z"/>
  </g>
</svg>
