<svg xmlns="http://www.w3.org/2000/svg" width="16" height="16" viewBox="0 0 16 16"><rect id="frame" width="16" height="16" fill="none"/><g fill="#9AA7B0" fill-rule="evenodd"><path fill-opacity=".8" d="M10 10H7.5v.01c-.393.065-.747.43-1.012.99H2V5h4V1h4v9zm2 0h-1V3h1v7zm-5.984 3H3v-1h3.156a6.73 6.73 0 0 0-.14 1zM14 10h-1V5h1v5zm-7.844 5H5v-1h1.016c.024.353.072.69.14 1z"/><path fill-opacity=".8" d="M5 1L2 4h3z"/><path d="M14.8 15.995V16H8.05v-.005C7.464 15.909 7 14.825 7 13.5c0-1.325.464-2.409 1.05-2.495V11h6.75v.005a.518.518 0 0 1 .075-.005C15.496 11 16 12.12 16 13.5s-.504 2.5-1.125 2.5a.518.518 0 0 1-.075-.005zm-.15-.71c.414 0 .75-.799.75-1.785 0-.986-.336-1.786-.75-1.786s-.75.8-.75 1.786.336 1.786.75 1.786z"/></g></svg>