<svg xmlns="http://www.w3.org/2000/svg" width="16" height="16" viewBox="0 0 16 16">
  <g fill="none" fill-rule="evenodd">
    <path fill="#62B543" fill-opacity=".7" d="M6.03819377,14.2578286 C5.47415524,14.2415856 4.93711247,14.2324444 4.44717245,14.2546012 C4.44717245,14.2546012 3.94283089,14.2832335 3.43439732,14.3670851 C3.43439732,14.3670851 3.62672229,14.2852786 3.87224354,14.2004045 C4.74574389,13.898491 5.41824611,13.7019113 6.00003801,13.5241929 C6.00082922,13.7759397 6.01396037,14.0213735 6.03819377,14.2578286 Z M7.5,10.0102011 C6.84561828,10.1174189 6.29957273,11.0594195 6.09090624,12.3428799 C4.46877652,12.8152772 2.50243959,13.2066486 2.50243959,13.2074791 L2.38172498,13.1430565 C0.354128707,12.1572892 0.297863422,7.76939754 3.97863607,6.35516911 C5.59293826,5.73446293 7.13665308,6.07600472 8.88087692,5.65981457 C10.7417233,5.21805992 12.8961723,3.81917019 13.7718647,2 C14.5187351,4.21249046 15.3789675,7.3734023 14.8216638,10 L11.3220921,10 C12.1863132,8.91277125 12.8310753,7.6588125 13.0537151,6.3817562 C12.5912352,7.73598725 11.6266795,8.98955557 10.4627882,10 L7.5,10 L7.5,10.0102011 Z"/>
    <path fill="#9AA7B0" d="M14.8,15.9945326 L14.8,16 L8.05,16 L8.05,15.9945326 C7.46364761,15.9087682 7,14.8247071 7,13.5 C7,12.1752929 7.46364761,11.0912318 8.05,11.0054674 L8.05,11 L14.8,11 L14.8,11.0054674 C14.8247893,11.0018416 14.8497979,11 14.875,11 C15.4963203,11 16,12.1192881 16,13.5 C16,14.8807119 15.4963203,16 14.875,16 C14.8497979,16 14.8247893,15.9981584 14.8,15.9945326 Z M14.65,15.2857143 C15.0642136,15.2857143 15.4,14.4862228 15.4,13.5 C15.4,12.5137772 15.0642136,11.7142857 14.65,11.7142857 C14.2357864,11.7142857 13.9,12.5137772 13.9,13.5 C13.9,14.4862228 14.2357864,15.2857143 14.65,15.2857143 Z"/>
  </g>
</svg>
