<svg ti:v="1" width="16" height="16" viewBox="0 0 16 16" xmlns="http://www.w3.org/2000/svg" xmlns:ti="urn:schemas-jetbrains-com:tisvg"><rect id="frame" width="16" height="16" fill="none"/><linearGradient id="a" x1="0" y1=".5" x2="1" y2=".5"><stop offset="0" stop-color="#FF6D2F"/><stop offset="1" stop-color="#FF9C00"/></linearGradient><path fill-rule="evenodd" d="M1 4v3H0v3h1v3h6V4H1z" fill="url(#a)"/><linearGradient id="b" x1="0" y1=".5" x2="1" y2=".5"><stop offset="0" stop-color="#FFD400"/><stop offset="1" stop-color="#FFF"/></linearGradient><path fill-rule="evenodd" d="M2 6h4V5H2M1 9h4V8H1m1 4h4v-1H2v1z" fill="url(#b)"/><linearGradient id="c" x1=".5" y1="0" x2=".5" y2="1"><stop offset="0" stop-color="#870037"/><stop offset="1" stop-color="#440024"/></linearGradient><path fill-rule="evenodd" d="M7 4h6V1H7v3z" fill="url(#c)"/><linearGradient id="d" x1=".5" y1="0" x2=".5" y2="1"><stop offset="0" stop-color="#007387"/><stop offset="1" stop-color="#000E60"/></linearGradient><path fill-rule="evenodd" d="M4 9a6 6 0 1 0 12 0A6 6 0 1 0 4 9z" fill="url(#d)"/><linearGradient id="e" x1=".5" y1="0" x2=".5" y2="1"><stop offset="0" stop-color="#FFACC9"/><stop offset="1" stop-color="#FF70B6"/></linearGradient><path fill-rule="evenodd" d="M8 2v1h1v1h2V3h1V2H8z" fill="url(#e)"/><linearGradient id="f" x1=".5" y1="0" x2=".5" y2="1"><stop offset="0" stop-color="#90BFFF"/><stop offset="1" stop-color="#C1E6FF"/></linearGradient><path fill-rule="evenodd" d="M5 9a5 5 0 0 0 10 0A5 5 0 0 0 5 9z" fill="url(#f)"/><linearGradient id="g" x1=".5" y1="0" x2=".5" y2="1"><stop offset="0" stop-color="#F2FFFD"/><stop offset="1" stop-color="#BFF2FF"/></linearGradient><path fill-rule="evenodd" d="M6 9c0 2.206 1.794 4 4 4s4-1.794 4-4c0-.624-.156-1.208-.412-1.735l.237-.347a.999.999 0 0 0-.118-1.271l-.353-.354a1 1 0 0 0-1.272-.118l-.348.237A3.947 3.947 0 0 0 10 5C7.794 5 6 6.794 6 9z" fill="url(#g)"/><linearGradient id="h" x1=".5" y1="0" x2=".5" y2="1"><stop offset="0" stop-color="#870037"/><stop offset="1" stop-color="#440024"/></linearGradient><path fill-rule="evenodd" d="M9.293 8.293a1 1 0 1 0 1.414 1.414L13 6.353 12.646 6 9.293 8.293z" fill="url(#h)"/></svg>