<svg ti:v="1" width="16" height="16" viewBox="0 0 16 16" xmlns="http://www.w3.org/2000/svg" xmlns:ti="urn:schemas-jetbrains-com:tisvg"><rect id="frame" width="16" height="16" fill="none"/><g fill-rule="evenodd"><path d="M1 4v3H0v3h1v3h6V4H1z" fill="#242424"/><path d="M6 11H2v1h4m0-7H2v1h4M5 9H1V8h4v1z" fill="#C3C3C3"/><path d="M7 1h6v3H7V1z" fill="#242424"/><path d="M16 9A6 6 0 1 1 4 9a6 6 0 0 1 12 0z" fill="#242424"/><path d="M12 2H8v1h1v1h2V3h1V2z" fill="#C3C3C3"/><path d="M10 4a5 5 0 1 0 .001 10.001A5 5 0 0 0 10 4z" fill="#C3C3C3"/><path d="M13.588 7.265l.237-.347a1 1 0 0 0-.118-1.272l-.353-.353a.999.999 0 0 0-1.272-.118l-.347.237A3.954 3.954 0 0 0 10 5C7.794 5 6 6.794 6 9c0 2.205 1.794 4 4 4s4-1.795 4-4c0-.624-.156-1.208-.412-1.735z" fill="#282828"/><path d="M10.707 9.707a.999.999 0 1 1-1.414-1.414L12.646 6l.354.353-2.293 3.354z" fill="#C3C3C3"/></g></svg>