<svg ti:v="1" width="16" height="16" viewBox="0 0 16 16" xmlns="http://www.w3.org/2000/svg" xmlns:ti="urn:schemas-jetbrains-com:tisvg"><rect id="frame" width="16" height="16" fill="none"/><linearGradient id="a" x1="-.019" y1=".626" x2=".998" y2=".374"><stop offset="0" stop-color="#7866FF"/><stop offset=".124" stop-color="#7866FF"/><stop offset=".538" stop-color="#FD2EB6"/><stop offset=".855" stop-color="#FD0385"/><stop offset="1" stop-color="#FD0385"/></linearGradient><path fill-rule="evenodd" d="M15.36 3.68L9.973 0 0 7.093 2.56 16l11.2-2.24 1.6-10.08z" fill="url(#a)"/><linearGradient id="b" x1=".246" y1=".813" x2=".926" y2=".19"><stop offset="0" stop-color="#FF0080"/><stop offset=".124" stop-color="#FF0080"/><stop offset=".259" stop-color="#FD0285"/><stop offset=".411" stop-color="#F90B91"/><stop offset=".571" stop-color="#F41AA8"/><stop offset=".736" stop-color="#EA2FC7"/><stop offset=".866" stop-color="#E243E6"/><stop offset="1" stop-color="#E243E6"/></linearGradient><path fill-rule="evenodd" d="M15.36 3.68L9.973 0l-1.28 3.573v7.36H16l-.64-7.253z" fill="url(#b)"/><path fill-rule="evenodd" d="M2 2h12v12H2V2z" fill="#2D2D34"/><path fill-rule="evenodd" d="M3 12h5v-1.001H3V12z" fill="#FFF"/><path fill-rule="evenodd" d="M4.95 7.007c.224 0 .428-.036.614-.107a1.33 1.33 0 0 0 .475-.307c.131-.134.233-.291.307-.472a1.59 1.59 0 0 0 .111-.607V5.5c0-.219-.037-.422-.11-.608a1.366 1.366 0 0 0-.782-.789 1.664 1.664 0 0 0-.615-.11H4.1v3.014M3 3h1.95c.39 0 .75.063 1.075.189.326.126.607.301.843.525.235.224.418.487.546.789.13.303.193.63.193.982V5.5c0 .352-.064.681-.193.986a2.326 2.326 0 0 1-.546.792c-.236.224-.517.4-.843.529A2.9 2.9 0 0 1 4.95 8H3m6.004-3.956H7.52V3h4.011v1.044h-1.483V8H9.004V4.044z" fill="#FFF"/></svg>