<svg xmlns="http://www.w3.org/2000/svg" width="16" height="16" viewBox="0 0 16 16"><rect id="frame" width="16" height="16" fill="none"/><g data-name="Layer 2"><g data-name="Layer 1"><path d="M9 12l-5 4v-1.92l2-1.6v-1L4 9.92V8zM0 8v8l5-4z" fill="#5aa86a" fill-rule="evenodd"/><g fill="#6f6f6f"><path d="M7 1h5v1H7z"/><path d="M8.8 6h1.4v3H8.8z"/><path d="M13.72 5l.88-.88-1-1-.91.88a5.49 5.49 0 0 0-8.51 3.13l1.36 1a4 4 0 1 1 5 4.26l-2.17 1.49A5.22 5.22 0 0 0 9.5 14a5.5 5.5 0 0 0 4.22-9z"/></g></g></g></svg>