<svg ti:v="1" width="16" height="16" viewBox="0 0 16 16" xmlns="http://www.w3.org/2000/svg" xmlns:ti="urn:schemas-jetbrains-com:tisvg"><rect id="frame" width="16" height="16" fill="none"/><linearGradient id="a" x1=".5" y1="0" x2=".5" y2="1"><stop offset="0" stop-color="#870037"/><stop offset="1" stop-color="#440024"/></linearGradient><path fill-rule="evenodd" d="M5 4h6V1H5v3z" fill="url(#a)"/><linearGradient id="b" x1=".5" y1="0" x2=".5" y2="1"><stop offset="0" stop-color="#007387"/><stop offset="1" stop-color="#000E60"/></linearGradient><path fill-rule="evenodd" d="M2 9a6.001 6.001 0 0 0 12 0A6 6 0 0 0 2 9z" fill="url(#b)"/><linearGradient id="c" x1=".5" y1="0" x2=".5" y2="1"><stop offset="0" stop-color="#FFACC9"/><stop offset="1" stop-color="#FF70B6"/></linearGradient><path fill-rule="evenodd" d="M6 2v1h1v1h2V3h1V2H6z" fill="url(#c)"/><linearGradient id="d" x1=".5" y1="0" x2=".5" y2="1"><stop offset="0" stop-color="#90BFFF"/><stop offset="1" stop-color="#C1E6FF"/></linearGradient><path fill-rule="evenodd" d="M3 9a5 5 0 1 0 10 0A5 5 0 1 0 3 9z" fill="url(#d)"/><linearGradient id="e" x1=".5" y1="0" x2=".5" y2="1"><stop offset="0" stop-color="#F2FFFD"/><stop offset="1" stop-color="#BFF2FF"/></linearGradient><path fill-rule="evenodd" d="M4 9c0 2.206 1.794 4 4 4 2.205 0 4-1.794 4-4 0-.624-.157-1.208-.412-1.735l.237-.347a1.001 1.001 0 0 0-.118-1.272l-.353-.353a1 1 0 0 0-1.272-.118l-.347.237A3.968 3.968 0 0 0 8 5C5.794 5 4 6.795 4 9z" fill="url(#e)"/><linearGradient id="f" x1=".5" y1="0" x2=".5" y2="1"><stop offset="0" stop-color="#870037"/><stop offset="1" stop-color="#440024"/></linearGradient><path fill-rule="evenodd" d="M7.293 8.293a.999.999 0 1 0 1.414 1.414L11 6.354 10.646 6 7.293 8.293z" fill="url(#f)"/></svg>