<svg ti:v="1" width="16" height="16" viewBox="0 0 16 16" xmlns="http://www.w3.org/2000/svg" xmlns:ti="urn:schemas-jetbrains-com:tisvg"><rect id="frame" width="16" height="16" fill="none"/><g fill-rule="evenodd"><path d="M7 0h6v3H7V0z" fill="#242424"/><path d="M16 8A6 6 0 1 1 4 8a6 6 0 0 1 12 0z" fill="#242424"/><path d="M12 1H8v1h1v1h2V2h1V1z" fill="#C3C3C3"/><path d="M10 3a5 5 0 1 0 .001 10.001A5 5 0 0 0 10 3z" fill="#C3C3C3"/><path d="M13.588 6.265l.237-.347a1 1 0 0 0-.118-1.272l-.353-.353a.999.999 0 0 0-1.272-.118l-.347.237A3.954 3.954 0 0 0 10 4C7.794 4 6 5.794 6 8c0 2.205 1.794 4 4 4s4-1.795 4-4c0-.624-.156-1.208-.412-1.735z" fill="#282828"/><path d="M10.707 8.707a.999.999 0 1 1-1.414-1.414L12.646 5l.354.353-2.293 3.354z" fill="#C3C3C3"/><path d="M4 6v10h1.352L11 11.48v-.96L5.352 6H4z" fill="#242424"/><path d="M5 7v8l5-4-5-4z" fill="#8CCF8C"/><path d="M0 6v10h1.352L7 11.48v-.96L1.352 6H0z" fill="#242424"/><path d="M1 7v8l5-4-5-4z" fill="#8CCF8C"/></g></svg>