<svg ti:v="1" width="16" height="16" viewBox="0 0 16 16" xmlns="http://www.w3.org/2000/svg" xmlns:ti="urn:schemas-jetbrains-com:tisvg"><rect id="frame" width="16" height="16" fill="none"/><g fill-rule="evenodd"><path d="M5 1h6v3H5V1z" fill="#F4F4F4"/><path d="M14 9A6 6 0 1 1 2 9a6 6 0 1 1 12 0z" fill="#F4F4F4"/><path d="M10 2H6v1h1v1h2V3h1V2z" fill="#313131"/><path d="M8 4a5 5 0 1 0 .001 10.001A5 5 0 0 0 8 4z" fill="#313131"/><path d="M11.588 7.265l.237-.347a1 1 0 0 0-.118-1.272l-.353-.353a1 1 0 0 0-1.272-.118l-.347.237A3.956 3.956 0 0 0 8 5C5.794 5 4 6.794 4 9c0 2.205 1.794 4 4 4s4-1.795 4-4c0-.624-.156-1.208-.412-1.735z" fill="#EBEBEB"/><path d="M8.707 9.707a1 1 0 1 1-1.414-1.414L10.646 6l.354.353-2.293 3.354z" fill="#313131"/></g></svg>