<svg ti:v="1" width="16" height="16" viewBox="0 0 16 16" xmlns="http://www.w3.org/2000/svg" xmlns:ti="urn:schemas-jetbrains-com:tisvg"><rect id="frame" width="16" height="16" fill="none"/><linearGradient id="a" x1=".5" y1="0" x2=".5" y2="1"><stop offset="0" stop-color="#870037"/><stop offset="1" stop-color="#440024"/></linearGradient><path fill-rule="evenodd" d="M7 3h6V-.001H7V3z" fill="url(#a)"/><linearGradient id="b" x1=".5" y1="0" x2=".5" y2="1"><stop offset="0" stop-color="#007387"/><stop offset="1" stop-color="#000E60"/></linearGradient><path fill-rule="evenodd" d="M4 8a6 6 0 1 0 12 0A6 6 0 1 0 4 8z" fill="url(#b)"/><linearGradient id="c" x1=".5" y1="0" x2=".5" y2="1"><stop offset="0" stop-color="#FFACC9"/><stop offset="1" stop-color="#FF70B6"/></linearGradient><path fill-rule="evenodd" d="M8 1v1h1v1h2V2h1V1H8z" fill="url(#c)"/><linearGradient id="d" x1=".5" y1="0" x2=".5" y2="1"><stop offset="0" stop-color="#90BFFF"/><stop offset="1" stop-color="#C1E6FF"/></linearGradient><path fill-rule="evenodd" d="M5 8a5 5 0 0 0 10 0A5 5 0 0 0 5 8z" fill="url(#d)"/><linearGradient id="e" x1=".5" y1="0" x2=".5" y2="1"><stop offset="0" stop-color="#F2FFFD"/><stop offset="1" stop-color="#BFF2FF"/></linearGradient><path fill-rule="evenodd" d="M12.082 4.175l-.348.238A3.934 3.934 0 0 0 10 4C7.794 4 6 5.794 6 8s1.794 4 4 4 4-1.794 4-4c0-.624-.156-1.208-.412-1.734l.237-.348a.999.999 0 0 0-.118-1.271l-.353-.354a1.002 1.002 0 0 0-1.272-.118z" fill="url(#e)"/><linearGradient id="f" x1=".5" y1="0" x2=".5" y2="1"><stop offset="0" stop-color="#870037"/><stop offset="1" stop-color="#440024"/></linearGradient><path fill-rule="evenodd" d="M9.293 7.293a.999.999 0 1 0 1.414 1.414L13 5.354 12.646 5 9.293 7.293z" fill="url(#f)"/><linearGradient id="g" x1=".5" y1=".012" x2=".5" y2="1.006"><stop offset="0" stop-color="#37AC0D"/><stop offset="1" stop-color="#007033"/></linearGradient><path fill-rule="evenodd" d="M4 6v10h1.352L11 11.48v-.96L5.352 6H4z" fill="url(#g)"/><linearGradient id="h" x1=".5" y1="0" x2=".5" y2="1.008"><stop offset="0" stop-color="#8CFF62"/><stop offset="1" stop-color="#29C672"/></linearGradient><path fill-rule="evenodd" d="M5 15l5-4-5-4v8z" fill="url(#h)"/><linearGradient id="i" x1=".5" y1=".012" x2=".5" y2="1.006"><stop offset="0" stop-color="#37AC0D"/><stop offset="1" stop-color="#007033"/></linearGradient><path fill-rule="evenodd" d="M0 6v10h1.351L7 11.48v-.96L1.351 6H0z" fill="url(#i)"/><linearGradient id="j" x1=".5" y1="0" x2=".5" y2="1.008"><stop offset="0" stop-color="#8CFF62"/><stop offset="1" stop-color="#29C672"/></linearGradient><path fill-rule="evenodd" d="M1 15l5-4-5-4v8z" fill="url(#j)"/></svg>