<svg xmlns="http://www.w3.org/2000/svg" width="16" height="16" viewBox="0 0 16 16">
  <g fill="none" fill-opacity=".8" fill-rule="evenodd">
    <path fill="#9AA7B0" d="M6,15.0002 C3.6,15.0002 1,12.7332 1,10.0002 L1,8.0002 C1,6.0792 1.9,4.0002 3,4.0002 L3,6.0002 C2.566,6.0002 2,6.5792 2,8.0002 L2,10.0002 C1.978,11.8222 4.111,14.0002 6,14.0002 L6,15.0002 Z M11,6 L6,6 L6,8.63206559 C5.39926595,8.20661358 5,7.45397472 5,6.5962 L5,3.4032 C5,2.0762 5.957,1.0002 7.137,1.0002 L11,1.0002 L11,6 Z M3,5.9902 L3,5.5062 L3,4.4942 L3,4.0102 C3,3.6872 3.181,3.3912 3.467,3.2462 L3.779,3.0892 C4.022,2.9662 4.281,2.9782 4.5,3.0792 L4.5,4.4942 L4.5,5.5062 L4.5,6.9212 C4.281,7.0212 4.022,7.0342 3.779,6.9112 L3.467,6.7542 C3.181,6.6082 3,6.3122 3,5.9902 Z M11.5,3.0002 L11.5,2.0002 L15,2.0002 L15,3.0002 L11.5,3.0002 Z"/>
    <path fill="#9AA7B0" d="M14,9 L13,9 L13,8 L8,8 L8,13 L9,13 L9,14 L7,14 L7,7 L14,7 L14,9 Z"/>
    <path fill="#9AA7B0" d="M9,9 L16,9 L16,16 L9,16 L9,9 Z M10,10 L10,15 L15,15 L15,10 L10,10 Z"/>
    <rect width="3" height="1" x="11" y="11" fill="#9AA7B0"/>
    <rect width="3" height="1" x="11" y="13" fill="#9AA7B0"/>
  </g>
</svg>
