<svg xmlns="http://www.w3.org/2000/svg" width="16" height="16" viewBox="0 0 16 16"><rect id="frame" width="16" height="16" fill="none"/><g fill="none" fill-rule="evenodd"><path fill="#9AA7B0" fill-opacity=".8" d="M9 4v10H7V4H2V2h12v2H9z"/><path fill="#F26522" d="M1 12V6.12h1.193l2.755 3.62V6.12h1.277V12H5.124L2.277 8.262V12z"/><path fill="#D9A343" d="M12.491 12.1C10.66 12.1 9.4 10.817 9.4 9.078V9.06c0-1.672 1.302-3.04 3.083-3.04 1.058 0 1.697.285 2.31.806l-.815.982c-.454-.378-.857-.596-1.537-.596-.941 0-1.689.832-1.689 1.831v.017c0 1.075.74 1.865 1.781 1.865.47 0 .89-.118 1.218-.353v-.84H12.45V8.615h2.554v2.553a3.817 3.817 0 0 1-2.512.933z"/></g></svg>