<svg xmlns="http://www.w3.org/2000/svg" width="16" height="16" viewBox="0 0 16 16"><rect id="frame" width="16" height="16" fill="none"/><g fill="none" fill-rule="evenodd"><path fill="#9AA7B0" fill-opacity=".8" d="M7 1L3 5h4z"/><path fill="#9AA7B0" fill-opacity=".8" d="M8 1v5H3v2h10V1z"/><path fill="#40B6E0" fill-opacity=".7" d="M1 16h15V9H1z"/><path fill="#231F20" fill-opacity=".7" d="M5.1 10l-1.1.443.157.782L5 11v4h1v-5z"/><g fill="#231F20" fill-opacity=".7"><path d="M2 10h1v1H2z"/><path d="M2 12h1v3H2z"/></g><path fill="#231F20" fill-opacity=".7" d="M8.517 15.062c-1.1 0-1.917-.568-1.917-1.434v-.014c0-.604.277-.959.802-1.2-.383-.235-.632-.554-.632-1.087v-.014c0-.76.696-1.363 1.747-1.363 1.05 0 1.747.596 1.747 1.363v.014c0 .533-.249.852-.632 1.087.504.262.802.582.802 1.171v.014c0 .923-.816 1.463-1.917 1.463zm0-3.01c.433 0 .71-.256.71-.604v-.014c0-.305-.263-.582-.71-.582-.447 0-.71.27-.71.575v.014c0 .348.277.61.71.61zm0 2.108c.54 0 .86-.27.86-.617v-.015c0-.383-.363-.61-.86-.61s-.86.227-.86.61v.015c0 .34.32.617.86.617z"/><path fill="#231F20" fill-opacity=".7" d="M11 15v-4h.89v.737c.249-.358.607-.737 1.205-.737.869 0 1.405.65 1.405 1.54V15h-1v-2.19c0-.599-.33-.81-.74-.81-.412 0-.86.226-.86.825V15H11z"/></g></svg>