<svg width="80" height="80" viewBox="0 0 80 80" fill="none" xmlns="http://www.w3.org/2000/svg">
<path d="M75 5H5V75H75V5Z" fill="url(#paint0_linear)"/>
<path d="M65 15H15V65H65V15Z" fill="url(#paint1_linear)"/>
<path d="M30.3826 24.9913V21.6174H21.2V24.9913H23.7739V36.6261H21.2V39.9826H30.3826V36.6261H27.8086V24.9913H30.3826Z" fill="white"/>
<path d="M39.1999 40.2435C37.7739 40.2435 36.5565 39.9653 35.5999 39.4261C34.626 38.887 33.826 38.2435 33.2 37.4783L35.7391 34.6435C36.2608 35.2174 36.7999 35.6696 37.3217 36C37.8608 36.3305 38.4521 36.487 39.0956 36.487C39.8608 36.487 40.4695 36.2435 40.9043 35.7566C41.3391 35.2696 41.5652 34.5044 41.5652 33.4261V21.5826H45.7043V33.6C45.7043 34.6957 45.5478 35.6522 45.2521 36.4696C44.9565 37.2696 44.5217 37.9653 43.9652 38.5218C43.4086 39.0783 42.713 39.5131 41.913 39.7914C41.113 40.1044 40.2086 40.2435 39.1999 40.2435Z" fill="white"/>
<path d="M39.9 55.5H21.2V58.6H39.9V55.5Z" fill="white"/>
<defs>
<linearGradient id="paint0_linear" x1="82.8518" y1="82.7991" x2="-16.0279" y2="-16.0799" gradientUnits="userSpaceOnUse">
<stop offset="0.3475" stop-color="#087CFA"/>
<stop offset="0.8562" stop-color="#FE2857"/>
<stop offset="1" stop-color="#FE2857"/>
</linearGradient>
<linearGradient id="paint1_linear" x1="39.9989" y1="2.84554" x2="39.9989" y2="47.6855" gradientUnits="userSpaceOnUse">
<stop offset="0.0842986" stop-color="#878585"/>
<stop offset="0.5377"/>
</linearGradient>
</defs>
</svg>
