<svg width="48" height="48" viewBox="0 0 48 48" fill="none" xmlns="http://www.w3.org/2000/svg">
<path d="M44 4H4V44H44V4Z" fill="url(#paint0_linear)"/>
<path d="M39 9H9V39H39V9Z" fill="url(#paint1_linear)"/>
<path d="M23.25 34H12V35.9286H23.25V34Z" fill="white"/>
<path d="M17.9049 14.191V12.0214H12V14.191H13.6552V21.6728H12V23.8312H17.9049V21.6728H16.2498V14.191H17.9049Z" fill="white"/>
<path d="M23.575 24C22.6579 24 21.8751 23.8211 21.26 23.4744C20.6337 23.1277 20.1193 22.7139 19.7166 22.2218L21.3494 20.3989C21.685 20.7679 22.0316 21.0587 22.3672 21.2712C22.7138 21.4837 23.0941 21.5843 23.5079 21.5843C24 21.5843 24.3914 21.4278 24.671 21.1146C24.9506 20.8015 25.0959 20.3094 25.0959 19.616V12H27.7576V19.7279C27.7576 20.4324 27.657 21.0475 27.4669 21.5732C27.2767 22.0876 26.9972 22.5349 26.6393 22.8928C26.2814 23.2507 25.8341 23.5303 25.3196 23.7092C24.8052 23.9105 24.2236 24 23.575 24Z" fill="white"/>
<defs>
<linearGradient id="paint0_linear" x1="48.4867" y1="48.4566" x2="-8.01592" y2="-8.04567" gradientUnits="userSpaceOnUse">
<stop offset="0.3475" stop-color="#087CFA"/>
<stop offset="0.8562" stop-color="#FE2857"/>
<stop offset="1" stop-color="#FE2857"/>
</linearGradient>
<linearGradient id="paint1_linear" x1="23.9994" y1="1.70732" x2="23.9994" y2="28.6113" gradientUnits="userSpaceOnUse">
<stop offset="0.0842986" stop-color="#878585"/>
<stop offset="0.5377"/>
</linearGradient>
</defs>
</svg>
