<svg xmlns="http://www.w3.org/2000/svg" width="16" height="16" viewBox="0 0 16 16">
  <g fill="none" fill-rule="evenodd">
    <rect width="14" height="14" x="1" y="1" fill="#005F10" fill-rule="nonzero" rx="1"/>
    <path fill="#F7F7F7" fill-rule="nonzero" d="M6,11.8 C7.70456933,11.8 9.72693933,8.86666667 12.06711,3 C10.262908,5.10765593 8.799909,6.5743226 7.678113,7.4 C6.03405526,8.61007859 4.34505514,9.89607639 4.32659,10.4 C4.30520241,10.983679 4.543146,11.8 6,11.8 Z"/>
    <path fill="#A9A49A" fill-rule="nonzero" d="M5.1576545,10.7247645 C6.21734708,10.7247645 6.9224845,10.3926445 7.6247645,8.5247645 C8.09295117,7.27951116 9.15961783,5.59633482 10.8247645,3.4752355 C9.29143117,4.70825483 7.85809783,6.26530217 6.5247645,8.1463775 C5.41335783,9.7986355 4.5800245,10.5580978 4.0247645,10.4247645 C4.34212183,10.6247645 4.71975183,10.7247645 5.1576545,10.7247645 Z" transform="scale(1 -1) rotate(90 14.525 0)"/>
  </g>
</svg>
