<svg xmlns="http://www.w3.org/2000/svg" width="16" height="16" viewBox="0 0 16 16"><rect id="frame" width="16" height="16" fill="none"/><g fill="none" fill-rule="nonzero"><rect width="14" height="14" x="1" y="1" fill="#005F10" rx="1"/><path fill="#F7F7F7" d="M6 11.8c1.705 0 3.727-2.933 6.067-8.8C10.263 5.108 8.8 6.574 7.678 7.4c-1.644 1.21-3.333 2.496-3.351 3-.022.584.216 1.4 1.673 1.4z"/><path fill="#A9A49A" d="M3.8 9.367c0-1.06.332-1.764 2.2-2.467 1.245-.468 2.929-1.535 5.05-3.2C9.817 5.234 8.26 6.667 6.379 8 4.726 9.112 3.967 9.945 4.1 10.5c-.2-.317-.3-.695-.3-1.133z"/></g></svg>