<svg width="16" height="16" viewBox="0 0 16 16" fill="none" xmlns="http://www.w3.org/2000/svg">
<path d="M7.84098 11.0959L7.87308 11.0591L7.83716 11.0261L7.14383 10.3891L7.10725 10.3555L7.0734 10.3919C6.4738 11.0361 5.76407 11.4574 4.75556 11.4574C3.46832 11.4574 2.35817 10.5653 2.18207 8.96482H8.04889H8.09377L8.0986 8.9202C8.11333 8.78418 8.11333 8.69296 8.11333 8.54537V8.54444C8.11333 7.41693 7.79303 6.39396 7.19034 5.65181C6.58679 4.90861 5.70224 4.45 4.58222 4.45C2.48347 4.45 0.95 6.25609 0.95 8.48519V8.51481C0.95 10.9111 2.64626 12.55 4.72667 12.55C6.15956 12.55 7.08247 11.9636 7.84098 11.0959ZM6.882 8.02037H2.18212C2.34326 6.56923 3.3026 5.51296 4.55333 5.51296C5.28191 5.51296 5.83488 5.8097 6.22106 6.27632C6.5982 6.73201 6.81794 7.35203 6.882 8.02037Z" fill="#9AA7B0" stroke="#9AA7B0" stroke-width="0.1"/>
<path d="M8.11556 4.61003H8.01598L8.07545 4.6899L10.8554 8.42291L7.95998 12.2893L7.90009 12.3693H8H9.24222H9.26749L9.28247 12.349L11.5677 9.24819L13.8386 12.3488L13.8535 12.3693H13.8789H15.1644H15.2647L15.2044 12.2892L12.2804 8.40822L15.0888 4.69017L15.1493 4.61003H15.0489H13.8067H13.7815L13.7665 4.63021L11.5825 7.56846L9.42698 4.63046L9.412 4.61003H9.38667H8.11556Z" fill="#9AA7B0" stroke="#9AA7B0" stroke-width="0.1"/>
</svg>
