<svg xmlns="http://www.w3.org/2000/svg" width="12" height="12" viewBox="0 0 12 12"><rect id="frame" width="12" height="12" fill="none"/><g fill="#C75450" fill-rule="evenodd"><path d="M5.084 12c-2.415-.449-3.088-1.346-3.088-2.776 0-.21.04-.729.04-.967 0-1.093-.423-1.444-1.453-1.444H0V5.187h.583c1.03 0 1.452-.35 1.452-1.444 0-.238-.04-.757-.04-.967 0-1.43.674-2.327 3.09-2.776l.356 1.416c-1.4.42-1.61.813-1.61 1.668 0 .28.039.743.039 1.037 0 1.024-.488 1.57-1.373 1.879.885.308 1.373.855 1.373 1.879 0 .294-.04.757-.04 1.037 0 .855.212 1.248 1.61 1.668L5.085 12z"/><path d="M6.916 12c2.415-.449 3.088-1.346 3.088-2.776 0-.21-.04-.729-.04-.967 0-1.093.423-1.444 1.453-1.444H12V5.187h-.583c-1.03 0-1.452-.35-1.452-1.444 0-.238.04-.757.04-.967 0-1.43-.674-2.327-3.09-2.776L6.56 1.416c1.4.42 1.61.813 1.61 1.668 0 .28-.039.743-.039 1.037 0 1.024.488 1.57 1.373 1.879-.885.308-1.373.855-1.373 1.879 0 .294.04.757.04 1.037 0 .855-.212 1.248-1.61 1.668L6.915 12z"/></g></svg>