<svg xmlns="http://www.w3.org/2000/svg" width="16" height="16" viewBox="0 0 16 16"><rect id="frame" width="16" height="16" fill="none"/><g fill="none" fill-rule="evenodd"><path fill="#F98B9E" fill-opacity=".6" d="M15 8A7 7 0 1 1 1 8a7 7 0 0 1 14 0"/><path fill="#231F20" fill-opacity=".7" d="M6.902 12c-1.701-.308-2.122-.907-2.122-1.86 0-.14.02-.514.02-.673 0-.729-.281-1.037-1.057-1.037H3.5v-.86h.243c.776 0 1.056-.308 1.056-1.037 0-.16-.019-.533-.019-.673 0-.953.42-1.552 2.122-1.86l.196.748c-1.121.308-1.27.598-1.27 1.28 0 .187.018.495.018.692 0 .729-.355 1.084-.972 1.28.626.206.972.551.972 1.28 0 .197-.019.505-.019.692 0 .682.15.972 1.271 1.28L6.902 12zm2.194 0l-.196-.748c1.121-.308 1.271-.598 1.271-1.28 0-.187-.019-.495-.019-.692 0-.729.355-1.084.972-1.28-.626-.206-.972-.551-.972-1.28 0-.197.019-.505.019-.692 0-.682-.15-.972-1.271-1.28L9.096 4c1.701.308 2.122.907 2.122 1.86 0 .14-.019.514-.019.673 0 .729.28 1.037 1.056 1.037h.243v.86h-.243c-.776 0-1.056.308-1.056 1.037 0 .16.019.533.019.673 0 .953-.42 1.552-2.122 1.86z"/></g></svg>