<svg xmlns="http://www.w3.org/2000/svg" width="16" height="16" viewBox="0 0 16 16">
  <g fill="none" fill-rule="evenodd">
    <polygon fill="#9AA7B0" fill-opacity=".8" points="14 8 15 8 15 1 5 1 5 5 6 5 6 3 14 3"/>
    <polygon fill="#9AA7B0" points="12 6.504 9 4 9 6 3 6 3 9 4 9 4 7 9 6.997 9 9"/>
    <polygon fill="#F26522" fill-opacity=".7" points="15.1 9 7.901 9 7 10.556 11.5 16 16 10.556"/>
    <polygon fill="#9AA7B0" fill-opacity=".8" points="7 13 2 13 2 5 4 5 4 3 1 3 1 14 8 14"/>
  </g>
</svg>
