<svg xmlns="http://www.w3.org/2000/svg" width="14" height="14" viewBox="0 0 14 14"><rect id="frame" width="14" height="14" fill="none"/><defs><linearGradient id="a" x1="50%" x2="50%" y1="0%" y2="100%"><stop offset="0%" stop-color="#3D3D3D"/><stop offset="100%" stop-color="#010101"/></linearGradient></defs><g fill="none" fill-rule="evenodd"><path fill="#FFF" d="M0 0h14v14H0z"/><path fill="url(#a)" d="M1 1h13v13H1z"/><path fill="#FFF" d="M4.282 8.08c-.872 0-1.448-.384-1.832-.84l.776-.864c.32.352.632.56 1.024.56.464 0 .752-.28.752-.928V2.5h1.264v3.564c0 .664-.192 1.16-.528 1.496-.344.344-.848.52-1.456.52zM7.5 8V2.4h2.6c.64 0 1.144.176 1.464.496.256.256.432.595.432.979 0 .648-.384.973-.784 1.197.648.248 1.048.624 1.048 1.376 0 1.04-.832 1.552-2.096 1.552H7.5zm3.204-3.928v-.016c0-.368-.288-.576-.808-.576H8.68v1.184h1.136c.544 0 .888-.176.888-.592zm.312 2.224c0-.376-.28-.608-.912-.608H8.68V6.92h1.464c.544 0 .872-.192.872-.608v-.016z"/><path fill="#FFF" d="M2 11h6v1H2z"/></g></svg>