<svg xmlns="http://www.w3.org/2000/svg" width="16" height="16" viewBox="0 0 16 16"><rect id="frame" width="16" height="16" fill="none"/><g fill="#9AA7B0" fill-rule="evenodd"><path fill-opacity=".8" d="M7 1L3 5h4z"/><path fill-opacity=".8" d="M13 7H8v8H3V6h5V1h5v6z"/><path d="M13.836 12.037c1.516 1.054 2.145 1.612 2.145 1.984v1.983h-.708v-1.983c0 .064-.023.029-.08-.03a5.274 5.274 0 0 0-.495-.437 26.402 26.402 0 0 0-1.36-.998 1.087 1.087 0 0 1-.193.164c.177.12.364.277.513.45.457.533.709 1.23.709 1.56 0 .977-.793 1.274-1.771 1.274-.978 0-1.771-.297-1.771-1.275 0-.25.269-1.005.708-1.558a2.38 2.38 0 0 1 .496-.464 1.103 1.103 0 0 1-.233-.22c-.622.43-1.108.786-1.458 1.067-.225.18-.39.326-.496.437-.057.059-.08.094-.08.03v1.983h-.708v-1.983c0-.372.63-.93 2.146-1.984H9.196v-.708h2.16a3.525 3.525 0 0 1-1.084-.623c-.464-.389-.847-.907-1.179-1.553l.63-.323c.555 1.08 1.238 1.708 2.245 1.942l-.002.005c.025-.02.05-.038.076-.056a1.417 1.417 0 1 1 1.108 0l.01.007c.914-.264 1.55-.88 2.073-1.898l.63.323c-.56 1.093-1.27 1.819-2.263 2.176h2.396v.708h-2.16z"/></g></svg>