<svg xmlns="http://www.w3.org/2000/svg" width="16" height="16" viewBox="0 0 16 16"><rect id="frame" width="16" height="16" fill="none"/><path fill="#9AA7B0" fill-opacity=".8" fill-rule="evenodd" d="M10.268 8.066c2.653 1.844 3.755 2.82 3.755 3.47v3.471h-1.24v-3.47c0 .113-.04.05-.139-.053a9.23 9.23 0 0 0-.868-.765 46.204 46.204 0 0 0-2.38-1.747c-.102.11-.215.206-.338.288.311.211.638.484.9.789.798.931 1.239 2.15 1.239 2.727 0 1.712-1.388 2.231-3.1 2.231-1.71 0-3.098-.52-3.098-2.231 0-.439.47-1.758 1.24-2.727.258-.325.566-.602.866-.811a1.93 1.93 0 0 1-.407-.384c-1.088.752-1.939 1.375-2.551 1.865a9.23 9.23 0 0 0-.868.765c-.1.103-.14.166-.14.052v3.471H1.9v-3.47c0-.652 1.102-1.627 3.755-3.471H2.148v-1.24h3.78a6.169 6.169 0 0 1-1.897-1.09c-.811-.681-1.483-1.587-2.063-2.718l1.103-.565C4.041 4.344 5.237 5.44 7 5.85l-.003.01c.043-.035.087-.068.133-.098a2.48 2.48 0 1 1 1.938 0l.017.011c1.6-.46 2.715-1.537 3.63-3.32l1.102.565c-.98 1.913-2.224 3.183-3.96 3.808h4.192v1.24h-3.78z"/></svg>