<svg xmlns="http://www.w3.org/2000/svg" width="16" height="16" viewBox="0 0 16 16"><rect id="frame" width="16" height="16" fill="none"/><path fill="#62B543" fill-opacity=".7" fill-rule="evenodd" d="M12.425 10.154v.538c0 .374-.065.73-.156 1.077H14v1.616h-2.565A4.361 4.361 0 0 1 8.061 15a4.361 4.361 0 0 1-3.374-1.615H2v-1.616h1.853a4.192 4.192 0 0 1-.156-1.077v-.538H2V8.538h1.697V7.462c0-.185.033-.36.056-.539H2V5.308h2.307a4.361 4.361 0 0 1 1.76-1.653L4.534 2.143 5.692 1 7.89 3.171c.058-.002.051-.01.109-.01.02 0 .1.008.12.009L10.308 1l1.158 1.143-1.49 1.47a4.36 4.36 0 0 1 1.839 1.695H14v1.615h-1.63c.022.179.055.354.055.539v1.076H14v1.616h-1.575zM6.2 7v1.5h3.6V7H6.2zm0 3v1.5h3.6V10H6.2z"/></svg>