<svg xmlns="http://www.w3.org/2000/svg" width="16" height="16" viewBox="0 0 16 16"><rect id="frame" width="16" height="16" fill="none"/><g fill="none" fill-rule="evenodd"><circle cx="8" cy="8" r="2" fill="#40B6E0" fill-opacity=".6"/><circle cx="10.5" cy="12" r="2" fill="#40B6E0" fill-opacity=".6"/><circle cx="5.5" cy="12" r="2" fill="#40B6E0" fill-opacity=".6"/><path fill="#9AA7B0" fill-opacity=".8" d="M12.79 9h-2.227a2.75 2.75 0 1 0-5.125 0H3.21l.082-.06a4.823 4.823 0 0 1 0-1.88L1.814 5.998a6.493 6.493 0 0 1 1.356-2.35l1.658.748a4.795 4.795 0 0 1 1.635-.945l.18-1.81a6.526 6.526 0 0 1 2.714 0l.18 1.81c.61.205 1.163.53 1.635.945l1.658-.747a6.493 6.493 0 0 1 1.356 2.349l-1.478 1.06a4.823 4.823 0 0 1 0 1.882L12.79 9z"/></g></svg>