<svg ti:v="1" width="16" height="16" viewBox="0 0 16 16" xmlns="http://www.w3.org/2000/svg" xmlns:ti="urn:schemas-jetbrains-com:tisvg"><rect id="frame" width="16" height="16" fill="none"/><linearGradient id="a" x1="0" y1=".5" x2="1" y2=".5"><stop offset="0" stop-color="#755229"/><stop offset="1" stop-color="#4F3427"/></linearGradient><path d="M10.545 16H3.028C1.059 14.9 1 12.882 1 11.642l.8-.118c2.07-.283 4.311-2.328 4.626-3.742L6.6 7h5.684l.249.635c.312.923.47 1.89.467 2.865 0 2.386-.844 4.43-2.2 5.333zm0 0" fill="url(#a)"/><linearGradient id="b" x1="0" y1=".5" x2="1" y2=".5"><stop offset="0" stop-color="#FFFEF2"/><stop offset="1" stop-color="#FFF5C2"/></linearGradient><path d="M1.934 12.515A3.12 3.12 0 0 0 3.292 15h6.951c1.1-.733 1.757-2.551 1.757-4.5a7.952 7.952 0 0 0-.4-2.5H7.4c-.426 1.913-3.061 4.185-5.466 4.515zm0 0" fill="url(#b)"/><linearGradient id="c" x1="0" y1=".5" x2=".999" y2=".5"><stop offset="0" stop-color="#FFF9BA"/><stop offset="1" stop-color="#FFE69C"/></linearGradient><path d="M3.61 14a2.224 2.224 0 0 1-.5-.731A8.56 8.56 0 0 0 8.117 9h2.725c.1.494.153.996.158 1.5A5.142 5.142 0 0 1 9.9 14zm0 0" fill="url(#c)"/><path d="M4.013 14.989l.032.011h2.472a8.217 8.217 0 0 0 1.713-3.7 9.901 9.901 0 0 1-4.217 3.689zm0 0" fill="#654528"/><linearGradient id="d" x1="0" y1=".5" x2="1" y2=".5"><stop offset="0" stop-color="#0055C1"/><stop offset="1" stop-color="#00306E"/></linearGradient><path d="M12 5.278V0H7v5.278A1.993 1.993 0 0 0 6 7v2h7V7a1.993 1.993 0 0 0-1-1.722zm0 0" fill="url(#d)"/><linearGradient id="e" x1="0" y1=".5" x2="1" y2=".5"><stop offset="0" stop-color="#8BFFF4"/><stop offset="1" stop-color="#63DFFF"/></linearGradient><path d="M11 6V1H8v5a1 1 0 0 0-1 1v1h5V7a1 1 0 0 0-1-1zm0 0" fill="url(#e)"/></svg>