<svg ti:v="1" width="16" height="16" viewBox="0 0 16 16" xmlns="http://www.w3.org/2000/svg" xmlns:ti="urn:schemas-jetbrains-com:tisvg"><rect id="frame" width="16" height="16" fill="none"/><path d="M12.293 10.237C14.594 7.488 16 4.245 16 1.626A14.157 14.157 0 0 0 15.88.12c-.5-.066-1.005-.106-1.51-.12-2.591 0-5.853 1.417-8.6 3.719-.322-.03-.646-.045-.969-.045-1.2 0-2.835.241-3.515.921A1.667 1.667 0 0 0 .839 5.81a4.622 4.622 0 0 0 1.119 2.714c-.188.432-.347.876-.474 1.33l4.661 4.661c.454-.127.898-.286 1.33-.475a4.935 4.935 0 0 0 2.713 1.129 1.65 1.65 0 0 0 1.216-.453 5.59 5.59 0 0 0 .923-3.54c0-.368-.018-.583-.034-.939zm0 0" fill="#F4F4F4"/><path d="M10.45 10.776a11.3 11.3 0 0 1-4.027 2.607l-1.9-1.9-1.9-1.9c.14-.419.319-.825.532-1.212C1.923 7.124 1.587 5.7 1.989 5.3c.402-.4 2.12-.816 4.1-.541 2.884-2.532 6.367-4 8.886-3.732.287 2.773-1.503 6.727-4.525 9.749zm0 0" fill="#323232"/><path d="M5.342 7.536A4.033 4.033 0 0 0 6.488 5.49a6.547 6.547 0 0 0-1.277-.126 3.453 3.453 0 0 0-1.992.449.5.5 0 0 0-.114.363c.087.708.429 1.362.961 1.837a.393.393 0 0 0 .288.113c.204 0 .521-.126.988-.59zm0 0" fill="#EBEBEB"/><path d="M12.157 6.254a1.54 1.54 0 1 1-3.08 0 1.54 1.54 0 0 1 3.08 0z" fill="#EBEBEB"/><path d="M.5 12.3a28.6 28.6 0 0 1 1.253-3.256l5.2 5.2a26.609 26.609 0 0 1-3.491 1.326c-1.13.299-2.294.444-3.462.43a12.7 12.7 0 0 1 .5-3.7zm0 0" fill="#F4F4F4"/><path d="M2.094 10.8a12.342 12.342 0 0 0-1.058 4.168A12.362 12.362 0 0 0 5.2 13.906zm0 0" fill="#C27D1A"/><path d="M2.459 13.54a11.714 11.714 0 0 0 1.8-.576l-1.223-1.227a11.71 11.71 0 0 0-.577 1.803zm0 0" fill="#EBEBEB"/><path d="M11.314 10.738c-.145.155-.29.31-.441.461a13.007 13.007 0 0 1-2.741 2.067l-.006.017c1.1.866 2.223 1.077 2.573.727a5.42 5.42 0 0 0 .62-3.272zm0 0" fill="#323232"/><path d="M10.282 13c-.29.289-1.135-.039-1.35-.229.648-.43 1.255-.916 1.815-1.455A3.37 3.37 0 0 1 10.282 13zm0 0" fill="#EBEBEB"/></svg>