<svg xmlns="http://www.w3.org/2000/svg" xmlns:xlink="http://www.w3.org/1999/xlink" width="16" height="16" viewBox="0 0 16 16"><rect id="frame" width="16" height="16" fill="none"/><defs><linearGradient id="a" x1="8" y1="3.131" x2="8" y2="14" gradientUnits="userSpaceOnUse"><stop offset="0" stop-color="#2d3742"/><stop offset="1" stop-color="#576a80"/></linearGradient><linearGradient id="b" x1="8" y1="4.093" x2="8" y2="13.002" gradientUnits="userSpaceOnUse"><stop offset="0" stop-color="#fff"/><stop offset="1" stop-color="#a6bada"/></linearGradient><linearGradient id="c" x1="5.5" y1="5.957" x2="5.5" y2="9.092" gradientUnits="userSpaceOnUse"><stop offset="0" stop-color="#133d6b"/><stop offset="1" stop-color="#3984db"/></linearGradient></defs><path d="M8.27 5.054V3.815a1.133 1.133 0 0 0-.548-.95A1.605 1.605 0 0 1 7 1.607C7 .728 7.769.328 8.258 0h1C8.769.328 8 .728 8 1.607a1.605 1.605 0 0 0 .722 1.258 1.133 1.133 0 0 1 .548.95v1.239z" fill="#313c48"/><path d="M7.27 5.054V3.815a1.133 1.133 0 0 0-.548-.95A1.605 1.605 0 0 1 6 1.607C6 .728 6.769.328 7.258 0h1C7.769.328 7 .728 7 1.607a1.605 1.605 0 0 0 .722 1.258 1.133 1.133 0 0 1 .548.95v1.239z" fill="#b4c5e0"/><path d="M13.807 14a3.117 3.117 0 0 1-2.531-1.473A3.488 3.488 0 0 0 8 11a3.488 3.488 0 0 0-3.276 1.527A3.117 3.117 0 0 1 2.193 14C1.534 14 0 13.752 0 11.456A31.361 31.361 0 0 1 1.852 4.79 3.59 3.59 0 0 1 4.808 3a3.213 3.213 0 0 1 1.645.531 2.786 2.786 0 0 0 3.094 0A3.213 3.213 0 0 1 11.192 3a3.59 3.59 0 0 1 2.956 1.79A31.361 31.361 0 0 1 16 11.456C16 13.752 14.466 14 13.807 14z" fill="url(#a)"/><path d="M13.28 5.285A2.6 2.6 0 0 0 11.192 4C10.172 4 9.737 5 8 5S5.828 4 4.808 4A2.6 2.6 0 0 0 2.72 5.285 32.7 32.7 0 0 0 1 11.456C1 12.46 1.3 13 2.193 13 4.27 13 3.744 10 8 10s3.73 3 5.807 3C14.7 13 15 12.46 15 11.456a32.7 32.7 0 0 0-1.72-6.171z" fill="url(#b)"/><path d="M12.5 6a.5.5 0 0 0-.5-.5h-1.427a.5.5 0 0 0-.5.5v.622a.5.5 0 0 1-.5.5H9a.5.5 0 0 0-.5.5V9a.5.5 0 0 0 .5.5h1.378a.5.5 0 0 0 .5-.5v-.573a.5.5 0 0 1 .5-.5H12a.5.5 0 0 0 .5-.5z" fill="#fff"/><path d="M10.823 7.427a.25.25 0 0 1-.25-.25V6.25a.25.25 0 0 1 .25-.25h.927a.25.25 0 0 1 .25.25v.927a.25.25 0 0 1-.25.25h-.927" fill="#20b31e"/><path d="M9.25 9A.25.25 0 0 1 9 8.75v-.878a.25.25 0 0 1 .25-.25h.878a.25.25 0 0 1 .25.25v.878a.25.25 0 0 1-.25.25H9.25" fill="#cf3734"/><circle cx="5.5" cy="7.5" r="2" fill="#fff"/><circle cx="5.5" cy="7.5" r="1.5" fill="url(#c)"/></svg>