<svg xmlns="http://www.w3.org/2000/svg" width="13" height="13" viewBox="0 0 13 13">
  <path fill="#AFB1B3" d="M7.40956291,9.63385797 L4.76102514,12.6611617 C4.40507695,13.0680138 3.77987875,13.1151308 3.36460587,12.7664004 C3.11485237,12.5566669 2.98769288,12.239125 3.02524783,11.9189576 L3.45049359,8.29360855 L0.614368197,7.1524626 C0.108427121,6.94889169 -0.133276725,6.38203537 0.074507548,5.88635357 C0.185617285,5.62129465 0.410631438,5.41790771 0.689233135,5.33071229 L4.24276125,4.21854609 L4.79984307,0.816697428 C4.88648603,0.287607717 5.39451331,-0.0724904951 5.93455375,0.0123955589 C6.22357124,0.0578246663 6.47727019,0.226190343 6.62754222,0.472292919 L8.20409957,3.05424253 L11.727728,2.02907767 C12.2520443,1.87653302 12.803308,2.16929465 12.9590099,2.68297908 C13.0545334,2.99812584 12.980675,3.33922605 12.762779,3.58923249 L10.1847687,6.54715321 L11.7289954,9.34905988 C11.988861,9.82057057 11.8093776,10.4091965 11.3281079,10.6637927 C11.0810296,10.7944995 10.7889314,10.8163019 10.524494,10.723775 L7.40956291,9.63385797 Z M6.97762157,8.04033659 L10.0184367,9.10432041 L8.5132241,6.37320236 L10.8390694,3.7046071 L7.56689709,4.65661331 L5.99641115,2.08460693 L5.47668533,5.25833933 L2.14666572,6.3005529 L4.94767183,7.42756824 L4.55036712,10.8147114 L6.97762157,8.04033659 Z"/>
</svg>
