<svg xmlns="http://www.w3.org/2000/svg" width="16" height="16" viewBox="0 0 16 16"><rect id="frame" width="16" height="16" fill="none"/><g fill="none" fill-rule="evenodd"><path fill="#F4AF3D" fill-opacity=".6" d="M12.069 15H3.93A2.94 2.94 0 0 1 1 12.068V3.931A2.939 2.939 0 0 1 3.93 1h8.139A2.94 2.94 0 0 1 15 3.931v8.137A2.94 2.94 0 0 1 12.069 15"/><path fill="#231F20" fill-opacity=".7" d="M7.813 8C8.777 8 9 7.674 9 7.05v-.018C9 6.33 8.76 6 7.812 6H7v2h.812zM6 5h1.831C9.168 5 10 5.797 10 7.006 10 8.37 8.972 9 7.717 9L7 8.984V11H6V5z"/></g></svg>