<svg xmlns="http://www.w3.org/2000/svg" width="16" height="16" viewBox="0 0 16 16">
  <g fill="none" fill-rule="evenodd">
    <path fill="#F4AF3D" fill-opacity=".6" d="M12.069,15 L3.93,15 C2.319,15 1,13.681 1,12.068 L1,3.931 C1,2.318 2.319,1 3.93,1 L12.069,1 C13.68,1 15,2.318 15,3.931 L15,12.068 C15,13.681 13.68,15 12.069,15"/>
    <path fill="#231F20" fill-opacity=".7" d="M9 6.0002C9 6.5532 8.553 7.0002 8 7.0002 7.447 7.0002 7 6.5532 7 6.0002 7 5.4472 7.447 5.0002 8 5.0002 8.553 5.0002 9 5.4472 9 6.0002M9 10.0002C9 10.5532 8.553 11.0002 8 11.0002 7.447 11.0002 7 10.5532 7 10.0002 7 9.4472 7.447 9.0002 8 9.0002 8.553 9.0002 9 9.4472 9 10.0002"/>
  </g>
</svg>
