<svg xmlns="http://www.w3.org/2000/svg" width="16" height="16" viewBox="0 0 16 16">
  <g fill="none" fill-rule="evenodd">
    <path fill="#F4AF3D" fill-opacity=".6" d="M12.069,15 L3.93,15 C2.319,15 1,13.681 1,12.068 L1,3.931 C1,2.318 2.319,1 3.93,1 L12.069,1 C13.68,1 15,2.318 15,3.931 L15,12.068 C15,13.681 13.68,15 12.069,15"/>
    <path fill="#231F20" fill-opacity=".7" d="M7 6C7 6.553 6.553 7 6 7 5.447 7 5 6.553 5 6 5 5.447 5.447 5 6 5 6.553 5 7 5.447 7 6M11 6C11 6.553 10.553 7 10 7 9.447 7 9 6.553 9 6 9 5.447 9.447 5 10 5 10.553 5 11 5.447 11 6M7 10C7 10.553 6.553 11 6 11 5.447 11 5 10.553 5 10 5 9.447 5.447 9 6 9 6.553 9 7 9.447 7 10M11 10C11 10.553 10.553 11 10 11 9.447 11 9 10.553 9 10 9 9.447 9.447 9 10 9 10.553 9 11 9.447 11 10"/>
  </g>
</svg>
