<svg xmlns="http://www.w3.org/2000/svg" width="13" height="13" viewBox="0 0 13 13">
  <g fill="#6E6E6E" fill-rule="evenodd" transform="translate(-2)">
    <path d="M0.753482064,6.17573594 L0.0242641094,5.44651798 L0.0242641094,4.47573589 L0.0242641094,0.975735891 L1.72426416,0.975735891 L1.72426416,4.47573589 L5.02426411,4.47573589 L5.02426411,6.17573594 L0.753482064,6.17573594 Z" transform="rotate(45 .366 8.121)"/>
    <path d="M0.729217955,5.20000005 L-7.43306691e-15,4.47078209 L-7.1e-15,3.5 L-7.1e-15,-4.74699626e-14 L1.70000005,-4.74699626e-14 L1.70000005,3.5 L5,3.5 L5,5.20000005 L0.729217955,5.20000005 Z" transform="scale(-1 1) rotate(45 -9.288 -12.863)"/>
    <polygon points="7.624 1.025 9.285 .517 9.431 11.975 7.805 12.473" transform="rotate(17 8.528 6.495)"/>
  </g>
</svg>
