<svg width="70" height="70" viewBox="0 0 70 70" fill="none" xmlns="http://www.w3.org/2000/svg"><rect id="frame" width="70" height="70" fill="none"/><path d="M64 6H6v58h58V6z" fill="url(#paint0_linear)"/><path d="M56 14H14v42h42V14z" fill="url(#paint1_linear)"/><path d="M19.133 19.133h6.417c3.733 0 6.067 2.217 6.067 5.484 0 3.616-2.8 5.483-6.417 5.483h-2.683v4.667h-3.5V19.133h.116zm6.184 8.05c1.75 0 2.683-1.166 2.683-2.45 0-1.516-1.05-2.333-2.8-2.333h-2.683v4.783h2.8z" fill="#fff"/><path d="M45.792 19.13v3.07H37.42v3.21h7.466v3.07H37.42v3.21h8.583v3.07H34V19.13h11.792z" fill="#fff"/><path d="M34.417 48.65h-15.75v2.683h15.75V48.65z" fill="#fff"/><defs><linearGradient id="paint0_linear" x1="63.27" y1="63.27" x2="-9.065" y2="-9.063" gradientUnits="userSpaceOnUse"><stop offset=".482" stop-color="#21D789"/><stop offset=".726" stop-color="#FCF84A"/></linearGradient><linearGradient id="paint1_linear" x1="34.944" y1="3.792" x2="34.944" y2="41.458" gradientUnits="userSpaceOnUse"><stop offset=".084" stop-color="#878585"/><stop offset=".538"/></linearGradient></defs></svg>