<svg width="64" height="64" viewBox="0 0 64 64" fill="none" xmlns="http://www.w3.org/2000/svg"><rect id="frame" width="64" height="64" fill="none"/><path d="M58 6H6v52h52V6z" fill="url(#paint0_linear)"/><path d="M51 13H13v38h38V13z" fill="url(#paint1_linear)"/><path d="M32.144 44H18v2.322h14.144V44z" fill="#fff"/><path d="M17.645 17.644h5.805c3.378 0 5.489 2.006 5.489 4.962 0 3.272-2.533 4.96-5.806 4.96h-2.427v4.223h-3.167V17.644h.105zm5.594 7.284c1.583 0 2.428-1.056 2.428-2.217 0-1.372-.95-2.111-2.534-2.111h-2.427v4.328h2.533z" fill="#fff"/><path d="M41.668 17.64v2.777h-7.575v2.904h6.754V26.1h-6.754v2.904h7.764v2.777H31V17.64h10.668z" fill="#fff"/><defs><linearGradient id="paint0_linear" x1="57.346" y1="57.346" x2="-7.506" y2="-7.505" gradientUnits="userSpaceOnUse"><stop offset=".482" stop-color="#21D789"/><stop offset=".726" stop-color="#FCF84A"/></linearGradient><linearGradient id="paint1_linear" x1="31.949" y1="3.764" x2="31.949" y2="37.843" gradientUnits="userSpaceOnUse"><stop offset=".084" stop-color="#878585"/><stop offset=".538"/></linearGradient></defs></svg>