<svg width="64" height="64" viewBox="0 0 64 64" fill="none" xmlns="http://www.w3.org/2000/svg">
<path d="M8.6 57.8667L0 6.73338L15.9333 0.0667114L26.1333 6.13338L35.4667 1.13338L54.9333 8.60004L44 64L8.6 57.8667Z" fill="url(#paint0_linear)"/>
<path d="M63.9999 21.6667L55.7332 1.26667L40.7332 0L17.5999 22.2L23.8666 50.8667L35.4666 59L63.9999 42.0667L56.9999 29L63.9999 21.6667Z" fill="url(#paint1_linear)"/>
<path d="M51.1999 18.6L56.9999 29L63.9999 21.6667L58.8666 9L51.1999 18.6Z" fill="url(#paint2_linear)"/>
<path d="M51 13H13V51H51V13Z" fill="url(#paint3_linear)"/>
<path d="M32.1444 44H18V46.3222H32.1444V44Z" fill="white"/>
<path d="M31.24 17.75L29.0867 26.0467L26.68 17.75H24.2733L21.8667 26.0467L19.7133 17.75H16.42L20.4733 32H23.1333L25.4767 23.7667L27.7566 32H30.48L34.5333 17.75H31.24Z" fill="white"/>
<path d="M35.1667 29.9733L37.0034 27.7566C38.27 28.8333 39.6634 29.4666 41.2467 29.4666C42.5134 29.4666 43.3367 28.96 43.3367 28.1366V28.0733C43.3367 27.25 42.83 26.87 40.4867 26.2366C37.6367 25.4766 35.7367 24.7166 35.7367 21.8666V21.8033C35.7367 19.2066 37.8267 17.4966 40.74 17.4966C42.83 17.4966 44.6034 18.13 46.06 19.3333L44.4134 21.6766C43.1467 20.79 41.88 20.2833 40.6767 20.2833C39.4734 20.2833 38.84 20.8533 38.84 21.55V21.6133C38.84 22.5633 39.4734 22.88 41.9434 23.5133C44.8567 24.2733 46.5034 25.2866 46.5034 27.82V27.8833C46.5034 30.7333 44.35 32.3166 41.2467 32.3166C39.03 32.2533 36.8767 31.4933 35.1667 29.9733Z" fill="white"/>
<defs>
<linearGradient id="paint0_linear" x1="22.9189" y1="1.33478" x2="39.4815" y2="60.96" gradientUnits="userSpaceOnUse">
<stop offset="0.2849" stop-color="#07C3F2"/>
<stop offset="0.9409" stop-color="#087CFA"/>
</linearGradient>
<linearGradient id="paint1_linear" x1="28.0866" y1="8.89993" x2="56.105" y2="49.9852" gradientUnits="userSpaceOnUse">
<stop offset="0.1398" stop-color="#FCF84A"/>
<stop offset="0.3656" stop-color="#07C3F2"/>
</linearGradient>
<linearGradient id="paint2_linear" x1="55.8462" y1="13.9793" x2="59.5258" y2="27.0113" gradientUnits="userSpaceOnUse">
<stop offset="0.2849" stop-color="#07C3F2"/>
<stop offset="0.9409" stop-color="#087CFA"/>
</linearGradient>
<linearGradient id="paint3_linear" x1="31.9493" y1="3.7641" x2="31.9493" y2="37.8425" gradientUnits="userSpaceOnUse">
<stop offset="0.0842986" stop-color="#878585"/>
<stop offset="0.5377"/>
</linearGradient>
</defs>
    <path fill-rule="evenodd" clip-rule="evenodd" d="M28 64H64V44H28V64Z" fill="#D99E2B"/>
    <path fill-rule="evenodd" clip-rule="evenodd" d="M32 60H39.5V58.101H33.8V54.9H38.8V53H33.8V49.9H39.4V48H32V60Z" fill="black"/>
    <path fill-rule="evenodd" clip-rule="evenodd" d="M44.7998 55.3L46.5998 50.5L48.4998 55.3H44.7998ZM41 60H42.9L44 57.101H49.1L50.199 60H52.199L47.5 48H45.699L41 60Z" fill="black"/>
    <path fill-rule="evenodd" clip-rule="evenodd" d="M54.814 54.2004V49.9004H56.599C57.969 49.9004 58.599 50.6004 58.7 51.7004V52.1004C58.7 53.2884 58.045 54.2004 56.9 54.2004H54.814ZM54.814 60V56.1H56.5C58.791 56.142 60.511 54.348 60.511 52.304V51.804C60.511 49.585 58.935 48 56.88 48H53V60H54.814Z" fill="black"/>
</svg>