<svg ti:v="1" width="16" height="16" viewBox="0 0 16 16" xmlns="http://www.w3.org/2000/svg" xmlns:ti="urn:schemas-jetbrains-com:tisvg"><rect id="frame" width="16" height="16" fill="none"/><path d="M16 8A8 8 0 1 1 0 8a8 8 0 0 1 16 0z" fill="#F4F4F4"/><path d="M15 8A7 7 0 1 1 1 8a7 7 0 0 1 14 0z" fill="#962F8D"/><path d="M14 8A6 6 0 1 1 2 8a6 6 0 0 1 12 0z" fill="#EBEBEB"/><path d="M8.216 12.743h-.432v-2.372h.432zm-4.66-3.072l-.133-.411 2.255-.732.133.41zm7.406-5.381l-.349-.253-1.394 1.918.349.253zm1.615 4.97l-.133.411-2.255-.733.133-.41zm-7.19-5.223l-.349.253 1.394 1.918.349-.253zm3.363-.851h-1.5v2l.534 1.535h.432l.534-1.537zM3.653 5.8l-.464 1.426 1.9.617 1.625-.034.067-.209.067-.2-1.294-.983zm.91 5.655l1.214.882 1.175-1.617.469-1.555-.174-.127-.175-.128-1.334.927zm5.66.882l1.214-.882-1.175-1.618-1.334-.927-.175.127-.174.127.469 1.555zm2.588-5.11L12.347 5.8l-1.9.618-1.295.982.067.205.066.205 1.625.034zm0 0" fill="#962F8D"/></svg>