<svg ti:v="1" width="16" height="16" viewBox="0 0 16 16" xmlns="http://www.w3.org/2000/svg" xmlns:ti="urn:schemas-jetbrains-com:tisvg"><rect id="frame" width="16" height="16" fill="none"/><path d="M16 11.635a.722.722 0 0 1-.39.632L8.89 15.9a.823.823 0 0 1-.78 0l-6.72-3.633a.722.722 0 0 1-.39-.632v-7.27a.722.722 0 0 1 .39-.632L8.11.1a.823.823 0 0 1 .78 0l6.72 3.635a.722.722 0 0 1 .39.632zm0 0" fill="#252525"/><path d="M14.662 4.266l-5.824-3.18a.707.707 0 0 0-.676 0l-5.824 3.18A.634.634 0 0 0 2 4.82v6.36a.634.634 0 0 0 .338.554l5.824 3.18a.707.707 0 0 0 .676 0l5.824-3.18A.634.634 0 0 0 15 11.18V4.82a.634.634 0 0 0-.338-.554zm0 0" fill="#BD7D44"/><path d="M14 10.956l-5.5 3.003L3 10.956V5.044l5.5-3.003L14 5.044v5.912z" fill="#BD7D44"/><path d="M11 6H6c0 3.983 1 5 1.457 5h2.086C10 11 11 9.983 11 6zm0 0" fill="#FFF"/><path d="M8.522 3A1.321 1.321 0 0 0 8 4.006c0 .488.364.438.464.719.093.25.09.527-.008.775A1.127 1.127 0 0 0 9 4.656c0-.357-.426-.418-.486-.795A4.351 4.351 0 0 1 8.522 3zm0 0" fill="#FFF"/><path d="M9.883 8.217c.05-.345.093-.743.117-1.217H7c.023.744.132 1.482.326 2.2a13.767 13.767 0 0 1 2.557-.983zm0 0" fill="#BD7D44"/><path d="M5.525 7H3.5v.5h2.054c-.012-.16-.021-.329-.029-.5zm0 0" fill="#FFF"/><path d="M5.664 8.5H3.5V9h2.25c-.031-.158-.06-.325-.086-.5zm0 0" fill="#FFF"/><path d="M11.25 9h2.25v-.5h-2.164c-.026.175-.055.342-.086.5zm0 0" fill="#FFF"/><path d="M11.475 7c-.008.171-.017.34-.029.5H13.5V7zm0 0" fill="#FFF"/></svg>