<svg ti:v="1" width="16" height="16" viewBox="0 0 16 16" xmlns="http://www.w3.org/2000/svg" xmlns:ti="urn:schemas-jetbrains-com:tisvg"><rect id="frame" width="16" height="16" fill="none"/><linearGradient id="a" x1=".672" y1=".171" x2=".29" y2=".903"><stop offset="0" stop-color="#238710"/><stop offset=".075" stop-color="#1F7C0E"/><stop offset=".295" stop-color="#15620B"/><stop offset=".52" stop-color="#0E4F08"/><stop offset=".751" stop-color="#094407"/><stop offset="1" stop-color="#084006"/></linearGradient><path fill-rule="evenodd" d="M8.5 16a1.7 1.7 0 0 1-.817-.209l-5.824-3.179A1.636 1.636 0 0 1 1 11.181V4.819a1.634 1.634 0 0 1 .858-1.43L7.683.208a1.7 1.7 0 0 1 1.634 0l5.824 3.179A1.636 1.636 0 0 1 16 4.819v6.362a1.634 1.634 0 0 1-.858 1.43l-5.825 3.181c-.25.137-.532.208-.817.208zm0 0" fill="url(#a)"/><linearGradient id="b" x1=".5" y1="-.001" x2=".5" y2="1.004"><stop offset=".354" stop-color="#359133"/><stop offset=".422" stop-color="#379533"/><stop offset=".485" stop-color="#3FA035"/><stop offset=".546" stop-color="#4CB337"/><stop offset=".606" stop-color="#5DCD3A"/><stop offset=".646" stop-color="#6CE33D"/></linearGradient><path fill-rule="evenodd" d="M15 11.18a.634.634 0 0 1-.338.554l-5.824 3.18a.705.705 0 0 1-.676 0l-5.824-3.18A.634.634 0 0 1 2 11.18V4.82a.634.634 0 0 1 .338-.554l5.824-3.18a.705.705 0 0 1 .676 0l5.824 3.18A.634.634 0 0 1 15 4.82zm0 0" fill="url(#b)"/><linearGradient id="c" x1=".751" y1=".123" x2=".245" y2=".883"><stop offset=".087" stop-color="#6CE33D"/><stop offset=".237" stop-color="#66DA3C"/><stop offset=".478" stop-color="#57C339"/><stop offset=".776" stop-color="#3D9D34"/><stop offset=".862" stop-color="#359133"/></linearGradient><path d="M8.838 14.914a.705.705 0 0 1-.676 0l-5.824-3.18A.634.634 0 0 1 2 11.18L8.162 1.086a.705.705 0 0 1 .676 0l5.824 3.18A.634.634 0 0 1 15 4.82zm0 0" fill="url(#c)"/><linearGradient id="d" x1=".005" y1=".5" x2=".997" y2=".5"><stop offset=".092" stop-color="#6CE33D"/><stop offset=".241" stop-color="#66DA3C"/><stop offset=".48" stop-color="#57C339"/><stop offset=".777" stop-color="#3D9D34"/><stop offset=".862" stop-color="#359133"/></linearGradient><path d="M15 11.18a.634.634 0 0 1-.338.554l-5.824 3.18a.705.705 0 0 1-.676 0L2 4.82a.634.634 0 0 1 .338-.554l5.824-3.18a.705.705 0 0 1 .676 0zm0 0" fill="url(#d)"/></svg>