<svg ti:v="1" width="16" height="16" viewBox="0 0 16 16" xmlns="http://www.w3.org/2000/svg" xmlns:ti="urn:schemas-jetbrains-com:tisvg"><rect id="frame" width="16" height="16" fill="none"/><path fill-rule="evenodd" d="M9.317 15.792a1.7 1.7 0 0 1-1.634 0l-5.824-3.18A1.636 1.636 0 0 1 1 11.181V4.819a1.634 1.634 0 0 1 .858-1.43L7.683.208a1.7 1.7 0 0 1 1.634 0l5.824 3.179A1.636 1.636 0 0 1 16 4.819v6.362a1.634 1.634 0 0 1-.858 1.43zm0 0" fill="#252525"/><path fill-rule="evenodd" d="M15 11.18a.634.634 0 0 1-.338.554l-5.824 3.18a.705.705 0 0 1-.676 0l-5.824-3.18A.634.634 0 0 1 2 11.18V4.82a.634.634 0 0 1 .338-.554l5.824-3.18a.705.705 0 0 1 .676 0l5.824 3.18A.634.634 0 0 1 15 4.82zm0 0" fill="#3DA139"/><path d="M8.838 14.914a.705.705 0 0 1-.676 0l-5.824-3.18A.634.634 0 0 1 2 11.18L8.162 1.086a.705.705 0 0 1 .676 0l5.824 3.18A.634.634 0 0 1 15 4.82zm0 0" fill="#9FED9F"/><path d="M15 11.18a.634.634 0 0 1-.338.554l-5.824 3.18a.705.705 0 0 1-.676 0L2 4.82a.634.634 0 0 1 .338-.554l5.824-3.18a.705.705 0 0 1 .676 0zm0 0" fill="#3DA139"/></svg>