<svg ti:v="1" width="16" height="16" viewBox="0 0 16 16" xmlns="http://www.w3.org/2000/svg" xmlns:ti="urn:schemas-jetbrains-com:tisvg"><rect id="frame" width="16" height="16" fill="none"/><path d="M10.8 16a3.313 3.313 0 0 1-2.028-.793 2.34 2.34 0 0 0-.387-.254c-.193.074-.38.165-.557.272a3.881 3.881 0 0 1-1.909.6 2.534 2.534 0 0 1-1.977-1.235 3.94 3.94 0 0 0-.316-.374 3.087 3.087 0 0 0-.86.236c-.357.16-.74.252-1.131.272A1.56 1.56 0 0 1 0 13.105a3.8 3.8 0 0 1 .416-1.311c.345-.756.613-1.544.8-2.353C1.211 3.529 3.812 0 8.167 0c3.718 0 6.6 3.994 6.6 7.431a9.135 9.135 0 0 0 .837 3.92A3.6 3.6 0 0 1 16 12.742c0 1.779-1.649 1.779-2.191 1.779a1.311 1.311 0 0 0-1.308.563A2.092 2.092 0 0 1 10.8 16zm0 0" fill="#252525"/><path d="M8.166 1c3.027 0 5.6 3.443 5.6 6.431 0 3.187 1.23 4.534 1.23 5.312 0 .778-.547.777-1.191.777-2.241 0-1.87 1.48-3.005 1.48-1.135 0-1.62-1.043-2.382-1.043s-1.484.872-2.5.872-1.328-1.612-2.206-1.612c-.878 0-1.551.511-2.078.511A.571.571 0 0 1 1 13.105c0-.265 1.211-2.753 1.211-3.663C2.211 4.923 3.855 1 8.166 1zm0 0" fill="#01B7DB"/><path d="M1.906 12.922A8.034 8.034 0 0 1 5 11.234c.567 0 1.109.938 1.859.938s2.094-.844 2.735-.844 1.263 1.031 1.922 1.031 1.164-.406 1.64-.406.705.417 1.016.844c-2.547-.391-2.58 1.25-3.422 1.25-.842 0-1.2-.969-2.156-.969-.956 0-1.854.722-2.532.722-.678 0-1.015-1.5-1.937-1.516a6.417 6.417 0 0 0-2.219.638zm0 0" fill="#007087"/><path d="M7.643 5.98c0 1.094-.683 1.98-1.525 1.98-.842 0-1.525-.886-1.525-1.98 0-1.094.683-1.98 1.525-1.98.842 0 1.525.886 1.525 1.98z" fill="#EBEBEB"/><path d="M10.562 6.036c0 1.094-.683 1.98-1.525 1.98-.842 0-1.525-.886-1.525-1.98 0-1.094.683-1.98 1.525-1.98.842 0 1.525.886 1.525 1.98z" fill="#EBEBEB"/></svg>