<svg ti:v="1" width="16" height="16" viewBox="0 0 16 16" xmlns="http://www.w3.org/2000/svg" xmlns:ti="urn:schemas-jetbrains-com:tisvg"><rect id="frame" width="16" height="16" fill="none"/><linearGradient id="a" x1=".5" y1="0" x2=".5" y2="1"><stop offset="0" stop-color="#85127B"/><stop offset="1" stop-color="#52004A"/></linearGradient><path d="M16 12a4.001 4.001 0 0 1-4 4H4a4 4 0 0 1-4-4V4a4.001 4.001 0 0 1 4-4h8a4.001 4.001 0 0 1 4 4zm0 0" fill="url(#a)"/><linearGradient id="b" x1=".5" y1="0" x2=".5" y2="1"><stop offset="0" stop-color="#BD39B1"/><stop offset="1" stop-color="#9E3094"/></linearGradient><path d="M15 12a3.001 3.001 0 0 1-3 3H4a3 3 0 0 1-3-3V4a3.001 3.001 0 0 1 3-3h8a3.001 3.001 0 0 1 3 3zm0 0" fill="url(#b)"/><path d="M12 6.456A3.277 3.277 0 0 0 9.08 3H8C4.97 3 3 5.886 3 9.676 3 11.674 3.919 13 5.723 13h6.755l.378-2H10.5A7.694 7.694 0 0 0 12 6.456zM7.767 11H6.69a1.7 1.7 0 0 1-1.461-1.894C5.229 6.878 6.376 5 7.684 5h1c1.16 0 1.391 1.3 1.216 2.579C9.735 8.809 8.805 11 7.767 11zm0 0" fill="#FFF"/></svg>