<svg xmlns="http://www.w3.org/2000/svg" width="16" height="16" viewBox="0 0 16 16"><rect id="frame" width="16" height="16" fill="none"/><g fill="#9AA7B0" fill-opacity=".8" fill-rule="evenodd"><path d="M4.5 9v6H2V1h9v2.5H4.5v3H8V9H4.5z"/><path d="M9.008 15V6.6h3.9c.96 0 1.716.264 2.196.744.384.384.576.852.576 1.428v.024c0 .948-.504 1.476-1.104 1.812.972.372 1.472.936 1.472 2.064v.024c0 1.536-1.148 2.304-3.044 2.304H9.008zm4.836-5.892v-.024c0-.552-.432-.864-1.212-.864h-1.824v1.776h1.704c.816 0 1.332-.264 1.332-.888zm.368 3.336c0-.564-.32-.912-1.268-.912h-2.136v1.848h2.196c.816 0 1.208-.288 1.208-.912v-.024z"/></g></svg>