<svg xmlns="http://www.w3.org/2000/svg" width="16" height="16" viewBox="0 0 16 16"><rect id="frame" width="16" height="16" fill="none"/><g fill="none" fill-rule="evenodd"><path fill="#62B543" fill-opacity=".7" d="M1 9h15v7H1z"/><path fill="#9AA7B0" fill-opacity=".8" d="M7 1L3 5h4z"/><path fill="#9AA7B0" fill-opacity=".8" d="M8 1v5H3v2h10V1z"/><path fill="#231F20" fill-opacity=".7" d="M5 10h1v4h2.5v1H5z"/><path fill="#231F20" fill-opacity=".7" d="M9 15h1v-5H9z"/><path fill="#231F20" fill-opacity=".7" d="M11 10h.936l1.564 2 1.479-2H16v5h-1v-3.3l-1.5 1.8-1.5-1.8V15h-1z"/><path fill="#231F20" fill-opacity=".7" d="M1.973 11.502c0-.369.311-.502.872-.502H4v-1H2.86C1.778 10 1 10.46 1 11.45c0 .865.42 1.24 1.471 1.466.77.165 1.025.313 1.025.632 0 .32-.358.452-1.025.452H1.3v1h1.171C4.5 15 4.5 14 4.5 13.548c0-.632-.48-1.127-1.341-1.401-.862-.274-1.186-.277-1.186-.645z"/></g></svg>