<svg xmlns="http://www.w3.org/2000/svg" width="16" height="16" viewBox="0 0 16 16">
  <title>insightHotkey6</title>
  <g>
    <rect width="16" height="16" fill="#ffe3ff" opacity="0"/>
    <g>
      <rect x="12" y="2" width="1" height="12" fill="#389fd6"/>
      <path d="M9.443,6.793a2.346,2.346,0,0,1-.173.9,2.163,2.163,0,0,1-.493.734,2.33,2.33,0,0,1-.77.491,2.7,2.7,0,0,1-1,.178,2.626,2.626,0,0,1-1.018-.184,1.8,1.8,0,0,1-.741-.565A2.629,2.629,0,0,1,4.8,7.385,5.351,5.351,0,0,1,4.64,6.009a7.551,7.551,0,0,1,.069-1.033,4.638,4.638,0,0,1,.229-.944,3.267,3.267,0,0,1,.427-.811,2.6,2.6,0,0,1,.663-.632,3.231,3.231,0,0,1,.936-.41,4.762,4.762,0,0,1,1.248-.146H8.9v.81H8.153a3.491,3.491,0,0,0-1.082.15,2.133,2.133,0,0,0-.768.42,1.821,1.821,0,0,0-.474.655,2.79,2.79,0,0,0-.208.859L5.6,5.146a3.2,3.2,0,0,1,.776-.318,3.65,3.65,0,0,1,.952-.12,2.543,2.543,0,0,1,.925.155,1.809,1.809,0,0,1,.661.43,1.788,1.788,0,0,1,.4.658A2.55,2.55,0,0,1,9.443,6.793Zm-.97.059A2.008,2.008,0,0,0,8.4,6.273a1.1,1.1,0,0,0-.242-.437,1.109,1.109,0,0,0-.419-.277,1.656,1.656,0,0,0-.605-.1,2.4,2.4,0,0,0-.41.037,2.84,2.84,0,0,0-.408.105,3.6,3.6,0,0,0-.381.151,2.927,2.927,0,0,0-.331.182,5.767,5.767,0,0,0,.1,1.149,2.022,2.022,0,0,0,.286.737,1.063,1.063,0,0,0,.466.4,1.653,1.653,0,0,0,.64.116,1.52,1.52,0,0,0,.557-.1,1.206,1.206,0,0,0,.437-.291,1.371,1.371,0,0,0,.288-.466A1.763,1.763,0,0,0,8.473,6.852Z" fill="#389fd6"/>
    </g>
  </g>
</svg>
