<svg xmlns="http://www.w3.org/2000/svg" width="16" height="16" viewBox="0 0 16 16">
  <title>insightHotkey2</title>
  <g>
    <rect width="16" height="16" fill="#ffe3ff" opacity="0"/>
    <g>
      <rect x="12" y="2" width="1" height="12" fill="#389fd6"/>
      <path d="M9.358,9H4.768V8.168l1.8-1.791q.444-.438.72-.757a4.038,4.038,0,0,0,.432-.583,1.8,1.8,0,0,0,.208-.5,2.318,2.318,0,0,0,.053-.506,1.7,1.7,0,0,0-.069-.488A1.152,1.152,0,0,0,7.7,3.136a1,1,0,0,0-.374-.277,1.339,1.339,0,0,0-.549-.1,1.652,1.652,0,0,0-.8.2,2.8,2.8,0,0,0-.666.511l-.512-.613A3.138,3.138,0,0,1,5.7,2.187a2.7,2.7,0,0,1,1.2-.251,2.444,2.444,0,0,1,.845.14,1.86,1.86,0,0,1,.658.4,1.769,1.769,0,0,1,.429.64,2.259,2.259,0,0,1,.152.853,2.469,2.469,0,0,1-.106.74,2.844,2.844,0,0,1-.323.681,5.216,5.216,0,0,1-.544.7q-.327.363-.775.794L5.972,8.115H9.358Z" fill="#389fd6"/>
    </g>
  </g>
</svg>
