<svg xmlns="http://www.w3.org/2000/svg" width="16" height="16" viewBox="0 0 16 16">
  <title>insightHotkey0</title>
  <g>
    <rect width="16" height="16" fill="#ffe3ff" opacity="0"/>
    <g>
      <rect x="12" y="2" width="1" height="12" fill="#389fd6"/>
      <path d="M9.527,5.493a6.2,6.2,0,0,1-.161,1.469A3.378,3.378,0,0,1,8.877,8.1a2.288,2.288,0,0,1-.814.735A2.373,2.373,0,0,1,6.922,9.1,2.424,2.424,0,0,1,5.9,8.885a2.033,2.033,0,0,1-.789-.652A3.231,3.231,0,0,1,4.6,7.11a6.5,6.5,0,0,1-.177-1.617,6.111,6.111,0,0,1,.164-1.471A3.488,3.488,0,0,1,5.077,2.88a2.274,2.274,0,0,1,.814-.736A2.384,2.384,0,0,1,7.03,1.883,2.437,2.437,0,0,1,8.056,2.1a2.033,2.033,0,0,1,.789.655,3.25,3.25,0,0,1,.5,1.125A6.5,6.5,0,0,1,9.527,5.493ZM5.37,5.461c0,.111,0,.222,0,.332s.008.219.019.323l2.97-2.2a2.578,2.578,0,0,0-.2-.5,1.592,1.592,0,0,0-.3-.389,1.228,1.228,0,0,0-.392-.255,1.257,1.257,0,0,0-.494-.092,1.27,1.27,0,0,0-.664.178,1.474,1.474,0,0,0-.507.528,2.927,2.927,0,0,0-.322.87A5.708,5.708,0,0,0,5.37,5.461Zm3.212.065c0-.122,0-.243-.014-.363s-.018-.238-.029-.352L5.569,7.018a2.733,2.733,0,0,0,.2.516,1.574,1.574,0,0,0,.3.406,1.247,1.247,0,0,0,.905.357A1.279,1.279,0,0,0,7.64,8.12a1.5,1.5,0,0,0,.507-.527,2.839,2.839,0,0,0,.322-.867A5.7,5.7,0,0,0,8.582,5.526Z" fill="#389fd6"/>
    </g>
  </g>
</svg>
