<svg xmlns="http://www.w3.org/2000/svg" width="16" height="16" viewBox="0 0 16 16">
  <title>insightHotkey5_dark</title>
  <g>
    <rect width="16" height="16" fill="#ffe3ff" opacity="0"/>
    <g>
      <rect x="12" y="2" width="1" height="12" fill="#3592c4"/>
      <path d="M9.181,6.772a2,2,0,0,1-.224.943,2.23,2.23,0,0,1-.616.733,2.9,2.9,0,0,1-.925.477A3.746,3.746,0,0,1,6.265,9.1c-.1,0-.214,0-.333-.008s-.237-.012-.355-.021-.232-.019-.343-.03-.213-.022-.3-.037V8.158a4.482,4.482,0,0,0,.658.1c.247.022.5.032.75.032a2.673,2.673,0,0,0,.767-.1A1.723,1.723,0,0,0,7.688,7.9a1.267,1.267,0,0,0,.368-.459,1.39,1.39,0,0,0,.128-.6,1.035,1.035,0,0,0-.466-.946,2.506,2.506,0,0,0-1.341-.3H5.055V2.033H8.808v.81H5.929V4.8h.608a5.133,5.133,0,0,1,.975.091,2.505,2.505,0,0,1,.846.317,1.764,1.764,0,0,1,.6.608A1.857,1.857,0,0,1,9.181,6.772Z" fill="#3592c4"/>
    </g>
  </g>
</svg>
