<svg xmlns="http://www.w3.org/2000/svg" width="16" height="16" viewBox="0 0 16 16"><rect id="frame" width="16" height="16" fill="none"/><g fill="#9AA7B0" fill-rule="evenodd"><path fill-opacity=".8" d="M15 8.899A5 5 0 1 0 5.99 13H1V2.051A.05.05 0 0 1 1.05 2H4.98c.554 0 1.326.32 1.718.711L7.985 4H15v4.899z"/><path d="M10.233 14.167a3.833 3.833 0 1 1 0-7.667 3.833 3.833 0 0 1 0 7.667zm0-1.334a2.5 2.5 0 1 0 0-5 2.5 2.5 0 0 0 0 5z"/><path d="M11.914 12.986l1.038-1.038 2.943 2.943-1.038 1.038z"/></g></svg>