<svg xmlns="http://www.w3.org/2000/svg" width="16" height="16" viewBox="0 0 16 16"><rect id="frame" width="16" height="16" fill="none"/><g fill="none" fill-rule="nonzero"><circle cx="8" cy="8" r="7" fill="#03786D"/><path fill="#FFF" d="M5.633 5.7H5l-.163-.117C5.447 5.116 6.635 4.8 8 4.8v.5c-.959 0-1.803.173-2.367.4zM8 7.3v.5-.5z"/><path fill="#FFF" d="M4.017 4.987l.887.644.622-.166-1.083-.787z"/><path fill="#FFF" d="M8 12.113l-.005.006L3.95 9.18l.294-.404 3.755 2.728 3.756-2.728.294.404-4.045 2.939-.005-.006z"/><path fill="#FFF" d="M8 10.613l-.005.006L3.95 7.68l.294-.404 3.755 2.728 3.756-2.728.294.404-4.045 2.939-.005-.006z"/><path fill="#FFF" d="M8 9.113l-.005.006L3.95 6.18l.294-.404 3.755 2.728 3.756-2.728.294.404L8.004 9.12l-.005-.006z"/><path fill="#FFF" d="M3.95 4.68h1v1.5h-1z"/><g fill="#FFF"><path d="M10.367 5.7H11l.163-.117C10.553 5.116 9.365 4.8 8 4.8v.5c.959 0 1.803.173 2.367.4zM8 7.3v.5-.5z"/><path d="M11.983 4.987l-.887.645-.622-.167 1.084-.787z"/><path d="M12.05 4.68h-1v1.5h1z"/></g></g></svg>