<svg xmlns="http://www.w3.org/2000/svg" width="16" height="16" viewBox="0 0 16 16"><rect id="frame" width="16" height="16" fill="none"/><g fill="#AFB1B3" fill-rule="evenodd"><path d="M5 3h2v10H5z"/><path d="M11 7v2H1V7z"/><path d="M13.428 15.93a4.74 4.74 0 0 1-2.912-1.027l.702-1.066c.754.559 1.547.845 2.249.845.676 0 1.066-.286 1.066-.741v-.026c0-.533-.728-.715-1.534-.962-1.014-.286-2.145-.702-2.145-2.002v-.026c0-1.313 1.079-2.106 2.444-2.106.858 0 1.794.299 2.522.78l-.624 1.118c-.663-.403-1.365-.65-1.937-.65-.611 0-.962.299-.962.676v.026c0 .507.741.715 1.547.975 1.001.312 2.132.767 2.132 2.002v.026c0 1.443-1.118 2.158-2.548 2.158z"/></g></svg>