<svg width="64" height="64" viewBox="0 0 64 64" fill="none" xmlns="http://www.w3.org/2000/svg">
<path d="M51 13H13V51H51V13Z" fill="url(#paint0_linear)"/>
<path d="M32 13H13V51H32V13Z" fill="url(#paint1_linear)"/>
<path d="M32 13H13V51H32V13Z" fill="url(#paint2_linear)"/>
<path d="M51 36.0347H42V29L32 39L42 49V41.973H51V36.0347Z" fill="url(#paint3_linear)"/>
<path d="M51 36.0347H42V29L32 39L42 49V41.973H51V36.0347Z" fill="url(#paint4_linear)"/>
<path d="M13 28H22V35L32 25L22 15V22H13V28Z" fill="url(#paint5_linear)"/>
<defs>
<linearGradient id="paint0_linear" x1="31.9493" y1="3.7641" x2="31.9493" y2="37.8425" gradientUnits="userSpaceOnUse">
<stop offset="0.0842986" stop-color="#878585"/>
<stop offset="0.5377"/>
</linearGradient>
<linearGradient id="paint1_linear" x1="22.5" y1="13" x2="22.5" y2="51" gradientUnits="userSpaceOnUse">
<stop offset="0" stop-color="#FDFEFF"/>
<stop offset="0.458333" stop-color="#E2E3E4"/>
<stop offset="0.765625" stop-color="#E2E3E4"/>
</linearGradient>
<linearGradient id="paint2_linear" x1="22.5" y1="13" x2="22.5" y2="51" gradientUnits="userSpaceOnUse">
<stop offset="0" stop-color="#F5F1F1"/>
<stop offset="1" stop-color="white" stop-opacity="0"/>
</linearGradient>
<linearGradient id="paint3_linear" x1="41.5" y1="29" x2="41.5" y2="49" gradientUnits="userSpaceOnUse">
<stop offset="0" stop-color="#FDFEFF"/>
<stop offset="0.458333" stop-color="#E2E3E4"/>
<stop offset="0.765625" stop-color="#E2E3E4"/>
</linearGradient>
<linearGradient id="paint4_linear" x1="41.5" y1="29" x2="41.5" y2="49" gradientUnits="userSpaceOnUse">
<stop offset="0" stop-color="#F5F1F1"/>
<stop offset="1" stop-color="white" stop-opacity="0"/>
</linearGradient>
<linearGradient id="paint5_linear" x1="22.4747" y1="10.139" x2="22.4747" y2="28.075" gradientUnits="userSpaceOnUse">
<stop offset="0.0842986" stop-color="#878585"/>
<stop offset="0.5377"/>
</linearGradient>
</defs>
</svg>
