<svg width="32" height="32" viewBox="0 0 32 32" fill="none" xmlns="http://www.w3.org/2000/svg">
<path d="M26 6H6V26H26V6Z" fill="url(#paint0_linear)"/>
<path d="M16 6H6V26H16V6Z" fill="url(#paint1_linear)"/>
<path d="M16 6H6V26H16V6Z" fill="url(#paint2_linear)"/>
<path d="M26 18H22V15L16 20L22 25V22H26V18Z" fill="url(#paint3_linear)"/>
<path d="M26 18H22V15L16 20L22 25V22H26V18Z" fill="url(#paint4_linear)"/>
<path d="M6 14H10V17L16 12.0526L10 7V10H6V14Z" fill="url(#paint5_linear)"/>
<defs>
<linearGradient id="paint0_linear" x1="15.9733" y1="1.139" x2="15.9733" y2="19.075" gradientUnits="userSpaceOnUse">
<stop offset="0.0842986" stop-color="#878585"/>
<stop offset="0.5377"/>
</linearGradient>
<linearGradient id="paint1_linear" x1="11" y1="6" x2="11" y2="26" gradientUnits="userSpaceOnUse">
<stop offset="0" stop-color="#FDFEFF"/>
<stop offset="0.458333" stop-color="#E2E3E4"/>
<stop offset="0.765625" stop-color="#E2E3E4"/>
</linearGradient>
<linearGradient id="paint2_linear" x1="11" y1="6" x2="11" y2="26" gradientUnits="userSpaceOnUse">
<stop offset="0" stop-color="#F5F1F1"/>
<stop offset="1" stop-color="white" stop-opacity="0"/>
</linearGradient>
<linearGradient id="paint3_linear" x1="21" y1="15" x2="21" y2="25" gradientUnits="userSpaceOnUse">
<stop offset="0" stop-color="#FDFEFF"/>
<stop offset="0.458333" stop-color="#E2E3E4"/>
<stop offset="0.765625" stop-color="#E2E3E4"/>
</linearGradient>
<linearGradient id="paint4_linear" x1="21" y1="15" x2="21" y2="25" gradientUnits="userSpaceOnUse">
<stop offset="0" stop-color="#F5F1F1"/>
<stop offset="1" stop-color="white" stop-opacity="0"/>
</linearGradient>
<linearGradient id="paint5_linear" x1="10.9867" y1="4.5695" x2="10.9867" y2="13.5375" gradientUnits="userSpaceOnUse">
<stop offset="0.0842986" stop-color="#878585"/>
<stop offset="0.5377"/>
</linearGradient>
</defs>
</svg>
