<svg width="24" height="24" viewBox="0 0 24 24" fill="none" xmlns="http://www.w3.org/2000/svg">
<path d="M20 4H4V20H20V4Z" fill="url(#paint0_linear)"/>
<path d="M12 4H4V20H12V4Z" fill="url(#paint1_linear)"/>
<path d="M12 4H4V20H12V4Z" fill="url(#paint2_linear)"/>
<path d="M20 13.4H17V11L12 15L17 19V16.6H20V13.4Z" fill="url(#paint3_linear)"/>
<path d="M20 13.4H17V11L12 15L17 19V16.6H20V13.4Z" fill="url(#paint4_linear)"/>
<path d="M4 10.6H7V13L12 9.04209L7 5V7.4H4V10.6Z" fill="url(#paint5_linear)"/>
<defs>
<linearGradient id="paint0_linear" x1="11.9787" y1="0.1112" x2="11.9787" y2="14.46" gradientUnits="userSpaceOnUse">
<stop offset="0.0842986" stop-color="#878585"/>
<stop offset="0.5377"/>
</linearGradient>
<linearGradient id="paint1_linear" x1="8" y1="4" x2="8" y2="20" gradientUnits="userSpaceOnUse">
<stop offset="0" stop-color="#FDFEFF"/>
<stop offset="0.458333" stop-color="#E2E3E4"/>
<stop offset="0.765625" stop-color="#E2E3E4"/>
</linearGradient>
<linearGradient id="paint2_linear" x1="8" y1="4" x2="8" y2="20" gradientUnits="userSpaceOnUse">
<stop offset="0" stop-color="#F5F1F1"/>
<stop offset="1" stop-color="white" stop-opacity="0"/>
</linearGradient>
<linearGradient id="paint3_linear" x1="16" y1="11" x2="16" y2="19" gradientUnits="userSpaceOnUse">
<stop offset="0" stop-color="#FDFEFF"/>
<stop offset="0.458333" stop-color="#E2E3E4"/>
<stop offset="0.765625" stop-color="#E2E3E4"/>
</linearGradient>
<linearGradient id="paint4_linear" x1="16" y1="11" x2="16" y2="19" gradientUnits="userSpaceOnUse">
<stop offset="0" stop-color="#F5F1F1"/>
<stop offset="1" stop-color="white" stop-opacity="0"/>
</linearGradient>
<linearGradient id="paint5_linear" x1="7.98933" y1="3.0556" x2="7.98933" y2="10.23" gradientUnits="userSpaceOnUse">
<stop offset="0.0842986" stop-color="#878585"/>
<stop offset="0.5377"/>
</linearGradient>
</defs>
</svg>
