<svg width="80" height="80" viewBox="0 0 80 80" fill="none" xmlns="http://www.w3.org/2000/svg">
<path d="M65 15H15V65H65V15Z" fill="url(#paint0_linear)"/>
<path d="M40 15H15V65H40V15Z" fill="url(#paint1_linear)"/>
<path d="M40 15H15V65H40V15Z" fill="url(#paint2_linear)"/>
<path d="M65 45.3088H53.1579V36.0526L40 49.2105L53.1579 62.3684V53.1224H65V45.3088Z" fill="url(#paint3_linear)"/>
<path d="M65 45.3088H53.1579V36.0526L40 49.2105L53.1579 62.3684V53.1224H65V45.3088Z" fill="url(#paint4_linear)"/>
<path d="M15 34.7369H26.8421V43.9474L40 30.7895L26.8421 17.6316V26.8421H15V34.7369Z" fill="url(#paint5_linear)"/>
<defs>
<linearGradient id="paint0_linear" x1="39.9333" y1="2.8475" x2="39.9333" y2="47.6875" gradientUnits="userSpaceOnUse">
<stop offset="0.0842986" stop-color="#878585"/>
<stop offset="0.5377"/>
</linearGradient>
<linearGradient id="paint1_linear" x1="27.5" y1="15" x2="27.5" y2="65" gradientUnits="userSpaceOnUse">
<stop offset="0" stop-color="#FDFEFF"/>
<stop offset="0.458333" stop-color="#E2E3E4"/>
<stop offset="0.765625" stop-color="#E2E3E4"/>
</linearGradient>
<linearGradient id="paint2_linear" x1="27.5" y1="15" x2="27.5" y2="65" gradientUnits="userSpaceOnUse">
<stop offset="0" stop-color="#F5F1F1"/>
<stop offset="1" stop-color="white" stop-opacity="0"/>
</linearGradient>
<linearGradient id="paint3_linear" x1="52.5" y1="36.0526" x2="52.5" y2="62.3684" gradientUnits="userSpaceOnUse">
<stop offset="0" stop-color="#FDFEFF"/>
<stop offset="0.458333" stop-color="#E2E3E4"/>
<stop offset="0.765625" stop-color="#E2E3E4"/>
</linearGradient>
<linearGradient id="paint4_linear" x1="52.5" y1="36.0526" x2="52.5" y2="62.3684" gradientUnits="userSpaceOnUse">
<stop offset="0" stop-color="#F5F1F1"/>
<stop offset="1" stop-color="white" stop-opacity="0"/>
</linearGradient>
<linearGradient id="paint5_linear" x1="27.4667" y1="11.2355" x2="27.4667" y2="34.8355" gradientUnits="userSpaceOnUse">
<stop offset="0.0842986" stop-color="#878585"/>
<stop offset="0.5377"/>
</linearGradient>
</defs>
</svg>
