<svg xmlns="http://www.w3.org/2000/svg" width="16" height="16" viewBox="0 0 16 16">
  <g fill="none" fill-rule="evenodd">
    <path fill="#9AA7B0" fill-opacity=".8" d="M11.6663,12.4795 C10.6463,11.8525 10.0003,10.7305 10.0003,9.5005 C10.0003,7.5705 11.5703,6.0005 13.5003,6.0005 C14.0393,6.0005 14.5433,6.1325 15.0003,6.3515 L15.0003,4.0005 L7.9843,4.0005 L6.6963,2.7105 C6.3053,2.3205 5.5323,2.0005 4.9793,2.0005 L1.0513,2.0005 C1.0223,2.0005 1.0003,2.0235 1.0003,2.0505 L1.0003,13.0005 L8.0003,13.0005 L11.6663,13.0005 L11.6663,12.4795 Z"/>
    <path fill="#9AA7B0" d="M12.6663,11.8545 C11.6953,11.5125 11.0003,10.5875 11.0003,9.5005 C11.0003,8.1215 12.1213,7.0005 13.5003,7.0005 C14.8793,7.0005 16.0003,8.1215 16.0003,9.5005 C16.0003,10.5875 15.3043,11.5125 14.3333,11.8545 L14.3333,13.5005 L16.0003,13.5005 L16.0003,15.0005 L14.3333,15.0005 L14.3333,16.0005 L12.6663,16.0005 L12.6663,11.8545 Z M14.3333,9.5005 C14.3333,9.0415 13.9583,8.6665 13.5003,8.6665 C13.0413,8.6665 12.6663,9.0415 12.6663,9.5005 C12.6663,9.9585 13.0413,10.3335 13.5003,10.3335 C13.9583,10.3335 14.3333,9.9585 14.3333,9.5005 Z"/>
  </g>
</svg>
