<svg xmlns="http://www.w3.org/2000/svg" width="16" height="16" viewBox="0 0 16 16"><rect id="frame" width="16" height="16" fill="none"/><g fill="none" fill-rule="evenodd" opacity=".9"><path fill="#B93A36" d="M7.156 11.906a4.105 4.105 0 0 1 1.029-8.133L8.52 1.03A6.863 6.863 0 0 0 6.82 14.648l.336-2.742z"/><path fill="#369C87" d="M14.727 7.863a6.865 6.865 0 0 0-5.672-6.76l-.337 2.745a4.105 4.105 0 0 1 1.94 7.02l-.121-1.581-1.77.297.588 4.692 5.05-.422v-1.778l-1.229.132a6.835 6.835 0 0 0 1.55-4.345"/></g></svg>