<svg xmlns="http://www.w3.org/2000/svg" width="16" height="16" viewBox="0 0 16 16">
  <g fill="none" fill-rule="evenodd" opacity=".9" transform="translate(1 1)">
    <path fill="#B93A36" d="M6.15623077,10.9058564 C4.22674359,10.5705744 2.75889744,8.88913846 2.75889744,6.86308718 C2.75889744,4.59652308 4.59648718,2.75893333 6.86341026,2.75893333 C6.97146154,2.75893333 7.0784359,2.76431795 7.18469231,2.77257436 L7.52105128,0.0314461538 C7.30423077,0.010625641 7.08525641,-0.000143589744 6.86341026,-0.000143589744 C3.07264103,-0.000143589744 0.000179487179,3.0730359 0.000179487179,6.86308718 C0.000179487179,10.2991897 2.52484615,13.1451385 5.81987179,13.6480615 L6.15623077,10.9058564 Z"/>
    <path fill="#369C87" d="M13.7266051,6.86319487 C13.7266051,3.47914359 11.2773231,0.667297436 8.05481026,0.103348718 L7.71809231,2.84842564 C9.57470769,3.24186154 10.9675282,4.88955385 10.9675282,6.86319487 C10.9675282,8.05032308 10.4635282,9.11827179 9.65834872,9.86745128 L9.53665641,8.28688718 L7.76655385,8.58411795 L8.35455385,13.2755538 L13.4049641,12.8544769 L13.4049641,11.0764769 L12.1761949,11.2078615 C13.1450667,10.0243231 13.7266051,8.5119641 13.7266051,6.86319487"/>
  </g>
</svg>
