<svg xmlns="http://www.w3.org/2000/svg" width="40" height="40" viewBox="0 0 40 40"><rect id="frame" width="40" height="40" fill="none"/><path d="M26.272 19.891a.682.682 0 1 0 .346-1.32.682.682 0 0 0-.346 1.32zm-.61-3.197a.686.686 0 1 0-.355-1.325.686.686 0 0 0 .355 1.325zm-3.1-3.434a.686.686 0 1 0 .972.97.686.686 0 0 0-.971-.97zm-2.59-.94a.686.686 0 1 0-.351 1.326.686.686 0 0 0 .351-1.326zm-3.197 2.29a.686.686 0 1 0-.354-1.325.686.686 0 0 0 .354 1.325zM13.826 15.9a.682.682 0 1 0 .97.96.682.682 0 0 0-.97-.96zm-.1 3.083a.686.686 0 1 0-.356 1.325.686.686 0 0 0 .356-1.325zm.61 3.19a.686.686 0 1 0 .355 1.326.686.686 0 0 0-.355-1.326zm3.096 3.434a.684.684 0 1 0-.97-.965.684.684 0 0 0 .97.965zm2.592.94a.686.686 0 1 0 .356-1.325.686.686 0 0 0-.356 1.325zm3.19-2.29a.686.686 0 1 0 .356 1.325.686.686 0 0 0-.355-1.325zm2.958-1.286a.686.686 0 1 0-.969-.97.686.686 0 0 0 .97.97zm3.733-4.29a.798.798 0 1 0-.402 1.545.798.798 0 0 0 .402-1.544zm-1.288-3.3a.798.798 0 1 0-.422-1.538.798.798 0 0 0 .422 1.538zm-4.315-3.767a.798.798 0 1 0 1.12-1.136.798.798 0 0 0-1.12 1.136zm-4.477-1.103a.798.798 0 1 0 .4-1.544.798.798 0 0 0-.4 1.544zm-4.864-.265a.798.798 0 1 0 .43 1.536.798.798 0 0 0-.43-1.536zm-3.91 4.886a.798.798 0 1 0 1.12-1.135.798.798 0 0 0-1.12 1.135zm-.96 5.047a.798.798 0 1 0 .4-1.544.798.798 0 0 0-.4 1.544zm1.288 3.309a.798.798 0 1 0 .422 1.538.798.798 0 0 0-.422-1.538zm4.318 3.767a.798.798 0 1 0-1.12 1.136.798.798 0 0 0 1.12-1.136zm4.487 1.1a.798.798 0 1 0-.402 1.544.798.798 0 0 0 .402-1.544zm4.852.266a.798.798 0 1 0-.424-1.539.798.798 0 0 0 .424 1.539zm3.918-4.886a.798.798 0 1 0-1.12 1.137.798.798 0 0 0 1.12-1.137zm3.795-1.803a1.037 1.037 0 1 0 .54-2.002 1.037 1.037 0 0 0-.54 2.002zm.273-7.98a1.035 1.035 0 1 0-1.998.54 1.035 1.035 0 0 0 1.998-.54zm-4.485-5.778A1.037 1.037 0 1 0 27.07 9.64a1.037 1.037 0 0 0 1.467-1.466zm-7.317-.758a1.035 1.035 0 1 0 .536-2 1.035 1.035 0 0 0-.536 2zm-6.167.997a1.033 1.033 0 1 0-.54-1.994 1.033 1.033 0 0 0 .54 1.994zm-4.848 2.483a1.033 1.033 0 1 0-1.458 1.464 1.033 1.033 0 0 0 1.458-1.464zm-2.958 6.04a1.035 1.035 0 1 0-.535 2 1.035 1.035 0 0 0 .535-2zm.46 6.711a1.033 1.033 0 1 0 .54 1.994 1.033 1.033 0 0 0-.54-1.994zm5.218 5.582a1.033 1.033 0 1 0-1.458 1.464 1.033 1.033 0 0 0 1.458-1.464zm5.845 2.224a1.037 1.037 0 1 0-.54 2.002 1.037 1.037 0 0 0 .54-2.002zm6.174-.996a1.035 1.035 0 1 0 .537 2 1.035 1.035 0 0 0-.537-2zm6.313-2.484a1.035 1.035 0 1 0-1.463-1.464 1.035 1.035 0 0 0 1.463 1.464zm5.19-5.38a1.207 1.207 0 1 0-.625 2.33 1.207 1.207 0 0 0 .624-2.33zm0-6.316a1.197 1.197 0 1 0-.643-2.306 1.197 1.197 0 0 0 .642 2.306zm-5.49-7.802a1.206 1.206 0 1 0 1.704-1.707 1.206 1.206 0 0 0-1.705 1.707zm-6.945-4.01a1.206 1.206 0 1 0 .624-2.331 1.206 1.206 0 0 0-.624 2.33zm-8.024 0a1.197 1.197 0 1 0-.638-2.306 1.197 1.197 0 0 0 .638 2.306zM7.333 8.476A1.209 1.209 0 1 0 9.044 6.77a1.209 1.209 0 0 0-1.711 1.707zm-3.157 5.468a1.197 1.197 0 1 0-.6 2.317 1.197 1.197 0 0 0 .6-2.317zm-.624 8.647a1.197 1.197 0 1 0 .64 2.306 1.197 1.197 0 0 0-.64-2.306zm5.49 7.8a1.207 1.207 0 1 0-1.706 1.707 1.207 1.207 0 0 0 1.706-1.707zm6.946 4.01a1.207 1.207 0 1 0-.623 2.331 1.207 1.207 0 0 0 .623-2.331zm8.024.002a1.197 1.197 0 1 0 .64 2.306 1.197 1.197 0 0 0-.64-2.306zm8.651-4.012a1.206 1.206 0 1 0-1.705 1.707 1.206 1.206 0 0 0 1.705-1.707zM23.6 20.152c-.286.283-.547.563-.826.82-.214.194-.44.375-.678.54a1.21 1.21 0 0 1-1.133.12.772.772 0 0 1-.54-.656c-.399.329-.774.712-1.35.738l-.142.664a2.206 2.206 0 0 0-.06.299c-.01.142-.08.2-.219.23-.347.07-1.099.253-1.153.265.42-1.962.834-3.916 1.245-5.861h1.28a612.62 612.62 0 0 0-.658 3.145c-.034.335.178.532.503.434.184-.073.358-.168.52-.283.026-.014.034-.065.042-.101l.66-3.117a.29.29 0 0 1 .024-.078h1.256c-.068.321-.495 2.375-.642 3.091a.72.72 0 0 0-.014.173.295.295 0 0 0 .247.312c.14.04.292.024.42-.046a3.34 3.34 0 0 0 .78-.584.467.467 0 0 1 .437-.104z"/></svg>