<svg xmlns="http://www.w3.org/2000/svg" width="40" height="40" viewBox="0 0 40 40">
  <path d="M24.2719141 17.8911021C24.5863099 17.9735333 24.9151908 17.8226449 25.0577611 17.5305606 25.2003316 17.2384763 25.1169708 16.8863671 24.8585742 16.6892105 24.6001775 16.4920538 24.238554 16.5046401 23.9944901 16.7192849 23.7504263 16.9339297 23.691748 17.2909826 23.8542808 17.5724478 23.9456942 17.7298744 24.0959353 17.8445083 24.2719141 17.8911021zM23.6616474 14.6943272C23.9297782 14.622664 24.1283046 14.3964895 24.1645994 14.1213305 24.2008943 13.8461715 24.067805 13.5762552 23.8274271 13.437517 23.5870492 13.2987788 23.2867556 13.3185607 23.0666549 13.4876331 22.8465541 13.6567054 22.7500228 13.941748 22.8220997 14.209768 22.9203779 14.5752174 23.2960467 14.7920411 23.6616474 14.6943272zM20.562703 11.2603364C20.3316104 11.4918962 20.2961959 11.8544224 20.4781059 12.1263276 20.660016 12.3982328 21.0086221 12.5038415 21.3108453 12.3786023 21.6130685 12.253363 21.7847951 11.932132 21.7210606 11.6112557 21.657326 11.2903793 21.3758686 11.0591627 21.0487239 11.0589325 20.866388 11.0588045 20.6915037 11.1312754 20.562703 11.2603364zM17.9721229 10.3196172C17.6062774 10.222621 17.2310011 10.4402682 17.1335115 10.8059827 17.036022 11.1716971 17.2531626 11.5472666 17.6187452 11.6452495 17.9843278 11.7432323 18.3601899 11.5265985 18.4586659 11.1611485 18.5061261 10.9850211 18.4814815 10.7972438 18.3901802 10.639328 18.2988791 10.4814122 18.148441 10.3663641 17.9721229 10.3196172zM14.7754525 12.6104408C15.0435833 12.5387776 15.2421097 12.3126032 15.2784046 12.0374442 15.3146994 11.7622851 15.1816101 11.4923688 14.9412322 11.3536307 14.7008543 11.2148925 14.4005608 11.2346744 14.18046 11.4037467 13.9603592 11.5728191 13.8638279 11.8578617 13.9359048 12.1258817 14.0341829 12.4913311 14.4098518 12.7081548 14.7754525 12.6104408zM11.8260209 13.8986311C11.5973103 14.1296074 11.5633969 14.4898958 11.7449893 14.7594933 11.9265817 15.0290908 12.2732053 15.1330614 12.5732013 15.0079177 12.8731974 14.8827739 13.0431805 14.5633 12.9793539 14.2445763 12.9155272 13.9258526 12.6356317 13.6964701 12.3105801 13.6964966 12.1286459 13.69695 11.9543439 13.7696603 11.8260209 13.8986311zM11.7263109 16.9817053C11.458291 16.9096284 11.1732484 17.0061597 11.004176 17.2262605 10.8351037 17.4463612 10.8153218 17.7466549 10.9540599 17.9870327 11.0927981 18.2274106 11.3627144 18.3605 11.6378734 18.324205 11.9130324 18.2879101 12.1392068 18.0893838 12.2108701 17.8212529 12.308584 17.4556522 12.0917604 17.0799834 11.7263109 16.9817053zM12.3362645 20.1724246C12.0681336 20.2440878 11.8696072 20.4702622 11.8333124 20.7454213 11.7970175 21.0205803 11.9301069 21.2904966 12.1704847 21.4292347 12.4108626 21.5679729 12.7111562 21.548191 12.931257 21.3791187 13.1513577 21.2100464 13.247889 20.9250038 13.1758121 20.6569838 13.077534 20.2915343 12.7018652 20.0747107 12.3362645 20.1724246zM15.4315545 23.6064153C15.6617415 23.3753074 15.6967047 23.0138134 15.5150748 22.7428753 15.333445 22.4719371 14.9857683 22.3669548 14.6845417 22.4920927 14.3833153 22.6172305 14.2123679 22.9376636 14.2761813 23.2575459 14.3399947 23.5774283 14.62081 23.8077392 14.9469953 23.8077146 15.1288096 23.8074826 15.3030947 23.7350797 15.4315545 23.6064153zM18.0240139 24.5456728C18.2920339 24.6177499 18.5770765 24.5212185 18.7461489 24.3011177 18.9152212 24.0810169 18.9350031 23.7807234 18.7962649 23.5403455 18.6575267 23.2999676 18.3876105 23.1668782 18.1124514 23.2031731 17.8372924 23.2394681 17.611118 23.4379944 17.5394548 23.7061253 17.4417408 24.071726 17.6585645 24.4473948 18.0240139 24.5456728zM21.2147332 22.2563109C20.9465335 22.3282094 20.7481318 22.5547029 20.7121684 22.8300338 20.676205 23.1053647 20.8097743 23.3752197 21.0505082 23.5135946 21.2912422 23.6519695 21.5916524 23.6315676 21.8114672 23.4619152 22.031282 23.2922629 22.1271395 23.0068267 22.0542808 22.7388863 21.9551253 22.3742396 21.5797328 22.1584623 21.2147332 22.2563109zM24.1722041 20.9701044C24.3686447 20.7740179 24.4275596 20.478876 24.3214582 20.2223974 24.2153567 19.9659187 23.9651515 19.7986553 23.6875928 19.7986553 23.4100341 19.7986553 23.1598289 19.9659187 23.0537274 20.2223974 22.947626 20.478876 23.0065409 20.7740179 23.2029815 20.9701044 23.4707662 21.2374066 23.9044194 21.2374066 24.1722041 20.9701044zM27.9053248 16.6805916C27.5375219 16.5848663 27.1532622 16.7619248 26.9870548 17.1037104 26.8208475 17.4454961 26.9188567 17.8570778 27.2212687 18.0872719 27.5236806 18.3174661 27.9465001 18.3023362 28.2316855 18.0511159 28.5168707 17.7998955 28.5852114 17.3823612 28.395 17.0533295 28.2882018 16.8685876 28.1118356 16.7343387 27.9053248 16.6805916zM26.6170302 13.3802437C26.983525 13.2796324 27.2281411 12.9344273 27.2015928 12.5553016 27.1750445 12.1761759 26.8847057 11.868431 26.5077656 11.8198787 26.1308255 11.7713266 25.7719785 11.9954525 25.6502234 12.3554759 25.5284683 12.7154993 25.6776223 13.1114243 26.0066589 13.3016242 26.1914093 13.4084192 26.4112474 13.4367357 26.6170302 13.3802437zM22.3016242 9.61319025C22.572345 9.87981894 22.9935582 9.91847781 23.3082896 9.70558173 23.6230212 9.49268556 23.7438932 9.08734005 23.5971643 8.7368386 23.4504353 8.38633718 23.0768409 8.18798814 22.704304 8.26280047 22.331767 8.33761279 22.0637134 8.66481665 22.0636775 9.0447912 22.0636573 9.2584809 22.1493764 9.46324386 22.3016242 9.61319025zM17.824594 8.51032482C18.1923619 8.605669 18.5763372 8.42840089 18.7423118 8.08664637 18.9082864 7.74489184 18.8101937 7.33350527 18.507866 7.10341463 18.2055384 6.87332398 17.7828872 6.8883912 17.4977113 7.13942592 17.2125354 7.39046065 17.1439858 7.8077879 17.3338747 8.13685615 17.4407675 8.32209627 17.6175689 8.45665339 17.824594 8.51032482zM12.9607309 8.24512761C12.5946135 8.34763959 12.3517303 8.69429722 12.3803987 9.073413 12.4090669 9.45252873 12.7013179 9.75872016 13.0786875 9.80501049 13.4560571 9.85130082 13.8136483 9.62482275 13.9330969 9.26387586 14.0525456 8.90292901 13.9006486 8.50784538 13.5701624 8.31988399 13.3851303 8.21464848 13.165712 8.18773337 12.9607309 8.24512761zM9.05011605 13.1309165C9.32049135 13.3980878 9.74182554 13.4373651 10.0569252 13.2247727 10.3720248 13.0121803 10.4933446 12.6067833 10.3468279 12.2560467 10.2003111 11.9053102 9.82666494 11.7066803 9.45397296 11.7814061 9.08128089 11.8561318 8.81308916 12.1834519 8.81310905 12.5635615 8.81310905 12.7767529 8.89847107 12.9810685 9.05011605 13.1309165zM8.09091647 18.178225C8.45868434 18.2735692 8.84265974 18.0963012 9.00863433 17.7545466 9.17460891 17.4127921 9.0765162 17.0014055 8.77418856 16.7713149 8.4718609 16.5412242 8.04920967 16.5562915 7.76403379 16.8073261 7.47885791 17.0583609 7.41030828 17.4756882 7.60019721 17.8047563 7.70709009 17.9899965 7.88389144 18.1245536 8.09091647 18.178225zM9.37910673 21.4866125C9.01261179 21.5872237 8.76799584 21.9324289 8.79454412 22.3115546 8.8210924 22.6906803 9.11143125 22.9984252 9.48837132 23.0469773 9.86531139 23.0955295 10.2241583 22.8714036 10.3459135 22.5113803 10.4676686 22.1513569 10.3185147 21.7554319 9.989478 21.565232 9.80472753 21.4584369 9.58488948 21.4301205 9.37910673 21.4866125zM13.6966009 25.2537703C13.4258731 24.9871347 13.0046464 24.9484816 12.6899138 25.1613935 12.3751811 25.3743053 12.2543252 25.7796692 12.4010809 26.1301701 12.5478367 26.480671 12.9214587 26.6789955 13.2939979 26.6041446 13.6665371 26.5292939 13.9345475 26.2020493 13.9345475 25.822065 13.9345475 25.6084114 13.8488228 25.4036913 13.6966009 25.2537703zM18.1836543 26.3544431C17.8158514 26.2587178 17.4315917 26.4357763 17.2653843 26.7775619 17.0991769 27.1193477 17.1971862 27.5309294 17.4995981 27.7611234 17.8020101 27.9913176 18.2248296 27.9761877 18.5100149 27.7249674 18.7952002 27.473747 18.8635409 27.0562127 18.6733295 26.7271809 18.5665312 26.5424391 18.390165 26.4081902 18.1836543 26.3544431zM23.0355104 26.6196404C23.4019993 26.5187724 23.6464003 26.1733149 23.6195203 25.7941502 23.5926405 25.4149854 23.3019481 25.107462 22.9248946 25.0593055 22.547841 25.011149 22.1891882 25.2357395 22.0678735 25.5959771 21.9465587 25.9562147 22.0962884 26.3520098 22.4256613 26.5417518 22.6103712 26.6481577 22.8299861 26.6762064 23.0355104 26.6196404zM26.9540603 21.7339559C26.6833325 21.4673203 26.2621057 21.4286672 25.9473731 21.6415791 25.6326405 21.854491 25.5117846 22.2598549 25.6585404 22.6103558 25.8052961 22.9608566 26.1789181 23.1591812 26.5514573 23.0843303 26.9239965 23.0094795 27.192007 22.682235 27.192007 22.3022506 27.192007 22.088597 27.1062823 21.8838769 26.9540603 21.7339559zM30.7490952 19.9311369C31.1543068 20.0404444 31.5854513 19.8947245 31.8412636 19.5620013 32.097076 19.2292781 32.1271091 18.775166 31.9173431 18.4116513 31.7075771 18.0481367 31.2993786 17.846906 30.8833008 17.9018968 30.4672231 17.9568876 30.1253182 18.2572556 30.0171926 18.6627842 29.8699502 19.2150216 30.1972894 19.782285 30.7490952 19.9311369zM31.0222274 11.9503713C30.8729998 11.3990342 30.3053523 11.0728062 29.7538534 11.2214345 29.2023545 11.3700627 28.8755097 11.9373553 29.0235385 12.4890153 29.1715672 13.0406755 29.7385042 13.3681367 30.2903248 13.2207077 30.5560872 13.1497043 30.7826511 12.9758246 30.9199782 12.737471 31.0573053 12.4991176 31.0940969 12.2159007 31.0222274 11.9503713zM26.5372622 6.17324826C26.2407679 5.87645968 25.7946619 5.78755115 25.4070414 5.94799623 25.0194208 6.10844131 24.7666566 6.48662829 24.7666566 6.90614269 24.7666566 7.32565709 25.0194208 7.70384407 25.4070414 7.86428915 25.7946619 8.02473423 26.2407679 7.93582571 26.5372622 7.63903713 26.9417447 7.23415315 26.9417447 6.57813224 26.5372622 6.17324826zM19.2202204 5.41534802C19.7722733 5.56313432 20.3396283 5.23551283 20.4875821 4.68350477 20.6355358 4.1314967 20.3080864 3.56404239 19.7561233 3.41592118 19.2041601 3.26779997 18.6366065 3.59507716 18.4883179 4.14699536 18.4170496 4.41225031 18.4541381 4.69495577 18.5914156 4.93285123 18.7286932 5.17074669 18.9549007 5.34432112 19.2202204 5.41534802zM13.0525058 6.4124478C13.5279871 6.28398824 13.8466473 5.83771103 13.8137936 5.34627949 13.7809399 4.85484794 13.405711 4.45495929 12.9173616 4.39093471 12.4290122 4.32691013 11.9633821 4.61655877 11.8049588 5.08291313 11.6465356 5.5492675 11.8393863 6.06260587 12.2656845 6.30929235 12.5038359 6.44685042 12.7869435 6.48396697 13.0525058 6.4124478zM8.20451276 8.89527842C7.85546815 8.54763794 7.30951132 8.49483925 6.90031854 8.76915172 6.49112577 9.04346415 6.33256878 9.56855106 6.52155395 10.0234913 6.71053913 10.4784316 7.19447495 10.7366228 7.67759098 10.6402643 8.16070702 10.5439058 8.50854989 10.1198128 8.50854989 9.62718093 8.5083257 9.35253738 8.39895182 9.08924382 8.20451276 8.89527842zM5.24725058 14.9355104C4.69519765 14.7877241 4.12784271 15.1153457 3.97988896 15.6673537 3.83193519 16.2193618 4.15938454 16.7868161 4.7113477 16.9349373 5.26331086 17.0830585 5.83086448 16.7557813 5.97915313 16.2038631 6.05042148 15.9386081 6.01333286 15.6559027 5.87605536 15.4180073 5.73877785 15.1801118 5.51257028 15.0065374 5.24725058 14.9355104zM5.70790023 21.6461485C5.23240465 21.7748344 4.91392532 22.2213584 4.94709038 22.7128421 4.98025543 23.2043257 5.35583677 23.6040148 5.84431026 23.6676526 6.33278374 23.7312904 6.79823273 23.4411698 6.95621344 22.9745884 7.11419414 22.5080069 6.92074879 21.99479 6.49409512 21.7485731 6.25601349 21.6114315 5.97317195 21.5745833 5.70790023 21.6461485zM10.9246636 27.2279235C10.5756189 26.880283 10.0296621 26.8274843 9.62046936 27.1017967 9.21127662 27.3761092 9.05271957 27.9011961 9.24170481 28.3561364 9.43068996 28.8110767 9.91462581 29.0692678 10.3977418 28.9729093 10.8808578 28.8765509 11.2287007 28.4524577 11.2287007 27.959826 11.2284765 27.6851824 11.1191026 27.4218889 10.9246636 27.2279235zM16.7697563 29.4515081C16.364704 29.3424584 15.9338483 29.4881777 15.6781405 29.8207025 15.4224326 30.1532272 15.3922434 30.6070546 15.6016533 30.9705196 15.8110631 31.3339846 16.218821 31.5354894 16.6347487 31.4810523 17.0506764 31.4266152 17.3928418 31.1269594 17.5016589 30.7218445 17.6501669 30.1689646 17.322551 29.6003336 16.7697563 29.4515081zM22.9437355 28.4560789C22.3918173 28.6043675 22.0645401 29.1719211 22.2126613 29.7238843 22.3607825 30.2758475 22.9282368 30.6032968 23.4802449 30.4553431 24.032253 30.3073893 24.3598745 29.7400343 24.2120882 29.1879815 24.1410613 28.9226617 23.9674868 28.6964542 23.7295913 28.5591767 23.4916959 28.4218991 23.2089905 28.3848106 22.9437355 28.4560789zM29.257413 25.9715777C29.5534239 25.675571 29.6419768 25.2303979 29.4817793 24.843643 29.3215819 24.4568883 28.9441824 24.204717 28.5255626 24.204717 28.1069428 24.204717 27.7295434 24.4568883 27.5693459 24.843643 27.4091485 25.2303979 27.4977013 25.675571 27.7937123 25.9715777 28.1979038 26.3757635 28.8532215 26.3757635 29.257413 25.9715777zM34.4462993 20.5912065C33.8026288 20.418945 33.1411792 20.8010704 32.9688729 21.4447289 32.7965666 22.0883873 33.178646 22.7498635 33.8222924 22.9222146 34.4659388 23.0945657 35.1274417 22.7125324 35.2998376 22.0688979 35.3826403 21.7597564 35.3392281 21.4303823 35.1791536 21.1532525 35.0190789 20.8761228 34.7554581 20.6739447 34.4462993 20.5912065zM34.4462993 14.2756496C34.9951939 14.1228106 35.3601723 13.6041195 35.3186836 13.0358557 35.277195 12.467592 34.8407497 12.0074124 34.2754767 11.9359182 33.7102036 11.864424 33.1729299 12.2014503 32.9912661 12.7414903 32.8096021 13.2815303 33.0339481 13.8747577 33.5275058 14.1594431 33.8061187 14.3188568 34.1367702 14.3606767 34.4462993 14.2756496zM28.9561949 6.47425754C29.4274719 6.94502926 30.1911112 6.94475621 30.6620514 6.47364758 31.1329916 6.00253895 31.1329916 5.23889957 30.6620514 4.76779093 30.1911112 4.29668231 29.4274719 4.29640925 28.9561949 4.76718097 28.7296638 4.99346917 28.6023795 5.30052763 28.6023795 5.62071926 28.6023795 5.94091088 28.7296638 6.24796934 28.9561949 6.47425754zM22.012413 2.46393272C22.6560163 2.63611653 23.3173539 2.25400507 23.4896197 1.61042363 23.6618854.96684219 23.2798581.30545603 22.6362986.133108353 21.9927391-.0392393253 21.3313043.342703738 21.1588747.986241303 21.0760719 1.29538283 21.1194841 1.6247569 21.2795588 1.90188667 21.4396333 2.17901643 21.7032542 2.38119448 22.012413 2.46393272zM13.9877959 2.46393272C14.5370245 2.31204191 14.9029277 1.7938929 14.8623482 1.22549499 14.8217686.65709709 14.3859674.196184031 13.8207313.123857987 13.2554952.0515319426 12.7176807.387863814 12.5352906.927731142 12.3529005 1.46759847 12.5765492 2.06118492 13.0698376 2.34647332 13.3480448 2.5058971 13.6782723 2.54801143 13.987587 2.46351508L13.9877959 2.46393272zM5.33296984 6.4762413C5.67837901 6.82247482 6.19841371 6.9263995 6.65036284 6.73951149 7.10231197 6.55262349 7.39707185 6.1117686 7.39707185 5.62270302 7.39707185 5.13363743 7.10231197 4.69278254 6.65036284 4.50589454 6.19841371 4.31900654 5.67837901 4.42293121 5.33296984 4.76916474 4.86236804 5.24088968 4.86236804 6.00451636 5.33296984 6.4762413zM2.17607889 11.9443155C1.62436187 11.801622 1.04856819 12.0678352.799889602 12.5805848.551211006 13.0933343.698664006 13.7103151 1.15231313 14.0552146 1.60596225 14.4001139 2.2399049 14.3772108 2.66748274 14.0004744 3.09506058 13.623738 3.19760665 12.9977252 2.91257541 12.5042576 2.75124225 12.2271533 2.48623379 12.0256733 2.17607889 11.9443155zM1.55192576 20.5914153C1.0027239 20.7437349.637186865 21.2622848.678304042 21.830733.719421219 22.3991811 1.15577862 22.8597282 1.72118415 22.9314256 2.28658966 23.003123 2.82408867 22.6660678 3.0057894 22.1258746 3.18749013 21.5856813 2.96295309 20.9923058 2.46915313 20.7077262 2.19098747 20.5486906 1.86098254 20.5068436 1.55192576 20.5914153zM7.04203016 28.3906148C6.57073392 27.9197423 5.80699048 27.9199713 5.33597668 28.3911263 4.86496288 28.8622814 4.86496288 29.6260249 5.33597668 30.0971799 5.80699048 30.5683349 6.57073392 30.5685639 7.04203016 30.0976915 7.26853561 29.8713896 7.39580217 29.5643362 7.39580217 29.2441531 7.39580217 28.92397 7.26853561 28.6169167 7.04203016 28.3906148zM13.9877959 32.4009397C13.3443577 32.2290346 12.6833253 32.6109989 12.5109432 33.2543094 12.3385612 33.8976199 12.7200354 34.5589353 13.363218 34.7317942 14.0064006 34.904653 14.6679985 34.5236691 14.8413341 33.8806148 14.9247374 33.5711985 14.8816218 33.2413133 14.7214977 32.9637256 14.5613736 32.6861381 14.2973968 32.4836547 13.9877959 32.4009397zM22.0122041 32.4029235C21.3777984 32.5788659 21.0047098 33.2342647 21.1772968 33.8695916 21.3498839 34.5049183 22.0033017 34.8814657 22.6395318 34.7122389 23.2757618 34.5430121 23.6557574 33.8915936 23.4898956 33.254478 23.4091189 32.9441949 23.2071921 32.679312 22.9293931 32.5192239 22.6515943 32.3591357 22.3211675 32.3172373 22.0122041 32.4029235zM30.6632714 28.3906148C30.1919944 27.9198431 29.4283552 27.9201162 28.9574149 28.3912248 28.4864747 28.8623335 28.4864747 29.6259728 28.9574149 30.0970814 29.4283552 30.5681901 30.1919944 30.5684631 30.6632714 30.0976915 30.8897769 29.8713896 31.0170434 29.5643362 31.0170434 29.2441531 31.0170434 28.92397 30.8897769 28.6169167 30.6632714 28.3906148zM21.5995824 18.1523317C21.3144431 18.4354872 21.0532135 18.7146751 20.7740255 18.9719374 20.5597987 19.1663827 20.3333249 19.3468922 20.0959977 19.512355 19.7619443 19.7384836 19.3371979 19.7833503 18.9632714 19.632007 18.6680771 19.5411433 18.4554818 19.2830389 18.4228538 18.9759048 18.0240139 19.3048956 17.6490835 19.6878654 17.0727494 19.7137587 17.0269141 19.9311369 16.9787819 20.1544663 16.9311717 20.3777959 16.9043517 20.476006 16.8843619 20.5759548 16.8713457 20.6769257 16.8609048 20.8185034 16.7915777 20.8763457 16.6520882 20.9066242 16.3051392 20.9764733 15.5532947 21.1599188 15.4994199 21.1718213 15.9181671 19.2095012 16.3329467 17.2558469 16.7437587 15.3108585L18.0240139 15.3108585C17.9562529 15.6279467 17.3698956 18.4178422 17.3662413 18.4557424 17.3323085 18.7907889 17.5437355 18.988225 17.8687587 18.8904989 18.0526852 18.8167041 18.2273611 18.7216748 18.3892343 18.6073434 18.4151276 18.5933526 18.423167 18.5415661 18.4309977 18.5056496 18.6517169 17.4660209 18.8717402 16.4270533 19.0910673 15.3887471 19.0953504 15.3618261 19.1033991 15.3356415 19.1149768 15.3109629L20.3710093 15.3109629C20.3032482 15.6320186 19.8764269 17.6860441 19.7288979 18.4019721 19.7172309 18.4590353 19.712533 18.5173036 19.7149072 18.5754989 19.7046989 18.7274675 19.8118001 18.8622485 19.9621462 18.8866357 20.1029244 18.9278241 20.2543038 18.9113339 20.3829118 18.8408004 20.5205064 18.7631977 20.6536603 18.6779722 20.7817518 18.585522 20.9168052 18.4855931 21.0441272 18.3756174 21.1626334 18.2565313 21.2809349 18.1496172 21.4456416 18.1105176 21.5993735 18.1528538L21.5995824 18.1523317z" transform="translate(2 2)"/>
</svg>
