<svg xmlns="http://www.w3.org/2000/svg" width="16" height="16" viewBox="0 0 16 16">
  <g fill="none" fill-rule="evenodd">
    <path fill="#62B543" fill-opacity=".6" d="M15,8 C15,11.866 11.866,15 8,15 C4.134,15 1,11.866 1,8 C1,4.134 4.134,1 8,1 C11.866,1 15,4.134 15,8"/>
    <path fill="#231F20" fill-opacity=".7" d="M1,4.19922879 L1,0.993043294 L0,1 L0,0 L2,0 L2,4.19922879 C2,5 2.5,5.00109536 3.03270173,5.00109536 L3.48714156,5.00109536 L3.48714156,6 L2.69373396,6 C2.11776146,6 1.62695384,5.86118391 1.37617155,5.58354756 C1.12538926,5.30591121 1,4.84447623 1,4.19922879 Z" transform="translate(6 5)"/>
  </g>
</svg>
