<svg xmlns="http://www.w3.org/2000/svg" width="16" height="16" viewBox="0 0 16 16">
  <g fill="none" fill-rule="evenodd">
    <path fill="#62B543" fill-opacity=".6" d="M12.5,8 C12.5,10.485 10.485,12.5 8,12.5 C5.515,12.5 3.5,10.485 3.5,8 C3.5,5.515 5.515,3.5 8,3.5 C10.485,3.5 12.5,5.515 12.5,8"/>
    <path fill="#62B543" fill-opacity=".6" d="M8,13.4648 C4.981,13.4648 2.535,11.0178 2.535,7.9998 C2.535,4.9818 4.981,2.5348 8,2.5348 C11.019,2.5348 13.465,4.9818 13.465,7.9998 C13.465,11.0178 11.019,13.4648 8,13.4648 M8,0.9998 C4.134,0.9998 1,4.1338 1,7.9998 C1,11.8658 4.134,14.9998 8,14.9998 C11.866,14.9998 15,11.8658 15,7.9998 C15,4.1338 11.866,0.9998 8,0.9998"/>
    <path fill="#231F20" fill-opacity=".7" d="M3.15703839,6 C2.33436929,6 1.42394881,5.71480804 0.7,5.13345521 L1.29232176,4.23400366 C1.9285192,4.70566728 2.5976234,4.94698355 3.18994516,4.94698355 C3.76032907,4.94698355 4.08939671,4.70566728 4.08939671,4.32175503 L4.08939671,4.29981718 C4.08939671,3.85009141 3.47513711,3.69652651 2.79506399,3.488117 C1.93948812,3.24680073 0.985191956,2.89579525 0.985191956,1.79890311 L0.985191956,1.77696527 C0.985191956,0.669104205 1.89561243,-1.77635684e-14 3.04734918,-1.77635684e-14 C3.77129799,-1.77635684e-14 4.56106033,0.252285192 5.17531993,0.658135283 L4.6488117,1.60146252 C4.08939671,1.26142596 3.49707495,1.05301645 3.01444241,1.05301645 C2.49890311,1.05301645 2.20274223,1.30530165 2.20274223,1.62340037 L2.20274223,1.64533821 C2.20274223,2.07312614 2.82797075,2.24862888 3.50804388,2.46800731 C4.35265082,2.73126143 5.30694698,3.11517367 5.30694698,4.15722121 L5.30694698,4.17915905 C5.30694698,5.39670932 4.36361974,6 3.15703839,6 Z" transform="translate(5 5)"/>
  </g>
</svg>
