<svg xmlns="http://www.w3.org/2000/svg" width="16" height="16" viewBox="0 0 16 16">
  <g fill="none" fill-rule="evenodd">
    <path fill="#9AA7B0" fill-opacity=".8" d="M7.9846,4 L6.6966,2.711 C6.3046,2.32 5.5326,2 4.9786,2 L1.0506,2 C1.0226,2 1.0006,2.023 1.0006,2.051 L1.0006,13 L4.0006,13 L4.0006,7 L15.0006,7 L15.0006,4 L7.9846,4 Z"/>
    <polygon fill="#62B543" fill-opacity=".6" points="5 16 16 16 16 8 5 8"/>
    <path fill="#231F20" fill-opacity=".7" d="M3.15703839,6 C2.33436929,6 1.42394881,5.71480804 0.7,5.13345521 L1.29232176,4.23400366 C1.9285192,4.70566728 2.5976234,4.94698355 3.18994516,4.94698355 C3.76032907,4.94698355 4.08939671,4.70566728 4.08939671,4.32175503 L4.08939671,4.29981718 C4.08939671,3.85009141 3.47513711,3.69652651 2.79506399,3.488117 C1.93948812,3.24680073 0.985191956,2.89579525 0.985191956,1.79890311 L0.985191956,1.77696527 C0.985191956,0.669104205 1.89561243,-1.77635684e-14 3.04734918,-1.77635684e-14 C3.77129799,-1.77635684e-14 4.56106033,0.252285192 5.17531993,0.658135283 L4.6488117,1.60146252 C4.08939671,1.26142596 3.49707495,1.05301645 3.01444241,1.05301645 C2.49890311,1.05301645 2.20274223,1.30530165 2.20274223,1.62340037 L2.20274223,1.64533821 C2.20274223,2.07312614 2.82797075,2.24862888 3.50804388,2.46800731 C4.35265082,2.73126143 5.30694698,3.11517367 5.30694698,4.15722121 L5.30694698,4.17915905 C5.30694698,5.39670932 4.36361974,6 3.15703839,6 Z" transform="translate(6 9)"/>
  </g>
</svg>
