<svg xmlns="http://www.w3.org/2000/svg" width="16" height="16" viewBox="0 0 16 16"><rect id="frame" width="16" height="16" fill="none"/><g fill="none" fill-rule="evenodd"><path fill="#62B543" fill-opacity=".7" d="M1 16h15V9H1z"/><path fill="#9AA7B0" fill-opacity=".8" d="M7 1L3 5h4z"/><path fill="#9AA7B0" fill-opacity=".8" d="M8 1v5H3v2h10V1z"/><path fill="#1B1B1B" d="M2.207 11.041v-.747h.845v.747h-.845zm-.175 5.018c-.157 0-.26-.012-.384-.032v-.63c.078.012.15.019.221.019.221 0 .364-.117.364-.416v-3.432h.793v3.478c0 .695-.357 1.014-.994 1.014zm3.009-.988c-.644 0-1.222-.37-1.222-1.059v-.013c0-.741.585-1.105 1.423-1.105.384 0 .657.059.923.143v-.085c0-.487-.298-.747-.851-.747-.383 0-.67.085-.982.214l-.214-.617a2.98 2.98 0 0 1 1.3-.28c.513 0 .897.137 1.138.384.253.247.37.611.37 1.06V15h-.767v-.429c-.234.28-.591.5-1.118.5zm.221-.572c.52 0 .917-.299.917-.734v-.234a2.18 2.18 0 0 0-.78-.136c-.508 0-.806.214-.806.572v.012c0 .332.292.52.669.52zm3.824.572c-.806 0-1.593-.643-1.593-1.78v-.014c0-1.137.774-1.78 1.592-1.78.566 0 .923.279 1.17.604v-1.846h.787V15h-.787v-.572c-.253.357-.61.643-1.17.643zm.188-.682c.527 0 .995-.442.995-1.098v-.014c0-.662-.469-1.098-.995-1.098-.54 0-.988.422-.988 1.098v.014c0 .662.455 1.098.988 1.098zm4.029.689c-.995 0-1.762-.721-1.762-1.781v-.013c0-.982.696-1.788 1.678-1.788 1.091 0 1.644.858 1.644 1.846 0 .072-.006.143-.013.221h-2.522c.085.56.481.871.988.871.383 0 .656-.143.93-.409l.461.41c-.325.39-.774.643-1.404.643zm-.982-2.034h1.762c-.052-.508-.351-.904-.871-.904-.481 0-.819.37-.89.903z"/></g></svg>