<svg xmlns="http://www.w3.org/2000/svg" width="16" height="16" viewBox="0 0 16 16"><rect id="frame" width="16" height="16" fill="none"/><g fill="none" fill-rule="evenodd"><path fill="#EFCCA3" d="M12.656 6.702c-.022-.477.043-.9-.174-1.259-.52-.89-1.823-1.41-4.428-1.41v.076H8h.054v-.076c-2.604 0-3.972.52-4.493 1.421-.206.37-.184.782-.217 1.26-.022.379-.195.78-.12 1.215.088.564.12 1.128.207 1.65.065.423.651.78.705 1.182.152 1.107 1.303 1.617 3.907 1.617v.087h-.065.076v-.087c2.605 0 3.712-.51 3.853-1.617.054-.412.597-.76.662-1.183.087-.52.12-1.085.206-1.65.076-.433-.097-.846-.12-1.226z"/><path fill="#CCAC8D" d="M8.01 7.093c.468.01.793.304 1.097.575.358.315.966.532 1.215.803.25.272.576.543.695.966.12.423.152.966.152 1.107 0 .141.076.109.293 0 .51-.25 1.074-.922 1.074-.922-.065.423-.618.803-.672 1.204-.13 1.107-1.205 1.64-3.864 1.64h-.01.064"/><path fill="#CCAC8D" d="M9.726 6.247c.097.336.445 1.475-.228 1.096 0 0 .282.162.455.781.185.619.63.695.63.695s.727.14 1.27-.326c.456-.39.531-1.085.336-1.617-.195-.521-.542-.684-1.053-.792-.51-.12-1.53-.217-1.41.163z"/><g transform="translate(10.008 6.496)"><circle cx="1.009" cy=".988" r="1" fill="#000"/><circle cx=".76" cy=".564" r="1" fill="#FFF"/></g><path fill="#EFCCA3" d="M9.563 7.44s.857.586 1.324 1.162c.466.575.456.683.456.683l-.337.152s-.477-.9-1.063-1.237c-.597-.336-.662-.619-.662-.619l.282-.14z"/><path fill="#CCAC8D" d="M8.043 7.093c-.466.01-.814.304-1.128.575-.358.315-.988.532-1.237.803-.25.272-.587.543-.706.966-.12.423-.163.966-.163 1.107 0 .141.022.152-.293 0-.51-.239-1.074-.922-1.074-.922.065.423.618.803.673 1.204.152 1.107 1.226 1.64 3.885 1.64h.054"/><path fill="#56332B" d="M10.561 8.927c-.52-.64-1.356-1.237-2.518-1.237h-.01c-1.162 0-1.997.597-2.518 1.237-.543.662-.5.923-.5 1.552 0 2.28.804 1.628 1.335 1.91.543.271 1.107.185 1.683.185h.01c.586 0 1.14.076 1.683-.196.531-.271 1.334.402 1.334-1.877.011-.63.044-.912-.499-1.574z"/><path fill="#442823" d="M7.99 8.254s-.077 1.053-.229 1.26l.282-.066-.054-1.194z"/><path fill="#442823" d="M8.065 8.254s.076 1.053.228 1.26l-.282-.066.054-1.194z"/><path fill="#56332B" d="M7.153 8.005c-.108-.25.283-.652.901-.662.619 0 1.01.401.901.662-.108.26-.5.336-.9.347-.391-.01-.793-.087-.902-.347z"/><path fill="#000" d="M8.054 8.254c0-.043.37-.054.565-.184 0 0-.402.13-.489.076-.087-.044-.108-.174-.108-.174s-.033.13-.098.174c-.076.043-.532-.076-.532-.076S8 8.222 8 8.254c0 .033-.01.141-.01.217 0 .272 0 .945.043.999.065.097.043-.727.043-.999-.01-.087-.01-.173-.022-.217z"/><path fill="#7F4A41" d="M8.076 9.709c.184 0 .51.13.803.336-.282-.315-.619-.532-.803-.532-.195 0-.608.239-.9.586.303-.239.694-.39.9-.39z"/><path fill="#442823" d="M8 11.63c-.412 0-.814-.13-1.183-.228-.076-.022-.152.032-.228.01-.684-.217-1.237-.586-1.573-1.052v.108c0 2.28.803 1.639 1.334 1.91.543.272 1.107.185 1.683.185h.01c.586 0 1.14.076 1.683-.196.531-.27 1.334.391 1.334-1.888 0-.087 0-.174.011-.25-.314.51-.89.912-1.606 1.15-.065.023-.217-.032-.282-.02-.39.13-.738.27-1.183.27z"/><path fill="#442823" d="M6.969 10.403s-.271.814-.087 1.172l-.25-.108s.185-.825.337-1.064zm2.149 0s.271.814.087 1.172l.25-.108s-.196-.825-.337-1.064z"/><path fill="#CCAC8D" d="M6.274 6.247c-.097.336-.445 1.475.228 1.096 0 0-.282.162-.455.781-.174.619-.63.695-.63.695s-.727.14-1.27-.326c-.456-.39-.531-1.085-.336-1.617s.542-.684 1.053-.792c.51-.12 1.519-.217 1.41.163z"/><path fill="#000" d="M8.043 9.513c.293 0 1.205.63 1.216 1.4v-.043c0-.803-.738-1.444-1.216-1.444-.477 0-1.215.652-1.215 1.444v.043c.01-.77.922-1.4 1.215-1.4z"/><g fill="#331712" transform="translate(7.62 7.581)"><circle cx=".815" cy=".5" r="1" transform="rotate(-14.46 .815 .5)"/><circle cx=".198" cy=".501" r="1" transform="rotate(17.235 .198 .501)"/></g><g transform="translate(4.039 6.496)"><circle cx=".998" cy=".988" r="1" fill="#000"/><circle cx="1.248" cy=".564" r="1" fill="#FFF"/></g><path fill="#7F4A41" d="M8.326 7.495c0-.011-.25.108-.315.119-.065-.01-.315-.13-.315-.12h.63z"/><path fill="#EFCCA3" d="M6.426 7.44s-.857.586-1.324 1.162c-.466.575-.455.683-.455.683l.336.152s.477-.9 1.064-1.237c.586-.336.662-.619.662-.619l-.283-.14z"/><path fill="#CCAC8D" d="M4.549 5.704s-.293.803-.944 1.14c0 0 1.02-.12.944-1.14zm6.848 0s.293.803.944 1.14c0 0-1.02-.12-.944-1.14zM9.54 7.202s-.64-.673-1.498-.695h.011.011c-.868.022-1.498.695-1.498.695.75-.521 1.39-.51 1.498-.51-.01 0 .727-.011 1.476.51zM8.792 5.79s-.325-.456-.76-.467h.022c-.325.01-.749.467-.749.467.37-.358.75-.348.75-.348s.357-.01.737.348zM5.037 9.122s-.51.25-.879.098h-.01c-.326-.184-.49-.738-.49-.738s.326.977 1.38.64zm5.947 0s.51.25.88.098c.434-.184.499-.738.499-.738s-.326.977-1.379.64z"/><path fill="#CCAC8D" d="M5.623 5.65c.282-.055.75-.066 1.118.054.467.163.087.76.185.792.097.033.227-.412 1.096-.369.879.044.976.434 1.096.37.12-.066-.12-1.086 1.194-.847 0 0-1.379-.37-1.314.63 0 0-.792-.609-1.899-.066.011 0 .293-.933-1.476-.564zm4.808 0c.022 0 .033.01.043.01.011 0-.01-.01-.043-.01zM5.243 4.315S4.071 5.79 3.898 6.355c-.174.575-.304 2.93-.456 3.267l-.543-2.323.999-2.42 1.345-.564zm5.514 0s1.172 1.476 1.345 2.04c.174.575.304 2.93.456 3.267l.543-2.323-.999-2.42-1.345-.564z"/><path fill="#56332B" d="M10.702 4.315s1.26 1.052 1.628 2.268c.37 1.215.217 2.691.5 2.876.401.26.857-1.292 1.009-1.454.239-.26 1.03-.923 1.085-1.042.054-.12-1.606-1.932-2.333-2.29-.88-.413-1.965-.445-1.889-.358z"/><path fill="#442823" d="M11.777 4.966s1.487 1.9 1.465 4.265l.597-1.215c-.011 0-.532-1.552-2.062-3.05z"/><path fill="#56332B" d="M5.243 4.315S3.984 5.367 3.616 6.583c-.37 1.215-.218 2.691-.5 2.876-.401.26-.857-1.292-1.009-1.454-.239-.26-1.031-.923-1.085-1.042-.055-.12 1.606-1.932 2.333-2.29.88-.413 1.964-.445 1.888-.358z"/><path fill="#442823" d="M4.169 4.966s-1.487 1.9-1.465 4.265l-.586-1.215s.52-1.552 2.051-3.05z"/><path fill="#CCAC8D" d="M3.366 9.274s.108.586.282.771c.174.184.054-.141.054-.141s-.184-.098-.152-.847c.033-.748-.184.217-.184.217zm9.257 0s-.108.586-.282.771c-.174.184-.054-.141-.054-.141s.184-.098.152-.847c-.033-.748.184.217.184.217z"/><g fill="#442823" transform="translate(6.1 8.667)"><ellipse cx=".833" cy=".188" rx="1" ry="1"/><ellipse cx=".322" cy=".787" rx="1" ry="1"/><ellipse cx=".156" cy=".188" rx="1" ry="1"/></g><g fill="#442823" transform="translate(8.922 8.667)"><circle cx=".125" cy=".188" r="1"/><circle cx=".7" cy=".787" r="1"/><circle cx=".887" cy=".188" r="1"/></g></g></svg>