<svg xmlns="http://www.w3.org/2000/svg" width="16" height="16" viewBox="0 0 16 16"><rect id="frame" width="16" height="16" fill="none"/><g fill="none" fill-rule="evenodd"><path fill="#F98B9E" fill-opacity=".7" d="M5.98 3.49A2.49 2.49 0 1 1 1 3.49a2.49 2.49 0 0 1 4.979 0"/><path fill="#62B543" fill-opacity=".7" d="M6.433 5.365A3.472 3.472 0 0 0 6.98 3.49a3.48 3.48 0 0 0-.954-2.399c2.223-.405 4.595.56 6.51 2.476 1.378 1.378 2.265 2.994 2.501 4.622A4.98 4.98 0 0 0 11.8 7a4.977 4.977 0 0 0-2.845.887L6.433 5.365zm-5.341.66c.625.591 1.47.954 2.399.954.69 0 1.332-.2 1.873-.545l2.492 2.492A4.978 4.978 0 0 0 6.8 12c0 1.11.361 2.134.973 2.964-1.486-.317-2.946-1.167-4.207-2.428C1.65 10.62.686 8.249 1.092 6.024z"/><path fill="#9AA7B0" d="M14.704 12.579l.91.653a3.996 3.996 0 0 1-.835 1.445l-1.02-.46a2.95 2.95 0 0 1-1.006.582l-.111 1.114a4.016 4.016 0 0 1-1.67 0l-.111-1.114a2.95 2.95 0 0 1-1.006-.582l-1.02.46A3.996 3.996 0 0 1 8 13.232l.91-.653a2.968 2.968 0 0 1 0-1.158L8 10.768a3.996 3.996 0 0 1 .835-1.445l1.02.46a2.95 2.95 0 0 1 1.006-.582l.11-1.114a4.016 4.016 0 0 1 1.67 0l.112 1.114a2.95 2.95 0 0 1 1.006.582l1.02-.46c.372.413.66.904.835 1.445l-.91.653a2.968 2.968 0 0 1 0 1.158zm-2.897.837a1.415 1.415 0 1 0 0-2.831 1.415 1.415 0 0 0 0 2.83z"/></g></svg>