<svg xmlns="http://www.w3.org/2000/svg" xmlns:xlink="http://www.w3.org/1999/xlink" width="16" height="16" viewBox="0 0 16 16">
  <defs>
    <path id="implicitbean-a" d="M13.5,10 C13.2238576,10 13,10.3118017 13,10.6964286 L13,13.3035714 C13,13.6881983 13.2238576,14 13.5,14 C13.7761424,14 14,13.6881983 14,13.3035714 L14,10.6964286 C14,10.3118017 13.7761424,10 13.5,10 Z M13.5,9 C14.3284271,9 15,9.67157288 15,10.5 L15,13 C15,13.8284271 14.3284271,14.5 13.5,14.5 C12.6715729,14.5 12,13.8284271 12,13 L12,10.5 C12,9.67157288 12.6715729,9 13.5,9 Z"/>
  </defs>
  <g fill="none" fill-rule="evenodd">
    <path fill="#62B543" fill-opacity=".7" d="M11.0531105,9.9849596 L3.39029168,2.32289104 C6.21244656,0.050665696 9.83028394,0.861455325 12.5345972,3.56677327 C14.0184198,5.05059445 14.9323645,6.8099474 15.0792233,8.56184545 C14.6486945,8.21062431 14.0989442,8 13.5,8 C12.2958406,8 11.2905227,8.8513413 11.0531105,9.9849596 Z M10,15.0239909 C7.79858622,15.3942652 5.45831086,14.4285846 3.56554326,12.5358188 C0.862237158,9.83251523 0.0504395713,6.21468126 2.32266706,3.39252903 L10,11.0698547 L10,15.0239909 Z"/>
    <rect width="5" height="4" x="11" y="12" fill="#9AA7B0"/>
    <use fill="#9AA7B0" xlink:href="#implicitbean-a"/>
  </g>
</svg>
