<svg xmlns="http://www.w3.org/2000/svg" xmlns:xlink="http://www.w3.org/1999/xlink" width="16" height="16" viewBox="0 0 16 16"><rect id="frame" width="16" height="16" fill="none"/><defs><path id="a" d="M13.5 10c-.276 0-.5.312-.5.696v2.608c0 .384.224.696.5.696s.5-.312.5-.696v-2.608c0-.384-.224-.696-.5-.696zm0-1a1.5 1.5 0 0 1 1.5 1.5V13a1.5 1.5 0 0 1-3 0v-2.5A1.5 1.5 0 0 1 13.5 9z"/></defs><g fill="none" fill-rule="evenodd"><path fill="#62B543" fill-opacity=".7" d="M11.053 9.985L3.39 2.323C6.212.05 9.83.86 12.535 3.567c1.483 1.484 2.397 3.243 2.544 4.995a2.5 2.5 0 0 0-4.026 1.423zM10 15.024c-2.201.37-4.542-.595-6.434-2.488C.862 9.833.05 6.215 2.323 3.393L10 11.07v3.954z"/><path fill="#9AA7B0" d="M11 12h5v4h-5z"/><use fill="#9AA7B0" xlink:href="#a"/></g></svg>