<svg xmlns="http://www.w3.org/2000/svg" width="16" height="16" viewBox="0 0 16 16"><rect id="frame" width="16" height="16" fill="none"/><g fill="none" fill-rule="evenodd"><path fill="#62B543" fill-opacity=".7" d="M4 5.758l7.303 7.303c-2 1.612-4.566 1.038-6.483-.881a7.243 7.243 0 0 1-.82-.974V5.758zm8 6.482L4.697 4.94c2-1.613 4.565-1.038 6.484.881.309.309.583.635.819.973v5.447z"/><path fill="#9AA7B0" d="M3 11.814H1V6h2z"/><path fill="#9AA7B0" d="M15 11.814h-2V6h2z"/><path fill="#9AA7B0" d="M3 8.998C3.002 5.143 4.146 2 7.997 2 11.854 2 12.998 5.143 13 8.998h1C13.998 4.592 13 1 7.997 1 3.595 1 2.002 4.592 2 8.998h1z"/></g></svg>