<svg xmlns="http://www.w3.org/2000/svg" width="16" height="16" viewBox="0 0 16 16">
  <g fill="none" fill-rule="evenodd">
    <polygon fill="#9AA7B0" points="7.463 11.463 9.463 11.463 9.463 17.463 12.463 17.463 12.463 11.463 14.463 11.463 10.963 7.536" transform="rotate(90 10.963 12.5)"/>
    <path fill="#62B543" fill-opacity=".7" d="M14.9010697,10.0578335 L12.5005,7.99970827 L11.0005,7.99970827 L11.0000153,9.93891815 L3.374385,2.31337127 C6.17670521,0.0570731685 9.7676884,0.863227246 12.4521758,3.54768532 C14.3660203,5.46234056 15.3257704,7.83713819 14.9010697,10.0578335 Z M5,13.6630398 C4.49506387,13.3191844 4.00828257,12.9141396 3.54821752,12.4538796 C0.863730092,9.76942149 0.0564005393,6.17731092 2.31388997,3.37502135 L8.93894105,10 L5,10 L5,13.6630398 Z"/>
  </g>
</svg>
