<svg xmlns="http://www.w3.org/2000/svg" width="16" height="16" viewBox="0 0 16 16">
  <g fill="none" fill-rule="evenodd">
    <path fill="#F26522" fill-opacity=".7" d="M8.6621,15.9687 C7.5361,15.3587 7.3001,14.5307 7.3001,13.9427 C7.3001,12.2697 8.04707006,10.6938432 11.4201,10.3007 C14,10 13.7841,9.3647 14.4061,8.9997 L1.0001,8.9997 L1.0001,15.9997 L8.7201,15.9997 L8.6621,15.9687 Z"/>
    <polygon fill="#9AA7B0" fill-opacity=".8" points="7 1 3 5 7 5"/>
    <polygon fill="#9AA7B0" fill-opacity=".8" points="8 1 8 5 8 6 7 6 3 6 3 8 13 8 13 1"/>
    <polygon fill="#231F20" fill-opacity=".7" points="3 12.991 3 12.009 6 10 6 11.045 3.753 12.491 6 13.946 6 15"/>
    <path fill="#62B543" fill-opacity=".7" d="M15.3250988,14.8772067 C14.1360745,16.4601609 11.5978525,15.9290035 9.96981283,16.0026293 C9.96981283,16.0026293 9.68161765,16.0189906 9.39108418,16.0669057 C9.39108418,16.0669057 9.50098417,16.0201592 9.64128202,15.9716597 C10.784125,15.5766516 11.3248563,15.4971825 12.0199152,15.1401559 C13.3246853,14.4716806 14.6241941,13.0161107 14.8878372,11.5038607 C14.3909489,12.9588462 12.8798241,14.2104844 11.5043206,14.7176842 C10.5619867,15.0647771 8.85853691,15.4036894 8.85853691,15.4042738 L8.78955713,15.3674609 C7.63093069,14.8041653 7.5987791,12.2967986 9.70207776,11.4886681 C10.6245361,11.1339788 11.5066589,11.3291456 12.5033582,11.0913226 C13.5666991,10.8388914 14.7978127,10.0395258 15.2982084,9 C15.8599844,10.6641762 16.5339987,13.2673733 15.3250988,14.8772067 Z"/>
  </g>
</svg>
