<svg xmlns="http://www.w3.org/2000/svg" width="16" height="16" viewBox="0 0 16 16"><rect id="frame" width="16" height="16" fill="none"/><path fill="#62B543" fill-opacity=".7" fill-rule="evenodd" d="M13.819 12.285c-2.08 2.77-6.523 1.84-9.372 1.97 0 0-.504.028-1.013.112 0 0 .193-.082.438-.167 2-.69 2.946-.83 4.163-1.455 2.283-1.17 4.557-3.717 5.019-6.363-.87 2.546-3.514 4.736-5.921 5.624-1.65.607-4.63 1.2-4.63 1.201l-.121-.064C.354 12.157.298 7.77 3.979 6.355c1.614-.62 3.158-.279 4.902-.695 1.86-.442 4.015-1.84 4.89-3.66.984 2.912 2.163 7.468.048 10.285z"/></svg>