<svg xmlns="http://www.w3.org/2000/svg" width="16" height="16" viewBox="0 0 16 16"><rect id="frame" width="16" height="16" fill="none"/><g fill="none" fill-rule="evenodd"><path fill="#F4AF3D" fill-opacity=".6" d="M11.62 10.3c1.328-.121 2.448-.656 3.36-1.606.007-.132.02-.562.02-.694a7 7 0 0 0-7-7 7 7 0 0 0-7 7c0 3.724 2.91 6.76 6.58 6.978a2.034 2.034 0 0 1-.28-1.036c0-1.673.915-3.332 4.32-3.642z"/><path fill="#62B543" fill-opacity=".7" d="M15.325 14.877c-1.189 1.583-3.727 1.052-5.355 1.126 0 0-.288.016-.579.064 0 0 .11-.047.25-.095 1.143-.395 1.684-.475 2.379-.832 1.305-.668 2.604-2.124 2.868-3.636-.497 1.455-2.008 2.706-3.384 3.214-.942.347-2.645.686-2.645.686l-.07-.037c-1.158-.563-1.19-3.07.913-3.878.923-.355 1.805-.16 2.801-.398 1.064-.252 2.295-1.051 2.795-2.091.562 1.664 1.236 4.267.027 5.877z"/><path fill="#231F20" fill-opacity=".7" d="M6.997 7.802c0 1.034.242 2.075 1.538 2.075C9.832 9.877 10 8.464 10 7.792c0-.686-.098-2.046-1.476-2.046-1.377 0-1.527 1.023-1.527 2.056zM7 10c.008.074.007 1.074-.003 3H6V5h.997v.746C7.367 5.25 7.94 5 8.717 5 9.88 5 11 5.578 11 7.802s-1.345 2.821-2.284 2.821c-.625 0-1.197-.208-1.716-.623z"/></g></svg>