<svg xmlns="http://www.w3.org/2000/svg" width="13" height="13" viewBox="0 0 13 13"><rect id="frame" width="13" height="13" fill="none"/><path fill="#AFB1B3" d="M11.543 9.038c-1.788 2.38-5.605 1.581-8.053 1.692 0 0-.434.025-.87.097 0 0 .165-.07.376-.143 1.718-.594 2.531-.714 3.576-1.25 1.963-1.006 3.917-3.195 4.313-5.469-.747 2.188-3.02 4.07-5.088 4.833C4.38 9.32 1.82 9.83 1.82 9.83l-.104-.055c-1.742-.847-1.79-4.617 1.372-5.833 1.387-.533 2.714-.24 4.212-.597 1.6-.38 3.45-1.582 4.203-3.145.845 2.503 1.859 6.417.04 8.838z"/></svg>