<svg xmlns="http://www.w3.org/2000/svg" width="16" height="16" viewBox="0 0 16 16"><rect id="frame" width="16" height="16" fill="none"/><g fill="none" fill-rule="evenodd"><path fill="#62B543" fill-opacity=".7" d="M7.37 14.297c-1.047-.023-2.058-.082-2.923-.042 0 0-.504.028-1.013.112 0 0 .193-.082.438-.167 1.399-.483 2.282-.696 3.103-.995.091.382.225.748.396 1.092zm5.567-7.385c.047-.176.086-.353.117-.53-.06.173-.127.345-.202.515a5.176 5.176 0 0 0-6.017 5.213c-1.685.57-4.333 1.097-4.333 1.097l-.12-.064C.354 12.157.298 7.77 3.979 6.355c1.614-.62 3.158-.279 4.902-.695 1.86-.442 4.015-1.84 4.89-3.66.545 1.611 1.149 3.725 1.222 5.77a5.158 5.158 0 0 0-2.056-.858z"/><path fill="#9AA7B0" d="M12 8c-2.208 0-4 1.792-4 4s1.792 4 4 4 4-1.792 4-4-1.792-4-4-4zm-.4 7.172A3.195 3.195 0 0 1 8.8 12c0-.248.032-.484.084-.716L10.8 13.2v.4c0 .44.36.8.8.8v.772zm2.76-1.016a.794.794 0 0 0-.76-.556h-.4v-1.2c0-.22-.18-.4-.4-.4h-2.4v-.8h.8c.22 0 .4-.18.4-.4V10h.8c.44 0 .8-.36.8-.8v-.164c1.172.476 2 1.624 2 2.964 0 .832-.32 1.588-.84 2.156z"/></g></svg>