<svg xmlns="http://www.w3.org/2000/svg" width="16" height="16" viewBox="0 0 16 16"><rect id="frame" width="16" height="16" fill="none"/><g fill="none" fill-rule="evenodd"><path fill="#62B543" fill-opacity=".7" d="M9.333 11.93c.054-.04.108-.08.162-.122l.083.063c-.082.019-.163.039-.245.06zm-2.827 1.436c-.246.267-.416.564-.48.892a21.921 21.921 0 0 0-1.579-.003s-.504.028-1.013.112c0 0 .193-.082.438-.167 1.138-.393 1.934-.607 2.634-.834zm7.497-1.343a10.222 10.222 0 0 0-.58-.152 3.25 3.25 0 0 0-.37-5.477 5.996 5.996 0 0 0-.003-.001 3.25 3.25 0 0 0-4.18 4.767 10.21 10.21 0 0 1-1.737.846c-1.65.607-4.63 1.2-4.63 1.201l-.121-.064C.354 12.157.298 7.77 3.979 6.355c1.614-.62 3.158-.279 4.902-.695 1.86-.442 4.015-1.84 4.89-3.66.954 2.824 2.092 7.192.232 10.023z"/><path fill="#9AA7B0" d="M11.5 11.5a2.25 2.25 0 1 0 .001-4.499A2.25 2.25 0 0 0 11.5 11.5zm0 1.125c-1.502 0-4.5.754-4.5 2.25V16h9v-1.125c0-1.496-2.998-2.25-4.5-2.25z"/></g></svg>