<svg xmlns="http://www.w3.org/2000/svg" width="16" height="16" viewBox="0 0 16 16"><rect id="frame" width="16" height="16" fill="none"/><g fill="none" fill-rule="evenodd"><path fill="#40B6E0" fill-opacity=".6" d="M12 16a4 4 0 1 1 0-8 4 4 0 0 1 0 8z"/><path fill="#62B543" fill-opacity=".7" d="M8.896 7.872L3.44 2.36C6.204.113 9.747.915 12.395 3.591c1.192 1.205 2.009 2.594 2.343 4.01a5.163 5.163 0 0 0-2.724-.77 5.164 5.164 0 0 0-3.118 1.04zm-1.2 6.988c-1.442-.32-2.858-1.156-4.084-2.394C.965 9.79.17 6.212 2.395 3.419l5.452 5.51A5.142 5.142 0 0 0 6.834 12c0 1.057.317 2.04.863 2.86z"/><path fill="#231F20" fill-opacity=".7" d="M13.333 12.855c-.313.306-.648.464-1.266.478-.693.015-1.4-.48-1.4-1.333 0-.858.647-1.333 1.4-1.333.565 0 .965.123 1.2.37l.41-.48C13.22 10.18 12.86 10 12.065 10 10.893 10 10 10.906 10 12c0 1.122.91 2 2.001 2 .86 0 1.348-.271 1.743-.68l-.41-.465z"/></g></svg>