<svg xmlns="http://www.w3.org/2000/svg" width="16" height="16" viewBox="0 0 16 16">
  <g fill="none" fill-rule="evenodd">
    <path fill="#40B6E0" fill-opacity=".6" d="M12,16 C9.79085714,16 8,14.2091429 8,12 C8,9.79085714 9.79085714,8 12,8 C14.2091429,8 16,9.79085714 16,12 C16,14.2091429 14.2091429,16 12,16 Z"/>
    <path fill="#62B543" fill-opacity=".7" d="M8.89551037,7.8719207 L3.44065234,2.36100945 C6.20419936,0.112887319 9.74690489,0.915076289 12.3950575,3.59169688 C13.5873331,4.79634088 14.4038707,6.18453618 14.7379771,7.60159343 C13.9466547,7.11249568 13.0135651,6.83016418 12.0144122,6.83016418 C10.8434131,6.83016418 9.76315616,7.21796483 8.89551037,7.8719207 Z M7.69680451,14.8601359 C6.25437241,14.5407457 4.83756103,13.7036085 3.61226447,12.4656009 C0.965098087,9.79097338 0.170159152,6.21151651 2.39519915,3.41930099 L7.84747436,8.92813705 C7.21045775,9.78728592 6.83377749,10.8503823 6.83377749,12.0012956 C6.83377749,13.0582997 7.15149486,14.0412331 7.69680451,14.8601359 Z"/>
    <path fill="#231F20" fill-opacity=".7" d="M3.33333333,2.85502116 C3.02,3.16102116 2.68533333,3.31866667 2.06666667,3.33333333 C1.374,3.348 0.666666667,2.85293333 0.666666667,2.00026667 C0.666666667,1.1416 1.314,0.666666667 2.06666667,0.666666667 C2.63222114,0.666666667 3.03222114,0.789835612 3.26666667,1.0361735 L3.67746667,0.557820638 C3.21959993,0.180116797 2.85884603,0.000266666667 2.06546667,0.000266666667 C0.893466667,0.000266666667 0.000133333333,0.9056 0.000133333333,2.00026667 C0.000133333333,3.1216 0.909466667,4.00026667 2.00146667,4.00026667 C2.86189779,4.00026667 3.3488,3.72893333 3.74413333,3.32093333 C3.47026667,3.01032522 3.33333333,2.85502116 3.33333333,2.85502116 Z" transform="translate(10 10)"/>
  </g>
</svg>
