<svg xmlns="http://www.w3.org/2000/svg" width="16" height="16" viewBox="0 0 16 16">
  <g id="issueGroupCategory_dark" fill="none" fill-rule="evenodd" stroke="none" stroke-width="1">
    <path id="Fill-2" fill="#AFB1B3" d="M10,2 L8,4 L2,4 L2,7.76 C2.307,7.555 2.646,7.401 3,7.275 L3,6 L14,6 L14,13 L8.725,13 C8.599,13.354 8.445,13.693 8.24,14 L15,14 L15,2 L10,2 Z"/>
    <path id="Fill-4" fill="#3592C4" d="M4.9004,12.2002 L4.0994,12.2002 L3.9004,10.0002 L4.0004,9.0002 L5.0004,9.0002 L5.0994,10.0002 L4.9004,12.2002 Z M4.0004,14.0002 L5.0004,14.0002 L5.0004,13.0002 L4.0004,13.0002 L4.0004,14.0002 Z M4.5004,8.0002 C2.5674,8.0002 1.0004,9.5672 1.0004,11.5002 C1.0004,13.4322 2.5674,15.0002 4.5004,15.0002 C6.4324,15.0002 8.0004,13.4322 8.0004,11.5002 C8.0004,9.5672 6.4324,8.0002 4.5004,8.0002 L4.5004,8.0002 Z"/>
  </g>
</svg>
