<svg xmlns="http://www.w3.org/2000/svg" width="16" height="16" viewBox="0 0 16 16">
  <g id="issueGroupType_dark" fill="none" fill-rule="evenodd" stroke="none" stroke-width="1">
    <path id="Fill-2" fill="#3592C4" d="M4,14 L5,14 L5,13 L4,13 L4,14 Z M4.9,12.2 L4.1,12.2 L3.9,10 L4,9 L5,9 L5.1,10 L4.9,12.2 Z M4.5,15 C2.567,15 1,13.433 1,11.5 C1,9.567 2.567,8 4.5,8 C6.433,8 8,9.567 8,11.5 C8,13.433 6.433,15 4.5,15 L4.5,15 Z M4.5,7 C2.015,7 0,9.015 0,11.5 C0,13.985 2.015,16 4.5,16 C6.985,16 9,13.985 9,11.5 C9,9.015 6.985,7 4.5,7 L4.5,7 Z"/>
    <path id="Fill-4" fill="#AFB1B3" d="M10,2 L8,4 L2,4 L2,7.195 C2.313,7.013 2.647,6.867 3,6.755 L3,6 L14,6 L14,13 L9.244,13 C9.133,13.352 8.987,13.686 8.805,14 L15,14 L15,2 L10,2 Z"/>
  </g>
</svg>
