<svg xmlns="http://www.w3.org/2000/svg" width="16" height="16" viewBox="0 0 16 16">
  <g id="TargetFramework_dark" fill="none" fill-rule="evenodd" stroke="none" stroke-width="1">
    <path id="Fill-2" fill="#AFB1B3" d="M14,3.7461 L13.393,3.8221 C13.307,4.1781 13.165,4.5121 12.979,4.8161 L13.938,6.0471 C13.68,6.3811 13.381,6.6781 13.048,6.9361 L11.816,5.9781 C11.512,6.1641 11.179,6.3071 10.822,6.3921 L10.63,7.9351 C10.421,7.9621 10.216,8.0001 10,8.0001 C9.784,8.0001 9.579,7.9621 9.37,7.9351 L9.178,6.3921 C8.821,6.3071 8.488,6.1641 8.184,5.9781 L6.952,6.9361 C6.619,6.6781 6.32,6.3811 6.063,6.0471 L7.021,4.8161 C6.835,4.5121 6.693,4.1781 6.607,3.8221 L5.063,3.6291 C5.037,3.4201 5,3.2151 5,3.0001 C5,2.7831 5.037,2.5781 5.063,2.3691 L6.607,2.1781 C6.622,2.1161 6.647,2.0601 6.666,2.0001 L8.277,2.0001 C8.105,2.2951 8,2.6341 8,3.0001 C8,4.1031 8.895,5.0001 10,5.0001 C11.105,5.0001 12,4.1031 12,3.0001 C12,2.6341 11.895,2.2951 11.723,2.0001 L13.334,2.0001 C13.353,2.0601 13.378,2.1161 13.393,2.1781 L14,2.2531 L14,3.7461 Z M10.937,13.6311 L9.393,13.8221 C9.378,13.8841 9.353,13.9391 9.334,14.0001 L7.723,14.0001 C7.895,13.7051 8,13.3661 8,13.0001 C8,11.8961 7.105,11.0001 6,11.0001 C4.895,11.0001 4,11.8961 4,13.0001 C4,13.3661 4.105,13.7051 4.277,14.0001 L2.666,14.0001 C2.647,13.9391 2.622,13.8841 2.607,13.8221 L2,13.7471 L2,12.2541 L2.607,12.1781 C2.693,11.8221 2.835,11.4881 3.021,11.1831 L2.062,9.9531 C2.32,9.6191 2.619,9.3221 2.952,9.0631 L4.184,10.0211 C4.488,9.8361 4.821,9.6931 5.178,9.6071 L5.37,8.0641 C5.579,8.0381 5.784,8.0001 6,8.0001 C6.216,8.0001 6.421,8.0381 6.63,8.0641 L6.822,9.6071 C7.179,9.6931 7.512,9.8361 7.816,10.0211 L9.048,9.0631 C9.381,9.3221 9.68,9.6191 9.938,9.9531 L8.979,11.1831 C9.165,11.4881 9.307,11.8221 9.393,12.1781 L10.937,12.3711 C10.963,12.5801 11,12.7851 11,13.0001 C11,13.2171 10.963,13.4221 10.937,13.6311 L10.937,13.6311 Z M5,13.0001 C5,12.4481 5.447,12.0001 6,12.0001 C6.553,12.0001 7,12.4481 7,13.0001 C7,13.5531 6.553,14.0001 6,14.0001 C5.447,14.0001 5,13.5531 5,13.0001 L5,13.0001 Z M11,3.0001 C11,3.5521 10.553,4.0001 10,4.0001 C9.447,4.0001 9,3.5521 9,3.0001 C9,2.4471 9.447,2.0001 10,2.0001 C10.553,2.0001 11,2.4471 11,3.0001 L11,3.0001 Z M1,15.0001 L15,15.0001 L15,1.0001 L1,1.0001 L1,15.0001 Z"/>
  </g>
</svg>
