<svg width="80" height="80" viewBox="0 0 80 80" fill="none" xmlns="http://www.w3.org/2000/svg">
<g clip-path="url(#clip0)">
<path d="M48.3913 12.6522L16.1304 0L0 52L14.087 80L28.0435 52.6522L48.3913 12.6522Z" fill="url(#paint0_linear)"/>
<path d="M14.087 80.0001H53.3478L36.4783 48.8262L0 52.0001L14.087 80.0001Z" fill="url(#paint1_linear)"/>
<path d="M22.6522 57.826L53.3478 79.9999L63.3913 52.826L29.4783 19.6956L0 24.6956L22.6522 57.826Z" fill="url(#paint2_linear)"/>
<path d="M49.435 0L24.8698 24.6087L56.8263 57.2609L80.0002 40.9565V10.7826L49.435 0Z" fill="url(#paint3_linear)"/>
<path d="M65 15H15V65H65V15Z" fill="url(#paint4_linear)"/>
<path d="M39.9 55.5H21.2V58.6H39.9V55.5Z" fill="white"/>
<path d="M21 22H28.1925C33.927 22 37.9121 25.985 37.9121 31.1364V31.2336C37.9121 36.385 33.927 40.37 28.1925 40.37H21V22ZM24.985 25.5962V36.6766H28.0953C31.3999 36.6766 33.6355 34.4411 33.6355 31.2336V31.1364C33.6355 27.9289 31.3999 25.5962 28.0953 25.5962H24.985Z" fill="white"/>
<path d="M40.5 22H54.3528V25.6138H44.4149V29.5287H53.1482V33.1425H44.4149V40.37H40.5V22Z" fill="white"/>
</g>
<defs>
<linearGradient id="paint0_linear" x1="13.6437" y1="60.3612" x2="29.2319" y2="15.1298" gradientUnits="userSpaceOnUse">
<stop offset="0.1054" stop-color="#AF1DF5"/>
<stop offset="0.8768" stop-color="#087CFA"/>
</linearGradient>
<linearGradient id="paint1_linear" x1="3.53544" y1="67.398" x2="137.485" y2="57.7196" gradientUnits="userSpaceOnUse">
<stop offset="0.033675" stop-color="#AF1DF5"/>
<stop offset="0.8682" stop-color="#E86656"/>
<stop offset="0.989" stop-color="#FC801D"/>
</linearGradient>
<linearGradient id="paint2_linear" x1="79.0397" y1="94.7722" x2="-13.4371" y2="-6.50122" gradientUnits="userSpaceOnUse">
<stop offset="0.0209183" stop-color="#AF1DF5"/>
<stop offset="0.989" stop-color="#FC801D"/>
</linearGradient>
<linearGradient id="paint3_linear" x1="15.4157" y1="64.6702" x2="77.1235" y2="9.35695" gradientUnits="userSpaceOnUse">
<stop offset="0.1425" stop-color="#AF1DF5"/>
<stop offset="0.9112" stop-color="#FC801D"/>
</linearGradient>
<linearGradient id="paint4_linear" x1="39.9989" y1="2.84554" x2="39.9989" y2="47.6855" gradientUnits="userSpaceOnUse">
<stop offset="0.0842986" stop-color="#878585"/>
<stop offset="0.5377"/>
</linearGradient>
<clipPath id="clip0">
<rect width="80" height="80" fill="white"/>
</clipPath>
</defs>
</svg>
