<svg xmlns="http://www.w3.org/2000/svg" width="16" height="16" viewBox="0 0 16 16"><rect id="frame" width="16" height="16" fill="none"/><g fill="none" fill-rule="evenodd"><path fill="#486661" fill-rule="nonzero" d="M1 1h14v14H1z"/><path fill="#EDF5F2" d="M3.693 6.614L2 2.065h1.169l1.027 3.059 1.112-3.072h.935l1.112 3.072 1.027-3.059h1.141L7.83 6.614h-.95L5.761 3.659 4.642 6.614z"/><path fill="#A0B1B0" d="M9.432 6.582v-.787l2.016-1.233c.752-.465 1.046-.71 1.046-1.084 0-.38-.337-.587-.813-.587-.467 0-.787.193-1.237.606l-.934-.561C10.107 2.329 10.687 2 11.768 2c1.254 0 2.084.549 2.084 1.394v.013c0 .755-.519 1.13-1.591 1.749l-.986.568h2.638v.858h-4.48z"/><path fill="#EDF5F2" d="M7.89 9.068h1.282l1.293 1.956 1.316-1.956h1.355l-2.083 2.93v1.942H9.861v-1.92l-.51-.723c-.497 1.181-2.712 1.181-3.675 1.181h-.814v1.462H3.79V9.068h4.1zm-3.028 2.457h.849c.536 0 2.655.168 2.655-.738s-2.14-.751-2.676-.751h-.828v1.489z"/></g></svg>