<svg width="32" height="32" viewBox="0 0 32 32" fill="none" xmlns="http://www.w3.org/2000/svg"><rect id="frame" width="32" height="32" fill="none"/><path d="M32 12.467L9.567 0 24.6 22.333l3.067-2.033L32 12.467z" fill="url(#paint0_linear)"/><path d="M23.067 7.367L20.233.5l-6.2 6.133 2.534 22.2L22.6 32l9.4-5.5-8.933-19.133z" fill="url(#paint1_linear)"/><path d="M9.567 0L0 6.433l3.567 22 9.166 3.5 11.867-9.6L9.567 0z" fill="url(#paint2_linear)"/><path d="M26 6H6v20h20V6z" fill="url(#paint3_linear)"/><path d="M16 23H8v1h8v-1z" fill="#fff"/><path d="M8.035 8h3.607c1.016 0 1.751.28 2.312.806.455.455.665 1.05.665 1.786v.035c0 .63-.14 1.155-.455 1.576-.315.385-.736.7-1.226.875l1.926 2.802h-2.03l-1.647-2.417H9.751v2.417H8V8h.035zm3.502 3.817c.42 0 .77-.105.98-.315.246-.21.351-.49.351-.805v-.035c0-.386-.105-.666-.35-.84-.245-.176-.56-.281-1.016-.281H9.786v2.276h1.751z" fill="#fff"/><path d="M16 8h2.97c2.4 0 4.114 1.714 4.114 3.885s-1.714 3.885-4.113 3.885H16V8zm1.714 1.714v4.57h1.371c1.371 0 2.285-.914 2.285-2.285 0-1.37-.914-2.285-2.285-2.285h-1.371z" fill="#fff"/><defs><linearGradient id="paint0_linear" x1="29.943" y1="18.332" x2="5.276" y2="4.177" gradientUnits="userSpaceOnUse"><stop offset="0" stop-color="#DD1265"/><stop offset=".483" stop-color="#DD1265"/><stop offset=".942" stop-color="#FDB60D"/></linearGradient><linearGradient id="paint1_linear" x1="15.276" y1="2.794" x2="25.054" y2="29.794" gradientUnits="userSpaceOnUse"><stop offset=".139" stop-color="#087CFA"/><stop offset=".476" stop-color="#DD1265"/><stop offset=".958" stop-color="#087CFA"/></linearGradient><linearGradient id="paint2_linear" x1="7.952" y1="3.627" x2="15.174" y2="29.294" gradientUnits="userSpaceOnUse"><stop offset=".278" stop-color="#DD1265"/><stop offset=".968" stop-color="#FDB60D"/></linearGradient><linearGradient id="paint3_linear" x1="15.973" y1="1.139" x2="15.973" y2="19.075" gradientUnits="userSpaceOnUse"><stop offset=".084" stop-color="#878585"/><stop offset=".538"/></linearGradient></defs></svg>