<svg width="70" height="70" viewBox="0 0 70 70" fill="none" xmlns="http://www.w3.org/2000/svg"><rect id="frame" width="70" height="70" fill="none"/><path d="M70 27.27L20.927 0l32.886 48.854 6.708-4.448 9.48-17.135z" fill="url(#paint0_linear)"/><path d="M50.458 16.115L44.26 1.094 30.698 14.51l5.542 48.563L49.437 70 70 57.969 50.458 16.115z" fill="url(#paint1_linear)"/><path d="M20.927 0L0 14.073l7.802 48.125 20.052 7.656 25.959-21L20.926 0z" fill="url(#paint2_linear)"/><path d="M56 14H14v42h42V14z" fill="#010101"/><path d="M34.417 48.65h-15.75v2.683h15.75V48.65z" fill="#fff"/><path d="M35.5 19.25h6.183c5.017 0 8.4 3.354 8.4 7.75 0 4.395-3.383 7.864-8.4 7.864l-6.183.116V19.25zm3.5 3.123v9.484h2.683c2.8 0 4.784-1.85 4.784-4.626 0-2.776-1.867-4.743-4.784-4.743L39 22.373z" fill="#fff"/><path d="M19.34 19.25h7.2c2.028 0 3.496.56 4.615 1.608.909.909 1.328 2.097 1.328 3.565v.07c0 1.259-.28 2.307-.909 3.146a5.636 5.636 0 0 1-2.447 1.748l3.846 5.593h-4.055l-3.286-4.824h-2.866v4.824H19.27V19.25h.07zm6.991 7.62c.839 0 1.538-.21 1.958-.629.489-.42.699-.979.699-1.608v-.07c0-.769-.21-1.328-.7-1.678-.489-.35-1.118-.559-2.027-.559h-3.425v4.544h3.495z" fill="#fff"/><defs><linearGradient id="paint0_linear" x1="65.5" y1="40.101" x2="11.542" y2="9.137" gradientUnits="userSpaceOnUse"><stop offset="0" stop-color="#DD1265"/><stop offset=".483" stop-color="#DD1265"/><stop offset=".942" stop-color="#FDB60D"/></linearGradient><linearGradient id="paint1_linear" x1="33.416" y1="6.112" x2="54.805" y2="65.175" gradientUnits="userSpaceOnUse"><stop offset=".139" stop-color="#087CFA"/><stop offset=".476" stop-color="#DD1265"/><stop offset=".958" stop-color="#087CFA"/></linearGradient><linearGradient id="paint2_linear" x1="17.395" y1="7.934" x2="33.194" y2="64.079" gradientUnits="userSpaceOnUse"><stop offset=".278" stop-color="#DD1265"/><stop offset=".968" stop-color="#FDB60D"/></linearGradient></defs></svg>