<svg width="80" height="80" viewBox="0 0 80 80" fill="none" xmlns="http://www.w3.org/2000/svg"><rect id="frame" width="80" height="80" fill="none"/><g clip-path="url(#clip0)"><path d="M80 31.167L23.917 0 61.5 55.833l7.667-5.083L80 31.167z" fill="url(#paint0_linear)"/><path d="M57.667 18.417L50.583 1.25l-15.5 15.333 6.334 55.5L56.5 80 80 66.25 57.667 18.417z" fill="url(#paint1_linear)"/><path d="M23.917 0L0 16.083l8.917 55 22.916 8.75 29.667-24L23.917 0z" fill="url(#paint2_linear)"/><path d="M65 15H15v50h50V15z" fill="url(#paint3_linear)"/><path d="M39.9 55.5H21.2v3.1h18.7v-3.1z" fill="#fff"/><path d="M21.282 21.62h8.409c2.368 0 4.082.653 5.389 1.878 1.06 1.061 1.55 2.45 1.55 4.164v.081c0 1.47-.326 2.695-1.06 3.674a6.583 6.583 0 0 1-2.858 2.041l4.49 6.532h-4.735l-3.837-5.634h-3.348v5.634H21.2V21.62h.082zm8.164 8.9c.98 0 1.796-.246 2.286-.736.572-.49.817-1.143.817-1.877v-.082c0-.898-.245-1.551-.817-1.96-.571-.408-1.306-.653-2.367-.653h-4.001v5.307h4.082z" fill="#fff"/><path d="M39.7 21.62h7.192c5.735 0 9.72 3.985 9.72 9.136v.098c0 5.151-3.985 9.136-9.72 9.136H39.7V21.62zm3.985 3.596v11.08h3.11c3.305 0 5.54-2.235 5.54-5.442v-.098c0-3.207-2.235-5.54-5.54-5.54h-3.11z" fill="#fff"/></g><defs><linearGradient id="paint0_linear" x1="74.857" y1="45.83" x2="13.191" y2="10.442" gradientUnits="userSpaceOnUse"><stop offset="0" stop-color="#DD1265"/><stop offset=".483" stop-color="#DD1265"/><stop offset=".942" stop-color="#FDB60D"/></linearGradient><linearGradient id="paint1_linear" x1="38.189" y1="6.986" x2="62.634" y2="74.486" gradientUnits="userSpaceOnUse"><stop offset=".139" stop-color="#087CFA"/><stop offset=".476" stop-color="#DD1265"/><stop offset=".958" stop-color="#087CFA"/></linearGradient><linearGradient id="paint2_linear" x1="19.88" y1="9.067" x2="37.936" y2="73.234" gradientUnits="userSpaceOnUse"><stop offset=".278" stop-color="#DD1265"/><stop offset=".968" stop-color="#FDB60D"/></linearGradient><linearGradient id="paint3_linear" x1="39.999" y1="2.846" x2="39.999" y2="47.685" gradientUnits="userSpaceOnUse"><stop offset=".084" stop-color="#878585"/><stop offset=".538"/></linearGradient><clipPath id="clip0"><path d="M0 0h80v80H0V0z" fill="#fff"/></clipPath></defs></svg>