<svg ti:v="1" width="16" height="16" viewBox="0 0 16 16" xmlns="http://www.w3.org/2000/svg" xmlns:ti="urn:schemas-jetbrains-com:tisvg"><rect id="frame" width="16" height="16" fill="none"/><linearGradient id="a" x1=".5" y1="0" x2=".5" y2=".997"><stop offset="0" stop-color="#7C6E48"/><stop offset="1" stop-color="#60492F"/></linearGradient><path fill-rule="evenodd" d="M5 13V1h6.414L15 4.586V13H5z" fill="url(#a)"/><linearGradient id="b" x1=".5" y1="-.003" x2=".5" y2="1.001"><stop offset="0" stop-color="#E2D8BC"/><stop offset="1" stop-color="#E2CDB3"/></linearGradient><path fill-rule="evenodd" d="M11 2H6v10h8V5l-3-3z" fill="url(#b)"/><linearGradient id="c" x1=".5" y1="-.001" x2=".5" y2="1.008"><stop offset="0" stop-color="#FFF2D4"/><stop offset="1" stop-color="#FFF"/></linearGradient><path fill-rule="evenodd" d="M12 10H8V4h2v2h2v4z" fill="url(#c)"/><linearGradient id="d" x1=".5" y1="0" x2=".5" y2="1.005"><stop offset="0" stop-color="#566980"/><stop offset="1" stop-color="#2D3642"/></linearGradient><path fill-rule="evenodd" d="M11 15H1V7h10v8z" fill="url(#d)"/><linearGradient id="e" x1="0" y1=".5" x2="1" y2=".5"><stop offset="0" stop-color="#FFF"/><stop offset="1" stop-color="#A7BADB"/></linearGradient><path fill-rule="evenodd" d="M2 14h8v-4H2v4z" fill="url(#e)"/><linearGradient id="f" x1=".5" y1=".008" x2=".5" y2="1"><stop offset="0" stop-color="#FFF"/><stop offset="1" stop-color="#A7BADB"/></linearGradient><path fill-rule="evenodd" d="M9 13H3v-3h6v3z" fill="url(#f)"/><linearGradient id="g" x1="0" y1=".5" x2="1" y2=".5"><stop offset="0" stop-color="#6E97E6"/><stop offset="1" stop-color="#2F62C8"/></linearGradient><path fill-rule="evenodd" d="M10 10H2V8h8v2z" fill="url(#g)"/></svg>