<svg ti:v="1" width="16" height="16" viewBox="0 0 16 16" xmlns="http://www.w3.org/2000/svg" xmlns:ti="urn:schemas-jetbrains-com:tisvg"><rect id="frame" width="16" height="16" fill="none"/><linearGradient id="a" x1="-.381" y1="1.105" x2="1.14" y2=".099"><stop offset="0" stop-color="#E243E6"/><stop offset=".016" stop-color="#E243E6"/><stop offset=".404" stop-color="#C30A54"/><stop offset=".468" stop-color="#C30A54"/><stop offset=".65" stop-color="#EB841A"/><stop offset=".952" stop-color="#FFBC00"/><stop offset="1" stop-color="#FFBC00"/></linearGradient><path fill-rule="evenodd" d="M11.413 3.467l-3.2 4.906L13.333 16 16 5.28l-4.587-1.813z" fill="url(#a)"/><linearGradient id="b" x1="-.03" y1="1.046" x2="1.284" y2=".259"><stop offset="0" stop-color="#E243E6"/><stop offset=".016" stop-color="#E243E6"/><stop offset=".404" stop-color="#C30A54"/><stop offset=".468" stop-color="#C30A54"/><stop offset=".704" stop-color="#EB841A"/><stop offset="1" stop-color="#EB841A"/></linearGradient><path fill-rule="evenodd" d="M11.68 3.573L11.2 0 4.32 7.68l1.973 1.973L4.747 16h8.586L11.68 3.573z" fill="url(#b)"/><linearGradient id="c" x1=".033" y1="1.134" x2=".88" y2=".196"><stop offset="0" stop-color="#E243E6"/><stop offset=".016" stop-color="#E243E6"/><stop offset=".661" stop-color="#C30A54"/><stop offset="1" stop-color="#C30A54"/></linearGradient><path fill-rule="evenodd" d="M11.2 0H2.667L0 10.773h12.693L11.2 0z" fill="url(#c)"/><linearGradient id="d" x1=".6" y1="-.246" x2=".524" y2=".509"><stop offset="0" stop-color="#C30A54"/><stop offset=".5" stop-color="#C30A54"/><stop offset=".615" stop-color="#CC2548"/><stop offset=".777" stop-color="#D74738"/><stop offset=".866" stop-color="#DB5233"/><stop offset="1" stop-color="#DB5233"/></linearGradient><path fill-rule="evenodd" d="M12.64 10.773l-.96-7.2L11.2 0 9.547 5.227l3.093 5.546z" fill="url(#d)"/><path fill-rule="evenodd" d="M14 14H2V2h12v12z" fill="#2D2D34"/><path fill-rule="evenodd" d="M10.412 6.063l.185-1.103H9.555L9.37 6.063m-1.111.853h-.542v-.904h.721l.182-1.084h-.602v-.904h.783L8.982 3h.963l-.18 1.024h1.025L10.97 3h.963l-.18 1.024h.543v.904h-.723l-.182 1.084h.604v.904h-.783L11.03 8h-.964l.18-1.084H9.225L9.043 8h-.964M5.266 5.45c.245 0 .49-.061.613-.183a.781.781 0 0 0 .245-.552c0-.245-.061-.429-.245-.551-.184-.123-.368-.184-.673-.184H4.103v1.47M2.999 3h2.347c.617 0 1.173.185 1.482.494.307.308.432.679.432 1.173 0 .432-.125.74-.31.987-.184.247-.493.432-.802.556L7.382 8H6.087l-1.05-1.543h-.925V8H2.999V3z" fill="#FFF"/><path fill-rule="evenodd" d="M3 11h5v1H3v-1z" fill="#FFF"/></svg>