<svg xmlns="http://www.w3.org/2000/svg" width="16" height="16" viewBox="0 0 16 16">
  <g fill="none" fill-rule="evenodd">
    <path fill="#40B6E0" fill-opacity=".7" d="M12.778452,6.14935976 C12.3682044,6.05170047 11.9401398,6 11.5,6 C10.5997766,6 9.75006781,6.21627867 9,6.59970959 L9,3.00002 L12.778452,6.14935976 Z"/>
    <polygon fill="#40B6E0" fill-opacity=".7" points="2 3 2 12.999 8 8.001"/>
    <path fill="#B99BF8" fill-opacity=".6" d="M16,11.5 C16,13.9852857 13.9852857,16 11.5,16 C9.01471429,16 7,13.9852857 7,11.5 C7,9.01471429 9.01471429,7 11.5,7 C13.9852857,7 16,9.01471429 16,11.5"/>
    <path fill="#231F20" fill-opacity=".7" d="M0.972767969,1.50152588 C0.972767969,1.13305664 1.284,1 1.845,1 C1.85033333,1 2.23533333,1 3,1 L3,0 C2.26266667,0 1.88266667,0 1.86,0 C0.778,0 0,0.45916748 0,1.45 C0,2.31452637 0.419555664,2.69049072 1.47125244,2.91607666 C2.24158869,3.08131157 2.496155,3.22862939 2.496155,3.548 C2.496155,3.86737061 2.13842773,4 1.47125244,4 C1.46058577,4 1.07016829,4 0.3,4 L0.3,5 C1.07550163,5 1.46591911,5 1.47125244,5 C3.5,5 3.5,4 3.5,3.548 C3.5,2.91607666 3.02026367,2.42071533 2.15869141,2.14685059 C1.29711914,1.87298584 0.972767969,1.86999512 0.972767969,1.50152588 Z" transform="translate(9.9 9)"/>
  </g>
</svg>
