<svg xmlns="http://www.w3.org/2000/svg" width="16" height="16" viewBox="0 0 16 16">
  <g fill="none" fill-rule="evenodd">
    <path fill="#40B6E0" fill-opacity=".7" d="M12.778452,6.14935976 C12.3682044,6.05170047 11.9401398,6 11.5,6 C10.5997766,6 9.75006781,6.21627867 9,6.59970959 L9,3.00002 L12.778452,6.14935976 Z"/>
    <polygon fill="#40B6E0" fill-opacity=".7" points="2 3 2 12.999 8 8.001"/>
    <path fill="#40B6E0" fill-opacity=".6" d="M16,11.5 C16,13.9852857 13.9852857,16 11.5,16 C9.01471429,16 7,13.9852857 7,11.5 C7,9.01471429 9.01471429,7 11.5,7 C13.9852857,7 16,9.01471429 16,11.5"/>
    <polygon fill="#231F20" fill-opacity=".7" points="1 1.001 3 1.001 3 0 0 0 0 5 1 5 1 3 2.8 3 2.8 2 1 2" transform="translate(10 9)"/>
  </g>
</svg>
