<svg xmlns="http://www.w3.org/2000/svg" width="12" height="12" viewBox="0 0 12 12"><rect id="frame" width="12" height="12" fill="none"/><g fill="none" fill-rule="evenodd"><path fill="#C75450" d="M10 3h2L9.5 0 7 3h2v9h1V3z"/><circle cx="4" cy="6" r="4" fill="#B99BF8" fill-opacity=".6"/><path fill="#231F20" fill-opacity=".7" d="M3.478 5.201c0-.295.299-.301.598-.301H5V4h-.912C3.222 4 2.6 4.367 2.6 5.16c0 .692.336 1.092 1.177 1.273.616.132.72.15.72.405 0 .256-.186.262-.72.262H2.84V8h.937C5.4 8 5.4 7.2 5.4 6.838c0-.505-.384-.901-1.073-1.12-.69-.22-.849-.222-.849-.517z"/></g></svg>