<svg xmlns="http://www.w3.org/2000/svg" width="12" height="12" viewBox="0 0 12 12">
  <g fill="none" fill-rule="evenodd">
    <circle cx="4" cy="6" r="4" fill="#B99BF8" fill-opacity=".6"/>
    <path fill="#DB5860" d="M10,9 L12,9 L9.5,12 L7,9 L9,9 L9,0 L10,0 L10,9 Z" transform="matrix(1 0 0 -1 0 12)"/>
    <path fill="#231F20" fill-opacity=".7" d="M0.878214,1.2012207 C0.878214,0.906445312 1.17700195,0.9 1.476,0.9 C1.48026667,0.9 1.78826667,0.9 2.4,0.9 L2.4,0 C1.81013333,0 1.50613333,0 1.488,0 C0.6224,0 0,0.367333984 0,1.16 C0,1.85162109 0.335644531,2.25239225 1.17700195,2.432861 C1.79327095,2.56504893 1.896924,2.58290352 1.896924,2.8384 C1.896924,3.09389648 1.71074219,3.1 1.17700195,3.1 C1.16846862,3.1 0.856134635,3.1 0.24,3.1 L0.24,4 C0.860401302,4 1.17273529,4 1.17700195,4 C2.8,4 2.8,3.2 2.8,2.8384 C2.8,2.33286133 2.41621094,1.93657227 1.72695313,1.71748047 C1.03769531,1.49838867 0.878214,1.49599609 0.878214,1.2012207 Z" transform="translate(2.6 4)"/>
  </g>
</svg>
