<svg width="80" height="80" viewBox="0 0 80 80" fill="none" xmlns="http://www.w3.org/2000/svg">
<path d="M75 5H5V75H75V5Z" fill="url(#paint0_linear)"/>
<path d="M65 15H15V65H65V15Z" fill="url(#paint1_linear)"/>
<path d="M20.8929 21.2499H28.3929C32.8571 21.2499 35.5357 23.9285 35.5357 27.6785C35.5357 31.9642 32.1429 34.2857 28.0357 34.2857H25V39.8214H20.8929V21.2499ZM28.2143 30.7142C30.1786 30.7142 31.4286 29.4642 31.4286 27.8571C31.4286 26.0714 30.1786 24.9999 28.0357 24.9999H24.8214V30.7142H28.2143Z" fill="white"/>
<path d="M38.2143 30.5359C38.2143 25.1787 42.1429 20.893 48.0358 20.893C51.6072 20.893 53.7501 22.143 55.3572 23.7501L52.6786 26.7859C51.2501 25.5359 49.8215 24.643 47.8572 24.643C44.6429 24.643 42.5001 27.3216 42.5001 30.5359C42.5001 33.7501 44.6429 36.4287 47.8572 36.4287C50.0001 36.4287 51.2501 35.5359 52.6786 34.2859L55.3572 36.9644C53.3929 39.1073 51.2501 40.3573 47.6786 40.3573C42.3215 40.1787 38.2143 35.893 38.2143 30.5359Z" fill="white"/>
<path d="M39.9 55.5H21.2V58.6H39.9V55.5Z" fill="white"/>
<defs>
<linearGradient id="paint0_linear" x1="73.9823" y1="74.0252" x2="-13.1979" y2="-13.1553" gradientUnits="userSpaceOnUse">
<stop offset="0.482" stop-color="#FCF84A"/>
<stop offset="0.7258" stop-color="#21D789"/>
</linearGradient>
<linearGradient id="paint1_linear" x1="39.9989" y1="2.84554" x2="39.9989" y2="47.6855" gradientUnits="userSpaceOnUse">
<stop offset="0.0842986" stop-color="#878585"/>
<stop offset="0.5377"/>
</linearGradient>
</defs>
</svg>
