<svg width="70" height="70" viewBox="0 0 70 70" fill="none" xmlns="http://www.w3.org/2000/svg">
<path d="M64 6H6V64H64V6Z" fill="url(#paint0_linear)"/>
<path d="M56 14H14V56H56V14Z" fill="url(#paint1_linear)"/>
<path d="M19.1333 19.1334H25.55C29.2833 19.1334 31.6167 21.3501 31.6167 24.6168C31.6167 28.2334 28.8167 30.1001 25.2 30.1001H22.5167V34.7668H19.0167V19.1334H19.1333ZM25.3167 27.1834C27.0667 27.1834 28 26.0168 28 24.7334C28 23.2168 26.95 22.4001 25.2 22.4001H22.5167V27.1834H25.3167Z" fill="white"/>
<path d="M33.6001 27.0667C33.6001 22.6334 36.8667 18.9 41.7667 18.9C44.8001 18.9 46.4334 19.8334 48.0667 21.2334L45.9667 23.8C44.8001 22.6334 43.6334 21.9334 42.0001 21.9334C39.4334 21.9334 37.3334 24.0334 37.3334 26.8334C37.3334 29.6334 39.2001 31.7334 42.0001 31.7334C43.8667 31.7334 44.8001 31.0334 46.2001 29.8667L48.3001 32.2C46.4334 34.0667 44.5667 35 41.5334 35C36.8667 35 33.6001 31.5 33.6001 27.0667Z" fill="white"/>
<path d="M34.4167 48.65H18.6667V51.3334H34.4167V48.65Z" fill="white"/>
<defs>
<linearGradient id="paint0_linear" x1="63.1568" y1="63.1923" x2="-9.07825" y2="-9.04295" gradientUnits="userSpaceOnUse">
<stop offset="0.482" stop-color="#FCF84A"/>
<stop offset="0.7258" stop-color="#21D789"/>
</linearGradient>
<linearGradient id="paint1_linear" x1="34.944" y1="3.7919" x2="34.944" y2="41.4575" gradientUnits="userSpaceOnUse">
<stop offset="0.0842986" stop-color="#878585"/>
<stop offset="0.5377"/>
</linearGradient>
</defs>
</svg>
