<svg xmlns="http://www.w3.org/2000/svg" width="16" height="16" viewBox="0 0 16 16"><rect id="frame" width="16" height="16" fill="none"/><path fill="#f4f4f4" d="M2 15V1h7.414L14 5.586V15H2z"/><path fill="#323232" d="M9 2H3v12h10V6L9 2z"/><path fill="#ebebeb" d="M9 6V4H5v8h6V6H9z"/><g fill-rule="evenodd"><path fill="#f4f4f4" d="M2 15v-2H0V9h2V7h4v2h1v4H6v2H2z"/><path fill="#a04898" d="M7 10H5V8H3v2H1v2h2v2h2v-2h2v-2z"/><path fill="#f4f4f4" d="M8 16v-2H6v-4h2V8h4v2h2v4h-2v2H8z"/><path fill="#a04898" d="M13 11h-2V9H9v2H7v2h2v2h2v-2h2v-2z"/></g></svg>