<svg xmlns="http://www.w3.org/2000/svg" width="16" height="16" viewBox="0 0 16 16"><rect id="frame" width="16" height="16" fill="none"/><path fill="#252525" d="M2 15V1h7.414L14 5.586V15H2z"/><path fill="#c4c4c4" d="M9 2H3v12h10V6L9 2z"/><path fill="#292929" d="M9 6V4H5v8h6V6H9z"/><g><path d="M7.819 9.347A3.22 3.22 0 0 0 7 9.463V7H3v5H1.25A1.253 1.253 0 0 0 0 13.25v1.5A1.253 1.253 0 0 0 1.25 16H10v-4c0-1.956-1.127-2.653-2.181-2.653z" fill="#252525" fill-rule="evenodd"/><path d="M9 12v3H7v-3c0-1-1 0-1 0v3H4V8h2v3s3-2 3 1z" fill="#be72b6" fill-rule="evenodd"/><rect x="1" y="13" width="2" height="2" rx=".75" ry=".75" fill="#be72b6"/></g></svg>