<svg xmlns="http://www.w3.org/2000/svg" width="16" height="16" viewBox="0 0 16 16"><rect id="frame" width="16" height="16" fill="none"/><path fill="#252525" d="M2 15V1h7.414L14 5.586V15H2z"/><path fill="#c4c4c4" d="M9 2H3v12h10V6L9 2z"/><path fill="#292929" d="M9 6V4H5v8h6V6H9z"/><g><path d="M2.5 16A2.754 2.754 0 0 1 0 13v-1a2.754 2.754 0 0 1 2.5-3H10v1h1v5h-1v1z" fill="#252525"/><path d="M2 12.5C2 14.016 3 14 3 14h1v1H2.5c-.828 0-1.5-.9-1.5-2v-1c0-1.1.672-2 1.5-2H4v1H3s-1-.016-1 1.5zm8-.5v-1H9v-1H8v1H7v-1H6v1H5v1h1v1H5v1h1v1h1v-1h1v1h1v-1h1v-1H9v-1zm-2 1H7v-1h1z" fill="#86d086"/></g><g><path d="M3.15 9C1.384 9 0 7.243 0 5V4a4 4 0 0 1 4-4h1a3.957 3.957 0 0 1 4 4 2.976 2.976 0 0 1-1 2.273V9z" fill="#252525"/><path d="M1 4v1c0 1.657.963 3 2.15 3H7V7H2.7a.7.7 0 0 1-.7-.7V2.7a.7.7 0 0 1 .7-.7h3.6a.7.7 0 0 1 .7.7V4c0 .3-.516 1-1 1V3.7a.7.7 0 0 0-.7-.7h-.8a1.5 1.5 0 0 0 0 3H6a1.94 1.94 0 0 0 2-2 2.961 2.961 0 0 0-3-3H4a3 3 0 0 0-3 3zm4 1H4V4h1z" fill="#c674d3"/></g></svg>