<svg xmlns="http://www.w3.org/2000/svg" width="16" height="16" viewBox="0 0 16 16"><rect id="frame" width="16" height="16" fill="none"/><path fill="#252525" d="M2 15V1h7.414L14 5.586V15H2z"/><path fill="#c4c4c4" d="M9 2H3v12h10V6L9 2z"/><path fill="#292929" d="M9 6V4H5v8h6V6H9z"/><g><path d="M3.15 16C1.384 16 0 14.243 0 12v-1a4 4 0 0 1 4-4h1a3.957 3.957 0 0 1 4 4 2.976 2.976 0 0 1-1 2.273V16z" fill="#252525"/><path d="M1 11v1c0 1.657.963 3 2.15 3H7v-1H2.7a.7.7 0 0 1-.7-.7V9.7a.7.7 0 0 1 .7-.7h3.6a.7.7 0 0 1 .7.7V11c0 .3-.516 1-1 1v-1.3a.7.7 0 0 0-.7-.7h-.8a1.5 1.5 0 0 0 0 3H6a1.94 1.94 0 0 0 2-2 2.961 2.961 0 0 0-3-3H4a3 3 0 0 0-3 3zm4 1H4v-1h1z" fill="#c674d3"/></g></svg>