<svg ti:v="1" width="16" height="16" viewBox="0 0 16 16" xmlns="http://www.w3.org/2000/svg" xmlns:ti="urn:schemas-jetbrains-com:tisvg"><rect id="frame" width="16" height="16" fill="none"/><path d="M11.087 14l.642-1.413a12.223 12.223 0 0 0 1.271-5 13.388 13.388 0 0 0-1.271-5.174L11.087 1h2.542l.299.339A9.015 9.015 0 0 1 16 7.5a9.032 9.032 0 0 1-2.07 6.161l-.3.339zm-8.718 0l-.299-.339A9.032 9.032 0 0 1 0 7.5c-.1-2.24.64-4.437 2.072-6.161l.3-.339h2.541l-.642 1.413A13.36 13.36 0 0 0 3 7.568a12.252 12.252 0 0 0 1.271 5.019L4.913 14zm0 0" fill="#F4F4F4"/><path d="M2.821 13A8.038 8.038 0 0 1 1 7.5 8.03 8.03 0 0 1 2.822 2h.54A14.167 14.167 0 0 0 2 7.568 13.493 13.493 0 0 0 3.361 13zm10.358 0A8.038 8.038 0 0 0 15 7.5 8.03 8.03 0 0 0 13.178 2h-.54A14.265 14.265 0 0 1 14 7.588 13.398 13.398 0 0 1 12.639 13zm0 0" fill="#323232"/><path d="M7.766 14L12 11.58V8.934l-.302-.181L12 8.58V5.934l-.302-.181L12 5.58V2.934L8.777 1h-.542L4 3.42v2.646l.302.181L4 6.42v2.646l.302.181L4 9.42v2.646L7.222 14h.544z" fill="#F4F4F4"/><path d="M10.703 9.322L11 9.5V11l-3.5 2L5 11.5V10l.285-.163 2.202 1.322zM7.487 8.159L5.285 6.837 5 7v1.5L7.5 10 11 8V6.5l-.297-.179zM8.5 2L5 4v1.5L7.5 7 11 5V3.5zm0 0" fill="#323232"/><path d="M5.989 4.011l2.505-1.432 1.517.91-2.505 1.432-1.517-.91z" fill="#EBEBEB"/></svg>