<svg ti:v="1" width="16" height="16" viewBox="0 0 16 16" xmlns="http://www.w3.org/2000/svg" xmlns:ti="urn:schemas-jetbrains-com:tisvg"><rect id="frame" width="16" height="16" fill="none"/><linearGradient id="a" x1=".5" y1=".003" x2=".5" y2="1.003"><stop offset="0" stop-color="#7C6D47"/><stop offset="1" stop-color="#60492F"/></linearGradient><path fill-rule="evenodd" d="M2 15V1h7.414L14 5.586V15H2z" fill="url(#a)"/><linearGradient id="b" x1=".5" y1=".004" x2=".5" y2="1"><stop offset="0" stop-color="#E3D8BC"/><stop offset="1" stop-color="#E3CDB3"/></linearGradient><path fill-rule="evenodd" d="M9 2H3v12h10V6L9 2z" fill="url(#b)"/><linearGradient id="c" x1=".5" y1=".012" x2=".5" y2="1.006"><stop offset="0" stop-color="#FFF3D4"/><stop offset="1" stop-color="#FFF"/></linearGradient><path fill-rule="evenodd" d="M9 6V4H5v8h6V6H9z" fill="url(#c)"/><linearGradient id="d" x1=".5" y1=".007" x2=".5" y2="1.007"><stop offset="0" stop-color="#1F4E1C"/><stop offset="1" stop-color="#348531"/></linearGradient><path fill-rule="evenodd" d="M2.5 9C1.098 9 0 10.317 0 12v1c0 1.682 1.098 3 2.5 3H10v-1h1v-5h-1V9H2.5z" fill="url(#d)"/><linearGradient id="e" x1=".5" y1=".03" x2=".5" y2="1.02"><stop offset="0" stop-color="#D3FFD1"/><stop offset="1" stop-color="#8DE889"/></linearGradient><path fill-rule="evenodd" d="M8 10v1H7v-1H6v1H5v1h1v1H5v1h1v1h1v-1h1v1h1v-1h1v-1H9v-1h1v-1H9v-1m-2 2h1v1H7m-4.5-3c-.828 0-1.5.896-1.5 2v1c0 1.104.672 2 1.5 2H4v-1H3s-1 .015-1-1.5C2 10.984 3 11 3 11h1v-1H2.5z" fill="url(#e)"/></svg>