<svg xmlns="http://www.w3.org/2000/svg" width="16" height="16" viewBox="0 0 16 16"><rect id="frame" width="16" height="16" fill="none"/><g fill="none" fill-rule="evenodd"><path fill="#9AA7B0" d="M11 16v-6h2.683c.757 0 1.35.204 1.737.582.319.327.58.773.58 1.298 0 1.006-.674 1.6-1.508 1.841L16.117 16h-1.256l-1.479-2H12v2h-1zm1-3h1.606c.757 0 1.394-.431 1.394-1.042v-.017c0-.645-.62-.941-1.403-.941H12v2z"/><path fill="#8797A2" d="M8 5l-6 5V5l6-5z"/><path fill="#8797A2" d="M10 14.333L8 16v-5l2-1.667v5zM10.4 9L14 6v3h-3.6z"/><path fill="#8797A2" d="M14 .353L8.426 5H14z"/><path fill="#8797A2" d="M2 15.645l5.574-4.646H2z"/><path fill="#F4AF3D" d="M7.988 5.865l-5.436 4.529 5.436.001z"/><path fill="#FFF" d="M8 10.396l5.435-4.531H8z"/></g></svg>