<svg xmlns="http://www.w3.org/2000/svg" width="16" height="16" viewBox="0 0 16 16"><rect id="frame" width="16" height="16" fill="none"/><g fill="none" fill-rule="evenodd"><path fill="#B99BF8" fill-opacity=".7" d="M13 13h-3V9h6v4H0V3h16v10h-3z"/><path fill="#231F20" fill-opacity=".7" d="M14.575 9H11V6h1.971C14.142 6 15 6.642 15 7.65c0 .648-.162 1.073-.425 1.35zM12.9 8.5c.664 0 1.1-.116 1.1-.75S13.557 7 12.9 7H12v1.5h.9z"/><path fill="#231F20" fill-opacity=".7" d="M2.9 8.5c.664 0 1.1-.116 1.1-.75S3.557 7 2.9 7H2v1.5h.9zM1 6h1.971C4.142 6 5 6.642 5 7.65 5 9.286 3.971 9.5 2.872 9.5H2V11H1V6z"/><path fill="#231F20" fill-opacity=".7" d="M6 6h1v2h2V6h1v5H9V9H7v2H6z"/><path fill="#9AA7B0" d="M11 16v-6h2.683c.757 0 1.35.204 1.737.582.319.327.58.773.58 1.298 0 1.006-.674 1.6-1.508 1.841L16.117 16h-1.256l-1.479-2H12v2h-1zm1-3h1.606c.757 0 1.394-.431 1.394-1.042v-.017c0-.645-.62-.941-1.403-.941H12v2z"/></g></svg>