<svg xmlns="http://www.w3.org/2000/svg" xmlns:xlink="http://www.w3.org/1999/xlink" width="16" height="16" viewBox="0 0 16 16"><rect id="frame" width="16" height="16" fill="none"/><defs><path id="a" d="M0 0h8v7H4v7H0z"/><linearGradient id="c" x1="-16.836%" x2="76.219%" y1="91.94%" y2="-1.116%"><stop offset="10.75%" stop-color="#C757BC"/><stop offset="21.38%" stop-color="#D0609A"/><stop offset="42.54%" stop-color="#E1725C"/><stop offset="60.48%" stop-color="#EE7E2F"/><stop offset="74.3%" stop-color="#F58613"/><stop offset="82.32%" stop-color="#F88909"/></linearGradient></defs><g fill="none" fill-rule="evenodd"><path fill="#9AA7B0" fill-opacity=".8" d="M3 3.106A6.974 6.974 0 0 0 1 8c0 1.905.764 3.63 2 4.894v-9.79zM15 8h-2V3.106A6.972 6.972 0 0 1 15 8z"/><g transform="translate(4 1)"><mask id="b" fill="#fff"><use xlink:href="#a"/></mask><g mask="url(#b)"><path fill="#40B6E0" fill-opacity=".6" d="M11 7A7 7 0 1 1-3 7a7 7 0 0 1 14 0"/><path fill="#231F20" fill-opacity=".7" d="M6 8.283c-.47.459-.972.695-1.9.717C3.061 9.022 2 8.28 2 7c0-1.288.971-2 2.1-2 .848 0 1.448.185 1.8.554l.616-.717C5.83 4.27 5.288 4 4.098 4 2.34 4 1 5.358 1 7c0 1.682 1.364 3 3.002 3 1.29 0 2.021-.407 2.614-1.019L6 8.283z"/></g></g><g fill-rule="nonzero"><path fill="#0EAEFF" d="M9 16l3.512-3.512L16 16z"/><path fill="#0EAEFF" d="M9 9h3.512L9 12.792z"/><path fill="url(#c)" d="M3.512 0L0 3.698V7l3.512-3.512L7 0z" transform="translate(9 9)"/></g></g></svg>