<svg xmlns="http://www.w3.org/2000/svg" width="16" height="16" viewBox="0 0 16 16"><rect id="frame" width="16" height="16" fill="none"/><defs><linearGradient id="a" x1="-16.836%" x2="76.219%" y1="91.94%" y2="-1.116%"><stop offset="10.75%" stop-color="#C757BC"/><stop offset="21.38%" stop-color="#D0609A"/><stop offset="42.54%" stop-color="#E1725C"/><stop offset="60.48%" stop-color="#EE7E2F"/><stop offset="74.3%" stop-color="#F58613"/><stop offset="82.32%" stop-color="#F88909"/></linearGradient></defs><g fill="none" fill-rule="evenodd"><path fill="#62B543" fill-opacity=".6" d="M8 15a7 7 0 1 1 7-7H8v7z"/><path fill="#231F20" fill-opacity=".7" d="M8 9.325v.67a1.188 1.188 0 0 1-.11.005C7.08 10 6 9.921 6 8c0-1.68 1.456-2 2-2 .153 0 1.745.055 1.824.08L9.751 8h-.984c.002-.035.005-.07.006-.107l.07-1.194-.043-.01a2.4 2.4 0 0 0-.598-.067c-.224 0-.416.046-.574.14-.155.09-.283.212-.382.362a1.569 1.569 0 0 0-.207.502c-.042.183-.063.37-.063.558 0 .402.073.688.221.874.152.19.357.287.608.287A.933.933 0 0 0 8 9.325zM11.982 8h-.961c.03-.21.04-.384.04-.453 0-2.64-2.353-2.802-2.745-2.802-.545 0-3.372.106-3.372 3.256 0 .583 0 3.245 2.945 3.245.022 0 .06-.002.111-.007V12L7.898 12c-.742 0-3.896 0-3.896-4 0-3.999 3.665-3.999 4.314-3.999.335 0 3.684.085 3.684 3.556 0 .158-.006.305-.018.443z"/><g fill-rule="nonzero"><path fill="#0EAEFF" d="M9 16l3.512-3.512L16 16z"/><path fill="#0EAEFF" d="M9 9h3.512L9 12.792z"/><path fill="url(#a)" d="M3.512 0L0 3.698V7l3.512-3.512L7 0z" transform="translate(9 9)"/></g></g></svg>