<svg xmlns="http://www.w3.org/2000/svg" width="12" height="12" viewBox="0 0 12 12"><rect id="frame" width="12" height="12" fill="none"/><g fill="#AFB1B3" fill-rule="evenodd"><path d="M6 7.657v.836a1.484 1.484 0 0 1-.139.007c-1.011 0-2.36-.099-2.36-2.5C3.5 3.9 5.32 3.5 6 3.5c.19 0 2.18.069 2.28.099L8.188 6h-1.23a4.77 4.77 0 0 0 .007-.134l.087-1.492L7 4.36a3 3 0 0 0-.747-.083c-.28 0-.52.057-.718.173a1.43 1.43 0 0 0-.477.454 1.961 1.961 0 0 0-.26.628 3.116 3.116 0 0 0-.078.697c0 .503.091.86.276 1.093a.93.93 0 0 0 .76.358c.086 0 .167-.008.244-.024zM10.977 6H9.776c.038-.264.05-.48.05-.566 0-3.3-2.94-3.503-3.43-3.503-.682 0-4.217.133-4.217 4.07 0 .729 0 4.057 3.682 4.057.027 0 .075-.003.139-.009V11L5.873 11c-.928 0-4.87 0-4.87-5 0-4.999 4.581-4.999 5.392-4.999.419 0 4.605.107 4.605 4.445 0 .197-.008.382-.023.554z"/><path d="M6 7.657v.836a1.484 1.484 0 0 1-.139.007c-1.011 0-2.36-.099-2.36-2.5C3.5 3.9 5.32 3.5 6 3.5c.19 0 2.18.069 2.28.099L8.188 6h-1.23a4.77 4.77 0 0 0 .007-.134l.087-1.492L7 4.36a3 3 0 0 0-.747-.083c-.28 0-.52.057-.718.173a1.43 1.43 0 0 0-.477.454 1.961 1.961 0 0 0-.26.628 3.116 3.116 0 0 0-.078.697c0 .503.091.86.276 1.093a.93.93 0 0 0 .76.358c.086 0 .167-.008.244-.024zM10.977 6H9.776c.038-.264.05-.48.05-.566 0-3.3-2.94-3.503-3.43-3.503-.682 0-4.217.133-4.217 4.07 0 .729 0 4.057 3.682 4.057.027 0 .075-.003.139-.009V11L5.873 11c-.928 0-4.87 0-4.87-5 0-4.999 4.581-4.999 5.392-4.999.419 0 4.605.107 4.605 4.445 0 .197-.008.382-.023.554z"/></g></svg>