<svg xmlns="http://www.w3.org/2000/svg" width="16" height="16" viewBox="0 0 16 16"><rect id="frame" width="16" height="16" fill="none"/><defs><linearGradient id="a" x1="-16.836%" x2="76.219%" y1="91.94%" y2="-1.116%"><stop offset="10.75%" stop-color="#C757BC"/><stop offset="21.38%" stop-color="#D0609A"/><stop offset="42.54%" stop-color="#E1725C"/><stop offset="60.48%" stop-color="#EE7E2F"/><stop offset="74.3%" stop-color="#F58613"/><stop offset="82.32%" stop-color="#F88909"/></linearGradient></defs><g fill="none" fill-rule="evenodd"><path fill="#9AA7B0" d="M14 15v1h-4v-1H8v-1h2v-1H8v-1h2v-1H8v-1h2V9h4v1h2v1h-2v1h2v1h-2v1h2v1z"/><g fill-rule="nonzero"><path fill="#0EAEFF" d="M9.04 9H7v6H1l7.023-7.023L9.04 9z"/><path fill="#0EAEFF" d="M1 1h7.023L1 8.583z"/><path fill="url(#a)" d="M7.023 0L0 7.397V14l7.023-7.023L14 0z" transform="translate(1 1)"/></g></g></svg>