<svg xmlns="http://www.w3.org/2000/svg" width="16" height="16" viewBox="0 0 16 16"><rect id="frame" width="16" height="16" fill="none"/><defs><linearGradient id="a" x1="-16.836%" x2="76.219%" y1="91.94%" y2="-1.116%"><stop offset="10.75%" stop-color="#C757BC"/><stop offset="21.38%" stop-color="#D0609A"/><stop offset="42.54%" stop-color="#E1725C"/><stop offset="60.48%" stop-color="#EE7E2F"/><stop offset="74.3%" stop-color="#F58613"/><stop offset="82.32%" stop-color="#F88909"/></linearGradient></defs><g fill="none" fill-rule="evenodd"><g fill-rule="nonzero"><path fill="#0EAEFF" d="M6 10v5H1l5-5zm2-2l.023-.023.024.023H8z"/><path fill="#0EAEFF" d="M1 1h7.023L1 8.583z"/><path fill="url(#a)" d="M7 7H5v2l-5 5V7.397L7.023 0H14L7.023 6.977 7 7z" transform="translate(1 1)"/></g><path fill="#F4AF3D" fill-opacity=".7" d="M7 16h9V9H7z"/><path fill="#231F20" fill-opacity=".7" d="M12.973 11.502c0-.369.311-.502.872-.502H15v-1h-1.14c-1.082 0-1.86.46-1.86 1.45 0 .865.42 1.24 1.471 1.466.77.165 1.025.313 1.025.632 0 .32-.358.452-1.025.452H12.3v1h1.171c2.029 0 2.029-1 2.029-1.452 0-.632-.48-1.127-1.341-1.401-.862-.274-1.186-.277-1.186-.645z"/><path fill="#231F20" fill-opacity=".7" d="M8.395 13.588c.23.25.443.412.892.412.526 0 .713-.412.713-.702V10h1v3.588C11 14.32 10.327 15 9.45 15c-.821 0-1.3-.237-1.65-.68l.595-.732z"/></g></svg>