<svg xmlns="http://www.w3.org/2000/svg" width="16" height="16" viewBox="0 0 16 16"><rect id="frame" width="16" height="16" fill="none"/><defs><linearGradient id="a" x1="-16.836%" x2="76.219%" y1="91.94%" y2="-1.116%"><stop offset="10.75%" stop-color="#C757BC"/><stop offset="21.38%" stop-color="#D0609A"/><stop offset="42.54%" stop-color="#E1725C"/><stop offset="60.48%" stop-color="#EE7E2F"/><stop offset="74.3%" stop-color="#F58613"/><stop offset="82.32%" stop-color="#F88909"/></linearGradient></defs><g fill="none" fill-rule="evenodd"><g fill-rule="nonzero"><path fill="#0EAEFF" d="M9 16l3.512-3.512L16 16z"/><path fill="#0EAEFF" d="M9 9h3.512L9 12.792z"/><path fill="url(#a)" d="M3.512 0L0 3.698V7l3.512-3.512L7 0z" transform="translate(9 9)"/></g><path fill="#9AA7B0" fill-opacity=".8" d="M8 11.884a1.532 1.532 0 0 0-1.262 1.309.224.224 0 0 1-.22.196H5.505a.223.223 0 0 1-.22-.196 1.531 1.531 0 0 0-3.037 0 .224.224 0 0 1-.229.204H.984a.224.224 0 0 1-.22-.183c-.583-3.04.495-5.44 2.25-6.689l.919 1.584a1.228 1.228 0 0 0 1.662.457l.43-.24h.015c.507-.317.986-.677 1.43-1.077a.22.22 0 0 0-.01-.33.237.237 0 0 0-.308.01 9.938 9.938 0 0 1-1.355 1.01l-.425.238.018-.013-.023.013a.765.765 0 0 1-1.038-.285l-.971-1.677a.766.766 0 0 1 .33-1.078c5.657-2.696 8.149 2.536 10.016.67a1.348 1.348 0 0 0-1.767-2.034.224.224 0 0 1-.293-.02l-.284-.29a.227.227 0 0 1 0-.33 2.352 2.352 0 0 1 3.27.056c.734.735 1.554 2.566-.456 4.811H8v3.884zm2.78-4.43a.452.452 0 1 0-.72-.362l.72.361z"/></g></svg>