<svg xmlns="http://www.w3.org/2000/svg" width="16" height="16" viewBox="0 0 16 16"><rect id="frame" width="16" height="16" fill="none"/><defs><linearGradient id="a" x1="-16.836%" x2="76.219%" y1="91.94%" y2="-1.116%"><stop offset="10.75%" stop-color="#C757BC"/><stop offset="21.38%" stop-color="#D0609A"/><stop offset="42.54%" stop-color="#E1725C"/><stop offset="60.48%" stop-color="#EE7E2F"/><stop offset="74.3%" stop-color="#F58613"/><stop offset="82.32%" stop-color="#F88909"/></linearGradient></defs><g fill="none" fill-rule="evenodd"><path fill="#9AA7B0" fill-opacity=".8" d="M14 8h-1V4H2v9h6v1H1V1h13v7zM3 5h9v1H3V5zm0 2h9v1H3V7zm0 2h5v1H3V9zm0 2h5v1H3v-1z"/><g fill-rule="nonzero"><path fill="#0EAEFF" d="M9 16l3.512-3.512L16 16z"/><path fill="#0EAEFF" d="M9 9h3.512L9 12.792z"/><path fill="url(#a)" d="M3.512 0L0 3.698V7l3.512-3.512L7 0z" transform="translate(9 9)"/></g></g></svg>