<svg xmlns="http://www.w3.org/2000/svg" width="16" height="16" viewBox="0 0 16 16"><rect id="frame" width="16" height="16" fill="none"/><defs><linearGradient id="a" x1="-16.836%" x2="76.219%" y1="91.94%" y2="-1.116%"><stop offset="10.75%" stop-color="#C757BC"/><stop offset="21.38%" stop-color="#D0609A"/><stop offset="42.54%" stop-color="#E1725C"/><stop offset="60.48%" stop-color="#EE7E2F"/><stop offset="74.3%" stop-color="#F58613"/><stop offset="82.32%" stop-color="#F88909"/></linearGradient></defs><g fill="none" fill-rule="evenodd"><path fill="#9AA7B0" fill-opacity=".8" d="M13 8H8v7H3c-.667-1-1-2.167-1-3.5 0-2 2-5 2-7C4 3.167 3.667 2 3 1h10c.667 1 1 2.167 1 3.5 0 1-.5 2.25-1 3.5z"/><g fill-rule="nonzero"><path fill="#0EAEFF" d="M9 16l3.512-3.512L16 16z"/><path fill="#0EAEFF" d="M9 9h3.512L9 12.792z"/><path fill="url(#a)" d="M3.512 0L0 3.698V7l3.512-3.512L7 0z" transform="translate(9 9)"/></g></g></svg>