<svg width="16" height="16" viewBox="0 0 16 16" fill="none" xmlns="http://www.w3.org/2000/svg"><rect id="frame" width="16" height="16" fill="none"/><path fill-rule="evenodd" clip-rule="evenodd" d="M3.2 1L0 4.2h3.2V1z" fill="#6E6E6E"/><path fill-rule="evenodd" clip-rule="evenodd" d="M4 5V1h4v5.22c-.343.13-.671.317-1 .58-1.536 1.229-1.52 2.897-1.503 4.648.001.183.003.367.003.552H0V5h4z" fill="#6E6E6E"/><path fill-rule="evenodd" clip-rule="evenodd" d="M15.646 12.017v3.572l-1.259-1.26a4.047 4.047 0 0 1-6.908-2.34l1.362.12a2.734 2.734 0 0 0 4.616 1.29l-1.383-1.382h3.572zm-3.938-4.559a4.047 4.047 0 0 1 3.795 3.473l-1.353-.118a2.734 2.734 0 0 0-4.67-1.159l1.433 1.434H7.341V7.516l1.209 1.21a4.037 4.037 0 0 1 3.158-1.268z" fill="#389FD6"/></svg>