<svg xmlns="http://www.w3.org/2000/svg" width="16" height="16" viewBox="0 0 16 16"><rect id="frame" width="16" height="16" fill="none"/><defs><linearGradient id="a" x1="-16.836%" x2="76.219%" y1="91.94%" y2="-1.116%"><stop offset="10.75%" stop-color="#C757BC"/><stop offset="21.38%" stop-color="#D0609A"/><stop offset="42.54%" stop-color="#E1725C"/><stop offset="60.48%" stop-color="#EE7E2F"/><stop offset="74.3%" stop-color="#F58613"/><stop offset="82.32%" stop-color="#F88909"/></linearGradient></defs><g fill="none" fill-rule="evenodd"><path fill="#F4AF3D" fill-opacity=".6" d="M8 15a7 7 0 1 1 7-7H8v7z"/><path fill="#231F20" fill-opacity=".7" d="M11 8H9.943c0-1.127-.812-2.055-1.951-2.055-1.14 0-1.935.911-1.935 2.038V8c0 1.124.808 2.05 1.943 2.055V11h-.008C6.23 11 5 9.65 5 8.017V8c0-1.633 1.246-3 3.008-3S11 6.35 11 7.983V8z"/><g fill-rule="nonzero"><path fill="#0EAEFF" d="M9 16l3.512-3.512L16 16z"/><path fill="#0EAEFF" d="M9 9h3.512L9 12.792z"/><path fill="url(#a)" d="M3.512 0L0 3.698V7l3.512-3.512L7 0z" transform="translate(9 9)"/></g></g></svg>