<svg xmlns="http://www.w3.org/2000/svg" width="16" height="16" viewBox="0 0 16 16">
  <g fill="none" fill-rule="evenodd" transform="translate(3 1)">
    <path fill="#885300" d="M6.0088,5.9629 C6.0088,6.2489 5.5818,6.4819 5.0568,6.4819 C4.5298,6.4819 4.1038,6.2489 4.1038,5.9629 C4.1038,5.6769 4.5298,5.4439 5.0568,5.4439 C5.5818,5.4439 6.0088,5.6769 6.0088,5.9629"/>
    <path fill="#000" d="M5.5322,5.6387 C5.5322,5.9917 5.3152,5.9627 5.0492,5.9627 C4.7812,5.9627 4.5642,5.9917 4.5642,5.6387 C4.5642,5.2857 4.7812,4.9997 5.0492,4.9997 C5.3152,4.9997 5.5322,5.2857 5.5322,5.6387"/>
    <path fill="#B08D56" d="M9.0859,8 C9.0649,7.707 8.9999,7.381 8.9999,7 C8.9999,5.444 9.2849,3.596 9.2849,3.596 C9.2849,1.617 7.4999,0 4.9999,0 C2.4999,0 0.7149,1.617 0.7149,3.596 C0.7149,3.596 0.9999,5.444 0.9999,7 C0.9999,7.381 0.9239,8 0.9239,8 C0.8609,9.251 0.7149,10.404 0.7149,10.404 C0.7149,12.383 2.4999,14 4.9999,14 C7.4999,14 9.2849,12.383 9.2849,10.404 L9.0859,8 Z"/>
    <path fill="#B08D56" d="M10 .9072C10 1.4082 9.627 1.8142 9.167 1.8142 8.706 1.8142 8.333 1.4082 8.333.9072 8.333.4062 8.706.0002 9.167.0002 9.627.0002 10 .4062 10 .9072M0 .9072C0 1.4082.373 1.8142.833 1.8142 1.294 1.8142 1.667 1.4082 1.667.9072 1.667.4062 1.294.0002.833.0002.373.0002 0 .4062 0 .9072"/>
    <polygon fill="#FFF" points="4.524 7 5.477 7 5.477 6.223 4.524 6.223"/>
    <path fill="#885300" d="M5.9521,5.9629 C5.9521,6.2489 5.5261,6.4819 5.0001,6.4819 C4.4731,6.4819 4.0481,6.2489 4.0481,5.9629 C4.0481,5.6769 4.4731,5.4439 5.0001,5.4439 C5.5261,5.4439 5.9521,5.6769 5.9521,5.9629"/>
    <path fill="#000" d="M5.4766,5.6953 C5.4766,5.9863 5.2596,5.9633 4.9926,5.9633 C4.7246,5.9633 4.5076,5.9863 4.5076,5.6953 C4.5076,5.4043 4.7246,5.1683 4.9926,5.1683 C5.2596,5.1683 5.4766,5.4043 5.4766,5.6953"/>
    <path fill="#B08D56" fill-rule="nonzero" d="M10,7.6484 C10,8.0054 9.733,8.2954 9.404,8.2954 C9.076,8.2954 8.81,8.0054 8.81,7.6484 C8.81,7.2904 9.076,7.0004 9.404,7.0004 C9.733,7.0004 10,7.2904 10,7.6484 M1.1904,7.6484 C1.1904,8.0054 0.9234,8.2954 0.5954,8.2954 C0.2664,8.2954 0.0004,8.0054 0.0004,7.6484 C0.0004,7.2904 0.2664,7.0004 0.5954,7.0004 C0.9234,7.0004 1.1904,7.2904 1.1904,7.6484 M2.1904,13.3516 C2.1904,13.7096 1.9234,13.9996 1.5954,13.9996 C1.2664,13.9996 1.0004,13.7096 1.0004,13.3516 C1.0004,12.9946 1.2664,12.7046 1.5954,12.7046 C1.9234,12.7046 2.1904,12.9946 2.1904,13.3516 M9,13.3516 C9,13.7096 8.733,13.9996 8.404,13.9996 C8.076,13.9996 7.81,13.7096 7.81,13.3516 C7.81,12.9946 8.076,12.7046 8.404,12.7046 C8.733,12.7046 9,12.9946 9,13.3516"/>
    <path fill="#805D10" d="M10,4.25 C10,5.492 8.992,6.5 7.75,6.5 C6.508,6.5 5.5,5.492 5.5,4.25 C5.5,3.008 6.508,2 7.75,2 C8.992,2 10,3.008 10,4.25"/>
    <path fill="#FFF" d="M9.5,4.25 C9.5,5.217 8.717,6 7.75,6 C6.783,6 6,5.217 6,4.25 C6,3.283 6.783,2.5 7.75,2.5 C8.717,2.5 9.5,3.283 9.5,4.25"/>
    <path fill="#000" d="M8.334,4.1934 C8.334,4.6384 7.973,5.0004 7.527,5.0004 C7.082,5.0004 6.722,4.6384 6.722,4.1934 C6.722,3.7484 7.082,3.3874 7.527,3.3874 C7.973,3.3874 8.334,3.7484 8.334,4.1934"/>
    <path fill="#805D10" d="M4.5,4.25 C4.5,5.492 3.492,6.5 2.25,6.5 C1.008,6.5 0,5.492 0,4.25 C0,3.008 1.008,2 2.25,2 C3.492,2 4.5,3.008 4.5,4.25"/>
    <path fill="#FFF" d="M4,4.25 C4,5.217 3.217,6 2.25,6 C1.283,6 0.5,5.217 0.5,4.25 C0.5,3.283 1.283,2.5 2.25,2.5 C3.217,2.5 4,3.283 4,4.25"/>
    <path fill="#000" d="M3.3652,4.1934 C3.3652,4.6384 3.0042,5.0004 2.5582,5.0004 C2.1132,5.0004 1.7532,4.6384 1.7532,4.1934 C1.7532,3.7484 2.1132,3.3874 2.5582,3.3874 C3.0042,3.3874 3.3652,3.7484 3.3652,4.1934"/>
    <path fill="#898182" d="M5,7.0596 C3.324,7.0596 1.863,6.7126 0.977,6.1916 C0.99,6.4626 1,6.7356 1,6.9996 C1,7.3806 0.924,7.9996 0.924,7.9996 C0.916,8.1646 0.906,8.3286 0.895,8.4866 C0.892,8.5356 0.889,8.5806 0.885,8.6266 C0.877,8.7386 0.869,8.8476 0.86,8.9536 C0.857,8.9966 0.854,9.0336 0.85,9.0746 C0.841,9.1856 0.832,9.2916 0.822,9.3926 C0.82,9.4136 0.818,9.4316 0.816,9.4516 C0.805,9.5716 0.795,9.6816 0.784,9.7836 C1.512,10.7716 3.117,10.9986 5,10.9986 C6.883,10.9986 8.488,10.7716 9.216,9.7836 C9.169,9.3306 9.11,8.6836 9.076,7.9996 L9.086,7.9996 C9.064,7.7066 9,7.3806 9,6.9996 C9,6.7356 9.01,6.4626 9.023,6.1916 C8.137,6.7126 6.676,7.0596 5,7.0596"/>
    <path fill="#EEEEF5" d="M5,10.6484 C2.928,10.6484 1.729,10.3474 1.146,9.6774 C1.189,9.2464 1.242,8.6444 1.273,8.0174 L1.292,7.6504 L1.287,7.6504 C1.297,7.4314 1.303,7.2184 1.303,7.0004 C1.303,6.9184 1.301,6.8344 1.301,6.7504 C2.269,7.1684 3.6,7.4104 5,7.4104 C6.4,7.4104 7.731,7.1684 8.699,6.7504 C8.699,6.8344 8.697,6.9184 8.697,7.0004 C8.697,7.2654 8.705,7.5234 8.721,7.7934 L8.727,8.0174 C8.758,8.6444 8.811,9.2464 8.854,9.6774 C8.271,10.3474 7.072,10.6484 5,10.6484"/>
    <path fill="#000" d="M5.7773,8.585 C6.0623,9.271 5.6473,9.98 5.0013,9.98 C4.3533,9.98 3.8753,9.417 4.2073,8.585 C4.4073,7.981 4.9923,7.501 4.9923,7.501 C4.9923,7.501 5.5763,7.981 5.7773,8.585"/>
  </g>
</svg>
