<svg xmlns="http://www.w3.org/2000/svg" width="16" height="16" viewBox="0 0 16 16">
  <g fill="none" fill-rule="evenodd">
    <g transform="translate(0 7)">
      <path fill="#77BBE2" d="M9.09330769,8 C9.06305128,7.517 9.04792308,7.1580641 9.04792308,6.92319231 C9.04792308,5.64088462 9.28561538,3.5555 9.28561538,3.5555 C9.28561538,1.59973077 7.49984615,0.000115384615 4.99984615,0.000115384615 C2.49984615,0.000115384615 0.714461538,1.59973077 0.714461538,3.5555 C0.714461538,3.5555 0.952153846,5.38434615 0.952153846,6.92319231 C0.952153846,7.17421795 0.939589744,7.53315385 0.914461538,8 L0.924076923,8 L9.081,8 L9.09330769,8 Z"/>
      <path fill="#8BC5E6" d="M10,2.17942308 C10,2.67519231 9.62692308,3.07673077 9.16653846,3.07673077 C8.70653846,3.07673077 8.33346154,2.67519231 8.33346154,2.17942308 C8.33346154,1.68365385 8.70653846,1.28211538 9.16653846,1.28211538 C9.62692308,1.28211538 10,1.68365385 10,2.17942308"/>
      <path fill="#3B89BE" d="M9.64542308,1.98788462 C9.73388462,2.20096154 9.55926923,2.4925 9.25542308,2.63942308 C8.95119231,2.78596154 8.63311538,2.73211538 8.54465385,2.51903846 C8.45580769,2.30596154 8.63042308,2.01403846 8.93426923,1.8675 C9.23811538,1.72096154 9.55696154,1.77480769 9.64542308,1.98788462"/>
      <path fill="#8BC5E6" d="M0,2.17942308 C0,2.67519231 0.373076923,3.07673077 0.833461538,3.07673077 C1.29346154,3.07673077 1.66653846,2.67519231 1.66653846,2.17942308 C1.66653846,1.68365385 1.29346154,1.28211538 0.833461538,1.28211538 C0.373076923,1.28211538 0,1.68365385 0,2.17942308"/>
      <path fill="#3B89BE" d="M0.354576923,1.98788462 C0.266115385,2.20096154 0.440730769,2.4925 0.744576923,2.63942308 C1.04880769,2.78596154 1.36688462,2.73211538 1.45534615,2.51903846 C1.54419231,2.30596154 1.36957692,2.01403846 1.06573077,1.8675 C0.761884615,1.72096154 0.443038462,1.77480769 0.354576923,1.98788462"/>
      <path fill="#FFF" d="M4.74346154,4.07788462 C4.74346154,4.91403846 4.05461538,5.59173077 3.205,5.59173077 C2.35538462,5.59173077 1.66653846,4.91403846 1.66653846,4.07788462 C1.66653846,3.24173077 2.35538462,2.56403846 3.205,2.56403846 C4.05461538,2.56403846 4.74346154,3.24173077 4.74346154,4.07788462"/>
      <path fill="#FFF" d="M4.74346154,4.07788462 C4.74346154,4.91403846 4.05461538,5.59173077 3.205,5.59173077 C2.35538462,5.59173077 1.66653846,4.91403846 1.66653846,4.07788462 C1.66653846,3.24173077 2.35538462,2.56403846 3.205,2.56403846 C4.05461538,2.56403846 4.74346154,3.24173077 4.74346154,4.07788462"/>
      <path fill="#000" d="M3.99338462,4.07338462 C3.99338462,4.48184615 3.68569231,4.81338462 3.30607692,4.81338462 C2.92684615,4.81338462 2.61915385,4.48184615 2.61915385,4.07338462 C2.61915385,3.66492308 2.92684615,3.33338462 3.30607692,3.33338462 C3.68569231,3.33338462 3.99338462,3.66492308 3.99338462,4.07338462"/>
      <path fill="#FFF" fill-rule="nonzero" d="M3.65873077,3.71788462 C3.65873077,3.84057692 3.56642308,3.94019231 3.45257692,3.94019231 C3.33834615,3.94019231 3.24603846,3.84057692 3.24603846,3.71788462 C3.24603846,3.59519231 3.33834615,3.49557692 3.45257692,3.49557692 C3.56642308,3.49557692 3.65873077,3.59519231 3.65873077,3.71788462 M8.13738462,4.07788462 C8.13738462,4.91403846 7.44853846,5.59173077 6.59892308,5.59173077 C5.74892308,5.59173077 5.06046154,4.91403846 5.06046154,4.07788462 C5.06046154,3.24173077 5.74892308,2.56403846 6.59892308,2.56403846 C7.44853846,2.56403846 8.13738462,3.24173077 8.13738462,4.07788462"/>
      <path fill="#FFF" d="M8.13738462,4.07788462 C8.13738462,4.91403846 7.44853846,5.59173077 6.59892308,5.59173077 C5.74892308,5.59173077 5.06046154,4.91403846 5.06046154,4.07788462 C5.06046154,3.24173077 5.74892308,2.56403846 6.59892308,2.56403846 C7.44853846,2.56403846 8.13738462,3.24173077 8.13738462,4.07788462"/>
      <path fill="#000" d="M7.38696154,4.07338462 C7.38696154,4.48184615 7.07926923,4.81338462 6.70003846,4.81338462 C6.32042308,4.81338462 6.01273077,4.48184615 6.01273077,4.07338462 C6.01273077,3.66492308 6.32042308,3.33338462 6.70003846,3.33338462 C7.07926923,3.33338462 7.38696154,3.66492308 7.38696154,4.07338462"/>
      <path fill="#FFF" d="M7.05226923,3.71788462 C7.05226923,3.84057692 6.95996154,3.94019231 6.84611538,3.94019231 C6.73188462,3.94019231 6.63996154,3.84057692 6.63996154,3.71788462 C6.63996154,3.59519231 6.73188462,3.49557692 6.84611538,3.49557692 C6.95996154,3.49557692 7.05226923,3.59519231 7.05226923,3.71788462"/>
      <polygon fill="#FFF" points="4.523 6.923 5.476 6.923 5.476 6.154 4.523 6.154"/>
      <path fill="#B7937F" d="M5.95253846,5.8975 C5.95253846,6.18057692 5.526,6.41019231 4.99984615,6.41019231 C4.47407692,6.41019231 4.04753846,6.18057692 4.04753846,5.8975 C4.04753846,5.61442308 4.47407692,5.38480769 4.99984615,5.38480769 C5.526,5.38480769 5.95253846,5.61442308 5.95253846,5.8975"/>
      <path fill="#000" d="M5.47626923,5.6325 C5.47626923,5.92057692 5.25973077,5.8975 4.99203846,5.8975 C4.72473077,5.8975 4.50780769,5.92057692 4.50780769,5.6325 C4.50780769,5.34442308 4.72473077,5.11134615 4.99203846,5.11134615 C5.25973077,5.11134615 5.47626923,5.34442308 5.47626923,5.6325"/>
      <path fill="#B7937F" fill-rule="nonzero" d="M10,7.27107692 C10,7.62492308 9.73346154,7.91223077 9.40461538,7.91223077 C9.07615385,7.91223077 8.80923077,7.62492308 8.80923077,7.27107692 C8.80923077,6.91723077 9.07615385,6.62992308 9.40461538,6.62992308 C9.73346154,6.62992308 10,6.91723077 10,7.27107692 M1.19065385,7.27107692 C1.19065385,7.62492308 0.924115385,7.91223077 0.595269231,7.91223077 C0.266807692,7.91223077 -0.000115384615,7.62492308 -0.000115384615,7.27107692 C-0.000115384615,6.91723077 0.266807692,6.62992308 0.595269231,6.62992308 C0.924115385,6.62992308 1.19065385,6.91723077 1.19065385,7.27107692"/>
    </g>
    <path fill="#AFB1B3" d="M11 11L13 11 13 5 11 5 11 1 13 1C14.1045695 1 15 1.8954305 15 3L15 13C15 14.1045695 14.1045695 15 13 15L11 15 11 11zM3 1.14225476C2.41740381 1.48545176 2 2.41148431 2 3.5 2 4.58851569 2.41740381 5.51454824 3 5.85774524 2.84361054 5.94987148 2.67531771 6 2.5 6 1.67157288 6 1 4.88071187 1 3.5 1 2.11928813 1.67157288 1 2.5 1 2.67531771 1 2.84361054 1.05012852 3 1.14225476zM6 1.14225476C5.41740381 1.48545176 5 2.41148431 5 3.5 5 4.58851569 5.41740381 5.51454824 6 5.85774524 5.84361054 5.94987148 5.67531771 6 5.5 6 4.67157288 6 4 4.88071187 4 3.5 4 2.11928813 4.67157288 1 5.5 1 5.67531771 1 5.84361054 1.05012852 6 1.14225476zM9 1.14225476C8.41740381 1.48545176 8 2.41148431 8 3.5 8 4.58851569 8.41740381 5.51454824 9 5.85774524 8.84361054 5.94987148 8.67531771 6 8.5 6 7.67157288 6 7 4.88071187 7 3.5 7 2.11928813 7.67157288 1 8.5 1 8.67531771 1 8.84361054 1.05012852 9 1.14225476z"/>
  </g>
</svg>
