<svg ti:v="1" width="16" height="16" viewBox="0 0 16 16" xmlns="http://www.w3.org/2000/svg" xmlns:ti="urn:schemas-jetbrains-com:tisvg"><rect id="frame" width="16" height="16" fill="none"/><g fill-rule="evenodd"><path d="M1 3v3H0v3h1v3h6V3H1z" fill="#F4F4F4"/><path d="M6 10H2v1h4m0-7H2v1h4M5 8H1V7h4v1z" fill="#313131"/><path d="M4.625 3.073L4 3.326V4c0 6.993 2.843 8.997 5.424 10.817l.334.183H10V2c-1.883 0-4.057.539-5.375 1.073z" fill="#F4F4F4"/><path d="M10.649 14.765C13.157 12.997 16 10.994 16 4v-.674l-.625-.253C14.056 2.539 11.882 2 10 2v13h.316l.333-.235z" fill="#F4F4F4"/><path d="M10 14c-2.406-1.696-5-3.458-5-10 1.254-.508 3.302-1 5-1v11z" fill="#313131"/><path d="M10 14c2.406-1.696 5-3.458 5-10-1.254-.508-3.302-1-5-1v11z" fill="#313131"/><path d="M6 4.696c.153 4.976 1.966 6.62 3.999 8.078l.001-.001V4c-1.333 0-2.88.329-4 .696z" fill="#313131"/><path d="M14 4.696C12.88 4.329 11.333 4 10 4v8.773c2.065-1.486 3.848-3.148 4-8.077z" fill="#EBEBEB"/></g></svg>