<svg ti:v="1" width="16" height="16" viewBox="0 0 16 16" xmlns="http://www.w3.org/2000/svg" xmlns:ti="urn:schemas-jetbrains-com:tisvg"><rect id="frame" width="16" height="16" fill="none"/><linearGradient id="a" x1="0" y1=".5" x2="1" y2=".5"><stop offset="0" stop-color="#FF6D2F"/><stop offset="1" stop-color="#FF9C00"/></linearGradient><path fill-rule="evenodd" d="M1 3v3H0v3h1v3h6V3H1z" fill="url(#a)"/><linearGradient id="b" x1="0" y1=".5" x2="1" y2=".5"><stop offset="0" stop-color="#FFD400"/><stop offset="1" stop-color="#FFF"/></linearGradient><path fill-rule="evenodd" d="M6 10H2v1h4m0-7H2v1h4M5 8H1V7h4v1z" fill="url(#b)"/><linearGradient id="c" x1=".5" y1=".002" x2=".5" y2=".998"><stop offset="0" stop-color="#2FA322"/><stop offset="1" stop-color="#096600"/></linearGradient><path fill-rule="evenodd" d="M4.625 3.074L4 3.326V4c0 6.993 2.843 8.998 5.424 10.818l.334.182H10V2c-1.883 0-4.057.539-5.375 1.074z" fill="url(#c)"/><linearGradient id="d" x1=".5" y1="-.002" x2=".5" y2=".998"><stop offset="0" stop-color="#9C6400"/><stop offset="1" stop-color="#624700"/></linearGradient><path fill-rule="evenodd" d="M10 15h.317l.332-.235C13.157 12.998 16 10.993 16 4v-.674l-.625-.252C14.056 2.539 11.883 2 10 2v13z" fill="url(#d)"/><linearGradient id="e" x1=".5" y1=".025" x2=".5" y2="1"><stop offset="0" stop-color="#DFFFDF"/><stop offset="1" stop-color="#11B811"/></linearGradient><path fill-rule="evenodd" d="M5 4c0 6.542 2.594 8.304 5 10V3c-1.698 0-3.746.492-5 1z" fill="url(#e)"/><linearGradient id="f" x1=".5" y1=".025" x2=".5" y2="1"><stop offset="0" stop-color="#FFF2D8"/><stop offset="1" stop-color="#A36221"/></linearGradient><path fill-rule="evenodd" d="M10 14c2.406-1.696 5-3.458 5-10-1.254-.508-3.302-1-5-1v11z" fill="url(#f)"/><linearGradient id="g" x1=".5" y1="0" x2=".5" y2="1.016"><stop offset="0" stop-color="#49FF35"/><stop offset="1" stop-color="#35BA26"/></linearGradient><path fill-rule="evenodd" d="M6 4.696c.153 4.976 1.966 6.621 3.999 8.078l.001-.001V4c-1.333 0-2.88.33-4 .696z" fill="url(#g)"/><linearGradient id="h" x1=".5" y1=".031" x2=".5" y2="1.031"><stop offset="0" stop-color="#FFB600"/><stop offset="1" stop-color="#A86400"/></linearGradient><path fill-rule="evenodd" d="M10 12.773c2.065-1.486 3.848-3.147 4-8.077C12.88 4.33 11.333 4 10 4v8.773z" fill="url(#h)"/></svg>