<svg ti:v="1" width="16" height="16" viewBox="0 0 16 16" xmlns="http://www.w3.org/2000/svg" xmlns:ti="urn:schemas-jetbrains-com:tisvg"><rect id="frame" width="16" height="16" fill="none"/><g fill-rule="evenodd"><path d="M1 4v3H0v3h1v3h6V4H1z" fill="#F4F4F4"/><path d="M6 11H2v1h4m0-7H2v1h4M5 9H1V8h4v1z" fill="#313131"/><path d="M15 8.5a5.5 5.5 0 1 1-11 0 5.5 5.5 0 1 1 11 0z" fill="#F4F4F4"/><path d="M12.95 9a3.49 3.49 0 0 1-3.45 3A3.5 3.5 0 0 1 6 8.5a3.49 3.49 0 0 1 3-3.45v-1c-2.246.252-4 2.136-4 4.45A4.5 4.5 0 0 0 9.5 13c2.315 0 4.198-1.753 4.45-4h-1z" fill="#313131"/><path d="M13 8.5a3.5 3.5 0 1 1-7 0 3.5 3.5 0 0 1 7 0z" fill="#EBEBEB"/><path d="M9 9V2h1c3.309 0 6 2.691 6 6v1H9z" fill="#F4F4F4"/><path d="M10 3v5h5a5 5 0 0 0-5-5z" fill="#313131"/></g></svg>