<svg ti:v="1" width="16" height="16" viewBox="0 0 16 16" xmlns="http://www.w3.org/2000/svg" xmlns:ti="urn:schemas-jetbrains-com:tisvg"><rect id="frame" width="16" height="16" fill="none"/><linearGradient id="a" x1="0" y1=".5" x2="1" y2=".5"><stop offset="0" stop-color="#FF6D2F"/><stop offset="1" stop-color="#FF9C00"/></linearGradient><path fill-rule="evenodd" d="M1 4v3H0v3h1v3h6V4H1z" fill="url(#a)"/><linearGradient id="b" x1="0" y1=".5" x2="1" y2=".5"><stop offset="0" stop-color="#FFD400"/><stop offset="1" stop-color="#FFF"/></linearGradient><path fill-rule="evenodd" d="M6 11H2v1h4m0-7H2v1h4M5 9H1V8h4v1z" fill="url(#b)"/><linearGradient id="c" x1=".5" y1="0" x2=".5" y2="1"><stop offset="0" stop-color="#A34900"/><stop offset="1" stop-color="#750500"/></linearGradient><path fill-rule="evenodd" d="M4 8.5a5.5 5.5 0 0 0 11 0 5.5 5.5 0 1 0-11 0z" fill="url(#c)"/><linearGradient id="d" x1=".5" y1="0" x2=".5" y2="1"><stop offset="0" stop-color="#FFE8A1"/><stop offset="1" stop-color="#FF9C3F"/></linearGradient><path fill-rule="evenodd" d="M5 8.5A4.5 4.5 0 0 0 9.5 13c2.314 0 4.198-1.754 4.449-4h-1A3.489 3.489 0 0 1 9.5 12 3.5 3.5 0 0 1 6 8.5a3.49 3.49 0 0 1 3-3.45v-1c-2.247.252-4 2.136-4 4.45z" fill="url(#d)"/><linearGradient id="e" x1=".5" y1="0" x2=".5" y2="1"><stop offset="0" stop-color="#FF9C3F"/><stop offset="1" stop-color="#FFE8A1"/></linearGradient><path fill-rule="evenodd" d="M6 8.5a3.5 3.5 0 1 0 7 0 3.5 3.5 0 1 0-7 0z" fill="url(#e)"/><linearGradient id="f" x1=".5" y1="0" x2=".5" y2="1"><stop offset="0" stop-color="#870037"/><stop offset="1" stop-color="#440024"/></linearGradient><path fill-rule="evenodd" d="M9 2v7h7V8c0-3.308-2.691-6-6-6H9z" fill="url(#f)"/><linearGradient id="g" x1=".5" y1="0" x2=".5" y2="1"><stop offset="0" stop-color="#FFACC9"/><stop offset="1" stop-color="#EC0578"/></linearGradient><path fill-rule="evenodd" d="M10 8h5a5 5 0 0 0-5-5v5z" fill="url(#g)"/></svg>