<svg ti:v="1" width="16" height="16" viewBox="0 0 16 16" xmlns="http://www.w3.org/2000/svg" xmlns:ti="urn:schemas-jetbrains-com:tisvg"><rect id="frame" width="16" height="16" fill="none"/><linearGradient id="a" x1=".5" y1=".003" x2=".5" y2="1.003"><stop offset="0" stop-color="#7D6E48"/><stop offset="1" stop-color="#614A30"/></linearGradient><path d="M2 14V0h7.414L14 4.586V14H2z" fill="url(#a)"/><linearGradient id="b" x1=".5" y1=".004" x2=".5" y2="1"><stop offset="0" stop-color="#E2D7BB"/><stop offset="1" stop-color="#E2CCB2"/></linearGradient><path d="M9 1H3v12h10V5L9 1z" fill="url(#b)"/><linearGradient id="c" x1=".5" y1=".012" x2=".5" y2="1.006"><stop offset="0" stop-color="#FFF2D3"/><stop offset="1" stop-color="#FFF"/></linearGradient><path d="M9 5V3H5v8h6V5H9z" fill="url(#c)"/><linearGradient id="d" x1=".5" y1="0" x2=".5" y2="1"><stop offset="0" stop-color="#663886"/><stop offset="1" stop-color="#260A3B"/></linearGradient><path fill-rule="evenodd" d="M7.873 7H7.32L4.227 9.435 2.337 8h-.67L0 9.25v4.5L1.667 15h.67l1.89-1.435L7.32 16h.553L11 14.659V8.341L7.873 7z" fill="url(#d)"/><linearGradient id="e" x1=".5" y1="0" x2=".5" y2="1"><stop offset="0" stop-color="#DEB2FF"/><stop offset="1" stop-color="#B353FF"/></linearGradient><path fill-rule="evenodd" d="M7.667 8l-3.43 2.7L2 9l-1 .75v3.5L2 14l2.237-1.7 3.43 2.7L10 14V9zm-5.836 4.594v-2.188L3.223 11.5zM8 13l-2.512-1.5L8 10zm0 0" fill="url(#e)"/></svg>