<svg ti:v="1" width="16" height="16" viewBox="0 0 16 16" xmlns="http://www.w3.org/2000/svg" xmlns:ti="urn:schemas-jetbrains-com:tisvg"><rect id="frame" width="16" height="16" fill="none"/><linearGradient id="a" x1=".5" y1=".002" x2=".5" y2=".998"><stop offset="0" stop-color="#2FA322"/><stop offset="1" stop-color="#096600"/></linearGradient><path fill-rule="evenodd" d="M2.625 3.073L2 3.326V4c0 6.994 2.843 8.997 5.424 10.817l.334.183H8V2c-1.882 0-4.057.54-5.375 1.073z" fill="url(#a)"/><linearGradient id="b" x1=".5" y1="-.002" x2=".5" y2=".998"><stop offset="0" stop-color="#9C6400"/><stop offset="1" stop-color="#624700"/></linearGradient><path fill-rule="evenodd" d="M8 15h.316l.333-.235C11.158 12.997 14 10.994 14 4v-.674l-.625-.253C12.057 2.54 9.883 2 8 2v13z" fill="url(#b)"/><linearGradient id="c" x1=".5" y1=".025" x2=".5" y2="1"><stop offset="0" stop-color="#DFFFDF"/><stop offset="1" stop-color="#11B811"/></linearGradient><path fill-rule="evenodd" d="M3 4c0 6.542 2.595 8.304 5 10V3c-1.699 0-3.746.492-5 1z" fill="url(#c)"/><linearGradient id="d" x1=".5" y1=".025" x2=".5" y2="1"><stop offset="0" stop-color="#FFF2D8"/><stop offset="1" stop-color="#A36221"/></linearGradient><path fill-rule="evenodd" d="M8 14c2.406-1.696 5-3.458 5-10-1.254-.508-3.301-1-5-1v11z" fill="url(#d)"/><linearGradient id="e" x1=".5" y1="0" x2=".5" y2="1.016"><stop offset="0" stop-color="#49FF35"/><stop offset="1" stop-color="#35BA26"/></linearGradient><path fill-rule="evenodd" d="M4 4.696c.153 4.976 1.966 6.62 3.999 8.078L8 12.773V4c-1.333 0-2.88.33-4 .696z" fill="url(#e)"/><linearGradient id="f" x1=".5" y1=".031" x2=".5" y2="1.031"><stop offset="0" stop-color="#FFB600"/><stop offset="1" stop-color="#A86400"/></linearGradient><path fill-rule="evenodd" d="M8 12.773c2.065-1.485 3.848-3.148 4-8.077C10.88 4.33 9.332 4 8 4v8.773z" fill="url(#f)"/></svg>