<svg ti:v="1" width="16" height="16" viewBox="0 0 16 16" xmlns="http://www.w3.org/2000/svg" xmlns:ti="urn:schemas-jetbrains-com:tisvg"><rect id="frame" width="16" height="16" fill="none"/><g fill-rule="evenodd"><path d="M7.485 15L1 11.432V3.569L7.485 0h1.03L15 3.569v7.863L8.514 15H7.485z" fill="#242424"/><path d="M2 4.16v6.681L7.742 14h.516L14 10.841V4.16L8.258 1h-.516L2 4.16z" fill="#C3C3C3"/><path d="M3 5.25v5L8 13V8L3 5.25z" fill="#282828"/><path d="M13 5.25L8 8v5l5-2.75v-5z" fill="#282828"/><path d="M12.545 4.5L8 7 3.455 4.5 3 4.751v.499L8 8l5-2.75v-.499l-.455-.251z" fill="#C3C3C3"/><path d="M8 7l4.545-2.5L8 2 3.455 4.5 8 7z" fill="#282828"/><path d="M12.086 9L9 12.086v.828L12.086 16h.828L16 12.914v-.828L12.914 9h-.828z" fill="#242424"/><path d="M12.5 10l2.5 2.5-2.5 2.5-2.5-2.5 2.5-2.5z" fill="#C3C3C3"/></g></svg>