<svg ti:v="1" width="16" height="16" viewBox="0 0 16 16" xmlns="http://www.w3.org/2000/svg" xmlns:ti="urn:schemas-jetbrains-com:tisvg"><rect id="frame" width="16" height="16" fill="none"/><g fill-rule="evenodd"><path d="M8.5 15a1.502 1.502 0 0 1-1.488-1.312C6.335 14.536 5.409 15 4.5 15c-.827 0-1.5-.673-1.5-1.5S3.673 12 4.5 12c.047-.026.542-.424.542-1.542a1.501 1.501 0 0 1 2.503-1.114 1.494 1.494 0 0 1 1.454-.258 1.51 1.51 0 0 1 1.061.022c1.8.731 1.94 2.781 1.94 3.392a1.502 1.502 0 0 1-2.053 1.395A1.502 1.502 0 0 1 8.5 15z" fill="#F4F4F4"/><path d="M6.541 6.042c-.826 0-1.5-.673-1.5-1.5 0-1.118-.494-1.516-.591-1.548h-.01C3.667 2.994 3 2.323 3 1.5 3 .673 3.672 0 4.5 0c.91 0 1.834.464 2.512 1.312A1.502 1.502 0 0 1 8.5 0c.69 0 1.273.469 1.448 1.105A1.501 1.501 0 0 1 12 2.5c0 .611-.14 2.661-1.936 3.391A1.497 1.497 0 0 1 9 5.914a1.494 1.494 0 0 1-1.455-.258 1.49 1.49 0 0 1-1.004.386z" fill="#F4F4F4"/><path d="M14 4h-2l-1.8 2.4.918 1.1-.918 1.1L12 11h2V8.382L12.236 7.5 14 6.618V4z" fill="#F4F4F4"/><path d="M6 12c-2.206 0-4-1.794-4-4V7c0-2.206 1.794-4 4-4h3c2.206 0 4 1.794 4 4v1c0 2.206-1.794 4-4 4H6z" fill="#F4F4F4"/><path d="M9 11H6a3 3 0 0 1-3-3V7a3 3 0 0 1 3-3h3a3 3 0 0 1 3 3v1a3 3 0 0 1-3 3z" fill="#313131"/><path d="M9 5v5c1.103 0 2-.897 2-2V7c0-1.103-.897-2-2-2z" fill="#EBEBEB"/><path d="M13 9l-2-1 1.5 2h.5m0-4l-2 1 1.5-2h.5v1z" fill="#313131"/><path d="M8 5H6c-1.103 0-2 .897-2 2v.5A1.5 1.5 0 0 1 5.5 6H8V5z" fill="#EBEBEB"/><path d="M4.5 2c.495 0 1.132.522 1.405 1.51.033-.001.063-.01.095-.01h.924C6.591 1.923 5.537 1 4.5 1a.5.5 0 0 0 0 1z" fill="#313131"/><path d="M9 3.5v-2a.5.5 0 0 0-1 0v2h1z" fill="#313131"/><path d="M9.767 11.409c.206.39.233.893.233 1.091a.5.5 0 1 0 1 0c0-.264-.039-.885-.305-1.457a3.494 3.494 0 0 1-.928.366z" fill="#313131"/><path d="M10.695 3.957C10.96 3.385 11 2.763 11 2.5a.5.5 0 1 0-1 0c0 .197-.027.7-.233 1.091.332.074.639.205.928.366z" fill="#313131"/><path d="M6 11.5c-.032 0-.062-.009-.095-.01-.273.988-.91 1.51-1.405 1.51a.5.5 0 0 0 0 1c1.037 0 2.091-.923 2.424-2.5H6z" fill="#313131"/><path d="M8 13.5a.5.5 0 0 0 1 0v-2H8v2z" fill="#313131"/></g></svg>