<svg ti:v="1" width="16" height="16" viewBox="0 0 16 16" xmlns="http://www.w3.org/2000/svg" xmlns:ti="urn:schemas-jetbrains-com:tisvg"><rect id="frame" width="16" height="16" fill="none"/><linearGradient id="a" x1="0" y1=".5" x2="1" y2=".5"><stop offset="0" stop-color="#FF6D2F"/><stop offset="1" stop-color="#FF9C00"/></linearGradient><path fill-rule="evenodd" d="M1 3v3H0v3h1v3h8V3H1z" fill="url(#a)"/><linearGradient id="b" x1="0" y1=".5" x2="1" y2=".5"><stop offset="0" stop-color="#FFD400"/><stop offset="1" stop-color="#FFF"/></linearGradient><path fill-rule="evenodd" d="M2 5h3V4H2M1 8h3V7H1m1 4h3v-1H2v1z" fill="url(#b)"/><linearGradient id="c" x1=".5" y1="0" x2=".5" y2="1"><stop offset="0" stop-color="#1E3541"/><stop offset="1" stop-color="#15141E"/></linearGradient><path fill-rule="evenodd" d="M7.041 10.458c0 1.118-.494 1.516-.541 1.542a1.501 1.501 0 0 0 0 3c.909 0 1.835-.464 2.512-1.311A1.502 1.502 0 0 0 10.5 15c.69 0 1.274-.469 1.447-1.105A1.501 1.501 0 0 0 14 12.5c0-.612-.14-2.661-1.94-3.392a1.51 1.51 0 0 0-1.061-.022 1.494 1.494 0 0 0-1.454.258 1.502 1.502 0 0 0-2.504 1.114z" fill="url(#c)"/><linearGradient id="d" x1=".5" y1="0" x2=".5" y2="1"><stop offset="0" stop-color="#1E3541"/><stop offset="1" stop-color="#15141E"/></linearGradient><path fill-rule="evenodd" d="M9.012 1.312C8.335.464 7.409 0 6.5 0 5.673 0 5 .673 5 1.5c0 .823.668 1.494 1.44 1.494h.009c.098.032.592.43.592 1.548 0 .827.673 1.5 1.5 1.5.387 0 .738-.147 1.004-.386.26.215.593.344.955.344.174 0 .343-.03.499-.086a1.494 1.494 0 0 0 1.064-.023C13.86 5.161 14 3.112 14 2.5c0-.827-.673-1.5-1.5-1.5a1.48 1.48 0 0 0-.553.106A1.5 1.5 0 0 0 10.5 0c-.763 0-1.395.574-1.488 1.312z" fill="url(#d)"/><linearGradient id="e" x1=".5" y1="0" x2=".5" y2="1"><stop offset="0" stop-color="#1E3541"/><stop offset="1" stop-color="#15141E"/></linearGradient><path fill-rule="evenodd" d="M14 4l-1.8 2.4.918 1.1-.918 1.1L14 11h2V8.382L14.237 7.5 16 6.618V4h-2z" fill="url(#e)"/><linearGradient id="f" x1=".5" y1="0" x2=".5" y2="1"><stop offset="0" stop-color="#3D004F"/><stop offset="1" stop-color="#00083F"/></linearGradient><path fill-rule="evenodd" d="M8 3C5.795 3 4 4.794 4 7v1c0 2.206 1.795 4 4 4h3c2.205 0 4-1.794 4-4V7c0-2.206-1.795-4-4-4H8z" fill="url(#f)"/><linearGradient id="g" x1=".5" y1="0" x2=".5" y2="1"><stop offset="0" stop-color="#D375FF"/><stop offset="1" stop-color="#A125FF"/></linearGradient><path fill-rule="evenodd" d="M8 4a3 3 0 0 0-3 3v1c0 1.656 1.344 3 3 3h3a3 3 0 0 0 3-3V7a3 3 0 0 0-3-3H8z" fill="url(#g)"/><linearGradient id="h" x1=".5" y1="0" x2=".5" y2="1"><stop offset="0" stop-color="#FDF4FF"/><stop offset="1" stop-color="#C02FFF"/></linearGradient><path fill-rule="evenodd" d="M11 10c1.103 0 2-.897 2-2V7c0-1.103-.897-2-2-2v5z" fill="url(#h)"/><path fill-rule="evenodd" d="M15 9l-2-1 1.5 2h.5m0-4l-2 1 1.5-2h.5v1z" fill="#BED1E6"/><linearGradient id="i" x1=".5" y1="0" x2=".5" y2="1"><stop offset="0" stop-color="#FDF4FF"/><stop offset="1" stop-color="#C02FFF"/></linearGradient><path fill-rule="evenodd" d="M8 5c-1.103 0-2 .897-2 2v.5A1.5 1.5 0 0 1 7.5 6H10V5H8z" fill="url(#i)"/><path fill-rule="evenodd" d="M6.5 2c.495 0 1.132.522 1.405 1.51.033-.001.063-.01.095-.01h.924C8.591 1.923 7.537 1 6.5 1a.5.5 0 0 0 0 1z" fill="#BED1E6"/><path fill-rule="evenodd" d="M11 3.5v-2a.5.5 0 0 0-1 0v2h1z" fill="#BED1E6"/><path fill-rule="evenodd" d="M11.767 11.409c.206.39.233.893.233 1.091a.5.5 0 1 0 1 0c0-.264-.039-.885-.305-1.457a3.494 3.494 0 0 1-.928.366z" fill="#BED1E6"/><path fill-rule="evenodd" d="M12.695 3.957C12.96 3.385 13 2.763 13 2.5a.5.5 0 1 0-1 0c0 .197-.027.7-.233 1.091.332.074.639.205.928.366z" fill="#BED1E6"/><path fill-rule="evenodd" d="M8 11.5c-.032 0-.062-.009-.095-.01-.273.988-.91 1.51-1.405 1.51a.5.5 0 0 0 0 1c1.037 0 2.091-.923 2.424-2.5H8z" fill="#BED1E6"/><path fill-rule="evenodd" d="M10 13.5a.5.5 0 0 0 1 0v-2h-1v2z" fill="#BED1E6"/></svg>