<svg ti:v="1" width="16" height="16" viewBox="0 0 16 16" xmlns="http://www.w3.org/2000/svg" xmlns:ti="urn:schemas-jetbrains-com:tisvg"><rect id="frame" width="16" height="16" fill="none"/><g fill-rule="evenodd"><path d="M1 3v3H0v3h1v3h7V3H1z" fill="#242424"/><path d="M5 10H2v1h3m0-7H2v1h3M4 8H1V7h3v1z" fill="#C3C3C3"/><path d="M10.5 15a1.502 1.502 0 0 1-1.488-1.312C8.335 14.536 7.409 15 6.5 15c-.827 0-1.5-.673-1.5-1.5S5.673 12 6.5 12c.047-.026.542-.424.542-1.542a1.501 1.501 0 0 1 2.503-1.114 1.494 1.494 0 0 1 1.454-.258 1.51 1.51 0 0 1 1.061.022c1.8.731 1.94 2.781 1.94 3.392a1.502 1.502 0 0 1-2.053 1.395A1.502 1.502 0 0 1 10.5 15z" fill="#242424"/><path d="M8.541 6.042c-.826 0-1.5-.673-1.5-1.5 0-1.118-.494-1.516-.591-1.548h-.01C5.667 2.994 5 2.323 5 1.5 5 .673 5.671 0 6.5 0c.91 0 1.834.464 2.511 1.312A1.502 1.502 0 0 1 10.5 0c.691 0 1.274.469 1.448 1.105A1.501 1.501 0 0 1 14 2.5c0 .611-.138 2.661-1.936 3.391A1.497 1.497 0 0 1 11 5.914a1.494 1.494 0 0 1-1.455-.258 1.49 1.49 0 0 1-1.003.386z" fill="#242424"/><path d="M16 4h-2l-1.8 2.4.918 1.1-.918 1.1L14 11h2V8.382L14.236 7.5 16 6.618V4z" fill="#242424"/><path d="M8 12c-2.206 0-4-1.794-4-4V7c0-2.206 1.794-4 4-4h3c2.206 0 4 1.794 4 4v1c0 2.206-1.794 4-4 4H8z" fill="#242424"/><path d="M11 11H8a3 3 0 0 1-3-3V7a3 3 0 0 1 3-3h3a3 3 0 0 1 3 3v1a3 3 0 0 1-3 3z" fill="#C3C3C3"/><path d="M11 5v5c1.103 0 2-.897 2-2V7c0-1.103-.897-2-2-2z" fill="#282828"/><path d="M15 9l-2-1 1.5 2h.5m0-4l-2 1 1.5-2h.5v1z" fill="#C3C3C3"/><path d="M10 5H8c-1.103 0-2 .897-2 2v.5A1.5 1.5 0 0 1 7.5 6H10V5z" fill="#282828"/><path d="M6.5 2c.495 0 1.132.522 1.405 1.51.033-.001.063-.01.095-.01h.924C8.591 1.923 7.537 1 6.5 1a.5.5 0 0 0 0 1z" fill="#C3C3C3"/><path d="M11 3.5v-2a.5.5 0 0 0-1 0v2h1z" fill="#C3C3C3"/><path d="M11.767 11.409c.206.39.233.893.233 1.091a.5.5 0 1 0 1 0c0-.264-.039-.885-.305-1.457a3.494 3.494 0 0 1-.928.366z" fill="#C3C3C3"/><path d="M12.695 3.957C12.96 3.385 13 2.763 13 2.5a.5.5 0 1 0-1 0c0 .197-.027.7-.233 1.091.332.074.639.205.928.366z" fill="#C3C3C3"/><path d="M8 11.5c-.032 0-.062-.009-.095-.01-.273.988-.91 1.51-1.405 1.51a.5.5 0 0 0 0 1c1.037 0 2.091-.923 2.424-2.5H8z" fill="#C3C3C3"/><path d="M10 13.5a.5.5 0 0 0 1 0v-2h-1v2z" fill="#C3C3C3"/></g></svg>