<svg ti:v="1" width="16" height="16" viewBox="0 0 16 16" xmlns="http://www.w3.org/2000/svg" xmlns:ti="urn:schemas-jetbrains-com:tisvg"><rect id="frame" width="16" height="16" fill="none"/><linearGradient id="a" x1=".5" y1="0" x2=".5" y2="1"><stop offset="0" stop-color="#1E3541"/><stop offset="1" stop-color="#15141E"/></linearGradient><path fill-rule="evenodd" d="M5.041 10.458c0 1.118-.494 1.515-.541 1.542a1.501 1.501 0 0 0 0 3c.909 0 1.835-.464 2.511-1.311A1.504 1.504 0 0 0 8.5 15c.69 0 1.273-.469 1.447-1.105A1.502 1.502 0 0 0 12 12.5c0-.611-.139-2.661-1.94-3.391a1.511 1.511 0 0 0-1.061-.023 1.49 1.49 0 0 0-1.454.258 1.491 1.491 0 0 0-1.003-.386c-.827 0-1.501.673-1.501 1.5z" fill="url(#a)"/><linearGradient id="b" x1=".5" y1="0" x2=".5" y2="1"><stop offset="0" stop-color="#1E3541"/><stop offset="1" stop-color="#15141E"/></linearGradient><path fill-rule="evenodd" d="M7.011 1.312C6.335.464 5.409 0 4.5 0 3.672 0 3 .673 3 1.5c0 .824.668 1.494 1.439 1.494h.01c.098.032.592.43.592 1.548 0 .827.674 1.5 1.501 1.5.385 0 .738-.146 1.003-.386a1.499 1.499 0 0 0 1.454.258c.158.055.328.086.504.086.19 0 .379-.036.56-.11C11.861 5.161 12 3.111 12 2.5c0-.827-.673-1.5-1.5-1.5a1.48 1.48 0 0 0-.553.106A1.503 1.503 0 0 0 8.5 0c-.763 0-1.395.573-1.489 1.312z" fill="url(#b)"/><linearGradient id="c" x1=".5" y1="0" x2=".5" y2="1"><stop offset="0" stop-color="#1E3541"/><stop offset="1" stop-color="#15141E"/></linearGradient><path fill-rule="evenodd" d="M12 4l-1.8 2.401.918 1.099-.918 1.099L12 11h2V8.381L12.236 7.5 14 6.618V4h-2z" fill="url(#c)"/><linearGradient id="d" x1=".5" y1="0" x2=".5" y2="1"><stop offset="0" stop-color="#3D004F"/><stop offset="1" stop-color="#00083F"/></linearGradient><path fill-rule="evenodd" d="M6 3C3.795 3 2 4.794 2 7v1c0 2.206 1.795 4 4 4h3c2.205 0 4-1.794 4-4V7c0-2.206-1.795-4-4-4H6z" fill="url(#d)"/><linearGradient id="e" x1=".5" y1="0" x2=".5" y2="1"><stop offset="0" stop-color="#D375FF"/><stop offset="1" stop-color="#A125FF"/></linearGradient><path fill-rule="evenodd" d="M6 4a3 3 0 0 0-3 3v1a3 3 0 0 0 3 3h3a3 3 0 0 0 3-3V7a3 3 0 0 0-3-3H6z" fill="url(#e)"/><linearGradient id="f" x1=".5" y1="0" x2=".5" y2="1"><stop offset="0" stop-color="#FDF4FF"/><stop offset="1" stop-color="#C02FFF"/></linearGradient><path fill-rule="evenodd" d="M9 10c1.103 0 2-.898 2-2V7c0-1.103-.897-2-2-2v5z" fill="url(#f)"/><path fill-rule="evenodd" d="M13 9l-2-1 1.5 2h.5m0-4l-2 1 1.5-2h.5v1z" fill="#BED1E6"/><linearGradient id="g" x1=".5" y1="0" x2=".5" y2="1"><stop offset="0" stop-color="#FDF4FF"/><stop offset="1" stop-color="#C02FFF"/></linearGradient><path fill-rule="evenodd" d="M6 5c-1.103 0-2 .897-2 2v.5A1.5 1.5 0 0 1 5.5 6H8V5H6z" fill="url(#g)"/><path fill-rule="evenodd" d="M4.5 2c.495 0 1.132.522 1.405 1.51.033-.001.063-.01.095-.01h.924C6.591 1.923 5.537 1 4.5 1a.5.5 0 0 0 0 1z" fill="#BED1E6"/><path fill-rule="evenodd" d="M9 3.5v-2a.5.5 0 0 0-1 0v2h1z" fill="#BED1E6"/><path fill-rule="evenodd" d="M9.767 11.409c.206.39.233.893.233 1.091a.5.5 0 1 0 1 0c0-.264-.039-.885-.305-1.457a3.494 3.494 0 0 1-.928.366z" fill="#BED1E6"/><path fill-rule="evenodd" d="M10.695 3.957C10.96 3.385 11 2.763 11 2.5a.5.5 0 1 0-1 0c0 .197-.027.7-.233 1.091.332.074.639.205.928.366z" fill="#BED1E6"/><path fill-rule="evenodd" d="M6 11.5c-.032 0-.062-.009-.095-.01-.273.988-.91 1.51-1.405 1.51a.5.5 0 0 0 0 1c1.037 0 2.091-.923 2.424-2.5H6z" fill="#BED1E6"/><path fill-rule="evenodd" d="M8 13.5a.5.5 0 0 0 1 0v-2H8v2z" fill="#BED1E6"/></svg>