<svg ti:v="1" width="16" height="16" viewBox="0 0 16 16" xmlns="http://www.w3.org/2000/svg" xmlns:ti="urn:schemas-jetbrains-com:tisvg"><rect id="frame" width="16" height="16" fill="none"/><linearGradient id="a" x1="0" y1=".5" x2="1" y2=".5"><stop offset="0" stop-color="#FF6D2F"/><stop offset="1" stop-color="#FF9C00"/></linearGradient><path fill-rule="evenodd" d="M1 13v-3H0V7h1V4h5v3H5v3h1v3H1z" fill="url(#a)"/><linearGradient id="b" x1=".5" y1=".006" x2=".5" y2="1.014"><stop offset="0" stop-color="#37AC0D"/><stop offset="1" stop-color="#007033"/></linearGradient><path fill-rule="evenodd" d="M15 7.5L6.333 1H5v14h1.333L15 8.5v-1z" fill="url(#b)"/><linearGradient id="c" x1=".5" y1="-.015" x2=".5" y2="1.008"><stop offset="0" stop-color="#8CFF62"/><stop offset="1" stop-color="#29C672"/></linearGradient><path fill-rule="evenodd" d="M6 2v12l8-6-8-6z" fill="url(#c)"/><path fill-rule="evenodd" d="M8 6v4l3-2-3-2z" fill="#007027"/><linearGradient id="d" x1="0" y1=".5" x2="1" y2=".5"><stop offset="0" stop-color="#FFD400"/><stop offset="1" stop-color="#FFF"/></linearGradient><path fill-rule="evenodd" d="M5 11H2v1h3m0-7H2v1h3M4 9H1V8h3v1z" fill="url(#d)"/></svg>