<svg xmlns="http://www.w3.org/2000/svg" width="16" height="16" viewBox="0 0 16 16">
  <g id="TemplateClassLibrary" fill="none" fill-rule="evenodd" stroke="none" stroke-width="1">
    <path id="Fill-2" fill="#9AA7B0" d="M7,4 L8,4 L8,3 L7,3 L7,4 Z M7,11 L8,11 L8,10 L7,10 L7,11 Z M7,13 L8,13 L8,12 L7,12 L7,13 Z M6,14 L9,14 L9,2 L6,2 L6,14 Z M3,6 L4,6 L4,4 L3,4 L3,6 Z M3,11 L4,11 L4,10 L3,10 L3,11 Z M3,13 L4,13 L4,12 L3,12 L3,13 Z M2,14 L5,14 L5,3 L2,3 L2,14 Z M11,6 L13,6 L13,4 L11,4 L11,6 Z M11,11 L13,11 L13,10 L11,10 L11,11 Z M11,13 L13,13 L13,12 L11,12 L11,13 Z M10,14 L14,14 L14,3 L10,3 L10,14 Z"/>
  </g>
</svg>
