<svg xmlns="http://www.w3.org/2000/svg" width="16" height="16" viewBox="0 0 16 16">
  <g id="TemplateWPFApp" fill="none" fill-rule="evenodd" stroke="none" stroke-width="1">
    <polygon id="Fill-2" fill="#9AA7B0" points="3 2 3 8.049 4 7.834 4 5 14 5 14 12 9 12 9 13 15 13 15 2"/>
    <path id="Fill-4" fill="#40B6E0" d="M5,14.3569 L8,14.9999 L8,11.9999 L5,11.9999 L5,14.3569 Z M5,8.6429 L5,10.9999 L8,10.9999 L8,7.9999 L5,8.6429 Z M4,8.8569 L1,9.4999 L1,10.9999 L4,10.9999 L4,8.8569 Z M4,14.1429 L1,13.4999 L1,11.9999 L4,11.9999 L4,14.1429 Z"/>
  </g>
</svg>
