<svg xmlns="http://www.w3.org/2000/svg" width="16" height="16" viewBox="0 0 16 16">
  <g id="TemplateUnitTests" fill="none" fill-rule="evenodd" stroke="none" stroke-width="1">
    <path id="Fill-2" fill="#9AA7B0" d="M9,10 C9,8.344 7.657,7 6,7 L6,13 C7.657,13 9,11.656 9,10 M10,10 C10,12.209 8.209,14 6,14 C3.791,14 2,12.209 2,10 C2,7.791 3.791,6 6,6 C8.209,6 10,7.791 10,10 M14,6 C14,7.867 12.716,9.421 10.986,9.863 C10.977,9.519 10.934,9.184 10.857,8.86 C12.094,8.49 13,7.356 13,6 C13,4.344 11.657,3 10,3 L10,7.027 C9.114,5.838 7.723,5.058 6.137,5.014 C6.578,3.285 8.134,2 10,2 C12.209,2 14,3.791 14,6"/>
  </g>
</svg>
