<svg xmlns="http://www.w3.org/2000/svg" width="16" height="16" viewBox="0 0 16 16">
  <g id="TemplateAppleApp" fill="none" fill-rule="evenodd" stroke="none" stroke-width="1">
    <path id="Fill-2" fill="#9AA7B0" d="M3,2 L3,8.009 C3.006,8.009 3.012,8.009 3.018,8.01 C2.947,7.459 3.1,6.722 3.62,6.09 C3.738,5.946 3.868,5.828 4,5.721 L4,5 L5.935,5 L6.92,5 L14,5 L14,12 L8.548,12 L9,12.164 L9,12.992 L8.998,13 L15,13 L15,2 L3,2 Z"/>
    <path id="Fill-4" fill="#9AA7B0" d="M4.3916,6.7266 C4.8976,6.1136 5.6986,6.0416 5.9976,5.9996 C6.0126,6.4916 5.9646,6.9796 5.4956,7.4416 C4.9366,7.9896 4.2456,8.0056 4.0336,7.9986 C3.9576,7.7616 3.9856,7.2206 4.3916,6.7266 M4.5306,9.8126 C4.2826,9.8126 3.5276,8.9996 2.8176,8.9996 C1.9386,8.9996 0.9996,9.9916 0.9996,11.4766 C0.9996,12.7826 2.0196,14.9996 3.0316,14.9996 C3.7096,14.9996 4.0906,14.0906 4.6596,14.0906 C5.2476,14.0906 5.4836,14.9936 6.1816,14.9936 C6.9376,14.9936 7.8376,13.4906 7.9996,12.8656 C7.4386,12.6626 6.6266,12.0546 6.6266,11.2546 C6.6266,10.5736 7.1396,10.1046 7.7756,9.7046 C7.3636,9.1526 6.7176,8.9996 6.2926,8.9996 C5.6136,8.9996 4.7826,9.8126 4.5306,9.8126"/>
  </g>
</svg>
