<svg xmlns="http://www.w3.org/2000/svg" width="16" height="16" viewBox="0 0 16 16">
  <g id="TemplateWebApp" fill="none" fill-rule="evenodd" stroke="none" stroke-width="1">
    <path id="Fill-2" fill="#9AA7B0" d="M12.8994,9 L10.9554,9 C10.9824,8.674 11.0004,8.342 11.0004,8 C11.0004,7.658 10.9824,7.326 10.9554,7 L12.8994,7 C12.9644,7.323 13.0004,7.657 13.0004,8 C13.0004,8.343 12.9644,8.677 12.8994,9 M9.8974,12.622 C10.3144,11.935 10.6424,11.039 10.8264,10 L12.5784,10 C12.0584,11.186 11.0964,12.129 9.8974,12.622 M8.0004,13 C7.3804,13 6.5524,11.875 6.1874,10 L9.8124,10 C9.4474,11.875 8.6194,13 8.0004,13 M3.4214,10 L5.1744,10 C5.3584,11.039 5.6864,11.936 6.1034,12.622 C4.9044,12.129 3.9414,11.186 3.4214,10 M3.0004,8 C3.0004,7.657 3.0354,7.323 3.1004,7 L5.0454,7 C5.0174,7.326 5.0004,7.658 5.0004,8 C5.0004,8.342 5.0174,8.674 5.0454,9 L3.1004,9 C3.0354,8.677 3.0004,8.343 3.0004,8 M6.1034,3.378 C5.6864,4.064 5.3584,4.961 5.1744,6 L3.4214,6 C3.9414,4.814 4.9044,3.871 6.1034,3.378 M8.0004,3 C8.6194,3 9.4474,4.125 9.8124,6 L6.1874,6 C6.5524,4.125 7.3804,3 8.0004,3 M10.0004,8 C10.0004,8.35 9.9804,8.681 9.9524,9 L6.0474,9 C6.0194,8.681 6.0004,8.35 6.0004,8 C6.0004,7.65 6.0194,7.319 6.0474,7 L9.9524,7 C9.9804,7.319 10.0004,7.65 10.0004,8 M12.5784,6 L10.8264,6 C10.6424,4.961 10.3144,4.065 9.8974,3.378 C11.0964,3.871 12.0584,4.814 12.5784,6 M8.0004,1 C4.1334,1 1.0004,4.134 1.0004,8 C1.0004,11.866 4.1334,15 8.0004,15 C11.8664,15 15.0004,11.866 15.0004,8 C15.0004,4.134 11.8664,1 8.0004,1"/>
  </g>
</svg>
