<svg xmlns="http://www.w3.org/2000/svg" width="16" height="16" viewBox="0 0 16 16">
  <g id="TemplateAndroidApp" fill="none" fill-rule="evenodd" stroke="none" stroke-width="1">
    <path id="Fill-2" fill="#9AA7B0" d="M3,2 L3,7.686 L4,8.988 L4,5 L14,5 L14,12 L10.368,12 C10.535,12.32 10.666,12.654 10.766,13 L15,13 L15,2 L3,2 Z"/>
    <path id="Fill-4" fill="#A4C639" d="M7.4717,13.543 C7.1167,13.543 6.8287,13.255 6.8287,12.9 C6.8287,12.545 7.1167,12.257 7.4717,12.257 C7.8267,12.257 8.1147,12.545 8.1147,12.9 C8.1147,13.255 7.8267,13.543 7.4717,13.543 M3.5287,13.543 C3.1737,13.543 2.8857,13.255 2.8857,12.9 C2.8857,12.545 3.1737,12.257 3.5287,12.257 C3.8837,12.257 4.1717,12.545 4.1717,12.9 C4.1717,13.255 3.8837,13.543 3.5287,13.543 M8.3437,11.039 L9.8647,9.058 C9.9557,8.939 9.9997,8.798 9.9997,8.658 C9.9997,8.277 9.6867,8 9.3437,8 C9.1457,8 8.9507,8.089 8.8217,8.258 L7.2207,10.344 C6.6897,10.124 6.1097,10 5.4997,10 C4.8897,10 4.3097,10.124 3.7797,10.344 L2.1787,8.258 C2.0497,8.089 1.8547,8 1.6577,8 C1.3067,8 0.9997,8.283 0.9997,8.658 C0.9997,8.798 1.0447,8.939 1.1367,9.058 L2.6567,11.039 C1.6537,11.864 0.9997,13.1 0.9997,14.5 L0.9997,15 L9.9997,15 L9.9997,14.5 C9.9997,13.1 9.3467,11.864 8.3437,11.039"/>
  </g>
</svg>
