<svg width="16" height="16" viewBox="0 0 16 16" fill="none" xmlns="http://www.w3.org/2000/svg">
<path d="M14.9682 1.53702C14.953 1.27817 14.7401 1.06501 14.4815 1.04978C13.9947 1.01933 13.1733 0.988875 12.1694 1.01933C12.1238 1.01933 12.0477 1.01933 12.0021 1.01933C10.1616 1.08023 7.84949 1.30862 5.79601 2.0547C5.73517 2.06993 5.59827 2.13083 5.507 2.16129C4.41181 2.58762 3.4231 3.18144 2.66255 3.95797C0.27443 6.4246 0.487384 10.49 3.11888 13.0327C5.75038 15.5755 9.84213 15.6821 12.1998 13.185C12.4584 12.9109 12.6866 12.6064 12.9147 12.2867C15.166 8.93691 15.0443 3.19666 14.9682 1.53702Z" fill="url(#paint0_radial)"/>
<path d="M14.8769 1.50651C14.9074 1.27812 14.74 1.06495 14.5119 1.04973C14.0403 1.01928 13.2037 0.988824 12.1694 1.00405C12.1238 1.00405 12.0477 1.00405 12.0021 1.00405C10.2984 1.06495 8.16891 1.27812 6.23711 1.90239C6.20669 1.91762 6.17627 1.93284 6.16106 1.94807C6.02416 2.03943 5.85684 2.13078 5.82642 2.14601L5.81121 2.16123C5.64389 2.26782 5.47657 2.3744 5.30924 2.49621C3.13408 4.09495 2.66254 6.97269 4.25969 8.9064C5.85684 10.8401 8.89903 11.1142 11.0438 9.485C11.2719 9.30228 11.5001 9.10434 11.7131 8.89118C13.5992 6.97269 14.4358 3.72952 14.7705 2.0851C14.8009 1.88716 14.8465 1.68923 14.8769 1.50651Z" fill="url(#paint1_linear)"/>
<path d="M11.0438 9.48501C11.272 9.30229 11.5001 9.10435 11.7131 8.89119C13.5992 6.9727 14.4358 3.72953 14.7705 2.08511C14.8161 1.87195 14.8465 1.65878 14.877 1.47607C14.9074 1.29336 14.7401 1.14109 14.5575 1.18677C14.3141 1.2629 14.0099 1.35426 13.797 1.41516C12.0933 1.9633 9.90296 2.84642 8.1537 4.15587C7.39315 4.74968 6.75429 5.41963 6.37402 6.18094C5.76558 7.36858 5.64389 8.92164 6.23712 10.1702C6.26754 10.2311 6.32839 10.292 6.38923 10.3072C7.8799 10.7945 9.65959 10.5508 11.0438 9.48501Z" fill="url(#paint2_radial)"/>
<defs>
<radialGradient id="paint0_radial" cx="0" cy="0" r="1" gradientUnits="userSpaceOnUse" gradientTransform="translate(2.90645 1.99275) scale(14.6612 14.6758)">
<stop offset="0.1646" stop-color="#42FFFA"/>
<stop offset="0.539" stop-color="#07C3F2"/>
<stop offset="0.6723" stop-color="#3595F3"/>
<stop offset="0.8655" stop-color="#7D11EF"/>
<stop offset="1" stop-color="#AF1DF5"/>
</radialGradient>
<linearGradient id="paint1_linear" x1="-0.0632855" y1="-3.06566" x2="14.5374" y2="9.33252" gradientUnits="userSpaceOnUse">
<stop stop-color="#AF1DF5"/>
<stop offset="0.1194" stop-color="#A329F5"/>
<stop offset="0.349" stop-color="#3595F3"/>
<stop offset="0.5653" stop-color="#07C3F2"/>
<stop offset="0.7911" stop-color="#42FFFA"/>
</linearGradient>
<radialGradient id="paint2_radial" cx="0" cy="0" r="1" gradientUnits="userSpaceOnUse" gradientTransform="translate(11.1884 17.6228) scale(21.4142 21.4355)">
<stop offset="0.1267" stop-color="white"/>
<stop offset="0.9427" stop-color="#07C3F2" stop-opacity="0"/>
</radialGradient>
</defs>
</svg>
