<svg width="48" height="48" viewBox="0 0 48 48" fill="none" xmlns="http://www.w3.org/2000/svg">
<path d="M41.9183 7.38078C41.8792 6.71518 41.3316 6.16704 40.6667 6.12789C39.415 6.04959 37.3029 5.97128 34.7213 6.04959C34.604 6.04959 34.4084 6.04959 34.2911 6.04959C29.5583 6.2062 23.613 6.79349 18.3326 8.71198C18.1761 8.75113 17.8241 8.90775 17.5894 8.98605C14.7732 10.0823 12.2308 11.6093 10.2751 13.6061C4.13425 19.9489 4.68184 30.4027 11.4486 36.9412C18.2153 43.4797 28.7369 43.7538 34.7996 37.3327C35.4645 36.628 36.0512 35.8449 36.6379 35.0227C42.4268 26.4091 42.1139 11.6484 41.9183 7.38078Z" fill="url(#paint0_radial)"/>
<path d="M41.6836 7.30246C41.7618 6.71517 41.3316 6.16703 40.7449 6.12787C39.5323 6.04957 37.3811 5.97126 34.7213 6.01041C34.604 6.01041 34.4084 6.01041 34.2911 6.01041C29.9103 6.16703 24.4343 6.71517 19.4669 8.32043C19.3887 8.35959 19.3104 8.39874 19.2713 8.43789C18.9193 8.67281 18.489 8.90773 18.4108 8.94688L18.3717 8.98603C17.9414 9.2601 17.5112 9.53417 17.0809 9.8474C11.4876 13.9584 10.2751 21.3583 14.3821 26.3308C18.489 31.3032 26.3118 32.0079 31.8269 27.8186C32.4136 27.3487 33.0003 26.8397 33.5479 26.2916C38.398 21.3583 40.5493 13.0188 41.4098 8.79027C41.488 8.28128 41.6054 7.77229 41.6836 7.30246Z" fill="url(#paint1_linear)"/>
<path d="M31.8269 27.8186C32.4136 27.3488 33.0003 26.8398 33.5479 26.2916C38.398 21.3584 40.5493 13.0188 41.4098 8.79029C41.5271 8.24215 41.6054 7.69401 41.6836 7.22418C41.7618 6.75434 41.3316 6.36281 40.8622 6.48027C40.2364 6.67604 39.4541 6.91095 38.9065 7.06757C34.5257 8.47707 28.8933 10.7479 24.3952 14.1151C22.4395 15.642 20.7968 17.3648 19.8189 19.3224C18.2544 22.3763 17.9414 26.3699 19.4669 29.5805C19.5451 29.7371 19.7016 29.8937 19.858 29.9328C23.6912 31.1857 28.2675 30.5593 31.8269 27.8186Z" fill="url(#paint2_radial)"/>
<defs>
<radialGradient id="paint0_radial" cx="0" cy="0" r="1" gradientUnits="userSpaceOnUse" gradientTransform="translate(10.9023 8.55268) scale(37.7002 37.7377)">
<stop offset="0.1646" stop-color="#42FFFA"/>
<stop offset="0.539" stop-color="#07C3F2"/>
<stop offset="0.6723" stop-color="#3595F3"/>
<stop offset="0.8655" stop-color="#7D11EF"/>
<stop offset="1" stop-color="#AF1DF5"/>
</radialGradient>
<linearGradient id="paint1_linear" x1="3.26585" y1="-4.45456" x2="40.8104" y2="27.4265" gradientUnits="userSpaceOnUse">
<stop stop-color="#AF1DF5"/>
<stop offset="0.1194" stop-color="#A329F5"/>
<stop offset="0.349" stop-color="#3595F3"/>
<stop offset="0.5653" stop-color="#07C3F2"/>
<stop offset="0.7911" stop-color="#42FFFA"/>
</linearGradient>
<radialGradient id="paint2_radial" cx="0" cy="0" r="1" gradientUnits="userSpaceOnUse" gradientTransform="translate(32.1987 48.7443) scale(55.0651 55.12)">
<stop offset="0.1267" stop-color="white"/>
<stop offset="0.9427" stop-color="#07C3F2" stop-opacity="0"/>
</radialGradient>
</defs>
</svg>
