<svg width="128" height="128" viewBox="0 0 128 128" fill="none" xmlns="http://www.w3.org/2000/svg">
<path d="M109.791 21.5286C109.691 19.8276 108.292 18.4268 106.593 18.3268C103.394 18.1267 97.9962 17.9265 91.399 18.1267C91.0991 18.1267 90.5993 18.1267 90.2994 18.1267C78.2045 18.5269 63.011 20.0277 49.5167 24.9306C49.1168 25.0306 48.2172 25.4308 47.6175 25.631C40.4205 28.4326 33.9232 32.3348 28.9253 37.4377C13.232 53.647 14.6314 80.3623 31.9241 97.0719C49.2168 113.781 76.1054 114.482 91.5989 98.0725C93.2982 96.2714 94.7975 94.2703 96.2969 92.1691C111.091 70.1565 110.291 32.4349 109.791 21.5286Z" fill="url(#paint0_radial)"/>
<path d="M109.191 21.3285C109.391 19.8276 108.292 18.4268 106.792 18.3268C103.694 18.1267 98.1961 17.9266 91.399 18.0266C91.0991 18.0266 90.5993 18.0266 90.2994 18.0266C79.1042 18.4268 65.1101 19.8276 52.4154 23.93C52.2155 24.0301 52.0156 24.1301 51.9156 24.2302C51.016 24.8305 49.9165 25.4309 49.7166 25.5309L49.6166 25.631C48.5171 26.3314 47.4175 27.0318 46.318 27.8322C32.024 38.3383 28.9253 57.2491 39.4209 69.9564C49.9165 82.6637 69.908 84.4647 84.0021 73.7586C85.5015 72.5579 87.0008 71.2571 88.4002 69.8563C100.795 57.2491 106.293 35.9369 108.492 25.1307C108.692 23.8299 108.992 22.5292 109.191 21.3285Z" fill="url(#paint1_linear)"/>
<path d="M84.0021 73.7579C85.5015 72.5572 87.0008 71.2565 88.4002 69.8556C100.795 57.2484 106.293 35.9362 108.492 25.13C108.792 23.7292 108.992 22.3284 109.191 21.1277C109.391 19.927 108.292 18.9265 107.092 19.2266C105.493 19.7269 103.494 20.3273 102.094 20.7275C90.8992 24.3296 76.5053 30.1329 65.0101 38.7378C60.0122 42.6401 55.814 47.0426 53.315 52.0454C49.3167 59.8499 48.5171 70.0558 52.4154 78.2605C52.6153 78.6607 53.0152 79.0609 53.415 79.161C63.2109 82.3628 74.9059 80.7619 84.0021 73.7579Z" fill="url(#paint2_radial)"/>
<defs>
<radialGradient id="paint0_radial" cx="0" cy="0" r="1" gradientUnits="userSpaceOnUse" gradientTransform="translate(30.5281 24.5234) scale(96.3448 96.4408)">
<stop offset="0.1646" stop-color="#42FFFA"/>
<stop offset="0.539" stop-color="#07C3F2"/>
<stop offset="0.6723" stop-color="#3595F3"/>
<stop offset="0.8655" stop-color="#7D11EF"/>
<stop offset="1" stop-color="#AF1DF5"/>
</radialGradient>
<linearGradient id="paint1_linear" x1="11.0128" y1="-8.71721" x2="106.96" y2="72.7566" gradientUnits="userSpaceOnUse">
<stop stop-color="#AF1DF5"/>
<stop offset="0.1194" stop-color="#A329F5"/>
<stop offset="0.349" stop-color="#3595F3"/>
<stop offset="0.5653" stop-color="#07C3F2"/>
<stop offset="0.7911" stop-color="#42FFFA"/>
</linearGradient>
<radialGradient id="paint2_radial" cx="0" cy="0" r="1" gradientUnits="userSpaceOnUse" gradientTransform="translate(84.9522 127.235) scale(140.722 140.862)">
<stop offset="0.1267" stop-color="white"/>
<stop offset="0.9427" stop-color="#07C3F2" stop-opacity="0"/>
</radialGradient>
</defs>
</svg>
