<svg xmlns="http://www.w3.org/2000/svg" width="16" height="16" viewBox="0 0 16 16">
  <g id="areas">
    <rect width="16" height="16" fill="#ffe5ff" opacity="0"/>
  </g>
  <g id="icons">
    <g>
      <path d="M1,2V3.5l1,1V6L1,7V8L2,9v1.5l-1,1V13H15V2ZM14,12H2v-.086l1-1V8.587l-1-1V7.416l1-1V4.086l-1-1V3H14Z" fill="#6e6e6e" fill-rule="evenodd"/>
      <path d="M13,7.5l-3,3.005L9,9.515,11.016,7.5,9,5.485l.99-.99Zm-8.99,0L7.01,10.505,8,9.515,5.984,7.5,8,5.485,7.01,4.5Z" fill="#6e6e6e"/>
    </g>
  </g>
</svg>
