<svg xmlns="http://www.w3.org/2000/svg" width="16" height="16" viewBox="0 0 16 16">
  <g id="areas">
    <rect width="16" height="16" fill="#ffe5ff" opacity="0"/>
  </g>
  <g id="icons">
    <g>
      <path d="M16,14H0V11.086l1-1V9.415l-1-1V6.588l1-1V4.914l-1-1V1H16Z" fill="#f4f4f4" fill-rule="evenodd"/>
      <path d="M1,3.5l1,1V6L1,7V8L2,9v1.5l-1,1V13H15V2H1Z" fill="#313131" fill-rule="evenodd"/>
      <path d="M2,12v-.086l1-1V8.587l-1-1V7.416l1-1V4.086l-1-1V3H14v9Z" fill="#ebebeb" fill-rule="evenodd"/>
      <path d="M11,8H5V9h6M8,10H5v1H8m2-5H5V7h5m2-2H5V4h7Z" fill="#313131" fill-rule="evenodd"/>
    </g>
  </g>
</svg>
