<svg xmlns="http://www.w3.org/2000/svg" width="16" height="16" viewBox="0 0 16 16"><rect id="frame" width="16" height="16" fill="none"/><path fill="#6DB33F" d="M11.556 1.765c1.024.599 1.543 1.82 1.621 3.27C14.285 5.816 15 6.846 15 8c0 1.153-.716 2.183-1.823 2.966-.078 1.45-.597 2.67-1.621 3.27-1.01.59-2.293.447-3.554-.186-1.263.633-2.546.777-3.558.185-1.024-.599-1.543-1.82-1.621-3.27C1.715 10.184 1 9.154 1 8c0-1.153.716-2.183 1.823-2.966.078-1.45.597-2.67 1.621-3.27 1.011-.59 2.293-.447 3.555.187 1.263-.634 2.546-.777 3.557-.186zm.872 9.663l-.176.09a9.071 9.071 0 0 1-1.84.68 9.364 9.364 0 0 1-1.665 1.417c.922.366 1.797.4 2.455.016.67-.39 1.08-1.193 1.226-2.203zm-8.856-.001l.023.147c.163.942.566 1.685 1.203 2.057.658.385 1.533.35 2.455-.015a9.403 9.403 0 0 1-1.665-1.42 8.961 8.961 0 0 1-2.016-.77zm5.592 1.002l-.121.014a9.697 9.697 0 0 1-2.205-.013c.379.323.77.6 1.161.824.392-.223.785-.5 1.165-.825zM8 4.2c-.705 0-1.394.082-2.042.23A9.79 9.79 0 0 0 3.928 8a9.803 9.803 0 0 0 2.03 3.57 9.213 9.213 0 0 0 4.083 0A9.749 9.749 0 0 0 12.073 8a9.753 9.753 0 0 0-2.031-3.57A9.194 9.194 0 0 0 8 4.2zM3.634 9.21l-.02.106a7.82 7.82 0 0 0-.102 1.268c.377.237.801.448 1.26.625a10.239 10.239 0 0 1-1.138-2zm8.734-.002l-.057.128a10.294 10.294 0 0 1-1.082 1.873 7.276 7.276 0 0 0 1.259-.625 7.873 7.873 0 0 0-.12-1.376zM2.828 5.92l-.1.09C2.083 6.601 1.7 7.291 1.7 8c0 .744.423 1.467 1.128 2.08.042-.676.167-1.38.372-2.08a9.58 9.58 0 0 1-.372-2.08zm10.344 0a9.539 9.539 0 0 1-.345 1.988l-.026.093c.204.7.33 1.403.371 2.078C13.877 9.467 14.3 8.744 14.3 8c0-.744-.423-1.467-1.128-2.08zM8 6.5a1.5 1.5 0 1 1 0 3 1.5 1.5 0 0 1 0-3zm3.228-1.71l.084.117a10.256 10.256 0 0 1 1.054 1.884c.084-.475.124-.937.122-1.375a7.28 7.28 0 0 0-1.26-.625zm-6.456 0a7.329 7.329 0 0 0-1.26.626c-.001.329.02.67.067 1.022l.053.352.16-.352a10.39 10.39 0 0 1 .98-1.648zm4.079-2.446l-.104.04c.568.376 1.12.843 1.628 1.38l.037.039a8.964 8.964 0 0 1 2.016.77c-.146-1.011-.557-1.813-1.226-2.204-.633-.37-1.467-.352-2.351-.025zm-4.053.025c-.67.39-1.08 1.192-1.226 2.203a8.988 8.988 0 0 1 2.016-.77 9.372 9.372 0 0 1 1.665-1.417c-.922-.366-1.797-.4-2.455-.016zM8 2.746l-.11.063c-.355.212-.71.468-1.055.762a9.662 9.662 0 0 1 2.326 0c-.379-.324-.77-.601-1.161-.825z"/></svg>