<svg ti:v="1" width="16" height="16" viewBox="0 0 16 16" xmlns="http://www.w3.org/2000/svg" xmlns:ti="urn:schemas-jetbrains-com:tisvg"><rect id="frame" width="16" height="16" fill="none"/><path fill-rule="evenodd" d="M11.265 11.945L0 9.693v1.873L2.14 16h6.219l3.31-.577-.404-3.478z" fill="#FFE6FF"/><linearGradient id="a" x1=".022" y1="-.364" x2=".819" y2="1.141"><stop offset="0" stop-color="#E243E6"/><stop offset=".097" stop-color="#E243E6"/><stop offset=".152" stop-color="#9468F2"/><stop offset=".446" stop-color="#468EFF"/><stop offset=".935" stop-color="#00C9FF"/><stop offset="1" stop-color="#00C9FF"/></linearGradient><path fill-rule="evenodd" d="M0 11.567L2.139 16h6.219l3.312-.577-.406-3.478L0 9.694v1.873z" fill="url(#a)"/><path fill-rule="evenodd" d="M.344 6.782l4.33-1.033-.696-2.117L0 4.47v3.006l.344-.694z" fill="#FFE6FF"/><linearGradient id="b" x1="-.473" y1="1.37" x2=".802" y2=".078"><stop offset="0" stop-color="#E243E6"/><stop offset=".097" stop-color="#E243E6"/><stop offset=".235" stop-color="#AD54F2"/><stop offset=".968" stop-color="#7866FF"/><stop offset="1" stop-color="#7866FF"/></linearGradient><path fill-rule="evenodd" d="M0 4.47v3.006l.344-.694 4.33-1.033-.696-2.118L0 4.47z" fill="url(#b)"/><path fill-rule="evenodd" d="M11.265 11.945l3.835.767-4.014-2.306.179 1.539z" fill="#FFE6FF"/><linearGradient id="c" x1="-1.424" y1="3.293" x2=".061" y2="1.138"><stop offset="0" stop-color="#E243E6"/><stop offset=".097" stop-color="#E243E6"/><stop offset=".235" stop-color="#AD54F2"/><stop offset=".968" stop-color="#7866FF"/><stop offset="1" stop-color="#7866FF"/></linearGradient><path fill-rule="evenodd" d="M11.264 11.945l3.836.766-4.015-2.305.179 1.539z" fill="url(#c)"/><path fill-rule="evenodd" d="M5.07 6.951l-.396-1.202-4.33 1.033L0 7.476v2.217l11.265 2.252-.18-1.539L5.07 6.951z" fill="#FFE6FF"/><linearGradient id="d" x1=".145" y1=".049" x2=".97" y2="1.582"><stop offset="0" stop-color="#E243E6"/><stop offset=".097" stop-color="#E243E6"/><stop offset=".152" stop-color="#9468F2"/><stop offset=".446" stop-color="#468EFF"/><stop offset=".935" stop-color="#00C9FF"/><stop offset="1" stop-color="#00C9FF"/></linearGradient><path fill-rule="evenodd" d="M.344 6.782L0 7.476v2.218l11.264 2.251-.179-1.539L5.07 6.951l-.396-1.202-4.33 1.033z" fill="url(#d)"/><linearGradient id="e" x1=".116" y1="1.189" x2=".645" y2=".387"><stop offset="0" stop-color="#E243E6"/><stop offset=".097" stop-color="#E243E6"/><stop offset=".235" stop-color="#AD54F2"/><stop offset=".968" stop-color="#7866FF"/><stop offset="1" stop-color="#7866FF"/></linearGradient><path fill-rule="evenodd" d="M.344 6.782L0 7.476v2.218l11.264 2.251-.179-1.539L5.07 6.951l-.396-1.202-4.33 1.033z" fill="url(#e)"/><path fill-rule="evenodd" d="M12.452 4.905l3.477 2.2-.83 5.607.9-2.68V6.025l-1.607-1.658-1.94.538z" fill="#FFE6FF"/><linearGradient id="f" x1="-.139" y1="-.28" x2="1.057" y2=".759"><stop offset="0" stop-color="#E243E6"/><stop offset=".199" stop-color="#E243E6"/><stop offset=".641" stop-color="#AD54F2"/><stop offset=".887" stop-color="#7866FF"/><stop offset="1" stop-color="#7866FF"/></linearGradient><path fill-rule="evenodd" d="M12.452 4.905l3.477 2.2-.829 5.606.9-2.679V6.025l-1.608-1.658-1.94.538z" fill="url(#f)"/><path fill-rule="evenodd" d="M12.452 4.905l-1.945.539.579 4.962 4.014 2.306.829-5.607-3.477-2.2z" fill="#FFE6FF"/><linearGradient id="g" x1="-1.195" y1="1.471" x2="-.095" y2=".835"><stop offset="0" stop-color="#E243E6"/><stop offset=".097" stop-color="#E243E6"/><stop offset=".235" stop-color="#AD54F2"/><stop offset=".968" stop-color="#7866FF"/><stop offset="1" stop-color="#7866FF"/></linearGradient><path fill-rule="evenodd" d="M10.507 5.444l.578 4.962 4.015 2.305.829-5.606-3.477-2.2-1.945.539z" fill="url(#g)"/><linearGradient id="h" x1=".008" y1="-.281" x2=".791" y2=".83"><stop offset="0" stop-color="#E243E6"/><stop offset=".199" stop-color="#E243E6"/><stop offset=".641" stop-color="#AD54F2"/><stop offset=".887" stop-color="#7866FF"/><stop offset="1" stop-color="#7866FF"/></linearGradient><path fill-rule="evenodd" d="M10.507 5.444l.578 4.962 4.015 2.305.829-5.606-3.477-2.2-1.945.539z" fill="url(#h)"/><path fill-rule="evenodd" d="M11.085 10.406l-.578-4.962L5.07 6.951l6.016 3.455z" fill="#FFE6FF"/><linearGradient id="i" x1="-.061" y1="-.483" x2="1.485" y2="1.43"><stop offset="0" stop-color="#E243E6"/><stop offset=".097" stop-color="#E243E6"/><stop offset=".152" stop-color="#9468F2"/><stop offset=".446" stop-color="#468EFF"/><stop offset=".935" stop-color="#00C9FF"/><stop offset="1" stop-color="#00C9FF"/></linearGradient><path fill-rule="evenodd" d="M5.07 6.951l6.015 3.455-.578-4.962L5.07 6.951z" fill="url(#i)"/><linearGradient id="j" x1="-.528" y1="1.69" x2=".463" y2=".689"><stop offset="0" stop-color="#E243E6"/><stop offset=".097" stop-color="#E243E6"/><stop offset=".235" stop-color="#AD54F2"/><stop offset=".968" stop-color="#7866FF"/><stop offset="1" stop-color="#7866FF"/></linearGradient><path fill-rule="evenodd" d="M5.07 6.951l6.015 3.455-.578-4.962L5.07 6.951z" fill="url(#j)"/><linearGradient id="k" x1=".312" y1="-.195" x2="1.018" y2="1.553"><stop offset="0" stop-color="#E243E6"/><stop offset=".199" stop-color="#E243E6"/><stop offset=".641" stop-color="#AD54F2"/><stop offset=".887" stop-color="#7866FF"/><stop offset="1" stop-color="#7866FF"/></linearGradient><path fill-rule="evenodd" d="M5.07 6.951l6.015 3.455-.578-4.962L5.07 6.951z" fill="url(#k)"/><path fill-rule="evenodd" d="M14.392 4.367l1.203-.333L15.027 0h-4.87l4.235 4.367z" fill="#FFE6FF"/><linearGradient id="l" x1="-1.093" y1=".947" x2=".867" y2=".356"><stop offset="0" stop-color="#E243E6"/><stop offset=".097" stop-color="#E243E6"/><stop offset=".638" stop-color="#7186F2"/><stop offset=".941" stop-color="#00C9FF"/><stop offset="1" stop-color="#00C9FF"/></linearGradient><path fill-rule="evenodd" d="M10.157 0l4.235 4.367 1.203-.333L15.027 0h-4.87z" fill="url(#l)"/><path fill-rule="evenodd" d="M3.978 3.632L8.825 2.61l3.627 2.295 1.94-.538L10.157 0H5.885l-2.82.854.913 2.778z" fill="#FFE6FF"/><linearGradient id="m" x1=".519" y1=".714" x2=".893" y2="2.482"><stop offset="0" stop-color="#E243E6"/><stop offset=".199" stop-color="#E243E6"/><stop offset=".641" stop-color="#AD54F2"/><stop offset=".887" stop-color="#7866FF"/><stop offset="1" stop-color="#7866FF"/></linearGradient><path fill-rule="evenodd" d="M5.884 0l-2.82.854.914 2.777L8.825 2.61l3.627 2.295 1.94-.538L10.157 0H5.884z" fill="url(#m)"/><linearGradient id="n" x1=".092" y1=".75" x2="1.033" y2=".223"><stop offset="0" stop-color="#E243E6"/><stop offset=".097" stop-color="#E243E6"/><stop offset=".638" stop-color="#7186F2"/><stop offset=".941" stop-color="#00C9FF"/><stop offset="1" stop-color="#00C9FF"/></linearGradient><path fill-rule="evenodd" d="M5.884 0l-2.82.854.914 2.777L8.825 2.61l3.627 2.295 1.94-.538L10.157 0H5.884z" fill="url(#n)"/><path fill-rule="evenodd" d="M10.507 5.444l1.945-.539L8.825 2.61 3.977 3.632l.697 2.117 5.71-1.362.123 1.057z" fill="#FFE6FF"/><linearGradient id="o" x1="-.495" y1="2.767" x2=".209" y2="1.184"><stop offset="0" stop-color="#E243E6"/><stop offset=".097" stop-color="#E243E6"/><stop offset=".235" stop-color="#AD54F2"/><stop offset=".968" stop-color="#7866FF"/><stop offset="1" stop-color="#7866FF"/></linearGradient><path fill-rule="evenodd" d="M3.978 3.631l.696 2.118 5.71-1.363.123 1.058 1.945-.539L8.825 2.61 3.978 3.631z" fill="url(#o)"/><linearGradient id="p" x1=".465" y1=".444" x2=".965" y2="3.207"><stop offset="0" stop-color="#E243E6"/><stop offset=".199" stop-color="#E243E6"/><stop offset=".641" stop-color="#AD54F2"/><stop offset=".887" stop-color="#7866FF"/><stop offset="1" stop-color="#7866FF"/></linearGradient><path fill-rule="evenodd" d="M3.978 3.631l.696 2.118 5.71-1.363.123 1.058 1.945-.539L8.825 2.61 3.978 3.631z" fill="url(#p)"/><linearGradient id="q" x1=".059" y1=".828" x2="1.317" y2=".005"><stop offset="0" stop-color="#E243E6"/><stop offset=".097" stop-color="#E243E6"/><stop offset=".638" stop-color="#7186F2"/><stop offset=".941" stop-color="#00C9FF"/><stop offset="1" stop-color="#00C9FF"/></linearGradient><path fill-rule="evenodd" d="M3.978 3.631l.696 2.118 5.71-1.363.123 1.058 1.945-.539L8.825 2.61 3.978 3.631z" fill="url(#q)"/><path fill-rule="evenodd" d="M10.507 5.444l-.123-1.057-5.71 1.362.395 1.202 5.438-1.507z" fill="#FFE6FF"/><linearGradient id="r" x1=".045" y1="-.611" x2="1.639" y2="3.09"><stop offset="0" stop-color="#E243E6"/><stop offset=".097" stop-color="#E243E6"/><stop offset=".152" stop-color="#9468F2"/><stop offset=".446" stop-color="#468EFF"/><stop offset=".935" stop-color="#00C9FF"/><stop offset="1" stop-color="#00C9FF"/></linearGradient><path fill-rule="evenodd" d="M4.674 5.749l.396 1.202 5.437-1.507-.123-1.058-5.71 1.363z" fill="url(#r)"/><linearGradient id="s" x1="-.77" y1="2.879" x2=".252" y2=".942"><stop offset="0" stop-color="#E243E6"/><stop offset=".097" stop-color="#E243E6"/><stop offset=".235" stop-color="#AD54F2"/><stop offset=".968" stop-color="#7866FF"/><stop offset="1" stop-color="#7866FF"/></linearGradient><path fill-rule="evenodd" d="M4.674 5.749l.396 1.202 5.437-1.507-.123-1.058-5.71 1.363z" fill="url(#s)"/><linearGradient id="t" x1=".417" y1=".006" x2="1.144" y2="3.387"><stop offset="0" stop-color="#E243E6"/><stop offset=".199" stop-color="#E243E6"/><stop offset=".641" stop-color="#AD54F2"/><stop offset=".887" stop-color="#7866FF"/><stop offset="1" stop-color="#7866FF"/></linearGradient><path fill-rule="evenodd" d="M4.674 5.749l.396 1.202 5.437-1.507-.123-1.058-5.71 1.363z" fill="url(#t)"/><linearGradient id="u" x1=".014" y1=".776" x2="1.842" y2="-.231"><stop offset="0" stop-color="#E243E6"/><stop offset=".097" stop-color="#E243E6"/><stop offset=".638" stop-color="#7186F2"/><stop offset=".941" stop-color="#00C9FF"/><stop offset="1" stop-color="#00C9FF"/></linearGradient><path fill-rule="evenodd" d="M4.674 5.749l.396 1.202 5.437-1.507-.123-1.058-5.71 1.363z" fill="url(#u)"/><path fill-rule="evenodd" d="M2 14h12V2H2v12z" fill="#313131"/><path fill-rule="evenodd" d="M8 12H3v-1h5v1z" fill="#FFF"/><path fill-rule="evenodd" d="M4.075 3.993v3.014h.83c.878 0 1.471-.607 1.471-1.493V5.5c0-.886-.593-1.507-1.472-1.507M3 3h1.904C6.44 3 7.5 4.079 7.5 5.486V5.5C7.5 6.907 6.44 8 4.904 8H3V3z" fill="#FFF"/><path fill-rule="evenodd" d="M9.993 5.521c.556 0 .88-.329.88-.757V4.75c0-.493-.346-.758-.902-.758h-.86v1.529M8 3h2.065C11.27 3 12 3.707 12 4.728v.014C12 5.9 11.09 6.5 9.957 6.5h-.845V8H8V3z" fill="#FFF"/></svg>