<svg ti:v="1" width="16" height="16" viewBox="0 0 16 16" xmlns="http://www.w3.org/2000/svg" xmlns:ti="urn:schemas-jetbrains-com:tisvg"><rect id="frame" width="16" height="16" fill="none"/><path fill-rule="evenodd" d="M2 8.893v3.745L2.657 14h9.964l-.356-3.055L2 8.893z" fill="#FFE6FF"/><linearGradient id="a" x1="-.058" y1="-.513" x2=".818" y2="1.346"><stop offset="0" stop-color="#E243E6"/><stop offset=".097" stop-color="#E243E6"/><stop offset=".152" stop-color="#9468F2"/><stop offset=".446" stop-color="#468EFF"/><stop offset=".935" stop-color="#00C9FF"/><stop offset="1" stop-color="#00C9FF"/></linearGradient><path fill-rule="evenodd" d="M2 8.893v3.746L2.657 14h9.964l-.356-3.055L2 8.893z" fill="url(#a)"/><path fill-rule="evenodd" d="M5.674 4.749l-.696-2.117L2 3.259v2.367l3.674-.877z" fill="#FFE6FF"/><linearGradient id="b" x1="-.832" y1="1.821" x2=".79" y2=".162"><stop offset="0" stop-color="#E243E6"/><stop offset=".097" stop-color="#E243E6"/><stop offset=".235" stop-color="#AD54F2"/><stop offset=".968" stop-color="#7866FF"/><stop offset="1" stop-color="#7866FF"/></linearGradient><path fill-rule="evenodd" d="M5.674 4.749l-.696-2.117L2 3.259v2.366l3.674-.876z" fill="url(#b)"/><path fill-rule="evenodd" d="M12.085 9.406l.18 1.539 3.735.747v-.038l-3.915-2.248z" fill="#FFE6FF"/><linearGradient id="c" x1="-1.467" y1="3.307" x2=".056" y2="1.134"><stop offset="0" stop-color="#E243E6"/><stop offset=".097" stop-color="#E243E6"/><stop offset=".235" stop-color="#AD54F2"/><stop offset=".968" stop-color="#7866FF"/><stop offset="1" stop-color="#7866FF"/></linearGradient><path fill-rule="evenodd" d="M12.085 9.406l.18 1.539 3.735.747v-.038l-3.915-2.248z" fill="url(#c)"/><path fill-rule="evenodd" d="M5.674 4.749L2 5.626v3.267l10.265 2.052-.18-1.539L6.07 5.951l-.395-1.202z" fill="#FFE6FF"/><linearGradient id="d" x1=".081" y1=".017" x2=".987" y2="1.549"><stop offset="0" stop-color="#E243E6"/><stop offset=".097" stop-color="#E243E6"/><stop offset=".152" stop-color="#9468F2"/><stop offset=".446" stop-color="#468EFF"/><stop offset=".935" stop-color="#00C9FF"/><stop offset="1" stop-color="#00C9FF"/></linearGradient><path fill-rule="evenodd" d="M5.674 4.749L2 5.625v3.268l10.265 2.052-.18-1.539-6.016-3.455-.395-1.202z" fill="url(#d)"/><linearGradient id="e" x1=".039" y1="1.208" x2=".619" y2=".406"><stop offset="0" stop-color="#E243E6"/><stop offset=".097" stop-color="#E243E6"/><stop offset=".235" stop-color="#AD54F2"/><stop offset=".968" stop-color="#7866FF"/><stop offset="1" stop-color="#7866FF"/></linearGradient><path fill-rule="evenodd" d="M5.674 4.749L2 5.625v3.268l10.265 2.052-.18-1.539-6.016-3.455-.395-1.202z" fill="url(#e)"/><path fill-rule="evenodd" d="M13.452 3.905L16 5.517V3.994l-.608-.627-1.94.538z" fill="#FFE6FF"/><linearGradient id="f" x1="-.087" y1="-1.15" x2="1.578" y2="2.883"><stop offset="0" stop-color="#E243E6"/><stop offset=".199" stop-color="#E243E6"/><stop offset=".641" stop-color="#AD54F2"/><stop offset=".887" stop-color="#7866FF"/><stop offset="1" stop-color="#7866FF"/></linearGradient><path fill-rule="evenodd" d="M13.452 3.905L16 5.517V3.994l-.608-.627-1.94.538z" fill="url(#f)"/><path fill-rule="evenodd" d="M11.507 4.444l.578 4.962L16 11.655V5.517l-2.548-1.612-1.945.539z" fill="#FFE6FF"/><linearGradient id="g" x1="-1.449" y1="1.477" x2="-.123" y2=".836"><stop offset="0" stop-color="#E243E6"/><stop offset=".097" stop-color="#E243E6"/><stop offset=".235" stop-color="#AD54F2"/><stop offset=".968" stop-color="#7866FF"/><stop offset="1" stop-color="#7866FF"/></linearGradient><path fill-rule="evenodd" d="M11.507 4.444l.578 4.962L16 11.654V5.517l-2.548-1.612-1.945.539z" fill="url(#g)"/><linearGradient id="h" x1="-.048" y1="-.266" x2=".897" y2=".853"><stop offset="0" stop-color="#E243E6"/><stop offset=".199" stop-color="#E243E6"/><stop offset=".641" stop-color="#AD54F2"/><stop offset=".887" stop-color="#7866FF"/><stop offset="1" stop-color="#7866FF"/></linearGradient><path fill-rule="evenodd" d="M11.507 4.444l.578 4.962L16 11.654V5.517l-2.548-1.612-1.945.539z" fill="url(#h)"/><path fill-rule="evenodd" d="M6.07 5.951l6.015 3.455-.578-4.962L6.07 5.951z" fill="#FFE6FF"/><linearGradient id="i" x1="-.061" y1="-.483" x2="1.485" y2="1.43"><stop offset="0" stop-color="#E243E6"/><stop offset=".097" stop-color="#E243E6"/><stop offset=".152" stop-color="#9468F2"/><stop offset=".446" stop-color="#468EFF"/><stop offset=".935" stop-color="#00C9FF"/><stop offset="1" stop-color="#00C9FF"/></linearGradient><path fill-rule="evenodd" d="M6.069 5.951l6.016 3.455-.578-4.962-5.438 1.507z" fill="url(#i)"/><linearGradient id="j" x1="-.527" y1="1.69" x2=".464" y2=".689"><stop offset="0" stop-color="#E243E6"/><stop offset=".097" stop-color="#E243E6"/><stop offset=".235" stop-color="#AD54F2"/><stop offset=".968" stop-color="#7866FF"/><stop offset="1" stop-color="#7866FF"/></linearGradient><path fill-rule="evenodd" d="M6.069 5.951l6.016 3.455-.578-4.962-5.438 1.507z" fill="url(#j)"/><linearGradient id="k" x1=".312" y1="-.195" x2="1.018" y2="1.553"><stop offset="0" stop-color="#E243E6"/><stop offset=".199" stop-color="#E243E6"/><stop offset=".641" stop-color="#AD54F2"/><stop offset=".887" stop-color="#7866FF"/><stop offset="1" stop-color="#7866FF"/></linearGradient><path fill-rule="evenodd" d="M6.069 5.951l6.016 3.455-.578-4.962-5.438 1.507z" fill="url(#k)"/><path fill-rule="evenodd" d="M12.127 0l3.265 3.367.608-.168V0h-3.873z" fill="#FFE6FF"/><linearGradient id="l" x1="-1.748" y1="1.105" x2="1.004" y2=".338"><stop offset="0" stop-color="#E243E6"/><stop offset=".097" stop-color="#E243E6"/><stop offset=".638" stop-color="#7186F2"/><stop offset=".941" stop-color="#00C9FF"/><stop offset="1" stop-color="#00C9FF"/></linearGradient><path fill-rule="evenodd" d="M12.127 0l3.265 3.367.608-.168V0h-3.873z" fill="url(#l)"/><path fill-rule="evenodd" d="M9.825 1.61l3.627 2.295 1.94-.538L12.127 0H4.112l.866 2.632L9.825 1.61z" fill="#FFE6FF"/><linearGradient id="m" x1=".517" y1=".641" x2=".893" y2="2.862"><stop offset="0" stop-color="#E243E6"/><stop offset=".199" stop-color="#E243E6"/><stop offset=".641" stop-color="#AD54F2"/><stop offset=".887" stop-color="#7866FF"/><stop offset="1" stop-color="#7866FF"/></linearGradient><path fill-rule="evenodd" d="M9.825 1.61l3.627 2.295 1.94-.538L12.127 0H4.113l.865 2.632L9.825 1.61z" fill="url(#m)"/><linearGradient id="n" x1=".091" y1=".726" x2="1.036" y2=".064"><stop offset="0" stop-color="#E243E6"/><stop offset=".097" stop-color="#E243E6"/><stop offset=".638" stop-color="#7186F2"/><stop offset=".941" stop-color="#00C9FF"/><stop offset="1" stop-color="#00C9FF"/></linearGradient><path fill-rule="evenodd" d="M9.825 1.61l3.627 2.295 1.94-.538L12.127 0H4.113l.865 2.632L9.825 1.61z" fill="url(#n)"/><path fill-rule="evenodd" d="M11.507 4.444l1.945-.539L9.825 1.61 4.977 2.632l.697 2.117 5.71-1.362.123 1.057z" fill="#FFE6FF"/><linearGradient id="o" x1="-.495" y1="2.767" x2=".209" y2="1.184"><stop offset="0" stop-color="#E243E6"/><stop offset=".097" stop-color="#E243E6"/><stop offset=".235" stop-color="#AD54F2"/><stop offset=".968" stop-color="#7866FF"/><stop offset="1" stop-color="#7866FF"/></linearGradient><path fill-rule="evenodd" d="M11.507 4.444l1.945-.539L9.825 1.61 4.978 2.632l.696 2.117 5.71-1.363.123 1.058z" fill="url(#o)"/><linearGradient id="p" x1=".465" y1=".444" x2=".965" y2="3.207"><stop offset="0" stop-color="#E243E6"/><stop offset=".199" stop-color="#E243E6"/><stop offset=".641" stop-color="#AD54F2"/><stop offset=".887" stop-color="#7866FF"/><stop offset="1" stop-color="#7866FF"/></linearGradient><path fill-rule="evenodd" d="M11.507 4.444l1.945-.539L9.825 1.61 4.978 2.632l.696 2.117 5.71-1.363.123 1.058z" fill="url(#p)"/><linearGradient id="q" x1=".059" y1=".828" x2="1.317" y2=".005"><stop offset="0" stop-color="#E243E6"/><stop offset=".097" stop-color="#E243E6"/><stop offset=".638" stop-color="#7186F2"/><stop offset=".941" stop-color="#00C9FF"/><stop offset="1" stop-color="#00C9FF"/></linearGradient><path fill-rule="evenodd" d="M11.507 4.444l1.945-.539L9.825 1.61 4.978 2.632l.696 2.117 5.71-1.363.123 1.058z" fill="url(#q)"/><path fill-rule="evenodd" d="M11.507 4.444l-.123-1.057-5.71 1.362.395 1.202 5.438-1.507z" fill="#FFE6FF"/><linearGradient id="r" x1=".045" y1="-.611" x2="1.639" y2="3.09"><stop offset="0" stop-color="#E243E6"/><stop offset=".097" stop-color="#E243E6"/><stop offset=".152" stop-color="#9468F2"/><stop offset=".446" stop-color="#468EFF"/><stop offset=".935" stop-color="#00C9FF"/><stop offset="1" stop-color="#00C9FF"/></linearGradient><path fill-rule="evenodd" d="M11.507 4.444l-.123-1.058-5.71 1.363.395 1.202 5.438-1.507z" fill="url(#r)"/><linearGradient id="s" x1="-.77" y1="2.879" x2=".252" y2=".942"><stop offset="0" stop-color="#E243E6"/><stop offset=".097" stop-color="#E243E6"/><stop offset=".235" stop-color="#AD54F2"/><stop offset=".968" stop-color="#7866FF"/><stop offset="1" stop-color="#7866FF"/></linearGradient><path fill-rule="evenodd" d="M11.507 4.444l-.123-1.058-5.71 1.363.395 1.202 5.438-1.507z" fill="url(#s)"/><linearGradient id="t" x1=".417" y1=".006" x2="1.144" y2="3.387"><stop offset="0" stop-color="#E243E6"/><stop offset=".199" stop-color="#E243E6"/><stop offset=".641" stop-color="#AD54F2"/><stop offset=".887" stop-color="#7866FF"/><stop offset="1" stop-color="#7866FF"/></linearGradient><path fill-rule="evenodd" d="M11.507 4.444l-.123-1.058-5.71 1.363.395 1.202 5.438-1.507z" fill="url(#t)"/><linearGradient id="u" x1=".014" y1=".776" x2="1.842" y2="-.231"><stop offset="0" stop-color="#E243E6"/><stop offset=".097" stop-color="#E243E6"/><stop offset=".638" stop-color="#7186F2"/><stop offset=".941" stop-color="#00C9FF"/><stop offset="1" stop-color="#00C9FF"/></linearGradient><path fill-rule="evenodd" d="M11.507 4.444l-.123-1.058-5.71 1.363.395 1.202 5.438-1.507z" fill="url(#u)"/><path fill-rule="evenodd" d="M3 13h12V1H3v12z"/><path fill-rule="evenodd" d="M4 11h5v-1H4v1z" fill="#FFF"/><path fill-rule="evenodd" d="M5.075 2.993v3.014h.83c.879 0 1.471-.607 1.471-1.493V4.5c0-.886-.592-1.507-1.472-1.507M4.001 2h1.903C7.44 2 8.501 3.079 8.501 4.486V4.5C8.5 5.907 7.439 7 5.904 7H4.001V2z" fill="#FFF"/><path fill-rule="evenodd" d="M10.993 4.521c.556 0 .88-.329.88-.757V3.75c0-.493-.346-.758-.902-.758h-.86v1.529M9 2h2.065C12.27 2 13 2.707 13 3.728v.014C13 4.9 12.09 5.5 10.957 5.5h-.845V7H9V2z" fill="#FFF"/><linearGradient id="v" x1=".5" y1="0" x2=".5" y2="1"><stop offset="0" stop-color="#7C2C00"/><stop offset="1" stop-color="#470000"/></linearGradient><path fill-rule="evenodd" d="M0 11a5 5 0 1 0 10 0 5 5 0 1 0-10 0z" fill="url(#v)"/><linearGradient id="w" x1=".5" y1=".021" x2=".5" y2="1"><stop offset="0" stop-color="#FF7B00"/><stop offset="1" stop-color="red"/></linearGradient><path fill-rule="evenodd" d="M1 11a4 4 0 0 0 8 0 4 4 0 0 0-8 0z" fill="url(#w)"/><path fill-rule="evenodd" d="M8 12H2v-2h6v2z" fill="#FFF"/></svg>