<svg ti:v="1" width="16" height="16" viewBox="0 0 16 16" xmlns="http://www.w3.org/2000/svg" xmlns:ti="urn:schemas-jetbrains-com:tisvg"><rect id="frame" width="16" height="16" fill="none"/><g fill-rule="evenodd"><path d="M2 15V1h7.414L14 5.586V15H2z" fill="#F4F4F4"/><path d="M9 2H3v12h10V6L9 2z" fill="#313131"/><path d="M9 6V4H5v8h6V6H9z" fill="#EBEBEB"/><path d="M10 11a5 5 0 0 1-5 5 5 5 0 0 1-5-5 5 5 0 0 1 5-5 5 5 0 0 1 5 5z" fill="#F4F4F4"/><path d="M9 11a4 4 0 1 1-8 0 4 4 0 0 1 8 0z" fill="#A1260C"/><path d="M8 12H2v-2h6v2z" fill="#FFF"/></g></svg>