<svg xmlns="http://www.w3.org/2000/svg" width="16" height="16" viewBox="0 0 16 16">
  <g fill="none" fill-rule="evenodd">
    <path fill="#F0A732" d="M14.4210116,2 C14.9732964,2 15.4210116,2.44771525 15.4210116,3 C15.4210116,3.18505978 15.3696593,3.36648973 15.2726699,3.52409743 L14.979,4 L1.441,4 L1.14848214,3.52409743 C0.859031122,3.05373953 1.00568513,2.4377927 1.47604303,2.14834168 C1.63365073,2.05135233 1.81508068,2 2.00014045,2 L14.4210116,2 Z" opacity=".5"/>
    <path fill="#F0A732" d="M4.21057603,4 L8.21057603,11 L9.353,9 L11.903,9 L9.06223435,13.6160552 C8.77278333,14.0864131 8.1568365,14.2330671 7.6864786,13.9436161 C7.55315816,13.8615728 7.44096106,13.7493757 7.35891771,13.6160552 L1.441,4 L4.21057603,4 Z"/>
  </g>
</svg>
