<svg xmlns="http://www.w3.org/2000/svg" width="16" height="16" viewBox="0 0 16 16">
  <g fill="none" fill-rule="evenodd">
    <path fill="#EDA200" d="M8,1.999 L8,3.999 L4.21057603,4 L8,10.632 L8.00024399,14.0698666 C7.89211738,14.0466108 7.78603666,14.0048826 7.6864786,13.9436161 C7.55315816,13.8615728 7.44096106,13.7493757 7.35891771,13.6160552 L1.14848214,3.52409743 C0.859031122,3.05373953 1.00568513,2.4377927 1.47604303,2.14834168 C1.63365073,2.05135233 1.81508068,2 2.00014045,2 L8,1.999 Z"/>
    <path fill="#EDA200" d="M14.4210116,2 C14.9732964,2 15.4210116,2.44771525 15.4210116,3 C15.4210116,3.18505978 15.3696593,3.36648973 15.2726699,3.52409743 L12.518,8 L9.924,8 L12.210576,4 L8,4 L8,2 L14.4210116,2 Z" opacity=".5"/>
  </g>
</svg>
