<svg xmlns="http://www.w3.org/2000/svg" width="16" height="16" viewBox="0 0 16 16">
  <g id="analysingWarnings5" fill="none" fill-rule="evenodd" stroke="none" stroke-width="1">
    <path id="Fill-2" fill="#9AA7B0" d="M2,8 C2,5.333 3.74,3.076 6.146,2.295 L5.838,1.344 C3.001,2.266 1,4.947 1,8 C1,11.087 3.033,13.745 5.838,14.655 L6.146,13.705 C3.74,12.924 2,10.667 2,8" opacity=".7"/>
    <g id="Group" fill="#F4AF3D" transform="translate(7 1)">
      <path id="Fill-4" d="M1,0 L1,1.5 C4.038,1.5 6.5,3.962 6.5,7 C6.5,10.038 4.038,12.5 1,12.5 L1,14 C4.848,14 8,10.855 8,7 C8,3.149 4.851,0 1,0"/>
      <polygon id="Path" points="0 11 2 11 2 9 0 9"/>
      <polygon id="Path" points="1.5 8 .5 8 0 3 2 3"/>
    </g>
  </g>
</svg>
