<svg xmlns="http://www.w3.org/2000/svg" width="16" height="16" viewBox="0 0 16 16">
  <g id="analyzingNoErrors4" fill="none" fill-rule="evenodd" stroke="none" stroke-width="1">
    <path id="Fill-2" fill="#9AA7B0" d="M8,14 C4.686,14 2,11.314 2,8 C2,5.333 3.74,3.076 6.146,2.295 L5.838,1.345 C3.001,2.266 1,4.946 1,8 C1,11.835 4.132,15 8,15 C8.755,15 9.48,14.877 10.162,14.655 L9.854,13.705 C9.27,13.895 8.647,14 8,14" opacity=".7"/>
    <g id="Group" fill="#62B543" transform="translate(4.4 1)">
      <path id="Fill-4" d="M3.5996,-3.73034936e-14 L3.5996,1.5 C6.6376,1.5 9.0996,3.962 9.0996,7 C9.0996,8.829 8.2036,10.445 6.8286,11.445 L7.7096,12.657 C9.4726,11.375 10.5996,9.296 10.5996,7 C10.5996,3.133 7.4356,-3.73034936e-14 3.5996,-3.73034936e-14"/>
      <path id="Fill-6" d="M2,10 L4,10 L7.218,3.564 C6.8,3.124 6.302,2.768 5.748,2.503 L3,8 L2,6 L3.68594044e-14,6 L2,10 Z"/>
    </g>
  </g>
</svg>
