<svg xmlns="http://www.w3.org/2000/svg" width="16" height="16" viewBox="0 0 16 16">
  <g id="analysingWarnings1" fill="none" fill-rule="evenodd" stroke="none" stroke-width="1">
    <path id="Fill-2" fill="#9AA7B0" d="M13.6572,3.8896 L12.8492,4.4766 C13.5702,5.4666 14.0002,6.6816 14.0002,7.9996 C14.0002,11.3136 11.3142,13.9996 8.0002,13.9996 C4.6852,13.9996 2.0002,11.3136 2.0002,7.9996 C2.0002,5.3336 3.7402,3.0766 6.1462,2.2946 L5.8382,1.3446 C3.0012,2.2656 1.0002,4.9466 1.0002,7.9996 C1.0002,11.8346 4.1322,14.9996 8.0002,14.9996 C11.8472,14.9996 15.0002,11.8556 15.0002,7.9996 C15.0002,6.5776 14.5652,5.1376 13.6572,3.8896" opacity=".7"/>
    <path id="Fill-6" fill="#F4AF3D" d="M7,12 L9,12 L9,10 L7,10 L7,12 Z M8.5,9 L7.5,9 L7,4 L9,4 L8.5,9 Z M12.1104,2.3428 L11.2294,3.5548 C10.3224,2.8938 9.2094,2.4998 8.0004,2.4998 L8.0004,0.9998 C9.4224,0.9998 10.8634,1.4348 12.1104,2.3428 Z"/>
  </g>
</svg>
