<svg xmlns="http://www.w3.org/2000/svg" width="16" height="16" viewBox="0 0 16 16">
  <g id="analysingWarnings6" fill="none" fill-rule="evenodd" stroke="none" stroke-width="1">
    <path id="Fill-2" fill="#9AA7B0" d="M2,8 C2,5.333 3.74,3.076 6.146,2.295 L5.838,1.345 C3.001,2.266 1,4.946 1,8 C1,9.445 1.447,10.881 2.343,12.11 L3.15,11.523 C2.43,10.533 2,9.318 2,8" opacity=".7"/>
    <g id="Group" fill="#F4AF3D" transform="translate(3.89 1)">
      <path id="Fill-4" d="M4.11,0 L4.11,1.5 C7.148,1.5 9.61,3.962 9.61,7 C9.61,10.038 7.148,12.5 4.11,12.5 C2.901,12.5 1.788,12.105 0.881,11.445 L6.39488462e-14,12.657 C1.247,13.565 2.688,14 4.11,14 C7.958,14 11.11,10.855 11.11,7 C11.11,3.148 7.961,0 4.11,0"/>
      <polygon id="Path" points="3.11 11 5.11 11 5.11 9 3.11 9"/>
      <polygon id="Path" points="4.61 8 3.61 8 3.11 3 5.11 3"/>
    </g>
  </g>
</svg>
