<svg xmlns="http://www.w3.org/2000/svg" width="16" height="16" viewBox="0 0 16 16">
  <g id="analyzingNoErrors7" fill="none" fill-rule="evenodd" stroke="none" stroke-width="1">
    <path id="Fill-2" fill="#9AA7B0" d="M6.1465,2.2949 L5.8375,1.3449 C3.0005,2.2659 1.0005,4.9459 1.0005,7.9999 L2.0005,7.9999 C2.0005,5.3329 3.7405,3.0759 6.1465,2.2949" opacity=".7"/>
    <g id="Group" fill="#62B543" transform="translate(1.344 1)">
      <path id="Fill-4" d="M6.656,0 L6.656,1.5 C9.694,1.5 12.156,3.962 12.156,7 C12.156,10.038 9.694,12.5 6.656,12.5 C4.212,12.5 2.142,10.904 1.427,8.699 L-2.57571742e-14,9.162 C0.925,12.006 3.609,14 6.656,14 C10.504,14 13.656,10.855 13.656,7 C13.656,3.148 10.507,0 6.656,0"/>
      <path id="Fill-6" d="M5.0564,10 L7.0564,10 L10.2744,3.564 C9.8564,3.124 9.3584,2.768 8.8044,2.503 L6.0564,8 L5.0564,6 L3.0564,6 L5.0564,10 Z"/>
    </g>
  </g>
</svg>
