<svg xmlns="http://www.w3.org/2000/svg" width="16" height="16" viewBox="0 0 16 16">
  <g id="analyzingNoErrors5" fill="none" fill-rule="evenodd" stroke="none" stroke-width="1">
    <path id="Fill-2" fill="#9AA7B0" d="M2,8 C2,5.333 3.74,3.076 6.146,2.295 L5.838,1.345 C3.001,2.266 1,4.946 1,8 C1,11.087 3.033,13.745 5.838,14.655 L6.146,13.705 C3.74,12.924 2,10.667 2,8" opacity=".7"/>
    <g id="Group" fill="#62B543" transform="translate(4.4 1)">
      <path id="Fill-4" d="M3.5996,0 L3.5996,1.5 C6.6376,1.5 9.0996,3.962 9.0996,7 C9.0996,10.038 6.6376,12.5 3.5996,12.5 L3.5996,14 C7.4476,14 10.5996,10.855 10.5996,7 C10.5996,3.148 7.4506,0 3.5996,0"/>
      <path id="Fill-6" d="M2,10 L4,10 L7.218,3.564 C6.8,3.124 6.302,2.768 5.748,2.503 L3,8 L2,6 L3.68594044e-14,6 L2,10 Z"/>
    </g>
  </g>
</svg>
