<svg xmlns="http://www.w3.org/2000/svg" width="16" height="16" viewBox="0 0 16 16">
  <g id="analyzingErrors3" fill="none" fill-rule="evenodd" stroke="none" stroke-width="1">
    <path id="Fill-2" fill="#9AA7B0" d="M8,14 C4.686,14 2,11.314 2,8 C2,5.333 3.74,3.076 6.146,2.295 L5.838,1.345 C3.001,2.266 1,4.946 1,8 C1,11.835 4.132,15 8,15 C10.291,15 12.372,13.877 13.657,12.11 L12.85,11.523 C11.759,13.021 9.996,14 8,14" opacity=".7"/>
    <g id="Group" fill="#E05555" transform="translate(4 1)">
      <path id="Fill-4" d="M4,1.687539e-14 L4,1.5 C7.038,1.5 9.5,3.962 9.5,7 C9.5,7.594 9.403,8.164 9.229,8.699 L10.656,9.162 C10.877,8.481 11,7.755 11,7 C11,3.133 7.836,1.687539e-14 4,1.687539e-14"/>
      <polygon id="Fill-6" points="0 8 8 8 8 6 0 6"/>
    </g>
  </g>
</svg>
