<svg xmlns="http://www.w3.org/2000/svg" width="16" height="16" viewBox="0 0 16 16">
  <g id="analysingWarnings2" fill="none" fill-rule="evenodd" stroke="none" stroke-width="1">
    <path id="Fill-2" fill="#9AA7B0" d="M14,8 C14,11.314 11.314,14 8,14 C4.686,14 2,11.314 2,8 C2,5.333 3.74,3.076 6.146,2.295 L5.838,1.344 C3.001,2.266 1,4.947 1,8 C1,11.835 4.132,15 8,15 C11.848,15 15,11.855 15,8 L14,8 Z" opacity=".7"/>
    <path id="Fill-6" fill="#F4AF3D" d="M7,12 L9,12 L9,10 L7,10 L7,12 Z M8.5,9 L7.5,9 L7,4 L9,4 L8.5,9 Z M13.2295,6.3008 C12.5135,4.0948 10.4445,2.4998 8.0005,2.4998 L8.0005,0.9998 C11.0985,0.9998 13.7495,3.0448 14.6555,5.8378 L13.2295,6.3008 Z"/>
  </g>
</svg>
