<svg xmlns="http://www.w3.org/2000/svg" width="16" height="16" viewBox="0 0 16 16">
  <g id="analysingWarnings4" fill="none" fill-rule="evenodd" stroke="none" stroke-width="1">
    <path id="Fill-2" fill="#9AA7B0" d="M9.8535,13.7051 C9.2695,13.8941 8.6475,14.0001 7.9995,14.0001 C4.6855,14.0001 1.9995,11.3141 1.9995,8.0001 C1.9995,5.3331 3.7405,3.0761 6.1465,2.2951 L5.8375,1.3441 C3.0005,2.2661 0.9995,4.9471 0.9995,8.0001 C0.9995,11.8351 4.1315,15.0001 7.9995,15.0001 C8.7545,15.0001 9.4805,14.8771 10.1625,14.6561 L9.8535,13.7051 Z" opacity=".7"/>
    <g id="Group" fill="#F4AF3D" transform="translate(7 1)">
      <path id="Fill-4" d="M1,-3.73034936e-14 L1,1.5 C4.038,1.5 6.5,3.962 6.5,7 C6.5,8.83 5.604,10.445 4.229,11.445 L5.11,12.657 C6.873,11.375 8,9.296 8,7 C8,3.133 4.836,-3.73034936e-14 1,-3.73034936e-14"/>
      <polygon id="Path" points="0 11 2 11 2 9 0 9"/>
      <polygon id="Path" points="1.5 8 .5 8 0 3 2 3"/>
    </g>
  </g>
</svg>
