<svg xmlns="http://www.w3.org/2000/svg" width="16" height="16" viewBox="0 0 16 16">
  <g id="analyzingNoErrors1" fill="none" fill-rule="evenodd" stroke="none" stroke-width="1">
    <path id="Fill-2" fill="#9AA7B0" d="M13.6572,3.8896 L12.8492,4.4766 C13.5702,5.4666 14.0002,6.6816 14.0002,7.9996 C14.0002,11.3146 11.3142,13.9996 8.0002,13.9996 C4.6852,13.9996 2.0002,11.3146 2.0002,7.9996 C2.0002,5.3326 3.7402,3.0766 6.1462,2.2946 L5.8382,1.3446 C3.0012,2.2656 1.0002,4.9466 1.0002,7.9996 C1.0002,11.8346 4.1322,14.9996 8.0002,14.9996 C11.8472,14.9996 15.0002,11.8556 15.0002,7.9996 C15.0002,6.5776 14.5652,5.1376 13.6572,3.8896" opacity=".7"/>
    <g id="Group" fill="#62B543" transform="translate(4.4 1)">
      <path id="Fill-4" d="M7.71,1.343 C6.463,0.435 5.022,-8.17124146e-14 3.6,-8.17124146e-14 L3.6,1.5 C4.809,1.5 5.922,1.895 6.829,2.555 L7.71,1.343 Z"/>
      <path id="Fill-6" d="M2,10.0002 L4,10.0002 L7.218,3.5642 C6.8,3.1242 6.302,2.7682 5.748,2.5032 L3,8.0002 L2,6.0002 L3.68594044e-14,6.0002 L2,10.0002 Z"/>
    </g>
  </g>
</svg>
