<svg xmlns="http://www.w3.org/2000/svg" width="16" height="16" viewBox="0 0 16 16">
  <g id="analyzingNoErrors2" fill="none" fill-rule="evenodd" stroke="none" stroke-width="1">
    <path id="Fill-2" fill="#9AA7B0" d="M14,8 C14,11.314 11.314,14 8,14 C4.686,14 2,11.314 2,8 C2,5.333 3.74,3.076 6.146,2.295 L5.838,1.345 C3.001,2.266 1,4.946 1,8 C1,11.835 4.132,15 8,15 C11.848,15 15,11.855 15,8 L14,8 Z" opacity=".7"/>
    <g id="Group" fill="#62B543" transform="translate(4.4 1)">
      <path id="Fill-4" d="M8.8291,5.301 L10.2551,4.838 C9.3491,2.045 6.6981,-3.46389584e-14 3.6001,-3.46389584e-14 L3.6001,1.5 C6.0441,1.5 8.1131,3.096 8.8291,5.301"/>
      <path id="Fill-6" d="M2,10.0002 L4,10.0002 L7.218,3.5642 C6.8,3.1242 6.302,2.7682 5.748,2.5032 L3,8.0002 L2,6.0002 L3.68594044e-14,6.0002 L2,10.0002 Z"/>
    </g>
  </g>
</svg>
