<svg xmlns="http://www.w3.org/2000/svg" width="16" height="16" viewBox="0 0 16 16">
  <g id="analyzingNoErrors3" fill="none" fill-rule="evenodd" stroke="none" stroke-width="1">
    <path id="Fill-2" fill="#9AA7B0" d="M8,14 C4.686,14 2,11.314 2,8 C2,5.333 3.74,3.076 6.146,2.295 L5.838,1.345 C3.001,2.266 1,4.946 1,8 C1,11.835 4.132,15 8,15 C10.291,15 12.372,13.877 13.657,12.11 L12.85,11.523 C11.759,13.021 9.996,14 8,14" opacity=".7"/>
    <g id="Group" fill="#62B543" transform="translate(4.4 1)">
      <path id="Fill-4" d="M3.5996,1.687539e-14 L3.5996,1.5 C6.6376,1.5 9.0996,3.962 9.0996,7 C9.0996,7.594 9.0026,8.164 8.8286,8.699 L10.2556,9.162 C10.4766,8.481 10.5996,7.755 10.5996,7 C10.5996,3.133 7.4356,1.687539e-14 3.5996,1.687539e-14"/>
      <path id="Fill-6" d="M2,10 L4,10 L7.218,3.564 C6.8,3.124 6.302,2.768 5.748,2.503 L3,8 L2,6 L3.68594044e-14,6 L2,10 Z"/>
    </g>
  </g>
</svg>
