<svg xmlns="http://www.w3.org/2000/svg" width="16" height="16" viewBox="0 0 16 16">
  <g id="analyzingErrors8" fill="none" fill-rule="evenodd" stroke="none" stroke-width="1">
    <path id="Fill-2" fill="#9AA7B0" d="M6.1465,2.2949 L5.8375,1.3449 C4.4735,1.7869 3.2265,2.6759 2.3425,3.8899 L3.1505,4.4769 C3.8875,3.4639 4.9295,2.6909 6.1465,2.2949" opacity=".7"/>
    <g id="Group" fill="#E05555" transform="translate(1 1)">
      <path id="Fill-4" d="M7,0 L7,1.5 C10.038,1.5 12.5,3.962 12.5,7 C12.5,10.038 10.038,12.5 7,12.5 C3.962,12.5 1.5,10.038 1.5,7 C1.5,6.406 1.597,5.836 1.771,5.301 L0.345,4.838 C0.123,5.519 0,6.245 0,7 C0,10.848 3.145,14 7,14 C10.848,14 14,10.855 14,7 C14,3.148 10.851,0 7,0"/>
      <polygon id="Fill-6" points="3 8 11 8 11 6 3 6"/>
    </g>
  </g>
</svg>
