<svg xmlns="http://www.w3.org/2000/svg" width="16" height="16" viewBox="0 0 16 16">
  <g id="analyzingErrors9" fill="none" fill-rule="evenodd" stroke="none" stroke-width="1">
    <g id="Group" fill="#E05555" transform="translate(1 1)">
      <path id="Fill-62" d="M7,0 L7,1.5 C10.038,1.5 12.5,3.962 12.5,7 C12.5,10.038 10.038,12.5 7,12.5 C3.962,12.5 1.5,10.038 1.5,7 C1.5,5.171 2.396,3.555 3.771,2.555 L2.89,1.343 C1.113,2.636 0,4.722 0,7 C0,10.846 3.146,14 7,14 C10.863,14 14,10.84 14,7 C14,3.133 10.836,0 7,0"/>
      <polygon id="Fill-64" points="3 8 11 8 11 6 3 6"/>
    </g>
  </g>
</svg>
