<svg xmlns="http://www.w3.org/2000/svg" width="16" height="16" viewBox="0 0 16 16">
  <g id="analyzingNoErrors9" fill="none" fill-rule="evenodd" stroke="none" stroke-width="1">
    <g id="Group" fill="#62B543" transform="translate(1 1)">
      <path id="Fill-62" d="M7,0 L7,1.5 C10.038,1.5 12.5,3.962 12.5,7 C12.5,10.038 10.038,12.5 7,12.5 C3.962,12.5 1.5,10.038 1.5,7 C1.5,5.171 2.396,3.555 3.771,2.555 L2.89,1.343 C1.113,2.636 0,4.722 0,7 C0,10.846 3.146,14 7,14 C10.863,14 14,10.84 14,7 C14,3.133 10.836,0 7,0"/>
      <path id="Fill-64" d="M5.4004,10 L7.4004,10 L10.6184,3.564 C10.2004,3.124 9.7024,2.768 9.1484,2.503 L6.4004,8 L5.4004,6 L3.4004,6 L5.4004,10 Z"/>
    </g>
  </g>
</svg>
