<svg xmlns="http://www.w3.org/2000/svg" width="16" height="16" viewBox="0 0 16 16">
  <g id="CacheLocked_dark" fill="none" fill-rule="evenodd" stroke="none" stroke-width="1">
    <path id="Fill-2" fill="#AFB1B3" d="M11,7 L5,7 L5,10 C5,11.103 5.897,12 7,12 L9,12 C10.103,12 11,11.103 11,10 L11,7 Z M6,6.5 L7,6.5 L7,5 C7,4.448 7.447,4 8,4 C8.553,4 9,4.448 9,5 L9,6.5 L10,6.5 L10,5 C10,3.896 9.104,3 8,3 C6.896,3 6,3.896 6,5 L6,6.5 Z M15,8 C15,11.866 11.867,15 8,15 C4.134,15 1,11.866 1,8 C1,4.133 4.134,1 8,1 C11.867,1 15,4.133 15,8 L15,8 Z M7,10 L9,10 L9,9 L7,9 L7,10 Z"/>
  </g>
</svg>
