<svg xmlns="http://www.w3.org/2000/svg" width="16" height="16" viewBox="0 0 16 16">
  <g id="checkingForChanges1" fill="none" fill-rule="evenodd" stroke="none" stroke-width="1">
    <path id="Fill-2" fill="#9AA7B0" d="M14.4668,5.3213 L13.5428,5.7043 C13.8358,6.4113 13.9998,7.1863 13.9998,8.0003 C13.9998,11.3143 11.3148,14.0003 7.9998,14.0003 C6.3428,14.0003 4.8428,13.3283 3.7568,12.2423 L3.0508,12.9493 C4.3178,14.2163 6.0678,15.0003 7.9998,15.0003 C11.8668,15.0003 14.9998,11.8653 14.9998,8.0003 C14.9998,7.0503 14.8088,6.1463 14.4668,5.3213 L14.4668,5.3213 Z M1.5328,10.6783 C1.1918,9.8533 0.9998,8.9493 0.9998,8.0003 C0.9998,4.1333 4.1338,1.0003 7.9998,1.0003 C9.9338,1.0003 11.6838,1.7833 12.9498,3.0503 L12.2428,3.7573 C11.1568,2.6713 9.6568,2.0003 7.9998,2.0003 C4.6858,2.0003 1.9998,4.6863 1.9998,8.0003 C1.9998,8.8133 2.1638,9.5883 2.4568,10.2963 L1.5328,10.6783 Z" opacity=".7"/>
    <path id="Fill-4" fill="#40B6E0" d="M7,8.501 L10.787,11.346 L11.988,9.746 L9,7.501 L9,3.101 C8.677,3.035 8.343,3 8,3 C7.657,3 7.323,3.035 7,3.101 L7,8.501 Z M11.889,4.111 L13.304,2.697 C12.612,2.006 11.787,1.451 10.87,1.071 L10.104,2.919 C10.776,3.198 11.383,3.605 11.889,4.111 L11.889,4.111 Z M5.896,13.081 L5.13,14.929 C4.213,14.549 3.388,13.994 2.696,13.303 L4.111,11.889 C4.617,12.396 5.224,12.802 5.896,13.081 L5.896,13.081 Z"/>
  </g>
</svg>
