<svg xmlns="http://www.w3.org/2000/svg" width="16" height="16" viewBox="0 0 16 16">
  <g id="checkingForChanges4" fill="none" fill-rule="evenodd" stroke="none" stroke-width="1">
    <path id="Fill-2" fill="#9AA7B0" d="M10.6787,1.5332 L10.2957,2.4572 C12.4697,3.3582 13.9997,5.4992 13.9997,8.0002 C13.9997,11.3142 11.3147,14.0002 7.9997,14.0002 L7.9997,15.0002 C11.8667,15.0002 14.9997,11.8662 14.9997,8.0002 C14.9997,5.0822 13.2147,2.5842 10.6787,1.5332 L10.6787,1.5332 Z M5.3217,14.4672 C2.7847,13.4152 0.9997,10.9172 0.9997,8.0002 C0.9997,4.1332 4.1337,1.0002 7.9997,1.0002 L7.9997,2.0002 C4.6857,2.0002 1.9997,4.6862 1.9997,8.0002 C1.9997,10.5002 3.5307,12.6412 5.7037,13.5432 L5.3217,14.4672 Z" opacity=".7"/>
    <path id="Fill-4" fill="#40B6E0" d="M7,8.501 L10.787,11.346 L11.988,9.746 L9,7.501 L9,3.101 C8.677,3.035 8.343,3 8,3 C7.657,3 7.323,3.035 7,3.101 L7,8.501 Z M8,2.5 L8,0.5 C6.983,0.5 6.015,0.705 5.13,1.071 L5.896,2.919 C6.544,2.65 7.254,2.5 8,2.5 L8,2.5 Z M10.104,13.081 L10.87,14.929 C9.986,15.295 9.018,15.5 8,15.5 L8,13.5 C8.746,13.5 9.456,13.35 10.104,13.081 L10.104,13.081 Z"/>
  </g>
</svg>
