<svg xmlns="http://www.w3.org/2000/svg" width="16" height="16" viewBox="0 0 16 16">
  <g id="checkingForChanges3" fill="none" fill-rule="evenodd" stroke="none" stroke-width="1">
    <path id="Fill-2" fill="#9AA7B0" d="M10.2959,13.543 C9.5889,13.836 8.8139,14 7.9999,14 C4.6859,14 1.9999,11.314 1.9999,8 C1.9999,6.343 2.6719,4.843 3.7569,3.757 L3.0499,3.05 C1.7829,4.317 0.9999,6.067 0.9999,8 C0.9999,11.866 4.1339,15 7.9999,15 C8.9489,15 9.8539,14.809 10.6789,14.467 L10.2959,13.543 Z M5.3209,1.533 C6.1469,1.191 7.0509,1 7.9999,1 C11.8669,1 14.9999,4.133 14.9999,8 C14.9999,9.933 14.2169,11.683 12.9499,12.95 L12.2429,12.243 C13.3279,11.157 13.9999,9.657 13.9999,8 C13.9999,4.686 11.3149,2 7.9999,2 C7.1869,2 6.4109,2.164 5.7039,2.457 L5.3209,1.533 Z" opacity=".7"/>
    <path id="Fill-4" fill="#40B6E0" d="M7,8.501 L10.787,11.346 L11.988,9.746 L9,7.501 L9,3.101 C8.677,3.035 8.343,3 8,3 C7.657,3 7.323,3.035 7,3.101 L7,8.501 Z M11.889,11.889 L13.304,13.303 C13.994,12.613 14.549,11.787 14.929,10.87 L13.081,10.105 C12.803,10.777 12.396,11.383 11.889,11.889 L11.889,11.889 Z M2.919,5.896 L1.071,5.13 C1.451,4.213 2.006,3.387 2.696,2.697 L4.111,4.111 C3.604,4.617 3.197,5.223 2.919,5.896 L2.919,5.896 Z"/>
  </g>
</svg>
