<svg xmlns="http://www.w3.org/2000/svg" width="16" height="16" viewBox="0 0 16 16">
  <g id="checkingForChanges2" fill="none" fill-rule="evenodd" stroke="none" stroke-width="1">
    <path id="Fill-2" fill="#9AA7B0" d="M13.543,10.2959 C12.642,12.4699 10.5,13.9999 8,13.9999 C4.686,13.9999 2,11.3139 2,7.9999 L1,7.9999 C1,11.8659 4.134,14.9999 8,14.9999 C10.917,14.9999 13.415,13.2149 14.467,10.6789 L13.543,10.2959 Z M1.533,5.3209 C2.585,2.7849 5.083,0.9999 8,0.9999 C11.867,0.9999 15,4.1329 15,7.9999 L14,7.9999 C14,4.6859 11.314,1.9999 8,1.9999 C5.5,1.9999 3.358,3.5299 2.457,5.7039 L1.533,5.3209 Z" opacity=".7"/>
    <path id="Fill-4" fill="#40B6E0" d="M7,8.501 L10.787,11.346 L11.988,9.746 L9,7.501 L9,3.101 C8.677,3.035 8.343,3 8,3 C7.657,3 7.323,3.035 7,3.101 L7,8.501 Z M2.5,8 L0.5,8 C0.5,9.017 0.705,9.986 1.071,10.87 L2.919,10.105 C2.65,9.456 2.5,8.746 2.5,8 L2.5,8 Z M13.081,5.896 L14.929,5.13 C15.295,6.014 15.5,6.983 15.5,8 L13.5,8 C13.5,7.254 13.35,6.544 13.081,5.896 L13.081,5.896 Z"/>
  </g>
</svg>
