<svg xmlns="http://www.w3.org/2000/svg" width="16" height="16" viewBox="0 0 16 16">
  <g id="finishedErrors" fill="none" fill-rule="evenodd" stroke="none" stroke-width="1">
    <path id="Fill-2" fill="#E05555" d="M8,13.5 C4.962,13.5 2.5,11.038 2.5,8 C2.5,4.962 4.962,2.5 8,2.5 C11.038,2.5 13.5,4.962 13.5,8 C13.5,11.038 11.038,13.5 8,13.5 M8,1 C4.134,1 1,4.133 1,8 C1,11.866 4.134,15 8,15 C11.867,15 15,11.866 15,8 C15,4.133 11.867,1 8,1"/>
    <polygon id="Fill-4" fill="#E05555" points="4 9 12 9 12 7 4 7"/>
  </g>
</svg>
