<svg xmlns="http://www.w3.org/2000/svg" width="16" height="16" viewBox="0 0 16 16">
  <g id="finishedNoErrors" fill="none" fill-rule="evenodd" stroke="none" stroke-width="1">
    <g id="Group-6" fill="#62B543" transform="translate(1 1)">
      <path id="Fill-2" d="M7,12.5 C3.962,12.5 1.5,10.038 1.5,7 C1.5,3.962 3.962,1.5 7,1.5 C10.038,1.5 12.5,3.962 12.5,7 C12.5,10.038 10.038,12.5 7,12.5 M7,0 C3.134,0 0,3.133 0,7 C0,10.866 3.134,14 7,14 C10.867,14 14,10.866 14,7 C14,3.133 10.867,0 7,0"/>
      <path id="Fill-4" d="M5.4004,10 L7.4004,10 L10.6184,3.564 C10.2004,3.124 9.7024,2.768 9.1484,2.503 L6.4004,8 L5.4004,6 L3.4004,6 L5.4004,10 Z"/>
    </g>
  </g>
</svg>
