<svg xmlns="http://www.w3.org/2000/svg" width="16" height="16" viewBox="0 0 16 16">
  <g id="loading4" fill="none" fill-rule="evenodd" stroke="none" stroke-width="1">
    <path id="Fill-2" fill="#9AA7B0" d="M8,14 C4.686,14 2,11.314 2,8 C2,5.333 3.74,3.076 6.146,2.295 L5.838,1.344 C3.001,2.266 1,4.947 1,8 C1,11.835 4.132,15 8,15 C8.755,15 9.48,14.877 10.162,14.656 L9.854,13.705 C9.27,13.895 8.647,14 8,14" opacity=".7"/>
    <g id="Group" fill="#40B6E0" transform="translate(7 1)">
      <path id="Fill-4" d="M1,-3.73034936e-14 L1,1.5 C4.038,1.5 6.5,3.962 6.5,7 C6.5,8.83 5.604,10.445 4.229,11.445 L5.11,12.657 C6.873,11.375 8,9.296 8,7 C8,3.133 4.836,-3.73034936e-14 1,-3.73034936e-14"/>
      <path id="Fill-6" d="M2.84217094e-14,7.501 L3.787,10.346 L4.988,8.746 L2,6.501 L2,2.101 C1.677,2.035 1.343,2 1,2 C0.657,2 0.323,2.035 2.84217094e-14,2.101 L2.84217094e-14,7.501 Z"/>
    </g>
  </g>
</svg>
