<svg xmlns="http://www.w3.org/2000/svg" width="16" height="16" viewBox="0 0 16 16">
  <g id="loading7" fill="none" fill-rule="evenodd" stroke="none" stroke-width="1">
    <path id="Fill-2" fill="#9AA7B0" d="M6.1465,2.2949 L5.8375,1.3449 C3.0005,2.2659 1.0005,4.9459 1.0005,7.9999 L2.0005,7.9999 C2.0005,5.3329 3.7405,3.0759 6.1465,2.2949" opacity=".7"/>
    <g id="Group" fill="#40B6E0" transform="translate(1.344 1)">
      <path id="Fill-4" d="M6.656,0 L6.656,1.5 C9.694,1.5 12.156,3.962 12.156,7 C12.156,10.038 9.694,12.5 6.656,12.5 C4.212,12.5 2.142,10.904 1.427,8.699 L-2.57571742e-14,9.162 C0.925,12.006 3.609,14 6.656,14 C10.504,14 13.656,10.855 13.656,7 C13.656,3.148 10.507,0 6.656,0"/>
      <path id="Fill-6" d="M5.656,7.501 L9.443,10.346 L10.644,8.746 L7.656,6.501 L7.656,2.101 C7.333,2.035 6.999,2 6.656,2 C6.313,2 5.979,2.035 5.656,2.101 L5.656,7.501 Z"/>
    </g>
  </g>
</svg>
