<svg xmlns="http://www.w3.org/2000/svg" width="16" height="16" viewBox="0 0 16 16">
  <g id="loading1" fill="none" fill-rule="evenodd" stroke="none" stroke-width="1">
    <path id="Fill-2" fill="#9AA7B0" d="M13.6572,3.8896 L12.8492,4.4766 C13.5702,5.4666 14.0002,6.6816 14.0002,7.9996 C14.0002,11.3136 11.3142,13.9996 8.0002,13.9996 C4.6852,13.9996 2.0002,11.3136 2.0002,7.9996 C2.0002,5.3336 3.7402,3.0766 6.1462,2.2946 L5.8382,1.3446 C3.0012,2.2656 1.0002,4.9466 1.0002,7.9996 C1.0002,11.8346 4.1322,14.9996 8.0002,14.9996 C11.8472,14.9996 15.0002,11.8556 15.0002,7.9996 C15.0002,6.5776 14.5652,5.1376 13.6572,3.8896" opacity=".7"/>
    <g id="Group" fill="#40B6E0" transform="translate(7 1)">
      <path id="Fill-4" d="M5.1104,1.343 C3.8634,0.435 2.4224,-8.17124146e-14 1.0004,-8.17124146e-14 L1.0004,1.5 C2.2094,1.5 3.3224,1.894 4.2294,2.555 L5.1104,1.343 Z"/>
      <path id="Fill-6" d="M2.84217094e-14,7.5012 L3.787,10.3462 L4.988,8.7462 L2,6.5012 L2,2.1012 C1.677,2.0352 1.343,2.0002 1,2.0002 C0.657,2.0002 0.323,2.0352 2.84217094e-14,2.1012 L2.84217094e-14,7.5012 Z"/>
    </g>
  </g>
</svg>
