<svg xmlns="http://www.w3.org/2000/svg" width="16" height="16" viewBox="0 0 16 16">
  <g id="loading2" fill="none" fill-rule="evenodd" stroke="none" stroke-width="1">
    <path id="Fill-2" fill="#9AA7B0" d="M14,8 C14,11.314 11.314,14 8,14 C4.686,14 2,11.314 2,8 C2,5.333 3.74,3.076 6.146,2.295 L5.838,1.344 C3.001,2.266 1,4.947 1,8 C1,11.835 4.132,15 8,15 C11.848,15 15,11.855 15,8 L14,8 Z" opacity=".7"/>
    <g id="Group" fill="#40B6E0" transform="translate(7 1)">
      <path id="Fill-4" d="M6.2295,5.301 L7.6555,4.838 C6.7495,2.045 4.0985,-3.46389584e-14 1.0005,-3.46389584e-14 L1.0005,1.5 C3.4445,1.5 5.5135,3.095 6.2295,5.301"/>
      <path id="Fill-6" d="M2.84217094e-14,7.5012 L3.787,10.3462 L4.988,8.7462 L2,6.5012 L2,2.1012 C1.677,2.0352 1.343,2.0002 1,2.0002 C0.657,2.0002 0.323,2.0352 2.84217094e-14,2.1012 L2.84217094e-14,7.5012 Z"/>
    </g>
  </g>
</svg>
