<svg xmlns="http://www.w3.org/2000/svg" width="16" height="16" viewBox="0 0 16 16">
  <g id="loading3" fill="none" fill-rule="evenodd" stroke="none" stroke-width="1">
    <path id="Fill-2" fill="#9AA7B0" d="M8,14 C4.686,14 2,11.314 2,8 C2,5.333 3.74,3.076 6.146,2.295 L5.838,1.344 C3.001,2.266 1,4.947 1,8 C1,11.835 4.132,15 8,15 C10.291,15 12.372,13.877 13.657,12.11 L12.85,11.523 C11.759,13.022 9.996,14 8,14" opacity=".7"/>
    <g id="Group" fill="#40B6E0" transform="translate(7 1)">
      <path id="Fill-4" d="M1,5.32907052e-15 L1,1.5 C4.038,1.5 6.5,3.962 6.5,7 C6.5,7.593 6.403,8.164 6.229,8.699 L7.656,9.163 C7.877,8.481 8,7.755 8,7 C8,3.133 4.836,5.32907052e-15 1,5.32907052e-15"/>
      <path id="Fill-6" d="M2.84217094e-14,7.501 L3.787,10.346 L4.988,8.746 L2,6.501 L2,2.101 C1.677,2.035 1.343,2 1,2 C0.657,2 0.323,2.035 2.84217094e-14,2.101 L2.84217094e-14,7.501 Z"/>
    </g>
  </g>
</svg>
