<svg xmlns="http://www.w3.org/2000/svg" width="16" height="16" viewBox="0 0 16 16">
  <g id="loading5" fill="none" fill-rule="evenodd" stroke="none" stroke-width="1">
    <path id="Fill-2" fill="#9AA7B0" d="M2,8 C2,5.333 3.74,3.076 6.146,2.295 L5.838,1.344 C3.001,2.266 1,4.947 1,8 C1,11.087 3.033,13.745 5.838,14.655 L6.146,13.705 C3.74,12.924 2,10.667 2,8" opacity=".7"/>
    <g id="Group" fill="#40B6E0" transform="translate(7 1)">
      <path id="Fill-4" d="M1,0 L1,1.5 C4.038,1.5 6.5,3.962 6.5,7 C6.5,10.038 4.038,12.5 1,12.5 L1,14 C4.848,14 8,10.855 8,7 C8,3.149 4.851,0 1,0"/>
      <path id="Fill-6" d="M2.84217094e-14,7.501 L3.787,10.346 L4.988,8.746 L2,6.501 L2,2.101 C1.677,2.035 1.343,2 1,2 C0.657,2 0.323,2.035 2.84217094e-14,2.101 L2.84217094e-14,7.501 Z"/>
    </g>
  </g>
</svg>
