<svg xmlns="http://www.w3.org/2000/svg" width="16" height="16" viewBox="0 0 16 16">
  <title>RefreshIssues_dark</title>
  <g>
    <rect width="16" height="16" fill="#ffc4ff" opacity="0"/>
    <path d="M10.754,4.835l.617-1.783A6,6,0,0,1,13.94,7.163L12.081,7A4.206,4.206,0,0,0,10.754,4.835ZM9.393,8.766,9.312,9H9.26l.013.027,1.818,1.817A4.2,4.2,0,0,1,3.9,8.894L2.042,8.732a6,6,0,0,0,10.323,3.387l1.647,1.646v-5Zm-2.774-1.9L4.91,5.156A4.2,4.2,0,0,1,7.058,3.925l.281-1.876a5.983,5.983,0,0,0-3.7,1.834L1.993,2.239v5h4.57Z" fill="#afb1b3"/>
    <path d="M8.5,9.952a1.083,1.083,0,0,1-.081.427,1.063,1.063,0,0,1-.219.33.953.953,0,0,1-.329.215A1.074,1.074,0,0,1,7.465,11a.981.981,0,0,1-.382-.073.938.938,0,0,1-.306-.2.907.907,0,0,1-.2-.3.939.939,0,0,1-.073-.372,1.111,1.111,0,0,1,.082-.434A.945.945,0,0,1,6.8,9.288a1,1,0,0,1,.33-.212A1.094,1.094,0,0,1,7.546,9a.968.968,0,0,1,.38.073.925.925,0,0,1,.5.5A.956.956,0,0,1,8.5,9.952ZM8.6,8H7.46L8.507,1h2.515Z" fill="#c75450"/>
  </g>
</svg>
