<svg xmlns="http://www.w3.org/2000/svg" width="16" height="16" viewBox="0 0 16 16">
  <title>SolutionAnalysis</title>
  <g>
    <g opacity="0">
      <rect width="16" height="16" fill="#ffdaff"/>
    </g>
    <path d="M13.4,10.8,10,6V2h.5a.5.5,0,0,0,0-1h-5a.5.5,0,0,0,0,1H6V6L2.6,10.8A3.351,3.351,0,0,0,2,12.7,2.193,2.193,0,0,0,4.2,15h7.61A2.193,2.193,0,0,0,14,12.7,3.351,3.351,0,0,0,13.4,10.8ZM6.1,9,4.424,11.366A2.356,2.356,0,0,0,4,12.7,1.215,1.215,0,0,0,5.194,14h-1A1.215,1.215,0,0,1,3,12.7a2.356,2.356,0,0,1,.424-1.333L7,6.318V2H9V6.318L10.9,9Z" fill="#6e6e6e"/>
  </g>
</svg>
