<svg xmlns="http://www.w3.org/2000/svg" width="16" height="16" viewBox="0 0 16 16"><rect id="frame" width="16" height="16" fill="none"/><g fill="none" fill-rule="evenodd"><path fill="#9AA7B0" fill-opacity=".8" d="M7 1L3 5h4z"/><path fill="#9AA7B0" fill-opacity=".8" d="M13 8.574a8.971 8.971 0 0 0-3.505 1.165C7.304 11.004 5.867 12.991 5.46 15H3V6h5V1h5v7.574z"/><path fill="#40B6E0" d="M13.319 10.012c-.93-.003-1.96.287-2.514.63-.208.128-.42.27-.634.422 0 0-1.926 1.483-2.524 2.229-.08.1-.153.207-.216.32l-.014.025a2.25 2.25 0 0 0-.017.033l-.004.009a2.266 2.266 0 0 0-.202.614v.005a1.935 1.935 0 0 0-.004.022c-.032.245-.019.507.081.729.122.27.326.47.62.636.283.16.802.295.802.295l-.008.004c.433.076.88.05 1.318.008.215-.02.43-.044.644-.071h.008c-.014-.073-.037-.21-.009-.218.294-.078.47-.125.699-.205.219-.076.38-.146.557-.244.044-.024.079-.065.126-.085.146-.063.31-.078.468-.102.126-.02.254-.032.382-.035.083-.001.167-.003.248.013a.55.55 0 0 1 .18.062c.036.022.07.052.094.087a.959.959 0 0 1 .033.083c.464-.174.936-.384 1.295-.725a4.321 4.321 0 0 0 1.16-1.863c.114-.38.134-.809.026-1.191-.067-.237-.17-.389-.398-.62-.468-.475-1.15-.769-1.812-.845a3.505 3.505 0 0 0-.385-.022zm-3.148 1.052c-.095.067-.19.136-.285.207l.285-.207zm2.004.448c.301 0 .468.045.468.045s-.495.047-.77.096a6.285 6.285 0 0 0-.843.199c-.532.18-1.04.433-1.54.69-.385.197-.753.425-1.121.652-.252.155-.743.484-.743.484s.418-.541 1.531-1.167c.319-.178.644-.346.977-.495a6.82 6.82 0 0 1 .797-.31 4.876 4.876 0 0 1 1.244-.194zm-3.819.516c-.098 0-.183.117-.235.204-.066.112-.096.304-.11.457.214-.183.427-.353.575-.468-.057-.096-.129-.179-.21-.191a.127.127 0 0 0-.02-.002zm4.305.489s-.93.353-1.392.537c-.532.212-1.062.43-1.588.655-.369.158-.735.32-1.099.488-.335.154-.999.473-.999.473s.566-.463 1.614-.922c.612-.267 1.025-.502 1.684-.716.307-.1.61-.214.921-.303.284-.082.859-.212.859-.212zm.322.943s-.13.156-.422.348c-.145.096-.273.197-.416.286a6.537 6.537 0 0 1-.57.316c-.243.119-.495.218-.746.317-.246.097-.493.192-.745.273-.31.1-.625.192-.943.26-.232.051-.702.112-.702.112s.58-.196.869-.298c.305-.107.594-.208.913-.329.329-.124.564-.215.844-.328.229-.092.46-.182.683-.286.17-.08.337-.171.503-.26.246-.133.732-.41.732-.41zm.675.61s-.007.096-.252.347a2.382 2.382 0 0 1-.384.3c-.43.265-.66.333-.66.333s.425-.278.63-.427c.121-.087.24-.178.355-.274.107-.09.311-.28.311-.28zm-6.595.917a7.972 7.972 0 0 0-.432.207c-.212.113-.628.311-.614.376.021.098.492-.092.737-.14.157-.032.312-.064.468-.098a2.008 2.008 0 0 1-.159-.345zm5.758.158c-.062 0-.13.004-.21.013-.249.027-.316.05-.515.114-.07.023-.113.06-.168.091-.1.055-.194.121-.298.168-.15.066-.31.109-.466.156-.13.04-.147.047-.391.105-.042.01-.002.08.035.133.579.011 2.33.04 2.353-.058l.129-.536.034-.013a.206.206 0 0 0-.018-.049.224.224 0 0 0-.09-.086c-.063-.031-.138-.027-.207-.031a2.522 2.522 0 0 0-.188-.007zm.317.144c.069.001.125.012.125.046-.001.074-.16.07-.233.078-.47.046-.635.039-.953.04-.061 0-.183-.006-.183-.006s.305-.073.577-.105c.158-.02.312-.04.463-.044.052-.002.134-.01.204-.009zm-.36.295c.056 0 .112.001.168.009.044.006.094.008.129.037.015.012.033.04.026.053-.012.026-.06.027-.16.034-.12.008-.239.018-.358.022-.296.009-.889-.002-.889-.002s.185-.049.279-.066c.21-.038.422-.065.635-.078.056-.004.113-.008.17-.009z"/></g></svg>