<svg xmlns="http://www.w3.org/2000/svg" width="13" height="13" viewBox="0 0 13 13"><rect id="frame" width="13" height="13" fill="none"/><path fill="#6E6E6E" fill-rule="evenodd" d="M9.515 2.016c-1.208-.005-2.547.373-3.27.818-.269.166-.546.353-.823.55 0 0-2.503 1.927-3.28 2.897-.105.13-.2.27-.282.417l-.017.032a2.924 2.924 0 0 0-.023.043l-.005.01a2.946 2.946 0 0 0-.263.799v.007l-.005.029c-.042.318-.024.658.106.946.159.35.422.612.805.827.369.208 1.044.384 1.044.384l-.011.005c.562.1 1.145.066 1.713.01.28-.026.558-.057.837-.092h.011c-.018-.094-.048-.273-.012-.283.382-.101.61-.163.908-.266a4.37 4.37 0 0 0 .724-.317c.058-.032.103-.085.164-.11.19-.083.403-.102.609-.134.164-.025.33-.041.496-.044.108-.003.217-.005.323.015a.714.714 0 0 1 .234.081.386.386 0 0 1 .121.113c.017.035.03.072.043.108.604-.226 1.218-.5 1.684-.942a5.618 5.618 0 0 0 1.51-2.421 2.84 2.84 0 0 0 .032-1.55c-.086-.307-.22-.505-.517-.806-.609-.617-1.495-.999-2.356-1.098a4.557 4.557 0 0 0-.5-.028zM5.422 3.383c-.124.088-.248.178-.37.269l.37-.269zm2.606.583a2.48 2.48 0 0 1 .608.058s-.644.06-1.002.124a8.17 8.17 0 0 0-1.094.259c-.693.235-1.352.563-2.003.897-.5.256-.98.553-1.458.848-.327.201-.966.629-.966.629s.545-.703 1.992-1.516c.414-.233.836-.45 1.269-.644a8.865 8.865 0 0 1 1.037-.404 6.339 6.339 0 0 1 1.438-.246c.063-.003.123-.005.179-.005zm-4.965.67c-.128.001-.238.152-.306.265-.086.146-.124.395-.142.595.277-.238.555-.459.747-.609-.075-.124-.168-.232-.273-.248a.165.165 0 0 0-.026-.002zm5.596.636S7.45 5.73 6.85 5.97a89.85 89.85 0 0 0-2.065.852 60.65 60.65 0 0 0-1.428.634c-.435.2-1.299.615-1.299.615s.735-.602 2.099-1.198c.795-.348 1.332-.653 2.188-.932.4-.13.794-.277 1.198-.394.368-.105 1.116-.275 1.116-.275zm.42 1.226s-.17.202-.55.453c-.188.125-.354.256-.54.371-.241.149-.488.287-.742.412-.316.153-.643.282-.97.411-.319.127-.64.25-.968.355-.404.13-.812.25-1.226.34-.301.064-.912.144-.912.144s.754-.255 1.13-.388c.396-.139.772-.27 1.186-.427.428-.162.734-.28 1.097-.426.298-.12.598-.237.888-.373.223-.104.438-.222.654-.338.32-.173.952-.534.952-.534zm.877.792s-.01.125-.329.452a3.097 3.097 0 0 1-.499.39c-.559.345-.857.432-.857.432s.552-.36.82-.554c.156-.114.311-.232.46-.356.14-.116.405-.364.405-.364zM1.382 8.484c-.187.084-.414.189-.562.268-.275.147-.816.405-.798.489.027.127.64-.12.959-.183.203-.04.405-.083.607-.126a2.61 2.61 0 0 1-.206-.448zm7.485.204c-.08 0-.168.006-.273.017-.323.036-.41.065-.67.15-.091.03-.146.077-.218.117-.13.071-.252.157-.388.218-.194.086-.401.142-.605.203-.168.051-.191.061-.508.137-.055.013-.003.103.046.172.752.015 3.027.052 3.058-.075l.168-.697.045-.016a.267.267 0 0 0-.024-.064.291.291 0 0 0-.117-.113c-.082-.04-.179-.034-.27-.04a3.279 3.279 0 0 0-.244-.009zm.412.188c.09.002.163.015.163.06-.001.096-.208.091-.303.1-.612.061-.826.051-1.24.053-.079 0-.237-.008-.237-.008s.397-.094.75-.137c.205-.025.405-.05.602-.057.068-.002.175-.012.265-.01zm-.468.384c.073-.002.147 0 .22.01.057.009.121.011.166.048.02.017.043.052.035.07-.016.034-.078.035-.209.044-.157.011-.31.024-.465.028-.385.012-1.156-.002-1.156-.002s.24-.064.363-.086a7.08 7.08 0 0 1 .825-.101c.073-.005.147-.01.22-.011z"/></svg>