<svg ti:v="1" width="16" height="16" viewBox="0 0 16 16" xmlns="http://www.w3.org/2000/svg" xmlns:ti="urn:schemas-jetbrains-com:tisvg"><rect id="frame" width="16" height="16" fill="none"/><linearGradient id="a" x1=".5" y1=".018" x2=".5" y2="1.009"><stop offset="0" stop-color="#4A0060"/><stop offset="1" stop-color="#2D003A"/></linearGradient><path fill-rule="evenodd" d="M7.586 1L1 7.586v.828L7.586 15h.828L15 8.414v-.828L8.414 1h-.828z" fill="url(#a)"/><linearGradient id="b" x1=".5" y1=".018" x2=".5" y2="1.009"><stop offset="0" stop-color="#E485FF"/><stop offset="1" stop-color="#BA00EB"/></linearGradient><path fill-rule="evenodd" d="M8 2l6 6-6 6-6-6 6-6z" fill="url(#b)"/><path fill-rule="evenodd" d="M8 7a1 1 0 0 0-1 1v1h2.09A1.91 1.91 0 0 0 11 7.09v-.602C11 5.666 10.334 5 9.512 5H6.488C5.666 5 5 5.666 5 6.488V9.5A1.5 1.5 0 0 0 6.5 11H10v-1H6.488A.489.489 0 0 1 6 9.512V6.488c0-.27.218-.488.488-.488h3c.283 0 .512.229.512.512v.832A.655.655 0 0 1 9.344 8H9V7H8z" fill="#FFF"/></svg>