<svg ti:v="1" width="16" height="16" viewBox="0 0 16 16" xmlns="http://www.w3.org/2000/svg" xmlns:ti="urn:schemas-jetbrains-com:tisvg"><rect id="frame" width="16" height="16" fill="none"/><g fill-rule="evenodd"><path d="M7.586 1L1 7.586v.828L7.586 15h.828L15 8.414v-.828L8.414 1h-.828z" fill="#F4F4F4"/><path d="M8 2l6 6-6 6-6-6 6-6z" fill="#313131"/><path d="M8 7a1 1 0 0 0-1 1v1h2.09A1.91 1.91 0 0 0 11 7.09v-.602C11 5.666 10.334 5 9.512 5H6.488C5.666 5 5 5.666 5 6.488V9.5A1.5 1.5 0 0 0 6.5 11H10v-1H6.488A.489.489 0 0 1 6 9.512V6.488c0-.27.218-.488.488-.488h3c.283 0 .512.229.512.512v.832A.655.655 0 0 1 9.344 8H9V7H8z" fill="#EBEBEB"/></g></svg>