<svg ti:v="1" width="16" height="16" viewBox="0 0 16 16" xmlns="http://www.w3.org/2000/svg" xmlns:ti="urn:schemas-jetbrains-com:tisvg"><rect id="frame" width="16" height="16" fill="none"/><linearGradient id="a" x1=".5" y1="0" x2=".5" y2="1"><stop offset="0" stop-color="#1B558F"/><stop offset="1" stop-color="#000D4E"/></linearGradient><path fill-rule="evenodd" d="M5.586 2L0 7.586v.828L5.586 14h.828L12 8.414v-.828L6.414 2h-.828z" fill="url(#a)"/><linearGradient id="b" x1=".5" y1="0" x2=".5" y2="1"><stop offset="0" stop-color="#E6FDFF"/><stop offset="1" stop-color="#96E2FF"/></linearGradient><path fill-rule="evenodd" d="M6 3L1 8l5 5 5-5-5-5z" fill="url(#b)"/><linearGradient id="c" x1=".5" y1="0" x2=".5" y2="1"><stop offset="0" stop-color="#60B0FF"/><stop offset="1" stop-color="#008EE6"/></linearGradient><path fill-rule="evenodd" d="M2.414 8L6 4.414 9.586 8 6 11.586 2.414 8z" fill="url(#c)"/><linearGradient id="d" x1=".5" y1="0" x2=".5" y2="1"><stop offset="0" stop-color="#720772"/><stop offset="1" stop-color="#530953"/></linearGradient><path fill-rule="evenodd" d="M9.586 2L4 7.586v.828L9.586 14h.828L16 8.414v-.828L10.414 2h-.828z" fill="url(#d)"/><linearGradient id="e" x1=".5" y1="0" x2=".5" y2="1"><stop offset="0" stop-color="#F7CCFF"/><stop offset="1" stop-color="#FD81FF"/></linearGradient><path fill-rule="evenodd" d="M10 3L5 8l5 5 5-5-5-5z" fill="url(#e)"/><linearGradient id="f" x1=".5" y1="0" x2=".5" y2="1"><stop offset="0" stop-color="#720772"/><stop offset="1" stop-color="#530953"/></linearGradient><path fill-rule="evenodd" d="M7.828 8L10 5.828 12.172 8 10 10.172 7.828 8z" fill="url(#f)"/></svg>