<svg ti:v="1" width="16" height="16" viewBox="0 0 16 16" xmlns="http://www.w3.org/2000/svg" xmlns:ti="urn:schemas-jetbrains-com:tisvg"><rect id="frame" width="16" height="16" fill="none"/><linearGradient id="a" x1=".5" y1="0" x2=".5" y2="1"><stop offset="0" stop-color="#005A94"/><stop offset="1" stop-color="#00134E"/></linearGradient><path fill-rule="evenodd" d="M9.191 4h-.457L1 8.42v5.257L6.809 16h.457L15 11.58V6.323L9.191 4z" fill="url(#a)"/><linearGradient id="b" x1="0" y1=".5" x2=".993" y2=".5"><stop offset="0" stop-color="#32D6FF"/><stop offset="1" stop-color="#009DFF"/></linearGradient><path fill-rule="evenodd" d="M2 9v4l5 2v-4L2 9z" fill="url(#b)"/><linearGradient id="c" x1="-.005" y1=".5" x2="1" y2=".5"><stop offset="0" stop-color="#8AD8FF"/><stop offset="1" stop-color="#00ACEB"/></linearGradient><path fill-rule="evenodd" d="M14 7l-7 4v4l7-4V7z" fill="url(#c)"/><linearGradient id="d" x1="0" y1=".5" x2="1" y2=".5"><stop offset="0" stop-color="#E0F3FF"/><stop offset="1" stop-color="#F9FBFF"/></linearGradient><path fill-rule="evenodd" d="M2 9l5 2 7-4-5-2-7 4z" fill="url(#d)"/><linearGradient id="e" x1="0" y1=".5" x2="1" y2=".5"><stop offset="0" stop-color="#006294"/><stop offset="1" stop-color="#00214E"/></linearGradient><path fill-rule="evenodd" d="M4.294 8.841l4.783-2.734 2.629 1.052-4.783 2.734-2.629-1.052z" fill="url(#e)"/><linearGradient id="f" x1=".5" y1=".011" x2=".5" y2="1"><stop offset="0" stop-color="#9C720A"/><stop offset="1" stop-color="#5B4408"/></linearGradient><path fill-rule="evenodd" d="M10.764 2L10 2.382V0H6v2.382L5.236 2H4v3.414L7.586 9h.828L12 5.414V2h-1.236z" fill="url(#f)"/><linearGradient id="g" x1=".5" y1=".013" x2=".5" y2="1.013"><stop offset="0" stop-color="#DBB657"/><stop offset="1" stop-color="#F7F0AB"/></linearGradient><path fill-rule="evenodd" d="M9 4V1H7v3L5 3v2l3 3 3-3V3L9 4z" fill="url(#g)"/></svg>