<svg ti:v="1" width="16" height="16" viewBox="0 0 16 16" xmlns="http://www.w3.org/2000/svg" xmlns:ti="urn:schemas-jetbrains-com:tisvg"><rect id="frame" width="16" height="16" fill="none"/><linearGradient id="a" x1=".5" y1="0" x2=".5" y2="1"><stop offset="0" stop-color="#006782"/><stop offset="1" stop-color="#00134E"/></linearGradient><path fill-rule="evenodd" d="M2 7v2c0 3.206 2.168 7 4 7 .444 0 .835-.175 1.098-.493.218-.263.315-.563.339-.903C8.283 15.419 9.199 16 10 16c.444 0 .835-.175 1.097-.493.218-.263.316-.563.341-.903C12.284 15.419 13.199 16 14 16a1.25 1.25 0 0 0 1.032-.51c.469-.65.199-1.458-.209-2.681C14.457 11.708 14 10.338 14 9V6c0-2.265-2.677-5-6-5-3.309 0-6 2.691-6 6z" fill="url(#a)"/><linearGradient id="b" x1=".5" y1="0" x2=".5" y2="1"><stop offset="0" stop-color="azure"/><stop offset="1" stop-color="#BFDBFF"/></linearGradient><path fill-rule="evenodd" d="M3 7v2c0 3 2 6 3 6s0-2 0-4c1 2 3 4 4 4s0-2 0-4c1 2 3 4 4 4s-1-3-1-6V6c0-1.762-2.238-4-5-4a5 5 0 0 0-5 5z" fill="url(#b)"/><path fill-rule="evenodd" d="M9.5 5a1.5 1.5 0 1 0-.001 2.999A1.5 1.5 0 0 0 9.5 5zM7 6.5a1.5 1.5 0 1 1-2.999.001A1.5 1.5 0 0 1 7 6.5z" fill="#00356F"/></svg>