<svg ti:v="1" width="16" height="16" viewBox="0 0 16 16" xmlns="http://www.w3.org/2000/svg" xmlns:ti="urn:schemas-jetbrains-com:tisvg"><rect id="frame" width="16" height="16" fill="none"/><g fill-rule="evenodd"><path d="M4 15c-1.654 0-3-1.346-3-3V4c0-1.654 1.346-3 3-3h8c1.654 0 3 1.346 3 3v8c0 1.654-1.346 3-3 3H4z" fill="#242424"/><path d="M12 14H4a2 2 0 0 1-2-2V4a2 2 0 0 1 2-2h8a2 2 0 0 1 2 2v8a2 2 0 0 1-2 2z" fill="#C3C3C3"/><path d="M10 10H4v1h6M8 8H4v1h4m4-3H4v1h8M9 5H4V4h5v1z" fill="#292929"/></g></svg>