<svg ti:v="1" width="16" height="16" viewBox="0 0 16 16" xmlns="http://www.w3.org/2000/svg" xmlns:ti="urn:schemas-jetbrains-com:tisvg"><rect id="frame" width="16" height="16" fill="none"/><g fill-rule="evenodd"><path d="M6 15c-1.654 0-3-1.346-3-3V5c0-1.654 1.346-3 3-3h7c1.654 0 3 1.346 3 3v7c0 1.654-1.346 3-3 3H6z" fill="#F4F4F4"/><path d="M13 14H6a2 2 0 0 1-2-2V5a2 2 0 0 1 2-2h7a2 2 0 0 1 2 2v7a2 2 0 0 1-2 2z" fill="#313131"/><path d="M4 13c-1.654 0-3-1.346-3-3V3c0-1.654 1.346-3 3-3h7c1.654 0 3 1.346 3 3v7c0 1.654-1.346 3-3 3H4z" fill="#F4F4F4"/><path d="M11 12H4a2 2 0 0 1-2-2V3a2 2 0 0 1 2-2h7a2 2 0 0 1 2 2v7a2 2 0 0 1-2 2z" fill="#313131"/><path d="M9 9H4v1h5M7 7H4v1h3m4-3H4v1h7M8 4H4V3h4v1z" fill="#EBEBEB"/></g></svg>