<svg ti:v="1" width="16" height="16" viewBox="0 0 16 16" xmlns="http://www.w3.org/2000/svg" xmlns:ti="urn:schemas-jetbrains-com:tisvg"><rect id="frame" width="16" height="16" fill="none"/><linearGradient id="a" x1=".5" y1=".011" x2=".5" y2="1"><stop offset="0" stop-color="#9C730A"/><stop offset="1" stop-color="#5C4408"/></linearGradient><path fill-rule="evenodd" d="M4 1C2.346 1 1 2.346 1 4v8c0 1.654 1.346 3 3 3h8c1.654 0 3-1.346 3-3V4c0-1.654-1.346-3-3-3H4z" fill="url(#a)"/><linearGradient id="b" x1=".5" y1=".013" x2=".5" y2="1.013"><stop offset="0" stop-color="#F6EFAA"/><stop offset="1" stop-color="#DBB657"/></linearGradient><path fill-rule="evenodd" d="M4 2a2 2 0 0 0-2 2v8a2 2 0 0 0 2 2h8a2 2 0 0 0 2-2V4a2 2 0 0 0-2-2H4z" fill="url(#b)"/><linearGradient id="c" x1=".5" y1=".019" x2=".5" y2="1.01"><stop offset="0" stop-color="#877000"/><stop offset="1" stop-color="#564800"/></linearGradient><path fill-rule="evenodd" d="M4 5h5V4H4m0 3h8V6H4m0 3h4.001V7.999H4M4 11h6v-1H4v1z" fill="url(#c)"/></svg>