<svg ti:v="1" width="16" height="16" viewBox="0 0 16 16" xmlns="http://www.w3.org/2000/svg" xmlns:ti="urn:schemas-jetbrains-com:tisvg"><rect id="frame" width="16" height="16" fill="none"/><linearGradient id="a" x1=".5" y1=".011" x2=".5" y2="1"><stop offset="0" stop-color="#9C720A"/><stop offset="1" stop-color="#5B4408"/></linearGradient><path fill-rule="evenodd" d="M6 2C4.346 2 3 3.346 3 5v7c0 1.654 1.346 3 3 3h7c1.654 0 3-1.346 3-3V5c0-1.654-1.346-3-3-3H6z" fill="url(#a)"/><linearGradient id="b" x1=".5" y1=".013" x2=".5" y2="1.013"><stop offset="0" stop-color="#F7F0AB"/><stop offset="1" stop-color="#DBB657"/></linearGradient><path fill-rule="evenodd" d="M6 3a2 2 0 0 0-2 2v7a2 2 0 0 0 2 2h7a2 2 0 0 0 2-2V5a2 2 0 0 0-2-2H6z" fill="url(#b)"/><linearGradient id="c" x1=".5" y1=".011" x2=".5" y2="1"><stop offset="0" stop-color="#9C720A"/><stop offset="1" stop-color="#5B4408"/></linearGradient><path fill-rule="evenodd" d="M4 0C2.346 0 1 1.346 1 3v7c0 1.654 1.346 3 3 3h7c1.654 0 3-1.346 3-3V3c0-1.654-1.346-3-3-3H4z" fill="url(#c)"/><linearGradient id="d" x1=".5" y1=".013" x2=".5" y2="1.013"><stop offset="0" stop-color="#F7F0AB"/><stop offset="1" stop-color="#DBB657"/></linearGradient><path fill-rule="evenodd" d="M4 1a2 2 0 0 0-2 2v7a2 2 0 0 0 2 2h7a2 2 0 0 0 2-2V3a2 2 0 0 0-2-2H4z" fill="url(#d)"/><linearGradient id="e" x1=".5" y1=".019" x2=".5" y2="1.01"><stop offset="0" stop-color="#876F00"/><stop offset="1" stop-color="#564700"/></linearGradient><path fill-rule="evenodd" d="M4 4h4V3H4m0 3h7V5H4m0 3h3V6.999H4M4 10h5V9H4v1z" fill="url(#e)"/></svg>