<svg width="70" height="70" viewBox="0 0 70 70" fill="none" xmlns="http://www.w3.org/2000/svg">
<path d="M70 18.7031L66.6094 44.5156L64.8594 56L41.7813 70L13.2344 48.125L48.0156 11.7031L70 18.7031Z" fill="url(#paint0_linear)"/>
<path d="M41.7812 64.2031L41.8906 66.2812H44.1875L45.0625 65.0781L41.7812 64.2031Z" fill="url(#paint1_linear)"/>
<path d="M63.1094 54.6875L66.6094 44.5156L68.6875 59.2812L63.1094 54.6875Z" fill="url(#paint2_linear)"/>
<path d="M70 18.7031L29.6406 46.1563L11.4844 49L48.0156 1.09375L70 18.7031Z" fill="url(#paint3_linear)"/>
<path d="M40.3594 11.4844L48.0156 1.09375L46.7031 22.3125L40.3594 11.4844Z" fill="url(#paint4_linear)"/>
<path d="M11.2656 48.7812L0.765625 41.2344L10.8281 31.2812L40.7969 43.4219L11.2656 48.7812Z" fill="url(#paint5_linear)"/>
<path d="M28.4375 60.5938L5.6875 68.25L11.375 52.1719L39.2656 41.4531L54.7969 50.9687L28.4375 60.5938Z" fill="url(#paint6_linear)"/>
<path d="M21.9844 14.7656L10.1719 0L33.0313 2.73438L35.6562 10.1719L21.9844 14.7656Z" fill="url(#paint7_linear)"/>
<path d="M66.6094 44.5156L33.0313 2.73438L20.6719 2.84375L13.7812 23.1875L57.4219 47.1406L50.0937 58.0781L64.8594 56L66.6094 44.5156Z" fill="url(#paint8_linear)"/>
<path d="M13.6719 24.3906L5.90625 24.1719L10.1719 0L20.6719 2.95313L13.6719 24.3906Z" fill="url(#paint9_linear)"/>
<path d="M57.4219 47.1406L37.8437 42.9844L0 27.7812L13.8906 23.4062L57.4219 47.1406Z" fill="url(#paint10_linear)"/>
<path d="M19.4687 6.5625L13.8906 23.4062L41.3437 38.3906L41.8906 38.5L53.1562 30.0781L19.4687 6.5625Z" fill="url(#paint11_linear)"/>
<path d="M10.1719 0L0 27.7812L12.9063 24.3906L13.8906 23.4062L19.4687 6.5625L10.1719 0Z" fill="url(#paint12_linear)"/>
<path d="M5.6875 68.25L14.3281 33.5781L37.8437 42.9844L5.6875 68.25Z" fill="url(#paint13_linear)"/>
<path d="M37.8437 42.9844L24.7187 31.6094L6.89063 29.9688L0.765625 41.2344L13.5625 36.0938L13.6719 35.9844L5.6875 68.25L37.8437 42.9844Z" fill="url(#paint14_linear)"/>
<path d="M57.4219 47.1406L45.2813 65.0781L28.4375 60.7031L37.8437 42.9844L57.4219 47.1406Z" fill="url(#paint15_linear)"/>
<path d="M57.4219 47.1406L37.8437 42.9844L0 27.7812L13.8906 23.4062L57.4219 47.1406Z" fill="url(#paint16_linear)"/>
<path d="M13.8906 23.4062L0 27.7812L41.3437 38.3906L13.8906 23.4062Z" fill="url(#paint17_linear)"/>
<path d="M64.8594 56L49.6563 58.0781L41.7812 70L68.6875 59.2812L64.8594 56Z" fill="url(#paint18_linear)"/>
<path d="M41.7813 70L49.875 58.1875L28.3281 60.8125L41.7813 70Z" fill="url(#paint19_linear)"/>
<path d="M26.0312 29.9687L41.2344 38.2812L54.4688 29.3125L40.1406 11.4844L26.0312 29.9687Z" fill="url(#paint20_linear)"/>
<path d="M53.1562 30.0781L35.3281 17.6094L26.0312 29.9687L41.2344 38.2812L52.6094 30.5156L53.1562 30.0781Z" fill="url(#paint21_linear)"/>
<path d="M57 13H13V57H57V13Z" fill="url(#paint22_linear)"/>
<g opacity="0.3">
<g opacity="0.3">
<path opacity="0.3" d="M56.2001 57L57.0001 56.9V47.6L50.6001 57H56.2001Z" fill="#231F20"/>
<path opacity="0.3" d="M41.2 13H17.4L13.9 23.3L55.1 45.9L14.1 23.5L13 23.8V32.9L37.8 42.9L57 47V46.9V32.7L41.2 13Z" fill="url(#paint23_linear)"/>
<path opacity="0.3" d="M17.3999 13L13.8999 23.3L56.9999 46.9V32.7L41.1999 13H17.3999Z" fill="url(#paint24_linear)"/>
<path opacity="0.3" d="M13 13V24.5H13.1L14 23.5L17.5 13H13Z" fill="#F9ED32"/>
</g>
<path opacity="0.3" d="M13 23.8V32.9L37.8 42.9L57 47V46.9L14.1 23.5L13 23.8Z" fill="url(#paint25_linear)"/>
<path opacity="0.3" d="M13 31.1L41.3 38.4L14.1 23.5L13 23.8V31.1Z" fill="url(#paint26_linear)"/>
<path opacity="0.3" d="M30.2999 57L37.7999 42.9L19.8999 57H30.2999Z" fill="url(#paint27_linear)"/>
<path opacity="0.3" d="M13 39.4L13.8 36L13.7 36.1L13 36.4V39.4Z" fill="#F7941D"/>
<path opacity="0.3" d="M13 36.4L13.7 36.1L13.8 36L13 39.4V57H19.9L37.8 42.9L13 32.9V36.4Z" fill="url(#paint28_linear)"/>
<path opacity="0.3" d="M30.3 57H50.6L57 47.6V47L37.8 42.9L30.3 57Z" fill="url(#paint29_linear)"/>
<g opacity="0.3">
<path opacity="0.3" d="M54.2999 29.3L57 27.5V13H41.2L54.2999 29.3Z" fill="url(#paint30_linear)"/>
</g>
</g>
<g opacity="0.3">
<path opacity="0.4" d="M17.3999 13L13.8999 23.3L56.9999 46.9V32.7L41.1999 13H17.3999Z" fill="url(#paint31_linear)"/>
<path opacity="0.4" d="M13 13V24.5H13.1L14 23.5L17.5 13H13Z" fill="#F9ED32"/>
</g>
<path d="M35 48.7H18.5V51.4H35V48.7Z" fill="white"/>
<path d="M26.7 21.5V18.5H18.5V21.5H20.8V31.9H18.5V34.9H26.7V31.9H24.4V21.5H26.7Z" fill="white"/>
<path d="M34.6 35.1C33.3 35.1 32.2 34.9 31.4 34.4C30.5 33.9 29.8 33.3 29.3 32.7L31.6 30.2C32.1 30.7 32.5 31.1 33 31.4C33.5 31.7 34 31.8 34.6 31.8C35.3 31.8 35.8001 31.6 36.2001 31.2C36.6001 30.8 36.8 30.1 36.8 29.1V18.5H40.5V29.2C40.5 30.2 40.4 31 40.1 31.8C39.8 32.5 39.5 33.1 39 33.6C38.5 34.1 37.9001 34.5 37.2001 34.7C36.3001 35 35.5 35.1 34.6 35.1Z" fill="white"/>
<defs>
<linearGradient id="paint0_linear" x1="40.6131" y1="20.9895" x2="43.571" y2="57.8973" gradientUnits="userSpaceOnUse">
<stop offset="0.0998726" stop-color="#087CFA"/>
<stop offset="0.4602" stop-color="#079AF6"/>
<stop offset="0.8454" stop-color="#07C3F2"/>
</linearGradient>
<linearGradient id="paint1_linear" x1="43.5155" y1="65.7512" x2="44.0954" y2="66.5927" gradientUnits="userSpaceOnUse">
<stop offset="0.2859" stop-color="#087CFA"/>
<stop offset="1" stop-color="#079AF6"/>
</linearGradient>
<linearGradient id="paint2_linear" x1="64.6786" y1="60.702" x2="71.1899" y2="41.0834" gradientUnits="userSpaceOnUse">
<stop offset="0.1184" stop-color="#27A6F6"/>
<stop offset="0.2418" stop-color="#2F99F5"/>
<stop offset="0.9197" stop-color="#5753F2"/>
</linearGradient>
<linearGradient id="paint3_linear" x1="71.3758" y1="3.99284" x2="30.6802" y2="28.6015" gradientUnits="userSpaceOnUse">
<stop offset="0.286" stop-color="#0AEFFF"/>
<stop offset="0.3292" stop-color="#09DEFA"/>
<stop offset="0.3966" stop-color="#07CAF4"/>
<stop offset="0.442" stop-color="#07C3F2"/>
<stop offset="0.5015" stop-color="#07ACF5"/>
<stop offset="0.5749" stop-color="#0897F7"/>
<stop offset="0.6568" stop-color="#0888F9"/>
<stop offset="0.7528" stop-color="#087FFA"/>
<stop offset="0.8981" stop-color="#087CFA"/>
</linearGradient>
<linearGradient id="paint4_linear" x1="44.1455" y1="-0.504" x2="44.1455" y2="26.4889" gradientUnits="userSpaceOnUse">
<stop offset="0.207" stop-color="#02C5FE"/>
<stop offset="0.317" stop-color="#04ACFD"/>
<stop offset="0.4435" stop-color="#0697FB"/>
<stop offset="0.5845" stop-color="#0788FB"/>
<stop offset="0.7499" stop-color="#087FFA"/>
<stop offset="1" stop-color="#087CFA"/>
</linearGradient>
<linearGradient id="paint5_linear" x1="11.2906" y1="33.4546" x2="17.3263" y2="39.1085" gradientUnits="userSpaceOnUse">
<stop offset="0" stop-color="#FF581C"/>
<stop offset="0.1918" stop-color="#FF5124"/>
<stop offset="0.4947" stop-color="#FE3F3B"/>
<stop offset="0.7851" stop-color="#FE2857"/>
</linearGradient>
<linearGradient id="paint6_linear" x1="19.1105" y1="47.661" x2="29.2845" y2="58.6176" gradientUnits="userSpaceOnUse">
<stop offset="0.4574" stop-color="#FF149D"/>
<stop offset="0.536" stop-color="#EF1AB2"/>
<stop offset="0.6983" stop-color="#C82BE9"/>
<stop offset="0.7574" stop-color="#B831FF"/>
<stop offset="0.8388" stop-color="#A33AFE"/>
<stop offset="1" stop-color="#6E51FD"/>
</linearGradient>
<linearGradient id="paint7_linear" x1="21.3122" y1="-1.80163" x2="24.5537" y2="12.3803" gradientUnits="userSpaceOnUse">
<stop offset="0.0276342" stop-color="#FFDE17"/>
<stop offset="0.276" stop-color="#FDB60D"/>
<stop offset="0.5939" stop-color="#FC801D"/>
<stop offset="0.6532" stop-color="#FC7A25"/>
<stop offset="0.7469" stop-color="#FD6A3C"/>
<stop offset="0.8628" stop-color="#FE4F61"/>
<stop offset="0.976" stop-color="#FF318C"/>
</linearGradient>
<linearGradient id="paint8_linear" x1="18.9817" y1="12.4455" x2="67.9074" y2="51.2874" gradientUnits="userSpaceOnUse">
<stop offset="0" stop-color="#FE2857"/>
<stop offset="0.0557468" stop-color="#FE255F"/>
<stop offset="0.1437" stop-color="#FF1F76"/>
<stop offset="0.2282" stop-color="#FF1692"/>
<stop offset="0.289" stop-color="#F11BA7"/>
<stop offset="0.4143" stop-color="#CD29DE"/>
<stop offset="0.4828" stop-color="#B831FF"/>
<stop offset="0.581" stop-color="#7A4CFD"/>
<stop offset="0.748" stop-color="#087CFA"/>
<stop offset="0.9745" stop-color="#07A5F5"/>
</linearGradient>
<linearGradient id="paint9_linear" x1="7.36783" y1="10.8432" x2="17.2808" y2="15.365" gradientUnits="userSpaceOnUse">
<stop offset="0.2889" stop-color="#FFDE17"/>
<stop offset="0.9874" stop-color="white"/>
</linearGradient>
<linearGradient id="paint10_linear" x1="5.3783" y1="24.74" x2="53.8909" y2="49.9786" gradientUnits="userSpaceOnUse">
<stop offset="0.2464" stop-color="#FE2857"/>
<stop offset="0.292" stop-color="#FE265F"/>
<stop offset="0.3641" stop-color="#FE1F76"/>
<stop offset="0.4534" stop-color="#FF159B"/>
<stop offset="0.4574" stop-color="#FF149D"/>
<stop offset="0.536" stop-color="#EF1AB2"/>
<stop offset="0.6983" stop-color="#C82BE9"/>
<stop offset="0.7574" stop-color="#B831FF"/>
<stop offset="0.811" stop-color="#A33AFE"/>
<stop offset="0.9215" stop-color="#6C52FD"/>
<stop offset="1" stop-color="#4164FC"/>
</linearGradient>
<linearGradient id="paint11_linear" x1="16.0443" y1="14.2734" x2="43.4355" y2="33.8387" gradientUnits="userSpaceOnUse">
<stop offset="0.00823305" stop-color="#FC35E3"/>
<stop offset="0.2164" stop-color="#F12CD5"/>
<stop offset="0.4105" stop-color="#EB27CD"/>
<stop offset="0.4984" stop-color="#DE2ADA"/>
<stop offset="0.7777" stop-color="#B831FF"/>
<stop offset="1" stop-color="#6D51FD"/>
</linearGradient>
<linearGradient id="paint12_linear" x1="4.90711" y1="13.7613" x2="14.3637" y2="19.8266" gradientUnits="userSpaceOnUse">
<stop offset="0.0433729" stop-color="#FFD25F"/>
<stop offset="0.2889" stop-color="#FEBC9B"/>
<stop offset="0.6173" stop-color="#FC9CF0"/>
<stop offset="1" stop-color="#FD5ED7"/>
</linearGradient>
<linearGradient id="paint13_linear" x1="-2.84189" y1="31.5539" x2="40.9405" y2="74.4033" gradientUnits="userSpaceOnUse">
<stop offset="0.0226617" stop-color="#FC801D"/>
<stop offset="0.2467" stop-color="#FC7E20"/>
<stop offset="0.276" stop-color="#FC772A"/>
<stop offset="0.3253" stop-color="#FD6444"/>
<stop offset="0.3881" stop-color="#FE466E"/>
<stop offset="0.4273" stop-color="#FF318C"/>
<stop offset="0.4924" stop-color="#EA3896"/>
<stop offset="0.6276" stop-color="#B248AE"/>
<stop offset="0.8194" stop-color="#5A63D6"/>
<stop offset="0.9859" stop-color="#087CFA"/>
</linearGradient>
<linearGradient id="paint14_linear" x1="7.89108" y1="31.6731" x2="21.7086" y2="55.5502" gradientUnits="userSpaceOnUse">
<stop offset="0.00442798" stop-color="#FFDE17"/>
<stop offset="0.0525354" stop-color="#FECB12"/>
<stop offset="0.1093" stop-color="#FDBB0E"/>
<stop offset="0.1542" stop-color="#FDB60D"/>
<stop offset="0.2351" stop-color="#FDAE0F"/>
<stop offset="0.3571" stop-color="#FC9A15"/>
<stop offset="0.4724" stop-color="#FC801D"/>
<stop offset="1" stop-color="#FE4176"/>
</linearGradient>
<linearGradient id="paint15_linear" x1="36.6691" y1="43.9825" x2="49.4447" y2="64.3358" gradientUnits="userSpaceOnUse">
<stop offset="0.0211218" stop-color="#B149AF"/>
<stop offset="0.0831639" stop-color="#9153BD"/>
<stop offset="0.2186" stop-color="#3F6BE2"/>
<stop offset="0.3042" stop-color="#087CFA"/>
<stop offset="0.7942" stop-color="#07C3F2"/>
</linearGradient>
<linearGradient id="paint16_linear" x1="5.3783" y1="24.74" x2="53.8909" y2="49.9786" gradientUnits="userSpaceOnUse">
<stop offset="0.2464" stop-color="#FE2857"/>
<stop offset="0.292" stop-color="#FE265F"/>
<stop offset="0.3641" stop-color="#FE1F76"/>
<stop offset="0.4534" stop-color="#FF159B"/>
<stop offset="0.4574" stop-color="#FF149D"/>
<stop offset="0.536" stop-color="#EF1AB2"/>
<stop offset="0.6983" stop-color="#C82BE9"/>
<stop offset="0.7574" stop-color="#B831FF"/>
<stop offset="0.811" stop-color="#A33AFE"/>
<stop offset="0.9215" stop-color="#6C52FD"/>
<stop offset="1" stop-color="#4164FC"/>
</linearGradient>
<linearGradient id="paint17_linear" x1="9.82537" y1="27.0243" x2="32.2037" y2="39.4718" gradientUnits="userSpaceOnUse">
<stop offset="0.00629908" stop-color="#FF45ED"/>
<stop offset="0.1766" stop-color="#FF35D8"/>
<stop offset="0.3352" stop-color="#FF24C0"/>
<stop offset="0.7349" stop-color="#EA23CA"/>
<stop offset="1" stop-color="#D923D1"/>
</linearGradient>
<linearGradient id="paint18_linear" x1="60.6409" y1="50.5828" x2="53.3108" y2="69.6154" gradientUnits="userSpaceOnUse">
<stop offset="0.2157" stop-color="#07C3F2"/>
<stop offset="0.3237" stop-color="#04B1EC"/>
<stop offset="0.4576" stop-color="#01A1E7"/>
<stop offset="0.5613" stop-color="#009BE5"/>
<stop offset="0.5745" stop-color="#0198E7"/>
<stop offset="0.6778" stop-color="#058AF1"/>
<stop offset="0.7992" stop-color="#0781F7"/>
<stop offset="0.9829" stop-color="#087EF9"/>
</linearGradient>
<linearGradient id="paint19_linear" x1="29.9943" y1="58.4123" x2="46.7768" y2="64.4122" gradientUnits="userSpaceOnUse">
<stop offset="0.1529" stop-color="#087CFA"/>
<stop offset="0.6343" stop-color="#009AE5"/>
<stop offset="1" stop-color="#07C3F2"/>
</linearGradient>
<linearGradient id="paint20_linear" x1="43.5495" y1="14.2096" x2="38.3342" y2="38.2295" gradientUnits="userSpaceOnUse">
<stop offset="0" stop-color="#FF188D"/>
<stop offset="0.3188" stop-color="#D82EC8"/>
<stop offset="0.4411" stop-color="#CC30CC"/>
<stop offset="0.6628" stop-color="#AC35D7"/>
<stop offset="0.8981" stop-color="#833CE5"/>
</linearGradient>
<linearGradient id="paint21_linear" x1="32.4018" y1="19.8738" x2="42.5758" y2="34.2216" gradientUnits="userSpaceOnUse">
<stop offset="0" stop-color="#FF188D"/>
<stop offset="0.3188" stop-color="#D82EC8"/>
<stop offset="0.4411" stop-color="#CC30CC"/>
<stop offset="0.6628" stop-color="#AC35D7"/>
<stop offset="0.8981" stop-color="#833CE5"/>
</linearGradient>
<linearGradient id="paint22_linear" x1="12.3211" y1="16.5108" x2="57.3627" y2="53.2314" gradientUnits="userSpaceOnUse">
<stop offset="0" stop-color="#521713"/>
<stop offset="0.080028" stop-color="#451310"/>
<stop offset="0.2989" stop-color="#270B09"/>
<stop offset="0.514" stop-color="#110504"/>
<stop offset="0.7218" stop-color="#040101"/>
<stop offset="0.9138"/>
</linearGradient>
<linearGradient id="paint23_linear" x1="13" y1="30.0226" x2="57" y2="30.0226" gradientUnits="userSpaceOnUse">
<stop offset="0.2464" stop-color="#FE2857"/>
<stop offset="0.292" stop-color="#FE265F"/>
<stop offset="0.3641" stop-color="#FE1F76"/>
<stop offset="0.4534" stop-color="#FF159B"/>
<stop offset="0.4574" stop-color="#FF149D"/>
<stop offset="0.536" stop-color="#EF1AB2"/>
<stop offset="0.6983" stop-color="#C82BE9"/>
<stop offset="0.7574" stop-color="#B831FF"/>
<stop offset="0.811" stop-color="#A33AFE"/>
<stop offset="0.9215" stop-color="#6C52FD"/>
<stop offset="1" stop-color="#4164FC"/>
</linearGradient>
<linearGradient id="paint24_linear" x1="13.9" y1="29.9725" x2="56.9999" y2="29.9725" gradientUnits="userSpaceOnUse">
<stop offset="0.1118" stop-color="#F7941D"/>
<stop offset="0.1374" stop-color="#F88C25"/>
<stop offset="0.178" stop-color="#F9753A"/>
<stop offset="0.2284" stop-color="#FB505D"/>
<stop offset="0.2863" stop-color="#FF1C8C"/>
<stop offset="0.2928" stop-color="#FF1692"/>
<stop offset="0.4031" stop-color="#EA1A93"/>
<stop offset="0.4677" stop-color="#DB1D93"/>
<stop offset="0.5543" stop-color="#9F2895"/>
<stop offset="0.7229" stop-color="#21409A"/>
<stop offset="0.8671" stop-color="#222F5C"/>
<stop offset="1" stop-color="#231F20"/>
</linearGradient>
<linearGradient id="paint25_linear" x1="13" y1="35.2625" x2="57" y2="35.2625" gradientUnits="userSpaceOnUse">
<stop offset="0.0878508" stop-color="#FE2857"/>
<stop offset="0.1283" stop-color="#FE265F"/>
<stop offset="0.1923" stop-color="#FE1F76"/>
<stop offset="0.2716" stop-color="#FF159B"/>
<stop offset="0.2751" stop-color="#FF149D"/>
<stop offset="0.4167" stop-color="#B21871"/>
<stop offset="0.5427" stop-color="#741B4E"/>
<stop offset="0.6489" stop-color="#481D35"/>
<stop offset="0.731" stop-color="#2D1E26"/>
<stop offset="0.7791" stop-color="#231F20"/>
</linearGradient>
<linearGradient id="paint26_linear" x1="17.2591" y1="29.2132" x2="34.4898" y2="38.7974" gradientUnits="userSpaceOnUse">
<stop offset="0.00629908" stop-color="#FF45ED"/>
<stop offset="0.1766" stop-color="#FF35D8"/>
<stop offset="0.3352" stop-color="#FF24C0"/>
<stop offset="0.451" stop-color="#EA24B0"/>
<stop offset="0.6916" stop-color="#B22388"/>
<stop offset="1" stop-color="#63214F"/>
</linearGradient>
<linearGradient id="paint27_linear" x1="19.9117" y1="49.9593" x2="37.8381" y2="49.9593" gradientUnits="userSpaceOnUse">
<stop offset="0.4574" stop-color="#FF149D"/>
<stop offset="0.536" stop-color="#EF1AB2"/>
<stop offset="0.6983" stop-color="#C82BE9"/>
<stop offset="0.7574" stop-color="#B831FF"/>
<stop offset="0.8388" stop-color="#A33AFE"/>
<stop offset="1" stop-color="#6E51FD"/>
</linearGradient>
<linearGradient id="paint28_linear" x1="13" y1="44.9603" x2="37.8382" y2="44.9603" gradientUnits="userSpaceOnUse">
<stop offset="0.00442798" stop-color="#FFDE17"/>
<stop offset="0.0386836" stop-color="#FECB12"/>
<stop offset="0.0790912" stop-color="#FDBB0E"/>
<stop offset="0.1111" stop-color="#FDB60D"/>
<stop offset="0.1673" stop-color="#FDAE0F"/>
<stop offset="0.2521" stop-color="#FC9A15"/>
<stop offset="0.3323" stop-color="#FC801D"/>
<stop offset="0.7374" stop-color="#BE1E2D"/>
</linearGradient>
<linearGradient id="paint29_linear" x1="30.3341" y1="49.9593" x2="57.0001" y2="49.9593" gradientUnits="userSpaceOnUse">
<stop offset="0" stop-color="#087CFA"/>
<stop offset="0.7942" stop-color="#231F20"/>
</linearGradient>
<linearGradient id="paint30_linear" x1="74.9541" y1="54.8872" x2="46.9162" y2="9.4838" gradientUnits="userSpaceOnUse">
<stop offset="0.3486" stop-color="#3595F3"/>
<stop offset="0.4019" stop-color="#3490EB"/>
<stop offset="0.4865" stop-color="#3284D4"/>
<stop offset="0.5918" stop-color="#2F6FAE"/>
<stop offset="0.7135" stop-color="#2B527B"/>
<stop offset="0.8476" stop-color="#252D39"/>
<stop offset="0.8951" stop-color="#231F20"/>
</linearGradient>
<linearGradient id="paint31_linear" x1="13.9" y1="29.9725" x2="56.9999" y2="29.9725" gradientUnits="userSpaceOnUse">
<stop offset="0.1118" stop-color="#F7941D"/>
<stop offset="0.1374" stop-color="#F88C25"/>
<stop offset="0.178" stop-color="#F9753A"/>
<stop offset="0.2284" stop-color="#FB505D"/>
<stop offset="0.2863" stop-color="#FF1C8C"/>
<stop offset="0.2928" stop-color="#FF1692"/>
<stop offset="0.4031" stop-color="#EA1A93"/>
<stop offset="0.4677" stop-color="#DB1D93"/>
<stop offset="0.5543" stop-color="#9F2895"/>
<stop offset="0.7229" stop-color="#21409A"/>
<stop offset="0.8671" stop-color="#222F5C"/>
<stop offset="1" stop-color="#231F20"/>
</linearGradient>
</defs>
</svg>
