<svg width="128" height="128" viewBox="0 0 128 128" fill="none" xmlns="http://www.w3.org/2000/svg">
<path d="M128 34.1L121.9 81.5L118.6 102.3L76.4 128L24.2 87.9001L87.6999 21.3L128 34.1Z" fill="url(#paint0_linear)"/>
<path d="M76.5 117.4V121.2H80.9L82.4 118.9L76.5 117.4Z" fill="url(#paint1_linear)"/>
<path d="M115.5 100L121.9 81.4L125.6 108.3L115.5 100Z" fill="url(#paint2_linear)"/>
<path d="M128 34.1L54.2999 84.5L20.8999 89.5L87.6999 2.09998L128 34.1Z" fill="url(#paint3_linear)"/>
<path d="M73.7 20.9L87.7 2.09998L85.3 40.8L73.7 20.9Z" fill="url(#paint4_linear)"/>
<path d="M20.6 89.3001L1.40002 75.4001L19.7 57.3L74.6 79.5L20.6 89.3001Z" fill="url(#paint5_linear)"/>
<path d="M52 110.8L10.3 124.8L20.8 95.4L71.7 75.7L100.2 93.2L52 110.8Z" fill="url(#paint6_linear)"/>
<path d="M40.2 26.9L18.5 0L60.4 4.9L65.2 18.7L40.2 26.9Z" fill="url(#paint7_linear)"/>
<path d="M121.9 81.4L60.4 4.90002L37.7999 5.30002L25.2 42.5L105.1 86.3L91.5 106.1L118.6 102.3L121.9 81.4Z" fill="url(#paint8_linear)"/>
<path d="M25 44.6L10.8 44.2L18.5 0L37.8 5.3L25 44.6Z" fill="url(#paint9_linear)"/>
<path d="M105.1 86.3001L69.2 78.6L0 50.7001L25.5 42.8L105.1 86.3001Z" fill="url(#paint10_linear)"/>
<path d="M35.6 11.9L25.4 42.8H25.3H25.5L75.6 70.2L76.6 70.5L97.3 55L35.6 11.9Z" fill="url(#paint11_linear)"/>
<path d="M18.5 0L0 50.7L23.6 44.6L25.4 42.8L35.6 11.9L18.5 0Z" fill="url(#paint12_linear)"/>
<path d="M10.3 124.8L26.2 61.4L69.2 78.6L10.3 124.8Z" fill="url(#paint13_linear)"/>
<path d="M69.2 78.6L45.3 57.9L12.5 54.9L1.40002 75.4L24.8 66L25.1 65.9L10.3 124.8L69.2 78.6Z" fill="url(#paint14_linear)"/>
<path d="M105.1 86.3L82.6999 119L51.8999 111L69.1999 78.6L105.1 86.3Z" fill="url(#paint15_linear)"/>
<path d="M105.1 86.3001L69.2 78.6L0 50.7001L25.5 42.8L105.1 86.3001Z" fill="url(#paint16_linear)"/>
<path d="M25.5 42.8L0 50.7001L75.6 70.2L25.5 42.8Z" fill="url(#paint17_linear)"/>
<path d="M118.6 102.3L90.6999 106.2L76.3999 128L125.6 108.3L118.6 102.3Z" fill="url(#paint18_linear)"/>
<path d="M76.4001 128L91.3001 106.3L51.8 111.2L76.4001 128Z" fill="url(#paint19_linear)"/>
<path d="M47.5 54.7L75.4 70L99.5 53.6L73.3 21L47.5 54.7Z" fill="url(#paint20_linear)"/>
<path d="M97.3 55L64.7 32.2L47.5 54.7L75.4 70L96.2 55.9L97.3 55Z" fill="url(#paint21_linear)"/>
<path d="M104 24H24V104H104V24Z" fill="url(#paint22_linear)"/>
<g opacity="0.3">
<g opacity="0.3">
<path opacity="0.3" d="M102.6 104L104 103.8V86.9L92.3 104H102.6Z" fill="#231F20"/>
<path opacity="0.3" d="M75.2 24H32L25.6 42.7L100.6 83.8L26 43.1L24 43.7V60.2L69.2 78.4L104 85.9V85.7V59.8L75.2 24Z" fill="url(#paint23_linear)"/>
<path opacity="0.3" d="M32.0001 24L25.6001 42.7L104 85.7V59.8L75.2001 24H32.0001Z" fill="url(#paint24_linear)"/>
<path opacity="0.3" d="M24 24V44.9H24.1L25.9 43L32.1 24H24Z" fill="#F9ED32"/>
</g>
<path opacity="0.3" d="M24 43.7V60.2L69.2 78.4L104 85.9V85.7L26 43.1L24 43.7Z" fill="url(#paint25_linear)"/>
<path opacity="0.3" d="M24 56.9L75.5 70.1L26 43.1L24 43.7V56.9Z" fill="url(#paint26_linear)"/>
<path opacity="0.3" d="M55.5001 104L69.2001 78.4L36.6001 104H55.5001Z" fill="url(#paint27_linear)"/>
<path opacity="0.3" d="M24 72L25.5 65.8L25.3 66L24 66.5V72Z" fill="#F7941D"/>
<path opacity="0.3" d="M24 66.5L25.3 66L25.5 65.8L24 72V104H36.6L69.2 78.4L24 60.2V66.5Z" fill="url(#paint28_linear)"/>
<path opacity="0.3" d="M55.5 104H92.3L104 86.9V85.9L69.2 78.4L55.5 104Z" fill="url(#paint29_linear)"/>
<g opacity="0.3">
<path opacity="0.3" d="M99.1 53.7L104 50.4V24H75.2L99.1 53.7Z" fill="url(#paint30_linear)"/>
</g>
</g>
<g opacity="0.3">
<path opacity="0.3" d="M32.0001 24L25.6001 42.7L104 85.7V59.8L75.2001 24H32.0001Z" fill="url(#paint31_linear)"/>
<path opacity="0.3" d="M24 24V44.9H24.1L25.9 43L32.1 24H24Z" fill="#F9ED32"/>
</g>
<path d="M64 88.9H34V93.9H64V88.9Z" fill="white"/>
<path d="M48.9 39.5V34H34V39.5H38.2V58.4H34V63.8H48.9V58.4H44.8V39.5H48.9Z" fill="white"/>
<path d="M63.3 64.3C61 64.3 59 63.9 57.4 63C55.8 62.1 54.5 61.1 53.5 59.8L57.6 55.2C58.5 56.1 59.3 56.9 60.2 57.4C61.1 57.9 62 58.2 63.1 58.2C64.3 58.2 65.3 57.8 66 57C66.7 56.2 67.1 55 67.1 53.2V34H73.8V53.5C73.8 55.3 73.6 56.8 73.1 58.1C72.6 59.4 71.9 60.5 71 61.4C70.1 62.3 69 63 67.7 63.5C66.3 64 64.9 64.3 63.3 64.3Z" fill="white"/>
<defs>
<linearGradient id="paint0_linear" x1="74.2641" y1="38.3809" x2="79.6726" y2="105.87" gradientUnits="userSpaceOnUse">
<stop offset="0.0998726" stop-color="#087CFA"/>
<stop offset="0.4602" stop-color="#079AF6"/>
<stop offset="0.8454" stop-color="#07C3F2"/>
</linearGradient>
<linearGradient id="paint1_linear" x1="79.5712" y1="120.231" x2="80.6316" y2="121.77" gradientUnits="userSpaceOnUse">
<stop offset="0.2859" stop-color="#087CFA"/>
<stop offset="1" stop-color="#079AF6"/>
</linearGradient>
<linearGradient id="paint2_linear" x1="118.269" y1="110.998" x2="130.176" y2="75.124" gradientUnits="userSpaceOnUse">
<stop offset="0.1184" stop-color="#27A6F6"/>
<stop offset="0.2418" stop-color="#2F99F5"/>
<stop offset="0.9197" stop-color="#5753F2"/>
</linearGradient>
<linearGradient id="paint3_linear" x1="130.516" y1="7.30107" x2="56.1009" y2="52.2998" gradientUnits="userSpaceOnUse">
<stop offset="0.286" stop-color="#0AEFFF"/>
<stop offset="0.3292" stop-color="#09DEFA"/>
<stop offset="0.3966" stop-color="#07CAF4"/>
<stop offset="0.442" stop-color="#07C3F2"/>
<stop offset="0.5015" stop-color="#07ACF5"/>
<stop offset="0.5749" stop-color="#0897F7"/>
<stop offset="0.6568" stop-color="#0888F9"/>
<stop offset="0.7528" stop-color="#087FFA"/>
<stop offset="0.8981" stop-color="#087CFA"/>
</linearGradient>
<linearGradient id="paint4_linear" x1="80.7232" y1="-0.921725" x2="80.7232" y2="48.4368" gradientUnits="userSpaceOnUse">
<stop offset="0.207" stop-color="#02C5FE"/>
<stop offset="0.317" stop-color="#04ACFD"/>
<stop offset="0.4435" stop-color="#0697FB"/>
<stop offset="0.5845" stop-color="#0788FB"/>
<stop offset="0.7499" stop-color="#087FFA"/>
<stop offset="1" stop-color="#087CFA"/>
</linearGradient>
<linearGradient id="paint5_linear" x1="20.6455" y1="61.1742" x2="31.6823" y2="71.5125" gradientUnits="userSpaceOnUse">
<stop offset="0" stop-color="#FF581C"/>
<stop offset="0.1918" stop-color="#FF5124"/>
<stop offset="0.4947" stop-color="#FE3F3B"/>
<stop offset="0.7851" stop-color="#FE2857"/>
</linearGradient>
<linearGradient id="paint6_linear" x1="34.945" y1="87.1516" x2="53.5487" y2="107.186" gradientUnits="userSpaceOnUse">
<stop offset="0.4574" stop-color="#FF149D"/>
<stop offset="0.536" stop-color="#EF1AB2"/>
<stop offset="0.6983" stop-color="#C82BE9"/>
<stop offset="0.7574" stop-color="#B831FF"/>
<stop offset="0.8388" stop-color="#A33AFE"/>
<stop offset="1" stop-color="#6E51FD"/>
</linearGradient>
<linearGradient id="paint7_linear" x1="38.9709" y1="-3.2944" x2="44.8983" y2="22.6381" gradientUnits="userSpaceOnUse">
<stop offset="0.0276342" stop-color="#FFDE17"/>
<stop offset="0.276" stop-color="#FDB60D"/>
<stop offset="0.5939" stop-color="#FC801D"/>
<stop offset="0.6532" stop-color="#FC7A25"/>
<stop offset="0.7469" stop-color="#FD6A3C"/>
<stop offset="0.8628" stop-color="#FE4F61"/>
<stop offset="0.976" stop-color="#FF318C"/>
</linearGradient>
<linearGradient id="paint8_linear" x1="34.7093" y1="22.7575" x2="124.174" y2="93.7826" gradientUnits="userSpaceOnUse">
<stop offset="0" stop-color="#FE2857"/>
<stop offset="0.0557468" stop-color="#FE255F"/>
<stop offset="0.1437" stop-color="#FF1F76"/>
<stop offset="0.2282" stop-color="#FF1692"/>
<stop offset="0.289" stop-color="#F11BA7"/>
<stop offset="0.4143" stop-color="#CD29DE"/>
<stop offset="0.4828" stop-color="#B831FF"/>
<stop offset="0.581" stop-color="#7A4CFD"/>
<stop offset="0.748" stop-color="#087CFA"/>
<stop offset="0.9745" stop-color="#07A5F5"/>
</linearGradient>
<linearGradient id="paint9_linear" x1="13.4725" y1="19.8276" x2="31.5992" y2="28.0959" gradientUnits="userSpaceOnUse">
<stop offset="0.2889" stop-color="#FFDE17"/>
<stop offset="0.9874" stop-color="white"/>
</linearGradient>
<linearGradient id="paint10_linear" x1="9.8345" y1="45.2388" x2="98.5434" y2="91.3895" gradientUnits="userSpaceOnUse">
<stop offset="0.2464" stop-color="#FE2857"/>
<stop offset="0.292" stop-color="#FE265F"/>
<stop offset="0.3641" stop-color="#FE1F76"/>
<stop offset="0.4534" stop-color="#FF159B"/>
<stop offset="0.4574" stop-color="#FF149D"/>
<stop offset="0.536" stop-color="#EF1AB2"/>
<stop offset="0.6983" stop-color="#C82BE9"/>
<stop offset="0.7574" stop-color="#B831FF"/>
<stop offset="0.811" stop-color="#A33AFE"/>
<stop offset="0.9215" stop-color="#6C52FD"/>
<stop offset="1" stop-color="#4164FC"/>
</linearGradient>
<linearGradient id="paint11_linear" x1="29.3382" y1="26.1001" x2="79.425" y2="61.8764" gradientUnits="userSpaceOnUse">
<stop offset="0.00823305" stop-color="#FC35E3"/>
<stop offset="0.2164" stop-color="#F12CD5"/>
<stop offset="0.4105" stop-color="#EB27CD"/>
<stop offset="0.4984" stop-color="#DE2ADA"/>
<stop offset="0.7777" stop-color="#B831FF"/>
<stop offset="1" stop-color="#6D51FD"/>
</linearGradient>
<linearGradient id="paint12_linear" x1="8.973" y1="25.1637" x2="26.2649" y2="36.2544" gradientUnits="userSpaceOnUse">
<stop offset="0.0433729" stop-color="#FFD25F"/>
<stop offset="0.2889" stop-color="#FEBC9B"/>
<stop offset="0.6173" stop-color="#FC9CF0"/>
<stop offset="1" stop-color="#FD5ED7"/>
</linearGradient>
<linearGradient id="paint13_linear" x1="-5.19655" y1="57.6986" x2="74.8627" y2="136.052" gradientUnits="userSpaceOnUse">
<stop offset="0.0226617" stop-color="#FC801D"/>
<stop offset="0.2467" stop-color="#FC7E20"/>
<stop offset="0.276" stop-color="#FC772A"/>
<stop offset="0.3253" stop-color="#FD6444"/>
<stop offset="0.3881" stop-color="#FE466E"/>
<stop offset="0.4273" stop-color="#FF318C"/>
<stop offset="0.4924" stop-color="#EA3896"/>
<stop offset="0.6276" stop-color="#B248AE"/>
<stop offset="0.8194" stop-color="#5A63D6"/>
<stop offset="0.9859" stop-color="#087CFA"/>
</linearGradient>
<linearGradient id="paint14_linear" x1="14.4295" y1="57.9167" x2="39.6959" y2="101.578" gradientUnits="userSpaceOnUse">
<stop offset="0.00442798" stop-color="#FFDE17"/>
<stop offset="0.0525354" stop-color="#FECB12"/>
<stop offset="0.1093" stop-color="#FDBB0E"/>
<stop offset="0.1542" stop-color="#FDB60D"/>
<stop offset="0.2351" stop-color="#FDAE0F"/>
<stop offset="0.3571" stop-color="#FC9A15"/>
<stop offset="0.4724" stop-color="#FC801D"/>
<stop offset="1" stop-color="#FE4176"/>
</linearGradient>
<linearGradient id="paint15_linear" x1="67.052" y1="80.4252" x2="90.413" y2="117.643" gradientUnits="userSpaceOnUse">
<stop offset="0.0211218" stop-color="#B149AF"/>
<stop offset="0.0831639" stop-color="#9153BD"/>
<stop offset="0.2186" stop-color="#3F6BE2"/>
<stop offset="0.3042" stop-color="#087CFA"/>
<stop offset="0.7942" stop-color="#07C3F2"/>
</linearGradient>
<linearGradient id="paint16_linear" x1="9.8345" y1="45.2388" x2="98.5434" y2="91.3895" gradientUnits="userSpaceOnUse">
<stop offset="0.2464" stop-color="#FE2857"/>
<stop offset="0.292" stop-color="#FE265F"/>
<stop offset="0.3641" stop-color="#FE1F76"/>
<stop offset="0.4534" stop-color="#FF159B"/>
<stop offset="0.4574" stop-color="#FF149D"/>
<stop offset="0.536" stop-color="#EF1AB2"/>
<stop offset="0.6983" stop-color="#C82BE9"/>
<stop offset="0.7574" stop-color="#B831FF"/>
<stop offset="0.811" stop-color="#A33AFE"/>
<stop offset="0.9215" stop-color="#6C52FD"/>
<stop offset="1" stop-color="#4164FC"/>
</linearGradient>
<linearGradient id="paint17_linear" x1="17.9664" y1="49.4157" x2="58.8868" y2="72.1769" gradientUnits="userSpaceOnUse">
<stop offset="0.00629908" stop-color="#FF45ED"/>
<stop offset="0.1766" stop-color="#FF35D8"/>
<stop offset="0.3352" stop-color="#FF24C0"/>
<stop offset="0.7349" stop-color="#EA23CA"/>
<stop offset="1" stop-color="#D923D1"/>
</linearGradient>
<linearGradient id="paint18_linear" x1="110.886" y1="92.4943" x2="97.4825" y2="127.297" gradientUnits="userSpaceOnUse">
<stop offset="0.2157" stop-color="#07C3F2"/>
<stop offset="0.3237" stop-color="#04B1EC"/>
<stop offset="0.4576" stop-color="#01A1E7"/>
<stop offset="0.5613" stop-color="#009BE5"/>
<stop offset="0.5745" stop-color="#0198E7"/>
<stop offset="0.6778" stop-color="#058AF1"/>
<stop offset="0.7992" stop-color="#0781F7"/>
<stop offset="0.9829" stop-color="#087EF9"/>
</linearGradient>
<linearGradient id="paint19_linear" x1="54.8467" y1="106.811" x2="85.5349" y2="117.782" gradientUnits="userSpaceOnUse">
<stop offset="0.1529" stop-color="#087CFA"/>
<stop offset="0.6343" stop-color="#009AE5"/>
<stop offset="1" stop-color="#07C3F2"/>
</linearGradient>
<linearGradient id="paint20_linear" x1="79.6335" y1="25.9833" x2="70.0969" y2="69.9054" gradientUnits="userSpaceOnUse">
<stop offset="0" stop-color="#FF188D"/>
<stop offset="0.3188" stop-color="#D82EC8"/>
<stop offset="0.4411" stop-color="#CC30CC"/>
<stop offset="0.6628" stop-color="#AC35D7"/>
<stop offset="0.8981" stop-color="#833CE5"/>
</linearGradient>
<linearGradient id="paint21_linear" x1="59.249" y1="36.3406" x2="77.8527" y2="62.5766" gradientUnits="userSpaceOnUse">
<stop offset="0" stop-color="#FF188D"/>
<stop offset="0.3188" stop-color="#D82EC8"/>
<stop offset="0.4411" stop-color="#CC30CC"/>
<stop offset="0.6628" stop-color="#AC35D7"/>
<stop offset="0.8981" stop-color="#833CE5"/>
</linearGradient>
<linearGradient id="paint22_linear" x1="22.7656" y1="30.3832" x2="104.659" y2="97.1481" gradientUnits="userSpaceOnUse">
<stop offset="0" stop-color="#521713"/>
<stop offset="0.080028" stop-color="#451310"/>
<stop offset="0.2989" stop-color="#270B09"/>
<stop offset="0.514" stop-color="#110504"/>
<stop offset="0.7218" stop-color="#040101"/>
<stop offset="0.9138"/>
</linearGradient>
<linearGradient id="paint23_linear" x1="24" y1="54.9501" x2="104" y2="54.9501" gradientUnits="userSpaceOnUse">
<stop offset="0.2464" stop-color="#FE2857"/>
<stop offset="0.292" stop-color="#FE265F"/>
<stop offset="0.3641" stop-color="#FE1F76"/>
<stop offset="0.4534" stop-color="#FF159B"/>
<stop offset="0.4574" stop-color="#FF149D"/>
<stop offset="0.536" stop-color="#EF1AB2"/>
<stop offset="0.6983" stop-color="#C82BE9"/>
<stop offset="0.7574" stop-color="#B831FF"/>
<stop offset="0.811" stop-color="#A33AFE"/>
<stop offset="0.9215" stop-color="#6C52FD"/>
<stop offset="1" stop-color="#4164FC"/>
</linearGradient>
<linearGradient id="paint24_linear" x1="25.6366" y1="54.8591" x2="104" y2="54.8591" gradientUnits="userSpaceOnUse">
<stop offset="0.1118" stop-color="#F7941D"/>
<stop offset="0.1374" stop-color="#F88C25"/>
<stop offset="0.178" stop-color="#F9753A"/>
<stop offset="0.2284" stop-color="#FB505D"/>
<stop offset="0.2863" stop-color="#FF1C8C"/>
<stop offset="0.2928" stop-color="#FF1692"/>
<stop offset="0.4031" stop-color="#EA1A93"/>
<stop offset="0.4677" stop-color="#DB1D93"/>
<stop offset="0.5543" stop-color="#9F2895"/>
<stop offset="0.7229" stop-color="#21409A"/>
<stop offset="0.8671" stop-color="#222F5C"/>
<stop offset="1" stop-color="#231F20"/>
</linearGradient>
<linearGradient id="paint25_linear" x1="24" y1="64.4773" x2="104" y2="64.4773" gradientUnits="userSpaceOnUse">
<stop offset="0.0878508" stop-color="#FE2857"/>
<stop offset="0.1283" stop-color="#FE265F"/>
<stop offset="0.1923" stop-color="#FE1F76"/>
<stop offset="0.2716" stop-color="#FF159B"/>
<stop offset="0.2751" stop-color="#FF149D"/>
<stop offset="0.4167" stop-color="#B21871"/>
<stop offset="0.5427" stop-color="#741B4E"/>
<stop offset="0.6489" stop-color="#481D35"/>
<stop offset="0.731" stop-color="#2D1E26"/>
<stop offset="0.7791" stop-color="#231F20"/>
</linearGradient>
<linearGradient id="paint26_linear" x1="31.7439" y1="53.4785" x2="63.0723" y2="70.9044" gradientUnits="userSpaceOnUse">
<stop offset="0.00629908" stop-color="#FF45ED"/>
<stop offset="0.1766" stop-color="#FF35D8"/>
<stop offset="0.3352" stop-color="#FF24C0"/>
<stop offset="0.451" stop-color="#EA24B0"/>
<stop offset="0.6916" stop-color="#B22388"/>
<stop offset="1" stop-color="#63214F"/>
</linearGradient>
<linearGradient id="paint27_linear" x1="36.567" y1="91.1987" x2="69.1605" y2="91.1987" gradientUnits="userSpaceOnUse">
<stop offset="0.4574" stop-color="#FF149D"/>
<stop offset="0.536" stop-color="#EF1AB2"/>
<stop offset="0.6983" stop-color="#C82BE9"/>
<stop offset="0.7574" stop-color="#B831FF"/>
<stop offset="0.8388" stop-color="#A33AFE"/>
<stop offset="1" stop-color="#6E51FD"/>
</linearGradient>
<linearGradient id="paint28_linear" x1="24" y1="82.1096" x2="69.1604" y2="82.1096" gradientUnits="userSpaceOnUse">
<stop offset="0.00442798" stop-color="#FFDE17"/>
<stop offset="0.0386836" stop-color="#FECB12"/>
<stop offset="0.0790912" stop-color="#FDBB0E"/>
<stop offset="0.1111" stop-color="#FDB60D"/>
<stop offset="0.1673" stop-color="#FDAE0F"/>
<stop offset="0.2521" stop-color="#FC9A15"/>
<stop offset="0.3323" stop-color="#FC801D"/>
<stop offset="0.7374" stop-color="#BE1E2D"/>
</linearGradient>
<linearGradient id="paint29_linear" x1="55.5166" y1="91.1987" x2="104" y2="91.1987" gradientUnits="userSpaceOnUse">
<stop offset="0" stop-color="#087CFA"/>
<stop offset="0.7942" stop-color="#231F20"/>
</linearGradient>
<linearGradient id="paint30_linear" x1="136.644" y1="100.159" x2="85.6658" y2="17.6069" gradientUnits="userSpaceOnUse">
<stop offset="0.3486" stop-color="#3595F3"/>
<stop offset="0.4019" stop-color="#3490EB"/>
<stop offset="0.4865" stop-color="#3284D4"/>
<stop offset="0.5918" stop-color="#2F6FAE"/>
<stop offset="0.7135" stop-color="#2B527B"/>
<stop offset="0.8476" stop-color="#252D39"/>
<stop offset="0.8951" stop-color="#231F20"/>
</linearGradient>
<linearGradient id="paint31_linear" x1="25.6366" y1="54.8591" x2="104" y2="54.8591" gradientUnits="userSpaceOnUse">
<stop offset="0.1118" stop-color="#F7941D"/>
<stop offset="0.1374" stop-color="#F88C25"/>
<stop offset="0.178" stop-color="#F9753A"/>
<stop offset="0.2284" stop-color="#FB505D"/>
<stop offset="0.2863" stop-color="#FF1C8C"/>
<stop offset="0.2928" stop-color="#FF1692"/>
<stop offset="0.4031" stop-color="#EA1A93"/>
<stop offset="0.4677" stop-color="#DB1D93"/>
<stop offset="0.5543" stop-color="#9F2895"/>
<stop offset="0.7229" stop-color="#21409A"/>
<stop offset="0.8671" stop-color="#222F5C"/>
<stop offset="1" stop-color="#231F20"/>
</linearGradient>
</defs>
</svg>
