<svg xmlns="http://www.w3.org/2000/svg" xmlns:xlink="http://www.w3.org/1999/xlink" width="40" height="40" viewBox="0 0 40 40"><rect id="frame" width="40" height="40" fill="none"/><defs><path id="a" d="M0 0h36v22H0z"/></defs><g fill="none" fill-rule="evenodd" transform="translate(2 9)"><mask id="b" fill="#fff"><use xlink:href="#a"/></mask><path fill="#000" d="M17.975 20.28c5.1 0 10.2-.008 15.302.008.542.002 1-.37.998-.99-.014-5.55-.008-11.1-.008-16.65 0-.574-.353-.928-.928-.928H2.665c-.578 0-.931.352-.931.925v16.718c0 .562.356.916.916.916h15.325zm.014 1.72H2.637C1.149 22 0 20.857 0 19.377V2.61C0 1.145 1.152 0 2.625 0h30.75C34.848 0 36 1.145 36 2.61v16.768C36 20.858 34.85 22 33.363 22H17.989z" mask="url(#b)"/><path fill="#000" d="M19.017 16.831h-3.438v-6.616a.95.95 0 0 0-.05-.017l-3.413 4.236-3.453-4.284v6.677H5.219V5.174c.058-.004.125-.012.192-.012 1.015 0 2.03.002 3.046-.004a.374.374 0 0 1 .33.161C9.86 6.66 10.94 7.996 12.017 9.332c.029.036.063.068.105.114.477-.592.95-1.177 1.42-1.763.644-.798 1.286-1.599 1.932-2.394.048-.059.134-.122.203-.122 1.109-.008 2.217-.005 3.34-.005v11.67zm6.07-11.662h3.459v5.986h3.485l-5.204 5.686-5.185-5.665h3.445V5.17z"/></g></svg>