<svg xmlns="http://www.w3.org/2000/svg" width="16" height="16" viewBox="0 0 16 16"><rect id="frame" width="16" height="16" fill="none"/><g fill="none" fill-rule="evenodd"><path fill="#9AA7B0" d="M12 13.5h-2v1h2v1l2-1.447-2-1.553z"/><path fill="#40B6E0" fill-opacity=".7" d="M9.5 15v-2H11V9H9v7h2v-1z"/><path fill="#9AA7B0" d="M11 10.947L13 9.5v1h2v1h-2v1z"/><path fill="#40B6E0" fill-opacity=".7" d="M15.5 10v2H14v4h2V9h-2v1z"/><path fill="#9AA7B0" fill-opacity=".8" d="M8 8h7V4H7.984L6.696 2.711C6.305 2.32 5.532 2 4.979 2H1.051A.05.05 0 0 0 1 2.051V13h7V8z"/></g></svg>