<svg width="80" height="80" viewBox="0 0 80 80" fill="none" xmlns="http://www.w3.org/2000/svg">
<path d="M69.8648 12.3001C69.7996 11.1908 68.8869 10.2772 67.7786 10.2119C65.6925 10.0814 62.1722 9.95089 57.8696 10.0814C57.6741 10.0814 57.3481 10.0814 57.1525 10.0814C49.2644 10.3424 39.3554 11.3213 30.5547 14.5188C30.2939 14.5841 29.7072 14.8451 29.316 14.9756C24.6223 16.8027 20.3849 19.3477 17.1253 22.6758C6.89037 33.2472 7.80304 50.6705 19.0811 61.5682C30.3591 72.4659 47.8954 72.9227 58 62.2208C59.1083 61.0462 60.0861 59.7411 61.064 58.3707C70.7122 44.0144 70.1907 19.413 69.8648 12.3001Z" fill="url(#paint0_radial)"/>
<path d="M69.4736 12.1708C69.6039 11.192 68.8868 10.2784 67.909 10.2131C65.8881 10.0826 62.3026 9.9521 57.8696 10.0174C57.674 10.0174 57.3481 10.0174 57.1525 10.0174C49.8511 10.2784 40.7244 11.192 32.4451 13.8674C32.3148 13.9327 32.1844 13.998 32.1192 14.0632C31.5325 14.4548 30.8154 14.8463 30.685 14.9115L30.6198 14.9768C29.9027 15.4336 29.1856 15.8904 28.4685 16.4124C19.1462 23.2643 17.1253 35.5976 23.9703 43.8851C30.8154 52.1726 43.8535 53.3472 53.0455 46.3648C54.0233 45.5818 55.0012 44.7334 55.9139 43.8199C63.9975 35.5976 67.583 21.6981 69.0172 14.6505C69.1476 13.8022 69.3432 12.9539 69.4736 12.1708Z" fill="url(#paint1_linear)"/>
<path d="M53.0454 46.3649C54.0233 45.5818 55.0011 44.7335 55.9138 43.8199C63.9975 35.5977 67.583 21.6982 69.0172 14.6506C69.2128 13.737 69.3431 12.8234 69.4735 12.0404C69.6039 11.2573 68.8868 10.6047 68.1045 10.8005C67.0615 11.1268 65.7576 11.5183 64.845 11.7794C57.5436 14.1286 48.1561 17.9134 40.6592 23.5254C37.3996 26.0704 34.6616 28.9416 33.0318 32.2044C30.4242 37.2944 29.9027 43.9505 32.4451 49.3014C32.5755 49.5625 32.8362 49.8235 33.097 49.8887C39.4857 51.9769 47.113 50.9328 53.0454 46.3649Z" fill="url(#paint2_radial)"/>
<defs>
<radialGradient id="paint0_radial" cx="0" cy="0" r="1" gradientUnits="userSpaceOnUse" gradientTransform="translate(18.1706 14.2533) scale(62.8346 62.8971)">
<stop offset="0.1646" stop-color="#42FFFA"/>
<stop offset="0.539" stop-color="#07C3F2"/>
<stop offset="0.6723" stop-color="#3595F3"/>
<stop offset="0.8655" stop-color="#7D11EF"/>
<stop offset="1" stop-color="#AF1DF5"/>
</radialGradient>
<linearGradient id="paint1_linear" x1="5.44302" y1="-7.42453" x2="68.0181" y2="45.7114" gradientUnits="userSpaceOnUse">
<stop stop-color="#AF1DF5"/>
<stop offset="0.1194" stop-color="#A329F5"/>
<stop offset="0.349" stop-color="#3595F3"/>
<stop offset="0.5653" stop-color="#07C3F2"/>
<stop offset="0.7911" stop-color="#42FFFA"/>
</linearGradient>
<radialGradient id="paint2_radial" cx="0" cy="0" r="1" gradientUnits="userSpaceOnUse" gradientTransform="translate(53.6651 81.2417) scale(91.7766 91.868)">
<stop offset="0.1267" stop-color="white"/>
<stop offset="0.9427" stop-color="#07C3F2" stop-opacity="0"/>
</radialGradient>
</defs>
</svg>
