<svg width="70" height="70" viewBox="0 0 70 70" fill="none" xmlns="http://www.w3.org/2000/svg">
<path d="M60.882 10.9936C60.8255 10.0322 60.0345 9.24044 59.0741 9.18389C57.2661 9.07078 54.2152 8.95767 50.4864 9.07078C50.3169 9.07078 50.0344 9.07078 49.8649 9.07078C43.0287 9.29699 34.441 10.1453 26.8138 12.9165C26.5878 12.973 26.0793 13.1992 25.7403 13.3123C21.6725 14.8959 18.0001 17.1015 15.1752 19.9857C6.30503 29.1475 7.096 44.2475 16.8701 53.692C26.6443 63.1365 41.8422 63.5324 50.5994 54.2575C51.5598 53.2396 52.4073 52.1085 53.2548 50.9208C61.6165 38.4789 61.1645 17.158 60.882 10.9936Z" fill="url(#paint0_radial)"/>
<path d="M60.543 10.8813C60.6559 10.033 60.0345 9.24126 59.187 9.18471C57.4356 9.0716 54.3282 8.95849 50.4863 9.01504C50.3168 9.01504 50.0343 9.01504 49.8649 9.01504C43.5371 9.24126 35.6274 10.033 28.4521 12.3517C28.3392 12.4083 28.2262 12.4648 28.1697 12.5214C27.6612 12.8607 27.0397 13.2 26.9267 13.2566L26.8702 13.3132C26.2487 13.709 25.6273 14.1049 25.0058 14.5573C16.9266 20.4955 15.1751 31.1843 21.1074 38.3666C27.0397 45.549 38.3393 46.567 46.3055 40.5157C47.153 39.8371 48.0004 39.1019 48.7914 38.3101C55.7971 31.1843 58.9045 19.1382 60.1475 13.0304C60.2605 12.2952 60.43 11.56 60.543 10.8813Z" fill="url(#paint1_linear)"/>
<path d="M46.3055 40.5157C47.153 39.8371 48.0005 39.1019 48.7914 38.3101C55.7972 31.1843 58.9045 19.1383 60.1475 13.0304C60.317 12.2387 60.43 11.4469 60.543 10.7683C60.656 10.0896 60.0345 9.52407 59.3565 9.69373C58.4526 9.9765 57.3226 10.3158 56.5316 10.542C50.2039 12.578 42.0682 15.8581 35.5709 20.7218C32.746 22.9274 30.3731 25.4158 28.9607 28.2435C26.7007 32.6547 26.2488 38.4232 28.4522 43.0607C28.5652 43.2869 28.7912 43.5131 29.0172 43.5697C34.554 45.3794 41.1642 44.4745 46.3055 40.5157Z" fill="url(#paint2_radial)"/>
<defs>
<radialGradient id="paint0_radial" cx="0" cy="0" r="1" gradientUnits="userSpaceOnUse" gradientTransform="translate(16.0811 12.6864) scale(54.4558 54.51)">
<stop offset="0.1646" stop-color="#42FFFA"/>
<stop offset="0.539" stop-color="#07C3F2"/>
<stop offset="0.6723" stop-color="#3595F3"/>
<stop offset="0.8655" stop-color="#7D11EF"/>
<stop offset="1" stop-color="#AF1DF5"/>
</radialGradient>
<linearGradient id="paint1_linear" x1="5.05066" y1="-6.10103" x2="59.2816" y2="39.9494" gradientUnits="userSpaceOnUse">
<stop stop-color="#AF1DF5"/>
<stop offset="0.1194" stop-color="#A329F5"/>
<stop offset="0.349" stop-color="#3595F3"/>
<stop offset="0.5653" stop-color="#07C3F2"/>
<stop offset="0.7911" stop-color="#42FFFA"/>
</linearGradient>
<radialGradient id="paint2_radial" cx="0" cy="0" r="1" gradientUnits="userSpaceOnUse" gradientTransform="translate(46.8425 70.7418) scale(79.5385 79.6177)">
<stop offset="0.1267" stop-color="white"/>
<stop offset="0.9427" stop-color="#07C3F2" stop-opacity="0"/>
</radialGradient>
</defs>
</svg>
