<svg xmlns="http://www.w3.org/2000/svg" width="16" height="16" viewBox="0 0 16 16">
  <g fill="none" fill-rule="evenodd">
    <path fill="#F4AF3D" fill-opacity=".6" d="M7,1 L3.932,1 C2.318,1 1,2.318 1,3.932 L1,12.068 C1,13.682 2.318,15 3.932,15 L12.068,15 C13.682,15 15,13.682 15,12.068 L15,9 L7,1 Z"/>
    <path fill="#F26522" fill-opacity=".7" d="M12.0684,1 L8.0004,1 L15.0004,8 L15.0004,3.932 C15.0004,2.318 13.6814,1 12.0684,1"/>
    <polygon fill="#231F20" fill-opacity=".7" points="1 5 1 0 0 0 0 6 4 6 4 5" transform="translate(6 5)"/>
  </g>
</svg>
