<svg width="80" height="80" viewBox="0 0 80 80" fill="none" xmlns="http://www.w3.org/2000/svg">
<g clip-path="url(#clip0)">
<path d="M66.5 0L43.6667 8.16667L25.5834 0L19.6667 15H15.8334V59.1667L71.3334 59.6667L80 15.6667L66.5 0Z" fill="url(#paint0_linear)"/>
<path d="M65.8335 28.7499L29.3335 6.99988L65.8335 49.9165V28.7499Z" fill="url(#paint1_linear)"/>
<path d="M33.3333 77.9165L63.1667 73.9165L58.5833 64.9999L55.8333 59.1666L58.5833 54.375L63.1667 45L29.25 6.99988L0 14.1665V56.1665L16.8333 79.9999L33.1667 77.9165H33.25H33.3333Z" fill="url(#paint2_linear)"/>
<path d="M65 15H15V65H65V15Z" fill="url(#paint3_linear)"/>
<path d="M39.9 55.5H21.2V58.6H39.9V55.5Z" fill="white"/>
<path d="M39.4066 21.62H43.8154L48.6324 29.3762L53.4495 21.62H57.8583V39.99H53.776V27.9883L48.6324 35.8261H48.5508L43.4072 28.0699V39.99H39.4066V21.62Z" fill="white"/>
<path d="M21.2817 21.62H29.691C32.0587 21.62 33.7733 22.2732 35.0796 23.4978C36.1409 24.5592 36.6308 25.9472 36.6308 27.6617V27.7433C36.6308 29.2129 36.3042 30.4376 35.5694 31.4173C34.8346 32.3154 33.8549 33.0502 32.7119 33.4584L37.2023 39.99H32.4669L28.6297 34.3565H25.2822V39.99H21.2V21.62H21.2817ZM29.4461 30.5192C30.4258 30.5192 31.2423 30.2743 31.7321 29.7844C32.3037 29.2946 32.5486 28.6414 32.5486 27.9066V27.825C32.5486 26.9269 32.3037 26.2737 31.7321 25.8655C31.1606 25.4573 30.4258 25.2124 29.3645 25.2124H25.3639V30.5192H29.4461Z" fill="white"/>
</g>
<defs>
<linearGradient id="paint0_linear" x1="51.288" y1="46.2712" x2="41.1792" y2="19.7353" gradientUnits="userSpaceOnUse">
<stop offset="0" stop-color="#FE2857"/>
<stop offset="0.0562257" stop-color="#FE3052"/>
<stop offset="0.3252" stop-color="#FD533B"/>
<stop offset="0.5796" stop-color="#FC6C2A"/>
<stop offset="0.8114" stop-color="#FC7B20"/>
<stop offset="1" stop-color="#FC801D"/>
</linearGradient>
<linearGradient id="paint1_linear" x1="32.0235" y1="8.28738" x2="47.6422" y2="22.6045" gradientUnits="userSpaceOnUse">
<stop offset="0" stop-color="#6B57FF"/>
<stop offset="1" stop-color="#FE2857"/>
</linearGradient>
<linearGradient id="paint2_linear" x1="0.349333" y1="12.8135" x2="51.7711" y2="78.1802" gradientUnits="userSpaceOnUse">
<stop offset="0.00149909" stop-color="#6B57FF"/>
<stop offset="0.2967" stop-color="#FE2857"/>
<stop offset="0.629" stop-color="#FE2857"/>
<stop offset="0.6414" stop-color="#FE3052"/>
<stop offset="0.7007" stop-color="#FD533B"/>
<stop offset="0.7568" stop-color="#FC6C2A"/>
<stop offset="0.8079" stop-color="#FC7B20"/>
<stop offset="0.8495" stop-color="#FC801D"/>
</linearGradient>
<linearGradient id="paint3_linear" x1="39.9989" y1="2.84554" x2="39.9989" y2="47.6855" gradientUnits="userSpaceOnUse">
<stop offset="0.0842986" stop-color="#878585"/>
<stop offset="0.5377"/>
</linearGradient>
<clipPath id="clip0">
<path d="M0 0H80V80H0V0Z" fill="white"/>
</clipPath>
</defs>
</svg>
