<svg width="64" height="64" viewBox="0 0 64 64" fill="none" xmlns="http://www.w3.org/2000/svg">
<path d="M53.2 0L34.9334 6.53333L20.4667 0L15.7334 12H12.6667V47.3333L57.0667 47.7333L64 12.5333L53.2 0Z" fill="url(#paint0_linear)"/>
<path d="M52.6668 22.9999L23.4668 5.59991L52.6668 39.9332V22.9999Z" fill="url(#paint1_linear)"/>
<path d="M26.6667 62.3332L50.5333 59.1332L46.8667 51.9999L44.6667 47.3333L46.8667 43.5L50.5333 36L23.4 5.59991L0 11.3332V44.9332L13.4667 63.9999L26.5333 62.3332H26.6H26.6667Z" fill="url(#paint2_linear)"/>
<path d="M51 13H13V51H51V13Z" fill="url(#paint3_linear)"/>
<path d="M32.1444 44H18V46.3222H32.1444V44Z" fill="white"/>
<path d="M32.1133 17.75H35.5309L39.265 23.7624L42.999 17.75H46.4166V31.99H43.2522V22.6865L39.265 28.7623H39.2017L35.2145 22.7498V31.99H32.1133V17.75Z" fill="white"/>
<path d="M18.0633 17.75H24.582C26.4174 17.75 27.7465 18.2563 28.7591 19.2056C29.5819 20.0284 29.9616 21.1043 29.9616 22.4334V22.4967C29.9616 23.6359 29.7084 24.5852 29.1388 25.3447C28.5692 26.0408 27.8098 26.6104 26.9237 26.9269L30.4046 31.99H26.7339L23.7593 27.6231H21.1644V31.99H18V17.75H18.0633ZM24.3922 24.6485C25.1516 24.6485 25.7845 24.4586 26.1643 24.0789C26.6073 23.6992 26.7972 23.1928 26.7972 22.6232V22.56C26.7972 21.8638 26.6073 21.3575 26.1643 21.041C25.7212 20.7246 25.1516 20.5347 24.3289 20.5347H21.2277V24.6485H24.3922Z" fill="white"/>
<defs>
<linearGradient id="paint0_linear" x1="41.0304" y1="37.0169" x2="32.9434" y2="15.7883" gradientUnits="userSpaceOnUse">
<stop offset="0" stop-color="#FE2857"/>
<stop offset="0.0562257" stop-color="#FE3052"/>
<stop offset="0.3252" stop-color="#FD533B"/>
<stop offset="0.5796" stop-color="#FC6C2A"/>
<stop offset="0.8114" stop-color="#FC7B20"/>
<stop offset="1" stop-color="#FC801D"/>
</linearGradient>
<linearGradient id="paint1_linear" x1="25.6188" y1="6.62991" x2="38.1138" y2="18.0836" gradientUnits="userSpaceOnUse">
<stop offset="0" stop-color="#6B57FF"/>
<stop offset="1" stop-color="#FE2857"/>
</linearGradient>
<linearGradient id="paint2_linear" x1="0.279466" y1="10.2508" x2="41.4169" y2="62.5442" gradientUnits="userSpaceOnUse">
<stop offset="0.00149909" stop-color="#6B57FF"/>
<stop offset="0.2967" stop-color="#FE2857"/>
<stop offset="0.629" stop-color="#FE2857"/>
<stop offset="0.6414" stop-color="#FE3052"/>
<stop offset="0.7007" stop-color="#FD533B"/>
<stop offset="0.7568" stop-color="#FC6C2A"/>
<stop offset="0.8079" stop-color="#FC7B20"/>
<stop offset="0.8495" stop-color="#FC801D"/>
</linearGradient>
<linearGradient id="paint3_linear" x1="31.9493" y1="3.7641" x2="31.9493" y2="37.8425" gradientUnits="userSpaceOnUse">
<stop offset="0.0842986" stop-color="#878585"/>
<stop offset="0.5377"/>
</linearGradient>
</defs>
</svg>
