<svg xmlns="http://www.w3.org/2000/svg" width="16" height="16" viewBox="0 0 16 16"><rect id="frame" width="16" height="16" fill="none"/><g fill="none" fill-rule="nonzero"><path fill="#1C8AAB" d="M15 12.667A2.34 2.34 0 0 1 12.667 15H3.333A2.34 2.34 0 0 1 1 12.667V3.333A2.34 2.34 0 0 1 3.333 1h9.334A2.34 2.34 0 0 1 15 3.333v9.334z"/><path fill="#259DC0" d="M5 15V1h1v14H5zm-1 0h-.667c-.113 0-.224-.008-.333-.024V1.024c.109-.016.22-.024.333-.024H4v14zm10-.421a2.32 2.32 0 0 1-1 .397V1.024a2.32 2.32 0 0 1 1 .397V14.58zm1-1.912V3.333v9.334zM12 15h-1V1h1v14zm-2 0H9V1h1v14zm-2 0H7V1h1v14zm-6-.421a2.335 2.335 0 0 1-1-1.912V3.333c0-.788.397-1.489 1-1.912V14.58z"/><path fill="#A4DDEE" d="M6.5 9v3H5V4h6v1.5H6.5v2H11V9H6.5z"/></g></svg>