<svg xmlns="http://www.w3.org/2000/svg" width="16" height="16" viewBox="0 0 16 16">
  <g fill="none" fill-rule="evenodd" transform="translate(1 1)">
    <path fill="#BBB" d="M11.6666667,0 L2.33333333,0 C1.05,0 0,1.05 0,2.33333333 L0,11.6666667 C0,12.95 1.05,14 2.33333333,14 L11.6666667,14 C12.95,14 14,12.95 14,11.6666667 L14,2.33333333 C14,1.05 12.95,0 11.6666667,0 Z"/>
    <path fill="#563D7C" d="M11.42,0.5 C11.9725,0.5 12.4946667,0.716666667 12.889,1.111 C13.2833333,1.50533333 13.5,2.0275 13.5,2.58 L13.5,11.42 C13.5,11.9725 13.2833333,12.4946667 12.889,12.889 C12.4946667,13.2833333 11.9725,13.5 11.42,13.5 L2.58,13.5 C2.0275,13.5 1.50533333,13.2833333 1.111,12.889 C0.716666667,12.4946667 0.5,11.9725 0.5,11.42 L0.5,2.58 C0.5,2.0275 0.716666667,1.50533333 1.111,1.111 C1.50533333,0.716666667 2.0275,0.5 2.58,0.5 L11.42,0.5 Z"/>
    <path fill="#FFF" fill-rule="nonzero" d="M3.80424837,3.04248366 L7.77320261,3.04248366 C8.50522876,3.04248366 9.09313725,3.20947712 9.53464052,3.54575163 C9.97614379,3.88202614 10.1980392,4.3875817 10.1980392,5.06699346 C10.1980392,5.47875817 10.0973856,5.83104575 9.89607843,6.12385621 C9.69477124,6.41666667 9.40653595,6.64542484 9.03137255,6.80555556 L9.03137255,6.82843137 C9.53464052,6.93594771 9.91666667,7.17385621 10.1751634,7.54215686 C10.4336601,7.9127451 10.5640523,8.3748366 10.5640523,8.93300654 C10.5640523,9.25326797 10.5068627,9.55294118 10.3924837,9.82973856 C10.2781046,10.1088235 10.0996732,10.3490196 9.85490196,10.5503268 C9.61013072,10.751634 9.29901961,10.9117647 8.91699346,11.030719 C8.53496732,11.1496732 8.08202614,11.2091503 7.55588235,11.2091503 L3.80424837,11.2091503 L3.80424837,3.04248366 Z M5.23398693,6.4624183 L7.56732026,6.4624183 C7.91045752,6.4624183 8.19640523,6.36633987 8.4251634,6.16960784 C8.65392157,5.97287582 8.76830065,5.69379085 8.76830065,5.32777778 C8.76830065,4.91601307 8.66535948,4.6254902 8.45947712,4.45849673 C8.25359477,4.29150327 7.95620915,4.20686275 7.56732026,4.20686275 L5.23398693,4.20686275 L5.23398693,6.4624183 Z M5.23398693,10.0424837 L7.76176471,10.0424837 C8.19640523,10.0424837 8.53496732,9.93039216 8.77287582,9.70392157 C9.0130719,9.47973856 9.13431373,9.15947712 9.13431373,8.74771242 C9.13431373,8.34281046 9.01535948,8.03398693 8.77287582,7.81437908 C8.53039216,7.59477124 8.19640523,7.48954248 7.76176471,7.48954248 L5.23398693,7.48954248 L5.23398693,10.0424837 Z"/>
  </g>
</svg>
