<svg xmlns="http://www.w3.org/2000/svg" width="16" height="16" viewBox="0 0 16 16"><rect id="frame" width="16" height="16" fill="none"/><g fill="none" fill-rule="evenodd"><path fill="#BBB" d="M12.667 1H3.333A2.34 2.34 0 0 0 1 3.333v9.334A2.34 2.34 0 0 0 3.333 15h9.334A2.34 2.34 0 0 0 15 12.667V3.333A2.34 2.34 0 0 0 12.667 1z"/><path fill="#563D7C" d="M12.42 1.5c.553 0 1.075.217 1.469.611.394.394.611.916.611 1.469v8.84c0 .553-.217 1.075-.611 1.469a2.066 2.066 0 0 1-1.469.611H3.58a2.066 2.066 0 0 1-1.469-.611A2.066 2.066 0 0 1 1.5 12.42V3.58c0-.553.217-1.075.611-1.469A2.066 2.066 0 0 1 3.58 1.5h8.84z"/><path fill="#FFF" fill-rule="nonzero" d="M4.804 4.042h3.97c.731 0 1.32.167 1.76.504.442.336.664.842.664 1.521 0 .412-.1.764-.302 1.057-.201.293-.49.521-.865.682v.022c.504.108.886.346 1.144.714.259.37.39.833.39 1.391 0 .32-.058.62-.173.897-.114.279-.292.519-.537.72a2.74 2.74 0 0 1-.938.48c-.382.12-.835.18-1.361.18H4.804V4.041zm1.43 3.42h2.333c.343 0 .63-.096.858-.292.229-.197.343-.476.343-.842 0-.412-.103-.703-.309-.87-.205-.166-.503-.251-.892-.251H6.234v2.255zm0 3.58h2.528c.434 0 .773-.112 1.01-.338.241-.224.362-.545.362-.956 0-.405-.119-.714-.361-.934-.243-.22-.577-.324-1.011-.324H6.234v2.552z"/></g></svg>