<svg width="16" height="16" viewBox="0 0 16 16" fill="none" xmlns="http://www.w3.org/2000/svg">
<path d="M15 1H1V15H15V1Z" fill="url(#paint0_linear)"/>
<path d="M8 1H1V15H8V1Z" fill="url(#paint1_linear)"/>
<path d="M8 1H1V15H8V1Z" fill="url(#paint2_linear)"/>
<path d="M15 9.1H12V7L8 10.5L12 14V11.9H15V9.1Z" fill="url(#paint3_linear)"/>
<path d="M15 9.1H12V7L8 10.5L12 14V11.9H15V9.1Z" fill="url(#paint4_linear)"/>
<path d="M1 6.9H4V9L8 5.53683L4 2V4.1H1V6.9Z" fill="url(#paint5_linear)"/>
<defs>
<linearGradient id="paint0_linear" x1="7.98133" y1="-2.4027" x2="7.98133" y2="10.1525" gradientUnits="userSpaceOnUse">
<stop offset="0.0842986" stop-color="#878585"/>
<stop offset="0.5377"/>
</linearGradient>
<linearGradient id="paint1_linear" x1="4.5" y1="1" x2="4.5" y2="15" gradientUnits="userSpaceOnUse">
<stop offset="0" stop-color="#FDFEFF"/>
<stop offset="0.458333" stop-color="#E2E3E4"/>
<stop offset="0.765625" stop-color="#E2E3E4"/>
</linearGradient>
<linearGradient id="paint2_linear" x1="4.5" y1="1" x2="4.5" y2="15" gradientUnits="userSpaceOnUse">
<stop offset="0" stop-color="#F5F1F1"/>
<stop offset="1" stop-color="white" stop-opacity="0"/>
</linearGradient>
<linearGradient id="paint3_linear" x1="11.5" y1="7" x2="11.5" y2="14" gradientUnits="userSpaceOnUse">
<stop offset="0" stop-color="#FDFEFF"/>
<stop offset="0.458333" stop-color="#E2E3E4"/>
<stop offset="0.765625" stop-color="#E2E3E4"/>
</linearGradient>
<linearGradient id="paint4_linear" x1="11.5" y1="7" x2="11.5" y2="14" gradientUnits="userSpaceOnUse">
<stop offset="0" stop-color="#F5F1F1"/>
<stop offset="1" stop-color="white" stop-opacity="0"/>
</linearGradient>
<linearGradient id="paint5_linear" x1="4.49067" y1="0.29865" x2="4.49067" y2="6.57625" gradientUnits="userSpaceOnUse">
<stop offset="0.0842986" stop-color="#878585"/>
<stop offset="0.5377"/>
</linearGradient>
</defs>
<path fill-rule="evenodd" clip-rule="evenodd" d="M3 16H16V10H3V16Z" fill="#D99E2B"/>
<path fill-rule="evenodd" clip-rule="evenodd" d="M4 11H7V11.64H4.8V12.6H6.5V13.24H4.8V14.36H6.998V15H4V11Z" fill="black"/>
<path fill-rule="evenodd" clip-rule="evenodd" d="M14.2 12.3672C14.2 12.7632 14.0134 13.0672 13.5554 13.0672H12.8V11.6328H13.4364C13.9834 11.6328 14.16 11.8672 14.2 12.2328V12.3672ZM11.9974 11V15H12.8V13.7H13.3954C14.3114 13.7144 15.0004 13.116 15.0004 12.4336V12.268C15.0004 11.528 14.3694 11 13.5474 11H11.9974Z" fill="black"/>
<path fill-rule="evenodd" clip-rule="evenodd" d="M9.85453 11H9.14647L7.36169 15H8.12852L8.54223 14.0519H10.4212L10.835 15H11.6384L9.85453 11ZM8.86404 13.3705L9.50209 11.9083L10.1747 13.3705H8.86404Z" fill="black"/>
</svg>