<svg width="32" height="32" viewBox="0 0 32 32" fill="none" xmlns="http://www.w3.org/2000/svg">
<path d="M30 2H2V30H30V2Z" fill="url(#paint0_linear)"/>
<path d="M26 6H6V26H26V6Z" fill="url(#paint1_linear)"/>
<path d="M16 23H8V24H16V23Z" fill="white"/>
<path d="M8 8.11597H11.136C12.928 8.11597 14.048 9.27539 14.048 10.7826C14.048 12.6377 12.704 13.5652 11.024 13.5652H9.79199V15.8841H8V8.11597ZM11.024 12.1739C11.808 12.1739 12.368 11.5942 12.368 10.8986C12.368 10.087 11.808 9.73916 11.024 9.73916H9.79199V12.1739H11.024Z" fill="white"/>
<path d="M20.8953 8.12V9.64625H16.7093V11.2419H20.4419V12.7681H16.7093V14.3637H21V15.89H15V8.12H20.8953Z" fill="white"/>
<defs>
<linearGradient id="paint0_linear" x1="29.6477" y1="29.6478" x2="-5.27261" y2="-5.27196" gradientUnits="userSpaceOnUse">
<stop offset="0.482" stop-color="#21D789"/>
<stop offset="0.7258" stop-color="#FCF84A"/>
</linearGradient>
<linearGradient id="paint1_linear" x1="15.9733" y1="1.139" x2="15.9733" y2="19.075" gradientUnits="userSpaceOnUse">
<stop offset="0.0842986" stop-color="#878585"/>
<stop offset="0.5377"/>
</linearGradient>
</defs>
</svg>
