<svg ti:v="1" width="16" height="16" viewBox="0 0 16 16" xmlns="http://www.w3.org/2000/svg" xmlns:ti="urn:schemas-jetbrains-com:tisvg"><rect id="frame" width="16" height="16" fill="none"/><linearGradient id="a" x1=".725" y1=".367" x2=".35" y2=".742"><stop offset="0" stop-color="#9C7733"/><stop offset="1" stop-color="#6D2121"/></linearGradient><path fill-rule="evenodd" d="M6.5 9.914l5 5c.378.378.88.586 1.415.586.533 0 1.035-.208 1.413-.586l.586-.586c.378-.378.586-.88.586-1.414 0-.534-.208-1.036-.586-1.414l-5-5L6.5 9.914z" fill="url(#a)"/><linearGradient id="b" x1=".683" y1=".38" x2=".38" y2=".683"><stop offset="0" stop-color="#FFDF78"/><stop offset="1" stop-color="#D88C00"/></linearGradient><path fill-rule="evenodd" d="M7.914 9.914l4.293 4.293a1 1 0 0 0 1.414 0l.586-.586a.999.999 0 0 0 0-1.414L9.914 7.914l-2 2z" fill="url(#b)"/><linearGradient id="c" x1=".5" y1=".013" x2=".5" y2="1"><stop offset="0" stop-color="#3C7380"/><stop offset="1" stop-color="#2C4D6D"/></linearGradient><path fill-rule="evenodd" d="M.5 6a5.5 5.5 0 0 0 11 0 5.5 5.5 0 0 0-11 0z" fill="url(#c)"/><linearGradient id="d" x1=".5" y1=".006" x2=".5" y2="1"><stop offset="0" stop-color="#9ED2FF"/><stop offset="1" stop-color="#5BA3CE"/></linearGradient><path fill-rule="evenodd" d="M1.5 6a4.5 4.5 0 0 0 9 0 4.5 4.5 0 0 0-9 0z" fill="url(#d)"/><linearGradient id="e" x1=".5" y1=".013" x2=".5" y2="1"><stop offset="0" stop-color="#509EE8"/><stop offset="1" stop-color="#FFF"/></linearGradient><path fill-rule="evenodd" d="M2.5 6a3.5 3.5 0 0 0 7 0 3.5 3.5 0 0 0-7 0z" fill="url(#e)"/><linearGradient id="f" x1=".5" y1=".013" x2=".5" y2=".988"><stop offset="0" stop-color="#FFF"/><stop offset=".221" stop-color="#FFF"/><stop offset="1" stop-color="#8EBAC1"/></linearGradient><path fill-rule="evenodd" d="M3.5 6a2.5 2.5 0 1 0 5 0 2.5 2.5 0 1 0-5 0z" fill="url(#f)"/></svg>