<svg xmlns="http://www.w3.org/2000/svg" width="16" height="16" viewBox="0 0 16 16">
  <g fill="none" fill-rule="evenodd">
    <path fill="#9AA7B0" fill-opacity=".8" d="M1,13 L6.99192393,13 L6.99192393,6.99658462 L15,6.99658462 L15,4 L7.98457,4 L6.69633,2.71149 C6.22161957,2.28559443 5.61570121,2.03457993 4.97888,2 L1.05128,2 C1.02295884,2 1,2.02295884 1,2.05128 L1,13 Z"/>
    <polygon fill="#40B6E0" fill-opacity=".7" points="16 10 15 10 15 15 10 15 10 16 16 16"/>
    <polygon fill="#F26522" fill-opacity=".7" points="8 14 14 14 14 8 8 8"/>
    <path fill="#231F20" fill-opacity=".7" d="M0.8,2 L0.8,0.666666667 L2.0296,0.666666667 C2.6424,0.666666667 3.2,0.875066667 3.2,1.3024 C3.2,1.72973333 2.628,2 2.0376,2 L0.8,2 Z M2.688,2.55173333 C3.34,2.39306667 4,2.0729777 4,1.27506667 C4,0.477155632 3.15908203,-0.000266666667 2.0976,-0.000266666667 L0,-0.000266666667 L0,3.99973333 L0.8,3.99973333 L0.8,2.66666667 L1.2,2.66666667 L1.8624,2.66666667 L3.0184,3.99973333 L4,3.99973333 L2.688,2.55173333 Z" transform="translate(9 9)"/>
  </g>
</svg>
