<svg xmlns="http://www.w3.org/2000/svg" width="16" height="16" viewBox="0 0 16 16"><rect id="frame" width="16" height="16" fill="none"/><g fill="none" fill-rule="evenodd"><path fill="#9AA7B0" fill-opacity=".8" d="M1 13h5.992V6.997H15V4H7.985L6.696 2.711A2.8 2.8 0 0 0 4.98 2H1.05A.051.051 0 0 0 1 2.051V13z"/><path fill="#40B6E0" fill-opacity=".7" d="M16 10h-1v5h-5v1h6z"/><path fill="#F26522" fill-opacity=".7" d="M8 14h6V8H8z"/><path fill="#231F20" fill-opacity=".7" d="M9.8 11V9.667h1.23c.612 0 1.17.208 1.17.635 0 .428-.572.698-1.162.698H9.8zm1.888.552c.652-.159 1.312-.479 1.312-1.277C13 9.477 12.16 9 11.098 9H9v4h.8v-1.333h1.062L12.018 13H13l-1.312-1.448z"/></g></svg>