<svg xmlns="http://www.w3.org/2000/svg" width="16" height="16" viewBox="0 0 16 16">
  <g fill="none" fill-rule="evenodd">
    <path fill="#40B6E0" fill-opacity=".6" d="M15,8 C15,11.866 11.866,15 8,15 C4.134,15 1,11.866 1,8 C1,4.134 4.134,1 8,1 C11.866,1 15,4.134 15,8"/>
    <path fill="#231F20" fill-opacity=".7" d="M11,6.51428571 L11,6 L5,6 L5,10 L11,10 L11,6.51428571 L11,6 L8,7.92857143 L5,6 L5,7.02857143 L8,8.95714286 L11,7.02857143 L11,6.51428571 Z M4,5 L12,5 L12,11 L4,11 L4,5 Z"/>
  </g>
</svg>
