<svg xmlns="http://www.w3.org/2000/svg" width="16" height="16" viewBox="0 0 16 16"><rect id="frame" width="16" height="16" fill="none"/><g fill="none" fill-rule="evenodd"><path fill="#F26522" fill-opacity=".7" d="M9 16h7V9H9z"/><path fill="#9AA7B0" fill-opacity=".8" fill-rule="nonzero" d="M1 13h6.985V8H15V4H7.985L6.696 2.711A2.8 2.8 0 0 0 4.98 2H1.05A.051.051 0 0 0 1 2.051V13z"/><path fill="#231F20" fill-opacity=".7" d="M11 12.5v-1.667h1.537c.766 0 1.463.26 1.463.795 0 .534-.715.872-1.453.872H11zm2.36.69c.815-.199 1.64-.599 1.64-1.596C15 10.596 13.949 10 12.622 10H10v5h1v-1.667H12.328L13.773 15H15l-1.64-1.81z"/></g></svg>