<svg xmlns="http://www.w3.org/2000/svg" width="16" height="16" viewBox="0 0 16 16">
  <g fill="none" fill-rule="evenodd">
    <polygon fill="#F26522" fill-opacity=".7" points="9 16 16 16 16 9 9 9"/>
    <path fill="#9AA7B0" fill-opacity=".8" fill-rule="nonzero" d="M1,13 L7.98457,13 L7.98457,8 L15,8 L15,4 L7.98457,4 L6.69633,2.71149 C6.22161957,2.28559443 5.61570121,2.03457993 4.97888,2 L1.05128,2 C1.02295884,2 1,2.02295884 1,2.05128 L1,13 Z"/>
    <path fill="#231F20" fill-opacity=".7" d="M1,2.5 L1,0.833333333 L2.537,0.833333333 C3.303,0.833333333 4,1.09383333 4,1.628 C4,2.16216667 3.285,2.5 2.547,2.5 L1,2.5 Z M3.36,3.18966667 C4.175,2.99133333 5,2.59122213 5,1.59383333 C5,0.596444539 3.94885254,-0.000333333333 2.622,-0.000333333333 L0,-0.000333333333 L0,4.99966667 L1,4.99966667 L1,3.33333333 L1.5,3.33333333 L2.328,3.33333333 L3.773,4.99966667 L5,4.99966667 L3.36,3.18966667 Z" transform="translate(10 10)"/>
  </g>
</svg>
