<svg xmlns="http://www.w3.org/2000/svg" width="16" height="16" viewBox="0 0 16 16"><rect id="frame" width="16" height="16" fill="none"/><g fill="#F26522" fill-opacity=".7" fill-rule="evenodd"><path d="M3.523 8.075l-1.498-.891L1 9.452l1.51.832a17.94 17.94 0 0 1 1.013-2.21m6.854-5.682L9.755 1 8 1.333l.703 1.384a5.094 5.094 0 0 1 1.674-.325m3.264.859l.004.005-.195-1.84L12 1l.219 1.431c.449.161.901.405 1.422.82m-7.02.876l-1.15-1.253-1.63 1.424L5.184 5.63c.505-.61.998-1.11 1.439-1.503M13.67 6.92c-.097-.016-.193-.018-.29-.023l.165 1.077h1.094l-.087-.817c-.07-.02-.684-.206-.882-.237m-1.792.392c-.193.148-.36.311-.522.476l.607 1.196.984-1.01-.442-.99a2.037 2.037 0 0 0-.627.328m-2.2 6.92l1.677.65-.205-2.275-1.352-.804a27.653 27.653 0 0 0-.12 2.429m.334-3.798l.994.988.523-1.945-.812-.886c-.324.526-.547 1.14-.705 1.843"/><path d="M15.025 5.25a9.734 9.734 0 0 0-1.17-1.125c-.81-.656-1.414-.876-2.315-.99-.94-.116-2.222.152-3.113.643-1.386.764-4.079 3.007-5.61 7.573-.412 1.23-.53 2.57-.792 3.758 0 0 7.068-.005 7.068-.007 0-4.32.39-6.679 2.484-8.317.684-.537 1.43-.63 2.194-.508.227.037.975.265.975.265l.279-1.292z"/></g></svg>