<svg xmlns="http://www.w3.org/2000/svg" width="16" height="16" viewBox="0 0 16 16"><rect id="frame" width="16" height="16" fill="none"/><g fill="#9AA7B0" fill-rule="evenodd"><path d="M5.537 13c-2.013-.374-2.574-1.121-2.574-2.313 0-.175.033-.608.033-.806 0-.911-.352-1.203-1.21-1.203H1.3V7.322h.486c.858 0 1.21-.292 1.21-1.203 0-.198-.033-.63-.033-.806 0-1.192.561-1.94 2.574-2.313l.297 1.18c-1.166.35-1.342.677-1.342 1.39 0 .234.033.62.033.865 0 .852-.407 1.308-1.144 1.565.737.257 1.144.713 1.144 1.565 0 .246-.033.631-.033.865 0 .713.176 1.04 1.342 1.39L5.537 13z"/><path d="M10.467 13c2.013-.374 2.574-1.121 2.574-2.313 0-.175-.033-.608-.033-.806 0-.911.352-1.203 1.21-1.203h.486V7.322h-.486c-.858 0-1.21-.292-1.21-1.203 0-.198.033-.63.033-.806 0-1.192-.561-1.94-2.574-2.313l-.297 1.18c1.166.35 1.342.677 1.342 1.39 0 .234-.033.62-.033.865 0 .852.407 1.308 1.144 1.565-.737.257-1.144.713-1.144 1.565 0 .246.033.631.033.865 0 .713-.176 1.04-1.342 1.39l.297 1.18z"/></g></svg>