<svg ti:v="1" width="16" height="16" viewBox="0 0 16 16" xmlns="http://www.w3.org/2000/svg" xmlns:ti="urn:schemas-jetbrains-com:tisvg"><rect id="frame" width="16" height="16" fill="none"/><path d="M13 4h2v8h-2z" fill="#252525"/><path d="M15 5h-1.5V4H15zm0 1h-1.5v1H15zm0 2h-1.5v1H15zm0 2h-1.5v1H15zm0 0" fill="#C4C4C4"/><path d="M4 13h8v2H4z" fill="#252525"/><path d="M12 13.5h-1V15h1zm-2 0H9V15h1zm-2 0H7V15h1zm-2 0H5V15h1zm0 0" fill="#C4C4C4"/><path d="M1 4h2v8H1z" fill="#252525"/><path d="M2.5 9H1v1h1.5zm0 2H1v1h1.5zm0-4H1v1h1.5zm0-2H1v1h1.5zm0 0" fill="#C4C4C4"/><path d="M4 1h8v2H4z" fill="#252525"/><path d="M7 1H6v1.5h1zM5 1H4v1.5h1zm4 0H8v1.5h1zm2 0h-1v1.5h1zm0 0" fill="#C4C4C4"/><path d="M3 3h10v10H3z" fill="#C4C4C4"/><path d="M4 4h8v8H4z" fill="#292929"/><path d="M5 11V5h3.586L11 7.414V11H5z" fill="#C4C4C4"/></svg>