<svg ti:v="1" width="13" height="13" viewBox="0 0 13 13" xmlns="http://www.w3.org/2000/svg" xmlns:ti="urn:schemas-jetbrains-com:tisvg"><rect id="frame" width="13" height="13" fill="none"/><path d="M10 3h2v6h-2z" fill="#252525"/><path d="M12 4h-1.5V3H12zm0 1h-1.5v1H12zm0 2h-1.5v1H12zm0 0" fill="#C4C4C4"/><path d="M3 10h6v2H3z" fill="#252525"/><path d="M9 10.5H8V12h1zm-2 0H6V12h1zm-2 0H4V12h1zm0 0" fill="#C4C4C4"/><path d="M0 3h2v6H0z" fill="#252525"/><path d="M1.5 6H0v1h1.5zm0 2H0v1h1.5zm0-4H0v1h1.5zm0 0" fill="#C4C4C4"/><path d="M3 0h6v2H3z" fill="#252525"/><path d="M6 0H5v1.5h1zM4 0H3v1.5h1zm4 0H7v1.5h1zm0 0" fill="#C4C4C4"/><path d="M2 2h8v8H2z" fill="#C4C4C4"/><path d="M3 3h6v6H3z" fill="#292929"/><path d="M4 8V4h1.586L8 6.414V8H4z" fill="#C4C4C4"/></svg>