<svg ti:v="1" width="13" height="13" viewBox="0 0 13 13" xmlns="http://www.w3.org/2000/svg" xmlns:ti="urn:schemas-jetbrains-com:tisvg"><rect id="frame" width="13" height="13" fill="none"/><path d="M11 3h2v6h-2z" fill="#FFF2C1"/><path d="M13 4h-1.5V3H13zm0 1h-1.5v1H13zm0 2h-1.5v1H13zm0 0" fill="#546875"/><path d="M4 10h6v2H4z" fill="#FFF2C1"/><path d="M10 10.5H9V12h1zm-2 0H7V12h1zm-2 0H5V12h1zm0 0" fill="#546875"/><path d="M1 3h2v6H1z" fill="#FFF2C1"/><path d="M2.5 6H1v1h1.5zm0 2H1v1h1.5zm0-4H1v1h1.5zm0 0" fill="#546875"/><path d="M4 0h6v2H4z" fill="#FFF2C1"/><path d="M7 0H6v1.5h1zM5 0H4v1.5h1zm4 0H8v1.5h1zm0 0" fill="#546875"/><path d="M3 2h8v8H3z" fill="#293B47"/><path d="M4 3h6v6H4z" fill="#FFF2C1"/><path d="M5 8V4h1.586L9 6.414V8H5z" fill="#546875"/></svg>