<svg width="128" height="128" viewBox="0 0 128 128" fill="none" xmlns="http://www.w3.org/2000/svg"><rect id="frame" width="128" height="128" fill="none"/><path d="M70.667 22.533L66.4 9.6 21.867 0 0 24.667l24 12.266 39.867 18 6.8-32.4z" fill="url(#paint0_linear)"/><path d="M49.333 37.467L0 24.667 12.133 98l36.267-.133.933-60.4z" fill="url(#paint1_linear)"/><path d="M34.667 46.933l27.6-24.533 16.8-14.8 32.266 6L128 54.933 104 78.8 34.667 46.933z" fill="url(#paint2_linear)"/><path d="M91.333 31.2L26 30.933l9.2 71.6 1.733 10.4L80.267 128 128 99.333 91.333 31.2z" fill="url(#paint3_linear)"/><path d="M103 25H25v78h78V25z" fill="url(#paint4_linear)"/><path d="M62.7 89.567H33.667v4.767H62.7v-4.767z" fill="#fff"/><path d="M60.23 59.84L64 55.29c2.6 2.21 5.46 3.51 8.71 3.51 2.6 0 4.29-1.04 4.29-2.73v-.13c0-1.69-1.04-2.47-5.85-3.77-5.98-1.43-9.75-3.12-9.75-8.97v-.13c0-5.33 4.29-8.84 10.27-8.84 4.29 0 7.93 1.3 10.92 3.77l-3.38 4.81c-2.6-1.82-5.2-2.86-7.67-2.86-2.47 0-3.77 1.17-3.77 2.6v.13c0 1.95 1.3 2.6 6.37 3.9 5.98 1.56 9.36 3.64 9.36 8.84v.13c0 5.85-4.42 9.1-10.79 9.1-4.42-.13-8.97-1.69-12.48-4.81z" fill="#fff"/><path d="M34.75 34.75h11.96c7.02 0 11.18 4.16 11.18 10.14v.13c0 6.76-5.2 10.27-11.83 10.27h-4.94V64h-6.37V34.75zm11.57 14.69c3.25 0 5.07-1.95 5.07-4.42v-.13c0-2.86-1.95-4.42-5.2-4.42h-4.94v8.97h5.07z" fill="#fff"/><defs><linearGradient id="paint0_linear" x1="32.215" y1="39.375" x2="43.081" y2="17.655" gradientUnits="userSpaceOnUse"><stop offset="0" stop-color="#AF1DF5"/><stop offset=".21" stop-color="#BC20E4"/><stop offset=".63" stop-color="#DD29B8"/><stop offset="1" stop-color="#FF318C"/></linearGradient><linearGradient id="paint1_linear" x1="4.13" y1="87.823" x2="57.597" y2="17.191" gradientUnits="userSpaceOnUse"><stop offset=".02" stop-color="#6B57FF"/><stop offset=".42" stop-color="#B74AF7"/><stop offset=".75" stop-color="#FF318C"/></linearGradient><linearGradient id="paint2_linear" x1="96.988" y1="87.164" x2="65.202" y2="11.75" gradientUnits="userSpaceOnUse"><stop offset="0" stop-color="#293896"/><stop offset=".08" stop-color="#3B3AA2"/><stop offset=".29" stop-color="#6740C0"/><stop offset=".49" stop-color="#8A44D8"/><stop offset=".68" stop-color="#A347E9"/><stop offset=".86" stop-color="#B249F3"/><stop offset="1" stop-color="#B74AF7"/></linearGradient><linearGradient id="paint3_linear" x1="91.509" y1="112.061" x2="43.216" y2="41.303" gradientUnits="userSpaceOnUse"><stop offset=".02" stop-color="#6B57FF"/><stop offset=".78" stop-color="#B74AF7"/></linearGradient><linearGradient id="paint4_linear" x1="63.896" y1="6.042" x2="63.896" y2="75.993" gradientUnits="userSpaceOnUse"><stop offset=".084" stop-color="#878585"/><stop offset=".538"/></linearGradient></defs></svg>