<svg width="32" height="32" viewBox="0 0 32 32" fill="none" xmlns="http://www.w3.org/2000/svg"><rect id="frame" width="32" height="32" fill="none"/><path d="M17.667 5.633L16.6 2.4 5.467 0 0 6.167l6 3.066 9.967 4.5 1.7-8.1z" fill="url(#paint0_linear)"/><path d="M12.333 9.367L0 6.167 3.033 24.5l9.067-.033.233-15.1z" fill="url(#paint1_linear)"/><path d="M8.667 11.733l6.9-6.133 4.2-3.7 8.066 1.5L32 13.733 26 19.7 8.667 11.733z" fill="url(#paint2_linear)"/><path d="M22.833 7.8L6.5 7.733l2.3 17.9.433 2.6L20.067 32 32 24.833 22.833 7.8z" fill="url(#paint3_linear)"/><path d="M26 6H6v20h20V6z" fill="url(#paint4_linear)"/><path d="M16 23H8v1h8v-1z" fill="#fff"/><path d="M15 14.878l1.134-1.222c.782.594 1.642.943 2.62.943.782 0 1.29-.28 1.29-.733v-.035c0-.454-.312-.664-1.76-1.013-1.798-.384-2.932-.838-2.932-2.409v-.035c0-1.431 1.29-2.374 3.09-2.374 1.29 0 2.385.35 3.284 1.013l-1.017 1.291c-.782-.488-1.564-.768-2.307-.768-.743 0-1.134.314-1.134.699v.034c0 .524.391.699 1.916 1.048 1.8.419 2.816.977 2.816 2.374v.035c0 1.571-1.33 2.444-3.246 2.444-1.33-.035-2.698-.454-3.754-1.292z" fill="#fff"/><path d="M8 8.14h3.476c2.04 0 3.25 1.116 3.25 2.721v.035c0 1.814-1.512 2.756-3.439 2.756H9.851v2.338H8V8.14zm3.363 3.942c.945 0 1.473-.523 1.473-1.186v-.035c0-.767-.566-1.186-1.51-1.186H9.888v2.407h1.474z" fill="#fff"/><defs><linearGradient id="paint0_linear" x1="8.054" y1="9.844" x2="10.77" y2="4.414" gradientUnits="userSpaceOnUse"><stop offset="0" stop-color="#AF1DF5"/><stop offset=".21" stop-color="#BC20E4"/><stop offset=".63" stop-color="#DD29B8"/><stop offset="1" stop-color="#FF318C"/></linearGradient><linearGradient id="paint1_linear" x1="1.032" y1="21.956" x2="14.399" y2="4.298" gradientUnits="userSpaceOnUse"><stop offset=".02" stop-color="#6B57FF"/><stop offset=".42" stop-color="#B74AF7"/><stop offset=".75" stop-color="#FF318C"/></linearGradient><linearGradient id="paint2_linear" x1="24.247" y1="21.791" x2="16.3" y2="2.938" gradientUnits="userSpaceOnUse"><stop offset="0" stop-color="#293896"/><stop offset=".08" stop-color="#3B3AA2"/><stop offset=".29" stop-color="#6740C0"/><stop offset=".49" stop-color="#8A44D8"/><stop offset=".68" stop-color="#A347E9"/><stop offset=".86" stop-color="#B249F3"/><stop offset="1" stop-color="#B74AF7"/></linearGradient><linearGradient id="paint3_linear" x1="22.877" y1="28.015" x2="10.804" y2="10.326" gradientUnits="userSpaceOnUse"><stop offset=".02" stop-color="#6B57FF"/><stop offset=".78" stop-color="#B74AF7"/></linearGradient><linearGradient id="paint4_linear" x1="15.973" y1="1.139" x2="15.973" y2="19.075" gradientUnits="userSpaceOnUse"><stop offset=".084" stop-color="#878585"/><stop offset=".538"/></linearGradient></defs></svg>