<svg ti:v="1" width="16" height="16" viewBox="0 0 16 16" xmlns="http://www.w3.org/2000/svg" xmlns:ti="urn:schemas-jetbrains-com:tisvg"><rect id="frame" width="16" height="16" fill="none"/><g fill-rule="evenodd"><path d="M5 9.25v-5.5L10 1l5 2.75v5.5L10 12 5 9.25z" fill="#F4F4F4"/><path d="M6 4.8V8.66l4 2.2v-3.86L6 4.802z" fill="#313131"/><path d="M14 4.8L10 7v3.859l4-2.2V4.8z" fill="#313131"/><path d="M13.379 4l-3.38 1.858L6.622 4 6 4.342V4.8L10 7l4-2.199v-.46L13.379 4z" fill="#EBEBEB"/><path d="M10 5.858L13.379 4 10 2.141l-3.379 1.86L10 5.857z" fill="#313131"/><path d="M3.15 16C1.383 16 0 14.243 0 12v-1c0-2.206 1.794-4 4-4h1c2.243 0 4 1.757 4 4 0 .928-.38 1.731-1 2.273V16H3.15z" fill="#F4F4F4"/><path d="M5 12H4v-1h1m-4 0v1c0 1.657.963 3 2.15 3H7v-1H2.7a.7.7 0 0 1-.7-.7V9.7a.7.7 0 0 1 .7-.7h3.6a.7.7 0 0 1 .7.7V11c0 .302-.516 1-1 1v-1.3c0-.386-.314-.7-.701-.7H4.5a1.5 1.5 0 0 0 0 3H6c1.104 0 2-.797 2-2 0-1.719-1.343-3-3-3H4a3 3 0 0 0-3 3z" fill="#8E00B5"/></g></svg>