<svg ti:v="1" width="16" height="16" viewBox="0 0 16 16" xmlns="http://www.w3.org/2000/svg" xmlns:ti="urn:schemas-jetbrains-com:tisvg"><rect id="frame" width="16" height="16" fill="none"/><g fill-rule="evenodd"><path d="M14 9H7V2h7v7z" fill="#242424"/><path d="M13 6v2H7v3h9V6h-3z" fill="#242424"/><path d="M8 3h6V0H5v5h3V3z" fill="#242424"/><path d="M8 8h5V7H8m0-1h5V5H8m5-1H8V3h5v1z" fill="#C4C4C4"/><path d="M13 1v1H7v2H6V1h7z" fill="#C4C4C4"/><path d="M15 10V7h-1v2H8v1h7z" fill="#C4C4C4"/><path d="M3.15 16C1.383 16 0 14.243 0 12v-1c0-2.206 1.794-4 4-4h1c2.243 0 4 1.757 4 4 0 .928-.38 1.731-1 2.273V16H3.15z" fill="#242424"/><path d="M5 12H4v-1h1m-4 0v1c0 1.657.963 3 2.15 3H7v-1H2.7a.7.7 0 0 1-.7-.7V9.7a.7.7 0 0 1 .7-.7h3.6a.7.7 0 0 1 .7.7V11c0 .302-.516 1-1 1v-1.3c0-.386-.314-.7-.701-.7H4.5a1.5 1.5 0 0 0 0 3H6c1.104 0 2-.797 2-2 0-1.719-1.343-3-3-3H4a3 3 0 0 0-3 3z" fill="#C673D3"/></g></svg>