<svg xmlns="http://www.w3.org/2000/svg" width="19" height="12" viewBox="0 0 19 12"><rect id="frame" width="19" height="12" fill="none"/><g fill-rule="evenodd"><path fill="#9AA7B0" d="M14.837 10H15a2 2 0 0 0 2-2V7l1-.75v-.5L17 5V4a2 2 0 0 0-2-2h-.5v1.25h.5a.75.75 0 0 1 .75.75v1.625l.5.375-.5.375V8a.742.742 0 0 1-.663.732c-.009.099 0 .184-.016.288a5.123 5.123 0 0 1-.234.98zM9 5V4a2 2 0 0 1 2-2h.162a5.199 5.199 0 0 0-.234.98c-.015.104-.007.189-.015.288A.742.742 0 0 0 10.25 4v1.625L9.75 6l.5.375V8c0 .414.336.75.75.75h.5V10H11a2 2 0 0 1-2-2V7l-1-.75v-.5L9 5z"/><path fill="#62B543" d="M12.564 11.838c.725-.644 1.547-1.374 1.765-2.923.218-1.56-.386-2.431-.918-3.2-.49-.708-.914-1.32-.75-2.491.167-1.185.757-1.708 1.439-2.314l-.665-.748c-.725.644-1.547 1.374-1.765 2.923-.218 1.56.386 2.43.918 3.2.491.708.915 1.32.75 2.49-.166 1.186-.755 1.709-1.438 2.315l.664.748z"/></g></svg>