<svg xmlns="http://www.w3.org/2000/svg" width="19" height="12" viewBox="0 0 19 12"><rect id="frame" width="19" height="12" fill="none"/><g fill-rule="evenodd"><path fill="#9AA7B0" d="M14.832 2c.102.295.188.614.24.98.013.095.013.179.021.27h.657v5.5h-2.327c.095.559.311.918.624 1.25H17V2h-2.168zm-3.664 8H9V2h2.953c.313.332.529.691.624 1.25H10.25v5.5h.657c.008.091.008.175.021.27.051.366.138.685.24.98z"/><path fill="#62B543" d="M13.436 11.838c-.725-.644-1.547-1.374-1.765-2.923-.218-1.56.386-2.431.918-3.2.49-.708.914-1.32.75-2.491-.167-1.185-.757-1.708-1.439-2.314l.665-.748c.725.644 1.547 1.374 1.765 2.923.218 1.56-.386 2.43-.918 3.2-.492.708-.916 1.32-.75 2.49.165 1.186.754 1.709 1.437 2.315l-.664.748z"/></g></svg>