<svg xmlns="http://www.w3.org/2000/svg" width="16" height="16" viewBox="0 0 16 16"><rect id="frame" width="16" height="16" fill="none"/><path fill="#9AA7B0" d="M12.451 14l-.95-.422 1.444-3.25a.193.193 0 0 0-.053-.225.19.19 0 0 0-.229-.012l-3.88 2.586a1.231 1.231 0 0 1-1.686-1.741l4.414-6.178a.193.193 0 0 0-.268-.269L5.064 8.902a1.232 1.232 0 0 1-1.74-1.685L5.91 3.338a.192.192 0 0 0-.238-.283l-3.25 1.444L2 3.549l3.25-1.444a1.239 1.239 0 0 1 1.441.332c.352.417.386 1.024.083 1.477l-2.586 3.88a.19.19 0 0 0 .027.244.19.19 0 0 0 .245.019l6.18-4.413a1.225 1.225 0 0 1 1.585.131c.428.427.484 1.094.132 1.586L7.943 11.54a.191.191 0 0 0 .02.245.192.192 0 0 0 .244.027l3.88-2.586a1.237 1.237 0 0 1 1.476.083c.416.351.553.944.332 1.442L12.451 14z" fill-rule="evenodd"/></svg>