<svg xmlns="http://www.w3.org/2000/svg" xmlns:xlink="http://www.w3.org/1999/xlink" width="16" height="16" viewBox="0 0 16 16"><rect id="frame" width="16" height="16" fill="none"/><defs><path id="a" d="M14.998 8.168a5 5 0 0 0-6.83 6.83 7 7 0 1 1 6.83-6.83z"/></defs><g fill="none" fill-rule="evenodd"><path fill="#9AA7B0" fill-opacity=".8" d="M11.154 14.607a2.5 2.5 0 0 0 3.453-3.453l-3.453 3.453zm-.761-.761l3.453-3.453a2.5 2.5 0 0 0-3.453 3.453zM12.5 16a3.5 3.5 0 1 1 0-7 3.5 3.5 0 0 1 0 7z"/><mask id="b" fill="#fff"><use xlink:href="#a"/></mask><g mask="url(#b)"><path fill="#F98B9E" fill-opacity=".6" d="M15 8A7 7 0 1 1 1 8a7 7 0 0 1 14 0"/><path fill="#231F20" fill-opacity=".7" d="M11.992 8.154c0-.749-.14-1.293-.417-1.634-.277-.34-.688-.51-1.235-.51-.03 0-.333-.03-.68.058-.347.09-.58.244-.802.482-.073.078-.129.182-.188.28-.117-.25-.268-.455-.472-.585-.249-.157-.56-.236-.935-.236-.036 0-.381-.04-.683.06-.302.098-.59.328-.693.44-.028.03-.046.073-.072.106L5.861 6H4.78v5H6V8.945c-.001-.343 0-.79.05-1.025.05-.234.082-.428.18-.61.098-.182.194-.317.35-.38.156-.063.246-.083.42-.098.285.018.479.121.62.332.155.232.159.58.16 1.043V11H9V8.747c0-.314.003-.59.05-.83.046-.242.079-.444.18-.606.101-.162.191-.285.35-.368.123-.064.258-.097.42-.11.286.016.477.12.62.331.157.232.159.58.16 1.043V11h1.217l-.005-2.846z"/></g></g></svg>