<svg xmlns="http://www.w3.org/2000/svg" width="16" height="16" viewBox="0 0 16 16"><rect id="frame" width="16" height="16" fill="none"/><g fill="none" fill-rule="evenodd"><path fill="#9AA7B0" d="M12 6.504L9 4v2H3v3h1V7l5-.003V9z"/><path fill="#9AA7B0" fill-opacity=".8" d="M8 13v1H1V3h3v2H2v8h6zm7-6h-1V3H6v2H5V1h10v6z"/><path fill="#62B543" d="M15.081 13.033v.22c0 .219-.037.566-.09.768H16v.988h-1.496c-.467.57-1.172.89-1.968.89s-1.502-.32-1.969-.89H9v-.988h1.081a3.635 3.635 0 0 1-.09-.767v-.22H9v-.988h.99v-.677c0-.107.02-.207.033-.311H9v-.988h1.346c.243-.41.598-.701 1.026-.921l-.894-.882.675-.667 1.283 1.266c.034 0 .03-.006.064-.006.012 0 .058.005.07.006L13.847 7.6l.675.667-.869.857c.449.22.82.52 1.072.946H16v.988h-.951c.013.104.032.204.032.311v.677H16v.987h-.919zm-3.611-1.975v.988h2.064v-.988H11.47zm0 1.975v.988h2.064v-.988H11.47z"/></g></svg>