<svg width="16" height="16" viewBox="0 0 16 16" fill="none" xmlns="http://www.w3.org/2000/svg"><rect id="frame" width="16" height="16" fill="none"/><path fill-rule="evenodd" clip-rule="evenodd" d="M7.286 12.552l-.416.416-4.95-4.95 2.121-2.121L6.87 8.725l5.657-5.657 2.12 2.122-2.595 2.596a4.25 4.25 0 0 0-4.767 4.767z" fill="#62B543" fill-opacity=".7"/><path fill-rule="evenodd" clip-rule="evenodd" d="M11.5 15.25a3.25 3.25 0 1 0 0-6.5 3.25 3.25 0 0 0 0 6.5zm0-1.125a2.125 2.125 0 0 0 1.853-3.165l-2.893 2.893c.307.173.662.272 1.04.272zM9.647 13.04l2.893-2.893a2.125 2.125 0 0 0-2.894 2.894z" fill="#9AA7B0" fill-opacity=".8"/></svg>