<svg xmlns="http://www.w3.org/2000/svg" width="16" height="16" viewBox="0 0 16 16"><rect id="frame" width="16" height="16" fill="none"/><g fill="none" fill-rule="evenodd"><path fill="#D1A41A" d="M3.453 9.544c.159.195.335.394.53.593-.566.17-.936.486-1.168.765-.365.442-.56 1.025-.515 1.525h-.973c.195-.423.974-1.648 2.126-2.883zm11.278 3.149h-1.183c-2.716-1.417-5.1-2.417-7.633-2.635.005-.352.068-.752.188-1.196l-.233-.063c-.124.457-.189.87-.196 1.24-.264-.017-.53-.026-.798-.026-.227 0-.434.021-.623.058a8.493 8.493 0 0 1-.634-.703C4.788 8.15 6.712 7.05 8.386 6.636 8.858 8.204 9.87 9.278 11.098 10a5.18 5.18 0 0 0 .266-.162l2.143 2.307.094-.008c.585-.05.917.267 1.005.366a.672.672 0 0 1 .125.19z"/><path fill="#FFDC76" d="M13.686 4.976c.043 2.13-1.043 3.824-2.563 4.693C8.54 8.383 8.055 5.125 8.495 3.377c.123.668.345 1.087.826 1.293 1.048-.3 2.49-.324 3.553-.03.442-.323.614-.814.708-1.244.117.5.103 1.58.104 1.58z"/><g fill="#000"><path d="M7.194 6.992l.394 1.167-1.197-.802z"/><path d="M6.041 7.503l.423.729-.889-.452z"/><path d="M5.079 8.072l.204.729-.613-.423z"/><path d="M11.599 10.026l-.379.584.671-.306z"/><path d="M12.197 10.697l-.613.467.846-.219z"/><path d="M10.709 4.367l.452.992.292-1.007z"/><path d="M8.419 5.811l.715.379-.642.044z"/><path d="M8.594 6.584l.438.175-.365.102z"/><path d="M13.699 6.088l-.583.248.481.073z"/><path d="M13.466 6.803l-.452.131.365.131z"/></g><g fill="#000"><path d="M8.184 7.898h1.408v1H8.184z"/><path d="M8.184 7.48h1.408v1H8.184z"/><path d="M12.482 7.898h1.408v1h-1.408z"/><path d="M12.482 7.48h1.408v1h-1.408z"/><path d="M11.986 6.45H9.692v-.156h.714c.088-.377.105-.737 0-.919a.21.21 0 0 0-.198-.114c-.408 0-.577.432-.584.45l-.146-.055c.008-.022.213-.551.73-.551.145 0 .26.066.332.191.13.222.114.607.027.998h1.252c.167-.49.514-.72 1.095-.72v.156c-.63 0-.806.267-.932.564h.684l-.002.155-.678.001z"/><path fill-rule="nonzero" d="M12.089 7.222c-.185-.273-.243-.507-.166-.773l-.16.001c-.055.177-.032.444.104.673h-1.591c.096-.194.186-.43.252-.673h-.162a3.3 3.3 0 0 1-.288.712l-.037.065.893.562-.503.332.086.13.562-.37.607.396.083-.132-.562-.348.883-.574h-.001zm-1.012.473l-.66-.416h1.29l-.63.416z"/></g><g fill="#000" fill-rule="nonzero"><path d="M13.948 4.788c0-.272-.085-1.421-.241-1.738-.422.16-1.19.68-1.364 1.212a8.463 8.463 0 0 0-2.595.032C9.61 3.723 8.92 3.284 8.4 3.038c-.22.37-.317 1.23-.292 1.84l-.003.001c.096 2.559 1.352 4.152 2.993 5.117 1.689-.965 2.895-2.846 2.848-5.21l.002.002zm-.262.185c.043 2.129-1.043 3.823-2.564 4.692-2.58-1.286-3.067-4.544-2.627-6.291.123.668.345 1.087.826 1.292 1.048-.3 2.49-.323 3.552-.03.443-.322.615-.814.709-1.244.117.5.103 1.58.104 1.58z"/><path d="M14.786 12.338c-.265-.296-.784-.437-1.218-.426-.307-.367-2.092-2.246-2.092-2.246l-.123.156 2.154 2.32.093-.009c.586-.05.918.268 1.006.366a.681.681 0 0 1 .125.19h-1.184c-2.715-1.417-5.1-2.416-7.633-2.634.006-.353.069-.752.189-1.197l-.233-.063c-.124.457-.189.871-.196 1.241-.264-.017-.53-.026-.798-.026-.227 0-.434.02-.623.057a8.584 8.584 0 0 1-.634-.703c1.177-1.225 3.12-2.333 4.803-2.74l-.055-.236c-1.812.437-3.797 1.627-4.902 2.776-.513-.692-.717-1.26-.777-1.691-.077-.544.053-1.043.375-1.443.504-.626 1.22-.67 1.957-.546a.452.452 0 0 0 .047.296c.195.287 1.242.389 1.867.11-.461-.646-1.395-.962-1.654-.835a.443.443 0 0 0-.195.208 4.151 4.151 0 0 0-.692-.078c-.65.005-1.146.232-1.518.694-.365.453-.512 1.016-.426 1.628.081.579.368 1.195.849 1.834l-.232.253c-1.171 1.311-2.028 2.717-2.028 2.95v.12h1.546l-.027-.142c-.087-.462.087-1.038.444-1.47.224-.27.595-.579 1.178-.721a15.944 15.944 0 0 0 1.914 1.561h1.149v-.12a.394.394 0 0 0-.19-.336c-.182-.119-.462-.135-.72-.047-.245-.273-.382-.638-.412-1.092 2.493.221 4.877 1.228 7.568 2.633h1.48l.02-.097c.027-.138-.048-.323-.202-.495zm-11.97-1.44c-.367.442-.56 1.025-.516 1.525h-.974c.196-.423.975-1.647 2.127-2.883.158.196.335.394.53.594-.566.17-.937.486-1.168.765z"/></g></g></svg>