<svg xmlns="http://www.w3.org/2000/svg" width="16" height="16" viewBox="0 0 16 16"><rect id="frame" width="16" height="16" fill="none"/><g fill="none" fill-rule="evenodd"><path fill="#191919" d="M6.39 1.935a2.17 2.17 0 0 0-.216.941c-.03 1.611.07 1.362.008 2.101-.029.34-.066.466-.237.876-.186.446-.385.7-.662 1.091-.343.485-.816 1.149-1.075 1.681a4.209 4.209 0 0 0-.318 1.069c-.03.204-.034.468-.027.716-.183.16-.276.43-.464.636-.12.133-.355.176-.614.227-.222.043-.457.13-.54.264a.504.504 0 0 0-.024.047c-.188.365.041.99-.07 1.454-.048.197-.128.382-.13.552 0 .088.02.18.08.286.066.116.21.199.416.271.193.067.442.126.732.195l.1.024c.131.032.261.063.393.09.085.018.135.026.178.034.185.033.255.046.748.241.12.047.251.098.39.14.277.087.588.15.876.098a.905.905 0 0 0 .406-.18 1.545 1.545 0 0 0 .398-.485.891.891 0 0 0 .072-.197c.116-.059.403-.147 1.087-.154 1.03-.01 1.717.366 1.717.366v-.007c.01.049.02.095.033.139a.755.755 0 0 0 .218.343c.061.057.135.11.219.155.078.042.166.077.263.102.088.024.183.039.284.044.094.005.193 0 .295-.015a1.06 1.06 0 0 0 .423-.153c.112-.07.204-.154.298-.24l.003-.002c.061-.057.124-.115.193-.167a10.955 10.955 0 0 0 .257-.201c.102-.081.207-.165.313-.245a6.1 6.1 0 0 1 .35-.246 42.087 42.087 0 0 0 .627-.417c.187-.129.445-.288.543-.495a.393.393 0 0 0 .045-.207c-.015-.236-.292-.45-.537-.662-.119-.103-.239-.206-.301-.31a1.082 1.082 0 0 1-.13-.306c-.048-.258-.047-.45-.167-.62a.458.458 0 0 0-.378-.22 1.48 1.48 0 0 1-.073-.011c.11-.413.148-.676.115-1.02-.113-1.208-.877-2.092-1.292-2.691-.272-.39-.586-.793-.721-1.06-.136-.269-.237-.641-.303-.857-.065-.213-.1-.718-.108-1.539.03-1.256-.354-1.836-.819-2.198C8.799.85 8.116.857 7.87.878c-.206.019-1.075.23-1.48 1.057z"/><path fill="#FCC624" d="M3.296 11.28c-.244.119-.808.116-.944.353-.15.261-.053.55-.052.882 0 .236-.003.498-.101.777-.08.23-.108.31.008.513.115.203.614.3 1.29.463.677.163.461.043 1.219.342.469.186 1.13.414 1.56.075.158-.126.417-.409.433-.685a1.195 1.195 0 0 0-.042-.428c-.124-.34-.372-.486-.607-.842-.43-.66-.887-1.288-1.253-1.838-.258-.39-.465-.483-.64-.452-.54.096-.365.594-.87.84zm6.855-.563c-.238.17-.186.679-.2.947-.021.41-.024.867-.038 1.049-.023.3-.249.98-.221 1.302.027.32.05.508.247.692.197.183.545.32.974.258.429-.063.591-.333.87-.544.277-.211.563-.461.93-.7.367-.239.958-.63 1.043-.735.085-.106.143-.198.081-.337-.06-.139-.275-.354-.509-.55-.61-.51-.347-.985-.601-1.235-.078-.085-.136-.132-.226-.15-.487-.1-.621.093-.907.064-.308-.03-.192.038-.825-.047-.218-.025-.468-.113-.618-.014z"/><path fill="#F5F5F5" d="M6.171 6.821c-.217.482-.206.318-.353.821-.203.187-.425.688-.572 1.12-.187.626-.328 1.27-.153 2.02.07.076.126.148.189.209.1.096.208.174.34.275.467.36.794.55.859.783.085.31-.107.516-.346.643.175.177.734.54 1.753.495.898-.04 1.461-.384 1.942-.977.003-.137.018-.365.025-.612.006-.236.007-.472.043-.655a.668.668 0 0 1 .039-.12.429.429 0 0 1 .367-.253c.08-.003.163-.01.243.008.121-.964.025-1.63-.456-2.65-.037-.071-.216-.375-.322-.46-.083-.412-.094-.392-.26-.77-.253-.57-.344-1.232-.421-1.62-.053.028-.145.066-.285.176-.101.08-.29.247-.434.348a1.773 1.773 0 0 1-.299.168 1.131 1.131 0 0 1-.396.106c-.385.02-.568-.076-.743-.261-.074-.078-.13-.163-.223-.267a1.068 1.068 0 0 0-.156-.149c-.001.051-.163 1.14-.38 1.622zM7.9 3.945a1.41 1.41 0 0 1 .059-.55c.113-.38.524-.634.872-.455.348.18.412.644.329.905-.051.161-.173.35-.265.468a5.215 5.215 0 0 0-.268-.1.435.435 0 0 0 .16-.172c.116-.213.075-.489-.09-.617-.165-.129-.392-.06-.507.152a.543.543 0 0 0-.024.465 3.843 3.843 0 0 0-.266-.096zm-1.275-.911c.326-.115.52.161.6.556.024.121.026.243.011.354l-.027.01c-.039.016-.08.035-.125.058a.533.533 0 0 0 .016-.082c.026-.22-.078-.45-.231-.51-.153-.06-.299.07-.324.291-.025.212.069.431.212.502a2.987 2.987 0 0 0-.127.092c-.113-.11-.19-.29-.232-.477-.078-.34.006-.716.227-.794z"/><path fill="#FCC624" d="M6.518 5.06c.006.005.003.015.01.022.072.072.155.144.228.227.083.096.16.203.231.269.13.12.255.185.437.208.35.043.612-.055.908-.252.14-.093.332-.265.443-.35.186-.14.239-.13.294-.2.057-.075.084-.268.068-.36a.222.222 0 0 0-.114-.165c-.084-.054-.229-.11-.48-.197H8.54V4.26h-.002l-.001-.001h-.002l-.002-.001h-.002v-.001H8.53l-.001-.001h-.002v-.001h-.003l-.001-.001h-.001l-.002-.001h-.002v-.001h-.003v-.001H8.51V4.25h-.002l-.001-.001h-.002l-.001-.001-.003-.001-.006-.003h-.001l-.005-.001H8.49l-.003-.002-.004-.001-.006-.002-.007-.003h-.001l-.005-.002-.007-.002-.002-.001-.004-.002-.007-.002-.006-.002-.005-.002h-.001l-.003-.002h-.004V4.22l-.005-.002-.007-.003H8.41l-.004-.002-.004-.001-.003-.001-.005-.002-.006-.002-.003-.001-.004-.002-.004-.002h-.001L8.369 4.2l-.004-.002h-.001l-.004-.002h-.003v-.001l-.005-.002-.004-.001-.002-.001h-.002l-.004-.002-.006-.003-.006-.002-.004-.002h-.002l-.002-.001-.003-.001-.005-.002H8.31l-.003-.001-.003-.001-.005-.002-.003-.002h-.003l-.002-.001-.003-.002-.004-.002h-.002l-.005-.002h-.001l-.004-.002h-.001l-.003-.001-.002-.001h-.001l-.004-.002h-.001l-.005-.003h-.001l-.004-.002-.004-.001-.002-.001h-.001L8.24 4.15h-.002l-.002-.001h-.002v-.001h-.002l-.002-.001-.001-.001h-.002l-.001-.001h-.002v-.001h-.002v-.001H8.22l-.001-.001h-.003V4.14h-.002l-.001-.001h-.002l-.001-.001h-.002v-.001h-.002l-.001-.001h-.001l-.001-.001H8.2L8.2 4.134h-.002v-.001h-.002l-.001-.001h-.001l-.002-.001-.002-.001H8.19l-.002-.001h-.001l-.001-.001h-.001l-.002-.001H8.18l-.001-.001h-.001l-.002-.001h-.001l-.001-.001h-.001l-.002-.001-.002-.001h-.001c-.256-.1-.421-.166-.653-.158a.748.748 0 0 0-.28.058l-.005.003-.006.001-.004.003h-.001l-.006.002-.004.002-.003.002-.004.001H7.2l-.005.003h-.001l-.006.003-.005.002h-.001l-.004.002-.003.002-.004.002H7.17l-.003.002-.002.001h-.001l-.003.002H7.16l-.002.001-.004.002h-.001l-.002.002-.003.001-.003.002-.003.001-.004.002-.003.002-.004.001-.003.002-.003.001-.004.002-.003.002-.003.002-.003.002-.004.002-.003.001-.004.002-.003.002-.004.002-.003.002-.004.002-.003.001-.004.003-.004.001-.003.002-.003.002-.005.002-.003.002-.004.002-.004.003a1.131 1.131 0 0 0-.022.012l-.004.003-.004.001-.002.002-.004.003-.003.001-.005.003-.002.001-.002.002-.005.003L7 4.144l-.005.002-.002.002-.007.004-.003.002-.005.003-.002.001-.005.003-.003.002-.006.004-.003.002-.006.003-.002.001-.005.003v.001h-.002v.001h-.001l-.001.001-.003.002h-.001v.001h-.002v.001h-.001l-.006.004h-.001l-.003.002-.005.004-.002.001-.006.004-.002.002-.003.001-.003.002-.002.001-.003.002-.005.004-.003.002-.005.003-.003.002-.003.001-.002.002-.003.002-.003.002-.003.002-.002.002-.003.002h-.002l-.003.003h-.002l-.002.002-.002.001-.001.002h-.002l-.002.002-.002.001-.001.002-.004.002-.002.001-.002.001-.002.001-.001.002H6.83l-.002.002-.002.001-.002.002-.002.001-.001.001-.002.002h-.002l-.002.002-.002.001h-.001v.001l-.002.002-.004.002-.002.002h-.002l-.002.002-.002.002h-.002l-.002.002-.003.003H6.79l-.002.002-.002.002h-.002v.001l-.002.001-.002.002-.002.001-.001.001-.002.001h-.001l-.001.002-.002.001-.003.002-.003.002-.001.001h-.001L6.76 4.3l-.002.002-.004.002-.001.001-.003.002-.008.006c-.118.083-.24.195-.31.309-.042.067-.108.207-.046.287 0 0 .157.082.314.176.255.152.546.231.806.216.206-.011.437-.077.603-.158.168-.082.374-.21.575-.368.03-.023.09-.082.127-.1.033-.015.138-.006.133.03-.004.028-.127.079-.172.112-.22.166-.464.327-.623.402-.164.076-.44.165-.628.176-.17.01-.315-.01-.464-.06a1.839 1.839 0 0 1-.38-.181c-.05-.028-.096-.052-.162-.094h.002z"/><path fill="#191919" d="M12.13 10.647a.518.518 0 0 0 .026-.093c.032-.323-.59-.396-1.074-.38-.22.007-.391.034-.493.064a.375.375 0 0 0-.286.328c-.04.31.05.963.354 1.106.314.148.789-.063 1.069-.381.19-.216.31-.467.404-.644z"/></g></svg>