<svg xmlns="http://www.w3.org/2000/svg" width="16" height="16" viewBox="0 0 16 16"><rect id="frame" width="16" height="16" fill="none"/><g fill-rule="evenodd"><path fill="#F0A732" d="M8 11.3c-.759 0-1.374-.134-1.374-.3l.621-1.447 1.409-.227L9.374 11c0 .166-.615.3-1.374.3zm-.3 1.993a7.393 7.393 0 0 1-.7-.056v-1.263c.249.046.495.065.7.07v1.249zm.585-6.101A.305.305 0 0 0 8 7a.305.305 0 0 0-.285.192l-1.715 4v2.372c0 .24.896.436 2 .436s2-.195 2-.436v-2.372l-1.715-4z"/><path fill="#3592C4" d="M3 11.3c-.759 0-1.374-.134-1.374-.3l.621-1.447 1.409-.227L4.374 11c0 .166-.615.3-1.374.3zm-.3 1.993a7.393 7.393 0 0 1-.7-.056v-1.263c.249.046.495.065.7.07v1.249zm.585-6.101A.305.305 0 0 0 3 7a.305.305 0 0 0-.285.192l-1.715 4v2.372c0 .24.896.436 2 .436s2-.195 2-.436v-2.372l-1.715-4z"/><path fill="#C75450" d="M13 11.3c-.759 0-1.374-.134-1.374-.3l.621-1.447 1.409-.227.718 1.674c0 .166-.615.3-1.374.3zm-.3 1.993a7.393 7.393 0 0 1-.7-.056v-1.263c.249.046.495.065.7.07v1.249zm.585-6.101A.305.305 0 0 0 13 7a.305.305 0 0 0-.285.192l-1.715 4v2.372c0 .24.896.436 2 .436s2-.195 2-.436v-2.372l-1.715-4z"/></g></svg>