<svg xmlns="http://www.w3.org/2000/svg" width="36" height="21" viewBox="0 0 36 21"><rect id="frame" width="36" height="21" fill="none"/><g fill-rule="evenodd" opacity=".7"><path fill="#F4AF3D" d="M21 18.075c-.835.143-2.083.325-3 .325-.917 0-2.165-.182-3-.325v-.053l1.635-4.026 2.627-.254L21 18.022v.053zm-2.43-8.69A.606.606 0 0 0 18 9a.606.606 0 0 0-.57.384L14 17.826V21h1v-1.51c.439.072.966.15 1.5.21V21H22v-3.174l-3.43-8.442z"/><path fill="#40B6E0" d="M12 18.075c-.835.143-2.083.325-3 .325-.917 0-2.165-.182-3-.325v-.053l1.635-4.026 2.627-.254L12 18.022v.053zm-2.43-8.69A.606.606 0 0 0 9 9a.606.606 0 0 0-.57.384L5 17.826V21h1v-1.51c.439.072.966.15 1.5.21V21H13v-3.174L9.57 9.384z"/><path fill="#F26522" d="M30 11.075c-.835.143-2.083.325-3 .325-.917 0-2.165-.182-3-.325v-.053l1.635-4.026 2.627-.254L30 11.022v.053zm-2.43-8.69A.606.606 0 0 0 27 2a.606.606 0 0 0-.57.384L23 10.826V21h1v-8.51c.439.072.966.15 1.5.21V21H31V10.826l-3.43-8.442z"/></g></svg>