<svg xmlns="http://www.w3.org/2000/svg" width="16" height="16" viewBox="0 0 16 16"><rect id="frame" width="16" height="16" fill="none"/><path fill="#AFB1B3" fill-rule="evenodd" d="M8 6.3c-.759 0-1.374-.134-1.374-.3l.621-1.448 1.409-.226L9.374 6c0 .166-.615.3-1.374.3zm-.3 6.994a7.045 7.045 0 0 1-.7-.058V6.974c.249.046.495.065.7.07v6.25zm.585-11.102A.304.304 0 0 0 8 2a.304.304 0 0 0-.285.192L6 6.192v7.372c0 .24.896.436 2 .436s2-.195 2-.436V6.192l-1.715-4zM13 6.3c-.759 0-1.374-.134-1.374-.3l.621-1.448 1.409-.226L14.374 6c0 .166-.615.3-1.374.3zm-.3 6.994a7.045 7.045 0 0 1-.7-.058V6.974c.249.046.495.065.7.07v6.25zm.585-11.102A.304.304 0 0 0 13 2a.304.304 0 0 0-.285.192l-1.715 4v7.372c0 .24.896.436 2 .436s2-.195 2-.436V6.192l-1.715-4zM3 11.3c-.759 0-1.374-.134-1.374-.3l.621-1.448 1.409-.226L4.374 11c0 .166-.615.3-1.374.3zm-.3 1.994a7.045 7.045 0 0 1-.7-.058v-1.262c.249.046.495.065.7.07v1.25zm.585-6.102A.304.304 0 0 0 3 7a.304.304 0 0 0-.285.192l-1.715 4v2.372c0 .24.896.436 2 .436s2-.195 2-.436v-2.372l-1.715-4z"/></svg>