<svg xmlns="http://www.w3.org/2000/svg" width="36" height="21" viewBox="0 0 36 21"><rect id="frame" width="36" height="21" fill="none"/><path fill="#9AA7B0" fill-rule="evenodd" d="M21 11.075c-.835.143-2.083.325-3 .325-.917 0-2.165-.182-3-.325v-.053l1.635-4.026 2.627-.254L21 11.022v.053zm-2.43-8.69A.606.606 0 0 0 18 2a.606.606 0 0 0-.57.384L14 10.826V21h1v-8.51c.439.072.966.15 1.5.21V21H22V10.826l-3.43-8.442zM27 2c.233 0 .466.128.57.384L31 10.826V21h-5.5v-8.3a29.24 29.24 0 0 1-1.5-.21V21h-1V10.826l3.43-8.442A.606.606 0 0 1 27 2zm1.262 4.742l-2.627.254L24 11.022v.053c.835.143 2.083.325 3 .325.917 0 2.165-.182 3-.325v-.053l-1.738-4.28zM6 18.022l1.635-4.026 2.627-.253L12 18.022v.053c-.835.143-2.083.325-3 .325-.917 0-2.165-.182-3-.325v-.053zM6 21v-1.511c.439.074.966.152 1.5.212V21H13v-3.173L9.57 9.384A.606.606 0 0 0 9 9a.606.606 0 0 0-.57.384L5 17.827V21h1z" opacity=".7"/></svg>