<svg xmlns="http://www.w3.org/2000/svg" width="28" height="21" viewBox="0 0 28 21"><rect id="frame" width="28" height="21" fill="none"/><path fill="#AFB1B3" fill-rule="evenodd" d="M17 18.075c-.835.143-2.083.325-3 .325-.916 0-2.164-.182-3-.325v-.053l1.635-4.026 2.627-.254L17 18.022v.053zm-2.43-8.69A.606.606 0 0 0 14 9a.606.606 0 0 0-.57.384L10 17.826V21h1v-1.51c.439.072.966.15 1.5.21V21H18v-3.174l-3.43-8.442zM8 18.074c-.835.143-2.083.325-3 .325-.916 0-2.164-.182-3-.325v-.053l1.635-4.026 2.627-.254L8 18.022v.053zm-2.43-8.69A.606.606 0 0 0 5 9a.606.606 0 0 0-.57.384L1 17.826V21h1v-1.51c.439.072.966.15 1.5.21V21H9v-3.174L5.57 9.384zM26 11.074c-.835.143-2.083.325-3 .325-.916 0-2.164-.182-3-.325v-.053l1.635-4.026 2.627-.254L26 11.022v.053zm-2.43-8.69A.606.606 0 0 0 23 2a.606.606 0 0 0-.57.384L19 10.826V21h1v-8.51c.439.072.966.15 1.5.21V21H27V10.826l-3.43-8.442z"/></svg>