<svg xmlns="http://www.w3.org/2000/svg" width="28" height="21" viewBox="0 0 28 21"><rect id="frame" width="28" height="21" fill="none"/><g fill-rule="evenodd"><path fill="#F0A732" d="M14 2c.233 0 .466.128.57.384L18 10.827V21h-5.5v-8.3a29.24 29.24 0 0 1-1.5-.21V21h-1V10.827l3.43-8.443A.606.606 0 0 1 14 2zm1.262 4.743l-2.627.253L11 11.022v.054c.836.142 2.084.324 3 .324.917 0 2.165-.182 3-.324v-.054l-1.738-4.28z"/><path fill="#C75450" d="M23 2c.233 0 .466.128.57.384L27 10.827V21h-5.5v-8.3a29.24 29.24 0 0 1-1.5-.21V21h-1V10.827l3.43-8.443A.606.606 0 0 1 23 2zm1.262 4.743l-2.627.253L20 11.022v.054c.836.142 2.084.324 3 .324.917 0 2.165-.182 3-.324v-.054l-1.738-4.28z"/><path fill="#3592C4" d="M5 9c.233 0 .466.128.57.384L9 17.827V21H3.5v-1.3a29.24 29.24 0 0 1-1.5-.21V21H1v-3.173l3.43-8.443A.606.606 0 0 1 5 9zm1.262 4.743l-2.627.253L2 18.022v.054c.836.142 2.084.324 3 .324.917 0 2.165-.182 3-.324v-.054l-1.738-4.28z"/></g></svg>