<svg xmlns="http://www.w3.org/2000/svg" width="16" height="16" viewBox="0 0 16 16"><rect id="frame" width="16" height="16" fill="none"/><path fill="#AFB1B3" fill-rule="evenodd" d="M13 2c.116 0 .233.064.285.192l1.715 4v7.372c0 .24-.896.436-2 .436s-2-.195-2-.436V6.192l1.715-4A.304.304 0 0 1 13 2zm-1 4.974v6.262c.212.029.447.049.7.058v-6.25a4.662 4.662 0 0 1-.7-.07zm1.656-2.648l-1.409.226L11.626 6c0 .166.615.3 1.374.3.759 0 1.374-.134 1.374-.3l-.718-1.674zM3 2c.116 0 .233.064.285.192l1.715 4v7.372c0 .24-.896.436-2 .436s-2-.195-2-.436V6.192l1.715-4A.304.304 0 0 1 3 2zM2 6.974v6.262c.212.029.447.049.7.058v-6.25a4.662 4.662 0 0 1-.7-.07zm1.656-2.648l-1.409.226L1.626 6c0 .166.615.3 1.374.3.759 0 1.374-.134 1.374-.3l-.718-1.674zM8 2c.116 0 .233.064.285.192l1.715 4v7.372c0 .24-.896.436-2 .436s-2-.195-2-.436V6.192l1.715-4A.304.304 0 0 1 8 2zM7 6.974v6.262c.212.029.447.049.7.058v-6.25a4.662 4.662 0 0 1-.7-.07zm1.656-2.648l-1.409.226L6.626 6c0 .166.615.3 1.374.3.759 0 1.374-.134 1.374-.3l-.718-1.674z"/></svg>