<svg xmlns="http://www.w3.org/2000/svg" width="28" height="21" viewBox="0 0 28 21"><rect id="frame" width="28" height="21" fill="none"/><path fill="#6E6E6E" fill-rule="evenodd" d="M17 18.075c-.835.143-2.083.325-3 .325-.916 0-2.164-.182-3-.325v-.054l1.635-4.025 2.627-.253L17 18.021v.054zm-2.43-8.69A.606.606 0 0 0 14 9a.606.606 0 0 0-.57.384L10 17.826V21h1v-1.51c.439.072.966.15 1.5.211v1.3H18v-3.175l-3.43-8.442zM8 18.074c-.835.143-2.083.325-3 .325-.916 0-2.164-.182-3-.325v-.054l1.635-4.025 2.627-.253L8 18.021v.054zm-2.43-8.69A.606.606 0 0 0 5 9a.606.606 0 0 0-.57.384L1 17.826V21h1v-1.51c.439.072.966.15 1.5.211v1.3H9v-3.175L5.57 9.384zM26 18.074c-.835.143-2.083.325-3 .325-.916 0-2.164-.182-3-.325v-.054l1.635-4.025 2.627-.253L26 18.021v.054zm-2.43-8.69A.606.606 0 0 0 23 9a.606.606 0 0 0-.57.384L19 17.826V21h1v-1.51c.439.072.966.15 1.5.211v1.3H27v-3.175l-3.43-8.442z"/></svg>