<svg xmlns="http://www.w3.org/2000/svg" width="28" height="21" viewBox="0 0 28 21"><rect id="frame" width="28" height="21" fill="none"/><g fill-rule="evenodd"><path fill="#F0A732" d="M14 9c.233 0 .466.128.57.384L18 17.826V21h-5.5v-1.299l-.632-.08A31.9 31.9 0 0 1 11 19.49V21h-1v-3.174l3.43-8.442A.606.606 0 0 1 14 9zm1.262 4.743l-2.627.253L11 18.021v.054c.836.143 2.084.325 3 .325.917 0 2.165-.182 3-.325v-.054l-1.738-4.278z"/><path fill="#3592C4" d="M5 9c.233 0 .466.128.57.384L9 17.826V21H3.5v-1.299l-.632-.08A31.9 31.9 0 0 1 2 19.49V21H1v-3.174l3.43-8.442A.606.606 0 0 1 5 9zm1.262 4.743l-2.627.253L2 18.021v.054c.836.143 2.084.325 3 .325.917 0 2.165-.182 3-.325v-.054l-1.738-4.278z"/><path fill="#C75450" d="M23 9c.233 0 .466.128.57.384L27 17.826V21h-5.5v-1.299l-.632-.08A31.9 31.9 0 0 1 20 19.49V21h-1v-3.174l3.43-8.442A.606.606 0 0 1 23 9zm1.262 4.743l-2.627.253L20 18.021v.054c.836.143 2.084.325 3 .325.917 0 2.165-.182 3-.325v-.054l-1.738-4.278z"/></g></svg>