<svg xmlns="http://www.w3.org/2000/svg" width="36" height="21" viewBox="0 0 36 21"><rect id="frame" width="36" height="21" fill="none"/><path fill="#9AA7B0" fill-rule="evenodd" d="M21 18.075c-.835.143-2.083.325-3 .325-.917 0-2.165-.182-3-.325v-.054l1.635-4.025 2.627-.253L21 18.021v.054zm-2.43-8.69A.606.606 0 0 0 18 9a.606.606 0 0 0-.57.384L14 17.826V21h1v-1.51c.439.072.966.15 1.5.211v1.3H22v-3.175l-3.43-8.442zM12 18.074c-.835.143-2.083.325-3 .325-.917 0-2.165-.182-3-.325v-.054l1.635-4.025 2.627-.253L12 18.021v.054zm-2.43-8.69A.606.606 0 0 0 9 9a.606.606 0 0 0-.57.384L5 17.826V21h1v-1.51c.439.072.966.15 1.5.211v1.3H13v-3.175L9.57 9.384zM30 18.074c-.835.143-2.083.325-3 .325-.917 0-2.165-.182-3-.325v-.054l1.635-4.025 2.627-.253L30 18.021v.054zm-2.43-8.69A.606.606 0 0 0 27 9a.606.606 0 0 0-.57.384L23 17.826V21h1v-1.51c.439.072.966.15 1.5.211v1.3H31v-3.175l-3.43-8.442z" opacity=".7"/></svg>