<svg xmlns="http://www.w3.org/2000/svg" width="16" height="16" viewBox="0 0 16 16"><rect id="frame" width="16" height="16" fill="none"/><g fill="none" fill-rule="evenodd"><path fill="#40B6E0" fill-opacity=".7" d="M6.145 8c1.03.824 1.703 2.078 1.703 3.5 0 1.422-.673 2.676-1.703 3.5h9.703V8H6.145z"/><path fill="#231F20" fill-opacity=".7" d="M10.167 12.117v-1.932l-1.604 1.932h1.604zm0 .704H7.706l-.161-.613L10.258 9H11v3.117h.688v.704H11V14h-.833v-1.179zm2.32-.188c.36.363.738.586 1.155.586.538 0 .89-.335.89-.844 0-.51-.385-.822-.928-.822-.322 0-.597.097-.829.216l-.473-.342.128-2.393H15v.76h-1.891l-.07 1.145c.211-.083.41-.14.711-.14.872 0 1.564.503 1.564 1.534v.015c0 .997-.672 1.652-1.667 1.652-.685 0-1.223-.3-1.647-.746l.487-.621z"/><path fill="#9AA7B0" fill-opacity=".8" d="M6.848 0l-4 4h4z"/><path fill="#9AA7B0" fill-opacity=".8" d="M7.848 0v5h-5v2h10V0z"/><path fill="#9AA7B0" d="M3.5 8A3.501 3.501 0 0 0 0 11.5C0 13.432 1.568 15 3.5 15S7 13.432 7 11.5 5.432 8 3.5 8zm-.35 6.275a2.796 2.796 0 0 1-2.377-3.402L2.45 12.55v.35c0 .385.315.7.7.7v.675zm2.415-.889A.694.694 0 0 0 4.9 12.9h-.35v-1.05a.351.351 0 0 0-.35-.35H2.1v-.7h.7c.193 0 .35-.158.35-.35v-.7h.7c.385 0 .7-.315.7-.7v-.144A2.802 2.802 0 0 1 6.3 11.5c0 .728-.28 1.39-.735 1.886z"/></g></svg>