<svg width="48" height="48" viewBox="0 0 48 48" fill="none" xmlns="http://www.w3.org/2000/svg"><rect id="frame" width="48" height="48" fill="none"/><path d="M44 4H4v40h40V4z" fill="url(#paint0_linear)"/><path d="M39 9H9v30h30V9z" fill="url(#paint1_linear)"/><path d="M23.25 34H12v1.929h11.25V34z" fill="#fff"/><path d="M17.905 14.191v-2.17H12v2.17h1.655v7.482H12v2.158h5.905v-2.158H16.25V14.19h1.655z" fill="#fff"/><path d="M23.575 24c-.917 0-1.7-.179-2.315-.526-.626-.346-1.14-.76-1.543-1.252l1.632-1.823c.336.369.683.66 1.018.872.347.213.727.313 1.14.313.493 0 .884-.156 1.164-.47.28-.313.425-.805.425-1.498V12h2.662v7.728c0 .704-.101 1.32-.291 1.845-.19.515-.47.962-.828 1.32a3.464 3.464 0 0 1-1.32.816c-.514.201-1.095.291-1.744.291z" fill="#fff"/><defs><linearGradient id="paint0_linear" x1="48.487" y1="48.457" x2="-8.016" y2="-8.046" gradientUnits="userSpaceOnUse"><stop offset=".347" stop-color="#087CFA"/><stop offset=".856" stop-color="#FE2857"/><stop offset="1" stop-color="#FE2857"/></linearGradient><linearGradient id="paint1_linear" x1="23.999" y1="1.707" x2="23.999" y2="28.611" gradientUnits="userSpaceOnUse"><stop offset=".084" stop-color="#878585"/><stop offset=".538"/></linearGradient></defs></svg>