<svg width="80" height="80" viewBox="0 0 80 80" fill="none" xmlns="http://www.w3.org/2000/svg"><rect id="frame" width="80" height="80" fill="none"/><path d="M75 5H5v70h70V5z" fill="url(#paint0_linear)"/><path d="M65 15H15v50h50V15z" fill="url(#paint1_linear)"/><path d="M30.383 24.991v-3.374H21.2v3.374h2.574v11.635H21.2v3.357h9.183v-3.357h-2.574V24.991h2.574z" fill="#fff"/><path d="M39.2 40.243c-1.426 0-2.644-.278-3.6-.817-.974-.539-1.774-1.183-2.4-1.948l2.54-2.834A7.84 7.84 0 0 0 37.321 36c.539.33 1.13.487 1.774.487.765 0 1.373-.244 1.808-.73.435-.487.661-1.253.661-2.33V21.582h4.14V33.6c0 1.096-.157 2.052-.453 2.87-.296.8-.73 1.495-1.287 2.052a5.39 5.39 0 0 1-2.052 1.27c-.8.312-1.704.451-2.713.451z" fill="#fff"/><path d="M39.9 55.5H21.2v3.1h18.7v-3.1z" fill="#fff"/><defs><linearGradient id="paint0_linear" x1="82.852" y1="82.799" x2="-16.028" y2="-16.08" gradientUnits="userSpaceOnUse"><stop offset=".347" stop-color="#087CFA"/><stop offset=".856" stop-color="#FE2857"/><stop offset="1" stop-color="#FE2857"/></linearGradient><linearGradient id="paint1_linear" x1="39.999" y1="2.846" x2="39.999" y2="47.685" gradientUnits="userSpaceOnUse"><stop offset=".084" stop-color="#878585"/><stop offset=".538"/></linearGradient></defs></svg>