<svg width="128" height="128" viewBox="0 0 128 128" fill="none" xmlns="http://www.w3.org/2000/svg"><rect id="frame" width="128" height="128" fill="none"/><path d="M117 11H11v106h106V11z" fill="url(#paint0_linear)"/><path d="M103 25H25v78h78V25z" fill="url(#paint1_linear)"/><path d="M62.7 89.567H33.667v4.767H62.7v-4.767z" fill="#fff"/><path d="M49.397 40.123V34.75H34.793v5.373h4.074v18.504h-4.074v5.33h14.604v-5.33H45.28V40.123h4.117z" fill="#fff"/><path d="M63.437 64.39c-2.297 0-4.203-.433-5.72-1.3-1.56-.867-2.817-1.907-3.813-3.077l4.03-4.506c.823.91 1.69 1.646 2.513 2.166.866.52 1.776.78 2.816.78 1.214 0 2.167-.39 2.86-1.17.694-.78 1.04-1.993 1.04-3.683V34.793h6.587v19.11c0 1.734-.216 3.25-.693 4.55-.477 1.3-1.17 2.384-2.037 3.25-.91.91-1.993 1.56-3.293 2.037-1.3.433-2.73.65-4.29.65z" fill="#fff"/><defs><linearGradient id="paint0_linear" x1="128.89" y1="128.81" x2="-20.842" y2="-20.921" gradientUnits="userSpaceOnUse"><stop offset=".347" stop-color="#087CFA"/><stop offset=".856" stop-color="#FE2857"/><stop offset="1" stop-color="#FE2857"/></linearGradient><linearGradient id="paint1_linear" x1="63.896" y1="6.042" x2="63.896" y2="75.993" gradientUnits="userSpaceOnUse"><stop offset=".084" stop-color="#878585"/><stop offset=".538"/></linearGradient></defs></svg>