<svg width="24" height="24" viewBox="0 0 24 24" fill="none" xmlns="http://www.w3.org/2000/svg"><rect id="frame" width="24" height="24" fill="none"/><path d="M23 1H1v22h22V1z" fill="url(#paint0_linear)"/><path d="M20 4H4v16h16V4z" fill="url(#paint1_linear)"/><path d="M12 17H6v1h6v-1z" fill="#fff"/><path d="M8.99 7.1V6H6.01v1.1h.83v3.78h-.83v1.09h2.98v-1.09h-.84V7.1h.84z" fill="#fff"/><path d="M11.85 12.05c-.47 0-.86-.09-1.17-.26-.32-.18-.58-.39-.78-.63l.83-.92c.17.19.34.33.52.44.17.11.36.16.58.16.25 0 .45-.08.59-.23.14-.16.21-.41.21-.75V6h1.35v3.9c0 .36-.05.67-.14.93-.1.26-.24.48-.42.66-.18.18-.4.32-.67.41-.28.11-.58.15-.9.15z" fill="#fff"/><defs><linearGradient id="paint0_linear" x1="25.468" y1="25.451" x2="-5.609" y2="-5.625" gradientUnits="userSpaceOnUse"><stop offset=".347" stop-color="#087CFA"/><stop offset=".856" stop-color="#FE2857"/><stop offset="1" stop-color="#FE2857"/></linearGradient><linearGradient id="paint1_linear" x1="12" y1=".129" x2="12" y2="14.478" gradientUnits="userSpaceOnUse"><stop offset=".084" stop-color="#878585"/><stop offset=".538"/></linearGradient></defs></svg>