<svg height="16" viewBox="0 0 104 120" width="16" xmlns="http://www.w3.org/2000/svg"><rect id="frame" width="16" height="16" fill="none"/><path d="M81.853 59.524l-.031.044S69.176 74.23 52 74.23 22.178 59.568 22.178 59.568A163.072 163.072 0 0 1 0 30.298v58.995l.516.296a58.46 58.46 0 0 0 26.42 6.022c13.337 0 26.335-2.175 36.185-8.71 10.008-6.642 16.916-17.447 18.732-27.377z" fill="#29b2e7"/><path d="M81.853 59.523v.001c-1.816 9.93-8.724 20.735-18.732 27.376-9.85 6.536-22.848 8.71-36.186 8.71A58.46 58.46 0 0 1 .516 89.59L52 119.055l52-29.762v-.528a163.546 163.546 0 0 0-22.147-29.242z" fill="#6284c3"/><path d="M81.853 59.523l-.006.01a65.285 65.285 0 0 1-2.244 28.423C75.554 101.304 67.61 108.893 55.59 117L104 89.293v-.528a163.545 163.545 0 0 0-22.147-29.242z" fill="#6f57a5"/><path d="M22.147 59.531l.031-.044S34.824 44.825 52 44.825s29.822 14.662 29.822 14.662A163.072 163.072 0 0 1 104 88.757V29.762l-.516-.295a58.46 58.46 0 0 0-26.42-6.023c-13.337 0-26.335 2.175-36.185 8.71-10.008 6.642-16.916 17.447-18.732 27.377z" fill="#00a775"/><path d="M22.147 59.532c1.816-9.93 8.724-20.736 18.732-27.377 9.85-6.536 22.848-8.71 36.186-8.71a58.46 58.46 0 0 1 26.419 6.022L52 0 0 29.762v.528a163.546 163.546 0 0 0 22.147 29.242z" fill="#6ebe48"/><path d="M22.147 59.532l.006-.01A65.285 65.285 0 0 1 24.397 31.1C28.446 17.75 36.39 10.162 48.41 2.055L0 29.762v.528a163.546 163.546 0 0 0 22.147 29.242z" fill="#add361"/></svg>