<svg ti:v="1" width="16" height="16" viewBox="0 0 16 16" xmlns="http://www.w3.org/2000/svg" xmlns:ti="urn:schemas-jetbrains-com:tisvg"><rect id="frame" width="16" height="16" fill="none"/><g fill-rule="evenodd"><path d="M15 12H4V1h11v11z" fill="#F4F4F4"/><path d="M14 11H5V2h9v9z" fill="#313131"/><path d="M8 12a1 1 0 0 1-1 1H4a1 1 0 0 1-1-1v-2h2.415l3.498-3.503L5.414 3H2.382l1.022 2.044A4.007 4.007 0 0 0 0 9v3c0 2.206 1.794 4 4 4h3c2.206 0 4-1.794 4-4v-1H8v1z" fill="#F4F4F4"/><path d="M9 11v1c0 1.103-.897 2-2 2H4c-1.103 0-2-.897-2-2V9c0-1.103.897-2 2-2h1L4 9h1l2.499-2.502L5 4H4l1 2H4C2.35 6 1 7.35 1 9v3c0 1.65 1.35 3 3 3h3c1.65 0 3-1.35 3-3v-1H9z" fill="#00529C"/></g></svg>