<svg xmlns="http://www.w3.org/2000/svg" xmlns:xlink="http://www.w3.org/1999/xlink" width="16" height="16" viewBox="0 0 16 16"><rect id="frame" width="16" height="16" fill="none"/><defs><linearGradient id="b" x1="82.769%" x2="32.181%" y1="31.413%" y2="34.939%"><stop offset="0%" stop-color="#087CFA"/><stop offset="100%" stop-color="#07C3F2"/></linearGradient><path id="a" d="M7.55 7.125l5.975 5.45L16 6.025l-7.475-1.7z"/><linearGradient id="d" x1="32.184%" x2="75.009%" y1="53.605%" y2="59.61%"><stop offset="0%" stop-color="#07C3F2"/><stop offset="100%" stop-color="#087CFA"/></linearGradient><path id="c" d="M4.7 14.05L12.225 16 16 13l-9.275-2.6z"/><linearGradient id="f" x1="100%" x2="27.667%" y1="9.294%" y2="45.399%"><stop offset="0%" stop-color="#087CFA"/><stop offset="100%" stop-color="#07C3F2"/></linearGradient><path id="e" d="M8.775 0L.3 2.475 2.2 7.95l5.9-.85z"/><linearGradient id="h" x1="51.771%" x2="96.867%" y1="4.137%" y2="78.6%"><stop offset="0%" stop-color="#087CFA"/><stop offset="53.711%" stop-color="#07C3F2"/><stop offset="100%" stop-color="#21D789"/></linearGradient><path id="g" d="M8.775 0L0 9.475V16l16-3-2.05-3.75-2.375-4.05.05-.025z"/><linearGradient id="j" x1="50%" x2="50%" y1="-11.618%" y2="60.589%"><stop offset="0%" stop-color="#A6A5A5"/><stop offset="0%" stop-color="#989898" stop-opacity=".568"/><stop offset="100%"/></linearGradient><path id="i" d="M0 10h10V0H0z"/></defs><g fill="none" fill-rule="evenodd"><use fill="#087CFA" xlink:href="#a"/><use fill="url(#b)" xlink:href="#a"/><use fill="#087CFA" xlink:href="#c"/><use fill="url(#d)" xlink:href="#c"/><use fill="#07C3F2" xlink:href="#e"/><use fill="url(#f)" xlink:href="#e"/><use fill="#07C3F2" xlink:href="#g"/><use fill="url(#h)" xlink:href="#g"/><g transform="translate(3 3)"><use fill="#000" xlink:href="#i"/><use fill="url(#j)" xlink:href="#i"/><path fill="#FFF" d="M3.749 3.63L3.155 2.18l-.593 1.448h1.187zM2.714 1h.907l1.915 4.5H4.508L4.1 4.498H2.21L1.803 5.5H.8L2.714 1z"/><path fill="#FFF" d="M1 8.5h4V8H1z"/></g><path fill="#FFF" d="M8.2 6.25c0-1.264.953-2.3 2.32-2.3.838 0 1.34.279 1.752.686l-.623.718c-.342-.311-.692-.501-1.136-.501-.75 0-1.29.622-1.29 1.384v.013c0 .762.527 1.397 1.29 1.397.508 0 .819-.202 1.169-.52l.622.629c-.458.49-.966.794-1.823.794C9.172 8.55 8.2 7.539 8.2 6.263V6.25z"/></g></svg>