<svg xmlns="http://www.w3.org/2000/svg" xmlns:xlink="http://www.w3.org/1999/xlink" width="64" height="64" viewBox="0 0 64 64"><rect id="frame" width="64" height="64" fill="none"/><defs><linearGradient id="b" x1="82.769%" x2="32.181%" y1="31.413%" y2="34.939%"><stop offset="0%" stop-color="#087CFA"/><stop offset="100%" stop-color="#07C3F2"/></linearGradient><path id="a" d="M30.2 28.5l23.899 21.8 9.9-26.199L34.1 17.299z"/><linearGradient id="d" x1="32.184%" x2="75.009%" y1="53.605%" y2="59.61%"><stop offset="0%" stop-color="#07C3F2"/><stop offset="100%" stop-color="#087CFA"/></linearGradient><path id="c" d="M18.8 56.2L48.9 64 64 51.5l-37.1-9.9z"/><linearGradient id="f" x1="100%" x2="27.667%" y1="9.294%" y2="45.399%"><stop offset="0%" stop-color="#087CFA"/><stop offset="100%" stop-color="#07C3F2"/></linearGradient><path id="e" d="M35.1 0L1.2 9.9l7.6 21.9 23.6-3.4z"/><linearGradient id="h" x1="51.771%" x2="96.867%" y1="4.137%" y2="78.6%"><stop offset="0%" stop-color="#087CFA"/><stop offset="53.711%" stop-color="#07C3F2"/><stop offset="100%" stop-color="#21D789"/></linearGradient><path id="g" d="M35.1 0L0 37.9V64l64-12.5L55.8 37l-9.5-16.2.2-.1z"/><linearGradient id="j" x1="50%" x2="50%" y1="-11.618%" y2="60.589%"><stop offset="0%" stop-color="#A6A5A5"/><stop offset="0%" stop-color="#989898" stop-opacity=".568"/><stop offset="100%"/></linearGradient><path id="i" d="M0 40h40V0H0z"/></defs><g fill="none" fill-rule="evenodd"><use fill="#087CFA" xlink:href="#a"/><use fill="url(#b)" xlink:href="#a"/><use fill="#087CFA" xlink:href="#c"/><use fill="url(#d)" xlink:href="#c"/><use fill="#07C3F2" xlink:href="#e"/><use fill="url(#f)" xlink:href="#e"/><use fill="#07C3F2" xlink:href="#g"/><use fill="url(#h)" xlink:href="#g"/><g transform="translate(12 12)"><use fill="#000" xlink:href="#i"/><use fill="url(#j)" xlink:href="#i"/><path fill="#FFF" d="M14.155 13.935L11.913 8.46 9.67 13.935h4.485zM10.25 4h3.424l7.234 17h-3.882l-1.544-3.786H8.344L6.801 21H3.015L10.25 4zm9.683 8.604v-.05c0-4.854 3.66-8.832 8.907-8.832 3.22 0 5.15 1.073 6.735 2.635l-2.392 2.758c-1.318-1.196-2.66-1.928-4.368-1.928-2.879 0-4.953 2.392-4.953 5.319v.049c0 2.929 2.025 5.369 4.953 5.369 1.952 0 3.148-.781 4.49-2.001l2.392 2.416c-1.758 1.879-3.71 3.05-7.004 3.05-5.027 0-8.76-3.88-8.76-8.785"/><path fill="#FFF" d="M4 35h15v-2.5H4z"/></g></g></svg>