<svg xmlns="http://www.w3.org/2000/svg" xmlns:xlink="http://www.w3.org/1999/xlink" width="16" height="16" viewBox="0 0 16 16"><rect id="frame" width="16" height="16" fill="none"/><defs><linearGradient id="b" x1="50%" x2="50%" y1="-11.618%" y2="60.589%"><stop offset="0%" stop-color="#A6A5A5"/><stop offset="0%" stop-color="#989898" stop-opacity=".568"/><stop offset="100%"/></linearGradient><path id="a" d="M1 15h14V1H1z"/></defs><g fill="none" fill-rule="evenodd"><path fill="#07C3F2" d="M0 16h16V0H0z"/><use fill="#000" xlink:href="#a"/><use fill="url(#b)" xlink:href="#a"/><path fill="#FFF" d="M3 13h6v-1H3z"/><path fill="#FFF" d="M6.526 6.507l-.791-1.932-.79 1.932h1.581zM5.149 3h1.207l2.549 6H7.537l-.544-1.335H4.478L3.934 9H2.6l2.549-6zM8.6 6.006v-.017c0-1.7 1.281-3.092 3.118-3.092 1.127 0 1.802.376 2.357.922l-.837.966c-.461-.42-.931-.675-1.529-.675-1.008 0-1.734.837-1.734 1.862v.017c0 1.025.709 1.879 1.734 1.879.683 0 1.102-.273 1.572-.7l.837.846c-.615.657-1.299 1.067-2.452 1.067C9.907 9.08 8.6 7.723 8.6 6.006"/></g></svg>