<svg width="16" height="16" viewBox="0 0 16 16" fill="none" xmlns="http://www.w3.org/2000/svg"><rect id="frame" width="16" height="16" fill="none"/><path fill-rule="evenodd" clip-rule="evenodd" d="M3 16h13v-6H3v6z" fill="#D99E2B"/><path fill-rule="evenodd" clip-rule="evenodd" d="M4 10.857h3v.686H4.8v1.029h1.7v.685H4.8v1.2h2.198v.686H4v-4.286z" fill="#000"/><path fill-rule="evenodd" clip-rule="evenodd" d="M14.2 12.322c0 .424-.187.75-.645.75H12.8v-1.537h.636c.547 0 .724.251.764.643v.144zm-2.203-1.465v4.286h.803V13.75h.595c.916.015 1.605-.626 1.605-1.357v-.177c0-.793-.63-1.359-1.453-1.359h-1.55z" fill="#000"/><path fill-rule="evenodd" clip-rule="evenodd" d="M8.8 13.429l.72-1.68.76 1.68H8.8zm1.08-2.572h-.72l-1.88 4.286h.76l.44-1.029h2.039l.44 1.029h.799L9.88 10.857z" fill="#000"/></svg>