<svg width="64" height="64" viewBox="0 0 64 64" fill="none" xmlns="http://www.w3.org/2000/svg"><rect id="frame" width="64" height="64" fill="none"/><path fill-rule="evenodd" clip-rule="evenodd" d="M28 64h36V44H28v20z" fill="#D99E2B"/><path fill-rule="evenodd" clip-rule="evenodd" d="M32 60h7.5v-1.899h-5.7V54.9h5V53h-5v-3.1h5.6V48H32v12z" fill="#000"/><path fill-rule="evenodd" clip-rule="evenodd" d="M44.8 55.3l1.8-4.8 1.9 4.8h-3.7zM41 60h1.9l1.1-2.899h5.1L50.199 60h2L47.5 48h-1.801L41 60z" fill="#000"/><path fill-rule="evenodd" clip-rule="evenodd" d="M54.814 54.2v-4.3h1.785c1.37 0 2 .7 2.101 1.8v.4c0 1.188-.655 2.1-1.8 2.1h-2.086zm0 5.8v-3.9H56.5c2.291.042 4.011-1.752 4.011-3.796v-.5c0-2.219-1.576-3.804-3.631-3.804H53v12h1.814z" fill="#000"/></svg>