<svg xmlns="http://www.w3.org/2000/svg" width="13" height="13" viewBox="0 0 13 13"><rect id="frame" width="13" height="13" fill="none"/><g fill="#6E6E6E" fill-rule="evenodd"><path d="M11.748 5.601L7.426 1.279h4.322z"/><path d="M4.399 0h2.45l1.872 1.872H4.399z"/><path d="M4.54 4.322L.216 0h5.197v4.322h-.875zm3.796 4.322l4.322 4.322H8.336V8.644z"/><path d="M5.414 8.644L1.093 4.322h4.321v4.322zm4.654-2.187L6.623 3.01h3.447l-.002 3.447zm.403 6.106l-3.92-3.919h3.92v3.92z"/><path d="M5.414 3.443L1.971 0h3.443z"/><path d="M6.569 8.644l4.322 4.322H6.569z"/><path d="M10.943 10.369L6.627 6.053h4.316z"/><path d="M6.623 3.01l4.269 4.269H6.623z"/><path d="M5.414 12.949L.2 7.734h5.214z"/></g></svg>