<svg xmlns="http://www.w3.org/2000/svg" width="16" height="16" viewBox="0 0 16 16"><rect id="frame" width="16" height="16" fill="none"/><g fill="none" fill-rule="evenodd"><path fill="#FFCA20" opacity=".7" d="M13.736 7.032L9.082 2.378h4.654z"/><path fill="#FFCA20" opacity=".7" d="M5.822 1H8.46l2.017 2.016H5.822z"/><path fill="#FFCF39" fill-rule="nonzero" d="M5.973 5.655L1.32 1h5.596v4.654h-.942zm4.089 4.654l4.654 4.654h-4.654v-4.654z" opacity=".9"/><path fill="#FFE490" fill-rule="nonzero" d="M6.915 10.31L2.26 5.653h4.654v4.655zm5.012-2.356L8.217 4.24h3.712l-.002 3.713zm.434 6.576l-4.22-4.22h4.22v4.22z" opacity=".7"/><path fill="#FCBC7C" opacity=".9" d="M6.915 4.708L3.207 1h3.708z"/><path fill="#F9A040" opacity=".8" d="M8.159 10.309l4.654 4.654H8.159z"/><path fill="#F9A040" opacity=".7" d="M12.87 12.167L8.221 7.519h4.649z"/><path fill="#FFCF39" opacity=".9" d="M8.217 4.241l4.598 4.598H8.217z"/><path fill="#FFC737" opacity=".7" d="M6.915 14.945L1.3 9.329h5.615z"/></g></svg>