<svg xmlns="http://www.w3.org/2000/svg" width="13" height="13" viewBox="0 0 13 13"><rect id="frame" width="13" height="13" fill="none"/><g fill="#AFB1B3" fill-rule="evenodd"><path d="M11.548 5.601L7.226 1.279h4.322z"/><path d="M4.199 0h2.45l1.872 1.872H4.199z"/><path d="M4.34 4.322L.016 0h5.197v4.322h-.875zm3.796 4.322l4.322 4.322H8.136V8.644z"/><path d="M5.214 8.644L.893 4.322h4.321v4.322zm4.654-2.187L6.423 3.01H9.87l-.002 3.447zm.403 6.106l-3.92-3.919h3.92v3.92z"/><path d="M5.214 3.443L1.771 0h3.443z"/><path d="M6.369 8.644l4.322 4.322H6.369z"/><path d="M10.743 10.369L6.427 6.053h4.316z"/><path d="M6.423 3.01l4.269 4.269H6.423z"/><path d="M5.214 12.949L0 7.734h5.214z"/></g></svg>