<svg xmlns="http://www.w3.org/2000/svg" width="13" height="13" viewBox="0 0 13 13">
  <g fill="#AFB1B3" fill-rule="evenodd">
    <polygon points="11.548 5.601 7.226 1.279 11.548 1.279"/>
    <polygon points="4.199 0 6.649 0 8.521 1.872 4.199 1.872"/>
    <path d="M4.33932806,4.32237154 L0.0174703557,0 L5.21387352,0 L5.21387352,4.32185771 L4.33932806,4.32237154 Z M8.13604743,8.64371542 L12.4579051,12.9655731 L8.13604743,12.9655731 L8.13604743,8.64371542 Z"/>
    <path d="M5.21387352,8.64422925 L0.892529644,4.32185771 L5.21438735,4.32185771 L5.21438735,8.64371542 L5.21387352,8.64422925 Z M9.86818182,6.45683794 L6.4229249,3.00952569 L9.86972332,3.00952569 L9.86818182,6.45683794 Z M10.2710277,12.5632411 L6.35150198,8.64422925 L10.2710277,8.64422925 L10.2710277,12.5632411 Z"/>
    <polygon points="5.214 3.443 1.771 0 5.214 0"/>
    <polygon points="6.369 8.644 10.691 12.966 6.369 12.966"/>
    <polygon points="10.743 10.369 6.427 6.053 10.743 6.053"/>
    <polygon points="6.423 3.01 10.692 7.279 6.423 7.279"/>
    <polygon points="5.214 12.949 0 7.734 5.214 7.734"/>
  </g>
</svg>
