<svg ti:v="1" width="16" height="16" viewBox="0 0 16 16" xmlns="http://www.w3.org/2000/svg" xmlns:ti="urn:schemas-jetbrains-com:tisvg"><rect id="frame" width="16" height="16" fill="none"/><linearGradient id="a" x1=".5" y1="0" x2=".5" y2="1"><stop offset="0" stop-color="#5D6C75"/><stop offset="1" stop-color="#304145"/></linearGradient><path d="M2 3v11h11V8H8V3H2z" fill="url(#a)"/><linearGradient id="b" x1=".5" y1=".017" x2=".5" y2="1.05"><stop offset="0" stop-color="#FFE0D0"/><stop offset="1" stop-color="#FFA657"/></linearGradient><path d="M3 9h4v4H3z" fill="url(#b)"/><linearGradient id="c" x1=".5" y1=".016" x2=".5" y2="1.05"><stop offset="0" stop-color="#D0FFE8"/><stop offset="1" stop-color="#45FFA5"/></linearGradient><path d="M3 4h4v4H3z" fill="url(#c)"/><linearGradient id="d" x1=".5" y1=".006" x2=".5" y2="1"><stop offset="0" stop-color="#F4FFE7"/><stop offset="1" stop-color="#D3D02A"/></linearGradient><path d="M8 9h4v4H8z" fill="url(#d)"/><linearGradient id="e" x1=".5" y1="0" x2=".5" y2="1"><stop offset="0" stop-color="#577689"/><stop offset="1" stop-color="#034652"/></linearGradient><path d="M9 1h6v6H9z" fill="url(#e)"/><linearGradient id="f" x1=".5" y1="0" x2=".5" y2="1"><stop offset="0" stop-color="#81E3FF"/><stop offset="1" stop-color="#0AF"/></linearGradient><path d="M10 2h4v4h-4z" fill="url(#f)"/></svg>