<svg ti:v="1" width="16" height="16" viewBox="0 0 16 16" xmlns="http://www.w3.org/2000/svg" xmlns:ti="urn:schemas-jetbrains-com:tisvg"><rect id="frame" width="16" height="16" fill="none"/><linearGradient id="a" x1=".5" y1="0" x2=".5" y2="1.008"><stop offset="0" stop-color="#576A80"/><stop offset="1" stop-color="#2D3742"/></linearGradient><path d="M2 1h12v11H2z" fill="url(#a)"/><linearGradient id="b" x1=".012" y1=".5" x2="1" y2=".5"><stop offset="0" stop-color="#FFF"/><stop offset="1" stop-color="#C2DAFF"/></linearGradient><path d="M3 2h10v9H3z" fill="url(#b)"/><linearGradient id="c" x1=".5" y1="0" x2=".5" y2="1.008"><stop offset="0" stop-color="#576A80"/><stop offset="1" stop-color="#2D3742"/></linearGradient><path d="M4 3h8v7H4z" fill="url(#c)"/><linearGradient id="d" x1=".5" y1=".015" x2=".5" y2="1.008"><stop offset="0" stop-color="#445C80"/><stop offset="1" stop-color="#1D2838"/></linearGradient><path d="M14.993 13.882C14.845 12.631 14.5 9.7 12.5 9.7a2.546 2.546 0 0 0-2 1.028 2.546 2.546 0 0 0-2-1.028c-2 0-2.345 2.93-2.493 4.181L6 13.939V15h9v-1.061zm0 0" fill="url(#d)"/><linearGradient id="e" x1=".5" y1=".022" x2=".5" y2="1"><stop offset="0" stop-color="#9BE8FF"/><stop offset="1" stop-color="#0088E8"/></linearGradient><path d="M12.5 10.7c-1.16 0-1.292 1.2-2 1.2s-.84-1.2-2-1.2c-.739 0-1.231 1.028-1.5 3.3h7c-.269-2.271-.761-3.3-1.5-3.3zm0 0" fill="url(#e)"/><linearGradient id="f" x1=".5" y1="0" x2=".5" y2="1"><stop offset="0" stop-color="#6E4623"/><stop offset="1" stop-color="#0F3A57"/></linearGradient><path d="M14 7.5a3.5 3.5 0 1 1-7 0 3.5 3.5 0 0 1 7 0z" fill="url(#f)"/><path d="M10.322 6.691a8 8 0 0 0 2.188-.664 2.489 2.489 0 0 0-4.435.89 17.47 17.47 0 0 0 2.247-.226zm0 0" fill="#AABFD4"/><linearGradient id="g" x1="1.008" y1=".495" x2="-.006" y2=".495"><stop offset="0" stop-color="#FFE9BE"/><stop offset="1" stop-color="#FBC559"/></linearGradient><path d="M12.636 6.219a8.421 8.421 0 0 1-2.163 1.054c-.795.267-1.608.48-2.432.636a2.5 2.5 0 1 0 4.595-1.69zm0 0" fill="url(#g)"/></svg>