<svg ti:v="1" width="16" height="16" viewBox="0 0 16 16" xmlns="http://www.w3.org/2000/svg" xmlns:ti="urn:schemas-jetbrains-com:tisvg"><rect id="frame" width="16" height="16" fill="none"/><g fill="#9AA7B0"><path d="M3 11h3.707a2.5 2.5 0 0 1 .84-1H4V3h8v1.352a3.5 3.5 0 0 1 1 .707V2H3zm0 0"/><path d="M12.5 10.7c-1.16 0-1.292 1.2-2 1.2s-.84-1.2-2-1.2c-.739 0-1.231 1.028-1.5 3.3h7c-.269-2.271-.761-3.3-1.5-3.3zm0 0"/><path d="M8 7.5a2.5 2.5 0 1 0 5.002 0A2.5 2.5 0 0 0 8 7.5zm4 0a1.5 1.5 0 0 1-3 0c.002-.076.01-.152.023-.227a13.465 13.465 0 0 0 2.649-.7c.212.263.327.59.328.927zm0 0"/></g></svg>