<svg ti:v="1" width="16" height="16" viewBox="0 0 16 16" xmlns="http://www.w3.org/2000/svg" xmlns:ti="urn:schemas-jetbrains-com:tisvg"><rect id="frame" width="16" height="16" fill="none"/><linearGradient id="a" x1=".5" y1=".012" x2=".5" y2="1"><stop offset="0" stop-color="#334861"/><stop offset="1" stop-color="#2D3742"/></linearGradient><path d="M1 1h14v14H1z" fill="url(#a)"/><linearGradient id="b" x1=".012" y1=".5" x2="1" y2=".5"><stop offset="0" stop-color="#FFF"/><stop offset="1" stop-color="#C2DAFF"/></linearGradient><path d="M14 5h-1v8H3V5H2v9h12V5z" fill="url(#b)"/><linearGradient id="c" x1="0" y1=".5" x2="1" y2=".5"><stop offset="0" stop-color="#87DBFF"/><stop offset="1" stop-color="#4F9EFF"/></linearGradient><path d="M2 2h12v2.5H2z" fill="url(#c)"/><linearGradient id="d" x1=".012" y1=".5" x2="1" y2=".5"><stop offset="0" stop-color="#C2DAFF"/><stop offset="1" stop-color="#FFF"/></linearGradient><path d="M3 5h10v8H3z" fill="url(#d)"/><linearGradient id="e" x1=".5" y1=".012" x2=".5" y2="1"><stop offset="0" stop-color="#334861"/><stop offset="1" stop-color="#2D3742"/></linearGradient><path d="M10 10.999h2V12h-2z" fill="url(#e)"/><linearGradient id="f" x1=".5" y1=".012" x2=".5" y2="1"><stop offset="0" stop-color="#334861"/><stop offset="1" stop-color="#2D3742"/></linearGradient><path d="M7 10.999h2V12H7z" fill="url(#f)"/></svg>