<svg width="13" height="13" viewBox="0 0 13 13" fill="none" xmlns="http://www.w3.org/2000/svg"><rect id="frame" width="13" height="13" fill="none"/><path fill-rule="evenodd" clip-rule="evenodd" d="M10.605 3c-.93-1.204-2.547-2-4.385-2C3.337 1 1 2.958 1 5.374c0 1.751 1.227 3.262 3 3.96V7.642c-.591-.522-.949-1.2-.949-1.94 0-1.652 1.777-2.99 3.968-2.99.739 0 1.413.103 1.981.321V3h1.605z" fill="#AFB1B3"/><path d="M5 11h1.94V8.88h.86L9.21 11h2.23L9.77 8.56c.87-.37 1.44-1.08 1.44-2.16v-.02c0-.69-.21-1.22-.62-1.63C10.12 4.28 9.38 4 8.31 4H5v7zm1.94-3.64V5.67h1.28c.64 0 1.05.28 1.05.84v.02c0 .51-.39.83-1.04.83H6.94z" fill="#AFB1B3"/></svg>