<svg xmlns="http://www.w3.org/2000/svg" width="16" height="16" viewBox="0 0 16 16"><rect id="frame" width="16" height="16" fill="none"/><g fill="none" fill-rule="evenodd"><path fill="#40B6E0" fill-opacity=".7" d="M2.395 3.42l5.452 5.508a5.142 5.142 0 0 0-1.013 3.073c0 1.057.318 2.04.863 2.86-1.442-.32-2.86-1.157-4.085-2.395C.965 9.79.17 6.212 2.395 3.419zm10 .172c1.193 1.205 2.01 2.593 2.343 4.01a5.159 5.159 0 0 0-2.724-.772 5.164 5.164 0 0 0-3.119 1.042L3.441 2.361C6.204.113 9.747.915 12.395 3.591z"/><path fill="#9AA7B0" d="M12 8c-2.208 0-4 1.792-4 4s1.792 4 4 4 4-1.792 4-4-1.792-4-4-4zm-.4 7.172A3.195 3.195 0 0 1 8.8 12c0-.248.032-.484.084-.716L10.8 13.2v.4c0 .44.36.8.8.8v.772zm2.76-1.016a.794.794 0 0 0-.76-.556h-.4v-1.2c0-.22-.18-.4-.4-.4h-2.4v-.8h.8c.22 0 .4-.18.4-.4V10h.8c.44 0 .8-.36.8-.8v-.164c1.172.476 2 1.624 2 2.964 0 .832-.32 1.588-.84 2.156z"/></g></svg>