<svg width="80" height="80" viewBox="0 0 80 80" fill="none" xmlns="http://www.w3.org/2000/svg">
<g clip-path="url(#clip0)">
<path d="M15.3163 80L35.1319 39.9755L79.9996 41.3769L64.6585 80H15.3163Z" fill="url(#paint0_linear)"/>
<path d="M24.8555 0L0 6.39211V37.5905L62.5936 45.8757L79.9998 41.3766L24.8555 0Z" fill="url(#paint1_linear)"/>
<path d="M46.0235 16.5212L33.9522 29.3054L34.4193 39.4836L62.5938 45.8758L80 41.3767L46.0235 16.5212Z" fill="#087CFA"/>
<path d="M60.9218 18.5126L52.2925 0.467163L0 34.5175V48.9735L17.5292 57.2833L38.3773 52.6121L61.1677 47.0805L79.7294 20.6515L60.9218 18.5126Z" fill="url(#paint2_linear)"/>
<path d="M65 15H15V65H65V15Z" fill="url(#paint3_linear)"/>
<path d="M39.9 55.5H21.2V58.6H39.9V55.5Z" fill="white"/>
<path d="M39.7 21.62H46.8925C52.627 21.62 56.6121 25.605 56.6121 30.7564V30.8536C56.6121 36.005 52.627 39.99 46.8925 39.99H39.7V21.62ZM43.685 25.2162V36.2966H46.7953C50.1 36.2966 52.3355 34.0611 52.3355 30.8536V30.7564C52.3355 27.5489 50.1 25.2162 46.7953 25.2162H43.685Z" fill="white"/>
<path d="M26.7951 25.342H21.2V21.62H36.4243V25.342H30.8293V39.99H26.7951V25.342Z" fill="white"/>
</g>
<defs>
<linearGradient id="paint0_linear" x1="71.9953" y1="27.4866" x2="39.796" y2="74.8385" gradientUnits="userSpaceOnUse">
<stop offset="0" stop-color="#B74AF7"/>
<stop offset="1" stop-color="#087CFA"/>
</linearGradient>
<linearGradient id="paint1_linear" x1="36.5594" y1="36.4816" x2="5.07045" y2="9.01751" gradientUnits="userSpaceOnUse">
<stop offset="0.5643" stop-color="#B74AF7"/>
<stop offset="0.6144" stop-color="#B04CF7"/>
<stop offset="0.6852" stop-color="#9E51F7"/>
<stop offset="0.7683" stop-color="#805AF8"/>
<stop offset="0.8608" stop-color="#5566F9"/>
<stop offset="0.9598" stop-color="#2075FA"/>
<stop offset="1" stop-color="#087CFA"/>
</linearGradient>
<linearGradient id="paint2_linear" x1="10.7438" y1="54.1476" x2="49.0989" y2="28.3408" gradientUnits="userSpaceOnUse">
<stop offset="0" stop-color="#B74AF7"/>
<stop offset="0.122" stop-color="#BA49F0"/>
<stop offset="0.2943" stop-color="#C245DE"/>
<stop offset="0.4967" stop-color="#D03EC0"/>
<stop offset="0.7217" stop-color="#E23595"/>
<stop offset="0.9629" stop-color="#FA2A60"/>
<stop offset="1" stop-color="#FE2857"/>
</linearGradient>
<linearGradient id="paint3_linear" x1="39.9989" y1="2.84554" x2="39.9989" y2="47.6855" gradientUnits="userSpaceOnUse">
<stop offset="0.0842986" stop-color="#878585"/>
<stop offset="0.5377"/>
</linearGradient>
<clipPath id="clip0">
<path d="M0 0H80V80H0V0Z" fill="white"/>
</clipPath>
</defs>
</svg>
