<svg ti:v="1" width="16" height="16" viewBox="0 0 16 16" xmlns="http://www.w3.org/2000/svg" xmlns:ti="urn:schemas-jetbrains-com:tisvg"><rect id="frame" width="16" height="16" fill="none"/><linearGradient id="a" x1=".5" y1="1" x2=".5" y2="0"><stop offset="0" stop-color="#007034"/><stop offset="1" stop-color="#38AC0E"/></linearGradient><path d="M8 1a7.002 7.002 0 0 0-7 7c.003.494.057.987.16 1.47v3.59l2.12 2.12L4.44 14a7.002 7.002 0 0 0 9.236-1.841 7.002 7.002 0 0 0-.956-9.37A7.002 7.002 0 0 0 8 1zm0 11a3.65 3.65 0 0 1-1.3-.24l.82-.82L5.4 8.82H4.08A4.47 4.47 0 0 1 4 8a4.001 4.001 0 0 1 6.828-2.828A4.001 4.001 0 0 1 8 12zm0 0" fill="url(#a)"/><linearGradient id="b" x1="0" y1=".5" x2="1.004" y2=".5"><stop offset="0" stop-color="#E0FFD5"/><stop offset="1" stop-color="#63F1A4"/></linearGradient><path d="M3 8a5 5 0 0 1 9.17-2.76l.83-.49A6 6 0 0 0 2 8v.66h1V8zm0 0" fill="url(#b)"/><linearGradient id="c" x1=".5" y1="0" x2=".5" y2="1"><stop offset="0" stop-color="#E0FFD5"/><stop offset="1" stop-color="#63F1A4"/></linearGradient><path d="M13 8a5.002 5.002 0 0 1-5 5 4.92 4.92 0 0 1-3-1l1.07-1.07-.71-.71L2.29 10l.28 3.11.71.71 1.05-1A5.921 5.921 0 0 0 8 14a6.002 6.002 0 0 0 6-6zm0 0" fill="url(#c)"/><linearGradient id="d" x1=".5" y1="0" x2=".5" y2="1"><stop offset="0" stop-color="#7C889D"/><stop offset="1" stop-color="#445670"/></linearGradient><path d="M16 4.5a4.5 4.5 0 1 1-9 0 4.5 4.5 0 0 1 9 0z" fill="url(#d)"/><linearGradient id="e" x1=".5" y1="0" x2=".5" y2="1"><stop offset="0" stop-color="#FFF"/><stop offset="1" stop-color="#DAE9FF"/></linearGradient><path d="M15 4.5a3.5 3.5 0 1 1-7 0 3.5 3.5 0 0 1 7 0z" fill="url(#e)"/><path d="M12 5.5h-1V5a1 1 0 0 1 1-1V3a1.3 1.3 0 0 0-1 0v1h-1V3c0-.58.63-1 1.5-1s1.5.42 1.5 1v1a1 1 0 0 1-1 1zm0 .5h-1v1h1zm0 0" fill="#435570"/></svg>