<svg ti:v="1" width="16" height="16" viewBox="0 0 16 16" xmlns="http://www.w3.org/2000/svg" xmlns:ti="urn:schemas-jetbrains-com:tisvg"><rect id="frame" width="16" height="16" fill="none"/><path d="M8 1a7.002 7.002 0 0 0-7 7 7.002 7.002 0 0 0 7 7 7.002 7.002 0 0 0 7-7 7 7 0 0 0-7-7zm0 11a4.001 4.001 0 0 1-2.828-6.828A4.001 4.001 0 0 1 12 8a4 4 0 0 1-4 4zm0 0" fill="#252525"/><path d="M1.16 8.82v4.24l2.12 2.12 4.24-4.24L5.4 8.82H1.16z" fill="#252525"/><path d="M3 8a5 5 0 0 1 9.17-2.76l.83-.49A6 6 0 0 0 2 8v.66h1V8zm0 0" fill="#C4C4C4"/><path d="M13 8a5.002 5.002 0 0 1-5 5 4.92 4.92 0 0 1-3-1l1.07-1.07-.71-.71L2.29 10l.28 3.11.71.71 1.05-1A5.921 5.921 0 0 0 8 14a6.002 6.002 0 0 0 6-6zm0 0" fill="#C4C4C4"/><path d="M11.52 0a4.502 4.502 0 0 0-3.216 7.668A4.502 4.502 0 1 0 13.769.61 4.49 4.49 0 0 0 11.52 0zm0 0" fill="#252525"/><path d="M11.51 1.13a3.371 3.371 0 0 0-.02 6.74 3.371 3.371 0 0 0 .02-6.74zm0 0" fill="#8DCF8D"/><path d="M9.25 4.49a2.25 2.25 0 0 0 2.24 2.26v-4.5a2.26 2.26 0 0 0-2.24 2.24zm0 0" fill="#8DCF8D"/><path d="M13.75 4.51a2.25 2.25 0 0 0-2.24-2.26v4.5a2.26 2.26 0 0 0 2.24-2.24zm0 0" fill="#292929"/></svg>