<svg ti:v="1" width="16" height="16" viewBox="0 0 16 16" xmlns="http://www.w3.org/2000/svg" xmlns:ti="urn:schemas-jetbrains-com:tisvg"><rect id="frame" width="16" height="16" fill="none"/><linearGradient id="a" x1=".5" y1="1" x2=".5" y2="0"><stop offset="0" stop-color="#007034"/><stop offset="1" stop-color="#38AC0E"/></linearGradient><path d="M8 1a7.002 7.002 0 0 0-7 7c.003.494.057.987.16 1.47v3.59l2.12 2.12L4.44 14a7.002 7.002 0 0 0 9.236-1.841 7.002 7.002 0 0 0-.956-9.37A7.002 7.002 0 0 0 8 1zm0 11a3.65 3.65 0 0 1-1.3-.24l.82-.82L5.4 8.82H4.08A4.47 4.47 0 0 1 4 8a4.001 4.001 0 0 1 6.828-2.828A4.001 4.001 0 0 1 8 12zm0 0" fill="url(#a)"/><linearGradient id="b" x1="0" y1=".5" x2="1.004" y2=".5"><stop offset="0" stop-color="#E0FFD5"/><stop offset="1" stop-color="#63F1A4"/></linearGradient><path d="M3 8a5 5 0 0 1 9.17-2.76l.83-.49A6 6 0 0 0 2 8v.66h1V8zm0 0" fill="url(#b)"/><linearGradient id="c" x1=".5" y1="0" x2=".5" y2="1"><stop offset="0" stop-color="#E0FFD5"/><stop offset="1" stop-color="#63F1A4"/></linearGradient><path d="M13 8a5.002 5.002 0 0 1-5 5 4.92 4.92 0 0 1-3-1l1.07-1.07-.71-.71L2.29 10l.28 3.11.71.71 1.05-1A5.921 5.921 0 0 0 8 14a6.002 6.002 0 0 0 6-6zm0 0" fill="url(#c)"/><linearGradient id="d" x1=".502" y1=".002" x2=".502" y2=".998"><stop offset="0" stop-color="#2FA323"/><stop offset="1" stop-color="#0A6600"/></linearGradient><path d="M7 4.5A4.49 4.49 0 0 0 11.48 9V0A4.492 4.492 0 0 0 7 4.48zm0 0" fill="url(#d)"/><linearGradient id="e" x1=".498" y1="-.002" x2=".498" y2=".998"><stop offset="0" stop-color="#9C6500"/><stop offset="1" stop-color="#634700"/></linearGradient><path d="M16 4.5A4.49 4.49 0 0 0 11.52 0v9A4.492 4.492 0 0 0 16 4.52zm0 0" fill="url(#e)"/><linearGradient id="f" x1=".501" y1=".024" x2=".501" y2="1"><stop offset="0" stop-color="#E0FFE0"/><stop offset="1" stop-color="#12B812"/></linearGradient><path d="M8.13 4.5a3.391 3.391 0 0 0 3.37 3.38V1.13A3.371 3.371 0 0 0 8.13 4.5zm0 0" fill="url(#f)"/><linearGradient id="g" x1=".5" y1=".024" x2=".5" y2="1"><stop offset="0" stop-color="#FFF3D9"/><stop offset="1" stop-color="#A36222"/></linearGradient><path d="M14.88 4.5a3.391 3.391 0 0 0-3.38-3.37v6.75a3.401 3.401 0 0 0 3.38-3.38zm0 0" fill="url(#g)"/><linearGradient id="h" x1=".498" y1="0" x2=".498" y2="1.016"><stop offset="0" stop-color="#4AFF36"/><stop offset="1" stop-color="#36BA27"/></linearGradient><path d="M9.25 4.5a2.25 2.25 0 0 0 2.25 2.25v-4.5A2.25 2.25 0 0 0 9.25 4.5zm0 0" fill="url(#h)"/><linearGradient id="i" x1=".498" y1=".031" x2=".498" y2="1.031"><stop offset="0" stop-color="#FFB700"/><stop offset="1" stop-color="#A86500"/></linearGradient><path d="M13.75 4.5a2.25 2.25 0 0 0-2.25-2.25v4.5a2.25 2.25 0 0 0 2.25-2.25zm0 0" fill="url(#i)"/></svg>