<svg ti:v="1" width="16" height="16" viewBox="0 0 16 16" xmlns="http://www.w3.org/2000/svg" xmlns:ti="urn:schemas-jetbrains-com:tisvg"><rect id="frame" width="16" height="16" fill="none"/><path d="M8 1a7.002 7.002 0 0 0-7 7 7.002 7.002 0 0 0 7 7 7.002 7.002 0 0 0 7-7 7 7 0 0 0-7-7zm0 11a4.001 4.001 0 0 1-2.828-6.828A4.001 4.001 0 0 1 12 8a4 4 0 0 1-4 4zm0 0" fill="#F4F4F4"/><path d="M1.16 8.82v4.24l2.12 2.12 4.24-4.24L5.4 8.82H1.16z" fill="#F4F4F4"/><path d="M2.29 9.96l.28 3.1.71.71 2.83-2.83-.71-.71-3.11-.27z" fill="#323232"/><path d="M3.07 8.66A4.93 4.93 0 0 1 3 8a5 5 0 0 1 9.17-2.76l.83-.49A6 6 0 0 0 2 8v.66zm0 0" fill="#323232"/><path d="M13 8a5 5 0 0 1-9.3 2.52H2.56A6.001 6.001 0 0 0 14 8zm0 0" fill="#323232"/><path d="M11.52 0a4.502 4.502 0 0 0-3.216 7.668A4.502 4.502 0 1 0 13.769.61 4.49 4.49 0 0 0 11.52 0zm0 0" fill="#F4F4F4"/><path d="M11.51 1.13a3.371 3.371 0 0 0-.02 6.74 3.371 3.371 0 0 0 .02-6.74zm0 0" fill="#388A34"/><path d="M9.25 4.49a2.25 2.25 0 0 0 2.24 2.26v-4.5a2.26 2.26 0 0 0-2.24 2.24zm0 0" fill="#388A34"/><path d="M13.75 4.51a2.25 2.25 0 0 0-2.24-2.26v4.5a2.26 2.26 0 0 0 2.24-2.24zm0 0" fill="#EBEBEB"/></svg>