<svg ti:v="1" width="16" height="16" viewBox="0 0 16 16" xmlns="http://www.w3.org/2000/svg" xmlns:ti="urn:schemas-jetbrains-com:tisvg"><rect id="frame" width="16" height="16" fill="none"/><linearGradient id="a" x1=".5" y1="1" x2=".5" y2="0"><stop offset="0" stop-color="#007034"/><stop offset="1" stop-color="#38AC0E"/></linearGradient><path d="M8 1a7.002 7.002 0 0 0-7 7c.003.494.057.987.16 1.47v3.59l2.12 2.12L4.44 14a7.002 7.002 0 0 0 9.236-1.841 7.002 7.002 0 0 0-.956-9.37A7.002 7.002 0 0 0 8 1zm0 11a3.65 3.65 0 0 1-1.3-.24l.82-.82L5.4 8.82H4.08A4.47 4.47 0 0 1 4 8a4.001 4.001 0 0 1 6.828-2.828A4.001 4.001 0 0 1 8 12zm0 0" fill="url(#a)"/><linearGradient id="b" x1="0" y1=".5" x2="1.004" y2=".5"><stop offset="0" stop-color="#E0FFD5"/><stop offset="1" stop-color="#63F1A4"/></linearGradient><path d="M3 8a5 5 0 0 1 9.17-2.76l.83-.49A6 6 0 0 0 2 8v.66h1V8zm0 0" fill="url(#b)"/><linearGradient id="c" x1=".5" y1="0" x2=".5" y2="1"><stop offset="0" stop-color="#E0FFD5"/><stop offset="1" stop-color="#63F1A4"/></linearGradient><path d="M13 8a5.002 5.002 0 0 1-5 5 4.92 4.92 0 0 1-3-1l1.07-1.07-.71-.71L2.29 10l.28 3.11.71.71 1.05-1A5.921 5.921 0 0 0 8 14a6.002 6.002 0 0 0 6-6zm0 0" fill="url(#c)"/><linearGradient id="d" x1=".5" y1="0" x2=".5" y2="1"><stop offset="0" stop-color="#2FA323"/><stop offset="1" stop-color="#0A6600"/></linearGradient><path d="M11 0a14.8 14.8 0 0 0-5 1c0 6.54 2.59 8.3 5 10zm0 0" fill="url(#d)"/><linearGradient id="e" x1=".5" y1="0" x2=".5" y2="1"><stop offset="0" stop-color="#9C6500"/><stop offset="1" stop-color="#634700"/></linearGradient><path d="M11 0v11c2.41-1.7 5-3.46 5-10a14.8 14.8 0 0 0-5-1zm0 0" fill="url(#e)"/><linearGradient id="f" x1=".5" y1="-.002" x2=".5" y2=".998"><stop offset="0" stop-color="#E0FFE0"/><stop offset="1" stop-color="#12B812"/></linearGradient><path d="M11 1a14.35 14.35 0 0 0-4 .7c.14 5 2 6.64 4 8.1zm0 0" fill="url(#f)"/><linearGradient id="g" x1=".5" y1="0" x2=".5" y2="1"><stop offset="0" stop-color="#4AFF36"/><stop offset="1" stop-color="#36BA27"/></linearGradient><path d="M11 2.29a11.32 11.32 0 0 0-2.5.33C8.78 5.61 9.76 7 11 8.08zm0 0" fill="url(#g)"/><linearGradient id="h" x1=".5" y1="-.002" x2=".5" y2=".998"><stop offset="0" stop-color="#FFF3D9"/><stop offset="1" stop-color="#A36222"/></linearGradient><path d="M11 1v8.8c2-1.45 3.85-3.1 4-8.1a13.78 13.78 0 0 0-4-.7zm0 0" fill="url(#h)"/><linearGradient id="i" x1=".5" y1="0" x2=".5" y2="1"><stop offset="0" stop-color="#FFB700"/><stop offset="1" stop-color="#A86500"/></linearGradient><path d="M11 2.29a11.32 11.32 0 0 1 2.5.33c-.28 3-1.26 4.39-2.5 5.46zm0 0" fill="url(#i)"/></svg>