<svg ti:v="1" width="16" height="16" viewBox="0 0 16 16" xmlns="http://www.w3.org/2000/svg" xmlns:ti="urn:schemas-jetbrains-com:tisvg"><rect id="frame" width="16" height="16" fill="none"/><path d="M8 1a7.002 7.002 0 0 0-7 7 7.002 7.002 0 0 0 7 7 7.002 7.002 0 0 0 7-7 7 7 0 0 0-7-7zm0 11a4.001 4.001 0 0 1-2.828-6.828A4.001 4.001 0 0 1 12 8a4 4 0 0 1-4 4zm0 0" fill="#252525"/><path d="M1.16 8.82v4.24l2.12 2.12 4.24-4.24L5.4 8.82H1.16z" fill="#252525"/><path d="M3 8a5 5 0 0 1 9.17-2.76l.83-.49A6 6 0 0 0 2 8v.66h1V8zm0 0" fill="#C4C4C4"/><path d="M13 8a5.002 5.002 0 0 1-5 5 4.92 4.92 0 0 1-3-1l1.07-1.07-.71-.71L2.29 10l.28 3.11.71.71 1.05-1A5.921 5.921 0 0 0 8 14a6.002 6.002 0 0 0 6-6zm0 0" fill="#C4C4C4"/><path d="M16 4.5a4.5 4.5 0 1 1-9 0 4.5 4.5 0 0 1 9 0z" fill="#252525"/><path d="M15 4.5a3.5 3.5 0 1 1-7 0 3.5 3.5 0 0 1 7 0z" fill="#7CBEFF"/><path d="M12 5.5h-1V5a1 1 0 0 1 1-1V3a1.3 1.3 0 0 0-1 0v1h-1V3c0-.58.63-1 1.5-1s1.5.42 1.5 1v1a1 1 0 0 1-1 1zm0 .5h-1v1h1zm0 0" fill="#292929"/></svg>