<svg ti:v="1" width="16" height="16" viewBox="0 0 16 16" xmlns="http://www.w3.org/2000/svg" xmlns:ti="urn:schemas-jetbrains-com:tisvg"><rect id="frame" width="16" height="16" fill="none"/><path d="M8 1a7.002 7.002 0 0 0-7 7 7.002 7.002 0 0 0 7 7 7.002 7.002 0 0 0 7-7 7 7 0 0 0-7-7zm0 11a4.001 4.001 0 0 1-2.828-6.828A4.001 4.001 0 0 1 12 8a4 4 0 0 1-4 4zm0 0" fill="#F4F4F4"/><path d="M1.16 8.82v4.24l2.12 2.12 4.24-4.24L5.4 8.82H1.16z" fill="#F4F4F4"/><path d="M2.29 9.96l.28 3.1.71.71 2.83-2.83-.71-.71-3.11-.27z" fill="#323232"/><path d="M3.07 8.66A4.93 4.93 0 0 1 3 8a5 5 0 0 1 9.17-2.76l.83-.49A6 6 0 0 0 2 8v.66zm0 0" fill="#323232"/><path d="M13 8a5 5 0 0 1-9.3 2.52H2.56A6.001 6.001 0 0 0 14 8zm0 0" fill="#323232"/><path d="M16 4.5a4.5 4.5 0 1 1-9 0 4.5 4.5 0 0 1 9 0z" fill="#F4F4F4"/><path d="M15 4.5a3.5 3.5 0 1 1-7 0 3.5 3.5 0 0 1 7 0z" fill="#00539C"/><path d="M12 5.5h-1V5a1 1 0 0 1 1-1V3a1.3 1.3 0 0 0-1 0v1h-1V3c0-.58.63-1 1.5-1s1.5.42 1.5 1v1a1 1 0 0 1-1 1zm0 .5h-1v1h1zm0 0" fill="#EBEBEB"/></svg>