<svg ti:v="1" width="16" height="16" viewBox="0 0 16 16" xmlns="http://www.w3.org/2000/svg" xmlns:ti="urn:schemas-jetbrains-com:tisvg"><rect id="frame" width="16" height="16" fill="none"/><path d="M8 1a7.002 7.002 0 0 0-7 7 7.002 7.002 0 0 0 7 7 7.002 7.002 0 0 0 7-7 7 7 0 0 0-7-7zm0 11a4.001 4.001 0 0 1-2.828-6.828A4.001 4.001 0 0 1 12 8a4 4 0 0 1-4 4zm0 0" fill="#F4F4F4"/><path d="M1.16 8.82v4.24l2.12 2.12 4.24-4.24L5.4 8.82H1.16z" fill="#F4F4F4"/><path d="M2.29 9.96l.28 3.1.71.71 2.83-2.83-.71-.71-3.11-.27z" fill="#323232"/><path d="M3.07 8.66A4.93 4.93 0 0 1 3 8a5 5 0 0 1 9.17-2.76l.83-.49A6 6 0 0 0 2 8v.66zm0 0" fill="#323232"/><path d="M13 8a5 5 0 0 1-9.3 2.52H2.56A6.001 6.001 0 0 0 14 8zm0 0" fill="#323232"/><path d="M7 1.68c.14 5 2 6.65 4 8.1 2-1.45 3.85-3.1 4-8.1A13.78 13.78 0 0 0 11 1a13.67 13.67 0 0 0-4 .68zm0 0" fill="#323232"/><path d="M11 0a14.8 14.8 0 0 0-5 1c0 6.54 2.59 8.3 5 10 2.41-1.7 5-3.46 5-10a14.8 14.8 0 0 0-5-1zm0 9.79C9 8.33 7.16 6.68 7 1.68A13.72 13.72 0 0 1 11 1c1.36.034 2.709.27 4 .7-.16 4.98-2 6.63-4 8.09zm0 0" fill="#F4F4F4"/><path d="M11 2.29a11.32 11.32 0 0 0-2.5.33C8.78 5.61 9.76 7 11 8.08zm0 0" fill="#F4F4F4"/></svg>