<svg ti:v="1" width="16" height="16" viewBox="0 0 16 16" xmlns="http://www.w3.org/2000/svg" xmlns:ti="urn:schemas-jetbrains-com:tisvg"><rect id="frame" width="16" height="16" fill="none"/><path d="M4.63 1.07L4 1.33V2c0 7 2.84 9 5.42 10.82l.34.18H10V0a15.89 15.89 0 0 0-5.37 1.07zm0 0" fill="#F4F4F4"/><path d="M10.65 12.77C13.16 11 16 9 16 2v-.67l-.62-.26A16 16 0 0 0 10 0v13h.32zm0 0" fill="#F4F4F4"/><path d="M10 12C7.59 10.3 5 8.54 5 2a14.8 14.8 0 0 1 5-1zm0 0" fill="#323232"/><path d="M10 12c2.41-1.7 5-3.46 5-10a14.8 14.8 0 0 0-5-1zm0 0" fill="#323232"/><path d="M6 2.7c.15 5 2 6.62 4 8.07V2a13.78 13.78 0 0 0-4 .7zm0 0" fill="#323232"/><path d="M14 2.7a13.78 13.78 0 0 0-4-.7v8.77c2.06-1.48 3.85-3.14 4-8.07zm0 0" fill="#EBEBEB"/><path fill-rule="evenodd" d="M4 6v10h1.35L11 11.48v-.96L5.35 6H4z" fill="#F4F4F4"/><path fill-rule="evenodd" d="M5 7v8l5-4-5-4z" fill="#388A34"/><path fill-rule="evenodd" d="M0 6v10h1.35L7 11.48v-.96L1.35 6H0z" fill="#F4F4F4"/><path fill-rule="evenodd" d="M1 7v8l5-4-5-4z" fill="#388A34"/></svg>