<svg ti:v="1" width="16" height="16" viewBox="0 0 16 16" xmlns="http://www.w3.org/2000/svg" xmlns:ti="urn:schemas-jetbrains-com:tisvg"><rect id="frame" width="16" height="16" fill="none"/><linearGradient id="a" x1=".5" y1=".002" x2=".5" y2=".998"><stop offset="0" stop-color="#2FA323"/><stop offset="1" stop-color="#0A6600"/></linearGradient><path d="M2.63 3.07L2 3.33V4c0 7 2.84 9 5.42 10.82l.34.18H8V2a15.89 15.89 0 0 0-5.37 1.07zm0 0" fill="url(#a)"/><linearGradient id="b" x1=".5" y1="-.002" x2=".5" y2=".998"><stop offset="0" stop-color="#9C6500"/><stop offset="1" stop-color="#634700"/></linearGradient><path d="M8.65 14.77C11.16 13 14 11 14 4v-.67l-.62-.26A16 16 0 0 0 8 2v13h.32zm0 0" fill="url(#b)"/><linearGradient id="c" x1=".5" y1=".025" x2=".5" y2="1"><stop offset="0" stop-color="#E0FFE0"/><stop offset="1" stop-color="#12B812"/></linearGradient><path d="M8 14c-2.41-1.7-5-3.46-5-10a14.8 14.8 0 0 1 5-1zm0 0" fill="url(#c)"/><linearGradient id="d" x1=".5" y1=".025" x2=".5" y2="1"><stop offset="0" stop-color="#FFF3D9"/><stop offset="1" stop-color="#A36222"/></linearGradient><path d="M8 14c2.41-1.7 5-3.46 5-10a14.8 14.8 0 0 0-5-1zm0 0" fill="url(#d)"/><linearGradient id="e" x1=".5" y1="0" x2=".5" y2="1.016"><stop offset="0" stop-color="#4AFF36"/><stop offset="1" stop-color="#36BA27"/></linearGradient><path d="M4 4.7c.15 5 2 6.62 4 8.07V4a13.78 13.78 0 0 0-4 .7zm0 0" fill="url(#e)"/><linearGradient id="f" x1=".5" y1=".031" x2=".5" y2="1.032"><stop offset="0" stop-color="#FFB700"/><stop offset="1" stop-color="#A86500"/></linearGradient><path d="M12 4.7A13.78 13.78 0 0 0 8 4v8.77c2.06-1.48 3.85-3.14 4-8.07zm0 0" fill="url(#f)"/></svg>