<svg ti:v="1" width="16" height="16" viewBox="0 0 16 16" xmlns="http://www.w3.org/2000/svg" xmlns:ti="urn:schemas-jetbrains-com:tisvg"><rect id="frame" width="16" height="16" fill="none"/><path fill-rule="evenodd" d="M15 5h-2.87a7.43 7.43 0 0 0-.7-1.13L13.92 2l-1.5-2h-.84L8.79 2.09A4.16 4.16 0 0 0 8 2a4.16 4.16 0 0 0-.79.09L4.42 0h-.84l-1.5 2 2.49 1.87A7.43 7.43 0 0 0 3.87 5H1v9h3.47A4.4 4.4 0 0 0 8 16a4.4 4.4 0 0 0 3.53-2H15zm0 0" fill="#F4F4F4" opacity=".749"/><path d="M4.46 13H2v-1.5h1.85a7.14 7.14 0 0 0 .61 1.5zm-1-4v-.25H2v1.5h1.59A8.45 8.45 0 0 1 3.5 9zM4 6H2v1.5h1.63A7.84 7.84 0 0 1 4 6zm7.53 7H14v-1.5h-1.85a7.14 7.14 0 0 1-.61 1.5zM12 6c.176.486.303.989.38 1.5H14V6zm.51 3a8.45 8.45 0 0 1-.09 1.25H14v-1.5h-1.51c0 .08.01.17.01.25zM5.68 3.44L3.48 1.8l.6-.8 2.47 1.85a3.82 3.82 0 0 0-.87.59zm4.64 0l2.2-1.64-.6-.8-2.47 1.85c.316.156.609.354.87.59zm0 0" fill="#323232"/><path d="M12 9c0 3.314-1.79 6-4 6s-4-2.686-4-6 1.79-6 4-6 4 2.686 4 6z" fill="#323232"/><path fill-rule="evenodd" d="M5.57 8a8.12 8.12 0 0 0-.07 1c0 2.48 1.12 4.5 2.5 4.5s2.5-2 2.5-4.5a8.12 8.12 0 0 0-.07-1zm0 0" fill="#EBEBEB"/><path fill-rule="evenodd" d="M10.43 8C10.18 6 9.19 4.5 8 4.5 6.81 4.5 5.82 6 5.57 8zm0 0" fill="#323232"/><path d="M16 12a4 4 0 1 1-8 0 4 4 0 0 1 8 0z" fill="#F4F4F4"/><path d="M15 12a3 3 0 1 1-6 0 3 3 0 0 1 6 0z" fill="#E51400"/></svg>