<svg ti:v="1" width="16" height="16" viewBox="0 0 16 16" xmlns="http://www.w3.org/2000/svg" xmlns:ti="urn:schemas-jetbrains-com:tisvg"><rect id="frame" width="16" height="16" fill="none"/><linearGradient id="a" x1=".5" y1=".002" x2=".5" y2=".998"><stop offset="0" stop-color="#2FA323"/><stop offset="1" stop-color="#0A6600"/></linearGradient><path d="M1.63 2.07L1 2.33V3c0 7 2.84 9 5.42 10.82l.34.18H7V1a15.89 15.89 0 0 0-5.37 1.07zm0 0" fill="url(#a)"/><linearGradient id="b" x1=".5" y1="-.002" x2=".5" y2=".998"><stop offset="0" stop-color="#9C6500"/><stop offset="1" stop-color="#634700"/></linearGradient><path d="M7.65 13.77C10.16 12 13 10 13 3v-.67l-.62-.26A16 16 0 0 0 7 1v13h.32zm0 0" fill="url(#b)"/><linearGradient id="c" x1=".5" y1=".025" x2=".5" y2="1"><stop offset="0" stop-color="#E0FFE0"/><stop offset="1" stop-color="#12B812"/></linearGradient><path d="M7 13C4.59 11.3 2 9.54 2 3a14.8 14.8 0 0 1 5-1zm0 0" fill="url(#c)"/><linearGradient id="d" x1=".5" y1=".025" x2=".5" y2="1"><stop offset="0" stop-color="#FFF3D9"/><stop offset="1" stop-color="#A36222"/></linearGradient><path d="M7 13c2.41-1.7 5-3.46 5-10a14.8 14.8 0 0 0-5-1zm0 0" fill="url(#d)"/><linearGradient id="e" x1=".5" y1="0" x2=".5" y2="1.016"><stop offset="0" stop-color="#4AFF36"/><stop offset="1" stop-color="#36BA27"/></linearGradient><path d="M3 3.7c.15 5 2 6.62 4 8.07V3a13.78 13.78 0 0 0-4 .7zm0 0" fill="url(#e)"/><linearGradient id="f" x1=".5" y1=".031" x2=".5" y2="1.032"><stop offset="0" stop-color="#FFB700"/><stop offset="1" stop-color="#A86500"/></linearGradient><path d="M11 3.7A13.78 13.78 0 0 0 7 3v8.77c2.06-1.48 3.85-3.14 4-8.07zm0 0" fill="url(#f)"/><linearGradient id="g" x1=".502" y1=".002" x2=".502" y2=".998"><stop offset="0" stop-color="#2FA323"/><stop offset="1" stop-color="#0A6600"/></linearGradient><path d="M7 11.5a4.49 4.49 0 0 0 4.48 4.5V7A4.492 4.492 0 0 0 7 11.48zm0 0" fill="url(#g)"/><linearGradient id="h" x1=".498" y1="-.002" x2=".498" y2=".998"><stop offset="0" stop-color="#9C6500"/><stop offset="1" stop-color="#634700"/></linearGradient><path d="M16 11.5A4.49 4.49 0 0 0 11.52 7v9A4.492 4.492 0 0 0 16 11.52zm0 0" fill="url(#h)"/><linearGradient id="i" x1=".501" y1=".024" x2=".501" y2="1"><stop offset="0" stop-color="#E0FFE0"/><stop offset="1" stop-color="#12B812"/></linearGradient><path d="M8.13 11.5a3.391 3.391 0 0 0 3.37 3.38V8.13a3.371 3.371 0 0 0-3.37 3.37zm0 0" fill="url(#i)"/><linearGradient id="j" x1=".5" y1=".024" x2=".5" y2="1"><stop offset="0" stop-color="#FFF3D9"/><stop offset="1" stop-color="#A36222"/></linearGradient><path d="M14.88 11.5a3.391 3.391 0 0 0-3.38-3.37v6.75a3.401 3.401 0 0 0 3.38-3.38zm0 0" fill="url(#j)"/><linearGradient id="k" x1=".498" y1="0" x2=".498" y2="1.016"><stop offset="0" stop-color="#4AFF36"/><stop offset="1" stop-color="#36BA27"/></linearGradient><path d="M9.25 11.5a2.25 2.25 0 0 0 2.25 2.25v-4.5a2.25 2.25 0 0 0-2.25 2.25zm0 0" fill="url(#k)"/><linearGradient id="l" x1=".498" y1=".031" x2=".498" y2="1.031"><stop offset="0" stop-color="#FFB700"/><stop offset="1" stop-color="#A86500"/></linearGradient><path d="M13.75 11.5a2.25 2.25 0 0 0-2.25-2.25v4.5a2.25 2.25 0 0 0 2.25-2.25zm0 0" fill="url(#l)"/></svg>