<svg xmlns="http://www.w3.org/2000/svg" xmlns:xlink="http://www.w3.org/1999/xlink" width="40" height="40" viewBox="0 0 40 40">
  <defs>
    <polygon id="behat-a" points="0 0 26 0 26 36 0 36"/>
  </defs>
  <g fill="none" fill-rule="evenodd" transform="translate(7 2)">
    <mask id="behat-b" fill="#fff">
      <use xlink:href="#behat-a"/>
    </mask>
    <path fill="#0B0B0A" d="M20.1523,17.9673 C21.3223,16.1323 22.0063,13.9253 22.0063,11.5503 C22.0063,5.1713 17.0793,0.0003 11.0033,0.0003 C4.9623,0.0003 0.0593,5.1103 0.0013,11.4373 L0.0003,11.4373 L0.0003,25.4483 L0.0003,32.6743 L0.0003,36.0003 L1.4293,36.0003 L12.9503,36.0003 L12.9503,35.9543 C16.6313,35.8493 19.5863,32.8043 19.5863,29.0613 C19.5863,25.2523 16.5273,22.1643 12.7553,22.1643 C8.9823,22.1643 5.9243,25.2523 5.9243,29.0613 C5.9243,30.1493 6.1753,31.1763 6.6203,32.0923 L8.3153,31.1163 L6.5633,35.6243 L1.7893,34.8713 L3.4063,33.9403 C2.6563,32.4793 2.2293,30.8213 2.2293,29.0613 C2.2293,25.0923 4.3853,21.6343 7.5793,19.8083 C4.5453,18.4203 2.4233,15.2463 2.4233,11.5503 C2.4233,6.5763 6.2643,2.5443 11.0033,2.5443 C15.7413,2.5443 19.5823,6.5763 19.5823,11.5503 C19.5823,13.6333 18.9073,15.5493 17.7763,17.0743 L18.7683,17.8313 L15.1973,17.8313 L14.2963,14.4223 L15.3053,15.1913 C16.0713,14.1953 16.5303,12.9293 16.5303,11.5503 C16.5303,8.3453 14.0553,5.7473 11.0033,5.7473 C7.9503,5.7473 5.4753,8.3453 5.4753,11.5503 C5.4753,13.6343 6.5253,15.4583 8.0943,16.4863 C10.3623,17.9693 12.9113,17.3463 17.2443,19.4473 C17.2983,19.4723 17.5063,19.5783 17.5063,19.5783 C20.9313,21.3313 23.2803,24.9183 23.2803,29.0613 C23.2803,31.7153 22.3153,34.1383 20.7233,36.0003 L24.0183,36.0003 L24.0803,36.0003 C25.2983,33.9773 26.0003,31.6023 26.0003,29.0613 C26.0003,24.4413 23.6793,20.3703 20.1523,17.9673" mask="url(#behat-b)"/>
  </g>
</svg>
