<svg xmlns="http://www.w3.org/2000/svg" xmlns:xlink="http://www.w3.org/1999/xlink" width="40" height="40" viewBox="0 0 40 40"><rect id="frame" width="40" height="40" fill="none"/><defs><path id="a" d="M0 0h26v36H0z"/></defs><g fill="none" fill-rule="evenodd" transform="translate(7 2)"><mask id="b" fill="#fff"><use xlink:href="#a"/></mask><path fill="#CBCBCB" d="M20.152 17.968a11.914 11.914 0 0 0 1.854-6.418C22.006 5.17 17.08 0 11.003 0 4.963 0 .06 5.11.001 11.438V36H12.95v-.046c3.681-.104 6.636-3.15 6.636-6.892 0-3.81-3.059-6.898-6.83-6.898-3.774 0-6.832 3.088-6.832 6.898 0 1.088.251 2.115.696 3.03l1.695-.976-1.752 4.508-4.774-.753 1.617-.93a10.653 10.653 0 0 1-1.177-4.88c0-3.968 2.156-7.427 5.35-9.252-3.034-1.388-5.156-4.563-5.156-8.26 0-4.973 3.841-9.005 8.58-9.005 4.738 0 8.58 4.032 8.58 9.006a9.248 9.248 0 0 1-1.807 5.524l.992.757h-3.57l-.902-3.41 1.01.77a5.957 5.957 0 0 0 1.224-3.641c0-3.204-2.475-5.802-5.527-5.802-3.053 0-5.528 2.598-5.528 5.802 0 2.085 1.05 3.909 2.62 4.936 2.267 1.484 4.816.86 9.15 2.96l.261.132a10.637 10.637 0 0 1 5.774 9.484c0 2.653-.965 5.077-2.557 6.938H24.08A13.405 13.405 0 0 0 26 29.062c0-4.62-2.32-8.692-5.848-11.094" mask="url(#b)"/></g></svg>