<svg xmlns="http://www.w3.org/2000/svg" xmlns:xlink="http://www.w3.org/1999/xlink" width="40" height="40" viewBox="0 0 40 40"><rect id="frame" width="40" height="40" fill="none"/><defs><path id="a" d="M0 0h26v36H0z"/></defs><g fill="none" fill-rule="evenodd" transform="translate(7 2)"><mask id="b" fill="#fff"><use xlink:href="#a"/></mask><path fill="#0B0B0A" d="M20.152 17.967a11.908 11.908 0 0 0 1.854-6.417C22.006 5.171 17.08 0 11.003 0 4.963 0 .06 5.11.001 11.437V36H12.95v-.046c3.681-.105 6.636-3.15 6.636-6.893 0-3.809-3.059-6.897-6.83-6.897-3.774 0-6.832 3.088-6.832 6.897 0 1.088.251 2.115.696 3.031l1.695-.976-1.752 4.508-4.774-.753 1.617-.93a10.653 10.653 0 0 1-1.177-4.88 10.64 10.64 0 0 1 5.35-9.253c-3.034-1.388-5.156-4.562-5.156-8.258 0-4.974 3.841-9.006 8.58-9.006 4.738 0 8.58 4.032 8.58 9.006a9.248 9.248 0 0 1-1.807 5.524l.992.757h-3.57l-.902-3.409 1.01.77a5.956 5.956 0 0 0 1.224-3.642c0-3.205-2.475-5.803-5.527-5.803-3.053 0-5.528 2.598-5.528 5.803 0 2.084 1.05 3.908 2.62 4.936 2.267 1.483 4.816.86 9.15 2.961.053.025.261.131.261.131a10.636 10.636 0 0 1 5.774 9.483 10.64 10.64 0 0 1-2.557 6.94H24.08A13.411 13.411 0 0 0 26 29.06c0-4.62-2.32-8.69-5.848-11.094" mask="url(#b)"/></g></svg>