<svg xmlns="http://www.w3.org/2000/svg" width="16" height="16" viewBox="0 0 16 16"><rect id="frame" width="16" height="16" fill="none"/><g fill="none" fill-rule="evenodd"><rect width="14" height="14" x="1" y="1" fill="#F98B9E" fill-opacity=".6" rx="3"/><path fill="#231F20" fill-opacity=".7" d="M7.992 11C6.23 11 5 9.65 5 8.017V8c0-1.633 1.246-3 3.008-3S11 6.35 11 7.983V8c0 1.633-1.246 3-3.008 3zm.016-.945c1.14 0 1.935-.911 1.935-2.038V8c0-1.127-.812-2.055-1.951-2.055-1.14 0-1.935.911-1.935 2.038V8c0 1.127.812 2.055 1.951 2.055z"/></g></svg>