<svg xmlns="http://www.w3.org/2000/svg" width="16" height="16" viewBox="0 0 16 16"><rect id="frame" width="16" height="16" fill="none"/><g fill="none" fill-rule="evenodd"><rect width="14" height="14" x="1" y="1" fill="#40B6E0" fill-opacity=".6" rx="3"/><path fill="#231F20" fill-opacity=".7" d="M11 10h1.5v1H11v1h2.001v1H10V8h3v1h-2v1z"/><path fill="#231F20" fill-opacity=".7" d="M9.5 10.75c-.404.16-.888.25-1.498.25A2.998 2.998 0 0 1 5 8c0-1.642 1.34-3 3.098-3 1.19 0 1.731.27 2.418.837l-.616.717C9.548 6.184 8.948 6 8.1 6 6.971 6 6 6.712 6 8c0 1.28 1.061 2.022 2.1 2 .616-.015 1.044-.124 1.4-.33v1.08z"/></g></svg>