<svg xmlns="http://www.w3.org/2000/svg" width="16" height="16" viewBox="0 0 16 16">
  <g fill="none" fill-rule="evenodd">
    <rect width="14" height="14" x="1" y="1" fill="#B99BF8" fill-opacity=".6" rx="3"/>
    <path fill="#231F20" fill-opacity=".7" d="M1,2 L2.5,2 L2.5,3 L1,3 L1,4 L3.00122418,4 L3.00122418,5 L0.00122417514,5 L0,5 L0,1 L0,0 L3,0 L3,1 L1,1 L1,2 Z" transform="translate(10 8)"/>
    <path fill="#231F20" fill-opacity=".7" d="M9,11 L6,11 L6,5 L10,5 L10,6 L7,6 L7,7.49869535 L9.5,7.49869535 L9.5,8.49869535 L7,8.49869535 L7,10 L9,10 L9,11 Z"/>
  </g>
</svg>
