<svg xmlns="http://www.w3.org/2000/svg" width="16" height="16" viewBox="0 0 16 16"><rect id="frame" width="16" height="16" fill="none"/><g fill="none" fill-rule="evenodd"><rect width="14" height="14" x="1" y="1" fill="#B99BF8" fill-opacity=".6" rx="3"/><path fill="#231F20" fill-opacity=".7" d="M11.012 9.998h1.5v1h-1.5v1h2.001v1h-3.001v-5h3v1h-2v1z"/><path fill="#231F20" fill-opacity=".7" d="M9 9.833v1.047c-.254.079-.539.12-.847.12a3.593 3.593 0 0 1-2.433-.933l.617-.734c.558.484 1.125.759 1.841.759.36 0 .643-.097.822-.26zm0-.969c-.187-.153-.524-.28-1.105-.414-1.242-.3-1.942-.667-1.942-1.742v-.016c0-1 .834-1.692 1.992-1.692.85 0 1.525.258 2.117.733l-.55.775c-.525-.391-1.05-.6-1.584-.6-.6 0-.95.309-.95.692v.017c0 .45.267.65 1.392.916.231.057.441.118.63.186v1.145z"/></g></svg>