<svg xmlns="http://www.w3.org/2000/svg" width="16" height="16" viewBox="0 0 16 16">
  <g fill="none" fill-rule="evenodd">
    <rect width="14" height="14" x="1" y="1" fill="#F4AF3D" fill-opacity=".6" rx="3"/>
    <path fill="#231F20" fill-opacity=".7" d="M2.5639107,6 C1.8192602,6 1.12596491,5.81169757 0.54393923,5.46077033 L0.929103281,4.581883 C1.41697775,4.88145504 1.92197061,5.052639 2.5382331,5.052639 C3.46262682,5.052639 4,4.68188302 4,3.7746077 L4,3.43223966 C3.62339515,3.91155492 3.12025877,4.25392297 2.37560827,4.25392297 C1.30570813,4.25392297 0.4214,3.46647646 0.4214,2.13980029 L0.4214,2.12268188 C0.4214,0.787446505 1.32282653,4.4408921e-15 2.37560827,4.4408921e-15 C3.13737718,4.4408921e-15 3.64907275,0.350927247 4,0.770328103 L4,4.4408921e-15 L5,4.4408921e-15 L5,3.68901569 C5,4.45078459 4.7978622,5.01569187 4.42125735,5.39229672 C4.01041569,5.80313837 3.37703481,6 2.5639107,6 Z M2.64950271,3.37232525 C3.36847561,3.37232525 4,2.86733238 4,2.13124108 L4,2.11412268 C4,1.37803138 3.36847561,0.881597718 2.64950271,0.881597718 C1.93052981,0.881597718 1.465623,1.36947218 1.465623,2.11412268 L1.465623,2.13124108 C1.465623,2.86733238 1.93908902,3.37232525 2.64950271,3.37232525 Z" transform="translate(5 6)"/>
  </g>
</svg>
