<svg xmlns="http://www.w3.org/2000/svg" width="16" height="16" viewBox="0 0 16 16">
  <g fill="none" fill-rule="evenodd">
    <rect width="14" height="14" x="1" y="1" fill="#40B6E0" fill-opacity=".6" rx="3"/>
    <path fill="#231F20" fill-opacity=".7" d="M1,2 L2.5,2 L2.5,3 L1,3 L1,4 L3.00122418,4 L3.00122418,5 L0.00122417514,5 L0,5 L0,1 L0,0 L3,0 L3,1 L1,1 L1,2 Z" transform="translate(10 8)"/>
    <path fill="#231F20" fill-opacity=".7" d="M9.5,10.7495253 C9.0959408,10.9096905 8.61150769,11.0004 8.0022,11.0004 C6.3642,11.0004 5.0002,9.6824 5.0002,8.0004 C5.0002,6.3584 6.3402,5.0004 8.0982,5.0004 C9.28826904,5.0004 9.8293999,5.2701752 10.5162,5.83673096 L9.9,6.55426025 C9.54833171,6.18475342 8.94833171,6 8.1,6 C6.971,6 6,6.7124 6,8.0004 C6,9.2794 7.061,10.022 8.1,10 C8.71592864,9.98539824 9.1441961,9.8763191 9.5,9.67040497 L9.5,10.7495253 Z"/>
  </g>
</svg>
