<svg xmlns="http://www.w3.org/2000/svg" width="16" height="16" viewBox="0 0 16 16"><rect id="frame" width="16" height="16" fill="none"/><g fill="none" fill-rule="evenodd"><rect width="14" height="14" x="1" y="1" fill="#40B6E0" fill-opacity=".6" rx="3"/><path fill="#231F20" fill-opacity=".7" d="M7.813 8C8.777 8 9 7.674 9 7.05v-.018C9 6.33 8.76 6 7.812 6H7v2h.812zM6 5h1.831C9.168 5 10 5.797 10 7.006 10 8.37 8.972 9 7.717 9L7 8.984V11H6V5z"/><path fill="#231F20" fill-opacity=".7" d="M11 10h1.5v1H11v1h2.001v1H10V8h3v1h-2v1z"/></g></svg>