<svg xmlns="http://www.w3.org/2000/svg" width="16" height="16" viewBox="0 0 16 16">
  <g fill="none" fill-rule="evenodd">
    <rect width="14" height="14" x="1" y="1" fill="#40B6E0" fill-opacity=".6" rx="3"/>
    <path fill="#231F20" fill-opacity=".7" d="M1.8125,3 C2.7765,3 3,2.6742 3,2.0492 L3,2.0322 C3,1.3292 2.7605,1 1.8125,1 L1.0005,1 L1.0005,3 L1.8125,3 Z M0.0005,0.0002 L1.8325,0.0002 C3.1675,0.0002 4.0005,0.7972 4.0005,2.0062 C4.0005,3.3692 2.9725,4 1.7175,4 L1.0005,3.9842 L1.0005,6.0002 L0.0005,6.0002 L0.0005,0.0002 Z" transform="translate(6 5)"/>
    <path fill="#231F20" fill-opacity=".7" d="M1,2 L2.5,2 L2.5,3 L1,3 L1,4 L3.00122418,4 L3.00122418,5 L0.00122417514,5 L0,5 L0,1 L0,0 L3,0 L3,1 L1,1 L1,2 Z" transform="translate(10 8)"/>
  </g>
</svg>
