<svg ti:v="1" width="16" height="16" viewBox="0 0 16 16" xmlns="http://www.w3.org/2000/svg" xmlns:ti="urn:schemas-jetbrains-com:tisvg"><rect id="frame" width="16" height="16" fill="none"/><g fill-rule="evenodd"><path d="M10 16H7V0h3v16z" fill="#242424"/><path d="M8 16h1V0H8v16z" fill="#242424"/><path d="M7 0H1v14h6V0z" fill="#242424"/><path d="M7 1H2v12h5V1z" fill="#C3C3C3"/><path d="M7 3H4v8h3V3z" fill="#282828"/><path d="M10 2h6v14h-6V2z" fill="#242424"/><path d="M10 3h5v12h-5V3z" fill="#C3C3C3"/><path d="M10 5h3v8h-3V5z" fill="#282828"/><path d="M8 10h1V9H8m0 3h1v-1H8m0 3h1v-1H8m0 3h1v-1H8v1z" fill="#C3C3C3"/><path d="M8 2h1V1H8m0 3h1V3H8m0 3h1V5H8m0 3h1V6.999H8V8z" fill="#C3C3C3"/></g></svg>