<svg ti:v="1" width="16" height="16" viewBox="0 0 16 16" xmlns="http://www.w3.org/2000/svg" xmlns:ti="urn:schemas-jetbrains-com:tisvg"><rect id="frame" width="16" height="16" fill="none"/><path fill-rule="evenodd" d="M8 16h1.001V0H8v16z" fill="#FFF"/><linearGradient id="a" x1=".5" y1="0" x2=".5" y2="1"><stop offset="0" stop-color="#6A5727"/><stop offset="1" stop-color="#523513"/></linearGradient><path fill-rule="evenodd" d="M7 0H1v14h6V0z" fill="url(#a)"/><linearGradient id="b" x1=".5" y1=".006" x2=".5" y2="1.021"><stop offset="0" stop-color="#F4DFAA"/><stop offset="1" stop-color="#D8B589"/></linearGradient><path fill-rule="evenodd" d="M7 1H2v12h5V1z" fill="url(#b)"/><path fill-rule="evenodd" d="M7 3H4v8h3V3z" fill="#FFF"/><linearGradient id="c" x1=".5" y1=".002" x2=".5" y2=".996"><stop offset="0" stop-color="#37506D"/><stop offset="1" stop-color="#172C41"/></linearGradient><path fill-rule="evenodd" d="M10 2h6v14h-6V2z" fill="url(#c)"/><linearGradient id="d" x1=".5" y1="0" x2=".5" y2=".996"><stop offset="0" stop-color="#A8D2FF"/><stop offset="1" stop-color="#7ABAFF"/></linearGradient><path fill-rule="evenodd" d="M10 3h5v12h-5V3z" fill="url(#d)"/><path fill-rule="evenodd" d="M10 5h3v8h-3V5z" fill="#F2F8FF"/><path fill-rule="evenodd" d="M8 10h1.001V8.999H8M8 12h1.001v-1H8m0 3h1.001v-1H8m0 3h1.001v-1H8v1z"/><path fill-rule="evenodd" d="M8 2h1.001V1H8m0 3h1.001V3H8m0 3h1.001V5H8m0 3h1.001V7H8v1z"/><linearGradient id="e" x1=".5" y1="0" x2=".5" y2="1"><stop offset="0" stop-color="#663787"/><stop offset="1" stop-color="#25093B"/></linearGradient><path fill-rule="evenodd" d="M7.22 8h-.547l-2.814 2.062L2.316 9h-.567L0 9.907v4.186L1.749 15h.567l1.543-1.062L6.673 16h.547L10 14.713V9.287L7.22 8z" fill="url(#e)"/><linearGradient id="f" x1=".5" y1="0" x2=".5" y2="1"><stop offset="0" stop-color="#DEB3FF"/><stop offset="1" stop-color="#B352FF"/></linearGradient><path fill-rule="evenodd" d="M7.472 13.733L4.99 12l2.482-1.733m-5.733 2.705v-1.944L3.176 12M7 9l-3.122 2.288L2 9.996l-1 .518v2.972l1 .518 1.878-1.292L7 15l2-.926V9.926L7 9z" fill="url(#f)"/></svg>