<svg ti:v="1" width="16" height="16" viewBox="0 0 16 16" xmlns="http://www.w3.org/2000/svg" xmlns:ti="urn:schemas-jetbrains-com:tisvg"><rect id="frame" width="16" height="16" fill="none"/><g fill-rule="evenodd"><path d="M10 16H7V0h3v16z" fill="#242424"/><path d="M8 16h1V0H8v16z" fill="#242424"/><path d="M7 0H1v14h6V0z" fill="#242424"/><path d="M7 1H2v12h5V1z" fill="#C3C3C3"/><path d="M7 3H4v8h3V3z" fill="#282828"/><path d="M10 2h6v14h-6V2z" fill="#242424"/><path d="M10 3h5v12h-5V3z" fill="#C3C3C3"/><path d="M10 5h3v8h-3V5z" fill="#282828"/><path d="M8 10h1V8.999H8M8 12h1v-1H8m0 3h1v-1H8m0 3h1v-1H8v1z" fill="#C3C3C3"/><path d="M8 2h1V1H8m0 3h1V3H8m0 3h1V5H8m0 3h1V7H8v1z" fill="#C3C3C3"/><path d="M7.22 8h-.547L3.86 10.062 2.316 9h-.568L0 9.907v4.186L1.748 15h.568l1.543-1.062L6.673 16h.547L10 14.713V9.287L7.22 8z" fill="#242424"/><path d="M7.472 13.733L4.99 12l2.483-1.734M1.74 12.972v-1.945L3.176 12M7 9l-3.123 2.288L2 9.996l-1 .518v2.971l1 .52 1.877-1.294L7 15.001l2-.927V9.926L7 9z" fill="#B180D3"/></g></svg>