<svg width="16" height="16" viewBox="0 0 16 16" fill="none" xmlns="http://www.w3.org/2000/svg">
<path d="M16 0H0V16H16V0Z" fill="#DD1265"/>
<path d="M15 1H1V15H15V1Z" fill="black"/>
<path d="M9 12H3V13H9V12Z" fill="white"/>
<path d="M3 3H5.4C6.1 3 6.7 3.2 7 3.6C7.3 3.9 7.5 4.4 7.5 5C7.5 6 7 6.6 6.3 6.9L7.6 9H6.3L5.1 7.1H4.2V9H3V3ZM5.4 5.9C6 5.9 6.3 5.6 6.3 5C6.3 4.4 5.9 4.1 5.4 4.1H4.2V5.8L5.4 5.9Z" fill="white"/>
<path d="M8.19995 3H10.3C12 3 13.2 4.32014 13.2 6.04648C13.2 7.77283 12 9.09297 10.3 9.09297H8.19995V3ZM9.39995 4.21859V7.87437H10.3C11.3 7.87437 11.9 7.16353 11.9 6.04648C11.9 4.92944 11.2 4.21859 10.3 4.21859H9.39995Z" fill="white"/>
<path fill-rule="evenodd" clip-rule="evenodd" d="M3 16H16V10H3V16Z" fill="#D99E2B"/>
<path fill-rule="evenodd" clip-rule="evenodd" d="M4 11H7V11.64H4.8V12.6H6.5V13.24H4.8V14.36H6.998V15H4V11Z" fill="black"/>
<path fill-rule="evenodd" clip-rule="evenodd" d="M14.2 12.3672C14.2 12.7632 14.0134 13.0672 13.5554 13.0672H12.8V11.6328H13.4364C13.9834 11.6328 14.16 11.8672 14.2 12.2328V12.3672ZM11.9974 11V15H12.8V13.7H13.3954C14.3114 13.7144 15.0004 13.116 15.0004 12.4336V12.268C15.0004 11.528 14.3694 11 13.5474 11H11.9974Z" fill="black"/>
<path fill-rule="evenodd" clip-rule="evenodd" d="M9.85453 11H9.14647L7.36169 15H8.12852L8.54223 14.0519H10.4212L10.835 15H11.6384L9.85453 11ZM8.86404 13.3705L9.50209 11.9083L10.1747 13.3705H8.86404Z" fill="black"/>
</svg>