<svg ti:v="1" width="16" height="16" viewBox="0 0 16 16" xmlns="http://www.w3.org/2000/svg" xmlns:ti="urn:schemas-jetbrains-com:tisvg"><rect id="frame" width="16" height="16" fill="none"/><g fill-rule="evenodd"><path d="M16 5h-1.303L14 5.465V5c0-1.654-1.346-3-3-3H5v.586l-4 4V10h1.303L3 9.535V10c0 1.654 1.346 3 3 3h6v-.586l4-4V5z" fill="#242424"/><path d="M13 7.333V5a2 2 0 0 0-2-2H6l2 2h2.5a.5.5 0 0 1 .5.5v1.833L9 6v2l3 3 3-3V6l-2 1.333z" fill="#C3C3C3"/><path d="M4 7.667V10a2 2 0 0 0 2 2h5l-2-2H6.5a.5.5 0 0 1-.5-.5V7.667L8 9V7L5 4 2 7v2l2-1.333z" fill="#7CBDFF"/></g></svg>