<svg ti:v="1" width="16" height="16" viewBox="0 0 16 16" xmlns="http://www.w3.org/2000/svg" xmlns:ti="urn:schemas-jetbrains-com:tisvg"><rect id="frame" width="16" height="16" fill="none"/><g fill-rule="evenodd"><path d="M4.5 13A4.505 4.505 0 0 1 0 8.5c0-1.986 1.32-3.712 3.174-4.284A5.466 5.466 0 0 1 8.5 0C11.532 0 14 2.468 14 5.5v.049c1.222.703 2 2.006 2 3.451 0 2.206-1.794 4-4 4H4.5z" fill="#1F1F1F"/><path d="M13.746 6.576c-.293.705-1.027 1.518-1.758 1.756C12.672 7.734 13 6.656 13 5.5A4.5 4.5 0 0 0 8.5 1C6.541 1 4.903 2.264 4.291 4.012c1.661.155 2.447 1.274 2.644 1.985A3.458 3.458 0 0 0 4.5 5c-.153 0-.304.01-.454.046A3.488 3.488 0 0 0 1 8.5 3.5 3.5 0 0 0 4.5 12H12a3 3 0 0 0 3-3 2.97 2.97 0 0 0-1.254-2.424z" fill="#C4C4C4"/><path d="M0 16V9h11c1.881 0 2.719 1.138 2.719 2.266 0 .396-.057.702-.145.946.277.382.426.824.426 1.288 0 .752-.292 2.5-3 2.5H0z" fill="#1F1F1F"/><path d="M6 11h.5c.276 0 .5.447.5 1v1c0 .553-.224 1-.5 1H6m.5-4H5v5h1.5c.828 0 1.5-.896 1.5-2v-1c0-1.104-.672-2-1.5-2zM3 13H2v-2h1m-2 4h1v-1h1a1 1 0 0 0 1-1v-2a1 1 0 0 0-1-1H1m10.797 4H10v-1h1.797c.368 0 .541.224.541.5s-.173.5-.541.5zM10 11h1.516c.312 0 .47.224.47.5s-.158.5-.47.5H10m2.273.352c.2-.209.446-.352.446-1.086 0-.657-.485-1.266-1.711-1.266H9v5h2c1.576 0 2-.672 2-1.5 0-.464-.287-.873-.727-1.148z" fill="#00C7C0"/></g></svg>