<svg ti:v="1" width="16" height="16" viewBox="0 0 16 16" xmlns="http://www.w3.org/2000/svg" xmlns:ti="urn:schemas-jetbrains-com:tisvg"><rect id="frame" width="16" height="16" fill="none"/><linearGradient id="a" x1=".5" y1=".003" x2=".5" y2="1.003"><stop offset="0" stop-color="#7C6E48"/><stop offset="1" stop-color="#60492F"/></linearGradient><path fill-rule="evenodd" d="M2 14V0h7.414L14 4.586V14H2z" fill="url(#a)"/><linearGradient id="b" x1=".5" y1=".004" x2=".5" y2="1"><stop offset="0" stop-color="#E2D8BC"/><stop offset="1" stop-color="#E2CDB3"/></linearGradient><path fill-rule="evenodd" d="M9 1H3v12h10V5L9 1z" fill="url(#b)"/><linearGradient id="c" x1=".5" y1=".012" x2=".5" y2="1.006"><stop offset="0" stop-color="#FFF2D4"/><stop offset="1" stop-color="#FFF"/></linearGradient><path fill-rule="evenodd" d="M9 5V3H5v8h6V5H9z" fill="url(#c)"/><linearGradient id="d" x1=".5" y1="-.005" x2=".5" y2="1.025"><stop offset="0" stop-color="#429041"/><stop offset="1" stop-color="#056E1C"/></linearGradient><path fill-rule="evenodd" d="M2 16v-2H0v-4h2V8h4v2h2v4H6v2H2z" fill="url(#d)"/><linearGradient id="e" x1=".5" y1=".013" x2=".5" y2="1.027"><stop offset="0" stop-color="#A3FFA1"/><stop offset=".012" stop-color="#A3FFA1"/><stop offset=".988" stop-color="#31D454"/><stop offset="1" stop-color="#31D454"/></linearGradient><path fill-rule="evenodd" d="M7 11H5V9H3v2H1v2h2v2h2v-2h2v-2z" fill="url(#e)"/></svg>