<svg ti:v="1" width="16" height="16" viewBox="0 0 16 16" xmlns="http://www.w3.org/2000/svg" xmlns:ti="urn:schemas-jetbrains-com:tisvg"><rect id="frame" width="16" height="16" fill="none"/><g fill-rule="evenodd"><path d="M10 13c-3.421 0-6-1.505-6-3.5v-6C4 1.505 6.579 0 10 0s6 1.505 6 3.5v6c0 1.995-2.579 3.5-6 3.5z" fill="#242424"/><path d="M10 11c-2.419 0-4.436-.859-4.899-2A1.313 1.313 0 0 0 5 9.5c0 1.381 2.238 2.5 5 2.5s5-1.119 5-2.5c0-.172-.035-.338-.101-.5-.463 1.141-2.48 2-4.899 2zm0-3c-2.419 0-4.436-.859-4.899-2A1.313 1.313 0 0 0 5 6.5C5 7.881 7.238 9 10 9s5-1.119 5-2.5c0-.172-.035-.338-.101-.5-.463 1.141-2.48 2-4.899 2zm5-4.5C15 4.881 12.762 6 10 6S5 4.881 5 3.5 7.238 1 10 1s5 1.119 5 2.5z" fill="#C4C4C4"/><path d="M9.914 9H8v2H5V9H3.086L0 12.086v.828L3.086 16H5v-2h3v2h1.914L13 12.914v-.828L9.914 9z" fill="#242424"/><path d="M9.5 10H9v1l1 1H7v1h3l-1 1v1h.5l2.5-2.5L9.5 10z" fill="#7CBEFF"/><path d="M6 12H3l1-1v-1h-.5L1 12.5 3.5 15H4v-1l-1-1h3v-1z" fill="#7CBEFF"/></g></svg>