<svg ti:v="1" width="16" height="16" viewBox="0 0 16 16" xmlns="http://www.w3.org/2000/svg" xmlns:ti="urn:schemas-jetbrains-com:tisvg"><rect id="frame" width="16" height="16" fill="none"/><linearGradient id="a" x1=".5" y1="0" x2=".5" y2="1"><stop offset="0" stop-color="#9C0000"/><stop offset="1" stop-color="#5D0000"/></linearGradient><path fill-rule="evenodd" d="M16 3L0 3.001v8.998L16 12V3z" fill="url(#a)"/><linearGradient id="b" x1=".5" y1="0" x2=".5" y2="1"><stop offset="0" stop-color="#FFF7C2"/><stop offset="1" stop-color="#FFD380"/></linearGradient><path fill-rule="evenodd" d="M13.271 8L12.5 4.828 11.729 8m1.785 1h-2.028L11 11h-1l1.701-7h1.598L15 11h-1m-4-7H9l-2 7h1m-2-.001h-.998L5 11 2 5.87v5.129H1V4.001h.998L2 4l3 5.13V4.001h1v6.998z" fill="url(#b)"/></svg>