<svg ti:v="1" width="32" height="32" viewBox="0 0 32 32" xmlns="http://www.w3.org/2000/svg" xmlns:ti="urn:schemas-jetbrains-com:tisvg"><rect id="frame" width="32" height="32" fill="none"/><linearGradient id="a" x1=".5" y1=".017" x2=".5" y2="1.052"><stop offset="0" stop-color="#FFCB00"/><stop offset="1" stop-color="#8A6D00"/></linearGradient><path fill-rule="evenodd" d="M5 11c0 3.4 1.822 6.271 3.286 8.578C9.089 20.841 9.997 22.272 10 23h12c.004-.732.912-2.164 1.716-3.43C25.179 17.266 27 14.399 27 11c0-6.065-4.934-11-11-11S5 4.935 5 11z" fill="url(#a)"/><linearGradient id="b" x1=".017" y1=".5" x2="1.008" y2=".5"><stop offset="0" stop-color="#114262"/><stop offset="1" stop-color="#0B5D96"/></linearGradient><path fill-rule="evenodd" d="M10 23v3c0 3.308 2.691 6 6 6s6-2.692 6-6v-3H10z" fill="url(#b)"/><linearGradient id="c" x1="0" y1=".5" x2="1" y2=".5"><stop offset="0" stop-color="#E3F7FF"/><stop offset="1" stop-color="#455777"/></linearGradient><path fill-rule="evenodd" d="M12 26c0 .683.187 1.316.489 1.878L20 26v-2m-8 0v1l4-1m-2.911 4.728A3.975 3.975 0 0 0 16 30c1.848 0 3.387-1.26 3.847-2.961l-6.758 1.689z" fill="url(#c)"/><linearGradient id="d" x1=".5" y1="0" x2=".5" y2="1.1"><stop offset="0" stop-color="#FFF"/><stop offset=".166" stop-color="#FFF"/><stop offset="1" stop-color="#FFF5CF"/></linearGradient><path fill-rule="evenodd" d="M7 11c0 4.463 3.973 8.132 4.83 11h8.34c.855-2.872 4.83-6.537 4.83-11a9 9 0 0 0-18 0z" fill="url(#d)"/><linearGradient id="e" x1=".5" y1=".007" x2=".5" y2="1.002"><stop offset="0" stop-color="#FFF"/><stop offset="1" stop-color="#FFDF60"/></linearGradient><path fill-rule="evenodd" d="M9 11c0 2.24 1.352 4.373 2.659 6.436.87 1.374 1.693 2.671 2.087 3.991l.059.198.032.375h4.326l.032-.374.058-.197c.394-1.324 1.219-2.625 2.091-4.001C21.65 15.368 23 13.237 23 11c0-3.86-3.14-7-7-7s-7 3.14-7 7z" fill="url(#e)"/><path fill-rule="evenodd" d="M16 16.5a1.5 1.5 0 1 0-.001 2.999A1.5 1.5 0 0 0 16 16.5zm0-1.5c-.994 0-2.133-5.244-1.987-6.75C14.111 7.242 15.106 6 16 6c.895 0 1.889 1.242 1.987 2.25C18.133 9.756 16.994 15 16 15z" fill="#9F5B00"/><path fill-rule="evenodd" d="M20.17 22h-8.34l.085 1h8.17l.085-1z" fill="#90740C"/><path fill-rule="evenodd" d="M20 24l.085-1h-8.17L12 24h8z" fill="#124363"/></svg>