<svg ti:v="1" width="32" height="32" viewBox="0 0 32 32" xmlns="http://www.w3.org/2000/svg" xmlns:ti="urn:schemas-jetbrains-com:tisvg"><rect id="frame" width="32" height="32" fill="none"/><g fill-rule="evenodd"><path d="M23.716 19.57C25.179 17.266 27 14.398 27 11c0-6.066-4.934-11-11-11C9.935 0 5 4.934 5 11c0 3.4 1.822 6.27 3.286 8.577C9.089 20.841 9.996 22.272 10 23h12c.004-.732.912-2.164 1.716-3.43z" fill="#F4F4F4"/><path d="M10 23v3c0 3.309 2.691 6 6 6s6-2.691 6-6v-3H10z" fill="#F4F4F4"/><path d="M13.089 28.728a3.975 3.975 0 0 0 2.91 1.271c1.849 0 3.388-1.259 3.848-2.96m-7.36.838L20 26v-2l-8 2c0 .684.188 1.317.488 1.878zM16 24l-4 1v-1h4z" fill="#313131"/><path d="M25 11a9 9 0 0 0-9-9 9 9 0 0 0-9 9c0 4.463 3.973 8.132 4.83 11h8.34c.855-2.872 4.83-6.537 4.83-11z" fill="#313131"/><path d="M13.837 22l-.031-.375-.06-.198c-.394-1.321-1.217-2.617-2.087-3.99-1.307-2.064-2.66-4.198-2.66-6.437 0-3.859 3.142-7 7-7 3.86 0 7 3.141 7 7 0 2.237-1.35 4.368-2.655 6.429-.872 1.376-1.696 2.675-2.091 4l-.06.197-.03.374h-4.326z" fill="#EBEBEB"/><path d="M16 16.5a1.5 1.5 0 1 0-.001 2.999A1.5 1.5 0 0 0 16 16.5zm0-1.5c-.994 0-2.133-5.244-1.987-6.75C14.111 7.242 15.106 6 16 6c.895 0 1.889 1.242 1.987 2.25C18.133 9.756 16.994 15 16 15z" fill="#313131"/><path d="M20.17 22h-8.34l.085 1h8.17l.085-1z" fill="#313131"/><path d="M20 24l.085-1h-8.17L12 24h8z" fill="#313131"/></g></svg>