<svg ti:v="1" width="16" height="16" viewBox="0 0 16 16" xmlns="http://www.w3.org/2000/svg" xmlns:ti="urn:schemas-jetbrains-com:tisvg"><rect id="frame" width="16" height="16" fill="none"/><linearGradient id="a" x1=".5" y1="0" x2=".5" y2="1"><stop offset="0" stop-color="#6E4D00"/><stop offset="1" stop-color="#422D00"/></linearGradient><path fill-rule="evenodd" d="M1 1h15v5H1V1z" fill="url(#a)"/><linearGradient id="b" x1=".5" y1="0" x2=".5" y2="1"><stop offset="0" stop-color="#720872"/><stop offset="1" stop-color="#540A54"/></linearGradient><path fill-rule="evenodd" d="M5 5h7v5H5V5z" fill="url(#b)"/><path fill-rule="evenodd" d="M5 9h7v6H5V9z" fill="#324A63"/><linearGradient id="c" x1=".5" y1="0" x2=".5" y2="1"><stop offset="0" stop-color="#F6DF85"/><stop offset="1" stop-color="#EDB62A"/></linearGradient><path fill-rule="evenodd" d="M15 5H2V2h13v3z" fill="url(#c)"/><linearGradient id="d" x1=".5" y1="0" x2=".5" y2="1"><stop offset="0" stop-color="#EBACF6"/><stop offset="1" stop-color="#DA6EDB"/></linearGradient><path fill-rule="evenodd" d="M11 9H6V6h5v3z" fill="url(#d)"/><linearGradient id="e" x1=".5" y1="0" x2=".5" y2="1"><stop offset="0" stop-color="#9CCDFD"/><stop offset="1" stop-color="#5D9AD8"/></linearGradient><path fill-rule="evenodd" d="M11 14H6v-4h5v4z" fill="url(#e)"/><path fill-rule="evenodd" d="M8 6h1.001V5H8v1z" fill="#FFF"/><path fill-rule="evenodd" d="M8 10h1.001V9H8v1z" fill="#FFF"/></svg>