<svg xmlns="http://www.w3.org/2000/svg" width="16" height="16" viewBox="0 0 16 16">
  <g fill="none" fill-rule="evenodd">
    <path fill="#B99BF8" fill-opacity=".6" d="M15,8 C15,11.866 11.866,15 8,15 C4.134,15 1,11.866 1,8 C1,4.134 4.134,1 8,1 C11.866,1 15,4.134 15,8"/>
    <polygon fill="#231F20" fill-opacity=".7" points="8 10 6 10 6 8 5 8 5 10 3 10 3 11 5 11 5 13 6 13 6 11 8 11"/>
    <polygon fill="#231F20" fill-opacity=".7" points="7.681 7.53 8.648 5.88 7 5.185 7.252 4.438 8.977 4.91 9.143 3 9.915 3.004 10.042 4.884 11.774 4.463 12 5.212 10.361 5.888 11.308 7.549 10.688 8.008 9.508 6.488 8.296 7.995"/>
  </g>
</svg>
