<svg xmlns="http://www.w3.org/2000/svg" width="16" height="16" viewBox="0 0 16 16">
  <g fill="none" fill-rule="evenodd">
    <path fill="#B99BF8" fill-opacity=".6" d="M10,5.6458244 L10,7 C10,8.1045695 10.8954305,9 12,9 L14,9 C14.3477908,9 14.6748476,8.91122676 14.9597471,8.75510345 C14.5831845,12.2659801 11.6108811,15 8,15 C4.134,15 1,11.866 1,8 C1,4.134 4.134,1 8,1 C8.49790863,1 8.98367536,1.05198459 9.45216878,1.15082236 C9.16332374,1.70386698 9,2.33286034 9,3 C9,4.01444647 9.37763659,4.94069119 10,5.6458244 Z"/>
    <polygon fill="#231F20" fill-opacity=".7" points="0 0 0 6 1 6 1 3.5 3.5 3.5 3.5 2.5 1 2.5 1 1 4 1 4 0" transform="translate(6 5)"/>
    <g transform="translate(10)">
      <rect width="3.6" height="1" x="1.2" y="6.6" fill="#9AA7B0"/>
      <path fill="#9AA7B0" d="M1.5,7.8 L4.5,7.8 L4.5,7.8 C4.5,8.13137085 4.23137085,8.4 3.9,8.4 L2.1,8.4 C1.76862915,8.4 1.5,8.13137085 1.5,7.8 Z"/>
      <path fill="#F4AF3D" fill-opacity=".7" d="M6,2.52 C6,4.92 4.8,4.78125 4.8,6 L1.2,6 C1.2,4.81875 0,4.92 0,2.52 C7.49400542e-17,1.1946 1.34327344,0 3,0 C4.65675,0 6,1.19461875 6,2.52 Z"/>
    </g>
  </g>
</svg>
