<svg xmlns="http://www.w3.org/2000/svg" width="16" height="16" viewBox="0 0 16 16">
  <g fill="none" fill-rule="evenodd">
    <path fill="#B99BF8" fill-opacity=".6" d="M15,8 C15,11.866 11.866,15 8,15 C4.134,15 1,11.866 1,8 C1,4.134 4.134,1 8,1 C11.866,1 15,4.134 15,8"/>
    <path fill="#231F20" fill-opacity=".7" d="M1.91158333,5 L-8.33333333e-05,0 L1,0 C1.9905,2.61611111 2.49047222,3.94944444 2.49991667,4 L4,0 L4.99991667,0 L3.08825,5 L1.91158333,5 Z" transform="translate(3 5)"/>
    <polygon fill="#231F20" fill-opacity=".7" points="11 4.999 11 6.168 12.068 6.999 11 6.999 8 7 8 7.999 11 7.999 12.021 7.999 11 8.809 11 9.999 14 7.491"/>
  </g>
</svg>
