<svg xmlns="http://www.w3.org/2000/svg" width="16" height="16" viewBox="0 0 16 16"><title>MonoTimeline_dark</title><g id="Layer_2" data-name="Layer 2"><g id="Layer_1-2" data-name="Layer 1"><rect width="16" height="16" fill="#ff7bac" opacity="0"/><path d="M1,1V4.83929A11.93052,11.93052,0,0,0,3.113,4.125a6.62828,6.62828,0,0,0,1.79736.27551c.02148-.01727.031-.08313.03357-.10083-.71423-.437-2.15125-1.03821-1.96472-1.87115a.70959.70959,0,0,1,.41284-.45374c.17969-.08954,1.88257.56244,2.53784.38092a.27944.27944,0,0,0,.0448-.12323A5.69382,5.69382,0,0,1,4.5863,1.61011c1.42774-.81745,3.776-.06806,4.45227.431a1.2536,1.2536,0,0,1,.41016.45331A4.304,4.304,0,0,1,9.832,4.166c-.02026.19171-.00366.28875-.25207.29687a7.71827,7.71827,0,0,1-2.11927-.5777.45414.45414,0,0,0-.04614.28c.10291.46607,1.40149.99182,1.6936,1.05286a2.74183,2.74183,0,0,1,.2544,1.5166A.96392.96392,0,0,1,10,6.5a1.00315,1.00315,0,0,1,.64063.23145L11,7.03094V1Z" fill="#afb1b3"/><path d="M7.10034,6.14478a.29011.29011,0,0,0-.085.12847A2.51278,2.51278,0,0,0,8.293,8H9V7.5l.00208-.0144A6.78717,6.78717,0,0,1,7.10034,6.14478Z" fill="#afb1b3"/><path d="M1.74854,11H5V9a.98215.98215,0,0,1,.45557-.817c-.50891-.21484-.88318-.37347-.88318-.37347S2.57739,10.24866,1.74854,11Z" fill="#afb1b3"/><path d="M13,15.5V14H6V12H9v.5a1.00062,1.00062,0,0,0,1.64063.76855L12.1629,12H13v-.69757l.48145-.40125L16,13ZM13,10,10,7.5V9H6v2h4v1.5Z" fill="#40b6e0"/></g></g></svg>