<svg xmlns="http://www.w3.org/2000/svg" width="16" height="16" viewBox="0 0 16 16">
  <g fill="none" fill-rule="evenodd">
    <polygon fill="#FFD3FF" points="0 16 16 16 16 0 0 0" opacity="0"/>
    <path fill="#AFB1B3" d="M6,5.707 L4.104,7.603 L3.396,6.896 L5,5.293 L5,3 L6,3 L6,5.707 Z M2,5.5 C2,4.535 2.393,3.66 3.026,3.026 C3.66,2.393 4.535,2 5.5,2 C6.465,2 7.34,2.393 7.974,3.026 C8.607,3.66 9,4.535 9,5.5 C9,6.465 8.607,7.34 7.974,7.974 C7.34,8.607 6.465,9 5.5,9 C4.535,9 3.66,8.607 3.026,7.974 C2.393,7.34 2,6.465 2,5.5 Z M7.663,9.423 L8.736,8.35 C8.745,8.341 8.757,8.338 8.766,8.33 C8.742,8.048 8.827,7.759 9.043,7.543 L9.787,6.799 C9.912,6.385 10,5.955 10,5.5 C10,4.257 9.496,3.132 8.682,2.318 C7.867,1.504 6.742,1 5.5,1 C4.303,1 3.214,1.468 2.407,2.231 C1.541,3.051 1,4.212 1,5.5 C1,6.743 1.504,7.868 2.318,8.682 C3.133,9.496 4.258,10 5.5,10 C6.288,10 7.019,9.779 7.663,9.423 Z"/>
    <g transform="translate(5 5)">
      <path fill="#62B543" d="M4.75,3.25 L7.379,0.621 C7.793,0.207 8.336,0 8.879,0 C9.422,0 9.965,0.207 10.379,0.621 C10.793,1.036 11,1.579 11,2.121 C11,2.664 10.793,3.207 10.379,3.621 L7.75,6.25 L4.75,3.25 Z"/>
      <polygon fill="#AFB1B3" points="6.361 5.975 3.178 9.157 1.029 9.972 1.593 8.071 5.025 4.639 4.443 4.057 1 7.5 0 10.5 .5 11 3.5 10 6.943 6.557"/>
    </g>
  </g>
</svg>
