<svg xmlns="http://www.w3.org/2000/svg" width="16" height="16" viewBox="0 0 16 16">
  <g fill="none" fill-rule="evenodd">
    <polygon fill="#FFD3FF" points="0 16 16 16 16 0 0 0" opacity="0"/>
    <path fill="#6E6E6E" d="M5,5.293 L3.396,6.897 L4.104,7.604 L6,5.707 L6,3 L5,3 L5,5.293 Z M6,9.949 C5.834,9.968 5.671,10 5.5,10 C4.258,10 3.133,9.496 2.318,8.682 C1.504,7.868 1,6.743 1,5.5 C1,4.212 1.541,3.051 2.407,2.231 C3.214,1.468 4.303,1 5.5,1 C6.742,1 7.867,1.504 8.682,2.318 C9.496,3.132 10,4.257 10,5.5 C10,5.569 9.982,5.633 9.979,5.701 L8.898,6.301 C8.96,6.043 9,5.777 9,5.5 C9,4.535 8.607,3.66 7.974,3.026 C7.34,2.393 6.465,2 5.5,2 C4.535,2 3.66,2.393 3.026,3.026 C2.393,3.66 2,4.535 2,5.5 C2,6.465 2.393,7.34 3.026,7.974 C3.66,8.607 4.535,9 5.5,9 C5.671,9 5.835,8.973 6,8.949 L6,9.949 Z"/>
    <polygon fill="#B99BF8" points="7.515 8.214 11.5 10.428 15.485 8.214 11.5 6"/>
    <polygon fill="#B99BF8" points="11.5 11.572 7 9.073 7 13.5 11.5 16 16 13.5 16 9.073"/>
  </g>
</svg>
