<svg xmlns="http://www.w3.org/2000/svg" width="16" height="16" viewBox="0 0 16 16">
  <g fill="none" fill-rule="evenodd">
    <polygon fill="#FFD3FF" points="0 16 16 16 16 0 0 0" opacity="0"/>
    <path fill="#AFB1B3" d="M6,8.9492 C5.835,8.9732 5.671,9.0002 5.5,9.0002 C4.535,9.0002 3.66,8.6072 3.026,7.9732 C2.393,7.3402 2,6.4652 2,5.5002 C2,4.5352 2.393,3.6602 3.026,3.0262 C3.66,2.3922 4.535,2.0002 5.5,2.0002 C6.465,2.0002 7.34,2.3922 7.974,3.0262 C8.607,3.6602 9,4.5352 9,5.5002 C9,6.0392 8.867,6.5442 8.649,7.0002 L9.725,7.0002 C9.892,6.5282 10,6.0282 10,5.5002 C10,4.2582 9.496,3.1332 8.682,2.3182 C7.867,1.5042 6.742,1.0002 5.5,1.0002 C4.303,1.0002 3.214,1.4682 2.407,2.2302 C1.541,3.0512 1,4.2132 1,5.5002 C1,6.7422 1.504,7.8672 2.318,8.6812 C3.133,9.4962 4.258,10.0002 5.5,10.0002 C5.671,10.0002 5.834,9.9682 6,9.9492 L6,8.9492 Z M5,3.0002 L6,3.0002 L6,5.7072 L4.104,7.6032 L3.396,6.8962 L5,5.2932 L5,3.0002 Z"/>
    <path fill="#D9A343" d="M7,10 L16,10 L16,8 L7,8 L7,10 Z M7,13 L16,13 L16,10.999 L7,10.999 L7,13 Z M7,16 L16,16 L16,14 L7,14 L7,16 Z"/>
  </g>
</svg>
