<svg xmlns="http://www.w3.org/2000/svg" width="16" height="16" viewBox="0 0 16 16">
  <g fill="none" fill-rule="evenodd">
    <polygon fill="#FFD3FF" points="0 16 16 16 16 0 0 0" opacity="0"/>
    <g transform="translate(1 1)">
      <path fill="#AFB1B3" d="M4,4.293 L2.396,5.897 L3.104,6.604 L5,4.707 L5,2 L4,2 L4,4.293 Z M4,8.949 C2.96,8.833 2.021,8.384 1.318,7.682 C0.504,6.867 0,5.742 0,4.5 C0,3.213 0.541,2.051 1.407,1.23 C2.214,0.468 3.303,0 4.5,0 C5.742,0 6.867,0.504 7.682,1.318 C8.496,2.133 9,3.258 9,4.5 C9,4.855 8.948,5.197 8.871,5.529 C8.771,5.542 8.67,5.551 8.576,5.595 C8.225,5.759 8,6.112 8,6.5 L8,7 L6.941,7 C6.951,6.99 6.964,6.983 6.974,6.974 C7.607,6.34 8,5.465 8,4.5 C8,3.535 7.607,2.66 6.974,2.026 C6.34,1.393 5.465,1 4.5,1 C3.535,1 2.66,1.393 2.026,2.026 C1.393,2.66 1,3.535 1,4.5 C1,5.465 1.393,6.34 2.026,6.974 C2.55,7.497 3.242,7.842 4.01,7.95 C4.009,7.968 4,7.982 4,8 L4,8.949 Z"/>
      <path fill="#40B6E0" d="M12,9 L9,6.5 L9,8 L5,8 L5,10 L9,10 L9,11.5 L12,9 Z M12,14.5 L12,13 L5,13 L5,11 L8,11 L8,11.5 C8,11.888 8.225,12.241 8.576,12.405 C8.711,12.469 8.855,12.5 9,12.5 C9.229,12.5 9.457,12.421 9.641,12.269 L11.163,11 L12,11 L12,10.303 L12.481,9.901 L15,12 L12,14.5 Z"/>
    </g>
  </g>
</svg>
