<svg xmlns="http://www.w3.org/2000/svg" width="16" height="16" viewBox="0 0 16 16"><title>UnityTimeline_dark</title><g id="Layer_2" data-name="Layer 2"><g id="Layer_1-2" data-name="Layer 1"><rect width="16" height="16" fill="#ffd3ff" opacity="0"/><path d="M13,15.5V14H6V12H9v.5a1.00062,1.00062,0,0,0,1.64063.76855L12.1629,12H13v-.69757l.48145-.40125L16,13ZM13,10,10,7.5V9H6v2h4v1.5Z" fill="#40b6e0"/><path d="M5,9.07336l-.87848-.15387L1.47321,5.5,4.12152,2.08051l4.061-.71137L9.68158,5.5,9.12769,7.02643A.98032.98032,0,0,1,10,6.5a.99835.99835,0,0,1,.129.0224L10.5,5.5,8.68549.49982l-4.98987.87487L.5,5.5,3.69562,9.62537,5,9.85394Z" fill="#afb1b3"/><polygon points="7.146 8 7.454 8 6.423 5.5 7.903 1.91 5.701 5.081 2.037 5.5 5.701 5.919 7.146 8" fill="#afb1b3"/></g></g></svg>