<svg xmlns="http://www.w3.org/2000/svg" width="16" height="16" viewBox="0 0 16 16"><rect id="frame" width="16" height="16" fill="none"/><g fill="none" fill-rule="evenodd"><path fill="#9AA7B0" fill-opacity=".8" d="M7.985 4L6.697 2.711C6.305 2.32 5.533 2 4.979 2H1.05a.05.05 0 0 0-.05.051V13h7V7h7V4H7.985z"/><path fill="#B99BF8" d="M12.566 11.966c1.034 0 1.693-.525 1.693-1.337v-.023c0-.858-.635-1.326-1.706-1.326h-2.105v2.686h2.118zM9 8h3.669c1.037 0 1.847.297 2.377.8.435.435.682 1.028.682 1.726v.023c0 1.313-.811 2.103-1.952 2.422L16 16h-1.718l-2.024-2.79h-1.811V16H9V8z"/></g></svg>