<svg xmlns="http://www.w3.org/2000/svg" width="16" height="16" viewBox="0 0 16 16"><rect id="frame" width="16" height="16" fill="none"/><g fill="none" fill-rule="evenodd"><path fill="#40B6E0" d="M12.791 9.641h1.433V7.997h-1.433z"/><path fill="#40B6E0" d="M11.5 10.615h2.723v4.301h1.782v1.081h-5v-1.081h1.786v-3.22H11.5z"/><path fill="#9AA7B0" d="M7.983 6.2L9.1 9H6.896l1.087-2.8zM9.815 11H11L8.446 5h-.893L5 11h1.151l.414-1h2.841l.41 1z"/><path fill="#9AA7B0" d="M14.93 7h-1.013A6.002 6.002 0 0 0 2 8a6 6 0 0 0 8 5.659v1.051A7 7 0 1 1 14.93 7z"/></g></svg>