<svg xmlns="http://www.w3.org/2000/svg" width="16" height="16" viewBox="0 0 16 16"><rect id="frame" width="16" height="16" fill="none"/><g fill="none" fill-rule="evenodd"><path fill="#40B6E0" d="M6.048 15H6v-.035l.048.035zM6 14.39V8.817A4.002 4.002 0 0 1 7.2 1a4 4 0 0 1 1.3 7.784v2.165L6 14.389zM7.2 6.4a1.4 1.4 0 1 0 0-2.8 1.4 1.4 0 0 0 0 2.8z"/><path fill="#9AA7B0" d="M14.719 15.357h1.286V7h-1.286z"/><path fill="#9AA7B0" d="M13.069 8.207l1.236.354-1.95 6.798-1.236-.354z"/><path fill="#40B6E0" d="M11.041 9.385l1.04.755-3.779 5.201-1.04-.755z"/></g></svg>