<svg xmlns="http://www.w3.org/2000/svg" width="16" height="16" viewBox="0 0 16 16"><rect id="frame" width="16" height="16" fill="none"/><g fill="none" fill-rule="evenodd"><path fill="#40B6E0" fill-opacity=".7" d="M0 2h5v12H0z"/><path fill="#9AA7B0" d="M9.354 11a4.018 4.018 0 0 1-.819-1H6v1h3.354zM9 13H6v1h3v-1zm5 1v-2.535V14zm0-9.465V2H6v3h3v.354A3.99 3.99 0 0 1 12 4c.729 0 1.412.195 2 .535zM8.126 7H6v1h2c0-.345.044-.68.126-1z"/><path fill="#40B6E0" d="M12 5v2a1 1 0 1 0 0 2v7h-1v-5.17A3.001 3.001 0 0 1 12 5z"/><path fill="#D9A343" d="M12 5a3 3 0 0 1 1 5.83V13h2v2h-2v1h-1V9a1 1 0 1 0 0-2V5z"/></g></svg>