<svg xmlns="http://www.w3.org/2000/svg" width="16" height="16" viewBox="0 0 16 16"><rect id="frame" width="16" height="16" fill="none"/><g fill="none" fill-rule="evenodd" transform="matrix(-1 0 0 1 16 2)"><path fill="#9AA7B0" fill-opacity=".8" d="M15 8.337A3.5 3.5 0 0 0 10.035 12H10V0h5v8.337z"/><path fill="#9AA7B0" d="M2 11v1H1V9.465c.31.179.645.318 1 .409V11zm3.646-2c.324-.286.601-.624.819-1H9v1H5.646zM6 11h3v1H6v-1zM1 2.535V0h8v3H6v.354A3.99 3.99 0 0 0 3 2c-.729 0-1.412.195-2 .535zM6.874 5H9v1H7c0-.345-.044-.68-.126-1z"/><circle cx="13.5" cy="11.5" r="2.5" fill="#9AA7B0"/><path fill="#40B6E0" d="M3 3v2a1 1 0 1 1 0 2v7h1V8.83A3.001 3.001 0 0 0 3 3z"/><path fill="#D9A343" d="M3 3a3 3 0 0 0-1 5.83V11H0v2h2v1h1V7a1 1 0 1 1 0-2V3z"/></g></svg>