<svg xmlns="http://www.w3.org/2000/svg" width="16" height="16" viewBox="0 0 16 16"><rect id="frame" width="16" height="16" fill="none"/><g fill="#9AA7B0" fill-rule="evenodd"><path fill-opacity=".8" d="M1 2h5v12H1z"/><path d="M10 13H7v1h3v-1zm5.001-1.536l-.001.001V13l.001-1.536zm-5.465-1.463L7 10v1h3l.356.001a4.018 4.018 0 0 1-.82-1zM7 7v1h2c0-.345.044-.68.126-1H7zm0-5v3h3l-.001.355A3.99 3.99 0 0 1 13 4c.729 0 1.412.195 2.001.536L15 2H7z"/><path d="M13 5a3 3 0 0 1 1 5.829V13h2v2h-2v1h-2v-5.17A3.001 3.001 0 0 1 13 5zm0 2a1 1 0 1 0 0 2 1 1 0 0 0 0-2z"/></g></svg>