<svg xmlns="http://www.w3.org/2000/svg" width="16" height="16" viewBox="0 0 16 16"><rect id="frame" width="16" height="16" fill="none"/><g fill="none" fill-rule="evenodd" transform="matrix(-1 0 0 1 16 2)"><path fill="#40B6E0" fill-opacity=".7" d="M15 8.337A3.5 3.5 0 0 0 10.035 12H10V0h5v8.337z"/><path fill="#9AA7B0" d="M5.646 9c.324-.286.601-.624.819-1H9v1H5.646zM6 11h3v1H6v-1zm-5 1V9.465 12zm0-9.465V0h8v3H6v.354A3.99 3.99 0 0 0 3 2c-.729 0-1.412.195-2 .535zM6.874 5H9v1H7c0-.345-.044-.68-.126-1z"/><path fill="#D9A343" d="M2 11H0v2h2v1h2V8.83a3.001 3.001 0 1 0-2 0V11zm1-4a1 1 0 1 1 0-2 1 1 0 0 1 0 2z"/><circle cx="13.5" cy="11.5" r="2.5" fill="#9AA7B0"/></g></svg>