<svg xmlns="http://www.w3.org/2000/svg" width="16" height="16" viewBox="0 0 16 16"><rect id="frame" width="16" height="16" fill="none"/><g fill="#6E6E6E" fill-rule="evenodd"><path d="M1 2h14v13H1V2zm1 3v9h12V5H2z"/><path d="M8.513 11.458l-.545.607-.58-.518c-.407.29-.91.456-1.47.456-1.483 0-2.518-1.125-2.518-2.484 0-1.373 1.049-2.512 2.532-2.512 1.484 0 2.519 1.125 2.519 2.484 0 .566-.18 1.077-.49 1.497l.552.47zm-2.581-.342c.298 0 .557-.071.784-.201l-.784-.676.562-.635.796.728c.143-.247.17-.49.17-.814v-.013c0-.884-.64-1.611-1.541-1.611-.9 0-1.519.714-1.519 1.598v.013c0 .884.631 1.611 1.532 1.611z"/><path d="M9 7h1v4h2.5v1H9z"/></g></svg>