<svg xmlns="http://www.w3.org/2000/svg" width="16" height="16" viewBox="0 0 16 16"><rect id="frame" width="16" height="16" fill="none"/><g fill="none" fill-rule="evenodd"><path fill="#F4AF3D" fill-opacity=".7" d="M1 12h14V5H1z"/><path fill="#9AA7B0" fill-opacity=".8" d="M2 4h12V2H2z"/><path fill="#9AA7B0" fill-opacity=".8" d="M2 14h12v-1H2z"/><path fill="#231F20" fill-opacity=".7" d="M3 7v3c1 0 1 0 1-1.485V8.5C4 7 4 7 3 7zM2 6h1.5C4.891 6 5 7.093 5 8.5 5 9.921 4.891 11 3.5 11H2V6zm5 1v3c1 0 1 0 1-1.485V8.5C8 7 8 7 7 7zM6 6h1.5C8.891 6 9 7.093 9 8.5 9 9.921 8.891 11 7.5 11H6V6z"/><path fill="#231F20" fill-opacity=".7" d="M10 6h1v4h2.5v1H10z"/></g></svg>