<svg xmlns="http://www.w3.org/2000/svg" width="16" height="16" viewBox="0 0 16 16"><rect id="frame" width="16" height="16" fill="none"/><g fill="#62B543" fill-opacity=".7" fill-rule="evenodd"><path d="M6 11h4v2H6z"/><path d="M6 4v1H1V3h3V1h2v3z"/><path d="M7 7h2v2H7z"/><path d="M7 5h2v2H7z"/><path d="M5 5h2v2H5z"/><path d="M9 5h2v2H9z"/><path d="M1 13h5v2H1z"/><path d="M10 13h5v2h-5z"/><path d="M12 3h3v2h-5V1h2v2z"/><path d="M1 9h5v2H1z"/><path d="M10 9h5v2h-5z"/><path d="M1 5h2v4H1z"/><path d="M13 5h2v4h-2z"/></g></svg>