<svg xmlns="http://www.w3.org/2000/svg" width="16" height="16" viewBox="0 0 16 16"><rect id="frame" width="16" height="16" fill="none"/><g fill="#F98B9E" fill-opacity=".7" fill-rule="evenodd"><path d="M1 11h5v2H1z"/><path d="M10 11h5v2h-5z"/><path d="M9 9v2H7V9H4V7h8v2H9z"/><path d="M4 13h2v2H4z"/><path d="M1 5h2v2H1z"/><path d="M13 5h2v2h-2z"/><path d="M10 13h2v2h-2z"/><path d="M6 5h4v2H6z"/><path d="M1 3h4v2H1z"/><path d="M11 3h4v2h-4z"/><path d="M4 1h8v2H4z"/><path d="M6 11h4v2H6z"/></g></svg>