<svg xmlns="http://www.w3.org/2000/svg" width="16" height="16" viewBox="0 0 16 16"><rect id="frame" width="16" height="16" fill="none"/><g fill="none" fill-rule="evenodd"><path fill="#40B6E0" fill-opacity=".7" d="M1 7v7h3.95L5 11l3 .001V7z"/><path fill="#40B6E0" fill-opacity=".7" d="M10 6h5V1h-5z"/><path fill="#9AA7B0" d="M11 14h3v-3h-3z"/><path fill="#9AA7B0" d="M10 10h3V9h-3z"/><path fill="#9AA7B0" d="M9 15h1V9H9z"/><path fill="#9AA7B0" d="M6 16h1v-4H6z"/><path fill="#9AA7B0" d="M9 16h4v-1H9z"/><path fill="#9AA7B0" d="M6 13h4v-1H6z"/><path fill="#9AA7B0" d="M13 13h3v-1h-3z"/><path fill="#9AA7B0" d="M4 3h6v1H4z"/><path fill="#9AA7B0" d="M4 3h1v4H4z"/></g></svg>