<svg xmlns="http://www.w3.org/2000/svg" width="16" height="16" viewBox="0 0 16 16"><rect id="frame" width="16" height="16" fill="none"/><g fill="none" fill-rule="evenodd"><path fill="#9AA7B0" fill-opacity=".8" d="M7 1L3 5h4z"/><path fill="#9AA7B0" fill-opacity=".8" d="M8.5 13H6v2H3V6h5V1h5v8.03A4 4 0 0 0 8.5 13z"/><path fill="#231F20" fill-opacity=".7" d="M12 12.134V10h1v2.134l1.848-1.067.5.866L13.5 13l1.848 1.067-.5.866L13 13.866V16h-1v-2.134l-1.848 1.067-.5-.866L11.5 13l-1.848-1.067.5-.866L12 12.134z"/><path fill="#231F20" fill-opacity=".7" d="M7 14h1.5v1.5H7z"/></g></svg>