<svg xmlns="http://www.w3.org/2000/svg" width="16" height="16" viewBox="0 0 16 16">
  <g fill="none" fill-rule="evenodd">
    <polygon fill="#9AA7B0" points="5 12 4 12 4 4 12 4 12 8 14 8 14 2 2 2 2 14 5 14"/>
    <path fill="#231F20" fill-opacity=".7" d="M14,12 L16,12 L16,13 L14,13 L14,14 L11,14 L11,11 L14,11 L14,12 Z M10,15 L13,15 L13,16 L9,16 L9,15 L9,13 L7,13 L7,16 L6,16 L6,13 L6,12 L9,12 L9,9 L10,9 L10,15 Z"/>
    <polygon fill="#231F20" fill-opacity=".7" points="10 10 13 10 13 9 10 9"/>
  </g>
</svg>
