<svg xmlns="http://www.w3.org/2000/svg" width="16" height="16" viewBox="0 0 16 16">
  <g fill="none" fill-rule="evenodd">
    <polygon fill="#9AA7B0" points="5 12 4 12 4 4 12 4 12 8 14 8 14 2 2 2 2 14 5 14"/>
    <polygon fill="#9AA7B0" points="11 14 14 14 14 11 11 11"/>
    <polygon fill="#9AA7B0" points="10 10 13 10 13 9 10 9"/>
    <polygon fill="#9AA7B0" points="9 15 10 15 10 9 9 9"/>
    <polygon fill="#9AA7B0" points="6 16 7 16 7 12 6 12"/>
    <polygon fill="#9AA7B0" points="9 16 13 16 13 15 9 15"/>
    <polygon fill="#9AA7B0" points="6 13 10 13 10 12 6 12"/>
    <polygon fill="#9AA7B0" points="13 13 16 13 16 12 13 12"/>
  </g>
</svg>
