<svg width="16" height="16" viewBox="0 0 16 16" fill="none" xmlns="http://www.w3.org/2000/svg"><rect id="frame" width="16" height="16" fill="none"/><path fill-rule="evenodd" clip-rule="evenodd" d="M15.081 13.14v.314c0 .218-.037.426-.09.628H16v.942h-1.496a2.544 2.544 0 0 1-1.968.943 2.544 2.544 0 0 1-1.969-.943H9v-.942h1.081a2.444 2.444 0 0 1-.09-.628v-.314H9v-.943h.99v-.628c0-.107.02-.21.033-.314H9v-.942h1.346c.243-.41.598-.744 1.026-.964l-.894-.882.675-.667 1.283 1.266c.034 0 .03-.006.064-.006.012 0 .058.005.07.006L13.847 7.8l.675.667-.869.857c.449.22.82.564 1.072.989H16v.942h-.951c.013.104.032.207.032.314v.628H16v.943h-.919zM11.45 11.3v.875h2.1V11.3h-2.1zm0 1.75v.875h2.1v-.875h-2.1z" fill="#499C54"/></svg>