<svg xmlns="http://www.w3.org/2000/svg" width="16" height="16" viewBox="0 0 16 16"><rect id="frame" width="16" height="16" fill="none"/><g fill="none" fill-rule="evenodd"><path fill="#40B6E0" d="M5 5h4v8h3v2H4v-2h3V6.996H5z"/><path fill="#9AA7B0" d="M7.954 3.387l-.861 1.234c-.171.246-.3.37-.389.37-.144 0-.322-.082-.536-.245-.215-.163-.318-.297-.312-.404.007-.078.062-.159.164-.244l1.276-1.003c.149-.115.221-.19.214-.227-.007-.078-.122-.132-.347-.163l-1.562-.216C5.2 2.434 5 2.317 5 2.135c0-.16.064-.345.193-.553.129-.208.245-.315.347-.321.061-.006.181.04.357.136l1.532.838.173.071c.096-.006.129-.074.103-.207L7.367.55a1.552 1.552 0 0 1-.041-.253C7.312.099 7.521 0 7.953 0c.493 0 .733.099.72.297a6.92 6.92 0 0 1-.051.253l-.327 1.549c-.028.126.003.195.092.207l.183-.071 1.531-.838c.177-.096.296-.142.358-.136.101.006.218.113.347.321.129.208.194.396.194.562 0 .176-.201.29-.603.345l-1.561.216c-.21.031-.322.085-.336.163-.007.042.06.118.204.225l1.275.998c.109.089.163.177.163.26 0 .108-.112.245-.335.41-.224.165-.398.245-.522.238-.121-.006-.25-.132-.386-.378l-.701-1.234-.121-.135-.123.135z"/></g></svg>