<svg xmlns="http://www.w3.org/2000/svg" width="16" height="16" viewBox="0 0 16 16"><rect id="frame" width="16" height="16" fill="none"/><g fill="#AFB1B3" fill-rule="evenodd"><path d="M9.99 9.489a3.054 3.054 0 0 1 4.065-3.85l-2.218 2.219 1.62 1.619 2.217-2.218a3.055 3.055 0 0 1-3.849 4.065l-4.528 4.528-1.835-1.835L9.99 9.489z"/><path d="M8.4 7.013c-.592.065-1.232.1-1.9.1-3.038 0-5.5-.732-5.5-1.637V4.207c1.217.702 3.226 1.16 5.5 1.16 1.552 0 2.981-.214 4.119-.572L8.4 7.013zM5.488 9.926C2.934 9.791 1 9.156 1 8.395v-1.35c1.217.702 3.226 1.16 5.5 1.16.245 0 .486-.005.724-.015L5.488 9.926zM2.91 12.503C1.74 12.203 1 11.758 1 11.263V9.883c.843.486 2.066.855 3.493 1.036l-1.582 1.583zM6.5 4.275c-3.038 0-5.5-.733-5.5-1.637C1 1.733 3.462 1 6.5 1s5.5.733 5.5 1.638c0 .904-2.462 1.637-5.5 1.637z"/></g></svg>