<svg xmlns="http://www.w3.org/2000/svg" width="16" height="16" viewBox="0 0 16 16"><rect id="frame" width="16" height="16" fill="none"/><g fill="#9AA7B0" fill-rule="evenodd"><path d="M7.084 14c-2.415-.449-3.088-1.346-3.088-2.776 0-.21.04-.729.04-.967 0-1.093-.423-1.444-1.453-1.444H2V7.187h.583c1.03 0 1.452-.35 1.452-1.444 0-.238-.04-.757-.04-.967 0-1.43.674-2.327 3.09-2.776l.356 1.416c-1.4.42-1.61.813-1.61 1.668 0 .28.039.743.039 1.037 0 1.024-.488 1.57-1.373 1.879.885.308 1.373.855 1.373 1.879 0 .294-.04.757-.04 1.037 0 .855.212 1.248 1.61 1.668L7.085 14z"/><path d="M8.916 14c2.415-.449 3.088-1.346 3.088-2.776 0-.21-.04-.729-.04-.967 0-1.093.423-1.444 1.453-1.444H14V7.187h-.583c-1.03 0-1.452-.35-1.452-1.444 0-.238.04-.757.04-.967 0-1.43-.674-2.327-3.09-2.776L8.56 3.416c1.4.42 1.61.813 1.61 1.668 0 .28-.039.743-.039 1.037 0 1.024.488 1.57 1.373 1.879-.885.308-1.373.855-1.373 1.879 0 .294.04.757.04 1.037 0 .855-.212 1.248-1.61 1.668L8.915 14z"/></g></svg>