<svg xmlns="http://www.w3.org/2000/svg" width="16" height="16" viewBox="0 0 16 16"><rect id="frame" width="16" height="16" fill="none"/><g fill="none" fill-rule="evenodd"><path fill="#9AA7B0" d="M7.084 14c-2.415-.449-3.088-1.346-3.088-2.776 0-.21.04-.729.04-.967 0-1.093-.423-1.444-1.453-1.444H2V7.187h.583c1.03 0 1.452-.35 1.452-1.444 0-.238-.04-.757-.04-.967 0-1.43.674-2.327 3.09-2.776l.356 1.416c-1.4.42-1.61.813-1.61 1.668 0 .28.039.743.039 1.037 0 1.024-.488 1.57-1.373 1.879.885.308 1.373.855 1.373 1.879 0 .294-.04.757-.04 1.037 0 .855.212 1.248 1.61 1.668L7.085 14zm3.085-3.172c.247.246.526.461.831.637l.001 1.807c-.43.284-1.025.509-1.83.678l-.255.05-.356-1.416c1.4-.42 1.61-.813 1.61-1.668v-.088zM8.56 3.416L8.916 2c2.036.378 2.834 1.074 3.035 2.14a3.99 3.99 0 0 0-1.783 1.036l.002-.092c0-.814-.191-1.21-1.418-1.608l-.192-.06L8.916 2z"/><path fill="#D9A343" d="M13 5a3 3 0 0 1 1 5.829V13h2v2h-2v1h-2v-5.17A3.001 3.001 0 0 1 13 5zm0 2a1 1 0 1 0 0 2 1 1 0 0 0 0-2z"/></g></svg>