<svg width="16" height="16" viewBox="0 0 16 16" fill="none" xmlns="http://www.w3.org/2000/svg">
<g id="idea/dbe/database/api/resources/icons/partitionForeignTable">
<path id="Combined Shape" fill-rule="evenodd" clip-rule="evenodd" d="M10 13V15H13V16H9V15V13H8V12H9V9H10H13V10H10V12V13ZM11 14H14V13H16V12H14V11H11V14Z" fill="#231F20" fill-opacity="0.7"/>
<g id="Group">
<path id="Vector" fill-rule="evenodd" clip-rule="evenodd" d="M2 8H14V7H2V8Z" fill="#9AA7B0"/>
</g>
<circle id="Ellipse 2" cx="3.5" cy="12.5" r="3.5" fill="#40B6E0" fill-opacity="0.7"/>
<path id="Subtract" fill-rule="evenodd" clip-rule="evenodd" d="M11 8V5H14V8H15V2H1V8.75777C1.30851 8.55127 1.64397 8.3819 2 8.25606V5H5V8.25606C5.35603 8.3819 5.69149 8.55127 6 8.75777V5H10V8H11Z" fill="#9AA7B0"/>
</g>
</svg>
