<svg width="16" height="16" viewBox="0 0 16 16" fill="none" xmlns="http://www.w3.org/2000/svg"><rect id="frame" width="16" height="16" fill="none"/><path fill-rule="evenodd" clip-rule="evenodd" d="M10 13v2h3v1H9v-3H8v-1h1V9h4v1h-3v3zm1 1h3v-1h2v-1h-2v-1h-3v3z" fill="#231F20" fill-opacity=".7"/><path fill-rule="evenodd" clip-rule="evenodd" d="M2 8h12V7H2v1z" fill="#9AA7B0"/><circle cx="3.5" cy="12.5" r="3.5" fill="#40B6E0" fill-opacity=".7"/><path fill-rule="evenodd" clip-rule="evenodd" d="M11 8V5h3v3h1V2H1v6.758a4.484 4.484 0 0 1 1-.502V5h3v3.256c.356.126.691.295 1 .502V5h4v3h1z" fill="#9AA7B0"/></svg>