<svg width="16" height="16" viewBox="0 0 16 16" fill="none" xmlns="http://www.w3.org/2000/svg">
<path fill-rule="evenodd" clip-rule="evenodd" d="M10.5 12H8L12 8L16 12H13.5V16H10.5V12Z" fill="#499C54"/>
<path d="M1 8C2.10091 5.07333 4.81818 3 8 3C11.1818 3 13.8991 5.07333 15 8C14.8585 8.37617 14.6903 8.73824 14.4978 9.08362L12 6.58579L11.4038 7.18202C11.0351 5.64417 9.65036 4.5 8 4.5C6.068 4.5 4.5 6.068 4.5 8C4.5 9.65036 5.64417 11.0351 7.18202 11.4038L5.89818 12.6876C3.65691 12.0042 1.84844 10.2555 1 8Z" fill="#AFB1B3"/>
<path d="M8 6C6.89333 6 6 6.89333 6 8C6 9.10667 6.89333 10 8 10C9.10667 10 10 9.10667 10 8C10 6.89333 9.10667 6 8 6Z" fill="#AFB1B3"/>
</svg>
