<svg xmlns="http://www.w3.org/2000/svg" width="16" height="16" viewBox="0 0 16 16"><rect id="frame" width="16" height="16" fill="none"/><g fill="none" fill-rule="evenodd"><path fill="#F98B9E" fill-opacity=".6" d="M16 11.5a4.5 4.5 0 1 1-9 0 4.5 4.5 0 0 1 9 0"/><path fill="#9AA7B0" fill-opacity=".8" d="M10 4H7.984L6.696 2.711A2.8 2.8 0 0 0 4.979 2H1.051A.051.051 0 0 0 1 2.051V13h5.219A5.429 5.429 0 0 1 6 11.5a5.5 5.5 0 0 1 9-4.242V4h-5z"/><path fill="#231F20" fill-opacity=".7" d="M12.003 10.5c0-.313-.044-.481-.503-.5a14.33 14.33 0 0 0-.5 0v1c.263.004.43.004.5 0 .433-.027.503-.188.503-.5zM10 9h1.374C12.375 9 13 9.364 13 10.5c0 1.136-.771 1.5-1.712 1.5H11v2h-1V9z"/></g></svg>