<svg xmlns="http://www.w3.org/2000/svg" width="16" height="16" viewBox="0 0 16 16"><rect id="frame" width="16" height="16" fill="none"/><g fill="none" fill-rule="evenodd"><path fill="#9AA7B0" fill-opacity=".8" d="M8 8c1.934 0 3.5-1.566 3.5-3.5 0-.227-.046-.554-.14-.98l-6.732.04c-.085.41-.128.723-.128.94C4.5 6.434 6.066 8 8 8zm0 1.75c-2.336 0-7 1.172-7 3.5V15h14v-1.75c0-2.328-4.664-3.5-7-3.5z"/><path fill="#40B6E0" d="M12.5 3H11v-.603C10.875 1.56 10.29 1 8 1s-2.875.56-3 1.397V3H3.5c-.275 0-.5.225-.5.5 0 .274.225.5.5.5h9c.274 0 .5-.226.5-.5 0-.275-.226-.5-.5-.5"/><path fill="#40B6E0" d="M3 3h10v1H3z"/><path fill="#40B6E0" d="M5 1h6v3H5z"/></g></svg>