<svg width="16" height="16" viewBox="0 0 16 16" fill="none" xmlns="http://www.w3.org/2000/svg">
<path d="M8 2C7.2056 1.99542 6.4182 2.14863 5.68349 2.45076C4.94877 2.75288 4.28137 3.19791 3.72 3.76L2 2V7H7L5.15 5.19C5.51971 4.80899 5.96296 4.50705 6.45287 4.30249C6.94277 4.09794 7.46913 3.99503 8 4C8.73705 4.00006 9.45976 4.20377 10.0883 4.58863C10.7169 4.9735 11.227 5.52456 11.5621 6.18099C11.8973 6.83743 12.0446 7.57371 11.9878 8.30856C11.9309 9.04342 11.6721 9.74828 11.2399 10.3453C10.8078 10.9424 10.2191 11.4085 9.53875 11.6921C8.85844 11.9756 8.113 12.0658 7.38471 11.9524C6.65642 11.8391 5.9736 11.5268 5.41161 11.0499C4.84963 10.573 4.43033 9.95014 4.2 9.25L2.3 9.87C2.64466 10.9208 3.27303 11.8559 4.11571 12.572C4.95839 13.2882 5.98259 13.7575 7.07522 13.9281C8.16784 14.0988 9.28638 13.9642 10.3073 13.5391C11.3282 13.1141 12.2118 12.4151 12.8605 11.5195C13.5092 10.6238 13.8977 9.56635 13.9832 8.46379C14.0687 7.36122 13.8478 6.25648 13.3449 5.27157C12.842 4.28665 12.0767 3.45987 11.1335 2.88254C10.1903 2.30521 9.10587 1.99979 8 2V2Z" fill="#C75450"/>
</svg>
