<svg width="16" height="16" viewBox="0 0 16 16" fill="none" xmlns="http://www.w3.org/2000/svg">
<path fill-rule="evenodd" clip-rule="evenodd" d="M9 7L16 11.5L9 16V7Z" fill="#59A869"/>
<path fill-rule="evenodd" clip-rule="evenodd" d="M8 6.40367C5.51979 6.40367 3.32716 5.94156 2 5.23423V6.51376C2 7.42579 4.68629 8.16514 8 8.16514V6.40367ZM9.90774 6.30962L12.0926 7.72136C13.2662 7.41993 14 6.99043 14 6.51376V5.23423C13.026 5.75337 11.5857 6.14041 9.90774 6.30962ZM8 9.26606C5.51979 9.26606 3.32716 8.80395 2 8.09662V9.4567C2 10.3242 4.68629 11.0275 8 11.0275V9.26606ZM14 8.95385L13.2171 8.44797C13.503 8.33934 13.7651 8.22182 14 8.09662V8.95385ZM8 12.1284V14C4.68629 14 2 13.2607 2 12.3486V10.959C3.32716 11.6663 5.51979 12.1284 8 12.1284ZM2 3.65138C2 4.56341 4.68629 5.30275 8 5.30275C11.3137 5.30275 14 4.56341 14 3.65138C14 2.73935 11.3137 2 8 2C4.68629 2 2 2.73935 2 3.65138Z" fill="#6E6E6E"/>
</svg>
