<svg width="16" height="16" viewBox="0 0 16 16" fill="none" xmlns="http://www.w3.org/2000/svg"><rect id="frame" width="16" height="16" fill="none"/><path fill-rule="evenodd" clip-rule="evenodd" d="M9 7l7 4.5L9 16V7z" fill="#59A869"/><path fill-rule="evenodd" clip-rule="evenodd" d="M8 6.404c-2.48 0-4.673-.462-6-1.17v1.28c0 .912 2.686 1.651 6 1.651V6.404zm1.908-.094l2.185 1.411C13.266 7.42 14 6.991 14 6.514v-1.28c-.974.52-2.414.906-4.092 1.076zM8 9.266c-2.48 0-4.673-.462-6-1.17v1.36c0 .868 2.686 1.572 6 1.572V9.265zm6-.312l-.783-.506c.286-.109.548-.226.783-.351v.857zm-6 3.174V14c-3.314 0-6-.74-6-1.651v-1.39c1.327.707 3.52 1.17 6 1.17zM2 3.651c0 .912 2.686 1.652 6 1.652s6-.74 6-1.652C14 2.74 11.314 2 8 2s-6 .74-6 1.651z" fill="#6E6E6E"/></svg>