<svg xmlns="http://www.w3.org/2000/svg" width="16" height="16" viewBox="0 0 16 16">
  <g fill="none" fill-rule="evenodd">
    <polygon fill="#9AA7B0" fill-opacity=".8" points="7 1 3 5 7 5"/>
    <polygon fill="#9AA7B0" fill-opacity=".8" points="8 1 8 6 3 6 3 15 8.92 15 8.92 8 13 8 13 1"/>
    <path fill="#231F20" fill-opacity=".7" d="M11,15 L15,15 L15,10 L11,10 L11,15 Z M10,16 L16,16 L16,9 L10,9 L10,16 Z"/>
    <polygon fill="#231F20" fill-opacity=".7" points="12 12 14 12 14 11 12 11"/>
    <polygon fill="#231F20" fill-opacity=".7" points="12 14 14 14 14 13 12 13"/>
  </g>
</svg>
