<svg xmlns="http://www.w3.org/2000/svg" width="16" height="16" viewBox="0 0 16 16"><rect id="frame" width="16" height="16" fill="none"/><g fill="none" fill-rule="evenodd"><path fill="#499C54" d="M6 12H4l4-4 4 4h-2v3H6z"/><path fill="#AFB1B3" d="M3 7V1.4h2.088c1.76 0 2.976 1.208 2.976 2.784V4.2c0 1.576-1.216 2.8-2.976 2.8H3zm2.088-4.704H3.984v3.808h1.104c1.176 0 1.944-.792 1.944-1.888V4.2c0-1.096-.768-1.904-1.944-1.904zM9 7V1.4h2.512c.64 0 1.144.176 1.464.496.248.248.376.56.376.928v.016c0 .672-.384 1.032-.8 1.248.656.224 1.112.6 1.112 1.36v.016c0 1-.824 1.536-2.072 1.536H9zm3.368-4v-.016c0-.44-.352-.712-.984-.712H9.968V3.76h1.344c.632 0 1.056-.248 1.056-.76zm.312 2.344c0-.472-.376-.752-1.152-.752h-1.56v1.536H11.6c.664 0 1.08-.264 1.08-.768v-.016z"/></g></svg>