<svg xmlns="http://www.w3.org/2000/svg" width="13" height="13" viewBox="0 0 13 13"><rect id="frame" width="13" height="13" fill="none"/><path d="M6 6.407c-2.803-.075-5-.777-5-1.63v-1.27c1.127.65 2.933 1.09 5 1.153v1.747zm0 2.839c-2.803-.072-5-.739-5-1.551v-1.35c1.127.65 2.933 1.091 5 1.153v1.748zm0 2.947c-2.803-.075-5-.776-5-1.63V9.183c1.127.65 2.933 1.09 5 1.153v1.856zm.5-8.618c-3.038 0-5.5-.733-5.5-1.637C1 1.033 3.462.3 6.5.3s5.5.733 5.5 1.638c0 .904-2.462 1.637-5.5 1.637zM7 6h6v7H7V6zm1 1v5h4V7H8zm1 1h2v1H9V8zm0 2h2v1H9v-1z" fill="#AFB1B3" fill-rule="evenodd"/></svg>