<svg xmlns="http://www.w3.org/2000/svg" width="13" height="13" viewBox="0 0 13 13"><rect id="frame" width="13" height="13" fill="none"/><g fill="#AFB1B3" fill-rule="evenodd"><path d="M10 6.04c-.95.233-2.17.374-3.5.374-3.038 0-5.5-.733-5.5-1.638V3.507c1.217.702 3.226 1.16 5.5 1.16s4.283-.458 5.5-1.16v1.27c0 .486-.713.923-1.845 1.223H10v.04zm-9 .306c.928.535 2.318.928 3.934 1.085a3.987 3.987 0 0 0-.832 1.666C2.266 8.845 1 8.31 1 7.695v-1.35zm3.594 5.753C2.496 11.869 1 11.267 1 10.562V9.184c.744.43 1.786.768 3.003.965.026.714.239 1.38.591 1.95zM6.5 3.575c-3.038 0-5.5-.733-5.5-1.637C1 1.033 3.462.3 6.5.3s5.5.733 5.5 1.638c0 .904-2.462 1.637-5.5 1.637z"/><path d="M11.647 6.696l1.131 1.132-4.243 4.242-1.13-1.13z"/><path d="M6.556 8.676l2.687 2.687-1.132 1.132-2.687-2.687z"/></g></svg>