<svg xmlns="http://www.w3.org/2000/svg" width="16" height="16" viewBox="0 0 16 16"><rect id="frame" width="16" height="16" fill="none"/><g fill="#9AA7B0" fill-rule="evenodd"><path fill-opacity=".8" d="M7 1L3 5h4z"/><path fill-opacity=".8" d="M13 6.32a3.18 3.18 0 0 0-.9.587c-.51.477-.86 1.08-1.058 1.82H9.986L9.042 12h1.07l-.856 2.97H3V6h5V1h5v5.32zm0 8.391v.26h-.075l.075-.26z"/><path d="M14.674 8.262c.328 0 .656.073.97.195L16 7.22C15.658 7.086 15.186 7 14.635 7c-.762 0-1.392.209-1.852.637-.354.332-.63.77-.8 1.445l-.182.645H10.738L10.37 11h1.069l-.124.438L10 16h1.588l1.44-5h2.009l.367-1.273h-2.026l.153-.56c.185-.624.565-.905 1.143-.905"/></g></svg>