<svg xmlns="http://www.w3.org/2000/svg" width="16" height="16" viewBox="0 0 16 16"><rect id="frame" width="16" height="16" fill="none"/><g fill="none" fill-rule="evenodd"><path fill="#40B6E0" d="M11 13v-1H9v1H7v-1H5v1H3v2h10v-2z"/><path fill="#40B6E0" d="M13.001 5h-.999l-.001 1.999 1 .001L13 9h-1l.001 1.999h1v2h1.998L15 3h-1.999z"/><path fill="#9AA7B0" fill-opacity=".8" d="M5 3v1h2V3h2v1h2V3h2V1H3v2z"/><path fill="#9AA7B0" fill-opacity=".8" d="M2.999 11h.999l.001-1.999-1-.001L3 7h1l-.001-1.999h-1v-2H1.001L1 13h1.999z"/></g></svg>