<svg xmlns="http://www.w3.org/2000/svg" width="16" height="16" viewBox="0 0 16 16"><rect id="frame" width="16" height="16" fill="none"/><path fill="#40B6E0" fill-opacity=".7" fill-rule="evenodd" d="M4 1a3 3 0 0 0-3 3v7a3 3 0 0 0 3 3h6.28l1.22 1H15l-1.879-1.879A2.99 2.99 0 0 0 14 11V4a3 3 0 0 0-3-3H4zm3.5 6C4 7 3 6 3 6v1s1 1 4.5 1S12 7 12 7V6s-1 1-4.5 1zm0-1C9.985 6 12 5.328 12 4.5S9.985 3 7.5 3 3 3.672 3 4.5 5.015 6 7.5 6zm0 3C4 9 3 8 3 8v1s1 1 4.5 1S12 9 12 9V8s-1 1-4.5 1zM3 10s1 1 4.5 1 4.5-1 4.5-1v1s-1 1-4.5 1S3 11 3 11v-1z"/></svg>