<svg xmlns="http://www.w3.org/2000/svg" width="16" height="16" viewBox="0 0 16 16"><rect id="frame" width="16" height="16" fill="none"/><g fill="#9AA7B0" fill-rule="evenodd"><path d="M3 11h2v2H3z"/><path d="M6 11h2v2H6z"/><path d="M9 11h2v2H9z"/><path d="M12 11h2v2h-2z"/><path d="M3 8h2v2H3z"/><path d="M6 8h2v2H6z"/><path d="M9 8h2v2H9z"/><path d="M12 8h2v2h-2z"/><path d="M2.914 4.5l1.414 1.414-1.414 1.414L1.5 5.914z"/><path d="M6 5h2v2H6z"/><path d="M9 5h2v2H9z"/><path d="M12 5h2v2h-2z"/><path d="M9 2h2v2H9z"/><path d="M12 2h2v2h-2z"/></g></svg>