<svg xmlns="http://www.w3.org/2000/svg" width="16" height="16" viewBox="0 0 16 16">
  <path fill="#AFB1B3" fill-rule="evenodd" d="M9.8916 7L10.9996 4 9.4736 4 8.3656 7 9.8916 7zM8.6896 10.253L7.3056 14 5.7786 14 7.0456 10.571 5.4506 6.623 3.5756 11 1.9996 11 4.6846 4.73 3.1776 1 4.6506 1 7.7486 8.667 7.9996 7.987 7.9996 9.333 8.6896 10.253zM12.5859 14L10.4139 14 11.2499 12.164 11.2499 10.836 10.4139 9 12.5859 9 11.7499 10.836 11.7499 12.164 12.5859 14zM13.9999 9L13.9999 8 8.9999 8 8.9999 9 10.4999 11 10.4999 12 8.9999 14 8.9999 15 13.9999 15 13.9999 14 12.4999 12 12.4999 11 13.9999 9z"/>
</svg>
