<svg xmlns="http://www.w3.org/2000/svg" width="16" height="16" viewBox="0 0 16 16">
  <g fill-rule="evenodd">
    <path fill="#AFB1B3" d="M8,9.333 L8,7.987 L7.749,8.666 L4.65,1 L3.178,1 L4.685,4.73 L2,11 L3.575,11 L5.45,6.623 L7.046,10.571 L5.778,14 L7.306,14 L8.689,10.253 L8,9.333 Z M8.365,7 L9.474,4 L11,4 L9.892,7 L8.365,7 Z"/>
    <path fill="#C75450" d="M12.5859,14 L10.4139,14 L11.2499,12.164 L11.2499,10.836 L10.4139,9 L12.5859,9 L11.7499,10.836 L11.7499,12.164 L12.5859,14 Z M13.9999,9 L13.9999,8 L8.9999,8 L8.9999,9 L10.4999,11 L10.4999,12 L8.9999,14 L8.9999,15 L13.9999,15 L13.9999,14 L12.4999,12 L12.4999,11 L13.9999,9 Z"/>
  </g>
</svg>
