<svg xmlns="http://www.w3.org/2000/svg" xmlns:xlink="http://www.w3.org/1999/xlink" width="64" height="64" viewBox="0 0 64 64"><rect id="frame" width="64" height="64" fill="none"/><defs><linearGradient id="b" x1="50%" x2="103.297%" y1="28.391%" y2="69.421%"><stop offset="0%" stop-color="#FF318C"/><stop offset="100%" stop-color="#009AE5"/></linearGradient><path id="a" d="M24 0l-3.7 27.7 4.3-1.8L38.9 8.1z"/><linearGradient id="d" x1="46.609%" x2="38.287%" y1="50%" y2="108.628%"><stop offset="0%" stop-color="#21D789"/><stop offset="100%" stop-color="#009AE5"/></linearGradient><path id="c" d="M5.9 11.6L0 47l22.3-8.6L24 0z"/><linearGradient id="f" x1="87.515%" x2="13.422%" y1="4.52%" y2="78.894%"><stop offset="0%" stop-color="#21D789"/><stop offset="100%" stop-color="#009AE5"/></linearGradient><path id="e" d="M38.9 8.1L27.5 20.7 0 47l20.8 15.2 26-23.6 15.901-19.4L54.5 2.4z"/><linearGradient id="h" x1="30.528%" x2="78.5%" y1="56.312%" y2="79.566%"><stop offset="0%" stop-color="#21D789"/><stop offset="100%" stop-color="#009AE5"/></linearGradient><path id="g" d="M23.3 49.2l14.6 11.299L53.9 64 64 41.2 26.9 27.299z"/><linearGradient id="j" x1="50%" x2="50%" y1="-11.618%" y2="60.589%"><stop offset="0%" stop-color="#A6A5A5"/><stop offset="0%" stop-color="#989898" stop-opacity=".568"/><stop offset="100%"/></linearGradient><path id="i" d="M0 40h40V0H0z"/></defs><g fill="none" fill-rule="evenodd"><use fill="#FF318C" xlink:href="#a"/><use fill="url(#b)" xlink:href="#a"/><use fill="#21D789" xlink:href="#c"/><use fill="url(#d)" xlink:href="#c"/><use fill="#21D789" xlink:href="#e"/><use fill="url(#f)" xlink:href="#e"/><use fill="#21D789" xlink:href="#g"/><use fill="url(#h)" xlink:href="#g"/><g transform="translate(12 12)"><use fill="#000" xlink:href="#i"/><use fill="url(#j)" xlink:href="#i"/><path fill="#FFF" d="M3.194 13.562v-.048c0-4.711 3.55-8.57 8.642-8.57 3.125 0 4.996 1.04 6.534 2.556l-2.32 2.675c-1.278-1.16-2.58-1.87-4.238-1.87-2.793 0-4.806 2.32-4.806 5.162v.046c0 2.842 1.965 5.21 4.806 5.21 1.894 0 3.054-.758 4.356-1.941l2.32 2.343c-1.704 1.823-3.598 2.96-6.794 2.96-4.877 0-8.5-3.764-8.5-8.524"/><path fill="#FFF" d="M21 5h3.744v13.854h7.425V22H21z"/><path fill="#FFF" d="M4 35h15v-2.5H4z"/></g><path fill="#D99E2B" d="M28 64h36V44H28z"/><path fill="#000" d="M32 60h7.5v-1.899h-5.7V54.9h5V53h-5v-3.1h5.6V48H32z"/><path fill="#000" d="M44.2 55.3l1.8-4.8 1.9 4.8h-3.7zM40.4 60h1.9l1.1-2.9h5.1l1.1 2.9h2l-4.7-12h-1.8l-4.7 12zm13.414-5.8v-4.3H55.6c1.37 0 2 .7 2.101 1.8v.4c0 1.188-.655 2.1-1.8 2.1h-2.086zm0 5.8v-3.9H55.5c2.291.042 4.011-1.752 4.011-3.796v-.5c0-2.219-1.576-3.804-3.63-3.804H52v12h1.813z"/></g></svg>