<svg xmlns="http://www.w3.org/2000/svg" xmlns:xlink="http://www.w3.org/1999/xlink" width="16" height="16" viewBox="0 0 16 16"><rect id="frame" width="16" height="16" fill="none"/><defs><linearGradient id="b" x1="50%" x2="50%" y1="-11.618%" y2="60.589%"><stop offset="0%" stop-color="#A6A5A5"/><stop offset="0%" stop-color="#989898" stop-opacity=".568"/><stop offset="100%"/></linearGradient><path id="a" d="M1 15h14V1H1z"/></defs><g fill="none" fill-rule="evenodd"><path fill="#21D789" d="M0 16h16V0H0z"/><use fill="#000" xlink:href="#a"/><use fill="url(#b)" xlink:href="#a"/><path fill="#FFF" d="M9 3h1.2v3.8H13V8H9z"/><path fill="#FFF" d="M3 13h6v-1H3z"/><path fill="#D99E2B" d="M3 16h13V9H3z"/><path fill="#000" d="M4 10h3v.8H4.8V12h1.7v.8H4.8v1.4h2.198v.8H4z"/><path fill="#000" d="M14.2 11.709c0 .495-.187.875-.645.875H12.8v-1.793h.636c.547 0 .724.293.764.75v.168zM11.997 10v5h.803v-1.625h.595A1.578 1.578 0 0 0 15 11.792v-.207C15 10.66 14.37 10 13.547 10h-1.55zm-3.196 3l.72-1.959L10.28 13H8.8zm1.079-3h-.72l-1.88 5h.76l.44-1.2h2.039l.44 1.2h.799L9.88 10z"/><path fill="#FFF" d="M2.8 5.5C2.8 4.166 3.954 3 5.684 3c1.06 0 1.635.333 2.116.75l-.77.75c-.384-.334-.865-.5-1.442-.5-.865 0-1.538.666-1.538 1.5 0 .833.673 1.5 1.634 1.5.673 0 1.06-.25 1.443-.584l.673.75c-.576.5-1.154.834-2.212.834C3.954 8 2.8 6.916 2.8 5.5"/></g></svg>