<svg xmlns="http://www.w3.org/2000/svg" xmlns:xlink="http://www.w3.org/1999/xlink" width="64" height="64" viewBox="0 0 64 64">
  <defs>
    <linearGradient id="clion-eap-b" x1="50%" x2="103.297%" y1="28.391%" y2="69.421%">
      <stop offset="0%" stop-color="#FF318C"/>
      <stop offset="100%" stop-color="#009AE5"/>
    </linearGradient>
    <polygon id="clion-eap-a" points="24 0 20.3 27.7 24.6 25.9 38.9 8.1"/>
    <linearGradient id="clion-eap-d" x1="46.609%" x2="38.287%" y1="50%" y2="108.628%">
      <stop offset="0%" stop-color="#21D789"/>
      <stop offset="100%" stop-color="#009AE5"/>
    </linearGradient>
    <polygon id="clion-eap-c" points="5.9 11.6 0 47 22.3 38.4 24 0"/>
    <linearGradient id="clion-eap-f" x1="87.515%" x2="13.422%" y1="4.52%" y2="78.894%">
      <stop offset="0%" stop-color="#21D789"/>
      <stop offset="100%" stop-color="#009AE5"/>
    </linearGradient>
    <polygon id="clion-eap-e" points="38.9 8.1 27.5 20.7 0 47 20.8 62.2 46.8 38.6 62.701 19.2 54.5 2.4"/>
    <linearGradient id="clion-eap-h" x1="30.528%" x2="78.5%" y1="56.312%" y2="79.566%">
      <stop offset="0%" stop-color="#21D789"/>
      <stop offset="100%" stop-color="#009AE5"/>
    </linearGradient>
    <polygon id="clion-eap-g" points="23.3 49.2 37.9 60.499 53.9 64 64 41.2 26.9 27.299"/>
    <linearGradient id="clion-eap-j" x1="50%" x2="50%" y1="-11.618%" y2="60.589%">
      <stop offset="0%" stop-color="#A6A5A5"/>
      <stop offset="0%" stop-color="#989898" stop-opacity=".568"/>
      <stop offset="100%"/>
    </linearGradient>
    <polygon id="clion-eap-i" points="0 40 40 40 40 0 0 0"/>
  </defs>
  <g fill="none" fill-rule="evenodd">
    <use fill="#FF318C" xlink:href="#clion-eap-a"/>
    <use fill="url(#clion-eap-b)" xlink:href="#clion-eap-a"/>
    <use fill="#21D789" xlink:href="#clion-eap-c"/>
    <use fill="url(#clion-eap-d)" xlink:href="#clion-eap-c"/>
    <use fill="#21D789" xlink:href="#clion-eap-e"/>
    <use fill="url(#clion-eap-f)" xlink:href="#clion-eap-e"/>
    <use fill="#21D789" xlink:href="#clion-eap-g"/>
    <use fill="url(#clion-eap-h)" xlink:href="#clion-eap-g"/>
    <g transform="translate(12 12)">
      <use fill="#000" xlink:href="#clion-eap-i"/>
      <use fill="url(#clion-eap-j)" xlink:href="#clion-eap-i"/>
      <path fill="#FFF" d="M3.1938,13.5615 L3.1938,13.5135 C3.1938,8.8025 6.7448,4.9435 11.8358,4.9435 C14.9608,4.9435 16.8318,5.9845 18.3698,7.4995 L16.0498,10.1755 C14.7718,9.0155 13.4698,8.3055 11.8118,8.3055 C9.0188,8.3055 7.0058,10.6255 7.0058,13.4665 L7.0058,13.5135 C7.0058,16.3555 8.9708,18.7225 11.8118,18.7225 C13.7058,18.7225 14.8658,17.9645 16.1678,16.7815 L18.4888,19.1255 C16.7838,20.9485 14.8898,22.0855 11.6938,22.0855 C6.8168,22.0855 3.1938,18.3215 3.1938,13.5615"/>
      <polygon fill="#FFF" points="21 5 24.744 5 24.744 18.854 32.169 18.854 32.169 22 21 22"/>
      <polygon fill="#FFF" points="4 35 19 35 19 32.5 4 32.5"/>
    </g>
    <g transform="translate(28 44)">
      <polygon fill="#D99E2B" points="0 20 36 20 36 0 0 0"/>
      <polygon fill="#000" points="4 16 11.5 16 11.5 14.101 5.8 14.101 5.8 10.9 10.8 10.9 10.8 9 5.8 9 5.8 5.9 11.4 5.9 11.4 4 4 4"/>
      <path fill="#000" d="M16.2002 11.2996L18.0002 6.4996 19.9002 11.2996 16.2002 11.2996zM12.4002 15.9996L14.3002 15.9996 15.4002 13.1006 20.5002 13.1006 21.5992 15.9996 23.5992 15.9996 18.9002 3.9996 17.0992 3.9996 12.4002 15.9996zM25.8145 10.2L25.8145 5.9 27.5995 5.9C28.9695 5.9 29.5995 6.6 29.7005 7.7L29.7005 8.1C29.7005 9.288 29.0455 10.2 27.9005 10.2L25.8145 10.2zM25.8145 16L25.8145 12.1 27.5005 12.1C29.7915 12.142 31.5115 10.348 31.5115 8.304L31.5115 7.804C31.5115 5.585 29.9355 4 27.8805 4L24.0005 4 24.0005 16 25.8145 16z"/>
    </g>
  </g>
</svg>
