<svg xmlns="http://www.w3.org/2000/svg" xmlns:xlink="http://www.w3.org/1999/xlink" width="16" height="16" viewBox="0 0 16 16"><rect id="frame" width="16" height="16" fill="none"/><defs><linearGradient id="b" x1="50%" x2="103.297%" y1="28.391%" y2="69.421%"><stop offset="0%" stop-color="#FF318C"/><stop offset="100%" stop-color="#009AE5"/></linearGradient><path id="a" d="M6.05 0l-.975 6.925 1.075-.45 3.575-4.45z"/><linearGradient id="d" x1="46.495%" x2="37.893%" y1="50%" y2="108.628%"><stop offset="0%" stop-color="#21D789"/><stop offset="100%" stop-color="#009AE5"/></linearGradient><path id="c" d="M1.475 2.9L0 11.75 5.575 9.6 6.1 0z"/><linearGradient id="f" x1="87.515%" x2="13.422%" y1="4.52%" y2="78.894%"><stop offset="0%" stop-color="#21D789"/><stop offset="100%" stop-color="#009AE5"/></linearGradient><path id="e" d="M9.725 2.025l-2.85 3.15L0 11.75l5.2 3.8 6.5-5.9 3.975-4.85-2.05-4.2z"/><linearGradient id="h" x1="30.528%" x2="78.5%" y1="56.312%" y2="79.566%"><stop offset="0%" stop-color="#21D789"/><stop offset="100%" stop-color="#009AE5"/></linearGradient><path id="g" d="M5.825 12.3l3.65 2.825 4 .875L16 10.3 6.725 6.825z"/><linearGradient id="j" x1="50%" x2="50%" y1="-11.618%" y2="60.589%"><stop offset="0%" stop-color="#A6A5A5"/><stop offset="0%" stop-color="#989898" stop-opacity=".568"/><stop offset="100%"/></linearGradient><path id="i" d="M0 10h10V0H0z"/><linearGradient id="l" x1="50%" x2="103.297%" y1="28.391%" y2="69.421%"><stop offset="0%" stop-color="#FF318C"/><stop offset="100%" stop-color="#009AE5"/></linearGradient><path id="k" d="M6 0l-.925 6.925 1.075-.45 3.575-4.45z"/><linearGradient id="n" x1="46.609%" x2="38.287%" y1="50%" y2="108.628%"><stop offset="0%" stop-color="#21D789"/><stop offset="100%" stop-color="#009AE5"/></linearGradient><path id="m" d="M1.475 2.9L0 11.75 5.575 9.6 6 0z"/><path id="o" d="M9.725 2.025l-2.85 3.15L0 11.75l5.2 3.8 6.5-5.9 3.975-4.85-2.05-4.2z"/><path id="p" d="M5.825 12.3l3.65 2.825 4 .875L16 10.3 6.725 6.825z"/><path id="q" d="M0 10h10V0H0z"/></defs><g fill="none" fill-rule="evenodd"><use fill="#FF318C" xlink:href="#a"/><use fill="url(#b)" xlink:href="#a"/><use fill="#21D789" xlink:href="#c"/><use fill="url(#d)" xlink:href="#c"/><use fill="#21D789" xlink:href="#e"/><use fill="url(#f)" xlink:href="#e"/><use fill="#21D789" xlink:href="#g"/><use fill="url(#h)" xlink:href="#g"/><g transform="translate(3 3)"><use fill="#000" xlink:href="#i"/><use fill="url(#j)" xlink:href="#i"/><path fill="#FFF" d="M.95 3.45C.95 2.2 1.9 1.2 3.2 1.2c.8 0 1.3.25 1.7.65l-.6.7c-.35-.3-.65-.5-1.1-.5-.75 0-1.25.6-1.25 1.35 0 .75.5 1.35 1.25 1.35.5 0 .8-.2 1.15-.5l.6.6c-.45.5-.95.75-1.8.75-1.25.05-2.2-.95-2.2-2.15"/><path fill="#FFF" d="M5.6 1.25h.95v3.5h1.9v.8H5.6z"/><path fill="#FFF" d="M1 8.5h4V8H1z"/></g><use fill="#FF318C" xlink:href="#k"/><use fill="url(#l)" xlink:href="#k"/><use fill="#21D789" xlink:href="#m"/><use fill="url(#n)" xlink:href="#m"/><use fill="#21D789" xlink:href="#o"/><use fill="url(#f)" xlink:href="#o"/><use fill="#21D789" xlink:href="#p"/><use fill="url(#h)" xlink:href="#p"/><g transform="translate(3 3)"><use fill="#000" xlink:href="#q"/><use fill="url(#j)" xlink:href="#q"/><path fill="#FFF" d="M1 8.5h4V8H1z"/></g><path fill="#D99E2B" d="M7 16h9v-5H7z"/><path fill="#000" d="M8 15h1.875v-.475H8.45v-.8H9.7v-.475H8.45v-.775h1.4V12H8z"/><path fill="#000" d="M11.05 13.825l.45-1.2.475 1.2h-.925zM10.1 15h.475l.275-.725h1.275L12.4 15h.5l-1.175-3h-.45L10.1 15zm3.354-1.45v-1.075h.446c.342 0 .5.175.525.45v.1c0 .297-.164.525-.45.525h-.521zm0 1.45v-.975h.421a.967.967 0 0 0 1.003-.949v-.125c0-.555-.394-.951-.908-.951H13v3h.454z"/><path fill="#FFF" d="M8.6 4v4.5h2.957v-.832H9.591V4z"/><path fill="#FFF" d="M4 6.25c0-1.264.953-2.3 2.32-2.3.838 0 1.34.279 1.752.686l-.623.718c-.342-.311-.692-.501-1.136-.501-.75 0-1.29.622-1.29 1.384v.013c0 .762.527 1.397 1.29 1.397.508 0 .819-.202 1.169-.52l.622.629c-.458.49-.966.794-1.823.794C4.972 8.55 4 7.539 4 6.263V6.25z"/></g></svg>