<svg xmlns="http://www.w3.org/2000/svg" width="16" height="16" viewBox="0 0 16 16"><rect id="frame" width="16" height="16" fill="none"/><g fill="none" fill-rule="evenodd"><path fill="#9AA7B0" fill-opacity=".8" d="M7.985 4L6.697 2.711C6.305 2.32 5.533 2 4.979 2H1.05a.05.05 0 0 0-.05.051V13h3V7h11V4H7.985z"/><path fill="#40B6E0" fill-opacity=".6" d="M5 16h11V8H5z"/><path fill="#231F20" fill-opacity=".7" d="M12 13.283c-.47.459-.972.695-1.9.717-1.039.022-2.1-.72-2.1-2 0-1.288.971-2 2.1-2 .848 0 1.448.185 1.8.554l.616-.717C11.83 9.27 11.288 9 10.098 9 8.34 9 7 10.358 7 12c0 1.682 1.364 3 3.002 3 1.29 0 2.021-.407 2.614-1.019L12 13.283z"/></g></svg>