<svg width="80" height="80" viewBox="0 0 80 80" fill="none" xmlns="http://www.w3.org/2000/svg">
<g clip-path="url(#clip0)">
<path d="M80.0002 31.1667L23.9169 0L61.5002 55.8333L69.1669 50.75L80.0002 31.1667Z" fill="url(#paint0_linear)"/>
<path d="M57.6667 18.4167L50.5834 1.25L35.0834 16.5833L41.4167 72.0833L56.5 80L80 66.25L57.6667 18.4167Z" fill="url(#paint1_linear)"/>
<path d="M23.9167 0L0 16.0833L8.91667 71.0833L31.8333 79.8333L61.5 55.8333L23.9167 0Z" fill="url(#paint2_linear)"/>
<path d="M65 15H15V65H65V15Z" fill="url(#paint3_linear)"/>
<path d="M39.9 55.5H21.2V58.6H39.9V55.5Z" fill="white"/>
<path d="M21.2817 21.62H29.691C32.0587 21.62 33.7733 22.2732 35.0796 23.4978C36.1409 24.5592 36.6308 25.9472 36.6308 27.6617V27.7433C36.6308 29.2129 36.3042 30.4376 35.5694 31.4173C34.8346 32.3154 33.8549 33.0502 32.7119 33.4584L37.2023 39.99H32.4669L28.6297 34.3565H25.2822V39.99H21.2V21.62H21.2817ZM29.4461 30.5192C30.4258 30.5192 31.2423 30.2743 31.7321 29.7844C32.3037 29.2946 32.5486 28.6414 32.5486 27.9066V27.825C32.5486 26.9269 32.3037 26.2737 31.7321 25.8655C31.1606 25.4573 30.4258 25.2124 29.3645 25.2124H25.3639V30.5192H29.4461Z" fill="white"/>
<path d="M39.7 21.62H46.8925C52.627 21.62 56.6121 25.605 56.6121 30.7564V30.8536C56.6121 36.005 52.627 39.99 46.8925 39.99H39.7V21.62ZM43.685 25.2162V36.2966H46.7953C50.1 36.2966 52.3355 34.0611 52.3355 30.8536V30.7564C52.3355 27.5489 50.1 25.2162 46.7953 25.2162H43.685Z" fill="white"/>
</g>
<defs>
<linearGradient id="paint0_linear" x1="74.857" y1="45.8298" x2="13.1912" y2="10.442" gradientUnits="userSpaceOnUse">
<stop offset="0" stop-color="#DD1265"/>
<stop offset="0.4834" stop-color="#DD1265"/>
<stop offset="0.9424" stop-color="#FDB60D"/>
</linearGradient>
<linearGradient id="paint1_linear" x1="38.1894" y1="6.9855" x2="62.6339" y2="74.4855" gradientUnits="userSpaceOnUse">
<stop offset="0.1392" stop-color="#087CFA"/>
<stop offset="0.4757" stop-color="#DD1265"/>
<stop offset="0.9581" stop-color="#087CFA"/>
</linearGradient>
<linearGradient id="paint2_linear" x1="19.8802" y1="9.06708" x2="37.9357" y2="73.2338" gradientUnits="userSpaceOnUse">
<stop offset="0.2775" stop-color="#DD1265"/>
<stop offset="0.9684" stop-color="#FDB60D"/>
</linearGradient>
<linearGradient id="paint3_linear" x1="39.9989" y1="2.84554" x2="39.9989" y2="47.6855" gradientUnits="userSpaceOnUse">
<stop offset="0.0842986" stop-color="#878585"/>
<stop offset="0.5377"/>
</linearGradient>
<clipPath id="clip0">
<path d="M0 0H80V80H0V0Z" fill="white"/>
</clipPath>
</defs>
</svg>
