<svg width="128" height="128" viewBox="0 0 128 128" fill="none" xmlns="http://www.w3.org/2000/svg">
<path d="M128 49.8667L38.267 0L98.4003 89.3333L110.667 81.2L128 49.8667Z" fill="url(#paint0_linear)"/>
<path d="M92.2668 29.4667L80.9334 2L56.1334 26.5333L66.2668 115.333L90.4001 128L128 106L92.2668 29.4667Z" fill="url(#paint1_linear)"/>
<path d="M38.2667 0L0 25.7333L14.2667 113.733L50.9333 127.733L98.4 89.3333L38.2667 0Z" fill="url(#paint2_linear)"/>
<path d="M103 25H25V103H103V25Z" fill="url(#paint3_linear)"/>
<path d="M62.7001 89.5668H33.6667V94.3335H62.7001V89.5668Z" fill="white"/>
<path d="M33.7998 34.75H47.1715C50.9363 34.75 53.6626 35.7886 55.7398 37.7359C57.4274 39.4236 58.2064 41.6306 58.2064 44.3568V44.4867C58.2064 46.8235 57.6871 48.7708 56.5187 50.3287C55.3503 51.7567 53.7924 52.9251 51.9749 53.5742L59.1151 63.96H51.5854L45.4838 55.0023H40.1611V63.96H33.67V34.75H33.7998ZM46.782 48.9006C48.3399 48.9006 49.6381 48.5112 50.417 47.7322C51.3258 46.9533 51.7153 45.9147 51.7153 44.7463V44.6165C51.7153 43.1884 51.3258 42.1499 50.417 41.5008C49.5083 40.8516 48.3399 40.4622 46.6522 40.4622H40.2909V48.9006H46.782Z" fill="white"/>
<path d="M63 34.75H74.4041C83.6564 34.75 89.8964 40.99 89.8964 49.1665C89.8964 57.3429 83.6564 63.7981 74.4041 63.7981L63 64.0132V34.75ZM69.4551 40.7748V58.2036H74.4041C79.5682 58.2036 83.2261 54.7609 83.2261 49.5968C83.2261 44.4327 79.7833 40.7748 74.4041 40.7748H69.4551Z" fill="white"/>
<defs>
<linearGradient id="paint0_linear" x1="119.771" y1="73.3277" x2="21.1059" y2="16.7072" gradientUnits="userSpaceOnUse">
<stop offset="0" stop-color="#DD1265"/>
<stop offset="0.4834" stop-color="#DD1265"/>
<stop offset="0.9424" stop-color="#FDB60D"/>
</linearGradient>
<linearGradient id="paint1_linear" x1="61.103" y1="11.1768" x2="100.214" y2="119.177" gradientUnits="userSpaceOnUse">
<stop offset="0.1392" stop-color="#087CFA"/>
<stop offset="0.4757" stop-color="#DD1265"/>
<stop offset="0.9581" stop-color="#087CFA"/>
</linearGradient>
<linearGradient id="paint2_linear" x1="31.8083" y1="14.5073" x2="60.6972" y2="117.174" gradientUnits="userSpaceOnUse">
<stop offset="0.2775" stop-color="#DD1265"/>
<stop offset="0.9684" stop-color="#FDB60D"/>
</linearGradient>
<linearGradient id="paint3_linear" x1="63.896" y1="6.0421" x2="63.896" y2="75.9925" gradientUnits="userSpaceOnUse">
<stop offset="0.0842986" stop-color="#878585"/>
<stop offset="0.5377"/>
</linearGradient>
</defs>
</svg>
