<svg width="32" height="32" viewBox="0 0 32 32" fill="none" xmlns="http://www.w3.org/2000/svg">
<path d="M32 12.4667L9.56671 0L24.6 22.3333L27.6667 20.3L32 12.4667Z" fill="url(#paint0_linear)"/>
<path d="M23.0667 7.36667L20.2334 0.5L14.0334 6.63333L16.5667 28.8333L22.6001 32L32.0001 26.5L23.0667 7.36667Z" fill="url(#paint1_linear)"/>
<path d="M9.56667 0L0 6.43333L3.56667 28.4333L12.7333 31.9333L24.6 22.3333L9.56667 0Z" fill="url(#paint2_linear)"/>
<path d="M26 6H6V26H26V6Z" fill="url(#paint3_linear)"/>
<path d="M16 23H8V24H16V23Z" fill="white"/>
<path d="M8.03502 8H11.6423C12.658 8 13.3934 8.28018 13.9538 8.80551C14.4091 9.2608 14.6192 9.85618 14.6192 10.5916V10.6267C14.6192 11.2571 14.4791 11.7824 14.1639 12.2027C13.8487 12.5879 13.4284 12.9031 12.9381 13.0782L14.8644 15.88H12.8331L11.187 13.4635H9.75111V15.88H8V8H8.03502ZM11.5372 11.8174C11.9575 11.8174 12.3077 11.7124 12.5179 11.5022C12.763 11.2921 12.8681 11.0119 12.8681 10.6967V10.6617C12.8681 10.2764 12.763 9.99627 12.5179 9.82116C12.2727 9.64604 11.9575 9.54098 11.5022 9.54098H9.78613V11.8174H11.5372Z" fill="white"/>
<path d="M16 8H18.9709C21.3704 8 23.0844 9.71397 23.0844 11.885C23.0844 14.056 21.3704 15.77 18.9709 15.77H16V8ZM17.714 9.71397V14.2846H19.0851C20.4563 14.2846 21.3704 13.3704 21.3704 11.9993C21.3704 10.6281 20.4563 9.71397 19.0851 9.71397H17.714Z" fill="white"/>
<defs>
<linearGradient id="paint0_linear" x1="29.9428" y1="18.3319" x2="5.27645" y2="4.1768" gradientUnits="userSpaceOnUse">
<stop offset="0" stop-color="#DD1265"/>
<stop offset="0.4834" stop-color="#DD1265"/>
<stop offset="0.9424" stop-color="#FDB60D"/>
</linearGradient>
<linearGradient id="paint1_linear" x1="15.2758" y1="2.7942" x2="25.0536" y2="29.7942" gradientUnits="userSpaceOnUse">
<stop offset="0.1392" stop-color="#087CFA"/>
<stop offset="0.4757" stop-color="#DD1265"/>
<stop offset="0.9581" stop-color="#087CFA"/>
</linearGradient>
<linearGradient id="paint2_linear" x1="7.95207" y1="3.62683" x2="15.1743" y2="29.2935" gradientUnits="userSpaceOnUse">
<stop offset="0.2775" stop-color="#DD1265"/>
<stop offset="0.9684" stop-color="#FDB60D"/>
</linearGradient>
<linearGradient id="paint3_linear" x1="15.9733" y1="1.139" x2="15.9733" y2="19.075" gradientUnits="userSpaceOnUse">
<stop offset="0.0842986" stop-color="#878585"/>
<stop offset="0.5377"/>
</linearGradient>
</defs>
</svg>
