<svg xmlns="http://www.w3.org/2000/svg" width="16" height="16" viewBox="0 0 16 16"><rect id="frame" width="16" height="16" fill="none"/><g fill="none" fill-rule="evenodd"><circle cx="8" cy="7.8" r="5" fill="#40B6E0" fill-opacity=".6" fill-rule="nonzero"/><path fill="#231F20" fill-rule="nonzero" d="M10.371 9.55l-.482-.488a2.225 2.225 0 0 1-1.681.687 1.88 1.88 0 0 1-1.81-1.945v-.015a1.876 1.876 0 0 1 .517-1.362c.35-.368.834-.582 1.344-.596a2.351 2.351 0 0 1 1.625.626l.458-.487a2.815 2.815 0 0 0-2.055-.809h-.162a2.723 2.723 0 0 0-1.942.75 2.653 2.653 0 0 0-.823 1.893v.014c.005 1.456 1.204 2.633 2.68 2.628h.225c.8.014 1.567-.313 2.106-.897z" opacity=".7"/><path fill="#AFB1B3" d="M1 2h1v12H1z"/><path fill="#AFB1B3" d="M2 2h2v1H2z"/><path fill="#AFB1B3" d="M2 13h2v1H2z"/><path fill="#AFB1B3" d="M14 2h1v12h-1z"/><path fill="#AFB1B3" d="M12 2h3v1h-3z"/><path fill="#AFB1B3" d="M12 13h2v1h-2z"/></g></svg>