<svg width="16" height="16" viewBox="0 0 16 16" fill="none" xmlns="http://www.w3.org/2000/svg"><rect id="frame" width="16" height="16" fill="none"/><path fill-rule="evenodd" clip-rule="evenodd" d="M4.5 4a.5.5 0 0 0-.5.5v7a.5.5 0 0 0 .5.5h1v2h-1A2.5 2.5 0 0 1 2 11.5V9.28L.757 8.97V7.03L2 6.72V4.5A2.5 2.5 0 0 1 4.5 2h1v2h-1z" fill="#AFB1B3"/><path fill-rule="evenodd" clip-rule="evenodd" d="M11.5 12a.5.5 0 0 0 .5-.5v-7a.5.5 0 0 0-.5-.5h-1V2h1A2.5 2.5 0 0 1 14 4.5v2.22l1.242.31v1.94L14 9.28v2.22a2.5 2.5 0 0 1-2.5 2.5h-1v-2h1z" fill="#AFB1B3"/></svg>