<svg xmlns="http://www.w3.org/2000/svg" width="16" height="16" viewBox="0 0 16 16"><rect id="frame" width="16" height="16" fill="none"/><g fill="none" fill-rule="evenodd"><path fill="#AFB1B3" d="M5.898 2c.82 0 1.463.286 1.882.77.345.418.54.99.54 1.661 0 1.287-.642 2.046-1.546 2.354l.867 1.436-.845.846-1.225-2.051H4.136V9.7H2.99V2h2.908zM4.343 5.817h1.424c.697 0 1.14-.506 1.14-1.287v-.022c0-.825-.427-1.276-1.147-1.276H4.343v2.585z"/><path fill="#3592C4" d="M13.108 8.962l-2.07-2.07L6 11.902v2.07h2.07l5.038-5.01zm1.726-1.725c.221-.222.221-.814 0-1.036l-1.035-1.035c-.222-.221-.814-.221-1.036 0l-1.035 1.035 2.07 2.07 1.036-1.034z"/></g></svg>