<svg width="128" height="128" viewBox="0 0 128 128" fill="none" xmlns="http://www.w3.org/2000/svg"><rect id="frame" width="128" height="128" fill="none"/><path d="M106.4 0L69.867 13.067 40.933 0l-9.466 24h-6.134v70.667l88.8.8L128 25.067 106.4 0z" fill="url(#paint0_linear)"/><path d="M105.334 46l-58.4-34.8 58.4 68.666V46z" fill="url(#paint1_linear)"/><path d="M53.333 124.666l47.734-6.4L93.733 104l-4.4-9.333 4.4-7.667 7.334-15L46.8 11.2 0 22.666v67.2L26.933 128l26.134-3.334h.266z" fill="url(#paint2_linear)"/><path d="M103 25H25v78h78V25z" fill="url(#paint3_linear)"/><path d="M62.7 89.567H33.667v4.767H62.7v-4.767z" fill="#fff"/><path d="M62.62 34.75h7.01l7.66 12.333 7.66-12.333h7.01v29.21h-6.491V44.876L77.29 57.34h-.13l-8.178-12.333V63.96H62.62V34.75z" fill="#fff"/><path d="M33.8 34.75h13.372c3.764 0 6.49 1.039 8.568 2.986 1.687 1.688 2.466 3.895 2.466 6.62v.13c0 2.338-.519 4.285-1.687 5.843-1.169 1.428-2.727 2.596-4.544 3.245l7.14 10.386h-7.53l-6.101-8.958H40.16v8.958H33.67V34.75h.13zM46.782 48.9c1.558 0 2.856-.389 3.635-1.168.909-.779 1.298-1.817 1.298-2.986v-.13c0-1.428-.39-2.466-1.298-3.115-.909-.65-2.077-1.039-3.765-1.039h-6.361v8.439h6.491z" fill="#fff"/><defs><linearGradient id="paint0_linear" x1="82.061" y1="74.034" x2="65.887" y2="31.576" gradientUnits="userSpaceOnUse"><stop offset="0" stop-color="#FE2857"/><stop offset=".056" stop-color="#FE3052"/><stop offset=".325" stop-color="#FD533B"/><stop offset=".58" stop-color="#FC6C2A"/><stop offset=".811" stop-color="#FC7B20"/><stop offset="1" stop-color="#FC801D"/></linearGradient><linearGradient id="paint1_linear" x1="51.238" y1="13.26" x2="76.228" y2="36.167" gradientUnits="userSpaceOnUse"><stop offset="0" stop-color="#6B57FF"/><stop offset="1" stop-color="#FE2857"/></linearGradient><linearGradient id="paint2_linear" x1=".559" y1="20.502" x2="82.834" y2="125.088" gradientUnits="userSpaceOnUse"><stop offset=".001" stop-color="#6B57FF"/><stop offset=".297" stop-color="#FE2857"/><stop offset=".629" stop-color="#FE2857"/><stop offset=".641" stop-color="#FE3052"/><stop offset=".701" stop-color="#FD533B"/><stop offset=".757" stop-color="#FC6C2A"/><stop offset=".808" stop-color="#FC7B20"/><stop offset=".85" stop-color="#FC801D"/></linearGradient><linearGradient id="paint3_linear" x1="63.896" y1="6.042" x2="63.896" y2="75.993" gradientUnits="userSpaceOnUse"><stop offset=".084" stop-color="#878585"/><stop offset=".538"/></linearGradient></defs></svg>