<svg width="24" height="24" viewBox="0 0 24 24" fill="none" xmlns="http://www.w3.org/2000/svg"><rect id="frame" width="24" height="24" fill="none"/><path d="M19.95 0L13.1 2.45 7.675 0 5.9 4.5H4.75v13.25l16.65.15L24 4.7 19.95 0z" fill="url(#paint0_linear)"/><path d="M19.75 8.625L8.8 2.1l10.95 12.875v-6.35z" fill="url(#paint1_linear)"/><path d="M10 23.375l8.95-1.2-1.375-2.675-1.575-3 3.75-1.525L8.775 2.1 0 4.25v12.6L5.05 24l4.9-.625H10z" fill="url(#paint2_linear)"/><path d="M20 4H4v16h16V4z" fill="url(#paint3_linear)"/><path d="M12 17H6v1h6v-1z" fill="#fff"/><path d="M11.92 6h1.44l1.573 2.533L16.507 6h1.44v6h-1.334V8.08l-1.68 2.56h-.026l-1.68-2.533V12H11.92V6z" fill="#fff"/><path d="M6 6h2.747c.773 0 1.333.213 1.76.613.346.347.506.8.506 1.36V8c0 .48-.106.88-.346 1.2a2.15 2.15 0 0 1-.934.667L11.2 12H9.653L8.4 10.16H7.307V12H5.973V6H6zm2.667 2.907c.32 0 .586-.08.746-.24a.772.772 0 0 0 .267-.614v-.026c0-.294-.08-.507-.267-.64-.186-.134-.426-.214-.773-.214H7.333v1.734h1.334z" fill="#fff"/><defs><linearGradient id="paint0_linear" x1="15.386" y1="13.881" x2="12.354" y2="5.921" gradientUnits="userSpaceOnUse"><stop offset="0" stop-color="#FE2857"/><stop offset=".056" stop-color="#FE3052"/><stop offset=".325" stop-color="#FD533B"/><stop offset=".58" stop-color="#FC6C2A"/><stop offset=".811" stop-color="#FC7B20"/><stop offset="1" stop-color="#FC801D"/></linearGradient><linearGradient id="paint1_linear" x1="9.607" y1="2.486" x2="14.293" y2="6.781" gradientUnits="userSpaceOnUse"><stop offset="0" stop-color="#6B57FF"/><stop offset="1" stop-color="#FE2857"/></linearGradient><linearGradient id="paint2_linear" x1=".105" y1="3.844" x2="15.531" y2="23.454" gradientUnits="userSpaceOnUse"><stop offset=".001" stop-color="#6B57FF"/><stop offset=".297" stop-color="#FE2857"/><stop offset=".629" stop-color="#FE2857"/><stop offset=".641" stop-color="#FE3052"/><stop offset=".701" stop-color="#FD533B"/><stop offset=".757" stop-color="#FC6C2A"/><stop offset=".808" stop-color="#FC7B20"/><stop offset=".85" stop-color="#FC801D"/></linearGradient><linearGradient id="paint3_linear" x1="12" y1=".129" x2="12" y2="14.478" gradientUnits="userSpaceOnUse"><stop offset=".084" stop-color="#878585"/><stop offset=".538"/></linearGradient></defs></svg>