<svg xmlns="http://www.w3.org/2000/svg" width="16" height="16" viewBox="0 0 16 16"><rect id="frame" width="16" height="16" fill="none"/><g fill="none"><path fill="#B3B3B3" d="M7.975.541l-6.934 2.44 1.096 9.085 5.846 3.213 5.875-3.257 1.096-9.084z"/><path fill="#AF2B2D" d="M14.262 3.464L7.959 1.315v13.197l5.282-2.923z"/><path fill="#DF2E31" d="M1.819 3.502l.939 8.125 5.201 2.884V1.314l-6.14 2.188z"/><path fill="#F2F2F2" d="M9.42 7.878L7.97 4.851 6.696 7.878H9.42zm.553 1.273H6.13l-.86 2.15-1.598.03 4.287-9.538 4.437 9.538h-1.482l-.941-2.18z"/><path fill="#B3B3B3" d="M7.959 1.794l.012 3.058 1.448 3.029H7.962l-.003 1.268 2.014.002.941 2.18 1.53.029z"/></g></svg>