<svg xmlns="http://www.w3.org/2000/svg" width="16" height="16" viewBox="0 0 16 16">
  <g fill="none" fill-opacity=".6" fill-rule="evenodd">
    <path fill="#40B6E0" d="M3,11 C2.163,11 2,10.616 2,10.427 L2,9.618 C2,8.837 2.391,8.976 3,9 L3.189,9 C3.464,9.685 3.629,10.339 4,11 L3,11 Z M8.5,6.467 C3.9,6.467 2.5,5.577 2,4.75 C2,5.095 2.273,6.434 2.82,8.013 C1.625,8.078 1,8.771 1,9.618 L1,10.427 C1,11.191 1.655,12 3.104,12 L4,12 L4.466,12 L4.781,12.045 C5.352,12.864 6.009,13.562 6.757,14 L10.243,14 C13.433,12.131 15,5.578 15,4.75 C14.48,5.564 13.1,6.467 8.5,6.467 Z"/>
    <path fill="#40B6E0" d="M8.5 4.3662C5.275 4.3662 4.259 4.0232 3.072 3.5302 3.029 3.5952 3 3.6602 3 3.7272 3 4.4292 5.463 5.0002 8.5 5.0002 11.537 5.0002 14 4.4292 14 3.7272 14 3.6602 13.971 3.5952 13.928 3.5302 13.138 3.9372 11.725 4.3662 8.5 4.3662M10.25 3C9.671 3 9.173 2.775 9.173 2.775L9.384 2.757 9.837 2.837C10.371 2.837 11.195 2.282 11.195 2 11.195 1.718 10.784 1.523 10.25 1.523 9.737 1.523 9.145 1.86 8.8 2.123 8.564 2.303 7.73 3 6.75 3 5.769 3 5 2.561 5 2 5 1.439 5.789 1 6.75 1 7.431 1 7.886 1.198 7.886 1.198L7.176 1.097 6.782 1C6.249 1 5.875 1.75 5.875 2 5.875 2.25 6.216 2.462 6.75 2.462 7.263 2.462 7.994 2.001 8.339 1.738 8.574 1.56 9.27 1 10.25 1 11.231 1 12 1.439 12 2 12 2.561 11.189 3 10.25 3"/>
  </g>
</svg>
