<svg width="80" height="80" viewBox="0 0 80 80" fill="none" xmlns="http://www.w3.org/2000/svg"><rect id="frame" width="80" height="80" fill="none"/><g clip-path="url(#clip0)"><path d="M28.75 31.25L30.5 0l18.167 10.083L28.75 31.25z" fill="url(#paint0_linear)"/><path d="M28.75 31.25L30.5 0 7.417 14.583 0 58.833 28.75 31.25z" fill="url(#paint1_linear)"/><path d="M78.417 24L68.083 3.083l-19.416 7L28.75 31.25 0 58.833l25.917 18.834L58.583 48.25 78.417 24z" fill="url(#paint2_linear)"/><path d="M65 45.833L52.5 40 30.625 63.125l16.791 12.542 20 4.333L80 51.5l-15-5.667z" fill="url(#paint3_linear)"/><path d="M65 15H15v50h50V15z" fill="url(#paint4_linear)"/><path d="M39.9 55.5H21.2v3.1h18.7v-3.1z" fill="#fff"/><path d="M20.4 30.536c0-5.357 3.928-9.643 9.821-9.643 3.572 0 5.715 1.25 7.322 2.857l-2.679 3.036c-1.428-1.25-2.857-2.143-4.821-2.143-3.215 0-5.357 2.678-5.357 5.893 0 3.214 2.142 5.893 5.357 5.893 2.143 0 3.393-.893 4.821-2.143l2.679 2.678c-1.965 2.143-4.107 3.393-7.679 3.393-5.357-.178-9.464-4.464-9.464-9.821z" fill="#fff"/><path d="M41 21.25h4.108v15.119h8.135v3.451H41V21.25z" fill="#fff"/></g><defs><linearGradient id="paint0_linear" x1="28.756" y1="15.641" x2="51.676" y2="15.641" gradientUnits="userSpaceOnUse"><stop offset="0" stop-color="#FF318C"/><stop offset=".149" stop-color="#FB348C"/><stop offset=".285" stop-color="#F03C8C"/><stop offset=".416" stop-color="#DE4A8C"/><stop offset=".543" stop-color="#C45D8B"/><stop offset=".669" stop-color="#A2778B"/><stop offset=".793" stop-color="#79958A"/><stop offset=".913" stop-color="#49B98A"/><stop offset="1" stop-color="#21D789"/></linearGradient><linearGradient id="paint1_linear" x1="19.578" y1="10.152" x2="7.812" y2="89.103" gradientUnits="userSpaceOnUse"><stop offset=".091" stop-color="#21D789"/><stop offset=".903" stop-color="#009AE5"/></linearGradient><linearGradient id="paint2_linear" x1="72.956" y1="7.419" x2="-7.524" y2="92.417" gradientUnits="userSpaceOnUse"><stop offset=".091" stop-color="#21D789"/><stop offset=".903" stop-color="#009AE5"/></linearGradient><linearGradient id="paint3_linear" x1="48.904" y1="58.43" x2="76.429" y2="62.344" gradientUnits="userSpaceOnUse"><stop offset=".091" stop-color="#21D789"/><stop offset=".903" stop-color="#009AE5"/></linearGradient><linearGradient id="paint4_linear" x1="39.999" y1="2.846" x2="39.999" y2="47.685" gradientUnits="userSpaceOnUse"><stop offset=".084" stop-color="#878585"/><stop offset=".538"/></linearGradient><clipPath id="clip0"><path d="M0 0h80v80H0V0z" fill="#fff"/></clipPath></defs></svg>