<svg width="48" height="48" viewBox="0 0 48 48" fill="none" xmlns="http://www.w3.org/2000/svg"><rect id="frame" width="48" height="48" fill="none"/><path d="M17.25 18.75L18.3 0l10.9 6.05-11.95 12.7z" fill="url(#paint0_linear)"/><path d="M17.25 18.75L18.3 0 4.45 8.75 0 35.3l17.25-16.55z" fill="url(#paint1_linear)"/><path d="M47.05 14.4l-6.2-12.55-11.65 4.2-11.95 12.7L0 35.3l15.55 11.3 19.6-17.65 11.9-14.55z" fill="url(#paint2_linear)"/><path d="M39 27.5L31.5 24 20.15 39l8.3 6.4 12 2.6L48 30.9l-9-3.4z" fill="url(#paint3_linear)"/><path d="M39 9H9v30h30V9z" fill="url(#paint4_linear)"/><path d="M23.25 34H12v1.929h11.25V34z" fill="#fff"/><path d="M24.1 12.75h2.465v9.07h4.88v2.07H24.1V12.75z" fill="#fff"/><path d="M11.6 18.322c0-3.215 2.357-5.786 5.893-5.786 2.143 0 3.428.75 4.393 1.714l-1.607 1.822c-.858-.75-1.715-1.286-2.893-1.286-1.929 0-3.215 1.607-3.215 3.536 0 1.928 1.286 3.535 3.215 3.535 1.285 0 2.035-.535 2.893-1.285l1.607 1.607c-1.179 1.285-2.465 2.035-4.607 2.035-3.215-.107-5.679-2.678-5.679-5.892z" fill="#fff"/><defs><linearGradient id="paint0_linear" x1="17.253" y1="9.385" x2="31.006" y2="9.385" gradientUnits="userSpaceOnUse"><stop offset="0" stop-color="#FF318C"/><stop offset=".149" stop-color="#FB348C"/><stop offset=".285" stop-color="#F03C8C"/><stop offset=".416" stop-color="#DE4A8C"/><stop offset=".543" stop-color="#C45D8B"/><stop offset=".669" stop-color="#A2778B"/><stop offset=".793" stop-color="#79958A"/><stop offset=".913" stop-color="#49B98A"/><stop offset="1" stop-color="#21D789"/></linearGradient><linearGradient id="paint1_linear" x1="11.747" y1="6.091" x2="4.687" y2="53.462" gradientUnits="userSpaceOnUse"><stop offset=".091" stop-color="#21D789"/><stop offset=".903" stop-color="#009AE5"/></linearGradient><linearGradient id="paint2_linear" x1="43.773" y1="4.452" x2="-4.514" y2="55.45" gradientUnits="userSpaceOnUse"><stop offset=".091" stop-color="#21D789"/><stop offset=".903" stop-color="#009AE5"/></linearGradient><linearGradient id="paint3_linear" x1="29.342" y1="35.058" x2="45.858" y2="37.406" gradientUnits="userSpaceOnUse"><stop offset=".091" stop-color="#21D789"/><stop offset=".903" stop-color="#009AE5"/></linearGradient><linearGradient id="paint4_linear" x1="23.999" y1="1.707" x2="23.999" y2="28.611" gradientUnits="userSpaceOnUse"><stop offset=".084" stop-color="#878585"/><stop offset=".538"/></linearGradient></defs></svg>