<svg width="64" height="64" viewBox="0 0 64 64" fill="none" xmlns="http://www.w3.org/2000/svg"><rect id="frame" width="64" height="64" fill="none"/><path d="M23 25l1.4-25 14.533 8.067L23 25z" fill="url(#paint0_linear)"/><path d="M23 25l1.4-25L5.933 11.667 0 47.067 23 25z" fill="url(#paint1_linear)"/><path d="M62.733 19.2L54.467 2.467l-15.534 5.6L23 25 0 47.067l20.733 15.066L46.867 38.6l15.866-19.4z" fill="url(#paint2_linear)"/><path d="M52 36.667L42 32 24.5 50.5l13.433 10.033 16 3.467L64 41.2l-12-4.533z" fill="url(#paint3_linear)"/><path d="M51 13H13v38h38V13z" fill="url(#paint4_linear)"/><path d="M32.144 44H18v2.322h14.144V44z" fill="#fff"/><path d="M33 17.64h3.128v11.512h6.194v2.628H33V17.64z" fill="#fff"/><path d="M17 24.822c0-4.011 2.956-7.389 7.389-7.389 2.744 0 4.222.845 5.7 2.111l-1.9 2.323c-1.056-1.056-2.111-1.69-3.589-1.69-2.322 0-4.222 1.9-4.222 4.434 0 2.533 1.689 4.433 4.222 4.433 1.689 0 2.533-.633 3.8-1.689l1.9 2.112C28.611 31.156 26.922 32 24.178 32 19.956 32 17 28.833 17 24.822z" fill="#fff"/><defs><linearGradient id="paint0_linear" x1="23.005" y1="12.513" x2="41.341" y2="12.513" gradientUnits="userSpaceOnUse"><stop offset="0" stop-color="#FF318C"/><stop offset=".149" stop-color="#FB348C"/><stop offset=".285" stop-color="#F03C8C"/><stop offset=".416" stop-color="#DE4A8C"/><stop offset=".543" stop-color="#C45D8B"/><stop offset=".669" stop-color="#A2778B"/><stop offset=".793" stop-color="#79958A"/><stop offset=".913" stop-color="#49B98A"/><stop offset="1" stop-color="#21D789"/></linearGradient><linearGradient id="paint1_linear" x1="15.663" y1="8.121" x2="6.25" y2="71.282" gradientUnits="userSpaceOnUse"><stop offset=".091" stop-color="#21D789"/><stop offset=".903" stop-color="#009AE5"/></linearGradient><linearGradient id="paint2_linear" x1="58.364" y1="5.936" x2="-6.019" y2="73.934" gradientUnits="userSpaceOnUse"><stop offset=".091" stop-color="#21D789"/><stop offset=".903" stop-color="#009AE5"/></linearGradient><linearGradient id="paint3_linear" x1="39.123" y1="46.744" x2="61.143" y2="49.875" gradientUnits="userSpaceOnUse"><stop offset=".091" stop-color="#21D789"/><stop offset=".903" stop-color="#009AE5"/></linearGradient><linearGradient id="paint4_linear" x1="31.949" y1="3.764" x2="31.949" y2="37.843" gradientUnits="userSpaceOnUse"><stop offset=".084" stop-color="#878585"/><stop offset=".538"/></linearGradient></defs></svg>