<svg width="32" height="32" viewBox="0 0 32 32" fill="none" xmlns="http://www.w3.org/2000/svg"><rect id="frame" width="32" height="32" fill="none"/><path d="M11.5 12.5L12.2 0l7.267 4.033L11.5 12.5z" fill="url(#paint0_linear)"/><path d="M11.5 12.5L12.2 0 2.967 5.833 0 23.533 11.5 12.5z" fill="url(#paint1_linear)"/><path d="M31.367 9.6l-4.134-8.367-7.766 2.8L11.5 12.5 0 23.533l10.367 7.534L23.433 19.3l7.934-9.7z" fill="url(#paint2_linear)"/><path d="M26 18.333L21 16l-7.567 10 5.534 4.267 8 1.733L32 20.6l-6-2.267z" fill="url(#paint3_linear)"/><path d="M26 6H6v20h20V6z" fill="url(#paint4_linear)"/><path d="M16 23H8v1h8v-1z" fill="#fff"/><path d="M7.7 12.058C7.7 9.855 9.268 8 11.62 8c1.456 0 2.24.464 3.024 1.16l-1.008 1.275c-.56-.58-1.12-.928-1.904-.928-1.232 0-2.24 1.044-2.24 2.435s.896 2.435 2.24 2.435c.896 0 1.344-.348 2.016-.928l1.008 1.16C13.86 15.536 12.964 16 11.508 16 9.268 16 7.7 14.26 7.7 12.058z" fill="#fff"/><path d="M16.4 8.12h1.72v6.326h3.403v1.444H16.4V8.12z" fill="#fff"/><defs><linearGradient id="paint0_linear" x1="11.502" y1="6.256" x2="20.671" y2="6.256" gradientUnits="userSpaceOnUse"><stop offset="0" stop-color="#FF318C"/><stop offset=".149" stop-color="#FB348C"/><stop offset=".285" stop-color="#F03C8C"/><stop offset=".416" stop-color="#DE4A8C"/><stop offset=".543" stop-color="#C45D8B"/><stop offset=".669" stop-color="#A2778B"/><stop offset=".793" stop-color="#79958A"/><stop offset=".913" stop-color="#49B98A"/><stop offset="1" stop-color="#21D789"/></linearGradient><linearGradient id="paint1_linear" x1="7.831" y1="4.061" x2="3.125" y2="35.641" gradientUnits="userSpaceOnUse"><stop offset=".091" stop-color="#21D789"/><stop offset=".903" stop-color="#009AE5"/></linearGradient><linearGradient id="paint2_linear" x1="29.182" y1="2.968" x2="-3.009" y2="36.967" gradientUnits="userSpaceOnUse"><stop offset=".091" stop-color="#21D789"/><stop offset=".903" stop-color="#009AE5"/></linearGradient><linearGradient id="paint3_linear" x1="19.562" y1="23.372" x2="30.572" y2="24.938" gradientUnits="userSpaceOnUse"><stop offset=".091" stop-color="#21D789"/><stop offset=".903" stop-color="#009AE5"/></linearGradient><linearGradient id="paint4_linear" x1="15.973" y1="1.139" x2="15.973" y2="19.075" gradientUnits="userSpaceOnUse"><stop offset=".084" stop-color="#878585"/><stop offset=".538"/></linearGradient></defs></svg>