<svg width="128" height="128" viewBox="0 0 128 128" fill="none" xmlns="http://www.w3.org/2000/svg"><rect id="frame" width="128" height="128" fill="none"/><path d="M46 50l2.8-50 29.067 16.133L46 50z" fill="url(#paint0_linear)"/><path d="M46 50l2.8-50-36.933 23.333L0 94.133 46 50z" fill="url(#paint1_linear)"/><path d="M125.467 38.4L108.933 4.933l-31.066 11.2L46 50 0 94.133l41.467 30.134L93.733 77.2l31.734-38.8z" fill="url(#paint2_linear)"/><path d="M104 73.333L84 64l-35 37 26.866 20.067 32 6.933L128 82.4l-24-9.067z" fill="url(#paint3_linear)"/><path d="M103 25H25v78h78V25z" fill="url(#paint4_linear)"/><path d="M62.7 89.567H33.667v4.767H62.7v-4.767z" fill="#fff"/><path d="M32.5 49.267c0-8.234 6.067-15.167 15.167-15.167 5.633 0 8.666 1.733 11.7 4.333l-3.9 4.767c-2.167-2.167-4.334-3.467-7.367-3.467-4.767 0-8.667 3.9-8.667 9.1 0 5.2 3.467 9.1 8.667 9.1 3.467 0 5.2-1.3 7.8-3.466l3.9 4.333c-3.467 3.467-6.933 5.2-12.567 5.2C38.567 64 32.5 57.5 32.5 49.267z" fill="#fff"/><path d="M65 34.53h6.471v23.814h12.813v5.436H65V34.53z" fill="#fff"/><defs><linearGradient id="paint0_linear" x1="46.009" y1="25.026" x2="82.682" y2="25.026" gradientUnits="userSpaceOnUse"><stop offset="0" stop-color="#FF318C"/><stop offset=".149" stop-color="#FB348C"/><stop offset=".285" stop-color="#F03C8C"/><stop offset=".416" stop-color="#DE4A8C"/><stop offset=".543" stop-color="#C45D8B"/><stop offset=".669" stop-color="#A2778B"/><stop offset=".793" stop-color="#79958A"/><stop offset=".913" stop-color="#49B98A"/><stop offset="1" stop-color="#21D789"/></linearGradient><linearGradient id="paint1_linear" x1="31.325" y1="16.243" x2="12.5" y2="142.565" gradientUnits="userSpaceOnUse"><stop offset=".091" stop-color="#21D789"/><stop offset=".903" stop-color="#009AE5"/></linearGradient><linearGradient id="paint2_linear" x1="116.729" y1="11.871" x2="-12.038" y2="147.868" gradientUnits="userSpaceOnUse"><stop offset=".091" stop-color="#21D789"/><stop offset=".903" stop-color="#009AE5"/></linearGradient><linearGradient id="paint3_linear" x1="78.246" y1="93.488" x2="122.287" y2="99.75" gradientUnits="userSpaceOnUse"><stop offset=".091" stop-color="#21D789"/><stop offset=".903" stop-color="#009AE5"/></linearGradient><linearGradient id="paint4_linear" x1="63.896" y1="6.042" x2="63.896" y2="75.993" gradientUnits="userSpaceOnUse"><stop offset=".084" stop-color="#878585"/><stop offset=".538"/></linearGradient></defs></svg>