<svg width="70" height="70" viewBox="0 0 70 70" fill="none" xmlns="http://www.w3.org/2000/svg"><rect id="frame" width="70" height="70" fill="none"/><path d="M25.156 27.344L26.688 0l15.895 8.823-17.427 18.52z" fill="url(#paint0_linear)"/><path d="M25.156 27.344L26.688 0 6.49 12.76 0 51.48l25.156-24.136z" fill="url(#paint1_linear)"/><path d="M68.615 21L59.573 2.698l-16.99 6.125-17.427 18.52L0 51.48l22.677 16.48 28.583-25.74L68.615 21z" fill="url(#paint2_linear)"/><path d="M56.875 40.104L45.937 35l-19.14 20.234 14.692 10.974L58.99 70 70 45.062l-13.124-4.958z" fill="url(#paint3_linear)"/><path d="M56 14H14v42h42V14z" fill="url(#paint4_linear)"/><path d="M34.417 48.65h-15.75v2.683h15.75V48.65z" fill="#fff"/><path d="M36 19.13h3.458v12.725h6.847v2.905H36V19.13z" fill="#fff"/><path d="M18 27.067c0-4.434 3.267-8.167 8.167-8.167 3.033 0 4.666.933 6.3 2.333l-2.1 2.567c-1.167-1.167-2.334-1.867-3.967-1.867-2.567 0-4.667 2.1-4.667 4.9 0 2.8 1.867 4.9 4.667 4.9 1.867 0 2.8-.7 4.2-1.866l2.1 2.333c-1.867 1.867-3.733 2.8-6.767 2.8C21.267 35 18 31.5 18 27.067z" fill="#fff"/><defs><linearGradient id="paint0_linear" x1="25.161" y1="13.686" x2="45.217" y2="13.686" gradientUnits="userSpaceOnUse"><stop offset="0" stop-color="#FF318C"/><stop offset=".149" stop-color="#FB348C"/><stop offset=".285" stop-color="#F03C8C"/><stop offset=".416" stop-color="#DE4A8C"/><stop offset=".543" stop-color="#C45D8B"/><stop offset=".669" stop-color="#A2778B"/><stop offset=".793" stop-color="#79958A"/><stop offset=".913" stop-color="#49B98A"/><stop offset="1" stop-color="#21D789"/></linearGradient><linearGradient id="paint1_linear" x1="17.131" y1="8.883" x2="6.836" y2="77.965" gradientUnits="userSpaceOnUse"><stop offset=".091" stop-color="#21D789"/><stop offset=".903" stop-color="#009AE5"/></linearGradient><linearGradient id="paint2_linear" x1="63.836" y1="6.492" x2="-6.583" y2="80.865" gradientUnits="userSpaceOnUse"><stop offset=".091" stop-color="#21D789"/><stop offset=".903" stop-color="#009AE5"/></linearGradient><linearGradient id="paint3_linear" x1="42.791" y1="51.126" x2="66.875" y2="54.551" gradientUnits="userSpaceOnUse"><stop offset=".091" stop-color="#21D789"/><stop offset=".903" stop-color="#009AE5"/></linearGradient><linearGradient id="paint4_linear" x1="34.944" y1="3.792" x2="34.944" y2="41.458" gradientUnits="userSpaceOnUse"><stop offset=".084" stop-color="#878585"/><stop offset=".538"/></linearGradient></defs></svg>