<svg width="128" height="128" viewBox="0 0 128 128" fill="none" xmlns="http://www.w3.org/2000/svg">
<path d="M37 64L48.8 0L97 28L37 64Z" fill="url(#paint0_linear)"/>
<path d="M45.5 74.5L48.8 0L11.8667 23.3333L0 94.1333L45.5 74.5Z" fill="url(#paint1_linear)"/>
<path d="M125.467 38.4L108.933 4.93329L77.8667 16.1333L46 50L0 94.1333L41.4667 124.267L93.7333 77.2L125.467 38.4Z" fill="url(#paint2_linear)"/>
<path d="M104 73.3333L83.9997 64L49 101L75.8664 121.067L107.866 128L128 82.4L104 73.3333Z" fill="url(#paint3_linear)"/>
<path d="M103 25H25V103H103V25Z" fill="url(#paint4_linear)"/>
<path d="M62.7001 89.5668H33.6667V94.3335H62.7001V89.5668Z" fill="white"/>
<path d="M32.5 49.2665C32.5 41.0332 38.5667 34.0998 47.6667 34.0998C53.3 34.0998 56.3333 35.8332 59.3667 38.4332L55.4667 43.1998C53.3 41.0332 51.1333 39.7332 48.1 39.7332C43.3333 39.7332 39.4333 43.6332 39.4333 48.8332C39.4333 54.0332 42.9 57.9332 48.1 57.9332C51.5667 57.9332 53.3 56.6332 55.9 54.4665L59.8 58.7998C56.3333 62.2665 52.8667 63.9998 47.2333 63.9998C38.5667 63.9998 32.5 57.4998 32.5 49.2665Z" fill="white"/>
<path d="M65 34.53H71.4712V58.3442H84.2843V63.78H65V34.53Z" fill="white"/>
<defs>
<linearGradient id="paint0_linear" x1="46.0089" y1="25.026" x2="82.6823" y2="25.026" gradientUnits="userSpaceOnUse">
<stop offset="0" stop-color="#FF318C"/>
<stop offset="0.149" stop-color="#FB348C"/>
<stop offset="0.2849" stop-color="#F03C8C"/>
<stop offset="0.4157" stop-color="#DE4A8C"/>
<stop offset="0.5434" stop-color="#C45D8B"/>
<stop offset="0.6689" stop-color="#A2778B"/>
<stop offset="0.7926" stop-color="#79958A"/>
<stop offset="0.9128" stop-color="#49B98A"/>
<stop offset="1" stop-color="#21D789"/>
</linearGradient>
<linearGradient id="paint1_linear" x1="31.3253" y1="16.2428" x2="12.4999" y2="142.565" gradientUnits="userSpaceOnUse">
<stop offset="0.0913979" stop-color="#21D789"/>
<stop offset="0.9032" stop-color="#009AE5"/>
</linearGradient>
<linearGradient id="paint2_linear" x1="116.729" y1="11.871" x2="-12.0376" y2="147.868" gradientUnits="userSpaceOnUse">
<stop offset="0.0913979" stop-color="#21D789"/>
<stop offset="0.9032" stop-color="#009AE5"/>
</linearGradient>
<linearGradient id="paint3_linear" x1="78.2461" y1="93.4883" x2="122.287" y2="99.75" gradientUnits="userSpaceOnUse">
<stop offset="0.0913979" stop-color="#21D789"/>
<stop offset="0.9032" stop-color="#009AE5"/>
</linearGradient>
<linearGradient id="paint4_linear" x1="63.896" y1="6.0421" x2="63.896" y2="75.9925" gradientUnits="userSpaceOnUse">
<stop offset="0.0842986" stop-color="#878585"/>
<stop offset="0.5377"/>
</linearGradient>
</defs>
</svg>
