<svg width="16" height="16" viewBox="0 0 16 16" fill="none" xmlns="http://www.w3.org/2000/svg">
<path d="M16 0H0V16H16V0Z" fill="#21D789"/>
<path d="M15 1H1V15H15V1Z" fill="black"/>
<path d="M9 12H3V13H9V12Z" fill="white"/>
<path d="M2.69995 6.1C2.69995 4.4 3.99995 3 5.79995 3C6.89995 3 7.59995 3.4 8.19995 3.9L7.39995 4.9C6.89995 4.5 6.39995 4.2 5.79995 4.2C4.79995 4.2 4.09995 5 4.09995 6.1C4.09995 7.1 4.79995 8 5.79995 8C6.49995 8 6.89995 7.7 7.39995 7.3L8.19995 8.1C7.59995 8.8 6.89995 9.2 5.79995 9.2C3.99995 9.2 2.69995 7.8 2.69995 6.1Z" fill="white"/>
<path d="M9 3H10.3V7.9H12.9V9H9V3Z" fill="white"/>
</svg>
