<svg width="48" height="48" viewBox="0 0 48 48" fill="none" xmlns="http://www.w3.org/2000/svg">
<path d="M14.5 23.5L18.3 0L29.2 6.05L25.5 18.5L14.5 23.5Z" fill="url(#paint0_linear)"/>
<path d="M16.5 27.5L18.3 0L4.45 8.75L0 35.3L16.5 27.5Z" fill="url(#paint1_linear)"/>
<path d="M47.05 14.4L40.85 1.84998L29.2 6.04998L17.25 18.75L0 35.3L15.55 46.6L35.15 28.95L47.05 14.4Z" fill="url(#paint2_linear)"/>
<path d="M38.9999 27.5L31.4999 24L20.1499 39L28.4499 45.4L40.4499 48L47.9999 30.9L38.9999 27.5Z" fill="url(#paint3_linear)"/>
<path d="M39 9H9V39H39V9Z" fill="url(#paint4_linear)"/>
<path d="M23.25 34H12V35.9286H23.25V34Z" fill="white"/>
<path d="M24.1 12.75H26.5646V21.8197H31.4445V23.89H24.1V12.75Z" fill="white"/>
<path d="M11.6 18.3215C11.6 15.1072 13.9571 12.5358 17.4928 12.5358C19.6357 12.5358 20.9214 13.2858 21.8857 14.2501L20.2785 16.0715C19.4214 15.3215 18.5643 14.7858 17.3857 14.7858C15.4571 14.7858 14.1714 16.3929 14.1714 18.3215C14.1714 20.2501 15.4571 21.8572 17.3857 21.8572C18.6714 21.8572 19.4214 21.3215 20.2785 20.5715L21.8857 22.1786C20.7071 23.4643 19.4214 24.2143 17.2785 24.2143C14.0643 24.1072 11.6 21.5358 11.6 18.3215Z" fill="white"/>
<defs>
<linearGradient id="paint0_linear" x1="17.2533" y1="9.38475" x2="31.0059" y2="9.38475" gradientUnits="userSpaceOnUse">
<stop offset="0" stop-color="#FF318C"/>
<stop offset="0.149" stop-color="#FB348C"/>
<stop offset="0.2849" stop-color="#F03C8C"/>
<stop offset="0.4157" stop-color="#DE4A8C"/>
<stop offset="0.5434" stop-color="#C45D8B"/>
<stop offset="0.6689" stop-color="#A2778B"/>
<stop offset="0.7926" stop-color="#79958A"/>
<stop offset="0.9128" stop-color="#49B98A"/>
<stop offset="1" stop-color="#21D789"/>
</linearGradient>
<linearGradient id="paint1_linear" x1="11.747" y1="6.09105" x2="4.68745" y2="53.4617" gradientUnits="userSpaceOnUse">
<stop offset="0.0913979" stop-color="#21D789"/>
<stop offset="0.9032" stop-color="#009AE5"/>
</linearGradient>
<linearGradient id="paint2_linear" x1="43.7734" y1="4.45163" x2="-4.5141" y2="55.4504" gradientUnits="userSpaceOnUse">
<stop offset="0.0913979" stop-color="#21D789"/>
<stop offset="0.9032" stop-color="#009AE5"/>
</linearGradient>
<linearGradient id="paint3_linear" x1="29.3423" y1="35.0581" x2="45.8575" y2="37.4063" gradientUnits="userSpaceOnUse">
<stop offset="0.0913979" stop-color="#21D789"/>
<stop offset="0.9032" stop-color="#009AE5"/>
</linearGradient>
<linearGradient id="paint4_linear" x1="23.9994" y1="1.70732" x2="23.9994" y2="28.6113" gradientUnits="userSpaceOnUse">
<stop offset="0.0842986" stop-color="#878585"/>
<stop offset="0.5377"/>
</linearGradient>
</defs>
</svg>
