<svg xmlns="http://www.w3.org/2000/svg" width="12" height="12" viewBox="0 0 12 12"><rect id="frame" width="12" height="12" fill="none"/><g fill="none" fill-rule="evenodd"><path fill="#62B543" fill-opacity=".7" d="M11.22 10.99c-1.01 1.344-3.165.893-4.548.955 0 0-.244.014-.49.055 0 0 .092-.04.211-.08.97-.336 1.43-.404 2.02-.707 1.108-.567 2.211-1.803 2.435-3.087-.422 1.235-1.705 2.298-2.873 2.728-.8.295-2.246.583-2.246.583l-.059-.03c-.983-.48-1.01-2.608.775-3.294.783-.301 1.532-.135 2.378-.337.903-.215 1.949-.893 2.373-1.776.477 1.413 1.05 3.623.023 4.99z"/><path fill="#9AA7B0" fill-opacity=".8" d="M8 0h4v4H8z"/><path fill="#9AA7B0" fill-opacity=".8" d="M4 1h1v1H4z"/><path fill="#9AA7B0" fill-opacity=".8" d="M6 1h1v1H6z"/><path fill="#9AA7B0" fill-opacity=".8" d="M0 0h3v3H0z"/><path fill="#9AA7B0" fill-opacity=".8" d="M0 8h4v4H0z"/><path fill="#9AA7B0" fill-opacity=".8" d="M1 6h1v1H1z"/><path fill="#9AA7B0" fill-opacity=".8" d="M1 4h1v1H1z"/></g></svg>