<svg xmlns="http://www.w3.org/2000/svg" width="16" height="16" viewBox="0 0 16 16"><rect id="frame" width="16" height="16" fill="none"/><g fill="none" fill-rule="evenodd"><path fill="#9AA7B0" d="M16 2.5a2.5 2.5 0 1 1-5 0 2.5 2.5 0 0 1 5 0"/><path fill="#F4AF3D" fill-opacity=".6" d="M13.5 5.8c-1.819 0-3.3-1.48-3.3-3.3 0-.377.077-.733.195-1.07A6.95 6.95 0 0 0 8 1a7 7 0 1 0 7 7c0-.842-.156-1.646-.429-2.394A3.257 3.257 0 0 1 13.5 5.8"/><path fill="#231F20" fill-opacity=".7" d="M10 11H6V5h4v1H7v1.499h2.5v1H7V10h3z"/></g></svg>