<svg xmlns="http://www.w3.org/2000/svg" width="16" height="16" viewBox="0 0 16 16"><rect id="frame" width="16" height="16" fill="none"/><g fill="none" fill-rule="evenodd"><path fill="#F98B9E" fill-opacity=".6" d="M10.193 1.35a3.5 3.5 0 0 0 4.456 4.456 7 7 0 0 1-6.15 9.176l.001-13.964a6.97 6.97 0 0 1 1.693.332z"/><path fill="#F4AF3D" fill-opacity=".6" d="M7.5 14.982V1.018a7 7 0 0 0 0 13.964z"/><path fill="#9AA7B0" d="M16 2.5a2.5 2.5 0 1 1-5 0 2.5 2.5 0 0 1 5 0"/><path fill="#231F20" fill-opacity=".7" d="M5 5h1.097L8 7.837 9.914 5H11v6h-1V6.603L8 9.419h-.035L6 6.619V11H5z"/></g></svg>