<svg xmlns="http://www.w3.org/2000/svg" width="16" height="16" viewBox="0 0 16 16"><rect id="frame" width="16" height="16" fill="none"/><g fill="none" fill-rule="evenodd"><path fill="#9AA7B0" fill-opacity=".8" d="M7.001 1l-4 4h4z"/><path fill="#9AA7B0" fill-opacity=".8" d="M9 13v2H3.001V6h5V1h5v3c-.73 0-1.412.195-2 .535V3h-2v4h-4v6H9z"/><path fill="#9AA7B0" fill-opacity=".8" d="M6.001 9h3.001V8H6.001z"/><path fill="#9AA7B0" fill-opacity=".8" d="M6.001 11.001h3.001V10H6.001z"/><path fill="#40B6E0" d="M12 13h-2v2h2v1h2v-5.17a3.001 3.001 0 1 0-2 0V13zm1-4a1 1 0 1 1 0-2 1 1 0 0 1 0 2z"/></g></svg>