<svg xmlns="http://www.w3.org/2000/svg" width="16" height="16" viewBox="0 0 16 16">
  <g fill="none" fill-rule="evenodd">
    <path fill="#9AA7B0" fill-opacity=".6" d="M15,8 C15,11.866 11.866,15 8,15 C4.134,15 1,11.866 1,8 C1,4.134 4.134,1 8,1 C11.866,1 15,4.134 15,8"/>
    <path fill="#231F20" fill-opacity=".7" d="M3.10388729,6 C1.28897017,6 0.0956,4.70718232 0.0956,3.01657459 L0.0956,3 C0.0956,1.37569061 1.33869392,5.68434189e-14 3.08731271,5.68434189e-14 C4.09836243,5.68434189e-14 4.71990939,0.281767956 5.31659448,0.787292818 L4.67018564,1.55801105 C4.22267182,1.18508287 3.7834453,0.944751381 3.04587624,0.944751381 C1.97681547,0.944751381 1.16466077,1.87292818 1.16466077,2.98342541 L1.16466077,3 C1.16466077,4.19337017 1.95195359,5.0718232 3.13703646,5.0718232 C3.68399779,5.0718232 4.18123536,4.89779006 4.53758895,4.63259669 L4.53758895,3.55524862 L3.05416354,3.55524862 L3.05416354,2.66022099 L5.5237768,2.66022099 L5.5237768,5.09668508 C4.95195359,5.58563536 4.1315116,6 3.10388729,6 Z" transform="translate(5 5)"/>
  </g>
</svg>
