<svg xmlns="http://www.w3.org/2000/svg" width="16" height="16" viewBox="0 0 16 16">
  <g fill="none" fill-rule="evenodd">
    <path fill="#9AA7B0" fill-opacity=".6" d="M15,8 C15,11.866 11.866,15 8,15 C4.134,15 1,11.866 1,8 C1,4.134 4.134,1 8,1 C11.866,1 15,4.134 15,8"/>
    <g fill="#231F20" fill-opacity=".7" transform="translate(3 3)">
      <polygon points="2 4 5 4 5 3 2 3"/>
      <polygon points="2 6.999 5 6.999 5 6 2 6"/>
      <path d="M0.0811,5 C0.0811,6.104 0.8951,7 2.0001,7 L2.0001,6.999 L2.0001,6 C1.4481,6 1.0001,5.551 1.0001,5 C1.0001,4.449 1.4481,4 2.0001,4 L2.0001,3 C0.8951,3 0.0811,3.896 0.0811,5"/>
      <polygon points="5 6 5 8.726 5 9 5 10 10 5.048 5 0 5 1 5 1.287 5 3 5 4 6 4 6 2.243 8.743 5.038 6 7.771 6 6"/>
    </g>
  </g>
</svg>
