<svg xmlns="http://www.w3.org/2000/svg" width="16" height="16" viewBox="0 0 16 16">
  <path fill="#B99BF8" fill-rule="evenodd" d="M8.0928,7.9492 C9.5718,7.9492 10.5128,7.1602 10.5128,5.9432 L10.5128,5.9082 C10.5128,4.6232 9.6058,3.9212 8.0748,3.9212 L5.0678,3.9212 L5.0678,7.9492 L8.0928,7.9492 Z M2.9998,2.0002 L8.2428,2.0002 C9.7228,2.0002 10.8818,2.4452 11.6388,3.2002 C12.2598,3.8522 12.6128,4.7432 12.6128,5.7882 L12.6128,5.8232 C12.6128,7.7942 11.4538,8.9772 9.8238,9.4572 L12.9998,14.0002 L10.5468,14.0002 L7.6558,9.8162 L5.0678,9.8162 L5.0678,14.0002 L2.9998,14.0002 L2.9998,2.0002 Z"/>
</svg>
