<svg ti:v="1" width="16" height="16" viewBox="0 0 16 16" xmlns="http://www.w3.org/2000/svg" xmlns:ti="urn:schemas-jetbrains-com:tisvg"><rect id="frame" width="16" height="16" fill="none"/><path d="M16 8A8 8 0 1 1 0 8a8 8 0 0 1 16 0z" fill="#252525"/><path d="M15 8A7 7 0 1 1 1 8a7 7 0 0 1 14 0z" fill="#C4C4C4"/><path d="M12.578 6h-1.752A7.636 7.636 0 0 0 9.9 3.378 5.012 5.012 0 0 1 12.578 6zM8 13c-.619 0-1.447-1.125-1.812-3h3.624C9.447 11.875 8.619 13 8 13zM6.048 9C6.02 8.681 6 8.35 6 8s.02-.681.048-1h3.9c.028.319.048.65.048 1s-.02.681-.048 1zM8 3c.619 0 1.447 1.125 1.812 3H6.188C6.553 4.125 7.381 3 8 3zm-1.9.378A7.636 7.636 0 0 0 5.175 6H3.422A5.014 5.014 0 0 1 6.1 3.378zM3.1 7h1.945C5.018 7.326 5 7.658 5 8c0 .342.018.674.045 1H3.1a5 5 0 0 1 0-2zm.321 3h1.754c.145.923.459 1.812.925 2.622A5.014 5.014 0 0 1 3.422 10zM9.9 12.622c.467-.81.78-1.699.926-2.622h1.752A5.012 5.012 0 0 1 9.9 12.622zM12.9 9h-1.945c.027-.326.045-.658.045-1 0-.342-.018-.674-.045-1H12.9a5 5 0 0 1 0 2zm0 0" fill="#292929"/></svg>