<svg ti:v="1" width="16" height="16" viewBox="0 0 16 16" xmlns="http://www.w3.org/2000/svg" xmlns:ti="urn:schemas-jetbrains-com:tisvg"><rect id="frame" width="16" height="16" fill="none"/><path d="M10.1 11a2.067 2.067 0 0 1-1.6 1c-.878 0-1.7-.807-2.152-2h9.406A8.478 8.478 0 0 0 16 8a7.765 7.765 0 0 0-7.5-8A7.765 7.765 0 0 0 1 8a7.765 7.765 0 0 0 7.5 8 7.52 7.52 0 0 0 6.95-5zM8.5 4c.878 0 1.7.807 2.152 2h-4.3C6.8 4.807 7.622 4 8.5 4zm0 0" fill="#F4F4F4"/><path d="M10.576 12A2.851 2.851 0 0 1 8.5 13c-1.693 0-3.1-1.718-3.429-4h9.855c.047-.331.072-.665.074-1a6.766 6.766 0 0 0-6.5-7A6.766 6.766 0 0 0 2 8a6.766 6.766 0 0 0 6.5 7 6.351 6.351 0 0 0 5.314-3zM8.5 3c1.693 0 3.105 1.718 3.429 4H5.071C5.4 4.718 6.807 3 8.5 3zm0 0" fill="#009AD9"/><path d="M3.671 14.121a2.04 2.04 0 0 1-.634-.79.394.394 0 0 1-.028-.086c-.007-.026-.019-.047-.025-.073L3 13.156a.877.877 0 0 1-.014-.129c0-1.2 1.338-3.756 3.894-6.308 2.37-2.366 4.726-3.671 6.02-3.851l.023-.024a1.68 1.68 0 0 1 1.7.536c.378.58.68 1.205.9 1.861.288-.7.45-1.447.477-2.204a2.87 2.87 0 0 0-.793-2.111A3.492 3.492 0 0 0 12.669 0C10.2 0 6.728 1.749 4.22 4.252 2.174 6.3 0 9.977 0 12.778a3.32 3.32 0 0 0 .89 2.449A2.827 2.827 0 0 0 2.97 16a6.99 6.99 0 0 0 2.616-.635 7.425 7.425 0 0 1-1.915-1.244zm0 0" fill="#F4F4F4"/><path d="M4.035 14.421a1.832 1.832 0 0 1-1.672-.315c-1.187-1.185.519-4.806 3.809-8.094 3.29-3.288 6.92-4.989 8.106-3.8a1.553 1.553 0 0 1 .369 1.222c.089.136.177.274.258.417a2.368 2.368 0 0 0-.4-2.213c-1.725-1.722-6.533.288-9.574 3.325C2.165 7.717-.128 12.8 1.6 14.52c.576.574 1.606.609 2.864.209a6.664 6.664 0 0 1-.429-.308zm0 0" fill="#F80"/></svg>