<svg ti:v="1" width="16" height="16" viewBox="0 0 16 16" xmlns="http://www.w3.org/2000/svg" xmlns:ti="urn:schemas-jetbrains-com:tisvg"><rect id="frame" width="16" height="16" fill="none"/><linearGradient id="a" x1=".5" y1=".002" x2=".5" y2=".996"><stop offset="0" stop-color="#656B73"/><stop offset="1" stop-color="#333A42"/></linearGradient><path d="M16 8A8 8 0 1 1 0 8a8 8 0 0 1 16 0z" fill="url(#a)"/><linearGradient id="b" x1=".5" y1="0" x2=".5" y2="1"><stop offset="0" stop-color="#FFF"/><stop offset="1" stop-color="#B4C7DB"/></linearGradient><path d="M15 8A7 7 0 1 1 1 8a7 7 0 0 1 14 0z" fill="url(#b)"/><radialGradient id="c" fx="0" fy="0" cx="0" cy="0" r="1" gradientTransform="matrix(.5 0 0 .5 .5 .5)"><stop offset="0" stop-color="#21DAFF"/><stop offset="1" stop-color="#0089D6"/></radialGradient><path d="M14 8A6 6 0 1 1 2 8a6 6 0 0 1 12 0z" fill="url(#c)"/><path d="M7 7.5L4 13l5-3.5L12 5 7 7.5z" fill="#00446B"/><path d="M7 7l1 1 4-4-5 3z" fill="#FF7C7A"/><path d="M9 9L8 8l4-4-3 5z" fill="red"/><path d="M9 9L8 8l-4 4 5-3z" fill="#C7C7C7"/><path d="M7 7l1 1-4 4 3-5z" fill="#FFF"/></svg>