<svg ti:v="1" width="16" height="16" viewBox="0 0 16 16" xmlns="http://www.w3.org/2000/svg" xmlns:ti="urn:schemas-jetbrains-com:tisvg"><rect id="frame" width="16" height="16" fill="none"/><path d="M16 8A8 8 0 1 1 0 8a8 8 0 0 1 16 0z" fill="#252525"/><path d="M15 8A7 7 0 1 1 1 8a7 7 0 0 1 14 0z" fill="#C4C4C4"/><path d="M14 8A6 6 0 1 1 2 8a6 6 0 0 1 12 0z" fill="#0DA9E6"/><path d="M7 7.5L4 13l5-3.5L12 5 7 7.5z" fill="#00446B"/><path d="M7 7l1 1 4-4-5 3z" fill="#FF7C7A"/><path d="M9 9L8 8l4-4-3 5z" fill="red"/><path d="M9 9L8 8l-4 4 5-3z" fill="#C7C7C7"/><path d="M7 7l1 1-4 4 3-5z" fill="#FFF"/></svg>