<svg ti:v="1" width="16" height="16" viewBox="0 0 16 16" xmlns="http://www.w3.org/2000/svg" xmlns:ti="urn:schemas-jetbrains-com:tisvg"><rect id="frame" width="16" height="16" fill="none"/><path d="M9.235 15.994l-.309-.019a12.953 12.953 0 0 1-.621-.044 6.511 6.511 0 0 1-1.905-.492A6.408 6.408 0 0 1 3.358 12.9a5.812 5.812 0 0 1-.944-2.8C2.4 9.923 2.4 9.745 2.4 9.567a6.484 6.484 0 0 1 1-3.416c-.244.152-.47.331-.673.534L1 5.714a8.772 8.772 0 0 1 .773-1.83A7.353 7.353 0 0 1 4.4 1.123 7.67 7.67 0 0 1 8.32 0h.024c.326 0 .566.017.8.033l.108.008a6.84 6.84 0 0 1 1.194.2 7.221 7.221 0 0 1 2.054.869 7.082 7.082 0 0 1 2.26 2.154c.367.543.653 1.137.848 1.762a8.7 8.7 0 0 1 .3 1.536c.058.464.089.93.092 1.398v.94a1.081 1.081 0 0 1-1.107 1.1H7.156c.205.355.525.63.906.781a4.053 4.053 0 0 0 1.529.311c.133 0 .265.007.4.007.267.001.534-.012.8-.039.326-.035.65-.098.965-.188a5.322 5.322 0 0 0 1.469-.643l.246-.157.31-.008h1l.011 1.042v2.817a1.091 1.091 0 0 1-.659 1.01l-.261.12c-.223.1-.447.208-.679.293-1.11.416-2.282.637-3.467.654h-.268c-.077 0-.158 0-.223-.006zM9.9 5.663l-.011-.023a1.313 1.313 0 0 0-.769-.815 2.564 2.564 0 0 0-1.012-.169h-.193l-.463.64a2.766 2.766 0 0 0-.223.362zm0 0" fill="#F4F4F4"/><path d="M15 7.96c-.002-.43-.03-.858-.082-1.284a7.806 7.806 0 0 0-.268-1.363 5.771 5.771 0 0 0-.727-1.5 6.117 6.117 0 0 0-1.952-1.853 6.17 6.17 0 0 0-1.761-.746 5.809 5.809 0 0 0-1.022-.175C8.9 1.019 8.621 1 8.338 1a6.655 6.655 0 0 0-3.419.976 6.32 6.32 0 0 0-2.27 2.39A7.926 7.926 0 0 0 2 5.993a9.964 9.964 0 0 1 5.325-2.284c.24-.032.483-.05.725-.052a3.6 3.6 0 0 1 1.458.243 2.317 2.317 0 0 1 1.318 1.389 3.4 3.4 0 0 1 .2 1.3c0 .051-.022.068-.072.068H5.962c-.059 0-.074-.022-.066-.075a4.3 4.3 0 0 1 .748-1.876c.024-.032.046-.067.07-.1a3.476 3.476 0 0 0-1.017.51c-.054.038-.112.072-.165.112a5.59 5.59 0 0 0-2.118 4.818c.063.83.338 1.63.8 2.322a5.409 5.409 0 0 0 2.577 2.151c.515.22 1.06.36 1.618.417.3.03.6.04.9.059.136.009.332 0 .41 0a9.286 9.286 0 0 0 3.132-.589c.3-.113.589-.26.884-.391a.093.093 0 0 0 .063-.1v-2.814c0-.037 0-.058-.031-.037a6.388 6.388 0 0 1-1.738.764c-.37.104-.747.177-1.128.219-.444.043-.89.055-1.336.036a5.052 5.052 0 0 1-1.9-.4A2.7 2.7 0 0 1 6 9.678a5.049 5.049 0 0 1-.048-.612c0-.051.016-.068.069-.068h8.873c.079 0 .108-.027.108-.1zm0 0" fill="#1BA1E2"/></svg>