<svg ti:v="1" width="16" height="16" viewBox="0 0 16 16" xmlns="http://www.w3.org/2000/svg" xmlns:ti="urn:schemas-jetbrains-com:tisvg"><rect id="frame" width="16" height="16" fill="none"/><path d="M8.235 15.994l-.309-.019c-.207-.012-.414-.023-.621-.044a6.511 6.511 0 0 1-1.905-.492A6.408 6.408 0 0 1 2.358 12.9a5.812 5.812 0 0 1-.944-2.8 6.49 6.49 0 0 1 .984-3.949 3.86 3.86 0 0 0-.673.535L0 5.713a8.819 8.819 0 0 1 .773-1.83A7.35 7.35 0 0 1 3.4 1.123 7.67 7.67 0 0 1 7.32 0h.024c.326 0 .566.017.8.033l.108.008c.403.03.803.098 1.194.2a7.247 7.247 0 0 1 2.046.866 7.1 7.1 0 0 1 2.268 2.157c.367.543.653 1.137.848 1.762a8.7 8.7 0 0 1 .3 1.536c.058.464.089.93.092 1.398v.94a1.081 1.081 0 0 1-1.107 1.1H6.156c.206.355.525.63.906.781a4.053 4.053 0 0 0 1.529.31c.133 0 .265.008.4.008.267 0 .534-.012.8-.039.326-.036.65-.098.965-.188a5.322 5.322 0 0 0 1.469-.643l.246-.157.31-.008h1l.011 1.042v2.816a1.092 1.092 0 0 1-.659 1.011l-.261.119c-.223.1-.447.208-.679.294-1.11.415-2.282.636-3.467.654h-.268c-.077 0-.158 0-.223-.006zM8.9 5.663l-.011-.023a1.31 1.31 0 0 0-.769-.815 2.546 2.546 0 0 0-1.012-.169h-.193l-.463.64a2.766 2.766 0 0 0-.223.362zm0 0" fill="#326580"/><path d="M14 7.96c-.002-.43-.03-.859-.082-1.285a7.813 7.813 0 0 0-.268-1.362 5.756 5.756 0 0 0-.727-1.5 6.117 6.117 0 0 0-1.952-1.853 6.17 6.17 0 0 0-1.761-.746 5.9 5.9 0 0 0-1.022-.176A12.717 12.717 0 0 0 7.338 1a6.644 6.644 0 0 0-3.419.975 6.328 6.328 0 0 0-2.27 2.391A7.9 7.9 0 0 0 1 5.993a9.964 9.964 0 0 1 5.325-2.284c.24-.032.483-.05.725-.053.498-.02.994.063 1.458.244a2.318 2.318 0 0 1 1.318 1.391c.15.416.218.858.2 1.3 0 .051-.022.067-.072.067H4.962c-.059 0-.074-.022-.066-.074.097-.676.353-1.32.748-1.877.024-.032.046-.066.07-.1a3.476 3.476 0 0 0-1.017.51c-.054.038-.112.072-.165.112a5.59 5.59 0 0 0-2.118 4.817c.063.83.338 1.63.8 2.322a5.4 5.4 0 0 0 2.577 2.15c.515.22 1.06.361 1.618.418.3.029.6.04.9.059.136.009.332 0 .41 0a9.261 9.261 0 0 0 3.132-.588c.3-.113.589-.26.884-.391a.093.093 0 0 0 .063-.1v-2.815c0-.037 0-.057-.031-.036a6.388 6.388 0 0 1-1.738.764c-.37.104-.747.177-1.128.218-.444.044-.89.056-1.336.036a5.051 5.051 0 0 1-1.9-.4A2.706 2.706 0 0 1 5 9.678a5.066 5.066 0 0 1-.048-.613c0-.05.016-.067.069-.067h8.873C13.971 9 14 8.97 14 8.9zm0 0" fill="#75E4FF"/></svg>