<svg ti:v="1" width="16" height="16" viewBox="0 0 16 16" xmlns="http://www.w3.org/2000/svg" xmlns:ti="urn:schemas-jetbrains-com:tisvg"><rect id="frame" width="16" height="16" fill="none"/><linearGradient id="a" x1=".5" y1=".002" x2=".5" y2=".996"><stop offset="0" stop-color="#806328"/><stop offset="1" stop-color="#544009"/></linearGradient><path d="M16 8A8 8 0 1 1 0 8a8 8 0 0 1 16 0z" fill="url(#a)"/><path d="M14.36 5.08a1.417 1.417 0 0 0-.08-.18H8.03a3.125 3.125 0 0 1 2.42 1.2c.425.542.654 1.212.65 1.9a3.008 3.008 0 0 1-.43 1.57l-3.18 5.4c.17.02.34.03.51.03a7.001 7.001 0 0 0 6.36-9.92zm0 0" fill="#FFCF00"/><path d="M14.28 4.9c.03.058.058.118.08.18L10.45 6.1a3.125 3.125 0 0 0-2.42-1.2h6.25zm0 0" fill="#996300"/><path d="M8 1a6.965 6.965 0 0 0-5.67 2.9c-.04.05-.08.1-.12.16L5.3 9.52A3.025 3.025 0 0 1 4.9 8c.001-.415.083-.826.24-1.21A3.121 3.121 0 0 1 8 4.9h6.27A6.968 6.968 0 0 0 8 1zm0 0" fill="#C48C00"/><path d="M8.42 11.07A3.1 3.1 0 0 1 5.3 9.52L2.21 4.06a7.001 7.001 0 0 0 5.11 10.9.488.488 0 0 0 .17.01l3.18-5.4a3.076 3.076 0 0 1-2.25 1.5zm0 0" fill="#EDA600"/><path d="M2.21 4.06c.04-.06.08-.11.12-.16l2.81 2.89A3.223 3.223 0 0 0 4.9 8a3.025 3.025 0 0 0 .4 1.52zm0 0" fill="#996300"/><path d="M10.67 9.57l-3.18 5.4a.488.488 0 0 1-.17-.01l1.1-3.89a3.076 3.076 0 0 0 2.25-1.5zm0 0" fill="#996300"/><path d="M10.766 5.855c.48.612.738 1.368.734 2.145a3.4 3.4 0 0 1-.485 1.773 3.476 3.476 0 0 1-2.541 1.693 3.5 3.5 0 0 1-3.522-1.75A3.411 3.411 0 0 1 4.5 8c.002-.469.094-.932.271-1.366A3.525 3.525 0 0 1 8 4.5h.034a3.527 3.527 0 0 1 2.732 1.355zm0 0" fill="#FFF"/><path d="M10.25 8a2.25 2.25 0 1 1-4.5 0 2.25 2.25 0 0 1 4.5 0z" fill="#C98300"/></svg>