<svg ti:v="1" width="16" height="16" viewBox="0 0 16 16" xmlns="http://www.w3.org/2000/svg" xmlns:ti="urn:schemas-jetbrains-com:tisvg"><rect id="frame" width="16" height="16" fill="none"/><path d="M8.5 16C4.154 16 1 12.636 1 8s3.154-8 7.5-8S16 3.364 16 8s-3.154 8-7.5 8zm0-13C7.785 3 7 4.047 7 5v6c0 .953.785 2 1.5 2s1.5-1.047 1.5-2V5c0-.953-.785-2-1.5-2zm0 0" fill="#252525"/><path d="M8.5 2.5c-.715 0-1.5 1.047-1.5 2V6c0-.953.785-2 1.5-2S10 5.047 10 6V4.5c0-.953-.785-2-1.5-2zm0 0" fill="#252525"/><path d="M8.5 12C7.785 12 7 10.953 7 10v1.5c0 .953.785 2 1.5 2s1.5-1.047 1.5-2V10c0 .953-.785 2-1.5 2zm0 0" fill="#252525"/><path d="M8.5 1C4.643 1 2 3.92 2 8s2.643 7 6.5 7S15 12.08 15 8s-2.643-7-6.5-7zm2.5 9c0 1.381-1.119 3-2.5 3S6 11.381 6 10V5c0-1.381 1.119-3 2.5-3S11 3.619 11 5zm0 0" fill="#FF4A4C"/><path d="M8.5 2C7.119 2 6 3.619 6 5v1c0-1.381 1.119-3 2.5-3S11 4.619 11 6V5c0-1.381-1.119-3-2.5-3zm0 0" fill="#FF4A4C"/><path d="M8.5 2C7.119 2 6 3.619 6 5v1c0-1.381 1.119-3 2.5-3S11 4.619 11 6V5c0-1.381-1.119-3-2.5-3zm0 0" fill="#FF4A4C"/></svg>