<svg ti:v="1" width="16" height="16.042" viewBox="0 0 16 16.042" xmlns="http://www.w3.org/2000/svg" xmlns:ti="urn:schemas-jetbrains-com:tisvg"><rect id="frame" width="16" height="16.042" fill="none"/><path d="M14.993 7.542a6.5 6.5 0 1 1-13 0 6.5 6.5 0 0 1 13 0z" fill="#F4F4F4"/><path d="M13.993 7.542a5.5 5.5 0 1 1-11 0 5.5 5.5 0 0 1 11 0z" fill="#6BE1FF"/><path d="M15.061 5.889A5.307 5.307 0 0 0 11.88 3.21l.008.011a5.4 5.4 0 0 1 2.005 4.321 5.331 5.331 0 0 1-5.4 5.4 5.33 5.33 0 0 1-5.4-5.4 5.37 5.37 0 0 1 5-5.453c.028-.041.073-.113.1-.152a4.968 4.968 0 0 0-3.263.119 5.3 5.3 0 0 0-.847.057h-.01a1.551 1.551 0 0 1-.139-.907.961.961 0 0 0-1.545-.99A4.06 4.06 0 0 0 .815 4.707a8.111 8.111 0 0 0-.347 6.248c1.125 3.492 4.657 5.083 7.462 5.083 4.119 0 7.332-2.658 7.812-6.464a7.284 7.284 0 0 0-.681-3.685zm0 0" fill="#F4F4F4"/><path d="M2.993 7.542a5.501 5.501 0 1 0 8.9-4.321c.9 1.033 1.136 3.874.7 5.323-.615 2.056-1.793 3.031-3.714 3.056a1.854 1.854 0 0 1-1.079-.536 6.56 6.56 0 0 0 1.017-.655c.4-.3 1.323-.858 1.334-1.492a.655.655 0 0 0-.28-.549C9.348 8 8.736 8.23 8.159 8.446c-.483.227-1.02.32-1.551.269 0-.268.038-.535.111-.793.071.056.056.048.64.586l.251-.721c.096-.258.142-.532.136-.807.28-.107.55-.234.812-.38.9-.571.906-1.094.83-1.356-.13-.446-.6-.672-1.467-.672a1.21 1.21 0 0 1-.787-.246c.115-.83.454-1.615.98-2.268a5.502 5.502 0 0 0-5.121 5.484zm0 0" fill="#EBEBEB"/><path d="M2.952 1.042c-.195 1.171.5 2.239 1.082 2.331-.857.301-1.6.86-2.127 1.6-.331-1.189-.565-2.833 1.045-3.931zm0 0" fill="#1255C9"/><path d="M6.54 4.317c.069.266.458.769 1.406.758 1.3-.014 1.167.585.343 1.107-.489.311-.994.267-1.417.943-.941.618-1.413-2.513-.332-2.808zm0 0" fill="#1255C9"/><path d="M7.93 2.042a2.568 2.568 0 0 0-2.513 1.042 3.214 3.214 0 0 0-3.551 1.749 7.011 7.011 0 0 0-.447 5.816 6.76 6.76 0 0 0 6.511 4.388c3.754 0 6.414-2.37 6.82-5.588a6.281 6.281 0 0 0-2.433-5.858 6.491 6.491 0 0 1 .754 5.1C12.328 11.176 10.8 12.1 8.8 12.1c-1.558 0-3.437-2.357-2.4-4.857.2-.033.555.213.733.378.44-1.255-.52-1.249-.548-2.7A3.511 3.511 0 0 1 7.93 2.042zm0 0" fill="#349CED"/><path d="M7.015 10.089s-.282 1.61 1.772 2a3.262 3.262 0 0 1-2.8-1.279 3.12 3.12 0 0 1 1.028-.721zm0 0" fill="#1255C9"/><path d="M6 9.042c.266.2.609.188 1.171.172.922-.025 1.875-.812 2.406-.437.294.207-.422.8-.875 1.094a4.125 4.125 0 0 1-3.156 1.093C4.719 10.821 4 10.371 6 9.042zm0 0" fill="#349CED"/><path d="M6.488 7.2a2.08 2.08 0 0 0-2.505 1.827 3.12 3.12 0 0 1 2.183-.688A3.78 3.78 0 0 1 6.488 7.2zm0 0" fill="#1255C9"/><path d="M3.983 9.011a2.086 2.086 0 0 1 2.38-1.736c.282.053.547.172.774.347.135-1.457-1.329-1.547-1.971-1.33-.946.322-1.386 1.329-1.183 2.719zm0 0" fill="#8CD5FF"/><path d="M11.424 11.348a4.006 4.006 0 0 0 2.584-3.139 4.817 4.817 0 0 0-1.134-3.573c.35.959.482 1.984.386 3a5.602 5.602 0 0 1-1.836 3.712zm0 0" fill="#8CD5FF"/></svg>