<svg ti:v="1" width="16" height="16" viewBox="0 0 16 16" xmlns="http://www.w3.org/2000/svg" xmlns:ti="urn:schemas-jetbrains-com:tisvg"><rect id="frame" width="16" height="16" fill="none"/><linearGradient id="a" x1=".5" y1=".002" x2=".5" y2=".996"><stop offset="0" stop-color="#C28C21"/><stop offset="1" stop-color="#634933"/></linearGradient><path d="M1 15V3h6.586l2-2H16v14H1z" fill="url(#a)"/><linearGradient id="b" x1=".5" y1=".002" x2=".5" y2=".996"><stop offset="0" stop-color="#FFE9BD"/><stop offset="1" stop-color="#D4A24C"/></linearGradient><path d="M15 14V2h-5L8 4H2v10h13z" fill="url(#b)"/><linearGradient id="c" x1=".5" y1=".002" x2=".5" y2=".996"><stop offset="0" stop-color="#B88143"/><stop offset="1" stop-color="#8A4717"/></linearGradient><path d="M3 6h11v7H3z" fill="url(#c)"/><linearGradient id="d" x1=".5" y1="-.005" x2=".5" y2="1.025"><stop offset="0" stop-color="#257523"/><stop offset="1" stop-color="#005713"/></linearGradient><path fill-rule="evenodd" d="M2 16v-2H0v-4h2V8h4v2h2v4H6v2H2z" fill="url(#d)"/><linearGradient id="e" x1=".5" y1=".013" x2=".5" y2="1.027"><stop offset=".012" stop-color="#A2FFA0"/><stop offset=".988" stop-color="#31D354"/></linearGradient><path fill-rule="evenodd" d="M7 11H5V9H3v2H1v2h2v2h2v-2h2v-2z" fill="url(#e)"/></svg>