<svg ti:v="1" width="16" height="16" viewBox="0 0 16 16" xmlns="http://www.w3.org/2000/svg" xmlns:ti="urn:schemas-jetbrains-com:tisvg"><rect id="frame" width="16" height="16" fill="none"/><linearGradient id="a" x1=".5" y1=".004" x2=".5" y2="1.004"><stop offset="0" stop-color="#4574D4"/><stop offset="1" stop-color="#0043CC"/></linearGradient><path fill-rule="evenodd" d="M0 10h5.999V-.001H0V10z" fill="url(#a)"/><linearGradient id="b" x1=".5" y1=".016" x2=".5" y2="1"><stop offset="0" stop-color="#C4D8FF"/><stop offset="1" stop-color="#77A5FF"/></linearGradient><path fill-rule="evenodd" d="M1 3h4V1H1m0 5h4V4H1m0 5h4V7H1v2z" fill="url(#b)"/><linearGradient id="c" x1=".5" y1=".014" x2=".5" y2="1.028"><stop offset="0" stop-color="#435B80"/><stop offset="1" stop-color="#1C2737"/></linearGradient><path fill-rule="evenodd" d="M9 10c-1.655 0-3 1.346-3 3v3h10v-3c0-1.654-1.346-3-3-3H9z" fill="url(#c)"/><linearGradient id="d" x1=".5" y1=".018" x2=".5" y2="1"><stop offset="0" stop-color="#87BEDE"/><stop offset="1" stop-color="#0070C2"/></linearGradient><path fill-rule="evenodd" d="M9 11a2 2 0 0 0-2 2v2h8v-2a2 2 0 0 0-2-2H9z" fill="url(#d)"/><path fill-rule="evenodd" d="M13 11h-.5L8 15h1.5l4.306-3.828A1.986 1.986 0 0 0 13 11z" fill="#FFF"/><linearGradient id="e" x1=".5" y1=".012" x2=".5" y2="1.004"><stop offset="0" stop-color="#435B80"/><stop offset="1" stop-color="#1C2737"/></linearGradient><path fill-rule="evenodd" d="M8 3v2.586L6.586 7H14V3H8z" fill="url(#e)"/><linearGradient id="f" x1=".5" y1=".021" x2=".5" y2="1.021"><stop offset="0" stop-color="#0070C2"/><stop offset="1" stop-color="#87BEDE"/></linearGradient><path fill-rule="evenodd" d="M9 5h4V4H9m0 2L8 7h5V6H9z" fill="url(#f)"/><path fill-rule="evenodd" d="M13 6H9V5h4v1z" fill="#FFF"/><path fill-rule="evenodd" d="M8 7v1a3 3 0 1 0 6 0V7H8z" fill="#6E4623"/><linearGradient id="g" x1="0" y1=".5" x2="1" y2=".5"><stop offset="0" stop-color="#FFEABF"/><stop offset="1" stop-color="#FBC658"/></linearGradient><path fill-rule="evenodd" d="M9 7v1a2 2 0 1 0 4 0V7H9z" fill="url(#g)"/></svg>