<svg ti:v="1" width="16" height="16" viewBox="0 0 16 16" xmlns="http://www.w3.org/2000/svg" xmlns:ti="urn:schemas-jetbrains-com:tisvg"><rect id="frame" width="16" height="16" fill="none"/><g fill-rule="evenodd"><path d="M6 0H0v10h6V0z" fill="#242424"/><path d="M1 9h4V7H1m0-4h4V1H1m0 3h4v2H1V4z" fill="#C4C4C4"/><path d="M9 10c-1.654 0-3 1.346-3 3v3h10v-3c0-1.654-1.346-3-3-3H9z" fill="#242424"/><path d="M9 11h4a2 2 0 0 1 2 2v2H7v-2a2 2 0 0 1 2-2z" fill="#C4C4C4"/><path d="M13 11h-.5L8 15h1.5l4.306-3.828A1.986 1.986 0 0 0 13 11z" fill="#282828"/><path d="M14 7V3H8v2.586L6.586 7H14z" fill="#242424"/><path d="M9 5h4V4H9m0 2h4v1H8l1-1z" fill="#C4C4C4"/><path d="M13 6H9V5h4v1z" fill="#282828"/><path d="M8 7v1a3 3 0 1 0 6 0V7H8z" fill="#242424"/><path d="M9 7v1a2 2 0 0 0 4 0V7H9z" fill="#C4C4C4"/></g></svg>