<svg ti:v="1" width="16" height="16" viewBox="0 0 16 16" xmlns="http://www.w3.org/2000/svg" xmlns:ti="urn:schemas-jetbrains-com:tisvg"><rect id="frame" width="16" height="16" fill="none"/><linearGradient id="a" x1=".5" y1="0" x2=".5" y2=".998"><stop offset="0" stop-color="#385985"/><stop offset="1" stop-color="#263C59"/></linearGradient><path fill-rule="evenodd" d="M4 10h12V0H4v10z" fill="url(#a)"/><linearGradient id="b" x1=".5" y1=".006" x2=".5" y2="1.01"><stop offset="0" stop-color="#91B6FF"/><stop offset="1" stop-color="#6A95E7"/></linearGradient><path fill-rule="evenodd" d="M5 9h10V1H5v8z" fill="url(#b)"/><path fill-rule="evenodd" d="M14 8H6V3h8v5z" fill="#FFF"/><path fill-rule="evenodd" d="M6 16c-.776 0-1.496-.37-2-.716-.504.346-1.224.716-2 .716H.016L0 15v-2h2V8H0V5h2c.776 0 1.496.37 2 .716C4.504 5.37 5.224 5 6 5h1.984L8 6v2H6v5h2v3H6z" fill="#595959"/><path fill-rule="evenodd" d="M7 7V6H6C5 6 4 7 4 7S3 6 2 6H1v1h2v7H1v1h1c1 0 2-1 2-1s1 1 2 1h1v-1H5V7h2z" fill="#FFF"/><linearGradient id="c" x1=".5" y1=".017" x2=".5" y2="1.005"><stop offset="0" stop-color="#9E771F"/><stop offset="1" stop-color="#604913"/></linearGradient><path fill-rule="evenodd" d="M7.994 8.586V11h-1v3h5.415l1.586-1.586V11h1.999V8.586l-3.999-4-4.001 4z" fill="url(#c)"/><linearGradient id="d" x1=".5" y1="0" x2=".5" y2="1.009"><stop offset="0" stop-color="#FFF082"/><stop offset="1" stop-color="#FFD95B"/></linearGradient><path fill-rule="evenodd" d="M8.995 9l-.001 1 2.001-1v3H7.994v1h4l1-1 .001-3 1.999 1V9l-2.999-3-3 3z" fill="url(#d)"/></svg>