<svg ti:v="1" width="16" height="16" viewBox="0 0 16 16" xmlns="http://www.w3.org/2000/svg" xmlns:ti="urn:schemas-jetbrains-com:tisvg"><rect id="frame" width="16" height="16" fill="none"/><g fill-rule="evenodd"><path d="M16 10H4V0h12v10z" fill="#F4F4F4"/><path d="M5 9h10V1H5v8z" fill="#313131"/><path d="M14 8H6V3h8v5z" fill="#EBEBEB"/><path d="M12 4.586l-4 4V11H7v3h5.414l1.587-1.586V11h2V8.586l-4-4z" fill="#F4F4F4"/><path d="M12 6L9 9v1l2-1v3H8v1h4l1-1V9l2 1V9l-3-3z" fill="#00529C"/><path d="M6 16c-.776 0-1.496-.37-2-.716-.504.346-1.224.716-2 .716H.016L0 15v-2h2V8H0V5h2c.776 0 1.496.37 2 .716C4.504 5.37 5.224 5 6 5h1.984L8 6v2H6v5h2v3H6z" fill="#F4F4F4"/><path d="M7 7V6H6C5 6 4 7 4 7S3 6 2 6H1v1h2v7H1v1h1c1 0 2-1 2-1s1 1 2 1h1v-1H5V7h2z" fill="#313131"/></g></svg>