<svg ti:v="1" width="16" height="16" viewBox="0 0 16 16" xmlns="http://www.w3.org/2000/svg" xmlns:ti="urn:schemas-jetbrains-com:tisvg"><rect id="frame" width="16" height="16" fill="none"/><linearGradient id="a" x1=".5" y1="0" x2=".5" y2="1"><stop offset="0" stop-color="#3E8187"/><stop offset="1" stop-color="#1D3C3F"/></linearGradient><path fill-rule="evenodd" d="M0 8a8 8 0 0 0 16 0A8 8 0 0 0 0 8z" fill="url(#a)"/><linearGradient id="b" x1=".5" y1="0" x2=".5" y2="1"><stop offset="0" stop-color="#FFF"/><stop offset="1" stop-color="#E1F7F9"/></linearGradient><path fill-rule="evenodd" d="M1 8c0 3.865 3.135 7 7 7s7-3.135 7-7A7 7 0 0 0 1 8z" fill="url(#b)"/><linearGradient id="c" x1=".5" y1="0" x2=".5" y2="1"><stop offset="0" stop-color="#FFF"/><stop offset="1" stop-color="#BADDE0"/></linearGradient><path fill-rule="evenodd" d="M3 8a5 5 0 0 0 10 0A5.001 5.001 0 0 0 3 8z" fill="url(#c)"/><path fill-rule="evenodd" d="M5.424 5.924L6 5.348l2 2 2-2 .576.576L8 8.5 5.424 5.924z" fill="#003033"/><path fill-rule="evenodd" d="M5.424 8.924L6 8.348l2 2 2-2 .576.576L8 11.5 5.424 8.924z" fill="#003033"/></svg>