<svg ti:v="1" width="16" height="16" viewBox="0 0 16 16" xmlns="http://www.w3.org/2000/svg" xmlns:ti="urn:schemas-jetbrains-com:tisvg"><rect id="frame" width="16" height="16" fill="none"/><g fill-rule="evenodd"><path d="M16 8A8 8 0 1 1 0 8a8 8 0 0 1 16 0z" fill="#F4F4F4"/><path d="M8 1C4.135 1 1 4.135 1 8s3.135 7 7 7 7-3.135 7-7-3.135-7-7-7z" fill="#313131"/><path d="M8 13a5 5 0 1 1 .001-10.001A5 5 0 0 1 8 13z" fill="#EBEBEB"/><path d="M5.424 5.924L6 5.348l2 2 2-2 .576.576L8 8.5 5.424 5.924z" fill="#313131"/><path d="M5.424 8.924L6 8.348l2 2 2-2 .576.576L8 11.5 5.424 8.924z" fill="#313131"/></g></svg>