<svg ti:v="1" width="16" height="16" viewBox="0 0 16 16" xmlns="http://www.w3.org/2000/svg" xmlns:ti="urn:schemas-jetbrains-com:tisvg"><rect id="frame" width="16" height="16" fill="none"/><linearGradient id="a" x1=".5" y1=".038" x2=".5" y2="1.025"><stop offset="0" stop-color="#4574D4"/><stop offset="1" stop-color="#0043CC"/></linearGradient><path fill-rule="evenodd" d="M7 0H0v5h7V0z" fill="url(#a)"/><path fill-rule="evenodd" d="M11.618 4L12 3.236V2H9.382L8 4.764v2.822L5.414 5H1v4.414L2.586 11H4v2h1.414L8 10.414v2.822L9.382 16H12v-1.236L11.618 14 11 13V5l.618-1z" fill="#677280"/><linearGradient id="b" x1=".5" y1=".051" x2=".5" y2="1.051"><stop offset="0" stop-color="#C4D8FF"/><stop offset="1" stop-color="#77A5FF"/></linearGradient><path fill-rule="evenodd" d="M1 4h5V1H1v3z" fill="url(#b)"/><path fill-rule="evenodd" d="M8 9L5 6v2H3V5H2v4l1 1h2v2m5 1l1 2h-1l-1-2V5l1-2h1l-1 2v8z" fill="#C2DDED"/><linearGradient id="c" x1=".5" y1=".008" x2=".5" y2="1"><stop offset="0" stop-color="#048A1A"/><stop offset="1" stop-color="#064C10"/></linearGradient><path fill-rule="evenodd" d="M16 14h-6V4h6v10z" fill="url(#c)"/><linearGradient id="d" x1=".5" y1=".01" x2=".5" y2="1.01"><stop offset="0" stop-color="#07D428"/><stop offset="1" stop-color="#0C911F"/></linearGradient><path fill-rule="evenodd" d="M11 13h4v-2h-4m0-4h4V5h-4m0 3h4v2h-4V8z" fill="url(#d)"/></svg>