<svg ti:v="1" width="16" height="16" viewBox="0 0 16 16" xmlns="http://www.w3.org/2000/svg" xmlns:ti="urn:schemas-jetbrains-com:tisvg"><rect id="frame" width="16" height="16" fill="none"/><g fill-rule="evenodd"><path d="M12 12.764L11.618 12H16V2h-4.382L12 1.237V0H9.382L8 2.764V4H3.586L2 5.586V7H0v1.414L2.586 11H0v5h7v-5H5.414L8 8.414v2.822L9.382 14H12v-1.236z" fill="#242424"/><path d="M4 11l3-3H5V6h3V5H4L3 6v2H1l3 3z" fill="#7CBEFF"/><path d="M11 8h4V6h-4v2z" fill="#C4C4C4"/><path d="M11 5h4V3h-4v2z" fill="#C4C4C4"/><path d="M1 15h5v-3H1v3z" fill="#C4C4C4"/><path d="M11 11h4V9h-4v2z" fill="#C4C4C4"/><path d="M10 3l1-2h-1L9 3v8l1 2h1l-1-2V3z" fill="#C4C4C4"/></g></svg>