<svg ti:v="1" width="16" height="16" viewBox="0 0 16 16" xmlns="http://www.w3.org/2000/svg" xmlns:ti="urn:schemas-jetbrains-com:tisvg"><rect id="frame" width="16" height="16" fill="none"/><g fill-rule="evenodd"><path d="M11.618 4L12 3.236V2H9.382L8 4.764v2.822L5.414 5H7V0H0v5h1v4.414L2.586 11H4v2h1.414L8 10.414v2.822L9.382 16H12v-1.236L11.618 14H16V4h-4.382z" fill="#F4F4F4"/><path d="M11 10h4V8h-4v2z" fill="#313131"/><path d="M11 7h4V5h-4v2z" fill="#313131"/><path d="M1 4h5V1H1v3z" fill="#313131"/><path d="M11 13h4v-2h-4v2z" fill="#313131"/><path d="M10 5l1-2h-1L9 5v8l1 2h1l-1-2V5z" fill="#313131"/><path d="M8 9L5 6v2H3V5H2v4l1 1h2v2l3-3z" fill="#00529C"/></g></svg>