<svg ti:v="1" width="16" height="16" viewBox="0 0 16 16" xmlns="http://www.w3.org/2000/svg" xmlns:ti="urn:schemas-jetbrains-com:tisvg"><rect id="frame" width="16" height="16" fill="none"/><path fill-rule="evenodd" d="M11 11V3l.618-1L12 1.236V0H9.382L8 2.764V4H3.586L2 5.586V7H0v1.414L2.586 11h2.828L8 8.414v2.822L9.382 14H12v-1.236L11.618 12 11 11z" fill="#677280"/><linearGradient id="a" x1=".5" y1=".017" x2=".5" y2=".984"><stop offset="0" stop-color="#4574D4"/><stop offset="1" stop-color="#0043CC"/></linearGradient><path fill-rule="evenodd" d="M0 16h7v-5H0v5z" fill="url(#a)"/><linearGradient id="b" x1=".5" y1=".028" x2=".5" y2="1"><stop offset="0" stop-color="#C4D8FF"/><stop offset="1" stop-color="#77A5FF"/></linearGradient><path fill-rule="evenodd" d="M1 15h5v-3H1v3z" fill="url(#b)"/><path fill-rule="evenodd" d="M10 3l1-2h-1L9 3v8l1 2h1l-1-2M1 8h2V6l1-1h4v1H5v2h2l-3 3-3-3z" fill="#C2DDED"/><linearGradient id="c" x1=".5" y1=".013" x2=".5" y2="1"><stop offset="0" stop-color="#7B46A8"/><stop offset="1" stop-color="#490785"/></linearGradient><path fill-rule="evenodd" d="M10 12h6V2h-6v10z" fill="url(#c)"/><linearGradient id="d" x1=".5" y1=".008" x2=".5" y2="1"><stop offset="0" stop-color="#D1A0F9"/><stop offset="1" stop-color="#B35BFF"/></linearGradient><path fill-rule="evenodd" d="M11 11h4V9h-4m0-4h4V3h-4m0 3h4v2h-4V6z" fill="url(#d)"/></svg>