<svg ti:v="1" width="16" height="16" viewBox="0 0 16 16" xmlns="http://www.w3.org/2000/svg" xmlns:ti="urn:schemas-jetbrains-com:tisvg"><rect id="frame" width="16" height="16" fill="none"/><linearGradient id="a" x1=".5" y1=".003" x2=".5" y2="1.003"><stop offset="0" stop-color="#7C6D47"/><stop offset="1" stop-color="#60492F"/></linearGradient><path fill-rule="evenodd" d="M0 8a8 8 0 0 0 8 8 8 8 0 0 0 8-8 8 8 0 0 0-8-8 8 8 0 0 0-8 8z" fill="url(#a)"/><linearGradient id="b" x1=".5" y1="0" x2=".5" y2="1"><stop offset="0" stop-color="#E3C883"/><stop offset="1" stop-color="#C79862"/></linearGradient><path fill-rule="evenodd" d="M1 8a7 7 0 0 0 7 7A7 7 0 1 0 8 1a7 7 0 0 0-7 7z" fill="url(#b)"/><linearGradient id="c" x1=".5" y1="-.01" x2=".5" y2="1.015"><stop offset="0" stop-color="#FFF3D4"/><stop offset="1" stop-color="#FFF"/></linearGradient><path fill-rule="evenodd" d="M5 2.809v1.213C3.792 4.936 3 6.369 3 8a5 5 0 0 0 5 5c.182 0 .355-.035.532-.053l.88.879A5.95 5.95 0 0 0 11 13.191v-1.214c1.208-.912 2-2.346 2-3.977a5 5 0 0 0-5-5c-.182 0-.355.035-.532.054l-.88-.88A5.93 5.93 0 0 0 5 2.809z" fill="url(#c)"/><linearGradient id="d" x1=".01" y1=".001" x2=".994" y2="1.003"><stop offset="0" stop-color="#0076E7"/><stop offset="1" stop-color="#ED0F00"/></linearGradient><path fill-rule="evenodd" d="M6 9l4 4V7L6 3v6z" fill="url(#d)"/><path fill-rule="evenodd" d="M7 8.5v.086l2 2V7.5l-2 1z" fill="#FFF"/></svg>