<svg ti:v="1" width="16" height="16" viewBox="0 0 16 16" xmlns="http://www.w3.org/2000/svg" xmlns:ti="urn:schemas-jetbrains-com:tisvg"><rect id="frame" width="16" height="16" fill="none"/><g fill-rule="evenodd"><path d="M7.586 12l3.5-3.5-3.5-3.5 5-5h.828L16 2.586v2.828L13.914 7.5 16 9.586v2.828L12.414 16h-.828l-4-4z" fill="#242424"/><path d="M5.46 4H3v1l.59 1H0v5h3.59L3 12v1h2.46L10 8.5 5.46 4z" fill="#242424"/><path d="M5 12H4l1-2H1V7h4L4 5h1l3.5 3.5L5 12z" fill="#7CBEFF"/><path d="M15 10l-2-2-4 4 3 3 3-3v-2z" fill="#C4C4C4"/><path d="M15 3l-2-2-4 4 3 3 3-3V3z" fill="#C4C4C4"/><path d="M12 6.586l2-2V3.414l-1-1L10.414 5m0 7L13 9.414l1 1v1.172l-2 2L10.414 12z" fill="#282828"/></g></svg>