<svg ti:v="1" width="16" height="16" viewBox="0 0 16 16" xmlns="http://www.w3.org/2000/svg" xmlns:ti="urn:schemas-jetbrains-com:tisvg"><rect id="frame" width="16" height="16" fill="none"/><linearGradient id="a" x1=".019" y1=".5" x2=".981" y2=".5"><stop offset="0" stop-color="#5572A1"/><stop offset="1" stop-color="#405980"/></linearGradient><path fill-rule="evenodd" d="M5.461 4H3v1l.591 1H0v5h3.591L3 12v1h2.461L10 8.5 5.461 4z" fill="url(#a)"/><linearGradient id="b" x1=".5" y1=".026" x2=".5" y2=".987"><stop offset="0" stop-color="#8CD5FF"/><stop offset=".994" stop-color="#20A2FF"/><stop offset="1" stop-color="#20A2FF"/></linearGradient><path fill-rule="evenodd" d="M5 12H4l1-2H1V7h4L4 5h1l3.5 3.5L5 12z" fill="url(#b)"/><linearGradient id="c" x1=".5" y1="-.003" x2=".5" y2="1.018"><stop offset="0" stop-color="#7C6D47"/><stop offset="1" stop-color="#60492F"/></linearGradient><path fill-rule="evenodd" d="M16 2.586L13.414 0h-.828L8 4.586v.828L11.086 8.5 8 11.586v.828L11.586 16h.828L16 12.414V9.586L13.914 7.5 16 5.414V2.586z" fill="url(#c)"/><linearGradient id="d" x1=".5" y1=".008" x2=".5" y2="1.011"><stop offset="0" stop-color="#E3D8BC"/><stop offset="1" stop-color="#E3CDB3"/></linearGradient><path fill-rule="evenodd" d="M15 10l-2-2-4 4 3 3 3-3v-2z" fill="url(#d)"/><linearGradient id="e" x1=".5" y1="0" x2=".5" y2=".996"><stop offset="0" stop-color="#E3D8BC"/><stop offset="1" stop-color="#E3CDB3"/></linearGradient><path fill-rule="evenodd" d="M15 3l-2-2-4 4 3 3 3-3V3z" fill="url(#e)"/><linearGradient id="f" x1=".5" y1=".014" x2=".5" y2="1.005"><stop offset="0" stop-color="#FFF3D4"/><stop offset="1" stop-color="#FFF"/></linearGradient><path fill-rule="evenodd" d="M10.414 12L13 9.414l1 1v1.172l-2 2L10.414 12z" fill="url(#f)"/><linearGradient id="g" x1=".5" y1=".002" x2=".5" y2="1.017"><stop offset="0" stop-color="#FFF3D4"/><stop offset="1" stop-color="#FFF"/></linearGradient><path fill-rule="evenodd" d="M12 6.586l2-2V3.414l-1-1L10.414 5 12 6.586z" fill="url(#g)"/></svg>