<svg ti:v="1" width="16" height="16" viewBox="0 0 16 16" xmlns="http://www.w3.org/2000/svg" xmlns:ti="urn:schemas-jetbrains-com:tisvg"><rect id="frame" width="16" height="16" fill="none"/><g fill-rule="evenodd"><path d="M0 14.896v-.777L4.433 9l2.548 2.549-5.12 4.432h-.775L0 14.896z" fill="#242424"/><path d="M7.546 4.021l-.565-.565v-1L8.438 1h1l.564.565L11.567 0h.828l3.586 3.586v.828l-1.565 1.565.565.565v1L13.525 9h-1l-.565-.565L7.395 13h-.828L2.981 9.414v-.828l4.565-4.565z" fill="#242424"/><path d="M3.981 9l5-5-1-1 1-1 5 5-1 1-1-1-5 5-3-3z" fill="#C3C3C3"/><path d="M9.567 8l-2.586 2.586L5.395 9l1-1h3.172z" fill="#282828"/><path d="M11.981 7l-.728.728-.772-2.228 1.5 1.5z" fill="#C3C3C3"/><path d="M4.295 10.727l.959.96L1.5 14.98l-.5-.5 3.295-3.754z" fill="#C3C3C3"/><path d="M8.253 4.728L8.981 4l1.5 1.5-2.228-.772z" fill="#282828"/><path d="M10.981 2l1-1 3 3-1 1-3-3z" fill="#C3C3C3"/><path d="M.981 3.408L12.573 15h.191l2.217-2.217v-.203L3.401 1h-.19L.98 3.228v.18z" fill="#242424"/><path d="M12.669 13.682l1-1L3.306 2.319l-1 1 10.363 10.363z" fill="#F28366"/></g></svg>