<svg ti:v="1" width="16" height="16" viewBox="0 0 16 16" xmlns="http://www.w3.org/2000/svg" xmlns:ti="urn:schemas-jetbrains-com:tisvg"><rect id="frame" width="16" height="16" fill="none"/><linearGradient id="a" x1=".278" y1=".383" x2=".627" y2=".732"><stop offset="0" stop-color="#2499CE"/><stop offset="1" stop-color="#103358"/></linearGradient><path fill-rule="evenodd" d="M0 14.896v-.777L4.433 9l2.548 2.549-5.12 4.432h-.775L0 14.896z" fill="url(#a)"/><linearGradient id="b" x1=".336" y1=".336" x2=".672" y2=".672"><stop offset="0" stop-color="#1C4D6A"/><stop offset="1" stop-color="#072241"/></linearGradient><path fill-rule="evenodd" d="M7.546 4.021l-.565-.565v-1L8.438 1h1l.564.565L11.567 0h.829l3.585 3.586v.828l-1.564 1.565.564.565v1L13.525 9h-1l-.565-.565L7.396 13h-.829L2.981 9.414v-.828l4.565-4.565z" fill="url(#b)"/><path fill-rule="evenodd" d="M3.981 9l5-5-1-1 1-1 5 5-1 1-1-1-5 5-3-3z" fill="#FFF"/><path fill-rule="evenodd" d="M9.567 8l-2.586 2.586L5.395 9l1-1h3.172z" fill="#1FC200"/><path fill-rule="evenodd" d="M11.981 7l-.728.728-.772-2.228 1.5 1.5z" fill="#0E2F4E"/><path fill-rule="evenodd" d="M4.295 10.727l.959.96L1.5 14.98l-.5-.5 3.295-3.754z" fill="#FFF"/><path fill-rule="evenodd" d="M8.253 4.728L8.981 4l1.5 1.5-2.228-.772z" fill="#FFF"/><linearGradient id="c" x1=".152" y1=".152" x2=".868" y2=".868"><stop offset="0" stop-color="#95DDFF"/><stop offset="1" stop-color="#549AEA"/></linearGradient><path fill-rule="evenodd" d="M10.981 2l1-1 3 3-1 1-3-3z" fill="url(#c)"/><path fill-rule="evenodd" d="M.981 3.408L12.573 15h.191l2.217-2.217v-.203L3.401 1h-.19L.98 3.228v.18z" fill="#820000"/><path fill-rule="evenodd" d="M12.669 13.682l1-1L3.306 2.319l-1 1 10.363 10.363z" fill="red"/></svg>