<svg ti:v="1" width="16" height="16" viewBox="0 0 16 16" xmlns="http://www.w3.org/2000/svg" xmlns:ti="urn:schemas-jetbrains-com:tisvg"><rect id="frame" width="16" height="16" fill="none"/><g fill-rule="evenodd"><path d="M16 7c0 3.865-3.135 7-7 7s-7-3.135-7-7 3.135-7 7-7 7 3.135 7 7z" fill="#F4F4F4"/><path d="M15 7A6 6 0 1 1 3 7a6 6 0 0 1 12 0z" fill="#313131"/><path d="M13 7a4 4 0 0 0-4-4c-.101 0-.195.022-.294.029l-1.084-.812A4.94 4.94 0 0 0 6 3.022V4.38C5.385 5.083 5 5.992 5 7a4 4 0 0 0 4 4c.101 0 .195-.022.294-.029l1.084.812A4.94 4.94 0 0 0 12 10.978V9.62c.615-.703 1-1.612 1-2.62z" fill="#EBEBEB"/><path d="M7 3v5l4 3V6L7 3z" fill="#313131"/><path d="M8 7.5l2-1V9L8 7.5z" fill="#EBEBEB"/><path d="M0 16V7h5.414L8 9.586V16H0z" fill="#F4F4F4"/><path d="M1 8v7h6v-5L5 8H1z" fill="#313131"/><path d="M4 9H2v5h4v-3H4V9z" fill="#EBEBEB"/></g></svg>