<svg ti:v="1" width="16" height="16" viewBox="0 0 16 16" xmlns="http://www.w3.org/2000/svg" xmlns:ti="urn:schemas-jetbrains-com:tisvg"><rect id="frame" width="16" height="16" fill="none"/><linearGradient id="a" x1=".5" y1=".003" x2=".5" y2="1.003"><stop offset="0" stop-color="#7C6D47"/><stop offset="1" stop-color="#60492F"/></linearGradient><path fill-rule="evenodd" d="M2 7c0 3.865 3.135 7 7 7s7-3.135 7-7-3.135-7-7-7-7 3.135-7 7z" fill="url(#a)"/><linearGradient id="b" x1=".5" y1="0" x2=".5" y2="1"><stop offset="0" stop-color="#E3C883"/><stop offset="1" stop-color="#C79862"/></linearGradient><path fill-rule="evenodd" d="M3 7a6 6 0 1 0 12 0A6 6 0 0 0 3 7z" fill="url(#b)"/><linearGradient id="c" x1=".5" y1="-.01" x2=".5" y2="1.015"><stop offset="0" stop-color="#FFF3D4"/><stop offset="1" stop-color="#FFF"/></linearGradient><path fill-rule="evenodd" d="M6 3.023V4.38C5.385 5.083 5 5.993 5 7a4 4 0 0 0 4 4c.1 0 .196-.022.294-.029l1.084.812A4.97 4.97 0 0 0 12 10.978V9.62c.615-.703 1-1.612 1-2.62a4 4 0 0 0-4-4c-.1 0-.195.023-.294.029l-1.084-.812A4.933 4.933 0 0 0 6 3.023z" fill="url(#c)"/><linearGradient id="d" x1=".095" y1="-.016" x2=".909" y2="1.02"><stop offset="0" stop-color="#0076E7"/><stop offset="1" stop-color="#ED0F00"/></linearGradient><path fill-rule="evenodd" d="M7 8l4 3V6L7 3v5z" fill="url(#d)"/><path fill-rule="evenodd" d="M8 7.5l2-1V9L8 7.5z" fill="#FFF"/><linearGradient id="e" x1=".5" y1="0" x2=".5" y2="1.014"><stop offset="0" stop-color="#7C6D47"/><stop offset="1" stop-color="#60492F"/></linearGradient><path fill-rule="evenodd" d="M0 7v9h8V9.586L5.414 7H0z" fill="url(#e)"/><linearGradient id="f" x1=".5" y1="0" x2=".5" y2="1.014"><stop offset="0" stop-color="#E3D8BC"/><stop offset="1" stop-color="#E3CDB3"/></linearGradient><path fill-rule="evenodd" d="M1 8v7h6v-5L5 8H1z" fill="url(#f)"/><linearGradient id="g" x1=".5" y1="-.018" x2=".5" y2="1.055"><stop offset="0" stop-color="#FFF3D4"/><stop offset="1" stop-color="#FFF"/></linearGradient><path fill-rule="evenodd" d="M2 9v5h4v-3H4V9H2z" fill="url(#g)"/></svg>