<svg ti:v="1" width="16" height="16" viewBox="0 0 16 16" xmlns="http://www.w3.org/2000/svg" xmlns:ti="urn:schemas-jetbrains-com:tisvg"><rect id="frame" width="16" height="16" fill="none"/><g fill-rule="evenodd"><path d="M16 8A8 8 0 1 1 0 8a8 8 0 0 1 16 0z" fill="#F4F4F4"/><path d="M15 8A7 7 0 1 1 1 8a7 7 0 0 1 14 0z" fill="#313131"/><path d="M13 8a5 5 0 0 0-5-5c-.182 0-.355.035-.532.054l-.88-.88A5.963 5.963 0 0 0 5 2.809v1.213C3.792 4.935 3 6.369 3 8a5 5 0 0 0 5 5c.182 0 .355-.035.532-.054l.88.88A5.963 5.963 0 0 0 11 13.191v-1.213c1.208-.913 2-2.347 2-3.978z" fill="#EBEBEB"/><path d="M6 3v6l4 4V7L6 3z" fill="#313131"/><path d="M7 8.5v.086l2 2V7.5l-2 1z" fill="#EBEBEB"/></g></svg>