<svg ti:v="1" width="16" height="16" viewBox="0 0 16 16" xmlns="http://www.w3.org/2000/svg" xmlns:ti="urn:schemas-jetbrains-com:tisvg"><rect id="frame" width="16" height="16" fill="none"/><g fill-rule="evenodd"><path d="M16 4H4l-4 6 4 6h12V4z" fill="#F4F4F4"/><path d="M4.535 15l-3.333-5 3.333-5H15v10H4.535z" fill="#313131"/><path d="M5.605 13l-2-3 2-3h7.396v6H5.605z" fill="#EBEBEB"/><path d="M12.914 4L15.5 1.414V0H9.882L6.5 6.764V8h2.382l-2 4h2.532L16 5.414V4h-3.086z" fill="#F4F4F4"/><path d="M14.5 1h-4l-3 6h3l-2 4H9l6-6h-4.5l4-4z" fill="#313131"/></g></svg>