<svg ti:v="1" width="16" height="16" viewBox="0 0 16 16" xmlns="http://www.w3.org/2000/svg" xmlns:ti="urn:schemas-jetbrains-com:tisvg"><rect id="frame" width="16" height="16" fill="none"/><linearGradient id="a" x1=".5" y1=".002" x2=".5" y2="1.003"><stop offset="0" stop-color="#385985"/><stop offset="1" stop-color="#263C59"/></linearGradient><path fill-rule="evenodd" d="M16 4H4l-4 6 4 6h12V4z" fill="url(#a)"/><linearGradient id="b" x1=".5" y1=".022" x2=".5" y2=".992"><stop offset="0" stop-color="#91B6FF"/><stop offset="1" stop-color="#6A95E7"/></linearGradient><path fill-rule="evenodd" d="M4.535 15l-3.333-5 3.333-5H15v10H4.535z" fill="url(#b)"/><path fill-rule="evenodd" d="M5.606 13l-2-3 2-3H13v6H5.606z" fill="#FFF"/><path fill-rule="evenodd" d="M12.914 4L15.5 1.414V0H9.882L6.5 6.764V8h2.382l-2 4h2.532L16 5.414V4h-3.086z" fill="#005C59"/><path fill-rule="evenodd" d="M14.5 1h-4l-3 6h3l-2 4H9l6-6h-4.5l4-4z" fill="#7FFFFB"/></svg>