<svg ti:v="1" width="16" height="16" viewBox="0 0 16 16" xmlns="http://www.w3.org/2000/svg" xmlns:ti="urn:schemas-jetbrains-com:tisvg"><rect id="frame" width="16" height="16" fill="none"/><linearGradient id="a" x1=".5" y1=".002" x2=".5" y2="1.003"><stop offset="0" stop-color="#385985"/><stop offset="1" stop-color="#263C59"/></linearGradient><path fill-rule="evenodd" d="M14 4H2v12h12V4z" fill="url(#a)"/><linearGradient id="b" x1=".5" y1=".022" x2=".5" y2=".992"><stop offset="0" stop-color="#91B6FF"/><stop offset="1" stop-color="#6A95E7"/></linearGradient><path fill-rule="evenodd" d="M13 15H3V5h10v10z" fill="url(#b)"/><path fill-rule="evenodd" d="M11 13H5V7h6v6z" fill="#FFF"/><path fill-rule="evenodd" d="M11.914 4L14.5 1.414V0H8.882L5.5 6.764V8h2.382l-2 4h2.532L15 5.414V4h-3.086z" fill="#5C5100"/><path fill-rule="evenodd" d="M13.5 1h-4l-3 6h3l-2 4H8l6-6H9.5l4-4z" fill="#FDFF7F"/></svg>