<svg ti:v="1" width="16" height="16" viewBox="0 0 16 16" xmlns="http://www.w3.org/2000/svg" xmlns:ti="urn:schemas-jetbrains-com:tisvg"><rect id="frame" width="16" height="16" fill="none"/><g fill-rule="evenodd"><path d="M15 1.998L12.333 0H11v1H5v3h6v1h1.334L15 2.998v-1z" fill="#F4F4F4"/><path d="M14 2.498L12 1v1H9v1h3v1l2-1.502z" fill="#313131"/><path d="M7 3h1V1.999H7V3z" fill="#313131"/><path d="M5 3h1V1.999H5V3z" fill="#313131"/><path d="M15 5.998L12.333 4H11v1H5v3h6v1h1.334L15 6.998v-1z" fill="#F4F4F4"/><path d="M14 6.498L12 5v1H9v1h3v1l2-1.502z" fill="#313131"/><path d="M7 7h1V6H7v1z" fill="#313131"/><path d="M5 7h1V6H5v1z" fill="#313131"/><path d="M15 9.998L12.333 8H11v1H5v3h6v1h1.334L15 10.998v-1z" fill="#F4F4F4"/><path d="M14 10.498L12 9v1H9v1h3v1l2-1.502z" fill="#313131"/><path d="M7 11h1v-1H7v1z" fill="#313131"/><path d="M5 11h1v-1H5v1z" fill="#313131"/><path d="M10 16l-4-4-2.224 3c-.394.414-.953 1-1.547 1a2.16 2.16 0 0 1-1.574-.686A2.42 2.42 0 0 1 0 13.642c.001-.63.674-1.089 1.095-1.533L4 10 1.829 8c-1.032-.859-.666-1.506.119-2.325A2.12 2.12 0 0 1 3.498 5c.712 0 1.077.764 1.315 1L6 8l5-3h2l-5 5 5 6h-3z" fill="#F4F4F4"/><path d="M7 10l4-4h-.563L6 9 3.96 6.282c-.346-.395-1.047-.343-1.387 0a.995.995 0 0 0 0 1.405L5 10l-3.813 3.309a.99.99 0 0 0 0 1.404c.386.39.998.39 1.386 0L6 11l4.5 4h.5l-4-5z" fill="#A1250C"/></g></svg>