<svg ti:v="1" width="16" height="16" viewBox="0 0 16 16" xmlns="http://www.w3.org/2000/svg" xmlns:ti="urn:schemas-jetbrains-com:tisvg"><rect id="frame" width="16" height="16" fill="none"/><linearGradient id="a" x1=".5" y1="-.024" x2=".5" y2=".992"><stop offset="0" stop-color="#490400"/><stop offset="1" stop-color="maroon"/></linearGradient><path fill-rule="evenodd" d="M14.252 0l-2.984 1.983L10.173.556A1.697 1.697 0 0 0 8.898.004c-.485 0-.949.185-1.271.503a1.783 1.783 0 0 0-.529 1.259c-.001.471.185.917.546 1.276l1.105 1.033L6.528 5.97a1.76 1.76 0 0 0-.002 2.513c.337.333.782.517 1.253.517.47 0 .914-.183 1.277-.542l2.054-2.184 3.119 2.722H16V7.641l-2.816-3.456L16 1.42V0h-1.748z" fill="url(#a)"/><linearGradient id="b" x1=".5" y1="-.023" x2=".5" y2=".995"><stop offset="0" stop-color="#FFA98F"/><stop offset="1" stop-color="red"/></linearGradient><path fill-rule="evenodd" d="M14.553 1l-3.511 2.332-1.616-2.113c-.274-.306-.828-.266-1.098 0a.764.764 0 0 0 0 1.092l1.921 1.798L7.23 6.682a.76.76 0 0 0 0 1.09.773.773 0 0 0 1.098 0l2.714-2.885 3.563 3.109H15l-3.167-3.887L15 1h-.447z" fill="url(#b)"/></svg>