<svg ti:v="1" width="16" height="16" viewBox="0 0 16 16" xmlns="http://www.w3.org/2000/svg" xmlns:ti="urn:schemas-jetbrains-com:tisvg"><rect id="frame" width="16" height="16" fill="none"/><path fill-rule="evenodd" d="M15 1.998L12.333 0H11v1H4v3h7v1H4v3h7v1H4v3h7v1h1.334L15 10.998v-1L13 8.5l2-1.502v-1L13 4.5l2-1.502v-1z" fill="#023B87"/><linearGradient id="a" x1="0" y1=".5" x2="1" y2=".5"><stop offset="0" stop-color="#C3E300"/><stop offset="1" stop-color="#F3FFA6"/></linearGradient><path fill-rule="evenodd" d="M12 2H9v1h3v1l2-1.502L12 1M7 3h1V1.999H7M5 3h1V1.999H5V3z" fill="url(#a)"/><linearGradient id="b" x1="0" y1=".5" x2="1" y2=".5"><stop offset="0" stop-color="#C3E300"/><stop offset="1" stop-color="#F3FFA6"/></linearGradient><path fill-rule="evenodd" d="M12 6H9v1h3v1l2-1.502L12 5M7 7h1V6H7M5 7h1V6H5v1z" fill="url(#b)"/><linearGradient id="c" x1="0" y1=".5" x2="1" y2=".5"><stop offset="0" stop-color="#C3E300"/><stop offset="1" stop-color="#F3FFA6"/></linearGradient><path fill-rule="evenodd" d="M12 10H9v1h3v1l2-1.502L12 9m-5 2h1v-1H7m-2 1h1v-1H5v1z" fill="url(#c)"/><linearGradient id="d" x1=".5" y1="-.024" x2=".5" y2=".992"><stop offset="0" stop-color="#8C0900"/><stop offset="1" stop-color="#C70000"/></linearGradient><path fill-rule="evenodd" d="M11 5L6 8 4.814 6c-.239-.237-.604-1-1.316-1a2.12 2.12 0 0 0-1.55.675C1.163 6.494.797 7.14 1.829 8L4 10l-2.905 2.109c-.421.444-1.094.903-1.095 1.533a2.422 2.422 0 0 0 .656 1.672c.421.443.98.686 1.574.686.593 0 1.152-.586 1.547-1L6 12l4 4h3l-5-6 5-5h-2z" fill="url(#d)"/><linearGradient id="e" x1=".5" y1="-.023" x2=".5" y2=".996"><stop offset="0" stop-color="#FFA98F"/><stop offset="1" stop-color="red"/></linearGradient><path fill-rule="evenodd" d="M10.437 6L6 9 3.96 6.282c-.346-.395-1.047-.342-1.386 0a.995.995 0 0 0 0 1.406L5 10l-3.813 3.309a.99.99 0 0 0 0 1.404c.387.39.998.39 1.387 0L6 11l4.5 4h.5l-4-5 4-4h-.563z" fill="url(#e)"/></svg>