<svg xmlns="http://www.w3.org/2000/svg" width="16" height="16" viewBox="0 0 16 16">
  <g id="userControl" fill="none" fill-rule="evenodd" stroke="none" stroke-width="1">
    <path id="Fill-2" fill="#9AA7B0" d="M7.5474,10 L4.0004,10 L4.0004,3 L12.0004,3 L12.0004,4.352 C12.3734,4.53 12.7144,4.766 13.0004,5.059 L13.0004,2 L3.0004,2 L3.0004,11 L6.7074,11 C6.9144,10.582 7.1924,10.234 7.5474,10"/>
    <path id="Fill-4" fill="#9AA7B0" d="M14,14 L7,14 C7.269,11.729 7.761,10.701 8.5,10.701 C9.66,10.701 9.792,11.897 10.5,11.897 C11.208,11.897 11.34,10.701 12.5,10.701 C13.239,10.701 13.731,11.729 14,14 M9.023,7.273 C9.857,7.132 10.829,6.91 11.672,6.574 C11.875,6.83 12,7.148 12,7.5 C12,8.328 11.329,9 10.5,9 C9.671,9 9,8.328 9,7.5 C9,7.423 9.012,7.348 9.023,7.273 M10.5,10 C11.879,10 13,8.881 13,7.5 C13,6.12 11.879,5 10.5,5 C9.119,5 8,6.12 8,7.5 C8,8.881 9.119,10 10.5,10"/>
  </g>
</svg>
