<svg xmlns="http://www.w3.org/2000/svg" width="16" height="16" viewBox="0 0 16 16">
  <g fill="none" fill-rule="evenodd">
    <path fill="#9AA7B0" fill-opacity=".8" d="M7.9844,4 L6.6964,2.711 C6.3044,2.32 5.5324,2 4.9784,2 L1.0504,2 C1.0234,2 1.0004,2.023 1.0004,2.051 L1.0004,13 L4.0004,13 L4.0004,7 L15.0004,7 L15.0004,4 L7.9844,4 Z"/>
    <polygon fill="#40B6E0" fill-opacity=".7" points="5 16 10.5 16 10.5 8 5 8"/>
    <polygon fill="#F4AF3D" fill-opacity=".7" points="10.5 16 16 16 16 8 10.5 8"/>
    <polygon fill="#231F20" fill-opacity=".7" points="15 12.5 12 10 12 12 6.381 12 6.381 13 12 13 12 15"/>
  </g>
</svg>
