<svg ti:v="1" width="16" height="16" viewBox="0 0 16 16" xmlns="http://www.w3.org/2000/svg" xmlns:ti="urn:schemas-jetbrains-com:tisvg"><rect id="frame" width="16" height="16" fill="none"/><linearGradient id="a" x1=".5" y1=".017" x2=".5" y2="1.025"><stop offset="0" stop-color="#5572A1"/><stop offset="1" stop-color="#405980"/></linearGradient><path fill-rule="evenodd" d="M9 3v3L7 5H6v4l5 5 5-5V5h-1l-2 1V3H9z" fill="url(#a)"/><linearGradient id="b" x1=".5" y1=".057" x2=".5" y2="1.012"><stop offset="0" stop-color="#8CD5FF"/><stop offset=".994" stop-color="#20A2FF"/><stop offset="1" stop-color="#20A2FF"/></linearGradient><path fill-rule="evenodd" d="M10 4v4L7 6v2l4 4 4-4V6l-3 2V4h-2z" fill="url(#b)"/><linearGradient id="c" x1=".5" y1="0" x2=".5" y2="1.04"><stop offset="0" stop-color="#37AD0D"/><stop offset="1" stop-color="#006F33"/></linearGradient><path fill-rule="evenodd" d="M6 4h10V0H6v4z" fill="url(#c)"/><linearGradient id="d" x1=".5" y1="0" x2=".5" y2=".974"><stop offset="0" stop-color="#8DFF62"/><stop offset="1" stop-color="#29C771"/></linearGradient><path fill-rule="evenodd" d="M7 3h8V1H7v2z" fill="url(#d)"/><linearGradient id="e" x1=".5" y1=".018" x2=".5" y2="1.009"><stop offset="0" stop-color="#49005D"/><stop offset="1" stop-color="#7C00A1"/></linearGradient><path fill-rule="evenodd" d="M4 7c-2.206 0-4 1.794-4 4v1c0 2.243 1.384 4 3.15 4H8v-2.726c.62-.542 1-1.347 1-2.274 0-2.243-1.756-4-4-4H4z" fill="url(#e)"/><linearGradient id="f" x1=".5" y1=".018" x2=".5" y2="1.009"><stop offset="0" stop-color="#FFF"/><stop offset="1" stop-color="#F4C9FF"/></linearGradient><path fill-rule="evenodd" d="M4 8a3 3 0 0 0-3 3v1c0 1.657.963 3 2.15 3H7v-1H2.7a.7.7 0 0 1-.7-.7V9.7a.7.7 0 0 1 .7-.7h3.599A.7.7 0 0 1 7 9.7V11c0 .302-.516 1-1 1v-1.3c0-.385-.314-.7-.701-.7H4.5a1.5 1.5 0 0 0 0 3H6c1.104 0 2-.797 2-2 0-1.719-1.343-3-3-3m-1 3h1v1H4v-1z" fill="url(#f)"/></svg>