<svg ti:v="1" width="16" height="16" viewBox="0 0 16 16" xmlns="http://www.w3.org/2000/svg" xmlns:ti="urn:schemas-jetbrains-com:tisvg"><rect id="frame" width="16" height="16" fill="none"/><linearGradient id="a" x1=".5" y1="0" x2=".5" y2="1"><stop offset="0" stop-color="#EAFF5E"/><stop offset="1" stop-color="#C1DE00"/></linearGradient><path fill-rule="evenodd" d="M11 0c-.989 0-2.82.76-2.987 3.573L7 4.586v1.828l1.013 1.013C8.18 10.24 10.011 11 11 11h1c.989 0 2.819-.76 2.987-3.573L16 6.414V4.586l-1.013-1.013C14.819.76 12.989 0 12 0h-1z" fill="url(#a)"/><path fill-rule="evenodd" d="M10 5V4c0-2 1-2 1-2V1S9 1 9 4L8 5v1l1 1c0 3 2 3 2 3V9s-1 0-1-2V6H9V5m5 0v1h-1v1c0 2-1 2-1 2v1s2 0 2-3l1-1V5l-1-1c0-3-2-3-2-3v1s1 0 1 2v1h1z" fill="#495E00"/><linearGradient id="b" x1=".5" y1=".018" x2=".5" y2="1.009"><stop offset="0" stop-color="#49005D"/><stop offset="1" stop-color="#7C00A1"/></linearGradient><path fill-rule="evenodd" d="M4 7c-2.206 0-4 1.794-4 4v1c0 2.243 1.384 4 3.15 4H8v-2.727c.62-.542 1-1.345 1-2.273 0-2.243-1.756-4-4-4H4z" fill="url(#b)"/><linearGradient id="c" x1=".5" y1=".018" x2=".5" y2="1.009"><stop offset="0" stop-color="#FFF"/><stop offset="1" stop-color="#F4C9FF"/></linearGradient><path fill-rule="evenodd" d="M4 8a3 3 0 0 0-3 3v1c0 1.658.963 3 2.15 3H7v-1H2.7a.7.7 0 0 1-.7-.7V9.7a.7.7 0 0 1 .7-.7h3.599A.7.7 0 0 1 7 9.7V11c0 .302-.516 1-1 1v-1.3c0-.385-.314-.7-.701-.7H4.5a1.5 1.5 0 0 0 0 3H6c1.104 0 2-.797 2-2 0-1.718-1.343-3-3-3m-1 3h1v1H4v-1z" fill="url(#c)"/></svg>