<svg ti:v="1" width="16" height="16" viewBox="0 0 16 16" xmlns="http://www.w3.org/2000/svg" xmlns:ti="urn:schemas-jetbrains-com:tisvg"><rect id="frame" width="16" height="16" fill="none"/><g fill-rule="evenodd"><path d="M11 11c-.989 0-2.819-.76-2.987-3.573L7 6.414V4.586l1.013-1.013C8.181.76 10.011 0 11 0h1c.989 0 2.819.76 2.987 3.573L16 4.586v1.828l-1.013 1.013C14.819 10.24 12.989 11 12 11h-1z" fill="#242424"/><path d="M10 5V4c0-2 1-2 1-2V1S9 1 9 4L8 5v1l1 1c0 3 2 3 2 3V9s-1 0-1-2V6H9V5m5 0v1h-1v1c0 2-1 2-1 2v1s2 0 2-3l1-1V5l-1-1c0-3-2-3-2-3v1s1 0 1 2v1h1z" fill="#C4C4C4"/><path d="M3.15 16C1.383 16 0 14.243 0 12v-1c0-2.206 1.794-4 4-4h1c2.243 0 4 1.757 4 4 0 .928-.38 1.731-1 2.273V16H3.15z" fill="#242424"/><path d="M5 12H4v-1h1m-4 0v1c0 1.657.963 3 2.15 3H7v-1H2.7a.7.7 0 0 1-.7-.7V9.7a.7.7 0 0 1 .7-.7h3.6a.7.7 0 0 1 .7.7V11c0 .302-.516 1-1 1v-1.3c0-.386-.314-.7-.701-.7H4.5a1.5 1.5 0 0 0 0 3H6c1.104 0 2-.797 2-2 0-1.719-1.343-3-3-3H4a3 3 0 0 0-3 3z" fill="#C673D3"/></g></svg>