<svg ti:v="1" width="16" height="16" viewBox="0 0 16 16" xmlns="http://www.w3.org/2000/svg" xmlns:ti="urn:schemas-jetbrains-com:tisvg"><rect id="frame" width="16" height="16" fill="none"/><linearGradient id="a" x1=".5" y1=".018" x2=".5" y2="1.009"><stop offset="0" stop-color="#49005D"/><stop offset="1" stop-color="#7C00A1"/></linearGradient><path fill-rule="evenodd" d="M3.021 3.058C1.68 4.418 1 6.145 1 8.19c0 2.003.652 3.658 1.938 4.918C4.219 14.364 5.907 15 7.956 15c1.314 0 2.46-.188 3.41-.561L12 14.19v-2.266c.646-.118 1.301-.41 1.878-1.123C14.623 9.879 15 8.709 15 7.321c0-1.872-.671-3.417-1.992-4.593C11.721 1.582 10.089 1 8.16 1c-2.066 0-3.795.693-5.139 2.058z" fill="url(#a)"/><linearGradient id="b" x1=".5" y1=".018" x2=".5" y2="1.009"><stop offset="0" stop-color="#FFF"/><stop offset="1" stop-color="#F4C8FF"/></linearGradient><path fill-rule="evenodd" d="M3.733 3.766C2.578 4.939 2 6.412 2 8.193c0 1.733.547 3.132 1.638 4.203 1.093 1.07 2.532 1.605 4.318 1.605 1.207 0 2.217-.168 3.044-.493v-1.117c-.803.358-1.751.544-2.855.544-1.48 0-2.657-.442-3.531-1.322-.874-.881-1.311-2.039-1.311-3.475 0-1.454.454-2.666 1.362-3.635.908-.968 2.053-1.452 3.437-1.452 1.442 0 2.569.4 3.382 1.201.813.8 1.22 1.834 1.22 3.098 0 .857-.15 1.554-.452 2.092-.3.538-.629.613-1.085.613-.501 0-.854-.286-.751-1.395.005-.044.114-1.66.343-3.66H9.55c-.058 1-.095 1-.109 1h-.022c-.077 0-.25-.487-.517-.658a1.667 1.667 0 0 0-.91-.278c-.893 0-1.613.32-2.159.983-.547.661-.82 1.487-.82 2.487 0 .755.199 1.353.598 1.799.398.448.922.884 1.572.884 1.02 0 1.704-.217 2.054-1.217h.036c.006 1 .566 1.216 1.682 1.216.864 0 1.546-.194 2.146-.936.599-.742.899-1.746.899-2.905 0-1.581-.553-2.891-1.657-3.873-1.104-.983-2.498-1.488-4.183-1.488-1.796 0-3.272.58-4.427 1.752zm2.93 5.872c-.221-.277-.331-.656-.331-1.136 0-.716.163-1.313.491-1.793.328-.48.758-.72 1.293-.72.776 0 1.164.436 1.164 1.306 0 .832-.154 1.499-.465 2.003-.311.505-.734.757-1.267.757-.369 0-.664-.139-.885-.417z" fill="url(#b)"/></svg>