<svg xmlns="http://www.w3.org/2000/svg" width="16" height="16" viewBox="0 0 16 16"><rect id="frame" width="16" height="16" fill="none"/><g fill="none" fill-rule="evenodd"><path fill="#9AA7B0" fill-opacity=".8" d="M15 13.25V15v-1.75zM6 15H1v-1.75c0-1.766 2.684-2.867 5-3.295V15zm2-7a3.499 3.499 0 0 1-3.5-3.5C4.5 2.566 6.066 1 8 1s3.5 1.566 3.5 3.5S9.934 8 8 8z"/><path fill="#231F20" fill-opacity=".7" d="M7 15v-3.972h.806l1.86 2.446v-2.446h.863V15h-.743l-1.924-2.525V15H7zm4.142 0l1.702-4h.806l1.702 4h-.914l-.363-.89h-1.68l-.362.89h-.891zm1.566-1.662h1.055l-.528-1.288-.527 1.288z"/></g></svg>