<svg xmlns="http://www.w3.org/2000/svg" xmlns:xlink="http://www.w3.org/1999/xlink" width="16" height="16" viewBox="0 0 16 16"><rect id="frame" width="16" height="16" fill="none"/><defs><path id="a" d="M.001 0H8v10H.001z"/></defs><g fill="none" fill-rule="evenodd"><path fill="#9AA7B0" fill-opacity=".8" d="M7 1L3 5h4z"/><path fill="#9AA7B0" fill-opacity=".8" d="M7 12.178c0-1.579.782-3.009 2.049-3.897a1.96 1.96 0 0 1 .102-2.685A2.055 2.055 0 0 1 10.608 5c.522 0 1.018.192 1.397.539L13 6.45V1H8v5H3v9h4.965A4.666 4.666 0 0 1 7 12.178"/><g transform="translate(8 6)"><mask id="b" fill="#fff"><use xlink:href="#a"/></mask><path fill="#DE7539" d="M6.647 3.313L3.33.276a1.08 1.08 0 0 0-1.473.028.965.965 0 0 0 .03 1.405l.909.824C1.175 3.022 0 4.468 0 6.178 0 8.29 1.79 10 4 10c2.208 0 4-1.711 4-3.823 0-1.14-.524-2.165-1.353-2.865" mask="url(#b)"/></g><path fill="#FFF" d="M14 12.5a.533.533 0 0 0-.141-.365l-.001-.007-1.789-1.969a.464.464 0 0 0-.698-.002.583.583 0 0 0 0 .767l.969 1.067h-1.878c-.254 0-.462.23-.462.509 0 .28.208.509.462.509h1.878l-.969 1.067a.583.583 0 0 0 0 .767c.192.21.506.21.698-.002l1.789-1.97.001-.006A.533.533 0 0 0 14 12.5"/></g></svg>