<svg ti:v="1" width="16" height="16" viewBox="0 0 16 16" xmlns="http://www.w3.org/2000/svg" xmlns:ti="urn:schemas-jetbrains-com:tisvg"><rect id="frame" width="16" height="16" fill="none"/><linearGradient id="a" x1=".5" y1="0" x2=".5" y2="1"><stop offset="0" stop-color="#0042C9"/><stop offset="1" stop-color="#00297C"/></linearGradient><path fill-rule="evenodd" d="M10 9H0V1h10v8z" fill="url(#a)"/><linearGradient id="b" x1=".5" y1="0" x2=".5" y2="1"><stop offset="0" stop-color="#FFF"/><stop offset="1" stop-color="#81B2FF"/></linearGradient><path fill-rule="evenodd" d="M9 8H1V2h8v6z" fill="url(#b)"/><linearGradient id="c" x1=".5" y1="0" x2=".5" y2="1"><stop offset="0" stop-color="#D1E0FF"/><stop offset="1" stop-color="#8FB5FF"/></linearGradient><path fill-rule="evenodd" d="M8 7H2V3h6v4z" fill="url(#c)"/><linearGradient id="d" x1=".5" y1="0" x2=".5" y2="1"><stop offset="0" stop-color="#8300C4"/><stop offset="1" stop-color="#52007C"/></linearGradient><path fill-rule="evenodd" d="M13 12H3V4h10v8z" fill="url(#d)"/><linearGradient id="e" x1=".5" y1="0" x2=".5" y2="1"><stop offset="0" stop-color="#FFF"/><stop offset="1" stop-color="#C253FF"/></linearGradient><path fill-rule="evenodd" d="M12 11H4V5h8v6z" fill="url(#e)"/><linearGradient id="f" x1=".5" y1="0" x2=".5" y2="1"><stop offset="0" stop-color="#EBC2FF"/><stop offset="1" stop-color="#C253FF"/></linearGradient><path fill-rule="evenodd" d="M11 10H5V6h6v4z" fill="url(#f)"/><linearGradient id="g" x1=".5" y1="0" x2=".5" y2="1"><stop offset="0" stop-color="#997400"/><stop offset="1" stop-color="#684A00"/></linearGradient><path fill-rule="evenodd" d="M16 15H6V7h10v8z" fill="url(#g)"/><linearGradient id="h" x1=".5" y1="0" x2=".5" y2="1"><stop offset="0" stop-color="#FFF"/><stop offset="1" stop-color="#FFB000"/></linearGradient><path fill-rule="evenodd" d="M15 14H7V8h8v6z" fill="url(#h)"/><linearGradient id="i" x1=".5" y1="0" x2=".5" y2="1"><stop offset="0" stop-color="#FFDC82"/><stop offset="1" stop-color="#F6B000"/></linearGradient><path fill-rule="evenodd" d="M14 13H8V9h6v4z" fill="url(#i)"/></svg>