<svg ti:v="1" width="16" height="16" viewBox="0 0 16 16" xmlns="http://www.w3.org/2000/svg" xmlns:ti="urn:schemas-jetbrains-com:tisvg"><rect id="frame" width="16" height="16" fill="none"/><g fill-rule="evenodd"><path d="M11.072 12c-.104-.004-.338-.158-.404-.313l-3.96-9.244C6.108 1.051 4.73 0 3.5 0H1v4h1.927c.104.004.338.158.405.312l.874 2.041L0 14.763V16h3.618l2.543-5.085 1.132 2.642C7.89 14.949 9.27 16 10.5 16H13v-4h-1.928z" fill="#242424"/><path d="M2 1v2h.929c.512 0 1.104.412 1.322.919l1.057 2.466L1 15h2l3.23-6.461 1.982 4.623C8.647 14.177 9.672 15 10.5 15H12v-2h-.929c-.512 0-1.104-.412-1.322-.919L5.788 2.838C5.353 1.823 4.328 1 3.5 1H2z" fill="#C4C4C4"/><path d="M14 6H7V0h7v6z" fill="#242424"/><path d="M13 5H8V1h5v4z" fill="#C4C4C4"/><path d="M12 4H9V2h3v2z" fill="#282828"/><path d="M16 8H9V2h7v6z" fill="#242424"/><path d="M15 7h-5V3h5v4z" fill="#C4C4C4"/><path d="M14 6h-3V4h3v2z" fill="#282828"/></g></svg>