<svg ti:v="1" width="16" height="16" viewBox="0 0 16 16" xmlns="http://www.w3.org/2000/svg" xmlns:ti="urn:schemas-jetbrains-com:tisvg"><rect id="frame" width="16" height="16" fill="none"/><linearGradient id="a" x1=".5" y1="0" x2=".5" y2="1"><stop offset="0" stop-color="#058716"/><stop offset="1" stop-color="#156D21"/></linearGradient><path fill-rule="evenodd" d="M1 0v4h1.928c.104.004.338.158.404.313l.874 2.04L0 14.763V16h3.618l2.543-5.085 1.132 2.642C7.891 14.949 9.27 16 10.5 16H13v-4h-1.928c-.103-.004-.337-.158-.404-.313L6.707 2.443C6.11 1.051 4.731 0 3.5 0H1z" fill="url(#a)"/><linearGradient id="b" x1=".5" y1="0" x2=".5" y2="1"><stop offset="0" stop-color="#9FFDA7"/><stop offset="1" stop-color="#00FF14"/></linearGradient><path fill-rule="evenodd" d="M2 1v2h.929c.512 0 1.104.412 1.322.919l1.057 2.465L1 15h2l3.23-6.461 1.982 4.623C8.648 14.177 9.672 15 10.5 15H12v-2h-.929c-.513 0-1.104-.412-1.322-.919L5.788 2.838C5.353 1.823 4.329 1 3.5 1H2z" fill="url(#b)"/><linearGradient id="c" x1=".5" y1="0" x2=".5" y2="1"><stop offset="0" stop-color="#0042C9"/><stop offset="1" stop-color="#00297C"/></linearGradient><path fill-rule="evenodd" d="M7 6h7V0H7v6z" fill="url(#c)"/><linearGradient id="d" x1=".5" y1="0" x2=".5" y2="1"><stop offset="0" stop-color="#FFF"/><stop offset="1" stop-color="#81B2FF"/></linearGradient><path fill-rule="evenodd" d="M8 5h5V.999H8V5z" fill="url(#d)"/><path fill-rule="evenodd" d="M12 4H9V2h3v2z" fill="#EBEBEB"/><linearGradient id="e" x1=".5" y1="0" x2=".5" y2="1"><stop offset="0" stop-color="#997400"/><stop offset="1" stop-color="#684A00"/></linearGradient><path fill-rule="evenodd" d="M9 8h6.999V2H9v6z" fill="url(#e)"/><linearGradient id="f" x1=".5" y1="0" x2=".5" y2="1"><stop offset="0" stop-color="#FFF"/><stop offset="1" stop-color="#FFB000"/></linearGradient><path fill-rule="evenodd" d="M10 7h5V3h-5v4z" fill="url(#f)"/><linearGradient id="g" x1=".5" y1="0" x2=".5" y2="1"><stop offset="0" stop-color="#FFDC82"/><stop offset="1" stop-color="#F6B000"/></linearGradient><path fill-rule="evenodd" d="M11 6h3V4h-3v2z" fill="url(#g)"/></svg>