<svg width="16" height="16" viewBox="0 0 16 16" fill="none" xmlns="http://www.w3.org/2000/svg">
<g clip-path="url(#clip0)">
<path fill-rule="evenodd" clip-rule="evenodd" d="M14.7769 9.76003C14.9225 9.19768 15 8.60789 15 8C15 4.134 11.866 1 8 1C4.134 1 1 4.134 1 8C1 11.5325 3.61658 14.4538 7.01731 14.9316C6.94051 14.5833 6.90002 14.2214 6.90002 13.85C6.90002 11.0886 9.1386 8.85 11.9 8.85C12.971 8.85 13.9633 9.18671 14.7769 9.76003Z" fill="#40B6E0" fill-opacity="0.6"/>
<path fill-rule="evenodd" clip-rule="evenodd" d="M8.79703 9.92908C8.59306 9.97017 8.36373 9.99374 8.09998 10C7.06098 10.022 5.99998 9.2794 5.99998 8.0004C5.99998 6.7124 6.97098 6 8.09998 6C9.37248 6 9.89998 6.55426 9.89998 6.55426L10.5162 5.83673C9.82938 5.27017 9.28825 5.0004 8.09818 5.0004C6.34018 5.0004 5.00018 6.3584 5.00018 8.0004C5.00018 9.61123 6.2512 10.8882 7.79582 10.9934C8.07603 10.5916 8.41374 10.2328 8.79703 9.92908Z" fill="#231F20" fill-opacity="0.7"/>
<path d="M13.9089 16.08V11.1H15.8469V11.814H14.7849V15.366H15.8469V16.08H13.9089Z" fill="#231F20" fill-opacity="0.7"/>
<path d="M9.00558 16L9.20158 14.873H8.57158V14.145H9.32758L9.53058 12.927H8.83058V12.199H9.65658L9.84558 11.1H10.5946L10.4056 12.199H11.5536L11.7356 11.1H12.4846L12.2956 12.199H12.9186V12.927H12.1696L11.9666 14.145H12.6666V14.873H11.8406L11.6446 16H10.8956L11.0916 14.873H9.94358L9.75458 16H9.00558ZM10.0696 14.145H11.2176L11.4276 12.927H10.2796L10.0696 14.145Z" fill="#231F20" fill-opacity="0.7"/>
</g>
<defs>
<clipPath id="clip0">
<rect width="16" height="16" fill="white"/>
</clipPath>
</defs>
</svg>
