<svg xmlns="http://www.w3.org/2000/svg" width="16" height="16" viewBox="0 0 16 16">
  <g fill="none" fill-rule="evenodd">
    <path fill="#3D70D6" d="M14.7312,6.5687 C14.8592,6.5217 14.9042,6.4487 14.9122,6.3217 C14.9332,5.9367 14.9592,5.5507 14.9982,5.1687 C15.0132,5.0047 14.9512,5.0247 14.8342,5.0627 C14.7442,5.0917 14.6532,5.1187 14.5632,5.1447 L14.5632,5.1467 L14.5002,5.1647 C14.3232,5.2157 14.1462,5.2677 13.9712,5.3247 C13.9252,5.3397 13.8862,5.3457 13.8512,5.3457 L11.9792,5.8707 C11.9602,5.8877 11.9312,5.9017 11.8882,5.9127 C11.6392,5.9767 11.3952,6.0537 11.1492,6.1257 C11.0592,6.1517 10.9912,6.1767 11.0612,6.2957 C11.2992,6.6957 11.5292,7.1007 11.7612,7.5047 C11.8022,7.5757 11.8442,7.6427 11.9462,7.5917 C12.0012,7.5657 12.0662,7.5167 12.1082,7.5867 C12.1442,7.6467 12.0752,7.6987 12.0352,7.7387 C11.8452,7.9267 11.8702,8.1107 12.0362,8.2967 C12.1492,8.4227 12.1482,8.5517 12.0252,8.7117 C10.5402,12.0377 7.7242,12.2097 5.4792,10.3367 C5.4452,10.3077 4.7042,9.5607 4.2292,8.6777 C4.2072,8.5417 4.1812,8.4007 4.1622,8.2597 C4.1552,8.2067 4.1292,8.1157 4.2302,8.1317 C4.5032,8.1747 4.5012,7.9827 4.5402,7.8197 C4.5782,7.6617 4.6162,7.5037 4.6602,7.3457 C4.7772,6.9287 4.7782,6.9287 4.3492,6.8287 C4.1552,6.7827 4.0162,6.7477 3.9222,6.7067 L1.3002,6.0897 C1.2462,6.0867 1.2222,6.1127 1.2162,6.1867 C1.1792,6.6487 1.1402,7.1097 1.0952,7.5707 C1.0862,7.6687 1.1062,7.7137 1.2162,7.7157 C1.2952,7.7177 1.3742,7.7527 1.4532,7.7547 C1.5902,7.7577 1.6382,7.7967 1.6022,7.9417 C1.5402,8.1977 1.4632,8.4647 1.7222,8.6787 C1.7472,8.6987 1.7502,8.7627 1.7372,8.7977 C1.6792,8.9587 1.7132,9.1217 1.7152,9.2817 C1.7282,10.1647 1.8122,11.0467 1.7602,11.9287 C1.7512,12.0857 1.8272,12.1477 1.9602,12.1767 C2.2042,12.2317 2.3962,12.3287 2.3922,12.6107 C2.3912,12.7057 2.4782,12.7307 2.5412,12.7747 C3.1182,13.1887 3.6962,13.6017 4.2742,14.0137 C4.4182,14.1167 4.6252,14.1877 4.4732,14.4247 C4.4602,14.4467 4.4722,14.5097 4.4912,14.5197 C4.6822,14.6117 4.6982,14.7937 4.7542,14.9587 C4.7912,15.0607 4.8912,15.1027 5.0012,15.1317 C5.3582,15.2267 5.7112,15.3327 6.0682,15.4297 C6.1262,15.4457 6.2222,15.4247 6.2222,15.4977 C6.2222,15.7217 6.4492,15.8157 6.5142,15.9997 L6.8882,15.9997 C7.2952,15.7777 7.6892,15.5397 8.1512,15.4127 C8.5602,15.2997 8.9482,15.2407 9.3412,15.4297 C9.6242,15.5667 9.9192,15.6707 10.2192,15.7617 C10.4692,15.8397 10.6332,15.7727 10.7382,15.5527 C10.8642,15.2887 11.1582,14.9537 11.3882,14.8137 C11.6812,14.6867 11.9732,14.5597 12.2662,14.4327 C12.3992,14.3757 12.5462,14.3487 12.6612,14.2557 C12.9242,14.1807 13.1462,14.0357 13.3622,13.8797 C13.4372,13.8257 13.4762,13.7517 13.4772,13.6587 C13.4832,13.3117 13.5552,12.9837 13.7152,12.6687 C13.7872,12.5267 13.8452,12.3717 13.8592,12.2047 C13.8992,11.7087 14.0332,11.2267 14.1372,10.7427 C14.2602,10.1727 14.5412,9.6507 14.7722,9.1157 C14.9092,8.7997 15.0312,8.4937 14.8852,8.1307 C14.7972,7.9117 14.8092,7.6187 14.8462,7.4167 C14.8942,7.1477 14.7632,7.0567 14.6392,6.9117 C14.4432,6.6817 14.4402,6.6757 14.7312,6.5687"/>
    <path fill="#EDBC95" d="M3.9167,6.0326 C3.7337,6.4646 3.7567,6.6556 3.6507,6.6556 C3.6507,6.6556 2.0207,6.2496 2.1997,6.2976 C2.2677,6.3146 2.0047,6.2536 2.0447,6.1816 C2.2067,5.9006 2.1247,5.1656 1.9007,4.9226 C1.8667,4.8856 1.7137,4.4126 1.6787,4.3086 C1.4307,3.5776 1.1817,2.8466 1.0307,2.0906 C1.0167,2.0146 1.0017,1.9376 1.0017,1.8616 C1.0017,1.7616 0.9787,1.6326 1.1067,1.5996 C1.2147,1.5736 1.3157,1.6446 1.3737,1.7376 C1.5797,2.0676 1.7787,2.4006 1.9817,2.7316 C1.9997,2.7616 2.0227,2.7876 2.0567,2.8316 C2.3317,2.5286 2.4847,2.1576 2.7467,1.8576 C3.0007,1.5676 2.9917,1.5586 3.3487,1.7216 C3.4407,1.7646 3.5197,1.7256 3.6047,1.7026 C4.1427,1.5516 4.6587,1.3516 5.1537,1.0966 C5.2317,1.0566 5.3287,0.9626 5.4157,1.0586 C5.5037,1.1566 5.4647,1.2826 5.3857,1.3646 C5.1967,1.5586 4.9997,1.7456 4.7907,1.9186 C4.6747,2.0136 4.6387,2.0896 4.6877,2.2426 C4.8677,2.8206 4.9577,2.9476 5.3757,2.5136 C5.4787,2.4076 5.7907,2.3316 5.9957,2.4056 C6.1507,2.4436 6.2627,2.4936 6.3347,2.6006 C6.4217,2.7276 6.3957,2.9046 6.2757,3.0016 C5.6457,3.5096 5.2947,4.1976 4.9547,4.8926 C4.8607,5.0866 4.7297,5.2616 4.5197,5.3226 C4.1397,5.4286 4.0357,5.7526 3.9167,6.0326 Z M13.6863,5.2016 C13.7223,5.3036 13.7763,5.3446 13.8513,5.3466 L11.9793,5.8706 C12.0123,5.8416 12.0183,5.8016 11.9883,5.7336 C11.8843,5.5036 11.8403,5.2766 11.6183,5.0666 C11.4053,4.8676 11.1753,4.7936 10.9403,4.6856 C10.6583,4.5566 10.3953,4.4036 10.1523,4.2126 C9.8143,3.9446 9.3843,3.8736 8.9843,3.7376 C8.8743,3.7006 8.6883,3.7376 8.6943,3.5406 C8.7003,3.3476 8.8143,3.2556 9.0073,3.2186 C9.2773,3.1666 9.5423,3.0926 9.8183,3.0696 C9.8833,3.0646 9.9853,3.1076 10.0023,3.0216 C10.0133,2.9696 9.9613,2.8896 9.9163,2.8436 C9.6143,2.5276 9.2983,2.2246 8.9433,1.9636 C8.8733,1.9116 8.8003,1.8616 8.7283,1.8116 C8.5893,1.7166 8.4173,1.6166 8.5283,1.4246 C8.6413,1.2256 8.8613,1.2416 9.0453,1.3026 C9.2013,1.3536 9.3363,1.4626 9.4803,1.5476 C9.5933,1.6136 9.7063,1.6816 9.8183,1.7506 L9.9123,1.8236 C9.9393,1.8376 9.9673,1.8666 9.9913,1.8236 C9.9943,1.8186 9.9613,1.7956 9.9463,1.7806 C9.9233,1.7566 9.9023,1.7316 9.8793,1.7086 C9.6273,1.4666 9.3763,1.2236 9.1243,0.9826 C8.8393,0.7126 8.8833,0.6126 9.0883,0.3046 C9.2073,0.1266 9.3293,0.0686 9.4983,0.0386 C9.7003,0.0046 9.8753,0.0936 10.0533,0.1806 C10.6783,0.4936 11.2653,0.8566 11.8223,1.3426 C11.7383,1.0296 11.6063,0.7796 11.4903,0.5246 C11.4113,0.3536 11.3263,0.1566 11.5253,0.0426 C11.7223,-0.0704 11.9123,0.0586 12.0243,0.2206 C12.5243,0.9396 12.9883,1.6796 13.1483,2.5496 C13.2333,3.0106 13.3343,3.4686 13.2523,3.9466 C13.2143,4.1676 13.3713,4.3706 13.4413,4.5806 C13.5123,4.7906 13.6123,4.9926 13.6863,5.2016 Z"/>
    <path fill="#5F4014" d="M4.4265,8.4183 C3.9295,9.2183 3.3175,10.9553 3.3175,10.9553 C3.3175,10.9553 3.1935,11.3603 3.3715,11.2343 C3.5495,11.1093 3.7705,10.4953 3.9315,10.5913 C4.0925,10.6883 3.6195,11.1263 3.8145,11.2093 C4.0085,11.2923 4.2145,10.8783 4.2145,10.8783 C4.2145,10.8783 3.9785,11.5353 4.0765,11.7033 C4.1765,11.8713 4.4075,11.5833 4.4075,11.5833 C4.4075,11.5833 4.4665,11.8393 4.6245,12.0703 C4.7825,12.3023 5.2855,12.4803 5.3385,12.5543 C5.6125,12.9413 6.2375,13.5083 6.5175,13.6813 C6.7975,13.8543 6.9065,14.1233 7.0425,14.2473 C7.1775,14.3723 7.1075,14.4263 7.5705,14.7493 C8.0465,15.0823 8.7685,14.9313 9.0235,14.9123 C9.2785,14.8943 9.4825,14.9053 9.7215,14.7493 C9.9605,14.5943 10.3995,14.2033 10.5475,13.9173 C10.6975,13.6303 11.0165,12.8213 11.0165,12.8213 C11.0165,12.8213 11.3535,12.3343 11.4505,12.2873 C11.5475,12.2403 11.7235,12.1873 11.9015,12.0703 C12.0785,11.9543 12.1475,11.3813 12.2565,11.3353 C12.3655,11.2903 12.5945,11.2013 12.6675,11.1313 C12.7405,11.0613 12.4625,10.8893 12.3085,10.7493 C12.1555,10.6093 12.9635,10.7993 13.1045,10.6743 C13.2455,10.5483 12.5325,10.3563 12.4305,9.9143 C12.3285,9.4723 12.1555,8.8513 11.7515,8.1483 C11.3175,7.3933 10.6215,6.9813 9.7705,7.0893 C9.6605,7.1033 9.5185,7.1203 9.4735,7.0553 C9.1165,6.5243 8.5625,6.2973 7.8285,6.2323 C7.0965,6.1683 6.3165,6.3393 5.7865,6.8633 C5.4695,7.1793 4.9245,7.6183 4.4265,8.4183"/>
    <path fill="#EDBC95" d="M11.6052,11.7924 C11.7372,11.6664 11.8352,11.5414 11.8712,11.3794 C11.8872,11.3064 11.8972,11.2334 11.9972,11.2564 C12.1262,11.2844 12.0702,11.3734 12.0422,11.4384 C11.9172,11.7314 11.8182,12.0514 11.3922,12.0564 C11.2862,12.0584 11.2572,12.1524 11.2172,12.2304 C11.0522,12.5514 10.7942,12.7744 10.4512,12.9134 C10.3772,12.9424 10.2272,12.9404 10.2652,13.0464 C10.3102,13.1734 10.4322,13.0684 10.5202,13.0584 C10.5512,13.0544 10.5832,13.0404 10.6772,13.0114 C10.4842,13.5584 10.2672,14.0264 9.7892,14.3294 C9.3212,14.6244 8.7902,14.7504 8.2412,14.7504 C7.8102,14.7494 7.4692,14.5614 7.2452,14.1724 C6.9872,13.7254 6.6242,13.3554 6.1702,13.0814 C5.9162,12.9274 5.6942,12.7514 5.5702,12.4794 C5.5312,12.3954 5.4742,12.3534 5.3742,12.3334 C5.0582,12.2724 4.6072,11.6794 4.6262,11.3684 C4.6322,11.2374 4.7282,11.1734 4.8252,11.1124 C5.2062,10.8764 5.6162,10.7224 6.0752,10.7094 C6.5212,10.6974 6.9632,10.6614 7.4042,10.5924 C7.7282,10.5414 8.0122,10.3804 8.3582,10.2434 C8.2682,10.4304 8.1062,10.4794 8.0242,10.6054 C8.5272,10.6464 8.8612,10.4444 9.3112,9.8244 C9.6812,10.4054 10.2652,10.7284 10.8562,11.0394 C11.0122,11.1214 11.1852,11.1694 11.3622,11.1994 C11.6642,11.2504 11.7082,11.3294 11.5952,11.6054 C11.5782,11.6504 11.5432,11.6984 11.6052,11.7924"/>
    <path fill="#E2CCBC" d="M6.8562 13.973C7.1042 14.36 7.3432 14.69 7.8402 14.848 7.5842 14.903 7.4112 14.937 7.2412 14.978 7.1872 14.991 7.0962 14.99 7.1102 15.072 7.1232 15.148 7.2092 15.135 7.2652 15.132 7.5232 15.12 7.7792 15.101 8.1032 15.079 7.8202 15.209 7.5972 15.319 7.3682 15.414 7.1862 15.491 7.0272 15.6 6.8752 15.716 6.8062 15.769 6.7672 15.851 6.6542 15.798 6.5432 15.746 6.5782 15.656 6.5742 15.576 6.5672 15.457 6.5852 15.34 6.5072 15.23 6.4262 15.113 6.5032 15.019 6.5942 14.94 6.7222 14.827 6.7782 14.712 6.7182 14.533 6.6592 14.353 6.8022 14.197 6.8562 13.973M9.2898 15.0971C9.5968 15.0591 9.8748 15.1831 10.1648 15.2501 10.2468 15.2691 10.3588 15.3741 10.4098 15.2371 10.4528 15.1221 10.3518 15.0511 10.2448 15.0091 10.0258 14.9221 9.7928 14.8831 9.5498 14.8341 9.9048 14.6821 10.1818 14.4511 10.4038 14.0991 10.4818 14.4241 10.7528 14.6611 10.5708 14.9971 10.5408 15.0541 10.5758 15.1481 10.5908 15.2231 10.6138 15.3381 10.5718 15.4201 10.4768 15.4881 10.3838 15.5531 10.3108 15.5081 10.2318 15.4631 9.9398 15.2941 9.6028 15.2371 9.2898 15.0971"/>
    <path fill="#F4AF3D" d="M4.8044,8.267 C4.8414,8.413 4.6934,8.501 4.6784,8.632 C4.5754,8.732 4.5784,8.9 4.4084,9.011 C4.4624,8.694 4.5974,8.463 4.8044,8.267 M11.9704,10.921 C11.6684,10.976 11.3194,10.963 11.1244,10.89 C11.6514,10.767 11.7264,10.769 11.9704,10.921 M4.3144,10.471 C4.4394,10.18 5.0834,9.951 5.6704,9.996 C5.1594,10.111 4.6904,10.163 4.3144,10.471 M11.2704,8.014 C11.2804,8.048 11.2894,8.081 11.2984,8.114 L11.2794,8.098 L11.2924,8.078 C11.2614,8.191 11.1724,8.142 11.1234,8.116 C10.7444,7.904 10.3294,7.894 9.9114,7.918 C9.7264,7.929 9.6674,7.868 9.6684,7.688 C9.6694,7.23 9.7444,7.166 10.2134,7.313 C10.2994,7.34 10.4174,7.298 10.4734,7.405 C10.4824,7.435 10.4844,7.487 10.5014,7.493 C10.8124,7.593 10.9934,7.869 11.2704,8.014 M12.4464,10.45 C11.9384,10.435 11.4394,10.583 10.9504,10.484 C10.4404,10.38 9.9714,10.17 9.6094,9.788 C9.4284,9.598 9.3514,9.383 9.4384,9.126 C9.4754,9.019 9.5044,8.966 9.6074,9.081 C9.9144,9.426 10.2934,9.701 10.6474,9.998 C11.0244,10.315 11.5204,10.304 11.9794,10.386 C12.1334,10.413 12.2894,10.428 12.4464,10.45 M12.1244,9.914 C12.1694,10.093 12.2054,10.206 11.9074,10.147 C11.1934,10.005 10.6234,9.637 10.0684,9.213 C9.7634,8.98 9.6314,8.722 9.6654,8.354 C9.6834,8.17 9.7524,8.121 9.9284,8.121 C10.3164,8.121 10.6664,8.169 11.0044,8.407 C11.1354,8.498 11.2284,8.739 11.4824,8.678 C11.5304,8.667 11.5844,8.78 11.5644,8.891 C11.1394,8.71 10.7294,8.51 10.2544,8.501 C10.7714,8.719 11.3394,8.852 11.6774,9.342 C11.8504,9.516 11.9214,9.763 12.1244,9.914 M4.8044,8.267 C4.9814,8.136 5.0914,7.949 5.2274,7.785 C5.8844,6.984 6.6894,6.369 7.7884,6.445 C8.6784,6.506 9.2754,6.996 9.3974,7.863 C9.4174,8.007 9.4104,8.155 9.3164,8.306 C9.1544,8.162 9.0084,7.997 8.8304,7.878 C8.2814,7.509 7.6594,7.487 7.0204,7.574 C6.1864,7.687 5.4534,8.002 4.8474,8.573 C4.7994,8.618 4.7454,8.641 4.6784,8.632 C4.6934,8.501 4.8414,8.413 4.8044,8.267 M4.2554,10.057 C4.7034,9.833 5.1864,9.722 5.6844,9.672 C6.5984,9.579 7.5084,9.482 8.2394,8.856 C8.3314,8.777 8.3734,8.804 8.3864,8.918 C8.4154,9.202 8.2344,9.369 8.0234,9.503 C7.4434,9.877 6.7824,10.043 6.1094,10.182 C5.7284,10.261 5.3444,10.339 4.9724,10.449 C4.6674,10.538 4.4294,10.72 4.3894,11.061 C4.6024,10.781 4.8774,10.623 5.2404,10.595 C5.8234,10.549 6.4074,10.506 6.9874,10.435 C7.8454,10.33 8.5604,9.954 9.0754,9.28 C9.4144,8.836 9.3154,8.504 8.8634,8.164 C8.2444,7.7 7.5434,7.764 6.8744,7.91 C5.5764,8.193 4.6714,9 4.0204,10.116 C4.1354,10.133 4.1944,10.087 4.2554,10.057 M11.8944,9.451 C11.8444,9.388 11.8094,9.265 11.6774,9.342 C11.8504,9.516 11.9214,9.763 12.1244,9.914 C12.1104,9.732 12.0024,9.588 11.8944,9.451 M11.2704,8.014 C10.9934,7.869 10.8124,7.593 10.5014,7.493 C10.4844,7.487 10.4824,7.435 10.4734,7.405 C10.8874,7.428 11.0934,7.704 11.2704,8.014"/>
    <path fill="#FDFDFD" d="M9.946,1.7807 C9.962,1.7957 9.994,1.8187 9.991,1.8237 C9.967,1.8677 9.939,1.8377 9.912,1.8247 C9.923,1.8097 9.934,1.7957 9.946,1.7807"/>
    <path fill="#5F4014" d="M7.8972 12.6889C8.0692 12.6469 8.1182 12.3719 8.1182 12.3719 8.1222 12.3579 8.1212 12.3459 8.1272 12.3309 8.2062 12.1639 8.1812 11.9829 8.1132 11.8289 8.0002 11.5709 7.9092 11.3349 8.1832 11.1189 8.2072 11.0999 8.2192 11.0569 8.2202 11.0249 8.2242 10.9459 8.3112 10.8399 8.2022 10.7939 8.1102 10.7549 8.0732 10.8699 8.0382 10.9289 7.9142 11.1409 7.7342 11.1859 7.4962 11.1519 7.1532 11.1019 6.8062 11.0759 6.4602 11.0429 6.1922 11.0159 6.0432 11.1049 5.9112 11.3809 6.3852 11.2549 6.8402 11.3529 7.2982 11.4159 7.7812 11.4809 7.8852 11.6049 7.9202 12.0779 7.9372 12.2909 7.7932 12.4019 7.6602 12.5799 7.6432 12.6679 7.7262 12.7319 7.8972 12.6889M8.6277 10.7514C8.6987 10.7384 8.7327 10.7954 8.7387 10.8374 8.7807 11.1474 9.0117 11.1894 9.2747 11.2284 9.7357 11.2944 10.1947 11.2754 10.6617 11.2784 10.2697 11.4584 9.8767 11.6234 9.4187 11.5434 9.8707 11.9094 10.3137 11.7074 10.7717 11.5054 10.4697 11.9804 10.2267 12.0534 9.6897 11.8894 9.4697 11.8224 9.2287 11.8164 9.1727 11.5294 9.1587 11.4604 9.0507 11.4724 8.9867 11.4464 8.6687 11.3164 8.5537 11.0954 8.6277 10.7514M9.0642 13.3539C8.9212 13.3419 8.7572 13.4109 8.5942 13.4789 8.4382 13.5439 8.2892 13.5639 8.1392 13.4609 8.0182 13.3769 7.8912 13.3829 7.7612 13.4439 7.7052 13.4689 7.6482 13.4999 7.5872 13.5099 7.4682 13.5309 7.2952 13.5729 7.2702 13.4339 7.2492 13.3219 7.4232 13.3219 7.5292 13.2829 7.8192 13.1769 8.0642 13.2089 8.3622 13.3039 8.5422 13.3609 8.8342 13.2329 9.0742 13.1879 9.1512 13.1729 9.2362 13.0829 9.3082 13.1989 9.3322 13.2369 9.3542 13.2779 9.3242 13.3169 9.2662 13.3909 9.1872 13.3839 9.0642 13.3539"/>
    <path fill="#5F4014" d="M7.7019 11.725C7.4109 11.765 7.1609 11.808 6.9299 11.925 6.8289 11.976 6.6989 11.96 6.5979 11.888 6.4709 11.797 6.3379 11.746 6.1759 11.781 6.1249 11.791 6.0559 11.787 6.0509 11.721 6.0459 11.66 6.1119 11.646 6.1609 11.63 6.2629 11.599 6.3639 11.568 6.4739 11.592 6.7479 11.654 7.0199 11.646 7.2949 11.595 7.4289 11.571 7.5589 11.579 7.7019 11.725M5.2771 12.0707C5.1721 11.9207 5.0751 11.8397 4.9661 11.7687 4.8691 11.7047 4.8141 11.6067 4.8121 11.4877 4.8101 11.4247 4.8261 11.3597 4.8901 11.3407 4.9651 11.3167 5.0131 11.3857 5.0171 11.4377 5.0381 11.6547 5.3021 11.7647 5.2771 12.0707"/>
    <path fill="#EDBC95" d="M4.9626,1.309 C4.5556,1.538 4.1326,1.731 3.6906,1.885 C3.6416,1.903 3.5786,1.909 3.5686,1.969 C3.5496,2.089 3.8766,2.339 3.9896,2.286 C4.4286,2.081 4.7576,1.742 5.1086,1.431 C5.1336,1.41 5.1436,1.373 5.1606,1.343 C5.1156,1.186 5.0246,1.274 4.9626,1.309"/>
    <path fill="#5F4014" d="M3.6921 3.3461L1.4781 4.5841 1.6031 5.0031 3.9801 3.5851C3.8931 3.5271 3.7941 3.4401 3.6921 3.3461M4.7146 2.8598C4.7476 2.9328 4.7586 3.0058 4.6696 3.0608 4.5826 3.1158 4.5066 3.1638 4.4246 3.0518 4.4036 3.0248 4.3796 3.0008 4.3566 2.9738L4.0796 3.1298C4.1526 3.2148 4.2226 3.2968 4.2876 3.3688 4.2946 3.3758 4.3016 3.3818 4.3086 3.3898L7.9006 1.2478 7.8066 1.0448 4.6866 2.7898C4.6936 2.8138 4.7036 2.8378 4.7146 2.8598"/>
  </g>
</svg>
