<svg xmlns="http://www.w3.org/2000/svg" width="16" height="16" viewBox="0 0 16 16"><rect id="frame" width="16" height="16" fill="none"/><g fill="none" fill-rule="evenodd"><path fill="#6E6E6E" d="M10 11h2V5h-2V1h2a2 2 0 0 1 2 2v10a2 2 0 0 1-2 2h-2v-4z"/><path fill="#59A869" d="M7.156 13v.223c0 .22-.038.572-.093.777h1.023v1H6.57c-.473.576-1.186.9-1.992.9s-1.52-.324-1.992-.9H1v-1h1.094a3.68 3.68 0 0 1-.092-.777V13H1v-1h1.002v-.685c0-.108.02-.21.033-.315H1v-1h1.362c.246-.415.606-.71 1.04-.933l-.906-.892.684-.675 1.298 1.282c.035-.001.03-.006.065-.006l.07.005L5.907 7.5l.683.675-.879.868c.454.222.83.526 1.085.957h1.29v1h-.962c.013.106.033.207.033.315V12h.93v1h-.93zM3.5 11v1h2.09v-1H3.5zm0 2v1h2.09v-1H3.5z"/><path fill="#DB5860" d="M3.484 5.723a2 2 0 0 0 2.74-2.74l-2.74 2.74zm-.707-.707l2.739-2.74a2 2 0 0 0-2.74 2.74zM4.5 7a3 3 0 1 1 0-6 3 3 0 0 1 0 6z"/></g></svg>