<svg width="12" height="12" viewBox="0 0 12 12" fill="none" xmlns="http://www.w3.org/2000/svg">
<path fill-rule="evenodd" clip-rule="evenodd" d="M0 12V6H12V12H0ZM10.12 7.01001V11H10.9978V7.01001H10.12ZM6 11V7.01001H7.6302C8.1014 7.01001 8.4738 7.13731 8.7474 7.39191C9.021 7.64651 9.1578 7.98281 9.1578 8.40081C9.1578 8.84541 9.0058 9.19121 8.7018 9.43821C8.3978 9.68141 8.0121 9.80301 7.5447 9.80301H6.8778V11H6ZM6.8778 9.02211H7.5732C7.7898 9.02211 7.9589 8.96511 8.0805 8.85111C8.2059 8.73711 8.2686 8.58891 8.2686 8.40651C8.2686 8.21271 8.2059 8.06451 8.0805 7.96191C7.9551 7.85551 7.7803 7.80231 7.5561 7.80231H6.8778V9.02211ZM2.66999 6.98151L0.959991 11H1.85489L2.21969 10.1051H3.90689L4.27169 11H5.18939L3.47939 6.98151H2.66999ZM3.59339 9.32991H2.53319L3.06329 8.03601L3.59339 9.32991Z" fill="#3592C4"/>
<path fill-rule="evenodd" clip-rule="evenodd" d="M6 0V3V4H5H2V5H10V0H6Z" fill="#AFB1B3"/>
<path fill-rule="evenodd" clip-rule="evenodd" d="M5 0L2 3H5V0Z" fill="#AFB1B3"/>
</svg>
