<svg xmlns="http://www.w3.org/2000/svg" width="16" height="16" viewBox="0 0 16 16"><rect id="frame" width="16" height="16" fill="none"/><g fill="none" fill-rule="evenodd" fill-opacity=".7"><path fill="#B99BF8" d="M0 13h16V3H0z"/><path fill="#231F20" d="M2.9 8.5c.664 0 1.1-.116 1.1-.75S3.557 7 2.9 7H2v1.5h.9zM1 6h1.971C4.142 6 5 6.642 5 7.65 5 9.286 3.971 9.5 2.872 9.5H2V11H1V6z"/><path fill="#231F20" d="M12.9 8.5c.664 0 1.1-.116 1.1-.75S13.557 7 12.9 7H12v1.5h.9zM11 6h1.971C14.142 6 15 6.642 15 7.65c0 1.636-1.029 1.85-2.128 1.85H12V11h-1V6z"/><path fill="#231F20" d="M6 6h1v2h2V6h1v5H9V9H7v2H6z"/></g></svg>