<svg width="12" height="12" viewBox="0 0 12 12" fill="none" xmlns="http://www.w3.org/2000/svg">
<path fill-rule="evenodd" clip-rule="evenodd" d="M10 9H12L9.5 12L7 9H9V0H10V9Z" fill="#6E6E6E"/>
<path d="M4 10C6.20914 10 8 8.20914 8 6C8 3.79086 6.20914 2 4 2C1.79086 2 0 3.79086 0 6C0 8.20914 1.79086 10 4 10Z" fill="#CDB8F9"/>
<path fill-rule="evenodd" clip-rule="evenodd" d="M6.99331 5.59976C6.99246 5.00056 6.68726 4 5.26997 4C4.52478 4 4.13509 4.40136 4.08451 4.47976C3.81454 4.15505 3.52353 4 2.8 4C2.39881 4 2.08452 4.07971 1.85714 4.23914V4H1V8H1.85714C1.82857 6.5248 1.82857 5.72472 1.85714 5.59976C1.9 5.41232 1.9 4.79976 2.71429 4.79976C3.52857 4.79976 3.57057 5.22936 3.57143 5.59976V8H4.42857V5.59976C4.42857 5.34856 4.39353 4.79976 5.26997 4.79976C6.1464 4.79976 6.1464 5.39145 6.14689 5.59976C6.14689 6.2321 6.14689 6.70635 6.14689 7.02251C6.14689 7.23973 6.14689 7.56556 6.14689 8H6.9976L6.99331 5.59976Z" fill="#231F20" fill-opacity="0.7"/>
</svg>
