<svg width="12" height="12" viewBox="0 0 12 12" fill="none" xmlns="http://www.w3.org/2000/svg"><rect id="frame" width="12" height="12" fill="none"/><path fill-rule="evenodd" clip-rule="evenodd" d="M10 9h2l-2.5 3L7 9h2V0h1v9z" fill="#AFB1B3"/><path d="M4 10a4 4 0 1 0 0-8 4 4 0 0 0 0 8z" fill="#CDB8F9"/><path fill-rule="evenodd" clip-rule="evenodd" d="M6.993 5.6C6.993 5 6.687 4 5.27 4c-.745 0-1.135.401-1.185.48C3.815 4.155 3.524 4 2.8 4c-.401 0-.715.08-.943.24V4H1v4h.857c-.028-1.475-.028-2.275 0-2.4.043-.188.043-.8.857-.8.815 0 .857.43.857.8V8h.858V5.6c0-.251-.035-.8.841-.8s.876.591.877.8V8h.85l-.004-2.4z" fill="#231F20" fill-opacity=".7"/></svg>