<svg xmlns="http://www.w3.org/2000/svg" width="16" height="16" viewBox="0 0 16 16"><rect id="frame" width="16" height="16" fill="none"/><g fill="none" fill-rule="evenodd"><path fill="#F98B9E" fill-opacity=".6" d="M15 8A7 7 0 1 1 1 8a7 7 0 0 1 14 0"/><path fill="#231F20" fill-opacity=".7" d="M5 12h1V8h1.5V7H6l-.005-1c-.008-.497.138-.927.437-1.028.488-.164 1.137.05 1.258.092l.295-.838C7.91 4.199 7.455 4 6.811 4c-.644 0-.994.061-1.33.389-.316.31-.465.831-.48 1.611L5 7c0 .018-.333.018-1 0v.972h1V12z"/><path fill="#231F20" fill-opacity=".7" d="M12.5 7l-1.6 2.45L12.5 12h-1.2l-1.05-1.907L9.2 12H8l1.6-2.55L8 7h1.2l1.05 1.814L11.3 7z"/></g></svg>