<svg xmlns="http://www.w3.org/2000/svg" width="16" height="16" viewBox="0 0 16 16"><rect id="frame" width="16" height="16" fill="none"/><g fill="none" fill-rule="evenodd"><path fill="#9AA7B0" d="M6 12h4v1H6z"/><path fill="#9AA7B0" d="M6.5 14h3a1 1 0 0 1-1 1h-1a1 1 0 0 1-1-1z"/><path fill="#F4AF3D" fill-opacity=".7" d="M11 7.52c0 2.4-1.2 2.261-1.2 3.48H6.2C6.2 9.819 5 9.92 5 7.52 5 6.195 6.343 5 8 5s3 1.195 3 2.52z"/><path fill="#F4AF3D" fill-opacity=".7" d="M14.998 10.003l-2.781-2.551L14 4l-4.123.441L8 1 6.123 4.441 2 4l1.783 3.452L1 10l3.618 1.206L4 15l1.704-.109a2.227 2.227 0 0 1-.242-.981v-2.48C4.822 10.713 4 9.635 4 8.246 4 5.905 5.794 4 8 4s4 1.905 4 4.246c0 1.383-.814 2.455-1.462 3.184v2.48c0 .202-.041.592-.242.981L12 15l-.618-3.794 3.616-1.203z"/></g></svg>