<svg xmlns="http://www.w3.org/2000/svg" width="16" height="16" viewBox="0 0 16 16"><rect id="frame" width="16" height="16" fill="none"/><g fill="none" fill-rule="evenodd"><path fill="#9AA7B0" fill-opacity=".8" d="M3 3.106A6.974 6.974 0 0 0 1 8c0 1.905.764 3.63 2 4.894v-9.79zm10 0v9.789A6.974 6.974 0 0 0 15 8a6.972 6.972 0 0 0-2-4.895"/><path fill="#40B6E0" fill-opacity=".6" d="M12 2.26A6.965 6.965 0 0 0 8 1a6.965 6.965 0 0 0-4 1.26v11.48A6.965 6.965 0 0 0 8 15a6.965 6.965 0 0 0 4-1.26V2.26z"/><path fill="#231F20" fill-opacity=".7" d="M10.5 6V5h-5v1h2v5h1V6z"/></g></svg>