<svg xmlns="http://www.w3.org/2000/svg" width="16" height="16" viewBox="0 0 16 16"><rect id="frame" width="16" height="16" fill="none"/><g fill="none" fill-rule="evenodd"><path fill="#9E5F20" d="M13.263 1L12.19 2.145l-.787-.075-3.186 3.376-.196-.208-.217.23-3.023-3.219-1.052-.12-.993-1.061-1.729 1.844L5.603 7.81l-.264.282.176.186L1 13.091l1.728 1.841.976-1.039 1.023-.015 3.023-3.219.271.289.252-.27 2.943 3.137 1.06.126.995 1.059L15 13.16l-4.529-4.826.228-.243-.316-.336 4.609-4.912z"/><path fill="#9E5F20" d="M12.341 2.59l-.787-.077L8.216 6.05l-.195-.208-.218.231-3.206-3.414-1.052-.121-.81-.863-1.16 1.236 4.597 4.9-.262.28.174.187-4.515 4.812 1.16 1.235.806-.859 1.024-.014 3.19-3.399.27.287.254-.268 3.128 3.333 1.06.126.81.863 1.161-1.234-4.528-4.826.227-.243-.315-.336 4.608-4.913-1.16-1.236z"/><path fill="#F26522" d="M12.434 2.863l-.787-.076-3.43 3.635-.196-.208-.688.731L3.86 3.244l.334-.357-.758-.094-.7-.746-.812.865 4.597 4.899-.264.28.176.187-4.516 4.813.812.864.703-.748 1.023-.016L7.75 9.682l.27.288.724-.77 3.402 3.626-.346.364.772.089.699.745.813-.864-4.529-4.826.229-.243-.316-.336 4.609-4.913-.813-.865z"/><path fill="#CCC" d="M12.434 2.863l-.787-.076-3.43 3.635-.196-.208-.688.731L3.86 3.244l.334-.357-.758-.094-.7-.746-.812.865 4.597 4.899-.264.28.176.187-4.516 4.813.812.864.703-.748 1.023-.016L7.75 9.682l.27.288.724-.77 3.402 3.626-.346.364.772.089.699.745.813-.864-4.529-4.826.229-.243-.316-.336 4.609-4.913-.813-.865z"/><path fill="#CCC" d="M12.434 2.863l-.787-.076-3.43 3.635-.196-.208-.688.73-3.473-3.7.334-.357-.758-.094-.7-.746-.367.389L6.933 7.3l-.263.282.175.186-.446.475.034.035-4.07 4.337.778.829.703-.748 1.025-.015 3.294-3.51.269.288.723-.77 3.404 3.626-.347.365.773.088.699.745.366-.39-4.495-4.79.229-.242-.316-.336.445-.476-.032-.035 4.162-4.437-.78-.83-.83.886zm-3.43 6.235l3.169 3.376.153-.16-3.171-3.378-.151.162z"/><path fill="#878787" d="M13.722 13.487L9.736 9.251l.007-.008-.673-.719.228-.243-.316-.336.446-.476-.033-.035 4.155-4.428-.105-.113-.83.885-.788-.075-3.43 3.635-.196-.208-.688.732L4.04 4.16l.008-.008-.414-.441-.017-.002L2.564 2.61l-.359.382L6.448 7.49l-.008.009.674.717-.264.282.176.186-.446.476.034.035-4.063 4.328.105.111.703-.749 1.024-.014 3.294-3.51.27.288.723-.77 3.404 3.626-.008.008.416.443.016.002.866.911z"/></g></svg>