<svg xmlns="http://www.w3.org/2000/svg" width="16" height="16" viewBox="0 0 16 16"><rect id="frame" width="16" height="16" fill="none"/><g fill="#AFB1B3" fill-rule="evenodd"><path d="M5 3h2v10H5z"/><path d="M11 7v2H1V7z"/><path d="M11.965 16c-1.488-.818-2.265-1.954-2.265-3.5s.777-2.682 2.265-3.5l.434.662c-1.162.777-1.71 1.62-1.71 2.838s.548 2.06 1.71 2.838l-.434.662zm1.652 0l-.433-.662c1.16-.777 1.709-1.62 1.709-2.838s-.548-2.06-1.71-2.838L13.618 9c1.488.818 2.265 1.954 2.265 3.5s-.777 2.682-2.265 3.5z"/></g></svg>