<svg xmlns="http://www.w3.org/2000/svg" width="16" height="16" viewBox="0 0 16 16"><rect id="frame" width="16" height="16" fill="none"/><path fill="#FF931E" fill-rule="evenodd" d="M14.998 2.49c0-.297-.213-.49-.497-.49-2.168.002-4.336.002-6.504.002H1.472a.464.464 0 0 0-.47.464c0 2.48 0 5.079-.002 7.558 1.563.556 4.1.918 6.969.918 2.886 0 5.438-.367 6.999-.928A.204.204 0 0 0 15 10s0-5.006-.002-7.51M8 12c-2.886 0-5.437-.367-6.998-.928v2.465c0 .254.209.461.466.461L14.506 14a.477.477 0 0 0 .493-.494v-2.433c-1.561.561-4.112.927-7 .927" opacity=".9"/></svg>