<svg xmlns="http://www.w3.org/2000/svg" width="16" height="16" viewBox="0 0 16 16"><rect id="frame" width="16" height="16" fill="none"/><g fill="none" fill-rule="evenodd"><path fill="#DF2621" d="M2 5.734c0-.232 12-.696 12-1.824V1C14 2.161 2 2.591 2 2.824v2.91zm9 5.188v2.896c-3.555.499-9 .76-9 .916v-2.91c0-.157 5.445-.403 9-.902zm3-.912V10v2.92-2.91zM11.298 6.38a4.003 4.003 0 0 0-2.274 3.177c-3.299.348-7.024.55-7.024.678v-2.91c0-.161 5.76-.417 9.298-.945z" opacity=".8"/><path fill="#40B6E0" d="M12.25 16h1.5v-1.5h-1.5V16zM13 7a3 3 0 0 0-3 3h1.5c0-.825.675-1.5 1.5-1.5s1.5.675 1.5 1.5c0 1.5-2.25 1.313-2.25 3.75h1.5c0-1.688 2.25-1.875 2.25-3.75a3 3 0 0 0-3-3z"/></g></svg>