<svg xmlns="http://www.w3.org/2000/svg" width="16" height="16" viewBox="0 0 16 16"><rect id="frame" width="16" height="16" fill="none"/><g fill="none" fill-rule="evenodd"><path fill="#F4AF3D" fill-opacity=".6" d="M14.71 10H12c-.6-.667-1.2-1-1.8-1H7v5.93A7.002 7.002 0 0 1 8 1a7 7 0 0 1 6.71 9z"/><path fill="#231F20" fill-opacity=".7" d="M7 10.845c-1.215-.399-2-1.524-2-2.828V8c0-1.633 1.246-3 3.008-3S11 6.35 11 7.983V8c0 .39-.071.765-.203 1.11A1.716 1.716 0 0 0 10.2 9h-.482c.145-.292.225-.627.225-.983V8c0-1.127-.812-2.055-1.951-2.055-1.14 0-1.935.911-1.935 2.038V8c0 .753.363 1.417.943 1.775v1.07z"/><path fill="#9AA7B0" fill-opacity=".8" d="M8 16h8v-5h-4.009l-.736-.612a1.64 1.64 0 0 0-.981-.388H8.029a.029.029 0 0 0-.029.028V16z"/></g></svg>