<svg width="16" height="16" viewBox="0 0 16 16" fill="none" xmlns="http://www.w3.org/2000/svg"><rect id="frame" width="16" height="16" fill="none"/><g clip-path="url(#clip0)" fill-rule="evenodd" clip-rule="evenodd"><path d="M11.149 4.215L7.189.255l-5.41 1.45L.33 7.115l3.96 3.96 1.132-.304a9.283 9.283 0 0 1-.018-.571c0-2.485 2.015-4.6 4.5-4.6.263 0 .558.013.863.043l.382-1.428z" fill="#C8AF91"/><path d="M15.654 12.017v3.572l-1.259-1.26a4.047 4.047 0 0 1-6.908-2.34l1.362.12a2.733 2.733 0 0 0 4.616 1.29l-1.383-1.382h3.572zm-3.938-4.559a4.047 4.047 0 0 1 3.795 3.473l-1.353-.118a2.733 2.733 0 0 0-4.67-1.159l1.433 1.434H7.349V7.516l1.209 1.21a4.037 4.037 0 0 1 3.158-1.268z" fill="#3592C4"/></g><defs><clipPath id="clip0"><path d="M0 0h16v16H0V0z" fill="#fff"/></clipPath></defs></svg>