<svg width="64" height="64" viewBox="0 0 64 64" fill="none" xmlns="http://www.w3.org/2000/svg">
<path d="M4 4V19.8601V39.049V46.0979H27.3007L37.8741 4H4ZM37.2867 17.9021L26.7133 60H60V44.1399V24.951V17.9021H37.2867Z" fill="url(#paint0_linear)"/>
<path d="M51 13H13V51H51V13Z" fill="url(#paint1_linear)"/>
<path d="M35.48 25.2198L30.16 46.4998H46.31V38.5198V28.8298V25.2198H35.48ZM42.89 42.8898H34.91L35.67 39.2799H42.89V42.8898Z" fill="#6B57FF"/>
<path d="M18 18V25.98V35.67V39.28H28.83L34.15 18H18ZM26.93 35.86H21.8V32.25H27.88L26.93 35.86Z" fill="#3BEA62"/>
<defs>
<linearGradient id="paint0_linear" x1="4.44389" y1="1.19197" x2="63.6436" y2="60.3917" gradientUnits="userSpaceOnUse">
<stop offset="0.0553885" stop-color="#3BEA62"/>
<stop offset="1" stop-color="#6B57FF"/>
</linearGradient>
<linearGradient id="paint1_linear" x1="31.9493" y1="3.7641" x2="31.9493" y2="37.8425" gradientUnits="userSpaceOnUse">
<stop offset="0.0842986" stop-color="#878585"/>
<stop offset="0.5377"/>
</linearGradient>
</defs>
</svg>
