<svg width="32" height="32" viewBox="0 0 32 32" fill="none" xmlns="http://www.w3.org/2000/svg">
<path d="M1.69995 1.69995V9.79995V19.6V23.2H13.6L19 1.69995H1.69995ZM18.7 8.79995L13.3 30.2999H30.2999V22.2V12.4V8.79995H18.7Z" fill="url(#paint0_linear)"/>
<path d="M26 6H6V26H26V6Z" fill="url(#paint1_linear)"/>
<path d="M17.7 12.2999L14.9 23.4999H23.4V19.2999V14.1999V12.2999H17.7ZM21.6 21.5999H17.4L17.8 19.6999H21.6V21.5999Z" fill="#6B57FF"/>
<path d="M8.49994 8.5V12.7V17.8V19.7H14.1999L16.9999 8.5H8.49994ZM13.1999 17.9H10.4999V16H13.6999L13.1999 17.9Z" fill="#3BEA62"/>
<defs>
<linearGradient id="paint0_linear" x1="1.92665" y1="0.265851" x2="32.1608" y2="30.5" gradientUnits="userSpaceOnUse">
<stop offset="0.0553885" stop-color="#3BEA62"/>
<stop offset="1" stop-color="#6B57FF"/>
</linearGradient>
<linearGradient id="paint1_linear" x1="15.9733" y1="1.139" x2="15.9733" y2="19.075" gradientUnits="userSpaceOnUse">
<stop offset="0.0842986" stop-color="#878585"/>
<stop offset="0.5377"/>
</linearGradient>
</defs>
    <path fill-rule="evenodd" clip-rule="evenodd" d="M14 32H32V22H14V32Z" fill="#D99E2B"/>
    <path fill-rule="evenodd" clip-rule="evenodd" d="M16 30H19.75V29.0505H16.9V27.45H19.4V26.5H16.9V24.95H19.7V24H16V30Z" fill="black"/>
    <path fill-rule="evenodd" clip-rule="evenodd" d="M22.3999 27.65L23.2999 25.25L24.2499 27.65H22.3999ZM20.5 30H21.45L22 28.5505H24.55L25.0995 30H26.0995L23.75 24H22.8495L20.5 30Z" fill="black"/>
    <path fill-rule="evenodd" clip-rule="evenodd" d="M27.407 27.1002V24.9502H28.2995C28.9845 24.9502 29.2995 25.3002 29.35 25.8502V26.0502C29.35 26.6442 29.0225 27.1002 28.45 27.1002H27.407ZM27.407 30V28.05H28.25C29.3955 28.071 30.2555 27.174 30.2555 26.152V25.902C30.2555 24.7925 29.4675 24 28.44 24H26.5V30H27.407Z" fill="black"/>
</svg>