<svg xmlns="http://www.w3.org/2000/svg" width="16" height="16" viewBox="0 0 16 16"><rect id="frame" width="16" height="16" fill="none"/><g fill="none" fill-rule="evenodd"><path fill="#9AA7B0" fill-opacity=".8" d="M12 15V4.697c0-.385.312-.697.698-.697H13V1H8v5H3v9h9z"/><path fill="#9AA7B0" fill-opacity=".8" d="M7 1L3 5h4z"/><path fill="#40B6E0" fill-opacity=".7" d="M15.498 16h-1.996a.504.504 0 0 1-.502-.502v-1.996c0-.276.226-.502.502-.502h1.996c.276 0 .502.226.502.502v1.996a.504.504 0 0 1-.502.502"/><path fill="#B99BF8" fill-opacity=".7" d="M15.498 12h-1.996a.504.504 0 0 1-.502-.502V9.502c0-.276.226-.502.502-.502h1.996c.276 0 .502.226.502.502v1.996a.504.504 0 0 1-.502.502"/><path fill="#F4AF3D" fill-opacity=".7" d="M15.498 8h-1.996A.504.504 0 0 1 13 7.498V5.502c0-.276.226-.502.502-.502h1.996c.276 0 .502.226.502.502v1.996a.504.504 0 0 1-.502.502"/></g></svg>