<svg xmlns="http://www.w3.org/2000/svg" width="16" height="16" viewBox="0 0 16 16"><rect id="frame" width="16" height="16" fill="none"/><g fill="none" fill-rule="evenodd"><path fill="#9AA7B0" fill-opacity=".8" d="M7 15V7h6V1H8v5H3v9h4z"/><path fill="#9AA7B0" fill-opacity=".8" d="M7 1L3 5h4z"/><path fill="#9AA7B0" fill-opacity=".8" d="M9.674 16A1.68 1.68 0 0 1 8 14.325v-4.65A1.68 1.68 0 0 1 9.674 8h4.651C15.245 8 16 8.754 16 9.675v4.65A1.68 1.68 0 0 1 14.325 16h-4.65z"/><path fill="#231F20" fill-opacity=".7" d="M12.18 12v.509h1.093v.58a1.872 1.872 0 0 1-1.032.292c-.874 0-1.453-.586-1.453-1.381v-.011c0-.74.598-1.364 1.386-1.364.543 0 .867.16 1.197.414l.476-.514c-.44-.338-.898-.525-1.643-.525-1.288 0-2.204.917-2.204 2v.011c0 1.127.879 1.989 2.217 1.989.757 0 1.36-.276 1.783-.601V12h-1.82z"/></g></svg>