<svg xmlns="http://www.w3.org/2000/svg" width="16" height="16" viewBox="0 0 16 16"><rect id="frame" width="16" height="16" fill="none"/><g fill="#9AA7B0" fill-rule="evenodd"><path fill-opacity=".8" d="M7 1L3 5h4z"/><path fill-opacity=".8" d="M7 9.004h2.955a1.849 1.849 0 0 1-.288-1A2.335 2.335 0 0 1 12 5.672c.359 0 .695.088 1 .233V1H8v5H3v9h4.005L7 9.004z"/><path d="M13.333 10.003c-.426 0-.666-.15-.666-.667 0-.514.667-.666.667-1.332a1.333 1.333 0 0 0-2.667 0c0 .666.667.818.667 1.332 0 .516-.241.667-.667.667v.001H8v1.998c0 .666.286.083.286.083.013-.012.028-.02.043-.032.248-.256.595-.417.98-.417a1.367 1.367 0 1 1-.982 2.312c-.014-.01-.028-.019-.041-.03 0 0-.286-.583-.286.083v2h8v-2.145c0-.52-.285.062-.285.062-.014.012-.029.021-.043.031a1.367 1.367 0 1 1-.981-2.313c.385 0 .732.161.98.417.015.012.03.02.044.032 0 0 .285.583.285.063v-2.144h-2.667z"/></g></svg>