<svg xmlns="http://www.w3.org/2000/svg" width="16" height="16" viewBox="0 0 16 16"><rect id="frame" width="16" height="16" fill="none"/><g fill="#9AA7B0" fill-rule="evenodd"><path d="M7.547 10H4V3h8v1.352c.373.178.714.414 1 .707V2H3v9h3.707c.207-.418.485-.766.84-1"/><path d="M14 14H7c.269-2.271.761-3.299 1.5-3.299 1.16 0 1.292 1.196 2 1.196s.84-1.196 2-1.196c.739 0 1.231 1.028 1.5 3.299M9.023 7.273c.834-.141 1.806-.363 2.649-.699.203.256.328.574.328.926a1.5 1.5 0 1 1-3 0c0-.077.012-.152.023-.227M10.5 10a2.5 2.5 0 1 0-.002-5.002A2.5 2.5 0 0 0 10.5 10"/></g></svg>