<svg xmlns="http://www.w3.org/2000/svg" width="16" height="16" viewBox="0 0 16 16"><rect id="frame" width="16" height="16" fill="none"/><g fill="#AFB1B3" fill-rule="evenodd"><path d="M7.318 9.203c5.753-4.583 7.653-2.42 7.653-2.42.04.107-.027.23-.027.23l-.002-.001c-.113.357-.986.837-2.341.89-1.16.047-2.164.167-2.81.261-.871.54-1.695 1.14-2.366 1.64-.265.198-2.37 2.204-3.887 2.712-.978.327-1.8.39-2.229-.17a1.1 1.1 0 0 1-.255-.576c-.272-1.73 2.115-2.768 2.115-2.768s.168.975.286 1.13c1.39-.095 3.174-.685 3.863-.928z"/><path d="M3.174 8.856S2.248 5.435 4.52 4.133c.76-.435 2.235-.91 2.969-1.007.734-.097 2.462-.405 3.351 1.061.325.536.748 1.484.837 1.827-.929 1.013-7.475 2.777-8.504 2.842z"/></g></svg>