<svg xmlns="http://www.w3.org/2000/svg" width="16" height="16" viewBox="0 0 16 16"><rect id="frame" width="16" height="16" fill="none"/><defs><linearGradient id="a" x1="16.835%" x2="159.599%" y1="63.497%" y2="19.863%"><stop offset="0%" stop-color="#F69923"/><stop offset="31.23%" stop-color="#F79A23"/><stop offset="83.83%" stop-color="#E97826"/></linearGradient><linearGradient id="b" x1="-217.367%" x2="74.968%" y1="394.12%" y2="13.671%"><stop offset="32.33%" stop-color="#9E2064"/><stop offset="63.02%" stop-color="#C92037"/><stop offset="75.14%" stop-color="#CD2335"/><stop offset="100%" stop-color="#E97826"/></linearGradient><linearGradient id="c" x1="-20.305%" x2="125.697%" y1="192.631%" y2="-136.581%"><stop offset="0%" stop-color="#282662"/><stop offset="9.548%" stop-color="#662E8D"/><stop offset="78.82%" stop-color="#9F2064"/><stop offset="94.87%" stop-color="#CD2032"/></linearGradient><linearGradient id="d" x1="-79.867%" x2="146.442%" y1="170.503%" y2="-44.384%"><stop offset="32.33%" stop-color="#9E2064"/><stop offset="63.02%" stop-color="#C92037"/><stop offset="75.14%" stop-color="#CD2335"/><stop offset="100%" stop-color="#E97826"/></linearGradient><linearGradient id="e" x1="-18.376%" x2="164.728%" y1="77.298%" y2="-41.36%"><stop offset="0%" stop-color="#282662"/><stop offset="9.548%" stop-color="#662E8D"/><stop offset="78.82%" stop-color="#9F2064"/><stop offset="94.87%" stop-color="#CD2032"/></linearGradient><linearGradient id="f" x1="-34.831%" x2="110.897%" y1="187.637%" y2="-51.127%"><stop offset="32.33%" stop-color="#9E2064"/><stop offset="63.02%" stop-color="#C92037"/><stop offset="75.14%" stop-color="#CD2335"/><stop offset="100%" stop-color="#E97826"/></linearGradient><linearGradient id="g" x1="-129.474%" x2="66.599%" y1="465.394%" y2="17.067%"><stop offset="32.33%" stop-color="#9E2064"/><stop offset="63.02%" stop-color="#C92037"/><stop offset="75.14%" stop-color="#CD2335"/><stop offset="100%" stop-color="#E97826"/></linearGradient><linearGradient id="h" x1="-4451.745%" x2="2812.774%" y1="19363.922%" y2="-11794.78%"><stop offset="32.33%" stop-color="#9E2064"/><stop offset="63.02%" stop-color="#C92037"/><stop offset="75.14%" stop-color="#CD2335"/><stop offset="100%" stop-color="#E97826"/></linearGradient><linearGradient id="i" x1="-9733.244%" x2="4795.795%" y1="20962.746%" y2="-10195.957%"><stop offset="32.33%" stop-color="#9E2064"/><stop offset="63.02%" stop-color="#C92037"/><stop offset="75.14%" stop-color="#CD2335"/><stop offset="100%" stop-color="#E97826"/></linearGradient></defs><g fill="none" fill-rule="evenodd"><path fill="url(#a)" fill-rule="nonzero" d="M7.52.113c-.277.165-.73.624-1.282 1.293l.505.948A12.028 12.028 0 0 1 7.856.964c-.016.015-.026.03-.042.046-.118.128-.474.54-1.004 1.365a18.118 18.118 0 0 0 1.952-.242c.19-1.077-.19-1.572-.19-1.572S8.087-.222 7.52.113z" transform="rotate(21 8.413 18.603)"/><path d="M11.875 5.92l.067.026-.51-.073c-.033-.012-.087.028-.087.028.175-.055.343.009.53.02zm-1.07 1.41c-.22.039-.42.024-.618.009.199.015.418-.024.617-.009zM5.768 9.475a.355.355 0 0 1 .03-.033c.205-.235.413-.46.612-.675.226-.245.445-.486.66-.713.226-.244.446-.474.665-.699.227-.233.448-.462.663-.678.177-.174.348-.346.515-.508.055-.056.113-.106.167-.162.108-.108.218-.21.324-.312.097-.095.193-.185.286-.27.034-.032.061-.06.095-.091.007-.003.009-.008.017-.016l-.06-.017-.007-.108c-.009.008-.017.016-.024.018-.144.133-.289.265-.435.402-.085.077-.166.157-.25.235a46.638 46.638 0 0 0-2.042 2.041 64.34 64.34 0 0 0-1.436 1.556c-.172.188-.339.378-.503.563l.016.172.065.02c.002-.005.01-.013.012-.018.213-.238.42-.478.63-.707z"/><path fill="#BE202E" fill-rule="nonzero" d="M10.127 7.986c-.21.042-.434.08-.679.17.12-.016.224-.037.344-.053a.964.964 0 0 1 .335-.117z"/><path fill="#BE202E" fill-rule="nonzero" d="M10.127 7.986c-.21.042-.434.08-.679.17.12-.016.224-.037.344-.053a.964.964 0 0 1 .335-.117z" opacity=".35"/><path fill="#BE202E" fill-rule="nonzero" d="M10.137 7.381c.036.014.072.028.128-.012.163.001.347-.051.51-.05-.199-.015-.418.024-.638.062z"/><path fill="#BE202E" fill-rule="nonzero" d="M10.137 7.381c.036.014.072.028.128-.012.163.001.347-.051.51-.05-.199-.015-.418.024-.638.062z" opacity=".35"/><path fill="url(#b)" fill-rule="nonzero" d="M5.26 4.8c.154-.282.308-.566.463-.834.165-.283.324-.556.494-.819l.031-.046c.165-.258.33-.51.495-.747l-.505-.948c-.036.047-.077.093-.113.14a28.624 28.624 0 0 0-1.927 2.761l-.015.025.654 1.293c.14-.283.278-.556.422-.824z" transform="rotate(21 8.413 18.603)"/><path fill="url(#c)" fill-rule="nonzero" d="M2.282 12.074c-.088.237-.175.48-.263.727 0 .005 0 .005-.005.01-.01.036-.026.072-.036.103l-.227.66c.191.087.346.319.495.581a1.07 1.07 0 0 0-.34-.726c.948.041 1.767-.196 2.19-.891.035-.062.071-.129.102-.196-.19.242-.432.345-.88.325h-.006.005c.66-.294.99-.577 1.283-1.051.067-.113.14-.232.206-.366-.577.593-1.247.763-1.952.634l-.53.056c-.006.047-.027.093-.042.134z" transform="rotate(21 8.413 18.603)"/><path fill="url(#d)" fill-rule="nonzero" d="M2.53 10.895c.113-.294.231-.593.35-.897.113-.288.231-.576.355-.87.124-.294.247-.582.37-.876a46.638 46.638 0 0 1 .804-1.761c.052-.104.098-.207.15-.31.087-.18.175-.355.263-.53.005-.01.01-.02.015-.026l-.654-1.298c-.01.015-.02.036-.031.052-.155.247-.304.504-.453.762-.15.263-.3.53-.443.798a17.448 17.448 0 0 0-.423.83 14.81 14.81 0 0 0-.386.85A17.3 17.3 0 0 0 1.91 9.03c-.046.144-.087.294-.129.438-.098.34-.18.685-.252 1.025l.654 1.303c.088-.232.175-.469.268-.705.026-.062.051-.13.077-.196z" transform="rotate(21 8.413 18.603)"/><path fill="url(#e)" fill-rule="nonzero" d="M1.52 10.544c-.083.418-.14.83-.17 1.242 0 .015 0 .03-.006.041-.206-.33-.752-.649-.752-.644.392.572.69 1.134.737 1.69-.211.041-.5-.02-.83-.14.346.32.609.408.712.433-.32.021-.65.237-.984.49.489-.201.886-.278 1.169-.217a93.612 93.612 0 0 0-1.35 4.168.395.395 0 0 0 .268-.258c.083-.268.613-2.04 1.448-4.368.025-.067.046-.134.072-.2.005-.021.015-.037.02-.058l.273-.746c.021-.057.042-.114.067-.176v-.005l-.654-1.298c-.015.02-.015.036-.02.046z" transform="rotate(21 8.413 18.603)"/><path fill="url(#f)" fill-rule="nonzero" d="M4.94 5.728c-.02.036-.036.077-.057.119l-.17.355c-.061.134-.123.268-.19.407-.031.067-.067.14-.098.211-.098.211-.196.433-.299.66-.124.278-.247.566-.376.87a39.22 39.22 0 0 0-.37.891c-.12.294-.238.593-.361.902l-.33.85-.016.04c-.108.29-.221.588-.33.892l-.004.02.53-.056c-.01 0-.02-.005-.03-.005.633-.077 1.473-.551 2.013-1.133.253-.268.48-.588.686-.959.154-.278.303-.582.443-.922.123-.298.236-.618.35-.963-.144.077-.31.134-.495.17-.03.005-.067.016-.098.02-.03.006-.067.011-.103.016.588-.227.964-.664 1.232-1.2a2.048 2.048 0 0 1-.711.309c-.042.01-.083.015-.124.02-.01 0-.02.006-.03.006.205-.088.375-.18.525-.294l.092-.077c.047-.041.088-.083.13-.124.025-.026.05-.056.076-.087.057-.072.114-.145.165-.227l.047-.077c.02-.036.036-.078.056-.114.083-.164.15-.314.201-.443.026-.067.052-.123.067-.18a.255.255 0 0 0 .02-.067c.021-.062.037-.118.052-.165.02-.072.031-.128.041-.17-.02.016-.04.031-.067.047-.18.108-.484.2-.731.247l.484-.052-.484.052h-.01c-.026.005-.052.01-.072.01.005 0 .01-.005.01-.005l-1.659.18c0 .016-.005.021-.005.026z" transform="rotate(21 8.413 18.603)"/><path fill="url(#g)" fill-rule="nonzero" d="M6.805 2.37c-.15.226-.31.484-.484.777-.01.016-.021.031-.026.047-.15.252-.31.53-.474.834-.144.263-.294.541-.453.845-.134.263-.279.54-.423.84l1.659-.18c.484-.222.7-.423.912-.717.056-.082.113-.164.17-.252.17-.268.34-.562.489-.85a9.07 9.07 0 0 0 .37-.814c.063-.16.114-.309.145-.438.031-.113.052-.226.072-.33-.649.109-1.442.212-1.957.238z" transform="rotate(21 8.413 18.603)"/><path fill="#BE202E" fill-rule="nonzero" d="M10.117 7.999c-.181-.008-.389-.027-.597-.045.187.072.395.09.597.045z"/><path fill="#BE202E" fill-rule="nonzero" d="M10.117 7.999c-.181-.008-.389-.027-.597-.045.187.072.395.09.597.045z" opacity=".35"/><path fill="url(#h)" fill-rule="nonzero" d="M6.204 8.093c-.172.057-.373.114-.574.172.201 0 .402-.058.574-.172z" transform="rotate(21 8.413 18.603)"/><path fill="#BE202E" fill-rule="nonzero" d="M10.212 7.186c.107.041.235.029.342.07-.107-.041-.235-.029-.342-.07z"/><path fill="#BE202E" fill-rule="nonzero" d="M10.212 7.186c.107.041.235.029.342.07-.107-.041-.235-.029-.342-.07z" opacity=".35"/><path fill="url(#i)" fill-rule="nonzero" d="M6.001 7.3c.115 0 .23-.057.344-.057-.114 0-.23.057-.344.057z" transform="rotate(21 8.413 18.603)"/></g></svg>