<svg xmlns="http://www.w3.org/2000/svg" width="16" height="16" viewBox="0 0 16 16"><rect id="frame" width="16" height="16" fill="none"/><path fill="#529FDB" d="M7.477 12.265l3.301-.585.031-.006-1.698-2.02a287.329 287.329 0 0 1-1.698-2.03c0-.01 1.753-4.838 1.763-4.855.003-.006 1.197 2.054 2.893 4.994l2.909 5.042.022.039H9.603l-5.397-.002 3.27-.577zM1 11.649c0-.003.8-1.392 1.778-3.087l1.778-3.081 2.072-1.74A776.39 776.39 0 0 1 8.708 2a.364.364 0 0 1-.034.084L6.424 6.91l-2.21 4.74-1.607.002c-.884.001-1.607 0-1.607-.003z"/></svg>