<svg width="16" height="16" viewBox="0 0 16 16" fill="none" xmlns="http://www.w3.org/2000/svg"><rect id="frame" width="16" height="16" fill="none"/><path d="M3.897 2.037L.737 7.454a1.083 1.083 0 0 0 0 1.092l3.16 5.417c.194.332.55.537.936.537h6.339c.385 0 .742-.205.936-.537l3.16-5.417a1.083 1.083 0 0 0 0-1.092l-3.16-5.417a1.083 1.083 0 0 0-.936-.537H4.833c-.385 0-.742.205-.936.537z" fill="#4485F9"/><path d="M14.203 10.37L9.918 6.085a2.708 2.708 0 1 0-3.83 3.83l4.584 4.585h.5c.385 0 .742-.205.936-.537l2.095-3.593z" fill="#417BDC"/><path d="M8.327 9.593a1.632 1.632 0 0 1-.65 0v-2.41h.65v2.41z" fill="#FFFEFF"/><path d="M7.241 9.436V7.86h-.65v.946c.153.266.378.486.65.63z" fill="#FFFEFF"/><path d="M9.41 8.811a1.633 1.633 0 0 1-.65.627V8.144h.65v.667z" fill="#FFFEFF"/><path fill-rule="evenodd" clip-rule="evenodd" d="M8.002 10.058a2.058 2.058 0 1 0 0-4.116 2.058 2.058 0 0 0 0 4.116zm0 .65a2.708 2.708 0 1 0 0-5.416 2.708 2.708 0 0 0 0 5.416z" fill="#FFFEFF"/><path fill-rule="evenodd" clip-rule="evenodd" d="M10.943 11.094a.217.217 0 0 1-.306 0l-1.24-1.24.46-.459 1.24 1.24a.217.217 0 0 1 0 .306l-.154.153z" fill="#FFFEFF"/></svg>