<svg xmlns="http://www.w3.org/2000/svg" width="16" height="16" viewBox="0 0 16 16"><rect id="frame" width="16" height="16" fill="none"/><g fill="none" fill-rule="evenodd"><path fill="#FFF" fill-rule="nonzero" stroke="#969799" d="M9.457 4.946a6.608 6.608 0 0 1-1.51.172 6.654 6.654 0 0 1-1.51-.172 6.727 6.727 0 0 1 1.51-1.684 6.764 6.764 0 0 1 1.51 1.684zm-2.2-2.167a7.53 7.53 0 0 0-1.86 2.354 7.63 7.63 0 0 0-.335.765 7.498 7.498 0 0 0-.47 2.62 7.501 7.501 0 0 0 2.665 5.738c.095.082.19.16.288.233.125.098.255.19.385.276.01.007.023.007.033 0 .13-.089.258-.18.382-.276.1-.074.197-.151.29-.233A7.521 7.521 0 0 0 10.83 5.9a7.331 7.331 0 0 0-.193-.469c-.045-.103-.093-.202-.137-.298a8.757 8.757 0 0 0-.237-.426 7.589 7.589 0 0 0-1.625-1.928h-1.38z"/><path fill="#152849" fill-rule="nonzero" d="M9.457 4.946a6.608 6.608 0 0 1-1.51.172 6.654 6.654 0 0 1-1.51-.172 6.727 6.727 0 0 1 1.51-1.684 6.764 6.764 0 0 1 1.51 1.684zm4.566-3.699A7.41 7.41 0 0 0 12.112 1c-1.539 0-2.97.463-4.166 1.259A7.48 7.48 0 0 0 3.78 1a7.411 7.411 0 0 0-2.661.487.03.03 0 0 0-.016.04c.106.23.224.454.353.672a.029.029 0 0 0 .034.013 6.649 6.649 0 0 1 2.29-.401c1.272 0 2.461.355 3.477.968a7.53 7.53 0 0 0-1.86 2.354 7.63 7.63 0 0 0-.335.765 7.498 7.498 0 0 0-.47 2.62 7.501 7.501 0 0 0 2.665 5.738c.095.082.19.16.288.233.125.098.255.19.385.276.01.007.023.007.033 0 .13-.089.258-.18.382-.276.1-.074.197-.151.29-.233A7.521 7.521 0 0 0 10.83 5.9a7.331 7.331 0 0 0-.193-.469c-.045-.103-.093-.202-.137-.298a8.757 8.757 0 0 0-.237-.426 7.589 7.589 0 0 0-1.625-1.928 6.713 6.713 0 0 1 5.767-.567c.013.004.027 0 .034-.013.128-.217.245-.44.353-.672a.03.03 0 0 0-.016-.04 7.323 7.323 0 0 0-.75-.24h-.003z"/><path fill="#969799" stroke="#969799" stroke-width=".4" d="M14.023 1.247A7.41 7.41 0 0 0 12.112 1c-1.539 0-2.97.463-4.166 1.259A7.48 7.48 0 0 0 3.78 1a7.411 7.411 0 0 0-2.661.487.03.03 0 0 0-.016.04c.106.23.224.454.353.672a.029.029 0 0 0 .034.013 6.649 6.649 0 0 1 2.29-.401c1.272 0 2.461.355 3.477.968h1.381a6.713 6.713 0 0 1 5.767-.567c.013.004.027 0 .034-.013.128-.217.245-.44.353-.672a.03.03 0 0 0-.016-.04 7.323 7.323 0 0 0-.75-.24h-.003z"/><path fill="#54B30E" fill-rule="nonzero" d="M10.49 8.52c0 1.779-.695 3.397-1.83 4.599a6.74 6.74 0 0 1-.308-2.015 6.67 6.67 0 0 1 1.83-4.6 6.72 6.72 0 0 1 .309 2.015z"/><path fill="#93E600" fill-rule="nonzero" d="M7.54 11.104a6.69 6.69 0 0 1-.308 2.015 6.676 6.676 0 0 1-1.52-6.614 6.669 6.669 0 0 1 1.828 4.6"/></g></svg>