<svg xmlns="http://www.w3.org/2000/svg" width="16" height="16" viewBox="0 0 16 16"><rect id="frame" width="16" height="16" fill="none"/><g fill="none" fill-rule="evenodd"><path fill="#020303" fill-rule="nonzero" d="M1 1h14v7H1z"/><path fill="#59A869" d="M1 8h14v7H1z"/><g fill="#FFF"><path d="M2 2v1.035h.855v2.943h-.832V7H5V5.978h-.855V3.035h.832V2z"/><path d="M9.5 2v1.025h.564v2.95h-.549V7h1.4V4.148l.834 2.851.017.001.819-2.852V7H14V5.975h-.564v-2.95h.549V2h-1.578l-.653 2.286L11.093 2z"/><path d="M5.5 7V5.964h.628V4.32h2.416v.315s.202.178.267.346l.129.327s.06.183.06.346l-.026.327s-.04.266-.111.345l-.25.327S8.295 7 7.873 7H5.5zm0-5h2.374c.42 0 .739.34.739.34l.25.32c.07.079.111.34.111.34L9 3.32c0 .161-.06.341-.06.341l-.13.32c-.064.166-.266.34-.266.336H6.128v-1.3H5.5V2zm1.574 1.025v.95h.92v-.95h-.92zm0 1.988v.95h.92v-.95h-.92z"/></g><path fill="#FFF" d="M2.021 13.999v-5h1.17c1.237 0 1.83.794 1.83 2.36 0 1.698-.527 2.64-1.92 2.64h-1.08zm.989-.993v-3h.39c.412 0 .61.477.61 1.416 0 1.02-.176 1.584-.64 1.584h-.36zm3.484.957v-5H7.93c.83 0 1.438.377 1.438 1.142 0 .765-.318.98-.535 1.043.459.125.662.572.662 1.352 0 .882-.605 1.463-1.617 1.463H6.494zm.992-3.27h.405c.424 0 .595-.172.595-.502 0-.297-.18-.498-.538-.498h-.462v1zm0 .766v1.8h.423c.375 0 .578-.337.578-.912 0-.6-.229-.888-.638-.888h-.362zM14 13.999l-2.997.007c-.036-.847.201-1.555.71-2.123.64-.71 1.287-1.001 1.287-1.591a.484.484 0 0 0-.51-.376c-.44 0-.488.45-.488.45H10.98C10.986 9.664 11.649 9 12.48 9c.846 0 1.52.605 1.52 1.293 0 .71-.493 1.053-1.14 1.756.013-.015-.671.61-.752.954H14v.997z"/></g></svg>