<svg xmlns="http://www.w3.org/2000/svg" width="16" height="16" viewBox="0 0 16 16"><rect id="frame" width="16" height="16" fill="none"/><defs><linearGradient id="a" x1="49.999%" x2="49.999%" y1="1089.405%" y2="-159.491%"><stop offset="30.33%" stop-color="#473788"/><stop offset="87.2%" stop-color="#2C2255"/></linearGradient><linearGradient id="b" x1="50%" x2="50%" y1="215.167%" y2="-166.709%"><stop offset="30.33%" stop-color="#473788"/><stop offset="86.31%" stop-color="#2C2255"/></linearGradient></defs><g fill="none"><path fill="#2C2255" d="M4.834 9.392H2.703c.282.968.806 1.835 1.572 2.602 1.222 1.222 2.692 1.832 4.41 1.832.344 0 .677-.025 1-.074 1.294-.195 2.427-.78 3.398-1.758.772-.766 1.3-1.634 1.584-2.602H4.834z"/><path fill="#2C2255" d="M3.659 6.498H2.546a6.51 6.51 0 0 0-.081.75h12.441a6.453 6.453 0 0 0-.081-.75M2.465 7.945c.012.256.04.506.08.75H14.826c.041-.244.069-.494.082-.75"/><path fill="#2C2255" d="M14.667 5.8c-.284-.97-.812-1.842-1.584-2.614-.968-.968-2.098-1.55-3.388-1.745a6.718 6.718 0 0 0-1.01-.075c-1.718 0-3.188.607-4.41 1.82-.767.772-1.29 1.644-1.572 2.614"/><path fill="#F7941E" d="M2.095 7.596c0-3.286 2.468-6.017 5.68-6.497-.08-.003-.16-.007-.24-.007-3.605 0-6.526 2.912-6.526 6.504 0 3.593 2.921 6.504 6.525 6.504.08 0 .16-.002.24-.006-3.211-.48-5.68-3.21-5.68-6.498z"/><path fill="url(#a)" d="M8.483.775a4.24 4.24 0 0 0-.129-.75H.144a4.233 4.233 0 0 0-.129.75h8.468z" transform="translate(4.436 6.473)"/><path fill="#2E2259" d="M12.92 7.945H4.45c.021.257.064.508.129.75h8.21a4.24 4.24 0 0 0 .13-.75z"/><path fill="url(#b)" d="M4.25 5.373A4.25 4.25 0 0 0 8.1 2.92H.398A4.25 4.25 0 0 0 4.25 5.373z" transform="translate(4.436 6.473)"/><path fill="#FFF" d="M3.824 7.946h11.074a6.348 6.348 0 0 0-.002-.698H2.465a6.322 6.322 0 0 0-.003.698h1.362zM4.809 5.8H2.702c-.069.227-.114.46-.156.697H14.785a6.193 6.193 0 0 0-.167-.697m-.633 2.895H2.545c.042.237.09.47.158.697H14.659c.068-.227.122-.46.164-.697h-.838z"/></g></svg>