<svg xmlns="http://www.w3.org/2000/svg" width="16" height="16" viewBox="0 0 16 16"><rect id="frame" width="16" height="16" fill="none"/><defs><linearGradient id="a" x1="50%" x2="50%" y1="100%" y2="0%"><stop offset="0%" stop-color="#F40A0B"/><stop offset="100%" stop-color="#F5E710"/></linearGradient><linearGradient id="b" x1="50%" x2="50%" y1="100.109%" y2=".13%"><stop offset="0%" stop-color="#F40A0B"/><stop offset="100%" stop-color="#F5E710"/></linearGradient></defs><g fill="none" fill-rule="evenodd"><path fill="url(#a)" d="M2.883 10.624c.129 1.02.683 1.788 1.531 2.542l-.306-.155A6.768 6.768 0 1 1 6.282.044c-4.05.8-7.93 5.477-3.399 10.58z" transform="translate(1.278 1.238)"/><path fill="url(#b)" d="M12.127 4.636C11.82 2.446 10.139.912 7.075.033a6.77 6.77 0 0 1 6.468 6.759c0 3.738-2.815 6.628-6.473 6.793a2.951 2.951 0 0 1-1.028-.148V5.813a.424.424 0 0 0 0-.506V3.685h.374a2.532 2.532 0 0 0-.374-.217V3c1.961.748 2.872.834 2.735.248.172.483.023.703-.445.654-.54-.083-.874-.045-1.005.114.968.48 1.485.946 1.55 1.397.092.76-.268 1.596-1.08 2.513-.51.636-.245 1.313.58 1.422 2.562-.126 3.813-1.7 3.75-4.712zm-6.085 8.8c-.783-.242-1.485-.73-1.828-1.07-.605-.628-1.016-1.633-1.168-3.084 0-.009-.003-.017-.003-.026v-.49C3.138 7.6 3.914 6.78 5.38 6.308c.331-.162.554-.328.663-.496v7.624zm0-8.129a1.044 1.044 0 0 0-.206-.225c-.08-.08-.251-.16-.511-.237-.594-.018-.917.13-.968.448-1.008-.448-1.037-.96-.089-1.53.186-.072.457-.098.817-.083-.148-.657.103-.911.757-.757.068.025.134.051.2.077v.468c-.3-.14-.417-.068-.354.217h.354v1.622z" transform="translate(1.278 1.238)"/></g></svg>