<svg xmlns="http://www.w3.org/2000/svg" width="16" height="16" viewBox="0 0 16 16"><rect id="frame" width="16" height="16" fill="none"/><g fill="#8AC831" fill-rule="evenodd"><path d="M8 15A7 7 0 1 1 8 1a7 7 0 0 1 0 14zm0-1A6 6 0 1 0 8 2a6 6 0 0 0 0 12z"/><path fill-rule="nonzero" d="M12.266 5.392c.036.057.228.623-.266 1.108-.646.635-1.967 1.557-2.878 2.5-.893.924-1.5 2.313-2.122 3-.517.572-1.111.537-1.267.458a5 5 0 1 1 6.534-7.066zM9.891 6.46a2.43 2.43 0 0 0-1.843-.845 2.45 2.45 0 0 0-2.442 2.458 2.46 2.46 0 0 0 1.02 2c.619.445 1-.716 1.825-1.622.792-.871 1.887-1.473 1.44-1.99z"/></g></svg>