<svg xmlns="http://www.w3.org/2000/svg" xmlns:xlink="http://www.w3.org/1999/xlink" width="16" height="16" viewBox="0 0 16 16"><rect id="frame" width="16" height="16" fill="none"/><defs><path id="a" d="M0 0h14v10H0z"/></defs><g fill="none" fill-rule="evenodd" transform="translate(1 3)"><use fill="#1F58FF" xlink:href="#a"/><g fill="#FFF"><path d="M13.002 8.065v.947H9.729c1.073-2.125 1.669-3.304 1.786-3.539.176-.351.264-.625.264-.822 0-.151-.027-.264-.08-.338-.053-.075-.134-.112-.243-.112-.108 0-.19.041-.242.124-.053.082-.08.246-.08.49v.53H9.851v-.203c0-.311.017-.557.05-.737.033-.18.114-.356.244-.53a1.22 1.22 0 0 1 .507-.395c.208-.09.457-.134.748-.134.57 0 1 .137 1.292.41.291.274.437.62.437 1.04 0 .317-.082.654-.246 1.009-.164.355-.648 1.108-1.451 2.26h1.57z"/><path fill-rule="nonzero" d="M6.209 5.81H7.8V3.616H9v5.4H7.8V7.009H6.21v2.008h-1.2v-5.4h1.2v2.192z"/></g></g></svg>