<svg xmlns="http://www.w3.org/2000/svg" width="16" height="16" viewBox="0 0 16 16"><rect id="frame" width="16" height="16" fill="none"/><g fill="none" fill-rule="evenodd"><path fill="#389FD6" d="M1 1h14l-2.5 7H1z"/><g fill="#FFF"><path d="M3.579 7.04A3.118 3.118 0 0 1 1.5 6.256l.637-.763c.441.364.903.595 1.463.595.441 0 .707-.175.707-.462v-.014c0-.273-.168-.413-.987-.623-.987-.252-1.624-.525-1.624-1.498v-.014C1.696 2.588 2.41 2 3.411 2c.714 0 1.323.224 1.82.623l-.56.812c-.434-.301-.861-.483-1.274-.483-.413 0-.63.189-.63.427v.014c0 .322.21.427 1.057.644.994.259 1.554.616 1.554 1.47v.014c0 .973-.742 1.519-1.799 1.519z"/><path d="M4.638 7l2.1-4.935h.994L9.832 7H8.705l-.448-1.099a2.047 2.047 0 0 1-1.022.282c-.35 0-.7-.094-1.05-.282L5.737 7H4.638zM6.57 4.949c.217.147.434.22.651.22.217 0 .434-.073.651-.22L7.221 3.36 6.57 4.949z"/><path d="M9.412 7V2.1h2.002c1.169 0 1.876.693 1.876 1.694v.014c0 1.134-.882 1.722-1.981 1.722h-.819V7H9.412zm1.078-2.429h.854c.539 0 .854-.322.854-.742v-.014c0-.483-.336-.742-.875-.742h-.833v1.498z"/></g><g fill="#EDA200"><path d="M1 14V9h1l-.002 2.029H3V9h1v5H3v-1.999H2V14z"/><path d="M8 14V9h1l1 3.001V9h1v5h-1l-1-3v3z"/><path d="M7 14l-.33-.988H5.33L5 14H4l1.5-5h1L8 14H7zm-1-3l-.334 1.001.666-.005L6 11zm8 3l-.33-.988h-1.34L12 14h-1l1.5-5h1l1.5 5h-1zm-1-3l-.334 1.001.666-.005L13 11z"/></g></g></svg>