<svg xmlns="http://www.w3.org/2000/svg" width="16" height="16" viewBox="0 0 16 16"><rect id="frame" width="16" height="16" fill="none"/><g fill="none" fill-rule="evenodd"><path fill="#FDEE21" d="M4.8 1.153c-.785.19-1.387.897-1.927 1.43l-1.198.145c-.244.293-.16.544-.208.796-.057.292-.22.586-.118.947.294.371.399.718.638 1.08.313.472.746.969 1.023 1.576.039.506 2.51.053 3.005-.047-.676.452-1.302 1.151-1.049 3.167.231.946.264 1.91 2.313 2.98.27.14.828.286 1.173.404.33.141.716.215 1.804-.096.63-.253 1.31-.264 1.927-.517l-.74.072c-.506.01-.954.058-1.307.046-.36-.012-.622-.17-.745-.305-.268-.266-.435-.466-.5-.599-.098-.203-.178-.507-.237-.913L9 10.327c.758.072 1.01.645 1.677.864l.788-.416c2.286 1.259 3.196-.926 3.456-2.528-.027-.652-1.383.204-1.293-.1.007-.136.029-.28-.007-.43-.148-.62-.656-1.326-.975-1.902l.337-1.652c.208-.173-.96-1.862-1.915-2.092-.838-.2-1.866.978-1.866.836C9.077 2.59 4.854.983 4.799 1.153z"/><g fill="#000"><path d="M4.895 9.825c.073.5.158.873.255 1.122.08.207.26.518.542.932.864.499 2.149.697 3.38.65l-.418-1.517c-2.57-.503-3.264-2.1-3.504-2.953l-.255 1.766zm3.313.039c.233.272.294.393.653.559.485.142.828.166 1.18.144-.096-.165-.182-.397-.293-.552-.788-.576-.424-1.1-.214-1.432-.439-.102-1.02-.32-1.1-.605-.129-.925-.063-1.218.066-1.693-.594.115-1.196.23-1.834.428.268 1.074.907 2.163 1.542 3.15zm1.841-4.2c-.241-.174-.456-.794-.82-.922-.339-.026-.463-.125-.907-.041.16-.075.313-.17.484-.221.116-.025.225.003.336.017.027-.012.045-.027.039-.05-.448-.255-1.366-.258-1.985-.404.719.022 1.515-.015 2.055.145.435.356.576 1.027.798 1.477zm3.962 2.616c-.092.235-.422.907-.522 1.127-.135.145-.965.54-1.239.494-.048-.008.328-.285.536-.36.26-.095.511-.57.538-.629.055-.112.13-.55.24-.681.11-.13.54-.186.447.05zm-3.26-.484s.327-.044.321-.016c-.024.104.04.36.047.324l-.184.138c.385-.178.79-.142 1.201-.17 0 0-.346-.088-.325-.09.078-.01-.02-.334-.047-.34.066-.021.13-.037.197-.052-.495-.12-.78-.05-1.21.206z"/><path fill-rule="nonzero" d="M3.753 1.558c-.336.32-.47.564-.81.796-.069.054-.26.138-.501.151-.113.005-.187.024-.396 0-.184-.092-.44.038-.61.227-.187.248-.16.719-.258 1.016-.081.303-.073.599.018.874.135.412.313.78.61 1.067.44.398.695.694.876 1.059.138.236.17.415.28.643.04.072.1.157.207.179.231.045.55.046.836.069.123.001.292-.008.452-.023.221-.039.48-.079.698-.148.213-.049.13-.016.301-.077-.022.069-.245.27-.3.358-.428.664-.457 1.272-.368 2.222.057.475.165.87.344 1.321.081.207.323.65.49.867.495.646 1.632 1.46 3.175 1.779.269.034.545-.013.833-.083a82.903 82.903 0 0 0 2.815-.884c-1.253.085-2.09.108-2.51.07-.147-.022-.277-.022-.305-.047-.01-.011-.288-.3-.475-.663-.154-.298-.224-.68-.233-.705-.045-.114-.013-.384.095-.81.073-.133.042-.138.138-.14.29.03.367.04.543 0 .12.227.2.452.471.616.904.248 1.1-.032 1.319-.316.432.293 1.082.439 1.685.316.304-.062.595-.214.842-.405.934-.998 1.203-2.727 1.12-2.817-.052-.082-.326-.136-.612-.136-.351 0-.72.064-.715.027a.907.907 0 0 0-.089-.51c-.14-.272-.305-.54-.382-.676-.022-.031-.12-.212-.293-.544-.07-.055-.378-.037-.352.06.03.11.13.268.199.434.157.379.42.803.446.831.175.261.013.586.146.768.006.01.063.068.156.09.106.024.26.008.437-.027.33-.065.709 0 .706.026-.035.367-.178.838-.363 1.228-.198.353-.407.66-.61.89-.192.215-.372.364-.733.422-.745.12-1.132-.178-1.536-.37l-.251.192a.876.876 0 0 1-.667.25c-.234-.007-.43-.1-.567-.441-.127-.245-.402-.405-.543-.615l-.753.43c-.062.117-.102.23-.195.438-.02.046-.02.336 0 .872.174.55.31.89.405 1.023.08.11.42.563.424.571.12.144-.292.248-.471.22-.465-.068-1.414-.468-1.439-.482-.507-.295-.835-.509-1.232-.882-.236-.248-.628-.755-.795-1.115a6.123 6.123 0 0 1-.203-1.075c-.07-.707-.121-1.518.369-2.22.048-.07.227-.298.283-.32.289-.18.627-.264.964-.332-.01-.29-.07-.423-.182-.4-.168.036-.796.186-.956.266-.364.098-.665.113-1.13.22-.15.017-1.28-.055-1.316-.086-.156-.202-.071-.367-.275-.759-.09-.172-.441-.51-.592-.65-.494-.452-.587-.718-.705-1.182-.03-.137-.108-.279-.067-.684.12-.383-.08-.545.248-.855.342.005.649-.046.912 0 .12.019.372.028.631.117.175.06 1.432.518 1.514.523.226.013-1.01-.582-1.308-.728-.308-.151-.421-.177-.43-.199.691-.375.597-.566 1.052-.962.208-.083.289-.244.465-.262.617.09.985.1 1.427.262.728.27 1.41.596 1.918.846.33.166.608.292.894.443.252.076 1.085.604 1.307.89.226.439.407.914.558 1.372.02.091.046.255.139.492.038.099.12.275.247.53a31.736 31.736 0 0 0-.193-1.113c-.174-.562-.332-1.437-.379-1.483-.133-.154-.64-.546-.98-.728-.13-.068-.229-.11-.234-.141.109-.101.144-.141.264-.226.116-.082.22-.191.382-.246.13-.054.262-.123.391-.141.47-.07.909.023 1.11.187.409.332.964 1.013 1.213 1.453.097.176.142.292.097.503-.046.212-.088.329-.138.47-.05.142-.28.743-.278.83-.021.146.051.358.217.634.236-.054.353-.074.352-.059-.003.022-.23-.455-.222-.516.082-.464.23-.798.39-1.205.048-.103.086-.16.083-.238.002-.14-.221-.647-.572-1.113-.351-.466-.635-.868-1.183-1.096-.548-.228-.855-.152-1.063-.116-.253.048-.605.163-.779.266-.272.16-.352.32-.603.467-.556-.256-.824-.441-.874-.467-.19-.095-1.051-.555-1.97-.86A8.013 8.013 0 0 0 4.371 1c-.195.118-.283.237-.618.558zm7.787 9.024a4.145 4.145 0 0 1-.86-.849c-.024.117-.066.28.068.489.068.105.248.29.539.553l.253-.193z"/></g></g></svg>