<svg xmlns="http://www.w3.org/2000/svg" width="16" height="16" viewBox="0 0 16 16"><rect id="frame" width="16" height="16" fill="none"/><path fill="#FDEE21" fill-rule="evenodd" d="M12.89 6.285l.015.027c.038.064.078.127.118.19.012.042.254.534.416 1.109.098.498.132.853.101 1.067-.01.072-.237.266-.54.583a6.455 6.455 0 0 0-.37.444c.23.207.47.231.718.073.322-.205.7-.986.828-1.333.327-.057.756-.019.754.006-.036.37-.256.843-.442 1.234-.177.314-.36.592-.543.812-.55.481-1.33.637-2.391.105a4.175 4.175 0 0 1-.825-.824c-.024.117.073.281.209.491.064.1.221.27.472.509v-.005l-.068.052a.88.88 0 0 1-.67.252c-.235-.008-.432-.101-.571-.444a.171.171 0 0 0-.023-.033c-.093-.164-.177-.388-.285-.539 0-.056-.69-.321-1.192-.67C8.266 9.158 8.4 8.694 9 8c-.832.601-1.373.722-1.622.363-.374-.538-.517-1.203-.391-1.458.292-.593 1.522-.487 1.551-.593-.136.026-.315-.17-.52-.285C8.019 6.015 8.013 6.006 8 6a.445.445 0 0 0-.075-.017.473.473 0 0 0-.136-.032 1.894 1.894 0 0 0-.533.03A4.76 4.76 0 0 0 6 6.317c-.46.192-.958.63-1.401.755-.504.141-1.052.312-1.331.208-.077-.03-.358-.472-.843-1.33-.524-.497-.82-1.077-.89-1.74-.025-.247.017-.674.126-1.282 1.077-.11 1.612-.173 1.607-.187.122-.237.128-1.025.588-1.283.553-.31 1.578-.066 1.797 0 .428.13.824.251 1.17.375.605.215 1.061.416 1.288.528.216.108 1.46.625 2.342 1.348.587.482.883 1.139.889 1.97.62-.644.839-1.349.658-2.112-.18-.764-.775-1.433-1.784-2.006.9-.28 1.602-.42 2.105-.42 1.226 0 2.546 2.426 2.271 3.093-.207.503-.717.757-.921.885-.427.266-1.138.52-1.137.56-.02.142.3.528.349.604.002.003.004.004.007.002zm-4.139 5.42c.05.246.11.44.181.585.054.11.176.264.367.464a1.383 1.383 0 0 1-.162.465c-.185.31-.801.484-.894.453-.094-.031-.42-.151-.509-.189a5.58 5.58 0 0 1-.538-.264c-.568-.318-1.09-.858-1.263-1.073.826.14 2.228-.232 2.818-.441zm.985 1.386c.123.042.273.055.446.061.231.008.917-.016 2.058-.072-.32.131-1.038.544-1.705.725-.622.17-1.2.111-1.369.118-.045.002-.09.002-.133.002.27-.197.63-.695.703-.834zm-4.48-2.016c-.088-.295-.246-.661-.285-1.06-.063-.635.132-1.355.526-2.004.263.572.7 1.27 1.003 1.525.466.391 1.75.813 2.1.906.033.009.065.017.098.024a1.544 1.544 0 0 0-.2.275c-.017.035.032.256.115.52h-.005c-.295.213-2.352.523-3.352-.186zM9.27 4.761c.367.13.583.752.825.928-.223-.453-.365-1.126-.802-1.484-.543-.161-1.343-.124-2.065-.146.622.146 1.545.15 1.995.406.006.023-.012.038-.04.05-.11-.015-.22-.043-.337-.017-.172.051-.325.147-.487.222.447-.084.572.015.911.04zm1.854 3.053c-.024.106.04.362.047.326l-.185.14c.387-.18.794-.144 1.207-.171 0 0-.347-.089-.326-.092.077-.01-.02-.335-.047-.342.066-.02.13-.036.197-.051-.497-.12-.785-.05-1.216.206 0 0 .329-.044.323-.016z"/></svg>