<svg xmlns="http://www.w3.org/2000/svg" width="16" height="16" viewBox="0 0 16 16"><rect id="frame" width="16" height="16" fill="none"/><g fill="none"><path fill="#509CD1" d="M9.775 12.274l1.281-1.281 2.727 2.726-1.282 1.282z"/><path fill="#9CC4E8" d="M12.642 12.586c2.724-2.724 2.81-7.056.19-9.675-2.619-2.619-6.95-2.534-9.674.19"/><path fill="#9CC4E8" d="M11.415 11.35c-2.37 2.37-6.14 2.445-8.419.166-2.279-2.28-2.204-6.048.166-8.419"/><path fill="#509CD1" d="M11.405 11.358c2.034-2.034 2.098-5.269.142-7.224-1.956-1.956-5.19-1.893-7.224.142"/><path fill="#509CD1" d="M10.365 10.307c-1.734 1.734-4.491 1.788-6.158.121-1.667-1.667-1.613-4.424.12-6.158"/><path fill="#9CC4E8" d="M10.36 10.313c1.392-1.393 1.436-3.608.097-4.947-1.34-1.34-3.555-1.296-4.948.097"/><path fill="#509CD1" d="M9.096 9.224c.638-.638.658-1.652.045-2.265-.614-.613-1.628-.594-2.265.044"/><path fill="#9CC4E8" d="M5.51 5.46c-1.053 1.054-1.086 2.73-.073 3.744 1.014 1.013 2.69.98 3.744-.074"/></g></svg>