<svg xmlns="http://www.w3.org/2000/svg" width="16" height="16" viewBox="0 0 16 16"><rect id="frame" width="16" height="16" fill="none"/><g fill="#FFF" fill-rule="evenodd"><path d="M1 5v1.162h.783v3.304h-.762v1.148h2.725V9.466h-.783V6.162h.762V5z"/><path d="M8.756 5.014v1.148h.783v3.304h-.761v1.148h1.942V7.42l1.157 3.193h.023l1.137-3.193v3.194H15V9.466h-.783V6.162h.762V5.014H12.79l-.906 2.56-.918-2.56z"/><path d="M4.111 10.614v-1.16h.783v-1.84H7.91v.353s.252.198.332.387l.162.366s.074.205.074.388l-.032.366s-.05.298-.139.386l-.311.367s-.397.387-.923.387h-2.96zm0-5.6h2.962c.525 0 .922.38.922.38l.311.36c.089.087.14.38.14.38l.031.36c0 .18-.075.38-.075.38l-.16.36c-.081.185-.333.38-.333.375H4.894V6.154h-.783v-1.14zm1.963 1.148v1.064h1.148V6.162H6.074zm0 2.226v1.064h1.148V8.388H6.074z"/></g></svg>