<svg xmlns="http://www.w3.org/2000/svg" xmlns:xlink="http://www.w3.org/1999/xlink" width="16" height="16" viewBox="0 0 16 16"><rect id="frame" width="16" height="16" fill="none"/><defs><path id="a" d="M3.176.476l-1.74.09a.5.5 0 0 0-.42.274L.211 2.435a.5.5 0 0 0 .046.525L1.26 4.3a.5.5 0 0 0 .393.2l1.672.024a.5.5 0 0 0 .452-.273l.816-1.6a.5.5 0 0 0-.027-.5L3.621.7a.5.5 0 0 0-.445-.225z"/></defs><g fill="none" fill-rule="evenodd"><path stroke="#DB5860" stroke-linecap="round" d="M13.528 8.026V5.445a1 1 0 0 0-.478-.853L8.522 1.82a1 1 0 0 0-1.044 0l-4.47 2.734a1 1 0 0 0-.48.853v5.103a1 1 0 0 0 .532.883l4.472 2.372a1 1 0 0 0 .898.02l4.493-2.134"/><path stroke="#DB5860" stroke-linecap="round" d="M4.519 6.671l-.015 2.75a1 1 0 0 0 .541.894L7.54 11.6a1 1 0 0 0 .908.004l2.505-1.261a1 1 0 0 0 .55-.89l.011-2.828a1 1 0 0 0-.496-.868L8.519 4.302a1 1 0 0 0-1.03.014l-1.317.816"/><g transform="rotate(29 -5.48 16.143)"><mask id="b" fill="#fff"><use xlink:href="#a"/></mask><use fill="#DB5860" fill-rule="nonzero" transform="scale(-1 1) rotate(2 0 -135.15)" xlink:href="#a"/><g fill-rule="nonzero" mask="url(#b)"><path fill="#F2F2F3" d="M2.372 2.486L3.503.276l1.502 1.863z"/><path fill="#EBECED" opacity=".601" d="M2.363 2.493L1.198.358 3.51.314z"/></g></g><path fill="#DB5860" d="M13.702 8.882l.677-1.353a.2.2 0 0 0-.18-.29h-1.352a.2.2 0 0 0-.179.29l.676 1.353a.2.2 0 0 0 .358 0z"/></g></svg>