<svg xmlns="http://www.w3.org/2000/svg" width="16" height="16" viewBox="0 0 16 16"><rect id="frame" width="16" height="16" fill="none"/><g fill="#FFF" fill-rule="evenodd"><path d="M14.571 3.283V3.28a1.065 1.065 0 0 1-.547.138c-.166.006-.35-.002-.573.022-1.85.198-2.084 2.324-3.27 3.529-.086.088-.18.17-.278.246-.415.323-.924.553-1.393.74-.758.302-1.478.323-2.19.584a6.457 6.457 0 0 0-1.481.775 4.41 4.41 0 0 0-.301.234c-.252.215-.417.453-.577.698-.165.253-.324.513-.566.761-.393.402-1.862.115-2.379.488-.026.018-.11.055.027.1.03.01.22-.01.404 0 .056.003.372.006.36.112-.01.092-.097.225-.175.344-.074.112-.26.239-.228.283.553.083 1.014.004 1.382-.237.722-.577 1.306-.94 1.752-1.09a5.087 5.087 0 0 1 1.877-.237c.425.022.852.123 1.269.149.297.018.78.198 1.031.17.392-.252.433-1.136.814-1.222-.011 1.316-.15 1.822-.69 2.586.379-.07.76-.338 1.143-.804.68-.872 1.055-1.413 1.126-1.623.163.131.136.529.218.744.786-.456.948-1.498 1.246-2.55.344-1.22.657-2.454.879-2.815.217-.352.605-.569.913-.794.323-.236.613-.482.699-.901.113-.228.113-.428.001-.541-.113-.114-.29-.062-.493.113zm-.2-.242c.49-.126.419-.17.646-.178.206-.007.319.12.322.346.01.704-.119 1.003-.446 1.311-.327.308-.874.651-1.215 1.197-.226.362-.295 1.103-.482 1.815-.175.662-.346 1.464-.52 1.965-.182.53-.032 1.732.51 1.892-.617.468-1.612.33-1.977-.256-.657.18-.738 1.013-1.272 1.337-.436.265-.851.384-1.428.533-.32.063-.602.052-.508-.053.301-.465.678-.853.866-1.436-1.265-.19-2.524-.44-3.617-.288-.844.118-1.276.61-1.819.951-1.164.733-2.445.547-2.554.272-.103-.261.426-.411.516-.589-.248.035-.666-.04-.747-.216-.06-.131.174-.375.231-.418.134-.1.452-.17.603-.212.7-.196 1.334-.03 1.681-.405.475-.512.407-.78.86-1.188.586-.526 1.215-.986 2.197-1.307.982-.32 2.074-.467 3.157-1.105.704-.414 1.035-1.146 1.481-1.868.472-.764.93-1.518 1.748-1.876.534-.233 1.271-.096 1.767-.224z"/><path d="M12.836 4.238c.262.237.811.047.713-.424-.407-.036-.642.108-.713.424z"/></g></svg>