<svg xmlns="http://www.w3.org/2000/svg" width="16" height="16" viewBox="0 0 16 16"><rect id="frame" width="16" height="16" fill="none"/><g fill="none" fill-rule="evenodd"><path fill="#6E6E6E" d="M14.37 3.041c-.495.128-1.232-.01-1.766.224-.819.358-1.276 1.112-1.748 1.876-.446.722-.777 1.454-1.481 1.868-1.083.638-2.175.785-3.157 1.105-.982.321-1.611.781-2.196 1.307-.454.408-.386.676-.86 1.188-.348.374-.983.21-1.682.405-.15.042-.469.112-.603.212-.057.043-.292.287-.231.418.081.176.5.25.747.216-.09.178-.62.328-.516.589.11.275 1.39.461 2.554-.272.543-.341.975-.833 1.819-.95 1.093-.153 2.352.097 3.617.287-.188.583-.565.971-.866 1.436-.094.105.187.116.508.053.577-.149.992-.268 1.428-.533.534-.324.615-1.157 1.272-1.337.365.586 1.36.724 1.976.256-.54-.16-.691-1.362-.508-1.892.173-.5.344-1.303.519-1.965.187-.712.256-1.453.482-1.815.341-.546.888-.89 1.215-1.197.327-.308.456-.607.446-1.31-.003-.227-.116-.354-.322-.347-.227.008-.156.052-.646.178z"/><path fill="#FFF" d="M14.571 3.283c.204-.175.38-.227.493-.113.112.113.112.313-.001.541-.086.42-.376.665-.699.9-.308.226-.696.443-.913.795-.222.36-.535 1.595-.88 2.814-.297 1.053-.46 2.095-1.245 2.551-.082-.215-.055-.613-.218-.744-.07.21-.446.75-1.126 1.623-.383.466-.764.734-1.143.804.54-.764.679-1.27.69-2.586-.38.086-.422.97-.814 1.221-.25.029-.734-.15-1.031-.17-.417-.025-.844-.126-1.27-.148a5.087 5.087 0 0 0-1.876.237c-.446.15-1.03.513-1.752 1.09-.368.24-.829.32-1.382.237-.031-.044.154-.17.228-.283.078-.12.165-.252.175-.344.012-.106-.304-.11-.36-.112-.184-.01-.374.01-.404 0-.137-.045-.053-.082-.027-.1.517-.373 1.986-.086 2.379-.488.242-.248.401-.508.566-.76.16-.246.325-.484.577-.699a4.41 4.41 0 0 1 .301-.234c.429-.306.96-.583 1.481-.775.712-.26 1.432-.282 2.19-.584.469-.187.978-.417 1.393-.74.099-.077.192-.158.278-.246 1.186-1.205 1.42-3.331 3.27-3.53.223-.023.407-.015.573-.02a1.065 1.065 0 0 0 .547-.137z"/><path fill="#6E6E6E" d="M12.836 4.238c.262.237.811.047.713-.424-.407-.036-.642.108-.713.424z"/></g></svg>