<svg xmlns="http://www.w3.org/2000/svg" width="16" height="16" viewBox="0 0 16 16"><rect id="frame" width="16" height="16" fill="none"/><g fill="none"><path fill="#10AA50" d="M11.822 6.406C10.96 2.665 9.163 1.668 8.708.966A7.555 7.555 0 0 1 8.209 0c-.024.332-.067.542-.357.794-.578.504-3.021 2.468-3.23 6.72C4.43 11.477 7.582 13.92 8 14.172c.32.154.708 0 .898-.141 1.52-1.028 3.594-3.76 2.924-7.625"/><path fill="#B8C4C2" d="M8.277 12c-.08.972-.142 1.538-.35 2.092 0 0 .14.93.233 1.908h.345c.08-.69.203-1.378.369-2.055-.437-.203-.579-1.09-.597-1.945z"/><path fill="#12924F" d="M8.942 14c-.425-.197-.548-1.114-.567-1.97a40.83 40.83 0 0 0 .093-4.252C8.443 7.04 8.48.898 8.283 0c.135.302.29.597.455.886.456.708 2.234 1.705 3.084 5.465.664 3.87-1.379 6.609-2.88 7.649z"/></g></svg>