<svg xmlns="http://www.w3.org/2000/svg" width="16" height="16" viewBox="0 0 16 16"><rect id="frame" width="16" height="16" fill="none"/><g fill="none" fill-rule="evenodd"><path fill="#FFF" d="M14.962 14.706c-.067-.114-.085-.238-.151-.333-.095-.094-.19-.18-.286-.275a4.522 4.522 0 0 0-.987-.959c-.304-.21-.97-.494-1.092-.844.19-.039.437-.115.636-.173.323-.085.617-.066.95-.15.152-.04.304-.087.456-.134v-.086c-.172-.17-.295-.398-.475-.56a12.72 12.72 0 0 0-1.567-1.168c-.295-.19-.675-.313-.988-.475-.114-.057-.303-.085-.37-.18-.171-.21-.266-.484-.39-.731-.275-.522-.541-1.101-.778-1.653-.17-.37-.275-.74-.484-1.082C8.457 4.288 7.394 3.31 5.76 2.35c-.35-.2-.769-.285-1.215-.39-.237-.01-.475-.028-.712-.037-.152-.067-.304-.247-.437-.333C2.854 1.25 1.459.51 1.06 1.487c-.257.618.38 1.225.598 1.539.162.218.37.465.484.712.067.161.086.332.153.503.151.418.294.883.493 1.273.105.2.218.408.351.588.077.105.21.152.238.323-.132.19-.143.475-.219.713-.341 1.073-.209 2.402.276 3.19.151.237.513.76.997.56.427-.17.332-.712.456-1.186.028-.115.01-.19.066-.266.133.284.266.54.39.807.294.465.807.95 1.234 1.272.228.171.408.465.693.57C7.194 11.971 9 14 10 14.098c1.458.275 4.829.561 4.962.608z"/><path fill="#389FD6" d="M3.922 3.482c.047.07.121.184.223.344.153.239.203.364.237.432.01-.01.25-.221.275-.432a.346.346 0 0 0-.094-.273.584.584 0 0 0-.263-.118c-.202-.032-.345.04-.378.047z"/><path fill="#389FD6" d="M11.629 12.104c.076.076.086.2.152.304.114.19.313.446.494.58.2.151.399.408.608.54.37.23.788.371 1.148.6.21.132.418.188.628.331.104.076.17.2.303.247-.039-.067-.134-.501-.433-.903-.211-.285-.617-.553-.77-.664-.304-.21-.753-.494-.876-.844.19-.039.935-.087 1.267-.173.102-.025.271-.11.509-.255-.091-.091-.162-.545-.659-1.002-.439-.403-1.296-.809-1.554-.97-.295-.19-1.291-.43-1.358-.526-.171-.21-.266-.484-.39-.731-.275-.522-.541-1.101-.778-1.653-.17-.37-.275-.74-.484-1.082C8.457 4.288 7.394 3.31 5.76 2.35c-.35-.2-.769-.285-1.215-.39-.237-.01-.475-.028-.712-.037-.152-.067-.304-.18-.437-.266C2.854 1.317 1.459.51 1.06 1.487c-.257.618.38 1.225.598 1.539.162.218.37.465.484.712.067.161.086.332.153.503.151.418.294.883.493 1.273.105.2.218.408.351.588.077.105.21.152.238.323-.132.19-.143.475-.219.713-.341 1.073-.209 2.402.276 3.19.151.237.513.76.997.56.427-.17.332-.712.456-1.186.028-.115.01-.19.066-.266.133.284.266.54.39.807.294.465 1.642 1.737 1.927 1.842-.076-.114-.315-.598-.448-.788-.399-.532-.696-1.12-1.009-1.729-.152-.295-.424-.662-.547-.957-.02-.04-.192-.364-.288-.344-.175.037-.518.527-.586.693-.18.409-.186.76-.253 1.283-.038.01-.373-.364-.462-.973-.106-.732-.027-1.622.108-2.047.066-.2.344-.826.23-1.016a1.334 1.334 0 0 0-.23-.428c-.123-.18-.323-.408-.408-.607-.228-.532-.45-1.121-.696-1.653-.114-.247-.32-.503-.482-.73-.18-.257-.75-1.064-.674-1.178.019-.076.057-.105.133-.124.123-.104.68.217.792.287.242.152.571.498.69.577.132.096.275.124.445.171h.2c.304.066.646.062.931.148.503.162.959.508 1.367.765 1.244.788 2.27 1.951 2.963 3.29.114.218.713 1.59.912 2.045.199.446.39.755.674 1.126.143.199.712.328.969.432.19.085.484.195.655.3.323.199.645.346.95.564.151.114.412.219.44.409-.366-.01-.925.012-1.297.112-.401.107-.71.298-.72.391z"/></g></svg>