<svg xmlns="http://www.w3.org/2000/svg" width="16" height="16" viewBox="0 0 16 16"><rect id="frame" width="16" height="16" fill="none"/><g fill="#389FD6" fill-rule="evenodd"><path d="M6.424 2.205C6.28 2.205 1.539.1 1.777 4.86c.05 1.013 1.451 7.662 3.122 5.654.61-.735 1-1.057 1.1-1.245.046.03.003.042-.314-.268-.288-.282-.397-.64-.481-.857-.03-.077-.067-.331-.062-.666.004-.276.066-.605.082-.935.016-.308-.02-.616-.02-.88 0-.283.047-1.575.355-2.199.14-.285.276-.559.44-.779.23-.309.465-.51.425-.479zm7.668 7.471c-.55.056-.922.074-1.116.055-.418-.04-.67-.226-.755-.236-.198-.025-.385.185-.418.236-.078.123-.196.477 0 .632.257.203.886.19 1.16.125.516-.122.893-.393 1.13-.812zM13.873 5.2c.102-.427.224-1.028.172-1.538-.042-.412-.231-.765-.366-.92-.109-.127-.677-.682-1.29-.915-.648-.246-1.346-.165-1.606-.147a6.699 6.699 0 0 0-.927.147c.504.26.85.467 1.04.619.278.223.747.683 1.052 1.148.4.61.573 1.437.585 1.505.043.244-.134.865-.146 1.133-.014.343.078.769.146 1.181.025.153.04.492-.068.82-.053.16-.178.374-.377.642l.114.151c.352-.528.666-1.095.94-1.7.38-.834.64-1.744.731-2.126zM7.867 10.1c0-.276-.153-.47-.43-.47-.143 0-.492.39-.742.56-.23.158-1.1.42-1.038.48.05.046.522.28.964.261.097-.004.553-.048.85-.23.275-.168.396-.468.396-.6z"/><path d="M7 9.257c-.33-.044-.559-.098-.688-.163a1.547 1.547 0 0 1-.71-.758C5.455 8 5.448 8 5.448 7.71c0-.228 0-.21.051-.652.012-.1.023-.44.023-1.012 0-.105-.008-.281-.023-.527.574-.39 1.089-.544 1.542-.46.308.056.408.32.458.422.21.427.156.878.156 1.519 0 .45-.156 1-.36 1.369-.09.162-.19.458-.296.888zm-.1-3.174c.165.033.307-.162.316-.255.01-.094-.118-.197-.284-.23-.166-.034-.308.015-.317.108-.01.094.118.343.284.377z"/><path d="M7.542 8.566c-.084.144-.108.295-.159.452a1.88 1.88 0 0 1-.125.281c.173.027.294.047.363.06.184.036.309.132.343.196.178.337.148.526.162.767.013.24-.047 2.364.098 2.91.048.181.096.357.18.505.126.226.292.389.323.42.136.13.56.386.999.303.227-.043.718-.297 1.007-.723.324-.478.437-1.283.48-1.597.121-.889.19-1.794.195-1.856.012-.144.038-.515.231-.77.06-.078.193-.15.4-.215a8.732 8.732 0 0 1-.43-.591c-.277-.446-.557-1.047-.628-1.184-.126-.242-.198-.417-.248-.524-.233-.502-.335-1.246-.32-1.35.087-.65.495-.897.916-.96.179-.027.443-.027.791 0a8.91 8.91 0 0 0-.347-.742 4.547 4.547 0 0 0-.56-.785A4 4 0 0 0 9.777 2.14c-.474-.196-.975-.336-1.446-.336-.697 0-1.274.212-1.709.576-.598.503-.874 1.302-.927 1.621 0 0-.075.237-.122.495a5.53 5.53 0 0 0-.074.638c.32-.151.543-.246.667-.286.368-.117.593-.108.675-.111.324-.011.886.297.97.751.039.203.171 1.201.152 1.43-.015.172-.012.46-.078.768a3.17 3.17 0 0 1-.344.88z"/><path d="M11.92 8.625c-.052.04-.379-.645-.653-1.238-.146-.315-.277-.617-.344-.74a2.538 2.538 0 0 1-.198-.68c-.033-.247.004-.483.04-.559a.853.853 0 0 1 .283-.313c.163-.092.362-.12.452-.12.046 0 .156-.014.33 0 .08.005.23.024.449.054-.018.191-.034.328-.05.41-.047.235-.11.422-.11.561 0 .101-.04.254-.029.436.006.096.054.338.066.466.023.248.101.729.072.932-.028.203-.227.727-.307.79zm-.167-3.026c-.009-.094-.15-.143-.317-.11-.166.034-.293.138-.284.231.009.094.15.289.317.255.166-.033.293-.283.284-.376z"/></g></svg>