<svg xmlns="http://www.w3.org/2000/svg" width="16" height="16" viewBox="0 0 16 16"><rect id="frame" width="16" height="16" fill="none"/><path fill="#D2642C" fill-rule="evenodd" d="M8.98 11.375l-2.853 3.26a1.082 1.082 0 0 1-1.504.113 1.034 1.034 0 0 1-.365-.912l.458-3.904-3.054-1.23a1.038 1.038 0 0 1 .08-1.961L5.57 5.543l.6-3.663c.093-.57.64-.958 1.222-.867.311.05.585.23.746.496l1.698 2.78 3.795-1.104a1.07 1.07 0 0 1 1.326.704c.103.34.023.707-.211.976l-2.777 3.186 1.663 3.017c.28.508.087 1.142-.431 1.416-.267.14-.581.164-.866.065L8.98 11.375zm-.44-1.609l3.391 1.181-1.678-3.032 2.593-2.963L9.198 6.01 7.446 3.154l-.58 3.523-3.712 1.157 3.123 1.252-.443 3.76 2.707-3.08z"/></svg>