<svg xmlns="http://www.w3.org/2000/svg" width="16" height="16" viewBox="0 0 16 16"><rect id="frame" width="16" height="16" fill="none"/><g fill="none" fill-rule="evenodd"><path fill="#0F80CC" fill-rule="nonzero" d="M11.83 1.62H3.067A1.07 1.07 0 0 0 2 2.687v9.663c0 .587.48 1.067 1.068 1.067h5.77c-.065-2.871.915-8.443 2.991-11.797z"/><path fill="#FFF" d="M11.83 1.62c-.107.094-.213.199-.32.311-1.226 1.301-2.364 3.712-2.718 5.552.138.28.245.637.316.909a8.569 8.569 0 0 1 .096.409s-.011-.042-.056-.173a10.82 10.82 0 0 0-.049-.131c-.08-.186-.301-.579-.399-.75-.083.246-.157.476-.218.684.281.515.452 1.396.452 1.396s-.014-.057-.085-.256c-.063-.177-.375-.724-.45-.852-.126.467-.176.783-.13.86.087.149.171.406.245.69.166.64.282 1.419.282 1.419l.01.13c-.023.538-.01 1.096.032 1.6.055.666.16 1.239.291 1.545l.09-.049c-.194-.604-.273-1.395-.238-2.308.052-1.395.373-3.078.966-4.831 1.002-2.647 2.393-4.771 3.666-5.786-1.16 1.048-2.73 4.439-3.2 5.694-.526 1.407-.9 2.726-1.124 3.99.388-1.185 1.641-1.694 1.641-1.694s.615-.759 1.334-1.842c-.43.098-1.137.266-1.374.366-.35.146-.443.196-.443.196s1.13-.689 2.101-1c1.335-2.103 2.79-5.09 1.325-6.396-.6-.535-1.327-.32-2.044.317z"/></g></svg>