<svg xmlns="http://www.w3.org/2000/svg" width="16" height="16" viewBox="0 0 16 16"><rect id="frame" width="16" height="16" fill="none"/><g fill="none" fill-rule="evenodd"><path fill="#6E6E6E" d="M7.277 8.451L4.843 9.525l-.68.18a19.683 19.683 0 0 1-1.123.979c-.172.135-.425.39-.554.55-.193.24-.345.497-.41.693-.117.356-.06.715.164 1.047.288.423.861.854 1.53 1.148.34.15.913.343 1.344.45.717.182 2.104.379 2.867.409.154.006.362.006.37 0 .017-.011.135-.237.273-.518.47-.958.807-1.857.991-2.624.11-.466.197-1.085.254-1.819.015-.205.021-.892.009-1.125a7.9 7.9 0 0 0-.106-.991c-.009-.045-.01-.085-.006-.087.008-.006.033-.015.378-.114l-.07-.165-2.797.913zm2.104-.539c.059 0 .12.375.182 1.125-.822-.45-1.254-.691-1.297-.725-.02-.015-.019-.017.155-.076l.96-.324zm.077 1.449c.053.022-.52.302-1.72.839l.117-1.78c.9.554 1.434.867 1.603.94zm-2.027-.867c.062.062-.092 1.536-.063 1.506-.008.01-.814-1.267-.808-1.273.034-.023.809-.296.871-.233zm-1.133.543s.291.44.87 1.321A504.82 504.82 0 0 1 5.296 11c-.013.004.321-.65 1.002-1.963zm-.54.175c.007.005-1 1.883-.876 1.718-.011.015-.193-.22-.225-.388a1.974 1.974 0 0 1 .01-.63c.028-.13.026-.129.09-.16.18-.092.514-.272 1.002-.54zm3.8.588l-.131 1.22L8 10.497c.01-.01.529-.241 1.558-.697zm-5.33.28a2.995 2.995 0 0 0-.022.226c-.017.308.113.448.265.76.028.059.053.112.074.162l-2.004.546c-.015.005.328-.595.658-.938.22-.228 1.006-.84 1.032-.848.007.01.006.04-.002.091zm3.385.496a.853.853 0 0 1 .114.062 6.37 6.37 0 0 0 1.62.63l.049.01-.068.038c-.281.157-1.205.542-2.15.895-.138.05-.273.101-.299.112a.153.153 0 0 1-.048.015c0-.003.038-.077.086-.167.265-.495.531-1.098.666-1.517.017-.04.028-.076.03-.078zm-.336.11a.609.609 0 0 1-.036.097 13.39 13.39 0 0 1-.734 1.478c-.078.14-.144.252-.146.252-.002 0-.065-.038-.141-.084-.449-.275-.846-.614-1.106-.941l-.038-.047.192-.053c.69-.188 1.275-.39 1.857-.64a5.58 5.58 0 0 1 .152-.062zM9.14 12.32c-.049.176-.137.412-.265.71a107.917 107.917 0 0 1-2.174-.338c-.002-.002.6-.165 1.224-.408.666-.259 1.417-.599 1.42-.599a9.19 9.19 0 0 0-.205.635zm-6.037.913c-.063-.052-.192-.125-.374-.33-.144-.162-.27-.369-.29-.465-.024-.101-.024-.152-.003-.158.032-.009 2.104-.698 2.106-.698.003.002-.477.553-1.44 1.651zm1.735-1.406l.067.076c.305.34.407.45.784.67a.555.555 0 0 1 .114.074c-.015.01-1.124.47-1.722.677-.336.118-.613.213-.615.213a.364.364 0 0 1-.043-.027l-.038-.028.062-.088c.132-.192.596-.714 1.39-1.567zm1.725 1.209c-.01.01 1.81.353 2.117.379.046.004.072.008.063.015-.015.008-3.197.824-3.197.851 0 .027 1.017-1.243 1.017-1.245zm-.435-.133c.001.002-.367.415-1.104 1.24-.764-.217-1.131-.33-1.103-.336-.021.01 2.205-.906 2.207-.904zm2.425.905c.01.02-.436.872-.45.87a381.76 381.76 0 0 1-1.98-.225c1.58-.424 2.39-.64 2.43-.645zM7.19 1.017c-.046-.006-.797.264-1.281.461-.653.266-1.16.52-1.474.74-.116.083-.262.228-.285.285a.198.198 0 0 0-.013.072l.283.269.675.216 1.605.287 1.835.315.019-.158c-.006 0-.01-.003-.017-.003l-.24-.038-.05-.086a16.36 16.36 0 0 1-.685-1.353 6.994 6.994 0 0 1-.308-.853c-.036-.143-.04-.152-.064-.154zm.129 1.186c-.288.078-1.772-.289-1.772-.29a36.186 36.186 0 0 1 1.465-.577c.004.002.344.856.307.867zm-1.974-.105c.206.07.68.213 1.135.297.538.1.908.079.996.079.002 0-.18.153-.39.288-.206.132-.678.39-.687.39-.008 0-.052-.008-.099-.014v-.013l-.955-1.027zm-.311.15c.417.445.637.683.661.712.036.045.066.08.064.083a9.268 9.268 0 0 1-1.123-.25l-.116-.038-.093-.03c.001-.094.204-.253.607-.477zm2.512.613c.008 0 .24.446.295.528.017.028.167.03-.13-.019-.717-.116-.87-.067-.843-.082.223-.123.688-.416.678-.427z"/><path fill="#F26522" d="M4.137 2.658c.028.067.133.15.224.235 0 0 .941.917 1.055 1.048.52.6.747 1.193.768 2.009.012.524-.087.985-.334 1.52-.44.96-1.368 2.02-2.8 3.195l.21-.07c.135-.101.319-.209.75-.446.996-.545 2.117-1.046 3.491-1.562 1.98-.745 5.233-1.616 7.085-1.9l.193-.029-.03-.046a6.519 6.519 0 0 0-.425-.599 5.08 5.08 0 0 0-1.501-1.25c-.829-.462-1.9-.824-3.258-1.092-.256-.051-.819-.148-1.275-.218-.969-.15-1.595-.254-2.284-.372a23.869 23.869 0 0 1-.863-.159 5.479 5.479 0 0 1-.56-.15c-.152-.06-.372-.118-.418-.298 0 0-.072.074-.028.184zm1.474.679c.01.01.124.302.344.878-.001 0-.1-.15-.403-.49-.3-.34-.552-.601-.552-.572.397.112.6.174.61.184zm1.557.272l-.932.749c-.166-.63-.249-.946-.249-.95.009.002.402.07 1.18.201zm.572 1.436a91.402 91.402 0 0 1-1.345-.402c0-.012 1.167-1.01 1.186-1.004l.159 1.406zM8.998 3.88c.294.057.721.146.746.156.013.005-.031.03-.173.093a9.178 9.178 0 0 0-1.385.753 6.653 6.653 0 0 1-.2.131c-.003 0-.005-.061-.005-.135 0-.402-.08-.808-.228-1.15a.32.32 0 0 1-.026-.068c.007-.006.876.144 1.271.22zm.93.503c-.076.315-.28.783-.532 1.222a1.394 1.394 0 0 1-.09.144.902.902 0 0 1-.126-.068 6.885 6.885 0 0 0-.829-.406c-.085-.035-.159-.065-.16-.07-.015-.012.665-.462 1.025-.678.285-.173.75-.431.759-.423a1.59 1.59 0 0 1-.047.28zm2.07.438l.077.035.077.035-.108.025c-.91.21-1.378.37-2.128.674a1.565 1.565 0 0 1-.12.047.545.545 0 0 1 .044-.108c.15-.32.323-.75.516-1.287.846.273 1.393.466 1.641.579zm-4.558.547c0 .002-.321.318-.963.948-.056-.87-.084-1.306-.082-1.307.696.231 1.045.351 1.045.36zm4.816-.004c-.084.121-.566.66-1.444 1.616a33.204 33.204 0 0 0-.915-.8 4.938 4.938 0 0 0-.157-.126.236.236 0 0 1-.042-.036c0-.007.36-.115.632-.225a21.455 21.455 0 0 1 1.618-.554c.255-.08.528-.186.532-.181-.09.12-.164.223-.224.306zm.508-.197c.428.31.774.595 1.04.855.111.11.373.402.37.404-.129 0-1.096.207-2.903.621-.015-.02.012-.064.08-.13.43-.414.9-.997 1.413-1.75zm-4.318.612c.19.095.476.247.49.26.003.002-.099.055-.223.116-.398.199-1.28.715-1.282.715-.008 0 .563-1.33.57-1.33.158.09.307.17.445.239zM7.011 7.028l-.51-.28c.764-.776 1.15-1.162 1.153-1.157.005.004-.21.483-.643 1.437zm3.046-.14c.08.067.212.174.394.322l-2.48.87c.619-.755 1.05-1.316 1.296-1.684l.074-.114.716.607zm-1.684.147c-.208.275-.959 1.237-.963 1.24-.006.001-.245-.853-.235-.864.04-.036.656-.467 1.045-.677.262-.14.672-.346.679-.342.004.004-.353.412-.526.643zm-1.989.012c.005 0 .11.063.316.188-.575.588-.856.872-.842.85.14-.213.522-1.038.526-1.038zm.628 1.332c-.692.28-1.145.468-1.361.567-.091.042-.613.288-.533.228.632-.458 1.61-1.516 1.713-1.568l.18.773z"/></g></svg>