<svg xmlns="http://www.w3.org/2000/svg" width="16" height="16" viewBox="0 0 16 16"><rect id="frame" width="16" height="16" fill="none"/><path fill="#5D87A1" d="M3.164 8.846a1.187 1.187 0 0 1-1.683 0 1.187 1.187 0 0 1 0-1.682l2.755-2.756.737.737L2.2 7.919l.207.21 2.774-2.776.74.739-2.757 2.754M5.31 7.135a1.19 1.19 0 1 1 1.683 1.682l-2.756 2.755-.737-.736 2.777-2.774-.21-.21-2.774 2.775-.74-.738L5.31 7.135m3.573 5.717a1.19 1.19 0 0 1-1.684 1.68l-2.754-2.755.737-.735 2.774 2.774.21-.209-2.776-2.775.737-.737 2.756 2.757m-1.713-2.146a1.19 1.19 0 0 1 0-1.682 1.186 1.186 0 0 1 1.684 0l2.756 2.754-.738.737L8.095 9.74l-.208.208 2.774 2.774-.736.737-2.756-2.754m3.573-1.86A1.19 1.19 0 0 1 9.06 7.163l2.756-2.756.737.737-2.775 2.775.209.208 2.774-2.774.738.737-2.757 2.756m2.147-1.713a1.19 1.19 0 1 1 1.682 1.683l-2.755 2.754-.738-.737 2.775-2.775-.208-.206-2.774 2.772-.738-.735 2.756-2.756m-4.007-1.86a1.19 1.19 0 1 1-1.684 1.684L4.444 4.2l.737-.739 2.774 2.775.21-.207-2.776-2.774.737-.739 2.756 2.756M7.169 3.128a1.19 1.19 0 0 1 1.684-1.683L11.609 4.2l-.738.736-2.776-2.775-.208.21 2.774 2.775-.736.734-2.756-2.753"/></svg>