<svg xmlns="http://www.w3.org/2000/svg" width="16" height="16" viewBox="0 0 16 16"><rect id="frame" width="16" height="16" fill="none"/><g fill="none" fill-rule="evenodd"><path fill="#40B6E0" fill-opacity=".6" d="M2 7h7v7H2z"/><path fill="#9AA7B0" d="M11.994 3.8V7c0 .551-.448 1-1 1h-1v1h1c1.1 0 2-.9 2-2V3.8h-1z"/><path fill="#9AA7B0" d="M12.507 1.6a.9.9 0 1 0 0 1.8.9.9 0 0 0 0-1.8m1.5.9a1.5 1.5 0 1 1-3 0 1.5 1.5 0 0 1 3 0"/><path fill="#40B6E0" d="M1 7h9V6H1z"/><path fill="#9AA7B0" d="M15.244 2.508A2.756 2.756 0 0 1 13.659 5h1.299a3.507 3.507 0 0 0-.021-5h-1.312a2.759 2.759 0 0 1 1.619 2.508m-5.488.003c0-1.117.667-2.077 1.619-2.51h-1.31a3.5 3.5 0 0 0-1.06 2.51A3.503 3.503 0 0 0 10.043 5h1.3a2.758 2.758 0 0 1-1.586-2.49"/><path fill="#40B6E0" d="M1 15h9v-1H1z"/><path fill="#40B6E0" d="M1 13h9v-1H1z"/><path fill="#40B6E0" d="M1 11h9v-1H1z"/><path fill="#40B6E0" d="M1 9h9V8H1z"/></g></svg>