<svg xmlns="http://www.w3.org/2000/svg" width="16" height="16" viewBox="0 0 16 16"><rect id="frame" width="16" height="16" fill="none"/><path fill="#935E2D" fill-opacity=".7" fill-rule="evenodd" d="M8.18 13.58c1.276-1.586.82-3.619-.698-5.138-1.52-1.519-3.553-1.976-5.139-.699L8.18 13.58zm-.6.601c-1.587 1.277-3.619.821-5.138-.699C.922 11.963.466 9.93 1.743 8.345l5.836 5.836zm6.6-6.6c1.276-1.587.82-3.62-.698-5.139C11.962.923 9.93.466 8.343 1.743L14.18 7.58zm-.6.6c-1.587 1.277-3.619.821-5.138-.699-1.52-1.519-1.976-3.552-.699-5.137l5.836 5.836z"/></svg>