<svg xmlns="http://www.w3.org/2000/svg" width="16" height="16" viewBox="0 0 16 16"><rect id="frame" width="16" height="16" fill="none"/><g fill="none" fill-rule="evenodd"><g fill="#9AA7B0"><path d="M13.092 9.3l-2.357-2.357L5 12.647v2.357h2.357z"/><path d="M15.056 7.336c.253-.252.253-.926 0-1.178l-1.178-1.179c-.252-.252-.926-.252-1.179 0l-1.178 1.179 2.357 2.357 1.178-1.179z"/></g><path fill="#62B543" d="M9.092 5.3L6.735 2.943 1 8.647v2.357h2.357z"/><path fill="#9AA7B0" d="M11.056 3.336c.253-.252.253-.926 0-1.178L9.878.979c-.252-.252-.926-.252-1.179 0L7.521 2.158l2.357 2.357 1.178-1.179z"/></g></svg>