<svg ti:v="1" width="16" height="16" viewBox="0 0 16 16" xmlns="http://www.w3.org/2000/svg" xmlns:ti="urn:schemas-jetbrains-com:tisvg"><rect id="frame" width="16" height="16" fill="none"/><linearGradient id="a" x1=".5" y1="-.007" x2=".5" y2=".993"><stop offset="0" stop-color="#6689BF"/><stop offset="1" stop-color="#405980"/></linearGradient><path fill-rule="evenodd" d="M8.382 3l1 2H0v4l2.565-.044C2.193 9.716 2 10.56 2 11.297V14h4v-2.313C6 10.331 7.362 9 8.75 9h.632l-1 2h3.532l4-4-4-4H8.382z" fill="url(#a)"/><linearGradient id="b" x1=".5" y1=".028" x2=".5" y2="1.028"><stop offset="0" stop-color="#8CD4FF"/><stop offset=".994" stop-color="#21A1FF"/><stop offset="1" stop-color="#21A1FF"/></linearGradient><path fill-rule="evenodd" d="M10 4l1 2H1v2l3.891-.11C3.75 8.391 3 9.967 3 11.297V13h2v-1.313C5 9.755 6.817 8 8.75 8H11l-1 2h1.5l3-3-3-3H10z" fill="url(#b)"/></svg>