<svg ti:v="1" width="16" height="16" viewBox="0 0 16 16" xmlns="http://www.w3.org/2000/svg" xmlns:ti="urn:schemas-jetbrains-com:tisvg"><rect id="frame" width="16" height="16" fill="none"/><linearGradient id="a" x1=".5" y1=".017" x2=".5" y2="1.017"><stop offset="0" stop-color="#465B5D"/><stop offset="1" stop-color="#1A7585"/></linearGradient><path fill-rule="evenodd" d="M4.213 1.516l-.208.095v1.602L6.18 5.414l-.79.773-2.197-2.183H1.61l-.102.223a5.443 5.443 0 0 0-.503 2.277c0 3.034 2.467 5.5 5.499 5.5a5.39 5.39 0 0 0 1.615-.249l3.672 3.66a2 2 0 0 0 1.42.585 2 2 0 0 0 1.408-.572l.783-.766c.382-.374.594-.874.598-1.41a1.983 1.983 0 0 0-.577-1.419L11.75 8.134c.17-.532.255-1.079.255-1.63 0-3.033-2.467-5.5-5.501-5.5-.783 0-1.555.172-2.291.512z" fill="url(#a)"/><linearGradient id="b" x1=".5" y1=".029" x2=".5" y2="1"><stop offset="0" stop-color="#BFFFE6"/><stop offset="1" stop-color="#A8D7DF"/></linearGradient><path fill-rule="evenodd" d="M4.627 2.428L7.592 5.43 5.38 7.595 2.413 4.647A4.454 4.454 0 0 0 2 6.508a4.5 4.5 0 0 0 4.5 4.5 4.47 4.47 0 0 0 1.861-.414l4.131 4.117c.39.388 1.03.39 1.423.006l.782-.766a.995.995 0 0 0 .01-1.41L10.58 8.383c.263-.573.42-1.203.42-1.875a4.5 4.5 0 0 0-4.5-4.5 4.45 4.45 0 0 0-1.873.42z" fill="url(#b)"/></svg>