<svg xmlns="http://www.w3.org/2000/svg" width="16" height="16" viewBox="0 0 16 16"><rect id="frame" width="16" height="16" fill="none"/><g fill="none" fill-rule="evenodd"><path fill="#F26522" fill-opacity=".6" d="M7.024 3H13v10H3V7.432a3.04 3.04 0 0 0 1.25.268c1.248 0 2.173-.558 2.774-1.675L6 5H4.012L4 4h2l1.024-1z"/><path fill="#231F20" fill-opacity=".7" d="M2 4.501C2 3 2.931 2 4.256 2c.946 0 1.294.311 1.713.753l-.542.674C5.077 3.068 4.75 3 4.25 3 3.418 3 3 3.738 3 4.487 3 5.237 3.412 6 4.25 6c.537 0 .802-.107 1.177-.494L6 6.144C5.544 6.669 5.197 7 4.225 7 2.949 7 2 6.002 2 4.501z"/></g></svg>