<svg xmlns="http://www.w3.org/2000/svg" width="16" height="16" viewBox="0 0 16 16"><rect id="frame" width="16" height="16" fill="none"/><g fill="none" fill-rule="evenodd"><path fill="#F26522" fill-opacity=".6" d="M10 13H5.64A2.3 2.3 0 0 0 7 10.9v-.4a2.3 2.3 0 0 0-2.3-2.3H3v-.768a3.04 3.04 0 0 0 1.25.268c1.248 0 2.173-.558 2.774-1.675L6 5H4.012L4 4h2l1.024-1H13v5H8.5v3H10v2z"/><path fill="#231F20" fill-opacity=".7" d="M2 4.501C2 3 2.931 2 4.256 2c.946 0 1.294.311 1.713.753l-.542.674C5.077 3.068 4.75 3 4.25 3 3.418 3 3 3.738 3 4.487 3 5.237 3.412 6 4.25 6c.537 0 .802-.107 1.177-.494L6 6.144C5.544 6.669 5.197 7 4.225 7 2.949 7 2 6.002 2 4.501z"/><path fill="#231F20" fill-opacity=".7" d="M3.9 11.5c.664 0 1.1-.116 1.1-.75S4.557 10 3.9 10H3v1.5h.9zM2 9h1.971C5.142 9 6 9.642 6 10.65c0 1.636-1.029 1.85-2.128 1.85H3V14H2V9z"/><path fill="#231F20" fill-opacity=".7" d="M11 10H9.5V9h4v1H12v4h-1z"/></g></svg>