<svg xmlns="http://www.w3.org/2000/svg" width="16" height="16" viewBox="0 0 16 16"><rect id="frame" width="16" height="16" fill="none"/><g fill="none" fill-rule="evenodd"><path fill="#F26522" fill-opacity=".6" d="M10 13H5.64A2.3 2.3 0 0 0 7 10.9v-.4a2.3 2.3 0 0 0-2.3-2.3H3V3h10v5H8.5v3H10v2z"/><path fill="#231F20" fill-opacity=".7" d="M3.9 11.5c.664 0 1.1-.116 1.1-.75S4.557 10 3.9 10H3v1.5h.9zM2 9h1.971C5.142 9 6 9.642 6 10.65c0 1.636-1.029 1.85-2.128 1.85H3V14H2V9z"/><path fill="#231F20" fill-opacity=".7" d="M11 10H9.5V9h4v1H12v4h-1z"/></g></svg>