<svg xmlns="http://www.w3.org/2000/svg" width="16" height="16" viewBox="0 0 16 16"><rect id="frame" width="16" height="16" fill="none"/><g fill="none" fill-rule="evenodd"><path fill="#40B6E0" fill-opacity=".7" d="M1 16h15V9H1z"/><path fill="#9AA7B0" fill-opacity=".8" d="M7 1L3 5h4z"/><path fill="#9AA7B0" fill-opacity=".8" d="M8 1v5H3v2h10V1z"/><path fill="#231F20" fill-opacity=".7" d="M2 10h.936L4.5 12l1.479-2H7v5H6v-3.3l-1.5 1.8L3 11.7V15H2z"/><path fill="#231F20" fill-opacity=".7" d="M9 11v3h.649c.929 0 1.351-.507 1.351-1.485V12.5c0-.978-.422-1.5-1.351-1.5H9zm-1-1h1.649C11.04 10 12 11.093 12 12.5c0 1.421-.96 2.5-2.351 2.5H8v-5z"/></g></svg>