<svg xmlns="http://www.w3.org/2000/svg" width="16" height="16" viewBox="0 0 16 16">
  <path fill="#C79955" fill-rule="evenodd" d="M3,14 L3,2 L8.38285714,2 C9.75428571,2 10.8342857,2.37714286 11.52,3.06285714 C12.0514286,3.59428571 12.3257143,4.26285714 12.3257143,5.05142857 L12.3257143,5.08571429 C12.3257143,6.52571429 11.5028571,7.29714286 10.6114286,7.76 C12.0171429,8.24 12.9942857,9.04571429 12.9942857,10.6742857 L12.9942857,10.7085714 C12.9942857,12.8514286 11.2285714,14 8.55428571,14 L3,14 Z M10.2171429,5.42857143 L10.2171429,5.39428571 C10.2171429,4.45142857 9.46285714,3.86857143 8.10857143,3.86857143 L5.07428571,3.86857143 L5.07428571,7.05714286 L7.95428571,7.05714286 C9.30857143,7.05714286 10.2171429,6.52571429 10.2171429,5.42857143 Z M10.8857143,10.4514286 C10.8857143,9.44 10.08,8.84 8.41714286,8.84 L5.07428571,8.84 L5.07428571,12.1314286 L8.57142857,12.1314286 C9.99428571,12.1314286 10.8857143,11.5657143 10.8857143,10.4857143 L10.8857143,10.4514286 Z"/>
</svg>
