<svg xmlns="http://www.w3.org/2000/svg" width="16" height="16" viewBox="0 0 16 16"><rect id="frame" width="16" height="16" fill="none"/><path fill="#C79955" fill-rule="evenodd" d="M3 14V2h5.383c1.371 0 2.451.377 3.137 1.063.531.531.806 1.2.806 1.988v.035c0 1.44-.823 2.211-1.715 2.674 1.406.48 2.383 1.286 2.383 2.914v.035c0 2.142-1.765 3.291-4.44 3.291H3zm7.217-8.571v-.035c0-.943-.754-1.525-2.108-1.525H5.074v3.188h2.88c1.355 0 2.263-.531 2.263-1.628zm.669 5.022c0-1.011-.806-1.611-2.469-1.611H5.074v3.291h3.497c1.423 0 2.315-.565 2.315-1.645v-.035z"/></svg>