<svg xmlns="http://www.w3.org/2000/svg" width="16" height="16" viewBox="0 0 16 16"><rect id="frame" width="16" height="16" fill="none"/><g fill="#62B543" fill-opacity=".7" fill-rule="evenodd"><path d="M13.505 5.216a3.377 3.377 0 0 0-.331-.016c-1.362 0-3.19.728-4.567 1.93.218-1.021.47-1.879.822-2.69.318-.731.739-1.32 1.263-1.768-1.24.985-2.07 2.349-2.487 4.092l-.119.501C6.84 5.988 5.023 5.2 3.7 5.2c-.069 0-.136.002-.2.006a5.5 5.5 0 0 1 10.005.01z"/><path d="M8.114 8.483C9.32 6.848 11.503 5.8 13.027 5.8c2.21 0 2.2 2.215 1.7 4.7-.5 2.485-1.89 4.5-4.1 4.5-.896 0-1.624-.164-2.174-.56A70.733 70.733 0 0 0 12.1 11.2c1.3-1.233 2.067-2.633 2.3-4.2-.126.678-.426 1.337-.9 1.978-.711.961-1.59 1.805-2.8 2.822-.6.504-1.287 1.038-2.063 1.603a15.527 15.527 0 0 1-1.256-.78c-.377-.26-.738-.534-1.081-.823-1.21-1.017-2.089-1.86-2.8-2.822-.474-.64-.774-1.3-.9-1.978.233 1.567 1 2.967 2.3 4.2a58.746 58.746 0 0 0 3.259 2.891c-.574.65-1.435.909-2.559.909-2.21 0-3.6-2.015-4.1-4.5C1 8.015.99 5.8 3.2 5.8c1.525 0 3.707 1.048 4.914 2.683zM7.9 13.88l.024.033.009-.006-.033-.027z"/></g></svg>