<svg xmlns="http://www.w3.org/2000/svg" xmlns:xlink="http://www.w3.org/1999/xlink" width="16" height="16" viewBox="0 0 16 16"><rect id="frame" width="16" height="16" fill="none"/><defs><path id="a" d="M0 0h8v14H0z"/></defs><g fill="none" fill-rule="evenodd"><path fill="#9AA7B0" fill-opacity=".8" d="M3 3.106A6.974 6.974 0 0 0 1 8c0 1.905.764 3.63 2 4.894v-9.79zm10 0v9.789A6.974 6.974 0 0 0 15 8a6.972 6.972 0 0 0-2-4.895"/><g transform="translate(4 1)"><mask id="b" fill="#fff"><use xlink:href="#a"/></mask><g mask="url(#b)"><path fill="#F98B9E" fill-opacity=".6" d="M11 7A7 7 0 1 1-3 7a7 7 0 0 1 14 0"/><path fill="#231F20" fill-opacity=".7" d="M7.992 7c0-.749-.357-2-2.01-2-.87 0-1.324.502-1.383.6C4.284 5.194 3.944 5 3.1 5c-.468 0-.835.1-1.1.3V5H1v5h1c-.033-1.844-.033-2.844 0-3 .05-.234.05-1 1-1s.999.537 1 1v3h1V7c0-.314-.04-1 .982-1s1.022.74 1.023 1v3h.992l-.005-3z"/></g></g></g></svg>