<svg xmlns="http://www.w3.org/2000/svg" xmlns:xlink="http://www.w3.org/1999/xlink" width="16" height="16" viewBox="0 0 16 16"><rect id="frame" width="16" height="16" fill="none"/><defs><path id="a" d="M0 0h8v14H0z"/></defs><g fill="none" fill-rule="evenodd"><path fill="#9AA7B0" fill-opacity=".8" d="M3 3.106A6.974 6.974 0 0 0 1 8c0 1.905.764 3.63 2 4.894v-9.79zm10 0v9.789A6.974 6.974 0 0 0 15 8a6.972 6.972 0 0 0-2-4.895"/><g transform="translate(4 1)"><mask id="b" fill="#fff"><use xlink:href="#a"/></mask><g mask="url(#b)"><path fill="#F98B9E" fill-opacity=".6" d="M11 7A7 7 0 1 1-3 7a7 7 0 0 1 14 0"/><path fill="#231F20" fill-opacity=".7" d="M7.992 7c0-.749-.494-2-2.11-2-.79 0-1.384.202-1.783.604C3.699 5.202 3.133 5 2.4 5c-.468 0-.935.133-1.4.4V5H0v5h1C.967 8.156.967 7.156 1 7c.05-.234.25-1 1.2-1s1.299.537 1.3 1v3h1V7c0-.314.26-1 1.282-1s1.222.74 1.223 1v3h.992l-.005-3z"/></g></g></g></svg>