<svg xmlns="http://www.w3.org/2000/svg" width="16" height="16" viewBox="0 0 16 16"><rect id="frame" width="16" height="16" fill="none"/><g fill="none" fill-rule="evenodd"><path fill="#62B543" fill-opacity=".6" d="M15 8A7 7 0 1 1 1 8a7 7 0 0 1 14 0"/><path fill="#231F20" fill-opacity=".7" d="M7.628 6.761c-.155.09-.283.213-.382.363a1.569 1.569 0 0 0-.207.502c-.042.183-.063.37-.063.558 0 .402.073.688.221.874.152.19.357.287.608.287a.803.803 0 0 0 .728-.425c.073-.127.13-.28.168-.456.038-.17.063-.363.072-.57l.07-1.195-.043-.01a2.4 2.4 0 0 0-.598-.067c-.224 0-.416.046-.574.14zm-3.626 1.24c0-4 3.665-4 4.314-4 .335 0 3.684.085 3.684 3.556C12 10.01 10.475 10 10.17 10c-.497-.03-.856-.226-1.077-.589-.41.393-.812.589-1.204.589C7.08 10 6 9.921 6 8c0-1.68 1.456-2 2-2 .153 0 1.745.055 1.824.08l-.08 2.108c-.108.705.055 1.057.49 1.057.722 0 .826-1.462.826-1.698 0-2.64-2.352-2.802-2.744-2.802-.545 0-3.372.106-3.372 3.256 0 .583 0 3.245 2.945 3.245.201 0 1.855-.203 2.273-.418v.75c-.307.125-1.069.422-2.264.422-.742 0-3.896 0-3.896-4z"/></g></svg>