<svg xmlns="http://www.w3.org/2000/svg" width="16" height="16" viewBox="0 0 16 16"><rect id="frame" width="16" height="16" fill="none"/><g fill="none" fill-rule="evenodd"><path fill="#9AA7B0" fill-opacity=".8" d="M15 8a5 5 0 0 0-7.9 5H1V2.051C1 2.023 1.023 2 1.051 2H4.98a2.8 2.8 0 0 1 1.717.711L7.985 4H15v4z"/><path fill="#40B6E0" d="M14.904 12.579l.91.653a3.996 3.996 0 0 1-.835 1.445l-1.02-.46a2.95 2.95 0 0 1-1.006.582l-.111 1.114a4.016 4.016 0 0 1-1.67 0l-.111-1.114a2.95 2.95 0 0 1-1.006-.582l-1.02.46a3.996 3.996 0 0 1-.835-1.445l.91-.653a2.968 2.968 0 0 1 0-1.158l-.91-.653a3.996 3.996 0 0 1 .835-1.445l1.02.46a2.95 2.95 0 0 1 1.006-.582l.11-1.114a4.016 4.016 0 0 1 1.67 0l.112 1.114a2.95 2.95 0 0 1 1.006.582l1.02-.46c.372.413.66.904.835 1.445l-.91.653a2.968 2.968 0 0 1 0 1.158zm-2.897.837a1.415 1.415 0 1 0 0-2.831 1.415 1.415 0 0 0 0 2.83z"/></g></svg>