<svg xmlns="http://www.w3.org/2000/svg" width="16" height="16" viewBox="0 0 16 16"><rect id="frame" width="16" height="16" fill="none"/><g fill="none" fill-rule="evenodd"><path fill="#40B6E0" fill-opacity=".6" d="M15 8A7 7 0 1 1 1 8a7 7 0 0 1 14 0"/><path fill="#231F20" fill-opacity=".7" d="M11.823 5.59l-1.737 1.738-1.414-1.414 1.738-1.737A2.503 2.503 0 0 0 9.5 4 2.5 2.5 0 0 0 7 6.5c0 .322.066.627.177.91l-3.005 3.004 1.414 1.414 3.006-3.005c.281.11.586.177.908.177A2.5 2.5 0 0 0 12 6.5c0-.322-.067-.627-.177-.91"/></g></svg>