<svg xmlns="http://www.w3.org/2000/svg" width="16" height="16" viewBox="0 0 16 16"><rect id="frame" width="16" height="16" fill="none"/><g fill="none" fill-rule="evenodd"><path fill="#9AA7B0" d="M8 1a7 7 0 1 0 0 14A7 7 0 0 0 8 1m0 1c3.309 0 6 2.691 6 6s-2.691 6-6 6-6-2.691-6-6 2.691-6 6-6"/><path fill="#D9A343" d="M7.5 4c-.722 0-1.395.166-2 .434C6.977 5.09 8 6.434 8 8c0 1.566-1.023 2.91-2.5 3.566a4.921 4.921 0 0 0 2 .434c2.485 0 4.5-1.791 4.5-4S9.985 4 7.5 4"/><path fill="#D9A343" d="M9 5.143L7 4l2-1z"/><path fill="#D9A343" d="M10 13l-2-1.143 2-1z"/><path fill="#D9A343" d="M13 11l-2-2.286V7.286L13 5l-.571 3z"/><path fill="#D9A343" d="M4.5 8a.5.5 0 1 1 0-1 .5.5 0 0 1 0 1m-.102-2.887C3.54 5.841 3 6.862 3 8c0 .348.065.679.16 1H4.5c.275 0 .5.225.5.5s-.225.5-.5.5h-.866c.214.324.46.629.764.887C5.892 10.545 7 9.387 7 8S5.892 5.455 4.398 5.113"/></g></svg>