<svg xmlns="http://www.w3.org/2000/svg" width="16" height="16" viewBox="0 0 16 16"><rect id="frame" width="16" height="16" fill="none"/><g fill="#D9A343" fill-rule="evenodd"><path d="M15 12l-3-3V7l3-3-1 4z"/><path d="M7 3.022c-.883 0-1.719.162-2.474.447C6.576 4.26 8 5.986 8 7.989c0 2.022-1.448 3.76-3.526 4.544A7.004 7.004 0 0 0 7 13c3.313 0 6-2.234 6-4.99 0-2.756-2.687-4.99-6-4.99"/><path d="M8 12.707L10 11l1 4z"/><path d="M4 8a1 1 0 1 1 0-2 1 1 0 0 1 0 2m3-.011c0-1.86-1.612-3.415-3.776-3.853C1.868 5.05 1 6.445 1 8.011c0 .339.042.67.119.989H3.5c.275 0 .5.226.5.5 0 .275-.225.5-.5.5H1.499a5.204 5.204 0 0 0 1.678 1.855C5.365 11.431 7 9.864 7 7.989"/><path d="M9 4L7 3l2-2z"/></g></svg>