<svg xmlns="http://www.w3.org/2000/svg" width="16" height="16" viewBox="0 0 16 16"><rect id="frame" width="16" height="16" fill="none"/><g fill="#9AA7B0" fill-rule="evenodd"><path d="M5.99 13c.238.37.523.706.847 1H1V2h14v6.895a4.99 4.99 0 0 0-1-1.845V5h-3v.364a5.036 5.036 0 0 0-1-.06V5H6v2h.444a4.981 4.981 0 0 0-1.195 4H2v-1h3V8H2v5h3.99zM5 7V5H2v2h3z"/><path d="M11.914 12.986l1.038-1.038 2.943 2.943-1.038 1.038z"/><path d="M10.233 14.167a3.833 3.833 0 1 1 0-7.667 3.833 3.833 0 0 1 0 7.667zm0-1.334a2.5 2.5 0 1 0 0-5 2.5 2.5 0 0 0 0 5z"/></g></svg>