<svg xmlns="http://www.w3.org/2000/svg" width="16" height="16" viewBox="0 0 16 16"><rect id="frame" width="16" height="16" fill="none"/><g fill="none" fill-rule="evenodd"><path fill="#3C3C3C" fill-rule="nonzero" d="M2 2h12v12H2z"/><path fill="#FFF" fill-rule="nonzero" d="M3 12h5v1H3z"/><path fill="#FFF" fill-rule="nonzero" d="M3 3h3v1.2H3z"/><path fill="#FFF" fill-rule="nonzero" d="M4 4h1v6H4z"/><path fill="#FFF" fill-rule="nonzero" d="M3 8.8h3V10H3z"/><path fill="#FFF" d="M7.444 8.023c.287.35.853.677 1.415.677.657 0 .891-.677.891-1.083V3H11v5.023C11 9.047 10.208 10 9.062 10 7.622 10 7.139 9.568 6.7 8.947l.744-.924z"/></g></svg>