<svg xmlns="http://www.w3.org/2000/svg" xmlns:xlink="http://www.w3.org/1999/xlink" width="16" height="16" viewBox="0 0 16 16"><rect id="frame" width="16" height="16" fill="none"/><defs><path id="a" d="M14.777 6.24a3.485 3.485 0 0 0-1.117-.236 6 6 0 1 0-2.16 6.87v1.19a7 7 0 1 1 3.277-7.823z"/></defs><g fill="none" fill-rule="evenodd"><path fill="#9AA7B0" d="M12.667 11.854A2.496 2.496 0 0 1 11 9.5C11 8.12 12.12 7 13.5 7S16 8.12 16 9.5a2.496 2.496 0 0 1-1.667 2.354V13.5H16V15h-1.667v1h-1.666v-4.146zM14.333 9.5a.836.836 0 0 0-.833-.833.836.836 0 0 0-.833.833c0 .458.375.833.833.833a.836.836 0 0 0 .833-.833z"/><use fill="#9AA7B0" fill-opacity=".8" xlink:href="#a"/><path fill="#40B6E0" fill-opacity=".6" d="M12.63 6.109a3.501 3.501 0 0 0-1.601 5.87 5 5 0 1 1 1.601-5.87z"/></g></svg>