<svg xmlns="http://www.w3.org/2000/svg" width="16" height="16" viewBox="0 0 16 16"><rect id="frame" width="16" height="16" fill="none"/><g fill="none" fill-rule="evenodd"><path fill="#F4AF3D" fill-opacity=".6" d="M15 8A7 7 0 1 1 1 8a7 7 0 0 1 14 0"/><path fill="#231F20" fill-opacity=".7" d="M7.4 9.884v-1.6c-1.42-.299-2.08-.804-2.08-1.609v-.017c0-.763.849-1.351 2.08-1.486V4h1.2v1.17a5.148 5.148 0 0 1 2.16.655l-.526.714A4.51 4.51 0 0 0 8.6 5.98v1.639c1.64.28 2.4.836 2.4 1.653 0 .898-.987 1.496-2.4 1.577V12H7.4v-1.193a5.74 5.74 0 0 1-2.4-.84l.56-.802c.59.371 1.163.61 1.84.719zm1.2.063c.885-.02 1.364-.148 1.364-.614 0-.447-.21-.642-1.364-.847v1.461zm-1.2-3.99c-.704.069-1.08.292-1.08.7 0 .388.186.573 1.08.758V5.957z"/></g></svg>