<svg xmlns="http://www.w3.org/2000/svg" width="16" height="16" viewBox="0 0 16 16"><rect id="frame" width="16" height="16" fill="none"/><g fill="#9AA7B0" fill-opacity=".8" fill-rule="evenodd"><path d="M7.984 4L6.696 2.711C6.304 2.32 5.532 2 4.978 2H1.05a.051.051 0 0 0-.05.051V6h1v1l1 .551V6h1v1l1 .551V6h1v1l1 .551V6h1v1l1 .551V6h1v1l1 .551V6h1v1l1 .551V6h1v1l1 .551V4H7.984z"/><path d="M14 9v-.755l-1-.674V9h-1v-.755l-1-.674V9h-1v-.755l-1-.674V9H8v-.755l-1-.674V9H6v-.755l-1-.674V9H4v-.755l-1-.674V9H2v-.755l-1-.674V13h14V9z"/></g></svg>