<svg xmlns="http://www.w3.org/2000/svg" width="16" height="16" viewBox="0 0 16 16"><rect id="frame" width="16" height="16" fill="none"/><g fill="none" fill-rule="evenodd"><path fill="#9AA7B0" fill-opacity=".8" d="M7.984 3L6.696 1.711C6.304 1.32 5.532 1 4.978 1H1.05a.051.051 0 0 0-.05.051V7h14V3H7.984z"/><path fill="#40B6E0" fill-opacity=".7" d="M1 15h15V8H1z"/><path fill="#231F20" fill-opacity=".7" d="M3.395 12.588c.23.25.443.412.892.412.526 0 .713-.412.713-.702V9h1v3.588C6 13.32 5.327 14 4.45 14c-.821 0-1.3-.237-1.65-.68l.595-.732z"/></g></svg>