<svg width="16" height="16" viewBox="0 0 16 16" fill="none" xmlns="http://www.w3.org/2000/svg"><rect id="frame" width="16" height="16" fill="none"/><path fill-rule="evenodd" clip-rule="evenodd" d="M2 13h12V3H2v10z" fill="#F4AF3D" fill-opacity=".6"/><path fill-rule="evenodd" clip-rule="evenodd" d="M9.167 6.802c0-.442.374-.602 1.047-.602H11.6V5h-1.368C8.934 5 8 5.551 8 6.74c0 1.037.503 1.489 1.765 1.76.925.198 1.23.374 1.23.758 0 .383-.429.542-1.23.542H8.36V11h1.405C12.2 11 12.2 9.8 12.2 9.258c0-.759-.576-1.353-1.61-1.682-1.033-.328-1.423-.332-1.423-.774z" fill="#231F20" fill-opacity=".7"/><path fill-rule="evenodd" clip-rule="evenodd" d="M3.674 9.305c.275.3.531.495 1.07.495.632 0 .856-.495.856-.843V5h1.2v4.305C6.8 10.184 5.992 11 4.94 11c-.985 0-1.56-.285-1.98-.816l.714-.879z" fill="#231F20" fill-opacity=".7"/></svg>