<svg width="16" height="16" viewBox="0 0 16 16" fill="none" xmlns="http://www.w3.org/2000/svg"><rect id="frame" width="16" height="16" fill="none"/><path fill-rule="evenodd" clip-rule="evenodd" d="M2 13h12V3H2v10z" fill="#40B6E0" fill-opacity=".6"/><path d="M3.561 10.5c.456 0 .841-.148 1.109-.437.267-.288.43-.725.43-1.31V5.5h-.828v3.225c0 .662-.294.972-.724.972-.385 0-.652-.211-.92-.584l-.528.591c.3.444.757.796 1.461.796z" fill="#231F20" fill-opacity=".7"/><path fill-rule="evenodd" clip-rule="evenodd" d="M9.7 5.5h.749l1.251 2 1.183-2h.817v5h-.8V7.2L11.7 9l-1.2-1.8v3.3h-.8v-5z" fill="#231F20" fill-opacity=".7"/><path d="M7.107 10.5h.686l1.807-5h-.829L7.463 9.316 6.148 5.5H5.3l1.807 5z" fill="#231F20" fill-opacity=".7"/></svg>