<svg xmlns="http://www.w3.org/2000/svg" width="16" height="16" viewBox="0 0 16 16"><rect id="frame" width="16" height="16" fill="none"/><g fill="none" fill-rule="evenodd"><path fill="#9AA7B0" d="M14 15H5v1h11.001v-1z"/><path fill="#9AA7B0" fill-opacity=".8" d="M15 4H7.984L6.696 2.711C6.305 2.32 5.532 2 4.979 2H1.051A.051.051 0 0 0 1 2.051V13h5v-2h9V4z"/><path fill="#9AA7B0" d="M14.929 13H15v-.071z"/><path fill="#62B543" d="M9 13a1 1 0 1 1-2 0 1 1 0 1 1 2 0"/><path fill="#F26522" d="M15 13a1 1 0 1 1-2 0 1 1 0 1 1 2 0"/><path fill="#40B6E0" d="M12 13a1 1 0 1 1-2 0 1 1 0 1 1 2 0"/></g></svg>