<svg xmlns="http://www.w3.org/2000/svg" width="16" height="16" viewBox="0 0 16 16"><rect id="frame" width="16" height="16" fill="none"/><g fill="#9AA7B0" fill-rule="evenodd"><path fill-opacity=".8" d="M6 8h9V4H7.984L6.696 2.711C6.305 2.32 5.532 2 4.979 2H1.051A.051.051 0 0 0 1 2.051V13h5V8z"/><g transform="rotate(90 3.464 11.964)"><path d="M1.23 8.218H.505V6.182c0-.447.742-1.153 2.929-2.629l.407.603c-.962.65-1.683 1.166-2.158 1.546-.231.185-.451.546-.451.48v2.036z"/><path d="M6.769 8.218h.727V6.182c0-.447-.903-1.153-3.09-2.629L4 4.156c.962.65 1.682 1.166 2.158 1.546.23.185.61.546.61.48v2.036z"/><circle cx="4" cy="1.455" r="1.455"/><ellipse cx="4" cy="3.818" rx="1.091" ry="1.2"/><path d="M4 8.218c1.004 0 1.818-.305 1.818-1.309 0-.339-.258-1.054-.727-1.6-.355-.414-.915-.727-1.091-.727-.239 0-.743.289-1.09.727-.452.568-.728 1.343-.728 1.6 0 1.004.814 1.31 1.818 1.31zm-.645-5.372l-.165.708a3.7 3.7 0 0 1-1.576-.775c-.476-.4-.87-.932-1.21-1.595L1.05.852c.57 1.11 1.27 1.754 2.304 1.994z"/><path d="M4.404 2.846l.165.708c1.266-.294 2.127-1.085 2.786-2.37L6.708.852c-.57 1.11-1.27 1.754-2.304 1.994z"/><path d="M.5 3.418h7v.727h-7z"/></g></g></svg>