<svg xmlns="http://www.w3.org/2000/svg" width="16" height="16" viewBox="0 0 16 16"><rect id="frame" width="16" height="16" fill="none"/><g fill="none" fill-rule="evenodd"><path fill="#9AA7B0" d="M14 14H5v1h10.001v-1z"/><path fill="#9AA7B0" fill-opacity=".8" d="M15 4.313V3H7.985L6.697 1.71C6.305 1.32 5.533 1 4.979 1H1.05A.053.053 0 0 0 1 1.05V12h4v-2h4.072L15 4.313z"/><path fill="#62B543" d="M8 12a1 1 0 1 1-2 0 1 1 0 1 1 2 0"/><path fill="#F26522" d="M15 12a1 1 0 1 1-2 0 1 1 0 1 1 2 0"/><path fill="#62B543" d="M14.529 9.082l-1.611-1.611L9 11.368v1.61h1.61z"/><path fill="#9AA7B0" d="M15.87 7.74c.173-.173.173-.633 0-.806l-.804-.805c-.173-.172-.633-.172-.806 0l-.805.805 1.61 1.61.806-.804z"/></g></svg>