<svg xmlns="http://www.w3.org/2000/svg" width="16" height="16" viewBox="0 0 16 16"><rect id="frame" width="16" height="16" fill="none"/><g fill="none" fill-rule="evenodd"><path fill="#9AA7B0" fill-opacity=".8" d="M3 8h12V4H7.984L6.696 2.711C6.305 2.32 5.532 2 4.979 2H1.051A.051.051 0 0 0 1 2.051V13h2V8z"/><path fill="#9AA7B0" d="M4 16h12.001V9H4v7zm1-.999h10.001V11H5v4.001z"/><path fill="#62B543" d="M8 13a1 1 0 1 1-2 0 1 1 0 1 1 2 0"/><path fill="#40B6E0" d="M11 13a1 1 0 1 1-2 0 1 1 0 1 1 2 0"/><path fill="#F26522" d="M14 13a1 1 0 1 1-2 0 1 1 0 1 1 2 0"/></g></svg>