<svg xmlns="http://www.w3.org/2000/svg" width="16" height="16" viewBox="0 0 16 16"><rect id="frame" width="16" height="16" fill="none"/><g fill="none" fill-rule="evenodd"><path fill="#9AA7B0" fill-opacity=".8" d="M7.984 4L6.696 2.711C6.304 2.32 5.532 2 4.978 2H1.05a.051.051 0 0 0-.05.051V13h7V8h7V4H7.984z"/><path fill="#62B543" d="M12 10.5a1.5 1.5 0 1 1-3.001-.001A1.5 1.5 0 0 1 12 10.5"/><path fill="#9AA7B0" d="M16 14.5a1.5 1.5 0 1 1-3.001-.001A1.5 1.5 0 0 1 16 14.5"/><path fill="#40B6E0" d="M16 10.5a1.5 1.5 0 1 1-3.001-.001A1.5 1.5 0 0 1 16 10.5"/><path fill="#F26522" d="M12 14.5a1.5 1.5 0 1 1-3.001-.001A1.5 1.5 0 0 1 12 14.5"/></g></svg>