<svg width="16" height="16" viewBox="0 0 16 16" fill="none" xmlns="http://www.w3.org/2000/svg"><rect id="frame" width="16" height="16" fill="none"/><path d="M13.645 11.91c-.211.49-.462.94-.752 1.354-.396.564-.72.955-.97 1.171-.387.356-.802.539-1.246.55-.319 0-.703-.092-1.151-.276-.45-.183-.862-.274-1.24-.274-.395 0-.82.091-1.274.274-.454.184-.82.28-1.1.29-.427.018-.851-.17-1.275-.564-.27-.236-.609-.64-1.014-1.213a8.394 8.394 0 0 1-1.073-2.13c-.3-.874-.45-1.72-.45-2.539 0-.938.203-1.747.609-2.425.319-.545.744-.975 1.275-1.29a3.43 3.43 0 0 1 1.724-.487c.338 0 .782.105 1.333.31.55.207.903.312 1.058.312.115 0 .508-.123 1.172-.367.63-.226 1.16-.32 1.594-.283 1.178.095 2.063.56 2.652 1.396-1.054.639-1.575 1.532-1.564 2.68.009.893.333 1.636.97 2.226.289.274.61.486.97.636-.078.226-.16.442-.248.65zM10.944 1.28c0 .7-.256 1.354-.766 1.96-.615.718-1.36 1.134-2.166 1.068a2.178 2.178 0 0 1-.016-.265c0-.672.292-1.391.812-1.98.26-.297.59-.545.99-.742.399-.195.776-.303 1.131-.321.01.094.015.187.015.28z" fill="#ABB6BD"/></svg>