<svg xmlns="http://www.w3.org/2000/svg" width="16" height="16" viewBox="0 0 16 16"><rect id="frame" width="16" height="16" fill="none"/><g fill="none" fill-rule="evenodd"><path fill="#F98B9E" fill-opacity=".6" d="M15 8A7 7 0 1 1 1 8a7 7 0 0 1 14 0"/><path fill="#231F20" fill-opacity=".7" d="M11.992 8c0-.749-.494-2-2.11-2-.79 0-1.384.202-1.783.604C7.699 6.202 7.133 6 6.4 6c-.468 0-.935.133-1.4.4V6H4v5h1c-.033-1.844-.033-2.844 0-3 .05-.234.25-1 1.2-1s1.299.537 1.3 1v3h1V8c0-.314.26-1 1.282-1s1.222.74 1.223 1v3h.992l-.005-3z"/><path fill="#231F20" fill-opacity=".7" d="M5 5l2.44-2h.796L11 5H9.663L7.896 3.649 6.331 5z"/></g></svg>