<svg xmlns="http://www.w3.org/2000/svg" width="16" height="16" viewBox="0 0 16 16"><rect id="frame" width="16" height="16" fill="none"/><g fill="none" fill-rule="evenodd"><path fill="#40B6E0" fill-opacity=".6" d="M8 15a7 7 0 1 1 7-7H8v7z"/><path fill="#231F20" fill-opacity=".7" d="M8 11a2.998 2.998 0 0 1-3-3c0-1.642 1.34-3 3.098-3 1.19 0 1.731.27 2.418.837l-.616.717C9.548 6.184 8.948 6 8.1 6 6.971 6 6 6.712 6 8c0 1.238.994 1.974 2 2v1z"/><path fill="#9AA7B0" d="M10 14h1v-2h-1v2zm2 0h1v-2h-1v2zm-2-3h3v-1h-3v1zm4 0h1v-1h-1v1zm-3 0h1v-1h-1v1zm-2 4h7V9H9v6zm5-1h1v-2h-1v2z"/></g></svg>