<svg xmlns="http://www.w3.org/2000/svg" width="16" height="16" viewBox="0 0 16 16"><rect id="frame" width="16" height="16" fill="none"/><g fill="none" fill-rule="evenodd"><path fill="#F4AF3D" fill-opacity=".6" d="M6.232 14.775l-.262-1.082 2.326-2.145v-.763l-3.25-.205-1.1-3.18h-.788l-1.105 3.18-.549.034a7 7 0 1 1 4.728 4.161z"/><path fill="#231F20" fill-opacity=".7" d="M6.997 7.802c0 1.034.242 2.075 1.538 2.075C9.832 9.877 10 8.464 10 7.792c0-.686-.098-2.046-1.476-2.046-1.377 0-1.527 1.023-1.527 2.056zm.008 2.902L6 10.64V5h.997v.746C7.367 5.25 7.94 5 8.717 5 9.88 5 11 5.578 11 7.802s-1.345 2.821-2.284 2.821c-.625 0-1.197-.208-1.716-.623.004.034.006.269.005.704zM7 12.744L6.997 13h-.275l.277-.255z"/><path fill="#9AA7B0" d="M3.5 14.263l-2.163 1.394.658-2.488L0 11.543l2.57-.143L3.5 9l.93 2.4 2.57.143-1.995 1.626.658 2.488z"/></g></svg>