<svg xmlns="http://www.w3.org/2000/svg" width="16" height="16" viewBox="0 0 16 16"><rect id="frame" width="16" height="16" fill="none"/><g fill="none" fill-rule="evenodd"><path fill="#40B6E0" fill-opacity=".6" d="M2.998 9.999a3.006 3.006 0 0 0-2.998 3 3.005 3.005 0 0 0 2.998 2.998 3.006 3.006 0 0 0 3.001-2.998c0-1.652-1.348-3-3.001-3"/><path fill="#9AA7B0" fill-opacity=".8" d="M6.102 15H11v-1H6.544a3.682 3.682 0 0 1-.442 1M5 3.403v3.193C5 7.924 5.957 9 7.137 9H11V1H7.137C5.957 1 5 2.076 5 3.403m-3 6.05V8c0-1.42.566-2 1-2v-.01c0 .322.181.62.467.764l.312.158a.82.82 0 0 0 .721.01V3.078a.816.816 0 0 0-.721.01l-.312.157A.857.857 0 0 0 3 4.01V4C1.9 4 1 6.08 1 8v1.894a3.71 3.71 0 0 1 1-.44"/><path fill="#9AA7B0" fill-opacity=".8" d="M11.5 8H15V7h-3.5z"/><path fill="#9AA7B0" fill-opacity=".8" d="M11.5 3H15V2h-3.5z"/><path fill="#40B6E0" d="M4.15 11.894h-.155c0-.045 0-.09.022-.133l-.09-.091h-.089c-.022-.022-.045-.045-.045-.088l.023-.023c.022 0 .088.023.111.023 0-.045.024-.134.024-.157 0 .023.044.068.044.068.044 0 .066.022.088.044-.022.022-.044.045-.044.088.044 0 .044.023.067.07-.023.066.066.087.09.134l-.046.065zm1.75.512a2.83 2.83 0 0 0-.31-.84c-.253-.417-.603-.818-.929-1.033a3.323 3.323 0 0 0-.709-.362l-.073-.008c-.012.017-.022.023-.03.024l.004.008c-.027 0-.054.034-.079.034.025.065 0 .03.025.099h-.103c0 .066.052.133.078.166-.052.034-.13 0-.209 0-.025-.067-.053-.166-.13-.166 0 .034-.026.066-.026.099.025.034.08.133.103.168-.103 0-.207.132-.338.065.052-.132-.287-.166-.337-.166l-.052.066c-.053-.032-.314.2-.365.268l.077.098c.224-.136.21-.066.313-.2.053 0 .157-.032.131.035.052-.067-.104.13-.104.165 0 .033.026.067.026.1-.053.035-.13.067-.156.099-.028 0-.053-.032-.078-.032 0-.032.05-.1.05-.134-.025-.033-.013-.027-.013-.058-.026 0-.037.023-.063.023l-.063.007c-.012.076.01.062.01.096-.026.034-.104.098-.13.098.051-.064-.13 0-.182 0l-.08.1c-.104 0-.235-.033-.31 0 0 .034.05.067.075.067a.188.188 0 0 1-.05.133c-.053 0-.053-.032-.106 0l-.102-.133c-.027 0-.053.034-.08.034 0 .067-.026.167-.026.233l-.078.1v.132c.026 0 .052.034.078.034.072-.031.167.024.242.032l.014-.005a.678.678 0 0 1 .083-.16c.052 0 .077.032.131.032.052-.064.13-.165.21-.165l.13.165c-.028.035-.028.067-.028.1 0 0-.078 0-.052.067 0 .034.131.102.157.133.025-.031.103-.133.156-.165v-.135l.052.067v.134c.053 0 .105.068.105.132 0-.064.118-.28.141-.311.025-.002.044.043.072.043l.03-.028c.025 0 .053.028.082.028 0-.055.025-.112.025-.14.084 0 .141.056.224.056 0-.028.028-.083.028-.138l.054-.057c-.054.112.197.25.252.307-.055.028-.14.027-.198.027l-.054-.055c-.054 0-.138 0-.194-.028l-.082.083c-.055 0-.084-.027-.138-.027l-.112-.015.052.023v.199c.052 0 .13.067.155.067.053-.034.13-.034.184-.034l.052.067c-.027.035-.079.067-.106.1-.052-.033-.052-.033-.104 0H3.07c-.077-.033-.183-.033-.26-.065h-.05c-.053.032-.236 0-.314 0l-.026.032c-.05 0-.182-.134-.235-.167 0-.031.026-.066.026-.1-.026 0-.079-.033-.13-.033-.027-.032-.052-.066-.106-.066v-.066c-.029.018-.09.058-.153.089l-.002.008c-.006.003-.012.002-.019 0a.292.292 0 0 1-.11.035c-.184.034-.444.268-.629.268-.182.232-.182.43-.182.764.106.133.158.367.29.533.077-.034.415-.034.52-.034v.133c.077 0 .13.033.208 0 .025.068 0 .167 0 .266.131.167.26.2.26.502l-.052.065c0 .365.34.632.523.863.156 0 .312-.065.467-.065a.514.514 0 0 1 .236-.268v-.198c.156 0 .286-.231.34-.397-.029-.034-.08-.068-.107-.102 0-.065.027-.166.027-.233.026-.133.573-.532.546-.566 0-.132 0-.098.078-.2h-.18c-.055.068-.16.033-.24.033-.039-.05-.085-.108-.144-.194-.029-.044-.024-.08-.052-.124-.025-.043-.107-.063-.14-.113-.036-.052-.017-.12-.03-.171-.013-.052-.058-.093-.084-.144-.052-.103-.164-.2-.164-.293.078 0 .162.19.214.156l.127.194.026.21.191.173.086.209c.261 0 .441-.368.677-.368l.051-.133c0-.034-.025-.068-.025-.1h-.106l-.05-.066c-.157 0-.365.034-.469-.167-.078 0-.105-.1-.13-.165.105-.068.234.13.313.232.103 0 .258.1.364.032l.052.068c.026 0 .104-.068.13-.1h.104c.026.032.105.134.155.134 0 .064.053.132.08.166 0-.102 0-.268-.027-.367.053.067.131.265.104.333 0 0 .051.067.08.067 0 .1.025.3.13.3 0 .066.052.134.104.134 0-.068.025-.102.052-.134-.052.066.026-.101.026-.101l-.053-.065v-.27c.027-.031.106-.097.131-.131-.025-.066-.025-.066 0-.133.026 0 .078.033.13.033 0 .1.078.2.157.2 0-.066-.023-.076.028-.143l.065-.008zM.566 11.35c.3-.101.513-.656.78-.723h.066c.1 0 .167.1.3.1l.066.065c.066-.031.1-.031.134-.098h.232c.233-.233.733-.165.83-.5h.134c.034-.032.136-.166.202-.166a2.854 2.854 0 0 0-1.745.342c-.245.137-.732.479-.965.84l-.029.078-.005.062z"/><path fill="#40B6E0" d="M3.92 14.837c-.027 0-.114-.03-.144-.03 0-.058.03-.087.058-.116l-.058-.056v-.06l.058-.057h.115c.057-.058.2-.23.288-.23-.03.029-.087.059-.115.087l.058.059c-.03.056-.03.114-.03.172-.114.114-.171.23-.23.23m1.993-1.354l-.01-.159-.168-.166v-.2c-.03-.035-.065-.068-.065-.135.065.067.133.1.2.134v.133l.081.068c.003.088-.02.2-.038.325"/></g></svg>