<svg xmlns="http://www.w3.org/2000/svg" width="32" height="32" viewBox="0 0 32 32"><rect id="frame" width="32" height="32" fill="none"/><path fill="#9AA7B0" fill-opacity=".8" fill-rule="evenodd" d="M6 11.98c0 .644.362 1.236.934 1.528l.624.314a1.64 1.64 0 0 0 1.442.02V6.158a1.633 1.633 0 0 0-1.442.02l-.624.314C6.362 6.782 6 7.374 6 8.02v3.96zM12 28c-3.778 0-8.044-4.356-8-8v-4c0-2.842 1.132-4 2-4V8c-2.2 0-4 4.158-4 8v4c0 5.466 5.2 10 10 10h10v-2H12zm2.274-26H22v16h-7.726C11.914 18 10 15.848 10 13.192V6.806C10 4.152 11.914 2 14.274 2zM23 16h7v-2h-7v2zm0-10h7V4h-7v2z"/></svg>