<svg xmlns="http://www.w3.org/2000/svg" width="16" height="16" viewBox="0 0 16 16"><rect id="frame" width="16" height="16" fill="none"/><g fill="#9AA7B0" fill-opacity=".8" fill-rule="evenodd"><path d="M3 5.99c0 .322.181.618.467.764l.312.157a.82.82 0 0 0 .721.01V3.08a.816.816 0 0 0-.721.01l-.312.157A.857.857 0 0 0 3 4.01v1.98z"/><path d="M6 14c-1.889 0-4.022-2.178-4-4V8c0-1.42.566-2 1-2V4C1.9 4 1 6.08 1 8v2c0 2.733 2.6 5 5 5h5v-1H6z"/><path d="M11 1v8H7.137C5.957 9 5 7.924 5 6.596V3.403C5 2.076 5.957 1 7.137 1H11zm-1 1H7.137C6.51 2 6 2.63 6 3.403v3.193C6 7.371 6.51 8 7.137 8H10V2z"/><path d="M11.5 8H15V7h-3.5z"/><path d="M11.5 3H15V2h-3.5z"/></g></svg>