<svg xmlns="http://www.w3.org/2000/svg" width="16" height="16" viewBox="0 0 16 16"><rect id="frame" width="16" height="16" fill="none"/><g fill="none" fill-rule="evenodd"><path fill="#9AA7B0" fill-opacity=".8" d="M7.102 15H12v-1H7.544a3.682 3.682 0 0 1-.442 1M6 3.403v3.193C6 7.924 6.957 9 8.137 9H12V1H8.137C6.957 1 6 2.076 6 3.403m-3 6.05V8c0-1.42.566-2 1-2v-.01c0 .322.181.62.467.764l.312.158a.82.82 0 0 0 .721.01V3.078a.816.816 0 0 0-.721.01l-.312.157A.857.857 0 0 0 4 4.01V4C2.9 4 2 6.08 2 8v1.894a3.71 3.71 0 0 1 1-.44"/><path fill="#9AA7B0" fill-opacity=".8" d="M12.5 8H16V7h-3.5z"/><path fill="#9AA7B0" d="M12.5 3H16V2h-3.5z"/><path fill="#62B543" d="M3 14.997v-4l3 1.884-3 2.116zm1-5a3 3 0 1 0 0 6 3 3 0 0 0 0-6z"/></g></svg>