<svg xmlns="http://www.w3.org/2000/svg" width="16" height="16" viewBox="0 0 16 16"><rect id="frame" width="16" height="16" fill="none"/><g fill="none" fill-rule="evenodd"><path fill="#9AA7B0" fill-opacity=".8" d="M14.929 9H9v5.929A7.003 7.003 0 0 1 1 8c0-3.864 3.136-7 7-7a7.003 7.003 0 0 1 6.929 8zM10.1 9v-.3c0-.385-.315-.7-.7-.7H5.2V6.6h1.4c.385 0 .7-.315.7-.7V4.5h1.4c.77 0 1.4-.63 1.4-1.4v-.287A5.603 5.603 0 0 1 13.6 8c0 .406-.126 1-.126 1H10.1zm-2.8 4.551A5.592 5.592 0 0 1 2.4 8c0-.434.056-.847.147-1.253L5.9 10.1v.7c0 .77.63 1.4 1.4 1.4v1.351z"/><path fill="#F26522" d="M10 15.997h6v-6h-6z"/></g></svg>