<svg xmlns="http://www.w3.org/2000/svg" width="16" height="16" viewBox="0 0 16 16"><rect id="frame" width="16" height="16" fill="none"/><g fill="none" fill-rule="evenodd"><path fill="#9AA7B0" fill-opacity=".8" d="M6 1H3v14h3z"/><path fill="#9AA7B0" fill-opacity=".8" d="M10 15h3V1h-3z"/><path fill="#40B6E0" d="M7.6 2H6l.8 1h1.601z"/><path fill="#40B6E0" d="M7.6 8H6l.8 1h1.601z"/><path fill="#40B6E0" d="M7.6 10H6l.8 1h1.601z"/><path fill="#40B6E0" d="M7.6 12H6l.8 1h1.601z"/><path fill="#40B6E0" d="M7.6 14H6l.8 1h1.601z"/><path fill="#40B6E0" d="M7.6 4H6l.8 1h1.601z"/><path fill="#40B6E0" d="M7.6 6H6l.8 1h1.601z"/><path fill="#40B6E0" d="M8.4 3H10l-.8 1H7.599z"/><path fill="#40B6E0" d="M8.4 1H10l-.8 1H7.599z"/><path fill="#40B6E0" d="M8.4 9H10l-.8 1H7.599z"/><path fill="#40B6E0" d="M8.4 11H10l-.8 1H7.599z"/><path fill="#40B6E0" d="M8.4 13H10l-.8 1H7.599z"/><path fill="#40B6E0" d="M8.4 5H10l-.8 1H7.599z"/><path fill="#40B6E0" d="M8.4 7H10l-.8 1H7.599z"/></g></svg>