<svg width="16" height="16" viewBox="0 0 16 16" fill="none" xmlns="http://www.w3.org/2000/svg"><rect id="frame" width="16" height="16" fill="none"/><path d="M5.8 12.374s-.611.355.436.476c1.267.144 1.915.123 3.313-.141 0 0 .367.23.88.43-3.132 1.342-7.089-.078-4.629-.765z" fill="#5382A1"/><path d="M5.418 10.622s-.686.508.361.616c1.355.14 2.424.151 4.275-.205 0 0 .256.26.659.401-3.787 1.107-8.005.087-5.295-.812z" fill="#5382A1"/><path d="M8.644 7.65c.772.889-.203 1.689-.203 1.689s1.96-1.012 1.06-2.279c-.84-1.181-1.485-1.768 2.005-3.792 0 0-5.478 1.368-2.862 4.382z" fill="#E76F00"/><path d="M12.787 13.67s.452.372-.498.66c-1.808.548-7.525.714-9.113.022-.571-.248.5-.593.836-.665.351-.076.552-.062.552-.062-.635-.447-4.104.878-1.762 1.258 6.386 1.036 11.641-.466 9.985-1.214z" fill="#5382A1"/><path d="M6.095 8.807s-2.908.69-1.03.941c.793.107 2.374.083 3.846-.04a30.178 30.178 0 0 0 2.412-.318s-.424.182-.731.391c-2.953.777-8.658.415-7.016-.379 1.39-.671 2.518-.595 2.518-.595z" fill="#5382A1"/><path d="M11.311 11.723c3.002-1.56 1.614-3.06.645-2.857-.237.05-.343.092-.343.092s.088-.138.256-.198c1.917-.674 3.39 1.988-.618 3.041 0 0 .046-.041.06-.078z" fill="#5382A1"/><path d="M9.501 0s1.663 1.663-1.577 4.22c-2.597 2.052-.592 3.221 0 4.558C6.406 7.41 5.293 6.205 6.04 5.085 7.137 3.439 10.17 2.642 9.5 0z" fill="#E76F00"/><path d="M6.39 15.95c2.88.184 7.306-.103 7.41-1.466 0 0-.201.517-2.381.927-2.46.463-5.493.41-7.292.113 0 0 .369.304 2.262.426z" fill="#5382A1"/></svg>