<svg xmlns="http://www.w3.org/2000/svg" xmlns:xlink="http://www.w3.org/1999/xlink" width="16" height="16" viewBox="0 0 16 16"><rect id="frame" width="16" height="16" fill="none"/><defs><path id="a" d="M0 0h5v5H0z"/></defs><g fill="none" fill-rule="evenodd"><path fill="#B99BF8" fill-opacity=".6" d="M9.586 13.5L13.5 9.586l1 1c.32-.8.5-1.671.5-2.586A7 7 0 0 0 1 8l.002.05A2.502 2.502 0 0 1 4 10.5c0 .913-.497 1.705-1.23 2.142a6.977 6.977 0 0 0 7.816 1.859l-1-1.001z"/><path fill="#F26522" d="M3 10.5a1.5 1.5 0 1 1-3-.001 1.5 1.5 0 0 1 3 0"/><g transform="translate(11 11)"><mask id="b" fill="#fff"><use xlink:href="#a"/></mask><path fill="#9AA7B0" mask="url(#b)" d="M2.5 5L0 2.5 2.5 0 5 2.5z"/></g><path fill="#231F20" fill-opacity=".7" d="M6.997 7.802c0 1.034.242 2.075 1.538 2.075C9.832 9.877 10 8.464 10 7.792c0-.686-.098-2.046-1.476-2.046-1.377 0-1.527 1.023-1.527 2.056zM7 10c.008.074.007 1.074-.003 3H6V5h.997v.746C7.367 5.25 7.94 5 8.717 5 9.88 5 11 5.578 11 7.802s-1.345 2.821-2.284 2.821c-.625 0-1.197-.208-1.716-.623z"/></g></svg>