<svg xmlns="http://www.w3.org/2000/svg" width="16" height="16" viewBox="0 0 16 16"><rect id="frame" width="16" height="16" fill="none"/><g fill="none" fill-rule="evenodd"><path fill="#B99BF8" fill-opacity=".6" d="M9.586 13.5L13.5 9.586l1 1c.32-.8.5-1.671.5-2.586A7 7 0 0 0 1 8c0 1.564.52 3.005 1.387 4.17a2.5 2.5 0 0 1 1.442 1.442 6.96 6.96 0 0 0 6.757.889l-1-1.001z"/><path fill="#62B543" d="M3 14.5a1.5 1.5 0 1 1-3-.001 1.5 1.5 0 0 1 3 0"/><path fill="#9AA7B0" d="M13.5 16L11 13.5l2.5-2.5 2.5 2.5z"/><path fill="#231F20" fill-opacity=".7" d="M6.997 7.802c0 1.034.242 2.075 1.538 2.075C9.832 9.877 10 8.464 10 7.792c0-.686-.098-2.046-1.476-2.046-1.377 0-1.527 1.023-1.527 2.056zM7 10c.008.074.007 1.074-.003 3H6V5h.997v.746C7.367 5.25 7.94 5 8.717 5 9.88 5 11 5.578 11 7.802s-1.345 2.821-2.284 2.821c-.625 0-1.197-.208-1.716-.623z"/></g></svg>