<svg xmlns="http://www.w3.org/2000/svg" width="16" height="16" viewBox="0 0 16 16"><rect id="frame" width="16" height="16" fill="none"/><g fill="none" fill-rule="evenodd"><path fill="#40B6E0" d="M8.416 5.314c-.028-.063-.031.002 0 0"/><path fill="#1EB47B" d="M8.416 5.314c-.028-.063-.031.002 0 0"/><path fill="#9AA7B0" d="M3 6.825C1.835 6.415 1 5.305 1 4c0-1.655 1.345-3 3-3s3 1.345 3 3a2.995 2.995 0 0 1-2 2.825V8.4h2v2H5v1.1H3V6.825zM5 4c0-.55-.45-1-1-1s-1 .45-1 1 .45 1 1 1 1-.45 1-1z"/><path fill="#40B6E0" d="M10.167 10.854A2.496 2.496 0 0 1 8.5 8.5C8.5 7.12 9.62 6 11 6s2.5 1.12 2.5 2.5a2.496 2.496 0 0 1-1.667 2.354V12.5H13.5V14h-1.667v1h-1.666v-4.146zM11.833 8.5A.836.836 0 0 0 11 7.667a.836.836 0 0 0-.833.833c0 .458.375.833.833.833a.836.836 0 0 0 .833-.833z"/></g></svg>