<svg xmlns="http://www.w3.org/2000/svg" width="16" height="16" viewBox="0 0 16 16"><rect id="frame" width="16" height="16" fill="none"/><g fill="none" fill-rule="evenodd"><path fill="#F4AF3D" fill-opacity=".6" d="M15 8A7 7 0 1 1 1 8a7 7 0 0 1 14 0"/><path fill="#231F20" fill-opacity=".7" d="M8.153 11a3.593 3.593 0 0 1-2.433-.933l.617-.734c.558.484 1.125.759 1.841.759.634 0 1.034-.3 1.034-.734v-.016c0-.417-.234-.642-1.317-.892-1.242-.3-1.942-.667-1.942-1.742v-.016c0-1 .834-1.692 1.992-1.692.85 0 1.525.258 2.117.733l-.55.775c-.525-.391-1.05-.6-1.584-.6-.6 0-.95.309-.95.692v.017c0 .45.267.65 1.392.916 1.233.3 1.867.742 1.867 1.709v.016c0 1.092-.859 1.742-2.084 1.742z"/></g></svg>