<svg xmlns="http://www.w3.org/2000/svg" xmlns:xlink="http://www.w3.org/1999/xlink" width="16" height="16" viewBox="0 0 16 16"><rect id="frame" width="16" height="16" fill="none"/><defs><path id="a" d="M14 7.75c-.735-.425-1.5-.75-2.602-.75C9.328 7 7 8.798 7 11.508c0 1.034.304 1.757.73 2.492H7a7 7 0 1 1 7-7v.75z"/></defs><g fill="none" fill-rule="evenodd" transform="translate(1 1)"><mask id="b" fill="#fff"><use xlink:href="#a"/></mask><g mask="url(#b)"><path fill="#F98B9E" fill-opacity=".6" fill-rule="nonzero" d="M7 14A7 7 0 1 1 7 0a7 7 0 0 1 0 14z"/><path fill="#231F20" fill-opacity=".7" d="M6 3h1v2h1.5v1H7l-.005 3c-.008.497.138.927.437 1.028.488.164 1.137-.05 1.258-.092l.295.838c-.076.027-.53.226-1.174.226-.644 0-.994-.061-1.33-.389-.316-.31-.465-.831-.48-1.611L6 6c0-.018-.333-.018-1 0v-.972h1V3z"/></g><path fill="#231F20" fill-opacity=".7" fill-rule="nonzero" d="M10.154 13.607a2.5 2.5 0 0 0 3.453-3.453l-3.453 3.453zm-.761-.761l3.453-3.453a2.5 2.5 0 0 0-3.453 3.453zM11.5 15a3.5 3.5 0 1 1 0-7 3.5 3.5 0 0 1 0 7z"/></g></svg>