<svg xmlns="http://www.w3.org/2000/svg" width="16" height="16" viewBox="0 0 16 16"><rect id="frame" width="16" height="16" fill="none"/><g fill="none" fill-rule="evenodd"><path fill="#40B6E0" d="M13.922 14.38c.17.185.256.406.256.666a.964.964 0 0 1-.256.678.821.821 0 0 1-.626.276.803.803 0 0 1-.621-.276.973.973 0 0 1-.25-.678.94.94 0 0 1 .256-.665.804.804 0 0 1 .615-.276c.247 0 .455.09.626.276m.957-7.104c.367.184.647.43.84.74.194.31.29.64.29.99 0 .328-.051.606-.155.836-.105.23-.23.419-.377.564a6.305 6.305 0 0 1-.592.509 7.62 7.62 0 0 0-.534.452 1.485 1.485 0 0 0-.463 1.117v.364h-1.242v-.426c0-.36.055-.668.168-.923.113-.255.248-.464.406-.628.159-.163.36-.345.609-.545.286-.235.494-.433.627-.596a.962.962 0 0 0 .197-.621c0-.302-.112-.54-.336-.71-.225-.171-.515-.258-.871-.258-.278 0-.554.072-.83.214-.274.142-.52.36-.736.652l-.87-.727C11.69 7.427 12.545 7 13.574 7c.502 0 .938.092 1.305.277"/><path fill="#9AA7B0" fill-opacity=".8" d="M11.646 12.423c0-.5.084-.945.252-1.326a5.26 5.26 0 0 1 .264-.491L9.62 8.423l.608-.765C11.091 6.573 12.25 6 13.575 6c.526 0 .995.106 1.425.27V4H7.983L6.697 2.71C6.304 2.32 5.532 2 4.979 2H1.05a.053.053 0 0 0-.05.05V13h10.646v-.577z"/></g></svg>