<svg xmlns="http://www.w3.org/2000/svg" xmlns:xlink="http://www.w3.org/1999/xlink" width="16" height="16" viewBox="0 0 16 16"><rect id="frame" width="16" height="16" fill="none"/><defs><path id="a" d="M12 7.337v4.126a4.501 4.501 0 0 1-8 0V7.337a4.501 4.501 0 0 1 8 0zm-5 5.528c-1.41-.195-2.5-1.529-2.5-3.15 0-.245.029-.48.075-.71l1.71 1.902v.397c0 .437.322.795.715.795v.766zm3.625-1.27a.828.828 0 0 0-.792-.586h-.416V9.743A.42.42 0 0 0 9 9.321H6.5v-.844h.833a.42.42 0 0 0 .417-.422v-.843h.833c.459 0 .834-.38.834-.844v-.173A3.377 3.377 0 0 1 11.5 9.321a3.38 3.38 0 0 1-.875 2.274z"/></defs><g fill="#9AA7B0" fill-rule="evenodd" fill-opacity=".8"><path d="M2.294 6c.636-2.927 2.36-5 5.703-5 3.8 0 5.29 2.073 5.787 5H15v5.814h-2V8.998C12.998 5.143 11.854 2 7.997 2 4.146 2 3.002 5.143 3 8.998v2.816H1V6h1.294z"/><use xlink:href="#a"/></g></svg>