<svg xmlns="http://www.w3.org/2000/svg" width="12" height="12" viewBox="0 0 12 12"><rect id="frame" width="12" height="12" fill="none"/><g fill="none" fill-rule="evenodd"><path fill="#AFB1B3" d="M10 9h2l-2.5 3L7 9h2V0h1v9z"/><path fill="#40B6E0" d="M.997 3.513L0 8.496h1.37l.622-3.336s.539-.47.954-.428c.415.043.415.474.415.474L2.78 8.5h1.37l.663-3.34s.456-.47.913-.428c.456.043.373.517.373.517l-.622 3.247h1.41l.706-3.803c.083-.603-.273-1.124-.747-1.18a2.116 2.116 0 0 0-1.37.324c-.414.26-.663.6-.663.6s-.214-.868-.871-.924c-.658-.055-.955.107-1.245.278-.29.17-.456.388-.456.388l.114-.666H.997z"/></g></svg>