<svg xmlns="http://www.w3.org/2000/svg" width="16" height="16" viewBox="0 0 16 16"><rect id="frame" width="16" height="16" fill="none"/><g fill="none" fill-rule="evenodd"><path fill="#9AA7B0" fill-opacity=".8" d="M6 15c-2.4 0-5-2.267-5-5V8c0-1.92.9-4 2-4v2c-.434 0-1 .58-1 2v2c-.022 1.822 2.111 4 4 4v1zM3 5.99V4.01c0-.323.181-.619.467-.764l.312-.157a.816.816 0 0 1 .721-.01v3.842a.82.82 0 0 1-.721-.01l-.312-.157A.859.859 0 0 1 3 5.99zM7.137 1H11v8H7.137C5.957 9 5 7.924 5 6.596V3.403C5 2.076 5.957 1 7.137 1zM11.5 8V7H15v1h-3.5zm0-5V2H15v1h-3.5z"/><path fill="#40B6E0" d="M7.897 10.016L6.7 15.996h1.643l.747-4.004s.647-.565 1.145-.514c.498.052.498.57.498.57L10.036 16h1.644l.796-4.008s.547-.565 1.095-.514c.548.052.448.62.448.62l-.747 3.898h1.693l.846-4.565c.1-.723-.327-1.349-.896-1.415a2.54 2.54 0 0 0-1.643.389c-.498.312-.796.718-.796.718s-.257-1.04-1.046-1.107c-.789-.066-1.145.128-1.494.333-.348.205-.547.466-.547.466l.137-.799h-1.63z"/></g></svg>