<svg xmlns="http://www.w3.org/2000/svg" width="16" height="16" viewBox="0 0 16 16"><rect id="frame" width="16" height="16" fill="none"/><g fill="none" fill-rule="evenodd"><path fill="#6E6E6E" d="M9.362 1.077c.71-.446 1.53-.649 2.34-.554.811.095 1.42.986 1.277 2.016l-.63 3.4a6.795 6.795 0 0 0-2.126-.336l-.203.003.406-2.116s.126-.719-.51-.864l-.128-.02c-.683-.064-1.366.544-1.526.697l-.035.034-.547 2.756c-1.187.482-2.173 1.292-2.813 2.3l.878-4.976s0-.738-.71-.811c-.709-.073-1.63.731-1.63.731L2.34 9.041H0L1.705.523h2.32L3.83 1.662s.284-.372.78-.665C5.107.705 5.615.428 6.738.523 7.86.618 8.228 2.1 8.228 2.1s.425-.578 1.134-1.023z"/><path fill="#389FD6" d="M15.646 12.015v3.572l-1.259-1.26a4.047 4.047 0 0 1-6.908-2.34l1.362.12a2.733 2.733 0 0 0 4.616 1.291l-1.383-1.383h3.572zm-3.938-4.559a4.047 4.047 0 0 1 3.795 3.473l-1.353-.118a2.733 2.733 0 0 0-4.67-1.158l1.433 1.433H7.341V7.515L8.55 8.724a4.037 4.037 0 0 1 3.158-1.268z"/></g></svg>