<svg xmlns="http://www.w3.org/2000/svg" width="16" height="16" viewBox="0 0 16 16"><rect id="frame" width="16" height="16" fill="none"/><g fill="none" fill-rule="evenodd"><path fill="#40B6E0" fill-opacity=".7" d="M14.915 9H12.12l.48-2.502s.165-.949-.748-1.034c-.912-.086-1.825.855-1.825.855l-.596 3C8.576 9.734 8 10.512 8 11.403V13H5.96l1.162-6.588s0-.863-.83-.948c-.83-.086-1.909.855-1.909.855l-1.245 6.674H.4l1.995-9.966H5.11L4.88 4.359s.332-.435.913-.777c.58-.343 1.175-.666 2.49-.555 1.314.11 1.742 1.845 1.742 1.845s.498-.677 1.328-1.198c.83-.52 1.79-.758 2.738-.647.948.11 1.66 1.153 1.494 2.359L14.916 9z"/><path fill="#9AA7B0" d="M13 10v6h-2.575C9.638 16 9 15.193 9 14.197v-2.395C9 10.807 9.638 10 10.425 10H13zm1 2v-1h2v1h-2zm0 3v-1h2v1h-2z"/></g></svg>