<svg xmlns="http://www.w3.org/2000/svg" width="13" height="13" viewBox="0 0 13 13"><rect id="frame" width="13" height="13" fill="none"/><path fill="#6E6E6E" fill-rule="evenodd" d="M5.653 9.442c.036-.2.146-.402.073-.563-.033.125-.22.322-.294.402-.073.08-.073.08-.22.161-.487.11-.907.096-1.395 0-.229-.04-.775-.415-.807-.563a.86.86 0 0 0 .147.563c.146.241.146.483.146.643 0 .161-.097.296-.22.563.01.169.041.242 0 .402-.068.266-.333.135-.514.08-.222-.066-.556-.076-.44-.401.102-.286.097-.726.147-1.126-.408-.644-.735-1.39-.808-2.17a3.136 3.136 0 0 1 .147-1.368c.19-.588.381-.957.808-1.366.575-.553.846-.664 1.688-.805-.203.249-.207.277-.425.558-.221.285-.353.573-.493.885-.194.43-.19.594.067.972.222.326.341.473.438.791-.08.18-.109.333-.136.58.272.324.473.546.736.615.259.067.474.054.705-.075.514-.288 1.098-.692 1.677-.707.268-.722.131-1.291.003-1.989-.088-.476-.196-.983-.223-1.469-.21.387-.374 1.19-.294 1.689.098.6.074.804 0 1.125-.367.08-.409.215-.88.483-.19.107-.661.241-.881.16-.22-.08-.112-.321 0-.562.179-.387.663-2.152.88-2.533-.266.352-1.112 1.697-1.32 2.05-.08-.25-.148-.402-.295-.562-.146-.161.286-.967.523-1.247.41-.484.498-.77.946-1.246.243-.259.367-.322.66-.482.294-.161.73-.086 1.028-.161-.147-.16-.294-.241-.514-.241.22-.402.36-.43.808-.644.558-.265.68-.292 1.027-.281.339.01.529.09.955.482.224.207.433.305.66.483-.082.008.077.085-.017.125.114-.024.12.012.238.036.033.023.064.022.147.08.156.108.258.156.367.322.114.175.164.445.129.442a.286.286 0 0 0-.191.048l-.007.004a1.277 1.277 0 0 1-.318.117.348.348 0 0 0 .22-.003.358.358 0 0 0-.009.325c.009.022.02.042.033.056a2.31 2.31 0 0 0-.129.057 1.29 1.29 0 0 1 .492-.001c.013.069.125.133.137.207l-.074.006-.006.001c-.095-.083-.2-.069-.345-.033-.438.11-.335.38-.537.785.21-.28.194-.574.535-.662.08-.02.134-.047.188-.038a.453.453 0 0 0-.214.245c-.094.29-.036.534-.139.804.128-.242.136-.478.25-.732.04-.092.193-.238.286-.24l.077-.002c.022.161-.003.41-.011.543-.016.242-.113.506-.147.644.147.04.367-.121.514-.523.146-.402.12-.694.073-.965-.063-.372.09-.106.294-.281.149-.13.303-.337.44-.483.136-.144.25.18.303.322.231.614.199 1.11.138 1.729-.069.694-.313 1.306-.872 1.648-.713.435-1.495.18-2.203-.08a2.676 2.676 0 0 1-.514-.242c.037.179.005.54 0 .724-.008.321.032.464.122.554.09.089.14.089.237.089.146 0 .367-.08.44-.241.073-.161.073-.201.073-.282.054.019.164.066.22.08 0 0-.05.1-.082.215-.083.298-.358.55-.651.55-.294 0-.478-.204-.662-.383l-.368-.357c-.33-.114-.426-.338-.732-.587-.074.482 0 .643.293.884-.044.495-.155.724-.293 1.046-.089.206-.528.961-.66 1.045-.095.06-.55.571-.662.643-.082.12-.169.33-.293.402-.38.22-.492.048-.66-.321-.074-.161-.148-.322 0-.402.146-.08.302-.322.366-.403.065-.08.037-.442.074-.643zm2.275 0c-.035.15-.147.322-.22.483-.073.16-.243.455-.367.563.024.02.1.09.18.099.055.005.275.007.33.008.122.002.168-.008.18-.173.006-.08.001-.095-.033-.166L7.99 9.88a3.045 3.045 0 0 0-.06-.437zm-6.33.288v.006a.451.451 0 0 1-.058.157c-.142.21-.504-.098-.61-.216a.825.825 0 0 1-.209-.426c-.013-.105 0-.107.066-.181l.267-.3.059-.172c.106.403.285.799.484 1.132zm4.69 1.719c-.119.194-.133.314-.324.427-.566.335-.866-.054-1.201-.62-.16-.27-.509-.884-.138-1.093.156-.088.274-.154.392-.229-.389.053-.77.053-1.167-.012l.018.148c.026.237.023.337-.05.498-.074.16-.148.241-.22.322.018.205.052.467 0 .683-.119.48-1.013.186-1.346.087-.401-.118-.974-.229-.739-.793.055-.132.098-.268.13-.397-.35.17-.836-.19-1.068-.445a1.52 1.52 0 0 1-.383-.796c-.035-.233-.003-.232.149-.396l.415-.45.168-.5a3.95 3.95 0 0 1-.048-.372C.836 7 .85 6.634.916 6.298c-.243.105-.523.056-.648-.228a1.99 1.99 0 0 1-.11-.377C-.388 5.12.631 4.367.93 4.31c-.034.106-.071.203-.104.299.201.114.177.44.134.65-.073-.1-.113-.232-.22-.237-.015.237-.012.5-.181.638.05.147.047.147.19.087.201-.085.354-.275.507-.46.165-.352.376-.665.667-.947.714-.694 1.39-.921 2.477-1.11.145-.166.294-.326.455-.481.217-.21.359-.254.564-.266.34-.498.609-.846 1.164-1.102C7.746.845 8.548.82 9.482 1.662c.309.279.572.573.91.805.173.118.295.203.425.372.164.214.298.427.39.702.12-.054.258-.105.369-.208.142-.134.233-.358.366-.505.175-.195.576.04.665.226.302.633.424 1.432.386 2.127-.073 1.367-.427 2.032-1.116 2.435-.47.274-.988.41-1.526.299-.074.482-.514 1.125-1.028 1.125s-.514-.08-.734-.24c-.143-.105-.303-.273-.312-.252-.02.043-.047.077-.055.13.093.201.044.042.124.25.087.227.13.377.136.62l.015.65c.089.172.096.214.084.41-.028.414-.236.454-.583.451-.115 0-.552.003-.663-.006-.22-.018-.366-.036-.443-.136-.2.178-.538.492-.604.532zm1.91-6.786a.583.583 0 0 1-.049-.23 1.51 1.51 0 0 1-.382.26c.185-.18.437-.607.62-.742.207-.153.488-.123.73-.245a1.464 1.464 0 0 1-.296.21.517.517 0 0 1 .28.278.58.58 0 0 1 .045.174c.162-.058.321-.086.456-.084a2.828 2.828 0 0 0-1.347.95c.04-.12.095-.227.162-.323a.524.524 0 0 1-.22-.248z"/></svg>