<svg xmlns="http://www.w3.org/2000/svg" width="16" height="16" viewBox="0 0 16 16"><rect id="frame" width="16" height="16" fill="none"/><g fill="none" fill-rule="evenodd"><path fill="#40B6E0" fill-opacity=".6" d="M12.07 15H3.93A2.94 2.94 0 0 1 1 12.069V3.931A2.94 2.94 0 0 1 3.93 1h8.14A2.94 2.94 0 0 1 15 3.931v8.138A2.94 2.94 0 0 1 12.07 15"/><path fill="#231F20" fill-opacity=".7" d="M7.055 5.96v4.08h.757c1.26 0 2.083-.849 2.083-2.022V8c0-1.174-.823-2.04-2.083-2.04h-.757zM6 5h1.812C9.698 5 11 6.295 11 7.982V8c0 1.689-1.302 3-3.188 3H6V5z"/></g></svg>