<svg xmlns="http://www.w3.org/2000/svg" width="16" height="16" viewBox="0 0 16 16"><rect id="frame" width="16" height="16" fill="none"/><g fill="none" fill-rule="evenodd"><path fill="#B99BF8" fill-opacity=".6" d="M13.5 11.197a2.31 2.31 0 0 1-2.303 2.303H4.803A2.31 2.31 0 0 1 2.5 11.197V4.802A2.31 2.31 0 0 1 4.803 2.5h6.394A2.31 2.31 0 0 1 13.5 4.802v6.395zM12.068 1H3.932A2.939 2.939 0 0 0 1 3.931v8.137A2.94 2.94 0 0 0 3.932 15h8.136A2.94 2.94 0 0 0 15 12.068V3.931a2.939 2.939 0 0 0-2.932-2.93z"/><path fill="#AFB1B3" d="M10.5 6V5h-5v1h2v5h1V6z"/></g></svg>