<svg width="24" height="24" viewBox="0 0 24 24" fill="none" xmlns="http://www.w3.org/2000/svg"><rect id="frame" width="24" height="24" fill="none"/><path d="M21.15 9.275l2.85 6.35L19.1 24l-3-7.325 5.05-7.4z" fill="url(#paint0_linear)"/><path d="M16.1 16.675l3 7.325-7.575-2.6 4.575-4.725z" fill="#B74AF7"/><path d="M16.9 6.775L15 0H6L0 9.5l1.95 5.525L0 19.35 13.925 7.475l2.975-.7z" fill="url(#paint1_linear)"/><path d="M24 5.1L13.925 7.475 0 19.35 9 24l7.1-7.325L24 5.1z" fill="url(#paint2_linear)"/><path d="M20 4H4v16h16V4z" fill="url(#paint3_linear)"/><path d="M12 17H6v1h6v-1z" fill="#fff"/><path d="M5.4 9.034c0-1.73 1.34-3.144 3.169-3.144 1.097 0 1.73.293 2.364.829l-.829 1.023c-.463-.39-.877-.609-1.584-.609-.975 0-1.73.853-1.73 1.877v.024c0 1.097.755 1.902 1.828 1.902.487 0 .901-.122 1.243-.366v-.853H8.52V8.57h2.608v2.608c-.585.537-1.438.951-2.535.951-1.901 0-3.193-1.316-3.193-3.096z" fill="#fff"/><path d="M11.713 9.034c0-1.73 1.34-3.144 3.218-3.144 1.852 0 3.193 1.39 3.193 3.096v.024c0 1.706-1.34 3.12-3.218 3.12-1.852 0-3.193-1.39-3.193-3.096zm5.021 0c0-1.048-.755-1.9-1.828-1.9-1.072 0-1.804.852-1.804 1.876v.024c0 1.024.756 1.902 1.829 1.902 1.072-.025 1.803-.854 1.803-1.902z" fill="#fff"/><defs><linearGradient id="paint0_linear" x1="23.633" y1="13.671" x2="14.259" y2="21.603" gradientUnits="userSpaceOnUse"><stop offset="0" stop-color="#087CFA"/><stop offset=".023" stop-color="#0D7BFA"/><stop offset=".373" stop-color="#5566F9"/><stop offset=".663" stop-color="#8A57F8"/><stop offset=".881" stop-color="#AB4EF7"/><stop offset="1" stop-color="#B74AF7"/></linearGradient><linearGradient id="paint1_linear" x1="8.259" y1="7.44" x2="13.956" y2=".958" gradientUnits="userSpaceOnUse"><stop offset="0" stop-color="#087CFA"/><stop offset=".023" stop-color="#0D7BFA"/><stop offset=".373" stop-color="#5566F9"/><stop offset=".663" stop-color="#8A57F8"/><stop offset=".881" stop-color="#AB4EF7"/><stop offset="1" stop-color="#B74AF7"/></linearGradient><linearGradient id="paint2_linear" x1="3.334" y1="20.966" x2="20.647" y2="9.841" gradientUnits="userSpaceOnUse"><stop offset="0" stop-color="#087CFA"/><stop offset=".102" stop-color="#1598D3"/><stop offset=".225" stop-color="#23B6AA"/><stop offset=".345" stop-color="#2DCC8B"/><stop offset=".462" stop-color="#35DD74"/><stop offset=".572" stop-color="#39E767"/><stop offset=".67" stop-color="#3BEA62"/></linearGradient><linearGradient id="paint3_linear" x1="12" y1=".129" x2="12" y2="14.478" gradientUnits="userSpaceOnUse"><stop offset=".084" stop-color="#878585"/><stop offset=".538"/></linearGradient></defs></svg>