<svg width="70" height="70" viewBox="0 0 70 70" fill="none" xmlns="http://www.w3.org/2000/svg"><rect id="frame" width="70" height="70" fill="none"/><path d="M61.688 27.052L70 45.572 55.708 70l-8.75-21.365 14.73-21.583z" fill="url(#paint0_linear)"/><path d="M46.958 48.635L55.708 70l-22.093-7.583 13.343-13.782z" fill="#B74AF7"/><path d="M49.292 19.76L44.77 0H19.615L0 30.042l5.688 13.78L0 56.438l40.615-34.635 8.677-2.042z" fill="url(#paint1_linear)"/><path d="M70 14.875l-29.385 6.927L0 56.438 26.25 70l20.708-21.365L70 14.875z" fill="url(#paint2_linear)"/><path d="M56 14H14v42h42V14z" fill="#010101"/><path d="M34.417 48.65h-15.75v2.683h15.75V48.65z" fill="#fff"/><path d="M18 27.224c0-4.543 3.52-8.254 8.318-8.254 2.88 0 4.543.768 6.206 2.175l-2.175 2.688c-1.216-1.024-2.303-1.6-4.159-1.6-2.56 0-4.543 2.24-4.543 4.927v.064c0 2.88 1.984 4.99 4.799 4.99 1.28 0 2.367-.32 3.263-.959v-2.24H26.19v-3.007h6.846v6.847c-1.535 1.407-3.775 2.495-6.654 2.495-4.99 0-8.382-3.455-8.382-8.126z" fill="#fff"/><path d="M34.572 27.224c0-4.543 3.52-8.254 8.446-8.254 4.863 0 8.382 3.647 8.382 8.126v.064c0 4.479-3.52 8.19-8.446 8.19-4.863 0-8.382-3.647-8.382-8.126zm13.18 0c0-2.751-1.983-4.99-4.798-4.99s-4.735 2.239-4.735 4.926v.064c0 2.687 1.984 4.99 4.799 4.99 2.815-.063 4.735-2.239 4.735-4.99z" fill="#fff"/><defs><linearGradient id="paint0_linear" x1="68.929" y1="39.874" x2="41.588" y2="63.009" gradientUnits="userSpaceOnUse"><stop offset="0" stop-color="#087CFA"/><stop offset=".023" stop-color="#0D7BFA"/><stop offset=".373" stop-color="#5566F9"/><stop offset=".663" stop-color="#8A57F8"/><stop offset=".881" stop-color="#AB4EF7"/><stop offset="1" stop-color="#B74AF7"/></linearGradient><linearGradient id="paint1_linear" x1="24.089" y1="21.699" x2="40.706" y2="2.794" gradientUnits="userSpaceOnUse"><stop offset="0" stop-color="#087CFA"/><stop offset=".023" stop-color="#0D7BFA"/><stop offset=".373" stop-color="#5566F9"/><stop offset=".663" stop-color="#8A57F8"/><stop offset=".881" stop-color="#AB4EF7"/><stop offset="1" stop-color="#B74AF7"/></linearGradient><linearGradient id="paint2_linear" x1="9.725" y1="61.15" x2="60.22" y2="28.702" gradientUnits="userSpaceOnUse"><stop offset="0" stop-color="#087CFA"/><stop offset=".102" stop-color="#1598D3"/><stop offset=".225" stop-color="#23B6AA"/><stop offset=".345" stop-color="#2DCC8B"/><stop offset=".462" stop-color="#35DD74"/><stop offset=".572" stop-color="#39E767"/><stop offset=".67" stop-color="#3BEA62"/></linearGradient></defs></svg>