<svg width="16" height="16" viewBox="0 0 16 16" fill="none" xmlns="http://www.w3.org/2000/svg"><rect id="frame" width="16" height="16" fill="none"/><path d="M16 0H0v16h16V0z" fill="#087CFA"/><path d="M15 1H1v14h14V1z" fill="#000"/><path d="M9 12H3v1h6v-1z" fill="#fff"/><path d="M2.5 6c0-1.7 1.2-3.1 2.9-3.1 1 0 1.6.3 2.2.8l-.8 1c-.4-.4-.8-.6-1.4-.6-.9 0-1.6.8-1.6 1.9 0 1.1.7 1.9 1.7 1.9.4 0 .8-.1 1.2-.4v-.8H5.4V5.5h2.4v2.6c-.6.5-1.4 1-2.4 1-1.7 0-2.9-1.3-2.9-3.1z" fill="#fff"/><path d="M8.5 6c0-1.7 1.2-3.1 2.9-3.1s2.8 1.4 2.8 3.1c0 1.7-1.2 3.1-2.9 3.1-1.6 0-2.8-1.4-2.8-3.1zM13 6c0-1-.7-1.9-1.6-1.9-.9 0-1.6.8-1.6 1.9 0 1 .7 1.9 1.6 1.9.9 0 1.6-.9 1.6-1.9z" fill="#fff"/></svg>