<svg width="80" height="80" viewBox="0 0 80 80" fill="none" xmlns="http://www.w3.org/2000/svg"><rect id="frame" width="80" height="80" fill="none"/><g clip-path="url(#clip0)"><path d="M70.5 30.917L80 52.083 63.667 80l-10-24.417L70.5 30.917z" fill="url(#paint0_linear)"/><path d="M53.667 55.583l10 24.417-25.25-8.667 15.25-15.75z" fill="#B74AF7"/><path d="M56.333 22.583L51.167 0h-28.75L0 34.333l6.5 15.75L0 64.5l46.417-39.583 9.916-2.334z" fill="url(#paint1_linear)"/><path d="M80 17l-33.583 7.917L0 64.5 30 80l23.667-24.417L80 17z" fill="url(#paint2_linear)"/><path d="M65 15H15v50h50V15z" fill="url(#paint3_linear)"/><path d="M39.9 55.5H21.2v3.1h18.7v-3.1z" fill="#fff"/><path d="M19 30.874c0-5.27 4.082-9.574 9.648-9.574 3.34 0 5.27.89 7.2 2.523l-2.524 3.118c-1.41-1.188-2.672-1.856-4.824-1.856-2.969 0-5.27 2.598-5.27 5.715v.074c0 3.34 2.301 5.79 5.567 5.79 1.484 0 2.746-.372 3.785-1.114v-2.598H28.5v-3.488h7.941v7.942c-1.78 1.632-4.379 2.894-7.718 2.894-5.79 0-9.723-4.008-9.723-9.426z" fill="#fff"/><path d="M38.223 30.874c0-5.27 4.082-9.574 9.797-9.574 5.64 0 9.722 4.23 9.722 9.426v.074c0 5.195-4.082 9.5-9.797 9.5-5.64 0-9.722-4.23-9.722-9.426zm15.289 0c0-3.191-2.301-5.789-5.567-5.789-3.265 0-5.492 2.598-5.492 5.715v.074c0 3.117 2.3 5.79 5.566 5.79 3.266-.075 5.493-2.598 5.493-5.79z" fill="#fff"/></g><defs><linearGradient id="paint0_linear" x1="78.776" y1="45.571" x2="47.529" y2="72.01" gradientUnits="userSpaceOnUse"><stop offset="0" stop-color="#087CFA"/><stop offset=".023" stop-color="#0D7BFA"/><stop offset=".373" stop-color="#5566F9"/><stop offset=".663" stop-color="#8A57F8"/><stop offset=".881" stop-color="#AB4EF7"/><stop offset="1" stop-color="#B74AF7"/></linearGradient><linearGradient id="paint1_linear" x1="27.53" y1="24.799" x2="46.521" y2="3.193" gradientUnits="userSpaceOnUse"><stop offset="0" stop-color="#087CFA"/><stop offset=".023" stop-color="#0D7BFA"/><stop offset=".373" stop-color="#5566F9"/><stop offset=".663" stop-color="#8A57F8"/><stop offset=".881" stop-color="#AB4EF7"/><stop offset="1" stop-color="#B74AF7"/></linearGradient><linearGradient id="paint2_linear" x1="11.114" y1="69.886" x2="68.822" y2="32.803" gradientUnits="userSpaceOnUse"><stop offset="0" stop-color="#087CFA"/><stop offset=".102" stop-color="#1598D3"/><stop offset=".225" stop-color="#23B6AA"/><stop offset=".345" stop-color="#2DCC8B"/><stop offset=".462" stop-color="#35DD74"/><stop offset=".572" stop-color="#39E767"/><stop offset=".67" stop-color="#3BEA62"/></linearGradient><linearGradient id="paint3_linear" x1="39.999" y1="2.846" x2="39.999" y2="47.685" gradientUnits="userSpaceOnUse"><stop offset=".084" stop-color="#878585"/><stop offset=".538"/></linearGradient><clipPath id="clip0"><path d="M0 0h80v80H0V0z" fill="#fff"/></clipPath></defs></svg>