<svg width="32" height="32" viewBox="0 0 32 32" fill="none" xmlns="http://www.w3.org/2000/svg"><rect id="frame" width="32" height="32" fill="none"/><path d="M28.2 12.367l3.8 8.466L25.467 32l-4-9.767 6.733-9.866z" fill="url(#paint0_linear)"/><path d="M21.467 22.233l4 9.767-10.1-3.467 6.1-6.3z" fill="#B74AF7"/><path d="M22.533 9.033L20.467 0h-11.5L0 13.733l2.6 6.3L0 25.8 18.567 9.967l3.966-.934z" fill="url(#paint1_linear)"/><path d="M32 6.8L18.567 9.967 0 25.8 12 32l9.467-9.767L32 6.8z" fill="url(#paint2_linear)"/><path d="M26 6H6v20h20V6z" fill="url(#paint3_linear)"/><path d="M16 23H8v1h8v-1z" fill="#fff"/><path d="M7.5 12.117C7.5 9.85 9.255 8 11.649 8c1.436 0 2.266.383 3.096 1.085l-1.086 1.34c-.606-.51-1.149-.797-2.074-.797-1.277 0-2.266 1.117-2.266 2.457v.032c0 1.436.99 2.49 2.394 2.49.638 0 1.18-.16 1.627-.48V13.01h-1.755v-1.5H15v3.415c-.766.702-1.883 1.245-3.32 1.245-2.489 0-4.18-1.723-4.18-4.053z" fill="#fff"/><path d="M15.766 12.117C15.766 9.85 17.52 8 19.978 8c2.426 0 4.181 1.82 4.181 4.053v.032c0 2.234-1.755 4.085-4.213 4.085-2.425 0-4.18-1.82-4.18-4.053zm6.574 0c0-1.372-.99-2.49-2.394-2.49-1.404 0-2.361 1.118-2.361 2.458v.032c0 1.34.99 2.49 2.393 2.49 1.405-.033 2.362-1.118 2.362-2.49z" fill="#fff"/><defs><linearGradient id="paint0_linear" x1="31.51" y1="18.228" x2="19.012" y2="28.804" gradientUnits="userSpaceOnUse"><stop offset="0" stop-color="#087CFA"/><stop offset=".023" stop-color="#0D7BFA"/><stop offset=".373" stop-color="#5566F9"/><stop offset=".663" stop-color="#8A57F8"/><stop offset=".881" stop-color="#AB4EF7"/><stop offset="1" stop-color="#B74AF7"/></linearGradient><linearGradient id="paint1_linear" x1="11.012" y1="9.919" x2="18.608" y2="1.277" gradientUnits="userSpaceOnUse"><stop offset="0" stop-color="#087CFA"/><stop offset=".023" stop-color="#0D7BFA"/><stop offset=".373" stop-color="#5566F9"/><stop offset=".663" stop-color="#8A57F8"/><stop offset=".881" stop-color="#AB4EF7"/><stop offset="1" stop-color="#B74AF7"/></linearGradient><linearGradient id="paint2_linear" x1="4.446" y1="27.954" x2="27.529" y2="13.121" gradientUnits="userSpaceOnUse"><stop offset="0" stop-color="#087CFA"/><stop offset=".102" stop-color="#1598D3"/><stop offset=".225" stop-color="#23B6AA"/><stop offset=".345" stop-color="#2DCC8B"/><stop offset=".462" stop-color="#35DD74"/><stop offset=".572" stop-color="#39E767"/><stop offset=".67" stop-color="#3BEA62"/></linearGradient><linearGradient id="paint3_linear" x1="15.973" y1="1.139" x2="15.973" y2="19.075" gradientUnits="userSpaceOnUse"><stop offset=".084" stop-color="#878585"/><stop offset=".538"/></linearGradient></defs></svg>