<svg width="64" height="64" viewBox="0 0 64 64" fill="none" xmlns="http://www.w3.org/2000/svg"><rect id="frame" width="64" height="64" fill="none"/><path d="M56.4 24.733L64 41.667 50.933 64l-8-19.533L56.4 24.733z" fill="url(#paint0_linear)"/><path d="M42.933 44.467l8 19.533-20.2-6.933 12.2-12.6z" fill="#B74AF7"/><path d="M45.067 18.067L40.933 0h-23L0 27.467l5.2 12.6L0 51.6l37.133-31.667 7.934-1.866z" fill="url(#paint1_linear)"/><path d="M64 13.6l-26.867 6.333L0 51.6 24 64l18.933-19.533L64 13.6z" fill="url(#paint2_linear)"/><path d="M51 13H13v38h38V13z" fill="url(#paint3_linear)"/><path d="M32.144 44H18v2.322h14.144V44z" fill="#fff"/><path d="M15.7 24.968c0-4.11 3.184-7.468 7.526-7.468 2.605 0 4.11.695 5.615 1.968L26.873 21.9c-1.1-.927-2.084-1.448-3.763-1.448-2.316 0-4.11 2.027-4.11 4.458v.058c0 2.605 1.794 4.515 4.342 4.515 1.157 0 2.142-.29 2.952-.868v-2.026H23.11v-2.721h6.194v6.194c-1.39 1.274-3.415 2.258-6.02 2.258-4.516 0-7.584-3.126-7.584-7.352z" fill="#fff"/><path d="M30.694 24.968c0-4.11 3.184-7.468 7.641-7.468 4.4 0 7.584 3.3 7.584 7.352v.058c0 4.052-3.184 7.41-7.642 7.41-4.4 0-7.583-3.3-7.583-7.352zm11.925 0c0-2.49-1.794-4.516-4.342-4.516-2.547 0-4.284 2.027-4.284 4.458v.058c0 2.431 1.795 4.515 4.342 4.515 2.547-.058 4.284-2.026 4.284-4.515z" fill="#fff"/><defs><linearGradient id="paint0_linear" x1="63.021" y1="36.456" x2="38.024" y2="57.608" gradientUnits="userSpaceOnUse"><stop offset="0" stop-color="#087CFA"/><stop offset=".023" stop-color="#0D7BFA"/><stop offset=".373" stop-color="#5566F9"/><stop offset=".663" stop-color="#8A57F8"/><stop offset=".881" stop-color="#AB4EF7"/><stop offset="1" stop-color="#B74AF7"/></linearGradient><linearGradient id="paint1_linear" x1="22.024" y1="19.839" x2="37.217" y2="2.555" gradientUnits="userSpaceOnUse"><stop offset="0" stop-color="#087CFA"/><stop offset=".023" stop-color="#0D7BFA"/><stop offset=".373" stop-color="#5566F9"/><stop offset=".663" stop-color="#8A57F8"/><stop offset=".881" stop-color="#AB4EF7"/><stop offset="1" stop-color="#B74AF7"/></linearGradient><linearGradient id="paint2_linear" x1="8.891" y1="55.909" x2="55.058" y2="26.242" gradientUnits="userSpaceOnUse"><stop offset="0" stop-color="#087CFA"/><stop offset=".102" stop-color="#1598D3"/><stop offset=".225" stop-color="#23B6AA"/><stop offset=".345" stop-color="#2DCC8B"/><stop offset=".462" stop-color="#35DD74"/><stop offset=".572" stop-color="#39E767"/><stop offset=".67" stop-color="#3BEA62"/></linearGradient><linearGradient id="paint3_linear" x1="31.949" y1="3.764" x2="31.949" y2="37.843" gradientUnits="userSpaceOnUse"><stop offset=".084" stop-color="#878585"/><stop offset=".538"/></linearGradient></defs></svg>