<svg ti:v="1" width="16" height="16" viewBox="0 0 16 16" xmlns="http://www.w3.org/2000/svg" xmlns:ti="urn:schemas-jetbrains-com:tisvg"><rect id="frame" width="16" height="16" fill="none"/><linearGradient id="a" x1=".5" y1="0" x2=".5" y2="1"><stop offset="0" stop-color="#49667C"/><stop offset="1" stop-color="#182349"/></linearGradient><path fill-rule="evenodd" d="M14 9V6h2V0h-6v2H7V0H1v6h2v3H1v6h6v-2h3v2h6V9h-2z" fill="url(#a)"/><linearGradient id="b" x1=".5" y1="0" x2=".5" y2="1"><stop offset="0" stop-color="#89E4FF"/><stop offset="1" stop-color="#89C3FF"/></linearGradient><path fill-rule="evenodd" d="M2 14h4v-1H3v-3H2m13 4v-4h-1v3h-3v1m4-13h-4v1h3v3h1M6 1v1H3v3H2V1h4z" fill="url(#b)"/><linearGradient id="c" x1=".5" y1="0" x2=".5" y2="1"><stop offset="0" stop-color="#443A23"/><stop offset="1" stop-color="#857046"/></linearGradient><path fill-rule="evenodd" d="M14 13H3V2h11v11z" fill="url(#c)"/><linearGradient id="d" x1=".5" y1="0" x2=".5" y2="1"><stop offset="0" stop-color="#FFE8B5"/><stop offset="1" stop-color="#B89A60"/></linearGradient><path fill-rule="evenodd" d="M8 12H4V8h4v4z" fill="url(#d)"/><linearGradient id="e" x1=".5" y1="0" x2=".5" y2="1"><stop offset="0" stop-color="#FFE8B5"/><stop offset="1" stop-color="#B89A60"/></linearGradient><path fill-rule="evenodd" d="M13 7H9V3h4v4z" fill="url(#e)"/><linearGradient id="f" x1=".5" y1="0" x2=".5" y2="1"><stop offset="0" stop-color="#FFE8B5"/><stop offset="1" stop-color="#B89A60"/></linearGradient><path fill-rule="evenodd" d="M13 12H9V8h4v4z" fill="url(#f)"/><linearGradient id="g" x1=".5" y1="0" x2=".5" y2="1"><stop offset="0" stop-color="#FFE8B5"/><stop offset="1" stop-color="#B89A60"/></linearGradient><path fill-rule="evenodd" d="M8 7H4V3h4v4z" fill="url(#g)"/><linearGradient id="h" x1=".5" y1="0" x2=".5" y2="1"><stop offset="0" stop-color="#605433"/><stop offset="1" stop-color="#BA9C62"/></linearGradient><path fill-rule="evenodd" d="M7 6H5V4h2v2z" fill="url(#h)"/><linearGradient id="i" x1=".5" y1="0" x2=".5" y2="1"><stop offset="0" stop-color="#605433"/><stop offset="1" stop-color="#BA9C62"/></linearGradient><path fill-rule="evenodd" d="M12 6h-2V4h2v2z" fill="url(#i)"/><linearGradient id="j" x1=".5" y1="0" x2=".5" y2="1"><stop offset="0" stop-color="#605433"/><stop offset="1" stop-color="#BA9C62"/></linearGradient><path fill-rule="evenodd" d="M7 11H5V9h2v2z" fill="url(#j)"/><linearGradient id="k" x1=".5" y1="0" x2=".5" y2="1"><stop offset="0" stop-color="#605433"/><stop offset="1" stop-color="#BA9C62"/></linearGradient><path fill-rule="evenodd" d="M12 11h-2V9h2v2z" fill="url(#k)"/></svg>