<svg ti:v="1" width="16" height="16" viewBox="0 0 16 16" xmlns="http://www.w3.org/2000/svg" xmlns:ti="urn:schemas-jetbrains-com:tisvg"><rect id="frame" width="16" height="16" fill="none"/><g fill-rule="evenodd"><path d="M14 9V6h2V0h-6v2H7V0H1v6h2v3H1v6h6v-2h3v2h6V9h-2z" fill="#242424"/><path d="M2 14h4v-1H3v-3H2m13 4v-4h-1v3h-3v1m4-13h-4v1h3v3h1M6 1v1H3v3H2V1h4z" fill="#C3C3C3"/><path d="M14 13H3V2h11v11z" fill="#242424"/><path d="M8 12H4V8h4v4z" fill="#C3C3C3"/><path d="M13 7H9V3h4v4z" fill="#C3C3C3"/><path d="M13 12H9V8h4v4z" fill="#C3C3C3"/><path d="M8 7H4V3h4v4z" fill="#C3C3C3"/><path d="M7 6H5V4h2v2z" fill="#282828"/><path d="M12 6h-2V4h2v2z" fill="#282828"/><path d="M7 11H5V9h2v2z" fill="#282828"/><path d="M12 11h-2V9h2v2z" fill="#282828"/></g></svg>