<svg ti:v="1" width="16" height="16" viewBox="0 0 16 16" xmlns="http://www.w3.org/2000/svg" xmlns:ti="urn:schemas-jetbrains-com:tisvg"><rect id="frame" width="16" height="16" fill="none"/><path d="M1 15V3h6.586l2-2H16v14H1z" fill="#252525"/><path d="M15 14V2h-5L8 4H2v10h13z" fill="#E9A755"/><path d="M3 13V5h5.414l2-2H14v10H3z" fill="#292929"/><path d="M4 6h3v3H4z" fill="#C4C4C4"/><path d="M5 7h1v1H5z" fill="#292929"/><path d="M7 9h3v3H7z" fill="#C4C4C4"/><path d="M8 10h1v1H8z" fill="#292929"/><path d="M10 6h3v3h-3z" fill="#C4C4C4"/><path d="M11 7h1v1h-1z" fill="#292929"/></svg>