<svg ti:v="1" width="16" height="16" viewBox="0 0 16 16" xmlns="http://www.w3.org/2000/svg" xmlns:ti="urn:schemas-jetbrains-com:tisvg"><rect id="frame" width="16" height="16" fill="none"/><linearGradient id="a" x1=".5" y1=".002" x2=".5" y2=".996"><stop offset="0" stop-color="#C28C21"/><stop offset="1" stop-color="#634933"/></linearGradient><path d="M1 15V3h6.586l2-2H16v14H1z" fill="url(#a)"/><linearGradient id="b" x1=".5" y1=".002" x2=".5" y2=".996"><stop offset="0" stop-color="#FFE9BD"/><stop offset="1" stop-color="#D4A24C"/></linearGradient><path d="M15 14V2h-5L8 4H2v10h13z" fill="url(#b)"/><linearGradient id="c" x1=".5" y1=".002" x2=".5" y2=".996"><stop offset="0" stop-color="#8A4717"/><stop offset="1" stop-color="#945E20"/></linearGradient><path d="M3 13V5h5.414l2-2H14v10H3z" fill="url(#c)"/><linearGradient id="d" x1=".5" y1=".024" x2=".5" y2="1.003"><stop offset="0" stop-color="#BEFFE5"/><stop offset="1" stop-color="#A7D7DF"/></linearGradient><path d="M4 6h3v3H4z" fill="url(#d)"/><linearGradient id="e" x1=".5" y1=".021" x2=".5" y2="1"><stop offset="0" stop-color="#465B5E"/><stop offset="1" stop-color="#1B7584"/></linearGradient><path d="M5 7h1v1H5z" fill="url(#e)"/><linearGradient id="f" x1=".5" y1=".024" x2=".5" y2="1.003"><stop offset="0" stop-color="#BEFFE5"/><stop offset="1" stop-color="#A7D7DF"/></linearGradient><path d="M7 9h3v3H7z" fill="url(#f)"/><linearGradient id="g" x1=".5" y1=".021" x2=".5" y2="1"><stop offset="0" stop-color="#465B5E"/><stop offset="1" stop-color="#1B7584"/></linearGradient><path d="M8 10h1v1H8z" fill="url(#g)"/><linearGradient id="h" x1=".5" y1=".024" x2=".5" y2="1.003"><stop offset="0" stop-color="#BEFFE5"/><stop offset="1" stop-color="#A7D7DF"/></linearGradient><path d="M10 6h3v3h-3z" fill="url(#h)"/><linearGradient id="i" x1=".5" y1=".021" x2=".5" y2="1"><stop offset="0" stop-color="#465B5E"/><stop offset="1" stop-color="#1B7584"/></linearGradient><path d="M11 7h1v1h-1z" fill="url(#i)"/></svg>