<svg ti:v="1" width="16" height="16" viewBox="0 0 16 16" xmlns="http://www.w3.org/2000/svg" xmlns:ti="urn:schemas-jetbrains-com:tisvg"><rect id="frame" width="16" height="16" fill="none"/><g fill-rule="evenodd"><path d="M4 15c-1.038 0-3-.836-3-4V9.414l-1-1V6.586l1-1V4C1 .836 2.962 0 4 0h1v3h-.824C4.118 3.096 4 3.368 4 4v7c0 .632.118.904.176 1H5v3m6 0v-3h.824c.058-.096.176-.368.176-1V4c0-.632-.118-.904-.176-1H11V0h1c1.038 0 3 .836 3 4v1.586l1 1v1.828l-1 1V11c0 3.164-1.962 4-3 4h-1z" fill="#242424"/><path d="M13 8v3c0 2-1 2-1 2v1s2 0 2-3V9l1-1V7l-1-1V4c0-3-2-3-2-3v1s1 0 1 2v3h1v1M2 7v1h1v3c0 2 1 2 1 2v1s-2 0-2-3V9L1 8V7l1-1V4c0-3 2-3 2-3v1S3 2 3 4v3H2z" fill="#C3C3C3"/><path d="M13 5H9V2H4v5h4v1H4v5h5v-3h4V5z" fill="#242424"/><path d="M8 6H5V3h3v3z" fill="#C3C3C3"/><path d="M7 5H6V4h1v1z" fill="#282828"/><path d="M12 9H9V6h3v3z" fill="#C3C3C3"/><path d="M11 8h-1V7h1v1z" fill="#282828"/><path d="M8 12H5V9h3v3z" fill="#C3C3C3"/><path d="M7 11H6v-1h1v1z" fill="#282828"/></g></svg>