<svg ti:v="1" width="16" height="16" viewBox="0 0 16 16" xmlns="http://www.w3.org/2000/svg" xmlns:ti="urn:schemas-jetbrains-com:tisvg"><rect id="frame" width="16" height="16" fill="none"/><path fill-rule="evenodd" d="M4 15c-1.038 0-3-.836-3-4V9.414l-1-1V6.586l1-1V4C1 .836 2.962 0 4 0h1v3h-.824C4.118 3.096 4 3.368 4 4v7c0 .632.118.904.176 1H5v3m6 0v-3h.824c.058-.096.176-.368.176-1V4c0-.632-.118-.904-.176-1H11V0h1c1.038 0 3 .836 3 4v1.586l1 1v1.828l-1 1V11c0 3.164-1.962 4-3 4h-1z" fill="#495E00"/><linearGradient id="a" x1=".5" y1="0" x2=".5" y2="1"><stop offset="0" stop-color="#E9FF5E"/><stop offset="1" stop-color="#C0DD00"/></linearGradient><path fill-rule="evenodd" d="M12 2s1 0 1 2v3h1v1h-1v3c0 2-1 2-1 2v1s2 0 2-3V9l1-1V7l-1-1V4c0-3-2-3-2-3M2 4v2L1 7v1l1 1v2c0 3 2 3 2 3v-1s-1 0-1-2V8H2V7h1V4c0-2 1-2 1-2V1S2 1 2 4z" fill="url(#a)"/><linearGradient id="b" x1=".5" y1=".021" x2=".5" y2="1"><stop offset="0" stop-color="#465B5D"/><stop offset="1" stop-color="#1A7585"/></linearGradient><path fill-rule="evenodd" d="M4 2v5h4v1H4v5h5v-3h4V5H9V2H4z" fill="url(#b)"/><linearGradient id="c" x1=".5" y1=".024" x2=".5" y2="1.003"><stop offset="0" stop-color="#BFFFE6"/><stop offset="1" stop-color="#A8D7DF"/></linearGradient><path fill-rule="evenodd" d="M5 6h3.001V2.999H5V6z" fill="url(#c)"/><linearGradient id="d" x1=".499" y1=".021" x2=".499" y2="1"><stop offset="0" stop-color="#465B5D"/><stop offset="1" stop-color="#1A7585"/></linearGradient><path fill-rule="evenodd" d="M6 5h1.001V4H6v1z" fill="url(#d)"/><linearGradient id="e" x1=".5" y1=".024" x2=".5" y2="1.003"><stop offset="0" stop-color="#BFFFE6"/><stop offset="1" stop-color="#A8D7DF"/></linearGradient><path fill-rule="evenodd" d="M9 9h3V6H9v3z" fill="url(#e)"/><linearGradient id="f" x1=".5" y1=".021" x2=".5" y2="1"><stop offset="0" stop-color="#465B5D"/><stop offset="1" stop-color="#1A7585"/></linearGradient><path fill-rule="evenodd" d="M10 8h1V7h-1v1z" fill="url(#f)"/><linearGradient id="g" x1=".5" y1=".024" x2=".5" y2="1.003"><stop offset="0" stop-color="#BFFFE6"/><stop offset="1" stop-color="#A8D7DF"/></linearGradient><path fill-rule="evenodd" d="M5 12h3.001V9H5v3z" fill="url(#g)"/><linearGradient id="h" x1=".499" y1=".021" x2=".499" y2="1"><stop offset="0" stop-color="#465B5D"/><stop offset="1" stop-color="#1A7585"/></linearGradient><path fill-rule="evenodd" d="M6 11h1.001v-1H6v1z" fill="url(#h)"/></svg>