<svg ti:v="1" width="16" height="16" viewBox="0 0 16 16" xmlns="http://www.w3.org/2000/svg" xmlns:ti="urn:schemas-jetbrains-com:tisvg"><rect id="frame" width="16" height="16" fill="none"/><g fill-rule="evenodd"><path d="M7 7H2V2h5v5z" fill="#F4F4F4"/><path d="M6 6H3V3h3v3z" fill="#313131"/><path d="M4 5h1V4H4v1z" fill="#EBEBEB"/><path d="M14 7H9V2h5v5z" fill="#F4F4F4"/><path d="M13 6h-3V3h3v3z" fill="#313131"/><path d="M11 5h1V4h-1v1z" fill="#EBEBEB"/><path d="M7 14H2V9h5v5z" fill="#F4F4F4"/><path d="M6 13H3v-3h3v3z" fill="#313131"/><path d="M4 12h1v-1H4v1z" fill="#EBEBEB"/><path d="M14 14H9V9h5v5z" fill="#F4F4F4"/><path d="M13 13h-3v-3h3v3z" fill="#313131"/><path d="M11 12h1v-1h-1v1z" fill="#EBEBEB"/></g></svg>