<svg ti:v="1" width="16" height="16" viewBox="0 0 16 16" xmlns="http://www.w3.org/2000/svg" xmlns:ti="urn:schemas-jetbrains-com:tisvg"><rect id="frame" width="16" height="16" fill="none"/><linearGradient id="a" x1=".5" y1=".021" x2=".5" y2="1"><stop offset="0" stop-color="#465B5D"/><stop offset="1" stop-color="#1A7585"/></linearGradient><path fill-rule="evenodd" d="M7 7H2V2h5v5z" fill="url(#a)"/><linearGradient id="b" x1=".5" y1=".024" x2=".5" y2="1.003"><stop offset="0" stop-color="#BFFFE6"/><stop offset="1" stop-color="#A8D7DF"/></linearGradient><path fill-rule="evenodd" d="M6 6H3V3h3v3z" fill="url(#b)"/><linearGradient id="c" x1=".5" y1=".021" x2=".5" y2="1"><stop offset="0" stop-color="#465B5D"/><stop offset="1" stop-color="#1A7585"/></linearGradient><path fill-rule="evenodd" d="M4 5h1V4H4v1z" fill="url(#c)"/><linearGradient id="d" x1=".5" y1=".021" x2=".5" y2="1"><stop offset="0" stop-color="#465B5D"/><stop offset="1" stop-color="#1A7585"/></linearGradient><path fill-rule="evenodd" d="M14 7H9V2h5v5z" fill="url(#d)"/><linearGradient id="e" x1=".5" y1=".024" x2=".5" y2="1.003"><stop offset="0" stop-color="#BFFFE6"/><stop offset="1" stop-color="#A8D7DF"/></linearGradient><path fill-rule="evenodd" d="M13 6h-3V3h3v3z" fill="url(#e)"/><linearGradient id="f" x1=".5" y1=".021" x2=".5" y2="1"><stop offset="0" stop-color="#465B5D"/><stop offset="1" stop-color="#1A7585"/></linearGradient><path fill-rule="evenodd" d="M11 5h1V4h-1v1z" fill="url(#f)"/><linearGradient id="g" x1=".5" y1=".021" x2=".5" y2="1"><stop offset="0" stop-color="#465B5D"/><stop offset="1" stop-color="#1A7585"/></linearGradient><path fill-rule="evenodd" d="M7 14H2V9h5v5z" fill="url(#g)"/><linearGradient id="h" x1=".5" y1=".024" x2=".5" y2="1.003"><stop offset="0" stop-color="#BFFFE6"/><stop offset="1" stop-color="#A8D7DF"/></linearGradient><path fill-rule="evenodd" d="M6 13H3v-3h3v3z" fill="url(#h)"/><linearGradient id="i" x1=".5" y1=".021" x2=".5" y2="1"><stop offset="0" stop-color="#465B5D"/><stop offset="1" stop-color="#1A7585"/></linearGradient><path fill-rule="evenodd" d="M4 12h1v-1H4v1z" fill="url(#i)"/><linearGradient id="j" x1=".5" y1=".021" x2=".5" y2="1"><stop offset="0" stop-color="#465B5D"/><stop offset="1" stop-color="#1A7585"/></linearGradient><path fill-rule="evenodd" d="M14 14H9V9h5v5z" fill="url(#j)"/><linearGradient id="k" x1=".5" y1=".024" x2=".5" y2="1.003"><stop offset="0" stop-color="#BFFFE6"/><stop offset="1" stop-color="#A8D7DF"/></linearGradient><path fill-rule="evenodd" d="M13 13h-3v-3h3v3z" fill="url(#k)"/><linearGradient id="l" x1=".5" y1=".021" x2=".5" y2="1"><stop offset="0" stop-color="#465B5D"/><stop offset="1" stop-color="#1A7585"/></linearGradient><path fill-rule="evenodd" d="M11 12h1v-1h-1v1z" fill="url(#l)"/></svg>