<svg ti:v="1" width="16" height="16" viewBox="0 0 16 16" xmlns="http://www.w3.org/2000/svg" xmlns:ti="urn:schemas-jetbrains-com:tisvg"><rect id="frame" width="16" height="16" fill="none"/><linearGradient id="a" x1=".5" y1=".013" x2=".5" y2="1"><stop offset="0" stop-color="#5672A1"/><stop offset="1" stop-color="#415980"/></linearGradient><path fill-rule="evenodd" d="M8 1C5.243 1 3 3.243 3 6v2.086L1.914 7H1v4.414L4.586 15h.828L9 11.414V7h-.914L7 8.086V6.5C7 5.673 7.673 5 8.5 5s1.5.673 1.5 1.5V14h4V6c0-2.757-2.243-5-5-5H8z" fill="url(#a)"/><linearGradient id="b" x1=".5" y1=".041" x2=".5" y2="1.017"><stop offset="0" stop-color="#8CD4FF"/><stop offset=".994" stop-color="#21A1FF"/><stop offset="1" stop-color="#21A1FF"/></linearGradient><path fill-rule="evenodd" d="M8 2a4 4 0 0 0-4 4v4.5l-2-2V11l3 3 3-3V8.5l-2 2v-4a2.5 2.5 0 1 1 5 0V13h2V6a4 4 0 0 0-4-4H8z" fill="url(#b)"/></svg>