<svg ti:v="1" width="16" height="16" viewBox="0 0 16 16" xmlns="http://www.w3.org/2000/svg" xmlns:ti="urn:schemas-jetbrains-com:tisvg"><rect id="frame" width="16" height="16" fill="none"/><g fill-rule="evenodd"><path d="M9 1H8C5.243 1 3 3.243 3 6v2.086L1.914 7H1v4.414L4.586 15h.828L9 11.414V7h-.914L7 8.086V6.5C7 5.673 7.673 5 8.5 5s1.5.673 1.5 1.5V14h4V6c0-2.757-2.243-5-5-5z" fill="#242424"/><path d="M4 10.5V6a4 4 0 0 1 4-4h1a4 4 0 0 1 4 4v7h-2V6.5a2.5 2.5 0 1 0-5 0v4l2-2V11l-3 3-3-3V8.5l2 2z" fill="#7CBDFF"/></g></svg>