<svg xmlns="http://www.w3.org/2000/svg" width="16" height="16" viewBox="0 0 16 16"><rect id="frame" width="16" height="16" fill="none"/><g fill="none" fill-rule="evenodd"><path fill="#9AA7B0" fill-opacity=".8" d="M6 14.71C3.11 13.849 1 11.17 1 8c0-3.864 3.136-7 7-7a7.003 7.003 0 0 1 6.93 7.988 3.35 3.35 0 0 0-1.526-2.461 5.6 5.6 0 1 0-6.922 6.865c-.301.336-.482.719-.482 1.15v.168zm7.773-2.752l-.053-.014c.05-.042.1-.085.15-.13a7.017 7.017 0 0 1-.097.144z"/><path fill="#9AA7B0" fill-opacity=".8" d="M13.433 6.637h-.001A5.62 5.62 0 0 0 10.1 2.812V3.1c0 .77-.63 1.4-1.4 1.4H7.3v1.4c0 .385-.315.7-.7.7H5.2V8h3.3a3.245 3.245 0 0 0 1.078 3.87c-.799.186-1.622.476-2.278.87v-.54c-.77 0-1.4-.63-1.4-1.4v-.7L2.547 6.747c-.09.405-.147.817-.147 1.25A5.602 5.602 0 0 1 8 2.4a5.605 5.605 0 0 1 5.433 4.237zm-6.95 6.755a5.602 5.602 0 0 1-2.584-1.58 5.592 5.592 0 0 0 2.587 1.576 2.483 2.483 0 0 0-.004.004zM2.4 7.997V8z"/><path fill="#9AA7B0" d="M11.5 11.5a2.25 2.25 0 1 0 .001-4.499A2.25 2.25 0 0 0 11.5 11.5z"/><path fill="#40B6E0" d="M11.5 12.625c-1.502 0-4.5.754-4.5 2.25V16h9v-1.125c0-1.496-2.998-2.25-4.5-2.25z"/></g></svg>