<svg ti:v="1" width="16" height="16" viewBox="0 0 16 16" xmlns="http://www.w3.org/2000/svg" xmlns:ti="urn:schemas-jetbrains-com:tisvg"><rect id="frame" width="16" height="16" fill="none"/><linearGradient id="a" x1=".5" y1="0" x2=".5" y2=".981"><stop offset="0" stop-color="#690000"/><stop offset="1" stop-color="#520600"/></linearGradient><path d="M15 5h-2.875c-.195-.4-.43-.779-.7-1.132L13.916 2l-1.5-2h-.833l-2.79 2.093a3.427 3.427 0 0 0-1.586 0L4.416 0h-.833l-1.5 2 2.492 1.868c-.27.353-.505.733-.7 1.132H1v9h3.471A4.388 4.388 0 0 0 8 16a4.388 4.388 0 0 0 3.529-2H15zm0 0" fill="url(#a)"/><linearGradient id="b" x1=".5" y1="-.003" x2=".5" y2=".973"><stop offset="0" stop-color="#FF7D57"/><stop offset="1" stop-color="#CF3737"/></linearGradient><path d="M4.46 13H2v-1.5h1.847c.15.52.356 1.023.613 1.5zM3.5 9c0-.084.007-.166.009-.25H2v1.5h1.585A9.448 9.448 0 0 1 3.5 9zm.512-3H2v1.5h1.626c.082-.51.212-1.013.386-1.5zm7.528 7H14v-1.5h-1.847a7.574 7.574 0 0 1-.613 1.5zm.448-7c.174.487.304.99.386 1.5H14V6zm.512 3c0 .418-.029.836-.085 1.25H14v-1.5h-1.509c.002.084.009.166.009.25zM5.676 3.444L3.483 1.8l.6-.8 2.469 1.852a4.069 4.069 0 0 0-.876.592zm4.648 0L12.517 1.8l-.6-.8-2.469 1.852c.317.158.611.357.876.592zm0 0" fill="url(#b)"/><linearGradient id="c" x1=".5" y1="-.003" x2=".5" y2=".973"><stop offset="0" stop-color="#FF8F57"/><stop offset="1" stop-color="#F02222"/></linearGradient><path d="M12 9c0 3.314-1.79 6-4 6s-4-2.686-4-6 1.79-6 4-6 4 2.686 4 6z" fill="url(#c)"/><path d="M9.078 5.092l-.253 4.871H7.162l-.24-4.871zm-1.072 7.981a1.11 1.11 0 0 1-.793-.287 1.016 1.016 0 0 1-.27-.72.972.972 0 0 1 .253-.7 1.15 1.15 0 0 1 .81-.291c.294-.012.58.09.8.286a.979.979 0 0 1 .253.707 1 1 0 0 1-.256.722 1.123 1.123 0 0 1-.797.283zm0 0" fill="#FFF"/></svg>