<svg ti:v="1" width="16" height="16" viewBox="0 0 16 16" xmlns="http://www.w3.org/2000/svg" xmlns:ti="urn:schemas-jetbrains-com:tisvg"><rect id="frame" width="16" height="16" fill="none"/><path d="M14 12.5c0 1.933-2.686 3.5-6 3.5s-6-1.567-6-3.5S4.686 9 8 9s6 1.567 6 3.5z" fill="#252525"/><path d="M13 12.5c0 1.38-2.239 2.5-5 2.5s-5-1.12-5-2.5S5.239 10 8 10s5 1.12 5 2.5z" fill="#C4C4C4"/><path d="M12 12.5c0 .828-1.79 1.5-4 1.5s-4-.672-4-1.5S5.79 11 8 11s4 .672 4 1.5z" fill="#292929"/><path d="M9 10h1.351L16 5.48v-.96L10.351 0H9v3H1v4h8v3z" fill="#252525"/><path d="M10 6v3l5-4-5-4v3H2v2h8z" fill="#F28366"/></svg>