<svg ti:v="1" width="16" height="16" viewBox="0 0 16 16" xmlns="http://www.w3.org/2000/svg" xmlns:ti="urn:schemas-jetbrains-com:tisvg"><rect id="frame" width="16" height="16" fill="none"/><path d="M6 0h10v16H6z" fill="#252525"/><path d="M15 4H7v2h8zm0-3H7v2h8zm0 9H7v2h8zm0 3H7v2h8zm0 0" fill="#C4C4C4"/><path d="M7 7h8v2H7z" fill="#7CBEFF"/><path d="M9 7.586L5.414 4H3v1.236L3.382 6H0v4h3.382L3 10.764V12h2.414L9 8.414v-.828z" fill="#252525"/><path d="M4 5l1 2H1v2h4l-1 2h1l3-3-3-3H4z" fill="#7CBEFF"/></svg>