<svg ti:v="1" width="16" height="16" viewBox="0 0 16 16" xmlns="http://www.w3.org/2000/svg" xmlns:ti="urn:schemas-jetbrains-com:tisvg"><rect id="frame" width="16" height="16" fill="none"/><linearGradient id="a" x1=".5" y1=".007" x2=".5" y2=".993"><stop offset="0" stop-color="#395A85"/><stop offset="1" stop-color="#273D5A"/></linearGradient><path d="M6 0h10v16H6z" fill="url(#a)"/><linearGradient id="b" x1="1" y1=".5" x2="0" y2=".5"><stop offset="0" stop-color="#85B5FF"/><stop offset="1" stop-color="#C7EAFF"/></linearGradient><path d="M15 4H7v2h8zm0-3H7v2h8zm0 9H7v2h8zm0 3H7v2h8zm0 0" fill="url(#b)"/><linearGradient id="c" x1=".5" y1="0" x2=".5" y2="1"><stop offset="0" stop-color="#FFFAA3"/><stop offset="1" stop-color="#FFD103"/></linearGradient><path d="M7 7h8v2H7z" fill="url(#c)"/><linearGradient id="d" x1=".5" y1="0" x2=".5" y2="1"><stop offset=".191" stop-color="#375781"/><stop offset="1" stop-color="#005C23"/></linearGradient><path d="M9 7.586L5.414 4H3v1.236L3.382 6H0v4h3.382L3 10.764V12h2.414L9 8.414v-.828z" fill="url(#d)"/><linearGradient id="e" x1=".5" y1="0" x2=".5" y2="1"><stop offset="0" stop-color="#FFFAA3"/><stop offset="1" stop-color="#FFD103"/></linearGradient><path d="M4 5l1 2H1v2h4l-1 2h1l3-3-3-3H4z" fill="url(#e)"/></svg>