<svg ti:v="1" width="16" height="16" viewBox="0 0 16 16" xmlns="http://www.w3.org/2000/svg" xmlns:ti="urn:schemas-jetbrains-com:tisvg"><rect id="frame" width="16" height="16" fill="none"/><path d="M12 12.5c0 1.933-2.686 3.5-6 3.5s-6-1.567-6-3.5S2.686 9 6 9s6 1.567 6 3.5z" fill="#252525"/><path d="M11 12.5c0 1.38-2.239 2.5-5 2.5s-5-1.12-5-2.5S3.239 10 6 10s5 1.12 5 2.5z" fill="#C4C4C4"/><path d="M10 12.5c0 .828-1.79 1.5-4 1.5s-4-.672-4-1.5S3.79 11 6 11s4 .672 4 1.5z" fill="#292929"/><path d="M16 4.52L10.351 0H9v3H0v4h3a1 1 0 0 1 1 1H1v1.351L4.72 14h2.56l3.431-4.288L16 5.48zM9 8H8a4.842 4.842 0 0 0-.1-1H9zm0 0" fill="#252525"/><path d="M10 1v3H1v2h2a2 2 0 0 1 2 2v1H2l3.2 4h1.6L10 9H7V8a3.953 3.953 0 0 0-.557-2H10v3l5-4zm0 0" fill="#7CBEFF"/></svg>