<svg ti:v="1" width="16" height="16" viewBox="0 0 16 16" xmlns="http://www.w3.org/2000/svg" xmlns:ti="urn:schemas-jetbrains-com:tisvg"><rect id="frame" width="16" height="16" fill="none"/><path d="M13 12.5c0 1.933-2.686 3.5-6 3.5s-6-1.567-6-3.5S3.686 9 7 9s6 1.567 6 3.5z" fill="#F4F4F4"/><path d="M12 12.5c0 1.38-2.239 2.5-5 2.5s-5-1.12-5-2.5S4.239 10 7 10s5 1.12 5 2.5z" fill="#323232"/><path d="M11 12.5c0 .828-1.79 1.5-4 1.5s-4-.672-4-1.5S4.79 11 7 11s4 .672 4 1.5z" fill="#EBEBEB"/><path d="M16 4.52L10.351 0H9v3.1A5.01 5.01 0 0 0 5 8v5h4v-1.919l7-5.6zm0 0" fill="#F4F4F4"/><path d="M10 4a4.007 4.007 0 0 0-4 4v4h2V8a2 2 0 0 1 2-2v3l5-4-5-4zm0 0" fill="#00539C"/></svg>