<svg ti:v="1" width="16" height="16" viewBox="0 0 16 16" xmlns="http://www.w3.org/2000/svg" xmlns:ti="urn:schemas-jetbrains-com:tisvg"><rect id="frame" width="16" height="16" fill="none"/><path d="M15 12.5c0 1.933-2.686 3.5-6 3.5s-6-1.567-6-3.5S5.686 9 9 9s6 1.567 6 3.5z" fill="#F4F4F4"/><path d="M14 12.5c0 1.38-2.239 2.5-5 2.5s-5-1.12-5-2.5S6.239 10 9 10s5 1.12 5 2.5z" fill="#323232"/><path d="M13 12.5c0 .828-1.79 1.5-4 1.5s-4-.672-4-1.5S6.79 11 9 11s4 .672 4 1.5z" fill="#EBEBEB"/><path d="M14 8h-3a5.009 5.009 0 0 0-5-5H1v4h5a1 1 0 0 1 1 1H4v1.351L7.72 14h2.56L14 9.351zm0 0" fill="#F4F4F4"/><path d="M5 9l3.2 4h1.6L13 9h-3V8a4.007 4.007 0 0 0-4-4H2v2h4a2 2 0 0 1 2 2v1zm0 0" fill="#00539C"/></svg>