<svg xmlns="http://www.w3.org/2000/svg" width="16" height="16" viewBox="0 0 16 16">
  <g fill="#FC390E" fill-rule="evenodd" transform="translate(2 1)">
    <g transform="translate(.466 .916)">
      <path stroke="#000" stroke-linejoin="round" stroke-width="1.044" d="M2.67740529,2.57737637 L1.04107462,10.1167655 C0.943835596,10.4201752 0.795713519,10.4039763 0.465101718,10.4177679 L0.42620611,12.1347943 L3.14889117,12.1244697 C3.67722165,12.0934413 4.00648927,11.7748435 4.2236559,10.9887389 L6.04923205,2.57737637 L2.67740529,2.57739811 L2.67740529,2.57737637 Z M3.22965907,0.0328650782 L2.81210138,1.95676002 L6.18392814,1.95676002 L6.60148583,0.0328650782 L3.22965907,0.0328650782 Z"/>
      <path d="M2.67740529,2.57737637 L1.04107462,10.1167655 C0.943835596,10.4201752 0.795713519,10.4039763 0.465101718,10.4177679 L0.42620611,12.1347943 L3.14889117,12.1244697 C3.67722165,12.0934413 4.00648927,11.7748435 4.2236559,10.9887389 L6.04923205,2.57737637 L2.67740529,2.57739811 L2.67740529,2.57737637 Z M3.22965907,0.0328650782 L2.81210138,1.95676002 L6.18392814,1.95676002 L6.60148583,0.0328650782 L3.22965907,0.0328650782 Z"/>
    </g>
    <g transform="translate(5.679 3.366)">
      <path stroke="#000" stroke-linejoin="round" stroke-width="1.044" d="M1.80051673,0.403760093 L1.22132261,3.07239031 L4.60522979,3.07239031 L5.18442442,0.403760093 L1.80051673,0.403760093 Z M0.871115521,4.68597979 L0.291921398,7.35461001 L3.675825,7.35461001 L4.25501912,4.68597979 L0.871115521,4.68597979 Z"/>
      <path d="M1.80051673,0.403760093 L1.22132261,3.07239031 L4.60522979,3.07239031 L5.18442442,0.403760093 L1.80051673,0.403760093 Z M0.871115521,4.68597979 L0.291921398,7.35461001 L3.675825,7.35461001 L4.25501912,4.68597979 L0.871115521,4.68597979 Z"/>
    </g>
  </g>
</svg>
