<svg xmlns="http://www.w3.org/2000/svg" width="16" height="16" viewBox="0 0 16 16"><rect id="frame" width="16" height="16" fill="none"/><g fill="#FC390E" fill-rule="evenodd"><path stroke="#000" stroke-linejoin="round" stroke-width="1.044" d="M5.143 4.493l-1.636 7.54c-.097.303-.245.287-.576.3l-.039 1.718 2.723-.01c.528-.032.857-.35 1.075-1.136l1.825-8.412H5.143h0zm.553-2.544l-.418 1.924H8.65l.417-1.924H5.696z"/><path d="M5.143 4.493l-1.636 7.54c-.097.303-.245.287-.576.3l-.039 1.718 2.723-.01c.528-.032.857-.35 1.075-1.136l1.825-8.412H5.143zm.553-2.544l-.418 1.924H8.65l.417-1.924H5.696z"/><g><path stroke="#000" stroke-linejoin="round" stroke-width="1.044" d="M9.48 4.77L8.9 7.438h3.384l.58-2.668H9.48zm-.93 4.282l-.58 2.669h3.385l.579-2.669H8.55z"/><path d="M9.48 4.77L8.9 7.438h3.384l.58-2.668H9.48zm-.93 4.282l-.58 2.669h3.385l.579-2.669H8.55z"/></g></g></svg>