<svg xmlns="http://www.w3.org/2000/svg" width="40" height="40" viewBox="0 0 40 40"><rect id="frame" width="40" height="40" fill="none"/><defs><linearGradient id="a" x1="25.128%" x2="93.922%" y1="25.805%" y2="71.353%"><stop offset="0%" stop-color="#15DD69"/><stop offset="100%" stop-color="#6B57FF"/></linearGradient></defs><g fill="none" fill-rule="evenodd"><path fill="url(#a)" d="M7 21l12 7v6.3l-12-7V21zm24 0v5h-5v4.216L19 34.3V28l12-7zM19 5l17.998 9.499.002.001V26h-3v-9.833L19 24.5l-18-10L19 5z"/><g fill-rule="nonzero"><path fill="#000" d="M27 40h13V27H27z"/><path fill="#FFF" d="M33.93 32.802l.771-.86c.534.41 1.094.671 1.77.671.535 0 .857-.197.857-.522v-.016c0-.306-.203-.464-1.195-.702-1.195-.283-1.967-.593-1.967-1.69v-.015c0-1.004.866-1.668 2.076-1.668.866 0 1.603.255 2.206.704l-.68.916c-.524-.34-1.04-.544-1.541-.544-.5 0-.764.212-.764.481v.015c0 .364.255.484 1.281.727 1.204.292 1.882.696 1.882 1.66v.015c0 1.097-.9 1.714-2.18 1.714-.899 0-1.805-.293-2.517-.886zm-2.654-1.936c.635 0 1.006-.365 1.006-.843v-.016c0-.549-.396-.843-1.031-.843h-.98v1.702h1.005zM29 28h2.412c1.407 0 2.258.806 2.258 1.966v.017c0 1.316-1.062 1.998-2.385 1.998h-.987v1.706H29V28z"/><path fill="#FFF" d="M29 36h6v1.5h-6z"/></g></g></svg>