<svg xmlns="http://www.w3.org/2000/svg" width="40" height="40" viewBox="0 0 40 40">
  <defs>
    <linearGradient id="phpstormworkshop-a" x1="25.128%" x2="93.922%" y1="25.805%" y2="71.353%">
      <stop offset="0%" stop-color="#15DD69"/>
      <stop offset="100%" stop-color="#6B57FF"/>
    </linearGradient>
  </defs>
  <g fill="none" fill-rule="evenodd">
    <path fill="url(#phpstormworkshop-a)" d="M7,21 L19,28 L19,34.3 L7,27.3 L7,21 Z M31,21 L31,26 L26,26 L26,30.216 L19,34.3 L19,28 L31,21 Z M19,5 L36.998,14.499 L37,14.5 L37,26 L34,26 L34,16.167 L19,24.5 L1,14.5 L19,5 Z"/>
    <g fill-rule="nonzero" transform="translate(27 27)">
      <polygon fill="#000" points="0 13 13 13 13 0 0 0"/>
      <path fill="#FFF" d="M6.92916666,5.80245868 L7.70117158,4.94221942 C8.23498987,5.35210581 8.795429,5.61317993 9.47075817,5.61317993 C10.0059776,5.61317993 10.3282301,5.41606896 10.3282301,5.09103167 L10.3282301,5.07536722 C10.3282301,4.76860512 10.1250709,4.61065526 9.13309358,4.37307781 C7.93795712,4.08981238 7.1659522,3.78043951 7.1659522,2.68392816 L7.1659522,2.66826372 C7.1659522,1.66443367 8.03183068,1 9.24237922,1 C10.1082577,1 10.8452352,1.25454728 11.4477072,1.70359479 L10.7681748,2.619965 C10.2441642,2.28056862 9.72715907,2.07562543 9.22696715,2.07562543 C8.72677522,2.07562543 8.46336881,2.28840085 8.46336881,2.55730721 L8.46336881,2.57166628 C8.46336881,2.93586469 8.71836862,3.05595879 9.74397224,3.29875774 C10.9475153,3.59116078 11.6256467,3.99452031 11.6256467,4.95918924 L11.6256467,4.97354831 C11.6256467,6.07136503 10.7261418,6.6875 9.4469395,6.6875 C8.54743468,6.6875 7.64092438,6.39509696 6.92916666,5.80245868 L6.92916666,5.80245868 Z M4.27633824,3.86577998 C4.91146471,3.86577998 5.28242353,3.500529 5.28242353,3.02269173 L5.28242353,3.00698202 C5.28242353,2.458451 4.88617206,2.16389379 4.25104558,2.16389379 L3.27025295,2.16389379 L3.27025295,3.86577998 L4.27633824,3.86577998 Z M2,1 L4.41166952,1 C5.81931461,1 6.66964716,1.80561764 6.66964716,2.96586764 L6.66964716,2.98326471 C6.66964716,4.29875 5.60816784,4.98125 4.28526873,4.98125 L3.29848079,4.98125 L3.29848079,6.6875 L2,6.6875 L2,1 Z"/>
      <rect width="6" height="1.5" x="2" y="9" fill="#FFF"/>
    </g>
  </g>
</svg>
