<svg xmlns="http://www.w3.org/2000/svg" width="16" height="16" viewBox="0 0 16 16">
  <g fill="none" fill-rule="evenodd">
    <rect width="7" height="2" x="8" y="7" fill="#AFB1B3"/>
    <rect width="2.5" height="4" x="11.5" y="8" fill="#AFB1B3"/>
    <path fill="#AFB1B3" d="M5,12 C2.790861,12 1,10.209139 1,8 C1,5.790861 2.790861,4 5,4 C7.209139,4 9,5.790861 9,8 C9,10.209139 7.209139,12 5,12 Z M5,9.5 C5.82842712,9.5 6.5,8.82842712 6.5,8 C6.5,7.17157288 5.82842712,6.5 5,6.5 C4.17157288,6.5 3.5,7.17157288 3.5,8 C3.5,8.82842712 4.17157288,9.5 5,9.5 Z"/>
  </g>
</svg>
