<svg xmlns="http://www.w3.org/2000/svg" width="16" height="16" viewBox="0 0 16 16">
  <g fill="none" fill-rule="evenodd">
    <rect width="15" height="7" x="1" y="9" fill="#62B543" fill-opacity=".7" fill-rule="nonzero"/>
    <polygon fill="#9AA7B0" fill-opacity=".8" points="7 1 3 5 7 5"/>
    <polygon fill="#9AA7B0" fill-opacity=".8" points="8 1 8 5 8 6 7 6 3 6 3 8 13 8 13 1"/>
    <polygon fill="#231F20" fill-opacity=".7" points="1 1.001 3 1.001 3 0 0 0 0 5 1 5 1 3 2.8 3 2.8 2 1 2" transform="translate(3 10)"/>
    <polygon fill="#231F20" fill-opacity=".7" points="2 1 .5 1 .5 0 4.5 0 4.5 1 3 1 3 5 2 5" transform="translate(6 10)"/>
    <path fill="#231F20" fill-opacity=".7" d="M1.9,2.5 C2.564,2.5 3,2.38439941 3,1.75 C3,1.11560059 2.557,1 1.9,1 L1,1 L1,2.5 L1.9,2.5 Z M0,0 L1.971,0 C3.142,0 4,0.642 4,1.65 C4,3.28582764 2.971,3.5 1.872,3.5 L1,3.5 L1,5 L0,5 L0,0 Z" transform="translate(11 10)"/>
  </g>
</svg>
