<svg xmlns="http://www.w3.org/2000/svg" width="16" height="16" viewBox="0 0 16 16"><rect id="frame" width="16" height="16" fill="none"/><g fill="none" fill-rule="evenodd"><path fill="#62B543" fill-opacity=".7" fill-rule="nonzero" d="M1 9h15v7H1z"/><path fill="#9AA7B0" fill-opacity=".8" d="M7 1L3 5h4z"/><path fill="#9AA7B0" fill-opacity=".8" d="M8 1v5H3v2h10V1z"/><path fill="#231F20" fill-opacity=".7" d="M4 11.001h2V10H3v5h1v-2h1.8v-1H4z"/><path fill="#231F20" fill-opacity=".7" d="M8 11H6.5v-1h4v1H9v4H8z"/><path fill="#231F20" fill-opacity=".7" d="M12.9 12.5c.664 0 1.1-.116 1.1-.75s-.443-.75-1.1-.75H12v1.5h.9zM11 10h1.971c1.171 0 2.029.642 2.029 1.65 0 1.636-1.029 1.85-2.128 1.85H12V15h-1v-5z"/></g></svg>