<svg xmlns="http://www.w3.org/2000/svg" width="16" height="16" viewBox="0 0 16 16">
  <g fill="none" fill-rule="evenodd">
    <rect width="15" height="7" x="1" y="9" fill="#40B6E0" fill-opacity=".7" fill-rule="nonzero"/>
    <polygon fill="#9AA7B0" fill-opacity=".8" fill-rule="nonzero" points="7 1 3 5 7 5"/>
    <polygon fill="#9AA7B0" fill-opacity=".8" fill-rule="nonzero" points="8 1 8 5 8 6 7 6 3 6 3 8 13 8 13 1"/>
    <polygon fill="#231F20" fill-opacity=".7" points="1 1.001 2.8 1.001 2.8 0 0 0 0 5 1 5 1 3 2.8 3 2.8 2 1 2" transform="translate(2 10)"/>
    <polygon fill="#231F20" fill-opacity=".7" points="1.3 1 0 1 0 0 3.6 0 3.6 1 2.3 1 2.3 5 1.3 5" transform="translate(5 10)"/>
    <path fill="#231F20" fill-opacity=".7" d="M1.3,2.5 C1.964,2.5 2.4,2.38439941 2.4,1.75 C2.4,1.11560059 1.957,1 1.3,1 L1,1 L1,2.5 L1.3,2.5 Z M0,0 L1.371,0 C2.542,0 3.4,0.642 3.4,1.65 C3.4,3.28582764 2.371,3.5 1.272,3.5 L1,3.5 L1,5 L0,5 L0,0 Z" transform="translate(8.8 10)"/>
    <path fill="#231F20" fill-opacity=".7" d="M0.972767969,1.50152588 C0.972767969,1.13305664 1.284,1 1.845,1 C1.85033333,1 2.23533333,1 3,1 L3,0 C2.26266667,0 1.88266667,0 1.86,0 C0.778,0 0,0.45916748 0,1.45 C0,2.31452637 0.419555664,2.69049072 1.47125244,2.91607666 C2.24158869,3.08131157 2.496155,3.22862939 2.496155,3.548 C2.496155,3.86737061 2.13842773,4 1.47125244,4 C1.46058577,4 1.07016829,4 0.3,4 L0.3,5 C1.07550163,5 1.46591911,5 1.47125244,5 C3.5,5 3.5,4 3.5,3.548 C3.5,2.91607666 3.02026367,2.42071533 2.15869141,2.14685059 C1.29711914,1.87298584 0.972767969,1.86999512 0.972767969,1.50152588 Z" transform="translate(12.4 10)"/>
  </g>
</svg>
