<svg xmlns="http://www.w3.org/2000/svg" width="16" height="16" viewBox="0 0 16 16"><rect id="frame" width="16" height="16" fill="none"/><g fill="none" fill-rule="evenodd"><path fill="#40B6E0" fill-opacity=".7" fill-rule="nonzero" d="M1 9h15v7H1z"/><path fill="#9AA7B0" fill-opacity=".8" fill-rule="nonzero" d="M7 1L3 5h4z"/><path fill="#9AA7B0" fill-opacity=".8" fill-rule="nonzero" d="M8 1v5H3v2h10V1z"/><path fill="#231F20" fill-opacity=".7" d="M3 11.001h1.8V10H2v5h1v-2h1.8v-1H3z"/><path fill="#231F20" fill-opacity=".7" d="M6.3 11H5v-1h3.6v1H7.3v4h-1z"/><path fill="#231F20" fill-opacity=".7" d="M10.1 12.5c.664 0 1.1-.116 1.1-.75s-.443-.75-1.1-.75h-.3v1.5h.3zM8.8 10h1.371c1.171 0 2.029.642 2.029 1.65 0 1.636-1.029 1.85-2.128 1.85H9.8V15h-1v-5z"/><path fill="#231F20" fill-opacity=".7" d="M13.373 11.502c0-.369.311-.502.872-.502H15.4v-1h-1.14c-1.082 0-1.86.46-1.86 1.45 0 .865.42 1.24 1.471 1.466.77.165 1.025.313 1.025.632 0 .32-.358.452-1.025.452H12.7v1h1.171c2.029 0 2.029-1 2.029-1.452 0-.632-.48-1.127-1.341-1.401-.862-.274-1.186-.277-1.186-.645z"/></g></svg>