<svg ti:v="1" width="16" height="16" viewBox="0 0 16 16" xmlns="http://www.w3.org/2000/svg" xmlns:ti="urn:schemas-jetbrains-com:tisvg"><rect id="frame" width="16" height="16" fill="none"/><linearGradient id="a" x1=".5" y1=".002" x2=".5" y2=".998"><stop offset="0" stop-color="#2FA322"/><stop offset="1" stop-color="#096600"/></linearGradient><path fill-rule="evenodd" d="M.625 1.073L0 1.326V2c0 6.994 2.842 8.997 5.424 10.817l.334.183H6V0C4.117 0 1.943.539.625 1.073z" fill="url(#a)"/><linearGradient id="b" x1=".5" y1="-.002" x2=".5" y2=".998"><stop offset="0" stop-color="#9C6400"/><stop offset="1" stop-color="#624700"/></linearGradient><path fill-rule="evenodd" d="M6 13h.316l.334-.235C9.157 10.997 12 8.994 12 2v-.674l-.625-.253C10.057.539 7.882 0 6 0v13z" fill="url(#b)"/><linearGradient id="c" x1=".5" y1=".025" x2=".5" y2="1"><stop offset="0" stop-color="#DFFFDF"/><stop offset="1" stop-color="#11B811"/></linearGradient><path fill-rule="evenodd" d="M1 2c0 6.542 2.594 8.304 5 10V1c-1.699 0-3.746.492-5 1z" fill="url(#c)"/><linearGradient id="d" x1=".5" y1=".025" x2=".5" y2="1"><stop offset="0" stop-color="#FFF2D8"/><stop offset="1" stop-color="#A36221"/></linearGradient><path fill-rule="evenodd" d="M6 12c2.405-1.696 5-3.458 5-10-1.254-.508-3.302-1-5-1v11z" fill="url(#d)"/><linearGradient id="e" x1=".5" y1="0" x2=".5" y2="1.016"><stop offset="0" stop-color="#49FF35"/><stop offset="1" stop-color="#35BA26"/></linearGradient><path fill-rule="evenodd" d="M2 2.697c.153 4.975 1.967 6.619 3.999 8.077L6 10.773V2c-1.333 0-2.88.329-4 .697z" fill="url(#e)"/><linearGradient id="f" x1=".5" y1=".031" x2=".5" y2="1.031"><stop offset="0" stop-color="#FFB600"/><stop offset="1" stop-color="#A86400"/></linearGradient><path fill-rule="evenodd" d="M6 10.773c2.065-1.486 3.848-3.148 4-8.076C8.88 2.329 7.333 2 6 2v8.773z" fill="url(#f)"/><linearGradient id="g" x1=".5" y1=".997" x2=".5" y2="-.003"><stop offset="0" stop-color="#0078DB"/><stop offset="1" stop-color="#002CAF"/></linearGradient><path fill-rule="evenodd" d="M10 6v3.586L9.414 9H8v3.414L11.586 16h.828L16 12.414V9h-1.414L14 9.586V6h-4z" fill="url(#g)"/><linearGradient id="h" x1=".5" y1=".009" x2=".5" y2="1.009"><stop offset="0" stop-color="#FFF"/><stop offset=".988" stop-color="#78E9FF"/><stop offset="1" stop-color="#78E9FF"/></linearGradient><path fill-rule="evenodd" d="M11 7v5l-2-2v2l3 3 3-3v-2l-2 2V7h-2z" fill="url(#h)"/></svg>