<svg ti:v="1" width="16" height="16" viewBox="0 0 16 16" xmlns="http://www.w3.org/2000/svg" xmlns:ti="urn:schemas-jetbrains-com:tisvg"><rect id="frame" width="16" height="16" fill="none"/><g fill-rule="evenodd"><path d="M.625 1.073L0 1.326V2c0 6.993 2.843 8.997 5.424 10.817l.334.183H6V0C4.117 0 1.943.539.625 1.073z" fill="#242424"/><path d="M6.649 12.765C9.157 10.997 12 8.994 12 2v-.674l-.625-.253C10.056.539 7.882 0 6 0v13h.316l.333-.235z" fill="#242424"/><path d="M6 12C3.594 10.304 1 8.542 1 2c1.254-.508 3.302-1 5-1v11z" fill="#C3C3C3"/><path d="M6 12c2.406-1.696 5-3.458 5-10-1.254-.508-3.302-1-5-1v11z" fill="#C3C3C3"/><path d="M2 2.696c.153 4.976 1.966 6.62 3.999 8.078L6 10.773V2c-1.333 0-2.88.329-4 .696z" fill="#C3C3C3"/><path d="M10 2.696C8.88 2.329 7.333 2 6 2v8.773c2.065-1.486 3.848-3.148 4-8.077z" fill="#282828"/><path d="M14 9.586L14.586 9H16v3.414L12.414 16h-.828L8 12.414V9h1.414l.586.586V6h4v3.586z" fill="#242424"/><path d="M15 10l-2 2V7h-2v5l-2-2v2l3 3 3-3v-2z" fill="#7CBDFF"/></g></svg>