<svg width="16" height="16" viewBox="0 0 16 16" fill="none" xmlns="http://www.w3.org/2000/svg">
<path d="M16 0H0V16H16V0Z" fill="black"/>
<path d="M9.6 4.5L7 15H15V11.1V6.3V4.5H9.6ZM13.2 13.3H9.2L9.6 11.6H13.2V13.3Z" fill="#6B57FF"/>
<path d="M1 1V4.9V9.7V11.5H6.4L9 1H1ZM5.3 9.8H2.8V8H5.8L5.3 9.8Z" fill="#3BEA62"/>
    <path fill-rule="evenodd" clip-rule="evenodd" d="M3 16H16V10H3V16Z" fill="#D99E2B"/>
    <path fill-rule="evenodd" clip-rule="evenodd" d="M4 10.8572H7V11.5429H4.8V12.5715H6.5V13.2572H4.8V14.4572H6.998V15.1429H4V10.8572Z" fill="black"/>
    <path fill-rule="evenodd" clip-rule="evenodd" d="M14.2 12.322C14.2 12.7463 14.0134 13.072 13.5554 13.072H12.8V11.5352H13.4364C13.9834 11.5352 14.16 11.7863 14.2 12.178V12.322ZM11.9974 10.8572V15.1429H12.8V13.75H13.3954C14.3114 13.7655 15.0004 13.1243 15.0004 12.3932V12.2157C15.0004 11.4229 14.3694 10.8572 13.5474 10.8572H11.9974Z" fill="black"/>
    <path fill-rule="evenodd" clip-rule="evenodd" d="M8.80076 13.4286L9.52076 11.7495L10.2798 13.4286H8.80076ZM9.87976 10.8572H9.15976L7.28076 15.1429H8.03976L8.48076 14.1143H10.5188L10.9598 15.1429H11.7578L9.87976 10.8572Z" fill="black"/>
</svg>