<svg xmlns="http://www.w3.org/2000/svg" width="50" height="18" viewBox="0 0 50 18">
  <title>MenuToggleOff(GrayDark)</title>
  <g>
    <rect x="16" y="-16" width="18" height="50" rx="4" ry="4" transform="translate(34 -16) rotate(90)" fill="#252525"/>
    <rect x="17" y="-15" width="16" height="48" rx="3" ry="3" transform="translate(34 -16) rotate(90)" fill="#6b6b6b"/>
    <rect x="2.5" y="1.5" width="14" height="15" rx="2" ry="2" transform="translate(18.5 -0.5) rotate(90)" fill="#d8d8d8"/>
    <path d="M37.317,6.127h-2.99v2.4h2.757V9.653H34.327V13H33V5h4.317Zm6-1.127H39v8h1.327V9.653h2.757V8.531H40.327v-2.4h2.99ZM31,8.9a4.656,4.656,0,0,1-.96,3.1,3.192,3.192,0,0,1-2.568,1.138,3.138,3.138,0,0,1-2.525-1.122A4.359,4.359,0,0,1,24,9.1a4.637,4.637,0,0,1,.965-3.08,3.251,3.251,0,0,1,2.623-1.149,3.072,3.072,0,0,1,2.474,1.116A4.376,4.376,0,0,1,31,8.9Zm-1.065.128a3.838,3.838,0,0,0-.628-2.336,2.113,2.113,0,0,0-1.78-.861,2.161,2.161,0,0,0-1.787.9,3.667,3.667,0,0,0-.67,2.282,3.7,3.7,0,0,0,.65,2.267,2.1,2.1,0,0,0,1.758.895,2.177,2.177,0,0,0,1.808-.853A3.648,3.648,0,0,0,29.935,9.028Z" fill="#d8d8d8"/>
  </g>
</svg>
