<svg xmlns="http://www.w3.org/2000/svg" xmlns:xlink="http://www.w3.org/1999/xlink" width="40" height="40" viewBox="0 0 40 40"><rect id="frame" width="40" height="40" fill="none"/><defs><path id="a" d="M.001.001H32V32H.001z"/></defs><g fill="none" fill-rule="evenodd" transform="translate(4 4)"><mask id="b" fill="#fff"><use xlink:href="#a"/></mask><path fill="#000" d="M6.25 19.438c-.083-.083-.083-.168 0-.25A.674.674 0 0 1 6.875 19c.25.041.396.084.438.125.292.125.615.407.968.843.354.439.635.74.845.907 1 .834 2.02.895 3.062.188a1.88 1.88 0 0 1 .405-.75c.188-.208.366-.354.531-.438.167-.084.46-.209.877-.375-1.377-.125-2.49-.364-3.345-.718-.854-.355-1.532-.802-2.032-1.345-.666-.75-1.072-1.729-1.219-2.937-.144-1.209-.05-2.313.282-3.313A5.51 5.51 0 0 1 8.75 9.5c-.333-1.04-.27-2.229.188-3.562 1.335.083 2.543.542 3.626 1.375 2.083-.542 4.25-.563 6.5-.063.292-.207.74-.467 1.343-.78.605-.313 1.366-.49 2.282-.532.167.458.28 1 .343 1.625a5.359 5.359 0 0 1-.093 1.75c.959 1 1.459 2.334 1.5 4 0 1.334-.23 2.438-.688 3.313-.459.875-1.27 1.605-2.438 2.188-.79.375-1.832.604-3.125.687.584.291 1.01.593 1.281.907.271.311.448.802.532 1.468v1.968l.063 1.907c.125.209.27.386.438.532.165.145.313.25.438.311.123.064.166.157.123.282-.04.125-.207.188-.498.188-.71 0-1.273-.25-1.689-.75a1.43 1.43 0 0 1-.186-.75v-3c0-.333-.084-.573-.25-.72a1.24 1.24 0 0 0-.5-.28V25.5c0 .709.082 1.166.25 1.375.166.209.27.416.311.625.041.041.01.073-.093.093-.105.021-.282-.01-.532-.093-.541-.125-.916-.407-1.125-.843a3.224 3.224 0 0 1-.311-1.407v-3.875h-.813v3.875c0 .5-.104.98-.313 1.438-.292.582-.834.896-1.626.938-.124-.043-.186-.085-.186-.126.04-.041.165-.25.375-.625.04-.084.094-.25.155-.5.063-.25.095-.541.095-.875v-3.938a1.021 1.021 0 0 0-.47.281c-.146.146-.219.387-.219.72v3c0 .292-.061.542-.186.75-.375.5-.938.75-1.688.75-.292 0-.459-.063-.5-.188-.042-.084-.032-.157.031-.218.063-.064.157-.137.282-.22.125-.082.208-.146.25-.188.165-.124.29-.29.375-.5.125-.165.155-.604.094-1.311-.064-.708-.074-1.168-.033-1.375-1.082.375-2.186.188-3.311-.563-.335-.334-.667-.813-1-1.438-.25-.457-.75-1-1.5-1.625M1.75 16c0 3.917 1.396 7.271 4.188 10.063C8.729 28.855 12.084 30.25 16 30.25c3.916 0 7.271-1.395 10.063-4.188C28.855 23.27 30.25 19.916 30.25 16c0-3.915-1.396-7.27-4.189-10.062C23.273 3.146 19.916 1.75 16 1.75c-3.916 0-7.27 1.396-10.061 4.188C3.147 8.73 1.75 12.084 1.75 15.998M0 16C0 11.584 1.563 7.813 4.69 4.688 7.812 1.563 11.584 0 16 0s8.188 1.563 11.313 4.688S32 11.584 32 15.998c0 4.417-1.563 8.188-4.688 11.313S20.416 32.002 16 32.002c-4.416 0-8.188-1.563-11.311-4.688C1.563 24.188 0 20.416 0 16" mask="url(#b)"/></g></svg>