<svg xmlns="http://www.w3.org/2000/svg" width="16" height="16" viewBox="0 0 16 16"><rect id="frame" width="16" height="16" fill="none"/><g fill="none" fill-rule="evenodd"><g fill-opacity=".9" fill-rule="nonzero"><path fill="#40A0CF" d="M8.491 3.878c-.35 0-.701.03-1.047.089-.928.162-1.097.501-1.097 1.127v.827H8.54v.275H5.524a1.366 1.366 0 0 0-1.37 1.1 4.011 4.011 0 0 0 0 2.204c.06.606.558 1.075 1.166 1.1h.754v-.991a1.386 1.386 0 0 1 1.37-1.347h2.19a1.099 1.099 0 0 0 1.096-1.103V5.094a1.217 1.217 0 0 0-1.096-1.127 6.913 6.913 0 0 0-1.143-.089zm-1.186.665a.413.413 0 1 1 .004.827.413.413 0 0 1-.004-.827z"/><path fill="#FFC900" d="M11.004 6.196v.963a1.399 1.399 0 0 1-1.37 1.376h-2.19a1.112 1.112 0 0 0-1.097 1.102v2.065a1.27 1.27 0 0 0 1.096 1.102c.714.22 1.477.22 2.19 0a1.251 1.251 0 0 0 1.097-1.102v-.827H8.54V10.6h3.286c.638 0 .875-.44 1.097-1.1a3.683 3.683 0 0 0 0-2.204 1.17 1.17 0 0 0-1.097-1.1h-.822zm-1.232 5.23a.413.413 0 1 1 .003.827.413.413 0 0 1-.003-.827z"/></g><path fill="#9AA7B0" fill-opacity=".8" d="M15.278 5h-1.845A5.819 5.819 0 0 0 8.5 2.3C5.297 2.3 2.7 4.852 2.7 8s2.597 5.7 5.8 5.7c1.617 0 3.08-.65 4.132-1.7h2.024c-1.356 1.813-3.607 3-6.156 3C4.358 15 1 11.866 1 8s3.358-7 7.5-7c2.992 0 5.575 1.635 6.778 4z"/></g></svg>