<svg xmlns="http://www.w3.org/2000/svg" xmlns:xlink="http://www.w3.org/1999/xlink" width="16" height="16" viewBox="0 0 16 16"><rect id="frame" width="16" height="16" fill="none"/><defs><path id="a" d="M.418 5.789A4.002 4.002 0 0 1 0 4c0-.649.153-1.26.423-1.8L1.76 3.248a2.373 2.373 0 0 0 0 1.506L.418 5.789z"/><path id="b" d="M6.618 6.996l-1.291-.977c.42-.264.713-.671.82-1.2H4.001V3.273H7.73c.055.237.091.491.091.728 0 1.298-.473 2.312-1.202 2.995z"/></defs><g fill="none" fill-rule="evenodd"><path fill="#62B543" d="M9 7.207V3l3.186 3.186A4.978 4.978 0 0 0 9 7.206z"/><path fill="#F26522" d="M2 8l5-5v10z"/><g transform="translate(7.988 7.011)"><path fill="#34A853" d="M6.61 7.004c-.7.65-1.633.997-2.609.997A3.99 3.99 0 0 1 .403 5.758L1.754 4.74a2.36 2.36 0 0 0 2.247 1.625c.803 0 1.463-.295 1.842-.83l.766 1.47z"/><path fill="#EA4335" d="M.401 2.247A3.99 3.99 0 0 1 4.001 0C5.02 0 5.93.382 6.638 1L5.474 2.164c-.4-.327-.909-.527-1.473-.527a2.36 2.36 0 0 0-2.249 1.63L.401 2.247z"/><use fill="#FBBC05" xlink:href="#a"/><use fill="#4285F4" xlink:href="#b"/></g></g></svg>