<svg width="16" height="16" viewBox="0 0 16 16" fill="none" xmlns="http://www.w3.org/2000/svg">
<path fill-rule="evenodd" clip-rule="evenodd" d="M1.56345 4.15964C2.47376 2.28473 4.39348 1 6.6279 1C8.06046 1 9.33953 1.53708 10.3372 2.40665L8.7 4.04348C8.13721 3.58312 7.42093 3.30179 6.6279 3.30179C5.14663 3.30179 3.897 4.26121 3.46448 5.5947L1.56345 4.15964Z" fill="#EA4335"/>
<path fill-rule="evenodd" clip-rule="evenodd" d="M1.58729 9.14209C1.21119 8.38616 1 7.53225 1 6.62663C1 5.715 1.214 4.85576 1.5948 4.09613L3.4738 5.56645C3.36255 5.89917 3.30233 6.25563 3.30233 6.62663C3.30233 6.99694 3.36233 7.35277 3.47318 7.68497L1.58729 9.14209Z" fill="#FBBC05"/>
<path fill-rule="evenodd" clip-rule="evenodd" d="M9.56041 9.43959L6.748 12.252C6.70803 12.2528 6.66799 12.2532 6.62791 12.2532C4.39575 12.2532 2.47765 10.9711 1.56622 9.09929L3.46674 7.66547C3.90133 8.99535 5.1492 9.95145 6.62791 9.95145C7.75692 9.95145 8.68507 9.53642 9.21858 8.78386L9.56041 9.43959Z" fill="#34A853"/>
<path fill-rule="evenodd" clip-rule="evenodd" d="M11.8641 8H11L9.08582 9.91418L8.49261 9.46512C9.08368 9.09452 9.49495 8.52132 9.64651 7.77749H6.62791V5.60358H11.8721C11.9488 5.93606 12 6.29411 12 6.62659C12 7.11316 11.9528 7.57139 11.8641 8Z" fill="#4285F4"/>
<path fill-rule="evenodd" clip-rule="evenodd" d="M8 12.5L11.5 9V16L8 12.5Z" fill="#F26522"/>
<path fill-rule="evenodd" clip-rule="evenodd" d="M16 12.5L12.5 16L12.5 9L16 12.5Z" fill="#62B543"/>
</svg>
