<svg width="16" height="16" viewBox="0 0 16 16" fill="none" xmlns="http://www.w3.org/2000/svg"><rect id="frame" width="16" height="16" fill="none"/><path fill-rule="evenodd" clip-rule="evenodd" d="M6 3.75l3-3V2.8h1a3 3 0 0 1 3 3v5.468A2 2 0 0 1 12 15a2 2 0 0 1-1-3.732V5.8a1 1 0 0 0-1-1H9v1.95l-3-3z" fill="#9AA7B0" fill-opacity=".8"/><path fill-rule="evenodd" clip-rule="evenodd" d="M2 4a2 2 0 1 1 3 1.732v5.536A2 2 0 0 1 4 15a2 2 0 0 1-1-3.732V5.732A2 2 0 0 1 2 4z" fill="#9AA7B0" fill-opacity=".8"/></svg>