<svg xmlns="http://www.w3.org/2000/svg" width="16" height="16" viewBox="0 0 16 16">
  <defs>
    <linearGradient id="a" x1="4.5" x2="4.5" y2="9" gradientUnits="userSpaceOnUse">
      <stop offset="0" stop-color="purple"/>
      <stop offset="1" stop-color="#5c005c"/>
    </linearGradient>
    <linearGradient id="b" x1="4.5" x2="4.5" y1="1" y2="8" gradientUnits="userSpaceOnUse">
      <stop offset="0" stop-color="#ffc2ff"/>
      <stop offset="1" stop-color="#fe8aff"/>
    </linearGradient>
  </defs>
  <path fill="url(#a)" d="M7.362 5.9a.335.335 0 01-.293-.177L4.86 1.67A3.2 3.2 0 002.048 0H0v3.1h2.048a.107.107 0 01.092.056l.318.583L0 7.715V9h2.851l1.315-2.126.182.334A3.431 3.431 0 007.362 9H9V5.9z"/>
  <path fill="url(#b)" d="M7.362 6.9a1.333 1.333 0 01-1.171-.7L3.982 2.15A2.2 2.2 0 002.048 1H1v1.105h1.048a1.1 1.1 0 01.97.577l.6 1.093L1 8h1.293L4.22 4.886l1.006 1.843A2.432 2.432 0 007.362 8H8V6.9z"/>
</svg>
