<svg width="32" height="32" viewBox="0 0 32 32" fill="none" xmlns="http://www.w3.org/2000/svg">
<path d="M17.6667 5.63334L16.6 2.4L5.46667 0L0 6.16667L6 9.23334L15.9667 13.7333L17.6667 5.63334Z" fill="url(#paint0_linear)"/>
<path d="M12.3333 9.36666L0 6.16666L3.03333 24.5L12.1 24.4667L12.3333 9.36666Z" fill="url(#paint1_linear)"/>
<path d="M8.66669 11.7333L15.5667 5.6L19.7667 1.89999L27.8334 3.39999L32 13.7333L26 19.7L8.66669 11.7333Z" fill="url(#paint2_linear)"/>
<path d="M22.8333 7.79997L6.5 7.73331L8.8 25.6333L9.23333 28.2333L20.0667 32L32 24.8333L22.8333 7.79997Z" fill="url(#paint3_linear)"/>
<path d="M26 6H6V26H26V6Z" fill="url(#paint4_linear)"/>
<path d="M16 23H8V24H16V23Z" fill="white"/>
<path d="M15 14.8782L16.1341 13.6562C16.9162 14.2497 17.7765 14.5988 18.7542 14.5988C19.5363 14.5988 20.0447 14.3195 20.0447 13.8656V13.8307C20.0447 13.3768 19.7318 13.1674 18.2849 12.8182C16.486 12.4341 15.352 11.9803 15.352 10.4091V10.3742C15.352 8.94269 16.6425 8 18.4413 8C19.7318 8 20.8268 8.34915 21.7263 9.01252L20.7095 10.3044C19.9274 9.81556 19.1453 9.53624 18.4022 9.53624C17.6592 9.53624 17.2682 9.85047 17.2682 10.2345V10.2694C17.2682 10.7932 17.6592 10.9677 19.1844 11.3169C20.9832 11.7359 22 12.2945 22 13.6911V13.726C22 15.2971 20.6704 16.17 18.7542 16.17C17.4246 16.1351 16.0559 15.7161 15 14.8782Z" fill="white"/>
<path d="M8 8.14001H11.4763C13.5167 8.14001 14.7258 9.25646 14.7258 10.8613V10.8962C14.7258 12.7105 13.2144 13.6525 11.2873 13.6525H9.85149V15.99H8V8.14001ZM11.3629 12.0825C12.3076 12.0825 12.8365 11.5591 12.8365 10.8962V10.8613C12.8365 10.0938 12.2698 9.67513 11.3251 9.67513H9.88928V12.0825H11.3629Z" fill="white"/>
<defs>
<linearGradient id="paint0_linear" x1="8.05364" y1="9.84377" x2="10.7703" y2="4.41377" gradientUnits="userSpaceOnUse">
<stop offset="0" stop-color="#AF1DF5"/>
<stop offset="0.21" stop-color="#BC20E4"/>
<stop offset="0.63" stop-color="#DD29B8"/>
<stop offset="1" stop-color="#FF318C"/>
</linearGradient>
<linearGradient id="paint1_linear" x1="1.0324" y1="21.9557" x2="14.3992" y2="4.29779" gradientUnits="userSpaceOnUse">
<stop offset="0.02" stop-color="#6B57FF"/>
<stop offset="0.42" stop-color="#B74AF7"/>
<stop offset="0.75" stop-color="#FF318C"/>
</linearGradient>
<linearGradient id="paint2_linear" x1="24.2471" y1="21.7909" x2="16.3005" y2="2.93756" gradientUnits="userSpaceOnUse">
<stop offset="0" stop-color="#293896"/>
<stop offset="0.08" stop-color="#3B3AA2"/>
<stop offset="0.29" stop-color="#6740C0"/>
<stop offset="0.49" stop-color="#8A44D8"/>
<stop offset="0.68" stop-color="#A347E9"/>
<stop offset="0.86" stop-color="#B249F3"/>
<stop offset="1" stop-color="#B74AF7"/>
</linearGradient>
<linearGradient id="paint3_linear" x1="22.8773" y1="28.0153" x2="10.804" y2="10.3257" gradientUnits="userSpaceOnUse">
<stop offset="0.02" stop-color="#6B57FF"/>
<stop offset="0.78" stop-color="#B74AF7"/>
</linearGradient>
<linearGradient id="paint4_linear" x1="15.9733" y1="1.139" x2="15.9733" y2="19.075" gradientUnits="userSpaceOnUse">
<stop offset="0.0842986" stop-color="#878585"/>
<stop offset="0.5377"/>
</linearGradient>
</defs>
    <path fill-rule="evenodd" clip-rule="evenodd" d="M14 32H32V22H14V32Z" fill="#D99E2B"/>
    <path fill-rule="evenodd" clip-rule="evenodd" d="M16 30H19.75V29.0505H16.9V27.45H19.4V26.5H16.9V24.95H19.7V24H16V30Z" fill="black"/>
    <path fill-rule="evenodd" clip-rule="evenodd" d="M22.3999 27.65L23.2999 25.25L24.2499 27.65H22.3999ZM20.5 30H21.45L22 28.5505H24.55L25.0995 30H26.0995L23.75 24H22.8495L20.5 30Z" fill="black"/>
    <path fill-rule="evenodd" clip-rule="evenodd" d="M27.407 27.1002V24.9502H28.2995C28.9845 24.9502 29.2995 25.3002 29.35 25.8502V26.0502C29.35 26.6442 29.0225 27.1002 28.45 27.1002H27.407ZM27.407 30V28.05H28.25C29.3955 28.071 30.2555 27.174 30.2555 26.152V25.902C30.2555 24.7925 29.4675 24 28.44 24H26.5V30H27.407Z" fill="black"/>
</svg>