<svg xmlns="http://www.w3.org/2000/svg" width="16" height="16" viewBox="0 0 16 16"><rect id="frame" width="16" height="16" fill="none"/><path fill="#C00" fill-rule="evenodd" d="M13.7 14.124a1.815 1.815 0 0 0-1.81-1.818 1.815 1.815 0 0 0-1.814 1.818c0 1.004.811 1.817 1.813 1.817 1 0 1.812-.813 1.812-1.817zm-4.813-.574c0-.888-.719-1.609-1.605-1.609-.887 0-1.605.72-1.605 1.61 0 .888.718 1.61 1.605 1.61.886 0 1.605-.722 1.605-1.61zM5.26 10.642a1.45 1.45 0 1 0-2.898 0c0 .805.649 1.455 1.45 1.455.8 0 1.448-.65 1.448-1.455zm-.672-4.047a1.294 1.294 0 1 0-2.588 0c0 .716.58 1.298 1.294 1.298.715 0 1.294-.582 1.294-1.298zM6.4 2.96a1.09 1.09 0 0 0-1.087-1.09c-.6 0-1.087.488-1.087 1.09 0 .602.487 1.09 1.087 1.09S6.4 3.562 6.4 2.96zm3.105-1.61a.985.985 0 0 0-.983-.986.985.985 0 0 0-.983.986c0 .546.44.988.983.988a.985.985 0 0 0 .983-.988zM12.77.83a.83.83 0 1 0-1.657 0 .83.83 0 0 0 1.657 0z"/></svg>