<svg width="71" height="72" viewBox="0 0 71 72" fill="none" xmlns="http://www.w3.org/2000/svg">
<path d="M65.9687 9.2395C65.1666 8.802 64.0729 8.43742 63.1979 8.29159C62.6146 8.29159 25.3541 1.14575 23.3854 0.999919C22.4375 0.927002 21.4166 0.999919 20.4687 1.14575C3.18747 3.69784 -1.18753 24.7708 13.1041 33.5937C16.4583 35.6353 20.4687 36.3645 24.3333 35.4895C31.1146 34.0312 61.5937 26.5208 63.5625 26.0833C72.0208 24.2603 73.8437 13.3958 65.9687 9.2395Z" fill="url(#paint0_linear)"/>
<path d="M66.3333 41.6875C64.875 40.0104 38.4792 10.0416 32.8646 5.15622C31.7708 4.2083 30.4583 3.3333 29 2.53122C26.375 1.1458 23.3854 0.635383 20.4688 1.07288C4.86459 3.47913 -0.239582 20.9062 9.45833 30.75C10.4792 31.8437 39.5 64.0729 39.7917 64.4375C41.1042 66.0416 42.7083 67.5729 44.75 68.8125C48.1042 70.927 52.1875 71.5833 56.125 70.7083C70.4167 67.5 75.0104 51.3854 66.3333 41.6875Z" fill="url(#paint1_linear)"/>
<path d="M60.7916 37.4583C60.2083 37.1666 59.625 36.8749 58.9687 36.6562C58.4583 36.5103 19.2291 24.1145 18.3541 23.8958C16.8958 23.5312 15.3646 23.4583 13.9062 23.677C-0.0937674 25.7187 -3.66668 42.8541 7.92707 50.0728C10.625 51.7499 46.4271 69.6874 47.375 70.052C50.1458 71.0728 53.1354 71.2916 56.0521 70.6353C72.8229 66.9895 76.25 45.552 60.7916 37.4583Z" fill="url(#paint2_linear)"/>
<path d="M65.9688 9.23954C64.6563 8.51037 63.125 8.29162 61.5938 8.51037C60.7917 8.6562 60.0625 8.80204 59.3333 9.0937C55.9063 10.4791 10.9896 24.2604 9.75 24.8437C-0.677082 29.3645 -2.35417 43.6562 7.92709 50.0729C10.625 51.75 13.9063 52.3333 17.1146 51.6041C18.3542 51.3125 19.5938 50.9479 20.6146 50.4375C26.1563 47.8125 65.6042 25.5 66.4063 25.0625C72.3125 21.6354 72.8229 12.8854 65.9688 9.23954Z" fill="url(#paint3_linear)"/>
<path d="M57 15H15V57H57V15Z" fill="url(#paint4_linear)"/>
<path d="M35.4167 49.65H19.6667V52.3334H35.4167V49.65Z" fill="white"/>
<path d="M37.0001 20.13H40.458V32.8553H47.3048V35.76H37.0001V20.13Z" fill="white"/>
<path d="M19.67 20.13H25.7561C30.6664 20.13 34.0552 23.5188 34.0552 27.8758V27.945C34.0552 32.3712 30.6664 35.76 25.7561 35.76H19.67V20.13ZM23.128 23.2422V32.6478H25.7561C28.5916 32.6478 30.4589 30.7805 30.4589 28.0142V27.945C30.4589 25.1786 28.5916 23.2422 25.7561 23.2422H23.128V23.2422Z" fill="white"/>
<defs>
<linearGradient id="paint0_linear" x1="22.4003" y1="18.3208" x2="64.8817" y2="26.7873" gradientUnits="userSpaceOnUse">
<stop offset="0.2421" stop-color="#3BEA62"/>
<stop offset="0.8566" stop-color="#FCF84A"/>
</linearGradient>
<linearGradient id="paint1_linear" x1="17.8514" y1="5.84397" x2="58.6402" y2="67.8828" gradientUnits="userSpaceOnUse">
<stop offset="0.0175975" stop-color="#3BEA62"/>
<stop offset="0.786" stop-color="#087CFA"/>
</linearGradient>
<linearGradient id="paint2_linear" x1="17.2845" y1="40.3632" x2="68.9461" y2="59.022" gradientUnits="userSpaceOnUse">
<stop offset="0.1209" stop-color="#1FAEB5"/>
<stop offset="0.9746" stop-color="#087CFA"/>
</linearGradient>
<linearGradient id="paint3_linear" x1="2.42341" y1="43.2713" x2="69.1527" y2="13.6965" gradientUnits="userSpaceOnUse">
<stop offset="0.1209" stop-color="#1FAEB5"/>
<stop offset="0.8556" stop-color="#FCF84A"/>
</linearGradient>
<linearGradient id="paint4_linear" x1="35.944" y1="4.7919" x2="35.944" y2="42.4575" gradientUnits="userSpaceOnUse">
<stop offset="0.0842986" stop-color="#878585"/>
<stop offset="0.5377"/>
</linearGradient>
</defs>
</svg>
