<svg width="80" height="80" viewBox="0 0 80 80" fill="none" xmlns="http://www.w3.org/2000/svg">
<g clip-path="url(#clip0)">
<path d="M74.2631 9.48531C73.3464 8.98649 72.0964 8.5708 71.0964 8.40452C70.4298 8.40452 27.8464 0.256997 25.5964 0.0907209C24.5131 0.00758292 23.3464 0.0907209 22.2631 0.256997C2.51308 3.16683 -2.48691 27.1937 13.8464 37.2534C17.6798 39.5813 22.2631 40.4126 26.6798 39.415C34.4298 37.7522 69.2631 29.189 71.5131 28.6902C81.1798 26.6117 83.2631 14.2242 74.2631 9.48531Z" fill="url(#paint0_linear)"/>
<path d="M74.6797 46.4816C73.0131 44.5694 42.8464 10.3997 36.4297 4.82943C35.1797 3.74864 33.6797 2.75098 32.0131 1.83647C29.0131 0.256845 25.5964 -0.325121 22.2631 0.173707C4.42975 2.91726 -1.40359 22.7872 9.67975 34.0109C10.8464 35.2579 44.0131 72.0049 44.3464 72.4206C45.8464 74.2496 47.6797 75.9955 50.0131 77.4089C53.8464 79.8199 58.5131 80.5681 63.0131 79.5705C79.3464 75.9124 84.5964 57.5389 74.6797 46.4816Z" fill="url(#paint1_linear)"/>
<path d="M68.3464 41.6595C67.6798 41.327 67.0131 40.9944 66.2631 40.745C65.6798 40.5787 20.8464 26.4453 19.8464 26.1959C18.1798 25.7802 16.4298 25.697 14.7631 25.9464C-1.23691 28.2743 -5.32024 47.8117 7.92976 56.0424C11.0131 57.9546 51.9298 78.4065 53.0131 78.8222C56.1798 79.9861 59.5964 80.2356 62.9298 79.4873C82.0964 75.3304 86.0131 50.8878 68.3464 41.6595Z" fill="url(#paint2_linear)"/>
<path d="M74.2631 9.48517C72.7631 8.65379 71.0131 8.40438 69.2631 8.65379C68.3464 8.82007 67.5131 8.98635 66.6798 9.3189C62.7631 10.8985 11.4298 26.6116 10.0131 27.2767C-1.90357 32.4313 -3.82024 48.7263 7.92977 56.0425C11.0131 57.9546 14.7631 58.6197 18.4298 57.7883C19.8464 57.4558 21.2631 57.0401 22.4298 56.4581C28.7631 53.4652 73.8464 28.0249 74.7631 27.5261C81.5131 23.6186 82.0964 13.6421 74.2631 9.48517Z" fill="url(#paint3_linear)"/>
<path d="M65 15H15V65H65V15Z" fill="url(#paint4_linear)"/>
<path d="M39.9 55.5H21.2V58.6H39.9V55.5Z" fill="white"/>
<path d="M41 21.25H45.1084V36.3689H53.2431V39.82H41V21.25Z" fill="white"/>
<path d="M21.2 21.25H28.4308C34.2647 21.25 38.291 25.2762 38.291 30.4528V30.535C38.291 35.7938 34.2647 39.82 28.4308 39.82H21.2V21.25ZM25.3084 24.9476V36.1224H28.4308C31.7997 36.1224 34.0182 33.9039 34.0182 30.6172V30.535C34.0182 27.2483 31.7997 24.9476 28.4308 24.9476H25.3084V24.9476Z" fill="white"/>
</g>
<defs>
<linearGradient id="paint0_linear" x1="24.4706" y1="19.8396" x2="73.012" y2="29.5366" gradientUnits="userSpaceOnUse">
<stop offset="0.2421" stop-color="#3BEA62"/>
<stop offset="0.8566" stop-color="#FCF84A"/>
</linearGradient>
<linearGradient id="paint1_linear" x1="19.2718" y1="5.61359" x2="65.7349" y2="76.4491" gradientUnits="userSpaceOnUse">
<stop offset="0.0175975" stop-color="#3BEA62"/>
<stop offset="0.786" stop-color="#087CFA"/>
</linearGradient>
<linearGradient id="paint2_linear" x1="18.624" y1="44.9717" x2="77.6337" y2="66.3346" gradientUnits="userSpaceOnUse">
<stop offset="0.1209" stop-color="#1FAEB5"/>
<stop offset="0.9746" stop-color="#087CFA"/>
</linearGradient>
<linearGradient id="paint3_linear" x1="1.63985" y1="48.2875" x2="77.8431" y2="14.4344" gradientUnits="userSpaceOnUse">
<stop offset="0.1209" stop-color="#1FAEB5"/>
<stop offset="0.8556" stop-color="#FCF84A"/>
</linearGradient>
<linearGradient id="paint4_linear" x1="39.9989" y1="2.84554" x2="39.9989" y2="47.6855" gradientUnits="userSpaceOnUse">
<stop offset="0.0842986" stop-color="#878585"/>
<stop offset="0.5377"/>
</linearGradient>
<clipPath id="clip0">
<rect width="80" height="80" fill="white"/>
</clipPath>
</defs>
</svg>
