<svg xmlns="http://www.w3.org/2000/svg" width="36" height="29" viewBox="0 0 36 29">
  <g>
    <path fill="#eeeff2" d="M0 0h36v29H0z" style="isolation:isolate"/>
    <path fill="#adb5c2" d="M36 21V0H4v21h13v4h-5v2h16v-2h-5v-4h13z" style="isolation:isolate"/>
    <path fill="#f3f4f5" d="M5 1h30v19H5z" style="isolation:isolate"/>
    <path fill="#8d4e84" d="M6 2h28v17H6z" style="isolation:isolate"/>
  </g>
  <g>
    <path fill="#fff" d="M12.183 13H11.05v-.85h-.019a1.806 1.806 0 01-1.685.967 1.816 1.816 0 01-1.477-.672 2.786 2.786 0 01-.554-1.828 3.038 3.038 0 01.612-1.987 2.008 2.008 0 011.634-.747 1.564 1.564 0 011.47.81h.019V5.6h1.133zm-1.118-2.285v-.654a1.272 1.272 0 00-.347-.9 1.156 1.156 0 00-.883-.371 1.191 1.191 0 00-1 .474 2.106 2.106 0 00-.364 1.313 1.885 1.885 0 00.35 1.2 1.136 1.136 0 00.939.442 1.177 1.177 0 00.943-.428 1.607 1.607 0 00.362-1.076zM17.8 10.808h-3.412a1.437 1.437 0 00.428 1.069 1.584 1.584 0 001.12.376 2.463 2.463 0 001.469-.479v.914a3.36 3.36 0 01-1.806.429 2.232 2.232 0 01-1.731-.681 2.721 2.721 0 01-.628-1.916 2.668 2.668 0 01.691-1.9 2.264 2.264 0 011.717-.734 1.972 1.972 0 011.587.659 2.738 2.738 0 01.561 1.831zm-1.094-.8a1.457 1.457 0 00-.288-.95.962.962 0 00-.781-.339 1.1 1.1 0 00-.827.356 1.626 1.626 0 00-.418.933zM26.251 13h-1.133v-2.725a2.194 2.194 0 00-.218-1.137.814.814 0 00-.749-.352.907.907 0 00-.755.444 1.82 1.82 0 00-.309 1.065V13h-1.143v-2.817q0-1.4-.986-1.4a.888.888 0 00-.754.42 1.852 1.852 0 00-.3 1.089V13h-1.129V8h1.133v.791h.02a1.731 1.731 0 011.577-.908 1.5 1.5 0 01.906.285 1.424 1.424 0 01.529.75 1.785 1.785 0 011.66-1.035q1.651 0 1.651 2.036zM29.949 13.117a2.476 2.476 0 01-1.848-.7 2.532 2.532 0 01-.691-1.857 2.638 2.638 0 01.72-1.968 2.651 2.651 0 011.941-.708 2.4 2.4 0 011.827.688 2.661 2.661 0 01.654 1.909 2.618 2.618 0 01-.7 1.916 2.535 2.535 0 01-1.903.72zM30 8.786a1.292 1.292 0 00-1.05.464 1.943 1.943 0 00-.385 1.279 1.829 1.829 0 00.39 1.239 1.316 1.316 0 001.045.451 1.243 1.243 0 001.027-.445 1.952 1.952 0 00.36-1.264 1.989 1.989 0 00-.36-1.275A1.237 1.237 0 0030 8.786z"/>
  </g>
</svg>
