<svg xmlns="http://www.w3.org/2000/svg" width="12" height="12" viewBox="0 0 12 12">
  <g fill="none" fill-rule="evenodd">
    <path fill="#6E6E6E" d="M6.5,5.5 L8.5,5.5 L6,8.5 L3.5,5.5 L5.5,5.5 L5.5,-3.5 L6.5,-3.5 L6.5,5.5 Z" transform="rotate(-90 6 2.5)"/>
    <path fill="#6E6E6E" d="M9.4,10.9945326 L9.4,11 L2.4,11 L2.4,10.9945326 C1.61819682,10.9087682 1,9.82470712 1,8.5 C1,7.17529288 1.61819682,6.09123177 2.4,6.00546743 L2.4,6 L9.4,6 L9.4,6.00546743 C9.43305236,6.00184156 9.46639714,6 9.5,6 C10.3284271,6 11,7.11928813 11,8.5 C11,9.88071187 10.3284271,11 9.5,11 C9.46639714,11 9.43305236,10.9981584 9.4,10.9945326 Z M9.5,10.2 C9.99705627,10.2 10.4,9.43888407 10.4,8.5 C10.4,7.56111593 9.99705627,6.8 9.5,6.8 C9.00294373,6.8 8.6,7.56111593 8.6,8.5 C8.6,9.43888407 9.00294373,10.2 9.5,10.2 Z"/>
  </g>
</svg>
