<svg xmlns="http://www.w3.org/2000/svg" width="16" height="16" viewBox="0 0 16 16">
  <g fill="none" fill-opacity=".8" fill-rule="evenodd">
    <path fill="#9AA7B0" d="M8.5,6.5 L10.5,6.5 L8,9.5 L5.5,6.5 L7.5,6.5 L7.5,-2.5 L8.5,-2.5 L8.5,6.5 Z" transform="rotate(-90 8 3.5)"/>
    <path fill="#9AA7B0" d="M12.4,13.9923456 L12.4,14 L3.4,14 L3.4,13.9923456 C2.61819682,13.8722755 2,12.35459 2,10.5 C2,8.64541004 2.61819682,7.12772448 3.4,7.0076544 L3.4,7 L12.4,7 L12.4,7.0076544 C12.4330524,7.00257818 12.4663971,7 12.5,7 C13.3284271,7 14,8.56700338 14,10.5 C14,12.4329966 13.3284271,14 12.5,14 C12.4663971,14 12.4330524,13.9974218 12.4,13.9923456 Z M12.2,13 C12.7522847,13 13.2,11.8807119 13.2,10.5 C13.2,9.11928813 12.7522847,8 12.2,8 C11.6477153,8 11.2,9.11928813 11.2,10.5 C11.2,11.8807119 11.6477153,13 12.2,13 Z"/>
  </g>
</svg>
