<svg ti:v="1" width="16" height="16" viewBox="0 0 16 16" xmlns="http://www.w3.org/2000/svg" xmlns:ti="urn:schemas-jetbrains-com:tisvg"><rect id="frame" width="16" height="16" fill="none"/><linearGradient id="a" x1=".5" y1=".007" x2=".5" y2=".993"><stop offset="0" stop-color="#385985"/><stop offset="1" stop-color="#263C59"/></linearGradient><path fill-rule="evenodd" d="M0 0v13h7v-3h3V6H8V4h4V0H0z" fill="url(#a)"/><linearGradient id="b" x1=".01" y1=".5" x2="1.02" y2=".5"><stop offset="0" stop-color="#C7EAFF"/><stop offset="1" stop-color="#85B5FF"/></linearGradient><path fill-rule="evenodd" d="M1 3h10V.999H1V3z" fill="url(#b)"/><linearGradient id="c" x1=".01" y1=".5" x2="1.02" y2=".5"><stop offset="0" stop-color="#FFFBC7"/><stop offset="1" stop-color="#FFEB85"/></linearGradient><path fill-rule="evenodd" d="M1 6h5.999V4H1v2z" fill="url(#c)"/><linearGradient id="d" x1=".01" y1=".5" x2="1.02" y2=".5"><stop offset="0" stop-color="#C7FFD2"/><stop offset="1" stop-color="#85FF8F"/></linearGradient><path fill-rule="evenodd" d="M1 9h8V7H1v2z" fill="url(#d)"/><linearGradient id="e" x1=".01" y1=".5" x2="1.02" y2=".5"><stop offset="0" stop-color="#EAC7FF"/><stop offset="1" stop-color="#B685FF"/></linearGradient><path fill-rule="evenodd" d="M1 12h5V9.999H1V12z" fill="url(#e)"/><linearGradient id="f" x1=".5" y1="0" x2=".5" y2="1"><stop offset="0" stop-color="#006200"/><stop offset="1" stop-color="#003C16"/></linearGradient><path fill-rule="evenodd" d="M8 5C6.345 5 5 6.346 5 8v5c0 1.654 1.345 3 3 3h5c1.654 0 3-1.346 3-3V8c0-1.654-1.346-3-3-3H8z" fill="url(#f)"/><linearGradient id="g" x1=".5" y1="0" x2=".5" y2="1"><stop offset="0" stop-color="#00BA00"/><stop offset="1" stop-color="#006927"/></linearGradient><path fill-rule="evenodd" d="M8 6c-1.099 0-2 .9-2 2v5c0 1.1.901 2 2 2h5c1.1 0 2-.9 2-2V8c0-1.1-.9-2-2-2H8z" fill="url(#g)"/><path fill-rule="evenodd" d="M12.672 8.756l-.271-.55-4.131 2.038.127.256-.127.256 4.13 2.037.272-.55L9.135 10.5l3.537-1.744z" fill="#FFF"/><path fill-rule="evenodd" d="M10 10.5a1.5 1.5 0 1 1-3.001-.001A1.5 1.5 0 0 1 10 10.5z" fill="#FFF"/><path fill-rule="evenodd" d="M14 8.5a1.5 1.5 0 1 1-3.001-.001A1.5 1.5 0 0 1 14 8.5z" fill="#FFF"/><path fill-rule="evenodd" d="M14 12.5a1.5 1.5 0 1 1-3.001-.001A1.5 1.5 0 0 1 14 12.5z" fill="#FFF"/></svg>