<svg ti:v="1" width="16" height="16" viewBox="0 0 16 16" xmlns="http://www.w3.org/2000/svg" xmlns:ti="urn:schemas-jetbrains-com:tisvg"><rect id="frame" width="16" height="16" fill="none"/><g fill-rule="evenodd"><path d="M12 0v4H8v2h2v4H7v3H0V0h12z" fill="#242424"/><path d="M11 3H1V1h10v2z" fill="#C4C4C4"/><path d="M7 4H1v2h6V4z" fill="#C4C4C4"/><path d="M9 7H1v2h8V7z" fill="#C4C4C4"/><path d="M6 10H1v2h5v-2z" fill="#C4C4C4"/><path d="M8 16c-1.654 0-3-1.346-3-3V8c0-1.654 1.346-3 3-3h5c1.654 0 3 1.346 3 3v5c0 1.654-1.346 3-3 3H8z" fill="#242424"/><path d="M15 13c0 1.1-.9 2-2 2H8c-1.1 0-2-.9-2-2V8c0-1.1.9-2 2-2h5c1.1 0 2 .9 2 2v5z" fill="#C4C4C4"/><path d="M12.672 8.756l-.271-.55-4.131 2.038.127.256-.127.256 4.13 2.037.272-.55L9.135 10.5l3.537-1.744z" fill="#282828"/><path d="M10 10.5a1.5 1.5 0 1 1-3.001-.001A1.5 1.5 0 0 1 10 10.5z" fill="#282828"/><path d="M14 8.5a1.5 1.5 0 1 1-3.001-.001A1.5 1.5 0 0 1 14 8.5z" fill="#282828"/><path d="M14 12.5a1.5 1.5 0 1 1-3.001-.001A1.5 1.5 0 0 1 14 12.5z" fill="#282828"/></g></svg>