<svg ti:v="1" width="16" height="16" viewBox="0 0 16 16" xmlns="http://www.w3.org/2000/svg" xmlns:ti="urn:schemas-jetbrains-com:tisvg"><rect id="frame" width="16" height="16" fill="none"/><g fill-rule="evenodd"><path d="M9 8V0h4.414L16 2.586V8H9z" fill="#242424"/><path d="M10 1v6h5V3l-2-2h-3z" fill="#C4C4C4"/><path d="M13 2h-2v4h3V3h-1V2z" fill="#282828"/><path d="M1 16V4h7.414L12 7.586V16H1z" fill="#242424"/><path d="M8 5H2v10h9V8L8 5z" fill="#C4C4C4"/><path d="M9 13H4V7h3v2h2v4z" fill="#282828"/><path d="M13 8v3h-1v3h4V8M9 0v3H6v1H3V0h6z" fill="#242424"/><path d="M5 3H4v1h1m0-3H4v1h1m10 8h-1v1h1m0-3h-1v1h1m-2 3h-1v1h1m2-1h-1v1h1M9 1H8v1h1M7 2H6V1h1v1z" fill="#C4C4C4"/></g></svg>