<svg ti:v="1" width="16" height="16" viewBox="0 0 16 16" xmlns="http://www.w3.org/2000/svg" xmlns:ti="urn:schemas-jetbrains-com:tisvg"><rect id="frame" width="16" height="16" fill="none"/><linearGradient id="a" x1=".5" y1=".027" x2=".5" y2="1.009"><stop offset="0" stop-color="#7C6D47"/><stop offset="1" stop-color="#60492F"/></linearGradient><path fill-rule="evenodd" d="M9 8V0h4.414L16 2.586V8H9z" fill="url(#a)"/><linearGradient id="b" x1=".5" y1="0" x2=".5" y2="1.024"><stop offset="0" stop-color="#E3D8BC"/><stop offset="1" stop-color="#E3CDB3"/></linearGradient><path fill-rule="evenodd" d="M10 1v6h5V3l-2-2h-3z" fill="url(#b)"/><linearGradient id="c" x1=".5" y1=".036" x2=".5" y2="1"><stop offset="0" stop-color="#FFF3D4"/><stop offset="1" stop-color="#FFF"/></linearGradient><path fill-rule="evenodd" d="M13 2h-2v4h3V3h-1V2z" fill="url(#c)"/><linearGradient id="d" x1=".5" y1=".006" x2=".5" y2="1.006"><stop offset="0" stop-color="#7C6D47"/><stop offset="1" stop-color="#60492F"/></linearGradient><path fill-rule="evenodd" d="M1 16V4h7.414L12 7.586V16H1z" fill="url(#d)"/><linearGradient id="e" x1=".5" y1=".014" x2=".5" y2="1.014"><stop offset="0" stop-color="#E3D8BC"/><stop offset="1" stop-color="#E3CDB3"/></linearGradient><path fill-rule="evenodd" d="M8 5H2v10h9V8L8 5z" fill="url(#e)"/><linearGradient id="f" x1=".5" y1="0" x2=".5" y2="1.013"><stop offset="0" stop-color="#FFF3D4"/><stop offset="1" stop-color="#FFF"/></linearGradient><path fill-rule="evenodd" d="M9 13H4V7h3v2h2v4z" fill="url(#f)"/><linearGradient id="g" x1=".5" y1=".003" x2=".5" y2=".997"><stop offset="0" stop-color="#566980"/><stop offset="1" stop-color="#2C3641"/></linearGradient><path fill-rule="evenodd" d="M13 8v3h-1v3h4V8M9 0v3H6v1H3V0h6z" fill="url(#g)"/><linearGradient id="h" x1=".989" y1=".052" x2="-.006" y2=".964"><stop offset="0" stop-color="#F6E468"/><stop offset="1" stop-color="#EFD205"/></linearGradient><path fill-rule="evenodd" d="M5 3H4v1h1m0-3H4v1h1m10 8h-1v1h1m0-3h-1v1h1m-2 3h-1v1h1m2-1h-1v1h1M9 1H8v1h1M7 2H6V1h1v1z" fill="url(#h)"/></svg>