<svg ti:v="1" width="16" height="16" viewBox="0 0 16 16" xmlns="http://www.w3.org/2000/svg" xmlns:ti="urn:schemas-jetbrains-com:tisvg"><rect id="frame" width="16" height="16" fill="none"/><linearGradient id="a" x1=".5" y1="0" x2=".5" y2="1"><stop offset="0" stop-color="#FFF"/><stop offset="1" stop-color="#B3B3B3"/></linearGradient><path fill-rule="evenodd" d="M4 10a6 6 0 0 0 12 0 6 6 0 0 0-12 0z" fill="url(#a)"/><linearGradient id="b" x1=".5" y1="0" x2=".5" y2="1"><stop offset="0" stop-color="#FFF"/><stop offset="1" stop-color="#B3B3B3"/></linearGradient><path fill-rule="evenodd" d="M0 6a6 6 0 0 0 12 0A6 6 0 0 0 0 6z" fill="url(#b)"/><linearGradient id="c" x1=".5" y1="0" x2=".5" y2="1"><stop offset="0" stop-color="gray"/><stop offset="1" stop-color="#4C4C4C"/></linearGradient><path fill-rule="evenodd" d="M1 6a5 5 0 0 0 10 0A5.001 5.001 0 0 0 1 6z" fill="url(#c)"/><linearGradient id="d" x1=".5" y1="0" x2=".5" y2="1"><stop offset="0" stop-color="gray"/><stop offset="1" stop-color="#4C4C4C"/></linearGradient><path fill-rule="evenodd" d="M5 10a5 5 0 0 0 10 0 5.001 5.001 0 0 0-10 0z" fill="url(#d)"/><linearGradient id="e" x1=".5" y1="0" x2=".5" y2="1"><stop offset="0" stop-color="#FFF"/><stop offset="1" stop-color="#CCC"/></linearGradient><path fill-rule="evenodd" d="M2 6a3.993 3.993 0 0 0 3.013 3.863 4.987 4.987 0 0 1 4.85-4.849A3.993 3.993 0 0 0 6 2C3.792 2 2 3.792 2 6z" fill="url(#e)"/><linearGradient id="f" x1=".5" y1="0" x2=".5" y2="1"><stop offset="0" stop-color="#19FF00"/><stop offset="1" stop-color="#00FF14"/></linearGradient><path fill-rule="evenodd" d="M5 10c0 .31.037.614.092.908.295.055.597.092.908.092a5 5 0 0 0 5-5c0-.31-.037-.613-.092-.908A4.939 4.939 0 0 0 10 5c-2.761 0-5 2.24-5 5z" fill="url(#f)"/><linearGradient id="g" x1=".5" y1="0" x2=".5" y2="1"><stop offset="0" stop-color="#FFF"/><stop offset="1" stop-color="#CCC"/></linearGradient><path fill-rule="evenodd" d="M6.137 10.986C6.579 12.715 8.135 14 10 14a4 4 0 0 0 4-4 3.993 3.993 0 0 0-3.013-3.863 4.987 4.987 0 0 1-4.85 4.849z" fill="url(#g)"/><linearGradient id="h" x1=".5" y1="0" x2=".5" y2="1"><stop offset="0" stop-color="#05AD00"/><stop offset="1" stop-color="#05AD00"/></linearGradient><path fill-rule="evenodd" d="M9.863 5.014a4.987 4.987 0 0 0-4.85 4.849C5.012 9.909 5 9.953 5 10c0 .31.037.614.092.908.295.055.597.092.908.092.047 0 .091-.013.137-.014a4.987 4.987 0 0 0 4.85-4.849c.001-.046.013-.09.013-.137 0-.31-.037-.613-.092-.908A4.939 4.939 0 0 0 10 5c-.046 0-.091.013-.137.014zM10 6a4 4 0 0 1-4 4 4 4 0 0 1 4-4z" fill="url(#h)"/></svg>