<svg ti:v="1" width="16" height="16" viewBox="0 0 16 16" xmlns="http://www.w3.org/2000/svg" xmlns:ti="urn:schemas-jetbrains-com:tisvg"><rect id="frame" width="16" height="16" fill="none"/><g fill-rule="evenodd"><path d="M16 10a6 6 0 0 1-12 0 6 6 0 0 1 12 0z" fill="#242424"/><path d="M12 6A6 6 0 0 1 0 6a6 6 0 0 1 12 0z" fill="#242424"/><path d="M11 6A5 5 0 1 1 .999 5.999 5 5 0 0 1 11 6z" fill="#C4C4C4"/><path d="M15 10a5 5 0 1 1-10.001-.001A5 5 0 0 1 15 10z" fill="#C4C4C4"/><path d="M9.863 5.014A3.993 3.993 0 0 0 6 2C3.792 2 2 3.792 2 6a3.994 3.994 0 0 0 3.013 3.864 4.988 4.988 0 0 1 4.85-4.85z" fill="#282828"/><path d="M5 10c0 .311.037.613.092.908.295.055.597.092.908.092a5 5 0 0 0 5-5c0-.311-.037-.613-.092-.908A4.939 4.939 0 0 0 10 5a5 5 0 0 0-5 5z" fill="#282828"/><path d="M10.986 6.137a4.988 4.988 0 0 1-4.85 4.85A3.995 3.995 0 0 0 10 14a4 4 0 0 0 4-4 3.993 3.993 0 0 0-3.014-3.863z" fill="#282828"/><path d="M6 10a4 4 0 0 1 4-4 4 4 0 0 1-4 4zm5-4c0-.311-.037-.613-.092-.908A4.939 4.939 0 0 0 10 5c-.047 0-.091.013-.137.014a4.986 4.986 0 0 0-4.849 4.849C5.013 9.909 5 9.953 5 10c0 .311.037.613.092.908.295.055.597.092.908.092.047 0 .091-.013.137-.014a4.986 4.986 0 0 0 4.849-4.849c.001-.046.014-.09.014-.137z" fill="#C4C4C4"/></g></svg>