<svg ti:v="1" width="16" height="16" viewBox="0 0 16 16" xmlns="http://www.w3.org/2000/svg" xmlns:ti="urn:schemas-jetbrains-com:tisvg"><rect id="frame" width="16" height="16" fill="none"/><linearGradient id="a" x1=".5" y1="0" x2=".5" y2="1.005"><stop offset="0" stop-color="#566980"/><stop offset="1" stop-color="#2C3641"/></linearGradient><path fill-rule="evenodd" d="M16 15H0V0h16v15z" fill="url(#a)"/><linearGradient id="b" x1="0" y1=".5" x2="1" y2=".5"><stop offset="0" stop-color="#6D97E7"/><stop offset="1" stop-color="#2E61C8"/></linearGradient><path fill-rule="evenodd" d="M1 4h14V1H1v3z" fill="url(#b)"/><linearGradient id="c" x1="0" y1=".5" x2="1" y2=".5"><stop offset="0" stop-color="#FFF"/><stop offset="1" stop-color="#A7BBDB"/></linearGradient><path fill-rule="evenodd" d="M14 4v9H2V4H1v10h14V4h-1z" fill="url(#c)"/><linearGradient id="d" x1=".5" y1=".015" x2=".5" y2="1"><stop offset="0" stop-color="#001E41"/><stop offset="1" stop-color="#566980"/></linearGradient><path fill-rule="evenodd" d="M14 13H2V4h12v9z" fill="url(#d)"/><path fill-rule="evenodd" d="M13 8h1V7h-1m-2 1h1V7h-1M4 7H3v1h1m1-2h1V5H5m4 3h1V7H9M6 7H5v1h1m-1 2h1V9H5m2-1h1V7H7m-2 4h1v1H5v-1z" fill="#FFF"/></svg>