<svg ti:v="1" width="16" height="16" viewBox="0 0 16 16" xmlns="http://www.w3.org/2000/svg" xmlns:ti="urn:schemas-jetbrains-com:tisvg"><rect id="frame" width="16" height="16" fill="none"/><g fill-rule="evenodd"><path d="M16 15H0V0h16v15z" fill="#F4F4F4"/><path d="M1 4h14V1H1v3z" fill="#313131"/><path d="M14 4v9H2V4H1v10h14V4h-1z" fill="#313131"/><path d="M14 13H2V4h12v9z" fill="#EBEBEB"/><path d="M13 8h1V7h-1m-2 1h1V7h-1M4 7H3v1h1m1-2h1V5H5m4 3h1V7H9M6 7H5v1h1m-1 2h1V9H5m2-1h1V7H7m-2 4h1v1H5v-1z" fill="#313131"/></g></svg>