<svg ti:v="1" width="16" height="16" viewBox="0 0 16 16" xmlns="http://www.w3.org/2000/svg" xmlns:ti="urn:schemas-jetbrains-com:tisvg"><rect id="frame" width="16" height="16" fill="none"/><linearGradient id="a" x1=".5" y1=".003" x2=".5" y2="1.003"><stop offset="0" stop-color="#7C6D47"/><stop offset="1" stop-color="#60492F"/></linearGradient><path fill-rule="evenodd" d="M2 1v14h12V5.586L9.414 1H2z" fill="url(#a)"/><linearGradient id="b" x1=".5" y1=".004" x2=".5" y2="1"><stop offset="0" stop-color="#E3D8BC"/><stop offset="1" stop-color="#E3CDB3"/></linearGradient><path fill-rule="evenodd" d="M3 2v12h10V6L9 2H3z" fill="url(#b)"/><linearGradient id="c" x1=".5" y1=".012" x2=".5" y2="1.006"><stop offset="0" stop-color="#FFF3D4"/><stop offset="1" stop-color="#FFF"/></linearGradient><path fill-rule="evenodd" d="M5 4v8h6V6H9V4H5z" fill="url(#c)"/><linearGradient id="d" x1=".5" y1=".006" x2=".5" y2="1.006"><stop offset="0" stop-color="#530000"/><stop offset="1" stop-color="#790000"/></linearGradient><path fill-rule="evenodd" d="M11.586 9L10.5 10.086 9.414 9H0v7h16v-3h-1V9h-3.414z" fill="url(#d)"/><linearGradient id="e" x1=".5" y1=".008" x2=".5" y2="1.019"><stop offset="0" stop-color="#FFD9D9"/><stop offset="1" stop-color="#FFB5B5"/></linearGradient><path fill-rule="evenodd" d="M13 10v5h2v-1h-1v-4m-3 0v1h-1v-1H9v5h1v-3l.5 2 .5-2v3h1v-5m-6 0l-1 1v4h1v-1h1v1h1v-5m-2 1h1v2H6m-3-3v2s1 0 1-1v-1m-3 0v1c0 1 1 1 1 1v-2m0 2v1H1v2h1v-2h1v-1m0 3h1v-2H3v2z" fill="url(#e)"/></svg>