<svg width="13" height="13" viewBox="0 0 13 13" fill="none" xmlns="http://www.w3.org/2000/svg"><rect id="frame" width="13" height="13" fill="none"/><path d="M8.968 2.367a1.661 1.661 0 1 0-.833 3.103v.231s0 1.667-1.668 1.667c-.69 0-1.232.148-1.667.375v-3.94a1.66 1.66 0 0 0 .834-1.436 1.668 1.668 0 0 0-3.334 0c0 .615.337 1.147.833 1.436v5.463c-.496.29-.833.82-.833 1.436a1.668 1.668 0 0 0 3.334 0c0-.436-.172-.83-.446-1.128.242-.298.637-.54 1.28-.54 3.307 0 3.333-3.333 3.333-3.333v-.23a1.661 1.661 0 0 0-.833-3.104z" fill="#AFB1B3"/></svg>