<svg xmlns="http://www.w3.org/2000/svg" width="13" height="13" viewBox="0 0 13 13"><rect id="frame" width="13" height="13" fill="none"/><g fill="#6E6E6E" fill-rule="evenodd"><path d="M2.963 4.277l.99.99L2.538 6.68a2.6 2.6 0 0 0 3.677 3.677L7.63 8.944l.99.99-1.415 1.414A4 4 0 1 1 1.548 5.69l1.415-1.414zm1.414-1.415L5.79 1.448a4 4 0 0 1 5.657 5.657L10.034 8.52l-.99-.99 1.414-1.414a2.6 2.6 0 1 0-3.677-3.677L5.367 3.852l-.99-.99z"/><path d="M3.67 7.812L7.912 3.57l1.414 1.414-4.242 4.242z"/></g></svg>