<svg xmlns="http://www.w3.org/2000/svg" width="13" height="13" viewBox="0 0 13 13"><rect id="frame" width="13" height="13" fill="none"/><path fill="#6E6E6E" fill-rule="evenodd" d="M10.19 8.03h1.313V6.684H10.19v-.898c0-.153-.028-.3-.047-.449h1.36V3.991H9.68A3.635 3.635 0 0 0 8.15 2.578L9.39 1.352 8.426.4 6.6 2.209c-.017-.001-.082-.008-.1-.008-.048 0-.042.007-.09.009L4.576.4l-.965.952 1.278 1.26a3.635 3.635 0 0 0-1.467 1.379H1.5v1.346h1.461c-.019.15-.046.296-.046.45v.897H1.5V8.03h1.415v.45c0 .31.054.608.13.897H1.5v1.346h2.24a3.635 3.635 0 0 0 2.812 1.347 3.635 3.635 0 0 0 2.813-1.347h2.138V9.377H10.06c.076-.29.13-.586.13-.898V8.03z"/></svg>