<svg xmlns="http://www.w3.org/2000/svg" width="13" height="13" viewBox="0 0 13 13"><rect id="frame" width="13" height="13" fill="none"/><path fill="#6E6E6E" fill-rule="evenodd" d="M4.29 10.217A3.306 3.306 0 0 1 3.154 8.6H2.9a.5.5 0 0 1-.5-.5v-.6a.5.5 0 0 1 .5-.5h.106c.01-.163.031-.322.064-.478A3.51 3.51 0 0 1 3.01 6H1.5V5H3V3.436c0-.847.088-1.154.254-1.464.165-.31.408-.553.718-.718.31-.166.617-.254 1.464-.254h2.128c.847 0 1.154.088 1.464.254.31.165.553.408.718.718.166.31.254.617.254 1.464V5h1.5v1H9.99a3.51 3.51 0 0 1-.06.522c.033.156.054.315.064.478h.106a.5.5 0 0 1 .5.5v.6a.5.5 0 0 1-.5.5h-.254a3.306 3.306 0 0 1-1.136 1.617C10.566 10.642 11 11.58 11 12H2c0-.421.434-1.358 2.29-1.783z"/></svg>