<svg xmlns="http://www.w3.org/2000/svg" width="13" height="13" viewBox="0 0 13 13"><rect id="frame" width="13" height="13" fill="none"/><path fill="#6E6E6E" d="M6.5.813A5.69 5.69 0 0 0 .812 6.5 5.69 5.69 0 0 0 6.5 12.188 5.69 5.69 0 0 0 12.188 6.5 5.69 5.69 0 0 0 6.5.812zM5.931 11.01A4.543 4.543 0 0 1 1.95 6.5c0-.353.046-.688.12-1.018l2.724 2.724v.569A1.14 1.14 0 0 0 5.93 9.912v1.098zm3.925-1.444a1.128 1.128 0 0 0-1.081-.791h-.569V7.069a.57.57 0 0 0-.568-.569H4.225V5.362h1.138a.57.57 0 0 0 .568-.568V3.656H7.07A1.14 1.14 0 0 0 8.206 2.52v-.233A4.553 4.553 0 0 1 11.05 6.5a4.526 4.526 0 0 1-1.194 3.066z"/></svg>