<svg width="16" height="16" viewBox="0 0 16 16" fill="none" xmlns="http://www.w3.org/2000/svg">
<path d="M16 0H0V16H16V0Z" fill="#087CFA"/>
<path d="M15 1H1V15H15V1Z" fill="black"/>
<path d="M9 12H3V13H9V12Z" fill="white"/>
<path d="M6.0125 4.10004V3.00629H3.03125V4.10004H3.86875V7.87504H3.03125V8.96879H6.0125V7.87504H5.18125V4.10004H6.0125Z" fill="white"/>
<path d="M12.6 3V4.2H9.4V5.4H12.3V6.6H9.4V7.8H12.7V9H8V3H12.6Z" fill="white"/>
<path fill-rule="evenodd" clip-rule="evenodd" d="M3 16H16V10H3V16Z" fill="#D99E2B"/>
<path fill-rule="evenodd" clip-rule="evenodd" d="M4 11H7V11.64H4.8V12.6H6.5V13.24H4.8V14.36H6.998V15H4V11Z" fill="black"/>
<path fill-rule="evenodd" clip-rule="evenodd" d="M14.2 12.3672C14.2 12.7632 14.0134 13.0672 13.5554 13.0672H12.8V11.6328H13.4364C13.9834 11.6328 14.16 11.8672 14.2 12.2328V12.3672ZM11.9974 11V15H12.8V13.7H13.3954C14.3114 13.7144 15.0004 13.116 15.0004 12.4336V12.268C15.0004 11.528 14.3694 11 13.5474 11H11.9974Z" fill="black"/>
<path fill-rule="evenodd" clip-rule="evenodd" d="M9.85453 11H9.14647L7.36169 15H8.12852L8.54223 14.0519H10.4212L10.835 15H11.6384L9.85453 11ZM8.86404 13.3705L9.50209 11.9083L10.1747 13.3705H8.86404Z" fill="black"/>
</svg>