<svg ti:v="1" width="16" height="16" viewBox="0 0 16 16" xmlns="http://www.w3.org/2000/svg" xmlns:ti="urn:schemas-jetbrains-com:tisvg"><rect id="frame" width="16" height="16" fill="none"/><linearGradient id="a" x1=".5" y1=".005" x2=".5" y2="1.005"><stop offset="0" stop-color="#576A80"/><stop offset="1" stop-color="#2D3742"/></linearGradient><path d="M16 14H0v-2.914l1-1v-.671l-1-.999V6.588l1-1.001v-.673l-1-1V1h16v13z" fill="url(#a)"/><path d="M1 3.5l1 1v1.501L1 7.002v1l1 .999V10.5l-1 1V13h14V2H1v1.5z" fill="#FFF"/><linearGradient id="b" x1=".5" y1="0" x2=".5" y2="1.008"><stop offset="0" stop-color="#ECF5FF"/><stop offset="1" stop-color="#DEE7F1"/></linearGradient><path d="M2 12v-.086l1-1V8.587l-1-.999v-.172l1-1.001V4.086l-1-1V3h12v9H2z" fill="url(#b)"/><path d="M12 5H5V4h7zm-2 1H5v1h5zm-2 4H5v1h3zm3-2H5v1h6zm0 0" fill="#323232"/></svg>