<svg ti:v="1" width="16" height="16" viewBox="0 0 16 16" xmlns="http://www.w3.org/2000/svg" xmlns:ti="urn:schemas-jetbrains-com:tisvg"><rect id="frame" width="16" height="16" fill="none"/><path d="M4 13a3 3 0 0 1-3-3V3a3.001 3.001 0 0 1 3-3h2v2h7v11zm0 0" fill="#F4F4F4"/><path d="M5 3V1H4a2 2 0 0 0-2 2v7a2 2 0 0 0 2 2h8V3zm0 0" fill="#1BA1E2"/><path d="M3 1.287V10a2.034 2.034 0 0 1 1-1.756V1a1.941 1.941 0 0 0-1 .287zm0 0" fill="#1BA1E2"/><path d="M5 8a1.957 1.957 0 0 0-2 2h.071A1.892 1.892 0 0 1 5 9h1V3L5 1zm0 0" fill="#F4F4F4"/><path d="M5 13.586V15h10V5h-1.414L5 13.586z" fill="#F4F4F4"/><path d="M12.5 9.621V12.5H9.621L12.5 9.621zM14 6l-8 8h8V6zm0 0" fill="#C7781A"/></svg>