<svg ti:v="1" width="16" height="16" viewBox="0 0 16 16" xmlns="http://www.w3.org/2000/svg" xmlns:ti="urn:schemas-jetbrains-com:tisvg"><rect id="frame" width="16" height="16" fill="none"/><linearGradient id="a" x1=".5" y1=".002" x2=".5" y2=".996"><stop offset="0" stop-color="#576A80"/><stop offset="1" stop-color="#2D3742"/></linearGradient><path d="M4 13a3 3 0 0 1-3-3V3a3.001 3.001 0 0 1 3-3h2v2h7v11zm0 0" fill="url(#a)"/><linearGradient id="b" x1=".5" y1="0" x2=".5" y2=".996"><stop offset="0" stop-color="#BAEBFF"/><stop offset="1" stop-color="#66AEFF"/></linearGradient><path d="M5 3V1H4a2 2 0 0 0-2 2v7a2 2 0 0 0 2 2h8V3zm0 0" fill="url(#b)"/><linearGradient id="c" x1=".5" y1="0" x2=".5" y2=".996"><stop offset="0" stop-color="#EDFAFF"/><stop offset="1" stop-color="#FFF"/></linearGradient><path d="M3 1.287V10a2.034 2.034 0 0 1 1-1.756V1a1.941 1.941 0 0 0-1 .287zm0 0" fill="url(#c)"/><linearGradient id="d" x1=".5" y1=".002" x2=".5" y2=".996"><stop offset="0" stop-color="#54667B"/><stop offset="1" stop-color="#374350"/></linearGradient><path d="M5 8a1.957 1.957 0 0 0-2 2h.071A1.892 1.892 0 0 1 5 9h1V3L5 1zm0 0" fill="url(#d)"/><linearGradient id="e" x1=".5" y1=".008" x2=".5" y2="1.004"><stop offset="0" stop-color="#956C00"/><stop offset="1" stop-color="#7D4300"/></linearGradient><path d="M5 13.586V15h10V5h-1.414L5 13.586z" fill="url(#e)"/><linearGradient id="f" x1=".5" y1=".01" x2=".5" y2="1.002"><stop offset="0" stop-color="#FFE000"/><stop offset="1" stop-color="#FFB01F"/></linearGradient><path d="M12.5 9.621V12.5H9.621L12.5 9.621zM14 6l-8 8h8V6zm0 0" fill="url(#f)"/></svg>