<svg ti:v="1" width="16" height="16" viewBox="0 0 16 16" xmlns="http://www.w3.org/2000/svg" xmlns:ti="urn:schemas-jetbrains-com:tisvg"><rect id="frame" width="16" height="16" fill="none"/><path d="M14.363 10.383s-1.211.63-1.229.638a15.823 15.823 0 0 1-.425-4.236c0-3.243.405-3.847 1.291-5.2v-.477C11.81 1.126 11.189 1 9.225 1c-2.637 0-4.5.42-5.688 1.281A5.11 5.11 0 0 0 1.3 6.558 9.2 9.2 0 0 0 2.2 10h.574l2.8-2.746a3.833 3.833 0 0 1-.668-1.809c0-.426 0-1.21 2.175-1.257-1.303 1.937-1.857 4.767-2.814 6.605a2.7 2.7 0 0 1-.316.482l-.805-.048L1 13.2v1.4l5.241.187 2.188-2.353-.918-.975c.086-.149.168-.3.247-.466h1.509A20.84 20.84 0 0 0 10.261 15h.939l2.439-1.081c.1-.1 1.363-.417 1.363-1.623a6.17 6.17 0 0 0-.639-1.913zm0 0" fill="#252525"/><path d="M10.919 13.785a18.115 18.115 0 0 1-.786-4.057l-.376.267H7.11a6.044 6.044 0 0 1-1.6 2.37l1.545.076-1.235 1.332L2 13.637l1.51-1.387.819.049c.344-.287.625-.642.824-1.043.435-.93.818-1.884 1.147-2.856l.243-.684c.35-1.077.834-2.105 1.443-3.06a5.12 5.12 0 0 1 1.4-1.322A14.832 14.832 0 0 0 7.3 3.186c-2.277 0-3.384.739-3.384 2.259a3.123 3.123 0 0 0 .364 1.477l.073.138L2.75 8.628l-.109-.289A5.077 5.077 0 0 1 2.3 6.558a4.09 4.09 0 0 1 1.822-3.465C5.123 2.368 6.84 2 9.225 2c.4 0 .758.008 1.063.025l1.28.082h.932l-.2.316a8.575 8.575 0 0 0-.6 3.959l.008.423.033.945c.005 1.162.141 2.32.407 3.452a2.4 2.4 0 0 0 .277.809.464.464 0 0 0 .377.12c.298-.016.588-.102.847-.25l.2-.1.083.206c.042.1.065.205.068.313 0 .225-.146.407-.433.542l-.376.187-2.2.976zm-.844-5.091c-.064-.857-.1-1.568-.1-2.115 0-.307.005-.559.017-.755l.064-.956c.026-.4.059-.739.1-1.027a8 8 0 0 0-2.133 3.644c-.195.589-.31.93-.342 1.017l-.076.192zm0 0" fill="#C4C4C4"/></svg>