<svg ti:v="1" width="16" height="16" viewBox="0 0 16 16" xmlns="http://www.w3.org/2000/svg" xmlns:ti="urn:schemas-jetbrains-com:tisvg"><rect id="frame" width="16" height="16" fill="none"/><path d="M15 9.5a2.666 2.666 0 0 0-.357-1.326L10.583 1H9.417l-4.06 7.174c-.233.403-.356.86-.357 1.326 0 1.963 2.2 3.5 5 3.5s5-1.537 5-3.5zm0 0" fill="#F4F4F4"/><path d="M13.772 8.666L10 2 6.228 8.666A1.68 1.68 0 0 0 6 9.5c0 1.381 1.791 2.5 4 2.5s4-1.119 4-2.5a1.68 1.68 0 0 0-.228-.834zm0 0" fill="#A04898"/><path d="M10.271 4l.933 6.867c.388-.088.76-.24 1.1-.447zm0 0" fill="#EBEBEB"/><path d="M9 11a4 4 0 1 1-8 0 4 4 0 0 1 8 0z" fill="#F4F4F4"/><path d="M8 11a3 3 0 1 1-6 0 3 3 0 0 1 6 0z" fill="#393"/><path d="M6 9.5c0 .276-.448.5-1 .5s-1-.224-1-.5.448-.5 1-.5 1 .224 1 .5z" fill="#EBEBEB"/></svg>