<svg xmlns="http://www.w3.org/2000/svg" width="16" height="16" viewBox="0 0 16 16"><rect id="frame" width="16" height="16" fill="none"/><g fill="none" fill-rule="evenodd"><path fill="#F98B9E" fill-opacity=".6" d="M15 8A7 7 0 1 1 1 8a7 7 0 0 1 14 0"/><path fill="#231F20" fill-opacity=".7" d="M8.981 7.908l2.652-1.56a3.967 3.967 0 0 0-.462-.76l-2.666 1.57a.978.978 0 0 1 .476.75m-1.516-.73L4.79 5.634a4.02 4.02 0 0 0-.452.765l2.674 1.544a.974.974 0 0 1 .453-.765M8 7a.98.98 0 0 1 .444.115v-3.07C8.297 4.028 8.152 4 8 4c-.152 0-.297.028-.444.045v3.07A.98.98 0 0 1 8 7m.988 1.057a.98.98 0 0 1-.452.766l2.674 1.544a4.06 4.06 0 0 0 .452-.766L8.988 8.057zM8 9a.98.98 0 0 1-.444-.115v3.07c.147.017.292.045.444.045.152 0 .297-.028.444-.045v-3.07A.98.98 0 0 1 8 9m-.992-.96L4.342 9.606c.12.274.276.527.453.764l2.652-1.56a.98.98 0 0 1-.44-.772"/></g></svg>