<svg xmlns="http://www.w3.org/2000/svg" width="16" height="16" viewBox="0 0 16 16">
  <g fill="none" fill-rule="evenodd">
    <path fill="#6E6E6E" d="M14,8 L13,8 L13,5 L3,5 L3,8 L3,12 L2,12 L2,2 L14,2 L14,8 Z"/>
    <path fill="#6E6E6E" d="M4,9 L16,9 L16,15 L4,15 L4,9 Z M13,12 L13,11 L14,11 L14,12 L13,12 Z M13,13 L14,13 L14,14 L15,14 L15,11 L15,10 L13,10 L12,10 L12,14 L13,14 L13,13 Z M9,12 L9,11 L10,11 L10,12 L9,12 Z M9,13 L10,13 L11,13 L11,11 L11,10 L9,10 L8,10 L8,14 L9,14 L9,13 Z M7,13 L7,10 L6,10 L6,13 L5,13 L5,14 L7,14 L7,13 Z"/>
  </g>
</svg>
