<svg xmlns="http://www.w3.org/2000/svg" width="16" height="16" viewBox="0 0 16 16"><rect id="frame" width="16" height="16" fill="none"/><g fill="none" fill-rule="evenodd"><path fill="#40B6E0" fill-opacity=".6" d="M14.978 4.785l-.01 1.666C14.631 7.428 11.64 8.193 8 8.193c-3.866 0-7-.863-7-1.927V4.773c1.548.825 4.106 1.365 7 1.365 2.88 0 5.427-.534 6.978-1.353zm-6.774 6.746L8 11.532c-3.866 0-7-.82-7-1.833V8.113c1.548.825 4.106 1.364 7 1.364 2.868 0 5.406-.53 6.959-1.342V8.2c-.623.365-.959 1.8-3.539 2.1-1.59.186-2.596.634-3.216 1.231zm-.617 3.466C3.913 14.937 1 14.099 1 13.073v-1.62c1.448.771 3.78 1.293 6.444 1.357a4.137 4.137 0 0 0-.144 1.133c0 .307.065.68.287 1.054zM14.99 2.82v.22C14.774 4.05 11.727 4.853 8 4.853c-3.866 0-7-.862-7-1.926S4.134 1 8 1c3.736 0 6.788.805 6.99 1.82z"/><path fill="#62B543" fill-opacity=".7" d="M15.325 14.877c-1.189 1.583-3.727 1.052-5.355 1.126 0 0-.288.016-.579.064 0 0 .11-.047.25-.095 1.143-.395 1.684-.475 2.379-.832 1.305-.668 2.604-2.124 2.868-3.636-.497 1.455-2.008 2.706-3.384 3.214-.942.347-2.645.686-2.645.686l-.07-.037c-1.158-.563-1.19-3.07.913-3.878.923-.355 1.805-.16 2.801-.398 1.064-.252 2.295-1.051 2.795-2.091.562 1.664 1.236 4.267.027 5.877z"/></g></svg>