<svg ti:v="1" width="16" height="16" viewBox="0 0 16 16" xmlns="http://www.w3.org/2000/svg" xmlns:ti="urn:schemas-jetbrains-com:tisvg"><rect id="frame" width="16" height="16" fill="none"/><linearGradient id="a" x1=".5" y1="0" x2=".5" y2="1"><stop offset="0" stop-color="#734C94"/><stop offset="1" stop-color="#3F2452"/></linearGradient><path fill-rule="evenodd" d="M1 8a7 7 0 1 0 14 0 7 7 0 0 0-7-7 7 7 0 0 0-7 7z" fill="url(#a)"/><linearGradient id="b" x1=".5" y1="0" x2=".5" y2="1"><stop offset="0" stop-color="#EFD7FF"/><stop offset="1" stop-color="#D5A4FF"/></linearGradient><path fill-rule="evenodd" d="M2 8c0 3.312 2.687 6 6 6s6-2.688 6-6A6 6 0 0 0 2 8z" fill="url(#b)"/><linearGradient id="c" x1=".5" y1="0" x2=".5" y2="1"><stop offset="0" stop-color="#3E2452"/><stop offset="1" stop-color="#6B4C94"/></linearGradient><path fill-rule="evenodd" d="M3.688 5.512A4.947 4.947 0 0 0 3 8c0 .912.263 1.753.688 2.489C4.553 11.984 6.15 13 8 13c1.851 0 3.448-1.016 4.313-2.511C11.531 10.039 9.903 9.098 8 8V3C6.15 3 4.553 4.015 3.688 5.512z" fill="url(#c)"/></svg>