<svg ti:v="1" width="16" height="16" viewBox="0 0 16 16" xmlns="http://www.w3.org/2000/svg" xmlns:ti="urn:schemas-jetbrains-com:tisvg"><rect id="frame" width="16" height="16" fill="none"/><g fill-rule="evenodd"><path d="M15 8A7 7 0 1 1 1 8a7 7 0 0 1 14 0z" fill="#1F1F1F"/><path d="M14 8A6.001 6.001 0 0 1 2 8a6 6 0 0 1 12 0z" fill="#C4C4C4"/><path d="M8 8V3C6.15 3 4.553 4.016 3.688 5.512A4.947 4.947 0 0 0 3 8c0 .912.263 1.753.688 2.489C4.553 11.983 6.15 13 8 13c1.851 0 3.448-1.017 4.313-2.511C11.531 10.039 9.903 9.099 8 8z" fill="#232323"/></g></svg>