<svg ti:v="1" width="16" height="16" viewBox="0 0 16 16" xmlns="http://www.w3.org/2000/svg" xmlns:ti="urn:schemas-jetbrains-com:tisvg"><rect id="frame" width="16" height="16" fill="none"/><linearGradient id="a" x1=".5" y1="0" x2=".5" y2="1"><stop offset="0" stop-color="#734C94"/><stop offset="1" stop-color="#3F2452"/></linearGradient><path fill-rule="evenodd" d="M3 6.5a6.5 6.5 0 1 0 13 0A6.5 6.5 0 0 0 9.5 0 6.5 6.5 0 0 0 3 6.5z" fill="url(#a)"/><linearGradient id="b" x1=".5" y1="0" x2=".5" y2="1"><stop offset="0" stop-color="#EFD7FF"/><stop offset="1" stop-color="#D5A4FF"/></linearGradient><path fill-rule="evenodd" d="M4 6.5a5.5 5.5 0 0 0 11 0 5.5 5.5 0 0 0-11 0z" fill="url(#b)"/><linearGradient id="c" x1=".5" y1="0" x2=".5" y2="1"><stop offset="0" stop-color="#3E2452"/><stop offset="1" stop-color="#6B4C94"/></linearGradient><path fill-rule="evenodd" d="M5.619 4.26A4.46 4.46 0 0 0 5 6.5c0 .82.237 1.578.619 2.24C6.398 10.085 7.835 11 9.5 11c1.665 0 3.102-.915 3.881-2.26L9.5 6.5V2c-1.665 0-3.102.916-3.881 2.26z" fill="url(#c)"/><linearGradient id="d" x1=".5" y1=".021" x2=".5" y2="1"><stop offset="0" stop-color="#385A5D"/><stop offset="1" stop-color="#007586"/></linearGradient><path fill-rule="evenodd" d="M2.664 4A4.023 4.023 0 0 0 0 7.777c0 1.442.781 2.758 2 3.467v2.746C2 15.098 2.897 16 4 16s2-.902 2-2.01v-2.746a4.021 4.021 0 0 0 2-3.467A4.023 4.023 0 0 0 5.336 4H2.664z" fill="url(#d)"/><linearGradient id="e" x1=".5" y1=".024" x2=".5" y2="1.003"><stop offset="0" stop-color="#9EFFE5"/><stop offset="1" stop-color="#90D9E1"/></linearGradient><path fill-rule="evenodd" d="M5 8H3V5a2.994 2.994 0 0 0-2 2.816c0 1.304.838 2.403 2 2.817V14a1 1 0 1 0 2 0v-3.367a2.994 2.994 0 0 0 2-2.817A2.994 2.994 0 0 0 5 5v3z" fill="url(#e)"/></svg>