<svg width="24" height="24" viewBox="0 0 24 24" fill="none" xmlns="http://www.w3.org/2000/svg">
<path d="M14.5174 3.79565L4.83913 0L0 15.6L4.22609 24L8.41304 15.7957L14.5174 3.79565Z" fill="url(#paint0_linear)"/>
<path d="M4.22609 24H16.0043L10.9435 14.6478L0 15.6L4.22609 24Z" fill="url(#paint1_linear)"/>
<path d="M6.79565 17.3478L16.0043 24L19.0174 15.8478L8.84348 5.90869L0 7.40869L6.79565 17.3478Z" fill="url(#paint2_linear)"/>
<path d="M14.8305 0L7.46094 7.38261L17.0479 17.1783L24.0001 12.287V3.23478L14.8305 0Z" fill="url(#paint3_linear)"/>
<path d="M20 4H4V20H20V4Z" fill="url(#paint4_linear)"/>
<path d="M12 17H6V18H12V17Z" fill="white"/>
<path d="M8.3 6H6V12H8.5C10.3 11.9 11.5 10.7 11.5 9C11.5 7.3 10.2 6 8.3 6ZM10.1 9C10.1 10.1 9.4 10.8 8.3 10.8H7.3V7.2H8.3C9.3 7.2 10.1 8 10.1 9Z" fill="white"/>
<path d="M12.3 6H16.8246V7.18033H13.5787V8.45902H16.4312V9.63934H13.5787V12H12.3V6Z" fill="white"/>
<defs>
<linearGradient id="paint0_linear" x1="4.0931" y1="18.1084" x2="8.76956" y2="4.53893" gradientUnits="userSpaceOnUse">
<stop offset="0.1054" stop-color="#AF1DF5"/>
<stop offset="0.8768" stop-color="#087CFA"/>
</linearGradient>
<linearGradient id="paint1_linear" x1="1.06063" y1="20.2194" x2="41.2455" y2="17.3158" gradientUnits="userSpaceOnUse">
<stop offset="0.033675" stop-color="#AF1DF5"/>
<stop offset="0.8682" stop-color="#E86656"/>
<stop offset="0.989" stop-color="#FC801D"/>
</linearGradient>
<linearGradient id="paint2_linear" x1="23.7119" y1="28.4317" x2="-4.03114" y2="-1.95034" gradientUnits="userSpaceOnUse">
<stop offset="0.0209183" stop-color="#AF1DF5"/>
<stop offset="0.989" stop-color="#FC801D"/>
</linearGradient>
<linearGradient id="paint3_linear" x1="4.62471" y1="19.4011" x2="23.1371" y2="2.80709" gradientUnits="userSpaceOnUse">
<stop offset="0.1425" stop-color="#AF1DF5"/>
<stop offset="0.9112" stop-color="#FC801D"/>
</linearGradient>
<linearGradient id="paint4_linear" x1="12" y1="0.129" x2="12" y2="14.4779" gradientUnits="userSpaceOnUse">
<stop offset="0.0842986" stop-color="#878585"/>
<stop offset="0.5377"/>
</linearGradient>
</defs>
</svg>
