<svg ti:v="1" width="16" height="16" viewBox="0 0 16 16" xmlns="http://www.w3.org/2000/svg" xmlns:ti="urn:schemas-jetbrains-com:tisvg"><rect id="frame" width="16" height="16" fill="none"/><g fill-rule="evenodd"><path d="M16 6a6.001 6.001 0 1 1-6-6c3.312 0 6 2.687 6 6z" fill="#F4F4F4"/><path d="M10 1a5 5 0 1 0 .001 10.001A5 5 0 0 0 10 1z" fill="#313131"/><path d="M7.134 8c.159.229.349.431.625.668.21.173.437.327.684.451A8.486 8.486 0 0 1 8.169 8m2.73 0H9.103c.123.62.29 1.106.455 1.455.146.02.29.045.443.045.156 0 .305-.026.456-.046.158-.35.323-.834.444-1.454zm2.439-3H11.96c.027.323.04.657.04 1 0 .343-.013.677-.04 1h1.378c.043-.145.078-.293.106-.443A3.54 3.54 0 0 0 13.5 6c0-.19-.027-.374-.056-.557A4.394 4.394 0 0 0 13.338 5zM6.663 7H8.04a12.015 12.015 0 0 1 0-2H6.663a4.142 4.142 0 0 0-.107.443A3.539 3.539 0 0 0 6.5 6c0 .19.027.374.056.557.028.15.063.298.107.443zm4.378 0a11.116 11.116 0 0 0 0-2H8.959a11.116 11.116 0 0 0 0 2m2.872-3h1.035a3.47 3.47 0 0 0-.624-.667 3.656 3.656 0 0 0-.684-.452c.108.342.202.714.273 1.119zM9.1 4H10.9a6.378 6.378 0 0 0-.453-1.455c-.147-.02-.293-.045-.446-.045-.152 0-.298.025-.445.045-.164.35-.33.836-.453 1.455zm-.658-1.12a3.864 3.864 0 0 0-.751.509c-.21.18-.4.382-.558.611h1.035c.07-.405.165-.778.274-1.12zM11.83 8h1.035a3.475 3.475 0 0 1-.624.667 3.651 3.651 0 0 1-.684.452c.108-.342.202-.714.273-1.119z" fill="#EBEBEB"/><path d="M8 7H1V4h7v3z" fill="#F4F4F4"/><path d="M0 7v3h1v3h2v3h3v-3h2v-3h1V7H0z" fill="#F4F4F4"/><path d="M5 16H4v-3h1v3z" fill="#313131"/><path d="M8 8H1v1h1v3h5V9h1V8z" fill="#313131"/><path d="M2 7h1V5H2v2z" fill="#313131"/><path d="M6 7h1V5H6v2z" fill="#313131"/></g></svg>