<svg ti:v="1" width="16" height="16" viewBox="0 0 16 16" xmlns="http://www.w3.org/2000/svg" xmlns:ti="urn:schemas-jetbrains-com:tisvg"><rect id="frame" width="16" height="16" fill="none"/><linearGradient id="a" x1=".5" y1=".014" x2=".5" y2="1"><stop offset="0" stop-color="#2164A5"/><stop offset="1" stop-color="#0E365D"/></linearGradient><path fill-rule="evenodd" d="M4 6a6 6 0 0 0 12 0A6 6 0 0 0 4 6z" fill="url(#a)"/><linearGradient id="b" x1=".5" y1=".004" x2=".5" y2="1.004"><stop offset="0" stop-color="#56BFFF"/><stop offset="1" stop-color="#009EFF"/></linearGradient><path fill-rule="evenodd" d="M5 6a5 5 0 0 0 10 0A5.001 5.001 0 0 0 5 6z" fill="url(#b)"/><linearGradient id="c" x1=".5" y1="-.002" x2=".5" y2="1.004"><stop offset="0" stop-color="#F4FFF7"/><stop offset="1" stop-color="#B5FFFD"/></linearGradient><path fill-rule="evenodd" d="M9.555 2.545c-.164.35-.33.836-.454 1.455h1.797a6.328 6.328 0 0 0-.453-1.455c-.146-.02-.293-.045-.445-.045-.153 0-.298.025-.445.045zM11.831 4h1.035a3.299 3.299 0 0 0-.557-.611l-.067-.056a3.692 3.692 0 0 0-.685-.453c.109.343.203.715.274 1.12zm-4.139-.611c-.209.18-.399.383-.558.611h1.035c.071-.405.164-.778.274-1.12-.247.125-.474.28-.685.452zM11.96 5c.027.323.04.657.04 1 0 .343-.013.677-.04 1h1.378c.043-.144.078-.293.106-.443A3.53 3.53 0 0 0 13.5 6c0-.19-.027-.374-.056-.556A4.353 4.353 0 0 0 13.338 5M8.959 5a11.116 11.116 0 0 0 0 2h2.082a11.114 11.114 0 0 0 0-2M6.662 5a4.353 4.353 0 0 0-.106.444A3.517 3.517 0 0 0 6.5 6c0 .19.027.374.056.557.028.15.063.299.106.443H8.04a12.468 12.468 0 0 1 0-2m3.791 3a8.49 8.49 0 0 1-.274 1.119c.248-.124.475-.278.685-.452l.067-.055c.209-.181.398-.385.557-.612M9.101 8c.124.62.292 1.107.456 1.455.146.02.29.045.443.045.156 0 .305-.026.456-.046.158-.348.322-.834.443-1.454M7.134 8c.159.228.349.431.558.612l.066.056c.211.173.438.327.684.451A8.451 8.451 0 0 1 8.169 8H7.134z" fill="url(#c)"/><path fill-rule="evenodd" d="M8 7H1V4h7v3z" fill="#4D606B"/><linearGradient id="d" x1=".5" y1=".006" x2=".5" y2="1.002"><stop offset="0" stop-color="#804D00"/><stop offset=".313" stop-color="#543100"/><stop offset="1" stop-color="#804D00"/></linearGradient><path fill-rule="evenodd" d="M0 7v3h1v3h2v3h3v-3h2v-3h1V7H0z" fill="url(#d)"/><path fill-rule="evenodd" d="M5 16H4v-3h1v3z" fill="#F90"/><linearGradient id="e" x1=".5" y1=".04" x2=".5" y2="1.001"><stop offset="0" stop-color="#F90"/><stop offset=".313" stop-color="#C37500"/><stop offset="1" stop-color="#D68000"/></linearGradient><path fill-rule="evenodd" d="M1 8v1h1v3h5V9h1V8H1z" fill="url(#e)"/><path fill-rule="evenodd" d="M2 7h1V5H2v2z" fill="#FFF"/><path fill-rule="evenodd" d="M6 7h1V5H6v2z" fill="#FFF"/></svg>