<svg ti:v="1" width="48" height="48" viewBox="0 0 48 48" xmlns="http://www.w3.org/2000/svg" xmlns:ti="urn:schemas-jetbrains-com:tisvg"><rect id="frame" width="48" height="48" fill="none"/><g fill-rule="evenodd"><path d="M19.494 26h-.988L0 35.797v2.408L18.502 48h.996L38 38.205v-2.408L19.494 26z" fill="#242424"/><path d="M19 46l17-9-17-9-17 9 17 9z" fill="#C3C3C3"/><path d="M35.552 13.5l4.723-2.5-20.78-11h-.991L0 9.796v2.408L2.448 13.5 0 14.796v2.408L2.448 18.5 0 19.796v2.408l19 10.059L40.275 21l-4.723-2.5 4.723-2.5-4.723-2.5z" fill="#242424"/><path d="M19 26.697L5.119 19.348 2 21l17 9 17-9-3.119-1.652L19 26.697z" fill="#C3C3C3"/><path d="M19 21.697L5.119 14.348 2 16l17 9 17-9-3.119-1.652L19 21.697z" fill="#C3C3C3"/><path d="M19 20l17-9-17-9-17 9 17 9z" fill="#C3C3C3"/><path d="M26 27.828V16.172l6 6V16h-9V6h12c3.859 0 7 3.141 7 7v9.172l6-6v11.656l-11 11-11-11z" fill="#242424"/><path d="M34 27V14h-9V8h10a5 5 0 0 1 5 5v14l6-6v6l-9 9-9-9v-6l6 6z" fill="#7CBDFF"/></g></svg>