<svg ti:v="1" width="48" height="48" viewBox="0 0 48 48" xmlns="http://www.w3.org/2000/svg" xmlns:ti="urn:schemas-jetbrains-com:tisvg"><rect id="frame" width="48" height="48" fill="none"/><path fill-rule="evenodd" d="M19.494 26h-.988L0 35.797v2.408L18.502 48h.996L38 38.205v-2.408L19.494 26z" fill="#007019"/><linearGradient id="a" x1=".5" y1=".007" x2=".5" y2="1.007"><stop offset="0" stop-color="#118C1C"/><stop offset="1" stop-color="#1ADB2A"/></linearGradient><path fill-rule="evenodd" d="M2 37l17 9 17-9-17-9-17 9z" fill="url(#a)"/><linearGradient id="b" x1=".5" y1="-.008" x2=".5" y2="1"><stop offset="0" stop-color="#566980"/><stop offset="1" stop-color="#2D3642"/></linearGradient><path fill-rule="evenodd" d="M18.504 0L0 9.796v2.408L2.448 13.5 0 14.796v2.408L2.448 18.5 0 19.796v2.408l19 10.059L40.275 21l-4.723-2.5 4.723-2.5-4.723-2.5 4.723-2.5L19.496 0h-.992z" fill="url(#b)"/><linearGradient id="c" x1=".5" y1="-.361" x2=".5" y2=".989"><stop offset="0" stop-color="#A5B1BC"/><stop offset="1" stop-color="#DFEFFF"/></linearGradient><path fill-rule="evenodd" d="M19 26.697L5.119 19.349 2 21l17 9 17-9-3.119-1.651L19 26.697z" fill="url(#c)"/><linearGradient id="d" x1=".5" y1="-.573" x2=".5" y2=".989"><stop offset="0" stop-color="#A5B1BC"/><stop offset="1" stop-color="#DFEFFF"/></linearGradient><path fill-rule="evenodd" d="M19 21.697L5.119 14.349 2 16l17 9 17-9-3.119-1.651L19 21.697z" fill="url(#d)"/><linearGradient id="e" x1=".5" y1=".007" x2=".5" y2="1"><stop offset="0" stop-color="#A5B1BC"/><stop offset="1" stop-color="#DFEFFF"/></linearGradient><path fill-rule="evenodd" d="M2 11l17 9 17-9-17-9-17 9z" fill="url(#e)"/><linearGradient id="f" x1=".5" y1=".008" x2=".5" y2="1.002"><stop offset="0" stop-color="#604914"/><stop offset="1" stop-color="#9E771F"/></linearGradient><path fill-rule="evenodd" d="M23 6v10h9v6.172l-6-6v11.656l11 11 11-11V16.172l-6 6V13c0-3.86-3.141-7-7-7H23z" fill="url(#f)"/><linearGradient id="g" x1=".5" y1=".009" x2=".5" y2="1.005"><stop offset="0" stop-color="#FFD85B"/><stop offset="1" stop-color="#FFEF82"/></linearGradient><path fill-rule="evenodd" d="M25 8v6h9v13l-6-6v6l9 9 9-9v-6l-6 6V13a5 5 0 0 0-5-5H25z" fill="url(#g)"/></svg>