<svg ti:v="1" width="16" height="16" viewBox="0 0 16 16" xmlns="http://www.w3.org/2000/svg" xmlns:ti="urn:schemas-jetbrains-com:tisvg"><rect id="frame" width="16" height="16" fill="none"/><linearGradient id="a" x1=".574" y1=".889" x2=".365" y2=".086"><stop offset="0" stop-color="#7866FF"/><stop offset=".048" stop-color="#7866FF"/><stop offset=".135" stop-color="#8264F9"/><stop offset=".281" stop-color="#9C64ED"/><stop offset=".467" stop-color="#C560D8"/><stop offset=".608" stop-color="#EA5EC6"/><stop offset=".729" stop-color="#F96297"/><stop offset=".769" stop-color="#FF6487"/><stop offset=".995" stop-color="#FF7500"/><stop offset="1" stop-color="#FF7500"/></linearGradient><path fill-rule="evenodd" d="M0 1.12v5.013l2.453 8.161 12.32-3.148L9.76 0 0 1.12z" fill="url(#a)"/><linearGradient id="b" x1=".959" y1=".59" x2=".409" y2=".5"><stop offset="0" stop-color="#7866FF"/><stop offset=".247" stop-color="#7866FF"/><stop offset=".346" stop-color="#8E5EF9"/><stop offset=".531" stop-color="#B352F0"/><stop offset=".705" stop-color="#CC49EA"/><stop offset=".859" stop-color="#DD44E6"/><stop offset=".979" stop-color="#E243E6"/><stop offset="1" stop-color="#E243E6"/></linearGradient><path fill-rule="evenodd" d="M12.96 7.947l-1.44 4.426L11.04 16l3.574-2.293L16 9.44l-.906-4.373-2.134 2.88z" fill="url(#b)"/><linearGradient id="c" x1=".811" y1=".572" x2=".112" y2=".315"><stop offset="0" stop-color="#E243E6"/><stop offset=".006" stop-color="#E243E6"/><stop offset=".064" stop-color="#E649C9"/><stop offset=".19" stop-color="#EF5882"/><stop offset=".372" stop-color="#FD700F"/><stop offset=".398" stop-color="#FF7500"/><stop offset="1" stop-color="#FF7500"/></linearGradient><path fill-rule="evenodd" d="M8.426 3.893l-3.52 2.454-.693 4.373 3.041 4.214L11.04 16l4.054-10.933L12 3.573l-3.574.32z" fill="url(#c)"/><path fill-rule="evenodd" d="M2 2h12v12H2V2z" fill="#282828"/><path fill-rule="evenodd" d="M3 11h5v1H3v-1z" fill="#FFF"/><path fill-rule="evenodd" d="M7.882 5.529c0-1.471 1.059-2.647 2.529-2.647.883 0 1.471.294 1.942.765l-.706.823c-.353-.353-.765-.588-1.236-.588C9.588 3.882 9 4.588 9 5.47c0 .824.588 1.588 1.411 1.588.53 0 .883-.235 1.294-.588l.706.706c-.529.529-1.058.941-2 .941-1.47 0-2.529-1.117-2.529-2.588z" fill="#FFF"/><path fill-rule="evenodd" d="M4.95 7.007c.224 0 .428-.036.614-.107a1.33 1.33 0 0 0 .475-.307c.131-.134.233-.291.307-.472a1.59 1.59 0 0 0 .111-.607V5.5c0-.219-.037-.422-.111-.608a1.366 1.366 0 0 0-.782-.789 1.664 1.664 0 0 0-.614-.11H4.1v3.014M3 3h1.95c.39 0 .749.063 1.075.189.326.126.607.301.843.525.235.224.418.487.546.789.129.303.193.63.193.982V5.5c0 .352-.064.681-.193.986a2.326 2.326 0 0 1-.546.792c-.236.224-.517.4-.843.529A2.9 2.9 0 0 1 4.95 8H3V3z" fill="#FFF"/></svg>