<svg ti:v="1" width="16" height="16" viewBox="0 0 16 16" xmlns="http://www.w3.org/2000/svg" xmlns:ti="urn:schemas-jetbrains-com:tisvg"><rect id="frame" width="16" height="16" fill="none"/><linearGradient id="a" x1=".5" y1=".017" x2=".5" y2="1.017"><stop offset="0" stop-color="#465B5D"/><stop offset="1" stop-color="#1A7585"/></linearGradient><path fill-rule="evenodd" d="M4.213 1.515l-.208.097v1.601L6.18 5.414l-.789.772-2.197-2.182H1.611l-.103.222a5.454 5.454 0 0 0-.503 2.278c0 3.033 2.468 5.5 5.5 5.5a5.39 5.39 0 0 0 1.614-.249l3.672 3.66a2 2 0 0 0 1.42.585c.532 0 1.031-.203 1.408-.572l.783-.766c.381-.374.594-.874.598-1.41a1.983 1.983 0 0 0-.577-1.419l-3.673-3.7a5.34 5.34 0 0 0 .255-1.629c0-3.032-2.468-5.5-5.5-5.5-.784 0-1.555.172-2.292.511z" fill="url(#a)"/><linearGradient id="b" x1=".5" y1=".029" x2=".5" y2="1"><stop offset="0" stop-color="#BFFFE6"/><stop offset="1" stop-color="#A8D8DF"/></linearGradient><path fill-rule="evenodd" d="M4.627 2.428L7.592 5.43 5.381 7.596l-2.968-2.95A4.455 4.455 0 0 0 2 6.509a4.5 4.5 0 0 0 4.5 4.5c.666 0 1.293-.154 1.861-.414l4.131 4.117c.39.387 1.029.391 1.423.006l.782-.765a.997.997 0 0 0 .01-1.411L10.58 8.382c.264-.571.42-1.202.42-1.874a4.5 4.5 0 0 0-4.5-4.5c-.671 0-1.302.156-1.873.42z" fill="url(#b)"/></svg>