<svg ti:v="1" width="16" height="16" viewBox="0 0 16 16" xmlns="http://www.w3.org/2000/svg" xmlns:ti="urn:schemas-jetbrains-com:tisvg"><rect id="frame" width="16" height="16" fill="none"/><g fill-rule="evenodd"><path d="M1.61 4.004h1.583L5.39 6.187l.79-.773-2.175-2.201V1.611l.208-.095a5.432 5.432 0 0 1 2.292-.512c3.032 0 5.5 2.468 5.5 5.5 0 .552-.085 1.098-.255 1.63l3.673 3.699c.375.38.581.884.577 1.419a1.982 1.982 0 0 1-.598 1.41l-.783.766a2 2 0 0 1-1.408.572 1.998 1.998 0 0 1-1.42-.585l-3.672-3.66a5.397 5.397 0 0 1-1.614.249 5.506 5.506 0 0 1-5.5-5.5c0-.78.168-1.546.502-2.277l.103-.223z" fill="#242424"/><path d="M2.413 4.647l2.968 2.949L7.592 5.43 4.627 2.428a4.461 4.461 0 0 1 1.873-.42 4.5 4.5 0 0 1 4.5 4.5c0 .672-.156 1.303-.42 1.875l4.127 4.159a.995.995 0 0 1-.01 1.41l-.782.765a1.018 1.018 0 0 1-1.423-.006l-4.13-4.117a4.455 4.455 0 0 1-1.862.414 4.5 4.5 0 0 1-4.5-4.5c0-.666.153-1.293.413-1.861z" fill="#C3C3C3"/></g></svg>