<svg ti:v="1" width="16" height="16" viewBox="0 0 16 16" xmlns="http://www.w3.org/2000/svg" xmlns:ti="urn:schemas-jetbrains-com:tisvg"><rect id="frame" width="16" height="16" fill="none"/><linearGradient id="a" x1=".5" y1="0" x2=".5" y2=".998"><stop offset="0" stop-color="#7C6E48"/><stop offset="1" stop-color="#60492F"/></linearGradient><path fill-rule="evenodd" d="M2 15V1h7.414L14 5.586V15H2z" fill="url(#a)"/><linearGradient id="b" x1=".5" y1="0" x2=".5" y2="1.004"><stop offset="0" stop-color="#E2D8BC"/><stop offset="1" stop-color="#E2CDB3"/></linearGradient><path fill-rule="evenodd" d="M9 2H3v12h10V6L9 2z" fill="url(#b)"/><linearGradient id="c" x1=".5" y1=".005" x2=".5" y2=".985"><stop offset="0" stop-color="#FFF2D4"/><stop offset="1" stop-color="#FFF"/></linearGradient><path fill-rule="evenodd" d="M11 12H5V4h4v2h2v6z" fill="url(#c)"/><linearGradient id="d" x1=".5" y1=".004" x2=".5" y2=".982"><stop offset="0" stop-color="#904D89"/><stop offset="1" stop-color="#492852"/></linearGradient><path fill-rule="evenodd" d="M10.586 0L8 2.586V4h1.586l-3 3L9 9.414l3-3V8h1.414L16 5.414V0h-5.414z" fill="url(#d)"/><linearGradient id="e" x1=".5" y1=".011" x2=".5" y2=".995"><stop offset="0" stop-color="#F7CCFF"/><stop offset="1" stop-color="#DDB3FF"/></linearGradient><path fill-rule="evenodd" d="M13 7V4L9 8 8 7l4-4H9l2-2h4v4l-2 2z" fill="url(#e)"/></svg>