<svg ti:v="1" width="48" height="48" viewBox="0 0 48 48" xmlns="http://www.w3.org/2000/svg" xmlns:ti="urn:schemas-jetbrains-com:tisvg"><rect id="frame" width="48" height="48" fill="none"/><linearGradient id="a" x1=".5" y1=".003" x2=".5" y2="1.003"><stop offset="0" stop-color="#7C6E48"/><stop offset="1" stop-color="#60492F"/></linearGradient><path fill-rule="evenodd" d="M5 46V2h24.828L43 15.172V46H5z" fill="url(#a)"/><linearGradient id="b" x1=".5" y1=".006" x2=".5" y2="1"><stop offset="0" stop-color="#E2D8BC"/><stop offset="1" stop-color="#E2CDB3"/></linearGradient><path fill-rule="evenodd" d="M29 4H7v40h34V16L29 4z" fill="url(#b)"/><linearGradient id="c" x1=".5" y1=".013" x2=".5" y2=".996"><stop offset="0" stop-color="#FFF2D4"/><stop offset="1" stop-color="#FFF"/></linearGradient><path fill-rule="evenodd" d="M29 16v-6H13v28h22V16h-6z" fill="url(#c)"/><linearGradient id="d" x1=".5" y1=".008" x2=".5" y2="1"><stop offset="0" stop-color="#566980"/><stop offset="1" stop-color="#2D3642"/></linearGradient><path fill-rule="evenodd" d="M14.496 18L0 25.806v2.388L3.353 30 0 31.806v2.388L3.353 36 0 37.806v2.388L14.496 48h1.008L30 40.194v-2.388L26.647 36 30 34.194v-2.388L26.647 30 30 28.194v-2.388L15.504 18h-1.008z" fill="url(#d)"/><linearGradient id="e" x1=".5" y1="-.325" x2=".5" y2="1.016"><stop offset="0" stop-color="#A5B1BC"/><stop offset="1" stop-color="#DFEFFF"/></linearGradient><path fill-rule="evenodd" d="M15 41.704l-9.011-4.852L2 39l13 7 13-7-3.989-2.148L15 41.704z" fill="url(#e)"/><linearGradient id="f" x1=".5" y1="-.312" x2=".5" y2="1"><stop offset="0" stop-color="#A5B1BC"/><stop offset="1" stop-color="#DFEFFF"/></linearGradient><path fill-rule="evenodd" d="M15 35.704l-9.011-4.852L2 33l13 7 13-7-3.989-2.148L15 35.704z" fill="url(#f)"/><linearGradient id="g" x1=".5" y1=".018" x2=".5" y2="1"><stop offset="0" stop-color="#A5B1BC"/><stop offset="1" stop-color="#DFEFFF"/></linearGradient><path fill-rule="evenodd" d="M15 34L2 27l13-7 13 7-13 7z" fill="url(#g)"/><linearGradient id="h" x1=".5" y1=".017" x2=".5" y2="1.008"><stop offset="0" stop-color="#904D89"/><stop offset="1" stop-color="#492852"/></linearGradient><path fill-rule="evenodd" d="M23.172 18l10-10h-8l8-8H48v14.828l-8 8v-8l-10 10L23.172 18z" fill="url(#h)"/><linearGradient id="i" x1=".5" y1=".017" x2=".5" y2="1.008"><stop offset="0" stop-color="#F7CCFF"/><stop offset="1" stop-color="#DDB3FF"/></linearGradient><path fill-rule="evenodd" d="M42 18v-8L30 22l-4-4L38 6h-8l4-4h12v12l-4 4z" fill="url(#i)"/></svg>