<svg xmlns="http://www.w3.org/2000/svg" width="16" height="16" viewBox="0 0 16 16"><rect id="frame" width="16" height="16" fill="none"/><g fill-rule="evenodd"><path d="M2 15V1h7.414L14 5.586V15z" fill="#f4f4f4"/><path d="M9 2H3v12h10V6z" fill="#313131"/><path d="M11 12H5V4h4v2h2z" fill="#ebebeb"/></g><path fill="#f4f4f4" d="M9.586 0L7 2.586V4h1.959L7 5.959v.828L9.212 9H10.041L12 7.041V9h1.414L16 6.414V0H9.586z"/><path fill="#00529c" d="M10 1L8 3h3.374L8 6.374 9.626 8 13 4.626V8l2-2V1h-5z"/></svg>