<svg xmlns="http://www.w3.org/2000/svg" xmlns:xlink="http://www.w3.org/1999/xlink" width="16" height="16" viewBox="0 0 16 16"><rect id="frame" width="16" height="16" fill="none"/><defs><linearGradient id="b" x1="8" y1="1" x2="8" y2="14.958" gradientUnits="userSpaceOnUse"><stop offset="0" stop-color="#7d6833"/><stop offset="1" stop-color="#54391a"/></linearGradient><linearGradient id="a" x1="11.5" y1="1.992" x2="11.5" y2="5.003" gradientUnits="userSpaceOnUse"><stop offset="0" stop-color="#e2d0a0"/><stop offset="1" stop-color="#e2ccb2"/></linearGradient><linearGradient id="c" x1="8" y1="1.97" x2="8" y2="14.011" xlink:href="#a"/><linearGradient id="d" x1="8" y1="3.49" x2="8" y2="12.574" gradientUnits="userSpaceOnUse"><stop offset="0" stop-color="#fff"/><stop offset="1" stop-color="#fff1d1"/></linearGradient><linearGradient id="e" x1="11.5" y1=".035" x2="11.5" y2="8.834" gradientUnits="userSpaceOnUse"><stop offset="0" stop-color="#904d89"/><stop offset="1" stop-color="#492852"/></linearGradient><linearGradient id="f" x1="11.5" y1="1.076" x2="11.5" y2="7.963" gradientUnits="userSpaceOnUse"><stop offset="0" stop-color="#f7ccff"/><stop offset="1" stop-color="#ddb3ff"/></linearGradient></defs><path d="M2 15V1h8.414L14 4.586V15z" fill="url(#b)"/><path fill="url(#a)" d="M13 5l-3-3v3h3z"/><path fill="url(#c)" d="M9 2H3v12h10V6H9V2z"/><path fill="url(#d)" d="M9 6V3.5H4.5v9h7V6H9z"/><g><path fill="url(#e)" d="M9.586 0L7 2.586V4h1.959L7 5.959v.828L9.212 9H10.041L12 7.041V9h1.414L16 6.414V0H9.586z"/><path fill="url(#f)" d="M10 1L8 3h3.374L8 6.374 9.626 8 13 4.626V8l2-2V1h-5z"/></g></svg>