<svg ti:v="1" width="16" height="16" viewBox="0 0 16 16" xmlns="http://www.w3.org/2000/svg" xmlns:ti="urn:schemas-jetbrains-com:tisvg"><rect id="frame" width="16" height="16" fill="none"/><linearGradient id="a" x1=".5" y1="0" x2=".5" y2="1"><stop offset="0" stop-color="#2AA5C3"/><stop offset="1" stop-color="#01596E"/></linearGradient><path fill-rule="evenodd" d="M9 14h6V6H9v8z" fill="url(#a)"/><linearGradient id="b" x1=".5" y1="0" x2=".5" y2="1"><stop offset="0" stop-color="#855200"/><stop offset="1" stop-color="#621C00"/></linearGradient><path fill-rule="evenodd" d="M2.5 5A2.502 2.502 0 0 0 0 7.5v5C0 13.879 1.121 15 2.5 15H9V5H2.5z" fill="url(#b)"/><linearGradient id="c" x1=".5" y1="0" x2=".5" y2="1"><stop offset="0" stop-color="#FF9C00"/><stop offset="1" stop-color="#FF4800"/></linearGradient><path fill-rule="evenodd" d="M2.5 6A1.5 1.5 0 0 0 1 7.5v5A1.5 1.5 0 0 0 2.5 14H8V6H2.5z" fill="url(#c)"/><linearGradient id="d" x1=".5" y1="0" x2=".5" y2="1"><stop offset="0" stop-color="#FFF"/><stop offset="1" stop-color="#CCF4FF"/></linearGradient><path fill-rule="evenodd" d="M9 13h5V7H9v6z" fill="url(#d)"/><path fill-rule="evenodd" d="M13 9h-2V8h2v1z" fill="#313131"/><path fill-rule="evenodd" d="M13 12h-2v-1h2v1z" fill="#313131"/><linearGradient id="e" x1=".5" y1=".021" x2=".5" y2="1"><stop offset="0" stop-color="#465B5D"/><stop offset="1" stop-color="#1A7585"/></linearGradient><path fill-rule="evenodd" d="M2.664 0A4.022 4.022 0 0 0 0 3.777a4.02 4.02 0 0 0 2 3.467V9.99C2 11.098 2.897 12 4 12s2-.902 2-2.01V7.244a4.02 4.02 0 0 0 2-3.467A4.022 4.022 0 0 0 5.336 0H2.664z" fill="url(#e)"/><linearGradient id="f" x1=".5" y1=".024" x2=".5" y2="1.003"><stop offset="0" stop-color="#BFFFE6"/><stop offset="1" stop-color="#A8D8DF"/></linearGradient><path fill-rule="evenodd" d="M5 4H3V1a2.994 2.994 0 0 0-2 2.817c0 1.303.838 2.402 2 2.816V10a1 1 0 1 0 2 0V6.633a2.994 2.994 0 0 0 2-2.816A2.994 2.994 0 0 0 5 1v3z" fill="url(#f)"/></svg>