<svg ti:v="1" width="16" height="16" viewBox="0 0 16 16" xmlns="http://www.w3.org/2000/svg" xmlns:ti="urn:schemas-jetbrains-com:tisvg"><rect id="frame" width="16" height="16" fill="none"/><g fill-rule="evenodd"><path d="M2 2.586V4h1.586L1 6.586v.828L2.586 9h.828L6 6.414V8h1.414L10 5.414V0H4.586L2 2.586z" fill="#F4F4F4"/><path d="M7 7V4L3 8 2 7l4-4H3l2-2h4v4L7 7z" fill="#00529C"/><path d="M15 8.586L13.414 7h-.828L10 9.586V8H8.586L6 10.586V16h5.414L14 13.414V12h-1.586L15 9.414v-.828z" fill="#F4F4F4"/><path d="M9 9v3l4-4 1 1-4 4h3l-2 2H7v-4l2-2z" fill="#00529C"/></g></svg>