<svg ti:v="1" width="16" height="16" viewBox="0 0 16 16" xmlns="http://www.w3.org/2000/svg" xmlns:ti="urn:schemas-jetbrains-com:tisvg"><rect id="frame" width="16" height="16" fill="none"/><linearGradient id="a" x1=".5" y1=".004" x2=".5" y2=".982"><stop offset="0" stop-color="#904D89"/><stop offset="1" stop-color="#492852"/></linearGradient><path fill-rule="evenodd" d="M2 2.586V4h1.586L1 6.586v.828L2.586 9h.828L6 6.414V8h1.414L10 5.414V0H4.586L2 2.586z" fill="url(#a)"/><linearGradient id="b" x1=".5" y1=".011" x2=".5" y2=".995"><stop offset="0" stop-color="#F7CCFF"/><stop offset="1" stop-color="#DDB3FF"/></linearGradient><path fill-rule="evenodd" d="M7 7V4L3 8 2 7l4-4H3l2-2h4v4L7 7z" fill="url(#b)"/><linearGradient id="c" x1=".5" y1="0" x2=".5" y2=".999"><stop offset="0" stop-color="#4D6790"/><stop offset="1" stop-color="#283852"/></linearGradient><path fill-rule="evenodd" d="M15 8.586L13.414 7h-.828L10 9.586V8H8.586L6 10.586V16h5.414L14 13.414V12h-1.586L15 9.414v-.828z" fill="url(#c)"/><linearGradient id="d" x1=".5" y1=".021" x2=".5" y2="1.006"><stop offset="0" stop-color="#AAEFFF"/><stop offset=".994" stop-color="#60BCFF"/><stop offset="1" stop-color="#60BCFF"/></linearGradient><path fill-rule="evenodd" d="M9 9v3l4-4 1 1-4 4h3l-2 2H7v-4l2-2z" fill="url(#d)"/></svg>