<svg ti:v="1" width="48" height="48" viewBox="0 0 48 48" xmlns="http://www.w3.org/2000/svg" xmlns:ti="urn:schemas-jetbrains-com:tisvg"><rect id="frame" width="48" height="48" fill="none"/><g fill-rule="evenodd"><path d="M5 46V2h24.828L43 15.172V46H5z" fill="#F4F4F4"/><path d="M29 4H7v40h34V16L29 4z" fill="#313131"/><path d="M29 16v-6H13v28h22V16h-6z" fill="#EBEBEB"/><path d="M14.496 18L0 25.806v2.388L3.352 30 0 31.806v2.388L3.352 36 0 37.806v2.388L14.496 48h1.008L30 40.194v-2.388L26.647 36 30 34.194v-2.388L26.647 30 30 28.194v-2.388L15.504 18h-1.008z" fill="#F4F4F4"/><path d="M15 41.704l-9.011-4.853L2 39l13 7 13-7-3.989-2.149L15 41.704z" fill="#313131"/><path d="M15 35.704l-9.011-4.853L2 33l13 7 13-7-3.989-2.149L15 35.704z" fill="#313131"/><path d="M15 34L2 27l13-7 13 7-13 7z" fill="#313131"/><path d="M47.828 7l-10 10h8l-8 8H23V10.172l8-8v8l10-10L47.828 7z" fill="#F4F4F4"/><path d="M29 7v8L41 3l4 4-12 12h8l-4 4H25V11l4-4z" fill="#00529C"/></g></svg>