<svg xmlns="http://www.w3.org/2000/svg" xmlns:xlink="http://www.w3.org/1999/xlink" width="16" height="16" viewBox="0 0 16 16"><rect id="frame" width="16" height="16" fill="none"/><defs><linearGradient id="a" x1="-19.667" y1="-434.649" x2="-19.667" y2="-435.644" gradientTransform="matrix(12 0 0 -14 244 -6084)" gradientUnits="userSpaceOnUse"><stop offset="0" stop-color="#7c6e48"/><stop offset="1" stop-color="#60492f"/></linearGradient><linearGradient id="b" x1="-19.3" y1="-440.583" x2="-19.3" y2="-441.581" gradientTransform="matrix(10 0 0 -12 201 -5285)" gradientUnits="userSpaceOnUse"><stop offset="0" stop-color="#e2d8bc"/><stop offset="1" stop-color="#e2cdb3"/></linearGradient><linearGradient id="c" x1="-17.833" y1="-461.387" x2="-17.833" y2="-462.382" gradientTransform="matrix(6 0 0 -8 115 -3687)" gradientUnits="userSpaceOnUse"><stop offset="0" stop-color="#fff2d4"/><stop offset="1" stop-color="#fff"/></linearGradient><linearGradient id="d" x1="11.5" y1="-.065" x2="11.5" y2="9.086" gradientUnits="userSpaceOnUse"><stop offset="0" stop-color="#4d6790"/><stop offset="1" stop-color="#283852"/></linearGradient><linearGradient id="e" x1="11.5" y1="1.014" x2="11.5" y2="8.203" gradientUnits="userSpaceOnUse"><stop offset="0" stop-color="#aaefff"/><stop offset=".994" stop-color="#60bcff"/><stop offset="1" stop-color="#60bcff"/></linearGradient></defs><g fill-rule="evenodd"><path d="M2 15V1h7.414L14 5.586V15z" fill="url(#a)"/><path d="M9 2H3v12h10V6z" fill="url(#b)"/><path d="M9 6V4H5v8h6V6z" fill="url(#c)"/><g><path fill="url(#d)" d="M13.414 9L16 6.414V5h-1.959L16 3.041v-.828L13.788 0H12.959L11 1.959V0H9.586L7 2.586V9h6.414z"/><path fill="url(#e)" d="M13 8l2-2h-3.374L15 2.626 13.374 1 10 4.374V1L8 3v5h5z"/></g></g></svg>