<svg xmlns="http://www.w3.org/2000/svg" width="16" height="16" viewBox="0 0 16 16"><rect id="frame" width="16" height="16" fill="none"/><g fill-rule="evenodd"><path d="M2 15V1h7.414L14 5.586V15z" fill="#242424"/><path d="M9 2H3v12h10V6z" fill="#c3c3c3"/><path d="M9 6V4H5v8h6V6z" fill="#282828"/><g><path fill="#242424" d="M13.414 9L16 6.414V5h-1.959L16 3.041v-.828L13.788 0H12.959L11 1.959V0H9.586L7 2.586V9h6.414z"/><path fill="#7cbdff" d="M13 8l2-2h-3.374L15 2.626 13.374 1 10 4.374V1L8 3v5h5z"/></g></g></svg>