<svg ti:v="1" width="16" height="16" viewBox="0 0 16 16" xmlns="http://www.w3.org/2000/svg" xmlns:ti="urn:schemas-jetbrains-com:tisvg"><rect id="frame" width="16" height="16" fill="none"/><linearGradient id="a" x1=".5" y1=".021" x2=".5" y2="1.021"><stop offset="0" stop-color="#1F2333"/><stop offset="1" stop-color="#525666"/></linearGradient><path fill-rule="evenodd" d="M4 13l-1 1v2h10v-2l-1-1H4z" fill="url(#a)"/><linearGradient id="b" x1=".5" y1="0" x2=".5" y2="1.01"><stop offset="0" stop-color="#666B80"/><stop offset="1" stop-color="#1F2333"/></linearGradient><path fill-rule="evenodd" d="M1 0C.45 0 0 .45 0 1v11c0 .55.45 1 1 1h14c.549 0 1-.45 1-1V1c0-.55-.451-1-1-1H1z" fill="url(#b)"/><linearGradient id="c" x1=".5" y1=".011" x2=".5" y2="1"><stop offset="0" stop-color="#FFF"/><stop offset="1" stop-color="#CDCFD8"/></linearGradient><path fill-rule="evenodd" d="M1.5 1c-.275 0-.5.225-.5.5v10c0 .275.225.5.5.5h13c.275 0 .5-.225.5-.5v-10c0-.275-.225-.5-.5-.5h-13z" fill="url(#c)"/><linearGradient id="d" x1=".5" y1=".009" x2=".5" y2=".991"><stop offset="0" stop-color="#231F1F"/><stop offset="1" stop-color="#6D6E70"/></linearGradient><path fill-rule="evenodd" d="M2 9h12V2H2v7z" fill="url(#d)"/><linearGradient id="e" x1=".5" y1="0" x2=".5" y2="1.032"><stop offset="0" stop-color="#909399"/><stop offset=".699" stop-color="#FFF"/><stop offset="1" stop-color="#FFF"/></linearGradient><path fill-rule="evenodd" d="M5 13v1H4v1h8v-1h-1v-1H5z" fill="url(#e)"/><path fill-rule="evenodd" d="M14 10H2V9h12v1z"/></svg>