<svg ti:v="1" width="16" height="16" viewBox="0 0 16 16" xmlns="http://www.w3.org/2000/svg" xmlns:ti="urn:schemas-jetbrains-com:tisvg"><rect id="frame" width="16" height="16" fill="none"/><g fill-rule="evenodd"><path d="M10 2V1H5v1H1v13h14V2h-5z" fill="#242424"/><path d="M10 14h4V3h-4v11z" fill="#C3C3C3"/><path d="M13 6h-2V4h2m0 7h-2v-1h2m0 3h-2v-1h2v1z" fill="#292929"/><path d="M2 14h3V3H2v11z" fill="#C3C3C3"/><path d="M3 6h1V4H3m0 7h1v-1H3m0 3h1v-1H3v1z" fill="#292929"/><path d="M6 14h3V2H6v12z" fill="#C3C3C3"/><path d="M7 4h1V3H7m0 8h1v-1H7m0 3h1v-1H7v1z" fill="#292929"/></g></svg>