<svg ti:v="1" width="16" height="16" viewBox="0 0 16 16" xmlns="http://www.w3.org/2000/svg" xmlns:ti="urn:schemas-jetbrains-com:tisvg"><rect id="frame" width="16" height="16" fill="none"/><linearGradient id="a" x1="0" y1=".5" x2="1" y2=".5"><stop offset="0" stop-color="#70693F"/><stop offset=".5" stop-color="#3F5F70"/><stop offset="1" stop-color="#41753F"/></linearGradient><path fill-rule="evenodd" d="M10 2V1H5v1H1v13h14V2h-5z" fill="url(#a)"/><linearGradient id="b" x1="0" y1=".5" x2="1" y2=".5"><stop offset="0" stop-color="#AAFFA8"/><stop offset="1" stop-color="#069C00"/></linearGradient><path fill-rule="evenodd" d="M10 14h4V3h-4v11z" fill="url(#b)"/><path fill-rule="evenodd" d="M13 6h-2V4h2m0 7h-2v-1h2m0 3h-2v-1h2v1z" fill="#00630C"/><linearGradient id="c" x1="0" y1=".5" x2="1" y2=".5"><stop offset="0" stop-color="#FDFFC1"/><stop offset="1" stop-color="#FFA724"/></linearGradient><path fill-rule="evenodd" d="M2 14h3V3H2v11z" fill="url(#c)"/><path fill-rule="evenodd" d="M3 6h1V4H3m0 7h1v-1H3m0 3h1v-1H3v1z" fill="#995D00"/><linearGradient id="d" x1="0" y1=".5" x2="1" y2=".5"><stop offset="0" stop-color="#C1EAFF"/><stop offset="1" stop-color="#24B8FF"/></linearGradient><path fill-rule="evenodd" d="M6 14h3V2H6v12z" fill="url(#d)"/><path fill-rule="evenodd" d="M7 4h1V3H7m0 8h1v-1H7m0 3h1v-1H7v1z" fill="#002D70"/></svg>