<svg ti:v="1" width="16" height="16" viewBox="0 0 16 16" xmlns="http://www.w3.org/2000/svg" xmlns:ti="urn:schemas-jetbrains-com:tisvg"><rect id="frame" width="16" height="16" fill="none"/><linearGradient id="a" x1=".5" y1=".017" x2=".5" y2="1.017"><stop offset="0" stop-color="#465B5D"/><stop offset="1" stop-color="#1A7585"/></linearGradient><path fill-rule="evenodd" d="M4.213 1.516l-.208.095v1.602L6.18 5.414l-.789.773-2.197-2.183H1.611l-.103.223a5.443 5.443 0 0 0-.503 2.277c0 3.033 2.468 5.5 5.5 5.5.546 0 1.087-.084 1.614-.249l3.672 3.66a2 2 0 0 0 1.42.585c.532 0 1.031-.203 1.408-.572l.783-.766c.381-.374.594-.874.598-1.41a1.981 1.981 0 0 0-.577-1.419L11.75 8.134c.17-.532.255-1.079.255-1.63 0-3.032-2.468-5.5-5.5-5.5-.784 0-1.555.172-2.292.512z" fill="url(#a)"/><linearGradient id="b" x1=".5" y1=".029" x2=".5" y2="1"><stop offset="0" stop-color="#BFFFE6"/><stop offset="1" stop-color="#A8D8DF"/></linearGradient><path fill-rule="evenodd" d="M4.627 2.428L7.592 5.43 5.381 7.595 2.413 4.646A4.462 4.462 0 0 0 2 6.508a4.5 4.5 0 0 0 4.5 4.5 4.47 4.47 0 0 0 1.861-.414l4.131 4.117a1.02 1.02 0 0 0 1.423.006l.782-.766a.996.996 0 0 0 .01-1.41L10.58 8.383c.264-.572.42-1.203.42-1.875a4.5 4.5 0 0 0-4.5-4.5c-.671 0-1.302.156-1.873.42z" fill="url(#b)"/></svg>