<svg ti:v="1" width="16" height="16" viewBox="0 0 16 16" xmlns="http://www.w3.org/2000/svg" xmlns:ti="urn:schemas-jetbrains-com:tisvg"><rect id="frame" width="16" height="16" fill="none"/><g fill-rule="evenodd"><path d="M2.5 14A2.502 2.502 0 0 1 0 11.5v-7C0 3.121 1.121 2 2.5 2H10v12H2.5z" fill="#F4F4F4"/><path d="M8 3h8v10H8V3z" fill="#F4F4F4"/><path d="M9 12h6V4H9v8z" fill="#313131"/><path d="M1 11.5A1.5 1.5 0 0 0 2.5 13H9V3H2.5A1.5 1.5 0 0 0 1 4.5v7z" fill="#313131"/><path d="M14 11H9V5h5v6z" fill="#EBEBEB"/><path d="M13 7h-2V6h2v1z" fill="#313131"/><path d="M13 10h-2V9h2v1z" fill="#313131"/></g></svg>