<svg ti:v="1" width="16" height="16" viewBox="0 0 16 16" xmlns="http://www.w3.org/2000/svg" xmlns:ti="urn:schemas-jetbrains-com:tisvg"><rect id="frame" width="16" height="16" fill="none"/><linearGradient id="a" x1=".5" y1="0" x2=".5" y2="1"><stop offset="0" stop-color="#2AA5C3"/><stop offset="1" stop-color="#01596E"/></linearGradient><path fill-rule="evenodd" d="M9 12h5.999V4.001H9V12z" fill="url(#a)"/><linearGradient id="b" x1=".5" y1="0" x2=".5" y2="1"><stop offset="0" stop-color="#855200"/><stop offset="1" stop-color="#621C00"/></linearGradient><path fill-rule="evenodd" d="M2.5 3A2.502 2.502 0 0 0 0 5.5v5C0 11.879 1.121 13 2.5 13H9V3H2.5z" fill="url(#b)"/><linearGradient id="c" x1=".5" y1="0" x2=".5" y2="1"><stop offset="0" stop-color="#FF9C00"/><stop offset="1" stop-color="#FF4800"/></linearGradient><path fill-rule="evenodd" d="M2.5 4A1.5 1.5 0 0 0 1 5.5v5A1.5 1.5 0 0 0 2.5 12H8V4H2.5z" fill="url(#c)"/><linearGradient id="d" x1=".5" y1="0" x2=".5" y2="1"><stop offset="0" stop-color="#FFF"/><stop offset="1" stop-color="#CCF4FF"/></linearGradient><path fill-rule="evenodd" d="M9 11h5V5.001H9V11z" fill="url(#d)"/><path fill-rule="evenodd" d="M13 7h-2V6h2v1z" fill="#313131"/><path fill-rule="evenodd" d="M13 10h-2V9h2v1z" fill="#313131"/></svg>