<svg ti:v="1" width="16" height="16" viewBox="0 0 16 16" xmlns="http://www.w3.org/2000/svg" xmlns:ti="urn:schemas-jetbrains-com:tisvg"><rect id="frame" width="16" height="16" fill="none"/><g fill-rule="evenodd"><path d="M16 14H1v-3h15v3z" fill="#242424"/><path d="M15 13H2v-1h13v1z" fill="#C3C3C3"/><path d="M9 2a6.01 6.01 0 0 0-5.97 5.397L2.235 7H1v2.414l4 4L7.414 11H15V8c0-3.309-2.691-6-6-6z" fill="#242424"/><path d="M9 3a5 5 0 0 0-5 5v1L2 8v1l3 3 3-3V8L6 9V8a3 3 0 1 1 6 0v2h2V8a5 5 0 0 0-5-5z" fill="#C3C3C3"/></g></svg>