<svg ti:v="1" width="48" height="48" viewBox="0 0 48 48" xmlns="http://www.w3.org/2000/svg" xmlns:ti="urn:schemas-jetbrains-com:tisvg"><rect id="frame" width="48" height="48" fill="none"/><linearGradient id="a" x1=".5" y1=".015" x2=".5" y2="1.008"><stop offset="0" stop-color="#11418C"/><stop offset="1" stop-color="#022152"/></linearGradient><path fill-rule="evenodd" d="M0 42h48.001V32H0v10z" fill="url(#a)"/><linearGradient id="b" x1=".5" y1=".013" x2=".5" y2="1.026"><stop offset="0" stop-color="#89D8FF"/><stop offset="1" stop-color="#0AF"/></linearGradient><path fill-rule="evenodd" d="M2 40h44v-5.999H2V40z" fill="url(#b)"/><linearGradient id="c" x1="0" y1=".5" x2="1" y2=".5"><stop offset="0" stop-color="#706B15"/><stop offset=".27" stop-color="#706B15"/><stop offset="1" stop-color="#59360E"/></linearGradient><path fill-rule="evenodd" d="M8 23v1.172l-6-6v11.656l11 11 11-11V18.172l-6 6V23c0-4.963 4.037-9 9-9s9 4.037 9 9v8h10v-8c0-10.476-8.523-19-19-19C16.524 4 8 12.524 8 23z" fill="url(#c)"/><linearGradient id="d" x1="0" y1=".5" x2="1" y2=".5"><stop offset="0" stop-color="#FFF989"/><stop offset=".27" stop-color="#FFF989"/><stop offset="1" stop-color="#FFC889"/></linearGradient><path fill-rule="evenodd" d="M10 23v6l-6-6v6l9 9 9-9v-6l-6 6v-6c0-6.075 4.925-11 11-11 6.076 0 11 4.925 11 11v6h6v-6c0-9.389-7.612-17-17-17s-17 7.611-17 17z" fill="url(#d)"/></svg>