<svg ti:v="1" width="48" height="48" viewBox="0 0 48 48" xmlns="http://www.w3.org/2000/svg" xmlns:ti="urn:schemas-jetbrains-com:tisvg"><rect id="frame" width="48" height="48" fill="none"/><g fill-rule="evenodd"><path d="M48 42H0V32h48v10z" fill="#F4F4F4"/><path d="M46 40H2v-6h44v6z" fill="#313131"/><path d="M2 29.828V18.172l6 6V23C8 12.523 16.523 4 27 4s19 8.523 19 19v8H36v-8c0-4.963-4.037-9-9-9s-9 4.037-9 9v1.172l6-6v11.656l-11 11-11-11z" fill="#F4F4F4"/><path d="M27 6c-9.389 0-17 7.611-17 17v6l-6-6v6l9 9 9-9v-6l-6 6v-6c0-6.075 4.925-11 11-11s11 4.925 11 11v6h6v-6c0-9.389-7.611-17-17-17z" fill="#313131"/></g></svg>