<svg ti:v="1" width="16" height="16" viewBox="0 0 16 16" xmlns="http://www.w3.org/2000/svg" xmlns:ti="urn:schemas-jetbrains-com:tisvg"><rect id="frame" width="16" height="16" fill="none"/><linearGradient id="a" x1=".5" y1="0" x2=".5" y2="1.031"><stop offset="0" stop-color="#11418C"/><stop offset="1" stop-color="#022152"/></linearGradient><path fill-rule="evenodd" d="M1 14h14.999v-3H1v3z" fill="url(#a)"/><path fill-rule="evenodd" d="M15 13H2v-1h13v1z" fill="#8AD8FF"/><linearGradient id="b" x1="0" y1=".5" x2="1" y2=".5"><stop offset="0" stop-color="#706B15"/><stop offset=".27" stop-color="#706B15"/><stop offset="1" stop-color="#59360E"/></linearGradient><path fill-rule="evenodd" d="M3.031 7.398L2.235 7H1v2.415l4 3.999L7.414 11H15V8c0-3.309-2.691-6-6-6a6.008 6.008 0 0 0-5.969 5.398z" fill="url(#b)"/><linearGradient id="c" x1="0" y1=".5" x2="1" y2=".5"><stop offset="0" stop-color="#FFF989"/><stop offset=".27" stop-color="#FFF989"/><stop offset="1" stop-color="#FFC889"/></linearGradient><path fill-rule="evenodd" d="M4 8v1L2 8v1l3 3 3-3V8L6 9V8a3 3 0 1 1 6 0v2h2V8a5 5 0 0 0-5-5 5 5 0 0 0-5 5z" fill="url(#c)"/></svg>