<svg ti:v="1" width="48" height="48" viewBox="0 0 48 48" xmlns="http://www.w3.org/2000/svg" xmlns:ti="urn:schemas-jetbrains-com:tisvg"><rect id="frame" width="48" height="48" fill="none"/><linearGradient id="a" x1=".5" y1=".006" x2=".5" y2="1"><stop offset="0" stop-color="#566980"/><stop offset="1" stop-color="#2D3642"/></linearGradient><path fill-rule="evenodd" d="M14.496 18L0 25.805v2.389L3.352 30 0 31.806v2.388L3.352 36 0 37.806v2.389L14.496 48h1.008L30 40.195v-2.389L26.648 36 30 34.194v-2.388L26.648 30 30 28.194v-2.389L15.504 18h-1.008z" fill="url(#a)"/><linearGradient id="b" x1=".5" y1="-.33" x2=".5" y2="1.018"><stop offset="0" stop-color="#A5B1BC"/><stop offset="1" stop-color="#DFEFFF"/></linearGradient><path fill-rule="evenodd" d="M15 41.704l-9.011-4.852L2 39l13 7 13-7-3.989-2.148L15 41.704z" fill="url(#b)"/><linearGradient id="c" x1=".5" y1="-.33" x2=".5" y2="1"><stop offset="0" stop-color="#A5B1BC"/><stop offset="1" stop-color="#DFEFFF"/></linearGradient><path fill-rule="evenodd" d="M15 35.705l-9.011-4.853L2 33l13 7 13-7-3.989-2.148L15 35.705z" fill="url(#c)"/><linearGradient id="d" x1=".5" y1=".024" x2=".5" y2=".988"><stop offset="0" stop-color="#A5B1BC"/><stop offset="1" stop-color="#DFEFFF"/></linearGradient><path fill-rule="evenodd" d="M2 27l13 7 13-7-13-7-13 7z" fill="url(#d)"/><linearGradient id="e" x1=".5" y1=".005" x2=".5" y2="1.001"><stop offset="0" stop-color="#465B5D"/><stop offset="1" stop-color="#1A7585"/></linearGradient><path fill-rule="evenodd" d="M20.357 1.014l-2.648 1.198 8.001 7.923-2.579 2.579-7.903-7.958-1.2 2.634C13.178 9.257 13 11.38 13 12.834c0 7.079 5.757 12.838 12.835 12.838 1.555 0 2.938-.169 4.13-.502l8 8.041c.184.183 1.86 1.789 4.222 1.789 1.019 0 2.544-.311 4.018-1.789 1.658-1.655 2.19-3.706 1.501-5.774a6.71 6.71 0 0 0-1.52-2.495l-8.174-7.935c.425-1.339.66-2.8.66-4.173C38.672 5.757 32.913 0 25.835 0c-1.477 0-3.626.176-5.478 1.014z" fill="url(#e)"/><linearGradient id="f" x1=".5" y1=".011" x2=".5" y2=".995"><stop offset="0" stop-color="#BFFFE6"/><stop offset="1" stop-color="#A8D8DF"/></linearGradient><path fill-rule="evenodd" d="M21.182 2.836l7.364 7.292-5.418 5.419-7.279-7.328C15.23 9.577 15 11.249 15 12.834c0 5.986 4.855 10.838 10.836 10.838 1.588 0 3.291-.194 4.656-.81l8.888 8.934s2.713 2.709 5.415 0c2.712-2.71 0-5.419 0-5.419l-9.115-8.849c.612-1.362.994-3.105.994-4.694C36.674 6.852 31.818 2 25.836 2c-1.588 0-3.296.222-4.654.836z" fill="url(#f)"/></svg>