<svg ti:v="1" width="48" height="48" viewBox="0 0 48 48" xmlns="http://www.w3.org/2000/svg" xmlns:ti="urn:schemas-jetbrains-com:tisvg"><rect id="frame" width="48" height="48" fill="none"/><g fill-rule="evenodd"><path d="M14.496 18L0 25.806v2.388L3.352 30 0 31.806v2.388L3.352 36 0 37.806v2.388L14.496 48h1.008L30 40.194v-2.388L26.647 36 30 34.194v-2.388L26.647 30 30 28.194v-2.388L15.504 18h-1.008z" fill="#F4F4F4"/><path d="M15 41.704l-9.011-4.853L2 39.001l13 7 13-7-3.989-2.15L15 41.704z" fill="#313131"/><path d="M15 35.704l-9.011-4.853L2 33.001l13 7 13-7-3.989-2.15L15 35.704z" fill="#313131"/><path d="M15 34L2 27l13-7 13 7-13 7z" fill="#313131"/><path d="M42.187 35c-2.363 0-4.039-1.605-4.223-1.789l-8-8.041c-1.191.333-2.574.502-4.13.502C18.757 25.672 13 19.913 13 12.834c0-1.453.178-3.577 1.028-5.444l1.199-2.634 7.904 7.958 2.578-2.579-8.001-7.923 2.648-1.198C22.208.176 24.358 0 25.834 0c7.079 0 12.837 5.757 12.837 12.834 0 1.373-.235 2.834-.66 4.173l8.174 7.935a6.705 6.705 0 0 1 1.521 2.496c.689 2.067.157 4.118-1.501 5.773C44.731 34.689 43.206 35 42.187 35z" fill="#F4F4F4"/><path d="M15.849 8.219l7.279 7.328 5.418-5.42-7.364-7.291C22.54 2.222 24.248 2 25.836 2c5.983 0 10.838 4.853 10.838 10.834 0 1.589-.382 3.33-.994 4.695l9.115 8.848s2.712 2.71 0 5.419c-2.702 2.709-5.415 0-5.415 0l-8.888-8.933c-1.365.615-3.067.809-4.656.809C19.856 23.672 15 18.82 15 12.834c0-1.585.231-3.258.849-4.615z" fill="#313131"/></g></svg>