<svg ti:v="1" width="16" height="16" viewBox="0 0 16 16" xmlns="http://www.w3.org/2000/svg" xmlns:ti="urn:schemas-jetbrains-com:tisvg"><rect id="frame" width="16" height="16" fill="none"/><linearGradient id="a" x1=".5" y1="0" x2=".5" y2="1"><stop offset="0" stop-color="#3C5E25"/><stop offset="1" stop-color="#2A421A"/></linearGradient><path d="M2.049 14A1.994 1.994 0 0 1 0 11.97 1.932 1.932 0 0 1 1.98 10c.66 0 3.801-.64 6.096-1.108 1.64-.335 3.19-.652 4.09-.798l.73-2.82A1.683 1.683 0 0 1 14.53 4h.226A1.248 1.248 0 0 1 16 5.242C15.997 8.086 15.991 14 10.993 14zm0 0" fill="url(#a)"/><linearGradient id="b" x1=".5" y1="0" x2=".5" y2="1"><stop offset="0" stop-color="#BDF298"/><stop offset="1" stop-color="#5CCF11"/></linearGradient><path d="M15 5.242A.242.242 0 0 0 14.758 5h-.226a.682.682 0 0 0-.661.516l-.698 2.791a1.04 1.04 0 0 1-.841.774C10.03 9.455 3.23 11 2 11a1 1 0 1 0 .068 2H11c3.894 0 3.997-4.739 4-7.758zm0 0" fill="url(#b)"/><linearGradient id="c" x1=".5" y1="0" x2=".5" y2="1"><stop offset="0" stop-color="#755A2F"/><stop offset="1" stop-color="#3B2D17"/></linearGradient><path d="M12 6.5a5.5 5.5 0 1 1-11 0 5.5 5.5 0 0 1 11 0z" fill="url(#c)"/><linearGradient id="d" x1=".5" y1="0" x2=".5" y2="1"><stop offset="0" stop-color="#FFD97A"/><stop offset="1" stop-color="#F59300"/></linearGradient><path d="M11 6.5a4.5 4.5 0 1 1-9 0 4.5 4.5 0 0 1 9 0z" fill="url(#d)"/><path d="M5.695 5.678c1.18-.119 1.254.966.458 1.068L6.139 8.61c1.759 0 2.319-.457 2.319-2.847 0-1.136-1.052-1.543-2.594-1.543-3.61 0-3.462 5.73.61 6.644-2.756-1.268-3.045-4.958-.78-5.186zm0 0" fill="#FFF5C2"/><linearGradient id="e" x1=".5" y1="0" x2=".5" y2="1"><stop offset="0" stop-color="#755A2F"/><stop offset="1" stop-color="#3B2D17"/></linearGradient><path d="M5.814 4.932c1.518-.042 1.674 1.648.305 1.797L6.122 8c1.759 0 2.353-.956 2.353-2.186 0-1.355-1.086-2.136-2.628-2.136-3.61 0-4.508 5.932.661 7.203-4.153-1.568-3.244-5.878-.694-5.949zm0 0" fill="url(#e)"/></svg>