<svg ti:v="1" width="16" height="16" viewBox="0 0 16 16" xmlns="http://www.w3.org/2000/svg" xmlns:ti="urn:schemas-jetbrains-com:tisvg"><rect id="frame" width="16" height="16" fill="none"/><linearGradient id="a" x1=".5" y1=".01" x2=".5" y2="1"><stop offset="0" stop-color="#467942"/><stop offset="1" stop-color="#2A4423"/></linearGradient><path fill-rule="evenodd" d="M0 8a8 8 0 0 0 16 0A8 8 0 0 0 0 8z" fill="url(#a)"/><linearGradient id="b" x1=".5" y1=".012" x2=".5" y2="1.006"><stop offset="0" stop-color="#FFF"/><stop offset="1" stop-color="#BCDBB3"/></linearGradient><path fill-rule="evenodd" d="M1 8a7 7 0 1 0 14 0 7 7 0 0 0-7-7 7 7 0 0 0-7 7zm1 0a6 6 0 1 1 12 0c0 3.315-2.686 6-6 6s-6-2.685-6-6z" fill="url(#b)"/><linearGradient id="c" x1=".5" y1=".01" x2=".5" y2="1.01"><stop offset="0" stop-color="#38FF00"/><stop offset=".245" stop-color="#1CFF7B"/><stop offset="1" stop-color="#00FFF6"/></linearGradient><path fill-rule="evenodd" d="M7 4v4L5 7v2l3 3 3-3V7L9 8V4H7z" fill="url(#c)"/></svg>