<svg xmlns="http://www.w3.org/2000/svg" width="16" height="16" viewBox="0 0 16 16"><rect id="frame" width="16" height="16" fill="none"/><g fill="none" fill-rule="evenodd"><path fill="#62B543" fill-opacity=".6" d="M14.93 9h-4.437C9.116 9 8 10.076 8 11.403v3.193c0 .138.012.273.035.404H8a7 7 0 1 1 6.93-6z"/><path fill="#231F20" fill-opacity=".7" d="M8.035 11c-1.776-.033-2.94-1.314-2.94-2.983V8c0-1.624 1.244-3 2.992-3 1.011 0 1.633.282 2.23.787l-.647.771c-.447-.373-.887-.613-1.624-.613-1.07 0-1.881.928-1.881 2.038V8c0 1.193.787 2.072 1.972 2.072.1 0 .197-.006.292-.017a2.341 2.341 0 0 0-.394.944zm1.503-1.817v-.628H8.054V7.66h2.47V9h-.03c-.34 0-.662.065-.956.183z"/><path fill="#9AA7B0" d="M13 10v6h-2.575C9.638 16 9 15.193 9 14.197v-2.395C9 10.807 9.638 10 10.425 10H13zm1 2v-1h2v1h-2zm0 3v-1h2v1h-2z"/></g></svg>