<svg xmlns="http://www.w3.org/2000/svg" width="13" height="13" viewBox="0 0 13 13"><rect id="frame" width="13" height="13" fill="none"/><path fill="#6E6E6E" d="M7.41 9.634L4.76 12.66a1.005 1.005 0 0 1-1.396.105.96.96 0 0 1-.34-.847l.425-3.625L.614 7.152A.964.964 0 0 1 .69 5.331l3.554-1.112L4.8.817A.988.988 0 0 1 5.935.012a.991.991 0 0 1 .693.46l1.576 2.582 3.524-1.025a.994.994 0 0 1 1.231.654.955.955 0 0 1-.196.906l-2.578 2.958 1.544 2.802a.96.96 0 0 1-.4 1.315c-.248.13-.54.152-.805.06L7.41 9.634zM6.978 8.04l3.04 1.064-1.505-2.73 2.326-2.67-3.272.953-1.57-2.572-.52 3.173-3.33 1.043 2.8 1.127-.397 3.387L6.978 8.04z"/></svg>