<svg ti:v="1" width="16" height="16" viewBox="0 0 16 16" xmlns="http://www.w3.org/2000/svg" xmlns:ti="urn:schemas-jetbrains-com:tisvg"><rect id="frame" width="16" height="16" fill="none"/><path d="M15 8A7 7 0 1 1 1 8a7 7 0 0 1 14 0z" fill="#252525"/><path d="M14 8A6 6 0 1 1 2 8a6 6 0 0 1 12 0z" fill="#F28366"/><path d="M12.5 8a4.5 4.5 0 1 1-9 0 4.5 4.5 0 0 1 9 0z" fill="#F28366"/><path d="M5.11 13.273l3.12 2.723H10v-1.355l-2.816-3.456L10 8.42V7H8.252L5.268 8.982 4.173 7.556a1.699 1.699 0 0 0-1.276-.552 1.817 1.817 0 0 0-1.27.503 1.762 1.762 0 0 0 .017 2.535l1.105 1.033-2.22 1.895a1.762 1.762 0 0 0-.003 2.513 1.774 1.774 0 0 0 2.53-.025zm0 0" fill="#252525"/><path d="M5.833 11.11L9 8h-.446l-3.512 2.332L3.426 8.22a.807.807 0 0 0-1.098 0 .763.763 0 0 0 0 1.091L4.25 11.11 1.23 13.682a.76.76 0 0 0 0 1.09.775.775 0 0 0 1.098 0l2.714-2.885 3.563 3.11H9zm0 0" fill="#F28366"/></svg>