<svg ti:v="1" width="16" height="16" viewBox="0 0 16 16" xmlns="http://www.w3.org/2000/svg" xmlns:ti="urn:schemas-jetbrains-com:tisvg"><rect id="frame" width="16" height="16" fill="none"/><linearGradient id="a" x1=".5" y1="0" x2=".5" y2=".981"><stop offset="0" stop-color="#A82828"/><stop offset="1" stop-color="#691711"/></linearGradient><path d="M15 8A7 7 0 1 1 1 8a7 7 0 0 1 14 0z" fill="url(#a)"/><linearGradient id="b" x1=".5" y1="-.003" x2=".5" y2=".973"><stop offset="0" stop-color="#FFC799"/><stop offset="1" stop-color="#ED3D00"/></linearGradient><path d="M14 8A6 6 0 1 1 2 8a6 6 0 0 1 12 0z" fill="url(#b)"/><linearGradient id="c" x1=".5" y1="0" x2=".5" y2=".981"><stop offset="0" stop-color="#470500"/><stop offset="1" stop-color="#7D0000"/></linearGradient><path d="M12.5 8a4.5 4.5 0 1 1-9 0 4.5 4.5 0 0 1 9 0z" fill="url(#c)"/></svg>