<svg ti:v="1" width="16" height="16" viewBox="0 0 16 16" xmlns="http://www.w3.org/2000/svg" xmlns:ti="urn:schemas-jetbrains-com:tisvg"><rect id="frame" width="16" height="16" fill="none"/><linearGradient id="a" x1=".5" y1="0" x2=".5" y2=".981"><stop offset="0" stop-color="#A82828"/><stop offset="1" stop-color="#691711"/></linearGradient><path d="M15 8A7 7 0 1 1 1 8a7 7 0 0 1 14 0z" fill="url(#a)"/><linearGradient id="b" x1=".5" y1=".021" x2=".5" y2="1"><stop offset="0" stop-color="#FFA970"/><stop offset="1" stop-color="#FF4C38"/></linearGradient><path d="M14 8A6 6 0 1 1 2 8a6 6 0 0 1 12 0z" fill="url(#b)"/><linearGradient id="c" x1=".5" y1="0" x2=".5" y2="1"><stop offset="0" stop-color="#300"/><stop offset="1" stop-color="#7D1B00"/></linearGradient><path d="M12.5 8a4.5 4.5 0 1 1-9 0 4.5 4.5 0 0 1 9 0z" fill="url(#c)"/><linearGradient id="d" x1=".5" y1=".021" x2=".5" y2="1"><stop offset="0" stop-color="#FFB6A3"/><stop offset="1" stop-color="#FF7E7D"/></linearGradient><path fill-rule="evenodd" d="M11 7H9V5H7v2H5v2h2v2h2V9h2V7z" fill="url(#d)"/></svg>