<svg ti:v="1" width="16" height="16" viewBox="0 0 16 16" xmlns="http://www.w3.org/2000/svg" xmlns:ti="urn:schemas-jetbrains-com:tisvg"><rect id="frame" width="16" height="16" fill="none"/><linearGradient id="a" x1=".5" y1="0" x2=".5" y2="1"><stop offset="0" stop-color="#793299"/><stop offset="1" stop-color="#450063"/></linearGradient><path d="M5 6h10v8H5z" fill="url(#a)"/><linearGradient id="b" x1=".5" y1="0" x2=".5" y2="1"><stop offset="0" stop-color="#D4BCC9"/><stop offset="1" stop-color="#FFE3F2"/></linearGradient><path d="M6 7h8v6H6z" fill="url(#b)"/><linearGradient id="c" x1=".5" y1="0" x2=".5" y2="1"><stop offset="0" stop-color="#793299"/><stop offset="1" stop-color="#450063"/></linearGradient><path d="M3 4h10v8H3z" fill="url(#c)"/><linearGradient id="d" x1=".5" y1="0" x2=".5" y2="1"><stop offset="0" stop-color="#D4BCC9"/><stop offset="1" stop-color="#FFE3F2"/></linearGradient><path d="M4 5h8v6H4z" fill="url(#d)"/><linearGradient id="e" x1=".5" y1="0" x2=".5" y2="1"><stop offset="0" stop-color="#793299"/><stop offset="1" stop-color="#450063"/></linearGradient><path d="M1 2h10v8H1z" fill="url(#e)"/><linearGradient id="f" x1=".5" y1="0" x2=".5" y2="1"><stop offset="0" stop-color="#FFF"/><stop offset="1" stop-color="#FFE3F2"/></linearGradient><path d="M2 3h8v6H2z" fill="url(#f)"/><linearGradient id="g" x1=".5" y1="0" x2=".5" y2="1"><stop offset="0" stop-color="#E0B8CE"/><stop offset="1" stop-color="#FFE3F2"/></linearGradient><path d="M3 4h6v4H3z" fill="url(#g)"/></svg>