<svg width="16" height="16" viewBox="0 0 16 16" fill="none" xmlns="http://www.w3.org/2000/svg">
<path fill-rule="evenodd" clip-rule="evenodd" d="M7.88931 2.62846C8.66895 2.62846 9.11506 3.00653 9.71796 4.02262C10.2207 4.86986 11.0833 4.16496 11.0833 3.44962C11.0833 2.82994 10.891 2.28681 10.2207 1.77268C9.5503 1.25854 9.20892 1 7.88931 1C4.69084 1 1.62301 4.84092 1.18557 6.739C0.828322 8.28708 0.986892 9.41707 1.66128 10.4502C2.33567 11.4834 3.43837 12 4.96941 12C5.85862 12 6.6765 11.859 7.42304 11.577L8.83639 10.1636C8.6029 9.75237 7.93825 9.47287 7.5831 9.75361C6.99985 10.2147 6.29995 10.4452 5.4834 10.4452C4.41896 10.4452 3.72271 10.075 3.39463 9.33462C3.06655 8.59424 3.0301 7.84285 3.28527 6.75919C3.53315 5.68227 4.96941 2.83639 7.88931 2.62846Z" fill="#9AA7B0"/>
<path fill-rule="evenodd" clip-rule="evenodd" d="M8 12.5L11.5 9V16L8 12.5Z" fill="#F26522"/>
<path fill-rule="evenodd" clip-rule="evenodd" d="M16 12.5L12.5 16L12.5 9L16 12.5Z" fill="#62B543"/>
<path fill-rule="evenodd" clip-rule="evenodd" d="M8.79167 9.25002C10.0573 9.25002 11.0833 8.22401 11.0833 6.95835C11.0833 5.6927 10.0573 4.66669 8.79167 4.66669C7.52601 4.66669 6.5 5.6927 6.5 6.95835C6.5 8.22401 7.52601 9.25002 8.79167 9.25002Z" fill="#F26522"/>
</svg>
