<svg xmlns="http://www.w3.org/2000/svg" width="16" height="16" viewBox="0 0 16 16"><rect id="frame" width="16" height="16" fill="none"/><g fill="none" fill-rule="evenodd"><path fill="#F26522" d="M2 8l5-5v10z"/><path fill="#62B543" d="M9 7.611V3l2.607 2.607C10.632 6.028 9.727 6.782 9 7.61z"/><path fill="#9AA7B0" d="M14.063 8.399c-.408-.72-.71-.989-1.239-.989-1.977.148-2.95 2.166-3.118 2.93-.173.769-.148 1.302.074 1.827.222.525.694.788 1.415.788.553 0 1.027-.164 1.422-.49.395-.328 1.356.417.66.887-.697.47-1.507.706-2.43.706-1.037 0-1.784-.367-2.241-1.1-.457-.733-.564-1.534-.322-2.632.296-1.347 2.374-4.071 4.54-4.071.894 0 1.125.183 1.58.548.454.365.584.75.584 1.19 0 .507-.584 1.007-.925.406z"/><circle cx="13.5" cy="10.5" r="1.5" fill="#F26522"/></g></svg>