<svg xmlns="http://www.w3.org/2000/svg" width="16" height="16" viewBox="0 0 16 16"><rect id="frame" width="16" height="16" fill="none"/><g fill="none" fill-rule="evenodd"><g fill="#3592C4"><path d="M5.007 9.75A3.554 3.554 0 0 1 3 6.557C3 4.592 4.603 3 6.581 3c1.42 0 2.647.82 3.226 2.01a4.5 4.5 0 0 0-4.8 4.74z"/><path d="M13 9.5a3.5 3.5 0 1 1-7 0 3.5 3.5 0 0 1 7 0"/></g><path fill="#AFB1B3" d="M1 2h1v12H1z"/><path fill="#AFB1B3" d="M2 2h2v1H2z"/><path fill="#AFB1B3" d="M2 13h2v1H2z"/><path fill="#AFB1B3" d="M14 2h1v12h-1z"/><path fill="#AFB1B3" d="M12 2h3v1h-3z"/><path fill="#AFB1B3" d="M12 13h2v1h-2z"/></g></svg>