<svg xmlns="http://www.w3.org/2000/svg" width="16" height="16" viewBox="0 0 16 16"><rect id="frame" width="16" height="16" fill="none"/><g fill="none" fill-rule="evenodd" transform="translate(2 .4)"><ellipse cx="6.05" cy="7.876" fill="#FFF" stroke="#8EBB3F" stroke-width=".83" rx="5.95" ry="6.119"/><path fill="#7FB52F" d="M6.031 1.742c3.287 0 5.95 2.74 5.95 6.119 0 3.38-2.663 6.118-5.95 6.118-3.285 0-5.95-2.738-5.95-6.118 0-3.379 2.665-6.119 5.95-6.119z"/><path stroke="#FFF" stroke-width=".5" d="M11.981 7.86c0 3.38-2.663 6.12-5.95 6.12-3.285 0-5.95-2.74-5.95-6.12 0-3.378 2.665-6.118 5.95-6.118 3.287 0 5.95 2.74 5.95 6.119z"/><path fill="#FFF" fill-rule="nonzero" d="M8.692 10.037c-.083-.33-.238-.625-.375-.893-.031-.06-.012-.186-.047-.241.006-.293.163-.18.305-.314.031-.03.037-.09.07-.12-.014-.093-.012-.13-.07-.17-.059-.038-.235 0-.352 0 .04-.524.208-1.006-.305-1.181a.8.8 0 0 0-.352-.024.952.952 0 0 0-.21.097.503.503 0 0 0-.189.265c-.022.099.069.26.141.386.16-.034.132-.161.259-.217.007-.008.023-.008.023 0 .023.008.048-.005.07.024.023.029.04.693 0 .844-.014.051-.08.139-.047.242.056.17.26.335.352.482.136.215.28.493.352.748 0 .064.023.127.023.192.031.233-.047.6-.117.725s-.129.127-.164.145c-.036.017-.101-.003-.132-.024-.054-.018-.038-.026-.08-.049.065-.205.221-.367.282-.603.1-.39-.095-.818-.211-1.013-.153-.257-.301-.536-.516-.724-.177-.154-.408-.312-.54-.507-.062-.09-.06-.186-.118-.29-.054-.097-.173-.188-.21-.313-.357-1.175.686-1.993.398-3.136-.054-.215-.205-.374-.281-.555-.08-.186-.08-.36-.141-.555-.149-.469-.267-.94-.422-1.424C5.97 1.47 5.87 1.081 5.736.7a10.305 10.305 0 0 1-.217-.674c-.023 0-.049.02-.072.02.04.395.145.814.242 1.16.135.485.201.963.328 1.424l.188 1.086c-.066.19-.935.255-1.032.266-.098.01-.246.228-.258.265a.393.393 0 0 0 .047.242c.044.11.5.263.656.265-.02.837-.61 1.466-.774 2.147-.093-.025-.342-.46-.375-.482-.033-.022-.255-.093-.352-.024-.088.009-.113.01-.14.048-.028.038-.055 1.091 0 1.182-.011.365-.003.52.21.651-.02.125-.036.347.165.29.082-.024.211-.2.234-.29.008-.008.008-.024 0-.024-.034-.09-.153-.131-.234-.169-.04-.095-.089-.444-.04-.531.029-.05.016-.144.016-.192.203.074.563.815.634 1.061.051.181.02.282.093.434.133.28.404.617.657.773.097.059.183.068.258.144.095.124.081.354.141.507.096.244.392.536.423.796-.356-.001-.772-.038-1.033.121-.068.041-.12.123-.187.169.003.111.007.124.07.169-.126.19-.367.265-.446.506-.111.16-.075.533.07.604.025.02.007.008.048.023.135-.153.35-.216.492-.361.107-.108.166-.263.329-.314.641-.2 1.538.236 1.806-.41.055-.076.054-.219.047-.29.257.11.443.136.588.026.123-.094.234-.317.353-.79.027-.11.063-.327.021-.491zM4.563 5.163a.263.263 0 0 0 .094.121c-.002.46-.054 1.135.106 1.381.026.019.044.037.074.042.073-.272.257-.575.321-.71.07-.147-.2-.78-.266-.882-.063-.098-.188-.095-.235-.218-.282-.005-.291.013-.445.12.013.077.02.071.047.122.082.018.19.026.304.024z"/><path stroke="#8EBB3F" stroke-linecap="round" stroke-linejoin="round" stroke-width=".5" d="M8.692 10.037c-.083-.33-.238-.625-.375-.893-.031-.06-.012-.186-.047-.241.006-.293.163-.18.305-.314.031-.03.037-.09.07-.12-.014-.093-.012-.13-.07-.17-.059-.038-.235 0-.352 0 .04-.524.208-1.006-.305-1.181a.8.8 0 0 0-.352-.024.952.952 0 0 0-.21.097.503.503 0 0 0-.189.265c-.022.099.069.26.141.386.16-.034.132-.161.259-.217.007-.008.023-.008.023 0 .023.008.048-.005.07.024.023.029.04.693 0 .844-.014.051-.08.139-.047.242.056.17.26.335.352.482.136.215.28.493.352.748 0 .064.023.127.023.192.031.233-.047.6-.117.725s-.129.127-.164.145c-.036.017-.101-.003-.132-.024-.054-.018-.038-.026-.08-.049.065-.205.221-.367.282-.603.1-.39-.095-.818-.211-1.013-.153-.257-.301-.536-.516-.724-.177-.154-.408-.312-.54-.507-.062-.09-.06-.186-.118-.29-.054-.097-.173-.188-.21-.313-.357-1.175.686-1.993.398-3.136-.054-.215-.205-.374-.281-.555-.08-.186-.08-.36-.141-.555-.149-.469-.267-.94-.422-1.424C5.97 1.47 5.87 1.081 5.736.7a10.305 10.305 0 0 1-.217-.674c-.023 0-.049.02-.072.02.04.395.145.814.242 1.16.135.485.201.963.328 1.424l.188 1.086c-.066.19-.935.255-1.032.266-.098.01-.246.228-.258.265a.393.393 0 0 0 .047.242c.044.11.5.263.656.265-.02.837-.61 1.466-.774 2.147-.093-.025-.342-.46-.375-.482-.033-.022-.255-.093-.352-.024-.088.009-.113.01-.14.048-.028.038-.055 1.091 0 1.182-.011.365-.003.52.21.651-.02.125-.036.347.165.29.082-.024.211-.2.234-.29.008-.008.008-.024 0-.024-.034-.09-.153-.131-.234-.169-.04-.095-.089-.444-.04-.531.029-.05.016-.144.016-.192.203.074.563.815.634 1.061.051.181.02.282.093.434.133.28.404.617.657.773.097.059.183.068.258.144.095.124.081.354.141.507.096.244.392.536.423.796-.356-.001-.772-.038-1.033.121-.068.041-.12.123-.187.169.003.111.007.124.07.169-.126.19-.367.265-.446.506-.111.16-.075.533.07.604.025.02.007.008.048.023.135-.153.35-.216.492-.361.107-.108.166-.263.329-.314.641-.2 1.538.236 1.806-.41.055-.076.054-.219.047-.29.257.11.443.136.588.026.123-.094.234-.317.353-.79.027-.11.063-.327.021-.491zM4.563 5.163a.263.263 0 0 0 .094.121c-.002.46-.054 1.135.106 1.381.026.019.044.037.074.042.073-.272.257-.575.321-.71.07-.147-.2-.78-.266-.882-.063-.098-.188-.095-.235-.218-.282-.005-.291.013-.445.12.013.077.02.071.047.122.082.018.19.026.304.024z"/><path fill="#FFF" fill-rule="nonzero" d="M8.692 10.037c-.084-.33-.239-.625-.375-.893-.031-.06-.013-.186-.047-.241.006-.293.163-.18.304-.314.032-.03.038-.09.07-.12-.013-.093-.011-.13-.07-.17-.058-.038-.234 0-.351 0 .04-.524.208-1.006-.305-1.181a.8.8 0 0 0-.352-.024.952.952 0 0 0-.211.097.503.503 0 0 0-.188.265c-.023.099.068.26.141.386.16-.034.132-.161.258-.217.008-.008.024-.008.024 0 .023.008.047-.005.07.024.022.029.04.693 0 .844-.014.051-.08.139-.047.242.056.17.259.335.352.482.135.215.28.493.352.748 0 .064.023.127.023.192.031.233-.048.6-.117.725-.07.125-.129.127-.165.145-.036.017-.1-.003-.131-.024-.054-.018-.039-.026-.08-.049.065-.205.22-.367.281-.603.1-.39-.094-.818-.21-1.013-.154-.257-.301-.536-.517-.724-.176-.154-.407-.312-.54-.507-.061-.09-.06-.186-.117-.29-.054-.097-.173-.188-.21-.313-.358-1.175.686-1.993.398-3.136-.054-.215-.205-.374-.282-.555-.079-.186-.078-.36-.14-.555-.149-.469-.267-.94-.423-1.424C5.971 1.47 5.87 1.081 5.736.7a10.305 10.305 0 0 1-.217-.674c-.023 0-.049.02-.072.02.04.395.145.814.242 1.16.134.485.201.963.328 1.424l.188 1.086c-.067.19-.935.255-1.032.266-.098.01-.246.228-.259.265a.393.393 0 0 0 .047.242c.044.11.5.263.657.265-.02.837-.61 1.466-.774 2.147-.093-.025-.343-.46-.375-.482-.033-.022-.255-.093-.352-.024-.088.009-.114.01-.141.048-.027.038-.055 1.091 0 1.182-.01.365-.002.52.211.651-.02.125-.036.347.164.29.083-.024.212-.2.235-.29.008-.008.008-.024 0-.024-.035-.09-.153-.131-.235-.169-.039-.095-.088-.444-.039-.531.029-.05.016-.144.016-.192.203.074.563.815.633 1.061.052.181.022.282.094.434.132.28.404.617.657.773.097.059.183.068.258.144.095.124.08.354.141.507.096.244.391.536.422.796-.356-.001-.772-.038-1.032.121-.068.041-.12.123-.188.169.004.111.008.124.07.169-.125.19-.366.265-.445.506-.111.16-.075.533.07.604.025.02.006.008.047.023.136-.153.35-.216.493-.361.106-.108.166-.263.328-.314.642-.2 1.54.236 1.807-.41.054-.076.053-.219.047-.29.257.11.443.136.588.026.123-.094.234-.317.353-.79.027-.11.063-.327.021-.491zM4.563 5.163a.263.263 0 0 0 .094.121c-.002.46-.054 1.135.106 1.381.025.019.043.037.074.042.073-.272.257-.575.32-.71.071-.147-.2-.78-.265-.882-.063-.098-.188-.095-.235-.218-.283-.005-.291.013-.446.12.014.077.021.071.047.122.083.018.192.026.305.024z"/></g></svg>