<svg xmlns="http://www.w3.org/2000/svg" width="16" height="16" viewBox="0 0 16 16"><rect id="frame" width="16" height="16" fill="none"/><g fill="none" fill-rule="evenodd"><path fill="#9AA7B0" fill-opacity=".8" d="M7.985 4L6.697 2.711C6.305 2.32 5.533 2 4.979 2H1.05a.05.05 0 0 0-.05.051V13h3V7h11V4H7.985z"/><path fill="#9AA7B0" fill-opacity=".8" d="M5 16h11V8H5z"/><path fill="#231F20" fill-opacity=".7" d="M9.709 12.42H8v1.646h1.785c.72 0 1.157-.283 1.157-.824v-.016c0-.506-.403-.806-1.234-.806zm.9-1.723c0-.471-.378-.762-1.054-.762H8v1.593h1.478c.676 0 1.13-.265 1.13-.814v-.017zM7 9h2.69c.687 0 1.227.189 1.57.532.265.265.402.59.402.993v.018c0 .72-.411 1.106-.856 1.337.702.24 1.19.644 1.19 1.457v.018c0 1.07-.883 1.645-2.22 1.645H7V9z"/></g></svg>