<svg xmlns="http://www.w3.org/2000/svg" width="13" height="13" viewBox="0 0 13 13">
  <g id="rest_client_icon_small" fill="none" fill-rule="evenodd" stroke="none" stroke-width="1">
    <path id="Fill-2" fill="#9AA7B0" d="M13,13.0003 L6,13.0003 C6.269,10.7293 6.761,9.7013 7.5,9.7013 C8.66,9.7013 8.792,10.8973 9.5,10.8973 C10.208,10.8973 10.34,9.7013 11.5,9.7013 C12.239,9.7013 12.731,10.7293 13,13.0003"/>
    <path id="Fill-4" fill="#9AA7B0" d="M9.5,8.0003 C8.671,8.0003 8,7.3283 8,6.5003 C8,6.4233 8.012,6.3483 8.023,6.2733 C8.857,6.1323 9.829,5.9103 10.672,5.5743 C10.875,5.8303 11,6.1483 11,6.5003 C11,7.3283 10.329,8.0003 9.5,8.0003 M9.5,4.0003 C8.119,4.0003 7,5.1203 7,6.5003 C7,7.8813 8.119,9.0003 9.5,9.0003 C10.879,9.0003 12,7.8813 12,6.5003 C12,5.1203 10.879,4.0003 9.5,4.0003"/>
    <path id="Fill-6" fill="#9AA7B0" d="M3.6963,8.764 C2.7883,8.448 2.0343,7.82 1.5563,7 L3.1693,7 C3.2893,7.687 3.4723,8.28 3.6963,8.764 L3.6963,8.764 Z M5.0003,8.975 C4.7813,8.803 4.4123,8.124 4.1893,7 L5.8103,7 C5.5883,8.124 5.2183,8.803 5.0003,8.975 L5.0003,8.975 Z M1.1413,6 C1.0583,5.679 1.0003,5.347 1.0003,5 C1.0003,4.653 1.0583,4.322 1.1413,4 L3.0403,4 C3.0133,4.324 3.0003,4.658 3.0003,5 C3.0003,5.343 3.0133,5.677 3.0403,6 L1.1413,6 Z M4.0483,6 C4.0193,5.687 4.0003,5.359 4.0003,5 C4.0003,4.641 4.0193,4.313 4.0483,4 L5.9523,4 C5.9803,4.313 6.0003,4.641 6.0003,5 C6.0003,5.359 5.9803,5.687 5.9523,6 L4.0483,6 Z M1.5563,3 C2.0343,2.181 2.7883,1.553 3.6963,1.237 C3.4723,1.721 3.2893,2.314 3.1693,3 L1.5563,3 Z M6.8313,3 C6.7113,2.314 6.5273,1.721 6.3033,1.237 C7.2123,1.553 7.9663,2.181 8.4433,3 L6.8313,3 Z M4.1893,3 C4.4123,1.876 4.7813,1.198 5.0003,1.025 C5.2183,1.198 5.5883,1.876 5.8103,3 L4.1893,3 Z M5.0003,0 C2.2383,0 0.0003,2.239 0.0003,5 C0.0003,7.762 2.2383,10 5.0003,10 C5.2583,10 5.5053,9.962 5.7523,9.925 C6.0163,9.419 6.3713,8.999 6.8733,8.811 C6.8103,8.74 6.7613,8.659 6.7053,8.582 C6.5723,8.646 6.4443,8.715 6.3033,8.764 C6.3723,8.617 6.4273,8.441 6.4873,8.274 C6.1793,7.753 6.0003,7.148 6.0003,6.5 C6.0003,5.571 6.3703,4.73 6.9643,4.102 C6.9613,4.069 6.9623,4.034 6.9603,4 L7.0583,4 C7.6893,3.384 8.5503,3 9.5003,3 C9.5283,3 9.5543,3.008 9.5823,3.009 C8.8123,1.24 7.0523,0 5.0003,0 L5.0003,0 Z"/>
  </g>
</svg>
