<svg xmlns="http://www.w3.org/2000/svg" width="13" height="13" viewBox="0 0 13 13">
  <g id="toolWindowNuGet" fill="none" fill-rule="evenodd">
    <path id="Fill-2" fill="#6E6E6E" d="M8.75,11 C7.507,11 6.5,9.992 6.5,8.75 C6.5,7.508 7.507,6.5 8.75,6.5 C9.993,6.5 11,7.508 11,8.75 C11,9.992 9.993,11 8.75,11 M4,5.5 C4,4.672 4.671,4 5.5,4 C6.329,4 7,4.672 7,5.5 C7,6.328 6.329,7 5.5,7 C4.671,7 4,6.328 4,5.5 M10,3 L5,3 C3.896,3 3,3.896 3,5 L3,10 C3,11.104 3.896,12 5,12 L10,12 C11.104,12 12,11.104 12,10 L12,5 C12,3.896 11.104,3 10,3 M2,0.5 C2.829,0.5 3.5,1.172 3.5,2 C3.5,2.828 2.829,3.5 2,3.5 C1.171,3.5 0.5,2.828 0.5,2 C0.5,1.172 1.171,0.5 2,0.5"/>
  </g>
</svg>
