<svg xmlns="http://www.w3.org/2000/svg" width="13" height="13" viewBox="0 0 13 13">
  <title>toolWindowSolutionWideAnalysis_dark</title>
  <g>
    <g opacity="0">
      <rect width="13" height="13" fill="#ffdaff"/>
    </g>
    <path d="M10.53,8.7,8,5V2h.5a.5.5,0,0,0,0-1h-4a.5.5,0,0,0,0,1H5V5L2.47,8.7A2.637,2.637,0,0,0,2,10.192,1.722,1.722,0,0,0,3.724,12H9.276A1.722,1.722,0,0,0,11,10.192,2.637,2.637,0,0,0,10.53,8.7ZM6.344,7,4.8,9.266a1.642,1.642,0,0,0-.295.926c0,.034.008.808.725.808h-1.5C3.008,11,3,10.226,3,10.192A1.642,1.642,0,0,1,3.3,9.266L6,5.309V2H7V5.309L8.156,7Z" fill="#afb1b3"/>
  </g>
</svg>
