<svg xmlns="http://www.w3.org/2000/svg" width="16" height="16" viewBox="0 0 16 16"><rect id="frame" width="16" height="16" fill="none"/><g fill="none" fill-rule="nonzero"><path fill="#4339D6" fill-opacity=".9" d="M15 5.96a9446.43 9446.43 0 0 1-1.457 6.663.296.296 0 0 1-.224.25 4140.68 4140.68 0 0 0-5.89 1.855c-.26.082-.521.159-.778.248a.296.296 0 0 1-.33-.066 1494.549 1494.549 0 0 0-3.9-3.42c-.436-.382-.867-.767-1.309-1.14a.277.277 0 0 1-.1-.313c.199-.898.396-1.797.591-2.696.29-1.323.58-2.644.864-3.968a.304.304 0 0 1 .242-.25c1.69-.53 3.378-1.062 5.065-1.596.524-.166 1.05-.327 1.57-.502a.322.322 0 0 1 .36.074 2472.54 2472.54 0 0 0 5.143 4.508c.1.09.157.219.153.353zm-7.019 7.023c.926 0 1.852-.002 2.778.002a.318.318 0 0 0 .31-.17c.9-1.517 1.803-3.032 2.709-4.546a.413.413 0 0 0-.014-.537 1.67 1.67 0 0 1-.144-.238L11.1 3.238a.406.406 0 0 0-.4-.224c-1.784.005-3.569.008-5.353-.003a.489.489 0 0 0-.487.277A592.804 592.804 0 0 1 2.17 7.825a.325.325 0 0 0 .012.376c.908 1.525 1.814 3.051 2.716 4.579.07.14.218.222.374.206.903-.007 1.807-.003 2.71-.003z"/><path fill="#7D7CE8" d="M13.764 7.731a1.67 1.67 0 0 1-.144-.237L11.1 3.238a.406.406 0 0 0-.4-.224c-1.784.005-3.569.008-5.353-.003a.489.489 0 0 0-.487.277A592.511 592.511 0 0 1 2.17 7.825a.325.325 0 0 0 .012.376c.908 1.525 1.814 3.051 2.716 4.579.07.14.218.222.374.206.903-.007 1.807-.003 2.71-.003.926 0 1.852-.002 2.778.002a.318.318 0 0 0 .31-.17c.9-1.517 1.803-3.032 2.709-4.546a.413.413 0 0 0-.014-.538zm-2.058.442c-.581.97-1.16 1.942-1.738 2.915a.204.204 0 0 1-.199.11c-.593-.004-1.187-.002-1.781-.002-.58 0-1.16-.002-1.738.002a.24.24 0 0 1-.24-.132c-.578-.981-1.158-1.96-1.742-2.937a.208.208 0 0 1-.008-.241c.579-.968 1.154-1.938 1.726-2.91a.313.313 0 0 1 .312-.178c1.145.007 2.29.005 3.434.002a.26.26 0 0 1 .257.144c.535.911 1.074 1.821 1.616 2.73.026.053.057.104.092.152a.265.265 0 0 1 .009.345z" opacity=".8"/></g></svg>