<svg xmlns="http://www.w3.org/2000/svg" width="16" height="16" viewBox="0 0 16 16">
  <g fill="none" fill-rule="evenodd">
    <polygon fill="#9AA7B0" fill-opacity=".8" fill-rule="nonzero" points="4 0 0 4 4 4" transform="translate(3 1)"/>
    <path fill="#9AA7B0" fill-opacity=".8" fill-rule="nonzero" d="M13,8 L10,8 L9.50255782,9 L7,9 L7,15 L3,15 L3,6 L8,6 L8,1 L13,1 L13,8 Z"/>
    <path fill="#AFB1B3" d="M8,10 L16,10 L16,16 L8,16 L8,10 Z M12,15 C13.1045695,15 14,14.1045695 14,13 C14,11.8954305 13.1045695,11 12,11 C10.8954305,11 10,11.8954305 10,13 C10,14.1045695 10.8954305,15 12,15 Z"/>
    <polygon fill="#AFB1B3" points="11 9 13 9 13.5 10 10.5 10"/>
    <rect width="2" height="2" x="11" y="12" fill="#AFB1B3" rx="1"/>
  </g>
</svg>
