<svg xmlns="http://www.w3.org/2000/svg" width="16" height="16" viewBox="0 0 16 16">
  <g fill="none" fill-rule="evenodd">
    <rect width="14" height="14" x="1" y="1" fill="#F26522" fill-opacity=".6"/>
    <path fill="#231F20" fill-opacity=".7" d="M2.09263916,5.02279053 C2.43660278,5.37304688 2.75674292,5.6 3.43024292,5.6 C4.21977539,5.6 4.5,5.02279053 4.5,4.61665039 L4.5,0 L6,0 L6,5.02279053 C6,6.04749756 4.99006348,7 3.675,7 C2.4435,7 1.725,6.66769756 1.2,6.04749756 L2.09263916,5.02279053 Z" transform="translate(2 7)"/>
    <path fill="#231F20" fill-opacity=".7" d="M1.45915195,2.10213623 C1.45915195,1.5862793 1.926,1.4 2.7675,1.4 C2.7755,1.4 3.353,1.4 4.5,1.4 L4.5,0 C3.394,0 2.824,0 2.79,0 C1.167,0 0,0.642834473 0,2.03 C0,3.24033691 0.629333496,3.76668701 2.20687866,4.08250732 C3.36238304,4.3138362 3.7442325,4.52008115 3.7442325,4.9672 C3.7442325,5.41431885 3.2076416,5.6 2.20687866,5.6 C2.19087866,5.6 1.60525244,5.6 0.45,5.6 L0.45,7 C1.61325244,7 2.19887866,7 2.20687866,7 C5.25,7 5.25,5.6 5.25,4.9672 C5.25,4.08250732 4.53039551,3.38900146 3.23803711,3.00559082 C1.94567871,2.62218018 1.45915195,2.61799316 1.45915195,2.10213623 Z" transform="translate(9 7)"/>
  </g>
</svg>
