<svg xmlns="http://www.w3.org/2000/svg" width="16" height="16" viewBox="0 0 16 16"><rect id="frame" width="16" height="16" fill="none"/><g fill="none" fill-rule="evenodd"><path fill="#F26522" fill-opacity=".6" d="M1 1h14v14H1z"/><path fill="#231F20" fill-opacity=".7" d="M4.093 12.023c.344.35.664.577 1.337.577.79 0 1.07-.577 1.07-.983V7H8v5.023C8 13.047 6.99 14 5.675 14c-1.232 0-1.95-.332-2.475-.953l.893-1.024z"/><path fill="#231F20" fill-opacity=".7" d="M10.46 9.102c0-.516.466-.702 1.307-.702H13.5V7h-1.71C10.167 7 9 7.643 9 9.03c0 1.21.63 1.737 2.207 2.053 1.155.23 1.537.437 1.537.884s-.536.633-1.537.633H9.45V14h1.757c3.043 0 3.043-1.4 3.043-2.033 0-.884-.72-1.578-2.012-1.961-1.292-.384-1.779-.388-1.779-.904z"/></g></svg>