<svg xmlns="http://www.w3.org/2000/svg" width="16" height="16" viewBox="0 0 16 16"><rect id="frame" width="16" height="16" fill="none"/><g fill="#9AA7B0" fill-rule="evenodd"><path d="M8.095 14.656c1.531-5.475 1.487-5.5 2.594-9.403l.266.153c.144.084.263.016.263-.15V3.392c.293-1.028.524-1.823.591-2.062h1.2L15 3.176l-1.308 1.13.989 1.07-6.52 9.28c-.031.053-.076.04-.066 0zm.713-11.8c.058 0 .107.032.107.072v.955c0 .04-.049.073-.107.073H7.197c-.06 0-.107-.033-.107-.073v-.955c0-.04.048-.073.107-.073h1.61z"/><path d="M10.795 1.8L9.024 2.821c.02.031.033.067.033.106v.955c0 .05-.02.094-.051.13l1.79 1.033c.121.07.221.013.221-.128v-2.99c0-.142-.1-.2-.222-.129zM6.948 3.882v-.955c0-.039.012-.075.032-.106L5.21 1.8c-.122-.07-.222-.013-.222.128v2.99c0 .142.1.2.222.129l1.79-1.034a.196.196 0 0 1-.051-.13z"/><path d="M7.839 14.656h.066c-1.531-5.475-1.487-5.5-2.594-9.403l-.266.153c-.144.084-.263.016-.263-.15V3.392c-.294-1.028-.524-1.823-.591-2.062h-1.2L1 3.176l1.308 1.13-.99 1.07 6.52 9.28z"/><circle cx="7.951" cy="5.464" r="1"/><circle cx="7.951" cy="8.339" r="1"/><circle cx="7.951" cy="11.215" r="1"/></g></svg>