<svg xmlns="http://www.w3.org/2000/svg" width="16" height="16" viewBox="0 0 16 16">
  <g fill="none" fill-rule="evenodd">
    <g fill-opacity=".7" transform="translate(8 8)">
      <path fill="#40B6E0" d="M8,4 C8,6.20914286 6.20914286,8 4,8 C1.79085714,8 0,6.20914286 0,4 C0,1.79085714 1.79085714,0 4,0 C6.20914286,0 8,1.79085714 8,4"/>
      <path fill="#231F20" d="M3.38948571 1.29354286L4.08548571.891828571C3.6672.352971429 3.02034286-.000171428571 2.28548571-.000171428571 1.5592-.000171428571.919771429.345542857.500342857.874114286.500342857.874114286 1.93291429-.521314286 3.38948571 1.29354286M2.59428571 3.74274286L2.59428571 4.54045714C3.70914286 4.38845714 4.57142857 3.44274286 4.57142857 2.2856 4.57142857 1.96388571 4.50342857 1.65817143 4.38285714 1.37988571 4.38285714 1.37988571 5.09257143 2.95988571 2.59428571 3.74274286M.895657143 1.76171429L.199085714 1.36C.0733714286 1.64342857.000228571429 1.95542857.000228571429 2.28571429.000228571429 3.45828571.885371429 4.41314286 2.02308571 4.54514286 2.02308571 4.54514286.0842285714 4.18457143.895657143 1.76171429" transform="translate(1.714 1.714)"/>
    </g>
    <path fill="#9AA7B0" fill-opacity=".8" d="M7,12 C7,9.243 9.243,7 12,7 C13.13,7 14.162,7.391 15,8.025 L15,4 L7.984,4 L6.696,2.711 C6.305,2.32 5.532,2 4.979,2 L1.051,2 C1.023,2 1,2.023 1,2.051 L1,13 L7.102,13 C7.035,12.677 7,12.342 7,12"/>
  </g>
</svg>
