<svg ti:v="1" width="16" height="16" viewBox="0 0 16 16" xmlns="http://www.w3.org/2000/svg" xmlns:ti="urn:schemas-jetbrains-com:tisvg"><rect id="frame" width="16" height="16" fill="none"/><linearGradient id="a" x1=".5" y1="0" x2=".5" y2=".999"><stop offset="0" stop-color="#2D3654"/><stop offset="1" stop-color="#070B14"/></linearGradient><path d="M8 1v.09a6.002 6.002 0 0 0-3.25 10.16A6.002 6.002 0 0 0 14.91 8H15V1zm0 0" fill="url(#a)"/><linearGradient id="b" x1=".5" y1="0" x2=".5" y2="1"><stop offset="0" stop-color="#D0D9F7"/><stop offset="1" stop-color="#A1ACCF"/></linearGradient><path d="M9 2a5.002 5.002 0 0 0-5 5 5.002 5.002 0 0 0 5 5 5.002 5.002 0 0 0 5-5V2zm0 0" fill="url(#b)"/><linearGradient id="c" x1=".5" y1="0" x2=".5" y2="1"><stop offset="0" stop-color="#070B14"/><stop offset="1" stop-color="#2D3654"/></linearGradient><path d="M9 4a3.001 3.001 0 1 0 3 3H9zm0 0" fill="url(#c)"/><linearGradient id="d" x1=".5" y1="0" x2=".5" y2="1"><stop offset="0" stop-color="#2D3654"/><stop offset="1" stop-color="#070B14"/></linearGradient><path d="M6.086 9L6 9.086V6H2v3.086L1.914 9H0v3.414L3.586 16h.828L8 12.414V9H6.086z" fill="url(#d)"/><linearGradient id="e" x1=".5" y1="0" x2=".5" y2="1"><stop offset="0" stop-color="#4ADEFF"/><stop offset="1" stop-color="#6ECCFF"/></linearGradient><path d="M7 12l-3 3-3-3V9.5l2 2V7h2v4.5l2-2V12z" fill="url(#e)"/></svg>