<svg xmlns="http://www.w3.org/2000/svg" width="16" height="16" viewBox="0 0 16 16">
  <title>ScopeJS(GrayDark)</title>
  <g>
    <rect width="16" height="16" fill="#ffe3ff" opacity="0"/>
    <g>
      <path d="M14.085,8.17l.043-.115.8-3.989L14.357,3.7a5.026,5.026,0,0,0-2.5-.7A3.806,3.806,0,0,0,9,4.1V3H5.16V9.513c0,.723-.187.723-.3.723a2.4,2.4,0,0,1-1.252-.525L2.683,9H2v3.077l.09.2A3.59,3.59,0,0,0,5.077,14a3.593,3.593,0,0,0,2.96-1.366l.074.095a4.026,4.026,0,0,0,3,1.271A3.64,3.64,0,0,0,15,10.2,2.9,2.9,0,0,0,14.085,8.17Z" fill="#252525"/>
      <path d="M8.9,12.114,9.5,10.8a1.815,1.815,0,0,0,1.538.616c.536,0,1.223-.263,1.223-.952C12.261,9.3,9.1,8.5,9.1,6.585A2.455,2.455,0,0,1,11.861,4a4.034,4.034,0,0,1,1.95.534L13.52,5.991a2.124,2.124,0,0,0-1.568-.607c-.524,0-1.224.228-1.224,1.009C10.728,7.518,14,8.359,14,10.2A2.643,2.643,0,0,1,11.109,13,3.01,3.01,0,0,1,8.9,12.114ZM8,9.336C8,11.568,7.027,13,5.077,13A2.646,2.646,0,0,1,3,11.859V10.505c1.119.859,3.16,1.406,3.16-.992V4H8Z" fill="#ed6117"/>
    </g>
  </g>
</svg>
