<svg xmlns="http://www.w3.org/2000/svg" width="16" height="16" viewBox="0 0 16 16"><rect id="frame" width="16" height="16" fill="none"/><defs><radialGradient id="a" cx="39.309%" cy="70.379%" r="120.445%" fx="39.309%" fy="70.379%" gradientTransform="matrix(1 0 0 .96863 0 .022)"><stop offset="0%" stop-color="#FFF"/><stop offset="22.18%" stop-color="#FCFDF6"/><stop offset="57.65%" stop-color="#F4F7DF"/><stop offset="100%" stop-color="#E7EEBB"/></radialGradient><linearGradient id="b" x1="48.347%" x2="72.849%" y1="114.591%" y2="-835.294%"><stop offset="0%" stop-color="#4A5B01"/><stop offset="17.35%" stop-color="#5C7101"/><stop offset="54.02%" stop-color="#7E9B02"/><stop offset="82.83%" stop-color="#93B502"/><stop offset="100%" stop-color="#9BBF02"/></linearGradient><linearGradient id="c" x1="48.274%" x2="72.952%" y1="116.669%" y2="-822.817%"><stop offset="0%" stop-color="#4A5B01"/><stop offset="17.35%" stop-color="#5C7101"/><stop offset="54.02%" stop-color="#7E9B02"/><stop offset="82.83%" stop-color="#93B502"/><stop offset="100%" stop-color="#9BBF02"/></linearGradient></defs><g fill="none" fill-rule="evenodd"><path fill="#546E7A" d="M7.983.8C4.136.8 1.005 3.93 1.005 7.778c0 3.947 3.196 7.282 6.978 7.282 3.783 0 6.978-3.335 6.978-7.282A6.986 6.986 0 0 0 7.983.8z"/><path fill="#CCD584" d="M2.436 8.398c0 2.95 2.39 5.652 5.34 5.652 2.948 0 5.338-2.703 5.338-5.652a5.339 5.339 0 1 0-10.678 0z"/><path fill="url(#a)" d="M1.837 7.839c0 2.66 2.157 5.13 4.818 5.13 2.66 0 4.817-2.47 4.817-5.13a4.818 4.818 0 0 0-9.635 0z" transform="translate(1 .8)"/><path fill="#F7FAEF" d="M8.045 9.527c1.646-.976 2.565-.563 2.565-.563.876.506.512 1.46.512 1.46-.969 2.895-3.27 1.407-3.27 1.407s-.306-.18-.46-.321c-.283-1.234.213-1.723.653-1.983zm-2.108.395c-1.184-.989-1.968-.78-1.968-.78-.762.29-.596 1.096-.596 1.096.396 2.43 2.42 1.543 2.42 1.543s.267-.104.408-.195c.385-.945.053-1.4-.264-1.664z"/><path fill="#DFE677" d="M10.928 9.357s.525 2.209-1.721 2.32c0 0-.879.027-1.688-.128l3.409-2.192zm-7.34.338s-.58 1.633 1.228 1.837c0 0 .572.068 1.308.046L3.588 9.695z"/><path fill="#384C54" d="M3.604 9.644l.046-.023c.828-.278 1.625.052 1.896.21.558.323.789 1.032.698 1.617-.016.097-.055.14-.12.13l-.079-.07c-.105-.096-.31-.16-.61-.187-1.474-.218-1.995-.676-1.847-1.626l.016-.051zm7.324-.287l-.056-.029c-1.176-.345-2.13-.068-2.492.103-.742.353-1.053 1.185-.999 1.939.009.125.055.185.138.179l.083-.052c.4-.21.659-.23.85-.231 1.932-.173 2.576-.632 2.49-1.842l-.014-.067z"/><path fill="url(#b)" d="M5.497 11.536l.009.003.173-.096.047-.042c.059-.071.068-.145.028-.219-.007-.011-.014-.015-.022-.01l-.12.065c-.147.083-.187.183-.121.303l.006-.004z" transform="translate(1 .8)"/><path fill="url(#c)" d="M5.971 11.168c-.068.119-.029.22.117.304l.118.068c.008.004.016 0 .023-.01.042-.074.034-.147-.024-.22l-.047-.042-.171-.1-.01.003-.006-.003z" transform="translate(1 .8)"/></g></svg>