<svg xmlns="http://www.w3.org/2000/svg" width="16" height="16" viewBox="0 0 16 16">
  <g fill="none" fill-rule="evenodd">
    <path fill="#E6E6E6" fill-rule="nonzero" d="M14.0414795,9.16789381 C13.1227192,10.3261659 10.5049616,11.1748785 7.41325267,11.196463 C3.54735363,11.2234525 0.404358963,9.94698925 0.393177596,8.34540251 C0.38199623,6.74381577 3.50686232,5.42359387 7.37276136,5.39660436 C7.78744856,5.39370925 8.19381772,5.40581222 8.58889559,5.43170574 L10,4.3 L11.7,5.391044 L11.7,5.98536662 C12.3112905,6.17977243 12.8412273,6.41582784 13.2654471,6.68363822 L16,6 L16,11 L14.422936,9.22938729 L14.0414795,9.16789381 Z"/>
    <g fill-rule="nonzero" transform="translate(0 4)">
      <path fill="#F5BC69" d="M6.28351323,4.22306878 C6.25405291,3.66501587 6.20986243,3.0768254 6.19521693,2.91089947 C6.16584127,2.74497354 6.18057143,2.62433862 6.22467725,2.62433862 C6.29832804,2.62433862 6.48965079,3.04677249 6.59250794,3.39352381 C6.62196825,3.49908995 6.69553439,3.65003175 6.75437037,3.72537566 C6.85731217,3.84601058 6.85731217,3.87606349 6.73964021,3.99686772 C6.66615873,4.07221164 6.60732275,4.25320635 6.60732275,4.40406349 C6.60732275,4.72067725 6.47492063,5.24867725 6.38662434,5.24867725 C6.37189418,5.24867725 6.31297354,4.78112169 6.28368254,4.22306878 L6.28351323,4.22306878 Z M7.26916402,4.84148148 C7.25443386,4.78112169 7.22514286,4.29849735 7.19551323,3.75551323 C7.16622222,2.9258836 7.16622222,2.77519577 7.25443386,2.85053968 C7.3133545,2.89583069 7.38683598,3.04668783 7.4162963,3.18239153 C7.44575661,3.31809524 7.51932275,3.51424339 7.57815873,3.60465608 C7.66637037,3.74044444 7.66637037,3.8309418 7.60753439,3.95157672 C7.56351323,4.04215873 7.50459259,4.28342857 7.47513228,4.47949206 C7.44575661,4.85655026 7.328,5.03754497 7.26916402,4.84148148 Z M8.19614815,3.8309418 C8.18133333,3.30302646 8.16651852,2.86569312 8.19614815,2.85062434 C8.24016931,2.79026455 8.35784127,3.01655026 8.46086772,3.34840212 C8.50488889,3.51415873 8.57853968,3.68008466 8.62256085,3.71030688 C8.66683598,3.74044444 8.66683598,3.81587302 8.63737566,3.90637037 C8.60791534,3.98171429 8.53434921,4.208 8.49007407,4.38891005 C8.32838095,5.03754497 8.2253545,4.84148148 8.19597884,3.83102646 L8.19614815,3.8309418 Z M9.19644444,4.25320635 C9.19644444,4.01193651 9.16706878,3.61997884 9.13760847,3.39360847 C9.10814815,3.16740741 9.10814815,2.97134392 9.13760847,2.95627513 C9.22590476,2.91098413 9.34357672,3.09197884 9.4024127,3.34840212 C9.43187302,3.46903704 9.53481481,3.63496296 9.62311111,3.71039153 L9.78497354,3.84609524 L9.60838095,3.96681481 C9.52,4.04215873 9.43178836,4.17803175 9.43178836,4.2685291 C9.43178836,4.49473016 9.35813757,4.69079365 9.26992593,4.69079365 C9.22590476,4.70586243 9.19627513,4.50979894 9.19627513,4.25337566 L9.19644444,4.25320635 Z M10.1086138,4.0722963 C10.1086138,3.80088889 10.0791534,3.45396825 10.0644233,3.28804233 C10.0055873,2.88084656 10.1233439,2.97125926 10.373418,3.49908995 C10.5352804,3.84601058 10.5499259,3.92152381 10.4617143,4.01193651 C10.4027937,4.0722963 10.343873,4.20808466 10.3292275,4.31365079 C10.3144974,4.41921693 10.2555767,4.50971429 10.2115556,4.52478307 C10.1232593,4.55500529 10.1085291,4.43420106 10.1085291,4.0722963 L10.1086138,4.0722963 Z M10.9324868,3.75568254 C10.9324868,3.10704762 10.9472169,3.06184127 11.0501587,3.16732275 C11.2120212,3.33324868 11.2708571,3.84609524 11.1678307,4.19301587 C11.0207831,4.66048677 10.9324868,4.50962963 10.9324868,3.75551323 L10.9324868,3.75568254 Z M11.7268995,3.89138624 C11.5797672,3.77066667 11.5944974,3.77066667 11.8005503,3.80080423 C11.9182222,3.81604233 12.021164,3.86116402 12.021164,3.89138624 C11.9917037,4.01202116 11.8887619,4.01202116 11.7268995,3.89138624 Z"/>
      <path fill="#000" d="M10.0584974,0.0846560847 C9.92575661,0.0846560847 9.77828571,0.144253968 9.58670899,0.233650794 C9.40977778,0.323047619 9.02645503,0.472042328 8.71686772,0.591153439 C8.42201058,0.695449735 8.03877249,0.859343915 7.86184127,0.963640212 C7.61108995,1.09773545 7.43415873,1.14243386 6.88871958,1.14243386 C4.85409524,1.1722328 2.73108995,1.88740741 1.22734392,3.01959788 C0.445968254,3.61540741 0.00364021164,4.30069841 0.283767196,4.47949206 C0.372232804,4.52419048 0.445883598,4.56888889 0.696550265,4.50929101 C0.81447619,4.43479365 1.09460317,4.18150265 1.33062434,3.9282963 C2.17075132,3.04931217 3.63039153,2.24491005 5.1047619,1.84262434 C5.70920635,1.67873016 6.06306878,1.64893122 7.2277672,1.61913228 C8.80533333,1.57443386 9.48351323,1.64893122 10.8546032,2.05121693 C11.2821164,2.1704127 11.6507937,2.25980952 11.6656085,2.24491005 C11.7392593,2.1704127 10.5303704,1.64893122 9.91102646,1.48503704 C9.54243386,1.38091005 9.23293122,1.2765291 9.2181164,1.23191534 C9.20330159,1.18704762 9.27703704,1.11255026 9.3802328,1.05303704 C9.48351323,0.993354497 9.68982011,0.844359788 9.83737566,0.725164021 L10.1026032,0.501671958 L10.3974603,0.799661376 C10.5892063,1.00825397 10.8104127,1.12744974 11.0609947,1.20194709 C11.2675556,1.26146032 11.4885079,1.3509418 11.562328,1.42543915 C11.680254,1.52956614 11.6949841,1.52956614 11.6949841,1.42543915 C11.6949841,1.27644444 11.4295873,1.03796825 11.0758095,0.888973545 C10.9283386,0.81447619 10.7366772,0.665481481 10.6629418,0.561185185 C10.4123598,0.233566138 10.2648889,0.0845714286 10.0584974,0.0845714286 L10.0584974,0.0846560847 Z M15.6166772,1.76812698 C15.3512804,1.76812698 13.3462011,2.72160847 13.3462011,2.84071958 C13.3462011,2.94510053 13.7590688,2.90040212 14.6583704,2.67691005 C14.9826032,2.6024127 15.2924444,2.55779894 15.3364656,2.57278307 C15.3808254,2.6024127 15.3955556,2.91538624 15.3660952,3.39208466 C15.3364656,4.00296296 15.3512804,4.31568254 15.4692063,4.88203175 C15.6314074,5.64173545 15.6608677,6.11843386 15.557672,6.11843386 C15.5282116,6.11843386 15.3512804,5.95453968 15.189164,5.74594709 C14.8205714,5.31394709 14.3929735,5.1053545 13.8917249,5.13515344 L13.5525926,5.16495238 L14.0539259,5.34374603 C14.5993651,5.53743915 14.7762963,5.68643386 15.2628148,6.43132275 C15.439746,6.69942857 15.6314074,6.95263492 15.6756825,6.98243386 C15.7935238,7.05693122 15.8377143,7.05693122 15.9409101,6.92283598 C15.9851852,6.8632381 15.9999153,6.71432804 15.9999153,6.38653968 C15.9999153,6.16304762 15.9999153,5.85032804 15.970455,5.47784127 C15.970455,5.37354497 15.9557249,5.29904762 15.9557249,5.20965079 C15.9114497,4.01786243 15.9114497,3.7794709 15.970455,2.98996825 C16.0146455,2.00660317 15.9408254,1.76821164 15.6165926,1.76821164 L15.6166772,1.76812698 Z M3.36507937,3.22819048 C3.17341799,3.21329101 2.9522963,3.33231746 2.8048254,3.55580952 C2.67216931,3.76448677 2.71635979,3.9282963 2.98175661,4.24118519 C3.14395767,4.43479365 3.49773545,4.3602963 3.73367196,4.09219048 C3.94006349,3.85379894 3.94006349,3.77930159 3.74840212,3.4664127 C3.65993651,3.31741799 3.51246561,3.22810582 3.36507937,3.22810582 L3.36507937,3.22819048 Z M3.14395767,3.60067725 C3.23242328,3.58569312 3.40926984,3.70480423 3.43881481,3.80918519 C3.48308995,3.94328042 3.15877249,3.91348148 3.0997672,3.77938624 C3.07030688,3.71978836 3.08503704,3.64529101 3.0997672,3.61549206 C3.11449735,3.61549206 3.12922751,3.60059259 3.14404233,3.60059259 L3.14395767,3.60067725 Z M0.239407407,4.65837037 C0.195386243,4.65837037 0.151026455,4.65837037 0.121566138,4.67326984 L0.106835979,4.68816931 C0.0183703704,4.71779894 -0.0110899471,4.80728042 0.00355555556,4.92647619 C0.00355555556,5.01587302 0.0331851852,5.12008466 0.106835979,5.20948148 C0.475428571,5.62666667 2.34768254,6.59504762 3.0407619,6.7290582 C3.49765079,6.81853968 3.71885714,6.81853968 4.14637037,6.7290582 C4.5738836,6.63974603 5.10467725,6.28207407 5.22260317,5.99906878 C5.3258836,5.77557672 5.23733333,5.62658201 5.11932275,5.83525926 C5.07530159,5.90975661 4.88355556,6.05875132 4.69180952,6.17786243 C4.39703704,6.35665608 4.24956614,6.38645503 3.85151323,6.38645503 C3.07013757,6.37164021 2.31822222,6.01396825 0.93231746,4.97125926 L0.608084656,4.71796825 C0.504804233,4.68833862 0.372148148,4.65845503 0.239407407,4.65845503 L0.239407407,4.65837037 Z M11.4295873,5.67144974 C11.0020741,5.67144974 10.3976296,6.28224339 10.3976296,6.74404233 C10.3976296,6.87813757 10.368,6.89303704 10.2648889,6.8632381 C9.23293122,6.4312381 8.58412698,6.29714286 8.31881481,6.47593651 C8.09760847,6.62493122 8.0682328,6.87805291 8.25980952,6.93773545 C8.33346032,6.95263492 8.73151323,7.0122328 9.1442963,7.07183069 C9.55716402,7.1165291 9.95530159,7.19102646 10.0141376,7.2208254 C10.0877884,7.26552381 10.2057989,7.28042328 10.3090794,7.28042328 L10.3238095,7.28042328 C10.4123598,7.28042328 10.5007407,7.26552381 10.559746,7.2208254 C10.5744762,7.20592593 10.6040212,7.20592593 10.6187513,7.19102646 C10.7072169,7.1165291 10.7514074,6.98243386 10.7514074,6.74404233 C10.7514074,6.38653968 10.869418,6.20774603 11.3118307,5.86514286 C11.5181376,5.70124868 11.5475979,5.67144974 11.429672,5.67144974 L11.4295873,5.67144974 Z"/>
      <path fill="#6E9BF6" d="M3.48359788,6.09015873 L3.21693122,6.01566138 L3.69100529,5.92592593 C4.31339683,5.80656085 4.46154497,5.65697354 4.46154497,5.17875132 C4.46154497,4.77528042 4.53561905,4.71551323 4.72821164,4.98446561 C4.99487831,5.37303704 4.80237037,5.89621164 4.34302646,6.0904127 C4.04673016,6.21003175 3.85405291,6.21003175 3.48359788,6.0904127 L3.48359788,6.09015873 Z M13.8556614,4.44630688 C13.885291,4.23720635 13.8703915,4.04283598 13.7815026,3.84863492 C13.6333545,3.48986243 13.6333545,3.50493122 13.8111323,3.50493122 C14.0185397,3.50493122 14.3593651,3.93820106 14.3000212,4.1474709 C14.2407619,4.37164021 14.018455,4.67047619 13.8999365,4.71534392 C13.8258624,4.74522751 13.8258624,4.68546032 13.8554921,4.44630688 L13.8556614,4.44630688 Z M11.144127,2.57828571 C9.64740741,2.08507937 7.0101164,2.07017989 5.23208466,2.54840212 C4.86162963,2.63813757 4.78764021,2.65303704 4.69875132,2.56330159 C4.55043386,2.41379894 4.81726984,2.24939683 5.55801058,2.05511111 C7.0101164,1.7711746 10.5513651,1.66653968 11.7810794,2.71271958 C11.7810794,2.7575873 11.6329312,2.72761905 11.1440423,2.5781164 L11.144127,2.57828571 Z"/>
    </g>
  </g>
</svg>
