<svg xmlns="http://www.w3.org/2000/svg" width="16" height="16" viewBox="0 0 16 16"><rect id="frame" width="16" height="16" fill="none"/><g fill="none" fill-rule="nonzero"><path fill="#E6E6E6" d="M14.041 9.168c-.918 1.158-3.536 2.007-6.628 2.028-3.866.027-7.009-1.249-7.02-2.85-.011-1.602 3.114-2.922 6.98-2.95.414-.002.82.01 1.216.036L10 4.3l1.7 1.091v.594c.611.195 1.141.43 1.565.699L16 6v5l-1.577-1.77-.382-.062z"/><path fill="#F5BC69" d="M6.284 8.223a47.44 47.44 0 0 0-.089-1.312c-.03-.166-.014-.287.03-.287.073 0 .265.423.368.77.029.105.103.256.161.331.103.121.103.151-.014.272-.074.075-.133.256-.133.407 0 .317-.132.845-.22.845-.015 0-.074-.468-.103-1.026zm.985.618c-.015-.06-.044-.543-.073-1.085-.03-.83-.03-.98.058-.905.06.045.133.196.162.331.03.136.103.332.162.423.088.135.088.226.03.347-.044.09-.103.331-.133.527-.03.378-.147.559-.206.362zm.927-1.01c-.015-.528-.03-.965 0-.98.044-.06.162.166.265.497.044.166.118.332.162.362.044.03.044.106.014.196-.03.076-.103.302-.147.483-.162.649-.265.452-.294-.558zm1 .422c0-.241-.029-.633-.058-.86-.03-.226-.03-.422 0-.437.088-.045.206.136.264.392.03.121.133.287.221.362l.162.136-.177.12c-.088.076-.176.212-.176.303 0 .226-.074.422-.162.422-.044.015-.074-.181-.074-.438zm.913-.18c0-.272-.03-.619-.045-.785-.058-.407.06-.317.31.211.161.347.176.423.088.513a.626.626 0 0 0-.133.302c-.015.105-.073.196-.117.21-.089.031-.103-.09-.103-.452zm.823-.317c0-.649.015-.694.118-.589.162.166.22.68.118 1.026-.147.467-.236.317-.236-.437zm.795.135c-.147-.12-.133-.12.074-.09.117.015.22.06.22.09-.03.121-.132.121-.294 0z"/><path fill="#000" d="M10.058 4.085c-.132 0-.28.06-.471.149-.177.089-.56.238-.87.357a6.118 6.118 0 0 0-.855.373c-.25.134-.428.178-.973.178-2.035.03-4.158.745-5.662 1.878C.446 7.615.004 8.3.284 8.48c.088.044.162.089.413.03.117-.075.398-.328.634-.582.84-.879 2.3-1.683 3.774-2.085.604-.164.958-.194 2.123-.224 1.577-.045 2.256.03 3.627.432.427.12.796.209.81.194.074-.075-1.135-.596-1.754-.76-.369-.104-.678-.208-.693-.253-.015-.045.059-.12.162-.179.104-.06.31-.209.457-.328l.266-.223.294.298c.192.208.413.327.664.402.207.06.428.149.501.223.118.105.133.105.133 0 0-.149-.265-.387-.62-.536a1.348 1.348 0 0 1-.412-.328c-.25-.327-.398-.476-.605-.476zm5.559 1.683c-.266 0-2.27.954-2.27 1.073 0 .104.412.06 1.311-.164.325-.075.634-.12.678-.104.045.03.06.342.03.82-.03.61-.015.923.103 1.489.162.76.192 1.236.089 1.236-.03 0-.207-.163-.369-.372-.368-.432-.796-.64-1.297-.61l-.34.029.502.179c.545.193.722.342 1.209 1.087.177.268.368.522.413.551.118.075.162.075.265-.06.044-.059.059-.208.059-.535 0-.224 0-.537-.03-.91 0-.103-.014-.178-.014-.267-.045-1.192-.045-1.43.014-2.22.045-.983-.03-1.222-.353-1.222zM3.365 7.228c-.192-.015-.413.104-.56.328-.133.208-.089.372.177.685.162.194.516.12.752-.149.206-.238.206-.313.014-.626a.46.46 0 0 0-.383-.238zm-.221.373c.088-.015.265.104.295.208.044.134-.28.104-.34-.03a.207.207 0 0 1 0-.164c.015 0 .03-.014.045-.014zM.239 8.658c-.044 0-.088 0-.117.015l-.015.015c-.089.03-.118.12-.103.238 0 .09.03.194.103.283.368.418 2.24 1.386 2.934 1.52.457.09.678.09 1.105 0 .428-.09.959-.447 1.077-.73.103-.223.014-.372-.104-.164-.044.075-.235.224-.427.343-.295.179-.442.208-.84.208-.782-.014-1.534-.372-2.92-1.415l-.324-.253a1.373 1.373 0 0 0-.369-.06zm11.19 1.013c-.427 0-1.031.611-1.031 1.073 0 .134-.03.149-.133.12-1.032-.433-1.68-.567-1.946-.388-.221.149-.25.402-.06.462.074.015.473.074.885.134.413.045.811.119.87.149.074.045.192.06.295.06h.015a.399.399 0 0 0 .236-.06c.014-.015.044-.015.059-.03.088-.074.132-.209.132-.447 0-.357.118-.536.56-.879.207-.164.237-.194.119-.194z"/><path fill="#6E9BF6" d="M3.484 10.09l-.267-.074.474-.09c.622-.12.77-.269.77-.747 0-.404.075-.463.267-.195.267.389.074.912-.385 1.106-.296.12-.489.12-.86 0zm10.372-1.644c.03-.209.014-.403-.074-.597-.149-.36-.149-.344.03-.344.207 0 .547.433.488.642-.06.225-.282.523-.4.568-.074.03-.074-.03-.045-.269zm-2.712-1.868c-1.497-.493-4.134-.508-5.912-.03-.37.09-.444.105-.533.015-.149-.15.118-.314.859-.508 1.452-.284 4.993-.388 6.223.658 0 .045-.148.015-.637-.135z"/></g></svg>