<svg ti:v="1" width="16" height="16" viewBox="0 0 16 16" xmlns="http://www.w3.org/2000/svg" xmlns:ti="urn:schemas-jetbrains-com:tisvg"><rect id="frame" width="16" height="16" fill="none"/><g fill-rule="evenodd"><path d="M10 13c-1.654 0-3-1.346-3-3V7c0-1.654 1.346-3 3-3h3c1.654 0 3 1.346 3 3v3c0 1.654-1.346 3-3 3h-3z" fill="#F4F4F4"/><path d="M13 12h-3a2 2 0 0 1-2-2V7a2 2 0 0 1 2-2h3a2 2 0 0 1 2 2v3a2 2 0 0 1-2 2z" fill="#313131"/><path d="M12 11h-1a1 1 0 0 1-1-1V7a1 1 0 0 1 1-1h1a1 1 0 0 1 1 1v3a1 1 0 0 1-1 1z" fill="#EBEBEB"/><path d="M11.5 10c-.275 0-.5-.672-.5-1.5s.225-1.5.5-1.5.5.672.5 1.5-.225 1.5-.5 1.5z" fill="#313131"/><path d="M0 10.414V7.382l2 1V4h4v4.382l2-1v3.032l-4 4-4-4z" fill="#F4F4F4"/><path d="M4 13l-3-3V9l2 1V5h2v5l2-1v1l-3 3z" fill="#00529C"/></g></svg>