<svg ti:v="1" width="16" height="16" viewBox="0 0 16 16" xmlns="http://www.w3.org/2000/svg" xmlns:ti="urn:schemas-jetbrains-com:tisvg"><rect id="frame" width="16" height="16" fill="none"/><linearGradient id="a" x1=".5" y1=".017" x2=".5" y2="1.014"><stop offset="0" stop-color="#36617C"/><stop offset="1" stop-color="#0D3751"/></linearGradient><path fill-rule="evenodd" d="M10 4C8.346 4 7 5.346 7 7v3c0 1.654 1.346 3 3 3h3c1.654 0 3-1.346 3-3V7c0-1.654-1.346-3-3-3h-3z" fill="url(#a)"/><linearGradient id="b" x1=".5" y1=".017" x2=".5" y2="1.014"><stop offset="0" stop-color="#B8F4FF"/><stop offset="1" stop-color="#60C3FF"/></linearGradient><path fill-rule="evenodd" d="M10 5a2 2 0 0 0-2 2v3a2 2 0 0 0 2 2h3a2 2 0 0 0 2-2V7a2 2 0 0 0-2-2h-3z" fill="url(#b)"/><linearGradient id="c" x1=".5" y1=".017" x2=".5" y2="1.014"><stop offset="0" stop-color="#36617C"/><stop offset="1" stop-color="#0D3751"/></linearGradient><path fill-rule="evenodd" d="M11 6a1 1 0 0 0-1 1v3a1 1 0 0 0 1 1h1a1 1 0 0 0 1-1V7a1 1 0 0 0-1-1h-1z" fill="url(#c)"/><linearGradient id="d" x1=".5" y1=".017" x2=".5" y2="1.014"><stop offset="0" stop-color="#B8F4FF"/><stop offset="1" stop-color="#60C3FF"/></linearGradient><path fill-rule="evenodd" d="M11 8.5c0 .828.224 1.5.5 1.5.275 0 .5-.672.5-1.5S11.775 7 11.5 7c-.276 0-.5.672-.5 1.5z" fill="url(#d)"/><linearGradient id="e" x1=".5" y1="1" x2=".5" y2="0"><stop offset="0" stop-color="#004253"/><stop offset="1" stop-color="#0B4A71"/></linearGradient><path fill-rule="evenodd" d="M2 4v4.382l-2-1v3.032l4 4 4-4V7.382l-2 1V4H2z" fill="url(#e)"/><linearGradient id="f" x1=".5" y1="1" x2=".5" y2="0"><stop offset="0" stop-color="#8CFFEE"/><stop offset="1" stop-color="#60ABE8"/></linearGradient><path fill-rule="evenodd" d="M3 5v5L1 9v1l3 3 3-3V9l-2 1V5H3z" fill="url(#f)"/></svg>