<svg ti:v="1" width="16" height="16" viewBox="0 0 16 16" xmlns="http://www.w3.org/2000/svg" xmlns:ti="urn:schemas-jetbrains-com:tisvg"><rect id="frame" width="16" height="16" fill="none"/><linearGradient id="a" x1=".5" y1="0" x2=".5" y2="1"><stop offset="0" stop-color="#531800"/><stop offset="1" stop-color="#71480B"/></linearGradient><path fill-rule="evenodd" d="M0 6.586v3.032l2-1V13h4V8.618l2 1V6.586l-4-4-4 4z" fill="url(#a)"/><linearGradient id="b" x1=".5" y1="0" x2=".5" y2="1"><stop offset="0" stop-color="#FFE48C"/><stop offset="1" stop-color="#FFA600"/></linearGradient><path fill-rule="evenodd" d="M4 4L1 7v1l2-1v5h2V7l2 1V7L4 4z" fill="url(#b)"/><linearGradient id="c" x1=".5" y1="0" x2=".5" y2="1"><stop offset="0" stop-color="#8C0030"/><stop offset="1" stop-color="#440020"/></linearGradient><path fill-rule="evenodd" d="M10 4C8.346 4 7 5.346 7 7v3c0 1.654 1.346 3 3 3h3c1.654 0 3-1.346 3-3V7c0-1.654-1.346-3-3-3h-3z" fill="url(#c)"/><linearGradient id="d" x1=".5" y1="0" x2=".5" y2="1"><stop offset="0" stop-color="#C25E75"/><stop offset="1" stop-color="#AB1B47"/></linearGradient><path fill-rule="evenodd" d="M10 5a2 2 0 0 0-2 2v3a2 2 0 0 0 2 2h3a2 2 0 0 0 2-2V7a2 2 0 0 0-2-2h-3z" fill="url(#d)"/><path fill-rule="evenodd" d="M14 6.556L13.444 6 11.5 7.945 9.556 6 9 6.556 10.944 8.5 9 10.445l.556.555L11.5 9.056 13.444 11l.556-.555L12.056 8.5 14 6.556z" fill="#FFF"/></svg>