<svg ti:v="1" width="16" height="16" viewBox="0 0 16 16" xmlns="http://www.w3.org/2000/svg" xmlns:ti="urn:schemas-jetbrains-com:tisvg"><rect id="frame" width="16" height="16" fill="none"/><g fill-rule="evenodd"><path d="M10 9C8.346 9 7 7.654 7 6V3c0-1.654 1.346-3 3-3h3c1.654 0 3 1.346 3 3v3c0 1.654-1.346 3-3 3h-3z" fill="#242424"/><path d="M10 16c-1.654 0-3-1.346-3-3v-3c0-1.654 1.346-3 3-3h3c1.654 0 3 1.346 3 3v3c0 1.654-1.346 3-3 3h-3z" fill="#242424"/><path d="M13 15h-3a2 2 0 0 1-2-2v-3a2 2 0 0 1 2-2h3a2 2 0 0 1 2 2v3a2 2 0 0 1-2 2z" fill="#C4C4C4"/><path d="M14 9.556L13.444 9 11.5 10.945 9.556 9 9 9.556l1.944 1.944L9 13.445l.556.555 1.944-1.944L13.444 14l.556-.555-1.944-1.945L14 9.556z" fill="#282828"/><path d="M13 8h-3a2 2 0 0 1-2-2V3a2 2 0 0 1 2-2h3a2 2 0 0 1 2 2v3a2 2 0 0 1-2 2z" fill="#C4C4C4"/><path d="M13 3V2h-3v1h1v3h-1v1h3V6h-1V3h1z" fill="#282828"/><path d="M0 7.586v3.032l2-1V14h4V9.618l2 1V7.586l-4-4-4 4z" fill="#242424"/><path d="M4 5L1 8v1l2-1v5h2V8l2 1V8L4 5z" fill="#7BBEFF"/></g></svg>