<svg ti:v="1" width="16" height="16" viewBox="0 0 16 16" xmlns="http://www.w3.org/2000/svg" xmlns:ti="urn:schemas-jetbrains-com:tisvg"><rect id="frame" width="16" height="16" fill="none"/><linearGradient id="a" x1=".5" y1="1" x2=".5" y2="0"><stop offset="0" stop-color="#135300"/><stop offset="1" stop-color="#23710B"/></linearGradient><path fill-rule="evenodd" d="M10 0C8.346 0 7 1.345 7 3v3c0 1.655 1.346 3 3 3h3c1.654 0 3-1.345 3-3V3c0-1.655-1.346-3-3-3h-3z" fill="url(#a)"/><linearGradient id="b" x1=".5" y1="0" x2=".5" y2="1"><stop offset="0" stop-color="#8C0030"/><stop offset="1" stop-color="#440020"/></linearGradient><path fill-rule="evenodd" d="M10 7c-1.654 0-3 1.346-3 3v3c0 1.655 1.346 3 3 3h3c1.654 0 3-1.345 3-3v-3c0-1.654-1.346-3-3-3h-3z" fill="url(#b)"/><linearGradient id="c" x1=".5" y1="0" x2=".5" y2="1"><stop offset="0" stop-color="#C25E75"/><stop offset="1" stop-color="#AB1B47"/></linearGradient><path fill-rule="evenodd" d="M10 8a2 2 0 0 0-2 2v3a2 2 0 0 0 2 2h3a2 2 0 0 0 2-2v-3a2 2 0 0 0-2-2h-3z" fill="url(#c)"/><path fill-rule="evenodd" d="M14 9.556L13.444 9 11.5 10.945 9.556 9 9 9.556l1.944 1.944L9 13.445l.556.555 1.944-1.944L13.444 14l.556-.555-1.944-1.945L14 9.556z" fill="#FFF"/><linearGradient id="d" x1=".5" y1="0" x2=".5" y2="1"><stop offset="0" stop-color="#7CFF53"/><stop offset="1" stop-color="#89D171"/></linearGradient><path fill-rule="evenodd" d="M10 1a2 2 0 0 0-2 2v3a2 2 0 0 0 2 2h3a2 2 0 0 0 2-2V3a2 2 0 0 0-2-2h-3z" fill="url(#d)"/><linearGradient id="e" x1=".5" y1="0" x2=".5" y2="1"><stop offset="0" stop-color="#23710B"/><stop offset="1" stop-color="#135300"/></linearGradient><path fill-rule="evenodd" d="M10 2v1h1v3h-1v1h3V6h-1V3h1V2h-3z" fill="url(#e)"/><linearGradient id="f" x1=".5" y1="0" x2=".5" y2="1"><stop offset="0" stop-color="#531800"/><stop offset="1" stop-color="#71480B"/></linearGradient><path fill-rule="evenodd" d="M0 7.586v3.032l2-1V14h4V9.618l2 1V7.586l-4-4-4 4z" fill="url(#f)"/><linearGradient id="g" x1=".5" y1="0" x2=".5" y2="1"><stop offset="0" stop-color="#FFE48C"/><stop offset="1" stop-color="#FFA600"/></linearGradient><path fill-rule="evenodd" d="M1 8v1l2-1v5h2V8l2 1V8L4 5 1 8z" fill="url(#g)"/></svg>