<svg ti:v="1" width="16" height="16" viewBox="0 0 16 16" xmlns="http://www.w3.org/2000/svg" xmlns:ti="urn:schemas-jetbrains-com:tisvg"><rect id="frame" width="16" height="16" fill="none"/><g fill-rule="evenodd"><path d="M10 13c-1.654 0-3-1.346-3-3V7c0-1.654 1.346-3 3-3h3c1.654 0 3 1.346 3 3v3c0 1.654-1.346 3-3 3h-3z" fill="#242424"/><path d="M13 12h-3a2 2 0 0 1-2-2V7a2 2 0 0 1 2-2h3a2 2 0 0 1 2 2v3a2 2 0 0 1-2 2z" fill="#C4C4C4"/><path d="M13 7V6h-3v1h1v3h-1v1h3v-1h-1V7h1z" fill="#282828"/><path d="M0 6.586v3.032l2-1V13h4V8.618l2 1V6.586l-4-4-4 4z" fill="#242424"/><path d="M4 4L1 7v1l2-1v5h2V7l2 1V7L4 4z" fill="#7BBEFF"/></g></svg>