<svg ti:v="1" width="16" height="16" viewBox="0 0 16 16" xmlns="http://www.w3.org/2000/svg" xmlns:ti="urn:schemas-jetbrains-com:tisvg"><rect id="frame" width="16" height="16" fill="none"/><g fill-rule="evenodd"><path d="M10 9C8.346 9 7 7.654 7 6V3c0-1.654 1.346-3 3-3h3c1.654 0 3 1.346 3 3v3c0 1.654-1.346 3-3 3h-3z" fill="#242424"/><path d="M10 16c-1.654 0-3-1.346-3-3v-3c0-1.654 1.346-3 3-3h3c1.654 0 3 1.346 3 3v3c0 1.654-1.346 3-3 3h-3z" fill="#242424"/><path d="M13 15h-3a2 2 0 0 1-2-2v-3a2 2 0 0 1 2-2h3a2 2 0 0 1 2 2v3a2 2 0 0 1-2 2z" fill="#C4C4C4"/><path d="M12 14h-1a1 1 0 0 1-1-1v-3a1 1 0 0 1 1-1h1a1 1 0 0 1 1 1v3a1 1 0 0 1-1 1z" fill="#282828"/><path d="M11.5 13c-.275 0-.5-.672-.5-1.5s.225-1.5.5-1.5.5.672.5 1.5-.225 1.5-.5 1.5z" fill="#C4C4C4"/><path d="M13 8h-3a2 2 0 0 1-2-2V3a2 2 0 0 1 2-2h3a2 2 0 0 1 2 2v3a2 2 0 0 1-2 2z" fill="#C4C4C4"/><path d="M13 3V2h-3v1h1v3h-1v1h3V6h-1V3h1z" fill="#282828"/><path d="M0 6.586v3.032l2-1V13h4V8.618l2 1V6.586l-4-4-4 4z" fill="#242424"/><path d="M4 4L1 7v1l2-1v5h2V7l2 1V7L4 4z" fill="#7BBEFF"/></g></svg>