<svg ti:v="1" width="16" height="16" viewBox="0 0 16 16" xmlns="http://www.w3.org/2000/svg" xmlns:ti="urn:schemas-jetbrains-com:tisvg"><rect id="frame" width="16" height="16" fill="none"/><linearGradient id="a" x1=".5" y1="1" x2=".5" y2="0"><stop offset="0" stop-color="#135300"/><stop offset="1" stop-color="#23710B"/></linearGradient><path fill-rule="evenodd" d="M10 0C8.346 0 7 1.346 7 3v3c0 1.654 1.346 3 3 3h3c1.654 0 3-1.346 3-3V3c0-1.654-1.346-3-3-3h-3z" fill="url(#a)"/><linearGradient id="b" x1=".5" y1=".017" x2=".5" y2="1.014"><stop offset="0" stop-color="#36617C"/><stop offset="1" stop-color="#0D3751"/></linearGradient><path fill-rule="evenodd" d="M10 7c-1.654 0-3 1.346-3 3v3c0 1.654 1.346 3 3 3h3c1.654 0 3-1.346 3-3v-3c0-1.654-1.346-3-3-3h-3z" fill="url(#b)"/><linearGradient id="c" x1=".5" y1=".017" x2=".5" y2="1.014"><stop offset="0" stop-color="#B8F4FF"/><stop offset="1" stop-color="#60C3FF"/></linearGradient><path fill-rule="evenodd" d="M10 8a2 2 0 0 0-2 2v3a2 2 0 0 0 2 2h3a2 2 0 0 0 2-2v-3a2 2 0 0 0-2-2h-3z" fill="url(#c)"/><linearGradient id="d" x1=".5" y1=".017" x2=".5" y2="1.014"><stop offset="0" stop-color="#36617C"/><stop offset="1" stop-color="#0D3751"/></linearGradient><path fill-rule="evenodd" d="M11 9a1 1 0 0 0-1 1v3a1 1 0 0 0 1 1h1a1 1 0 0 0 1-1v-3a1 1 0 0 0-1-1h-1z" fill="url(#d)"/><linearGradient id="e" x1=".5" y1=".017" x2=".5" y2="1.014"><stop offset="0" stop-color="#B8F4FF"/><stop offset="1" stop-color="#60C3FF"/></linearGradient><path fill-rule="evenodd" d="M11 11.5c0 .828.224 1.5.5 1.5.275 0 .5-.672.5-1.5s-.225-1.5-.5-1.5c-.276 0-.5.672-.5 1.5z" fill="url(#e)"/><linearGradient id="f" x1=".5" y1="0" x2=".5" y2="1"><stop offset="0" stop-color="#7CFF53"/><stop offset="1" stop-color="#89D171"/></linearGradient><path fill-rule="evenodd" d="M10 1a2 2 0 0 0-2 2v3a2 2 0 0 0 2 2h3a2 2 0 0 0 2-2V3a2 2 0 0 0-2-2h-3z" fill="url(#f)"/><linearGradient id="g" x1=".5" y1="0" x2=".5" y2="1"><stop offset="0" stop-color="#23710B"/><stop offset="1" stop-color="#135300"/></linearGradient><path fill-rule="evenodd" d="M10 2v1h1v3h-1v1h3V6h-1V3h1V2h-3z" fill="url(#g)"/><linearGradient id="h" x1=".5" y1="0" x2=".5" y2="1"><stop offset="0" stop-color="#531800"/><stop offset="1" stop-color="#71480B"/></linearGradient><path fill-rule="evenodd" d="M0 6.586v3.033l2-1.001V13h4V8.618l2 1.001V6.586l-4-4-4 4z" fill="url(#h)"/><linearGradient id="i" x1=".5" y1="0" x2=".5" y2="1"><stop offset="0" stop-color="#FFE48C"/><stop offset="1" stop-color="#FFA600"/></linearGradient><path fill-rule="evenodd" d="M1 7v1l2-1v5h2V7l2 1V7L4 4 1 7z" fill="url(#i)"/></svg>