<svg ti:v="1" width="16" height="16" viewBox="0 0 16 16" xmlns="http://www.w3.org/2000/svg" xmlns:ti="urn:schemas-jetbrains-com:tisvg"><rect id="frame" width="16" height="16" fill="none"/><linearGradient id="a" x1=".5" y1=".017" x2=".5" y2="1.014"><stop offset="0" stop-color="#36617C"/><stop offset="1" stop-color="#0D3751"/></linearGradient><path fill-rule="evenodd" d="M10 4C8.346 4 7 5.345 7 7v3c0 1.654 1.346 3 3 3h3c1.654 0 3-1.346 3-3V7c0-1.655-1.346-3-3-3h-3z" fill="url(#a)"/><linearGradient id="b" x1=".5" y1=".017" x2=".5" y2="1.014"><stop offset="0" stop-color="#B8F4FF"/><stop offset="1" stop-color="#60C3FF"/></linearGradient><path fill-rule="evenodd" d="M10 5a2 2 0 0 0-2 2v3a2 2 0 0 0 2 2h3a2 2 0 0 0 2-2V7a2 2 0 0 0-2-2h-3z" fill="url(#b)"/><linearGradient id="c" x1=".5" y1=".017" x2=".5" y2="1.014"><stop offset="0" stop-color="#36617C"/><stop offset="1" stop-color="#0D3751"/></linearGradient><path fill-rule="evenodd" d="M11 6a1 1 0 0 0-1 1v3a1 1 0 0 0 1 1h1a1 1 0 0 0 1-1V7a1 1 0 0 0-1-1h-1z" fill="url(#c)"/><linearGradient id="d" x1=".5" y1=".017" x2=".5" y2="1.014"><stop offset="0" stop-color="#B8F4FF"/><stop offset="1" stop-color="#60C3FF"/></linearGradient><path fill-rule="evenodd" d="M11 8.5c0 .828.224 1.5.5 1.5.275 0 .5-.672.5-1.5S11.775 7 11.5 7c-.276 0-.5.672-.5 1.5z" fill="url(#d)"/><linearGradient id="e" x1=".5" y1="0" x2=".5" y2="1"><stop offset="0" stop-color="#531800"/><stop offset="1" stop-color="#71480B"/></linearGradient><path fill-rule="evenodd" d="M0 6.586v3.032l2-.999V13h4V8.619l2 .999V6.586l-4-4-4 4z" fill="url(#e)"/><linearGradient id="f" x1=".5" y1="0" x2=".5" y2="1"><stop offset="0" stop-color="#FFE48C"/><stop offset="1" stop-color="#FFA600"/></linearGradient><path fill-rule="evenodd" d="M1 7v1l2-1v5h2V7l2 1V7L4 4 1 7z" fill="url(#f)"/></svg>