<svg ti:v="1" width="16" height="16" viewBox="0 0 16 16" xmlns="http://www.w3.org/2000/svg" xmlns:ti="urn:schemas-jetbrains-com:tisvg"><rect id="frame" width="16" height="16" fill="none"/><linearGradient id="a" x1=".5" y1="1" x2=".5" y2="0"><stop offset="0" stop-color="#135300"/><stop offset="1" stop-color="#23710B"/></linearGradient><path fill-rule="evenodd" d="M10 4C8.346 4 7 5.346 7 7v3c0 1.655 1.346 3 3 3h3c1.654 0 3-1.345 3-3V7c0-1.654-1.346-3-3-3h-3z" fill="url(#a)"/><linearGradient id="b" x1=".5" y1="0" x2=".5" y2="1"><stop offset="0" stop-color="#7CFF53"/><stop offset="1" stop-color="#89D171"/></linearGradient><path fill-rule="evenodd" d="M10 5a2 2 0 0 0-2 2v3a2 2 0 0 0 2 2h3a2 2 0 0 0 2-2V7a2 2 0 0 0-2-2h-3z" fill="url(#b)"/><linearGradient id="c" x1=".5" y1="0" x2=".5" y2="1"><stop offset="0" stop-color="#23710B"/><stop offset="1" stop-color="#135300"/></linearGradient><path fill-rule="evenodd" d="M10 6v1h1v3h-1v1h3v-1h-1V7h1V6h-3z" fill="url(#c)"/><linearGradient id="d" x1=".5" y1="1" x2=".5" y2="0"><stop offset="0" stop-color="#004253"/><stop offset="1" stop-color="#0B4A71"/></linearGradient><path fill-rule="evenodd" d="M2 3v6.382l-2-1v3.032l4 4 4-4V8.382l-2 1V3H2z" fill="url(#d)"/><linearGradient id="e" x1=".5" y1="0" x2=".5" y2="1"><stop offset="0" stop-color="#8CFFEE"/><stop offset="1" stop-color="#60ABE8"/></linearGradient><path fill-rule="evenodd" d="M3 5h2V4H3m0 3h2V6H3m0 2v3l-2-1v1l3 3 3-3v-1l-2 1V8H3z" fill="url(#e)"/></svg>