<svg ti:v="1" width="16" height="16" viewBox="0 0 16 16" xmlns="http://www.w3.org/2000/svg" xmlns:ti="urn:schemas-jetbrains-com:tisvg"><rect id="frame" width="16" height="16" fill="none"/><g fill-rule="evenodd"><path d="M10 13c-1.654 0-3-1.346-3-3V7c0-1.654 1.346-3 3-3h3c1.654 0 3 1.346 3 3v3c0 1.654-1.346 3-3 3h-3z" fill="#F4F4F4"/><path d="M13 12h-3a2 2 0 0 1-2-2V7a2 2 0 0 1 2-2h3a2 2 0 0 1 2 2v3a2 2 0 0 1-2 2z" fill="#313131"/><path d="M13 7V6h-3v1h1v3h-1v1h3v-1h-1V7h1z" fill="#EBEBEB"/><path d="M0 11.414V8.382l2 1V3h4v6.382l2-1v3.032l-4 4-4-4z" fill="#F4F4F4"/><path d="M5 4H3v1h2m0 1H3v1h2m-1 7l-3-3v-1l2 1V8h2v3l2-1v1l-3 3z" fill="#00529C"/></g></svg>