<svg ti:v="1" width="16" height="16" viewBox="0 0 16 16" xmlns="http://www.w3.org/2000/svg" xmlns:ti="urn:schemas-jetbrains-com:tisvg"><rect id="frame" width="16" height="16" fill="none"/><linearGradient id="a" x1="1.005" y1=".5" x2="-.025" y2=".5"><stop offset="0" stop-color="#000079"/><stop offset=".999" stop-color="#3636B8"/><stop offset="1" stop-color="#3636B8"/></linearGradient><path fill-rule="evenodd" d="M8 7v2h3.414L15 5.414v-.828L11.414 1H8v1.414L8.586 3H1v4h7z" fill="url(#a)"/><linearGradient id="b" x1="1.005" y1=".5" x2="-.025" y2=".5"><stop offset="0" stop-color="#A01A93"/><stop offset="1" stop-color="#6B0160"/></linearGradient><path fill-rule="evenodd" d="M8 9V7H4.586L1 10.586v.828L4.586 15H8v-1.414L7.414 13H15V9H8z" fill="url(#b)"/><path fill-rule="evenodd" d="M3 4H2v2h1m2-2H4v2h1m9-1l-3 3H9l2-2H6V4h5L9 2h2l3 3z" fill="#7CBDFF"/><linearGradient id="c" x1=".987" y1=".5" x2="-.027" y2=".5"><stop offset="0" stop-color="#FFBCF7"/><stop offset="1" stop-color="#FF93F4"/></linearGradient><path fill-rule="evenodd" d="M13 10h1v2h-1m-2-2h1v2h-1m-4 2l-2-2h5v-2H5l2-2H5l-3 3 3 3h2z" fill="url(#c)"/></svg>