<svg xmlns="http://www.w3.org/2000/svg" width="16" height="16" viewBox="0 0 16 16"><rect id="frame" width="16" height="16" fill="none"/><g fill="none" fill-rule="evenodd"><path fill="#F4AF3D" fill-opacity=".7" d="M1 16h15V9H1z"/><path fill="#9AA7B0" fill-opacity=".8" d="M7 1L3 5h4z"/><path fill="#9AA7B0" fill-opacity=".8" d="M8 1v5H3v2h10V1z"/><path fill="#423426" d="M6.062 10.037c.382-.003.773.188 1.07.617.152.215.274.483.379.77.187-.529.461-.977.8-1.193.411-.27.877-.25 1.288.013.359.228.673.626.958 1.063.222.342.428.717.658 1.046.12.17.25.33.4.42.197.117.43.006.572-.26.13-.247.123-.676-.021-.902-.092-.138-.249-.11-.314.073-.056.146-.025.327.02.468a1.008 1.008 0 0 1-.236-.632c-.025-.315.11-.593.27-.704.315-.218.71-.03.907.452.191.449.206 1.04.173 1.575-.04.508-.203.983-.446 1.277-.34.422-.77.553-1.181.544-.394-.018-.784-.173-1.15-.43-.61-.427-1.182-1.018-1.813-1.359a1.428 1.428 0 0 0-.655-.241c-.179-.002-.347-.017-.516.003a1.49 1.49 0 0 0-.6.238c-.642.348-1.223.953-1.845 1.381-.526.356-1.108.522-1.666.324-.312-.11-.623-.35-.833-.778-.18-.364-.267-.85-.258-1.327-.01-.45.046-.929.217-1.28.16-.331.416-.5.662-.463.158.013.319.133.417.355.076.176.081.416.048.622a1.032 1.032 0 0 1-.218.44c.047-.139.075-.32.02-.465-.069-.192-.237-.212-.326-.054-.11.197-.133.517-.06.758.08.252.245.396.405.425.242.036.452-.224.63-.477.366-.55.697-1.18 1.104-1.645.336-.392.732-.657 1.14-.654z"/></g></svg>