<svg width="16" height="16" viewBox="0 0 16 16" fill="none" xmlns="http://www.w3.org/2000/svg"><rect id="frame" width="16" height="16" fill="none"/><path fill-rule="evenodd" clip-rule="evenodd" d="M1 16h15V9H1v7z" fill="#62B543" fill-opacity=".7"/><path fill-rule="evenodd" clip-rule="evenodd" d="M7 1L3 5h4V1z" fill="#9AA7B0" fill-opacity=".8"/><path fill-rule="evenodd" clip-rule="evenodd" d="M8 1v5H3v2h10V1H8z" fill="#9AA7B0" fill-opacity=".8"/><path fill-rule="evenodd" clip-rule="evenodd" d="M3 12.501C3 11 3.931 10 5.256 10c.946 0 1.294.311 1.713.753l-.542.674C6.077 11.068 5.75 11 5.25 11 4.418 11 4 11.738 4 12.487 4 13.237 4.412 14 5.25 14c.537 0 .802-.107 1.177-.494l.573.638c-.456.525-.803.856-1.775.856C3.949 15 3 14.002 3 12.501z" fill="#231F20" fill-opacity=".7"/><path d="M10 15c1.294 0 2-.731 2-2.222V10h-1v2.82c0 .78-.353 1.181-1 1.181s-1-.415-1-1.216V10H8v2.813C8 14.262 8.706 15 10 15z" fill="#231F20" fill-opacity=".7"/></svg>