<svg width="16" height="16" viewBox="0 0 16 16" fill="none" xmlns="http://www.w3.org/2000/svg"><rect id="frame" width="16" height="16" fill="none"/><path fill-rule="evenodd" clip-rule="evenodd" d="M1 16h15V9H1v7z" fill="#F26522" fill-opacity=".7"/><path fill-rule="evenodd" clip-rule="evenodd" d="M7 1L3 5h4V1z" fill="#9AA7B0" fill-opacity=".8"/><path fill-rule="evenodd" clip-rule="evenodd" d="M8 1v5H3v2h10V1H8z" fill="#9AA7B0" fill-opacity=".8"/><path fill-rule="evenodd" clip-rule="evenodd" d="M2 12.501C2 11 2.931 10 4.256 10c.946 0 1.294.311 1.713.753l-.542.674C5.077 11.068 4.75 11 4.25 11 3.418 11 3 11.738 3 12.487 3 13.237 3.412 14 4.25 14c.537 0 .802-.107 1.177-.494l.573.638c-.456.525-.803.856-1.775.856C2.949 15 2 14.002 2 12.501z" fill="#231F20" fill-opacity=".7"/><path fill-rule="evenodd" clip-rule="evenodd" d="M11 10h1v2h2v-2h1v5h-1v-2h-2v2h-1v-5z" fill="#231F20" fill-opacity=".7"/><path d="M8.5 15c1.294 0 2-.731 2-2.222V10h-1v2.82c0 .78-.353 1.181-1 1.181s-1-.415-1-1.216V10h-1v2.813c0 1.449.706 2.187 2 2.187z" fill="#231F20" fill-opacity=".7"/></svg>