<svg xmlns="http://www.w3.org/2000/svg" width="16" height="16" viewBox="0 0 16 16">
  <g fill="none" fill-rule="evenodd">
    <polygon fill="#40B6E0" fill-opacity=".7" points="1 16 16 16 16 9 1 9"/>
    <path fill="#231F20" fill-opacity=".7" d="M0,4 L0,0.0816326531 L0.998733272,0.0816326531 L0.998733272,0.575325 C1.29475317,0.226530937 1.75870647,0 2.46393035,0 C3.12562189,0 3.59577114,0.174582584 3.83955224,0.590167 C4.20522388,0.174582584 4.69278607,0 5.38930348,0 C6.39054726,0 7,0.54174397 7,1.49907236 L7,4 L6,4 L6,1.77365492 C6,1.15027829 5.60696517,0.916327 5.01492537,0.916327 C4.44029851,0.916327 4,1.15769944 4,1.78849722 L4,4 L3.0104829,4 L3.0104829,1.76623377 C3.0104829,1.15769944 2.62935323,0.916327 2.0460199,0.916327 C1.46268657,0.916327 0.998733272,1.18738404 0.998733272,1.78849722 L0.998733272,4 L0,4 Z" transform="translate(3 11)"/>
    <polygon fill="#9AA7B0" fill-opacity=".8" points="7 1 3 5 7 5"/>
    <polygon fill="#9AA7B0" fill-opacity=".8" points="8 1 8 6 3 6 3 8 13 8 13 1"/>
  </g>
</svg>
