<svg xmlns="http://www.w3.org/2000/svg" width="16" height="16" viewBox="0 0 16 16"><rect id="frame" width="16" height="16" fill="none"/><g fill="none" fill-rule="evenodd"><path fill="#40B6E0" fill-opacity=".7" d="M1 16h15V9H1z"/><path fill="#231F20" fill-opacity=".7" d="M3 15v-3.918h.999v.493c.296-.348.76-.575 1.465-.575.662 0 1.132.175 1.376.59.365-.415.853-.59 1.55-.59 1 0 1.61.542 1.61 1.5V15H9v-2.226c0-.624-.393-.858-.985-.858-.575 0-1.015.242-1.015.872V15h-.99v-2.234c0-.608-.38-.85-.964-.85-.583 0-1.047.271-1.047.872V15H3z"/><path fill="#9AA7B0" fill-opacity=".8" d="M7 1L3 5h4z"/><path fill="#9AA7B0" fill-opacity=".8" d="M8 1v5H3v2h10V1z"/></g></svg>