<svg xmlns="http://www.w3.org/2000/svg" width="16" height="16" viewBox="0 0 16 16"><rect id="frame" width="16" height="16" fill="none"/><g fill="none" fill-rule="evenodd"><path fill="#40B6E0" fill-opacity=".7" d="M1 16h15V9H1z"/><path fill="#9AA7B0" fill-opacity=".8" d="M7 1L3 5h4z"/><path fill="#9AA7B0" fill-opacity=".8" d="M8 1v5H3v2h10V1z"/><path fill="#231F20" fill-opacity=".7" d="M3 15v-4h1.002v.291c.303-.194.574-.291.813-.291.564 0 .977.26 1.185.675.312-.415.8-.675 1.393-.675C8.247 11 9 11.542 9 12.5V15H8v-2c0-.624-.22-1.008-.725-1.008-.49 0-.775.377-.775 1.008v2h-1v-2c0-.609-.259-1.008-.756-1.008s-.742.406-.742 1.008v2H3z"/></g></svg>