<svg xmlns="http://www.w3.org/2000/svg" width="16" height="16" viewBox="0 0 16 16">
  <g fill="none" fill-rule="evenodd">
    <polygon fill="#40B6E0" fill-opacity=".7" points="1 16 16 16 16 9 1 9"/>
    <polygon fill="#9AA7B0" fill-opacity=".8" points="7 1 3 5 7 5"/>
    <polygon fill="#9AA7B0" fill-opacity=".8" points="8 1 8 6 3 6 3 8 13 8 13 1"/>
    <path fill="#231F20" fill-opacity=".7" d="M0,4 L0,-1.20348176e-13 L1.0016162,-1.13803411e-13 L1.0016162,0.291422476 C1.30525206,0.0971408255 1.57634061,-6.66133815e-15 1.81488187,-6.66133815e-15 C2.37888929,-6.66133815e-15 2.79220779,0.25974026 3,0.675324675 C3.31168831,0.25974026 3.79973387,-6.66133815e-15 4.39342589,-6.66133815e-15 C5.24685818,-6.66133815e-15 6,0.54174397 6,1.49907236 L6,4 L5,4 L5,1.9996 C5,1.37622338 4.77922078,0.992432407 4.27458256,0.992432407 C3.78478664,0.992432407 3.5,1.36880223 3.5,1.9996 L3.5,4 L2.5,4 L2.5,2 C2.5,1.39146568 2.24118738,0.992432407 1.74397032,0.992432407 C1.24675325,0.992432407 1.0016162,1.39848683 1.0016162,1.9996 L1.0016162,4 L0,4 Z" transform="translate(3 11)"/>
  </g>
</svg>
