<svg width="16" height="16" viewBox="0 0 16 16" fill="none" xmlns="http://www.w3.org/2000/svg"><rect id="frame" width="16" height="16" fill="none"/><path fill-rule="evenodd" clip-rule="evenodd" d="M1 16h15V9H1v7z" fill="#40B6E0" fill-opacity=".7"/><path fill-rule="evenodd" clip-rule="evenodd" d="M7 1L3 5h4V1z" fill="#9AA7B0" fill-opacity=".8"/><path fill-rule="evenodd" clip-rule="evenodd" d="M8 1v5H3v2h10V1H8z" fill="#9AA7B0" fill-opacity=".8"/><path fill-rule="evenodd" clip-rule="evenodd" d="M2 15v-4h1.002v.291S3.457 11 3.815 11c.564 0 .977.26 1.185.675.312-.415.8-.675 1.393-.675C7.247 11 8 11.542 8 12.5V15H7v-2c0-.624-.22-1.008-.725-1.008-.49 0-.775.377-.775 1.008v2h-1v-2c0-.608-.259-1.008-.756-1.008s-.742.406-.742 1.008v2H2z" fill="#231F20" fill-opacity=".7"/><path fill-rule="evenodd" clip-rule="evenodd" d="M9 15v-4h1.002v.291s.455-.291.813-.291c.564 0 .977.26 1.185.675.312-.415.8-.675 1.393-.675.854 0 1.607.542 1.607 1.5V15h-1v-2c0-.624-.22-1.008-.725-1.008-.49 0-.775.377-.775 1.008v2h-1v-2c0-.608-.259-1.008-.756-1.008s-.742.406-.742 1.008v2H9z" fill="#231F20" fill-opacity=".7"/></svg>