<svg width="16" height="16" viewBox="0 0 16 16" fill="none" xmlns="http://www.w3.org/2000/svg"><rect id="frame" width="16" height="16" fill="none"/><path fill-rule="evenodd" clip-rule="evenodd" d="M1 16h15V9H1v7z" fill="#F98B9E" fill-opacity=".7"/><path fill-rule="evenodd" clip-rule="evenodd" d="M2 10h.936L4.5 12l1.479-2H7v5H6v-3.3l-1.5 1.8L3 11.7V15H2v-5z" fill="#231F20" fill-opacity=".7"/><path fill-rule="evenodd" clip-rule="evenodd" d="M10.15 13l-.654-1.6L8.85 13h1.3zm-1.041-3h.781L12 15h-1.1l-.5-1H8.6l-.5 1H7l2.109-5z" fill="#231F20" fill-opacity=".7"/><path fill-rule="evenodd" clip-rule="evenodd" d="M7 1L3 5h4V1z" fill="#9AA7B0" fill-opacity=".8"/><path fill-rule="evenodd" clip-rule="evenodd" d="M8 1v5H3v2h10V1H8z" fill="#9AA7B0" fill-opacity=".8"/><path fill-rule="evenodd" clip-rule="evenodd" d="M13.9 12.5c.664 0 1.1-.116 1.1-.75s-.443-.75-1.1-.75H13v1.5h.9zM12 10h1.971c1.171 0 2.029.642 2.029 1.65 0 1.636-1.029 1.85-2.128 1.85H13V15h-1v-5z" fill="#231F20" fill-opacity=".7"/></svg>