<svg xmlns="http://www.w3.org/2000/svg" width="13" height="13" viewBox="0 0 13 13"><rect id="frame" width="13" height="13" fill="none"/><g fill="#9AA7B0" fill-rule="evenodd"><path d="M13 13H6c.269-2.27.761-3.299 1.5-3.299 1.16 0 1.292 1.196 2 1.196s.84-1.196 2-1.196c.739 0 1.231 1.028 1.5 3.3"/><path d="M9.5 8A1.5 1.5 0 0 1 8 6.5c0-.077.012-.152.023-.227.834-.14 1.806-.363 2.649-.699.203.256.328.574.328.926A1.5 1.5 0 0 1 9.5 8m0-4a2.5 2.5 0 1 0 0 5 2.5 2.5 0 0 0 0-5"/><path d="M3.696 8.764A3.995 3.995 0 0 1 1.556 7H3.17c.12.687.303 1.28.527 1.764zM5 8.975c-.219-.172-.588-.851-.81-1.975h1.62C5.588 8.124 5.218 8.803 5 8.975zM1.141 6a3.977 3.977 0 0 1-.14-1c0-.347.057-.678.14-1h1.9c-.028.324-.04.658-.04 1 0 .343.012.677.04 1h-1.9zm2.907 0a10.712 10.712 0 0 1 0-2h1.904c.028.313.048.641.048 1s-.02.687-.048 1H4.048zM1.556 3a3.997 3.997 0 0 1 2.14-1.763A7.164 7.164 0 0 0 3.17 3H1.556zm5.275 0a7.162 7.162 0 0 0-.528-1.763A3.99 3.99 0 0 1 8.443 3H6.831zM4.19 3c.223-1.124.592-1.802.811-1.975.218.173.588.851.81 1.975H4.19zM5 0a5 5 0 1 0 0 10c.258 0 .505-.038.752-.075.264-.506.62-.926 1.121-1.114-.063-.071-.112-.152-.168-.229-.133.064-.26.133-.402.182.07-.147.124-.323.184-.49A3.473 3.473 0 0 1 6 6.5c0-.929.37-1.77.964-2.398-.003-.033-.002-.068-.004-.102h.098C7.69 3.384 8.55 3 9.5 3c.028 0 .054.008.082.009A4.998 4.998 0 0 0 5 0z"/></g></svg>