<svg xmlns="http://www.w3.org/2000/svg" width="13" height="13" viewBox="0 0 13 13"><rect id="frame" width="13" height="13" fill="none"/><g fill="#afb1b3"><path d="M2.293 10.293l5.884-5.884A2.473 2.473 0 0 1 8 3.5 2.5 2.5 0 0 1 10.5 1a2.473 2.473 0 0 1 .909.177L9.593 2.993l1.414 1.414 1.816-1.816A2.473 2.473 0 0 1 13 3.5 2.5 2.5 0 0 1 10.5 6a2.473 2.473 0 0 1-.909-.177l-5.884 5.884a1 1 0 1 1-1.414-1.414z"/><path d="M9.121 7.707L7.707 9.121l2.586 2.586a1 1 0 1 0 1.414-1.414z"/><path d="M3.5 6a2.473 2.473 0 0 0 .909-.177l1.884 1.884 1.414-1.414-1.884-1.884A2.473 2.473 0 0 0 6 3.5 2.5 2.5 0 0 0 3.5 1a2.473 2.473 0 0 0-.909.177l1.816 1.816-1.414 1.414-1.816-1.816A2.473 2.473 0 0 0 1 3.5 2.5 2.5 0 0 0 3.5 6z"/></g></svg>