<svg xmlns="http://www.w3.org/2000/svg" width="13" height="13" viewBox="0 0 13 13"><rect id="frame" width="13" height="13" fill="none"/><path d="M10.53 8.7L8 5V2h.5a.5.5 0 0 0 0-1h-4a.5.5 0 0 0 0 1H5v3L2.47 8.7A2.637 2.637 0 0 0 2 10.192 1.722 1.722 0 0 0 3.724 12h5.552A1.722 1.722 0 0 0 11 10.192a2.637 2.637 0 0 0-.47-1.492zM6.344 7L4.8 9.266a1.642 1.642 0 0 0-.295.926c0 .034.008.808.725.808h-1.5c-.722 0-.73-.774-.73-.808a1.642 1.642 0 0 1 .3-.926L6 5.309V2h1v3.309L8.156 7z" fill="#afb1b3"/></svg>