<svg xmlns="http://www.w3.org/2000/svg" width="16" height="16" viewBox="0 0 16 16"><rect id="frame" width="16" height="16" fill="none"/><g fill="none" fill-rule="evenodd"><path fill="#3592C4" d="M5.072 13.48c.578-1.746 3.439-8.232 4.112-9.751L1.3 6.143 3.687 14l1.369-.419c.008-.034.005-.068.016-.101"/><path fill="#3592C4" d="M10.65 11.868L14 10.842l-1.603-5.276a378.964 378.964 0 0 1-1.748 6.302"/><path fill="#FFF" d="M5.955 11.214l-.937.287-1.224-4.03 4.328-1.326.529-1.208-6.104 1.87 1.806 5.944 1.119-.343c.14-.355.304-.76.483-1.194" opacity=".33"/><path fill="#FFF" d="M11.408 9.188l.099.325-.207.063c-.107.381-.214.763-.323 1.146l1.777-.544-.85-2.795c-.151.556-.318 1.166-.496 1.804" opacity=".33"/><path fill="#AFB1B3" d="M14.76 2.549l-.324-.115c-.265-.093-1.047.19-1.364.078-.238-.084-.137-.661-.626-.834l-1.252-.442A4.144 4.144 0 0 0 9.817 1c-1.155 0-2.278.492-2.805 1.556a.149.149 0 0 0-.015.063c0 .09.092.157.178.102.52-.33.98-.451 1.426-.451.52 0 1.023.166 1.583.363.228.08.299.238.299.407 0 .137-.047.28-.094.4l-.944 2.38 1.62.573.775-2.475c.083-.267.237-.341.393-.341.153 0 .308.072.399.104.297.105.733.82 1.034.927l.333.117c.05.018.095.025.135.025.182 0 .274-.154.302-.23l.543-1.535a.385.385 0 0 0 .02-.127c0-.11-.046-.245-.238-.31m-6.053 12.19c-.06.16-.2.262-.34.262a.283.283 0 0 1-.094-.016l-1.034-.365-1.033-.365c-.13-.046-.207-.177-.207-.325 0-.045.008-.092.023-.138.642-1.938 1.974-5.283 2.96-7.433l1.05.37 1.052.372c-.586 2.292-1.656 5.729-2.377 7.639"/></g></svg>