<svg ti:v="1" width="16" height="16" viewBox="0 0 16 16" xmlns="http://www.w3.org/2000/svg" xmlns:ti="urn:schemas-jetbrains-com:tisvg"><rect id="frame" width="16" height="16" fill="none"/><path d="M14.925 2.5a18.294 18.294 0 0 1-3.425-.667A14.15 14.15 0 0 1 8 0a12.929 12.929 0 0 1-3.425 1.833c-1.106.33-2.24.553-3.388.667C.04 2.614.75 7.833 2.844 12 4.804 15.901 8 16 8 16s3.252-.099 5.212-4c2.094-4.167 1.713-9.5 1.713-9.5zm0 0" fill="#F4F4F4"/><path d="M14.064 3.188a16.013 16.013 0 0 1-2.998-.584A12.434 12.434 0 0 1 8 1v8h5.486c.515-1.892.71-3.856.578-5.813zm0 0" fill="#E4E3E3"/><path d="M3.49 11.5C5.207 14.914 8 15 8 15V9H2.579c.214.863.52 1.702.912 2.5zm0 0" fill="#E4E3E3"/><path d="M5.006 2.604c-.967.288-1.959.484-2.962.583A19.855 19.855 0 0 0 2.579 9H8V1a11.262 11.262 0 0 1-2.994 1.604zm0 0" fill="#CCC"/><path d="M8 15s2.848-.086 4.563-3.5c.393-.799.7-1.637.919-2.5H8zm0 0" fill="#CCC"/></svg>