<svg ti:v="1" width="16" height="16" viewBox="0 0 16 16" xmlns="http://www.w3.org/2000/svg" xmlns:ti="urn:schemas-jetbrains-com:tisvg"><rect id="frame" width="16" height="16" fill="none"/><g fill-rule="evenodd"><path d="M14.925 2.5s-1.937-.176-3.425-.667C9.638 1.219 8 0 8 0S6.438 1.219 4.575 1.833c-1.487.491-3.387.667-3.387.667S.75 7.833 2.844 12C4.805 15.901 8 16 8 16s3.252-.099 5.213-4c2.093-4.167 1.712-9.5 1.712-9.5z" fill="#F4F4F4"/><path d="M14.064 3.188s-1.696-.154-2.998-.583C9.436 2.067 8 1 8 1v8h5.486c.858-3.203.578-5.812.578-5.812z" fill="#FFC200"/><path d="M3.491 11.5C5.206 14.914 8 15 8 15V9H2.579c.216.843.508 1.696.912 2.5z" fill="#FFC200"/><path d="M5.006 2.604c-1.302.43-2.962.583-2.962.583S1.815 6.023 2.579 9H8V1S6.636 2.066 5.006 2.604z" fill="#2270AA"/><path d="M8 15s2.848-.086 4.563-3.5c.404-.804.698-1.657.919-2.5H8v6z" fill="#2270AA"/></g></svg>