<svg ti:v="1" width="32" height="32" viewBox="0 0 32 32" xmlns="http://www.w3.org/2000/svg" xmlns:ti="urn:schemas-jetbrains-com:tisvg"><rect id="frame" width="32" height="32" fill="none"/><g fill-rule="evenodd"><path d="M27 22V3H3v19h3v4h17v-4h4z" fill="#F4F4F4"/><path d="M25 20V5H5v15h7v2H8v2h13v-2h-4v-2h8z" fill="#313131"/><path d="M23 18H7V7l15.813.062L23 18z" fill="#FFF"/><path d="M30 19h-2.294A7.007 7.007 0 0 0 23 14.294V12h-4v2.294A7.007 7.007 0 0 0 14.294 19H12v4h2.294A7.007 7.007 0 0 0 19 27.706V30h4v-2.294A7.007 7.007 0 0 0 27.706 23H30v-4z" fill="#F4F4F4"/><path d="M29 20h-3.101A5.003 5.003 0 0 0 22 16.101V13h-2v3.101A5.003 5.003 0 0 0 16.101 20H13v2h3.101A5.003 5.003 0 0 0 20 25.899V29h2v-3.101A5.003 5.003 0 0 0 25.899 22H29v-2z" fill="#00A99D"/><path d="M24 21a3 3 0 1 1-6 0 3 3 0 0 1 6 0z" fill="#FFF"/></g></svg>