<svg ti:v="1" width="32" height="32" viewBox="0 0 32 32" xmlns="http://www.w3.org/2000/svg" xmlns:ti="urn:schemas-jetbrains-com:tisvg"><rect id="frame" width="32" height="32" fill="none"/><g fill-rule="evenodd"><path d="M19 30h-6V2h6v28z" fill="#F4F4F4"/><path d="M2 13h28v6H2v-6z" fill="#F4F4F4"/><path d="M27 16c0 6.075-4.925 11-11 11S5 22.075 5 16 9.925 5 16 5s11 4.925 11 11z" fill="#F4F4F4"/><path d="M16 7a9 9 0 0 0-9 9 9 9 0 0 0 9 9 9 9 0 0 0 9-9 9 9 0 0 0-9-9z" fill="#00A99D"/><path d="M17 4h-2v3h2V4z" fill="#00A99D"/><path d="M15 28h2v-3h-2v3z" fill="#00A99D"/><path d="M25 15v2h3v-2h-3z" fill="#00A99D"/><path d="M4 15v2h3v-2H4z" fill="#00A99D"/><path d="M23 16a7 7 0 1 1-14 0 7 7 0 0 1 14 0z" fill="#FFF"/><path d="M21 16a5 5 0 1 1-10.001-.001A5 5 0 0 1 21 16z" fill="#00A99D"/><path d="M19 16a3 3 0 1 1-6 0 3 3 0 0 1 6 0z" fill="#FFF"/></g></svg>