<svg ti:v="1" width="32" height="32" viewBox="0 0 32 32" xmlns="http://www.w3.org/2000/svg" xmlns:ti="urn:schemas-jetbrains-com:tisvg"><rect id="frame" width="32" height="32" fill="none"/><g fill-rule="evenodd"><path d="M22 26V10H2v16h3v3h14v-3h3z" fill="#F4F4F4"/><path d="M20 24V12H4v12h7v1H7v2h10v-2h-4v-1h7z" fill="#313131"/><path d="M18 22H6v-8h12v8z" fill="#FFF"/><path d="M30 18V2H10v16h3v3h14v-3h3z" fill="#F4F4F4"/><path d="M28 16V4H12v12h7v1h-4v2h10v-2h-4v-1h7z" fill="#313131"/><path d="M26 14H14V6h12v8z" fill="#FFF"/></g></svg>