<svg ti:v="1" width="19" height="19" viewBox="0 0 19 19" xmlns="http://www.w3.org/2000/svg" xmlns:ti="urn:schemas-jetbrains-com:tisvg"><rect id="frame" width="19" height="19" fill="none"/><g fill-rule="evenodd"><path d="M19 19H0V0h19v19z" fill="#C75050"/><path d="M18 18H1V1h17v17z" fill="#FFCA01"/><path d="M11.975 12.182l3.536-3.536a1.002 1.002 0 0 0 0-1.414l-2.122-2.121a1 1 0 0 0-1.414 0l-1.414 1.414-2.122 2.121c-.465.516-.582.749 0 1.415l-.707.707c-.707-.707-1.026-1.83 0-2.829l2.122-2.121 1.414-1.414a2.005 2.005 0 0 1 2.828 0l.707.707.708.707.707.707a2.008 2.008 0 0 1 0 2.829l-3.536 3.535c-.965.965-2.121.707-2.828 0l.707-.707c.499.449 1.025.389 1.414 0z" fill="#313131"/><path d="M2.782 8.647l3.536-3.536a2.007 2.007 0 0 1 2.828 0l-.707.708a1 1 0 0 0-1.414 0L3.489 9.354a1.002 1.002 0 0 0 0 1.414L5.61 12.89c.391.39 1.025.389 1.415 0l2.121-2.122 1.414-1.414a1 1 0 0 0 0-1.414l.707-.707a2.005 2.005 0 0 1 0 2.828l-1.414 1.414-2.121 2.122a2.008 2.008 0 0 1-2.829 0l-.707-.707-.707-.707-.707-.708a2.005 2.005 0 0 1 0-2.828z" fill="#313131"/></g></svg>