<svg ti:v="1" width="32" height="32" viewBox="0 0 32 32" xmlns="http://www.w3.org/2000/svg" xmlns:ti="urn:schemas-jetbrains-com:tisvg"><rect id="frame" width="32" height="32" fill="none"/><g fill-rule="evenodd"><path d="M2 24V5.25c0-.875 14 .695 14 2.625V28s-3.459-4.241-14-4z" fill="#F4F4F4"/><path d="M30 24V5.25c0-.984-14 .695-14 2.625V28s3.459-4.241 14-4z" fill="#F4F4F4"/><path d="M4 22.75V7c0-.583 12 .936 12 2.625V26.25s-3-3.711-12-3.5z" fill="#D39A0B"/><path d="M28 22.75V7c0-.875-12 .936-12 2.625V26.25s3-3.711 12-3.5z" fill="#D39A0B"/><path d="M6 21V9c0-.629 9 1.088 9 2.375V23s-1-2.161-9-2z" fill="#FFF"/><path d="M26 21V9c0-.738-9 1.088-9 2.375V23s2-2.161 9-2z" fill="#FFF"/></g></svg>