<svg ti:v="1" width="32" height="32" viewBox="0 0 32 32" xmlns="http://www.w3.org/2000/svg" xmlns:ti="urn:schemas-jetbrains-com:tisvg"><rect id="frame" width="32" height="32" fill="none"/><g fill-rule="evenodd"><path d="M25 23H2V2h23v21z" fill="#F4F4F4"/><path d="M23 21H4V4h19v17z" fill="#6BADF6"/><path d="M21 19H6V9h15v10z" fill="#FFF"/><path d="M19 8h2V6h-2v2z" fill="#FFF"/><path d="M21 13h4s1 0 1 1c0 1.039 1 1 1 1h1s2 .117 2 2v11s0 2-2 2H11s-2-.031-2-2V17s.047-2 2-2h5s1 0 1-1c0-.718.412-1 1-1h3z" fill="#F4F4F4"/><path d="M11 19s-.359-2 1.989-2H18c.979 0 .979-2 2-2h3c1 0 1.021 2 2 2h1s2 .021 2 2v7s-.104 2-2 2H12.989S11 28 11 26v-7z" fill="#313131"/><path d="M24.312 21.633a2.57 2.57 0 1 1-5.14 0 2.57 2.57 0 0 1 5.14 0z" fill="#FFF"/><path d="M16 8h2V6h-2v2z" fill="#FFF"/><path d="M13 8h2V6h-2v2z" fill="#FFF"/></g></svg>