<svg ti:v="1" width="32" height="32" viewBox="0 0 32 32" xmlns="http://www.w3.org/2000/svg" xmlns:ti="urn:schemas-jetbrains-com:tisvg"><rect id="frame" width="32" height="32" fill="none"/><g fill-rule="evenodd"><path d="M8.446 28c-.785 0-1.955-.236-3.078-1.359-2.309-2.307-1.265-5.029 0-6.293l5.359-5.36a9.017 9.017 0 0 1-.369-2.552c0-5.082 4.134-9.216 9.215-9.216a9.15 9.15 0 0 1 3.782.825l2.432 1.098-5.45 5.449 1.08 1.08 5.45-5.45 1.096 2.43a9.135 9.135 0 0 1 .826 3.784c0 5.081-4.134 9.216-9.216 9.216a9.013 9.013 0 0 1-2.554-.371l-5.358 5.36C11.434 26.868 10.212 28 8.446 28z" fill="#F4F4F4"/><path d="M26.284 9.412l-4.867 4.867-3.686-3.686 4.867-4.867a7.317 7.317 0 0 0-3.024-.663 7.373 7.373 0 0 0-7.373 7.373c0 1.08.245 2.099.662 3.024l-6.191 6.192s-1.844 1.843 0 3.686c1.843 1.843 3.686 0 3.686 0l6.192-6.192a7.317 7.317 0 0 0 3.024.663 7.373 7.373 0 0 0 7.372-7.373c0-1.08-.244-2.099-.662-3.024z" fill="#D39A0B"/></g></svg>