<svg ti:v="1" width="32" height="32" viewBox="0 0 32 32" xmlns="http://www.w3.org/2000/svg" xmlns:ti="urn:schemas-jetbrains-com:tisvg"><rect id="frame" width="32" height="32" fill="none"/><g fill-rule="evenodd"><path d="M13.937 26c-.431 0-.883-.028-1.379-.085l-.93-.105-1.19-3.353-3.213 1.524-.732-.578a11.996 11.996 0 0 1-1.956-1.957l-.581-.733 1.525-3.21-3.354-1.193-.105-.929A12.29 12.29 0 0 1 1.938 14c0-.432.028-.883.084-1.381l.105-.929 3.354-1.192-1.525-3.211.58-.733a12.076 12.076 0 0 1 1.957-1.957l.732-.578 3.214 1.525 1.19-3.354.93-.105c.495-.057.947-.085 1.378-.085.435 0 .888.028 1.384.085l.929.108 1.189 3.352 3.211-1.526.732.58a11.93 11.93 0 0 1 1.958 1.958l.579.731-1.525 3.21 3.353 1.192.105.929c.057.498.085.949.085 1.381 0 .432-.028.883-.085 1.381l-.105.929-3.353 1.193 1.525 3.209-.579.732a12.054 12.054 0 0 1-1.958 1.959l-.732.578-3.211-1.524-1.19 3.35-.928.108c-.496.057-.949.085-1.384.085z" fill="#F4F4F4"/><path d="M18.437 14a4.5 4.5 0 1 1-9 0 4.5 4.5 0 0 1 9 0z" fill="#FFF"/><path d="M13.937 18.35A4.35 4.35 0 0 1 9.587 14a4.35 4.35 0 1 1 8.7 0 4.35 4.35 0 0 1-4.35 4.35zm10.078-3.179c.044-.385.072-.775.072-1.171s-.028-.786-.072-1.17l-3.243-1.154a7.2 7.2 0 0 0-.357-.871l1.474-3.101a10.082 10.082 0 0 0-1.655-1.655l-3.102 1.474a7.135 7.135 0 0 0-.871-.357l-1.153-3.242a9.856 9.856 0 0 0-1.171-.074c-.395 0-.785.028-1.168.072l-1.152 3.243a7.021 7.021 0 0 0-.872.357L7.64 6.048a10.213 10.213 0 0 0-1.655 1.656l1.474 3.101a7.2 7.2 0 0 0-.357.871L3.859 12.83c-.043.384-.072.774-.072 1.17 0 .396.029.786.072 1.171l3.244 1.153c.101.3.217.59.357.871l-1.474 3.102c.486.613 1.042 1.17 1.655 1.655l3.104-1.474c.28.14.572.255.872.359l1.152 3.241c.383.044.773.072 1.168.072.396 0 .786-.028 1.171-.072l1.153-3.243c.3-.102.59-.218.871-.357l3.102 1.474a10.088 10.088 0 0 0 1.655-1.656l-1.474-3.101c.139-.281.255-.571.357-.871l3.243-1.153z" fill="#313131"/><path d="M18.719 11v19h1.844l10-9.875-10-9.125h-1.844z" fill="#F4F4F4"/><path d="M20.333 13v15l8-7.833-8-7.167z" fill="#00A99D"/></g></svg>