<svg ti:v="1" width="16" height="16" viewBox="0 0 16 16" xmlns="http://www.w3.org/2000/svg" xmlns:ti="urn:schemas-jetbrains-com:tisvg"><rect id="frame" width="16" height="16" fill="none"/><g fill-rule="evenodd"><path d="M0 11.586V16h4.414l9.793-9.793-4.414-4.414L0 11.586z" fill="#FBFBFB"/><path d="M11.293.293l-1.5 1.5 4.414 4.414 1.5-1.5a.999.999 0 0 0 0-1.414l-3-3a.999.999 0 0 0-1.414 0z" fill="#FBFBFB"/><path d="M15 4l-1 1-3-3 1-1 3 3z" fill="#E4E3E3"/><path d="M1 15h3l-3-3m9-9l-8 8 3 3 8-8-3-3z" fill="#E4E3E3"/><path d="M10 4l-7 7h1l6-6V4z" fill="#FBFBFB"/></g></svg>