<svg ti:v="1" width="32" height="32" viewBox="0 0 32 32" xmlns="http://www.w3.org/2000/svg" xmlns:ti="urn:schemas-jetbrains-com:tisvg"><rect id="frame" width="32" height="32" fill="none"/><path d="M0 13.328L5 27h25V3h-9.387l-4 2H5.441v6h-4L0 13.328z" fill="#F4F4F4"/><path d="M21 5l-4 2H7v6H3l4 12h21V5h-7z" fill="#6BADF6"/><path d="M24 13H9V9h9l4-2h4v12l-2-6z" fill="#FFF"/><path d="M6 19h26v11H6z" fill="#323232"/><path d="M8 26.523a.533.533 0 0 1 .54-.567.568.568 0 1 1-.54.567zm0 0" fill="#FFF"/><path d="M10.052 20.6h.792v2.718h.018c.134-.235.33-.428.567-.558.246-.145.525-.222.81-.225.586 0 1.522.36 1.522 1.863v2.593h-.792v-2.503c0-.702-.261-1.296-1.009-1.296a1.138 1.138 0 0 0-1.062.792.96.96 0 0 0-.054.378v2.63h-.792zm0 0" fill="#FFF"/><path d="M15.047 24.057c0-.559-.018-1.01-.036-1.423h.711l.036.747h.018a1.713 1.713 0 0 1 1.549-.846 1.974 1.974 0 0 1 1.845 2.215 2.062 2.062 0 0 1-1.98 2.34 1.529 1.529 0 0 1-1.342-.684h-.018v2.367h-.783zm.783 1.16c.002.11.014.218.036.325a1.223 1.223 0 0 0 1.189.927c.837 0 1.323-.684 1.323-1.684 0-.873-.46-1.62-1.296-1.62a1.374 1.374 0 0 0-1.252 1.306zm0 0" fill="#FFF"/><path d="M20.167 23.993c0-.513-.009-.954-.036-1.36h.694l.027.856h.036a1.308 1.308 0 0 1 1.206-.954.88.88 0 0 1 .225.027v.748a1.16 1.16 0 0 0-.27-.028 1.111 1.111 0 0 0-1.062 1.018 2.208 2.208 0 0 0-.036.369v2.322h-.784zm0 0" fill="#FFF"/><path d="M26.964 24.776a2.13 2.13 0 0 1-2.17 2.314 2.072 2.072 0 0 1-2.088-2.241 2.128 2.128 0 0 1 2.16-2.314 2.064 2.064 0 0 1 2.098 2.241zm-3.457.045c0 .954.549 1.675 1.323 1.675.756 0 1.323-.71 1.323-1.692 0-.739-.369-1.675-1.305-1.675-.936 0-1.341.864-1.341 1.692zm0 0" fill="#FFF"/><path d="M28.042 26.991v-3.754h-.612v-.603h.612v-.207a2.055 2.055 0 0 1 .504-1.522c.289-.267.67-.413 1.063-.405.23 0 .46.042.675.126l-.108.612a1.19 1.19 0 0 0-.504-.098c-.675 0-.846.593-.846 1.26v.234h1.053v.603h-1.053v3.754zm0 0" fill="#FFF"/></svg>