<svg ti:v="1" width="32" height="32" viewBox="0 0 32 32" xmlns="http://www.w3.org/2000/svg" xmlns:ti="urn:schemas-jetbrains-com:tisvg"><rect id="frame" width="32" height="32" fill="none"/><path d="M0 13.328L5 27h25V3h-9.387l-4 2H5.441v6h-4L0 13.328z" fill="#F4F4F4"/><path d="M21 5l-4 2H7v6H3l4 12h21V5h-7z" fill="#6BADF6"/><path d="M24 13H9V9h9l4-2h4v12l-2-6z" fill="#FFF"/><path d="M6 19h26v11H6z" fill="#323232"/><path d="M9.319 26.49a.533.533 0 0 1 .54-.568.568.568 0 1 1-.54.568zm0 0" fill="#FFF"/><path d="M15.134 20.566v5.266c0 .387.009.829.036 1.125h-.711l-.036-.755h-.018a1.612 1.612 0 0 1-1.486.854 1.986 1.986 0 0 1-1.863-2.214 2.084 2.084 0 0 1 1.953-2.34 1.455 1.455 0 0 1 1.314.665h.019v-2.601zm-.793 3.807a1.41 1.41 0 0 0-.035-.333 1.166 1.166 0 0 0-1.144-.918c-.819 0-1.305.72-1.305 1.684 0 .882.432 1.611 1.287 1.611a1.192 1.192 0 0 0 1.162-.945c.026-.112.038-.227.036-.342zm0 0" fill="#FFF"/><path d="M16.447 23.78c0-.45-.01-.82-.036-1.18h.693l.036.702h.027a1.501 1.501 0 0 1 1.368-.8 1.287 1.287 0 0 1 1.234.872h.018c.12-.22.286-.414.486-.567.276-.211.617-.32.964-.306.576 0 1.43.378 1.43 1.89v2.566h-.773v-2.466c0-.837-.306-1.342-.946-1.342a1.027 1.027 0 0 0-.936.72 1.303 1.303 0 0 0-.063.397v2.691h-.774v-2.61c0-.693-.306-1.198-.91-1.198a1.182 1.182 0 0 0-1.044 1.18v2.628h-.774zm0 0" fill="#FFF"/><path d="M23.953 24.023c0-.559-.018-1.009-.036-1.423h.711l.036.747h.018a1.713 1.713 0 0 1 1.549-.846 1.974 1.974 0 0 1 1.845 2.215 2.062 2.062 0 0 1-1.98 2.34 1.529 1.529 0 0 1-1.342-.684h-.018v2.368h-.783zm.783 1.161c.002.109.014.217.036.324a1.222 1.222 0 0 0 1.188.927c.838 0 1.324-.684 1.324-1.684 0-.873-.46-1.62-1.297-1.62a1.374 1.374 0 0 0-1.251 1.306zm0 0" fill="#FFF"/></svg>