<svg ti:v="1" width="16" height="16" viewBox="0 0 16 16" xmlns="http://www.w3.org/2000/svg" xmlns:ti="urn:schemas-jetbrains-com:tisvg"><rect id="frame" width="16" height="16" fill="none"/><g fill-rule="evenodd"><path d="M1 15V1h7.414L13 5.586V15H1z" fill="#FBFBFB"/><path d="M8 2H2v12h10V6L8 2z" fill="#E4E3E3"/><path d="M10 12H4V4h4v2h2v6z" fill="#FBFBFB"/><path d="M9.586 0L7 2.586V4h1.586l-3 3L8 9.414l3-3V8h1.414L15 5.414V0H9.586z" fill="#FBFBFB"/><path d="M12 7V4L8 8 7 7l4-4H8l2-2h4v4l-2 2z" fill="#E4E3E3"/></g></svg>