<svg ti:v="1" width="19" height="19" viewBox="0 0 19 19" xmlns="http://www.w3.org/2000/svg" xmlns:ti="urn:schemas-jetbrains-com:tisvg"><rect id="frame" width="19" height="19" fill="none"/><g fill-rule="evenodd"><path d="M19 9.5A9.5 9.5 0 0 1 9.5 19 9.5 9.5 0 0 1 0 9.5 9.5 9.5 0 0 1 9.5 0 9.5 9.5 0 0 1 19 9.5z" fill="#5183BB"/><path d="M18 9.5A8.5 8.5 0 1 1 .999 9.499 8.5 8.5 0 0 1 18 9.5z" fill="#FFF"/><path d="M3 10h3V9H3v1z" fill="#5183BB"/><path d="M9 8h5v1H9m-1 3h7V7H8V5H7v9h1v-2z" fill="#5183BB"/></g></svg>