<svg xmlns="http://www.w3.org/2000/svg" width="16" height="16" viewBox="0 0 16 16"><rect id="frame" width="16" height="16" fill="none"/><g fill="none" fill-rule="evenodd"><path fill="#7CC1FD" d="M9.841 14.587L11.255 16h3.334l-.027-1.437z"/><path fill="#7CC1FD" d="M9.9 9.9l-.544-.544.004 3.942c.003.426-.027.78.19.996l.29.292 4.722-.024L9.9 9.901"/><path fill="#5070A8" d="M9.36 13.298l-.004-3.942-1.247 2.601c-.145.31-.207.69.219 1.115l1.221 1.222c-.216-.217-.187-.57-.19-.996m5.227-3.456l-.292-.293c-.216-.217-.57-.187-.996-.19l-3.942-.003.545.545 4.661 4.662 1.438.026v-3.334l-1.414-1.413z"/><path fill="#7CC1FD" d="M13.298 9.36l-3.942-.004 2.601-1.247c.31-.146.69-.207 1.115.218l1.222 1.222c-.216-.216-.57-.187-.996-.19"/><path fill="#9AA7B0" fill-opacity=".8" d="M14 8h1V1H5v4h1V3h8z"/><path fill="#231F20" fill-opacity=".7" d="M12 6.504L9 4v2H3v3h1V7l5-.003V9z"/><path fill="#9AA7B0" fill-opacity=".8" d="M7 13H2V5h2V3H1v11h7z"/></g></svg>