<svg xmlns="http://www.w3.org/2000/svg" width="16" height="16" viewBox="0 0 16 16"><rect id="frame" width="16" height="16" fill="none"/><g fill="none" fill-rule="evenodd" opacity=".9"><path fill="#70B4F4" d="M4.325 4.326l-.952-.953.006 6.898c.006.746-.046 1.365.333 1.743l.51.512 8.261-.042-8.158-8.158"/><path fill="#7CC1FD" d="M4.222 12.526L6.696 15h5.834l-.046-2.516z"/><path fill="#5070A8" d="M3.38 10.271l-.007-6.898-2.182 4.553c-.255.543-.363 1.207.382 1.95l2.138 2.139c-.379-.38-.327-.998-.332-1.744m9.147-6.048l-.511-.512c-.38-.38-.997-.327-1.743-.332l-6.898-.006.953.954 8.157 8.158L15 12.53V6.697l-2.475-2.474z"/><path fill="#7CC1FD" d="M10.27 3.379l-6.896-.006 4.55-2.182c.545-.255 1.209-.362 1.953.382l2.138 2.138c-.38-.38-.998-.327-1.744-.332"/></g></svg>