<svg width="16" height="16" viewBox="0 0 16 16" fill="none" xmlns="http://www.w3.org/2000/svg"><rect id="frame" width="16" height="16" fill="none"/><path opacity=".9" fill-rule="evenodd" clip-rule="evenodd" d="M3.38 10.271l-.007-6.898-2.182 4.553c-.255.543-.363 1.207.382 1.95l2.138 2.139c-.379-.38-.327-.998-.332-1.744" fill="#5070A8"/><path opacity=".9" fill-rule="evenodd" clip-rule="evenodd" d="M10.27 3.379l-6.896-.006 4.55-2.182c.545-.255 1.209-.362 1.953.382l2.138 2.138c-.38-.38-.998-.327-1.744-.332" fill="#7CC1FD"/><path fill-rule="evenodd" clip-rule="evenodd" d="M12.5 9A3.501 3.501 0 0 0 9 12.5c0 1.932 1.568 3.5 3.5 3.5s3.5-1.568 3.5-3.5S14.432 9 12.5 9zm-.35 6.275a2.796 2.796 0 0 1-2.377-3.402l1.677 1.677v.35c0 .385.315.7.7.7v.675zm2.415-.889a.694.694 0 0 0-.665-.486h-.35v-1.05a.351.351 0 0 0-.35-.35h-2.1v-.7h.7c.192 0 .35-.158.35-.35v-.7h.7c.385 0 .7-.315.7-.7v-.143A2.802 2.802 0 0 1 15.3 12.5c0 .728-.28 1.39-.735 1.886z" fill="#9AA7B0"/><path opacity=".9" fill-rule="evenodd" clip-rule="evenodd" d="M8 12.507l-3.778.02L6.696 15h2.062A4.479 4.479 0 0 1 8 12.507z" fill="#7CC1FD"/><path opacity=".9" fill-rule="evenodd" clip-rule="evenodd" d="M3.373 3.373l.952.953 4.993 4.992A4.486 4.486 0 0 0 8 12.507l-3.779.02-.51-.513c-.334-.333-.333-.855-.331-1.485v-.258l-.007-6.898z" fill="#70B4F4"/><path opacity=".9" fill-rule="evenodd" clip-rule="evenodd" d="M12.015 3.71l.51.513 2.476 2.474v2.061A4.479 4.479 0 0 0 12.5 8a4.486 4.486 0 0 0-3.182 1.318L4.327 4.327l-.953-.954 6.898.006h.257c.63-.002 1.151-.003 1.486.332z" fill="#5070A8"/></svg>