<svg xmlns="http://www.w3.org/2000/svg" width="13" height="13" viewBox="0 0 13 13"><rect id="frame" width="13" height="13" fill="none"/><g fill="#AFB1B3" fill-rule="evenodd"><path d="M2 1.2h9V4H2z"/><path d="M6.453 4.8a4.509 4.509 0 0 0-2.118 2.8H2V4.8h4.453zm4.494 0H11v.031a4.497 4.497 0 0 0-.053-.031zM4.21 8.4a4.48 4.48 0 0 0 .748 2.8H2V8.4h2.21zm7.35 3.587l-.312.937-2.82.076-1.394-1.521V7.46l4.526 4.526zm.361-.405L7.373 7.034h4.106L13 8.429l-.076 2.819-1.003.334zm-5.43-4.629V10.6l-.348-.114L5 9.19l1.492-2.237zm4.109-.461H6.953L9.19 5l1.296 1.143.114.349z"/></g></svg>