<svg xmlns="http://www.w3.org/2000/svg" width="16" height="16" viewBox="0 0 16 16"><rect id="frame" width="16" height="16" fill="none"/><g fill="none" fill-rule="evenodd"><path fill="#9AA7B0" fill-opacity=".8" d="M7 1L3 5h4z"/><path fill="#9AA7B0" fill-opacity=".8" d="M8 1v5H3v2h10V1z"/><path fill="#62B543" fill-opacity=".7" d="M1 16h15V9H1z"/><path fill="#231F20" fill-opacity=".7" d="M3.395 13.588c.23.25.443.412.892.412.526 0 .713-.412.713-.702V10h1v3.588C6 14.32 5.327 15 4.45 15c-.821 0-1.3-.237-1.65-.68l.595-.732z"/><path fill="#231F20" fill-opacity=".7" d="M7 15v-.866l1.654-1.356c.618-.511.86-.781.86-1.193 0-.419-.278-.646-.668-.646-.383 0-.646.213-1.015.667l-.767-.617c.49-.668.966-1.03 1.853-1.03 1.03 0 1.711.604 1.711 1.534 0 .845-.426 1.256-1.306 1.938l-.71.569h2.066v1H7z"/></g></svg>