<svg xmlns="http://www.w3.org/2000/svg" width="16" height="16" viewBox="0 0 16 16">
  <g fill="none" fill-rule="evenodd">
    <polygon fill="#9AA7B0" fill-opacity=".8" points="7 1 3 5 7 5"/>
    <polygon fill="#9AA7B0" fill-opacity=".8" points="8 1 8 6 3 6 3 8 13 8 13 1"/>
    <polygon fill="#62B543" fill-opacity=".7" points="1 16 16 16 16 9 1 9"/>
    <path fill="#231F20" fill-opacity=".7" d="M1.39509277,3.58770752 C1.62440186,3.83789062 1.83782861,4 2.28682861,4 C2.81318359,4 3,3.58770752 3,3.29760742 L3,0 L4,0 L4,3.58770752 C4,4.31964111 3.32670898,5 2.45,5 C1.629,5 1.15,4.76264111 0.8,4.31964111 L1.39509277,3.58770752 Z" transform="translate(2 10)"/>
    <path fill="#231F20" fill-opacity=".7" d="M0,6 L0,5.1338 L1.6543,3.7777 C2.272,3.2665 2.5134,2.9967 2.5134,2.5849 C2.5134,2.166 2.2365,1.9388 1.846,1.9388 C1.4626,1.9388 1.1999,2.1518 0.8307,2.6062 L0.0639,1.9885 C0.5538,1.3211 1.0295,0.959 1.917,0.959 C2.9465,0.959 3.6281,1.5625 3.6281,2.4926 C3.6281,3.3375 3.2021,3.7493 2.3217,4.4309 L1.6123,5 L3.6778,5 L3.6778,6 L0,6 Z" transform="translate(7 9)"/>
  </g>
</svg>
