<svg xmlns="http://www.w3.org/2000/svg" width="16" height="16" viewBox="0 0 16 16">
  <g fill="none" fill-opacity=".7" fill-rule="evenodd">
    <path fill="#935E2D" d="M10.6773611,9.61687649 L3.37322101,2.31344463 C6.17522101,0.0574446345 9.76722101,0.862444634 12.452221,3.54844463 C14.5058346,5.6020582 15.4600171,8.18723909 14.7844212,10.5429569 L14.5798642,10.4133643 L13.296,9.6 L10.704,9.6 L10.6773611,9.61687649 Z M6.6,14.5207151 C5.52046938,14.0910249 4.47920575,13.3854294 3.54722101,12.4534446 C0.863221014,9.76944463 0.0572210138,6.17744463 2.31322101,3.37544463 L9.37789891,10.4401225 L6.6,12.2 L6.6,14.5207151 Z"/>
    <polygon fill="#231F20" points="0 3 0 2 3 0 3 1 .8 2.5 3 4 3 5" transform="translate(8 11)"/>
    <polygon fill="#231F20" points="0 4 2.2 2.5 0 1 0 0 3 2 3 3 0 5" transform="translate(13 11)"/>
  </g>
</svg>
