<svg xmlns="http://www.w3.org/2000/svg" width="16" height="16" viewBox="0 0 16 16"><rect id="frame" width="16" height="16" fill="none"/><g fill="none" fill-rule="evenodd"><path fill="#935E2D" fill-opacity=".7" d="M8.955 7.887L3.39 2.323C6.212.05 9.83.86 12.535 3.567c1.378 1.378 2.265 2.994 2.501 4.622A4.98 4.98 0 0 0 11.8 7a4.977 4.977 0 0 0-2.845.887zm-1.182 7.077c-1.486-.317-2.946-1.167-4.207-2.428C.862 9.833.05 6.215 2.323 3.393l5.533 5.533A4.978 4.978 0 0 0 6.8 12c0 1.11.361 2.134.973 2.964z"/><path fill="#9AA7B0" d="M14.704 12.579l.91.653a3.996 3.996 0 0 1-.835 1.445l-1.02-.46a2.95 2.95 0 0 1-1.006.582l-.111 1.114a4.016 4.016 0 0 1-1.67 0l-.111-1.114a2.95 2.95 0 0 1-1.006-.582l-1.02.46A3.996 3.996 0 0 1 8 13.232l.91-.653a2.968 2.968 0 0 1 0-1.158L8 10.768a3.996 3.996 0 0 1 .835-1.445l1.02.46a2.95 2.95 0 0 1 1.006-.582l.11-1.114a4.016 4.016 0 0 1 1.67 0l.112 1.114a2.95 2.95 0 0 1 1.006.582l1.02-.46c.372.413.66.904.835 1.445l-.91.653a2.968 2.968 0 0 1 0 1.158zm-2.897.837a1.415 1.415 0 1 0 0-2.831 1.415 1.415 0 0 0 0 2.83z"/></g></svg>