<svg xmlns="http://www.w3.org/2000/svg" width="16" height="16" viewBox="0 0 16 16"><rect id="frame" width="16" height="16" fill="none"/><g fill="none" fill-opacity=".7" fill-rule="evenodd"><path fill="#935E2D" d="M10.677 9.617L3.373 2.313C6.175.057 9.767.863 12.453 3.548c2.053 2.054 3.007 4.64 2.331 6.995l-.204-.13-1.284-.813h-2.592l-.027.017zM6.6 14.52c-1.08-.43-2.12-1.136-3.053-2.068C.863 9.77.057 6.177 2.313 3.375l7.065 7.065L6.6 12.2v2.32z"/><path fill="#231F20" d="M8 14v-1l3-2v1l-2.2 1.5L11 15v1z"/><path fill="#231F20" d="M13 15l2.2-1.5L13 12v-1l3 2v1l-3 2z"/></g></svg>