<svg xmlns="http://www.w3.org/2000/svg" width="16" height="16" viewBox="0 0 16 16">
  <g fill="none" fill-rule="evenodd">
    <path fill="#F4AF3D" fill-opacity=".6" d="M14.4063763 10.8254153L14.3887632 10.8133643 13.2 10 10.8 10 7 12.6 7 14.9291115C3.607701 14.4438834 1 11.5264786 1 8 1 4.134 4.134 1 8 1 11.866 1 15 4.134 15 8 15 9.00539366 14.7880431 9.96128111 14.4063763 10.8254153zM12.9496833 12.9498167C12.4601914 13.4392955 11.8985447 13.8566181 11.2820666 14.1844611L10.099512 13.5 12 12.4 12.9496833 12.9498167z"/>
    <path fill="#231F20" fill-opacity=".7" d="M1,8 L2,8 L2,4 L3.5,4 L3.5,3 L2,3 C1.99687783,2.36169171 1.99509925,2.02835838 1.99466424,2 C1.98704681,1.50341351 2.13289549,1.0728225 2.43221029,0.972167969 C2.91964141,0.808253079 3.56884985,1.02114795 3.68984985,1.06414795 L3.98519897,0.226043701 C3.90948298,0.198825534 3.4559021,0 2.81140137,0 C2.16690063,1.40512602e-16 1.81677246,0.0614013672 1.4818929,0.388793945 C1.16513106,0.698473875 1.01614114,1.22015248 1.00124609,2 C1.00039414,2.04460465 0.999980878,2.95274463 1,3 C1.00000736,3.01819872 0.666674031,3.01819872 0,3 L0,3.972 L1,3.972 L1,8 Z" transform="translate(6 4)"/>
    <polygon fill="#9AA7B0" points="0 3 0 2 3 0 3 1 .8 2.5 3 4 3 5" transform="translate(8 11)"/>
    <polygon fill="#9AA7B0" points="0 4 2.2 2.5 0 1 0 0 3 2 3 3 0 5" transform="translate(13 11)"/>
  </g>
</svg>
