<svg xmlns="http://www.w3.org/2000/svg" width="16" height="16" viewBox="0 0 16 16"><rect id="frame" width="16" height="16" fill="none"/><g fill="none" fill-rule="evenodd"><path fill="#F4AF3D" fill-opacity=".6" d="M14.406 10.825l-.017-.012L13.2 10h-2.4L7 12.6v2.33A7.002 7.002 0 0 1 8 1a7 7 0 0 1 6.406 9.825zM12.95 12.95c-.49.49-1.051.907-1.668 1.234L10.1 13.5l1.9-1.1.95.55z"/><path fill="#231F20" fill-opacity=".7" d="M7 12h1V8h1.5V7H8l-.005-1c-.008-.497.138-.927.437-1.028.488-.164 1.137.05 1.258.092l.295-.838C9.91 4.199 9.455 4 8.811 4c-.644 0-.994.061-1.33.389-.316.31-.465.831-.48 1.611L7 7c0 .018-.333.018-1 0v.972h1V12z"/><path fill="#231F20" fill-opacity=".7" d="M8 14v-1l3-2v1l-2.2 1.5L11 15v1z"/><path fill="#231F20" fill-opacity=".7" d="M13 15l2.2-1.5L13 12v-1l3 2v1l-3 2z"/></g></svg>