<svg xmlns="http://www.w3.org/2000/svg" width="16" height="16" viewBox="0 0 16 16"><rect id="frame" width="16" height="16" fill="none"/><g fill="none" fill-rule="evenodd"><path fill="#F98B9E" fill-opacity=".6" d="M14.406 10.825l-.017-.012L13.2 10h-2.4L7 12.6v2.33A7.002 7.002 0 0 1 8 1a7 7 0 0 1 6.406 9.825zM12.95 12.95c-.49.49-1.051.907-1.668 1.234L10.1 13.5l1.9-1.1.95.55z"/><path fill="#9AA7B0" d="M8 14v-1l3-2v1l-2.2 1.5L11 15v1z"/><path fill="#9AA7B0" d="M13 15l2.2-1.5L13 12v-1l3 2v1l-3 2z"/><path fill="#231F20" fill-opacity=".7" d="M11.996 10h-.991v-.222V8c0-.26 0-1-1.023-1S9 7.686 9 8v3H8V8c-.001-.463-.05-1-1-1s-.95.766-1 1c-.033.156-.033 1.156 0 3H5V6h1v.3c.265-.2.632-.3 1.1-.3.844 0 1.184.194 1.499.6.059-.098.513-.6 1.383-.6 1.653 0 2.01 1.251 2.01 2l.004 2z"/></g></svg>