<svg xmlns="http://www.w3.org/2000/svg" width="16" height="16" viewBox="0 0 16 16">
  <g fill="none" fill-rule="evenodd">
    <path fill="#F98B9E" fill-opacity=".6" d="M14.4063763 10.8254153L14.3887632 10.8133643 13.2 10 10.8 10 7 12.6 7 14.9291115C3.607701 14.4438834 1 11.5264786 1 8 1 4.134 4.134 1 8 1 11.866 1 15 4.134 15 8 15 9.00539366 14.7880431 9.96128111 14.4063763 10.8254153zM12.9496833 12.9498167C12.4601914 13.4392955 11.8985447 13.8566181 11.2820666 14.1844611L10.099512 13.5 12 12.4 12.9496833 12.9498167z"/>
    <polygon fill="#231F20" fill-opacity=".7" points="8 14 8 13 11 11 11 12 8.8 13.5 11 15 11 16"/>
    <polygon fill="#231F20" fill-opacity=".7" points="13 15 15.2 13.5 13 12 13 11 16 13 16 14 13 16"/>
    <path fill="#231F20" fill-opacity=".7" d="M6.99609138,4 L6.3,4 L6.12911224,4.1169232 C6.12911224,3.98716296 6.12911224,3.87433602 6.12911224,3.77844238 C6.12911224,3.38323296 6.12911224,2.79041884 6.12911224,2 C6.12862015,1.73961181 5.95361978,1 5.0589245,1 C4.16422922,1 3.9375,1.686 3.9375,2 L3.9375,5.0003 L3.0625,5.0003 L3.0625,2 C3.061625,1.537 2.75625,1 1.925,1 C1.09375,1 0.91875,1.7657 0.875,2 C0.845833333,2.1562 0.845833333,3.1563 0.875,5.0003 L0,5.0003 L0,0.0003 L0.875,0.0003 L0.875,0.399231 C1.28211568,0.133277 1.69044902,0.0003 2.1,0.0003 C2.74166667,0.0003 3.23709167,0.201595671 3.586275,0.604187012 C3.93542541,0.201595671 4.45547524,0.0003 5.1464245,0.0003 C6.56116486,0.0003 6.9923,1.251 6.993175,2 L6.99609138,4 Z" transform="translate(4.5 6)"/>
  </g>
</svg>
