<svg xmlns="http://www.w3.org/2000/svg" width="16" height="16" viewBox="0 0 16 16"><rect id="frame" width="16" height="16" fill="none"/><g fill="none" fill-rule="evenodd"><path fill="#F98B9E" fill-opacity=".6" d="M14.406 10.825l-.017-.012L13.2 10h-2.4L7 12.6v2.33A7.002 7.002 0 0 1 8 1a7 7 0 0 1 6.406 9.825zM12.95 12.95c-.49.49-1.051.907-1.668 1.234L10.1 13.5l1.9-1.1.95.55z"/><path fill="#231F20" fill-opacity=".7" d="M8 14v-1l3-2v1l-2.2 1.5L11 15v1z"/><path fill="#231F20" fill-opacity=".7" d="M13 15l2.2-1.5L13 12v-1l3 2v1l-3 2z"/><path fill="#231F20" fill-opacity=".7" d="M11.496 10H10.8l-.17.117v-.339V8c-.001-.26-.176-1-1.071-1s-1.121.686-1.121 1v3h-.876V8c0-.463-.306-1-1.137-1s-1.006.766-1.05 1c-.03.156-.03 1.156 0 3H4.5V6h.875v.4C5.782 6.132 6.19 6 6.6 6c.642 0 1.137.202 1.486.604.35-.402.87-.604 1.56-.604 1.415 0 1.846 1.251 1.847 2l.003 2z"/></g></svg>