<svg xmlns="http://www.w3.org/2000/svg" width="16" height="16" viewBox="0 0 16 16"><rect id="frame" width="16" height="16" fill="none"/><g fill="none" fill-rule="evenodd"><path fill="#62B543" fill-opacity=".6" d="M14.93 9H14V7h-4v2H7v5.93A7.002 7.002 0 0 1 8 1a7 7 0 0 1 6.93 8z"/><path fill="#231F20" fill-opacity=".7" d="M7.628 6.761c-.155.09-.283.213-.382.363a1.569 1.569 0 0 0-.207.502c-.042.183-.063.37-.063.558 0 .24.06.512.178.816h1.32a.564.564 0 0 0 .06-.08c.072-.127.13-.28.167-.456.038-.17.063-.363.072-.57l.07-1.195-.043-.01a2.4 2.4 0 0 0-.598-.067c-.224 0-.416.046-.574.14zM11.97 7h-.946c-.3-2.116-2.344-2.255-2.707-2.255-.545 0-3.372.106-3.372 3.256 0 .517 0 2.67 2.056 3.15v.79c-1.2-.181-2.998-.92-2.998-3.94 0-4 3.665-4 4.314-4 .316 0 3.315.076 3.653 2.999zM7 9.896C6.457 9.72 6 9.25 6 8c0-1.68 1.456-2 2-2 .153 0 1.745.055 1.824.08l-.08 2.108c-.026.365.01.636.109.812H7v.896z"/><path fill="#40B6E0" d="M14 10h2v6h-2z"/><path fill="#9AA7B0" d="M11 8h2v8h-2z"/><path fill="#62B543" d="M8 10h2v6H8z"/></g></svg>