<svg xmlns="http://www.w3.org/2000/svg" width="16" height="16" viewBox="0 0 16 16"><rect id="frame" width="16" height="16" fill="none"/><g fill="none" fill-rule="evenodd"><path fill="#935E2D" fill-opacity=".7" d="M15.194 9.001h-1v-2h-4v1.936L7.862 6.605v.002L3.567 2.313C6.37.057 9.962.863 12.647 3.548c1.612 1.613 2.547 3.554 2.547 5.453zM6.8 7.668l-2.819 2.818-2.74-2.739c-.19-1.514.189-3.033 1.267-4.372L6.8 7.668z"/><path fill="#40B6E0" d="M14.194 10h2v6h-2z"/><path fill="#9AA7B0" d="M11.194 8h2v8h-2z"/><path fill="#62B543" d="M10.194 12v3.912h-2v-1.906z"/><path fill="#62B543" d="M3.792 16.053l5.96-5.96-1.625-1.626-4.335 4.335-2.167-2.168-1.626 1.626z"/></g></svg>