<svg width="48" height="48" viewBox="0 0 48 48" fill="none" xmlns="http://www.w3.org/2000/svg">
<path d="M36.6999 48L47.9999 18.05L28.5 13.5L36.6999 48Z" fill="#087CFA"/>
<path d="M47.8499 38.5L36.7 48L20.7 43.9L32.5 36.5L47.8499 38.5Z" fill="url(#paint0_linear)"/>
<path d="M6.0001 22L0.850098 7.4L26.3501 0L18.5 14L6.0001 22Z" fill="url(#paint1_linear)"/>
<path d="M41.9 27.8L34.75 15.6L34.85 15.5L26.35 0L0 28.45V48L47.85 38.5L41.9 27.8Z" fill="url(#paint2_linear)"/>
<path d="M39 9H9V39H39V9Z" fill="url(#paint3_linear)"/>
<path d="M23.25 34H12V35.9286H23.25V34Z" fill="white"/>
<path d="M16.75 12.75H19L23.8 23.89H21.25L20.25 21.4144H15.5L14.5 23.89H12L16.75 12.75ZM19.3 19.236L17.8 15.6216L16.3 19.236H19.3Z" fill="white"/>
<path d="M23.6 18.3215C23.6 15.1072 25.9571 12.5358 29.4928 12.5358C31.6357 12.5358 32.9214 13.2858 33.8857 14.2501L32.2785 16.0715C31.4214 15.3215 30.5643 14.7858 29.3857 14.7858C27.4571 14.7858 26.1714 16.3929 26.1714 18.3215C26.1714 20.2501 27.4571 21.8572 29.3857 21.8572C30.6714 21.8572 31.4214 21.3215 32.2785 20.5715L33.8857 22.1786C32.7071 23.4643 31.4214 24.2143 29.2785 24.2143C26.0643 24.1072 23.6 21.5358 23.6 18.3215Z" fill="white"/>
<defs>
<linearGradient id="paint0_linear" x1="20.723" y1="43.2511" x2="47.8604" y2="43.2511" gradientUnits="userSpaceOnUse">
<stop offset="0.1935" stop-color="#07C3F2"/>
<stop offset="0.9032" stop-color="#087CFA"/>
</linearGradient>
<linearGradient id="paint1_linear" x1="0.873598" y1="10.9958" x2="26.3382" y2="10.9958" gradientUnits="userSpaceOnUse">
<stop offset="0.1935" stop-color="#07C3F2"/>
<stop offset="0.9032" stop-color="#087CFA"/>
</linearGradient>
<linearGradient id="paint2_linear" x1="31.4576" y1="49.5235" x2="7.67775" y2="16.3363" gradientUnits="userSpaceOnUse">
<stop offset="0.0913979" stop-color="#21D789"/>
<stop offset="0.4839" stop-color="#07C3F2"/>
<stop offset="0.9032" stop-color="#087CFA"/>
</linearGradient>
<linearGradient id="paint3_linear" x1="23.9994" y1="1.70732" x2="23.9994" y2="28.6113" gradientUnits="userSpaceOnUse">
<stop offset="0.0842986" stop-color="#878585"/>
<stop offset="0.5377"/>
</linearGradient>
</defs>
</svg>
