<svg width="80" height="80" viewBox="0 0 80 80" fill="none" xmlns="http://www.w3.org/2000/svg"><rect id="frame" width="80" height="80" fill="none"/><g clip-path="url(#clip0)"><path d="M66.5 0L43.667 8.167 25.583 0l-5.916 15h-3.834v44.167l55.5.5 8.667-44L66.5 0z" fill="url(#paint0_linear)"/><path d="M65.834 28.75L29.334 7l36.5 42.916V28.75z" fill="url(#paint1_linear)"/><path d="M33.333 77.916l29.834-4L58.583 65l-2.75-5.833 2.75-4.792L63.167 45 29.25 7 0 14.166v42L16.833 80l16.334-2.084h.166z" fill="url(#paint2_linear)"/><path d="M65 15H15v50h50V15z" fill="url(#paint3_linear)"/><path d="M39.9 55.5H21.2v3.1h18.7v-3.1z" fill="#fff"/><path d="M39.407 21.62h4.408l4.817 7.756 4.818-7.756h4.408v18.37h-4.082V27.988l-5.144 7.838h-.081l-5.144-7.756v11.92h-4V21.62z" fill="#fff"/><path d="M21.282 21.62h8.409c2.368 0 4.082.653 5.389 1.878 1.06 1.061 1.55 2.45 1.55 4.164v.081c0 1.47-.326 2.695-1.06 3.674a6.583 6.583 0 0 1-2.858 2.041l4.49 6.532h-4.735l-3.837-5.634h-3.348v5.634H21.2V21.62h.082zm8.164 8.9c.98 0 1.796-.246 2.286-.736.572-.49.817-1.143.817-1.877v-.082c0-.898-.245-1.551-.817-1.96-.571-.408-1.306-.653-2.367-.653h-4.001v5.307h4.082z" fill="#fff"/></g><defs><linearGradient id="paint0_linear" x1="51.288" y1="46.271" x2="41.179" y2="19.735" gradientUnits="userSpaceOnUse"><stop offset="0" stop-color="#FE2857"/><stop offset=".056" stop-color="#FE3052"/><stop offset=".325" stop-color="#FD533B"/><stop offset=".58" stop-color="#FC6C2A"/><stop offset=".811" stop-color="#FC7B20"/><stop offset="1" stop-color="#FC801D"/></linearGradient><linearGradient id="paint1_linear" x1="32.023" y1="8.287" x2="47.642" y2="22.605" gradientUnits="userSpaceOnUse"><stop offset="0" stop-color="#6B57FF"/><stop offset="1" stop-color="#FE2857"/></linearGradient><linearGradient id="paint2_linear" x1=".349" y1="12.813" x2="51.771" y2="78.18" gradientUnits="userSpaceOnUse"><stop offset=".001" stop-color="#6B57FF"/><stop offset=".297" stop-color="#FE2857"/><stop offset=".629" stop-color="#FE2857"/><stop offset=".641" stop-color="#FE3052"/><stop offset=".701" stop-color="#FD533B"/><stop offset=".757" stop-color="#FC6C2A"/><stop offset=".808" stop-color="#FC7B20"/><stop offset=".85" stop-color="#FC801D"/></linearGradient><linearGradient id="paint3_linear" x1="39.999" y1="2.846" x2="39.999" y2="47.685" gradientUnits="userSpaceOnUse"><stop offset=".084" stop-color="#878585"/><stop offset=".538"/></linearGradient><clipPath id="clip0"><path d="M0 0h80v80H0V0z" fill="#fff"/></clipPath></defs></svg>