<svg width="16" height="16" viewBox="0 0 16 16" fill="none" xmlns="http://www.w3.org/2000/svg"><rect id="frame" width="16" height="16" fill="none"/><path d="M16 0H0v16h16V0z" fill="#FE2857"/><path d="M15 1H1v14h14V1z" fill="#000"/><path d="M9 12H3v1h6v-1z" fill="#fff"/><path d="M8 3h1.4L11 5.5 12.6 3H14v6h-1.3V5.1L11 7.6 9.3 5.1V9H8V3z" fill="#fff"/><path d="M3 3h2.4c.7 0 1.3.2 1.6.6.3.3.5.8.5 1.4 0 1-.5 1.6-1.2 1.9L7.6 9H6.3L5.1 7.1h-.9V9H3V3zm2.4 2.9c.6 0 .9-.3.9-.9 0-.6-.4-.9-.9-.9H4.2v1.7l1.2.1z" fill="#fff"/></svg>