<svg width="32" height="32" viewBox="0 0 32 32" fill="none" xmlns="http://www.w3.org/2000/svg"><rect id="frame" width="32" height="32" fill="none"/><path d="M26.6 0l-9.133 3.267L10.233 0 7.867 6H6.333v17.667l22.2.2L32 6.267 26.6 0z" fill="url(#paint0_linear)"/><path d="M26.333 11.5l-14.6-8.7 14.6 17.167V11.5z" fill="url(#paint1_linear)"/><path d="M13.333 31.167l11.934-1.6L23.433 26 21.5 22l3.767-4L11.7 2.8 0 5.667v16.8L6.733 32l6.534-.833h.066z" fill="url(#paint2_linear)"/><path d="M26 6H6v20h20V6z" fill="url(#paint3_linear)"/><path d="M16 23H8v1h8v-1z" fill="#fff"/><path d="M15.81 8H17.7l2.066 3.327L21.834 8h1.891v7.88h-1.751v-5.148l-2.207 3.362h-.035l-2.206-3.327v5.113H15.81V8z" fill="#fff"/><path d="M8.035 8h3.607c1.016 0 1.751.28 2.312.806.455.455.665 1.05.665 1.786v.035c0 .63-.14 1.155-.455 1.576-.315.385-.736.7-1.226.875l1.926 2.802h-2.03l-1.647-2.417H9.751v2.417H8V8h.035zm3.502 3.817c.42 0 .77-.105.98-.315.246-.21.351-.49.351-.805v-.035c0-.386-.105-.666-.35-.84-.245-.176-.56-.281-1.016-.281H9.786v2.276h1.751z" fill="#fff"/><defs><linearGradient id="paint0_linear" x1="20.515" y1="18.509" x2="16.472" y2="7.894" gradientUnits="userSpaceOnUse"><stop offset="0" stop-color="#FE2857"/><stop offset=".056" stop-color="#FE3052"/><stop offset=".325" stop-color="#FD533B"/><stop offset=".58" stop-color="#FC6C2A"/><stop offset=".811" stop-color="#FC7B20"/><stop offset="1" stop-color="#FC801D"/></linearGradient><linearGradient id="paint1_linear" x1="12.809" y1="3.315" x2="19.057" y2="9.042" gradientUnits="userSpaceOnUse"><stop offset="0" stop-color="#6B57FF"/><stop offset="1" stop-color="#FE2857"/></linearGradient><linearGradient id="paint2_linear" x1=".14" y1="5.125" x2="20.708" y2="31.272" gradientUnits="userSpaceOnUse"><stop offset=".001" stop-color="#6B57FF"/><stop offset=".297" stop-color="#FE2857"/><stop offset=".629" stop-color="#FE2857"/><stop offset=".641" stop-color="#FE3052"/><stop offset=".701" stop-color="#FD533B"/><stop offset=".757" stop-color="#FC6C2A"/><stop offset=".808" stop-color="#FC7B20"/><stop offset=".85" stop-color="#FC801D"/></linearGradient><linearGradient id="paint3_linear" x1="15.973" y1="1.139" x2="15.973" y2="19.075" gradientUnits="userSpaceOnUse"><stop offset=".084" stop-color="#878585"/><stop offset=".538"/></linearGradient></defs></svg>