<svg width="64" height="64" viewBox="0 0 64 64" fill="none" xmlns="http://www.w3.org/2000/svg"><rect id="frame" width="64" height="64" fill="none"/><path d="M53.2 0L34.933 6.533 20.467 0l-4.734 12h-3.066v35.333l44.4.4L64 12.533 53.2 0z" fill="url(#paint0_linear)"/><path d="M52.667 23l-29.2-17.4 29.2 34.333V23z" fill="url(#paint1_linear)"/><path d="M26.667 62.333l23.866-3.2L46.867 52l-2.2-4.667 2.2-3.833 3.666-7.5L23.4 5.6 0 11.333v33.6L13.467 64l13.066-1.667h.134z" fill="url(#paint2_linear)"/><path d="M51 13H13v38h38V13z" fill="url(#paint3_linear)"/><path d="M32.144 44H18v2.322h14.144V44z" fill="#fff"/><path d="M32.113 17.75h3.418l3.734 6.012 3.734-6.012h3.418v14.24h-3.165v-9.303l-3.987 6.075h-.063l-3.987-6.012v9.24h-3.102V17.75z" fill="#fff"/><path d="M18.063 17.75h6.519c1.835 0 3.165.506 4.177 1.456.823.822 1.203 1.898 1.203 3.227v.064c0 1.139-.254 2.088-.823 2.848a5.104 5.104 0 0 1-2.215 1.582l3.48 5.063h-3.67l-2.975-4.367h-2.595v4.367H18V17.75h.063zm6.33 6.898c.759 0 1.392-.19 1.771-.57.443-.379.633-.885.633-1.455v-.063c0-.696-.19-1.202-.633-1.519-.443-.316-1.012-.506-1.835-.506h-3.101v4.113h3.164z" fill="#fff"/><defs><linearGradient id="paint0_linear" x1="41.03" y1="37.017" x2="32.943" y2="15.788" gradientUnits="userSpaceOnUse"><stop offset="0" stop-color="#FE2857"/><stop offset=".056" stop-color="#FE3052"/><stop offset=".325" stop-color="#FD533B"/><stop offset=".58" stop-color="#FC6C2A"/><stop offset=".811" stop-color="#FC7B20"/><stop offset="1" stop-color="#FC801D"/></linearGradient><linearGradient id="paint1_linear" x1="25.619" y1="6.63" x2="38.114" y2="18.084" gradientUnits="userSpaceOnUse"><stop offset="0" stop-color="#6B57FF"/><stop offset="1" stop-color="#FE2857"/></linearGradient><linearGradient id="paint2_linear" x1=".279" y1="10.251" x2="41.417" y2="62.544" gradientUnits="userSpaceOnUse"><stop offset=".001" stop-color="#6B57FF"/><stop offset=".297" stop-color="#FE2857"/><stop offset=".629" stop-color="#FE2857"/><stop offset=".641" stop-color="#FE3052"/><stop offset=".701" stop-color="#FD533B"/><stop offset=".757" stop-color="#FC6C2A"/><stop offset=".808" stop-color="#FC7B20"/><stop offset=".85" stop-color="#FC801D"/></linearGradient><linearGradient id="paint3_linear" x1="31.949" y1="3.764" x2="31.949" y2="37.843" gradientUnits="userSpaceOnUse"><stop offset=".084" stop-color="#878585"/><stop offset=".538"/></linearGradient></defs></svg>