<svg width="48" height="48" viewBox="0 0 48 48" fill="none" xmlns="http://www.w3.org/2000/svg"><rect id="frame" width="48" height="48" fill="none"/><path d="M39.9 0L26.2 4.9 15.35 0 11.8 9H9.5v26.5l33.3.3L48 9.4 39.9 0z" fill="url(#paint0_linear)"/><path d="M39.5 17.25L17.6 4.2l21.9 25.75v-12.7z" fill="url(#paint1_linear)"/><path d="M20 46.75l17.9-2.4L35.15 39l-1.65-3.5 1-1 2.5-8L17.55 4.2 0 8.5v25.2L10.1 48l9.8-1.25h.1z" fill="url(#paint2_linear)"/><path d="M39 9H9v30h30V9z" fill="url(#paint3_linear)"/><path d="M23.25 34H12v1.929h11.25V34z" fill="#fff"/><path d="M23.705 12.02h2.834l3.097 4.986 3.097-4.986h2.834v11.81h-2.624v-7.716l-3.307 5.04h-.052l-3.307-4.987v7.663h-2.572V12.02z" fill="#fff"/><path d="M12.053 12.02h5.406c1.522 0 2.624.42 3.464 1.207.683.683.997 1.575.997 2.677v.053c0 .944-.21 1.732-.682 2.362a4.231 4.231 0 0 1-1.837 1.312l2.887 4.199h-3.044l-2.468-3.622h-2.152v3.622H12V12.02h.053zm5.248 5.721c.63 0 1.155-.157 1.47-.472.367-.315.525-.735.525-1.207v-.053c0-.577-.157-.997-.525-1.26-.367-.262-.84-.42-1.522-.42h-2.572v3.412H17.3z" fill="#fff"/><defs><linearGradient id="paint0_linear" x1="30.773" y1="27.763" x2="24.707" y2="11.841" gradientUnits="userSpaceOnUse"><stop offset="0" stop-color="#FE2857"/><stop offset=".056" stop-color="#FE3052"/><stop offset=".325" stop-color="#FD533B"/><stop offset=".58" stop-color="#FC6C2A"/><stop offset=".811" stop-color="#FC7B20"/><stop offset="1" stop-color="#FC801D"/></linearGradient><linearGradient id="paint1_linear" x1="19.214" y1="4.972" x2="28.585" y2="13.563" gradientUnits="userSpaceOnUse"><stop offset="0" stop-color="#6B57FF"/><stop offset="1" stop-color="#FE2857"/></linearGradient><linearGradient id="paint2_linear" x1=".21" y1="7.688" x2="31.063" y2="46.908" gradientUnits="userSpaceOnUse"><stop offset=".001" stop-color="#6B57FF"/><stop offset=".297" stop-color="#FE2857"/><stop offset=".629" stop-color="#FE2857"/><stop offset=".641" stop-color="#FE3052"/><stop offset=".701" stop-color="#FD533B"/><stop offset=".757" stop-color="#FC6C2A"/><stop offset=".808" stop-color="#FC7B20"/><stop offset=".85" stop-color="#FC801D"/></linearGradient><linearGradient id="paint3_linear" x1="23.999" y1="1.707" x2="23.999" y2="28.611" gradientUnits="userSpaceOnUse"><stop offset=".084" stop-color="#878585"/><stop offset=".538"/></linearGradient></defs></svg>