<svg width="40" height="40" viewBox="0 0 40 40" fill="none" xmlns="http://www.w3.org/2000/svg">
<g id="quarkus_dark">
<g id="Quarkus has a logo-0">
<path id="Path" d="M24.8417 9.60001L19.935 12.4317L24.8417 15.265V9.60001Z" fill="#4695EB"/>
<path id="Path_2" d="M15.0284 9.60001V15.265L19.935 12.4317L15.0284 9.60001Z" fill="#FF004A"/>
<path id="Path_3" d="M24.8417 15.265L19.935 12.4317L15.0284 15.265L19.935 18.0983L24.8417 15.265Z" fill="white"/>
<path id="Path_4" d="M9.85501 18.56L14.7617 21.3933V15.7283L9.85501 18.56Z" fill="#4695EB"/>
<path id="Path_5" d="M14.7617 27.0583L19.6684 24.2267L14.7617 21.3933V27.0583Z" fill="#FF004A"/>
<path id="Path_6" d="M14.7617 15.7283V21.3933L19.6684 24.2267V18.56L14.7617 15.7283Z" fill="white"/>
<path id="Path_7" d="M25.1083 27.0583V21.3933L20.2017 24.2267L25.1083 27.0583Z" fill="#4695EB"/>
<path id="Path_8" d="M30.015 18.56L25.1083 15.7283V21.3933L30.015 18.56Z" fill="#FF004A"/>
<path id="Path_9" d="M20.2017 24.2267L25.1083 21.3933V15.7283L20.2017 18.56V24.2267Z" fill="white"/>
</g>
<g id="Group">
<path id="Fill 3" fill-rule="evenodd" clip-rule="evenodd" d="M27 40H40V27H27V40Z" fill="black"/>
<path id="Fill 5" fill-rule="evenodd" clip-rule="evenodd" d="M29.538 37.255H35.663V35.612H29.538V37.255Z" fill="white"/>
</g>
<path id="Subtract" fill-rule="evenodd" clip-rule="evenodd" d="M9.28667 4H30.5833C33.4984 4.01007 35.8584 6.37164 35.8667 9.28667V26H32.345V9.28667C32.3324 8.31898 31.551 7.53757 30.5833 7.525H9.28667C8.31898 7.53757 7.53757 8.31898 7.525 9.28667V30.5833C7.53757 31.551 8.31898 32.3324 9.28667 32.345H17.08L19.935 26.3083L23.8717 35.87H9.28667C6.37034 35.8618 4.00824 33.4997 4 30.5833V9.28667C4.00824 6.37034 6.37034 4.00824 9.28667 4ZM26 32.345H25.9617L26 32.4381V32.345Z" fill="#4695EB"/>
</g>
</svg>
