<svg width="40" height="40" viewBox="0 0 40 40" fill="none" xmlns="http://www.w3.org/2000/svg"><rect id="frame" width="40" height="40" fill="none"/><path d="M24.842 9.6l-4.907 2.832 4.907 2.833V9.6z" fill="#4695EB"/><path d="M15.028 9.6v5.665l4.907-2.833L15.028 9.6z" fill="#FF004A"/><path d="M24.842 15.265l-4.907-2.833-4.907 2.833 4.907 2.833 4.907-2.833z" fill="#fff"/><path d="M9.855 18.56l4.907 2.833v-5.665L9.855 18.56z" fill="#4695EB"/><path d="M14.762 27.058l4.906-2.831-4.906-2.834v5.665z" fill="#FF004A"/><path d="M14.762 15.728v5.665l4.906 2.834V18.56l-4.906-2.832z" fill="#fff"/><path d="M25.108 27.058v-5.665l-4.906 2.834 4.906 2.831z" fill="#4695EB"/><path d="M30.015 18.56l-4.907-2.832v5.665l4.907-2.833z" fill="#FF004A"/><path d="M20.202 24.227l4.906-2.834v-5.665l-4.906 2.832v5.667z" fill="#fff"/><g fill-rule="evenodd" clip-rule="evenodd"><path d="M27 40h13V27H27v13z" fill="#000"/><path d="M29.538 37.255h6.125v-1.643h-6.125v1.643z" fill="#fff"/></g><path fill-rule="evenodd" clip-rule="evenodd" d="M9.287 4h21.296a5.302 5.302 0 0 1 5.284 5.287V26h-3.522V9.287a1.785 1.785 0 0 0-1.762-1.762H9.287a1.785 1.785 0 0 0-1.762 1.762v21.296c.013.968.794 1.75 1.762 1.762h7.793l2.855-6.037 3.937 9.562H9.287A5.302 5.302 0 0 1 4 30.583V9.287A5.302 5.302 0 0 1 9.287 4zM26 32.345h-.038l.038.093v-.093z" fill="#4695EB"/></svg>