<svg xmlns="http://www.w3.org/2000/svg" width="16" height="16" viewBox="0 0 16 16"><rect id="frame" width="16" height="16" fill="none"/><path fill="#DE4F4F" fill-rule="evenodd" d="M14.987 10.256c-.221.24-.51.034-.51.034l-6.47-7.013 7.031 6.5s.17.24-.05.48zm-.723-2.272L11.33 4.795l3.21 2.948s.085.112-.025.225c-.11.112-.252.016-.252.016zm.48 4.23c-.318.343-.732.049-.732.049L4.751 2.224l10.065 9.304s.244.343-.073.686zm-.951 1.69c-.317.342-.731.048-.731.048L.9 1l12.966 12.218s.243.343-.073.685zm-1.755.93c-.317.343-.731.049-.731.049L2.046 4.844l10.065 9.304s.244.343-.073.686zm-2.12.025c-.222.24-.51.035-.51.035L2.936 7.88l7.032 6.5s.17.24-.051.48zm-2.177-.574c-.11.112-.253.016-.253.016l-2.932-3.189 3.21 2.948s.084.112-.025.225z"/></svg>