<svg xmlns="http://www.w3.org/2000/svg" width="16" height="16" viewBox="0 0 16 16">
  <g id="avd_manager" fill="none" fill-rule="evenodd" stroke="none" stroke-width="1">
    <path id="Fill-2" fill="#A4C639" d="M11.5,4.5 C11.5,4.224 11.276,4 11,4 C10.724,4 10.5,4.224 10.5,4.5 C10.5,4.776 10.724,5 11,5 C11.276,5 11.5,4.776 11.5,4.5 M8.5,4.5 C8.5,4.224 8.276,4 8,4 C7.724,4 7.5,4.224 7.5,4.5 C7.5,4.776 7.724,5 8,5 C8.276,5 8.5,4.776 8.5,4.5 M12.896,1.806 L11.727,3.32 C12.499,3.963 13,4.918 13,6 L7.581,6 C7.293,5.42 6.863,4.918 6.333,4.534 C6.556,4.064 6.877,3.65 7.273,3.32 L6.104,1.806 C6.034,1.715 6,1.607 6,1.5 C6,1.225 6.222,1 6.5,1 C6.65,1 6.798,1.066 6.896,1.194 L8.122,2.783 C8.545,2.602 9.01,2.5 9.5,2.5 C9.99,2.5 10.455,2.602 10.878,2.783 L12.104,1.194 C12.202,1.066 12.35,1 12.5,1 C12.778,1 13,1.225 13,1.5 C13,1.607 12.966,1.715 12.896,1.806 M14.25,6 C13.836,6 13.5,6.336 13.5,6.75 L13.5,10.236 C13.5,10.65 13.836,10.986 14.25,10.986 C14.664,10.986 15,10.65 15,10.236 L15,6.75 C15,6.336 14.664,6 14.25,6 M7.854,6.75 L13,6.75 L13,11.253 C13,11.666 12.666,12 12.253,12 L12,12 L12,14.146 C12,14.617 11.617,15 11.145,15 L10.855,15 C10.383,15 10,14.617 10,14.146 L10,12 L9,12 L9,14.109 C9,14.602 8.602,15 8.109,15 L7.891,15 C7.398,15 7,14.602 7,14.109 L7,12 L6.747,12 C6.334,12 6,11.666 6,11.253 L6,11.244 C7.22,10.535 8,9.219 8,7.777 C8,7.424 7.943,7.081 7.854,6.75"/>
    <path id="Fill-4" fill="#9AA7B0" d="M5,5 L5,8 L3,8 L3,5 C1.838,5.414 1,6.513 1,7.816 C1,9.12 1.838,10.219 3,10.633 L3,14 C3,14.553 3.447,15 4,15 C4.553,15 5,14.553 5,14 L5,10.633 C6.162,10.219 7,9.12 7,7.816 C7,6.513 6.162,5.414 5,5" opacity=".8"/>
  </g>
</svg>
