<svg xmlns="http://www.w3.org/2000/svg" width="16" height="16" viewBox="0 0 16 16"><rect id="frame" width="16" height="16" fill="none"/><path fill="#252525" d="M6 4H3.233L0 8.688v.624L3.233 14H6v-1.312L3.457 9 6 5.312V4z"/><path fill="#c4c4c4" d="M5 5H3.758L1 9l2.758 4H5L2.242 9 5 5z"/><path fill="#252525" d="M10 14h2.767L16 9.312v-.624L12.767 4H10v1.312L12.543 9 10 12.688V14z"/><path fill="#c4c4c4" d="M11 5h1.242L15 9l-2.758 4H11l2.758-4L11 5z"/><path d="M10 9c-.074 0-.144.017-.216.022L12 4.78v-.86L10.185 3H9.34l-.77 1.474A3 3 0 1 0 6 9c.074 0 .144-.017.216-.022L4 13.22v.86l1.815.92h.845l.77-1.474A3 3 0 1 0 10 9z" fill="#252525"/><path d="M10 10a2 2 0 1 0 2 2 2 2 0 0 0-2-2zM6 4a2 2 0 1 0 2 2 2 2 0 0 0-2-2zm3.945 0L11 4.534 6.055 14 5 13.466z" fill="#43c2ff"/><path d="M10 13a1 1 0 1 1 1-1 1 1 0 0 1-1 1zM6 7a1 1 0 1 1 1-1 1 1 0 0 1-1 1z" fill="#292929"/></svg>