<svg xmlns="http://www.w3.org/2000/svg" width="16" height="16" viewBox="0 0 16 16"><rect id="frame" width="16" height="16" fill="none"/><path fill="#40B6E0" fill-rule="evenodd" d="M6.326 3.958c.012.07-.024.129-.141.188-.153-.083-.482-.13-.752-.106-.293.023-.54.117-.505.317.047.2.329.317.834.27 1.234-.106 1.222-.94 3.03-1.104 1.41-.13 2.197.305 2.303.834.082.411-.258.81-1.28.893-.905.082-1.433-.165-1.48-.411-.024-.13.047-.318.481-.365.047.2.294.412.881.353.423-.035.776-.188.729-.423-.047-.247-.494-.388-1.199-.329-1.433.13-1.785.916-3.007 1.022-.869.082-1.574-.235-1.668-.705-.035-.176-.035-.587.881-.67.47-.035.846.048.893.236zm1.715 2.196c-1.515 0-2.866-.152-3.841-.364-1.046-.258-1.598-.54-1.598-.904 0-.153.07-.282.282-.435-.658.258-1.01.47-1.01.799.035.364.623.728 1.82 1.01 1.128.282 2.573.435 4.312.435 1.773 0 3.183-.153 4.31-.435 1.199-.282 1.775-.658 1.775-1.01 0-.259-.259-.505-.729-.693.106.07.188.188.188.317 0 .364-.54.658-1.633.904-1.01.224-2.302.376-3.876.376zM2.624 8.711c-.07.065-.136.137-.198.215a1.748 1.748 0 0 0-.282 1.387c.07.54.364.986.799 1.303.4.318.799.47 1.269.47-.224.07-.47.188-.694.224-.575.105-1.08 0-1.55-.365-.446-.364-.728-.834-.764-1.41a2.435 2.435 0 0 1 .54-1.667c.213-.269.445-.477.7-.631a10.245 10.245 0 0 1-.476-1.907c.188.294.728.576 1.738.834 1.128.247 2.573.435 4.347.435 1.738 0 3.183-.176 4.31-.435.976-.223 1.516-.505 1.751-.834-.223 1.28-.623 2.479-1.198 3.524-.435.658-.87 1.234-1.304 1.856a4.424 4.424 0 0 0-.364 1.093h-.035c-.294.4-.693.646-1.163.799a5.46 5.46 0 0 1-1.986.282h-.07a4.894 4.894 0 0 1-1.926-.282c-.506-.141-.917-.4-1.199-.8a4.558 4.558 0 0 0-.399-1.092c-.435-.622-.87-1.198-1.304-1.856-.199-.365-.38-.747-.542-1.143z"/></svg>