<svg xmlns="http://www.w3.org/2000/svg" width="16" height="16" viewBox="0 0 16 16">
  <path fill="#499C54" d="M0 16L6 11.5 0 7z"/>
  <path fill="#C75450" d="M13,6.416 C13,7 11,8 11,9 L10,9 C10,7 12,7 12,6 L12,1.675 C12,0.775 11,0.775 11,1.675 L11,6 C11,6.842 10,6.842 10,6 L10,1.675 C10,0.775 9,0.775 9,1.675 L9,6 C9,7 8,6.992 8,6 L8,1.675 C8,0.775 7,0.775 7,1.675 L7,6.247 C7,7.255 6,7.247 6,6.247 L6,3.676 C6,2.775 5,2.775 5,3.676 L5,8 C5,8.541 5.135,9.154 5.351,9.763 L7,11 L7,12 L6.735,12.199 C7.166,12.687 7.614,13 8,13 L11,13 C12,13 14,9.4 14,7 L14,4.614 C13.194,4.614 13,5.217 13,6.416"/>
</svg>
