<svg xmlns="http://www.w3.org/2000/svg" width="16" height="16" viewBox="0 0 16 16">
  <title>StatusIgnored_dark</title>
  <g>
    <rect width="16" height="16" fill="#ffc4ff" opacity="0"/>
    <g>
      <path d="M4.5,8A3.5,3.5,0,0,1,8,4.5a3.5,3.5,0,0,1,.449.045L9.755,3.239A7.178,7.178,0,0,0,8,3,7.542,7.542,0,0,0,1,8a7.938,7.938,0,0,0,1.517,2.478L4.545,8.449A3.5,3.5,0,0,1,4.5,8ZM6.6,9.424A2,2,0,0,0,9.425,6.6ZM11.871,4.15,10.484,5.537a3.5,3.5,0,0,1-4.947,4.947L4.155,11.866A7.189,7.189,0,0,0,8,13a7.542,7.542,0,0,0,7-5A7.817,7.817,0,0,0,11.871,4.15Z" fill="#afb1b3"/>
      <rect x="0.14" y="7.375" width="15.72" height="1.251" transform="translate(-3.314 8) rotate(-45)" fill="#c75450"/>
    </g>
  </g>
</svg>
