<svg xmlns="http://www.w3.org/2000/svg" width="16" height="16" viewBox="0 0 16 16">
  <g id="TestMethodIgnored" fill="none" fill-rule="evenodd" stroke="none" stroke-width="1">
    <path id="Combined-Shape" fill="#6E6E6E" d="M4.192,8.808 L5.379,7.621 C5.922,8.164 6.672,8.5 7.5,8.5 C7.97057143,8.5 8.4117551,8.38391837 8.8065481,8.18827988 L9,8.084 L9,9.739 C8.518,9.898 8.018,10 7.5,10 C6.38307692,10 5.33602367,9.56118343 4.41861629,8.96119436 L4.192,8.808 L5.379,7.621 Z M10.8071,2.1927 C12.7171,3.5257 14.0001,5.4997 14.0001,5.4997 C14.0001,5.4997 13.211192,6.71291007 11.9537455,7.87897546 L11.7871,8.0307 L10.5731,7.1807 C10.4251,7.0757 10.2521,7.0257 10.0771,7.0117 C10.3401,6.5667 10.5001,6.0537 10.5001,5.4997 C10.5001,4.7407 10.2177667,4.04724167 9.75246285,3.51868785 L9.6211,3.3787 L10.8071,2.1927 Z M7.5,1 C8.134,1 8.745,1.146 9.324,1.377 L9.324,1.377 L8.132,2.569 C7.928,2.525 7.717,2.5 7.5,2.5 C5.843,2.5 4.5,3.843 4.5,5.5 C4.5,5.717 4.525,5.928 4.569,6.132 L4.569,6.132 L2.929,7.772 C1.738,6.64 1,5.5 1,5.5 C1,5.5 3.91,1 7.5,1 Z M8.5605,4.4395 C8.8325,4.7105 9.0005,5.0855 9.0005,5.4995 C9.0005,6.3285 8.3285,6.9995 7.5005,6.9995 C7.137375,6.9995 6.804875,6.870875 6.545875,6.65716992 L6.4395,6.5605 L8.5605,4.4395 Z"/>
    <polygon id="Fill-10" fill="#DB5860" points="13 .885 12.115 0 2 10.115 2.885 11"/>
    <polygon id="Fill-13" fill="#59A869" points="10 15 15 11.5 10 8"/>
  </g>
</svg>
