<svg xmlns="http://www.w3.org/2000/svg" width="16" height="16" viewBox="0 0 16 16">
  <g id="TestMethodAborted_dark" fill="none" fill-rule="evenodd" stroke="none" stroke-width="1">
    <path id="Combined-Shape" fill="#C75450" d="M8,1.675 C8,0.775 9,0.775 9,1.675 L9,1.675 L9,6 C9,7 7,7 7,9 L7,9 L8,9 C8,8.395 8.731,7.791 9.31,7.277 C9.115,7.463 9,7.723 9,8 L9,8 L9,12.265 C8.633,12.716 8.277,13 8,13 L8,13 L5,13 C3.8,13 2,10 2,8 L2,8 L2,3.676 C2,2.775 3,2.775 3,3.676 L3,3.676 L3,6.247 C3,7.247 4,7.255 4,6.247 L4,6.247 L4,1.675 C4,0.775 5,0.775 5,1.675 L5,1.675 L5,6 C5,6.992 6,7 6,6 L6,6 L6,1.675 C6,0.775 7,0.775 7,1.675 L7,1.675 L7,6 C7,6.842 8,6.842 8,6 L8,6 Z M11.0001,4.6143 L11.0001,7.0003 C11.0001,7.1503 10.9921,7.3043 10.9771,7.4643 L10.9771,7.4643 L10.5731,7.1803 C10.4021,7.0603 10.2011,7.0003 10.0001,7.0003 C9.8421,7.0003 9.6841,7.0373 9.5381,7.1133 C9.4591,7.1543 9.3871,7.2073 9.3231,7.2653 C9.6941,6.9353 10.0001,6.6433 10.0001,6.4163 C10.0001,5.2173 10.1941,4.6143 11.0001,4.6143 L11.0001,4.6143 Z"/>
    <polygon id="Fill-6" fill="#499C54" points="10 15 15 11.5 10 8"/>
  </g>
</svg>
