<svg xmlns="http://www.w3.org/2000/svg" width="16" height="16" viewBox="0 0 16 16">
  <g fill="none" fill-rule="evenodd">
    <path fill="#C75450" d="M9,8 C9,7.627 9.207,7.285 9.538,7.113 C9.684,7.037 9.842,7 10,7 C10.201,7 10.402,7.061 10.573,7.181 L10.796,7.337 C10.916,6.908 11,6.466 11,6 C11,3.239 8.762,1 6,1 C3.238,1 1,3.239 1,6 C1,8.762 3.238,11 6,11 C7.131,11 8.162,10.61 9,9.978 L9,8 Z"/>
    <path fill="#C0C2C4" d="M3 6.75L9 6.75 9 5.25 3 5.25z"/>
    <path fill="#499C54" d="M10 15L15 11.5 10 8z"/>
  </g>
</svg>
