<svg xmlns="http://www.w3.org/2000/svg" width="16" height="16" viewBox="0 0 16 16">
  <g id="FolderUnrealEngine" fill="none" fill-rule="evenodd" stroke="none" stroke-width="1">
    <polygon id="Fill-2" fill="#F4AF3D" points="10 2 8 4 2 4 2 7 3 7 3 6 14 6 14 7 14 10.889 14.675 10.889 14.675 14 15 14 15 2"/>
    <path id="Fill-4" fill="#40B6E0" d="M11.895,11.8892 L10.632,11.8892 L10.632,11.8672 C10.632,11.8672 11.77,10.0022 11.926,9.6152 L11.968,9.6152 C11.937,9.9812 11.895,11.8892 11.895,11.8892 L11.895,11.8892 Z M13,11.8892 L13,8.0002 L11.791,8.0002 L9.479,12.0502 L9.479,13.0202 L11.895,13.0202 L11.895,15.0002 L13,15.0002 L13,13.0202 L13.675,13.0202 L13.675,11.8892 L13,11.8892 Z M8.86,12.0262 L7.16,12.0262 L7.16,13.9162 L9.068,13.9162 L9.068,15.0002 L5.9,15.0002 L5.9,8.0002 L8.943,8.0002 L8.943,9.0842 L7.16,9.0842 L7.16,10.9932 L8.86,10.9932 L8.86,12.0262 Z M2.24,8.0002 L2.24,12.5492 C2.24,13.5772 2.647,13.8892 2.995,13.8892 C3.383,13.8892 3.76,13.6082 3.76,12.5492 L3.76,8.0002 L5,8.0002 L5,12.3102 C5,14.1062 4.335,15.0832 3.005,15.0832 C1.562,15.0832 1,14.0762 1,12.3202 L1,8.0002 L2.24,8.0002 Z"/>
  </g>
</svg>
