<svg xmlns="http://www.w3.org/2000/svg" width="16" height="16" viewBox="0 0 16 16">
  <g id="FolderUnrealProject" fill="none" fill-rule="evenodd" stroke="none" stroke-width="1">
    <path id="Fill-2" fill="#F4AF3D" d="M10,2 L8,4 L2,4 L2,8.531 C2.306,8.304 2.645,8.146 3,8.07 L3,6 L14,6 L14,13 L10.839,13 C10.937,13.456 11,13.818 11,13.971 C11,13.981 10.997,13.989 10.997,14 L15,14 L15,2 L10,2 Z"/>
    <g id="Group-8" fill="#40B6E0" transform="translate(1 6)">
      <path id="Fill-4" d="M6.9844,4.7993 C6.9844,4.8913 6.9094,4.9663 6.8174,4.9663 L6.1994,4.9663 C6.1084,4.9663 6.0334,4.8913 6.0334,4.7993 L6.0334,4.1813 C6.0334,4.0893 6.1084,4.0143 6.1994,4.0143 L6.8174,4.0143 C6.9094,4.0143 6.9844,4.0893 6.9844,4.1813 L6.9844,4.7993 Z M5.9484,5.7723 C5.9484,5.8643 5.8744,5.9393 5.7824,5.9393 L5.1964,5.9393 C5.1044,5.9393 5.0294,5.8643 5.0294,5.7723 L5.0294,5.1873 C5.0294,5.0943 5.1044,5.0203 5.1964,5.0203 L5.7824,5.0203 C5.8744,5.0203 5.9484,5.0943 5.9484,5.1873 L5.9484,5.7723 Z M2.6924,6.0003 C2.3104,6.0003 2.0004,5.6893 2.0004,5.3073 C2.0004,4.9243 2.3104,4.6133 2.6924,4.6133 C3.0754,4.6133 3.3864,4.9243 3.3864,5.3073 C3.3864,5.6893 3.0754,6.0003 2.6924,6.0003 L2.6924,6.0003 Z M7.8944,3.8563 C7.5984,3.3183 7.0054,3.0003 6.5514,3.0003 C5.8964,3.0003 5.6164,3.6663 4.5004,3.6663 C3.3834,3.6663 3.1044,3.0003 2.4484,3.0003 C1.9944,3.0003 1.4014,3.3183 1.1064,3.8563 C0.7584,4.4883 0.0004,7.5923 0.0004,7.9703 C0.0004,8.6403 0.1954,9.0003 0.7674,9.0003 C2.1024,9.0003 1.7644,7.0003 4.5004,7.0003 C7.2354,7.0003 6.8984,9.0003 8.2334,9.0003 C8.8044,9.0003 9.0004,8.6403 9.0004,7.9703 C9.0004,7.5923 8.2414,4.4883 7.8944,3.8563 L7.8944,3.8563 Z"/>
      <path id="Fill-6" d="M3.8403,0 L2.8403,0 C2.8403,1.219 4.0003,1.038 4.0003,1.78 L4.0003,3 L5.0003,3.019 L5.0003,1.78 C5.0003,0.557 3.8403,0.56 3.8403,0"/>
    </g>
  </g>
</svg>
