<svg xmlns="http://www.w3.org/2000/svg" width="16" height="16" viewBox="0 0 16 16">
  <g id="FolderSettings" fill="none" fill-rule="evenodd" stroke="none" stroke-width="1">
    <polygon id="Fill-2" fill="#F4AF3D" points="10 2 8 4 2 4 2 7.461 3 7.853 3 6 3.426 6 6.574 6 14 6 14 13 9.818 13 9.21 14 15 14 15 2"/>
    <g id="Group-8" fill="#40B6E0" transform="translate(1 7)">
      <path id="Fill-4" d="M4,5.5 C3.171,5.5 2.5,4.829 2.5,4 C2.5,3.171 3.171,2.5 4,2.5 C4.829,2.5 5.5,3.171 5.5,4 C5.5,4.829 4.829,5.5 4,5.5 L4,5.5 Z M6.632,3.581 L8,2.58 L7.295,1.42 L5.698,2.044 L4.935,1.625 L4.705,0 L3.295,0 L3.065,1.625 L2.302,2.044 L0.705,1.42 L0,2.58 L1.368,3.581 L1.368,4.418 L0,5.42 L0.705,6.58 L2.302,5.956 L3.065,6.375 L3.295,8 L4.705,8 L4.935,6.375 L5.698,5.956 L7.295,6.58 L8,5.42 L6.632,4.418 L6.632,3.581 Z"/>
      <path id="Fill-6" d="M4.5,4 C4.5,4.276 4.276,4.5 4,4.5 C3.724,4.5 3.5,4.276 3.5,4 C3.5,3.724 3.724,3.5 4,3.5 C4.276,3.5 4.5,3.724 4.5,4"/>
    </g>
  </g>
</svg>
