<svg xmlns="http://www.w3.org/2000/svg" width="16" height="16" viewBox="0 0 16 16">
  <g id="FolderPlugins" fill="none" fill-rule="evenodd" stroke="none" stroke-width="1">
    <path id="Fill-2" fill="#F4AF3D" d="M10,2 L8,4 L2,4 L2,7.051 C2.162,7.018 2.329,7 2.5,7 L3,7 L3,6 L14,6 L14,13 L12,13 L12,14 L15,14 L15,2 L10,2 Z"/>
    <path id="Fill-4" fill="#40B6E0" d="M7,13 L10,13 L10,10 L7,10 L7,13 Z M7,9 L7,8 L2.5,8 C1.672,8 1,8.672 1,9.5 L1,13.5 C1,14.328 1.672,15 2.5,15 L7,15 L7,14 L11,14 L11,9 L7,9 Z"/>
  </g>
</svg>
