<svg xmlns="http://www.w3.org/2000/svg" width="16" height="16" viewBox="0 0 16 16"><rect id="frame" width="16" height="16" fill="none"/><g fill="none" fill-rule="evenodd"><path fill="#92D13D" d="M4.392 1.743l.357-.357a1.33 1.33 0 0 1 1.942.075l4.943 5.761a1.323 1.323 0 0 1-.012 1.74l-4.926 5.583c-.507.57-1.388.599-1.93.057l-.363-.351a1.327 1.327 0 0 1-.08-1.786l2.95-3.537c.403-.484.408-1.181.017-1.677L4.294 3.506a1.317 1.317 0 0 1 .098-1.763z"/><path fill="#49691F" d="M7.272 8.928l-2.95 3.537a1.328 1.328 0 0 0 .081 1.786l.357.357a1.326 1.326 0 0 0 1.93-.057l1.066-1.21a5.828 5.828 0 0 0 .628-2.645 5.867 5.867 0 0 0-.933-3.18 1.32 1.32 0 0 1-.179 1.412z"/></g></svg>