<svg xmlns="http://www.w3.org/2000/svg" width="12" height="12" viewBox="0 0 12 12"><rect id="frame" width="12" height="12" fill="none"/><g fill="none" fill-rule="evenodd"><path fill="#9AA7B0" d="M7.333 7h3.334L12 9.5 10.667 12H7.333L6 9.5 7.333 7zm1.334.969c-.761.145-1.334.775-1.334 1.531 0 .863.747 1.563 1.667 1.563s1.667-.7 1.667-1.563c0-.756-.573-1.386-1.334-1.531v-.344h-.666v.344zm0 .647V9.5h.666v-.884c.389.129.667.476.667.884 0 .518-.448.938-1 .938s-1-.42-1-.938c0-.408.278-.755.667-.884z"/><path fill="#62B543" fill-opacity=".7" d="M5.785 11.046c-1.012-.012-2-.08-2.83-.042 0 0-.433.024-.868.096 0 0 .164-.07.375-.143 1.288-.445 2.066-.623 2.815-.91l.508.999zM9.73 6a6.16 6.16 0 0 0 .602-1.744A6.354 6.354 0 0 1 9.385 6H6.778L5.206 9.095c-1.423.514-3.918 1.01-3.918 1.011l-.104-.055c-1.738-.845-1.786-4.606 1.37-5.818 1.383-.532 2.706-.24 4.201-.596C8.35 3.258 10.197 2.059 10.947.5c.632 1.871 1.358 4.534.919 6.767L11.222 6H9.73z"/></g></svg>