<svg xmlns="http://www.w3.org/2000/svg" xmlns:xlink="http://www.w3.org/1999/xlink" width="32" height="32" viewBox="0 0 32 32"><rect id="frame" width="32" height="32" fill="none"/><defs><linearGradient id="a" x1="9.154" y1="29.752" x2="28.524" y2="2.102" gradientUnits="userSpaceOnUse"><stop offset="0" stop-color="#c27d1b"/><stop offset="1" stop-color="#59bd28"/></linearGradient><linearGradient id="b" x1="31.55" y1="20.12" x2="8.989" y2="28.258" gradientUnits="userSpaceOnUse"><stop offset="0" stop-color="#4d75f6"/><stop offset="1" stop-color="#ff9e00"/></linearGradient><linearGradient id="c" x1="1.922" y1="4.398" x2="26.387" y2="21.265" gradientUnits="userSpaceOnUse"><stop offset="0" stop-color="#ff4267"/><stop offset="1" stop-color="#3b67f6"/></linearGradient></defs><path fill="url(#a)" d="M27.656 1.5L4.406 21.688l4.909 8.242 11.448-1.907L30.844 6.469 27.656 1.5z"/><path fill="url(#b)" d="M29.831 16.535l-12.268 1.684L9.315 29.93l8.56 2.07L32 21.219l-2.169-4.684z"/><path fill="url(#c)" d="M29.844 16.531L16 4 4.906 0 0 7.514l3.688 8.205 19.625 6.344 6.531-5.532z"/><g><path d="M3 5h26v22H3z"/><path fill="#fff" d="M5 22h6v2H5z"/><path d="M16 7v2.178h.66a2.32 2.32 0 1 1 0 4.639H16v4.336h-.67a2.32 2.32 0 1 0 0 4.639H16V25h11V7z" fill="#fff"/><path d="M18 22h5v2h-5z"/></g></svg>