<svg xmlns="http://www.w3.org/2000/svg" xmlns:xlink="http://www.w3.org/1999/xlink" width="128" height="128" viewBox="0 0 128 128"><rect id="frame" width="128" height="128" fill="none"/><defs><linearGradient id="a" x1="36.617" y1="119.009" x2="114.094" y2="8.406" gradientUnits="userSpaceOnUse"><stop offset="0" stop-color="#c27d1b"/><stop offset="1" stop-color="#59bd28"/></linearGradient><linearGradient id="b" x1="126.201" y1="80.48" x2="35.955" y2="113.034" gradientUnits="userSpaceOnUse"><stop offset="0" stop-color="#4d75f6"/><stop offset="1" stop-color="#ff9e00"/></linearGradient><linearGradient id="c" x1="7.688" y1="17.591" x2="105.547" y2="85.058" gradientUnits="userSpaceOnUse"><stop offset="0" stop-color="#ff4267"/><stop offset="1" stop-color="#3b67f6"/></linearGradient></defs><path fill="url(#a)" d="M110.625 6l-93 80.75 19.637 32.97 45.789-7.626 40.324-86.219L110.625 6z"/><path fill="url(#b)" d="M119.325 66.139L70.25 72.875 37.262 119.72 71.5 128 128 84.875l-8.675-18.736z"/><path fill="url(#c)" d="M119.375 66.125L64 16 19.625 0 0 30.056l14.75 32.819 78.5 25.375 26.125-22.125z"/><g><path d="M12 21h104v86H12z"/><path fill="#fff" d="M20 91h21v6H20z"/><path d="M64 27.167v10.564h2.4a9.279 9.279 0 0 1 0 18.558H64v15.382h-2.4a9.279 9.279 0 0 0 0 18.558H64v10.6h45.971V27.167z" fill="#fff"/><path d="M71 91h21v6H71z"/></g></svg>