<svg xmlns="http://www.w3.org/2000/svg" xmlns:xlink="http://www.w3.org/1999/xlink" width="80" height="80" viewBox="0 0 80 80"><rect id="frame" width="80" height="80" fill="none"/><defs><linearGradient id="a" x1="22.886" y1="74.38" x2="71.309" y2="5.254" gradientUnits="userSpaceOnUse"><stop offset="0" stop-color="#c27d1b"/><stop offset="1" stop-color="#59bd28"/></linearGradient><linearGradient id="b" x1="78.876" y1="50.3" x2="22.472" y2="70.646" gradientUnits="userSpaceOnUse"><stop offset="0" stop-color="#4d75f6"/><stop offset="1" stop-color="#ff9e00"/></linearGradient><linearGradient id="c" x1="4.805" y1="10.995" x2="65.967" y2="53.161" gradientUnits="userSpaceOnUse"><stop offset="0" stop-color="#ff4267"/><stop offset="1" stop-color="#3b67f6"/></linearGradient></defs><path fill="url(#a)" d="M69.141 3.75L11.016 54.219l12.273 20.606 28.618-4.766 25.202-53.887L69.141 3.75z"/><path fill="url(#b)" d="M74.578 41.337l-30.672 4.21-20.617 29.278L44.688 80 80 53.047l-5.422-11.71z"/><path fill="url(#c)" d="M74.609 41.328L40 10 12.266 0 0 18.785l9.219 20.512 49.062 15.859 16.328-13.828z"/><g><path d="M8 14h64v52H8z"/><path fill="#fff" d="M13 56h13v4H13z"/><path d="M40 17v6.811h2.054a5.71 5.71 0 0 1 0 11.42H40v9.048h-1.944a5.71 5.71 0 1 0 0 11.42H40V63h29V17z" fill="#fff"/><path d="M44 56h13v4H44z"/></g></svg>