<svg xmlns="http://www.w3.org/2000/svg" xmlns:xlink="http://www.w3.org/1999/xlink" width="64" height="64" viewBox="0 0 64 64"><rect id="frame" width="64" height="64" fill="none"/><defs><linearGradient id="a" x1="18.309" y1="59.504" x2="57.047" y2="4.203" gradientUnits="userSpaceOnUse"><stop offset="0" stop-color="#c27d1b"/><stop offset="1" stop-color="#59bd28"/></linearGradient><linearGradient id="b" x1="63.101" y1="40.24" x2="17.978" y2="56.517" gradientUnits="userSpaceOnUse"><stop offset="0" stop-color="#4d75f6"/><stop offset="1" stop-color="#ff9e00"/></linearGradient><linearGradient id="c" x1="3.844" y1="8.796" x2="52.773" y2="42.529" gradientUnits="userSpaceOnUse"><stop offset="0" stop-color="#ff4267"/><stop offset="1" stop-color="#3b67f6"/></linearGradient></defs><path fill="url(#a)" d="M55.313 3l-46.5 40.375 9.818 16.485 22.894-3.813 20.163-43.109L55.313 3z"/><path fill="url(#b)" d="M59.663 33.069l-24.538 3.369L18.631 59.86 35.75 64 64 42.438l-4.337-9.369z"/><path fill="url(#c)" d="M59.688 33.063L32 8 9.813 0 0 15.028l7.375 16.41 39.25 12.687 13.063-11.062z"/><g><path d="M6 11h52v42H6z"/><path fill="#fff" d="M10 46h10v3H10z"/><path d="M32 13v5.866h1.32a4.639 4.639 0 1 1 0 9.278H32v7.692h-1.35a4.639 4.639 0 1 0 0 9.278H32V51h24V13z" fill="#fff"/><path d="M35 46h10v3H35z"/></g></svg>