<svg xmlns="http://www.w3.org/2000/svg" width="16" height="16" viewBox="0 0 16 16">
  <g fill="none" fill-rule="evenodd">
    <path fill="#9AA7B0" fill-opacity=".6" d="M15,8 C15,11.866 11.866,15 8,15 C4.134,15 1,11.866 1,8 C1,4.134 4.134,1 8,1 C11.866,1 15,4.134 15,8"/>
    <path fill="#231F20" fill-opacity=".7" d="M2.7085,3.4199 L1.0005,3.4199 L1.0005,5.0659 L2.7855,5.0659 C3.5055,5.0659 3.9425,4.7829 3.9425,4.2419 L3.9425,4.2259 C3.9425,3.7199 3.5395,3.4199 2.7085,3.4199 Z M3.6085,1.6969 C3.6085,1.2259 3.2305,0.9349 2.5545,0.9349 L1.0005,0.9349 L1.0005,2.5279 L2.4785,2.5279 C3.1545,2.5279 3.6085,2.2629 3.6085,1.7139 L3.6085,1.6969 Z M0.0005,-0.0001 L2.6915,-0.0001 C3.3775,-0.0001 3.9175,0.1889 4.2605,0.5319 C4.5255,0.7969 4.6625,1.1229 4.6625,1.5249 L4.6625,1.5429 C4.6625,2.2629 4.2515,2.6489 3.8065,2.8799 C4.5085,3.1199 4.9975,3.5239 4.9975,4.3369 L4.9975,4.3549 C4.9975,5.4259 4.1135,5.9999 2.7765,5.9999 L0.0005,5.9999 L0.0005,-0.0001 Z" transform="translate(6 5)"/>
  </g>
</svg>
