<svg xmlns="http://www.w3.org/2000/svg" width="16" height="16" viewBox="0 0 16 16">
  <g fill="none" fill-rule="evenodd">
    <path fill="#40B6E0" fill-opacity=".6" d="M15,8 C15,11.866 11.866,15 8,15 C4.134,15 1,11.866 1,8 C1,4.134 4.134,1 8,1 C11.866,1 15,4.134 15,8"/>
    <path fill="#231F20" fill-opacity=".7" d="M5.9316 2.2637L7.1496 1.5607C6.4176.6177 5.2856-.0003 3.9996-.0003 2.7286-.0003 1.6096.6047.8756 1.5297.8756 1.5297 3.3826-.9123 5.9316 2.2637M4.54 6.5498L4.54 7.9458C6.491 7.6798 8 6.0248 8 3.9998 8 3.4368 7.881 2.9018 7.67 2.4148 7.67 2.4148 8.912 5.1798 4.54 6.5498M1.5674 3.083L.3484 2.38C.1284 2.876.0004 3.422.0004 4 .0004 6.052 1.5494 7.723 3.5404 7.954 3.5404 7.954.1474 7.323 1.5674 3.083" transform="translate(4 4)"/>
  </g>
</svg>
