<svg xmlns="http://www.w3.org/2000/svg" width="16" height="16" viewBox="0 0 16 16">
  <g fill="none" fill-rule="evenodd">
    <path fill="#62B543" fill-opacity=".6" d="M7.9846,4 L6.6966,2.711 C6.3046,2.32 5.5326,2 4.9786,2 L1.0506,2 C1.0226,2 1.0006,2.023 1.0006,2.051 L1.0006,13 L4.0006,13 L4.0006,7 L15.0006,7 L15.0006,4 L7.9846,4 Z"/>
    <polygon fill="#9AA7B0" points="10.995 11.454 15.995 11.454 15.995 8.003 10.995 8.003"/>
    <polygon fill="#F4AF3D" fill-opacity=".7" points="5 11.454 10 11.454 10 8.003 5 8.003"/>
    <polygon fill="#62B543" fill-opacity=".7" points="10.995 16 15.995 16 15.995 12.452 10.995 12.452"/>
    <polygon fill="#9AA7B0" points="5 16 10 16 10 12.452 5 12.452"/>
  </g>
</svg>
