<svg xmlns="http://www.w3.org/2000/svg" width="16" height="16" viewBox="0 0 16 16">
  <g fill="none" fill-rule="evenodd">
    <path fill="#9AA7B0" fill-opacity=".6" d="M12.5,8 C12.5,10.485 10.485,12.5 8,12.5 C5.515,12.5 3.5,10.485 3.5,8 C3.5,5.515 5.515,3.5 8,3.5 C10.485,3.5 12.5,5.515 12.5,8"/>
    <polygon fill="#231F20" fill-opacity=".7" points=".5 5.998 .5 0 1.5 0 4.5 4.3 4.5 .002 5.5 .002 5.5 5.998 4.5 6 1.5 1.8 1.5 5.998" transform="translate(5 5)"/>
    <path fill="#9AA7B0" fill-opacity=".8" d="M8,13.4648 C4.981,13.4648 2.535,11.0178 2.535,7.9998 C2.535,4.9818 4.981,2.5348 8,2.5348 C11.019,2.5348 13.465,4.9818 13.465,7.9998 C13.465,11.0178 11.019,13.4648 8,13.4648 M8,0.9998 C4.134,0.9998 1,4.1338 1,7.9998 C1,11.8658 4.134,14.9998 8,14.9998 C11.866,14.9998 15,11.8658 15,7.9998 C15,4.1338 11.866,0.9998 8,0.9998"/>
  </g>
</svg>
