<svg xmlns="http://www.w3.org/2000/svg" width="16" height="16" viewBox="0 0 16 16">
  <g fill="none" fill-rule="evenodd">
    <path fill="#B99BF8" fill-opacity=".6" d="M12.5,10.1973 C12.5,11.4643 11.464,12.5003 10.197,12.5003 L3.803,12.5003 C2.536,12.5003 1.5,11.4643 1.5,10.1973 L1.5,3.8023 C1.5,2.5363 2.536,1.5003 3.803,1.5003 L10.197,1.5003 C11.464,1.5003 12.5,2.5363 12.5,3.8023 L12.5,10.1973 Z M11.068,0.0003 L2.932,0.0003 C1.318,0.0003 0,1.3183 0,2.9313 L0,11.0683 C0,12.6813 1.318,14.0003 2.932,14.0003 L11.068,14.0003 C12.682,14.0003 14,12.6813 14,11.0683 L14,2.9313 C14,1.3183 12.682,0.0003 11.068,0.0003 Z" transform="translate(1 1)"/>
    <polygon fill="#AFB1B3" points="5.5 1 5.5 0 .5 0 .5 1 2.5 1 2.5 6 3.5 6 3.5 1" transform="translate(5 5)"/>
  </g>
</svg>
