<svg xmlns="http://www.w3.org/2000/svg" width="16" height="16" viewBox="0 0 16 16"><rect id="frame" width="16" height="16" fill="none"/><path fill="#6E6E6E" d="M9 7.5a.5.5 0 1 1-1 0 .5.5 0 0 1 1 0zm1 .5h5V7h-5v1zM2 8h5V7H2v1zm6 6h1V9H8v5zm0-8h1V1H8v5zm-.5 5.358A3.985 3.985 0 0 1 4.642 8.5H3.096A5.496 5.496 0 0 0 7.5 12.904v-1.546zM12.358 8.5A3.985 3.985 0 0 1 9.5 11.358v1.546A5.496 5.496 0 0 0 13.904 8.5h-1.546zm-7.716-2A3.985 3.985 0 0 1 7.5 3.642V2.096A5.496 5.496 0 0 0 3.096 6.5h1.546zM9.5 2.096A5.496 5.496 0 0 1 13.904 6.5h-1.546A3.985 3.985 0 0 0 9.5 3.642V2.096z" fill-rule="evenodd"/></svg>