<svg width="16" height="16" viewBox="0 0 16 16" fill="none" xmlns="http://www.w3.org/2000/svg">
    <g clip-path="url(#clip0)">
        <path d="M16 4.27499L15.225 10.175L14.825 12.8L9.55005 16L3.02502 11L10.975 2.67499L16 4.27499Z" fill="url(#paint0_linear)"/>
        <path d="M9.55005 14.675L9.57505 15.15H10.1L10.3 14.875L9.55005 14.675Z" fill="url(#paint1_linear)"/>
        <path d="M14.425 12.5L15.225 10.175L15.7 13.55L14.425 12.5Z" fill="url(#paint2_linear)"/>
        <path d="M16 4.275L6.775 10.55L2.625 11.2L10.975 0.25L16 4.275Z" fill="url(#paint3_linear)"/>
        <path d="M9.22498 2.625L10.975 0.25L10.675 5.1L9.22498 2.625Z" fill="url(#paint4_linear)"/>
        <path d="M2.57505 11.15L0.175049 9.42499L2.47505 7.14999L9.32506 9.92499L2.57505 11.15Z" fill="url(#paint5_linear)"/>
        <path d="M6.50006 13.85L1.30005 15.6L2.60005 11.925L8.97506 9.47501L12.5251 11.65L6.50006 13.85Z" fill="url(#paint6_linear)"/>
        <path d="M5.02494 3.375L2.32495 0L7.54994 0.625L8.14994 2.325L5.02494 3.375Z" fill="url(#paint7_linear)"/>
        <path d="M15.225 10.175L7.55 0.625L4.72502 0.65L3.15002 5.3L13.125 10.775L11.45 13.275L14.825 12.8L15.225 10.175Z" fill="url(#paint8_linear)"/>
        <path d="M3.12498 5.575L1.34998 5.525L2.32498 0L4.72498 0.675L3.12498 5.575Z" fill="url(#paint9_linear)"/>
        <path d="M13.125 10.775L8.65 9.82501L0 6.35001L3.175 5.35001L13.125 10.775Z" fill="url(#paint10_linear)"/>
        <path d="M4.45004 1.5L3.17505 5.35L9.45006 8.775L9.57506 8.8L12.1501 6.875L4.45004 1.5Z" fill="url(#paint11_linear)"/>
        <path d="M2.325 0L0 6.35L2.95 5.575L3.175 5.35L4.45 1.5L2.325 0Z" fill="url(#paint12_linear)"/>
        <path d="M1.30005 15.6L3.27505 7.675L8.65006 9.825L1.30005 15.6Z" fill="url(#paint13_linear)"/>
        <path d="M8.65006 9.82501L5.65006 7.22501L1.57505 6.85001L0.175049 9.42501L3.10005 8.25001L3.12505 8.22501L1.30005 15.6L8.65006 9.82501Z" fill="url(#paint14_linear)"/>
        <path d="M13.125 10.775L10.35 14.875L6.5 13.875L8.65 9.825L13.125 10.775Z" fill="url(#paint15_linear)"/>
        <path d="M13.125 10.775L8.65 9.82501L0 6.35001L3.175 5.35001L13.125 10.775Z" fill="url(#paint16_linear)"/>
        <path d="M3.175 5.35001L0 6.35001L9.45 8.77501L3.175 5.35001Z" fill="url(#paint17_linear)"/>
        <path d="M14.825 12.8L11.35 13.275L9.55005 16L15.7 13.55L14.825 12.8Z" fill="url(#paint18_linear)"/>
        <path d="M9.54998 16L11.4 13.3L6.47498 13.9L9.54998 16Z" fill="url(#paint19_linear)"/>
        <path d="M5.94995 6.85L9.42495 8.75L12.45 6.7L9.17495 2.625L5.94995 6.85Z" fill="url(#paint20_linear)"/>
        <path d="M12.15 6.875L8.07495 4.02502L5.94995 6.85L9.42495 8.75L12.025 6.975L12.15 6.875Z" fill="url(#paint21_linear)"/>
        <path d="M13 3H3V13H13V3Z" fill="url(#paint22_linear)"/>
        <g opacity="0.3">
            <g opacity="0.3">
                <path opacity="0.3" d="M12.825 13L13 12.975V10.8625L11.5375 13H12.825Z" fill="#231F20"/>
                <path opacity="0.3" d="M9.4 3H4L3.2 5.3375L12.575 10.475L3.25 5.3875L3 5.4625V7.525L8.65 9.8L13 10.7375V10.7125V7.475L9.4 3Z" fill="url(#paint23_linear)"/>
                <path opacity="0.3" d="M3.99995 3L3.19995 5.3375L12.9999 10.7125V7.475L9.39994 3H3.99995Z" fill="url(#paint24_linear)"/>
                <path opacity="0.3" d="M3 3V5.6125H3.0125L3.2375 5.375L4.0125 3H3Z" fill="#F9ED32"/>
            </g>
            <path opacity="0.3" d="M3 5.4625V7.525L8.65 9.8L13 10.7375V10.7125L3.25 5.3875L3 5.4625Z" fill="url(#paint25_linear)"/>
            <path opacity="0.3" d="M3 7.1125L9.4375 8.7625L3.25 5.3875L3 5.4625V7.1125Z" fill="url(#paint26_linear)"/>
            <path opacity="0.3" d="M6.93744 13L8.64994 9.8L4.57495 13H6.93744Z" fill="url(#paint27_linear)"/>
            <path opacity="0.3" d="M3 9.00001L3.1875 8.22501L3.1625 8.25001L3 8.31251V9.00001Z" fill="#F7941D"/>
            <path opacity="0.3" d="M3 8.31249L3.1625 8.24999L3.1875 8.22499L3 8.99999V13H4.575L8.65 9.79999L3 7.52499V8.31249Z" fill="url(#paint28_linear)"/>
            <path opacity="0.3" d="M6.9375 13H11.5375L13 10.8625V10.7375L8.65 9.8L6.9375 13Z" fill="url(#paint29_linear)"/>
            <g opacity="0.3">
                <path opacity="0.3" d="M12.3875 6.7125L13 6.3V3H9.40002L12.3875 6.7125Z" fill="url(#paint30_linear)"/>
            </g>
        </g>
        <path d="M8 11.1H4.25V11.7H8V11.1Z" fill="white"/>
        <path d="M6 4.74667V4H4V4.74667H4.59459V7.25335H4V8H6V7.25335H5.45945V4.74667H6Z" fill="white"/>
        <path d="M7.75 8C7.45 8 7.2 7.94735 7 7.8421C6.8 7.73685 6.65 7.57895 6.5 7.42105L7 6.78945C7.1 6.89475 7.2 7 7.3 7.05265C7.4 7.10525 7.55 7.1579 7.65 7.1579C7.8 7.1579 7.95 7.10525 8 7C8.1 6.89475 8.15 6.73685 8.15 6.5263V4H9V6.57895C9 6.78945 8.95 7 8.9 7.21055C8.85 7.3684 8.75 7.5263 8.65 7.6316C8.55 7.73685 8.4 7.8421 8.25 7.89475C8.15 7.94735 7.95 8 7.75 8Z" fill="white"/>
    </g>
    <defs>
        <linearGradient id="paint0_linear" x1="9.283" y1="4.79759" x2="9.9591" y2="13.2336" gradientUnits="userSpaceOnUse">
            <stop offset="0.0998726" stop-color="#087CFA"/>
            <stop offset="0.4602" stop-color="#079AF6"/>
            <stop offset="0.8454" stop-color="#07C3F2"/>
        </linearGradient>
        <linearGradient id="paint1_linear" x1="9.94645" y1="15.0289" x2="10.079" y2="15.2212" gradientUnits="userSpaceOnUse">
            <stop offset="0.2859" stop-color="#087CFA"/>
            <stop offset="1" stop-color="#079AF6"/>
        </linearGradient>
        <linearGradient id="paint2_linear" x1="14.7837" y1="13.8748" x2="16.272" y2="9.3905" gradientUnits="userSpaceOnUse">
            <stop offset="0.1184" stop-color="#27A6F6"/>
            <stop offset="0.2418" stop-color="#2F99F5"/>
            <stop offset="0.9197" stop-color="#5753F2"/>
        </linearGradient>
        <linearGradient id="paint3_linear" x1="16.3145" y1="0.91265" x2="7.0126" y2="6.53745" gradientUnits="userSpaceOnUse">
            <stop offset="0.286" stop-color="#0AEFFF"/>
            <stop offset="0.3292" stop-color="#09DEFA"/>
            <stop offset="0.3966" stop-color="#07CAF4"/>
            <stop offset="0.442" stop-color="#07C3F2"/>
            <stop offset="0.5015" stop-color="#07ACF5"/>
            <stop offset="0.5749" stop-color="#0897F7"/>
            <stop offset="0.6568" stop-color="#0888F9"/>
            <stop offset="0.7528" stop-color="#087FFA"/>
            <stop offset="0.8981" stop-color="#087CFA"/>
        </linearGradient>
        <linearGradient id="paint4_linear" x1="10.0904" y1="-0.1152" x2="10.0904" y2="6.0546" gradientUnits="userSpaceOnUse">
            <stop offset="0.207" stop-color="#02C5FE"/>
            <stop offset="0.317" stop-color="#04ACFD"/>
            <stop offset="0.4435" stop-color="#0697FB"/>
            <stop offset="0.5845" stop-color="#0788FB"/>
            <stop offset="0.7499" stop-color="#087FFA"/>
            <stop offset="1" stop-color="#087CFA"/>
        </linearGradient>
        <linearGradient id="paint5_linear" x1="2.58075" y1="7.64679" x2="3.96035" y2="8.93909" gradientUnits="userSpaceOnUse">
            <stop offset="0" stop-color="#FF581C"/>
            <stop offset="0.1918" stop-color="#FF5124"/>
            <stop offset="0.4947" stop-color="#FE3F3B"/>
            <stop offset="0.7851" stop-color="#FE2857"/>
        </linearGradient>
        <linearGradient id="paint6_linear" x1="4.36817" y1="10.894" x2="6.69366" y2="13.3983" gradientUnits="userSpaceOnUse">
            <stop offset="0.4574" stop-color="#FF149D"/>
            <stop offset="0.536" stop-color="#EF1AB2"/>
            <stop offset="0.6983" stop-color="#C82BE9"/>
            <stop offset="0.7574" stop-color="#B831FF"/>
            <stop offset="0.8388" stop-color="#A33AFE"/>
            <stop offset="1" stop-color="#6E51FD"/>
        </linearGradient>
        <linearGradient id="paint7_linear" x1="4.8713" y1="-0.4118" x2="5.61224" y2="2.82977" gradientUnits="userSpaceOnUse">
            <stop offset="0.0276342" stop-color="#FFDE17"/>
            <stop offset="0.276" stop-color="#FDB60D"/>
            <stop offset="0.5939" stop-color="#FC801D"/>
            <stop offset="0.6532" stop-color="#FC7A25"/>
            <stop offset="0.7469" stop-color="#FD6A3C"/>
            <stop offset="0.8628" stop-color="#FE4F61"/>
            <stop offset="0.976" stop-color="#FF318C"/>
        </linearGradient>
        <linearGradient id="paint8_linear" x1="4.3387" y1="2.84468" x2="15.5217" y2="11.7229" gradientUnits="userSpaceOnUse">
            <stop offset="0" stop-color="#FE2857"/>
            <stop offset="0.0557468" stop-color="#FE255F"/>
            <stop offset="0.1437" stop-color="#FF1F76"/>
            <stop offset="0.2282" stop-color="#FF1692"/>
            <stop offset="0.289" stop-color="#F11BA7"/>
            <stop offset="0.4143" stop-color="#CD29DE"/>
            <stop offset="0.4828" stop-color="#B831FF"/>
            <stop offset="0.581" stop-color="#7A4CFD"/>
            <stop offset="0.748" stop-color="#087CFA"/>
            <stop offset="0.9745" stop-color="#07A5F5"/>
        </linearGradient>
        <linearGradient id="paint9_linear" x1="1.68405" y1="2.47845" x2="3.94988" y2="3.512" gradientUnits="userSpaceOnUse">
            <stop offset="0.2889" stop-color="#FFDE17"/>
            <stop offset="0.9874" stop-color="white"/>
        </linearGradient>
        <linearGradient id="paint10_linear" x1="1.22933" y1="5.65486" x2="12.318" y2="11.4237" gradientUnits="userSpaceOnUse">
            <stop offset="0.2464" stop-color="#FE2857"/>
            <stop offset="0.292" stop-color="#FE265F"/>
            <stop offset="0.3641" stop-color="#FE1F76"/>
            <stop offset="0.4534" stop-color="#FF159B"/>
            <stop offset="0.4574" stop-color="#FF149D"/>
            <stop offset="0.536" stop-color="#EF1AB2"/>
            <stop offset="0.6983" stop-color="#C82BE9"/>
            <stop offset="0.7574" stop-color="#B831FF"/>
            <stop offset="0.811" stop-color="#A33AFE"/>
            <stop offset="0.9215" stop-color="#6C52FD"/>
            <stop offset="1" stop-color="#4164FC"/>
        </linearGradient>
        <linearGradient id="paint11_linear" x1="3.66732" y1="3.2625" x2="9.92816" y2="7.73455" gradientUnits="userSpaceOnUse">
            <stop offset="0.00823305" stop-color="#FC35E3"/>
            <stop offset="0.2164" stop-color="#F12CD5"/>
            <stop offset="0.4105" stop-color="#EB27CD"/>
            <stop offset="0.4984" stop-color="#DE2ADA"/>
            <stop offset="0.7777" stop-color="#B831FF"/>
            <stop offset="1" stop-color="#6D51FD"/>
        </linearGradient>
        <linearGradient id="paint12_linear" x1="1.12162" y1="3.14545" x2="3.28312" y2="4.5318" gradientUnits="userSpaceOnUse">
            <stop offset="0.0433729" stop-color="#FFD25F"/>
            <stop offset="0.2889" stop-color="#FEBC9B"/>
            <stop offset="0.6173" stop-color="#FC9CF0"/>
            <stop offset="1" stop-color="#FD5ED7"/>
        </linearGradient>
        <linearGradient id="paint13_linear" x1="-0.649526" y1="7.2123" x2="9.35786" y2="17.0065" gradientUnits="userSpaceOnUse">
            <stop offset="0.0226617" stop-color="#FC801D"/>
            <stop offset="0.2467" stop-color="#FC7E20"/>
            <stop offset="0.276" stop-color="#FC772A"/>
            <stop offset="0.3253" stop-color="#FD6444"/>
            <stop offset="0.3881" stop-color="#FE466E"/>
            <stop offset="0.4273" stop-color="#FF318C"/>
            <stop offset="0.4924" stop-color="#EA3896"/>
            <stop offset="0.6276" stop-color="#B248AE"/>
            <stop offset="0.8194" stop-color="#5A63D6"/>
            <stop offset="0.9859" stop-color="#087CFA"/>
        </linearGradient>
        <linearGradient id="paint14_linear" x1="1.80373" y1="7.23956" x2="4.96203" y2="12.6972" gradientUnits="userSpaceOnUse">
            <stop offset="0.00442798" stop-color="#FFDE17"/>
            <stop offset="0.0525354" stop-color="#FECB12"/>
            <stop offset="0.1093" stop-color="#FDBB0E"/>
            <stop offset="0.1542" stop-color="#FDB60D"/>
            <stop offset="0.2351" stop-color="#FDAE0F"/>
            <stop offset="0.3571" stop-color="#FC9A15"/>
            <stop offset="0.4724" stop-color="#FC801D"/>
            <stop offset="1" stop-color="#FE4176"/>
        </linearGradient>
        <linearGradient id="paint15_linear" x1="8.3815" y1="10.0531" x2="11.3017" y2="14.7053" gradientUnits="userSpaceOnUse">
            <stop offset="0.0211218" stop-color="#B149AF"/>
            <stop offset="0.0831639" stop-color="#9153BD"/>
            <stop offset="0.2186" stop-color="#3F6BE2"/>
            <stop offset="0.3042" stop-color="#087CFA"/>
            <stop offset="0.7942" stop-color="#07C3F2"/>
        </linearGradient>
        <linearGradient id="paint16_linear" x1="1.22933" y1="5.65486" x2="12.318" y2="11.4237" gradientUnits="userSpaceOnUse">
            <stop offset="0.2464" stop-color="#FE2857"/>
            <stop offset="0.292" stop-color="#FE265F"/>
            <stop offset="0.3641" stop-color="#FE1F76"/>
            <stop offset="0.4534" stop-color="#FF159B"/>
            <stop offset="0.4574" stop-color="#FF149D"/>
            <stop offset="0.536" stop-color="#EF1AB2"/>
            <stop offset="0.6983" stop-color="#C82BE9"/>
            <stop offset="0.7574" stop-color="#B831FF"/>
            <stop offset="0.811" stop-color="#A33AFE"/>
            <stop offset="0.9215" stop-color="#6C52FD"/>
            <stop offset="1" stop-color="#4164FC"/>
        </linearGradient>
        <linearGradient id="paint17_linear" x1="2.2458" y1="6.17696" x2="7.36085" y2="9.02211" gradientUnits="userSpaceOnUse">
            <stop offset="0.00629908" stop-color="#FF45ED"/>
            <stop offset="0.1766" stop-color="#FF35D8"/>
            <stop offset="0.3352" stop-color="#FF24C0"/>
            <stop offset="0.7349" stop-color="#EA23CA"/>
            <stop offset="1" stop-color="#D923D1"/>
        </linearGradient>
        <linearGradient id="paint18_linear" x1="13.8608" y1="11.5618" x2="12.1853" y2="15.9121" gradientUnits="userSpaceOnUse">
            <stop offset="0.2157" stop-color="#07C3F2"/>
            <stop offset="0.3237" stop-color="#04B1EC"/>
            <stop offset="0.4576" stop-color="#01A1E7"/>
            <stop offset="0.5613" stop-color="#009BE5"/>
            <stop offset="0.5745" stop-color="#0198E7"/>
            <stop offset="0.6778" stop-color="#058AF1"/>
            <stop offset="0.7992" stop-color="#0781F7"/>
            <stop offset="0.9829" stop-color="#087EF9"/>
        </linearGradient>
        <linearGradient id="paint19_linear" x1="6.85583" y1="13.3514" x2="10.6918" y2="14.7228" gradientUnits="userSpaceOnUse">
            <stop offset="0.1529" stop-color="#087CFA"/>
            <stop offset="0.6343" stop-color="#009AE5"/>
            <stop offset="1" stop-color="#07C3F2"/>
        </linearGradient>
        <linearGradient id="paint20_linear" x1="9.95415" y1="3.2479" x2="8.76205" y2="8.73815" gradientUnits="userSpaceOnUse">
            <stop offset="0" stop-color="#FF188D"/>
            <stop offset="0.3188" stop-color="#D82EC8"/>
            <stop offset="0.4411" stop-color="#CC30CC"/>
            <stop offset="0.6628" stop-color="#AC35D7"/>
            <stop offset="0.8981" stop-color="#833CE5"/>
        </linearGradient>
        <linearGradient id="paint21_linear" x1="7.4061" y1="4.5426" x2="9.73155" y2="7.8221" gradientUnits="userSpaceOnUse">
            <stop offset="0" stop-color="#FF188D"/>
            <stop offset="0.3188" stop-color="#D82EC8"/>
            <stop offset="0.4411" stop-color="#CC30CC"/>
            <stop offset="0.6628" stop-color="#AC35D7"/>
            <stop offset="0.8981" stop-color="#833CE5"/>
        </linearGradient>
        <linearGradient id="paint22_linear" x1="2.8457" y1="3.7979" x2="13.0824" y2="12.1435" gradientUnits="userSpaceOnUse">
            <stop offset="0" stop-color="#521713"/>
            <stop offset="0.080028" stop-color="#451310"/>
            <stop offset="0.2989" stop-color="#270B09"/>
            <stop offset="0.514" stop-color="#110504"/>
            <stop offset="0.7218" stop-color="#040101"/>
            <stop offset="0.9138"/>
        </linearGradient>
        <linearGradient id="paint23_linear" x1="3" y1="6.86875" x2="13" y2="6.86875" gradientUnits="userSpaceOnUse">
            <stop offset="0.2464" stop-color="#FE2857"/>
            <stop offset="0.292" stop-color="#FE265F"/>
            <stop offset="0.3641" stop-color="#FE1F76"/>
            <stop offset="0.4534" stop-color="#FF159B"/>
            <stop offset="0.4574" stop-color="#FF149D"/>
            <stop offset="0.536" stop-color="#EF1AB2"/>
            <stop offset="0.6983" stop-color="#C82BE9"/>
            <stop offset="0.7574" stop-color="#B831FF"/>
            <stop offset="0.811" stop-color="#A33AFE"/>
            <stop offset="0.9215" stop-color="#6C52FD"/>
            <stop offset="1" stop-color="#4164FC"/>
        </linearGradient>
        <linearGradient id="paint24_linear" x1="3.20452" y1="6.8574" x2="12.9999" y2="6.8574" gradientUnits="userSpaceOnUse">
            <stop offset="0.1118" stop-color="#F7941D"/>
            <stop offset="0.1374" stop-color="#F88C25"/>
            <stop offset="0.178" stop-color="#F9753A"/>
            <stop offset="0.2284" stop-color="#FB505D"/>
            <stop offset="0.2863" stop-color="#FF1C8C"/>
            <stop offset="0.2928" stop-color="#FF1692"/>
            <stop offset="0.4031" stop-color="#EA1A93"/>
            <stop offset="0.4677" stop-color="#DB1D93"/>
            <stop offset="0.5543" stop-color="#9F2895"/>
            <stop offset="0.7229" stop-color="#21409A"/>
            <stop offset="0.8671" stop-color="#222F5C"/>
            <stop offset="1" stop-color="#231F20"/>
        </linearGradient>
        <linearGradient id="paint25_linear" x1="3" y1="8.05965" x2="13" y2="8.05965" gradientUnits="userSpaceOnUse">
            <stop offset="0.0878508" stop-color="#FE2857"/>
            <stop offset="0.1283" stop-color="#FE265F"/>
            <stop offset="0.1923" stop-color="#FE1F76"/>
            <stop offset="0.2716" stop-color="#FF159B"/>
            <stop offset="0.2751" stop-color="#FF149D"/>
            <stop offset="0.4167" stop-color="#B21871"/>
            <stop offset="0.5427" stop-color="#741B4E"/>
            <stop offset="0.6489" stop-color="#481D35"/>
            <stop offset="0.731" stop-color="#2D1E26"/>
            <stop offset="0.7791" stop-color="#231F20"/>
        </linearGradient>
        <linearGradient id="paint26_linear" x1="3.96798" y1="6.6848" x2="7.88405" y2="8.86305" gradientUnits="userSpaceOnUse">
            <stop offset="0.00629908" stop-color="#FF45ED"/>
            <stop offset="0.1766" stop-color="#FF35D8"/>
            <stop offset="0.3352" stop-color="#FF24C0"/>
            <stop offset="0.451" stop-color="#EA24B0"/>
            <stop offset="0.6916" stop-color="#B22388"/>
            <stop offset="1" stop-color="#63214F"/>
        </linearGradient>
        <linearGradient id="paint27_linear" x1="4.57082" y1="11.3999" x2="8.64499" y2="11.3999" gradientUnits="userSpaceOnUse">
            <stop offset="0.4574" stop-color="#FF149D"/>
            <stop offset="0.536" stop-color="#EF1AB2"/>
            <stop offset="0.6983" stop-color="#C82BE9"/>
            <stop offset="0.7574" stop-color="#B831FF"/>
            <stop offset="0.8388" stop-color="#A33AFE"/>
            <stop offset="1" stop-color="#6E51FD"/>
        </linearGradient>
        <linearGradient id="paint28_linear" x1="3" y1="10.2637" x2="8.64505" y2="10.2637" gradientUnits="userSpaceOnUse">
            <stop offset="0.00442798" stop-color="#FFDE17"/>
            <stop offset="0.0386836" stop-color="#FECB12"/>
            <stop offset="0.0790912" stop-color="#FDBB0E"/>
            <stop offset="0.1111" stop-color="#FDB60D"/>
            <stop offset="0.1673" stop-color="#FDAE0F"/>
            <stop offset="0.2521" stop-color="#FC9A15"/>
            <stop offset="0.3323" stop-color="#FC801D"/>
            <stop offset="0.7374" stop-color="#BE1E2D"/>
        </linearGradient>
        <linearGradient id="paint29_linear" x1="6.9396" y1="11.3999" x2="13" y2="11.3999" gradientUnits="userSpaceOnUse">
            <stop offset="0" stop-color="#087CFA"/>
            <stop offset="0.7942" stop-color="#231F20"/>
        </linearGradient>
        <linearGradient id="paint30_linear" x1="17.0805" y1="12.5198" x2="10.7083" y2="2.20086" gradientUnits="userSpaceOnUse">
            <stop offset="0.3486" stop-color="#3595F3"/>
            <stop offset="0.4019" stop-color="#3490EB"/>
            <stop offset="0.4865" stop-color="#3284D4"/>
            <stop offset="0.5918" stop-color="#2F6FAE"/>
            <stop offset="0.7135" stop-color="#2B527B"/>
            <stop offset="0.8476" stop-color="#252D39"/>
            <stop offset="0.8951" stop-color="#231F20"/>
        </linearGradient>
        <clipPath id="clip0">
            <rect width="16" height="16" fill="white"/>
        </clipPath>
    </defs>
</svg>