<svg xmlns="http://www.w3.org/2000/svg" width="16" height="16" viewBox="0 0 16 16"><rect id="frame" width="16" height="16" fill="none"/><path fill="#9AA7B0" d="M9.5 8.5a.986.986 0 0 0-.847.5H3.904C2.987 9 2 8.396 2 7.069c0-1.176.765-1.967 1.904-1.967h.804v-.5C4.708 3.509 5.812 3 6.559 3c.96 0 1.545.388 1.761 1.145a4.17 4.17 0 0 1 .988-.14C9.007 2.739 8.034 2 6.559 2c-1.224 0-2.534.792-2.802 2.104C2.126 4.173 1 5.372 1 7.069 1 8.74 2.249 10 3.904 10h4.749c.175.293.481.5.847.5a1 1 0 1 0 0-2M15 9.943C15 11.631 13.752 13 12.212 13H6.371c-1.037 0-2.143-.987-2.332-2.25H7.95c.367.454.921.75 1.55.75a2 2 0 0 0 0-4c-.629 0-1.183.296-1.55.75H4.991c.403-.354.881-.578 1.363-.583C6.489 6.173 7.786 5 9.366 5c1.292 0 2.394.784 2.827 1.887l.019-.001c1.54 0 2.788 1.369 2.788 3.057" fill-rule="evenodd"/></svg>