<svg xmlns="http://www.w3.org/2000/svg" xmlns:xlink="http://www.w3.org/1999/xlink" width="16" height="16" viewBox="0 0 16 16"><rect id="frame" width="16" height="16" fill="none"/><defs><path id="a" d="M0 0h15v15H0z"/></defs><g fill="none" fill-rule="evenodd"><mask id="b" fill="#fff"><use xlink:href="#a"/></mask><path fill="#9AA7B0" d="M11.929 10a7.863 7.863 0 0 0 0-2h1.659c.07.323.112.656.112 1s-.042.677-.112 1h-1.66zm-1.212 3.358A8.524 8.524 0 0 0 11.733 11h1.503a4.732 4.732 0 0 1-2.52 2.358zm-1.44.322c-.095.005-.186.02-.283.02-.096 0-.188-.015-.282-.021A7.925 7.925 0 0 1 7.297 11h3.395a7.968 7.968 0 0 1-1.415 2.68zm1.465-10.42c.146.484.228.994.247 1.521A4.718 4.718 0 0 1 13.236 7h-1.503a8.21 8.21 0 0 0-.741-1.838 5.966 5.966 0 0 1-.32 1.782c.006.02.014.036.02.056h-.04c-.124.35-.278.684-.461 1h.725c.047.32.078.651.078 1s-.031.68-.078 1H8.314a5.856 5.856 0 0 1-2.09.859c.032.127.253 1.217 1.046 2.497a4.73 4.73 0 0 1-2.496-2.338l-.02-.037a5.989 5.989 0 0 1-1.495-.24A5.995 5.995 0 0 0 8.994 15 6.003 6.003 0 0 0 15 9a6.003 6.003 0 0 0-4.258-5.74zM5 9a4.005 4.005 0 0 1-3.975-4.43A5.03 5.03 0 0 0 3.63 1.885 4.987 4.987 0 0 0 8.835 3.87C8.94 4.225 9 4.605 9 5c0 2.205-1.795 4-4 4zm0-9C2.24 0 0 2.24 0 5s2.24 5 5 5 5-2.24 5-5-2.24-5-5-5zm1.5 4.875a.625.625 0 1 0 0 1.25.625.625 0 0 0 0-1.25zm-3 0a.625.625 0 1 0 0 1.25.625.625 0 0 0 0-1.25z" mask="url(#b)"/></g></svg>