<svg xmlns="http://www.w3.org/2000/svg" xmlns:xlink="http://www.w3.org/1999/xlink" width="16" height="16" viewBox="0 0 16 16"><rect id="frame" width="16" height="16" fill="none"/><defs><path id="a" d="M.268 0h9.464v10H.268z"/></defs><g fill="none" fill-rule="evenodd"><path fill="#9AA7B0" d="M11.929 10a7.863 7.863 0 0 0 0-2h1.659c.07.323.112.656.112 1s-.042.677-.112 1h-1.66zm-1.212 3.358A8.524 8.524 0 0 0 11.733 11h1.503a4.732 4.732 0 0 1-2.52 2.358zm-1.44.322c-.095.005-.186.02-.283.02-.096 0-.188-.015-.282-.021A7.925 7.925 0 0 1 7.297 11h3.395a7.968 7.968 0 0 1-1.415 2.68zm1.465-10.42c.146.484.228.994.247 1.521A4.714 4.714 0 0 1 13.236 7h-1.503a8.229 8.229 0 0 0-.741-1.838 5.966 5.966 0 0 1-.32 1.782c.006.02.014.036.02.056h-.04c-.124.35-.278.684-.461 1h.725c.047.321.078.651.078 1s-.031.679-.078 1H8.314a5.856 5.856 0 0 1-2.09.859c.032.127.253 1.217 1.046 2.497a4.73 4.73 0 0 1-2.496-2.338l-.02-.037a5.989 5.989 0 0 1-1.495-.24A5.995 5.995 0 0 0 8.994 15 6.003 6.003 0 0 0 15 9a6.003 6.003 0 0 0-4.258-5.74z"/><mask id="b" fill="#fff"><use xlink:href="#a"/></mask><path fill="#9AA7B0" d="M5 6.784a1.784 1.784 0 1 1 0-3.568 1.784 1.784 0 0 1 0 3.568zm3.244-1.306c.023-.157.048-.314.048-.478 0-.163-.025-.32-.048-.477l1.488-1.065A4.96 4.96 0 0 0 8.706 1.67l-1.672.759a3.306 3.306 0 0 0-.826-.486L6.029.108A5.06 5.06 0 0 0 5 0a5.06 5.06 0 0 0-1.029.108l-.179 1.836c-.302.12-.575.288-.826.486l-1.672-.76A4.96 4.96 0 0 0 .268 3.459l1.488 1.065c-.023.157-.048.314-.048.477 0 .164.025.32.048.478L.268 6.542a4.95 4.95 0 0 0 1.026 1.787l1.672-.76c.251.2.524.368.826.487l.179 1.836a4.99 4.99 0 0 0 2.058 0l.179-1.836c.302-.12.575-.287.826-.486l1.672.759a4.95 4.95 0 0 0 1.026-1.787L8.244 5.478z" mask="url(#b)"/></g></svg>