<svg xmlns="http://www.w3.org/2000/svg" width="16" height="16" viewBox="0 0 16 16">
  <path fill="#AFB1B3" fill-rule="evenodd" d="M11.5088 5.4766C11.7088 5.7776 11.7278 6.1636 11.5578 6.4826 11.3868 6.8006 11.0548 6.9996 10.6938 6.9996L5.3068 6.9996C4.9458 6.9996 4.6128 6.8006 4.4428 6.4826 4.2728 6.1636 4.2908 5.7776 4.4908 5.4766L7.1848 1.4366C7.3658 1.1646 7.6728.9996 7.9998.9996 8.3268.9996 8.6338 1.1646 8.8158 1.4366L11.5088 5.4766zM4.5 8C2.568 8 1 9.567 1 11.5 1 13.433 2.568 15 4.5 15 6.433 15 8 13.433 8 11.5 8 9.567 6.433 8 4.5 8M4.5 9.3C5.713 9.3 6.7 10.287 6.7 11.5 6.7 12.713 5.713 13.7 4.5 13.7 3.287 13.7 2.3 12.713 2.3 11.5 2.3 10.287 3.287 9.3 4.5 9.3M11.5664 14L14.0004 11.566 14.0004 14 11.5664 14zM10.0004 12.566L13.5664 9 14.0004 9 14.0004 10.434 10.4334 14 10.0004 14 10.0004 12.566zM12.4334 9L10.0004 11.435 10.0004 9 12.4334 9zM9.0004 15L15.0004 15 15.0004 8 9.0004 8 9.0004 15z"/>
</svg>
