<svg xmlns="http://www.w3.org/2000/svg" width="16" height="16" viewBox="0 0 16 16">
  <title>publish(GrayDark)</title>
  <g>
    <rect width="16" height="16" fill="#ffe3ff" opacity="0"/>
    <g>
      <g>
        <circle cx="7" cy="9" r="7" fill="#252525"/>
        <circle cx="7" cy="9" r="6" fill="#c4c4c4"/>
        <path d="M5.182,11H8.818C8.475,12.8,7.707,14,7,14S5.525,12.8,5.182,11ZM7,4C6.293,4,5.525,5.2,5.182,7H8.818C8.475,5.2,7.707,4,7,4ZM9,9c0-.345-.017-.678-.046-1H5.046C5.017,8.322,5,8.655,5,9s.017.678.046,1H8.954C8.983,9.678,9,9.345,9,9Zm.839-2h1.739A5.014,5.014,0,0,0,8.949,4.395,7.542,7.542,0,0,1,9.839,7Zm0,4a7.542,7.542,0,0,1-.89,2.605A5.014,5.014,0,0,0,11.578,11ZM4.161,11H2.422a5.014,5.014,0,0,0,2.629,2.605A7.542,7.542,0,0,1,4.161,11Zm0-4a7.542,7.542,0,0,1,.89-2.605A5.014,5.014,0,0,0,2.422,7Zm5.8,1c.026.325.042.657.042,1s-.016.675-.042,1H11.9a5,5,0,0,0,0-2ZM4.042,10C4.016,9.675,4,9.343,4,9s.016-.675.042-1H2.1a5,5,0,0,0,0,2Z" fill="#292929"/>
      </g>
      <g>
        <path d="M12.414,0h-.828L8,3.586V8H9.242L10,7.242V9a4.638,4.638,0,0,1-7.828,3.379A6.4,6.4,0,0,0,14,9V7.242L14.758,8H16V3.586Z" fill="#252525"/>
        <path d="M1.142,10.305A6,6,0,0,0,13,9V4.828l2,2V4L12,1,9,4V6.828l2-2V9a5,5,0,0,1-9.83,1.3Z" fill="#7cbeff"/>
      </g>
    </g>
  </g>
</svg>
