<svg ti:v="1" width="16" height="16" viewBox="0 0 16 16" xmlns="http://www.w3.org/2000/svg" xmlns:ti="urn:schemas-jetbrains-com:tisvg"><rect id="frame" width="16" height="16" fill="none"/><g fill-rule="evenodd"><path d="M11.11 6.273l3.12 2.723H16V7.64l-2.817-3.456L16 1.419V0h-1.748l-2.985 1.982L10.172.555A1.7 1.7 0 0 0 8.897.003c-.484 0-.948.185-1.27.503a1.786 1.786 0 0 0-.53 1.259c0 .472.186.917.547 1.277L8.75 4.075 6.53 5.969A1.755 1.755 0 0 0 6 7.226c0 .475.187.921.526 1.257a1.774 1.774 0 0 0 2.53-.025l2.054-2.185z" fill="#242424"/><path d="M11.833 4.109L15 1h-.446l-3.512 2.332-1.616-2.113c-.274-.307-.828-.266-1.098 0a.764.764 0 0 0 0 1.092l1.921 1.798L7.23 6.681a.761.761 0 0 0 0 1.091.775.775 0 0 0 1.098 0l2.714-2.886 3.562 3.11H15l-3.167-3.887z" fill="#F28365"/></g></svg>