<svg ti:v="1" width="16" height="16" viewBox="0 0 16 16" xmlns="http://www.w3.org/2000/svg" xmlns:ti="urn:schemas-jetbrains-com:tisvg"><rect id="frame" width="16" height="16" fill="none"/><path fill-rule="evenodd" d="M10.828 0H10v2.465L7.535 0h-.789L4 2.744v.792L6.465 6H4v.828L8.172 11H15V4.172L10.828 0z" fill="#FFF"/><linearGradient id="a" x1=".5" y1="0" x2=".5" y2="1"><stop offset="0" stop-color="#6E9CA6"/><stop offset="1" stop-color="#7290A8"/></linearGradient><path fill-rule="evenodd" d="M8.586 10l-3-3H8.88L5.019 3.14l2.122-2.12L11 4.879V1.586l3 3V10H8.586z" fill="url(#a)"/><path fill-rule="evenodd" d="M12 4v3.293L7.141 2.434l-.707.706L11.294 8H8l1 1h4V5l-1-1z" fill="#FFF"/><linearGradient id="b" x1=".5" y1="0" x2=".5" y2="1"><stop offset="0" stop-color="#912020"/><stop offset="1" stop-color="#584C03"/></linearGradient><path fill-rule="evenodd" d="M8.414 7H7v2.172L2.828 5h-.824L0 7.004v.824L4.172 12H2v1.414L4.586 16H11V9.586L8.414 7z" fill="url(#b)"/><linearGradient id="c" x1=".5" y1="0" x2=".5" y2="1"><stop offset="0" stop-color="#FFA674"/><stop offset="1" stop-color="#FFE296"/></linearGradient><path fill-rule="evenodd" d="M8 8v3.586L2.416 6.002 1.002 7.416 6.586 13H3l2 2h5v-5L8 8z" fill="url(#c)"/></svg>