<svg ti:v="1" width="16" height="16" viewBox="0 0 16 16" xmlns="http://www.w3.org/2000/svg" xmlns:ti="urn:schemas-jetbrains-com:tisvg"><rect id="frame" width="16" height="16" fill="none"/><g fill-rule="evenodd"><path d="M12.5 16c-1.23 0-2.609-1.051-3.207-2.443l-1.132-2.642L5.618 16H1.382l4.824-9.647-.874-2.041c-.066-.154-.301-.308-.404-.312H3V0h2.5c1.23 0 2.609 1.051 3.207 2.443l3.961 9.244c.066.155.301.309.404.313H15v4h-2.5z" fill="#F4F4F4"/><path d="M4 1v2h.929c.512 0 1.104.412 1.322.919l1.057 2.466L3 15h2l3.23-6.461 1.982 4.623C10.647 14.177 11.672 15 12.5 15H14v-2h-.929c-.512 0-1.104-.412-1.322-.919L7.788 2.838C7.353 1.823 6.328 1 5.5 1H4z" fill="#313131"/></g></svg>