<svg ti:v="1" width="16" height="16" viewBox="0 0 16 16" xmlns="http://www.w3.org/2000/svg" xmlns:ti="urn:schemas-jetbrains-com:tisvg"><rect id="frame" width="16" height="16" fill="none"/><linearGradient id="a" x1=".5" y1="0" x2=".5" y2="1"><stop offset="0" stop-color="#876805"/><stop offset="1" stop-color="#6D1515"/></linearGradient><path fill-rule="evenodd" d="M3 0v4h1.928c.103.004.337.158.404.313l.874 2.039L1.382 16h4.236l2.543-5.085 1.132 2.642C9.891 14.949 11.269 16 12.5 16H15v-4h-1.928c-.103-.004-.338-.158-.404-.313L8.707 2.444C8.109 1.051 6.731 0 5.5 0H3z" fill="url(#a)"/><linearGradient id="b" x1=".5" y1="0" x2=".5" y2="1"><stop offset="0" stop-color="#FDF29F"/><stop offset="1" stop-color="#FFC400"/></linearGradient><path fill-rule="evenodd" d="M4 1v2h.929c.513 0 1.104.412 1.322.919l1.056 2.466L3 15h2l3.231-6.461 1.981 4.624C10.647 14.177 11.672 15 12.5 15H14v-2h-.929c-.512 0-1.104-.412-1.322-.919L7.788 2.838C7.353 1.823 6.328 1 5.5 1H4z" fill="url(#b)"/></svg>