<svg ti:v="1" width="16" height="16" viewBox="0 0 16 16" xmlns="http://www.w3.org/2000/svg" xmlns:ti="urn:schemas-jetbrains-com:tisvg"><rect id="frame" width="16" height="16" fill="none"/><linearGradient id="a" x1=".5" y1="0" x2=".5" y2="1"><stop offset="0" stop-color="#A10707"/><stop offset="1" stop-color="#510000"/></linearGradient><path fill-rule="evenodd" d="M13.938 6.019L16 4.462 15.56 3h-2.752l-1.112-3h-1.389L9.194 3H6.44L6 4.462l2.063 1.557L7.024 9l.995 1L11 8.187 13.981 10l.995-1-1.038-2.981z" fill="url(#a)"/><linearGradient id="b" x1=".5" y1="0" x2=".5" y2="1"><stop offset="0" stop-color="#FFCE85"/><stop offset="1" stop-color="#FF5D5D"/></linearGradient><path fill-rule="evenodd" d="M15 4.001h-2.874L11.001 1 9.876 4.001H7l2.244 1.683L8 9l3-2 3 2-1.243-3.316L15 4.001z" fill="url(#b)"/></svg>