<svg ti:v="1" width="16" height="16" viewBox="0 0 16 16" xmlns="http://www.w3.org/2000/svg" xmlns:ti="urn:schemas-jetbrains-com:tisvg"><rect id="frame" width="16" height="16" fill="none"/><g fill-rule="evenodd"><path d="M11 4v7h2v1h3V4h-5z" fill="#242424"/><path d="M11 11H1V4h10v7z" fill="#242424"/><path d="M14 5h-1.001S12 5 12 6v3c0 1 1 1 1 1h1v1h1v-1c0-1-1-1-1-1h-1V6h1v2c0 1 1 1 1 1V5.999S15.001 5 14 5z" fill="#C4C4C4"/><path d="M10 5v3.632L8 5H7v5h1V6.368L10 10h1V5M6 5H5v5h1M4 9v1H2V5h1v4h1z" fill="#C4C4C4"/></g></svg>