<svg ti:v="1" width="16" height="16" viewBox="0 0 16 16" xmlns="http://www.w3.org/2000/svg" xmlns:ti="urn:schemas-jetbrains-com:tisvg"><rect id="frame" width="16" height="16" fill="none"/><linearGradient id="a" x1="0" y1=".5" x2="1" y2=".5"><stop offset="0" stop-color="#850000"/><stop offset="1" stop-color="#008C11"/></linearGradient><path fill-rule="evenodd" d="M12.914 0H11v2H8V0H6.086L3 3.086v.828L6.086 7H8V5h3v2h1.914L16 3.914v-.828L12.914 0z" fill="url(#a)"/><linearGradient id="b" x1=".5" y1="0" x2=".5" y2="1"><stop offset="0" stop-color="#80FFB7"/><stop offset="1" stop-color="#0F2"/></linearGradient><path fill-rule="evenodd" d="M12.5 1H12v1l1 1h-3v1h3l-1 1v1h.5L15 3.5 12.5 1z" fill="url(#b)"/><linearGradient id="c" x1=".5" y1="0" x2=".5" y2="1"><stop offset="0" stop-color="#FFCE85"/><stop offset="1" stop-color="#FF9E9E"/></linearGradient><path fill-rule="evenodd" d="M9 3H6l1-1V1h-.5L4 3.5 6.5 6H7V5L6 4h3V3z" fill="url(#c)"/></svg>