<svg xmlns="http://www.w3.org/2000/svg" width="16" height="16" viewBox="0 0 16 16"><rect id="frame" width="16" height="16" fill="none"/><g fill="none" fill-rule="evenodd"><path fill="#9AA7B0" fill-opacity=".8" d="M14 8h1V1H5v4h1V3h8z"/><path fill="#231F20" fill-opacity=".7" d="M12 6.504L9 4v2H3v3h1V7l5-.003V9z"/><path fill="#9AA7B0" fill-opacity=".8" d="M6 13H2V5h2V3H1v11h5z"/><path fill="#F4AF3D" fill-opacity=".7" d="M7 16h9V9H7z"/><path fill="#231F20" fill-opacity=".7" d="M12.973 11.502c0-.369.311-.502.872-.502H15v-1h-1.14c-1.082 0-1.86.46-1.86 1.45 0 .865.42 1.24 1.471 1.466.77.165 1.025.313 1.025.632 0 .32-.358.452-1.025.452H12.3v1h1.171c2.029 0 2.029-1 2.029-1.452 0-.632-.48-1.127-1.341-1.401-.862-.274-1.186-.277-1.186-.645z"/><path fill="#231F20" fill-opacity=".7" d="M8.395 13.588c.23.25.443.412.892.412.526 0 .713-.412.713-.702V10h1v3.588C11 14.32 10.327 15 9.45 15c-.821 0-1.3-.237-1.65-.68l.595-.732z"/></g></svg>