<svg xmlns="http://www.w3.org/2000/svg" width="16" height="16" viewBox="0 0 16 16"><rect id="frame" width="16" height="16" fill="none"/><g fill="none" fill-rule="evenodd"><path fill="#9AA7B0" fill-opacity=".8" d="M14 7.416c.357.156.692.352 1 .584V1H3v2h11v4.416z"/><path fill="#9AA7B0" fill-opacity=".8" d="M7.416 14a4.962 4.962 0 0 1-.316-1H2V6h10v1c.342 0 .677.034 1 .1V4H1v10h6.416z"/><path fill="#40B6E0" fill-opacity=".6" d="M7 12a5.002 5.002 0 0 1 4-4.9V7H3v5h4z"/><path fill="#9AA7B0" fill-opacity=".8" d="M12 8c-2.208 0-4 1.792-4 4s1.792 4 4 4 4-1.792 4-4-1.792-4-4-4zm-.4 7.172A3.195 3.195 0 0 1 8.8 12c0-.248.032-.484.084-.716L10.8 13.2v.4c0 .44.36.8.8.8v.772zm2.76-1.016a.794.794 0 0 0-.76-.556h-.4v-1.2c0-.22-.18-.4-.4-.4h-2.4v-.8h.8c.22 0 .4-.18.4-.4V10h.8c.44 0 .8-.36.8-.8v-.164c1.172.476 2 1.624 2 2.964 0 .832-.32 1.588-.84 2.156z"/></g></svg>