<svg xmlns="http://www.w3.org/2000/svg" xmlns:xlink="http://www.w3.org/1999/xlink" width="40" height="40" viewBox="0 0 40 40"><rect id="frame" width="40" height="40" fill="none"/><defs><path id="a" d="M0 0h34v38H0z"/></defs><g fill="none" fill-rule="evenodd" transform="translate(3 1)"><mask id="b" fill="#fff"><use xlink:href="#a"/></mask><path fill="#99BE4F" d="M10.326 34.465c.203-.1.323-.162.447-.218.617-.277 1.246-.532 1.85-.838.257-.13.447-.138.69.007 1.082.649 2.177 1.276 3.258 1.925.288.173.528.184.827.013 4.552-2.612 9.11-5.216 13.67-7.813.307-.176.421-.384.421-.738-.01-5.196-.01-10.393 0-15.59 0-.363-.116-.58-.439-.763a3883.227 3883.227 0 0 1-13.608-7.776c-.32-.184-.573-.183-.892 0A4703.172 4703.172 0 0 1 2.913 10.47c-.294.168-.409.369-.408.709.01 5.22.01 10.44 0 15.66 0 .33.117.523.396.68 1.194.672 2.375 1.36 3.568 2.032.603.34 1.253.546 1.954.428.951-.161 1.541-.896 1.542-1.89.002-3.42 0-6.841 0-10.261l.001-5.292c0-.49.09-.58.58-.582.466-.002.931-.002 1.397 0 .5 0 .606.106.607.604v11.399c0 1.444.036 2.89-.018 4.33a6.474 6.474 0 0 1-.367 1.973c-.503 1.36-1.59 2.026-3.01 2.236-1.493.222-2.839-.19-4.115-.892-1.157-.637-2.296-1.307-3.445-1.96C.526 29.04 0 28.134 0 26.91c.004-5.28.003-10.558.001-15.838 0-1.176.497-2.074 1.526-2.665 4.655-2.67 9.31-5.34 13.975-7.994 1.01-.574 2.058-.538 3.07.039 3.254 1.858 6.506 3.723 9.76 5.585 1.331.763 2.657 1.537 3.997 2.285 1.14.636 1.675 1.576 1.671 2.873a3406.49 3406.49 0 0 0-.002 15.66c.003 1.269-.539 2.188-1.643 2.818-4.59 2.617-9.175 5.242-13.76 7.867-1.08.618-2.15.613-3.22-.015-1.51-.886-3.02-1.768-4.527-2.66-.165-.096-.307-.233-.522-.4" mask="url(#b)"/><path fill="#99BE4F" d="M21.314 26.941c-1.508-.038-2.968-.15-4.355-.703-1.96-.78-3.048-2.312-3.047-4.292 0-.43.105-.538.55-.54.514-.002 1.027.011 1.54-.005.328-.01.49.136.539.44.015.104.035.21.055.313.22 1.136.928 1.827 2.043 2.072 1.723.377 3.46.392 5.187.013.744-.163 1.39-.512 1.64-1.315.304-.969.038-1.644-.937-1.93-1.01-.298-2.06-.49-3.107-.638-1.485-.212-2.992-.285-4.422-.792-1.393-.493-2.386-1.354-2.572-2.883-.209-1.698.305-3.11 1.802-4.076 1.017-.656 2.159-.937 3.348-1.028 1.663-.127 3.319-.08 4.92.46 1.99.668 3.078 2.103 3.258 4.224.037.426-.078.54-.498.543-.525.005-1.052-.007-1.578.004-.293.006-.462-.097-.535-.397-.377-1.559-1.216-2.219-3.03-2.392-1.123-.108-2.245-.13-3.345.153-.36.094-.721.261-1.029.471-.521.356-.773 1.237-.488 1.783.13.246.413.487.678.575.652.215 1.328.374 2.005.496 1.689.304 3.389.548 5.07.875.552.107 1.087.354 1.593.61 1.151.581 1.659 1.578 1.727 2.825.148 2.691-1.5 4.078-3.648 4.707-1.108.324-2.25.406-3.364.427"/></g></svg>