<svg width="64" height="64" viewBox="0 0 64 64" fill="none" xmlns="http://www.w3.org/2000/svg"><rect id="frame" width="64" height="64" fill="none"/><path d="M58 6H6v52h52V6z" fill="url(#paint0_linear)"/><path d="M51 13H13v38h38V13z" fill="url(#paint1_linear)"/><path d="M32.144 44H18v2.322h14.144V44z" fill="#fff"/><path d="M17.645 17.644h5.805c3.378 0 5.489 2.006 5.489 4.962 0 3.272-2.533 4.96-5.806 4.96h-2.427v4.223h-3.167V17.644h.105zm5.594 7.284c1.583 0 2.428-1.056 2.428-2.217 0-1.372-.95-2.111-2.534-2.111h-2.427v4.328h2.533z" fill="#fff"/><path d="M30.733 24.822c0-4.011 2.956-7.389 7.39-7.389 2.744 0 4.221.845 5.7 2.111l-1.9 2.323c-1.056-1.056-2.112-1.69-3.59-1.69-2.322 0-4.222 1.9-4.222 4.434 0 2.533 1.689 4.433 4.222 4.433 1.69 0 2.534-.633 3.8-1.689l1.9 2.112C42.344 31.156 40.656 32 37.911 32c-4.222 0-7.178-3.167-7.178-7.178z" fill="#fff"/><defs><linearGradient id="paint0_linear" x1="57.244" y1="57.276" x2="-7.518" y2="-7.487" gradientUnits="userSpaceOnUse"><stop offset=".482" stop-color="#FCF84A"/><stop offset=".726" stop-color="#21D789"/></linearGradient><linearGradient id="paint1_linear" x1="31.949" y1="3.764" x2="31.949" y2="37.843" gradientUnits="userSpaceOnUse"><stop offset=".084" stop-color="#878585"/><stop offset=".538"/></linearGradient></defs></svg>