<svg width="80" height="80" viewBox="0 0 80 80" fill="none" xmlns="http://www.w3.org/2000/svg"><rect id="frame" width="80" height="80" fill="none"/><path d="M75 5H5v70h70V5z" fill="url(#paint0_linear)"/><path d="M65 15H15v50h50V15z" fill="url(#paint1_linear)"/><path d="M20.893 21.25h7.5c4.464 0 7.143 2.678 7.143 6.428 0 4.286-3.393 6.608-7.5 6.608H25v5.535h-4.107V21.25zm7.321 9.464c1.965 0 3.215-1.25 3.215-2.857 0-1.786-1.25-2.857-3.393-2.857H24.82v5.714h3.393z" fill="#fff"/><path d="M38.214 30.536c0-5.357 3.929-9.643 9.822-9.643 3.571 0 5.714 1.25 7.321 2.857l-2.678 3.036c-1.429-1.25-2.858-2.143-4.822-2.143-3.214 0-5.357 2.679-5.357 5.893s2.143 5.893 5.357 5.893c2.143 0 3.393-.893 4.822-2.143l2.678 2.678c-1.964 2.143-4.107 3.393-7.678 3.393-5.358-.178-9.465-4.464-9.465-9.821z" fill="#fff"/><path d="M39.9 55.5H21.2v3.1h18.7v-3.1z" fill="#fff"/><defs><linearGradient id="paint0_linear" x1="73.982" y1="74.025" x2="-13.198" y2="-13.155" gradientUnits="userSpaceOnUse"><stop offset=".482" stop-color="#FCF84A"/><stop offset=".726" stop-color="#21D789"/></linearGradient><linearGradient id="paint1_linear" x1="39.999" y1="2.846" x2="39.999" y2="47.685" gradientUnits="userSpaceOnUse"><stop offset=".084" stop-color="#878585"/><stop offset=".538"/></linearGradient></defs></svg>