<svg width="24" height="24" viewBox="0 0 24 24" fill="none" xmlns="http://www.w3.org/2000/svg"><rect id="frame" width="24" height="24" fill="none"/><path d="M23 1H1v22h22V1z" fill="url(#paint0_linear)"/><path d="M20 4H4v16h16V4z" fill="url(#paint1_linear)"/><path d="M12 17H6v1h6v-1z" fill="#fff"/><path d="M6 6h2.4c1.4 0 2.3.8 2.3 2.1 0 1.4-1.1 2.1-2.4 2.1h-1V12H6V6zm2.4 3c.7 0 1-.4 1-.9 0-.6-.4-.9-1.1-.9h-1V9h1.1z" fill="#fff"/><path d="M11.467 8.978c0-1.69 1.244-3.111 3.11-3.111 1.156 0 1.779.355 2.4.888l-.8.978c-.444-.444-.888-.71-1.51-.71-.978 0-1.778.8-1.778 1.866s.711 1.867 1.778 1.867c.71 0 1.066-.267 1.6-.712l.8.89c-.711.71-1.422 1.066-2.578 1.066-1.778 0-3.022-1.333-3.022-3.022z" fill="#fff"/><defs><linearGradient id="paint0_linear" x1="22.68" y1="22.694" x2="-4.719" y2="-4.706" gradientUnits="userSpaceOnUse"><stop offset=".482" stop-color="#FCF84A"/><stop offset=".726" stop-color="#21D789"/></linearGradient><linearGradient id="paint1_linear" x1="12" y1=".129" x2="12" y2="14.478" gradientUnits="userSpaceOnUse"><stop offset=".084" stop-color="#878585"/><stop offset=".538"/></linearGradient></defs></svg>