<svg ti:v="1" width="16" height="16" viewBox="0 0 16 16" xmlns="http://www.w3.org/2000/svg" xmlns:ti="urn:schemas-jetbrains-com:tisvg"><rect id="frame" width="16" height="16" fill="none"/><g fill-rule="evenodd"><path d="M16 3.586L12.414 0h-.828L8 3.586 4.414 0h-.828L0 3.586v.828L3.586 8 0 11.586v.828L3.586 16h.828L8 12.414 11.586 16h.828L16 12.414v-.828L12.414 8 16 4.414v-.828z" fill="#F4F4F4"/><path d="M15 4l-3-3-4 4-4-4-3 3 4 4-4 4 3 3 4-4 4 4 3-3-4-4 4-4z" fill="#313131"/><path d="M13.298 3.298l-.596-.596L8 7.404 3.298 2.702l-.596.596L7.404 8l-4.702 4.702.596.596L8 8.596l4.702 4.702.596-.596L8.596 8l4.702-4.702z" fill="#EBEBEB"/></g></svg>