<svg width="16" height="16" viewBox="0 0 16 16" fill="none" xmlns="http://www.w3.org/2000/svg"><rect id="frame" width="16" height="16" fill="none"/><path fill-rule="evenodd" clip-rule="evenodd" d="M13.531 4.5C12.44 3 10.47 2 8.22 2 4.784 2 2 4.333 2 7.212c0 2.223 1.661 4.121 4 4.87v-1.84c-.956-.651-1.556-1.593-1.556-2.641 0-1.968 2.116-3.563 4.727-3.563.966 0 1.838.149 2.553.462h1.807z" fill="#9AA7B0" fill-opacity=".8"/><path d="M7 14h2v-3h.5l1.422 3H13l-1.556-3.137C12.254 10.387 13 9.889 13 8.5c0-2.5-1.391-3-3-3H7V14zm2-4.5v-2h1c.596 0 1 .28 1 1 0 .656-.394 1-1 1H9z" fill="#40B6E0" fill-opacity=".7"/></svg>