<svg xmlns="http://www.w3.org/2000/svg" width="16" height="16" viewBox="0 0 16 16"><rect id="frame" width="16" height="16" fill="none"/><defs><linearGradient id="a" gradientUnits="userSpaceOnUse" x1="0" y1="0" x2="1" y2="1" gradientTransform="matrix(15.9375 0 0 13.77344 .02 .086)"><stop offset="0" stop-color="#cbced0"/><stop offset="1" stop-color="#84838b"/></linearGradient><linearGradient id="b" gradientUnits="userSpaceOnUse" x1="0" y1="0" x2="1" y2="1" gradientTransform="matrix(8.79688 0 0 11.58203 6.586 4.363)"><stop offset="0" stop-color="#276dc3"/><stop offset="1" stop-color="#165caa"/></linearGradient></defs><g fill-rule="evenodd"><path d="M7.988 13.86C3.586 13.86.02 10.776.02 6.972.02 3.168 3.586.086 7.988.086c4.399 0 7.969 3.082 7.969 6.887 0 3.804-3.57 6.886-7.969 6.886zM9.207 2.776c-3.344 0-6.055 2.11-6.055 4.707 0 2.602 2.711 4.711 6.055 4.711s5.813-1.441 5.813-4.71c0-3.266-2.47-4.708-5.813-4.708zm0 0" fill="url(#a)"/><path d="M12.156 10.754s.48.187.762.367c.098.066.266.191.387.36.117.16.175.328.175.328l1.903 4.132-3.074.004-1.438-3.48s-.293-.652-.473-.844c-.152-.156-.214-.215-.367-.215h-.726v4.535l-2.72.004V4.363h5.458s2.488.055 2.488 3.11c0 3.05-2.375 3.28-2.375 3.28zm-1.183-3.879l-1.645-.004-.004 1.973 1.649-.004s.761 0 .761-1c0-1.02-.761-.965-.761-.965zm0 0" fill="url(#b)"/></g></svg>