<svg width="16" height="16" viewBox="0 0 16 16" fill="none" xmlns="http://www.w3.org/2000/svg"><rect id="frame" width="16" height="16" fill="none"/><path fill-rule="evenodd" clip-rule="evenodd" d="M12.917 8H8v1h4.659c.113-.322.2-.656.258-1zM8 12.917V10h4.197A6.005 6.005 0 0 1 8 12.917zM12.659 5A6.009 6.009 0 0 0 8 1.083V5h4.659zm.258 1c.055.325.083.66.083 1H8V6h4.917zM7 1c-.34 0-.675.028-1 .083v11.834c.325.055.66.083 1 .083V1zM1 7c0-1.777.772-3.374 2-4.472v8.944A5.985 5.985 0 0 1 1 7zm4-5.659c-.35.124-.684.279-1 .462v10.394c.316.183.65.338 1 .462V1.34z" fill="#59A869"/><path fill-rule="evenodd" clip-rule="evenodd" d="M14 12.5a2.5 2.5 0 1 1-4-2V12l.06.08A1.5 1.5 0 0 0 11.5 14a1.5 1.5 0 0 0 1.5-1.5h1z" fill="#59A869"/></svg>