<svg width="128" height="128" viewBox="0 0 128 128" fill="none" xmlns="http://www.w3.org/2000/svg">
<path d="M117 11H11V117H117V11Z" fill="url(#paint0_linear)"/>
<path d="M103 25H25V103H103V25Z" fill="url(#paint1_linear)"/>
<path d="M62.7 89.5668H33.6667V94.3335H62.7V89.5668Z" fill="white"/>
<path d="M61.4001 49.2665C61.4001 41.0332 67.4668 34.0999 76.5668 34.0999C82.2001 34.0999 85.2335 35.8332 88.2668 38.4332L84.3668 43.1999C82.2001 41.0332 80.0334 39.7332 77.0001 39.7332C72.2334 39.7332 68.3335 43.6332 68.3335 48.8332C68.3335 54.0332 71.8001 57.9332 77.0001 57.9332C80.4668 57.9332 82.2001 56.6332 84.8001 54.4665L88.7001 58.7999C85.2334 62.2665 81.7668 63.9999 76.1335 63.9999C67.4668 63.9999 61.4001 57.4999 61.4001 49.2665Z" fill="white"/>
<path d="M34.5332 34.5333H46.4499C53.3832 34.5333 57.6082 38.6499 57.6082 44.6083V44.7166C57.6082 51.4333 52.2999 55.0083 45.7999 55.0083H40.9249V63.7833H34.5332V34.5333ZM46.0166 49.1583C49.2666 49.1583 51.1082 47.3166 51.1082 44.8249V44.7166C51.1082 41.7916 49.1582 40.2749 45.9082 40.2749H40.9249V49.1583H46.0166Z" fill="white"/>
<defs>
<linearGradient id="paint0_linear" x1="115.459" y1="115.524" x2="-16.5568" y2="-16.4923" gradientUnits="userSpaceOnUse">
<stop offset="0.482" stop-color="#FCF84A"/>
<stop offset="0.7258" stop-color="#21D789"/>
</linearGradient>
<linearGradient id="paint1_linear" x1="63.896" y1="6.0421" x2="63.896" y2="75.9925" gradientUnits="userSpaceOnUse">
<stop offset="0.0842986" stop-color="#878585"/>
<stop offset="0.5377"/>
</linearGradient>
</defs>
</svg>
