<svg xmlns="http://www.w3.org/2000/svg" width="16" height="16" viewBox="0 0 16 16"><rect id="frame" width="16" height="16" fill="none"/><path fill="#9AA7B0" fill-rule="evenodd" d="M8.88 6.83l-.435-.326.339 1.423 1.387-.045-.305-.276c.712-1.07.915-2.225.448-3.467a3.326 3.326 0 0 0-1.647-1.852c-1.543-.787-3.43-.169-4.302 1.37-.874 1.544-.543 3.924 1.448 4.98-.169.137-.34.263-.499.405-1.368 1.232-1.802 3.175-1.094 4.914.024.058.079.165.079.165l-.61.366 1.813.283.685-1.743-.662.373-.02-.072c-.057-.194-.117-.373-.151-.557a2.755 2.755 0 0 1 1.87-3.134c1.208-.388 2.601.327 3.088 1.584.62 1.602-.25 3.361-1.852 3.735a1.432 1.432 0 0 1-.206.032L8.076 15H3s.006-6.345.014-9.393c.005-2.052 1.065-3.685 2.9-4.344C7.52.688 8.973 1.07 10.218 2.271c1.38 1.333 1.699 3.558.774 5.277-.096.18-.22.342-.344.532.068.046.128.088.19.126 2.147 1.35 2.82 4.432 1.452 6.637-.043.07-.145.156-.145.156l-1.09-.003c.187-.343.385-.645.526-.973 1.03-2.401-.22-5.173-2.632-5.84-.755-.21-1.52-.375-2.274-.587C5.588 7.29 4.94 6.174 5.151 5.01c.202-1.113 1.22-1.896 2.313-1.778 1.566.17 2.413 2.09 1.524 3.46-.03.045-.067.086-.108.138"/></svg>