<svg width="40" height="40" viewBox="0 0 40 40" fill="none" xmlns="http://www.w3.org/2000/svg">
<path fill-rule="evenodd" clip-rule="evenodd" d="M20 10C15.4667 10 12.6333 12.2667 11.5 16.8C13.2 14.5333 15.1833 13.6833 17.45 14.25C18.7433 14.573 19.6676 15.5118 20.6907 16.55C22.3573 18.2419 24.2865 20.2 28.5 20.2C33.0333 20.2 35.8667 17.9333 37 13.4C35.3 15.6667 33.3167 16.5167 31.05 15.95C29.7567 15.627 28.8324 14.6882 27.8093 13.65C26.1427 11.9581 24.2135 10 20 10ZM11.5 20.2C6.96667 20.2 4.13333 22.4667 3 27C4.7 24.7333 6.68333 23.8833 8.95 24.45C10.2433 24.7736 11.1676 25.7118 12.1907 26.75C13.8573 28.4419 15.7865 30.4 20 30.4C24.5333 30.4 27.3667 28.1333 28.5 23.6C26.8 25.8667 24.8167 26.7167 22.55 26.15C21.2567 25.827 20.3324 24.8882 19.3093 23.85C17.6427 22.1581 15.7135 20.2 11.5 20.2Z" fill="#14B4C6"/>
</svg>
