<svg xmlns="http://www.w3.org/2000/svg" width="16" height="16" viewBox="0 0 16 16">
  <title>Detach</title>
  <g data-name="Layer 2">
    <g data-name="Layer 1">
      <g>
        <rect width="16" height="16" fill="#ed1e79" opacity="0"/>
        <g>
          <path d="M11.85,14a1.66,1.66,0,0,1-1.31-.63l-5.61-7,.77-.62,5.62,7a.68.68,0,0,0,.45.25.69.69,0,0,0,.5-.15l.53-.43a.57.57,0,0,0,.2-.36.56.56,0,0,0-.12-.4L6.37,3.55A1.47,1.47,0,0,0,4.3,3.33L3.55,4A1.53,1.53,0,0,0,3,5a1.5,1.5,0,0,0,.33,1.1L8.8,12.82l-.8.63L2.55,6.68a2.51,2.51,0,0,1,.37-3.51l.78-.62a2.43,2.43,0,0,1,3.45.37L13.66,11a1.57,1.57,0,0,1-.23,2.19l-.54.44A1.63,1.63,0,0,1,11.85,14Z" fill="#6f6e6f" fill-rule="evenodd"/>
          <rect x="0.37" y="7.35" width="15.97" height="2" transform="translate(-3.46 8.35) rotate(-45)" fill="#da5960"/>
        </g>
      </g>
    </g>
  </g>
</svg>
