<svg xmlns="http://www.w3.org/2000/svg" width="16" height="16" viewBox="0 0 16 16"><rect id="frame" width="16" height="16" fill="none"/><defs><radialGradient id="a" cy="54.652%" r="72.287%" fx="50%" fy="54.652%" gradientTransform="matrix(.91667 0 0 1 .042 0)"><stop offset="0%" stop-color="#FFB900"/><stop offset="60%" stop-color="#F95D8F"/><stop offset="99.91%" stop-color="#F95353"/></radialGradient></defs><path fill="url(#a)" d="M9.39 5.823a2.599 2.599 0 0 0-2.61 2.589A2.6 2.6 0 0 0 9.39 11 2.6 2.6 0 0 0 12 8.412a2.599 2.599 0 0 0-2.61-2.589zm-6.78 0A2.599 2.599 0 0 0 0 8.413 2.6 2.6 0 0 0 2.61 11a2.6 2.6 0 0 0 2.61-2.588 2.599 2.599 0 0 0-2.61-2.588zm6-3.235A2.6 2.6 0 0 1 6 5.177a2.6 2.6 0 0 1-2.61-2.589A2.6 2.6 0 0 1 6 0a2.599 2.599 0 0 1 2.61 2.588z" transform="translate(2 2)"/></svg>