<svg xmlns="http://www.w3.org/2000/svg" width="16" height="16" viewBox="0 0 16 16"><rect id="frame" width="16" height="16" fill="none"/><g fill="none" transform="translate(1)"><path fill="#424548" d="M8.287 1.286l4 1.9A3 3 0 0 1 14 5.896v4.212a3 3 0 0 1-1.708 2.707l-4 1.909a3 3 0 0 1-2.584 0l-4-1.909A3 3 0 0 1 0 10.108V5.896a3 3 0 0 1 1.713-2.71l4-1.9a3 3 0 0 1 2.574 0z"/><rect width="1" height="10" x="8.618" y="2.531" fill="#FFF" rx=".5" transform="rotate(-27 9.118 7.531)"/><rect width="1" height="10" x="4.518" y="2.508" fill="#FFF" rx=".5" transform="scale(-1 1) rotate(-27 0 28.407)"/><rect width="1" height="7" x="6.365" y="5.338" fill="#FFF" rx=".5" transform="scale(-1 1) rotate(-27 0 37.435)"/></g></svg>