<svg xmlns="http://www.w3.org/2000/svg" width="16" height="16" viewBox="0 0 16 16"><rect id="frame" width="16" height="16" fill="none"/><defs><linearGradient id="a" x1="100.562%" x2="100.562%" y1="-.562%" y2="100.562%"><stop offset="0%" stop-color="#8A7AB9"/><stop offset="100%" stop-color="#B888B6"/></linearGradient><linearGradient id="b" x1="21.436%" x2="9.869%" y1="78.993%" y2="93.893%"><stop offset="0%" stop-color="#F6DAAA"/><stop offset="100%" stop-color="#E4BC98"/></linearGradient></defs><g fill="none" fill-rule="evenodd" transform="translate(1 1)"><rect width="13.844" height="13.844" x=".078" y=".078" fill="url(#a)" rx="1.978"/><path fill="#363433" d="M5.024 9.713c-3.24 0-3.758 2.994-3.84 4.004-.001.002.248.119.316.121.01 0 .201.082.554.082h6.539c.014-.79-.126-4.207-3.57-4.207zm6.76-4.773C11.832 7.775 8.56 3.707 9.013 2c.298-.293.531-.547 1.046-.58.423.04 1.377 1.897 1.725 3.52z"/><path fill="#F6DAAA" d="M11.286 3.953c.032 1.908-2.335-.83-2.03-1.979.2-.196.402-.367.748-.39.285.027 1.048 1.277 1.282 2.37z"/><path fill="#363433" d="M9.5 2.5c-1.053-.6-2.261-.766-3.623-.5-2.043.4-2.21 1.981-2.033 2.644.425 1.509.645 2.668.719 4.095.028.546-.006 1.13 0 1.79.356.376 1.828.802 2.44.19-.089-.67-.222-1.212.22-1.51.495-.333 1.144-.421 2.088-.352 1.358.1 2.749.02 3.615-.769.492-.447.717-1.023.717-1.756-.143-.667-.35-1.034-.892-1.579-.572-.574-1.312-1.008-2.485-1.682"/><path fill="url(#b)" d="M6.178 2.157C4.288 2.393 3.96 4.04 4.12 4.64c.532 1.889.781 3.172.798 5.327.322.341 1.22.726 1.774.172-.17-1.282.9-1.65 2.52-1.53 1.929.14 4.16-.315 4.16-2.146-.152-1.154-1.227-2.009-3.295-3.197"/><path fill="#F6DAAA" d="M5.381 3.057C7.337.65 9.121.347 10.443 4.338"/><path fill="#363433" d="M6.306 8.17c-.08 0-.164.144-.024.133.709-.06 1.386.042 1.975.455l.054-.01.074-.094.022-.024c-.645-.412-1.363-.534-2.101-.46zm.776-2.854c-.154-.154-1.035-2.897.477-3.327.968-.276 2.128 1.852 2.128 2.74 0 .887-1.811 1.312-2.605.587z"/><path fill="#FFF" d="M7.157 5.23c-.143-.143-.96-2.686.442-3.086.898-.256 1.974 1.718 1.974 2.54 0 .824-1.68 1.218-2.416.546z"/><path fill="#343231" d="M8.509 3.312c-.087.489-.435.835-.779.774-.343-.061-.551-.506-.465-.994.087-.489.436-.835.78-.774.343.061.55.506.464.994z"/><path fill="#FFF" d="M8.006 2.984c-.05.103-.129.183-.207.208-.078.026-.144-.006-.172-.083-.028-.077-.015-.188.035-.291.05-.103.128-.182.206-.208.078-.026.144.006.172.083.029.077.016.188-.034.291z"/><path fill="#FFF" d="M7.772 3.734c.018.03.051.049.088.048a.106.106 0 0 0 .088-.053.099.099 0 0 0 0-.1.099.099 0 0 0-.088-.048.106.106 0 0 0-.088.053.099.099 0 0 0 0 .1z"/><path fill="#FFF" d="M4.67 9.901c-1.82.046-2.897 1.945-2.763 2.005.22.036.427-.493 1.3-1.312.397-.371 1.488-.547 1.465-.668L4.671 9.9z"/><path fill="#E67E71" d="M4.871 10.318c-1.935.85-2.518 2.28-2.536 3.602h6.051c0-1.026-.06-2.462-1.543-3.523-.352.309-.806.36-1.185.28a1.946 1.946 0 0 1-.787-.359z"/><path fill="#363433" d="M10.443 4.34c-.255-1.015-.618-1.764-1.01-2.27-.392-.507-.82-.786-1.273-.85-.452-.066-.918.081-1.391.392-.473.312-1.071.99-1.389 1.446.525-.522 1.02-1.015 1.473-1.313.452-.298.884-.34 1.287-.282.404.058.79.215 1.165.7.376.484.785 1.195 1.138 2.178z"/></g></svg>