<svg xmlns="http://www.w3.org/2000/svg" width="16" height="16" viewBox="0 0 16 16"><rect id="frame" width="16" height="16" fill="none"/><g fill="none"><path fill="#000" d="M7.144 11.95c.307.196.59.346.846.447.187.074.64.159 1.06.178.447.02.807-.218.912-.364.482-.675.298-1.33.091-1.737-.093-.183-.24-.433-.438-.748.126-.415.208-.778.247-1.086.047-.375.1-1.197.1-1.197.189 0 .732-.066 1.287-.343.555-.276 1.01-1.042 1.105-1.38.096-.34.153-.752.162-1.132a2.873 2.873 0 0 0-.232-1.082c-.17-.4-.495-.79-.735-.994-.492-.416-.828-.53-1.496-.592-.721-.067-1.465.215-1.661.327-.416.236-.877.779-1.07 1.068-.193.29-.473.925-.94 1.085-.467.16-1.124.326-1.28.372-.776.224-1.51.56-2.028 1.069-.662.65-1.156 1.586-1.156 2.606 0 .144-.018.632 0 .772.002.018-.19.071-.386.29-.202.224-.578.675-.482 1.298.059.379.508.778 1.06.984.366.136.717.27 1.157.353l.353.067c.413.638.713.963.9.975.184.01.395.039.703-.176.123-.087.369-.29.738-.613l1.183-.448z"/><path fill="#000" d="M11.502 3.726c.196-.012.3.089.39.089.088 0-.105-.322-.39-.322-.285 0-.412.322-.323.322.089 0 .127-.078.323-.09z"/><path fill="#AA8359" d="M5.897 12.041c.246 0 .664-.124 1.256-.372.231.189.466.33.703.424.173.068.591.198.98.215.412.019.794-.08.89-.215.445-.623.356-1.12 0-1.655-.356-.534-.48-.626-.458-.661.209-.33.226-.763.28-1.03.053-.268.089-1.603.089-1.603.356 0 1.62-.252 1.974-.764.52-.75.608-1.285.608-1.765 0-1.122-.89-2.368-2.315-2.368-1.425 0-2.048.979-2.187 1.157-.14.178-.246.445-.424.712-.178.268-.336.396-.505.535-.211.172-.624.302-.89.356-.962.192-1.948.535-2.583 1.157-.612.6-1.068 1.464-1.068 2.404 0 .134-.017.584 0 .713.002.017-.175.066-.357.267-.186.207-.534.623-.445 1.198.054.35.47.57.98.76.338.127.662.293 1.068.37.072.013.18.031.327.054.38.598.658.902.83.912.593.036 1.048-.8 1.247-.8z"/><path fill="#000" d="M11.351 3.232c.196-.011.3.09.39.09.088 0-.105-.322-.39-.322-.285 0-.412.321-.323.321.09 0 .127-.077.323-.089z"/><path fill="#000" d="M9.49 1.589c.24.24.245.478.348.592.103.115.25-.317-.08-.683-.219-.244-.467-.321-.744-.231.158.055.316.162.476.322z"/><path fill="#000" d="M10.402 1.589c-.24.24-.245.478-.348.592-.102.115-.25-.317.08-.683.219-.244.467-.32.744-.231a1.307 1.307 0 0 0-.476.322z"/><path fill="#000" d="M9 4.5c0-.25.25-.5.5-.5s.5.25.5.5-.25.5-.5.5-.5-.25-.5-.5z"/><path fill="#FFF" d="M9.129 4.356c0-.125.125-.25.25-.25s.25.125.25.25-.125.25-.25.25a.269.269 0 0 1-.25-.25z"/><path fill="#000" d="M11 4.486c0-.25.25-.5.5-.5s.5.25.5.5-.25.5-.5.5-.5-.25-.5-.5z"/><path fill="#FFF" d="M11.136 4.327c0-.125.125-.25.25-.25s.25.125.25.25-.125.25-.25.25a.269.269 0 0 1-.25-.25z"/><path fill="#000" d="M10.887 13.17c.068 0 .21-.028.363-.095.258-.114.583-.34.903-.527.215-.126.404-.267.562-.345.059-.029.316-.217.306-.34-.01-.117-.25-.13-.39-.095l-.54.134c.1-.148.185-.282.257-.402.167-.279.412-.818.402-1.089-.003-.088-.131-.103-.175-.12-.048-.021-.423.21-.485.278-.102.114-.243.27-.316.349a8.151 8.151 0 0 0-.356.5 12.07 12.07 0 0 1 0-.555c.006-.125-.027-.317-.097-.406-.025-.031-.142-.044-.17-.046-.126-.005-.304.39-.356.562-.028.09-.065.204-.09.277a4.297 4.297 0 0 0-.124.48 6.55 6.55 0 0 0-.32-.17.877.877 0 0 0-.6-.053c-.244.06-.302.29-.31.402a.51.51 0 0 0 .08.294c.037.025.08.064.124.11.066.07.137.09.206.112.073.023.194.073.362.15l.097.16c.037.065.13.197.192.26a.648.648 0 0 0 .475.175z"/><path fill="#F38021" d="M10.896 13.01c.055 0 .167.004.288-.05.204-.089.462-.273.715-.42.17-.098.348-.226.473-.287.09-.044.36-.186.47-.286.065-.058.016-.102 0-.104-.115-.014-.339.034-.564.09-.099.023-.27.086-.517.187.13-.15.224-.272.28-.366.224-.372.482-.885.565-1.158.017-.055.057-.282-.12-.178-.237.14-.674.657-.89.89-.264.287-.35.564-.356.446-.005-.092.03-.291.041-.5a6.124 6.124 0 0 0 0-.658c-.002-.02-.105-.113-.153 0-.063.15-.17.41-.247.662-.08.259-.132.535-.173.658l-.128.372c.007-.245.007-.37 0-.375a.98.98 0 0 0-.18-.115 1.271 1.271 0 0 0-.298-.108c-.21-.05-.46-.059-.554.064-.152.2.01.393.089.445.197.129.651.237.651.256 0 .098.071.19.117.268.093.16.294.266.491.266z"/><path fill="#000" d="M6.07 14.404c.095 0 .349.036.59-.17.71-.608 1.69-1.869 1.374-2.171-.202-.194-.89.423-.98.512-.032.033.616-1.692.179-1.909-.437-.216-1.063 1.668-1.108 1.668-.03 0 .142.06.05-.271-.051-.186-.17-.894-.452-.819-.283.075-.301.736-.291.93a1.78 1.78 0 0 1 0 .223.764.764 0 0 0-.12-.144c-.093-.075-.36-.085-.483-.034-.096.04-.145.128-.178.178-.077.117-.087.61.264.916.103.09.262.201.476.335l-.001.076c0 .376.3.68.68.68z"/><path fill="#F38021" d="M6.155 14.134c.075 0 .229.028.416-.134.554-.478 1.4-1.577 1.374-1.757-.032-.22-1.044.669-1.12.689-.035.009.497-1.96.319-2.048-.178-.09-.954 1.896-.989 1.896-.023 0-.031-.224-.103-.485-.04-.145-.175-.765-.244-.788a.126.126 0 0 0-.129.029c-.056.051-.028.694-.02.847.022.408.11.985.09.999-.02.014-.138-.714-.389-.915-.086-.07-.318-.139-.442-.07-.11.061-.094.267-.094.356 0 .033.046.284.32.524.08.07.227.158.44.263v.06c0 .295.276.534.571.534z"/><path fill="#000" d="M13.762 9.238c.033-.034.354-.788-.393-2.183-.19-.358-.812-.894-1.862-1.607-.355.164-.57.468-.668.632.805.565 1.343.993 1.612 1.283 1.017 1.093 1.276 1.912 1.311 1.875z"/><path fill="#F38021" d="M13.733 8.925c.028-.031.107-.945-.712-2.048-.21-.282-.714-.698-1.514-1.247-.313.149-.359.297-.445.445.77.51 1.275.896 1.513 1.158.898.986 1.127 1.725 1.158 1.692z"/><path fill="#000" d="M9.351 3.232c.196-.011.3.09.39.09.088 0-.105-.322-.39-.322-.285 0-.412.321-.323.321.09 0 .127-.077.323-.089z"/><path fill="#000" d="M3.939 5.987c.059-.238.445-.357 1.157-.357-.356.06-.653.149-.89.268-.104.051-.226.362.308.362.025 0-.232-.028-.52.104-.186.084-.445.22-.59.337-.05.04-.221.176-.153.265.015.02.068.07.159.09.031.006.089.015.172.026a1.98 1.98 0 0 0-.331.123c-.178.103-.24.2-.24.237 0 .027.042.116.125.147l.09.037c-.08.03-.145.06-.194.09a4.418 4.418 0 0 0-.185.152c-.036.05-.065.08-.039.136.018.039.068.05.151.03-.148.03-.212 0-.193-.088a.3.3 0 0 1 .094-.16c.028-.028.095-.077.2-.146-.142-.086-.205-.162-.19-.229.03-.135.184-.239.459-.312a.5.5 0 0 1-.176-.078c-.045-.048-.1-.111.02-.25.112-.13.429-.302.951-.517-.158-.04-.22-.13-.185-.267z"/><path fill="#000" d="M3.497 10.966c.093.123.17.333.229.63s.207.579.444.846l-.266.18c-.209-.438-.345-.783-.407-1.036s-.062-.46 0-.62z"/><path fill="#000" d="M7.678 6.164c.467.381.826.63 1.078.745.154.07.346.154.576.196.097.018.257.03.481.035v.36c-.29.033-.659-.052-1.106-.258-.448-.205-.79-.564-1.029-1.078z"/><path fill="#000" d="M8.916 10.06c-.308.517-.561.873-.758 1.068-.121.119-.273.263-.475.381-.085.05-.231.116-.44.198l.123.337c.285-.067.602-.274.952-.62.35-.345.55-.8.598-1.365z"/><path fill="#000" d="M1.927 9.203h.318c-.01.074.023.218.098.43.075.213.102.392.082.538a5.732 5.732 0 0 1-.313-.445 1.182 1.182 0 0 1-.185-.523z"/></g></svg>