<svg xmlns="http://www.w3.org/2000/svg" width="16" height="16" viewBox="0 0 16 16"><rect id="frame" width="16" height="16" fill="none"/><defs><linearGradient id="a" x1="50%" y1="29.171%" y2="100%"><stop offset="0%" stop-color="#2684FF"/><stop offset="100%" stop-color="#0042A4"/></linearGradient></defs><g fill="none"><path fill="url(#a)" d="M6.93 0H9.9v9.9H6.93z" transform="rotate(45 2.793 10.157)"/><path fill="url(#a)" transform="matrix(.7071 .7071 .7071 -.7071 1 8)" d="M0 0h2.97v9.9H0z"/><path fill="#2684FF" d="M8 15L1 8l2.1-2.1 4.455 4.455c.728.728 1.3 1.568 1.384 2.434.062.648-.1 1.234-.939 2.212z"/><path fill="#2684FF" d="M8 1l7 7-2.1 2.1-4.454-4.454C7.717 4.917 7.145 4.078 7.06 3.21c-.062-.647.1-1.233.94-2.211z"/></g></svg>