<svg xmlns="http://www.w3.org/2000/svg" xmlns:xlink="http://www.w3.org/1999/xlink" width="16" height="16" viewBox="0 0 16 16"><rect id="frame" width="16" height="16" fill="none"/><defs><path id="a" d="M.509 0H5.6l.509 5.6-3.054 1.018L0 5.6z"/><linearGradient id="c" x1="50%" x2="52.267%" y1="0%" y2="50%"><stop offset="0%" stop-color="#3C83C0"/><stop offset="100%" stop-color="#1F5B8E"/></linearGradient></defs><g fill="none" fill-rule="evenodd" transform="translate(1 1)"><circle cx="7" cy="7" r="7" fill="#2B6FA1" fill-rule="nonzero"/><path fill="#1F5B8E" fill-rule="nonzero" d="M9.417 5.711h.001v1.67c0 .144-.245.276-.66.382l.406 4.455-3.055 1.018-3.054-1.018.405-4.455c-.415-.106-.66-.238-.66-.381v-1.67h.001c.022-.175.408-.332 1.017-.444V2.036H8.4v3.232c.61.112.995.27 1.017.443z"/><g transform="translate(4.073 6.618)"><mask id="b" fill="#fff"><use xlink:href="#a"/></mask><use fill="#DA7F14" fill-rule="nonzero" xlink:href="#a"/><path fill="#CE6801" fill-rule="nonzero" d="M2.927 6.11a8.782 8.782 0 1 1 0-17.565 8.782 8.782 0 0 1 0 17.564zm0-1.528a7.127 7.127 0 1 0 0-14.255 7.127 7.127 0 0 0 0 14.255z" mask="url(#b)" opacity=".566"/></g><path fill="#579DD1" fill-rule="nonzero" d="M7 14A7 7 0 1 1 7 0a7 7 0 0 1 0 14zm.127-1.273a5.6 5.6 0 1 0 0-11.2 5.6 5.6 0 0 0 0 11.2z"/><path fill="url(#c)" fill-rule="nonzero" d="M8.4 2.113v4.76H3.818v-4.76c-.34-.09-.679-.2-1.018-.331L5.97.075l.225-.029 3.223 1.736c-.34.13-.679.24-1.018.331z"/><path fill="#F6E5C1" fill-rule="nonzero" d="M3.818 7.382v-1.67h6.618v1.67c0 .351-1.481.636-3.309.636-1.827 0-3.309-.285-3.309-.636z"/><ellipse cx="7.127" cy="5.727" fill="#FFFDDC" fill-rule="nonzero" rx="3.309" ry="1"/><path fill="#FFFDDC" fill-rule="nonzero" d="M4.836 2.036h4.582v4.836H4.836z"/><path fill="#8C8C8C" fill-rule="nonzero" d="M7.127 0l3.31 1.782a9.16 9.16 0 0 1-3.31.636 9.16 9.16 0 0 1-3.309-.636L7.128 0z"/><circle cx="6.109" cy="3.818" r="1.018" fill="#E0BB63" fill-rule="nonzero"/><path fill="#FFCB55" fill-rule="nonzero" d="M5.982 4.836c.492 0 .89-.526.89-1.018S6.475 2.8 5.983 2.8s-.891.526-.891 1.018.399 1.018.89 1.018z"/></g></svg>