<svg xmlns="http://www.w3.org/2000/svg" width="16" height="16" viewBox="0 0 16 16"><rect id="frame" width="16" height="16" fill="none"/><defs><linearGradient id="a" x1="90.875%" x2="50%" y1="46.515%" y2="46.515%"><stop offset="0%" stop-color="#65B12D"/><stop offset="100%" stop-color="#3D883F"/></linearGradient><linearGradient id="b" x1="37.428%" x2="86.74%" y1="28.184%" y2="30.466%"><stop offset="0%" stop-color="#3C8640"/><stop offset="100%" stop-color="#65B12D"/></linearGradient><linearGradient id="c" x1="50%" x2="50%" y1="24.56%" y2="100%"><stop offset="0%" stop-color="#6FBB29"/><stop offset="100%" stop-color="#246D4B"/></linearGradient><linearGradient id="d" x1="25.438%" x2="80.792%" y1="9.469%" y2="100%"><stop offset="0%" stop-color="#FEF000"/><stop offset="100%" stop-color="#FDB901"/></linearGradient></defs><g fill="none"><g fill="#016338"><path d="M9.849 11.674c.194.079.657.216 1.138-.796.084-.177.786-1.717.875-1.872 1.106-1.934 2.773-4.683 2.35-4.853-.079-.033-.094-.344-.294-.368a.575.575 0 0 0-.289.035c-.1.044-.192.161-.22.186-.196.168-.412.491-.65.864-.196.305-.386.643-.607.958-.265.379-2.174 3.344-2.617 4.186-.18.344-.29.549-.3.673-.032.426.16.804.614.987z"/><path d="M11.11 14.445c.43-2.189.84-4.094 1.226-5.716.164-.686.712-1.965.809-2.464.318-1.638.211-2.139.404-2.313.074-.067.223-.195.414-.158.222.044.71.56.982 1.428.186.594.225 1.399.187 2.142-.076 1.53-1.051 3.188-1.541 3.998-.425.704-1.252 1.731-2.482 3.083z"/></g><path fill="#016338" d="M8.33 7.938l1.23-.353.882 3.076-1.183.353z"/><path fill="#2E7746" d="M8.535 7.88l.82-.236.882 3.076-.82.236z"/><path fill="url(#a)" d="M2.465 8.595c.59 0 .623-.56.623-1.444 0-.884.883-6.99.294-6.99-.085 0-.242-.036-.33.202-.228.624-.393 2.097-.634 3.293-.306 1.513-.636 2.826-.636 3.248 0 .379-.14.807-.074 1.1.088.39.42.59.757.59z" transform="rotate(22 -1.303 29.155)"/><path fill="#65B12D" d="M11.318 14.005c.46-2.03.85-3.706 1.166-5.027.134-.56.553-1.597.632-2.004.36-1.85.149-3.119.727-3.006.579.112 1.394 1.928 1.034 3.778-.15.775-.5 1.947-1.397 3.393-.354.572-1.075 1.527-2.162 2.866z"/><path fill="#016338" d="M11.323 14.01c1.046-2.213 1.74-3.857 2.081-4.933.341-1.077.454-2.275.339-3.595.25 1.307.183 2.552-.2 3.735-.381 1.184-1.121 2.781-2.22 4.793z"/><path fill="#016338" d="M7.22 15.155c-.26-.912-.668-1.7-1.224-2.364a30.025 30.025 0 0 1-1.381-1.834c-.362-.518-.893-1.456-1.135-1.842-1.098-1.757-1.36-2.845-2.008-2.44-.648.404-.69 2.4.408 4.156.488.782 1.38 1.864 2.801 2.886.473.34 1.32.819 2.538 1.438z"/><path fill="#016338" d="M7.715 12.133a.533.533 0 0 1-.319.068c-.136-.015-.295-.103-.434-.216-.83-.678-5.792-4.996-5.516-5.189.08-.057.065-.18.272-.23a.57.57 0 0 1 .34.076c.551.287 1.66 1.126 2.628 1.747 1.232.79 2.195 1.419 2.56 1.632.28.165.87.613.895.832.011.102.03.256.03.285.007.178-.018.367-.04.45-.06.225-.22.409-.416.545z"/><path fill="#016338" d="M6.6 7.698l1.276-.112.26 3.15c.008.105.008.208 0 .309l-.196.39-1.004.088L6.6 7.698z"/><path fill="#2E7746" d="M6.813 7.68l.85-.075.303 3.458-.149.383-.669.059z"/><path fill="#65B12D" d="M6.958 14.903c-.227-.507-.394-.86-.504-1.058-.143-.26-.322-.485-.434-.657-.492-.76-1.134-1.49-1.58-2.14-.325-.473-.814-1.324-1.034-1.676C2.407 7.774 2.15 6.514 1.65 6.826c-.5.312-.61 2.3.39 3.898.442.709 1.295 1.692 2.598 2.69.439.335 1.212.831 2.321 1.489z"/><path fill="url(#b)" d="M4.23 7.832c.04 0 .34.04.434-.344C4.914 6.456 6.279.073 5.99.073c-.085 0-.283-.088-.37.15-.115.314-.542 1.818-1.025 3.183-.478 1.354-1.12 2.992-1.157 3.146-.061.25-.059.574-.006.677.078.151.166.277.264.373.152.15.33.23.535.23z" transform="scale(-1 1) rotate(38 -7.675 -7.499)"/><path fill="#016338" d="M6.989 14.943c-1.71-1.751-2.901-3.08-3.574-3.987s-1.17-2.003-1.49-3.288c.189 1.316.657 2.472 1.403 3.467.747.995 1.967 2.264 3.66 3.808z"/><path fill="#016338" d="M7.969 9.04c1.026 0 3.156-1.97 3.156-3.16 0-1.192-1.576-2.28-3.52-2.28s-3.52 1.088-3.52 2.28c0 1.19 2.678 3.16 3.884 3.16z"/><path fill="url(#c)" d="M8.129 8.107c.798 0 2.964-1.761 2.964-2.88 0-1.12-1.48-2.283-3.306-2.283-1.827 0-3.307 1.163-3.307 2.283 0 1.119 2.85 2.88 3.649 2.88z" transform="translate(-.178 .72)"/><path fill="#016338" d="M5.379 7.32c-.63-.136-1.104-.71-1.104-1.441 0-.84.624-1.522 1.394-1.522.52 0 .973.31 1.213.77.444.636.694 1.978.561 2.143-.163.203-1.34.258-2.021.063a12.26 12.26 0 0 1-.043-.013z"/><path fill="url(#d)" d="M5.189 6.353a.991.991 0 0 1-.396-.269 1.42 1.42 0 0 1-.34-.884c0-.7.53-1.33 1.216-1.35h.084c.17 0 .543.049.814.335.052.055.1.118.145.186.39.506.733 1.936.616 2.06-.146.155-1.191.197-1.797.048a1.942 1.942 0 0 1-.342-.126z" transform="translate(-.178 .72)"/><path fill="#000" d="M5.963 6.858c-.26.105-.597-.126-.755-.515-.157-.389-.074-.79.185-.894.26-.105.598.126.755.515.157.389.075.79-.185.894z"/><path fill="#016338" d="M9.94 7.323c.63-.136 1.103-.71 1.103-1.441 0-.841-.624-1.522-1.394-1.522-.52 0-.973.31-1.212.77-.445.636-.695 1.978-.562 2.143.164.202 1.34.258 2.022.062l.043-.012z"/><path fill="url(#d)" d="M9.003 6.36a.991.991 0 0 1-.396-.27 1.42 1.42 0 0 1-.34-.883c0-.7.53-1.331 1.216-1.35h.084c.17 0 .544.048.814.334.052.055.1.119.145.187.39.505.733 1.936.616 2.06-.145.155-1.191.197-1.797.048a1.942 1.942 0 0 1-.342-.126z" transform="matrix(-1 0 0 1 19.255 .72)"/><path fill="#000" d="M9.207 6.865c.26.104.597-.126.755-.515.157-.39.074-.79-.186-.895-.26-.104-.597.126-.754.515-.158.39-.075.79.185.895z"/><path fill="#016338" d="M11.891 2.291c-.744-.545-1.43-.68-2.06-.406-.233.102-.8.439-1.135.864-.51.645-.754 1.375-.767 1.384h-.106c.33-.755.592-1.256.784-1.5a2.966 2.966 0 0 1 1.222-.9c.632-.251 1.32-.065 2.062.558z"/><path fill="#016338" d="M3.201 2.297c.744-.545 1.43-.681 2.06-.406.234.102.8.439 1.136.864.51.645.753 1.375.766 1.384h.106c-.33-.755-.591-1.256-.784-1.5a2.966 2.966 0 0 0-1.222-.9c-.632-.251-1.319-.065-2.062.558z"/></g></svg>