<svg xmlns="http://www.w3.org/2000/svg" width="16" height="16" viewBox="0 0 16 16"><rect id="frame" width="16" height="16" fill="none"/><g fill="none" fill-rule="evenodd"><path fill="#DE752C" d="M6.171 4.21l1.56 2.701c.248-.066.518-.047.764.068l.82-1.42-1.37-2.374-1.79 1.034.016-.01M3.82 7.705h3.12a1.118 1.118 0 0 1 .44-.63l-.82-1.42H3.818v2.067h.001v-.017m5.172.849a1.108 1.108 0 0 1-.329.356l.821 1.422h2.741V8.283H9.102c-.025.093-.06.184-.11.27m-.18-1.351c.19.188.302.436.325.695h1.64l1.37-2.374-1.774-1.024-1.561 2.703m-3.143 4.287L7.23 8.784a1.124 1.124 0 0 1-.324-.693h-1.64l-1.371 2.373 1.789 1.033-.015-.008m4.203.289l-1.56-2.702a1.11 1.11 0 0 1-.764-.068l-.82 1.42 1.37 2.374 1.789-1.033-.015.009"/><path fill="#517A9E" fill-rule="nonzero" d="M8.022 1.007c-3.853 0-6.987 3.134-6.987 6.986 0 3.853 3.134 6.988 6.987 6.988 3.852 0 6.987-3.135 6.987-6.988 0-3.852-3.135-6.986-6.987-6.986zm0 1.415a5.572 5.572 0 1 1 0 11.143 5.572 5.572 0 0 1 0-11.143z"/></g></svg>