<svg xmlns="http://www.w3.org/2000/svg" width="16" height="16" viewBox="0 0 16 16"><rect id="frame" width="16" height="16" fill="none"/><g fill="none" fill-rule="evenodd"><path fill="#4C4C4C" d="M1 12.526h3.031l.216-2.598-2.814-.649L1 12.526z"/><path fill="#4C4C4C" d="M1.541 8.845l2.706.65.65-2.273-2.273-1.191-1.083 2.814z"/><path fill="#4C4C4C" d="M2.84 5.598l2.165 1.191 1.732-1.191-1.624-1.84z"/><path fill="#4C4C4C" d="M14.964 12.526h-3.031l-.217-2.598 2.815-.649.433 3.247z"/><path fill="#4C4C4C" d="M14.422 8.845l-2.706.65-.649-2.273 2.273-1.191 1.082 2.814z"/><path fill="#4C4C4C" d="M13.124 5.598l-2.165 1.191-1.732-1.191 1.624-1.84z"/><path fill="#4C4C4C" d="M5.655 3.433l1.623 1.948h1.516l1.407-1.948L8.794 3H7.24l-1.585.433z"/><path fill="#9C0000" d="M1 12.526h3.031l.216-2.598-2.814-.649L1 12.526z"/><path fill="#B50808" d="M1.541 8.845l2.706.65.65-2.273-2.273-1.191-1.083 2.814z"/><path fill="#C61818" d="M2.84 5.598l2.165 1.191 1.732-1.191-1.624-1.84z"/><path fill="#9C0000" d="M14.964 12.526h-3.031l-.217-2.598 2.815-.649.433 3.247z"/><path fill="#B50808" d="M14.422 8.845l-2.706.65-.649-2.273 2.273-1.191 1.082 2.814z"/><path fill="#C61818" d="M13.124 5.598l-2.165 1.191-1.732-1.191 1.624-1.84z"/><path fill="#CE3129" d="M5.655 3.433l1.623 1.948h1.516l1.407-1.948L8.794 3H7.24l-1.585.433z"/></g></svg>