<svg xmlns="http://www.w3.org/2000/svg" width="16" height="16" viewBox="0 0 16 16"><rect id="frame" width="16" height="16" fill="none"/><path fill="#D94949" fill-rule="evenodd" d="M9.565 1.317c-.103.22-.134.59-.079.876.04.218.352.405.413.566-.029.103-.03.443-.088.485-.044.031-.368-.027-.637-.06-.154-.018-.264-.013-.36-.015-.357-.006-.415.237-.624.379-.086.059-.69.484-.949.68-.131.099-.374.197-.483.255-.1.056-.284.161-.316.335-.085.47-.026 2.358-.011 2.417.015.06-.144.494-.091.646.026.07.05.125.077.14.068.036.481.044.612.01.122-.033.161-.09.164-.236a.325.325 0 0 1 .044-.16c.053-.071.052-.14-.007-.278a.38.38 0 0 0-.135-.162c-.068-.034-.084-.061-.083-.13.002-.117.04-.686.116-1.705.474-.113.8-.226.977-.34.035-.024.12-.08.257-.168a4.932 4.932 0 0 0-.007.346c.009.16-.026.359-.013.754.022.65-.01.55-.014.847l-.01.558c-.43.434-.928.84-.92 1.645l-.245.286c-.243.344-.48.56-.657 1.068-.079.226-.23.516-.454.87-.94.03-1.609.235-2.004.616-.284.274-.92.767-1.193.756-.587-.024-.696-.122-.793-.069-.14.08-.16.143-.161.544-.003.354-.006.362-.1.56-.095.196-.098.21-.104.558-.007.37.021.514.114.565.085.045.17.102.247-.086.069-.158.183-.735.524-1.146.236-.29.688-.54 1.8-.81.286-.07.703-.195 1.164-.314.45-.117.944-.18 1.034-.24.117-.077.724-.604.912-.751.598-.473 1.035-.7 1.454-1.45.08-.144.16-.236.244-.274.439.327.808.511 1.107.553 1.033.144.92.189.92.208 0 .014-.26.29-.32.353-.19.199-.813 1.645-1.25 2.403-.067.115-.203.178-.284.234-.101.072-.104.171-.123.204-.074.128.102.335.31.557.157.169.335.373.414.406.402.172.535.368.86.31.25-.045.366-.106.382-.193.012-.066-.064-.128-.294-.247-.142-.075-.367-.375-.674-.902 1.26-1.506 1.913-2.332 1.958-2.478.042-.14.29-.482.371-.711a.682.682 0 0 0-.002-.397c-.055-.202-.677-.908-1.393-1.382-.186-.123-.55-.296-1.094-.519.047-.273.11-.545.19-.816.118-.404.413-.795.527-1.112.114-.317.25-.848.267-.911.008-.024.101.082.196.17.15.136.99.817 1.22.898.113.04.318-.157.41-.199.055-.026.162-.166.277-.268.247-.474.446-.74.721-1.343.139-.303.158-.345.276-.464a.659.659 0 0 0 .187-.293c.046-.15.047-.161-.001-.253-.054-.105-.195-.228-.345-.302-.088-.043-.11-.046-.17-.014a.2.2 0 0 0-.088.086c-.009.028-.031.05-.053.049-.02 0-.064.02-.097.047-.081.062-.11.32-.053.507.036.133.036.135-.058.307-.125.228-.62.81-.668.87l-.228.229-.284-.398a2.674 2.674 0 0 0-.346-.325c-.137-.162-.282-.204-.32-.325-.209-.362-.248-.404-.48-.559a2.54 2.54 0 0 0-.385-.174 2.549 2.549 0 0 1 .006-.304c.01-.085-.07-.133.233-.106.126.01.17-.022.173-.131 0-.033.02-.08.046-.101.022-.024.034-.054.026-.071a.06.06 0 0 1 .006-.06.217.217 0 0 0 .013-.11c-.004-.069.004-.077.079-.075.044 0 .09-.01.1-.026.008-.014-.04-.078-.064-.161-.041-.144-.15-.219-.104-.36a.784.784 0 0 0 .038-.399c-.068-.355-.17-.385-.442-.486-.148-.055-.781-.253-1.308.216z"/></svg>