<svg xmlns="http://www.w3.org/2000/svg" width="16" height="16" viewBox="0 0 16 16"><rect id="frame" width="16" height="16" fill="none"/><path fill="#C00000" fill-rule="evenodd" d="M3.75 11.228c.478.585 1.289 1.161 1.794.954.505-.208.693-1.767.508-1.977-.184-.21-1.175-1.913-1.928-1.678-.754.236-.852 2.115-.374 2.7zm.136-4.308c.47.802 1.85 1.824 2.726 1.477.875-.347.26-1.609-.238-2.445-.072-.12-.108-.626-.425-1.062-.318-.436-.817-.723-1.19-.597-1.061.358-1.351 2.04-.873 2.627zm3.947-.289c.478.586.578 1.183 1.306 1.163.729-.02 1.267-1.811 1.239-2.539-.029-.728-.718-2.379-1.896-2.044-1.178.334-1.206 1.821-.649 3.42zm2.907 2.325c.14.717.691 1.222 1.5 1 .808-.22.996-2.386.812-2.596-.184-.21-.56-1.302-1.313-1.066-.753.235-1.298 1.74-.999 2.662zm-4.099 4.972c1.107.467 1.477-.717 2.689-1.052 1.211-.334 2.259.248 2.599-.868.435-1.431-.671-1.229-1.568-1.876-.897-.648-.677-1.375-2.048-1.047-1.477.353-.709 1.902-1.278 2.459-.825.808-1.076 2.096-.394 2.384zM2.698 8.04c.098.273.555.542.788.437.234-.105.22-.384.107-.728-.113-.343-.64-.781-.82-.706-.182.074-.174.725-.075.997zm1.049-4.423c.098.273.232.758.6.615.366-.142.477-.406.363-.75-.113-.343-.564-.852-.745-.778-.18.075-.316.64-.218.913zM7.863 2.16c.098.272.585.733.818.628.234-.105.346-.62.233-.963-.114-.344-.622-.887-.803-.812-.181.075-.347.874-.248 1.147zm3.573 3.427c.098.273.27.547.503.442.233-.105.497-.337.384-.68-.114-.344-.38-1.13-.56-1.056-.181.075-.425 1.022-.327 1.294z"/></svg>