<svg ti:v="1" width="16" height="16" viewBox="0 0 16 16" xmlns="http://www.w3.org/2000/svg" xmlns:ti="urn:schemas-jetbrains-com:tisvg"><rect id="frame" width="16" height="16" fill="none"/><path fill-rule="evenodd" d="M1 11V8c0-1.573 1.718-4 4-4h7c2.282 0 4 2.427 4 4v3H1z" fill="#3462BC"/><path fill-rule="evenodd" d="M15 15H2v-4h13v4z" fill="#A17000"/><path fill-rule="evenodd" d="M14 11h-1v3h1m-2-3h-1v3h1m-2-3H9v3h1m-2-3H7v3h1m-2-3H5v3h1m-2 0H3v-3h1v3z" fill="#ECCA32"/><linearGradient id="a" x1=".5" y1=".015" x2=".5" y2="1.015"><stop offset="0" stop-color="#90C7F3"/><stop offset="1" stop-color="#6095DE"/></linearGradient><path fill-rule="evenodd" d="M5 5C3.344 5 2 6.896 2 8v2h13V8c0-1.104-1.344-3-3-3H5z" fill="url(#a)"/><path fill-rule="evenodd" d="M3.432 7h10.137c-.38-.521-.96-1-1.57-1H5c-.608 0-1.188.479-1.567 1z" fill="#3462BC"/><linearGradient id="b" x1="0" y1=".5" x2="1" y2=".5"><stop offset="0" stop-color="#2D7200"/><stop offset="1" stop-color="#193F00"/></linearGradient><path fill-rule="evenodd" d="M6 6h5V0H6v6z" fill="url(#b)"/><linearGradient id="c" x1="0" y1=".5" x2="1" y2=".5"><stop offset="0" stop-color="#BFED32"/><stop offset="1" stop-color="#72B500"/></linearGradient><path fill-rule="evenodd" d="M7 6h3.001V0H7v6z" fill="url(#c)"/></svg>