<svg ti:v="1" width="16" height="16" viewBox="0 0 16 16" xmlns="http://www.w3.org/2000/svg" xmlns:ti="urn:schemas-jetbrains-com:tisvg"><rect id="frame" width="16" height="16" fill="none"/><g fill-rule="evenodd"><path d="M9 16h6V0H9v16z" fill="#F4F4F4"/><path d="M2 10.414V7.382l2 1V2h4v6.382l2-1v3.032l-4 4-4-4z" fill="#F4F4F4"/><path d="M6 13l-3-3V9l2 1V3h2v7l2-1v1l-3 3z" fill="#00529C"/><path d="M14 5h-4V1h4v4z" fill="#313131"/><path d="M14 15h-4l2-4 2 4z" fill="#313131"/><path d="M14 8a2 2 0 1 1-4.001-.001A2 2 0 0 1 14 8z" fill="#313131"/></g></svg>