<svg ti:v="1" width="16" height="16" viewBox="0 0 16 16" xmlns="http://www.w3.org/2000/svg" xmlns:ti="urn:schemas-jetbrains-com:tisvg"><rect id="frame" width="16" height="16" fill="none"/><path fill-rule="evenodd" d="M10 15h5V1h-5v14z" fill="#3D3F40"/><path fill-rule="evenodd" d="M13 5h-1V3h1m-2-1v5h1V6h1v1h1V2h-3z" fill="#FFF"/><path fill-rule="evenodd" d="M14 10V9h-3v1h2l-2 3v1h3v-1h-2l2-3z" fill="#FFF"/><linearGradient id="a" x1=".5" y1=".017" x2=".5" y2="1.014"><stop offset="0" stop-color="#0D3751"/><stop offset="1" stop-color="#36617C"/></linearGradient><path fill-rule="evenodd" d="M2 10.414V7.382l2 1V2h4v6.382l2-1v3.032l-4 4-4-4z" fill="url(#a)"/><linearGradient id="b" x1=".5" y1=".007" x2=".5" y2="1"><stop offset="0" stop-color="#60C3FF"/><stop offset="1" stop-color="#B8F4FF"/></linearGradient><path fill-rule="evenodd" d="M6 13l-3-3V9l2 1V3h2v7l2-1v1l-3 3z" fill="url(#b)"/></svg>