<svg ti:v="1" width="16" height="16" viewBox="0 0 16 16" xmlns="http://www.w3.org/2000/svg" xmlns:ti="urn:schemas-jetbrains-com:tisvg"><rect id="frame" width="16" height="16" fill="none"/><g fill-rule="evenodd"><path d="M10 15h5V1h-5v14z" fill="#F4F4F4"/><path d="M13 5h-1V3h1m-2-1v5h1V6h1v1h1V2h-3z" fill="#313131"/><path d="M14 10V9h-3v1h2l-2 3v1h3v-1h-2l2-3z" fill="#313131"/><path d="M2 10.414V7.382l2 1V2h4v6.382l2-1v3.032l-4 4-4-4z" fill="#F4F4F4"/><path d="M6 13l-3-3V9l2 1V3h2v7l2-1v1l-3 3z" fill="#00529C"/></g></svg>