<svg ti:v="1" width="16" height="16" viewBox="0 0 16 16" xmlns="http://www.w3.org/2000/svg" xmlns:ti="urn:schemas-jetbrains-com:tisvg"><rect id="frame" width="16" height="16" fill="none"/><path fill-rule="evenodd" d="M9 16h6V0H9v16z" fill="#3D3F40"/><linearGradient id="a" x1=".5" y1=".017" x2=".5" y2="1.014"><stop offset="0" stop-color="#0D3751"/><stop offset="1" stop-color="#36617C"/></linearGradient><path fill-rule="evenodd" d="M4 2v6.38l-2-.998v3.032l4 4 4-4V7.382l-2 .999V2H4z" fill="url(#a)"/><linearGradient id="b" x1=".5" y1=".007" x2=".5" y2="1"><stop offset="0" stop-color="#60C3FF"/><stop offset="1" stop-color="#B8F4FF"/></linearGradient><path fill-rule="evenodd" d="M5 3v7L3 9v1l3 3 3-3V9l-2 1V3H5z" fill="url(#b)"/><path fill-rule="evenodd" d="M14 5h-4V1h4v4z" fill="#FBBFFF"/><path fill-rule="evenodd" d="M14 15h-4l2-4 2 4z" fill="#18FF00"/><path fill-rule="evenodd" d="M14 8a2 2 0 1 1-4.001-.001A2 2 0 0 1 14 8z" fill="#F6FF75"/></svg>