<svg ti:v="1" width="16" height="16" viewBox="0 0 16 16" xmlns="http://www.w3.org/2000/svg" xmlns:ti="urn:schemas-jetbrains-com:tisvg"><rect id="frame" width="16" height="16" fill="none"/><g fill-rule="evenodd"><path d="M5 12.25V6.751L10 4l5 2.751v5.499L10 15l-5-2.75z" fill="#242424"/><path d="M6 7.801v3.858l4 2.2V10L6 7.801z" fill="#C4C4C4"/><path d="M14 7.801L10 10v3.859l4-2.2V7.801z" fill="#C4C4C4"/><path d="M13.379 7l-3.38 1.858L6.622 7 6 7.342v.459L10 10l4-2.199v-.459L13.379 7z" fill="#282828"/><path d="M10 8.858L13.379 7 10 5.141 6.621 7 10 8.858z" fill="#C4C4C4"/><path d="M9 6v3H8v1H6v1H5v1H2v-1H1V8h1V6H1V5H0V2h1V1h1V0h3v1h1v1h1v3h1v1h1z" fill="#242424"/><path d="M7 7V6H6v1H5v1h1v1h1V8h1V7M4 8H3v1H2v1h1v1h1v-1h1V9H4M3 5L2 4H1V3h1l1-1V1h1v1l1 1h1v1H5L4 5v1H3V5z" fill="#E9A34C"/><path d="M3 4h1V2.999H3V4z" fill="#282828"/><path d="M3 10h1V9H3v1z" fill="#282828"/><path d="M6 8h1V7H6v1z" fill="#282828"/></g></svg>