<svg ti:v="1" width="16" height="16" viewBox="0 0 16 16" xmlns="http://www.w3.org/2000/svg" xmlns:ti="urn:schemas-jetbrains-com:tisvg"><rect id="frame" width="16" height="16" fill="none"/><linearGradient id="a" x1=".5" y1="0" x2=".5" y2="1"><stop offset="0" stop-color="purple"/><stop offset="1" stop-color="#5B005B"/></linearGradient><path fill-rule="evenodd" d="M5 12.25V6.751L10 4l5 2.751v5.499L10 15l-5-2.75z" fill="url(#a)"/><linearGradient id="b" x1=".028" y1=".5" x2="1.015" y2=".5"><stop offset="0" stop-color="#FD58FF"/><stop offset="1" stop-color="#FF9CFF"/></linearGradient><path fill-rule="evenodd" d="M6 7.801v3.858l4 2.199V10L6 7.801z" fill="url(#b)"/><linearGradient id="c" x1=".028" y1=".5" x2="1.015" y2=".5"><stop offset="0" stop-color="#FD32FF"/><stop offset="1" stop-color="#FFA3FF"/></linearGradient><path fill-rule="evenodd" d="M14 7.801L10 10v3.858l4-2.199V7.801z" fill="url(#c)"/><path fill-rule="evenodd" d="M13.379 7l-3.38 1.858L6.622 7 6 7.342v.459L10 10l4-2.199v-.459L13.379 7z" fill="#FFE6FF"/><linearGradient id="d" x1=".5" y1=".028" x2=".5" y2="1.016"><stop offset="0" stop-color="#FD53FF"/><stop offset="1" stop-color="#FFBFFF"/></linearGradient><path fill-rule="evenodd" d="M10 8.858L13.379 7 10 5.142 6.621 7 10 8.858z" fill="url(#d)"/><path fill-rule="evenodd" d="M9 6v3H8v1H6v1H5v1H2v-1H1V8h1V6H1V5H0V2h1V1h1V0h3v1h1v1h1v3h1v1h1z" fill="#8F7E00"/><path fill-rule="evenodd" d="M7 7V6H6v1H5v1h1v1h1V8h1V7M4 8H3v1H2v1h1v1h1v-1h1V9H4M3 5L2 4H1V3h1l1-1V1h1v1l1 1h1v1H5L4 5v1H3V5z" fill="#FDFF7F"/><path fill-rule="evenodd" d="M3 4h1V2.999H3V4z" fill="#FFF"/><path fill-rule="evenodd" d="M3 10h1V9H3v1z" fill="#FFF"/><path fill-rule="evenodd" d="M6 8h1V7H6v1z" fill="#FFF"/></svg>