<svg width="16" height="16" viewBox="0 0 16 16" fill="none" xmlns="http://www.w3.org/2000/svg">
<path fill-rule="evenodd" clip-rule="evenodd" d="M2 12V3H5.23156C6.05489 3 6.70326 3.28286 7.11492 3.79714C7.43396 4.19571 7.59863 4.69714 7.59863 5.28857V5.31429C7.59863 6.39429 7.36169 6.70692 6.82652 7.05406C7.67044 7.41406 8 8.28429 8 9.50571V9.53143C8 11.1386 6.93997 12 5.33448 12H2ZM6.5 9C6.5 8.53906 6.16372 8.25 5.30531 8.25H3.5V10.5H5.30531C6.03982 10.5 6.5 10.2422 6.5 9.75V9ZM6.03009 5.25C6.03009 4.78906 5.84766 4.5 4.98926 4.5H3.5V6.75H4.98926C5.72377 6.75 6.03009 6.49219 6.03009 6V5.25Z" fill="#9AA7B0"/>
<path fill-rule="evenodd" clip-rule="evenodd" d="M8 12.5L11.5 9V16L8 12.5Z" fill="#F26522"/>
<path fill-rule="evenodd" clip-rule="evenodd" d="M16 12.5L12.5 16L12.5 9L16 12.5Z" fill="#62B543"/>
<path fill-rule="evenodd" clip-rule="evenodd" d="M10.2297 8.77034L11 8H11.7297V4.49432L14 4.46682V3H8V4.46682L10.2297 4.49432V8.77034Z" fill="#9AA7B0"/>
</svg>
