<svg xmlns="http://www.w3.org/2000/svg" width="16" height="16" viewBox="0 0 16 16"><rect id="frame" width="16" height="16" fill="none"/><g fill="none" fill-rule="evenodd"><path fill="#62B543" d="M14 8H9V3z"/><path fill="#F26522" d="M2 8l5-5v10z"/><path fill="#231F20" fill-opacity=".7" d="M8 15V9h2.154c.55 0 .982.189 1.256.531.213.266.322.6.322.995v.017c0 .72-.158.928-.514 1.16.562.24.782.82.782 1.634v.017C12 14.426 11.293 15 10.223 15H8zm3-2c0-.307-.224-.5-.796-.5H9V14h1.204c.49 0 .796-.172.796-.5V13zm-.313-2.5c0-.307-.122-.5-.694-.5H9v1.5h.993c.49 0 .694-.172.694-.5v-.5z"/><path fill="#231F20" fill-opacity=".7" d="M13.486 14.995v-5L12 9.977V9h4v.977l-1.514.018v5z"/></g></svg>