<svg xmlns="http://www.w3.org/2000/svg" width="16" height="16" viewBox="0 0 16 16"><rect id="frame" width="16" height="16" fill="none"/><g fill-rule="evenodd"><path fill="#AFB1B3" d="M8 9.333V7.987l-.251.679L4.65 1H3.178l1.507 3.73L2 11h1.575L5.45 6.623l1.596 3.948L5.778 14h1.528l1.383-3.747L8 9.333zM8.365 7l1.109-3H11L9.892 7H8.365z"/><path fill="#C75450" d="M12.586 14h-2.172l.836-1.836v-1.328L10.414 9h2.172l-.836 1.836v1.328L12.586 14zM14 9V8H9v1l1.5 2v1L9 14v1h5v-1l-1.5-2v-1L14 9z"/></g></svg>