<svg xmlns="http://www.w3.org/2000/svg" width="16" height="16" viewBox="0 0 16 16"><rect id="frame" width="16" height="16" fill="none"/><g fill="none" fill-rule="evenodd"><path fill="#62B543" fill-opacity=".7" d="M14.965 9.016L12.921 6.97c.054-.195.098-.392.133-.59-.06.175-.128.349-.204.52l-1.193-1.194-2 2L7.789 5.84c.357-.036.72-.09 1.092-.18 1.86-.44 4.015-1.84 4.89-3.659.656 1.942 1.4 4.615 1.194 7.016zM4.88 14.243c-.148.001-.292.005-.432.012 0 0-.504.028-1.013.112 0 0 .193-.082.438-.167.258-.089.498-.168.723-.241l.284.284zM3.607 12.97c-.651.147-1.105.237-1.105.237l-.12-.064C.354 12.157.298 7.77 3.979 6.355c1.175-.452 2.314-.394 3.52-.49L2 11.365l1.607 1.606z"/><path fill="#40B6E0" d="M8.655 11.39l.654.654-1.401.093-.112.112-.098-.098-.775.052.159-2.386.795.795 3.596-3.596 4.455 4.455-4.455 4.455-.778-.778 3.677-3.677-2.899-2.899-2.818 2.818z"/><path fill="#9AA7B0" d="M11.43 10.791l.775-.052-.16 2.387-.795-.796-3.595 3.596L3.2 11.471l4.455-4.455.778.778-3.677 3.677 2.899 2.9 2.818-2.818-.655-.654 1.402-.094.112-.112.097.098z"/></g></svg>