<svg xmlns="http://www.w3.org/2000/svg" width="16" height="16" viewBox="0 0 16 16">
  <g fill="none" fill-rule="evenodd">
    <path fill="#62B543" fill-opacity=".7" d="M14.9652885,9.015541 L12.9210825,6.97133504 C12.9748664,6.77571268 13.0193262,6.57900997 13.0537151,6.3817562 C12.9940503,6.55646622 12.9260292,6.72950084 12.8503016,6.90055417 L11.6568542,5.70710678 L9.65685425,7.70710678 L7.78918138,5.83943391 C8.14570757,5.80291766 8.50872839,5.74861312 8.88087692,5.65981457 C10.7417233,5.21805992 12.8961723,3.81917019 13.7718647,2 C14.4274387,3.94203852 15.170354,6.61480243 14.9652885,9.015541 Z M4.87874239,14.2427034 C4.73134478,14.2444856 4.58733122,14.2482628 4.44717245,14.2546012 C4.44717245,14.2546012 3.94283089,14.2832335 3.43439732,14.3670851 C3.43439732,14.3670851 3.62672229,14.2852786 3.87224354,14.2004045 C4.12960472,14.1114511 4.36951765,14.0316415 4.59480309,13.9587641 L4.87874239,14.2427034 Z M3.60650631,12.9704673 C2.95569827,13.1166584 2.50243959,13.2070804 2.50243959,13.2074791 L2.38172498,13.1430565 C0.354128707,12.1572892 0.297863422,7.76939754 3.97863607,6.35516911 C5.15436534,5.90309611 6.2926515,5.96144818 7.4982294,5.86573163 L2,11.363961 L3.60650631,12.9704673 Z"/>
    <g transform="rotate(-45 15.447 1.873)">
      <path fill="#40B6E0" d="M3.915,3.79999997 L3.915,4.725 L2.85785711,3.79999997 L2.7,3.79999997 L2.7,3.661875 L2.115,3.15 L3.915,1.575 L3.915,2.7 L9,2.7 L9,9 L2.7,9 L2.7,7.89999997 L7.89999997,7.89999997 L7.89999997,3.79999997 L3.915,3.79999997 Z"/>
      <path fill="#9AA7B0" d="M6.3,5.338125 L6.885,5.85 L5.085,7.425 L5.085,6.3 L-1.35891298e-13,6.3 L-1.35891298e-13,9.1038288e-14 L6.3,9.1038288e-14 L6.3,1.09999997 L1.09999997,1.09999997 L1.09999997,5.19999997 L5.085,5.19999997 L5.085,4.275 L6.14214282,5.19999997 L6.3,5.19999997 L6.3,5.338125 Z"/>
    </g>
  </g>
</svg>
