<svg width="128" height="128" viewBox="0 0 128 128" fill="none" xmlns="http://www.w3.org/2000/svg"><rect id="frame" width="128" height="128" fill="none"/><path d="M17.2 115.733L0 13.467 31.867.133l20.4 12.134 18.666-10L109.867 17.2 88 128l-70.8-12.267z" fill="url(#paint0_linear)"/><path d="M128 43.333l-16.534-40.8-30-2.533L35.2 44.4l12.533 57.333L70.933 118 128 84.133 114 58l14-14.667z" fill="url(#paint1_linear)"/><path d="M102.4 37.2L114 58l14-14.667L117.733 18 102.4 37.2z" fill="url(#paint2_linear)"/><path d="M103 25H25v78h78V25z" fill="url(#paint3_linear)"/><path d="M62.7 89.567H33.667v4.767H62.7v-4.767z" fill="#fff"/><path d="M62.44 34.75l-4.42 17.03-4.94-17.03h-4.94L43.2 51.78l-4.42-17.03h-6.76L40.34 64h5.46l4.81-16.9L55.29 64h5.59l8.32-29.25h-6.76z" fill="#fff"/><path d="M70.5 59.84l3.77-4.55c2.6 2.21 5.46 3.51 8.71 3.51 2.6 0 4.29-1.04 4.29-2.73v-.13c0-1.69-1.04-2.47-5.85-3.77-5.85-1.56-9.75-3.12-9.75-8.97v-.13c0-5.33 4.29-8.84 10.27-8.84 4.29 0 7.93 1.3 10.92 3.77l-3.38 4.81c-2.6-1.82-5.2-2.86-7.67-2.86-2.47 0-3.77 1.17-3.77 2.6v.13c0 1.95 1.3 2.6 6.37 3.9 5.98 1.56 9.36 3.64 9.36 8.84v.13c0 5.85-4.42 9.1-10.79 9.1-4.55-.13-8.97-1.69-12.48-4.81z" fill="#fff"/><defs><linearGradient id="paint0_linear" x1="45.838" y1="2.67" x2="78.963" y2="121.92" gradientUnits="userSpaceOnUse"><stop offset=".285" stop-color="#07C3F2"/><stop offset=".941" stop-color="#087CFA"/></linearGradient><linearGradient id="paint1_linear" x1="56.173" y1="17.8" x2="112.21" y2="99.97" gradientUnits="userSpaceOnUse"><stop offset=".14" stop-color="#FCF84A"/><stop offset=".366" stop-color="#07C3F2"/></linearGradient><linearGradient id="paint2_linear" x1="111.692" y1="27.959" x2="119.052" y2="54.023" gradientUnits="userSpaceOnUse"><stop offset=".285" stop-color="#07C3F2"/><stop offset=".941" stop-color="#087CFA"/></linearGradient><linearGradient id="paint3_linear" x1="63.896" y1="6.042" x2="63.896" y2="75.993" gradientUnits="userSpaceOnUse"><stop offset=".084" stop-color="#878585"/><stop offset=".538"/></linearGradient></defs></svg>