<svg width="24" height="24" viewBox="0 0 24 24" fill="none" xmlns="http://www.w3.org/2000/svg"><rect id="frame" width="24" height="24" fill="none"/><path d="M3.225 21.7L0 2.525l5.975-2.5L9.8 2.3 13.3.425l7.3 2.8L16.5 24 3.225 21.7z" fill="url(#paint0_linear)"/><path d="M24 8.125L20.9.475 15.275 0 6.6 8.325l2.35 10.75 4.35 3.05 10.7-6.35-2.625-4.9L24 8.125z" fill="url(#paint1_linear)"/><path d="M19.2 6.975l2.175 3.9L24 8.125l-1.925-4.75-2.875 3.6z" fill="url(#paint2_linear)"/><path d="M20 4H4v16h16V4z" fill="url(#paint3_linear)"/><path d="M12 17H6v1h6v-1z" fill="#fff"/><path d="M11.68 6l-.907 3.493L9.76 6H8.747L7.733 9.493 6.827 6H5.44l1.707 6h1.12l.986-3.467.96 3.467h1.147l1.707-6H11.68z" fill="#fff"/><path d="M13.333 11.147l.774-.934c.533.454 1.12.72 1.786.72.534 0 .88-.213.88-.56v-.026c0-.347-.213-.507-1.2-.774-1.2-.32-2-.64-2-1.84v-.026c0-1.094.88-1.814 2.107-1.814.88 0 1.627.267 2.24.774l-.693.986c-.534-.373-1.067-.586-1.574-.586-.506 0-.773.24-.773.533v.027c0 .4.267.533 1.307.8 1.226.32 1.92.746 1.92 1.813v.027c0 1.2-.907 1.866-2.214 1.866-.933-.026-1.84-.346-2.56-.986z" fill="#fff"/><defs><linearGradient id="paint0_linear" x1="8.595" y1=".501" x2="14.806" y2="22.86" gradientUnits="userSpaceOnUse"><stop offset=".285" stop-color="#07C3F2"/><stop offset=".941" stop-color="#087CFA"/></linearGradient><linearGradient id="paint1_linear" x1="10.533" y1="3.337" x2="21.039" y2="18.744" gradientUnits="userSpaceOnUse"><stop offset=".14" stop-color="#FCF84A"/><stop offset=".366" stop-color="#07C3F2"/></linearGradient><linearGradient id="paint2_linear" x1="20.942" y1="5.242" x2="22.322" y2="10.129" gradientUnits="userSpaceOnUse"><stop offset=".285" stop-color="#07C3F2"/><stop offset=".941" stop-color="#087CFA"/></linearGradient><linearGradient id="paint3_linear" x1="12" y1=".129" x2="12" y2="14.478" gradientUnits="userSpaceOnUse"><stop offset=".084" stop-color="#878585"/><stop offset=".538"/></linearGradient></defs></svg>