<svg xmlns="http://www.w3.org/2000/svg" xmlns:xlink="http://www.w3.org/1999/xlink" width="16" height="16" viewBox="0 0 16 16"><rect id="frame" width="16" height="16" fill="none"/><defs><circle id="a" cx="7" cy="7" r="7"/><linearGradient id="c" x1="4.547%" x2="25.932%" y1="62.056%" y2="43.316%"><stop offset="0%" stop-color="#3566D6"/><stop offset="100%" stop-color="#3F70DC"/></linearGradient><circle id="d" cx="7" cy="7" r="7"/><circle id="f" cx="7" cy="7" r="7"/><linearGradient id="h" x1="32.625%" x2="43.137%" y1="-4.841%" y2="28.327%"><stop offset="0%" stop-color="#8EADEC"/><stop offset="100%" stop-color="#A1C1FC"/></linearGradient><circle id="i" cx="7" cy="7" r="7"/><radialGradient id="j" cx="-4.872%" cy="-.248%" r="401.327%" fx="-4.872%" fy="-.248%" gradientTransform="matrix(.26722 0 0 1 -.036 0)"><stop offset="0%" stop-color="#7894DD" stop-opacity=".176"/><stop offset="100%" stop-color="#3E2723" stop-opacity="0"/></radialGradient><circle id="l" cx="7" cy="7" r="7"/><radialGradient id="m" cx="-.157%" cy=".104%" r="136.321%" fx="-.157%" fy=".104%" gradientTransform="scale(1 .84752)"><stop offset="0%" stop-color="#335EC2" stop-opacity=".31"/><stop offset="100%" stop-color="#3E2723" stop-opacity="0"/></radialGradient><circle id="o" cx="7" cy="7" r="7"/><linearGradient id="p" x1="68.916%" x2="-26.883%" y1="9.006%" y2="110.032%"><stop offset="0%" stop-color="#5386E3" stop-opacity=".669"/><stop offset="100%" stop-color="#507BC6" stop-opacity=".16"/></linearGradient><circle id="r" cx="7" cy="7" r="7"/><radialGradient id="t" cx="14.935%" cy="13.644%" r="100.426%" fx="14.935%" fy="13.644%"><stop offset="0%" stop-color="#FFF" stop-opacity=".1"/><stop offset="100%" stop-color="#FFF" stop-opacity="0"/></radialGradient></defs><g fill="none" fill-rule="evenodd" transform="translate(1 1)"><mask id="b" fill="#fff"><use xlink:href="#a"/></mask><g fill-rule="nonzero" mask="url(#b)"><path fill="#3468DA" d="M.554-.557V9.894h3.47l3.052-5.806h7.752V-.557z"/><path fill="url(#c)" d="M.077 0v10.451h3.47l3.052-5.806h7.752V0z" transform="translate(.477 -.557)"/></g><mask id="e" fill="#fff"><use xlink:href="#d"/></mask><g fill="#5D96F9" fill-rule="nonzero" mask="url(#e)"><path d="M-.557 14.227H6.63l3.336-3.612V7.91H4.021L-.557-.591z"/></g><mask id="g" fill="#fff"><use xlink:href="#f"/></mask><g fill-rule="nonzero" mask="url(#g)"><path fill="#A0C1FC" d="M6.722 3.898L9.65 8.745l-3.286 5.494h7.795V3.898z"/><path fill="url(#h)" d="M.412 0l3.377 4.847L0 10.341h8.989V0z" transform="translate(6.364 3.898)"/></g><mask id="k" fill="#fff"><use xlink:href="#i"/></mask><path fill="url(#j)" fill-rule="nonzero" mask="url(#k)" d="M7.52 3.881v1.666l6.237-1.666z"/><mask id="n" fill="#fff"><use xlink:href="#l"/></mask><path fill="url(#m)" fill-rule="nonzero" mask="url(#n)" transform="rotate(2 3.379 5.458)" d="M1.102 2.772l4.554 4.553-1.421.82z"/><mask id="q" fill="#fff"><use xlink:href="#o"/></mask><path fill="url(#p)" fill-rule="nonzero" mask="url(#q)" d="M6.462 14.238l1.668-6.22 1.42.82z"/><mask id="s" fill="#fff"><use xlink:href="#r"/></mask><g fill-rule="nonzero" mask="url(#s)"><g transform="translate(3.818 3.818)"><circle cx="3.182" cy="3.182" r="3.182" fill="#F1F1F1"/><circle cx="3.182" cy="3.182" r="2.545" fill="#4284F7"/></g></g><circle cx="7" cy="7" r="7" fill="url(#t)" fill-rule="nonzero"/></g></svg>