<svg xmlns="http://www.w3.org/2000/svg" width="16" height="16" viewBox="0 0 16 16"><rect id="frame" width="16" height="16" fill="none"/><defs><radialGradient id="a" cx="86.85%" cy="30.027%" r="184.023%" fx="86.85%" fy="30.027%" gradientTransform="scale(1 .36464) rotate(2.543 -10.92 .562)"><stop offset="4.5%" stop-color="#FFEA00"/><stop offset="12%" stop-color="#FFDE00"/><stop offset="25.4%" stop-color="#FFBF00"/><stop offset="42.9%" stop-color="#FF8E00"/><stop offset="76.9%" stop-color="#FF272D"/><stop offset="87.2%" stop-color="#E0255A"/><stop offset="95.3%" stop-color="#CC2477"/><stop offset="100%" stop-color="#C42482"/></radialGradient><radialGradient id="b" cx="70.828%" cy="12.393%" r="61.826%" fx="70.828%" fy="12.393%" gradientTransform="scale(1 .99363)"><stop offset="0%" stop-color="#00CCDA"/><stop offset="17.924%" stop-color="#0083FF"/><stop offset="26.1%" stop-color="#007AF9"/><stop offset="46.25%" stop-color="#005FE7"/><stop offset="50.625%" stop-color="#0060E8"/><stop offset="73.377%" stop-color="#2639AD"/><stop offset="80.787%" stop-color="#401E84"/><stop offset="95.29%" stop-color="#411D82"/><stop offset="100%" stop-color="#4A1475"/></radialGradient><linearGradient id="c" x1="57.339%" x2="35.146%" y1="75.22%" y2="6.805%"><stop offset="0%" stop-color="#000F43" stop-opacity=".4"/><stop offset="48.5%" stop-color="#001962" stop-opacity=".173"/><stop offset="100%" stop-color="#002079" stop-opacity="0"/></linearGradient><radialGradient id="d" cx="147.727%" cy="-21.664%" r="170.493%" fx="147.727%" fy="-21.664%" gradientTransform="matrix(.92578 .10117 -.09415 .99487 .09 -.15)"><stop offset=".3%" stop-color="#FFEA00"/><stop offset="49.7%" stop-color="#FF272D"/><stop offset="100%" stop-color="#C42482"/></radialGradient><radialGradient id="e" cx="135.976%" cy="-52.131%" r="453.922%" fx="135.976%" fy="-52.131%" gradientTransform="matrix(.9949 .05436 -.10095 .53571 -.046 -.316)"><stop offset=".3%" stop-color="#FFE900"/><stop offset="15.7%" stop-color="#FFAF0E"/><stop offset="31.6%" stop-color="#FF7A1B"/><stop offset="47.2%" stop-color="#FF4E26"/><stop offset="62.1%" stop-color="#FF2C2E"/><stop offset="76.2%" stop-color="#FF1434"/><stop offset="89.2%" stop-color="#FF0538"/><stop offset="100%" stop-color="#FF0039"/></radialGradient><radialGradient id="f" cx="211.883%" cy="2.145%" r="372.863%" fx="211.883%" fy="2.145%" gradientTransform="matrix(.53743 .10165 -.05492 .99482 .981 -.215)"><stop offset=".3%" stop-color="#FF272D"/><stop offset="49.7%" stop-color="#C42482"/><stop offset="98.6%" stop-color="#620700"/></radialGradient><radialGradient id="g" cx="60.104%" cy="41.917%" r="65.47%" fx="60.104%" fy="41.917%" gradientTransform="matrix(1 0 0 .95894 0 .017)"><stop offset="0%" stop-color="#FFEA00"/><stop offset="23.1%" stop-color="#FFDE00"/><stop offset="36.5%" stop-color="#FFBF00"/><stop offset="54.1%" stop-color="#FF8E00"/><stop offset="76.3%" stop-color="#FF272D"/><stop offset="79.6%" stop-color="#F92433"/><stop offset="84.1%" stop-color="#E91C45"/><stop offset="91.844%" stop-color="#CF0E62"/><stop offset="100%" stop-color="#B5007F"/></radialGradient><radialGradient id="h" cy="15.899%" r="178.618%" fx="50%" fy="15.899%" gradientTransform="matrix(1 0 0 .39634 0 .096)"><stop offset="0%" stop-color="#FFEA00"/><stop offset="40.2%" stop-color="#FD0"/><stop offset="63%" stop-color="#FFBA00"/><stop offset="85.6%" stop-color="#FF9100"/><stop offset="93.3%" stop-color="#FF6711"/><stop offset="100%" stop-color="#FF4A1D"/></radialGradient><linearGradient id="i" x1="-121.603%" x2="142.342%" y1="64.455%" y2="29.666%"><stop offset="0%" stop-color="#C42482" stop-opacity=".5"/><stop offset="47.4%" stop-color="#FF272D" stop-opacity=".5"/><stop offset="48.6%" stop-color="#FF2C2C" stop-opacity=".513"/><stop offset="67.5%" stop-color="#FF7A1A" stop-opacity=".72"/><stop offset="82.9%" stop-color="#FFB20D" stop-opacity=".871"/><stop offset="94.2%" stop-color="#FFD605" stop-opacity=".964"/><stop offset="100%" stop-color="#FFE302"/></linearGradient><linearGradient id="j" x1="56.498%" x2="19.49%" y1="94.893%" y2="5.478%"><stop offset="0%" stop-color="#891551" stop-opacity=".6"/><stop offset="100%" stop-color="#C42482" stop-opacity="0"/></linearGradient><linearGradient id="k" x1="8.04%" x2="47.914%" y1="6.686%" y2="47.886%"><stop offset=".5%" stop-color="#891551" stop-opacity=".5"/><stop offset="48.4%" stop-color="#FF272D" stop-opacity=".5"/><stop offset="100%" stop-color="#FF272D" stop-opacity="0"/></linearGradient><linearGradient id="l" x1="47.509%" x2="50.009%" y1="102.675%" y2="31.749%"><stop offset="0%" stop-color="#C42482"/><stop offset="8.3%" stop-color="#C42482" stop-opacity=".81"/><stop offset="20.6%" stop-color="#C42482" stop-opacity=".565"/><stop offset="32.8%" stop-color="#C42482" stop-opacity=".362"/><stop offset="44.7%" stop-color="#C42482" stop-opacity=".204"/><stop offset="56.2%" stop-color="#C42482" stop-opacity=".091"/><stop offset="67.3%" stop-color="#C42482" stop-opacity=".023"/><stop offset="77.3%" stop-color="#C42482" stop-opacity="0"/></linearGradient><linearGradient id="m" x1="6.334%" x2="92.351%" y1="1.647%" y2="89.461%"><stop offset="0%" stop-color="#FFF14F"/><stop offset="26.8%" stop-color="#FFEE4C"/><stop offset="45.2%" stop-color="#FFE643"/><stop offset="61.2%" stop-color="#FFD834"/><stop offset="75.7%" stop-color="#FFC41E"/><stop offset="89.2%" stop-color="#FFAB02"/><stop offset="90.2%" stop-color="#FFA900"/><stop offset="94.9%" stop-color="#FFA000"/><stop offset="100%" stop-color="#FF9100"/></linearGradient><linearGradient id="n" x1="71.789%" x2="42.746%" y1="7.159%" y2="81.948%"><stop offset="0%" stop-color="#FF8E00"/><stop offset="4%" stop-color="#FF8E00" stop-opacity=".858"/><stop offset="8.4%" stop-color="#FF8E00" stop-opacity=".729"/><stop offset="13%" stop-color="#FF8E00" stop-opacity=".628"/><stop offset="17.8%" stop-color="#FF8E00" stop-opacity=".557"/><stop offset="22.7%" stop-color="#FF8E00" stop-opacity=".514"/><stop offset="28.2%" stop-color="#FF8E00" stop-opacity=".5"/><stop offset="38.9%" stop-color="#FF8E00" stop-opacity=".478"/><stop offset="52.4%" stop-color="#FF8E00" stop-opacity=".416"/><stop offset="67.6%" stop-color="#FF8E00" stop-opacity=".314"/><stop offset="83.8%" stop-color="#FF8E00" stop-opacity=".172"/><stop offset="100%" stop-color="#FF8E00" stop-opacity="0"/></linearGradient></defs><g fill="none"><path fill="url(#a)" d="M11.31 1.337c-.354.41-.519 1.332-.16 2.266.358.934.907.731 1.25 1.684.452 1.258.241 2.947.241 2.947s.544 1.565.922-.098c.838-3.124-2.254-6.03-2.254-6.799z" transform="translate(1.048 .485)"/><path fill="url(#b)" d="M7.017 14.334c3.604 0 6.523-2.938 6.523-6.56 0-3.624-2.919-6.562-6.52-6.562-3.6 0-6.518 2.938-6.518 6.561-.007 3.627 2.915 6.561 6.515 6.561z" transform="translate(1.048 .485)"/><path fill="url(#c)" d="M11.893 11.802c-.14.1-.289.189-.442.267.203-.299.39-.607.562-.926.139-.154.266-.303.37-.465.05-.08.107-.178.167-.291.366-.66.77-1.729.781-2.826v-.003-.08a3.792 3.792 0 0 0-.084-.82l.009.063-.01-.049.014.088c.075.635.022 1.255-.244 1.712l-.013.02c.138-.695.184-1.462.03-2.23 0 0-.061-.372-.519-1.505-.263-.652-.731-1.187-1.145-1.576-.362-.45-.692-.75-.873-.942-.379-.4-.538-.7-.603-.895-.057-.028-.78-.732-.838-.759-.315.49-1.309 2.024-.836 3.457.214.65.755 1.323 1.322 1.702.025.028.337.368.486 1.134.153.791.072 1.409-.243 2.322-.371.802-1.322 1.594-2.213 1.675-1.903.173-2.6-.957-2.6-.957.68.272 1.432.215 1.89-.067.46-.286.74-.498.965-.414.224.083.401-.158.242-.408a1.152 1.152 0 0 0-1.166-.509c-.461.076-.884.442-1.488.087a1.255 1.255 0 0 1-.114-.074c-.04-.027.13.04.09.01a2.955 2.955 0 0 1-.38-.253c-.009-.009.091.032.083.023-.566-.466-.495-.78-.477-.978.014-.158.116-.36.29-.443.083.046.135.08.135.08l-.055-.11c.007-.004.013-.003.02-.006.069.033.22.12.3.172.104.073.137.138.137.138s.027-.015.007-.079a.41.41 0 0 0-.142-.193h.006c.062.036.12.076.175.122.029-.106.08-.216.07-.413-.008-.139-.004-.175-.029-.228-.022-.046.012-.064.05-.017a.483.483 0 0 0-.032-.108v-.004c.048-.165 1.002-.595 1.072-.645a.99.99 0 0 0 .28-.306.785.785 0 0 0 .103-.384c.005-.13-.055-.216-1.02-.318-.264-.026-.419-.217-.507-.394a.854.854 0 0 1-.086-.231 2.32 2.32 0 0 1 .812-1.127c.022-.02-.084.005-.063-.015.025-.022.186-.088.217-.102.037-.018-.16-.102-.334-.081-.177.02-.215.04-.31.08.04-.038.165-.09.136-.09-.191.03-.429.141-.632.267 0-.022.004-.043.013-.064-.095.04-.327.203-.395.34a.653.653 0 0 0 .004-.079c-.072.06-.137.128-.194.203l-.003.004c-.548-.222-1.031-.236-1.44-.137-.089-.09-.132-.024-.336-.471-.014-.027.01.026 0 0-.033-.087.02.115 0 0-.342.27-.791.576-1.007.792-.003.009.252-.072 0 0-.088.025-.082.078-.096.551-.003.036 0 .076-.003.109-.173.22-.29.406-.334.503-.223.385-.47.985-.707 1.934.105-.258.231-.506.378-.741-.198.503-.39 1.295-.427 2.513.048-.252.109-.5.184-.745a6.963 6.963 0 0 0 .51 2.956c.137.335.363.845.749 1.402a6.616 6.616 0 0 0 4.813 2.072c1.975 0 3.749-.866 4.968-2.24z" transform="translate(1.048 .485)"/><path fill="url(#d)" d="M10.447 12.742c2.378-.277 3.43-2.747 2.079-2.795-1.221-.04-3.205 2.926-2.079 2.795z" transform="translate(1.048 .485)"/><path fill="url(#e)" d="M12.7 9.418c1.634-.957 1.208-3.024 1.208-3.024s-.63.737-1.06 1.912c-.423 1.164-1.131 1.69-.149 1.112z" transform="translate(1.048 .485)"/><path fill="url(#f)" d="M7.46 13.994c2.284.738 4.246-1.084 3.037-1.692-1.1-.548-4.12 1.343-3.036 1.692z" transform="translate(1.048 .485)"/><path fill="url(#g)" d="M12.875 10.32c.056-.079.131-.33.198-.444.405-.654.408-1.175.408-1.187.245-1.223.222-1.722.072-2.645-.121-.744-.65-1.809-1.11-2.322-.473-.528-.14-.356-.597-.742-.401-.445-.79-.886-1.002-1.063C9.312.637 9.347.364 9.377.318a1.776 1.776 0 0 0-.022.024A4.008 4.008 0 0 1 9.324.21s-.837.837-1.013 2.233c-.115.911.226 1.861.72 2.468.256.315.547.6.866.852.373.536.578 1.197.578 1.909a3.225 3.225 0 0 1-3.947 3.144c-.84-.16-1.326-.585-1.568-.873a1.58 1.58 0 0 1-.197-.285c.753.27 1.585.213 2.092-.066.51-.284.819-.493 1.07-.41.246.082.443-.157.266-.405-.172-.248-.622-.602-1.29-.504-.51.075-.979.437-1.648.086a1.414 1.414 0 0 1-.126-.074c-.044-.026.144.04.1.01a3.322 3.322 0 0 1-.42-.25c-.01-.009.1.031.09.023-.625-.462-.547-.774-.528-.97a.562.562 0 0 1 .321-.439c.093.046.15.08.15.08l-.06-.11c.007-.003.014-.002.022-.005.076.033.243.118.331.17a.46.46 0 0 1 .152.137s.03-.015.008-.078a.41.41 0 0 0-.157-.192h.007c.068.035.132.075.193.12.032-.104.09-.213.077-.408-.008-.138-.004-.173-.031-.226-.024-.046.013-.064.055-.016a.441.441 0 0 0-.035-.108v-.004c.052-.164 1.109-.59 1.186-.64.124-.077.23-.18.31-.302a.718.718 0 0 0 .115-.38c.003-.081-.022-.145-.301-.206a7.548 7.548 0 0 0-.829-.11c-.292-.025-.464-.215-.561-.39a.78.78 0 0 1-.096-.229c.175-.458.49-.85.9-1.118.024-.02-.094.005-.07-.014.027-.023.206-.087.24-.102.041-.017-.177-.1-.37-.08-.196.02-.237.04-.342.08.044-.038.182-.09.15-.089-.212.03-.475.14-.7.264 0-.022.005-.043.014-.063-.105.04-.362.2-.437.337a.58.58 0 0 0 .005-.079c-.08.06-.151.127-.215.202l-.004.003c-.607-.22-1.141-.234-1.593-.135-.1-.09-.258-.224-.483-.667-.015-.027-.024.055-.035.029a2.042 2.042 0 0 1-.132-.765s-.18.082-.33.427c-.028.062-.046.096-.064.13-.008.01.019-.113.014-.106-.026.044-.093.105-.123.185-.02.06-.048.092-.067.166l-.004.007c-.001-.022.006-.09 0-.076a3.47 3.47 0 0 0-.18.439 4.09 4.09 0 0 0-.19 1.095c-.003.036 0 .076-.003.108-.191.218-.321.402-.37.498-.247.382-.519.976-.783 1.917a4.69 4.69 0 0 1 .42-.735C.253 6.12.041 6.903 0 8.11c.053-.25.121-.496.204-.738a6.256 6.256 0 0 0 .564 2.93 6.813 6.813 0 0 0 2.696 3.057s.578.43 1.572.753c.073.026.147.053.223.078a1.475 1.475 0 0 1-.069-.03c.661.198 1.348.3 2.038.3 2.572.002 3.331-1.032 3.331-1.032l-.007.006c.036-.034.07-.07.104-.107-.405.384-1.332.41-1.678.382.59-.174.98-.32 1.735-.61.089-.033.18-.07.272-.113l.03-.013.055-.026c.368-.174.714-.39 1.032-.646.759-.607.924-1.199 1.01-1.588-.012.037-.05.124-.076.18-.195.419-.629.676-1.1.896.224-.294.432-.6.623-.917.153-.153.201-.392.316-.552z" transform="translate(1.048 .485)"/><path fill="url(#h)" d="M11.946 11.774a4.87 4.87 0 0 0 .799-1.175c.542-1.14 1.38-3.037.72-5.017-.522-1.566-1.239-2.422-2.148-3.258C9.839.967 9.427.36 9.427 0c0 0-1.706 1.902-.966 3.886.74 1.984 2.255 1.912 3.257 3.982 1.18 2.437-.954 5.095-2.719 5.84.108-.025 3.923-.888 4.123-3.071-.004.04-.09.644-1.176 1.137z" transform="translate(1.048 .485)"/><path fill="url(#i)" d="M6.979 4.694c.006-.13-.06-.216-1.118-.316-.435-.04-.602-.446-.653-.617-.154.406-.218.831-.184 1.346.023.337.248.698.355.91l.035-.042c.202-.212 1.05-.536 1.129-.581.087-.056.421-.302.436-.7z" transform="translate(1.048 .485)"/><path fill="url(#j)" d="M2.323 2.284c-.015-.027-.023.055-.035.029a1.975 1.975 0 0 1-.127-.767s-.18.083-.328.428c-.028.062-.045.097-.063.13-.008.01.018-.113.014-.106-.026.044-.092.106-.121.182-.025.063-.05.096-.068.174-.005.02.006-.093.001-.08-.346.676-.412 1.696-.375 1.653.736-.794 1.579-.982 1.579-.982-.09-.067-.285-.26-.477-.661z" transform="translate(1.048 .485)"/><path fill="url(#k)" d="M5.151 10.577c-1.022-.438-2.185-1.056-2.14-2.46.059-1.85 1.717-1.485 1.717-1.485a.6.6 0 0 0-.289.263.8.8 0 0 0 .17.896c.543.592-1.118 1.405 1.446 2.939.065.035-.6-.021-.904-.153z" transform="translate(1.048 .485)"/><path fill="url(#l)" d="M4.78 9.654c.726.254 1.572.21 2.078-.072.338-.19.773-.493 1.04-.418a1.812 1.812 0 0 0-.735-.15 1.99 1.99 0 0 0-.232.013c-.13.012-.275.095-.407.082-.007-.001.128-.056.117-.054-.07.015-.146.018-.226.028-.05.006-.094.012-.145.014-1.511.13-2.789-.822-2.789-.822-.108.367.487 1.095 1.3 1.379z" transform="translate(1.048 .485)"/><path fill="url(#m)" d="M11.947 11.785c1.532-1.504 2.306-3.333 1.979-5.385 0 0 .13 1.052-.365 2.128.238-1.05.266-2.355-.368-3.707-.845-1.804-2.235-2.754-2.766-3.15-.804-.6-1.137-1.21-1.143-1.337-.24.493-.967 2.18-.078 3.634.833 1.362 2.144 1.766 3.063 3.015 1.691 2.301-.322 4.802-.322 4.802z" transform="translate(1.048 .485)"/><path fill="url(#n)" d="M11.703 7.88c-.534-1.107-1.2-1.59-1.831-2.113.073.103.091.14.132.206a3.915 3.915 0 0 1 .779 3.857c-1.119 3.418-5.592 1.809-6.06 1.356.19 1.979 3.491 2.926 5.642 1.643 1.223-1.162 2.213-3.137 1.338-4.95z" transform="translate(1.048 .485)"/></g></svg>