<svg width="16" height="16" viewBox="0 0 16 16" fill="none" xmlns="http://www.w3.org/2000/svg"><rect id="frame" width="16" height="16" fill="none"/><path d="M7.562 2.565l-.794.79 1.296.527-.502-1.317z" fill="#133691"/><path d="M8.064 3.882l-.502-1.317 1.465.118-.963 1.199z" fill="#1943AE"/><path d="M8.064 3.882l2.507-.077-1.544-1.122-.963 1.199z" fill="#2053CF"/><path d="M10.571 3.805L9.027 2.683l1.358-.008.186 1.13z" fill="#2660EB"/><path d="M10.571 3.805L12 3.712l-1.614-1.037.186 1.13z" fill="#306DFF"/><path d="M12 3.712l-1.615-1.037.803-.086.811 1.123z" fill="#235ADB"/><path d="M12 3.712l-.813-1.123 1.124.675-.312.448z" fill="#2660EB"/><path d="M13.074 4.4L12 3.711l.312-.448.763 1.135z" fill="#2053CF"/><path d="M12 3.712l-.18.769.983.394-.804-1.163z" fill="#1C4ABD"/><path d="M12 3.712l1.074.687-.271.476-.804-1.163z" fill="#1A46B4"/><path d="M10.571 3.805L12 3.712l-.18.769-1.248-.676z" fill="#2660EB"/><path d="M10.571 3.805l1.248.676-.924 1.061-.324-1.737z" fill="#235ADB"/><path d="M10.571 3.805L9.443 4.83l1.452.713-.324-1.737z" fill="#1F51CA"/><path d="M8.064 3.882l2.507-.077L9.443 4.83l-1.38-.947z" fill="#1F50C9"/><path d="M10.895 5.542l.924-1.061.683 1.328-1.607-.267z" fill="#2053CF"/><path d="M11.82 4.48l.682 1.329.3-.934-.983-.394z" fill="#1B48B9"/><path d="M12.502 5.809l.3-.934.716 1.706-1.016-.772z" fill="#173FA5"/><path d="M12.803 4.875l1.09.8-.375.906-.715-1.706z" fill="#12348D"/><path d="M12.803 4.875l1.09.8-.819-1.276-.271.476z" fill="#143895"/><path d="M13.074 4.4l.21-.107.609 1.383-.819-1.277z" fill="#0F2F82"/><path d="M13.893 5.676l.243.228-.851-1.61.608 1.382z" fill="#05154C"/><path d="M13.074 4.4l.21-.107-.973-1.029.763 1.135z" fill="#163C9E"/><path d="M14.379 7.668l-.243-1.764.298.99-.06.774h.005z" fill="#051753"/><path d="M13.893 5.676l.486 1.992-.243-1.764-.243-.228z" fill="#061A57"/><path d="M13.518 6.581l.86 1.087-.485-1.992-.375.905z" fill="#05154C"/><path d="M14.375 7.668l.059-.774.059 1.985-.114-1.21h-.004z" fill="#081F63"/><path d="M14.235 9.236l.258-.357-.114-1.21-.144 1.567z" fill="#12348D"/><path d="M14.284 10.148l-.206.1.415-1.37-.209 1.27z" fill="#123392"/><path d="M14.078 10.247l.415-1.368-.258.357-.157 1.011z" fill="#0C2674"/><path d="M14.235 9.236l.144-1.568-.442.523.298 1.045z" fill="#081F63"/><path d="M14.078 10.247l.157-1.01-.853 1.437.696-.427z" fill="#0F2F82"/><path d="M13.518 6.581l.86 1.087-.441.523-.419-1.61z" fill="#061A57"/><path d="M14.235 9.236l-.298-1.045-.45 1.288.748-.243z" fill="#081E5F"/><path d="M13.382 10.674l.853-1.438-.748.243-.105 1.195z" fill="#092167"/><path d="M13.34 12.002l.944-1.854-.206.1-.739 1.755z" fill="#163AA2"/><path d="M13.34 12.002l.738-1.755-.691 1.28-.048.476z" fill="#163AA2"/><path d="M13.387 11.527l.69-1.28-.695.427.005.853z" fill="#0E2B7E"/><path d="M12.67 12.802l.717-1.275-.048.476-.668.8z" fill="#123392"/><path d="M11.76 13.222l.91-.42-.861.738-.05-.318z" fill="#1A45B2"/><path d="M12.67 12.802l.717-1.275-1.627 1.695.91-.42z" fill="#123392"/><path d="M11.76 13.222l.049.318-.76.235.71-.553z" fill="#133493"/><path d="M10.47 14.277l.58-.502.759-.236-1.34.738z" fill="#1A45B2"/><path d="M10.47 14.277l.58-.502-1.886.705 1.305-.203z" fill="#1A45B2"/><path d="M8.97 14.7l1.5-.423-1.306.203-.194.22z" fill="#1A45B2"/><path d="M7.957 14.672l1.013.028.194-.22-1.207.192z" fill="#1A45B2"/><path d="M6.018 14.444l-.11-.177 2.05.405-1.94-.228z" fill="#1F51CA"/><path d="M6.018 14.444l-.11-.177-1.05-.329 1.16.506z" fill="#173FAD"/><path d="M3.92 13.3l-.754-.691 1.693 1.33-.94-.638z" fill="#173FAD"/><path d="M3.166 12.609l-.544-.736.362.12.182.616z" fill="#1B47B5"/><path d="M3.166 12.609l1.693 1.33-.554-.709-1.139-.621z" fill="#163AA3"/><path d="M3.166 12.609l1.14.621-1.322-1.237.182.616z" fill="#173FAD"/><path d="M4.305 13.23l1.602 1.037-1.048-.329-.554-.708z" fill="#133595"/><path d="M4.305 13.23l1.602 1.037.027-.61-1.629-.427z" fill="#163BA4"/><path d="M6.778 14.053l-.87.214.026-.61.844.396z" fill="#163AA2"/><path d="M2.984 11.993l-.362-.12-.242-1.085.604 1.205z" fill="#2053CF"/><path d="M2.622 11.873l-.771-1.522.53.437.241 1.085z" fill="#306DFF"/><path d="M1.597 8.711l.783 2.077-.53-.438" fill="#1F51CA"/><path d="M1.85 10.35L1.5 9.014l.097-.302.254 1.64z" fill="#2257D7"/><path d="M1.597 8.711l-.096.302.068-1.962.028 1.66z" fill="#11318D"/><path d="M1.936 5.758l.24-.089-.607 1.382.367-1.293z" fill="#0C2674"/><path d="M1.57 7.051l.459-.085.147-1.297-.607 1.382z" fill="#102F88"/><path d="M1.597 8.711l-.028-1.66.46-.085-.432 1.745z" fill="#133595"/><path d="M2.029 6.966l-.03 1.416-.402.33.432-1.746z" fill="#12328E"/><path d="M2.87 4.24l-.694 1.43-.24.088.933-1.519z" fill="#0B2572"/><path d="M2.87 4.24l.884-.848.127-.285L2.869 4.24z" fill="#020B2E"/><path d="M3.88 3.107l1.054-.524-1.18.809.127-.285z" fill="#092064"/><path d="M3.88 3.107l1.62-.95-.566.426-1.053.524z" fill="#030F41"/><path d="M4.934 2.583l1.478-.707-.912.281-.566.426z" fill="#081E5F"/><path d="M6.412 1.876l-.578.624-.9.083 1.478-.707z" fill="#081F61"/><path d="M5.834 2.5l1.377-.552-.8-.072-.577.624z" fill="#0D2A78"/><path d="M7.53 1.674l-1.118.202.799.072.319-.274z" fill="#11338B"/><path d="M8.587 1.934l-1.376.014.319-.274" fill="#153A99"/><path d="M7.53 1.674l1.773.113-.716.147-1.057-.26z" fill="#0D2A78"/><path d="M8.587 1.934l.716-.147 1.077.384-1.793-.237z" fill="#2053CE"/><path d="M11.188 2.59l-.808-.419.897.353-.09.065z" fill="#1E4DC3"/><path d="M11.188 2.59l.09-.066 1.033.74-1.123-.675z" fill="#1E4FC7"/><path d="M5.907 14.267l2.05.405-1.179-.619-.87.214z" fill="#1A45B2"/><path d="M7.957 14.672l-1.179-.619 1.154-.215.025.834z" fill="#163AA2"/><path d="M9.164 14.48l-1.207.192-.025-.834 1.232.642z" fill="#1A45B2"/><path d="M9.164 14.48l-1.232-.642 1.698-.458-.466 1.1z" fill="#1741AA"/><path d="M11.05 13.775l-1.886.705.466-1.1" fill="#1A45B2"/><path d="M11.05 13.775l.085-1.1-1.505.705 1.42.395z" fill="#133493"/><path d="M11.05 13.775l.085-1.1.625.547-.71.553z" fill="#163AA2"/><path d="M11.76 13.222l-.625-.547 1.51-1.006-.885 1.553z" fill="#133493"/><path d="M11.76 13.222l.884-1.553.743-.142-1.627 1.695z" fill="#1A45B2"/><path d="M13.387 11.527l-.005-.853-.738.995.743-.142z" fill="#092167"/><path d="M10.38 2.171l.005.504.803-.086" fill="#2258D9"/><path d="M10.385 2.675l-.005-.504-1.793-.237 1.798.741z" fill="#2257D7"/><path d="M8.587 1.934l.44.75 1.358-.009-1.798-.74z" fill="#2257D7"/><path d="M8.587 1.934l.44.75-1.465-.119 1.025-.63z" fill="#1A46B3"/><path d="M7.211 1.948l.351.617 1.025-.63-1.376.013z" fill="#163C9F"/><path d="M5.834 2.5l1.377-.552.351.617L5.834 2.5z" fill="#103186"/><path d="M6.768 3.355L5.834 2.5l1.728.065-.794.79z" fill="#163C9E"/><path d="M4.934 2.583l-1.18.809.559.538.62-1.347z" fill="#031043"/><path d="M5.834 2.5L4.313 3.93l.62-1.347.901-.083z" fill="#030F41"/><path d="M4.313 3.93l.97.162.551-1.592-1.521 1.43z" fill="#05164E"/><path d="M5.284 4.092l.55-1.592.934.855-1.484.737z" fill="#092064"/><path d="M2.87 4.239l.058.575.826-1.422-.885.847z" fill="#030F41"/><path d="M2.176 5.67l.693-1.43.06.574-.753.855z" fill="#091F64"/><path d="M2.928 4.814l.826-1.422.559.538-1.385.884z" fill="#041345"/><path d="M2.878 6.048l.05-1.234-.752.855.702.379z" fill="#0A226B"/><path d="M2.878 6.048l.05-1.234.976.795-1.026.439z" fill="#091F64"/><path d="M3.904 5.609l.409-1.679-1.385.884.976.795z" fill="#061853"/><path d="M3.904 5.609l.409-1.679.97.162L3.905 5.61z" fill="#030F42"/><path d="M2.029 6.966l.147-1.297.702.379-.85.918z" fill="#0B2572"/><path d="M2.38 10.788l-.382-2.406-.401.33.783 2.076z" fill="#173DA9"/><path d="M2.984 11.993l-.604-1.205.647.09-.043 1.115z" fill="#1A45B2"/><path d="M2.38 10.788l.647.09-.453-1.06-.194.97z" fill="#1741AA"/><path d="M2.38 10.788l-.382-2.406.576 1.437-.194.969z" fill="#10308B"/><path d="M2.984 11.993l.68.13-.637-1.244-.043 1.114z" fill="#123390"/><path d="M2.984 11.993l1.321 1.237-.642-1.106-.68-.131z" fill="#133493"/><path d="M4.305 13.23l.478-.46-1.12-.646.642 1.106z" fill="#1A45B2"/><path d="M4.305 13.23l1.629.427-1.15-.888-.479.461z" fill="#163AA2"/><path d="M5.934 13.657l.844.396 1.154-.215-1.998-.18z" fill="#1A45B2"/><path d="M5.934 13.657l.552-1.158 1.446 1.339-1.998-.18z" fill="#123392"/><path d="M1.998 8.382l.943-.001-.912-1.415-.03 1.416z" fill="#102F87"/><path d="M2.029 6.966L2.94 8.38l-.063-2.333-.85.918z" fill="#081F63"/><path d="M1.998 8.382l.576 1.437.367-1.438-.943.001z" fill="#163BA4"/><path d="M2.574 9.819l.367-1.438.456 1.136-.823.302z" fill="#11318C"/><path d="M3.027 10.879l.37-1.362-.823.302.453 1.06z" fill="#123390"/><path d="M3.027 10.879l1.749 1.087-1.379-2.449-.37 1.362z" fill="#123392"/><path d="M3.663 12.124l1.113-.158-1.75-1.087.637 1.245z" fill="#163AA2"/><path d="M4.783 12.77l-.007-.804-1.113.158 1.12.645z" fill="#1741AA"/><path d="M4.783 12.77l-.007-.804 1.71.533-1.703.27z" fill="#123392"/><path d="M4.783 12.77l1.15.887.553-1.158-1.703.27z" fill="#123392"/><path d="M7.932 13.838l.145-1.321-1.591-.018 1.446 1.339z" fill="#0E2B80"/><path d="M7.932 13.838l.145-1.321 1.553.863-1.698.458z" fill="#143698"/><path d="M9.63 13.38l-.06-1.485-1.493.622 1.553.863z" fill="#0D2878"/><path d="M9.63 13.38l-.06-1.485 1.565.78-1.505.705z" fill="#123392"/><path d="M9.57 11.895l.968-.88.597 1.66-1.565-.78z" fill="#081F63"/><path d="M11.135 12.675l.732-2.224-1.329.565.597 1.659z" fill="#061A57"/><path d="M12.644 11.669l-1.509 1.006.732-2.224.777 1.218z" fill="#0F2F82"/><path d="M12.644 11.669l.738-.995-1.514-.223.776 1.218z" fill="#092167"/><path d="M13.382 10.674l-1.514-.223 1.619-.972-.105 1.195z" fill="#05164F"/><path d="M13.937 8.191l-1.054-.752.604 2.04.45-1.288z" fill="#051753"/><path d="M13.937 8.191l-.419-1.61-.635.858 1.054.752z" fill="#031043"/><path d="M11.867 10.45l1.62-.971-1.57-.7-.05 1.672z" fill="#031043"/><path d="M11.867 10.45L10.4 8.965l.138 2.052 1.33-.565z" fill="#030F41"/><path d="M9.57 11.895l-1.127-1 2.095.12-.968.88z" fill="#092167"/><path d="M9.57 11.895l-1.493.622.366-1.622 1.127 1z" fill="#0F2F82"/><path d="M6.486 12.499l1.591.018-1.967-1.29.376 1.272z" fill="#123390"/><path d="M6.486 12.499l-.376-1.272-1.334.739 1.71.533z" fill="#0F2D84"/><path d="M4.776 11.966l.25-1.292 1.084.553-1.334.739z" fill="#0E2B7E"/><path d="M5.026 10.674L3.397 9.517l1.379 2.449.25-1.292z" fill="#0F2E86"/><path d="M8.077 12.517l.366-1.622-2.333.332 1.967 1.29z" fill="#081F63"/><path d="M2.941 8.38l.468-1.497-.53-.835.062 2.333z" fill="#0A236C"/><path d="M2.878 6.048l.531.835.495-1.274-1.026.439z" fill="#081F63"/><path d="M3.904 5.609l2.054-.6-.674-.917-1.38 1.517z" fill="#05164E"/><path d="M3.904 5.609l2.054-.6L4.873 7.23 3.904 5.61z" fill="#030F41"/><path d="M11.867 10.45L10.4 8.965l1.517-.186-.05 1.673z" fill="#05164F"/><path d="M13.487 9.479l-.604-2.04-.966 1.34 1.57.7z" fill="#030F42"/><path d="M10.538 11.016L8.86 9.388l1.54-.424.138 2.052z" fill="#030F41"/><path d="M8.443 10.895l2.095.12L8.86 9.389l-.417 1.507z" fill="#05164F"/><path d="M8.443 10.895l-1.148-.937 1.565-.57-.417 1.507z" fill="#031042"/><path d="M12.883 7.44l.635-.859-1.016-.772.38 1.63z" fill="#0F2E82"/><path d="M3.904 5.609l.969 1.621-1.464-.347.495-1.274z" fill="#061853"/><path d="M3.41 6.883l1.463.347-.99 1.564-.474-1.911z" fill="#081F63"/><path d="M5.958 5.008l.81-1.653-1.484.737.674.916z" fill="#081E5F"/><path d="M3.883 8.794l-.474-1.911-.468 1.498" fill="#091F64"/><path d="M2.941 8.38l.942.414-.486.723-.456-1.136z" fill="#11318C"/><path d="M3.883 8.794l1.143 1.88-1.629-1.157.486-.723z" fill="#0E2B7E"/><path d="M5.026 10.674l.152-2.275-1.295.395 1.143 1.88z" fill="#092167"/><path d="M5.026 10.674l2.269-.716-2.117-1.559-.152 2.275z" fill="#061A57"/><path d="M7.295 9.958l-.221-1.759-1.896.2 2.117 1.559z" fill="#05164F"/><path d="M8.86 9.388l-1.565.57-.221-1.759L8.86 9.39z" fill="#041245"/><path d="M7.074 8.2l1.6-.601.186 1.79-1.786-1.19z" fill="#030F42"/><path d="M6.11 11.227l2.333-.332-1.148-.937-1.185 1.269z" fill="#092167"/><path d="M6.11 11.227l-1.084-.553 2.269-.716-1.185 1.269z" fill="#0C2674"/><path d="M5.958 5.008l1.39.148-.58-1.8-.81 1.652z" fill="#0C2771"/><path d="M8.064 3.882l-1.296-.527.58 1.8.716-1.273z" fill="#153A99"/><path d="M8.064 3.882l1.38.947-2.096.327.716-1.274z" fill="#163DA0"/><path d="M7.348 5.156l2.055 1.093-.729 1.35-1.326-2.443z" fill="#11338B"/><path d="M9.403 6.249l.04-1.42-2.095.327 2.055 1.093z" fill="#163CA0"/><path d="M9.403 6.249l.04-1.42 1.452.713-1.492.707z" fill="#1A45B2"/><path d="M7.348 5.156l1.326 2.443L6.347 6.43l1-1.274z" fill="#0C266E"/><path d="M7.074 8.2l1.6-.601L6.347 6.43l.727 1.77z" fill="#071B5C"/><path d="M8.674 7.599l2.053-.376-1.324-.974-.729 1.35z" fill="#0F2F82"/><path d="M10.895 5.542l-.168 1.681-1.324-.974 1.492-.707z" fill="#1741AA"/><path d="M10.895 5.542l.969 1.32-1.137.361.168-1.68z" fill="#153A99"/><path d="M12.502 5.809l-1.607-.267.969 1.32.638-1.053z" fill="#1945B1"/><path d="M11.864 6.862l1.019.577-.38-1.63-.639 1.053z" fill="#12338C"/><path d="M11.917 8.778l.966-1.339-1.019-.577.053 1.916z" fill="#081E60"/><path d="M11.917 8.778l-.053-1.916-1.137.361 1.19 1.555z" fill="#081E5F"/><path d="M10.727 7.223l-.327 1.74 1.517-.185" fill="#061A57"/><path d="M8.674 7.599l2.053-.376-.327 1.74L8.674 7.6z" fill="#031042"/><path d="M8.86 9.389l1.54-.425-1.726-1.365.186 1.79z" fill="#05164F"/><path d="M5.958 5.008l.39 1.422 1-1.274-1.39-.148z" fill="#05174F"/><path d="M5.958 5.008L4.873 7.23l1.474-.8-.39-1.422z" fill="#061853"/><path d="M6.347 6.43L5.178 8.4l1.896-.2-.727-1.77z" fill="#030F41"/><path d="M5.178 8.4l1.17-1.97-1.475.8.305 1.17z" fill="#041245"/><path d="M3.883 8.794l.99-1.564.305 1.17-1.295.394z" fill="#061A58"/><path d="M14.522 8.88V8.88v-.001l-.06-1.984v-.001-.002-.002-.002-.001l-.298-.99v-.001-.002l-.002-.002-.851-1.611-.001-.001-.001-.002v-.001l-.002-.001v-.001h-.001l-.974-1.03-.003-.002V3.24h-.001l-1.034-.74h-.001l-.002-.002h-.002v-.001l-.898-.353h-.001l-1.077-.385h-.001a.029.029 0 0 0-.006-.001h-.001l-1.773-.113H7.53h-.006l-1.118.202h-.001-.001l-.003.001-.911.281-.002.001-.003.001-.001.001-1.619.95-.002.001v.001l-.002.001-.002.002h-.001v.001L2.847 4.22l-.001.002-.001.001-.001.001-.933 1.519v.003l-.002.001v.003L1.54 7.043v.007l-.07 1.962v.005l.001.002v.002l.35 1.337v.002l.002.002v.002l.772 1.522v.001l.002.003.544.736.002.001.001.002.001.001.753.692.002.002.002.001.94.638.003.001.001.001 1.16.506h.003l.001.001h.003l1.94.23h.002l1.013.027H8.978l1.5-.424h.001l.001-.001h.001l.002-.001 1.34-.738c.002 0 .002-.001.003-.002l.002-.001.862-.738.002-.002h.001v-.001l.669-.8.002-.004h.001v-.001l.945-1.855v-.001l.002-.003v-.003l.001-.002.209-1.268v-.001-.001-.001zM3.937 13.279l-.195-.18.439.345-.244-.165zm2.845.745l-.685-.322 1.621.147-.936.175zm.25-5.849l-1.799.19 1.11-1.868.689 1.678zm-.628-1.683l2.197 1.104-1.51.567-.687-1.67zm.644 1.74l.21 1.663L5.255 8.42l1.792-.19zm.183 1.716l-2.173.686.146-2.178L7.23 9.947zm-.12-1.688l1.684 1.122-1.476.537-.208-1.659zm.027-.052l1.511-.567.175 1.69-1.686-1.123zM9.46 6.254l1.4-.663-.157 1.578-1.243-.915zm1.195.952l-1.926.353.684-1.266 1.242.913zm-1.98.331L7.42 5.227l1.943 1.034-.689 1.276zm-.071-.006L6.392 6.42l.951-1.21 1.261 2.32zm-3.415.793l-.282-1.079 1.36-.738L5.19 8.324zm-.186 2.256L3.928 8.81l1.218-.371-.143 2.14zm2.194-.56l-1.093 1.17-1.001-.51 2.094-.66zm1.62-.585l-.39 1.409-1.074-.876 1.464-.533zm-.106-1.77l1.625 1.286-1.45.4-.175-1.686zm.032-.049l1.947-.356-.31 1.65-1.637-1.294zm2.018-.434l.156-1.56.9 1.224-1.056.336zm1.075-.28l.05 1.786-1.11-1.45 1.06-.336zm-2.402-.7l.037-1.326 1.357.666-1.394.66zm-.059-.001L7.44 5.17l1.974-.307L9.375 6.2zm-3.015.165l-.363-1.324 1.295.137-.932 1.187zm-.047.05l-1.374.745 1.01-2.07.364 1.324zm-1.17 1.963l-1.193.364.912-1.44.28 1.076zm-.216 2.189L3.437 9.51l.445-.662 1.045 1.72zm.12.15l1 .51-1.23.682.23-1.192zm2.25-.72l1.075.877-2.184.311 1.11-1.188zm1.578-.554l1.586 1.538-1.98-.114.394-1.424zm.042-.04l1.456-.402.13 1.94-1.586-1.539zm1.827-2.11l1.119 1.461-1.427.175.308-1.637zm1.15-.381l.946.536-.896 1.242-.05-1.778zm.01-.062l.586-.966.35 1.496-.935-.53zm-.042-.042l-.9-1.226 1.493.248-.593.978zM9.495 4.822l1.057-.96.304 1.629-1.361-.669zm-2.092.296l.67-1.194 1.293.888-1.963.306zm-1.4-.134l.76-1.55.543 1.688-1.304-.138zM4.87 7.169L3.95 5.626l1.953-.57L4.87 7.168zM3.895 8.72l-.446-1.797 1.377.326-.931 1.471zm-.491.735l-.409-1.019.844.37-.435.649zm1.59 1.232l-.232 1.195-1.275-2.265 1.506 1.07zm1.098.583l.35 1.184-1.592-.496 1.242-.688zm2.313-.34l-.347 1.54-1.867-1.225 2.214-.315zm2.062.111l-.898.815-1.044-.927 1.942.112zm-.033-2l1.382 1.4-1.251.532-.13-1.933zm.029-.055l1.424-.175-.047 1.57-1.377-1.395zm2.409-1.481l.569 1.921-1.479-.66.91-1.261zm-.323-1.624l.928.706-.58.784-.348-1.49zm-1.597-.359l.861-.99.637 1.238-1.498-.248zm-.04-.044l-.3-1.618 1.161.63-.86.988zm-1.471-.686l-1.287-.884 2.339-.07-1.052.954zm-2.086.291l-.54-1.677 1.207.49-.667 1.187zm-1.403-.13l-.624-.85 1.376-.683-.752 1.532zm-.043.04l-1.913.558L5.28 4.138l.628.854zM4.812 7.185L3.45 6.862l.46-1.187.903 1.51zM3.84 8.743l-.863-.379.429-1.372.434 1.751zM3.36 9.5l-.743.272.331-1.297L3.36 9.5zm1.335 2.38l-1.633-1.015.346-1.271 1.287 2.286zm1.663.61l-1.545.245-.006-.73 1.551.484zm-.196-1.195l1.816 1.191-1.47-.016-.346-1.175zm2.3-.345l1.054.936-1.397.582.342-1.518zm2.064.117l.558 1.549-1.462-.728.904-.821zm.05-.035l1.244-.529-.685 2.082-.559-1.553zm1.37-2.21l1.479.66-1.526.916.047-1.575zm.99-1.31l.967.69-.413 1.181-.554-1.87zm-.01-.08l.58-.784.383 1.473-.964-.688zm-.389-1.634l.27-.839.643 1.533-.912-.694zm-.04-.065l-.615-1.196.885.355-.27.84zm-1.821-1.905l1.287-.084-.162.693-1.125-.609zm-2.549.023l.907-1.127 1.452 1.055-2.359.072zm-.053-.027l-.467-1.226 1.364.11-.897 1.116zm-.06.005L6.82 3.345l.731-.727.461 1.211zm-2.678.205l.512-1.482.87.796-1.382.686zM3.96 5.504l.375-1.54.89.148L3.96 5.504zm-.557 1.314l-.481-.757.93-.398-.45 1.155zm-.026.07l-.411 1.316-.056-2.051.467.734zM2.903 8.41l-.335 1.315-.527-1.314.862-.001zm-.875-.057l.028-1.291.831 1.29h-.859zm1.326 1.211l-.333 1.226-.408-.954.741-.272zm1.338 2.384l-1.012.144-.579-1.133 1.591.989zm.055.051l.007.72-1.003-.578.996-.142zm1.688.537l-.512 1.076-1.068-.824 1.58-.252zm.06.011l1.354 1.254-1.87-.17.516-1.084zm.066-.018l1.484.017-.136 1.23-1.348-1.247zm2.98-.59l.057 1.39-1.453-.808 1.397-.582zm.06.005l1.467.73-1.41.661-.057-1.391zm2.275-1.425l.728 1.142-1.414.942.686-2.084zm.05-.03l1.403.207-.683.921-.72-1.128zm.027-.055l1.5-.9-.098 1.106-1.402-.206zm1.98-2.146l.266.93-.665.215.4-1.145zm-.352-1.58l.76.96-.39.461-.37-1.42zm-.71-1.747l.986.725-.34.819-.646-1.544zm-1.017-.498l.159-.68.71 1.029-.87-.349zm-1.258-.689l-.171-1.039 1.484.953-1.313.086zm-.065-.034L9.117 2.712l1.243-.008.17 1.036zM7.654 2.543l.923-.568.396.675-1.319-.107zm-.886.772l-.855-.782 1.58.059-.725.723zm-1.504.744l-.888-.148 1.391-1.308-.503 1.456zM3.887 5.557l-.909-.74 1.29-.823-.381 1.563zm-.039.044l-.939.401.046-1.128.893.727zm-.939 2.676l-.843-1.308.785-.849.058 2.157zm-.365 1.545l-.16.8-.316-1.987.476 1.187zm.04.095l.396.925-.565-.079.17-.846zm1.026 2.167l-.596-.115.038-.977.558 1.091zm1.125.691l-.423.408-.569-.98.992.572zm.05.033l1.017.784-1.439-.377.423-.407zm3.317-.244l1.45.807-1.586.427.136-1.234zm3 .159l-.08 1.014-1.308-.364 1.388-.65zm1.456-.961l-.806 1.415-.569-.5 1.375-.915zm.795-1l.004.74-.644.124.64-.864zm.161-1.261l.656-.213-.748 1.26.092-1.047zm.455-1.303l.372-.44-.121 1.32-.25-.88zm-.417-1.622l.334-.806.433 1.775-.767-.969zm-.711-1.71l.235-.41.707 1.103-.942-.692zm-.04-.046l-.695-1.005.929.594-.235.41zm-2.33-2.125l.703-.075.71.983-1.413-.908zm-1.427-.04l-.387-.66 1.582.652-1.195.007zm-1.471-.13l-.312-.548 1.221-.012-.91.56zm-.062.009l-1.538-.058 1.225-.491.313.549zM4.403 3.806l.55-1.196.799-.073-1.35 1.269zm-.1.075L3.8 3.396l1.063-.73-.56 1.215zm-.037.045l-1.252.799.747-1.286.505.487zM2.85 6l-.628-.34.673-.764L2.85 6zm-.02.055l-.763.825.133-1.164.63.34zM1.97 8.368l-.323.265.348-1.404-.025 1.139zm.008.07l.33 2.07-.675-1.787.345-.284zm1.02 2.466l-.038.973-.527-1.052.565.079zm.647 1.246l.536.923-1.102-1.032.566.109zm2.26 1.53l-.024.534-1.405-.909 1.428.375zm.057.023l.73.341-.753.185.023-.526zm1.943.17l.023.75-1.06-.556 1.037-.194zm1.675-.449l-.43 1.015-1.137-.593 1.567-.422zm.068-.009l1.307.364-1.736.65.429-1.014zm1.513-.68l.554.486-.63.49.076-.976zm1.503-1.04l.639-.122-1.4 1.459.761-1.337zm.752-.283l-.004-.722.59-.36-.586 1.082zm.052-.825l.715-1.205-.131.848-.584.357zm.912-2.603l.084.887-.19.261.106-1.148zm-.434-2.22l.163.154.164 1.187-.327-1.34zm-.829-1.353l.154-.078.445 1.01-.598-.932zm-1.075-.707l.27-.388.66.983-.93-.595zm-.042-.043l-.704-.973.974.585-.27.388zm-1.585-1.019l-.004-.423.677.352-.673.071zm-.059-.01l-1.549-.64 1.545.205.004.434zm-3.064-.714l.247-.212.817.201-1.064.011zm-1.347.507l.48-.518.663.06-1.143.458zm-.124.047l-.726.067 1.192-.57-.466.503zm-1.997.837l.08-.18.667-.332-.747.512zm-.875 1.413L2.9 4.25l.725-.694-.677 1.166zm-.05.083l-.601.683.554-1.143.047.46zM2.002 6.94l-.383.071.506-1.154-.123 1.083zm-.012.062l-.368 1.483-.023-1.41.39-.073zm.324 3.692l-.436-.36-.21-1.35.646 1.71zm.612 1.248l-.279-.092-.186-.837.465.929zm1.191 1.151l-.926-.505-.149-.501 1.075 1.006zm.169.16l.4.512-1.225-.963.825.45zm.15.096l1.274.824-.834-.261-.44-.563zm2.338.734l.99.52-1.721-.34.731-.18zm1.189-.197l1.109.578-1.086.173-.023-.751zm2.943-.027l-.45.39-1.013.157 1.463-.547zm.832-.584l.038.243-.582.18.544-.423zm1.51-1.563l-.598 1.067-.762.35 1.36-1.417zm.167-.177l.401-.743-.428 1.019.027-.276zm.847-2.288l.152-.21-.243.802.091-.592zm.146-1.582v-.001l-.002-.016.015-.199.015.514-.028-.298zm-.04-.293l-.152-1.1.188.625-.036.475zm-.45-1.715l-.277-.628.387.732-.11-.104zm-.834-1.297l-.552-.82.704.744-.152.076zm-1.843-1.774l.037-.027.424.304-.461-.277zm-.056-.032l-.287-.149.319.126-.032.023zm-2.422-.627l.538-.11.809.288-1.347-.178zm-.175-.024l-.732-.18 1.227.078-.495.102zm-1.387.014l-.57-.052.798-.144-.228.196zm-2.015.511l.327-.245.527-.163-.854.408zm-.268.129l-.283.14.436-.255-.153.115zm-1.188.817l-.337.322.385-.43-.048.108zm-1.575 2.27l-.15.056.581-.945-.43.89zm-.195.136l.162-.06-.408.928.246-.868zM1.56 8.19l.008.516-.03.094.022-.61zm.028.648l.147.95-.203-.775.056-.175zm.767 1.965l.189.848-.603-1.19.414.342zm.606 1.212l.131.442-.39-.528.259.086zm2.928 2.275l.055.088-.573-.25.518.162zm.147.125l-.067-.107 1.246.246-1.179-.139zm3.053.106l-.13.149-.685-.02.815-.13zm.091-.015l.816-.127-.937.265.121-.138zm1.885-.706l.478-.148-.844.464.366-.316zm.766-.318l-.038-.243.7-.323-.662.566zm1.514-1.82l-.033.328-.46.55.493-.877zm.756-1.394l.119-.057-.541 1.061.422-1.004zm.158-.141l-.133.064.267-.879-.134.815z" fill="#58C1FF" fill-opacity=".3"/><path d="M12.287 1.845c-.35.409-.514 1.329-.159 2.26.356.933.902.73 1.242 1.681.448 1.254.24 2.94.24 2.94s.539 1.561.915-.098c.832-3.117-2.238-6.015-2.238-6.783z" fill="url(#paint0_linear)"/><path d="M12.879 12.28c-.14.099-.288.188-.441.266.202-.298.39-.605.56-.923.14-.153.266-.302.37-.463.05-.08.107-.178.167-.29.365-.659.768-1.724.78-2.817V8.05v-.08a3.775 3.775 0 0 0-.084-.818l.008.063-.01-.048.015.087c.074.634.021 1.251-.245 1.707l-.012.02c.137-.693.184-1.457.03-2.222 0 0-.061-.372-.518-1.501-.263-.65-.73-1.183-1.143-1.571-.362-.448-.69-.748-.872-.939-.378-.398-.537-.697-.602-.892-.056-.028-.778-.73-.836-.756-.315.488-1.306 2.017-.835 3.445.214.647.754 1.32 1.32 1.696.025.028.337.367.485 1.13.153.79.072 1.405-.242 2.316-.371.798-1.32 1.588-2.21 1.669-1.9.172-2.595-.954-2.595-.954.68.271 1.43.214 1.886-.067.46-.285.739-.496.965-.413.222.083.4-.157.24-.406a1.15 1.15 0 0 0-1.163-.507c-.46.075-.882.44-1.486.086a1.254 1.254 0 0 1-.113-.074c-.04-.026.13.04.09.01a2.948 2.948 0 0 1-.38-.252c-.008-.008.092.032.083.024-.565-.465-.494-.779-.476-.976.014-.157.116-.36.29-.441.082.046.134.08.134.08l-.054-.11c.006-.004.013-.003.02-.006.068.033.219.119.299.171.103.073.136.138.136.138s.027-.015.007-.078a.41.41 0 0 0-.141-.193h.006c.062.035.12.076.174.121.03-.105.081-.215.07-.411-.007-.139-.004-.174-.028-.228-.022-.046.012-.064.05-.016a.481.481 0 0 0-.033-.108v-.004c.048-.165 1-.593 1.07-.643a.987.987 0 0 0 .28-.305.782.782 0 0 0 .103-.382c.005-.13-.055-.216-1.019-.317-.263-.026-.418-.217-.505-.393a.85.85 0 0 1-.086-.23c.157-.453.422-.835.81-1.124.022-.02-.084.005-.063-.015.025-.022.186-.087.217-.102.037-.017-.16-.1-.333-.08-.177.02-.215.04-.31.08.04-.039.165-.09.135-.09-.19.03-.427.14-.63.266 0-.022.004-.043.012-.063-.094.04-.326.202-.393.339a.65.65 0 0 0 .004-.08c-.072.06-.137.128-.194.203l-.003.003c-.548-.22-1.03-.235-1.437-.136-.09-.09-.133-.024-.336-.47-.013-.026.011.027 0 0-.033-.086.02.116 0 0-.34.27-.79.575-1.005.79-.003.009.251-.072 0 0-.088.025-.082.077-.096.55-.003.035 0 .075-.003.108-.172.219-.29.405-.334.5-.222.385-.467.983-.705 1.929a4.9 4.9 0 0 1 .378-.74c-.198.503-.389 1.292-.427 2.506.048-.25.109-.499.184-.743a6.931 6.931 0 0 0 .509 2.947c.136.334.362.841.747 1.397a6.608 6.608 0 0 0 4.804 2.065 6.614 6.614 0 0 0 4.96-2.232z" fill="url(#paint1_linear)"/><path d="M12.879 12.28c-.14.099-.288.188-.441.266.202-.298.39-.605.56-.923.14-.153.266-.302.37-.463.05-.08.107-.178.167-.29.365-.659.768-1.724.78-2.817V8.05v-.08a3.775 3.775 0 0 0-.084-.818l.008.063-.01-.048.015.087c.074.634.021 1.251-.245 1.707l-.012.02c.137-.693.184-1.457.03-2.222 0 0-.061-.372-.518-1.501-.263-.65-.73-1.183-1.143-1.571-.362-.448-.69-.748-.872-.939-.378-.398-.537-.697-.602-.892-.056-.028-.778-.73-.836-.756-.315.488-1.306 2.017-.835 3.445.214.647.754 1.32 1.32 1.696.025.028.337.367.485 1.13.153.79.072 1.405-.242 2.316-.371.798-1.32 1.588-2.21 1.669-1.9.172-2.595-.954-2.595-.954.68.271 1.43.214 1.886-.067.46-.285.739-.496.965-.413.222.083.4-.157.24-.406a1.15 1.15 0 0 0-1.163-.507c-.46.075-.882.44-1.486.086a1.254 1.254 0 0 1-.113-.074c-.04-.026.13.04.09.01a2.948 2.948 0 0 1-.38-.252c-.008-.008.092.032.083.024-.565-.465-.494-.779-.476-.976.014-.157.116-.36.29-.441.082.046.134.08.134.08l-.054-.11c.006-.004.013-.003.02-.006.068.033.219.119.299.171.103.073.136.138.136.138s.027-.015.007-.078a.41.41 0 0 0-.141-.193h.006c.062.035.12.076.174.121.03-.105.081-.215.07-.411-.007-.139-.004-.174-.028-.228-.022-.046.012-.064.05-.016a.481.481 0 0 0-.033-.108v-.004c.048-.165 1-.593 1.07-.643a.987.987 0 0 0 .28-.305.782.782 0 0 0 .103-.382c.005-.13-.055-.216-1.019-.317-.263-.026-.418-.217-.505-.393a.85.85 0 0 1-.086-.23c.157-.453.422-.835.81-1.124.022-.02-.084.005-.063-.015.025-.022.186-.087.217-.102.037-.017-.16-.1-.333-.08-.177.02-.215.04-.31.08.04-.039.165-.09.135-.09-.19.03-.427.14-.63.266 0-.022.004-.043.012-.063-.094.04-.326.202-.393.339a.65.65 0 0 0 .004-.08c-.072.06-.137.128-.194.203l-.003.003c-.548-.22-1.03-.235-1.437-.136-.09-.09-.133-.024-.336-.47-.013-.026.011.027 0 0-.033-.086.02.116 0 0-.34.27-.79.575-1.005.79-.003.009.251-.072 0 0-.088.025-.082.077-.096.55-.003.035 0 .075-.003.108-.172.219-.29.405-.334.5-.222.385-.467.983-.705 1.929a4.9 4.9 0 0 1 .378-.74c-.198.503-.389 1.292-.427 2.506.048-.25.109-.499.184-.743a6.931 6.931 0 0 0 .509 2.947c.136.334.362.841.747 1.397a6.608 6.608 0 0 0 4.804 2.065 6.614 6.614 0 0 0 4.96-2.232z" fill="url(#paint2_linear)"/><path d="M11.42 13.204c2.386-.277 3.443-2.736 2.086-2.784-1.225-.04-3.217 2.914-2.086 2.784z" fill="url(#paint3_linear)"/><path d="M13.678 9.917c1.642-.955 1.214-3.02 1.214-3.02s-.634.737-1.064 1.91c-.426 1.162-1.137 1.687-.15 1.11z" fill="url(#paint4_linear)"/><path d="M8.465 14.425c2.29.73 4.257-1.073 3.044-1.675-1.102-.543-4.13 1.33-3.044 1.675z" fill="url(#paint5_linear)"/><path d="M10.357.818l.008-.009a.026.026 0 0 0-.008.009zm3.492 9.976c.055-.079.13-.33.197-.443.404-.652.407-1.173.407-1.185.244-1.219.222-1.717.072-2.638-.121-.741-.65-1.803-1.107-2.315-.472-.527-.14-.355-.597-.74-.4-.444-.788-.884-1-1.06-1.528-1.278-1.493-1.55-1.464-1.595a1.525 1.525 0 0 0-.021.024 3.743 3.743 0 0 1-.031-.133s-.836.835-1.011 2.227c-.115.909.225 1.856.718 2.462.256.314.546.599.864.85.372.534.577 1.193.577 1.903a3.218 3.218 0 0 1-3.938 3.136c-.84-.16-1.323-.583-1.565-.87a1.576 1.576 0 0 1-.197-.285c.751.27 1.582.213 2.087-.066.51-.282.818-.492 1.068-.41.246.083.442-.155.266-.403-.172-.246-.62-.6-1.287-.502-.51.074-.977.436-1.645.086a1.41 1.41 0 0 1-.125-.074c-.044-.026.143.04.1.01a3.314 3.314 0 0 1-.42-.25c-.01-.008.1.032.09.023-.624-.46-.546-.772-.527-.967a.56.56 0 0 1 .32-.437c.093.045.15.08.15.08l-.06-.111c.007-.003.014-.002.022-.005.075.033.243.118.33.17.115.072.152.137.152.137s.03-.015.008-.078a.409.409 0 0 0-.157-.192h.007c.068.035.132.075.193.12.032-.104.09-.213.077-.408-.008-.137-.004-.172-.031-.225-.024-.045.013-.063.055-.016a.44.44 0 0 0-.036-.108v-.003c.053-.163 1.108-.588 1.184-.638.124-.077.23-.18.31-.302a.716.716 0 0 0 .114-.38c.004-.08-.021-.143-.3-.204a7.536 7.536 0 0 0-.827-.11c-.292-.025-.463-.215-.56-.39a.778.778 0 0 1-.095-.228c.174-.456.488-.847.897-1.114.024-.02-.093.005-.07-.014.027-.023.206-.087.24-.102.041-.017-.177-.1-.369-.08-.196.02-.237.04-.342.08.044-.038.182-.089.15-.089-.212.03-.474.14-.698.264 0-.022.004-.044.013-.063-.104.04-.36.2-.435.336a.58.58 0 0 0 .004-.079 1.3 1.3 0 0 0-.214.201l-.004.003c-.606-.218-1.139-.232-1.59-.134-.099-.09-.257-.224-.482-.666-.015-.026-.023.055-.035.029a2.035 2.035 0 0 1-.131-.763s-.18.083-.33.426c-.028.062-.046.096-.063.13-.009.01.018-.113.014-.106-.026.044-.093.105-.123.185-.02.059-.049.092-.067.165l-.004.007c-.001-.022.005-.09 0-.075a3.46 3.46 0 0 0-.18.437c-.08.264-.174.624-.189 1.093-.003.035 0 .075-.003.107-.19.217-.32.401-.37.497-.246.38-.518.974-.78 1.912.116-.257.256-.502.417-.733-.218.498-.43 1.28-.472 2.484.053-.249.121-.495.203-.736a6.236 6.236 0 0 0 .564 2.922c.301.66.995 2.002 2.69 3.05 0 0 .577.429 1.568.75.073.027.148.053.223.079a1.447 1.447 0 0 1-.069-.03c.66.197 1.345.298 2.034.298 2.567.002 3.324-1.028 3.324-1.028l-.007.005c.036-.034.07-.07.104-.106-.405.382-1.329.408-1.675.38.59-.173.978-.32 1.732-.608.088-.033.179-.07.27-.112l.03-.014c.02-.008.037-.017.056-.026.367-.173.713-.39 1.03-.644.757-.605.922-1.195 1.008-1.584-.012.037-.05.124-.076.18-.195.418-.628.674-1.097.893.223-.293.43-.598.62-.914.154-.152.202-.39.316-.55z" fill="url(#paint6_radial)"/><path d="M12.926 12.24c.31-.34.587-.73.797-1.171.54-1.137 1.377-3.027.718-5.001-.52-1.56-1.235-2.414-2.142-3.247C10.826 1.467 10.414.863 10.414.504c0 0-1.7 1.896-.963 3.874.738 1.978 2.249 1.905 3.248 3.969 1.177 2.428-.951 5.079-2.711 5.82.107-.023 3.912-.884 4.112-3.06-.005.04-.09.642-1.174 1.134z" fill="url(#paint7_linear)"/><path d="M7.998 5.184c.006-.129-.06-.215-1.123-.315-.438-.04-.605-.444-.656-.615-.156.404-.22.828-.185 1.34.023.337.249.697.357.909l.035-.043c.203-.211 1.054-.533 1.134-.58.088-.055.423-.3.438-.696z" fill="url(#paint8_linear)"/><path d="M7.998 5.184c.006-.129-.06-.215-1.123-.315-.438-.04-.605-.444-.656-.615-.156.404-.22.828-.185 1.34.023.337.249.697.357.909l.035-.043c.203-.211 1.054-.533 1.134-.58.088-.055.423-.3.438-.696z" fill="url(#paint9_linear)"/><path d="M3.32 2.797c-.015-.027-.024.055-.035.028a1.946 1.946 0 0 1-.128-.762s-.18.082-.33.426c-.028.062-.046.096-.063.13-.009.01.018-.113.014-.106-.026.044-.093.105-.122.18-.025.063-.05.096-.068.173-.006.021.006-.092 0-.078-.347.671-.413 1.686-.376 1.643.74-.79 1.587-.977 1.587-.977-.09-.066-.286-.258-.48-.657z" fill="url(#paint10_linear)"/><path d="M6.126 11.055c-1.021-.436-2.183-1.051-2.14-2.449.06-1.84 1.717-1.476 1.717-1.476a.6.6 0 0 0-.289.26.793.793 0 0 0 .17.893c.543.589-1.117 1.397 1.445 2.924.065.035-.6-.02-.903-.152z" fill="url(#paint11_linear)"/><path d="M5.763 10.138c.725.252 1.569.208 2.074-.071.338-.188.772-.49 1.04-.416a1.816 1.816 0 0 0-.736-.149c-.077 0-.154.004-.23.013-.13.012-.275.094-.407.081-.007 0 .128-.055.117-.053-.07.015-.146.018-.226.028-.05.005-.094.012-.144.014-1.51.128-2.785-.818-2.785-.818-.108.366.486 1.089 1.297 1.371z" fill="url(#paint12_linear)"/><path d="M12.924 12.25c1.526-1.498 2.298-3.32 1.972-5.363 0 0 .13 1.048-.364 2.12.237-1.047.265-2.347-.366-3.693-.843-1.797-2.228-2.743-2.757-3.137-.802-.598-1.134-1.206-1.14-1.332-.24.49-.964 2.172-.078 3.62.83 1.356 2.138 1.758 3.053 3.003 1.686 2.292-.32 4.782-.32 4.782z" fill="url(#paint13_linear)"/><path d="M12.705 8.351c-.533-1.102-1.2-1.582-1.829-2.103.073.102.091.139.132.205a3.89 3.89 0 0 1 .778 3.84c-1.117 3.406-5.585 1.802-6.053 1.352.19 1.97 3.488 2.913 5.635 1.636 1.223-1.157 2.211-3.124 1.337-4.93z" fill="url(#paint14_linear)"/><path d="M12.93 10.561l.013-.07c.005-.026.011-.053.015-.083.009-.058.02-.124.027-.197a3.269 3.269 0 0 0-.064-1.155 3.4 3.4 0 0 0-.255-.714 4.937 4.937 0 0 0-.713-1.082 5.696 5.696 0 0 0-.321-.334 8.508 8.508 0 0 0-.354-.316c-.122-.103-.247-.204-.371-.307-.125-.103-.25-.207-.371-.317a5.099 5.099 0 0 1-.348-.344 3.61 3.61 0 0 1-.304-.382l-.034-.05a.877.877 0 0 1-.034-.05l-.064-.103-.06-.104-.029-.053c-.01-.017-.018-.036-.027-.053l-.054-.107-.049-.108c-.034-.072-.06-.146-.09-.219l-.01-.027-.01-.028-.018-.055-.037-.11-.03-.112-.014-.056c-.005-.019-.008-.038-.011-.056a3.115 3.115 0 0 1-.056-.877c.022-.265.072-.528.15-.783.066-.221.149-.437.248-.646a5.45 5.45 0 0 1 .74-1.16.014.014 0 0 1 .02 0 .013.013 0 0 1 .004.01c0 .003 0 .007-.002.01a5.51 5.51 0 0 0-.741 1.173 4.515 4.515 0 0 0-.243.644 3.758 3.758 0 0 0-.141.776c-.02.289.002.579.062.862l.006.028.007.027.015.055c.01.036.018.073.03.11l.036.108.018.054.021.054.043.108.011.027.012.026.024.054.024.053.025.053.053.105c.148.282.332.544.548.779.11.118.225.23.345.338.12.107.244.21.368.312.124.102.25.203.371.306.122.102.24.207.355.315a4.664 4.664 0 0 1 .607.689c.167.23.314.476.439.733l.011.022.01.024.022.046.041.09.037.093.018.045.016.046.032.09.014.045.014.045.025.089.022.088a3.33 3.33 0 0 1 .07 1.177c-.016.15-.04.27-.058.361a4.377 4.377 0 0 1-.331.97c-.067.139-.135.268-.205.384l-.025.044-.026.042-.05.08c-.035.053-.067.103-.1.15a5.606 5.606 0 0 1-.18.245l-.077.096-.067.079-.029.033-.025.028-.041.044c-.023.023-.035.035-.037.034a.173.173 0 0 1 .029-.043l.09-.114c.077-.1.187-.247.312-.438.03-.048.063-.098.095-.151.032-.054.066-.109.098-.168.067-.117.133-.245.196-.383.016-.035.033-.07.048-.106l.045-.11a4.281 4.281 0 0 0 .223-.728z" fill="url(#paint15_linear)"/><path d="M11.834 10.024c.008-.03.02-.07.03-.12.01-.05.025-.108.036-.176l.019-.106.016-.118.005-.03.003-.033.006-.065c.002-.022.005-.044.006-.067l.004-.07c.012-.205.008-.41-.013-.614l-.004-.04-.006-.042-.01-.082-.014-.082c-.005-.028-.009-.056-.015-.083l-.017-.083-.009-.041-.01-.041-.02-.082-.022-.082a3.99 3.99 0 0 0-.521-1.12 3.57 3.57 0 0 0-.266-.344l-.027-.03-.007-.008a.022.022 0 0 1-.004-.006l-.003-.004-.01-.016-.032-.055-.043-.067a3.246 3.246 0 0 0-.034-.05.014.014 0 0 1 .004-.019.014.014 0 0 1 .02.002 2.448 2.448 0 0 1 .08.122l.034.056.01.015.001.002.003.003.007.008.028.03c.099.11.19.226.272.347a3.963 3.963 0 0 1 .532 1.125l.023.082.02.082.011.042.01.041.017.083.015.084.015.082.011.083.006.041.004.041a3.869 3.869 0 0 1-.038 1.116c-.01.07-.026.129-.036.18-.01.051-.022.093-.03.124l-.025.093-.027.087-.026.084-.028.079c-.037.101-.076.19-.11.261-.069.144-.122.222-.129.218-.007-.004.035-.091.094-.239.029-.074.062-.163.096-.264l.025-.077.024-.082.026-.086.023-.089z" fill="url(#paint16_linear)"/><path d="M11.505 5.902c-.035-.027-.082-.064-.137-.11l-.092-.075-.104-.09a5.927 5.927 0 0 1-.504-.487 4.294 4.294 0 0 1-.52-.702l-.059-.103-.053-.105-.013-.027-.012-.027-.024-.055-.024-.055c-.008-.018-.014-.037-.021-.056l-.021-.056a.772.772 0 0 1-.02-.057l-.037-.115-.03-.117a.825.825 0 0 1-.014-.059l-.013-.059a3.295 3.295 0 0 1-.054-.934c.011-.143.03-.287.055-.428a4.943 4.943 0 0 1 .28-.968c.06-.149.107-.249.125-.288l.038-.079a.014.014 0 0 1 .018-.005.014.014 0 0 1 .007.018L10.24.94a5.312 5.312 0 0 0-.315.88c-.07.263-.114.532-.133.804a3.255 3.255 0 0 0 .06.918l.013.058.006.028.008.029.03.114.037.113c.005.018.013.037.02.055l.02.055.022.055.024.053.023.054.012.026.013.026.053.104.057.099c.148.247.321.477.516.69.157.169.325.33.5.48l.104.088.092.075c.056.047.104.083.14.112l.392.31c.118.095.222.18.307.252l.112.099.081.076c.044.043.066.067.064.07a.32.32 0 0 1-.08-.054l-.21-.163-.314-.242c-.119-.092-.251-.192-.39-.303z" fill="url(#paint17_linear)"/><path d="M14.565 6.386c-.008-.027-.015-.06-.026-.096-.01-.036-.021-.076-.035-.12l-.022-.07a1.762 1.762 0 0 0-.025-.075l-.058-.165-.032-.09-.037-.093-.038-.099c-.014-.033-.026-.068-.041-.102l-.092-.214-.107-.226-.013-.029-.015-.028-.03-.058-.062-.119c-.01-.02-.021-.04-.033-.059l-.033-.06-.069-.12-.074-.12-.038-.061-.019-.03-.02-.03c-.054-.08-.107-.163-.167-.242l-.088-.12-.092-.119-.047-.06-.049-.058-.098-.116-.102-.114-.051-.057-.053-.056-.105-.111-.108-.109-.109-.107-.11-.105-.221-.205c-.147-.135-.29-.268-.427-.4a14.653 14.653 0 0 1-.733-.747 4.575 4.575 0 0 1-.481-.615 1.537 1.537 0 0 1-.118-.224.798.798 0 0 1-.044-.134.533.533 0 0 1-.014-.107.015.015 0 0 0-.015-.012.013.013 0 0 0-.014.013c.001.038.006.075.015.112.011.05.027.099.047.146.034.08.075.158.122.232.063.1.132.197.205.29.082.105.176.216.28.332.21.234.459.487.731.75.136.132.278.266.424.401l.219.205.108.105.108.106.106.108.104.11.052.056.05.057.1.113.097.116.047.057.046.06.091.117.087.119c.058.078.11.16.163.239.027.039.051.08.076.12l.073.119.067.12.066.117.06.117.03.058.028.057c.129.266.242.54.34.819l.058.164.014.038.011.037.022.069.036.121.025.097.01.041.01.042.02.081c.01.055.022.108.03.16l.015.078.011.076c.009.05.014.099.02.146.024.191.033.36.038.502.007.283-.003.45.006.451a.52.52 0 0 0 .019-.122 4.507 4.507 0 0 0-.122-1.47z" fill="url(#paint18_linear)"/><path d="M9.459 11.095l.07-.031.091-.041.106-.054.029-.015.029-.017.061-.035c.043-.023.086-.052.131-.08.046-.028.091-.063.14-.096l.071-.054.074-.057.073-.063c.025-.021.05-.043.074-.066l.074-.07.072-.075.037-.038.036-.04.071-.083c.096-.117.184-.24.264-.368.082-.135.155-.276.218-.42.061-.149.113-.301.153-.456a3.4 3.4 0 0 0 .083-.47c.006-.079.014-.156.015-.233a3.468 3.468 0 0 0-.043-.66c-.01-.068-.025-.135-.039-.199l-.022-.094-.025-.091-.012-.044-.014-.043-.027-.083-.029-.079-.014-.038-.015-.036-.028-.07-.03-.066-.028-.061-.029-.056a3.097 3.097 0 0 0-.157-.274l-.048-.073a.015.015 0 0 1 .002-.017l.007-.002h-.007l.006-.002a.013.013 0 0 1 .016.004l.049.074a3.204 3.204 0 0 1 .394.867c.018.06.033.122.049.187l.02.098a.833.833 0 0 1 .01.051l.008.051c.024.144.039.29.045.435l.003.114v.058l-.002.058c0 .077-.008.156-.013.235a3.231 3.231 0 0 1-.718 1.735l-.072.083c-.012.014-.023.028-.036.041l-.037.04-.073.076-.075.071-.036.035-.038.033-.074.064-.074.058c-.024.02-.048.039-.073.056l-.071.05-.035.025-.035.023c-.046.03-.09.059-.133.083l-.062.036-.03.017-.03.015-.108.056-.093.042c-.028.013-.052.025-.073.033-.158.065-.321.118-.488.156l-.11.023-.104.017-.049.008-.047.006-.09.009-.08.006-.07.003c-.045.002-.083 0-.114 0-.062-.002-.095-.005-.095-.01a.34.34 0 0 1 .097-.013c.031-.002.07-.004.114-.01l.072-.008.039-.004.04-.006c.056-.009.118-.016.184-.03l.101-.02.107-.026c.16-.04.317-.092.47-.155z" fill="url(#paint19_linear)"/><path d="M6.157 4.353l.053-.142c.023-.053.047-.115.08-.181.076-.16.17-.31.28-.45a2.23 2.23 0 0 1 .595-.528l.022-.012.008-.005.002-.001.005-.003h.002c.001-.001 0-.001-.001-.002H7.2l-.006-.001a1.838 1.838 0 0 0-.537-.03 1.65 1.65 0 0 0-.588.172 7.16 7.16 0 0 0-.414.241 1.719 1.719 0 0 0-.203.148l-.022.022-.005.005-.005.007c-.002.002-.004.003-.005.006h-.004l-.002.002-.01.006a.052.052 0 0 1-.01.003c-.004.001-.008.005-.012.002l-.023-.008-.03-.011a3.63 3.63 0 0 0-.383-.109l-.012-.003-.012-.003a2.787 2.787 0 0 0-.434-.06 1.932 1.932 0 0 0-.442.032 3.022 3.022 0 0 0-.437.11c-.143.045-.283.1-.419.164a3.07 3.07 0 0 0-.735.477 2.588 2.588 0 0 0-.292.303c-.022.026-.042.054-.063.08l-.059.083-.057.083c-.019.027-.038.054-.055.082l-.102.164-.093.162c-.016.027-.03.054-.044.08l-.041.08c-.014.026-.028.051-.04.077l-.038.077c-.05.101-.092.2-.134.293-.038.093-.076.181-.107.264-.032.082-.058.16-.084.23-.023.07-.045.133-.062.189l-.025.077-.02.066-.025.091c-.015.05-.027.1-.039.147a.014.014 0 0 1-.017.009.014.014 0 0 1-.01-.016 4.085 4.085 0 0 1 .065-.245l.02-.068.025-.08c.008-.028.018-.058.03-.09.01-.033.02-.067.033-.102.026-.071.053-.15.085-.233.031-.084.069-.172.108-.267l.063-.144.035-.074.036-.076.037-.078.04-.078.042-.08.021-.04.023-.04c.03-.053.06-.108.093-.163l.103-.165a.745.745 0 0 1 .027-.041l.028-.041.057-.083.03-.042.03-.041.031-.041c.01-.014.022-.027.033-.04.09-.11.189-.212.295-.306.11-.097.227-.185.35-.265a3.513 3.513 0 0 1 1.254-.494 2.498 2.498 0 0 1 .337-.036l.113.002c.148.009.295.029.44.06l.012.003.012.003a3.536 3.536 0 0 1 .388.11l.031.01.01.003.002.001.001-.002.005-.005.006-.006c.007-.01.016-.017.024-.025a1.142 1.142 0 0 1 .155-.118l.053-.035a7.403 7.403 0 0 1 .417-.245c.067-.036.137-.066.208-.092.13-.045.265-.075.401-.088a1.892 1.892 0 0 1 .55.028l.04.01c.016.003.033.007.047.012l.043.012.021.007.004.001.003.001-.002.001-.012.006-.05.022-.012.006a.158.158 0 0 0-.011.005l-.02.01-.02.01-.01.006-.004.002-.002.002-.021.012-.041.025a2.172 2.172 0 0 0-.537.488c-.108.136-.2.283-.275.44-.032.065-.056.126-.079.18a3.38 3.38 0 0 0-.225.993c-.008.122-.003.245.013.367l.007.042a.399.399 0 0 0 .008.04c.007.028.012.054.02.08l.02.074c.008.024.015.048.024.07.05.144.107.284.172.421.045.096.072.148.068.15a.757.757 0 0 1-.09-.144 3.123 3.123 0 0 1-.242-.573c-.008-.026-.014-.054-.021-.081l-.016-.086a1.924 1.924 0 0 1-.016-.378 3.33 3.33 0 0 1 .17-.853z" fill="url(#paint20_linear)"/><path d="M14.409 10.136l.041-.092.059-.135.07-.172.036-.098.038-.105c.025-.073.053-.15.076-.23.012-.04.026-.08.037-.123l.035-.127c.012-.043.021-.087.032-.131l.015-.066.014-.067.026-.136.006-.034.005-.034.01-.068c.015-.09.023-.182.033-.272.006-.09.014-.177.016-.263a4.875 4.875 0 0 0-.07-1.064.014.014 0 0 1 .009-.006.014.014 0 0 1 .01.002c.002 0 .003.002.004.003a4.226 4.226 0 0 1 .079.595c.002.036.005.072.006.11l.003.117c0 .08.002.163-.001.25-.002.085-.009.174-.014.264-.01.09-.017.182-.03.273l-.01.068-.005.035-.006.034-.024.136-.014.068-.015.066c-.01.045-.019.09-.03.132l-.034.128-.018.063-.018.061-.018.06-.01.03-.009.029-.038.113c-.07.207-.152.411-.243.61-.175.384-.347.64-.36.63-.013-.007.139-.283.306-.654z" fill="#fff" opacity=".25"/><path d="M12.42 13.18c.074-.044.248-.148.457-.298l.08-.058.083-.063.043-.032.042-.034.086-.07.086-.073.085-.076.082-.08c.026-.029.053-.056.077-.086a2.043 2.043 0 0 0 .257-.367 2.497 2.497 0 0 0 .282-.79l.006-.041a.014.014 0 0 1 .015-.011.013.013 0 0 1 .01.004.014.014 0 0 1 .004.01 2.368 2.368 0 0 1-.12.486 2.522 2.522 0 0 1-.282.556c-.043.063-.09.125-.14.184-.024.03-.05.058-.077.087-.027.028-.054.057-.082.083-.028.027-.057.052-.086.078l-.085.075-.085.07-.042.035-.043.033-.082.064-.08.059c-.21.153-.384.26-.46.305-.304.181-.546.273-.552.258-.003-.007.054-.04.149-.093.095-.054.226-.128.373-.215z" fill="#fff" opacity=".25"/><path d="M8.592 14.887l.098-.004.143-.01a7.55 7.55 0 0 0 .39-.036l.057-.007.058-.008.12-.017c.04-.006.08-.015.122-.022l.127-.023.128-.029.065-.014.064-.017.13-.035.033-.009.031-.01.064-.02c.043-.015.086-.027.128-.042l.124-.046.062-.023.06-.025.117-.048c.142-.06.28-.13.413-.206.1-.056.193-.123.28-.198a.739.739 0 0 0 .116-.128c.005-.006.01-.013.013-.02.004-.006.008-.013.01-.02a.015.015 0 0 1 .018-.006c.009.003.011.01.009.018l-.011.023-.014.022a.776.776 0 0 1-.124.137 1.834 1.834 0 0 1-.285.205 4.136 4.136 0 0 1-.413.211l-.118.05-.06.025-.061.024-.125.047-.127.043-.064.021-.032.01-.033.01-.13.036-.064.018-.065.015-.129.03c-.042.009-.085.016-.127.024-.041.008-.082.017-.123.023l-.12.018-.114.017c-.15.02-.284.032-.393.04l-.145.01-.101.004c-.41.017-.708-.017-.707-.033.001-.015.308-.009.705-.025z" fill="#fff" opacity=".25"/><path d="M3.284 2.856l-.028-.047c-.01-.019-.023-.04-.035-.066a1.118 1.118 0 0 1-.067-.197 1.719 1.719 0 0 1-.049-.373V2.14 2.14l-.002.002-.002.001-.006.008a4.652 4.652 0 0 0-.446.587c-.031.048-.06.099-.089.15l-.04.077a.572.572 0 0 0-.02.039l-.018.04a2.204 2.204 0 0 0-.115.32 3.859 3.859 0 0 0-.114.57c-.02.156-.026.266-.028.3l-.002.05a.014.014 0 0 1-.015.012.014.014 0 0 1-.014-.013l.002-.05a4.334 4.334 0 0 1 .135-.883c.03-.112.068-.221.114-.327l.018-.04.01-.02.01-.02.04-.079c.029-.051.057-.103.088-.152.061-.1.125-.193.19-.28a5.29 5.29 0 0 1 .253-.316l.01-.011.016-.018.03-.034.031-.032.015-.017.004-.003.002-.002v.015l-.003.092v.063a1.99 1.99 0 0 0 .05.36c.015.065.037.127.064.188.005.012.012.023.017.033l.016.029.028.046c.053.086.11.164.16.233.051.069.098.129.137.179.077.1.123.159.117.164-.005.005-.064-.046-.152-.141a3.188 3.188 0 0 1-.312-.404z" fill="url(#paint21_linear)"/><path d="M4.005 9.059c-.005-.023-.01-.055-.016-.093a.842.842 0 0 1-.01-.063l-.008-.073a2.225 2.225 0 0 1 .092-.834 1.46 1.46 0 0 1 .096-.236 1.2 1.2 0 0 1 .327-.393l.05-.038c.017-.013.035-.023.052-.035l.026-.017.026-.016.052-.03c.131-.07.274-.113.421-.13.11-.012.22-.014.33-.006.085.006.143.016.167.02l.045.008a.014.014 0 0 1 .01.016.014.014 0 0 1-.015.012l-.045-.008a1.799 1.799 0 0 0-.493-.007c-.142.019-.279.063-.405.131-.033.02-.068.04-.1.063-.016.012-.034.022-.05.035l-.047.037c-.13.103-.235.233-.31.381a1.42 1.42 0 0 0-.09.227 2.18 2.18 0 0 0-.082.812l.009.071c.003.023.005.043.009.062l.017.092a3.15 3.15 0 0 0 .13.453c.04.11.069.174.061.178-.006.004-.049-.057-.1-.166a1.936 1.936 0 0 1-.08-.197l-.037-.122c-.012-.043-.021-.088-.032-.134z" fill="url(#paint22_linear)"/><defs><linearGradient id="paint0_linear" x1="11.831" y1="5.573" x2="14.77" y2="5.704" gradientUnits="userSpaceOnUse"><stop offset="0" stop-color="#0083FF"/><stop offset=".176" stop-color="#0096F6"/><stop offset=".508" stop-color="#00B3E6"/><stop offset=".794" stop-color="#00C6DD"/><stop offset=".999" stop-color="#00CCDA"/></linearGradient><linearGradient id="paint1_linear" x1="8.922" y1="11.189" x2="6.117" y2="2.012" gradientUnits="userSpaceOnUse"><stop offset="0" stop-color="#000F40" stop-opacity=".6"/><stop offset=".611" stop-color="#000F40" stop-opacity=".182"/><stop offset="1" stop-color="#000F40" stop-opacity="0"/></linearGradient><linearGradient id="paint2_linear" x1="8.922" y1="11.189" x2="6.117" y2="2.012" gradientUnits="userSpaceOnUse"><stop offset="0" stop-color="#000F43" stop-opacity=".4"/><stop offset=".485" stop-color="#001962" stop-opacity=".173"/><stop offset="1" stop-color="#002079" stop-opacity="0"/></linearGradient><linearGradient id="paint3_linear" x1="14.769" y1="12.134" x2="12.726" y2="11.767" gradientUnits="userSpaceOnUse"><stop offset="0" stop-color="#002275"/><stop offset="1" stop-color="#005FE7"/></linearGradient><linearGradient id="paint4_linear" x1="13.548" y1="9.032" x2="15.679" y2="7.224" gradientUnits="userSpaceOnUse"><stop offset=".049" stop-color="#005FE7"/><stop offset=".187" stop-color="#005CE1"/><stop offset=".378" stop-color="#0052CF"/><stop offset=".599" stop-color="#0043B2"/><stop offset=".84" stop-color="#002D8A"/><stop offset=".951" stop-color="#002275"/></linearGradient><linearGradient id="paint5_linear" x1="9.488" y1="13.454" x2="13.611" y2="13.88" gradientUnits="userSpaceOnUse"><stop offset="0" stop-color="#002079"/><stop offset=".995" stop-color="#000F40"/></linearGradient><radialGradient id="paint6_radial" cx="0" cy="0" r="1" gradientUnits="userSpaceOnUse" gradientTransform="translate(9.559 6.148) scale(11.0128)"><stop offset=".156" stop-color="#58C1FF"/><stop offset=".241" stop-color="#4CB8FF"/><stop offset=".394" stop-color="#2EA0FF"/><stop offset=".541" stop-color="#0A84FF"/><stop offset=".763" stop-color="#0060DF"/><stop offset=".798" stop-color="#0067DE"/><stop offset=".85" stop-color="#007BDD"/><stop offset=".913" stop-color="#009CDA"/><stop offset=".982" stop-color="#00C8D7"/></radialGradient><linearGradient id="paint7_linear" x1="12.558" y1="-.503" x2="11.283" y2="13.828" gradientUnits="userSpaceOnUse"><stop offset="0" stop-color="#00FEFF"/><stop offset=".298" stop-color="#04C9FF"/><stop offset=".613" stop-color="#0897FF"/><stop offset=".769" stop-color="#0A84FF"/><stop offset=".791" stop-color="#0A84FF" stop-opacity=".934"/><stop offset=".837" stop-color="#0A84FF" stop-opacity=".763"/><stop offset=".9" stop-color="#0A84FF" stop-opacity=".487"/><stop offset=".978" stop-color="#0A84FF" stop-opacity=".111"/><stop offset="1" stop-color="#0A84FF" stop-opacity="0"/></linearGradient><linearGradient id="paint8_linear" x1="5.393" y1="5.189" x2="7.831" y2="5.435" gradientUnits="userSpaceOnUse"><stop offset="0" stop-color="#003EAA"/><stop offset=".296" stop-color="#0054C5" stop-opacity=".683"/><stop offset=".779" stop-color="#0076EF" stop-opacity=".194"/><stop offset="1" stop-color="#0083FF" stop-opacity="0"/></linearGradient><linearGradient id="paint9_linear" x1="9.109" y1="5.422" x2="6.252" y2="5.378" gradientUnits="userSpaceOnUse"><stop offset="0" stop-color="#00FEFF" stop-opacity=".25"/><stop offset=".541" stop-color="#2DDFFF" stop-opacity=".122"/><stop offset="1" stop-color="#58C1FF" stop-opacity="0"/></linearGradient><linearGradient id="paint10_linear" x1="3.396" y1="5.065" x2="2.047" y2="1.221" gradientUnits="userSpaceOnUse"><stop offset=".19" stop-color="#002275" stop-opacity=".7"/><stop offset=".633" stop-color="#009DC2" stop-opacity=".364"/><stop offset=".944" stop-color="#00FEFF" stop-opacity=".1"/></linearGradient><linearGradient id="paint11_linear" x1="4.231" y1="7.375" x2="5.446" y2="9.072" gradientUnits="userSpaceOnUse"><stop offset=".003" stop-color="#002275" stop-opacity=".8"/><stop offset=".07" stop-color="#002479" stop-opacity=".742"/><stop offset=".947" stop-color="#003EAA" stop-opacity="0"/></linearGradient><linearGradient id="paint12_linear" x1="6.558" y1="10.31" x2="6.637" y2="9.531" gradientUnits="userSpaceOnUse"><stop offset="0" stop-color="#002275" stop-opacity=".6"/><stop offset=".245" stop-color="#002275" stop-opacity=".341"/><stop offset=".486" stop-color="#002275" stop-opacity=".152"/><stop offset=".717" stop-color="#002275" stop-opacity=".039"/><stop offset=".926" stop-color="#002275" stop-opacity="0"/></linearGradient><linearGradient id="paint13_linear" x1="9.342" y1="-.645" x2="13.861" y2="9.459" gradientUnits="userSpaceOnUse"><stop offset="0" stop-color="#00FEFF"/><stop offset=".283" stop-color="#03DFFF"/><stop offset=".897" stop-color="#0992FF"/><stop offset="1" stop-color="#0A84FF"/></linearGradient><linearGradient id="paint14_linear" x1="10.977" y1="6.793" x2="8.855" y2="12.489" gradientUnits="userSpaceOnUse"><stop offset="0" stop-color="#0060DF"/><stop offset=".093" stop-color="#0067E5" stop-opacity=".806"/><stop offset=".211" stop-color="#006EEC" stop-opacity=".594"/><stop offset=".333" stop-color="#0075F2" stop-opacity=".411"/><stop offset=".456" stop-color="#007AF7" stop-opacity=".262"/><stop offset=".583" stop-color="#007EFA" stop-opacity=".147"/><stop offset=".713" stop-color="#0081FD" stop-opacity=".065"/><stop offset=".848" stop-color="#0082FE" stop-opacity=".016"/><stop offset="1" stop-color="#0083FF" stop-opacity="0"/></linearGradient><linearGradient id="paint15_linear" x1="10.378" y1="-.002" x2="11.96" y2="13.339" gradientUnits="userSpaceOnUse"><stop offset="0" stop-color="#75FEFF"/><stop offset=".283" stop-color="#5ADFFF"/><stop offset=".897" stop-color="#1692FF"/><stop offset="1" stop-color="#0A84FF"/></linearGradient><linearGradient id="paint16_linear" x1="11.778" y1="6.472" x2="10.57" y2="11.571" gradientUnits="userSpaceOnUse"><stop offset="0" stop-color="#9EE7FF"/><stop offset=".144" stop-color="#8CDBFF" stop-opacity=".879"/><stop offset=".461" stop-color="#5EBDFF" stop-opacity=".571"/><stop offset=".924" stop-color="#168CFF" stop-opacity=".083"/><stop offset="1" stop-color="#0A84FF" stop-opacity="0"/></linearGradient><linearGradient id="paint17_linear" x1="10.509" y1=".257" x2="11.617" y2="8.655" gradientUnits="userSpaceOnUse"><stop offset="0" stop-color="#00FEFF"/><stop offset=".144" stop-color="#0BF7FF" stop-opacity=".879"/><stop offset=".461" stop-color="#26E4FF" stop-opacity=".571"/><stop offset=".924" stop-color="#51C6FF" stop-opacity=".083"/><stop offset="1" stop-color="#58C1FF" stop-opacity="0"/></linearGradient><linearGradient id="paint18_linear" x1="10.712" y1=".763" x2="16.546" y2="9.884" gradientUnits="userSpaceOnUse"><stop offset="0" stop-color="#00FEFF"/><stop offset=".144" stop-color="#01EFFF" stop-opacity=".879"/><stop offset=".461" stop-color="#04CAFF" stop-opacity=".571"/><stop offset=".924" stop-color="#098EFF" stop-opacity=".083"/><stop offset="1" stop-color="#0A84FF" stop-opacity="0"/></linearGradient><linearGradient id="paint19_linear" x1="2569.31" y1="2399.61" x2="721.844" y2="3308.48" gradientUnits="userSpaceOnUse"><stop offset="0" stop-color="#9EE7FF"/><stop offset=".144" stop-color="#8CDBFF" stop-opacity=".879"/><stop offset=".461" stop-color="#5EBDFF" stop-opacity=".571"/><stop offset=".924" stop-color="#168CFF" stop-opacity=".083"/><stop offset="1" stop-color="#0A84FF" stop-opacity="0"/></linearGradient><linearGradient id="paint20_linear" x1="2496.57" y1="914.595" x2="1249.05" y2="2455.63" gradientUnits="userSpaceOnUse"><stop offset="0" stop-color="#00FEFF"/><stop offset=".144" stop-color="#01EFFF" stop-opacity=".879"/><stop offset=".461" stop-color="#04CAFF" stop-opacity=".571"/><stop offset=".924" stop-color="#098EFF" stop-opacity=".083"/><stop offset="1" stop-color="#0A84FF" stop-opacity="0"/></linearGradient><linearGradient id="paint21_linear" x1="285.2" y1="297.247" x2="234.383" y2="596.505" gradientUnits="userSpaceOnUse"><stop offset="0" stop-color="#00FEFF"/><stop offset=".144" stop-color="#01EFFF" stop-opacity=".879"/><stop offset=".461" stop-color="#04CAFF" stop-opacity=".571"/><stop offset=".924" stop-color="#098EFF" stop-opacity=".083"/><stop offset="1" stop-color="#0A84FF" stop-opacity="0"/></linearGradient><linearGradient id="paint22_linear" x1="563.721" y1="1106.79" x2="261.327" y2="1504.53" gradientUnits="userSpaceOnUse"><stop offset="0" stop-color="#00FEFF"/><stop offset=".144" stop-color="#01EFFF" stop-opacity=".879"/><stop offset=".461" stop-color="#04CAFF" stop-opacity=".571"/><stop offset=".924" stop-color="#098EFF" stop-opacity=".083"/><stop offset="1" stop-color="#0A84FF" stop-opacity="0"/></linearGradient></defs></svg>