<svg xmlns="http://www.w3.org/2000/svg" xmlns:xlink="http://www.w3.org/1999/xlink" width="16" height="16" viewBox="0 0 16 16"><rect id="frame" width="16" height="16" fill="none"/><defs><linearGradient id="a" x1="50%" x2="50%" y1="0%" y2="100%"><stop offset="0%" stop-color="#ABABAB"/><stop offset="100%" stop-color="#3E3E3E"/></linearGradient><linearGradient id="b" x1="50%" x2="50%" y1="0%" y2="100%"><stop offset="0%" stop-color="#CACACC"/><stop offset="100%" stop-color="#6D6F79"/></linearGradient><radialGradient id="c" cy="48.197%" r="59.046%" fx="50%" fy="48.197%" gradientTransform="matrix(0 .87734 -.99871 0 .981 .043)"><stop offset="0%" stop-color="#5B6376"/><stop offset="100%" stop-color="#181C21"/></radialGradient><path id="d" d="M7.5 2.289l4.196 2.422a1 1 0 0 1 .5.866v4.846a1 1 0 0 1-.5.866L7.5 13.71a1 1 0 0 1-1 0L2.304 11.29a1 1 0 0 1-.5-.866V5.577a1 1 0 0 1 .5-.866L6.5 2.29a1 1 0 0 1 1 0z"/><filter id="e" width="138.5%" height="133.8%" x="-19.2%" y="-16.9%" filterUnits="objectBoundingBox"><feGaussianBlur in="SourceAlpha" result="shadowBlurInner1" stdDeviation="1.5"/><feOffset dy="1" in="shadowBlurInner1" result="shadowOffsetInner1"/><feComposite in="shadowOffsetInner1" in2="SourceAlpha" k2="-1" k3="1" operator="arithmetic" result="shadowInnerInner1"/><feColorMatrix in="shadowInnerInner1" values="0 0 0 0 0 0 0 0 0 0 0 0 0 0 0 0 0 0 0.5 0"/></filter><linearGradient id="f" x1="50%" x2="50%" y1="0%" y2="100%"><stop offset="0%" stop-color="#676767" stop-opacity=".387"/><stop offset="100%" stop-opacity=".387"/></linearGradient><filter id="g" width="100%" height="100%" x="0%" y="0%" filterUnits="objectBoundingBox"><feGaussianBlur in="SourceGraphic"/></filter><path id="h" d="M.729.922l.729 4.986H0z"/><path id="j" d="M.729.922l.729 4.986H0z"/></defs><g fill="none" fill-rule="evenodd"><path fill="url(#a)" fill-rule="nonzero" d="M7.465 1.07l5.279 3.047a1 1 0 0 1 .5.866v6.095a1 1 0 0 1-.5.866l-5.279 3.048a1 1 0 0 1-1 0l-5.278-3.048a1 1 0 0 1-.5-.866V4.983a1 1 0 0 1 .5-.866L6.465 1.07a1 1 0 0 1 1 0z" transform="translate(1)"/><path fill="url(#b)" fill-rule="nonzero" d="M7.5 1.289l5.062 2.922a1 1 0 0 1 .5.866v5.846a1 1 0 0 1-.5.866L7.5 14.71a1 1 0 0 1-1 0L1.438 11.79a1 1 0 0 1-.5-.866V5.077a1 1 0 0 1 .5-.866L6.5 1.29a1 1 0 0 1 1 0z" transform="translate(1)"/><g fill-rule="nonzero" transform="translate(1)"><use fill="url(#c)" xlink:href="#d"/><use fill="#000" filter="url(#e)" xlink:href="#d"/></g><path fill="url(#f)" d="M2.518 5.955l-.662 5.114-.662-5.114L1.856.84l.662 5.115z" filter="url(#g)" transform="rotate(60 3.003 12.389)"/><g transform="rotate(60 2.503 13.255)"><mask id="i" fill="#fff"><use xlink:href="#h"/></mask><use fill="#0082FE" xlink:href="#h"/><path fill="#000" fill-opacity=".25" mask="url(#i)" opacity=".83" style="mix-blend-mode:multiply" d="M.729.664h2.662v10.229H.729z"/></g><g transform="rotate(-120 4.97 4.882)"><mask id="k" fill="#fff"><use xlink:href="#j"/></mask><use fill="#DCDCDC" xlink:href="#j"/><path fill="#000" fill-opacity=".25" mask="url(#k)" opacity=".83" style="mix-blend-mode:multiply" d="M-1.937-2.206H.725V8.023h-2.662z"/></g></g></svg>