<svg width="32" height="32" viewBox="0 0 32 32" fill="none" xmlns="http://www.w3.org/2000/svg">
<path d="M19.3565 5.06087L6.45217 0L0 20.8L5.63478 32L11.2174 21.0609L19.3565 5.06087Z" fill="url(#paint0_linear)"/>
<path d="M5.63478 32H21.3391L14.5913 19.5304L0 20.8L5.63478 32Z" fill="url(#paint1_linear)"/>
<path d="M9.06087 23.1305L21.3391 32L25.3565 21.1305L11.7913 7.8783L0 9.8783L9.06087 23.1305Z" fill="url(#paint2_linear)"/>
<path d="M19.774 0L9.94794 9.84348L22.7305 22.9043L32.0001 16.3826V4.31304L19.774 0Z" fill="url(#paint3_linear)"/>
<path d="M26 6H6V26H26V6Z" fill="url(#paint4_linear)"/>
<path d="M16 23H8V24H16V23Z" fill="white"/>
<path d="M8 8H10.9709C13.3704 8 15.0844 9.71397 15.0844 11.885C15.0844 14.056 13.3704 15.77 10.9709 15.77H8V8ZM9.71397 9.71397V14.2846H11.0851C12.4563 14.2846 13.3704 13.3704 13.3704 11.9993C13.3704 10.6281 12.4563 9.71397 11.0851 9.71397H9.71397Z" fill="white"/>
<path d="M16 8H21.8593V9.52852H17.6559V11.1844H21.3498V12.713H17.6559V15.77H16V8Z" fill="white"/>
<defs>
<linearGradient id="paint0_linear" x1="5.45746" y1="24.1445" x2="11.6927" y2="6.05191" gradientUnits="userSpaceOnUse">
<stop offset="0.1054" stop-color="#AF1DF5"/>
<stop offset="0.8768" stop-color="#087CFA"/>
</linearGradient>
<linearGradient id="paint1_linear" x1="1.41417" y1="26.9591" x2="54.994" y2="23.0877" gradientUnits="userSpaceOnUse">
<stop offset="0.033675" stop-color="#AF1DF5"/>
<stop offset="0.8682" stop-color="#E86656"/>
<stop offset="0.989" stop-color="#FC801D"/>
</linearGradient>
<linearGradient id="paint2_linear" x1="31.6159" y1="37.9089" x2="-5.37486" y2="-2.60041" gradientUnits="userSpaceOnUse">
<stop offset="0.0209183" stop-color="#AF1DF5"/>
<stop offset="0.989" stop-color="#FC801D"/>
</linearGradient>
<linearGradient id="paint3_linear" x1="6.1663" y1="25.8681" x2="30.8494" y2="3.74278" gradientUnits="userSpaceOnUse">
<stop offset="0.1425" stop-color="#AF1DF5"/>
<stop offset="0.9112" stop-color="#FC801D"/>
</linearGradient>
<linearGradient id="paint4_linear" x1="15.9733" y1="1.139" x2="15.9733" y2="19.075" gradientUnits="userSpaceOnUse">
<stop offset="0.0842986" stop-color="#878585"/>
<stop offset="0.5377"/>
</linearGradient>
</defs>
    <path fill-rule="evenodd" clip-rule="evenodd" d="M14 32H32V22H14V32Z" fill="#D99E2B"/>
    <path fill-rule="evenodd" clip-rule="evenodd" d="M16 30H19.75V29.0505H16.9V27.45H19.4V26.5H16.9V24.95H19.7V24H16V30Z" fill="black"/>
    <path fill-rule="evenodd" clip-rule="evenodd" d="M22.3999 27.65L23.2999 25.25L24.2499 27.65H22.3999ZM20.5 30H21.45L22 28.5505H24.55L25.0995 30H26.0995L23.75 24H22.8495L20.5 30Z" fill="black"/>
    <path fill-rule="evenodd" clip-rule="evenodd" d="M27.407 27.1002V24.9502H28.2995C28.9845 24.9502 29.2995 25.3002 29.35 25.8502V26.0502C29.35 26.6442 29.0225 27.1002 28.45 27.1002H27.407ZM27.407 30V28.05H28.25C29.3955 28.071 30.2555 27.174 30.2555 26.152V25.902C30.2555 24.7925 29.4675 24 28.44 24H26.5V30H27.407Z" fill="black"/>
</svg>