<svg ti:v="1" width="16" height="16" viewBox="0 0 16 16" xmlns="http://www.w3.org/2000/svg" xmlns:ti="urn:schemas-jetbrains-com:tisvg"><rect id="frame" width="16" height="16" fill="none"/><g fill-rule="evenodd"><path d="M1 16V5c0-2.757 2.243-5 5-5h9v16H1z" fill="#242424"/><path d="M6 1a4 4 0 0 0-4 4v10h12V1H6z" fill="#C4C4C4"/><path d="M3 14V5c0-1.654 1.346-3 3-3h7v12H3z" fill="#282828"/><path d="M8.889 4H7.112L4 10.223 4.889 12h6.223L12 10.223 8.889 4z" fill="#C4C4C4"/><path d="M5.507 11l-.39-.777L7.73 5h.54l2.612 5.223-.39.777H5.508z" fill="#282828"/><path d="M8.536 9.5H7.464v1h1.072m0-1.5H7.464V6.5h1.072V9z" fill="#C4C4C4"/></g></svg>