<svg ti:v="1" width="16" height="16" viewBox="0 0 16 16" xmlns="http://www.w3.org/2000/svg" xmlns:ti="urn:schemas-jetbrains-com:tisvg"><rect id="frame" width="16" height="16" fill="none"/><linearGradient id="a" x1=".5" y1=".016" x2=".5" y2="1.008"><stop offset="0" stop-color="#566980"/><stop offset="1" stop-color="#2C3641"/></linearGradient><path fill-rule="evenodd" d="M0 16h11V8H0v8z" fill="url(#a)"/><linearGradient id="b" x1=".5" y1=".021" x2=".5" y2="1.021"><stop offset="0" stop-color="#E0EFFF"/><stop offset="1" stop-color="#A6B1BD"/></linearGradient><path fill-rule="evenodd" d="M10 9v6H1V9h1v5h7V9h1z" fill="url(#b)"/><linearGradient id="c" x1=".5" y1=".016" x2=".5" y2="1.008"><stop offset="0" stop-color="#2C3641"/><stop offset="1" stop-color="#566980"/></linearGradient><path fill-rule="evenodd" d="M9 14H2V9h7v5z" fill="url(#c)"/><linearGradient id="d" x1=".5" y1=".021" x2=".5" y2="1"><stop offset="0" stop-color="#F6E468"/><stop offset="1" stop-color="#EFD205"/></linearGradient><path fill-rule="evenodd" d="M4 13h1v-1H4m3 0H6v1h1m-1-3H5v1h1m2-1H7v1h1m-4 0H3v-1h1v1z" fill="url(#d)"/><linearGradient id="e" x1=".5" y1="0" x2=".5" y2="1"><stop offset="0" stop-color="#7C6A2F"/><stop offset="1" stop-color="#575813"/></linearGradient><path fill-rule="evenodd" d="M11.581 5L14.5 1.351V0H8.841L5.5 7.795V9h1.882l-2 4h3.032L15 6.414V5h-3.419z" fill="url(#e)"/><linearGradient id="f" x1=".5" y1="0" x2=".5" y2="1"><stop offset="0" stop-color="#FFDA60"/><stop offset="1" stop-color="#FBFF37"/></linearGradient><path fill-rule="evenodd" d="M13.5 1h-4l-3 7H9l-2 4h1l6-6H9.5l4-5z" fill="url(#f)"/></svg>