<svg ti:v="1" width="16" height="16" viewBox="0 0 16 16" xmlns="http://www.w3.org/2000/svg" xmlns:ti="urn:schemas-jetbrains-com:tisvg"><rect id="frame" width="16" height="16" fill="none"/><linearGradient id="a" x1=".5" y1=".012" x2=".5" y2="1"><stop offset="0" stop-color="#566980"/><stop offset="1" stop-color="#2C3641"/></linearGradient><path fill-rule="evenodd" d="M1 8c0 3.865 3.135 7 7 7s7-3.135 7-7-3.135-7-7-7-7 3.135-7 7z" fill="url(#a)"/><linearGradient id="b" x1=".5" y1=".028" x2=".5" y2="1"><stop offset="0" stop-color="#A6B1BD"/><stop offset="1" stop-color="#E0EFFF"/></linearGradient><path fill-rule="evenodd" d="M2 8a6 6 0 1 0 12 0A6 6 0 0 0 2 8z" fill="url(#b)"/><path fill-rule="evenodd" d="M6.637 11L5 8h1.637l.545 1 2.182-4H11l-3.272 6H6.637z" fill="#414F5F"/></svg>