<svg ti:v="1" width="16" height="16" viewBox="0 0 16 16" xmlns="http://www.w3.org/2000/svg" xmlns:ti="urn:schemas-jetbrains-com:tisvg"><rect id="frame" width="16" height="16" fill="none"/><g fill-rule="evenodd"><path d="M5 13h11V4H5v9z" fill="#F4F4F4"/><path d="M15 5v7H6V5h1v6h7V5h1z" fill="#313131"/><path d="M14 11H7V5h7v6z" fill="#EBEBEB"/><path d="M7 5.066V1.381l2 1V0h3v2.381l2-1v3.685l-3.5 2.1-3.5-2.1z" fill="#F4F4F4"/><path d="M11 4V1h-1v3L8 3v1.5L10.5 6 13 4.5V3l-2 1z" fill="#313131"/><path d="M9 10h1V9H9m3 0h-1v1h1m-1-3h-1v1h1m2-1h-1v1h1M9 7H8v1h1V7z" fill="#313131"/><path d="M3.801 16c-2.203-.447-3.8-2.43-3.8-4.688C0 10.486.214 9.693.604 9H0V8l1.5-2h4.7C8.4 6.447 10 8.43 10 10.687A4.7 4.7 0 0 1 9.394 13H10v.937L8.5 16H3.801z" fill="#F4F4F4"/><path d="M7.5 15l1-1H6.98A3.735 3.735 0 0 0 9 10.687 3.764 3.764 0 0 0 6 7v1a2.562 2.562 0 0 1 0 5v-1.5l-1 1V15m0-8v2.5l-1 1V9a2.564 2.564 0 0 0 0 5v1a3.764 3.764 0 0 1-3-3.688C1 9.868 1.823 8.627 3.019 8H1.5l1-1H5z" fill="#313131"/></g></svg>