<svg ti:v="1" width="16" height="16" viewBox="0 0 16 16" xmlns="http://www.w3.org/2000/svg" xmlns:ti="urn:schemas-jetbrains-com:tisvg"><rect id="frame" width="16" height="16" fill="none"/><linearGradient id="a" x1=".5" y1="-.009" x2=".5" y2="1"><stop offset="0" stop-color="#566980"/><stop offset="1" stop-color="#2C3641"/></linearGradient><path fill-rule="evenodd" d="M5 13h11V4H5v9z" fill="url(#a)"/><linearGradient id="b" x1=".5" y1=".012" x2=".5" y2="1.012"><stop offset="0" stop-color="#E0EFFF"/><stop offset="1" stop-color="#A6B1BD"/></linearGradient><path fill-rule="evenodd" d="M14 5v6H7V5H6v7h9V5h-1z" fill="url(#b)"/><linearGradient id="c" x1=".5" y1="-.009" x2=".5" y2="1"><stop offset="0" stop-color="#2C3641"/><stop offset="1" stop-color="#566980"/></linearGradient><path fill-rule="evenodd" d="M7 11h7V5H7v6z" fill="url(#c)"/><linearGradient id="d" x1=".5" y1=".017" x2=".5" y2="1.004"><stop offset="0" stop-color="#5572A1"/><stop offset="1" stop-color="#405980"/></linearGradient><path fill-rule="evenodd" d="M9 0v2.382l-2-1v3.685l3.5 2.099L14 5.067V1.382l-2 1V0H9z" fill="url(#d)"/><linearGradient id="e" x1=".5" y1=".017" x2=".5" y2="1.018"><stop offset="0" stop-color="#6FC3FF"/><stop offset="1" stop-color="#8CE8FF"/></linearGradient><path fill-rule="evenodd" d="M10 1v3L8 3v1.5L10.5 6 13 4.5V3l-2 1V1h-1z" fill="url(#e)"/><linearGradient id="f" x1=".5" y1=".028" x2=".5" y2="1.056"><stop offset="0" stop-color="#F6E468"/><stop offset="1" stop-color="#EFD205"/></linearGradient><path fill-rule="evenodd" d="M12 8h1V7h-1m-2 1h1V7h-1M8 8h1.001V7H8m3 3h1V9h-1m-2 1h1V9H9v1z" fill="url(#f)"/><linearGradient id="g" x1=".5" y1=".008" x2=".5" y2="1.015"><stop offset="0" stop-color="#8C0900"/><stop offset="1" stop-color="#C70000"/></linearGradient><path fill-rule="evenodd" d="M11 5L6 8 4.814 6c-.239-.237-.604-1-1.316-1-.587 0-1.138.241-1.55.675C1.163 6.494.782 7.14 1.829 8L4 10l-2.905 2.109c-.421.444-1.094.903-1.095 1.533a2.422 2.422 0 0 0 .656 1.672c.421.443.98.686 1.574.686.593 0 1.152-.586 1.547-1L6 12l4 4h3l-5-6 5-5h-2z" fill="url(#g)"/><linearGradient id="h" x1=".5" y1=".009" x2=".5" y2=".99"><stop offset="0" stop-color="#FFA98F"/><stop offset="1" stop-color="red"/></linearGradient><path fill-rule="evenodd" d="M10.437 6L6 9 3.96 6.282c-.346-.395-1.047-.342-1.386 0a.995.995 0 0 0 0 1.406L5 10l-3.813 3.309a.99.99 0 0 0 0 1.404c.387.39.998.39 1.387 0L6 11l4.5 4h.5l-4-5 4-4h-.563z" fill="url(#h)"/></svg>