<svg ti:v="1" width="16" height="16" viewBox="0 0 16 16" xmlns="http://www.w3.org/2000/svg" xmlns:ti="urn:schemas-jetbrains-com:tisvg"><rect id="frame" width="16" height="16" fill="none"/><g fill-rule="evenodd"><path d="M0 16h11V8H0v8z" fill="#F4F4F4"/><path d="M10 9v6H1V9h1v5h7V9h1z" fill="#313131"/><path d="M9 14H2V9h7v5z" fill="#EBEBEB"/><path d="M4 13h1v-1H4m3 0H6v1h1m-1-3H5v1h1m2-1H7v1h1m-4 0H3v-1h1v1z" fill="#313131"/><path d="M11.58 5l2.92-3.649V0H8.84L5.5 7.795V9h1.882l-2 4h3.032L15 6.414V5h-3.42z" fill="#F4F4F4"/><path d="M13.5 1h-4l-3 7H9l-2 4h1l6-6H9.5l4-5z" fill="#C27C19"/></g></svg>