<svg ti:v="1" width="16" height="16" viewBox="0 0 16 16" xmlns="http://www.w3.org/2000/svg" xmlns:ti="urn:schemas-jetbrains-com:tisvg"><rect id="frame" width="16" height="16" fill="none"/><g fill-rule="evenodd"><path d="M16 6.5L7.333 0H6v14h1.333L16 7.5v-1z" fill="#242424"/><path d="M7 1v12l8-6-8-6z" fill="#8DCF8D"/><path d="M0 16h11V8H0v8z" fill="#242424"/><path d="M10 9v6H1V9h1v3h7V9h1z" fill="#C4C4C4"/><path d="M9 12H2V9h7v3z" fill="#282828"/><path d="M7 11h1v-1H7m-2 1h1v-1H5m-2 1h1v-1H3v1z" fill="#C4C4C4"/><path d="M6 14h1v-1H6v1z" fill="#282828"/><path d="M4 14h1v-1H4v1z" fill="#282828"/></g></svg>