<svg ti:v="1" width="16" height="16" viewBox="0 0 16 16" xmlns="http://www.w3.org/2000/svg" xmlns:ti="urn:schemas-jetbrains-com:tisvg"><rect id="frame" width="16" height="16" fill="none"/><g fill-rule="evenodd"><path d="M0 16h16V5H0v11z" fill="#242424"/><path d="M14 11H2V6h12v5z" fill="#282828"/><path d="M7 10h2V8H7m4 2h2V8h-2m-6 2H3V8h2v2z" fill="#C4C4C4"/><path d="M15 6v9H1V6h1v5h12V6h1z" fill="#C4C4C4"/><path d="M7 12H5v2h2m4 0H9v-2h2v2z" fill="#282828"/><path d="M10 0H6v2.612l-3-1V4.5L7.667 8h.666L13 4.5V1.612l-3 1V0z" fill="#242424"/><path d="M8 7L4 4V3l3 1V0h2v4l3-1v1L8 7z" fill="#C4C4C4"/></g></svg>