<svg ti:v="1" width="16" height="16" viewBox="0 0 16 16" xmlns="http://www.w3.org/2000/svg" xmlns:ti="urn:schemas-jetbrains-com:tisvg"><rect id="frame" width="16" height="16" fill="none"/><linearGradient id="a" x1=".5" y1="0" x2=".5" y2="1"><stop offset="0" stop-color="#566980"/><stop offset="1" stop-color="#2C3641"/></linearGradient><path fill-rule="evenodd" d="M6 0C3.243 0 1 2.243 1 5v11h14V0H6z" fill="url(#a)"/><path fill-rule="evenodd" d="M6 1a4 4 0 0 0-4 4v10h12V1H6z" fill="#FFF"/><linearGradient id="b" x1=".5" y1=".013" x2=".5" y2="1.013"><stop offset="0" stop-color="#A6B1BD"/><stop offset="1" stop-color="#E0EFFF"/></linearGradient><path fill-rule="evenodd" d="M6 2C4.346 2 3 3.346 3 5v9h10V2H6z" fill="url(#b)"/><path fill-rule="evenodd" d="M12 8a4 4 0 1 1-8 0 4 4 0 0 1 8 0z" fill="#414F5F"/><path fill-rule="evenodd" d="M11 8a3 3 0 1 1-6 0 3 3 0 0 1 6 0z" fill="#C2D8EB"/><path fill-rule="evenodd" d="M9 9H7v1h2m0-1.5H7V6h2v2.5z" fill="#414F5F"/></svg>