<svg ti:v="1" width="16" height="16" viewBox="0 0 16 16" xmlns="http://www.w3.org/2000/svg" xmlns:ti="urn:schemas-jetbrains-com:tisvg"><rect id="frame" width="16" height="16" fill="none"/><linearGradient id="a" x1=".5" y1=".021" x2=".5" y2="1.015"><stop offset="0" stop-color="#566980"/><stop offset="1" stop-color="#2C3641"/></linearGradient><path fill-rule="evenodd" d="M5 13h11V4H5v9z" fill="url(#a)"/><linearGradient id="b" x1=".5" y1=".009" x2=".5" y2="1.02"><stop offset="0" stop-color="#E0EFFF"/><stop offset="1" stop-color="#A6B1BD"/></linearGradient><path fill-rule="evenodd" d="M15 5v7H6V5h1v6h7V5h1z" fill="url(#b)"/><linearGradient id="c" x1=".5" y1=".021" x2=".5" y2="1.015"><stop offset="0" stop-color="#2C3641"/><stop offset="1" stop-color="#566980"/></linearGradient><path fill-rule="evenodd" d="M14 11H7V5h7v6z" fill="url(#c)"/><linearGradient id="d" x1=".5" y1=".017" x2=".5" y2=".997"><stop offset="0" stop-color="#5572A1"/><stop offset="1" stop-color="#405980"/></linearGradient><path fill-rule="evenodd" d="M7 5.066V1.382l2 1V0h3v2.382l2-1v3.684l-3.5 2.1-3.5-2.1z" fill="url(#d)"/><linearGradient id="e" x1=".5" y1="0" x2=".5" y2="1.005"><stop offset="0" stop-color="#6FC3FF"/><stop offset="1" stop-color="#8CE8FF"/></linearGradient><path fill-rule="evenodd" d="M11 4V1h-1v3L8 3v1.5L10.5 6 13 4.5V3l-2 1z" fill="url(#e)"/><linearGradient id="f" x1=".5" y1=".021" x2=".5" y2="1.043"><stop offset="0" stop-color="#F6E468"/><stop offset="1" stop-color="#EFD205"/></linearGradient><path fill-rule="evenodd" d="M9 10h1V9H9m3 0h-1v1h1m-1-3h-1v1h1m2-1h-1v1h1M9 7H8v1h1V7z" fill="url(#f)"/><linearGradient id="g" x1=".5" y1=".021" x2=".5" y2="1"><stop offset="0" stop-color="#455A5D"/><stop offset="1" stop-color="#1A7485"/></linearGradient><path fill-rule="evenodd" d="M2.664 4A4.024 4.024 0 0 0 0 7.778c0 1.44.781 2.757 2 3.466v2.746C2 15.098 2.897 16 4 16s2-.902 2-2.01v-2.746c1.219-.71 2-2.026 2-3.466C8 6.088 6.93 4.572 5.336 4H2.664z" fill="url(#g)"/><linearGradient id="h" x1=".5" y1=".024" x2=".5" y2="1.003"><stop offset="0" stop-color="#BFFFE6"/><stop offset="1" stop-color="#A8D8E0"/></linearGradient><path fill-rule="evenodd" d="M5 8H3V5a2.992 2.992 0 0 0-2 2.816c0 1.304.837 2.403 2 2.817V14a1 1 0 1 0 2 0v-3.367a2.993 2.993 0 0 0 2-2.817A2.992 2.992 0 0 0 5 5v3z" fill="url(#h)"/></svg>