<svg ti:v="1" width="16" height="16" viewBox="0 0 16 16" xmlns="http://www.w3.org/2000/svg" xmlns:ti="urn:schemas-jetbrains-com:tisvg"><rect id="frame" width="16" height="16" fill="none"/><path fill-rule="evenodd" d="M10 1.923L5.191 0H4v6h1.191L10 4.077V1.923z" fill="#637A63"/><path fill-rule="evenodd" d="M10 3L5 1v4l5-2z" fill="#00FF83"/><linearGradient id="a" x1=".5" y1=".008" x2=".5" y2="1"><stop offset="0" stop-color="#5C4D91"/><stop offset="1" stop-color="#282B51"/></linearGradient><path fill-rule="evenodd" d="M8 15V7l2-3.303V1h4v2.697L16 7v8H8z" fill="url(#a)"/><path fill-rule="evenodd" d="M11 3h2V2h-2v1z" fill="#FFF"/><linearGradient id="b" x1="0" y1=".5" x2="1" y2=".5"><stop offset="0" stop-color="#6FF3FF"/><stop offset="1" stop-color="#3281FF"/></linearGradient><path fill-rule="evenodd" d="M13 4h-2L9 7h6m0 7H9V8h6v6z" fill="url(#b)"/><linearGradient id="c" x1=".5" y1=".016" x2=".5" y2="1.008"><stop offset="0" stop-color="#566980"/><stop offset="1" stop-color="#2C3641"/></linearGradient><path fill-rule="evenodd" d="M0 16h11V8H0v8z" fill="url(#c)"/><linearGradient id="d" x1=".5" y1=".021" x2=".5" y2="1.021"><stop offset="0" stop-color="#E0EFFF"/><stop offset="1" stop-color="#A6B1BD"/></linearGradient><path fill-rule="evenodd" d="M10 9v6H1V9h1v3h7V9h1z" fill="url(#d)"/><linearGradient id="e" x1=".5" y1=".016" x2=".5" y2="1.008"><stop offset="0" stop-color="#2C3641"/><stop offset="1" stop-color="#566980"/></linearGradient><path fill-rule="evenodd" d="M9 12H2V9h7v3z" fill="url(#e)"/><linearGradient id="f" x1=".5" y1=".021" x2=".5" y2="1"><stop offset="0" stop-color="#F6E468"/><stop offset="1" stop-color="#EFD205"/></linearGradient><path fill-rule="evenodd" d="M7 11h1v-1H7m-2 1h1v-1H5m-2 1h1v-1H3v1z" fill="url(#f)"/><path fill-rule="evenodd" d="M6 14h1v-1.001H6M4 14h1v-1.001H4V14z" fill="#333E4A"/></svg>