<svg ti:v="1" width="16" height="16" viewBox="0 0 16 16" xmlns="http://www.w3.org/2000/svg" xmlns:ti="urn:schemas-jetbrains-com:tisvg"><rect id="frame" width="16" height="16" fill="none"/><g fill-rule="evenodd"><path d="M16 6.5L7.333 0H6v14h1.333L16 7.5v-1z" fill="#F4F4F4"/><path d="M7 1v12l8-6-8-6z" fill="#378A33"/><path d="M9 5v4l3-2-3-2z" fill="#EBEBEB"/><path d="M2 3v3H1v3h1v3h4V3H2z" fill="#F4F4F4"/><path d="M6 10H3v1h3m0-7H3v1h3M5 8H2V7h3v1z" fill="#313131"/><path d="M0 16h11V8H0v8z" fill="#F4F4F4"/><path d="M10 9v6H1V9h1v5h7V9h1z" fill="#313131"/><path d="M9 14H2V9h7v5z" fill="#EBEBEB"/><path d="M4 13h1v-1H4m3 0H6v1h1m-1-3H5v1h1m2-1H7v1h1m-4 0H3v-1h1v1z" fill="#313131"/></g></svg>