<svg ti:v="1" width="16" height="16" viewBox="0 0 16 16" xmlns="http://www.w3.org/2000/svg" xmlns:ti="urn:schemas-jetbrains-com:tisvg"><rect id="frame" width="16" height="16" fill="none"/><linearGradient id="a" x1=".5" y1="-.009" x2=".5" y2="1"><stop offset="0" stop-color="#566980"/><stop offset="1" stop-color="#2C3641"/></linearGradient><path fill-rule="evenodd" d="M5 13h11V4H5v9z" fill="url(#a)"/><linearGradient id="b" x1=".5" y1=".012" x2=".5" y2="1.012"><stop offset="0" stop-color="#E0EFFF"/><stop offset="1" stop-color="#A6B1BD"/></linearGradient><path fill-rule="evenodd" d="M14 5v4H7V5H6v7h9V5h-1z" fill="url(#b)"/><linearGradient id="c" x1=".5" y1="-.009" x2=".5" y2="1"><stop offset="0" stop-color="#2C3641"/><stop offset="1" stop-color="#566980"/></linearGradient><path fill-rule="evenodd" d="M7 9h7V5H7v4z" fill="url(#c)"/><linearGradient id="d" x1=".5" y1=".017" x2=".5" y2="1.004"><stop offset="0" stop-color="#5572A1"/><stop offset="1" stop-color="#405980"/></linearGradient><path fill-rule="evenodd" d="M9 0v2.382l-2-1v3.685l3.5 2.099L14 5.067V1.382l-2 1V0H9z" fill="url(#d)"/><linearGradient id="e" x1=".5" y1=".017" x2=".5" y2="1.018"><stop offset="0" stop-color="#6FC3FF"/><stop offset="1" stop-color="#8CE8FF"/></linearGradient><path fill-rule="evenodd" d="M10 1v3L8 3v1.5L10.5 6 13 4.5V3l-2 1V1h-1z" fill="url(#e)"/><linearGradient id="f" x1=".5" y1=".027" x2=".5" y2="1.055"><stop offset="0" stop-color="#F6E468"/><stop offset="1" stop-color="#EFD205"/></linearGradient><path fill-rule="evenodd" d="M12 8h1V7h-1m-2 1h1V7h-1M8 8h1.001V7H8v1z" fill="url(#f)"/><path fill-rule="evenodd" d="M9 11h1v-1H9m3 0h-1v1h1v-1z" fill="#323D49"/><linearGradient id="g" x1=".5" y1=".004" x2=".5" y2="1.004"><stop offset="0" stop-color="#006F33"/><stop offset="1" stop-color="#37AD0D"/></linearGradient><path fill-rule="evenodd" d="M1.5 6L0 8v1h.605A4.713 4.713 0 0 0 0 11.313C0 13.57 1.599 15.553 3.801 16H8.5l1.5-2.063V13h-.605c.39-.694.605-1.487.605-2.313C10 8.43 8.401 6.447 6.2 6H1.5z" fill="url(#g)"/><linearGradient id="h" x1=".5" y1=".01" x2=".5" y2="1.01"><stop offset="0" stop-color="#E1FFD6"/><stop offset="1" stop-color="#62F2A5"/></linearGradient><path fill-rule="evenodd" d="M6 8a2.564 2.564 0 0 1 0 5v-1.5l-1 1V15h2.5l1-1H6.981A3.736 3.736 0 0 0 9 10.687 3.763 3.763 0 0 0 6 7M2.5 7l-1 1h1.519A3.738 3.738 0 0 0 1 11.313 3.763 3.763 0 0 0 4 15v-1a2.562 2.562 0 0 1-2-2.5c0-1.222.855-2.241 2-2.5v1.5l1-1V7H2.5z" fill="url(#h)"/></svg>