<svg ti:v="1" width="16" height="16" viewBox="0 0 16 16" xmlns="http://www.w3.org/2000/svg" xmlns:ti="urn:schemas-jetbrains-com:tisvg"><rect id="frame" width="16" height="16" fill="none"/><g fill-rule="evenodd"><path d="M5 13h11V4H5v9z" fill="#F4F4F4"/><path d="M15 5v7H6V5h1v6h7V5h1z" fill="#313131"/><path d="M14 11H7V5h7v6z" fill="#EBEBEB"/><path d="M7 5.066V1.381l2 1V.001h3v2.38l2-1v3.685l-3.5 2.1-3.5-2.1z" fill="#F4F4F4"/><path d="M11 4V1h-1v3L8 3v1.5L10.5 6 13 4.5V3l-2 1z" fill="#313131"/><path d="M9 10h1V9H9m3 0h-1v1h1m-1-3h-1v1h1m2-1h-1v1h1M9 7H8v1h1V7z" fill="#313131"/><path d="M4 16c-1.103 0-2-.902-2-2.01v-2.746a4.02 4.02 0 0 1-2-3.467A4.023 4.023 0 0 1 2.665 4h2.67A4.023 4.023 0 0 1 8 7.777a4.02 4.02 0 0 1-2 3.467v2.746C6 15.098 5.103 16 4 16z" fill="#F4F4F4"/><path d="M5 5v3H3V5a2.992 2.992 0 0 0-2 2.816c0 1.304.837 2.403 2 2.817V14a1 1 0 1 0 2 0v-3.367a2.993 2.993 0 0 0 2-2.817A2.992 2.992 0 0 0 5 5z" fill="#313131"/></g></svg>