<svg ti:v="1" width="16" height="16" viewBox="0 0 16 16" xmlns="http://www.w3.org/2000/svg" xmlns:ti="urn:schemas-jetbrains-com:tisvg"><rect id="frame" width="16" height="16" fill="none"/><g fill-rule="evenodd"><path d="M10 1.923L5.191 0H4v6h1.191L10 4.077V1.923z" fill="#F4F4F4"/><path d="M10 3L5 1v4l5-2z" fill="#313131"/><path d="M8 15V7l2-3.303V1h4v2.697L16 7v8H8z" fill="#F4F4F4"/><path d="M11 3h2.001V2H11v1z" fill="#313131"/><path d="M13 4h-2L9 7h6m0 7H9V8h6v6z" fill="#313131"/><path d="M0 16h11V8H0v8z" fill="#F4F4F4"/><path d="M10 9v6H1V9h1v3h7V9h1z" fill="#313131"/><path d="M9 12H2V9h7v3z" fill="#EBEBEB"/><path d="M7 11h1v-1H7m-2 1h1v-1H5m-2 1h1v-1H3v1z" fill="#313131"/><path d="M6 14h1v-1.001H6M4 14h1v-1.001H4V14z" fill="#EBEBEB"/></g></svg>