<svg ti:v="1" width="16" height="16" viewBox="0 0 16 16" xmlns="http://www.w3.org/2000/svg" xmlns:ti="urn:schemas-jetbrains-com:tisvg"><rect id="frame" width="16" height="16" fill="none"/><g fill-rule="evenodd"><path d="M5 13h11V4H5v9z" fill="#242424"/><path d="M15 5v7H6V5h1v6h7V5h1z" fill="#C4C4C4"/><path d="M14 11H7V5h7v6z" fill="#282828"/><path d="M7 5.066V1.381l2 1V.001h3v2.38l2-1v3.685l-3.5 2.1-3.5-2.1z" fill="#242424"/><path d="M11 4V1h-1v3L8 3v1.5L10.5 6 13 4.5V3l-2 1z" fill="#C4C4C4"/><path d="M9 10h1V9H9m3 0h-1v1h1m-1-3h-1v1h1m2-1h-1v1h1M9 7H8v1h1V7z" fill="#C4C4C4"/><path d="M10 16l-4-4-2.224 3c-.394.414-.953 1-1.547 1a2.16 2.16 0 0 1-1.574-.686A2.42 2.42 0 0 1 0 13.642c.001-.63.674-1.09 1.095-1.533L4 10 1.829 8c-1.048-.859-.666-1.506.119-2.325A2.12 2.12 0 0 1 3.498 5c.712 0 1.077.764 1.315 1L6 8l5-3h2l-5 5 5 6h-3z" fill="#242424"/><path d="M7 10l4-4h-.563L6 9 3.96 6.282c-.346-.395-1.047-.343-1.387 0a.995.995 0 0 0 0 1.405L5 10l-3.813 3.309a.99.99 0 0 0 0 1.404c.386.39.998.39 1.386 0L6 11l4.5 4h.5l-4-5z" fill="#F28365"/></g></svg>