<svg ti:v="1" width="16" height="16" viewBox="0 0 16 16" xmlns="http://www.w3.org/2000/svg" xmlns:ti="urn:schemas-jetbrains-com:tisvg"><rect id="frame" width="16" height="16" fill="none"/><g fill-rule="evenodd"><path d="M1 16V5c0-2.757 2.243-5 5-5h9v16H1z" fill="#242424"/><path d="M6 1a4 4 0 0 0-4 4v10h12V1H6z" fill="#C4C4C4"/><path d="M3 14V5c0-1.654 1.346-3 3-3h7v12H3z" fill="#282828"/><path d="M12 12H8v-1h4v1z" fill="#C4C4C4"/><path d="M4 11h1l3-3-3-3H4v.414L6.586 8 4 10.586V11z" fill="#C4C4C4"/></g></svg>