<svg ti:v="1" width="16" height="16" viewBox="0 0 16 16" xmlns="http://www.w3.org/2000/svg" xmlns:ti="urn:schemas-jetbrains-com:tisvg"><rect id="frame" width="16" height="16" fill="none"/><linearGradient id="a" x1=".5" y1="-.006" x2=".5" y2="1.011"><stop offset="0" stop-color="#566980"/><stop offset="1" stop-color="#2C3641"/></linearGradient><path fill-rule="evenodd" d="M0 16h16V5H0v11z" fill="url(#a)"/><linearGradient id="b" x1=".5" y1=".03" x2=".5" y2="1.01"><stop offset="0" stop-color="#E0EFFF"/><stop offset="1" stop-color="#A6B1BD"/></linearGradient><path fill-rule="evenodd" d="M14 6v8H2V6H1v9h14V6h-1z" fill="url(#b)"/><linearGradient id="c" x1=".5" y1=".01" x2=".5" y2="1.01"><stop offset="0" stop-color="#2C3641"/><stop offset="1" stop-color="#566980"/></linearGradient><path fill-rule="evenodd" d="M14 14H2V6h12v8z" fill="url(#c)"/><linearGradient id="d" x1=".5" y1=".017" x2=".5" y2="1"><stop offset="0" stop-color="#F6E468"/><stop offset="1" stop-color="#EFD205"/></linearGradient><path fill-rule="evenodd" d="M5 13h2v-2H5m6 0H9v2h2M9 8H7v2h2m2 0h2V8h-2M5 8H3v2h2V8z" fill="url(#d)"/><linearGradient id="e" x1=".5" y1=".012" x2=".5" y2=".995"><stop offset="0" stop-color="#5572A1"/><stop offset="1" stop-color="#405980"/></linearGradient><path fill-rule="evenodd" d="M10 0H6v2.612l-3-1V4.5L7.667 8h.666L13 4.5V1.612l-3 1V0z" fill="url(#e)"/><linearGradient id="f" x1=".5" y1=".012" x2=".5" y2=".995"><stop offset="0" stop-color="#6FC3FF"/><stop offset="1" stop-color="#8CE8FF"/></linearGradient><path fill-rule="evenodd" d="M8 7L4 4V3l3 1V0h2v4l3-1v1L8 7z" fill="url(#f)"/></svg>