<svg ti:v="1" width="16" height="16" viewBox="0 0 16 16" xmlns="http://www.w3.org/2000/svg" xmlns:ti="urn:schemas-jetbrains-com:tisvg"><rect id="frame" width="16" height="16" fill="none"/><linearGradient id="a" x1=".5" y1=".012" x2=".5" y2=".999"><stop offset="0" stop-color="#566980"/><stop offset="1" stop-color="#2C3641"/></linearGradient><path fill-rule="evenodd" d="M6 0C3.243 0 1 2.243 1 5v11h14V0H6z" fill="url(#a)"/><path fill-rule="evenodd" d="M6 1a4 4 0 0 0-4 4v10h12V1H6z" fill="#FFF"/><linearGradient id="b" x1=".5" y1=".017" x2=".5" y2="1.022"><stop offset="0" stop-color="#A6B1BD"/><stop offset="1" stop-color="#E0EFFF"/></linearGradient><path fill-rule="evenodd" d="M6 2C4.346 2 3 3.346 3 5v9h10V2H6z" fill="url(#b)"/><path fill-rule="evenodd" d="M7.994 4.393l.871 3.062 3.13-.157-2.59 1.813L10.465 12l-2.472-1.866L5.522 12l1.062-2.889-2.59-1.813 3.13.157.87-3.062z" fill="#414F5F"/></svg>