<svg xmlns="http://www.w3.org/2000/svg" xmlns:xlink="http://www.w3.org/1999/xlink" width="16" height="16" viewBox="0 0 16 16"><rect id="frame" width="16" height="16" fill="none"/><defs><circle id="a" cx="7" cy="7" r="6"/><filter id="b" width="100%" height="100%" x="0%" y="0%" filterUnits="objectBoundingBox"><feOffset in="SourceAlpha" result="shadowOffsetInner1"/><feComposite in="shadowOffsetInner1" in2="SourceAlpha" k2="-1" k3="1" operator="arithmetic" result="shadowInnerInner1"/><feColorMatrix in="shadowInnerInner1" values="0 0 0 0 0 0 0 0 0 0 0 0 0 0 0 0 0 0 0.5 0"/></filter><path id="c" d="M7 0a7.003 7.003 0 0 1 6.71 4.999l.009.03c.055.19.102.38.142.575l.023.12A6.996 6.996 0 0 1 14 7 7 7 0 0 1 0 7l.006-.293.005-.108a7.048 7.048 0 0 1 .105-.874l.023-.121a6.95 6.95 0 0 1 .151-.605C1.151 2.108 3.83 0 7 0zM3.606 6.938c-.912 0-1.578.701-1.578 1.557 0 .899.645 1.557 1.582 1.557.55 0 .976-.215 1.286-.478V8.267H3.589v.572h.666v.43c-.167.12-.382.18-.623.18-.533 0-.912-.404-.912-.954 0-.52.383-.946.864-.946.349 0 .555.112.787.305l.417-.503c-.313-.266-.64-.413-1.182-.413zm6.438.052h-.662v1.72c0 .886.495 1.337 1.303 1.337.808 0 1.32-.447 1.32-1.359V6.99h-.662v1.724c0 .478-.245.723-.65.723-.404 0-.649-.254-.649-.744V6.99zm-3.651 0h-.61V10h.653V8.086L7.894 10h.563V6.99h-.654v1.853L6.393 6.99zM.006 6.707l-.004.123v-.031l.004-.092zM7 1a6.002 6.002 0 0 0-5.658 4h11.316A6.002 6.002 0 0 0 7 1zm3 2v1H4V3h6z"/><filter id="d" width="100%" height="100%" x="0%" y="0%" filterUnits="objectBoundingBox"><feOffset in="SourceAlpha" result="shadowOffsetInner1"/><feComposite in="shadowOffsetInner1" in2="SourceAlpha" k2="-1" k3="1" operator="arithmetic" result="shadowInnerInner1"/><feColorMatrix in="shadowInnerInner1" values="0 0 0 0 0 0 0 0 0 0 0 0 0 0 0 0 0 0 0.5 0"/></filter></defs><g fill="none" fill-rule="evenodd" transform="translate(1 1)"><use fill="#FCFCFE" xlink:href="#a"/><use fill="#000" filter="url(#b)" xlink:href="#a"/><use fill="#4E4E9D" xlink:href="#c"/><use fill="#000" filter="url(#d)" xlink:href="#c"/></g></svg>