<svg xmlns="http://www.w3.org/2000/svg" width="16" height="16">
  <path fill="#252525" d="M8 4H16V12H8z"/>
  <path fill="#c4c4c4" d="M8 5H15V11H8z"/>
  <path fill="#292929" d="M12 6H14V7H12zM12 9H14V10H12z"/>
  <g>
    <path d="M6,3H5A4,4,0,0,0,1,7V9a4,4,0,0,0,4,4H6Z" fill="#252525"/>
    <path d="M6,4H5A3,3,0,0,0,2,7V9a3,3,0,0,0,3,3H6Z" fill="#c4c4c4"/>
    <path d="M6,5H5A2,2,0,0,0,3,7V9a2,2,0,0,0,2,2H6Z" fill="#c4c4c4"/>
  </g>
  <g>
    <path d="M6,3H7a4,4,0,0,1,4,4V9a4,4,0,0,1-4,4H6Z" fill="#252525"/>
    <path d="M6,4H7a3,3,0,0,1,3,3V9a3,3,0,0,1-3,3H6Z" fill="#c4c4c4"/>
    <path d="M6,5H7A2,2,0,0,1,9,7V9a2,2,0,0,1-2,2H6Z" fill="#292929"/>
  </g>
</svg>
