<svg ti:v="1" width="16" height="16" viewBox="0 0 16 16" xmlns="http://www.w3.org/2000/svg" xmlns:ti="urn:schemas-jetbrains-com:tisvg"><rect id="frame" width="16" height="16" fill="none"/><g fill-rule="evenodd"><path d="M8.5 16A4.507 4.507 0 0 1 4 11.5v-8a3.501 3.501 0 0 1 7 0v5.553A3.49 3.49 0 0 1 13.5 8H16v3h-2.5a.501.501 0 0 0-.5.5A4.507 4.507 0 0 1 8.5 16zm0 0" fill="#F4F4F4"/><path d="M5 6.013V3.5a2.5 2.5 0 0 1 5 0v1.519l-1 .198V3.5a1.5 1.5 0 0 0-3 0v2.314zM8.453 13H8.5a1.5 1.5 0 0 0 1.5-1.5v-3c-.338 0-.675-.05-1-.143V11.5a.5.5 0 0 1-1 0V7.977a3.81 3.81 0 0 1-1 .931v2.639A1.454 1.454 0 0 0 8.453 13zM13.5 9a2.5 2.5 0 0 0-2.5 2.5 2.5 2.5 0 0 1-5 0V9.358A3.69 3.69 0 0 1 5 9.5v2a3.501 3.501 0 0 0 7 0 1.5 1.5 0 0 1 1.5-1.5H15V9zm0 0" fill="#323232"/><path d="M7.75 5.75a2.75 2.75 0 1 1-5.5 0 2.75 2.75 0 0 1 5.5 0z" fill="#323232"/><path d="M12.75 4.75a2.75 2.75 0 1 1-5.5 0 2.75 2.75 0 0 1 5.5 0z" fill="#323232"/><path d="M7 6a2 2 0 1 1-4 0 2 2 0 0 1 4 0z" fill="#EBEBEB"/><path d="M6 6a1 1 0 1 1-2 0 1 1 0 0 1 2 0z" fill="#323232"/><path d="M12 5a2 2 0 1 1-4 0 2 2 0 0 1 4 0z" fill="#EBEBEB"/><path d="M11 5a1 1 0 1 1-2 0 1 1 0 0 1 2 0z" fill="#323232"/><path d="M14.259 4L0 11.371v.872L.908 14h.799L16 6.611v-.854L15.092 4h-.833z" fill="#F4F4F4"/></g></svg>