<svg xmlns="http://www.w3.org/2000/svg" width="16" height="16" viewBox="0 0 16 16"><rect id="frame" width="16" height="16" fill="none"/><g fill="none" fill-rule="evenodd"><path fill="#0B5567" d="M12.832 12.558c2.12 1.695 3.48-3.367.1-4.3-2.835-.786-5.688.56-8.547 3.703 0 0 5.28-1.931 8.447.597z"/><path fill="#15A9CE" d="M4.432 11.92c2.032-2.109 5.411-4.46 8.56-3.592a2.763 2.763 0 0 1 1.589 1.14l-2.978-6.007c-.425-.68-1.512-.538-2.126-.018l-7.869 6.592a1.619 1.619 0 0 0-.094 2.37 1.612 1.612 0 0 0 2.156.117l.762-.602z"/></g></svg>