<svg xmlns="http://www.w3.org/2000/svg" width="50" height="18" viewBox="0 0 50 18"><rect id="frame" width="50" height="18" fill="none"/><rect x="16" y="-16" width="18" height="50" rx="4" ry="4" transform="rotate(90 25 9)" fill="#f4f4f4"/><rect x="17" y="-15" width="16" height="48" rx="3" ry="3" transform="rotate(90 25 9)" fill="#393"/><rect x="33.5" y="1.5" width="14" height="15" rx="2" ry="2" transform="rotate(90 40.5 9)" fill="#ebebeb"/><path d="M11.472 13.134a3.138 3.138 0 0 1-2.525-1.122A4.359 4.359 0 0 1 8 9.1a4.637 4.637 0 0 1 .965-3.08 3.251 3.251 0 0 1 2.623-1.149 3.072 3.072 0 0 1 2.474 1.116A4.376 4.376 0 0 1 15 8.9a4.656 4.656 0 0 1-.96 3.1 3.192 3.192 0 0 1-2.568 1.134zm.055-7.1a1.957 1.957 0 0 0-1.628.82 3.458 3.458 0 0 0-.629 2.16 3.492 3.492 0 0 0 .61 2.147 1.9 1.9 0 0 0 1.6.815 1.984 1.984 0 0 0 1.652-.775 3.458 3.458 0 0 0 .606-2.171 3.624 3.624 0 0 0-.588-2.215 1.912 1.912 0 0 0-1.623-.783zM24 13h-1.5l-3.94-5.88a2.533 2.533 0 0 1-.248-.464h-.035a7.96 7.96 0 0 1 .046 1.1V13H17V5h1.594l3.811 5.74q.241.357.311.491h.023a6.779 6.779 0 0 1-.058-1.076V5H24z" fill="#ebebeb"/></svg>