<svg width="33" height="34" viewBox="0 0 33 34" fill="none" xmlns="http://www.w3.org/2000/svg">
<path d="M30.7 4.76656C30.3333 4.56656 29.8333 4.39989 29.4333 4.33323C29.1667 4.33323 12.1333 1.06656 11.2333 0.999893C10.8 0.96656 10.3333 0.999893 9.89999 1.06656C1.99998 2.23323 -1.5019e-05 11.8666 6.53332 15.8999C8.06665 16.8332 9.89998 17.1666 11.6667 16.7666C14.7667 16.0999 28.7 12.6666 29.6 12.4666C33.4667 11.6332 34.3 6.66656 30.7 4.76656Z" fill="url(#paint0_linear)"/>
<path d="M30.8667 19.5999C30.2 18.8333 18.1334 5.13327 15.5667 2.89994C15.0667 2.4666 14.4667 2.0666 13.8 1.69994C12.6 1.0666 11.2334 0.833269 9.90003 1.03327C2.7667 2.13327 0.433365 10.0999 4.8667 14.5999C5.33337 15.0999 18.6 29.8333 18.7334 29.9999C19.3334 30.7333 20.0667 31.4333 21 31.9999C22.5334 32.9666 24.4 33.2666 26.2 32.8666C32.7334 31.3999 34.8334 24.0333 30.8667 19.5999Z" fill="url(#paint1_linear)"/>
<path d="M28.3333 17.6667C28.0667 17.5333 27.8 17.4 27.5 17.3C27.2667 17.2333 9.33332 11.5667 8.93332 11.4667C8.26666 11.3 7.56666 11.2667 6.89999 11.3667C0.499989 12.3 -1.13335 20.1333 4.16665 23.4333C5.39999 24.2 21.7667 32.4 22.2 32.5667C23.4667 33.0333 24.8333 33.1333 26.1667 32.8333C33.8333 31.1667 35.4 21.3667 28.3333 17.6667Z" fill="url(#paint2_linear)"/>
<path d="M30.7 4.76657C30.1 4.43324 29.4 4.33324 28.7 4.43324C28.3333 4.4999 28 4.56657 27.6666 4.6999C26.1 5.33324 5.56663 11.6332 4.99997 11.8999C0.233299 13.9666 -0.533368 20.4999 4.16663 23.4332C5.39997 24.1999 6.89997 24.4666 8.36663 24.1332C8.9333 23.9999 9.49997 23.8332 9.96663 23.5999C12.5 22.3999 30.5333 12.1999 30.9 11.9999C33.6 10.4332 33.8333 6.43324 30.7 4.76657Z" fill="url(#paint3_linear)"/>
<path d="M27 7H7V27H27V7Z" fill="url(#paint4_linear)"/>
<path d="M17 24H9V25H17V24Z" fill="white"/>
<path d="M9.00006 9.12H12.0255C14.4666 9.12 16.1512 10.8046 16.1512 12.9706V13.005C16.1512 15.2053 14.4666 16.89 12.0255 16.89H9.00006V9.12ZM10.7191 10.6671V15.3429H12.0255C13.4351 15.3429 14.3634 14.4146 14.3634 13.0394V13.005C14.3634 11.6298 13.4351 10.6671 12.0255 10.6671H10.7191V10.6671Z" fill="white"/>
<path d="M17.4001 9.12H19.1191V15.446H22.5228V16.89H17.4001V9.12Z" fill="white"/>
<defs>
<linearGradient id="paint0_linear" x1="10.783" y1="8.91799" x2="30.2031" y2="12.7884" gradientUnits="userSpaceOnUse">
<stop offset="0.2421" stop-color="#3BEA62"/>
<stop offset="0.8566" stop-color="#FCF84A"/>
</linearGradient>
<linearGradient id="paint1_linear" x1="8.70353" y1="3.21434" x2="27.3498" y2="31.575" gradientUnits="userSpaceOnUse">
<stop offset="0.0175975" stop-color="#3BEA62"/>
<stop offset="0.786" stop-color="#087CFA"/>
</linearGradient>
<linearGradient id="paint2_linear" x1="8.44436" y1="18.9946" x2="32.0611" y2="27.5244" gradientUnits="userSpaceOnUse">
<stop offset="0.1209" stop-color="#1FAEB5"/>
<stop offset="0.9746" stop-color="#087CFA"/>
</linearGradient>
<linearGradient id="paint3_linear" x1="1.65067" y1="20.324" x2="32.1555" y2="6.80403" gradientUnits="userSpaceOnUse">
<stop offset="0.1209" stop-color="#1FAEB5"/>
<stop offset="0.8556" stop-color="#FCF84A"/>
</linearGradient>
<linearGradient id="paint4_linear" x1="16.9733" y1="2.139" x2="16.9733" y2="20.075" gradientUnits="userSpaceOnUse">
<stop offset="0.0842986" stop-color="#878585"/>
<stop offset="0.5377"/>
</linearGradient>
</defs>
</svg>
