<svg width="129" height="130" viewBox="0 0 129 130" fill="none" xmlns="http://www.w3.org/2000/svg">
<path d="M119.8 16.0666C118.333 15.2666 116.333 14.5999 114.733 14.3333C113.667 14.3333 45.5333 1.26661 41.9333 0.999939C40.2 0.866606 38.3333 0.999939 36.6 1.26661C5 5.93327 -3 44.4666 23.1333 60.5999C29.2667 64.3333 36.6 65.6666 43.6667 64.0666C56.0667 61.3999 111.8 47.6666 115.4 46.8666C130.867 43.5333 134.2 23.6666 119.8 16.0666Z" fill="url(#paint0_linear)"/>
<path d="M120.467 75.4C117.8 72.3333 69.5333 17.5333 59.2667 8.59999C57.2667 6.86665 54.8667 5.26665 52.2 3.79999C47.4 1.26665 41.9333 0.33332 36.6 1.13332C8.06667 5.53332 -1.26666 37.4 16.4667 55.4C18.3333 57.4 71.4 116.333 71.9333 117C74.3333 119.933 77.2667 122.733 81 125C87.1333 128.867 94.6 130.067 101.8 128.467C127.933 122.6 136.333 93.1333 120.467 75.4Z" fill="url(#paint1_linear)"/>
<path d="M110.333 67.6667C109.267 67.1334 108.2 66.6 107 66.2C106.067 65.9334 34.3333 43.2667 32.7333 42.8667C30.0667 42.2 27.2667 42.0667 24.6 42.4667C-0.999985 46.2 -7.53332 77.5334 13.6667 90.7334C18.6 93.8 84.0667 126.6 85.8 127.267C90.8667 129.133 96.3333 129.533 101.667 128.333C132.333 121.667 138.6 82.4667 110.333 67.6667Z" fill="url(#paint2_linear)"/>
<path d="M119.8 16.0666C117.4 14.7333 114.6 14.3333 111.8 14.7333C110.333 15 109 15.2666 107.667 15.8C101.4 18.3333 19.2667 43.5333 17 44.6C-2.06668 52.8666 -5.13335 79 13.6667 90.7333C18.6 93.8 24.6 94.8666 30.4667 93.5333C32.7333 93 35 92.3333 36.8666 91.4C47 86.6 119.133 45.8 120.6 45C131.4 38.7333 132.333 22.7333 119.8 16.0666Z" fill="url(#paint3_linear)"/>
<path d="M104 26H26V104H104V26Z" fill="url(#paint4_linear)"/>
<path d="M63.7001 90.5668H34.6667V95.3334H63.7001V90.5668Z" fill="white"/>
<path d="M66 35.53H72.4712V59.3442H85.2843V64.78H66V35.53Z" fill="white"/>
<path d="M34.67 35.53H46.0594C55.2485 35.53 61.5903 41.8718 61.5903 50.0256V50.155C61.5903 58.4382 55.2485 64.78 46.0594 64.78H34.67V35.53ZM41.1412 41.3541V58.9559H46.0594C51.3658 58.9559 54.8602 55.4614 54.8602 50.2845V50.155C54.8602 44.978 51.3658 41.3541 46.0594 41.3541H41.1412V41.3541Z" fill="white"/>
<defs>
<linearGradient id="paint0_linear" x1="40.132" y1="32.6723" x2="117.812" y2="48.1541" gradientUnits="userSpaceOnUse">
<stop offset="0.2421" stop-color="#3BEA62"/>
<stop offset="0.8566" stop-color="#FCF84A"/>
</linearGradient>
<linearGradient id="paint1_linear" x1="31.814" y1="9.85759" x2="106.399" y2="123.3" gradientUnits="userSpaceOnUse">
<stop offset="0.0175975" stop-color="#3BEA62"/>
<stop offset="0.786" stop-color="#087CFA"/>
</linearGradient>
<linearGradient id="paint2_linear" x1="30.7775" y1="72.9786" x2="125.244" y2="107.098" gradientUnits="userSpaceOnUse">
<stop offset="0.1209" stop-color="#1FAEB5"/>
<stop offset="0.9746" stop-color="#087CFA"/>
</linearGradient>
<linearGradient id="paint3_linear" x1="3.60279" y1="78.2962" x2="125.622" y2="24.2165" gradientUnits="userSpaceOnUse">
<stop offset="0.1209" stop-color="#1FAEB5"/>
<stop offset="0.8556" stop-color="#FCF84A"/>
</linearGradient>
<linearGradient id="paint4_linear" x1="64.896" y1="7.0421" x2="64.896" y2="76.9925" gradientUnits="userSpaceOnUse">
<stop offset="0.0842986" stop-color="#878585"/>
<stop offset="0.5377"/>
</linearGradient>
</defs>
</svg>
