<svg width="16" height="16" viewBox="0 0 16 16" fill="none" xmlns="http://www.w3.org/2000/svg"><rect id="frame" width="16" height="16" fill="none"/><path fill-rule="evenodd" clip-rule="evenodd" d="M2 7.175C2 3.762 4.712 1 8.063 1c3.352 0 6.164 2.808 5.925 6.658-.24 3.851-3.453 6.785-7.082 7.342v-1.768C4.115 12.677 2 10.18 2 7.175zM8 11.5a4.5 4.5 0 1 0 0-9 4.5 4.5 0 0 0 0 9z" fill="#00A817"/><path d="M7.003 5v1.886h1.164c.32 0 .568-.082.742-.246.178-.164.266-.396.266-.695 0-.295-.092-.525-.277-.692C8.715 5.083 8.464 5 8.144 5h-1.14zm0 2.687V9.8H5.995V4.163h2.29c.59 0 1.06.16 1.406.477.346.315.52.743.52 1.285 0 .375-.095.707-.282.996-.188.287-.448.49-.781.61l1.23 2.27H9.226L8.12 7.686H7.003z" fill="#5D5A5B"/></svg>