<svg width="16" height="16" viewBox="0 0 16 16" fill="none" xmlns="http://www.w3.org/2000/svg"><rect id="frame" width="16" height="16" fill="none"/><path fill-rule="evenodd" clip-rule="evenodd" d="M2 7.175C2 3.762 4.712 1 8.063 1c3.352 0 6.164 2.808 5.925 6.658-.24 3.851-3.453 6.785-7.082 7.342v-1.768C4.115 12.677 2 10.18 2 7.175zM8 11.5a4.5 4.5 0 1 0 0-9 4.5 4.5 0 0 0 0 9z" fill="#00A817"/><path d="M5.738 8.269h.984a.82.82 0 0 0 .394.605c.232.149.527.223.883.223.334 0 .607-.076.82-.227.217-.153.325-.349.325-.586a.6.6 0 0 0-.246-.496c-.162-.127-.423-.233-.785-.316l-.73-.168c-.511-.115-.89-.3-1.138-.559-.244-.26-.367-.6-.367-1.02 0-.512.192-.924.574-1.234.386-.312.894-.468 1.524-.468.591 0 1.08.153 1.469.46.388.308.593.704.617 1.188h-.965a.838.838 0 0 0-.356-.59c-.203-.146-.46-.218-.77-.218-.325 0-.586.072-.784.218a.677.677 0 0 0-.293.575c0 .19.077.345.23.464.154.118.405.217.754.297l.649.149c.57.127.983.317 1.238.57.258.253.387.594.387 1.023 0 .55-.2.985-.598 1.305-.396.318-.935.477-1.617.477-.646 0-1.168-.151-1.567-.453a1.561 1.561 0 0 1-.632-1.22z" fill="#5D5A5B"/></svg>