<svg xmlns="http://www.w3.org/2000/svg" width="16" height="16" viewBox="0 0 16 16"><rect id="frame" width="16" height="16" fill="none"/><path fill="#00A817" fill-rule="evenodd" d="M11.418 9.16c-.2 0-.361-.046-.56-.128-.557-.247-.963-.739-1.082-1.274a1.774 1.774 0 0 1 1.032-.309c.219.004.438.049.647.142.16.082.314.16.473.283.557.412.206 1.328-.51 1.287M8.98 10.885c-.12-.123-.194-.286-.274-.45a1.717 1.717 0 0 1 .162-1.648c.557.124 1.067.492 1.306 1.069.08.164.124.375.124.54.04.618-.88.983-1.318.49M8.63 3.677c.08-.164.155-.324.274-.489a.7.7 0 0 1 .622-.257c.372.04.721.347.697.785 0 .165-.045.376-.125.54A1.765 1.765 0 0 1 8.83 5.326c-.358-.453-.438-1.071-.199-1.648M7.55 10.396c-.08.165-.154.325-.273.49-.399.535-1.322.159-1.282-.541 0-.165.045-.363.125-.528A1.764 1.764 0 0 1 7.387 8.75c.319.494.401 1.112.162 1.647M5.36 9.071a1.25 1.25 0 0 1-.56.128c-.716.041-1.064-.821-.546-1.274.119-.123.273-.213.472-.296.21-.092.428-.137.647-.141.363-.007.719.1 1.02.309-.08.535-.475 1.026-1.032 1.274m-.684-4.119c.042-.002.08-.005.124 0 .199 0 .36.047.56.13.557.246.963.738 1.082 1.273a1.741 1.741 0 0 1-1.68.168 2.966 2.966 0 0 1-.472-.296c-.523-.425-.242-1.241.386-1.275M6.629 2.97a.688.688 0 0 1 .61.258c.119.123.193.286.273.45a1.716 1.716 0 0 1-.162 1.648c-.557-.124-1.067-.492-1.306-1.069a1.332 1.332 0 0 1-.124-.54c0-.412.345-.71.709-.747m4.454-1.145a4.9 4.9 0 0 0-.694-.353l-.116-.048c-.106-.04-.214-.085-.324-.117A5.913 5.913 0 0 0 8.063 1C4.712 1 2 3.762 2 7.175c0 3.005 2.115 5.502 4.906 6.057V15c3.629-.557 6.842-3.49 7.082-7.342.144-2.318-.99-4.684-2.905-5.833"/></svg>