<svg xmlns="http://www.w3.org/2000/svg" width="16" height="16" viewBox="0 0 16 16">
  <defs>
    <linearGradient id="eclispelink_ql-a" x1="50%" x2="50%" y1="1089.396%" y2="-159.5%">
      <stop offset="30.33%" stop-color="#473788"/>
      <stop offset="87.2%" stop-color="#2C2255"/>
    </linearGradient>
    <linearGradient id="eclispelink_ql-b" x1="49.999%" x2="49.999%" y1="896.537%" y2="-352.359%">
      <stop offset="30.33%" stop-color="#473788"/>
      <stop offset="87.2%" stop-color="#2C2255"/>
    </linearGradient>
    <linearGradient id="eclispelink_ql-c" x1="49.999%" x2="49.999%" y1="215.17%" y2="-166.715%">
      <stop offset="30.33%" stop-color="#473788"/>
      <stop offset="86.31%" stop-color="#2C2255"/>
    </linearGradient>
  </defs>
  <g fill="none" fill-rule="evenodd">
    <polygon fill="#9AA7B0" fill-opacity=".8" points="7 1 3 5 7 5"/>
    <polygon fill="#9AA7B0" fill-opacity=".8" points="8 1 8 6 3 6 3 8 13 8 13 1"/>
    <path fill="#F4AF3D" fill-opacity=".7" d="M16,10.3541756 C15.2670555,9.52375489 14.1946925,9 13,9 C10.790861,9 9,10.790861 9,13 C9,14.1946925 9.52375489,15.2670555 10.3541756,16 L1,16 L1,9 L16,9 L16,10.3541756 Z M16,15.6458244 L16,16 L15.6458244,16 C15.7711119,15.889419 15.889419,15.7711119 16,15.6458244 Z"/>
    <path fill="#231F20" fill-opacity=".7" d="M5.1129,4.4577 L4.5678,5.0649 L3.9882,4.5474 C3.5811,4.8372 3.0774,5.0028 2.5185,5.0028 C1.035,5.0028 0,3.8781 0,2.5188 C0,1.1457 1.0488,0.0072 2.5323,0.0072 C4.0158,0.0072 5.0508,1.1319 5.0508,2.4912 C5.0508,3.057 4.8714,3.5676 4.5609,3.9885 L5.1129,4.4577 Z M2.53187806,4.1162 C2.82986878,4.1162 3.08899114,4.04473548 3.31572321,3.9148 L2.53187806,3.23913548 L3.093645,2.604426 L3.890446,3.332065 C4.0329633,3.08518758 4.0607,2.84283226 4.0607,2.51799355 L4.0607,2.505 C4.0607,1.62143871 3.41937215,0.8938 2.51892194,0.8938 C1.61847173,0.8938 1,1.60844516 1,2.49200645 L1,2.505 C1,3.38856129 1.63142785,4.1162 2.53187806,4.1162 Z" transform="translate(2 10)"/>
    <g fill-rule="nonzero" transform="translate(9.2 9.8)">
      <path fill="#2C2255" d="M1.86221091,4.07604364 L0.827127273,4.07604364 C0.964178182,4.54617091 1.21849818,4.96752364 1.59082909,5.33991636 C2.18440727,5.93355636 2.89816,6.22997455 3.73282909,6.22997455 C3.89967636,6.22997455 4.06133091,6.21754909 4.21834909,6.19387273 C4.84704,6.09898182 5.39746909,5.81474182 5.86908,5.33991636 C6.24382182,4.96764727 6.49993455,4.54617091 6.63803636,4.07604364 L6.21798182,4.07604364 L5.60375636,4.07604364 L1.86221091,4.07604364 Z"/>
      <path fill="#2C2255" d="M.611443636.0119927273L.07072.0119927273C.0509381818.174984586.0374618182.341368575.0313418182.511992727L.674003636.511992727.996385455.511992727 5.64974909.511992727 6.07450182.511992727C6.06832.341368575 6.05484364.174984586 6.03487636.0119927273M.0313418182.714927273C.0374618182.885636228.0508763636 1.05202022.07072 1.21492727L.632894545 1.21492727 1.05900727 1.21492727 5.61179273 1.21492727 6.035 1.21492727C6.05490545 1.05202022 6.06850545.885636228 6.07468727.714927273" transform="translate(.68 2.658)"/>
      <path fill="#2C2255" d="M6.63816,2.33165818 C6.50018182,1.86023273 6.24400727,1.43690182 5.86908,1.06191273 C5.39870545,0.591538182 4.84982182,0.309338182 4.22317091,0.214385455 C4.06466909,0.190338182 3.90140727,0.177727273 3.73282909,0.177727273 C2.89816,0.177727273 2.18434545,0.472538182 1.59082909,1.06191273 C1.21837455,1.43690182 0.963930909,1.86023273 0.826941818,2.33165818"/>
      <g transform="translate(1.67 2.658)">
        <path fill="url(#eclispelink_ql-a)" d="M4.12036727,0.511930909 C4.11022909,0.340543528 4.08921091,0.173396309 4.05780727,0.0119309091 L0.0699163636,0.0119309091 C0.0385127273,0.173311506 0.0174327273,0.340458725 0.00729454545,0.511930909 L4.12036727,0.511930909 Z"/>
        <path fill="url(#eclispelink_ql-b)" d="M4.12036727,0.714927273 L0.00735636364,0.714927273 C0.0174945455,0.886314654 0.0384509091,1.05346187 0.0699163636,1.21492727 L4.05786909,1.21492727 C4.08927273,1.05346187 4.11022909,0.886314654 4.12036727,0.714927273 Z"/>
        <path fill="url(#eclispelink_ql-c)" d="M2.06386182,2.60977818 C2.89204,2.60977818 3.60591636,2.12184727 3.93466545,1.41786182 L0.193058182,1.41786182 C0.521807273,2.12184727 1.23568364,2.60977818 2.06386182,2.60977818 Z"/>
      </g>
      <path fill="#FFF" d="M.691621818 1.24732L.993541818 1.24732 5.11718545 1.24732 5.65889818 1.24732 6.07042182 1.24732C6.07326545 1.16779115 6.07487273 1.08771445 6.07487273 1.00708991 6.07487273.91989122 6.07270909.833422995 6.06937091.74732L5.65883636.74732 5.11712364.74732.99348.74732.670232727.74732.0313418182.74732C.0280036364.833331687.02584.91989122.02584 1.00708991.02584 1.08771445.0274472727 1.16779115.0302909091 1.24732L.691621818 1.24732zM1.17009455.0443854545L.14688.0443854545C.113250909.207186769.0915527273.37418823.07072.544385455L.59772.544385455 1.04645818.544385455 5.04479636.544385455 5.61105091.544385455 6.01577455.544385455C5.99488.374279538 5.96798909.207278077 5.93442182.0443854545M5.62706182 1.45025455L5.06080727 1.45025455 1.06253091 1.45025455.635243636 1.45025455.0706581818 1.45025455C.0909345455 1.62036046.113992727 1.78727062.147065455 1.95025455L1.18604364 1.95025455 4.93729455 1.95025455 5.55312727 1.95025455 5.95420364 1.95025455C5.98721455 1.78736192 6.01385818 1.62045177 6.03419636 1.45025455L5.62706182 1.45025455z" transform="translate(.68 2.287)"/>
    </g>
  </g>
</svg>
