<svg xmlns="http://www.w3.org/2000/svg" width="16" height="16" viewBox="0 0 16 16"><rect id="frame" width="16" height="16" fill="none"/><defs><linearGradient id="a" x1="50%" x2="50%" y1="1089.396%" y2="-159.5%"><stop offset="30.33%" stop-color="#473788"/><stop offset="87.2%" stop-color="#2C2255"/></linearGradient><linearGradient id="b" x1="49.999%" x2="49.999%" y1="896.537%" y2="-352.359%"><stop offset="30.33%" stop-color="#473788"/><stop offset="87.2%" stop-color="#2C2255"/></linearGradient><linearGradient id="c" x1="49.999%" x2="49.999%" y1="215.17%" y2="-166.715%"><stop offset="30.33%" stop-color="#473788"/><stop offset="86.31%" stop-color="#2C2255"/></linearGradient></defs><g fill="none" fill-rule="evenodd"><path fill="#9AA7B0" fill-opacity=".8" d="M7 1L3 5h4z"/><path fill="#9AA7B0" fill-opacity=".8" d="M8 1v5H3v2h10V1z"/><path fill="#F4AF3D" fill-opacity=".7" d="M16 10.354A4 4 0 1 0 10.354 16H1V9h15v1.354zm0 5.292V16h-.354c.125-.11.243-.229.354-.354z"/><path fill="#231F20" fill-opacity=".7" d="M7.113 14.458l-.545.607-.58-.518c-.407.29-.91.456-1.47.456C3.035 15.003 2 13.878 2 12.519c0-1.373 1.049-2.512 2.532-2.512 1.484 0 2.519 1.125 2.519 2.484 0 .566-.18 1.077-.49 1.497l.552.47zm-2.581-.342c.298 0 .557-.071.784-.201l-.784-.676.562-.635.796.728c.143-.247.17-.49.17-.814v-.013c0-.884-.64-1.611-1.541-1.611-.9 0-1.519.714-1.519 1.598v.013c0 .884.631 1.611 1.532 1.611z"/><g fill-rule="nonzero"><path fill="#2C2255" d="M11.062 13.876h-1.035c.137.47.391.892.764 1.264a2.92 2.92 0 0 0 2.142.89c.167 0 .328-.012.485-.036a2.887 2.887 0 0 0 1.651-.854 2.93 2.93 0 0 0 .769-1.264h-4.776z"/><path fill="#2C2255" d="M10.491 12.47h-.54a5.9 5.9 0 0 0-.04.5h6.044a5.848 5.848 0 0 0-.04-.5m-6.004.703c.006.17.02.337.04.5h5.964c.02-.163.034-.33.04-.5"/><path fill="#2C2255" d="M15.838 12.132a2.954 2.954 0 0 0-.769-1.27 2.894 2.894 0 0 0-1.646-.848 3.263 3.263 0 0 0-.49-.036 2.93 2.93 0 0 0-2.142.884 2.957 2.957 0 0 0-.764 1.27"/><path fill="url(#a)" d="M4.12.512a3.794 3.794 0 0 0-.062-.5H.07a3.79 3.79 0 0 0-.063.5H4.12z" transform="translate(10.87 12.458)"/><path fill="url(#b)" d="M4.12.715H.007c.01.171.031.338.063.5h3.988c.031-.162.052-.329.062-.5z" transform="translate(10.87 12.458)"/><path fill="url(#c)" d="M2.064 2.61c.828 0 1.542-.488 1.87-1.192H.195a2.064 2.064 0 0 0 1.87 1.192z" transform="translate(10.87 12.458)"/><path fill="#FFF" d="M10.572 13.334H15.95a6.72 6.72 0 0 0 0-.5H9.91a6.693 6.693 0 0 0 0 .5h.66zm.478-1.203h-1.023c-.034.163-.055.33-.076.5h5.945a6.261 6.261 0 0 0-.082-.5m-.307 1.406H9.951c.02.17.043.337.076.5H15.834c.033-.163.06-.33.08-.5h-.407z"/></g></g></svg>