<svg xmlns="http://www.w3.org/2000/svg" width="16" height="16" viewBox="0 0 16 16"><rect id="frame" width="16" height="16" fill="none"/><g fill="none" fill-rule="evenodd"><path fill="#9AA7B0" fill-opacity=".8" d="M7 1L3 5h4z"/><path fill="#9AA7B0" fill-opacity=".8" d="M8 1v5H3v2h10V1z"/><path fill="#F4AF3D" fill-opacity=".7" d="M9.683 9a3.598 3.598 0 0 0-.365.318c-1.562 1.563-1.403 4.253.354 6.01.258.26.537.483.83.672H1V9h8.683zm4.815 0H16v1.501A5.05 5.05 0 0 0 14.498 9zM16 15.32V16h-.68a3.598 3.598 0 0 0 .68-.68z"/><path fill="#231F20" fill-opacity=".7" d="M7.113 14.458l-.545.607-.58-.518c-.407.29-.91.456-1.47.456C3.035 15.003 2 13.878 2 12.519c0-1.373 1.049-2.512 2.532-2.512 1.484 0 2.519 1.125 2.519 2.484 0 .566-.18 1.077-.49 1.497l.552.47zm-2.581-.342c.298 0 .557-.071.784-.201l-.784-.676.562-.635.796.728c.143-.247.17-.49.17-.814v-.013c0-.884-.64-1.611-1.541-1.611-.9 0-1.519.714-1.519 1.598v.013c0 .884.631 1.611 1.532 1.611z"/><path fill="#935E2D" fill-opacity=".7" d="M9.657 10.188c-1.128 1.4-.726 3.196.617 4.538 1.342 1.343 3.138 1.745 4.538.617l-5.155-5.155zm5.687 4.624c1.128-1.4.725-3.196-.617-4.538-1.343-1.343-3.14-1.746-4.54-.617l5.157 5.155z"/></g></svg>