<svg xmlns="http://www.w3.org/2000/svg" width="16" height="16" viewBox="0 0 16 16">
  <g fill="none" fill-rule="evenodd">
    <polygon fill="#9AA7B0" fill-opacity=".8" points="7 1 3 5 7 5"/>
    <polygon fill="#9AA7B0" fill-opacity=".8" points="8 1 8 6 3 6 3 8 13 8 13 1"/>
    <path fill="#F4AF3D" fill-opacity=".7" d="M9.68273127,9 C9.55567746,9.09676366 9.43396457,9.20288967 9.31842712,9.31842712 C7.75632996,10.8805243 7.9146212,13.5714755 9.67198052,15.3288348 C9.93041172,15.587266 10.2090324,15.8111163 10.5012837,16 L1,16 L1,9 L9.68273127,9 Z M14.4982697,9 L16,9 L16,10.5012837 C15.8111163,10.2090324 15.587266,9.93041172 15.3288348,9.67198052 C15.0700316,9.41317739 14.7909808,9.18905472 14.4982697,9 Z M16,15.3191541 L16,16 L15.3191541,16 C15.4458213,15.9034556 15.5671751,15.7976012 15.6823882,15.6823882 C15.7976012,15.5671751 15.9034556,15.4458213 16,15.3191541 Z"/>
    <path fill="#231F20" fill-opacity=".7" d="M5.1129,4.4577 L4.5678,5.0649 L3.9882,4.5474 C3.5811,4.8372 3.0774,5.0028 2.5185,5.0028 C1.035,5.0028 0,3.8781 0,2.5188 C0,1.1457 1.0488,0.0072 2.5323,0.0072 C4.0158,0.0072 5.0508,1.1319 5.0508,2.4912 C5.0508,3.057 4.8714,3.5676 4.5609,3.9885 L5.1129,4.4577 Z M2.53187806,4.1162 C2.82986878,4.1162 3.08899114,4.04473548 3.31572321,3.9148 L2.53187806,3.23913548 L3.093645,2.604426 L3.890446,3.332065 C4.0329633,3.08518758 4.0607,2.84283226 4.0607,2.51799355 L4.0607,2.505 C4.0607,1.62143871 3.41937215,0.8938 2.51892194,0.8938 C1.61847173,0.8938 1,1.60844516 1,2.49200645 L1,2.505 C1,3.38856129 1.63142785,4.1162 2.53187806,4.1162 Z" transform="translate(2 10)"/>
    <path fill="#935E2D" fill-opacity=".7" d="M.6572 1.188C-.4708 2.588-.0688 4.384 1.2742 5.726 2.6162 7.069 4.4122 7.471 5.8122 6.343L.6572 1.188zM6.3437 5.812C7.4717 4.412 7.0687 2.616 5.7267 1.274 4.3837-.069 2.5877-.472 1.1877.657L6.3437 5.812z" transform="translate(9 9)"/>
  </g>
</svg>
