<svg xmlns="http://www.w3.org/2000/svg" width="16" height="16" viewBox="0 0 16 16"><rect id="frame" width="16" height="16" fill="none"/><g fill="none" fill-rule="evenodd"><path fill="#9AA7B0" fill-opacity=".8" d="M7 1L3 5h4z"/><path fill="#9AA7B0" fill-opacity=".8" d="M8 1v5H3v2h5.497l.58-1H13V1z"/><path fill="#F4AF3D" fill-opacity=".7" d="M1 16h9.141L7.1 10.6 8.032 9H1z"/><path fill="#231F20" fill-opacity=".7" d="M7.113 14.458l-.545.607-.58-.518c-.407.29-.91.456-1.47.456C3.035 15.003 2 13.878 2 12.519c0-1.373 1.049-2.512 2.532-2.512 1.484 0 2.519 1.125 2.519 2.484 0 .566-.18 1.077-.49 1.497l.552.47zm-2.581-.342c.298 0 .557-.071.784-.201l-.784-.676.562-.635.796.728c.143-.247.17-.49.17-.814v-.013c0-.884-.64-1.611-1.541-1.611-.9 0-1.519.714-1.519 1.598v.013c0 .884.631 1.611 1.532 1.611z"/><g fill-rule="nonzero"><path fill="#59666C" d="M12.904 13.361l-.028.083 1.473 2.497.083.059 1.538-2.66-1.538-2.671z"/><path fill="#59666C" d="M9.806 8.009L8.3 10.669l1.565 2.692 1.49-2.692-.004-.109-1.476-2.497z"/><path fill="#BCAE79" d="M9.806 8.009l1.549 2.66h3.077l-1.56-2.66z"/><path fill="#BCAE79" d="M9.865 13.361L11.382 16h3.05l-1.528-2.639z"/></g></g></svg>