<svg xmlns="http://www.w3.org/2000/svg" width="16" height="16" viewBox="0 0 16 16">
  <g fill="none" fill-rule="evenodd">
    <polygon fill="#9AA7B0" fill-opacity=".8" points="7 1 3 5 7 5"/>
    <polygon fill="#9AA7B0" fill-opacity=".8" points="8 1 8 6 3 6 3 8 13 8 13 1"/>
    <polygon fill="#F4AF3D" fill-opacity=".7" points="1 16 16 16 16 9 1 9"/>
    <polygon fill="#231F20" fill-opacity=".7" points="0 0 1 0 1 4 3.5 4 3.5 5 0 5" transform="translate(8 10)"/>
    <path fill="#231F20" fill-opacity=".7" d="M5.1129,4.4577 L4.5678,5.0649 L3.9882,4.5474 C3.5811,4.8372 3.0774,5.0028 2.5185,5.0028 C1.035,5.0028 0,3.8781 0,2.5188 C0,1.1457 1.0488,0.0072 2.5323,0.0072 C4.0158,0.0072 5.0508,1.1319 5.0508,2.4912 C5.0508,3.057 4.8714,3.5676 4.5609,3.9885 L5.1129,4.4577 Z M2.53187806,4.1162 C2.82986878,4.1162 3.08899114,4.04473548 3.31572321,3.9148 L2.53187806,3.23913548 L3.093645,2.604426 L3.890446,3.332065 C4.0329633,3.08518758 4.0607,2.84283226 4.0607,2.51799355 L4.0607,2.505 C4.0607,1.62143871 3.41937215,0.8938 2.51892194,0.8938 C1.61847173,0.8938 1,1.60844516 1,2.49200645 L1,2.505 C1,3.38856129 1.63142785,4.1162 2.53187806,4.1162 Z" transform="translate(2 10)"/>
    <path fill="#231F20" fill-opacity=".7" d="M1.39509277,3.58770752 C1.62440186,3.83789062 1.83782861,4 2.28682861,4 C2.81318359,4 3,3.58770752 3,3.29760742 L3,0 L4,0 L4,3.58770752 C4,4.31964111 3.32670898,5 2.45,5 C1.629,5 1.15,4.76264111 0.8,4.31964111 L1.39509277,3.58770752 Z" transform="translate(11 10)"/>
  </g>
</svg>
