<svg xmlns="http://www.w3.org/2000/svg" width="16" height="16" viewBox="0 0 16 16"><rect id="frame" width="16" height="16" fill="none"/><g fill="none" fill-rule="evenodd"><path fill="#9AA7B0" fill-opacity=".8" d="M7 1L3 5h4z"/><path fill="#9AA7B0" fill-opacity=".8" d="M8 1v5H3v2h10V1z"/><path fill="#F4AF3D" fill-opacity=".7" d="M1 16h15V9H1z"/><path fill="#231F20" fill-opacity=".7" d="M8 10h1v4h2.5v1H8z"/><path fill="#231F20" fill-opacity=".7" d="M7.113 14.458l-.545.607-.58-.518c-.407.29-.91.456-1.47.456C3.035 15.003 2 13.878 2 12.519c0-1.373 1.049-2.512 2.532-2.512 1.484 0 2.519 1.125 2.519 2.484 0 .566-.18 1.077-.49 1.497l.552.47zm-2.581-.342c.298 0 .557-.071.784-.201l-.784-.676.562-.635.796.728c.143-.247.17-.49.17-.814v-.013c0-.884-.64-1.611-1.541-1.611-.9 0-1.519.714-1.519 1.598v.013c0 .884.631 1.611 1.532 1.611z"/><path fill="#231F20" fill-opacity=".7" d="M12.395 13.588c.23.25.443.412.892.412.526 0 .713-.412.713-.702V10h1v3.588C15 14.32 14.327 15 13.45 15c-.821 0-1.3-.237-1.65-.68l.595-.732z"/></g></svg>