<svg xmlns="http://www.w3.org/2000/svg" width="24" height="24" viewBox="0 0 24 24"><rect id="frame" width="24" height="24" fill="none"/><path fill="#AFB1B3" fill-rule="evenodd" d="M16.172 14.607a1.106 1.106 0 1 1-1.565 1.566l-2.608-2.607-2.607 2.607a1.107 1.107 0 1 1-1.565-1.566L10.434 12 7.827 9.393a1.109 1.109 0 1 1 1.565-1.568l2.607 2.607 2.608-2.607a1.107 1.107 0 1 1 1.565 1.568L13.566 12l2.606 2.607zM12 1.5C6.202 1.5 1.5 6.202 1.5 12c0 5.797 4.702 10.5 10.5 10.5 5.799 0 10.5-4.703 10.5-10.5 0-5.798-4.701-10.5-10.5-10.5z"/></svg>