<svg xmlns="http://www.w3.org/2000/svg" width="16" height="16" viewBox="0 0 16 16"><rect id="frame" width="16" height="16" fill="none"/><g fill="none" fill-rule="evenodd"><path fill="#9AA7B0" fill-opacity=".8" d="M1 14h5v-2H1z"/><path fill="#9AA7B0" fill-opacity=".8" d="M1 2v9h5V9H3V4h10v2h2V2z"/><path fill="#751E21" d="M8.745 9.514l.004.004c.404.39.825.618 1.306 1.078-1.122-.896-3.48-1.415-2.898-2.758a1.4 1.4 0 0 1 .267-.366c.11-.11.237-.203.365-.266 1.343-.584 1.863 1.775 2.759 2.898-.46-.48-.688-.903-1.078-1.306h-.001l-.003-.004-.006-.006a.501.501 0 0 0-.71 0l-.005.006-.005.005a.501.501 0 0 0 0 .71l.005.005"/><path fill="#1D5895" d="M8.745 13.55l.004-.003c.404-.39.825-.618 1.306-1.078-1.122.895-3.48 1.415-2.898 2.758.063.128.157.256.267.366.11.11.237.203.365.266 1.343.584 1.863-1.775 2.759-2.898-.46.48-.688.903-1.078 1.306h-.001l-.003.004-.006.006a.501.501 0 0 1-.71 0l-.005-.006-.005-.005a.501.501 0 0 1 0-.71l.005-.005"/><path fill="#9D3B2A" d="M14.223 13.551l-.004-.004c-.404-.39-.826-.618-1.307-1.078 1.123.895 3.481 1.415 2.898 2.758a1.39 1.39 0 0 1-.266.366c-.11.11-.237.203-.365.266-1.344.584-1.863-1.775-2.759-2.898.46.48.688.903 1.078 1.306l.004.004.006.006a.502.502 0 0 0 .71 0l.01-.011a.502.502 0 0 0 0-.71l-.005-.005"/><path fill="#3A5E30" d="M14.223 9.514l-.004.004c-.404.39-.826.618-1.307 1.078 1.123-.896 3.481-1.415 2.898-2.758a1.388 1.388 0 0 0-.266-.366 1.392 1.392 0 0 0-.365-.266c-1.344-.584-1.863 1.775-2.759 2.898.46-.48.688-.903 1.078-1.306l.004-.004.006-.006a.501.501 0 0 1 .71 0l.005.006.005.005a.501.501 0 0 1 0 .71l-.005.005"/><path fill="#C4242B" d="M10.62 11.533c-.014 1.596-4.227 1.95-3.46 3.698-.696-1.356 1.188-1.975 1.499-3.263a1.963 1.963 0 0 0-.004-.888c-.323-1.276-2.188-1.896-1.496-3.246-.766 1.748 3.447 2.102 3.46 3.699"/><path fill="#79A240" d="M11.046 8.707c-1.286-.312-1.905-2.194-3.261-1.5 1.748-.765 2.102 3.448 3.699 3.461 1.596-.013 1.95-4.226 3.699-3.46-1.357-.695-1.976 1.19-3.264 1.5-.27.064-.603.064-.873-.001"/><path fill="#329DCC" d="M11.046 14.358c-1.286.313-1.905 2.193-3.261 1.5 1.748.765 2.102-3.448 3.699-3.461 1.596.013 1.95 4.226 3.699 3.46-1.358.696-1.977-1.193-3.267-1.5a1.976 1.976 0 0 0-.87.001"/><path fill="#E6762B" d="M12.349 11.533c.013-1.597 4.226-1.95 3.46-3.7.694 1.357-1.19 1.976-1.5 3.264-.066.274-.065.614.004.888.323 1.276 2.187 1.895 1.495 3.246.767-1.748-3.446-2.102-3.46-3.698"/></g></svg>