<svg xmlns="http://www.w3.org/2000/svg" width="16" height="16" viewBox="0 0 16 16"><rect id="frame" width="16" height="16" fill="none"/><g fill="none" fill-rule="evenodd"><path fill="#9AA7B0" fill-opacity=".8" d="M5 14.326A7.003 7.003 0 0 1 1 8c0-3.864 3.136-7 7-7s7 3.136 7 7h-1.4a5.603 5.603 0 0 0-3.5-5.187V3.1c0 .77-.63 1.4-1.4 1.4H7.3v1.4c0 .385-.315.7-.7.7H5.2V8h4.2H5v1.2L2.547 6.747A5.683 5.683 0 0 0 2.4 8 5.586 5.586 0 0 0 5 12.726v1.6z"/><path fill="#F26522" fill-opacity=".6" d="M6 16h10V9H6z"/><path fill="#231F20" fill-opacity=".7" d="M10.15 13l-.654-1.6L8.85 13h1.3zm-1.041-3h.781L12 15h-1.1l-.5-1H8.6l-.5 1H7l2.109-5z"/><path fill="#231F20" fill-opacity=".7" d="M12.973 11.502c0-.369.311-.502.872-.502H15v-1h-1.14c-1.082 0-1.86.46-1.86 1.45 0 .865.42 1.24 1.471 1.466.77.165 1.025.313 1.025.632 0 .32-.358.452-1.025.452H12.3v1h1.171c2.029 0 2.029-1 2.029-1.452 0-.632-.48-1.127-1.341-1.401-.862-.274-1.186-.277-1.186-.645z"/></g></svg>