<svg xmlns="http://www.w3.org/2000/svg" width="16" height="16" viewBox="0 0 16 16"><rect id="frame" width="16" height="16" fill="none"/><g fill="none" fill-rule="evenodd"><path fill="#F98B9E" fill-opacity=".6" d="M8 13A5 5 0 1 1 8 3a5 5 0 0 1 0 10z"/><path fill="#9AA7B0" fill-opacity=".8" d="M10 14.71A7 7 0 0 1 1.07 7h1.013A6 6 0 0 0 10 13.659v1.051zM14.93 7h-1.013 1.012z"/><path fill="#231F20" fill-opacity=".7" d="M11.992 8c0-.749-.357-2-2.01-2-.87 0-1.324.502-1.383.6C8.284 6.194 7.944 6 7.1 6c-.468 0-.835.1-1.1.3V6H5v5h1c-.033-1.844-.033-2.844 0-3 .05-.234.05-1 1-1s.999.537 1 1v3h1V8c0-.314-.04-1 .982-1s1.022.74 1.023 1v3h.992l-.005-3z"/><path fill="#231F20" fill-opacity=".7" d="M13 12.95a2.5 2.5 0 0 0 1-4.45V7.2c1.17.445 2 1.575 2 2.9v.8a3.1 3.1 0 0 1-3 3.098V16l-2.4-2h-.5.5l-.6-.5 3-2.5v1.95zm0-4.9V7.002 8.05zM7 10.9v-.8.8z"/></g></svg>