<svg xmlns="http://www.w3.org/2000/svg" width="16" height="16" viewBox="0 0 16 16">
  <g fill="none" fill-rule="evenodd">
    <path fill="#F98B9E" fill-opacity=".6" d="M8,13 C5.23857143,13 3,10.7614286 3,8 C3,5.23857143 5.23857143,3 8,3 C10.7614286,3 13,5.23857143 13,8 C13,10.7614286 10.7614286,13 8,13 Z"/>
    <path fill="#9AA7B0" fill-opacity=".8" d="M10,14.7101213 C9.36629059,14.8987225 8.69497261,15 8,15 C4.13400675,15 1,11.8659932 1,8 C1,7.66047866 1.02417196,7.32660298 1.07088886,7 L2.08295844,7 C2.0283988,7.32520847 2,7.65928779 2,8 C2,11.3137085 4.6862915,14 8,14 C8.70127085,14 9.37444215,13.8796916 10,13.6585886 L10,14.7101213 Z M14.9291111,7 L13.9170416,7 L14.9291111,7 Z"/>
    <path fill="#231F20" fill-opacity=".7" d="M6.9922,2 C6.9912,1.251 6.63513184,0.0003 4.98162842,0.0003 C4.11224365,0.0003 3.6576,0.502 3.5986,0.6 C3.28363037,0.194116211 2.94411621,0.0003 2.1,0.0003 C1.63194173,0.0003 1.26527507,0.0999436667 1,0.299231 L1,0.0003 L0,0.0003 L0,5.0003 L1,5.0003 C0.966666667,3.1563 0.966666667,2.1562 1,2 C1.05,1.7657 1.05,1 2,1 C2.95,1 2.999,1.537 3,2 L3,5.0003 L4,5.0003 L4,2 C4,1.686 3.95911952,1 4.98162842,1 C6.00413731,1 6.00413731,1.73961181 6.00469971,2 C6.00469971,2.79041884 6.00469971,3.38323296 6.00469971,3.77844238 C6.00469971,4.0499663 6.00469971,4.45725217 6.00469971,5.0003 L6.9972,5.0003 L6.9922,2 Z" transform="translate(5 6)"/>
    <path fill="#231F20" fill-opacity=".7" d="M13,12.9499909 C14.1411202,12.7183558 15,11.709479 15,10.5 C15,9.68209108 14.6072234,8.95592007 14,8.49981691 L14,7.20082813 C15.1690809,7.64464234 16,8.7752854 16,10.1 L16,10.9 C16,12.5786229 14.6658017,13.9456271 13,13.9984176 L13,16 L10.6,14 L10.1,14 L10.6,14 L10,13.5 L13,11 L13,12.9499909 Z M13,8.05000906 L13,7.00158237 L13,8.05000906 Z M7,10.9 L7,10.1 L7,10.9 Z"/>
  </g>
</svg>
