<svg xmlns="http://www.w3.org/2000/svg" width="16" height="16" viewBox="0 0 16 16"><rect id="frame" width="16" height="16" fill="none"/><g fill="none" fill-rule="evenodd"><path fill="#F98B9E" fill-opacity=".6" d="M12.934 7.186L8.056 13H8a5 5 0 1 1 4.934-5.814z"/><path fill="#231F20" fill-opacity=".7" d="M12 8.3l-.995 1.186V8c0-.46-.305-1-1.255-1S8.5 7.64 8.5 8v3h-1V8c-.001-.463-.35-1-1.3-1C5.25 7 5 7.64 5 8v3H4V6h1v.4c.465-.267.932-.4 1.4-.4.733 0 1.267.202 1.6.604C8.465 6.202 9.092 6 9.882 6 11.498 6 11.999 7.15 12 8v.3z"/><path fill="#9AA7B0" fill-opacity=".8" d="M10 14.71A7 7 0 0 1 1.07 7h1.013A6 6 0 0 0 10 13.659v1.051zM14.93 7h-1.013 1.012z"/><path fill="#9AA7B0" d="M12 16l1.6-3.2h-4l4-4.8-.8 3.2H16z"/></g></svg>