<svg xmlns="http://www.w3.org/2000/svg" width="16" height="16" viewBox="0 0 16 16">
  <g fill="none" fill-rule="evenodd">
    <path fill="#F98B9E" fill-opacity=".6" d="M8,13 C5.23857143,13 3,10.7614286 3,8 C3,5.23857143 5.23857143,3 8,3 C10.7614286,3 13,5.23857143 13,8 C13,10.7614286 10.7614286,13 8,13 Z"/>
    <path fill="#9AA7B0" fill-opacity=".8" d="M1.07088886,7 L2.08295844,7 C2.0283988,7.32520847 2,7.65928779 2,8 C2,11.3137085 4.6862915,14 8,14 C11.3137085,14 14,11.3137085 14,8 C14,7.65928779 13.9716012,7.32520847 13.9170416,7 L14.9291111,7 C14.975828,7.32660298 15,7.66047866 15,8 C15,11.8659932 11.8659932,15 8,15 C4.13400675,15 1,11.8659932 1,8 C1,7.66047866 1.02417196,7.32660298 1.07088886,7 Z"/>
    <path fill="#231F20" fill-opacity=".7" d="M8,2 C7.999,1.15 7.49847412,0.0003 5.881628,0.0003 C5.0919717,0.0003 4.46476237,0.201595671 4,0.604187012 C3.66666667,0.201595671 3.13333333,0.0003 2.4,0.0003 C1.93194173,0.0003 1.46527507,0.133277 1,0.399231 L1,0.0003 L0,0.0003 L0,5.0003 L1,5.0003 C1,3.0001 1,2 1,2 C1,1.64 1.25,1 2.2,1 C3.15,1 3.499,1.537 3.5,2 L3.5,5.0003 L4.5,5.0003 L4.5,2 C4.5,1.64 4.8,1 5.75,1 C6.7,1 7.00413731,1.54 7.00469971,2 L7.00469971,5.0003 L7.9972,5.0003 L8,2 Z" transform="translate(4 6)"/>
  </g>
</svg>
