<svg xmlns="http://www.w3.org/2000/svg" width="16" height="16" viewBox="0 0 16 16"><rect id="frame" width="16" height="16" fill="none"/><g fill="none" fill-rule="evenodd"><path fill="#F98B9E" fill-opacity=".6" d="M8 13A5 5 0 1 1 8 3a5 5 0 0 1 0 10z"/><path fill="#9AA7B0" fill-opacity=".8" d="M1.07 7h1.013a6 6 0 1 0 11.834 0h1.012A7 7 0 1 1 1.071 7z"/><path fill="#231F20" fill-opacity=".7" d="M12 8c-.001-.85-.502-2-2.118-2-.79 0-1.417.202-1.882.604C7.667 6.202 7.133 6 6.4 6c-.468 0-.935.133-1.4.4V6H4v5h1V8c0-.36.25-1 1.2-1s1.299.537 1.3 1v3h1V8c0-.36.3-1 1.25-1s1.254.54 1.255 1v3h.992L12 8z"/></g></svg>