<svg xmlns="http://www.w3.org/2000/svg" width="16" height="16" viewBox="0 0 16 16"><rect id="frame" width="16" height="16" fill="none"/><g fill="none" fill-rule="evenodd"><path fill="#F98B9E" fill-opacity=".6" d="M12.934 7.186L8.056 13H8a5 5 0 1 1 4.934-5.814z"/><path fill="#231F20" fill-opacity=".7" d="M11.993 8.308l-.988 1.178V8c0-.26 0-1-1.023-1S9 7.686 9 8v3H8V8c-.001-.463-.05-1-1-1s-.95.766-1 1c-.033.156-.033 1.156 0 3H5V6h1v.3c.265-.2.632-.3 1.1-.3.844 0 1.184.194 1.499.6.059-.098.513-.6 1.383-.6 1.653 0 2.01 1.251 2.01 2v.308z"/><path fill="#9AA7B0" fill-opacity=".8" d="M10 14.71A7 7 0 0 1 1.07 7h1.013A6 6 0 0 0 10 13.659v1.051zM14.93 7h-1.013 1.012z"/><path fill="#231F20" fill-opacity=".7" d="M12 16l1.6-3.2h-4l4-4.8-.8 3.2H16z"/></g></svg>