<svg xmlns="http://www.w3.org/2000/svg" width="16" height="16" viewBox="0 0 16 16">
  <g fill="none" fill-rule="evenodd">
    <path fill="#F98B9E" fill-opacity=".6" d="M8,13 C5.23857143,13 3,10.7614286 3,8 C3,5.23857143 5.23857143,3 8,3 C10.7614286,3 13,5.23857143 13,8 C13,10.7614286 10.7614286,13 8,13 Z"/>
    <path fill="#9AA7B0" fill-opacity=".8" d="M1.28987868,10 L2.34141142,10 C3.16508423,12.3303847 5.38756235,14 8,14 C10.6124377,14 12.8349158,12.3303847 13.6585886,10 L14.7101213,10 C13.8495721,12.8914889 11.1710206,15 8,15 C4.82897936,15 2.15042787,12.8914889 1.28987868,10 Z M1.28987868,6 C2.15042787,3.10851105 4.82897936,1 8,1 C11.1710206,1 13.8495721,3.10851105 14.7101213,6 L13.6585886,6 C12.8349158,3.66961525 10.6124377,2 8,2 C5.38756235,2 3.16508423,3.66961525 2.34141142,6 L1.28987868,6 Z"/>
    <path fill="#231F20" fill-opacity=".7" d="M8,2 C7.999,1.15 7.49847412,0.0003 5.881628,0.0003 C5.0919717,0.0003 4.46476237,0.201595671 4,0.604187012 C3.66666667,0.201595671 3.13333333,0.0003 2.4,0.0003 C1.93194173,0.0003 1.46527507,0.133277 1,0.399231 L1,0.0003 L0,0.0003 L0,5.0003 L1,5.0003 C1,3.0001 1,2 1,2 C1,1.64 1.25,1 2.2,1 C3.15,1 3.499,1.537 3.5,2 L3.5,5.0003 L4.5,5.0003 L4.5,2 C4.5,1.64 4.8,1 5.75,1 C6.7,1 7.00413731,1.54 7.00469971,2 L7.00469971,5.0003 L7.9972,5.0003 L8,2 Z" transform="translate(4 6)"/>
  </g>
</svg>
