<svg xmlns="http://www.w3.org/2000/svg" width="16" height="16" viewBox="0 0 16 16"><rect id="frame" width="16" height="16" fill="none"/><g fill="none" fill-rule="evenodd"><path fill="#F98B9E" fill-opacity=".6" d="M8 13A5 5 0 1 1 8 3a5 5 0 0 1 0 10z"/><path fill="#9AA7B0" fill-opacity=".8" d="M1.29 10H2.34a6.002 6.002 0 0 0 11.318 0h1.051a7.003 7.003 0 0 1-13.42 0zm0-4a7.003 7.003 0 0 1 13.42 0H13.66A6.002 6.002 0 0 0 2.34 6H1.29z"/><path fill="#231F20" fill-opacity=".7" d="M11.992 8c0-.749-.357-2-2.01-2-.87 0-1.324.502-1.383.6C8.284 6.194 7.944 6 7.1 6c-.468 0-.835.1-1.1.3V6H5v5h1c-.033-1.844-.033-2.844 0-3 .05-.234.05-1 1-1s.999.537 1 1v3h1V8c0-.314-.04-1 .982-1s1.022.74 1.023 1v3h.992l-.005-3z"/></g></svg>