<svg xmlns="http://www.w3.org/2000/svg" width="16" height="16" viewBox="0 0 16 16">
  <g fill="none" fill-rule="evenodd">
    <path fill="#F98B9E" fill-opacity=".6" d="M8,13 C5.23857143,13 3,10.7614286 3,8 C3,5.23857143 5.23857143,3 8,3 C10.7614286,3 13,5.23857143 13,8 C13,10.7614286 10.7614286,13 8,13 Z"/>
    <path fill="#9AA7B0" fill-opacity=".8" d="M1.28987868,10 L2.34141142,10 C3.16508423,12.3303847 5.38756235,14 8,14 C10.6124377,14 12.8349158,12.3303847 13.6585886,10 L14.7101213,10 C13.8495721,12.8914889 11.1710206,15 8,15 C4.82897936,15 2.15042787,12.8914889 1.28987868,10 Z M1.28987868,6 C2.15042787,3.10851105 4.82897936,1 8,1 C11.1710206,1 13.8495721,3.10851105 14.7101213,6 L13.6585886,6 C12.8349158,3.66961525 10.6124377,2 8,2 C5.38756235,2 3.16508423,3.66961525 2.34141142,6 L1.28987868,6 Z"/>
    <path fill="#231F20" fill-opacity=".7" d="M6.9922,2 C6.9912,1.251 6.63513184,0.0003 4.98162842,0.0003 C4.11224365,0.0003 3.6576,0.502 3.5986,0.6 C3.28363037,0.194116211 2.94411621,0.0003 2.1,0.0003 C1.63194173,0.0003 1.26527507,0.0999436667 1,0.299231 L1,0.0003 L0,0.0003 L0,5.0003 L1,5.0003 C0.966666667,3.1563 0.966666667,2.1562 1,2 C1.05,1.7657 1.05,1 2,1 C2.95,1 2.999,1.537 3,2 L3,5.0003 L4,5.0003 L4,2 C4,1.686 3.95911952,1 4.98162842,1 C6.00413731,1 6.00413731,1.73961181 6.00469971,2 C6.00469971,2.79041884 6.00469971,3.38323296 6.00469971,3.77844238 C6.00469971,4.0499663 6.00469971,4.45725217 6.00469971,5.0003 L6.9972,5.0003 L6.9922,2 Z" transform="translate(5 6)"/>
  </g>
</svg>
