<svg xmlns="http://www.w3.org/2000/svg" width="16" height="16" viewBox="0 0 16 16">
  <g fill="none" fill-rule="evenodd">
    <path fill="#F98B9E" fill-opacity=".6" d="M8,13 C5.23857143,13 3,10.7614286 3,8 C3,5.23857143 5.23857143,3 8,3 C10.7614286,3 13,5.23857143 13,8 C13,10.7614286 10.7614286,13 8,13 Z"/>
    <path fill="#9AA7B0" fill-opacity=".8" d="M1.07088886,9 C1.02417196,8.67339702 1,8.33952134 1,8 C1,4.13400675 4.13400675,1 8,1 C11.8659932,1 15,4.13400675 15,8 C15,8.33952134 14.975828,8.67339702 14.9291111,9 L13.9170416,9 C13.9716012,8.67479153 14,8.34071221 14,8 C14,4.6862915 11.3137085,2 8,2 C4.6862915,2 2,4.6862915 2,8 C2,8.34071221 2.0283988,8.67479153 2.08295844,9 L1.07088886,9 Z"/>
    <path fill="#231F20" fill-opacity=".7" d="M6.9922,2 C6.9912,1.251 6.63513184,0.0003 4.98162842,0.0003 C4.11224365,0.0003 3.6576,0.502 3.5986,0.6 C3.28363037,0.194116211 2.94411621,0.0003 2.1,0.0003 C1.63194173,0.0003 1.26527507,0.0999436667 1,0.299231 L1,0.0003 L0,0.0003 L0,5.0003 L1,5.0003 C0.966666667,3.1563 0.966666667,2.1562 1,2 C1.05,1.7657 1.05,1 2,1 C2.95,1 2.999,1.537 3,2 L3,5.0003 L4,5.0003 L4,2 C4,1.686 3.95911952,1 4.98162842,1 C6.00413731,1 6.00413731,1.73961181 6.00469971,2 C6.00469971,2.79041884 6.00469971,3.38323296 6.00469971,3.77844238 C6.00469971,4.0499663 6.00469971,4.45725217 6.00469971,5.0003 L6.9972,5.0003 L6.9922,2 Z" transform="translate(5 6)"/>
  </g>
</svg>
