<svg width="32" height="32" viewBox="0 0 32 32" fill="none" xmlns="http://www.w3.org/2000/svg">
<path d="M29.9667 4.96667L32 18.0667L28.2333 20.2667L26.5 12L29.9667 4.96667Z" fill="url(#paint0_linear)"/>
<path d="M29.9667 4.96667L18.5 0L15.3 2.66667L21.5 6.5L29.9667 4.96667Z" fill="url(#paint1_linear)"/>
<path d="M21.6333 32L5 14.5L0.266602 28.5667L21.6333 32Z" fill="url(#paint2_linear)"/>
<path d="M25 20.5L0 14.7667L21.6333 32L25 20.5Z" fill="url(#paint3_linear)"/>
<path d="M0 0.233334V14.7667L27.7667 24.3L29.9667 4.96667L0 0.233334Z" fill="url(#paint4_linear)"/>
<path d="M26 6H6V26H26V6Z" fill="url(#paint5_linear)"/>
<path d="M16 23H8V24H16V23Z" fill="white"/>
<path d="M16 12.1169C16 9.85102 17.7553 8 20.1488 8C21.585 8 22.4147 8.38297 23.2445 9.08508L22.1594 10.4255C21.553 9.91484 21.0105 9.62762 20.085 9.62762C18.8084 9.62762 17.8191 10.7446 17.8191 12.085V12.1169C17.8191 13.553 18.8084 14.6062 20.2127 14.6062C20.8509 14.6062 21.3935 14.4466 21.8403 14.1275V13.0105H20.085V11.5105H23.4998V14.9254C22.7339 15.6275 21.6169 16.17 20.1807 16.17C17.6914 16.17 16 14.4466 16 12.1169Z" fill="white"/>
<path d="M8 8.12H10.9709C13.3704 8.12 15.0844 9.83397 15.0844 12.005C15.0844 14.176 13.3704 15.89 10.9709 15.89H8V8.12ZM9.71397 9.83397V14.4046H11.0851C12.4563 14.4046 13.3704 13.4904 13.3704 12.1193C13.3704 10.7481 12.4563 9.83397 11.0851 9.83397H9.71397Z" fill="white"/>
<defs>
<linearGradient id="paint0_linear" x1="29.2956" y1="12.039" x2="30.2314" y2="20.1858" gradientUnits="userSpaceOnUse">
<stop offset="0.1599" stop-color="#21D789"/>
<stop offset="0.5402" stop-color="#419FBC"/>
<stop offset="1" stop-color="#6B57FF"/>
</linearGradient>
<linearGradient id="paint1_linear" x1="20.7847" y1="8.5415" x2="23.1516" y2="2.48647" gradientUnits="userSpaceOnUse">
<stop offset="0" stop-color="#6B57FF"/>
<stop offset="0.9516" stop-color="#21D789"/>
</linearGradient>
<linearGradient id="paint2_linear" x1="7.7072" y1="16.1552" x2="10.0058" y2="26.1704" gradientUnits="userSpaceOnUse">
<stop offset="0" stop-color="#6B57FF"/>
<stop offset="0.0219079" stop-color="#685CFB"/>
<stop offset="0.281" stop-color="#4A91CA"/>
<stop offset="0.5057" stop-color="#34B7A7"/>
<stop offset="0.6853" stop-color="#26CE91"/>
<stop offset="0.7971" stop-color="#21D789"/>
</linearGradient>
<linearGradient id="paint3_linear" x1="1.99333" y1="16.0036" x2="30.0342" y2="31.4859" gradientUnits="userSpaceOnUse">
<stop offset="0.0752688" stop-color="#21D789"/>
<stop offset="0.8874" stop-color="#6B57FF"/>
</linearGradient>
<linearGradient id="paint4_linear" x1="2.16447" y1="12.2699" x2="30.3455" y2="12.2699" gradientUnits="userSpaceOnUse">
<stop offset="0.3086" stop-color="#21D789"/>
<stop offset="0.4871" stop-color="#59A3B2"/>
<stop offset="0.7668" stop-color="#B74AF7"/>
<stop offset="1" stop-color="#FF45ED"/>
</linearGradient>
<linearGradient id="paint5_linear" x1="15.9733" y1="1.139" x2="15.9733" y2="19.075" gradientUnits="userSpaceOnUse">
<stop offset="0.0842986" stop-color="#878585"/>
<stop offset="0.5377"/>
</linearGradient>
</defs>
    <path fill-rule="evenodd" clip-rule="evenodd" d="M14 32H32V22H14V32Z" fill="#D99E2B"/>
    <path fill-rule="evenodd" clip-rule="evenodd" d="M16 30H19.75V29.0505H16.9V27.45H19.4V26.5H16.9V24.95H19.7V24H16V30Z" fill="black"/>
    <path fill-rule="evenodd" clip-rule="evenodd" d="M22.3999 27.65L23.2999 25.25L24.2499 27.65H22.3999ZM20.5 30H21.45L22 28.5505H24.55L25.0995 30H26.0995L23.75 24H22.8495L20.5 30Z" fill="black"/>
    <path fill-rule="evenodd" clip-rule="evenodd" d="M27.407 27.1002V24.9502H28.2995C28.9845 24.9502 29.2995 25.3002 29.35 25.8502V26.0502C29.35 26.6442 29.0225 27.1002 28.45 27.1002H27.407ZM27.407 30V28.05H28.25C29.3955 28.071 30.2555 27.174 30.2555 26.152V25.902C30.2555 24.7925 29.4675 24 28.44 24H26.5V30H27.407Z" fill="black"/>
</svg>