<svg width="16" height="16" viewBox="0 0 16 16" fill="none" xmlns="http://www.w3.org/2000/svg">
<path d="M16 0H0V16H16V0Z" fill="#21D789"/>
<path d="M15 1H1V15H15V1Z" fill="black"/>
<path d="M9 12H3V13H9V12Z" fill="white"/>
<path d="M8.40002 6.04803C8.40002 4.32169 9.60002 2.9 11.3 2.9C12.3 2.9 12.9 3.20465 13.5 3.7124L12.7 4.72789C12.3 4.32169 11.9 4.1186 11.2 4.1186C10.3 4.1186 9.60003 4.93099 9.60003 6.04803C9.60003 7.16508 10.3 7.97748 11.3 7.97748C11.7 7.97748 12.1 7.87593 12.5 7.57128V6.75888H11.3V5.54029H13.7V8.18057C13.1 8.68832 12.3 9.09452 11.3 9.09452C9.60002 9.19607 8.40002 7.87593 8.40002 6.04803Z" fill="white"/>
<path d="M3 3.00155H5.1C6.8 3.00155 8 4.32169 8 6.04803C8 7.77437 6.8 9.09452 5.1 9.09452H3V3.00155ZM4.2 4.22014V7.87592H5.1C6.1 7.87592 6.7 7.16508 6.7 6.04803C6.7 4.93099 6 4.22014 5.1 4.22014H4.2Z" fill="white"/>
<path fill-rule="evenodd" clip-rule="evenodd" d="M3 16H16V10H3V16Z" fill="#D99E2B"/>
<path fill-rule="evenodd" clip-rule="evenodd" d="M4 11H7V11.64H4.8V12.6H6.5V13.24H4.8V14.36H6.998V15H4V11Z" fill="black"/>
<path fill-rule="evenodd" clip-rule="evenodd" d="M14.2 12.3672C14.2 12.7632 14.0134 13.0672 13.5554 13.0672H12.8V11.6328H13.4364C13.9834 11.6328 14.16 11.8672 14.2 12.2328V12.3672ZM11.9974 11V15H12.8V13.7H13.3954C14.3114 13.7144 15.0004 13.116 15.0004 12.4336V12.268C15.0004 11.528 14.3694 11 13.5474 11H11.9974Z" fill="black"/>
<path fill-rule="evenodd" clip-rule="evenodd" d="M9.85453 11H9.14647L7.36169 15H8.12852L8.54223 14.0519H10.4212L10.835 15H11.6384L9.85453 11ZM8.86404 13.3705L9.50209 11.9083L10.1747 13.3705H8.86404Z" fill="black"/>
</svg>