<svg width="16" height="16" viewBox="0 0 16 16" fill="none" xmlns="http://www.w3.org/2000/svg">
<path d="M12.2426 3.75736C11.1174 2.63214 9.5913 2 8 2L8 6.00792C8.52833 6.00792 9.03503 6.21779 9.40862 6.59138L12.2426 3.75736Z" fill="#FB5B46"/>
<path d="M14 8C14 6.4087 13.3679 4.88258 12.2426 3.75736L9.40862 6.59138C9.78221 6.96497 9.99208 7.47167 9.99208 8H14Z" fill="#D162BD"/>
<path d="M2.63406 10.6845C3.13744 11.6907 3.91359 12.5351 4.87389 13.1213C5.8342 13.7075 6.93998 14.0118 8.065 13.9996L8.02158 9.99197C7.64806 9.99601 7.28093 9.89496 6.96209 9.70034C6.64325 9.50571 6.38556 9.22537 6.21843 8.8913L2.63406 10.6845Z" fill="#6E6E6E"/>
<path d="M8 2C6.97538 2 5.96783 2.26239 5.07336 2.76218C4.1789 3.26196 3.42732 3.98248 2.89026 4.85507C2.3532 5.72766 2.04855 6.72325 2.00534 7.74696C1.96213 8.77067 2.18179 9.78839 2.64341 10.7031L6.22154 8.89748C6.06827 8.59377 5.99534 8.25587 6.00969 7.91599C6.02403 7.5761 6.12518 7.24555 6.3035 6.95584C6.48181 6.66613 6.73134 6.4269 7.02832 6.26097C7.32529 6.09503 7.65981 6.00792 8 6.00792L8 2Z" fill="#99CB6A"/>
<path fill-rule="evenodd" clip-rule="evenodd" d="M10.2961 13.5433C9.56815 13.8448 8.78793 14 8 14L8 9.99208C8.2616 9.99208 8.52065 9.94056 8.76234 9.84045C9.00403 9.74033 9.22364 9.5936 9.40862 9.40862C9.5936 9.22363 9.74033 9.00403 9.84045 8.76234C9.94056 8.52065 9.99208 8.2616 9.99208 8H12H14V13C14 13.5523 13.5523 14 13 14C12.4477 14 12 13.5523 12 13V12.4721C11.497 12.922 10.9211 13.2844 10.2961 13.5433Z" fill="#FECF5C"/>
</svg>
