<svg width="16" height="16" viewBox="0 0 16 16" fill="none" xmlns="http://www.w3.org/2000/svg"><rect id="frame" width="16" height="16" fill="none"/><path d="M12.243 3.757A6 6 0 0 0 8 2v4.008c.528 0 1.035.21 1.409.583l2.834-2.834z" fill="#FB5B46"/><path d="M14 8a6 6 0 0 0-1.757-4.243L9.409 6.591c.373.374.583.88.583 1.409H14z" fill="#D162BD"/><path d="M2.634 10.684A6 6 0 0 0 8.065 14l-.043-4.008a1.992 1.992 0 0 1-1.804-1.1l-3.584 1.793z" fill="#6E6E6E"/><path d="M8 2a6 6 0 0 0-5.357 8.703l3.579-1.806A1.992 1.992 0 0 1 8 6.007V2z" fill="#99CB6A"/><path fill-rule="evenodd" clip-rule="evenodd" d="M10.296 13.543A6 6 0 0 1 8 14V9.992A1.992 1.992 0 0 0 9.992 8H14v5a1 1 0 1 1-2 0v-.528a6 6 0 0 1-1.704 1.071z" fill="#FECF5C"/></svg>