<svg width="16" height="16" viewBox="0 0 16 16" fill="none" xmlns="http://www.w3.org/2000/svg"><rect id="frame" width="16" height="16" fill="none"/><path d="M16 0H0v16h16V0z" fill="#DD1265"/><path d="M15 1H1v14h14V1z" fill="#000"/><path d="M9 12H3v1h6v-1z" fill="#fff"/><path d="M3 3h2.4c.7 0 1.3.2 1.6.6.3.3.5.8.5 1.4 0 1-.5 1.6-1.2 1.9L7.6 9H6.3L5.1 7.1h-.9V9H3V3zm2.4 2.9c.6 0 .9-.3.9-.9 0-.6-.4-.9-.9-.9H4.2v1.7l1.2.1z" fill="#fff"/><path d="M8.2 3h2.1c1.7 0 2.9 1.32 2.9 3.046 0 1.727-1.2 3.047-2.9 3.047H8.2V3zm1.2 1.219v3.655h.9c1 0 1.6-.71 1.6-1.828 0-1.117-.7-1.827-1.6-1.827h-.9z" fill="#fff"/></svg>