<svg width="48" height="48" viewBox="0 0 48 48" fill="none" xmlns="http://www.w3.org/2000/svg"><rect id="frame" width="48" height="48" fill="none"/><path d="M48 18.7L14.35 0 36.9 33.5l4.6-3.05L48 18.7z" fill="url(#paint0_linear)"/><path d="M34.6 11.05L30.35.75l-9.3 9.2 3.8 33.3L33.9 48 48 39.75l-13.4-28.7z" fill="url(#paint1_linear)"/><path d="M14.35 0L0 9.65l5.35 33L19.1 47.9l17.8-14.4L14.35 0z" fill="url(#paint2_linear)"/><path d="M39 9H9v30h30V9z" fill="url(#paint3_linear)"/><path d="M23.25 34H12v1.929h11.25V34z" fill="#fff"/><path d="M12.053 12.02h5.406c1.522 0 2.624.42 3.464 1.207.683.683.997 1.575.997 2.677v.053c0 .944-.21 1.732-.682 2.362a4.231 4.231 0 0 1-1.837 1.312l2.887 4.199h-3.044l-2.468-3.622h-2.152v3.622H12V12.02h.053zm5.248 5.721c.63 0 1.155-.157 1.47-.472.367-.315.525-.735.525-1.207v-.053c0-.577-.157-.997-.525-1.26-.367-.262-.84-.42-1.522-.42h-2.572v3.412H17.3z" fill="#fff"/><path d="M24 12.2h4.393c3.536 0 5.893 2.587 5.893 5.849s-2.465 5.849-5.893 5.849L24 24.01V12.2zm2.464 2.362v7.086h1.929c2.036 0 3.321-1.462 3.321-3.487 0-2.024-1.393-3.487-3.321-3.487l-1.929-.112z" fill="#fff"/><defs><linearGradient id="paint0_linear" x1="44.914" y1="27.498" x2="7.915" y2="6.265" gradientUnits="userSpaceOnUse"><stop offset="0" stop-color="#DD1265"/><stop offset=".483" stop-color="#DD1265"/><stop offset=".942" stop-color="#FDB60D"/></linearGradient><linearGradient id="paint1_linear" x1="22.914" y1="4.191" x2="37.58" y2="44.691" gradientUnits="userSpaceOnUse"><stop offset=".139" stop-color="#087CFA"/><stop offset=".476" stop-color="#DD1265"/><stop offset=".958" stop-color="#087CFA"/></linearGradient><linearGradient id="paint2_linear" x1="11.928" y1="5.44" x2="22.761" y2="43.94" gradientUnits="userSpaceOnUse"><stop offset=".278" stop-color="#DD1265"/><stop offset=".968" stop-color="#FDB60D"/></linearGradient><linearGradient id="paint3_linear" x1="23.999" y1="1.707" x2="23.999" y2="28.611" gradientUnits="userSpaceOnUse"><stop offset=".084" stop-color="#878585"/><stop offset=".538"/></linearGradient></defs></svg>