<svg width="64" height="64" viewBox="0 0 64 64" fill="none" xmlns="http://www.w3.org/2000/svg"><rect id="frame" width="64" height="64" fill="none"/><path d="M64 24.933L19.133 0 49.2 44.667l6.133-4.067L64 24.933z" fill="url(#paint0_linear)"/><path d="M46.133 14.733L40.467 1l-12.4 12.267 5.066 44.4L45.2 64 64 53 46.133 14.733z" fill="url(#paint1_linear)"/><path d="M19.133 0L0 12.867l7.133 44 18.334 7 23.733-19.2L19.133 0z" fill="url(#paint2_linear)"/><path d="M51 13H13v38h38V13z" fill="url(#paint3_linear)"/><path d="M32.144 44H18v2.322h14.144V44z" fill="#fff"/><path d="M18.063 17.75h6.519c1.835 0 3.165.506 4.177 1.456.823.822 1.203 1.898 1.203 3.227v.064c0 1.139-.254 2.088-.823 2.848a5.104 5.104 0 0 1-2.215 1.582l3.48 5.063h-3.67l-2.975-4.367h-2.595v4.367H18V17.75h.063zm6.33 6.898c.759 0 1.392-.19 1.771-.57.443-.379.633-.885.633-1.455v-.063c0-.696-.19-1.202-.633-1.519-.443-.316-1.012-.506-1.835-.506h-3.101v4.113h3.164z" fill="#fff"/><path d="M33 17.75h5.55c4.502 0 7.538 3.037 7.538 7.015 0 3.98-3.036 7.12-7.539 7.12L33 31.99V17.75zm3.141 2.932v8.48h2.408c2.513 0 4.293-1.674 4.293-4.187 0-2.513-1.675-4.293-4.293-4.293h-2.408z" fill="#fff"/><defs><linearGradient id="paint0_linear" x1="59.886" y1="36.664" x2="10.553" y2="8.354" gradientUnits="userSpaceOnUse"><stop offset="0" stop-color="#DD1265"/><stop offset=".483" stop-color="#DD1265"/><stop offset=".942" stop-color="#FDB60D"/></linearGradient><linearGradient id="paint1_linear" x1="30.552" y1="5.588" x2="50.107" y2="59.588" gradientUnits="userSpaceOnUse"><stop offset=".139" stop-color="#087CFA"/><stop offset=".476" stop-color="#DD1265"/><stop offset=".958" stop-color="#087CFA"/></linearGradient><linearGradient id="paint2_linear" x1="15.904" y1="7.254" x2="30.349" y2="58.587" gradientUnits="userSpaceOnUse"><stop offset=".278" stop-color="#DD1265"/><stop offset=".968" stop-color="#FDB60D"/></linearGradient><linearGradient id="paint3_linear" x1="31.949" y1="3.764" x2="31.949" y2="37.843" gradientUnits="userSpaceOnUse"><stop offset=".084" stop-color="#878585"/><stop offset=".538"/></linearGradient></defs></svg>