<svg width="24" height="24" viewBox="0 0 24 24" fill="none" xmlns="http://www.w3.org/2000/svg"><rect id="frame" width="24" height="24" fill="none"/><path d="M24 9.35L7.175 0 18.45 16.75l2.3-1.525L24 9.35z" fill="url(#paint0_linear)"/><path d="M17.3 5.525L15.175.375l-4.65 4.6 1.9 16.65L16.95 24 24 19.875l-6.7-14.35z" fill="url(#paint1_linear)"/><path d="M7.175 0L0 4.825l2.675 16.5L9.55 23.95l8.9-7.2L7.175 0z" fill="url(#paint2_linear)"/><path d="M20 4H4v16h16V4z" fill="url(#paint3_linear)"/><path d="M12 17H6v1h6v-1z" fill="#fff"/><path d="M14.3 6H12v6h2.5c1.8-.1 3-1.3 3-3s-1.3-3-3.2-3zm1.8 3c0 1.1-.7 1.8-1.8 1.8h-1V7.2h1c1 0 1.8.8 1.8 1.8z" fill="#fff"/><path d="M6 6h2.747c.773 0 1.333.213 1.76.613.346.347.506.8.506 1.36V8c0 .48-.106.88-.346 1.2a2.15 2.15 0 0 1-.934.667L11.2 12H9.653L8.4 10.16H7.307V12H5.973V6H6zm2.667 2.907c.32 0 .586-.08.746-.24a.772.772 0 0 0 .267-.614v-.026c0-.294-.08-.507-.267-.64-.186-.134-.426-.214-.773-.214H7.333v1.734h1.334z" fill="#fff"/><defs><linearGradient id="paint0_linear" x1="22.457" y1="13.749" x2="3.957" y2="3.133" gradientUnits="userSpaceOnUse"><stop offset="0" stop-color="#DD1265"/><stop offset=".483" stop-color="#DD1265"/><stop offset=".942" stop-color="#FDB60D"/></linearGradient><linearGradient id="paint1_linear" x1="11.457" y1="2.096" x2="18.79" y2="22.346" gradientUnits="userSpaceOnUse"><stop offset=".139" stop-color="#087CFA"/><stop offset=".476" stop-color="#DD1265"/><stop offset=".958" stop-color="#087CFA"/></linearGradient><linearGradient id="paint2_linear" x1="5.964" y1="2.72" x2="11.381" y2="21.97" gradientUnits="userSpaceOnUse"><stop offset=".278" stop-color="#DD1265"/><stop offset=".968" stop-color="#FDB60D"/></linearGradient><linearGradient id="paint3_linear" x1="12" y1=".129" x2="12" y2="14.478" gradientUnits="userSpaceOnUse"><stop offset=".084" stop-color="#878585"/><stop offset=".538"/></linearGradient></defs></svg>