<svg width="128" height="128" viewBox="0 0 128 128" fill="none" xmlns="http://www.w3.org/2000/svg"><rect id="frame" width="128" height="128" fill="none"/><path d="M128 49.867L38.267 0 98.4 89.333l12.267-8.133L128 49.867z" fill="url(#paint0_linear)"/><path d="M92.267 29.467L80.933 2l-24.8 24.533 10.134 88.8L90.4 128l37.6-22-35.733-76.533z" fill="url(#paint1_linear)"/><path d="M38.267 0L0 25.733l14.267 88 36.666 14 47.467-38.4L38.267 0z" fill="url(#paint2_linear)"/><path d="M103 25H25v78h78V25z" fill="url(#paint3_linear)"/><path d="M62.7 89.567H33.667v4.767H62.7v-4.767z" fill="#fff"/><path d="M33.8 34.75h13.372c3.764 0 6.49 1.039 8.568 2.986 1.687 1.688 2.466 3.895 2.466 6.62v.13c0 2.338-.519 4.285-1.687 5.843-1.169 1.428-2.727 2.596-4.544 3.245l7.14 10.386h-7.53l-6.101-8.958H40.16v8.958H33.67V34.75h.13zM46.782 48.9c1.558 0 2.856-.389 3.635-1.168.909-.779 1.298-1.817 1.298-2.986v-.13c0-1.428-.39-2.466-1.298-3.115-.909-.65-2.077-1.039-3.765-1.039h-6.361v8.439h6.491z" fill="#fff"/><path d="M63 34.75h11.404c9.252 0 15.492 6.24 15.492 14.416 0 8.177-6.24 14.632-15.492 14.632L63 64.013V34.75zm6.455 6.025v17.429h4.95c5.163 0 8.821-3.443 8.821-8.607s-3.443-8.822-8.822-8.822h-4.949z" fill="#fff"/><defs><linearGradient id="paint0_linear" x1="119.771" y1="73.328" x2="21.106" y2="16.707" gradientUnits="userSpaceOnUse"><stop offset="0" stop-color="#DD1265"/><stop offset=".483" stop-color="#DD1265"/><stop offset=".942" stop-color="#FDB60D"/></linearGradient><linearGradient id="paint1_linear" x1="61.103" y1="11.177" x2="100.214" y2="119.177" gradientUnits="userSpaceOnUse"><stop offset=".139" stop-color="#087CFA"/><stop offset=".476" stop-color="#DD1265"/><stop offset=".958" stop-color="#087CFA"/></linearGradient><linearGradient id="paint2_linear" x1="31.808" y1="14.507" x2="60.697" y2="117.174" gradientUnits="userSpaceOnUse"><stop offset=".278" stop-color="#DD1265"/><stop offset=".968" stop-color="#FDB60D"/></linearGradient><linearGradient id="paint3_linear" x1="63.896" y1="6.042" x2="63.896" y2="75.993" gradientUnits="userSpaceOnUse"><stop offset=".084" stop-color="#878585"/><stop offset=".538"/></linearGradient></defs></svg>