<svg width="12" height="12" viewBox="0 0 12 12" fill="none" xmlns="http://www.w3.org/2000/svg"><rect id="frame" width="12" height="12" fill="none"/><path fill-rule="evenodd" clip-rule="evenodd" d="M5.203 8.105a2.251 2.251 0 1 1 2.902-2.902 3.911 3.911 0 0 1 3.142.609 5.25 5.25 0 1 0-5.435 5.435 3.911 3.911 0 0 1-.609-3.142z" fill="#59A869"/><path fill-rule="evenodd" clip-rule="evenodd" d="M9 6a3.001 3.001 0 0 0 0 6 3.001 3.001 0 0 0 0-6zm-.3 5.379a2.397 2.397 0 0 1-2.037-2.916L8.1 9.9v.3c0 .33.27.6.6.6v.579zm1.5-1.179c.27 0 .492.174.57.417.39-.426.63-.993.63-1.617a2.401 2.401 0 0 0-1.5-2.223V6.9c0 .33-.27.6-.6.6h-.6v.6a.3.3 0 0 1-.3.3h-.6V9h1.8a.3.3 0 0 1 .3.3v.9h.3z" fill="#6E6E6E"/></svg>