<svg xmlns="http://www.w3.org/2000/svg" width="16" height="16" viewBox="0 0 16 16">
  <g fill="none" fill-rule="evenodd">
    <path fill="#62B543" fill-opacity=".6" d="M6.93764815,10.8063567 C6.84762282,11.1896347 6.8,11.5892559 6.8,12 C6.8,13.1153964 7.15118092,14.1487701 7.74900566,14.995584 C3.99925948,14.8634335 1,11.7819813 1,8 C1,4.134 4.134,1 8,1 C11.7819813,1 14.8634335,3.99925948 14.995584,7.74900566 C14.1487701,7.15118092 13.1153964,6.8 12,6.8 C11.5892675,6.8 11.1896573,6.84762013 10.8063892,6.93764051 C10.3772822,5.80507795 9.28215725,5 8,5 C6.344,5 5,6.343 5,8 C5,9.28278105 5.80548846,10.3773751 6.93764815,10.8063567 Z"/>
    <path fill="#9AA7B0" fill-rule="nonzero" d="M12,8 C9.792,8 8,9.792 8,12 C8,14.208 9.792,16 12,16 C14.208,16 16,14.208 16,12 C16,9.792 14.208,8 12,8 Z M11.6,15.172 C10.02,14.976 8.8,13.632 8.8,12 C8.8,11.752 8.832,11.516 8.884,11.284 L10.8,13.2 L10.8,13.6 C10.8,14.04 11.16,14.4 11.6,14.4 L11.6,15.172 Z M14.36,14.156 C14.256,13.832 13.96,13.6 13.6,13.6 L13.2,13.6 L13.2,12.4 C13.2,12.18 13.02,12 12.8,12 L10.4,12 L10.4,11.2 L11.2,11.2 C11.42,11.2 11.6,11.02 11.6,10.8 L11.6,10 L12.4,10 C12.84,10 13.2,9.64 13.2,9.2 L13.2,9.036 C14.372,9.512 15.2,10.66 15.2,12 C15.2,12.832 14.88,13.588 14.36,14.156 Z"/>
  </g>
</svg>
