<svg width="16" height="16" viewBox="0 0 16 16" fill="none" xmlns="http://www.w3.org/2000/svg">
<g clip-path="url(#clip0)">
<path fill-rule="evenodd" clip-rule="evenodd" d="M16 8.9V6.9H13V3.7L8.8 7.9L13 12.1V8.9H16Z" fill="#389FD6"/>
<path fill-rule="evenodd" clip-rule="evenodd" d="M4 12.9L4 10.9H7V7.7L11.2 11.9L7 16.1V12.9H4Z" fill="#389FD6"/>
<path fill-rule="evenodd" clip-rule="evenodd" d="M0.025877 6.95001C0.204846 8.72748 1.29585 10.2358 2.82382 11V10.3293H6.3662V7.72904C5.64829 8.43764 4.49169 8.43515 3.77707 7.72066C3.55433 7.49787 3.40074 7.23209 3.31634 6.95001H0.025877ZM3.46519 5.53791C3.34627 5.75438 3.27428 5.98975 3.24919 6.22911L3.24265 6.25001H0.00317383C0.00523352 6.19143 0.00828068 6.13309 0.0122992 6.07502L0.581175 4.06499C0.857521 3.53821 1.22321 3.06565 1.65811 2.66744L3.60994 5.0747L3.46519 5.53791ZM4.26626 4.77271C4.68485 4.56747 5.165 4.53171 5.605 4.66391L8.02307 2.24576C7.19582 1.66786 6.18933 1.32887 5.10367 1.32887C4.02725 1.32887 3.02867 1.66211 2.20545 2.23104L4.26626 4.77271ZM9.25846 3.46787C9.68847 4.06942 9.9911 4.76828 10.1269 5.52501L7.99997 7.70001L6.86689 6.82841C6.93635 6.51966 6.92515 6.19653 6.83378 5.89255L9.25846 3.46787Z" fill="#59A869"/>
<path d="M11.0814 0.416356C10.5262 -0.138785 9.62617 -0.138785 9.07113 0.416356C8.62825 0.859132 8.53976 1.52108 8.80349 2.05266L5.70714 5.14911C5.17557 4.88548 4.51362 4.97387 4.07074 5.41665C3.51559 5.97179 3.5157 6.87185 4.07074 7.42699C4.62598 7.98213 5.52604 7.98193 6.08118 7.42689C6.52396 6.98411 6.61235 6.32216 6.34862 5.79048L9.44496 2.69414C9.97664 2.95776 10.6385 2.86937 11.0813 2.42649C11.6364 1.87166 11.6364 0.971498 11.0814 0.416356Z" fill="#6E6E6E"/>
<path fill-rule="evenodd" clip-rule="evenodd" d="M0.000436407 6.5C0.000145767 6.47756 0 6.45508 0 6.43257C0 4.85957 0.711617 3.45278 1.83048 2.51657L3.9 5C3.9 5 3.235 5.5444 3.235 6.5H0.000436407Z" fill="#4D5A31"/>
</g>
<defs>
<clipPath id="clip0">
<rect width="16" height="16" fill="white"/>
</clipPath>
</defs>
</svg>
