<svg xmlns="http://www.w3.org/2000/svg" width="16" height="16" viewBox="0 0 16 16"><rect id="frame" width="16" height="16" fill="none"/><g fill="none"><path fill="#93D500" d="M4.706 9.061H1.044c0 .018 0 .036.002.054l.006.103a6.263 6.263 0 0 0 .013.163l.002.027a5.726 5.726 0 0 0 .035.288c.042.292.105.581.189.865v.004a5.367 5.367 0 0 0 .047.149l.04.12.011.03.038.104c.006.015.012.03.017.047l.034.085.026.064.028.067.036.082.022.048.045.098.015.031.055.111.009.017a5.997 5.997 0 0 0 .067.127l.014.025 3.128-1.884.011-.007c-.123-.26-.2-.537-.228-.818z"/><path fill="#93D500" d="M1.217 10.74l.001.004.118-.038z"/><path fill="#4D5A31" d="M5.606 10.742l-.01.009-2.579 2.58.04.036.073.065.038.033.088.075.024.02a5.863 5.863 0 0 0 .228.18 6.2 6.2 0 0 0 .483.325l.017.011a7.345 7.345 0 0 0 .31.175l.014.007c.094.05.189.095.285.139l.092-.223 1.297-3.15.005-.012a2.502 2.502 0 0 1-.405-.27z"/><path fill="#6BA43A" d="M5.337 10.485a2.408 2.408 0 0 1-.219-.282 2.66 2.66 0 0 1-.067-.105L1.92 11.985c.048.08.098.157.15.234 0 .003.002.006.004.008l.002.003.005.008.013.02h.001c.054.081.11.16.168.237l.004.005a1562.806 1562.806 0 0 1 .09.117l.08.1.02.024.075.089.033.037.065.073.037.04.017.018.048.052.02.02.086.09 2.584-2.584c-.03-.03-.058-.06-.085-.09z"/><path fill="#4D5A31" d="M8.761 10.74a2.473 2.473 0 0 1-.086.068l.006.01 1.883 3.127a5.865 5.865 0 0 0 .787-.614l-2.58-2.58-.01-.01z"/><path fill="#93D500" d="M10.326 14.094c.002 0 .003-.002.005-.003l-.005.003z"/><path fill="#93D500" d="M10.325 14.095z"/><path fill="#93D500" d="M10.33 14.091l.025-.013v-.001l-.024.014z"/><path fill="#93D500" d="M10.325 14.094h.001z"/><path fill="#93D500" d="M10.325 14.095l-.005-.008z"/><path fill="#93D500" d="M10.326 14.094a.035.035 0 0 0 0 0z"/><path fill="#93D500" d="M10.323 14.096l.001-.001z"/><path fill="#93D500" d="M10.325 14.095h-.001.001z"/><path fill="#93D500" d="M10.325 14.094h.001zm.006-.003l.024-.013-.024.013z"/><path fill="#93D500" d="M10.355 14.078v-.001z"/><path fill="#93D500" d="M10.322 14.101l.01-.006.007.01-.01.007z"/><path fill="#93D500" d="M10.322 14.096z"/><path fill="#93D500" d="M10.323 14.096h-.001.001z"/><path fill="#93D500" d="M10.29 13.97l-.063-.105-1.758-2.919a2.446 2.446 0 0 1-.22.116 2.497 2.497 0 0 1-1.78.139c-.04-.012-.078-.028-.117-.042-.04-.013-.079-.025-.117-.041l-1.297 3.148-.05.124-.044.105.01.005.01.004h.003c.03.013.062.024.093.036l.115.045.06.022c.405.144.826.244 1.253.3l.05.007.053.006.098.01.025.002c.04.004.081.008.121.01l.042.003c.035.003.07.005.106.006l.065.003.085.003.122.001h.028c.342 0 .683-.028 1.02-.084l.018-.003.107-.02.06-.01.063-.014.104-.023.02-.004a6.176 6.176 0 0 0 1.473-.55l.09-.051.109-.06.075-.043.002-.001-.004-.008.004.007h.002l.004-.003.024-.015-.063-.105zM5.608 6.887c.028-.023.057-.046.086-.067l-.006-.01-1.883-3.127a5.718 5.718 0 0 0-.787.614l2.58 2.58.01.01z"/><path fill="#4D5A31" d="M2.838 4.468c-.029.029-.057.06-.085.09-.029.029-.058.058-.086.089-.19.206-.365.422-.522.646l-.023.033a6.073 6.073 0 0 0-.124.188 6.13 6.13 0 0 0-.954 3.051l-.004.124-.002.124h3.654c0-.041.003-.082.005-.124.003-.041.003-.082.007-.124.048-.475.231-.94.551-1.33.026-.032.056-.061.084-.092.027-.03.053-.063.083-.092L2.838 4.468zm7.538-.907l-.015-.01-.097-.057-.056-.032c-.02-.01-.038-.021-.057-.032a7.652 7.652 0 0 0-.1-.053l-.015-.008a6.144 6.144 0 0 0-2.106-.656l-.052-.006a5.279 5.279 0 0 0-.1-.01l-.027-.003a6.318 6.318 0 0 0-.118-.01l-.046-.003-.101-.006-.054-.002v3.662c.188.02.374.06.554.121l2.696-2.695c-.1-.07-.202-.137-.306-.2z"/><path fill="#6BA43A" d="M4.077 3.656l-.064-.106z"/><path fill="#6BA43A" d="M4.013 3.549v.001z"/><path fill="#6BA43A" d="M7.06 2.67l-.124.003c-.258.01-.516.036-.772.08l-.017.002a7.435 7.435 0 0 0-.107.02l-.06.011a3.54 3.54 0 0 0-.168.036l-.019.004a6.181 6.181 0 0 0-1.474.55l-.09.051a6.66 6.66 0 0 0-.108.061l-.08.045H4.04l-.006.004-.021.012.064.107L5.9 6.68l.108-.06c.037-.02.074-.038.111-.056a2.484 2.484 0 0 1 1.066-.243V2.668l-.124.002z"/><path fill="#4D5A31" d="M13.322 8.511a6.661 6.661 0 0 0-.006-.098c0-.017-.002-.033-.003-.05a5.2 5.2 0 0 0-.01-.115l-.002-.03a7.482 7.482 0 0 0-.015-.14v-.005a7.51 7.51 0 0 0-.02-.139V7.93a6.14 6.14 0 0 0-.189-.864l-.001-.006a9.025 9.025 0 0 0-.041-.131l-.006-.018a8.272 8.272 0 0 0-.106-.3 4.543 4.543 0 0 0-.06-.15l-.027-.066a9.924 9.924 0 0 0-.037-.083 7.903 7.903 0 0 0-.067-.146l-.014-.03a7.259 7.259 0 0 0-.056-.111l-.008-.016a6.415 6.415 0 0 0-.064-.123l-.003-.004a6.137 6.137 0 0 0-.35-.567L9.542 8.01c.062.18.102.367.121.555h3.662c0-.019 0-.037-.002-.055z"/><path fill="#6BA43A" d="M9.676 8.813c0 .042-.004.083-.006.124-.002.042-.002.083-.006.124a2.48 2.48 0 0 1-.551 1.33c-.026.032-.056.062-.084.093-.027.03-.053.062-.083.092l2.584 2.583.085-.09.086-.09c.191-.206.366-.423.523-.648l.018-.027c.02-.027.038-.055.057-.083l.05-.075.023-.036c.592-.93.91-1.985.952-3.05l.003-.123.002-.124H9.676z"/><path fill="#424143" d="M14.415 1.583a1.711 1.711 0 0 0-2.743 1.97L7.944 7.281a1.711 1.711 0 1 0 .772.773l3.728-3.728a1.711 1.711 0 0 0 1.97-2.743z"/></g></svg>