<svg width="16" height="16" viewBox="0 0 16 16" fill="none" xmlns="http://www.w3.org/2000/svg"><rect id="frame" width="16" height="16" fill="none"/><g clip-path="url(#clip0)"><path fill-rule="evenodd" clip-rule="evenodd" d="M16 8.9v-2h-3V3.7L8.8 7.9l4.2 4.2V8.9h3z" fill="#3592C4"/><path fill-rule="evenodd" clip-rule="evenodd" d="M4 12.9v-2h3V7.7l4.2 4.2L7 16.1v-3.2H4z" fill="#3592C4"/><path d="M11.081.416a1.421 1.421 0 0 0-2.278 1.637L5.707 5.149a1.421 1.421 0 1 0 .642.641l3.096-3.096A1.421 1.421 0 0 0 11.081.416z" fill="#424143"/><path fill-rule="evenodd" clip-rule="evenodd" d="M.026 6.95A5.107 5.107 0 0 0 2.824 11v-.67h3.542V7.728a1.837 1.837 0 0 1-3.05-.779H.026zm3.44-1.412c-.12.216-.192.452-.217.691l-.006.021H.003c.002-.059.005-.117.01-.175l.568-2.01c.277-.527.642-1 1.077-1.398L3.61 5.075l-.145.463zm.8-.765a1.842 1.842 0 0 1 1.339-.11l2.418-2.417a5.08 5.08 0 0 0-2.92-.917 5.08 5.08 0 0 0-2.898.902l2.061 2.542zm4.992-1.305c.43.601.733 1.3.869 2.057L8 7.7 7.1 7l-.393.268c.221-.427.263-.922.127-1.375l2.424-2.425z" fill="#93D500"/><path d="M11.081.416a1.421 1.421 0 0 0-2.278 1.637L5.707 5.149a1.421 1.421 0 1 0 .642.641l3.096-3.096A1.421 1.421 0 0 0 11.081.416z" fill="#9AA7B0"/><path fill-rule="evenodd" clip-rule="evenodd" d="M0 6.5v-.067c0-1.573.712-2.98 1.83-3.916L3.9 5s-.665.544-.665 1.5H0z" fill="#6BA43A"/></g><defs><clipPath id="clip0"><path fill="#fff" d="M0 0h16v16H0z"/></clipPath></defs></svg>