<svg width="16" height="16" viewBox="0 0 16 16" fill="none" xmlns="http://www.w3.org/2000/svg">
<path d="M7.97617 14.5383C4.33479 14.5383 1.37219 11.576 1.37219 7.93444C1.37219 4.29291 4.33479 1.33059 7.97617 1.33059C11.6176 1.33059 14.5802 4.29319 14.5802 7.93457C14.5802 11.576 11.6176 14.5383 7.97617 14.5383Z" fill="#62B543" fill-opacity="0.7"/>
<path fill-rule="evenodd" clip-rule="evenodd" d="M1.04175 7.93444C1.04175 4.11077 4.15252 1 7.97618 1C11.7998 1 14.9108 4.11077 14.9108 7.93444C14.9108 11.7581 11.7998 14.8689 7.97618 14.8689C4.15252 14.8689 1.04175 11.7581 1.04175 7.93444ZM14.2496 7.93444C14.2496 4.46964 11.441 1.66105 7.97618 1.66105C4.51153 1.66105 1.7028 4.46978 1.7028 7.93444C1.7028 11.3991 4.51153 14.2078 7.97618 14.2078C11.441 14.2078 14.2496 11.3991 14.2496 7.93444Z" fill="#231F20" fill-opacity="0.7"/>
<path fill-rule="evenodd" clip-rule="evenodd" d="M5.40267 6.07383V6.07383C5.40522 6.18789 5.40778 6.30216 5.40033 6.41523C5.38162 6.65531 5.35224 6.89261 5.30428 7.12992C5.2376 7.46855 5.02691 7.72457 4.73637 7.9379C5.30178 8.30592 5.36568 8.87646 5.40297 9.45517C5.41046 9.58004 5.41366 9.70533 5.41686 9.83052V9.83053C5.42166 10.0182 5.42646 10.2056 5.44566 10.3911C5.46964 10.631 5.56293 10.6924 5.81105 10.7003C5.87756 10.7021 5.94515 10.7015 6.017 10.7009H6.01702H6.01704H6.01707H6.01714H6.01722H6.0173C6.05481 10.7006 6.09347 10.7003 6.13374 10.7003V11.4416C5.40047 11.567 4.79515 11.359 4.64572 10.7378C4.59762 10.5111 4.5656 10.2791 4.55507 10.0444C4.54726 9.92395 4.54952 9.80348 4.55179 9.68301C4.55418 9.5555 4.55658 9.42799 4.54703 9.30048C4.49366 8.62044 4.40564 8.39117 3.75513 8.35915V7.51388C3.80309 7.50321 3.84841 7.49517 3.89637 7.4899C4.25372 7.47119 4.40564 7.36182 4.48299 7.00988C4.52041 6.81263 4.54176 6.61261 4.54966 6.40996C4.55841 6.28351 4.56316 6.15619 4.56791 6.02867L4.56791 6.02867L4.56791 6.02867L4.56791 6.02866V6.02866C4.57769 5.76633 4.5875 5.50314 4.63228 5.24477C4.72556 4.69281 5.06697 4.42612 5.63501 4.3941C5.74011 4.38882 5.8464 4.39048 5.95913 4.39223C6.01797 4.39315 6.07856 4.3941 6.14164 4.3941V5.15149C6.11347 5.15345 6.08671 5.1561 6.06072 5.15868C6.01537 5.16317 5.97238 5.16743 5.92832 5.16743C5.46701 5.15135 5.44289 5.30867 5.40824 5.69263C5.39695 5.81811 5.39981 5.94584 5.40267 6.07383ZM6.2962 7.44721H6.28552C6.01883 7.4339 5.78956 7.64182 5.77612 7.90851C5.76281 8.17784 5.97073 8.40725 6.23742 8.42042H6.26944C6.5335 8.43649 6.76 8.2337 6.77608 7.96978V7.94317C6.78148 7.67384 6.56552 7.45261 6.2962 7.44721ZM7.4855 7.89784C7.4934 7.64182 7.7095 7.43917 7.96816 7.44721C8.2641 7.44457 8.45885 7.63655 8.46162 7.92723C8.46162 8.22857 8.27754 8.42055 7.98424 8.42055C7.68552 8.42055 7.48828 8.23384 7.48828 7.94317C7.4855 7.92723 7.4855 7.91392 7.4855 7.89784ZM9.68018 7.44721C9.40822 7.4418 9.18144 7.6579 9.17354 7.92986C9.17354 8.20182 9.39214 8.42042 9.6641 8.42042H9.6695C9.91485 8.46311 10.1628 8.2258 10.1789 7.94053C10.1921 7.67648 9.95214 7.44721 9.68018 7.44721ZM11.4881 7.07642C11.5653 7.36986 11.72 7.47382 12.0294 7.48713C12.0637 7.48901 12.0968 7.49324 12.1363 7.49828C12.155 7.50068 12.1752 7.50325 12.1975 7.50584V8.35125C12.1601 8.36455 12.1228 8.37246 12.0828 8.37786C11.6694 8.40448 11.4801 8.57511 11.4402 8.98846C11.4247 9.1417 11.4191 9.29677 11.4134 9.45208C11.4093 9.56426 11.4053 9.67656 11.3975 9.7884C11.3894 10.0791 11.3628 10.3696 11.3175 10.6576C11.2108 11.1804 10.8854 11.4416 10.3468 11.4737C10.2324 11.4807 10.118 11.4785 9.99901 11.4761C9.93774 11.4749 9.87524 11.4737 9.81089 11.4737V10.719C9.85009 10.717 9.8873 10.7145 9.92345 10.7121C9.98072 10.7082 10.0353 10.7046 10.0909 10.703C10.4136 10.6949 10.5254 10.591 10.5415 10.271C10.5538 10.0376 10.5615 9.80431 10.5692 9.57176C10.5731 9.45351 10.577 9.33547 10.5814 9.21772C10.6054 8.70832 10.7442 8.25505 11.216 7.93776C10.9468 7.74578 10.7309 7.51111 10.6721 7.19646C10.623 6.91591 10.5986 6.62966 10.5742 6.34395C10.5654 6.24131 10.5567 6.13874 10.5468 6.03653C10.5375 5.93951 10.5328 5.84251 10.5281 5.74586C10.5234 5.64851 10.5188 5.55152 10.5094 5.45519C10.4908 5.24449 10.3468 5.17242 10.1574 5.16978C10.0481 5.16715 9.93869 5.16715 9.79744 5.16715V4.43111C10.6882 4.28459 11.3014 4.58053 11.3574 5.42844C11.37 5.61638 11.3753 5.80506 11.3805 5.9937C11.3852 6.16372 11.39 6.33371 11.4001 6.50311C11.4108 6.69509 11.44 6.88984 11.4881 7.07642Z" fill="#231F20" fill-opacity="0.7"/>
</svg>
