<svg width="48" height="48" viewBox="0 0 48 48" fill="none" xmlns="http://www.w3.org/2000/svg">
<path d="M21.9652 20.2696L16.9826 0L0.678261 11.3478L0 32.8435L13.4609 29.0087L23.0087 23.3739L21.9652 20.2696Z" fill="#087DFA"/>
<path d="M16.9826 0L14.2695 12.313L36.7304 27.7565L47.8956 9.67826L16.9826 0Z" fill="url(#paint0_linear)"/>
<path d="M36.3913 13.6174L40.513 29.0348L48 9.67828L36.3913 13.6174Z" fill="#07C3F2"/>
<path d="M30.7826 17.3739L13.8 16.4348L0 32.8434L16.875 38.25L24.287 26.7913L30.7826 17.3739Z" fill="url(#paint1_linear)"/>
<path d="M48 29.6347L36.1304 17.2434L34.6957 1.64343L13.8 16.4347L13.5913 33.4695L23.7913 47.3478L41.6348 48L48 29.6347Z" fill="url(#paint2_linear)"/>
<path d="M39 9H9V39H39V9Z" fill="url(#paint3_linear)"/>
<path d="M23.25 34H12V35.9286H23.25V34Z" fill="white"/>
<path d="M12 12.2H14.8599L18.0253 17.207L21.1907 12.2H24.0506V24.01H21.4128V16.309L18.0253 21.3432H17.9698L14.61 16.3634V24.01H12V12.2Z" fill="white"/>
<path d="M27.0494 12.2H29.6872V24.01H27.0494V12.2Z" fill="white"/>
<defs>
<linearGradient id="paint0_linear" x1="14.2745" y1="13.8812" x2="47.8975" y2="13.8812" gradientUnits="userSpaceOnUse">
<stop offset="0.1179" stop-color="#087CFA"/>
<stop offset="0.8178" stop-color="#07C3F2"/>
</linearGradient>
<linearGradient id="paint1_linear" x1="2.7707" y1="39.5587" x2="23.8435" y2="19.5358" gradientUnits="userSpaceOnUse">
<stop offset="0.1179" stop-color="#087CFA"/>
<stop offset="0.8178" stop-color="#FF45ED"/>
</linearGradient>
<linearGradient id="paint2_linear" x1="3.62518" y1="-16.1948" x2="41.0007" y2="45.2628" gradientUnits="userSpaceOnUse">
<stop offset="0" stop-color="#087CFA"/>
<stop offset="0.8178" stop-color="#FF45ED"/>
</linearGradient>
<linearGradient id="paint3_linear" x1="23.9994" y1="1.70732" x2="23.9994" y2="28.6113" gradientUnits="userSpaceOnUse">
<stop offset="0.0842986" stop-color="#878585"/>
<stop offset="0.5377"/>
</linearGradient>
</defs>
</svg>
