<svg width="64" height="64" viewBox="0 0 64 64" fill="none" xmlns="http://www.w3.org/2000/svg">
<path d="M29.287 27.0261L22.6435 0L0.904348 15.1304L0 43.7913L17.9478 38.6783L30.6783 31.1652L29.287 27.0261Z" fill="#087DFA"/>
<path d="M22.6435 0L19.0261 16.4174L48.9739 37.0087L63.8608 12.9043L22.6435 0Z" fill="url(#paint0_linear)"/>
<path d="M48.5217 18.1565L54.0174 38.7131L64 12.9044L48.5217 18.1565Z" fill="#07C3F2"/>
<path d="M41.0435 23.1652L18.4 21.913L0 43.7913L22.5 51L32.3826 35.7217L41.0435 23.1652Z" fill="url(#paint1_linear)"/>
<path d="M64 39.513L48.1739 22.9913L46.2609 2.19128L18.4 21.913L18.1218 44.6261L31.7218 63.1304L55.5131 64L64 39.513Z" fill="url(#paint2_linear)"/>
<path d="M51 13H13V51H51V13Z" fill="url(#paint3_linear)"/>
<path d="M32.1444 44H18V46.3222H32.1444V44Z" fill="white"/>
<path d="M18 17.75H21.4484L25.2651 23.7872L29.0818 17.75H32.5302V31.99H29.3496V22.7045L25.2651 28.7745H25.1981L21.1471 22.7701V31.99H18V17.75Z" fill="white"/>
<path d="M36.1459 17.75H39.3265V31.99H36.1459V17.75Z" fill="white"/>
<defs>
<linearGradient id="paint0_linear" x1="19.0327" y1="18.5083" x2="63.8634" y2="18.5083" gradientUnits="userSpaceOnUse">
<stop offset="0.1179" stop-color="#087CFA"/>
<stop offset="0.8178" stop-color="#07C3F2"/>
</linearGradient>
<linearGradient id="paint1_linear" x1="3.69426" y1="52.7449" x2="31.7913" y2="26.0477" gradientUnits="userSpaceOnUse">
<stop offset="0.1179" stop-color="#087CFA"/>
<stop offset="0.8178" stop-color="#FF45ED"/>
</linearGradient>
<linearGradient id="paint2_linear" x1="4.83359" y1="-21.593" x2="54.6676" y2="60.3505" gradientUnits="userSpaceOnUse">
<stop offset="0" stop-color="#087CFA"/>
<stop offset="0.8178" stop-color="#FF45ED"/>
</linearGradient>
<linearGradient id="paint3_linear" x1="31.9493" y1="3.7641" x2="31.9493" y2="37.8425" gradientUnits="userSpaceOnUse">
<stop offset="0.0842986" stop-color="#878585"/>
<stop offset="0.5377"/>
</linearGradient>
</defs>
</svg>
