<svg xmlns="http://www.w3.org/2000/svg" xmlns:xlink="http://www.w3.org/1999/xlink" width="40" height="40" viewBox="0 0 40 40"><rect id="frame" width="40" height="40" fill="none"/><defs><path id="a" d="M0 0h36v12H0z"/></defs><g fill="none" fill-rule="evenodd" transform="translate(2 12)"><mask id="b" fill="#fff"><use xlink:href="#a"/></mask><path fill="#A49E96" d="M13.249 0a4.573 4.573 0 0 1 3.508 1.6c.498.556.901 1.252 1.243 1.994.615-1.369 1.514-2.532 2.622-3.092 1.351-.698 2.877-.65 4.225.034 1.177.592 2.207 1.623 3.14 2.756.731.888 1.408 1.859 2.159 2.713.397.443.823.858 1.31 1.087.648.304 1.414.017 1.878-.67.429-.643.402-1.754-.07-2.341-.301-.357-.815-.286-1.028.19-.185.377-.081.848.065 1.213-.388-.388-.776-.931-.774-1.638-.08-.818.361-1.539.889-1.825 1.03-.567 2.322-.079 2.973 1.17.625 1.165.674 2.697.565 4.084-.131 1.319-.667 2.549-1.461 3.312-1.115 1.096-2.529 1.435-3.874 1.412-1.293-.049-2.572-.45-3.77-1.115-2.003-1.108-3.877-2.64-5.946-3.525a5.514 5.514 0 0 0-2.149-.626c-.584-.005-1.138-.043-1.69.009a5.71 5.71 0 0 0-1.971.618c-2.104.9-4.006 2.471-6.048 3.581-1.723.923-3.633 1.352-5.462.839-1.023-.285-2.042-.908-2.732-2.017C.259 8.82-.024 7.558.004 6.32c-.033-1.167.153-2.407.714-3.316.521-.861 1.362-1.298 2.169-1.202.519.033 1.046.345 1.367.921.252.455.267 1.079.157 1.611a2.53 2.53 0 0 1-.715 1.141c.154-.358.247-.831.066-1.205-.225-.498-.778-.548-1.07-.139-.359.509-.434 1.341-.193 1.964.262.655.803 1.027 1.327 1.103.793.094 1.481-.582 2.062-1.238 1.204-1.426 2.288-3.059 3.624-4.265C10.613.679 11.91-.008 13.249 0" mask="url(#b)"/></g></svg>