<svg ti:v="1" width="16" height="16" viewBox="0 0 16 16" xmlns="http://www.w3.org/2000/svg" xmlns:ti="urn:schemas-jetbrains-com:tisvg"><rect id="frame" width="16" height="16" fill="none"/><g fill-rule="evenodd"><path d="M5 13.25v-5.5L10 5l5 2.75v5.5L10 16l-5-2.75z" fill="#F4F4F4"/><path d="M6 8.8v3.859l4 2.2v-3.86L6 8.802z" fill="#642D8C"/><path d="M14 8.8L10 11v3.859l4-2.2V8.8z" fill="#642D8C"/><path d="M13.379 8l-3.38 1.858L6.622 8 6 8.342V8.8L10 11l4-2.199v-.46L13.379 8z" fill="#EBEBEB"/><path d="M10 9.858L13.379 8 10 6.141l-3.379 1.86L10 9.857z" fill="#642D8C"/><path d="M9.459 0h-.266L8.39.308A9.609 9.609 0 0 1 5 .913 9.613 9.613 0 0 1 1.61.308L.807 0H.541L.285.991A9.007 9.007 0 0 0 0 3.242C0 7.031 2.196 10 5 10s5-2.969 5-6.758c0-.762-.096-1.519-.285-2.251L9.459 0z" fill="#F4F4F4"/><path d="M5 1.913a10.51 10.51 0 0 1-3.747-.672A8.016 8.016 0 0 0 1 3.242C1 6.422 2.791 9 5 9s4-2.578 4-5.758c0-.704-.092-1.377-.253-2.001A10.51 10.51 0 0 1 5 1.913z" fill="#313131"/><path d="M3 6c0 1 1.04 2 2 2s2-1 2-2c-.615.725-3.385.725-4 0z" fill="#EBEBEB"/><path d="M2.06 3a2.172 2.172 0 0 0-.06.5C2 4.329 2.448 5 3 5s1-.671 1-1.5c0-.176-.023-.343-.06-.5H2.06z" fill="#EBEBEB"/><path d="M6.06 3a2.172 2.172 0 0 0-.06.5C6 4.329 6.448 5 7 5s1-.671 1-1.5c0-.176-.023-.343-.06-.5H6.06z" fill="#EBEBEB"/></g></svg>