<svg ti:v="1" width="16" height="16" viewBox="0 0 16 16" xmlns="http://www.w3.org/2000/svg" xmlns:ti="urn:schemas-jetbrains-com:tisvg"><rect id="frame" width="16" height="16" fill="none"/><g fill-rule="evenodd"><path d="M4.489 7a2.488 2.488 0 0 0-1.99-1 2.5 2.5 0 1 0 0 5c.817 0 1.533-.396 1.99-1h.51V7h-.51z" fill="#F4F4F4"/><path d="M13 4H8C6.346 4 5 5.346 5 7v3c0 1.654 1.346 3 3 3h5c1.654 0 3-1.346 3-3V7c0-1.654-1.346-3-3-3z" fill="#F4F4F4"/><path d="M13 5H8c-1.1 0-2 .9-2 2v3c0 1.1.9 2 2 2h5c1.1 0 2-.9 2-2V7c0-1.1-.9-2-2-2z" fill="#313131"/><path d="M8 11c-.551 0-1-.448-1-1V7c0-.552.449-1 1-1h5c.551 0 1 .448 1 1v3c0 .552-.449 1-1 1H8z" fill="#EBEBEB"/><path d="M6 8H3.908A1.495 1.495 0 0 0 1 8.5a1.495 1.495 0 1 0 2.908.5H6V8z" fill="#313131"/><path d="M3 8.5a.5.5 0 1 1-1 0 .5.5 0 0 1 1 0z" fill="#EBEBEB"/></g></svg>