<svg ti:v="1" width="16" height="16" viewBox="0 0 16 16" xmlns="http://www.w3.org/2000/svg" xmlns:ti="urn:schemas-jetbrains-com:tisvg"><rect id="frame" width="16" height="16" fill="none"/><linearGradient id="a" x1=".5" y1="0" x2=".5" y2="1"><stop offset="0" stop-color="purple"/><stop offset="1" stop-color="#5B005B"/></linearGradient><path fill-rule="evenodd" d="M5 12.25V6.751L10 4l5 2.751v5.499L10 15l-5-2.75z" fill="url(#a)"/><linearGradient id="b" x1=".028" y1=".5" x2="1.015" y2=".5"><stop offset="0" stop-color="#FD59FF"/><stop offset="1" stop-color="#FF9CFF"/></linearGradient><path fill-rule="evenodd" d="M6 7.801v3.858l4 2.199V10L6 7.801z" fill="url(#b)"/><linearGradient id="c" x1=".028" y1=".5" x2="1.015" y2=".5"><stop offset="0" stop-color="#FD33FF"/><stop offset="1" stop-color="#FFA3FF"/></linearGradient><path fill-rule="evenodd" d="M14 7.801L10 10v3.858l4-2.199V7.801z" fill="url(#c)"/><path fill-rule="evenodd" d="M13.379 7l-3.38 1.858L6.622 7 6 7.342v.459L10 10l4-2.199v-.459L13.379 7z" fill="#FFE6FF"/><linearGradient id="d" x1=".5" y1=".028" x2=".5" y2="1.016"><stop offset="0" stop-color="#FD54FF"/><stop offset="1" stop-color="#FFBFFF"/></linearGradient><path fill-rule="evenodd" d="M10 8.858L13.379 7 10 5.142 6.621 7 10 8.858z" fill="url(#d)"/><path fill-rule="evenodd" d="M5 1V0H2v1H0v7h2v1h3V8h2V1H5z" fill="#877000"/><linearGradient id="e" x1=".5" y1="-.018" x2=".5" y2="1.036"><stop offset="0" stop-color="#FFFDDD"/><stop offset="1" stop-color="#FFF45E"/></linearGradient><path fill-rule="evenodd" d="M6 6H5v1h1M2 6H1v1h1m4-5H5v1h1M2 2H1v1h1m4 1v1H5v1H4v2H3V6H2V5H1V4h1V3h1V1h1v2h1v1h1z" fill="url(#e)"/><path fill-rule="evenodd" d="M3 5h1V4H3v1z" fill="#877000"/></svg>