<svg ti:v="1" width="16" height="16" viewBox="0 0 16 16" xmlns="http://www.w3.org/2000/svg" xmlns:ti="urn:schemas-jetbrains-com:tisvg"><rect id="frame" width="16" height="16" fill="none"/><linearGradient id="a" x1=".5" y1="0" x2=".5" y2="1"><stop offset="0" stop-color="purple"/><stop offset="1" stop-color="#5B005B"/></linearGradient><path fill-rule="evenodd" d="M1 12.25V6.751L6 4l5 2.751v5.499L6 15l-5-2.75z" fill="url(#a)"/><linearGradient id="b" x1=".028" y1=".5" x2="1.015" y2=".5"><stop offset="0" stop-color="#FD58FF"/><stop offset="1" stop-color="#FF9CFF"/></linearGradient><path fill-rule="evenodd" d="M2 7.801v3.858l4 2.199V10L2 7.801z" fill="url(#b)"/><linearGradient id="c" x1=".028" y1=".5" x2="1.015" y2=".5"><stop offset="0" stop-color="#FD32FF"/><stop offset="1" stop-color="#FFA3FF"/></linearGradient><path fill-rule="evenodd" d="M10 7.801L6 10v3.858l4-2.199V7.801z" fill="url(#c)"/><path fill-rule="evenodd" d="M9.379 7l-3.38 1.858L2.622 7 2 7.342v.459L6 10l4-2.199v-.459L9.379 7z" fill="#FFE6FF"/><linearGradient id="d" x1=".5" y1=".028" x2=".5" y2="1.016"><stop offset="0" stop-color="#FD53FF"/><stop offset="1" stop-color="#FFBFFF"/></linearGradient><path fill-rule="evenodd" d="M6 8.858L9.379 7 6 5.142 2.621 7 6 8.858z" fill="url(#d)"/><linearGradient id="e" x1=".5" y1="0" x2=".5" y2="1"><stop offset="0" stop-color="#FFF"/><stop offset="1" stop-color="#E6E6E6"/></linearGradient><path fill-rule="evenodd" d="M6 5a5 5 0 0 0 10 0A5 5 0 1 0 6 5z" fill="url(#e)"/><linearGradient id="f" x1=".5" y1="0" x2=".5" y2="1"><stop offset="0" stop-color="red"/><stop offset="1" stop-color="maroon"/></linearGradient><path fill-rule="evenodd" d="M11 4.011L8.937 1.948c-.389.263-.726.6-.989.989L10.01 5 7.948 7.064c.264.389.601.725.989.989L11 5.991l2.062 2.062c.389-.264.726-.6.99-.989L11.99 5l2.062-2.063a3.682 3.682 0 0 0-.99-.989L11 4.011z" fill="url(#f)"/></svg>