<svg ti:v="1" width="16" height="16" viewBox="0 0 16 16" xmlns="http://www.w3.org/2000/svg" xmlns:ti="urn:schemas-jetbrains-com:tisvg"><rect id="frame" width="16" height="16" fill="none"/><g fill-rule="evenodd"><path d="M1 12.25V6.751L6 4l5 2.751v5.499L6 15l-5-2.75z" fill="#242424"/><path d="M2 7.8v3.859l4 2.2v-3.86L2 7.802z" fill="#C4C4C4"/><path d="M10 7.8L6 10v3.859l4-2.2V7.8z" fill="#C4C4C4"/><path d="M9.379 7l-3.38 1.858L2.622 7 2 7.342v.459L6 10l4-2.199v-.459L9.379 7z" fill="#282828"/><path d="M6 8.858L9.379 7 6 5.141l-3.379 1.86L6 8.857z" fill="#C4C4C4"/><path d="M6 5a5 5 0 0 0 5 5 5 5 0 1 0 0-10 5 5 0 0 0-5 5z" fill="#242424"/><path d="M11 5.991L8.937 8.053a3.74 3.74 0 0 1-.989-.99L10.01 5 7.948 2.937c.263-.389.6-.726.989-.989L11 4.011l2.063-2.063c.389.263.726.6.989.99L11.99 5l2.062 2.063a3.74 3.74 0 0 1-.989.99L11 5.991z" fill="#F28365"/></g></svg>