<svg ti:v="1" width="16" height="16" viewBox="0 0 16 16" xmlns="http://www.w3.org/2000/svg" xmlns:ti="urn:schemas-jetbrains-com:tisvg"><rect id="frame" width="16" height="16" fill="none"/><linearGradient id="a" x1="0" y1=".5" x2="1" y2=".5"><stop offset="0" stop-color="#BA7900"/><stop offset="1" stop-color="#C69900"/></linearGradient><path fill-rule="evenodd" d="M1 4v2H0v3h1v2h6V4H1z" fill="url(#a)"/><path fill-rule="evenodd" d="M5 9H2v1h3m0-5H2v1h3M4 8H1V7h3v1z" fill="#FEFFA8"/><linearGradient id="b" x1=".5" y1="0" x2=".5" y2="1"><stop offset="0" stop-color="purple"/><stop offset="1" stop-color="#5B005B"/></linearGradient><path fill-rule="evenodd" d="M5 10.25V4.751L10 2l5 2.751v5.499L10 13l-5-2.75z" fill="url(#b)"/><linearGradient id="c" x1=".028" y1=".5" x2="1.015" y2=".5"><stop offset="0" stop-color="#FD59FF"/><stop offset="1" stop-color="#FF9CFF"/></linearGradient><path fill-rule="evenodd" d="M6 5.801v3.858l4 2.199V8L6 5.801z" fill="url(#c)"/><linearGradient id="d" x1=".028" y1=".5" x2="1.015" y2=".5"><stop offset="0" stop-color="#FD33FF"/><stop offset="1" stop-color="#FFA3FF"/></linearGradient><path fill-rule="evenodd" d="M14 5.801L10 8v3.858l4-2.199V5.801z" fill="url(#d)"/><path fill-rule="evenodd" d="M13.379 5l-3.38 1.858L6.622 5 6 5.342v.459L10 8l4-2.199v-.459L13.379 5z" fill="#FFE6FF"/><linearGradient id="e" x1=".5" y1=".028" x2=".5" y2="1.016"><stop offset="0" stop-color="#FD54FF"/><stop offset="1" stop-color="#FFBFFF"/></linearGradient><path fill-rule="evenodd" d="M10 6.858L13.379 5 10 3.142 6.621 5 10 6.858z" fill="url(#e)"/></svg>