<svg ti:v="1" width="16" height="16" viewBox="0 0 16 16" xmlns="http://www.w3.org/2000/svg" xmlns:ti="urn:schemas-jetbrains-com:tisvg"><rect id="frame" width="16" height="16" fill="none"/><linearGradient id="a" x1=".5" y1="0" x2=".5" y2="1"><stop offset="0" stop-color="purple"/><stop offset="1" stop-color="#5C005C"/></linearGradient><path fill-rule="evenodd" d="M7.743 1L2 4.161v6.679L7.743 14h.514L14 10.84V4.161L8.257 1h-.514z" fill="url(#a)"/><linearGradient id="b" x1=".028" y1=".5" x2="1.015" y2=".5"><stop offset="0" stop-color="#FD58FF"/><stop offset="1" stop-color="#FF9CFF"/></linearGradient><path fill-rule="evenodd" d="M3 10.25L8 13V8L3 5.25v5z" fill="url(#b)"/><linearGradient id="c" x1=".028" y1=".5" x2="1.015" y2=".5"><stop offset="0" stop-color="#FD33FF"/><stop offset="1" stop-color="#FFA3FF"/></linearGradient><path fill-rule="evenodd" d="M8 8v5l5-2.75v-5L8 8z" fill="url(#c)"/><path fill-rule="evenodd" d="M12.545 4.5L8 7 3.455 4.5 3 4.75v.5L8 8l5-2.75v-.5l-.455-.25z" fill="#FFF"/><linearGradient id="d" x1=".5" y1=".028" x2=".5" y2="1.015"><stop offset="0" stop-color="#FD54FF"/><stop offset="1" stop-color="#FFBFFF"/></linearGradient><path fill-rule="evenodd" d="M3.455 4.5L8 7l4.545-2.5L8 2 3.455 4.5z" fill="url(#d)"/><linearGradient id="e" x1=".5" y1="0" x2=".5" y2="1"><stop offset="0" stop-color="#BA6008"/><stop offset="1" stop-color="#702F00"/></linearGradient><path fill-rule="evenodd" d="M0 8.5c0 .465.091.918.272 1.348l.067-.03c.234.707.861 2.101 2.249 5.194l.443.988h.938l2.765-6.157A3.504 3.504 0 0 0 3.5 5C1.57 5 0 6.57 0 8.5z" fill="url(#e)"/><linearGradient id="f" x1=".5" y1="0" x2=".5" y2="1"><stop offset="0" stop-color="#FFF6E6"/><stop offset="1" stop-color="#F2B324"/></linearGradient><path fill-rule="evenodd" d="M1 8.5c0 .341.069.666.193.961L3.5 14.602l2.309-5.141A2.5 2.5 0 0 0 3.5 6 2.5 2.5 0 0 0 1 8.5z" fill="url(#f)"/><linearGradient id="g" x1=".5" y1="0" x2=".5" y2="1"><stop offset="0" stop-color="#702F00"/><stop offset="1" stop-color="#BA6008"/></linearGradient><path fill-rule="evenodd" d="M2 8.5a1.5 1.5 0 0 0 3 0 1.5 1.5 0 0 0-3 0z" fill="url(#g)"/></svg>