<svg ti:v="1" width="16" height="16" viewBox="0 0 16 16" xmlns="http://www.w3.org/2000/svg" xmlns:ti="urn:schemas-jetbrains-com:tisvg"><rect id="frame" width="16" height="16" fill="none"/><linearGradient id="a" x1="0" y1=".5" x2="1" y2=".5"><stop offset="0" stop-color="#5D5E62"/><stop offset="1" stop-color="#282B2D"/></linearGradient><path fill-rule="evenodd" d="M0 14h12V3H0v11z" fill="url(#a)"/><path fill-rule="evenodd" d="M11 3H1v10h10V3z" fill="#FFF"/><linearGradient id="b" x1="0" y1=".5" x2="1" y2=".5"><stop offset="0" stop-color="#F2F9FF"/><stop offset="1" stop-color="#CCEBFF"/></linearGradient><path fill-rule="evenodd" d="M2 12h8V3H2v9z" fill="url(#b)"/><linearGradient id="c" x1="0" y1=".5" x2="1" y2=".5"><stop offset="0" stop-color="#006293"/><stop offset="1" stop-color="#00214F"/></linearGradient><path fill-rule="evenodd" d="M6 6h3.001V5H6M3 6h2V5H3m3 3h3.001V7H6M3 8h2V7H3m3 3h3.001V9H6m-3 1h2V9H3v1z" fill="url(#c)"/><linearGradient id="d" x1=".5" y1="0" x2=".5" y2="1"><stop offset="0" stop-color="#003D62"/><stop offset="1" stop-color="#00144F"/></linearGradient><path fill-rule="evenodd" d="M0 0v3h12V0H0z" fill="url(#d)"/><linearGradient id="e" x1="0" y1=".5" x2=".993" y2=".5"><stop offset="0" stop-color="#33D6FF"/><stop offset="1" stop-color="#009CFF"/></linearGradient><path fill-rule="evenodd" d="M1 3h10V.999H1V3z" fill="url(#e)"/><linearGradient id="f" x1=".5" y1="-.156" x2=".5" y2="1.009"><stop offset="0" stop-color="#00991C"/><stop offset="1" stop-color="#005D11"/></linearGradient><path fill-rule="evenodd" d="M4 11.585V16h4.415l5.792-5.793-4.414-4.414L4 11.585z" fill="url(#f)"/><linearGradient id="g" x1=".185" y1=".118" x2=".89" y2=".824"><stop offset="0" stop-color="#87461A"/><stop offset="1" stop-color="#460000"/></linearGradient><path fill-rule="evenodd" d="M11.293 4.293l-1.5 1.5 4.414 4.414 1.5-1.5a.999.999 0 0 0 0-1.414l-3-3a.997.997 0 0 0-1.414 0z" fill="url(#g)"/><linearGradient id="h" x1=".5" y1="0" x2=".5" y2="1.017"><stop offset="0" stop-color="#FDFFC6"/><stop offset="1" stop-color="#FF9028"/></linearGradient><path fill-rule="evenodd" d="M11 6l3 3 1-1-3-3-1 1z" fill="url(#h)"/><linearGradient id="i" x1=".5" y1=".016" x2=".5" y2="1"><stop offset="0" stop-color="#B3FF00"/><stop offset="1" stop-color="#90CF00"/></linearGradient><path fill-rule="evenodd" d="M6 11l3 3 4-4-3-3m-5 8h3l-3-3v3z" fill="url(#i)"/><path fill-rule="evenodd" d="M10 8l-3 3h1l2-2V8z" fill="#FFF"/></svg>