<svg ti:v="1" width="16" height="16" viewBox="0 0 16 16" xmlns="http://www.w3.org/2000/svg" xmlns:ti="urn:schemas-jetbrains-com:tisvg"><rect id="frame" width="16" height="16" fill="none"/><path d="M1 15V3h6.586l2-2H16v14H1z" fill="#F4F4F4"/><path d="M15 14V2h-5L8 4H2v10h13z" fill="#C7781A"/><path d="M3 6h11v7H3z" fill="#EBEBEB"/><path d="M13 12.5a2.49 2.49 0 0 0-4.054-1.946A2 2 0 0 0 7 9H2a2 2 0 0 0-2 2v3a2 2 0 0 0 2 2h5a2 2 0 0 0 1.946-1.554A2.49 2.49 0 0 0 13 12.5zm0 0" fill="#F4F4F4"/><path d="M7 12h2.092a1.5 1.5 0 1 1 0 1H7zm0 0" fill="#0095D7"/><path d="M11 12.5a.5.5 0 1 1-1 0 .5.5 0 0 1 1 0z" fill="#EBEBEB"/><path d="M8 14a1 1 0 0 1-1 1H2a1 1 0 0 1-1-1v-3a1 1 0 0 1 1-1h5a1 1 0 0 1 1 1v3zm0 0" fill="#0095D7"/><path d="M2 11h5v3H2z" fill="#EBEBEB"/></svg>