<svg ti:v="1" width="16" height="16" viewBox="0 0 16 16" xmlns="http://www.w3.org/2000/svg" xmlns:ti="urn:schemas-jetbrains-com:tisvg"><rect id="frame" width="16" height="16" fill="none"/><linearGradient id="a" x1=".5" y1=".002" x2=".5" y2=".996"><stop offset="0" stop-color="#C28C21"/><stop offset="1" stop-color="#634933"/></linearGradient><path d="M1 15V3h6.586l2-2H16v14H1z" fill="url(#a)"/><linearGradient id="b" x1=".5" y1=".002" x2=".5" y2=".996"><stop offset="0" stop-color="#FFE9BD"/><stop offset="1" stop-color="#D4A24C"/></linearGradient><path d="M15 14V2h-5L8 4H2v10h13z" fill="url(#b)"/><linearGradient id="c" x1=".5" y1=".002" x2=".5" y2=".996"><stop offset="0" stop-color="#B88143"/><stop offset="1" stop-color="#8A4717"/></linearGradient><path d="M3 6h11v7H3z" fill="url(#c)"/><linearGradient id="d" x1=".499" y1=".019" x2=".499" y2="1.02"><stop offset="0" stop-color="#2857A0"/><stop offset="1" stop-color="#182E4F"/></linearGradient><path d="M10.5 10a2.486 2.486 0 0 0-1.554.554A2 2 0 0 0 7 9H2a2 2 0 0 0-2 2v3a2 2 0 0 0 2 2h5a2 2 0 0 0 1.946-1.554A2.5 2.5 0 1 0 10.5 10zm0 0" fill="url(#d)"/><path d="M7 12h2.092a1.5 1.5 0 1 1 0 1H7zm0 0" fill="#A6E1FF"/><path d="M11 12.5a.5.5 0 1 1-1 0 .5.5 0 0 1 1 0z" fill="#1A335A"/><linearGradient id="e" x1=".5" y1=".01" x2=".5" y2="1.001"><stop offset="0" stop-color="#FFF"/><stop offset="1" stop-color="#A6BADA"/></linearGradient><path d="M2 15h5a1 1 0 0 0 1-1v-3a1 1 0 0 0-1-1H2a1 1 0 0 0-1 1v3a1 1 0 0 0 1 1zm0 0" fill="url(#e)"/><linearGradient id="f" x1=".5" y1="0" x2=".5" y2="1.067"><stop offset="0" stop-color="#A6BADA"/><stop offset="1" stop-color="#FFF"/></linearGradient><path d="M2 11h5v3H2z" fill="url(#f)"/></svg>