<svg xmlns="http://www.w3.org/2000/svg" width="16" height="16" viewBox="0 0 16 16">
  <g fill="none" fill-rule="evenodd">
    <polygon fill="#F26522" points="2 8 7 3 7 13"/>
    <polygon fill="#62B543" points="9 8 14 3 14 8" transform="matrix(-1 0 0 1 23 0)"/>
    <path fill="#00A817" d="M13.429017,13.016019 C13.1503609,12.8925388 12.9475795,12.6465886 12.8879811,12.378922 C13.0371606,12.2760219 13.22183,12.2208473 13.4041742,12.224635 C13.5134583,12.2266551 13.6231095,12.2490028 13.7274985,12.2953394 C13.807167,12.3364994 13.8842655,12.3751343 13.963934,12.4368744 C14.2425902,12.6428009 14.0672216,13.1009905 13.708897,13.0804104 C13.6094031,13.0804104 13.5285108,13.057179 13.429017,13.016019 Z M12.3529417,13.7173811 C12.2335001,13.4291345 12.2746193,13.1201817 12.433834,12.8936751 C12.7124901,12.9555415 12.9674048,13.1396254 13.0868464,13.4278719 C13.1267418,13.510192 13.1491371,13.6157436 13.1491371,13.6981899 C13.1689624,14.0068903 12.7088187,14.1897116 12.4898834,13.942625 C12.4300402,13.880885 12.3928371,13.7997012 12.3529417,13.7173811 Z M12.4524355,10.0946657 C12.5345516,9.99429074 12.6520351,9.95414076 12.7633996,9.96600899 C12.9492928,9.98557895 13.1241718,10.1397397 13.1118116,10.3584183 C13.1118116,10.4408646 13.0894163,10.5464162 13.0495209,10.6287362 C12.9302017,10.9169828 12.6937662,11.1009405 12.4152324,11.1628068 C12.2360701,10.9363003 12.1961746,10.6273474 12.3156162,10.3391008 C12.3553892,10.2567807 12.3928371,10.1769858 12.4524355,10.0946657 Z M11.6377609,13.942625 C11.4386509,14.2102916 10.9771611,14.02242 10.9971088,13.6723071 C10.9971088,13.589987 11.0195041,13.4908746 11.0592771,13.4085545 C11.1787187,13.1201817 11.4150318,12.936224 11.693688,12.874484 C11.8529026,13.1215705 11.8940218,13.4303971 11.7745802,13.6981899 C11.7348072,13.78051 11.6973593,13.860305 11.6377609,13.942625 Z M10.399901,13.0996016 C10.0416988,13.1201817 9.86755396,12.6890112 10.1262624,12.462631 C10.1859832,12.4008909 10.2630817,12.3558169 10.3626979,12.3146568 C10.4672093,12.2683202 10.5767382,12.2460988 10.6860223,12.2438262 C10.8673874,12.2405435 11.045326,12.2943293 11.1960964,12.3983657 C11.1563234,12.6660323 10.9585595,12.91173 10.6799033,13.0353364 C10.6002349,13.0764965 10.4995172,13.0996016 10.399901,13.0996016 Z M10.4000234,10.9761977 C10.4995172,10.9761977 10.5804095,10.9994292 10.6799033,11.0405892 C10.9585595,11.1640694 11.1613409,11.4100196 11.2209393,11.6776862 C10.9821786,11.8423263 10.6599556,11.884749 10.3814219,11.7612688 C10.3017534,11.7201088 10.2245324,11.6750347 10.1449863,11.6132947 C9.88370794,11.400929 10.0239539,10.9928638 10.3378551,10.9761977 C10.3587818,10.9750614 10.3776281,10.9735463 10.4000234,10.9761977 Z M11.619037,10.1139831 C11.6787578,10.1757232 11.7160833,10.2567807 11.7558563,10.3391008 C11.8752979,10.6273474 11.834301,10.9364265 11.674964,11.1628068 C11.3964303,11.1009405 11.1413932,10.9169828 11.0219516,10.6287362 C10.9820562,10.5464162 10.9597833,10.4408646 10.9597833,10.3584183 C10.9597833,10.152618 11.1325819,10.0031288 11.3143142,9.98520018 C11.4233536,9.97446826 11.5369209,10.0136082 11.619037,10.1139831 Z M12.0316628,9 C10.3560241,9 9,10.381047 9,12.0875163 C9,13.589974 10.0575117,14.8383728 11.4531169,15.1160651 L11.4531169,16 C13.2674607,15.7213809 14.8739751,14.254605 14.9938591,12.3291793 C15.1137431,10.4037535 13.7073016,9 12.0316628,9 Z"/>
  </g>
</svg>
