<svg xmlns="http://www.w3.org/2000/svg" width="16" height="16" viewBox="0 0 16 16"><rect id="frame" width="16" height="16" fill="none"/><g fill="none" fill-rule="evenodd"><path fill="#9AA7B0" fill-opacity=".8" d="M7 1L3 5h4z"/><path fill="#9AA7B0" fill-opacity=".8" d="M8 1v5H3v2h10V1z"/><path fill="#F26522" fill-opacity=".7" d="M1 16h15V9H1z"/><path fill="#231F20" fill-opacity=".7" d="M5.15 13l-.654-1.6L3.85 13h1.3zm-1.041-3h.781L7 15H5.9l-.5-1H3.6l-.5 1H2l2.109-5z"/><path fill="#231F20" fill-opacity=".7" d="M8.395 13.588c.23.25.443.412.892.412.526 0 .713-.412.713-.702V10h1v3.588C11 14.32 10.327 15 9.45 15c-.821 0-1.3-.237-1.65-.68l.595-.732z"/></g></svg>