<svg xmlns="http://www.w3.org/2000/svg" width="16" height="16" viewBox="0 0 16 16"><rect id="frame" width="16" height="16" fill="none"/><g fill="none" fill-rule="evenodd"><path fill="#F26522" fill-opacity=".7" d="M1 16h15V9H1z"/><path fill="#9AA7B0" fill-opacity=".8" d="M7 1L3 5h4z"/><path fill="#9AA7B0" fill-opacity=".8" d="M8 1v5H3v2h10V1z"/><path fill="#231F20" fill-opacity=".7" d="M3 11v3h.649C4.578 14 5 13.493 5 12.515V12.5c0-.978-.422-1.5-1.351-1.5H3zm-1-1h1.649C5.04 10 6 11.093 6 12.5c0 1.421-.96 2.5-2.351 2.5H2v-5z"/><path fill="#231F20" fill-opacity=".7" d="M12 11v3h.649c.929 0 1.351-.507 1.351-1.485V12.5c0-.978-.422-1.5-1.351-1.5H12zm-1-1h1.649C14.04 10 15 11.093 15 12.5c0 1.421-.96 2.5-2.351 2.5H11v-5z"/><path fill="#231F20" fill-opacity=".7" d="M8 11H6.5v-1h4v1H9v4H8z"/></g></svg>