<svg xmlns="http://www.w3.org/2000/svg" width="16" height="16" viewBox="0 0 16 16"><rect id="frame" width="16" height="16" fill="none"/><g fill="none" fill-rule="evenodd"><path fill="#9AA7B0" fill-opacity=".8" d="M7 1L3 5h4z"/><path fill="#9AA7B0" fill-opacity=".8" d="M8 1v5H3v2.033c.164-.019.33-.033.5-.033C5.981 8 8 10.019 8 12.5c0 .931-.293 1.786-.783 2.5H13V1H8z"/><path fill="#F26522" fill-opacity=".7" d="M7 12.5a3.5 3.5 0 1 1-7 0 3.5 3.5 0 0 1 7 0"/><path fill="#231F20" fill-opacity=".7" d="M2.395 13.588c.23.25.443.412.892.412.526 0 .713-.412.713-.702V10h1v3.588C5 14.32 4.327 15 3.45 15c-.821 0-1.3-.237-1.65-.68l.595-.732z"/></g></svg>