<svg xmlns="http://www.w3.org/2000/svg" width="16" height="16" viewBox="0 0 16 16"><rect id="frame" width="16" height="16" fill="none"/><g fill="#9AA7B0" fill-rule="evenodd"><path fill-opacity=".8" d="M7 1L3 5h4z"/><path fill-opacity=".8" d="M6.416 13.896c0-.084.019-.868.016-.905-.04-.005-1.432-.008-1.432-.008v-2.968s1.391-.003 1.431-.008c.004-.038-.015-.83-.015-.915 0-2.21 1.692-2.804 3.168-3.076l.916-.168.694 2.692s-1.566.484-1.619.519c.007.014.015 1.11.012 1.166l1.528-1.55 1.676 2.184.209-.366V1.001H8v5H3v9h3.609a3.214 3.214 0 0 1-.193-1.104"/><path d="M11.754 15l-2.262-2.854c.069.242.104.506.104.794 0 .123-.011 1.01-.005 1.036l.002-.002c.03 0 1.6.485 1.6.485l-.138.541h.699z" opacity=".5"/><path d="M7.416 13.896c0-.157.021-.578.021-.757 0-.82-.31-1.155-1.168-1.155H6v-.969h.269c.858 0 1.168-.347 1.168-1.167 0-.179-.021-.598-.021-.757 0-1.071.466-1.744 2.349-2.09l.216.84c-1.241.347-1.406.673-1.406 1.44 0 .211.021.557.021.778 0 .82-.393 1.22-1.076 1.442.693.23 1.076.62 1.076 1.44 0 .22-.021.566-.021.777 0 .768.165 1.094 1.406 1.44L9.765 16c-1.883-.348-2.349-1.02-2.349-2.104"/><path d="M12.914 12.662l-1.894-2.467-.997 1.011 2.988 3.769 2.987-4.964L15.004 9z"/></g></svg>