<svg xmlns="http://www.w3.org/2000/svg" width="16" height="16" viewBox="0 0 16 16"><rect id="frame" width="16" height="16" fill="none"/><g fill="none" fill-rule="evenodd"><path fill="#9AA7B0" fill-opacity=".8" d="M7 1L3 5h4z"/><path fill="#9AA7B0" fill-opacity=".8" d="M13 8.073A4.5 4.5 0 0 0 8.92 15H3V6h5V1h5v7.073z"/><path fill="#231F20" fill-opacity=".7" d="M5 12h3v-1H5v1zm0-2h4V9H5v1zm0-2h6V7H5v1z"/><path fill="#40B6E0" d="M13.333 11.286l1.981-1.143.7 1.212-1.981 1.144 1.981 1.144-.7 1.212-1.981-1.144V16h-1.4V13.71l-1.981 1.144-.7-1.212 1.981-1.144-1.981-1.144.7-1.212 1.981 1.143V9h1.4v2.287z"/></g></svg>