<svg ti:v="1" width="16" height="16" viewBox="0 0 16 16" xmlns="http://www.w3.org/2000/svg" xmlns:ti="urn:schemas-jetbrains-com:tisvg"><rect id="frame" width="16" height="16" fill="none"/><g fill-rule="evenodd"><path d="M14 14H0V0h14v14z" fill="#242424"/><path d="M13 13H1V1h12v12z" fill="#C4C4C4"/><path d="M8.184 7.998l-1.07-3.072a3.678 3.678 0 0 1-.101-.484c-.054.204-.09.366-.13.484L5.827 7.998M10.616 11H9.216l-.692-1.96h-3.03L4.829 11H3.43l2.884-7.702h1.439L10.617 11z" fill="#282828"/><path d="M12.5 7h-2L7 14l1 2h7l1-2-3.5-7z" fill="#242424"/><path d="M11.89 8.016h-.78l-3.016 6L8.61 15h5.765l.485-1-2.97-5.984z" fill="#FFCA00"/><path d="M12 13h-1v1h1m0-2h-1v-2h1v2z"/></g></svg>