<svg ti:v="1" width="16" height="16" viewBox="0 0 16 16" xmlns="http://www.w3.org/2000/svg" xmlns:ti="urn:schemas-jetbrains-com:tisvg"><rect id="frame" width="16" height="16" fill="none"/><linearGradient id="a" x1=".5" y1="0" x2=".5" y2="1"><stop offset="0" stop-color="#801B00"/><stop offset="1" stop-color="#490F00"/></linearGradient><path fill-rule="evenodd" d="M0 14h14V0H0v14z" fill="url(#a)"/><linearGradient id="b" x1=".5" y1="0" x2=".5" y2="1"><stop offset="0" stop-color="#991F00"/><stop offset="1" stop-color="#D3360B"/></linearGradient><path fill-rule="evenodd" d="M1 13h12V.999H1V13z" fill="url(#b)"/><path fill-rule="evenodd" d="M8.184 7.998l-1.07-3.072a3.678 3.678 0 0 1-.101-.484c-.054.204-.09.366-.13.484L5.827 7.998M10.616 11H9.216l-.692-1.96h-3.03L4.829 11H3.43l2.884-7.702h1.439L10.617 11z" fill="#FFF"/><path fill-rule="evenodd" d="M13 2H1V1h12v1z" fill="#C71606"/><linearGradient id="c" x1=".5" y1="0" x2=".5" y2="1"><stop offset="0" stop-color="#966B00"/><stop offset="1" stop-color="#7C4200"/></linearGradient><path fill-rule="evenodd" d="M10.5 7L7 14l1 2h7l1-2-3.5-7h-2z" fill="url(#c)"/><linearGradient id="d" x1=".5" y1="0" x2=".5" y2="1"><stop offset="0" stop-color="#FFE100"/><stop offset="1" stop-color="#FFB11E"/></linearGradient><path fill-rule="evenodd" d="M11.109 8.016l-3.015 5.999.516.985h5.765l.484-1-2.969-5.984h-.781z" fill="url(#d)"/><path fill-rule="evenodd" d="M12 13h-1v1h1m0-2h-1v-2h1v2z"/></svg>