<svg ti:v="1" width="16" height="16" viewBox="0 0 16 16" xmlns="http://www.w3.org/2000/svg" xmlns:ti="urn:schemas-jetbrains-com:tisvg"><rect id="frame" width="16" height="16" fill="none"/><linearGradient id="a" x1=".5" y1="0" x2=".5" y2="1"><stop offset="0" stop-color="#801B00"/><stop offset="1" stop-color="#490F00"/></linearGradient><path fill-rule="evenodd" d="M1 15h14V1H1v14z" fill="url(#a)"/><linearGradient id="b" x1=".5" y1="0" x2=".5" y2="1"><stop offset="0" stop-color="#991F00"/><stop offset="1" stop-color="#D3360B"/></linearGradient><path fill-rule="evenodd" d="M2 14h12V2H2v12z" fill="url(#b)"/><path fill-rule="evenodd" d="M9.184 8.998l-1.07-3.072a3.678 3.678 0 0 1-.101-.484c-.054.204-.09.366-.13.484L6.827 8.998m4.79 3.001h-1.401l-.692-1.96h-3.03L5.829 12H4.43l2.884-7.701h1.439l2.863 7.701z" fill="#FFF"/><path fill-rule="evenodd" d="M14 3H2V2h12v1z" fill="#C71606"/></svg>