<svg ti:v="1" width="16" height="16" viewBox="0 0 16 16" xmlns="http://www.w3.org/2000/svg" xmlns:ti="urn:schemas-jetbrains-com:tisvg"><rect id="frame" width="16" height="16" fill="none"/><linearGradient id="a" x1=".5" y1="0" x2=".5" y2="1"><stop offset="0" stop-color="#003D85"/><stop offset="1" stop-color="#002451"/></linearGradient><path fill-rule="evenodd" d="M1 15h14V1H1v14z" fill="url(#a)"/><linearGradient id="b" x1=".5" y1="0" x2=".5" y2="1"><stop offset="0" stop-color="#004EAD"/><stop offset="1" stop-color="#3A95FF"/></linearGradient><path fill-rule="evenodd" d="M2 14h12V1.999H2V14z" fill="url(#b)"/><path fill-rule="evenodd" d="M5.46 11.683v-1.364c.123.112.269.212.438.3.168.09.347.165.537.226.189.062.379.109.568.142.188.034.363.05.522.05.557 0 .972-.092 1.245-.278.273-.185.409-.454.409-.807a.883.883 0 0 0-.136-.493 1.456 1.456 0 0 0-.382-.381 3.913 3.913 0 0 0-.576-.331 48.785 48.785 0 0 0-.71-.332 11.89 11.89 0 0 1-.757-.44 3.277 3.277 0 0 1-.61-.492 2.048 2.048 0 0 1-.405-.61 1.977 1.977 0 0 1-.148-.795c0-.375.084-.701.253-.977.169-.276.392-.505.668-.685.276-.18.59-.314.943-.4a4.447 4.447 0 0 1 1.08-.131c.835 0 1.444.094 1.827.283v1.308c-.453-.326-1.036-.49-1.748-.49-.197 0-.393.019-.587.056a1.756 1.756 0 0 0-.524.184 1.131 1.131 0 0 0-.376.329.806.806 0 0 0-.144.484c0 .178.037.332.11.462.075.13.184.248.326.356.144.108.318.213.524.314.206.103.444.213.716.332.278.144.54.297.787.456.247.16.464.336.65.529.189.193.337.407.446.643.11.236.164.504.164.804 0 .405-.081.746-.245 1.024a1.976 1.976 0 0 1-.66.68c-.275.174-.594.3-.954.378-.36.078-.74.117-1.141.117-.133 0-.297-.01-.492-.031a6.977 6.977 0 0 1-.598-.089 5.53 5.53 0 0 1-.58-.142 1.794 1.794 0 0 1-.44-.19z" fill="#FFF"/><path fill-rule="evenodd" d="M14 3H2V2h12v1z" fill="#007AFA"/></svg>