<svg ti:v="1" width="16" height="16" viewBox="0 0 16 16" xmlns="http://www.w3.org/2000/svg" xmlns:ti="urn:schemas-jetbrains-com:tisvg"><rect id="frame" width="16" height="16" fill="none"/><linearGradient id="a" x1=".5" y1=".003" x2=".5" y2="1.003"><stop offset="0" stop-color="#7C6D47"/><stop offset="1" stop-color="#60492F"/></linearGradient><path fill-rule="evenodd" d="M4 0v14h12V4.586L11.414 0H4z" fill="url(#a)"/><linearGradient id="b" x1=".5" y1=".004" x2=".5" y2="1"><stop offset="0" stop-color="#E3D8BC"/><stop offset="1" stop-color="#E3CDB3"/></linearGradient><path fill-rule="evenodd" d="M5 1v12h10V5l-4-4H5z" fill="url(#b)"/><linearGradient id="c" x1=".5" y1=".012" x2=".5" y2="1.006"><stop offset="0" stop-color="#FFF3D4"/><stop offset="1" stop-color="#FFF"/></linearGradient><path fill-rule="evenodd" d="M7 3v8h6V5h-2V3H7z" fill="url(#c)"/><linearGradient id="d" x1=".5" y1=".021" x2=".5" y2="1.01"><stop offset="0" stop-color="#757C47"/><stop offset="1" stop-color="#5D602F"/></linearGradient><path fill-rule="evenodd" d="M1 6L0 7v3l6 6 4-4-6-6H1z" fill="url(#d)"/><linearGradient id="e" x1=".5" y1=".021" x2=".5" y2="1.011"><stop offset="0" stop-color="#DCE3BC"/><stop offset="1" stop-color="#E2E3B3"/></linearGradient><path fill-rule="evenodd" d="M1.414 7L1 7.414v2.172l5 4.999L8.585 12 3.586 7H1.414z" fill="url(#e)"/><linearGradient id="f" x1=".5" y1=".008" x2=".5" y2="1.008"><stop offset="0" stop-color="#5D602F"/><stop offset="1" stop-color="#787C47"/></linearGradient><path fill-rule="evenodd" d="M2 8.5a.5.5 0 0 0 1 0 .499.499 0 1 0-1 0z" fill="url(#f)"/><linearGradient id="g" x1=".5" y1="-.019" x2=".5" y2=".998"><stop offset="0" stop-color="#FBFFD4"/><stop offset="1" stop-color="#FFF"/></linearGradient><path fill-rule="evenodd" d="M2.914 10.085L6 13.172 7.172 12 4.085 8.914l-1.171 1.171z" fill="url(#g)"/></svg>