<svg ti:v="1" width="16" height="16" viewBox="0 0 16 16" xmlns="http://www.w3.org/2000/svg" xmlns:ti="urn:schemas-jetbrains-com:tisvg"><rect id="frame" width="16" height="16" fill="none"/><g fill-rule="evenodd"><path d="M4 14V0h7.414L16 4.586V14H4z" fill="#242424"/><path d="M11 1H5v12h10V5l-4-4z" fill="#C4C4C4"/><path d="M11 5V3H7v8h6V5h-2z" fill="#282828"/><path d="M6 16l-6-6V7l1-1h3l6 6-4 4z" fill="#242424"/><path d="M1 9.586V7.414L1.414 7h2.172l5 5L6 14.586l-5-5z" fill="#C4C4C4"/><path d="M3 8.5a.5.5 0 1 1-1 0 .5.5 0 0 1 1 0z" fill="#282828"/><path d="M4.086 8.914l-1.172 1.172L6 13.172 7.172 12 4.086 8.914z" fill="#282828"/></g></svg>