<svg ti:v="1" width="16" height="16" viewBox="0 0 16 16" xmlns="http://www.w3.org/2000/svg" xmlns:ti="urn:schemas-jetbrains-com:tisvg"><rect id="frame" width="16" height="16" fill="none"/><g fill-rule="evenodd"><path d="M15 15H1V1h14v14z" fill="#242424"/><path d="M14 14H2V2h12v12z" fill="#C4C4C4"/><path d="M11.344 11.455c-.831.453-1.757.679-2.777.679-1.181 0-2.136-.367-2.868-1.102-.73-.735-1.096-1.707-1.096-2.917 0-1.236.4-2.25 1.2-3.042.8-.792 1.815-1.188 3.048-1.188.887 0 1.633.13 2.237.389v1.364c-.612-.408-1.342-.612-2.187-.612-.85 0-1.547.28-2.09.84-.544.561-.817 1.286-.817 2.177 0 .916.235 1.637.703 2.162.466.525 1.1.788 1.903.788.549 0 1.024-.106 1.425-.317V8.777H8.344V7.664h3v3.791z" fill="#282828"/></g></svg>