<svg ti:v="1" width="16" height="16" viewBox="0 0 16 16" xmlns="http://www.w3.org/2000/svg" xmlns:ti="urn:schemas-jetbrains-com:tisvg"><rect id="frame" width="16" height="16" fill="none"/><linearGradient id="a" x1=".5" y1="0" x2=".5" y2="1"><stop offset="0" stop-color="#917A00"/><stop offset="1" stop-color="#654800"/></linearGradient><path fill-rule="evenodd" d="M5.653 2.332L3.419 1.271 1.27 3.419l1.061 2.234L0 6.483v3.034l2.331.831-1.061 2.233 2.149 2.148 2.234-1.061L6.482 16H9.52l.829-2.332 2.233 1.061 2.148-2.148-1.061-2.233L16 9.517V6.483l-2.331-.83 1.061-2.234-2.148-2.148-2.233 1.061L9.52.001 6.483 0l-.83 2.332z" fill="url(#a)"/><linearGradient id="b" x1=".5" y1="0" x2=".5" y2="1"><stop offset="0" stop-color="#FDFFF2"/><stop offset="1" stop-color="#E8A300"/></linearGradient><path fill-rule="evenodd" d="M6.388 3.251l-.606.249-2.155-1.023-1.151 1.15L3.5 5.781l-.248.604L1 7.187v1.626l2.252.802.248.604-1.024 2.154 1.151 1.15L5.782 12.5l.606.248L7.189 15h1.624l.801-2.252.605-.249 2.155 1.024 1.15-1.15-1.024-2.154.248-.604L15 8.813V7.187l-2.252-.802-.248-.604 1.024-2.154-1.15-1.15-2.155 1.024-.605-.248-.801-2.252L7.189 1l-.801 2.251z" fill="url(#b)"/><linearGradient id="c" x1=".5" y1="0" x2=".5" y2="1"><stop offset="0" stop-color="#D19300"/><stop offset="1" stop-color="#FFFFFB"/></linearGradient><path fill-rule="evenodd" d="M5 8a3 3 0 1 0 6 0 3 3 0 1 0-6 0z" fill="url(#c)"/><path fill-rule="evenodd" d="M9.5 8a1.5 1.5 0 1 1-3 0 1.5 1.5 0 0 1 3 0z" fill="#3C2C0F"/></svg>