<svg ti:v="1" width="16" height="16" viewBox="0 0 16 16" xmlns="http://www.w3.org/2000/svg" xmlns:ti="urn:schemas-jetbrains-com:tisvg"><rect id="frame" width="16" height="16" fill="none"/><linearGradient id="a" x1=".5" y1="0" x2=".5" y2="1"><stop offset="0" stop-color="#743780"/><stop offset="1" stop-color="#3F1746"/></linearGradient><path fill-rule="evenodd" d="M1 15h14V1H1v14z" fill="url(#a)"/><linearGradient id="b" x1=".5" y1="0" x2=".5" y2="1"><stop offset="0" stop-color="#9E22B3"/><stop offset="1" stop-color="#E027FF"/></linearGradient><path fill-rule="evenodd" d="M2 14h12V1.999H2V14z" fill="url(#b)"/><path fill-rule="evenodd" d="M11.118 8.772c0 2.241-1.062 3.362-3.184 3.362-2.034 0-3.05-1.078-3.05-3.234V4.018H6.21v4.609c0 1.567.608 2.349 1.825 2.349 1.173 0 1.76-.755 1.76-2.265V4.018h1.324v4.754z" fill="#FFF"/><path fill-rule="evenodd" d="M14 3H2V2h12v1z" fill="#DF29FF"/></svg>