<svg ti:v="1" width="16" height="16" viewBox="0 0 16 16" xmlns="http://www.w3.org/2000/svg" xmlns:ti="urn:schemas-jetbrains-com:tisvg"><rect id="frame" width="16" height="16" fill="none"/><g fill-rule="evenodd"><path d="M2 1v15h13V5l-4-4H2z" fill="#242424"/><path d="M3 15V2h7.586L14 5.414V15H3z" fill="#282828"/><path d="M12 4h-1v1h1m0 1h-1v1h1m-2-5H9v1h1m4 11h-1v1h1m-8-1H5v1h1m-2-1H3v1h1m8-1h-1v1h1m-2-1H9v1h1m-2-1H7v1h1m-4-3H3v1h1m0-3H3v1h1m0-3H3v1h1m0-3H3v1h1m0-3H3v1h1m10 7h-1v1h1m0-3h-1v1h1m0-3h-1v1h1M4 2H3v1h1m6 1H9v1h1m0 1H9v1h1m4-1h-1v1h1M8 2H7v1h1M6 3H5V2h1v1z" fill="#C4C4C4"/><path d="M5 1V0H2v1H0v7h2v1h3V8h2V1H5z" fill="#242424"/><path d="M6 6H5v1h1M2 6H1v1h1m4-5H5v1h1M2 2H1v1h1m4 1v1H5v1H4v2H3V6H2V5H1V4h1V3h1V1h1v2h1v1h1z" fill="#E9A34C"/><path d="M3 5h1V4H3v1z" fill="#282828"/></g></svg>