<svg ti:v="1" width="16" height="16" viewBox="0 0 16 16" xmlns="http://www.w3.org/2000/svg" xmlns:ti="urn:schemas-jetbrains-com:tisvg"><rect id="frame" width="16" height="16" fill="none"/><g fill-rule="evenodd"><path d="M14 15H2V1h12v14z" fill="#F4F4F4"/><path d="M13 14H3V2h10v12z" fill="#313131"/><path d="M11 12H5V4h6v8z" fill="#EBEBEB"/><path d="M8 7H6v1h2m2-2H6V5h4v1z" fill="#313131"/><path d="M16 5H9V0h7v5z" fill="#F4F4F4"/><path d="M15 4h-5V1h5v3z" fill="#EBEBEB"/><path d="M14 3.999h1V3h-1m-4 1h1V3h-1m2 1h1V3h-1m3-2h-1v1h1m-2-1h-1v1h1m-2-.001h-1V1h1v.999z" fill="#313131"/><path d="M16 11H9V6h7v5z" fill="#F4F4F4"/><path d="M15 10h-5V7h5v3z" fill="#EBEBEB"/><path d="M14 9.999h1V9h-1m-4 1h1V9h-1m2 1h1V9h-1m3-2h-1v1h1m-2-1h-1v1h1m-2-.001h-1V7h1v.999z" fill="#313131"/><path d="M2 16v-2H0v-4h2V8h4v2h2v4H6v2H2z" fill="#F4F4F4"/><path d="M7 11H5V9H3v2H1v2h2v2h2v-2h2v-2z" fill="#378A33"/></g></svg>