<svg ti:v="1" width="16" height="16" viewBox="0 0 16 16" xmlns="http://www.w3.org/2000/svg" xmlns:ti="urn:schemas-jetbrains-com:tisvg"><rect id="frame" width="16" height="16" fill="none"/><linearGradient id="a" x1=".5" y1=".011" x2=".5" y2="1.006"><stop offset="0" stop-color="#566980"/><stop offset="1" stop-color="#2C3641"/></linearGradient><path fill-rule="evenodd" d="M2 1v15h13V5l-4-4H2z" fill="url(#a)"/><linearGradient id="b" x1=".5" y1=".011" x2=".5" y2="1.006"><stop offset="0" stop-color="#001E41"/><stop offset="1" stop-color="#566980"/></linearGradient><path fill-rule="evenodd" d="M3 15V2h7.586L14 5.414V15H3z" fill="url(#b)"/><path fill-rule="evenodd" d="M12 4h-1v1h1m0 1h-1v1h1m-2-5H9v1h1m4 11h-1v1h1m-8-1H5v1h1m-2-1H3v1h1m8-1h-1v1h1m-2-1H9v1h1m-2-1H7v1h1m-4-3H3v1h1m0-3H3v1h1m0-3H3v1h1m0-3H3v1h1m0-3H3v1h1m10 7h-1v1h1m0-3h-1v1h1m0-3h-1v1h1M4 2H3v1h1m6 1H9v1h1m0 1H9v1h1m4-1h-1v1h1M8 2H7v1h1M6 3H5V2h1v1z" fill="#FFF"/><path fill-rule="evenodd" d="M5 1V0H2v1H0v7h2v1h3V8h2V1H5z" fill="#877000"/><linearGradient id="c" x1=".5" y1="-.018" x2=".5" y2="1.036"><stop offset="0" stop-color="#FFFDDE"/><stop offset="1" stop-color="#FFF45E"/></linearGradient><path fill-rule="evenodd" d="M6 6H5v1h1M2 6H1v1h1m4-5H5v1h1M2 2H1v1h1m4 1v1H5v1H4v2H3V6H2V5H1V4h1V3h1V1h1v2h1v1h1z" fill="url(#c)"/><path fill-rule="evenodd" d="M3 5h1V4H3v1z" fill="#877000"/></svg>