<svg ti:v="1" width="16" height="16" viewBox="0 0 16 16" xmlns="http://www.w3.org/2000/svg" xmlns:ti="urn:schemas-jetbrains-com:tisvg"><rect id="frame" width="16" height="16" fill="none"/><g fill-rule="evenodd"><path d="M14 16H3V1h11v15z" fill="#242424"/><path d="M13 15H4V2h9v13z" fill="#282828"/><path d="M9 8H8v1h1M5 8H4v1h1m8-1h-1v1h1m0-5h-1v1h1m-2 3h-1v1h1m0-7h-1v1h1m-2 7H8v1h1m0-5H8v1h1m0-5H8v1h1M7 8H6v1h1m2-5H8v1h1M7 2H6v1h1m-2 7H4v1h1m0-5H4v1h1m0-3H4v1h1m0-3H4v1h1m6 11h-1v1h1m-4-1H6v1h1m2-3H8v1h1m0 1H8v1h1m-4-1H4v1h1m0-3H4v1h1m8-3h-1v1h1m0-5h-1v1h1m0-5h-1v1h1m0 9h-1v1h1m0 2h-1v-1h1v1z" fill="#C4C4C4"/><path d="M5 1V0H2v1H0v7h2v1h3V8h2V1H5z" fill="#242424"/><path d="M6 6H5v1h1M2 6H1v1h1m4-5H5v1h1M2 2H1v1h1m4 1v1H5v1H4v2H3V6H2V5H1V4h1V3h1V1h1v2h1v1h1z" fill="#E9A34C"/><path d="M3 5h1V4H3v1z" fill="#282828"/></g></svg>