<svg ti:v="1" width="16" height="16" viewBox="0 0 16 16" xmlns="http://www.w3.org/2000/svg" xmlns:ti="urn:schemas-jetbrains-com:tisvg"><rect id="frame" width="16" height="16" fill="none"/><linearGradient id="a" x1=".5" y1=".006" x2=".5" y2="1.006"><stop offset="0" stop-color="#566980"/><stop offset="1" stop-color="#2C3641"/></linearGradient><path fill-rule="evenodd" d="M14 16H3V1h11v15z" fill="url(#a)"/><linearGradient id="b" x1=".5" y1=".007" x2=".5" y2="1.003"><stop offset="0" stop-color="#2C3641"/><stop offset="1" stop-color="#566980"/></linearGradient><path fill-rule="evenodd" d="M13 15H4V2h9v13z" fill="url(#b)"/><path fill-rule="evenodd" d="M9 8H8v1h1M5 8H4v1h1m8-1h-1v1h1m0-5h-1v1h1m-2 3h-1v1h1m0-7h-1v1h1m-2 7H8v1h1m0-5H8v1h1m0-5H8v1h1M7 8H6v1h1m2-5H8v1h1M7 2H6v1h1m-2 7H4v1h1m0-5H4v1h1m0-3H4v1h1m0-3H4v1h1m6 11h-1v1h1m-4-1H6v1h1m2-3H8v1h1m0 1H8v1h1m-4-1H4v1h1m0-3H4v1h1m8-3h-1v1h1m0-5h-1v1h1m0-5h-1v1h1m0 9h-1v1h1m0 2h-1v-1h1v1z" fill="#FFF"/><path fill-rule="evenodd" d="M5 1V0H2v1H0v7h2v1h3V8h2V1H5z" fill="#877000"/><linearGradient id="c" x1=".5" y1="-.018" x2=".5" y2="1.036"><stop offset="0" stop-color="#FFFDDE"/><stop offset="1" stop-color="#FFF45E"/></linearGradient><path fill-rule="evenodd" d="M6 6H5v1h1M2 6H1v1h1m4-5H5v1h1M2 2H1v1h1m4 1v1H5v1H4v2H3V6H2V5H1V4h1V3h1V1h1v2h1v1h1z" fill="url(#c)"/><path fill-rule="evenodd" d="M3 5h1V4H3v1z" fill="#877000"/></svg>