<svg ti:v="1" width="16" height="16" viewBox="0 0 16 16" xmlns="http://www.w3.org/2000/svg" xmlns:ti="urn:schemas-jetbrains-com:tisvg"><rect id="frame" width="16" height="16" fill="none"/><linearGradient id="a" x1=".5" y1=".005" x2=".5" y2="1.001"><stop offset="0" stop-color="#566980"/><stop offset="1" stop-color="#2C3641"/></linearGradient><path fill-rule="evenodd" d="M13 14H6V5h7v9z" fill="url(#a)"/><linearGradient id="b" x1=".5" y1="-.009" x2=".5" y2=".995"><stop offset="0" stop-color="#2C3641"/><stop offset="1" stop-color="#566980"/></linearGradient><path fill-rule="evenodd" d="M12 13H7V6h5v7z" fill="url(#b)"/><path fill-rule="evenodd" d="M11 8.999h1V8h-1m-4 2.999h1V10H7m0-1h1V8H7m0 5h1v-1H7m1-6H7v1h1m1 3.999h1V10H9m0-1h1V8H9m2 3h1v-1h-1m0 3h1v-1h-1m-2 1h1v-1H9m3-6h-1v1h1m-2-1H9v1h1V6z" fill="#FFF"/><linearGradient id="c" x1=".5" y1=".012" x2=".5" y2=".998"><stop offset="0" stop-color="#6D4000"/><stop offset="1" stop-color="#4C2D00"/></linearGradient><path fill-rule="evenodd" d="M5.37 3l-.299.339C4.127 4.41 3 6.349 3 9.5c0 3.147 1.126 5.087 2.069 6.161l.299.339H7V3H5.37z" fill="url(#c)"/><linearGradient id="d" x1=".5" y1=".012" x2=".5" y2=".998"><stop offset="0" stop-color="#FFF3B8"/><stop offset="1" stop-color="#FFEA7C"/></linearGradient><path fill-rule="evenodd" d="M5.822 4C4.981 4.953 4 6.67 4 9.5s.981 4.546 1.822 5.5h.54c-.519-1.009-.519-9.992 0-11h-.54z" fill="url(#d)"/><linearGradient id="e" x1=".5" y1=".012" x2=".5" y2=".998"><stop offset="0" stop-color="#6D4000"/><stop offset="1" stop-color="#4C2D00"/></linearGradient><path fill-rule="evenodd" d="M12 3v13h1.632l.299-.339C14.874 14.587 16 12.647 16 9.5c0-3.151-1.127-5.09-2.071-6.161L13.63 3H12z" fill="url(#e)"/><linearGradient id="f" x1=".5" y1=".012" x2=".5" y2=".998"><stop offset="0" stop-color="#FFF3B8"/><stop offset="1" stop-color="#FFEA7C"/></linearGradient><path fill-rule="evenodd" d="M12.639 4c.519 1.008.519 9.991 0 11h.54c.84-.954 1.821-2.67 1.821-5.5s-.981-4.547-1.823-5.5h-.538z" fill="url(#f)"/><path fill-rule="evenodd" d="M5 1V0H2v1H0v7h2v1h3V8h2V1H5z" fill="#877000"/><linearGradient id="g" x1=".5" y1="-.018" x2=".5" y2="1.036"><stop offset="0" stop-color="#FFFDDE"/><stop offset="1" stop-color="#FFF45E"/></linearGradient><path fill-rule="evenodd" d="M3 1v2H2v1H1v1h1v1h1v2h1V6h1V5h1V4H5V3H4V1m1 2h1V2H5M1 3h1V2H1m4 5h1V6H5M1 7h1V6H1v1z" fill="url(#g)"/><path fill-rule="evenodd" d="M4 4H3v1h1V4z" fill="#877000"/></svg>