<svg ti:v="1" width="16" height="16" viewBox="0 0 16 16" xmlns="http://www.w3.org/2000/svg" xmlns:ti="urn:schemas-jetbrains-com:tisvg"><rect id="frame" width="16" height="16" fill="none"/><g fill-rule="evenodd"><path d="M13 14H6V5h7v9z" fill="#242424"/><path d="M12 13H7V6h5v7z" fill="#282828"/><path d="M11 8.999h1V8h-1m-4 2.999h1V10H7m0-1h1V8H7m0 5h1v-1H7m1-6H7v1h1m1 3.999h1V10H9m0-1h1V8H9m2 3h1v-1h-1m0 3h1v-1h-1m-2 1h1v-1H9m3-6h-1v1h1m-2-1H9v1h1V6z" fill="#C4C4C4"/><path d="M7 3H5.37l-.299.339C4.127 4.41 3 6.35 3 9.5c0 3.146 1.126 5.087 2.069 6.161l.299.339H7V3z" fill="#242424"/><path d="M6.361 15c-.519-1.009-.519-9.992 0-11h-.539C4.982 4.953 4 6.67 4 9.5s.981 4.546 1.821 5.5h.54z" fill="#C4C4C4"/><path d="M12 3h1.63l.299.339C14.873 4.41 16 6.35 16 9.5c0 3.146-1.126 5.087-2.069 6.161l-.299.339H12V3z" fill="#242424"/><path d="M12.639 15c.519-1.009.519-9.992 0-11h.539C14.018 4.953 15 6.67 15 9.5s-.981 4.546-1.821 5.5h-.54z" fill="#C4C4C4"/><path d="M5 1V0H2v1H0v7h2v1h3V8h2V1H5z" fill="#242424"/><path d="M6 6H5v1h1M2 6H1v1h1m4-5H5v1h1M2 2H1v1h1m4 1v1H5v1H4v2H3V6H2V5H1V4h1V3h1V1h1v2h1v1h1z" fill="#E9A34C"/><path d="M4 4H3v1h1V4z" fill="#282828"/></g></svg>