<svg ti:v="1" width="16" height="16" viewBox="0 0 16 16" xmlns="http://www.w3.org/2000/svg" xmlns:ti="urn:schemas-jetbrains-com:tisvg"><rect id="frame" width="16" height="16" fill="none"/><linearGradient id="a" x1=".5" y1="0" x2=".5" y2=".981"><stop offset="0" stop-color="#8C0900"/><stop offset="1" stop-color="#C70000"/></linearGradient><path fill-rule="evenodd" d="M12.661 1L8.143 4.697 6.18 1.868c-.407-.477-1.04-.752-1.735-.752-.682 0-1.335.274-1.764.703-.77.771-1.004 2.468 0 3.474l2.314 2.388L.66 11.706c-1 .976-.754 2.985.003 3.469.531.338 1.071.711 1.734.711.669 0 1.281-.253 1.755-.747L8.1 10.644 14.139 16H16v-1.354l-5.281-6.914 4.28-5.345V1h-2.338z" fill="url(#a)"/><linearGradient id="b" x1=".5" y1="-.003" x2=".5" y2=".973"><stop offset="0" stop-color="#FFA98F"/><stop offset="1" stop-color="red"/></linearGradient><path fill-rule="evenodd" d="M13.02 2L7.941 6.159 5.42 2.516c-.485-.57-1.543-.494-2.017 0-.492.507-.589 1.466 0 2.081l3.024 3.122-5.042 4.683c-.453.455-.504 1.562 0 2.083.504.52 1.476.562 2.018 0L8.015 9.23l6.48 5.775h.504L9.453 7.719 14.029 2H13.02z" fill="url(#b)"/></svg>