<svg ti:v="1" width="16" height="16" viewBox="0 0 16 16" xmlns="http://www.w3.org/2000/svg" xmlns:ti="urn:schemas-jetbrains-com:tisvg"><rect id="frame" width="16" height="16" fill="none"/><g fill-rule="evenodd"><path d="M2 15V1h7.414L14 5.586V15H2z" fill="#242424"/><path d="M9 2H3v12h10V6L9 2z" fill="#C4C4C4"/><path d="M9 6V4H5v8h6V6H9z" fill="#282828"/><path d="M12.414 8L15 5.414V4h-1.586L16 1.414V0h-3.414L11 1.586V0H9.586L7 2.586V8h5.414z" fill="#242424"/><path d="M10 1v3l3-3h2l-4 4h3l-2 2H8V3l2-2z" fill="#7BBEFF"/></g></svg>