<svg ti:v="1" width="16" height="16" viewBox="0 0 16 16" xmlns="http://www.w3.org/2000/svg" xmlns:ti="urn:schemas-jetbrains-com:tisvg"><rect id="frame" width="16" height="16" fill="none"/><g fill-rule="evenodd"><path d="M16 13H3V0h13v13z" fill="#242424"/><path d="M15 12H4V1h11v11z" fill="#282828"/><path d="M6 4h1V3H6m2 1h1V3H8m2 1h1V3h-1m-4 9h1v-1H6M4 4h1V3H4m0 3h1V5H4m0 3h1V7H4m4 5h1v-1H8m-4 1h1v-1H4m0-1h1V9H4m6 3h1v-1h-1m4-7h1V3h-1m-2 1h1V3h-1m2 3h1V5h-1m0 3h1V7h-1m-2 5h1v-1h-1m2 1h1v-1h-1m1-10h-1v1h1m-2-1h-1v1h1m-2-1h-1v1h1M9 1H8v1h1M7 1H6v1h1M5 1H4v1h1m10 8h-1V9h1v1z" fill="#C4C4C4"/><path d="M13 16H0V3h13v13z" fill="#242424"/><path d="M12 15H1V4h11v11z" fill="#282828"/><path d="M3 7h1V6H3m2 1h1V6H5m2 1h1V6H7m-4 9h1v-1H3M1 7h1V6H1m0 3h1V8H1m0 3h1v-1H1m4 5h1v-1H5m-4 1h1v-1H1m0-1h1v-1H1m6 3h1v-1H7m4-7h1V6h-1M9 7h1V6H9m2 3h1V8h-1m0 3h1v-1h-1m-2 5h1v-1H9m2 1h1v-1h-1m1-10h-1v1h1m-2-1H9v1h1M8 4H7v1h1M6 4H5v1h1M4 4H3v1h1M2 4H1v1h1m10 8h-1v-1h1v1z" fill="#C4C4C4"/></g></svg>