<svg ti:v="1" width="16" height="16" viewBox="0 0 16 16" xmlns="http://www.w3.org/2000/svg" xmlns:ti="urn:schemas-jetbrains-com:tisvg"><rect id="frame" width="16" height="16" fill="none"/><linearGradient id="a" x1=".5" y1=".002" x2=".5" y2=".996"><stop offset="0" stop-color="#C28C21"/><stop offset="1" stop-color="#634933"/></linearGradient><path d="M1 15V3h6.586l2-2H16v14H1z" fill="url(#a)"/><linearGradient id="b" x1=".5" y1=".002" x2=".5" y2=".996"><stop offset="0" stop-color="#FFE9BD"/><stop offset="1" stop-color="#D4A24C"/></linearGradient><path d="M15 14V2h-5L8 4H2v10h13z" fill="url(#b)"/><linearGradient id="c" x1=".5" y1=".002" x2=".5" y2=".996"><stop offset="0" stop-color="#B88143"/><stop offset="1" stop-color="#8A4717"/></linearGradient><path d="M3 6h11v7H3z" fill="url(#c)"/><path d="M3.399 16l-.187-1.392-1.115.852L.54 13.903l.852-1.115L0 12.601v-2.202l1.392-.187L.54 9.097 2.097 7.54l1.115.852L3.399 7h2.202l.187 1.392 1.115-.852L8.46 9.097l-.852 1.115L9 10.399v2.202l-1.392.187.852 1.115-1.557 1.557-1.115-.852L5.601 16H3.399z" fill="#8F7E00"/><path d="M3.995 10.086L4.274 8h.452l.279 2.086.138.057 1.672-1.278.32.32-1.278 1.672.057.138L8 11.274v.452l-2.086.279-.057.138 1.278 1.672-.32.32-1.672-1.278-.138.057L4.726 15h-.452l-.279-2.086-.138-.057-1.672 1.278-.32-.32 1.278-1.672-.057-.138L1 11.726v-.452l2.086-.279.057-.138-1.278-1.672.32-.32 1.672 1.278.138-.057z" fill="#FDFF7F"/><path d="M5.5 11.5a1 1 0 1 1-2 0 1 1 0 0 1 2 0z" fill="#FFF"/></svg>