<svg ti:v="1" width="16" height="16" viewBox="0 0 16 16" xmlns="http://www.w3.org/2000/svg" xmlns:ti="urn:schemas-jetbrains-com:tisvg"><rect id="frame" width="16" height="16" fill="none"/><g fill-rule="evenodd"><path d="M14.284 8.088c.296-.421.452-.917.452-1.447 0-.822-.333-1.508-.962-1.984-.574-.436-1.365-.656-2.351-.656H5.18L5 4.9 4.82 4H1v1.14L3.246 13h3.509L8 8.64V13h3.558c1.003 0 1.826-.273 2.446-.811.652-.567.996-1.354.996-2.277 0-.679-.233-1.293-.716-1.824z" fill="#F4F4F4"/><path d="M6 5l-1 5-1-5H2l2 7h2l2-7m4.422 4.892c0-.28-.098-.5-.292-.66-.195-.159-.465-.239-.809-.239H11v1.845h.312c.347 0 .621-.086.822-.258a.884.884 0 0 0 .288-.688zm-.265-2.97c0-.611-.365-.917-1.095-.917H11v1.974h.159c.307 0 .549-.095.729-.285.179-.189.269-.447.269-.772zM14 9.911c0 .638-.218 1.146-.652 1.523-.435.378-1.032.566-1.79.566H9V5h2.423c.766 0 1.348.151 1.746.454.378.286.566.682.566 1.187 0 .406-.159.859-.438 1.156-.235.25-.297.324-1.297.425v.02c1 .061 1.231.208 1.516.524.275.302.484.712.484 1.145z" fill="#313131"/></g></svg>