<svg ti:v="1" width="16" height="16" viewBox="0 0 16 16" xmlns="http://www.w3.org/2000/svg" xmlns:ti="urn:schemas-jetbrains-com:tisvg"><rect id="frame" width="16" height="16" fill="none"/><linearGradient id="a" x1=".5" y1=".006" x2=".5" y2=".994"><stop offset="0" stop-color="#002D54"/><stop offset="1" stop-color="#00529C"/></linearGradient><path fill-rule="evenodd" d="M5.18 4L5 4.901 4.82 4H1v1.14L3.246 13h3.508L8 8.64V13h3.557c1.004 0 1.826-.273 2.447-.811.651-.567.996-1.354.996-2.278 0-.678-.233-1.292-.672-1.774l-.045-.049c.297-.422.452-.916.452-1.447 0-.821-.333-1.507-.961-1.984C13.199 4.221 12.408 4 11.423 4H5.18z" fill="url(#a)"/><linearGradient id="b" x1=".5" y1="0" x2=".5" y2="1.009"><stop offset="0" stop-color="#CCE8FF"/><stop offset="1" stop-color="#95CDFF"/></linearGradient><path fill-rule="evenodd" d="M9 5v7h2.557c.759 0 1.356-.189 1.79-.566.435-.378.653-.885.653-1.523 0-.433-.209-.843-.484-1.145C13.23 8.45 13 8.303 12 8.241v-.02c1-.1 1.062-.173 1.297-.424.279-.297.438-.749.438-1.156 0-.505-.188-.901-.566-1.187-.398-.303-.981-.454-1.746-.454M11 6.006h.061c.731 0 1.097.305 1.097.916 0 .325-.09.583-.27.772-.18.19-.423.284-.728.284H11m0 1.016h.322c.343 0 .612.079.808.238.194.16.292.38.292.66 0 .286-.097.516-.288.687-.201.173-.475.26-.822.26H11M6 5l-1 5-1-5H2l2 7h2l2-7H6z" fill="url(#b)"/></svg>