<svg ti:v="1" width="16" height="16" viewBox="0 0 16 16" xmlns="http://www.w3.org/2000/svg" xmlns:ti="urn:schemas-jetbrains-com:tisvg"><rect id="frame" width="16" height="16" fill="none"/><linearGradient id="a" x1=".5" y1="-.005" x2=".5" y2="1.025"><stop offset="0" stop-color="#A01993"/><stop offset="1" stop-color="#6A0160"/></linearGradient><path fill-rule="evenodd" d="M3 10V8H1V4h2V2h4v2h2v4H7v2H3z" fill="url(#a)"/><linearGradient id="b" x1=".5" y1=".013" x2=".5" y2="1.027"><stop offset="0" stop-color="#FFBCF7"/><stop offset="1" stop-color="#FF93F4"/></linearGradient><path fill-rule="evenodd" d="M8 5H6V3H4v2H2v2h2v2h2V7h2V5z" fill="url(#b)"/><linearGradient id="c" x1=".5" y1="-.005" x2=".5" y2="1.025"><stop offset="0" stop-color="#A01993"/><stop offset="1" stop-color="#6A0160"/></linearGradient><path fill-rule="evenodd" d="M9 13v-2H7V7h2V5h4v2h2v4h-2v2H9z" fill="url(#c)"/><linearGradient id="d" x1=".5" y1=".013" x2=".5" y2="1.027"><stop offset="0" stop-color="#FFBCF7"/><stop offset="1" stop-color="#FF93F4"/></linearGradient><path fill-rule="evenodd" d="M14 8h-2V6h-2v2H8v2h2v2h2v-2h2V8z" fill="url(#d)"/></svg>