<svg ti:v="1" width="16" height="16" viewBox="0 0 16 16" xmlns="http://www.w3.org/2000/svg" xmlns:ti="urn:schemas-jetbrains-com:tisvg"><rect id="frame" width="16" height="16" fill="none"/><g fill-rule="evenodd"><path d="M6 13c-.038 0-3.542-.061-3.959-5H1V5h1.041C2.458.06 5.962 0 6 0h1v3h-.708C6.189 3.199 6 3.74 6 5v3c0 1.26.189 1.801.292 2H7v3H6z" fill="#242424"/><path d="M5 5c0-3 1-3 1-3V1S3 1 3 6H2v1h1c0 5 3 5 3 5v-1s-1 0-1-3L4 7V6l1-1z" fill="#C4C4C4"/><path d="M10 16c.038 0 3.542-.061 3.959-5H15V8h-1.041C13.542 3.06 10.038 3 10 3H9v3h.708c.103.199.292.74.292 2v3c0 1.26-.189 1.801-.292 2H9v3h1z" fill="#242424"/><path d="M12 9v1l-1 1c0 3-1 3-1 3v1s3 0 3-5h1V9h-1c0-5-3-5-3-5v1s1 0 1 3l1 1z" fill="#C4C4C4"/></g></svg>