<svg ti:v="1" width="16" height="16" viewBox="0 0 16 16" xmlns="http://www.w3.org/2000/svg" xmlns:ti="urn:schemas-jetbrains-com:tisvg"><rect id="frame" width="16" height="16" fill="none"/><linearGradient id="a" x1=".5" y1="0" x2=".5" y2="1"><stop offset="0" stop-color="#7B96A6"/><stop offset="1" stop-color="#4E606A"/></linearGradient><path fill-rule="evenodd" d="M6 0c-.038 0-3.542.06-3.959 5H1v3h1.041c.417 4.94 3.921 5 3.959 5h1v-3h-.708C6.19 9.801 6 9.26 6 8V5c0-1.26.19-1.801.292-2H7V0H6z" fill="url(#a)"/><linearGradient id="b" x1=".5" y1="0" x2=".5" y2="1"><stop offset="0" stop-color="#BFE7FF"/><stop offset="1" stop-color="#A4C7DB"/></linearGradient><path fill-rule="evenodd" d="M3 6H2v1h1c0 5 3 5 3 5v-1s-1 0-1-3L4 7V6l1-1c0-3 1-3 1-3V1S3 1 3 6z" fill="url(#b)"/><linearGradient id="c" x1=".5" y1="0" x2=".5" y2="1"><stop offset="0" stop-color="#7B96A6"/><stop offset="1" stop-color="#4E606A"/></linearGradient><path fill-rule="evenodd" d="M9 3v3h.708c.102.199.292.74.292 2v3c0 1.26-.19 1.8-.292 2H9v3h1c.038 0 3.542-.06 3.959-5H15V8h-1.041C13.542 3.06 10.038 3 10 3H9z" fill="url(#c)"/><linearGradient id="d" x1=".5" y1="0" x2=".5" y2="1"><stop offset="0" stop-color="#BFE7FF"/><stop offset="1" stop-color="#A4C7DB"/></linearGradient><path fill-rule="evenodd" d="M10 5s1 0 1 3l1 1v1l-1 1c0 3-1 3-1 3v1s3 0 3-5h1V9h-1c0-5-3-5-3-5v1z" fill="url(#d)"/></svg>