<svg ti:v="1" width="16" height="16" viewBox="0 0 16 16" xmlns="http://www.w3.org/2000/svg" xmlns:ti="urn:schemas-jetbrains-com:tisvg"><rect id="frame" width="16" height="16" fill="none"/><g fill-rule="evenodd"><path d="M12 4V0H4v2.586L2.586 4H12z" fill="#F4F4F4"/><path d="M5.357 8H5c-1.655 0-3 1.346-3 3v5h12v-5c0-1.654-1.346-3-3-3H5.357z" fill="#F4F4F4"/><path d="M5 9h6a2 2 0 0 1 2 2v4H3v-4a2 2 0 0 1 2-2z" fill="#313131"/><path d="M5 15h1.5L11 9H9.5L5 15z" fill="#EBEBEB"/><path d="M5 2h6V1H5m0 2h6v1H4l1-1z" fill="#313131"/><path d="M11 3H5V2h6v1z" fill="#EBEBEB"/><path d="M4 4v1a4 4 0 1 0 8 0V4H4z" fill="#F4F4F4"/><path d="M5 4v1a3 3 0 1 0 6 0V4H5z" fill="#313131"/></g></svg>