<svg ti:v="1" width="16" height="16" viewBox="0 0 16 16" xmlns="http://www.w3.org/2000/svg" xmlns:ti="urn:schemas-jetbrains-com:tisvg"><rect id="frame" width="16" height="16" fill="none"/><linearGradient id="a" x1=".5" y1=".007" x2=".5" y2=".993"><stop offset="0" stop-color="#385985"/><stop offset="1" stop-color="#263D59"/></linearGradient><path fill-rule="evenodd" d="M4 14v-3H1V7h2V5H1V1h11v4h-2v2h5v4h-2v3H4z" fill="url(#a)"/><linearGradient id="b" x1=".01" y1=".5" x2="1.02" y2=".5"><stop offset="0" stop-color="#C6E9FF"/><stop offset="1" stop-color="#85B5FF"/></linearGradient><path fill-rule="evenodd" d="M11 4H2V2h9v2z" fill="url(#b)"/><linearGradient id="c" x1=".01" y1=".5" x2="1.02" y2=".5"><stop offset="0" stop-color="#FFFBC6"/><stop offset="1" stop-color="#FFEA85"/></linearGradient><path fill-rule="evenodd" d="M9 5H4v2h5V5z" fill="url(#c)"/><linearGradient id="d" x1=".01" y1=".5" x2="1.02" y2=".5"><stop offset="0" stop-color="#C6FFD1"/><stop offset="1" stop-color="#85FF8E"/></linearGradient><path fill-rule="evenodd" d="M8 8H2v2h6V8z" fill="url(#d)"/><linearGradient id="e" x1=".01" y1=".5" x2="1.02" y2=".5"><stop offset="0" stop-color="#FFC6C6"/><stop offset="1" stop-color="#FF8585"/></linearGradient><path fill-rule="evenodd" d="M14 8H9v2h5V8z" fill="url(#e)"/><linearGradient id="f" x1=".01" y1=".5" x2="1.02" y2=".5"><stop offset="0" stop-color="#E9C6FF"/><stop offset="1" stop-color="#B685FF"/></linearGradient><path fill-rule="evenodd" d="M12 11H5v2h7v-2z" fill="url(#f)"/></svg>