<svg ti:v="1" width="16" height="16" viewBox="0 0 16 16" xmlns="http://www.w3.org/2000/svg" xmlns:ti="urn:schemas-jetbrains-com:tisvg"><rect id="frame" width="16" height="16" fill="none"/><linearGradient id="a" x1=".5" y1=".012" x2=".5" y2="1.004"><stop offset="0" stop-color="#435B80"/><stop offset="1" stop-color="#1C2737"/></linearGradient><path fill-rule="evenodd" d="M12 4V0H4v2.586L2.586 4H12z" fill="url(#a)"/><linearGradient id="b" x1=".5" y1=".014" x2=".5" y2="1.028"><stop offset="0" stop-color="#435B80"/><stop offset="1" stop-color="#1C2737"/></linearGradient><path fill-rule="evenodd" d="M10.643 8H5c-1.654 0-3 1.345-3 3v5h12v-5c0-1.655-1.346-3-3-3h-.357z" fill="url(#b)"/><linearGradient id="c" x1=".5" y1=".018" x2=".5" y2="1"><stop offset="0" stop-color="#87BEDE"/><stop offset="1" stop-color="#0070C2"/></linearGradient><path fill-rule="evenodd" d="M5 9a2 2 0 0 0-2 2v4h10v-4a2 2 0 0 0-2-2H5z" fill="url(#c)"/><path fill-rule="evenodd" d="M5 15h1.5L11 9H9.5L5 15z" fill="#FFF"/><linearGradient id="d" x1=".5" y1=".021" x2=".5" y2="1.021"><stop offset="0" stop-color="#0070C2"/><stop offset="1" stop-color="#87BEDE"/></linearGradient><path fill-rule="evenodd" d="M5 2h6V1H5m0 2L4 4h7V3H5z" fill="url(#d)"/><path fill-rule="evenodd" d="M11 3H5V2h6v1z" fill="#FFF"/><path fill-rule="evenodd" d="M4 4v1a4 4 0 1 0 8 0V4H4z" fill="#6E4623"/><linearGradient id="e" x1="0" y1=".5" x2="1" y2=".5"><stop offset="0" stop-color="#FFEABF"/><stop offset="1" stop-color="#FBC658"/></linearGradient><path fill-rule="evenodd" d="M5 4v1a3 3 0 1 0 6 0V4H5z" fill="url(#e)"/></svg>