<svg ti:v="1" width="16" height="16" viewBox="0 0 16 16" xmlns="http://www.w3.org/2000/svg" xmlns:ti="urn:schemas-jetbrains-com:tisvg"><rect id="frame" width="16" height="16" fill="none"/><g fill-rule="evenodd"><path d="M7 7h9V0H7v7z" fill="#F4F4F4"/><path d="M15 5H8v1h7m0-2H8V3h7m0-1H8V1h7v1z" fill="#313131"/><path d="M0 15h9V8H0v7z" fill="#F4F4F4"/><path d="M8 13H1v1h7m0-2H1v-1h7m0-1H1V9h7v1z" fill="#313131"/><path d="M1 5.764V7h2.48L6 3.85v-.7L3.48 0H1v1.237l1 2v.527l-1 2z" fill="#F4F4F4"/><path d="M3 3L2 1h1l2 2.5L3 6H2l1-2V3z" fill="#313131"/><path d="M15 13.764V15h-2.48L10 11.85v-.7L12.52 8H15v1.237l-1 2v.527l1 2z" fill="#F4F4F4"/><path d="M13 11l1-2h-1l-2 2.5 2 2.5h1l-1-2v-1z" fill="#313131"/></g></svg>