<svg ti:v="1" width="16" height="16" viewBox="0 0 16 16" xmlns="http://www.w3.org/2000/svg" xmlns:ti="urn:schemas-jetbrains-com:tisvg"><rect id="frame" width="16" height="16" fill="none"/><linearGradient id="a" x1=".5" y1="0" x2=".5" y2="1"><stop offset="0" stop-color="#385985"/><stop offset="1" stop-color="#263C59"/></linearGradient><path fill-rule="evenodd" d="M7 7h9V0H7v7z" fill="url(#a)"/><linearGradient id="b" x1="0" y1=".5" x2="1" y2=".5"><stop offset="0" stop-color="#FFF"/><stop offset="1" stop-color="#E6F0FF"/></linearGradient><path fill-rule="evenodd" d="M15 5H8v1h7m0-2H8V3h7m0-1H8V1h7v1z" fill="url(#b)"/><linearGradient id="c" x1=".5" y1="0" x2=".5" y2="1"><stop offset="0" stop-color="#385985"/><stop offset="1" stop-color="#263C59"/></linearGradient><path fill-rule="evenodd" d="M0 15h9V8H0v7z" fill="url(#c)"/><linearGradient id="d" x1="0" y1=".5" x2="1" y2=".5"><stop offset="0" stop-color="#FFF"/><stop offset="1" stop-color="#E6F0FF"/></linearGradient><path fill-rule="evenodd" d="M8 13H1v1h7m0-2H1v-1h7m0-1H1V9h7v1z" fill="url(#d)"/><linearGradient id="e" x1=".5" y1="0" x2=".5" y2="1"><stop offset="0" stop-color="#8F5B00"/><stop offset="1" stop-color="#6A1700"/></linearGradient><path fill-rule="evenodd" d="M1 5.764V7h2.48L6 3.851v-.702L3.48 0H1v1.236l1 2v.528l-1 2z" fill="url(#e)"/><linearGradient id="f" x1=".5" y1="0" x2=".5" y2="1"><stop offset="0" stop-color="#FFE76C"/><stop offset="1" stop-color="#FFBB6C"/></linearGradient><path fill-rule="evenodd" d="M3 3L2 1h1l2 2.5L3 6H2l1-2V3z" fill="url(#f)"/><linearGradient id="g" x1=".5" y1="0" x2=".5" y2="1"><stop offset="0" stop-color="#8F5B00"/><stop offset="1" stop-color="#6A1700"/></linearGradient><path fill-rule="evenodd" d="M15 13.764V15h-2.48L10 11.851v-.702L12.52 8H15v1.236l-1 2v.528l1 2z" fill="url(#g)"/><linearGradient id="h" x1=".5" y1="0" x2=".5" y2="1"><stop offset="0" stop-color="#FFE76C"/><stop offset="1" stop-color="#FFBB6C"/></linearGradient><path fill-rule="evenodd" d="M13 11l1-2h-1l-2 2.5 2 2.5h1l-1-2v-1z" fill="url(#h)"/></svg>