<svg ti:v="1" width="16" height="16" viewBox="0 0 16 16" xmlns="http://www.w3.org/2000/svg" xmlns:ti="urn:schemas-jetbrains-com:tisvg"><rect id="frame" width="16" height="16" fill="none"/><linearGradient id="a" x1=".5" y1=".007" x2=".5" y2=".993"><stop offset="0" stop-color="#385985"/><stop offset="1" stop-color="#263C59"/></linearGradient><path fill-rule="evenodd" d="M3 2v4h4v2H5v4h3v3h7V2H3z" fill="url(#a)"/><linearGradient id="b" x1="0" y1=".5" x2="1" y2=".5"><stop offset="0" stop-color="#C7EAFF"/><stop offset="1" stop-color="#85B5FF"/></linearGradient><path fill-rule="evenodd" d="M9 14h5v-2H9m-3-1h8V9H6m2-1h6V6H8m6-1H4V3h10v2z" fill="url(#b)"/><path fill-rule="evenodd" d="M9 6v3H8v1H6v1H5v1H2v-1H1V8h1V6H1V5H0V2h1V1h1V0h3v1h1v1h1v3h1v1h1z" fill="#8F7E00"/><path fill-rule="evenodd" d="M7 7V6H6v1H5v1h1v1h1V8h1V7M4 8H3v1H2v1h1v1h1v-1h1V9H4M3 5L2 4H1V3h1l1-1V1h1v1l1 1h1v1H5L4 5v1H3V5z" fill="#FDFF7F"/><path fill-rule="evenodd" d="M3 4h1V3H3v1z" fill="#FFF"/><path fill-rule="evenodd" d="M3 10h1V9H3v1z" fill="#FFF"/><path fill-rule="evenodd" d="M6 8h1V7H6v1z" fill="#FFF"/></svg>