<svg ti:v="1" width="16" height="16" viewBox="0 0 16 16" xmlns="http://www.w3.org/2000/svg" xmlns:ti="urn:schemas-jetbrains-com:tisvg"><rect id="frame" width="16" height="16" fill="none"/><g fill-rule="evenodd"><path d="M3 2v4h4v2H5v4h3v3h7V2H3z" fill="#242424"/><path d="M9 14h5v-2H9m-3-1h8V9H6m2-1h6V6H8m6-1H4V3h10v2z" fill="#C4C4C4"/><path d="M9 6v3H8v1H6v1H5v1H2v-1H1V8h1V6H1V5H0V2h1V1h1V0h3v1h1v1h1v3h1v1h1z" fill="#242424"/><path d="M7 7V6H6v1H5v1h1v1h1V8h1V7M4 8H3v1H2v1h1v1h1v-1h1V9H4M3 5L2 4H1V3h1l1-1V1h1v1l1 1h1v1H5L4 5v1H3V5z" fill="#E9A34C"/><path d="M3 4h1V3H3v1z" fill="#282828"/><path d="M3 10h1V9H3v1z" fill="#282828"/><path d="M6 8h1V7H6v1z" fill="#282828"/></g></svg>