<svg ti:v="1" width="16" height="16" viewBox="0 0 16 16" xmlns="http://www.w3.org/2000/svg" xmlns:ti="urn:schemas-jetbrains-com:tisvg"><rect id="frame" width="16" height="16" fill="none"/><linearGradient id="a" x1="0" y1=".5" x2="1" y2=".5"><stop offset="0" stop-color="#167D87"/><stop offset="1" stop-color="#09585D"/></linearGradient><path fill-rule="evenodd" d="M2 10a6 6 0 0 0 12 0 6 6 0 0 0-12 0z" fill="url(#a)"/><linearGradient id="b" x1="0" y1=".5" x2="1" y2=".5"><stop offset="0" stop-color="#00A5FF"/><stop offset="1" stop-color="#00EAFF"/></linearGradient><path fill-rule="evenodd" d="M3 10a5 5 0 0 0 10 0 5 5 0 0 0-10 0z" fill="url(#b)"/><path fill-rule="evenodd" d="M11.338 11H9.96a12.47 12.47 0 0 0 0-2h1.378c.096.318.162.65.162 1s-.066.682-.162 1zm-1.78 2.119c.108-.342.202-.714.273-1.119h1.035a3.506 3.506 0 0 1-1.308 1.119zM9.04 11H6.959a11.515 11.515 0 0 1-.046-1c0-.357.019-.688.046-1H9.04c.027.312.046.643.046 1s-.02.687-.046 1zm-.585 2.454c-.151.02-.3.046-.456.046-.152 0-.297-.025-.443-.045A6.367 6.367 0 0 1 7.102 12H8.9a6.703 6.703 0 0 1-.444 1.454zM6.169 8H5.134a3.509 3.509 0 0 1 1.309-1.119A8.486 8.486 0 0 0 6.169 8zm-1.035 4h1.035c.07.405.165.778.274 1.119A3.509 3.509 0 0 1 5.133 12zM4.5 10c0-.35.067-.682.162-1H6.04a12.015 12.015 0 0 0 0 2H4.66a3.477 3.477 0 0 1-.161-1zm3.055-3.455c.147-.02.293-.045.445-.045.152 0 .299.025.445.045.164.35.33.836.454 1.455H7.102a6.428 6.428 0 0 1 .453-1.455zM10.865 8H9.832a8.691 8.691 0 0 0-.273-1.119c.523.263.975.642 1.308 1.119z" fill="#FFF"/><linearGradient id="c" x1="0" y1=".5" x2="1" y2=".5"><stop offset="0" stop-color="#167D87"/><stop offset="1" stop-color="#09585D"/></linearGradient><path fill-rule="evenodd" d="M4 0v2h1v3h6V2h1V0H4z" fill="url(#c)"/><linearGradient id="d" x1="0" y1=".5" x2="1" y2=".5"><stop offset="0" stop-color="#00A5FF"/><stop offset="1" stop-color="#00EAFF"/></linearGradient><path fill-rule="evenodd" d="M5 1v1h1v3h4V2h1V1H5z" fill="url(#d)"/><path fill-rule="evenodd" d="M9 2H7v3h2V2z" fill="#FFF"/></svg>