<svg ti:v="1" width="16" height="16" viewBox="0 0 16 16" xmlns="http://www.w3.org/2000/svg" xmlns:ti="urn:schemas-jetbrains-com:tisvg"><rect id="frame" width="16" height="16" fill="none"/><g fill-rule="evenodd"><path d="M6 15H0V0h6v15z" fill="#242424"/><path d="M5 14H1V1h4v13z" fill="#C4C4C4"/><path d="M10.586 0L7 3.586l-3 6.828L7.586 14l6.828-3L16 9.414V0h-5.414z" fill="#242424"/><path d="M8.707 13.707L4.293 9.293 0 13.586v.828L1.586 16h4.828l2.293-2.293z" fill="#242424"/><path d="M1 14l5-5 3 3-3 3H2l-1-1z" fill="#C4C4C4"/><path d="M2.414 14L6 10.414 7.586 12l-2 2H2.414z" fill="#282828"/><path d="M8 4l-3 6 3 3 6-3V9L9 4H8z" fill="#C4C4C4"/><path d="M16 0h-4L8 4l6 6 2-2V0z" fill="#313131"/><path d="M9.414 4l4-4H16v6.586l-2 2L9.414 4z" fill="#EBEBEB"/><path d="M16 0h-4L8 4l6 6 2-2V0z" fill="#C4C4C4"/><path d="M9.414 4l4-4H16v6.586l-2 2L9.414 4z" fill="#282828"/><path d="M8 6h1l-2 4H6l2-4z" fill="#282828"/></g></svg>