<svg ti:v="1" width="16" height="16" viewBox="0 0 16 16" xmlns="http://www.w3.org/2000/svg" xmlns:ti="urn:schemas-jetbrains-com:tisvg"><rect id="frame" width="16" height="16" fill="none"/><path fill-rule="evenodd" d="M6 15H0V0h6v15z" fill="#9A9C00"/><path fill-rule="evenodd" d="M5 14H1V1h4v13z" fill="#FBFF00"/><linearGradient id="a" x1=".308" y1=".207" x2=".925" y2=".737"><stop offset="0" stop-color="#344753"/><stop offset="1" stop-color="#024551"/></linearGradient><path fill-rule="evenodd" d="M10.586 0L7 3.586l-3 6.828L7.586 14l6.828-3L16 9.414V0h-5.414z" fill="url(#a)"/><path fill-rule="evenodd" d="M8.707 13.707L4.293 9.293 0 13.586v.828L1.586 16h4.828l2.293-2.293z" fill="#565700"/><path fill-rule="evenodd" d="M1 14l5-5 3 3-3 3H2l-1-1z" fill="#FBFF00"/><path fill-rule="evenodd" d="M2.414 14L6 10.414 7.586 12l-2 2H2.414z" fill="#FBFF00"/><linearGradient id="b" x1=".111" y1=".222" x2=".778" y2=".889"><stop offset="0" stop-color="#1E2D3C"/><stop offset="1" stop-color="#63BEFF"/></linearGradient><path fill-rule="evenodd" d="M8 4l-3 6 3 3 6-3V9L9 4H8z" fill="url(#b)"/><path fill-rule="evenodd" d="M8 6h1l-2 4H6l2-4z" fill="#A1C5D6"/><linearGradient id="c" x1="0" y1=".5" x2="1" y2=".5"><stop offset="0" stop-color="#8691A1"/><stop offset="1" stop-color="#B4CBD6"/></linearGradient><path fill-rule="evenodd" d="M16 0h-4L8 4l6 6 2-2V0z" fill="url(#c)"/><linearGradient id="d" x1=".415" y1=".168" x2="1.113" y2=".703"><stop offset="0" stop-color="#FFF"/><stop offset=".227" stop-color="#7D95A6"/><stop offset="1" stop-color="#94B6C4"/></linearGradient><path fill-rule="evenodd" d="M9.414 4l4-4H16v6.586l-2 2L9.414 4z" fill="url(#d)"/></svg>