<svg ti:v="1" width="16" height="16" viewBox="0 0 16 16" xmlns="http://www.w3.org/2000/svg" xmlns:ti="urn:schemas-jetbrains-com:tisvg"><rect id="frame" width="16" height="16" fill="none"/><g fill-rule="evenodd"><path d="M14.975 10.608V8.437c0-2.105-1.2-3.362-3.207-3.362-.89 0-1.78.239-2.448.655l-.673.42.74 2.18a2.791 2.791 0 0 0-.621.799L6.488 3H3.604L0 12.622V13h3.467l.693-2.037h1.723L6.603 13h8.618l-.173-1.15a8.714 8.714 0 0 1-.073-1.242z" fill="#242424"/><path d="M12.955 9.038c-1.15-.024-2.458.18-2.458 1.307 0 .696.455 1.007.983 1.007.768 0 1.26-.479 1.427-.971.036-.12.048-.24.048-.336m1.02.563c0 .504.024.996.084 1.392h-.948l-.084-.732h-.036c-.323.457-.947.864-1.775.864-1.175 0-1.775-.827-1.775-1.667 0-1.404 1.247-2.171 3.491-2.159v-.12c0-.467-.132-1.343-1.32-1.332-.552 0-1.115.157-1.523.432l-.24-.707c.48-.3 1.187-.504 1.918-.504 1.776 0 2.208 1.211 2.208 2.362m-7.737.444L5.128 5.69a3.937 3.937 0 0 1-.107-.502h-.02a3.317 3.317 0 0 1-.113.502L3.79 8.881M8.766 12H7.31L6.59 9.964H3.443L2.751 12h-1.45l2.996-8h1.495l2.974 8z" fill="#C4C4C4"/></g></svg>