<svg ti:v="1" width="16" height="16" viewBox="0 0 16 16" xmlns="http://www.w3.org/2000/svg" xmlns:ti="urn:schemas-jetbrains-com:tisvg"><rect id="frame" width="16" height="16" fill="none"/><linearGradient id="a" x1=".5" y1="0" x2=".5" y2="1"><stop offset="0" stop-color="#56758A"/><stop offset="1" stop-color="#024551"/></linearGradient><path fill-rule="evenodd" d="M2 14V0h11.414L16 2.586V14H2z" fill="url(#a)"/><linearGradient id="b" x1=".5" y1="0" x2=".5" y2="1"><stop offset="0" stop-color="#74BCDE"/><stop offset="1" stop-color="#87AEE6"/></linearGradient><path fill-rule="evenodd" d="M15 3v10H3V1h10l2 2z" fill="url(#b)"/><linearGradient id="c" x1=".5" y1="0" x2=".5" y2="1"><stop offset="0" stop-color="#E6F7FF"/><stop offset="1" stop-color="#D6DFED"/></linearGradient><path fill-rule="evenodd" d="M6 6h6V1H6v5z" fill="url(#c)"/><path fill-rule="evenodd" d="M11 1H9v3h2V1z" fill="#71797D"/><path fill-rule="evenodd" d="M13 12.5H5V8h8v4.5z" fill="#FFC"/><linearGradient id="d" x1="0" y1=".5" x2="1" y2=".5"><stop offset="0" stop-color="#9E0000"/><stop offset="1" stop-color="#008010"/></linearGradient><path fill-rule="evenodd" d="M9.914 9H8v2H5V9H3.086L0 12.086v.828L3.086 16H5v-2h3v2h1.914L13 12.914v-.828L9.914 9z" fill="url(#d)"/><linearGradient id="e" x1=".5" y1="0" x2=".5" y2="1"><stop offset="0" stop-color="#80FFB7"/><stop offset="1" stop-color="#0F2"/></linearGradient><path fill-rule="evenodd" d="M9.5 10H9v1l1 1H7v1h3l-1 1v1h.5l2.5-2.5L9.5 10z" fill="url(#e)"/><linearGradient id="f" x1=".5" y1="0" x2=".5" y2="1"><stop offset="0" stop-color="#FFCE85"/><stop offset="1" stop-color="#FF5D5D"/></linearGradient><path fill-rule="evenodd" d="M6 12H3l1-1v-1h-.5L1 12.5 3.5 15H4v-1l-1-1h3v-1z" fill="url(#f)"/></svg>