<svg ti:v="1" width="16" height="16" viewBox="0 0 16 16" xmlns="http://www.w3.org/2000/svg" xmlns:ti="urn:schemas-jetbrains-com:tisvg"><rect id="frame" width="16" height="16" fill="none"/><g fill-rule="evenodd"><path d="M2 14V0h11.414L16 2.586V14H2z" fill="#242424"/><path d="M15 3v10H3V1h10l2 2z" fill="#C4C4C4"/><path d="M6 6h6V1H6v5z" fill="#292929"/><path d="M11 1H9v3h2V1z" fill="#C4C4C4"/><path d="M13 12.5H5V8h8v4.5z" fill="#292929"/><path d="M9.914 9H8v2H5V9H3.086L0 12.086v.828L3.086 16H5v-2h3v2h1.914L13 12.914v-.828L9.914 9z" fill="#242424"/><path d="M9.5 10H9v1l1 1H7v1h3l-1 1v1h.5l2.5-2.5L9.5 10z" fill="#7CBEFF"/><path d="M6 12H3l1-1v-1h-.5L1 12.5 3.5 15H4v-1l-1-1h3v-1z" fill="#7CBEFF"/></g></svg>