<svg ti:v="1" width="16" height="16" viewBox="0 0 16 16" xmlns="http://www.w3.org/2000/svg" xmlns:ti="urn:schemas-jetbrains-com:tisvg"><rect id="frame" width="16" height="16" fill="none"/><g fill-rule="evenodd"><path d="M14.959 7C14.542 2.061 11.038 2 11 2H5c-.038 0-3.542.061-3.959 5H0v3h1.041c.417 4.939 3.921 5 3.959 5h6c.038 0 3.542-.061 3.959-5H16V7h-1.041z" fill="#242424"/><path d="M4 7c0-3 1-3 1-3V3S2 3 2 8H1v1h1c0 5 3 5 3 5v-1s-1 0-1-3L3 9V8l1-1z" fill="#C4C4C4"/><path d="M13 8v1l-1 1c0 3-1 3-1 3v1s3 0 3-5h1V8h-1c0-5-3-5-3-5v1s1 0 1 3l1 1z" fill="#C4C4C4"/><path d="M9.134 6.599l-1.58 4.736c-.257-.176-.5-.499-.688-.933l1.58-4.737c.257.177.5.499.688.934zM8 12c-1.104 0-2-1.566-2-3.5C6 6.568 6.896 5 8 5s2 1.568 2 3.5c0 1.934-.896 3.5-2 3.5zm0-8C6.344 4 5 6.015 5 8.5 5 10.986 6.344 13 8 13s3-2.014 3-4.5C11 6.015 9.656 4 8 4z" fill="#C4C4C4"/></g></svg>