<svg ti:v="1" width="16" height="16" viewBox="0 0 16 16" xmlns="http://www.w3.org/2000/svg" xmlns:ti="urn:schemas-jetbrains-com:tisvg"><rect id="frame" width="16" height="16" fill="none"/><linearGradient id="a" x1=".5" y1="0" x2=".5" y2="1"><stop offset="0" stop-color="#5E7280"/><stop offset="1" stop-color="#3B4951"/></linearGradient><path fill-rule="evenodd" d="M5 2c-.038 0-3.542.061-3.959 5H0v3h1.041c.417 4.94 3.921 5 3.959 5h6c.038 0 3.542-.06 3.959-5H16V7h-1.041C14.542 2.061 11.038 2 11 2H5z" fill="url(#a)"/><linearGradient id="b" x1=".5" y1="0" x2=".5" y2="1"><stop offset="0" stop-color="#BFE7FF"/><stop offset="1" stop-color="#A4C7DB"/></linearGradient><path fill-rule="evenodd" d="M2 8H1v1h1c0 5 3 5 3 5v-1s-1 0-1-3L3 9V8l1-1c0-3 1-3 1-3V3S2 3 2 8z" fill="url(#b)"/><linearGradient id="c" x1=".5" y1="0" x2=".5" y2="1"><stop offset="0" stop-color="#BFE7FF"/><stop offset="1" stop-color="#A4C7DB"/></linearGradient><path fill-rule="evenodd" d="M11 4s1 0 1 3l1 1v1l-1 1c0 3-1 3-1 3v1s3 0 3-5h1V8h-1c0-5-3-5-3-5v1z" fill="url(#c)"/><linearGradient id="d" x1=".5" y1="0" x2=".5" y2="1"><stop offset="0" stop-color="#F6FFBF"/><stop offset="1" stop-color="#D4DBA4"/></linearGradient><path fill-rule="evenodd" d="M5 8.5C5 10.985 6.344 13 8 13c1.657 0 3-2.015 3-4.5C11 6.014 9.657 4 8 4 6.344 4 5 6.014 5 8.5zm1 0C6 6.567 6.895 5 8 5c1.104 0 2 1.567 2 3.5S9.104 12 8 12c-1.105 0-2-1.567-2-3.5zm.867 1.901c.188.435.43.757.688.934l1.579-4.736c-.189-.435-.431-.757-.689-.934l-1.578 4.736z" fill="url(#d)"/></svg>