<svg ti:v="1" width="16" height="16" viewBox="0 0 16 16" xmlns="http://www.w3.org/2000/svg" xmlns:ti="urn:schemas-jetbrains-com:tisvg"><rect id="frame" width="16" height="16" fill="none"/><linearGradient id="a" x1=".5" y1=".003" x2=".5" y2="1.003"><stop offset="0" stop-color="#7C6D47"/><stop offset="1" stop-color="#60492F"/></linearGradient><path fill-rule="evenodd" d="M4 14V0h7.414L16 4.586V14H4z" fill="url(#a)"/><linearGradient id="b" x1=".5" y1=".004" x2=".5" y2="1"><stop offset="0" stop-color="#E3D8BC"/><stop offset="1" stop-color="#E3CDB3"/></linearGradient><path fill-rule="evenodd" d="M11 1H5v12h10V5l-4-4z" fill="url(#b)"/><linearGradient id="c" x1=".5" y1=".012" x2=".5" y2="1.006"><stop offset="0" stop-color="#FFF3D4"/><stop offset="1" stop-color="#FFF"/></linearGradient><path fill-rule="evenodd" d="M11 5V3H7v8h6V5h-2z" fill="url(#c)"/><linearGradient id="d" x1=".5" y1="0" x2=".5" y2="1"><stop offset="0" stop-color="purple"/><stop offset="1" stop-color="#5B005B"/></linearGradient><path fill-rule="evenodd" d="M0 13.25V7.751L5 5l5 2.751v5.499L5 16l-5-2.75z" fill="url(#d)"/><linearGradient id="e" x1=".028" y1=".5" x2="1.015" y2=".5"><stop offset="0" stop-color="#FD58FF"/><stop offset="1" stop-color="#FF9CFF"/></linearGradient><path fill-rule="evenodd" d="M1 8.801v3.858l4 2.199V11L1 8.801z" fill="url(#e)"/><linearGradient id="f" x1=".028" y1=".5" x2="1.015" y2=".5"><stop offset="0" stop-color="#FD32FF"/><stop offset="1" stop-color="#FFA3FF"/></linearGradient><path fill-rule="evenodd" d="M9 8.801L5 11v3.858l4-2.199V8.801z" fill="url(#f)"/><path fill-rule="evenodd" d="M8.379 8l-3.38 1.858L1.622 8 1 8.342v.459L5 11l4-2.199v-.459L8.379 8z" fill="#FFE6FF"/><linearGradient id="g" x1=".5" y1=".028" x2=".5" y2="1.016"><stop offset="0" stop-color="#FD53FF"/><stop offset="1" stop-color="#FFBFFF"/></linearGradient><path fill-rule="evenodd" d="M5 9.858L8.379 8 5 6.142 1.621 8 5 9.858z" fill="url(#g)"/></svg>