<svg ti:v="1" width="16" height="16" viewBox="0 0 16 16" xmlns="http://www.w3.org/2000/svg" xmlns:ti="urn:schemas-jetbrains-com:tisvg"><rect id="frame" width="16" height="16" fill="none"/><g fill-rule="evenodd"><path d="M4 14V0h7.414L16 4.586V14H4z" fill="#242424"/><path d="M11 1H5v12h10V5l-4-4z" fill="#C4C4C4"/><path d="M11 5V3H7v8h6V5h-2z" fill="#282828"/><path d="M0 13.25V7.751L5 5l5 2.751v5.499L5 16l-5-2.75z" fill="#242424"/><path d="M1 8.801v3.858l4 2.2V11L1 8.801z" fill="#C4C4C4"/><path d="M9 8.801L5 11v3.859l4-2.2V8.801z" fill="#C4C4C4"/><path d="M8.379 8l-3.38 1.858L1.622 8 1 8.342v.459L5 11l4-2.199v-.459L8.379 8z" fill="#282828"/><path d="M5 9.858L8.379 8 5 6.141 1.621 8 5 9.858z" fill="#C4C4C4"/></g></svg>