<svg ti:v="1" width="16" height="16" viewBox="0 0 16 16" xmlns="http://www.w3.org/2000/svg" xmlns:ti="urn:schemas-jetbrains-com:tisvg"><rect id="frame" width="16" height="16" fill="none"/><g fill-rule="evenodd"><path d="M8 11c-.989 0-2.819-.76-2.987-3.573L4 6.414V4.586l1.013-1.013C5.181.76 7.011 0 8 0h3c.989 0 2.819.76 2.987 3.573L15 4.586v1.828l-1.013 1.013C13.819 10.24 11.989 11 11 11H8z" fill="#F4F4F4"/><path d="M7 5V4c0-2 1-2 1-2V1S6 1 6 4L5 5v1l1 1c0 3 2 3 2 3V9S7 9 7 7V6H6V5m7 0v1h-1v1c0 2-1 2-1 2v1s2 0 2-3l1-1V5l-1-1c0-3-2-3-2-3v1s1 0 1 2v1h1z" fill="#313131"/><path d="M9 12H7.414L10 9.414v-.828L8.414 7h-.828L5 9.586V8H3.586L1 10.586V16h5.414L9 13.414V12z" fill="#F4F4F4"/><path d="M4 9v3l4-4 1 1-4 4h3l-2 2H2v-4l2-2z" fill="#00529C"/></g></svg>