<svg ti:v="1" width="16" height="16" viewBox="0 0 16 16" xmlns="http://www.w3.org/2000/svg" xmlns:ti="urn:schemas-jetbrains-com:tisvg"><rect id="frame" width="16" height="16" fill="none"/><linearGradient id="a" x1=".5" y1="0" x2=".5" y2="1"><stop offset="0" stop-color="#EAFF5E"/><stop offset="1" stop-color="#C1DE00"/></linearGradient><path fill-rule="evenodd" d="M8 0c-.99 0-2.819.76-2.988 3.573L4 4.586v1.828l1.012 1.013C5.181 10.24 7.01 11 8 11h3c.989 0 2.819-.76 2.987-3.573L15 6.414V4.586l-1.013-1.013C13.819.76 11.989 0 11 0H8z" fill="url(#a)"/><path fill-rule="evenodd" d="M7 5V4c0-2 1-2 1-2V1S6 1 6 4L5 5v1l1 1c0 3 2 3 2 3V9S7 9 7 7V6H6V5m7 0v1h-1v1c0 2-1 2-1 2v1s2 0 2-3l1-1V5l-1-1c0-3-2-3-2-3v1s1 0 1 2v1h1z" fill="#495E00"/><linearGradient id="b" x1=".5" y1="0" x2=".5" y2="1"><stop offset="0" stop-color="#4D6791"/><stop offset="1" stop-color="#283851"/></linearGradient><path fill-rule="evenodd" d="M7.586 7L5 9.586V8H3.586L1 10.586V16h5.414L9 13.414V12H7.414L10 9.414v-.828L8.415 7h-.829z" fill="url(#b)"/><linearGradient id="c" x1=".5" y1="0" x2=".5" y2="1"><stop offset="0" stop-color="#ABF0FF"/><stop offset=".994" stop-color="#60BDFF"/><stop offset="1" stop-color="#60BDFF"/></linearGradient><path fill-rule="evenodd" d="M4 12V9l-2 2v4h4l2-2H5l4-4-1-1-4 4z" fill="url(#c)"/></svg>