<svg ti:v="1" width="16" height="16" viewBox="0 0 16 16" xmlns="http://www.w3.org/2000/svg" xmlns:ti="urn:schemas-jetbrains-com:tisvg"><rect id="frame" width="16" height="16" fill="none"/><g fill-rule="evenodd"><path d="M12 16v-4H8v-2h2V6H7V3H0v13h12z" fill="#242424"/><path d="M6 4H1v2h5m3 1H1v2h8m-2 1H1v2h6m-6 1h10v2H1v-2z" fill="#C4C4C4"/><path d="M7 11V8.829A3.006 3.006 0 0 1 5 6V3c0-1.654 1.346-3 3-3h5c1.654 0 3 1.346 3 3v3c0 1.654-1.346 3-3 3h-1.172l-2 2H7z" fill="#242424"/><path d="M13 1H8c-1.103 0-2 .897-2 2v3c0 1.103.897 2 2 2v2h1.414l2-2H13c1.103 0 2-.897 2-2V3c0-1.103-.897-2-2-2z" fill="#C4C4C4"/><path d="M13 2H8a1 1 0 0 0-1 1v3a1 1 0 0 0 1 1h1v2l2-2h2a1 1 0 0 0 1-1V3a1 1 0 0 0-1-1z" fill="#282828"/></g></svg>