<svg ti:v="1" width="16" height="16" viewBox="0 0 16 16" xmlns="http://www.w3.org/2000/svg" xmlns:ti="urn:schemas-jetbrains-com:tisvg"><rect id="frame" width="16" height="16" fill="none"/><linearGradient id="a" x1=".5" y1=".007" x2=".5" y2=".993"><stop offset="0" stop-color="#385985"/><stop offset="1" stop-color="#263C59"/></linearGradient><path fill-rule="evenodd" d="M0 3v13h12v-4H8v-2h2V6H7V3H0z" fill="url(#a)"/><linearGradient id="b" x1="0" y1=".5" x2="1" y2=".5"><stop offset="0" stop-color="#C7EAFF"/><stop offset="1" stop-color="#85B5FF"/></linearGradient><path fill-rule="evenodd" d="M1 6h5V3.999H1M1 9h8V7H1m0 5h5.999v-2H1m0 5h10v-2.001H1V15z" fill="url(#b)"/><linearGradient id="c" x1=".5" y1="0" x2=".5" y2="1"><stop offset="0" stop-color="#807737"/><stop offset="1" stop-color="#4E4922"/></linearGradient><path fill-rule="evenodd" d="M8 0C6.345 0 5 1.346 5 3v3c0 1.303.836 2.416 2 2.829V11h2.828l2-2H13c1.654 0 3-1.346 3-3V3c0-1.654-1.346-3-3-3H8z" fill="url(#c)"/><linearGradient id="d" x1=".5" y1="0" x2=".5" y2="1"><stop offset="0" stop-color="#FFF"/><stop offset="1" stop-color="#D9C840"/></linearGradient><path fill-rule="evenodd" d="M8 1c-1.103 0-2 .897-2 2v3c0 1.103.897 2 2 2v2h1.414l2-2H13c1.103 0 2-.897 2-2V3c0-1.103-.897-2-2-2H8z" fill="url(#d)"/><linearGradient id="e" x1=".5" y1="0" x2=".5" y2="1"><stop offset="0" stop-color="#C7B200"/><stop offset="1" stop-color="#FFFBD9"/></linearGradient><path fill-rule="evenodd" d="M8 2a1 1 0 0 0-1 1v3a1 1 0 0 0 1 1h1v2l2-2h2a1 1 0 0 0 1-1V3a1 1 0 0 0-1-1H8z" fill="url(#e)"/></svg>