<svg ti:v="1" width="16" height="16" viewBox="0 0 16 16" xmlns="http://www.w3.org/2000/svg" xmlns:ti="urn:schemas-jetbrains-com:tisvg"><rect id="frame" width="16" height="16" fill="none"/><linearGradient id="a" x1=".5" y1="0" x2=".5" y2="1"><stop offset="0" stop-color="#828075"/><stop offset="1" stop-color="#494942"/></linearGradient><path fill-rule="evenodd" d="M2.437 2.186C1.418 2.735.238 3.517.145 4.694c-.09 1.129.869 1.861 1.183 2.1l.425.319c.79.588 1.748 1.3 2.103 2.058a9.98 9.98 0 0 1-.941-.087A8.896 8.896 0 0 0 1.935 9C.787 9 .211 9.663.053 10.284c-.297 1.182.66 2.601 2.383 3.531C3.87 14.59 5.549 15 7.29 15 12.093 15 16 11.86 16 8s-3.907-7-8.71-7c-1.741 0-3.42.41-4.853 1.186z" fill="url(#a)"/><linearGradient id="b" x1=".5" y1="0" x2=".5" y2="1"><stop offset="0" stop-color="#FFF"/><stop offset="1" stop-color="#FFFBE6"/></linearGradient><path fill-rule="evenodd" d="M2.91 3.066C.818 4.194.694 5.053 1.935 6c1.082.828 2.732 1.891 3.015 3.297.28 1.394-2.01.703-3.015.703-1.564 0-1.117 1.806.975 2.934C4.152 13.607 5.661 14 7.29 14 11.547 14 15 11.313 15 8s-3.453-6-7.71-6c-1.629 0-3.138.393-4.38 1.066z" fill="url(#b)"/><linearGradient id="c" x1=".5" y1="0" x2=".5" y2="1"><stop offset="0" stop-color="#FF8080"/><stop offset="1" stop-color="red"/></linearGradient><path fill-rule="evenodd" d="M5 4.5a1.5 1.5 0 0 0 3 0 1.5 1.5 0 0 0-3 0z" fill="url(#c)"/><linearGradient id="d" x1=".5" y1=".022" x2=".5" y2=".992"><stop offset="0" stop-color="#90B6FF"/><stop offset="1" stop-color="#6B95E6"/></linearGradient><path fill-rule="evenodd" d="M6 11.5a1.5 1.5 0 0 0 3 0 1.5 1.5 0 0 0-3 0z" fill="url(#d)"/><linearGradient id="e" x1=".5" y1="0" x2=".5" y2="1"><stop offset="0" stop-color="#69D183"/><stop offset="1" stop-color="#048900"/></linearGradient><path fill-rule="evenodd" d="M9 5.5a1.5 1.5 0 0 0 3 0 1.5 1.5 0 0 0-3 0z" fill="url(#e)"/><linearGradient id="f" x1=".5" y1="0" x2=".5" y2="1"><stop offset="0" stop-color="#D6A300"/><stop offset="1" stop-color="#DB5B00"/></linearGradient><path fill-rule="evenodd" d="M10 9.5a1.5 1.5 0 0 0 3 0 1.5 1.5 0 0 0-3 0z" fill="url(#f)"/></svg>