<svg ti:v="1" width="16" height="16" viewBox="0 0 16 16" xmlns="http://www.w3.org/2000/svg" xmlns:ti="urn:schemas-jetbrains-com:tisvg"><rect id="frame" width="16" height="16" fill="none"/><g fill-rule="evenodd"><path d="M7.29 15c-1.74 0-3.42-.41-4.855-1.186-1.722-.929-2.679-2.348-2.38-3.53C.21 9.663.786 9 1.934 9c.266 0 .611.039.98.084.324.04.66.081.941.087-.355-.758-1.313-1.47-2.103-2.058l-.425-.319c-.314-.239-1.272-.971-1.183-2.1.093-1.177 1.273-1.96 2.291-2.508C3.87 1.41 5.55 1 7.29 1 12.093 1 16 4.141 16 8s-3.907 7-8.71 7z" fill="#242424"/><path d="M2.91 3.065C.818 4.194.694 5.052 1.934 6c1.083.828 2.733 1.89 3.015 3.296.281 1.395-2.01.704-3.015.704-1.563 0-1.116 1.805.976 2.934C4.152 13.606 5.661 14 7.29 14 11.547 14 15 11.313 15 8c0-3.314-3.452-6-7.71-6-1.629 0-3.138.393-4.38 1.065z" fill="#C3C3C3"/><path d="M8 4.5a1.5 1.5 0 1 1-3.001-.001A1.5 1.5 0 0 1 8 4.5z" fill="#292929"/><path d="M9 11.5a1.5 1.5 0 1 1-3.001-.001A1.5 1.5 0 0 1 9 11.5z" fill="#292929"/><path d="M12 5.5a1.5 1.5 0 1 1-3.001-.001A1.5 1.5 0 0 1 12 5.5z" fill="#292929"/><path d="M13 9.5a1.5 1.5 0 1 1-3.001-.001A1.5 1.5 0 0 1 13 9.5z" fill="#292929"/></g></svg>