<svg ti:v="1" width="16" height="16" viewBox="0 0 16 16" xmlns="http://www.w3.org/2000/svg" xmlns:ti="urn:schemas-jetbrains-com:tisvg"><rect id="frame" width="16" height="16" fill="none"/><g fill-rule="evenodd"><path d="M5.653 13.668L3.42 14.73 1.27 12.581l1.061-2.233-2.33-.83V6.482l2.33-.83-1.06-2.233 2.148-2.148 2.234 1.061L6.483 0 9.52.001l.83 2.331 2.233-1.061 2.147 2.148-1.06 2.233 2.331.83v3.036l-2.33.83 1.06 2.233-2.148 2.149-2.234-1.062L9.52 16H6.482l-.829-2.332z" fill="#242424"/><path d="M12.748 9.614l-.248.604 1.023 2.155-1.149 1.15-2.155-1.024-.605.249L8.813 15H7.188l-.8-2.252-.606-.248-2.155 1.023-1.15-1.15L3.5 10.218l-.248-.604L1 8.812V7.187l2.252-.802.248-.604-1.023-2.154 1.15-1.151L5.782 3.5l.606-.249.8-2.251 1.625.001.801 2.252.605.248 2.155-1.025 1.149 1.151L12.5 5.781l.248.604L15 7.187v1.625l-2.252.802z" fill="#C3C3C3"/><path d="M8 5a3 3 0 1 0 0 6 3 3 0 0 0 0-6z" fill="#292929"/><path d="M9.5 8a1.5 1.5 0 1 1-3 0 1.5 1.5 0 0 1 3 0z" fill="#C3C3C3"/></g></svg>