<svg ti:v="1" width="16" height="16" viewBox="0 0 16 16" xmlns="http://www.w3.org/2000/svg" xmlns:ti="urn:schemas-jetbrains-com:tisvg"><rect id="frame" width="16" height="16" fill="none"/><g fill-rule="evenodd"><path d="M16 14H9V3h7v11z" fill="#F4F4F4"/><path d="M10 13h5V7h-5v6z" fill="#313131"/><path d="M14 12h-4V7h4v5z" fill="#EBEBEB"/><path d="M15 7h-5V4h5v3z" fill="#313131"/><path d="M7 14V3H2v2H0v7h2v2h5z" fill="#F4F4F4"/><path d="M5 4v1H4V4H3v1H2v1H1v1h1v1H1v1h1v1H1v1h1v1h1v1h1v-1h1v1h1V4H5z" fill="#313131"/><path d="M6 6H3v5h3V6z" fill="#EBEBEB"/><path d="M6 7H4v3h2V7z" fill="#313131"/><path d="M10 16H6V0h4v16z" fill="#F4F4F4"/><path d="M7 2h1V.999H7V2z" fill="#00529C"/><path d="M8 3h1V2H8v1z" fill="#00529C"/><path d="M7 4h1V3H7v1z" fill="#00529C"/><path d="M8 5h1V4H8v1z" fill="#00529C"/><path d="M7 6h1V5H7v1z" fill="#00529C"/><path d="M8 7h1V6H8v1z" fill="#00529C"/><path d="M7 8h1V7H7v1z" fill="#00529C"/><path d="M8 9h1V8H8v1z" fill="#00529C"/><path d="M7 10h1V9H7v1z" fill="#00529C"/><path d="M8 11h1V9.999H8V11z" fill="#00529C"/><path d="M7 12h1v-1H7v1z" fill="#00529C"/><path d="M8 13h1v-1H8v1z" fill="#00529C"/><path d="M7 14h1v-1H7v1z" fill="#00529C"/><path d="M8 15h1v-1H8v1z" fill="#00529C"/></g></svg>