<svg ti:v="1" width="16" height="16" viewBox="0 0 16 16" xmlns="http://www.w3.org/2000/svg" xmlns:ti="urn:schemas-jetbrains-com:tisvg"><rect id="frame" width="16" height="16" fill="none"/><linearGradient id="a" x1=".5" y1=".012" x2=".5" y2="1"><stop offset="0" stop-color="#566980"/><stop offset="1" stop-color="#2D3641"/></linearGradient><path fill-rule="evenodd" d="M16 14H9V3h7v11z" fill="url(#a)"/><linearGradient id="b" x1=".012" y1=".5" x2="1" y2=".5"><stop offset="0" stop-color="#FFF"/><stop offset="1" stop-color="#A7BADB"/></linearGradient><path fill-rule="evenodd" d="M10 13h5V7h-5v6z" fill="url(#b)"/><linearGradient id="c" x1=".5" y1=".01" x2=".5" y2="1"><stop offset="0" stop-color="#FFF"/><stop offset="1" stop-color="#A7BADB"/></linearGradient><path fill-rule="evenodd" d="M14 12h-4V7h4v5z" fill="url(#c)"/><linearGradient id="d" x1="0" y1=".5" x2="1" y2=".5"><stop offset="0" stop-color="#6D97E6"/><stop offset="1" stop-color="#2F62C7"/></linearGradient><path fill-rule="evenodd" d="M15 7h-5V4h5v3z" fill="url(#d)"/><path fill-rule="evenodd" d="M7 14V3H2v2H0v7h2v2h5z" fill="#E4EEF0"/><path fill-rule="evenodd" d="M5 4v1H4V4H3v1H2v1H1v1h1v1H1v1h1v1H1v1h1v1h1v1h1v-1h1v1h1V4H5z" fill="#293B47"/><path fill-rule="evenodd" d="M6 6H3v5h3V6z" fill="#FFF3C2"/><path fill-rule="evenodd" d="M6 7H4v3h2V7z" fill="#293B47"/><path fill-rule="evenodd" d="M10 16H6V0h4v16z" fill="#FFEBEB"/><path fill-rule="evenodd" d="M7 2h1V.999H7V2z" fill="#BA4E4E"/><path fill-rule="evenodd" d="M8 3h1.001V2H8v1z" fill="#BA4E4E"/><path fill-rule="evenodd" d="M7 4h1V3H7v1z" fill="#BA4E4E"/><path fill-rule="evenodd" d="M8 5h1.001V4H8v1z" fill="#BA4E4E"/><path fill-rule="evenodd" d="M7 6h1V5H7v1z" fill="#BA4E4E"/><path fill-rule="evenodd" d="M8 7h1.001V6H8v1z" fill="#BA4E4E"/><path fill-rule="evenodd" d="M7 8h1V7H7v1z" fill="#BA4E4E"/><path fill-rule="evenodd" d="M8 9h1.001V8H8v1z" fill="#BA4E4E"/><path fill-rule="evenodd" d="M7 10h1V9H7v1z" fill="#BA4E4E"/><path fill-rule="evenodd" d="M8 11h1.001V9.999H8V11z" fill="#BA4E4E"/><path fill-rule="evenodd" d="M7 12h1v-1H7v1z" fill="#BA4E4E"/><path fill-rule="evenodd" d="M8 13h1.001v-1H8v1z" fill="#BA4E4E"/><path fill-rule="evenodd" d="M7 14h1v-1H7v1z" fill="#BA4E4E"/><path fill-rule="evenodd" d="M8 15h1.001v-1H8v1z" fill="#BA4E4E"/></svg>