<svg ti:v="1" width="16" height="16" viewBox="0 0 16 16" xmlns="http://www.w3.org/2000/svg" xmlns:ti="urn:schemas-jetbrains-com:tisvg"><rect id="frame" width="16" height="16" fill="none"/><g fill-rule="evenodd"><path d="M3.236 15l2.356-1.178L11.414 8 8 4.586l-5.823 5.82L1 12.765v.65L2.586 15h.65z" fill="#242424"/><path d="M8 6l-5 5-1 2 1 1 2-1 5-5-2-2z" fill="#C3C3C3"/><path d="M5 10l3-3 1 1-3 3-1-1z" fill="#282828"/><path d="M14.296 1.7a2.367 2.367 0 0 0-1.682-.7c-.616 0-1.217.236-1.732.701l-.898.898a1.694 1.694 0 0 0-.983-.31c-.456 0-.885.177-1.208.5L7 3.582v.828L11.589 9h.828l.794-.794a1.714 1.714 0 0 0 .188-2.19l.932-.935c.452-.5.675-1.113.669-1.718a2.376 2.376 0 0 0-.704-1.663z" fill="#242424"/><path d="M13.59 2.408c.564.565.529 1.416 0 2.002l-1.587 1.588s.224.223.499.5a.708.708 0 0 1 0 1.002l-.499.5L8 3.996l.5-.5a.707.707 0 0 1 1.001 0l.501.5 1.586-1.588c.586-.527 1.439-.562 2.002 0z" fill="#C3C3C3"/></g></svg>