<svg ti:v="1" width="16" height="16" viewBox="0 0 16 16" xmlns="http://www.w3.org/2000/svg" xmlns:ti="urn:schemas-jetbrains-com:tisvg"><rect id="frame" width="16" height="16" fill="none"/><path fill-rule="evenodd" d="M3.236 15l2.356-1.178L11.414 8 8 4.586l-5.823 5.82L1 12.765v.65L2.586 15h.65z" fill="#3F8187"/><linearGradient id="a" x1=".352" y1=".414" x2=".592" y2=".654"><stop offset="0" stop-color="#82FFE6"/><stop offset="1" stop-color="#6BCAFF"/></linearGradient><path fill-rule="evenodd" d="M3 11l-1 2 1 1 2-1 5-5-2-2-5 5z" fill="url(#a)"/><path fill-rule="evenodd" d="M5 10l3-3 1 1-3 3-1-1z" fill="#FFF"/><linearGradient id="b" x1=".27" y1=".071" x2=".936" y2=".737"><stop offset="0" stop-color="#1A4282"/><stop offset="1" stop-color="#001A46"/></linearGradient><path fill-rule="evenodd" d="M10.882 1.7l-.898.9a1.689 1.689 0 0 0-.983-.311c-.457 0-.885.177-1.208.5L7 3.582v.828L11.589 9h.828l.794-.794a1.713 1.713 0 0 0 .187-2.191l.933-.934c.452-.5.675-1.113.669-1.718a2.376 2.376 0 0 0-.704-1.663 2.367 2.367 0 0 0-1.682-.7c-.616 0-1.217.236-1.732.7z" fill="url(#b)"/><linearGradient id="c" x1=".308" y1=".042" x2=".965" y2=".699"><stop offset="0" stop-color="#B8D3FF"/><stop offset="1" stop-color="#3679EB"/></linearGradient><path fill-rule="evenodd" d="M11.588 2.408l-1.586 1.588-.501-.5a.707.707 0 0 0-1.001 0l-.5.5L12.003 8l.499-.5a.708.708 0 0 0 0-1.002l-.499-.5L13.59 4.41c.529-.586.564-1.437 0-2.002A1.37 1.37 0 0 0 12.614 2c-.362 0-.728.14-1.026.408z" fill="url(#c)"/></svg>