<svg ti:v="1" width="16" height="16" viewBox="0 0 16 16" xmlns="http://www.w3.org/2000/svg" xmlns:ti="urn:schemas-jetbrains-com:tisvg"><rect id="frame" width="16" height="16" fill="none"/><g fill-rule="evenodd"><path d="M13 13.5c-.4 0-.777-.156-1.061-.44L8 9.12l-3.939 3.94c-.284.284-.661.44-1.061.44a1.502 1.502 0 0 1-1.061-2.561l5-5A1.494 1.494 0 0 1 8 5.5c.4 0 .777.156 1.061.439l5 5A1.502 1.502 0 0 1 13 13.5z" fill="#242424"/><path d="M6 12a3.001 3.001 0 0 1-6 0 3.001 3.001 0 0 1 6 0z" fill="#242424"/><path d="M8 9C5.795 9 4 7.205 4 5s1.795-4 4-4 4 1.795 4 4-1.795 4-4 4z" fill="#242424"/><path d="M16 12a3.001 3.001 0 0 1-6 0 3.001 3.001 0 0 1 6 0z" fill="#242424"/><path d="M13 12.5a.503.503 0 0 1-.354-.146L8 7.707l-4.646 4.647a.502.502 0 0 1-.708-.708l5-5a.501.501 0 0 1 .708 0l5 5A.502.502 0 0 1 13 12.5z" fill="#C4C4C4"/><path d="M5 12a2 2 0 1 1-4.001-.001A2 2 0 0 1 5 12z" fill="#C4C4C4"/><path d="M15 12a2 2 0 1 1-4.001-.001A2 2 0 0 1 15 12z" fill="#C4C4C4"/><path d="M11 5a3 3 0 1 1-6 0 3 3 0 0 1 6 0z" fill="#C4C4C4"/><path d="M10 5a2 2 0 1 1-4.001-.001A2 2 0 0 1 10 5z" fill="#282828"/></g></svg>