<svg ti:v="1" width="16" height="16" viewBox="0 0 16 16" xmlns="http://www.w3.org/2000/svg" xmlns:ti="urn:schemas-jetbrains-com:tisvg"><rect id="frame" width="16" height="16" fill="none"/><linearGradient id="a" x1=".5" y1="0" x2=".5" y2="1"><stop offset="0" stop-color="#5D6B75"/><stop offset="1" stop-color="#2F4144"/></linearGradient><path fill-rule="evenodd" d="M8 8V2H1v13h13V8H8z" fill="url(#a)"/><linearGradient id="b" x1=".5" y1=".017" x2=".5" y2="1.051"><stop offset="0" stop-color="#FFE1D1"/><stop offset="1" stop-color="#FFA756"/></linearGradient><path fill-rule="evenodd" d="M7 14H2V9h5v5z" fill="url(#b)"/><linearGradient id="c" x1=".5" y1=".017" x2=".5" y2="1.051"><stop offset="0" stop-color="#D1FFE8"/><stop offset="1" stop-color="#44FFA5"/></linearGradient><path fill-rule="evenodd" d="M7 8H2V3h5v5z" fill="url(#c)"/><linearGradient id="d" x1=".5" y1="0" x2=".5" y2="1"><stop offset="0" stop-color="#567589"/><stop offset="1" stop-color="#024652"/></linearGradient><path fill-rule="evenodd" d="M16 7H9V0h7v7z" fill="url(#d)"/><linearGradient id="e" x1=".5" y1="0" x2=".5" y2="1"><stop offset="0" stop-color="#82E4FF"/><stop offset="1" stop-color="#0AF"/></linearGradient><path fill-rule="evenodd" d="M15 6h-5V1h5v5z" fill="url(#e)"/><linearGradient id="f" x1=".5" y1=".006" x2=".5" y2="1"><stop offset="0" stop-color="#F4FFE8"/><stop offset="1" stop-color="#D4D12A"/></linearGradient><path fill-rule="evenodd" d="M13 14H8V9h5v5z" fill="url(#f)"/></svg>