<svg ti:v="1" width="16" height="16" viewBox="0 0 16 16" xmlns="http://www.w3.org/2000/svg" xmlns:ti="urn:schemas-jetbrains-com:tisvg"><rect id="frame" width="16" height="16" fill="none"/><path fill-rule="evenodd" d="M13 13.5c-.4 0-.777-.156-1.061-.44L8 9.12l-3.939 3.94c-.284.284-.661.44-1.061.44a1.502 1.502 0 0 1-1.061-2.561l5-5A1.494 1.494 0 0 1 8 5.5c.4 0 .777.156 1.061.439l5 5A1.502 1.502 0 0 1 13 13.5z"/><linearGradient id="a" x1=".5" y1="0" x2=".5" y2="1"><stop offset="0" stop-color="#1D7774"/><stop offset="1" stop-color="#003F3C"/></linearGradient><path fill-rule="evenodd" d="M0 12a3.001 3.001 0 0 0 6 0 3.001 3.001 0 0 0-6 0z" fill="url(#a)"/><linearGradient id="b" x1=".5" y1="0" x2=".5" y2="1"><stop offset="0" stop-color="#794D00"/><stop offset="1" stop-color="#463210"/></linearGradient><path fill-rule="evenodd" d="M4 5c0 2.205 1.795 4 4 4 2.206 0 4-1.795 4-4s-1.794-4-4-4C5.795 1 4 2.795 4 5z" fill="url(#b)"/><linearGradient id="c" x1=".5" y1="0" x2=".5" y2="1"><stop offset="0" stop-color="#1D7774"/><stop offset="1" stop-color="#003F3C"/></linearGradient><path fill-rule="evenodd" d="M10 12a3.001 3.001 0 0 0 6 0 3.001 3.001 0 0 0-6 0z" fill="url(#c)"/><path fill-rule="evenodd" d="M13 12.5a.503.503 0 0 1-.354-.146L8 7.707l-4.646 4.647a.502.502 0 0 1-.708-.708l5-5a.501.501 0 0 1 .708 0l5 5A.502.502 0 0 1 13 12.5z" fill="#FFF"/><linearGradient id="d" x1=".5" y1="0" x2=".5" y2="1"><stop offset="0" stop-color="#3AEBE5"/><stop offset="1" stop-color="#00BDB6"/></linearGradient><path fill-rule="evenodd" d="M1 12a2 2 0 0 0 4 0 2 2 0 0 0-4 0z" fill="url(#d)"/><linearGradient id="e" x1=".5" y1="0" x2=".5" y2="1"><stop offset="0" stop-color="#3AEBE5"/><stop offset="1" stop-color="#00BDB6"/></linearGradient><path fill-rule="evenodd" d="M11 12a2 2 0 0 0 4 0 2 2 0 0 0-4 0z" fill="url(#e)"/><linearGradient id="f" x1=".5" y1="0" x2=".5" y2="1"><stop offset="0" stop-color="#FFF9F2"/><stop offset="1" stop-color="#FFB43E"/></linearGradient><path fill-rule="evenodd" d="M5 5a3 3 0 1 0 6 0 3 3 0 1 0-6 0z" fill="url(#f)"/><linearGradient id="g" x1=".5" y1="0" x2=".5" y2="1"><stop offset="0" stop-color="#FFDCA3"/><stop offset="1" stop-color="#FFB43E"/></linearGradient><path fill-rule="evenodd" d="M6 5a2 2 0 0 0 4 0 2 2 0 0 0-4 0z" fill="url(#g)"/></svg>