<svg xmlns="http://www.w3.org/2000/svg" xmlns:xlink="http://www.w3.org/1999/xlink" width="16" height="16" viewBox="0 0 16 16"><rect id="frame" width="16" height="16" fill="none"/><defs><linearGradient id="b" x1="10.5" x2="10.5" y2="11.964" gradientUnits="userSpaceOnUse"><stop offset="0" stop-color="#7d6833"/><stop offset="1" stop-color="#54391a"/></linearGradient><linearGradient id="a" x1="13.5" y1=".992" x2="13.5" y2="4.003" gradientUnits="userSpaceOnUse"><stop offset="0" stop-color="#e2d0a0"/><stop offset="1" stop-color="#e2ccb2"/></linearGradient><linearGradient id="d" x1="10.5" y1=".975" x2="10.5" y2="11.009" xlink:href="#a"/><linearGradient id="c" x1="10.5" y1="2.492" x2="10.5" y2="9.557" gradientUnits="userSpaceOnUse"><stop offset="0" stop-color="#fff"/><stop offset="1" stop-color="#fff1d1"/></linearGradient><linearGradient id="e" x1="5.5" y1="4" x2="5.5" y2="15.964" xlink:href="#b"/><linearGradient id="f" x1="8.5" y1="4.992" x2="8.5" y2="8.003" xlink:href="#a"/><linearGradient id="g" x1="5.5" y1="4.975" x2="5.5" y2="15.009" xlink:href="#a"/><linearGradient id="h" x1="5.5" y1="6.492" x2="5.5" y2="13.557" xlink:href="#c"/></defs><path d="M5 12V0h7.414L16 3.586V12z" fill="url(#b)"/><path fill="url(#a)" d="M15 4l-3-3v3h3z"/><path fill="url(#d)" d="M11 1H6v10h9V5h-4V1z"/><path fill="url(#c)" d="M11 5V2.5H7.5v7h6V5H11z"/><g><path d="M0 16V4h7.414L11 7.586V16z" fill="url(#e)"/><path fill="url(#f)" d="M10 8L7 5v3h3z"/><path fill="url(#g)" d="M6 5H1v10h9V9H6V5z"/><path fill="url(#h)" d="M6 9V6.5H2.5v7h6V9H6z"/></g></svg>