<svg ti:v="1" width="16" height="16" viewBox="0 0 16 16" xmlns="http://www.w3.org/2000/svg" xmlns:ti="urn:schemas-jetbrains-com:tisvg"><rect id="frame" width="16" height="16" fill="none"/><path fill-rule="evenodd" d="M15 5h-2.875c-.195-.4-.43-.779-.7-1.132L13.916 2l-1.5-2h-.833l-2.79 2.093a3.427 3.427 0 0 0-1.586 0L4.416 0h-.833l-1.5 2 2.492 1.868c-.27.353-.505.733-.7 1.132H1v9h3.471A4.388 4.388 0 0 0 8 16a4.388 4.388 0 0 0 3.529-2H15zm0 0" fill="#252525" opacity=".749"/><path d="M4.46 13H2v-1.5h1.847c.15.52.356 1.023.613 1.5zM3.5 9c0-.084.007-.166.009-.25H2v1.5h1.585A9.448 9.448 0 0 1 3.5 9zm.512-3H2v1.5h1.626c.082-.51.212-1.013.386-1.5zm7.528 7H14v-1.5h-1.847a7.574 7.574 0 0 1-.613 1.5zm.448-7c.174.487.304.99.386 1.5H14V6zm.512 3c0 .418-.029.836-.085 1.25H14v-1.5h-1.509c.002.084.009.166.009.25zM5.676 3.444L3.483 1.8l.6-.8 2.469 1.852a4.069 4.069 0 0 0-.876.592zm4.648 0L12.517 1.8l-.6-.8-2.469 1.852c.317.158.611.357.876.592zm0 0" fill="#C4C4C4"/><path d="M12 9c0 3.314-1.79 6-4 6s-4-2.686-4-6 1.79-6 4-6 4 2.686 4 6z" fill="#C4C4C4"/><path fill-rule="evenodd" d="M5.567 8A7.907 7.907 0 0 0 5.5 9c0 2.482 1.121 4.5 2.5 4.5s2.5-2.018 2.5-4.5a7.907 7.907 0 0 0-.067-1zm0 0" fill="#292929"/><path fill-rule="evenodd" d="M10.433 8C10.18 6 9.189 4.5 8 4.5 6.811 4.5 5.82 6 5.567 8zm0 0" fill="#C4C4C4"/></svg>