<svg ti:v="1" width="16" height="16" viewBox="0 0 16 16" xmlns="http://www.w3.org/2000/svg" xmlns:ti="urn:schemas-jetbrains-com:tisvg"><rect id="frame" width="16" height="16" fill="none"/><linearGradient id="a" x1=".5" y1="0" x2=".5" y2=".981"><stop offset="0" stop-color="#8C0A00"/><stop offset="1" stop-color="#C60000"/></linearGradient><path fill-rule="evenodd" d="M12.661 1L8.142 4.698l-1.963-2.83c-.406-.478-1.038-.751-1.734-.751-.681 0-1.335.272-1.764.703-.77.77-1.004 2.467 0 3.473L4.995 7.68.66 11.705c-.999.977-.754 2.985.003 3.47.53.339 1.07.711 1.734.711.668 0 1.28-.253 1.755-.747L8.1 10.645 14.14 16H16v-1.355l-5.28-6.912 4.279-5.346V1h-2.338z" fill="url(#a)"/><linearGradient id="b" x1=".5" y1="-.003" x2=".5" y2=".973"><stop offset="0" stop-color="#FFA88E"/><stop offset="1" stop-color="red"/></linearGradient><path fill-rule="evenodd" d="M13.019 2L7.941 6.159 5.42 2.515c-.484-.569-1.543-.494-2.016 0-.493.509-.591 1.466 0 2.083L6.428 7.72l-5.042 4.683c-.455.453-.505 1.561 0 2.081.504.521 1.474.563 2.018 0l4.61-5.254 6.481 5.775h.504L9.453 7.72 14.028 2h-1.009z" fill="url(#b)"/></svg>