<svg ti:v="1" width="16" height="16" viewBox="0 0 16 16" xmlns="http://www.w3.org/2000/svg" xmlns:ti="urn:schemas-jetbrains-com:tisvg"><rect id="frame" width="16" height="16" fill="none"/><g fill-rule="evenodd"><path d="M2.625 3.073L2 3.326V4c0 6.993 2.843 8.997 5.424 10.817l.334.183H8V2c-1.883 0-4.057.539-5.375 1.073z" fill="#F4F4F4"/><path d="M8.65 14.765C11.156 12.997 14 10.994 14 4v-.674l-.625-.253C12.056 2.539 9.882 2 8 2v13h.316l.333-.235z" fill="#F4F4F4"/><path d="M8 14c-2.406-1.696-5-3.458-5-10 1.254-.508 3.302-1 5-1v11z" fill="#313131"/><path d="M8 14c2.406-1.696 5-3.458 5-10-1.254-.508-3.302-1-5-1v11z" fill="#313131"/><path d="M4 4.696c.153 4.976 1.966 6.62 3.999 8.078L8 12.773V4c-1.333 0-2.88.329-4 .696z" fill="#313131"/><path d="M12 4.696C10.88 4.329 9.333 4 8 4v8.773c2.065-1.486 3.848-3.148 4-8.077z" fill="#EBEBEB"/></g></svg>