<svg ti:v="1" width="16" height="16" viewBox="0 0 16 16" xmlns="http://www.w3.org/2000/svg" xmlns:ti="urn:schemas-jetbrains-com:tisvg"><rect id="frame" width="16" height="16" fill="none"/><linearGradient id="a" x1="0" y1=".5" x2="1" y2=".5"><stop offset="0" stop-color="#003C66"/><stop offset=".495" stop-color="#00559C"/><stop offset="1" stop-color="#002F6E"/></linearGradient><path d="M16 4h-2.892a2.994 2.994 0 0 0-2.917 2.36 5.594 5.594 0 0 0-.218-.575A2.664 2.664 0 0 0 7.475 4H5.131a3.093 3.093 0 0 0-2.145 1.09 15.175 15.175 0 0 0-2.965 6.7l-.021.1v1.1h2.523a2.76 2.76 0 0 0 3.009-2.353c.03-.219.068-.448.112-.68.044.18.088.34.129.471.286.9.817 2.574 2.472 2.574h2.608c1.3 0 2.056-1.272 2.606-2.2a43.039 43.039 0 0 0 2.51-5.55L16 5.127zm0 0" fill="url(#a)"/><linearGradient id="b" x1=".5" y1="0" x2=".5" y2=".999"><stop offset="0" stop-color="#45AFFF"/><stop offset=".473" stop-color="#62D3FC"/><stop offset="1" stop-color="#639DFF"/></linearGradient><path d="M3.7 5.79A2.1 2.1 0 0 1 5.131 5h2.344a1.7 1.7 0 0 1 1.588 1.2 33.6 33.6 0 0 1 1.028 4.293c.351-1.006.64-2.033.864-3.074.29-1.427.819-2.419 2.153-2.419H15a43.613 43.613 0 0 1-2.4 5.288c-.5.841-1.038 1.712-1.748 1.712H8.245c-.823 0-1.171-.78-1.518-1.876-.259-.817-.642-3.115-.806-3.7A9.466 9.466 0 0 0 4.542 10.5a1.786 1.786 0 0 1-2.019 1.488H1A14.266 14.266 0 0 1 3.7 5.79zm0 0" fill="url(#b)"/><path d="M14 5s-1.4 3.132-1.637 3.538c-.15.27-.32.53-.509.774C12.314 8.09 13.275 5 13.276 5zM7.624 6.812C7.459 6.2 7.164 6 6.84 6c.29 1.415.67 2.81 1.137 4.176A1.165 1.165 0 0 0 9.2 11c-.869-.76-1.377-3.449-1.576-4.188zm-5.1 5.176c.1 0 .2-.008.3-.017.24-1.524.626-3.022 1.155-4.471A10.666 10.666 0 0 0 2.2 11.988zm0 0" fill="#FFF"/></svg>