<svg ti:v="1" width="16" height="16" viewBox="0 0 16 16" xmlns="http://www.w3.org/2000/svg" xmlns:ti="urn:schemas-jetbrains-com:tisvg"><rect id="frame" width="16" height="16" fill="none"/><linearGradient id="a" x1=".5" y1="0" x2=".5" y2=".997"><stop offset="0" stop-color="#7C6E48"/><stop offset="1" stop-color="#60492F"/></linearGradient><path fill-rule="evenodd" d="M5 12V0h7.414L16 3.586V12H5z" fill="url(#a)"/><linearGradient id="b" x1=".5" y1="-.003" x2=".5" y2="1.001"><stop offset="0" stop-color="#E2D8BC"/><stop offset="1" stop-color="#E2CDB3"/></linearGradient><path fill-rule="evenodd" d="M12 1H6v10h9V4l-3-3z" fill="url(#b)"/><linearGradient id="c" x1=".5" y1="-.001" x2=".5" y2="1.008"><stop offset="0" stop-color="#FFF2D4"/><stop offset="1" stop-color="#FFF"/></linearGradient><path fill-rule="evenodd" d="M13 9H8V3h3v2h2v4z" fill="url(#c)"/><linearGradient id="d" x1=".5" y1="0" x2=".5" y2=".997"><stop offset="0" stop-color="#7C6E48"/><stop offset="1" stop-color="#60492F"/></linearGradient><path fill-rule="evenodd" d="M0 16V4h7.414L11 7.586V16H0z" fill="url(#d)"/><linearGradient id="e" x1=".5" y1="-.003" x2=".5" y2="1.001"><stop offset="0" stop-color="#E2D8BC"/><stop offset="1" stop-color="#E2CDB3"/></linearGradient><path fill-rule="evenodd" d="M7 5H1v10h9V8L7 5z" fill="url(#e)"/><linearGradient id="f" x1=".5" y1="-.001" x2=".5" y2="1.008"><stop offset="0" stop-color="#FFF2D4"/><stop offset="1" stop-color="#FFF"/></linearGradient><path fill-rule="evenodd" d="M8 13H3V7h3v2h2v4z" fill="url(#f)"/></svg>