<svg xmlns="http://www.w3.org/2000/svg" xmlns:xlink="http://www.w3.org/1999/xlink" width="16" height="16" viewBox="0 0 16 16"><rect id="frame" width="16" height="16" fill="none"/><defs><linearGradient id="a" x1="3.834" y1="7.627" x2="8.308" y2="12.101" gradientUnits="userSpaceOnUse"><stop offset="0" stop-color="#00981c"/><stop offset="1" stop-color="#005e11"/></linearGradient><linearGradient id="b" x1="5.022" y1="8.022" x2="8.015" y2="11.015" gradientUnits="userSpaceOnUse"><stop offset="0" stop-color="#b2ff00"/><stop offset="1" stop-color="#90ce00"/></linearGradient><linearGradient id="c" x1="10.107" y1="1.572" x2="14.484" y2="5.948" gradientUnits="userSpaceOnUse"><stop offset="0" stop-color="#86471a"/><stop offset="1" stop-color="#470000"/></linearGradient><linearGradient id="d" x1="12.061" y1="2" x2="12.061" y2="5.946" gradientUnits="userSpaceOnUse"><stop offset="0" stop-color="#fdffc6"/><stop offset="1" stop-color="#ff9029"/></linearGradient></defs><path fill="url(#a)" d="M1 15h4.414l8-8L9 2.586l-8 8V15z"/><path d="M2.707 10.293L9.5 3.5l3 3-6.793 6.793zM2 11l3 3H2z" fill="url(#b)"/><path d="M8.707 2.879L10 1.586a2 2 0 0 1 2.829 0l1.585 1.586a2 2 0 0 1 0 2.828l-1.293 1.293z" fill="url(#c)"/><path d="M13.121 5.879l.586-.586a1 1 0 0 0 0-1.414l-1.586-1.586a1 1 0 0 0-1.414 0l-.586.586z" fill="url(#d)"/><path fill="#fff" d="M3.56 10.44l6-6 .5.5-6 6z"/></svg>