<svg xmlns="http://www.w3.org/2000/svg" width="16" height="16" viewBox="0 0 16 16"><rect id="frame" width="16" height="16" fill="none"/><path fill="#252525" d="M1 15h4.414l8-8L9 2.586l-8 8V15z"/><path d="M2.707 10.293L9.5 3.5l3 3-6.793 6.793zM2 11l3 3H2z" fill="#c4c4c4"/><path d="M8.707 2.879L10 1.586a2 2 0 0 1 2.829 0l1.585 1.586a2 2 0 0 1 0 2.828l-1.293 1.293z" fill="#252525"/><path d="M13.121 5.879l.586-.586a1 1 0 0 0 0-1.414l-1.586-1.586a1 1 0 0 0-1.414 0l-.586.586z" fill="#c4c4c4"/><path fill="#292929" d="M3.56 10.44l6-6 .5.5-6 6z"/></svg>