<svg ti:v="1" width="48" height="48" viewBox="0 0 48 48" xmlns="http://www.w3.org/2000/svg" xmlns:ti="urn:schemas-jetbrains-com:tisvg"><rect id="frame" width="48" height="48" fill="none"/><g fill-rule="evenodd"><path d="M48 24c0 13.255-10.746 24-24 24C10.745 48 0 37.255 0 24S10.745 0 24 0c13.254 0 24 10.745 24 24z" fill="#F4F4F4"/><path d="M46 24c0 12.15-9.85 22-22 22S2 36.15 2 24 11.85 2 24 2s22 9.85 22 22z" fill="#E41300"/><path d="M29.928 13.079l-5.924 5.925-5.924-5.925a3 3 0 0 0-4.242 0l-.71.71a3 3 0 0 0 0 4.242l5.925 5.924-5.925 5.924a3 3 0 0 0 0 4.242l.71.709a3 3 0 0 0 4.242 0l5.924-5.924 5.924 5.924a3 3 0 0 0 4.242 0l.709-.709a3 3 0 0 0 0-4.242l-5.924-5.924 5.924-5.924a3 3 0 0 0 0-4.242l-.71-.71a3 3 0 0 0-4.241 0z" fill="#EBEBEB"/></g></svg>