<svg xmlns="http://www.w3.org/2000/svg" xmlns:xlink="http://www.w3.org/1999/xlink" width="16" height="16" viewBox="0 0 16 16"><rect id="frame" width="16" height="16" fill="none"/><defs><linearGradient id="a" x1="5.5" y1="7" x2="5.5" y2="15.938" gradientUnits="userSpaceOnUse"><stop offset="0" stop-color="#872f13"/><stop offset="1" stop-color="#4a0000"/></linearGradient><linearGradient id="b" x1="5.5" y1="8" x2="5.5" y2="14.951" gradientUnits="userSpaceOnUse"><stop offset="0" stop-color="#bf3701"/><stop offset="1" stop-color="#f05929"/></linearGradient><linearGradient id="c" x1="11" y1=".169" x2="11" y2="13.001" gradientUnits="userSpaceOnUse"><stop offset="0" stop-color="#3660a0"/><stop offset="1" stop-color="#284b80"/></linearGradient><linearGradient id="d" x1="11" y1="1.455" x2="11" y2="12.185" gradientUnits="userSpaceOnUse"><stop offset="0" stop-color="#7ae5ff"/><stop offset=".994" stop-color="#00b3ff"/></linearGradient></defs><path fill="url(#a)" d="M1 7h9v9H1z"/><path fill="url(#b)" d="M2 8h7v7H2z"/><path d="M5.7 12h-.4l-.3-.9V9h1v2.1zm.2 1.1h-.8v.8h.8z" fill="#fff"/><g><path d="M16 8V4.586L11.414 0h-.828L6 4.586V8h1.914L9 6.914V13h1a3 3 0 0 0 3-3V6.914L14.086 8z" fill="url(#c)"/><path d="M11 1L7 5v2.5l3-3V12a2 2 0 0 0 2-2V4.5l3 3V5z" fill="url(#d)"/></g></svg>