<svg ti:v="1" width="48" height="48" viewBox="0 0 48 48" xmlns="http://www.w3.org/2000/svg" xmlns:ti="urn:schemas-jetbrains-com:tisvg"><rect id="frame" width="48" height="48" fill="none"/><linearGradient id="a" x1=".5" y1="0" x2=".5" y2="1.005"><stop offset="0" stop-color="#75493F"/><stop offset="1" stop-color="#490000"/></linearGradient><path fill-rule="evenodd" d="M0 24c0 13.255 10.745 24 24 24 13.253 0 24-10.745 24-24S37.253 0 24 0C10.745 0 0 10.745 0 24z" fill="url(#a)"/><linearGradient id="b" x1=".5" y1=".006" x2=".5" y2="1.003"><stop offset="0" stop-color="#FF9E89"/><stop offset="1" stop-color="#890000"/></linearGradient><path fill-rule="evenodd" d="M2 24c0 12.15 9.849 22 22 22 12.15 0 22-9.85 22-22S36.15 2 24 2C11.849 2 2 11.85 2 24z" fill="url(#b)"/><path fill-rule="evenodd" d="M29.928 13.079l-5.924 5.925-5.924-5.925a3 3 0 0 0-4.242 0l-.71.71a3 3 0 0 0 0 4.242l5.925 5.924-5.925 5.924a3 3 0 0 0 0 4.242l.71.709a3 3 0 0 0 4.242 0l5.924-5.924 5.924 5.924a3 3 0 0 0 4.242 0l.709-.709a3 3 0 0 0 0-4.242l-5.924-5.924 5.924-5.924a3 3 0 0 0 0-4.242l-.709-.71a3 3 0 0 0-4.242 0z" fill="#FFF"/></svg>