<svg ti:v="1" width="16" height="16" viewBox="0 0 16 16" xmlns="http://www.w3.org/2000/svg" xmlns:ti="urn:schemas-jetbrains-com:tisvg"><rect id="frame" width="16" height="16" fill="none"/><linearGradient id="a" x1=".5" y1=".007" x2=".5" y2="1.004"><stop offset="0" stop-color="#385985"/><stop offset="1" stop-color="#263D59"/></linearGradient><path fill-rule="evenodd" d="M13 3V1H1v12h2v2h12V3h-2z" fill="url(#a)"/><linearGradient id="b" x1=".5" y1=".003" x2=".5" y2="1.001"><stop offset="0" stop-color="#90B6FF"/><stop offset="1" stop-color="#6B95E6"/></linearGradient><path fill-rule="evenodd" d="M13 4v9H4v1h10V4h-1z" fill="url(#b)"/><linearGradient id="c" x1=".5" y1=".003" x2=".5" y2="1.001"><stop offset="0" stop-color="#90B6FF"/><stop offset="1" stop-color="#6B95E6"/></linearGradient><path fill-rule="evenodd" d="M12 12H2V2h10v10z" fill="url(#c)"/><path fill-rule="evenodd" d="M11 11H3V3h8v8z" fill="#FFF"/><path fill-rule="evenodd" d="M10 6H8V4H6v2H4v2h2v2h2V8h2V6z"/></svg>