<svg ti:v="1" width="16" height="16" viewBox="0 0 16 16" xmlns="http://www.w3.org/2000/svg" xmlns:ti="urn:schemas-jetbrains-com:tisvg"><rect id="frame" width="16" height="16" fill="none"/><g fill-rule="evenodd"><path d="M2 15V1h7.414L14 5.586V15H2z" fill="#242424"/><path d="M9 2H3v12h10V6L9 2z" fill="#C4C4C4"/><path d="M11 12H5V4h4v2h2v6z" fill="#282828"/><path d="M10.586 0L8 2.586V4h1.586l-3 3L9 9.414l3-3V8h1.414L16 5.414V0h-5.414z" fill="#242424"/><path d="M13 7V4L9 8 8 7l4-4H9l2-2h4v4l-2 2z" fill="#7CBEFF"/></g></svg>