<svg ti:v="1" width="16" height="16" viewBox="0 0 16 16" xmlns="http://www.w3.org/2000/svg" xmlns:ti="urn:schemas-jetbrains-com:tisvg"><rect id="frame" width="16" height="16" fill="none"/><g fill-rule="evenodd"><path d="M11 9H1V1h10v8z" fill="#F4F4F4"/><path d="M2 8h8V4H2v4z" fill="#313131"/><path d="M9 7H3V4h6v3z" fill="#EBEBEB"/><path d="M10 4H2V2h8v2z" fill="#313131"/><path d="M6.586 10L3 13.586v.828L4.586 16h.828L9 12.414v-.828L7.414 10h-.828z" fill="#F4F4F4"/><path d="M4 14l1 1 3-3-1-1-3 3z" fill="#00529C"/><path d="M15 8.5a4.5 4.5 0 1 1-9 0 4.5 4.5 0 0 1 9 0z" fill="#F4F4F4"/><path d="M14 8.5c0 1.934-1.566 3.5-3.5 3.5A3.499 3.499 0 0 1 7 8.5C7 6.566 8.566 5 10.5 5S14 6.566 14 8.5z" fill="#00529C"/><path d="M13 8.5a2.5 2.5 0 1 1-5 0 2.5 2.5 0 0 1 5 0z" fill="#EBEBEB"/><path d="M12 8.5a1.5 1.5 0 1 1-3.001-.001A1.5 1.5 0 0 1 12 8.5z" fill="#EBEBEB"/></g></svg>