<svg ti:v="1" width="16" height="16" viewBox="0 0 16 16" xmlns="http://www.w3.org/2000/svg" xmlns:ti="urn:schemas-jetbrains-com:tisvg"><rect id="frame" width="16" height="16" fill="none"/><linearGradient id="a" x1=".5" y1="0" x2=".5" y2="1.005"><stop offset="0" stop-color="#566980"/><stop offset="1" stop-color="#2D3641"/></linearGradient><path fill-rule="evenodd" d="M1 9h10V1H1v8z" fill="url(#a)"/><linearGradient id="b" x1="0" y1=".5" x2="1" y2=".5"><stop offset="0" stop-color="#FFF"/><stop offset="1" stop-color="#A7BADB"/></linearGradient><path fill-rule="evenodd" d="M2 8h8V4H2v4z" fill="url(#b)"/><linearGradient id="c" x1=".5" y1=".009" x2=".5" y2="1"><stop offset="0" stop-color="#FFF"/><stop offset="1" stop-color="#A7BADB"/></linearGradient><path fill-rule="evenodd" d="M3 7h6V3.999H3V7z" fill="url(#c)"/><linearGradient id="d" x1="0" y1=".5" x2="1" y2=".5"><stop offset="0" stop-color="#6D97E6"/><stop offset="1" stop-color="#2F62C7"/></linearGradient><path fill-rule="evenodd" d="M2 4h8V2H2v2z" fill="url(#d)"/><linearGradient id="e" x1=".31" y1=".31" x2=".708" y2=".708"><stop offset="0" stop-color="#9C7733"/><stop offset="1" stop-color="#6D2121"/></linearGradient><path fill-rule="evenodd" d="M6.586 10L3 13.586v.828L4.586 16h.828L9 12.414v-.828L7.414 10h-.828z" fill="url(#e)"/><linearGradient id="f" x1=".375" y1=".375" x2=".625" y2=".625"><stop offset="0" stop-color="#FFDF78"/><stop offset="1" stop-color="#D88C00"/></linearGradient><path fill-rule="evenodd" d="M4 14l1 1 3-3-1-1-3 3z" fill="url(#f)"/><linearGradient id="g" x1=".5" y1=".012" x2=".5" y2="1"><stop offset="0" stop-color="#3C7380"/><stop offset="1" stop-color="#093C6D"/></linearGradient><path fill-rule="evenodd" d="M6 8.5a4.5 4.5 0 1 0 9 0 4.5 4.5 0 0 0-9 0z" fill="url(#g)"/><linearGradient id="h" x1=".5" y1=".006" x2=".5" y2="1"><stop offset="0" stop-color="#D5EFFF"/><stop offset="1" stop-color="#73C9FF"/></linearGradient><path fill-rule="evenodd" d="M7 8.5a3.5 3.5 0 0 0 3.5 3.5c1.934 0 3.5-1.566 3.5-3.5S12.434 5 10.5 5A3.5 3.5 0 0 0 7 8.5z" fill="url(#h)"/><linearGradient id="i" x1=".5" y1=".013" x2=".5" y2="1"><stop offset="0" stop-color="#509EE8"/><stop offset=".736" stop-color="#FFF"/><stop offset="1" stop-color="#FFF"/></linearGradient><path fill-rule="evenodd" d="M8 8.5a2.5 2.5 0 1 0 5 0 2.5 2.5 0 1 0-5 0z" fill="url(#i)"/><linearGradient id="j" x1=".5" y1=".013" x2=".5" y2=".988"><stop offset="0" stop-color="#FFF"/><stop offset=".301" stop-color="#FFF"/><stop offset="1" stop-color="#BCF5FF"/></linearGradient><path fill-rule="evenodd" d="M9 8.5a1.5 1.5 0 0 0 3 0 1.5 1.5 0 0 0-3 0z" fill="url(#j)"/></svg>