<svg xmlns="http://www.w3.org/2000/svg" xmlns:xlink="http://www.w3.org/1999/xlink" width="16" height="16" viewBox="0 0 16 16"><rect id="frame" width="16" height="16" fill="none"/><defs><linearGradient id="a" x1="8" y1=".083" x2="8" y2="16.167" gradientUnits="userSpaceOnUse"><stop offset="0" stop-color="#576a80"/><stop offset="1" stop-color="#2d3742"/></linearGradient><linearGradient id="b" x1="7.957" y1="3" x2="7.957" y2="12.807" gradientUnits="userSpaceOnUse"><stop offset="0" stop-color="#fff"/><stop offset="1" stop-color="#e0efff"/></linearGradient></defs><path d="M12.5 9a3.481 3.481 0 0 0-.755.087l-3.13-4.024c.011-.022.024-.042.034-.063h.7a3.5 3.5 0 1 0 0-3h-.7a3.49 3.49 0 1 0-5.455 4.112l-.271.946a3.515 3.515 0 1 0 2.883.83l.271-.946c.059-.01.12-.016.178-.029l3.13 4.025A3.455 3.455 0 0 0 9 12.5 3.5 3.5 0 1 0 12.5 9z" fill="url(#a)"/><path fill="url(#b)" d="M12.895 12.193L6.522 4H12.5V3h-7v.5l-.481-.138-2 7 .962.276L5.71 4.584l6.395 8.223.79-.614z"/><circle cx="12.5" cy="3.5" r="2.5" fill="#00d43b"/><circle cx="12.5" cy="3.5" r="1" fill="#f1f8ff"/><circle cx="3.5" cy="10.5" r="2.5" fill="#ff9800"/><circle cx="3.5" cy="10.5" r="1" fill="#f1f8ff"/><circle cx="5.5" cy="3.5" r="2.5" fill="#4db8ff"/><circle cx="5.5" cy="3.5" r="1" fill="#f1f8ff"/><circle cx="12.5" cy="12.5" r="2.5" fill="#fd5fff"/><circle cx="12.5" cy="12.5" r="1" fill="#f1f8ff"/></svg>