<svg ti:v="1" width="15" height="16" viewBox="0 0 15 16" xmlns="http://www.w3.org/2000/svg" xmlns:ti="urn:schemas-jetbrains-com:tisvg"><rect id="frame" width="15" height="16" fill="none"/><linearGradient id="a" x1=".022" y1=".5" x2="1.011" y2=".5"><stop offset="0" stop-color="#0050B5"/><stop offset="1" stop-color="#023469"/></linearGradient><path fill-rule="evenodd" d="M3 15h10v-3H3v3z" fill="url(#a)"/><linearGradient id="b" x1=".022" y1=".5" x2="1.011" y2=".5"><stop offset="0" stop-color="#0050B5"/><stop offset="1" stop-color="#023469"/></linearGradient><path fill-rule="evenodd" d="M13 0H3v3h10V0z" fill="url(#b)"/><linearGradient id="c" x1="0" y1=".5" x2="1" y2=".5"><stop offset="0" stop-color="#6B99A1"/><stop offset="1" stop-color="#143F49"/></linearGradient><path fill-rule="evenodd" d="M10 7.667v-.334l3-4V3H3v.333l3 4v.334l-3 4V12h10v-.333l-3-4z" fill="url(#c)"/><linearGradient id="d" x1="0" y1=".5" x2="1" y2=".5"><stop offset="0" stop-color="#AAEDFF"/><stop offset="1" stop-color="#00CDFF"/></linearGradient><path fill-rule="evenodd" d="M12 1H4v2h8V1z" fill="url(#d)"/><linearGradient id="e" x1="0" y1=".5" x2="1" y2=".5"><stop offset="0" stop-color="#AAEDFF"/><stop offset="1" stop-color="#00CDFF"/></linearGradient><path fill-rule="evenodd" d="M4 14h8v-2H4v2z" fill="url(#e)"/><path fill-rule="evenodd" d="M9 7l3-4H4l3 4v1l-3 4h8L9 8V7z" fill="#FFF"/><path fill-rule="evenodd" d="M5 13v-.667l3-4V6.667l-3-4V2h6v.667l-3 4v1.666l3 4V13H5z" fill="#FFF"/><linearGradient id="f" x1="0" y1=".5" x2="1" y2=".5"><stop offset="0" stop-color="#33D6FF"/><stop offset="1" stop-color="#0097BC"/></linearGradient><path fill-rule="evenodd" d="M5 3h6V2H5v1z" fill="url(#f)"/><path fill-rule="evenodd" d="M6.75 5L8 6.667V7v-.333L9.25 5h-2.5z" fill="#E69400"/><linearGradient id="g" x1="0" y1=".5" x2="1" y2=".5"><stop offset="0" stop-color="#33D6FF"/><stop offset="1" stop-color="#0097BC"/></linearGradient><path fill-rule="evenodd" d="M5 13h6v-1H5v1z" fill="url(#g)"/><path fill-rule="evenodd" d="M8 10l-1.5 2h3L8 10z" fill="#E69400"/></svg>