<svg ti:v="1" width="16" height="16" viewBox="0 0 16 16" xmlns="http://www.w3.org/2000/svg" xmlns:ti="urn:schemas-jetbrains-com:tisvg"><rect id="frame" width="16" height="16" fill="none"/><g fill-rule="evenodd"><path d="M15 5H3.538L1 16h2.693l2.666-2h6.655L15 5.392V5z" fill="#242424"/><path d="M4.334 6l-2.077 9H3.36l2.666-2h6.193l1.615-7h-9.5z" fill="#C3C3C3"/><path d="M5.129 7h7.448l-1.154 5H5.692l-2.076 1.558L5.129 7z" fill="#282828"/><path d="M13 0H8.538L6 10.999V12h4.514L13 1.225V0z" fill="#242424"/><path d="M7.718 8l-.692 3h2.692l.692-3M7.95 7l1.383-6h2.693l-1.385 6H7.95z" fill="#FFCA01"/></g></svg>