<svg ti:v="1" width="16" height="16" viewBox="0 0 16 16" xmlns="http://www.w3.org/2000/svg" xmlns:ti="urn:schemas-jetbrains-com:tisvg"><rect id="frame" width="16" height="16" fill="none"/><g fill-rule="evenodd"><path d="M15 5H3.538L1 16h2.693l2.666-2h6.655L15 5.392V5z" fill="#F4F4F4"/><path d="M4.334 6l-2.077 9H3.36l2.666-2h6.193l1.615-7h-9.5z" fill="#313131"/><path d="M5.129 7h7.448l-1.154 5H5.692l-2.076 1.558L5.129 7z" fill="#EBEBEB"/><path d="M10 11c-2.757 0-5-2.243-5-5s2.243-5 5-5 5 2.243 5 5-2.243 5-5 5z" fill="#F4F4F4"/><path d="M6 6a4 4 0 1 0 8 0 4 4 0 0 0-8 0z" fill="#E41300"/><path d="M12 7H8V5h4v2z" fill="#FFF"/></g></svg>