<svg ti:v="1" width="16" height="16" viewBox="0 0 16 16" xmlns="http://www.w3.org/2000/svg" xmlns:ti="urn:schemas-jetbrains-com:tisvg"><rect id="frame" width="16" height="16" fill="none"/><linearGradient id="a" x1=".5" y1="0" x2=".5" y2=".994"><stop offset="0" stop-color="#0064C8"/><stop offset="1" stop-color="#003F6D"/></linearGradient><path fill-rule="evenodd" d="M15 5H3.538L1 16h2.693l2.666-2h6.655L15 5.392V5z" fill="url(#a)"/><linearGradient id="b" x1=".5" y1=".007" x2=".5" y2="1"><stop offset="0" stop-color="#F0F4FB"/><stop offset="1" stop-color="#9ED7FF"/></linearGradient><path fill-rule="evenodd" d="M4.334 6l-2.077 9h1.102l2.667-2h6.192l1.615-7H4.334z" fill="url(#b)"/><path fill-rule="evenodd" d="M5.129 7h7.448l-1.154 5H5.692l-2.076 1.558L5.129 7z" fill="#FFF"/><linearGradient id="c" x1=".5" y1="0" x2=".5" y2="1"><stop offset="0" stop-color="#7C2C00"/><stop offset="1" stop-color="#470000"/></linearGradient><path fill-rule="evenodd" d="M5 6c0 2.757 2.244 5 5 5 2.757 0 5-2.243 5-5s-2.243-5-5-5C7.244 1 5 3.243 5 6z" fill="url(#c)"/><linearGradient id="d" x1=".5" y1=".021" x2=".5" y2="1"><stop offset="0" stop-color="#FF7B00"/><stop offset="1" stop-color="red"/></linearGradient><path fill-rule="evenodd" d="M6 6a4 4 0 0 0 8 0 4 4 0 0 0-8 0z" fill="url(#d)"/><path fill-rule="evenodd" d="M12 7H8V5h4v2z" fill="#FFF"/></svg>