<svg ti:v="1" width="16" height="16" viewBox="0 0 16 16" xmlns="http://www.w3.org/2000/svg" xmlns:ti="urn:schemas-jetbrains-com:tisvg"><rect id="frame" width="16" height="16" fill="none"/><linearGradient id="a" x1=".5" y1="0" x2=".5" y2=".994"><stop offset="0" stop-color="#0064C8"/><stop offset="1" stop-color="#003F6D"/></linearGradient><path fill-rule="evenodd" d="M15 5H3.538L1 16h2.693l2.666-2h6.655L15 5.392V5z" fill="url(#a)"/><linearGradient id="b" x1=".5" y1=".007" x2=".5" y2="1"><stop offset="0" stop-color="#F0F4FB"/><stop offset="1" stop-color="#9ED7FF"/></linearGradient><path fill-rule="evenodd" d="M4.334 6l-2.077 9h1.102l2.667-2h6.192l1.615-7H4.334z" fill="url(#b)"/><path fill-rule="evenodd" d="M5.129 7h7.448l-1.154 5H5.692l-2.076 1.558L5.129 7z" fill="#FFF"/><linearGradient id="c" x1=".5" y1=".008" x2=".5" y2="1.004"><stop offset="0" stop-color="#893800"/><stop offset="1" stop-color="#411500"/></linearGradient><path fill-rule="evenodd" d="M8.538 0L6 10.999V12h4.514L13 1.225V0H8.538z" fill="url(#c)"/><linearGradient id="d" x1=".5" y1=".01" x2=".5" y2="1.002"><stop offset="0" stop-color="#FFE000"/><stop offset="1" stop-color="#FFB11E"/></linearGradient><path fill-rule="evenodd" d="M9.333 1L7.949 7h2.692l1.385-6M7.718 8l-.692 3h2.693l.692-3H7.718z" fill="url(#d)"/></svg>