<svg xmlns="http://www.w3.org/2000/svg" width="16" height="16" viewBox="0 0 16 16"><rect id="frame" width="16" height="16" fill="none"/><path fill="#252525" d="M14 7.618l-1.125-3.22-3.062 1.278L10 3.882V2.003L6 2v1.866l.187 1.811-3.061-1.278L2 7.619v.968l3.06.522L3 11.603v.444L5.831 14h.657l1.516-2.773L9.551 14h.65L13 12.04v-.423l-2.049-2.508L14 8.584v-.966z"/><path d="M10.074 13L8 9.238 5.957 13l-1.736-1.208 2.708-3.308L3 7.808l.706-2.037L7.354 7.3 6.913 3H9.09l-.443 4.3L12.3 5.768l.7 2.038-3.906.678 2.681 3.316z" fill="#c4c4c4"/></svg>