<svg ti:v="1" width="16" height="16" viewBox="0 0 16 16" xmlns="http://www.w3.org/2000/svg" xmlns:ti="urn:schemas-jetbrains-com:tisvg"><rect id="frame" width="16" height="16" fill="none"/><linearGradient id="a" x1=".5" y1="0" x2=".5" y2="1"><stop offset="0" stop-color="#907B00"/><stop offset="1" stop-color="#664900"/></linearGradient><path fill-rule="evenodd" d="M0 6a6 6 0 0 0 6 6c3.314 0 6-2.685 6-6S9.314 0 6 0a6 6 0 0 0-6 6z" fill="url(#a)"/><linearGradient id="b" x1=".5" y1="0" x2=".5" y2="1"><stop offset="0" stop-color="#FDFFF2"/><stop offset="1" stop-color="#E8A300"/></linearGradient><path fill-rule="evenodd" d="M5.37 1.065l-.192 1.542a3.532 3.532 0 0 0-.994.414l-1.232-.957a5.026 5.026 0 0 0-.89.889l.96 1.231a3.412 3.412 0 0 0-.414.993l-1.545.194C1.037 5.58 1 5.785 1 6c0 .217.037.422.063.631l1.545.192c.085.357.227.689.414.993l-.96 1.231c.259.333.557.63.89.891l1.232-.96c.305.186.638.329.994.414l.192 1.546c.209.025.414.062.63.062.216 0 .421-.037.63-.062l.192-1.546c.357-.085.69-.228.994-.414l1.232.96c.333-.261.632-.558.889-.891l-.958-1.231c.186-.304.327-.636.414-.993l1.543-.192C10.963 6.422 11 6.217 11 6c0-.215-.037-.42-.064-.629l-1.543-.194a3.496 3.496 0 0 0-.414-.993l.958-1.231a4.955 4.955 0 0 0-.889-.889l-1.232.957a3.507 3.507 0 0 0-.994-.414L6.63 1.065C6.421 1.038 6.216 1 6 1c-.216 0-.421.038-.63.065z" fill="url(#b)"/><linearGradient id="c" x1=".5" y1="0" x2=".5" y2="1"><stop offset="0" stop-color="#D09300"/><stop offset="1" stop-color="#FFFFFB"/></linearGradient><path fill-rule="evenodd" d="M4 6a2 2 0 1 0 4 0 2 2 0 0 0-4 0z" fill="url(#c)"/><path fill-rule="evenodd" d="M7 6a1 1 0 1 1-1.998.002A1 1 0 0 1 7 6z" fill="#3C2C0F"/><path fill-rule="evenodd" d="M7 16v-2H5V7h2V5h7v2h2v7h-2v2H7z" fill="#E4EEF0"/><path fill-rule="evenodd" d="M7 14h7V7H7v7z" fill="#546875"/><path fill-rule="evenodd" d="M13 6h-1v1h1m-2-1h-1v1h1M9 6H8v1h1M7 8H6v1h1m0 1H6v1h1m0 1H6v1h1m2 1H8v1h1m2-1h-1v1h1m2-1h-1v1h1m2-3h-1v1h1m0-3h-1v1h1m0-2h-1V8h1v1z" fill="#293B47"/><path fill-rule="evenodd" d="M13 13H8V8h3.5L13 9.5V13z" fill="#FFF3C2"/><path fill-rule="evenodd" d="M9 12V9h2.086l.914.914V12H9z" fill="#293B47"/></svg>