<svg ti:v="1" width="16" height="16" viewBox="0 0 16 16" xmlns="http://www.w3.org/2000/svg" xmlns:ti="urn:schemas-jetbrains-com:tisvg"><rect id="frame" width="16" height="16" fill="none"/><g fill-rule="evenodd"><path d="M12 6A6 6 0 1 1 0 6a6 6 0 0 1 12 0z" fill="#242424"/><path d="M9.393 6.822a3.462 3.462 0 0 1-.414.994l.959 1.231c-.258.334-.557.63-.89.89l-1.231-.959a3.474 3.474 0 0 1-.994.414l-.193 1.545c-.21.026-.414.063-.63.063-.215 0-.42-.037-.63-.063l-.192-1.545a3.474 3.474 0 0 1-.994-.414l-1.231.959a5.032 5.032 0 0 1-.89-.89l.959-1.231a3.434 3.434 0 0 1-.414-.994l-1.544-.191C1.038 6.422 1 6.217 1 6c0-.215.038-.42.064-.629l1.544-.194c.086-.355.227-.689.414-.994l-.96-1.23c.259-.334.558-.631.89-.89l1.232.958c.305-.185.638-.328.994-.414l.193-1.543C5.58 1.038 5.785 1 6 1c.216 0 .42.038.63.064l.193 1.543c.356.086.689.229.994.414l1.23-.958c.334.259.633.556.89.89l-.958 1.23c.186.305.328.639.414.994l1.544.194c.026.209.063.414.063.629 0 .217-.037.422-.063.631l-1.544.191z" fill="#C3C3C3"/><path d="M6 4a2 2 0 1 0 0 4 2 2 0 0 0 0-4z" fill="#282828"/><path d="M7 6a1 1 0 1 1-1.998.002A1 1 0 0 1 7 6z" fill="#C3C3C3"/><path d="M7 16v-2H5V7h2V5h7v2h2v7h-2v2H7z" fill="#242424"/><path d="M7 14h7V7H7v7z" fill="#C3C3C3"/><path d="M13 6h-1v1h1m-2-1h-1v1h1M9 6H8v1h1M7 8H6v1h1m0 1H6v1h1m0 1H6v1h1m2 1H8v1h1m2-1h-1v1h1m2-1h-1v1h1m2-3h-1v1h1m0-3h-1v1h1m0-2h-1V8h1v1z" fill="#C3C3C3"/><path d="M13 13H8V8h3.5L13 9.5V13z" fill="#282828"/><path d="M9 12V9h2.086l.914.914V12H9z" fill="#C3C3C3"/></g></svg>