<svg xmlns="http://www.w3.org/2000/svg" width="16" height="16" viewBox="0 0 16 16"><rect id="frame" width="16" height="16" fill="none"/><path d="M10 3V2H8.83a3 3 0 0 0-5.658 0H2v1H1v10h10V3z" fill="#f4f4f4"/><path d="M9 4V3H8a2 2 0 1 0-4 0H3v1H2v8h8V4z" fill="#323232"/><path d="M6 2a1 1 0 1 1-1 1 1 1 0 0 1 1-1z" fill="#ebebeb"/><path fill="#ebebeb" d="M3.5 5h5v5.5h-5z"/><g><path fill="#f4f4f4" d="M6 16V6h5.914L15 9.086V16H6z"/><path fill="#323232" d="M11.5 7H7v8h7V9.5L11.5 7z"/><path fill="#ebebeb" d="M13 14H8V8h3v2h2v4z"/></g></svg>