<svg xmlns="http://www.w3.org/2000/svg" xmlns:xlink="http://www.w3.org/1999/xlink" width="16" height="16" viewBox="0 0 16 16"><rect id="frame" width="16" height="16" fill="none"/><defs><linearGradient id="a" x1="6" y1="4.047" x2="6" y2="13" gradientUnits="userSpaceOnUse"><stop offset="0" stop-color="#4e647a"/><stop offset="1" stop-color="#27323d"/></linearGradient><linearGradient id="b" x1="6" y1=".016" x2="6" y2="3.969" gradientUnits="userSpaceOnUse"><stop offset="0" stop-color="gray"/><stop offset="1" stop-color="#333"/></linearGradient><linearGradient id="c" x1="6" y1="4.286" x2="6" y2="12.095" gradientUnits="userSpaceOnUse"><stop offset="0" stop-color="#95cbff"/><stop offset="1" stop-color="#3b9eff"/></linearGradient><linearGradient id="d" x1="6" y1="1.062" x2="6" y2="4" gradientUnits="userSpaceOnUse"><stop offset="0" stop-color="#fff"/><stop offset="1" stop-color="#c9dfdf"/></linearGradient><linearGradient id="e" x1="6" y1="4.217" x2="6" y2="10.501" gradientUnits="userSpaceOnUse"><stop offset="0" stop-color="#edf6ff"/><stop offset="1" stop-color="#d9ecff"/></linearGradient><linearGradient id="f" x1="10.5" y1="6" x2="10.5" y2="15.97" gradientUnits="userSpaceOnUse"><stop offset="0" stop-color="#7d6833"/><stop offset="1" stop-color="#54391a"/></linearGradient><linearGradient id="g" x1="12.75" y1="7.281" x2="12.75" y2="9.266" gradientUnits="userSpaceOnUse"><stop offset="0" stop-color="#e2d7bb"/><stop offset="1" stop-color="#e2ccb2"/></linearGradient><linearGradient id="h" x1="10.5" y1="6.98" x2="10.5" y2="15.007" gradientUnits="userSpaceOnUse"><stop offset="0" stop-color="#e2d0a0"/><stop offset="1" stop-color="#e2ccb2"/></linearGradient><linearGradient id="i" x1="10.5" y1="7.993" x2="10.5" y2="14.049" gradientUnits="userSpaceOnUse"><stop offset="0" stop-color="#fff"/><stop offset="1" stop-color="#fff1d1"/></linearGradient></defs><path fill="url(#a)" d="M1 4h10v9H1z"/><path d="M10 3V2H8.83a3 3 0 0 0-5.658 0H2v1H1v1h10V3z" fill="url(#b)"/><path fill="url(#c)" d="M2 4h8v8H2z"/><path d="M9 3H8a2 2 0 1 0-4 0H3v1h6z" fill="url(#d)"/><path d="M6 2a1 1 0 1 1-1 1 1 1 0 0 1 1-1z"/><path fill="url(#e)" d="M3.5 4h5v6.5h-5z"/><path fill="#697d8b" d="M3 4h6v.5H3z"/><g><path fill="url(#f)" d="M6 16V6h5.914L15 9.086V16H6z"/><path fill="url(#g)" d="M11.75 7.25v2h2l-2-2z"/><path fill="url(#h)" d="M11 10V7H7v8h7v-5h-3z"/><path fill="url(#i)" d="M13 14H8V8h3v2h2v4z"/></g></svg>