<svg ti:v="1" width="16" height="16" viewBox="0 0 16 16" xmlns="http://www.w3.org/2000/svg" xmlns:ti="urn:schemas-jetbrains-com:tisvg"><rect id="frame" width="16" height="16" fill="none"/><linearGradient id="a" x1=".5" y1="0" x2=".5" y2="1"><stop offset="0" stop-color="#003C7A"/><stop offset="1" stop-color="#001933"/></linearGradient><path fill-rule="evenodd" d="M2 4v5h5V6H5V4H2z" fill="url(#a)"/><linearGradient id="b" x1=".5" y1="0" x2=".5" y2="1"><stop offset="0" stop-color="#003C7A"/><stop offset="1" stop-color="#001933"/></linearGradient><path fill-rule="evenodd" d="M7 9v5h5v-3h-2V9H7z" fill="url(#b)"/><path fill-rule="evenodd" d="M9 12v-2H8v3h3v-1H9z" fill="#7CBDFF"/><path fill-rule="evenodd" d="M4 7V5H3v3h3V7H4z" fill="#7CBDFF"/><linearGradient id="c" x1=".5" y1="0" x2=".5" y2="1"><stop offset="0" stop-color="#7A3300"/><stop offset="1" stop-color="#620000"/></linearGradient><path fill-rule="evenodd" d="M3 0C1.9 0 1 .901 1 2v1c0 1.1.9 2 2 2h1c1.1 0 2-.9 2-2V2c0-1.099-.9-2-2-2H3z" fill="url(#c)"/><linearGradient id="d" x1=".5" y1="0" x2=".5" y2="1"><stop offset="0" stop-color="#FFFBE8"/><stop offset="1" stop-color="#FFF278"/></linearGradient><path fill-rule="evenodd" d="M3 1c-.55 0-1 .45-1 1v1c0 .55.45 1 1 1h1c.55 0 1-.45 1-1V2c0-.55-.45-1-1-1H3z" fill="url(#d)"/><linearGradient id="e" x1=".5" y1="0" x2=".5" y2="1"><stop offset="0" stop-color="#7A3300"/><stop offset="1" stop-color="#620000"/></linearGradient><path fill-rule="evenodd" d="M8 5c-1.099 0-2 .9-2 2v1c0 1.099.901 2 2 2h1c1.099 0 2-.901 2-2V7c0-1.1-.901-2-2-2H8z" fill="url(#e)"/><linearGradient id="f" x1=".5" y1="0" x2=".5" y2="1"><stop offset="0" stop-color="#FFFBE8"/><stop offset="1" stop-color="#FFF278"/></linearGradient><path fill-rule="evenodd" d="M8 6c-.549 0-1 .45-1 1v1c0 .55.451 1 1 1h1c.549 0 1-.45 1-1V7c0-.55-.451-1-1-1H8z" fill="url(#f)"/><linearGradient id="g" x1=".5" y1="0" x2=".5" y2="1"><stop offset="0" stop-color="#7A3300"/><stop offset="1" stop-color="#620000"/></linearGradient><path fill-rule="evenodd" d="M13 10c-1.1 0-2 .9-2 2v1c0 1.1.9 2 2 2h1c1.1 0 2-.9 2-2v-1c0-1.1-.9-2-2-2h-1z" fill="url(#g)"/><linearGradient id="h" x1=".5" y1="0" x2=".5" y2="1"><stop offset="0" stop-color="#FFFBE8"/><stop offset="1" stop-color="#FFF278"/></linearGradient><path fill-rule="evenodd" d="M13 11c-.55 0-1 .45-1 1v1c0 .55.45 1 1 1h1c.55 0 1-.45 1-1v-1c0-.55-.45-1-1-1h-1z" fill="url(#h)"/></svg>