<svg ti:v="1" width="16" height="16" viewBox="0 0 16 16" xmlns="http://www.w3.org/2000/svg" xmlns:ti="urn:schemas-jetbrains-com:tisvg"><rect id="frame" width="16" height="16" fill="none"/><g fill-rule="evenodd"><path d="M2 9V4h3v2h2v3H2z" fill="#F4F4F4"/><path d="M7 14V9h3v2h2v3H7z" fill="#F4F4F4"/><path d="M9 12v-2H8v3h3v-1H9z" fill="#00529C"/><path d="M4 7V5H3v3h3V7H4z" fill="#00529C"/><path d="M6 3c0 1.1-.9 2-2 2H3c-1.1 0-2-.9-2-2V2c0-1.1.9-2 2-2h1c1.1 0 2 .9 2 2v1z" fill="#F4F4F4"/><path d="M5 3c0 .55-.45 1-1 1H3c-.55 0-1-.45-1-1V2c0-.55.45-1 1-1h1c.55 0 1 .45 1 1v1z" fill="#313131"/><path d="M11 8c0 1.1-.9 2-2 2H8c-1.1 0-2-.9-2-2V7c0-1.1.9-2 2-2h1c1.1 0 2 .9 2 2v1z" fill="#F4F4F4"/><path d="M10 8c0 .55-.45 1-1 1H8c-.55 0-1-.45-1-1V7c0-.55.45-1 1-1h1c.55 0 1 .45 1 1v1z" fill="#313131"/><path d="M16 13c0 1.1-.9 2-2 2h-1c-1.1 0-2-.9-2-2v-1c0-1.1.9-2 2-2h1c1.1 0 2 .9 2 2v1z" fill="#F4F4F4"/><path d="M15 13c0 .55-.45 1-1 1h-1c-.55 0-1-.45-1-1v-1c0-.55.45-1 1-1h1c.55 0 1 .45 1 1v1z" fill="#313131"/></g></svg>