<svg ti:v="1" width="16" height="16" viewBox="0 0 16 16" xmlns="http://www.w3.org/2000/svg" xmlns:ti="urn:schemas-jetbrains-com:tisvg"><rect id="frame" width="16" height="16" fill="none"/><linearGradient id="a" x1=".5" y1="0" x2=".5" y2="1"><stop offset="0" stop-color="#907B00"/><stop offset="1" stop-color="#664900"/></linearGradient><path fill-rule="evenodd" d="M5.653 2.332L3.419 1.27 1.27 3.419l1.061 2.233L0 6.482v3.036l2.331.83-1.061 2.234 2.149 2.148 2.234-1.062L6.482 16H9.52l.829-2.332 2.233 1.062 2.148-2.148-1.061-2.234L16 9.518V6.482l-2.331-.83 1.061-2.233-2.148-2.149-2.233 1.062L9.52 0 6.483 0l-.83 2.332z" fill="url(#a)"/><linearGradient id="b" x1=".5" y1="0" x2=".5" y2="1"><stop offset="0" stop-color="#FDFFF2"/><stop offset="1" stop-color="#E8A300"/></linearGradient><path fill-rule="evenodd" d="M6.388 3.25l-.606.25-2.155-1.024-1.151 1.151L3.5 5.781l-.248.605L1 7.188v1.624l2.252.802.248.605-1.024 2.154 1.151 1.15L5.782 12.5l.606.248L7.189 15h1.624l.801-2.252.605-.249 2.155 1.025 1.15-1.151-1.024-2.154.248-.605L15 8.812V7.188l-2.252-.802-.248-.605 1.024-2.154-1.15-1.151-2.155 1.025-.605-.248-.801-2.252L7.189 1l-.801 2.25z" fill="url(#b)"/><linearGradient id="c" x1=".5" y1="0" x2=".5" y2="1"><stop offset="0" stop-color="#D09300"/><stop offset="1" stop-color="#FFFFFB"/></linearGradient><path fill-rule="evenodd" d="M5 8a3 3 0 1 0 6 0 3 3 0 1 0-6 0z" fill="url(#c)"/><path fill-rule="evenodd" d="M9.5 8a1.5 1.5 0 1 1-3 0 1.5 1.5 0 0 1 3 0z" fill="#3C2C0F"/><linearGradient id="d" x1=".31" y1=".31" x2=".708" y2=".708"><stop offset="0" stop-color="#B36425"/><stop offset="1" stop-color="#6D0303"/></linearGradient><path fill-rule="evenodd" d="M3.586 10L0 13.586v.828L1.586 16h.828L6 12.414v-.828L4.414 10h-.828z" fill="url(#d)"/><linearGradient id="e" x1=".4" y1=".4" x2=".6" y2=".6"><stop offset="0" stop-color="#FFC275"/><stop offset="1" stop-color="#C84D00"/></linearGradient><path fill-rule="evenodd" d="M1 14l1 1 4-4-1-1-4 4z" fill="url(#e)"/><linearGradient id="f" x1=".5" y1=".013" x2=".5" y2="1"><stop offset="0" stop-color="#3C7380"/><stop offset="1" stop-color="#093C6D"/></linearGradient><path fill-rule="evenodd" d="M4 8a4 4 0 0 0 8 0 4 4 0 0 0-8 0z" fill="url(#f)"/><linearGradient id="g" x1=".5" y1=".006" x2=".5" y2="1"><stop offset="0" stop-color="#D5EFFF"/><stop offset="1" stop-color="#73C9FF"/></linearGradient><path fill-rule="evenodd" d="M5 8a3 3 0 1 0 6 0 3 3 0 1 0-6 0z" fill="url(#g)"/><linearGradient id="h" x1=".5" y1=".012" x2=".5" y2="1"><stop offset="0" stop-color="#509EE8"/><stop offset=".736" stop-color="#FFF"/><stop offset="1" stop-color="#FFF"/></linearGradient><path fill-rule="evenodd" d="M6 8a2 2 0 1 0 4 0 2 2 0 1 0-4 0z" fill="url(#h)"/><linearGradient id="i" x1=".5" y1=".012" x2=".5" y2=".988"><stop offset="0" stop-color="#FFF"/><stop offset=".301" stop-color="#FFF"/><stop offset="1" stop-color="#BCF5FF"/></linearGradient><path fill-rule="evenodd" d="M7 8a1 1 0 1 0 2 0 1 1 0 1 0-2 0z" fill="url(#i)"/></svg>