<svg ti:v="1" width="16" height="16" viewBox="0 0 16 16" xmlns="http://www.w3.org/2000/svg" xmlns:ti="urn:schemas-jetbrains-com:tisvg"><rect id="frame" width="16" height="16" fill="none"/><g fill-rule="evenodd"><path d="M15 8A7 7 0 1 1 1 8a7 7 0 0 1 14 0z" fill="#F4F4F4"/><path d="M14 8A6 6 0 0 1 2 8a6 6 0 0 1 12 0z" fill="#313131"/><path d="M10.775 5.436a1.936 1.936 0 0 0-.483-.688 2.724 2.724 0 0 0-.89-.533C9.033 4.072 8.573 4 8.022 4c-.427 0-.812.069-1.158.204-.345.135-.64.325-.884.566a2.547 2.547 0 0 0-.57.858c-.136.33-.208.694-.216 1.089h1.711c0-.198.023-.383.07-.555.046-.172.117-.323.215-.451.097-.129.221-.231.373-.308.15-.077.331-.115.54-.115.311 0 .552.081.727.242.174.161.262.41.262.748a.874.874 0 0 1-.11.495 1.486 1.486 0 0 1-.32.362 6.564 6.564 0 0 1-.43.33 2.922 2.922 0 0 0-.443.391c-.14.15-.26.332-.366.545A2.005 2.005 0 0 0 7.261 9h1.612c.04-.103.09-.199.156-.281.12-.146.26-.276.414-.39.154-.114.32-.227.494-.341a2.158 2.158 0 0 0 .838-.995c.096-.228.145-.518.145-.869 0-.213-.049-.442-.145-.688zM8.866 12h-1.76v-1.726h1.76" fill="#EBEBEB"/></g></svg>