<svg ti:v="1" width="16" height="16" viewBox="0 0 16 16" xmlns="http://www.w3.org/2000/svg" xmlns:ti="urn:schemas-jetbrains-com:tisvg"><rect id="frame" width="16" height="16" fill="none"/><linearGradient id="a" x1=".5" y1=".013" x2=".5" y2="1"><stop offset="0" stop-color="#143F85"/><stop offset="1" stop-color="#04214D"/></linearGradient><path fill-rule="evenodd" d="M1 6.5c0 1.469.573 2.85 1.611 3.888L7.223 15h.828L10 13.051v-.93l-4.561-4.56A1.502 1.502 0 0 1 6.5 5c.401 0 .778.157 1.059.438L8.121 6H7v1.414L9.586 10H15V4.586L12.414 2H11v1.223l-.611-.612A5.465 5.465 0 0 0 6.5 1 5.506 5.506 0 0 0 1 6.5z" fill="url(#a)"/><linearGradient id="b" x1=".959" y1=".5" x2="-.017" y2=".5"><stop offset="0" stop-color="#8CD4FF"/><stop offset=".994" stop-color="#21A1FF"/><stop offset="1" stop-color="#21A1FF"/></linearGradient><path fill-rule="evenodd" d="M2 6.5c0 1.242.504 2.367 1.319 3.182L7.637 14l1.414-1.414-4.319-4.318A2.5 2.5 0 0 1 6.5 4c.69 0 1.315.279 1.768.733L10.535 7H8l2 2h4V5l-2-2v2.636L9.682 3.318A4.5 4.5 0 0 0 2 6.5z" fill="url(#b)"/></svg>