<svg ti:v="1" width="16" height="16" viewBox="0 0 16 16" xmlns="http://www.w3.org/2000/svg" xmlns:ti="urn:schemas-jetbrains-com:tisvg"><rect id="frame" width="16" height="16" fill="none"/><linearGradient id="a" x1=".5" y1=".009" x2=".5" y2=".999"><stop offset="0" stop-color="#007034"/><stop offset="1" stop-color="#38AC0E"/></linearGradient><path fill-rule="evenodd" d="M2.586 1L0 3.586V5h1.684a6.976 6.976 0 0 0 5.15 9.897l.614.103h5.966L16 12.414V11h-1.684a6.975 6.975 0 0 0-5.15-9.897L8.552 1H2.586z" fill="url(#a)"/><linearGradient id="b" x1=".5" y1="-.008" x2=".5" y2=".994"><stop offset="0" stop-color="#E1FFD6"/><stop offset="1" stop-color="#62F2A5"/></linearGradient><path fill-rule="evenodd" d="M3 2L1 4h2.548A5.952 5.952 0 0 0 2 8a5.997 5.997 0 0 0 5 5.91v-2.052A3.99 3.99 0 0 1 4 8a3.94 3.94 0 0 1 1-2.617V8l2-2V2m2 2.142A3.99 3.99 0 0 1 12 8a3.935 3.935 0 0 1-1 2.616V8l-1.999 2v4H13l2-2h-2.548A5.95 5.95 0 0 0 14 8a5.997 5.997 0 0 0-5-5.91v2.052z" fill="url(#b)"/></svg>