<svg xmlns="http://www.w3.org/2000/svg" width="16" height="16" viewBox="0 0 16 16"><rect id="frame" width="16" height="16" fill="none"/><path d="M15 2.387V1h-2.338L8.143 4.7 6.18 1.868a2.257 2.257 0 0 0-1.734-.752 2.537 2.537 0 0 0-1.765.7 2.6 2.6 0 0 0 0 3.474L5 7.681.661 11.705c-1 .977-.754 2.985 0 3.47a3.28 3.28 0 0 0 1.734.711 2.387 2.387 0 0 0 1.755-.747l3.95-4.494L14.14 16H16v-1.354l-5.28-6.914z" fill="#f4f4f4"/><path d="M9.454 7.72L14.029 2H13.02L7.942 6.159 5.42 2.516a1.473 1.473 0 0 0-2.016 0A1.537 1.537 0 0 0 3.4 4.6l3.028 3.12-5.042 4.68a1.686 1.686 0 0 0 0 2.082 1.455 1.455 0 0 0 2.018 0L8.015 9.23l6.485 5.775h.5z" fill="#a1260d"/></svg>