<svg ti:v="1" width="11" height="11" viewBox="0 0 11 11" xmlns="http://www.w3.org/2000/svg" xmlns:ti="urn:schemas-jetbrains-com:tisvg"><rect id="frame" width="11" height="11" fill="none"/><g fill-rule="evenodd"><path d="M4 8.5a1.5 1.5 0 1 1-3.001-.001A1.5 1.5 0 0 1 4 8.5z" fill="#F4F4F4"/><path d="M3 8.5a.5.5 0 1 1-1 0 .5.5 0 0 1 1 0z" fill="#313131"/><path d="M7 5.5a1.5 1.5 0 1 1-3.001-.001A1.5 1.5 0 0 1 7 5.5z" fill="#F4F4F4"/><path d="M6 5.5a.5.5 0 1 1-1 0 .5.5 0 0 1 1 0z" fill="#313131"/><path d="M10 2.5a1.5 1.5 0 1 1-3.001-.001A1.5 1.5 0 0 1 10 2.5z" fill="#F4F4F4"/><path d="M9 2.5a.5.5 0 1 1-1 0 .5.5 0 0 1 1 0z" fill="#313131"/><path d="M7 8.5a1.5 1.5 0 1 1-3.001-.001A1.5 1.5 0 0 1 7 8.5z" fill="#F4F4F4"/><path d="M6 8.5a.5.5 0 1 1-1 0 .5.5 0 0 1 1 0z" fill="#313131"/><path d="M10 5.5a1.5 1.5 0 1 1-3.001-.001A1.5 1.5 0 0 1 10 5.5z" fill="#F4F4F4"/><path d="M9 5.5a.5.5 0 1 1-1 0 .5.5 0 0 1 1 0z" fill="#313131"/><path d="M10 8.5a1.5 1.5 0 1 1-3.001-.001A1.5 1.5 0 0 1 10 8.5z" fill="#F4F4F4"/><path d="M9 8.5a.5.5 0 1 1-1 0 .5.5 0 0 1 1 0z" fill="#313131"/></g></svg>