<svg ti:v="1" width="11" height="11" viewBox="0 0 11 11" xmlns="http://www.w3.org/2000/svg" xmlns:ti="urn:schemas-jetbrains-com:tisvg"><rect id="frame" width="11" height="11" fill="none"/><g fill-rule="evenodd"><path d="M4 3a1 1 0 1 1-2 0 1 1 0 0 1 2 0z" fill="#FFF" opacity=".663"/><path d="M3.186 2.686a.5.5 0 1 1-1 0 .5.5 0 0 1 1 0z"/><path d="M4 6a1 1 0 1 1-2 0 1 1 0 0 1 2 0z" fill="#FFF" opacity=".663"/><path d="M3.186 5.686a.5.5 0 1 1-1 0 .5.5 0 0 1 1 0z"/><path d="M4 9a1 1 0 1 1-2 0 1 1 0 0 1 2 0z" fill="#FFF" opacity=".663"/><path d="M3.186 8.686a.5.5 0 1 1-1 0 .5.5 0 0 1 1 0z"/><path d="M7 6a1 1 0 1 1-2 0 1 1 0 0 1 2 0z" fill="#FFF" opacity=".663"/><path d="M6.186 5.686a.5.5 0 1 1-1 0 .5.5 0 0 1 1 0z"/><path d="M7 9a1 1 0 1 1-2 0 1 1 0 0 1 2 0z" fill="#FFF" opacity=".663"/><path d="M6.186 8.686a.5.5 0 1 1-1 0 .5.5 0 0 1 1 0z"/><path d="M10 9a1 1 0 1 1-2 0 1 1 0 0 1 2 0z" fill="#FFF" opacity=".663"/><path d="M9.186 8.686a.5.5 0 1 1-1 0 .5.5 0 0 1 1 0z"/></g></svg>