<svg ti:v="1" width="16" height="16" viewBox="0 0 16 16" xmlns="http://www.w3.org/2000/svg" xmlns:ti="urn:schemas-jetbrains-com:tisvg"><rect id="frame" width="16" height="16" fill="none"/><linearGradient id="a" x1=".831" y1=".048" x2=".165" y2=".957"><stop offset="0" stop-color="#A80000"/><stop offset="1" stop-color="#224F91"/></linearGradient><path fill-rule="evenodd" d="M5 2v.586l-4 4V10h1.303L3 9.535V10c0 1.654 1.346 3 3 3h6v-.586l4-4V5h-1.303L14 5.465V5c0-1.654-1.346-3-3-3H5z" fill="url(#a)"/><linearGradient id="b" x1=".5" y1=".003" x2=".5" y2="1.003"><stop offset="0" stop-color="#FFA674"/><stop offset="1" stop-color="#FFE296"/></linearGradient><path fill-rule="evenodd" d="M6 3l2 2h2.5a.5.5 0 0 1 .5.5v1.833L9 6v2l3 3 3-3V6l-2 1.333V5a2 2 0 0 0-2-2H6z" fill="url(#b)"/><linearGradient id="c" x1=".5" y1="0" x2=".5" y2=".998"><stop offset="0" stop-color="#ABF0FF"/><stop offset=".994" stop-color="#60BDFF"/><stop offset="1" stop-color="#60BDFF"/></linearGradient><path fill-rule="evenodd" d="M2 7v2l2-1.333V10a2 2 0 0 0 2 2h5l-2-2H6.5a.5.5 0 0 1-.5-.5V7.667L8 9V7L5 4 2 7z" fill="url(#c)"/></svg>