<svg ti:v="1" width="13" height="13" viewBox="0 0 13 13" xmlns="http://www.w3.org/2000/svg" xmlns:ti="urn:schemas-jetbrains-com:tisvg"><rect id="frame" width="13" height="13" fill="none"/><path d="M9.992 3.846L12 2.7v-.532L10.815 1H9.294L7.435 2.059A2.976 2.976 0 0 0 7 2a2.976 2.976 0 0 0-.435.059L4.706 1H3.185L2 2.168V2.7l2.008 1.146c-.032.049-.061.1-.092.154H1v7h2.916A3.672 3.672 0 0 0 7 13a3.672 3.672 0 0 0 3.084-2H13V4h-2.916l-.092-.154zm0 0" fill="#F4F4F4" opacity=".749"/><path d="M10 7.5C10 9.985 8.657 12 7 12S4 9.985 4 7.5 5.343 3 7 3s3 2.015 3 4.5z" fill="#323232"/><path d="M5.5 7.5c0 1.657.672 3 1.5 3s1.5-1.343 1.5-3a5.673 5.673 0 0 0-.092-1H5.592c-.06.33-.091.665-.092 1zm0 0" fill="#EBEBEB"/><path d="M7 4.5c-.652 0-1.2.837-1.408 2h2.816C8.2 5.337 7.652 4.5 7 4.5zm0 0" fill="#323232"/><path d="M3.672 6H2V5h1.972a6.228 6.228 0 0 0-.3 1zM3.5 7.5c0-.172.023-.333.034-.5H2v1h1.534c-.011-.167-.034-.328-.034-.5zM10.028 5c.128.324.228.659.3 1H12V5zM3.672 9H2v1h1.972a6.228 6.228 0 0 1-.3-1zM10.5 7.5c0 .172-.023.333-.034.5H12V7h-1.534c.011.167.034.328.034.5zm-.472 2.5H12V9h-1.672a6.228 6.228 0 0 1-.3 1zM8.921 3.305L10.7 2.291l-.6-.6L8.163 2.8c.276.13.531.3.758.505zM5.837 2.8L3.905 1.7l-.6.6 1.774 1.005c.227-.204.482-.374.758-.505zm0 0" fill="#323232"/></svg>