<svg ti:v="1" width="16" height="16" viewBox="0 0 16 16" xmlns="http://www.w3.org/2000/svg" xmlns:ti="urn:schemas-jetbrains-com:tisvg"><rect id="frame" width="16" height="16" fill="none"/><g fill-rule="evenodd"><path d="M9.5 1c-1.469 0-2.85.572-3.889 1.611L5 3.223V2H3.586L1 4.586V10h5.414L9 7.414V6H7.879l.561-.562a1.502 1.502 0 0 1 2.121 2.123L6 12.121v.93L7.949 15h.828l4.612-4.611A5.464 5.464 0 0 0 15 6.5C15 3.468 12.532 1 9.5 1z" fill="#242424"/><path d="M14 6.5a4.5 4.5 0 0 0-7.682-3.182L4 5.637V3L2 5v4h4l2-2H5.465l2.267-2.268a2.5 2.5 0 1 1 3.536 3.536l-4.319 4.318L8.363 14l4.319-4.318A4.49 4.49 0 0 0 14 6.5z" fill="#7CBDFF"/></g></svg>