<svg ti:v="1" width="16" height="16" viewBox="0 0 16 16" xmlns="http://www.w3.org/2000/svg" xmlns:ti="urn:schemas-jetbrains-com:tisvg"><rect id="frame" width="16" height="16" fill="none"/><linearGradient id="a" x1=".5" y1=".013" x2=".5" y2="1"><stop offset="0" stop-color="#143F85"/><stop offset="1" stop-color="#04214D"/></linearGradient><path fill-rule="evenodd" d="M5.611 2.611L5 3.223V2H3.586L1 4.586V10h5.414L9 7.414V6H7.879l.561-.562A1.502 1.502 0 0 1 11 6.5c0 .402-.156.777-.439 1.061L6 12.121v.93L7.949 15h.828l4.612-4.612A5.464 5.464 0 0 0 15 6.5C15 3.468 12.532 1 9.5 1c-1.469 0-2.85.572-3.889 1.611z" fill="url(#a)"/><linearGradient id="b" x1=".041" y1=".5" x2="1.017" y2=".5"><stop offset="0" stop-color="#8CD4FF"/><stop offset=".994" stop-color="#21A1FF"/><stop offset="1" stop-color="#21A1FF"/></linearGradient><path fill-rule="evenodd" d="M6.318 3.319L4 5.636V3L2 5v4h4l2-2H5.465l2.267-2.267A2.5 2.5 0 0 1 12 6.5c0 .691-.279 1.315-.733 1.768l-4.318 4.318L8.363 14l4.318-4.318A4.5 4.5 0 0 0 9.5 2a4.486 4.486 0 0 0-3.182 1.319z" fill="url(#b)"/></svg>