<svg xmlns="http://www.w3.org/2000/svg" xmlns:xlink="http://www.w3.org/1999/xlink" width="16" height="16" viewBox="0 0 16 16"><rect id="frame" width="16" height="16" fill="none"/><defs><linearGradient id="c" x1="8" y1="3.063" x2="8" y2="12.944" gradientUnits="userSpaceOnUse"><stop offset="0" stop-color="#005439"/><stop offset="1" stop-color="#007356"/></linearGradient><linearGradient id="a" x1="2.5" y1="1.012" x2="2.5" y2="7.97" gradientUnits="userSpaceOnUse"><stop offset="0" stop-color="#4b5b6e"/><stop offset="1" stop-color="#1d2b3b"/></linearGradient><linearGradient id="b" x1="2.39" y1="2" x2="2.39" y2="7.053" gradientUnits="userSpaceOnUse"><stop offset="0" stop-color="#fff"/><stop offset="1" stop-color="#a6bada"/></linearGradient><linearGradient id="d" x1="13.5" y1="8.012" x2="13.5" y2="14.97" xlink:href="#a"/><linearGradient id="e" x1="13.61" y1="9" x2="13.61" y2="14.053" xlink:href="#b"/><linearGradient id="f" x1="8" y1="4" x2="8" y2="12.075" gradientUnits="userSpaceOnUse"><stop offset="0" stop-color="#b3ffcc"/><stop offset="1" stop-color="#10bf41"/></linearGradient></defs><path fill="url(#c)" d="M3 3h10v10H3z"/><path fill="url(#a)" d="M5 2.32L3.35 1h-.831L0 4.15v.7L2.519 8h.831L5 6.68v-.381L3.561 4.5 5 2.701V2.32z"/><path fill="url(#b)" d="M3.78 6.375L2.28 4.5l1.5-1.875L2.999 2 1 4.5 2.999 7l.781-.625z"/><path fill="url(#d)" d="M11 9.32L12.65 8h.831L16 11.15v.7L13.481 15h-.831L11 13.68v-.381l1.439-1.799L11 9.701V9.32z"/><path fill="url(#e)" d="M12.22 13.375l1.5-1.875-1.5-1.875.781-.625L15 11.5 13.001 14l-.781-.625z"/><path d="M12 10H4v2h8zm0-3H4v2h8zm0-3H4v2h8z" fill="url(#f)"/></svg>