<svg xmlns="http://www.w3.org/2000/svg" width="16" height="16" viewBox="0 0 16 16"><rect id="frame" width="16" height="16" fill="none"/><path fill="#f4f4f4" d="M3 3h10v10H3z"/><path fill="#f4f4f4" d="M5 2.32L3.35 1h-.831L0 4.15v.7L2.519 8h.831L5 6.68v-.381L3.561 4.5 5 2.701V2.32z"/><path fill="#323232" d="M3.78 6.375L2.28 4.5l1.5-1.875L2.999 2 1 4.5 2.999 7l.781-.625z"/><path fill="#f4f4f4" d="M11 9.32L12.65 8h.831L16 11.15v.7L13.481 15h-.831L11 13.68v-.381l1.439-1.799L11 9.701V9.32z"/><path fill="#323232" d="M12.22 13.375l1.5-1.875-1.5-1.875.781-.625L15 11.5 13.001 14l-.781-.625z"/><path d="M12 10H4v2h8zm0-3H4v2h8zm0-3H4v2h8z" fill="#388a34"/></svg>