<svg ti:v="1" width="16" height="16" viewBox="0 0 16 16" xmlns="http://www.w3.org/2000/svg" xmlns:ti="urn:schemas-jetbrains-com:tisvg"><rect id="frame" width="16" height="16" fill="none"/><linearGradient id="a" x1=".5" y1=".003" x2=".5" y2="1.003"><stop offset="0" stop-color="#5D6044"/><stop offset="1" stop-color="#2B3626"/></linearGradient><path fill-rule="evenodd" d="M15 14H2V1h13v13z" fill="url(#a)"/><linearGradient id="b" x1=".5" y1=".006" x2=".5" y2="1"><stop offset="0" stop-color="#F4FFE8"/><stop offset="1" stop-color="#D4CD9A"/></linearGradient><path fill-rule="evenodd" d="M14 13H3V2h11v11z" fill="url(#b)"/><linearGradient id="c" x1=".5" y1=".006" x2=".5" y2="1"><stop offset="0" stop-color="#BFC68C"/><stop offset=".773" stop-color="#FFF"/><stop offset="1" stop-color="#FFF"/></linearGradient><path fill-rule="evenodd" d="M13 12H4V3h9v9z" fill="url(#c)"/><linearGradient id="d" x1=".5" y1=".003" x2=".5" y2="1.003"><stop offset="0" stop-color="#5D6044"/><stop offset="1" stop-color="#2B3626"/></linearGradient><path fill-rule="evenodd" d="M8 7H5V4h3v3z" fill="url(#d)"/><path fill-rule="evenodd" d="M6 6h1V5H6v1z" fill="#FFF"/><linearGradient id="e" x1=".5" y1=".003" x2=".5" y2="1.003"><stop offset="0" stop-color="#5D6044"/><stop offset="1" stop-color="#2B3626"/></linearGradient><path fill-rule="evenodd" d="M12 7H9V4h3v3z" fill="url(#e)"/><path fill-rule="evenodd" d="M10 6h1V5h-1v1z" fill="#FFF"/><linearGradient id="f" x1=".5" y1=".003" x2=".5" y2="1.003"><stop offset="0" stop-color="#5D6044"/><stop offset="1" stop-color="#2B3626"/></linearGradient><path fill-rule="evenodd" d="M8 11H5V8h3v3z" fill="url(#f)"/><path fill-rule="evenodd" d="M6 10h1V8.999H6V10z" fill="#FFF"/><linearGradient id="g" x1=".5" y1=".003" x2=".5" y2="1.003"><stop offset="0" stop-color="#5D6044"/><stop offset="1" stop-color="#2B3626"/></linearGradient><path fill-rule="evenodd" d="M12 11H9V8h3v3z" fill="url(#g)"/><path fill-rule="evenodd" d="M10 10h1V8.999h-1V10z" fill="#FFF"/></svg>