<svg ti:v="1" width="16" height="16" viewBox="0 0 16 16" xmlns="http://www.w3.org/2000/svg" xmlns:ti="urn:schemas-jetbrains-com:tisvg"><rect id="frame" width="16" height="16" fill="none"/><g fill-rule="evenodd"><path d="M15 14H2V1h13v13z" fill="#242424"/><path d="M14 13H3V2h11v11z" fill="#C3C3C3"/><path d="M13 12H4V3h9v9z" fill="#282828"/><path d="M8 7H5V4h3v3z" fill="#C3C3C3"/><path d="M6 6h1V5H6v1z" fill="#282828"/><path d="M12 7H9V4h3v3z" fill="#C3C3C3"/><path d="M10 6h1.001V5H10v1z" fill="#282828"/><path d="M8 11H5V8h3v3z" fill="#C3C3C3"/><path d="M6 10h1V8.999H6V10z" fill="#282828"/><path d="M12 11H9V8h3v3z" fill="#C3C3C3"/><path d="M10 10h1.001V8.999H10V10z" fill="#282828"/></g></svg>