<svg ti:v="1" width="16" height="16" viewBox="0 0 16 16" xmlns="http://www.w3.org/2000/svg" xmlns:ti="urn:schemas-jetbrains-com:tisvg"><rect id="frame" width="16" height="16" fill="none"/><g fill-rule="evenodd"><path d="M15 14H2V1h13v13z" fill="#F4F4F4"/><path d="M14 13H3V2h11v11z" fill="#313131"/><path d="M13 12H4V3h9v9z" fill="#EBEBEB"/><path d="M8 7H5V4h3v3z" fill="#313131"/><path d="M6 6h1V5H6v1z" fill="#EBEBEB"/><path d="M12 7H9V4h3v3z" fill="#313131"/><path d="M10 6h1V5h-1v1z" fill="#EBEBEB"/><path d="M8 11H5V8h3v3z" fill="#313131"/><path d="M6 10h1V8.999H6V10z" fill="#EBEBEB"/><path d="M12 11H9V8h3v3z" fill="#313131"/><path d="M10 10h1V8.999h-1V10z" fill="#EBEBEB"/></g></svg>