<svg ti:v="1" width="16" height="16" viewBox="0 0 16 16" xmlns="http://www.w3.org/2000/svg" xmlns:ti="urn:schemas-jetbrains-com:tisvg"><rect id="frame" width="16" height="16" fill="none"/><g fill-rule="evenodd"><path d="M16 7H9V0h7v7z" fill="#F4F4F4"/><path d="M15 6h-5V1h5v5z" fill="#313131"/><path d="M16 16H9V9h7v7z" fill="#F4F4F4"/><path d="M15 15h-5v-5h5v5z" fill="#313131"/><path d="M7 16H0V9h7v7z" fill="#F4F4F4"/><path d="M6 15H1v-5h5v5z" fill="#313131"/><path d="M5 14H2v-3h3v3z" fill="#EBEBEB"/><path d="M14 14h-3v-3h3v3z" fill="#EBEBEB"/><path d="M14 5h-3V2h3v3z" fill="#EBEBEB"/><path d="M7 7H0V0h7v7z" fill="#F4F4F4"/><path d="M6 6H1V1h5v5z" fill="#313131"/><path d="M5 5H2V2h3v3z" fill="#EBEBEB"/><path d="M5 9H2V7h3v2z" fill="#F4F4F4"/><path d="M14 9h-3V7h3v2z" fill="#F4F4F4"/><path d="M9 5H7V2h2v3z" fill="#F4F4F4"/><path d="M9 14H7v-3h2v3z" fill="#F4F4F4"/><path d="M3 9h1V7H3v2z" fill="#313131"/><path d="M12 9h1V7h-1v2z" fill="#313131"/><path d="M7 4h2V3H7v1z" fill="#313131"/><path d="M7 13h2v-1H7v1z" fill="#313131"/></g></svg>