<svg ti:v="1" width="16" height="16" viewBox="0 0 16 16" xmlns="http://www.w3.org/2000/svg" xmlns:ti="urn:schemas-jetbrains-com:tisvg"><rect id="frame" width="16" height="16" fill="none"/><linearGradient id="a" x1=".5" y1=".003" x2=".5" y2="1.004"><stop offset="0" stop-color="#5D6044"/><stop offset="1" stop-color="#2B3626"/></linearGradient><path fill-rule="evenodd" d="M7 7H0V0h7v7z" fill="url(#a)"/><linearGradient id="b" x1=".5" y1=".006" x2=".5" y2="1"><stop offset="0" stop-color="#F4FFE8"/><stop offset="1" stop-color="#D4CD9A"/></linearGradient><path fill-rule="evenodd" d="M6 6H1V1h5v5z" fill="url(#b)"/><linearGradient id="c" x1=".5" y1=".003" x2=".5" y2="1.004"><stop offset="0" stop-color="#5D6044"/><stop offset="1" stop-color="#2B3626"/></linearGradient><path fill-rule="evenodd" d="M16 7H9V0h7v7z" fill="url(#c)"/><linearGradient id="d" x1=".5" y1=".006" x2=".5" y2="1"><stop offset="0" stop-color="#F4FFE8"/><stop offset="1" stop-color="#D4CD9A"/></linearGradient><path fill-rule="evenodd" d="M15 6h-5V1h5v5z" fill="url(#d)"/><linearGradient id="e" x1=".5" y1="0" x2=".5" y2="1"><stop offset="0" stop-color="#5D6044"/><stop offset="1" stop-color="#2B3626"/></linearGradient><path fill-rule="evenodd" d="M9 5H7V2h2v3z" fill="url(#e)"/><path fill-rule="evenodd" d="M7 4h2.001V3H7v1z" fill="#FFF"/><linearGradient id="f" x1=".5" y1=".003" x2=".5" y2="1.004"><stop offset="0" stop-color="#5D6044"/><stop offset="1" stop-color="#2B3626"/></linearGradient><path fill-rule="evenodd" d="M7 16H0V9h7v7z" fill="url(#f)"/><linearGradient id="g" x1=".5" y1=".006" x2=".5" y2="1"><stop offset="0" stop-color="#F4FFE8"/><stop offset="1" stop-color="#D4CD9A"/></linearGradient><path fill-rule="evenodd" d="M6 15H1v-5h5v5z" fill="url(#g)"/><linearGradient id="h" x1=".5" y1=".003" x2=".5" y2="1.004"><stop offset="0" stop-color="#5D6044"/><stop offset="1" stop-color="#2B3626"/></linearGradient><path fill-rule="evenodd" d="M16 16H9V9h7v7z" fill="url(#h)"/><linearGradient id="i" x1=".5" y1=".006" x2=".5" y2="1"><stop offset="0" stop-color="#F4FFE8"/><stop offset="1" stop-color="#D4CD9A"/></linearGradient><path fill-rule="evenodd" d="M15 15h-5v-5h5v5z" fill="url(#i)"/><linearGradient id="j" x1=".5" y1="0" x2=".5" y2="1"><stop offset="0" stop-color="#5D6044"/><stop offset="1" stop-color="#2B3626"/></linearGradient><path fill-rule="evenodd" d="M9 14H7v-3h2v3z" fill="url(#j)"/><path fill-rule="evenodd" d="M7 13h2.001v-1H7v1z" fill="#FFF"/><linearGradient id="k" x1=".5" y1="0" x2=".5" y2="1"><stop offset="0" stop-color="#5D6044"/><stop offset="1" stop-color="#2B3626"/></linearGradient><path fill-rule="evenodd" d="M11 7h3v2h-3V7z" fill="url(#k)"/><path fill-rule="evenodd" d="M12 9h1V7h-1v2z" fill="#FFF"/><linearGradient id="l" x1=".5" y1="0" x2=".5" y2="1"><stop offset="0" stop-color="#5D6044"/><stop offset="1" stop-color="#2B3626"/></linearGradient><path fill-rule="evenodd" d="M2 7h3v2H2V7z" fill="url(#l)"/><path fill-rule="evenodd" d="M3 9h1V7H3v2z" fill="#FFF"/><linearGradient id="m" x1=".5" y1=".006" x2=".5" y2="1"><stop offset="0" stop-color="#BFC68C"/><stop offset=".773" stop-color="#FFF"/><stop offset="1" stop-color="#FFF"/></linearGradient><path fill-rule="evenodd" d="M5 14H2v-3h3v3z" fill="url(#m)"/><linearGradient id="n" x1=".5" y1=".006" x2=".5" y2="1"><stop offset="0" stop-color="#BFC68C"/><stop offset=".773" stop-color="#FFF"/><stop offset="1" stop-color="#FFF"/></linearGradient><path fill-rule="evenodd" d="M14 14h-3v-3h3v3z" fill="url(#n)"/><linearGradient id="o" x1=".5" y1=".006" x2=".5" y2="1"><stop offset="0" stop-color="#BFC68C"/><stop offset=".773" stop-color="#FFF"/><stop offset="1" stop-color="#FFF"/></linearGradient><path fill-rule="evenodd" d="M14 5h-3V2h3v3z" fill="url(#o)"/><linearGradient id="p" x1=".5" y1=".006" x2=".5" y2="1"><stop offset="0" stop-color="#BFC68C"/><stop offset=".773" stop-color="#FFF"/><stop offset="1" stop-color="#FFF"/></linearGradient><path fill-rule="evenodd" d="M5 5H2V2h3v3z" fill="url(#p)"/></svg>