<svg ti:v="1" width="16" height="16" viewBox="0 0 16 16" xmlns="http://www.w3.org/2000/svg" xmlns:ti="urn:schemas-jetbrains-com:tisvg"><rect id="frame" width="16" height="16" fill="none"/><g fill-rule="evenodd"><path d="M5 16h11v-6H5v6z" fill="#242424"/><path d="M0 11h16V0H0v11z" fill="#242424"/><path d="M5 5H1V1h4v4z" fill="#C3C3C3"/><path d="M4 4H2V2h2v2z" fill="#282828"/><path d="M10 5H6V1h4v4z" fill="#C3C3C3"/><path d="M9 4H7V2h2v2z" fill="#282828"/><path d="M15 5h-4V1h4v4z" fill="#C3C3C3"/><path d="M14 4h-2V2h2v2z" fill="#282828"/><path d="M5 10H1V6h4v4z" fill="#C3C3C3"/><path d="M4 9H2V7h2v2z" fill="#282828"/><path d="M10 10H6V6h4v4z" fill="#C3C3C3"/><path d="M9 9H7V7h2v2z" fill="#282828"/><path d="M15 10h-4V6h4v4z" fill="#C3C3C3"/><path d="M14 9h-2V7h2v2z" fill="#282828"/><path d="M10 15H6v-4h4v4z" fill="#7CBDFF"/><path d="M9 14H7v-2h2v2z" fill="#7CBDFF"/><path d="M15 15h-4v-4h4v4z" fill="#7CBDFF"/><path d="M14 14h-2v-2h2v2z" fill="#7CBDFF"/></g></svg>