<svg ti:v="1" width="16" height="16" viewBox="0 0 16 16" xmlns="http://www.w3.org/2000/svg" xmlns:ti="urn:schemas-jetbrains-com:tisvg"><rect id="frame" width="16" height="16" fill="none"/><linearGradient id="a" x1=".5" y1=".003" x2=".5" y2="1.003"><stop offset="0" stop-color="#5D6044"/><stop offset="1" stop-color="#2B3626"/></linearGradient><path fill-rule="evenodd" d="M0 11h16V0H0v11z" fill="url(#a)"/><linearGradient id="b" x1=".5" y1=".006" x2=".5" y2="1"><stop offset="0" stop-color="#F4FFE8"/><stop offset="1" stop-color="#D4CD9A"/></linearGradient><path fill-rule="evenodd" d="M5 5H1V1h4v4z" fill="url(#b)"/><linearGradient id="c" x1=".5" y1=".006" x2=".5" y2="1"><stop offset="0" stop-color="#BFC68C"/><stop offset=".773" stop-color="#FFF"/><stop offset="1" stop-color="#FFF"/></linearGradient><path fill-rule="evenodd" d="M4 4H2V2h2v2z" fill="url(#c)"/><linearGradient id="d" x1=".5" y1=".006" x2=".5" y2="1"><stop offset="0" stop-color="#F4FFE8"/><stop offset="1" stop-color="#D4CD9A"/></linearGradient><path fill-rule="evenodd" d="M10 5H6V1h4v4z" fill="url(#d)"/><linearGradient id="e" x1=".5" y1=".006" x2=".5" y2="1"><stop offset="0" stop-color="#BFC68C"/><stop offset=".773" stop-color="#FFF"/><stop offset="1" stop-color="#FFF"/></linearGradient><path fill-rule="evenodd" d="M9 4H7V2h2v2z" fill="url(#e)"/><linearGradient id="f" x1=".5" y1=".006" x2=".5" y2="1"><stop offset="0" stop-color="#F4FFE8"/><stop offset="1" stop-color="#D4CD9A"/></linearGradient><path fill-rule="evenodd" d="M15 5h-4V1h4v4z" fill="url(#f)"/><linearGradient id="g" x1=".5" y1=".006" x2=".5" y2="1"><stop offset="0" stop-color="#BFC68C"/><stop offset=".773" stop-color="#FFF"/><stop offset="1" stop-color="#FFF"/></linearGradient><path fill-rule="evenodd" d="M14 4h-2V2h2v2z" fill="url(#g)"/><linearGradient id="h" x1=".5" y1=".006" x2=".5" y2="1"><stop offset="0" stop-color="#F4FFE8"/><stop offset="1" stop-color="#D4CD9A"/></linearGradient><path fill-rule="evenodd" d="M5 10H1V6h4v4z" fill="url(#h)"/><linearGradient id="i" x1=".5" y1=".006" x2=".5" y2="1"><stop offset="0" stop-color="#BFC68C"/><stop offset=".773" stop-color="#FFF"/><stop offset="1" stop-color="#FFF"/></linearGradient><path fill-rule="evenodd" d="M4 9H2V7h2v2z" fill="url(#i)"/><linearGradient id="j" x1=".5" y1=".006" x2=".5" y2="1"><stop offset="0" stop-color="#F4FFE8"/><stop offset="1" stop-color="#D4CD9A"/></linearGradient><path fill-rule="evenodd" d="M10 10H6V6h4v4z" fill="url(#j)"/><linearGradient id="k" x1=".5" y1=".006" x2=".5" y2="1"><stop offset="0" stop-color="#BFC68C"/><stop offset=".773" stop-color="#FFF"/><stop offset="1" stop-color="#FFF"/></linearGradient><path fill-rule="evenodd" d="M9 9H7V7h2v2z" fill="url(#k)"/><linearGradient id="l" x1=".5" y1=".006" x2=".5" y2="1"><stop offset="0" stop-color="#F4FFE8"/><stop offset="1" stop-color="#D4CD9A"/></linearGradient><path fill-rule="evenodd" d="M15 10h-4V6h4v4z" fill="url(#l)"/><linearGradient id="m" x1=".5" y1=".006" x2=".5" y2="1"><stop offset="0" stop-color="#BFC68C"/><stop offset=".773" stop-color="#FFF"/><stop offset="1" stop-color="#FFF"/></linearGradient><path fill-rule="evenodd" d="M14 9h-2V7h2v2z" fill="url(#m)"/><linearGradient id="n" x1=".5" y1=".018" x2=".5" y2="1.009"><stop offset="0" stop-color="#A10000"/><stop offset="1" stop-color="#5D0000"/></linearGradient><path fill-rule="evenodd" d="M5 16h11v-6H5v6z" fill="url(#n)"/><linearGradient id="o" x1=".5" y1=".018" x2=".5" y2="1.009"><stop offset="0" stop-color="#FFDBDB"/><stop offset="1" stop-color="#FFACAC"/></linearGradient><path fill-rule="evenodd" d="M10 15H6v-4h4v4z" fill="url(#o)"/><linearGradient id="p" x1=".5" y1=".018" x2=".5" y2="1.009"><stop offset="0" stop-color="#FF8080"/><stop offset=".567" stop-color="#FFF"/><stop offset="1" stop-color="#FFF"/></linearGradient><path fill-rule="evenodd" d="M9 14H7v-2h2v2z" fill="url(#p)"/><linearGradient id="q" x1=".5" y1=".018" x2=".5" y2="1.009"><stop offset="0" stop-color="#FFDBDB"/><stop offset="1" stop-color="#FFACAC"/></linearGradient><path fill-rule="evenodd" d="M15 15h-4v-4h4v4z" fill="url(#q)"/><linearGradient id="r" x1=".5" y1=".018" x2=".5" y2="1.009"><stop offset="0" stop-color="#FF8080"/><stop offset=".567" stop-color="#FFF"/><stop offset="1" stop-color="#FFF"/></linearGradient><path fill-rule="evenodd" d="M14 14h-2v-2h2v2z" fill="url(#r)"/></svg>