<svg ti:v="1" width="16" height="16" viewBox="0 0 16 16" xmlns="http://www.w3.org/2000/svg" xmlns:ti="urn:schemas-jetbrains-com:tisvg"><rect id="frame" width="16" height="16" fill="none"/><g fill-rule="evenodd"><path d="M9 0C5.141 0 2 3.141 2 7c0 .825.144 1.633.429 2.405L0 14.785V16h1.215l5.38-2.43c.773.286 1.58.43 2.405.43 3.859 0 7-3.141 7-7s-3.141-7-7-7z" fill="#F4F4F4"/><path d="M9 1a6 6 0 0 0-6 6c0 .864.187 1.685.516 2.427L1 15l5.573-2.516A5.98 5.98 0 0 0 9 13 6.001 6.001 0 0 0 9 1z" fill="#313131"/><path d="M14 7a5 5 0 0 1-5 5 5 5 0 0 1-5-5 5 5 0 0 1 5-5 5 5 0 0 1 5 5z" fill="#EBEBEB"/><path d="M9.179 10v-.45l.495-.676c.694-.966 1.524-2.064 1.524-3.165 0-.649-.29-1.045-.838-1.045-.424 0-.695.226-.848.324l-.172-.522a1.832 1.832 0 0 1 1.146-.397c.972 0 1.396.72 1.396 1.604 0 1.1-.721 2.164-1.441 3.155l-.397.541v.018H12V10M7.347 8.299V5.006H7.31c-.197.469-1.634 3.293-1.634 3.293M7.346 10V9H5v-.801L7.247 4H8v4.299h.573V9H8v1h-.653z" fill="#313131"/></g></svg>