<svg ti:v="1" width="16" height="16" viewBox="0 0 16 16" xmlns="http://www.w3.org/2000/svg" xmlns:ti="urn:schemas-jetbrains-com:tisvg"><rect id="frame" width="16" height="16" fill="none"/><linearGradient id="a" x1=".5" y1="0" x2=".5" y2="1"><stop offset="0" stop-color="#183D87"/><stop offset="1" stop-color="#082156"/></linearGradient><path fill-rule="evenodd" d="M2 7c0 .825.143 1.633.429 2.406L0 14.785V16h1.215l5.38-2.43c.773.286 1.58.43 2.405.43 3.86 0 7-3.141 7-7s-3.14-7-7-7-7 3.141-7 7z" fill="url(#a)"/><linearGradient id="b" x1=".5" y1="0" x2=".5" y2="1"><stop offset="0" stop-color="#FFF"/><stop offset="1" stop-color="#3FACFF"/></linearGradient><path fill-rule="evenodd" d="M3 7c0 .864.186 1.685.516 2.426L1 15l5.573-2.515A6 6 0 0 0 15 7 6 6 0 0 0 3 7z" fill="url(#b)"/><linearGradient id="c" x1=".5" y1="0" x2=".5" y2="1"><stop offset="0" stop-color="#D6EFFF"/><stop offset="1" stop-color="#93CFFF"/></linearGradient><path fill-rule="evenodd" d="M4 7a5 5 0 0 0 5 5 5 5 0 0 0 5-5 5 5 0 0 0-5-5 5 5 0 0 0-5 5z" fill="url(#c)"/><linearGradient id="d" x1=".5" y1="0" x2=".5" y2="1"><stop offset="0" stop-color="#183D87"/><stop offset="1" stop-color="#082156"/></linearGradient><path fill-rule="evenodd" d="M7.247 4L5 8.199V9h2.347v1H8V9h.572v-.701H8V4m-.691 1.006h.038v3.293H5.676s1.436-2.825 1.633-3.293zm2.031-.54l.172.523c.153-.099.424-.325.847-.325.55 0 .838.396.838 1.045 0 1.1-.829 2.199-1.523 3.165l-.495.676V10H12v-.613h-1.956v-.018l.396-.541c.721-.991 1.442-2.055 1.442-3.155 0-.882-.424-1.603-1.397-1.603-.531 0-.937.224-1.145.396z" fill="url(#d)"/></svg>