<svg ti:v="1" width="16" height="16" viewBox="0 0 16 16" xmlns="http://www.w3.org/2000/svg" xmlns:ti="urn:schemas-jetbrains-com:tisvg"><rect id="frame" width="16" height="16" fill="none"/><g fill-rule="evenodd"><path d="M11 6v1c0 2.206-1.794 4-4 4H6v3h1c3.859 0 7-3.141 7-7V6h-3z" fill="#242424"/><path d="M5 10H2V6h3v4z" fill="#242424"/><path d="M10 5H6V2h4v3z" fill="#242424"/><path d="M8 3H7v1h1m2 0H9V3h1v1z" fill="#C3C3C3"/><path d="M4 7H3v1h1m0 2H3V9h1v1z" fill="#C3C3C3"/><path d="M6 15H1v-5h5v5z" fill="#242424"/><path d="M5 14H2v-3h3v3z" fill="#C3C3C3"/><path d="M7 7H0V0h7v7z" fill="#242424"/><path d="M15 6h-5V1h5v5z" fill="#242424"/><path d="M14 5h-3V2h3v3z" fill="#C3C3C3"/><path d="M7 13c3.309 0 6-2.691 6-6V6h-1v1c0 2.757-2.243 5-5 5H6v1h1z" fill="#8CCF8C"/><path d="M6 6H1V1h5v5z" fill="#282828"/><path d="M4 1H3v1h1m2-1H5v1h1m0 3H5v1h1M2 5H1v1h1m0-3H1v1h1m0-3H1v1h1m4 1H5v1h1M4 6H3V5h1v1z" fill="#C3C3C3"/></g></svg>