<svg ti:v="1" width="16" height="16" viewBox="0 0 16 16" xmlns="http://www.w3.org/2000/svg" xmlns:ti="urn:schemas-jetbrains-com:tisvg"><rect id="frame" width="16" height="16" fill="none"/><path fill-rule="evenodd" d="M11 6v1c0 2.206-1.794 4-4 4H6v3h1c3.859 0 7-3.141 7-7V6h-3z" fill="#0F4D1A"/><linearGradient id="a" x1=".5" y1=".003" x2=".5" y2="1.003"><stop offset="0" stop-color="#5D6044"/><stop offset="1" stop-color="#2B3626"/></linearGradient><path fill-rule="evenodd" d="M2 10h3V6H2v4z" fill="url(#a)"/><linearGradient id="b" x1=".5" y1=".004" x2=".5" y2="1.004"><stop offset="0" stop-color="#5D6044"/><stop offset="1" stop-color="#2B3626"/></linearGradient><path fill-rule="evenodd" d="M6 5h4.001V1.999H6V5z" fill="url(#b)"/><linearGradient id="c" x1=".5" y1=".007" x2=".5" y2="1"><stop offset="0" stop-color="#F4FFE8"/><stop offset="1" stop-color="#D4CD9A"/></linearGradient><path fill-rule="evenodd" d="M9 4h1V2.999H9M7 4h1V2.999H7V4z" fill="url(#c)"/><linearGradient id="d" x1=".5" y1=".006" x2=".5" y2="1"><stop offset="0" stop-color="#F4FFE8"/><stop offset="1" stop-color="#D4CD9A"/></linearGradient><path fill-rule="evenodd" d="M3 8h1V7H3m0 3h1V9H3v1z" fill="url(#d)"/><linearGradient id="e" x1=".5" y1=".004" x2=".5" y2="1.004"><stop offset="0" stop-color="#5D6044"/><stop offset="1" stop-color="#2B3626"/></linearGradient><path fill-rule="evenodd" d="M1 15h5v-5H1v5z" fill="url(#e)"/><linearGradient id="f" x1=".5" y1=".007" x2=".5" y2="1"><stop offset="0" stop-color="#F4FFE8"/><stop offset="1" stop-color="#D4CD9A"/></linearGradient><path fill-rule="evenodd" d="M2 14h3v-3.001H2V14z" fill="url(#f)"/><linearGradient id="g" x1=".5" y1=".003" x2=".5" y2="1.003"><stop offset="0" stop-color="#5D6044"/><stop offset="1" stop-color="#2B3626"/></linearGradient><path fill-rule="evenodd" d="M0 7h6.999V0H0v7z" fill="url(#g)"/><linearGradient id="h" x1=".5" y1=".004" x2=".5" y2="1.004"><stop offset="0" stop-color="#5D6044"/><stop offset="1" stop-color="#2B3626"/></linearGradient><path fill-rule="evenodd" d="M10 6h5V1h-5v5z" fill="url(#h)"/><linearGradient id="i" x1=".5" y1=".007" x2=".5" y2="1"><stop offset="0" stop-color="#F4FFE8"/><stop offset="1" stop-color="#D4CD9A"/></linearGradient><path fill-rule="evenodd" d="M11 5h3V1.999h-3V5z" fill="url(#i)"/><path fill-rule="evenodd" d="M7 13c3.309 0 6-2.691 6-6V6h-1v1c0 2.757-2.243 5-5 5H6v1h1z" fill="#00E627"/><linearGradient id="j" x1=".5" y1=".004" x2=".5" y2="1.004"><stop offset="0" stop-color="#5D6044"/><stop offset="1" stop-color="#2B3626"/></linearGradient><path fill-rule="evenodd" d="M1 6h5V1H1v5z" fill="url(#j)"/><linearGradient id="k" x1=".5" y1=".006" x2=".5" y2="1"><stop offset="0" stop-color="#F4FFE8"/><stop offset="1" stop-color="#D4CD9A"/></linearGradient><path fill-rule="evenodd" d="M5 2h1V1H5M3 2h1V1H3M1 2h1V1H1m4 3h1V2.999H5M1 4h1V2.999H1M5 6h1V5H5M3 6h1V5H3M1 6h1V5H1v1z" fill="url(#k)"/></svg>