<svg ti:v="1" width="16" height="16" viewBox="0 0 16 16" xmlns="http://www.w3.org/2000/svg" xmlns:ti="urn:schemas-jetbrains-com:tisvg"><rect id="frame" width="16" height="16" fill="none"/><linearGradient id="a" x1=".5" y1="0" x2=".5" y2="1"><stop offset="0" stop-color="#567589"/><stop offset="1" stop-color="#024652"/></linearGradient><path fill-rule="evenodd" d="M2 14V0h11.414L16 2.586V14H2z" fill="url(#a)"/><linearGradient id="b" x1=".5" y1="0" x2=".5" y2="1"><stop offset="0" stop-color="#75BCDD"/><stop offset="1" stop-color="#87AEE6"/></linearGradient><path fill-rule="evenodd" d="M15 3v10H3V1h10l2 2z" fill="url(#b)"/><linearGradient id="c" x1=".5" y1="0" x2=".5" y2="1"><stop offset="0" stop-color="#E6F6FF"/><stop offset="1" stop-color="#D6DFED"/></linearGradient><path fill-rule="evenodd" d="M6 6h6V1H6v5z" fill="url(#c)"/><path fill-rule="evenodd" d="M11 1H9v3h2V1z" fill="#71797D"/><path fill-rule="evenodd" d="M13 12.5H5V8h8v4.5z" fill="#FFC"/><linearGradient id="d" x1=".5" y1=".003" x2=".5" y2="1.003"><stop offset="0" stop-color="#5D6044"/><stop offset="1" stop-color="#2B3626"/></linearGradient><path fill-rule="evenodd" d="M9 16H0V7h9v9z" fill="url(#d)"/><linearGradient id="e" x1=".5" y1=".006" x2=".5" y2="1"><stop offset="0" stop-color="#F4FFE8"/><stop offset="1" stop-color="#D4CD9A"/></linearGradient><path fill-rule="evenodd" d="M1 11h3V8H1v3z" fill="url(#e)"/><linearGradient id="f" x1=".5" y1=".006" x2=".5" y2="1"><stop offset="0" stop-color="#F4FFE8"/><stop offset="1" stop-color="#D4CD9A"/></linearGradient><path fill-rule="evenodd" d="M1 15h3v-3H1v3z" fill="url(#f)"/><linearGradient id="g" x1=".5" y1=".006" x2=".5" y2="1"><stop offset="0" stop-color="#F4FFE8"/><stop offset="1" stop-color="#D4CD9A"/></linearGradient><path fill-rule="evenodd" d="M5 11h3V8H5v3z" fill="url(#g)"/><linearGradient id="h" x1=".5" y1=".006" x2=".5" y2="1"><stop offset="0" stop-color="#F4FFE8"/><stop offset="1" stop-color="#D4CD9A"/></linearGradient><path fill-rule="evenodd" d="M5 15h3v-3H5v3z" fill="url(#h)"/><path fill-rule="evenodd" d="M2 10h1V9H2v1z" fill="#3D4530"/><path fill-rule="evenodd" d="M6 10h1V9H6v1z" fill="#3D4530"/><path fill-rule="evenodd" d="M2 14h1v-1H2v1z" fill="#3D4530"/><path fill-rule="evenodd" d="M6 14h1v-1H6v1z" fill="#3D4530"/></svg>