<svg ti:v="1" width="16" height="16" viewBox="0 0 16 16" xmlns="http://www.w3.org/2000/svg" xmlns:ti="urn:schemas-jetbrains-com:tisvg"><rect id="frame" width="16" height="16" fill="none"/><g fill-rule="evenodd"><path d="M2 14V0h11.414L16 2.586V14H2z" fill="#242424"/><path d="M15 3v10H3V1h10l2 2z" fill="#C3C3C3"/><path d="M6 6h6V1H6v5z" fill="#292929"/><path d="M11 1H9v3h2V1z" fill="#C3C3C3"/><path d="M13 12.5H5V8h8v4.5z" fill="#292929"/><path d="M9 16H0V7h9v9z" fill="#242424"/><path d="M1 11h3V8H1v3z" fill="#C3C3C3"/><path d="M1 15h3v-3H1v3z" fill="#C3C3C3"/><path d="M5 11h3V8H5v3z" fill="#C3C3C3"/><path d="M5 15h3v-3H5v3z" fill="#C3C3C3"/><path d="M2 10h1V9H2v1z" fill="#282828"/><path d="M2 14h1v-1H2v1z" fill="#282828"/><path d="M6 10h1V9H6v1z" fill="#282828"/><path d="M6 14h1v-1H6v1z" fill="#282828"/></g></svg>