<svg ti:v="1" width="16" height="16" viewBox="0 0 16 16" xmlns="http://www.w3.org/2000/svg" xmlns:ti="urn:schemas-jetbrains-com:tisvg"><rect id="frame" width="16" height="16" fill="none"/><linearGradient id="a" x1=".5" y1=".018" x2=".5" y2="1.009"><stop offset="0" stop-color="#A10000"/><stop offset="1" stop-color="#5D0000"/></linearGradient><path fill-rule="evenodd" d="M11 6v1c0 2.206-1.794 4-4 4H6v3h1c3.86 0 7-3.141 7-7V6h-3z" fill="url(#a)"/><linearGradient id="b" x1=".5" y1=".003" x2=".5" y2="1.003"><stop offset="0" stop-color="#5D6044"/><stop offset="1" stop-color="#2B3626"/></linearGradient><path fill-rule="evenodd" d="M2 10h3V6H2v4z" fill="url(#b)"/><linearGradient id="c" x1=".5" y1=".003" x2=".5" y2="1.003"><stop offset="0" stop-color="#5D6044"/><stop offset="1" stop-color="#2B3626"/></linearGradient><path fill-rule="evenodd" d="M6 5h4.001V2H6v3z" fill="url(#c)"/><linearGradient id="d" x1=".5" y1=".006" x2=".5" y2="1"><stop offset="0" stop-color="#F4FFE8"/><stop offset="1" stop-color="#D4CD9A"/></linearGradient><path fill-rule="evenodd" d="M6 4h4.001V3H6v1z" fill="url(#d)"/><linearGradient id="e" x1=".5" y1=".006" x2=".5" y2="1"><stop offset="0" stop-color="#F4FFE8"/><stop offset="1" stop-color="#D4CD9A"/></linearGradient><path fill-rule="evenodd" d="M3 10h1V6H3v4z" fill="url(#e)"/><linearGradient id="f" x1=".5" y1=".004" x2=".5" y2="1.004"><stop offset="0" stop-color="#5D6044"/><stop offset="1" stop-color="#2B3626"/></linearGradient><path fill-rule="evenodd" d="M1 15h5v-5H1v5z" fill="url(#f)"/><linearGradient id="g" x1=".5" y1=".006" x2=".5" y2="1"><stop offset="0" stop-color="#F4FFE8"/><stop offset="1" stop-color="#D4CD9A"/></linearGradient><path fill-rule="evenodd" d="M2 14h3v-3H2v3z" fill="url(#g)"/><linearGradient id="h" x1=".5" y1=".004" x2=".5" y2="1.004"><stop offset="0" stop-color="#5D6044"/><stop offset="1" stop-color="#2B3626"/></linearGradient><path fill-rule="evenodd" d="M1 6h5V1H1v5z" fill="url(#h)"/><linearGradient id="i" x1=".5" y1=".006" x2=".5" y2="1"><stop offset="0" stop-color="#F4FFE8"/><stop offset="1" stop-color="#D4CD9A"/></linearGradient><path fill-rule="evenodd" d="M2 5h3V2H2v3z" fill="url(#i)"/><linearGradient id="j" x1=".5" y1=".004" x2=".5" y2="1.004"><stop offset="0" stop-color="#5D6044"/><stop offset="1" stop-color="#2B3626"/></linearGradient><path fill-rule="evenodd" d="M10 6h5V1h-5v5z" fill="url(#j)"/><linearGradient id="k" x1=".5" y1=".006" x2=".5" y2="1"><stop offset="0" stop-color="#F4FFE8"/><stop offset="1" stop-color="#D4CD9A"/></linearGradient><path fill-rule="evenodd" d="M11 5h3V2h-3v3z" fill="url(#k)"/><linearGradient id="l" x1=".5" y1=".018" x2=".5" y2="1.009"><stop offset="0" stop-color="#FFDBDB"/><stop offset="1" stop-color="#FFACAC"/></linearGradient><path fill-rule="evenodd" d="M12 6v1c0 2.757-2.244 5-5 5H6v1h1c3.309 0 6-2.691 6-6V6h-1z" fill="url(#l)"/></svg>