<svg xmlns="http://www.w3.org/2000/svg" width="12" height="12" viewBox="0 0 12 12"><rect id="frame" width="12" height="12" fill="none"/><g fill="none" fill-rule="evenodd"><path fill="#F98B9E" fill-opacity=".6" d="M6 10a4 4 0 1 1 0-8 4 4 0 0 1 0 8z"/><path fill="#9AA7B0" fill-opacity=".8" d="M6 12A6 6 0 1 1 6 0a6 6 0 0 1 0 12zm0-1A5 5 0 1 0 6 1a5 5 0 0 0 0 10z"/><path fill="#231F20" fill-opacity=".7" d="M8.993 5.6C8.993 5 8.687 4 7.27 4c-.745 0-1.135.402-1.185.48C5.815 4.155 5.524 4 4.8 4c-.401 0-.715.08-.943.24V4H3v4h.857c-.028-1.475-.028-2.275 0-2.4.043-.187.043-.8.857-.8.815 0 .857.43.857.8V8h.858V5.6c0-.251-.035-.8.841-.8s.876.592.877.8V8h.85l-.004-2.4z"/></g></svg>