<svg xmlns="http://www.w3.org/2000/svg" width="12" height="12" viewBox="0 0 12 12">
  <g fill="none" fill-rule="evenodd">
    <path fill="#F98B9E" fill-opacity=".6" d="M6,10 C3.79085714,10 2,8.20914286 2,6 C2,3.79085714 3.79085714,2 6,2 C8.20914286,2 10,3.79085714 10,6 C10,8.20914286 8.20914286,10 6,10 Z"/>
    <path fill="#9AA7B0" fill-opacity=".8" d="M6,12 C2.6862915,12 0,9.3137085 0,6 C0,2.6862915 2.6862915,0 6,0 C9.3137085,0 12,2.6862915 12,6 C12,9.3137085 9.3137085,12 6,12 Z M6,11 C8.76142375,11 11,8.76142375 11,6 C11,3.23857625 8.76142375,1 6,1 C3.23857625,1 1,3.23857625 1,6 C1,8.76142375 3.23857625,11 6,11 Z"/>
    <path fill="#231F20" fill-opacity=".7" d="M5.99331429,1.6 C5.99245714,1.0008 5.68725586,0.00024 4.26996722,0.00024 C3.52478027,0.00024 3.13508571,0.4016 3.08451429,0.48 C2.81454032,0.155292969 2.52352818,0.00024 1.8,0.00024 C1.3988072,0.00024 1.08452148,0.0799549333 0.857142857,0.2393848 L0.857142857,0.00024 L0,0.00024 L0,4.00024 L0.857142857,4.00024 C0.828571429,2.52504 0.828571429,1.72496 0.857142857,1.6 C0.9,1.41256 0.9,0.8 1.71428571,0.8 C2.52857143,0.8 2.57057143,1.2296 2.57142857,1.6 L2.57142857,4.00024 L3.42857143,4.00024 L3.42857143,1.6 C3.42857143,1.3488 3.39353102,0.8 4.26996722,0.8 C5.14640341,0.8 5.14640341,1.39168945 5.14688546,1.6 C5.14688546,2.23233507 5.14688546,2.70658637 5.14688546,3.02275391 C5.14688546,3.23997304 5.14688546,3.56580174 5.14688546,4.00024 L5.9976,4.00024 L5.99331429,1.6 Z" transform="translate(3 4)"/>
  </g>
</svg>
