<svg xmlns="http://www.w3.org/2000/svg" width="12" height="12" viewBox="0 0 12 12">
  <g fill="none" fill-rule="evenodd">
    <path fill="#40B6E0" fill-opacity=".6" d="M6,10 C3.79085714,10 2,8.20914286 2,6 C2,3.79085714 3.79085714,2 6,2 C8.20914286,2 10,3.79085714 10,6 C10,8.20914286 8.20914286,10 6,10 Z"/>
    <path fill="#9AA7B0" fill-opacity=".8" d="M6,12 C2.6862915,12 0,9.3137085 0,6 C0,2.6862915 2.6862915,0 6,0 C9.3137085,0 12,2.6862915 12,6 C12,9.3137085 9.3137085,12 6,12 Z M6,11 C8.76142375,11 11,8.76142375 11,6 C11,3.23857625 8.76142375,1 6,1 C3.23857625,1 1,3.23857625 1,6 C1,8.76142375 3.23857625,11 6,11 Z"/>
    <path fill="#231F20" fill-opacity=".7" d="M3.33333333,2.85502116 C3.02,3.16102116 2.68533333,3.31866667 2.06666667,3.33333333 C1.374,3.348 0.666666667,2.85293333 0.666666667,2.00026667 C0.666666667,1.1416 1.314,0.666666667 2.06666667,0.666666667 C2.63222114,0.666666667 3.03222114,0.789835612 3.26666667,1.0361735 L3.67746667,0.557820638 C3.21959993,0.180116797 2.85884603,0.000266666667 2.06546667,0.000266666667 C0.893466667,0.000266666667 0.000133333333,0.9056 0.000133333333,2.00026667 C0.000133333333,3.1216 0.909466667,4.00026667 2.00146667,4.00026667 C2.86189779,4.00026667 3.3488,3.72893333 3.74413333,3.32093333 C3.47026667,3.01032522 3.33333333,2.85502116 3.33333333,2.85502116 Z" transform="translate(4 4)"/>
  </g>
</svg>
