<svg xmlns="http://www.w3.org/2000/svg" width="12" height="12" viewBox="0 0 12 12"><rect id="frame" width="12" height="12" fill="none"/><g fill="none" fill-rule="evenodd"><path fill="#40B6E0" fill-opacity=".6" d="M6 10a4 4 0 1 1 0-8 4 4 0 0 1 0 8z"/><path fill="#9AA7B0" fill-opacity=".8" d="M6 12A6 6 0 1 1 6 0a6 6 0 0 1 0 12zm0-1A5 5 0 1 0 6 1a5 5 0 0 0 0 10z"/><path fill="#231F20" fill-opacity=".7" d="M7.333 6.855c-.313.306-.648.464-1.266.478-.693.015-1.4-.48-1.4-1.333 0-.858.647-1.333 1.4-1.333.565 0 .965.123 1.2.37l.41-.48C7.22 4.18 6.86 4 6.065 4 4.893 4 4 4.906 4 6c0 1.122.91 2 2.001 2 .86 0 1.348-.271 1.743-.68l-.41-.465z"/></g></svg>