<svg xmlns="http://www.w3.org/2000/svg" width="16" height="16" viewBox="0 0 16 16"><rect id="frame" width="16" height="16" fill="none"/><g fill="none" fill-rule="evenodd"><path fill="#40B6E0" fill-opacity=".7" d="M13.621 10.724l1.138.816a4.994 4.994 0 0 1-1.044 1.807l-1.275-.575a3.698 3.698 0 0 1-1.257.727l-.139 1.392a5.058 5.058 0 0 1-2.088 0l-.139-1.392a3.712 3.712 0 0 1-1.258-.727l-1.274.575a4.994 4.994 0 0 1-1.044-1.807l1.138-.816a3.673 3.673 0 0 1 0-1.447L5.241 8.46a4.99 4.99 0 0 1 1.044-1.806l1.274.575A3.73 3.73 0 0 1 8.817 6.5l.14-1.391a4.99 4.99 0 0 1 2.087 0l.14 1.39c.467.16.893.41 1.256.729l1.275-.575A4.99 4.99 0 0 1 14.76 8.46l-1.138.817a3.663 3.663 0 0 1 0 1.447m-3.62 1.046A1.77 1.77 0 1 0 10 8.23a1.77 1.77 0 0 0 0 3.539"/><path fill="#9AA7B0" fill-opacity=".8" d="M4.7 7.191a1.757 1.757 0 0 1-.47-1.19c0-.978.793-1.77 1.77-1.77.461 0 .876.18 1.191.468a5.958 5.958 0 0 1 3.375-.67c-.218-.502-.49-.975-.85-1.376l-1.277.575a3.688 3.688 0 0 0-1.257-.727L7.044 1.11a4.998 4.998 0 0 0-2.088 0l-.139 1.392a3.698 3.698 0 0 0-1.257.727l-1.275-.575a5.005 5.005 0 0 0-1.044 1.808l1.138.815a3.665 3.665 0 0 0 0 1.447l-1.138.816c.22.677.578 1.291 1.044 1.806l1.275-.574c.157.138.33.256.508.366.101-.694.315-1.35.631-1.946"/></g></svg>