<svg xmlns="http://www.w3.org/2000/svg" width="16" height="16" viewBox="0 0 16 16"><rect id="frame" width="16" height="16" fill="none"/><path fill="#40B6E0" fill-opacity=".7" fill-rule="evenodd" d="M13.07 9.014l1.592 1.142a7.005 7.005 0 0 1-1.46 2.529l-1.786-.805a5.182 5.182 0 0 1-1.76 1.019l-.195 1.949c-.47.1-.96.152-1.46.152-.502 0-.992-.052-1.462-.152l-.195-1.95a5.168 5.168 0 0 1-1.76-1.018l-1.785.805a6.976 6.976 0 0 1-1.46-2.53l1.59-1.141a5.29 5.29 0 0 1 0-2.027L1.34 5.845a6.968 6.968 0 0 1 1.46-2.53l1.785.805a5.166 5.166 0 0 1 1.76-1.018l.195-1.95a7.024 7.024 0 0 1 2.922 0l.194 1.95a5.18 5.18 0 0 1 1.761 1.018l1.785-.804a6.997 6.997 0 0 1 1.461 2.529L13.07 6.987a5.288 5.288 0 0 1 0 2.027M8 10.478a2.477 2.477 0 1 0-.002-4.954A2.477 2.477 0 0 0 8 10.478"/></svg>