<svg xmlns="http://www.w3.org/2000/svg" width="16" height="16" viewBox="0 0 16 16"><rect id="frame" width="16" height="16" fill="none"/><g fill="#9AA7B0" fill-rule="evenodd"><path d="M10 16h6V9h-6v7zm1-1h4.001v-5H11v5z"/><path d="M12 12h2v-1.001h-2z"/><path d="M12 14h2v-1h-2z"/><path fill-opacity=".8" d="M3 5.99c0 .322.181.618.467.764l.312.157a.82.82 0 0 0 .721.01V3.08a.816.816 0 0 0-.721.01l-.312.157A.857.857 0 0 0 3 4.01v1.98zM6 14c-1.889 0-4.022-2.178-4-4V8c0-1.42.566-2 1-2V4C1.9 4 1 6.08 1 8v2c0 2.733 2.6 5 5 5h3v-1H6zm5-6H9v1H7.137C5.957 9 5 7.924 5 6.596V3.403C5 2.076 5.957 1 7.137 1H11v7zm.5 0H15V7h-3.5v1zm0-5H15V2h-3.5v1z"/></g></svg>