<svg xmlns="http://www.w3.org/2000/svg" width="16" height="16" viewBox="0 0 16 16"><rect id="frame" width="16" height="16" fill="none"/><g fill="none" fill-rule="evenodd"><path fill="#9AA7B0" fill-opacity=".8" d="M15 9H9.78C8.799 9 8 10.076 8 11.403V13H1V2.051C1 2.023 1.023 2 1.05 2H5c.556 0 1.332.32 1.726.711L8.02 4H15l.002 5z"/><path fill="#40B6E0" d="M13 10v6h-2.575C9.638 16 9 15.193 9 14.197v-2.395C9 10.807 9.638 10 10.425 10H13z"/><path fill="#40B6E0" d="M14 12h2v-1h-2z"/><path fill="#40B6E0" d="M14 15h2v-1h-2z"/></g></svg>