<svg xmlns="http://www.w3.org/2000/svg" width="16" height="16" viewBox="0 0 16 16"><rect id="frame" width="16" height="16" fill="none"/><g fill="none" fill-rule="evenodd"><path fill="#ED163A" d="M14.829 7.999a6.83 6.83 0 1 1-13.659 0 6.829 6.829 0 1 1 13.659 0"/><path fill="#D51C2F" d="M11.525 4.705l-2.323-.021-1.358-1.358L6.25 4.384l.275.275-.646-.005-2.192 3.688h-.86l.54.54-.544.915 5.03 5.03.146.001a6.83 6.83 0 0 0 6.83-6.82l-3.304-3.303"/><path fill="#F5F5F5" fill-rule="nonzero" d="M4.634 8.498a3.364 3.364 0 1 1 6.73 0h-6.73zm7.564.155v-.31h.973a5.155 5.155 0 0 0-1.405-3.393l-.727.727-.22-.22.728-.727a5.153 5.153 0 0 0-3.392-1.404v.973h-.311v-.973A5.154 5.154 0 0 0 4.452 4.73l.727.728-.22.219-.727-.727a5.155 5.155 0 0 0-1.405 3.392H3.8v.31h-.977v1.14h10.352V8.653h-.977z"/></g></svg>