<svg xmlns="http://www.w3.org/2000/svg" width="16" height="16" viewBox="0 0 16 16">
  <g fill="none" fill-rule="evenodd" transform="matrix(1 0 0 -1 1.17 14.863)">
    <path fill="#ED163A" d="M13.6585362,6.86430223 C13.6585362,3.09229257 10.6013688,0.0346789851 6.82926812,0.0346789851 C3.05689423,0.0346789851 0,3.09229257 0,6.86430223 C0,10.6361298 3.05689423,13.6935704 6.82926812,13.6935704 C10.6013688,13.6935704 13.6585362,10.6361298 13.6585362,6.86430223"/>
    <path fill="#D51C2F" d="M10.3546046,10.1581721 L8.03194777,10.1793428 L6.67392504,11.5373655 L5.07972345,10.4785786 L5.35492019,10.2035412 L4.70907631,10.2093005 L2.51713164,6.52060793 L1.65707638,6.52060793 L2.19639279,5.98102745 L1.65307443,5.06638357 L6.68325837,0.0364591477 C6.73172341,0.0355690664 6.78052991,0.0346789851 6.82926812,0.0346789851 C10.5975445,0.0346789851 13.6527541,3.08739826 13.6585362,6.8542632 L10.3546046,10.1581721"/>
    <path fill="#F5F5F5" fill-rule="nonzero" d="M3.46444219,6.36517379 C3.46444219,8.22366805 4.97095597,9.7295672 6.82926812,9.7295672 C8.6873071,9.7295672 10.1933884,8.22366805 10.1933884,6.36517379 L3.46444219,6.36517379 Z M11.0281981,6.21001281 L11.0281981,6.52060793 L12.0014599,6.52060793 C11.9627834,7.83266968 11.4363607,9.02157697 10.5964745,9.9130241 L9.86936235,9.18563876 L9.64989244,9.40545013 L10.3768453,10.1326534 C9.48539814,10.9725395 8.29649085,11.4989623 6.98461121,11.5373655 L6.98426974,10.5643769 L6.67392504,10.5643769 L6.67392504,11.5373655 C5.36177222,11.4989623 4.17313811,10.9722664 3.28169097,10.1326534 L4.00889421,9.40545013 L3.78899178,9.18607128 L3.0618796,9.9130241 C2.22218011,9.02157697 1.69575736,7.83266968 1.65707638,6.52060793 L2.63006497,6.52060793 L2.62988286,6.21028599 L1.65307443,6.21028599 L1.65307443,5.07125512 L12.0054664,5.07125512 L12.0054664,6.21001281 L11.0281981,6.21001281 Z"/>
  </g>
</svg>
