<svg ti:v="1" width="16" height="16" viewBox="0 0 16 16" xmlns="http://www.w3.org/2000/svg" xmlns:ti="urn:schemas-jetbrains-com:tisvg"><rect id="frame" width="16" height="16" fill="none"/><g fill-rule="evenodd"><path d="M2.24 10.324c.687.521 1.468 1.113 2.545 1.113a3.03 3.03 0 0 0 1.353-.3c.334 1.566 1.107 3.166 1.624 3.617l.283.246h.926l.295-.468c.08-.126.278-.355.47-.577.655-.76 1.651-1.917 1.89-3.346.32.03.625.046.911.046 1.358 0 2.417-.344 3.144-1.022l.32-.297v-.7l-.132-.23c-.65-1.14-1.956-2.879-3.48-3.718.621-1.168.986-2.706.986-3.688V0h-1.063l-.06.008c-1.442.18-3.34 1.13-4.52 2.053-.688-.603-1.56-.958-2.31-1.26C4.957.61 4.476.415 4.28.244L3.997 0h-.862l-.3.386C1.815 1.698 1.74 2.403 1.747 3.19l.001.124c0 .618.55 1.734 1.387 2.631C1.926 6.511.826 7.286.341 7.711l-.34.3v1.188l.703.22c.577.177 1.042.531 1.535.905z" fill="#F4F4F4"/><path d="M3.624 1c-.959 1.232-.876 1.705-.876 2.313 0 .609 1.245 2.599 2.626 2.955C3.809 6.453 1.675 7.872 1 8.463c1.631.506 2.422 1.975 3.785 1.975S6.535 9.392 7.124 8.9C6.535 10.017 7.78 13.442 8.42 14c.52-.827 2.608-2.498 2.204-4.541 1.751.32 3.434.32 4.376-.558-.808-1.418-2.642-3.647-4.258-3.697.842-.591 1.633-2.854 1.633-4.204-1.751.22-4.208 1.756-4.73 2.532C6.872 2.029 4.499 1.76 3.624 1z" fill="#313131"/><path d="M10 6.5C10 7.328 9.104 8 8 8s-2-.672-2-1.5S6.896 5 8 5s2 .672 2 1.5z" fill="#EBEBEB"/></g></svg>