<svg ti:v="1" width="16" height="16" viewBox="0 0 16 16" xmlns="http://www.w3.org/2000/svg" xmlns:ti="urn:schemas-jetbrains-com:tisvg"><rect id="frame" width="16" height="16" fill="none"/><linearGradient id="a" x1=".5" y1="-.006" x2=".5" y2="1.031"><stop offset="0" stop-color="#618F5B"/><stop offset="1" stop-color="#265D1F"/></linearGradient><path fill-rule="evenodd" d="M12.312 0l-.061.008c-1.441.181-3.339 1.13-4.52 2.054-.687-.604-1.56-.958-2.309-1.262C4.957.612 4.477.416 4.279.245L3.997 0h-.862l-.3.386c-1.02 1.312-1.096 2.018-1.088 2.803l.001.124c0 .619.549 1.734 1.387 2.63C1.926 6.513.827 7.287.341 7.712L0 8.01v1.189l.704.219c.577.178 1.042.532 1.536.906.688.522 1.468 1.114 2.545 1.114a3.03 3.03 0 0 0 1.353-.301c.334 1.566 1.107 3.165 1.625 3.617l.282.246h.927l.295-.468c.079-.126.277-.356.469-.577.656-.76 1.652-1.917 1.889-3.345.32.029.626.046.912.046 1.359 0 2.417-.344 3.145-1.023L16 9.336v-.7l-.131-.23c-.65-1.14-1.956-2.88-3.479-3.717.621-1.169.985-2.707.985-3.689V0h-1.063z" fill="url(#a)"/><linearGradient id="b" x1=".5" y1="-.015" x2=".5" y2="1.002"><stop offset="0" stop-color="#F1FFF0"/><stop offset="1" stop-color="#90FF82"/></linearGradient><path fill-rule="evenodd" d="M7.646 3.532C6.872 2.029 4.499 1.76 3.624 1c-.959 1.233-.876 1.705-.876 2.313 0 .609 1.245 2.599 2.626 2.954-1.566.186-3.7 1.605-4.374 2.196 1.631.506 2.422 1.975 3.785 1.975S6.535 9.392 7.124 8.9C6.535 10.017 7.78 13.442 8.42 14c.52-.827 2.608-2.498 2.204-4.541 1.751.32 3.433.32 4.376-.558-.807-1.418-2.642-3.647-4.258-3.697.842-.591 1.633-2.855 1.633-4.204-1.751.22-4.208 1.756-4.729 2.532z" fill="url(#b)"/><path fill-rule="evenodd" d="M10 6.5C10 7.328 9.104 8 8 8s-2-.672-2-1.5S6.896 5 8 5s2 .672 2 1.5z" fill="#00A315"/></svg>