<svg ti:v="1" width="16" height="16" viewBox="0 0 16 16" xmlns="http://www.w3.org/2000/svg" xmlns:ti="urn:schemas-jetbrains-com:tisvg"><rect id="frame" width="16" height="16" fill="none"/><g fill-rule="evenodd"><path d="M16 16H0V0h16v16z" fill="#F4F4F4"/><path d="M9 3V2h2s0-1-1-1H9C8 1 8 2 8 2v1c0 1 1 1 1 1h1v1H8s0 1 1 1h1s1 0 1-1V4s0-1-1-1m-6 9V1h3v11c0 1.657-1 3-3 3H1v-2h2.5c.276 0 .5-.447.5-1z" fill="#313131"/><path d="M15 11H1V6h14v5z" fill="#EBEBEB"/><path d="M14 8V7h-1V6h-1v3c0 1 1 1 1 1h1V9h-1V8m-2-1h-1v3h1M8 7H6v3h1V8h1v2h1V8s0-1-1-1zM5 7v3H3c-1 0-1-1-1-1V7h1v2h1V7h1z" fill="#313131"/></g></svg>