<svg ti:v="1" width="16" height="16" viewBox="0 0 16 16" xmlns="http://www.w3.org/2000/svg" xmlns:ti="urn:schemas-jetbrains-com:tisvg"><rect id="frame" width="16" height="16" fill="none"/><linearGradient id="a" x1=".5" y1=".008" x2=".5" y2="1.008"><stop offset="0" stop-color="#121A27"/><stop offset="1" stop-color="#3C5580"/></linearGradient><path fill-rule="evenodd" d="M0 16h15.999V0H0v16z" fill="url(#a)"/><path fill-rule="evenodd" d="M8.959 1.566c-1.201 1.837.239 4.47 2.226 4.861 1.638.328 2.57-.339 3.439-1.642C12.716 7.641 7.768 3.98 9.355 1c-.132.188-.263.378-.396.566-.529.81 0 0 0 0zM5.717 2.733c-1.92 2.861.417 6.71 3.31 7.568 2.296.766 5.166-.395 5.973-2.832-3.218 4.807-11.381-.838-8.551-5.81l-.732 1.074c-.9 1.342 0 0 0 0zm-2.888.284c-3.36 6.76 7.281 14.255 11.83 8.093-1.552 3.933-6.396 4.85-9.739 2.904-1.29-.815-2.28-1.86-3.058-3.204-1.589-2.804-.815-5.444.967-7.793-1.091 2.195 0 0 0 0z" fill="#00C5FF"/></svg>