<svg xmlns="http://www.w3.org/2000/svg" width="16" height="16" viewBox="0 0 16 16">
  <title>ScopeAspvb(Gray)</title>
  <g>
    <rect width="16" height="16" fill="#ffe3ff" opacity="0"/>
    <g>
      <polygon points="6 4 3.233 4 0 8.688 0 9.312 3.233 14 6 14 6 12.688 3.457 9 6 5.312 6 4" fill="#f4f4f4"/>
      <polygon points="5 5 3.758 5 1 9 3.758 13 5 13 2.242 9 5 5" fill="#323232"/>
      <polygon points="10 14 12.767 14 16 9.312 16 8.688 12.767 4 10 4 10 5.312 12.543 9 10 12.688 10 14" fill="#f4f4f4"/>
      <polygon points="11 5 12.242 5 15 9 12.242 13 11 13 13.758 9 11 5" fill="#323232"/>
      <g>
        <path d="M10,9c-.074,0-.144.017-.216.022L12,4.78V3.92L10.185,3H9.34L8.57,4.474A3,3,0,1,0,6,9c.074,0,.144-.017.216-.022L4,13.22v.86L5.815,15H6.66l.77-1.474A3,3,0,1,0,10,9Z" fill="#f4f4f4"/>
        <path d="M10,10a2,2,0,1,0,2,2A2,2,0,0,0,10,10ZM6,4A2,2,0,1,0,8,6,2,2,0,0,0,6,4ZM9.945,4,11,4.534,6.055,14,5,13.466Z" fill="#0095d7"/>
        <path d="M10,13a1,1,0,1,1,1-1A1,1,0,0,1,10,13ZM6,7A1,1,0,1,1,7,6,1,1,0,0,1,6,7Z" fill="#ebebeb"/>
      </g>
    </g>
  </g>
</svg>
