<svg xmlns="http://www.w3.org/2000/svg" width="16" height="16" viewBox="0 0 16 16"><rect id="frame" width="16" height="16" fill="none"/><g fill="none" fill-rule="evenodd"><path fill="#40B6E0" fill-opacity=".7" d="M13.621 10.724l1.138.816a4.994 4.994 0 0 1-1.044 1.807l-1.275-.575a3.698 3.698 0 0 1-1.257.727l-.139 1.392a5.058 5.058 0 0 1-2.088 0l-.139-1.392a3.712 3.712 0 0 1-1.258-.727l-1.274.575a4.994 4.994 0 0 1-1.044-1.807l1.138-.816a3.673 3.673 0 0 1 0-1.447L5.241 8.46a4.99 4.99 0 0 1 1.044-1.806l1.274.575A3.73 3.73 0 0 1 8.817 6.5l.14-1.391a4.99 4.99 0 0 1 2.087 0l.14 1.39c.467.16.893.41 1.256.729l1.275-.575A4.99 4.99 0 0 1 14.76 8.46l-1.138.817a3.663 3.663 0 0 1 0 1.447m-3.62 1.046A1.77 1.77 0 1 0 10 8.23a1.77 1.77 0 0 0 0 3.539"/><path fill="#9AA7B0" fill-opacity=".8" d="M4.044 9.27a3.7 3.7 0 0 1-.726-.499l-1.275.575A4.995 4.995 0 0 1 1 7.54l1.137-.816a3.71 3.71 0 0 1 0-1.448L1 4.46a4.995 4.995 0 0 1 1.043-1.806l1.275.575c.363-.32.79-.57 1.258-.728l.139-1.392a5.02 5.02 0 0 1 2.087 0l.14 1.392c.467.158.894.408 1.257.728l1.275-.575c.36.399.656.856.873 1.356a5.973 5.973 0 0 0-3.307.77 1.77 1.77 0 1 0-2.425 2.57 5.96 5.96 0 0 0-.571 1.92z"/></g></svg>