<svg xmlns="http://www.w3.org/2000/svg" width="16" height="16" viewBox="0 0 16 16"><rect id="frame" width="16" height="16" fill="none"/><g fill="none" fill-rule="evenodd"><path fill="#9AA7B0" fill-opacity=".8" d="M11 4.7A6.302 6.302 0 0 0 4.779 10H1V1h10v3.7zm-6.172-.58L2.708 2 2 2.707l2.12 2.12L2 6.949l.707.708 2.12-2.121h.001l.708-.707h-.001l-.707-.708z"/><path fill="#40B6E0" d="M11.5 10.993V8.4h-1v3h.007l-.007.007 1.983 1.984.708-.708-1.691-1.69zM11 16a5 5 0 1 1 0-10 5 5 0 0 1 0 10z"/></g></svg>