<svg xmlns="http://www.w3.org/2000/svg" width="16" height="16" viewBox="0 0 16 16"><rect id="frame" width="16" height="16" fill="none"/><g fill="#3592c4"><path d="M12 2h1v12h-1z"/><path d="M9.358 9h-4.59v-.832l1.8-1.791q.444-.438.72-.757a4.038 4.038 0 0 0 .432-.583 1.8 1.8 0 0 0 .208-.5 2.318 2.318 0 0 0 .053-.506 1.7 1.7 0 0 0-.069-.488 1.152 1.152 0 0 0-.212-.407 1 1 0 0 0-.374-.277 1.339 1.339 0 0 0-.549-.1 1.652 1.652 0 0 0-.8.2 2.8 2.8 0 0 0-.666.511l-.512-.613a3.138 3.138 0 0 1 .901-.67 2.7 2.7 0 0 1 1.2-.251 2.444 2.444 0 0 1 .845.14 1.86 1.86 0 0 1 .658.4 1.769 1.769 0 0 1 .429.64 2.259 2.259 0 0 1 .152.853 2.469 2.469 0 0 1-.106.74 2.844 2.844 0 0 1-.323.681 5.216 5.216 0 0 1-.544.7q-.327.363-.775.794L5.972 8.115h3.386z"/></g></svg>