<svg xmlns="http://www.w3.org/2000/svg" width="16" height="16" viewBox="0 0 16 16"><rect id="frame" width="16" height="16" fill="none"/><g fill="#3592c4"><path d="M12 2h1v12h-1z"/><path d="M9.357 7.251a1.614 1.614 0 0 1-.687 1.365 2.407 2.407 0 0 1-.768.357 3.574 3.574 0 0 1-.96.123 3.569 3.569 0 0 1-1-.128 2.127 2.127 0 0 1-.732-.358 1.51 1.51 0 0 1-.443-.542 1.609 1.609 0 0 1-.149-.694 1.753 1.753 0 0 1 .357-1.1 3.166 3.166 0 0 1 1.1-.843 2.77 2.77 0 0 1-1-.77 1.632 1.632 0 0 1-.176-1.623 1.614 1.614 0 0 1 .418-.56 2.1 2.1 0 0 1 .7-.392 3.017 3.017 0 0 1 .992-.147 3.525 3.525 0 0 1 .946.115 1.985 1.985 0 0 1 .685.328 1.354 1.354 0 0 1 .416.517 1.6 1.6 0 0 1 .139.677 1.609 1.609 0 0 1-.339 1.034 2.888 2.888 0 0 1-.962.747 4.5 4.5 0 0 1 .576.341 2.413 2.413 0 0 1 .463.416 1.68 1.68 0 0 1 .416 1.14zm-1.007.07a1.19 1.19 0 0 0-.064-.384 1.069 1.069 0 0 0-.229-.368 2.3 2.3 0 0 0-.443-.362 5.061 5.061 0 0 0-.7-.374 4.668 4.668 0 0 0-.61.349 2.125 2.125 0 0 0-.4.352 1.139 1.139 0 0 0-.216.37 1.3 1.3 0 0 0-.064.406.848.848 0 0 0 .1.424.962.962 0 0 0 .285.312 1.274 1.274 0 0 0 .432.192 2.182 2.182 0 0 0 .544.064 2.334 2.334 0 0 0 .533-.059 1.379 1.379 0 0 0 .435-.178.908.908 0 0 0 .29-.3.858.858 0 0 0 .107-.444zm-.1-3.673a.8.8 0 0 0-.333-.707 1.629 1.629 0 0 0-.936-.232 1.631 1.631 0 0 0-.93.229.781.781 0 0 0-.333.688.9.9 0 0 0 .08.384 1.034 1.034 0 0 0 .247.331 2.552 2.552 0 0 0 .419.3 5.47 5.47 0 0 0 .6.3 3 3 0 0 0 .9-.589 1 1 0 0 0 .29-.704z"/></g></svg>