<svg xmlns="http://www.w3.org/2000/svg" width="16" height="16" viewBox="0 0 16 16"><rect id="frame" width="16" height="16" fill="none"/><g fill="#389fd6"><path d="M12 2h1v12h-1z"/><path d="M9.181 6.772a2 2 0 0 1-.224.943 2.23 2.23 0 0 1-.616.733 2.9 2.9 0 0 1-.925.477 3.746 3.746 0 0 1-1.151.175c-.1 0-.214 0-.333-.008s-.237-.012-.355-.021-.232-.019-.343-.03-.213-.022-.3-.037v-.846a4.482 4.482 0 0 0 .658.1c.247.022.5.032.75.032a2.673 2.673 0 0 0 .767-.1 1.723 1.723 0 0 0 .579-.29 1.267 1.267 0 0 0 .368-.459 1.39 1.39 0 0 0 .128-.6 1.035 1.035 0 0 0-.466-.946 2.506 2.506 0 0 0-1.341-.3H5.055V2.033h3.753v.81H5.929V4.8h.608a5.133 5.133 0 0 1 .975.091 2.505 2.505 0 0 1 .846.317 1.764 1.764 0 0 1 .6.608 1.857 1.857 0 0 1 .223.956z"/></g></svg>