<svg xmlns="http://www.w3.org/2000/svg" width="16" height="16" viewBox="0 0 16 16"><rect id="frame" width="16" height="16" fill="none"/><g fill="#389fd6"><path d="M12 2h1v12h-1z"/><path d="M9.527 5.493a6.2 6.2 0 0 1-.161 1.469A3.378 3.378 0 0 1 8.877 8.1a2.288 2.288 0 0 1-.814.735 2.373 2.373 0 0 1-1.141.265A2.424 2.424 0 0 1 5.9 8.885a2.033 2.033 0 0 1-.789-.652A3.231 3.231 0 0 1 4.6 7.11a6.5 6.5 0 0 1-.177-1.617 6.111 6.111 0 0 1 .164-1.471 3.488 3.488 0 0 1 .49-1.142 2.274 2.274 0 0 1 .814-.736 2.384 2.384 0 0 1 1.139-.261 2.437 2.437 0 0 1 1.026.217 2.033 2.033 0 0 1 .789.655 3.25 3.25 0 0 1 .5 1.125 6.5 6.5 0 0 1 .182 1.613zM5.37 5.461v.332c0 .11.008.219.019.323l2.97-2.2a2.578 2.578 0 0 0-.2-.5 1.592 1.592 0 0 0-.3-.389 1.228 1.228 0 0 0-.392-.255 1.257 1.257 0 0 0-.494-.092 1.27 1.27 0 0 0-.664.178 1.474 1.474 0 0 0-.507.528 2.927 2.927 0 0 0-.322.87 5.708 5.708 0 0 0-.11 1.205zm3.212.065c0-.122 0-.243-.014-.363s-.018-.238-.029-.352l-2.97 2.207a2.733 2.733 0 0 0 .2.516 1.574 1.574 0 0 0 .3.406 1.247 1.247 0 0 0 .905.357 1.279 1.279 0 0 0 .666-.177 1.5 1.5 0 0 0 .507-.527 2.839 2.839 0 0 0 .322-.867 5.7 5.7 0 0 0 .113-1.2z"/></g></svg>