<svg xmlns="http://www.w3.org/2000/svg" width="16" height="16" viewBox="0 0 16 16"><rect id="frame" width="16" height="16" fill="none"/><g fill="#3592c4"><path d="M12 2h1v12h-1z"/><path d="M9.224 6.883a2.019 2.019 0 0 1-.187.862 1.947 1.947 0 0 1-.56.7 2.746 2.746 0 0 1-.938.474 4.481 4.481 0 0 1-1.317.181c-.277 0-.525-.009-.746-.026S5.05 9.028 4.858 9v-.832c.22.039.453.07.7.091s.5.032.752.032A3.7 3.7 0 0 0 7.2 8.2a1.672 1.672 0 0 0 .606-.269 1.029 1.029 0 0 0 .341-.431 1.43 1.43 0 0 0 .106-.565.963.963 0 0 0-.127-.5 1.07 1.07 0 0 0-.361-.356 1.77 1.77 0 0 0-.554-.216 3.239 3.239 0 0 0-.706-.072h-.794v-.763h.8a1.884 1.884 0 0 0 .573-.082 1.285 1.285 0 0 0 .442-.238 1.023 1.023 0 0 0 .283-.381 1.291 1.291 0 0 0 .1-.514A.956.956 0 0 0 7.571 3a1.658 1.658 0 0 0-1-.256 4.074 4.074 0 0 0-.725.069 6.612 6.612 0 0 0-.8.209v-.814q.182-.063.387-.114a5.428 5.428 0 0 1 1.207-.158 3.615 3.615 0 0 1 .976.12 2.025 2.025 0 0 1 .7.344 1.444 1.444 0 0 1 .427.544 1.735 1.735 0 0 1 .144.719 1.61 1.61 0 0 1-.306 1 2.117 2.117 0 0 1-.84.646 1.946 1.946 0 0 1 1.01.5 1.617 1.617 0 0 1 .341.472 1.373 1.373 0 0 1 .132.602z"/></g></svg>