<svg xmlns="http://www.w3.org/2000/svg" width="16" height="16" viewBox="0 0 16 16"><rect id="frame" width="16" height="16" fill="none"/><g fill="#389fd6"><path d="M12 2h1v12h-1z"/><path d="M9.32 5.125a5.521 5.521 0 0 1-.246 1.75 2.971 2.971 0 0 1-.725 1.205 2.911 2.911 0 0 1-1.188.7A5.454 5.454 0 0 1 5.524 9h-.581v-.81h.645a4.514 4.514 0 0 0 1.189-.139 2.274 2.274 0 0 0 .834-.408 1.77 1.77 0 0 0 .509-.655 2.7 2.7 0 0 0 .219-.882l.021-.219a3.173 3.173 0 0 1-.773.317 3.574 3.574 0 0 1-.949.12 2.558 2.558 0 0 1-.927-.154A1.749 1.749 0 0 1 4.65 5.079a2.488 2.488 0 0 1-.134-.828 2.34 2.34 0 0 1 .176-.908 2.234 2.234 0 0 1 .493-.732 2.32 2.32 0 0 1 .76-.493 2.547 2.547 0 0 1 .976-.182 2.625 2.625 0 0 1 .957.171 1.861 1.861 0 0 1 .759.552 2.728 2.728 0 0 1 .5.989 5.211 5.211 0 0 1 .183 1.477zM6.878 2.7a1.5 1.5 0 0 0-.552.1 1.225 1.225 0 0 0-.437.288 1.361 1.361 0 0 0-.29.466 1.739 1.739 0 0 0-.107.635 2.021 2.021 0 0 0 .077.58 1.118 1.118 0 0 0 .24.434 1.043 1.043 0 0 0 .419.275 1.725 1.725 0 0 0 .607.1 2.321 2.321 0 0 0 .408-.038 3.164 3.164 0 0 0 .411-.1 3.207 3.207 0 0 0 .381-.149A2.471 2.471 0 0 0 8.36 5.1a5.509 5.509 0 0 0-.1-1.15 2.128 2.128 0 0 0-.293-.74 1.079 1.079 0 0 0-.467-.4 1.57 1.57 0 0 0-.622-.11z"/></g></svg>