<svg xmlns="http://www.w3.org/2000/svg" width="16" height="16" viewBox="0 0 16 16"><rect id="frame" width="16" height="16" fill="none"/><g fill-rule="evenodd"><path fill="#6E6E6E" d="M11.415 14H16v-1h-3.59l-.995 1zm1.16-3.3c-.476 0-1.003-.115-1.575-.333V13l2.35-2.363a5.25 5.25 0 0 1-.774.063zM11 7.69V2h3v5.781c-.242.26-.605.416-1 .481V3h-1v5.175a6.17 6.17 0 0 1-1-.485zM2.414 14H7v-1H3.41l-.994 1zm1.01-3.3c-.511 0-.984-.084-1.425-.218V13l2.449-2.463a3.94 3.94 0 0 1-1.024.163zM2 7.781V2h3v5.7c-.606.349-1.182.6-1.575.6-.55 0-1.099-.166-1.425-.519z"/><path fill="#389FD6" d="M7.665 6.628C6.931 7.288 4.74 9 3.425 9 1.998 9 1 8.178 1 7c0-.38.113-.715.3-1.005V4.61C.498 5.146 0 5.987 0 7c0 1.738 1.44 3 3.425 3C5.046 10 7.175 8.353 8 7.659c.159-.134.287-.244.335-.287A15.54 15.54 0 0 1 10.299 5.9V4.74c-.961.53-1.836 1.212-2.3 1.6-.157.135-.285.245-.333.288M14.7 4.61v1.384c.188.29.3.626.3 1.005 0 1.178-.998 2-2.425 2-.917 0-2.253-.832-3.232-1.56-.197.157-.383.31-.54.453l-.246.212C9.575 8.889 11.243 10 12.575 10 14.56 10 16 8.738 16 7c0-1.013-.5-1.854-1.3-2.39M6.658 6.56a14.49 14.49 0 0 0-.957-.656V4.738a14.18 14.18 0 0 1 1.742 1.158c-.102.086-.19.163-.245.21a12.24 12.24 0 0 1-.54.454"/></g></svg>