<svg xmlns="http://www.w3.org/2000/svg" width="16" height="16" viewBox="0 0 16 16"><rect id="frame" width="16" height="16" fill="none"/><g fill-rule="evenodd"><path fill="#6E6E6E" d="M3 6.338V13h10v-1h1v2H2V7.004l1-.666zm4.001 4.661V12H4v-1.001h3.001zM8-.001l3.438 2.292a4.016 4.016 0 0 0-1.364.895L8 1.803.832 6.582 0 5.332 8 0z"/><path fill="#DB5860" d="M11.125 6v-.333C11.125 4.746 11.964 4 13 4s1.875.746 1.875 1.667V6h-3.75zm1.375 4h1V8h-1v2zm.5-7c-1.657 0-3 1.193-3 2.667V9.4c0 .883.806 1.6 1.8 1.6h2.4c.994 0 1.8-.717 1.8-1.6V5.667C16 4.193 14.657 3 13 3z"/></g></svg>