<svg xmlns="http://www.w3.org/2000/svg" width="16" height="16" viewBox="0 0 16 16"><rect id="frame" width="16" height="16" fill="none"/><g fill-rule="evenodd"><path fill="#AFB1B3" d="M4 12h3.001v-1.001H4z"/><path fill="#AFB1B3" d="M13 12v1H3V6.338l-1 .666V14h12v-2zm-2.926-8.814c.38-.378.84-.69 1.364-.894L8 0 0 5.332l.832 1.25L8 1.801l2.074 1.384z"/><path fill="#C75450" d="M11.125 6v-.333C11.125 4.746 11.964 4 13 4s1.875.746 1.875 1.667V6h-3.75zm1.375 4h1V8h-1v2zm.5-7c-1.657 0-3 1.193-3 2.667V9.4c0 .883.806 1.6 1.8 1.6h2.4c.994 0 1.8-.717 1.8-1.6V5.667C16 4.193 14.657 3 13 3z"/></g></svg>