<svg xmlns="http://www.w3.org/2000/svg" xmlns:xlink="http://www.w3.org/1999/xlink" width="16" height="16" viewBox="0 0 16 16"><rect id="frame" width="16" height="16" fill="none"/><defs><path id="a" d="M4 1h8v14H4z"/></defs><g fill="none" fill-rule="evenodd"><path fill="#9AA7B0" fill-opacity=".8" d="M3 3.106A6.974 6.974 0 0 0 1 8c0 1.905.764 3.63 2 4.894v-9.79zm10 0v9.789A6.974 6.974 0 0 0 15 8a6.972 6.972 0 0 0-2-4.895"/><mask id="b" fill="#fff"><use xlink:href="#a"/></mask><g fill="#40B6E0" fill-opacity=".6" mask="url(#b)"><path d="M15 8A7 7 0 1 1 1 8a7 7 0 0 1 14 0"/></g><g fill="#231F20" fill-opacity=".7" mask="url(#b)"><path d="M7.983 6.2L9.1 9H6.896l1.087-2.8zM9.815 11H11L8.446 5h-.893L5 11h1.151l.414-1h2.841l.41 1z"/></g></g></svg>