<svg xmlns="http://www.w3.org/2000/svg" width="16" height="16" viewBox="0 0 16 16">
  <g fill="none" fill-rule="evenodd">
    <polygon fill="#9AA7B0" fill-opacity=".8" points="7 1 3 5 7 5"/>
    <path fill="#9AA7B0" fill-opacity=".8" d="M8,1 L8,6 L3,6 L3,8.033 C3.164,8.014 3.33,8 3.5,8 C5.981,8 8,10.019 8,12.5 C8,13.431 7.707,14.286 7.217,15 L13,15 L13,1 L8,1 Z"/>
    <path fill="#F26522" fill-opacity=".7" d="M7,12.5 C7,14.433 5.433,16 3.5,16 C1.567,16 0,14.433 0,12.5 C0,10.567 1.567,9 3.5,9 C5.433,9 7,10.567 7,12.5"/>
    <path fill="#231F20" fill-opacity=".7" d="M2.48616667,1 L3.41666667,3.33333333 L1.58033333,3.33333333 L2.48616667,1 Z M4.01283333,4.99991667 L5.00033333,4.99991667 L2.872,-8.33333333e-05 L2.12783333,-8.33333333e-05 L0.000333333333,4.99991667 L0.9595,4.99991667 L1.3045,4.16658333 L3.672,4.16658333 L4.01283333,4.99991667 Z" transform="translate(1 10)"/>
  </g>
</svg>
