<svg width="16" height="16" viewBox="0 0 16 16" fill="none" xmlns="http://www.w3.org/2000/svg"><rect id="frame" width="16" height="16" fill="none"/><path d="M14.5 5.19h.5v-.5h-.5v.5zm0 3.724v.5h.5v-.5h-.5zM10.776 5.19h-.5v.5h.5v-.5zm0-.715l-.25-.433-.25.145v.288h.5zm-1.862 0h.5v-.288l-.25-.145-.25.433zm0 .715v.5h.5v-.5h-.5zm-3.724 0v-.5h-.5v.5h.5zm0 3.81v.5h.5V9h-.5zm-.668 0l-.446.227.14.273h.306V9zm-.2 2v-.5h-.241l-.15.19.392.31zm.868 0h.5v-.5h-.5v.5zm0 3.5h-.5v.5h.5v-.5zm9.31 0v.5h.5v-.5h-.5zm0-3.724h.5v-.5h-.5v.5zm-.55 0v-.5h-.287l-.145.25.433.25zm0-1.862l-.432.25.144.25h.289v-.5zM14 5.19v3.724h1V5.19h-1zm-3.224.5H14.5v-1h-3.724v1zm-.5-1.215v.715h1v-.715h-1zm.93-1.613c0 .504-.272.944-.68 1.18l.5.866a2.361 2.361 0 0 0 1.18-2.046h-1zM9.846 1.5c.752 0 1.362.61 1.362 1.362h1A2.362 2.362 0 0 0 9.845.5v1zM8.483 2.862c0-.752.61-1.362 1.362-1.362v-1a2.362 2.362 0 0 0-2.362 2.362h1zm.681 1.18a1.361 1.361 0 0 1-.681-1.18h-1c0 .875.476 1.638 1.18 2.046l.501-.866zm.25 1.148v-.715h-1v.715h1zm-4.224.5h3.724v-1H5.19v1zM5.69 9V5.19h-1V9h1zm-1.168.5h.668v-1h-.668v1zm-1.66-1.017c.53 0 .989.301 1.214.744l.891-.454a2.362 2.362 0 0 0-2.105-1.29v1zM1.5 9.845c0-.752.61-1.362 1.362-1.362v-1A2.362 2.362 0 0 0 .5 9.845h1zm1.362 1.362c-.752 0-1.362-.61-1.362-1.362h-1a2.362 2.362 0 0 0 2.362 2.362v-1zm1.069-.517c-.25.316-.636.517-1.069.517v1c.751 0 1.42-.351 1.853-.897l-.784-.62zm1.259-.19h-.867v1h.867v-1zm.5 4V11h-1v3.5h1zm8.81-.5H5.19v1h9.31v-1zm-.5-3.224V14.5h1v-3.724h-1zm.5-.5h-.55v1h.55v-1zm-2.162 1.93c.875 0 1.638-.475 2.046-1.18l-.866-.5a1.361 1.361 0 0 1-1.18.68v1zM9.976 9.846a2.362 2.362 0 0 0 2.362 2.362v-1c-.752 0-1.362-.61-1.362-1.362h-1zm2.362-2.362a2.362 2.362 0 0 0-2.362 2.362h1c0-.752.61-1.362 1.362-1.362v-1zm2.046 1.18a2.361 2.361 0 0 0-2.046-1.18v1c.504 0 .944.273 1.18.681l.866-.5zm-.433.75h.549v-1h-.55v1z" fill="#40B6E0" fill-opacity=".6"/></svg>