<svg width="16" height="16" viewBox="0 0 16 16" fill="none" xmlns="http://www.w3.org/2000/svg"><rect id="frame" width="16" height="16" fill="none"/><path fill-rule="evenodd" clip-rule="evenodd" d="M5.273 8.691a1.09 1.09 0 1 1-1.091 0V7.455h1.09V8.69zm1.245.945a1.79 1.79 0 1 1-3.211-1.09H2V14h5.455V8.545H6.148c.232.302.37.68.37 1.091z" fill="#40B6E0" fill-opacity=".6"/><path fill-rule="evenodd" clip-rule="evenodd" d="M14 2v5.455h-1.307a1.79 1.79 0 1 0-2.84 0H8.544V2H14zm-2.182 5.309a1.09 1.09 0 1 0-1.09 0v1.236h1.09V7.31z" fill="#40B6E0" fill-opacity=".6"/><path fill-rule="evenodd" clip-rule="evenodd" d="M2 2h5.455v1.307a1.79 1.79 0 1 0 0 2.84v1.308H2V2zm5.309 2.182a1.09 1.09 0 1 0 0 1.09h1.236v-1.09H7.31z" fill="#40B6E0" fill-opacity=".6"/><path fill-rule="evenodd" clip-rule="evenodd" d="M14 8.545V14H8.545v-1.307a1.79 1.79 0 1 0 0-2.84V8.544H14zm-4.364 3.819a1.09 1.09 0 1 0-.945-1.637H7.455v1.091H8.69c.189.326.542.546.945.546z" fill="#40B6E0" fill-opacity=".6"/></svg>