<svg xmlns="http://www.w3.org/2000/svg" width="16" height="16" viewBox="0 0 16 16">
  <g fill="none" fill-rule="evenodd">
    <rect width="6" height="6" x="5" y="5" fill="#40B6E0" fill-opacity=".6"/>
    <path fill="#9AA7B0" fill-opacity=".8" d="M3.08798852,9.00092723 C3.58019186,11.2451756 5.57989545,12.9248887 7.97191821,12.9248887 C9.85467161,12.9248887 11.4943749,11.8842706 12.3472399,10.346821 L11,9 L15,9 L15,13 L13.4871326,11.485878 C12.3335941,13.2979144 10.3071596,14.5 7.999964,14.5 C4.75051198,14.5 2.05797408,12.1155575 1.57658817,9.00090994 L3.08798852,9.00092723 Z M7.999964,1.5 C11.2497644,1.5 13.9425313,3.8849584 14.4234946,7.00009321 L12.8865716,7.00015315 C12.4528135,4.68053504 10.4173896,2.92491855 7.97191821,2.92491855 C6.06466305,2.92491855 4.40682515,3.99279765 3.56370046,5.56326158 L5,7 L1,7 L1,3 L2.51369395,4.51271341 C3.66738601,2.70146391 5.69336738,1.5 7.999964,1.5 Z"/>
  </g>
</svg>
