<svg width="16" height="16" viewBox="0 0 16 16" fill="none" xmlns="http://www.w3.org/2000/svg"><rect id="frame" width="16" height="16" fill="none"/><path fill-rule="evenodd" clip-rule="evenodd" d="M2 9.696C2 9.312 2.448 9 3 9s1 .312 1 .696v1.733H2V9.696zM1 11.43V9.714C1 8.768 1.895 8 3 8s2 .768 2 1.714v1.715h1V16H0v-4.571h1z" fill="#F26522" fill-opacity=".7"/><path fill-rule="evenodd" clip-rule="evenodd" d="M5.089 6.706L3.957 5.574 2.531 7H3c.633 0 1.138.096 1.539.256l.55-.55zM6.776 10.5H6v-1c0-.213-.023-.448-.082-.687l3.8-3.802 1.274 1.273L6.776 10.5zM7 13.036v1.737a4.555 4.555 0 0 0 1.809-1.113l1.617-1.617-1.132-1.132-1.617 1.617a2.971 2.971 0 0 1-.677.508zM7.191 2.34L5.574 3.957l1.132 1.132 1.617-1.617a2.973 2.973 0 1 1 4.205 4.205l-1.617 1.617 1.132 1.132 1.617-1.617a4.574 4.574 0 1 0-6.469-6.47z" fill="#9AA7B0"/></svg>