<svg width="16" height="16" viewBox="0 0 16 16" fill="none" xmlns="http://www.w3.org/2000/svg"><rect id="frame" width="16" height="16" fill="none"/><path fill-rule="evenodd" clip-rule="evenodd" d="M11.529 13.759c-.008 0-.014-.008-.023-.008h-.012c-.009 0-.015.007-.023.008a2.26 2.26 0 0 1 .029-4.52 2.26 2.26 0 1 1 .029 4.52m3.923-2.677l-.776.034a3.18 3.18 0 0 0-.657-1.59l.57-.524c.16-.16.257-.519.098-.68l-.01-.009c-.16-.16-.519-.062-.678.098l-.524.57a3.18 3.18 0 0 0-1.59-.656l.033-.776c0-.226-.186-.549-.412-.549h-.012c-.226 0-.412.323-.412.549l.034.776a3.18 3.18 0 0 0-1.59.656L9 8.411c-.16-.16-.518-.257-.679-.098l-.009.01c-.16.16-.063.52.098.679l.57.523c-.353.45-.585.993-.656 1.591l-.776-.034c-.226 0-.549.186-.549.412v.012c0 .227.323.412.549.412l.776-.034c.071.598.303 1.14.656 1.591l-.57.524c-.16.16-.257.519-.098.68l.01.008c.16.16.519.063.678-.098l.524-.57c.45.353.993.585 1.59.657l-.033.776c0 .225.186.548.412.548h.012c.226 0 .412-.323.412-.548l-.034-.776a3.18 3.18 0 0 0 1.59-.657l.525.57c.16.16.518.257.679.098l.009-.009c.16-.16.063-.52-.098-.68l-.57-.522c.353-.452.585-.994.657-1.592l.776.034c.225 0 .548-.185.548-.412v-.012c0-.226-.323-.412-.548-.412" fill="#297FA5"/><path fill-rule="evenodd" clip-rule="evenodd" d="M14 5v1.6c.358.183.693.404 1 .657V2H1v5h1V5h3v2H3c1.5 0 3 .5 3 3V8h1.257c.314-.38.677-.716 1.08-1H6V5h4v1.207a5.48 5.48 0 0 1 1-.185V5h3z" fill="#9AA7B0"/><path fill-rule="evenodd" clip-rule="evenodd" d="M2 9.696C2 9.312 2.448 9 3 9s1 .312 1 .696v1.733H2V9.696zM1 11.43V9.714C1 8.768 1.895 8 3 8s2 .768 2 1.714v1.715h1V16H0v-4.571h1z" fill="#F26522" fill-opacity=".7"/></svg>