<svg xmlns="http://www.w3.org/2000/svg" width="16" height="16" viewBox="0 0 16 16">
  <g fill="none" fill-rule="evenodd" transform="translate(1 1)">
    <path fill="#297FA5" d="M10.5289286,12.759 C10.5205714,12.7583571 10.5154286,12.7512857 10.5064286,12.7512857 L10.4935714,12.7512857 C10.4852143,12.7512857 10.4794286,12.7583571 10.4710714,12.759 C9.2355,12.7435714 8.23842857,11.7394286 8.23842857,10.5 C8.23842857,9.25092857 9.25092857,8.23842857 10.5,8.23842857 C11.7490714,8.23842857 12.7622143,9.25092857 12.7622143,10.5 C12.7622143,11.7394286 11.7645,12.7435714 10.5289286,12.759 M14.4516429,10.0821429 L13.6757143,10.1162143 C13.6037143,9.51835714 13.3722857,8.97578571 13.0187143,8.52514286 L13.5889286,8.00185714 C13.7496429,7.84242857 13.8460714,7.48307143 13.6866429,7.32235714 L13.6776429,7.31335714 C13.5169286,7.15392857 13.1582143,7.251 12.9987857,7.41107143 L12.4748571,7.98128571 C12.0242143,7.62835714 11.4816429,7.39628571 10.8844286,7.32492857 L10.9178571,6.549 C10.9178571,6.32271429 10.7320714,6 10.5064286,6 L10.4935714,6 C10.2679286,6 10.0821429,6.32271429 10.0821429,6.549 L10.1155714,7.32492857 C9.51835714,7.39628571 8.97578571,7.62835714 8.52514286,7.98128571 L8.00121429,7.41107143 C7.84178571,7.251 7.48307143,7.15392857 7.32235714,7.31335714 L7.31335714,7.32235714 C7.15392857,7.48307143 7.25035714,7.84242857 7.41107143,8.00185714 L7.98128571,8.52514286 C7.62771429,8.97578571 7.39628571,9.51835714 7.32492857,10.1162143 L6.549,10.0821429 C6.32271429,10.0821429 6,10.2679286 6,10.4942143 L6,10.5064286 C6,10.7327143 6.32271429,10.9185 6.549,10.9185 L7.32492857,10.8844286 C7.39628571,11.4822857 7.62771429,12.0242143 7.98128571,12.4755 L7.41107143,12.9987857 C7.25035714,13.1582143 7.15392857,13.5175714 7.31335714,13.6782857 L7.32235714,13.6866429 C7.48307143,13.8460714 7.84178571,13.7496429 8.00121429,13.5889286 L8.52514286,13.0187143 C8.97578571,13.3722857 9.51835714,13.6037143 10.1155714,13.6757143 L10.0821429,14.4516429 C10.0821429,14.6772857 10.2679286,15 10.4935714,15 L10.5064286,15 C10.7320714,15 10.9178571,14.6772857 10.9178571,14.4516429 L10.8844286,13.6757143 C11.4816429,13.6037143 12.0242143,13.3722857 12.4748571,13.0187143 L12.9987857,13.5889286 C13.1582143,13.7496429 13.5169286,13.8460714 13.6776429,13.6866429 L13.6866429,13.6782857 C13.8460714,13.5175714 13.7496429,13.1582143 13.5889286,12.9987857 L13.0187143,12.4755 C13.3722857,12.0242143 13.6037143,11.4822857 13.6757143,10.8844286 L14.4516429,10.9185 C14.6772857,10.9185 15,10.7327143 15,10.5064286 L15,10.4942143 C15,10.2679286 14.6772857,10.0821429 14.4516429,10.0821429"/>
    <path fill="#9AA7B0" d="M2.5118 8.8953C2.5118 7.7473 2.0778 7.2769.8766 7.2769L.5 7.2769.5 5.9217.8766 5.9217C2.0778 5.9217 2.5118 5.4359 2.5118 4.2879 2.5118 4.0373 2.4824 3.4507 2.4824 3.2281 2.4824 1.7273 3.1348.7851 5.771.3007L6.0734 1.4767C4.336 1.9639 4.105 2.4189 4.105 3.4941 4.105 3.7895 4.1344 4.2739 4.1344 4.5833 4.1344 5.7313 3.5842 6.2899 2.628 6.6007 3.5982 6.9227 4.1344 7.4687 4.1344 8.6167 4.1344 8.9261 4.105 9.4105 4.105 9.7059 4.105 10.7797 4.336 11.2361 6.0734 11.7219L5.771 12.9007C3.1348 12.4135 2.4824 11.4713 2.4824 9.9551 2.4824 9.7353 2.5118 9.1459 2.5118 8.8953zM8.2324.3007C10.8686.7851 11.521 1.7273 11.521 3.2281 11.521 3.4507 11.4916 4.0373 11.4916 4.2879 11.4916 4.61449829 11.5267264 4.88750048 11.6046515 5.11096833 11.2476229 5.03818732 10.878271 5 10.5 5 10.2979758 5 10.0984956 5.01089231 9.90211469 5.03212169 9.87993444 4.89526198 9.869 4.74513773 9.869 4.5833 9.869 4.2739 9.8984 3.7895 9.8984 3.4941 9.8984 2.4189 9.6674 1.9639 7.93 1.4767L7.93 1.4767z"/>
  </g>
</svg>
