<svg xmlns="http://www.w3.org/2000/svg" width="16" height="16" viewBox="0 0 16 16">
  <g fill="none" fill-rule="evenodd">
    <path fill="#9AA7B0" d="M8.416 13.8965C8.416 13.7395 8.437 13.3185 8.437 13.1395 8.437 12.3195 8.127 11.9835 7.269 11.9835L7 11.9835 7 11.0155 7.269 11.0155C8.127 11.0155 8.437 10.6685 8.437 9.8485 8.437 9.6695 8.416 9.2505 8.416 9.0915 8.416 8.0195 8.882 7.3465 10.765 7.0005L10.981 7.8405C9.74 8.1885 9.575 8.5135 9.575 9.2815 9.575 9.4925 9.596 9.8385 9.596 10.0595 9.596 10.8795 9.203 11.2785 8.52 11.5005 9.213 11.7305 9.596 12.1205 9.596 12.9405 9.596 13.1615 9.575 13.5075 9.575 13.7185 9.575 14.4855 9.74 14.8115 10.981 15.1585L10.765 16.0005C8.882 15.6525 8.416 14.9795 8.416 13.8965M12.0186 15.1582C13.2596 14.8112 13.4246 14.4852 13.4246 13.7192 13.4246 13.5082 13.4046 13.1612 13.4046 12.9402 13.4046 12.1202 13.7966 11.7202 14.4796 11.5002 13.7876 11.2682 13.4046 10.8802 13.4046 10.0592 13.4046 9.8392 13.4246 9.4922 13.4246 9.2812 13.4246 8.5132 13.2596 8.1882 12.0186 7.8412L12.2356 7.0002C14.1186 7.3462 14.5836 8.0192 14.5836 9.0922 14.5836 9.2502 14.5626 9.6702 14.5626 9.8482 14.5626 10.6692 14.8726 11.0152 15.7316 11.0152L15.9996 11.0152 15.9996 11.9832 15.7316 11.9832C14.8726 11.9832 14.5626 12.3192 14.5626 13.1392 14.5626 13.3182 14.5836 13.7392 14.5836 13.8962 14.5836 14.9792 14.1186 15.6522 12.2356 16.0002L12.0186 15.1582z"/>
    <path fill="#FFF" fill-rule="nonzero" d="M7.55746729,14.5873287 L5.30846231,14.5878197 C5.02567217,14.5878696 4.75824189,14.4602226 4.58184724,14.2409993 L1.21786676,10.0579576 C1.19901424,10.0344893 1.18132831,10.010122 1.16487214,9.9849428 C1.02821006,9.77580158 0.982752939,9.52068943 1.03886272,9.27775908 L2.23771871,4.06132234 C2.30067733,3.78784976 2.48575906,3.55768958 2.74057873,3.43598587 L7.60136272,1.11423284 C7.7126534,1.06084781 7.83356389,1.03001964 7.95701548,1.02355316 C8.11259984,1.01561632 8.26769979,1.04659582 8.40805855,1.11364401 L13.2688425,3.43539704 C13.5235218,3.55697701 13.7085813,3.78689277 13.7717026,4.06014468 L14.3683312,6.65265545 C14.2388021,6.54942234 14.1005368,6.45668571 13.9548229,6.37573299 L13.4672779,4.25799125 C13.4076358,3.99893498 13.2323058,3.78091031 12.9909152,3.66562921 L8.38627187,1.46694145 C8.25342577,1.40347331 8.10663476,1.37411511 7.95937079,1.38156124 C7.84229492,1.38745894 7.72758541,1.41648665 7.62197174,1.46694145 L3.01791723,3.66680686 C2.77652663,3.78208797 2.60119665,4.00011264 2.54155451,4.25916891 L1.40570323,9.20062248 C1.35271312,9.43064052 1.39582994,9.6721372 1.52523553,9.87012113 C1.54076654,9.89407745 1.55747,9.91726578 1.575286,9.93960296 L4.76202894,13.9018338 C4.92912373,14.1095219 5.18247128,14.2304526 5.45037012,14.2304004 L7.50867974,14.2299261 C7.51787242,14.3512177 7.53427755,14.4704945 7.55746729,14.5873287 Z"/>
    <g transform="translate(1 1)">
      <path fill="#326CE5" d="M12.9550082,5.375836 C12.5240643,5.1363813 12.0279589,5 11.5,5 L9.5,5 C7.84314575,5 6.5,6.34314575 6.5,8 L6.5,9 L5,9 L5,12 L6.5,12 L6.5,13 C6.5,13.0772942 6.50292313,13.1539057 6.50866488,13.22973 L4.45048664,13.2302043 C4.18258779,13.2302564 3.92924024,13.1093258 3.76214545,12.9016376 L0.575402329,8.93940681 C0.557586329,8.91706963 0.540882871,8.8938813 0.525351858,8.86992498 C0.395946264,8.67194105 0.352829442,8.43044437 0.405819556,8.20042633 L1.54167083,3.25897276 C1.60131297,2.99991649 1.77664295,2.78189182 2.01803355,2.66661071 L6.62208825,0.466745303 C6.72770193,0.416290496 6.84241143,0.387262785 6.95948731,0.381365087 C7.10675128,0.373918957 7.25354228,0.403277158 7.38638839,0.466745303 L11.9910317,2.66543306 C12.2324223,2.78071416 12.4077523,2.99873883 12.4673944,3.2577951 L12.9550082,5.375836 Z"/>
      <path fill="#FFF" fill-rule="nonzero" d="M5,9.99217274 C4.35643881,9.55500614 3.85211229,8.90986943 3.59990844,8.12794703 L3.47978731,8.14855604 C3.44758279,8.13053147 3.38284117,8.08780452 3.32139229,8.09261728 C3.17426472,8.1139052 3.0232458,8.16853817 2.84090777,8.23393626 C2.75615293,8.2664074 2.68787514,8.30349572 2.59359956,8.32873774 C2.57367396,8.334073 2.54512903,8.33963607 2.52235124,8.34463612 C2.5205205,8.34508458 2.51889646,8.3459796 2.51705178,8.34640167 C2.5158223,8.34667489 2.51410952,8.34672011 2.51292997,8.34698956 C2.34953019,8.38221133 2.19087646,8.29273871 2.15727721,8.14561001 C2.12368588,7.9985158 2.22802828,7.84922248 2.39045353,7.80997744 C2.39166303,7.80970234 2.39331665,7.80909184 2.39457533,7.80879978 C2.39537802,7.8086189 2.39612795,7.80838148 2.39693065,7.8082119 C2.42002273,7.80279505 2.44942914,7.79513386 2.47053428,7.79113585 C2.56642524,7.77297071 2.64446855,7.777459 2.73491853,7.76993801 C2.92757417,7.74974051 3.08715363,7.73334035 3.22894612,7.6886796 C3.27390233,7.67023257 3.31688421,7.60842662 3.34730171,7.56914729 L3.46271221,7.53558404 C3.33339291,6.6400355 3.5522195,5.76111098 4.02504303,5.0495477 L3.93671867,4.9706446 C3.93108626,4.9362649 3.92368944,4.85677297 3.88136874,4.81166075 C3.77299347,4.70990374 3.63635931,4.62550711 3.4715437,4.52372334 C3.39331328,4.47770423 3.3215924,4.44802913 3.24307802,4.39005914 C3.22637808,4.37772915 3.20412995,4.35885817 3.1859616,4.34413047 C3.18461003,4.34308528 3.18318139,4.3422547 3.1818398,4.34118633 C3.04962421,4.23577273 3.01924836,4.05389201 3.11412446,3.93489427 C3.16749234,3.86795806 3.24904376,3.83483685 3.3337577,3.83773747 C3.39964626,3.83999349 3.46787167,3.86404503 3.52571598,3.91016345 C3.54450989,3.92503397 3.57015194,3.94458272 3.5869542,3.95903626 C3.66094279,4.02268143 3.70603937,4.08555556 3.76831355,4.15158336 C3.90422246,4.28961564 4.01654203,4.40420272 4.1398647,4.48721594 C4.20463194,4.52493943 4.25435813,4.50975857 4.30355918,4.50311432 C4.31939199,4.51481289 4.3726374,4.55301066 4.40307223,4.57377381 C4.87210841,4.07612977 5.4881738,3.70755311 6.20371153,3.54508942 C6.36999969,3.50733351 6.53648343,3.48224336 6.70186093,3.46854164 L6.70833805,3.35195349 C6.74502672,3.31643362 6.78618238,3.26533249 6.79784007,3.20945685 C6.80982712,3.06128127 6.79040254,2.90186027 6.76722096,2.70954097 C6.75442499,2.61968546 6.73316534,2.54504097 6.7295359,2.44751203 C6.72878973,2.42750805 6.72989956,2.39982837 6.73012378,2.37685254 C6.73006725,2.37427281 6.72953608,2.37179295 6.7295359,2.36919777 C6.72951781,2.20010339 6.85291754,2.06302229 7.0051079,2.06300684 C7.15729921,2.06299139 7.28066276,2.20010339 7.28068085,2.36919777 C7.28076941,2.39316999 7.28209404,2.42534135 7.28126874,2.44751203 C7.27763929,2.54504097 7.25637964,2.61968546 7.24358367,2.70954097 C7.22040209,2.90186027 7.20038868,3.06128127 7.21237573,3.20945685 C7.22326351,3.28361427 7.26659587,3.31291836 7.30246658,3.34724285 C7.30328246,3.36721744 7.30649304,3.43358931 7.3089437,3.47030813 C8.18514755,3.54814361 8.99887843,3.94882794 9.59654088,4.57554124 L9.70135245,4.50075995 C9.73687232,4.50285203 9.81514324,4.51361639 9.86858085,4.48250624 C9.99189918,4.39948643 10.1042304,4.28432428 10.240132,4.14628485 C10.3024028,4.08025384 10.348095,4.01738705 10.4220802,3.95373774 C10.4389719,3.93920581 10.464503,3.91976654 10.4833184,3.90486493 C10.6155059,3.79941591 10.7994145,3.8106225 10.8943211,3.92959575 C10.9892277,4.04856899 10.9587933,4.23043879 10.8266057,4.33588781 C10.8079545,4.35088948 10.7837107,4.37165074 10.7659564,4.38476062 C10.687445,4.44273475 10.6151298,4.47240156 10.5369018,4.51842482 C10.3720917,4.62021725 10.2354466,4.70459957 10.1270768,4.80636223 C10.0758892,4.86111335 10.0797285,4.91295594 10.0752599,4.96240194 C10.0678887,4.96917375 10.0515374,4.98377983 10.0333795,5 L9.5,5 C9.30057847,5 9.10570161,5.01945802 8.91716441,5.05657906 L9.00182728,4.99655308 C8.55752061,4.56145682 7.97770693,4.27756584 7.35075057,4.20045618 L7.43259781,5.64367812 L7.43377546,5.644266 C7.43579185,5.69182293 7.4519281,5.73894934 7.48258596,5.77960178 C7.23166236,6.00772119 7.01956277,6.27779307 6.85736874,6.57873585 L6.78311934,6.57873585 L6.50695851,6.92261203 L6.58812233,7.27528818 C6.53055128,7.50736882 6.5,7.75011659 6.5,8 L6.5,8.99896904 L6.4994298,9 L5.64885222,9 L6.01823038,8.10733612 L6.01410857,8.10203666 C6.03376604,8.05636708 6.0395637,8.00465997 6.02765164,7.95247408 C6.00220707,7.84100167 5.90398322,7.76499561 5.79447533,7.76345995 C5.77883132,7.76324137 5.76269288,7.76465437 5.74678018,7.76758269 L5.74442486,7.76463855 L4.32181382,8.00605847 C4.46986839,8.4156923 4.704723,8.77423225 5,9.06570845 L5,9.99217274 Z M5,10.7003902 L5,11.5440327 C4.94909092,11.5522148 4.89659686,11.5458333 4.84822607,11.5225466 C4.71217565,11.457049 4.66022303,11.2825137 4.73104909,11.1309753 C4.74157867,11.1091522 4.75547089,11.0774322 4.76637883,11.0567828 C4.81196306,10.9704861 4.86366093,10.9119671 4.91417493,10.8365608 C4.94402189,10.7898654 4.97282867,10.7445464 5,10.7003902 Z M6.66005407,4.20045618 C6.56237269,4.21229682 6.46432238,4.22882304 6.36622836,4.25109548 C5.82922397,4.37302285 5.36326214,4.63774608 4.99896725,4.99596425 L6.18428018,5.83622334 L6.18663549,5.83504568 C6.22678534,5.86437332 6.27619291,5.88156318 6.32972096,5.88156318 C6.46039466,5.88156318 6.56682895,5.77829857 6.57231853,5.64897569 L6.57820682,5.64603155 L6.66005407,4.20045618 Z M4.56912203,5.53592051 C4.24792378,6.05917965 4.09575471,6.6867955 4.16636295,7.33243801 L5.55364424,6.93203424 L5.5548219,6.92732361 C5.60278405,6.91421844 5.64745743,6.88614891 5.68083132,6.84429871 C5.76230416,6.74213338 5.74789886,6.59476651 5.65021221,6.5098438 L5.65138987,6.5039555 L4.56912203,5.53592051 Z"/>
    </g>
    <path fill="#326CE5" d="M10.5957,12.9404 C10.5957,13.0624 10.5847,13.9504 10.5907,13.9754 C10.5907,13.9744 10.5927,13.9734 10.5927,13.9734 C10.6227,13.9734 11.4997,14.2654 11.4997,14.2654 C11.4997,14.2654 12.3717,13.9764 12.4247,13.9404 C12.4177,13.9274 12.4047,13.0624 12.4047,12.9404 C12.4047,12.4914 12.4937,11.9654 12.8087,11.5034 C12.5397,11.1134 12.4047,10.6304 12.4047,10.0594 C12.4047,9.9374 12.4147,9.0494 12.4087,9.0244 C12.4087,9.0254 12.4077,9.0254 12.4077,9.0254 C12.3767,9.0254 11.4997,8.7344 11.4997,8.7344 C11.4997,8.7344 10.6277,9.0234 10.5747,9.0584 C10.5817,9.0724 10.5957,9.9374 10.5957,10.0594 C10.5957,10.5084 10.5057,11.0334 10.1917,11.4964 C10.4597,11.8854 10.5957,12.3684 10.5957,12.9404"/>
  </g>
</svg>
