<svg xmlns="http://www.w3.org/2000/svg" width="16" height="16" viewBox="0 0 16 16"><rect id="frame" width="16" height="16" fill="none"/><g fill="none" fill-rule="evenodd"><path fill="#326CE5" d="M7.96 1.381a.886.886 0 0 0-.338.086l-4.604 2.2a.875.875 0 0 0-.476.592L1.406 9.2a.867.867 0 0 0 .17.74l3.186 3.962c.167.207.42.328.688.328l5.11-.001c.269 0 .522-.12.69-.328l3.185-3.963a.868.868 0 0 0 .17-.739l-1.138-4.941a.875.875 0 0 0-.476-.593L8.386 1.467a.887.887 0 0 0-.427-.086z"/><path fill="#FFF" fill-rule="nonzero" d="M8.005 3.063c-.152 0-.275.137-.275.306V3.447c.003.098.024.173.037.263.023.192.043.351.03.5a.3.3 0 0 1-.089.142l-.006.117a3.545 3.545 0 0 0-2.299 1.105 4.62 4.62 0 0 1-.1-.07c-.049.006-.098.02-.163-.017-.123-.083-.236-.197-.372-.335-.062-.066-.107-.13-.181-.193l-.061-.049a.328.328 0 0 0-.192-.072.266.266 0 0 0-.22.097c-.095.119-.064.3.068.406l.004.003c.018.015.04.034.057.046.079.058.15.088.229.134.164.102.301.186.41.288.042.045.05.124.055.159l.088.079a3.566 3.566 0 0 0-.562 2.486l-.116.033c-.03.04-.073.101-.118.12-.142.044-.301.06-.494.08-.09.008-.169.004-.264.022-.022.004-.051.012-.074.017h-.002l-.005.002c-.162.04-.266.189-.233.336.034.147.193.236.356.201h.004l.005-.002c.023-.005.052-.01.072-.016.094-.026.162-.063.247-.095.182-.065.333-.12.48-.141.062-.005.127.038.159.056l.12-.021c.276.857.856 1.55 1.59 1.984l-.05.12c.017.047.037.11.024.156a2.693 2.693 0 0 1-.25.449c-.05.075-.102.133-.148.22l-.035.074c-.07.152-.019.326.117.392.137.065.307-.004.38-.156h.001v-.001c.01-.022.026-.05.034-.07.04-.09.052-.166.08-.253.073-.183.113-.375.213-.495.028-.033.072-.045.119-.058l.062-.113a3.56 3.56 0 0 0 2.544.007l.058.106c.048.015.1.023.141.085.075.128.127.28.19.464.027.086.04.163.08.252.008.02.023.05.033.07.074.153.244.223.381.157.136-.066.188-.24.118-.392l-.036-.074c-.046-.086-.098-.144-.148-.22a2.575 2.575 0 0 1-.245-.437c-.022-.072.004-.116.022-.163-.01-.012-.033-.08-.046-.11a3.586 3.586 0 0 0 1.588-2l.118.021c.042-.027.08-.063.154-.057.148.021.299.076.48.141.086.033.154.07.248.096l.071.015.006.002h.004c.163.036.322-.054.356-.2.033-.148-.071-.297-.234-.336l-.08-.02c-.096-.018-.174-.013-.264-.02-.193-.02-.352-.037-.494-.082-.058-.022-.1-.091-.12-.12l-.11-.032a3.567 3.567 0 0 0-.574-2.48l.097-.088c.005-.049 0-.1.052-.156.108-.101.245-.186.41-.288.078-.046.15-.075.229-.133.018-.013.042-.034.06-.05.133-.105.163-.286.068-.405-.095-.12-.278-.13-.41-.025-.02.015-.045.034-.062.049-.074.063-.12.126-.182.192-.136.138-.248.253-.371.337-.054.03-.132.02-.168.018l-.104.075A3.612 3.612 0 0 0 8.309 4.47a6.657 6.657 0 0 1-.007-.123c-.035-.034-.079-.063-.09-.138-.012-.148.008-.307.032-.5.012-.09.034-.164.037-.261v-.079c0-.169-.124-.306-.276-.306zM7.66 5.2l-.082 1.446-.006.003a.243.243 0 0 1-.385.186l-.003.001L6 5.996A2.839 2.839 0 0 1 7.66 5.2zm.69 0a2.863 2.863 0 0 1 1.652.797l-1.178.835-.004-.002a.243.243 0 0 1-.386-.186h-.001L8.35 5.2zM5.57 6.536l1.081.968v.006a.243.243 0 0 1-.096.417l-.001.005-1.388.4a2.838 2.838 0 0 1 .403-1.796zm4.863 0a2.874 2.874 0 0 1 .416 1.792l-1.395-.402-.001-.006a.243.243 0 0 1-.095-.417V7.5l1.075-.963zM7.783 7.58h.444l.275.344-.099.43-.398.191-.4-.192-.098-.43.276-.343zm1.422 1.179a.242.242 0 0 1 .055.004l.003-.003L10.698 9a2.842 2.842 0 0 1-1.149 1.444l-.557-1.346.002-.002a.243.243 0 0 1 .21-.34zm-2.41.005a.243.243 0 0 1 .22.339l.003.005-.55 1.332a2.853 2.853 0 0 1-1.146-1.433l1.422-.241.003.003a.246.246 0 0 1 .047-.005zm1.201.584a.241.241 0 0 1 .223.128h.005l.701 1.267a2.85 2.85 0 0 1-1.835-.002l.7-1.265a.243.243 0 0 1 .206-.128z"/></g></svg>