<svg xmlns="http://www.w3.org/2000/svg" width="16" height="16" viewBox="0 0 16 16">
  <g fill="none" fill-rule="evenodd" transform="translate(1 1)">
    <path fill="#326CE5" d="M6.95948731,0.381365087 C6.84241143,0.387262785 6.72770193,0.416290496 6.62208825,0.466745303 L2.01803355,2.66661071 C1.77664295,2.78189182 1.60131297,2.99991649 1.54167083,3.25897276 L0.405819556,8.20042633 C0.352829442,8.43044437 0.395946264,8.67194105 0.525351858,8.86992498 C0.540882871,8.8938813 0.557586329,8.91706963 0.575402329,8.93940681 L3.76214545,12.9016376 C3.92924024,13.1093258 4.18258779,13.2302564 4.45048664,13.2302043 L9.56093415,13.2290266 C9.82873279,13.2292218 10.0820625,13.1085163 10.2492753,12.9010488 L13.4348406,8.93822915 C13.6020248,8.73043689 13.6646634,8.45842489 13.6050122,8.19924867 L12.4673944,3.2577951 C12.4077523,2.99873883 12.2324223,2.78071416 11.9910317,2.66543306 L7.38638839,0.466745303 C7.25354228,0.403277158 7.10675128,0.373918957 6.95948731,0.381365087 Z"/>
    <path fill="#FFF" fill-rule="nonzero" d="M7.0051079,2.06300684 C6.85291754,2.06302229 6.72951781,2.20010339 6.7295359,2.36919777 C6.72953608,2.37179295 6.73006725,2.37427281 6.73012378,2.37685254 C6.72989956,2.39982837 6.72878973,2.42750805 6.7295359,2.44751203 C6.73316534,2.54504097 6.75442499,2.61968546 6.76722096,2.70954097 C6.79040254,2.90186027 6.80982712,3.06128127 6.79784007,3.20945685 C6.78618238,3.26533249 6.74502672,3.31643362 6.70833805,3.35195349 L6.70186093,3.46854164 C6.53648343,3.48224336 6.36999969,3.50733351 6.20371153,3.54508942 C5.4881738,3.70755311 4.87210841,4.07612977 4.40307223,4.57377381 C4.3726374,4.55301066 4.31939199,4.51481289 4.30355918,4.50311432 C4.25435813,4.50975857 4.20463194,4.52493943 4.1398647,4.48721594 C4.01654203,4.40420272 3.90422246,4.28961564 3.76831355,4.15158336 C3.70603937,4.08555556 3.66094279,4.02268143 3.5869542,3.95903626 C3.57015194,3.94458272 3.54450989,3.92503397 3.52571598,3.91016345 C3.46787167,3.86404503 3.39964626,3.83999349 3.3337577,3.83773747 C3.24904376,3.83483685 3.16749234,3.86795806 3.11412446,3.93489427 C3.01924836,4.05389201 3.04962421,4.23577273 3.1818398,4.34118633 C3.18318139,4.3422547 3.18461003,4.34308528 3.1859616,4.34413047 C3.20412995,4.35885817 3.22637808,4.37772915 3.24307802,4.39005914 C3.3215924,4.44802913 3.39331328,4.47770423 3.4715437,4.52372334 C3.63635931,4.62550711 3.77299347,4.70990374 3.88136874,4.81166075 C3.92368944,4.85677297 3.93108626,4.9362649 3.93671867,4.9706446 L4.02504303,5.0495477 C3.5522195,5.76111098 3.33339291,6.6400355 3.46271221,7.53558404 L3.34730171,7.56914729 C3.31688421,7.60842662 3.27390233,7.67023257 3.22894612,7.6886796 C3.08715363,7.73334035 2.92757417,7.74974051 2.73491853,7.76993801 C2.64446855,7.777459 2.56642524,7.77297071 2.47053428,7.79113585 C2.44942914,7.79513386 2.42002273,7.80279505 2.39693065,7.8082119 C2.39612795,7.80838148 2.39537802,7.8086189 2.39457533,7.80879978 C2.39331665,7.80909184 2.39166303,7.80970234 2.39045353,7.80997744 C2.22802828,7.84922248 2.12368588,7.9985158 2.15727721,8.14561001 C2.19087646,8.29273871 2.34953019,8.38221133 2.51292997,8.34698956 C2.51410952,8.34672011 2.5158223,8.34667489 2.51705178,8.34640167 C2.51889646,8.3459796 2.5205205,8.34508458 2.52235124,8.34463612 C2.54512903,8.33963607 2.57367396,8.334073 2.59359956,8.32873774 C2.68787514,8.30349572 2.75615293,8.2664074 2.84090777,8.23393626 C3.0232458,8.16853817 3.17426472,8.1139052 3.32139229,8.09261728 C3.38284117,8.08780452 3.44758279,8.13053147 3.47978731,8.14855604 L3.59990844,8.12794703 C3.87633175,8.98495844 4.45562612,9.67765131 5.1891581,10.112301 L5.13910763,10.2324221 C5.15714785,10.2790653 5.17704537,10.3421742 5.16360707,10.388237 C5.11011915,10.5269407 5.01850131,10.6733428 4.91417493,10.8365608 C4.86366093,10.9119671 4.81196306,10.9704861 4.76637883,11.0567828 C4.75547089,11.0774322 4.74157867,11.1091522 4.73104909,11.1309753 C4.66022303,11.2825137 4.71217565,11.457049 4.84822607,11.5225466 C4.98513118,11.5884555 5.15506669,11.5189413 5.22860965,11.3670957 C5.22872271,11.3668809 5.2290939,11.3667227 5.22919754,11.3665079 C5.22927291,11.3663383 5.22912217,11.3660839 5.22919754,11.36592 C5.23967267,11.3443914 5.25451304,11.3160934 5.26334962,11.2958493 C5.3023938,11.2064034 5.31538534,11.1297513 5.34284155,11.0432416 C5.41575498,10.8600896 5.45581514,10.6679167 5.5561876,10.5481709 C5.58367283,10.5153806 5.62848281,10.5027699 5.67494114,10.4903311 L5.73735703,10.377276 C6.37683934,10.6227338 7.0926373,10.6886009 7.80768004,10.5262497 C7.97079926,10.4892134 8.12827514,10.4412803 8.28050979,10.3837531 C8.2980518,10.4148683 8.33065221,10.4746815 8.33939269,10.4897423 C8.38660435,10.5051024 8.43813584,10.5130343 8.48012284,10.5751225 C8.55521767,10.7034209 8.60657318,10.8552009 8.66913697,11.038531 C8.6965977,11.1250391 8.71016884,11.2016947 8.74921773,11.2911387 C8.75811781,11.3115254 8.77288394,11.3402208 8.78336981,11.3617982 C8.85675808,11.514137 9.0272321,11.5838889 9.16434222,11.5178379 C9.30037587,11.4523054 9.35238577,11.2777859 9.28151921,11.1262665 C9.2709883,11.1044443 9.25650952,11.0727229 9.24560063,11.0520741 C9.20001188,10.9657798 9.1483223,10.9078443 9.09780454,10.8324408 C8.99346949,10.6692283 8.90693573,10.5336416 8.85344047,10.3949408 C8.83107232,10.3234038 8.85721425,10.2789134 8.87463832,10.232424 C8.8642037,10.2204633 8.84187474,10.1529068 8.82870965,10.1211353 C9.59102944,9.67102194 10.1533124,8.95249728 10.4173705,8.12264945 C10.4530281,8.12825359 10.5150038,8.13921882 10.5351363,8.14325847 C10.5765812,8.11592361 10.6146883,8.08025809 10.6894095,8.08614205 C10.836538,8.10742223 10.9875526,8.16207236 11.169894,8.22746102 C11.2546506,8.25992783 11.3229255,8.29761421 11.4172022,8.32285133 C11.437128,8.32818546 11.4656724,8.33316197 11.4884506,8.33816089 C11.4902821,8.33860934 11.4919044,8.33950624 11.49375,8.33992643 C11.4949804,8.34020153 11.4966923,8.34024487 11.4978718,8.34051432 C11.661281,8.37569238 11.819963,8.28627214 11.8535246,8.13913478 C11.8870782,7.9920319 11.7827841,7.8427039 11.6203483,7.80350221 C11.5967211,7.79812964 11.563213,7.78900514 11.5402675,7.78465968 C11.4443756,7.76649962 11.3663336,7.77097812 11.2758833,7.76346183 C11.0832267,7.74327432 10.9236504,7.72685664 10.7818557,7.68220342 C10.7240419,7.65977553 10.682913,7.59098221 10.6629113,7.56267112 L10.5516226,7.53028552 C10.6093233,7.11284019 10.5937648,6.67838948 10.4939173,6.243694 C10.3931401,5.80495114 10.2150409,5.40367817 9.97751423,5.05013747 C10.0060616,5.02418584 10.0599727,4.97644603 10.0752599,4.96240194 C10.0797285,4.91295594 10.0758892,4.86111335 10.1270768,4.80636223 C10.2354466,4.70459957 10.3720917,4.62021725 10.5369018,4.51842482 C10.6151298,4.47240156 10.687445,4.44273475 10.7659564,4.38476062 C10.7837107,4.37165074 10.8079545,4.35088948 10.8266057,4.33588781 C10.9587933,4.23043879 10.9892277,4.04856899 10.8943211,3.92959575 C10.7994145,3.8106225 10.6155059,3.79941591 10.4833184,3.90486493 C10.464503,3.91976654 10.4389719,3.93920581 10.4220802,3.95373774 C10.348095,4.01738705 10.3024028,4.08025384 10.240132,4.14628485 C10.1042304,4.28432428 9.99189918,4.39948643 9.86858085,4.48250624 C9.81514324,4.51361639 9.73687232,4.50285203 9.70135245,4.50075995 L9.59654088,4.57554124 C8.99887843,3.94882794 8.18514755,3.54814361 7.3089437,3.47030813 C7.30649304,3.43358931 7.30328246,3.36721744 7.30246658,3.34724285 C7.26659587,3.31291836 7.22326351,3.28361427 7.21237573,3.20945685 C7.20038868,3.06128127 7.22040209,2.90186027 7.24358367,2.70954097 C7.25637964,2.61968546 7.27763929,2.54504097 7.28126874,2.44751203 C7.28209404,2.42534135 7.28076941,2.39316999 7.28068085,2.36919777 C7.28066276,2.20010339 7.15729921,2.06299139 7.00510884,2.06300684 L7.0051079,2.06300684 Z M6.66005407,4.20045618 L6.57820682,5.64603155 L6.57231853,5.64897569 C6.56682895,5.77829857 6.46039466,5.88156318 6.32972096,5.88156318 C6.27619291,5.88156318 6.22678534,5.86437332 6.18663549,5.83504568 L6.18428018,5.83622334 L4.99896725,4.99596425 C5.36326214,4.63774608 5.82922397,4.37302285 6.36622836,4.25109548 C6.46432238,4.22882304 6.56237269,4.21229682 6.66005407,4.20045618 Z M7.35075057,4.20045618 C7.97770693,4.27756584 8.55752061,4.56145682 9.00182728,4.99655308 L7.82416914,5.83151271 L7.82004734,5.82974716 C7.71551934,5.90609125 7.5682465,5.88714886 7.48677008,5.78499615 C7.45339393,5.74314764 7.43588168,5.6939417 7.43377546,5.644266 L7.43259781,5.64367812 L7.35075057,4.20045618 Z M4.56912203,5.53592051 L5.65138987,6.5039555 L5.65021221,6.5098438 C5.74789886,6.59476651 5.76230416,6.74213338 5.68083132,6.84429871 C5.64745743,6.88614891 5.60278405,6.91421844 5.5548219,6.92732361 L5.55364424,6.93203424 L4.16636295,7.33243801 C4.09575471,6.6867955 4.24792378,6.05917965 4.56912203,5.53592051 Z M9.43343899,5.5365084 C9.59424303,5.79714883 9.71601194,6.08825801 9.78850292,6.40385362 C9.86012451,6.71566509 9.87809896,7.026919 9.84856349,7.32772643 L8.45421625,6.92614501 L8.45303859,6.92025672 C8.32817856,6.88613214 8.25144367,6.75912256 8.28051167,6.63173047 C8.29242071,6.57954382 8.32012281,6.5353954 8.35764828,6.5027769 L8.35706039,6.49983276 L9.43343993,5.5365084 L9.43343899,5.5365084 Z M6.78311934,6.57873585 L7.22650763,6.57873585 L7.50207964,6.92320086 L7.40315635,7.35304608 L7.0051079,7.54441553 L6.60588179,7.35245725 L6.50695851,6.92261203 L6.78311934,6.57873585 Z M8.20455272,7.75757166 C8.22339468,7.75662011 8.2421545,7.75831782 8.26049148,7.76169346 L8.2628468,7.75874931 L9.69782324,8.00134689 C9.48781382,8.59136493 9.08595334,9.10250775 8.54901773,9.44456694 L7.99198542,8.09909252 L7.99375097,8.0967372 C7.94258201,7.97784102 7.99378865,7.8384144 8.11151678,7.78171365 C8.14165824,7.76719717 8.17314863,7.75915895 8.20455178,7.75757166 L8.20455272,7.75757166 Z M5.79447533,7.76345995 C5.90398322,7.76499561 6.00220707,7.84100167 6.02765164,7.95247408 C6.0395637,8.00465997 6.03376604,8.05636708 6.01410857,8.10203666 L6.01823038,8.10733612 L5.46708637,9.43926748 C4.95179668,9.10860746 4.54136661,8.61351187 4.32181382,8.00605847 L5.74442486,7.76463855 L5.74678018,7.76758269 C5.76269288,7.76465437 5.77883132,7.76324137 5.79447533,7.76346089 L5.79447533,7.76345995 Z M6.99627546,8.3469905 C7.03442123,8.34558861 7.07312755,8.35341542 7.10991948,8.37113249 C7.15814712,8.39435647 7.19540295,8.43092342 7.21885285,8.47476641 L7.22415232,8.47476641 L7.92544774,9.74192657 C7.83443285,9.77243696 7.74086462,9.79851219 7.6451651,9.82024083 C7.10882133,9.94201822 6.57418168,9.90512022 6.09006752,9.74016008 L6.78959646,8.47535524 L6.79077412,8.47535524 C6.83274906,8.39688721 6.91235498,8.3500737 6.99627546,8.3469905 Z"/>
  </g>
</svg>
