<svg xmlns="http://www.w3.org/2000/svg" width="16" height="16" viewBox="0 0 16 16"><rect id="frame" width="16" height="16" fill="none"/><g fill="none" fill-rule="evenodd"><path fill="#9AA7B0" d="M8.416 13.896c0-.157.021-.578.021-.757 0-.82-.31-1.155-1.168-1.155H7v-.969h.269c.858 0 1.168-.347 1.168-1.167 0-.179-.021-.598-.021-.757 0-1.071.466-1.744 2.349-2.09l.216.84c-1.241.347-1.406.673-1.406 1.44 0 .211.021.557.021.778 0 .82-.393 1.22-1.076 1.442.693.23 1.076.62 1.076 1.44 0 .22-.021.566-.021.777 0 .768.165 1.094 1.406 1.44l-.216.842c-1.883-.348-2.349-1.02-2.349-2.104m3.603 1.262c1.24-.347 1.406-.673 1.406-1.439 0-.21-.02-.558-.02-.779 0-.82.392-1.22 1.075-1.44-.692-.232-1.075-.62-1.075-1.44 0-.22.02-.568.02-.779 0-.768-.165-1.093-1.406-1.44l.217-.84c1.883.345 2.348 1.018 2.348 2.091 0 .158-.021.578-.021.756 0 .821.31 1.167 1.169 1.167H16v.968h-.268c-.86 0-1.17.336-1.17 1.156 0 .18.022.6.022.757 0 1.083-.465 1.756-2.348 2.104l-.217-.842z"/><path fill="#FFF" fill-rule="nonzero" d="M7.557 14.587H5.308a.932.932 0 0 1-.726-.346l-3.364-4.183a.922.922 0 0 1-.18-.78l1.2-5.217a.923.923 0 0 1 .503-.625L7.6 1.114a.936.936 0 0 1 .807 0l4.86 2.321c.256.122.44.352.504.625l.596 2.593a3.005 3.005 0 0 0-.413-.277l-.488-2.118a.875.875 0 0 0-.476-.592l-4.605-2.2a.887.887 0 0 0-.764 0l-4.604 2.2a.875.875 0 0 0-.476.593L1.406 9.201a.867.867 0 0 0 .17.739l3.186 3.962c.167.208.42.328.688.328H7.51a3 3 0 0 0 .048.357z"/><path fill="#326CE5" d="M13.955 6.376A2.986 2.986 0 0 0 12.5 6h-2a3 3 0 0 0-3 3v1H6v3h1.5v1c0 .077.003.154.009.23H5.45a.883.883 0 0 1-.688-.328L1.575 9.939a.873.873 0 0 1-.17-.739L2.543 4.26a.875.875 0 0 1 .476-.592l4.604-2.2a.886.886 0 0 1 .764 0l4.605 2.198a.875.875 0 0 1 .476.593l.488 2.118z"/><path fill="#FFF" fill-rule="nonzero" d="M6 10.992a3.582 3.582 0 0 1-1.4-1.864l-.12.02c-.032-.017-.097-.06-.159-.055-.147.02-.298.076-.48.14-.085.033-.153.07-.247.096l-.072.016-.005.001-.004.001c-.163.035-.322-.054-.356-.201-.033-.147.071-.297.233-.336l.005-.001h.002c.023-.006.052-.014.074-.018.095-.018.173-.014.264-.021.193-.02.352-.037.494-.081.045-.019.088-.08.118-.12l.116-.033c-.13-.896.09-1.775.562-2.486l-.088-.08c-.006-.034-.013-.113-.056-.158a2.573 2.573 0 0 0-.41-.288c-.078-.046-.15-.076-.228-.134-.017-.012-.039-.031-.057-.046l-.004-.003c-.132-.105-.163-.287-.068-.406a.266.266 0 0 1 .22-.097.328.328 0 0 1 .192.072l.061.049c.074.064.119.127.181.193.136.138.249.252.372.335.065.038.114.023.164.016.015.012.069.05.1.07A3.545 3.545 0 0 1 7.701 4.47l.006-.117a.3.3 0 0 0 .09-.143c.012-.148-.008-.307-.03-.5-.014-.09-.035-.164-.038-.261v-.071-.008c0-.169.123-.306.275-.306.152 0 .276.137.276.306v.079c-.003.097-.025.172-.037.262-.024.192-.044.351-.032.5.011.074.055.103.09.137l.007.123c.876.078 1.69.479 2.288 1.106L10.7 5.5c.036.002.114.013.168-.018.123-.084.235-.199.371-.337.062-.066.108-.129.182-.192l.061-.05c.133-.105.316-.093.411.026.095.119.065.3-.067.406-.019.015-.043.036-.061.049-.079.058-.15.087-.23.133-.164.102-.3.187-.409.288-.051.055-.047.107-.052.156L11.033 6H10.5c-.2 0-.394.02-.583.057l.085-.06A2.863 2.863 0 0 0 8.35 5.2l.082 1.444a.241.241 0 0 0 .05.136c-.251.228-.463.498-.626.799h-.074l-.276.344.081.352A3.007 3.007 0 0 0 7.5 9v1h-.851l.37-.893-.005-.005a.243.243 0 0 0-.267-.334l-.003-.003-1.422.241c.148.41.383.768.678 1.06v.926zm0 .708v.844a.254.254 0 0 1-.152-.021c-.136-.066-.188-.24-.117-.392.01-.022.024-.054.035-.074.046-.087.098-.145.148-.22.03-.047.059-.092.086-.137zm1.66-6.5A2.839 2.839 0 0 0 6 5.996l1.185.84.003-.001a.243.243 0 0 0 .386-.186l.005-.003L7.66 5.2zM5.57 6.536a2.838 2.838 0 0 0-.404 1.796l1.388-.4v-.005a.243.243 0 0 0 .096-.417l.001-.006-1.082-.968z"/><path fill="#326CE5" d="M10.596 12.94c0 .122-.011 1.01-.005 1.035l.002-.002c.03 0 .907.292.907.292s.872-.289.925-.325c-.007-.013-.02-.878-.02-1 0-.449.089-.975.404-1.437-.27-.39-.404-.873-.404-1.444 0-.122.01-1.01.004-1.035l-.001.001c-.031 0-.908-.29-.908-.29s-.872.288-.925.323c.007.014.02.88.02 1.001 0 .45-.09.974-.403 1.437.268.39.404.872.404 1.444"/></g></svg>