<svg xmlns="http://www.w3.org/2000/svg" width="12" height="12" viewBox="0 0 12 12"><rect id="frame" width="12" height="12" fill="none"/><g fill="none" fill-rule="evenodd"><path fill="#326CE5" d="M11.077 8.207L8.615 5.744l-2.393.48-.48 2.391 2.687 2.687a.76.76 0 0 1-.234.037l-4.38.001a.757.757 0 0 1-.59-.281L.493 7.662a.749.749 0 0 1-.145-.633l.973-4.236a.75.75 0 0 1 .409-.507L5.676.4a.76.76 0 0 1 .655 0l3.947 1.885a.75.75 0 0 1 .408.507l.975 4.236a.744.744 0 0 1-.145.633l-.439.546z"/><path d="M5.963.02a.802.802 0 0 0-.305.078l-4.166 1.99a.791.791 0 0 0-.431.536L.033 7.095a.785.785 0 0 0 .154.669l2.883 3.585a.8.8 0 0 0 .623.298l4.624-.001a.8.8 0 0 0 .623-.297l2.882-3.586a.785.785 0 0 0 .154-.668l-1.029-4.472a.791.791 0 0 0-.43-.536L6.35.097A.802.802 0 0 0 5.963.02zm.002.307A.76.76 0 0 1 6.331.4l3.947 1.885a.75.75 0 0 1 .408.508l.975 4.235a.744.744 0 0 1-.146.634l-2.73 3.396a.757.757 0 0 1-.59.281l-4.38.001a.757.757 0 0 1-.59-.281L.493 7.663a.749.749 0 0 1-.145-.634l.973-4.235a.75.75 0 0 1 .409-.508L5.676.4a.76.76 0 0 1 .29-.073z"/><path fill="#FFF" fill-rule="nonzero" d="M6.219 9.092a3.055 3.055 0 0 1-1.301-.197l-.054.097c-.04.01-.078.021-.102.05-.086.102-.12.267-.182.424-.024.074-.035.14-.069.216-.007.018-.02.042-.029.06v.001c-.063.13-.209.19-.326.133-.117-.056-.162-.205-.1-.335.008-.019.02-.046.03-.064.039-.074.083-.124.126-.189.09-.14.168-.265.214-.384.011-.04-.006-.093-.021-.133l.043-.103a3.074 3.074 0 0 1-1.362-1.701l-.103.017c-.028-.015-.083-.052-.136-.047-.126.018-.256.065-.412.12-.073.028-.131.06-.212.082l-.061.014-.005.001h-.003c-.14.03-.276-.046-.305-.172-.029-.126.06-.254.2-.288h.003l.003-.001.063-.015c.082-.015.149-.012.226-.018.165-.017.302-.031.424-.07.038-.016.075-.068.101-.102l.099-.029a3.057 3.057 0 0 1 .482-2.13l-.076-.068c-.004-.03-.01-.098-.047-.137a2.205 2.205 0 0 0-.351-.247c-.067-.039-.129-.064-.196-.114-.015-.01-.034-.027-.05-.04l-.003-.002c-.113-.09-.14-.246-.058-.348a.228.228 0 0 1 .189-.084.28.28 0 0 1 .164.063l.053.041c.063.055.102.109.155.166.116.118.213.216.318.287.056.033.099.02.14.014l.086.06a3.038 3.038 0 0 1 1.97-.947l.006-.1a.258.258 0 0 0 .077-.122c.01-.127-.007-.264-.027-.429-.01-.077-.029-.14-.032-.224v-.06-.007c0-.145.106-.263.236-.263s.237.118.237.263v.067c-.003.083-.021.147-.032.224-.02.165-.037.302-.027.429.01.064.047.089.077.118l.006.106c.75.066 1.448.41 1.96.947l.09-.064c.03.002.098.01.144-.016.105-.071.202-.17.318-.288.054-.057.093-.11.156-.165l.053-.042c.113-.09.27-.08.352.021.081.102.055.258-.058.348l-.052.042c-.067.05-.13.075-.196.115-.142.087-.259.16-.352.247-.044.047-.04.091-.044.133l-.084.076a3.058 3.058 0 0 1 .517 1.869l-.454-.454-.176.036a2.492 2.492 0 0 0-.353-1.034l-.923.825v.003a.208.208 0 0 0 .082.358l.001.005.168.048-1.043.209.06-.26-.237-.295h-.38l-.237.295.085.368.342.165.188-.09-.157.78a.209.209 0 0 0-.214.108H5.82l-.6 1.084c.177.06.362.1.552.119l-.03.147.477.477zm3.791-1.953l-.502-.502.157.017c.078.007.144.003.227.019.02.003.048.011.068.016.14.033.229.161.2.287a.23.23 0 0 1-.15.163zM5.71 3.6a2.433 2.433 0 0 0-1.424.682l1.016.72h.002a.208.208 0 0 0 .33-.16l.005-.003.07-1.239zm.592 0l.07 1.237a.208.208 0 0 0 .331.159l.004.002 1.01-.715A2.454 2.454 0 0 0 6.3 3.6zM3.916 4.745a2.433 2.433 0 0 0-.345 1.54l1.19-.343v-.004a.208.208 0 0 0 .082-.358l.001-.005-.928-.83zm1.05 1.91a.21.21 0 0 0-.04.003l-.002-.003-1.22.207c.189.521.54.945.982 1.229l.472-1.142-.003-.004a.208.208 0 0 0-.188-.29z"/><path fill="#231F20" fill-opacity=".7" d="M8.11 8.112a.503.503 0 0 1-.706 0 .495.495 0 0 1 0-.707.498.498 0 0 1 .853.353.498.498 0 0 1-.146.354zM6.698 6.698l-.355 1.767L9.878 12 12 9.88 8.465 6.344l-1.768.354z"/></g></svg>