<svg width="16" height="16" viewBox="0 0 16 16" fill="none" xmlns="http://www.w3.org/2000/svg"><rect id="frame" width="16" height="16" fill="none"/><path fill-rule="evenodd" clip-rule="evenodd" d="M3.5 16a3.5 3.5 0 1 0 0-7 3.5 3.5 0 0 0 0 7z" fill="#fff"/><path fill-rule="evenodd" clip-rule="evenodd" d="M7 12.5a3.5 3.5 0 1 1-7 0 3.5 3.5 0 0 1 7 0zm-1.05 0a2.45 2.45 0 1 1-4.9 0 2.45 2.45 0 0 1 4.9 0z" fill="#9AA7B0" fill-opacity=".8"/><path fill-rule="evenodd" clip-rule="evenodd" d="M3.5 13.75a1.25 1.25 0 1 0 0-2.5 1.25 1.25 0 0 0 0 2.5z" fill="#40B6E0" fill-opacity=".6"/></svg>