<svg width="16" height="16" viewBox="0 0 16 16" fill="none" xmlns="http://www.w3.org/2000/svg">
<path fill-rule="evenodd" clip-rule="evenodd" d="M3.5 16C5.433 16 7 14.433 7 12.5C7 10.567 5.433 9 3.5 9C1.567 9 0 10.567 0 12.5C0 14.433 1.567 16 3.5 16Z" fill="white"/>
<path fill-rule="evenodd" clip-rule="evenodd" d="M7 12.5C7 14.433 5.433 16 3.5 16C1.567 16 0 14.433 0 12.5C0 10.567 1.567 9 3.5 9C5.433 9 7 10.567 7 12.5ZM5.95 12.5C5.95 13.8531 4.8531 14.95 3.5 14.95C2.1469 14.95 1.05 13.8531 1.05 12.5C1.05 11.1469 2.1469 10.05 3.5 10.05C4.8531 10.05 5.95 11.1469 5.95 12.5Z" fill="#9AA7B0" fill-opacity="0.8"/>
<path fill-rule="evenodd" clip-rule="evenodd" d="M3.5 13.75C4.19036 13.75 4.75 13.1904 4.75 12.5C4.75 11.8096 4.19036 11.25 3.5 11.25C2.80964 11.25 2.25 11.8096 2.25 12.5C2.25 13.1904 2.80964 13.75 3.5 13.75Z" fill="#40B6E0" fill-opacity="0.6"/>
</svg>
