<svg xmlns="http://www.w3.org/2000/svg" width="16" height="16" viewBox="0 0 16 16"><rect id="frame" width="16" height="16" fill="none"/><path fill="#9AA7B0" fill-opacity=".8" fill-rule="evenodd" d="M2 5.499c1.327.765 3.52 1.265 6 1.265s4.673-.5 6-1.265v1.384c0 .987-2.686 1.787-6 1.787s-6-.8-6-1.787V5.5zm12 3.096v1.472c0 .938-2.686 1.7-6 1.7s-6-.762-6-1.7V8.595c1.327.766 3.52 1.266 6 1.266s4.673-.5 6-1.266zm0 3.097v1.503c0 .987-2.686 1.787-6 1.787s-6-.8-6-1.787v-1.503c1.327.765 3.52 1.265 6 1.265s4.673-.5 6-1.265zM8 5.573c-3.314 0-6-.8-6-1.787C2 2.8 4.686 2 8 2s6 .8 6 1.786c0 .987-2.686 1.787-6 1.787z"/></svg>