<svg width="16" height="16" viewBox="0 0 16 16" fill="none" xmlns="http://www.w3.org/2000/svg">
<path fill-rule="evenodd" clip-rule="evenodd" d="M15.6456 12.0171L15.6456 15.5887L14.3872 14.3294C13.6029 15.1298 12.4916 15.6024 11.2845 15.5391C9.29176 15.4347 7.71156 13.9053 7.4795 11.9901L8.84058 12.1084C9.10843 13.2651 10.1149 14.1539 11.3598 14.2191C12.1761 14.2619 12.9276 13.9418 13.4574 13.3998L12.0739 12.0171L15.6456 12.0171ZM11.708 7.45806C13.6743 7.56111 15.2389 9.05146 15.503 10.9309L14.1505 10.8131C13.8623 9.68563 12.8692 8.82622 11.6458 8.7621C10.7935 8.71743 10.012 9.06834 9.47952 9.6543L10.9131 11.0878L7.34133 11.0878L7.34133 7.51612L8.54986 8.7255C9.33683 7.89017 10.4722 7.39329 11.708 7.45806Z" fill="#3592C4"/>
<path fill-rule="evenodd" clip-rule="evenodd" d="M6.46229 0.354125C6.35358 0.359601 6.24706 0.386556 6.14899 0.433407L1.8738 2.47614C1.64965 2.58319 1.48684 2.78564 1.43146 3.02619L0.376744 7.61468C0.327539 7.82827 0.367576 8.05252 0.487738 8.23636C0.50216 8.2586 0.51767 8.28014 0.534214 8.30088L3.49333 11.9801C3.64849 12.1729 3.88374 12.2852 4.13251 12.2852L5.72784 12.2848C5.57966 11.7993 5.49994 11.284 5.49994 10.75C5.49994 10.4 5.53418 10.0581 5.5995 9.72728C5.50738 9.70073 5.41662 9.67027 5.32746 9.63604L5.2695 9.74102C5.22636 9.75257 5.18475 9.76428 5.15923 9.79473C5.09373 9.87287 5.05589 9.98423 5.01568 10.1026L5.01568 10.1026C4.99867 10.1526 4.98124 10.2039 4.96112 10.2544C4.95237 10.282 4.94521 10.3085 4.93811 10.3347C4.9245 10.385 4.91113 10.4344 4.88731 10.489C4.88181 10.5016 4.87382 10.5175 4.86622 10.5327L4.8556 10.5541L4.85505 10.5552C4.78676 10.6962 4.62896 10.7607 4.50184 10.6995C4.3755 10.6387 4.32726 10.4766 4.39303 10.3359L4.40461 10.3112L4.40461 10.3112C4.4118 10.2956 4.41938 10.2792 4.42583 10.267C4.45383 10.214 4.4843 10.1723 4.5153 10.1299L4.5153 10.1299L4.51531 10.1299L4.51532 10.1298C4.53119 10.1081 4.5472 10.0862 4.56307 10.0625C4.65995 9.91096 4.74502 9.77502 4.79469 9.64622C4.80717 9.60345 4.78869 9.54485 4.77194 9.50154L4.81842 9.38999C4.13728 8.98639 3.59936 8.34318 3.34268 7.54738L3.23114 7.56652L3.21987 7.56005C3.18766 7.54136 3.13466 7.51061 3.08406 7.51457C2.94942 7.53405 2.81127 7.58361 2.64523 7.64317L2.6379 7.6458C2.61138 7.65596 2.5866 7.6666 2.56205 7.67715C2.51373 7.69791 2.4663 7.71829 2.40825 7.73383C2.39514 7.73734 2.37802 7.74095 2.36162 7.74442L2.36162 7.74442L2.34209 7.74859L2.33717 7.75023L2.33335 7.75078C2.18162 7.78348 2.0343 7.7004 2.0031 7.56378C1.97191 7.42719 2.06879 7.28856 2.21962 7.25212L2.22345 7.25103L2.22563 7.25048L2.24619 7.24553C2.2628 7.24148 2.28027 7.23722 2.29398 7.23463C2.35237 7.22356 2.40364 7.22155 2.4557 7.2195C2.48303 7.21843 2.51057 7.21735 2.53948 7.21494L2.54529 7.21433C2.72159 7.19585 2.86798 7.18051 2.99822 7.13949C3.03513 7.12434 3.07061 7.07772 3.09785 7.04191L3.09786 7.04191L3.09786 7.0419L3.10812 7.02849L3.21529 6.99733C3.0952 6.16575 3.2984 5.3496 3.73745 4.68887L3.65544 4.6156L3.65362 4.6037C3.64831 4.5679 3.63904 4.50527 3.60404 4.46797C3.50341 4.37348 3.37653 4.29511 3.22349 4.2006C3.19858 4.18595 3.17438 4.17308 3.15039 4.16032L3.15039 4.16032C3.10443 4.13588 3.05925 4.11185 3.01134 4.07648C3.00025 4.0683 2.98653 4.057 2.97344 4.04623L2.97343 4.04622L2.97343 4.04622L2.9583 4.03384L2.95448 4.0311C2.83171 3.93322 2.8035 3.76433 2.8916 3.65383C2.94115 3.59168 3.01688 3.56092 3.09554 3.56361C3.15673 3.56571 3.22008 3.58804 3.27379 3.63087L3.28908 3.64286L3.28909 3.64287L3.28909 3.64287L3.28909 3.64287C3.30355 3.65417 3.31928 3.66646 3.33065 3.67625C3.3903 3.72756 3.43793 3.77832 3.48729 3.83094L3.48729 3.83094L3.50994 3.85504C3.53415 3.87962 3.55715 3.90341 3.57932 3.92633L3.57932 3.92634C3.67275 4.02295 3.75152 4.1044 3.84407 4.1667C3.89623 4.19708 3.93789 4.19051 3.97784 4.1842L3.99607 4.18146C4.01078 4.19233 4.06022 4.2278 4.08848 4.24708C4.52401 3.78498 5.09607 3.44273 5.7605 3.29187C5.91491 3.25681 6.0695 3.23351 6.22307 3.22079L6.22908 3.11253C6.26315 3.07955 6.30137 3.03209 6.31219 2.98021C6.32325 2.84357 6.30553 2.69663 6.2842 2.5197L6.2842 2.51969L6.28376 2.516C6.27972 2.48761 6.27476 2.46086 6.26986 2.43435V2.43434L6.26985 2.43434L6.26985 2.43433L6.26985 2.43433C6.26034 2.38293 6.25099 2.33243 6.24877 2.27269C6.24829 2.26004 6.24862 2.24408 6.24895 2.22845V2.22843V2.2284V2.22838V2.22837V2.22835V2.22834V2.22832L6.24931 2.20708L6.24904 2.20373L6.24877 2.19997C6.24875 2.04295 6.36333 1.91566 6.50465 1.91565C6.64597 1.91564 6.76053 2.04295 6.76054 2.19997L6.76092 2.2258V2.22582V2.22583V2.22585V2.22587V2.22589V2.22591C6.76125 2.24235 6.76158 2.25944 6.76109 2.27269C6.75887 2.33243 6.74952 2.38293 6.74 2.43433L6.74 2.43434L6.74 2.43434C6.73509 2.46086 6.73014 2.48761 6.7261 2.516L6.72446 2.52958C6.70364 2.70212 6.68627 2.84612 6.69712 2.98021C6.70584 3.03963 6.737 3.06804 6.76678 3.09519C6.77151 3.0995 6.77621 3.10379 6.78077 3.10815C6.78153 3.1267 6.78451 3.18833 6.78679 3.22243C7.60041 3.2947 8.35601 3.66677 8.91098 4.24872L9.00831 4.17928L9.02163 4.18023C9.05823 4.18305 9.11987 4.18779 9.16359 4.16233C9.27534 4.0871 9.37738 3.98344 9.49952 3.85935L9.50861 3.85012C9.52789 3.82967 9.54546 3.80955 9.56287 3.78962C9.59765 3.74979 9.63177 3.71072 9.67756 3.67133C9.68886 3.6616 9.70433 3.64951 9.71863 3.63834L9.71865 3.63832L9.71866 3.63832L9.71869 3.63829L9.7187 3.63828L9.73442 3.62595C9.85717 3.52803 10.0279 3.53844 10.1161 3.64891C10.2042 3.75939 10.1759 3.92826 10.0532 4.02618L10.0346 4.04141C10.0216 4.05216 10.0079 4.06344 9.99687 4.07156C9.94917 4.10679 9.90394 4.13075 9.85802 4.15509C9.83375 4.16795 9.80929 4.18091 9.78418 4.19568L9.78399 4.1958C9.63104 4.29027 9.50421 4.3686 9.40363 4.46305C9.36245 4.50709 9.35962 4.5491 9.3569 4.58939L9.35551 4.60794C9.34868 4.61422 9.33355 4.62773 9.31674 4.64275L9.31669 4.6428L9.31668 4.6428C9.29856 4.65899 9.27849 4.67692 9.26475 4.68941C9.45026 4.96553 9.59673 5.27301 9.69428 5.60617C10.0353 5.53656 10.3883 5.5 10.7499 5.5C11.2503 5.5 11.7343 5.57 12.1928 5.70075L11.5768 3.0251C11.5214 2.78454 11.3586 2.58209 11.1344 2.47505L6.8587 0.433407C6.73534 0.374472 6.59904 0.347211 6.46229 0.354125ZM9.0462 5.78263C8.97785 5.55214 8.88061 5.33729 8.75953 5.14104L7.76004 6.03556L7.76058 6.03829C7.72574 6.06858 7.70002 6.10958 7.68896 6.15804C7.666 6.25866 7.71413 6.35903 7.80038 6.40627C8.18257 6.14624 8.60087 5.93534 9.0462 5.78263ZM6.43217 7.76264C6.37961 7.7805 6.33361 7.81766 6.30563 7.86997H6.30454L5.65497 9.04443C5.69325 9.05748 5.73187 9.06966 5.7708 9.08096C5.92932 8.60788 6.15337 8.16484 6.43217 7.76264ZM6.18425 3.90042L6.10825 5.24274L6.10278 5.24548C6.09768 5.36556 5.99885 5.46145 5.87751 5.46145C5.82781 5.46145 5.78193 5.44549 5.74464 5.41826L5.74246 5.41935L4.64181 4.63911C4.98008 4.30648 5.41276 4.06066 5.91141 3.94745C6.0025 3.92676 6.09354 3.91142 6.18425 3.90042ZM8.35875 4.63966C7.94618 4.23564 7.40778 3.97203 6.82561 3.90042L6.90161 5.24056L6.9027 5.2411C6.90466 5.28723 6.92092 5.33292 6.95191 5.37178C7.02757 5.46664 7.16432 5.48423 7.26138 5.41334L7.26521 5.41498L8.35875 4.63966ZM4.24267 5.1405L5.24763 6.03939L5.24654 6.04486C5.33725 6.12371 5.35062 6.26055 5.27497 6.35542C5.24398 6.39428 5.2025 6.42035 5.15796 6.43252L5.15687 6.43689L3.86868 6.80869C3.80311 6.20917 3.94441 5.62638 4.24267 5.1405ZM6.29852 6.10883H6.71024L6.96613 6.42869L6.87427 6.82783L6.50465 7.00553L6.13394 6.82728L6.04209 6.42814L6.29852 6.10883ZM5.3805 7.20893C5.48218 7.21035 5.57339 7.28093 5.59702 7.38444C5.60808 7.4329 5.60269 7.48091 5.58444 7.52332L5.58827 7.52824L5.07649 8.76503C4.59801 8.45799 4.21689 7.99826 4.01302 7.4342L5.33402 7.21002L5.33621 7.21276C5.35098 7.21004 5.36597 7.20872 5.3805 7.20893Z" fill="#AFB1B3"/>
</svg>
