<svg width="17" height="16" viewBox="0 0 17 16" fill="none" xmlns="http://www.w3.org/2000/svg"><rect id="frame" width="17" height="16" fill="none"/><path fill-rule="evenodd" clip-rule="evenodd" d="M15.646 12.017v3.572l-1.259-1.26a4.047 4.047 0 0 1-6.908-2.34l1.362.12a2.733 2.733 0 0 0 4.616 1.29l-1.383-1.382h3.572zm-3.938-4.559a4.047 4.047 0 0 1 3.795 3.473l-1.353-.118a2.734 2.734 0 0 0-4.67-1.159l1.433 1.434H7.341V7.516l1.209 1.21a4.037 4.037 0 0 1 3.158-1.268z" fill="#389FD6"/><path fill-rule="evenodd" clip-rule="evenodd" d="M6.462.354a.823.823 0 0 0-.313.08L1.874 2.475a.812.812 0 0 0-.443.55L.377 7.615a.805.805 0 0 0 .157.686l2.96 3.68a.82.82 0 0 0 .639.304h1.595A5.25 5.25 0 0 1 5.6 9.727a3.34 3.34 0 0 1-.273-.091l-.058.105c-.043.012-.084.023-.11.054a.968.968 0 0 0-.143.308c-.017.05-.035.1-.055.151l-.023.08c-.013.051-.027.1-.05.155l-.022.044-.01.021v.001c-.07.141-.227.206-.354.145-.127-.061-.175-.223-.109-.364l.012-.025a1.076 1.076 0 0 1 .11-.181l.048-.068a2.5 2.5 0 0 0 .232-.416c.012-.043-.006-.101-.023-.144l.046-.112a3.33 3.33 0 0 1-1.475-1.843l-.112.02-.011-.007c-.032-.019-.085-.05-.136-.045-.135.02-.273.069-.439.128l-.007.003-.076.031c-.048.02-.096.041-.154.057l-.046.01-.02.005-.005.001h-.004c-.151.033-.299-.05-.33-.186-.031-.137.066-.275.217-.312l.003-.001h.003l.02-.005c.017-.005.034-.009.048-.011.058-.011.11-.013.162-.016.027 0 .055-.002.083-.004h.006c.177-.02.323-.034.453-.076.037-.015.073-.061.1-.097l.01-.014.107-.03a3.311 3.311 0 0 1 .522-2.31l-.082-.072-.001-.012c-.006-.036-.015-.099-.05-.136a2.389 2.389 0 0 0-.38-.267c-.025-.015-.05-.028-.074-.04a1.052 1.052 0 0 1-.139-.085l-.038-.03-.015-.012-.004-.003c-.122-.098-.15-.267-.062-.377a.247.247 0 0 1 .204-.09.304.304 0 0 1 .178.067l.015.012.042.033c.06.052.107.102.156.155l.023.024.07.071c.093.097.172.178.264.24.052.031.094.025.134.018l.018-.003.092.066a3.292 3.292 0 0 1 2.135-1.026l.006-.108a.28.28 0 0 0 .083-.133c.011-.136-.006-.283-.028-.46v-.004l-.014-.082a.816.816 0 0 1-.02-.206v-.02l-.001-.004V2.2c0-.157.114-.284.256-.284.141 0 .256.127.256.284v.026a1.065 1.065 0 0 1-.02.208h-.001l-.014.082-.002.014c-.02.172-.038.316-.027.45.009.06.04.088.07.115l.014.013.006.114c.813.073 1.569.445 2.124 1.027l.097-.07.014.001c.036.003.098.008.142-.018.111-.075.213-.179.336-.303l.009-.009.054-.06a1.102 1.102 0 0 1 .156-.152l.015-.012c.123-.098.294-.088.382.023.088.11.06.28-.063.377l-.018.015a.94.94 0 0 1-.038.03c-.048.036-.093.06-.139.084l-.074.04c-.153.095-.28.174-.38.268-.042.044-.044.086-.047.126l-.001.019-.04.035-.051.046c.185.277.332.584.43.917a5.274 5.274 0 0 1 2.498.095l-.616-2.676a.812.812 0 0 0-.443-.55L6.86.433a.823.823 0 0 0-.397-.079zm2.584 5.429a2.662 2.662 0 0 0-.286-.642l-1 .895v.002a.226.226 0 0 0 .04.368c.383-.26.8-.47 1.246-.623zm-2.614 1.98a.225.225 0 0 0-.126.107h-.001l-.65 1.174c.038.013.077.026.116.037.158-.473.382-.916.661-1.318zM6.184 3.9l-.076 1.343-.005.002a.226.226 0 0 1-.358.173l-.003.001-1.1-.78A2.636 2.636 0 0 1 6.184 3.9zm2.175.74a2.658 2.658 0 0 0-1.533-.74l.076 1.34v.001a.226.226 0 0 0 .359.172l.004.002L8.36 4.64zm-4.116.5l1.005.9-.001.005a.225.225 0 0 1-.089.388l-.001.004-1.288.372c-.066-.6.075-1.183.374-1.668zm2.056.969h.411l.256.32-.092.399-.37.178-.37-.179-.092-.399.257-.32zm-.919 1.1a.226.226 0 0 1 .204.314l.004.005-.512 1.237a2.65 2.65 0 0 1-1.063-1.33l1.321-.225.002.003a.228.228 0 0 1 .044-.004z" fill="#6E6E6E"/></svg>