<svg xmlns="http://www.w3.org/2000/svg" width="13" height="13" viewBox="0 0 13 13"><rect id="frame" width="13" height="13" fill="none"/><path fill="#6E6E6E" fill-rule="evenodd" d="M6.462.354a.823.823 0 0 1 .397.08l4.276 2.041c.224.107.386.31.442.55l1.056 4.589a.806.806 0 0 1-.158.686l-2.958 3.68a.82.82 0 0 1-.639.304l-4.745.001a.82.82 0 0 1-.64-.305L.534 8.3a.811.811 0 0 1-.157-.685l1.055-4.589a.812.812 0 0 1 .442-.55L6.149.433a.823.823 0 0 1 .313-.079zm.043 1.562c-.142 0-.256.127-.256.284V2.273c.003.09.023.16.035.243.021.179.04.327.028.464a.28.28 0 0 1-.083.133l-.006.108a3.292 3.292 0 0 0-2.135 1.026 4.29 4.29 0 0 1-.092-.066c-.046.007-.092.02-.152-.014-.114-.077-.219-.184-.345-.312-.058-.061-.1-.12-.168-.179l-.057-.045a.304.304 0 0 0-.178-.067.247.247 0 0 0-.204.09c-.088.11-.06.28.063.377l.003.003.053.042c.073.054.14.082.213.125.153.094.28.172.38.267.04.042.046.116.052.148l.082.073a3.311 3.311 0 0 0-.523 2.308l-.107.031c-.028.037-.068.094-.11.111-.131.042-.28.057-.458.076-.084.007-.157.003-.246.02-.02.003-.047.01-.068.015l-.002.001-.004.001c-.151.037-.248.175-.217.312.031.136.179.22.33.187h.004l.005-.002.066-.015c.088-.024.151-.058.23-.088.17-.06.31-.112.446-.131.057-.005.117.035.147.052l.112-.02A3.33 3.33 0 0 0 4.819 9.39l-.047.112c.017.043.035.101.023.144a2.5 2.5 0 0 1-.232.417c-.047.07-.095.124-.137.204l-.033.069c-.066.14-.017.303.109.364.127.06.285-.004.353-.145.01-.02.024-.047.032-.066.037-.083.049-.154.074-.235.068-.17.105-.348.198-.46.026-.03.067-.041.11-.053l.059-.105a3.306 3.306 0 0 0 2.361.006l.055.098c.044.015.091.022.13.08.07.119.118.26.176.43.025.08.038.152.074.235l.032.065c.068.142.226.206.354.145.126-.06.174-.223.109-.363l-.034-.07c-.042-.08-.09-.133-.137-.203a2.39 2.39 0 0 1-.227-.407c-.02-.066.004-.107.02-.15-.01-.012-.03-.074-.043-.104a3.33 3.33 0 0 0 1.475-1.856l.11.02c.038-.026.073-.059.143-.053.136.02.277.07.446.13.079.03.142.066.23.09l.066.014.005.001h.004c.151.033.299-.05.33-.186.031-.137-.066-.275-.217-.312l-.074-.017c-.09-.017-.162-.013-.246-.02-.178-.019-.327-.034-.458-.076-.054-.02-.092-.084-.11-.11l-.104-.03a3.312 3.312 0 0 0-.533-2.303l.09-.082c.005-.046.001-.094.049-.145.1-.094.227-.173.38-.267.073-.043.14-.07.213-.124l.056-.046c.123-.098.151-.267.063-.377-.088-.11-.259-.121-.381-.023l-.057.045c-.07.06-.111.118-.17.18-.126.127-.23.234-.344.311-.05.03-.123.02-.156.017l-.097.07a3.354 3.354 0 0 0-2.124-1.027 6.182 6.182 0 0 1-.006-.114c-.033-.032-.074-.059-.084-.128-.01-.137.008-.285.03-.464.011-.083.03-.153.034-.243V2.2c0-.157-.115-.284-.256-.284zM6.185 3.9l-.077 1.343-.005.002a.226.226 0 0 1-.358.173l-.002.001-1.101-.78A2.636 2.636 0 0 1 6.184 3.9zm.64 0c.583.072 1.121.336 1.534.74l-1.094.775-.004-.002a.226.226 0 0 1-.358-.172h-.001L6.826 3.9zM4.244 5.14l1.005.9-.001.005a.225.225 0 0 1-.089.388l-.001.004-1.288.372c-.066-.6.076-1.183.374-1.669zm4.517.001a2.668 2.668 0 0 1 .385 1.663L7.85 6.431v-.005a.226.226 0 0 1-.09-.388v-.002l1-.895zm-2.461.968h.411l.256.32-.092.399-.37.178-.37-.179-.092-.399.257-.32zm1.32 1.094c.017 0 .034.001.051.004l.003-.002 1.332.225a2.639 2.639 0 0 1-1.067 1.34l-.517-1.25.002-.002a.226.226 0 0 1 .196-.315zM5.38 7.21a.226.226 0 0 1 .204.314l.003.005-.511 1.237a2.65 2.65 0 0 1-1.064-1.33l1.321-.225.002.003a.228.228 0 0 1 .045-.004zm1.116.542a.224.224 0 0 1 .207.119h.004l.651 1.176a2.646 2.646 0 0 1-1.704-.002l.65-1.174a.226.226 0 0 1 .192-.12z"/></svg>