<svg xmlns="http://www.w3.org/2000/svg" width="16" height="16" viewBox="0 0 16 16"><rect id="frame" width="16" height="16" fill="none"/><g fill="none" fill-rule="evenodd"><g fill-opacity=".7"><path fill="#40B6E0" d="M16 12a4 4 0 1 1-8 0 4 4 0 0 1 8 0"/><path fill="#231F20" d="M13.103 11.008l.696-.402a2.274 2.274 0 0 0-1.8-.892c-.726 0-1.365.346-1.785.874 0 0 1.433-1.395 2.89.42m-.796 2.449v.797a2.279 2.279 0 0 0 1.789-3.16s.71 1.58-1.789 2.363m-1.698-1.981l-.697-.402a2.275 2.275 0 0 0-.199.926c0 1.172.885 2.127 2.023 2.26 0 0-1.939-.361-1.127-2.784"/></g><path fill="#9AA7B0" fill-opacity=".8" d="M7 12c0-2.757 2.243-5 5-5 1.13 0 2.162.391 3 1.025V4H7.984L6.696 2.711C6.305 2.32 5.532 2 4.979 2H1.051A.051.051 0 0 0 1 2.051V13h6.102A4.923 4.923 0 0 1 7 12"/></g></svg>