<svg xmlns="http://www.w3.org/2000/svg" xmlns:xlink="http://www.w3.org/1999/xlink" width="70" height="70" viewBox="0 0 70 70"><rect id="frame" width="70" height="70" fill="none"/><defs><linearGradient id="a" x1="20.025" y1="65.083" x2="62.395" y2="4.597" gradientUnits="userSpaceOnUse"><stop offset="0" stop-color="#c27d1b"/><stop offset="1" stop-color="#59bd28"/></linearGradient><linearGradient id="b" x1="69.016" y1="44.013" x2="19.663" y2="61.815" gradientUnits="userSpaceOnUse"><stop offset="0" stop-color="#4d75f6"/><stop offset="1" stop-color="#ff9e00"/></linearGradient><linearGradient id="c" x1="4.204" y1="9.62" x2="57.721" y2="46.516" gradientUnits="userSpaceOnUse"><stop offset="0" stop-color="#ff4267"/><stop offset="1" stop-color="#3b67f6"/></linearGradient></defs><path fill="url(#a)" d="M60.498 3.281L9.639 47.441l10.739 18.031 25.04-4.171L67.471 14.15 60.498 3.281z"/><path fill="url(#b)" d="M65.256 36.17l-26.838 3.684-18.04 25.618L39.102 70 70 46.416 65.256 36.17z"/><path fill="url(#c)" d="M65.283 36.162L35 8.75 10.732 0 0 16.437l8.066 17.948 42.93 13.877 14.287-12.1z"/><g><path d="M7 12h56v46H7z"/><path fill="#fff" d="M11 50h11v3H11z"/><path d="M35 15v5.971h1.775a5 5 0 1 1 0 9.992H35v8.044h-1.8a5 5 0 1 0 0 9.992H35v6h25V15z" fill="#fff"/><path d="M38 50h11v3H38z"/></g></svg>