<svg xmlns="http://www.w3.org/2000/svg" xmlns:xlink="http://www.w3.org/1999/xlink" width="48" height="48" viewBox="0 0 48 48"><rect id="frame" width="48" height="48" fill="none"/><defs><linearGradient id="a" x1="13.731" y1="44.628" x2="42.785" y2="3.152" gradientUnits="userSpaceOnUse"><stop offset="0" stop-color="#c27d1b"/><stop offset="1" stop-color="#59bd28"/></linearGradient><linearGradient id="b" x1="47.326" y1="30.18" x2="13.483" y2="42.388" gradientUnits="userSpaceOnUse"><stop offset="0" stop-color="#4d75f6"/><stop offset="1" stop-color="#ff9e00"/></linearGradient><linearGradient id="c" x1="2.883" y1="6.597" x2="39.58" y2="31.897" gradientUnits="userSpaceOnUse"><stop offset="0" stop-color="#ff4267"/><stop offset="1" stop-color="#3b67f6"/></linearGradient></defs><path fill="url(#a)" d="M41.484 2.25L6.609 32.531l7.364 12.364 17.171-2.86L46.266 9.703 41.484 2.25z"/><path fill="url(#b)" d="M44.747 24.802l-18.403 2.526-12.371 17.567L26.813 48 48 31.828l-3.253-7.026z"/><path fill="url(#c)" d="M44.766 24.797L24 6 7.359 0 0 11.271l5.531 12.307 29.438 9.516 9.797-8.297z"/><g><path d="M5 8h38v32H5z"/><path fill="#fff" d="M8 34h7v2H8z"/><path d="M24 10v4.093h1.2a3.391 3.391 0 0 1 0 6.781H24v6.232h-1.144a3.391 3.391 0 0 0 0 6.781H24V38h17V10z" fill="#fff"/><path d="M26 34h7v2h-7z"/></g></svg>