<svg xmlns="http://www.w3.org/2000/svg" xmlns:xlink="http://www.w3.org/1999/xlink" width="24" height="24" viewBox="0 0 24 24"><rect id="frame" width="24" height="24" fill="none"/><defs><linearGradient id="a" x1="6.866" y1="22.314" x2="21.393" y2="1.576" gradientUnits="userSpaceOnUse"><stop offset="0" stop-color="#c27d1b"/><stop offset="1" stop-color="#59bd28"/></linearGradient><linearGradient id="b" x1="23.663" y1="15.09" x2="6.742" y2="21.194" gradientUnits="userSpaceOnUse"><stop offset="0" stop-color="#4d75f6"/><stop offset="1" stop-color="#ff9e00"/></linearGradient><linearGradient id="c" x1="1.441" y1="3.298" x2="19.79" y2="15.948" gradientUnits="userSpaceOnUse"><stop offset="0" stop-color="#ff4267"/><stop offset="1" stop-color="#3b67f6"/></linearGradient></defs><path fill="url(#a)" d="M20.742 1.125L3.305 16.266l3.682 6.181 8.585-1.429 7.561-16.166-2.391-3.727z"/><path fill="url(#b)" d="M22.373 12.401l-9.201 1.263-6.185 8.783L13.406 24 24 15.914l-1.627-3.513z"/><path fill="url(#c)" d="M22.383 12.398L12 3 3.68 0 0 5.635l2.766 6.154 14.718 4.758 4.899-4.149z"/><g><path d="M2 4h20v16H2z"/><path fill="#fff" d="M4 17h4v1H4z"/><path d="M12 5v2.254h1.111a1.732 1.732 0 0 1 0 3.463H12v2.576h-1.111a1.732 1.732 0 0 0 0 3.463H12V19h9V5z" fill="#fff"/><path d="M13 17h4v1h-4z"/></g></svg>