<svg ti:v="1" width="16" height="16" viewBox="0 0 16 16" xmlns="http://www.w3.org/2000/svg" xmlns:ti="urn:schemas-jetbrains-com:tisvg"><rect id="frame" width="16" height="16" fill="none"/><linearGradient id="a" x1=".5" y1=".013" x2=".5" y2="1.001"><stop offset="0" stop-color="#474C72"/><stop offset="1" stop-color="#7077B3"/></linearGradient><path fill-rule="evenodd" d="M1.231 5.86L1 6.138v.723l.231.278C1.362 7.297 4.487 11 8.5 11s7.138-3.703 7.269-3.861L16 6.86v-.723l-.231-.278C15.638 5.703 12.513 2 8.5 2S1.362 5.703 1.231 5.86z" fill="url(#a)"/><linearGradient id="b" x1=".5" y1="0" x2=".5" y2="1.003"><stop offset="0" stop-color="#FFF"/><stop offset="1" stop-color="#E0DDD0"/></linearGradient><path fill-rule="evenodd" d="M2 6.5S4.91 10 8.5 10 15 6.5 15 6.5 12.09 3 8.5 3 2 6.5 2 6.5z" fill="url(#b)"/><path fill-rule="evenodd" d="M11 6.5a2.5 2.5 0 1 0-5 0 2.5 2.5 0 0 0 5 0z" fill="#005BB3"/><path fill-rule="evenodd" d="M8.5 6.5l-.787-1.838a2.002 2.002 0 0 0-.953.871L8.5 6.5z" fill="#FFF"/><linearGradient id="c" x1=".5" y1="0" x2=".5" y2="1.006"><stop offset="0" stop-color="#006F33"/><stop offset="1" stop-color="#2C8A0A"/></linearGradient><path fill-rule="evenodd" d="M4.882 8L3.25 11.264 3.118 11H0v1.236L1.881 16h2.737L8 9.236V8H4.882z" fill="url(#c)"/><linearGradient id="d" x1=".5" y1=".007" x2=".5" y2="1.007"><stop offset="0" stop-color="#E1FFD6"/><stop offset="1" stop-color="#62F2A5"/></linearGradient><path fill-rule="evenodd" d="M5.5 9l-2.25 4.5L2.5 12H1l1.5 3H4l3-6H5.5z" fill="url(#d)"/></svg>