<svg ti:v="1" width="16" height="16" viewBox="0 0 16 16" xmlns="http://www.w3.org/2000/svg" xmlns:ti="urn:schemas-jetbrains-com:tisvg"><rect id="frame" width="16" height="16" fill="none"/><g fill-rule="evenodd"><path d="M16 6.139l-.23-.278C15.638 5.703 12.513 2 8.5 2S1.362 5.703 1.23 5.86L1 6.14v.723l.23.278C1.362 7.297 4.487 11 8.5 11s7.138-3.703 7.27-3.86l.23-.278v-.723z" fill="#242424"/><path d="M15 6.5S12.09 3 8.5 3 2 6.5 2 6.5 4.91 10 8.5 10 15 6.5 15 6.5z" fill="#C4C4C4"/><path d="M11 6.5a2.5 2.5 0 1 0-5 0 2.5 2.5 0 0 0 5 0z" fill="#292929"/><path d="M8.5 6.5l-.787-1.838a2.002 2.002 0 0 0-.953.871L8.5 6.5z" fill="#292929"/><path d="M8 8H4.882L3.25 11.264 3.118 11H0v1.236L1.882 16h2.736L8 9.236V8z" fill="#242424"/><path d="M2.5 15L1 12h1.5l.75 1.5L5.5 9H7l-3 6H2.5z" fill="#8DCF8D"/></g></svg>