<svg width="64" height="64" viewBox="0 0 64 64" fill="none" xmlns="http://www.w3.org/2000/svg">
<path d="M61 18.4581L58.2479 39.9091L56.7561 49.3486L37.62 61L13.957 42.8412L42.7641 12.671L61 18.4581Z" fill="url(#paint0_linear)"/>
<path d="M37.6458 56.1902L37.6715 57.9135H39.652L40.3207 56.8847L37.6458 56.1902Z" fill="url(#paint1_linear)"/>
<path d="M55.3157 48.3197L58.2478 39.8834L59.9197 52.1007L55.3157 48.3197Z" fill="url(#paint2_linear)"/>
<path d="M61 18.4581L27.5889 41.2723L12.4652 43.5614L42.7641 3.95166L61 18.4581Z" fill="url(#paint3_linear)"/>
<path d="M36.4111 12.4652L42.7641 3.95166L41.6581 21.4931L36.4111 12.4652Z" fill="url(#paint4_linear)"/>
<path d="M12.3109 43.4585L3.64307 37.1827L11.9508 28.9521L36.7969 39.0089L12.3109 43.4585Z" fill="url(#paint5_linear)"/>
<path d="M26.5601 53.2324L7.68115 59.5854L12.4395 46.2364L35.5109 37.3113L48.3969 45.2333L26.5601 53.2324Z" fill="url(#paint6_linear)"/>
<path d="M21.2359 15.2173L11.4106 3L30.3925 5.23769L32.5273 11.4621L21.2359 15.2173Z" fill="url(#paint7_linear)"/>
<path d="M58.2479 39.8834L30.3925 5.2377L20.1557 5.39203L14.3943 22.239L50.6089 42.0954L44.4874 51.0976L56.7562 49.3486L58.2479 39.8834Z" fill="url(#paint8_linear)"/>
<path d="M14.3171 23.2164L7.88696 23.0621L11.4107 3L20.1557 5.39202L14.3171 23.2164Z" fill="url(#paint9_linear)"/>
<path d="M50.6089 42.0953L34.3792 38.5973L3 25.9685L14.5486 22.3933L50.6089 42.0953Z" fill="url(#paint10_linear)"/>
<path d="M19.1269 8.40134L14.5229 22.3934L14.4714 22.4191L14.5486 22.3934L37.2599 34.8164L37.7229 34.9193L47.0852 27.949L19.1269 8.40134Z" fill="url(#paint11_linear)"/>
<path d="M11.4106 3L3 25.9685L13.6998 23.2421L14.5228 22.3933L19.1268 8.40133L11.4106 3Z" fill="url(#paint12_linear)"/>
<path d="M7.68115 59.5854L14.8572 30.8297L34.3792 38.5973L7.68115 59.5854Z" fill="url(#paint13_linear)"/>
<path d="M34.3792 38.5973L23.4994 29.235L8.68431 27.8718L3.64307 37.1827L14.24 32.9131L14.3428 32.8616L7.6812 59.5854L34.3792 38.5973Z" fill="url(#paint14_linear)"/>
<path d="M50.6089 42.0953L40.475 56.9361L26.5344 53.3095L34.3792 38.5973L50.6089 42.0953Z" fill="url(#paint15_linear)"/>
<path d="M50.6089 42.0953L34.3792 38.5973L3 25.9685L14.5486 22.3933L50.6089 42.0953Z" fill="url(#paint16_linear)"/>
<path d="M14.5486 22.3933L3 25.9685L37.2599 34.8164L14.5486 22.3933Z" fill="url(#paint17_linear)"/>
<path d="M56.7561 49.3486L44.1273 51.1233L37.62 61L59.9198 52.1007L56.7561 49.3486Z" fill="url(#paint18_linear)"/>
<path d="M37.62 61L44.3588 51.2004L26.5087 53.3867L37.62 61Z" fill="url(#paint19_linear)"/>
<path d="M47.0852 27.949L32.3215 17.6093L24.5282 27.7947L37.7229 34.9193L46.5708 28.3348L47.0852 27.949Z" fill="url(#paint20_linear)"/>
<path d="M50 14H14V50H50V14Z" fill="url(#paint21_linear)"/>
<g opacity="0.3">
<path d="M49.3604 50L50 49.9232V42.2985L44.7292 50H49.3604Z" fill="url(#paint22_linear)"/>
<path d="M37.0533 14H17.6077L14.742 22.4435L48.4648 40.9424L14.8699 22.5714L14 22.8529V30.2985L34.3412 38.4861L50 41.8635V41.7868V30.1194L37.0533 14Z" fill="url(#paint23_linear)"/>
<path d="M17.6076 14L14.7419 22.4435L49.9999 41.7868V30.1194L37.0532 14H17.6076Z" fill="url(#paint24_linear)"/>
<path d="M14 14V23.4158L14.0512 23.3902L14.8443 22.5714L17.6588 14H14Z" fill="#85FFF6"/>
<path d="M14 22.8529V30.2985L34.3412 38.4861L50 41.8635V41.7868L14.8699 22.5714L14 22.8529Z" fill="url(#paint25_linear)"/>
<path d="M14 28.7889L37.1556 34.7505L14.8699 22.5714L14 22.8529V28.7889Z" fill="url(#paint26_linear)"/>
<path d="M28.1748 50L34.3411 38.4861L19.6545 50H28.1748Z" fill="url(#paint27_linear)"/>
<path d="M14 35.5949L14.6908 32.8316L14.5629 32.8827L14 33.113V35.5949Z" fill="#F7941D"/>
<path d="M14 33.113L14.5629 32.8827L14.6908 32.8316L14 35.5949V50H19.6546L34.3412 38.4861L14 30.2985V33.113Z" fill="url(#paint28_linear)"/>
<path d="M28.1748 50H44.7292L50 42.2985V41.8635L34.3411 38.4861L28.1748 50Z" fill="url(#paint29_linear)"/>
<path d="M47.7996 27.3561L50 25.8721V14H37.0533L47.7996 27.3561Z" fill="url(#paint30_linear)"/>
</g>
<path d="M31.9999 43.1999H18.3999V45.3999H31.9999V43.1999Z" fill="white"/>
<path d="M25.1999 20.9999V18.3999H18.3999V20.9999H20.3999V29.3999H18.3999V31.9999H25.1999V29.3999H23.3999V20.9999H25.1999Z" fill="white"/>
<path d="M31.5999 32.1999C30.6 32.1999 29.5999 31.9999 28.9999 31.5999C28.2 31.1999 27.8 30.7999 27.2 30.1999L28.9999 28.1999C29.3999 28.5999 29.8 28.9999 30.2 29.1999C30.6 29.3999 30.9999 29.5999 31.3999 29.5999C31.9999 29.5999 32.3999 29.3999 32.7999 28.9999C33.1999 28.5999 33.1999 27.9999 33.1999 27.1999V18.3999H36.1999V27.1999C36.1999 27.9999 35.9999 28.7999 35.7999 29.1999C35.5999 29.7999 35.1999 30.1999 34.7999 30.5999C34.3999 30.9999 33.7999 31.3999 33.1999 31.5999C32.9999 31.9999 32.3999 32.1999 31.5999 32.1999Z" fill="white"/>
<defs>
<linearGradient id="paint0_linear" x1="62.27" y1="18.419" x2="48.4647" y2="32.3157" gradientUnits="userSpaceOnUse">
<stop offset="0.2859" stop-color="#087CFA"/>
<stop offset="1" stop-color="#079AF6"/>
</linearGradient>
<linearGradient id="paint1_linear" x1="39.0596" y1="57.4854" x2="39.5401" y2="58.1827" gradientUnits="userSpaceOnUse">
<stop offset="0.2859" stop-color="#087CFA"/>
<stop offset="1" stop-color="#079AF6"/>
</linearGradient>
<linearGradient id="paint2_linear" x1="56.5964" y1="53.3013" x2="60.7577" y2="40.7633" gradientUnits="userSpaceOnUse">
<stop offset="0.2708" stop-color="#08DBF9"/>
<stop offset="0.4026" stop-color="#15CDF3"/>
<stop offset="0.651" stop-color="#36A9E5"/>
<stop offset="0.9871" stop-color="#6B6ECD"/>
<stop offset="1" stop-color="#6D6CCC"/>
</linearGradient>
<linearGradient id="paint3_linear" x1="62.1462" y1="6.30867" x2="28.4235" y2="26.7009" gradientUnits="userSpaceOnUse">
<stop offset="0.286" stop-color="#0AEFFF"/>
<stop offset="0.3292" stop-color="#09DEFA"/>
<stop offset="0.3966" stop-color="#07CAF4"/>
<stop offset="0.442" stop-color="#07C3F2"/>
<stop offset="0.5015" stop-color="#07ACF5"/>
<stop offset="0.5749" stop-color="#0897F7"/>
<stop offset="0.6568" stop-color="#0888F9"/>
<stop offset="0.7528" stop-color="#087FFA"/>
<stop offset="0.8981" stop-color="#087CFA"/>
</linearGradient>
<linearGradient id="paint4_linear" x1="39.5816" y1="2.58232" x2="39.5816" y2="24.9503" gradientUnits="userSpaceOnUse">
<stop offset="0.207" stop-color="#02C5FE"/>
<stop offset="0.317" stop-color="#04ACFD"/>
<stop offset="0.4435" stop-color="#0697FB"/>
<stop offset="0.5845" stop-color="#0788FB"/>
<stop offset="0.7499" stop-color="#087FFA"/>
<stop offset="1" stop-color="#087CFA"/>
</linearGradient>
<linearGradient id="paint5_linear" x1="7.26949" y1="29.2983" x2="17.6006" y2="36.4295" gradientUnits="userSpaceOnUse">
<stop stop-color="#42FFFA"/>
<stop offset="0.157" stop-color="#3AF7F9"/>
<stop offset="0.4049" stop-color="#24E0F6"/>
<stop offset="0.4943" stop-color="#1AD6F5"/>
<stop offset="0.9028" stop-color="#07C3F2"/>
</linearGradient>
<linearGradient id="paint6_linear" x1="18.8361" y1="42.4948" x2="27.2668" y2="51.574" gradientUnits="userSpaceOnUse">
<stop offset="0.3536" stop-color="#07C3F2"/>
<stop offset="0.52" stop-color="#1CAEF2"/>
<stop offset="0.6811" stop-color="#3595F3"/>
<stop offset="0.8463" stop-color="#2089F6"/>
<stop offset="1" stop-color="#087CFA"/>
</linearGradient>
<linearGradient id="paint7_linear" x1="20.6606" y1="1.5071" x2="23.3467" y2="13.259" gradientUnits="userSpaceOnUse">
<stop stop-color="#71FFFB"/>
<stop offset="0.3126" stop-color="#CAFFFE"/>
<stop offset="0.5939" stop-color="#42FFFA"/>
<stop offset="0.6862" stop-color="#3AF7F9"/>
<stop offset="0.8317" stop-color="#23E0F6"/>
<stop offset="0.976" stop-color="#07C3F2"/>
</linearGradient>
<linearGradient id="paint8_linear" x1="18.7294" y1="13.3131" x2="59.2722" y2="45.4998" gradientUnits="userSpaceOnUse">
<stop stop-color="#27E4F6"/>
<stop offset="0.2282" stop-color="#07C3F2"/>
<stop offset="0.3408" stop-color="#07AEF4"/>
<stop offset="0.5521" stop-color="#087CFA"/>
<stop offset="0.7522" stop-color="#087CFA"/>
<stop offset="0.9812" stop-color="#07C3F2"/>
</linearGradient>
<linearGradient id="paint9_linear" x1="9.10543" y1="11.9853" x2="17.3199" y2="15.7323" gradientUnits="userSpaceOnUse">
<stop offset="0.2048" stop-color="#42FFFA"/>
<stop offset="0.2906" stop-color="#68FFFB"/>
<stop offset="0.41" stop-color="#96FFFC"/>
<stop offset="0.53" stop-color="#BCFFFD"/>
<stop offset="0.6485" stop-color="#D9FFFE"/>
<stop offset="0.7651" stop-color="#EEFFFF"/>
<stop offset="0.8792" stop-color="#FBFFFF"/>
<stop offset="0.9874" stop-color="white"/>
</linearGradient>
<linearGradient id="paint10_linear" x1="7.45674" y1="23.501" x2="47.6572" y2="44.4152" gradientUnits="userSpaceOnUse">
<stop offset="0.2464" stop-color="#FE2857"/>
<stop offset="0.292" stop-color="#FE265F"/>
<stop offset="0.3641" stop-color="#FE1F76"/>
<stop offset="0.4534" stop-color="#FF159B"/>
<stop offset="0.4574" stop-color="#FF149D"/>
<stop offset="0.536" stop-color="#EF1AB2"/>
<stop offset="0.6983" stop-color="#C82BE9"/>
<stop offset="0.7574" stop-color="#B831FF"/>
<stop offset="0.811" stop-color="#A33AFE"/>
<stop offset="0.9215" stop-color="#6C52FD"/>
<stop offset="1" stop-color="#4164FC"/>
</linearGradient>
<linearGradient id="paint11_linear" x1="16.2953" y1="14.8279" x2="38.9933" y2="31.0407" gradientUnits="userSpaceOnUse">
<stop offset="0.00823305" stop-color="#42FFFA"/>
<stop offset="0.1549" stop-color="#27E4F6"/>
<stop offset="0.3008" stop-color="#11CDF3"/>
<stop offset="0.3345" stop-color="#0FCBF3"/>
<stop offset="0.5125" stop-color="#07C3F2"/>
<stop offset="0.6963" stop-color="#3595F3"/>
</linearGradient>
<linearGradient id="paint12_linear" x1="7.06633" y1="14.4035" x2="14.9026" y2="19.4295" gradientUnits="userSpaceOnUse">
<stop offset="0.0433729" stop-color="#42FFFA"/>
<stop offset="0.2066" stop-color="#7DFFFB"/>
<stop offset="0.2976" stop-color="#A0FFFC"/>
<stop offset="0.6631" stop-color="#B7FFFF"/>
<stop offset="0.9409" stop-color="#57FFFB"/>
<stop offset="1" stop-color="#42FFFA"/>
</linearGradient>
<linearGradient id="paint13_linear" x1="0.645019" y1="29.1475" x2="36.9257" y2="64.655" gradientUnits="userSpaceOnUse">
<stop offset="0.0226617" stop-color="#FC801D"/>
<stop offset="0.2467" stop-color="#FC7E20"/>
<stop offset="0.276" stop-color="#FC772A"/>
<stop offset="0.3253" stop-color="#FD6444"/>
<stop offset="0.3881" stop-color="#FE466E"/>
<stop offset="0.4273" stop-color="#FF318C"/>
<stop offset="0.4924" stop-color="#EA3896"/>
<stop offset="0.6276" stop-color="#B248AE"/>
<stop offset="0.8194" stop-color="#5A63D6"/>
<stop offset="0.9859" stop-color="#087CFA"/>
</linearGradient>
<linearGradient id="paint14_linear" x1="9.53908" y1="29.2463" x2="20.9891" y2="49.0322" gradientUnits="userSpaceOnUse">
<stop offset="0.00442798" stop-color="#42FFFA"/>
<stop offset="0.1542" stop-color="#42FFFA"/>
<stop offset="0.2294" stop-color="#3BF7F9"/>
<stop offset="0.343" stop-color="#26E3F6"/>
<stop offset="0.4724" stop-color="#07C3F2"/>
<stop offset="0.6565" stop-color="#3595F3"/>
<stop offset="0.8856" stop-color="#3595F3"/>
</linearGradient>
<linearGradient id="paint15_linear" x1="33.3862" y1="39.4466" x2="43.9728" y2="56.3125" gradientUnits="userSpaceOnUse">
<stop offset="0.0211218" stop-color="#087CFA"/>
<stop offset="0.3042" stop-color="#087CFA"/>
<stop offset="0.7942" stop-color="#07C3F2"/>
</linearGradient>
<linearGradient id="paint16_linear" x1="7.45674" y1="23.501" x2="47.6572" y2="44.4152" gradientUnits="userSpaceOnUse">
<stop offset="0.1401" stop-color="#07C3F2"/>
<stop offset="0.321" stop-color="#07AEF4"/>
<stop offset="0.6603" stop-color="#087CFA"/>
<stop offset="1" stop-color="#3595F3"/>
</linearGradient>
<linearGradient id="paint17_linear" x1="11.1419" y1="25.3939" x2="29.6859" y2="35.7086" gradientUnits="userSpaceOnUse">
<stop stop-color="#1DD9F5"/>
<stop offset="0.3352" stop-color="#07C3F2"/>
<stop offset="0.6729" stop-color="#1CAEF2"/>
<stop offset="1" stop-color="#3595F3"/>
</linearGradient>
<linearGradient id="paint18_linear" x1="58.3222" y1="49.5332" x2="37.93" y2="57.1712" gradientUnits="userSpaceOnUse">
<stop stop-color="#07C3F2"/>
<stop offset="0.0971854" stop-color="#05B5ED"/>
<stop offset="0.2458" stop-color="#02A6E9"/>
<stop offset="0.4209" stop-color="#009DE6"/>
<stop offset="0.6854" stop-color="#009AE5"/>
</linearGradient>
<linearGradient id="paint19_linear" x1="27.8551" y1="51.4039" x2="41.7621" y2="56.3758" gradientUnits="userSpaceOnUse">
<stop offset="0.1529" stop-color="#087CFA"/>
<stop offset="0.6343" stop-color="#009AE5"/>
<stop offset="1" stop-color="#05B6EE"/>
</linearGradient>
<linearGradient id="paint20_linear" x1="29.8509" y1="19.4697" x2="38.4173" y2="31.5506" gradientUnits="userSpaceOnUse">
<stop stop-color="#07C3F2"/>
<stop offset="0.6392" stop-color="#3595F3"/>
<stop offset="0.7656" stop-color="#298EF5"/>
<stop offset="0.9941" stop-color="#097DFA"/>
<stop offset="1" stop-color="#087CFA"/>
</linearGradient>
<linearGradient id="paint21_linear" x1="13.4443" y1="16.8734" x2="50.3085" y2="46.9273" gradientUnits="userSpaceOnUse">
<stop offset="0.0162265" stop-color="#022244"/>
<stop offset="0.2475" stop-color="#011327"/>
<stop offset="0.48" stop-color="#010911"/>
<stop offset="0.7054" stop-color="#000204"/>
<stop offset="0.9138"/>
</linearGradient>
<linearGradient id="paint22_linear" x1="44.74" y1="46.1533" x2="50.0117" y2="46.1533" gradientUnits="userSpaceOnUse">
<stop stop-color="#087CFA"/>
<stop offset="0.7942" stop-color="#000216"/>
</linearGradient>
<linearGradient id="paint23_linear" x1="14" y1="27.9321" x2="50.0117" y2="27.9321" gradientUnits="userSpaceOnUse">
<stop offset="0.2464" stop-color="#FE2857"/>
<stop offset="0.292" stop-color="#FE265F"/>
<stop offset="0.3641" stop-color="#FE1F76"/>
<stop offset="0.4534" stop-color="#FF159B"/>
<stop offset="0.4574" stop-color="#FF149D"/>
<stop offset="0.536" stop-color="#EF1AB2"/>
<stop offset="0.6983" stop-color="#C82BE9"/>
<stop offset="0.7574" stop-color="#B831FF"/>
<stop offset="0.811" stop-color="#A33AFE"/>
<stop offset="0.9215" stop-color="#6C52FD"/>
<stop offset="1" stop-color="#4164FC"/>
</linearGradient>
<linearGradient id="paint24_linear" x1="14.7366" y1="27.8911" x2="50.0116" y2="27.8911" gradientUnits="userSpaceOnUse">
<stop stop-color="#42FFFA"/>
<stop offset="0.0408124" stop-color="#3AF7F9"/>
<stop offset="0.1052" stop-color="#23E0F6"/>
<stop offset="0.1691" stop-color="#07C3F2"/>
<stop offset="0.3611" stop-color="#07C3F2"/>
<stop offset="0.5398" stop-color="#0888F9"/>
<stop offset="0.5728" stop-color="#087CFA"/>
<stop offset="0.6996" stop-color="#0659BC"/>
<stop offset="0.9919" stop-color="#000220"/>
<stop offset="1" stop-color="#00001C"/>
</linearGradient>
<linearGradient id="paint25_linear" x1="14" y1="32.2207" x2="50.0117" y2="32.2207" gradientUnits="userSpaceOnUse">
<stop offset="0.0878508" stop-color="#087CFA"/>
<stop offset="0.2751" stop-color="#087CFA"/>
<stop offset="0.2903" stop-color="#0877F1"/>
<stop offset="0.4275" stop-color="#054DA4"/>
<stop offset="0.5498" stop-color="#032C66"/>
<stop offset="0.6528" stop-color="#01143A"/>
<stop offset="0.7324" stop-color="#00051F"/>
<stop offset="0.7791" stop-color="#000015"/>
</linearGradient>
<linearGradient id="paint26_linear" x1="17.4859" y1="27.2696" x2="31.5882" y2="35.1138" gradientUnits="userSpaceOnUse">
<stop stop-color="#07C3F2"/>
<stop offset="0.3478" stop-color="#07AEF4"/>
<stop offset="1" stop-color="#087CFA"/>
</linearGradient>
<linearGradient id="paint27_linear" x1="19.6569" y1="44.2492" x2="34.3287" y2="44.2492" gradientUnits="userSpaceOnUse">
<stop offset="0.0878508" stop-color="#087CFA"/>
<stop offset="0.4746" stop-color="#087CFA"/>
<stop offset="0.4905" stop-color="#0877F1"/>
<stop offset="0.6335" stop-color="#054DA4"/>
<stop offset="0.761" stop-color="#032C66"/>
<stop offset="0.8684" stop-color="#01143A"/>
<stop offset="0.9514" stop-color="#00051F"/>
<stop offset="1" stop-color="#000015"/>
</linearGradient>
<linearGradient id="paint28_linear" x1="14" y1="40.1578" x2="34.3288" y2="40.1578" gradientUnits="userSpaceOnUse">
<stop offset="0.0878508" stop-color="#087CFA"/>
<stop offset="0.4746" stop-color="#087CFA"/>
<stop offset="0.4905" stop-color="#0877F1"/>
<stop offset="0.6335" stop-color="#054DA4"/>
<stop offset="0.761" stop-color="#032C66"/>
<stop offset="0.8684" stop-color="#01143A"/>
<stop offset="0.9514" stop-color="#00051F"/>
<stop offset="1" stop-color="#000015"/>
</linearGradient>
<linearGradient id="paint29_linear" x1="28.187" y1="44.2492" x2="50.0116" y2="44.2492" gradientUnits="userSpaceOnUse">
<stop stop-color="#087CFA"/>
<stop offset="0.7942" stop-color="#000216"/>
</linearGradient>
<linearGradient id="paint30_linear" x1="64.7062" y1="48.2824" x2="41.7586" y2="11.1222" gradientUnits="userSpaceOnUse">
<stop offset="0.1908" stop-color="#3595F3"/>
<stop offset="0.8951" stop-color="#000020"/>
</linearGradient>
</defs>
</svg>
