<svg width="32" height="32" viewBox="0 0 32 32" fill="none" xmlns="http://www.w3.org/2000/svg">
<path d="M30.5 9.2L29.1 20L28.4 24.7L18.8 30.5L7 21.4L21.4 6.3L30.5 9.2Z" fill="url(#paint0_linear)"/>
<path d="M18.8 28.1V29H19.8L20.2001 28.4L18.8 28.1Z" fill="url(#paint1_linear)"/>
<path d="M27.7 24.2L29.1 19.9L30 26L27.7 24.2Z" fill="url(#paint2_linear)"/>
<path d="M30.5 9.2L13.8 20.6L6.19995 21.8L21.4 2L30.5 9.2Z" fill="url(#paint3_linear)"/>
<path d="M18.2 6.2L21.4 2L20.7999 10.7L18.2 6.2Z" fill="url(#paint4_linear)"/>
<path d="M6.20005 21.7L1.80005 18.6L6.00005 14.5L18.4 19.5L6.20005 21.7Z" fill="url(#paint5_linear)"/>
<path d="M13.3 26.6L3.80005 29.8L6.20005 23.1L17.8 18.7L24.2001 22.6L13.3 26.6Z" fill="url(#paint6_linear)"/>
<path d="M10.6 7.6L5.69995 1.5L15.2 2.6L16.3 5.7L10.6 7.6Z" fill="url(#paint7_linear)"/>
<path d="M29.1 19.9L15.2 2.60001L10.1 2.70001L7.19995 11.1L25.2999 21.1L22.2 25.5L28.4 24.7L29.1 19.9Z" fill="url(#paint8_linear)"/>
<path d="M7.20002 11.6L3.90002 11.5L5.70002 1.5L10.1 2.7L7.20002 11.6Z" fill="url(#paint9_linear)"/>
<path d="M25.3 21.1L17.2 19.3L1.5 13L7.3 11.2L25.3 21.1Z" fill="url(#paint10_linear)"/>
<path d="M9.59995 4.2L7.29995 11.2H7.19995H7.29995L18.6 17.4L18.9 17.5L23.5 14L9.59995 4.2Z" fill="url(#paint11_linear)"/>
<path d="M5.7 1.5L1.5 13L6.9 11.6L7.3 11.2L9.6 4.2L5.7 1.5Z" fill="url(#paint12_linear)"/>
<path d="M3.80005 29.8L7.40005 15.4L17.2 19.3L3.80005 29.8Z" fill="url(#paint13_linear)"/>
<path d="M17.2 19.3L11.8 14.6L4.30005 13.9L1.80005 18.6L7.10005 16.4H7.20005L3.80005 29.8L17.2 19.3Z" fill="url(#paint14_linear)"/>
<path d="M25.3 21.1L20.2 28.5L13.3 26.7L17.2 19.3L25.3 21.1Z" fill="url(#paint15_linear)"/>
<path d="M25.3 21.1L17.2 19.3L1.5 13L7.3 11.2L25.3 21.1Z" fill="url(#paint16_linear)"/>
<path d="M7.3 11.2L1.5 13L18.6 17.4L7.3 11.2Z" fill="url(#paint17_linear)"/>
<path d="M28.4 24.7L22.1 25.6L18.8 30.5L30 26L28.4 24.7Z" fill="url(#paint18_linear)"/>
<path d="M18.8 30.5L22.2 25.6L13.2 26.7L18.8 30.5Z" fill="url(#paint19_linear)"/>
<path d="M23.5 14L16.2 8.8L12.3 13.9L18.9 17.5L23.3 14.2L23.5 14Z" fill="url(#paint20_linear)"/>
<path d="M25 7H7V25H25V7Z" fill="url(#paint21_linear)"/>
<g opacity="0.2">
<path d="M24.6802 25L25 24.9616V21.1492L22.3646 25H24.6802Z" fill="url(#paint22_linear)"/>
<path d="M18.5267 7H8.80384L7.371 11.2217L24.2324 20.4712L7.43497 11.2857L7 11.4264V15.1493L17.1706 19.2431L25 20.9318V20.8934V15.0597L18.5267 7Z" fill="url(#paint23_linear)"/>
<path d="M8.80381 7L7.37097 11.2217L25 20.8934V15.0597L18.5266 7H8.80381Z" fill="url(#paint24_linear)"/>
<path d="M7 7V11.7079L7.02559 11.6951L7.42217 11.2857L8.82942 7H7Z" fill="#85FFF6"/>
<path d="M7 11.4264V15.1493L17.1706 19.2431L25 20.9318V20.8934L7.43497 11.2857L7 11.4264Z" fill="url(#paint25_linear)"/>
<path d="M7 14.3945L18.5778 17.3753L7.43497 11.2857L7 11.4264V14.3945Z" fill="url(#paint26_linear)"/>
<path d="M14.0874 25L17.1706 19.2431L9.82727 25H14.0874Z" fill="url(#paint27_linear)"/>
<path d="M7 17.7975L7.34542 16.4158L7.28145 16.4414L7 16.5565V17.7975Z" fill="#F7941D"/>
<path d="M7 16.5565L7.28145 16.4414L7.34542 16.4158L7 17.7974V25H9.82729L17.1706 19.2431L7 15.1493V16.5565Z" fill="url(#paint28_linear)"/>
<path d="M14.0874 25H22.3646L25 21.1493V20.9318L17.1706 19.2431L14.0874 25Z" fill="url(#paint29_linear)"/>
<path d="M23.8999 13.678L25.0001 12.936V7H18.5267L23.8999 13.678Z" fill="url(#paint30_linear)"/>
</g>
<path d="M15.9 21.4H9.09998V23H15.9V21.4Z" fill="white"/>
<path d="M12 10.3382V9H9V10.3382H9.88235V14.6618H9V16H12V14.6618H11.2059V10.3382H12Z" fill="white"/>
<path d="M15.4444 16C14.8889 16 14.3333 15.8986 14 15.6957C13.5556 15.4928 13.3333 15.2899 13 14.9855L14 13.971C14.2222 14.1739 14.4444 14.3768 14.6667 14.4783C14.8889 14.5797 15.1111 14.6812 15.3333 14.6812C15.6667 14.6812 15.8889 14.5797 16.1111 14.3768C16.3333 14.1739 16.3333 13.8696 16.3333 13.4638V9H18V13.4638C18 13.8696 17.8889 14.2754 17.7778 14.4783C17.6667 14.7826 17.4444 14.9855 17.2222 15.1884C17 15.3913 16.6667 15.5942 16.3333 15.6957C16.2222 15.8986 15.8889 16 15.4444 16Z" fill="white"/>
<defs>
<linearGradient id="paint0_linear" x1="31.1318" y1="9.2087" x2="24.2299" y2="16.1563" gradientUnits="userSpaceOnUse">
<stop offset="0.2859" stop-color="#087CFA"/>
<stop offset="1" stop-color="#079AF6"/>
</linearGradient>
<linearGradient id="paint1_linear" x1="19.5279" y1="28.7398" x2="19.7681" y2="29.0884" gradientUnits="userSpaceOnUse">
<stop offset="0.2859" stop-color="#087CFA"/>
<stop offset="1" stop-color="#079AF6"/>
</linearGradient>
<linearGradient id="paint2_linear" x1="28.2954" y1="26.648" x2="30.3759" y2="20.3797" gradientUnits="userSpaceOnUse">
<stop offset="0.2708" stop-color="#08DBF9"/>
<stop offset="0.4026" stop-color="#15CDF3"/>
<stop offset="0.651" stop-color="#36A9E5"/>
<stop offset="0.9871" stop-color="#6B6ECD"/>
<stop offset="1" stop-color="#6D6CCC"/>
</linearGradient>
<linearGradient id="paint3_linear" x1="31.0699" y1="3.1542" x2="14.2103" y2="13.3492" gradientUnits="userSpaceOnUse">
<stop offset="0.286" stop-color="#0AEFFF"/>
<stop offset="0.3292" stop-color="#09DEFA"/>
<stop offset="0.3966" stop-color="#07CAF4"/>
<stop offset="0.442" stop-color="#07C3F2"/>
<stop offset="0.5015" stop-color="#07ACF5"/>
<stop offset="0.5749" stop-color="#0897F7"/>
<stop offset="0.6568" stop-color="#0888F9"/>
<stop offset="0.7528" stop-color="#087FFA"/>
<stop offset="0.8981" stop-color="#087CFA"/>
</linearGradient>
<linearGradient id="paint4_linear" x1="19.7889" y1="1.2912" x2="19.7889" y2="12.474" gradientUnits="userSpaceOnUse">
<stop offset="0.207" stop-color="#02C5FE"/>
<stop offset="0.317" stop-color="#04ACFD"/>
<stop offset="0.4435" stop-color="#0697FB"/>
<stop offset="0.5845" stop-color="#0788FB"/>
<stop offset="0.7499" stop-color="#087FFA"/>
<stop offset="1" stop-color="#087CFA"/>
</linearGradient>
<linearGradient id="paint5_linear" x1="3.63455" y1="14.6478" x2="8.79955" y2="18.213" gradientUnits="userSpaceOnUse">
<stop stop-color="#42FFFA"/>
<stop offset="0.157" stop-color="#3AF7F9"/>
<stop offset="0.4049" stop-color="#24E0F6"/>
<stop offset="0.4943" stop-color="#1AD6F5"/>
<stop offset="0.9028" stop-color="#07C3F2"/>
</linearGradient>
<linearGradient id="paint6_linear" x1="9.41725" y1="21.2453" x2="13.6321" y2="25.7844" gradientUnits="userSpaceOnUse">
<stop offset="0.3536" stop-color="#07C3F2"/>
<stop offset="0.52" stop-color="#1CAEF2"/>
<stop offset="0.6811" stop-color="#3595F3"/>
<stop offset="0.8463" stop-color="#2089F6"/>
<stop offset="1" stop-color="#087CFA"/>
</linearGradient>
<linearGradient id="paint7_linear" x1="10.3293" y1="0.7536" x2="11.6723" y2="6.6289" gradientUnits="userSpaceOnUse">
<stop stop-color="#71FFFB"/>
<stop offset="0.3126" stop-color="#CAFFFE"/>
<stop offset="0.5939" stop-color="#42FFFA"/>
<stop offset="0.6862" stop-color="#3AF7F9"/>
<stop offset="0.8317" stop-color="#23E0F6"/>
<stop offset="0.976" stop-color="#07C3F2"/>
</linearGradient>
<linearGradient id="paint8_linear" x1="9.36375" y1="6.65601" x2="29.6331" y2="22.7476" gradientUnits="userSpaceOnUse">
<stop stop-color="#27E4F6"/>
<stop offset="0.2282" stop-color="#07C3F2"/>
<stop offset="0.3408" stop-color="#07AEF4"/>
<stop offset="0.5521" stop-color="#087CFA"/>
<stop offset="0.7522" stop-color="#087CFA"/>
<stop offset="0.9812" stop-color="#07C3F2"/>
</linearGradient>
<linearGradient id="paint9_linear" x1="4.55242" y1="5.9922" x2="8.65922" y2="7.8655" gradientUnits="userSpaceOnUse">
<stop offset="0.2048" stop-color="#42FFFA"/>
<stop offset="0.2906" stop-color="#68FFFB"/>
<stop offset="0.41" stop-color="#96FFFC"/>
<stop offset="0.53" stop-color="#BCFFFD"/>
<stop offset="0.6485" stop-color="#D9FFFE"/>
<stop offset="0.7651" stop-color="#EEFFFF"/>
<stop offset="0.8792" stop-color="#FBFFFF"/>
<stop offset="0.9874" stop-color="white"/>
</linearGradient>
<linearGradient id="paint10_linear" x1="3.7281" y1="11.7494" x2="23.8262" y2="22.2054" gradientUnits="userSpaceOnUse">
<stop offset="0.2464" stop-color="#FE2857"/>
<stop offset="0.292" stop-color="#FE265F"/>
<stop offset="0.3641" stop-color="#FE1F76"/>
<stop offset="0.4534" stop-color="#FF159B"/>
<stop offset="0.4574" stop-color="#FF149D"/>
<stop offset="0.536" stop-color="#EF1AB2"/>
<stop offset="0.6983" stop-color="#C82BE9"/>
<stop offset="0.7574" stop-color="#B831FF"/>
<stop offset="0.811" stop-color="#A33AFE"/>
<stop offset="0.9215" stop-color="#6C52FD"/>
<stop offset="1" stop-color="#4164FC"/>
</linearGradient>
<linearGradient id="paint11_linear" x1="8.14685" y1="7.4133" x2="19.4947" y2="15.5189" gradientUnits="userSpaceOnUse">
<stop offset="0.00823305" stop-color="#42FFFA"/>
<stop offset="0.1549" stop-color="#27E4F6"/>
<stop offset="0.3008" stop-color="#11CDF3"/>
<stop offset="0.3345" stop-color="#0FCBF3"/>
<stop offset="0.5125" stop-color="#07C3F2"/>
<stop offset="0.6963" stop-color="#3595F3"/>
</linearGradient>
<linearGradient id="paint12_linear" x1="3.533" y1="7.2011" x2="7.4506" y2="9.7139" gradientUnits="userSpaceOnUse">
<stop offset="0.0433729" stop-color="#42FFFA"/>
<stop offset="0.2066" stop-color="#7DFFFB"/>
<stop offset="0.2976" stop-color="#A0FFFC"/>
<stop offset="0.6631" stop-color="#B7FFFF"/>
<stop offset="0.9409" stop-color="#57FFFB"/>
<stop offset="1" stop-color="#42FFFA"/>
</linearGradient>
<linearGradient id="paint13_linear" x1="0.322649" y1="14.5723" x2="18.4611" y2="32.3242" gradientUnits="userSpaceOnUse">
<stop offset="0.0226617" stop-color="#FC801D"/>
<stop offset="0.2467" stop-color="#FC7E20"/>
<stop offset="0.276" stop-color="#FC772A"/>
<stop offset="0.3253" stop-color="#FD6444"/>
<stop offset="0.3881" stop-color="#FE466E"/>
<stop offset="0.4273" stop-color="#FF318C"/>
<stop offset="0.4924" stop-color="#EA3896"/>
<stop offset="0.6276" stop-color="#B248AE"/>
<stop offset="0.8194" stop-color="#5A63D6"/>
<stop offset="0.9859" stop-color="#087CFA"/>
</linearGradient>
<linearGradient id="paint14_linear" x1="4.76925" y1="14.6217" x2="10.4936" y2="24.5137" gradientUnits="userSpaceOnUse">
<stop offset="0.00442798" stop-color="#42FFFA"/>
<stop offset="0.1542" stop-color="#42FFFA"/>
<stop offset="0.2294" stop-color="#3BF7F9"/>
<stop offset="0.343" stop-color="#26E3F6"/>
<stop offset="0.4724" stop-color="#07C3F2"/>
<stop offset="0.6565" stop-color="#3595F3"/>
<stop offset="0.8856" stop-color="#3595F3"/>
</linearGradient>
<linearGradient id="paint15_linear" x1="16.6915" y1="19.7213" x2="21.9842" y2="28.1534" gradientUnits="userSpaceOnUse">
<stop offset="0.0211218" stop-color="#087CFA"/>
<stop offset="0.3042" stop-color="#087CFA"/>
<stop offset="0.7942" stop-color="#07C3F2"/>
</linearGradient>
<linearGradient id="paint16_linear" x1="3.7281" y1="11.7494" x2="23.8262" y2="22.2054" gradientUnits="userSpaceOnUse">
<stop offset="0.1401" stop-color="#07C3F2"/>
<stop offset="0.321" stop-color="#07AEF4"/>
<stop offset="0.6603" stop-color="#087CFA"/>
<stop offset="1" stop-color="#3595F3"/>
</linearGradient>
<linearGradient id="paint17_linear" x1="5.5705" y1="12.6958" x2="14.8415" y2="17.8526" gradientUnits="userSpaceOnUse">
<stop stop-color="#1DD9F5"/>
<stop offset="0.3352" stop-color="#07C3F2"/>
<stop offset="0.6729" stop-color="#1CAEF2"/>
<stop offset="1" stop-color="#3595F3"/>
</linearGradient>
<linearGradient id="paint18_linear" x1="29.1581" y1="24.7641" x2="18.9631" y2="28.5827" gradientUnits="userSpaceOnUse">
<stop stop-color="#07C3F2"/>
<stop offset="0.0971854" stop-color="#05B5ED"/>
<stop offset="0.2458" stop-color="#02A6E9"/>
<stop offset="0.4209" stop-color="#009DE6"/>
<stop offset="0.6854" stop-color="#009AE5"/>
</linearGradient>
<linearGradient id="paint19_linear" x1="13.9262" y1="25.6994" x2="20.879" y2="28.1851" gradientUnits="userSpaceOnUse">
<stop offset="0.1529" stop-color="#087CFA"/>
<stop offset="0.6343" stop-color="#009AE5"/>
<stop offset="1" stop-color="#05B6EE"/>
</linearGradient>
<linearGradient id="paint20_linear" x1="14.924" y1="9.734" x2="19.2068" y2="15.7738" gradientUnits="userSpaceOnUse">
<stop stop-color="#07C3F2"/>
<stop offset="0.6392" stop-color="#3595F3"/>
<stop offset="0.7656" stop-color="#298EF5"/>
<stop offset="0.9941" stop-color="#097DFA"/>
<stop offset="1" stop-color="#087CFA"/>
</linearGradient>
<linearGradient id="paint21_linear" x1="6.72216" y1="8.43669" x2="25.1542" y2="23.4636" gradientUnits="userSpaceOnUse">
<stop offset="0.0162265" stop-color="#022244"/>
<stop offset="0.2475" stop-color="#011327"/>
<stop offset="0.48" stop-color="#010911"/>
<stop offset="0.7054" stop-color="#000204"/>
<stop offset="0.9138"/>
</linearGradient>
<linearGradient id="paint22_linear" x1="22.37" y1="23.0766" x2="25.0059" y2="23.0766" gradientUnits="userSpaceOnUse">
<stop stop-color="#087CFA"/>
<stop offset="0.7942" stop-color="#000216"/>
</linearGradient>
<linearGradient id="paint23_linear" x1="7" y1="13.966" x2="25.0058" y2="13.966" gradientUnits="userSpaceOnUse">
<stop offset="0.2464" stop-color="#FE2857"/>
<stop offset="0.292" stop-color="#FE265F"/>
<stop offset="0.3641" stop-color="#FE1F76"/>
<stop offset="0.4534" stop-color="#FF159B"/>
<stop offset="0.4574" stop-color="#FF149D"/>
<stop offset="0.536" stop-color="#EF1AB2"/>
<stop offset="0.6983" stop-color="#C82BE9"/>
<stop offset="0.7574" stop-color="#B831FF"/>
<stop offset="0.811" stop-color="#A33AFE"/>
<stop offset="0.9215" stop-color="#6C52FD"/>
<stop offset="1" stop-color="#4164FC"/>
</linearGradient>
<linearGradient id="paint24_linear" x1="7.36829" y1="13.9455" x2="25.0058" y2="13.9455" gradientUnits="userSpaceOnUse">
<stop stop-color="#42FFFA"/>
<stop offset="0.0408124" stop-color="#3AF7F9"/>
<stop offset="0.1052" stop-color="#23E0F6"/>
<stop offset="0.1691" stop-color="#07C3F2"/>
<stop offset="0.3611" stop-color="#07C3F2"/>
<stop offset="0.5398" stop-color="#0888F9"/>
<stop offset="0.5728" stop-color="#087CFA"/>
<stop offset="0.6996" stop-color="#0659BC"/>
<stop offset="0.9919" stop-color="#000220"/>
<stop offset="1" stop-color="#00001C"/>
</linearGradient>
<linearGradient id="paint25_linear" x1="7" y1="16.1103" x2="25.0058" y2="16.1103" gradientUnits="userSpaceOnUse">
<stop offset="0.0878508" stop-color="#087CFA"/>
<stop offset="0.2751" stop-color="#087CFA"/>
<stop offset="0.2903" stop-color="#0877F1"/>
<stop offset="0.4275" stop-color="#054DA4"/>
<stop offset="0.5498" stop-color="#032C66"/>
<stop offset="0.6528" stop-color="#01143A"/>
<stop offset="0.7324" stop-color="#00051F"/>
<stop offset="0.7791" stop-color="#000015"/>
</linearGradient>
<linearGradient id="paint26_linear" x1="8.74293" y1="13.6348" x2="15.7941" y2="17.5569" gradientUnits="userSpaceOnUse">
<stop stop-color="#07C3F2"/>
<stop offset="0.3478" stop-color="#07AEF4"/>
<stop offset="1" stop-color="#087CFA"/>
</linearGradient>
<linearGradient id="paint27_linear" x1="9.82843" y1="22.1246" x2="17.1644" y2="22.1246" gradientUnits="userSpaceOnUse">
<stop offset="0.0878508" stop-color="#087CFA"/>
<stop offset="0.4746" stop-color="#087CFA"/>
<stop offset="0.4905" stop-color="#0877F1"/>
<stop offset="0.6335" stop-color="#054DA4"/>
<stop offset="0.761" stop-color="#032C66"/>
<stop offset="0.8684" stop-color="#01143A"/>
<stop offset="0.9514" stop-color="#00051F"/>
<stop offset="1" stop-color="#000015"/>
</linearGradient>
<linearGradient id="paint28_linear" x1="7" y1="20.0789" x2="17.1644" y2="20.0789" gradientUnits="userSpaceOnUse">
<stop offset="0.0878508" stop-color="#087CFA"/>
<stop offset="0.4746" stop-color="#087CFA"/>
<stop offset="0.4905" stop-color="#0877F1"/>
<stop offset="0.6335" stop-color="#054DA4"/>
<stop offset="0.761" stop-color="#032C66"/>
<stop offset="0.8684" stop-color="#01143A"/>
<stop offset="0.9514" stop-color="#00051F"/>
<stop offset="1" stop-color="#000015"/>
</linearGradient>
<linearGradient id="paint29_linear" x1="14.0935" y1="22.1246" x2="25.0058" y2="22.1246" gradientUnits="userSpaceOnUse">
<stop stop-color="#087CFA"/>
<stop offset="0.7942" stop-color="#000216"/>
</linearGradient>
<linearGradient id="paint30_linear" x1="32.3532" y1="24.1412" x2="20.8794" y2="5.5611" gradientUnits="userSpaceOnUse">
<stop offset="0.1908" stop-color="#3595F3"/>
<stop offset="0.8951" stop-color="#000020"/>
</linearGradient>
</defs>
</svg>
