<svg xmlns="http://www.w3.org/2000/svg" width="16" height="16" viewBox="0 0 16 16">
  <title>cpp(Gray)</title>
  <g>
    <rect width="16" height="16" fill="#ffe3ff" opacity="0"/>
    <g>
      <g>
        <polygon points="2 15 2 1 9.414 1 14 5.586 14 15 2 15" fill="#f4f4f4"/>
        <polygon points="9 2 3 2 3 14 13 14 13 6 9 2" fill="#323232"/>
        <polygon points="9 6 9 4 5 4 5 12 11 12 11 6 9 6" fill="#ebebeb"/>
      </g>
      <g>
        <polygon points="2 15 2 13 0 13 0 9 2 9 2 7 6 7 6 9 7 9 7 13 6 13 6 15 2 15" fill="#f4f4f4" fill-rule="evenodd"/>
        <polygon points="7 10 5 10 5 8 3 8 3 10 1 10 1 12 3 12 3 14 5 14 5 12 7 12 7 10" fill="#a04898" fill-rule="evenodd"/>
        <polygon points="8 16 8 14 6 14 6 10 8 10 8 8 12 8 12 10 14 10 14 14 12 14 12 16 8 16" fill="#f4f4f4" fill-rule="evenodd"/>
        <polygon points="13 11 11 11 11 9 9 9 9 11 7 11 7 13 9 13 9 15 11 15 11 13 13 13 13 11" fill="#a04898" fill-rule="evenodd"/>
      </g>
    </g>
  </g>
</svg>
