<svg xmlns="http://www.w3.org/2000/svg" width="16" height="16" viewBox="0 0 16 16">
  <title>razorCSharp(GrayDark)</title>
  <g>
    <rect width="16" height="16" fill="#ffe3ff" opacity="0"/>
    <g>
      <g>
        <polygon points="2 15 2 1 9.414 1 14 5.586 14 15 2 15" fill="#252525"/>
        <polygon points="9 2 3 2 3 14 13 14 13 6 9 2" fill="#c4c4c4"/>
        <polygon points="9 6 9 4 5 4 5 12 11 12 11 6 9 6" fill="#292929"/>
      </g>
      <g>
        <path d="M2.5,16A2.754,2.754,0,0,1,0,13V12A2.754,2.754,0,0,1,2.5,9H10v1h1v5H10v1Z" fill="#252525"/>
        <path d="M2,12.5C2,14.016,3,14,3,14H4v1H2.5C1.672,15,1,14.1,1,13V12c0-1.1.672-2,1.5-2H4v1H3S2,10.984,2,12.5Zm8-.5V11H9V10H8v1H7V10H6v1H5v1H6v1H5v1H6v1H7V14H8v1H9V14h1V13H9V12ZM8,13H7V12H8Z" fill="#86d086"/>
      </g>
      <g>
        <path d="M3.15,9C1.384,9,0,7.243,0,5V4A4,4,0,0,1,4,0H5A3.957,3.957,0,0,1,9,4,2.976,2.976,0,0,1,8,6.273V9Z" fill="#252525"/>
        <path d="M1,4V5c0,1.657.963,3,2.15,3H7V7H2.7A.7.7,0,0,1,2,6.3V2.7A.7.7,0,0,1,2.7,2H6.3a.7.7,0,0,1,.7.7V4c0,.3-.516,1-1,1V3.7A.7.7,0,0,0,5.3,3H4.5a1.5,1.5,0,0,0,0,3H6A1.94,1.94,0,0,0,8,4,2.961,2.961,0,0,0,5,1H4A3,3,0,0,0,1,4ZM5,5H4V4H5Z" fill="#c674d3"/>
      </g>
    </g>
  </g>
</svg>
