<svg xmlns="http://www.w3.org/2000/svg" width="16" height="16" viewBox="0 0 16 16">
  <title>razorVBasic(Gray)</title>
  <g>
    <rect width="16" height="16" fill="#ffe3ff" opacity="0"/>
    <g>
      <g>
        <polygon points="2 15 2 1 9.414 1 14 5.586 14 15 2 15" fill="#f4f4f4"/>
        <polygon points="9 2 3 2 3 14 13 14 13 6 9 2" fill="#323232"/>
        <polygon points="9 6 9 4 5 4 5 12 11 12 11 6 9 6" fill="#ebebeb"/>
      </g>
      <g>
        <path d="M3.15,16C1.384,16,0,14.243,0,12V11A4,4,0,0,1,4,7H5a3.957,3.957,0,0,1,4,4,2.976,2.976,0,0,1-1,2.273V16Z" fill="#f4f4f4"/>
        <path d="M1,11v1c0,1.657.963,3,2.15,3H7V14H2.7a.7.7,0,0,1-.7-.7V9.7A.7.7,0,0,1,2.7,9H6.3a.7.7,0,0,1,.7.7V11c0,.3-.516,1-1,1V10.7a.7.7,0,0,0-.7-.7H4.5a1.5,1.5,0,0,0,0,3H6a1.94,1.94,0,0,0,2-2A2.961,2.961,0,0,0,5,8H4A3,3,0,0,0,1,11Zm4,1H4V11H5Z" fill="#8e00b5"/>
      </g>
    </g>
  </g>
</svg>
