<svg xmlns="http://www.w3.org/2000/svg" width="16" height="16">
  <path fill="#252525" d="M0 1H14V13H0z"/>
  <path fill="#c4c4c4" d="M1 2L1 5 1 12 13 12 13 5 13 2 1 2z"/>
  <path fill="#292929" d="M2 5H13V12H2z"/>
  <g>
    <path fill="#252525" d="M9.965 5L5 12.448 5 13.368 10.264 16 10.736 16 16 13.368 16 12.448 11.035 5 9.965 5z"/>
    <path fill="#c674d3" d="M15 12.75L10.5 6 6 12.75 10.5 15 15 12.75z"/>
    <path fill="#292929" d="M10.5 7.803L10.5 13.882 13.54 12.362 10.5 7.803z"/>
  </g>
  <g>
    <path fill="#252525" d="M3 11L3 6.375 0 2.947 0 1 10 1 10 2.947 7 6.375 7 11 3 11z"/>
    <path fill="#2baae8" fill-rule="evenodd" d="M1 2L1 2.571 4 6 4 10 6 10 6 6 9 2.571 9 2 1 2z"/>
  </g>
</svg>
