<svg xmlns="http://www.w3.org/2000/svg" width="16" height="16" viewBox="0 0 16 16">
  <g fill="none" fill-rule="evenodd">
    <path fill="#40B6E0" fill-opacity=".6" d="M8,15 C4.134,15 1,11.866 1,8 C1,4.134 4.134,1 8,1 C11.5264786,1 14.4438834,3.607701 14.9291115,7 L8,7 L8,15 Z"/>
    <path fill="#231F20" fill-opacity=".7" d="M9.9316 6.2637L11.1496 5.5607C10.4176 4.6177 9.2856 3.9997 7.9996 3.9997 6.7286 3.9997 5.6096 4.6047 4.8756 5.5297 4.8756 5.5297 7.3826 3.0877 9.9316 6.2637M5.5674 7.083L4.3484 6.38C4.1284 6.876 4.0004 7.422 4.0004 8 4.0004 10.052 5.5494 11.723 7.5404 11.954 7.5404 11.954 4.1474 11.323 5.5674 7.083"/>
    <g transform="translate(9 8)">
      <polygon fill="#9AA7B0" fill-opacity=".8" points="0 0 0 8 6 8 6 0"/>
      <path fill="#231F20" fill-opacity=".7" fill-rule="nonzero" d="M1,4 L5,4 L5,3 L1,3 L1,4 Z M1,6 L5,6 L5,5 L1,5 L1,6 Z M1,2 L5,2 L5,1 L1,1 L1,2 Z"/>
    </g>
  </g>
</svg>
