<svg xmlns="http://www.w3.org/2000/svg" width="16" height="16" viewBox="0 0 16 16">
  <g fill="none" fill-rule="evenodd">
    <path fill="#40B6E0" fill-opacity=".6" d="M14.9590019,8.76201904 C14.3102573,6.75310557 12.4248242,5.3 10.2,5.3 C7.43857625,5.3 5.2,7.53857625 5.2,10.3 C5.2,12.4462567 6.55228772,14.2766697 8.45130955,14.9856853 C8.30209537,14.9951801 8.15161057,15 8,15 C4.134,15 1,11.866 1,8 C1,4.134 4.134,1 8,1 C11.866,1 15,4.134 15,8 C15,8.25749011 14.9860974,8.51173302 14.9590019,8.76201904 Z"/>
    <path fill="#231F20" fill-opacity=".7" d="M9.10836004 5.41952088C6.86917874 3.58780958 4.8756 5.5297 4.8756 5.5297 5.6096 4.6047 6.7286 3.9997 7.9996 3.9997 9.19253379 3.9997 10.2529506 4.53148884 10.9844868 5.36118617 10.7289081 5.32091175 10.4668962 5.3 10.2 5.3 9.82504872 5.3 9.45973703 5.341272 9.10836004 5.41952088zM5.25931728 9.52746727C5.22026502 9.77925984 5.2 10.0372633 5.2 10.3 5.2 10.4941247 5.21106286 10.6856656 5.23259253 10.8740266 4.47339428 10.1514851 4.0004 9.13391263 4.0004 8 4.0004 7.422 4.1284 6.876 4.3484 6.38L5.5674 7.083C5.23115382 8.08700269 5.16477719 8.88864526 5.25931728 9.52746727z"/>
    <polygon fill="#9AA7B0" points="13.171 11.857 14.638 11.857 14.638 16.019 13.171 16.019" transform="rotate(-45 13.905 13.938)"/>
    <path fill="#9AA7B0" d="M10.2333333,14.1666667 C8.11624179,14.1666667 6.4,12.4504249 6.4,10.3333333 C6.4,8.21624179 8.11624179,6.5 10.2333333,6.5 C12.3504249,6.5 14.0666667,8.21624179 14.0666667,10.3333333 C14.0666667,12.4504249 12.3504249,14.1666667 10.2333333,14.1666667 Z M10.2333333,12.8333333 C11.6140452,12.8333333 12.7333333,11.7140452 12.7333333,10.3333333 C12.7333333,8.95262146 11.6140452,7.83333333 10.2333333,7.83333333 C8.85262146,7.83333333 7.73333333,8.95262146 7.73333333,10.3333333 C7.73333333,11.7140452 8.85262146,12.8333333 10.2333333,12.8333333 Z"/>
  </g>
</svg>
