<svg xmlns="http://www.w3.org/2000/svg" width="16" height="16" viewBox="0 0 16 16">
  <title>JsonOptionPage(Gray)</title>
  <g>
    <rect width="16" height="16" fill="#ffe3ff" opacity="0"/>
    <g>
      <path d="M7.9,14a3.71,3.71,0,0,1-2.511-.743,3.192,3.192,0,0,1-.927-2.538v-1.5c0-.061,0-.11-.006-.149H3V5.919H4.452a1.6,1.6,0,0,0,.01-.194V4.331a3.3,3.3,0,0,1,.9-2.549A3.62,3.62,0,0,1,7.9,1H9V4.169H7.965c0,.025,0,1.318,0,1.318a3.189,3.189,0,0,1-.653,2.007,3.241,3.241,0,0,1,.653,2.031s0,1.27,0,1.3H9V14Zm3.2,0a3.71,3.71,0,0,0,2.511-.743,3.192,3.192,0,0,0,.927-2.538v-1.5c0-.061,0-.11.006-.149H16V5.919H14.548a1.6,1.6,0,0,1-.01-.194V4.331a3.3,3.3,0,0,0-.9-2.549A3.62,3.62,0,0,0,11.1,1H10V4.169h1.035c0,.025,0,1.318,0,1.318a3.189,3.189,0,0,0,.653,2.007,3.241,3.241,0,0,0-.653,2.031s0,1.27,0,1.3H10V14Z" fill="#f4f4f4"/>
      <path d="M5.86,7.381v.225a1.958,1.958,0,0,1,1.1,1.919v1.181a1.344,1.344,0,0,0,.219.869.9.9,0,0,0,.718.256H8V13H7.9a2.815,2.815,0,0,1-1.857-.5,2.263,2.263,0,0,1-.58-1.781v-1.5q0-1.15-.891-1.15H4V6.919h.572q.891,0,.891-1.194V4.331a2.364,2.364,0,0,1,.574-1.809A2.729,2.729,0,0,1,7.9,2H8V3.169H7.9q-.937,0-.937,1.087V5.488A1.942,1.942,0,0,1,5.86,7.381Zm7.28,0v.225a1.958,1.958,0,0,0-1.1,1.919v1.181a1.344,1.344,0,0,1-.219.869.9.9,0,0,1-.718.256H11V13h.1a2.815,2.815,0,0,0,1.857-.5,2.263,2.263,0,0,0,.58-1.781v-1.5q0-1.15.891-1.15H15V6.919h-.572q-.891,0-.891-1.194V4.331a2.364,2.364,0,0,0-.574-1.809A2.729,2.729,0,0,0,11.1,2H11V3.169h.1q.938,0,.937,1.087V5.488A1.942,1.942,0,0,0,13.14,7.381Z" fill="#f16421"/>
    </g>
  </g>
</svg>
