<svg xmlns="http://www.w3.org/2000/svg" width="16" height="16" viewBox="0 0 16 16"><rect id="frame" width="16" height="16" fill="none"/><g fill="#9AA7B0" fill-rule="evenodd"><path fill-opacity=".8" d="M10 9.345a3.453 3.453 0 0 0-1.548 1.507A2.728 2.728 0 0 0 7.81 11H2V5h4V1h4v8.345zm2-.309a3.468 3.468 0 0 0-1 0V3h1v6.036zM6.062 13H3v-1h3.502c-.209.296-.36.634-.44 1zM14 10.08a3.438 3.438 0 0 0-1-.736V5h1v5.08zM6.393 15H5v-1h1.031c.056.361.181.7.362 1zM5 1v3H2l3-3z"/><path d="M14.256 12.265a2.809 2.809 0 0 0-5.25-.75A2.248 2.248 0 0 0 9.25 16h4.875C15.16 16 16 15.16 16 14.125c0-.99-.769-1.793-1.744-1.86z"/></g></svg>