<svg xmlns="http://www.w3.org/2000/svg" width="16" height="16" viewBox="0 0 16 16"><rect id="frame" width="16" height="16" fill="none"/><g fill="none" fill-rule="evenodd"><path fill="#62B543" fill-opacity=".7" d="M6.084 14.26a22.531 22.531 0 0 0-1.637-.005s-.504.028-1.013.112c0 0 .193-.082.438-.167.874-.302 1.547-.498 2.129-.676a2.799 2.799 0 0 0 .083.735zM12 9.035c.518-.838.893-1.74 1.053-2.654-.32.936-.88 1.825-1.58 2.618a3.436 3.436 0 0 0-3.022 1.852 2.746 2.746 0 0 0-2.119 1.419c-1.661.504-3.83.936-3.83.936l-.121-.064C.354 12.157.298 7.77 3.979 6.355c1.614-.62 3.158-.279 4.902-.695 1.86-.442 4.015-1.84 4.89-3.66.834 2.47 1.81 6.12.797 8.89A3.433 3.433 0 0 0 12 9.037z"/><path fill="#9AA7B0" d="M14.256 12.265a2.809 2.809 0 0 0-5.25-.75A2.248 2.248 0 0 0 9.25 16h4.875C15.16 16 16 15.16 16 14.125c0-.99-.769-1.793-1.744-1.86z"/></g></svg>