<svg xmlns="http://www.w3.org/2000/svg" width="48" height="48" viewBox="0 0 48 48"><rect id="frame" width="48" height="48" fill="none"/><path fill="#9AA7B0" d="M36.828 37.402L29.048 24l7.78-13.403L40.44 24l-3.61 13.402zM19.6 35.965L9.577 26h15.627l7.871 13.556-13.476-3.59zm0-23.93l13.476-3.592L25.205 22H9.576L19.6 12.034zM41.305 23.98l2.688-4.63L39.318 2 21.87 6.648l-.025.007-2.696 4.642h-5.377L1 24l12.773 12.702.018.018h5.391l2.69 4.63L39.317 46l4.675-17.352.007-.024-2.695-4.643z" fill-rule="evenodd" opacity=".8"/></svg>