<svg ti:v="1" width="16" height="16" viewBox="0 0 16 16" xmlns="http://www.w3.org/2000/svg" xmlns:ti="urn:schemas-jetbrains-com:tisvg"><rect id="frame" width="16" height="16" fill="none"/><g fill-rule="evenodd"><path d="M15 15H1V2h14v13z" fill="#F4F4F4"/><path d="M2 14h12V6H2v8z" fill="#313131"/><path d="M13 13H3V6h10v7z" fill="#EBEBEB"/><path d="M14 6H2V3h12v3z" fill="#313131"/><path d="M0 5.414l2.043 2.043h1.414V5.871L8 10.5 10.5 8 5.871 3.457h1.586V2.043L5.414 0H0v5.414z" fill="#F4F4F4"/><path d="M6.5 2.5h-3L9 8 8 9 2.5 3.5v3L1 5V1h4l1.5 1.5z" fill="#00529C"/></g></svg>