<svg ti:v="1" width="16" height="16" viewBox="0 0 16 16" xmlns="http://www.w3.org/2000/svg" xmlns:ti="urn:schemas-jetbrains-com:tisvg"><rect id="frame" width="16" height="16" fill="none"/><path d="M15 15H1V2h14zm0 0" fill="#252525"/><path d="M2 6h12v8H2z" fill="#4E4E50"/><path d="M13 13H3V6h10zm0 0" fill="#292929"/><path d="M2 3h12v3H2z" fill="#4E4E50"/><path d="M0 5.41l2.04 2.05h1.42V5.87L8 10.5 10.5 8 5.87 3.46h1.59V2.04L5.41 0H0v5.41z" fill="#252525"/><path d="M6.5 2.5h-3L9 8 8 9 2.5 3.5v3L1 5V1h4l1.5 1.5z" fill="#4E4E50"/></svg>