<svg ti:v="1" width="16" height="16" viewBox="0 0 16 16" xmlns="http://www.w3.org/2000/svg" xmlns:ti="urn:schemas-jetbrains-com:tisvg"><rect id="frame" width="16" height="16" fill="none"/><g fill-rule="evenodd"><path d="M4 0v1.351l4 5V13h1.414L12 10.414V6.35l4-5V0H4z" fill="#F4F4F4"/><path d="M15 1l-4 5v4l-2 2V6L5 1h10z" fill="#313131"/><path d="M10 16l-4-4-2.224 3c-.394.414-.953 1-1.547 1a2.163 2.163 0 0 1-1.574-.685A2.423 2.423 0 0 1 0 13.642c.001-.63.674-1.089 1.095-1.533L4 9.999 1.829 8c-1.032-.858-.666-1.505.119-2.324A2.12 2.12 0 0 1 3.498 5c.712 0 1.077.764 1.315 1L6 8l5-3h2l-5 5 5 6h-3z" fill="#F4F4F4"/><path d="M7 10l4-4h-.564L6 9 3.96 6.282c-.346-.395-1.047-.342-1.387 0a.995.995 0 0 0 0 1.405L5 10l-3.814 3.309a.992.992 0 0 0 0 1.404c.387.39.999.39 1.387 0L6 11l4.5 4h.5l-4-5z" fill="#A1260C"/></g></svg>