<svg ti:v="1" width="16" height="16" viewBox="0 0 16 16" xmlns="http://www.w3.org/2000/svg" xmlns:ti="urn:schemas-jetbrains-com:tisvg"><rect id="frame" width="16" height="16" fill="none"/><path fill-rule="evenodd" d="M4 0v1.351l4 5V13h1.414L12 10.414V6.35l4-5V0H4z" fill="#3F8187"/><linearGradient id="a" x1="0" y1=".5" x2="1" y2=".5"><stop offset="0" stop-color="#B8E2FF"/><stop offset=".399" stop-color="#F4F4F4"/><stop offset="1" stop-color="#70BCE4"/></linearGradient><path fill-rule="evenodd" d="M15 1l-4 5v4l-2 2V6L5 1h10z" fill="url(#a)"/><linearGradient id="b" x1=".5" y1="-.024" x2=".5" y2=".992"><stop offset="0" stop-color="#8C0900"/><stop offset="1" stop-color="#C60000"/></linearGradient><path fill-rule="evenodd" d="M11 5L6 8 4.813 6c-.237-.236-.603-1-1.315-1-.587 0-1.137.24-1.549.675C1.163 6.494.797 7.14 1.829 8L4 10l-2.906 2.109c-.42.444-1.093.903-1.094 1.533-.001.63.232 1.223.655 1.673.422.442.98.685 1.574.685.594 0 1.153-.586 1.547-1L6 12l4 4h3l-5-6 5-5h-2z" fill="url(#b)"/><linearGradient id="c" x1=".5" y1="-.023" x2=".5" y2=".996"><stop offset="0" stop-color="#FFA88E"/><stop offset="1" stop-color="red"/></linearGradient><path fill-rule="evenodd" d="M10.436 6L6 9 3.96 6.282c-.346-.396-1.047-.342-1.387 0a.995.995 0 0 0 0 1.405L5 10l-3.814 3.309a.992.992 0 0 0 0 1.404.97.97 0 0 0 1.387 0L6 11l4.5 4h.5l-4-5 4-4h-.564z" fill="url(#c)"/></svg>