<svg ti:v="1" width="16" height="16" viewBox="0 0 16 16" xmlns="http://www.w3.org/2000/svg" xmlns:ti="urn:schemas-jetbrains-com:tisvg"><rect id="frame" width="16" height="16" fill="none"/><g fill-rule="evenodd"><path d="M1 16V5c0-2.757 2.243-5 5-5h9v16H1z" fill="#F4F4F4"/><path d="M6 1a4 4 0 0 0-4 4v10h12V1H6z" fill="#313131"/><path d="M3 14V5c0-1.654 1.346-3 3-3h7v12H3z" fill="#EBEBEB"/><path d="M11.376 14L16 9.954v-.908L11.376 5H10v2H9V5H7.624L3 9.046v.908L7.624 14H9v-2h1v2h1.376z" fill="#F4F4F4"/><path d="M8.5 10V9h1V8H8V6L4 9.5 8 13v-2h1.5v-1h-1z" fill="#A1260C"/><path d="M15 9.5L11 6v2H9.5v1h1v1h-1v1H11v2l4-3.5z" fill="#00529C"/></g></svg>