<svg ti:v="1" width="16" height="16" viewBox="0 0 16 16" xmlns="http://www.w3.org/2000/svg" xmlns:ti="urn:schemas-jetbrains-com:tisvg"><rect id="frame" width="16" height="16" fill="none"/><linearGradient id="a" x1=".5" y1=".005" x2=".5" y2="1.005"><stop offset="0" stop-color="#5D6D56"/><stop offset=".012" stop-color="#5D6D56"/><stop offset="1" stop-color="#465233"/></linearGradient><path fill-rule="evenodd" d="M10.464 0l-.782 1.175A4.115 4.115 0 0 0 8.501 1c-.399 0-.794.059-1.183.175L6.535 0H3.131l1.831 2.746A6.957 6.957 0 0 0 4.092 4H2v2H1v3h1v5h2.744c.987 1.255 2.311 2 3.757 2 1.445 0 2.769-.745 3.755-2H15V9h1V6h-1V4h-2.091a7.097 7.097 0 0 0-.87-1.256L13.868 0h-3.404z" fill="url(#a)"/><radialGradient id="b" fx="0" fy="0" cx="0" cy="0" r="1" gradientTransform="matrix(.44891 0 0 .31078 .487 .502)"><stop offset="0" stop-color="#82FF80"/><stop offset=".012" stop-color="#82FF80"/><stop offset=".861" stop-color="#41D16E"/><stop offset=".988" stop-color="#00A35D"/><stop offset="1" stop-color="#00A35D"/></radialGradient><path fill-rule="evenodd" d="M4 8.5C4 12.089 6.015 15 8.5 15c2.486 0 4.5-2.911 4.5-6.5C13 4.91 10.986 2 8.5 2 6.015 2 4 4.91 4 8.5z" fill="url(#b)"/><linearGradient id="c" x1=".5" y1=".063" x2=".5" y2=".979"><stop offset="0" stop-color="#999"/><stop offset=".012" stop-color="#999"/><stop offset=".988"/><stop offset="1"/></linearGradient><path fill-rule="evenodd" d="M5.51 5.436C6.43 5.807 7.449 6 8.501 6c1.051 0 2.07-.193 2.99-.564C10.861 3.952 9.724 3 8.501 3c-1.223 0-2.362.952-2.991 2.436z" fill="url(#c)"/><path fill-rule="evenodd" d="M9 7h-.999v7H9V7z"/><path fill-rule="evenodd" d="M12.983 9h-.004c-.02.344-.051.684-.104 1.006H13v3h1v-4h-1.017M15 8v-.994L12.874 7c.053.324.084.66.104 1m-8.96 1H3v4h1v-3h.125a9.215 9.215 0 0 1-.107-1zm8.636-3H14V5l-1.715-.008c.143.322.269.66.371 1.018zM4.125 7H2v1h2.018c.018-.342.054-.675.107-1zm.221-1H3V5h1.712c-.14.316-.265.649-.366 1zm6.404-3.124L12 1h-1l-.944 1.407c.243.13.476.286.697.472zm-4.499 0L5 1h1l.94 1.41c-.24.128-.47.283-.689.466z" fill="#C1FFBF"/></svg>