<svg ti:v="1" width="16" height="16" viewBox="0 0 16 16" xmlns="http://www.w3.org/2000/svg" xmlns:ti="urn:schemas-jetbrains-com:tisvg"><rect id="frame" width="16" height="16" fill="none"/><g fill-rule="evenodd"><path d="M8.5 16c-1.445 0-2.77-.745-3.756-2H1.999V9h-1V6h1V4h2.093c.253-.463.545-.885.869-1.254L3.131 0h3.404l.783 1.175A4.117 4.117 0 0 1 8.5 1c.398 0 .793.059 1.181.175L10.464 0h3.404l-1.83 2.744c.324.371.617.793.87 1.256h2.091v2h1v3h-1v5h-2.743c-.986 1.255-2.311 2-3.756 2z" fill="#F4F4F4"/><path d="M15 7h-2.125a8.47 8.47 0 0 0-.221-1H14V5h-1.711c-.389-.874-.916-1.603-1.54-2.124L12 1h-1l-.939 1.409A3.294 3.294 0 0 0 8.501 2c-.55 0-1.074.149-1.561.41L6 1H5l1.251 1.876C5.628 3.397 5.1 4.126 4.712 5H3v1h1.347a8.47 8.47 0 0 0-.221 1H2v1h2.018a9.173 9.173 0 0 0-.017.5c0 .169.008.334.017.5H3v4h1v-3h.126c.469 2.865 2.247 5 4.375 5 2.127 0 3.905-2.135 4.374-5H13v3h1V9h-1.017c.009-.166.018-.331.018-.5 0-.169-.009-.334-.018-.5H15V7z" fill="#313131"/><path d="M8.5 6a8.017 8.017 0 0 1-2.991-.564C6.139 3.951 7.277 3 8.5 3s2.361.951 2.991 2.436A8.017 8.017 0 0 1 8.5 6z" fill="#EBEBEB"/><path d="M9 7h-.999v7H9V7z" fill="#EBEBEB"/></g></svg>