<svg ti:v="1" width="16" height="16" viewBox="0 0 16 16" xmlns="http://www.w3.org/2000/svg" xmlns:ti="urn:schemas-jetbrains-com:tisvg"><rect id="frame" width="16" height="16" fill="none"/><linearGradient id="a" x1=".5" y1="0" x2=".5" y2="1"><stop offset="0" stop-color="#007387"/><stop offset="1" stop-color="#000E60"/></linearGradient><path fill-rule="evenodd" d="M5 7.5a5.5 5.5 0 0 0 11 0 5.5 5.5 0 1 0-11 0z" fill="url(#a)"/><linearGradient id="b" x1=".5" y1="0" x2=".5" y2="1"><stop offset="0" stop-color="#870037"/><stop offset="1" stop-color="#440024"/></linearGradient><path fill-rule="evenodd" d="M8 4h5V0H8v4z" fill="url(#b)"/><linearGradient id="c" x1=".5" y1="0" x2=".5" y2="1"><stop offset="0" stop-color="#FFACC9"/><stop offset="1" stop-color="#FF70B6"/></linearGradient><path fill-rule="evenodd" d="M9 1v1h.5v1.5h2V2h.5V1H9z" fill="url(#c)"/><linearGradient id="d" x1=".5" y1="0" x2=".5" y2="1"><stop offset="0" stop-color="#90BFFF"/><stop offset="1" stop-color="#C1E6FF"/></linearGradient><path fill-rule="evenodd" d="M6 7.5a4.5 4.5 0 1 0 9 0 4.5 4.5 0 0 0-9 0z" fill="url(#d)"/><linearGradient id="e" x1=".5" y1="0" x2=".5" y2="1"><stop offset="0" stop-color="#F2FFFD"/><stop offset="1" stop-color="#BFF2FF"/></linearGradient><path fill-rule="evenodd" d="M7 7.5a3.5 3.5 0 0 0 7 0c0-.608-.169-1.171-.441-1.669l.195-.253A.952.952 0 0 0 13 4.05a.958.958 0 0 0-.58.198l-.251.194A3.456 3.456 0 0 0 10.5 4 3.5 3.5 0 0 0 7 7.5z" fill="url(#e)"/><linearGradient id="f" x1="0" y1=".5" x2="1" y2=".5"><stop offset="0" stop-color="#870037"/><stop offset="1" stop-color="#440024"/></linearGradient><path fill-rule="evenodd" d="M12.848 4.802l-2.776 2.144A.7.7 0 0 0 10.5 8.2a.694.694 0 0 0 .554-.273l2.144-2.774A.25.25 0 0 0 13 4.75a.24.24 0 0 0-.152.052z" fill="url(#f)"/><linearGradient id="g" x1=".5" y1="0" x2=".5" y2="1"><stop offset="0" stop-color="#007387"/><stop offset="1" stop-color="#000E60"/></linearGradient><path fill-rule="evenodd" d="M0 10.5a5.5 5.5 0 1 0 11 0 5.5 5.5 0 0 0-11 0z" fill="url(#g)"/><linearGradient id="h" x1=".5" y1="0" x2=".5" y2="1"><stop offset="0" stop-color="#870037"/><stop offset="1" stop-color="#440024"/></linearGradient><path fill-rule="evenodd" d="M3 7h5V2.999H3V7z" fill="url(#h)"/><linearGradient id="i" x1=".5" y1="0" x2=".5" y2="1"><stop offset="0" stop-color="#FFACC9"/><stop offset="1" stop-color="#FF70B6"/></linearGradient><path fill-rule="evenodd" d="M4 4v1h.5v1.5h2V5H7V4H4z" fill="url(#i)"/><linearGradient id="j" x1=".5" y1="0" x2=".5" y2="1"><stop offset="0" stop-color="#90BFFF"/><stop offset="1" stop-color="#C1E6FF"/></linearGradient><path fill-rule="evenodd" d="M1 10.5a4.5 4.5 0 0 0 9 0 4.5 4.5 0 1 0-9 0z" fill="url(#j)"/><linearGradient id="k" x1=".5" y1="0" x2=".5" y2="1"><stop offset="0" stop-color="#F2FFFD"/><stop offset="1" stop-color="#BFF2FF"/></linearGradient><path fill-rule="evenodd" d="M2 10.5a3.5 3.5 0 1 0 7 0c0-.608-.169-1.171-.442-1.669l.196-.253A.952.952 0 0 0 8 7.05a.958.958 0 0 0-.58.198l-.251.194A3.456 3.456 0 0 0 5.5 7 3.5 3.5 0 0 0 2 10.5z" fill="url(#k)"/><linearGradient id="l" x1="0" y1=".5" x2="1" y2=".5"><stop offset="0" stop-color="#870037"/><stop offset="1" stop-color="#440024"/></linearGradient><path fill-rule="evenodd" d="M7.847 7.802L5.073 9.946A.7.7 0 0 0 5.5 11.2a.704.704 0 0 0 .555-.272l2.143-2.776A.25.25 0 0 0 8 7.75c-.057 0-.11.02-.153.052z" fill="url(#l)"/></svg>