<svg ti:v="1" width="16" height="16" viewBox="0 0 16 16" xmlns="http://www.w3.org/2000/svg" xmlns:ti="urn:schemas-jetbrains-com:tisvg"><rect id="frame" width="16" height="16" fill="none"/><g fill-rule="evenodd"><path d="M16 7.5a5.5 5.5 0 1 1-11 0A5.5 5.5 0 0 1 10.5 2 5.5 5.5 0 0 1 16 7.5z" fill="#F4F4F4"/><path d="M13 4H8V0h5v4z" fill="#F4F4F4"/><path d="M9 1v1h.5v1.5h2V2h.5V1H9z" fill="#313131"/><path d="M10.5 3a4.5 4.5 0 1 0 0 9 4.5 4.5 0 0 0 0-9z" fill="#313131"/><path d="M13.559 5.831l.195-.253A.959.959 0 0 0 13.951 5a.952.952 0 0 0-1.531-.752l-.25.194A3.464 3.464 0 0 0 10.5 4 3.5 3.5 0 1 0 14 7.5c0-.608-.169-1.17-.441-1.669z" fill="#EBEBEB"/><path d="M13 4.75c-.058 0-.11.02-.153.052l-2.774 2.144a.7.7 0 1 0 .981.981l2.144-2.774A.25.25 0 0 0 13 4.75z" fill="#313131"/><path d="M11 10.5a5.5 5.5 0 1 1-11 0A5.5 5.5 0 0 1 5.5 5a5.5 5.5 0 0 1 5.5 5.5z" fill="#F4F4F4"/><path d="M8 7H3V3h5v4z" fill="#F4F4F4"/><path d="M4 4v1h.5v1.5h2V5H7V4H4z" fill="#313131"/><path d="M5.5 6a4.5 4.5 0 1 0 0 9 4.5 4.5 0 0 0 0-9z" fill="#313131"/><path d="M8.559 8.831l.195-.253A.959.959 0 0 0 8.951 8a.952.952 0 0 0-1.531-.752l-.25.194A3.464 3.464 0 0 0 5.5 7 3.5 3.5 0 1 0 9 10.5c0-.608-.169-1.17-.441-1.669z" fill="#EBEBEB"/><path d="M8 7.75c-.058 0-.11.02-.153.052L5.073 9.946a.7.7 0 1 0 .981.981l2.144-2.774A.25.25 0 0 0 8 7.75z" fill="#313131"/></g></svg>