<svg ti:v="1" width="16" height="16" viewBox="0 0 16 16" xmlns="http://www.w3.org/2000/svg" xmlns:ti="urn:schemas-jetbrains-com:tisvg"><rect id="frame" width="16" height="16" fill="none"/><linearGradient id="a" x1=".5" y1="0" x2=".5" y2="1"><stop offset="0" stop-color="#0080A1"/><stop offset="1" stop-color="#004987"/></linearGradient><path fill-rule="evenodd" d="M0 8a8 8 0 0 0 8 8 8 8 0 0 0 8-8 8 8 0 0 0-8-8 8 8 0 0 0-8 8z" fill="url(#a)"/><linearGradient id="b" x1=".5" y1="0" x2=".5" y2="1"><stop offset="0" stop-color="#00AED8"/><stop offset="1" stop-color="#008CFF"/></linearGradient><path fill-rule="evenodd" d="M1 8a7 7 0 0 0 7 7A7 7 0 1 0 8 1a7 7 0 0 0-7 7z" fill="url(#b)"/><path fill-rule="evenodd" d="M7 9l3 3H7L3 8l4-4h3L7 7h6v2H7z" fill="#FFF"/></svg>