<svg ti:v="1" width="16" height="16" viewBox="0 0 16 16" xmlns="http://www.w3.org/2000/svg" xmlns:ti="urn:schemas-jetbrains-com:tisvg"><rect id="frame" width="16" height="16" fill="none"/><linearGradient id="a" x1=".5" y1=".005" x2=".5" y2="1.005"><stop offset="0" stop-color="#566980"/><stop offset="1" stop-color="#2D3641"/></linearGradient><path fill-rule="evenodd" d="M6 0C3.243 0 1 2.243 1 5v11h14V0H6z" fill="url(#a)"/><path fill-rule="evenodd" d="M6 1a4 4 0 0 0-4 4v10h12V1H6z" fill="#FFF"/><linearGradient id="b" x1=".5" y1="0" x2=".5" y2="1.008"><stop offset="0" stop-color="#A5B1BC"/><stop offset="1" stop-color="#DFEFFF"/></linearGradient><path fill-rule="evenodd" d="M6 2C4.346 2 3 3.346 3 5v9h10V2H6z" fill="url(#b)"/><linearGradient id="c" x1=".5" y1=".009" x2=".5" y2=".988"><stop offset="0" stop-color="#3A6937"/><stop offset="1" stop-color="#1F3B1D"/></linearGradient><path fill-rule="evenodd" d="M9 0v1.236L9.382 2H6v5h3.382L9 7.764V9h3.514l3.215-4.5L12.514 0H9z" fill="url(#c)"/><linearGradient id="d" x1=".5" y1=".013" x2=".5" y2="1.144"><stop offset="0" stop-color="#CDFFCC"/><stop offset="1" stop-color="#6DFF80"/></linearGradient><path fill-rule="evenodd" d="M10 1l1 2H7v3h4l-1 2h2l2.5-3.5L12 1h-2z" fill="url(#d)"/><linearGradient id="e" x1=".5" y1=".003" x2=".5" y2="1.007"><stop offset="0" stop-color="#695F37"/><stop offset="1" stop-color="#3F2D1F"/></linearGradient><path fill-rule="evenodd" d="M3.485 7L.271 11.5 3.485 16H7v-1.236L6.618 14H10V9H6.618L7 8.236V7H3.485z" fill="url(#e)"/><linearGradient id="f" x1=".5" y1=".005" x2=".5" y2="1"><stop offset="0" stop-color="#FFF4AA"/><stop offset=".994" stop-color="#FFA360"/><stop offset="1" stop-color="#FFA360"/></linearGradient><path fill-rule="evenodd" d="M4 8l-2.5 3.5L4 15h2l-1-2h4v-3H5l1-2H4z" fill="url(#f)"/></svg>