<svg ti:v="1" width="16" height="16" viewBox="0 0 16 16" xmlns="http://www.w3.org/2000/svg" xmlns:ti="urn:schemas-jetbrains-com:tisvg"><rect id="frame" width="16" height="16" fill="none"/><linearGradient id="a" x1=".5" y1="0" x2=".5" y2="1"><stop offset="0" stop-color="#566980"/><stop offset="1" stop-color="#2D3641"/></linearGradient><path fill-rule="evenodd" d="M6 0C3.243 0 1 2.243 1 5v11h14V0H6z" fill="url(#a)"/><path fill-rule="evenodd" d="M6 1a4 4 0 0 0-4 4v10h12V1H6z" fill="#FFF"/><linearGradient id="b" x1=".5" y1=".013" x2=".5" y2="1.013"><stop offset="0" stop-color="#A5B1BC"/><stop offset="1" stop-color="#DFEFFF"/></linearGradient><path fill-rule="evenodd" d="M6 2C4.346 2 3 3.346 3 5v9h10V2H6z" fill="url(#b)"/><linearGradient id="c" x1=".5" y1=".003" x2=".5" y2="1.007"><stop offset="0" stop-color="#695F37"/><stop offset="1" stop-color="#3F2D1F"/></linearGradient><path fill-rule="evenodd" d="M5.05 5L.729 10.5 5.05 16H9v-1.303L7.868 13H12V8H7.868L9 6.303V5H5.05z" fill="url(#c)"/><linearGradient id="d" x1=".5" y1=".005" x2=".5" y2="1"><stop offset="0" stop-color="#FFF4AA"/><stop offset=".994" stop-color="#FFA360"/><stop offset="1" stop-color="#FFA360"/></linearGradient><path fill-rule="evenodd" d="M5.536 6L2 10.5 5.536 15H8l-2-3h5V9H6l2-3H5.536z" fill="url(#d)"/></svg>