<svg ti:v="1" width="16" height="16" viewBox="0 0 16 16" xmlns="http://www.w3.org/2000/svg" xmlns:ti="urn:schemas-jetbrains-com:tisvg"><rect id="frame" width="16" height="16" fill="none"/><g fill-rule="evenodd"><path d="M1 16V5c0-2.757 2.243-5 5-5h9v16H1z" fill="#F4F4F4"/><path d="M6 1a4 4 0 0 0-4 4v10h12V1H6z" fill="#313131"/><path d="M3 14V5c0-1.654 1.346-3 3-3h7v12H3z" fill="#EBEBEB"/><path d="M11.951 0H8v1.303L9.132 3H5v5h4.132L8 9.697V11h3.951L16 5.846v-.692L11.951 0z" fill="#F4F4F4"/><path d="M11.465 10H9l2-3H6V4h5L9 1h2.465L15 5.5 11.465 10z" fill="#00529C"/></g></svg>