<svg ti:v="1" width="16" height="16" viewBox="0 0 16 16" xmlns="http://www.w3.org/2000/svg" xmlns:ti="urn:schemas-jetbrains-com:tisvg"><rect id="frame" width="16" height="16" fill="none"/><g fill-rule="evenodd"><path d="M1 16V5c0-2.757 2.243-5 5-5h9v16H1z" fill="#F4F4F4"/><path d="M6 1a4 4 0 0 0-4 4v10h12V1H6z" fill="#313131"/><path d="M3 14V5c0-1.654 1.346-3 3-3h7v12H3z" fill="#EBEBEB"/><path d="M12.515 0H9v1.236L9.382 2H6v5h3.382L9 7.764V9h3.515l3.214-4.5L12.515 0z" fill="#F4F4F4"/><path d="M12 8h-2l1-2H7V3h4l-1-2h2l2.5 3.5L12 8z" fill="#00529C"/><path d="M3.485 7H7v1.236L6.618 9H10v5H6.618l.382.764V16H3.485L.271 11.5 3.485 7z" fill="#F4F4F4"/><path d="M4 15h2l-1-2h4v-3H5l1-2H4l-2.5 3.5L4 15z" fill="#00529C"/></g></svg>