<svg ti:v="1" width="16" height="16" viewBox="0 0 16 16" xmlns="http://www.w3.org/2000/svg" xmlns:ti="urn:schemas-jetbrains-com:tisvg"><rect id="frame" width="16" height="16" fill="none"/><g fill-rule="evenodd"><path d="M1 16V5c0-2.757 2.243-5 5-5h9v16H1z" fill="#242424"/><path d="M6 1a4 4 0 0 0-4 4v10h12V1H6z" fill="#C3C3C3"/><path d="M3 14V5c0-1.654 1.346-3 3-3h7v12H3z" fill="#292929"/><path d="M5.049 5H9v1.303L7.868 8H12v5H7.868L9 14.697V16H5.049L.728 10.5 5.049 5z" fill="#242424"/><path d="M5.535 15H8l-2-3h5V9H6l2-3H5.535L2 10.5 5.535 15z" fill="#7CBDFF"/></g></svg>