<svg ti:v="1" width="16" height="16" viewBox="0 0 16 16" xmlns="http://www.w3.org/2000/svg" xmlns:ti="urn:schemas-jetbrains-com:tisvg"><rect id="frame" width="16" height="16" fill="none"/><linearGradient id="a" x1=".5" y1="0" x2=".5" y2="1"><stop offset="0" stop-color="#566980"/><stop offset="1" stop-color="#2D3641"/></linearGradient><path fill-rule="evenodd" d="M6 0C3.243 0 1 2.243 1 5v11h14V0H6z" fill="url(#a)"/><path fill-rule="evenodd" d="M6 1a4 4 0 0 0-4 4v10h12V1H6z" fill="#FFF"/><linearGradient id="b" x1=".5" y1=".013" x2=".5" y2="1.013"><stop offset="0" stop-color="#A5B1BC"/><stop offset="1" stop-color="#DFEFFF"/></linearGradient><path fill-rule="evenodd" d="M6 2C4.346 2 3 3.346 3 5v9h10V2H6z" fill="url(#b)"/><linearGradient id="c" x1=".5" y1=".009" x2=".5" y2=".988"><stop offset="0" stop-color="#3A6937"/><stop offset="1" stop-color="#1F3B1D"/></linearGradient><path fill-rule="evenodd" d="M8 0v1.303L9.131 3H5v5h4.131L8 9.697V11h3.951L16 5.845v-.691L11.951 0H8z" fill="url(#c)"/><linearGradient id="d" x1=".5" y1=".013" x2=".5" y2="1.144"><stop offset="0" stop-color="#CDFFCC"/><stop offset="1" stop-color="#6DFF80"/></linearGradient><path fill-rule="evenodd" d="M9 1l2 3H6v3h5l-2 3h2.465L15 5.5 11.465 1H9z" fill="url(#d)"/></svg>