<svg ti:v="1" width="16" height="16" viewBox="0 0 16 16" xmlns="http://www.w3.org/2000/svg" xmlns:ti="urn:schemas-jetbrains-com:tisvg"><rect id="frame" width="16" height="16" fill="none"/><linearGradient id="a" x1=".5" y1=".014" x2=".5" y2="1"><stop offset="0" stop-color="#2164A5"/><stop offset="1" stop-color="#0E365D"/></linearGradient><path fill-rule="evenodd" d="M0 8a8 8 0 0 0 16 0A8 8 0 0 0 0 8z" fill="url(#a)"/><linearGradient id="b" x1=".5" y1=".004" x2=".5" y2="1.004"><stop offset="0" stop-color="#56BFFF"/><stop offset="1" stop-color="#009EFF"/></linearGradient><path fill-rule="evenodd" d="M1 8a7 7 0 1 0 14 0 7 7 0 0 0-7-7 7 7 0 0 0-7 7z" fill="url(#b)"/><linearGradient id="c" x1=".5" y1="-.002" x2=".5" y2="1.004"><stop offset="0" stop-color="#F4FFF7"/><stop offset="1" stop-color="#B5FFFD"/></linearGradient><path fill-rule="evenodd" d="M6.187 6h3.625C9.447 4.125 8.619 3 8 3S6.553 4.125 6.187 6zm4.639 0h1.752a5.012 5.012 0 0 0-2.68-2.622c.417.688.744 1.583.928 2.622zM3.421 6h1.754c.183-1.039.512-1.935.929-2.622A5.024 5.024 0 0 0 3.421 6zm7.534 1c.027.327.045.659.045 1 0 .342-.018.674-.045 1h1.944a4.988 4.988 0 0 0 0-2M6.048 7C6.02 7.319 6 7.65 6 8s.02.681.048 1h3.904c.029-.319.048-.65.048-1s-.019-.681-.048-1M3.1 7a5.07 5.07 0 0 0 0 2h1.945A11.646 11.646 0 0 1 5 8c0-.341.017-.673.045-1m5.781 3c-.184 1.039-.511 1.935-.928 2.622A5.008 5.008 0 0 0 12.578 10m-6.391 0c.366 1.875 1.194 3 1.813 3s1.447-1.125 1.812-3m-6.391 0a5.02 5.02 0 0 0 2.683 2.622c-.417-.687-.746-1.583-.929-2.622H3.421z" fill="url(#c)"/><linearGradient id="d" x1=".5" y1=".009" x2=".5" y2=".988"><stop offset="0" stop-color="#3A6937"/><stop offset="1" stop-color="#1F3B1D"/></linearGradient><path fill-rule="evenodd" d="M3 5v1.302L4.132 8H0v5h4.132L3 14.698V16h3.95L11 10.846v-.692L6.95 5H3z" fill="url(#d)"/><linearGradient id="e" x1=".5" y1=".013" x2=".5" y2="1.144"><stop offset="0" stop-color="#CDFFCC"/><stop offset="1" stop-color="#6DFF80"/></linearGradient><path fill-rule="evenodd" d="M4 6l2 3H1v3h5l-2 3h2.464L10 10.5 6.464 6H4z" fill="url(#e)"/></svg>