<svg ti:v="1" width="16" height="16" viewBox="0 0 16 16" xmlns="http://www.w3.org/2000/svg" xmlns:ti="urn:schemas-jetbrains-com:tisvg"><rect id="frame" width="16" height="16" fill="none"/><g fill-rule="evenodd" fill="#C3C3C3"><path d="M8.5 14.118A6.618 6.618 0 1 1 8.5.882a6.618 6.618 0 0 1 0 13.236zM8.5 0a7.5 7.5 0 1 0 0 15 7.5 7.5 0 0 0 0-15z"/><path d="M8.49 12.106a.647.647 0 0 1-.457-.187.613.613 0 0 1-.193-.458c0-.183.064-.336.193-.458a.628.628 0 0 1 .457-.193c.176 0 .328.065.457.193a.602.602 0 0 1 .193.458c0 .18-.064.333-.193.458a.647.647 0 0 1-.457.187zM7.963 10c-.035 0-.067-.4-.094-.562a4.011 4.011 0 0 1-.041-.565c0-.25.05-.517.149-.72.1-.2.224-.41.372-.585.149-.177.311-.355.487-.518.175-.162.338-.33.486-.496.148-.166.272-.343.372-.525.1-.182.15-.383.15-.601a1.049 1.049 0 0 0-.405-.863 1.313 1.313 0 0 0-.433-.22c-.164-.048-.222-.074-.406-.074-.66 0-1.6.26-1.6.78V4.018c0-.375 1.1-.561 1.741-.561.297 0 .518.039.78.117.261.078.462.194.659.347.197.156.338.347.451.578.114.23.163.498.163.803 0 .289-.054.546-.156.773a2.81 2.81 0 0 1-.385.625 5.138 5.138 0 0 1-.502.53c-.18.163-.347.327-.502.488a2.707 2.707 0 0 0-.384.508 1.144 1.144 0 0 0-.152.58c0 .18.021.509.064.654.043.148.086.54.129.54h-.943z"/></g></svg>