<svg ti:v="1" width="16" height="16" viewBox="0 0 16 16" xmlns="http://www.w3.org/2000/svg" xmlns:ti="urn:schemas-jetbrains-com:tisvg"><rect id="frame" width="16" height="16" fill="none"/><linearGradient id="a" x1=".5" y1="0" x2=".5" y2="1"><stop offset="0" stop-color="#DD801D"/><stop offset="1" stop-color="#C15C1E"/></linearGradient><path fill-rule="evenodd" d="M0 .002V16h16V0L0 .002z" fill="url(#a)"/><linearGradient id="b" x1=".5" y1="0" x2=".5" y2="1"><stop offset="0" stop-color="#F68E1E"/><stop offset="1" stop-color="#E66B25"/></linearGradient><path fill-rule="evenodd" d="M1 1.002V15h14V1L1 1.002z" fill="url(#b)"/><path fill-rule="evenodd" d="M5 8.25c0 .948-.073 1.47-.25 2-.25.75-.981 1-1.75 1-.359 0-.769-.165-1-.25v-1c.209.144.671.25 1 .25.871 0 1-.882 1-2.25V3h1v5.25z" fill="#FFF"/><path fill-rule="evenodd" d="M8 11H7V3h1v8z" fill="#FFF"/><path fill-rule="evenodd" d="M14 4h-2v7h-1V4H9V3h5v1z" fill="#FFF"/></svg>