<svg ti:v="1" width="16" height="16" viewBox="0 0 16 16" xmlns="http://www.w3.org/2000/svg" xmlns:ti="urn:schemas-jetbrains-com:tisvg"><rect id="frame" width="16" height="16" fill="none"/><g fill-rule="evenodd"><path d="M16 0L0 .002V16h16V0z" fill="#242424"/><path d="M15 1L1 1.002V15h14V1z" fill="#E8A754"/><path d="M5 8.25c0 .948-.073 1.47-.25 2-.25.75-.981 1-1.75 1-.359 0-.769-.165-1-.25v-1c.209.144.671.25 1 .25.871 0 1-.882 1-2.25V3h1v5.25z" fill="#292929"/><path d="M8 11H7V3h1v8z" fill="#292929"/><path d="M14 4h-2v7h-1V4H9V3h5v1z" fill="#292929"/></g></svg>