<svg ti:v="1" width="16" height="16" viewBox="0 0 16 16" xmlns="http://www.w3.org/2000/svg" xmlns:ti="urn:schemas-jetbrains-com:tisvg"><rect id="frame" width="16" height="16" fill="none"/><linearGradient id="a" x1=".5" y1=".012" x2=".5" y2="1"><stop offset="0" stop-color="#696400"/><stop offset="1" stop-color="#412F00"/></linearGradient><path fill-rule="evenodd" d="M12 4v4H4v4h8v3H1V4h11z" fill="url(#a)"/><linearGradient id="b" x1=".5" y1=".012" x2=".5" y2="1"><stop offset="0" stop-color="#566980"/><stop offset="1" stop-color="#2D3641"/></linearGradient><path fill-rule="evenodd" d="M4 4V1h11v11H4V8h8V4H4z" fill="url(#b)"/><linearGradient id="c" x1=".5" y1=".012" x2=".5" y2="1"><stop offset="0" stop-color="#FFFDD5"/><stop offset="1" stop-color="#FFDD87"/></linearGradient><path fill-rule="evenodd" d="M11 5v3H9V7H3v6h6v-1h2v2H2V5h9z" fill="url(#c)"/><linearGradient id="d" x1=".5" y1=".012" x2=".5" y2="1"><stop offset="0" stop-color="#BFF4FF"/><stop offset="1" stop-color="#9CF"/></linearGradient><path fill-rule="evenodd" d="M7 8v1h6V3H7v1H5V2h9v9H5V8h2z" fill="url(#d)"/></svg>