<svg ti:v="1" width="16" height="16" viewBox="0 0 16 16" xmlns="http://www.w3.org/2000/svg" xmlns:ti="urn:schemas-jetbrains-com:tisvg"><rect id="frame" width="16" height="16" fill="none"/><linearGradient id="a" x1=".5" y1="0" x2=".5" y2="1"><stop offset="0" stop-color="purple"/><stop offset="1" stop-color="#5C005C"/></linearGradient><path fill-rule="evenodd" d="M15 4.5L8.3 0h-.6L1 4.5v7.035L7.697 16h.606L15 11.535V4.5z" fill="url(#a)"/><linearGradient id="b" x1=".028" y1=".5" x2="1.015" y2=".5"><stop offset="0" stop-color="#FD58FF"/><stop offset="1" stop-color="#FF9CFF"/></linearGradient><path fill-rule="evenodd" d="M2 5v6l6 4V9L2 5z" fill="url(#b)"/><linearGradient id="c" x1=".028" y1=".5" x2="1.015" y2=".5"><stop offset="0" stop-color="#FD33FF"/><stop offset="1" stop-color="#FFA3FF"/></linearGradient><path fill-rule="evenodd" d="M14 5L8 9v6l6-4V5z" fill="url(#c)"/><path fill-rule="evenodd" d="M8 9l5.975-3.983-.899-.604L8 7.799 2.924 4.413l-.899.604L8 9z" fill="#FFF"/><linearGradient id="d" x1=".5" y1=".028" x2=".5" y2="1.015"><stop offset="0" stop-color="#FD54FF"/><stop offset="1" stop-color="#FFBFFF"/></linearGradient><path fill-rule="evenodd" d="M8 7.799L2.901 4.398 8 1l5.099 3.398L8 7.799z" fill="url(#d)"/></svg>