<svg ti:v="1" width="16" height="16" viewBox="0 0 16 16" xmlns="http://www.w3.org/2000/svg" xmlns:ti="urn:schemas-jetbrains-com:tisvg"><rect id="frame" width="16" height="16" fill="none"/><linearGradient id="a" x1="0" y1=".5" x2="1" y2=".5"><stop offset="0" stop-color="#3F5F70"/><stop offset="1" stop-color="#41753F"/></linearGradient><path fill-rule="evenodd" d="M5 0v12h11V1h-5V0H5z" fill="url(#a)"/><linearGradient id="b" x1="0" y1=".5" x2="1" y2=".5"><stop offset="0" stop-color="#C1EAFF"/><stop offset="1" stop-color="#24B8FF"/></linearGradient><path fill-rule="evenodd" d="M6 11h4V1H6v10z" fill="url(#b)"/><path fill-rule="evenodd" d="M9 3H7V2h2m0 6H7V7h2m0 3H7V9h2v1z" fill="#002D70"/><linearGradient id="c" x1="0" y1=".5" x2="1" y2=".5"><stop offset="0" stop-color="#AAFFA8"/><stop offset="1" stop-color="#069C00"/></linearGradient><path fill-rule="evenodd" d="M11 11h4V2h-4v9z" fill="url(#c)"/><path fill-rule="evenodd" d="M14 5h-2V3h2m0 5h-2V7h2m0 3h-2V9h2v1z" fill="#00630C"/><linearGradient id="d" x1=".5" y1=".017" x2=".5" y2="1.008"><stop offset="0" stop-color="#8C0900"/><stop offset="1" stop-color="#C60000"/></linearGradient><path fill-rule="evenodd" d="M11 5L6 8 4.813 6c-.237-.236-.603-1-1.315-1-.587 0-1.137.24-1.55.675-.785.819-.783 1.37-.119 2.325L4 10l-2.906 2.109c-.42.444-1.093.903-1.094 1.533-.001.63.232 1.223.655 1.673.422.442.981.685 1.574.685.594 0 1.153-.586 1.547-1L6 12l4 4h3l-5-6 5-5h-2z" fill="url(#d)"/><linearGradient id="e" x1=".5" y1="0" x2=".5" y2="1"><stop offset="0" stop-color="#FFA88E"/><stop offset="1" stop-color="red"/></linearGradient><path fill-rule="evenodd" d="M10.436 6L6 9 3.96 6.282c-.346-.396-1.047-.342-1.387 0a.996.996 0 0 0 0 1.405L5 10l-3.814 3.309a.992.992 0 0 0 0 1.404.97.97 0 0 0 1.387 0L6 11l4.5 4h.5l-4-5 4-4h-.564z" fill="url(#e)"/></svg>