<svg xmlns="http://www.w3.org/2000/svg" width="16" height="16" viewBox="0 0 16 16"><rect id="frame" width="16" height="16" fill="none"/><g data-name="Layer 2"><g data-name="Layer 1"><path d="M11 2v9h4V2zm3 8h-2V9h2zm0-2h-2V7h2zm0-3h-2V3h2z" fill="#b0b1b3"/><g fill="#b0b1b3"><path d="M9 9v1H8l.83 1H10V8L9 9z"/><path d="M7 7h.67L10 5.6V1H6v7l1-.6zm0-5h2v1H7z"/></g><path d="M7 10l4-4h-.56L6 9 4 6.28a1 1 0 0 0-1.39 0 1 1 0 0 0 0 1.41L5 10l-3.81 3.31a1 1 0 0 0 0 1.4 1 1 0 0 0 1.38 0L6 11l4.5 4h.5z" fill="#c85451"/></g></g></svg>