<svg ti:v="1" width="16" height="16" viewBox="0 0 16 16" xmlns="http://www.w3.org/2000/svg" xmlns:ti="urn:schemas-jetbrains-com:tisvg"><rect id="frame" width="16" height="16" fill="none"/><g fill-rule="evenodd"><path d="M0 16h16V0H0v16z" fill="#242424"/><path d="M1 15h14V1H1v14z" fill="#C3C3C3"/><path d="M3 13h10V3H3v10z" fill="#292929"/><path d="M8.951 11.498a.502.502 0 0 1-.426-.34L6.879 6.219 5.435 8.748A.502.502 0 0 1 5 9H2V8h2.71l1.855-3.248a.525.525 0 0 1 .484-.25.502.502 0 0 1 .426.34l1.646 4.939 1.444-2.529A.502.502 0 0 1 11 7h3v1h-2.71l-1.855 3.248A.502.502 0 0 1 9 11.5z" fill="#C3C3C3"/></g></svg>