<svg ti:v="1" width="16" height="16" viewBox="0 0 16 16" xmlns="http://www.w3.org/2000/svg" xmlns:ti="urn:schemas-jetbrains-com:tisvg"><rect id="frame" width="16" height="16" fill="none"/><linearGradient id="a" x1="0" y1=".5" x2="1" y2=".5"><stop offset="0" stop-color="#025682"/><stop offset=".502" stop-color="#013E6D"/><stop offset="1" stop-color="#002758"/></linearGradient><path fill-rule="evenodd" d="M0 16h16V0H0v16z" fill="url(#a)"/><linearGradient id="b" x1=".5" y1="0" x2=".5" y2="1"><stop offset="0" stop-color="#589ED2"/><stop offset=".499" stop-color="#A8CDE8"/><stop offset=".994" stop-color="#F9FDFF"/><stop offset="1" stop-color="#F9FDFF"/></linearGradient><path fill-rule="evenodd" d="M1 15h14V1H1v14z" fill="url(#b)"/><linearGradient id="c" x1=".5" y1="0" x2=".5" y2="1"><stop offset="0" stop-color="#CDEFFF"/><stop offset=".497" stop-color="#6AD5F5"/><stop offset=".994" stop-color="#08BCEB"/><stop offset="1" stop-color="#08BCEB"/></linearGradient><path fill-rule="evenodd" d="M3 13h10.001V3H3v10z" fill="url(#c)"/><path fill-rule="evenodd" d="M8.951 11.498a.502.502 0 0 1-.426-.34L6.879 6.219 5.435 8.748A.502.502 0 0 1 5 9H2V8h2.71l1.855-3.248a.525.525 0 0 1 .484-.25.502.502 0 0 1 .426.34l1.646 4.939 1.444-2.529A.502.502 0 0 1 11 7h3v1h-2.71l-1.855 3.248A.502.502 0 0 1 9 11.5z" fill="#22303B"/></svg>