<svg ti:v="1" width="16" height="16" viewBox="0 0 16 16" xmlns="http://www.w3.org/2000/svg" xmlns:ti="urn:schemas-jetbrains-com:tisvg"><rect id="frame" width="16" height="16" fill="none"/><g fill-rule="evenodd"><path d="M16 14H0V0h16v14z" fill="#242424"/><path d="M14 12H2V4h12M1 13h14V1H1v12z" fill="#C3C3C3"/><path d="M14 12H2V4h12v8z" fill="#242424"/><path d="M7.231 8h-.547L3.87 10.062 2.327 9h-.568L0 9.907v4.186L1.759 15h.568l1.543-1.062L6.684 16h.547L10 14.713V9.287L7.231 8z" fill="#242424"/><path d="M7 13.733L4.517 12 7 10.266m-5.251 2.706v-1.945L3.186 12m3.819-3l-3.12 2.288-1.881-1.292L1 10.514v2.971l1.005.519 1.88-1.293L7.004 15 9 14.074V9.926L7.005 9z" fill="#B180D3"/></g></svg>