<svg ti:v="1" width="16" height="16" viewBox="0 0 16 16" xmlns="http://www.w3.org/2000/svg" xmlns:ti="urn:schemas-jetbrains-com:tisvg"><rect id="frame" width="16" height="16" fill="none"/><linearGradient id="a" x1="0" y1=".5" x2="1" y2=".5"><stop offset="0" stop-color="#566980"/><stop offset="1" stop-color="#2D3641"/></linearGradient><path fill-rule="evenodd" d="M16 14H0V0h16v14z" fill="url(#a)"/><linearGradient id="b" x1="0" y1=".5" x2="1" y2=".5"><stop offset="0" stop-color="#FFF"/><stop offset="1" stop-color="#A7BADB"/></linearGradient><path fill-rule="evenodd" d="M14 12H2V4h12M1 13h14V1H1v12z" fill="url(#b)"/><linearGradient id="c" x1=".5" y1="0" x2=".5" y2="1"><stop offset="0" stop-color="#FFF"/><stop offset="1" stop-color="#A7BADB"/></linearGradient><path fill-rule="evenodd" d="M14 12H2V4h12v8z" fill="url(#c)"/><linearGradient id="d" x1=".5" y1="0" x2=".5" y2="1"><stop offset="0" stop-color="#663787"/><stop offset="1" stop-color="#25093B"/></linearGradient><path fill-rule="evenodd" d="M7.22 8h-.547l-2.814 2.062L2.316 9h-.567L0 9.907v4.186L1.749 15h.567l1.543-1.062L6.673 16h.547L10 14.713V9.287L7.22 8z" fill="url(#d)"/><linearGradient id="e" x1=".5" y1="0" x2=".5" y2="1"><stop offset="0" stop-color="#DEB3FF"/><stop offset="1" stop-color="#B352FF"/></linearGradient><path fill-rule="evenodd" d="M7 13.733L4.517 12 7 10.267m-5.261 2.705v-1.944L3.176 12M7 9l-3.122 2.288L2 9.996l-1 .518v2.972l1 .518 1.878-1.292L7 15l2-.926V9.926L7 9z" fill="url(#e)"/><linearGradient id="f" x1="0" y1=".5" x2="1" y2=".5"><stop offset="0" stop-color="#6D97E6"/><stop offset="1" stop-color="#2F62C7"/></linearGradient><path fill-rule="evenodd" d="M15 4H1V1h14v3z" fill="url(#f)"/></svg>