<svg ti:v="1" width="16" height="16" viewBox="0 0 16 16" xmlns="http://www.w3.org/2000/svg" xmlns:ti="urn:schemas-jetbrains-com:tisvg"><rect id="frame" width="16" height="16" fill="none"/><g fill-rule="evenodd"><path d="M16 14H0V0h16v14z" fill="#F4F4F4"/><path d="M14 12H2V4h12M1 13h14V1H1v12z" fill="#313131"/><path d="M14 12H2V4h12v8z" fill="#EBEBEB"/><path d="M7.22 8h-.547l-2.814 2.062L2.316 9h-.568L0 9.907v4.186L1.748 15h.568l1.543-1.062L6.673 16h.547L10 14.713V9.287L7.22 8z" fill="#F4F4F4"/><path d="M7 13.733L4.517 12 7 10.266m-5.261 2.706v-1.945L3.176 12M7 9l-3.122 2.288L2 9.996l-1 .518v2.971l1 .519 1.878-1.293L7 15l2-.926V9.926L7 9z" fill="#642D8C"/></g></svg>