<svg ti:v="1" width="16" height="16" viewBox="0 0 16 16" xmlns="http://www.w3.org/2000/svg" xmlns:ti="urn:schemas-jetbrains-com:tisvg"><rect id="frame" width="16" height="16" fill="none"/><g fill-rule="evenodd"><path d="M8 16c-3.991 0-7-1.852-7-4.308V4.308C1 1.852 4.009 0 8 0s7 1.852 7 4.308v7.384C15 14.148 11.991 16 8 16z" fill="#F4F4F4"/><path d="M8 13.539c-2.822 0-5.175-1.058-5.716-2.462-.076.2-.117.404-.117.616 0 1.699 2.611 3.077 5.833 3.077s5.833-1.378 5.833-3.077c0-.212-.041-.416-.117-.616-.541 1.404-2.894 2.462-5.716 2.462zm0-3.693c-2.822 0-5.175-1.057-5.716-2.461-.076.2-.117.404-.117.616 0 1.699 2.611 3.076 5.833 3.076s5.833-1.377 5.833-3.076c0-.212-.041-.416-.117-.616C13.175 8.789 10.822 9.846 8 9.846zm5.833-5.539c0 1.701-2.611 3.078-5.833 3.078S2.167 6.008 2.167 4.307c0-1.698 2.611-3.076 5.833-3.076s5.833 1.378 5.833 3.076z" fill="#313131"/></g></svg>