<svg ti:v="1" width="16" height="16" viewBox="0 0 16 16" xmlns="http://www.w3.org/2000/svg" xmlns:ti="urn:schemas-jetbrains-com:tisvg"><rect id="frame" width="16" height="16" fill="none"/><linearGradient id="a" x1="0" y1=".5" x2="1" y2=".5"><stop offset="0" stop-color="#587E95"/><stop offset="1" stop-color="#21464F"/></linearGradient><path fill-rule="evenodd" d="M1 4.307v7.385C1 14.148 4.009 16 8 16s7-1.852 7-4.308V4.307C15 1.852 11.991 0 8 0S1 1.852 1 4.307z" fill="url(#a)"/><linearGradient id="b" x1="0" y1=".5" x2="1" y2=".5"><stop offset="0" stop-color="#D3FFFD"/><stop offset="1" stop-color="#80D3FF"/></linearGradient><path fill-rule="evenodd" d="M2.167 4.307c0 1.701 2.611 3.078 5.833 3.078s5.834-1.377 5.834-3.078c0-1.699-2.612-3.076-5.834-3.076-3.222 0-5.833 1.377-5.833 3.076zM8 9.846c-2.822 0-5.174-1.058-5.716-2.461A1.692 1.692 0 0 0 2.167 8c0 1.699 2.611 3.077 5.833 3.077S13.834 9.699 13.834 8c0-.211-.042-.416-.118-.615C13.175 8.788 10.822 9.846 8 9.846zm0 3.693c-2.822 0-5.174-1.059-5.716-2.462a1.688 1.688 0 0 0-.117.615c0 1.7 2.611 3.077 5.833 3.077s5.834-1.377 5.834-3.077a1.71 1.71 0 0 0-.118-.615c-.541 1.403-2.894 2.462-5.716 2.462z" fill="url(#b)"/></svg>