<svg ti:v="1" width="16" height="16" viewBox="0 0 16 16" xmlns="http://www.w3.org/2000/svg" xmlns:ti="urn:schemas-jetbrains-com:tisvg"><rect id="frame" width="16" height="16" fill="none"/><linearGradient id="a" x1="1" y1=".5" x2="0" y2=".5"><stop offset="0" stop-color="#737E7E"/><stop offset="1" stop-color="#2E3D5C"/></linearGradient><path fill-rule="evenodd" d="M1 3h5V1h1.412L16 9.453 11.506 14H10v-2H1V3z" fill="url(#a)"/><linearGradient id="b" x1="1" y1=".5" x2="0" y2=".5"><stop offset="0" stop-color="#FBFDFF"/><stop offset="1" stop-color="#ACBAD2"/></linearGradient><path fill-rule="evenodd" d="M7 2v2H2v3h5v2l3.5-3.5M8 4.414L9.086 5.5 8 6.586V6H3V5h5v-.586z" fill="url(#b)"/><linearGradient id="c" x1="1" y1=".5" x2="0" y2=".5"><stop offset="0" stop-color="#FBFDFF"/><stop offset="1" stop-color="#ACBAD2"/></linearGradient><path fill-rule="evenodd" d="M14.5 9.5l-3.193-3.193-.307.307V8H9.614l-2 2H6V8H2v3h9v2l3.5-3.5z" fill="url(#c)"/></svg>