<svg ti:v="1" width="16" height="16" viewBox="0 0 16 16" xmlns="http://www.w3.org/2000/svg" xmlns:ti="urn:schemas-jetbrains-com:tisvg"><rect id="frame" width="16" height="16" fill="none"/><g fill-rule="evenodd"><path d="M16 7.139l-.231-.278C15.638 6.703 12.513 3 8.5 3S1.362 6.703 1.23 6.861L1 7.139v.723l.23.278C1.362 8.297 4.487 12 8.5 12s7.138-3.703 7.269-3.86L16 7.862v-.723z" fill="#242424"/><path d="M15 7.5S12.09 4 8.5 4 2 7.5 2 7.5 4.91 11 8.5 11 15 7.5 15 7.5z" fill="#C3C3C3"/><path d="M11 7.5a2.5 2.5 0 1 0-5 0 2.5 2.5 0 0 0 5 0z" fill="#292929"/><path d="M8.5 7.5l-.787-1.838a2.002 2.002 0 0 0-.953.871L8.5 7.5z" fill="#292929"/></g></svg>