<svg ti:v="1" width="16" height="16" viewBox="0 0 16 16" xmlns="http://www.w3.org/2000/svg" xmlns:ti="urn:schemas-jetbrains-com:tisvg"><rect id="frame" width="16" height="16" fill="none"/><linearGradient id="a" x1=".5" y1=".013" x2=".5" y2="1.001"><stop offset="0" stop-color="#484D73"/><stop offset="1" stop-color="#7078B3"/></linearGradient><path fill-rule="evenodd" d="M1.231 6.86L1 7.138v.723l.231.278C1.362 8.297 4.487 12 8.5 12c4.012 0 7.138-3.703 7.269-3.861L16 7.861v-.723l-.231-.278C15.638 6.703 12.512 3 8.5 3 4.487 3 1.362 6.703 1.231 6.86z" fill="url(#a)"/><linearGradient id="b" x1=".5" y1="0" x2=".5" y2="1.003"><stop offset="0" stop-color="#FFF"/><stop offset="1" stop-color="#DFDDCF"/></linearGradient><path fill-rule="evenodd" d="M2 7.5S4.91 11 8.5 11c3.589 0 6.5-3.5 6.5-3.5S12.089 4 8.5 4C4.91 4 2 7.5 2 7.5z" fill="url(#b)"/><path fill-rule="evenodd" d="M11 7.5a2.5 2.5 0 1 0-5 0 2.5 2.5 0 0 0 5 0z" fill="#005BB3"/><path fill-rule="evenodd" d="M8.5 7.5l-.787-1.838a2.002 2.002 0 0 0-.953.871L8.5 7.5z" fill="#FFF"/></svg>