<svg ti:v="1" width="16" height="16" viewBox="0 0 16 16" xmlns="http://www.w3.org/2000/svg" xmlns:ti="urn:schemas-jetbrains-com:tisvg"><rect id="frame" width="16" height="16" fill="none"/><linearGradient id="a" x1=".5" y1=".007" x2=".5" y2=".996"><stop offset="0" stop-color="#566980"/><stop offset="1" stop-color="#2D3641"/></linearGradient><path fill-rule="evenodd" d="M1 8a7 7 0 0 0 7 7c3.865 0 7-3.135 7-7s-3.135-7-7-7a7 7 0 0 0-7 7z" fill="url(#a)"/><linearGradient id="b" x1=".5" y1="-.002" x2=".5" y2="1.005"><stop offset="0" stop-color="#DFEFFF"/><stop offset="1" stop-color="#A5B1BC"/></linearGradient><path fill-rule="evenodd" d="M2 8a6 6 0 0 0 12 0A6 6 0 0 0 2 8z" fill="url(#b)"/><linearGradient id="c" x1=".5" y1="1.002" x2=".5" y2="-.005"><stop offset="0" stop-color="#FFF"/><stop offset="1" stop-color="#DFDDCF"/></linearGradient><path fill-rule="evenodd" d="M7.93 4.001a3.999 3.999 0 1 0 .139 7.998A4 4 0 1 0 8.002 4l-.072.001z" fill="url(#c)"/><path fill-rule="evenodd" d="M8 5H7v4h4V8H8V5z"/></svg>