<svg ti:v="1" width="16" height="16" viewBox="0 0 16 16" xmlns="http://www.w3.org/2000/svg" xmlns:ti="urn:schemas-jetbrains-com:tisvg"><rect id="frame" width="16" height="16" fill="none"/><g fill-rule="evenodd"><path d="M8.5 1a4.36 4.36 0 0 0-4.359 4.359c0 .774.208 1.498.562 2.128C4.762 7.592 7 10.438 7 10.438V15h3v-4.562l2.278-2.951c.354-.63.571-1.354.571-2.128A4.351 4.351 0 0 0 8.5 1z" fill="#F4F4F4"/><path d="M8.5 2a3.333 3.333 0 0 0-3.333 3.333 3.321 3.321 0 0 0 .573 1.862L8 10.13V14h1v-3.87l2.26-2.935c.043-.062.08-.129.118-.195l.026-.039c.27-.482.429-1.036.429-1.628A3.333 3.333 0 0 0 8.5 2z"/></g></svg>