<svg ti:v="1" width="16" height="16" viewBox="0 0 16 16" xmlns="http://www.w3.org/2000/svg" xmlns:ti="urn:schemas-jetbrains-com:tisvg"><rect id="frame" width="16" height="16" fill="none"/><g fill-rule="evenodd"><path d="M14 3.5c0 1.1-.9 2-2 2h-1c-1.1 0-2-.9-2-2v-1c0-1.1.9-2 2-2h1c1.1 0 2 .9 2 2v1z" fill="#242424"/><path d="M13 3.5c0 .55-.45 1-1 1h-1c-.55 0-1-.45-1-1v-1c0-.55.45-1 1-1h1c.55 0 1 .45 1 1v1z" fill="#C3C3C3"/><path d="M14 8.5c0 1.1-.9 2-2 2h-1c-1.1 0-2-.9-2-2v-1c0-1.1.9-2 2-2h1c1.1 0 2 .9 2 2v1z" fill="#242424"/><path d="M13 8.5c0 .55-.45 1-1 1h-1c-.55 0-1-.45-1-1v-1c0-.55.45-1 1-1h1c.55 0 1 .45 1 1v1z" fill="#C3C3C3"/><path d="M14 13.5c0 1.1-.9 2-2 2h-1c-1.1 0-2-.9-2-2v-1c0-1.1.9-2 2-2h1c1.1 0 2 .9 2 2v1z" fill="#242424"/><path d="M13 13.5c0 .55-.45 1-1 1h-1c-.55 0-1-.45-1-1v-1c0-.55.45-1 1-1h1c.55 0 1 .45 1 1v1z" fill="#C3C3C3"/><path d="M1 10.5V7.468l2 1V2.086h4v6.382l2-1V10.5l-4 4-4-4z" fill="#242424"/><path d="M5 13.086l-3-3v-1l2 1v-7h2v7l2-1v1l-3 3z" fill="#7CBDFF"/></g></svg>