<svg ti:v="1" width="16" height="16" viewBox="0 0 16 16" xmlns="http://www.w3.org/2000/svg" xmlns:ti="urn:schemas-jetbrains-com:tisvg"><rect id="frame" width="16" height="16" fill="none"/><linearGradient id="a" x1="0" y1=".5" x2="1" y2=".5"><stop offset="0" stop-color="#7A3300"/><stop offset="1" stop-color="#620000"/></linearGradient><path fill-rule="evenodd" d="M11.25.5c-1.1 0-2 .9-2 2v1c0 1.1.9 2 2 2h1c1.1 0 2-.9 2-2v-1c0-1.1-.9-2-2-2h-1z" fill="url(#a)"/><linearGradient id="b" x1=".5" y1="0" x2=".5" y2="1"><stop offset="0" stop-color="#FFFBE8"/><stop offset="1" stop-color="#FFF278"/></linearGradient><path fill-rule="evenodd" d="M11.25 1.5c-.55 0-1 .45-1 1v1c0 .55.45 1 1 1h1c.55 0 1-.45 1-1v-1c0-.55-.45-1-1-1h-1z" fill="url(#b)"/><linearGradient id="c" x1="0" y1=".5" x2="1" y2=".5"><stop offset="0" stop-color="#7A3300"/><stop offset="1" stop-color="#620000"/></linearGradient><path fill-rule="evenodd" d="M11.25 5.5c-1.1 0-2 .901-2 2v1c0 1.099.9 2 2 2h1c1.1 0 2-.901 2-2v-1c0-1.099-.9-2-2-2h-1z" fill="url(#c)"/><linearGradient id="d" x1=".5" y1="0" x2=".5" y2="1"><stop offset="0" stop-color="#FFFBE8"/><stop offset="1" stop-color="#FFF278"/></linearGradient><path fill-rule="evenodd" d="M11.25 6.5c-.55 0-1 .451-1 1v1c0 .549.45 1 1 1h1c.55 0 1-.451 1-1v-1c0-.549-.45-1-1-1h-1z" fill="url(#d)"/><linearGradient id="e" x1="0" y1=".5" x2="1" y2=".5"><stop offset="0" stop-color="#7A3300"/><stop offset="1" stop-color="#620000"/></linearGradient><path fill-rule="evenodd" d="M11.25 10.5c-1.1 0-2 .9-2 2v1c0 1.1.9 2 2 2h1c1.1 0 2-.9 2-2v-1c0-1.1-.9-2-2-2h-1z" fill="url(#e)"/><linearGradient id="f" x1=".5" y1="0" x2=".5" y2="1"><stop offset="0" stop-color="#FFFBE8"/><stop offset="1" stop-color="#FFF278"/></linearGradient><path fill-rule="evenodd" d="M11.25 11.5c-.55 0-1 .45-1 1v1c0 .55.45 1 1 1h1c.55 0 1-.45 1-1v-1c0-.55-.45-1-1-1h-1z" fill="url(#f)"/><linearGradient id="g" x1=".5" y1=".017" x2=".5" y2="1.014"><stop offset="0" stop-color="#0D3752"/><stop offset="1" stop-color="#36627C"/></linearGradient><path fill-rule="evenodd" d="M3.25 2.086v6.382l-2-1V10.5l4 4 4-4V7.468l-2 1V2.086h-4z" fill="url(#g)"/><linearGradient id="h" x1=".5" y1=".007" x2=".5" y2="1"><stop offset="0" stop-color="#60C2FF"/><stop offset="1" stop-color="#B8F4FF"/></linearGradient><path fill-rule="evenodd" d="M4.25 3.086v7l-2-1v1l3 3 3-3v-1l-2 1v-7h-2z" fill="url(#h)"/></svg>