<svg ti:v="1" width="16" height="16" viewBox="0 0 16 16" xmlns="http://www.w3.org/2000/svg" xmlns:ti="urn:schemas-jetbrains-com:tisvg"><rect id="frame" width="16" height="16" fill="none"/><g fill-rule="evenodd"><path d="M15 3.5c0 1.1-.9 2-2 2h-1c-1.1 0-2-.9-2-2v-1c0-1.1.9-2 2-2h1c1.1 0 2 .9 2 2v1z" fill="#F4F4F4"/><path d="M14 3.5c0 .55-.45 1-1 1h-1c-.55 0-1-.45-1-1v-1c0-.55.45-1 1-1h1c.55 0 1 .45 1 1v1z" fill="#313131"/><path d="M15 8.5c0 1.1-.9 2-2 2h-1c-1.1 0-2-.9-2-2v-1c0-1.1.9-2 2-2h1c1.1 0 2 .9 2 2v1z" fill="#F4F4F4"/><path d="M14 8.5c0 .55-.45 1-1 1h-1c-.55 0-1-.45-1-1v-1c0-.55.45-1 1-1h1c.55 0 1 .45 1 1v1z" fill="#313131"/><path d="M15 13.5c0 1.1-.9 2-2 2h-1c-1.1 0-2-.9-2-2v-1c0-1.1.9-2 2-2h1c1.1 0 2 .9 2 2v1z" fill="#F4F4F4"/><path d="M14 13.5c0 .55-.45 1-1 1h-1c-.55 0-1-.45-1-1v-1c0-.55.45-1 1-1h1c.55 0 1 .45 1 1v1z" fill="#313131"/><path d="M2 10.414V7.382l2 1V2h4v6.382l2-1v3.032l-4 4-4-4z" fill="#F4F4F4"/><path d="M6 13l-3-3V9l2 1V3h2v7l2-1v1l-3 3z" fill="#00529C"/></g></svg>